
<svg xmlns="http://www.w3.org/2000/svg" version="1.1" xmlns:xlink="http://www.w3.org/1999/xlink" preserveAspectRatio="none" x="0px" y="0px" width="72px" height="72px" viewBox="0 0 72 72">
<defs>
<filter id="Filter_1" x="-20%" y="-20%" width="140%" height="140%" color-interpolation-filters="sRGB">
<feColorMatrix in="SourceGraphic" type="matrix" values="1 0 0 0 0 0 1 0 0 0 0 0 1 0 0 0 0 0 0.1 0" result="result1"/>
</filter>

<g id="flash0_ai_Modo_de_isolamento__Path__0_Layer0_0_FILL">
<path fill="#667794" stroke="none" d="
M 28.3 5.95
Q 28.3 3.5 24.15 1.75 20 0 14.15 0 8.3 0 4.15 1.75 0 3.5 0 5.95 0 8.4 4.15 10.1 8.3 11.85 14.15 11.85 20 11.85 24.15 10.1 28.3 8.4 28.3 5.95 Z"/>
</g>

<g id="Layer1_0_MEMBER_1_FILL">
<path fill="#B0BB9B" stroke="none" d="
M 677.05 50.05
L 677 50.05 660.95 94.35
Q 660.95 97.1 664.65 99.35 665.5390625 99.921484375 666.55 100.4 669.6375 101.8357421875 674 102.55
L 679 49.95 677.05 50.05
M 682 33.5
Q 682 31.15 680.3 29.35 678.6 27.65 676.15 27.65 673.8 27.65 672.1 29.35 670.4 31.05 670.4 33.5 670.4 35.95 672.1 37.55 673.8 39.25 676.15 39.25 678.6 39.25 680.3 37.55 682 35.85 682 33.5 Z"/>

<path fill="#98A354" stroke="none" d="
M 693.4 44.45
Q 696.05 40.85 696.05 36.35 696.05 30.95 692.45 27 688.8 23 683.5 22.45
L 682 22.35
Q 676.2 22.35 672.15 26.5 668 30.55 668 36.35 668 40.85 670.55 44.45 673.0931640625 48.0404296875 677.2 49.55
L 677.05 50.05 679 49.95 674 102.55 674.05 102.55
Q 677.75 103.2 682 103.2 686.7 103.2 691.15 102.35 696.6 101.2 699.75 99.15 703.05 96.95 703.05 94.4
L 686.8 49.55
Q 690.85 47.95 693.4 44.45
M 680.3 29.35
Q 682 31.15 682 33.5 682 35.85 680.3 37.55 678.6 39.25 676.15 39.25 673.8 39.25 672.1 37.55 670.4 35.95 670.4 33.5 670.4 31.05 672.1 29.35 673.8 27.65 676.15 27.65 678.6 27.65 680.3 29.35 Z"/>
</g>

<g id="Layer1_0_MEMBER_1_MEMBER_0_FILL">
<path fill="#69793B" stroke="none" d="
M 0.35 0.4
Q 2.35 2.9 2.6 6.1 2.85 9.25 1.3 12.05
L 0.7 12.95 3.6 37.6
Q 6.15 37.05 7.65 36.1 9.2 35.05 9.2 33.85
L 1.55 12.75
Q 3.45 12 4.65 10.35 5.9 8.65 5.9 6.55 5.9 4 4.2 2.15 2.5 0.25 0 0
L 0.35 0.4 Z"/>
</g>
</defs>

<g transform="matrix( 1.67291259765625, 0, 0, 1.67291259765625, 12.35,51.05) ">
<g transform="matrix( 1, 0, 0, 1, 0,0) ">
<use filter="url(#Filter_1)" xlink:href="#flash0_ai_Modo_de_isolamento__Path__0_Layer0_0_FILL"/>
</g>
</g>

<g transform="matrix( 0.7873687744140625, 0, 0, 0.7873687744140625, -495.1,-16.45) ">
<use xlink:href="#Layer1_0_MEMBER_1_FILL"/>
</g>

<g transform="matrix( 1.67291259765625, 0, 0, 1.67291259765625, 43,1.15) ">
<use xlink:href="#Layer1_0_MEMBER_1_MEMBER_0_FILL"/>
</g>
</svg>
