<svg xmlns="http://www.w3.org/2000/svg" width="91.63" height="130.85" viewBox="0 0 91.63 130.85">
  <g id="Atualização_em_Fitoterapia_-_Aspectos_Clínicos_-_Telas-25" data-name="Atualização em Fitoterapia - Aspectos Clínicos - Telas-25" transform="translate(-1.68 -4.58)">
    <g id="Grupo_7867" data-name="Grupo 7867">
      <rect id="Retângulo_747" data-name="Retângulo 747" width="91.63" height="130.85" rx="45.815" transform="translate(1.68 4.58)" fill="#fff"/>
      <rect id="Retângulo_748" data-name="Retângulo 748" width="76.62" height="115.83" rx="38.31" transform="translate(9.19 12.08)" fill="none" stroke="#cda45e" stroke-miterlimit="10" stroke-width="1.5"/>
    </g>
    <g id="Grupo_7870" data-name="Grupo 7870">
      <g id="Grupo_7868" data-name="Grupo 7868">
        <path id="Caminho_10317" data-name="Caminho 10317" d="M26.56,94.3a.392.392,0,0,1-.13.15.286.286,0,0,1-.17.05.352.352,0,0,1-.21-.07q-.12-.075-.27-.15c-.1-.05-.22-.1-.35-.15a1.308,1.308,0,0,0-.46-.07,1.01,1.01,0,0,0-.7.21.683.683,0,0,0-.23.55.515.515,0,0,0,.13.36,1.154,1.154,0,0,0,.34.25,2.874,2.874,0,0,0,.47.18q.27.075.54.18a3.246,3.246,0,0,1,.54.23,1.983,1.983,0,0,1,.47.33,1.541,1.541,0,0,1,.34.48,1.784,1.784,0,0,1,.13.7,2.048,2.048,0,0,1-.16.83,1.839,1.839,0,0,1-.45.68,2.12,2.12,0,0,1-.72.46,2.7,2.7,0,0,1-.97.17,3.256,3.256,0,0,1-.62-.06,2.884,2.884,0,0,1-.59-.18,3.4,3.4,0,0,1-.54-.27,1.939,1.939,0,0,1-.44-.35l.4-.64a.83.83,0,0,1,.13-.12.337.337,0,0,1,.17-.05.479.479,0,0,1,.26.09c.09.06.19.13.31.2a2.613,2.613,0,0,0,.41.2,1.566,1.566,0,0,0,.56.09,1.062,1.062,0,0,0,.73-.22.793.793,0,0,0,.26-.64.568.568,0,0,0-.13-.4,1.088,1.088,0,0,0-.33-.26,2.561,2.561,0,0,0-.47-.18c-.18-.05-.36-.1-.54-.16a3.214,3.214,0,0,1-.54-.22,2.209,2.209,0,0,1-.47-.33,1.5,1.5,0,0,1-.33-.51,2.074,2.074,0,0,1-.13-.76,1.951,1.951,0,0,1,.14-.71,1.8,1.8,0,0,1,.42-.61,2.183,2.183,0,0,1,.69-.43,2.451,2.451,0,0,1,.93-.16,3.2,3.2,0,0,1,1.09.18,2.411,2.411,0,0,1,.85.51l-.33.63Z" fill="#cda45e"/>
        <path id="Caminho_10318" data-name="Caminho 10318" d="M33.56,99.58H32.51a.522.522,0,0,1-.29-.08.537.537,0,0,1-.16-.21l-.44-1.25h-2.6l-.44,1.25a.489.489,0,0,1-.16.2.447.447,0,0,1-.28.09H27.08l2.55-6.53h1.38l2.55,6.53ZM31.29,97.1l-.71-2a3.848,3.848,0,0,1-.13-.37,4.28,4.28,0,0,1-.13-.46c-.04.17-.09.32-.13.47s-.09.27-.13.37l-.7,1.99H31.3Z" fill="#cda45e"/>
        <path id="Caminho_10319" data-name="Caminho 10319" d="M35.52,99.58H34.16V93.05h1.36Z" fill="#cda45e"/>
        <path id="Caminho_10320" data-name="Caminho 10320" d="M39.21,93.05a4.517,4.517,0,0,1,1.12.12,2.142,2.142,0,0,1,.76.35,1.276,1.276,0,0,1,.43.55,1.882,1.882,0,0,1,.13.72,1.251,1.251,0,0,1-.07.43,1.2,1.2,0,0,1-.2.39,1.586,1.586,0,0,1-.35.33,2.02,2.02,0,0,1-.51.25,1.936,1.936,0,0,1,.99.51,1.337,1.337,0,0,1,.32.92,1.8,1.8,0,0,1-.16.77,1.762,1.762,0,0,1-.47.62,2.345,2.345,0,0,1-.75.41,3.238,3.238,0,0,1-1.03.15H36.89V93.04h2.32Zm-.97,1.03v1.76h.89a2.411,2.411,0,0,0,.5-.05.958.958,0,0,0,.37-.15.754.754,0,0,0,.23-.27,1.158,1.158,0,0,0,.01-.82.551.551,0,0,0-.2-.27.819.819,0,0,0-.34-.15,2.311,2.311,0,0,0-.49-.05h-.97Zm1.16,4.46a1.556,1.556,0,0,0,.53-.08.783.783,0,0,0,.33-.21.923.923,0,0,0,.18-.3,1.345,1.345,0,0,0,.05-.35,1.046,1.046,0,0,0-.06-.36.636.636,0,0,0-.19-.27.837.837,0,0,0-.34-.17,1.878,1.878,0,0,0-.51-.06H38.24v1.79H39.4Z" fill="#cda45e"/>
        <path id="Caminho_10321" data-name="Caminho 10321" d="M48.47,99.58H47.42a.522.522,0,0,1-.29-.08.537.537,0,0,1-.16-.21l-.44-1.25h-2.6l-.44,1.25a.489.489,0,0,1-.16.2.447.447,0,0,1-.28.09H41.99l2.55-6.53h1.38l2.55,6.53ZM46.2,97.1l-.71-2a3.849,3.849,0,0,1-.13-.37,4.28,4.28,0,0,1-.13-.46c-.04.17-.09.32-.13.47s-.09.27-.13.37l-.7,1.99h1.94Z" fill="#cda45e"/>
        <path id="Caminho_10322" data-name="Caminho 10322" d="M58.11,93.05v6.53H56.92V95.3a2.825,2.825,0,0,1,.02-.29l-1.87,3.54a.5.5,0,0,1-.47.29h-.19a.507.507,0,0,1-.28-.07.459.459,0,0,1-.19-.22l-1.88-3.56c0,.1.02.21.02.3v4.28H50.89V93.04h1.18a.5.5,0,0,1,.12.02.18.18,0,0,1,.09.06.36.36,0,0,1,.08.12l1.83,3.48a3.182,3.182,0,0,1,.16.32c.05.11.1.23.14.34.05-.12.09-.24.14-.35s.1-.22.16-.33l1.81-3.47a.623.623,0,0,1,.09-.12.207.207,0,0,1,.1-.06.373.373,0,0,1,.12-.02H58.1Z" fill="#cda45e"/>
        <path id="Caminho_10323" data-name="Caminho 10323" d="M65.18,99.58H64.13a.522.522,0,0,1-.29-.08.537.537,0,0,1-.16-.21l-.44-1.25h-2.6l-.44,1.25a.489.489,0,0,1-.16.2.447.447,0,0,1-.28.09H58.7l2.55-6.53h1.38l2.55,6.53ZM62.92,97.1l-.71-2a3.849,3.849,0,0,1-.13-.37,4.28,4.28,0,0,1-.13-.46c-.04.17-.09.32-.13.47s-.09.27-.13.37l-.7,1.99h1.94Z" fill="#cda45e"/>
        <path id="Caminho_10324" data-name="Caminho 10324" d="M67.15,99.58H65.79V93.05h1.36Z" fill="#cda45e"/>
        <path id="Caminho_10325" data-name="Caminho 10325" d="M72.05,94.3a.392.392,0,0,1-.13.15.286.286,0,0,1-.17.05.352.352,0,0,1-.21-.07q-.12-.075-.27-.15c-.1-.05-.22-.1-.35-.15a1.308,1.308,0,0,0-.46-.07,1.01,1.01,0,0,0-.7.21.683.683,0,0,0-.23.55.515.515,0,0,0,.13.36,1.154,1.154,0,0,0,.34.25,2.874,2.874,0,0,0,.47.18q.27.075.54.18a3.246,3.246,0,0,1,.54.23,1.983,1.983,0,0,1,.47.33,1.541,1.541,0,0,1,.34.48,1.784,1.784,0,0,1,.13.7,2.048,2.048,0,0,1-.16.83,1.839,1.839,0,0,1-.45.68,2.12,2.12,0,0,1-.72.46,2.7,2.7,0,0,1-.97.17,3.256,3.256,0,0,1-.62-.06,2.884,2.884,0,0,1-.59-.18,3.4,3.4,0,0,1-.54-.27,1.939,1.939,0,0,1-.44-.35l.4-.64a.83.83,0,0,1,.13-.12A.337.337,0,0,1,68.7,98a.479.479,0,0,1,.26.09c.09.06.19.13.31.2a2.613,2.613,0,0,0,.41.2,1.566,1.566,0,0,0,.56.09,1.062,1.062,0,0,0,.73-.22.793.793,0,0,0,.26-.64.568.568,0,0,0-.13-.4,1.088,1.088,0,0,0-.33-.26,2.561,2.561,0,0,0-.47-.18c-.18-.05-.36-.1-.54-.16a3.214,3.214,0,0,1-.54-.22,2.209,2.209,0,0,1-.47-.33,1.5,1.5,0,0,1-.33-.51,2.074,2.074,0,0,1-.13-.76,1.951,1.951,0,0,1,.14-.71,1.8,1.8,0,0,1,.42-.61,2.183,2.183,0,0,1,.69-.43,2.451,2.451,0,0,1,.93-.16,3.2,3.2,0,0,1,1.09.18,2.411,2.411,0,0,1,.85.51l-.33.63Z" fill="#cda45e"/>
      </g>
      <g id="Grupo_7869" data-name="Grupo 7869">
        <path id="Caminho_10326" data-name="Caminho 10326" d="M27.57,37.65v40h40v-40ZM63.93,74.01H31.2V41.28H63.93Z" fill="#cda45e"/>
        <path id="Caminho_10327" data-name="Caminho 10327" d="M46.01,67.14h3.11V59.35h7.8V56.23h-7.8V48.44H46.01v7.79H38.22v3.12h7.79Z" fill="#cda45e"/>
      </g>
      <line id="Linha_48" data-name="Linha 48" x2="52.98" transform="translate(21.01 105.87)" fill="none" stroke="#cda45e" stroke-miterlimit="10" stroke-width="2"/>
    </g>
  </g>
</svg>
