<svg xmlns="http://www.w3.org/2000/svg" xmlns:xlink="http://www.w3.org/1999/xlink" width="888" height="500" viewBox="0 0 888 500">
  <defs>
    <clipPath id="clip-path">
      <rect id="Retângulo_720" data-name="Retângulo 720" width="312.452" height="35.716" transform="translate(0 0)" fill="none"/>
    </clipPath>
    <clipPath id="clip-_00_-_Capa">
      <rect width="888" height="500"/>
    </clipPath>
  </defs>
  <g id="_00_-_Capa" data-name="00 - Capa" clip-path="url(#clip-_00_-_Capa)">
    <rect width="888" height="500" fill="#fff"/>
    <g id="Atualização_em_Fitoterapia_-_Aspectos_Clínicos_-_Telas_Prancheta_1" data-name="Atualização em Fitoterapia - Aspectos Clínicos - Telas_Prancheta 1" transform="translate(0.06 -0.25)" style="isolation: isolate">
      <g id="_00_BG_Geral" data-name="00_BG_Geral">
        <g id="Grupo_7769" data-name="Grupo 7769">
          <path id="Caminho_9724" data-name="Caminho 9724" d="M870.38,26.77a2.647,2.647,0,0,0,1,1.12,1.721,1.721,0,0,0,1.22.13,1.762,1.762,0,0,0,.95-.77,2.771,2.771,0,0,0,.22-1.48,1.829,1.829,0,1,0-3.38,1.01h0Z" fill="#edebd3"/>
          <path id="Caminho_9725" data-name="Caminho 9725" d="M861.64,19.14c-.02-.33-.04-.67-.06-1-.03.29-.06.59-.1.88a.786.786,0,0,1,.05-.22c-.28.53-.57,1.05-.85,1.58a1.737,1.737,0,0,1,.13-.15A4.011,4.011,0,0,0,861.8,18a3.884,3.884,0,0,0-.53-2.47,3.814,3.814,0,0,0-1.9-1.53,3.709,3.709,0,0,0-2.48-.13,4.64,4.64,0,0,0-1.72,1.06,3.709,3.709,0,0,0-.99,2.23,3.884,3.884,0,0,0,.53,2.47,4.122,4.122,0,0,0,2.37,1.71c.06.02.13.04.19.06-.53-.28-1.05-.57-1.58-.85.06.05.11.1.16.15-.19-.23-.38-.46-.56-.68.17.29.34.58.5.87a3.056,3.056,0,0,0,1.56,1.25,3.015,3.015,0,0,0,2.03.1,3.228,3.228,0,0,0,2.26-3.1h0Z" fill="#edebd3"/>
          <path id="Caminho_9726" data-name="Caminho 9726" d="M855.82,29.73l-.37.24a1.8,1.8,0,0,0-.84,1.1,1.5,1.5,0,0,0,.43,1.45,1.8,1.8,0,0,0,1.31.45h.44a1.75,1.75,0,1,0-.97-3.23h0Z" fill="#edebd3"/>
          <path id="Caminho_9727" data-name="Caminho 9727" d="M840.43,28.13c.75,2.52,4.67,1.35,3.91-1.17s-4.67-1.35-3.91,1.17Z" fill="#edebd3"/>
          <path id="Caminho_9728" data-name="Caminho 9728" d="M863.85,39.71a1.556,1.556,0,0,0,2.98-.89,1.556,1.556,0,0,0-2.98.89Z" fill="#edebd3"/>
          <path id="Caminho_9729" data-name="Caminho 9729" d="M867.76,16.44a1.322,1.322,0,0,0,2.53-.76,1.322,1.322,0,0,0-2.53.76Z" fill="#edebd3"/>
          <path id="Caminho_9730" data-name="Caminho 9730" d="M862.86,28.51a.992.992,0,0,0,1.9-.57.992.992,0,0,0-1.9.57Z" fill="#edebd3"/>
          <path id="Caminho_9731" data-name="Caminho 9731" d="M878.68,31.41l.39.57a1.818,1.818,0,0,0,.87.7,1.689,1.689,0,0,0,1.13.06,1.989,1.989,0,0,0,.78-.49,1.835,1.835,0,0,0,.48-1.24c0-.23,0-.46.01-.69a1.981,1.981,0,1,0-3.66,1.09h0Z" fill="#edebd3"/>
          <path id="Caminho_9732" data-name="Caminho 9732" d="M866.72,36.2a1.185,1.185,0,0,0,2.27-.68,1.185,1.185,0,0,0-2.27.68Z" fill="#edebd3"/>
          <path id="Caminho_9733" data-name="Caminho 9733" d="M850.04,43.83c.09.22.17.45.26.67a1.805,1.805,0,0,0,.45.81,1.77,1.77,0,0,0,.68.59,2.36,2.36,0,0,0,3.19-.96c.07-.19.14-.37.22-.56a2.335,2.335,0,0,0-.03-1.23c-.05-.23-.1-.47-.15-.7a1.838,1.838,0,0,0-.46-.83,1.772,1.772,0,0,0-.7-.6,1.876,1.876,0,0,0-.89-.26,1.808,1.808,0,0,0-.95.07,2.469,2.469,0,0,0-1.43,1.16,2.364,2.364,0,0,0-.19,1.84h0Z" fill="#edebd3"/>
          <path id="Caminho_9734" data-name="Caminho 9734" d="M838.68,41.03a1.478,1.478,0,0,0,2.83-.85,1.478,1.478,0,0,0-2.83.85Z" fill="#edebd3"/>
          <path id="Caminho_9735" data-name="Caminho 9735" d="M826.72,26.92a1.284,1.284,0,0,0,2.46-.73,1.284,1.284,0,0,0-2.46.73Z" fill="#edebd3"/>
          <path id="Caminho_9736" data-name="Caminho 9736" d="M823.57,55.85c.14.15.28.31.42.46a2.461,2.461,0,0,0,2.39.57,2.523,2.523,0,0,0,1.1-.68,2.58,2.58,0,0,0,.6-1.1c.03-.2.06-.41.1-.61a2.787,2.787,0,0,0-.81-2.69,2.783,2.783,0,0,0-4.6,1.38,2.787,2.787,0,0,0,.81,2.69h0Z" fill="#edebd3"/>
          <path id="Caminho_9737" data-name="Caminho 9737" d="M847.07,58.86c.71,2.37,4.4,1.28,3.69-1.1s-4.4-1.28-3.69,1.1Z" fill="#edebd3"/>
          <path id="Caminho_9738" data-name="Caminho 9738" d="M815.34,40.04a1.535,1.535,0,0,0,2.94-.88,1.535,1.535,0,0,0-2.94.88Z" fill="#edebd3"/>
          <path id="Caminho_9739" data-name="Caminho 9739" d="M826.07,42.51c.16.22.33.44.49.66a1.059,1.059,0,0,0,1.17.44,1.1,1.1,0,0,0,.74-1.01c.02-.27.03-.55.05-.82a1.3,1.3,0,0,0-.69-1.14,1.361,1.361,0,0,0-1.01-.1,1.426,1.426,0,0,0-.79.64,1.319,1.319,0,0,0,.04,1.33h0Z" fill="#edebd3"/>
          <path id="Caminho_9740" data-name="Caminho 9740" d="M814.19,73.1c.07.21.14.41.2.62a2.853,2.853,0,0,0,1.32,1.63,3.034,3.034,0,0,0,2.09.21,2.785,2.785,0,0,0,1.63-1.32,2.963,2.963,0,0,0,.22-2.09c-.06-.21-.11-.42-.17-.63a3.077,3.077,0,0,0-1.33-1.64,3.053,3.053,0,0,0-2.1-.21A2.756,2.756,0,0,0,814.41,71a2.8,2.8,0,0,0-.22,2.1h0Z" fill="#edebd3"/>
          <path id="Caminho_9741" data-name="Caminho 9741" d="M834.76,62.54a.37.37,0,0,0,.71-.21.37.37,0,0,0-.71.21Z" fill="#edebd3"/>
          <path id="Caminho_9742" data-name="Caminho 9742" d="M798.9,59.09a1.556,1.556,0,0,0,2.98-.89,1.556,1.556,0,0,0-2.98.89Z" fill="#edebd3"/>
          <path id="Caminho_9743" data-name="Caminho 9743" d="M796.76,33.2a1.284,1.284,0,0,0,2.46-.73,1.284,1.284,0,0,0-2.46.73Z" fill="#edebd3"/>
          <path id="Caminho_9744" data-name="Caminho 9744" d="M838.49,11.5a2.989,2.989,0,0,0,1.2-.62,1.23,1.23,0,0,0-.6-2.01,2.978,2.978,0,0,0-1.35.14,1.3,1.3,0,0,0-.24,2.39,1.27,1.27,0,0,0,.99.1h0Z" fill="#edebd3"/>
          <path id="Caminho_9745" data-name="Caminho 9745" d="M843.25,75.04a.893.893,0,0,0,1.71-.51.893.893,0,0,0-1.71.51Z" fill="#edebd3"/>
          <path id="Caminho_9746" data-name="Caminho 9746" d="M878.89,21.07a2.406,2.406,0,0,0,.9,1.34,1.177,1.177,0,0,0,1.57-.47,2.343,2.343,0,0,0,.02-1.61,1.272,1.272,0,0,0-.63-.77,1.3,1.3,0,0,0-1.76.53,1.229,1.229,0,0,0-.1.99h0Z" fill="#edebd3"/>
          <path id="Caminho_9747" data-name="Caminho 9747" d="M873.59,10.28a1.6,1.6,0,0,0,3.06-.91,1.6,1.6,0,0,0-3.06.91Z" fill="#edebd3"/>
          <path id="Caminho_9748" data-name="Caminho 9748" d="M860.77,5.26a1.441,1.441,0,0,0,2.76-.82,1.441,1.441,0,0,0-2.76.82Z" fill="#edebd3"/>
          <path id="Caminho_9749" data-name="Caminho 9749" d="M799.51,79.43c-.18.07-.37.14-.55.21-.04.02-.08.03-.12.05a1.682,1.682,0,0,0-.76.55,1.438,1.438,0,0,0-.23,1.27,1.606,1.606,0,0,0,.71.87,1.634,1.634,0,0,0,1.21.09c.2-.04.4-.09.61-.13a1.557,1.557,0,0,0,.9-.73,1.54,1.54,0,0,0,.12-1.15,1.556,1.556,0,0,0-.73-.9,1.494,1.494,0,0,0-1.15-.12h0Z" fill="#edebd3"/>
          <path id="Caminho_9750" data-name="Caminho 9750" d="M871.37,45.43a1.07,1.07,0,0,0,2.05-.61,1.07,1.07,0,0,0-2.05.61Z" fill="#edebd3"/>
          <path id="Caminho_9751" data-name="Caminho 9751" d="M882.41,41.25a.313.313,0,0,0,.6-.18.313.313,0,0,0-.6.18Z" fill="#edebd3"/>
          <path id="Caminho_9752" data-name="Caminho 9752" d="M873.51,40a4.032,4.032,0,0,0,.64.6.59.59,0,0,0,.79-.24,3.648,3.648,0,0,0,.21-.85,1.012,1.012,0,0,0-.29-.96.987.987,0,0,0-1.64.49,1.012,1.012,0,0,0,.29.96Z" fill="#edebd3"/>
          <path id="Caminho_9753" data-name="Caminho 9753" d="M865.09,54.37a1.17,1.17,0,0,0,2.24-.67,1.17,1.17,0,0,0-2.24.67Z" fill="#edebd3"/>
        </g>
        <rect id="Retângulo_705" data-name="Retângulo 705" width="888" height="31.31" transform="translate(0 12.16)" fill="#edebd3"/>
        <path id="Caminho_9754" data-name="Caminho 9754" d="M566.55,11.73H789.11V43.47H566.55A15.876,15.876,0,0,1,550.68,27.6h0a15.876,15.876,0,0,1,15.87-15.87Z" fill="#fff"/>
        <path id="Caminho_9755" data-name="Caminho 9755" d="M665.95,11.73H887.87a.512.512,0,0,1,.51.51V43.47H665.68a15.74,15.74,0,0,1-15.73-15.73h0a16.008,16.008,0,0,1,16-16Z" fill="#94a26e"/>
        <line id="Linha_25" data-name="Linha 25" x2="888" transform="translate(0 49.43)" fill="none" stroke="#cda55f" stroke-miterlimit="10" stroke-width="1"/>
        <line id="Linha_26" data-name="Linha 26" x2="888" transform="translate(0 11.73)" fill="none" stroke="#cda55f" stroke-miterlimit="10" stroke-width="1"/>
        <path id="Caminho_9756" data-name="Caminho 9756" d="M19.43,0H200V47.43a12.01,12.01,0,0,1-12,12H31.43a12.01,12.01,0,0,1-12-12V0Z" fill="#fff" stroke="#94a26e" stroke-miterlimit="10" stroke-width="1.49"/>
        <g id="Grupo_7771" data-name="Grupo 7771">
          <g id="Grupo_7770" data-name="Grupo 7770">
            <path id="Caminho_9757" data-name="Caminho 9757" d="M736.6,468.88a13.372,13.372,0,0,0,7.98,3.7,10.833,10.833,0,0,0,8.54-3.52" fill="#b8be79"/>
            <path id="Caminho_9758" data-name="Caminho 9758" d="M770.85,468.69a13.372,13.372,0,0,0-7.98-3.7,10.833,10.833,0,0,0-8.54,3.52" fill="#b8be79"/>
            <path id="Caminho_9759" data-name="Caminho 9759" d="M772.07,468.88a13.372,13.372,0,0,0,7.98,3.7,10.833,10.833,0,0,0,8.54-3.52" fill="#b8be79"/>
            <path id="Caminho_9760" data-name="Caminho 9760" d="M806.32,468.69a13.372,13.372,0,0,0-7.98-3.7,10.833,10.833,0,0,0-8.54,3.52" fill="#b8be79"/>
            <path id="Caminho_9761" data-name="Caminho 9761" d="M807.54,468.88a13.372,13.372,0,0,0,7.98,3.7,10.833,10.833,0,0,0,8.54-3.52" fill="#b8be79"/>
            <path id="Caminho_9762" data-name="Caminho 9762" d="M841.79,468.69a13.372,13.372,0,0,0-7.98-3.7,10.833,10.833,0,0,0-8.54,3.52" fill="#b8be79"/>
            <path id="Caminho_9763" data-name="Caminho 9763" d="M843.01,468.88a13.372,13.372,0,0,0,7.98,3.7,10.833,10.833,0,0,0,8.54-3.52" fill="#b8be79"/>
            <path id="Caminho_9764" data-name="Caminho 9764" d="M877.26,468.69a13.372,13.372,0,0,0-7.98-3.7,10.833,10.833,0,0,0-8.54,3.52" fill="#b8be79"/>
          </g>
          <path id="Caminho_9765" data-name="Caminho 9765" d="M0,468.79H107.87a9.982,9.982,0,0,1,9.98,9.98h0a9.982,9.982,0,0,1-9.98,9.98H0V468.8H0Z" fill="#cda45e"/>
          <line id="Linha_27" data-name="Linha 27" x2="888" transform="translate(0 468.79)" fill="none" stroke="#cda45e" stroke-miterlimit="10" stroke-width="1"/>
        </g>
        <g id="Grupo_7772" data-name="Grupo 7772">
          <path id="Caminho_9766" data-name="Caminho 9766" d="M217.37,11.29a13.372,13.372,0,0,0,7.98,3.7,10.833,10.833,0,0,0,8.54-3.52" fill="#b8be79"/>
          <path id="Caminho_9767" data-name="Caminho 9767" d="M251.62,11.1a13.372,13.372,0,0,0-7.98-3.7,10.833,10.833,0,0,0-8.54,3.52" fill="#b8be79"/>
          <path id="Caminho_9768" data-name="Caminho 9768" d="M252.84,11.29a13.372,13.372,0,0,0,7.98,3.7,10.833,10.833,0,0,0,8.54-3.52" fill="#b8be79"/>
          <path id="Caminho_9769" data-name="Caminho 9769" d="M287.09,11.1a13.372,13.372,0,0,0-7.98-3.7,10.833,10.833,0,0,0-8.54,3.52" fill="#b8be79"/>
          <path id="Caminho_9770" data-name="Caminho 9770" d="M288.31,11.29a13.372,13.372,0,0,0,7.98,3.7,10.833,10.833,0,0,0,8.54-3.52" fill="#b8be79"/>
          <path id="Caminho_9771" data-name="Caminho 9771" d="M322.56,11.1a13.372,13.372,0,0,0-7.98-3.7,10.833,10.833,0,0,0-8.54,3.52" fill="#b8be79"/>
        </g>
        <g id="Grupo_7778" data-name="Grupo 7778">
          <g id="Grupo_7776" data-name="Grupo 7776">
            <g id="Layer2_9_FILL" data-name="Layer2 9 FILL">
              <path id="Caminho_9772" data-name="Caminho 9772" d="M187.96,41.52V40.34H74.92v1.18Z" fill="#cda55f"/>
            </g>
            <g id="Grupo_7773" data-name="Grupo 7773" style="isolation: isolate">
              <path id="Caminho_9773" data-name="Caminho 9773" d="M85.34,48.71a1.2,1.2,0,0,1-.58.53,1.98,1.98,0,0,1-.84.18,1.37,1.37,0,0,1-.88-.29,1.046,1.046,0,0,1-.38-.81,1.075,1.075,0,0,1,.38-.91,1.48,1.48,0,0,1,.99-.33,2.437,2.437,0,0,1,1.23.3v-.44a.589.589,0,0,0-.19-.46.972.972,0,0,0-.43-.24,2.1,2.1,0,0,0-.51-.06,2.144,2.144,0,0,0-1.09.26l-.1-.46a2.783,2.783,0,0,1,1.28-.27,1.98,1.98,0,0,1,1.13.3,1.029,1.029,0,0,1,.43.95v1.77a.222.222,0,0,0,.01.09.636.636,0,0,1,.02.07c0,.03.02.06.03.06s.03.02.05.04a.108.108,0,0,0,.07.03.414.414,0,0,1,.1.01.246.246,0,0,0,.12-.01v.38a.985.985,0,0,1-.67-.06c-.14-.09-.2-.29-.2-.61Zm-.08-.57V47.8a2.29,2.29,0,0,0-1.13-.29,1.039,1.039,0,0,0-.64.2.643.643,0,0,0-.25.57.57.57,0,0,0,.24.48.989.989,0,0,0,.55.16,1.607,1.607,0,0,0,.77-.2.828.828,0,0,0,.45-.57Z" fill="#9e7432"/>
              <path id="Caminho_9774" data-name="Caminho 9774" d="M88.94,48.35h.56a.559.559,0,0,0,.32.48,1.567,1.567,0,0,0,1.4-.01.549.549,0,0,0,.31-.48.411.411,0,0,0-.22-.4,2.825,2.825,0,0,0-.78-.2c-.17-.02-.31-.04-.43-.06a3.746,3.746,0,0,1-.39-.1,1.268,1.268,0,0,1-.35-.17.975.975,0,0,1-.23-.26.8.8,0,0,1-.1-.38.847.847,0,0,1,.43-.79,1.988,1.988,0,0,1,1.06-.27,2.013,2.013,0,0,1,1.06.27.8.8,0,0,1,.43.76h-.56a.463.463,0,0,0-.27-.42,1.342,1.342,0,0,0-.66-.14,1.41,1.41,0,0,0-.67.15.449.449,0,0,0-.27.44.367.367,0,0,0,.23.35,3.379,3.379,0,0,0,.77.19c.17.02.3.04.38.05s.2.04.34.07a1.042,1.042,0,0,1,.33.12,1.876,1.876,0,0,1,.24.18.676.676,0,0,1,.18.26.833.833,0,0,1,.04.36.906.906,0,0,1-.45.81,2.342,2.342,0,0,1-2.22.04.979.979,0,0,1-.49-.84Z" fill="#9e7432"/>
              <path id="Caminho_9775" data-name="Caminho 9775" d="M95.82,46.37a1.427,1.427,0,0,1,1.31-.69,1.458,1.458,0,0,1,1.19.53,2.024,2.024,0,0,1,.43,1.33,1.894,1.894,0,0,1-.27,1.02,1.694,1.694,0,0,1-.68.65,1.746,1.746,0,0,1-.92.17,1.944,1.944,0,0,1-.98-.35V51.2h-.58V46.97a2.152,2.152,0,0,0-.04-.59q-.075-.21-.39-.18v-.43a1.073,1.073,0,0,1,.69.06.542.542,0,0,1,.23.54Zm.07,1.02V48.5a1.706,1.706,0,0,0,1.01.39,1.168,1.168,0,0,0,.89-.35,1.346,1.346,0,0,0,.36-1,1.544,1.544,0,0,0-.29-.96,1,1,0,0,0-.85-.38,1.03,1.03,0,0,0-.8.35,1.28,1.28,0,0,0-.33.84Z" fill="#9e7432"/>
              <path id="Caminho_9776" data-name="Caminho 9776" d="M103.49,45.69a1.6,1.6,0,0,1,1.32.52,1.693,1.693,0,0,1,.27,1.41h-2.85a1.152,1.152,0,0,0,.39.97,1.483,1.483,0,0,0,1.04.36,3.218,3.218,0,0,0,1.21-.26l.09.44a3.1,3.1,0,0,1-1.32.3,2.01,2.01,0,0,1-1.46-.54,1.807,1.807,0,0,1-.53-1.43,1.758,1.758,0,0,1,.55-1.3,1.841,1.841,0,0,1,1.29-.48Zm0,.46a1.274,1.274,0,0,0-.83.27,1.165,1.165,0,0,0-.41.75h2.33a.865.865,0,0,0-.28-.76,1.21,1.21,0,0,0-.82-.27Z" fill="#9e7432"/>
              <path id="Caminho_9777" data-name="Caminho 9777" d="M111.56,46.87H111a1.03,1.03,0,0,0-.43-.49,1.285,1.285,0,0,0-.65-.17,1.366,1.366,0,0,0-.94.36,1.253,1.253,0,0,0-.4.99,1.281,1.281,0,0,0,.39.99,1.311,1.311,0,0,0,.91.36,1.224,1.224,0,0,0,.68-.19,1.1,1.1,0,0,0,.45-.56h.57a1.546,1.546,0,0,1-.64.94,1.854,1.854,0,0,1-1.07.33,1.912,1.912,0,0,1-1.32-.49,1.717,1.717,0,0,1-.56-1.37,1.745,1.745,0,0,1,.57-1.38,1.955,1.955,0,0,1,1.33-.49,1.837,1.837,0,0,1,1.03.31,1.432,1.432,0,0,1,.62.87Z" fill="#9e7432"/>
              <path id="Caminho_9778" data-name="Caminho 9778" d="M115.63,44.67v1.12h1.32v.42h-1.32v1.75a.932.932,0,0,0,.39.89,1.187,1.187,0,0,0,1.04-.03l.07.47a2.99,2.99,0,0,1-1.09.14.938.938,0,0,1-.72-.42,1.727,1.727,0,0,1-.26-1.03V46.21l-.77-.04v-.39h.8l.06-1.12h.48Z" fill="#9e7432"/>
              <path id="Caminho_9779" data-name="Caminho 9779" d="M123.58,47.56a1.921,1.921,0,0,1-.16.81,1.64,1.64,0,0,1-.43.59,2.248,2.248,0,0,1-.6.35,2.1,2.1,0,0,1-1.4,0,1.79,1.79,0,0,1-.6-.35,1.6,1.6,0,0,1-.43-.58,1.921,1.921,0,0,1-.16-.81,2,2,0,0,1,.16-.82,1.64,1.64,0,0,1,.43-.59,2.248,2.248,0,0,1,.6-.35,2.1,2.1,0,0,1,1.4,0,1.79,1.79,0,0,1,.6.35,1.558,1.558,0,0,1,.43.59,1.968,1.968,0,0,1,.16.82Zm-2.99-.76a1.615,1.615,0,0,0,0,1.52,1.171,1.171,0,0,0,.48.46,1.326,1.326,0,0,0,.63.14,1.456,1.456,0,0,0,.63-.14,1.239,1.239,0,0,0,.48-.46,1.615,1.615,0,0,0,0-1.52,1.171,1.171,0,0,0-.48-.46,1.456,1.456,0,0,0-.63-.14,1.489,1.489,0,0,0-.63.14A1.172,1.172,0,0,0,120.59,46.8Z" fill="#9e7432"/>
              <path id="Caminho_9780" data-name="Caminho 9780" d="M126.44,48.35H127a.559.559,0,0,0,.32.48,1.569,1.569,0,0,0,.7.16,1.45,1.45,0,0,0,.7-.17.549.549,0,0,0,.31-.48.411.411,0,0,0-.22-.4,2.825,2.825,0,0,0-.78-.2c-.17-.02-.31-.04-.43-.06a3.746,3.746,0,0,1-.39-.1,1.268,1.268,0,0,1-.35-.17.842.842,0,0,1-.23-.26.7.7,0,0,1-.1-.38.847.847,0,0,1,.43-.79,1.988,1.988,0,0,1,1.06-.27,2.013,2.013,0,0,1,1.06.27.8.8,0,0,1,.43.76h-.56a.463.463,0,0,0-.27-.42,1.342,1.342,0,0,0-.66-.14,1.41,1.41,0,0,0-.67.15.449.449,0,0,0-.27.44.367.367,0,0,0,.23.35,3.379,3.379,0,0,0,.77.19c.17.02.3.04.38.05s.2.04.34.07a1.042,1.042,0,0,1,.33.12,1.876,1.876,0,0,1,.24.18.676.676,0,0,1,.18.26.833.833,0,0,1,.04.36.906.906,0,0,1-.45.81,2.342,2.342,0,0,1-2.22.04.979.979,0,0,1-.49-.84Z" fill="#9e7432"/>
              <path id="Caminho_9781" data-name="Caminho 9781" d="M140.2,46.87h-.56a1.03,1.03,0,0,0-.43-.49,1.285,1.285,0,0,0-.65-.17,1.366,1.366,0,0,0-.94.36,1.253,1.253,0,0,0-.4.99,1.281,1.281,0,0,0,.39.99,1.311,1.311,0,0,0,.91.36,1.224,1.224,0,0,0,.68-.19,1.051,1.051,0,0,0,.45-.56h.57a1.546,1.546,0,0,1-.64.94,1.854,1.854,0,0,1-1.07.33,1.912,1.912,0,0,1-1.32-.49,1.717,1.717,0,0,1-.56-1.37,1.745,1.745,0,0,1,.57-1.38,1.955,1.955,0,0,1,1.33-.49,1.837,1.837,0,0,1,1.03.31,1.432,1.432,0,0,1,.62.87Z" fill="#9e7432"/>
              <path id="Caminho_9782" data-name="Caminho 9782" d="M143.28,43.91h.59v4.16a1.056,1.056,0,0,0,.18.73.9.9,0,0,0,.72.12l.02.46a1.4,1.4,0,0,1-1.16-.17,1.477,1.477,0,0,1-.35-1.14V43.91Z" fill="#9e7432"/>
              <path id="Caminho_9783" data-name="Caminho 9783" d="M148.06,45.01h-.47v-.04l.53-.94.51.21v.05l-.57.73Zm.13.77v3.58h-.59V45.78Z" fill="#9e7432"/>
              <path id="Caminho_9784" data-name="Caminho 9784" d="M154.93,49.36h-.59V47.23a1.019,1.019,0,0,0-.28-.76.98.98,0,0,0-.72-.29,1.134,1.134,0,0,0-.77.29.98.98,0,0,0-.3.74v2.15h-.58V46.8a1.032,1.032,0,0,0-.07-.49c-.05-.07-.16-.1-.35-.08v-.46q.135-.015.21-.03a1.786,1.786,0,0,0,.21-.01.425.425,0,0,1,.21.03.894.894,0,0,1,.16.09.352.352,0,0,1,.13.18,1.108,1.108,0,0,1,.04.28,1.4,1.4,0,0,1,1.26-.61,1.342,1.342,0,0,1,1.06.42,1.607,1.607,0,0,1,.38,1.11Z" fill="#9e7432"/>
              <path id="Caminho_9785" data-name="Caminho 9785" d="M158.19,44.59a.355.355,0,0,1,.18-.33.375.375,0,0,1,.37,0,.342.342,0,0,1,.19.33.349.349,0,0,1-.12.28.364.364,0,0,1-.25.1.347.347,0,0,1-.25-.1A.383.383,0,0,1,158.19,44.59Zm.65,1.21v3.55h-.58V45.8Z" fill="#9e7432"/>
              <path id="Caminho_9786" data-name="Caminho 9786" d="M165.54,46.87h-.56a1.03,1.03,0,0,0-.43-.49,1.285,1.285,0,0,0-.65-.17,1.366,1.366,0,0,0-.94.36,1.253,1.253,0,0,0-.4.99,1.281,1.281,0,0,0,.39.99,1.311,1.311,0,0,0,.91.36,1.224,1.224,0,0,0,.68-.19,1.051,1.051,0,0,0,.45-.56h.57a1.546,1.546,0,0,1-.64.94,1.854,1.854,0,0,1-1.07.33,1.912,1.912,0,0,1-1.32-.49,1.717,1.717,0,0,1-.56-1.37,1.745,1.745,0,0,1,.57-1.38,1.955,1.955,0,0,1,1.33-.49,1.837,1.837,0,0,1,1.03.31,1.432,1.432,0,0,1,.62.87Z" fill="#9e7432"/>
              <path id="Caminho_9787" data-name="Caminho 9787" d="M172.2,47.56a1.921,1.921,0,0,1-.16.81,1.64,1.64,0,0,1-.43.59,2.248,2.248,0,0,1-.6.35,2.1,2.1,0,0,1-1.4,0,1.79,1.79,0,0,1-.6-.35,1.6,1.6,0,0,1-.43-.58,1.921,1.921,0,0,1-.16-.81,2,2,0,0,1,.16-.82,1.64,1.64,0,0,1,.43-.59,2.248,2.248,0,0,1,.6-.35,2.1,2.1,0,0,1,1.4,0,1.79,1.79,0,0,1,.6.35,1.558,1.558,0,0,1,.43.59,1.968,1.968,0,0,1,.16.82Zm-3-.76a1.615,1.615,0,0,0,0,1.52,1.171,1.171,0,0,0,.48.46,1.326,1.326,0,0,0,.63.14,1.489,1.489,0,0,0,.63-.14,1.239,1.239,0,0,0,.48-.46,1.615,1.615,0,0,0,0-1.52,1.171,1.171,0,0,0-.48-.46,1.488,1.488,0,0,0-1.26,0A1.171,1.171,0,0,0,169.2,46.8Z" fill="#9e7432"/>
              <path id="Caminho_9788" data-name="Caminho 9788" d="M175.06,48.35h.56a.559.559,0,0,0,.32.48,1.538,1.538,0,0,0,.7.16,1.422,1.422,0,0,0,.7-.17.549.549,0,0,0,.31-.48.411.411,0,0,0-.22-.4,2.825,2.825,0,0,0-.78-.2c-.17-.02-.31-.04-.43-.06a3.747,3.747,0,0,1-.39-.1,1.268,1.268,0,0,1-.35-.17.842.842,0,0,1-.23-.26.8.8,0,0,1-.1-.38.847.847,0,0,1,.43-.79,2.216,2.216,0,0,1,2.12,0,.8.8,0,0,1,.43.76h-.56a.463.463,0,0,0-.27-.42,1.342,1.342,0,0,0-.66-.14,1.41,1.41,0,0,0-.67.15.449.449,0,0,0-.27.44.367.367,0,0,0,.23.35,3.379,3.379,0,0,0,.77.19c.17.02.3.04.38.05s.2.04.34.07a1.042,1.042,0,0,1,.33.12,1.876,1.876,0,0,1,.24.18.676.676,0,0,1,.18.26.833.833,0,0,1,.04.36.906.906,0,0,1-.45.81,2.342,2.342,0,0,1-2.22.04.979.979,0,0,1-.49-.84Z" fill="#9e7432"/>
            </g>
            <g id="Grupo_7774" data-name="Grupo 7774">
              <path id="Caminho_9789" data-name="Caminho 9789" d="M83.42,21.94h-1.4a.634.634,0,0,1-.38-.11.672.672,0,0,1-.22-.28l-.46-1.35H78.01l-.46,1.35a.664.664,0,0,1-.21.27.6.6,0,0,1-.38.12H75.55l3-7.76h1.84l3,7.76Zm-2.86-2.97-.72-2.13c-.05-.14-.11-.29-.17-.48s-.12-.38-.18-.59c-.05.22-.11.42-.17.6s-.12.34-.17.48l-.71,2.11h2.13Z" fill="#9fa934"/>
              <path id="Caminho_9790" data-name="Caminho 9790" d="M92.37,15.61H90.19v6.33h-1.8V15.61H86.21V14.18h6.17v1.43Z" fill="#9fa934"/>
              <path id="Caminho_9791" data-name="Caminho 9791" d="M100.03,20.52a1.674,1.674,0,0,0,.65-.12,1.273,1.273,0,0,0,.48-.34,1.532,1.532,0,0,0,.3-.55,2.344,2.344,0,0,0,.1-.73v-4.6h1.8v4.6a3.677,3.677,0,0,1-.23,1.31,2.873,2.873,0,0,1-1.71,1.7,3.824,3.824,0,0,1-1.39.24,3.918,3.918,0,0,1-1.4-.24,3,3,0,0,1-1.05-.67,2.848,2.848,0,0,1-.66-1.03,3.677,3.677,0,0,1-.23-1.31v-4.6h1.8v4.59a2.344,2.344,0,0,0,.1.73,1.621,1.621,0,0,0,.3.55,1.3,1.3,0,0,0,.48.35,1.674,1.674,0,0,0,.65.12Z" fill="#9fa934"/>
              <path id="Caminho_9792" data-name="Caminho 9792" d="M115.05,21.94h-1.4a.634.634,0,0,1-.38-.11.672.672,0,0,1-.22-.28l-.46-1.35h-2.95l-.46,1.35a.664.664,0,0,1-.21.27.6.6,0,0,1-.38.12h-1.41l3-7.76h1.84l3,7.76Zm-2.86-2.97-.72-2.13c-.05-.14-.11-.29-.17-.48s-.12-.38-.18-.59c-.05.22-.11.42-.17.6s-.12.34-.17.48l-.71,2.11h2.13Z" fill="#9fa934"/>
              <path id="Caminho_9793" data-name="Caminho 9793" d="M123.85,20.5v1.44h-4.68V14.18h1.8V20.5Z" fill="#9fa934"/>
              <path id="Caminho_9794" data-name="Caminho 9794" d="M130.1,21.94h-1.81V14.18h1.81Z" fill="#9fa934"/>
              <path id="Caminho_9795" data-name="Caminho 9795" d="M140.61,14.83a.942.942,0,0,1-.18.52l-3.64,5.2h3.7v1.38H134.5v-.69a.672.672,0,0,1,.04-.24.941.941,0,0,1,.12-.22l3.65-5.22h-3.52V14.18h5.81v.65Z" fill="#9fa934"/>
              <path id="Caminho_9796" data-name="Caminho 9796" d="M152.08,21.94h-1.4a.634.634,0,0,1-.38-.11.672.672,0,0,1-.22-.28l-.46-1.35h-2.95l-.46,1.35a.664.664,0,0,1-.21.27.6.6,0,0,1-.38.12h-1.41l3-7.76h1.84l3,7.76Zm-2.86-2.97-.72-2.13c-.05-.14-.11-.29-.17-.48s-.12-.38-.18-.59c-.05.22-.11.42-.17.6s-.12.34-.17.48l-.71,2.11h2.12Z" fill="#9fa934"/>
              <path id="Caminho_9797" data-name="Caminho 9797" d="M162.14,20.79a2.829,2.829,0,0,1-1.01.84,3.893,3.893,0,0,1-1.39.38l-.05.2a1.7,1.7,0,0,1,.42.15,1.166,1.166,0,0,1,.27.19.55.55,0,0,1,.14.23.746.746,0,0,1,.04.26.589.589,0,0,1-.1.34,1.055,1.055,0,0,1-.29.26,1.321,1.321,0,0,1-.45.16,2.648,2.648,0,0,1-.58.06,2.487,2.487,0,0,1-.4-.02c-.12-.01-.25-.04-.39-.06l.15-.5a.159.159,0,0,1,.18-.14.389.389,0,0,1,.15.02.526.526,0,0,0,.19.02.344.344,0,0,0,.2-.05.138.138,0,0,0,.06-.11c0-.08-.05-.14-.16-.17a3.433,3.433,0,0,0-.55-.11l.24-.71a3.537,3.537,0,0,1-1.38-.41,3.282,3.282,0,0,1-1.03-.85,3.863,3.863,0,0,1-.65-1.2,4.687,4.687,0,0,1-.22-1.48,4.375,4.375,0,0,1,.28-1.6,3.75,3.75,0,0,1,.79-1.25,3.635,3.635,0,0,1,1.23-.82,4.026,4.026,0,0,1,1.57-.29,4.224,4.224,0,0,1,.82.08,3.787,3.787,0,0,1,.72.21,3.337,3.337,0,0,1,.62.33,3,3,0,0,1,.5.42l-.61.81a1.742,1.742,0,0,1-.14.14.359.359,0,0,1-.22.06.392.392,0,0,1-.18-.04,1.618,1.618,0,0,1-.18-.1,1.928,1.928,0,0,0-.21-.13,1.694,1.694,0,0,0-.27-.13,1.645,1.645,0,0,0-.37-.1,2.366,2.366,0,0,0-.49-.04,2,2,0,0,0-.82.17,1.771,1.771,0,0,0-.64.48,2.238,2.238,0,0,0-.42.78,3.413,3.413,0,0,0-.15,1.05,3.19,3.19,0,0,0,.16,1.06,2.444,2.444,0,0,0,.44.78,1.9,1.9,0,0,0,.65.48,1.945,1.945,0,0,0,.8.17,3.241,3.241,0,0,0,.45-.02,2.328,2.328,0,0,0,.38-.08,1.659,1.659,0,0,0,.33-.15,1.622,1.622,0,0,0,.31-.24.67.67,0,0,1,.14-.09.4.4,0,0,1,.15-.03.3.3,0,0,1,.13.02.418.418,0,0,1,.12.08l.71.75Z" fill="#9fa934"/>
              <path id="Caminho_9798" data-name="Caminho 9798" d="M173.41,21.94h-1.4a.634.634,0,0,1-.38-.11.672.672,0,0,1-.22-.28l-.46-1.35H168l-.46,1.35a.664.664,0,0,1-.21.27.6.6,0,0,1-.38.12h-1.41l3-7.76h1.84l3,7.76Zm-3.27-9.21a.423.423,0,0,0,.2-.05.374.374,0,0,0,.13-.12.507.507,0,0,0,.07-.15.468.468,0,0,0,.02-.16h1a2.048,2.048,0,0,1-.08.56,1.525,1.525,0,0,1-.23.48,1.241,1.241,0,0,1-.38.34,1.123,1.123,0,0,1-.53.13,1.516,1.516,0,0,1-.51-.08,1.818,1.818,0,0,1-.37-.18q-.165-.1-.3-.18a.56.56,0,0,0-.27-.08.423.423,0,0,0-.2.05.374.374,0,0,0-.13.12.46.46,0,0,0-.07.16,1,1,0,0,0-.02.16h-1.01a2.048,2.048,0,0,1,.08-.56,1.355,1.355,0,0,1,.24-.48,1.125,1.125,0,0,1,.38-.34,1.112,1.112,0,0,1,.52-.13,1.56,1.56,0,0,1,.51.08,1.593,1.593,0,0,1,.37.18c.11.07.2.13.29.18a.56.56,0,0,0,.27.08Zm.41,6.24-.72-2.13c-.05-.14-.11-.29-.17-.48s-.12-.38-.18-.59c-.05.22-.11.42-.17.6s-.12.34-.17.48l-.71,2.11h2.12Z" fill="#9fa934"/>
              <path id="Caminho_9799" data-name="Caminho 9799" d="M184.9,18.06a4.294,4.294,0,0,1-.29,1.57,3.812,3.812,0,0,1-.82,1.26,3.707,3.707,0,0,1-1.27.84,4.687,4.687,0,0,1-3.3,0,3.749,3.749,0,0,1-1.28-.84,3.812,3.812,0,0,1-.82-1.26,4.395,4.395,0,0,1,0-3.14,3.7,3.7,0,0,1,2.1-2.1,4.4,4.4,0,0,1,1.65-.3,4.218,4.218,0,0,1,1.65.31,3.614,3.614,0,0,1,1.27.84,3.868,3.868,0,0,1,.82,1.26A4.2,4.2,0,0,1,184.9,18.06Zm-1.84,0a3.393,3.393,0,0,0-.15-1.04,2.1,2.1,0,0,0-.43-.78,1.855,1.855,0,0,0-.68-.49,2.433,2.433,0,0,0-.92-.17,2.485,2.485,0,0,0-.93.17,1.891,1.891,0,0,0-.69.49,2.1,2.1,0,0,0-.43.78,3.68,3.68,0,0,0,0,2.08,2.1,2.1,0,0,0,.43.78,1.891,1.891,0,0,0,.69.49,2.448,2.448,0,0,0,.93.17,2.4,2.4,0,0,0,.92-.17,1.677,1.677,0,0,0,.68-.49,2.1,2.1,0,0,0,.43-.78,3.348,3.348,0,0,0,.15-1.04Z" fill="#9fa934"/>
            </g>
            <g id="Grupo_7775" data-name="Grupo 7775" style="isolation: isolate">
              <path id="Caminho_9800" data-name="Caminho 9800" d="M77.4,28.85v1.86h2.5v1.37H77.4v1.9h3.27V35.4H75.54V27.44h5.13v1.42H77.4Z" fill="#95a36e"/>
              <path id="Caminho_9801" data-name="Caminho 9801" d="M92.39,27.43v7.96H90.76V30.47c0-.12.02-.25.03-.38l-2.12,4.09a.69.69,0,0,1-.27.29.7.7,0,0,1-.38.1h-.25a.7.7,0,0,1-.38-.1.758.758,0,0,1-.27-.29L85,30.07l.03.39c.01.13.01.24.01.35v4.58H83.41V27.43h1.62a.415.415,0,0,1,.16.03.567.567,0,0,1,.13.08.5.5,0,0,1,.11.16l2.05,4.04c.07.14.14.28.21.43s.13.3.19.46c.06-.16.13-.32.19-.47a3.612,3.612,0,0,1,.22-.44l2.04-4.02a.736.736,0,0,1,.11-.16.258.258,0,0,1,.13-.08.415.415,0,0,1,.16-.03h1.62Z" fill="#95a36e"/>
              <path id="Caminho_9802" data-name="Caminho 9802" d="M101.6,28.85v2.02h2.72V32.3H101.6v3.1H99.74V27.44h5.13v1.42H101.6Z" fill="#95a36e"/>
              <path id="Caminho_9803" data-name="Caminho 9803" d="M109.43,35.39h-1.86V27.43h1.86Z" fill="#95a36e"/>
              <path id="Caminho_9804" data-name="Caminho 9804" d="M118.34,28.89H116.1v6.5h-1.85v-6.5h-2.24V27.43h6.33v1.46Z" fill="#95a36e"/>
              <path id="Caminho_9805" data-name="Caminho 9805" d="M128.54,31.41a4.27,4.27,0,0,1-.3,1.61,3.792,3.792,0,0,1-.84,1.29,3.883,3.883,0,0,1-1.3.86,4.762,4.762,0,0,1-3.38,0,3.828,3.828,0,0,1-1.31-.86,4,4,0,0,1-.84-1.29,4.47,4.47,0,0,1,0-3.22,3.792,3.792,0,0,1,.84-1.29,3.978,3.978,0,0,1,1.31-.86,4.762,4.762,0,0,1,3.38,0,3.934,3.934,0,0,1,1.3.86,3.792,3.792,0,0,1,.84,1.29,4.255,4.255,0,0,1,.3,1.6Zm-1.89,0a3.48,3.48,0,0,0-.15-1.06,2.208,2.208,0,0,0-.44-.8,1.839,1.839,0,0,0-.7-.5,2.368,2.368,0,0,0-.95-.17,2.517,2.517,0,0,0-.95.17,1.954,1.954,0,0,0-.71.5,2.294,2.294,0,0,0-.44.8,3.526,3.526,0,0,0-.15,1.06,3.593,3.593,0,0,0,.15,1.07,2.208,2.208,0,0,0,.44.8,1.8,1.8,0,0,0,.71.5,2.739,2.739,0,0,0,1.9,0,1.766,1.766,0,0,0,.7-.5,2.294,2.294,0,0,0,.44-.8A3.5,3.5,0,0,0,126.65,31.41Z" fill="#95a36e"/>
              <path id="Caminho_9806" data-name="Caminho 9806" d="M136.8,28.89h-2.24v6.5h-1.85v-6.5h-2.24V27.43h6.33v1.46Z" fill="#95a36e"/>
              <path id="Caminho_9807" data-name="Caminho 9807" d="M141.24,28.85v1.86h2.5v1.37h-2.5v1.9h3.27V35.4h-5.13V27.44h5.13v1.42h-3.27Z" fill="#95a36e"/>
              <path id="Caminho_9808" data-name="Caminho 9808" d="M153.8,35.39h-1.67a.726.726,0,0,1-.67-.35l-1.32-2.31a.637.637,0,0,0-.21-.22.623.623,0,0,0-.33-.07h-.47v2.95h-1.85V27.43h2.59a5.176,5.176,0,0,1,1.47.18,2.7,2.7,0,0,1,.99.49,1.854,1.854,0,0,1,.56.75,2.422,2.422,0,0,1,.18.94,2.477,2.477,0,0,1-.1.73,2.285,2.285,0,0,1-.81,1.16,2.855,2.855,0,0,1-.69.38,1.85,1.85,0,0,1,.34.23,1.289,1.289,0,0,1,.28.33l1.69,2.77Zm-3.93-4.22a1.721,1.721,0,0,0,.64-.1.991.991,0,0,0,.43-.27,1.178,1.178,0,0,0,.25-.4,1.525,1.525,0,0,0,.08-.49,1.022,1.022,0,0,0-.34-.82,1.578,1.578,0,0,0-1.06-.3h-.74v2.36h.74Z" fill="#95a36e"/>
              <path id="Caminho_9809" data-name="Caminho 9809" d="M163.25,35.39h-1.43a.667.667,0,0,1-.39-.11.643.643,0,0,1-.22-.29l-.47-1.39h-3.03l-.47,1.39a.7.7,0,0,1-.22.28.605.605,0,0,1-.39.12h-1.44l3.08-7.96h1.89l3.08,7.96Zm-2.93-3.04-.74-2.18c-.05-.14-.11-.3-.17-.49s-.12-.39-.19-.61a5.043,5.043,0,0,1-.18.62c-.07.19-.12.35-.17.49l-.73,2.17Z" fill="#95a36e"/>
              <path id="Caminho_9810" data-name="Caminho 9810" d="M168.33,27.43a4.791,4.791,0,0,1,1.45.2,2.774,2.774,0,0,1,.99.55,2.191,2.191,0,0,1,.58.83,2.9,2.9,0,0,1,.19,1.03,2.936,2.936,0,0,1-.19,1.09,2.186,2.186,0,0,1-.58.85,2.6,2.6,0,0,1-1,.55,4.7,4.7,0,0,1-1.43.2h-.96v2.66h-1.85V27.43h2.81Zm0,3.91a1.356,1.356,0,0,0,1.04-.34,1.373,1.373,0,0,0,.32-.96,1.588,1.588,0,0,0-.08-.5,1.006,1.006,0,0,0-.25-.39,1.093,1.093,0,0,0-.42-.25,1.8,1.8,0,0,0-.6-.09h-.96v2.53h.96Z" fill="#95a36e"/>
              <path id="Caminho_9811" data-name="Caminho 9811" d="M175.97,35.39h-1.86V27.43h1.86Z" fill="#95a36e"/>
              <path id="Caminho_9812" data-name="Caminho 9812" d="M186.3,35.39h-1.43a.667.667,0,0,1-.39-.11.643.643,0,0,1-.22-.29l-.47-1.39h-3.03l-.47,1.39a.7.7,0,0,1-.22.28.605.605,0,0,1-.39.12h-1.44l3.08-7.96h1.89l3.08,7.96Zm-2.94-3.04-.74-2.18c-.05-.14-.11-.3-.17-.49s-.12-.39-.19-.61c-.05.22-.11.43-.17.62s-.12.35-.18.49l-.73,2.17Z" fill="#95a36e"/>
            </g>
          </g>
          <g id="Grupo_7777" data-name="Grupo 7777">
            <g id="Layer0_1_MEMBER_0_FILL" data-name="Layer0 1 MEMBER 0 FILL">
              <path id="Caminho_9813" data-name="Caminho 9813" d="M38.92,25.34h1.44l.89-2.01,9.5,24.58H47.2V49.4H60.85V47.91H57.82L43.52,13.96l-4.6,11.38Z" fill="#cda55f"/>
            </g>
            <g id="Layer0_1_MEMBER_1_FILL" data-name="Layer0 1 MEMBER 1 FILL">
              <path id="Caminho_9814" data-name="Caminho 9814" d="M30.92,50.28a16.623,16.623,0,0,0,12.19-7.02,20.609,20.609,0,0,0,2.9-13.08,2.713,2.713,0,0,1-.38.06L30.92,50.28Z" fill="#9fa934"/>
              <path id="Caminho_9815" data-name="Caminho 9815" d="M34.28,36.62a16.648,16.648,0,0,0-3.36,13.66L45.63,30.24A20.587,20.587,0,0,0,34.28,36.62Z" fill="#b9bf79"/>
            </g>
            <g id="Layer0_1_MEMBER_2_FILL" data-name="Layer0 1 MEMBER 2 FILL">
              <path id="Caminho_9816" data-name="Caminho 9816" d="M64.11,24.55H62.56v1.74a4.008,4.008,0,0,1-3.94,3.46H53.13l.76,1.79h4.74a3.812,3.812,0,0,1,2.8,1.16A3.858,3.858,0,0,1,62.57,35v1.74h1.55V24.55M46.22,13.18v.15l.89,2.13H60.08a5.8,5.8,0,0,1,5.81,5.81v1.69h2.32V13.17H46.22Z" fill="#95a36e"/>
            </g>
          </g>
        </g>
        <g id="Grupo_7779" data-name="Grupo 7779">
          <path id="Caminho_9817" data-name="Caminho 9817" d="M24.61,500h6.23a25.435,25.435,0,0,0,4.09-6.08,18.992,18.992,0,0,0-7.26,3.04,13.329,13.329,0,0,0-3.06,3.03Z" fill="#94a26e"/>
          <path id="Caminho_9818" data-name="Caminho 9818" d="M45.43,495.97c1.78-2.13,2.7-4.84,3.58-7.48-3.69.05-7.13,2.18-9.49,5.01a24.29,24.29,0,0,0-3.71,6.49h4.48a25.29,25.29,0,0,0,5.13-4.03Z" fill="#94a26e"/>
          <path id="Caminho_9819" data-name="Caminho 9819" d="M6.76,500h5.1a19.012,19.012,0,0,0-3.81-15.97c-2.82,4.17-4.24,9.65-2.3,14.29A5.616,5.616,0,0,0,6.76,500Z" fill="#94a26e"/>
          <path id="Caminho_9820" data-name="Caminho 9820" d="M7.23,461.57c.19,3.41,3.22,5.92,6.2,7.59a9.019,9.019,0,0,0,4.16,1.41c1.17.01,2.74.61,3.91.35a35.932,35.932,0,0,1,4.98,5.04,25.522,25.522,0,0,1-.48,9.15,95.991,95.991,0,0,0-3.93,9.81c-.04.13-.08.26-.13.38a15.5,15.5,0,0,0-.69-6.74c-.06-.94-.37-5.21-1.4-6.67a17.227,17.227,0,0,0-4.5-3.95c-.99-.68-1.98-1.37-2.97-2.05,1.54,2.32.84,5.58,2.27,7.97a12.478,12.478,0,0,0,6.48,4.84,15.072,15.072,0,0,1,.5,7.58c-.4,1.24-.78,2.48-1.16,3.73h.17c.18-.6.35-1.2.54-1.79.07-.24.15-.47.22-.7.01,0,.02-.02.03-.04q.15-.51.33-1.02a.1.1,0,0,0,.01-.03v-.02c2.09-5.94,6.81-10.57,11.29-14.84q1.845-1.755,3.77-3.41c3.98.05,8.02-2.18,11.02-4.79a34.864,34.864,0,0,0,7.28-9.61c-2.92-.42-5.6,1.34-8.2,2.74-8.75,4.7-10.11,10.77-10.26,11.57q-2.07,1.77-4.03,3.66c-3.83,3.67-7.8,7.6-10.12,12.41,1.07-3.02,2.25-5.98,3.59-8.89a.07.07,0,0,0,.02-.04v-.02c1.04-2.25,2.16-4.47,3.38-6.66,2.19-3.92,4.6-7.71,7.11-11.44a2.142,2.142,0,0,0,1.21.09c1.94-.3,4.22-3.82,5.24-5.29a45.385,45.385,0,0,0,5.15-9.8,19.882,19.882,0,0,0-10.88,10.2c-.7,1.5-1.91,3.98-.86,4.72-2.02,3.01-3.98,6.06-5.82,9.19q-2.355,4.02-4.35,8.2c1.39-6.59-.36-13.02-2.06-19.43,1.12-1.46,1.68-5.37,1.57-7.19a22.129,22.129,0,0,0-1.21-5.36q-1.17-3.705-2.38-7.38c-2.87,2-3.53,5.78-3.67,9.28-.17,4.28,4.43,9.37,5.47,10.45a79.949,79.949,0,0,1,2.38,10.89,36.278,36.278,0,0,0-4.74-4.78l.11-.03s-1.06-8.43-14.56-9.26Z" fill="#94a26e"/>
        </g>
      </g>
      <g id="_01_Capa" data-name="01_Capa">
        <rect id="Retângulo_706" data-name="Retângulo 706" width="519.5" height="920.12" transform="translate(904.06 -9.75) rotate(90)" fill="#fcf9e2"/>
        <path id="Caminho_9821" data-name="Caminho 9821" d="M829.59,101.09c2.54,29.68,2.53,59.28,3.37,89.01.56,19.96-8.54,37.84-29.53,44.17-17.92,5.41-37.12,12.32-55.9,15.6-28.9,5.04-60.92.49-82.98-18.84-12.06-10.57-20.33-24.7-28.38-38.56l-33.63-57.9c-3.53-6.07-7.1-12.26-8.7-19.11-3.64-15.64,4.14-32.51,16.73-42.48s29.15-13.82,45.21-13.85c19.79-.03,41.21,4.93,58.27-5.11,15.12-8.9,22.59-27.57,37.98-36.01,19.85-10.89,46.08.12,59.26,18.54s16.37,41.98,18.31,64.54Z" fill="#e8cbb3"/>
        <path id="Caminho_9822" data-name="Caminho 9822" d="M329.58,100.2c50.22-12.02,106.29-23.28,150.93,2.66,27.41,15.92,45.98,43.69,72.01,61.76,66.14,45.93,160.63,18.82,232.89,54.34,30.44,14.96,55.79,41.82,64.81,74.52s-.19,70.81-25.98,92.84c-24.98,21.34-60.05,25.19-92.82,27.59a3196.28,3196.28,0,0,1-566.43-8.86c-33.59-3.52-69.88-8.86-93.63-32.88-18.01-18.22-25.59-44.32-28.96-69.72A275.737,275.737,0,0,1,49.04,196.1c8.04-30.33,18.75-33.97,47.35-40.17,78.05-16.91,155.53-37.15,233.2-55.73Z" fill="#e8cbb3" style="mix-blend-mode: multiply;isolation: isolate"/>
        <path id="Caminho_9823" data-name="Caminho 9823" d="M241.39,311.48c-11.62,6.46-20.34,17.05-27.61,28.21a199.428,199.428,0,0,0-15.55,15.09c-11.64,12.6-23.39,26.79-26.93,43.96,3.89-35.76,12.05-70.69,27.77-103.59,3.8-7.95,7.95-15.72,12.36-23.34.04.42.08.65.08.65,3.51.22,7.53-3.1,10.86-4.2,3.88-1.28,6.98-4.19,9.77-7.16,6.44-6.87,12.32-15.99,10.01-25.12-29.17,11.23-30.97,29.21-30.79,34.78a314.913,314.913,0,0,0-22.85,47.69,230.321,230.321,0,0,1,4.93-42.51c.24-.39,17.76-28.93,20.01-42.23,1.65-9.79-.4-19.78-2.44-29.49-11.27,6.82-18.03,19.55-20.19,32.55-2.08,12.52-.36,25.35,2.31,37.77a231.312,231.312,0,0,0-5.25,45.66c-.24.67-.49,1.33-.73,2a314.249,314.249,0,0,0-15.52,67.09c-1.57,12.58-2.55,25.23-3.18,37.89a538.24,538.24,0,0,0-8.63-70.08c-2.02-10.59-4.45-21.08-7-31.54,0-.02.02-.04.02-.07a124.278,124.278,0,0,1,3.77-23.48c7.9-4.51,16.65-20.03,19-28.69,2.37-8.74,2.25-17.95,1.82-27a67.762,67.762,0,0,0-16.88,22.47c-5.48,11.33-4.63,27.7-4.28,32.17a125.415,125.415,0,0,0-3.9,22.75c-3.22-13.12-6.61-26.19-9.64-39.36-.2-.86-.39-1.72-.58-2.58a.18.18,0,0,0,0-.16c-.31-1.24-.58-2.49-.83-3.73a.254.254,0,0,0-.02-.12c0-.02-.01-.03-.02-.05-4.28-22.08,1.91-44.83,8.02-66.07q2.52-8.73,5.47-17.3c12.36-7.04,20.77-21.16,25.32-34.64,4.61-13.66,5.41-28.32,5.11-42.74-9.74,3.96-14.83,14.24-20.31,23.22-18.48,30.27-11.74,51.41-10.74,54.14q-3.165,9.2-5.82,18.54c-5.16,18.21-10.31,37.47-8.79,56.47-2.16-11.23-3.84-22.5-4.97-33.85a.253.253,0,0,0,0-.15c0-.02-.02-.05-.02-.07-.87-8.81-1.42-17.67-1.59-26.6-.31-16.03.29-32.05,1.27-48.05a7.464,7.464,0,0,0,3.89-1.9c5.45-4.42,6.11-19.39,6.6-25.75a162.3,162.3,0,0,0-1.8-39.5h0c-11.56,14.13-16.82,32.96-15.14,51.05.55,5.89,1.3,15.69,5.84,16.1-.8,12.91-1.34,25.84-1.35,38.78q-.015,16.62,1.4,33.09c-7.59-22.83-24.59-39.48-41.38-56.16.81-6.52-4.51-19.56-8.13-24.99-3.63-5.45-8.52-9.93-13.37-14.32q-10.26-9.3-20.65-18.45c-5.22,11.34-.46,24.19,5.42,35.21,7.2,13.48,30.54,20.86,35.69,22.35,9.47,9.4,19.04,18.78,26.97,29.24a127.2,127.2,0,0,0-23.23-6.18c.09-.1.19-.2.27-.3,0,0-18.47-24.05-61.56-2.27,6.74,10.14,20.59,12.42,32.76,12.2,5.28-.1,10.76-.54,15.35-3.15,3.63-2.06,9.54-3.06,12.67-5.96a127.358,127.358,0,0,1,24.41,6.54,91.691,91.691,0,0,1,15.02,29.05,340.084,340.084,0,0,0,5.59,37.28c.1.47.21.94.31,1.41a54.952,54.952,0,0,0-14.27-19.52c-1.87-2.79-10.55-15.39-16.35-18.01-6.53-2.96-13.85-3.53-21-4.06q-6.435-.48-12.86-.95c8.93,4.38,12.66,15.68,21.37,20.47,7.77,4.28,19.95,5.3,28.69,3.23a53.994,53.994,0,0,1,15.2,22.45c4.94,22.66,11.32,44.98,16.19,67.65a536.99,536.99,0,0,1,10.68,75.42q.21,3.105.39,6.22a264.277,264.277,0,0,0-24.41-70.25,295.209,295.209,0,0,0-20.16-33.26c-1.14-1.64-2.31-3.27-3.48-4.9l.08-.77c-3.25-23.82-20.52-45.2-43.13-53.38-1.17,17.92,4.35,37.36,18.68,48.18a19.677,19.677,0,0,0,6.2,3.36c5.54,1.62,12.06-.42,17.07,2.1q2.49,3.4,4.89,6.88a291.9,291.9,0,0,1,19.91,33.2,264.172,264.172,0,0,1,24.61,73.36,544.049,544.049,0,0,1-1.33,73.12.3.3,0,0,0,.6.03,544.019,544.019,0,0,0,1.36-71.88.258.258,0,0,0,.06-.16c.47-10.91,1.23-21.77,2.38-32.56a.334.334,0,0,0,.53-.19c3.39-18.23,16.35-33.43,28.78-46.52,4.08-4.3,8.36-8.38,12.79-12.29,1.91.4,13.31,2.73,18.21,2.17,12.35-1.4,22.62-9.79,32.1-17.83q8.58-7.275,17.15-14.55c-11.6-7.43-27.3-5.97-39.34.72Z" fill="#9fa934"/>
        <g id="Grupo_7785" data-name="Grupo 7785">
          <path id="Caminho_9872" data-name="Caminho 9872" d="M858.68,5.28a4.481,4.481,0,0,0,2.43.45,2.718,2.718,0,0,0,1.7-1.07,2.871,2.871,0,0,0,.45-1.96A4.4,4.4,0,0,0,862.04.56a3.034,3.034,0,0,0-4.78.16,3.046,3.046,0,0,0,1.42,4.57h0Z" fill="#edebd3"/>
          <path id="Caminho_9873" data-name="Caminho 9873" d="M839.63,4.24c-.36-.42-.73-.83-1.09-1.25.26.41.51.82.77,1.24a1.469,1.469,0,0,1-.15-.34c.16.97.33,1.94.49,2.91,0-.11,0-.22.01-.32a6.547,6.547,0,0,0-.97-3.88A6.312,6.312,0,0,0,835.5-.06a6.326,6.326,0,0,0-4.01-.05,6.061,6.061,0,0,0-3.35,2.35,7.608,7.608,0,0,0-1.15,3.12,6.1,6.1,0,0,0,.97,3.88,6.312,6.312,0,0,0,3.19,2.66,6.71,6.71,0,0,0,4.79-.18l.3-.12c-.97.16-1.94.33-2.91.49a1.168,1.168,0,0,1,.37.04c-.47-.1-.95-.21-1.42-.31.51.21,1.02.41,1.53.62a5.394,5.394,0,0,0,6.03-1.89,5.312,5.312,0,0,0-.21-6.31h0Z" fill="#edebd3"/>
          <path id="Caminho_9874" data-name="Caminho 9874" d="M842.81,23.85l-.24.68a2.886,2.886,0,0,0,.02,2.27,2.472,2.472,0,0,0,2.03,1.44,2.958,2.958,0,0,0,2.15-.73l.57-.45a2.878,2.878,0,1,0-4.52-3.22h0Z" fill="#edebd3"/>
          <path id="Caminho_9875" data-name="Caminho 9875" d="M821.25,37.35c3.52,2.5,7.42-2.97,3.89-5.47s-7.42,2.97-3.89,5.47Z" fill="#edebd3"/>
          <path id="Caminho_9876" data-name="Caminho 9876" d="M863.31,28.65c2.68,1.91,5.65-2.26,2.96-4.17s-5.65,2.26-2.96,4.17Z" fill="#edebd3"/>
          <path id="Caminho_9877" data-name="Caminho 9877" d="M850.7,15.14a1.633,1.633,0,0,0,1.89-2.66,1.633,1.633,0,0,0-1.89,2.66Z" fill="#edebd3"/>
          <path id="Caminho_9878" data-name="Caminho 9878" d="M874.13,2.88c.36.11.72.23,1.08.34a3.009,3.009,0,0,0,1.83.02,2.818,2.818,0,0,0,1.53-1.07,3.3,3.3,0,0,0,.52-1.42,2.981,2.981,0,0,0-.64-2.09c-.23-.3-.45-.61-.68-.91a3.3,3.3,0,0,0-5.19.17,3.289,3.289,0,0,0,1.54,4.95h0Z" fill="#edebd3"/>
          <path id="Caminho_9879" data-name="Caminho 9879" d="M863.48,21.19c2.05,1.45,4.31-1.72,2.26-3.18s-4.31,1.72-2.26,3.18Z" fill="#edebd3"/>
          <path id="Caminho_9880" data-name="Caminho 9880" d="M849.59,47.97c.34.2.68.41,1.01.61a2.849,2.849,0,0,0,1.41.59,2.966,2.966,0,0,0,1.48.07,3.879,3.879,0,0,0,3.17-4.47c-.1-.32-.19-.63-.29-.95a3.773,3.773,0,0,0-1.29-1.56c-.3-.25-.61-.5-.91-.76a3.079,3.079,0,0,0-1.44-.61,2.971,2.971,0,0,0-1.51-.07,3.014,3.014,0,0,0-1.41.57,2.927,2.927,0,0,0-1.16,1.05,3.991,3.991,0,0,0-.68,2.96,3.937,3.937,0,0,0,1.61,2.57h0Z" fill="#edebd3"/>
          <path id="Caminho_9881" data-name="Caminho 9881" d="M832.04,55.84c2.55,1.81,5.37-2.15,2.81-3.96s-5.37,2.15-2.81,3.96Z" fill="#edebd3"/>
          <path id="Caminho_9882" data-name="Caminho 9882" d="M802.25,49.66c2.21,1.57,4.66-1.87,2.44-3.44s-4.66,1.87-2.44,3.44Z" fill="#edebd3"/>
          <path id="Caminho_9883" data-name="Caminho 9883" d="M827.46,90.32l1.01.18a4.155,4.155,0,0,0,2.03-.34,3.987,3.987,0,0,0,1.64-1.35,4.1,4.1,0,0,0,.74-1.99,4.155,4.155,0,0,0-.34-2.03c-.17-.3-.33-.59-.5-.89a4.6,4.6,0,0,0-3.76-2.67,4.576,4.576,0,0,0-4.57,6.44,4.6,4.6,0,0,0,3.76,2.67h0Z" fill="#edebd3"/>
          <path id="Caminho_9884" data-name="Caminho 9884" d="M860.96,70.44c3.32,2.36,6.99-2.8,3.67-5.16s-6.99,2.8-3.67,5.16Z" fill="#edebd3"/>
          <path id="Caminho_9885" data-name="Caminho 9885" d="M800.79,78.18c2.65,1.88,5.58-2.23,2.92-4.12s-5.58,2.23-2.92,4.12Z" fill="#edebd3"/>
          <path id="Caminho_9886" data-name="Caminho 9886" d="M817.2,70.51l1.3.36a1.737,1.737,0,0,0,1.96-.61,1.774,1.774,0,0,0-.07-2.05c-.25-.37-.51-.74-.76-1.11a2.139,2.139,0,0,0-2.05-.77,2.164,2.164,0,0,0-1.78,2.5,2.139,2.139,0,0,0,1.4,1.68h0Z" fill="#edebd3"/>
          <path id="Caminho_9887" data-name="Caminho 9887" d="M832.77,122.16c.3.2.59.4.89.6a4.711,4.711,0,0,0,3.36.77,4.982,4.982,0,0,0,2.92-1.83,4.569,4.569,0,0,0,.77-3.36,4.777,4.777,0,0,0-1.83-2.92c-.29-.21-.57-.43-.86-.64a3.44,3.44,0,0,0-1.65-.69,3.377,3.377,0,0,0-1.73-.08,3.317,3.317,0,0,0-1.61.65,3.485,3.485,0,0,0-1.33,1.2,4.542,4.542,0,0,0,1.08,6.33h0Z" fill="#edebd3"/>
          <path id="Caminho_9888" data-name="Caminho 9888" d="M848.73,87.67a.607.607,0,0,0,.7-.99.607.607,0,0,0-.7.99Z" fill="#edebd3"/>
          <path id="Caminho_9889" data-name="Caminho 9889" d="M798.78,119.51c2.68,1.91,5.65-2.26,2.96-4.17s-5.65,2.26-2.96,4.17Z" fill="#edebd3"/>
          <path id="Caminho_9890" data-name="Caminho 9890" d="M769.81,88.13c2.21,1.57,4.66-1.87,2.44-3.44s-4.66,1.87-2.44,3.44Z" fill="#edebd3"/>
          <path id="Caminho_9891" data-name="Caminho 9891" d="M801.9,17.78a4.868,4.868,0,0,0,.92-2.02,2.012,2.012,0,0,0-2.81-1.99,4.925,4.925,0,0,0-1.61,1.54,2.141,2.141,0,0,0,.5,2.99,2.22,2.22,0,0,0,1.6.37,2.115,2.115,0,0,0,1.39-.87h0Z" fill="#edebd3"/>
          <path id="Caminho_9892" data-name="Caminho 9892" d="M872.38,95.27a1.471,1.471,0,0,0,1.7-2.4,1.471,1.471,0,0,0-1.7,2.4Z" fill="#edebd3"/>
          <path id="Caminho_9893" data-name="Caminho 9893" d="M820.17,145.23c-.17.28-.33.55-.5.83a1.737,1.737,0,0,0-.11.18,2.609,2.609,0,0,0-.42,1.49,2.373,2.373,0,0,0,.98,1.88,2.451,2.451,0,0,0,3.46-.7c.22-.26.44-.52.65-.78a2.494,2.494,0,0,0-2.44-3.91,2.464,2.464,0,0,0-1.62,1.01Z" fill="#edebd3"/>
          <path id="Caminho_9894" data-name="Caminho 9894" d="M878.83,28.45a1.762,1.762,0,0,0,2.04-2.87,1.762,1.762,0,0,0-2.04,2.87Z" fill="#edebd3"/>
          <path id="Caminho_9895" data-name="Caminho 9895" d="M876.12,19.25a6.329,6.329,0,0,0,1.44.13.971.971,0,0,0,.79-1.11,6.028,6.028,0,0,0-.6-1.32,1.674,1.674,0,0,0-1.34-.95,1.634,1.634,0,0,0-1.47.68,1.628,1.628,0,0,0,1.18,2.57h0Z" fill="#edebd3"/>
          <path id="Caminho_9896" data-name="Caminho 9896" d="M879.76,46.39c2.01,1.43,4.24-1.7,2.22-3.13s-4.24,1.7-2.22,3.13Z" fill="#edebd3"/>
        </g>
        <g id="Grupo_7792" data-name="Grupo 7792">
          <rect id="Retângulo_711" data-name="Retângulo 711" width="544.89" height="184.1" rx="68.47" transform="translate(171.56 152.2)" fill="#fff" stroke="#94a26e" stroke-miterlimit="10" stroke-width="2"/>
          <g id="Grupo_7791" data-name="Grupo 7791">
            <g id="Grupo_7789" data-name="Grupo 7789">
              <g id="Layer2_9_FILL-2" data-name="Layer2 9 FILL">
                <path id="Caminho_9897" data-name="Caminho 9897" d="M653.62,270.39v-3.14H352.41v3.14Z" fill="#cda55f"/>
              </g>
              <g id="Grupo_7786" data-name="Grupo 7786" style="isolation: isolate">
                <path id="Caminho_9898" data-name="Caminho 9898" d="M380.17,289.55a3.171,3.171,0,0,1-1.54,1.41,5.29,5.29,0,0,1-2.23.48,3.666,3.666,0,0,1-2.36-.78,2.733,2.733,0,0,1-1.01-2.17,2.889,2.889,0,0,1,1.01-2.44,3.99,3.99,0,0,1,2.63-.87,6.593,6.593,0,0,1,3.29.79V284.8a1.681,1.681,0,0,0-.5-1.24,2.509,2.509,0,0,0-1.14-.64,5.42,5.42,0,0,0-1.37-.16,5.7,5.7,0,0,0-2.91.69l-.26-1.23a7.408,7.408,0,0,1,3.41-.71,5.364,5.364,0,0,1,3.02.79,2.749,2.749,0,0,1,1.16,2.54v4.71a.9.9,0,0,0,.03.23c.01.04.03.11.06.2a.362.362,0,0,0,.09.17,1.007,1.007,0,0,1,.14.12.228.228,0,0,0,.2.07.63.63,0,0,1,.26.03.483.483,0,0,0,.33-.03l.02,1.01a2.551,2.551,0,0,1-1.79-.17c-.36-.24-.54-.78-.54-1.61Zm-.22-1.5v-.91a5.944,5.944,0,0,0-3.01-.77,2.729,2.729,0,0,0-1.71.54,1.7,1.7,0,0,0-.66,1.52,1.546,1.546,0,0,0,.64,1.27,2.51,2.51,0,0,0,1.48.42,4.357,4.357,0,0,0,2.06-.53,2.23,2.23,0,0,0,1.21-1.53Z" fill="#9e7432"/>
                <path id="Caminho_9899" data-name="Caminho 9899" d="M389.76,288.58h1.51a1.486,1.486,0,0,0,.86,1.27,3.967,3.967,0,0,0,1.87.42,3.712,3.712,0,0,0,1.86-.45,1.468,1.468,0,0,0,.83-1.28,1.107,1.107,0,0,0-.59-1.06,7.362,7.362,0,0,0-2.08-.52c-.45-.05-.83-.11-1.15-.17a7.531,7.531,0,0,1-1.05-.28,3.357,3.357,0,0,1-.93-.45,2.127,2.127,0,0,1-.6-.69,2.2,2.2,0,0,1-.27-1.01,2.235,2.235,0,0,1,1.14-2.11,5.9,5.9,0,0,1,5.63-.01,2.175,2.175,0,0,1,1.15,2.02h-1.49a1.217,1.217,0,0,0-.72-1.12,3.648,3.648,0,0,0-1.75-.39,3.712,3.712,0,0,0-1.78.4,1.171,1.171,0,0,0-.71,1.17.982.982,0,0,0,.61.93,8.233,8.233,0,0,0,2.06.5c.45.05.79.1,1.02.14s.53.1.91.19a2.847,2.847,0,0,1,.87.32,4.841,4.841,0,0,1,.64.48,1.692,1.692,0,0,1,.48.7,2.633,2.633,0,0,1,.12.97,2.434,2.434,0,0,1-1.21,2.16,5.588,5.588,0,0,1-2.99.81,5.651,5.651,0,0,1-2.93-.7,2.668,2.668,0,0,1-1.31-2.23Z" fill="#9e7432"/>
                <path id="Caminho_9900" data-name="Caminho 9900" d="M408.1,283.31a3.791,3.791,0,0,1,3.49-1.84,3.847,3.847,0,0,1,3.17,1.42,5.437,5.437,0,0,1,1.15,3.56,5.178,5.178,0,0,1-.71,2.72,4.422,4.422,0,0,1-1.8,1.72,4.759,4.759,0,0,1-2.46.45,5.429,5.429,0,0,1-2.61-.93v5.78h-1.55V284.92a6.616,6.616,0,0,0-.1-1.58c-.15-.38-.49-.54-1.03-.48l-.02-1.15a2.851,2.851,0,0,1,1.86.17,1.414,1.414,0,0,1,.61,1.44Zm.18,2.74V289a4.62,4.62,0,0,0,2.7,1.03,3.07,3.07,0,0,0,2.38-.93,3.607,3.607,0,0,0,.96-2.65,4.138,4.138,0,0,0-.76-2.56,2.644,2.644,0,0,0-2.27-1.01,2.727,2.727,0,0,0-2.14.94,3.469,3.469,0,0,0-.87,2.23Z" fill="#9e7432"/>
                <path id="Caminho_9901" data-name="Caminho 9901" d="M428.54,281.51a4.307,4.307,0,0,1,3.53,1.4,4.531,4.531,0,0,1,.71,3.75h-7.59a3.057,3.057,0,0,0,1.03,2.58,4.036,4.036,0,0,0,2.77.97,8.5,8.5,0,0,0,3.23-.69l.24,1.17a8.18,8.18,0,0,1-3.51.81,5.4,5.4,0,0,1-3.9-1.43,4.819,4.819,0,0,1-1.41-3.82,4.688,4.688,0,0,1,1.47-3.47,4.87,4.87,0,0,1,3.43-1.27Zm0,1.23a3.394,3.394,0,0,0-2.21.72,3.072,3.072,0,0,0-1.08,2.01h6.22a2.331,2.331,0,0,0-.75-2.02,3.2,3.2,0,0,0-2.18-.71Z" fill="#9e7432"/>
                <path id="Caminho_9902" data-name="Caminho 9902" d="M450.03,284.64h-1.49a2.775,2.775,0,0,0-1.15-1.31,3.353,3.353,0,0,0-1.72-.46,3.681,3.681,0,0,0-2.5.95,3.341,3.341,0,0,0-1.07,2.63,3.376,3.376,0,0,0,1.05,2.63,3.465,3.465,0,0,0,2.44.97,3.4,3.4,0,0,0,1.82-.51,2.946,2.946,0,0,0,1.21-1.49h1.51a4.2,4.2,0,0,1-1.69,2.5,4.974,4.974,0,0,1-2.86.87,5.2,5.2,0,0,1-3.53-1.32,5.179,5.179,0,0,1,.01-7.32,5.187,5.187,0,0,1,3.56-1.3,4.972,4.972,0,0,1,2.75.83,3.981,3.981,0,0,1,1.66,2.32Z" fill="#9e7432"/>
                <path id="Caminho_9903" data-name="Caminho 9903" d="M460.87,278.8v2.97h3.51v1.13h-3.51v4.67a2.486,2.486,0,0,0,1.04,2.37,3.189,3.189,0,0,0,2.76-.09l.18,1.25a7.663,7.663,0,0,1-2.89.37,2.627,2.627,0,0,1-1.93-1.11,4.628,4.628,0,0,1-.7-2.74v-4.71l-2.04-.1v-1.03h2.14l.16-2.97h1.29Z" fill="#9e7432"/>
                <path id="Caminho_9904" data-name="Caminho 9904" d="M482.06,286.48a5.244,5.244,0,0,1-.44,2.16,4.339,4.339,0,0,1-1.14,1.57,5.183,5.183,0,0,1-1.6.92,5.351,5.351,0,0,1-3.7,0,5.268,5.268,0,0,1-1.6-.92,4.3,4.3,0,0,1-1.14-1.56,5.225,5.225,0,0,1-.44-2.17,5.117,5.117,0,0,1,.44-2.18,4.215,4.215,0,0,1,1.14-1.56,5.183,5.183,0,0,1,1.6-.92,5.4,5.4,0,0,1,5.3.92,4.386,4.386,0,0,1,1.14,1.56A5.272,5.272,0,0,1,482.06,286.48Zm-7.98-2.02a3.865,3.865,0,0,0-.52,2.02,3.774,3.774,0,0,0,.52,2.02,3.126,3.126,0,0,0,1.29,1.24,3.77,3.77,0,0,0,3.34,0A3.249,3.249,0,0,0,480,288.5a4.183,4.183,0,0,0,0-4.04,3.039,3.039,0,0,0-1.29-1.23,3.86,3.86,0,0,0-3.34,0A3.155,3.155,0,0,0,474.08,284.46Z" fill="#9e7432"/>
                <path id="Caminho_9905" data-name="Caminho 9905" d="M489.69,288.58h1.51a1.486,1.486,0,0,0,.86,1.27,4,4,0,0,0,1.87.42,3.712,3.712,0,0,0,1.86-.45,1.468,1.468,0,0,0,.83-1.28,1.107,1.107,0,0,0-.59-1.06,7.362,7.362,0,0,0-2.08-.52c-.45-.05-.83-.11-1.15-.17a7.531,7.531,0,0,1-1.05-.28,3.357,3.357,0,0,1-.93-.45,2.028,2.028,0,0,1-.6-.69,2.325,2.325,0,0,1-.27-1.01,2.235,2.235,0,0,1,1.14-2.11,5.3,5.3,0,0,1,2.82-.72,5.38,5.38,0,0,1,2.81.71,2.158,2.158,0,0,1,1.15,2.02h-1.49a1.217,1.217,0,0,0-.72-1.12,3.648,3.648,0,0,0-1.75-.39,3.712,3.712,0,0,0-1.78.4,1.171,1.171,0,0,0-.71,1.17.976.976,0,0,0,.62.93,8.233,8.233,0,0,0,2.06.5c.45.05.79.1,1.02.14s.53.1.91.19a2.847,2.847,0,0,1,.87.32,4.841,4.841,0,0,1,.64.48,1.692,1.692,0,0,1,.48.7,2.633,2.633,0,0,1,.12.97,2.434,2.434,0,0,1-1.21,2.16,5.588,5.588,0,0,1-2.99.81,5.651,5.651,0,0,1-2.93-.7,2.668,2.668,0,0,1-1.31-2.23Z" fill="#9e7432"/>
                <path id="Caminho_9906" data-name="Caminho 9906" d="M526.35,284.64h-1.49a2.775,2.775,0,0,0-1.15-1.31,3.353,3.353,0,0,0-1.72-.46,3.638,3.638,0,0,0-2.49.95,3.341,3.341,0,0,0-1.07,2.63,3.376,3.376,0,0,0,1.05,2.63,3.465,3.465,0,0,0,2.44.97,3.4,3.4,0,0,0,1.82-.51,2.9,2.9,0,0,0,1.21-1.49h1.51a4.2,4.2,0,0,1-1.69,2.5,4.973,4.973,0,0,1-2.86.87,5.2,5.2,0,0,1-3.53-1.32,5.178,5.178,0,0,1,.01-7.32,5.187,5.187,0,0,1,3.56-1.3,4.972,4.972,0,0,1,2.75.83,3.981,3.981,0,0,1,1.66,2.32Z" fill="#9e7432"/>
                <path id="Caminho_9907" data-name="Caminho 9907" d="M534.55,276.76h1.57v11.07a2.838,2.838,0,0,0,.48,1.95,2.35,2.35,0,0,0,1.92.31l.06,1.23c-1.45.24-2.49.09-3.1-.46a3.972,3.972,0,0,1-.92-3.03V276.76Z" fill="#9e7432"/>
                <path id="Caminho_9908" data-name="Caminho 9908" d="M547.29,279.69h-1.25v-.12l1.41-2.52,1.37.55v.14l-1.53,1.94Zm.36,2.06v9.53h-1.57v-9.53Z" fill="#9e7432"/>
                <path id="Caminho_9909" data-name="Caminho 9909" d="M565.59,291.28h-1.57v-5.67a2.815,2.815,0,0,0-.74-2.03,2.576,2.576,0,0,0-1.93-.76,2.908,2.908,0,0,0-2.04.77,2.587,2.587,0,0,0-.81,1.96v5.72h-1.55v-6.81a2.829,2.829,0,0,0-.19-1.31c-.12-.2-.43-.27-.92-.22l-.02-1.23c.26-.04.46-.07.58-.08s.31-.02.57-.03a1.352,1.352,0,0,1,.56.08,2.917,2.917,0,0,1,.43.25.866.866,0,0,1,.34.48,2.39,2.39,0,0,1,.1.75,3.737,3.737,0,0,1,3.37-1.62,3.574,3.574,0,0,1,2.82,1.13,4.271,4.271,0,0,1,1,2.95v5.67Z" fill="#9e7432"/>
                <path id="Caminho_9910" data-name="Caminho 9910" d="M574.27,278.58a.9.9,0,0,1,.49-.87,1,1,0,0,1,.98,0,.9.9,0,0,1,.49.87.911.911,0,0,1-.31.74,1.008,1.008,0,0,1-.67.27.989.989,0,0,1-.67-.27A.957.957,0,0,1,574.27,278.58Zm1.74,3.23v9.47h-1.55v-9.47Z" fill="#9e7432"/>
                <path id="Caminho_9911" data-name="Caminho 9911" d="M593.86,284.64h-1.49a2.775,2.775,0,0,0-1.15-1.31,3.353,3.353,0,0,0-1.72-.46,3.638,3.638,0,0,0-2.49.95,3.341,3.341,0,0,0-1.07,2.63,3.376,3.376,0,0,0,1.05,2.63,3.465,3.465,0,0,0,2.44.97,3.4,3.4,0,0,0,1.82-.51,2.9,2.9,0,0,0,1.21-1.49h1.51a4.2,4.2,0,0,1-1.69,2.5,4.973,4.973,0,0,1-2.86.87,5.2,5.2,0,0,1-3.53-1.32,5.178,5.178,0,0,1,.01-7.32,5.187,5.187,0,0,1,3.56-1.3,4.972,4.972,0,0,1,2.75.83,3.981,3.981,0,0,1,1.66,2.32Z" fill="#9e7432"/>
                <path id="Caminho_9912" data-name="Caminho 9912" d="M611.61,286.48a5.089,5.089,0,0,1-.44,2.16,4.338,4.338,0,0,1-1.14,1.57,5.182,5.182,0,0,1-1.6.92,5.351,5.351,0,0,1-3.7,0,5.268,5.268,0,0,1-1.6-.92,4.3,4.3,0,0,1-1.14-1.56,5.192,5.192,0,0,1-.44-2.17,5.272,5.272,0,0,1,.44-2.18,4.214,4.214,0,0,1,1.14-1.56,5.182,5.182,0,0,1,1.6-.92,5.351,5.351,0,0,1,3.7,0,5.268,5.268,0,0,1,1.6.92,4.387,4.387,0,0,1,1.14,1.56A5.272,5.272,0,0,1,611.61,286.48Zm-7.98-2.02a3.865,3.865,0,0,0-.52,2.02,3.773,3.773,0,0,0,.52,2.02,3.187,3.187,0,0,0,1.29,1.24,3.77,3.77,0,0,0,3.34,0,3.186,3.186,0,0,0,1.29-1.24,4.255,4.255,0,0,0,0-4.04,3.039,3.039,0,0,0-1.29-1.23,3.859,3.859,0,0,0-3.34,0A3.1,3.1,0,0,0,603.63,284.46Z" fill="#9e7432"/>
                <path id="Caminho_9913" data-name="Caminho 9913" d="M619.23,288.58h1.51a1.486,1.486,0,0,0,.86,1.27,3.967,3.967,0,0,0,1.87.42,3.712,3.712,0,0,0,1.86-.45,1.487,1.487,0,0,0,.83-1.28,1.107,1.107,0,0,0-.59-1.06,7.362,7.362,0,0,0-2.08-.52c-.45-.05-.83-.11-1.15-.17a7.536,7.536,0,0,1-1.05-.28,3.357,3.357,0,0,1-.93-.45,2.027,2.027,0,0,1-.6-.69,2.2,2.2,0,0,1-.27-1.01,2.235,2.235,0,0,1,1.14-2.11,5.9,5.9,0,0,1,5.63-.01,2.176,2.176,0,0,1,1.15,2.02h-1.49a1.217,1.217,0,0,0-.72-1.12,3.648,3.648,0,0,0-1.75-.39,3.712,3.712,0,0,0-1.78.4,1.171,1.171,0,0,0-.71,1.17.982.982,0,0,0,.61.93,8.577,8.577,0,0,0,2.06.5c.45.05.79.1,1.02.14s.54.1.91.19a2.847,2.847,0,0,1,.87.32,4.843,4.843,0,0,1,.64.48,1.692,1.692,0,0,1,.48.7,2.634,2.634,0,0,1,.12.97,2.434,2.434,0,0,1-1.21,2.16,5.563,5.563,0,0,1-2.99.81,5.651,5.651,0,0,1-2.93-.7,2.668,2.668,0,0,1-1.31-2.23Z" fill="#9e7432"/>
              </g>
              <g id="Grupo_7787" data-name="Grupo 7787">
                <path id="Caminho_9914" data-name="Caminho 9914" d="M375.05,218.22h-3.72a1.658,1.658,0,0,1-1.01-.29,1.733,1.733,0,0,1-.58-.75l-1.22-3.6h-7.86l-1.22,3.6a1.708,1.708,0,0,1-.56.72,1.576,1.576,0,0,1-1,.32h-3.75l8-20.68h4.91l8,20.68Zm-7.62-7.9-1.92-5.66c-.14-.36-.29-.78-.45-1.27s-.32-1.01-.48-1.58c-.14.58-.29,1.11-.45,1.6s-.31.92-.45,1.28l-1.9,5.63h5.66Z" fill="#9fa934"/>
                <path id="Caminho_9915" data-name="Caminho 9915" d="M398.89,201.35h-5.82v16.87h-4.8V201.35h-5.82v-3.8h16.44Z" fill="#9fa934"/>
                <path id="Caminho_9916" data-name="Caminho 9916" d="M419.32,214.43a4.432,4.432,0,0,0,1.72-.32,3.47,3.47,0,0,0,1.28-.92,4,4,0,0,0,.8-1.45,6.46,6.46,0,0,0,.28-1.95V197.54h4.8v12.25a9.585,9.585,0,0,1-.62,3.49,7.8,7.8,0,0,1-1.77,2.74,8.014,8.014,0,0,1-2.8,1.79,10.079,10.079,0,0,1-3.7.64,10.188,10.188,0,0,1-3.72-.64,8.014,8.014,0,0,1-2.8-1.79,7.777,7.777,0,0,1-1.76-2.74,9.583,9.583,0,0,1-.61-3.49V197.54h4.8v12.23a6.161,6.161,0,0,0,.28,1.95,4.043,4.043,0,0,0,.8,1.46,3.47,3.47,0,0,0,1.28.92,4.432,4.432,0,0,0,1.72.32Z" fill="#9fa934"/>
                <path id="Caminho_9917" data-name="Caminho 9917" d="M459.33,218.22h-3.72a1.658,1.658,0,0,1-1.01-.29,1.811,1.811,0,0,1-.58-.75l-1.22-3.6h-7.86l-1.22,3.6a1.708,1.708,0,0,1-.56.72,1.576,1.576,0,0,1-1,.32h-3.75l8-20.68h4.91l8,20.68Zm-7.63-7.9-1.92-5.66c-.14-.36-.29-.78-.45-1.27s-.32-1.01-.48-1.58c-.14.58-.29,1.11-.45,1.6s-.31.92-.45,1.28l-1.9,5.63h5.66Z" fill="#9fa934"/>
                <path id="Caminho_9918" data-name="Caminho 9918" d="M482.79,214.39v3.83H470.33V197.54h4.8v16.85h7.66Z" fill="#9fa934"/>
                <path id="Caminho_9919" data-name="Caminho 9919" d="M499.42,218.22h-4.83V197.54h4.83Z" fill="#9fa934"/>
                <path id="Caminho_9920" data-name="Caminho 9920" d="M527.45,199.28a2.175,2.175,0,0,1-.12.72,2.784,2.784,0,0,1-.33.67l-9.71,13.87h9.85v3.69H511.19v-1.85a2.112,2.112,0,0,1,.11-.65,2.553,2.553,0,0,1,.31-.59l9.74-13.91h-9.37v-3.69h15.47v1.73Z" fill="#9fa934"/>
                <path id="Caminho_9921" data-name="Caminho 9921" d="M557.99,218.22h-3.72a1.658,1.658,0,0,1-1.01-.29,1.811,1.811,0,0,1-.58-.75l-1.22-3.6H543.6l-1.22,3.6a1.708,1.708,0,0,1-.56.72,1.576,1.576,0,0,1-1,.32h-3.75l8-20.68h4.91l8,20.68Zm-7.62-7.9-1.92-5.66c-.14-.36-.29-.78-.45-1.27s-.32-1.01-.48-1.58c-.14.58-.29,1.11-.45,1.6s-.31.92-.45,1.28l-1.9,5.63h5.66Z" fill="#9fa934"/>
                <path id="Caminho_9922" data-name="Caminho 9922" d="M584.82,215.16a7.688,7.688,0,0,1-2.69,2.25,9.984,9.984,0,0,1-3.71,1l-.14.53a5.439,5.439,0,0,1,1.13.4,2.69,2.69,0,0,1,.71.5,1.69,1.69,0,0,1,.38.6,2.2,2.2,0,0,1,.11.68,1.473,1.473,0,0,1-.28.89,2.341,2.341,0,0,1-.77.68,4.115,4.115,0,0,1-1.2.43,7.479,7.479,0,0,1-1.55.15,8.719,8.719,0,0,1-1.07-.06c-.33-.04-.67-.09-1.03-.17l.4-1.32a.442.442,0,0,1,.48-.38,1.84,1.84,0,0,1,.41.05,2.27,2.27,0,0,0,.5.05.776.776,0,0,0,.52-.13.392.392,0,0,0,.16-.28c0-.21-.14-.36-.43-.45a11.952,11.952,0,0,0-1.47-.3l.65-1.9a9.824,9.824,0,0,1-3.68-1.09,9.062,9.062,0,0,1-2.75-2.27,9.914,9.914,0,0,1-1.72-3.21,12.449,12.449,0,0,1-.6-3.93,11.678,11.678,0,0,1,.75-4.25,9.9,9.9,0,0,1,2.11-3.34,9.6,9.6,0,0,1,3.26-2.19,11.6,11.6,0,0,1,6.38-.57,10.77,10.77,0,0,1,1.92.57,8.917,8.917,0,0,1,1.65.87,8.155,8.155,0,0,1,1.33,1.11l-1.62,2.17a2.109,2.109,0,0,1-.37.36.953.953,0,0,1-.6.16,1.125,1.125,0,0,1-.48-.11c-.15-.08-.31-.17-.48-.28s-.36-.23-.56-.36a3.714,3.714,0,0,0-.72-.35,6.453,6.453,0,0,0-.98-.28,6.344,6.344,0,0,0-1.31-.11,5.374,5.374,0,0,0-2.18.44,4.637,4.637,0,0,0-1.7,1.28,5.856,5.856,0,0,0-1.11,2.07,9.241,9.241,0,0,0-.39,2.8,8.482,8.482,0,0,0,.43,2.82,6.179,6.179,0,0,0,1.18,2.08,5.038,5.038,0,0,0,1.74,1.28,5.239,5.239,0,0,0,2.13.44,10.875,10.875,0,0,0,1.19-.06,5.155,5.155,0,0,0,1.01-.21,3.9,3.9,0,0,0,.88-.4,7.064,7.064,0,0,0,.84-.63,1.762,1.762,0,0,1,.37-.23.978.978,0,0,1,.41-.09,1.016,1.016,0,0,1,.34.06,1.056,1.056,0,0,1,.33.22l1.9,2Z" fill="#9fa934"/>
                <path id="Caminho_9923" data-name="Caminho 9923" d="M614.83,218.22h-3.72a1.658,1.658,0,0,1-1.01-.29,1.811,1.811,0,0,1-.58-.75l-1.22-3.6h-7.86l-1.22,3.6a1.708,1.708,0,0,1-.56.72,1.576,1.576,0,0,1-1,.32h-3.75l8-20.68h4.91l8,20.68Zm-8.71-24.54a1.026,1.026,0,0,0,.52-.12,1.045,1.045,0,0,0,.35-.31,1.3,1.3,0,0,0,.2-.41,1.636,1.636,0,0,0,.06-.42h2.67a5.329,5.329,0,0,1-.21,1.5,3.926,3.926,0,0,1-.63,1.28,3.017,3.017,0,0,1-1.02.89,2.936,2.936,0,0,1-1.41.33,3.926,3.926,0,0,1-1.36-.21,5.365,5.365,0,0,1-.99-.48c-.29-.17-.55-.33-.79-.48a1.418,1.418,0,0,0-.72-.21.993.993,0,0,0-.53.13,1.047,1.047,0,0,0-.34.32,1.3,1.3,0,0,0-.18.42,2.224,2.224,0,0,0-.06.43h-2.7a5.329,5.329,0,0,1,.21-1.5,4.079,4.079,0,0,1,.63-1.29,3.283,3.283,0,0,1,1.02-.91,2.766,2.766,0,0,1,1.4-.34,3.926,3.926,0,0,1,1.36.21,5.07,5.07,0,0,1,.99.48c.28.18.54.33.78.48a1.418,1.418,0,0,0,.72.21Zm1.09,16.64-1.92-5.66c-.14-.36-.29-.78-.45-1.27s-.32-1.01-.48-1.58c-.14.58-.29,1.11-.45,1.6s-.31.92-.45,1.28l-1.9,5.63h5.66Z" fill="#9fa934"/>
                <path id="Caminho_9924" data-name="Caminho 9924" d="M645.45,207.88a11.166,11.166,0,0,1-.77,4.17,9.9,9.9,0,0,1-5.56,5.6,12.329,12.329,0,0,1-8.79,0,9.878,9.878,0,0,1-3.4-2.24,10.075,10.075,0,0,1-2.19-3.36,11.043,11.043,0,0,1-.77-4.17,11.2,11.2,0,0,1,.77-4.17,9.882,9.882,0,0,1,2.19-3.35,10,10,0,0,1,3.4-2.23,11.531,11.531,0,0,1,4.4-.81,11.3,11.3,0,0,1,4.39.82,9.921,9.921,0,0,1,5.56,5.59,10.992,10.992,0,0,1,.77,4.16Zm-4.91,0a8.8,8.8,0,0,0-.4-2.76,6.042,6.042,0,0,0-1.14-2.08,5,5,0,0,0-1.82-1.31,6.347,6.347,0,0,0-2.46-.45,6.486,6.486,0,0,0-2.48.45,4.922,4.922,0,0,0-1.83,1.31,5.728,5.728,0,0,0-1.14,2.08,9.1,9.1,0,0,0-.4,2.76,8.821,8.821,0,0,0,.4,2.77,6.135,6.135,0,0,0,1.14,2.08,4.9,4.9,0,0,0,1.83,1.3,6.415,6.415,0,0,0,2.48.45,6.312,6.312,0,0,0,2.46-.45,4.784,4.784,0,0,0,1.82-1.3,5.728,5.728,0,0,0,1.14-2.08A9.121,9.121,0,0,0,640.54,207.88Z" fill="#9fa934"/>
              </g>
              <g id="Grupo_7788" data-name="Grupo 7788" style="isolation: isolate">
                <path id="Caminho_9925" data-name="Caminho 9925" d="M359,236.64v4.95h6.67v3.64H359v5.05h8.71v3.79H354.05V232.85h13.66v3.79H359Z" fill="#95a36e"/>
                <path id="Caminho_9926" data-name="Caminho 9926" d="M398.96,232.85v21.22h-4.34V241.86c0-.28,0-.59.02-.92s.04-.67.08-1.01l-5.64,10.91a1.773,1.773,0,0,1-.71.77,2,2,0,0,1-1.01.26h-.67a1.971,1.971,0,0,1-1.01-.26,1.9,1.9,0,0,1-.71-.77l-5.64-10.94c.03.35.05.69.07,1.03s.03.64.03.93v12.21h-4.34V232.85h3.76c.21,0,.4,0,.56.01a1.427,1.427,0,0,1,.43.09.857.857,0,0,1,.34.23,1.992,1.992,0,0,1,.3.43l5.46,10.76c.19.37.38.75.56,1.15s.35.81.52,1.22c.17-.43.34-.84.52-1.25a12.738,12.738,0,0,1,.58-1.17l5.45-10.72a1.994,1.994,0,0,1,.3-.43,1.077,1.077,0,0,1,.34-.23,1.427,1.427,0,0,1,.43-.09c.16,0,.35-.01.56-.01h3.76Z" fill="#95a36e"/>
                <path id="Caminho_9927" data-name="Caminho 9927" d="M423.49,236.64v5.37h7.25v3.8h-7.25v8.26h-4.95V232.85H432.2v3.79h-8.71Z" fill="#95a36e"/>
                <path id="Caminho_9928" data-name="Caminho 9928" d="M444.36,254.07h-4.95V232.85h4.95Z" fill="#95a36e"/>
                <path id="Caminho_9929" data-name="Caminho 9929" d="M468.09,236.75h-5.97v17.32H457.2V236.75h-5.97v-3.9H468.1v3.9Z" fill="#95a36e"/>
                <path id="Caminho_9930" data-name="Caminho 9930" d="M495.28,243.45a11.39,11.39,0,0,1-.79,4.28,10.14,10.14,0,0,1-5.71,5.73,12.7,12.7,0,0,1-9.03,0,10.381,10.381,0,0,1-3.49-2.29,10.238,10.238,0,0,1-2.24-3.44,11.989,11.989,0,0,1,0-8.56,10.291,10.291,0,0,1,2.24-3.44,10.533,10.533,0,0,1,3.49-2.29,11.928,11.928,0,0,1,4.52-.83,11.689,11.689,0,0,1,4.51.84,10.445,10.445,0,0,1,3.47,2.29,10.291,10.291,0,0,1,2.24,3.44A11.338,11.338,0,0,1,495.28,243.45Zm-5.03,0a9.206,9.206,0,0,0-.41-2.83,5.923,5.923,0,0,0-1.17-2.13,5.057,5.057,0,0,0-1.87-1.34,6.469,6.469,0,0,0-2.52-.47,6.572,6.572,0,0,0-2.54.47,5.094,5.094,0,0,0-1.88,1.34,5.923,5.923,0,0,0-1.17,2.13,9.206,9.206,0,0,0-.41,2.83,9.338,9.338,0,0,0,.41,2.85,5.923,5.923,0,0,0,1.17,2.13,4.959,4.959,0,0,0,1.88,1.33,6.538,6.538,0,0,0,2.54.46,6.435,6.435,0,0,0,2.52-.46,5.034,5.034,0,0,0,1.87-1.33,5.923,5.923,0,0,0,1.17-2.13A9.291,9.291,0,0,0,490.25,243.45Z" fill="#95a36e"/>
                <path id="Caminho_9931" data-name="Caminho 9931" d="M517.29,236.75h-5.97v17.32H506.4V236.75h-5.97v-3.9H517.3v3.9Z" fill="#95a36e"/>
                <path id="Caminho_9932" data-name="Caminho 9932" d="M529.11,236.64v4.95h6.67v3.64h-6.67v5.05h8.71v3.79H524.16V232.85h13.66v3.79h-8.71Z" fill="#95a36e"/>
                <path id="Caminho_9933" data-name="Caminho 9933" d="M562.58,254.07h-4.46a1.893,1.893,0,0,1-1.78-.93l-3.52-6.16a1.926,1.926,0,0,0-.55-.58,1.736,1.736,0,0,0-.87-.18h-1.25v7.85h-4.92V232.85h6.9a14.437,14.437,0,0,1,3.93.47,7.476,7.476,0,0,1,2.65,1.32,4.989,4.989,0,0,1,1.49,2,6.636,6.636,0,0,1,.47,2.51,6.521,6.521,0,0,1-.28,1.95,5.939,5.939,0,0,1-.82,1.7,6.238,6.238,0,0,1-1.33,1.39,7.319,7.319,0,0,1-1.83,1.01,4.512,4.512,0,0,1,.9.62,4.676,4.676,0,0,1,.76.88l4.52,7.38Zm-10.46-11.24a5.059,5.059,0,0,0,1.71-.25,3.121,3.121,0,0,0,1.16-.71,2.715,2.715,0,0,0,.66-1.06,3.935,3.935,0,0,0,.2-1.3,2.711,2.711,0,0,0-.91-2.18,4.275,4.275,0,0,0-2.82-.79h-1.98v6.29Z" fill="#95a36e"/>
                <path id="Caminho_9934" data-name="Caminho 9934" d="M587.78,254.07h-3.82a1.638,1.638,0,0,1-1.03-.3,1.955,1.955,0,0,1-.6-.76l-1.25-3.7h-8.07l-1.25,3.7a1.816,1.816,0,0,1-.58.74,1.609,1.609,0,0,1-1.03.33H566.3l8.21-21.22h5.04l8.22,21.22Zm-7.83-8.11-1.97-5.81c-.15-.37-.3-.8-.47-1.3s-.33-1.04-.5-1.62c-.15.59-.3,1.14-.47,1.65s-.32.94-.47,1.31l-1.95,5.78h5.81Z" fill="#95a36e"/>
                <path id="Caminho_9935" data-name="Caminho 9935" d="M601.31,232.85a12.429,12.429,0,0,1,3.85.53,7.328,7.328,0,0,1,2.65,1.46,5.607,5.607,0,0,1,1.54,2.2,7.455,7.455,0,0,1,.5,2.74,8.011,8.011,0,0,1-.51,2.91,5.852,5.852,0,0,1-1.56,2.27,7.4,7.4,0,0,1-2.66,1.48,12.047,12.047,0,0,1-3.81.53h-2.56v7.09h-4.92V232.84h7.49Zm0,10.41a3.12,3.12,0,0,0,3.61-3.48,3.75,3.75,0,0,0-.22-1.33,2.848,2.848,0,0,0-.66-1.03,2.9,2.9,0,0,0-1.12-.66,4.845,4.845,0,0,0-1.61-.23h-2.56v6.73h2.56Z" fill="#95a36e"/>
                <path id="Caminho_9936" data-name="Caminho 9936" d="M621.67,254.07h-4.95V232.85h4.95Z" fill="#95a36e"/>
                <path id="Caminho_9937" data-name="Caminho 9937" d="M649.18,254.07h-3.82a1.638,1.638,0,0,1-1.03-.3,1.955,1.955,0,0,1-.6-.76l-1.25-3.7h-8.07l-1.25,3.7a1.816,1.816,0,0,1-.58.74,1.609,1.609,0,0,1-1.03.33H627.7l8.22-21.22h5.04l8.21,21.22Zm-7.82-8.11-1.97-5.81c-.14-.37-.3-.8-.47-1.3s-.33-1.04-.5-1.62c-.15.59-.3,1.14-.47,1.65s-.32.94-.47,1.31l-1.95,5.78h5.81Z" fill="#95a36e"/>
              </g>
            </g>
            <g id="Grupo_7790" data-name="Grupo 7790">
              <g id="Layer0_1_MEMBER_0_FILL-2" data-name="Layer0 1 MEMBER 0 FILL">
                <path id="Caminho_9938" data-name="Caminho 9938" d="M256.47,227.29h3.84l2.36-5.34,25.32,65.5h-9.45v3.97H314.9v-3.97h-8.08l-38.11-90.47L256.46,227.3Z" fill="#cda55f"/>
              </g>
              <g id="Layer0_1_MEMBER_1_FILL-2" data-name="Layer0 1 MEMBER 1 FILL">
                <path id="Caminho_9939" data-name="Caminho 9939" d="M235.16,293.73q20.685-2.31,32.48-18.71a54.86,54.86,0,0,0,7.72-34.84c-.36.07-.7.13-1.02.16l-39.18,53.39Z" fill="#9fa934"/>
                <path id="Caminho_9940" data-name="Caminho 9940" d="M244.11,257.33q-12.5,15.915-8.95,36.4l39.18-53.39A54.873,54.873,0,0,0,244.11,257.33Z" fill="#b9bf79"/>
              </g>
              <g id="Layer0_1_MEMBER_2_FILL-2" data-name="Layer0 1 MEMBER 2 FILL">
                <path id="Caminho_9941" data-name="Caminho 9941" d="M323.61,225.17h-4.14v4.65a10.667,10.667,0,0,1-10.5,9.22H294.33l2.01,4.78h12.62a10.6,10.6,0,0,1,10.5,9.21v4.65h4.14V225.19m-47.69-30.31v.4l2.36,5.67h34.56a15.5,15.5,0,0,1,15.5,15.5v4.51h6.18V194.88h-58.6Z" fill="#95a36e"/>
              </g>
            </g>
          </g>
          <rect id="Retângulo_712" data-name="Retângulo 712" width="347.62" height="35.3" rx="17.65" transform="translate(272.29 125.64)" fill="#edebd3" stroke="#94a26e" stroke-miterlimit="10" stroke-width="2"/>
          <rect id="Retângulo_713" data-name="Retângulo 713" width="436.86" height="44.37" rx="22.18" transform="translate(227.68 317.99)" fill="#94a26e"/>
        </g>
      </g>
    </g>
    <g id="Grupo_7795" data-name="Grupo 7795" transform="translate(288 446)">
      <path id="Caminho_9942" data-name="Caminho 9942" d="M183.378,18.572V16.034l-1.049,1.926H182l-1.053-1.926v2.538h-.561V15.01h.6l1.179,2.177,1.179-2.177h.6v3.562Z" fill="#2e2f28"/>
      <rect id="Retângulo_714" data-name="Retângulo 714" width="0.561" height="3.562" transform="translate(185.752 15.01)" fill="#2e2f28"/>
      <path id="Caminho_9943" data-name="Caminho 9943" d="M188.681,16.053v2.519h-.561V15.009h.461l2.018,2.575v-2.57h.566v3.558h-.492Z" fill="#2e2f28"/>
      <rect id="Retângulo_715" data-name="Retângulo 715" width="0.562" height="3.562" transform="translate(192.97 15.01)" fill="#2e2f28"/>
      <g id="Grupo_7794" data-name="Grupo 7794">
        <g id="Grupo_7793" data-name="Grupo 7793" clip-path="url(#clip-path)">
          <path id="Caminho_9944" data-name="Caminho 9944" d="M197.445,15.848a1.117,1.117,0,0,0-.392-.245,1.455,1.455,0,0,0-.571-.117.87.87,0,0,0-.521.128.426.426,0,0,0-.172.364.417.417,0,0,0,.019.132.436.436,0,0,0,.05.1.337.337,0,0,0,.092.087.972.972,0,0,0,.121.071,1.161,1.161,0,0,0,.165.063c.069.022.134.041.2.056l.237.06q.235.057.4.111a1.988,1.988,0,0,1,.321.14.92.92,0,0,1,.248.189.8.8,0,0,1,.148.254.97.97,0,0,1,.055.34,1.047,1.047,0,0,1-.068.385.823.823,0,0,1-.184.289,1.039,1.039,0,0,1-.285.2,1.442,1.442,0,0,1-.358.115,2.214,2.214,0,0,1-.411.036,2.54,2.54,0,0,1-.787-.124,2.278,2.278,0,0,1-.683-.356l.257-.483a1.562,1.562,0,0,0,.5.307,1.814,1.814,0,0,0,.718.148.942.942,0,0,0,.514-.117.38.38,0,0,0,.18-.338.442.442,0,0,0-.027-.159.325.325,0,0,0-.093-.129.887.887,0,0,0-.136-.1,1.049,1.049,0,0,0-.2-.086c-.086-.029-.164-.054-.236-.074s-.166-.045-.288-.075a3.776,3.776,0,0,1-.465-.15,1.385,1.385,0,0,1-.325-.186.652.652,0,0,1-.2-.261.907.907,0,0,1-.064-.357,1.063,1.063,0,0,1,.1-.464.93.93,0,0,1,.274-.342,1.279,1.279,0,0,1,.409-.206,1.775,1.775,0,0,1,.512-.07,1.977,1.977,0,0,1,1.2.4Z" fill="#2e2f28"/>
          <path id="Caminho_9945" data-name="Caminho 9945" d="M202.021,15.507h-1.184v3.065h-.568V15.507h-1.188v-.5h2.94Z" fill="#2e2f28"/>
          <path id="Caminho_9946" data-name="Caminho 9946" d="M205.943,18.075v.5H203.5V15.009h2.4v.5h-1.838v1.012h1.59v.468h-1.59v1.088Zm-1-3.433-.362-.11.286-.551h.526Z" fill="#2e2f28"/>
          <path id="Caminho_9947" data-name="Caminho 9947" d="M207.528,18.572V15.01h1.551a1.007,1.007,0,0,1,.442.1,1.065,1.065,0,0,1,.352.265,1.32,1.32,0,0,1,.225.372,1.118,1.118,0,0,1,.084.422,1.169,1.169,0,0,1-.192.655.931.931,0,0,1-.5.393l.838,1.355h-.633l-.774-1.24h-.828v1.24Zm.561-1.737h.985a.47.47,0,0,0,.385-.195.744.744,0,0,0,.151-.471.683.683,0,0,0-.171-.467.516.516,0,0,0-.4-.195h-.953Z" fill="#2e2f28"/>
          <rect id="Retângulo_716" data-name="Retângulo 716" width="0.561" height="3.562" transform="translate(211.846 15.009)" fill="#2e2f28"/>
          <path id="Caminho_9948" data-name="Caminho 9948" d="M213.989,16.79a1.838,1.838,0,0,1,.131-.682,1.873,1.873,0,0,1,.356-.577,1.716,1.716,0,0,1,.547-.4,1.6,1.6,0,0,1,.681-.149,1.561,1.561,0,0,1,.693.157,1.631,1.631,0,0,1,.541.412,2.021,2.021,0,0,1,.341.581,1.831,1.831,0,0,1,.125.66,1.811,1.811,0,0,1-.131.682,1.9,1.9,0,0,1-.354.575,1.654,1.654,0,0,1-.544.4,1.6,1.6,0,0,1-.681.148,1.631,1.631,0,0,1-.568-.1,1.577,1.577,0,0,1-.475-.273,1.924,1.924,0,0,1-.355-.4,1.838,1.838,0,0,1-.229-.494,1.9,1.9,0,0,1-.078-.538m1.71,1.3a1.044,1.044,0,0,0,.835-.41,1.421,1.421,0,0,0,.217-.416,1.477,1.477,0,0,0,0-.959,1.425,1.425,0,0,0-.226-.414,1.05,1.05,0,0,0-.358-.287,1.03,1.03,0,0,0-.464-.106,1.045,1.045,0,0,0-.479.111,1.071,1.071,0,0,0-.362.3,1.434,1.434,0,0,0-.22.415,1.461,1.461,0,0,0-.079.472,1.485,1.485,0,0,0,.137.633,1.181,1.181,0,0,0,.4.48,1.025,1.025,0,0,0,.6.186" fill="#2e2f28"/>
          <path id="Caminho_9949" data-name="Caminho 9949" d="M221.232,18.572V15.009H222.5a1.958,1.958,0,0,1,.753.139,1.441,1.441,0,0,1,.548.382,1.707,1.707,0,0,1,.325.564,2.092,2.092,0,0,1,.111.692,1.784,1.784,0,0,1-.474,1.3,1.678,1.678,0,0,1-1.263.489Zm1.264-3.065h-.7v2.568h.7a1.144,1.144,0,0,0,.633-.171,1.053,1.053,0,0,0,.4-.459,1.585,1.585,0,0,0,.132-.659,1.356,1.356,0,0,0-.31-.925,1.076,1.076,0,0,0-.854-.354" fill="#2e2f28"/>
          <path id="Caminho_9950" data-name="Caminho 9950" d="M226.727,15.01h.532l1.384,3.563h-.593l-.375-.968H226.3l-.373.968h-.6Zm.838,2.178-.573-1.56-.591,1.56Z" fill="#2e2f28"/>
          <path id="Caminho_9951" data-name="Caminho 9951" d="M210.449,23.216l-.059-.034c-.025-.015-.074-.041-.149-.079s-.149-.07-.221-.1a1.973,1.973,0,0,0-.251-.079,1.136,1.136,0,0,0-.264-.035c-.191,0-.286.059-.286.176a.185.185,0,0,0,.013.072.16.16,0,0,0,.048.058.642.642,0,0,0,.068.047.666.666,0,0,0,.1.044l.118.039.149.045.164.051a3.746,3.746,0,0,1,.367.13,1.917,1.917,0,0,1,.293.155.921.921,0,0,1,.227.2.834.834,0,0,1,.136.266,1.129,1.129,0,0,1,.051.352,1.2,1.2,0,0,1-.079.445.908.908,0,0,1-.207.325,1.082,1.082,0,0,1-.308.21,1.438,1.438,0,0,1-.365.117,2.2,2.2,0,0,1-.4.035,3.12,3.12,0,0,1-.806-.114,2.99,2.99,0,0,1-.743-.3l.421-.857c.017.011.039.026.068.042s.087.049.176.094.177.084.264.119a2.267,2.267,0,0,0,.307.094,1.382,1.382,0,0,0,.33.042c.189,0,.284-.052.284-.156a.162.162,0,0,0-.037-.105.331.331,0,0,0-.122-.083c-.057-.025-.113-.046-.166-.064s-.128-.04-.225-.068-.178-.053-.242-.075a1.688,1.688,0,0,1-.692-.388.86.86,0,0,1-.212-.611,1.225,1.225,0,0,1,.109-.52,1.035,1.035,0,0,1,.294-.379,1.365,1.365,0,0,1,.423-.226,1.613,1.613,0,0,1,.505-.079,3.057,3.057,0,0,1,1.335.386Z" fill="#2e2f28"/>
          <path id="Caminho_9952" data-name="Caminho 9952" d="M213.122,22.053h1.092l1.135,3.562h-.992l-.216-.7h-.951l-.21.7h-1Zm.862,2.212-.316-1.254-.331,1.254Z" fill="#2e2f28"/>
          <path id="Caminho_9953" data-name="Caminho 9953" d="M218.07,25.644a1.845,1.845,0,0,1-.6-.093,1.34,1.34,0,0,1-.456-.255,1.418,1.418,0,0,1-.31-.387,1.761,1.761,0,0,1-.181-.482,2.5,2.5,0,0,1-.057-.545v-1.83h.98v1.83a1.525,1.525,0,0,0,.036.341,1.008,1.008,0,0,0,.108.283.53.53,0,0,0,.2.2.609.609,0,0,0,.58,0,.531.531,0,0,0,.2-.2,1.086,1.086,0,0,0,.108-.284,1.489,1.489,0,0,0,.036-.335v-1.83h.977v1.83a2.318,2.318,0,0,1-.1.7,1.664,1.664,0,0,1-.29.556,1.271,1.271,0,0,1-.505.375,1.789,1.789,0,0,1-.716.135m.3-3.744-.6-.159.25-.713h.848Z" fill="#2e2f28"/>
          <path id="Caminho_9954" data-name="Caminho 9954" d="M221.244,25.615V22.053h1.37a2.086,2.086,0,0,1,.778.138,1.487,1.487,0,0,1,.566.382,1.715,1.715,0,0,1,.336.564,2.018,2.018,0,0,1,.116.692,1.748,1.748,0,0,1-.491,1.3,1.768,1.768,0,0,1-1.305.489Zm1.37-2.71h-.392v1.857h.392a.724.724,0,0,0,.59-.259,1.029,1.029,0,0,0,.213-.674,1,1,0,0,0-.215-.672.733.733,0,0,0-.588-.252" fill="#2e2f28"/>
          <path id="Caminho_9955" data-name="Caminho 9955" d="M228.378,24.762v.852H225.84V22.052h2.494v.853h-1.516v.5h1.3V24.2h-1.3v.563Z" fill="#2e2f28"/>
          <path id="Caminho_9956" data-name="Caminho 9956" d="M134.558,17.088,133,16.63a2.463,2.463,0,0,1,.779-4.8h3.07V12.92H134.7a.77.77,0,0,0-.78.779.726.726,0,0,0,.5.685l1.512.505a2.5,2.5,0,0,1,1.6,2.567,2.756,2.756,0,0,1-2.749,2.748h-3.253V18.968h2.8A.955.955,0,0,0,135.2,18a.935.935,0,0,0-.643-.917m-14.3,0L118.7,16.63a2.472,2.472,0,0,1,.826-4.8H122.6V12.92h-2.154a.771.771,0,0,0-.779.779.726.726,0,0,0,.5.685l1.512.505a2.525,2.525,0,0,1,1.558,2.567,2.719,2.719,0,0,1-2.7,2.748h-3.251V18.968h2.794a.953.953,0,0,0,.87-.963.977.977,0,0,0-.688-.917m7.1,3.391a3.156,3.156,0,0,1-3.348-2.978V11.872h2.522v5.857a1.393,1.393,0,0,0,1.467,1.329,1.423,1.423,0,0,0,1.467-1.329V11.872h1.19V17.5a3.139,3.139,0,0,1-3.3,2.978" fill="#2e2f28"/>
          <path id="Caminho_9957" data-name="Caminho 9957" d="M144.673,11.826c1.235.142,2.682.293,4.161.414l.166.014,8.149,8.149h9.65V11.826Z" fill="#2e2f28"/>
          <path id="Caminho_9958" data-name="Caminho 9958" d="M153.631,21.972c-1.488,0-3.17-.094-4.811-.227.331,3.809.825,7.234.825,7.234h8.577s-.5-3.444-.828-7.264a23.993,23.993,0,0,1-3.763.257" fill="#2e2f28"/>
          <path id="Caminho_9959" data-name="Caminho 9959" d="M148.8,12.693c-4-.329-7.728-.867-7.728-.867V20.4a105.827,105.827,0,0,0,12.563,1.115,23.462,23.462,0,0,0,3.733-.257Z" fill="#2e2f28"/>
          <rect id="Retângulo_717" data-name="Retângulo 717" width="8.577" height="8.123" transform="translate(149.645 3.249)" fill="#2e2f28"/>
          <path id="Caminho_9960" data-name="Caminho 9960" d="M157.6,20.856l.192.192.014.175.036.421c.114,1.328.25,2.615.378,3.729V20.856Z" fill="#2e2f28"/>
          <path id="Caminho_9961" data-name="Caminho 9961" d="M40.81,11.617H31.856a.307.307,0,0,0-.337.338v16.88a.307.307,0,0,0,.337.337h1.255a.307.307,0,0,0,.337-.337l.007-7.687H38.4a.308.308,0,0,0,.337-.338V19.777a.307.307,0,0,0-.337-.338l-4.952-.007.007-6.107H40.81a.308.308,0,0,0,.338-.337V11.955a.308.308,0,0,0-.338-.338" fill="#2e2f28"/>
          <path id="Caminho_9962" data-name="Caminho 9962" d="M43.528,11.618H42.274a.307.307,0,0,0-.338.338v16.88a.307.307,0,0,0,.338.337h1.254a.308.308,0,0,0,.338-.337V11.956a.308.308,0,0,0-.338-.338" fill="#2e2f28"/>
          <path id="Caminho_9963" data-name="Caminho 9963" d="M53.891,12.212a6.819,6.819,0,0,0-2.995-.638,6.156,6.156,0,0,0-2.841.638,4.5,4.5,0,0,0-1.808,1.808,5.465,5.465,0,0,0-.638,2.663v7.448a5.4,5.4,0,0,0,.638,2.651,4.507,4.507,0,0,0,1.808,1.8,6.144,6.144,0,0,0,2.841.639,6.805,6.805,0,0,0,2.995-.639,4.6,4.6,0,0,0,1.819-1.794,5.321,5.321,0,0,0,.652-2.652V16.683a5.389,5.389,0,0,0-.652-2.664,4.576,4.576,0,0,0-1.819-1.807m.541,4.422V24.2a3.306,3.306,0,0,1-.884,2.4,3.9,3.9,0,0,1-2.652.907,3.47,3.47,0,0,1-2.473-.907,3.3,3.3,0,0,1-.884-2.4V16.634a3.378,3.378,0,0,1,.884-2.433,3.443,3.443,0,0,1,2.473-.919,3.862,3.862,0,0,1,2.651.919,3.38,3.38,0,0,1,.885,2.433" fill="#2e2f28"/>
          <path id="Caminho_9964" data-name="Caminho 9964" d="M63.16,11.573a5.463,5.463,0,0,0-3.82,1.342,4.749,4.749,0,0,0-1.394,3.571v7.792a4.792,4.792,0,0,0,1.393,3.583,6.248,6.248,0,0,0,4.127,1.354,5.116,5.116,0,0,0,3.692-1.341,4.719,4.719,0,0,0,1.394-3.547v-.172a.306.306,0,0,0-.332-.338h0l-1.26-.073a.3.3,0,0,0-.337.313V24.4a3.032,3.032,0,0,1-.87,2.247,3.13,3.13,0,0,1-2.286.859,4.335,4.335,0,0,1-2.732-.847,3.039,3.039,0,0,1-.858-2.259V16.387a3.042,3.042,0,0,1,.858-2.259,3.493,3.493,0,0,1,2.426-.847,3.911,3.911,0,0,1,2.591.859,3.032,3.032,0,0,1,.871,2.247v.345a.3.3,0,0,0,.341.313L68.214,17a.308.308,0,0,0,.338-.338v-.221A4.679,4.679,0,0,0,67.158,12.9a5.94,5.94,0,0,0-4-1.329" fill="#2e2f28"/>
          <path id="Caminho_9965" data-name="Caminho 9965" d="M77.827,21.126v0a3.982,3.982,0,0,0,2.255-1.608,5.536,5.536,0,0,0,.828-3.058,5.494,5.494,0,0,0-.564-2.526,4.134,4.134,0,0,0-1.584-1.71,4.492,4.492,0,0,0-2.322-.6H70.611a.307.307,0,0,0-.338.338v16.88a.307.307,0,0,0,.338.337h1.254a.307.307,0,0,0,.338-.337l.006-7.535H76l.013.017,3.05,7.6a.36.36,0,0,0,.356.255h1.3a.273.273,0,0,0,.312-.288L81,28.751Zm1.152-4.669a3.7,3.7,0,0,1-.764,2.4,2.554,2.554,0,0,1-2,.855L72.2,19.709V13.333l.006-.007h4.008a2.557,2.557,0,0,1,2,.855,3.314,3.314,0,0,1,.764,2.276" fill="#2e2f28"/>
          <path id="Caminho_9966" data-name="Caminho 9966" d="M92.865,11.617H91.611a.307.307,0,0,0-.338.338V24.106a3.461,3.461,0,0,1-.885,2.471,3.96,3.96,0,0,1-5.1,0,3.458,3.458,0,0,1-.885-2.471V11.955a.307.307,0,0,0-.337-.338H82.812a.307.307,0,0,0-.337.338V24.008a5.648,5.648,0,0,0,.638,2.725,4.543,4.543,0,0,0,1.807,1.831,6.86,6.86,0,0,0,5.838,0,4.547,4.547,0,0,0,1.806-1.831,5.648,5.648,0,0,0,.639-2.725V11.955a.308.308,0,0,0-.338-.338" fill="#2e2f28"/>
          <path id="Caminho_9967" data-name="Caminho 9967" d="M103.707,13.111V11.955a.307.307,0,0,0-.338-.338H94.342a.308.308,0,0,0-.338.338v1.033a.307.307,0,0,0,.338.337h7.218L94.085,27.17a1.745,1.745,0,0,0-.081.509v1.156a.308.308,0,0,0,.338.338h9.027a.308.308,0,0,0,.338-.338V27.8a.307.307,0,0,0-.338-.338H96.151l7.476-14a1.026,1.026,0,0,0,.08-.352" fill="#2e2f28"/>
          <path id="Caminho_9968" data-name="Caminho 9968" d="M27.12,26.9a.391.391,0,0,0-.033-.063l-.012-.022c-.016-.022-.036-.045-.058-.07l-.53-.521V14.132l.437-.429V12.242a.588.588,0,0,0-.086-.386.491.491,0,0,0-.393-.2H25.7V6.971a.494.494,0,0,0-.223-.408l-.057-.036.036-.058A3.059,3.059,0,0,0,23.78,1.957l-.041-.013L23.508.549A.659.659,0,0,0,22.21.54l-.255,1.4-.041.012a3.1,3.1,0,0,0-2.142,2.922,3.065,3.065,0,0,0,.446,1.587l.034.057-.055.038a.485.485,0,0,0-.212.4v3.715h-1V8.289l.341-.325V6.752a.487.487,0,0,0-.487-.485h-1.4a.373.373,0,0,0-.294.1l-.282.325h-.436l.116-.369a.489.489,0,0,0-.1-.423.5.5,0,0,0-.4-.193H11.124a.513.513,0,0,0-.5.642l.057.343h-.45l-.247-.325a.38.38,0,0,0-.3-.1H8.282a.486.486,0,0,0-.487.487V7.964l.343.325v2.384h-1v-3.7a.482.482,0,0,0-.219-.406l-.058-.038.035-.058a3.066,3.066,0,0,0,.452-1.6A3.111,3.111,0,0,0,5.218,1.955l-.04-.012L4.944.548A.651.651,0,0,0,4.292,0a.636.636,0,0,0-.643.538l-.257,1.4-.041.012a3.1,3.1,0,0,0-2.14,2.922A3.047,3.047,0,0,0,1.657,6.46l.034.057-.055.038a.481.481,0,0,0-.211.4v4.708H.691a.486.486,0,0,0-.393.2.558.558,0,0,0-.089.37V13.7l.42.394V26.221l-.491.534A.473.473,0,0,0,0,27.092v1.653a.489.489,0,0,0,.488.489H6.756L7.8,28.173H19.329l1.046,1.061h6.3a.489.489,0,0,0,.487-.489v-1.5a1.621,1.621,0,0,0-.037-.345m-1.241.937H20.953l-1.062-1.061H7.171L6.109,27.834H1.391v-.413l.637-.648V13.883L1.612,13.5v-.65H2.823V7.632l.4-.411V6.2a1.646,1.646,0,0,1-.15-.139A1.192,1.192,0,0,1,2.811,5.7a1.669,1.669,0,1,1,2.812.2c-.015.022-.032.043-.048.064l-.015.018a1.04,1.04,0,0,1-.084.092,1.8,1.8,0,0,1-.135.126V7.221l.395.4v4.43H8.779l.75-.772V7.964h2.678V7.108h2.711v.867L17.6,7.964v3.248l.823.841h2.965V7.618l.4-.4V6.2a1.6,1.6,0,0,1-.174-.165,1.036,1.036,0,0,1-.23-.314,1.669,1.669,0,1,1,2.8.163c-.017.026-.036.051-.056.076l-.011.014a1.085,1.085,0,0,1-.08.086,1.5,1.5,0,0,1-.136.129V7.215l.4.379v5.247h1.232v.729l-.441.442v12.8l.789.792Z" fill="#2e2f28"/>
          <path id="Caminho_9969" data-name="Caminho 9969" d="M279.209,23.751l3.062,5.149H284.8V19.168h-5.593Zm7.821-6.045h-1.907V28.9h1.907a5.6,5.6,0,1,0,0-11.194m-3.962,1.141H284.8v-7.72h-1.733a3.86,3.86,0,0,0,0,7.72m-30.586-7.339V21.734h6.644ZM300.26,22.822H306.2v-11.7H300.26Zm-8.689-11.7h-6.448v6.259h6.448ZM306.516,28.9h5.935V23.144h-5.935Zm-6.257,0h5.935V23.144h-5.935Zm-7.311,0h5.935V11.127h-5.935Zm-13.739,0H281.9l-2.689-4.521ZM249.766,14.6a3.474,3.474,0,0,0-3.47-3.469h-1.288v6.939H246.3a3.474,3.474,0,0,0,3.47-3.47m-11.014,3.47h5.935V11.127h-5.935Zm0,10.834h5.935V18.387h-5.935ZM246.9,18.387h-1.9V28.9h1.9a5.257,5.257,0,0,0,0-10.513M262.3,26.613l-1.36,2.287h2.848Zm.184-.309,1.687,2.6h.489a6.762,6.762,0,0,1,13.519,0h.71V23.839l-7.47-12.559Zm2.243-9.874a5.309,5.309,0,0,0-5.3-5.3h-6.8l6.892,10.606a5.323,5.323,0,0,0,5.217-5.3m6.692,6.19a6.449,6.449,0,0,0-6.438,6.28h12.877a6.449,6.449,0,0,0-6.439-6.28m-12.083-.565h-6.853V28.9h8.084l1.538-2.587Z" fill="#2e2f28"/>
          <path id="Caminho_9970" data-name="Caminho 9970" d="M243.489,33.079a1.17,1.17,0,0,1,.886.374,1.374,1.374,0,0,1,0,1.839,1.165,1.165,0,0,1-.886.376h-1.017V33.079Zm0,2.182a.775.775,0,0,0,.6-.251.994.994,0,0,0,0-1.274.775.775,0,0,0-.6-.25H242.9v1.775Z" fill="#2e2f28"/>
          <path id="Caminho_9971" data-name="Caminho 9971" d="M247.762,35.325a1.357,1.357,0,1,1,.39-.952,1.293,1.293,0,0,1-.39.952m-1.6-.288a.938.938,0,0,0,1.305,0,.964.964,0,0,0,0-1.328.938.938,0,0,0-1.305,0,.967.967,0,0,0,0,1.328" fill="#2e2f28"/>
          <path id="Caminho_9972" data-name="Caminho 9972" d="M250.852,35.261h1.054v.407h-1.479V33.079h.425Z" fill="#2e2f28"/>
          <path id="Caminho_9973" data-name="Caminho 9973" d="M254.462,35.668l-.183-.522h-1.1l-.181.522h-.462l.939-2.589h.511l.935,2.589Zm-1.143-.921h.82l-.409-1.169Z" fill="#2e2f28"/>
          <path id="Caminho_9974" data-name="Caminho 9974" d="M256.7,33.079a1.17,1.17,0,0,1,.886.374,1.374,1.374,0,0,1,0,1.839,1.165,1.165,0,0,1-.886.376h-1.017V33.079Zm0,2.182a.775.775,0,0,0,.6-.251.994.994,0,0,0,0-1.274.775.775,0,0,0-.6-.25H256.1v1.775Z" fill="#2e2f28"/>
          <path id="Caminho_9975" data-name="Caminho 9975" d="M260.968,35.325a1.357,1.357,0,1,1,.39-.952,1.293,1.293,0,0,1-.39.952m-1.6-.288a.938.938,0,0,0,1.3,0,.964.964,0,0,0,0-1.328.938.938,0,0,0-1.3,0,.967.967,0,0,0,0,1.328" fill="#2e2f28"/>
          <path id="Caminho_9976" data-name="Caminho 9976" d="M264.65,33.079a1.17,1.17,0,0,1,.886.374,1.374,1.374,0,0,1,0,1.839,1.165,1.165,0,0,1-.886.376h-1.017V33.079Zm0,2.182a.776.776,0,0,0,.6-.251.994.994,0,0,0,0-1.274.775.775,0,0,0-.6-.25h-.592v1.775Z" fill="#2e2f28"/>
          <path id="Caminho_9977" data-name="Caminho 9977" d="M268.923,35.325a1.357,1.357,0,1,1,.39-.952,1.293,1.293,0,0,1-.39.952m-1.605-.288a.938.938,0,0,0,1.3,0,.964.964,0,0,0,0-1.328.938.938,0,0,0-1.3,0,.967.967,0,0,0,0,1.328" fill="#2e2f28"/>
          <path id="Caminho_9978" data-name="Caminho 9978" d="M272.542,33.079a.837.837,0,0,1,.612.244.868.868,0,0,1,0,1.211.831.831,0,0,1-.612.246h-.529v.888h-.425V33.079Zm0,1.3a.413.413,0,0,0,.311-.128.49.49,0,0,0,0-.647.412.412,0,0,0-.311-.127h-.529v.9Z" fill="#2e2f28"/>
          <path id="Caminho_9979" data-name="Caminho 9979" d="M276.393,35.325a1.357,1.357,0,1,1,.39-.952,1.293,1.293,0,0,1-.39.952m-1.605-.288a.938.938,0,0,0,1.3,0,.964.964,0,0,0,0-1.328.938.938,0,0,0-1.3,0,.967.967,0,0,0,0,1.328" fill="#2e2f28"/>
          <path id="Caminho_9980" data-name="Caminho 9980" d="M278.2,35.668l-.9-2.589h.466l.688,2.072.692-2.072h.462l-.9,2.589Z" fill="#2e2f28"/>
          <path id="Caminho_9981" data-name="Caminho 9981" d="M282.421,35.325a1.357,1.357,0,1,1,.39-.952,1.293,1.293,0,0,1-.39.952m-1.6-.288a.938.938,0,0,0,1.3,0,.964.964,0,0,0,0-1.328.938.938,0,0,0-1.3,0,.967.967,0,0,0,0,1.328" fill="#2e2f28"/>
          <path id="Caminho_9982" data-name="Caminho 9982" d="M286.609,34.326a.668.668,0,0,1,.266.244.661.661,0,0,1,.1.359.7.7,0,0,1-.226.529.778.778,0,0,1-.551.21h-1.109V33.08h1.028a.759.759,0,0,1,.538.2.675.675,0,0,1,.22.512.621.621,0,0,1-.263.529m-.495-.847h-.6v.681h.6a.316.316,0,0,0,.236-.1.353.353,0,0,0,0-.484.319.319,0,0,0-.236-.1m.081,1.79a.335.335,0,0,0,.25-.1.378.378,0,0,0,0-.514.332.332,0,0,0-.25-.106h-.684v.725Z" fill="#2e2f28"/>
          <path id="Caminho_9983" data-name="Caminho 9983" d="M289.3,35.668l-.547-.943h-.5v.943h-.425V33.08h1.035a.826.826,0,0,1,.832.832.777.777,0,0,1-.142.453.808.808,0,0,1-.372.3l.588,1.006Zm-1.05-2.189v.865h.61a.38.38,0,0,0,.289-.125.458.458,0,0,0,0-.614.381.381,0,0,0-.289-.126Z" fill="#2e2f28"/>
          <path id="Caminho_9984" data-name="Caminho 9984" d="M292.257,35.668l-.183-.522h-1.1l-.181.522h-.462l.939-2.589h.511l.935,2.589Zm-1.143-.921h.82l-.409-1.169Z" fill="#2e2f28"/>
          <path id="Caminho_9985" data-name="Caminho 9985" d="M294.268,35.716a1.139,1.139,0,0,1-.634-.17.894.894,0,0,1-.365-.466l.367-.215a.62.62,0,0,0,.643.437.585.585,0,0,0,.361-.094.3.3,0,0,0,.12-.245.268.268,0,0,0-.13-.242,2.042,2.042,0,0,0-.459-.183l-.3-.11a1.143,1.143,0,0,1-.244-.13.548.548,0,0,1-.19-.217.683.683,0,0,1-.063-.3.668.668,0,0,1,.244-.545.89.89,0,0,1,.588-.2.973.973,0,0,1,.543.152.985.985,0,0,1,.359.418l-.359.207a.557.557,0,0,0-.543-.363.467.467,0,0,0-.3.087.284.284,0,0,0-.111.235.261.261,0,0,0,.113.223,1.541,1.541,0,0,0,.411.172l.213.08.194.073a.669.669,0,0,1,.188.1,1.342,1.342,0,0,1,.134.131.447.447,0,0,1,.1.18.836.836,0,0,1,.029.228.679.679,0,0,1-.253.557,1.021,1.021,0,0,1-.664.2" fill="#2e2f28"/>
          <rect id="Retângulo_718" data-name="Retângulo 718" width="0.425" height="2.589" transform="translate(296.014 33.079)" fill="#2e2f28"/>
          <path id="Caminho_9986" data-name="Caminho 9986" d="M297.863,35.261h1.054v.407h-1.479V33.079h.425Z" fill="#2e2f28"/>
          <path id="Caminho_9987" data-name="Caminho 9987" d="M300.137,35.261h1.146v.407h-1.571V33.079h1.553v.407h-1.128v.673h1.035v.4h-1.035Z" fill="#2e2f28"/>
          <rect id="Retângulo_719" data-name="Retângulo 719" width="0.425" height="2.589" transform="translate(302.153 33.079)" fill="#2e2f28"/>
          <path id="Caminho_9988" data-name="Caminho 9988" d="M305.052,35.668l-.547-.943H304v.943h-.425V33.08h1.035a.826.826,0,0,1,.832.832.777.777,0,0,1-.142.453.808.808,0,0,1-.372.3l.588,1.006ZM304,33.479v.865h.61a.38.38,0,0,0,.289-.125.458.458,0,0,0,0-.614.381.381,0,0,0-.289-.126Z" fill="#2e2f28"/>
          <path id="Caminho_9989" data-name="Caminho 9989" d="M308.471,35.325a1.357,1.357,0,1,1,.39-.952,1.293,1.293,0,0,1-.39.952m-1.605-.288a.938.938,0,0,0,1.3,0,.964.964,0,0,0,0-1.328.938.938,0,0,0-1.3,0,.967.967,0,0,0,0,1.328" fill="#2e2f28"/>
          <path id="Caminho_9990" data-name="Caminho 9990" d="M258.267,5.27v.267a1.639,1.639,0,0,1-1.66,1.76,1.791,1.791,0,1,1,1.519-2.731l-.785.468a.833.833,0,0,0-.749-.428.857.857,0,0,0-.86.911.845.845,0,0,0,.875.885.669.669,0,0,0,.674-.4h-.921V5.27Z" fill="#2e2f28"/>
          <path id="Caminho_9991" data-name="Caminho 9991" d="M259.406,5.507A1.791,1.791,0,1,1,261.2,7.3a1.783,1.783,0,0,1-1.8-1.791m2.591,0a.8.8,0,1,0-1.605,0,.8.8,0,1,0,1.605,0" fill="#2e2f28"/>
          <path id="Caminho_9992" data-name="Caminho 9992" d="M267.312,3.8l-1.338,3.421h-.921L263.73,3.8h.991l.795,2.108.8-2.108Z" fill="#2e2f28"/>
          <path id="Caminho_9993" data-name="Caminho 9993" d="M269.312,4.632V5.14h1.006v.735h-1.006v.508h1.524v.835h-2.45V3.8h2.45v.835Z" fill="#2e2f28"/>
          <path id="Caminho_9994" data-name="Caminho 9994" d="M273.43,6.035h-.387V7.217h-.911V3.8h1.656a1.126,1.126,0,0,1,1.182,1.112,1.1,1.1,0,0,1-.6.991l.76,1.318h-1.022Zm-.387-.78h.644a.321.321,0,1,0,0-.639h-.644Z" fill="#2e2f28"/>
          <path id="Caminho_9995" data-name="Caminho 9995" d="M279.339,3.8V7.217h-.78l-1.378-1.8v1.8h-.911V3.8h.775L278.428,5.6V3.8Z" fill="#2e2f28"/>
          <path id="Caminho_9996" data-name="Caminho 9996" d="M280.539,5.507a1.791,1.791,0,1,1,1.8,1.791,1.783,1.783,0,0,1-1.8-1.791m2.591,0a.8.8,0,1,0-1.605,0,.8.8,0,1,0,1.605,0" fill="#2e2f28"/>
          <path id="Caminho_9997" data-name="Caminho 9997" d="M291.719,5.507a1.728,1.728,0,0,1-1.826,1.71H288.5V3.8h1.394a1.728,1.728,0,0,1,1.826,1.71m-.956,0a.823.823,0,0,0-.916-.82h-.417v1.64h.417a.823.823,0,0,0,.916-.82" fill="#2e2f28"/>
          <path id="Caminho_9998" data-name="Caminho 9998" d="M258.267,5.27v.267a1.639,1.639,0,0,1-1.66,1.76,1.791,1.791,0,1,1,1.519-2.731l-.785.468a.833.833,0,0,0-.749-.428.857.857,0,0,0-.86.911.845.845,0,0,0,.875.885.669.669,0,0,0,.674-.4h-.921V5.27Z" fill="#2e2f28"/>
          <path id="Caminho_9999" data-name="Caminho 9999" d="M259.406,5.507A1.791,1.791,0,1,1,261.2,7.3a1.783,1.783,0,0,1-1.8-1.791m2.591,0a.8.8,0,1,0-1.605,0,.8.8,0,1,0,1.605,0" fill="#2e2f28"/>
          <path id="Caminho_10000" data-name="Caminho 10000" d="M267.312,3.8l-1.338,3.421h-.921L263.73,3.8h.991l.795,2.108.8-2.108Z" fill="#2e2f28"/>
          <path id="Caminho_10001" data-name="Caminho 10001" d="M269.312,4.632V5.14h1.006v.735h-1.006v.508h1.524v.835h-2.45V3.8h2.45v.835Z" fill="#2e2f28"/>
          <path id="Caminho_10002" data-name="Caminho 10002" d="M273.43,6.035h-.387V7.217h-.911V3.8h1.656a1.126,1.126,0,0,1,1.182,1.112,1.1,1.1,0,0,1-.6.991l.76,1.318h-1.022Zm-.387-.78h.644a.321.321,0,1,0,0-.639h-.644Z" fill="#2e2f28"/>
          <path id="Caminho_10003" data-name="Caminho 10003" d="M279.339,3.8V7.217h-.78l-1.378-1.8v1.8h-.911V3.8h.775L278.428,5.6V3.8Z" fill="#2e2f28"/>
          <path id="Caminho_10004" data-name="Caminho 10004" d="M280.539,5.507a1.791,1.791,0,1,1,1.8,1.791,1.783,1.783,0,0,1-1.8-1.791m2.591,0a.8.8,0,1,0-1.605,0,.8.8,0,1,0,1.605,0" fill="#2e2f28"/>
          <path id="Caminho_10005" data-name="Caminho 10005" d="M292.556,5.507a1.791,1.791,0,1,1,1.8,1.791,1.783,1.783,0,0,1-1.8-1.791m2.591,0a.8.8,0,1,0-1.605,0,.8.8,0,1,0,1.605,0" fill="#2e2f28"/>
          <path id="Caminho_10006" data-name="Caminho 10006" d="M291.719,5.507a1.728,1.728,0,0,1-1.826,1.71H288.5V3.8h1.394a1.728,1.728,0,0,1,1.826,1.71m-.956,0a.823.823,0,0,0-.916-.82h-.417v1.64h.417a.823.823,0,0,0,.916-.82" fill="#2e2f28"/>
        </g>
      </g>
    </g>
  </g>
</svg>
