<?xml version="1.0" encoding="UTF-8"?>
<svg xmlns="http://www.w3.org/2000/svg" viewBox="0 0 150 150">
  <defs>
    <style>
      .cls-1 {
        fill: #fff;
      }

      .cls-2 {
        fill: #cda45e;
      }
    </style>
  </defs>
  <g id="Camada_3" data-name="Camada 3">
    <circle class="cls-2" cx="75" cy="75" r="62.5"/>
  </g>
  <g id="Camada_1" data-name="Camada 1">
    <g>
      <g>
        <ellipse class="cls-1" cx="77.79" cy="42.42" rx="1.03" ry="1.2"/>
        <ellipse class="cls-1" cx="72.21" cy="42.42" rx="1.03" ry="1.2"/>
      </g>
      <g>
        <path class="cls-1" d="M107.81,79.83h-4.43c-.47,0-.85-.38-.85-.85s.38-.85.85-.85h4.43c.47,0,.85.38.85.85s-.38.85-.85.85Z"/>
        <ellipse class="cls-1" cx="108.32" cy="73.74" rx="1.03" ry="1.2"/>
        <ellipse class="cls-1" cx="102.87" cy="73.74" rx="1.03" ry="1.2"/>
      </g>
      <g>
        <ellipse class="cls-1" cx="47.13" cy="74" rx="1.03" ry="1.2"/>
        <ellipse class="cls-1" cx="41.68" cy="74" rx="1.03" ry="1.2"/>
      </g>
      <g>
        <path class="cls-1" d="M105.6,66.32c-4.9,0-8.93,3.76-9.36,8.55h-2.2c-1.85-4.58-5.16-8.48-9.63-10.65v7.31c0,.47-.38.85-.85.85s-.85-.38-.85-.85v-11.36c0-2.36,1.92-4.27,4.27-4.27h1.07c.43,4.78,4.47,8.55,9.36,8.55,5.18,0,9.4-4.22,9.4-9.4s-4.22-9.4-9.4-9.4c-4.9,0-8.93,3.76-9.36,8.55h-1.07c-3.3,0-5.98,2.68-5.98,5.98v2.75c-1.1-.31-2.24-.55-3.42-.7v31.56c0,.47-.38.85-.85.85s-.85-.38-.85-.85v-40.01c4.78-.43,8.55-4.47,8.55-9.36,0-5.18-4.22-9.4-9.4-9.4s-9.4,4.22-9.4,9.4c0,4.9,3.76,8.93,8.55,9.36v40.01c0,.47-.38.85-.85.85s-.85-.38-.85-.85v-31.67c-1.16.11-2.31.32-3.42.63v-2.56c0-3.3-2.68-5.98-5.98-5.98h-1.07c-.43-4.78-4.47-8.55-9.36-8.55-5.18,0-9.4,4.22-9.4,9.4s4.22,9.4,9.4,9.4c4.9,0,8.93-3.76,9.36-8.55h1.07c2.36,0,4.27,1.92,4.27,4.27v11.62c0,.47-.38.85-.85.85s-.85-.38-.85-.85v-7.75c-4.47,2.22-7.78,6.19-9.51,10.84h-2.32c-.43-4.78-4.47-8.55-9.36-8.55-5.18,0-9.4,4.22-9.4,9.4s4.22,9.4,9.4,9.4c4.9,0,8.93-3.76,9.36-8.55h4.14c4.24,0,7.69,3.45,7.69,7.69v9.5c0,.47-.38.85-.85.85s-.85-.38-.85-.85v-9.5c0-3.3-2.68-5.98-5.98-5.98h-2.81c-1.17,5.65-.2,11.65,2.8,16.7l.08.14c1.63,2.7,2.48,5.78,2.47,8.9l-.06,10.97h26.92v-2.15c-3.57-.05-7.06-1.02-10.28-2.53-.43-.2-.61-.71-.41-1.14.2-.43.71-.61,1.14-.41,3.02,1.41,5.96,2.21,8.73,2.37,4.61.54,9.5-2.06,9.5-7.25v-5.15h1.64c2.05,0,3.15-2.47,2.17-4.14-.85-1.5-1.72-3.24-2.41-4.77v-.02c-.77-1.59-1.41-4.5-1.41-6.36v-.07c-.15-1.8-.43-3.5-.83-5.11h-3.05c-3.3,0-5.98,2.68-5.98,5.98v9.5c0,.47-.38.85-.85.85s-.85-.38-.85-.85v-9.5c0-4.24,3.45-7.69,7.69-7.69h4.14c.43,4.78,4.47,8.55,9.36,8.55,5.18,0,9.4-4.22,9.4-9.4s-4.22-9.4-9.4-9.4ZM97.39,47.34c4.24,0,7.69,3.45,7.69,7.69s-3.45,7.69-7.69,7.69-7.69-3.45-7.69-7.69,3.45-7.69,7.69-7.69ZM52.61,62.73c-4.24,0-7.69-3.45-7.69-7.69s3.45-7.69,7.69-7.69,7.69,3.45,7.69,7.69-3.45,7.69-7.69,7.69ZM44.4,83.41c-4.24,0-7.69-3.45-7.69-7.69s3.45-7.69,7.69-7.69,7.69,3.45,7.69,7.69-3.45,7.69-7.69,7.69ZM67.31,44.4c0-4.24,3.45-7.69,7.69-7.69s7.69,3.45,7.69,7.69-3.45,7.69-7.69,7.69-7.69-3.45-7.69-7.69ZM105.6,83.41c-4.24,0-7.69-3.45-7.69-7.69s3.45-7.69,7.69-7.69,7.69,3.45,7.69,7.69-3.45,7.69-7.69,7.69Z"/>
        <path class="cls-1" d="M78.77,48.24c.32-.34.31-.89-.04-1.21-.34-.32-.88-.31-1.21.04-1.35,1.44-3.69,1.44-5.04,0-.32-.34-.86-.36-1.21-.04-.34.32-.36.86-.04,1.21,2.01,2.14,5.52,2.14,7.54,0Z"/>
        <path class="cls-1" d="M44.4,77.37c-1.22,0-2.37.53-3.17,1.46-.3.35-.26.9.09,1.21.35.3.9.26,1.21-.09.97-1.13,2.77-1.13,3.74,0,.33.38.93.39,1.27.02.29-.31.3-.81.02-1.14-.79-.93-1.95-1.46-3.17-1.46Z"/>
        <path class="cls-1" d="M95.52,56.99c-.31-.36-.85-.4-1.21-.09-.36.31-.4.85-.09,1.21,1.64,1.91,4.7,1.91,6.34,0,.31-.36.27-.9-.09-1.21-.36-.31-.9-.27-1.21.09-.96,1.12-2.78,1.12-3.74,0Z"/>
        <path class="cls-1" d="M94.67,53.96c.94,0,1.71-.84,1.71-1.88,0-.49-.65-.7-.93-.29-.37.53-1.18.53-1.55,0-.28-.4-.93-.2-.93.29,0,1.04.77,1.88,1.71,1.88Z"/>
        <path class="cls-1" d="M52.61,56.69c-1.22,0-2.37.53-3.17,1.46-.3.35-.26.9.09,1.21s.9.26,1.21-.09c.97-1.13,2.77-1.13,3.74,0,.33.38.93.39,1.27.02.29-.31.3-.81.02-1.14-.79-.93-1.95-1.46-3.17-1.46Z"/>
        <path class="cls-1" d="M56.68,51.59c-.21-.07-.45.01-.57.2-.37.53-1.18.53-1.55,0-.28-.4-.93-.2-.93.29,0,1.04.77,1.88,1.71,1.88s1.71-.84,1.71-1.88c0-.22-.15-.42-.36-.49Z"/>
        <path class="cls-1" d="M51.59,52.07c0-.49-.65-.7-.93-.29-.37.53-1.18.53-1.55,0-.28-.4-.93-.2-.93.29,0,1.04.77,1.88,1.71,1.88s1.71-.84,1.71-1.88Z"/>
        <path class="cls-1" d="M100.12,53.95c.94,0,1.71-.84,1.71-1.88,0-.49-.65-.7-.93-.29-.37.53-1.18.53-1.55,0-.28-.4-.93-.2-.93.29,0,1.04.77,1.88,1.71,1.88Z"/>
      </g>
    </g>
  </g>
</svg>