<?xml version="1.0" encoding="UTF-8"?>
<svg id="Camada_1" xmlns="http://www.w3.org/2000/svg" version="1.1" viewBox="0 0 490 100">
  <!-- Generator: Adobe Illustrator 29.5.1, SVG Export Plug-In . SVG Version: 2.1.0 Build 141)  -->
  <defs>
    <style>
      .st0 {
        fill: none;
        stroke: #68714b;
        stroke-miterlimit: 10;
        stroke-width: .7px;
      }

      .st1 {
        fill: #fff;
      }

      .st2 {
        fill: #68714b;
      }

      .st3 {
        fill: #4d5732;
      }
    </style>
  </defs>
  <path class="st2" d="M2,5.4h173v30H2V5.4ZM175,5.4h310v30H175V5.4Z"/>
  <path class="st0" d="M2,5.4h173M175,5.4h310.4M175,35V5.7M485,35V5.7M175,65v-29.3M2,65.4h173M175,65.4h310M175,95v-29.3M2,35.4h173M175,35.4h310.4M2,95.4h173M175,95.4h310"/>
  <g>
    <path class="st1" d="M65.4,17.1v7.5h-1.6v-3.2h-3.3v3.2h-1.6v-7.5h1.6v3.2h3.3v-3.2h1.6Z"/>
    <path class="st1" d="M74.2,20.8c0,.5,0,1.1-.3,1.5-.2.5-.4.9-.8,1.2-.3.3-.7.6-1.2.8-.5.2-1,.3-1.6.3s-1.1,0-1.6-.3c-.5-.2-.9-.5-1.2-.8-.3-.3-.6-.7-.8-1.2-.2-.5-.3-1-.3-1.5s0-1.1.3-1.5c.2-.5.4-.9.8-1.2.3-.3.7-.6,1.2-.8.5-.2,1-.3,1.6-.3s1.1,0,1.6.3c.5.2.9.5,1.2.8s.6.7.8,1.2c.2.5.3,1,.3,1.5ZM72.6,20.8c0-.4,0-.7-.2-1.1-.1-.3-.3-.6-.4-.8s-.4-.4-.7-.5c-.3-.1-.6-.2-.9-.2s-.7,0-.9.2c-.3.1-.5.3-.7.5s-.3.5-.4.8c-.1.3-.2.7-.2,1.1s0,.7.2,1.1c.1.3.3.6.4.8.2.2.4.4.7.5.3.1.6.2.9.2s.7,0,.9-.2c.3-.1.5-.3.7-.5.2-.2.3-.5.4-.8.1-.3.2-.7.2-1.1Z"/>
    <path class="st1" d="M81.3,24.5h-1.4c-.3,0-.4,0-.6-.3l-1.4-2.3c0,0-.1-.2-.2-.2,0,0-.2,0-.3,0h-.5v2.8h-1.5v-7.5h2.3c.5,0,1,0,1.3.2s.7.3.9.5c.2.2.4.4.5.7.1.3.2.6.2.9s0,.5-.1.7c0,.2-.2.4-.3.6-.1.2-.3.3-.5.5s-.4.3-.7.3c0,0,.2.1.3.2,0,0,.2.2.2.3l1.7,2.7ZM77.7,20.6c.3,0,.5,0,.6,0s.3-.2.4-.3c.1-.1.2-.2.3-.4,0-.2,0-.3,0-.5,0-.4-.1-.6-.4-.8-.2-.2-.6-.3-1.1-.3h-.8v2.4h.8Z"/>
    <path class="st1" d="M90.2,17.1v7.5h-1.4v-4.6c0,0,0-.2,0-.3,0-.1,0-.2,0-.3l-2.1,4c-.1.2-.3.3-.5.3h-.2c-.1,0-.2,0-.3,0s-.2-.1-.2-.2l-2.1-4.1c0,.1,0,.2,0,.3s0,.2,0,.3v4.6h-1.4v-7.5h1.2c0,0,.1,0,.2,0,0,0,0,0,.1,0,0,0,0,0,.1,0,0,0,0,0,0,.1l2.1,4c0,.1.1.2.2.4,0,.1.1.3.2.4,0-.1.1-.3.2-.4s.1-.3.2-.4l2.1-4c0,0,0-.1,0-.1s0,0,.1,0c0,0,0,0,.1,0s.1,0,.2,0h1.2Z"/>
    <path class="st1" d="M99,20.8c0,.5,0,1.1-.3,1.5-.2.5-.4.9-.8,1.2-.3.3-.7.6-1.2.8-.5.2-1,.3-1.6.3s-1.1,0-1.6-.3c-.5-.2-.9-.5-1.2-.8-.3-.3-.6-.7-.8-1.2-.2-.5-.3-1-.3-1.5s0-1.1.3-1.5c.2-.5.4-.9.8-1.2.3-.3.7-.6,1.2-.8.5-.2,1-.3,1.6-.3s1.1,0,1.6.3c.5.2.9.5,1.2.8s.6.7.8,1.2c.2.5.3,1,.3,1.5ZM97.4,20.8c0-.4,0-.7-.2-1.1-.1-.3-.3-.6-.4-.8s-.4-.4-.7-.5c-.3-.1-.6-.2-.9-.2s-.7,0-.9.2c-.3.1-.5.3-.7.5s-.3.5-.4.8c-.1.3-.2.7-.2,1.1s0,.7.2,1.1c.1.3.3.6.4.8.2.2.4.4.7.5.3.1.6.2.9.2s.7,0,.9-.2c.3-.1.5-.3.7-.5.2-.2.3-.5.4-.8.1-.3.2-.7.2-1.1ZM97.1,16.5h-1c0,0-.1,0-.2,0,0,0-.2,0-.2-.2l-.4-.5s0,0,0,0c0,0,0,0,0,0,0,0,0,0,0,0,0,0,0,0,0,0l-.4.5c0,0-.2.2-.2.2,0,0-.1,0-.2,0h-1l1.2-1.4h1.3l1.2,1.4Z"/>
    <path class="st1" d="M106.5,17.1v7.5h-.8c-.1,0-.2,0-.3,0,0,0-.2-.1-.2-.2l-3.7-4.7c0,.1,0,.2,0,.4,0,.1,0,.2,0,.3v4.3h-1.4v-7.5h.8c0,0,.1,0,.2,0,0,0,0,0,.1,0,0,0,0,0,.1,0s0,0,.1.1l3.7,4.8c0-.1,0-.3,0-.4s0-.2,0-.3v-4.3h1.4Z"/>
    <path class="st1" d="M109.6,24.5h-1.6v-7.5h1.6v7.5Z"/>
    <path class="st1" d="M118.4,20.8c0,.5,0,1.1-.3,1.5-.2.5-.4.9-.8,1.2-.3.3-.7.6-1.2.8-.5.2-1,.3-1.6.3s-1.1,0-1.6-.3c-.5-.2-.9-.5-1.2-.8-.3-.3-.6-.7-.8-1.2-.2-.5-.3-1-.3-1.5s0-1.1.3-1.5c.2-.5.4-.9.8-1.2.3-.3.7-.6,1.2-.8.5-.2,1-.3,1.6-.3s1.1,0,1.6.3c.5.2.9.5,1.2.8s.6.7.8,1.2c.2.5.3,1,.3,1.5ZM116.8,20.8c0-.4,0-.7-.2-1.1-.1-.3-.3-.6-.4-.8s-.4-.4-.7-.5c-.3-.1-.6-.2-.9-.2s-.7,0-.9.2c-.3.1-.5.3-.7.5s-.3.5-.4.8c-.1.3-.2.7-.2,1.1s0,.7.2,1.1c.1.3.3.6.4.8.2.2.4.4.7.5.3.1.6.2.9.2s.7,0,.9-.2c.3-.1.5-.3.7-.5.2-.2.3-.5.4-.8.1-.3.2-.7.2-1.1Z"/>
  </g>
  <path class="st1" d="M310,24.5h-1.2c-.1,0-.2,0-.3,0s-.1-.1-.2-.2l-.5-1.4h-3l-.5,1.4c0,0,0,.2-.2.2s-.2.1-.3.1h-1.2l2.9-7.5h1.6l2.9,7.5ZM307.4,21.7l-.8-2.3c0-.1,0-.3-.2-.4,0-.2-.1-.3-.2-.5,0,.2,0,.4-.2.5,0,.2-.1.3-.2.4l-.8,2.3h2.2Z"/>
  <g>
    <path class="st1" d="M315.2,18.3h-2.2v6.2h-1.5v-6.2h-2.2v-1.2h5.9v1.2Z"/>
    <path class="st1" d="M317.7,24.5h-1.6v-7.5h1.6v7.5Z"/>
    <path class="st1" d="M325.8,17.1l-3,7.5h-1.4l-3-7.5h1.2c.1,0,.2,0,.3,0s.1.1.2.2l1.6,4.3c0,.2.1.3.2.5,0,.2.1.4.2.6,0-.2,0-.4.1-.6,0-.2.1-.4.2-.5l1.6-4.3c0,0,0-.2.2-.2s.2-.1.3-.1h1.2Z"/>
    <path class="st1" d="M328,24.5h-1.6v-7.5h1.6v7.5Z"/>
    <path class="st1" d="M336.3,20.8c0,.5,0,1-.3,1.5s-.4.9-.8,1.2c-.3.3-.7.6-1.2.8s-1,.3-1.6.3h-2.9v-7.5h2.9c.6,0,1.1,0,1.6.3s.9.4,1.2.8c.3.3.6.7.8,1.2s.3,1,.3,1.5ZM334.7,20.8c0-.4,0-.7-.2-1.1-.1-.3-.2-.6-.4-.8-.2-.2-.4-.4-.7-.5-.3-.1-.6-.2-.9-.2h-1.3v5h1.3c.3,0,.7,0,.9-.2s.5-.3.7-.5c.2-.2.3-.5.4-.8.1-.3.2-.7.2-1.1Z"/>
  </g>
  <g>
    <path class="st1" d="M343.7,24.5h-1.2c-.1,0-.2,0-.3,0s-.1-.1-.2-.2l-.5-1.4h-3l-.5,1.4c0,0,0,.2-.2.2s-.2.1-.3.1h-1.2l2.9-7.5h1.6l2.9,7.5ZM341.1,21.7l-.8-2.3c0-.1,0-.3-.2-.4,0-.2-.1-.3-.2-.5,0,.2,0,.4-.2.5,0,.2-.1.3-.2.4l-.8,2.3h2.2Z"/>
    <path class="st1" d="M351.1,20.8c0,.5,0,1-.3,1.5s-.4.9-.8,1.2c-.3.3-.7.6-1.2.8s-1,.3-1.6.3h-2.9v-7.5h2.9c.6,0,1.1,0,1.6.3s.9.4,1.2.8c.3.3.6.7.8,1.2s.3,1,.3,1.5ZM349.5,20.8c0-.4,0-.7-.2-1.1-.1-.3-.2-.6-.4-.8-.2-.2-.4-.4-.7-.5-.3-.1-.6-.2-.9-.2h-1.3v5h1.3c.3,0,.7,0,.9-.2s.5-.3.7-.5c.2-.2.3-.5.4-.8.1-.3.2-.7.2-1.1Z"/>
    <path class="st1" d="M353.8,18.3v1.9h2.5v1.2h-2.5v2h3.2v1.2h-4.8v-7.5h4.8v1.2h-3.2Z"/>
  </g>
  <g>
    <path class="st3" d="M6.9,54.5h-1v-7.4h1v7.4Z"/>
    <path class="st3" d="M9.4,50.1c.1-.1.2-.2.4-.3.1-.1.3-.2.4-.3.1,0,.3-.1.5-.2.2,0,.3,0,.5,0,.3,0,.5,0,.8.1.2,0,.4.2.5.4.1.2.3.4.3.6,0,.2.1.5.1.8v3.3h-.9v-3.3c0-.4,0-.7-.3-.9-.2-.2-.5-.3-.8-.3s-.5,0-.8.2-.5.3-.7.5v3.8h-.9v-5.2h.6c.1,0,.2,0,.2.2v.6Z"/>
    <path class="st3" d="M17.3,50.2c0,0-.1.1-.2.1s-.1,0-.2,0c0,0-.1,0-.2-.1,0,0-.2,0-.3-.1-.1,0-.3,0-.5,0s-.3,0-.4,0c-.1,0-.2,0-.3.2,0,0-.2.1-.2.2,0,0,0,.2,0,.3s0,.2.1.3c0,0,.2.2.3.2.1,0,.3.1.4.2s.3.1.5.2c.2,0,.3.1.5.2s.3.2.4.3.2.2.3.4c0,.1.1.3.1.5s0,.5-.1.7c0,.2-.2.4-.4.5-.2.1-.4.3-.6.4-.2,0-.5.1-.8.1s-.7,0-1-.2c-.3-.1-.5-.3-.8-.5l.2-.3s0,0,0-.1c0,0,0,0,.1,0s.1,0,.2,0c0,0,.2.1.2.2,0,0,.2.1.4.2.1,0,.3,0,.5,0s.3,0,.5,0,.2-.1.3-.2c0,0,.2-.2.2-.3,0-.1,0-.2,0-.3s0-.3-.1-.4-.2-.2-.3-.2c-.1,0-.3-.1-.4-.2s-.3-.1-.5-.2-.3-.1-.5-.2c-.2,0-.3-.2-.4-.3-.1-.1-.2-.2-.3-.4s-.1-.3-.1-.6,0-.4.1-.6c0-.2.2-.3.4-.5.2-.1.4-.2.6-.3.2,0,.5-.1.8-.1s.7,0,.9.2c.3.1.5.3.7.4l-.2.3Z"/>
    <path class="st3" d="M23,49.3v5.2h-.5c-.1,0-.2,0-.2-.2v-.6c-.3.2-.6.5-.8.6s-.6.2-1,.2-.5,0-.8-.1c-.2,0-.4-.2-.5-.4-.1-.2-.3-.4-.3-.6,0-.2-.1-.5-.1-.8v-3.3h.9v3.3c0,.4,0,.7.3.9.2.2.5.3.8.3s.5,0,.8-.2c.2-.1.5-.3.7-.5v-3.8h.9Z"/>
    <path class="st3" d="M25.4,46.9v7.6h-.9v-7.6h.9Z"/>
    <path class="st3" d="M28.1,47.7c0,0,0,.2,0,.2,0,0,0,.1-.1.2s-.1.1-.2.1c0,0-.2,0-.3,0s-.2,0-.2,0c0,0-.1,0-.2-.1,0,0-.1-.1-.1-.2s0-.2,0-.2,0-.2,0-.3,0-.2.1-.2c0,0,.1-.1.2-.1s.2,0,.2,0,.2,0,.3,0,.2,0,.2.1.1.1.1.2c0,0,0,.2,0,.3ZM27.9,49.3v5.2h-.9v-5.2h.9Z"/>
    <path class="st3" d="M30.2,50.1c.1-.1.2-.2.4-.3.1-.1.3-.2.4-.3.1,0,.3-.1.5-.2.2,0,.3,0,.5,0,.3,0,.5,0,.8.1.2,0,.4.2.5.4.1.2.3.4.3.6,0,.2.1.5.1.8v3.3h-.9v-3.3c0-.4,0-.7-.3-.9-.2-.2-.5-.3-.8-.3s-.5,0-.8.2-.5.3-.7.5v3.8h-.9v-5.2h.6c.1,0,.2,0,.2.2v.6Z"/>
    <path class="st3" d="M35,50c.3-.3.6-.5.9-.6.3-.1.7-.2,1.1-.2s.6,0,.8.1c.2,0,.4.2.6.4.2.2.3.4.4.6,0,.2.1.5.1.8v3.3h-.4c0,0-.2,0-.2,0,0,0,0,0-.1-.2v-.5c-.2.1-.4.2-.5.3-.1,0-.3.2-.4.2s-.3.1-.5.2c-.2,0-.3,0-.5,0s-.4,0-.6,0c-.2,0-.3-.1-.5-.3-.1-.1-.2-.3-.3-.4,0-.2-.1-.4-.1-.6s0-.4.2-.6c.1-.2.3-.4.6-.5.3-.1.6-.3,1-.4.4,0,.9-.1,1.5-.2v-.4c0-.4,0-.7-.3-.9-.2-.2-.4-.3-.8-.3s-.4,0-.6,0c-.2,0-.3.1-.4.2-.1,0-.2.1-.3.2s-.2,0-.2,0-.1,0-.2,0c0,0,0,0-.1-.1l-.2-.3ZM37.9,52.2c-.4,0-.8,0-1.1,0-.3,0-.5.1-.7.2s-.3.2-.4.3c0,.1-.1.2-.1.4s0,.3,0,.4c0,0,.1.2.2.2,0,0,.2.1.3.1s.2,0,.3,0,.3,0,.4,0c.1,0,.3,0,.4-.1s.2-.1.3-.2c.1,0,.2-.2.3-.3v-1.1Z"/>
  </g>
  <path class="st3" d="M184.3,48.3h-.9c-.2,0-.3,0-.4-.2l-1.9-2.6c0,0-.1-.1-.2-.2,0,0-.2,0-.3,0h-.8v3.1h-1v-7.4h2.1c.5,0,.9,0,1.2.1.3,0,.6.2.8.4s.4.4.5.6c.1.3.2.5.2.8s0,.5-.1.7c0,.2-.2.4-.4.6-.2.2-.3.3-.6.5s-.5.2-.8.3c.1,0,.2.2.3.3l2.2,2.9ZM180.9,44.5c.3,0,.5,0,.8-.1s.4-.2.6-.3c.1-.1.3-.3.3-.5,0-.2.1-.4.1-.6,0-.4-.1-.8-.4-1-.3-.2-.7-.3-1.3-.3h-1.1v2.8h1Z"/>
  <g>
    <path class="st3" d="M189,47.6c-.1.1-.2.3-.4.4-.2.1-.3.2-.5.2-.2,0-.4.1-.6.1-.2,0-.4,0-.6,0-.4,0-.7,0-1-.2-.3-.1-.6-.3-.8-.5s-.4-.5-.5-.9c-.1-.3-.2-.7-.2-1.2s0-.7.2-1c.1-.3.3-.6.5-.8.2-.2.5-.4.8-.5.3-.1.6-.2,1-.2s.6,0,.9.2.5.3.7.5.3.4.5.7c.1.3.2.6.2,1s0,.2,0,.3c0,0,0,0-.2,0h-3.5c0,.3,0,.6.1.9s.2.4.3.6c.1.2.3.3.5.4s.4.1.7.1.4,0,.6,0,.3-.1.4-.2.2-.1.3-.2.1,0,.2,0,.1,0,.2,0l.3.3ZM188.3,45.2c0-.2,0-.4,0-.6s-.1-.3-.3-.5-.3-.2-.4-.3-.4-.1-.6-.1c-.4,0-.8.1-1,.4s-.4.6-.5,1.1h2.9Z"/>
    <path class="st3" d="M194.5,40.7v7.6h-.5c-.1,0-.2,0-.2-.2v-.6c-.3.3-.6.5-.8.6s-.6.2-1,.2-.6,0-.8-.2c-.2-.1-.5-.3-.6-.5-.2-.2-.3-.5-.4-.8,0-.3-.1-.7-.1-1.1s0-.7.2-1.1c.1-.3.3-.6.4-.9.2-.2.4-.4.7-.6.3-.1.6-.2.9-.2s.6,0,.8.2c.2.1.4.3.6.5v-2.9h.9ZM193.6,44.4c-.2-.2-.4-.4-.6-.5s-.4-.1-.7-.1c-.5,0-.9.2-1.1.5-.3.3-.4.8-.4,1.5s0,.6,0,.9.1.4.3.6c.1.2.3.3.4.3.2,0,.4.1.6.1.3,0,.6,0,.8-.2s.4-.3.6-.6v-2.5Z"/>
    <path class="st3" d="M200.3,43.1v5.2h-.5c-.1,0-.2,0-.2-.2v-.6c-.3.2-.6.5-.8.6-.3.2-.6.2-1,.2s-.5,0-.8-.1-.4-.2-.5-.4c-.1-.2-.3-.4-.3-.6,0-.2-.1-.5-.1-.8v-3.3h.9v3.3c0,.4,0,.7.3.9.2.2.5.3.8.3s.5,0,.8-.2c.2-.1.5-.3.7-.5v-3.8h.9Z"/>
    <path class="st3" d="M205.3,43.5c0,0,0,.1,0,.2,0,0,0,.1,0,.2l-2.8,3.8h2.8v.7h-3.9v-.4s0,0,0-.2,0-.1,0-.2l2.8-3.8h-2.8v-.7h3.9v.4Z"/>
    <path class="st3" d="M208.9,43.9c.3-.3.6-.5.9-.6.3-.1.7-.2,1.1-.2s.6,0,.8.1c.2,0,.4.2.6.4.2.2.3.4.3.6,0,.2.1.5.1.8v3.3h-.4c0,0-.2,0-.2,0,0,0,0,0-.1-.2v-.5c-.2.1-.4.2-.5.3-.1,0-.3.2-.4.2-.1,0-.3.1-.5.2s-.3,0-.5,0-.4,0-.6,0-.3-.1-.5-.3c-.1-.1-.2-.3-.3-.4,0-.2-.1-.4-.1-.6s0-.4.2-.6.3-.4.6-.5.6-.3,1-.4c.4,0,.9-.1,1.5-.2v-.4c0-.4,0-.7-.3-.9-.2-.2-.4-.3-.8-.3s-.4,0-.6,0c-.2,0-.3.1-.4.2-.1,0-.2.1-.3.2,0,0-.2,0-.2,0s-.1,0-.2,0c0,0,0,0-.1-.1l-.2-.3ZM211.8,46c-.4,0-.8,0-1.1.1-.3,0-.5.1-.7.2-.2,0-.3.2-.4.3s-.1.2-.1.4,0,.3,0,.4c0,0,.1.2.2.2,0,0,.2.1.3.1s.2,0,.3,0,.3,0,.4,0c.1,0,.3,0,.4-.1.1,0,.2-.1.3-.2.1,0,.2-.2.3-.3v-1.1Z"/>
    <path class="st3" d="M221.1,43.1v7h-.9v-2.5c-.2.3-.5.5-.7.6-.3.2-.6.2-1,.2s-.6,0-.8-.2c-.2-.1-.5-.3-.6-.5-.2-.2-.3-.5-.4-.8,0-.3-.1-.7-.1-1.1s0-.7.2-1.1c.1-.3.2-.6.4-.9s.4-.4.7-.6c.3-.1.6-.2.9-.2s.6,0,.9.2c.2.1.4.3.6.5v-.4c0-.1.2-.2.3-.2h.5ZM220.1,44.4c-.2-.2-.3-.4-.6-.5-.2,0-.4-.1-.7-.1-.5,0-.9.2-1.1.5-.3.3-.4.8-.4,1.5s0,.6,0,.9.1.4.3.6c.1.2.3.3.4.3.2,0,.4.1.6.1.3,0,.6,0,.8-.2s.4-.3.6-.6v-2.5Z"/>
    <path class="st3" d="M226.8,43.1v5.2h-.5c-.1,0-.2,0-.2-.2v-.6c-.3.2-.6.5-.8.6-.3.2-.6.2-1,.2s-.5,0-.8-.1-.4-.2-.5-.4c-.1-.2-.3-.4-.3-.6,0-.2-.1-.5-.1-.8v-3.3h.9v3.3c0,.4,0,.7.3.9.2.2.5.3.8.3s.5,0,.8-.2c.2-.1.5-.3.7-.5v-3.8h.9Z"/>
    <path class="st3" d="M228.1,43.9c.3-.3.6-.5.9-.6.3-.1.7-.2,1.1-.2s.6,0,.8.1c.2,0,.4.2.6.4.2.2.3.4.3.6,0,.2.1.5.1.8v3.3h-.4c0,0-.2,0-.2,0,0,0,0,0-.1-.2v-.5c-.2.1-.4.2-.5.3-.1,0-.3.2-.4.2-.1,0-.3.1-.5.2s-.3,0-.5,0-.4,0-.6,0-.3-.1-.5-.3c-.1-.1-.2-.3-.3-.4,0-.2-.1-.4-.1-.6s0-.4.2-.6.3-.4.6-.5.6-.3,1-.4c.4,0,.9-.1,1.5-.2v-.4c0-.4,0-.7-.3-.9-.2-.2-.4-.3-.8-.3s-.4,0-.6,0c-.2,0-.3.1-.4.2-.1,0-.2.1-.3.2,0,0-.2,0-.2,0s-.1,0-.2,0c0,0,0,0-.1-.1l-.2-.3ZM231.1,46c-.4,0-.8,0-1.1.1-.3,0-.5.1-.7.2-.2,0-.3.2-.4.3s-.1.2-.1.4,0,.3,0,.4c0,0,.1.2.2.2,0,0,.2.1.3.1s.2,0,.3,0,.3,0,.4,0c.1,0,.3,0,.4-.1.1,0,.2-.1.3-.2.1,0,.2-.2.3-.3v-1.1Z"/>
    <path class="st3" d="M234.2,43.9c.1-.1.2-.2.4-.3s.3-.2.4-.3c.1,0,.3-.1.5-.2.2,0,.3,0,.5,0,.3,0,.5,0,.8.1.2,0,.4.2.5.4.1.2.3.4.3.6,0,.2.1.5.1.8v3.3h-.9v-3.3c0-.4,0-.7-.3-.9-.2-.2-.5-.3-.8-.3s-.5,0-.8.2c-.2.1-.5.3-.7.5v3.8h-.9v-5.2h.6c.1,0,.2,0,.2.2v.6Z"/>
  </g>
  <path class="st3" d="M243.9,43.2h-3.6v-1.8h-.5c0,0-.1,0-.1,0,0,0,0,0,0,.1l-.2,1.6h-.9v.5c0,0,0,.1,0,.2s0,0,.1,0h.6v3.2c0,.4.1.8.3,1,.2.2.5.3.9.3s.5,0,.7-.1.4-.2.6-.3l-.3-.4c0,0,0,0-.1,0s0,0,0,0c0,0,0,0-.1,0s-.1,0-.2,0c0,0-.2,0-.2,0-.2,0-.3,0-.4-.2-.1-.1-.2-.3-.2-.5v-3.1h2.7v4.4h.9v-5.1ZM244,41.2c0,0,0-.1-.1-.2s-.1-.1-.2-.1-.2,0-.2,0-.2,0-.3,0c0,0-.1,0-.2.1,0,0-.1.1-.1.2s0,.2,0,.3,0,.2,0,.2c0,0,0,.1.1.2,0,0,.1.1.2.1,0,0,.2,0,.3,0s.2,0,.2,0c0,0,.1,0,.2-.1s.1-.1.1-.2c0,0,0-.2,0-.2s0-.2,0-.3h0Z"/>
  <g>
    <path class="st3" d="M249.7,40.7v7.6h-.5c-.1,0-.2,0-.2-.2v-.6c-.3.3-.6.5-.8.6-.3.2-.6.2-1,.2s-.6,0-.8-.2c-.2-.1-.5-.3-.6-.5-.2-.2-.3-.5-.4-.8,0-.3-.1-.7-.1-1.1s0-.7.2-1.1c.1-.3.2-.6.4-.9s.4-.4.7-.6c.3-.1.6-.2.9-.2s.6,0,.8.2c.2.1.4.3.6.5v-2.9h.9ZM248.8,44.4c-.2-.2-.4-.4-.6-.5s-.4-.1-.7-.1c-.5,0-.9.2-1.1.5-.3.3-.4.8-.4,1.5s0,.6,0,.9.1.4.3.6c.1.2.3.3.4.3.2,0,.4.1.6.1.3,0,.6,0,.8-.2s.4-.3.6-.6v-2.5Z"/>
    <path class="st3" d="M251,43.9c.3-.3.6-.5.9-.6.3-.1.7-.2,1.1-.2s.6,0,.8.1c.2,0,.4.2.6.4.2.2.3.4.3.6,0,.2.1.5.1.8v3.3h-.4c0,0-.2,0-.2,0,0,0,0,0-.1-.2v-.5c-.2.1-.4.2-.5.3-.1,0-.3.2-.4.2-.1,0-.3.1-.5.2s-.3,0-.5,0-.4,0-.6,0-.3-.1-.5-.3c-.1-.1-.2-.3-.3-.4,0-.2-.1-.4-.1-.6s0-.4.2-.6.3-.4.6-.5.6-.3,1-.4c.4,0,.9-.1,1.5-.2v-.4c0-.4,0-.7-.3-.9-.2-.2-.4-.3-.8-.3s-.4,0-.6,0c-.2,0-.3.1-.4.2-.1,0-.2.1-.3.2,0,0-.2,0-.2,0s-.1,0-.2,0c0,0,0,0-.1-.1l-.2-.3ZM253.9,46c-.4,0-.8,0-1.1.1-.3,0-.5.1-.7.2-.2,0-.3.2-.4.3s-.1.2-.1.4,0,.3,0,.4c0,0,.1.2.2.2,0,0,.2.1.3.1s.2,0,.3,0,.3,0,.4,0c.1,0,.3,0,.4-.1.1,0,.2-.1.3-.2.1,0,.2-.2.3-.3v-1.1Z"/>
    <path class="st3" d="M260.5,40.7v7.6h-.5c-.1,0-.2,0-.2-.2v-.6c-.3.3-.6.5-.8.6-.3.2-.6.2-1,.2s-.6,0-.8-.2c-.2-.1-.5-.3-.6-.5-.2-.2-.3-.5-.4-.8,0-.3-.1-.7-.1-1.1s0-.7.2-1.1c.1-.3.2-.6.4-.9s.4-.4.7-.6c.3-.1.6-.2.9-.2s.6,0,.8.2c.2.1.4.3.6.5v-2.9h.9ZM259.6,44.4c-.2-.2-.4-.4-.6-.5s-.4-.1-.7-.1c-.5,0-.9.2-1.1.5-.3.3-.4.8-.4,1.5s0,.6,0,.9.1.4.3.6c.1.2.3.3.4.3.2,0,.4.1.6.1.3,0,.6,0,.8-.2s.4-.3.6-.6v-2.5Z"/>
    <path class="st3" d="M266.2,47.6c-.1.1-.2.3-.4.4-.2.1-.3.2-.5.2-.2,0-.4.1-.6.1-.2,0-.4,0-.6,0-.4,0-.7,0-1-.2-.3-.1-.6-.3-.8-.5-.2-.2-.4-.5-.5-.9-.1-.3-.2-.7-.2-1.2s0-.7.2-1c.1-.3.3-.6.5-.8s.5-.4.8-.5c.3-.1.6-.2,1-.2s.6,0,.9.2.5.3.7.5.3.4.5.7c.1.3.2.6.2,1s0,.2,0,.3c0,0,0,0-.2,0h-3.5c0,.3,0,.6.1.9,0,.2.2.4.3.6.1.2.3.3.5.4s.4.1.7.1.4,0,.6,0c.2,0,.3-.1.4-.2s.2-.1.3-.2c0,0,.1,0,.2,0s.1,0,.2,0l.3.3ZM265.5,45.2c0-.2,0-.4,0-.6,0-.2-.1-.3-.3-.5s-.3-.2-.4-.3c-.2,0-.4-.1-.6-.1-.4,0-.8.1-1,.4-.3.3-.4.6-.5,1.1h2.9Z"/>
    <path class="st3" d="M274.4,40.7v7.6h-.5c-.1,0-.2,0-.2-.2v-.6c-.3.3-.6.5-.8.6-.3.2-.6.2-1,.2s-.6,0-.8-.2c-.2-.1-.5-.3-.6-.5-.2-.2-.3-.5-.4-.8,0-.3-.1-.7-.1-1.1s0-.7.2-1.1c.1-.3.2-.6.4-.9s.4-.4.7-.6c.3-.1.6-.2.9-.2s.6,0,.8.2c.2.1.4.3.6.5v-2.9h.9ZM273.5,44.4c-.2-.2-.4-.4-.6-.5s-.4-.1-.7-.1c-.5,0-.9.2-1.1.5-.3.3-.4.8-.4,1.5s0,.6,0,.9.1.4.3.6c.1.2.3.3.4.3.2,0,.4.1.6.1.3,0,.6,0,.8-.2s.4-.3.6-.6v-2.5Z"/>
    <path class="st3" d="M280.1,47.6c-.1.1-.2.3-.4.4-.2.1-.3.2-.5.2-.2,0-.4.1-.6.1-.2,0-.4,0-.6,0-.4,0-.7,0-1-.2-.3-.1-.6-.3-.8-.5-.2-.2-.4-.5-.5-.9-.1-.3-.2-.7-.2-1.2s0-.7.2-1c.1-.3.3-.6.5-.8s.5-.4.8-.5c.3-.1.6-.2,1-.2s.6,0,.9.2.5.3.7.5.3.4.5.7c.1.3.2.6.2,1s0,.2,0,.3c0,0,0,0-.2,0h-3.5c0,.3,0,.6.1.9,0,.2.2.4.3.6.1.2.3.3.5.4s.4.1.7.1.4,0,.6,0c.2,0,.3-.1.4-.2s.2-.1.3-.2c0,0,.1,0,.2,0s.1,0,.2,0l.3.3ZM279.3,45.2c0-.2,0-.4,0-.6,0-.2-.1-.3-.3-.5s-.3-.2-.4-.3c-.2,0-.4-.1-.6-.1-.4,0-.8.1-1,.4-.3.3-.4.6-.5,1.1h2.9Z"/>
    <path class="st3" d="M283.8,43.9c.3-.3.6-.5.9-.6.3-.1.7-.2,1.1-.2s.6,0,.8.1c.2,0,.4.2.6.4.2.2.3.4.3.6,0,.2.1.5.1.8v3.3h-.4c0,0-.2,0-.2,0,0,0,0,0-.1-.2v-.5c-.2.1-.4.2-.5.3-.1,0-.3.2-.4.2-.1,0-.3.1-.5.2s-.3,0-.5,0-.4,0-.6,0-.3-.1-.5-.3c-.1-.1-.2-.3-.3-.4,0-.2-.1-.4-.1-.6s0-.4.2-.6.3-.4.6-.5.6-.3,1-.4c.4,0,.9-.1,1.5-.2v-.4c0-.4,0-.7-.3-.9-.2-.2-.4-.3-.8-.3s-.4,0-.6,0c-.2,0-.3.1-.4.2-.1,0-.2.1-.3.2,0,0-.2,0-.2,0s-.1,0-.2,0c0,0,0,0-.1-.1l-.2-.3ZM286.7,46c-.4,0-.8,0-1.1.1-.3,0-.5.1-.7.2-.2,0-.3.2-.4.3s-.1.2-.1.4,0,.3,0,.4c0,0,.1.2.2.2,0,0,.2.1.3.1s.2,0,.3,0,.3,0,.4,0c.1,0,.3,0,.4-.1.1,0,.2-.1.3-.2.1,0,.2-.2.3-.3v-1.1Z"/>
    <path class="st3" d="M292.9,47.6c-.2.2-.4.4-.7.6-.3.1-.6.2-.9.2v.3c.2,0,.5.2.6.3s.2.3.2.5,0,.2,0,.3c0,0-.1.2-.2.2,0,0-.2.1-.3.1s-.3,0-.5,0-.3,0-.4,0c-.1,0-.2,0-.3-.1v-.3c.1,0,.1,0,.2,0s0,0,0,0c0,0,0,0,.1,0,0,0,0,0,.1,0,0,0,.1,0,.2,0,.1,0,.3,0,.3,0,0,0,.1-.1.1-.2,0-.1,0-.2-.2-.3-.1,0-.3,0-.6-.1l.2-.6c-.3,0-.6-.1-.8-.2-.3-.1-.5-.3-.7-.5-.2-.2-.3-.5-.4-.8-.1-.3-.2-.7-.2-1.1s0-.7.2-1.1c.1-.3.3-.6.5-.9.2-.2.5-.4.8-.6s.7-.2,1-.2.7,0,1,.2c.3.1.5.3.7.5l-.2.3s0,0,0,0,0,0-.1,0-.1,0-.2,0c0,0-.1,0-.2-.1,0,0-.2,0-.3-.1s-.3,0-.5,0-.5,0-.7.1c-.2,0-.4.2-.5.4-.1.2-.2.4-.3.6,0,.2-.1.5-.1.8s0,.6.1.8c0,.2.2.5.3.6.1.2.3.3.5.4.2,0,.4.1.6.1s.4,0,.6,0c.1,0,.3-.1.4-.2,0,0,.2-.1.2-.2s.1,0,.2,0,.1,0,.2,0l.3.3Z"/>
    <path class="st3" d="M298.2,43.1v5.2h-.5c-.1,0-.2,0-.2-.2v-.6c-.3.2-.6.5-.8.6-.3.2-.6.2-1,.2s-.5,0-.8-.1-.4-.2-.5-.4c-.1-.2-.3-.4-.3-.6,0-.2-.1-.5-.1-.8v-3.3h.9v3.3c0,.4,0,.7.3.9.2.2.5.3.8.3s.5,0,.8-.2c.2-.1.5-.3.7-.5v-3.8h.9ZM297.6,40.9l-1.2,1.3c0,0,0,0-.1.1,0,0-.1,0-.2,0h-.5l.8-1.2c0,0,.1-.1.2-.2,0,0,.1,0,.2,0h.9Z"/>
    <path class="st3" d="M303.3,44s0,0,0,0,0,0-.1,0-.1,0-.2,0c0,0-.1,0-.2-.1,0,0-.2,0-.3-.1s-.3,0-.5,0-.5,0-.7.1c-.2,0-.4.2-.5.4-.1.2-.2.4-.3.6,0,.2-.1.5-.1.8s0,.6.1.8c0,.2.2.5.3.6.1.2.3.3.5.4.2,0,.4.1.6.1s.4,0,.6,0c.1,0,.3-.1.4-.2,0,0,.2-.1.2-.2s.1,0,.2,0,.1,0,.2,0l.3.3c-.1.1-.2.3-.4.4-.1,0-.3.2-.5.2s-.3.1-.5.1c-.2,0-.4,0-.6,0-.3,0-.6,0-.9-.2-.3-.1-.5-.3-.7-.5s-.4-.5-.5-.8c-.1-.3-.2-.7-.2-1.1s0-.7.2-1.1c.1-.3.3-.6.5-.9.2-.2.5-.4.8-.6s.7-.2,1-.2.7,0,1,.2c.3.1.5.3.7.5l-.2.3Z"/>
    <path class="st3" d="M304.4,43.9c.3-.3.6-.5.9-.6.3-.1.7-.2,1.1-.2s.6,0,.8.1c.2,0,.4.2.6.4.2.2.3.4.3.6,0,.2.1.5.1.8v3.3h-.4c0,0-.2,0-.2,0,0,0,0,0-.1-.2v-.5c-.2.1-.4.2-.5.3-.1,0-.3.2-.4.2-.1,0-.3.1-.5.2s-.3,0-.5,0-.4,0-.6,0-.3-.1-.5-.3c-.1-.1-.2-.3-.3-.4,0-.2-.1-.4-.1-.6s0-.4.2-.6.3-.4.6-.5.6-.3,1-.4c.4,0,.9-.1,1.5-.2v-.4c0-.4,0-.7-.3-.9-.2-.2-.4-.3-.8-.3s-.4,0-.6,0c-.2,0-.3.1-.4.2-.1,0-.2.1-.3.2,0,0-.2,0-.2,0s-.1,0-.2,0c0,0,0,0-.1-.1l-.2-.3ZM307.4,46c-.4,0-.8,0-1.1.1-.3,0-.5.1-.7.2-.2,0-.3.2-.4.3s-.1.2-.1.4,0,.3,0,.4c0,0,.1.2.2.2,0,0,.2.1.3.1s.2,0,.3,0,.3,0,.4,0c.1,0,.3,0,.4-.1.1,0,.2-.1.3-.2.1,0,.2-.2.3-.3v-1.1Z"/>
    <path class="st3" d="M310.6,44.2c.2-.4.4-.6.6-.8s.5-.3.9-.3.2,0,.3,0c.1,0,.2,0,.3.1v.7c0,0-.1.1-.2.1s-.1,0-.2,0c0,0-.2,0-.3,0s-.3,0-.4,0-.2.1-.3.2-.2.2-.3.4c0,.1-.2.3-.2.5v3.3h-.9v-5.2h.5c0,0,.2,0,.2,0s0,.1,0,.2v.8Z"/>
  </g>
  <g>
    <path class="st3" d="M316.7,43.9c.1-.1.2-.2.4-.3s.3-.2.4-.3c.1,0,.3-.1.5-.2.2,0,.3,0,.5,0,.3,0,.5,0,.8.1.2,0,.4.2.5.4.1.2.3.4.3.6,0,.2.1.5.1.8v3.3h-.9v-3.3c0-.4,0-.7-.3-.9-.2-.2-.5-.3-.8-.3s-.5,0-.8.2c-.2.1-.5.3-.7.5v3.8h-.9v-5.2h.6c.1,0,.2,0,.2.2v.6Z"/>
    <path class="st3" d="M321.5,43.9c.3-.3.6-.5.9-.6.3-.1.7-.2,1.1-.2s.6,0,.8.1c.2,0,.4.2.6.4.2.2.3.4.3.6,0,.2.1.5.1.8v3.3h-.4c0,0-.2,0-.2,0,0,0,0,0-.1-.2v-.5c-.2.1-.4.2-.5.3-.1,0-.3.2-.4.2-.1,0-.3.1-.5.2s-.3,0-.5,0-.4,0-.6,0-.3-.1-.5-.3c-.1-.1-.2-.3-.3-.4,0-.2-.1-.4-.1-.6s0-.4.2-.6.3-.4.6-.5.6-.3,1-.4c.4,0,.9-.1,1.5-.2v-.4c0-.4,0-.7-.3-.9-.2-.2-.4-.3-.8-.3s-.4,0-.6,0c-.2,0-.3.1-.4.2-.1,0-.2.1-.3.2,0,0-.2,0-.2,0s-.1,0-.2,0c0,0,0,0-.1-.1l-.2-.3ZM324.4,46c-.4,0-.8,0-1.1.1-.3,0-.5.1-.7.2-.2,0-.3.2-.4.3s-.1.2-.1.4,0,.3,0,.4c0,0,.1.2.2.2,0,0,.2.1.3.1s.2,0,.3,0,.3,0,.4,0c.1,0,.3,0,.4-.1.1,0,.2-.1.3-.2.1,0,.2-.2.3-.3v-1.1Z"/>
    <path class="st3" d="M333,44s0,0,0,0,0,0-.1,0-.1,0-.2,0c0,0-.1,0-.2-.1,0,0-.2,0-.3-.1s-.3,0-.5,0-.5,0-.7.1c-.2,0-.4.2-.5.4-.1.2-.2.4-.3.6,0,.2-.1.5-.1.8s0,.6.1.8c0,.2.2.5.3.6.1.2.3.3.5.4.2,0,.4.1.6.1s.4,0,.6,0c.1,0,.3-.1.4-.2,0,0,.2-.1.2-.2s.1,0,.2,0,.1,0,.2,0l.3.3c-.1.1-.2.3-.4.4-.1,0-.3.2-.5.2s-.3.1-.5.1c-.2,0-.4,0-.6,0-.3,0-.6,0-.9-.2-.3-.1-.5-.3-.7-.5s-.4-.5-.5-.8c-.1-.3-.2-.7-.2-1.1s0-.7.2-1.1c.1-.3.3-.6.5-.9.2-.2.5-.4.8-.6s.7-.2,1-.2.7,0,1,.2c.3.1.5.3.7.5l-.2.3Z"/>
    <path class="st3" d="M336.5,43c.4,0,.7,0,1,.2.3.1.6.3.8.5s.4.5.5.8c.1.3.2.7.2,1.1s0,.8-.2,1.1c-.1.3-.3.6-.5.8s-.5.4-.8.5c-.3.1-.6.2-1,.2s-.7,0-1-.2-.6-.3-.8-.5c-.2-.2-.4-.5-.5-.8-.1-.3-.2-.7-.2-1.1s0-.8.2-1.1.3-.6.5-.8c.2-.2.5-.4.8-.5.3-.1.7-.2,1-.2ZM336.5,47.7c.5,0,.9-.2,1.2-.5s.4-.8.4-1.4-.1-1.1-.4-1.5c-.3-.3-.6-.5-1.2-.5s-.5,0-.7.1c-.2,0-.4.2-.5.4s-.2.4-.3.6c0,.2,0,.5,0,.8,0,.6.1,1.1.4,1.4s.6.5,1.2.5Z"/>
    <path class="st3" d="M341,44.2c.2-.4.4-.6.6-.8s.5-.3.9-.3.2,0,.3,0c.1,0,.2,0,.3.1v.7c0,0-.1.1-.2.1s-.1,0-.2,0c0,0-.2,0-.3,0s-.3,0-.4,0-.2.1-.3.2-.2.2-.3.4c0,.1-.2.3-.2.5v3.3h-.9v-5.2h.5c0,0,.2,0,.2,0s0,.1,0,.2v.8Z"/>
    <path class="st3" d="M344.7,44.2c.2-.4.4-.6.6-.8s.5-.3.9-.3.2,0,.3,0c.1,0,.2,0,.3.1v.7c0,0-.1.1-.2.1s-.1,0-.2,0c0,0-.2,0-.3,0s-.3,0-.4,0-.2.1-.3.2-.2.2-.3.4c0,.1-.2.3-.2.5v3.3h-.9v-5.2h.5c0,0,.2,0,.2,0s0,.1,0,.2v.8Z"/>
  </g>
  <g>
    <path class="st3" d="M351.5,47.6c-.1.1-.2.3-.4.4-.2.1-.3.2-.5.2-.2,0-.4.1-.6.1-.2,0-.4,0-.6,0-.4,0-.7,0-1-.2-.3-.1-.6-.3-.8-.5-.2-.2-.4-.5-.5-.9-.1-.3-.2-.7-.2-1.2s0-.7.2-1c.1-.3.3-.6.5-.8s.5-.4.8-.5c.3-.1.6-.2,1-.2s.6,0,.9.2.5.3.7.5.3.4.5.7c.1.3.2.6.2,1s0,.2,0,.3c0,0,0,0-.2,0h-3.5c0,.3,0,.6.1.9,0,.2.2.4.3.6.1.2.3.3.5.4s.4.1.7.1.4,0,.6,0c.2,0,.3-.1.4-.2s.2-.1.3-.2c0,0,.1,0,.2,0s.1,0,.2,0l.3.3ZM350.8,45.2c0-.2,0-.4,0-.6,0-.2-.1-.3-.3-.5s-.3-.2-.4-.3c-.2,0-.4-.1-.6-.1-.4,0-.8.1-1,.4-.3.3-.4.6-.5,1.1h2.9Z"/>
    <path class="st3" d="M353.6,43.9c.1-.1.2-.2.4-.3s.3-.2.4-.3c.1,0,.3-.1.5-.2.2,0,.3,0,.5,0,.3,0,.5,0,.8.1.2,0,.4.2.5.4.1.2.3.4.3.6,0,.2.1.5.1.8v3.3h-.9v-3.3c0-.4,0-.7-.3-.9-.2-.2-.5-.3-.8-.3s-.5,0-.8.2c-.2.1-.5.3-.7.5v3.8h-.9v-5.2h.6c.1,0,.2,0,.2.2v.6Z"/>
    <path class="st3" d="M360.1,48.4c-.4,0-.7-.1-.9-.3-.2-.2-.3-.6-.3-1v-3.2h-.6c0,0-.1,0-.1,0,0,0,0,0,0-.2v-.4h.9c0-.1.2-1.7.2-1.7,0,0,0,0,0-.1,0,0,0,0,.1,0h.5v1.8h1.5v.7h-1.5v3.1c0,.2,0,.4.2.5.1.1.2.2.4.2s.2,0,.2,0,.1,0,.2,0c0,0,0,0,.1,0,0,0,0,0,0,0,0,0,0,0,.1,0l.3.4c-.2.1-.3.3-.6.3-.2,0-.5.1-.7.1Z"/>
    <path class="st3" d="M366.4,47.6c-.1.1-.2.3-.4.4-.2.1-.3.2-.5.2-.2,0-.4.1-.6.1-.2,0-.4,0-.6,0-.4,0-.7,0-1-.2-.3-.1-.6-.3-.8-.5-.2-.2-.4-.5-.5-.9-.1-.3-.2-.7-.2-1.2s0-.7.2-1c.1-.3.3-.6.5-.8s.5-.4.8-.5c.3-.1.6-.2,1-.2s.6,0,.9.2.5.3.7.5.3.4.5.7c.1.3.2.6.2,1s0,.2,0,.3c0,0,0,0-.2,0h-3.5c0,.3,0,.6.1.9,0,.2.2.4.3.6.1.2.3.3.5.4s.4.1.7.1.4,0,.6,0c.2,0,.3-.1.4-.2s.2-.1.3-.2c0,0,.1,0,.2,0s.1,0,.2,0l.3.3ZM365.6,45.2c0-.2,0-.4,0-.6,0-.2-.1-.3-.3-.5s-.3-.2-.4-.3c-.2,0-.4-.1-.6-.1-.4,0-.8.1-1,.4-.3.3-.4.6-.5,1.1h2.9Z"/>
    <path class="st3" d="M373.3,44c0,0-.1.1-.2.1s-.1,0-.2,0c0,0-.1,0-.2-.1,0,0-.2,0-.3-.1-.1,0-.3,0-.5,0s-.3,0-.4,0c-.1,0-.2,0-.3.2,0,0-.2.1-.2.2,0,0,0,.2,0,.3s0,.2.1.3c0,0,.2.2.3.2s.3.1.4.2.3.1.5.2c.2,0,.3.1.5.2.2,0,.3.2.4.3.1.1.2.2.3.4,0,.1.1.3.1.5s0,.5-.1.7-.2.4-.4.5c-.2.1-.4.3-.6.4-.2,0-.5.1-.8.1s-.7,0-1-.2-.5-.3-.8-.5l.2-.4s0,0,0-.1c0,0,0,0,.1,0s.1,0,.2,0c0,0,.2.1.2.2,0,0,.2.1.4.2.1,0,.3,0,.5,0s.3,0,.5,0c.1,0,.2-.1.3-.2,0,0,.2-.2.2-.3,0-.1,0-.2,0-.3s0-.3-.1-.4-.2-.2-.3-.2-.3-.1-.4-.2c-.2,0-.3-.1-.5-.2-.2,0-.3-.1-.5-.2-.2,0-.3-.2-.4-.3s-.2-.2-.3-.4c0-.2-.1-.3-.1-.6s0-.4.1-.6c0-.2.2-.3.4-.5.2-.1.4-.2.6-.3.2,0,.5-.1.8-.1s.7,0,.9.2c.3.1.5.3.7.4l-.2.3Z"/>
    <path class="st3" d="M374.5,43.9c.3-.3.6-.5.9-.6.3-.1.7-.2,1.1-.2s.6,0,.8.1c.2,0,.4.2.6.4.2.2.3.4.3.6,0,.2.1.5.1.8v3.3h-.4c0,0-.2,0-.2,0,0,0,0,0-.1-.2v-.5c-.2.1-.4.2-.5.3-.1,0-.3.2-.4.2-.1,0-.3.1-.5.2s-.3,0-.5,0-.4,0-.6,0-.3-.1-.5-.3c-.1-.1-.2-.3-.3-.4,0-.2-.1-.4-.1-.6s0-.4.2-.6.3-.4.6-.5.6-.3,1-.4c.4,0,.9-.1,1.5-.2v-.4c0-.4,0-.7-.3-.9-.2-.2-.4-.3-.8-.3s-.4,0-.6,0c-.2,0-.3.1-.4.2-.1,0-.2.1-.3.2,0,0-.2,0-.2,0s-.1,0-.2,0c0,0,0,0-.1-.1l-.2-.3ZM377.5,46c-.4,0-.8,0-1.1.1-.3,0-.5.1-.7.2-.2,0-.3.2-.4.3s-.1.2-.1.4,0,.3,0,.4c0,0,.1.2.2.2,0,0,.2.1.3.1s.2,0,.3,0,.3,0,.4,0c.1,0,.3,0,.4-.1.1,0,.2-.1.3-.2.1,0,.2-.2.3-.3v-1.1Z"/>
    <path class="st3" d="M380.7,43.9c.1-.1.2-.2.4-.3s.3-.2.4-.3c.1,0,.3-.1.5-.2.2,0,.3,0,.5,0,.3,0,.5,0,.8.1.2,0,.4.2.5.4.1.2.3.4.3.6,0,.2.1.5.1.8v3.3h-.9v-3.3c0-.4,0-.7-.3-.9-.2-.2-.5-.3-.8-.3s-.5,0-.8.2c-.2.1-.5.3-.7.5v3.8h-.9v-5.2h.6c.1,0,.2,0,.2.2v.6Z"/>
    <path class="st3" d="M389.9,43.3v.3c0,.1,0,.2-.2.2h-.6c.1.3.2.6.2.8s0,.5-.1.7-.2.4-.4.5c-.2.1-.4.3-.6.3-.2,0-.5.1-.8.1s-.5,0-.7,0c-.1,0-.2.1-.3.2,0,0,0,.2,0,.2,0,.1,0,.2.2.3.1,0,.2.1.4.1.2,0,.4,0,.6,0s.4,0,.6,0c.2,0,.4,0,.6,0,.2,0,.4,0,.6.2.2,0,.3.2.4.4.1.2.2.3.2.6s0,.4-.2.6c-.1.2-.3.4-.5.6-.2.2-.5.3-.8.4-.3,0-.6.1-1,.1s-.7,0-1-.1c-.3,0-.5-.2-.7-.3-.2-.1-.3-.3-.4-.4,0-.2-.1-.3-.1-.5,0-.3,0-.5.2-.7s.4-.3.7-.4c-.2,0-.3-.2-.4-.3,0-.1-.1-.3-.1-.5s0-.2,0-.2,0-.2.1-.2.1-.2.2-.2c0,0,.2-.1.3-.2-.3-.1-.5-.3-.6-.6-.1-.2-.2-.5-.2-.8s0-.5.1-.7.2-.4.4-.5c.2-.1.4-.3.6-.3.2,0,.5-.1.8-.1s.4,0,.6,0c.2,0,.4.1.5.2h1.4ZM389,48.6c0-.1,0-.2-.1-.3,0,0-.2-.1-.3-.2-.1,0-.3,0-.4,0-.2,0-.3,0-.5,0-.2,0-.4,0-.5,0-.2,0-.4,0-.5,0-.2,0-.3.2-.5.3-.1.1-.2.3-.2.5s0,.2,0,.3c0,.1.2.2.3.3.1,0,.3.1.5.2.2,0,.4,0,.7,0s.5,0,.7,0,.4-.1.5-.2c.1,0,.2-.2.3-.3s.1-.2.1-.4ZM387.4,45.8c.2,0,.3,0,.5,0,.1,0,.3-.1.4-.2,0,0,.2-.2.2-.3s0-.3,0-.4c0-.3,0-.6-.3-.8-.2-.2-.5-.3-.8-.3s-.7,0-.8.3c-.2.2-.3.4-.3.8s0,.3,0,.4.1.2.2.3c0,0,.2.2.4.2.1,0,.3,0,.5,0Z"/>
    <path class="st3" d="M395.2,43.1v5.2h-.5c-.1,0-.2,0-.2-.2v-.6c-.3.2-.6.5-.8.6-.3.2-.6.2-1,.2s-.5,0-.8-.1-.4-.2-.5-.4c-.1-.2-.3-.4-.3-.6,0-.2-.1-.5-.1-.8v-3.3h.9v3.3c0,.4,0,.7.3.9.2.2.5.3.8.3s.5,0,.8-.2c.2-.1.5-.3.7-.5v-3.8h.9Z"/>
    <path class="st3" d="M398.7,40.9l-1.2,1.3c0,0,0,0-.1.1,0,0-.1,0-.2,0h-.5l.8-1.2c0,0,.1-.1.2-.2,0,0,.1,0,.2,0h.9ZM397.6,43.1v5.2h-.9v-5.2h.9Z"/>
    <path class="st3" d="M400,43.9c.1-.1.2-.2.4-.3s.3-.2.4-.3c.1,0,.3-.1.5-.2.2,0,.3,0,.5,0,.3,0,.5,0,.8.1.2,0,.4.2.5.4.1.2.3.4.3.6,0,.2.1.5.1.8v3.3h-.9v-3.3c0-.4,0-.7-.3-.9-.2-.2-.5-.3-.8-.3s-.5,0-.8.2c-.2.1-.5.3-.7.5v3.8h-.9v-5.2h.6c.1,0,.2,0,.2.2v.6Z"/>
    <path class="st3" d="M409.1,47.6c-.1.1-.2.3-.4.4-.2.1-.3.2-.5.2-.2,0-.4.1-.6.1-.2,0-.4,0-.6,0-.4,0-.7,0-1-.2-.3-.1-.6-.3-.8-.5-.2-.2-.4-.5-.5-.9-.1-.3-.2-.7-.2-1.2s0-.7.2-1c.1-.3.3-.6.5-.8s.5-.4.8-.5c.3-.1.6-.2,1-.2s.6,0,.9.2.5.3.7.5.3.4.5.7c.1.3.2.6.2,1s0,.2,0,.3c0,0,0,0-.2,0h-3.5c0,.3,0,.6.1.9,0,.2.2.4.3.6.1.2.3.3.5.4s.4.1.7.1.4,0,.6,0c.2,0,.3-.1.4-.2s.2-.1.3-.2c0,0,.1,0,.2,0s.1,0,.2,0l.3.3ZM408.3,45.2c0-.2,0-.4,0-.6,0-.2-.1-.3-.3-.5s-.3-.2-.4-.3c-.2,0-.4-.1-.6-.1-.4,0-.8.1-1,.4-.3.3-.4.6-.5,1.1h2.9Z"/>
    <path class="st3" d="M410.1,43.9c.3-.3.6-.5.9-.6.3-.1.7-.2,1.1-.2s.6,0,.8.1c.2,0,.4.2.6.4.2.2.3.4.3.6,0,.2.1.5.1.8v3.3h-.4c0,0-.2,0-.2,0,0,0,0,0-.1-.2v-.5c-.2.1-.4.2-.5.3-.1,0-.3.2-.4.2-.1,0-.3.1-.5.2s-.3,0-.5,0-.4,0-.6,0-.3-.1-.5-.3c-.1-.1-.2-.3-.3-.4,0-.2-.1-.4-.1-.6s0-.4.2-.6.3-.4.6-.5.6-.3,1-.4c.4,0,.9-.1,1.5-.2v-.4c0-.4,0-.7-.3-.9-.2-.2-.4-.3-.8-.3s-.4,0-.6,0c-.2,0-.3.1-.4.2-.1,0-.2.1-.3.2,0,0-.2,0-.2,0s-.1,0-.2,0c0,0,0,0-.1-.1l-.2-.3ZM413.1,46c-.4,0-.8,0-1.1.1-.3,0-.5.1-.7.2-.2,0-.3.2-.4.3s-.1.2-.1.4,0,.3,0,.4c0,0,.1.2.2.2,0,0,.2.1.3.1s.2,0,.3,0,.3,0,.4,0c.1,0,.3,0,.4-.1.1,0,.2-.1.3-.2.1,0,.2-.2.3-.3v-1.1Z"/>
    <path class="st3" d="M422.2,47.6c-.1.1-.2.3-.4.4-.2.1-.3.2-.5.2-.2,0-.4.1-.6.1-.2,0-.4,0-.6,0-.4,0-.7,0-1-.2-.3-.1-.6-.3-.8-.5-.2-.2-.4-.5-.5-.9-.1-.3-.2-.7-.2-1.2s0-.7.2-1c.1-.3.3-.6.5-.8s.5-.4.8-.5c.3-.1.6-.2,1-.2s.6,0,.9.2.5.3.7.5.3.4.5.7c.1.3.2.6.2,1s0,.2,0,.3c0,0,0,0-.2,0h-3.5c0,.3,0,.6.1.9,0,.2.2.4.3.6.1.2.3.3.5.4s.4.1.7.1.4,0,.6,0c.2,0,.3-.1.4-.2s.2-.1.3-.2c0,0,.1,0,.2,0s.1,0,.2,0l.3.3ZM421.5,45.2c0-.2,0-.4,0-.6,0-.2-.1-.3-.3-.5s-.3-.2-.4-.3c-.2,0-.4-.1-.6-.1-.4,0-.8.1-1,.4-.3.3-.4.6-.5,1.1h2.9Z"/>
    <path class="st3" d="M427,43.9c.2-.3.5-.5.8-.7s.6-.2,1-.2.6,0,.8.2c.2.1.5.3.6.5s.3.5.4.8c0,.3.1.7.1,1.1s0,.7-.2,1.1c-.1.3-.3.6-.4.9s-.4.4-.7.6c-.3.1-.6.2-.9.2s-.6,0-.8-.2c-.2-.1-.4-.3-.6-.5v2.3h-.9v-7h.6c.1,0,.2,0,.2.2v.6ZM427,47.1c.2.2.4.4.6.5.2,0,.4.1.7.1.5,0,.9-.2,1.1-.5.3-.3.4-.8.4-1.5s0-.6,0-.9c0-.2-.1-.4-.3-.6-.1-.2-.3-.3-.4-.3-.2,0-.4-.1-.6-.1-.3,0-.6,0-.8.2s-.4.3-.6.6v2.5Z"/>
    <path class="st3" d="M436.1,47.6c-.1.1-.2.3-.4.4-.2.1-.3.2-.5.2-.2,0-.4.1-.6.1-.2,0-.4,0-.6,0-.4,0-.7,0-1-.2-.3-.1-.6-.3-.8-.5-.2-.2-.4-.5-.5-.9-.1-.3-.2-.7-.2-1.2s0-.7.2-1c.1-.3.3-.6.5-.8s.5-.4.8-.5c.3-.1.6-.2,1-.2s.6,0,.9.2.5.3.7.5.3.4.5.7c.1.3.2.6.2,1s0,.2,0,.3c0,0,0,0-.2,0h-3.5c0,.3,0,.6.1.9,0,.2.2.4.3.6.1.2.3.3.5.4s.4.1.7.1.4,0,.6,0c.2,0,.3-.1.4-.2s.2-.1.3-.2c0,0,.1,0,.2,0s.1,0,.2,0l.3.3ZM435.3,45.2c0-.2,0-.4,0-.6,0-.2-.1-.3-.3-.5s-.3-.2-.4-.3c-.2,0-.4-.1-.6-.1-.4,0-.8.1-1,.4-.3.3-.4.6-.5,1.1h2.9Z"/>
    <path class="st3" d="M438.2,44.2c.2-.4.4-.6.6-.8s.5-.3.9-.3.2,0,.3,0c.1,0,.2,0,.3.1v.7c0,0-.1.1-.2.1s-.1,0-.2,0c0,0-.2,0-.3,0s-.3,0-.4,0-.2.1-.3.2-.2.2-.3.4c0,.1-.2.3-.2.5v3.3h-.9v-5.2h.5c0,0,.2,0,.2,0s0,.1,0,.2v.8Z"/>
    <path class="st3" d="M441,48.3v-5.2h.6c.1,0,.2,0,.2.2v.5c.3-.2.5-.4.7-.6.2-.2.5-.2.8-.2s.6,0,.9.3.4.5.5.8c0-.2.2-.4.3-.5s.3-.3.4-.3c.1,0,.3-.2.5-.2s.3,0,.5,0c.3,0,.5,0,.7.1.2,0,.4.2.5.4s.3.4.3.6c0,.2.1.5.1.8v3.3h-.9v-3.3c0-.4,0-.7-.3-.9-.2-.2-.4-.3-.8-.3s-.3,0-.4,0c-.1,0-.3.1-.4.2-.1.1-.2.2-.2.4,0,.2,0,.3,0,.5v3.3h-.9v-3.3c0-.4,0-.7-.3-.9-.2-.2-.4-.3-.7-.3s-.4,0-.6.2c-.2.1-.4.3-.5.5v3.9h-.9Z"/>
    <path class="st3" d="M450.7,41.5c0,0,0,.2,0,.2s0,.1-.1.2c0,0-.1.1-.2.1,0,0-.2,0-.3,0s-.2,0-.2,0c0,0-.1,0-.2-.1,0,0-.1-.1-.1-.2s0-.2,0-.2,0-.2,0-.3,0-.2.1-.2c0,0,.1-.1.2-.1s.2,0,.2,0,.2,0,.3,0c0,0,.2,0,.2.1,0,0,.1.1.1.2s0,.2,0,.3ZM450.5,43.1v5.2h-.9v-5.2h.9Z"/>
    <path class="st3" d="M453.6,48.4c-.4,0-.7-.1-.9-.3-.2-.2-.3-.6-.3-1v-3.2h-.6c0,0-.1,0-.1,0,0,0,0,0,0-.2v-.4h.9c0-.1.2-1.7.2-1.7,0,0,0,0,0-.1,0,0,0,0,.1,0h.5v1.8h1.5v.7h-1.5v3.1c0,.2,0,.4.2.5.1.1.2.2.4.2s.2,0,.2,0,.1,0,.2,0c0,0,0,0,.1,0,0,0,0,0,0,0,0,0,0,0,.1,0l.3.4c-.2.1-.3.3-.6.3-.2,0-.5.1-.7.1Z"/>
    <path class="st3" d="M459.9,47.6c-.1.1-.2.3-.4.4-.2.1-.3.2-.5.2-.2,0-.4.1-.6.1-.2,0-.4,0-.6,0-.4,0-.7,0-1-.2-.3-.1-.6-.3-.8-.5-.2-.2-.4-.5-.5-.9-.1-.3-.2-.7-.2-1.2s0-.7.2-1c.1-.3.3-.6.5-.8s.5-.4.8-.5c.3-.1.6-.2,1-.2s.6,0,.9.2.5.3.7.5.3.4.5.7c.1.3.2.6.2,1s0,.2,0,.3c0,0,0,0-.2,0h-3.5c0,.3,0,.6.1.9,0,.2.2.4.3.6.1.2.3.3.5.4s.4.1.7.1.4,0,.6,0c.2,0,.3-.1.4-.2s.2-.1.3-.2c0,0,.1,0,.2,0s.1,0,.2,0l.3.3ZM459.1,45.2c0-.2,0-.4,0-.6,0-.2-.1-.3-.3-.5s-.3-.2-.4-.3c-.2,0-.4-.1-.6-.1-.4,0-.8.1-1,.4-.3.3-.4.6-.5,1.1h2.9Z"/>
    <path class="st3" d="M468,43.1v7h-.9v-2.5c-.2.3-.5.5-.7.6-.3.2-.6.2-1,.2s-.6,0-.8-.2c-.2-.1-.5-.3-.6-.5-.2-.2-.3-.5-.4-.8,0-.3-.1-.7-.1-1.1s0-.7.2-1.1c.1-.3.2-.6.4-.9s.4-.4.7-.6c.3-.1.6-.2.9-.2s.6,0,.9.2c.2.1.4.3.6.5v-.4c0-.1.2-.2.3-.2h.5ZM467.1,44.4c-.2-.2-.3-.4-.6-.5-.2,0-.4-.1-.7-.1-.5,0-.9.2-1.1.5-.3.3-.4.8-.4,1.5s0,.6,0,.9.1.4.3.6c.1.2.3.3.4.3.2,0,.4.1.6.1.3,0,.6,0,.8-.2s.4-.3.6-.6v-2.5Z"/>
    <path class="st3" d="M473.8,43.1v5.2h-.5c-.1,0-.2,0-.2-.2v-.6c-.3.2-.6.5-.8.6-.3.2-.6.2-1,.2s-.5,0-.8-.1-.4-.2-.5-.4c-.1-.2-.3-.4-.3-.6,0-.2-.1-.5-.1-.8v-3.3h.9v3.3c0,.4,0,.7.3.9.2.2.5.3.8.3s.5,0,.8-.2c.2-.1.5-.3.7-.5v-3.8h.9Z"/>
    <path class="st3" d="M479.4,47.6c-.1.1-.2.3-.4.4-.2.1-.3.2-.5.2-.2,0-.4.1-.6.1-.2,0-.4,0-.6,0-.4,0-.7,0-1-.2-.3-.1-.6-.3-.8-.5-.2-.2-.4-.5-.5-.9-.1-.3-.2-.7-.2-1.2s0-.7.2-1c.1-.3.3-.6.5-.8s.5-.4.8-.5c.3-.1.6-.2,1-.2s.6,0,.9.2.5.3.7.5.3.4.5.7c.1.3.2.6.2,1s0,.2,0,.3c0,0,0,0-.2,0h-3.5c0,.3,0,.6.1.9,0,.2.2.4.3.6.1.2.3.3.5.4s.4.1.7.1.4,0,.6,0c.2,0,.3-.1.4-.2s.2-.1.3-.2c0,0,.1,0,.2,0s.1,0,.2,0l.3.3ZM478.7,45.2c0-.2,0-.4,0-.6,0-.2-.1-.3-.3-.5s-.3-.2-.4-.3c-.2,0-.4-.1-.6-.1-.4,0-.8.1-1,.4-.3.3-.4.6-.5,1.1h2.9Z"/>
  </g>
  <g>
    <path class="st3" d="M178.5,56.2c.3-.3.6-.5.9-.6.3-.1.7-.2,1.1-.2s.6,0,.8.1c.2,0,.4.2.6.4.2.2.3.4.4.6,0,.2.1.5.1.8v3.3h-.4c0,0-.2,0-.2,0,0,0,0,0-.1-.2v-.5c-.2.1-.4.2-.5.3-.1,0-.3.2-.4.2s-.3.1-.5.2c-.2,0-.3,0-.5,0s-.4,0-.6,0c-.2,0-.3-.1-.5-.3-.1-.1-.2-.3-.3-.4,0-.2-.1-.4-.1-.6s0-.4.2-.6c.1-.2.3-.4.6-.5.3-.1.6-.3,1-.4.4,0,.9-.1,1.5-.2v-.4c0-.4,0-.7-.3-.9-.2-.2-.4-.3-.8-.3s-.4,0-.6,0c-.2,0-.3.1-.4.2-.1,0-.2.1-.3.2s-.2,0-.2,0-.1,0-.2,0c0,0,0,0-.1-.1l-.2-.3ZM181.5,58.3c-.4,0-.8,0-1.1,0-.3,0-.5.1-.7.2s-.3.2-.4.3c0,.1-.1.2-.1.4s0,.3,0,.4c0,0,.1.2.2.2,0,0,.2.1.3.1s.2,0,.3,0,.3,0,.4,0c.1,0,.3,0,.4-.1s.2-.1.3-.2c.1,0,.2-.2.3-.3v-1.1Z"/>
    <path class="st3" d="M190.8,55.7v.3c0,.1,0,.2-.2.2h-.6c.1.3.2.6.2.8s0,.5-.1.7c0,.2-.2.4-.4.5s-.4.3-.6.3c-.2,0-.5.1-.8.1s-.5,0-.7,0c-.1,0-.2.1-.3.2,0,0,0,.2,0,.2,0,.1,0,.2.2.3.1,0,.2.1.4.1.2,0,.4,0,.6,0,.2,0,.4,0,.6,0s.4,0,.6,0,.4,0,.6.2c.2,0,.3.2.4.4.1.2.2.3.2.6s0,.4-.2.6c-.1.2-.3.4-.5.6-.2.2-.5.3-.8.4-.3,0-.6.1-1,.1s-.7,0-1-.1-.5-.2-.7-.3c-.2-.1-.3-.3-.4-.4s-.1-.3-.1-.5,0-.5.2-.7c.2-.2.4-.3.7-.4-.2,0-.3-.2-.4-.3,0-.1-.1-.3-.1-.5s0-.2,0-.2c0,0,0-.2.1-.2,0,0,.1-.2.2-.2,0,0,.2-.1.3-.2-.3-.1-.5-.3-.6-.6s-.2-.5-.2-.8,0-.5.1-.7c0-.2.2-.4.4-.5.2-.1.4-.3.6-.3.2,0,.5-.1.8-.1s.4,0,.6,0c.2,0,.4.1.5.2h1.4ZM189.9,61c0-.1,0-.2-.1-.3,0,0-.2-.1-.3-.2s-.3,0-.4,0c-.2,0-.3,0-.5,0-.2,0-.4,0-.5,0s-.4,0-.5,0c-.2,0-.3.2-.5.3-.1.1-.2.3-.2.5s0,.2,0,.3c0,.1.2.2.3.3s.3.1.5.2.4,0,.7,0,.5,0,.7,0c.2,0,.4-.1.5-.2.1,0,.2-.2.3-.3,0-.1.1-.2.1-.4ZM188.2,58.1c.2,0,.3,0,.5,0s.3-.1.4-.2c0,0,.2-.2.2-.3,0-.1,0-.3,0-.4,0-.3,0-.6-.3-.8-.2-.2-.5-.3-.8-.3s-.7,0-.8.3c-.2.2-.3.4-.3.8s0,.3,0,.4.1.2.2.3c0,0,.2.2.4.2s.3,0,.5,0Z"/>
    <path class="st3" d="M192.7,53.1v7.6h-.9v-7.6h.9Z"/>
    <path class="st3" d="M195.4,53.8c0,0,0,.2,0,.2,0,0,0,.1-.1.2s-.1.1-.2.1-.2,0-.3,0-.2,0-.2,0-.1,0-.2-.1c0,0-.1-.1-.1-.2s0-.2,0-.2,0-.2,0-.3,0-.2.1-.2c0,0,.1-.1.2-.1s.2,0,.2,0,.2,0,.3,0,.2,0,.2.1.1.1.1.2c0,0,0,.2,0,.3ZM195.2,55.5v5.2h-.9v-5.2h.9Z"/>
    <path class="st3" d="M200.3,56.4s0,0,0,0,0,0-.1,0-.1,0-.2,0c0,0-.1,0-.2-.1,0,0-.2,0-.3-.1-.1,0-.3,0-.5,0s-.5,0-.7.1c-.2,0-.4.2-.5.4-.1.2-.2.4-.3.6,0,.2,0,.5,0,.8s0,.6.1.8c0,.2.2.5.3.6.1.2.3.3.5.4.2,0,.4.1.6.1s.4,0,.6,0c.1,0,.3-.1.4-.2,0,0,.2-.1.2-.2,0,0,.1,0,.2,0s.1,0,.2,0l.3.3c-.1.1-.2.3-.4.4-.1,0-.3.2-.5.2s-.3.1-.5.1-.4,0-.6,0c-.3,0-.6,0-.9-.2-.3-.1-.5-.3-.7-.5-.2-.2-.4-.5-.5-.8s-.2-.7-.2-1.1,0-.7.2-1.1c.1-.3.3-.6.5-.9s.5-.4.8-.6c.3-.1.7-.2,1-.2s.7,0,1,.2c.3.1.5.3.7.5l-.2.3Z"/>
    <path class="st3" d="M203.8,55.4c.4,0,.7,0,1,.2.3.1.6.3.8.5s.4.5.5.8c.1.3.2.7.2,1.1s0,.8-.2,1.1c-.1.3-.3.6-.5.8s-.5.4-.8.5c-.3.1-.6.2-1,.2s-.7,0-1-.2-.6-.3-.8-.5c-.2-.2-.4-.5-.5-.8s-.2-.7-.2-1.1,0-.8.2-1.1c.1-.3.3-.6.5-.8.2-.2.5-.4.8-.5s.7-.2,1-.2ZM203.8,60c.5,0,.9-.2,1.2-.5s.4-.8.4-1.4-.1-1.1-.4-1.5c-.3-.3-.6-.5-1.2-.5s-.5,0-.7.1c-.2,0-.4.2-.5.4s-.2.4-.3.6c0,.2,0,.5,0,.8,0,.6.1,1.1.4,1.4s.6.5,1.2.5Z"/>
    <path class="st3" d="M210.4,56.3c0,0-.1.1-.2.1s-.1,0-.2,0-.1,0-.2-.1c0,0-.2,0-.3-.1-.1,0-.3,0-.5,0s-.3,0-.4,0c-.1,0-.2,0-.3.2,0,0-.2.1-.2.2,0,0,0,.2,0,.3s0,.2.1.3c0,0,.2.2.3.2.1,0,.3.1.4.2s.3.1.5.2c.2,0,.3.1.5.2s.3.2.4.3c.1.1.2.2.3.4,0,.1.1.3.1.5s0,.5-.1.7-.2.4-.4.5c-.2.1-.4.3-.6.4-.2,0-.5.1-.8.1s-.7,0-1-.2c-.3-.1-.5-.3-.8-.5l.2-.3s0,0,0-.1c0,0,0,0,.1,0s.1,0,.2,0c0,0,.2.1.2.2,0,0,.2.1.4.2.1,0,.3,0,.5,0s.3,0,.5,0,.2-.1.3-.2c0,0,.2-.2.2-.3,0-.1,0-.2,0-.3s0-.3-.1-.4-.2-.2-.3-.2c-.1,0-.3-.1-.4-.2-.2,0-.3-.1-.5-.2-.2,0-.3-.1-.5-.2-.2,0-.3-.2-.4-.3s-.2-.2-.3-.4-.1-.3-.1-.6,0-.4.1-.6c0-.2.2-.3.4-.5.2-.1.4-.2.6-.3.2,0,.5-.1.8-.1s.7,0,.9.2c.3.1.5.3.7.4l-.2.3Z"/>
    <path class="st3" d="M216.1,60c-.1.1-.2.3-.4.4-.2.1-.3.2-.5.2-.2,0-.4.1-.6.1-.2,0-.4,0-.6,0-.4,0-.7,0-1-.2-.3-.1-.6-.3-.8-.5-.2-.2-.4-.5-.5-.9-.1-.3-.2-.7-.2-1.2s0-.7.2-1c.1-.3.3-.6.5-.8s.5-.4.8-.5c.3-.1.6-.2,1-.2s.6,0,.9.2c.3.1.5.3.7.5s.3.4.5.7c.1.3.2.6.2,1s0,.2,0,.3c0,0,0,0-.2,0h-3.5c0,.3,0,.6.1.9,0,.2.2.4.3.6.1.2.3.3.5.4.2,0,.4.1.7.1s.4,0,.6,0c.2,0,.3-.1.4-.2s.2-.1.3-.2c0,0,.1,0,.2,0s.1,0,.2,0l.3.3ZM215.4,57.5c0-.2,0-.4,0-.6,0-.2-.1-.3-.3-.5-.1-.1-.3-.2-.4-.3-.2,0-.4-.1-.6-.1-.4,0-.8.1-1,.4s-.4.6-.5,1.1h2.9Z"/>
    <path class="st3" d="M224.2,60c-.1.1-.2.3-.4.4-.2.1-.3.2-.5.2-.2,0-.4.1-.6.1-.2,0-.4,0-.6,0-.4,0-.7,0-1-.2-.3-.1-.6-.3-.8-.5-.2-.2-.4-.5-.5-.9-.1-.3-.2-.7-.2-1.2s0-.7.2-1c.1-.3.3-.6.5-.8s.5-.4.8-.5c.3-.1.6-.2,1-.2s.6,0,.9.2c.3.1.5.3.7.5s.3.4.5.7c.1.3.2.6.2,1s0,.2,0,.3c0,0,0,0-.2,0h-3.5c0,.3,0,.6.1.9,0,.2.2.4.3.6.1.2.3.3.5.4.2,0,.4.1.7.1s.4,0,.6,0c.2,0,.3-.1.4-.2s.2-.1.3-.2c0,0,.1,0,.2,0s.1,0,.2,0l.3.3ZM223.4,57.5c0-.2,0-.4,0-.6,0-.2-.1-.3-.3-.5-.1-.1-.3-.2-.4-.3-.2,0-.4-.1-.6-.1-.4,0-.8.1-1,.4s-.4.6-.5,1.1h2.9Z"/>
    <path class="st3" d="M226.2,56.2c.1-.1.2-.2.4-.3.1-.1.3-.2.4-.3.1,0,.3-.1.5-.2.2,0,.3,0,.5,0,.3,0,.5,0,.8.1.2,0,.4.2.5.4.1.2.3.4.3.6,0,.2.1.5.1.8v3.3h-.9v-3.3c0-.4,0-.7-.3-.9-.2-.2-.5-.3-.8-.3s-.5,0-.8.2c-.2.1-.5.3-.7.5v3.8h-.9v-5.2h.6c.1,0,.2,0,.2.2v.6Z"/>
    <path class="st3" d="M232.7,60.8c-.4,0-.7-.1-.9-.3-.2-.2-.3-.6-.3-1v-3.2h-.6c0,0-.1,0-.1,0,0,0,0,0,0-.2v-.4h.9c0-.1.2-1.7.2-1.7,0,0,0,0,0-.1,0,0,0,0,.1,0h.5v1.8h1.5v.7h-1.5v3.1c0,.2,0,.4.2.5s.2.2.4.2.2,0,.2,0c0,0,.1,0,.2,0,0,0,0,0,.1,0s0,0,0,0c0,0,0,0,.1,0l.3.4c-.2.1-.3.3-.6.3-.2,0-.5.1-.7.1Z"/>
    <path class="st3" d="M235.7,56.5c.2-.4.4-.6.6-.8.2-.2.5-.3.9-.3s.2,0,.3,0c.1,0,.2,0,.3.1v.7c0,0-.1.1-.2.1s-.1,0-.2,0c0,0-.2,0-.3,0s-.3,0-.4,0-.2.1-.3.2c-.1,0-.2.2-.3.4,0,.1-.2.3-.2.5v3.3h-.9v-5.2h.5c0,0,.2,0,.2,0s0,.1,0,.2v.8Z"/>
  </g>
  <g>
    <path class="st3" d="M242.4,60c-.1.1-.2.3-.4.4-.2.1-.3.2-.5.2-.2,0-.4.1-.6.1-.2,0-.4,0-.6,0-.4,0-.7,0-1-.2-.3-.1-.6-.3-.8-.5-.2-.2-.4-.5-.5-.9-.1-.3-.2-.7-.2-1.2s0-.7.2-1c.1-.3.3-.6.5-.8s.5-.4.8-.5c.3-.1.6-.2,1-.2s.6,0,.9.2c.3.1.5.3.7.5s.3.4.5.7c.1.3.2.6.2,1s0,.2,0,.3c0,0,0,0-.2,0h-3.5c0,.3,0,.6.1.9,0,.2.2.4.3.6.1.2.3.3.5.4.2,0,.4.1.7.1s.4,0,.6,0c.2,0,.3-.1.4-.2s.2-.1.3-.2c0,0,.1,0,.2,0s.1,0,.2,0l.3.3ZM241.7,57.5c0-.2,0-.4,0-.6,0-.2-.1-.3-.3-.5-.1-.1-.3-.2-.4-.3-.2,0-.4-.1-.6-.1-.4,0-.8.1-1,.4s-.4.6-.5,1.1h2.9Z"/>
    <path class="st3" d="M247.1,56.2c.1-.1.2-.2.4-.3.1-.1.3-.2.4-.3.1,0,.3-.1.5-.2.2,0,.3,0,.5,0,.3,0,.5,0,.8.1.2,0,.4.2.5.4.1.2.3.4.3.6,0,.2.1.5.1.8v3.3h-.9v-3.3c0-.4,0-.7-.3-.9-.2-.2-.5-.3-.8-.3s-.5,0-.8.2c-.2.1-.5.3-.7.5v3.8h-.9v-5.2h.6c.1,0,.2,0,.2.2v.6Z"/>
    <path class="st3" d="M251.8,56.2c.3-.3.6-.5.9-.6.3-.1.7-.2,1.1-.2s.6,0,.8.1.4.2.6.4c.2.2.3.4.3.6,0,.2.1.5.1.8v3.3h-.4c0,0-.2,0-.2,0,0,0,0,0-.1-.2v-.5c-.2.1-.4.2-.5.3-.1,0-.3.2-.4.2-.1,0-.3.1-.5.2s-.3,0-.5,0-.4,0-.6,0-.3-.1-.5-.3c-.1-.1-.2-.3-.3-.4,0-.2-.1-.4-.1-.6s0-.4.2-.6c.1-.2.3-.4.6-.5.3-.1.6-.3,1-.4.4,0,.9-.1,1.5-.2v-.4c0-.4,0-.7-.3-.9-.2-.2-.4-.3-.8-.3s-.4,0-.6,0c-.2,0-.3.1-.4.2-.1,0-.2.1-.3.2,0,0-.2,0-.2,0s-.1,0-.2,0c0,0,0,0-.1-.1l-.2-.3ZM254.8,58.3c-.4,0-.8,0-1.1,0-.3,0-.5.1-.7.2-.2,0-.3.2-.4.3,0,.1-.1.2-.1.4s0,.3,0,.4c0,0,.1.2.2.2,0,0,.2.1.3.1s.2,0,.3,0,.3,0,.4,0c.1,0,.3,0,.4-.1.1,0,.2-.1.3-.2.1,0,.2-.2.3-.3v-1.1Z"/>
    <path class="st3" d="M263.4,56.4s0,0,0,0,0,0-.1,0-.1,0-.2,0c0,0-.1,0-.2-.1,0,0-.2,0-.3-.1s-.3,0-.5,0-.5,0-.7.1c-.2,0-.4.2-.5.4-.1.2-.2.4-.3.6,0,.2-.1.5-.1.8s0,.6.1.8c0,.2.2.5.3.6.1.2.3.3.5.4.2,0,.4.1.6.1s.4,0,.6,0c.1,0,.3-.1.4-.2,0,0,.2-.1.2-.2,0,0,.1,0,.2,0s.1,0,.2,0l.3.3c-.1.1-.2.3-.4.4-.1,0-.3.2-.5.2s-.3.1-.5.1-.4,0-.6,0c-.3,0-.6,0-.9-.2-.3-.1-.5-.3-.7-.5-.2-.2-.4-.5-.5-.8-.1-.3-.2-.7-.2-1.1s0-.7.2-1.1c.1-.3.3-.6.5-.9.2-.2.5-.4.8-.6s.7-.2,1-.2.7,0,1,.2c.3.1.5.3.7.5l-.2.3Z"/>
    <path class="st3" d="M268.9,60c-.1.1-.2.3-.4.4-.2.1-.3.2-.5.2-.2,0-.4.1-.6.1-.2,0-.4,0-.6,0-.4,0-.7,0-1-.2-.3-.1-.6-.3-.8-.5-.2-.2-.4-.5-.5-.9-.1-.3-.2-.7-.2-1.2s0-.7.2-1c.1-.3.3-.6.5-.8s.5-.4.8-.5c.3-.1.6-.2,1-.2s.6,0,.9.2c.3.1.5.3.7.5s.3.4.5.7c.1.3.2.6.2,1s0,.2,0,.3c0,0,0,0-.2,0h-3.5c0,.3,0,.6.1.9,0,.2.2.4.3.6.1.2.3.3.5.4.2,0,.4.1.7.1s.4,0,.6,0c.2,0,.3-.1.4-.2s.2-.1.3-.2c0,0,.1,0,.2,0s.1,0,.2,0l.3.3ZM268.1,57.5c0-.2,0-.4,0-.6,0-.2-.1-.3-.3-.5-.1-.1-.3-.2-.4-.3-.2,0-.4-.1-.6-.1-.4,0-.8.1-1,.4s-.4.6-.5,1.1h2.9ZM268.3,53.2l-1.2,1.3c0,0,0,0-.1.1,0,0-.1,0-.2,0h-.5l.8-1.2c0,0,0-.1.2-.2,0,0,.1,0,.2,0h.9Z"/>
    <path class="st3" d="M271,53.1v7.6h-.9v-7.6h.9Z"/>
    <path class="st3" d="M276.8,55.5v5.2h-.5c-.1,0-.2,0-.2-.2v-.6c-.3.2-.6.5-.8.6s-.6.2-1,.2-.5,0-.8-.1c-.2,0-.4-.2-.5-.4-.1-.2-.3-.4-.3-.6,0-.2-.1-.5-.1-.8v-3.3h.9v3.3c0,.4,0,.7.3.9.2.2.5.3.8.3s.5,0,.8-.2c.2-.1.5-.3.7-.5v-3.8h.9Z"/>
    <path class="st3" d="M279.2,53.1v7.6h-.9v-7.6h.9Z"/>
    <path class="st3" d="M280.5,56.2c.3-.3.6-.5.9-.6.3-.1.7-.2,1.1-.2s.6,0,.8.1.4.2.6.4c.2.2.3.4.3.6,0,.2.1.5.1.8v3.3h-.4c0,0-.2,0-.2,0,0,0,0,0-.1-.2v-.5c-.2.1-.4.2-.5.3-.1,0-.3.2-.4.2-.1,0-.3.1-.5.2s-.3,0-.5,0-.4,0-.6,0-.3-.1-.5-.3c-.1-.1-.2-.3-.3-.4,0-.2-.1-.4-.1-.6s0-.4.2-.6c.1-.2.3-.4.6-.5.3-.1.6-.3,1-.4.4,0,.9-.1,1.5-.2v-.4c0-.4,0-.7-.3-.9-.2-.2-.4-.3-.8-.3s-.4,0-.6,0c-.2,0-.3.1-.4.2-.1,0-.2.1-.3.2,0,0-.2,0-.2,0s-.1,0-.2,0c0,0,0,0-.1-.1l-.2-.3ZM283.5,58.3c-.4,0-.8,0-1.1,0-.3,0-.5.1-.7.2-.2,0-.3.2-.4.3,0,.1-.1.2-.1.4s0,.3,0,.4c0,0,.1.2.2.2,0,0,.2.1.3.1s.2,0,.3,0,.3,0,.4,0c.1,0,.3,0,.4-.1.1,0,.2-.1.3-.2.1,0,.2-.2.3-.3v-1.1Z"/>
    <path class="st3" d="M292.6,60c-.1.1-.2.3-.4.4-.2.1-.3.2-.5.2-.2,0-.4.1-.6.1-.2,0-.4,0-.6,0-.4,0-.7,0-1-.2-.3-.1-.6-.3-.8-.5-.2-.2-.4-.5-.5-.9-.1-.3-.2-.7-.2-1.2s0-.7.2-1c.1-.3.3-.6.5-.8s.5-.4.8-.5c.3-.1.6-.2,1-.2s.6,0,.9.2c.3.1.5.3.7.5s.3.4.5.7c.1.3.2.6.2,1s0,.2,0,.3c0,0,0,0-.2,0h-3.5c0,.3,0,.6.1.9,0,.2.2.4.3.6.1.2.3.3.5.4.2,0,.4.1.7.1s.4,0,.6,0c.2,0,.3-.1.4-.2s.2-.1.3-.2c0,0,.1,0,.2,0s.1,0,.2,0l.3.3ZM291.9,57.5c0-.2,0-.4,0-.6,0-.2-.1-.3-.3-.5-.1-.1-.3-.2-.4-.3-.2,0-.4-.1-.6-.1-.4,0-.8.1-1,.4s-.4.6-.5,1.1h2.9Z"/>
    <path class="st3" d="M299.5,56.3c0,0-.1.1-.2.1s-.1,0-.2,0-.1,0-.2-.1c0,0-.2,0-.3-.1-.1,0-.3,0-.5,0s-.3,0-.4,0c-.1,0-.2,0-.3.2,0,0-.2.1-.2.2,0,0,0,.2,0,.3s0,.2.1.3c0,0,.2.2.3.2.1,0,.3.1.4.2s.3.1.5.2c.2,0,.3.1.5.2s.3.2.4.3c.1.1.2.2.3.4,0,.1.1.3.1.5s0,.5-.1.7-.2.4-.4.5c-.2.1-.4.3-.6.4-.2,0-.5.1-.8.1s-.7,0-1-.2c-.3-.1-.5-.3-.8-.5l.2-.3s0,0,0-.1c0,0,0,0,.1,0s.1,0,.2,0c0,0,.2.1.2.2,0,0,.2.1.4.2.1,0,.3,0,.5,0s.3,0,.5,0,.2-.1.3-.2c0,0,.2-.2.2-.3,0-.1,0-.2,0-.3s0-.3-.1-.4-.2-.2-.3-.2c-.1,0-.3-.1-.4-.2-.2,0-.3-.1-.5-.2-.2,0-.3-.1-.5-.2-.2,0-.3-.2-.4-.3s-.2-.2-.3-.4-.1-.3-.1-.6,0-.4.1-.6c0-.2.2-.3.4-.5.2-.1.4-.2.6-.3.2,0,.5-.1.8-.1s.7,0,.9.2c.3.1.5.3.7.4l-.2.3Z"/>
    <path class="st3" d="M305.2,60c-.1.1-.2.3-.4.4-.2.1-.3.2-.5.2-.2,0-.4.1-.6.1-.2,0-.4,0-.6,0-.4,0-.7,0-1-.2-.3-.1-.6-.3-.8-.5-.2-.2-.4-.5-.5-.9-.1-.3-.2-.7-.2-1.2s0-.7.2-1c.1-.3.3-.6.5-.8s.5-.4.8-.5c.3-.1.6-.2,1-.2s.6,0,.9.2c.3.1.5.3.7.5s.3.4.5.7c.1.3.2.6.2,1s0,.2,0,.3c0,0,0,0-.2,0h-3.5c0,.3,0,.6.1.9,0,.2.2.4.3.6.1.2.3.3.5.4.2,0,.4.1.7.1s.4,0,.6,0c.2,0,.3-.1.4-.2s.2-.1.3-.2c0,0,.1,0,.2,0s.1,0,.2,0l.3.3ZM304.4,57.5c0-.2,0-.4,0-.6,0-.2-.1-.3-.3-.5-.1-.1-.3-.2-.4-.3-.2,0-.4-.1-.6-.1-.4,0-.8.1-1,.4s-.4.6-.5,1.1h2.9Z"/>
    <path class="st3" d="M307.3,55.5v5.6c0,.2,0,.4,0,.6s-.1.3-.3.5-.3.2-.5.3c-.2,0-.4.1-.7.1s-.2,0-.3,0c0,0-.2,0-.3,0v-.5s0,0,0,0,0,0,0,0c0,0,0,0,.1,0s0,0,.2,0c.3,0,.5,0,.6-.2s.2-.3.2-.6v-5.6h.9ZM307.5,53.8c0,0,0,.2,0,.2s0,.1-.1.2c0,0-.1.1-.2.1s-.2,0-.3,0-.2,0-.2,0-.1,0-.2-.1c0,0-.1-.1-.1-.2s0-.2,0-.2,0-.2,0-.3,0-.2.1-.2c0,0,.1-.1.2-.1s.2,0,.2,0,.2,0,.3,0,.1,0,.2.1c0,0,.1.1.1.2s0,.2,0,.3Z"/>
    <path class="st3" d="M308.7,56.2c.3-.3.6-.5.9-.6.3-.1.7-.2,1.1-.2s.6,0,.8.1.4.2.6.4c.2.2.3.4.3.6,0,.2.1.5.1.8v3.3h-.4c0,0-.2,0-.2,0,0,0,0,0-.1-.2v-.5c-.2.1-.4.2-.5.3-.1,0-.3.2-.4.2-.1,0-.3.1-.5.2s-.3,0-.5,0-.4,0-.6,0-.3-.1-.5-.3c-.1-.1-.2-.3-.3-.4,0-.2-.1-.4-.1-.6s0-.4.2-.6c.1-.2.3-.4.6-.5.3-.1.6-.3,1-.4.4,0,.9-.1,1.5-.2v-.4c0-.4,0-.7-.3-.9-.2-.2-.4-.3-.8-.3s-.4,0-.6,0c-.2,0-.3.1-.4.2-.1,0-.2.1-.3.2,0,0-.2,0-.2,0s-.1,0-.2,0c0,0,0,0-.1-.1l-.2-.3ZM311.7,58.3c-.4,0-.8,0-1.1,0-.3,0-.5.1-.7.2-.2,0-.3.2-.4.3,0,.1-.1.2-.1.4s0,.3,0,.4c0,0,.1.2.2.2,0,0,.2.1.3.1s.2,0,.3,0,.3,0,.4,0c.1,0,.3,0,.4-.1.1,0,.2-.1.3-.2.1,0,.2-.2.3-.3v-1.1Z"/>
    <path class="st3" d="M320.9,55.5v5.2h-.5c-.1,0-.2,0-.2-.2v-.6c-.3.2-.6.5-.8.6s-.6.2-1,.2-.5,0-.8-.1c-.2,0-.4-.2-.5-.4-.1-.2-.3-.4-.3-.6,0-.2-.1-.5-.1-.8v-3.3h.9v3.3c0,.4,0,.7.3.9.2.2.5.3.8.3s.5,0,.8-.2c.2-.1.5-.3.7-.5v-3.8h.9Z"/>
  </g>
  <path class="st3" d="M327.1,55.6h-3.6v-1.8h-.5c0,0-.1,0-.1,0,0,0,0,0,0,.1l-.2,1.6h-.9v.5c0,0,0,.1,0,.2s0,0,.1,0h.6v3.2c0,.4.1.8.3,1,.2.2.5.3.9.3s.5,0,.7-.1c.2,0,.4-.2.6-.3l-.3-.4c0,0,0,0-.1,0s0,0,0,0c0,0,0,0-.1,0s-.1,0-.2,0c0,0-.2,0-.2,0-.2,0-.3,0-.4-.2-.1-.1-.2-.3-.2-.5v-3.1h2.7v4.4h.9v-5.1ZM327.2,53.5c0,0,0-.1-.1-.2,0,0-.1-.1-.2-.1s-.2,0-.2,0-.2,0-.3,0c0,0-.1,0-.2.1,0,0-.1.1-.1.2,0,0,0,.2,0,.3s0,.2,0,.2c0,0,0,.1.1.2,0,0,.1.1.2.1,0,0,.2,0,.3,0s.2,0,.2,0c0,0,.1,0,.2-.1,0,0,.1-.1.1-.2,0,0,0-.2,0-.2s0-.2,0-.3h0Z"/>
  <g>
    <path class="st3" d="M329.5,53.1v7.6h-.9v-7.6h.9Z"/>
    <path class="st3" d="M332.2,53.8c0,0,0,.2,0,.2s0,.1-.1.2c0,0-.1.1-.2.1,0,0-.2,0-.3,0s-.2,0-.2,0-.1,0-.2-.1c0,0-.1-.1-.1-.2s0-.2,0-.2,0-.2,0-.3,0-.2.1-.2c0,0,.1-.1.2-.1s.2,0,.2,0,.2,0,.3,0c0,0,.2,0,.2.1,0,0,.1.1.1.2s0,.2,0,.3ZM332,55.5v5.2h-.9v-5.2h.9Z"/>
    <path class="st3" d="M337.1,55.9c0,0,0,.1,0,.2,0,0,0,.1,0,.2l-2.8,3.8h2.8v.7h-3.9v-.4s0,0,0-.2c0,0,0-.1,0-.2l2.8-3.8h-2.8v-.7h3.9v.4Z"/>
    <path class="st3" d="M338,56.2c.3-.3.6-.5.9-.6.3-.1.7-.2,1.1-.2s.6,0,.8.1.4.2.6.4c.2.2.3.4.3.6,0,.2.1.5.1.8v3.3h-.4c0,0-.2,0-.2,0,0,0,0,0-.1-.2v-.5c-.2.1-.4.2-.5.3-.1,0-.3.2-.4.2-.1,0-.3.1-.5.2s-.3,0-.5,0-.4,0-.6,0-.3-.1-.5-.3c-.1-.1-.2-.3-.3-.4,0-.2-.1-.4-.1-.6s0-.4.2-.6c.1-.2.3-.4.6-.5.3-.1.6-.3,1-.4.4,0,.9-.1,1.5-.2v-.4c0-.4,0-.7-.3-.9-.2-.2-.4-.3-.8-.3s-.4,0-.6,0c-.2,0-.3.1-.4.2-.1,0-.2.1-.3.2,0,0-.2,0-.2,0s-.1,0-.2,0c0,0,0,0-.1-.1l-.2-.3ZM340.9,58.3c-.4,0-.8,0-1.1,0-.3,0-.5.1-.7.2-.2,0-.3.2-.4.3,0,.1-.1.2-.1.4s0,.3,0,.4c0,0,.1.2.2.2,0,0,.2.1.3.1s.2,0,.3,0,.3,0,.4,0c.1,0,.3,0,.4-.1.1,0,.2-.1.3-.2.1,0,.2-.2.3-.3v-1.1Z"/>
    <path class="st3" d="M347.5,53.1v7.6h-.5c-.1,0-.2,0-.2-.2v-.6c-.3.3-.6.5-.8.6-.3.2-.6.2-1,.2s-.6,0-.8-.2c-.2-.1-.5-.3-.6-.5s-.3-.5-.4-.8c0-.3-.1-.7-.1-1.1s0-.7.2-1.1c.1-.3.2-.6.4-.9s.4-.4.7-.6c.3-.1.6-.2.9-.2s.6,0,.8.2c.2.1.4.3.6.5v-2.9h.9ZM346.6,56.7c-.2-.2-.4-.4-.6-.5s-.4-.1-.7-.1c-.5,0-.9.2-1.1.5-.3.3-.4.8-.4,1.5s0,.6,0,.9.1.4.3.6c.1.2.3.3.4.3.2,0,.4.1.6.1.3,0,.6,0,.8-.2.2-.1.4-.3.6-.6v-2.5Z"/>
    <path class="st3" d="M348.9,56.2c.3-.3.6-.5.9-.6.3-.1.7-.2,1.1-.2s.6,0,.8.1.4.2.6.4c.2.2.3.4.3.6,0,.2.1.5.1.8v3.3h-.4c0,0-.2,0-.2,0,0,0,0,0-.1-.2v-.5c-.2.1-.4.2-.5.3-.1,0-.3.2-.4.2-.1,0-.3.1-.5.2s-.3,0-.5,0-.4,0-.6,0-.3-.1-.5-.3c-.1-.1-.2-.3-.3-.4,0-.2-.1-.4-.1-.6s0-.4.2-.6c.1-.2.3-.4.6-.5.3-.1.6-.3,1-.4.4,0,.9-.1,1.5-.2v-.4c0-.4,0-.7-.3-.9-.2-.2-.4-.3-.8-.3s-.4,0-.6,0c-.2,0-.3.1-.4.2-.1,0-.2.1-.3.2,0,0-.2,0-.2,0s-.1,0-.2,0c0,0,0,0-.1-.1l-.2-.3ZM351.8,58.3c-.4,0-.8,0-1.1,0-.3,0-.5.1-.7.2-.2,0-.3.2-.4.3,0,.1-.1.2-.1.4s0,.3,0,.4c0,0,.1.2.2.2,0,0,.2.1.3.1s.2,0,.3,0,.3,0,.4,0c.1,0,.3,0,.4-.1.1,0,.2-.1.3-.2.1,0,.2-.2.3-.3v-1.1Z"/>
    <path class="st3" d="M360.4,56.4s0,0,0,0,0,0-.1,0-.1,0-.2,0c0,0-.1,0-.2-.1,0,0-.2,0-.3-.1s-.3,0-.5,0-.5,0-.7.1c-.2,0-.4.2-.5.4-.1.2-.2.4-.3.6,0,.2-.1.5-.1.8s0,.6.1.8c0,.2.2.5.3.6.1.2.3.3.5.4.2,0,.4.1.6.1s.4,0,.6,0c.1,0,.3-.1.4-.2,0,0,.2-.1.2-.2,0,0,.1,0,.2,0s.1,0,.2,0l.3.3c-.1.1-.2.3-.4.4-.1,0-.3.2-.5.2s-.3.1-.5.1-.4,0-.6,0c-.3,0-.6,0-.9-.2-.3-.1-.5-.3-.7-.5-.2-.2-.4-.5-.5-.8-.1-.3-.2-.7-.2-1.1s0-.7.2-1.1c.1-.3.3-.6.5-.9.2-.2.5-.4.8-.6s.7-.2,1-.2.7,0,1,.2c.3.1.5.3.7.5l-.2.3Z"/>
    <path class="st3" d="M363.8,55.4c.4,0,.7,0,1,.2.3.1.6.3.8.5s.4.5.5.8c.1.3.2.7.2,1.1s0,.8-.2,1.1c-.1.3-.3.6-.5.8s-.5.4-.8.5c-.3.1-.6.2-1,.2s-.7,0-1-.2-.6-.3-.8-.5c-.2-.2-.4-.5-.5-.8s-.2-.7-.2-1.1,0-.8.2-1.1c.1-.3.3-.6.5-.8.2-.2.5-.4.8-.5s.7-.2,1-.2ZM363.8,60c.5,0,.9-.2,1.2-.5s.4-.8.4-1.4-.1-1.1-.4-1.5c-.3-.3-.6-.5-1.2-.5s-.5,0-.7.1c-.2,0-.4.2-.5.4s-.2.4-.3.6c0,.2,0,.5,0,.8,0,.6.1,1.1.4,1.4s.6.5,1.2.5Z"/>
    <path class="st3" d="M367.5,60.7v-5.2h.6c.1,0,.2,0,.2.2v.5c.3-.2.5-.4.7-.6.2-.2.5-.2.8-.2s.6,0,.9.3.4.5.5.8c0-.2.2-.4.3-.5s.3-.2.4-.3c.1,0,.3-.2.5-.2s.3,0,.5,0c.3,0,.5,0,.7.1.2,0,.4.2.5.4s.3.4.3.6c0,.2.1.5.1.8v3.3h-.9v-3.3c0-.4,0-.7-.3-.9-.2-.2-.4-.3-.8-.3s-.3,0-.4,0c-.1,0-.3.1-.4.2-.1.1-.2.2-.2.4,0,.2,0,.3,0,.5v3.3h-.9v-3.3c0-.4,0-.7-.3-.9s-.4-.3-.7-.3-.4,0-.6.2c-.2.1-.4.3-.5.5v3.9h-.9Z"/>
    <path class="st3" d="M378.1,55.4c.4,0,.7,0,1,.2.3.1.6.3.8.5s.4.5.5.8c.1.3.2.7.2,1.1s0,.8-.2,1.1c-.1.3-.3.6-.5.8s-.5.4-.8.5c-.3.1-.6.2-1,.2s-.7,0-1-.2-.6-.3-.8-.5c-.2-.2-.4-.5-.5-.8s-.2-.7-.2-1.1,0-.8.2-1.1c.1-.3.3-.6.5-.8.2-.2.5-.4.8-.5s.7-.2,1-.2ZM378.1,60c.5,0,.9-.2,1.2-.5s.4-.8.4-1.4-.1-1.1-.4-1.5c-.3-.3-.6-.5-1.2-.5s-.5,0-.7.1c-.2,0-.4.2-.5.4s-.2.4-.3.6c0,.2,0,.5,0,.8,0,.6.1,1.1.4,1.4s.6.5,1.2.5Z"/>
    <path class="st3" d="M384.8,60.7v-4.4h-.6c0,0-.1-.1-.2-.1,0,0,0,0,0-.2v-.4h.8v-.5c0-.3,0-.6.1-.8s.2-.4.4-.6c.2-.2.3-.3.6-.4.2,0,.5-.1.7-.1s.4,0,.6.1v.5c0,0,0,.1-.2.1s-.2,0-.3,0-.3,0-.4,0c-.1,0-.2.1-.3.2,0,0-.2.2-.2.4,0,.2,0,.3,0,.6v.5h1.5v.7h-1.5v4.4h-.9Z"/>
  </g>
  <g>
    <path class="st3" d="M390,55.4c.4,0,.7,0,1,.2.3.1.6.3.8.5s.4.5.5.8c.1.3.2.7.2,1.1s0,.8-.2,1.1c-.1.3-.3.6-.5.8s-.5.4-.8.5c-.3.1-.6.2-1,.2s-.7,0-1-.2-.6-.3-.8-.5c-.2-.2-.4-.5-.5-.8s-.2-.7-.2-1.1,0-.8.2-1.1c.1-.3.3-.6.5-.8.2-.2.5-.4.8-.5s.7-.2,1-.2ZM390,60c.5,0,.9-.2,1.2-.5s.4-.8.4-1.4-.1-1.1-.4-1.5c-.3-.3-.6-.5-1.2-.5s-.5,0-.7.1c-.2,0-.4.2-.5.4s-.2.4-.3.6c0,.2,0,.5,0,.8,0,.6.1,1.1.4,1.4s.6.5,1.2.5Z"/>
    <path class="st3" d="M394.5,56.2c.1-.1.2-.2.4-.3.1-.1.3-.2.4-.3.1,0,.3-.1.5-.2.2,0,.3,0,.5,0,.3,0,.5,0,.8.1.2,0,.4.2.5.4.1.2.3.4.3.6,0,.2.1.5.1.8v3.3h-.9v-3.3c0-.4,0-.7-.3-.9-.2-.2-.5-.3-.8-.3s-.5,0-.8.2c-.2.1-.5.3-.7.5v3.8h-.9v-5.2h.6c.1,0,.2,0,.2.2v.6Z"/>
    <path class="st3" d="M400.9,60.8c-.4,0-.7-.1-.9-.3-.2-.2-.3-.6-.3-1v-3.2h-.6c0,0-.1,0-.1,0,0,0,0,0,0-.2v-.4h.9c0-.1.2-1.7.2-1.7,0,0,0,0,0-.1,0,0,0,0,.1,0h.5v1.8h1.5v.7h-1.5v3.1c0,.2,0,.4.2.5s.2.2.4.2.2,0,.2,0c0,0,.1,0,.2,0,0,0,0,0,.1,0s0,0,0,0c0,0,0,0,.1,0l.3.4c-.2.1-.3.3-.6.3-.2,0-.5.1-.7.1Z"/>
    <path class="st3" d="M407.3,60c-.1.1-.2.3-.4.4-.2.1-.3.2-.5.2-.2,0-.4.1-.6.1-.2,0-.4,0-.6,0-.4,0-.7,0-1-.2-.3-.1-.6-.3-.8-.5-.2-.2-.4-.5-.5-.9-.1-.3-.2-.7-.2-1.2s0-.7.2-1c.1-.3.3-.6.5-.8s.5-.4.8-.5c.3-.1.6-.2,1-.2s.6,0,.9.2c.3.1.5.3.7.5s.3.4.5.7c.1.3.2.6.2,1s0,.2,0,.3c0,0,0,0-.2,0h-3.5c0,.3,0,.6.1.9,0,.2.2.4.3.6.1.2.3.3.5.4.2,0,.4.1.7.1s.4,0,.6,0c.2,0,.3-.1.4-.2s.2-.1.3-.2c0,0,.1,0,.2,0s.1,0,.2,0l.3.3ZM406.5,57.5c0-.2,0-.4,0-.6,0-.2-.1-.3-.3-.5-.1-.1-.3-.2-.4-.3-.2,0-.4-.1-.6-.1-.4,0-.8.1-1,.4s-.4.6-.5,1.1h2.9Z"/>
    <path class="st3" d="M415.4,53.1v7.6h-.5c-.1,0-.2,0-.2-.2v-.6c-.3.3-.6.5-.8.6-.3.2-.6.2-1,.2s-.6,0-.8-.2c-.2-.1-.5-.3-.6-.5s-.3-.5-.4-.8c0-.3-.1-.7-.1-1.1s0-.7.2-1.1c.1-.3.2-.6.4-.9s.4-.4.7-.6c.3-.1.6-.2.9-.2s.6,0,.8.2c.2.1.4.3.6.5v-2.9h.9ZM414.5,56.7c-.2-.2-.4-.4-.6-.5s-.4-.1-.7-.1c-.5,0-.9.2-1.1.5-.3.3-.4.8-.4,1.5s0,.6,0,.9.1.4.3.6c.1.2.3.3.4.3.2,0,.4.1.6.1.3,0,.6,0,.8-.2.2-.1.4-.3.6-.6v-2.5Z"/>
    <path class="st3" d="M421.1,60c-.1.1-.2.3-.4.4-.2.1-.3.2-.5.2-.2,0-.4.1-.6.1-.2,0-.4,0-.6,0-.4,0-.7,0-1-.2-.3-.1-.6-.3-.8-.5-.2-.2-.4-.5-.5-.9-.1-.3-.2-.7-.2-1.2s0-.7.2-1c.1-.3.3-.6.5-.8s.5-.4.8-.5c.3-.1.6-.2,1-.2s.6,0,.9.2c.3.1.5.3.7.5s.3.4.5.7c.1.3.2.6.2,1s0,.2,0,.3c0,0,0,0-.2,0h-3.5c0,.3,0,.6.1.9,0,.2.2.4.3.6.1.2.3.3.5.4.2,0,.4.1.7.1s.4,0,.6,0c.2,0,.3-.1.4-.2s.2-.1.3-.2c0,0,.1,0,.2,0s.1,0,.2,0l.3.3ZM420.4,57.5c0-.2,0-.4,0-.6,0-.2-.1-.3-.3-.5-.1-.1-.3-.2-.4-.3-.2,0-.4-.1-.6-.1-.4,0-.8.1-1,.4s-.4.6-.5,1.1h2.9Z"/>
    <path class="st3" d="M429.2,60c-.1.1-.2.3-.4.4-.2.1-.3.2-.5.2-.2,0-.4.1-.6.1-.2,0-.4,0-.6,0-.4,0-.7,0-1-.2-.3-.1-.6-.3-.8-.5-.2-.2-.4-.5-.5-.9-.1-.3-.2-.7-.2-1.2s0-.7.2-1c.1-.3.3-.6.5-.8s.5-.4.8-.5c.3-.1.6-.2,1-.2s.6,0,.9.2c.3.1.5.3.7.5s.3.4.5.7c.1.3.2.6.2,1s0,.2,0,.3c0,0,0,0-.2,0h-3.5c0,.3,0,.6.1.9,0,.2.2.4.3.6.1.2.3.3.5.4.2,0,.4.1.7.1s.4,0,.6,0c.2,0,.3-.1.4-.2s.2-.1.3-.2c0,0,.1,0,.2,0s.1,0,.2,0l.3.3ZM428.4,57.5c0-.2,0-.4,0-.6,0-.2-.1-.3-.3-.5-.1-.1-.3-.2-.4-.3-.2,0-.4-.1-.6-.1-.4,0-.8.1-1,.4s-.4.6-.5,1.1h2.9Z"/>
    <path class="st3" d="M431.2,56.2c.1-.1.2-.2.4-.3.1-.1.3-.2.4-.3.1,0,.3-.1.5-.2.2,0,.3,0,.5,0,.3,0,.5,0,.8.1.2,0,.4.2.5.4.1.2.3.4.3.6,0,.2.1.5.1.8v3.3h-.9v-3.3c0-.4,0-.7-.3-.9-.2-.2-.5-.3-.8-.3s-.5,0-.8.2c-.2.1-.5.3-.7.5v3.8h-.9v-5.2h.6c.1,0,.2,0,.2.2v.6Z"/>
    <path class="st3" d="M440.3,60c-.1.1-.2.3-.4.4-.2.1-.3.2-.5.2-.2,0-.4.1-.6.1-.2,0-.4,0-.6,0-.4,0-.7,0-1-.2-.3-.1-.6-.3-.8-.5-.2-.2-.4-.5-.5-.9-.1-.3-.2-.7-.2-1.2s0-.7.2-1c.1-.3.3-.6.5-.8s.5-.4.8-.5c.3-.1.6-.2,1-.2s.6,0,.9.2c.3.1.5.3.7.5s.3.4.5.7c.1.3.2.6.2,1s0,.2,0,.3c0,0,0,0-.2,0h-3.5c0,.3,0,.6.1.9,0,.2.2.4.3.6.1.2.3.3.5.4.2,0,.4.1.7.1s.4,0,.6,0c.2,0,.3-.1.4-.2s.2-.1.3-.2c0,0,.1,0,.2,0s.1,0,.2,0l.3.3ZM439.6,57.5c0-.2,0-.4,0-.6,0-.2-.1-.3-.3-.5-.1-.1-.3-.2-.4-.3-.2,0-.4-.1-.6-.1-.4,0-.8.1-1,.4s-.4.6-.5,1.1h2.9Z"/>
    <path class="st3" d="M442.4,56.5c.2-.4.4-.6.6-.8.2-.2.5-.3.9-.3s.2,0,.3,0c.1,0,.2,0,.3.1v.7c0,0-.1.1-.2.1s-.1,0-.2,0c0,0-.2,0-.3,0s-.3,0-.4,0-.2.1-.3.2c-.1,0-.2.2-.3.4,0,.1-.2.3-.2.5v3.3h-.9v-5.2h.5c0,0,.2,0,.2,0s0,.1,0,.2v.8Z"/>
  </g>
  <g>
    <path class="st3" d="M449.5,55.7v.3c0,.1,0,.2-.2.2h-.6c.1.3.2.6.2.8s0,.5-.1.7c0,.2-.2.4-.4.5-.2.1-.4.3-.6.3-.2,0-.5.1-.8.1s-.5,0-.7,0c-.1,0-.2.1-.3.2,0,0,0,.2,0,.2,0,.1,0,.2.2.3.1,0,.2.1.4.1.2,0,.4,0,.6,0,.2,0,.4,0,.6,0,.2,0,.4,0,.6,0s.4,0,.6.2c.2,0,.3.2.4.4.1.2.2.3.2.6s0,.4-.2.6c-.1.2-.3.4-.5.6-.2.2-.5.3-.8.4-.3,0-.6.1-1,.1s-.7,0-1-.1c-.3,0-.5-.2-.7-.3s-.3-.3-.4-.4c0-.2-.1-.3-.1-.5s0-.5.2-.7.4-.3.7-.4c-.2,0-.3-.2-.4-.3,0-.1-.1-.3-.1-.5s0-.2,0-.2c0,0,0-.2.1-.2,0,0,.1-.2.2-.2s.2-.1.3-.2c-.3-.1-.5-.3-.6-.6-.1-.2-.2-.5-.2-.8s0-.5.1-.7c0-.2.2-.4.4-.5.2-.1.4-.3.6-.3.2,0,.5-.1.8-.1s.4,0,.6,0c.2,0,.4.1.5.2h1.4ZM448.5,61c0-.1,0-.2-.1-.3,0,0-.2-.1-.3-.2-.1,0-.3,0-.4,0-.2,0-.3,0-.5,0-.2,0-.4,0-.5,0-.2,0-.4,0-.5,0-.2,0-.3.2-.5.3-.1.1-.2.3-.2.5s0,.2,0,.3c0,.1.2.2.3.3.1,0,.3.1.5.2.2,0,.4,0,.7,0s.5,0,.7,0c.2,0,.4-.1.5-.2.1,0,.2-.2.3-.3s.1-.2.1-.4ZM446.9,58.1c.2,0,.3,0,.5,0s.3-.1.4-.2c0,0,.2-.2.2-.3s0-.3,0-.4c0-.3,0-.6-.3-.8-.2-.2-.5-.3-.8-.3s-.7,0-.8.3c-.2.2-.3.4-.3.8s0,.3,0,.4.1.2.2.3c0,0,.2.2.4.2s.3,0,.5,0Z"/>
    <path class="st3" d="M451.6,53.8c0,0,0,.2,0,.2s0,.1-.1.2c0,0-.1.1-.2.1,0,0-.2,0-.3,0s-.2,0-.2,0-.1,0-.2-.1c0,0-.1-.1-.1-.2s0-.2,0-.2,0-.2,0-.3,0-.2.1-.2c0,0,.1-.1.2-.1s.2,0,.2,0,.2,0,.3,0c0,0,.2,0,.2.1,0,0,.1.1.1.2s0,.2,0,.3ZM451.4,55.5v5.2h-.9v-5.2h.9Z"/>
    <path class="st3" d="M452.8,56.2c.3-.3.6-.5.9-.6.3-.1.7-.2,1.1-.2s.6,0,.8.1.4.2.6.4c.2.2.3.4.3.6,0,.2.1.5.1.8v3.3h-.4c0,0-.2,0-.2,0,0,0,0,0-.1-.2v-.5c-.2.1-.4.2-.5.3-.1,0-.3.2-.4.2-.1,0-.3.1-.5.2s-.3,0-.5,0-.4,0-.6,0-.3-.1-.5-.3c-.1-.1-.2-.3-.3-.4,0-.2-.1-.4-.1-.6s0-.4.2-.6c.1-.2.3-.4.6-.5.3-.1.6-.3,1-.4.4,0,.9-.1,1.5-.2v-.4c0-.4,0-.7-.3-.9-.2-.2-.4-.3-.8-.3s-.4,0-.6,0c-.2,0-.3.1-.4.2-.1,0-.2.1-.3.2,0,0-.2,0-.2,0s-.1,0-.2,0c0,0,0,0-.1-.1l-.2-.3ZM455.7,58.3c-.4,0-.8,0-1.1,0-.3,0-.5.1-.7.2-.2,0-.3.2-.4.3,0,.1-.1.2-.1.4s0,.3,0,.4c0,0,.1.2.2.2,0,0,.2.1.3.1s.2,0,.3,0,.3,0,.4,0c.1,0,.3,0,.4-.1.1,0,.2-.1.3-.2.1,0,.2-.2.3-.3v-1.1Z"/>
    <path class="st3" d="M457.8,60.1c0,0,0-.2,0-.3,0,0,0-.1.1-.2s.1-.1.2-.1c0,0,.2,0,.3,0s.2,0,.3,0c0,0,.1,0,.2.1s.1.1.1.2c0,0,0,.2,0,.3s0,.2,0,.3c0,0,0,.1-.1.2,0,0-.1.1-.2.1s-.2,0-.3,0-.2,0-.3,0-.1,0-.2-.1c0,0-.1-.1-.1-.2,0,0,0-.2,0-.3Z"/>
  </g>
  <g>
    <path class="st3" d="M11.9,81v2.8c-.4.3-.8.5-1.2.6-.4.1-.9.2-1.4.2s-1.1,0-1.6-.3c-.5-.2-.9-.4-1.2-.8s-.6-.7-.8-1.2-.3-1-.3-1.5,0-1.1.3-1.5.4-.9.8-1.2c.3-.3.7-.6,1.2-.8.5-.2,1-.3,1.6-.3s.6,0,.8,0,.5.1.7.2c.2,0,.4.2.6.3s.4.2.5.4l-.3.5c0,0-.1.1-.2.1,0,0-.1,0-.2,0,0,0-.2-.1-.3-.2-.1,0-.2-.1-.4-.2-.2,0-.3-.1-.5-.2s-.5,0-.7,0c-.4,0-.8,0-1.1.2-.3.1-.6.3-.9.6-.2.3-.4.6-.5.9-.1.4-.2.8-.2,1.2s0,.9.2,1.2c.1.4.3.7.6.9.2.3.5.4.9.6.3.1.7.2,1.2.2s.6,0,.9-.1c.3,0,.5-.2.8-.3v-1.6h-1.1c0,0-.1,0-.2,0,0,0,0,0,0-.1v-.6h2.3Z"/>
    <path class="st3" d="M14.1,76.9v7.6h-.9v-7.6h.9Z"/>
    <path class="st3" d="M19.8,79.3v5.2h-.5c-.1,0-.2,0-.2-.2v-.6c-.3.2-.6.5-.8.6s-.6.2-1,.2-.5,0-.8-.1c-.2,0-.4-.2-.5-.4-.1-.2-.3-.4-.3-.6,0-.2-.1-.5-.1-.8v-3.3h.9v3.3c0,.4,0,.7.3.9.2.2.5.3.8.3s.5,0,.8-.2c.2-.1.5-.3.7-.5v-3.8h.9Z"/>
    <path class="st3" d="M24.9,80.2s0,0,0,0c0,0,0,0-.1,0s-.1,0-.2,0c0,0-.1,0-.2-.1,0,0-.2,0-.3-.1-.1,0-.3,0-.5,0s-.5,0-.7.1c-.2,0-.4.2-.5.4-.1.2-.2.4-.3.6s-.1.5-.1.8,0,.6.1.8c0,.2.2.5.3.6.1.2.3.3.5.4.2,0,.4.1.6.1s.4,0,.6,0,.3-.1.4-.2c0,0,.2-.1.2-.2,0,0,.1,0,.2,0s.1,0,.2,0l.3.3c-.1.1-.2.3-.4.4-.1,0-.3.2-.5.2s-.3.1-.5.1c-.2,0-.4,0-.6,0-.3,0-.6,0-.9-.2-.3-.1-.5-.3-.7-.5-.2-.2-.4-.5-.5-.8s-.2-.7-.2-1.1,0-.7.2-1.1c.1-.3.3-.6.5-.9s.5-.4.8-.6c.3-.1.7-.2,1-.2s.7,0,1,.2c.3.1.5.3.7.5l-.2.3Z"/>
    <path class="st3" d="M26,80c.3-.3.6-.5.9-.6.3-.1.7-.2,1.1-.2s.6,0,.8.1c.2,0,.4.2.6.4.2.2.3.4.4.6,0,.2.1.5.1.8v3.3h-.4c0,0-.2,0-.2,0,0,0,0,0-.1-.2v-.5c-.2.1-.4.2-.5.3-.1,0-.3.2-.4.2s-.3.1-.5.2c-.2,0-.3,0-.5,0s-.4,0-.6,0c-.2,0-.3-.1-.5-.3-.1-.1-.2-.3-.3-.4,0-.2-.1-.4-.1-.6s0-.4.2-.6c.1-.2.3-.4.6-.5.3-.1.6-.3,1-.4.4,0,.9-.1,1.5-.2v-.4c0-.4,0-.7-.3-.9-.2-.2-.4-.3-.8-.3s-.4,0-.6,0c-.2,0-.3.1-.4.2-.1,0-.2.1-.3.2s-.2,0-.2,0-.1,0-.2,0c0,0,0,0-.1-.1l-.2-.3ZM29,82.2c-.4,0-.8,0-1.1,0-.3,0-.5.1-.7.2s-.3.2-.4.3c0,.1-.1.2-.1.4s0,.3,0,.4c0,0,.1.2.2.2,0,0,.2.1.3.1s.2,0,.3,0,.3,0,.4,0c.1,0,.3,0,.4-.1s.2-.1.3-.2c.1,0,.2-.2.3-.3v-1.1Z"/>
    <path class="st3" d="M35.6,79.5v.3c0,.1,0,.2-.2.2h-.6c.1.3.2.6.2.8s0,.5-.1.7c0,.2-.2.4-.4.5s-.4.3-.6.3c-.2,0-.5.1-.8.1s-.5,0-.7,0c-.1,0-.2.1-.3.2,0,0,0,.2,0,.2,0,.1,0,.2.2.3.1,0,.2.1.4.1.2,0,.4,0,.6,0,.2,0,.4,0,.6,0s.4,0,.6,0,.4,0,.6.2c.2,0,.3.2.4.4.1.2.2.3.2.6s0,.4-.2.6c-.1.2-.3.4-.5.6-.2.2-.5.3-.8.4-.3,0-.6.1-1,.1s-.7,0-1-.1-.5-.2-.7-.3c-.2-.1-.3-.3-.4-.4s-.1-.3-.1-.5,0-.5.2-.7c.2-.2.4-.3.7-.4-.2,0-.3-.2-.4-.3,0-.1-.1-.3-.1-.5s0-.2,0-.2c0,0,0-.2.1-.2,0,0,.1-.2.2-.2,0,0,.2-.1.3-.2-.3-.1-.5-.3-.6-.6s-.2-.5-.2-.8,0-.5.1-.7c0-.2.2-.4.4-.5.2-.1.4-.3.6-.3.2,0,.5-.1.8-.1s.4,0,.6,0c.2,0,.4.1.5.2h1.4ZM34.7,84.8c0-.1,0-.2-.1-.3,0,0-.2-.1-.3-.2s-.3,0-.4,0c-.2,0-.3,0-.5,0-.2,0-.4,0-.5,0s-.4,0-.5,0c-.2,0-.3.2-.5.3-.1.1-.2.3-.2.5s0,.2,0,.3c0,.1.2.2.3.3s.3.1.5.2.4,0,.7,0,.5,0,.7,0c.2,0,.4-.1.5-.2.1,0,.2-.2.3-.3,0-.1.1-.2.1-.4ZM33,82c.2,0,.3,0,.5,0s.3-.1.4-.2c0,0,.2-.2.2-.3,0-.1,0-.3,0-.4,0-.3,0-.6-.3-.8-.2-.2-.5-.3-.8-.3s-.7,0-.8.3c-.2.2-.3.4-.3.8s0,.3,0,.4.1.2.2.3c0,0,.2.2.4.2s.3,0,.5,0Z"/>
    <path class="st3" d="M38.7,79.2c.4,0,.7,0,1,.2.3.1.6.3.8.5s.4.5.5.8c.1.3.2.7.2,1.1s0,.8-.2,1.1c-.1.3-.3.6-.5.8s-.5.4-.8.5c-.3.1-.6.2-1,.2s-.7,0-1-.2c-.3-.1-.6-.3-.8-.5-.2-.2-.4-.5-.5-.8s-.2-.7-.2-1.1,0-.8.2-1.1c.1-.3.3-.6.5-.8.2-.2.5-.4.8-.5.3-.1.7-.2,1-.2ZM38.7,83.9c.5,0,.9-.2,1.2-.5s.4-.8.4-1.4-.1-1.1-.4-1.5c-.3-.3-.6-.5-1.2-.5s-.5,0-.7.1c-.2,0-.4.2-.5.4-.1.2-.2.4-.3.6,0,.2,0,.5,0,.8,0,.6.1,1.1.4,1.4.3.3.6.5,1.2.5Z"/>
  </g>
  <path class="st3" d="M43.3,80.1c.1-.1.2-.2.4-.3.1-.1.3-.2.4-.3.1,0,.3-.1.5-.2.2,0,.3,0,.5,0,.3,0,.5,0,.8.1.2,0,.4.2.5.4.1.2.3.4.3.6,0,.2.1.5.1.8v3.3h-.9v-3.3c0-.4,0-.7-.3-.9-.2-.2-.5-.3-.8-.3s-.5,0-.8.2-.5.3-.7.5v3.8h-.9v-5.2h.6c.1,0,.2,0,.2.2v.6Z"/>
  <g>
    <path class="st3" d="M183.9,71.8h-2.4v6.5h-1v-6.5h-2.4v-.8h5.8v.8Z"/>
    <path class="st3" d="M187.7,77.6c-.1.1-.2.3-.4.4-.2.1-.3.2-.5.2-.2,0-.4.1-.6.1-.2,0-.4,0-.6,0-.4,0-.7,0-1-.2-.3-.1-.6-.3-.8-.5s-.4-.5-.5-.9c-.1-.3-.2-.7-.2-1.2s0-.7.2-1c.1-.3.3-.6.5-.8.2-.2.5-.4.8-.5.3-.1.6-.2,1-.2s.6,0,.9.2c.3.1.5.3.7.5s.3.4.5.7c.1.3.2.6.2,1s0,.2,0,.3c0,0,0,0-.2,0h-3.5c0,.3,0,.6.1.9s.2.4.3.6c.1.2.3.3.5.4.2,0,.4.1.7.1s.4,0,.6,0c.2,0,.3-.1.4-.2s.2-.1.3-.2c0,0,.1,0,.2,0s.1,0,.2,0l.3.3ZM187,75.2c0-.2,0-.4,0-.6,0-.2-.1-.3-.3-.5-.1-.1-.3-.2-.4-.3s-.4-.1-.6-.1c-.4,0-.8.1-1,.4-.3.3-.4.6-.5,1.1h2.9Z"/>
  </g>
  <g>
    <path class="st3" d="M188.9,78.3v-5.2h.6c.1,0,.2,0,.2.2v.5c.3-.2.5-.4.7-.6.2-.2.5-.2.8-.2s.6,0,.9.3.4.5.5.8c0-.2.2-.4.3-.5.1-.1.3-.2.4-.3.1,0,.3-.2.5-.2s.3,0,.5,0c.3,0,.5,0,.7.1.2,0,.4.2.5.4.1.2.3.4.3.6,0,.2.1.5.1.8v3.3h-.9v-3.3c0-.4,0-.7-.3-.9-.2-.2-.4-.3-.8-.3s-.3,0-.4,0c-.1,0-.3.1-.4.2-.1.1-.2.2-.2.4s0,.3,0,.5v3.3h-.9v-3.3c0-.4,0-.7-.3-.9-.2-.2-.4-.3-.7-.3s-.4,0-.6.2-.4.3-.5.5v3.9h-.9Z"/>
    <path class="st3" d="M199.9,73.9c.3-.3.6-.5.9-.6.3-.1.7-.2,1.1-.2s.6,0,.8.1.4.2.6.4c.2.2.3.4.3.6,0,.2.1.5.1.8v3.3h-.4c0,0-.2,0-.2,0,0,0,0,0-.1-.2v-.5c-.2.1-.4.2-.5.3-.1,0-.3.2-.4.2-.1,0-.3.1-.5.2s-.3,0-.5,0-.4,0-.6,0-.3-.1-.5-.3c-.1-.1-.2-.3-.3-.4,0-.2-.1-.4-.1-.6s0-.4.2-.6c.1-.2.3-.4.6-.5.3-.1.6-.3,1-.4.4,0,.9-.1,1.5-.2v-.4c0-.4,0-.7-.3-.9-.2-.2-.4-.3-.8-.3s-.4,0-.6,0c-.2,0-.3.1-.4.2-.1,0-.2.1-.3.2,0,0-.2,0-.2,0s-.1,0-.2,0c0,0,0,0-.1-.1l-.2-.3ZM202.8,76c-.4,0-.8,0-1.1,0-.3,0-.5.1-.7.2-.2,0-.3.2-.4.3,0,.1-.1.2-.1.4s0,.3,0,.4c0,0,.1.2.2.2,0,0,.2.1.3.1s.2,0,.3,0,.3,0,.4,0c.1,0,.3,0,.4-.1.1,0,.2-.1.3-.2.1,0,.2-.2.3-.3v-1.1Z"/>
    <path class="st3" d="M208.1,78.3v-4.4h-.6c0,0-.1-.1-.2-.1,0,0,0,0,0-.2v-.4h.8v-.5c0-.3,0-.6.1-.8s.2-.4.4-.6c.2-.2.3-.3.6-.4.2,0,.5-.1.7-.1s.4,0,.6.1v.5c0,0,0,.1-.2.1s-.2,0-.3,0-.3,0-.4,0c-.1,0-.2.1-.3.2,0,0-.2.2-.2.4,0,.2,0,.3,0,.6v.5h1.5v.7h-1.5v4.4h-.9Z"/>
    <path class="st3" d="M215.7,73.1v5.2h-.5c-.1,0-.2,0-.2-.2v-.6c-.3.2-.6.5-.8.6s-.6.2-1,.2-.5,0-.8-.1c-.2,0-.4-.2-.5-.4-.1-.2-.3-.4-.3-.6,0-.2-.1-.5-.1-.8v-3.3h.9v3.3c0,.4,0,.7.3.9.2.2.5.3.8.3s.5,0,.8-.2c.2-.1.5-.3.7-.5v-3.8h.9Z"/>
    <path class="st3" d="M218,73.9c.1-.1.2-.2.4-.3.1-.1.3-.2.4-.3.1,0,.3-.1.5-.2.2,0,.3,0,.5,0,.3,0,.5,0,.8.1.2,0,.4.2.5.4.1.2.3.4.3.6,0,.2.1.5.1.8v3.3h-.9v-3.3c0-.4,0-.7-.3-.9-.2-.2-.5-.3-.8-.3s-.5,0-.8.2c-.2.1-.5.3-.7.5v3.8h-.9v-5.2h.6c.1,0,.2,0,.2.2v.6Z"/>
    <path class="st3" d="M226.8,77.6c-.2.2-.4.4-.7.6-.3.1-.6.2-.9.2v.3c.2,0,.5.2.6.3.1.1.2.3.2.5s0,.2,0,.3c0,0-.1.2-.2.2,0,0-.2.1-.3.1s-.3,0-.5,0-.3,0-.4,0c-.1,0-.2,0-.3-.1v-.3c.1,0,.1,0,.2,0s0,0,0,0c0,0,0,0,.1,0,0,0,0,0,.1,0s.1,0,.2,0c.1,0,.3,0,.3,0,0,0,.1-.1.1-.2,0-.1,0-.2-.2-.3-.1,0-.3,0-.6-.1l.2-.6c-.3,0-.6-.1-.8-.2-.3-.1-.5-.3-.7-.5-.2-.2-.3-.5-.4-.8-.1-.3-.2-.7-.2-1.1s0-.7.2-1.1c.1-.3.3-.6.5-.9.2-.2.5-.4.8-.6s.7-.2,1-.2.7,0,1,.2c.3.1.5.3.7.5l-.2.3s0,0,0,0,0,0-.1,0-.1,0-.2,0c0,0-.1,0-.2-.1,0,0-.2,0-.3-.1s-.3,0-.5,0-.5,0-.7.1c-.2,0-.4.2-.5.4-.1.2-.2.4-.3.6,0,.2-.1.5-.1.8s0,.6.1.8c0,.2.2.5.3.6.1.2.3.3.5.4.2,0,.4.1.6.1s.4,0,.6,0c.1,0,.3-.1.4-.2,0,0,.2-.1.2-.2,0,0,.1,0,.2,0s.1,0,.2,0l.3.3Z"/>
    <path class="st3" d="M227.6,73.9c.3-.3.6-.5.9-.6.3-.1.7-.2,1.1-.2s.6,0,.8.1.4.2.6.4c.2.2.3.4.3.6,0,.2.1.5.1.8v3.3h-.4c0,0-.2,0-.2,0,0,0,0,0-.1-.2v-.5c-.2.1-.4.2-.5.3-.1,0-.3.2-.4.2-.1,0-.3.1-.5.2s-.3,0-.5,0-.4,0-.6,0-.3-.1-.5-.3c-.1-.1-.2-.3-.3-.4,0-.2-.1-.4-.1-.6s0-.4.2-.6c.1-.2.3-.4.6-.5.3-.1.6-.3,1-.4.4,0,.9-.1,1.5-.2v-.4c0-.4,0-.7-.3-.9-.2-.2-.4-.3-.8-.3s-.4,0-.6,0c-.2,0-.3.1-.4.2-.1,0-.2.1-.3.2,0,0-.2,0-.2,0s-.1,0-.2,0c0,0,0,0-.1-.1l-.2-.3ZM230.1,71.5c.1,0,.2,0,.3-.1,0,0,.1-.2.1-.3h.6c0,.2,0,.3,0,.4,0,.1-.1.3-.2.3,0,0-.2.2-.3.2-.1,0-.2,0-.4,0s-.2,0-.3,0c-.1,0-.2-.1-.3-.2s-.2-.1-.3-.2-.2,0-.2,0c-.2,0-.4.2-.4.5h-.6c0-.2,0-.3,0-.5,0-.1.1-.3.2-.3s.2-.2.3-.2c.1,0,.2,0,.4,0s.2,0,.3,0,.2.1.3.2c0,0,.2.1.3.2,0,0,.2,0,.2,0ZM230.6,76c-.4,0-.8,0-1.1,0-.3,0-.5.1-.7.2-.2,0-.3.2-.4.3,0,.1-.1.2-.1.4s0,.3,0,.4c0,0,.1.2.2.2,0,0,.2.1.3.1s.2,0,.3,0,.3,0,.4,0c.1,0,.3,0,.4-.1.1,0,.2-.1.3-.2.1,0,.2-.2.3-.3v-1.1Z"/>
    <path class="st3" d="M235.1,73c.4,0,.7,0,1,.2.3.1.6.3.8.5s.4.5.5.8c.1.3.2.7.2,1.1s0,.8-.2,1.1c-.1.3-.3.6-.5.8s-.5.4-.8.5c-.3.1-.6.2-1,.2s-.7,0-1-.2-.6-.3-.8-.5c-.2-.2-.4-.5-.5-.8s-.2-.7-.2-1.1,0-.8.2-1.1c.1-.3.3-.6.5-.8.2-.2.5-.4.8-.5s.7-.2,1-.2ZM235.1,77.7c.5,0,.9-.2,1.2-.5s.4-.8.4-1.4-.1-1.1-.4-1.5c-.3-.3-.6-.5-1.2-.5s-.5,0-.7.1c-.2,0-.4.2-.5.4s-.2.4-.3.6c0,.2,0,.5,0,.8,0,.6.1,1.1.4,1.4s.6.5,1.2.5Z"/>
    <path class="st3" d="M245.7,70.8v7.6h-.5c-.1,0-.2,0-.2-.2v-.6c-.3.3-.6.5-.8.6-.3.2-.6.2-1,.2s-.6,0-.8-.2c-.2-.1-.5-.3-.6-.5s-.3-.5-.4-.8c0-.3-.1-.7-.1-1.1s0-.7.2-1.1c.1-.3.2-.6.4-.9s.4-.4.7-.6c.3-.1.6-.2.9-.2s.6,0,.8.2c.2.1.4.3.6.5v-2.9h.9ZM244.7,74.4c-.2-.2-.4-.4-.6-.5s-.4-.1-.7-.1c-.5,0-.9.2-1.1.5-.3.3-.4.8-.4,1.5s0,.6,0,.9.1.4.3.6c.1.2.3.3.4.3.2,0,.4.1.6.1.3,0,.6,0,.8-.2.2-.1.4-.3.6-.6v-2.5Z"/>
    <path class="st3" d="M251.3,77.6c-.1.1-.2.3-.4.4-.2.1-.3.2-.5.2-.2,0-.4.1-.6.1-.2,0-.4,0-.6,0-.4,0-.7,0-1-.2-.3-.1-.6-.3-.8-.5-.2-.2-.4-.5-.5-.9-.1-.3-.2-.7-.2-1.2s0-.7.2-1c.1-.3.3-.6.5-.8s.5-.4.8-.5c.3-.1.6-.2,1-.2s.6,0,.9.2c.3.1.5.3.7.5s.3.4.5.7c.1.3.2.6.2,1s0,.2,0,.3c0,0,0,0-.2,0h-3.5c0,.3,0,.6.1.9,0,.2.2.4.3.6.1.2.3.3.5.4.2,0,.4.1.7.1s.4,0,.6,0c.2,0,.3-.1.4-.2s.2-.1.3-.2c0,0,.1,0,.2,0s.1,0,.2,0l.3.3ZM250.6,75.2c0-.2,0-.4,0-.6,0-.2-.1-.3-.3-.5-.1-.1-.3-.2-.4-.3-.2,0-.4-.1-.6-.1-.4,0-.8.1-1,.4s-.4.6-.5,1.1h2.9Z"/>
    <path class="st3" d="M255,73.9c.3-.3.6-.5.9-.6.3-.1.7-.2,1.1-.2s.6,0,.8.1.4.2.6.4c.2.2.3.4.3.6,0,.2.1.5.1.8v3.3h-.4c0,0-.2,0-.2,0,0,0,0,0-.1-.2v-.5c-.2.1-.4.2-.5.3-.1,0-.3.2-.4.2-.1,0-.3.1-.5.2s-.3,0-.5,0-.4,0-.6,0-.3-.1-.5-.3c-.1-.1-.2-.3-.3-.4,0-.2-.1-.4-.1-.6s0-.4.2-.6c.1-.2.3-.4.6-.5.3-.1.6-.3,1-.4.4,0,.9-.1,1.5-.2v-.4c0-.4,0-.7-.3-.9-.2-.2-.4-.3-.8-.3s-.4,0-.6,0c-.2,0-.3.1-.4.2-.1,0-.2.1-.3.2,0,0-.2,0-.2,0s-.1,0-.2,0c0,0,0,0-.1-.1l-.2-.3ZM258,76c-.4,0-.8,0-1.1,0-.3,0-.5.1-.7.2-.2,0-.3.2-.4.3,0,.1-.1.2-.1.4s0,.3,0,.4c0,0,.1.2.2.2,0,0,.2.1.3.1s.2,0,.3,0,.3,0,.4,0c.1,0,.3,0,.4-.1.1,0,.2-.1.3-.2.1,0,.2-.2.3-.3v-1.1Z"/>
    <path class="st3" d="M264.6,73.1v5.2h-.5c-.1,0-.2,0-.2-.2v-.6c-.3.2-.6.5-.8.6s-.6.2-1,.2-.5,0-.8-.1c-.2,0-.4-.2-.5-.4-.1-.2-.3-.4-.3-.6,0-.2-.1-.5-.1-.8v-3.3h.9v3.3c0,.4,0,.7.3.9.2.2.5.3.8.3s.5,0,.8-.2c.2-.1.5-.3.7-.5v-3.8h.9Z"/>
    <path class="st3" d="M266,78.3v-5.2h.6c.1,0,.2,0,.2.2v.5c.3-.2.5-.4.7-.6.2-.2.5-.2.8-.2s.6,0,.9.3.4.5.5.8c0-.2.2-.4.3-.5s.3-.2.4-.3c.1,0,.3-.2.5-.2s.3,0,.5,0c.3,0,.5,0,.7.1.2,0,.4.2.5.4s.3.4.3.6c0,.2.1.5.1.8v3.3h-.9v-3.3c0-.4,0-.7-.3-.9-.2-.2-.4-.3-.8-.3s-.3,0-.4,0c-.1,0-.3.1-.4.2-.1.1-.2.2-.2.4,0,.2,0,.3,0,.5v3.3h-.9v-3.3c0-.4,0-.7-.3-.9s-.4-.3-.7-.3-.4,0-.6.2c-.2.1-.4.3-.5.5v3.9h-.9Z"/>
    <path class="st3" d="M278.7,77.6c-.1.1-.2.3-.4.4-.2.1-.3.2-.5.2-.2,0-.4.1-.6.1-.2,0-.4,0-.6,0-.4,0-.7,0-1-.2-.3-.1-.6-.3-.8-.5-.2-.2-.4-.5-.5-.9-.1-.3-.2-.7-.2-1.2s0-.7.2-1c.1-.3.3-.6.5-.8s.5-.4.8-.5c.3-.1.6-.2,1-.2s.6,0,.9.2c.3.1.5.3.7.5s.3.4.5.7c.1.3.2.6.2,1s0,.2,0,.3c0,0,0,0-.2,0h-3.5c0,.3,0,.6.1.9,0,.2.2.4.3.6.1.2.3.3.5.4.2,0,.4.1.7.1s.4,0,.6,0c.2,0,.3-.1.4-.2s.2-.1.3-.2c0,0,.1,0,.2,0s.1,0,.2,0l.3.3ZM278,75.2c0-.2,0-.4,0-.6,0-.2-.1-.3-.3-.5-.1-.1-.3-.2-.4-.3-.2,0-.4-.1-.6-.1-.4,0-.8.1-1,.4s-.4.6-.5,1.1h2.9Z"/>
    <path class="st3" d="M280.8,73.9c.1-.1.2-.2.4-.3.1-.1.3-.2.4-.3.1,0,.3-.1.5-.2.2,0,.3,0,.5,0,.3,0,.5,0,.8.1.2,0,.4.2.5.4.1.2.3.4.3.6,0,.2.1.5.1.8v3.3h-.9v-3.3c0-.4,0-.7-.3-.9-.2-.2-.5-.3-.8-.3s-.5,0-.8.2c-.2.1-.5.3-.7.5v3.8h-.9v-5.2h.6c.1,0,.2,0,.2.2v.6Z"/>
    <path class="st3" d="M287.3,78.4c-.4,0-.7-.1-.9-.3-.2-.2-.3-.6-.3-1v-3.2h-.6c0,0-.1,0-.1,0,0,0,0,0,0-.2v-.4h.9c0-.1.2-1.7.2-1.7,0,0,0,0,0-.1,0,0,0,0,.1,0h.5v1.8h1.5v.7h-1.5v3.1c0,.2,0,.4.2.5s.2.2.4.2.2,0,.2,0c0,0,.1,0,.2,0,0,0,0,0,.1,0s0,0,0,0c0,0,0,0,.1,0l.3.4c-.2.1-.3.3-.6.3-.2,0-.5.1-.7.1Z"/>
    <path class="st3" d="M289.2,73.9c.3-.3.6-.5.9-.6.3-.1.7-.2,1.1-.2s.6,0,.8.1.4.2.6.4c.2.2.3.4.3.6,0,.2.1.5.1.8v3.3h-.4c0,0-.2,0-.2,0,0,0,0,0-.1-.2v-.5c-.2.1-.4.2-.5.3-.1,0-.3.2-.4.2-.1,0-.3.1-.5.2s-.3,0-.5,0-.4,0-.6,0-.3-.1-.5-.3c-.1-.1-.2-.3-.3-.4,0-.2-.1-.4-.1-.6s0-.4.2-.6c.1-.2.3-.4.6-.5.3-.1.6-.3,1-.4.4,0,.9-.1,1.5-.2v-.4c0-.4,0-.7-.3-.9-.2-.2-.4-.3-.8-.3s-.4,0-.6,0c-.2,0-.3.1-.4.2-.1,0-.2.1-.3.2,0,0-.2,0-.2,0s-.1,0-.2,0c0,0,0,0-.1-.1l-.2-.3ZM292.2,76c-.4,0-.8,0-1.1,0-.3,0-.5.1-.7.2-.2,0-.3.2-.4.3,0,.1-.1.2-.1.4s0,.3,0,.4c0,0,.1.2.2.2,0,0,.2.1.3.1s.2,0,.3,0,.3,0,.4,0c.1,0,.3,0,.4-.1.1,0,.2-.1.3-.2.1,0,.2-.2.3-.3v-1.1Z"/>
    <path class="st3" d="M295.3,74.2c.2-.4.4-.6.6-.8.2-.2.5-.3.9-.3s.2,0,.3,0c.1,0,.2,0,.3.1v.7c0,0-.1.1-.2.1s-.1,0-.2,0c0,0-.2,0-.3,0s-.3,0-.4,0-.2.1-.3.2c-.1,0-.2.2-.3.4,0,.1-.2.3-.2.5v3.3h-.9v-5.2h.5c0,0,.2,0,.2,0s0,.1,0,.2v.8Z"/>
  </g>
  <g>
    <path class="st3" d="M302.8,73c.4,0,.7,0,1,.2.3.1.6.3.8.5s.4.5.5.8c.1.3.2.7.2,1.1s0,.8-.2,1.1c-.1.3-.3.6-.5.8s-.5.4-.8.5c-.3.1-.6.2-1,.2s-.7,0-1-.2-.6-.3-.8-.5c-.2-.2-.4-.5-.5-.8s-.2-.7-.2-1.1,0-.8.2-1.1c.1-.3.3-.6.5-.8.2-.2.5-.4.8-.5s.7-.2,1-.2ZM302.8,77.7c.5,0,.9-.2,1.2-.5s.4-.8.4-1.4-.1-1.1-.4-1.5c-.3-.3-.6-.5-1.2-.5s-.5,0-.7.1c-.2,0-.4.2-.5.4s-.2.4-.3.6c0,.2,0,.5,0,.8,0,.6.1,1.1.4,1.4s.6.5,1.2.5Z"/>
    <path class="st3" d="M309.4,74c0,0-.1.1-.2.1s-.1,0-.2,0-.1,0-.2-.1c0,0-.2,0-.3-.1-.1,0-.3,0-.5,0s-.3,0-.4,0c-.1,0-.2,0-.3.2,0,0-.2.1-.2.2,0,0,0,.2,0,.3s0,.2.1.3c0,0,.2.2.3.2.1,0,.3.1.4.2s.3.1.5.2c.2,0,.3.1.5.2s.3.2.4.3c.1.1.2.2.3.4,0,.1.1.3.1.5s0,.5-.1.7-.2.4-.4.5c-.2.1-.4.3-.6.4-.2,0-.5.1-.8.1s-.7,0-1-.2c-.3-.1-.5-.3-.8-.5l.2-.3s0,0,0-.1c0,0,0,0,.1,0s.1,0,.2,0c0,0,.2.1.2.2,0,0,.2.1.4.2.1,0,.3,0,.5,0s.3,0,.5,0,.2-.1.3-.2c0,0,.2-.2.2-.3,0-.1,0-.2,0-.3s0-.3-.1-.4-.2-.2-.3-.2c-.1,0-.3-.1-.4-.2-.2,0-.3-.1-.5-.2-.2,0-.3-.1-.5-.2-.2,0-.3-.2-.4-.3s-.2-.2-.3-.4-.1-.3-.1-.6,0-.4.1-.6c0-.2.2-.3.4-.5.2-.1.4-.2.6-.3.2,0,.5-.1.8-.1s.7,0,.9.2c.3.1.5.3.7.4l-.2.3Z"/>
    <path class="st3" d="M314.4,73.9c.1-.1.2-.2.4-.3.1-.1.3-.2.4-.3.1,0,.3-.1.5-.2.2,0,.3,0,.5,0,.3,0,.5,0,.8.1.2,0,.4.2.5.4.1.2.3.4.3.6,0,.2.1.5.1.8v3.3h-.9v-3.3c0-.4,0-.7-.3-.9-.2-.2-.5-.3-.8-.3s-.5,0-.8.2c-.2.1-.5.3-.7.5v3.8h-.9v-5.2h.6c.1,0,.2,0,.2.2v.6Z"/>
    <path class="st3" d="M321.3,70.9l-1.2,1.3c0,0,0,0-.1.1,0,0-.1,0-.2,0h-.5l.8-1.2c0,0,.1-.1.2-.2,0,0,.1,0,.2,0h.9ZM320.2,73.1v5.2h-.9v-5.2h.9Z"/>
    <path class="st3" d="M326.2,73.1l-2.1,5.2h-.8l-2.1-5.2h.7c0,0,.1,0,.2,0s0,0,0,.1l1.3,3.4c0,.1,0,.3.1.4,0,.1,0,.2,0,.4,0-.1,0-.2,0-.4,0-.1,0-.2.1-.4l1.3-3.4c0,0,0-.1.1-.1,0,0,.1,0,.2,0h.7Z"/>
  </g>
  <g>
    <path class="st3" d="M331.1,77.6c-.1.1-.2.3-.4.4-.2.1-.3.2-.5.2-.2,0-.4.1-.6.1-.2,0-.4,0-.6,0-.4,0-.7,0-1-.2-.3-.1-.6-.3-.8-.5-.2-.2-.4-.5-.5-.9-.1-.3-.2-.7-.2-1.2s0-.7.2-1c.1-.3.3-.6.5-.8s.5-.4.8-.5c.3-.1.6-.2,1-.2s.6,0,.9.2c.3.1.5.3.7.5s.3.4.5.7c.1.3.2.6.2,1s0,.2,0,.3c0,0,0,0-.2,0h-3.5c0,.3,0,.6.1.9,0,.2.2.4.3.6.1.2.3.3.5.4.2,0,.4.1.7.1s.4,0,.6,0c.2,0,.3-.1.4-.2s.2-.1.3-.2c0,0,.1,0,.2,0s.1,0,.2,0l.3.3ZM330.4,75.2c0-.2,0-.4,0-.6,0-.2-.1-.3-.3-.5-.1-.1-.3-.2-.4-.3-.2,0-.4-.1-.6-.1-.4,0-.8.1-1,.4s-.4.6-.5,1.1h2.9Z"/>
    <path class="st3" d="M333.5,71.5c0,0,0,.2,0,.2s0,.1-.1.2c0,0-.1.1-.2.1,0,0-.2,0-.3,0s-.2,0-.2,0-.1,0-.2-.1c0,0-.1-.1-.1-.2s0-.2,0-.2,0-.2,0-.3,0-.2.1-.2c0,0,.1-.1.2-.1s.2,0,.2,0,.2,0,.3,0c0,0,.2,0,.2.1,0,0,.1.1.1.2s0,.2,0,.3ZM333.3,73.1v5.2h-.9v-5.2h.9Z"/>
    <path class="st3" d="M337.8,74c0,0-.1.1-.2.1s-.1,0-.2,0-.1,0-.2-.1c0,0-.2,0-.3-.1-.1,0-.3,0-.5,0s-.3,0-.4,0c-.1,0-.2,0-.3.2,0,0-.2.1-.2.2,0,0,0,.2,0,.3s0,.2.1.3c0,0,.2.2.3.2.1,0,.3.1.4.2s.3.1.5.2c.2,0,.3.1.5.2s.3.2.4.3c.1.1.2.2.3.4,0,.1.1.3.1.5s0,.5-.1.7-.2.4-.4.5c-.2.1-.4.3-.6.4-.2,0-.5.1-.8.1s-.7,0-1-.2c-.3-.1-.5-.3-.8-.5l.2-.3s0,0,0-.1c0,0,0,0,.1,0s.1,0,.2,0c0,0,.2.1.2.2,0,0,.2.1.4.2.1,0,.3,0,.5,0s.3,0,.5,0,.2-.1.3-.2c0,0,.2-.2.2-.3,0-.1,0-.2,0-.3s0-.3-.1-.4-.2-.2-.3-.2c-.1,0-.3-.1-.4-.2-.2,0-.3-.1-.5-.2-.2,0-.3-.1-.5-.2-.2,0-.3-.2-.4-.3s-.2-.2-.3-.4-.1-.3-.1-.6,0-.4.1-.6c0-.2.2-.3.4-.5.2-.1.4-.2.6-.3.2,0,.5-.1.8-.1s.7,0,.9.2c.3.1.5.3.7.4l-.2.3Z"/>
    <path class="st3" d="M346.2,70.8v7.6h-.5c-.1,0-.2,0-.2-.2v-.6c-.3.3-.6.5-.8.6-.3.2-.6.2-1,.2s-.6,0-.8-.2c-.2-.1-.5-.3-.6-.5s-.3-.5-.4-.8c0-.3-.1-.7-.1-1.1s0-.7.2-1.1c.1-.3.2-.6.4-.9s.4-.4.7-.6c.3-.1.6-.2.9-.2s.6,0,.8.2c.2.1.4.3.6.5v-2.9h.9ZM345.2,74.4c-.2-.2-.4-.4-.6-.5s-.4-.1-.7-.1c-.5,0-.9.2-1.1.5-.3.3-.4.8-.4,1.5s0,.6,0,.9.1.4.3.6c.1.2.3.3.4.3.2,0,.4.1.6.1.3,0,.6,0,.8-.2.2-.1.4-.3.6-.6v-2.5Z"/>
    <path class="st3" d="M351.8,77.6c-.1.1-.2.3-.4.4-.2.1-.3.2-.5.2-.2,0-.4.1-.6.1-.2,0-.4,0-.6,0-.4,0-.7,0-1-.2-.3-.1-.6-.3-.8-.5-.2-.2-.4-.5-.5-.9-.1-.3-.2-.7-.2-1.2s0-.7.2-1c.1-.3.3-.6.5-.8s.5-.4.8-.5c.3-.1.6-.2,1-.2s.6,0,.9.2c.3.1.5.3.7.5s.3.4.5.7c.1.3.2.6.2,1s0,.2,0,.3c0,0,0,0-.2,0h-3.5c0,.3,0,.6.1.9,0,.2.2.4.3.6.1.2.3.3.5.4.2,0,.4.1.7.1s.4,0,.6,0c.2,0,.3-.1.4-.2s.2-.1.3-.2c0,0,.1,0,.2,0s.1,0,.2,0l.3.3ZM351.1,75.2c0-.2,0-.4,0-.6,0-.2-.1-.3-.3-.5-.1-.1-.3-.2-.4-.3-.2,0-.4-.1-.6-.1-.4,0-.8.1-1,.4s-.4.6-.5,1.1h2.9Z"/>
    <path class="st3" d="M355.6,73.9c.3-.3.6-.5.9-.6.3-.1.7-.2,1.1-.2s.6,0,.8.1.4.2.6.4c.2.2.3.4.3.6,0,.2.1.5.1.8v3.3h-.4c0,0-.2,0-.2,0,0,0,0,0-.1-.2v-.5c-.2.1-.4.2-.5.3-.1,0-.3.2-.4.2-.1,0-.3.1-.5.2s-.3,0-.5,0-.4,0-.6,0-.3-.1-.5-.3c-.1-.1-.2-.3-.3-.4,0-.2-.1-.4-.1-.6s0-.4.2-.6c.1-.2.3-.4.6-.5.3-.1.6-.3,1-.4.4,0,.9-.1,1.5-.2v-.4c0-.4,0-.7-.3-.9-.2-.2-.4-.3-.8-.3s-.4,0-.6,0c-.2,0-.3.1-.4.2-.1,0-.2.1-.3.2,0,0-.2,0-.2,0s-.1,0-.2,0c0,0,0,0-.1-.1l-.2-.3ZM358.5,76c-.4,0-.8,0-1.1,0-.3,0-.5.1-.7.2-.2,0-.3.2-.4.3,0,.1-.1.2-.1.4s0,.3,0,.4c0,0,.1.2.2.2,0,0,.2.1.3.1s.2,0,.3,0,.3,0,.4,0c.1,0,.3,0,.4-.1.1,0,.2-.1.3-.2.1,0,.2-.2.3-.3v-1.1Z"/>
    <path class="st3" d="M364.7,77.6c-.2.2-.4.4-.7.6-.3.1-.6.2-.9.2v.3c.2,0,.5.2.6.3.1.1.2.3.2.5s0,.2,0,.3c0,0-.1.2-.2.2,0,0-.2.1-.3.1s-.3,0-.5,0-.3,0-.4,0c-.1,0-.2,0-.3-.1v-.3c.1,0,.1,0,.2,0s0,0,0,0c0,0,0,0,.1,0,0,0,0,0,.1,0s.1,0,.2,0c.1,0,.3,0,.3,0,0,0,.1-.1.1-.2,0-.1,0-.2-.2-.3-.1,0-.3,0-.6-.1l.2-.6c-.3,0-.6-.1-.8-.2-.3-.1-.5-.3-.7-.5-.2-.2-.3-.5-.4-.8-.1-.3-.2-.7-.2-1.1s0-.7.2-1.1c.1-.3.3-.6.5-.9.2-.2.5-.4.8-.6s.7-.2,1-.2.7,0,1,.2c.3.1.5.3.7.5l-.2.3s0,0,0,0,0,0-.1,0-.1,0-.2,0c0,0-.1,0-.2-.1,0,0-.2,0-.3-.1s-.3,0-.5,0-.5,0-.7.1c-.2,0-.4.2-.5.4-.1.2-.2.4-.3.6,0,.2-.1.5-.1.8s0,.6.1.8c0,.2.2.5.3.6.1.2.3.3.5.4.2,0,.4.1.6.1s.4,0,.6,0c.1,0,.3-.1.4-.2,0,0,.2-.1.2-.2,0,0,.1,0,.2,0s.1,0,.2,0l.3.3Z"/>
    <path class="st3" d="M370,73.1v5.2h-.5c-.1,0-.2,0-.2-.2v-.6c-.3.2-.6.5-.8.6s-.6.2-1,.2-.5,0-.8-.1c-.2,0-.4-.2-.5-.4-.1-.2-.3-.4-.3-.6,0-.2-.1-.5-.1-.8v-3.3h.9v3.3c0,.4,0,.7.3.9.2.2.5.3.8.3s.5,0,.8-.2c.2-.1.5-.3.7-.5v-3.8h.9ZM369.4,70.9l-1.2,1.3c0,0,0,0-.1.1,0,0-.1,0-.2,0h-.5l.8-1.2c0,0,.1-.1.2-.2,0,0,.1,0,.2,0h.9Z"/>
    <path class="st3" d="M375.1,74s0,0,0,0,0,0-.1,0-.1,0-.2,0c0,0-.1,0-.2-.1,0,0-.2,0-.3-.1s-.3,0-.5,0-.5,0-.7.1c-.2,0-.4.2-.5.4-.1.2-.2.4-.3.6,0,.2-.1.5-.1.8s0,.6.1.8c0,.2.2.5.3.6.1.2.3.3.5.4.2,0,.4.1.6.1s.4,0,.6,0c.1,0,.3-.1.4-.2,0,0,.2-.1.2-.2,0,0,.1,0,.2,0s.1,0,.2,0l.3.3c-.1.1-.2.3-.4.4-.1,0-.3.2-.5.2s-.3.1-.5.1-.4,0-.6,0c-.3,0-.6,0-.9-.2-.3-.1-.5-.3-.7-.5-.2-.2-.4-.5-.5-.8-.1-.3-.2-.7-.2-1.1s0-.7.2-1.1c.1-.3.3-.6.5-.9.2-.2.5-.4.8-.6s.7-.2,1-.2.7,0,1,.2c.3.1.5.3.7.5l-.2.3Z"/>
    <path class="st3" d="M376.2,73.9c.3-.3.6-.5.9-.6.3-.1.7-.2,1.1-.2s.6,0,.8.1.4.2.6.4c.2.2.3.4.3.6,0,.2.1.5.1.8v3.3h-.4c0,0-.2,0-.2,0,0,0,0,0-.1-.2v-.5c-.2.1-.4.2-.5.3-.1,0-.3.2-.4.2-.1,0-.3.1-.5.2s-.3,0-.5,0-.4,0-.6,0-.3-.1-.5-.3c-.1-.1-.2-.3-.3-.4,0-.2-.1-.4-.1-.6s0-.4.2-.6c.1-.2.3-.4.6-.5.3-.1.6-.3,1-.4.4,0,.9-.1,1.5-.2v-.4c0-.4,0-.7-.3-.9-.2-.2-.4-.3-.8-.3s-.4,0-.6,0c-.2,0-.3.1-.4.2-.1,0-.2.1-.3.2,0,0-.2,0-.2,0s-.1,0-.2,0c0,0,0,0-.1-.1l-.2-.3ZM379.2,76c-.4,0-.8,0-1.1,0-.3,0-.5.1-.7.2-.2,0-.3.2-.4.3,0,.1-.1.2-.1.4s0,.3,0,.4c0,0,.1.2.2.2,0,0,.2.1.3.1s.2,0,.3,0,.3,0,.4,0c.1,0,.3,0,.4-.1.1,0,.2-.1.3-.2.1,0,.2-.2.3-.3v-1.1Z"/>
    <path class="st3" d="M382.4,74.2c.2-.4.4-.6.6-.8.2-.2.5-.3.9-.3s.2,0,.3,0c.1,0,.2,0,.3.1v.7c0,0-.1.1-.2.1s-.1,0-.2,0c0,0-.2,0-.3,0s-.3,0-.4,0-.2.1-.3.2c-.1,0-.2.2-.3.4,0,.1-.2.3-.2.5v3.3h-.9v-5.2h.5c0,0,.2,0,.2,0s0,.1,0,.2v.8Z"/>
  </g>
  <g>
    <path class="st3" d="M388.5,73.9c.1-.1.2-.2.4-.3.1-.1.3-.2.4-.3.1,0,.3-.1.5-.2.2,0,.3,0,.5,0,.3,0,.5,0,.8.1.2,0,.4.2.5.4.1.2.3.4.3.6,0,.2.1.5.1.8v3.3h-.9v-3.3c0-.4,0-.7-.3-.9-.2-.2-.5-.3-.8-.3s-.5,0-.8.2c-.2.1-.5.3-.7.5v3.8h-.9v-5.2h.6c.1,0,.2,0,.2.2v.6Z"/>
    <path class="st3" d="M395.6,73c.4,0,.7,0,1,.2.3.1.6.3.8.5s.4.5.5.8c.1.3.2.7.2,1.1s0,.8-.2,1.1c-.1.3-.3.6-.5.8s-.5.4-.8.5c-.3.1-.6.2-1,.2s-.7,0-1-.2-.6-.3-.8-.5c-.2-.2-.4-.5-.5-.8s-.2-.7-.2-1.1,0-.8.2-1.1c.1-.3.3-.6.5-.8.2-.2.5-.4.8-.5s.7-.2,1-.2ZM395.6,77.7c.5,0,.9-.2,1.2-.5s.4-.8.4-1.4-.1-1.1-.4-1.5c-.3-.3-.6-.5-1.2-.5s-.5,0-.7.1c-.2,0-.4.2-.5.4s-.2.4-.3.6c0,.2,0,.5,0,.8,0,.6.1,1.1.4,1.4s.6.5,1.2.5Z"/>
    <path class="st3" d="M404.9,74c0,0-.1.1-.2.1s-.1,0-.2,0-.1,0-.2-.1c0,0-.2,0-.3-.1-.1,0-.3,0-.5,0s-.3,0-.4,0c-.1,0-.2,0-.3.2,0,0-.2.1-.2.2,0,0,0,.2,0,.3s0,.2.1.3c0,0,.2.2.3.2.1,0,.3.1.4.2s.3.1.5.2c.2,0,.3.1.5.2s.3.2.4.3c.1.1.2.2.3.4,0,.1.1.3.1.5s0,.5-.1.7-.2.4-.4.5c-.2.1-.4.3-.6.4-.2,0-.5.1-.8.1s-.7,0-1-.2c-.3-.1-.5-.3-.8-.5l.2-.3s0,0,0-.1c0,0,0,0,.1,0s.1,0,.2,0c0,0,.2.1.2.2,0,0,.2.1.4.2.1,0,.3,0,.5,0s.3,0,.5,0,.2-.1.3-.2c0,0,.2-.2.2-.3,0-.1,0-.2,0-.3s0-.3-.1-.4-.2-.2-.3-.2c-.1,0-.3-.1-.4-.2-.2,0-.3-.1-.5-.2-.2,0-.3-.1-.5-.2-.2,0-.3-.2-.4-.3s-.2-.2-.3-.4-.1-.3-.1-.6,0-.4.1-.6c0-.2.2-.3.4-.5.2-.1.4-.2.6-.3.2,0,.5-.1.8-.1s.7,0,.9.2c.3.1.5.3.7.4l-.2.3Z"/>
    <path class="st3" d="M406.2,73.9c.3-.3.6-.5.9-.6.3-.1.7-.2,1.1-.2s.6,0,.8.1.4.2.6.4c.2.2.3.4.3.6,0,.2.1.5.1.8v3.3h-.4c0,0-.2,0-.2,0,0,0,0,0-.1-.2v-.5c-.2.1-.4.2-.5.3-.1,0-.3.2-.4.2-.1,0-.3.1-.5.2s-.3,0-.5,0-.4,0-.6,0-.3-.1-.5-.3c-.1-.1-.2-.3-.3-.4,0-.2-.1-.4-.1-.6s0-.4.2-.6c.1-.2.3-.4.6-.5.3-.1.6-.3,1-.4.4,0,.9-.1,1.5-.2v-.4c0-.4,0-.7-.3-.9-.2-.2-.4-.3-.8-.3s-.4,0-.6,0c-.2,0-.3.1-.4.2-.1,0-.2.1-.3.2,0,0-.2,0-.2,0s-.1,0-.2,0c0,0,0,0-.1-.1l-.2-.3ZM409.1,76c-.4,0-.8,0-1.1,0-.3,0-.5.1-.7.2-.2,0-.3.2-.4.3,0,.1-.1.2-.1.4s0,.3,0,.4c0,0,.1.2.2.2,0,0,.2.1.3.1s.2,0,.3,0,.3,0,.4,0c.1,0,.3,0,.4-.1.1,0,.2-.1.3-.2.1,0,.2-.2.3-.3v-1.1Z"/>
    <path class="st3" d="M412.3,73.9c.1-.1.2-.2.4-.3.1-.1.3-.2.4-.3.1,0,.3-.1.5-.2.2,0,.3,0,.5,0,.3,0,.5,0,.8.1.2,0,.4.2.5.4.1.2.3.4.3.6,0,.2.1.5.1.8v3.3h-.9v-3.3c0-.4,0-.7-.3-.9-.2-.2-.5-.3-.8-.3s-.5,0-.8.2c-.2.1-.5.3-.7.5v3.8h-.9v-5.2h.6c.1,0,.2,0,.2.2v.6Z"/>
    <path class="st3" d="M421.6,73.3v.3c0,.1,0,.2-.2.2h-.6c.1.3.2.6.2.8s0,.5-.1.7c0,.2-.2.4-.4.5-.2.1-.4.3-.6.3-.2,0-.5.1-.8.1s-.5,0-.7,0c-.1,0-.2.1-.3.2,0,0,0,.2,0,.2,0,.1,0,.2.2.3.1,0,.2.1.4.1.2,0,.4,0,.6,0,.2,0,.4,0,.6,0,.2,0,.4,0,.6,0s.4,0,.6.2c.2,0,.3.2.4.4.1.2.2.3.2.6s0,.4-.2.6c-.1.2-.3.4-.5.6-.2.2-.5.3-.8.4-.3,0-.6.1-1,.1s-.7,0-1-.1c-.3,0-.5-.2-.7-.3s-.3-.3-.4-.4c0-.2-.1-.3-.1-.5s0-.5.2-.7.4-.3.7-.4c-.2,0-.3-.2-.4-.3,0-.1-.1-.3-.1-.5s0-.2,0-.2c0,0,0-.2.1-.2,0,0,.1-.2.2-.2s.2-.1.3-.2c-.3-.1-.5-.3-.6-.6-.1-.2-.2-.5-.2-.8s0-.5.1-.7c0-.2.2-.4.4-.5.2-.1.4-.3.6-.3.2,0,.5-.1.8-.1s.4,0,.6,0c.2,0,.4.1.5.2h1.4ZM420.6,78.6c0-.1,0-.2-.1-.3,0,0-.2-.1-.3-.2-.1,0-.3,0-.4,0-.2,0-.3,0-.5,0-.2,0-.4,0-.5,0-.2,0-.4,0-.5,0-.2,0-.3.2-.5.3-.1.1-.2.3-.2.5s0,.2,0,.3c0,.1.2.2.3.3.1,0,.3.1.5.2.2,0,.4,0,.7,0s.5,0,.7,0c.2,0,.4-.1.5-.2.1,0,.2-.2.3-.3s.1-.2.1-.4ZM419,75.8c.2,0,.3,0,.5,0s.3-.1.4-.2c0,0,.2-.2.2-.3s0-.3,0-.4c0-.3,0-.6-.3-.8-.2-.2-.5-.3-.8-.3s-.7,0-.8.3c-.2.2-.3.4-.3.8s0,.3,0,.4.1.2.2.3c0,0,.2.2.4.2s.3,0,.5,0Z"/>
    <path class="st3" d="M426.8,73.1v5.2h-.5c-.1,0-.2,0-.2-.2v-.6c-.3.2-.6.5-.8.6s-.6.2-1,.2-.5,0-.8-.1c-.2,0-.4-.2-.5-.4-.1-.2-.3-.4-.3-.6,0-.2-.1-.5-.1-.8v-3.3h.9v3.3c0,.4,0,.7.3.9.2.2.5.3.8.3s.5,0,.8-.2c.2-.1.5-.3.7-.5v-3.8h.9Z"/>
    <path class="st3" d="M432.5,77.6c-.1.1-.2.3-.4.4-.2.1-.3.2-.5.2-.2,0-.4.1-.6.1-.2,0-.4,0-.6,0-.4,0-.7,0-1-.2-.3-.1-.6-.3-.8-.5-.2-.2-.4-.5-.5-.9-.1-.3-.2-.7-.2-1.2s0-.7.2-1c.1-.3.3-.6.5-.8s.5-.4.8-.5c.3-.1.6-.2,1-.2s.6,0,.9.2c.3.1.5.3.7.5s.3.4.5.7c.1.3.2.6.2,1s0,.2,0,.3c0,0,0,0-.2,0h-3.5c0,.3,0,.6.1.9,0,.2.2.4.3.6.1.2.3.3.5.4.2,0,.4.1.7.1s.4,0,.6,0c.2,0,.3-.1.4-.2s.2-.1.3-.2c0,0,.1,0,.2,0s.1,0,.2,0l.3.3ZM431.7,75.2c0-.2,0-.4,0-.6,0-.2-.1-.3-.3-.5-.1-.1-.3-.2-.4-.3-.2,0-.4-.1-.6-.1-.4,0-.8.1-1,.4s-.4.6-.5,1.1h2.9Z"/>
  </g>
  <g>
    <path class="st3" d="M179.8,83.8c0,0,0,.2,0,.2,0,0,0,.1-.1.2s-.1.1-.2.1-.2,0-.3,0-.2,0-.2,0-.1,0-.2-.1c0,0-.1-.1-.1-.2s0-.2,0-.2,0-.2,0-.3,0-.2.1-.2c0,0,.1-.1.2-.1s.2,0,.2,0,.2,0,.3,0,.2,0,.2.1.1.1.1.2c0,0,0,.2,0,.3ZM179.6,85.5v5.2h-.9v-5.2h.9Z"/>
    <path class="st3" d="M181.1,90.7v-5.2h.6c.1,0,.2,0,.2.2v.5c.3-.2.5-.4.7-.6.2-.2.5-.2.8-.2s.6,0,.9.3.4.5.5.8c0-.2.2-.4.3-.5.1-.1.3-.2.4-.3.1,0,.3-.2.5-.2s.3,0,.5,0c.3,0,.5,0,.7.1.2,0,.4.2.5.4.1.2.3.4.3.6,0,.2.1.5.1.8v3.3h-.9v-3.3c0-.4,0-.7-.3-.9-.2-.2-.4-.3-.8-.3s-.3,0-.4,0c-.1,0-.3.1-.4.2-.1.1-.2.2-.2.4s0,.3,0,.5v3.3h-.9v-3.3c0-.4,0-.7-.3-.9-.2-.2-.4-.3-.7-.3s-.4,0-.6.2-.4.3-.5.5v3.9h-.9Z"/>
    <path class="st3" d="M190.5,86.3c.2-.3.5-.5.8-.7.3-.2.6-.2,1-.2s.6,0,.8.2c.2.1.5.3.6.5s.3.5.4.8c0,.3.1.7.1,1.1s0,.7-.2,1.1c-.1.3-.3.6-.4.9-.2.2-.4.4-.7.6s-.6.2-.9.2-.6,0-.8-.2c-.2-.1-.4-.3-.6-.5v2.3h-.9v-7h.6c.1,0,.2,0,.2.2v.6ZM190.5,89.4c.2.2.4.4.6.5.2,0,.4.1.7.1.5,0,.9-.2,1.1-.5.3-.3.4-.8.4-1.5s0-.6,0-.9c0-.2-.1-.4-.3-.6-.1-.2-.3-.3-.4-.3s-.4-.1-.6-.1c-.3,0-.6,0-.8.2-.2.1-.4.3-.6.6v2.5Z"/>
    <path class="st3" d="M199.6,90c-.1.1-.2.3-.4.4-.2.1-.3.2-.5.2-.2,0-.4.1-.6.1-.2,0-.4,0-.6,0-.4,0-.7,0-1-.2-.3-.1-.6-.3-.8-.5s-.4-.5-.5-.9c-.1-.3-.2-.7-.2-1.2s0-.7.2-1c.1-.3.3-.6.5-.8.2-.2.5-.4.8-.5.3-.1.6-.2,1-.2s.6,0,.9.2c.3.1.5.3.7.5s.3.4.5.7c.1.3.2.6.2,1s0,.2,0,.3c0,0,0,0-.2,0h-3.5c0,.3,0,.6.1.9s.2.4.3.6c.1.2.3.3.5.4.2,0,.4.1.7.1s.4,0,.6,0c.2,0,.3-.1.4-.2s.2-.1.3-.2c0,0,.1,0,.2,0s.1,0,.2,0l.3.3ZM198.9,87.5c0-.2,0-.4,0-.6,0-.2-.1-.3-.3-.5-.1-.1-.3-.2-.4-.3-.2,0-.4-.1-.6-.1-.4,0-.8.1-1,.4-.3.3-.4.6-.5,1.1h2.9Z"/>
    <path class="st3" d="M205.1,83.1v7.6h-.5c-.1,0-.2,0-.2-.2v-.6c-.3.3-.6.5-.8.6-.3.2-.6.2-1,.2s-.6,0-.8-.2c-.2-.1-.5-.3-.6-.5s-.3-.5-.4-.8c0-.3-.1-.7-.1-1.1s0-.7.2-1.1c.1-.3.2-.6.4-.9s.4-.4.7-.6c.3-.1.6-.2.9-.2s.6,0,.8.2c.2.1.4.3.6.5v-2.9h.9ZM204.2,86.7c-.2-.2-.4-.4-.6-.5s-.4-.1-.7-.1c-.5,0-.9.2-1.1.5-.3.3-.4.8-.4,1.5s0,.6,0,.9.1.4.3.6c.1.2.3.3.4.3.2,0,.4.1.6.1.3,0,.6,0,.8-.2.2-.1.4-.3.6-.6v-2.5Z"/>
    <path class="st3" d="M207.7,83.8c0,0,0,.2,0,.2s0,.1-.1.2c0,0-.1.1-.2.1,0,0-.2,0-.3,0s-.2,0-.2,0-.1,0-.2-.1c0,0-.1-.1-.1-.2s0-.2,0-.2,0-.2,0-.3,0-.2.1-.2c0,0,.1-.1.2-.1s.2,0,.2,0,.2,0,.3,0c0,0,.2,0,.2.1,0,0,.1.1.1.2s0,.2,0,.3ZM207.5,85.5v5.2h-.9v-5.2h.9Z"/>
    <path class="st3" d="M209.9,86.2c.1-.1.2-.2.4-.3.1-.1.3-.2.4-.3.1,0,.3-.1.5-.2.2,0,.3,0,.5,0,.3,0,.5,0,.8.1.2,0,.4.2.5.4.1.2.3.4.3.6,0,.2.1.5.1.8v3.3h-.9v-3.3c0-.4,0-.7-.3-.9-.2-.2-.5-.3-.8-.3s-.5,0-.8.2c-.2.1-.5.3-.7.5v3.8h-.9v-5.2h.6c.1,0,.2,0,.2.2v.6Z"/>
    <path class="st3" d="M219.1,83.1v7.6h-.5c-.1,0-.2,0-.2-.2v-.6c-.3.3-.6.5-.8.6-.3.2-.6.2-1,.2s-.6,0-.8-.2c-.2-.1-.5-.3-.6-.5s-.3-.5-.4-.8c0-.3-.1-.7-.1-1.1s0-.7.2-1.1c.1-.3.2-.6.4-.9s.4-.4.7-.6c.3-.1.6-.2.9-.2s.6,0,.8.2c.2.1.4.3.6.5v-2.9h.9ZM218.2,86.7c-.2-.2-.4-.4-.6-.5s-.4-.1-.7-.1c-.5,0-.9.2-1.1.5-.3.3-.4.8-.4,1.5s0,.6,0,.9.1.4.3.6c.1.2.3.3.4.3.2,0,.4.1.6.1.3,0,.6,0,.8-.2.2-.1.4-.3.6-.6v-2.5Z"/>
    <path class="st3" d="M222.7,85.4c.4,0,.7,0,1,.2.3.1.6.3.8.5s.4.5.5.8c.1.3.2.7.2,1.1s0,.8-.2,1.1c-.1.3-.3.6-.5.8s-.5.4-.8.5c-.3.1-.6.2-1,.2s-.7,0-1-.2-.6-.3-.8-.5c-.2-.2-.4-.5-.5-.8s-.2-.7-.2-1.1,0-.8.2-1.1c.1-.3.3-.6.5-.8.2-.2.5-.4.8-.5s.7-.2,1-.2ZM222.7,90c.5,0,.9-.2,1.2-.5s.4-.8.4-1.4-.1-1.1-.4-1.5c-.3-.3-.6-.5-1.2-.5s-.5,0-.7.1c-.2,0-.4.2-.5.4s-.2.4-.3.6c0,.2,0,.5,0,.8,0,.6.1,1.1.4,1.4s.6.5,1.2.5Z"/>
    <path class="st3" d="M233.3,85.5v7h-.9v-2.5c-.2.3-.5.5-.7.6s-.6.2-1,.2-.6,0-.8-.2c-.2-.1-.5-.3-.6-.5s-.3-.5-.4-.8c0-.3-.1-.7-.1-1.1s0-.7.2-1.1c.1-.3.2-.6.4-.9s.4-.4.7-.6c.3-.1.6-.2.9-.2s.6,0,.9.2c.2.1.4.3.6.5v-.4c0-.1.2-.2.3-.2h.5ZM232.4,86.7c-.2-.2-.3-.4-.6-.5-.2,0-.4-.1-.7-.1-.5,0-.9.2-1.1.5-.3.3-.4.8-.4,1.5s0,.6,0,.9.1.4.3.6c.1.2.3.3.4.3.2,0,.4.1.6.1.3,0,.6,0,.8-.2.2-.1.4-.3.6-.6v-2.5Z"/>
    <path class="st3" d="M239.1,85.5v5.2h-.5c-.1,0-.2,0-.2-.2v-.6c-.3.2-.6.5-.8.6s-.6.2-1,.2-.5,0-.8-.1c-.2,0-.4-.2-.5-.4-.1-.2-.3-.4-.3-.6,0-.2-.1-.5-.1-.8v-3.3h.9v3.3c0,.4,0,.7.3.9.2.2.5.3.8.3s.5,0,.8-.2c.2-.1.5-.3.7-.5v-3.8h.9Z"/>
    <path class="st3" d="M240.4,86.2c.3-.3.6-.5.9-.6.3-.1.7-.2,1.1-.2s.6,0,.8.1.4.2.6.4c.2.2.3.4.3.6,0,.2.1.5.1.8v3.3h-.4c0,0-.2,0-.2,0,0,0,0,0-.1-.2v-.5c-.2.1-.4.2-.5.3-.1,0-.3.2-.4.2-.1,0-.3.1-.5.2s-.3,0-.5,0-.4,0-.6,0-.3-.1-.5-.3c-.1-.1-.2-.3-.3-.4,0-.2-.1-.4-.1-.6s0-.4.2-.6c.1-.2.3-.4.6-.5.3-.1.6-.3,1-.4.4,0,.9-.1,1.5-.2v-.4c0-.4,0-.7-.3-.9-.2-.2-.4-.3-.8-.3s-.4,0-.6,0c-.2,0-.3.1-.4.2-.1,0-.2.1-.3.2,0,0-.2,0-.2,0s-.1,0-.2,0c0,0,0,0-.1-.1l-.2-.3ZM243.3,88.3c-.4,0-.8,0-1.1,0-.3,0-.5.1-.7.2-.2,0-.3.2-.4.3,0,.1-.1.2-.1.4s0,.3,0,.4c0,0,.1.2.2.2,0,0,.2.1.3.1s.2,0,.3,0,.3,0,.4,0c.1,0,.3,0,.4-.1.1,0,.2-.1.3-.2.1,0,.2-.2.3-.3v-1.1Z"/>
    <path class="st3" d="M249.9,83.1v7.6h-.5c-.1,0-.2,0-.2-.2v-.6c-.3.3-.6.5-.8.6-.3.2-.6.2-1,.2s-.6,0-.8-.2c-.2-.1-.5-.3-.6-.5s-.3-.5-.4-.8c0-.3-.1-.7-.1-1.1s0-.7.2-1.1c.1-.3.2-.6.4-.9s.4-.4.7-.6c.3-.1.6-.2.9-.2s.6,0,.8.2c.2.1.4.3.6.5v-2.9h.9ZM249,86.7c-.2-.2-.4-.4-.6-.5s-.4-.1-.7-.1c-.5,0-.9.2-1.1.5-.3.3-.4.8-.4,1.5s0,.6,0,.9.1.4.3.6c.1.2.3.3.4.3.2,0,.4.1.6.1.3,0,.6,0,.8-.2.2-.1.4-.3.6-.6v-2.5Z"/>
    <path class="st3" d="M252.2,86.5c.2-.4.4-.6.6-.8.2-.2.5-.3.9-.3s.2,0,.3,0c.1,0,.2,0,.3.1v.7c0,0-.1.1-.2.1s-.1,0-.2,0c0,0-.2,0-.3,0s-.3,0-.4,0-.2.1-.3.2c-.1,0-.2.2-.3.4,0,.1-.2.3-.2.5v3.3h-.9v-5.2h.5c0,0,.2,0,.2,0s0,.1,0,.2v.8Z"/>
  </g>
  <g>
    <path class="st3" d="M257.1,85.4c.4,0,.7,0,1,.2.3.1.6.3.8.5s.4.5.5.8c.1.3.2.7.2,1.1s0,.8-.2,1.1c-.1.3-.3.6-.5.8s-.5.4-.8.5c-.3.1-.6.2-1,.2s-.7,0-1-.2-.6-.3-.8-.5c-.2-.2-.4-.5-.5-.8s-.2-.7-.2-1.1,0-.8.2-1.1c.1-.3.3-.6.5-.8.2-.2.5-.4.8-.5s.7-.2,1-.2ZM257.1,90c.5,0,.9-.2,1.2-.5s.4-.8.4-1.4-.1-1.1-.4-1.5c-.3-.3-.6-.5-1.2-.5s-.5,0-.7.1c-.2,0-.4.2-.5.4s-.2.4-.3.6c0,.2,0,.5,0,.8,0,.6.1,1.1.4,1.4s.6.5,1.2.5Z"/>
    <path class="st3" d="M263.8,86.3c0,0-.1.1-.2.1s-.1,0-.2,0-.1,0-.2-.1c0,0-.2,0-.3-.1-.1,0-.3,0-.5,0s-.3,0-.4,0c-.1,0-.2,0-.3.2,0,0-.2.1-.2.2,0,0,0,.2,0,.3s0,.2.1.3c0,0,.2.2.3.2.1,0,.3.1.4.2s.3.1.5.2c.2,0,.3.1.5.2s.3.2.4.3c.1.1.2.2.3.4,0,.1.1.3.1.5s0,.5-.1.7-.2.4-.4.5c-.2.1-.4.3-.6.4-.2,0-.5.1-.8.1s-.7,0-1-.2c-.3-.1-.5-.3-.8-.5l.2-.3s0,0,0-.1c0,0,0,0,.1,0s.1,0,.2,0c0,0,.2.1.2.2,0,0,.2.1.4.2.1,0,.3,0,.5,0s.3,0,.5,0,.2-.1.3-.2c0,0,.2-.2.2-.3,0-.1,0-.2,0-.3s0-.3-.1-.4-.2-.2-.3-.2c-.1,0-.3-.1-.4-.2-.2,0-.3-.1-.5-.2-.2,0-.3-.1-.5-.2-.2,0-.3-.2-.4-.3s-.2-.2-.3-.4-.1-.3-.1-.6,0-.4.1-.6c0-.2.2-.3.4-.5.2-.1.4-.2.6-.3.2,0,.5-.1.8-.1s.7,0,.9.2c.3.1.5.3.7.4l-.2.3Z"/>
    <path class="st3" d="M272.2,83.1v7.6h-.5c-.1,0-.2,0-.2-.2v-.6c-.3.3-.6.5-.8.6-.3.2-.6.2-1,.2s-.6,0-.8-.2c-.2-.1-.5-.3-.6-.5s-.3-.5-.4-.8c0-.3-.1-.7-.1-1.1s0-.7.2-1.1c.1-.3.2-.6.4-.9s.4-.4.7-.6c.3-.1.6-.2.9-.2s.6,0,.8.2c.2.1.4.3.6.5v-2.9h.9ZM271.2,86.7c-.2-.2-.4-.4-.6-.5s-.4-.1-.7-.1c-.5,0-.9.2-1.1.5-.3.3-.4.8-.4,1.5s0,.6,0,.9.1.4.3.6c.1.2.3.3.4.3.2,0,.4.1.6.1.3,0,.6,0,.8-.2.2-.1.4-.3.6-.6v-2.5Z"/>
    <path class="st3" d="M277.8,90c-.1.1-.2.3-.4.4-.2.1-.3.2-.5.2-.2,0-.4.1-.6.1-.2,0-.4,0-.6,0-.4,0-.7,0-1-.2-.3-.1-.6-.3-.8-.5-.2-.2-.4-.5-.5-.9-.1-.3-.2-.7-.2-1.2s0-.7.2-1c.1-.3.3-.6.5-.8s.5-.4.8-.5c.3-.1.6-.2,1-.2s.6,0,.9.2c.3.1.5.3.7.5s.3.4.5.7c.1.3.2.6.2,1s0,.2,0,.3c0,0,0,0-.2,0h-3.5c0,.3,0,.6.1.9,0,.2.2.4.3.6.1.2.3.3.5.4.2,0,.4.1.7.1s.4,0,.6,0c.2,0,.3-.1.4-.2s.2-.1.3-.2c0,0,.1,0,.2,0s.1,0,.2,0l.3.3ZM277.1,87.5c0-.2,0-.4,0-.6,0-.2-.1-.3-.3-.5-.1-.1-.3-.2-.4-.3-.2,0-.4-.1-.6-.1-.4,0-.8.1-1,.4s-.4.6-.5,1.1h2.9Z"/>
    <path class="st3" d="M282.6,86.2c.2-.2.5-.4.7-.6.3-.1.6-.2.9-.2s.5,0,.8.1c.2,0,.4.2.5.4.1.2.3.4.3.6,0,.2.1.5.1.8v3.3h-.9v-3.3c0-.4,0-.7-.3-.9-.2-.2-.5-.3-.8-.3s-.5,0-.8.2c-.2.1-.5.3-.7.5v3.8h-.9v-7.6h.9v3.1Z"/>
    <path class="st3" d="M288.6,83.8c0,0,0,.2,0,.2s0,.1-.1.2c0,0-.1.1-.2.1,0,0-.2,0-.3,0s-.2,0-.2,0-.1,0-.2-.1c0,0-.1-.1-.1-.2s0-.2,0-.2,0-.2,0-.3,0-.2.1-.2c0,0,.1-.1.2-.1s.2,0,.2,0,.2,0,.3,0c0,0,.2,0,.2.1,0,0,.1.1.1.2s0,.2,0,.3ZM288.4,85.5v5.2h-.9v-5.2h.9Z"/>
    <path class="st3" d="M290.8,86.3c.2-.3.5-.5.8-.7s.6-.2,1-.2.6,0,.8.2c.2.1.5.3.6.5s.3.5.4.8c0,.3.1.7.1,1.1s0,.7-.2,1.1c-.1.3-.3.6-.4.9-.2.2-.4.4-.7.6s-.6.2-.9.2-.6,0-.8-.2c-.2-.1-.4-.3-.6-.5v2.3h-.9v-7h.6c.1,0,.2,0,.2.2v.6ZM290.8,89.4c.2.2.4.4.6.5.2,0,.4.1.7.1.5,0,.9-.2,1.1-.5.3-.3.4-.8.4-1.5s0-.6,0-.9c0-.2-.1-.4-.3-.6s-.3-.3-.4-.3c-.2,0-.4-.1-.6-.1-.3,0-.6,0-.8.2-.2.1-.4.3-.6.6v2.5Z"/>
    <path class="st3" d="M297.8,85.4c.4,0,.7,0,1,.2.3.1.6.3.8.5s.4.5.5.8c.1.3.2.7.2,1.1s0,.8-.2,1.1c-.1.3-.3.6-.5.8s-.5.4-.8.5c-.3.1-.6.2-1,.2s-.7,0-1-.2-.6-.3-.8-.5c-.2-.2-.4-.5-.5-.8s-.2-.7-.2-1.1,0-.8.2-1.1c.1-.3.3-.6.5-.8.2-.2.5-.4.8-.5s.7-.2,1-.2ZM297.8,90c.5,0,.9-.2,1.2-.5s.4-.8.4-1.4-.1-1.1-.4-1.5c-.3-.3-.6-.5-1.2-.5s-.5,0-.7.1c-.2,0-.4.2-.5.4s-.2.4-.3.6c0,.2,0,.5,0,.8,0,.6.1,1.1.4,1.4s.6.5,1.2.5Z"/>
    <path class="st3" d="M305.9,85.7v.3c0,.1,0,.2-.2.2h-.6c.1.3.2.6.2.8s0,.5-.1.7c0,.2-.2.4-.4.5-.2.1-.4.3-.6.3-.2,0-.5.1-.8.1s-.5,0-.7,0c-.1,0-.2.1-.3.2,0,0,0,.2,0,.2,0,.1,0,.2.2.3.1,0,.2.1.4.1.2,0,.4,0,.6,0,.2,0,.4,0,.6,0,.2,0,.4,0,.6,0s.4,0,.6.2c.2,0,.3.2.4.4.1.2.2.3.2.6s0,.4-.2.6c-.1.2-.3.4-.5.6-.2.2-.5.3-.8.4-.3,0-.6.1-1,.1s-.7,0-1-.1c-.3,0-.5-.2-.7-.3s-.3-.3-.4-.4c0-.2-.1-.3-.1-.5s0-.5.2-.7.4-.3.7-.4c-.2,0-.3-.2-.4-.3,0-.1-.1-.3-.1-.5s0-.2,0-.2c0,0,0-.2.1-.2,0,0,.1-.2.2-.2s.2-.1.3-.2c-.3-.1-.5-.3-.6-.6-.1-.2-.2-.5-.2-.8s0-.5.1-.7c0-.2.2-.4.4-.5.2-.1.4-.3.6-.3.2,0,.5-.1.8-.1s.4,0,.6,0c.2,0,.4.1.5.2h1.4ZM305,91c0-.1,0-.2-.1-.3,0,0-.2-.1-.3-.2-.1,0-.3,0-.4,0-.2,0-.3,0-.5,0-.2,0-.4,0-.5,0-.2,0-.4,0-.5,0-.2,0-.3.2-.5.3-.1.1-.2.3-.2.5s0,.2,0,.3c0,.1.2.2.3.3.1,0,.3.1.5.2.2,0,.4,0,.7,0s.5,0,.7,0c.2,0,.4-.1.5-.2.1,0,.2-.2.3-.3s.1-.2.1-.4ZM303.3,88.1c.2,0,.3,0,.5,0s.3-.1.4-.2c0,0,.2-.2.2-.3s0-.3,0-.4c0-.3,0-.6-.3-.8-.2-.2-.5-.3-.8-.3s-.7,0-.8.3c-.2.2-.3.4-.3.8s0,.3,0,.4.1.2.2.3c0,0,.2.2.4.2s.3,0,.5,0Z"/>
    <path class="st3" d="M307.8,83.1v7.6h-.9v-7.6h.9Z"/>
    <path class="st3" d="M310.4,83.8c0,0,0,.2,0,.2s0,.1-.1.2c0,0-.1.1-.2.1,0,0-.2,0-.3,0s-.2,0-.2,0-.1,0-.2-.1c0,0-.1-.1-.1-.2s0-.2,0-.2,0-.2,0-.3,0-.2.1-.2c0,0,.1-.1.2-.1s.2,0,.2,0,.2,0,.3,0c0,0,.2,0,.2.1,0,0,.1.1.1.2s0,.2,0,.3ZM310.2,85.5v5.2h-.9v-5.2h.9Z"/>
    <path class="st3" d="M315.4,86.4s0,0,0,0,0,0-.1,0-.1,0-.2,0c0,0-.1,0-.2-.1,0,0-.2,0-.3-.1s-.3,0-.5,0-.5,0-.7.1c-.2,0-.4.2-.5.4-.1.2-.2.4-.3.6,0,.2-.1.5-.1.8s0,.6.1.8c0,.2.2.5.3.6.1.2.3.3.5.4.2,0,.4.1.6.1s.4,0,.6,0c.1,0,.3-.1.4-.2,0,0,.2-.1.2-.2,0,0,.1,0,.2,0s.1,0,.2,0l.3.3c-.1.1-.2.3-.4.4-.1,0-.3.2-.5.2s-.3.1-.5.1-.4,0-.6,0c-.3,0-.6,0-.9-.2-.3-.1-.5-.3-.7-.5-.2-.2-.4-.5-.5-.8-.1-.3-.2-.7-.2-1.1s0-.7.2-1.1c.1-.3.3-.6.5-.9.2-.2.5-.4.8-.6s.7-.2,1-.2.7,0,1,.2c.3.1.5.3.7.5l-.2.3Z"/>
    <path class="st3" d="M320.9,90c-.1.1-.2.3-.4.4-.2.1-.3.2-.5.2-.2,0-.4.1-.6.1-.2,0-.4,0-.6,0-.4,0-.7,0-1-.2-.3-.1-.6-.3-.8-.5-.2-.2-.4-.5-.5-.9-.1-.3-.2-.7-.2-1.2s0-.7.2-1c.1-.3.3-.6.5-.8s.5-.4.8-.5c.3-.1.6-.2,1-.2s.6,0,.9.2c.3.1.5.3.7.5s.3.4.5.7c.1.3.2.6.2,1s0,.2,0,.3c0,0,0,0-.2,0h-3.5c0,.3,0,.6.1.9,0,.2.2.4.3.6.1.2.3.3.5.4.2,0,.4.1.7.1s.4,0,.6,0c.2,0,.3-.1.4-.2s.2-.1.3-.2c0,0,.1,0,.2,0s.1,0,.2,0l.3.3ZM320.1,87.5c0-.2,0-.4,0-.6,0-.2-.1-.3-.3-.5-.1-.1-.3-.2-.4-.3-.2,0-.4-.1-.6-.1-.4,0-.8.1-1,.4s-.4.6-.5,1.1h2.9Z"/>
    <path class="st3" d="M322.1,90.7v-5.2h.6c.1,0,.2,0,.2.2v.5c.3-.2.5-.4.7-.6.2-.2.5-.2.8-.2s.6,0,.9.3.4.5.5.8c0-.2.2-.4.3-.5s.3-.2.4-.3c.1,0,.3-.2.5-.2s.3,0,.5,0c.3,0,.5,0,.7.1.2,0,.4.2.5.4s.3.4.3.6c0,.2.1.5.1.8v3.3h-.9v-3.3c0-.4,0-.7-.3-.9-.2-.2-.4-.3-.8-.3s-.3,0-.4,0c-.1,0-.3.1-.4.2-.1.1-.2.2-.2.4,0,.2,0,.3,0,.5v3.3h-.9v-3.3c0-.4,0-.7-.3-.9s-.4-.3-.7-.3-.4,0-.6.2c-.2.1-.4.3-.5.5v3.9h-.9Z"/>
    <path class="st3" d="M331.7,83.8c0,0,0,.2,0,.2s0,.1-.1.2c0,0-.1.1-.2.1,0,0-.2,0-.3,0s-.2,0-.2,0-.1,0-.2-.1c0,0-.1-.1-.1-.2s0-.2,0-.2,0-.2,0-.3,0-.2.1-.2c0,0,.1-.1.2-.1s.2,0,.2,0,.2,0,.3,0c0,0,.2,0,.2.1,0,0,.1.1.1.2s0,.2,0,.3ZM331.5,85.5v5.2h-.9v-5.2h.9Z"/>
    <path class="st3" d="M332.9,86.2c.3-.3.6-.5.9-.6.3-.1.7-.2,1.1-.2s.6,0,.8.1.4.2.6.4c.2.2.3.4.3.6,0,.2.1.5.1.8v3.3h-.4c0,0-.2,0-.2,0,0,0,0,0-.1-.2v-.5c-.2.1-.4.2-.5.3-.1,0-.3.2-.4.2-.1,0-.3.1-.5.2s-.3,0-.5,0-.4,0-.6,0-.3-.1-.5-.3c-.1-.1-.2-.3-.3-.4,0-.2-.1-.4-.1-.6s0-.4.2-.6c.1-.2.3-.4.6-.5.3-.1.6-.3,1-.4.4,0,.9-.1,1.5-.2v-.4c0-.4,0-.7-.3-.9-.2-.2-.4-.3-.8-.3s-.4,0-.6,0c-.2,0-.3.1-.4.2-.1,0-.2.1-.3.2,0,0-.2,0-.2,0s-.1,0-.2,0c0,0,0,0-.1-.1l-.2-.3ZM335.8,88.3c-.4,0-.8,0-1.1,0-.3,0-.5.1-.7.2-.2,0-.3.2-.4.3,0,.1-.1.2-.1.4s0,.3,0,.4c0,0,.1.2.2.2,0,0,.2.1.3.1s.2,0,.3,0,.3,0,.4,0c.1,0,.3,0,.4-.1.1,0,.2-.1.3-.2.1,0,.2-.2.3-.3v-1.1Z"/>
    <path class="st3" d="M338,90.1c0,0,0-.2,0-.3,0,0,0-.1.1-.2s.1-.1.2-.1c0,0,.2,0,.3,0s.2,0,.3,0c0,0,.1,0,.2.1s.1.1.1.2c0,0,0,.2,0,.3s0,.2,0,.3c0,0,0,.1-.1.2,0,0-.1.1-.2.1s-.2,0-.3,0-.2,0-.3,0-.1,0-.2-.1c0,0-.1-.1-.1-.2,0,0,0-.2,0-.3Z"/>
  </g>
</svg>