<?xml version="1.0" encoding="UTF-8"?>
<svg xmlns="http://www.w3.org/2000/svg" viewBox="0 0 150 150">
  <defs>
    <style>
      .cls-1 {
        fill: #fff;
      }

      .cls-2 {
        fill: #cda45e;
      }
    </style>
  </defs>
  <g id="Camada_3" data-name="Camada 3">
    <circle class="cls-2" cx="75" cy="75" r="62.5"/>
  </g>
  <g id="Camada_1" data-name="Camada 1">
    <g>
      <path class="cls-1" d="M44.19,52.5l.99,2.47c.53,1.32,1.22,2.53,2.04,3.63l-2.19-15.29-4.95.71,1.21,8.48h2.9Z"/>
      <path class="cls-1" d="M55.52,64.36l-1.86-18.11-4.98.51,1.53,14.91c1.57,1.22,3.37,2.13,5.3,2.69h0Z"/>
      <path class="cls-1" d="M62.5,64.8v-24.8h-5v24.8c.82.13,1.65.2,2.5.2s1.68-.07,2.5-.2Z"/>
      <path class="cls-1" d="M72.5,43.42l-4.91-.92-4.17,22.13c2-.43,3.87-1.23,5.53-2.36l3.55-18.85Z"/>
      <path class="cls-1" d="M75.81,52.5h3.26l.93-5.77-4.94-.8-1.98,12.25c.69-.99,1.27-2.06,1.73-3.22l.99-2.47Z"/>
      <path class="cls-1" d="M77.5,55l-.16.41c-2.55,6.38-8.27,11.13-15.09,11.96-8.42,1.02-16.31-3.77-19.39-11.47l-.36-.89h-7.5l7.21,52.84c.17,1.24,1.23,2.16,2.48,2.16h30.63c1.25,0,2.31-.92,2.48-2.16l7.21-52.84h-7.5ZM60,95c-5.52,0-10-3.36-10-7.5s4.48-7.5,10-7.5,10,3.36,10,7.5-4.48,7.5-10,7.5Z"/>
      <path class="cls-1" d="M112.5,90h-29.75l-.68,5h30.43c1.38,0,2.5-1.12,2.5-2.5s-1.12-2.5-2.5-2.5h0Z"/>
      <path class="cls-1" d="M111.25,97.5h-29.52l-.34,2.5h18.61l2.75,4.4c.46.74,1.54.74,2,0l2.75-4.4h3.75c.69,0,1.25-.56,1.25-1.25s-.56-1.25-1.25-1.25h0Z"/>
      <path class="cls-1" d="M106.87,105.73c-.68,1.08-1.84,1.73-3.12,1.73s-2.44-.65-3.12-1.73l-2.02-3.22h-17.57l-.78,5.68c-.09.65-.31,1.25-.62,1.79.12,0,.23.03.34.03h27.5c2.76,0,5-2.24,5-5v-2.5h-3.62l-2.02,3.22h0Z"/>
      <path class="cls-1" d="M112.5,87.5c0-8.28-6.72-15-15-15h-7.5c-1.75,0-3.42.32-4.98.87l-1.93,14.13h29.41ZM102.5,77.5c.69,0,1.25.56,1.25,1.25s-.56,1.25-1.25,1.25-1.25-.56-1.25-1.25.56-1.25,1.25-1.25ZM96.25,80c.69,0,1.25.56,1.25,1.25s-.56,1.25-1.25,1.25-1.25-.56-1.25-1.25.56-1.25,1.25-1.25ZM88.75,77.5c.69,0,1.25.56,1.25,1.25s-.56,1.25-1.25,1.25-1.25-.56-1.25-1.25.56-1.25,1.25-1.25Z"/>
    </g>
  </g>
</svg>