
<svg xmlns="http://www.w3.org/2000/svg" version="1.1" xmlns:xlink="http://www.w3.org/1999/xlink" preserveAspectRatio="none" x="0px" y="0px" width="250px" height="250px" viewBox="0 0 250 250">
<defs>
<g id="Layer1_0_FILL">
<path fill="#EFEED8" stroke="none" d="
M 271.5 38.35
Q 271.5 23.35 256.5 23.35
L 36.5 23.35
Q 21.5 23.35 21.5 38.35
L 21.5 258.35
Q 21.5 273.35 36.5 273.35
L 256.5 273.35
Q 271.5 273.35 271.5 258.35
L 271.5 38.35 Z"/>
</g>

<g id="Layer0_0_FILL">
<path fill="#43463D" stroke="none" d="
M 222.35 29.8
Q 222.1130859375 30.0822265625 221.95 30.35 221.563671875 29.315234375 220.75 28.4 220 27.45 219.1 27.5 218.3 27.55 217.9 28.5 217.55 29.3 217.65 30.2 217.75 30.8 217.95 31.95 218.1 32.95 217.8 33.6 217.6 34.05 216.55 35.1 212.1 39.3 210.5 45.25 210.3 46.2 209.9 48.05 209.55 49.75 209.1 50.85 208.35 53.05 205.9 56.35 205.2 57.25 201.1 62.3 200.0541015625 63.5982421875 199.15 64.75 199.3908203125 63.7578125 199.7 62.15
L 201.55 51.3
Q 201.75 49.85 201.6 49.3 201.45 48.8 201.05 48.45 200.6 48.1 200.15 48.15 199.25 48.25 198.6 50.05 196.5 56 191.15 61.65 187.85 65.2 180.75 70.85 178.85 72.4 178.3 73 176.85 74.6 175.45 77.45 174.828125 78.69375 174.05 80.55 173.10234375 82.82421875 171.9 86 170.4927734375 86.0630859375 168.65 87.4 165.8 89.45 162.7 92.6 160.8 94.5 157.3 98.45
L 152.2 104.85
Q 149.03828125 109.0771484375 146.1 112.35 146.2609375 108.53515625 145.45 103.5 143.6 92.4 143.5 91.1 143 84.2 145.2 72.9 147.8 59.3 148.05 54.65 148.65 42.8 144.5 31.75 142 25.3 138.15 23.85 136.69140625 23.31953125 135.55 23.6 135.6171875 23.5759765625 135.65 23.55 135.3 22.85 134.5 23.15 134 23.4 133.5 24.05 129.95 28.9 128.4 35.35 127 41.2 127.35 47.85 127.7 53.55 129.4 60.15 130.6 65.05 133.1 72.15 134.4 75.85 134.7 77.8 135.05 79.95 134.85 85 134.577734375 94.0748046875 136.3 99.9 134.8732421875 98.1361328125 132.7 95.8 131.4314453125 94.416015625 130.4 93.2 128.3392578125 90.776171875 127.3 89.1 127.1453125 88.8568359375 127 88.6 124.730078125 84.830078125 122.95 78.6 120.65 70.8 118.25 57.95 115.1 41.35 114.15 37.15 113.4654296875 37.3662109375 113.35 38.4 112.8298828125 37.0611328125 112 35.85 111.2 34.6 110.4 34.9 109.9 35.05 109.55 36.15 109.1 38.1 109.1 42.7 109.2 53.7 109.5 59.2 109.85 65.4 110.65 70.55 111.15 73.65 111.7 75.05 112.070703125 76.0609375 113.1 77.9 113.5978515625 78.7740234375 114.25 79.85
L 116.95 84.25
Q 118.110546875 86.05078125 118.8 86.95 115.1513671875 90.13828125 114.15 95.05 113.80390625 96.8666015625 113.8 100.3 113.589453125 99.389453125 112.6 98.4 111.35 97.3 110.75 96.7 109.45 95.35 108.6 93.2 108.05 92 107.3 89.2 101 67.3 87.05 56.05 81.8 51.85 77.55 52.05 75.8484375 52.14453125 74.25 52.85 74.190234375 52.90625 74.1 52.95 72.56171875 53.7423828125 71.45 55 71.29140625 55.0439453125 71.15 55.15 71.0392578125 55.223828125 70.95 55.35 70.776171875 55.571484375 70.65 55.95 68.95 61.55 69.7 71.25 69.95 73.75 70.05 74.25 70.7 77.4 72.85 80.65 74.3 82.85 77.3 86.3 83.8 93.6 87.9 96.75 94.55 101.8 101.35 102.85 102.6205078125 103.0521484375 103.3 102.75 103.501953125 103.7068359375 103.9 105.1 104 105.85 104.15 107.35
L 104.95 109.2
Q 105.85 111.2 106 111.4 106.1 111.65 107.9 114.65
L 109.75 117.55
Q 110.65 119 111.5 120.15 113.028515625 122.21796875 114.65 122.65 114.7595703125 123.436328125 114.85 124.1 115.65 129.8 118.95 140.8
L 120.95 147.6
Q 123.05 154.7 124.5 158.1 124.544921875 158.2009765625 124.6 158.3 123.8740234375 158.9591796875 123.25 159.7 122.6 160.5 121.6 161.95 121.4541015625 162.184375 121.3 162.4 120.1009765625 164.3875 119.25 166 117.9408203125 168.712109375 117.55 170.2
L 117.25 169.75
Q 117.1431640625 169.3650390625 117 169.05 117.504296875 167.6837890625 117.2 166.2 117 165.2 116.4 164 115.7 162.5 115.25 161.75 114.392578125 160.1931640625 113.4 158.95 113.775390625 157.810546875 113.15 155.8 111.05 148 109.1 143.7 108.55 142.5 106.9 139.4 101 128.55 94.15 118.25 92.35 115.5 91.05 114.2 89.6 112.8 86.65 111
L 75.85 104.25 75.45 98.3
Q 75.25 94.95 74.85 92.8 74.4 90.7 72.9 86.8
L 66.3 69.85
Q 61.15 57.85 51.95 48.6 47.15 43.8 43.25 43.7 43.0185546875 43.689453125 42.8 43.7 40.8763671875 43.726171875 39.4 44.8 38.8 45.2 38.95 45.65 39.0388671875 45.91640625 39.3 45.95 39.276171875 46.13515625 39.25 46.3 39.165625 46.503515625 39.1 46.75 39.0533203125 46.937109375 39.05 47.85 38.135546875 56.026171875 39.8 64.05 41.9 74.2 48.55 85.2 50.2822265625 88.0671875 52.75 91.65 56.5435546875 97.0390625 62.05 104.05 65.6 108.5 66.65 111.25 67.35 113.1 67.75 116 68 117.6 68.4 120.85 69.3103515625 126.31171875 72.55 132.3 75.208203125 137.1494140625 79.4 142.35 83.4 147.3 86.95 150.35 91.5 154.25 96.2 155.95
L 96.2 155.95
Q 96.1724609375 156.444140625 96.2 157.05 96.75 164.9 101.15 171.55 102.65 173.75 104.1 174.95 105.5 176.15 109.5 178 113.15 179.7 114.7 181.3 115.45 182.05 116.75 183.7 117.65 184.7 118.85 185.35 119.3 185.7 119.75 185.7 119.8015625 185.7 119.85 185.7 119.55625 186.3375 119.4 186.9 119.1 187.7 119 188.95 118.7900390625 192.0107421875 119.85 195.65 120.5404296875 198.07109375 121.8 200.75 123.45 204.2 125.1 206.1 125.6544921875 206.825 126.9 207.95 126.838671875 208.10625 126.8 208.3 126.4 210.15 126.7 212.55 126.85 213.9 127.45 216.8 127.6 217.6 127.9 218.35 128.101953125 218.8345703125 128.65 219.55 127.6927734375 221.555078125 126.05 225.1 124.3 228.7 122.85 231 121.55 233.15 121.65 234.2 121.7 234.9 122.4 236 123.45 237.35 124.55 237.3 125.5 237.25 126.55 235.7
L 136.8 221.25
Q 138.65 218.65 139.45 217.25 140.8 214.9 141.35 212.85 141.6 212.1 141.6 211.4 141.65 210.75 141.45 209.45 141.15 207.45 140.85 206.5 140.44453125 205.05859375 138.8 202.45 139.0048828125 202.2427734375 139.2 201.95 142.55 197.1 143.5 195.05 145.3 191.2 146.1 186 146.1060546875 185.96015625 146.1 185.9 146.7544921875 185.696875 147.5 185.2 148.5 184.45 149 184.1 150.05 183.4 152.25 182.4 154.5 181.4 155.45 180.75 156.6 180 158.5 178 163.45 172.45 166.15 165.6 166.65 164.4 166.75 163.75 166.95 162.95 167.05 161.75 167.15 160.45 167.2 159.75
L 167.65 157.8 167.65 157.75
Q 170.961328125 155.310546875 173.3 150.45 173.8 149.3 177.05 140.7 178.65 136.45 182.65 128.25 185.6 122.3 187.1 119.8 189 116.6 192.5 111.7
L 203.2 96.6
Q 205.75 93 207.05 90.75 207.3111328125 90.2962890625 207.55 89.8 209.367578125 86.4845703125 210.9 82.15 212 78.9 213.6 73.05 215.5 65.9 216.05 62.1 216.4 59.45 216.55 58.1 216.9 55.7 217.35 54.1 217.7 52.75 218.55 50.65 219.6 48 219.85 47.2 221.4015625 42.790234375 221.5 38.05
L 224.1 35.75
Q 224.8 34.95 225.3 33.95 225.95 32.55 226.1 31.2 226.25 30.4 226.25 29.6 226.25 28.85 226 28.55 225.65 28.15 225 28.15 223.6 28.15 222.35 29.8
M 142.85 147.3
Q 142.966015625 147.7177734375 143.1 148.2
L 144.05 151.5
Q 144.95 154.5 144.3 156.05 144.1 156.55 143.45 157.5 143.2240234375 157.8130859375 143.05 158.05 142.39609375 157.5205078125 141.6 156.95 138.88203125 154.884375 136.8 154.7 139.005078125 152.2291015625 140.7 150.05 141.9806640625 148.54765625 142.85 147.3
M 200.15 50.45
Q 200.05 51.55 199.65 53.65
L 198.1 62.5
Q 197.9 63.85 197.6 64.8 197.35 65.5 196.75 66.9 196.431640625 67.855078125 196.45 68.6 194.04453125 72.5037109375 192.1 77.9 191.6607421875 79.1263671875 191.1 80.8 191.040625 81.0845703125 190.95 81.35 190.5841796875 82.56015625 190.15 83.95 188.608203125 85.0658203125 186.4 86 185.2 86.5 181.75 87.65 181.3009765625 87.818359375 180.9 87.95 178.7896484375 88.85234375 177.95 89.65 177.4673828125 90.1326171875 177.75 90.4
L 177.45 91.3
Q 177.25 92.1 176.55 93.2 175.65 94.65 175.5 95
L 174.7 97.1
Q 174.25 98 172.8 99.55 165.75 107 156.2 111.3 153.15 112.7 152.3 113.25 150.7560546875 114.203515625 148.8 116.1 148.7125 116.061328125 148.6 116.05 148.1 116 147.8 116.7 147.6 117.25 147.6 118.35
L 147.55 126.7
Q 147.55 126.840234375 147.55 126.95 147.51875 127.2123046875 147.45 127.35
L 147.1 127.9
Q 146.95 128.25 147 128.85 147.05 129.5 147 129.75 146.9 130.05 146.65 130.65 146.6 130.95 146.65 131.6
L 146.35 132.2 146.2 132.8
Q 146.15078125 130.456640625 145.85 127.9 145.8453125 127.8619140625 145.85 127.8 145.2873046875 123.346484375 143.8 117.1 143.733203125 116.816796875 143.65 116.5 144.0013671875 116.448828125 144.45 116.05 144.7630859375 115.7423828125 145.05 115.45 145.358984375 115.684765625 145.75 115.75 145.8576171875 115.1759765625 145.9 114.55 150.85859375 109.5482421875 154.3 104.8
L 156.15 102.35
Q 157.9 100.15 160.95 96.9 163.8 93.8 165.6 92.15 168.3 89.7 170.85 88.25 171.027734375 88.1498046875 171.2 88.05 170.86796875 89.2103515625 171.2 89.75 171.9 89.4 172.5 87.95
L 174.05 84.35
Q 175.5943359375 80.7701171875 176.65 78.6 177.12734375 77.7056640625 177.5 77.05 178.3 75.6 179.2 74.5 180.1 73.5 181.45 72.45 188.85 66.45 192.35 62.7 197.95 56.75 200.15 50.45
M 180.55 89.45
Q 181.232421875 89.2447265625 182.1 89.05 184.4 88.5 186.3 87.7 188.237109375 86.9509765625 189.55 86 189.29453125 86.9537109375 189 88 188.1 91.2 187.9 93 187.6 95.8 188.35 97.9 188.6 98.5 189.15 98.85 189.244140625 98.9048828125 189.3 98.95 187.2361328125 101.7849609375 184.9 104.5 180.15 109.75 178 112.5 174.25 117.3 172.9 121.55 172.15 124.05 171.55 129.3 171 134.5 170.2 137 169.85 138.15 168.95 140.4 168.25 142.4 168.1 143.85 168.05 144.6 168 146.1 167.95 147.45 167.6 148.25
L 166.15 150.8
Q 165.5484375 151.7693359375 165.5 152.55 165.1404296875 152.283984375 164.65 152.1 163.75 151.8 162.4 151.8 160.55 151.7 159.7 152 158.9 152.25 158.05 152.95 156.7 154.05 154.65 157.25 152.25 161.15 151.2 163.2
L 147.55 171.3 147.15 172.6
Q 147.132421875 172.6916015625 147.1 172.75 147.1759765625 171.04375 147.15 169.9 147.1 166.2 146.4 163.35 146.1 162.15 145.65 161.15 145.1501953125 160.17421875 144.2 159.15 145.6548828125 157.3283203125 145.9 156.25 146.15 155.35 145.95 154.05 145.526953125 149.7734375 143.8 145.8 144.0677734375 145.3837890625 144.25 145 145.5 142.3 145.9 138.8 146.0791015625 137.435546875 146.15 136 146.86484375 135.2720703125 147.25 134.55
L 147.65 133.55 148.45 130.55 148.8 127.95
Q 148.8767578125 127.374609375 148.9 126.35 148.9 126.04921875 148.9 125.7 148.95 122.75 148.8 119.1 148.8 118.396484375 148.85 117.95 148.9986328125 117.8779296875 149.15 117.75 151.85 115.2 155.15 113.55
L 159.05 111.75
Q 161.3 110.6 163.5 109.15 170.3 104.75 173.8 100.95 175.15 99.55 176 98.2
L 178.6 93.05
Q 179.35 91.65 179.35 90.65 179.407421875 90.305078125 179.25 90.05 179.7744140625 89.73828125 180.55 89.45
M 82.8 55.35
Q 91.3 60.85 97.4 70.95 102.3 79 105.9 90.7 106.95 94.2 107.7 95.5 109.795703125 99.1921875 113.8 100.45 113.837890625 100.93125 113.85 101.45
L 113.95 107.45 114.05 110.5 114.05 110.75
Q 114.1025390625 113.096484375 114.15 115.1 114.323046875 118.8009765625 114.55 121.45 113.9150390625 120.7404296875 113.2 119.75 112.953125 119.4169921875 112.7 119.05
L 109.45 114
Q 109.15 113.35 109 113.2
L 108.4 112.6
Q 108.25 112.4 108.15 112 108.05 111.4 108 111.3 107.95 111.2 107.25 110.2 106.9 109.7 106.6 108.8 106.2 107.7 106.05 107.4
L 105.65 106.6 105.5 106 105.35 104.95
Q 105.25 104.3 105.05 103.85 104.95 103.65 104.5 102.95 104.15 102.35 104 102.2
L 103.95 102.15
Q 104.0203125 102.1181640625 104.05 102.05 103.909375 102.0138671875 103.75 101.95 103.5564453125 101.925 103.35 101.85 100.178515625 101.0412109375 98.6 100.5 95.6 99.55 93.4 98.3 90.5 96.7 86.75 93.35 79.6 87.15 75.45 81.6 72.75 78 71.85 75.1 71.25 73.2 71 70.55 70.296875 63.1912109375 71.75 56.15 71.8435546875 55.7162109375 71.95 55.25 71.93359375 55.1841796875 71.9 55.1 73.0203125 54.9546875 75.1 54.3 75.1791015625 54.273046875 75.25 54.25 77.4970703125 53.505078125 78.85 53.65 80.5 53.8 82.8 55.35
M 40.6 45.6
Q 41.775 45.232421875 43.05 45.35 44.3248046875 45.4439453125 45.7 46.05 47.75 46.9 50.25 49.35 57.4 56.25 63 67.5 66.3 74.25 71.3 88.15 72.55 91.75 72.9 93.4 73.3 95.3 73.5 98.65 73.7 102.5 73.9 103.95 74.1 105.15 74.45 105.6 74.7 105.95 75.15 106.05 75.65 106.15 76 105.95
L 76 105.8
Q 79.9873046875 108.846875 85.05 112 88.2 113.9 89.4 115 90.75 116.3 93.05 119.85 94.8 122.6 99.8 130.85 104.45 138.55 106.6 142.9 109.95 149.8 111.1 155.85 111.205859375 156.45625 111.35 156.95 111.0802734375 156.7423828125 110.8 156.55 110.45 156.3 108.05 154.95 106.4 154 105.6 153.55 104.15 152.8 103 152.5 101.85 152.15 99.9 152.15 98.8 152.15 98.15 152.6 97.8 152.9 97.65 153.3 97.5 153.8 97.75 154.15
L 98.25 154.25
Q 98.4 153.75 98.95 153.55 99.3 153.45 100 153.45 102 153.6 104.3 154.7 105.75 155.35 108.25 157 110.45 158.35 111.55 159.5 112.5 160.5 113.8 162.9 114.8 164.6 115.2 165.85 115.5248046875 166.7779296875 115.6 167.5
L 115.55 167.55
Q 115.55 167.6705078125 115.6 167.85 115.699609375 168.4595703125 115.8 168.8 115.8236328125 169.105078125 115.95 169.4 115.95 169.7 116.1 169.9
L 116.3 170.25 116.4 170.55
Q 116.5 170.9 116.9 171 117.1333984375 171.1 117.35 171.05
L 117.3 171.4
Q 117.1 172.6 117 175.05 116.973828125 175.3119140625 116.95 175.55 116.1919921875 174.169140625 115.1 172.65
L 110.3 165.45
Q 107 160.65 105.5 158.9 103.6 156.55 103.15 155.65 103.05 155.6 102.95 155.7 102.85 155.85 102.9 156 103.05 156.9 104.35 158.55 107.4 162.35 112.7 170.45
L 116.6 176.5
Q 117.1 177.35 117.95 178.95 118.75 180.4 119.55 181.25 119.65 181.35 119.75 181.4 119.9 181.4 119.9 181.3 119.481640625 180.26328125 119 179.25 120.0412109375 180.2748046875 121 180.85 121.5857421875 181.173046875 122.1 181.3 122.0615234375 181.4111328125 122 181.5 121.35 182.6 120.25 184.9
L 117.25 181.4
Q 116.1 179.95 115.2 179.2 113.85 178.05 111.05 176.8 107.75 175.35 106.7 174.65 103.2 172.4 101 167.9 99.4 164.75 98.05 159.45 97.05 156.1 97.85 154.3 97.8125 154.2 97.75 154.15 97.5625 153.9875 97.15 154.25 96.9693359375 154.3533203125 96.8 154.5 96.633984375 154.3365234375 96.4 154.2 93.8 152.7 92.55 151.9 83.65 146.3 77.6 137.3 74.30703125 132.4685546875 72.2 127.25 70.447265625 122.78984375 69.55 118.05 69.05 114.9 68.75 113.3 68.2 110.6 67.35 108.75 66.55 106.95 65.05 104.9 64.25 103.8 62.2 101.4 56.34296875 94.27890625 51.55 87.05 50.69921875 85.7447265625 49.85 84.4 46.45 79.1 44.6 74.8 41.85 68.45 40.6 60.25 39.9853515625 56.117578125 39.65 50.5 39.7 50.073046875 39.7 49.75 39.7 48.45 39.7 47.85 39.8 46.75 40.3 46.1 40.53046875 45.8119140625 40.6 45.6
M 110.15 40.8
Q 110.05 37.75 110.95 35.7
L 113.6 40.65
Q 115.4681640625 52.0123046875 116.65 58.3 118.65 68.8 120.85 77.1 121.70078125 80.344921875 122.65 83 124.068359375 87.0412109375 125.7 89.7 127.3 92.35 131.6 97.15 135.75 101.85 137.4 104.65 140.05 109.1 142.15 117.95 143.6416015625 124.240625 144.15 128.85 144.45 131.346484375 144.45 133.35 144.45 142.2 140.15 148.1 139.45 149.05 137.65 151.1 136 152.95 135.2 154.1 134.671484375 154.7912109375 134.85 155.25 134.79453125 155.6658203125 135.6 155.8 140.55 156.75 143.25 160.8 143.95 161.8 144.25 162.65 145.7 165.9 145.6 172.05 145.45 179.85 144.2 187.2 143.6 190.3 143.1 191.7 142.55 193.15 140.35 196.9
L 137.65 201.25
Q 137.1 202.15 137.4 202.6 137.47109375 202.69140625 137.55 202.75 137.67109375 203.1849609375 137.9 203.7 138.15 204.2 138.6 205.2
L 139.35 207.3
Q 140.05 209.8 139.95 211.1 139.85 211.9 139.7 212.35 139.2 214.3 137.95 216.45 137.15 217.8 135.4 220.25
L 131.75 225.3
Q 131.4392578125 224.9392578125 131.25 224.75
L 130.65 224.4
Q 130.15 224 129.95 223.75
L 129.55 223.3 129.35 222.55
Q 129.15 222.45 129.05 222.65 128.95 222.75 128.95 223.05 129.05 223.85 129.5 224.25
L 130.65 225.2 130.85 225.4 131.25 225.45
Q 131.2970703125 225.45 131.55 225.55
L 124.4 235.55
Q 123.3 235.1 123.4 233.6 123.5 232.85 124.3 231.45 127.2091796875 226.5552734375 129.75 220.9 130.8634765625 221.9224609375 131.95 221.85 132.6 221.75 132.6 221.35 131.3849609375 220.456640625 130.45 219.05
L 130.45 219
Q 130.45 218.3275390625 129.95 218.25 129.8564453125 218.0583984375 129.75 217.85 128.55 215.7 128.25 213.15 128.1 212.15 128 210.15
L 127.9 208.7
Q 128.516796875 209.12578125 128.9 209.3 129.55 209.5 129.8 209.3 130 209.1 129.9 208.7 129.8 208.35 129.5 208.1 128.95 207.5 127.9 206.55 126.75 205.5 126.25 205 124.9 203.55 123.55 200.65 122.05 197.5 121.25 194.75 120.8232421875 193.185546875 120.65 192.15 120.57890625 191.7322265625 120.55 191.4 120.3 188.4 122 184.55 122.8 182.75 123.45 181.7 123.51640625 181.5669921875 123.55 181.45
L 123.55 181.45 123.6 181.45
Q 123.713671875 181.2416015625 123.7 181 123.6916015625 180.6916015625 123.35 180.35 123.05 180 122.35 179.7 119 177.95 118.45 175.6 118.25 174.65 118.55 172.7 118.95 170.8 119 170.55 119.4 169.2 120.15 167.7 121.31171875 165.3974609375 122.4 163.55 123.9138671875 161.109375 125.3 159.55
L 125.4 159.4
Q 126.1111328125 159.8388671875 126.6 159.35 127.02734375 158.9615234375 126.65 158
L 127.05 157.45
Q 127.1056640625 157.7298828125 127.15 158 127.4 159.75 127.95 163.2 129.1951171875 170.9931640625 129.3 179.7 129.3 180.4576171875 129.3 181.2 129.2888671875 183.4869140625 129.3 185.35
L 129.15 185.1 127.5 181.9
Q 126.0896484375 179.0791015625 124.95 177.65 124.798046875 177.4658203125 124.65 177.3 124.15 176.65 123.6 176.7 124.2533203125 177.396875 124.75 178.05 125.4484375 178.8880859375 125.9 179.65 126.4 180.45 127.3 182.25
L 129.2 186 129.3 186.15
Q 129.29453125 187.064453125 129.3 187.85 129.32578125 192.3640625 129.45 193.7 130.05 200.7 133 205.15 132.2875 202.738671875 131.8 200.25 130.9404296875 196.0291015625 130.75 191.65 130.6802734375 190.3482421875 130.65 188.6 130.6525390625 188.3369140625 130.65 188.05 130.6265625 186.2185546875 130.65 183.9 130.75 178.3 130.7 176.15 130.5568359375 171.10390625 129.65 164.3 129.330859375 161.937109375 128.9 159.35 128.8634765625 158.9916015625 128.8 158.6 128.1361328125 154.2658203125 127.9 152.05 127.871875 151.4490234375 127.85 151 127.820703125 150.18203125 127.8 149 127.829296875 148.1392578125 127.85 147.1 127.9 144.35 127.9 143.2 127.9 139.4 127.05 133 124.85 115.75 121.35 98.85 121 97.5 120.3 97.45 122.15 107.55 124.3 121.2 125.295703125 127.5638671875 125.8 131.8 125.8830078125 132.489453125 125.95 133.1 126.3017578125 136.390625 126.45 139.4 124.3650390625 135.50625 121.45 132.4 121 131.95 120.65 132.1
L 122.3 134
Q 123.4 135.2 123.6 135.5 124.4 136.55 126.15 139.35 126.3158203125 139.6484375 126.45 139.7 126.6234375 142.5150390625 126.6 145.05 126.6 147.65 126.55 152.8 126.6076171875 154.0369140625 126.8 155.55 126.8580078125 156.0109375 126.9 156.45 126.539453125 156.730859375 126.15 157 126.0998046875 156.859765625 126 156.7 124.7619140625 154.2451171875 123.5 149.85
L 119.1 135.1
Q 118.25 132.4 117.6 129.8 116.45 125.05 116 119 115.7853515625 116.42578125 115.6 111.95 115.5701171875 110.6279296875 115.5 109.1 115.5142578125 108.6201171875 115.5 108.1
L 115.5 107.75 115.3 101.75
Q 115.2 97.95 115.5 96.1 116.2291015625 91.1681640625 119.5 87.75 119.8375 87.9892578125 120.05 88.05 120.35 88.15 120.65 88 120.95 87.85 121 87.55 121.05 87.25 120.75 86.75
L 120.7 86.65
Q 120.67265625 86.4306640625 120.5 86.35
L 116.4 80.3
Q 114.35 77.3 113.55 75.45 113.3154296875 74.9103515625 113.1 74.25 112.3974609375 72.1412109375 111.9 68.85 110.7 61 110.6 52.35 110.6 47.45 110.5 46.1 110.15 42.55 110.15 40.8
M 134.4 28.25
Q 134.1 28.8 134.1 29.75 134 36.7 134.85 45.15 135.3052734375 49.829296875 136.3 57.25 134.118359375 52.2126953125 130.6 48 129.7 46.9 128.9 46.8 128.7427734375 46.755078125 128.6 46.75 128.4892578125 43.371875 128.95 40.3 129.45 37 131.05 31.9 131.95 28.9 132.75 27.3 133.694921875 25.4103515625 134.95 24.15 139.8720703125 25.180859375 142.9 32.15 146.85 41.3 146 54 145.7 58.75 144.65 65.05 144.05 68.7 142.7 76 142.237890625 78.7251953125 141.9 81.05 141.9048828125 80.748046875 141.85 80.4 141.3044921875 77.1265625 141 73.8 140.9197265625 72.921875 140.85 72 140.6869140625 69.5412109375 140.65 67.05 140.65 62 140.55 59.45 140.55 58.6 140.15 54.35
L 137.65 27.65
Q 137.45 29.85 137.75 34.3
L 138.2 41.85 140.6 79.4
Q 140.616015625 79.6169921875 140.6 79.8 140.868359375 82.18046875 141.65 83.1 141.6708984375 83.06640625 141.7 83 141.2958984375 86.70703125 141.35 89.25 141.5 92.45 142.15 96.35 142.6 99.05 143.55 104.45 144.3 109.15 144.25 112.6 144.25 113.1021484375 144.3 113.5 143.490234375 111.4240234375 142.8 107.8
L 142.05 102.5
Q 141.7 98.55 141.5 97.4 141.15 95.65 141.1 95.3
L 141.05 92.9
Q 141 92.3 140.8 91.3 140.55 90.05 140.5 89.65 140.4 89.15 140.3 86.9 140.2599609375 86.8599609375 140.2 86.9 140.1697265625 86.9302734375 140.15 86.95 140.05 87.05 140.05 87.15 139.9833984375 88.58046875 140 89.5 140.0498046875 89.9986328125 140.1 90.35 140.25 91.2 140.6 92.9 140.65 93.3 140.65 95.3
L 141.1 99.75
Q 141.8 106.25 142.6 109.35 143.2130859375 111.8025390625 144.2 114.4 143.8642578125 114.78125 143.5 115.15 143.422265625 115.227734375 143.35 115.3 143.0451171875 114.114453125 142.7 113 142.903125 113.215625 143.1 113.3
L 140.75 100.45
Q 140.55 99.3 140.25 98.75 139.9 95 139.85 94.25
L 139.7 92.6 139.4 91.45
Q 139.35078125 91.154296875 139.35 89.6
L 139.35 89.55
Q 139.25 87.95 139 86.75
L 138.6 84.8
Q 138.5 84.35 138.4 82.15 138.3220703125 82.1166015625 138.25 82.1 138.05 82.155859375 138.05 82.7
L 139.2 97.5
Q 139.2607421875 98.06171875 139.35 98.8 139.4296875 99.1853515625 139.5 99.6 139.7248046875 101.066796875 140.1 103.05
L 141 108
Q 139.7978515625 104.9158203125 138.35 102.65 138.631640625 102.618359375 138.85 102.4 136.35 95.6 136.55 85.15 136.65 79.75 136.4 78 136.1 75.6 134.6 71.35 131.05 61.1 129.9 56 128.8408203125 51.3923828125 128.65 47.25 129.1783203125 47.15546875 129.95 47.85 131.1 49 133.2 52.35
L 136.35 57.55
Q 136.530859375 58.86328125 136.7 60.25 136.7361328125 60.3515625 136.75 60.45
L 136.85 61.4 137.35 64.9
Q 138.0568359375 70.5552734375 138.15 75.85 138.0212890625 75.594140625 137.9 75.4 137.9 75.35 137.05 74.25 136.7 73.8 136.35 73
L 135.45 71.35 135.1 71.4 136.3 73.55
Q 136.45 73.95 136.75 74.35 137 74.7 137.55 75.35 137.7 75.6 137.9 76.1 138.0373046875 76.3470703125 138.2 76.5 138.196875 76.8791015625 138.2 77.25 138.25 79.35 138.35 80.15
L 138.35 80.2
Q 138.559765625 81.8197265625 139.1 82.9 138.75 83.05 138.65 83.45 138.5 83.85 138.7 84.2 139.25 84.4 139.75 83.9 140.2 83.45 140.2 82.8 140.25 82.3 140 81.65 139.75 80.9 139.6 80.5 139.2 79.3 139.2 76.65 139.1228515625 73.30859375 138.9 70.25 138.8181640625 69.1166015625 138.7 68 138.557421875 66.3138671875 138.35 64.7 137.2 56.9 136.65 53 136.1974609375 49.8935546875 135.7 45.15 135.0767578125 38.3732421875 134.4 28.25
M 222.2 33.6
Q 222.3625 32.727734375 222.3 31.9 223.0169921875 30.125390625 224.85 29.45 225.25 30.15 224.6 31.95 223.65 34.35 222.75 35.1 221.971875 35.6291015625 221.5 36.05 221.501953125 35.99609375 221.5 35.95 221.323828125 36.1482421875 221.15 36.35 221.1013671875 36.4373046875 221.05 36.5 220.640234375 36.909765625 220.6 37.3 220.089453125 38.35234375 219.8 39.8 219.5 41.2 219.1 44.15 218.8 45.7 217.9 48.1 216.75 51.3 216.55 51.95 215.9 54.05 215.35 57 215 58.7 214.45 62.1 213.3 68.9 211.2 75.95 209.813671875 80.6166015625 208.15 84.55 205.5412109375 90.7701171875 202.25 95.25 198.85 99.5 197.35 101.7 196.5 102.9 195.1 105.25 193.6 107.7 192.9 108.75 191.95 110.15 189.75 112.95 187.65 115.65 186.65 117.15 184.7 120.05 181.6 126.35 180.7287109375 128.14375 179.95 129.75
L 181.25 125.95
Q 181.7078125 125.58046875 182.1 124.6 183.2 122.05 185.35 117.75 187.75 112.9 188.65 110.95
L 189.7 108.45
Q 190.35 107.05 190.5 106.5 190.75 105.95 191.2 104.85 191.95 103.95 192.15 103.4 192.25 103.2 192.4 102.4 192.5 101.8 192.75 101.5 193.15 101.1 192.85 100.95 192.4 101.25 192 102.35 191.95 102.55 190.85 104.55
L 181.75 124.45 187.75 107.05
Q 188.05 107 188.15 106.65 188.25 106.3 188 106.05
L 187.6 106.05
Q 187.35 106.4 186.75 107.95
L 180.9 124.55
Q 179.8 128.2 179.7 128.5 179.359765625 129.71484375 179.2 131.35 178.3853515625 133.0947265625 177.7 134.6 177.73671875 134.31953125 177.6 133.8 177.55 133.55 177.4 131.55 177.35 130.1 177 128.35
L 176.8 126.8
Q 176.5 125.1 176.2 124.35 176.15 124.3 176.05 124.35 175.95 124.45 175.95 124.5 175.9 124.65 176 124.9
L 177 130.85
Q 177.05 131.55 177.1 132.95 177.2 134.15 177.5 135 177.5267578125 134.980859375 177.55 134.95 175.6783203125 139.1271484375 174.75 141.7 172.75 147.3 172.35 148.25 170.8 151.85 168.8 154.05 167.6 155.35 167.25 156.05 167.1697265625 156.1876953125 167.1 156.3 167.0083984375 156.3228515625 166.9 156.35 166.55 156.45 166.3 156.75 166 157.25 166 158.15 165.8 162 164.3 165.75 163.7 167.2 162.6 169.3 157.9 177.95 152.1 180.7 151.15 181.15 149.15 182 148.2412109375 182.454296875 146.35 183.85 146.4755859375 182.96953125 146.55 181.9 146.9255859375 181.54453125 147.3 181 149.8 177.55 152.4 174.6
L 160.75 165.05
Q 161.55 164.2 162.15 163.3 163.5 161.45 164.1 159.4
L 164.4 158.25
Q 164.65 157 164.65 155.25
L 164.25 155.35
Q 163.9 156.35 163.5 158.4 162.95 160.3 161.55 162.4 160.75 163.55 158.7 165.95
L 150.7 174.8
Q 149.9 175.7 148.4 177.6
L 146.75 179.75
Q 146.7833984375 179.2765625 146.8 178.75
L 147.8 177.4
Q 148.25 176.8 150.3 174.25
L 153.65 170.3
Q 153.64140625 170.778125 153.8 171.05
L 153.95 169.9 155.95 167.6
Q 157.8 165.4 160.2 162
L 160.1 161.75
Q 159.3 161.65 159.05 162.45 158.65 162.55 158.2 163.35 157.75 164.15 157.3 164.25 157.2 164.75 156.55 165.6
L 155.6 166.8
Q 155.026953125 167.4916015625 154.2 168.4
L 155.05 162.6
Q 155.25 161.1 155.15 160.35 155.1 160.3 155 160.35 154.9 160.35 154.9 160.45
L 154.55 164.95
Q 154.2736328125 167.4380859375 153.95 168.7 152.7287109375 170.0390625 151 171.85 150.6 172.25 150.65 172.65 150.2 172.95 149.65 173.65
L 147.35 176.55
Q 147.1169921875 176.8466796875 146.9 177.1 146.9326171875 176.8119140625 146.95 176.5 147.0302734375 175.0865234375 147.05 173.9 147.134375 174.473046875 147.35 175
L 148.15 175.1
Q 148.3 173.85 148.8 172.3
L 152.4 163.9 153.4 162.45
Q 153.75 161.95 154.25 160.85 155.8 157.9 157.75 155.45 159.25 153.6 160.55 153.25 161.2 153.05 162.6 153.15 163.2 153.15 164.4 153.25 165.1 153.25 165 153.65 165.4595703125 153.7724609375 165.85 153.7 165.961328125 153.826953125 166.1 153.85 166.45 153.9 166.8 153.3 168.95 149.85 169.4 147.65 169.55 146.9 169.7 145.2 169.8 143.55 170 142.7 170.2 142 170.6 140.95 171.3 139.3 171.35 139.15 172.45 136.3 173 130.7 173.6 124.7 174.4 122.15 175.2763671875 119.310546875 177.25 116.25 178.4013671875 119.515234375 178.75 123.6 179 126.65 178.8 131.15 179.1 131 179.2 130.25 179.5 124.25 178.35 118.7 177.99296875 117.0337890625 177.55 115.85 178.279296875 114.7572265625 179.15 113.65 179.2 113.6 185.65 106.15 195.9 94.25 201.65 79.25 200.6 79.25 199.75 81.1 195.8345703125 89.94453125 190.1 97.85 190.0517578125 97.6259765625 189.9 97.35 188.95 95.2 190.05 91 190.6291015625 88.66953125 191.2 86.6 192.62265625 81.3376953125 193.95 77.75 196.6 70.65 200.3 65.65 202.1 63.2 206.15 58.55 209.55 54.3 210.7 50.8 211 49.85 211.4 48.1 211.85 46.2 212.1 45.4 213.6 40.3 217.3 36.75 218.0998046875 35.9501953125 218.45 35.55
L 218.45 36.25 218.85 36.4 218.85 37.05
Q 218.85 37.5 219.1 37.6
L 219.3 37.5
Q 219.2 37.25 219.25 36.7 219.35 36.15 219.2 35.9
L 218.95 35.6 218.95 35.2
Q 218.9662109375 35.0541015625 218.95 34.9 219.3625 34.2484375 219.4 33.65 219.45 33.1 219.25 32.35 219 31.5 218.9 31.05 218.4 29.4 219.25 28.55 221.4 30.55 222.2 33.6
M 156.35 170.6
L 156.15 171.3 155.8 173.65
Q 155.6 174.75 155.4 175.25 155.2 175.65 155.2 175.8 155.1 176.2 155.35 176.35 155.5 176.3 155.6 175.8 155.65 175.45 155.9 174.7 156.15 174 156.2 173.6 156.2 172.8 156.3 172.45
L 156.75 170.7
Q 156.9 170.2 156.9 170.15 156.55 170.2 156.35 170.6
M 200.55 87.4
Q 199.9 88.55 198 91.2
L 188.45 104.3 196 95.3
Q 198.55 92.25 199.7 90.65 201.6 88 202.65 85.55 203.25 84.05 203.9 81.9 205.933984375 75.51953125 208.2 69.05 211.2193359375 60.383984375 214.65 51.55 212.7 54.05 210.7 59.8
L 207.5 68.85 203.25 80.9
Q 201.5 85.7 200.55 87.4
M 218.35 39.55
L 218.2 39.25
Q 218.2 38.85 218.15 38.75 217.9 38.45 217.8 38.25 217.75 38.15 217.75 37.85 217.75 37.55 217.65 37.4
L 217.45 37.4 217.4 38.05
Q 217.4 38.65 217.7 38.9
L 217.9 39
Q 218 39.15 217.95 39.55
L 218.1 39.85 218.1 40.4
Q 218.1 40.8 218.3 40.85 218.45 40.75 218.45 40.4 218.45 39.85 218.35 39.55
M 144.95 43.15
Q 143.9 43.8 143.4 45.75
L 142.05 50.2
Q 141.15 53.3 140.8 54.9 140.5 55.95 140.8 56.55 141.8 51.75 143.25 47.3 143.6 46.2 144.15 44.8
L 144.95 43.15
M 124.05 190
Q 124.65 190 125.5 190.85
L 126.15 191.6
Q 126.5 192.1 127.05 193.2 127.3 193.6 128.05 194.5 128.75 195.3 129 195.85 129.4 196.8 129.85 196.85 129.5 196.1 127.85 193.5 125.7 190.4 124.45 189.45 124.05 189.55 124.05 190
M 130.35 226.55
L 129.85 226.45 129.7 226.4 129.6 226.25 129.45 226.1 129.25 225.95 129 226
Q 128.95 226.35 129.35 226.65
L 130.1 226.85 130.3 226.8 130.35 226.55
M 133.7 211.4
Q 133.5 213.1 133.7 216.5 133.7 217.1 133.9 217.35 134.05 217.2 134.15 216.5 134.35 213.1 134.1 211.4
L 133.7 211.4
M 133.1 168.75
Q 133.1 168.35 132.95 168.1 132.8 167.75 132.5 167.85 132.3572265625 169.173046875 132.25 170.5 131.4712890625 179.4703125 131.95 189 132.1388671875 191.896875 132.35 193.85 132.5333984375 194.985546875 132.7 195.8 132.95 197.1 133.5 199.65 133.788671875 201.3095703125 133.95 204.2 133.9853515625 204.363671875 134 204.5 134.0525390625 205.496875 134.1 206.6
L 134.65 219.1
Q 134.75 220.05 135.25 220.05 135.7 217.2 135.4 212.1
L 135 203.3
Q 134.85 201.75 134.35 198.75 133.45 193 133.35 192.25 132.937890625 189.10234375 132.8 185.3 132.8 184.078125 132.8 182.75 132.7927734375 182.28984375 132.8 181.75 132.94609375 180.9392578125 133.2 180.15 133.6927734375 178.6189453125 134.55 177.2 135.6 175.75 136.05 175 137.05 173.35 137.35 173.1 137.6 172.85 139.05 172.05 140.1 171.45 140.35 170.7 137.6 171.7 136.65 173 136.2 173.6 135.55 174.95 135.3 175.4 134.6 176.3 133.9 177.2 133.6 177.7 133.42734375 178.0455078125 133.15 178.85 133.0390625 179.201953125 132.9 179.65 132.8494140625 179.8341796875 132.8 180 132.8146484375 178.2447265625 132.85 175.9 132.9052734375 174.670703125 132.95 173.25
L 133.1 168.75
M 127.65 96.25
Q 127.15 96.9 127.45 98.6 128.45 103.25 129.1 109.25 129.415625 112.4515625 129.85 118.6 129.9009765625 119.2935546875 129.95 120 130.2283203125 123.93125 130.4 127.15 130.419921875 127.2623046875 130.4 127.35 130.526953125 128.8490234375 130.6 130.2 130.801953125 134.2078125 130.85 136.9 130.9 138.75 130.9 142.35 130.9037109375 142.468359375 130.9 142.55 131.011328125 145.5845703125 131.3 147.75 131.5 149.3 132.05 152.4 132.8 157.7 132.15 162.8 132.4443359375 162.41640625 132.65 161.95 133.7822265625 159.9810546875 133.7 156.9 133.65 155.65 133.3 153.85 132.95 151.8 132.75 150.75 132.4458984375 149.0017578125 132.25 146.3 132.4263671875 146.270703125 132.5 146.05
L 132.65 145.5
Q 132.65 145.45 133.2 144.5
L 135.6 140.35
Q 135.9 139.85 136.1 139.7 136.7 139.35 136.7 139.1 135.95 139.1 135 140.35
L 133.9 142.3 133.2 143.1
Q 133 143.4 132.75 144.05
L 132.25 145.45
Q 132.2212890625 145.5361328125 132.2 145.6 132.035546875 143.2634765625 131.95 140.25 131.628515625 132.8537109375 131.1 125.5 131.1830078125 125.35078125 131.25 125.2
L 131.5 124.6
Q 131.55 124 131.6 123.7 131.7 123.4 132.1 122.85 132.55 122.35 132.6 122 133.4 121.6 133.8 121.5 135.25 121.2 135.35 121.15 135.7 120.95 135.6 120.7
L 135 120.6
Q 134.85 120.75 134.55 120.85 134.2 120.9 134 120.95 132.6 121.15 131.75 122.65 131.65 122.8 131.4 123.4
L 131.15 124 131.05 124.35
Q 130.7076171875 119.7328125 130.3 115.1
L 130 112.55 129.75 109.8
Q 129 103.05 127.65 96.25
M 122.55 125.5
Q 122.6 125.65 123.85 128.15 124.65 129.75 124.85 130.9 125.1 132.3 125.75 132.35 124.95 130 121.85 122.7 121.15 121.1 120.6 120.45 119.45 119.05 117.6 118.9 117.5 119.35 118.35 119.45 120.05 119.8 121.15 121.9 121.75 123.05 122.55 125.5
M 131.25 165.55
L 131.05 166.1 130.85 166.4
Q 130.75 166.6 130.9 166.75
L 131.1 166.75
Q 131.1 166.6 131.25 166.45 131.45 166.25 131.5 166.2
L 131.6 165.95 131.9 165.5
Q 132.01875 165.3515625 132.1 165.2 132.0220703125 165.502734375 131.9 165.95
L 131.6 166.4
Q 131.55 166.55 131.45 166.9
L 131.2 167.15
Q 131.1 167.3 131.1 167.6 131.1 167.8 130.9 168.05 130.75 168.3 130.9 168.55 130.95 168.55 131.2 168.2
L 131.7 167.65 132.05 166.95 132.6 165.9 132.7 165.45
Q 132.65 165.15 132.7 164.95 133 164.55 132.9 164.35 132.65 164.35 132.4 164.6 132.4640625 164.0765625 132.6 163.85
L 132.95 163.35
Q 133.1 162.95 132.9 162.65 132.75 162.55 132.65 162.75
L 132.55 162.9 132.3 163.4
Q 132.2 163.6 132.35 163.75 132.1 163.8 132 164.15 131.85 164.65 131.85 164.7 131.8 164.8 131.55 165.1 131.3 165.35 131.25 165.55
M 56.15 81.2
Q 55.8 80.6 55.4 80.7 56.05 82.5 56.8 83.85
L 62.2 93
Q 62.7 93.8 63.55 95.45 63.95 96.05 64.65 96.85
L 65.8 98.15
Q 66.05 98.4 68.05 101.25
L 70.8 104.95
Q 70.9634765625 105.1408203125 71.1 105.3 72.0884765625 106.4318359375 72.65 106.95 72.11328125 105.705859375 71.05 104.05 69.9888671875 102.3509765625 68.35 100.2
L 64.4 95.2 59.75 87.5
Q 57.9 84.45 56.15 81.2
M 44.55 52
Q 46.6798828125 56.50390625 50.55 65.35 54.95 75.35 58.3 81
L 63.35 89.05
Q 65.7 93 67.7 97.4 68.85 100.05 69.5 101.1 70.2205078125 102.353125 71.05 103.25 71.55859375 103.7892578125 72.1 104.2
L 69 97.55
Q 66.9 93.05 65.7 90.9 64.55 88.85 62.4 85.5 59.95 81.6 59.05 80.1 56.05 75.05 51.5 65.05 46.65 54.5 44.05 49.9 44.0166015625 49.851953125 43.95 49.8 43.5740234375 49.2611328125 43.25 49.4 43.7888671875 50.4380859375 44.55 52
M 58.45 64.1
Q 58.4 64.2 58.4 64.85
L 58.25 67.95 58.55 70.75
Q 59.3 76.9 62.2 83.85 62.3 84.2 62.55 84.15
L 60.6 78
Q 59.2 73.4 58.75 68.3 58.65 67.4 58.7 66.9
L 58.85 65.65
Q 58.85 65.1 58.9 64.8 58.9 64.3 59.05 64 59 63.8 58.75 63.85 58.55 63.9 58.45 64.1
M 94.9 130.9
Q 94.7 132.2 95.25 134.75
L 95.3 136.65
Q 95.3 137.35 95.5 138.8 95.5 139.65 95.95 139.65
L 95.45 134.55
Q 95.45 134 95.05 131.1 95.05 130.9 94.9 130.9
M 76.85 130.55
Q 75.55 130.45 75.25 131.1 76.55 130.85 78.3 131.45 80.75 132.15 82.85 133.65
L 89.05 138.85
Q 88.85 137.7 87.15 136.3 84.05 133.75 82.35 132.65 79.5 130.9 76.85 130.55
M 89.7 121.8
Q 89.8 121.1 90.15 120.85 90.4 120.65 90.9 120.75 91.8 120.85 92.55 121.2 92.35 120.55 91.45 120.35 90.95 120.2 89.95 120.3 89.35 121 89.35 122.55 89.35 124.15 89.85 127.25
L 90.45 130.7
Q 90.65 132.1 91.2 132.65 90.75 130.55 90.45 128.65
L 90.05 126.55
Q 89.5 123.25 89.7 121.8
M 76.6 116.4
Q 75.6 115.1 74.8 114.9 78.65 120.6 82.15 126.45
L 92.35 143.35
Q 93.85 145.75 94.65 146.85 96.05 148.7 97.55 149.75 97.85 149.7 97.55 149.25
L 83.05 126.25
Q 78.5 119.1 76.6 116.4
M 73.5 106.25
Q 73.3 105.9 72.95 105.8 72.55 105.6 72.4 105.9 82.5 122.05 91.6 137.75 96 145.5 97.35 148.2 98.15 149.95 99.2 150.05 94.8 140.7 85.75 125.75 80.2 116.7 73.5 106.25
M 113.25 172.75
Q 111.05 169.65 109.8 168.2
L 100.75 158.45
Q 99.75 157.4 98.9 157.2 98.55 157.4 99.05 158
L 109.65 169.9
Q 110.6 171.1 113.2 174.85 114.4 176.65 114.65 177.15
L 115.6 179.05
Q 116.3 180.4 117.6 181.6 117.8 181.8 118 181.8 118.4 181.8 118.3 181.3 118.3 181.15 118.05 180.75 117.3 179.75 116.45 178.05 115.25 175.75 115 175.3 114.8 174.95 113.25 172.75
M 97 88.1
Q 97.3208984375 88.6658203125 97.6 89.15 99.0267578125 91.62734375 99.65 92.5 101 94.45 103.75 97.4
L 109.65 103.9
Q 112.15 106.6 113.6 107.7 113.002734375 106.6587890625 112.15 105.45 110.2259765625 102.7841796875 107 99.35 101.7 93.8 99.95 91.3 99.2 90.25 97.3 87.1
L 93.2 80.45
Q 88.6 73.1 86.2 69.5 82.585546875 64.078515625 79.25 59.85 78.901953125 59.4337890625 78.55 59 77.85 58.2 77.3 58.3 82.0609375 64.5158203125 90.4 77.5 91.5166015625 79.2802734375 92.7 81.15 95.3 85.1 97 88.1
M 84.95 72.05
Q 84.215234375 70.9984375 83.5 70 79.8265625 64.866796875 77.6 62 74.85 58.4 72.7 56.75 73.0056640625 57.405078125 73.7 58.3 73.7923828125 58.4169921875 73.9 58.55 78.4 64.05 83.95 72.05 87.15 76.7 93.4 86 96.7 90.75 98.7 93.35 99.4486328125 94.3349609375 100.2 95.3 105.2798828125 101.683984375 111.1 107.2 109.6 104.95 107.25 102.05 104.5 98.75 103.15 97.1 98.25 91.05 90.3 79.65 87.38046875 75.4552734375 84.95 72.05
M 191.6 69.35
Q 192.95 67.3 193.15 66.05
L 185 77.6
Q 183.65 79.5 183.05 80.2 182.4806640625 80.92265625 182.1 81.4 181.6404296875 82.0251953125 181.5 82.25 181.15 82.75 180.1 84.9 179.58359375 85.853515625 178.1 87.85
L 178.05 87.85 170.45 94.1
Q 169.25 95.15 167.05 97.45 165.7 98.8 159.1 104.45 154.15 108.7 151.6 111.9 150.7 113.1 150.5 113.8
L 151 113.8
Q 155.05 109.8 159.95 105.4
L 170.35 96.3
Q 174.383203125 92.705078125 177.3 88.9 179.216796875 87.527734375 180.55 85.75 181.0384765625 85.0783203125 181.75 84 182.2048828125 83.3064453125 182.75 82.45
L 184.2 80.55
Q 185.45 78.95 186.65 76.95
L 191.6 69.35 Z"/>

<path fill="#98A354" stroke="none" d="
M 199.75 81.1
Q 200.6 79.25 201.65 79.25 195.9 94.25 185.65 106.15 179.2 113.6 179.15 113.65 178.279296875 114.7572265625 177.55 115.85 177.99296875 117.0337890625 178.35 118.7 179.5 124.25 179.2 130.25 179.1 131 178.8 131.15 179 126.65 178.75 123.6 178.4013671875 119.515234375 177.25 116.25 175.2763671875 119.310546875 174.4 122.15 173.6 124.7 173 130.7 172.45 136.3 171.35 139.15 171.3 139.3 170.6 140.95 170.2 142 170 142.7 169.8 143.55 169.7 145.2 169.55 146.9 169.4 147.65 168.95 149.85 166.8 153.3 166.45 153.9 166.1 153.85 165.961328125 153.826953125 165.85 153.7 165.4595703125 153.7724609375 165 153.65 165.1 153.25 164.4 153.25 163.2 153.15 162.6 153.15 161.2 153.05 160.55 153.25 159.25 153.6 157.75 155.45 155.8 157.9 154.25 160.85 153.75 161.95 153.4 162.45
L 152.4 163.9 148.8 172.3
Q 148.3 173.85 148.15 175.1
L 147.35 175
Q 147.134375 174.473046875 147.05 173.9 147.0302734375 175.0865234375 146.95 176.5 146.9326171875 176.8119140625 146.9 177.1 147.1169921875 176.8466796875 147.35 176.55
L 149.65 173.65
Q 150.2 172.95 150.65 172.65 150.6 172.25 151 171.85 152.7287109375 170.0390625 153.95 168.7 154.2736328125 167.4380859375 154.55 164.95
L 154.9 160.45
Q 154.9 160.35 155 160.35 155.1 160.3 155.15 160.35 155.25 161.1 155.05 162.6
L 154.2 168.4
Q 155.026953125 167.4916015625 155.6 166.8
L 156.55 165.6
Q 157.2 164.75 157.3 164.25 157.75 164.15 158.2 163.35 158.65 162.55 159.05 162.45 159.3 161.65 160.1 161.75
L 160.2 162
Q 157.8 165.4 155.95 167.6
L 153.95 169.9 153.8 171.05
Q 153.64140625 170.778125 153.65 170.3
L 150.3 174.25
Q 148.25 176.8 147.8 177.4
L 146.8 178.75
Q 146.7833984375 179.2765625 146.75 179.75
L 148.4 177.6
Q 149.9 175.7 150.7 174.8
L 158.7 165.95
Q 160.75 163.55 161.55 162.4 162.95 160.3 163.5 158.4 163.9 156.35 164.25 155.35
L 164.65 155.25
Q 164.65 157 164.4 158.25
L 164.1 159.4
Q 163.5 161.45 162.15 163.3 161.55 164.2 160.75 165.05
L 152.4 174.6
Q 149.8 177.55 147.3 181 146.9255859375 181.54453125 146.55 181.9 146.4755859375 182.96953125 146.35 183.85 148.2412109375 182.454296875 149.15 182 151.15 181.15 152.1 180.7 157.9 177.95 162.6 169.3 163.7 167.2 164.3 165.75 165.8 162 166 158.15 166 157.25 166.3 156.75 166.55 156.45 166.9 156.35 167.0083984375 156.3228515625 167.1 156.3 167.1697265625 156.1876953125 167.25 156.05 167.6 155.35 168.8 154.05 170.8 151.85 172.35 148.25 172.75 147.3 174.75 141.7 175.6783203125 139.1271484375 177.55 134.95 177.5267578125 134.980859375 177.5 135 177.2 134.15 177.1 132.95 177.05 131.55 177 130.85
L 176 124.9
Q 175.9 124.65 175.95 124.5 175.95 124.45 176.05 124.35 176.15 124.3 176.2 124.35 176.5 125.1 176.8 126.8
L 177 128.35
Q 177.35 130.1 177.4 131.55 177.55 133.55 177.6 133.8 177.73671875 134.31953125 177.7 134.6 178.3853515625 133.0947265625 179.2 131.35 179.359765625 129.71484375 179.7 128.5 179.8 128.2 180.9 124.55
L 186.75 107.95
Q 187.35 106.4 187.6 106.05
L 188 106.05
Q 188.25 106.3 188.15 106.65 188.05 107 187.75 107.05
L 181.75 124.45 190.85 104.55
Q 191.95 102.55 192 102.35 192.4 101.25 192.85 100.95 193.15 101.1 192.75 101.5 192.5 101.8 192.4 102.4 192.25 103.2 192.15 103.4 191.95 103.95 191.2 104.85 190.75 105.95 190.5 106.5 190.35 107.05 189.7 108.45
L 188.65 110.95
Q 187.75 112.9 185.35 117.75 183.2 122.05 182.1 124.6 181.7078125 125.58046875 181.25 125.95
L 179.95 129.75
Q 180.7287109375 128.14375 181.6 126.35 184.7 120.05 186.65 117.15 187.65 115.65 189.75 112.95 191.95 110.15 192.9 108.75 193.6 107.7 195.1 105.25 196.5 102.9 197.35 101.7 198.85 99.5 202.25 95.25 205.5412109375 90.7701171875 208.15 84.55 208.4 81.0654296875 208.4 76.95 208.4 71.24140625 208.2 69.05 205.933984375 75.51953125 203.9 81.9 203.25 84.05 202.65 85.55 201.6 88 199.7 90.65 198.55 92.25 196 95.3
L 188.45 104.3 198 91.2
Q 199.9 88.55 200.55 87.4 201.5 85.7 203.25 80.9
L 207.5 68.85
Q 205.3580078125 72.1228515625 200.5 77.9 194.4 85.2 191.3 87.3 191.2412109375 86.9896484375 191.2 86.6 190.6291015625 88.66953125 190.05 91 188.95 95.2 189.9 97.35 190.0517578125 97.6259765625 190.1 97.85 195.8345703125 89.94453125 199.75 81.1
M 156.15 171.3
L 156.35 170.6
Q 156.55 170.2 156.9 170.15 156.9 170.2 156.75 170.7
L 156.3 172.45
Q 156.2 172.8 156.2 173.6 156.15 174 155.9 174.7 155.65 175.45 155.6 175.8 155.5 176.3 155.35 176.35 155.1 176.2 155.2 175.8 155.2 175.65 155.4 175.25 155.6 174.75 155.8 173.65
L 156.15 171.3
M 129.2 186
Q 129.24375 186.9515625 129.3 187.85 129.29453125 187.064453125 129.3 186.15
L 129.2 186
M 129.15 185.1
L 129.3 185.35
Q 129.2888671875 183.4869140625 129.3 181.2 129.3 180.4576171875 129.3 179.7 129.225390625 181.1654296875 129.15 182.75 129.15 183.9779296875 129.15 185.1
M 120.15 167.7
Q 119.4 169.2 119 170.55 118.95 170.8 118.55 172.7 118.25 174.65 118.45 175.6 119 177.95 122.35 179.7 123.05 180 123.35 180.35 123.6916015625 180.6916015625 123.7 181 124.0994140625 179.78828125 124.5 178.65 124.6400390625 178.3431640625 124.75 178.05 124.2533203125 177.396875 123.6 176.7 124.15 176.65 124.65 177.3 124.798046875 177.4658203125 124.95 177.65 127.65 171.623828125 127.65 170.05 127.65 169.6 124.9 166.4 123.5396484375 164.817578125 122.4 163.55 121.31171875 165.3974609375 120.15 167.7
M 113.5 72
Q 113.5 73.5 113.1 73.5
L 113.1 74.25
Q 113.3154296875 74.9103515625 113.55 75.45 114.35 77.3 116.4 80.3
L 120.5 86.35
Q 120.67265625 86.4306640625 120.7 86.65
L 120.75 86.75
Q 121.05 87.25 121 87.55 120.95 87.85 120.65 88 120.35 88.15 120.05 88.05 119.8375 87.9892578125 119.5 87.75 116.2291015625 91.1681640625 115.5 96.1 115.2 97.95 115.3 101.75
L 115.5 107.75
Q 116.2482421875 105.1 117.45 105.1 120.95 105.1 124.2 122.2 125.0642578125 126.7685546875 125.8 131.8 125.295703125 127.5638671875 124.3 121.2 122.15 107.55 120.3 97.45 121 97.5 121.35 98.85 124.85 115.75 127.05 133 127.9 139.4 127.9 143.2 127.9 144.35 127.85 147.1 127.829296875 148.1392578125 127.8 149 127.820703125 150.18203125 127.85 151 127.871875 151.4490234375 127.9 152.05 128.1361328125 154.2658203125 128.8 158.6 128.8634765625 158.9916015625 128.9 159.35 129.330859375 161.937109375 129.65 164.3 130.5568359375 171.10390625 130.7 176.15 130.75 178.3 130.65 183.9 130.6265625 186.2185546875 130.65 188.05 130.6525390625 188.3369140625 130.65 188.6 130.6802734375 190.3482421875 130.75 191.65 130.9404296875 196.0291015625 131.8 200.25 132.70546875 202.4779296875 134 204.5 133.9853515625 204.363671875 133.95 204.2 133.788671875 201.3095703125 133.5 199.65 132.95 197.1 132.7 195.8 132.5333984375 194.985546875 132.35 193.85 132.1388671875 191.896875 131.95 189 131.4712890625 179.4703125 132.25 170.5 132.05 168.4197265625 132.05 167.15 132.05 167.068359375 132.05 166.95
L 131.7 167.65 131.2 168.2
Q 130.95 168.55 130.9 168.55 130.75 168.3 130.9 168.05 131.1 167.8 131.1 167.6 131.1 167.3 131.2 167.15
L 131.45 166.9
Q 131.55 166.55 131.6 166.4
L 131.9 165.95
Q 132.0220703125 165.502734375 132.1 165.2 132.01875 165.3515625 131.9 165.5
L 131.6 165.95 131.5 166.2
Q 131.45 166.25 131.25 166.45 131.1 166.6 131.1 166.75
L 130.9 166.75
Q 130.75 166.6 130.85 166.4
L 131.05 166.1 131.25 165.55
Q 131.3 165.35 131.55 165.1 131.8 164.8 131.85 164.7 131.85 164.65 132 164.15 132.1 163.8 132.35 163.75 132.2 163.6 132.3 163.4
L 132.55 162.9
Q 132.574609375 162.7708984375 132.6 162.6 132.643359375 162.2833984375 132.65 161.95 132.4443359375 162.41640625 132.15 162.8 132.8 157.7 132.05 152.4 131.5 149.3 131.3 147.75 131.011328125 145.5845703125 130.9 142.55 130.9037109375 142.468359375 130.9 142.35 130.9 138.75 130.85 136.9 130.801953125 134.2078125 130.6 130.2 130.526953125 128.8490234375 130.4 127.35 130.419921875 127.2623046875 130.4 127.15 130.2283203125 123.93125 129.95 120 129.9009765625 119.2935546875 129.85 118.6 129.415625 112.4515625 129.1 109.25 128.45 103.25 127.45 98.6 127.15 96.9 127.65 96.25 129 103.05 129.75 109.8
L 130 112.55
Q 130.10546875 111.6212890625 130.2 111 130.95 106.2 133.45 106.2 135.25 106.2 138.05 112.4 141.253515625 119.4396484375 142.2 130.35 143.0962890625 129.576953125 144.15 128.85 143.6416015625 124.240625 142.15 117.95 140.05 109.1 137.4 104.65 135.75 101.85 131.6 97.15 127.3 92.35 125.7 89.7 124.068359375 87.0412109375 122.65 83 121.2810546875 81.2404296875 119.75 79.25 115.8 74.15 113.5 72
M 133.2 180.15
Q 132.94609375 180.9392578125 132.8 181.75 132.7927734375 182.28984375 132.8 182.75 132.8 184.078125 132.8 185.3 133.233984375 182.759375 133.2 180.15
M 133.15 178.85
Q 133.0986328125 177.6759765625 132.95 176.5 132.9107421875 176.2119140625 132.85 175.9 132.8146484375 178.2447265625 132.8 180 132.8494140625 179.8341796875 132.9 179.65 133.0390625 179.201953125 133.15 178.85
M 126 156.7
Q 126.0998046875 156.859765625 126.15 157 126.539453125 156.730859375 126.9 156.45 126.8580078125 156.0109375 126.8 155.55 126.5744140625 155.93984375 126 156.7
M 120.55 191.4
Q 120.57890625 191.7322265625 120.65 192.15 122.101953125 186.0814453125 123.55 181.45
L 123.55 181.45
Q 123.51640625 181.5669921875 123.45 181.7 122.8 182.75 122 184.55 120.3 188.4 120.55 191.4
M 44.55 52
Q 45.36796875 55.0716796875 46.5 58.55 49.95 69.2 50.2 72.35 50.35 74.2 50.45 78.55 50.698046875 82.867578125 51.55 87.05 56.34296875 94.27890625 62.2 101.4 64.25 103.8 65.05 104.9 66.55 106.95 67.35 108.75 68.2 110.6 68.75 113.3 69.05 114.9 69.55 118.05 70.447265625 122.78984375 72.2 127.25 71.91015625 122.4974609375 71.65 117.65 71.3091796875 110.92734375 71.1 105.3 70.9634765625 105.1408203125 70.8 104.95
L 68.05 101.25
Q 66.05 98.4 65.8 98.15
L 64.65 96.85
Q 63.95 96.05 63.55 95.45 62.7 93.8 62.2 93
L 56.8 83.85
Q 56.05 82.5 55.4 80.7 55.8 80.6 56.15 81.2 57.9 84.45 59.75 87.5
L 64.4 95.2 68.35 100.2
Q 69.9888671875 102.3509765625 71.05 104.05 71.0623046875 103.655859375 71.05 103.25 70.2205078125 102.353125 69.5 101.1 68.85 100.05 67.7 97.4 65.7 93 63.35 89.05
L 58.3 81
Q 54.95 75.35 50.55 65.35 46.6798828125 56.50390625 44.55 52
M 83.5 70
Q 84.215234375 70.9984375 84.95 72.05 87.38046875 75.4552734375 90.3 79.65 98.25 91.05 103.15 97.1 104.5 98.75 107.25 102.05 109.6 104.95 111.1 107.2 105.2798828125 101.683984375 100.2 95.3
L 99.85 95.3
Q 100.9599609375 96.91953125 106.95 103.35 111.1873046875 107.8466796875 114.05 110.5
L 113.95 107.45
Q 113.0333984375 106.4291015625 112.15 105.45 113.002734375 106.6587890625 113.6 107.7 112.15 106.6 109.65 103.9
L 103.75 97.4
Q 101 94.45 99.65 92.5 99.0267578125 91.62734375 97.6 89.15 97.3208984375 88.6658203125 97 88.1 95.3 85.1 92.7 81.15 91.5166015625 79.2802734375 90.4 77.5 82.0609375 64.5158203125 77.3 58.3 77.85 58.2 78.55 59 78.901953125 59.4337890625 79.25 59.85 76.8298828125 56.4755859375 75.25 54.25 75.1791015625 54.273046875 75.1 54.3 73.0203125 54.9546875 71.9 55.1 71.93359375 55.1841796875 71.95 55.25 71.8435546875 55.7162109375 71.75 56.15 72.68359375 57.1755859375 73.7 58.3 73.0056640625 57.405078125 72.7 56.75 74.85 58.4 77.6 62 79.8265625 64.866796875 83.5 70
M 99.85 95.3
Q 99.7095703125 95.0810546875 99.65 94.95
L 99.65 95.3 99.85 95.3
M 180.1 84.9
Q 181.15 82.75 181.5 82.25 181.6404296875 82.0251953125 182.1 81.4 182.25 80.065625 182.25 78.9 182.6 76.75 181.1 76.75 179.5037109375 76.75 176.65 78.6 175.5943359375 80.7701171875 174.05 84.35
L 172.5 87.95
Q 171.9 89.4 171.2 89.75 170.86796875 89.2103515625 171.2 88.05 171.027734375 88.1498046875 170.85 88.25 168.3 89.7 165.6 92.15 163.8 93.8 160.95 96.9 157.9 100.15 156.15 102.35
L 154.3 104.8
Q 150.85859375 109.5482421875 145.9 114.55 145.8576171875 115.1759765625 145.75 115.75 145.358984375 115.684765625 145.05 115.45 144.7630859375 115.7423828125 144.45 116.05 144.0013671875 116.448828125 143.65 116.5 143.733203125 116.816796875 143.8 117.1 145.2873046875 123.346484375 145.85 127.8 145.8453125 127.8619140625 145.85 127.9 146.15078125 130.456640625 146.2 132.8
L 146.35 132.2 146.65 131.6
Q 146.6 130.95 146.65 130.65 146.9 130.05 147 129.75 147.05 129.5 147 128.85 146.95 128.25 147.1 127.9
L 147.45 127.35
Q 147.51875 127.2123046875 147.55 126.95 147.55 126.840234375 147.55 126.7
L 147.6 118.35
Q 147.6 117.25 147.8 116.7 148.1 116 148.6 116.05 148.7125 116.061328125 148.8 116.1 150.7560546875 114.203515625 152.3 113.25 153.15 112.7 156.2 111.3 165.75 107 172.8 99.55 174.25 98 174.7 97.1
L 175.5 95
Q 175.65 94.65 176.55 93.2 177.25 92.1 177.45 91.3
L 177.75 90.4
Q 177.4673828125 90.1326171875 177.95 89.65 178.7896484375 88.85234375 180.9 87.95 181.0158203125 87.4673828125 181.15 86.9 181.50703125 85.375 181.75 84 181.0384765625 85.0783203125 180.55 85.75 179.216796875 87.527734375 177.3 88.9 174.383203125 92.705078125 170.35 96.3
L 159.95 105.4
Q 155.05 109.8 151 113.8
L 150.5 113.8
Q 150.7 113.1 151.6 111.9 154.15 108.7 159.1 104.45 165.7 98.8 167.05 97.45 169.25 95.15 170.45 94.1
L 178.05 87.85 178.1 87.85
Q 179.58359375 85.853515625 180.1 84.9 Z"/>

<path fill="#DCD790" stroke="none" d="
M 222.3 31.9
Q 222.3625 32.727734375 222.2 33.6 221.4 30.55 219.25 28.55 218.4 29.4 218.9 31.05 219 31.5 219.25 32.35 219.45 33.1 219.4 33.65 219.3625 34.2484375 218.95 34.9 218.9662109375 35.0541015625 218.95 35.2
L 218.95 35.6 219.2 35.9
Q 219.35 36.15 219.25 36.7 219.2 37.25 219.3 37.5
L 219.1 37.6
Q 218.85 37.5 218.85 37.05
L 218.85 36.4 218.45 36.25 218.45 35.55
Q 218.0998046875 35.9501953125 217.3 36.75 213.6 40.3 212.1 45.4 211.85 46.2 211.4 48.1 211 49.85 210.7 50.8 209.55 54.3 206.15 58.55 202.1 63.2 200.3 65.65 196.6 70.65 193.95 77.75 192.62265625 81.3376953125 191.2 86.6 191.2412109375 86.9896484375 191.3 87.3 194.4 85.2 200.5 77.9 205.3580078125 72.1228515625 207.5 68.85
L 210.7 59.8
Q 212.7 54.05 214.65 51.55 211.2193359375 60.383984375 208.2 69.05 208.4 71.24140625 208.4 76.95 208.4 81.0654296875 208.15 84.55 209.813671875 80.6166015625 211.2 75.95 213.3 68.9 214.45 62.1 215 58.7 215.35 57 215.9 54.05 216.55 51.95 216.75 51.3 217.9 48.1 218.8 45.7 219.1 44.15 219.5 41.2 219.8 39.8 220.089453125 38.35234375 220.6 37.3 220.640234375 36.909765625 221.05 36.5 221.1013671875 36.4373046875 221.15 36.35 221.323828125 36.1482421875 221.5 35.95 221.501953125 35.99609375 221.5 36.05 221.971875 35.6291015625 222.75 35.1 223.65 34.35 224.6 31.95 225.25 30.15 224.85 29.45 223.0169921875 30.125390625 222.3 31.9
M 218.2 39.25
L 218.35 39.55
Q 218.45 39.85 218.45 40.4 218.45 40.75 218.3 40.85 218.1 40.8 218.1 40.4
L 218.1 39.85 217.95 39.55
Q 218 39.15 217.9 39
L 217.7 38.9
Q 217.4 38.65 217.4 38.05
L 217.45 37.4 217.65 37.4
Q 217.75 37.55 217.75 37.85 217.75 38.15 217.8 38.25 217.9 38.45 218.15 38.75 218.2 38.85 218.2 39.25
M 110.95 35.7
Q 110.05 37.75 110.15 40.8 110.15 42.55 110.5 46.1 110.6 47.45 110.6 52.35 110.7 61 111.9 68.85 112.3974609375 72.1412109375 113.1 74.25
L 113.1 73.5
Q 113.5 73.5 113.5 72 115.8 74.15 119.75 79.25 121.2810546875 81.2404296875 122.65 83 121.70078125 80.344921875 120.85 77.1 118.65 68.8 116.65 58.3 115.4681640625 52.0123046875 113.6 40.65
L 110.95 35.7
M 43.05 45.35
Q 41.775 45.232421875 40.6 45.6 40.53046875 45.8119140625 40.3 46.1 39.8 46.75 39.7 47.85 39.7 48.45 39.7 49.75 39.7 50.073046875 39.65 50.5 39.9853515625 56.117578125 40.6 60.25 41.85 68.45 44.6 74.8 46.45 79.1 49.85 84.4 50.69921875 85.7447265625 51.55 87.05 50.698046875 82.867578125 50.45 78.55 50.35 74.2 50.2 72.35 49.95 69.2 46.5 58.55 45.36796875 55.0716796875 44.55 52 43.7888671875 50.4380859375 43.25 49.4 43.5740234375 49.2611328125 43.95 49.8 43.4072265625 47.4259765625 43.05 45.35
M 199.65 53.65
Q 200.05 51.55 200.15 50.45 197.95 56.75 192.35 62.7 188.85 66.45 181.45 72.45 180.1 73.5 179.2 74.5 178.3 75.6 177.5 77.05 177.12734375 77.7056640625 176.65 78.6 179.5037109375 76.75 181.1 76.75 182.6 76.75 182.25 78.9 182.25 80.065625 182.1 81.4 182.4806640625 80.92265625 183.05 80.2 183.65 79.5 185 77.6
L 193.15 66.05
Q 192.95 67.3 191.6 69.35
L 186.65 76.95
Q 185.45 78.95 184.2 80.55
L 182.75 82.45
Q 182.2048828125 83.3064453125 181.75 84 181.50703125 85.375 181.15 86.9 181.0158203125 87.4673828125 180.9 87.95 181.3009765625 87.818359375 181.75 87.65 185.2 86.5 186.4 86 188.608203125 85.0658203125 190.15 83.95 190.5841796875 82.56015625 190.95 81.35 191.040625 81.0845703125 191.1 80.8 191.6607421875 79.1263671875 192.1 77.9 194.04453125 72.5037109375 196.45 68.6 196.431640625 67.855078125 196.75 66.9 197.35 65.5 197.6 64.8 197.9 63.85 198.1 62.5
L 199.65 53.65 Z"/>

<path fill="#748443" stroke="none" d="
M 129.95 47.85
Q 129.1783203125 47.15546875 128.65 47.25 128.8408203125 51.3923828125 129.9 56 131.05 61.1 134.6 71.35 136.1 75.6 136.4 78 136.65 79.75 136.55 85.15 136.35 95.6 138.85 102.4 138.631640625 102.618359375 138.35 102.65 139.7978515625 104.9158203125 141 108
L 140.1 103.05
Q 139.7248046875 101.066796875 139.5 99.6 139.4296875 99.1853515625 139.35 98.8 139.2607421875 98.06171875 139.2 97.5
L 138.05 82.7
Q 138.05 82.155859375 138.25 82.1 138.25 81.958203125 138.25 81.85 138.3060546875 81.0060546875 138.35 80.2
L 138.35 80.15
Q 138.25 79.35 138.2 77.25 138.196875 76.8791015625 138.2 76.5 138.0373046875 76.3470703125 137.9 76.1 137.7 75.6 137.55 75.35 137 74.7 136.75 74.35 136.45 73.95 136.3 73.55
L 135.1 71.4 135.45 71.35 136.35 73
Q 136.7 73.8 137.05 74.25 137.9 75.35 137.9 75.4 138.0212890625 75.594140625 138.15 75.85 138.0568359375 70.5552734375 137.35 64.9
L 136.85 61.4
Q 136.75 60.925390625 136.7 60.25 136.530859375 58.86328125 136.35 57.55
L 133.2 52.35
Q 131.1 49 129.95 47.85
M 134.1 29.75
Q 134.1 28.8 134.4 28.25 135.0767578125 38.3732421875 135.7 45.15 135.8677734375 41.7578125 136.2 35.9 136.311328125 33.937890625 136.4 32.35 136.6265625 33.39375 136.9 34.65 137.55078125 37.9798828125 138.2 41.85
L 137.75 34.3
Q 137.45 29.85 137.65 27.65
L 140.15 54.35
Q 140.55 58.6 140.55 59.45 140.65 62 140.65 67.05 140.6869140625 69.5412109375 140.85 72 140.9197265625 72.921875 141 73.8 141.3044921875 77.1265625 141.85 80.4 141.9048828125 80.748046875 141.9 81.05 142.237890625 78.7251953125 142.7 76 144.05 68.7 144.65 65.05 145.7 58.75 146 54 146.85 41.3 142.9 32.15 139.8720703125 25.180859375 134.95 24.15 133.694921875 25.4103515625 132.75 27.3 131.95 28.9 131.05 31.9 129.45 37 128.95 40.3 128.4892578125 43.371875 128.6 46.75 128.7427734375 46.755078125 128.9 46.8 129.7 46.9 130.6 48 134.118359375 52.2126953125 136.3 57.25 135.3052734375 49.829296875 134.85 45.15 134 36.7 134.1 29.75
M 143.4 45.75
Q 143.9 43.8 144.95 43.15
L 144.15 44.8
Q 143.6 46.2 143.25 47.3 141.8 51.75 140.8 56.55 140.5 55.95 140.8 54.9 141.15 53.3 142.05 50.2
L 143.4 45.75
M 125.4 159.4
L 125.3 159.55
Q 123.9138671875 161.109375 122.4 163.55 123.5396484375 164.817578125 124.9 166.4 127.65 169.6 127.65 170.05 127.65 171.623828125 124.95 177.65 126.0896484375 179.0791015625 127.5 181.9
L 129.15 185.1
Q 129.15 183.9779296875 129.15 182.75 129.225390625 181.1654296875 129.3 179.7 129.1951171875 170.9931640625 127.95 163.2 127.4 159.75 127.15 158 127.1056640625 157.7298828125 127.05 157.45
L 126.65 158
Q 127.02734375 158.9615234375 126.6 159.35 126.1111328125 159.8388671875 125.4 159.4
M 130 112.55
L 130.3 115.1
Q 130.7076171875 119.7328125 131.05 124.35
L 131.15 124 131.4 123.4
Q 131.65 122.8 131.75 122.65 132.6 121.15 134 120.95 134.2 120.9 134.55 120.85 134.85 120.75 135 120.6
L 135.6 120.7
Q 135.7 120.95 135.35 121.15 135.25 121.2 133.8 121.5 133.4 121.6 132.6 122 132.55 122.35 132.1 122.85 131.7 123.4 131.6 123.7 131.55 124 131.5 124.6
L 131.25 125.2
Q 131.1830078125 125.35078125 131.1 125.5 131.628515625 132.8537109375 131.95 140.25 132.035546875 143.2634765625 132.2 145.6 132.2212890625 145.5361328125 132.25 145.45
L 132.75 144.05
Q 133 143.4 133.2 143.1
L 133.9 142.3 135 140.35
Q 135.95 139.1 136.7 139.1 136.7 139.35 136.1 139.7 135.9 139.85 135.6 140.35
L 133.2 144.5
Q 132.65 145.45 132.65 145.5
L 132.5 146.05
Q 132.4263671875 146.270703125 132.25 146.3 132.4458984375 149.0017578125 132.75 150.75 132.95 151.8 133.3 153.85 133.65 155.65 133.7 156.9 133.7822265625 159.9810546875 132.65 161.95 132.643359375 162.2833984375 132.6 162.6 132.574609375 162.7708984375 132.55 162.9
L 132.65 162.75
Q 132.75 162.55 132.9 162.65 133.1 162.95 132.95 163.35
L 132.6 163.85
Q 132.4640625 164.0765625 132.4 164.6 132.65 164.35 132.9 164.35 133 164.55 132.7 164.95 132.65 165.15 132.7 165.45
L 132.6 165.9 132.05 166.95
Q 132.05 167.068359375 132.05 167.15 132.05 168.4197265625 132.25 170.5 132.3572265625 169.173046875 132.5 167.85 132.8 167.75 132.95 168.1 133.1 168.35 133.1 168.75
L 132.95 173.25
Q 132.9052734375 174.670703125 132.85 175.9 132.9107421875 176.2119140625 132.95 176.5 133.0986328125 177.6759765625 133.15 178.85 133.42734375 178.0455078125 133.6 177.7 133.9 177.2 134.6 176.3 135.3 175.4 135.55 174.95 136.2 173.6 136.65 173 137.6 171.7 140.35 170.7 140.1 171.45 139.05 172.05 137.6 172.85 137.35 173.1 137.05 173.35 136.05 175 135.6 175.75 134.55 177.2 133.6927734375 178.6189453125 133.2 180.15 133.233984375 182.759375 132.8 185.3 132.937890625 189.10234375 133.35 192.25 133.45 193 134.35 198.75 134.85 201.75 135 203.3
L 135.4 212.1
Q 135.7 217.2 135.25 220.05 134.75 220.05 134.65 219.1
L 134.1 206.6
Q 134.0525390625 205.496875 134 204.5 132.70546875 202.4779296875 131.8 200.25 132.2875 202.738671875 133 205.15 130.05 200.7 129.45 193.7 129.32578125 192.3640625 129.3 187.85 129.24375 186.9515625 129.2 186
L 127.3 182.25
Q 126.4 180.45 125.9 179.65 125.4484375 178.8880859375 124.75 178.05 124.6400390625 178.3431640625 124.5 178.65 124.0994140625 179.78828125 123.7 181 123.713671875 181.2416015625 123.6 181.45
L 123.55 181.45
Q 122.101953125 186.0814453125 120.65 192.15 120.8232421875 193.185546875 121.25 194.75 122.05 197.5 123.55 200.65 124.9 203.55 126.25 205 126.75 205.5 127.9 206.55 128.95 207.5 129.5 208.1 129.8 208.35 129.9 208.7 130 209.1 129.8 209.3 129.55 209.5 128.9 209.3 128.516796875 209.12578125 127.9 208.7
L 128 210.15
Q 128.1 212.15 128.25 213.15 128.55 215.7 129.75 217.85 129.8564453125 218.0583984375 129.95 218.25 130.45 218.3275390625 130.45 219
L 130.45 219.05
Q 131.3849609375 220.456640625 132.6 221.35 132.6 221.75 131.95 221.85 130.8634765625 221.9224609375 129.75 220.9 127.2091796875 226.5552734375 124.3 231.45 123.5 232.85 123.4 233.6 123.3 235.1 124.4 235.55
L 131.55 225.55
Q 131.2970703125 225.45 131.25 225.45
L 130.85 225.4 130.65 225.2 129.5 224.25
Q 129.05 223.85 128.95 223.05 128.95 222.75 129.05 222.65 129.15 222.45 129.35 222.55
L 129.55 223.3 129.95 223.75
Q 130.15 224 130.65 224.4
L 131.25 224.75
Q 131.4392578125 224.9392578125 131.75 225.3
L 135.4 220.25
Q 137.15 217.8 137.95 216.45 139.2 214.3 139.7 212.35 139.85 211.9 139.95 211.1 140.05 209.8 139.35 207.3
L 138.6 205.2
Q 138.15 204.2 137.9 203.7 137.67109375 203.1849609375 137.55 202.75 137.47109375 202.69140625 137.4 202.6 137.1 202.15 137.65 201.25
L 140.35 196.9
Q 142.55 193.15 143.1 191.7 143.6 190.3 144.2 187.2 145.45 179.85 145.6 172.05 145.7 165.9 144.25 162.65 143.95 161.8 143.25 160.8 140.55 156.75 135.6 155.8 134.79453125 155.6658203125 134.85 155.25 134.671484375 154.7912109375 135.2 154.1 136 152.95 137.65 151.1 139.45 149.05 140.15 148.1 144.45 142.2 144.45 133.35 144.45 131.346484375 144.15 128.85 143.0962890625 129.576953125 142.2 130.35 141.253515625 119.4396484375 138.05 112.4 135.25 106.2 133.45 106.2 130.95 106.2 130.2 111 130.10546875 111.6212890625 130 112.55
M 133.7 216.5
Q 133.5 213.1 133.7 211.4
L 134.1 211.4
Q 134.35 213.1 134.15 216.5 134.05 217.2 133.9 217.35 133.7 217.1 133.7 216.5
M 129.85 226.45
L 130.35 226.55 130.3 226.8 130.1 226.85 129.35 226.65
Q 128.95 226.35 129 226
L 129.25 225.95 129.45 226.1 129.6 226.25 129.7 226.4 129.85 226.45
M 125.5 190.85
Q 124.65 190 124.05 190 124.05 189.55 124.45 189.45 125.7 190.4 127.85 193.5 129.5 196.1 129.85 196.85 129.4 196.8 129 195.85 128.75 195.3 128.05 194.5 127.3 193.6 127.05 193.2 126.5 192.1 126.15 191.6
L 125.5 190.85
M 123.6 135.5
Q 123.4 135.2 122.3 134
L 120.65 132.1
Q 121 131.95 121.45 132.4 124.3650390625 135.50625 126.45 139.4 126.3017578125 136.390625 125.95 133.1 125.8830078125 132.489453125 125.8 131.8 125.0642578125 126.7685546875 124.2 122.2 120.95 105.1 117.45 105.1 116.2482421875 105.1 115.5 107.75
L 115.5 108.1
Q 115.5142578125 108.6201171875 115.5 109.1 115.5701171875 110.6279296875 115.6 111.95 115.7853515625 116.42578125 116 119 116.45 125.05 117.6 129.8 118.25 132.4 119.1 135.1
L 123.5 149.85
Q 124.7619140625 154.2451171875 126 156.7 126.5744140625 155.93984375 126.8 155.55 126.6076171875 154.0369140625 126.55 152.8 126.6 147.65 126.6 145.05 126.6234375 142.5150390625 126.45 139.7 126.3158203125 139.6484375 126.15 139.35 124.4 136.55 123.6 135.5
M 123.85 128.15
Q 122.6 125.65 122.55 125.5 121.75 123.05 121.15 121.9 120.05 119.8 118.35 119.45 117.5 119.35 117.6 118.9 119.45 119.05 120.6 120.45 121.15 121.1 121.85 122.7 124.95 130 125.75 132.35 125.1 132.3 124.85 130.9 124.65 129.75 123.85 128.15
M 45.7 46.05
Q 44.3248046875 45.4439453125 43.05 45.35 43.4072265625 47.4259765625 43.95 49.8 44.0166015625 49.851953125 44.05 49.9 46.65 54.5 51.5 65.05 56.05 75.05 59.05 80.1 59.95 81.6 62.4 85.5 64.55 88.85 65.7 90.9 66.9 93.05 69 97.55
L 72.1 104.2
Q 71.55859375 103.7892578125 71.05 103.25 71.0623046875 103.655859375 71.05 104.05 72.11328125 105.705859375 72.65 106.95 72.0884765625 106.4318359375 71.1 105.3 71.3091796875 110.92734375 71.65 117.65 71.91015625 122.4974609375 72.2 127.25 74.30703125 132.4685546875 77.6 137.3 83.65 146.3 92.55 151.9 93.8 152.7 96.4 154.2 96.633984375 154.3365234375 96.8 154.5 96.9693359375 154.3533203125 97.15 154.25 97.5625 153.9875 97.75 154.15 97.5 153.8 97.65 153.3 97.8 152.9 98.15 152.6 98.8 152.15 99.9 152.15 101.85 152.15 103 152.5 104.15 152.8 105.6 153.55 106.4 154 108.05 154.95 110.45 156.3 110.8 156.55 111.0802734375 156.7423828125 111.35 156.95 111.205859375 156.45625 111.1 155.85 109.95 149.8 106.6 142.9 104.45 138.55 99.8 130.85 94.8 122.6 93.05 119.85 90.75 116.3 89.4 115 88.2 113.9 85.05 112 79.9873046875 108.846875 76 105.8
L 76 105.95
Q 75.65 106.15 75.15 106.05 74.7 105.95 74.45 105.6 74.1 105.15 73.9 103.95 73.7 102.5 73.5 98.65 73.3 95.3 72.9 93.4 72.55 91.75 71.3 88.15 66.3 74.25 63 67.5 57.4 56.25 50.25 49.35 47.75 46.9 45.7 46.05
M 72.95 105.8
Q 73.3 105.9 73.5 106.25 80.2 116.7 85.75 125.75 94.8 140.7 99.2 150.05 98.15 149.95 97.35 148.2 96 145.5 91.6 137.75 82.5 122.05 72.4 105.9 72.55 105.6 72.95 105.8
M 74.8 114.9
Q 75.6 115.1 76.6 116.4 78.5 119.1 83.05 126.25
L 97.55 149.25
Q 97.85 149.7 97.55 149.75 96.05 148.7 94.65 146.85 93.85 145.75 92.35 143.35
L 82.15 126.45
Q 78.65 120.6 74.8 114.9
M 90.15 120.85
Q 89.8 121.1 89.7 121.8 89.5 123.25 90.05 126.55
L 90.45 128.65
Q 90.75 130.55 91.2 132.65 90.65 132.1 90.45 130.7
L 89.85 127.25
Q 89.35 124.15 89.35 122.55 89.35 121 89.95 120.3 90.95 120.2 91.45 120.35 92.35 120.55 92.55 121.2 91.8 120.85 90.9 120.75 90.4 120.65 90.15 120.85
M 75.25 131.1
Q 75.55 130.45 76.85 130.55 79.5 130.9 82.35 132.65 84.05 133.75 87.15 136.3 88.85 137.7 89.05 138.85
L 82.85 133.65
Q 80.75 132.15 78.3 131.45 76.55 130.85 75.25 131.1
M 95.25 134.75
Q 94.7 132.2 94.9 130.9 95.05 130.9 95.05 131.1 95.45 134 95.45 134.55
L 95.95 139.65
Q 95.5 139.65 95.5 138.8 95.3 137.35 95.3 136.65
L 95.25 134.75
M 58.4 64.85
Q 58.4 64.2 58.45 64.1 58.55 63.9 58.75 63.85 59 63.8 59.05 64 58.9 64.3 58.9 64.8 58.85 65.1 58.85 65.65
L 58.7 66.9
Q 58.65 67.4 58.75 68.3 59.2 73.4 60.6 78
L 62.55 84.15
Q 62.3 84.2 62.2 83.85 59.3 76.9 58.55 70.75
L 58.25 67.95 58.4 64.85
M 103.15 155.65
Q 103.6 156.55 105.5 158.9 107 160.65 110.3 165.45
L 115.1 172.65
Q 116.1919921875 174.169140625 116.95 175.55 116.973828125 175.3119140625 117 175.05 117.1 172.6 117.3 171.4
L 117.35 171.05
Q 117.1333984375 171.1 116.9 171 116.5 170.9 116.4 170.55
L 116.3 170.25 116.1 169.9
Q 115.95 169.7 115.95 169.4 115.8236328125 169.105078125 115.8 168.8 115.699609375 168.4595703125 115.6 167.85 115.55 167.6705078125 115.55 167.55
L 115.6 167.5
Q 115.5248046875 166.7779296875 115.2 165.85 114.8 164.6 113.8 162.9 112.5 160.5 111.55 159.5 110.45 158.35 108.25 157 105.75 155.35 104.3 154.7 102 153.6 100 153.45 99.3 153.45 98.95 153.55 98.4 153.75 98.25 154.25
L 97.75 154.15
Q 97.8125 154.2 97.85 154.3 97.05 156.1 98.05 159.45 99.4 164.75 101 167.9 103.2 172.4 106.7 174.65 107.75 175.35 111.05 176.8 113.85 178.05 115.2 179.2 116.1 179.95 117.25 181.4
L 120.25 184.9
Q 121.35 182.6 122 181.5 122.0615234375 181.4111328125 122.1 181.3 121.5857421875 181.173046875 121 180.85 120.0412109375 180.2748046875 119 179.25 119.481640625 180.26328125 119.9 181.3 119.9 181.4 119.75 181.4 119.65 181.35 119.55 181.25 118.75 180.4 117.95 178.95 117.1 177.35 116.6 176.5
L 112.7 170.45
Q 107.4 162.35 104.35 158.55 103.05 156.9 102.9 156 102.85 155.85 102.95 155.7 103.05 155.6 103.15 155.65
M 109.8 168.2
Q 111.05 169.65 113.25 172.75 114.8 174.95 115 175.3 115.25 175.75 116.45 178.05 117.3 179.75 118.05 180.75 118.3 181.15 118.3 181.3 118.4 181.8 118 181.8 117.8 181.8 117.6 181.6 116.3 180.4 115.6 179.05
L 114.65 177.15
Q 114.4 176.65 113.2 174.85 110.6 171.1 109.65 169.9
L 99.05 158
Q 98.55 157.4 98.9 157.2 99.75 157.4 100.75 158.45
L 109.8 168.2
M 99.65 94.95
Q 99.7095703125 95.0810546875 99.85 95.3
L 100.2 95.3
Q 99.4486328125 94.3349609375 98.7 93.35 96.7 90.75 93.4 86 87.15 76.7 83.95 72.05 78.4 64.05 73.9 58.55 73.7923828125 58.4169921875 73.7 58.3 72.68359375 57.1755859375 71.75 56.15 70.296875 63.1912109375 71 70.55 71.25 73.2 71.85 75.1 72.75 78 75.45 81.6 79.6 87.15 86.75 93.35 90.5 96.7 93.4 98.3 95.6 99.55 98.6 100.5 100.178515625 101.0412109375 103.35 101.85 103.5564453125 101.925 103.75 101.95 103.909375 102.0138671875 104.05 102.05 104.0203125 102.1181640625 103.95 102.15
L 104 102.2
Q 104.15 102.35 104.5 102.95 104.95 103.65 105.05 103.85 105.25 104.3 105.35 104.95
L 105.5 106 105.65 106.6 106.05 107.4
Q 106.2 107.7 106.6 108.8 106.9 109.7 107.25 110.2 107.95 111.2 108 111.3 108.05 111.4 108.15 112 108.25 112.4 108.4 112.6
L 109 113.2
Q 109.15 113.35 109.45 114
L 112.7 119.05
Q 112.953125 119.4169921875 113.2 119.75 113.9150390625 120.7404296875 114.55 121.45 114.323046875 118.8009765625 114.15 115.1 114.1025390625 113.096484375 114.05 110.75
L 114.05 110.5
Q 111.1873046875 107.8466796875 106.95 103.35 100.9599609375 96.91953125 99.85 95.3
L 99.65 95.3 99.65 94.95
M 97.4 70.95
Q 91.3 60.85 82.8 55.35 80.5 53.8 78.85 53.65 77.4970703125 53.505078125 75.25 54.25 76.8298828125 56.4755859375 79.25 59.85 82.585546875 64.078515625 86.2 69.5 88.6 73.1 93.2 80.45
L 97.3 87.1
Q 99.2 90.25 99.95 91.3 101.7 93.8 107 99.35 110.2259765625 102.7841796875 112.15 105.45 113.0333984375 106.4291015625 113.95 107.45
L 113.85 101.45
Q 113.837890625 100.93125 113.8 100.45 109.795703125 99.1921875 107.7 95.5 106.95 94.2 105.9 90.7 102.3 79 97.4 70.95
M 143.1 148.2
Q 142.966015625 147.7177734375 142.85 147.3 141.9806640625 148.54765625 140.7 150.05 139.005078125 152.2291015625 136.8 154.7 138.88203125 154.884375 141.6 156.95 142.39609375 157.5205078125 143.05 158.05 143.2240234375 157.8130859375 143.45 157.5 144.1 156.55 144.3 156.05 144.95 154.5 144.05 151.5
L 143.1 148.2 Z"/>

<path fill="#A2AD5F" stroke="none" d="
M 136.75 60.45
Q 136.7361328125 60.3515625 136.7 60.25 136.75 60.925390625 136.85 61.4
L 136.75 60.45
M 136.4 32.35
Q 136.311328125 33.937890625 136.2 35.9 135.8677734375 41.7578125 135.7 45.15 136.1974609375 49.8935546875 136.65 53 137.2 56.9 138.35 64.7 138.557421875 66.3138671875 138.7 68 138.8181640625 69.1166015625 138.9 70.25 139.1228515625 73.30859375 139.2 76.65 139.2 79.3 139.6 80.5 139.75 80.9 140 81.65 140.25 82.3 140.2 82.8 140.2 83.45 139.75 83.9 139.25 84.4 138.7 84.2 138.5 83.85 138.65 83.45 138.75 83.05 139.1 82.9 138.559765625 81.8197265625 138.35 80.2 138.3060546875 81.0060546875 138.25 81.85 138.25 81.958203125 138.25 82.1 138.3220703125 82.1166015625 138.4 82.15 138.5 84.35 138.6 84.8
L 139 86.75
Q 139.25 87.95 139.35 89.55
L 139.35 89.6
Q 139.35078125 91.154296875 139.4 91.45
L 139.7 92.6 139.85 94.25
Q 139.9 95 140.25 98.75 140.55 99.3 140.75 100.45
L 143.1 113.3
Q 142.903125 113.215625 142.7 113 143.0451171875 114.114453125 143.35 115.3 143.422265625 115.227734375 143.5 115.15 143.8642578125 114.78125 144.2 114.4 143.2130859375 111.8025390625 142.6 109.35 141.8 106.25 141.1 99.75
L 140.65 95.3
Q 140.65 93.3 140.6 92.9 140.25 91.2 140.1 90.35 140.0498046875 89.9986328125 140 89.5 139.9833984375 88.58046875 140.05 87.15 140.05 87.05 140.15 86.95 140.1697265625 86.9302734375 140.2 86.9 140.2599609375 86.8599609375 140.3 86.9 140.4 89.15 140.5 89.65 140.55 90.05 140.8 91.3 141 92.3 141.05 92.9
L 141.1 95.3
Q 141.15 95.65 141.5 97.4 141.7 98.55 142.05 102.5
L 142.8 107.8
Q 143.490234375 111.4240234375 144.3 113.5 144.25 113.1021484375 144.25 112.6 144.3 109.15 143.55 104.45 142.6 99.05 142.15 96.35 141.5 92.45 141.35 89.25 141.2958984375 86.70703125 141.7 83 141.6708984375 83.06640625 141.65 83.1 140.868359375 82.18046875 140.6 79.8 140.616015625 79.6169921875 140.6 79.4
L 138.2 41.85
Q 137.55078125 37.9798828125 136.9 34.65 136.6265625 33.39375 136.4 32.35 Z"/>
</g>
</defs>

<g transform="matrix( 1, 0, 0, 1, -21.5,-23.35) ">
<use xlink:href="#Layer1_0_FILL"/>
</g>

<g transform="matrix( 1, 0, 0, 1, 0,0) ">
<use xlink:href="#Layer0_0_FILL"/>
</g>
</svg>
