<?xml version="1.0" encoding="UTF-8"?>
<svg id="Camada_1" xmlns="http://www.w3.org/2000/svg" version="1.1" viewBox="0 0 490 125">
  <!-- Generator: Adobe Illustrator 29.5.1, SVG Export Plug-In . SVG Version: 2.1.0 Build 141)  -->
  <defs>
    <style>
      .st0 {
        fill: none;
        stroke: #68714b;
        stroke-miterlimit: 10;
        stroke-width: .7px;
      }

      .st1 {
        fill: #fff;
      }

      .st2 {
        fill: #68714b;
      }

      .st3 {
        fill: #4d5732;
      }
    </style>
  </defs>
  <path class="st2" d="M2.6,3.3h173v30H2.6V3.3ZM175.6,3.3h310v30H175.6V3.3Z"/>
  <path class="st0" d="M2.6,3.3h173M175.6,3.3h310.4M175.6,33V3.7M485.6,33V3.7M175.6,63v-29.3M2.6,63.3h173M175.6,63.3h310M175.6,93v-29.3M2.6,93.3h173M175.6,93.3h310M175.6,123v-29.3M2.6,123.3h173M175.6,123.3h310M2.6,33.3h173M175.6,33.3h310.4"/>
  <g>
    <path class="st1" d="M66,15v7.5h-1.6v-3.2h-3.3v3.2h-1.6v-7.5h1.6v3.2h3.3v-3.2h1.6Z"/>
    <path class="st1" d="M74.8,18.7c0,.5,0,1.1-.3,1.5-.2.5-.4.9-.8,1.2-.3.3-.7.6-1.2.8-.5.2-1,.3-1.6.3s-1.1,0-1.6-.3c-.5-.2-.9-.5-1.2-.8-.3-.3-.6-.7-.8-1.2-.2-.5-.3-1-.3-1.5s0-1.1.3-1.5c.2-.5.4-.9.8-1.2.3-.3.7-.6,1.2-.8.5-.2,1-.3,1.6-.3s1.1,0,1.6.3c.5.2.9.5,1.2.8s.6.7.8,1.2c.2.5.3,1,.3,1.5ZM73.2,18.7c0-.4,0-.7-.2-1.1-.1-.3-.3-.6-.4-.8s-.4-.4-.7-.5c-.3-.1-.6-.2-.9-.2s-.7,0-.9.2c-.3.1-.5.3-.7.5s-.3.5-.4.8c-.1.3-.2.7-.2,1.1s0,.7.2,1.1c.1.3.3.6.4.8.2.2.4.4.7.5.3.1.6.2.9.2s.7,0,.9-.2c.3-.1.5-.3.7-.5.2-.2.3-.5.4-.8.1-.3.2-.7.2-1.1Z"/>
    <path class="st1" d="M81.8,22.5h-1.4c-.3,0-.4,0-.6-.3l-1.4-2.3c0,0-.1-.2-.2-.2,0,0-.2,0-.3,0h-.5v2.8h-1.5v-7.5h2.3c.5,0,1,0,1.3.2s.7.3.9.5c.2.2.4.4.5.7.1.3.2.6.2.9s0,.5-.1.7c0,.2-.2.4-.3.6-.1.2-.3.3-.5.5s-.4.3-.7.3c0,0,.2.1.3.2,0,0,.2.2.2.3l1.7,2.7ZM78.2,18.5c.3,0,.5,0,.6,0s.3-.2.4-.3c.1-.1.2-.2.3-.4,0-.2,0-.3,0-.5,0-.4-.1-.6-.4-.8-.2-.2-.6-.3-1.1-.3h-.8v2.4h.8Z"/>
    <path class="st1" d="M90.8,15v7.5h-1.4v-4.6c0,0,0-.2,0-.3,0-.1,0-.2,0-.3l-2.1,4c-.1.2-.3.3-.5.3h-.2c-.1,0-.2,0-.3,0s-.2-.1-.2-.2l-2.1-4.1c0,.1,0,.2,0,.3s0,.2,0,.3v4.6h-1.4v-7.5h1.2c0,0,.1,0,.2,0,0,0,0,0,.1,0,0,0,0,0,.1,0,0,0,0,0,0,.1l2.1,4c0,.1.1.2.2.4,0,.1.1.3.2.4,0-.1.1-.3.2-.4s.1-.3.2-.4l2.1-4c0,0,0-.1,0-.1s0,0,.1,0c0,0,0,0,.1,0s.1,0,.2,0h1.2Z"/>
    <path class="st1" d="M99.6,18.7c0,.5,0,1.1-.3,1.5-.2.5-.4.9-.8,1.2-.3.3-.7.6-1.2.8-.5.2-1,.3-1.6.3s-1.1,0-1.6-.3c-.5-.2-.9-.5-1.2-.8-.3-.3-.6-.7-.8-1.2-.2-.5-.3-1-.3-1.5s0-1.1.3-1.5c.2-.5.4-.9.8-1.2.3-.3.7-.6,1.2-.8.5-.2,1-.3,1.6-.3s1.1,0,1.6.3c.5.2.9.5,1.2.8s.6.7.8,1.2c.2.5.3,1,.3,1.5ZM98,18.7c0-.4,0-.7-.2-1.1-.1-.3-.3-.6-.4-.8s-.4-.4-.7-.5c-.3-.1-.6-.2-.9-.2s-.7,0-.9.2c-.3.1-.5.3-.7.5s-.3.5-.4.8c-.1.3-.2.7-.2,1.1s0,.7.2,1.1c.1.3.3.6.4.8.2.2.4.4.7.5.3.1.6.2.9.2s.7,0,.9-.2c.3-.1.5-.3.7-.5.2-.2.3-.5.4-.8.1-.3.2-.7.2-1.1ZM97.7,14.5h-1c0,0-.1,0-.2,0,0,0-.2,0-.2-.2l-.4-.5s0,0,0,0c0,0,0,0,0,0,0,0,0,0,0,0,0,0,0,0,0,0l-.4.5c0,0-.2.2-.2.2,0,0-.1,0-.2,0h-1l1.2-1.4h1.3l1.2,1.4Z"/>
    <path class="st1" d="M107.1,15v7.5h-.8c-.1,0-.2,0-.3,0,0,0-.2-.1-.2-.2l-3.7-4.7c0,.1,0,.2,0,.4,0,.1,0,.2,0,.3v4.3h-1.4v-7.5h.8c0,0,.1,0,.2,0,0,0,0,0,.1,0,0,0,0,0,.1,0s0,0,.1.1l3.7,4.8c0-.1,0-.3,0-.4s0-.2,0-.3v-4.3h1.4Z"/>
    <path class="st1" d="M110.2,22.5h-1.6v-7.5h1.6v7.5Z"/>
    <path class="st1" d="M119,18.7c0,.5,0,1.1-.3,1.5-.2.5-.4.9-.8,1.2-.3.3-.7.6-1.2.8-.5.2-1,.3-1.6.3s-1.1,0-1.6-.3c-.5-.2-.9-.5-1.2-.8-.3-.3-.6-.7-.8-1.2-.2-.5-.3-1-.3-1.5s0-1.1.3-1.5c.2-.5.4-.9.8-1.2.3-.3.7-.6,1.2-.8.5-.2,1-.3,1.6-.3s1.1,0,1.6.3c.5.2.9.5,1.2.8s.6.7.8,1.2c.2.5.3,1,.3,1.5ZM117.4,18.7c0-.4,0-.7-.2-1.1-.1-.3-.3-.6-.4-.8s-.4-.4-.7-.5c-.3-.1-.6-.2-.9-.2s-.7,0-.9.2c-.3.1-.5.3-.7.5s-.3.5-.4.8c-.1.3-.2.7-.2,1.1s0,.7.2,1.1c.1.3.3.6.4.8.2.2.4.4.7.5.3.1.6.2.9.2s.7,0,.9-.2c.3-.1.5-.3.7-.5.2-.2.3-.5.4-.8.1-.3.2-.7.2-1.1Z"/>
  </g>
  <path class="st1" d="M310.5,22.5h-1.2c-.1,0-.2,0-.3,0s-.1-.1-.2-.2l-.5-1.4h-3l-.5,1.4c0,0,0,.2-.2.2s-.2.1-.3.1h-1.2l2.9-7.5h1.6l2.9,7.5ZM307.9,19.6l-.8-2.3c0-.1,0-.3-.2-.4,0-.2-.1-.3-.2-.5,0,.2,0,.4-.2.5,0,.2-.1.3-.2.4l-.8,2.3h2.2Z"/>
  <g>
    <path class="st1" d="M315.8,16.3h-2.2v6.2h-1.5v-6.2h-2.2v-1.2h5.9v1.2Z"/>
    <path class="st1" d="M318.3,22.5h-1.6v-7.5h1.6v7.5Z"/>
    <path class="st1" d="M326.4,15l-3,7.5h-1.4l-3-7.5h1.2c.1,0,.2,0,.3,0s.1.1.2.2l1.6,4.3c0,.2.1.3.2.5,0,.2.1.4.2.6,0-.2,0-.4.1-.6,0-.2.1-.4.2-.5l1.6-4.3c0,0,0-.2.2-.2s.2-.1.3-.1h1.2Z"/>
    <path class="st1" d="M328.6,22.5h-1.6v-7.5h1.6v7.5Z"/>
    <path class="st1" d="M336.9,18.7c0,.5,0,1-.3,1.5s-.4.9-.8,1.2c-.3.3-.7.6-1.2.8s-1,.3-1.6.3h-2.9v-7.5h2.9c.6,0,1.1,0,1.6.3s.9.4,1.2.8c.3.3.6.7.8,1.2s.3,1,.3,1.5ZM335.3,18.7c0-.4,0-.7-.2-1.1-.1-.3-.2-.6-.4-.8-.2-.2-.4-.4-.7-.5-.3-.1-.6-.2-.9-.2h-1.3v5h1.3c.3,0,.7,0,.9-.2s.5-.3.7-.5c.2-.2.3-.5.4-.8.1-.3.2-.7.2-1.1Z"/>
  </g>
  <g>
    <path class="st1" d="M344.3,22.5h-1.2c-.1,0-.2,0-.3,0s-.1-.1-.2-.2l-.5-1.4h-3l-.5,1.4c0,0,0,.2-.2.2s-.2.1-.3.1h-1.2l2.9-7.5h1.6l2.9,7.5ZM341.7,19.6l-.8-2.3c0-.1,0-.3-.2-.4,0-.2-.1-.3-.2-.5,0,.2,0,.4-.2.5,0,.2-.1.3-.2.4l-.8,2.3h2.2Z"/>
    <path class="st1" d="M351.7,18.7c0,.5,0,1-.3,1.5s-.4.9-.8,1.2c-.3.3-.7.6-1.2.8s-1,.3-1.6.3h-2.9v-7.5h2.9c.6,0,1.1,0,1.6.3s.9.4,1.2.8c.3.3.6.7.8,1.2s.3,1,.3,1.5ZM350.1,18.7c0-.4,0-.7-.2-1.1-.1-.3-.2-.6-.4-.8-.2-.2-.4-.4-.7-.5-.3-.1-.6-.2-.9-.2h-1.3v5h1.3c.3,0,.7,0,.9-.2s.5-.3.7-.5c.2-.2.3-.5.4-.8.1-.3.2-.7.2-1.1Z"/>
    <path class="st1" d="M354.4,16.2v1.9h2.5v1.2h-2.5v2h3.2v1.2h-4.8v-7.5h4.8v1.2h-3.2Z"/>
  </g>
  <path class="st3" d="M12.4,45.1v7.4h-1v-3.4h-4v3.4h-1v-7.4h1v3.3h4v-3.3h1Z"/>
  <g>
    <path class="st3" d="M16.1,47.2c.4,0,.7,0,1,.2.3.1.6.3.8.5s.4.5.5.8c.1.3.2.7.2,1.1s0,.8-.2,1.1c-.1.3-.3.6-.5.8s-.5.4-.8.5c-.3.1-.6.2-1,.2s-.7,0-1-.2c-.3-.1-.6-.3-.8-.5-.2-.2-.4-.5-.5-.8-.1-.3-.2-.7-.2-1.1s0-.8.2-1.1.3-.6.5-.8c.2-.2.5-.4.8-.5.3-.1.7-.2,1-.2ZM16.1,51.8c.5,0,.9-.2,1.2-.5s.4-.8.4-1.4-.1-1.1-.4-1.5c-.3-.3-.6-.5-1.2-.5s-.5,0-.7.1c-.2,0-.4.2-.5.4-.1.2-.2.4-.3.6,0,.2,0,.5,0,.8,0,.6.1,1.1.4,1.4.3.3.6.5,1.2.5Z"/>
    <path class="st3" d="M20.6,48.3c.2-.4.4-.6.6-.8.2-.2.5-.3.9-.3s.2,0,.3,0c.1,0,.2,0,.3.1v.7c0,0-.1.1-.2.1s-.1,0-.2,0c0,0-.2,0-.3,0s-.3,0-.4,0c-.1,0-.2.1-.3.2s-.2.2-.3.4c0,.1-.2.3-.2.5v3.3h-.9v-5.2h.5c0,0,.2,0,.2,0s0,.1,0,.2v.8Z"/>
    <path class="st3" d="M23.5,52.5v-5.2h.6c.1,0,.2,0,.2.2v.5c.3-.2.5-.4.7-.6s.5-.2.8-.2.6,0,.9.3.4.5.5.8c0-.2.2-.4.3-.5.1-.1.3-.3.4-.3.1,0,.3-.2.5-.2s.3,0,.5,0c.3,0,.5,0,.7.1.2,0,.4.2.5.4.1.2.3.4.3.6s.1.5.1.8v3.3h-.9v-3.3c0-.4,0-.7-.3-.9-.2-.2-.4-.3-.8-.3s-.3,0-.4,0c-.1,0-.3.1-.4.2s-.2.2-.2.4,0,.3,0,.5v3.3h-.9v-3.3c0-.4,0-.7-.3-.9-.2-.2-.4-.3-.7-.3s-.4,0-.6.2-.4.3-.5.5v3.9h-.9Z"/>
    <path class="st3" d="M34.2,47.2c.4,0,.7,0,1,.2.3.1.6.3.8.5s.4.5.5.8c.1.3.2.7.2,1.1s0,.8-.2,1.1c-.1.3-.3.6-.5.8s-.5.4-.8.5c-.3.1-.6.2-1,.2s-.7,0-1-.2c-.3-.1-.6-.3-.8-.5-.2-.2-.4-.5-.5-.8-.1-.3-.2-.7-.2-1.1s0-.8.2-1.1.3-.6.5-.8c.2-.2.5-.4.8-.5.3-.1.7-.2,1-.2ZM35.8,46.5h-.6s0,0-.1,0,0,0-.1,0l-.6-.7s0,0,0,0c0,0,0,0,0,0,0,0,0,0,0,0l-.6.7c0,0-.1,0-.2,0h-.6l1.1-1.4h.9l1.1,1.4ZM34.2,51.8c.5,0,.9-.2,1.2-.5s.4-.8.4-1.4-.1-1.1-.4-1.5c-.3-.3-.6-.5-1.2-.5s-.5,0-.7.1c-.2,0-.4.2-.5.4-.1.2-.2.4-.3.6,0,.2,0,.5,0,.8,0,.6.1,1.1.4,1.4.3.3.6.5,1.2.5Z"/>
    <path class="st3" d="M38.7,48c.1-.1.2-.2.4-.3.1-.1.3-.2.4-.3.1,0,.3-.1.5-.2.2,0,.3,0,.5,0,.3,0,.5,0,.8.1.2,0,.4.2.5.4.1.2.3.4.3.6,0,.2.1.5.1.8v3.3h-.9v-3.3c0-.4,0-.7-.3-.9-.2-.2-.5-.3-.8-.3s-.5,0-.8.2-.5.3-.7.5v3.8h-.9v-5.2h.6c.1,0,.2,0,.2.2v.6Z"/>
    <path class="st3" d="M44.7,45.6c0,0,0,.2,0,.2,0,0,0,.1-.1.2s-.1.1-.2.1c0,0-.2,0-.3,0s-.2,0-.2,0c0,0-.1,0-.2-.1,0,0-.1-.1-.1-.2s0-.2,0-.2,0-.2,0-.3,0-.2.1-.2c0,0,.1-.1.2-.1s.2,0,.2,0,.2,0,.3,0,.2,0,.2.1.1.1.1.2c0,0,0,.2,0,.3ZM44.5,47.3v5.2h-.9v-5.2h.9Z"/>
    <path class="st3" d="M48.2,47.2c.4,0,.7,0,1,.2.3.1.6.3.8.5s.4.5.5.8c.1.3.2.7.2,1.1s0,.8-.2,1.1c-.1.3-.3.6-.5.8s-.5.4-.8.5c-.3.1-.6.2-1,.2s-.7,0-1-.2c-.3-.1-.6-.3-.8-.5-.2-.2-.4-.5-.5-.8-.1-.3-.2-.7-.2-1.1s0-.8.2-1.1.3-.6.5-.8c.2-.2.5-.4.8-.5.3-.1.7-.2,1-.2ZM48.2,51.8c.5,0,.9-.2,1.2-.5s.4-.8.4-1.4-.1-1.1-.4-1.5c-.3-.3-.6-.5-1.2-.5s-.5,0-.7.1c-.2,0-.4.2-.5.4-.1.2-.2.4-.3.6,0,.2,0,.5,0,.8,0,.6.1,1.1.4,1.4.3.3.6.5,1.2.5Z"/>
    <path class="st3" d="M56.1,52.6c-.4,0-.7-.1-.9-.3-.2-.2-.3-.6-.3-1v-3.2h-.6c0,0-.1,0-.1,0s0,0,0-.2v-.4h.9c0-.1.2-1.7.2-1.7,0,0,0,0,0-.1,0,0,0,0,.1,0h.5v1.8h1.5v.7h-1.5v3.1c0,.2,0,.4.2.5.1.1.2.2.4.2s.2,0,.2,0,.1,0,.2,0c0,0,0,0,.1,0,0,0,0,0,0,0,0,0,0,0,.1,0l.3.4c-.2.1-.3.3-.6.3-.2,0-.5.1-.7.1Z"/>
    <path class="st3" d="M62.4,51.7c-.1.1-.2.3-.4.4-.2.1-.3.2-.5.2-.2,0-.4.1-.6.1-.2,0-.4,0-.6,0-.4,0-.7,0-1-.2-.3-.1-.6-.3-.8-.5s-.4-.5-.5-.9c-.1-.3-.2-.7-.2-1.2s0-.7.2-1c.1-.3.3-.6.5-.8.2-.2.5-.4.8-.5.3-.1.6-.2,1-.2s.6,0,.9.2.5.3.7.5.3.4.5.7c.1.3.2.6.2,1s0,.2,0,.3c0,0,0,0-.2,0h-3.5c0,.3,0,.6.1.9s.2.4.3.6c.1.2.3.3.5.4s.4.1.7.1.4,0,.6,0,.3-.1.4-.2.2-.1.3-.2.1,0,.2,0,.1,0,.2,0l.3.3ZM61.7,49.3c0-.2,0-.4,0-.6s-.1-.3-.3-.5-.3-.2-.4-.3-.4-.1-.6-.1c-.4,0-.8.1-1,.4s-.4.6-.5,1.1h2.9Z"/>
    <path class="st3" d="M65.2,52.6c-.4,0-.7-.1-.9-.3-.2-.2-.3-.6-.3-1v-3.2h-.6c0,0-.1,0-.1,0s0,0,0-.2v-.4h.9c0-.1.2-1.7.2-1.7,0,0,0,0,0-.1,0,0,0,0,.1,0h.5v1.8h1.5v.7h-1.5v3.1c0,.2,0,.4.2.5.1.1.2.2.4.2s.2,0,.2,0,.1,0,.2,0c0,0,0,0,.1,0,0,0,0,0,0,0,0,0,0,0,.1,0l.3.4c-.2.1-.3.3-.6.3-.2,0-.5.1-.7.1Z"/>
    <path class="st3" d="M68.2,48.3c.2-.4.4-.6.6-.8.2-.2.5-.3.9-.3s.2,0,.3,0c.1,0,.2,0,.3.1v.7c0,0-.1.1-.2.1s-.1,0-.2,0c0,0-.2,0-.3,0s-.3,0-.4,0c-.1,0-.2.1-.3.2s-.2.2-.3.4c0,.1-.2.3-.2.5v3.3h-.9v-5.2h.5c0,0,.2,0,.2,0s0,.1,0,.2v.8Z"/>
    <path class="st3" d="M70.9,48c.3-.3.6-.5.9-.6.3-.1.7-.2,1.1-.2s.6,0,.8.1c.2,0,.4.2.6.4.2.2.3.4.4.6,0,.2.1.5.1.8v3.3h-.4c0,0-.2,0-.2,0,0,0,0,0-.1-.2v-.5c-.2.1-.4.2-.5.3-.1,0-.3.2-.4.2s-.3.1-.5.2c-.2,0-.3,0-.5,0s-.4,0-.6,0c-.2,0-.3-.1-.5-.3-.1-.1-.2-.3-.3-.4,0-.2-.1-.4-.1-.6s0-.4.2-.6c.1-.2.3-.4.6-.5s.6-.3,1-.4c.4,0,.9-.1,1.5-.2v-.4c0-.4,0-.7-.3-.9s-.4-.3-.8-.3-.4,0-.6,0c-.2,0-.3.1-.4.2-.1,0-.2.1-.3.2s-.2,0-.2,0-.1,0-.2,0c0,0,0,0-.1-.1l-.2-.3ZM73.9,50.1c-.4,0-.8,0-1.1.1s-.5.1-.7.2c-.2,0-.3.2-.4.3s-.1.2-.1.4,0,.3,0,.4c0,0,.1.2.2.2,0,0,.2.1.3.1s.2,0,.3,0,.3,0,.4,0c.1,0,.3,0,.4-.1.1,0,.2-.1.3-.2.1,0,.2-.2.3-.3v-1.1Z"/>
    <path class="st3" d="M77.3,45.6c0,0,0,.2,0,.2,0,0,0,.1-.1.2s-.1.1-.2.1c0,0-.2,0-.3,0s-.2,0-.2,0c0,0-.1,0-.2-.1,0,0-.1-.1-.1-.2s0-.2,0-.2,0-.2,0-.3,0-.2.1-.2c0,0,.1-.1.2-.1s.2,0,.2,0,.2,0,.3,0,.2,0,.2.1.1.1.1.2c0,0,0,.2,0,.3ZM77.1,47.3v5.2h-.9v-5.2h.9Z"/>
    <path class="st3" d="M80.8,47.2c.4,0,.7,0,1,.2.3.1.6.3.8.5s.4.5.5.8c.1.3.2.7.2,1.1s0,.8-.2,1.1c-.1.3-.3.6-.5.8s-.5.4-.8.5c-.3.1-.6.2-1,.2s-.7,0-1-.2c-.3-.1-.6-.3-.8-.5-.2-.2-.4-.5-.5-.8-.1-.3-.2-.7-.2-1.1s0-.8.2-1.1.3-.6.5-.8c.2-.2.5-.4.8-.5.3-.1.7-.2,1-.2ZM80.8,51.8c.5,0,.9-.2,1.2-.5s.4-.8.4-1.4-.1-1.1-.4-1.5c-.3-.3-.6-.5-1.2-.5s-.5,0-.7.1c-.2,0-.4.2-.5.4-.1.2-.2.4-.3.6,0,.2,0,.5,0,.8,0,.6.1,1.1.4,1.4.3.3.6.5,1.2.5Z"/>
    <path class="st3" d="M88.8,44.9v7.6h-.5c-.1,0-.2,0-.2-.2v-.6c-.3.3-.6.5-.8.6s-.6.2-1,.2-.6,0-.8-.2c-.2-.1-.5-.3-.6-.5-.2-.2-.3-.5-.4-.8,0-.3-.1-.7-.1-1.1s0-.7.2-1.1c.1-.3.3-.6.4-.9.2-.2.4-.4.7-.6.3-.1.6-.2.9-.2s.6,0,.8.2c.2.1.4.3.6.5v-2.9h.9ZM87.9,48.5c-.2-.2-.4-.4-.6-.5s-.4-.1-.7-.1c-.5,0-.9.2-1.1.5-.3.3-.4.8-.4,1.5s0,.6,0,.9.1.4.3.6c.1.2.3.3.4.3.2,0,.4.1.6.1.3,0,.6,0,.8-.2s.4-.3.6-.6v-2.5Z"/>
    <path class="st3" d="M92.4,47.2c.4,0,.7,0,1,.2.3.1.6.3.8.5s.4.5.5.8c.1.3.2.7.2,1.1s0,.8-.2,1.1c-.1.3-.3.6-.5.8s-.5.4-.8.5c-.3.1-.6.2-1,.2s-.7,0-1-.2c-.3-.1-.6-.3-.8-.5-.2-.2-.4-.5-.5-.8-.1-.3-.2-.7-.2-1.1s0-.8.2-1.1.3-.6.5-.8c.2-.2.5-.4.8-.5.3-.1.7-.2,1-.2ZM92.4,51.8c.5,0,.9-.2,1.2-.5s.4-.8.4-1.4-.1-1.1-.4-1.5c-.3-.3-.6-.5-1.2-.5s-.5,0-.7.1c-.2,0-.4.2-.5.4-.1.2-.2.4-.3.6,0,.2,0,.5,0,.8,0,.6.1,1.1.4,1.4.3.3.6.5,1.2.5Z"/>
  </g>
  <path class="st3" d="M100.7,47.4h-3.6v-1.8h-.5c0,0-.1,0-.1,0,0,0,0,0,0,.1l-.2,1.6h-.9v.5c0,0,0,.1,0,.2s0,0,.1,0h.6v3.2c0,.4.1.8.3,1,.2.2.5.3.9.3s.5,0,.7-.1.4-.2.6-.3l-.3-.4c0,0,0,0-.1,0s0,0,0,0c0,0,0,0-.1,0s-.1,0-.2,0c0,0-.2,0-.2,0-.2,0-.3,0-.4-.2-.1-.1-.2-.3-.2-.5v-3.1h2.7v4.4h.9v-5.1ZM100.8,45.3c0,0,0-.1-.1-.2s-.1-.1-.2-.1-.2,0-.2,0-.2,0-.3,0c0,0-.1,0-.2.1,0,0-.1.1-.1.2s0,.2,0,.3,0,.2,0,.2c0,0,0,.1.1.2,0,0,.1.1.2.1,0,0,.2,0,.3,0s.2,0,.2,0c0,0,.1,0,.2-.1s.1-.1.1-.2c0,0,0-.2,0-.2s0-.2,0-.3h0Z"/>
  <path class="st3" d="M103.1,48.3c.2-.4.4-.6.6-.8.2-.2.5-.3.9-.3s.2,0,.3,0c.1,0,.2,0,.3.1v.7c0,0-.1.1-.2.1s-.1,0-.2,0c0,0-.2,0-.3,0s-.3,0-.4,0c-.1,0-.2.1-.3.2s-.2.2-.3.4c0,.1-.2.3-.2.5v3.3h-.9v-5.2h.5c0,0,.2,0,.2,0s0,.1,0,.2v.8Z"/>
  <g>
    <path class="st3" d="M107.9,47.2c.4,0,.7,0,1,.2.3.1.6.3.8.5s.4.5.5.8c.1.3.2.7.2,1.1s0,.8-.2,1.1c-.1.3-.3.6-.5.8s-.5.4-.8.5c-.3.1-.6.2-1,.2s-.7,0-1-.2c-.3-.1-.6-.3-.8-.5-.2-.2-.4-.5-.5-.8-.1-.3-.2-.7-.2-1.1s0-.8.2-1.1.3-.6.5-.8c.2-.2.5-.4.8-.5.3-.1.7-.2,1-.2ZM107.9,51.8c.5,0,.9-.2,1.2-.5s.4-.8.4-1.4-.1-1.1-.4-1.5c-.3-.3-.6-.5-1.2-.5s-.5,0-.7.1c-.2,0-.4.2-.5.4-.1.2-.2.4-.3.6,0,.2,0,.5,0,.8,0,.6.1,1.1.4,1.4.3.3.6.5,1.2.5Z"/>
    <path class="st3" d="M112.4,48c.1-.1.2-.2.4-.3.1-.1.3-.2.4-.3.1,0,.3-.1.5-.2.2,0,.3,0,.5,0,.3,0,.5,0,.8.1.2,0,.4.2.5.4.1.2.3.4.3.6,0,.2.1.5.1.8v3.3h-.9v-3.3c0-.4,0-.7-.3-.9-.2-.2-.5-.3-.8-.3s-.5,0-.8.2-.5.3-.7.5v3.8h-.9v-5.2h.6c.1,0,.2,0,.2.2v.6Z"/>
    <path class="st3" d="M118.5,45.6c0,0,0,.2,0,.2,0,0,0,.1-.1.2s-.1.1-.2.1c0,0-.2,0-.3,0s-.2,0-.2,0c0,0-.1,0-.2-.1,0,0-.1-.1-.1-.2s0-.2,0-.2,0-.2,0-.3,0-.2.1-.2c0,0,.1-.1.2-.1s.2,0,.2,0,.2,0,.3,0,.2,0,.2.1.1.1.1.2c0,0,0,.2,0,.3ZM118.3,47.3v5.2h-.9v-5.2h.9Z"/>
    <path class="st3" d="M120.6,48c.1-.1.2-.2.4-.3.1-.1.3-.2.4-.3.1,0,.3-.1.5-.2.2,0,.3,0,.5,0,.3,0,.5,0,.8.1.2,0,.4.2.5.4.1.2.3.4.3.6,0,.2.1.5.1.8v3.3h-.9v-3.3c0-.4,0-.7-.3-.9-.2-.2-.5-.3-.8-.3s-.5,0-.8.2-.5.3-.7.5v3.8h-.9v-5.2h.6c.1,0,.2,0,.2.2v.6Z"/>
    <path class="st3" d="M125.4,48c.3-.3.6-.5.9-.6.3-.1.7-.2,1.1-.2s.6,0,.8.1c.2,0,.4.2.6.4.2.2.3.4.4.6,0,.2.1.5.1.8v3.3h-.4c0,0-.2,0-.2,0,0,0,0,0-.1-.2v-.5c-.2.1-.4.2-.5.3-.1,0-.3.2-.4.2s-.3.1-.5.2c-.2,0-.3,0-.5,0s-.4,0-.6,0c-.2,0-.3-.1-.5-.3-.1-.1-.2-.3-.3-.4,0-.2-.1-.4-.1-.6s0-.4.2-.6c.1-.2.3-.4.6-.5s.6-.3,1-.4c.4,0,.9-.1,1.5-.2v-.4c0-.4,0-.7-.3-.9s-.4-.3-.8-.3-.4,0-.6,0c-.2,0-.3.1-.4.2-.1,0-.2.1-.3.2s-.2,0-.2,0-.1,0-.2,0c0,0,0,0-.1-.1l-.2-.3ZM128.3,50.1c-.4,0-.8,0-1.1.1s-.5.1-.7.2c-.2,0-.3.2-.4.3s-.1.2-.1.4,0,.3,0,.4c0,0,.1.2.2.2,0,0,.2.1.3.1s.2,0,.3,0,.3,0,.4,0c.1,0,.3,0,.4-.1.1,0,.2-.1.3-.2.1,0,.2-.2.3-.3v-1.1Z"/>
    <path class="st3" d="M130.5,49h2.5v.8h-2.5v-.8Z"/>
  </g>
  <g>
    <path class="st3" d="M139,45.9h-2.4v6.5h-1v-6.5h-2.4v-.8h5.8v.8Z"/>
    <path class="st3" d="M144.8,49.8v.5c0,0,0,.1,0,.1,0,0,0,0-.2,0h-.9v1.9h-.8v-1.9h-3.3c0,0-.1,0-.2,0,0,0,0,0,0-.1v-.5c0,0,3.5-4.8,3.5-4.8h.9v4.7h1.1ZM142.9,49.8v-3c0,0,0-.2,0-.3,0-.1,0-.2,0-.3l-2.7,3.7h2.6Z"/>
  </g>
  <path class="st3" d="M181.6,45.1c.5,0,.9,0,1.2.2.3.1.6.3.9.5.2.2.4.4.5.7.1.3.2.6.2.9s0,.7-.2.9-.3.5-.5.7-.5.4-.9.5c-.3.1-.7.2-1.2.2h-1.2v2.8h-1v-7.4h2.2ZM181.6,48.9c.3,0,.5,0,.8-.1.2,0,.4-.2.6-.3.1-.1.3-.3.3-.5,0-.2.1-.4.1-.6,0-.5-.1-.8-.4-1.1s-.7-.4-1.3-.4h-1.2v3h1.2Z"/>
  <path class="st3" d="M188.1,51.2c-.1.1-.2.2-.3.3-.1,0-.2.2-.3.2-.1,0-.2.1-.4.1s-.3,0-.4,0-.2,0-.3,0-.2,0-.3-.1c0,0-.1-.1-.2-.2,0-.1,0-.2,0-.4s0-.3.1-.4c0-.1.2-.2.4-.3s.4-.2.7-.2.7,0,1.1-.1v1.1ZM185.3,48.3c0,0,0,0,.1.1,0,0,0,0,.2,0s.2,0,.2,0c0,0,.2-.1.3-.2s.2-.1.4-.2c.2,0,.3,0,.6,0,.3,0,.6.1.8.3s.3.5.3.9v.4c-.6,0-1.1,0-1.5.2s-.7.2-1,.4c-.3.2-.4.3-.6.5-.1.2-.2.4-.2.6s0,.4.1.6c0,.2.2.3.3.4s.3.2.5.3c.2,0,.4,0,.6,0s.4,0,.5,0c.2,0,.3,0,.5-.2.1,0,.3-.2.4-.2.1-.1.3-.2.4-.3v.5c.1,0,.2.1.2.2,0,0,.1,0,.2,0h.4v-3.3c0-.3,0-.6-.1-.8,0-.2-.2-.5-.3-.6-.2-.2-.3-.3-.6-.4-.2,0-.5-.1-.8-.1-.4,0-.8,0-1.1.2-.3.1-.6.3-.9.6l.2.3ZM191.2,47.5c0,0,0-.2,0-.2,0,0-.1,0-.2,0h-.5v5.2h.9v-3.3c0-.2.1-.3.2-.5,0-.1.2-.3.3-.3s.2-.2.3-.2c.1,0,.3,0,.4,0s.2,0,.3,0,.2,0,.2,0c0,0,.1,0,.2-.1v-.7c0,0-.1,0-.2-.1s-.2,0-.3,0c-.3,0-.6.1-.9.3-.2.2-.4.5-.6.8v-.8ZM199,47.4h-3.6v-1.8h-.5c0,0-.1,0-.1,0,0,0,0,0,0,.1l-.2,1.6h-.9v.5c0,0,0,.1,0,.2s0,0,.1,0h.6v3.2c0,.4.1.8.3,1,.2.2.5.3.9.3s.5,0,.7-.1.4-.2.6-.3l-.3-.4c0,0,0,0-.1,0s0,0,0,0c0,0,0,0-.1,0s-.1,0-.2,0c0,0-.2,0-.2,0-.2,0-.3,0-.4-.2-.1-.1-.2-.3-.2-.5v-3.1h2.7v4.4h.9v-5.1ZM199.1,45.3c0,0,0-.1-.1-.2s-.1-.1-.2-.1-.2,0-.2,0-.2,0-.3,0c0,0-.1,0-.2.1,0,0-.1.1-.1.2s0,.2,0,.3,0,.2,0,.2c0,0,0,.1.1.2,0,0,.1.1.2.1,0,0,.2,0,.3,0s.2,0,.2,0c0,0,.1,0,.2-.1s.1-.1.1-.2c0,0,0-.2,0-.2s0-.2,0-.3h0Z"/>
  <path class="st3" d="M204.1,48.2s0,0,0,0,0,0-.1,0-.1,0-.2,0c0,0-.1,0-.2-.1,0,0-.2,0-.3-.1s-.3,0-.5,0-.5,0-.7.1c-.2,0-.4.2-.5.4-.1.2-.2.4-.3.6,0,.2-.1.5-.1.8s0,.6.1.8c0,.2.2.5.3.6.1.2.3.3.5.4.2,0,.4.1.6.1s.4,0,.6,0c.1,0,.3-.1.4-.2,0,0,.2-.1.2-.2s.1,0,.2,0,.1,0,.2,0l.3.3c-.1.1-.2.3-.4.4-.1,0-.3.2-.5.2s-.3.1-.5.1c-.2,0-.4,0-.6,0-.3,0-.6,0-.9-.2-.3-.1-.5-.3-.7-.5s-.4-.5-.5-.8c-.1-.3-.2-.7-.2-1.1s0-.7.2-1.1c.1-.3.3-.6.5-.9.2-.2.5-.4.8-.6s.7-.2,1-.2.7,0,1,.2c.3.1.5.3.7.5l-.2.3Z"/>
  <g>
    <path class="st3" d="M206.5,45.6c0,0,0,.2,0,.2s0,.1-.1.2c0,0-.1.1-.2.1,0,0-.2,0-.3,0s-.2,0-.2,0c0,0-.1,0-.2-.1,0,0-.1-.1-.1-.2s0-.2,0-.2,0-.2,0-.3,0-.2.1-.2c0,0,.1-.1.2-.1s.2,0,.2,0,.2,0,.3,0c0,0,.2,0,.2.1,0,0,.1.1.1.2s0,.2,0,.3ZM206.3,47.3v5.2h-.9v-5.2h.9Z"/>
    <path class="st3" d="M208.7,48.1c.2-.3.5-.5.8-.7s.6-.2,1-.2.6,0,.8.2c.2.1.5.3.6.5s.3.5.4.8c0,.3.1.7.1,1.1s0,.7-.2,1.1c-.1.3-.3.6-.4.9s-.4.4-.7.6c-.3.1-.6.2-.9.2s-.6,0-.8-.2c-.2-.1-.4-.3-.6-.5v2.3h-.9v-7h.6c.1,0,.2,0,.2.2v.6ZM208.8,51.2c.2.2.4.4.6.5.2,0,.4.1.7.1.5,0,.9-.2,1.1-.5.3-.3.4-.8.4-1.5s0-.6,0-.9c0-.2-.1-.4-.3-.6-.1-.2-.3-.3-.4-.3-.2,0-.4-.1-.6-.1-.3,0-.6,0-.8.2s-.4.3-.6.6v2.5Z"/>
    <path class="st3" d="M213.5,48c.3-.3.6-.5.9-.6.3-.1.7-.2,1.1-.2s.6,0,.8.1c.2,0,.4.2.6.4.2.2.3.4.3.6,0,.2.1.5.1.8v3.3h-.4c0,0-.2,0-.2,0,0,0,0,0-.1-.2v-.5c-.2.1-.4.2-.5.3-.1,0-.3.2-.4.2-.1,0-.3.1-.5.2s-.3,0-.5,0-.4,0-.6,0-.3-.1-.5-.3c-.1-.1-.2-.3-.3-.4,0-.2-.1-.4-.1-.6s0-.4.2-.6.3-.4.6-.5.6-.3,1-.4c.4,0,.9-.1,1.5-.2v-.4c0-.4,0-.7-.3-.9-.2-.2-.4-.3-.8-.3s-.4,0-.6,0c-.2,0-.3.1-.4.2-.1,0-.2.1-.3.2,0,0-.2,0-.2,0s-.1,0-.2,0c0,0,0,0-.1-.1l-.2-.3ZM216.4,50.1c-.4,0-.8,0-1.1.1-.3,0-.5.1-.7.2-.2,0-.3.2-.4.3s-.1.2-.1.4,0,.3,0,.4c0,0,.1.2.2.2,0,0,.2.1.3.1s.2,0,.3,0,.3,0,.4,0c.1,0,.3,0,.4-.1.1,0,.2-.1.3-.2.1,0,.2-.2.3-.3v-1.1Z"/>
    <path class="st3" d="M225.7,44.9v7.6h-.5c-.1,0-.2,0-.2-.2v-.6c-.3.3-.6.5-.8.6-.3.2-.6.2-1,.2s-.6,0-.8-.2c-.2-.1-.5-.3-.6-.5-.2-.2-.3-.5-.4-.8,0-.3-.1-.7-.1-1.1s0-.7.2-1.1c.1-.3.2-.6.4-.9s.4-.4.7-.6c.3-.1.6-.2.9-.2s.6,0,.8.2c.2.1.4.3.6.5v-2.9h.9ZM224.8,48.5c-.2-.2-.4-.4-.6-.5s-.4-.1-.7-.1c-.5,0-.9.2-1.1.5-.3.3-.4.8-.4,1.5s0,.6,0,.9.1.4.3.6c.1.2.3.3.4.3.2,0,.4.1.6.1.3,0,.6,0,.8-.2s.4-.3.6-.6v-2.5Z"/>
    <path class="st3" d="M227,48c.3-.3.6-.5.9-.6.3-.1.7-.2,1.1-.2s.6,0,.8.1c.2,0,.4.2.6.4.2.2.3.4.3.6,0,.2.1.5.1.8v3.3h-.4c0,0-.2,0-.2,0,0,0,0,0-.1-.2v-.5c-.2.1-.4.2-.5.3-.1,0-.3.2-.4.2-.1,0-.3.1-.5.2s-.3,0-.5,0-.4,0-.6,0-.3-.1-.5-.3c-.1-.1-.2-.3-.3-.4,0-.2-.1-.4-.1-.6s0-.4.2-.6.3-.4.6-.5.6-.3,1-.4c.4,0,.9-.1,1.5-.2v-.4c0-.4,0-.7-.3-.9-.2-.2-.4-.3-.8-.3s-.4,0-.6,0c-.2,0-.3.1-.4.2-.1,0-.2.1-.3.2,0,0-.2,0-.2,0s-.1,0-.2,0c0,0,0,0-.1-.1l-.2-.3ZM229.9,50.1c-.4,0-.8,0-1.1.1-.3,0-.5.1-.7.2-.2,0-.3.2-.4.3s-.1.2-.1.4,0,.3,0,.4c0,0,.1.2.2.2,0,0,.2.1.3.1s.2,0,.3,0,.3,0,.4,0c.1,0,.3,0,.4-.1.1,0,.2-.1.3-.2.1,0,.2-.2.3-.3v-1.1Z"/>
    <path class="st3" d="M235.7,48.1c.2-.3.5-.5.8-.7s.6-.2,1-.2.6,0,.8.2c.2.1.5.3.6.5s.3.5.4.8c0,.3.1.7.1,1.1s0,.7-.2,1.1c-.1.3-.3.6-.4.9s-.4.4-.7.6c-.3.1-.6.2-.9.2s-.6,0-.8-.2c-.2-.1-.4-.3-.6-.5v2.3h-.9v-7h.6c.1,0,.2,0,.2.2v.6ZM235.8,51.2c.2.2.4.4.6.5.2,0,.4.1.7.1.5,0,.9-.2,1.1-.5.3-.3.4-.8.4-1.5s0-.6,0-.9c0-.2-.1-.4-.3-.6-.1-.2-.3-.3-.4-.3-.2,0-.4-.1-.6-.1-.3,0-.6,0-.8.2s-.4.3-.6.6v2.5Z"/>
    <path class="st3" d="M241.5,48.3c.2-.4.4-.6.6-.8s.5-.3.9-.3.2,0,.3,0c.1,0,.2,0,.3.1v.7c0,0-.1.1-.2.1s-.1,0-.2,0c0,0-.2,0-.3,0s-.3,0-.4,0-.2.1-.3.2-.2.2-.3.4c0,.1-.2.3-.2.5v3.3h-.9v-5.2h.5c0,0,.2,0,.2,0s0,.1,0,.2v.8Z"/>
  </g>
  <g>
    <path class="st3" d="M246.4,47.2c.4,0,.7,0,1,.2.3.1.6.3.8.5s.4.5.5.8c.1.3.2.7.2,1.1s0,.8-.2,1.1c-.1.3-.3.6-.5.8s-.5.4-.8.5c-.3.1-.6.2-1,.2s-.7,0-1-.2-.6-.3-.8-.5c-.2-.2-.4-.5-.5-.8-.1-.3-.2-.7-.2-1.1s0-.8.2-1.1.3-.6.5-.8c.2-.2.5-.4.8-.5.3-.1.7-.2,1-.2ZM246.4,51.8c.5,0,.9-.2,1.2-.5s.4-.8.4-1.4-.1-1.1-.4-1.5c-.3-.3-.6-.5-1.2-.5s-.5,0-.7.1c-.2,0-.4.2-.5.4s-.2.4-.3.6c0,.2,0,.5,0,.8,0,.6.1,1.1.4,1.4s.6.5,1.2.5Z"/>
    <path class="st3" d="M254.3,44.9v7.6h-.5c-.1,0-.2,0-.2-.2v-.6c-.3.3-.6.5-.8.6-.3.2-.6.2-1,.2s-.6,0-.8-.2c-.2-.1-.5-.3-.6-.5-.2-.2-.3-.5-.4-.8,0-.3-.1-.7-.1-1.1s0-.7.2-1.1c.1-.3.2-.6.4-.9s.4-.4.7-.6c.3-.1.6-.2.9-.2s.6,0,.8.2c.2.1.4.3.6.5v-2.9h.9ZM253.4,48.5c-.2-.2-.4-.4-.6-.5s-.4-.1-.7-.1c-.5,0-.9.2-1.1.5-.3.3-.4.8-.4,1.5s0,.6,0,.9.1.4.3.6c.1.2.3.3.4.3.2,0,.4.1.6.1.3,0,.6,0,.8-.2s.4-.3.6-.6v-2.5Z"/>
    <path class="st3" d="M260.1,47.3v5.2h-.5c-.1,0-.2,0-.2-.2v-.6c-.3.2-.6.5-.8.6-.3.2-.6.2-1,.2s-.5,0-.8-.1-.4-.2-.5-.4c-.1-.2-.3-.4-.3-.6,0-.2-.1-.5-.1-.8v-3.3h.9v3.3c0,.4,0,.7.3.9.2.2.5.3.8.3s.5,0,.8-.2c.2-.1.5-.3.7-.5v-3.8h.9Z"/>
    <path class="st3" d="M265.4,51.7c-.2.2-.4.4-.7.6-.3.1-.6.2-.9.2v.3c.2,0,.5.2.6.3s.2.3.2.5,0,.2,0,.3c0,0-.1.2-.2.2,0,0-.2.1-.3.1-.1,0-.3,0-.5,0s-.3,0-.4,0c-.1,0-.2,0-.3-.1v-.3c.1,0,.1,0,.2,0s0,0,0,0c0,0,0,0,.1,0,0,0,0,0,.1,0,0,0,.1,0,.2,0,.1,0,.3,0,.3,0,0,0,.1-.1.1-.2,0-.1,0-.2-.2-.3-.1,0-.3,0-.6-.1l.2-.6c-.3,0-.6-.1-.8-.2-.3-.1-.5-.3-.7-.5-.2-.2-.3-.5-.4-.8-.1-.3-.2-.7-.2-1.1s0-.7.2-1.1c.1-.3.3-.6.5-.9.2-.2.5-.4.8-.6s.7-.2,1-.2.7,0,1,.2c.3.1.5.3.7.5l-.2.3s0,0,0,0,0,0-.1,0-.1,0-.2,0c0,0-.1,0-.2-.1,0,0-.2,0-.3-.1s-.3,0-.5,0-.5,0-.7.1c-.2,0-.4.2-.5.4-.1.2-.2.4-.3.6,0,.2-.1.5-.1.8s0,.6.1.8c0,.2.2.5.3.6.1.2.3.3.5.4.2,0,.4.1.6.1s.4,0,.6,0c.1,0,.3-.1.4-.2,0,0,.2-.1.2-.2s.1,0,.2,0,.1,0,.2,0l.3.3Z"/>
    <path class="st3" d="M266.3,48c.3-.3.6-.5.9-.6.3-.1.7-.2,1.1-.2s.6,0,.8.1c.2,0,.4.2.6.4.2.2.3.4.3.6,0,.2.1.5.1.8v3.3h-.4c0,0-.2,0-.2,0,0,0,0,0-.1-.2v-.5c-.2.1-.4.2-.5.3-.1,0-.3.2-.4.2-.1,0-.3.1-.5.2s-.3,0-.5,0-.4,0-.6,0-.3-.1-.5-.3c-.1-.1-.2-.3-.3-.4,0-.2-.1-.4-.1-.6s0-.4.2-.6.3-.4.6-.5.6-.3,1-.4c.4,0,.9-.1,1.5-.2v-.4c0-.4,0-.7-.3-.9-.2-.2-.4-.3-.8-.3s-.4,0-.6,0c-.2,0-.3.1-.4.2-.1,0-.2.1-.3.2,0,0-.2,0-.2,0s-.1,0-.2,0c0,0,0,0-.1-.1l-.2-.3ZM268.8,45.7c.1,0,.2,0,.3-.1,0,0,.1-.2.1-.3h.6c0,.2,0,.3,0,.4,0,.1-.1.3-.2.3,0,0-.2.2-.3.2-.1,0-.2,0-.4,0s-.2,0-.3,0c-.1,0-.2-.1-.3-.2,0,0-.2-.1-.3-.2s-.2,0-.2,0c-.2,0-.4.2-.4.5h-.6c0-.2,0-.3,0-.5,0-.1.1-.3.2-.4s.2-.2.3-.2c.1,0,.2,0,.4,0s.2,0,.3,0,.2.1.3.2c0,0,.2.1.3.2,0,0,.2,0,.2,0ZM269.3,50.1c-.4,0-.8,0-1.1.1-.3,0-.5.1-.7.2-.2,0-.3.2-.4.3s-.1.2-.1.4,0,.3,0,.4c0,0,.1.2.2.2,0,0,.2.1.3.1s.2,0,.3,0,.3,0,.4,0c.1,0,.3,0,.4-.1.1,0,.2-.1.3-.2.1,0,.2-.2.3-.3v-1.1Z"/>
    <path class="st3" d="M273.7,47.2c.4,0,.7,0,1,.2.3.1.6.3.8.5s.4.5.5.8c.1.3.2.7.2,1.1s0,.8-.2,1.1c-.1.3-.3.6-.5.8s-.5.4-.8.5c-.3.1-.6.2-1,.2s-.7,0-1-.2-.6-.3-.8-.5c-.2-.2-.4-.5-.5-.8-.1-.3-.2-.7-.2-1.1s0-.8.2-1.1.3-.6.5-.8c.2-.2.5-.4.8-.5.3-.1.7-.2,1-.2ZM273.7,51.8c.5,0,.9-.2,1.2-.5s.4-.8.4-1.4-.1-1.1-.4-1.5c-.3-.3-.6-.5-1.2-.5s-.5,0-.7.1c-.2,0-.4.2-.5.4s-.2.4-.3.6c0,.2,0,.5,0,.8,0,.6.1,1.1.4,1.4s.6.5,1.2.5Z"/>
    <path class="st3" d="M284.3,44.9v7.6h-.5c-.1,0-.2,0-.2-.2v-.6c-.3.3-.6.5-.8.6-.3.2-.6.2-1,.2s-.6,0-.8-.2c-.2-.1-.5-.3-.6-.5-.2-.2-.3-.5-.4-.8,0-.3-.1-.7-.1-1.1s0-.7.2-1.1c.1-.3.2-.6.4-.9s.4-.4.7-.6c.3-.1.6-.2.9-.2s.6,0,.8.2c.2.1.4.3.6.5v-2.9h.9ZM283.4,48.5c-.2-.2-.4-.4-.6-.5s-.4-.1-.7-.1c-.5,0-.9.2-1.1.5-.3.3-.4.8-.4,1.5s0,.6,0,.9.1.4.3.6c.1.2.3.3.4.3.2,0,.4.1.6.1.3,0,.6,0,.8-.2s.4-.3.6-.6v-2.5Z"/>
    <path class="st3" d="M290,51.7c-.1.1-.2.3-.4.4-.2.1-.3.2-.5.2-.2,0-.4.1-.6.1-.2,0-.4,0-.6,0-.4,0-.7,0-1-.2-.3-.1-.6-.3-.8-.5-.2-.2-.4-.5-.5-.9-.1-.3-.2-.7-.2-1.2s0-.7.2-1c.1-.3.3-.6.5-.8s.5-.4.8-.5c.3-.1.6-.2,1-.2s.6,0,.9.2.5.3.7.5.3.4.5.7c.1.3.2.6.2,1s0,.2,0,.3c0,0,0,0-.2,0h-3.5c0,.3,0,.6.1.9,0,.2.2.4.3.6.1.2.3.3.5.4s.4.1.7.1.4,0,.6,0c.2,0,.3-.1.4-.2s.2-.1.3-.2c0,0,.1,0,.2,0s.1,0,.2,0l.3.3ZM289.3,49.3c0-.2,0-.4,0-.6,0-.2-.1-.3-.3-.5s-.3-.2-.4-.3c-.2,0-.4-.1-.6-.1-.4,0-.8.1-1,.4-.3.3-.4.6-.5,1.1h2.9Z"/>
    <path class="st3" d="M298.1,51.7c-.1.1-.2.3-.4.4-.2.1-.3.2-.5.2-.2,0-.4.1-.6.1-.2,0-.4,0-.6,0-.4,0-.7,0-1-.2-.3-.1-.6-.3-.8-.5-.2-.2-.4-.5-.5-.9-.1-.3-.2-.7-.2-1.2s0-.7.2-1c.1-.3.3-.6.5-.8s.5-.4.8-.5c.3-.1.6-.2,1-.2s.6,0,.9.2.5.3.7.5.3.4.5.7c.1.3.2.6.2,1s0,.2,0,.3c0,0,0,0-.2,0h-3.5c0,.3,0,.6.1.9,0,.2.2.4.3.6.1.2.3.3.5.4s.4.1.7.1.4,0,.6,0c.2,0,.3-.1.4-.2s.2-.1.3-.2c0,0,.1,0,.2,0s.1,0,.2,0l.3.3ZM297.3,49.3c0-.2,0-.4,0-.6,0-.2-.1-.3-.3-.5s-.3-.2-.4-.3c-.2,0-.4-.1-.6-.1-.4,0-.8.1-1,.4-.3.3-.4.6-.5,1.1h2.9Z"/>
    <path class="st3" d="M300.1,48c.1-.1.2-.2.4-.3s.3-.2.4-.3c.1,0,.3-.1.5-.2.2,0,.3,0,.5,0,.3,0,.5,0,.8.1.2,0,.4.2.5.4.1.2.3.4.3.6,0,.2.1.5.1.8v3.3h-.9v-3.3c0-.4,0-.7-.3-.9-.2-.2-.5-.3-.8-.3s-.5,0-.8.2c-.2.1-.5.3-.7.5v3.8h-.9v-5.2h.6c.1,0,.2,0,.2.2v.6Z"/>
    <path class="st3" d="M309.2,51.7c-.1.1-.2.3-.4.4-.2.1-.3.2-.5.2-.2,0-.4.1-.6.1-.2,0-.4,0-.6,0-.4,0-.7,0-1-.2-.3-.1-.6-.3-.8-.5-.2-.2-.4-.5-.5-.9-.1-.3-.2-.7-.2-1.2s0-.7.2-1c.1-.3.3-.6.5-.8s.5-.4.8-.5c.3-.1.6-.2,1-.2s.6,0,.9.2.5.3.7.5.3.4.5.7c.1.3.2.6.2,1s0,.2,0,.3c0,0,0,0-.2,0h-3.5c0,.3,0,.6.1.9,0,.2.2.4.3.6.1.2.3.3.5.4s.4.1.7.1.4,0,.6,0c.2,0,.3-.1.4-.2s.2-.1.3-.2c0,0,.1,0,.2,0s.1,0,.2,0l.3.3ZM308.5,49.3c0-.2,0-.4,0-.6,0-.2-.1-.3-.3-.5s-.3-.2-.4-.3c-.2,0-.4-.1-.6-.1-.4,0-.8.1-1,.4-.3.3-.4.6-.5,1.1h2.9Z"/>
    <path class="st3" d="M311.3,48.3c.2-.4.4-.6.6-.8s.5-.3.9-.3.2,0,.3,0c.1,0,.2,0,.3.1v.7c0,0-.1.1-.2.1s-.1,0-.2,0c0,0-.2,0-.3,0s-.3,0-.4,0-.2.1-.3.2-.2.2-.3.4c0,.1-.2.3-.2.5v3.3h-.9v-5.2h.5c0,0,.2,0,.2,0s0,.1,0,.2v.8Z"/>
  </g>
  <g>
    <path class="st3" d="M318.5,47.5v.3c0,.1,0,.2-.2.2h-.6c.1.3.2.6.2.8s0,.5-.1.7-.2.4-.4.5c-.2.1-.4.3-.6.3-.2,0-.5.1-.8.1s-.5,0-.7,0c-.1,0-.2.1-.3.2,0,0,0,.2,0,.2,0,.1,0,.2.2.3.1,0,.2.1.4.1.2,0,.4,0,.6,0s.4,0,.6,0c.2,0,.4,0,.6,0,.2,0,.4,0,.6.2.2,0,.3.2.4.4.1.2.2.3.2.6s0,.4-.2.6c-.1.2-.3.4-.5.6-.2.2-.5.3-.8.4-.3,0-.6.1-1,.1s-.7,0-1-.1c-.3,0-.5-.2-.7-.3-.2-.1-.3-.3-.4-.4,0-.2-.1-.3-.1-.5,0-.3,0-.5.2-.7s.4-.3.7-.4c-.2,0-.3-.2-.4-.3,0-.1-.1-.3-.1-.5s0-.2,0-.2,0-.2.1-.2.1-.2.2-.2c0,0,.2-.1.3-.2-.3-.1-.5-.3-.6-.6-.1-.2-.2-.5-.2-.8s0-.5.1-.7.2-.4.4-.5c.2-.1.4-.3.6-.3.2,0,.5-.1.8-.1s.4,0,.6,0c.2,0,.4.1.5.2h1.4ZM317.5,52.8c0-.1,0-.2-.1-.3,0,0-.2-.1-.3-.2-.1,0-.3,0-.4,0-.2,0-.3,0-.5,0-.2,0-.4,0-.5,0-.2,0-.4,0-.5,0-.2,0-.3.2-.5.3-.1.1-.2.3-.2.5s0,.2,0,.3c0,.1.2.2.3.3.1,0,.3.1.5.2.2,0,.4,0,.7,0s.5,0,.7,0,.4-.1.5-.2c.1,0,.2-.2.3-.3s.1-.2.1-.4ZM315.9,49.9c.2,0,.3,0,.5,0,.1,0,.3-.1.4-.2,0,0,.2-.2.2-.3s0-.3,0-.4c0-.3,0-.6-.3-.8-.2-.2-.5-.3-.8-.3s-.7,0-.8.3c-.2.2-.3.4-.3.8s0,.3,0,.4.1.2.2.3c0,0,.2.2.4.2.1,0,.3,0,.5,0Z"/>
    <path class="st3" d="M320.6,45.6c0,0,0,.2,0,.2s0,.1-.1.2c0,0-.1.1-.2.1,0,0-.2,0-.3,0s-.2,0-.2,0c0,0-.1,0-.2-.1,0,0-.1-.1-.1-.2s0-.2,0-.2,0-.2,0-.3,0-.2.1-.2c0,0,.1-.1.2-.1s.2,0,.2,0,.2,0,.3,0c0,0,.2,0,.2.1,0,0,.1.1.1.2s0,.2,0,.3ZM320.4,47.3v5.2h-.9v-5.2h.9Z"/>
    <path class="st3" d="M321.8,48c.3-.3.6-.5.9-.6.3-.1.7-.2,1.1-.2s.6,0,.8.1c.2,0,.4.2.6.4.2.2.3.4.3.6,0,.2.1.5.1.8v3.3h-.4c0,0-.2,0-.2,0,0,0,0,0-.1-.2v-.5c-.2.1-.4.2-.5.3-.1,0-.3.2-.4.2-.1,0-.3.1-.5.2s-.3,0-.5,0-.4,0-.6,0-.3-.1-.5-.3c-.1-.1-.2-.3-.3-.4,0-.2-.1-.4-.1-.6s0-.4.2-.6.3-.4.6-.5.6-.3,1-.4c.4,0,.9-.1,1.5-.2v-.4c0-.4,0-.7-.3-.9-.2-.2-.4-.3-.8-.3s-.4,0-.6,0c-.2,0-.3.1-.4.2-.1,0-.2.1-.3.2,0,0-.2,0-.2,0s-.1,0-.2,0c0,0,0,0-.1-.1l-.2-.3ZM324.7,50.1c-.4,0-.8,0-1.1.1-.3,0-.5.1-.7.2-.2,0-.3.2-.4.3s-.1.2-.1.4,0,.3,0,.4c0,0,.1.2.2.2,0,0,.2.1.3.1s.2,0,.3,0,.3,0,.4,0c.1,0,.3,0,.4-.1.1,0,.2-.1.3-.2.1,0,.2-.2.3-.3v-1.1Z"/>
    <path class="st3" d="M330.5,48.3c.2-.4.4-.6.6-.8s.5-.3.9-.3.2,0,.3,0c.1,0,.2,0,.3.1v.7c0,0-.1.1-.2.1s-.1,0-.2,0c0,0-.2,0-.3,0s-.3,0-.4,0-.2.1-.3.2-.2.2-.3.4c0,.1-.2.3-.2.5v3.3h-.9v-5.2h.5c0,0,.2,0,.2,0s0,.1,0,.2v.8Z"/>
  </g>
  <g>
    <path class="st3" d="M337.4,51.7c-.1.1-.2.3-.4.4-.2.1-.3.2-.5.2-.2,0-.4.1-.6.1-.2,0-.4,0-.6,0-.4,0-.7,0-1-.2-.3-.1-.6-.3-.8-.5-.2-.2-.4-.5-.5-.9-.1-.3-.2-.7-.2-1.2s0-.7.2-1c.1-.3.3-.6.5-.8s.5-.4.8-.5c.3-.1.6-.2,1-.2s.6,0,.9.2.5.3.7.5.3.4.5.7c.1.3.2.6.2,1s0,.2,0,.3c0,0,0,0-.2,0h-3.5c0,.3,0,.6.1.9,0,.2.2.4.3.6.1.2.3.3.5.4s.4.1.7.1.4,0,.6,0c.2,0,.3-.1.4-.2s.2-.1.3-.2c0,0,.1,0,.2,0s.1,0,.2,0l.3.3ZM336.7,49.3c0-.2,0-.4,0-.6,0-.2-.1-.3-.3-.5s-.3-.2-.4-.3c-.2,0-.4-.1-.6-.1-.4,0-.8.1-1,.4-.3.3-.4.6-.5,1.1h2.9Z"/>
    <path class="st3" d="M343,47.5v.3c0,.1,0,.2-.2.2h-.6c.1.3.2.6.2.8s0,.5-.1.7-.2.4-.4.5c-.2.1-.4.3-.6.3-.2,0-.5.1-.8.1s-.5,0-.7,0c-.1,0-.2.1-.3.2,0,0,0,.2,0,.2,0,.1,0,.2.2.3.1,0,.2.1.4.1.2,0,.4,0,.6,0s.4,0,.6,0c.2,0,.4,0,.6,0,.2,0,.4,0,.6.2.2,0,.3.2.4.4.1.2.2.3.2.6s0,.4-.2.6c-.1.2-.3.4-.5.6-.2.2-.5.3-.8.4-.3,0-.6.1-1,.1s-.7,0-1-.1c-.3,0-.5-.2-.7-.3-.2-.1-.3-.3-.4-.4,0-.2-.1-.3-.1-.5,0-.3,0-.5.2-.7s.4-.3.7-.4c-.2,0-.3-.2-.4-.3,0-.1-.1-.3-.1-.5s0-.2,0-.2,0-.2.1-.2.1-.2.2-.2c0,0,.2-.1.3-.2-.3-.1-.5-.3-.6-.6-.1-.2-.2-.5-.2-.8s0-.5.1-.7.2-.4.4-.5c.2-.1.4-.3.6-.3.2,0,.5-.1.8-.1s.4,0,.6,0c.2,0,.4.1.5.2h1.4ZM342.1,52.8c0-.1,0-.2-.1-.3,0,0-.2-.1-.3-.2-.1,0-.3,0-.4,0-.2,0-.3,0-.5,0-.2,0-.4,0-.5,0-.2,0-.4,0-.5,0-.2,0-.3.2-.5.3-.1.1-.2.3-.2.5s0,.2,0,.3c0,.1.2.2.3.3.1,0,.3.1.5.2.2,0,.4,0,.7,0s.5,0,.7,0,.4-.1.5-.2c.1,0,.2-.2.3-.3s.1-.2.1-.4ZM340.4,49.9c.2,0,.3,0,.5,0,.1,0,.3-.1.4-.2,0,0,.2-.2.2-.3s0-.3,0-.4c0-.3,0-.6-.3-.8-.2-.2-.5-.3-.8-.3s-.7,0-.8.3c-.2.2-.3.4-.3.8s0,.3,0,.4.1.2.2.3c0,0,.2.2.4.2.1,0,.3,0,.5,0Z"/>
    <path class="st3" d="M348.2,47.3v5.2h-.5c-.1,0-.2,0-.2-.2v-.6c-.3.2-.6.5-.8.6-.3.2-.6.2-1,.2s-.5,0-.8-.1-.4-.2-.5-.4c-.1-.2-.3-.4-.3-.6,0-.2-.1-.5-.1-.8v-3.3h.9v3.3c0,.4,0,.7.3.9.2.2.5.3.8.3s.5,0,.8-.2c.2-.1.5-.3.7-.5v-3.8h.9Z"/>
    <path class="st3" d="M350.6,44.9v7.6h-.9v-7.6h.9Z"/>
    <path class="st3" d="M352,48c.3-.3.6-.5.9-.6.3-.1.7-.2,1.1-.2s.6,0,.8.1c.2,0,.4.2.6.4.2.2.3.4.3.6,0,.2.1.5.1.8v3.3h-.4c0,0-.2,0-.2,0,0,0,0,0-.1-.2v-.5c-.2.1-.4.2-.5.3-.1,0-.3.2-.4.2-.1,0-.3.1-.5.2s-.3,0-.5,0-.4,0-.6,0-.3-.1-.5-.3c-.1-.1-.2-.3-.3-.4,0-.2-.1-.4-.1-.6s0-.4.2-.6.3-.4.6-.5.6-.3,1-.4c.4,0,.9-.1,1.5-.2v-.4c0-.4,0-.7-.3-.9-.2-.2-.4-.3-.8-.3s-.4,0-.6,0c-.2,0-.3.1-.4.2-.1,0-.2.1-.3.2,0,0-.2,0-.2,0s-.1,0-.2,0c0,0,0,0-.1-.1l-.2-.3ZM354.9,50.1c-.4,0-.8,0-1.1.1-.3,0-.5.1-.7.2-.2,0-.3.2-.4.3s-.1.2-.1.4,0,.3,0,.4c0,0,.1.2.2.2,0,0,.2.1.3.1s.2,0,.3,0,.3,0,.4,0c.1,0,.3,0,.4-.1.1,0,.2-.1.3-.2.1,0,.2-.2.3-.3v-1.1Z"/>
    <path class="st3" d="M358.1,48c.1-.1.2-.2.4-.3s.3-.2.4-.3c.1,0,.3-.1.5-.2.2,0,.3,0,.5,0,.3,0,.5,0,.8.1.2,0,.4.2.5.4.1.2.3.4.3.6,0,.2.1.5.1.8v3.3h-.9v-3.3c0-.4,0-.7-.3-.9-.2-.2-.5-.3-.8-.3s-.5,0-.8.2c-.2.1-.5.3-.7.5v3.8h-.9v-5.2h.6c.1,0,.2,0,.2.2v.6Z"/>
    <path class="st3" d="M367.3,44.9v7.6h-.5c-.1,0-.2,0-.2-.2v-.6c-.3.3-.6.5-.8.6-.3.2-.6.2-1,.2s-.6,0-.8-.2c-.2-.1-.5-.3-.6-.5-.2-.2-.3-.5-.4-.8,0-.3-.1-.7-.1-1.1s0-.7.2-1.1c.1-.3.2-.6.4-.9s.4-.4.7-.6c.3-.1.6-.2.9-.2s.6,0,.8.2c.2.1.4.3.6.5v-2.9h.9ZM366.4,48.5c-.2-.2-.4-.4-.6-.5s-.4-.1-.7-.1c-.5,0-.9.2-1.1.5-.3.3-.4.8-.4,1.5s0,.6,0,.9.1.4.3.6c.1.2.3.3.4.3.2,0,.4.1.6.1.3,0,.6,0,.8-.2s.4-.3.6-.6v-2.5Z"/>
    <path class="st3" d="M370.9,47.2c.4,0,.7,0,1,.2.3.1.6.3.8.5s.4.5.5.8c.1.3.2.7.2,1.1s0,.8-.2,1.1c-.1.3-.3.6-.5.8s-.5.4-.8.5c-.3.1-.6.2-1,.2s-.7,0-1-.2-.6-.3-.8-.5c-.2-.2-.4-.5-.5-.8-.1-.3-.2-.7-.2-1.1s0-.8.2-1.1.3-.6.5-.8c.2-.2.5-.4.8-.5.3-.1.7-.2,1-.2ZM370.9,51.8c.5,0,.9-.2,1.2-.5s.4-.8.4-1.4-.1-1.1-.4-1.5c-.3-.3-.6-.5-1.2-.5s-.5,0-.7.1c-.2,0-.4.2-.5.4s-.2.4-.3.6c0,.2,0,.5,0,.8,0,.6.1,1.1.4,1.4s.6.5,1.2.5Z"/>
    <path class="st3" d="M379.4,47.2c.4,0,.7,0,1,.2.3.1.6.3.8.5s.4.5.5.8c.1.3.2.7.2,1.1s0,.8-.2,1.1c-.1.3-.3.6-.5.8s-.5.4-.8.5c-.3.1-.6.2-1,.2s-.7,0-1-.2-.6-.3-.8-.5c-.2-.2-.4-.5-.5-.8-.1-.3-.2-.7-.2-1.1s0-.8.2-1.1.3-.6.5-.8c.2-.2.5-.4.8-.5.3-.1.7-.2,1-.2ZM379.4,51.8c.5,0,.9-.2,1.2-.5s.4-.8.4-1.4-.1-1.1-.4-1.5c-.3-.3-.6-.5-1.2-.5s-.5,0-.7.1c-.2,0-.4.2-.5.4s-.2.4-.3.6c0,.2,0,.5,0,.8,0,.6.1,1.1.4,1.4s.6.5,1.2.5Z"/>
    <path class="st3" d="M385.7,52.5v-5.2h.6c.1,0,.2,0,.2.2v.5c.3-.2.5-.4.7-.6.2-.2.5-.2.8-.2s.6,0,.9.3.4.5.5.8c0-.2.2-.4.3-.5s.3-.3.4-.3c.1,0,.3-.2.5-.2s.3,0,.5,0c.3,0,.5,0,.7.1.2,0,.4.2.5.4s.3.4.3.6c0,.2.1.5.1.8v3.3h-.9v-3.3c0-.4,0-.7-.3-.9-.2-.2-.4-.3-.8-.3s-.3,0-.4,0c-.1,0-.3.1-.4.2-.1.1-.2.2-.2.4,0,.2,0,.3,0,.5v3.3h-.9v-3.3c0-.4,0-.7-.3-.9-.2-.2-.4-.3-.7-.3s-.4,0-.6.2c-.2.1-.4.3-.5.5v3.9h-.9Z"/>
    <path class="st3" d="M398.4,51.7c-.1.1-.2.3-.4.4-.2.1-.3.2-.5.2-.2,0-.4.1-.6.1-.2,0-.4,0-.6,0-.4,0-.7,0-1-.2-.3-.1-.6-.3-.8-.5-.2-.2-.4-.5-.5-.9-.1-.3-.2-.7-.2-1.2s0-.7.2-1c.1-.3.3-.6.5-.8s.5-.4.8-.5c.3-.1.6-.2,1-.2s.6,0,.9.2.5.3.7.5.3.4.5.7c.1.3.2.6.2,1s0,.2,0,.3c0,0,0,0-.2,0h-3.5c0,.3,0,.6.1.9,0,.2.2.4.3.6.1.2.3.3.5.4s.4.1.7.1.4,0,.6,0c.2,0,.3-.1.4-.2s.2-.1.3-.2c0,0,.1,0,.2,0s.1,0,.2,0l.3.3ZM397.6,49.3c0-.2,0-.4,0-.6,0-.2-.1-.3-.3-.5s-.3-.2-.4-.3c-.2,0-.4-.1-.6-.1-.4,0-.8.1-1,.4-.3.3-.4.6-.5,1.1h2.9Z"/>
    <path class="st3" d="M401.2,52.6c-.4,0-.7-.1-.9-.3-.2-.2-.3-.6-.3-1v-3.2h-.6c0,0-.1,0-.1,0,0,0,0,0,0-.2v-.4h.9c0-.1.2-1.7.2-1.7,0,0,0,0,0-.1,0,0,0,0,.1,0h.5v1.8h1.5v.7h-1.5v3.1c0,.2,0,.4.2.5.1.1.2.2.4.2s.2,0,.2,0,.1,0,.2,0c0,0,0,0,.1,0,0,0,0,0,0,0,0,0,0,0,.1,0l.3.4c-.2.1-.3.3-.6.3-.2,0-.5.1-.7.1Z"/>
    <path class="st3" d="M403.1,48c.3-.3.6-.5.9-.6.3-.1.7-.2,1.1-.2s.6,0,.8.1c.2,0,.4.2.6.4.2.2.3.4.3.6,0,.2.1.5.1.8v3.3h-.4c0,0-.2,0-.2,0,0,0,0,0-.1-.2v-.5c-.2.1-.4.2-.5.3-.1,0-.3.2-.4.2-.1,0-.3.1-.5.2s-.3,0-.5,0-.4,0-.6,0-.3-.1-.5-.3c-.1-.1-.2-.3-.3-.4,0-.2-.1-.4-.1-.6s0-.4.2-.6.3-.4.6-.5.6-.3,1-.4c.4,0,.9-.1,1.5-.2v-.4c0-.4,0-.7-.3-.9-.2-.2-.4-.3-.8-.3s-.4,0-.6,0c-.2,0-.3.1-.4.2-.1,0-.2.1-.3.2,0,0-.2,0-.2,0s-.1,0-.2,0c0,0,0,0-.1-.1l-.2-.3ZM406.1,50.1c-.4,0-.8,0-1.1.1-.3,0-.5.1-.7.2-.2,0-.3.2-.4.3s-.1.2-.1.4,0,.3,0,.4c0,0,.1.2.2.2,0,0,.2.1.3.1s.2,0,.3,0,.3,0,.4,0c.1,0,.3,0,.4-.1.1,0,.2-.1.3-.2.1,0,.2-.2.3-.3v-1.1Z"/>
    <path class="st3" d="M409.3,48c.2-.3.5-.5.7-.6s.6-.2,1-.2.6,0,.8.2.5.3.6.5c.2.2.3.5.4.8,0,.3.1.7.1,1.1s0,.8-.2,1.2c-.1.3-.3.6-.4.9s-.4.4-.7.6c-.3.1-.6.2-.9.2s-.6,0-.9-.2c-.2-.1-.4-.3-.6-.5v.5c0,.1-.2.2-.3.2h-.6v-7.6h.9v3.1ZM409.3,51.2c.2.2.4.4.6.5.2,0,.4.1.7.1.5,0,.9-.2,1.1-.5.3-.3.4-.9.4-1.5s-.1-1.1-.3-1.4c-.2-.3-.6-.5-1-.5s-.6,0-.8.2c-.2.1-.4.3-.6.6v2.5Z"/>
    <path class="st3" d="M416.3,47.2c.4,0,.7,0,1,.2.3.1.6.3.8.5s.4.5.5.8c.1.3.2.7.2,1.1s0,.8-.2,1.1c-.1.3-.3.6-.5.8s-.5.4-.8.5c-.3.1-.6.2-1,.2s-.7,0-1-.2-.6-.3-.8-.5c-.2-.2-.4-.5-.5-.8-.1-.3-.2-.7-.2-1.1s0-.8.2-1.1.3-.6.5-.8c.2-.2.5-.4.8-.5.3-.1.7-.2,1-.2ZM416.3,51.8c.5,0,.9-.2,1.2-.5s.4-.8.4-1.4-.1-1.1-.4-1.5c-.3-.3-.6-.5-1.2-.5s-.5,0-.7.1c-.2,0-.4.2-.5.4s-.2.4-.3.6c0,.2,0,.5,0,.8,0,.6.1,1.1.4,1.4s.6.5,1.2.5Z"/>
    <path class="st3" d="M420.9,44.9v7.6h-.9v-7.6h.9Z"/>
    <path class="st3" d="M423.6,45.6c0,0,0,.2,0,.2s0,.1-.1.2c0,0-.1.1-.2.1,0,0-.2,0-.3,0s-.2,0-.2,0c0,0-.1,0-.2-.1,0,0-.1-.1-.1-.2s0-.2,0-.2,0-.2,0-.3,0-.2.1-.2c0,0,.1-.1.2-.1s.2,0,.2,0,.2,0,.3,0c0,0,.2,0,.2.1,0,0,.1.1.1.2s0,.2,0,.3ZM423.4,47.3v5.2h-.9v-5.2h.9Z"/>
    <path class="st3" d="M427.9,48.1c0,0-.1.1-.2.1s-.1,0-.2,0c0,0-.1,0-.2-.1,0,0-.2,0-.3-.1-.1,0-.3,0-.5,0s-.3,0-.4,0c-.1,0-.2,0-.3.2,0,0-.2.1-.2.2,0,0,0,.2,0,.3s0,.2.1.3c0,0,.2.2.3.2s.3.1.4.2.3.1.5.2c.2,0,.3.1.5.2.2,0,.3.2.4.3.1.1.2.2.3.4,0,.1.1.3.1.5s0,.5-.1.7-.2.4-.4.5c-.2.1-.4.3-.6.4-.2,0-.5.1-.8.1s-.7,0-1-.2-.5-.3-.8-.5l.2-.4s0,0,0-.1c0,0,0,0,.1,0s.1,0,.2,0c0,0,.2.1.2.2,0,0,.2.1.4.2.1,0,.3,0,.5,0s.3,0,.5,0c.1,0,.2-.1.3-.2,0,0,.2-.2.2-.3,0-.1,0-.2,0-.3s0-.3-.1-.4-.2-.2-.3-.2-.3-.1-.4-.2c-.2,0-.3-.1-.5-.2-.2,0-.3-.1-.5-.2-.2,0-.3-.2-.4-.3s-.2-.2-.3-.4c0-.2-.1-.3-.1-.6s0-.4.1-.6c0-.2.2-.3.4-.5.2-.1.4-.2.6-.3.2,0,.5-.1.8-.1s.7,0,.9.2c.3.1.5.3.7.4l-.2.3Z"/>
    <path class="st3" d="M429.3,52.5v-5.2h.6c.1,0,.2,0,.2.2v.5c.3-.2.5-.4.7-.6.2-.2.5-.2.8-.2s.6,0,.9.3.4.5.5.8c0-.2.2-.4.3-.5s.3-.3.4-.3c.1,0,.3-.2.5-.2s.3,0,.5,0c.3,0,.5,0,.7.1.2,0,.4.2.5.4s.3.4.3.6c0,.2.1.5.1.8v3.3h-.9v-3.3c0-.4,0-.7-.3-.9-.2-.2-.4-.3-.8-.3s-.3,0-.4,0c-.1,0-.3.1-.4.2-.1.1-.2.2-.2.4,0,.2,0,.3,0,.5v3.3h-.9v-3.3c0-.4,0-.7-.3-.9-.2-.2-.4-.3-.7-.3s-.4,0-.6.2c-.2.1-.4.3-.5.5v3.9h-.9Z"/>
    <path class="st3" d="M440,47.2c.4,0,.7,0,1,.2.3.1.6.3.8.5s.4.5.5.8c.1.3.2.7.2,1.1s0,.8-.2,1.1c-.1.3-.3.6-.5.8s-.5.4-.8.5c-.3.1-.6.2-1,.2s-.7,0-1-.2-.6-.3-.8-.5c-.2-.2-.4-.5-.5-.8-.1-.3-.2-.7-.2-1.1s0-.8.2-1.1.3-.6.5-.8c.2-.2.5-.4.8-.5.3-.1.7-.2,1-.2ZM440,51.8c.5,0,.9-.2,1.2-.5s.4-.8.4-1.4-.1-1.1-.4-1.5c-.3-.3-.6-.5-1.2-.5s-.5,0-.7.1c-.2,0-.4.2-.5.4s-.2.4-.3.6c0,.2,0,.5,0,.8,0,.6.1,1.1.4,1.4s.6.5,1.2.5Z"/>
    <path class="st3" d="M449.9,48.2s0,0,0,0,0,0-.1,0-.1,0-.2,0c0,0-.1,0-.2-.1,0,0-.2,0-.3-.1s-.3,0-.5,0-.5,0-.7.1c-.2,0-.4.2-.5.4-.1.2-.2.4-.3.6,0,.2-.1.5-.1.8s0,.6.1.8c0,.2.2.5.3.6.1.2.3.3.5.4.2,0,.4.1.6.1s.4,0,.6,0c.1,0,.3-.1.4-.2,0,0,.2-.1.2-.2s.1,0,.2,0,.1,0,.2,0l.3.3c-.1.1-.2.3-.4.4-.1,0-.3.2-.5.2s-.3.1-.5.1c-.2,0-.4,0-.6,0-.3,0-.6,0-.9-.2-.3-.1-.5-.3-.7-.5s-.4-.5-.5-.8c-.1-.3-.2-.7-.2-1.1s0-.7.2-1.1c.1-.3.3-.6.5-.9.2-.2.5-.4.8-.6s.7-.2,1-.2.7,0,1,.2c.3.1.5.3.7.5l-.2.3Z"/>
    <path class="st3" d="M455.4,51.7c-.1.1-.2.3-.4.4-.2.1-.3.2-.5.2-.2,0-.4.1-.6.1-.2,0-.4,0-.6,0-.4,0-.7,0-1-.2-.3-.1-.6-.3-.8-.5-.2-.2-.4-.5-.5-.9-.1-.3-.2-.7-.2-1.2s0-.7.2-1c.1-.3.3-.6.5-.8s.5-.4.8-.5c.3-.1.6-.2,1-.2s.6,0,.9.2.5.3.7.5.3.4.5.7c.1.3.2.6.2,1s0,.2,0,.3c0,0,0,0-.2,0h-3.5c0,.3,0,.6.1.9,0,.2.2.4.3.6.1.2.3.3.5.4s.4.1.7.1.4,0,.6,0c.2,0,.3-.1.4-.2s.2-.1.3-.2c0,0,.1,0,.2,0s.1,0,.2,0l.3.3ZM454.7,49.3c0-.2,0-.4,0-.6,0-.2-.1-.3-.3-.5s-.3-.2-.4-.3c-.2,0-.4-.1-.6-.1-.4,0-.8.1-1,.4-.3.3-.4.6-.5,1.1h2.9Z"/>
    <path class="st3" d="M457.6,44.9v7.6h-.9v-7.6h.9Z"/>
    <path class="st3" d="M463.3,47.3v5.2h-.5c-.1,0-.2,0-.2-.2v-.6c-.3.2-.6.5-.8.6-.3.2-.6.2-1,.2s-.5,0-.8-.1-.4-.2-.5-.4c-.1-.2-.3-.4-.3-.6,0-.2-.1-.5-.1-.8v-3.3h.9v3.3c0,.4,0,.7.3.9.2.2.5.3.8.3s.5,0,.8-.2c.2-.1.5-.3.7-.5v-3.8h.9Z"/>
    <path class="st3" d="M465.7,44.9v7.6h-.9v-7.6h.9Z"/>
    <path class="st3" d="M467.1,48c.3-.3.6-.5.9-.6.3-.1.7-.2,1.1-.2s.6,0,.8.1c.2,0,.4.2.6.4.2.2.3.4.3.6,0,.2.1.5.1.8v3.3h-.4c0,0-.2,0-.2,0,0,0,0,0-.1-.2v-.5c-.2.1-.4.2-.5.3-.1,0-.3.2-.4.2-.1,0-.3.1-.5.2s-.3,0-.5,0-.4,0-.6,0-.3-.1-.5-.3c-.1-.1-.2-.3-.3-.4,0-.2-.1-.4-.1-.6s0-.4.2-.6.3-.4.6-.5.6-.3,1-.4c.4,0,.9-.1,1.5-.2v-.4c0-.4,0-.7-.3-.9-.2-.2-.4-.3-.8-.3s-.4,0-.6,0c-.2,0-.3.1-.4.2-.1,0-.2.1-.3.2,0,0-.2,0-.2,0s-.1,0-.2,0c0,0,0,0-.1-.1l-.2-.3ZM470,50.1c-.4,0-.8,0-1.1.1-.3,0-.5.1-.7.2-.2,0-.3.2-.4.3s-.1.2-.1.4,0,.3,0,.4c0,0,.1.2.2.2,0,0,.2.1.3.1s.2,0,.3,0,.3,0,.4,0c.1,0,.3,0,.4-.1.1,0,.2-.1.3-.2.1,0,.2-.2.3-.3v-1.1Z"/>
    <path class="st3" d="M473.2,48.3c.2-.4.4-.6.6-.8s.5-.3.9-.3.2,0,.3,0c.1,0,.2,0,.3.1v.7c0,0-.1.1-.2.1s-.1,0-.2,0c0,0-.2,0-.3,0s-.3,0-.4,0-.2.1-.3.2-.2.2-.3.4c0,.1-.2.3-.2.5v3.3h-.9v-5.2h.5c0,0,.2,0,.2,0s0,.1,0,.2v.8Z"/>
  </g>
  <path class="st3" d="M475.4,51.9c0,0,0-.2,0-.3,0,0,0-.1.1-.2,0,0,.1-.1.2-.1s.2,0,.3,0,.2,0,.3,0,.1,0,.2.1c0,0,.1.1.1.2,0,0,0,.2,0,.3s0,.2,0,.3c0,0,0,.1-.1.2,0,0-.1.1-.2.1s-.2,0-.3,0-.2,0-.3,0-.1,0-.2-.1c0,0-.1-.1-.1-.2,0,0,0-.2,0-.3Z"/>
  <path class="st3" d="M12.4,75.1v7.4h-1v-3.4h-4v3.4h-1v-7.4h1v3.3h4v-3.3h1Z"/>
  <g>
    <path class="st3" d="M16.1,77.2c.4,0,.7,0,1,.2.3.1.6.3.8.5s.4.5.5.8c.1.3.2.7.2,1.1s0,.8-.2,1.1c-.1.3-.3.6-.5.8s-.5.4-.8.5c-.3.1-.6.2-1,.2s-.7,0-1-.2c-.3-.1-.6-.3-.8-.5-.2-.2-.4-.5-.5-.8-.1-.3-.2-.7-.2-1.1s0-.8.2-1.1.3-.6.5-.8c.2-.2.5-.4.8-.5.3-.1.7-.2,1-.2ZM16.1,81.8c.5,0,.9-.2,1.2-.5s.4-.8.4-1.4-.1-1.1-.4-1.5-.6-.5-1.2-.5-.5,0-.7.1-.4.2-.5.4c-.1.2-.2.4-.3.6s0,.5,0,.8c0,.6.1,1.1.4,1.4.3.3.6.5,1.2.5Z"/>
    <path class="st3" d="M20.6,78.3c.2-.4.4-.6.6-.8.2-.2.5-.3.9-.3s.2,0,.3,0c.1,0,.2,0,.3.1v.7c0,0-.1.1-.2.1s-.1,0-.2,0c0,0-.2,0-.3,0s-.3,0-.4,0c-.1,0-.2.1-.3.2-.1,0-.2.2-.3.4,0,.1-.2.3-.2.5v3.3h-.9v-5.2h.5c0,0,.2,0,.2,0,0,0,0,.1,0,.2v.8Z"/>
    <path class="st3" d="M23.5,82.5v-5.2h.6c.1,0,.2,0,.2.2v.5c.3-.2.5-.4.7-.6.2-.2.5-.2.8-.2s.6,0,.9.3.4.5.5.8c0-.2.2-.4.3-.5.1-.1.3-.3.4-.3s.3-.2.5-.2.3,0,.5,0c.3,0,.5,0,.7.1.2,0,.4.2.5.4.1.2.3.4.3.6s.1.5.1.8v3.3h-.9v-3.3c0-.4,0-.7-.3-.9-.2-.2-.4-.3-.8-.3s-.3,0-.4,0c-.1,0-.3.1-.4.2-.1.1-.2.2-.2.4s0,.3,0,.5v3.3h-.9v-3.3c0-.4,0-.7-.3-.9-.2-.2-.4-.3-.7-.3s-.4,0-.6.2c-.2.1-.4.3-.5.5v3.9h-.9Z"/>
    <path class="st3" d="M34.2,77.2c.4,0,.7,0,1,.2.3.1.6.3.8.5s.4.5.5.8c.1.3.2.7.2,1.1s0,.8-.2,1.1c-.1.3-.3.6-.5.8s-.5.4-.8.5c-.3.1-.6.2-1,.2s-.7,0-1-.2c-.3-.1-.6-.3-.8-.5-.2-.2-.4-.5-.5-.8-.1-.3-.2-.7-.2-1.1s0-.8.2-1.1.3-.6.5-.8c.2-.2.5-.4.8-.5.3-.1.7-.2,1-.2ZM35.8,76.5h-.6s0,0-.1,0,0,0-.1,0l-.6-.7s0,0,0,0c0,0,0,0,0,0s0,0,0,0l-.6.7c0,0-.1,0-.2,0h-.6l1.1-1.4h.9l1.1,1.4ZM34.2,81.8c.5,0,.9-.2,1.2-.5s.4-.8.4-1.4-.1-1.1-.4-1.5-.6-.5-1.2-.5-.5,0-.7.1-.4.2-.5.4c-.1.2-.2.4-.3.6s0,.5,0,.8c0,.6.1,1.1.4,1.4.3.3.6.5,1.2.5Z"/>
    <path class="st3" d="M38.7,78c.1-.1.2-.2.4-.3.1-.1.3-.2.4-.3.1,0,.3-.1.5-.2s.3,0,.5,0c.3,0,.5,0,.8.1.2,0,.4.2.5.4.1.2.3.4.3.6,0,.2.1.5.1.8v3.3h-.9v-3.3c0-.4,0-.7-.3-.9-.2-.2-.5-.3-.8-.3s-.5,0-.8.2c-.2.1-.5.3-.7.5v3.8h-.9v-5.2h.6c.1,0,.2,0,.2.2v.6Z"/>
    <path class="st3" d="M44.7,75.6c0,0,0,.2,0,.2,0,0,0,.1-.1.2,0,0-.1.1-.2.1,0,0-.2,0-.3,0s-.2,0-.2,0c0,0-.1,0-.2-.1,0,0-.1-.1-.1-.2s0-.2,0-.2,0-.2,0-.3c0,0,0-.2.1-.2,0,0,.1-.1.2-.1s.2,0,.2,0,.2,0,.3,0,.2,0,.2.1c0,0,.1.1.1.2,0,0,0,.2,0,.3ZM44.5,77.3v5.2h-.9v-5.2h.9Z"/>
    <path class="st3" d="M48.2,77.2c.4,0,.7,0,1,.2.3.1.6.3.8.5s.4.5.5.8c.1.3.2.7.2,1.1s0,.8-.2,1.1c-.1.3-.3.6-.5.8s-.5.4-.8.5c-.3.1-.6.2-1,.2s-.7,0-1-.2c-.3-.1-.6-.3-.8-.5-.2-.2-.4-.5-.5-.8-.1-.3-.2-.7-.2-1.1s0-.8.2-1.1.3-.6.5-.8c.2-.2.5-.4.8-.5.3-.1.7-.2,1-.2ZM48.2,81.8c.5,0,.9-.2,1.2-.5s.4-.8.4-1.4-.1-1.1-.4-1.5-.6-.5-1.2-.5-.5,0-.7.1-.4.2-.5.4c-.1.2-.2.4-.3.6s0,.5,0,.8c0,.6.1,1.1.4,1.4.3.3.6.5,1.2.5Z"/>
    <path class="st3" d="M56.1,82.6c-.4,0-.7-.1-.9-.3s-.3-.6-.3-1v-3.2h-.6c0,0-.1,0-.1,0,0,0,0,0,0-.2v-.4h.9c0-.1.2-1.7.2-1.7,0,0,0,0,0-.1,0,0,0,0,.1,0h.5v1.8h1.5v.7h-1.5v3.1c0,.2,0,.4.2.5.1.1.2.2.4.2s.2,0,.2,0c0,0,.1,0,.2,0,0,0,0,0,.1,0,0,0,0,0,0,0,0,0,0,0,.1,0l.3.4c-.2.1-.3.3-.6.3-.2,0-.5.1-.7.1Z"/>
    <path class="st3" d="M59.1,78.3c.2-.4.4-.6.6-.8.2-.2.5-.3.9-.3s.2,0,.3,0c.1,0,.2,0,.3.1v.7c0,0-.1.1-.2.1s-.1,0-.2,0c0,0-.2,0-.3,0s-.3,0-.4,0c-.1,0-.2.1-.3.2-.1,0-.2.2-.3.4,0,.1-.2.3-.2.5v3.3h-.9v-5.2h.5c0,0,.2,0,.2,0,0,0,0,.1,0,.2v.8Z"/>
    <path class="st3" d="M63.1,75.6c0,0,0,.2,0,.2,0,0,0,.1-.1.2,0,0-.1.1-.2.1,0,0-.2,0-.3,0s-.2,0-.2,0c0,0-.1,0-.2-.1,0,0-.1-.1-.1-.2s0-.2,0-.2,0-.2,0-.3c0,0,0-.2.1-.2,0,0,.1-.1.2-.1s.2,0,.2,0,.2,0,.3,0,.2,0,.2.1c0,0,.1.1.1.2,0,0,0,.2,0,.3ZM62.9,77.3v5.2h-.9v-5.2h.9Z"/>
    <path class="st3" d="M64.3,79h2.5v.8h-2.5v-.8Z"/>
    <path class="st3" d="M69.4,75.6c0,0,0,.2,0,.2,0,0,0,.1-.1.2,0,0-.1.1-.2.1,0,0-.2,0-.3,0s-.2,0-.2,0c0,0-.1,0-.2-.1,0,0-.1-.1-.1-.2s0-.2,0-.2,0-.2,0-.3c0,0,0-.2.1-.2,0,0,.1-.1.2-.1s.2,0,.2,0,.2,0,.3,0,.2,0,.2.1c0,0,.1.1.1.2,0,0,0,.2,0,.3ZM69.2,77.3v5.2h-.9v-5.2h.9Z"/>
    <path class="st3" d="M72.9,77.2c.4,0,.7,0,1,.2.3.1.6.3.8.5s.4.5.5.8c.1.3.2.7.2,1.1s0,.8-.2,1.1c-.1.3-.3.6-.5.8s-.5.4-.8.5c-.3.1-.6.2-1,.2s-.7,0-1-.2c-.3-.1-.6-.3-.8-.5-.2-.2-.4-.5-.5-.8-.1-.3-.2-.7-.2-1.1s0-.8.2-1.1.3-.6.5-.8c.2-.2.5-.4.8-.5.3-.1.7-.2,1-.2ZM72.9,81.8c.5,0,.9-.2,1.2-.5s.4-.8.4-1.4-.1-1.1-.4-1.5-.6-.5-1.2-.5-.5,0-.7.1-.4.2-.5.4c-.1.2-.2.4-.3.6s0,.5,0,.8c0,.6.1,1.1.4,1.4.3.3.6.5,1.2.5Z"/>
    <path class="st3" d="M80.8,74.9v7.6h-.5c-.1,0-.2,0-.2-.2v-.6c-.3.3-.6.5-.8.6-.3.2-.6.2-1,.2s-.6,0-.8-.2-.5-.3-.6-.5-.3-.5-.4-.8c0-.3-.1-.7-.1-1.1s0-.7.2-1.1c.1-.3.3-.6.4-.9.2-.2.4-.4.7-.6.3-.1.6-.2.9-.2s.6,0,.8.2c.2.1.4.3.6.5v-2.9h.9ZM79.9,78.5c-.2-.2-.4-.4-.6-.5s-.4-.1-.7-.1c-.5,0-.9.2-1.1.5-.3.3-.4.8-.4,1.5s0,.6,0,.9c0,.2.1.4.3.6s.3.3.4.3c.2,0,.4.1.6.1.3,0,.6,0,.8-.2.2-.1.4-.3.6-.6v-2.5Z"/>
    <path class="st3" d="M84.5,77.2c.4,0,.7,0,1,.2.3.1.6.3.8.5s.4.5.5.8c.1.3.2.7.2,1.1s0,.8-.2,1.1c-.1.3-.3.6-.5.8s-.5.4-.8.5c-.3.1-.6.2-1,.2s-.7,0-1-.2c-.3-.1-.6-.3-.8-.5-.2-.2-.4-.5-.5-.8-.1-.3-.2-.7-.2-1.1s0-.8.2-1.1.3-.6.5-.8c.2-.2.5-.4.8-.5.3-.1.7-.2,1-.2ZM84.5,81.8c.5,0,.9-.2,1.2-.5s.4-.8.4-1.4-.1-1.1-.4-1.5-.6-.5-1.2-.5-.5,0-.7.1-.4.2-.5.4c-.1.2-.2.4-.3.6s0,.5,0,.8c0,.6.1,1.1.4,1.4.3.3.6.5,1.2.5Z"/>
  </g>
  <path class="st3" d="M92.9,77.4h-3.6v-1.8h-.5c0,0-.1,0-.1,0,0,0,0,0,0,.1l-.2,1.6h-.9v.5c0,0,0,.1,0,.2s0,0,.1,0h.6v3.2c0,.4.1.8.3,1,.2.2.5.3.9.3s.5,0,.7-.1.4-.2.6-.3l-.3-.4c0,0,0,0-.1,0s0,0,0,0c0,0,0,0-.1,0s-.1,0-.2,0c0,0-.2,0-.2,0-.2,0-.3,0-.4-.2-.1-.1-.2-.3-.2-.5v-3.1h2.7v4.4h.9v-5.1ZM93,75.3c0,0,0-.1-.1-.2s-.1-.1-.2-.1-.2,0-.2,0-.2,0-.3,0c0,0-.1,0-.2.1,0,0-.1.1-.1.2s0,.2,0,.3,0,.2,0,.2c0,0,0,.1.1.2,0,0,.1.1.2.1,0,0,.2,0,.3,0s.2,0,.2,0c0,0,.1,0,.2-.1s.1-.1.1-.2c0,0,0-.2,0-.2s0-.2,0-.3h0Z"/>
  <path class="st3" d="M95.2,78.3c.2-.4.4-.6.6-.8.2-.2.5-.3.9-.3s.2,0,.3,0c.1,0,.2,0,.3.1v.7c0,0-.1.1-.2.1s-.1,0-.2,0c0,0-.2,0-.3,0s-.3,0-.4,0c-.1,0-.2.1-.3.2-.1,0-.2.2-.3.4,0,.1-.2.3-.2.5v3.3h-.9v-5.2h.5c0,0,.2,0,.2,0,0,0,0,.1,0,.2v.8Z"/>
  <g>
    <path class="st3" d="M100.1,77.2c.4,0,.7,0,1,.2.3.1.6.3.8.5s.4.5.5.8c.1.3.2.7.2,1.1s0,.8-.2,1.1c-.1.3-.3.6-.5.8s-.5.4-.8.5c-.3.1-.6.2-1,.2s-.7,0-1-.2c-.3-.1-.6-.3-.8-.5-.2-.2-.4-.5-.5-.8-.1-.3-.2-.7-.2-1.1s0-.8.2-1.1.3-.6.5-.8c.2-.2.5-.4.8-.5.3-.1.7-.2,1-.2ZM100.1,81.8c.5,0,.9-.2,1.2-.5s.4-.8.4-1.4-.1-1.1-.4-1.5-.6-.5-1.2-.5-.5,0-.7.1-.4.2-.5.4c-.1.2-.2.4-.3.6s0,.5,0,.8c0,.6.1,1.1.4,1.4.3.3.6.5,1.2.5Z"/>
    <path class="st3" d="M104.6,78c.1-.1.2-.2.4-.3.1-.1.3-.2.4-.3.1,0,.3-.1.5-.2s.3,0,.5,0c.3,0,.5,0,.8.1.2,0,.4.2.5.4.1.2.3.4.3.6,0,.2.1.5.1.8v3.3h-.9v-3.3c0-.4,0-.7-.3-.9-.2-.2-.5-.3-.8-.3s-.5,0-.8.2c-.2.1-.5.3-.7.5v3.8h-.9v-5.2h.6c.1,0,.2,0,.2.2v.6Z"/>
    <path class="st3" d="M110.6,75.6c0,0,0,.2,0,.2,0,0,0,.1-.1.2,0,0-.1.1-.2.1,0,0-.2,0-.3,0s-.2,0-.2,0c0,0-.1,0-.2-.1,0,0-.1-.1-.1-.2s0-.2,0-.2,0-.2,0-.3c0,0,0-.2.1-.2,0,0,.1-.1.2-.1s.2,0,.2,0,.2,0,.3,0,.2,0,.2.1c0,0,.1.1.1.2,0,0,0,.2,0,.3ZM110.5,77.3v5.2h-.9v-5.2h.9Z"/>
    <path class="st3" d="M112.8,78c.1-.1.2-.2.4-.3.1-.1.3-.2.4-.3.1,0,.3-.1.5-.2s.3,0,.5,0c.3,0,.5,0,.8.1.2,0,.4.2.5.4.1.2.3.4.3.6,0,.2.1.5.1.8v3.3h-.9v-3.3c0-.4,0-.7-.3-.9-.2-.2-.5-.3-.8-.3s-.5,0-.8.2c-.2.1-.5.3-.7.5v3.8h-.9v-5.2h.6c.1,0,.2,0,.2.2v.6Z"/>
    <path class="st3" d="M117.6,78c.3-.3.6-.5.9-.6.3-.1.7-.2,1.1-.2s.6,0,.8.1c.2,0,.4.2.6.4.2.2.3.4.4.6,0,.2.1.5.1.8v3.3h-.4c0,0-.2,0-.2,0s0,0-.1-.2v-.5c-.2.1-.4.2-.5.3-.1,0-.3.2-.4.2-.1,0-.3.1-.5.2-.2,0-.3,0-.5,0s-.4,0-.6,0c-.2,0-.3-.1-.5-.3-.1-.1-.2-.3-.3-.4,0-.2-.1-.4-.1-.6s0-.4.2-.6c.1-.2.3-.4.6-.5s.6-.3,1-.4.9-.1,1.5-.2v-.4c0-.4,0-.7-.3-.9-.2-.2-.4-.3-.8-.3s-.4,0-.6,0c-.2,0-.3.1-.4.2-.1,0-.2.1-.3.2s-.2,0-.2,0-.1,0-.2,0c0,0,0,0-.1-.1l-.2-.3ZM120.5,80.1c-.4,0-.8,0-1.1.1-.3,0-.5.1-.7.2-.2,0-.3.2-.4.3,0,.1-.1.2-.1.4s0,.3,0,.4c0,0,.1.2.2.2,0,0,.2.1.3.1s.2,0,.3,0,.3,0,.4,0c.1,0,.3,0,.4-.1.1,0,.2-.1.3-.2.1,0,.2-.2.3-.3v-1.1Z"/>
    <path class="st3" d="M122.7,79h2.5v.8h-2.5v-.8Z"/>
  </g>
  <g>
    <path class="st3" d="M131.2,75.9h-2.4v6.5h-1v-6.5h-2.4v-.8h5.8v.8Z"/>
    <path class="st3" d="M132,77.1c0-.3.1-.6.3-.9s.3-.5.5-.7.5-.3.7-.4.6-.1.9-.1.6,0,.9.1c.3,0,.5.2.7.4.2.2.3.4.4.6s.2.5.2.8,0,.4,0,.6c0,.2-.1.3-.3.5s-.2.3-.4.3c-.2,0-.3.2-.5.2.5.1.8.3,1.1.6.2.3.4.7.4,1.1s0,.6-.2.9c-.1.3-.3.5-.5.7-.2.2-.5.3-.8.4-.3.1-.6.2-1,.2s-.7,0-1-.1-.5-.2-.7-.4c-.2-.2-.3-.4-.5-.6s-.2-.5-.3-.8l.4-.2c.1,0,.2,0,.3,0s.2,0,.2.2c0,0,.1.2.2.3s.2.3.3.4c.1.1.3.2.4.3.2,0,.4.1.7.1s.5,0,.7-.1.4-.2.5-.3c.1-.1.2-.3.3-.4,0-.2,0-.3,0-.5s0-.4,0-.5c0-.2-.1-.3-.3-.4s-.3-.2-.6-.3c-.2,0-.6-.1-.9-.1v-.7c.3,0,.6,0,.8-.1s.4-.2.5-.3c.1-.1.2-.2.3-.4,0-.2,0-.3,0-.5s0-.4-.1-.6c0-.2-.2-.3-.3-.4s-.3-.2-.4-.2c-.2,0-.3,0-.5,0s-.4,0-.5,0c-.2,0-.3.1-.4.2-.1,0-.2.2-.3.3,0,.1-.1.3-.2.4,0,.1-.1.2-.2.2,0,0-.2,0-.3,0h-.5Z"/>
  </g>
  <path class="st3" d="M181.6,75.1c.5,0,.9,0,1.2.2s.6.3.9.5c.2.2.4.4.5.7.1.3.2.6.2.9s0,.7-.2.9c-.1.3-.3.5-.5.7-.2.2-.5.4-.9.5-.3.1-.7.2-1.2.2h-1.2v2.8h-1v-7.4h2.2ZM181.6,78.9c.3,0,.5,0,.8-.1.2,0,.4-.2.6-.3.1-.1.3-.3.3-.5,0-.2.1-.4.1-.6,0-.5-.1-.8-.4-1.1-.3-.3-.7-.4-1.3-.4h-1.2v3h1.2Z"/>
  <path class="st3" d="M188.1,81.2c-.1.1-.2.2-.3.3-.1,0-.2.2-.3.2-.1,0-.2.1-.4.1s-.3,0-.4,0-.2,0-.3,0-.2,0-.3-.1c0,0-.1-.1-.2-.2,0-.1,0-.2,0-.4s0-.3.1-.4c0-.1.2-.2.4-.3s.4-.2.7-.2.7,0,1.1-.1v1.1ZM185.3,78.3c0,0,0,0,.1.1,0,0,0,0,.2,0s.2,0,.2,0c0,0,.2-.1.3-.2s.2-.1.4-.2c.2,0,.3,0,.6,0,.3,0,.6.1.8.3s.3.5.3.9v.4c-.6,0-1.1,0-1.5.2s-.7.2-1,.4c-.3.2-.4.3-.6.5-.1.2-.2.4-.2.6s0,.4.1.6c0,.2.2.3.3.4s.3.2.5.3c.2,0,.4,0,.6,0s.4,0,.5,0c.2,0,.3,0,.5-.2.1,0,.3-.2.4-.2.1-.1.3-.2.4-.3v.5c.1,0,.2.1.2.2,0,0,.1,0,.2,0h.4v-3.3c0-.3,0-.6-.1-.8,0-.2-.2-.5-.3-.6-.2-.2-.3-.3-.6-.4-.2,0-.5-.1-.8-.1-.4,0-.8,0-1.1.2-.3.1-.6.3-.9.6l.2.3ZM191.2,77.5c0,0,0-.2,0-.2,0,0-.1,0-.2,0h-.5v5.2h.9v-3.3c0-.2.1-.3.2-.5,0-.1.2-.3.3-.3s.2-.2.3-.2c.1,0,.3,0,.4,0s.2,0,.3,0,.2,0,.2,0c0,0,.1,0,.2-.1v-.7c0,0-.1,0-.2-.1s-.2,0-.3,0c-.3,0-.6.1-.9.3-.2.2-.4.5-.6.8v-.8ZM199,77.4h-3.6v-1.8h-.5c0,0-.1,0-.1,0,0,0,0,0,0,.1l-.2,1.6h-.9v.5c0,0,0,.1,0,.2s0,0,.1,0h.6v3.2c0,.4.1.8.3,1,.2.2.5.3.9.3s.5,0,.7-.1.4-.2.6-.3l-.3-.4c0,0,0,0-.1,0s0,0,0,0c0,0,0,0-.1,0s-.1,0-.2,0c0,0-.2,0-.2,0-.2,0-.3,0-.4-.2-.1-.1-.2-.3-.2-.5v-3.1h2.7v4.4h.9v-5.1ZM199.1,75.3c0,0,0-.1-.1-.2s-.1-.1-.2-.1-.2,0-.2,0-.2,0-.3,0c0,0-.1,0-.2.1,0,0-.1.1-.1.2s0,.2,0,.3,0,.2,0,.2c0,0,0,.1.1.2,0,0,.1.1.2.1,0,0,.2,0,.3,0s.2,0,.2,0c0,0,.1,0,.2-.1s.1-.1.1-.2c0,0,0-.2,0-.2s0-.2,0-.3h0Z"/>
  <path class="st3" d="M204.1,78.2s0,0,0,0,0,0-.1,0-.1,0-.2,0c0,0-.1,0-.2-.1,0,0-.2,0-.3-.1s-.3,0-.5,0-.5,0-.7.1c-.2,0-.4.2-.5.4-.1.2-.2.4-.3.6,0,.2-.1.5-.1.8s0,.6.1.8.2.5.3.6c.1.2.3.3.5.4.2,0,.4.1.6.1s.4,0,.6,0c.1,0,.3-.1.4-.2,0,0,.2-.1.2-.2,0,0,.1,0,.2,0s.1,0,.2,0l.3.3c-.1.1-.2.3-.4.4-.1,0-.3.2-.5.2-.2,0-.3.1-.5.1s-.4,0-.6,0c-.3,0-.6,0-.9-.2-.3-.1-.5-.3-.7-.5-.2-.2-.4-.5-.5-.8-.1-.3-.2-.7-.2-1.1s0-.7.2-1.1c.1-.3.3-.6.5-.9.2-.2.5-.4.8-.6s.7-.2,1-.2.7,0,1,.2c.3.1.5.3.7.5l-.2.3Z"/>
  <g>
    <path class="st3" d="M206.5,75.6c0,0,0,.2,0,.2s0,.1-.1.2c0,0-.1.1-.2.1,0,0-.2,0-.3,0s-.2,0-.2,0c0,0-.1,0-.2-.1,0,0-.1-.1-.1-.2s0-.2,0-.2,0-.2,0-.3c0,0,0-.2.1-.2,0,0,.1-.1.2-.1s.2,0,.2,0,.2,0,.3,0c0,0,.2,0,.2.1s.1.1.1.2c0,0,0,.2,0,.3ZM206.3,77.3v5.2h-.9v-5.2h.9Z"/>
    <path class="st3" d="M208.7,78.1c.2-.3.5-.5.8-.7.3-.2.6-.2,1-.2s.6,0,.8.2c.2.1.5.3.6.5s.3.5.4.8c0,.3.1.7.1,1.1s0,.7-.2,1.1c-.1.3-.3.6-.4.9-.2.2-.4.4-.7.6s-.6.2-.9.2-.6,0-.8-.2c-.2-.1-.4-.3-.6-.5v2.3h-.9v-7h.6c.1,0,.2,0,.2.2v.6ZM208.8,81.2c.2.2.4.4.6.5.2,0,.4.1.7.1.5,0,.9-.2,1.1-.5.3-.3.4-.8.4-1.5s0-.6,0-.9c0-.2-.1-.4-.3-.6-.1-.2-.3-.3-.4-.3-.2,0-.4-.1-.6-.1-.3,0-.6,0-.8.2-.2.1-.4.3-.6.6v2.5Z"/>
    <path class="st3" d="M213.5,78c.3-.3.6-.5.9-.6.3-.1.7-.2,1.1-.2s.6,0,.8.1c.2,0,.4.2.6.4.2.2.3.4.3.6s.1.5.1.8v3.3h-.4c0,0-.2,0-.2,0s0,0-.1-.2v-.5c-.2.1-.4.2-.5.3-.1,0-.3.2-.4.2-.1,0-.3.1-.5.2s-.3,0-.5,0-.4,0-.6,0-.3-.1-.5-.3c-.1-.1-.2-.3-.3-.4,0-.2-.1-.4-.1-.6s0-.4.2-.6.3-.4.6-.5.6-.3,1-.4.9-.1,1.5-.2v-.4c0-.4,0-.7-.3-.9-.2-.2-.4-.3-.8-.3s-.4,0-.6,0c-.2,0-.3.1-.4.2-.1,0-.2.1-.3.2,0,0-.2,0-.2,0s-.1,0-.2,0c0,0,0,0-.1-.1l-.2-.3ZM216.4,80.1c-.4,0-.8,0-1.1.1-.3,0-.5.1-.7.2-.2,0-.3.2-.4.3,0,.1-.1.2-.1.4s0,.3,0,.4c0,0,.1.2.2.2,0,0,.2.1.3.1s.2,0,.3,0,.3,0,.4,0c.1,0,.3,0,.4-.1.1,0,.2-.1.3-.2.1,0,.2-.2.3-.3v-1.1Z"/>
    <path class="st3" d="M225.7,74.9v7.6h-.5c-.1,0-.2,0-.2-.2v-.6c-.3.3-.6.5-.8.6-.3.2-.6.2-1,.2s-.6,0-.8-.2c-.2-.1-.5-.3-.6-.5s-.3-.5-.4-.8c0-.3-.1-.7-.1-1.1s0-.7.2-1.1c.1-.3.2-.6.4-.9.2-.2.4-.4.7-.6.3-.1.6-.2.9-.2s.6,0,.8.2c.2.1.4.3.6.5v-2.9h.9ZM224.8,78.5c-.2-.2-.4-.4-.6-.5s-.4-.1-.7-.1c-.5,0-.9.2-1.1.5-.3.3-.4.8-.4,1.5s0,.6,0,.9c0,.2.1.4.3.6.1.2.3.3.4.3.2,0,.4.1.6.1.3,0,.6,0,.8-.2.2-.1.4-.3.6-.6v-2.5Z"/>
    <path class="st3" d="M227,78c.3-.3.6-.5.9-.6.3-.1.7-.2,1.1-.2s.6,0,.8.1c.2,0,.4.2.6.4.2.2.3.4.3.6s.1.5.1.8v3.3h-.4c0,0-.2,0-.2,0s0,0-.1-.2v-.5c-.2.1-.4.2-.5.3-.1,0-.3.2-.4.2-.1,0-.3.1-.5.2s-.3,0-.5,0-.4,0-.6,0-.3-.1-.5-.3c-.1-.1-.2-.3-.3-.4,0-.2-.1-.4-.1-.6s0-.4.2-.6.3-.4.6-.5.6-.3,1-.4.9-.1,1.5-.2v-.4c0-.4,0-.7-.3-.9-.2-.2-.4-.3-.8-.3s-.4,0-.6,0c-.2,0-.3.1-.4.2-.1,0-.2.1-.3.2,0,0-.2,0-.2,0s-.1,0-.2,0c0,0,0,0-.1-.1l-.2-.3ZM229.9,80.1c-.4,0-.8,0-1.1.1-.3,0-.5.1-.7.2-.2,0-.3.2-.4.3,0,.1-.1.2-.1.4s0,.3,0,.4c0,0,.1.2.2.2,0,0,.2.1.3.1s.2,0,.3,0,.3,0,.4,0c.1,0,.3,0,.4-.1.1,0,.2-.1.3-.2.1,0,.2-.2.3-.3v-1.1Z"/>
    <path class="st3" d="M235.7,78.1c.2-.3.5-.5.8-.7.3-.2.6-.2,1-.2s.6,0,.8.2c.2.1.5.3.6.5s.3.5.4.8c0,.3.1.7.1,1.1s0,.7-.2,1.1c-.1.3-.3.6-.4.9-.2.2-.4.4-.7.6s-.6.2-.9.2-.6,0-.8-.2c-.2-.1-.4-.3-.6-.5v2.3h-.9v-7h.6c.1,0,.2,0,.2.2v.6ZM235.8,81.2c.2.2.4.4.6.5.2,0,.4.1.7.1.5,0,.9-.2,1.1-.5.3-.3.4-.8.4-1.5s0-.6,0-.9c0-.2-.1-.4-.3-.6-.1-.2-.3-.3-.4-.3-.2,0-.4-.1-.6-.1-.3,0-.6,0-.8.2-.2.1-.4.3-.6.6v2.5Z"/>
    <path class="st3" d="M241.5,78.3c.2-.4.4-.6.6-.8.2-.2.5-.3.9-.3s.2,0,.3,0c.1,0,.2,0,.3.1v.7c0,0-.1.1-.2.1s-.1,0-.2,0c0,0-.2,0-.3,0s-.3,0-.4,0-.2.1-.3.2c-.1,0-.2.2-.3.4,0,.1-.2.3-.2.5v3.3h-.9v-5.2h.5c0,0,.2,0,.2,0,0,0,0,.1,0,.2v.8Z"/>
  </g>
  <g>
    <path class="st3" d="M246.4,77.2c.4,0,.7,0,1,.2.3.1.6.3.8.5s.4.5.5.8c.1.3.2.7.2,1.1s0,.8-.2,1.1c-.1.3-.3.6-.5.8s-.5.4-.8.5c-.3.1-.6.2-1,.2s-.7,0-1-.2-.6-.3-.8-.5c-.2-.2-.4-.5-.5-.8-.1-.3-.2-.7-.2-1.1s0-.8.2-1.1.3-.6.5-.8c.2-.2.5-.4.8-.5.3-.1.7-.2,1-.2ZM246.4,81.8c.5,0,.9-.2,1.2-.5s.4-.8.4-1.4-.1-1.1-.4-1.5-.6-.5-1.2-.5-.5,0-.7.1c-.2,0-.4.2-.5.4s-.2.4-.3.6,0,.5,0,.8c0,.6.1,1.1.4,1.4s.6.5,1.2.5Z"/>
    <path class="st3" d="M254.3,74.9v7.6h-.5c-.1,0-.2,0-.2-.2v-.6c-.3.3-.6.5-.8.6-.3.2-.6.2-1,.2s-.6,0-.8-.2c-.2-.1-.5-.3-.6-.5s-.3-.5-.4-.8c0-.3-.1-.7-.1-1.1s0-.7.2-1.1c.1-.3.2-.6.4-.9.2-.2.4-.4.7-.6.3-.1.6-.2.9-.2s.6,0,.8.2c.2.1.4.3.6.5v-2.9h.9ZM253.4,78.5c-.2-.2-.4-.4-.6-.5s-.4-.1-.7-.1c-.5,0-.9.2-1.1.5-.3.3-.4.8-.4,1.5s0,.6,0,.9c0,.2.1.4.3.6.1.2.3.3.4.3.2,0,.4.1.6.1.3,0,.6,0,.8-.2.2-.1.4-.3.6-.6v-2.5Z"/>
    <path class="st3" d="M260.1,77.3v5.2h-.5c-.1,0-.2,0-.2-.2v-.6c-.3.2-.6.5-.8.6-.3.2-.6.2-1,.2s-.5,0-.8-.1c-.2,0-.4-.2-.5-.4s-.3-.4-.3-.6c0-.2-.1-.5-.1-.8v-3.3h.9v3.3c0,.4,0,.7.3.9.2.2.5.3.8.3s.5,0,.8-.2c.2-.1.5-.3.7-.5v-3.8h.9Z"/>
    <path class="st3" d="M265.4,81.7c-.2.2-.4.4-.7.6-.3.1-.6.2-.9.2v.3c.2,0,.5.2.6.3s.2.3.2.5,0,.2,0,.3c0,0-.1.2-.2.2,0,0-.2.1-.3.1-.1,0-.3,0-.5,0s-.3,0-.4,0c-.1,0-.2,0-.3-.1v-.3c.1,0,.1,0,.2,0s0,0,0,0,0,0,.1,0c0,0,0,0,.1,0,0,0,.1,0,.2,0,.1,0,.3,0,.3,0,0,0,.1-.1.1-.2,0-.1,0-.2-.2-.3-.1,0-.3,0-.6-.1l.2-.6c-.3,0-.6-.1-.8-.2-.3-.1-.5-.3-.7-.5-.2-.2-.3-.5-.4-.8-.1-.3-.2-.7-.2-1.1s0-.7.2-1.1c.1-.3.3-.6.5-.9.2-.2.5-.4.8-.6s.7-.2,1-.2.7,0,1,.2c.3.1.5.3.7.5l-.2.3s0,0,0,0,0,0-.1,0-.1,0-.2,0c0,0-.1,0-.2-.1,0,0-.2,0-.3-.1s-.3,0-.5,0-.5,0-.7.1c-.2,0-.4.2-.5.4-.1.2-.2.4-.3.6,0,.2-.1.5-.1.8s0,.6.1.8.2.5.3.6c.1.2.3.3.5.4.2,0,.4.1.6.1s.4,0,.6,0c.1,0,.3-.1.4-.2,0,0,.2-.1.2-.2,0,0,.1,0,.2,0s.1,0,.2,0l.3.3Z"/>
    <path class="st3" d="M266.3,78c.3-.3.6-.5.9-.6.3-.1.7-.2,1.1-.2s.6,0,.8.1c.2,0,.4.2.6.4.2.2.3.4.3.6s.1.5.1.8v3.3h-.4c0,0-.2,0-.2,0s0,0-.1-.2v-.5c-.2.1-.4.2-.5.3-.1,0-.3.2-.4.2-.1,0-.3.1-.5.2s-.3,0-.5,0-.4,0-.6,0-.3-.1-.5-.3c-.1-.1-.2-.3-.3-.4,0-.2-.1-.4-.1-.6s0-.4.2-.6.3-.4.6-.5.6-.3,1-.4.9-.1,1.5-.2v-.4c0-.4,0-.7-.3-.9-.2-.2-.4-.3-.8-.3s-.4,0-.6,0c-.2,0-.3.1-.4.2-.1,0-.2.1-.3.2,0,0-.2,0-.2,0s-.1,0-.2,0c0,0,0,0-.1-.1l-.2-.3ZM268.8,75.7c.1,0,.2,0,.3-.1,0,0,.1-.2.1-.3h.6c0,.2,0,.3,0,.4,0,.1-.1.3-.2.3,0,0-.2.2-.3.2-.1,0-.2,0-.4,0s-.2,0-.3,0c-.1,0-.2-.1-.3-.2s-.2-.1-.3-.2-.2,0-.2,0c-.2,0-.4.2-.4.5h-.6c0-.2,0-.3,0-.5s.1-.3.2-.3.2-.2.3-.2c.1,0,.2,0,.4,0s.2,0,.3,0,.2.1.3.2c0,0,.2.1.3.2,0,0,.2,0,.2,0ZM269.3,80.1c-.4,0-.8,0-1.1.1-.3,0-.5.1-.7.2-.2,0-.3.2-.4.3,0,.1-.1.2-.1.4s0,.3,0,.4c0,0,.1.2.2.2,0,0,.2.1.3.1s.2,0,.3,0,.3,0,.4,0c.1,0,.3,0,.4-.1.1,0,.2-.1.3-.2.1,0,.2-.2.3-.3v-1.1Z"/>
    <path class="st3" d="M273.7,77.2c.4,0,.7,0,1,.2.3.1.6.3.8.5s.4.5.5.8c.1.3.2.7.2,1.1s0,.8-.2,1.1c-.1.3-.3.6-.5.8s-.5.4-.8.5c-.3.1-.6.2-1,.2s-.7,0-1-.2-.6-.3-.8-.5c-.2-.2-.4-.5-.5-.8-.1-.3-.2-.7-.2-1.1s0-.8.2-1.1.3-.6.5-.8c.2-.2.5-.4.8-.5.3-.1.7-.2,1-.2ZM273.7,81.8c.5,0,.9-.2,1.2-.5s.4-.8.4-1.4-.1-1.1-.4-1.5-.6-.5-1.2-.5-.5,0-.7.1c-.2,0-.4.2-.5.4s-.2.4-.3.6,0,.5,0,.8c0,.6.1,1.1.4,1.4s.6.5,1.2.5Z"/>
    <path class="st3" d="M284.3,74.9v7.6h-.5c-.1,0-.2,0-.2-.2v-.6c-.3.3-.6.5-.8.6-.3.2-.6.2-1,.2s-.6,0-.8-.2c-.2-.1-.5-.3-.6-.5s-.3-.5-.4-.8c0-.3-.1-.7-.1-1.1s0-.7.2-1.1c.1-.3.2-.6.4-.9.2-.2.4-.4.7-.6.3-.1.6-.2.9-.2s.6,0,.8.2c.2.1.4.3.6.5v-2.9h.9ZM283.4,78.5c-.2-.2-.4-.4-.6-.5s-.4-.1-.7-.1c-.5,0-.9.2-1.1.5-.3.3-.4.8-.4,1.5s0,.6,0,.9c0,.2.1.4.3.6.1.2.3.3.4.3.2,0,.4.1.6.1.3,0,.6,0,.8-.2.2-.1.4-.3.6-.6v-2.5Z"/>
    <path class="st3" d="M290,81.7c-.1.1-.2.3-.4.4-.2.1-.3.2-.5.2-.2,0-.4.1-.6.1-.2,0-.4,0-.6,0-.4,0-.7,0-1-.2-.3-.1-.6-.3-.8-.5-.2-.2-.4-.5-.5-.9-.1-.3-.2-.7-.2-1.2s0-.7.2-1c.1-.3.3-.6.5-.8s.5-.4.8-.5c.3-.1.6-.2,1-.2s.6,0,.9.2.5.3.7.5.3.4.5.7c.1.3.2.6.2,1s0,.2,0,.3c0,0,0,0-.2,0h-3.5c0,.3,0,.6.1.9,0,.2.2.4.3.6.1.2.3.3.5.4.2,0,.4.1.7.1s.4,0,.6,0c.2,0,.3-.1.4-.2s.2-.1.3-.2c0,0,.1,0,.2,0s.1,0,.2,0l.3.3ZM289.3,79.3c0-.2,0-.4,0-.6,0-.2-.1-.3-.3-.5-.1-.1-.3-.2-.4-.3-.2,0-.4-.1-.6-.1-.4,0-.8.1-1,.4-.3.3-.4.6-.5,1.1h2.9Z"/>
    <path class="st3" d="M298.1,81.7c-.1.1-.2.3-.4.4-.2.1-.3.2-.5.2-.2,0-.4.1-.6.1-.2,0-.4,0-.6,0-.4,0-.7,0-1-.2-.3-.1-.6-.3-.8-.5-.2-.2-.4-.5-.5-.9-.1-.3-.2-.7-.2-1.2s0-.7.2-1c.1-.3.3-.6.5-.8s.5-.4.8-.5c.3-.1.6-.2,1-.2s.6,0,.9.2.5.3.7.5.3.4.5.7c.1.3.2.6.2,1s0,.2,0,.3c0,0,0,0-.2,0h-3.5c0,.3,0,.6.1.9,0,.2.2.4.3.6.1.2.3.3.5.4.2,0,.4.1.7.1s.4,0,.6,0c.2,0,.3-.1.4-.2s.2-.1.3-.2c0,0,.1,0,.2,0s.1,0,.2,0l.3.3ZM297.3,79.3c0-.2,0-.4,0-.6,0-.2-.1-.3-.3-.5-.1-.1-.3-.2-.4-.3-.2,0-.4-.1-.6-.1-.4,0-.8.1-1,.4-.3.3-.4.6-.5,1.1h2.9Z"/>
    <path class="st3" d="M300.1,78c.1-.1.2-.2.4-.3.1-.1.3-.2.4-.3.1,0,.3-.1.5-.2s.3,0,.5,0c.3,0,.5,0,.8.1.2,0,.4.2.5.4.1.2.3.4.3.6,0,.2.1.5.1.8v3.3h-.9v-3.3c0-.4,0-.7-.3-.9-.2-.2-.5-.3-.8-.3s-.5,0-.8.2c-.2.1-.5.3-.7.5v3.8h-.9v-5.2h.6c.1,0,.2,0,.2.2v.6Z"/>
    <path class="st3" d="M309.2,81.7c-.1.1-.2.3-.4.4-.2.1-.3.2-.5.2-.2,0-.4.1-.6.1-.2,0-.4,0-.6,0-.4,0-.7,0-1-.2-.3-.1-.6-.3-.8-.5-.2-.2-.4-.5-.5-.9-.1-.3-.2-.7-.2-1.2s0-.7.2-1c.1-.3.3-.6.5-.8s.5-.4.8-.5c.3-.1.6-.2,1-.2s.6,0,.9.2.5.3.7.5.3.4.5.7c.1.3.2.6.2,1s0,.2,0,.3c0,0,0,0-.2,0h-3.5c0,.3,0,.6.1.9,0,.2.2.4.3.6.1.2.3.3.5.4.2,0,.4.1.7.1s.4,0,.6,0c.2,0,.3-.1.4-.2s.2-.1.3-.2c0,0,.1,0,.2,0s.1,0,.2,0l.3.3ZM308.5,79.3c0-.2,0-.4,0-.6,0-.2-.1-.3-.3-.5-.1-.1-.3-.2-.4-.3-.2,0-.4-.1-.6-.1-.4,0-.8.1-1,.4-.3.3-.4.6-.5,1.1h2.9Z"/>
    <path class="st3" d="M311.3,78.3c.2-.4.4-.6.6-.8.2-.2.5-.3.9-.3s.2,0,.3,0c.1,0,.2,0,.3.1v.7c0,0-.1.1-.2.1s-.1,0-.2,0c0,0-.2,0-.3,0s-.3,0-.4,0-.2.1-.3.2c-.1,0-.2.2-.3.4,0,.1-.2.3-.2.5v3.3h-.9v-5.2h.5c0,0,.2,0,.2,0,0,0,0,.1,0,.2v.8Z"/>
  </g>
  <g>
    <path class="st3" d="M318.5,77.5v.3c0,.1,0,.2-.2.2h-.6c.1.3.2.6.2.8s0,.5-.1.7c0,.2-.2.4-.4.5-.2.1-.4.3-.6.3-.2,0-.5.1-.8.1s-.5,0-.7,0c-.1,0-.2.1-.3.2,0,0,0,.2,0,.2,0,.1,0,.2.2.3.1,0,.2.1.4.1.2,0,.4,0,.6,0s.4,0,.6,0c.2,0,.4,0,.6,0s.4,0,.6.2c.2,0,.3.2.4.4.1.2.2.3.2.6s0,.4-.2.6c-.1.2-.3.4-.5.6s-.5.3-.8.4c-.3,0-.6.1-1,.1s-.7,0-1-.1c-.3,0-.5-.2-.7-.3s-.3-.3-.4-.4c0-.2-.1-.3-.1-.5,0-.3,0-.5.2-.7.2-.2.4-.3.7-.4-.2,0-.3-.2-.4-.3,0-.1-.1-.3-.1-.5s0-.2,0-.2c0,0,0-.2.1-.2,0,0,.1-.2.2-.2s.2-.1.3-.2c-.3-.1-.5-.3-.6-.6-.1-.2-.2-.5-.2-.8s0-.5.1-.7c0-.2.2-.4.4-.5.2-.1.4-.3.6-.3.2,0,.5-.1.8-.1s.4,0,.6,0c.2,0,.4.1.5.2h1.4ZM317.5,82.8c0-.1,0-.2-.1-.3,0,0-.2-.1-.3-.2-.1,0-.3,0-.4,0-.2,0-.3,0-.5,0-.2,0-.4,0-.5,0-.2,0-.4,0-.5,0-.2,0-.3.2-.5.3-.1.1-.2.3-.2.5s0,.2,0,.3c0,.1.2.2.3.3.1,0,.3.1.5.2.2,0,.4,0,.7,0s.5,0,.7,0c.2,0,.4-.1.5-.2.1,0,.2-.2.3-.3s.1-.2.1-.4ZM315.9,79.9c.2,0,.3,0,.5,0s.3-.1.4-.2c0,0,.2-.2.2-.3,0-.1,0-.3,0-.4,0-.3,0-.6-.3-.8-.2-.2-.5-.3-.8-.3s-.7,0-.8.3c-.2.2-.3.4-.3.8s0,.3,0,.4c0,.1.1.2.2.3,0,0,.2.2.4.2s.3,0,.5,0Z"/>
    <path class="st3" d="M320.6,75.6c0,0,0,.2,0,.2s0,.1-.1.2c0,0-.1.1-.2.1,0,0-.2,0-.3,0s-.2,0-.2,0c0,0-.1,0-.2-.1,0,0-.1-.1-.1-.2s0-.2,0-.2,0-.2,0-.3c0,0,0-.2.1-.2,0,0,.1-.1.2-.1s.2,0,.2,0,.2,0,.3,0c0,0,.2,0,.2.1s.1.1.1.2c0,0,0,.2,0,.3ZM320.4,77.3v5.2h-.9v-5.2h.9Z"/>
    <path class="st3" d="M321.8,78c.3-.3.6-.5.9-.6.3-.1.7-.2,1.1-.2s.6,0,.8.1c.2,0,.4.2.6.4.2.2.3.4.3.6s.1.5.1.8v3.3h-.4c0,0-.2,0-.2,0s0,0-.1-.2v-.5c-.2.1-.4.2-.5.3-.1,0-.3.2-.4.2-.1,0-.3.1-.5.2s-.3,0-.5,0-.4,0-.6,0-.3-.1-.5-.3c-.1-.1-.2-.3-.3-.4,0-.2-.1-.4-.1-.6s0-.4.2-.6.3-.4.6-.5.6-.3,1-.4.9-.1,1.5-.2v-.4c0-.4,0-.7-.3-.9-.2-.2-.4-.3-.8-.3s-.4,0-.6,0c-.2,0-.3.1-.4.2-.1,0-.2.1-.3.2,0,0-.2,0-.2,0s-.1,0-.2,0c0,0,0,0-.1-.1l-.2-.3ZM324.7,80.1c-.4,0-.8,0-1.1.1-.3,0-.5.1-.7.2-.2,0-.3.2-.4.3,0,.1-.1.2-.1.4s0,.3,0,.4c0,0,.1.2.2.2,0,0,.2.1.3.1s.2,0,.3,0,.3,0,.4,0c.1,0,.3,0,.4-.1.1,0,.2-.1.3-.2.1,0,.2-.2.3-.3v-1.1Z"/>
    <path class="st3" d="M330.5,78.3c.2-.4.4-.6.6-.8.2-.2.5-.3.9-.3s.2,0,.3,0c.1,0,.2,0,.3.1v.7c0,0-.1.1-.2.1s-.1,0-.2,0c0,0-.2,0-.3,0s-.3,0-.4,0-.2.1-.3.2c-.1,0-.2.2-.3.4,0,.1-.2.3-.2.5v3.3h-.9v-5.2h.5c0,0,.2,0,.2,0,0,0,0,.1,0,.2v.8Z"/>
  </g>
  <g>
    <path class="st3" d="M337.4,81.7c-.1.1-.2.3-.4.4-.2.1-.3.2-.5.2-.2,0-.4.1-.6.1-.2,0-.4,0-.6,0-.4,0-.7,0-1-.2-.3-.1-.6-.3-.8-.5-.2-.2-.4-.5-.5-.9-.1-.3-.2-.7-.2-1.2s0-.7.2-1c.1-.3.3-.6.5-.8s.5-.4.8-.5c.3-.1.6-.2,1-.2s.6,0,.9.2.5.3.7.5.3.4.5.7c.1.3.2.6.2,1s0,.2,0,.3c0,0,0,0-.2,0h-3.5c0,.3,0,.6.1.9,0,.2.2.4.3.6.1.2.3.3.5.4.2,0,.4.1.7.1s.4,0,.6,0c.2,0,.3-.1.4-.2s.2-.1.3-.2c0,0,.1,0,.2,0s.1,0,.2,0l.3.3ZM336.7,79.3c0-.2,0-.4,0-.6,0-.2-.1-.3-.3-.5-.1-.1-.3-.2-.4-.3-.2,0-.4-.1-.6-.1-.4,0-.8.1-1,.4-.3.3-.4.6-.5,1.1h2.9Z"/>
    <path class="st3" d="M343,77.5v.3c0,.1,0,.2-.2.2h-.6c.1.3.2.6.2.8s0,.5-.1.7c0,.2-.2.4-.4.5-.2.1-.4.3-.6.3-.2,0-.5.1-.8.1s-.5,0-.7,0c-.1,0-.2.1-.3.2,0,0,0,.2,0,.2,0,.1,0,.2.2.3.1,0,.2.1.4.1.2,0,.4,0,.6,0s.4,0,.6,0c.2,0,.4,0,.6,0s.4,0,.6.2c.2,0,.3.2.4.4.1.2.2.3.2.6s0,.4-.2.6c-.1.2-.3.4-.5.6s-.5.3-.8.4c-.3,0-.6.1-1,.1s-.7,0-1-.1c-.3,0-.5-.2-.7-.3s-.3-.3-.4-.4c0-.2-.1-.3-.1-.5,0-.3,0-.5.2-.7.2-.2.4-.3.7-.4-.2,0-.3-.2-.4-.3,0-.1-.1-.3-.1-.5s0-.2,0-.2c0,0,0-.2.1-.2,0,0,.1-.2.2-.2s.2-.1.3-.2c-.3-.1-.5-.3-.6-.6-.1-.2-.2-.5-.2-.8s0-.5.1-.7c0-.2.2-.4.4-.5.2-.1.4-.3.6-.3.2,0,.5-.1.8-.1s.4,0,.6,0c.2,0,.4.1.5.2h1.4ZM342.1,82.8c0-.1,0-.2-.1-.3,0,0-.2-.1-.3-.2-.1,0-.3,0-.4,0-.2,0-.3,0-.5,0-.2,0-.4,0-.5,0-.2,0-.4,0-.5,0-.2,0-.3.2-.5.3-.1.1-.2.3-.2.5s0,.2,0,.3c0,.1.2.2.3.3.1,0,.3.1.5.2.2,0,.4,0,.7,0s.5,0,.7,0c.2,0,.4-.1.5-.2.1,0,.2-.2.3-.3s.1-.2.1-.4ZM340.4,79.9c.2,0,.3,0,.5,0s.3-.1.4-.2c0,0,.2-.2.2-.3,0-.1,0-.3,0-.4,0-.3,0-.6-.3-.8-.2-.2-.5-.3-.8-.3s-.7,0-.8.3c-.2.2-.3.4-.3.8s0,.3,0,.4c0,.1.1.2.2.3,0,0,.2.2.4.2s.3,0,.5,0Z"/>
    <path class="st3" d="M348.2,77.3v5.2h-.5c-.1,0-.2,0-.2-.2v-.6c-.3.2-.6.5-.8.6-.3.2-.6.2-1,.2s-.5,0-.8-.1c-.2,0-.4-.2-.5-.4s-.3-.4-.3-.6c0-.2-.1-.5-.1-.8v-3.3h.9v3.3c0,.4,0,.7.3.9.2.2.5.3.8.3s.5,0,.8-.2c.2-.1.5-.3.7-.5v-3.8h.9Z"/>
    <path class="st3" d="M350.6,74.9v7.6h-.9v-7.6h.9Z"/>
    <path class="st3" d="M352,78c.3-.3.6-.5.9-.6.3-.1.7-.2,1.1-.2s.6,0,.8.1c.2,0,.4.2.6.4.2.2.3.4.3.6s.1.5.1.8v3.3h-.4c0,0-.2,0-.2,0s0,0-.1-.2v-.5c-.2.1-.4.2-.5.3-.1,0-.3.2-.4.2-.1,0-.3.1-.5.2s-.3,0-.5,0-.4,0-.6,0-.3-.1-.5-.3c-.1-.1-.2-.3-.3-.4,0-.2-.1-.4-.1-.6s0-.4.2-.6.3-.4.6-.5.6-.3,1-.4.9-.1,1.5-.2v-.4c0-.4,0-.7-.3-.9-.2-.2-.4-.3-.8-.3s-.4,0-.6,0c-.2,0-.3.1-.4.2-.1,0-.2.1-.3.2,0,0-.2,0-.2,0s-.1,0-.2,0c0,0,0,0-.1-.1l-.2-.3ZM354.9,80.1c-.4,0-.8,0-1.1.1-.3,0-.5.1-.7.2-.2,0-.3.2-.4.3,0,.1-.1.2-.1.4s0,.3,0,.4c0,0,.1.2.2.2,0,0,.2.1.3.1s.2,0,.3,0,.3,0,.4,0c.1,0,.3,0,.4-.1.1,0,.2-.1.3-.2.1,0,.2-.2.3-.3v-1.1Z"/>
    <path class="st3" d="M358.1,78c.1-.1.2-.2.4-.3.1-.1.3-.2.4-.3.1,0,.3-.1.5-.2s.3,0,.5,0c.3,0,.5,0,.8.1.2,0,.4.2.5.4.1.2.3.4.3.6,0,.2.1.5.1.8v3.3h-.9v-3.3c0-.4,0-.7-.3-.9-.2-.2-.5-.3-.8-.3s-.5,0-.8.2c-.2.1-.5.3-.7.5v3.8h-.9v-5.2h.6c.1,0,.2,0,.2.2v.6Z"/>
    <path class="st3" d="M367.3,74.9v7.6h-.5c-.1,0-.2,0-.2-.2v-.6c-.3.3-.6.5-.8.6-.3.2-.6.2-1,.2s-.6,0-.8-.2c-.2-.1-.5-.3-.6-.5s-.3-.5-.4-.8c0-.3-.1-.7-.1-1.1s0-.7.2-1.1c.1-.3.2-.6.4-.9.2-.2.4-.4.7-.6.3-.1.6-.2.9-.2s.6,0,.8.2c.2.1.4.3.6.5v-2.9h.9ZM366.4,78.5c-.2-.2-.4-.4-.6-.5s-.4-.1-.7-.1c-.5,0-.9.2-1.1.5-.3.3-.4.8-.4,1.5s0,.6,0,.9c0,.2.1.4.3.6.1.2.3.3.4.3.2,0,.4.1.6.1.3,0,.6,0,.8-.2.2-.1.4-.3.6-.6v-2.5Z"/>
    <path class="st3" d="M370.9,77.2c.4,0,.7,0,1,.2.3.1.6.3.8.5s.4.5.5.8c.1.3.2.7.2,1.1s0,.8-.2,1.1c-.1.3-.3.6-.5.8s-.5.4-.8.5c-.3.1-.6.2-1,.2s-.7,0-1-.2-.6-.3-.8-.5c-.2-.2-.4-.5-.5-.8-.1-.3-.2-.7-.2-1.1s0-.8.2-1.1.3-.6.5-.8c.2-.2.5-.4.8-.5.3-.1.7-.2,1-.2ZM370.9,81.8c.5,0,.9-.2,1.2-.5s.4-.8.4-1.4-.1-1.1-.4-1.5-.6-.5-1.2-.5-.5,0-.7.1c-.2,0-.4.2-.5.4s-.2.4-.3.6,0,.5,0,.8c0,.6.1,1.1.4,1.4s.6.5,1.2.5Z"/>
    <path class="st3" d="M379.4,77.2c.4,0,.7,0,1,.2.3.1.6.3.8.5s.4.5.5.8c.1.3.2.7.2,1.1s0,.8-.2,1.1c-.1.3-.3.6-.5.8s-.5.4-.8.5c-.3.1-.6.2-1,.2s-.7,0-1-.2-.6-.3-.8-.5c-.2-.2-.4-.5-.5-.8-.1-.3-.2-.7-.2-1.1s0-.8.2-1.1.3-.6.5-.8c.2-.2.5-.4.8-.5.3-.1.7-.2,1-.2ZM379.4,81.8c.5,0,.9-.2,1.2-.5s.4-.8.4-1.4-.1-1.1-.4-1.5-.6-.5-1.2-.5-.5,0-.7.1c-.2,0-.4.2-.5.4s-.2.4-.3.6,0,.5,0,.8c0,.6.1,1.1.4,1.4s.6.5,1.2.5Z"/>
    <path class="st3" d="M385.7,82.5v-5.2h.6c.1,0,.2,0,.2.2v.5c.3-.2.5-.4.7-.6.2-.2.5-.2.8-.2s.6,0,.9.3.4.5.5.8c0-.2.2-.4.3-.5.1-.1.3-.3.4-.3s.3-.2.5-.2.3,0,.5,0c.3,0,.5,0,.7.1.2,0,.4.2.5.4s.3.4.3.6c0,.2.1.5.1.8v3.3h-.9v-3.3c0-.4,0-.7-.3-.9-.2-.2-.4-.3-.8-.3s-.3,0-.4,0c-.1,0-.3.1-.4.2-.1.1-.2.2-.2.4,0,.2,0,.3,0,.5v3.3h-.9v-3.3c0-.4,0-.7-.3-.9-.2-.2-.4-.3-.7-.3s-.4,0-.6.2c-.2.1-.4.3-.5.5v3.9h-.9Z"/>
    <path class="st3" d="M398.4,81.7c-.1.1-.2.3-.4.4-.2.1-.3.2-.5.2-.2,0-.4.1-.6.1-.2,0-.4,0-.6,0-.4,0-.7,0-1-.2-.3-.1-.6-.3-.8-.5-.2-.2-.4-.5-.5-.9-.1-.3-.2-.7-.2-1.2s0-.7.2-1c.1-.3.3-.6.5-.8s.5-.4.8-.5c.3-.1.6-.2,1-.2s.6,0,.9.2.5.3.7.5.3.4.5.7c.1.3.2.6.2,1s0,.2,0,.3c0,0,0,0-.2,0h-3.5c0,.3,0,.6.1.9,0,.2.2.4.3.6.1.2.3.3.5.4.2,0,.4.1.7.1s.4,0,.6,0c.2,0,.3-.1.4-.2s.2-.1.3-.2c0,0,.1,0,.2,0s.1,0,.2,0l.3.3ZM397.6,79.3c0-.2,0-.4,0-.6,0-.2-.1-.3-.3-.5-.1-.1-.3-.2-.4-.3-.2,0-.4-.1-.6-.1-.4,0-.8.1-1,.4-.3.3-.4.6-.5,1.1h2.9Z"/>
    <path class="st3" d="M401.2,82.6c-.4,0-.7-.1-.9-.3-.2-.2-.3-.6-.3-1v-3.2h-.6c0,0-.1,0-.1,0,0,0,0,0,0-.2v-.4h.9c0-.1.2-1.7.2-1.7,0,0,0,0,0-.1,0,0,0,0,.1,0h.5v1.8h1.5v.7h-1.5v3.1c0,.2,0,.4.2.5s.2.2.4.2.2,0,.2,0c0,0,.1,0,.2,0,0,0,0,0,.1,0,0,0,0,0,0,0,0,0,0,0,.1,0l.3.4c-.2.1-.3.3-.6.3-.2,0-.5.1-.7.1Z"/>
    <path class="st3" d="M403.1,78c.3-.3.6-.5.9-.6.3-.1.7-.2,1.1-.2s.6,0,.8.1c.2,0,.4.2.6.4.2.2.3.4.3.6s.1.5.1.8v3.3h-.4c0,0-.2,0-.2,0s0,0-.1-.2v-.5c-.2.1-.4.2-.5.3-.1,0-.3.2-.4.2-.1,0-.3.1-.5.2s-.3,0-.5,0-.4,0-.6,0-.3-.1-.5-.3c-.1-.1-.2-.3-.3-.4,0-.2-.1-.4-.1-.6s0-.4.2-.6.3-.4.6-.5.6-.3,1-.4.9-.1,1.5-.2v-.4c0-.4,0-.7-.3-.9-.2-.2-.4-.3-.8-.3s-.4,0-.6,0c-.2,0-.3.1-.4.2-.1,0-.2.1-.3.2,0,0-.2,0-.2,0s-.1,0-.2,0c0,0,0,0-.1-.1l-.2-.3ZM406.1,80.1c-.4,0-.8,0-1.1.1-.3,0-.5.1-.7.2-.2,0-.3.2-.4.3,0,.1-.1.2-.1.4s0,.3,0,.4c0,0,.1.2.2.2,0,0,.2.1.3.1s.2,0,.3,0,.3,0,.4,0c.1,0,.3,0,.4-.1.1,0,.2-.1.3-.2.1,0,.2-.2.3-.3v-1.1Z"/>
    <path class="st3" d="M409.3,78c.2-.3.5-.5.7-.6.3-.2.6-.2,1-.2s.6,0,.8.2c.2.1.5.3.6.5.2.2.3.5.4.8s.1.7.1,1.1,0,.8-.2,1.2c-.1.3-.3.6-.4.9s-.4.4-.7.6c-.3.1-.6.2-.9.2s-.6,0-.9-.2-.4-.3-.6-.5v.5c0,.1-.2.2-.3.2h-.6v-7.6h.9v3.1ZM409.3,81.2c.2.2.4.4.6.5.2,0,.4.1.7.1.5,0,.9-.2,1.1-.5.3-.3.4-.9.4-1.5s-.1-1.1-.3-1.4c-.2-.3-.6-.5-1-.5s-.6,0-.8.2c-.2.1-.4.3-.6.6v2.5Z"/>
    <path class="st3" d="M416.3,77.2c.4,0,.7,0,1,.2.3.1.6.3.8.5s.4.5.5.8c.1.3.2.7.2,1.1s0,.8-.2,1.1c-.1.3-.3.6-.5.8s-.5.4-.8.5c-.3.1-.6.2-1,.2s-.7,0-1-.2-.6-.3-.8-.5c-.2-.2-.4-.5-.5-.8-.1-.3-.2-.7-.2-1.1s0-.8.2-1.1.3-.6.5-.8c.2-.2.5-.4.8-.5.3-.1.7-.2,1-.2ZM416.3,81.8c.5,0,.9-.2,1.2-.5s.4-.8.4-1.4-.1-1.1-.4-1.5-.6-.5-1.2-.5-.5,0-.7.1c-.2,0-.4.2-.5.4s-.2.4-.3.6,0,.5,0,.8c0,.6.1,1.1.4,1.4s.6.5,1.2.5Z"/>
    <path class="st3" d="M420.9,74.9v7.6h-.9v-7.6h.9Z"/>
    <path class="st3" d="M423.6,75.6c0,0,0,.2,0,.2s0,.1-.1.2c0,0-.1.1-.2.1,0,0-.2,0-.3,0s-.2,0-.2,0c0,0-.1,0-.2-.1,0,0-.1-.1-.1-.2s0-.2,0-.2,0-.2,0-.3c0,0,0-.2.1-.2,0,0,.1-.1.2-.1s.2,0,.2,0,.2,0,.3,0c0,0,.2,0,.2.1s.1.1.1.2c0,0,0,.2,0,.3ZM423.4,77.3v5.2h-.9v-5.2h.9Z"/>
    <path class="st3" d="M427.9,78.1c0,0-.1.1-.2.1s-.1,0-.2,0c0,0-.1,0-.2-.1,0,0-.2,0-.3-.1-.1,0-.3,0-.5,0s-.3,0-.4,0c-.1,0-.2,0-.3.2,0,0-.2.1-.2.2,0,0,0,.2,0,.3s0,.2.1.3.2.2.3.2c.1,0,.3.1.4.2s.3.1.5.2c.2,0,.3.1.5.2.2,0,.3.2.4.3.1.1.2.2.3.4s.1.3.1.5,0,.5-.1.7-.2.4-.4.5c-.2.1-.4.3-.6.4-.2,0-.5.1-.8.1s-.7,0-1-.2-.5-.3-.8-.5l.2-.3s0,0,0-.1c0,0,0,0,.1,0s.1,0,.2,0c0,0,.2.1.2.2,0,0,.2.1.4.2s.3,0,.5,0,.3,0,.5,0c.1,0,.2-.1.3-.2,0,0,.2-.2.2-.3s0-.2,0-.3,0-.3-.1-.4c0,0-.2-.2-.3-.2-.1,0-.3-.1-.4-.2-.2,0-.3-.1-.5-.2-.2,0-.3-.1-.5-.2-.2,0-.3-.2-.4-.3s-.2-.2-.3-.4c0-.2-.1-.3-.1-.6s0-.4.1-.6c0-.2.2-.3.4-.5.2-.1.4-.2.6-.3.2,0,.5-.1.8-.1s.7,0,.9.2c.3.1.5.3.7.4l-.2.3Z"/>
    <path class="st3" d="M429.3,82.5v-5.2h.6c.1,0,.2,0,.2.2v.5c.3-.2.5-.4.7-.6.2-.2.5-.2.8-.2s.6,0,.9.3.4.5.5.8c0-.2.2-.4.3-.5.1-.1.3-.3.4-.3s.3-.2.5-.2.3,0,.5,0c.3,0,.5,0,.7.1.2,0,.4.2.5.4s.3.4.3.6c0,.2.1.5.1.8v3.3h-.9v-3.3c0-.4,0-.7-.3-.9-.2-.2-.4-.3-.8-.3s-.3,0-.4,0c-.1,0-.3.1-.4.2-.1.1-.2.2-.2.4,0,.2,0,.3,0,.5v3.3h-.9v-3.3c0-.4,0-.7-.3-.9-.2-.2-.4-.3-.7-.3s-.4,0-.6.2c-.2.1-.4.3-.5.5v3.9h-.9Z"/>
    <path class="st3" d="M440,77.2c.4,0,.7,0,1,.2.3.1.6.3.8.5s.4.5.5.8c.1.3.2.7.2,1.1s0,.8-.2,1.1c-.1.3-.3.6-.5.8s-.5.4-.8.5c-.3.1-.6.2-1,.2s-.7,0-1-.2-.6-.3-.8-.5c-.2-.2-.4-.5-.5-.8-.1-.3-.2-.7-.2-1.1s0-.8.2-1.1.3-.6.5-.8c.2-.2.5-.4.8-.5.3-.1.7-.2,1-.2ZM440,81.8c.5,0,.9-.2,1.2-.5s.4-.8.4-1.4-.1-1.1-.4-1.5-.6-.5-1.2-.5-.5,0-.7.1c-.2,0-.4.2-.5.4s-.2.4-.3.6,0,.5,0,.8c0,.6.1,1.1.4,1.4s.6.5,1.2.5Z"/>
    <path class="st3" d="M449.9,78.2s0,0,0,0,0,0-.1,0-.1,0-.2,0c0,0-.1,0-.2-.1,0,0-.2,0-.3-.1s-.3,0-.5,0-.5,0-.7.1c-.2,0-.4.2-.5.4-.1.2-.2.4-.3.6,0,.2-.1.5-.1.8s0,.6.1.8.2.5.3.6c.1.2.3.3.5.4.2,0,.4.1.6.1s.4,0,.6,0c.1,0,.3-.1.4-.2,0,0,.2-.1.2-.2,0,0,.1,0,.2,0s.1,0,.2,0l.3.3c-.1.1-.2.3-.4.4-.1,0-.3.2-.5.2-.2,0-.3.1-.5.1s-.4,0-.6,0c-.3,0-.6,0-.9-.2-.3-.1-.5-.3-.7-.5-.2-.2-.4-.5-.5-.8-.1-.3-.2-.7-.2-1.1s0-.7.2-1.1c.1-.3.3-.6.5-.9.2-.2.5-.4.8-.6s.7-.2,1-.2.7,0,1,.2c.3.1.5.3.7.5l-.2.3Z"/>
    <path class="st3" d="M455.4,81.7c-.1.1-.2.3-.4.4-.2.1-.3.2-.5.2-.2,0-.4.1-.6.1-.2,0-.4,0-.6,0-.4,0-.7,0-1-.2-.3-.1-.6-.3-.8-.5-.2-.2-.4-.5-.5-.9-.1-.3-.2-.7-.2-1.2s0-.7.2-1c.1-.3.3-.6.5-.8s.5-.4.8-.5c.3-.1.6-.2,1-.2s.6,0,.9.2.5.3.7.5.3.4.5.7c.1.3.2.6.2,1s0,.2,0,.3c0,0,0,0-.2,0h-3.5c0,.3,0,.6.1.9,0,.2.2.4.3.6.1.2.3.3.5.4.2,0,.4.1.7.1s.4,0,.6,0c.2,0,.3-.1.4-.2s.2-.1.3-.2c0,0,.1,0,.2,0s.1,0,.2,0l.3.3ZM454.7,79.3c0-.2,0-.4,0-.6,0-.2-.1-.3-.3-.5-.1-.1-.3-.2-.4-.3-.2,0-.4-.1-.6-.1-.4,0-.8.1-1,.4-.3.3-.4.6-.5,1.1h2.9Z"/>
    <path class="st3" d="M457.6,74.9v7.6h-.9v-7.6h.9Z"/>
    <path class="st3" d="M463.3,77.3v5.2h-.5c-.1,0-.2,0-.2-.2v-.6c-.3.2-.6.5-.8.6-.3.2-.6.2-1,.2s-.5,0-.8-.1c-.2,0-.4-.2-.5-.4s-.3-.4-.3-.6c0-.2-.1-.5-.1-.8v-3.3h.9v3.3c0,.4,0,.7.3.9.2.2.5.3.8.3s.5,0,.8-.2c.2-.1.5-.3.7-.5v-3.8h.9Z"/>
    <path class="st3" d="M465.7,74.9v7.6h-.9v-7.6h.9Z"/>
    <path class="st3" d="M467.1,78c.3-.3.6-.5.9-.6.3-.1.7-.2,1.1-.2s.6,0,.8.1c.2,0,.4.2.6.4.2.2.3.4.3.6s.1.5.1.8v3.3h-.4c0,0-.2,0-.2,0s0,0-.1-.2v-.5c-.2.1-.4.2-.5.3-.1,0-.3.2-.4.2-.1,0-.3.1-.5.2s-.3,0-.5,0-.4,0-.6,0-.3-.1-.5-.3c-.1-.1-.2-.3-.3-.4,0-.2-.1-.4-.1-.6s0-.4.2-.6.3-.4.6-.5.6-.3,1-.4.9-.1,1.5-.2v-.4c0-.4,0-.7-.3-.9-.2-.2-.4-.3-.8-.3s-.4,0-.6,0c-.2,0-.3.1-.4.2-.1,0-.2.1-.3.2,0,0-.2,0-.2,0s-.1,0-.2,0c0,0,0,0-.1-.1l-.2-.3ZM470,80.1c-.4,0-.8,0-1.1.1-.3,0-.5.1-.7.2-.2,0-.3.2-.4.3,0,.1-.1.2-.1.4s0,.3,0,.4c0,0,.1.2.2.2,0,0,.2.1.3.1s.2,0,.3,0,.3,0,.4,0c.1,0,.3,0,.4-.1.1,0,.2-.1.3-.2.1,0,.2-.2.3-.3v-1.1Z"/>
    <path class="st3" d="M473.2,78.3c.2-.4.4-.6.6-.8.2-.2.5-.3.9-.3s.2,0,.3,0c.1,0,.2,0,.3.1v.7c0,0-.1.1-.2.1s-.1,0-.2,0c0,0-.2,0-.3,0s-.3,0-.4,0-.2.1-.3.2c-.1,0-.2.2-.3.4,0,.1-.2.3-.2.5v3.3h-.9v-5.2h.5c0,0,.2,0,.2,0,0,0,0,.1,0,.2v.8Z"/>
  </g>
  <path class="st3" d="M475.4,81.9c0,0,0-.2,0-.3,0,0,0-.1.1-.2,0,0,.1-.1.2-.1s.2,0,.3,0,.2,0,.3,0,.1,0,.2.1c0,0,.1.1.1.2s0,.2,0,.3,0,.2,0,.3,0,.1-.1.2-.1.1-.2.1c0,0-.2,0-.3,0s-.2,0-.3,0c0,0-.1,0-.2-.1s-.1-.1-.1-.2c0,0,0-.2,0-.3Z"/>
  <g>
    <path class="st3" d="M11.6,111c0,0,.1,0,.1,0l.4.4c-.3.3-.7.6-1.1.8-.4.2-1,.3-1.6.3s-1,0-1.4-.3-.8-.4-1.1-.8c-.3-.3-.5-.7-.7-1.2s-.3-1-.3-1.5,0-1.1.3-1.5c.2-.5.4-.9.7-1.2.3-.3.7-.6,1.1-.8.4-.2.9-.3,1.5-.3s1,0,1.4.3c.4.2.8.4,1.1.7l-.3.5s0,0,0,0c0,0,0,0-.1,0s-.1,0-.2-.1c0,0-.2-.1-.4-.2-.1,0-.3-.2-.5-.2-.2,0-.5-.1-.8-.1s-.7,0-1,.2c-.3.1-.6.3-.8.6-.2.3-.4.6-.5.9s-.2.8-.2,1.2,0,.9.2,1.2c.1.4.3.7.5.9s.5.4.8.6c.3.1.6.2,1,.2s.4,0,.6,0c.2,0,.3,0,.5-.1.1,0,.3-.1.4-.2.1,0,.3-.2.4-.3,0,0,.1,0,.2,0Z"/>
    <path class="st3" d="M13,108c.3-.3.6-.5.9-.6.3-.1.7-.2,1.1-.2s.6,0,.8.1c.2,0,.4.2.6.4.2.2.3.4.4.6,0,.2.1.5.1.8v3.3h-.4c0,0-.2,0-.2,0s0,0-.1-.2v-.5c-.2.1-.4.2-.5.3-.1,0-.3.2-.4.2-.1,0-.3.1-.5.2-.2,0-.3,0-.5,0s-.4,0-.6,0c-.2,0-.3-.1-.5-.3-.1-.1-.2-.3-.3-.4,0-.2-.1-.4-.1-.6s0-.4.2-.6c.1-.2.3-.4.6-.5s.6-.3,1-.4.9-.1,1.5-.2v-.4c0-.4,0-.7-.3-.9-.2-.2-.4-.3-.8-.3s-.4,0-.6,0c-.2,0-.3.1-.4.2-.1,0-.2.1-.3.2s-.2,0-.2,0-.1,0-.2,0c0,0,0,0-.1-.1l-.2-.3ZM15.9,110.1c-.4,0-.8,0-1.1.1-.3,0-.5.1-.7.2-.2,0-.3.2-.4.3,0,.1-.1.2-.1.4s0,.3,0,.4c0,0,.1.2.2.2,0,0,.2.1.3.1s.2,0,.3,0,.3,0,.4,0c.1,0,.3,0,.4-.1.1,0,.2-.1.3-.2.1,0,.2-.2.3-.3v-1.1Z"/>
    <path class="st3" d="M19.2,104.9v7.6h-.9v-7.6h.9Z"/>
    <path class="st3" d="M24.3,108.2s0,0,0,0c0,0,0,0-.1,0s-.1,0-.2,0c0,0-.1,0-.2-.1,0,0-.2,0-.3-.1-.1,0-.3,0-.5,0s-.5,0-.7.1c-.2,0-.4.2-.5.4-.1.2-.2.4-.3.6s-.1.5-.1.8,0,.6.1.8c0,.2.2.5.3.6.1.2.3.3.5.4.2,0,.4.1.6.1s.4,0,.6,0c.1,0,.3-.1.4-.2,0,0,.2-.1.2-.2,0,0,.1,0,.2,0s.1,0,.2,0l.3.3c-.1.1-.2.3-.4.4-.1,0-.3.2-.5.2-.2,0-.3.1-.5.1-.2,0-.4,0-.6,0-.3,0-.6,0-.9-.2-.3-.1-.5-.3-.7-.5-.2-.2-.4-.5-.5-.8s-.2-.7-.2-1.1,0-.7.2-1.1c.1-.3.3-.6.5-.9s.5-.4.8-.6c.3-.1.7-.2,1-.2s.7,0,1,.2c.3.1.5.3.7.5l-.2.3Z"/>
    <path class="st3" d="M26.7,105.6c0,0,0,.2,0,.2,0,0,0,.1-.1.2,0,0-.1.1-.2.1,0,0-.2,0-.3,0s-.2,0-.2,0c0,0-.1,0-.2-.1,0,0-.1-.1-.1-.2s0-.2,0-.2,0-.2,0-.3c0,0,0-.2.1-.2,0,0,.1-.1.2-.1s.2,0,.2,0,.2,0,.3,0,.2,0,.2.1c0,0,.1.1.1.2,0,0,0,.2,0,.3ZM26.5,107.3v5.2h-.9v-5.2h.9Z"/>
    <path class="st3" d="M29.6,112.6c-.4,0-.7-.1-.9-.3s-.3-.6-.3-1v-3.2h-.6c0,0-.1,0-.1,0,0,0,0,0,0-.2v-.4h.9c0-.1.2-1.7.2-1.7,0,0,0,0,0-.1,0,0,0,0,.1,0h.5v1.8h1.5v.7h-1.5v3.1c0,.2,0,.4.2.5.1.1.2.2.4.2s.2,0,.2,0c0,0,.1,0,.2,0,0,0,0,0,.1,0,0,0,0,0,0,0,0,0,0,0,.1,0l.3.4c-.2.1-.3.3-.6.3-.2,0-.5.1-.7.1Z"/>
    <path class="st3" d="M33.9,107.2c.4,0,.7,0,1,.2.3.1.6.3.8.5s.4.5.5.8c.1.3.2.7.2,1.1s0,.8-.2,1.1c-.1.3-.3.6-.5.8s-.5.4-.8.5c-.3.1-.6.2-1,.2s-.7,0-1-.2c-.3-.1-.6-.3-.8-.5-.2-.2-.4-.5-.5-.8-.1-.3-.2-.7-.2-1.1s0-.8.2-1.1.3-.6.5-.8c.2-.2.5-.4.8-.5.3-.1.7-.2,1-.2ZM33.9,111.8c.5,0,.9-.2,1.2-.5s.4-.8.4-1.4-.1-1.1-.4-1.5-.6-.5-1.2-.5-.5,0-.7.1-.4.2-.5.4c-.1.2-.2.4-.3.6s0,.5,0,.8c0,.6.1,1.1.4,1.4.3.3.6.5,1.2.5Z"/>
    <path class="st3" d="M38.4,108c.1-.1.2-.2.4-.3.1-.1.3-.2.4-.3.1,0,.3-.1.5-.2s.3,0,.5,0c.3,0,.5,0,.8.1.2,0,.4.2.5.4.1.2.3.4.3.6,0,.2.1.5.1.8v3.3h-.9v-3.3c0-.4,0-.7-.3-.9-.2-.2-.5-.3-.8-.3s-.5,0-.8.2c-.2.1-.5.3-.7.5v3.8h-.9v-5.2h.6c.1,0,.2,0,.2.2v.6Z"/>
    <path class="st3" d="M44.5,105.6c0,0,0,.2,0,.2,0,0,0,.1-.1.2,0,0-.1.1-.2.1,0,0-.2,0-.3,0s-.2,0-.2,0c0,0-.1,0-.2-.1,0,0-.1-.1-.1-.2s0-.2,0-.2,0-.2,0-.3c0,0,0-.2.1-.2,0,0,.1-.1.2-.1s.2,0,.2,0,.2,0,.3,0,.2,0,.2.1c0,0,.1.1.1.2,0,0,0,.2,0,.3ZM44.3,107.3v5.2h-.9v-5.2h.9Z"/>
    <path class="st3" d="M46.6,108c.1-.1.2-.2.4-.3.1-.1.3-.2.4-.3.1,0,.3-.1.5-.2s.3,0,.5,0c.3,0,.5,0,.8.1.2,0,.4.2.5.4.1.2.3.4.3.6,0,.2.1.5.1.8v3.3h-.9v-3.3c0-.4,0-.7-.3-.9-.2-.2-.5-.3-.8-.3s-.5,0-.8.2c-.2.1-.5.3-.7.5v3.8h-.9v-5.2h.6c.1,0,.2,0,.2.2v.6Z"/>
    <path class="st3" d="M51.4,108c.3-.3.6-.5.9-.6.3-.1.7-.2,1.1-.2s.6,0,.8.1c.2,0,.4.2.6.4.2.2.3.4.4.6,0,.2.1.5.1.8v3.3h-.4c0,0-.2,0-.2,0s0,0-.1-.2v-.5c-.2.1-.4.2-.5.3-.1,0-.3.2-.4.2-.1,0-.3.1-.5.2-.2,0-.3,0-.5,0s-.4,0-.6,0c-.2,0-.3-.1-.5-.3-.1-.1-.2-.3-.3-.4,0-.2-.1-.4-.1-.6s0-.4.2-.6c.1-.2.3-.4.6-.5s.6-.3,1-.4.9-.1,1.5-.2v-.4c0-.4,0-.7-.3-.9-.2-.2-.4-.3-.8-.3s-.4,0-.6,0c-.2,0-.3.1-.4.2-.1,0-.2.1-.3.2s-.2,0-.2,0-.1,0-.2,0c0,0,0,0-.1-.1l-.2-.3ZM54.3,110.1c-.4,0-.8,0-1.1.1-.3,0-.5.1-.7.2-.2,0-.3.2-.4.3,0,.1-.1.2-.1.4s0,.3,0,.4c0,0,.1.2.2.2,0,0,.2.1.3.1s.2,0,.3,0,.3,0,.4,0c.1,0,.3,0,.4-.1.1,0,.2-.1.3-.2.1,0,.2-.2.3-.3v-1.1Z"/>
  </g>
  <path class="st3" d="M184.9,112.5h-.9c-.2,0-.3,0-.4-.2l-1.9-2.6c0,0-.1-.1-.2-.2,0,0-.2,0-.3,0h-.8v3.1h-1v-7.4h2.1c.5,0,.9,0,1.2.1.3,0,.6.2.8.4.2.2.4.4.5.6s.2.5.2.8,0,.5-.1.7c0,.2-.2.4-.4.6-.2.2-.3.3-.6.5s-.5.2-.8.3c.1,0,.2.2.3.3l2.2,2.9ZM181.5,108.7c.3,0,.5,0,.8-.1s.4-.2.6-.3c.1-.1.3-.3.3-.5,0-.2.1-.4.1-.6,0-.4-.1-.8-.4-1-.3-.2-.7-.3-1.3-.3h-1.1v2.8h1Z"/>
  <g>
    <path class="st3" d="M189.6,111.7c-.1.1-.2.3-.4.4-.2.1-.3.2-.5.2-.2,0-.4.1-.6.1-.2,0-.4,0-.6,0-.4,0-.7,0-1-.2-.3-.1-.6-.3-.8-.5-.2-.2-.4-.5-.5-.9-.1-.3-.2-.7-.2-1.2s0-.7.2-1,.3-.6.5-.8c.2-.2.5-.4.8-.5.3-.1.6-.2,1-.2s.6,0,.9.2.5.3.7.5.3.4.5.7c.1.3.2.6.2,1s0,.2,0,.3,0,0-.2,0h-3.5c0,.3,0,.6.1.9,0,.2.2.4.3.6.1.2.3.3.5.4.2,0,.4.1.7.1s.4,0,.6,0c.2,0,.3-.1.4-.2s.2-.1.3-.2c0,0,.1,0,.2,0s.1,0,.2,0l.3.3ZM188.9,109.3c0-.2,0-.4,0-.6s-.1-.3-.3-.5c-.1-.1-.3-.2-.4-.3s-.4-.1-.6-.1c-.4,0-.8.1-1,.4-.3.3-.4.6-.5,1.1h2.9Z"/>
    <path class="st3" d="M195.2,107.5v.3c0,.1,0,.2-.2.2h-.6c.1.3.2.6.2.8s0,.5-.1.7c0,.2-.2.4-.4.5s-.4.3-.6.3c-.2,0-.5.1-.8.1s-.5,0-.7,0c-.1,0-.2.1-.3.2,0,0,0,.2,0,.2,0,.1,0,.2.2.3.1,0,.2.1.4.1.2,0,.4,0,.6,0s.4,0,.6,0,.4,0,.6,0,.4,0,.6.2c.2,0,.3.2.4.4.1.2.2.3.2.6s0,.4-.2.6c-.1.2-.3.4-.5.6-.2.2-.5.3-.8.4-.3,0-.6.1-1,.1s-.7,0-1-.1-.5-.2-.7-.3c-.2-.1-.3-.3-.4-.4,0-.2-.1-.3-.1-.5,0-.3,0-.5.2-.7.2-.2.4-.3.7-.4-.2,0-.3-.2-.4-.3,0-.1-.1-.3-.1-.5s0-.2,0-.2c0,0,0-.2.1-.2,0,0,.1-.2.2-.2,0,0,.2-.1.3-.2-.3-.1-.5-.3-.6-.6s-.2-.5-.2-.8,0-.5.1-.7c0-.2.2-.4.4-.5.2-.1.4-.3.6-.3.2,0,.5-.1.8-.1s.4,0,.6,0c.2,0,.4.1.5.2h1.4ZM194.3,112.8c0-.1,0-.2-.1-.3,0,0-.2-.1-.3-.2-.1,0-.3,0-.4,0-.2,0-.3,0-.5,0-.2,0-.4,0-.5,0-.2,0-.4,0-.5,0-.2,0-.3.2-.5.3-.1.1-.2.3-.2.5s0,.2,0,.3c0,.1.2.2.3.3.1,0,.3.1.5.2s.4,0,.7,0,.5,0,.7,0c.2,0,.4-.1.5-.2.1,0,.2-.2.3-.3,0-.1.1-.2.1-.4ZM192.6,109.9c.2,0,.3,0,.5,0s.3-.1.4-.2c0,0,.2-.2.2-.3,0-.1,0-.3,0-.4,0-.3,0-.6-.3-.8-.2-.2-.5-.3-.8-.3s-.7,0-.8.3c-.2.2-.3.4-.3.8s0,.3,0,.4c0,.1.1.2.2.3,0,0,.2.2.4.2s.3,0,.5,0Z"/>
    <path class="st3" d="M200.4,107.3v5.2h-.5c-.1,0-.2,0-.2-.2v-.6c-.3.2-.6.5-.8.6-.3.2-.6.2-1,.2s-.5,0-.8-.1c-.2,0-.4-.2-.5-.4-.1-.2-.3-.4-.3-.6,0-.2-.1-.5-.1-.8v-3.3h.9v3.3c0,.4,0,.7.3.9s.5.3.8.3.5,0,.8-.2c.2-.1.5-.3.7-.5v-3.8h.9Z"/>
    <path class="st3" d="M202.8,104.9v7.6h-.9v-7.6h.9Z"/>
    <path class="st3" d="M204.2,108c.3-.3.6-.5.9-.6.3-.1.7-.2,1.1-.2s.6,0,.8.1c.2,0,.4.2.6.4.2.2.3.4.3.6s.1.5.1.8v3.3h-.4c0,0-.2,0-.2,0s0,0-.1-.2v-.5c-.2.1-.4.2-.5.3-.1,0-.3.2-.4.2-.1,0-.3.1-.5.2s-.3,0-.5,0-.4,0-.6,0-.3-.1-.5-.3c-.1-.1-.2-.3-.3-.4,0-.2-.1-.4-.1-.6s0-.4.2-.6.3-.4.6-.5.6-.3,1-.4.9-.1,1.5-.2v-.4c0-.4,0-.7-.3-.9-.2-.2-.4-.3-.8-.3s-.4,0-.6,0c-.2,0-.3.1-.4.2-.1,0-.2.1-.3.2,0,0-.2,0-.2,0s-.1,0-.2,0c0,0,0,0-.1-.1l-.2-.3ZM207.1,110.1c-.4,0-.8,0-1.1.1-.3,0-.5.1-.7.2-.2,0-.3.2-.4.3,0,.1-.1.2-.1.4s0,.3,0,.4c0,0,.1.2.2.2,0,0,.2.1.3.1s.2,0,.3,0,.3,0,.4,0c.1,0,.3,0,.4-.1.1,0,.2-.1.3-.2.1,0,.2-.2.3-.3v-1.1Z"/>
    <path class="st3" d="M211.9,108c.3-.3.6-.5.9-.6.3-.1.7-.2,1.1-.2s.6,0,.8.1c.2,0,.4.2.6.4.2.2.3.4.3.6s.1.5.1.8v3.3h-.4c0,0-.2,0-.2,0s0,0-.1-.2v-.5c-.2.1-.4.2-.5.3-.1,0-.3.2-.4.2-.1,0-.3.1-.5.2s-.3,0-.5,0-.4,0-.6,0-.3-.1-.5-.3c-.1-.1-.2-.3-.3-.4,0-.2-.1-.4-.1-.6s0-.4.2-.6.3-.4.6-.5.6-.3,1-.4.9-.1,1.5-.2v-.4c0-.4,0-.7-.3-.9-.2-.2-.4-.3-.8-.3s-.4,0-.6,0c-.2,0-.3.1-.4.2-.1,0-.2.1-.3.2,0,0-.2,0-.2,0s-.1,0-.2,0c0,0,0,0-.1-.1l-.2-.3ZM214.9,110.1c-.4,0-.8,0-1.1.1-.3,0-.5.1-.7.2-.2,0-.3.2-.4.3,0,.1-.1.2-.1.4s0,.3,0,.4c0,0,.1.2.2.2,0,0,.2.1.3.1s.2,0,.3,0,.3,0,.4,0c.1,0,.3,0,.4-.1.1,0,.2-.1.3-.2.1,0,.2-.2.3-.3v-1.1Z"/>
    <path class="st3" d="M224.1,107.3v7h-.9v-2.5c-.2.3-.5.5-.7.6s-.6.2-1,.2-.6,0-.8-.2c-.2-.1-.5-.3-.6-.5s-.3-.5-.4-.8c0-.3-.1-.7-.1-1.1s0-.7.2-1.1c.1-.3.2-.6.4-.9.2-.2.4-.4.7-.6.3-.1.6-.2.9-.2s.6,0,.9.2c.2.1.4.3.6.5v-.4c0-.1.2-.2.3-.2h.5ZM223.2,108.5c-.2-.2-.3-.4-.6-.5-.2,0-.4-.1-.7-.1-.5,0-.9.2-1.1.5-.3.3-.4.8-.4,1.5s0,.6,0,.9c0,.2.1.4.3.6.1.2.3.3.4.3.2,0,.4.1.6.1.3,0,.6,0,.8-.2.2-.1.4-.3.6-.6v-2.5Z"/>
    <path class="st3" d="M229.9,107.3v5.2h-.5c-.1,0-.2,0-.2-.2v-.6c-.3.2-.6.5-.8.6-.3.2-.6.2-1,.2s-.5,0-.8-.1c-.2,0-.4-.2-.5-.4s-.3-.4-.3-.6c0-.2-.1-.5-.1-.8v-3.3h.9v3.3c0,.4,0,.7.3.9.2.2.5.3.8.3s.5,0,.8-.2c.2-.1.5-.3.7-.5v-3.8h.9Z"/>
    <path class="st3" d="M231.2,108c.3-.3.6-.5.9-.6.3-.1.7-.2,1.1-.2s.6,0,.8.1c.2,0,.4.2.6.4.2.2.3.4.3.6s.1.5.1.8v3.3h-.4c0,0-.2,0-.2,0s0,0-.1-.2v-.5c-.2.1-.4.2-.5.3-.1,0-.3.2-.4.2-.1,0-.3.1-.5.2s-.3,0-.5,0-.4,0-.6,0-.3-.1-.5-.3c-.1-.1-.2-.3-.3-.4,0-.2-.1-.4-.1-.6s0-.4.2-.6.3-.4.6-.5.6-.3,1-.4.9-.1,1.5-.2v-.4c0-.4,0-.7-.3-.9-.2-.2-.4-.3-.8-.3s-.4,0-.6,0c-.2,0-.3.1-.4.2-.1,0-.2.1-.3.2,0,0-.2,0-.2,0s-.1,0-.2,0c0,0,0,0-.1-.1l-.2-.3ZM234.1,110.1c-.4,0-.8,0-1.1.1-.3,0-.5.1-.7.2-.2,0-.3.2-.4.3,0,.1-.1.2-.1.4s0,.3,0,.4c0,0,.1.2.2.2,0,0,.2.1.3.1s.2,0,.3,0,.3,0,.4,0c.1,0,.3,0,.4-.1.1,0,.2-.1.3-.2.1,0,.2-.2.3-.3v-1.1Z"/>
    <path class="st3" d="M237.3,108c.1-.1.2-.2.4-.3.1-.1.3-.2.4-.3.1,0,.3-.1.5-.2s.3,0,.5,0c.3,0,.5,0,.8.1.2,0,.4.2.5.4.1.2.3.4.3.6,0,.2.1.5.1.8v3.3h-.9v-3.3c0-.4,0-.7-.3-.9-.2-.2-.5-.3-.8-.3s-.5,0-.8.2c-.2.1-.5.3-.7.5v3.8h-.9v-5.2h.6c.1,0,.2,0,.2.2v.6Z"/>
  </g>
  <path class="st3" d="M246.9,107.4h-3.6v-1.8h-.5c0,0-.1,0-.1,0,0,0,0,0,0,.1l-.2,1.6h-.9v.5c0,0,0,.1,0,.2s0,0,.1,0h.6v3.2c0,.4.1.8.3,1,.2.2.5.3.9.3s.5,0,.7-.1.4-.2.6-.3l-.3-.4c0,0,0,0-.1,0s0,0,0,0c0,0,0,0-.1,0s-.1,0-.2,0c0,0-.2,0-.2,0-.2,0-.3,0-.4-.2-.1-.1-.2-.3-.2-.5v-3.1h2.7v4.4h.9v-5.1ZM247.1,105.3c0,0,0-.1-.1-.2s-.1-.1-.2-.1-.2,0-.2,0-.2,0-.3,0c0,0-.1,0-.2.1,0,0-.1.1-.1.2s0,.2,0,.3,0,.2,0,.2c0,0,0,.1.1.2,0,0,.1.1.2.1,0,0,.2,0,.3,0s.2,0,.2,0c0,0,.1,0,.2-.1s.1-.1.1-.2c0,0,0-.2,0-.2s0-.2,0-.3h0Z"/>
  <g>
    <path class="st3" d="M252.7,104.9v7.6h-.5c-.1,0-.2,0-.2-.2v-.6c-.3.3-.6.5-.8.6-.3.2-.6.2-1,.2s-.6,0-.8-.2c-.2-.1-.5-.3-.6-.5s-.3-.5-.4-.8c0-.3-.1-.7-.1-1.1s0-.7.2-1.1c.1-.3.2-.6.4-.9.2-.2.4-.4.7-.6.3-.1.6-.2.9-.2s.6,0,.8.2c.2.1.4.3.6.5v-2.9h.9ZM251.8,108.5c-.2-.2-.4-.4-.6-.5s-.4-.1-.7-.1c-.5,0-.9.2-1.1.5-.3.3-.4.8-.4,1.5s0,.6,0,.9c0,.2.1.4.3.6.1.2.3.3.4.3.2,0,.4.1.6.1.3,0,.6,0,.8-.2.2-.1.4-.3.6-.6v-2.5Z"/>
    <path class="st3" d="M254.1,108c.3-.3.6-.5.9-.6.3-.1.7-.2,1.1-.2s.6,0,.8.1c.2,0,.4.2.6.4.2.2.3.4.3.6s.1.5.1.8v3.3h-.4c0,0-.2,0-.2,0s0,0-.1-.2v-.5c-.2.1-.4.2-.5.3-.1,0-.3.2-.4.2-.1,0-.3.1-.5.2s-.3,0-.5,0-.4,0-.6,0-.3-.1-.5-.3c-.1-.1-.2-.3-.3-.4,0-.2-.1-.4-.1-.6s0-.4.2-.6.3-.4.6-.5.6-.3,1-.4.9-.1,1.5-.2v-.4c0-.4,0-.7-.3-.9-.2-.2-.4-.3-.8-.3s-.4,0-.6,0c-.2,0-.3.1-.4.2-.1,0-.2.1-.3.2,0,0-.2,0-.2,0s-.1,0-.2,0c0,0,0,0-.1-.1l-.2-.3ZM257,110.1c-.4,0-.8,0-1.1.1-.3,0-.5.1-.7.2-.2,0-.3.2-.4.3,0,.1-.1.2-.1.4s0,.3,0,.4c0,0,.1.2.2.2,0,0,.2.1.3.1s.2,0,.3,0,.3,0,.4,0c.1,0,.3,0,.4-.1.1,0,.2-.1.3-.2.1,0,.2-.2.3-.3v-1.1Z"/>
    <path class="st3" d="M263.6,104.9v7.6h-.5c-.1,0-.2,0-.2-.2v-.6c-.3.3-.6.5-.8.6-.3.2-.6.2-1,.2s-.6,0-.8-.2c-.2-.1-.5-.3-.6-.5s-.3-.5-.4-.8c0-.3-.1-.7-.1-1.1s0-.7.2-1.1c.1-.3.2-.6.4-.9.2-.2.4-.4.7-.6.3-.1.6-.2.9-.2s.6,0,.8.2c.2.1.4.3.6.5v-2.9h.9ZM262.7,108.5c-.2-.2-.4-.4-.6-.5s-.4-.1-.7-.1c-.5,0-.9.2-1.1.5-.3.3-.4.8-.4,1.5s0,.6,0,.9c0,.2.1.4.3.6.1.2.3.3.4.3.2,0,.4.1.6.1.3,0,.6,0,.8-.2.2-.1.4-.3.6-.6v-2.5Z"/>
    <path class="st3" d="M269.3,111.7c-.1.1-.2.3-.4.4-.2.1-.3.2-.5.2-.2,0-.4.1-.6.1-.2,0-.4,0-.6,0-.4,0-.7,0-1-.2-.3-.1-.6-.3-.8-.5-.2-.2-.4-.5-.5-.9-.1-.3-.2-.7-.2-1.2s0-.7.2-1c.1-.3.3-.6.5-.8s.5-.4.8-.5c.3-.1.6-.2,1-.2s.6,0,.9.2.5.3.7.5.3.4.5.7c.1.3.2.6.2,1s0,.2,0,.3c0,0,0,0-.2,0h-3.5c0,.3,0,.6.1.9,0,.2.2.4.3.6.1.2.3.3.5.4.2,0,.4.1.7.1s.4,0,.6,0c.2,0,.3-.1.4-.2s.2-.1.3-.2c0,0,.1,0,.2,0s.1,0,.2,0l.3.3ZM268.6,109.3c0-.2,0-.4,0-.6,0-.2-.1-.3-.3-.5-.1-.1-.3-.2-.4-.3-.2,0-.4-.1-.6-.1-.4,0-.8.1-1,.4-.3.3-.4.6-.5,1.1h2.9Z"/>
    <path class="st3" d="M277.4,104.9v7.6h-.5c-.1,0-.2,0-.2-.2v-.6c-.3.3-.6.5-.8.6-.3.2-.6.2-1,.2s-.6,0-.8-.2c-.2-.1-.5-.3-.6-.5s-.3-.5-.4-.8c0-.3-.1-.7-.1-1.1s0-.7.2-1.1c.1-.3.2-.6.4-.9.2-.2.4-.4.7-.6.3-.1.6-.2.9-.2s.6,0,.8.2c.2.1.4.3.6.5v-2.9h.9ZM276.5,108.5c-.2-.2-.4-.4-.6-.5s-.4-.1-.7-.1c-.5,0-.9.2-1.1.5-.3.3-.4.8-.4,1.5s0,.6,0,.9c0,.2.1.4.3.6.1.2.3.3.4.3.2,0,.4.1.6.1.3,0,.6,0,.8-.2.2-.1.4-.3.6-.6v-2.5Z"/>
    <path class="st3" d="M283.1,111.7c-.1.1-.2.3-.4.4-.2.1-.3.2-.5.2-.2,0-.4.1-.6.1-.2,0-.4,0-.6,0-.4,0-.7,0-1-.2-.3-.1-.6-.3-.8-.5-.2-.2-.4-.5-.5-.9-.1-.3-.2-.7-.2-1.2s0-.7.2-1c.1-.3.3-.6.5-.8s.5-.4.8-.5c.3-.1.6-.2,1-.2s.6,0,.9.2.5.3.7.5.3.4.5.7c.1.3.2.6.2,1s0,.2,0,.3c0,0,0,0-.2,0h-3.5c0,.3,0,.6.1.9,0,.2.2.4.3.6.1.2.3.3.5.4.2,0,.4.1.7.1s.4,0,.6,0c.2,0,.3-.1.4-.2s.2-.1.3-.2c0,0,.1,0,.2,0s.1,0,.2,0l.3.3ZM282.4,109.3c0-.2,0-.4,0-.6,0-.2-.1-.3-.3-.5-.1-.1-.3-.2-.4-.3-.2,0-.4-.1-.6-.1-.4,0-.8.1-1,.4-.3.3-.4.6-.5,1.1h2.9Z"/>
    <path class="st3" d="M290.6,108.2s0,0,0,0,0,0-.1,0-.1,0-.2,0c0,0-.1,0-.2-.1,0,0-.2,0-.3-.1s-.3,0-.5,0-.5,0-.7.1c-.2,0-.4.2-.5.4-.1.2-.2.4-.3.6,0,.2-.1.5-.1.8s0,.6.1.8.2.5.3.6c.1.2.3.3.5.4.2,0,.4.1.6.1s.4,0,.6,0c.1,0,.3-.1.4-.2,0,0,.2-.1.2-.2,0,0,.1,0,.2,0s.1,0,.2,0l.3.3c-.1.1-.2.3-.4.4-.1,0-.3.2-.5.2-.2,0-.3.1-.5.1s-.4,0-.6,0c-.3,0-.6,0-.9-.2-.3-.1-.5-.3-.7-.5-.2-.2-.4-.5-.5-.8-.1-.3-.2-.7-.2-1.1s0-.7.2-1.1c.1-.3.3-.6.5-.9.2-.2.5-.4.8-.6s.7-.2,1-.2.7,0,1,.2c.3.1.5.3.7.5l-.2.3Z"/>
    <path class="st3" d="M291.7,108c.3-.3.6-.5.9-.6.3-.1.7-.2,1.1-.2s.6,0,.8.1c.2,0,.4.2.6.4.2.2.3.4.3.6s.1.5.1.8v3.3h-.4c0,0-.2,0-.2,0s0,0-.1-.2v-.5c-.2.1-.4.2-.5.3-.1,0-.3.2-.4.2-.1,0-.3.1-.5.2s-.3,0-.5,0-.4,0-.6,0-.3-.1-.5-.3c-.1-.1-.2-.3-.3-.4,0-.2-.1-.4-.1-.6s0-.4.2-.6.3-.4.6-.5.6-.3,1-.4.9-.1,1.5-.2v-.4c0-.4,0-.7-.3-.9-.2-.2-.4-.3-.8-.3s-.4,0-.6,0c-.2,0-.3.1-.4.2-.1,0-.2.1-.3.2,0,0-.2,0-.2,0s-.1,0-.2,0c0,0,0,0-.1-.1l-.2-.3ZM294.7,110.1c-.4,0-.8,0-1.1.1-.3,0-.5.1-.7.2-.2,0-.3.2-.4.3,0,.1-.1.2-.1.4s0,.3,0,.4c0,0,.1.2.2.2,0,0,.2.1.3.1s.2,0,.3,0,.3,0,.4,0c.1,0,.3,0,.4-.1.1,0,.2-.1.3-.2.1,0,.2-.2.3-.3v-1.1ZM295.2,105l-1.2,1.3c0,0,0,0-.1.1s-.1,0-.2,0h-.5l.8-1.2c0,0,.1-.1.2-.2s.1,0,.2,0h.9Z"/>
    <path class="st3" d="M297.9,104.9v7.6h-.9v-7.6h.9Z"/>
    <path class="st3" d="M303,108.2s0,0,0,0,0,0-.1,0-.1,0-.2,0c0,0-.1,0-.2-.1,0,0-.2,0-.3-.1s-.3,0-.5,0-.5,0-.7.1c-.2,0-.4.2-.5.4-.1.2-.2.4-.3.6,0,.2-.1.5-.1.8s0,.6.1.8.2.5.3.6c.1.2.3.3.5.4.2,0,.4.1.6.1s.4,0,.6,0c.1,0,.3-.1.4-.2,0,0,.2-.1.2-.2,0,0,.1,0,.2,0s.1,0,.2,0l.3.3c-.1.1-.2.3-.4.4-.1,0-.3.2-.5.2-.2,0-.3.1-.5.1s-.4,0-.6,0c-.3,0-.6,0-.9-.2-.3-.1-.5-.3-.7-.5-.2-.2-.4-.5-.5-.8-.1-.3-.2-.7-.2-1.1s0-.7.2-1.1c.1-.3.3-.6.5-.9.2-.2.5-.4.8-.6s.7-.2,1-.2.7,0,1,.2c.3.1.5.3.7.5l-.2.3Z"/>
    <path class="st3" d="M305.5,105.6c0,0,0,.2,0,.2s0,.1-.1.2c0,0-.1.1-.2.1,0,0-.2,0-.3,0s-.2,0-.2,0c0,0-.1,0-.2-.1,0,0-.1-.1-.1-.2s0-.2,0-.2,0-.2,0-.3c0,0,0-.2.1-.2,0,0,.1-.1.2-.1s.2,0,.2,0,.2,0,.3,0c0,0,.2,0,.2.1s.1.1.1.2c0,0,0,.2,0,.3ZM305.3,107.3v5.2h-.9v-5.2h.9Z"/>
    <path class="st3" d="M309,107.2c.4,0,.7,0,1,.2.3.1.6.3.8.5s.4.5.5.8c.1.3.2.7.2,1.1s0,.8-.2,1.1c-.1.3-.3.6-.5.8s-.5.4-.8.5c-.3.1-.6.2-1,.2s-.7,0-1-.2-.6-.3-.8-.5c-.2-.2-.4-.5-.5-.8-.1-.3-.2-.7-.2-1.1s0-.8.2-1.1.3-.6.5-.8c.2-.2.5-.4.8-.5.3-.1.7-.2,1-.2ZM309,111.8c.5,0,.9-.2,1.2-.5s.4-.8.4-1.4-.1-1.1-.4-1.5-.6-.5-1.2-.5-.5,0-.7.1c-.2,0-.4.2-.5.4s-.2.4-.3.6,0,.5,0,.8c0,.6.1,1.1.4,1.4s.6.5,1.2.5Z"/>
    <path class="st3" d="M319.5,111.7c-.1.1-.2.3-.4.4-.2.1-.3.2-.5.2-.2,0-.4.1-.6.1-.2,0-.4,0-.6,0-.4,0-.7,0-1-.2-.3-.1-.6-.3-.8-.5-.2-.2-.4-.5-.5-.9-.1-.3-.2-.7-.2-1.2s0-.7.2-1c.1-.3.3-.6.5-.8s.5-.4.8-.5c.3-.1.6-.2,1-.2s.6,0,.9.2.5.3.7.5.3.4.5.7c.1.3.2.6.2,1s0,.2,0,.3c0,0,0,0-.2,0h-3.5c0,.3,0,.6.1.9,0,.2.2.4.3.6.1.2.3.3.5.4.2,0,.4.1.7.1s.4,0,.6,0c.2,0,.3-.1.4-.2s.2-.1.3-.2c0,0,.1,0,.2,0s.1,0,.2,0l.3.3ZM318.8,109.3c0-.2,0-.4,0-.6,0-.2-.1-.3-.3-.5-.1-.1-.3-.2-.4-.3-.2,0-.4-.1-.6-.1-.4,0-.8.1-1,.4-.3.3-.4.6-.5,1.1h2.9Z"/>
    <path class="st3" d="M323.7,112.5v-4.4h-.6c0,0-.1-.1-.2-.1,0,0,0,0,0-.2v-.4h.8v-.5c0-.3,0-.6.1-.8s.2-.4.4-.6c.2-.2.3-.3.6-.4.2,0,.5-.1.7-.1s.4,0,.6.1v.5c0,0,0,.1-.2.1s-.2,0-.3,0-.3,0-.4,0c-.1,0-.2.1-.3.2s-.2.2-.2.4,0,.3,0,.6v.5h1.5v.7h-1.5v4.4h-.9Z"/>
  </g>
  <g>
    <path class="st3" d="M329,107.2c.4,0,.7,0,1,.2.3.1.6.3.8.5s.4.5.5.8c.1.3.2.7.2,1.1s0,.8-.2,1.1c-.1.3-.3.6-.5.8s-.5.4-.8.5c-.3.1-.6.2-1,.2s-.7,0-1-.2-.6-.3-.8-.5c-.2-.2-.4-.5-.5-.8-.1-.3-.2-.7-.2-1.1s0-.8.2-1.1.3-.6.5-.8c.2-.2.5-.4.8-.5.3-.1.7-.2,1-.2ZM329,111.8c.5,0,.9-.2,1.2-.5s.4-.8.4-1.4-.1-1.1-.4-1.5-.6-.5-1.2-.5-.5,0-.7.1c-.2,0-.4.2-.5.4s-.2.4-.3.6,0,.5,0,.8c0,.6.1,1.1.4,1.4s.6.5,1.2.5ZM330.5,105l-1.2,1.3c0,0,0,0-.1.1,0,0-.1,0-.2,0h-.5l.8-1.2c0,0,.1-.1.2-.2s.1,0,.2,0h.9Z"/>
    <path class="st3" d="M335.6,108.1c0,0-.1.1-.2.1s-.1,0-.2,0c0,0-.1,0-.2-.1,0,0-.2,0-.3-.1-.1,0-.3,0-.5,0s-.3,0-.4,0c-.1,0-.2,0-.3.2,0,0-.2.1-.2.2,0,0,0,.2,0,.3s0,.2.1.3.2.2.3.2c.1,0,.3.1.4.2s.3.1.5.2c.2,0,.3.1.5.2.2,0,.3.2.4.3.1.1.2.2.3.4s.1.3.1.5,0,.5-.1.7-.2.4-.4.5c-.2.1-.4.3-.6.4-.2,0-.5.1-.8.1s-.7,0-1-.2-.5-.3-.8-.5l.2-.3s0,0,0-.1c0,0,0,0,.1,0s.1,0,.2,0c0,0,.2.1.2.2,0,0,.2.1.4.2s.3,0,.5,0,.3,0,.5,0c.1,0,.2-.1.3-.2,0,0,.2-.2.2-.3s0-.2,0-.3,0-.3-.1-.4c0,0-.2-.2-.3-.2-.1,0-.3-.1-.4-.2-.2,0-.3-.1-.5-.2-.2,0-.3-.1-.5-.2-.2,0-.3-.2-.4-.3s-.2-.2-.3-.4c0-.2-.1-.3-.1-.6s0-.4.1-.6c0-.2.2-.3.4-.5.2-.1.4-.2.6-.3.2,0,.5-.1.8-.1s.7,0,.9.2c.3.1.5.3.7.4l-.2.3Z"/>
    <path class="st3" d="M337.4,112.5v-4.4h-.6c0,0-.1-.1-.2-.1,0,0,0,0,0-.2v-.4h.8v-.5c0-.3,0-.6.1-.8s.2-.4.4-.6c.2-.2.3-.3.6-.4.2,0,.5-.1.7-.1s.4,0,.6.1v.5c0,0,0,.1-.2.1s-.2,0-.3,0-.3,0-.4,0c-.1,0-.2.1-.3.2s-.2.2-.2.4,0,.3,0,.6v.5h1.5v.7h-1.5v4.4h-.9Z"/>
  </g>
  <g>
    <path class="st3" d="M342.7,107.2c.4,0,.7,0,1,.2.3.1.6.3.8.5s.4.5.5.8c.1.3.2.7.2,1.1s0,.8-.2,1.1c-.1.3-.3.6-.5.8s-.5.4-.8.5c-.3.1-.6.2-1,.2s-.7,0-1-.2-.6-.3-.8-.5c-.2-.2-.4-.5-.5-.8-.1-.3-.2-.7-.2-1.1s0-.8.2-1.1.3-.6.5-.8c.2-.2.5-.4.8-.5.3-.1.7-.2,1-.2ZM342.7,111.8c.5,0,.9-.2,1.2-.5s.4-.8.4-1.4-.1-1.1-.4-1.5-.6-.5-1.2-.5-.5,0-.7.1c-.2,0-.4.2-.5.4s-.2.4-.3.6,0,.5,0,.8c0,.6.1,1.1.4,1.4s.6.5,1.2.5Z"/>
    <path class="st3" d="M347.2,108.3c.2-.4.4-.6.6-.8.2-.2.5-.3.9-.3s.2,0,.3,0c.1,0,.2,0,.3.1v.7c0,0-.1.1-.2.1s-.1,0-.2,0c0,0-.2,0-.3,0s-.3,0-.4,0-.2.1-.3.2c-.1,0-.2.2-.3.4,0,.1-.2.3-.2.5v3.3h-.9v-5.2h.5c0,0,.2,0,.2,0,0,0,0,.1,0,.2v.8Z"/>
  </g>
  <g>
    <path class="st3" d="M352.1,107.2c.4,0,.7,0,1,.2.3.1.6.3.8.5s.4.5.5.8c.1.3.2.7.2,1.1s0,.8-.2,1.1c-.1.3-.3.6-.5.8s-.5.4-.8.5c-.3.1-.6.2-1,.2s-.7,0-1-.2-.6-.3-.8-.5c-.2-.2-.4-.5-.5-.8-.1-.3-.2-.7-.2-1.1s0-.8.2-1.1.3-.6.5-.8c.2-.2.5-.4.8-.5.3-.1.7-.2,1-.2ZM352.1,111.8c.5,0,.9-.2,1.2-.5s.4-.8.4-1.4-.1-1.1-.4-1.5-.6-.5-1.2-.5-.5,0-.7.1c-.2,0-.4.2-.5.4s-.2.4-.3.6,0,.5,0,.8c0,.6.1,1.1.4,1.4s.6.5,1.2.5Z"/>
    <path class="st3" d="M361.4,108.1c0,0-.1.1-.2.1s-.1,0-.2,0c0,0-.1,0-.2-.1,0,0-.2,0-.3-.1-.1,0-.3,0-.5,0s-.3,0-.4,0c-.1,0-.2,0-.3.2,0,0-.2.1-.2.2,0,0,0,.2,0,.3s0,.2.1.3.2.2.3.2c.1,0,.3.1.4.2s.3.1.5.2c.2,0,.3.1.5.2.2,0,.3.2.4.3.1.1.2.2.3.4s.1.3.1.5,0,.5-.1.7-.2.4-.4.5c-.2.1-.4.3-.6.4-.2,0-.5.1-.8.1s-.7,0-1-.2-.5-.3-.8-.5l.2-.3s0,0,0-.1c0,0,0,0,.1,0s.1,0,.2,0c0,0,.2.1.2.2,0,0,.2.1.4.2s.3,0,.5,0,.3,0,.5,0c.1,0,.2-.1.3-.2,0,0,.2-.2.2-.3s0-.2,0-.3,0-.3-.1-.4c0,0-.2-.2-.3-.2-.1,0-.3-.1-.4-.2-.2,0-.3-.1-.5-.2-.2,0-.3-.1-.5-.2-.2,0-.3-.2-.4-.3s-.2-.2-.3-.4c0-.2-.1-.3-.1-.6s0-.4.1-.6c0-.2.2-.3.4-.5.2-.1.4-.2.6-.3.2,0,.5-.1.8-.1s.7,0,.9.2c.3.1.5.3.7.4l-.2.3Z"/>
    <path class="st3" d="M362.7,108c.3-.3.6-.5.9-.6.3-.1.7-.2,1.1-.2s.6,0,.8.1c.2,0,.4.2.6.4.2.2.3.4.3.6s.1.5.1.8v3.3h-.4c0,0-.2,0-.2,0s0,0-.1-.2v-.5c-.2.1-.4.2-.5.3-.1,0-.3.2-.4.2-.1,0-.3.1-.5.2s-.3,0-.5,0-.4,0-.6,0-.3-.1-.5-.3c-.1-.1-.2-.3-.3-.4,0-.2-.1-.4-.1-.6s0-.4.2-.6.3-.4.6-.5.6-.3,1-.4.9-.1,1.5-.2v-.4c0-.4,0-.7-.3-.9-.2-.2-.4-.3-.8-.3s-.4,0-.6,0c-.2,0-.3.1-.4.2-.1,0-.2.1-.3.2,0,0-.2,0-.2,0s-.1,0-.2,0c0,0,0,0-.1-.1l-.2-.3ZM365.6,110.1c-.4,0-.8,0-1.1.1-.3,0-.5.1-.7.2-.2,0-.3.2-.4.3,0,.1-.1.2-.1.4s0,.3,0,.4c0,0,.1.2.2.2,0,0,.2.1.3.1s.2,0,.3,0,.3,0,.4,0c.1,0,.3,0,.4-.1.1,0,.2-.1.3-.2.1,0,.2-.2.3-.3v-1.1Z"/>
    <path class="st3" d="M368.8,108c.1-.1.2-.2.4-.3.1-.1.3-.2.4-.3.1,0,.3-.1.5-.2s.3,0,.5,0c.3,0,.5,0,.8.1.2,0,.4.2.5.4.1.2.3.4.3.6,0,.2.1.5.1.8v3.3h-.9v-3.3c0-.4,0-.7-.3-.9-.2-.2-.5-.3-.8-.3s-.5,0-.8.2c-.2.1-.5.3-.7.5v3.8h-.9v-5.2h.6c.1,0,.2,0,.2.2v.6Z"/>
    <path class="st3" d="M378.1,107.5v.3c0,.1,0,.2-.2.2h-.6c.1.3.2.6.2.8s0,.5-.1.7c0,.2-.2.4-.4.5-.2.1-.4.3-.6.3-.2,0-.5.1-.8.1s-.5,0-.7,0c-.1,0-.2.1-.3.2,0,0,0,.2,0,.2,0,.1,0,.2.2.3.1,0,.2.1.4.1.2,0,.4,0,.6,0s.4,0,.6,0c.2,0,.4,0,.6,0s.4,0,.6.2c.2,0,.3.2.4.4.1.2.2.3.2.6s0,.4-.2.6c-.1.2-.3.4-.5.6s-.5.3-.8.4c-.3,0-.6.1-1,.1s-.7,0-1-.1c-.3,0-.5-.2-.7-.3s-.3-.3-.4-.4c0-.2-.1-.3-.1-.5,0-.3,0-.5.2-.7.2-.2.4-.3.7-.4-.2,0-.3-.2-.4-.3,0-.1-.1-.3-.1-.5s0-.2,0-.2c0,0,0-.2.1-.2,0,0,.1-.2.2-.2s.2-.1.3-.2c-.3-.1-.5-.3-.6-.6-.1-.2-.2-.5-.2-.8s0-.5.1-.7c0-.2.2-.4.4-.5.2-.1.4-.3.6-.3.2,0,.5-.1.8-.1s.4,0,.6,0c.2,0,.4.1.5.2h1.4ZM377.1,112.8c0-.1,0-.2-.1-.3,0,0-.2-.1-.3-.2-.1,0-.3,0-.4,0-.2,0-.3,0-.5,0-.2,0-.4,0-.5,0-.2,0-.4,0-.5,0-.2,0-.3.2-.5.3-.1.1-.2.3-.2.5s0,.2,0,.3c0,.1.2.2.3.3.1,0,.3.1.5.2.2,0,.4,0,.7,0s.5,0,.7,0c.2,0,.4-.1.5-.2.1,0,.2-.2.3-.3s.1-.2.1-.4ZM375.5,109.9c.2,0,.3,0,.5,0s.3-.1.4-.2c0,0,.2-.2.2-.3,0-.1,0-.3,0-.4,0-.3,0-.6-.3-.8-.2-.2-.5-.3-.8-.3s-.7,0-.8.3c-.2.2-.3.4-.3.8s0,.3,0,.4c0,.1.1.2.2.3,0,0,.2.2.4.2s.3,0,.5,0Z"/>
    <path class="st3" d="M383.3,107.3v5.2h-.5c-.1,0-.2,0-.2-.2v-.6c-.3.2-.6.5-.8.6-.3.2-.6.2-1,.2s-.5,0-.8-.1c-.2,0-.4-.2-.5-.4s-.3-.4-.3-.6c0-.2-.1-.5-.1-.8v-3.3h.9v3.3c0,.4,0,.7.3.9.2.2.5.3.8.3s.5,0,.8-.2c.2-.1.5-.3.7-.5v-3.8h.9Z"/>
    <path class="st3" d="M386.8,105l-1.2,1.3c0,0,0,0-.1.1,0,0-.1,0-.2,0h-.5l.8-1.2c0,0,.1-.1.2-.2s.1,0,.2,0h.9ZM385.7,107.3v5.2h-.9v-5.2h.9Z"/>
    <path class="st3" d="M388.1,108c.1-.1.2-.2.4-.3.1-.1.3-.2.4-.3.1,0,.3-.1.5-.2s.3,0,.5,0c.3,0,.5,0,.8.1.2,0,.4.2.5.4.1.2.3.4.3.6,0,.2.1.5.1.8v3.3h-.9v-3.3c0-.4,0-.7-.3-.9-.2-.2-.5-.3-.8-.3s-.5,0-.8.2c-.2.1-.5.3-.7.5v3.8h-.9v-5.2h.6c.1,0,.2,0,.2.2v.6Z"/>
    <path class="st3" d="M397.2,111.7c-.1.1-.2.3-.4.4-.2.1-.3.2-.5.2-.2,0-.4.1-.6.1-.2,0-.4,0-.6,0-.4,0-.7,0-1-.2-.3-.1-.6-.3-.8-.5-.2-.2-.4-.5-.5-.9-.1-.3-.2-.7-.2-1.2s0-.7.2-1c.1-.3.3-.6.5-.8s.5-.4.8-.5c.3-.1.6-.2,1-.2s.6,0,.9.2.5.3.7.5.3.4.5.7c.1.3.2.6.2,1s0,.2,0,.3c0,0,0,0-.2,0h-3.5c0,.3,0,.6.1.9,0,.2.2.4.3.6.1.2.3.3.5.4.2,0,.4.1.7.1s.4,0,.6,0c.2,0,.3-.1.4-.2s.2-.1.3-.2c0,0,.1,0,.2,0s.1,0,.2,0l.3.3ZM396.4,109.3c0-.2,0-.4,0-.6,0-.2-.1-.3-.3-.5-.1-.1-.3-.2-.4-.3-.2,0-.4-.1-.6-.1-.4,0-.8.1-1,.4-.3.3-.4.6-.5,1.1h2.9Z"/>
    <path class="st3" d="M400.6,107.2c.4,0,.7,0,1,.2.3.1.6.3.8.5s.4.5.5.8c.1.3.2.7.2,1.1s0,.8-.2,1.1c-.1.3-.3.6-.5.8s-.5.4-.8.5c-.3.1-.6.2-1,.2s-.7,0-1-.2-.6-.3-.8-.5c-.2-.2-.4-.5-.5-.8-.1-.3-.2-.7-.2-1.1s0-.8.2-1.1.3-.6.5-.8c.2-.2.5-.4.8-.5.3-.1.7-.2,1-.2ZM400.6,111.8c.5,0,.9-.2,1.2-.5s.4-.8.4-1.4-.1-1.1-.4-1.5-.6-.5-1.2-.5-.5,0-.7.1c-.2,0-.4.2-.5.4s-.2.4-.3.6,0,.5,0,.8c0,.6.1,1.1.4,1.4s.6.5,1.2.5Z"/>
    <path class="st3" d="M404.1,111.9c0,0,0-.2,0-.3,0,0,0-.1.1-.2,0,0,.1-.1.2-.1s.2,0,.3,0,.2,0,.3,0,.1,0,.2.1c0,0,.1.1.1.2s0,.2,0,.3,0,.2,0,.3,0,.1-.1.2-.1.1-.2.1c0,0-.2,0-.3,0s-.2,0-.3,0c0,0-.1,0-.2-.1s-.1-.1-.1-.2c0,0,0-.2,0-.3Z"/>
  </g>
</svg>