<?xml version="1.0" encoding="UTF-8"?>
<svg xmlns="http://www.w3.org/2000/svg" viewBox="0 0 150 150">
  <defs>
    <style>
      .cls-1 {
        fill: #fff;
      }

      .cls-2 {
        fill: #cda45e;
      }
    </style>
  </defs>
  <g id="Camada_3" data-name="Camada 3">
    <circle class="cls-2" cx="75" cy="75" r="62.5"/>
  </g>
  <g id="Camada_1" data-name="Camada 1">
    <path class="cls-1" d="M111.09,62.91c-.67-5.37-5.25-9.53-10.8-9.53-.23,0-.46.01-.69.03,1.16,1.97,1.82,4.26,1.82,6.7,0,.69-.56,1.25-1.25,1.25s-1.25-.56-1.25-1.25c0-5.94-4.84-10.78-10.78-10.78-.02,0-.04,0-.06,0-2.22.01-4.28.68-6,1.83-2.11-2.3-5.15-3.75-8.52-3.75-2.81,0-5.38,1-7.38,2.67,2.11,1.23,3.88,3.04,5.08,5.29.32.61.09,1.37-.52,1.69-.19.1-.39.15-.58.15-.45,0-.88-.24-1.11-.66-1.38-2.6-3.7-4.47-6.4-5.29-.89-.23-1.82-.35-2.78-.35-5.36,0-9.84,3.75-10.97,8.77-5.01.98-8.79,5.39-8.79,10.69,0,1.67.38,3.24,1.05,4.65,1.68-1.14,3.65-1.89,5.77-2.12.74-.08,1.38.5,1.38,1.24,0,.63-.47,1.17-1.11,1.24-5.19.57-9.23,4.97-9.23,10.31s4.35,10.07,9.82,10.36h12.96c.6,0,1.15.4,1.27.99.16.8-.45,1.51-1.22,1.51h-8.11c.05,4.15,3.42,7.5,7.58,7.5h3.97v6.56h6.05l9.87-14.8c1.32.49,2.74.76,4.22.76,6.3,0,11.5-4.81,12.12-10.95,2.12,0,9.07.02,9.3.02,6.72,0,12.16-5.45,12.16-12.16,0-4.57-1.29-8.48-6.9-12.55ZM70.42,88.01c-.18.1-.38.14-.58.14-.45,0-.89-.24-1.11-.67-1-1.92-3.74-2.44-4.86-2.57-1.9,2.58-4.96,4.25-8.4,4.25-.69,0-1.25-.56-1.25-1.25s.56-1.25,1.25-1.25c4.38,0,7.94-3.56,7.94-7.94,0-.69.56-1.25,1.25-1.25s1.25.56,1.25,1.25c0,1.36-.27,2.66-.74,3.86,1.79.36,4.51,1.29,5.79,3.74.32.61.08,1.37-.53,1.69ZM87.45,75.53c.02.77-.65,1.37-1.41,1.27-.62-.08-1.06-.61-1.09-1.23-.05-1.32-.5-2.6-1.32-3.67-1.04-1.36-2.56-2.23-4.26-2.46-1.2-.16-2.42.03-3.51.53-.14.06-.28.14-.41.21-.56.32-2.51,1.32-4.87,1.32-.71,0-1.42-.08-2.13-.23-2.56-.56-4.74-2.09-6.15-4.29-.4-.62-.18-1.46.5-1.79.58-.29,1.28-.05,1.63.49,1.05,1.62,2.67,2.72,4.55,3.15,2.67.62,5.48-.96,5.5-.98,2.33-1.49,3.6-4.12,3.33-6.87-.07-.69.43-1.3,1.12-1.37.68-.07,1.3.43,1.37,1.12.22,2.21-.32,4.35-1.44,6.15.28.01.55.03.83.07,1.68.22,3.22.9,4.5,1.95,1.68-.98,2.8-2.72,2.97-4.69.06-.65.56-1.19,1.21-1.21.76-.02,1.35.61,1.29,1.35-.21,2.64-1.61,4.99-3.76,6.43.97,1.41,1.5,3.04,1.55,4.73ZM94.36,82.61c-.69,0-1.25-.56-1.25-1.25s.56-1.25,1.25-1.25c4.38,0,7.94-3.56,7.94-7.94,0-.69.56-1.25,1.25-1.25s1.25.56,1.25,1.25c0,5.75-4.68,10.44-10.44,10.44Z"/>
  </g>
</svg>