<?xml version="1.0" encoding="UTF-8"?>
<svg id="Camada_1" xmlns="http://www.w3.org/2000/svg" version="1.1" viewBox="0 0 425 185">
  <!-- Generator: Adobe Illustrator 29.5.1, SVG Export Plug-In . SVG Version: 2.1.0 Build 141)  -->
  <defs>
    <style>
      .st0 {
        fill: none;
        stroke: #68714b;
        stroke-miterlimit: 10;
        stroke-width: .7px;
      }

      .st1 {
        fill: #fff;
      }

      .st2 {
        fill: #68714b;
      }

      .st3 {
        fill: #94a35d;
      }

      .st4 {
        fill: #4d5732;
      }
    </style>
  </defs>
  <path class="st2" d="M4.5,3.9h100v30H4.5V3.9ZM104.5,3.9h120v30h-120V3.9ZM224.5,3.9h100v30h-100V3.9ZM324.5,3.9h100v30h-100V3.9Z"/>
  <path class="st3" d="M4.5,33.9h100v30H4.5v-30ZM4.5,63.9h100v30H4.5v-30ZM4.5,93.9h100v30H4.5v-30ZM4.5,123.9h100v30H4.5v-30ZM4.5,153.9h100v30.3H4.5v-30.3Z"/>
  <path class="st0" d="M4.5,3.9h100M104.5,3.9h120M104.5,33.5V4.2M224.5,3.9h100M224.5,33.5V4.2M324.5,3.9h100.4M324.5,33.5V4.2M424.5,33.5V4.2M104.5,63.5v-29.3M224.5,63.5v-29.3M324.5,63.5v-29.3M4.5,63.9h100M104.5,63.9h120M104.5,93.5v-29.3M224.5,63.9h100M224.5,93.5v-29.3M324.5,63.9h100M324.5,93.5v-29.3M4.5,33.9h100M104.5,33.9h120M224.5,33.9h100M324.5,33.9h100.4M4.5,93.9h100M104.5,93.9h120M104.5,123.5v-29.3M224.5,93.9h100M224.5,123.5v-29.3M324.5,93.9h100M324.5,123.5v-29.3M4.5,123.9h100M104.5,123.9h120M104.5,153.5v-29.3M224.5,123.9h100M224.5,153.5v-29.3M324.5,123.9h100M324.5,153.5v-29.3M4.5,153.9h100M104.5,153.9h120M104.5,183.8v-29.5M224.5,153.9h100M224.5,183.8v-29.5M324.5,153.9h100M324.5,183.8v-29.5M4.5,184.1h100M104.5,184.1h120M224.5,184.1h100M324.5,184.1h100"/>
  <g>
    <path class="st1" d="M29,23h-1.6v-7.5h1.6v7.5Z"/>
    <path class="st1" d="M38.8,15.6v7.5h-1.4v-4.6c0,0,0-.2,0-.3,0-.1,0-.2,0-.3l-2.1,4c-.1.2-.3.3-.5.3h-.2c-.1,0-.2,0-.3,0s-.2-.1-.2-.2l-2.1-4.1c0,.1,0,.2,0,.3s0,.2,0,.3v4.6h-1.4v-7.5h1.2c0,0,.1,0,.2,0,0,0,0,0,.1,0,0,0,0,0,.1,0,0,0,0,0,0,.1l2.1,4c0,.1.1.2.2.4,0,.1.1.3.2.4,0-.1.1-.3.2-.4s.1-.3.2-.4l2.1-4c0,0,0-.1,0-.1s0,0,.1,0c0,0,0,0,.1,0s.1,0,.2,0h1.2Z"/>
    <path class="st1" d="M45.5,21.2c0,0,.2,0,.2,0l.6.7c-.3.4-.7.7-1.1.9-.4.2-1,.3-1.6.3s-1.1,0-1.5-.3-.8-.5-1.1-.8c-.3-.3-.6-.7-.7-1.2-.2-.5-.3-1-.3-1.5s0-.7.1-1.1.2-.6.4-.9c.2-.3.3-.5.6-.8s.5-.4.7-.6c.3-.2.6-.3.9-.4.3,0,.7-.1,1-.1s.5,0,.8,0,.5.1.7.2c.2,0,.4.2.6.3.2.1.3.3.5.4l-.5.7s0,0-.1.1c0,0-.1,0-.2,0s-.2,0-.2,0c0,0-.2-.1-.3-.2-.1,0-.3-.1-.5-.2-.2,0-.4,0-.7,0s-.6,0-.9.2c-.3.1-.5.3-.7.5s-.3.5-.4.8-.2.7-.2,1.1,0,.8.2,1.1c.1.3.3.6.5.8.2.2.4.4.7.5.3.1.5.2.8.2s.3,0,.5,0c.1,0,.3,0,.4,0,.1,0,.2,0,.3-.2.1,0,.2-.1.3-.2,0,0,0,0,.1,0,0,0,0,0,.1,0Z"/>
    <path class="st1" d="M50.4,19.8c0,.7,0,1.4.2,2.1.2.7.4,1.3.7,1.9,0,0,0,.1,0,.2,0,0,0,.1,0,.2,0,0,0,0,0,.1s0,0-.1,0l-.6.4c-.3-.4-.5-.8-.6-1.2-.2-.4-.3-.8-.4-1.2-.1-.4-.2-.8-.2-1.2,0-.4,0-.8,0-1.3s0-.9,0-1.3.1-.8.2-1.2.3-.8.4-1.2c.2-.4.4-.8.6-1.2l.6.4s0,0,.1,0c0,0,0,0,0,.1,0,0,0,0,0,.2,0,0,0,.1,0,.2-.3.6-.5,1.2-.7,1.9-.2.7-.2,1.4-.2,2.1Z"/>
    <path class="st1" d="M53.7,15.3v4.4h.2c0,0,.2,0,.2,0,0,0,.1,0,.2-.1l1.2-1.6c0,0,.1-.1.2-.2s.2,0,.3,0h1.3l-1.5,1.9c-.1.2-.3.3-.4.4,0,0,.1.1.2.2,0,0,.1.2.2.2l1.6,2.6h-1.3c-.1,0-.2,0-.3,0,0,0-.1-.1-.2-.2l-1.2-1.9c0,0,0-.1-.1-.2,0,0-.1,0-.2,0h-.3v2.4h-1.4v-7.7h1.4Z"/>
    <path class="st1" d="M62.6,17.9v.5c0,0,0,.1,0,.2,0,0-.1,0-.2.1h-.4c0,.3,0,.4,0,.6s0,.5-.2.7c-.1.2-.3.4-.4.5-.2.1-.4.3-.7.3-.3,0-.5.1-.8.1s-.4,0-.5,0c-.1,0-.2.2-.2.3s0,.2.1.2.2,0,.4,0c.2,0,.3,0,.5,0,.2,0,.4,0,.6,0s.4,0,.6,0c.2,0,.4.1.5.2.2,0,.3.2.4.4s.1.4.1.6,0,.5-.2.7c-.1.2-.3.4-.5.6s-.5.3-.8.4-.7.2-1.1.2-.8,0-1.1-.1c-.3,0-.5-.2-.7-.3-.2-.1-.3-.3-.4-.4,0-.2-.1-.3-.1-.5s0-.4.2-.6c.1-.2.3-.3.6-.4-.1,0-.2-.2-.3-.3,0-.1-.1-.3-.1-.5s0-.3.2-.5c.1-.2.3-.3.5-.4-.3-.1-.5-.3-.6-.6-.2-.2-.2-.5-.2-.8s0-.5.2-.7c.1-.2.3-.4.5-.5.2-.1.4-.3.7-.3.3,0,.5-.1.8-.1.5,0,.9,0,1.2.3h1.6ZM61.2,23.2c0,0,0-.2,0-.2,0,0-.1-.1-.2-.1,0,0-.2,0-.3,0-.1,0-.3,0-.4,0s-.3,0-.5,0c-.2,0-.3,0-.5,0-.1,0-.2.2-.3.3s-.1.2-.1.3,0,.2,0,.2c0,0,.1.1.2.2,0,0,.2,0,.4.1.2,0,.3,0,.6,0s.4,0,.6,0c.2,0,.3,0,.4-.1,0,0,.2-.1.2-.2,0,0,0-.2,0-.3ZM59.8,20.2c.3,0,.5,0,.6-.2.1-.1.2-.3.2-.6s0-.4-.2-.6-.4-.2-.6-.2-.5,0-.6.2c-.1.1-.2.3-.2.6s0,.4.2.6c.1.1.4.2.6.2Z"/>
    <path class="st1" d="M64.4,23c0,.2-.2.3-.3.4-.1,0-.3.1-.4.1h-.6l3-7.7c0-.2.2-.3.3-.4.1,0,.3-.1.4-.1h.6l-2.9,7.7Z"/>
  </g>
  <path class="st1" d="M67.9,23v-5.3h.9c.2,0,.3,0,.4.2v.3c.2,0,.3-.2.4-.3,0,0,.2-.2.3-.2s.2-.1.4-.1c.1,0,.3,0,.4,0,.3,0,.6,0,.8.3.2.2.4.4.5.7,0-.2.2-.3.3-.4.1-.1.3-.2.4-.3.1,0,.3-.1.5-.2.2,0,.3,0,.5,0,.3,0,.6,0,.8.1.2,0,.4.2.6.4.2.2.3.4.4.6,0,.3.1.5.1.9v3.4h-1.4v-3.4c0-.6-.3-.9-.8-.9s-.2,0-.3,0c-.1,0-.2,0-.3.2,0,0-.1.2-.2.3,0,.1,0,.3,0,.4v3.4h-1.4v-3.4c0-.3,0-.6-.2-.7-.1-.1-.3-.2-.6-.2s-.3,0-.5.1-.3.2-.4.3v3.9h-1.4Z"/>
  <path class="st1" d="M78.9,18.8c0,0,.2,0,.2,0,0,0,0,.1,0,.2v.5h-3v-.3c0,0,0-.1,0-.2s0-.1.1-.2l1.3-1.3c.1-.1.2-.2.3-.3,0-.1.2-.2.2-.3,0,0,0-.2.1-.3s0-.2,0-.3c0-.2,0-.3-.1-.4s-.2-.2-.4-.2-.2,0-.2,0c0,0-.1,0-.2,0,0,0,0,0-.1.1,0,0,0,.1,0,.2,0,.1,0,.2-.1.2,0,0-.1,0-.3,0h-.4c0-.3,0-.5.2-.6,0-.2.2-.3.3-.4.1-.1.3-.2.5-.2.2,0,.4,0,.5,0s.4,0,.6,0c.2,0,.3.1.4.3.1.1.2.2.3.4,0,.2,0,.3,0,.5s0,.3,0,.4c0,.1-.1.3-.2.4,0,.1-.2.2-.3.4-.1.1-.2.2-.3.4l-.9.9c.1,0,.2,0,.3,0s.2,0,.3,0h1Z"/>
  <path class="st1" d="M80.7,19.8c0-.7,0-1.4-.2-2.1-.2-.7-.4-1.3-.7-1.9,0,0,0-.1,0-.2,0,0,0-.1,0-.2,0,0,0,0,0-.1,0,0,0,0,.1,0l.6-.4c.3.4.5.8.6,1.2s.3.8.4,1.2c.1.4.2.8.2,1.2s0,.8,0,1.3,0,.9,0,1.3c0,.4-.1.8-.2,1.2-.1.4-.3.8-.4,1.2s-.4.8-.6,1.2l-.6-.4s0,0-.1,0,0,0,0-.1c0,0,0,0,0-.2,0,0,0-.1,0-.2.3-.6.5-1.2.7-1.9.2-.7.2-1.4.2-2.1Z"/>
  <g>
    <path class="st1" d="M113.3,21.2c0,0,.2,0,.2,0l.6.7c-.3.4-.7.7-1.1.9-.4.2-1,.3-1.6.3s-1.1,0-1.5-.3-.8-.5-1.1-.8c-.3-.3-.6-.7-.7-1.2-.2-.5-.3-1-.3-1.5s0-.7.1-1.1.2-.6.4-.9c.2-.3.3-.5.6-.8s.5-.4.7-.6c.3-.2.6-.3.9-.4.3,0,.7-.1,1-.1s.5,0,.8,0,.5.1.7.2c.2,0,.4.2.6.3.2.1.3.3.5.4l-.5.7s0,0-.1.1c0,0-.1,0-.2,0s-.2,0-.2,0c0,0-.2-.1-.3-.2-.1,0-.3-.1-.5-.2-.2,0-.4,0-.7,0s-.6,0-.9.2c-.3.1-.5.3-.7.5s-.3.5-.4.8-.2.7-.2,1.1,0,.8.2,1.1c.1.3.3.6.5.8.2.2.4.4.7.5.3.1.5.2.8.2s.3,0,.5,0c.1,0,.3,0,.4,0,.1,0,.2,0,.3-.2.1,0,.2-.1.3-.2,0,0,0,0,.1,0,0,0,0,0,.1,0Z"/>
    <path class="st1" d="M116.2,15.3v7.7h-1.4v-7.7h1.4Z"/>
    <path class="st1" d="M117.3,18.4c.3-.3.7-.5,1-.6.4-.1.8-.2,1.2-.2s.6,0,.8.2.5.2.6.4c.2.2.3.4.4.7,0,.3.1.5.1.8v3.3h-.6c-.1,0-.2,0-.3,0s-.1-.1-.2-.2v-.3c-.2.1-.4.2-.5.3-.1,0-.3.2-.4.2s-.3.1-.4.1c-.2,0-.3,0-.5,0s-.4,0-.6,0c-.2,0-.4-.2-.5-.3-.1-.1-.2-.3-.3-.5,0-.2-.1-.4-.1-.6s0-.4.1-.6.3-.4.5-.5c.2-.2.6-.3,1-.4.4-.1.9-.2,1.5-.2v-.3c0-.3,0-.6-.2-.7-.1-.2-.3-.2-.6-.2s-.4,0-.5,0c-.1,0-.2,0-.3.1,0,0-.2.1-.3.1,0,0-.2,0-.3,0s-.2,0-.2,0-.1-.1-.2-.2l-.3-.5ZM120.2,20.8c-.3,0-.6,0-.9,0-.2,0-.4,0-.5.2-.1,0-.2.1-.3.2s0,.2,0,.3c0,.2,0,.4.2.4.1,0,.3.1.5.1s.4,0,.6-.1c.2,0,.3-.2.5-.4v-.8Z"/>
    <path class="st1" d="M126,18.8c0,0,0,.1-.1.1,0,0,0,0-.2,0s-.1,0-.2,0c0,0-.2,0-.2-.1,0,0-.2,0-.3-.1s-.2,0-.4,0c-.2,0-.4,0-.5.1-.1,0-.2.2-.2.4s0,.2.1.3.2.1.3.2.3.1.4.1c.2,0,.3,0,.5.2.2,0,.3.1.5.2.2,0,.3.2.4.3.1.1.2.2.3.4,0,.2.1.3.1.6s0,.5-.1.7c0,.2-.2.4-.4.6-.2.2-.4.3-.7.4-.3,0-.6.1-.9.1s-.4,0-.5,0c-.2,0-.3,0-.5-.1s-.3-.1-.5-.2c-.1,0-.3-.2-.4-.3l.3-.5c0,0,0-.1.1-.1s.1,0,.2,0,.2,0,.2,0c0,0,.2,0,.2.1,0,0,.2,0,.3.1.1,0,.3,0,.5,0s.3,0,.4,0c0,0,.2,0,.2-.1,0,0,.1-.1.1-.2s0-.1,0-.2c0-.1,0-.2-.1-.3s-.2-.1-.3-.2c-.1,0-.3-.1-.4-.1s-.3,0-.5-.1c-.2,0-.3-.1-.5-.2-.2,0-.3-.2-.4-.3-.1-.1-.2-.3-.3-.4s-.1-.4-.1-.6,0-.4.1-.6c0-.2.2-.4.4-.5.2-.2.4-.3.6-.4.3,0,.6-.1.9-.1s.7,0,1,.2.6.3.8.5l-.3.5Z"/>
    <path class="st1" d="M130.5,18.8c0,0,0,.1-.1.1,0,0,0,0-.2,0s-.1,0-.2,0c0,0-.2,0-.2-.1,0,0-.2,0-.3-.1s-.2,0-.4,0c-.2,0-.4,0-.5.1-.1,0-.2.2-.2.4s0,.2.1.3.2.1.3.2.3.1.4.1c.2,0,.3,0,.5.2.2,0,.3.1.5.2.2,0,.3.2.4.3.1.1.2.2.3.4,0,.2.1.3.1.6s0,.5-.1.7c0,.2-.2.4-.4.6-.2.2-.4.3-.7.4-.3,0-.6.1-.9.1s-.4,0-.5,0c-.2,0-.3,0-.5-.1s-.3-.1-.5-.2c-.1,0-.3-.2-.4-.3l.3-.5c0,0,0-.1.1-.1s.1,0,.2,0,.2,0,.2,0c0,0,.2,0,.2.1,0,0,.2,0,.3.1.1,0,.3,0,.5,0s.3,0,.4,0c0,0,.2,0,.2-.1,0,0,.1-.1.1-.2s0-.1,0-.2c0-.1,0-.2-.1-.3s-.2-.1-.3-.2c-.1,0-.3-.1-.4-.1s-.3,0-.5-.1c-.2,0-.3-.1-.5-.2-.2,0-.3-.2-.4-.3-.1-.1-.2-.3-.3-.4s-.1-.4-.1-.6,0-.4.1-.6c0-.2.2-.4.4-.5.2-.2.4-.3.6-.4.3,0,.6-.1.9-.1s.7,0,1,.2.6.3.8.5l-.3.5Z"/>
    <path class="st1" d="M133.4,16.2c0,.1,0,.2,0,.3,0,.1-.1.2-.2.3,0,0-.2.1-.3.2-.1,0-.2,0-.3,0s-.2,0-.3,0c-.1,0-.2-.1-.3-.2,0,0-.1-.2-.2-.3s0-.2,0-.3,0-.2,0-.3.1-.2.2-.3.2-.1.3-.2c.1,0,.2,0,.3,0s.2,0,.3,0c.1,0,.2.1.3.2,0,0,.1.2.2.3,0,.1,0,.2,0,.3ZM133.3,17.7v5.3h-1.4v-5.3h1.4Z"/>
    <path class="st1" d="M134.9,23v-4.3h-.4c-.1,0-.2-.1-.3-.2,0,0-.1-.1-.1-.2v-.6h.8c0-.5,0-.8.2-1,.1-.3.3-.5.5-.7s.5-.4.9-.5c.3-.1.8-.2,1.2-.2s.3,0,.5,0c.2,0,.3,0,.4,0v.7s0,0,0,0,0,0,0,0c0,0,0,0-.1,0,0,0,0,0-.1,0-.3,0-.6,0-.9,0-.2,0-.4.1-.6.3-.1.1-.2.3-.3.4,0,.2,0,.4,0,.6h0c0,0,3.3,0,3.3,0v5.3h-1.4v-4.3h-1.9v4.3h-1.4Z"/>
  </g>
  <g>
    <path class="st1" d="M144.6,18.9c0,0,0,0-.1.1s0,0-.2,0-.1,0-.2,0c0,0-.1,0-.2-.1,0,0-.2,0-.3-.1-.1,0-.3,0-.4,0s-.4,0-.6.1c-.2,0-.3.2-.4.3-.1.1-.2.3-.2.5,0,.2,0,.4,0,.7,0,.5.1,1,.3,1.2s.5.4.9.4.2,0,.3,0,.2,0,.2,0,.1,0,.2-.1c0,0,.1,0,.1-.1,0,0,0,0,.1,0,0,0,0,0,.2,0,.1,0,.2,0,.3.1l.4.5c-.2.2-.3.3-.5.4-.2.1-.3.2-.5.3s-.4.1-.6.1-.4,0-.6,0c-.3,0-.6,0-.9-.2s-.5-.3-.8-.5c-.2-.2-.4-.5-.5-.9-.1-.3-.2-.7-.2-1.2s0-.7.2-1.1c.1-.3.3-.6.5-.9.2-.2.5-.4.8-.6.3-.1.7-.2,1.1-.2s.8,0,1.1.2c.3.1.6.3.8.6l-.4.5Z"/>
    <path class="st1" d="M145.6,18.4c.3-.3.7-.5,1-.6.4-.1.8-.2,1.2-.2s.6,0,.8.2.5.2.6.4c.2.2.3.4.4.7,0,.3.1.5.1.8v3.3h-.6c-.1,0-.2,0-.3,0s-.1-.1-.2-.2v-.3c-.2.1-.4.2-.5.3-.1,0-.3.2-.4.2s-.3.1-.4.1c-.2,0-.3,0-.5,0s-.4,0-.6,0c-.2,0-.4-.2-.5-.3-.1-.1-.2-.3-.3-.5,0-.2-.1-.4-.1-.6s0-.4.1-.6.3-.4.5-.5c.2-.2.6-.3,1-.4.4-.1.9-.2,1.5-.2v-.3c0-.3,0-.6-.2-.7-.1-.2-.3-.2-.6-.2s-.4,0-.5,0c-.1,0-.2,0-.3.1,0,0-.2.1-.3.1,0,0-.2,0-.3,0s-.2,0-.2,0-.1-.1-.2-.2l-.3-.5ZM148.5,20.8c-.3,0-.6,0-.9,0-.2,0-.4,0-.5.2-.1,0-.2.1-.3.2s0,.2,0,.3c0,.2,0,.4.2.4.1,0,.3.1.5.1s.4,0,.6-.1c.2,0,.3-.2.5-.4v-.8Z"/>
    <path class="st1" d="M155.3,22.2c-.1.1-.3.3-.4.4-.1.1-.3.2-.4.3-.1,0-.3.1-.4.2-.2,0-.3,0-.5,0v.2c0,0,.2,0,.3.1s.2.1.3.2c0,0,.1.1.1.2,0,0,0,.2,0,.2s0,.2,0,.3c0,0-.2.2-.3.2-.1,0-.3.1-.4.2-.2,0-.3,0-.5,0s-.3,0-.4,0c-.1,0-.2,0-.4,0v-.4c.2,0,.2-.1.3-.1s0,0,.2,0c0,0,.1,0,.2,0s.2,0,.2,0c0,0,0,0,0-.1,0,0,0-.1-.2-.2-.1,0-.3,0-.6-.1l.2-.7c-.3,0-.5-.1-.8-.3s-.5-.3-.6-.6c-.2-.2-.3-.5-.4-.8-.1-.3-.2-.7-.2-1.1s0-.7.2-1.1c.1-.3.3-.6.5-.9.2-.2.5-.4.8-.6.3-.1.7-.2,1.1-.2s.8,0,1.1.2c.3.1.6.3.8.6l-.4.5c0,0,0,0-.1.1s0,0-.2,0-.1,0-.2,0c0,0-.1,0-.2-.1,0,0-.2,0-.3-.1-.1,0-.3,0-.4,0s-.4,0-.6.1c-.2,0-.3.2-.4.3-.1.1-.2.3-.2.5,0,.2,0,.4,0,.7,0,.5.1,1,.3,1.2s.5.4.9.4.2,0,.3,0,.2,0,.2,0,.1,0,.2-.1c0,0,.1,0,.1-.1,0,0,0,0,.1,0,0,0,0,0,.2,0,.1,0,.2,0,.3.1l.4.5Z"/>
    <path class="st1" d="M155.9,18.4c.3-.3.7-.5,1-.6.4-.1.8-.2,1.2-.2s.6,0,.8.2.5.2.6.4c.2.2.3.4.4.7,0,.3.1.5.1.8v3.3h-.6c-.1,0-.2,0-.3,0s-.1-.1-.2-.2v-.3c-.2.1-.4.2-.5.3-.1,0-.3.2-.4.2s-.3.1-.4.1c-.2,0-.3,0-.5,0s-.4,0-.6,0c-.2,0-.4-.2-.5-.3-.1-.1-.2-.3-.3-.5,0-.2-.1-.4-.1-.6s0-.4.1-.6.3-.4.5-.5c.2-.2.6-.3,1-.4.4-.1.9-.2,1.5-.2v-.3c0-.3,0-.6-.2-.7-.1-.2-.3-.2-.6-.2s-.4,0-.5,0c-.1,0-.2,0-.3.1,0,0-.2.1-.3.1,0,0-.2,0-.3,0s-.2,0-.2,0-.1-.1-.2-.2l-.3-.5ZM158.6,16c0,0,.2,0,.2,0,0,0,0-.1,0-.3h.9c0,.2,0,.4,0,.6,0,.2-.1.3-.2.4,0,.1-.2.2-.4.3s-.3,0-.4,0-.2,0-.3,0c-.1,0-.2,0-.3-.1,0,0-.2,0-.3-.1,0,0-.1,0-.2,0,0,0-.2,0-.2,0,0,0,0,.2,0,.3h-.9c0-.2,0-.4,0-.6,0-.2.1-.3.2-.4.1-.1.2-.2.4-.3.1,0,.3,0,.4,0s.2,0,.4,0c.1,0,.2,0,.3.1,0,0,.2,0,.3.1s.1,0,.2,0ZM158.8,20.8c-.3,0-.6,0-.9,0-.2,0-.4,0-.5.2-.1,0-.2.1-.3.2s0,.2,0,.3c0,.2,0,.4.2.4.1,0,.3.1.5.1s.4,0,.6-.1c.2,0,.3-.2.5-.4v-.8Z"/>
    <path class="st1" d="M163.7,17.6c.4,0,.8,0,1.1.2s.6.3.8.5c.2.2.4.5.5.9.1.3.2.7.2,1.1s0,.8-.2,1.1c-.1.3-.3.6-.5.9-.2.2-.5.4-.8.5s-.7.2-1.1.2-.8,0-1.1-.2-.6-.3-.8-.5c-.2-.2-.4-.5-.5-.9-.1-.3-.2-.7-.2-1.1s0-.8.2-1.1c.1-.3.3-.6.5-.9.2-.2.5-.4.8-.5s.7-.2,1.1-.2ZM163.7,22c.4,0,.7-.1.9-.4.2-.3.3-.7.3-1.2s0-1-.3-1.2c-.2-.3-.5-.4-.9-.4s-.7.1-.9.4c-.2.3-.3.7-.3,1.2s0,1,.3,1.2c.2.3.5.4.9.4Z"/>
  </g>
  <g>
    <path class="st1" d="M244,13h2.6v3.1c-.4.3-.8.5-1.2.6-.4.1-.9.2-1.4.2s-1.2,0-1.7-.3c-.5-.2-.9-.5-1.3-.8-.4-.3-.6-.7-.8-1.2-.2-.5-.3-1-.3-1.5s0-1.1.3-1.5c.2-.5.4-.9.8-1.2.3-.3.8-.6,1.2-.8.5-.2,1-.3,1.6-.3s.6,0,.9,0,.5.1.7.2c.2,0,.4.2.6.3.2.1.4.3.5.4l-.4.7c0,.1-.2.2-.3.2s-.2,0-.4,0c-.1,0-.2-.1-.4-.2-.1,0-.2-.1-.4-.2s-.3,0-.4-.1c-.2,0-.3,0-.5,0-.3,0-.7,0-.9.2-.3.1-.5.3-.7.5-.2.2-.3.5-.5.8s-.2.7-.2,1,0,.8.2,1.1c.1.3.3.6.5.8.2.2.5.4.8.5s.6.2,1,.2.5,0,.7,0c.2,0,.4-.1.6-.2v-1.3h-.8c0,0-.2,0-.2,0,0,0,0-.1,0-.2v-.9Z"/>
    <path class="st1" d="M248.9,12.4c.2-.3.4-.5.6-.7s.5-.3.8-.3.4,0,.6.2v1c-.1,0-.1.1-.2.1,0,0,0,0-.1,0s-.1,0-.2,0c-.1,0-.2,0-.3,0-.1,0-.2,0-.3,0-.1,0-.2,0-.3.2,0,0-.2.2-.2.3s-.1.2-.2.3v3.2h-1.4v-5.3h.8c.1,0,.2,0,.3,0,0,0,0,.1.1.3v.5Z"/>
    <path class="st1" d="M251.3,12.3c.3-.3.7-.5,1-.6.4-.1.8-.2,1.2-.2s.6,0,.8.2c.2.1.5.2.6.4.2.2.3.4.4.7,0,.3.1.5.1.8v3.3h-.6c-.1,0-.2,0-.3,0s-.1-.1-.2-.2v-.3c-.2.1-.4.2-.5.3-.1,0-.3.2-.4.2s-.3.1-.4.1c-.2,0-.3,0-.5,0s-.4,0-.6,0c-.2,0-.4-.2-.5-.3-.1-.1-.2-.3-.3-.5,0-.2-.1-.4-.1-.6s0-.4.1-.6.3-.4.5-.5c.2-.2.6-.3,1-.4s.9-.2,1.5-.2v-.3c0-.3,0-.6-.2-.7-.1-.2-.3-.2-.6-.2s-.4,0-.5,0c-.1,0-.2,0-.3.1s-.2.1-.3.1c0,0-.2,0-.3,0s-.2,0-.2,0c0,0-.1-.1-.2-.2l-.3-.5ZM254.2,14.6c-.3,0-.6,0-.9,0-.2,0-.4,0-.5.2-.1,0-.2.1-.3.2s0,.2,0,.3c0,.2,0,.4.2.4.1,0,.3.1.5.1s.4,0,.6-.1.3-.2.5-.4v-.8Z"/>
    <path class="st1" d="M261.4,11.5v5.3h-.9c-.2,0-.3,0-.4-.2v-.4c-.2.1-.3.2-.4.3-.1,0-.2.2-.4.2-.1,0-.3.1-.4.1s-.3,0-.5,0c-.3,0-.5,0-.8-.1s-.4-.2-.6-.4c-.2-.2-.3-.4-.3-.6s-.1-.5-.1-.8v-3.4h1.4v3.4c0,.3,0,.5.2.7s.3.2.6.2.4,0,.6-.1c.2,0,.3-.2.5-.4v-3.8h1.4Z"/>
    <path class="st1" d="M263.6,16.8c0,.2-.2.3-.3.4-.1,0-.3.1-.4.1h-.6l3-7.7c0-.2.2-.3.3-.4.1,0,.3-.1.4-.1h.6l-2.9,7.7Z"/>
    <path class="st1" d="M272.7,15c0,0,.2,0,.2,0l.6.7c-.3.4-.7.7-1.1.9-.4.2-1,.3-1.6.3s-1.1,0-1.5-.3c-.4-.2-.8-.5-1.1-.8-.3-.3-.6-.7-.7-1.2-.2-.5-.3-1-.3-1.5s0-.7.1-1.1c0-.3.2-.6.4-.9.2-.3.3-.5.6-.8s.5-.4.7-.6c.3-.2.6-.3.9-.4.3,0,.7-.1,1-.1s.5,0,.8,0,.5.1.7.2c.2,0,.4.2.6.3.2.1.3.3.5.4l-.5.7s0,0-.1.1c0,0-.1,0-.2,0s-.2,0-.2,0c0,0-.2-.1-.3-.2-.1,0-.3-.1-.5-.2-.2,0-.4,0-.7,0s-.6,0-.9.2-.5.3-.7.5c-.2.2-.3.5-.4.8-.1.3-.2.7-.2,1.1s0,.8.2,1.1c.1.3.3.6.5.8.2.2.4.4.7.5.3.1.5.2.8.2s.3,0,.5,0,.3,0,.4,0c.1,0,.2,0,.3-.2.1,0,.2-.1.3-.2,0,0,0,0,.1,0,0,0,0,0,.1,0Z"/>
    <path class="st1" d="M275.6,9.2v7.7h-1.4v-7.7h1.4Z"/>
    <path class="st1" d="M276.6,12.3c.3-.3.7-.5,1-.6.4-.1.8-.2,1.2-.2s.6,0,.8.2c.2.1.5.2.6.4.2.2.3.4.4.7,0,.3.1.5.1.8v3.3h-.6c-.1,0-.2,0-.3,0s-.1-.1-.2-.2v-.3c-.2.1-.4.2-.5.3-.1,0-.3.2-.4.2s-.3.1-.4.1c-.2,0-.3,0-.5,0s-.4,0-.6,0c-.2,0-.4-.2-.5-.3-.1-.1-.2-.3-.3-.5,0-.2-.1-.4-.1-.6s0-.4.1-.6.3-.4.5-.5c.2-.2.6-.3,1-.4s.9-.2,1.5-.2v-.3c0-.3,0-.6-.2-.7-.1-.2-.3-.2-.6-.2s-.4,0-.5,0c-.1,0-.2,0-.3.1s-.2.1-.3.1c0,0-.2,0-.3,0s-.2,0-.2,0c0,0-.1-.1-.2-.2l-.3-.5ZM279.5,14.6c-.3,0-.6,0-.9,0-.2,0-.4,0-.5.2-.1,0-.2.1-.3.2s0,.2,0,.3c0,.2,0,.4.2.4.1,0,.3.1.5.1s.4,0,.6-.1.3-.2.5-.4v-.8Z"/>
    <path class="st1" d="M285.3,12.6c0,0,0,.1-.1.1,0,0,0,0-.2,0s-.1,0-.2,0-.2,0-.2-.1c0,0-.2,0-.3-.1-.1,0-.2,0-.4,0-.2,0-.4,0-.5.1-.1,0-.2.2-.2.4s0,.2.1.3c0,0,.2.1.3.2s.3.1.4.1c.2,0,.3,0,.5.2.2,0,.3.1.5.2.2,0,.3.2.4.3.1.1.2.2.3.4,0,.2.1.3.1.6s0,.5-.1.7c0,.2-.2.4-.4.6-.2.2-.4.3-.7.4-.3,0-.6.1-.9.1s-.4,0-.5,0c-.2,0-.3,0-.5-.1s-.3-.1-.5-.2c-.1,0-.3-.2-.4-.3l.3-.5c0,0,0-.1.1-.1s.1,0,.2,0,.2,0,.2,0c0,0,.2,0,.2.1,0,0,.2,0,.3.1.1,0,.3,0,.5,0s.3,0,.4,0c0,0,.2,0,.2-.1s.1-.1.1-.2,0-.1,0-.2c0-.1,0-.2-.1-.3,0,0-.2-.1-.3-.2-.1,0-.3-.1-.4-.1s-.3,0-.5-.1c-.2,0-.3-.1-.5-.2-.2,0-.3-.2-.4-.3-.1-.1-.2-.3-.3-.4,0-.2-.1-.4-.1-.6s0-.4.1-.6.2-.4.4-.5c.2-.2.4-.3.6-.4s.6-.1.9-.1.7,0,1,.2.6.3.8.5l-.3.5Z"/>
    <path class="st1" d="M289.9,12.6c0,0,0,.1-.1.1,0,0,0,0-.2,0s-.1,0-.2,0-.2,0-.2-.1c0,0-.2,0-.3-.1-.1,0-.2,0-.4,0-.2,0-.4,0-.5.1-.1,0-.2.2-.2.4s0,.2.1.3c0,0,.2.1.3.2s.3.1.4.1c.2,0,.3,0,.5.2.2,0,.3.1.5.2.2,0,.3.2.4.3.1.1.2.2.3.4,0,.2.1.3.1.6s0,.5-.1.7c0,.2-.2.4-.4.6-.2.2-.4.3-.7.4-.3,0-.6.1-.9.1s-.4,0-.5,0c-.2,0-.3,0-.5-.1s-.3-.1-.5-.2c-.1,0-.3-.2-.4-.3l.3-.5c0,0,0-.1.1-.1s.1,0,.2,0,.2,0,.2,0c0,0,.2,0,.2.1,0,0,.2,0,.3.1.1,0,.3,0,.5,0s.3,0,.4,0c0,0,.2,0,.2-.1s.1-.1.1-.2,0-.1,0-.2c0-.1,0-.2-.1-.3,0,0-.2-.1-.3-.2-.1,0-.3-.1-.4-.1s-.3,0-.5-.1c-.2,0-.3-.1-.5-.2-.2,0-.3-.2-.4-.3-.1-.1-.2-.3-.3-.4,0-.2-.1-.4-.1-.6s0-.4.1-.6.2-.4.4-.5c.2-.2.4-.3.6-.4s.6-.1.9-.1.7,0,1,.2.6.3.8.5l-.3.5Z"/>
    <path class="st1" d="M292.2,14.4c0,.5.2.9.4,1.1.2.2.5.3.9.3s.4,0,.5,0c.1,0,.3,0,.4-.2.1,0,.2-.1.3-.2,0,0,.2,0,.3,0s.2,0,.3.1l.4.5c-.2.2-.3.3-.5.4-.2.1-.4.2-.6.3s-.4.1-.6.1-.4,0-.6,0c-.4,0-.7,0-1-.2-.3-.1-.6-.3-.8-.5-.2-.2-.4-.5-.6-.9-.1-.4-.2-.8-.2-1.2s0-.7.2-1c.1-.3.3-.6.5-.8.2-.2.5-.4.8-.6.3-.1.7-.2,1.1-.2s.7,0,.9.2c.3.1.5.3.7.5.2.2.4.5.5.8.1.3.2.6.2,1s0,.2,0,.3c0,0,0,.1,0,.2,0,0,0,0,0,0,0,0,0,0-.2,0h-3.2ZM294.5,13.6c0-.1,0-.3,0-.4,0-.1-.1-.3-.2-.4,0-.1-.2-.2-.3-.2-.1,0-.3,0-.5,0-.3,0-.6,0-.8.3-.2.2-.3.5-.4.8h2.2Z"/>
    <path class="st1" d="M303.7,9.2v7.7h-.9c-.2,0-.3,0-.3-.2v-.5c-.2.1-.3.2-.5.3-.1,0-.2.2-.4.2-.1,0-.3.1-.4.2-.2,0-.3,0-.5,0-.3,0-.5,0-.8-.2s-.4-.3-.6-.5c-.2-.2-.3-.5-.4-.9,0-.3-.1-.7-.1-1.2s0-.8.2-1.1c.1-.3.3-.6.5-.9.2-.2.4-.4.7-.6s.6-.2.9-.2.5,0,.7.1c.2,0,.4.2.5.4v-2.7h1.4ZM302.3,12.9c-.1-.2-.3-.3-.4-.3-.2,0-.3,0-.5,0s-.3,0-.5,0c-.1,0-.3.2-.4.3-.1.1-.2.3-.2.5,0,.2,0,.5,0,.8s0,.5,0,.8c0,.2.1.4.2.5s.2.2.3.3.3,0,.4,0c.3,0,.5,0,.6-.1.2,0,.3-.2.5-.4v-2.3Z"/>
    <path class="st1" d="M304.8,12.3c.3-.3.7-.5,1-.6.4-.1.8-.2,1.2-.2s.6,0,.8.2c.2.1.5.2.6.4.2.2.3.4.4.7,0,.3.1.5.1.8v3.3h-.6c-.1,0-.2,0-.3,0s-.1-.1-.2-.2v-.3c-.2.1-.4.2-.5.3-.1,0-.3.2-.4.2s-.3.1-.4.1-.3,0-.5,0-.4,0-.6,0c-.2,0-.4-.2-.5-.3-.1-.1-.2-.3-.3-.5,0-.2-.1-.4-.1-.6s0-.4.1-.6.3-.4.5-.5c.2-.2.6-.3,1-.4.4-.1.9-.2,1.5-.2v-.3c0-.3,0-.6-.2-.7-.1-.2-.3-.2-.6-.2s-.4,0-.5,0c-.1,0-.2,0-.3.1,0,0-.2.1-.3.1,0,0-.2,0-.3,0s-.2,0-.2,0c0,0-.1-.1-.2-.2l-.3-.5ZM307.7,14.6c-.3,0-.6,0-.9,0s-.4,0-.5.2c-.1,0-.2.1-.3.2s0,.2,0,.3c0,.2,0,.4.2.4.1,0,.3.1.5.1s.4,0,.6-.1c.2,0,.3-.2.5-.4v-.8Z"/>
  </g>
  <g>
    <path class="st1" d="M253.9,23.8c.4,0,.8,0,1.1.2.3.1.6.3.8.5.2.2.4.5.5.9.1.3.2.7.2,1.1s0,.8-.2,1.1c-.1.3-.3.6-.5.9-.2.2-.5.4-.8.5-.3.1-.7.2-1.1.2s-.8,0-1.1-.2c-.3-.1-.6-.3-.8-.5-.2-.2-.4-.5-.5-.9-.1-.3-.2-.7-.2-1.1s0-.8.2-1.1c.1-.3.3-.6.5-.9.2-.2.5-.4.8-.5.3-.1.7-.2,1.1-.2ZM253.9,28.2c.4,0,.7-.1.9-.4.2-.3.3-.7.3-1.2s0-1-.3-1.2c-.2-.3-.5-.4-.9-.4s-.7.1-.9.4c-.2.3-.3.7-.3,1.2s0,1,.3,1.2c.2.3.5.4.9.4Z"/>
    <path class="st1" d="M258.9,24.5c.2-.2.4-.4.7-.5s.5-.2.9-.2.6,0,.8.2.5.3.6.5c.2.2.3.5.4.8s.1.7.1,1.1,0,.8-.2,1.2-.3.7-.5.9c-.2.3-.4.4-.7.6-.3.1-.6.2-.9.2s-.3,0-.4,0c-.1,0-.2,0-.4-.1-.1,0-.2-.1-.3-.2,0,0-.2-.2-.3-.3v.3c0,0-.1.2-.2.2,0,0-.1,0-.2,0h-.9v-7.7h1.4v3ZM258.9,27.8c.1.2.3.3.4.3.2,0,.3,0,.5,0s.3,0,.5,0c.1,0,.3-.2.4-.3.1-.1.2-.3.2-.5,0-.2,0-.5,0-.8s0-.5,0-.7c0-.2-.1-.4-.2-.5,0-.1-.2-.2-.3-.3-.1,0-.3,0-.4,0s-.4,0-.6.1c-.2,0-.3.2-.5.4v2.3Z"/>
    <path class="st1" d="M264.5,26.8c0,.5.2.9.4,1.1s.5.3.9.3.4,0,.5,0c.1,0,.3,0,.4-.2.1,0,.2-.1.3-.2,0,0,.2,0,.3,0s.2,0,.3.1l.4.5c-.2.2-.3.3-.5.4-.2.1-.4.2-.6.3-.2,0-.4.1-.6.1-.2,0-.4,0-.6,0-.4,0-.7,0-1-.2s-.6-.3-.8-.5c-.2-.2-.4-.5-.6-.9-.1-.4-.2-.8-.2-1.2s0-.7.2-1c.1-.3.3-.6.5-.8.2-.2.5-.4.8-.6.3-.1.7-.2,1.1-.2s.7,0,.9.2c.3.1.5.3.7.5.2.2.4.5.5.8.1.3.2.6.2,1s0,.2,0,.3c0,0,0,.1,0,.2,0,0,0,0,0,0,0,0,0,0-.2,0h-3.2ZM266.7,25.9c0-.1,0-.3,0-.4,0-.1-.1-.3-.2-.4s-.2-.2-.3-.2c-.1,0-.3,0-.5,0-.3,0-.6,0-.8.3-.2.2-.3.5-.4.8h2.2Z"/>
    <path class="st1" d="M272.2,25c0,0,0,.1-.1.1,0,0,0,0-.2,0s-.1,0-.2,0-.2,0-.2-.1c0,0-.2,0-.3-.1-.1,0-.2,0-.4,0-.2,0-.4,0-.5.1-.1,0-.2.2-.2.4s0,.2.1.3c0,0,.2.1.3.2s.3.1.4.1c.2,0,.3,0,.5.2.2,0,.3.1.5.2.2,0,.3.2.4.3.1.1.2.2.3.4,0,.2.1.3.1.6s0,.5-.1.7c0,.2-.2.4-.4.6-.2.2-.4.3-.7.4-.3,0-.6.1-.9.1s-.4,0-.5,0c-.2,0-.3,0-.5-.1s-.3-.1-.5-.2c-.1,0-.3-.2-.4-.3l.3-.5c0,0,0-.1.1-.1s.1,0,.2,0,.2,0,.2,0c0,0,.2,0,.2.1,0,0,.2,0,.3.1.1,0,.3,0,.5,0s.3,0,.4,0c0,0,.2,0,.2-.1s.1-.1.1-.2,0-.1,0-.2c0-.1,0-.2-.1-.3,0,0-.2-.1-.3-.2-.1,0-.3-.1-.4-.1s-.3,0-.5-.1c-.2,0-.3-.1-.5-.2-.2,0-.3-.2-.4-.3-.1-.1-.2-.3-.3-.4,0-.2-.1-.4-.1-.6s0-.4.1-.6.2-.4.4-.5c.2-.2.4-.3.6-.4s.6-.1.9-.1.7,0,1,.2.6.3.8.5l-.3.5Z"/>
    <path class="st1" d="M275.1,22.4c0,.1,0,.2,0,.3s-.1.2-.2.3c0,0-.2.1-.3.2s-.2,0-.3,0-.2,0-.3,0c-.1,0-.2-.1-.3-.2,0,0-.1-.2-.2-.3,0-.1,0-.2,0-.3s0-.2,0-.3c0-.1.1-.2.2-.3,0,0,.2-.1.3-.2.1,0,.2,0,.3,0s.2,0,.3,0,.2.1.3.2c0,0,.1.2.2.3s0,.2,0,.3ZM274.9,23.9v5.3h-1.4v-5.3h1.4Z"/>
    <path class="st1" d="M280.8,21.5v7.7h-.9c-.2,0-.3,0-.3-.2v-.5c-.2.1-.3.2-.5.3-.1,0-.2.2-.4.2-.1,0-.3.1-.4.2-.2,0-.3,0-.5,0-.3,0-.5,0-.8-.2s-.4-.3-.6-.5c-.2-.2-.3-.5-.4-.9,0-.3-.1-.7-.1-1.2s0-.8.2-1.1c.1-.3.3-.6.5-.9.2-.2.4-.4.7-.6s.6-.2.9-.2.5,0,.7.1c.2,0,.4.2.5.4v-2.7h1.4ZM279.4,25.3c-.1-.2-.3-.3-.4-.3-.2,0-.3,0-.5,0s-.3,0-.5,0c-.1,0-.3.2-.4.3-.1.1-.2.3-.2.5,0,.2,0,.5,0,.8s0,.5,0,.8c0,.2.1.4.2.5s.2.2.3.3.3,0,.4,0c.3,0,.5,0,.6-.1.2,0,.3-.2.5-.4v-2.3Z"/>
    <path class="st1" d="M281.9,24.6c.3-.3.7-.5,1-.6.4-.1.8-.2,1.2-.2s.6,0,.8.2c.2.1.5.2.6.4.2.2.3.4.4.7,0,.3.1.5.1.8v3.3h-.6c-.1,0-.2,0-.3,0s-.1-.1-.2-.2v-.3c-.2.1-.4.2-.5.3-.1,0-.3.2-.4.2s-.3.1-.4.1c-.2,0-.3,0-.5,0s-.4,0-.6,0c-.2,0-.4-.2-.5-.3-.1-.1-.2-.3-.3-.5,0-.2-.1-.4-.1-.6s0-.4.1-.6.3-.4.5-.5c.2-.2.6-.3,1-.4s.9-.2,1.5-.2v-.3c0-.3,0-.6-.2-.7-.1-.2-.3-.2-.6-.2s-.4,0-.5,0c-.1,0-.2,0-.3.1s-.2.1-.3.1c0,0-.2,0-.3,0s-.2,0-.2,0c0,0-.1-.1-.2-.2l-.3-.5ZM284.7,27c-.3,0-.6,0-.9,0-.2,0-.4,0-.5.2-.1,0-.2.1-.3.2s0,.2,0,.3c0,.2,0,.4.2.4.1,0,.3.1.5.1s.4,0,.6-.1.3-.2.5-.4v-.8Z"/>
    <path class="st1" d="M291.9,21.5v7.7h-.9c-.2,0-.3,0-.3-.2v-.5c-.2.1-.3.2-.5.3-.1,0-.2.2-.4.2-.1,0-.3.1-.4.2-.2,0-.3,0-.5,0-.3,0-.5,0-.8-.2-.2-.1-.4-.3-.6-.5s-.3-.5-.4-.9c0-.3-.1-.7-.1-1.2s0-.8.2-1.1c.1-.3.3-.6.5-.9.2-.2.4-.4.7-.6s.6-.2.9-.2.5,0,.7.1c.2,0,.4.2.5.4v-2.7h1.4ZM290.5,25.3c-.1-.2-.3-.3-.4-.3-.2,0-.3,0-.5,0s-.3,0-.5,0c-.1,0-.3.2-.4.3-.1.1-.2.3-.2.5,0,.2,0,.5,0,.8s0,.5,0,.8c0,.2.1.4.2.5s.2.2.3.3.3,0,.4,0c.2,0,.5,0,.6-.1.2,0,.3-.2.5-.4v-2.3Z"/>
    <path class="st1" d="M294.2,26.8c0,.5.2.9.4,1.1s.5.3.9.3.4,0,.5,0c.1,0,.3,0,.4-.2.1,0,.2-.1.3-.2,0,0,.2,0,.3,0s.2,0,.3.1l.4.5c-.2.2-.3.3-.5.4-.2.1-.4.2-.6.3-.2,0-.4.1-.6.1-.2,0-.4,0-.6,0-.4,0-.7,0-1-.2s-.6-.3-.8-.5c-.2-.2-.4-.5-.6-.9-.1-.4-.2-.8-.2-1.2s0-.7.2-1c.1-.3.3-.6.5-.8.2-.2.5-.4.8-.6.3-.1.7-.2,1.1-.2s.7,0,.9.2c.3.1.5.3.7.5.2.2.4.5.5.8.1.3.2.6.2,1s0,.2,0,.3c0,0,0,.1,0,.2,0,0,0,0,0,0,0,0,0,0-.2,0h-3.2ZM296.5,25.9c0-.1,0-.3,0-.4,0-.1-.1-.3-.2-.4s-.2-.2-.3-.2c-.1,0-.3,0-.5,0-.3,0-.6,0-.8.3-.2.2-.3.5-.4.8h2.2Z"/>
  </g>
  <g>
    <path class="st1" d="M344.1,23h-1.4c-.3,0-.4,0-.6-.3l-1.4-2.3c0,0-.1-.2-.2-.2,0,0-.2,0-.3,0h-.5v2.8h-1.5v-7.5h2.3c.5,0,1,0,1.3.2s.7.3.9.5c.2.2.4.4.5.7.1.3.2.6.2.9s0,.5-.1.7-.2.4-.3.6c-.1.2-.3.3-.5.5s-.4.3-.7.3c0,0,.2.1.3.2,0,0,.2.2.2.3l1.7,2.7ZM340.4,19.1c.2,0,.5,0,.6,0,.2,0,.3-.2.4-.3.1-.1.2-.2.3-.4,0-.2,0-.3,0-.5,0-.4-.1-.6-.4-.8-.2-.2-.6-.3-1.1-.3h-.8v2.4h.8Z"/>
    <path class="st1" d="M346.2,16.2c0,.1,0,.2,0,.3s-.1.2-.2.3c0,0-.2.1-.3.2-.1,0-.2,0-.3,0s-.2,0-.3,0-.2-.1-.3-.2c0,0-.1-.2-.2-.3s0-.2,0-.3,0-.2,0-.3.1-.2.2-.3c0,0,.2-.1.3-.2s.2,0,.3,0,.2,0,.3,0c.1,0,.2.1.3.2,0,0,.1.2.2.3s0,.2,0,.3ZM346,17.7v5.3h-1.4v-5.3h1.4Z"/>
    <path class="st1" d="M350.5,18.8c0,0,0,.1-.1.1,0,0,0,0-.2,0s-.1,0-.2,0-.2,0-.2-.1c0,0-.2,0-.3-.1s-.2,0-.4,0c-.2,0-.4,0-.5.1-.1,0-.2.2-.2.4s0,.2.1.3c0,0,.2.1.3.2s.3.1.4.1c.2,0,.3,0,.5.2.2,0,.3.1.5.2.2,0,.3.2.4.3.1.1.2.2.3.4,0,.2.1.3.1.6s0,.5-.1.7c0,.2-.2.4-.4.6s-.4.3-.7.4c-.3,0-.6.1-.9.1s-.4,0-.5,0c-.2,0-.3,0-.5-.1s-.3-.1-.5-.2c-.1,0-.3-.2-.4-.3l.3-.5c0,0,0-.1.1-.1s.1,0,.2,0,.2,0,.2,0c0,0,.2,0,.2.1s.2,0,.3.1c.1,0,.3,0,.5,0s.3,0,.4,0,.2,0,.2-.1c0,0,.1-.1.1-.2s0-.1,0-.2c0-.1,0-.2-.1-.3,0,0-.2-.1-.3-.2-.1,0-.3-.1-.4-.1s-.3,0-.5-.1c-.2,0-.3-.1-.5-.2-.2,0-.3-.2-.4-.3-.1-.1-.2-.3-.3-.4,0-.2-.1-.4-.1-.6s0-.4.1-.6.2-.4.4-.5c.2-.2.4-.3.6-.4.3,0,.6-.1.9-.1s.7,0,1,.2.6.3.8.5l-.3.5Z"/>
    <path class="st1" d="M355.6,18.9c0,0,0,0-.1.1s0,0-.2,0-.1,0-.2,0c0,0-.1,0-.2-.1s-.2,0-.3-.1c-.1,0-.3,0-.4,0s-.4,0-.6.1c-.2,0-.3.2-.4.3-.1.1-.2.3-.2.5,0,.2,0,.4,0,.7,0,.5.1,1,.3,1.2s.5.4.9.4.2,0,.3,0c0,0,.2,0,.2,0s.1,0,.2-.1c0,0,.1,0,.1-.1,0,0,0,0,.1,0,0,0,0,0,.2,0,.1,0,.2,0,.3.1l.4.5c-.2.2-.3.3-.5.4-.2.1-.3.2-.5.3s-.4.1-.6.1-.4,0-.6,0c-.3,0-.6,0-.9-.2-.3-.1-.5-.3-.8-.5-.2-.2-.4-.5-.5-.9-.1-.3-.2-.7-.2-1.2s0-.7.2-1.1c.1-.3.3-.6.5-.9.2-.2.5-.4.8-.6.3-.1.7-.2,1.1-.2s.8,0,1.1.2c.3.1.6.3.8.6l-.4.5Z"/>
    <path class="st1" d="M359.1,17.6c.4,0,.8,0,1.1.2s.6.3.8.5c.2.2.4.5.5.9.1.3.2.7.2,1.1s0,.8-.2,1.1c-.1.3-.3.6-.5.9-.2.2-.5.4-.8.5s-.7.2-1.1.2-.8,0-1.1-.2c-.3-.1-.6-.3-.8-.5-.2-.2-.4-.5-.5-.9-.1-.3-.2-.7-.2-1.1s0-.8.2-1.1c.1-.3.3-.6.5-.9.2-.2.5-.4.8-.5.3-.1.7-.2,1.1-.2ZM359.1,22c.4,0,.7-.1.9-.4.2-.3.3-.7.3-1.2s0-1-.3-1.2c-.2-.3-.5-.4-.9-.4s-.7.1-.9.4c-.2.3-.3.7-.3,1.2s0,1,.3,1.2c.2.3.5.4.9.4Z"/>
    <path class="st1" d="M369.8,15.3v7.7h-.9c-.2,0-.3,0-.3-.2v-.5c-.2.1-.3.2-.5.3-.1,0-.2.2-.4.2-.1,0-.3.1-.4.2-.2,0-.3,0-.5,0-.3,0-.5,0-.8-.2-.2-.1-.4-.3-.6-.5-.2-.2-.3-.5-.4-.9,0-.3-.1-.7-.1-1.2s0-.8.2-1.1c.1-.3.3-.6.5-.9.2-.2.4-.4.7-.6s.6-.2.9-.2.5,0,.7.1c.2,0,.4.2.5.4v-2.7h1.4ZM368.4,19.1c-.1-.2-.3-.3-.4-.3-.2,0-.3,0-.5,0s-.3,0-.5,0c-.1,0-.3.2-.4.3-.1.1-.2.3-.2.5,0,.2,0,.5,0,.8s0,.5,0,.8c0,.2.1.4.2.5s.2.2.3.3.3,0,.4,0c.2,0,.5,0,.6-.1.2,0,.3-.2.5-.4v-2.3Z"/>
    <path class="st1" d="M372.1,20.6c0,.5.2.9.4,1.1s.5.3.9.3.4,0,.5,0c.1,0,.3,0,.4-.2.1,0,.2-.1.3-.2,0,0,.2,0,.3,0s.2,0,.3.1l.4.5c-.2.2-.3.3-.5.4-.2.1-.4.2-.6.3s-.4.1-.6.1-.4,0-.6,0c-.4,0-.7,0-1-.2-.3-.1-.6-.3-.8-.5-.2-.2-.4-.5-.6-.9-.1-.4-.2-.8-.2-1.2s0-.7.2-1c.1-.3.3-.6.5-.8.2-.2.5-.4.8-.6.3-.1.7-.2,1.1-.2s.7,0,.9.2c.3.1.5.3.7.5.2.2.4.5.5.8s.2.6.2,1,0,.2,0,.3c0,0,0,.1,0,.2,0,0,0,0,0,0,0,0,0,0-.2,0h-3.2ZM374.3,19.7c0-.1,0-.3,0-.4,0-.1-.1-.3-.2-.4s-.2-.2-.3-.2c-.1,0-.3,0-.5,0-.3,0-.6,0-.8.3-.2.2-.3.5-.4.8h2.2Z"/>
    <path class="st1" d="M383.6,15.3v7.7h-.9c-.2,0-.3,0-.3-.2v-.5c-.2.1-.3.2-.5.3-.1,0-.2.2-.4.2-.1,0-.3.1-.4.2-.2,0-.3,0-.5,0-.3,0-.5,0-.8-.2-.2-.1-.4-.3-.6-.5-.2-.2-.3-.5-.4-.9,0-.3-.1-.7-.1-1.2s0-.8.2-1.1c.1-.3.3-.6.5-.9.2-.2.4-.4.7-.6s.6-.2.9-.2.5,0,.7.1c.2,0,.4.2.5.4v-2.7h1.4ZM382.2,19.1c-.1-.2-.3-.3-.4-.3-.2,0-.3,0-.5,0s-.3,0-.5,0c-.1,0-.3.2-.4.3-.1.1-.2.3-.2.5,0,.2,0,.5,0,.8s0,.5,0,.8c0,.2.1.4.2.5s.2.2.3.3.3,0,.4,0c.2,0,.5,0,.6-.1.2,0,.3-.2.5-.4v-2.3Z"/>
    <path class="st1" d="M387.2,17.6c.4,0,.8,0,1.1.2s.6.3.8.5c.2.2.4.5.5.9.1.3.2.7.2,1.1s0,.8-.2,1.1c-.1.3-.3.6-.5.9-.2.2-.5.4-.8.5s-.7.2-1.1.2-.8,0-1.1-.2c-.3-.1-.6-.3-.8-.5-.2-.2-.4-.5-.5-.9-.1-.3-.2-.7-.2-1.1s0-.8.2-1.1c.1-.3.3-.6.5-.9.2-.2.5-.4.8-.5.3-.1.7-.2,1.1-.2ZM387.2,22c.4,0,.7-.1.9-.4.2-.3.3-.7.3-1.2s0-1-.3-1.2c-.2-.3-.5-.4-.9-.4s-.7.1-.9.4c-.2.3-.3.7-.3,1.2s0,1,.3,1.2c.2.3.5.4.9.4Z"/>
    <path class="st1" d="M391.9,20.6c0,.5.2.9.4,1.1s.5.3.9.3.4,0,.5,0c.1,0,.3,0,.4-.2.1,0,.2-.1.3-.2,0,0,.2,0,.3,0s.2,0,.3.1l.4.5c-.2.2-.3.3-.5.4-.2.1-.4.2-.6.3s-.4.1-.6.1-.4,0-.6,0c-.4,0-.7,0-1-.2-.3-.1-.6-.3-.8-.5-.2-.2-.4-.5-.6-.9-.1-.4-.2-.8-.2-1.2s0-.7.2-1c.1-.3.3-.6.5-.8.2-.2.5-.4.8-.6.3-.1.7-.2,1.1-.2s.7,0,.9.2c.3.1.5.3.7.5.2.2.4.5.5.8s.2.6.2,1,0,.2,0,.3c0,0,0,.1,0,.2,0,0,0,0,0,0,0,0,0,0-.2,0h-3.2ZM394.1,19.7c0-.1,0-.3,0-.4,0-.1-.1-.3-.2-.4s-.2-.2-.3-.2c-.1,0-.3,0-.5,0-.3,0-.6,0-.8.3-.2.2-.3.5-.4.8h2.2Z"/>
    <path class="st1" d="M397.5,18.3c.1-.1.2-.2.3-.3.1,0,.2-.2.4-.2.1,0,.3-.1.4-.1s.3,0,.5,0c.3,0,.5,0,.8.1.2,0,.4.2.6.4.2.2.3.4.3.6,0,.2.1.5.1.8v3.4h-1.4v-3.4c0-.3,0-.5-.2-.7-.1-.2-.3-.2-.6-.2s-.4,0-.6.1c-.2,0-.3.2-.5.4v3.8h-1.4v-5.3h.9c.2,0,.3,0,.4.2v.4Z"/>
    <path class="st1" d="M406.3,22.2c-.1.1-.3.3-.4.4-.1.1-.3.2-.4.3-.1,0-.3.1-.4.2-.2,0-.3,0-.5,0v.2c0,0,.2,0,.3.1.1,0,.2.1.3.2,0,0,.1.1.1.2,0,0,0,.2,0,.2s0,.2,0,.3c0,0-.2.2-.3.2-.1,0-.3.1-.4.2-.2,0-.3,0-.5,0s-.3,0-.4,0c-.1,0-.2,0-.4,0v-.4c.2,0,.2-.1.3-.1s0,0,.2,0c0,0,.1,0,.2,0s.2,0,.2,0c0,0,0,0,0-.1,0,0,0-.1-.2-.2-.1,0-.3,0-.6-.1l.2-.7c-.3,0-.5-.1-.8-.3-.2-.1-.5-.3-.6-.6s-.3-.5-.4-.8c-.1-.3-.2-.7-.2-1.1s0-.7.2-1.1c.1-.3.3-.6.5-.9.2-.2.5-.4.8-.6.3-.1.7-.2,1.1-.2s.8,0,1.1.2c.3.1.6.3.8.6l-.4.5c0,0,0,0-.1.1s0,0-.2,0-.1,0-.2,0c0,0-.1,0-.2-.1s-.2,0-.3-.1c-.1,0-.3,0-.4,0s-.4,0-.6.1c-.2,0-.3.2-.4.3-.1.1-.2.3-.2.5,0,.2,0,.4,0,.7,0,.5.1,1,.3,1.2s.5.4.9.4.2,0,.3,0c0,0,.2,0,.2,0s.1,0,.2-.1c0,0,.1,0,.1-.1,0,0,0,0,.1,0,0,0,0,0,.2,0,.1,0,.2,0,.3.1l.4.5Z"/>
    <path class="st1" d="M406.9,18.4c.3-.3.7-.5,1-.6.4-.1.8-.2,1.2-.2s.6,0,.8.2.5.2.6.4c.2.2.3.4.4.7s.1.5.1.8v3.3h-.6c-.1,0-.2,0-.3,0s-.1-.1-.2-.2v-.3c-.2.1-.4.2-.5.3-.1,0-.3.2-.4.2s-.3.1-.4.1c-.2,0-.3,0-.5,0s-.4,0-.6,0c-.2,0-.4-.2-.5-.3-.1-.1-.2-.3-.3-.5,0-.2-.1-.4-.1-.6s0-.4.1-.6.3-.4.5-.5c.2-.2.6-.3,1-.4.4-.1.9-.2,1.5-.2v-.3c0-.3,0-.6-.2-.7-.1-.2-.3-.2-.6-.2s-.4,0-.5,0c-.1,0-.2,0-.3.1s-.2.1-.3.1c0,0-.2,0-.3,0s-.2,0-.2,0c0,0-.1-.1-.2-.2l-.3-.5ZM409.8,20.8c-.3,0-.6,0-.9,0s-.4,0-.5.2c-.1,0-.2.1-.3.2s0,.2,0,.3c0,.2,0,.4.2.4.1,0,.3.1.5.1s.4,0,.6-.1c.2,0,.3-.2.5-.4v-.8Z"/>
  </g>
  <g>
    <path class="st1" d="M9.8,49.4c0,0-.1,0-.2,0s-.2,0-.2,0c0,0,.2,0,.2,0s.1,0,.2,0l2.3,1.2c0,0,.1,0,.1.1,0,0,0,0,0,.1v.7l-4-2.1v-.4l4-2.1v.7c0,0,0,.1,0,.2,0,0,0,0-.1.1l-2.3,1.2Z"/>
    <path class="st1" d="M21.3,52.3v.7h-4v-.7h1.6v-5c0-.2,0-.3,0-.5l-1.3,1.1s0,0-.1,0c0,0,0,0-.1,0s0,0-.1,0c0,0,0,0,0,0l-.3-.4,2.2-1.9h.7v6.7h1.5Z"/>
    <path class="st1" d="M26.1,49.2c.5.1.8.3,1.1.7s.4.7.4,1.2,0,.6-.2.9c-.1.3-.3.5-.5.7-.2.2-.5.3-.8.4-.3,0-.6.1-1,.1s-.7,0-1-.1-.6-.2-.8-.4c-.2-.2-.4-.4-.5-.7-.1-.3-.2-.5-.2-.9,0-.5.1-.9.4-1.2s.6-.5,1.1-.7c-.4-.1-.7-.4-.9-.6-.2-.3-.3-.6-.3-1s0-.5.2-.8c.1-.2.3-.4.5-.6.2-.2.4-.3.7-.4.3,0,.6-.1.9-.1s.6,0,.9.1c.3,0,.5.2.7.4.2.2.3.4.5.6s.2.5.2.8c0,.4,0,.7-.3,1-.2.3-.5.5-.9.6ZM25,52.4c.2,0,.5,0,.6-.1s.4-.2.5-.3c.1-.1.2-.3.3-.4,0-.2.1-.4.1-.6s0-.5-.1-.7-.2-.3-.3-.4c-.1-.1-.3-.2-.5-.2s-.4,0-.6,0-.4,0-.6,0c-.2,0-.3.1-.5.2-.1.1-.3.3-.3.4s-.1.4-.1.7,0,.4.1.6c0,.2.2.3.3.4.1.1.3.2.5.3s.4.1.6.1ZM25,46.3c-.2,0-.4,0-.6,0-.2,0-.3.2-.4.3-.1.1-.2.2-.3.4,0,.2,0,.3,0,.5s0,.3,0,.5c0,.2.1.3.2.4.1.1.2.2.4.3.2,0,.4.1.6.1s.4,0,.6-.1c.2,0,.3-.2.4-.3.1-.1.2-.3.2-.4s0-.3,0-.5,0-.3,0-.5c0-.2-.1-.3-.3-.4-.1-.1-.3-.2-.4-.3-.2,0-.4,0-.6,0Z"/>
    <path class="st1" d="M28.6,54.3s0,0,0,0,0,0,0,0,0,0,0,0c0,0,0,0,0,0,0,0,0,0,.1-.1,0,0,.1-.1.2-.2,0,0,.1-.2.2-.3s0-.2.1-.3c0,0,0,0,0,0h0c-.2,0-.3,0-.4-.2-.1-.1-.2-.3-.2-.5s0-.3.2-.4.3-.2.4-.2.2,0,.3,0c0,0,.1,0,.2.2s0,.1.1.2,0,.2,0,.3c0,.2,0,.3,0,.5,0,.2-.1.3-.2.5,0,.2-.2.3-.3.5s-.3.3-.4.4h-.2Z"/>
    <path class="st1" d="M32.2,48.4c.4,0,.7-.1,1.1-.1s.7,0,1,.2.5.3.7.5c.2.2.3.4.4.7s.2.6.2.9,0,.7-.2,1.1c-.1.3-.3.6-.6.8s-.5.4-.8.5c-.3.1-.7.2-1,.2s-.4,0-.6,0c-.2,0-.4-.1-.6-.2-.2,0-.3-.2-.5-.2s-.3-.2-.4-.3l.3-.4c0,0,.1-.1.2-.1s.1,0,.2,0,.2.1.3.2c.1,0,.3.1.4.2s.4,0,.6,0,.5,0,.7-.1c.2,0,.4-.2.5-.4.1-.2.3-.3.3-.5,0-.2.1-.5.1-.7s0-.4-.1-.6-.2-.3-.3-.5c-.1-.1-.3-.2-.5-.3-.2,0-.4-.1-.7-.1s-.4,0-.6,0c-.2,0-.4,0-.6.1l-.6-.2.6-3.4h3.5v.4c0,.1,0,.2-.1.3s-.2.1-.4.1h-2.3l-.3,1.9Z"/>
  </g>
  <path class="st4" d="M114.4,45.6v7.4h-.5c0,0-.1,0-.2,0s-.1,0-.2-.1l-4.3-5.6c0,0,0,.2,0,.3,0,0,0,.2,0,.2v5.3h-.9v-7.4h.5s0,0,.1,0c0,0,0,0,0,0s0,0,0,0c0,0,0,0,0,0l4.3,5.6c0,0,0-.2,0-.3,0,0,0-.2,0-.2v-5.2h.9Z"/>
  <g>
    <path class="st4" d="M118.1,47.7c.4,0,.7,0,1,.2.3.1.6.3.8.5s.4.5.5.8c.1.3.2.7.2,1.1s0,.8-.2,1.1c-.1.3-.3.6-.5.8s-.5.4-.8.5c-.3.1-.6.2-1,.2s-.7,0-1-.2c-.3-.1-.6-.3-.8-.5-.2-.2-.4-.5-.5-.8-.1-.3-.2-.7-.2-1.1s0-.8.2-1.1.3-.6.5-.8c.2-.2.5-.4.8-.5.3-.1.7-.2,1-.2ZM118.1,52.4c.5,0,.9-.2,1.2-.5s.4-.8.4-1.4-.1-1.1-.4-1.5c-.3-.3-.6-.5-1.2-.5s-.5,0-.7.1c-.2,0-.4.2-.5.4-.1.2-.2.4-.3.6,0,.2,0,.5,0,.8,0,.6.1,1.1.4,1.4.3.3.6.5,1.2.5Z"/>
    <path class="st4" d="M122.6,48.8c.2-.4.4-.6.6-.8.2-.2.5-.3.9-.3s.2,0,.3,0c.1,0,.2,0,.3.1v.7c0,0-.1.1-.2.1s-.1,0-.2,0c0,0-.2,0-.3,0s-.3,0-.4,0c-.1,0-.2.1-.3.2s-.2.2-.3.4c0,.1-.2.3-.2.5v3.3h-.9v-5.2h.5c0,0,.2,0,.2,0s0,.1,0,.2v.8Z"/>
    <path class="st4" d="M125.4,53v-5.2h.6c.1,0,.2,0,.2.2v.5c.3-.2.5-.4.7-.6s.5-.2.8-.2.6,0,.9.3.4.5.5.8c0-.2.2-.4.3-.5.1-.1.3-.3.4-.3.1,0,.3-.2.5-.2s.3,0,.5,0c.3,0,.5,0,.7.1.2,0,.4.2.5.4.1.2.3.4.3.6s.1.5.1.8v3.3h-.9v-3.3c0-.4,0-.7-.3-.9-.2-.2-.4-.3-.8-.3s-.3,0-.4,0c-.1,0-.3.1-.4.2s-.2.2-.2.4,0,.3,0,.5v3.3h-.9v-3.3c0-.4,0-.7-.3-.9-.2-.2-.4-.3-.7-.3s-.4,0-.6.2-.4.3-.5.5v3.9h-.9Z"/>
    <path class="st4" d="M133.8,48.5c.3-.3.6-.5.9-.6.3-.1.7-.2,1.1-.2s.6,0,.8.1c.2,0,.4.2.6.4.2.2.3.4.4.6,0,.2.1.5.1.8v3.3h-.4c0,0-.2,0-.2,0,0,0,0,0-.1-.2v-.5c-.2.1-.4.2-.5.3-.1,0-.3.2-.4.2s-.3.1-.5.2c-.2,0-.3,0-.5,0s-.4,0-.6,0c-.2,0-.3-.1-.5-.3-.1-.1-.2-.3-.3-.4,0-.2-.1-.4-.1-.6s0-.4.2-.6c.1-.2.3-.4.6-.5s.6-.3,1-.4c.4,0,.9-.1,1.5-.2v-.4c0-.4,0-.7-.3-.9s-.4-.3-.8-.3-.4,0-.6,0c-.2,0-.3.1-.4.2-.1,0-.2.1-.3.2s-.2,0-.2,0-.1,0-.2,0c0,0,0,0-.1-.1l-.2-.3ZM136.7,50.7c-.4,0-.8,0-1.1.1s-.5.1-.7.2c-.2,0-.3.2-.4.3s-.1.2-.1.4,0,.3,0,.4c0,0,.1.2.2.2,0,0,.2.1.3.1s.2,0,.3,0,.3,0,.4,0c.1,0,.3,0,.4-.1.1,0,.2-.1.3-.2.1,0,.2-.2.3-.3v-1.1Z"/>
    <path class="st4" d="M140,45.4v7.6h-.9v-7.6h.9Z"/>
    <path class="st4" d="M146.3,47.7c.4,0,.7,0,1,.2.3.1.6.3.8.5s.4.5.5.8c.1.3.2.7.2,1.1s0,.8-.2,1.1c-.1.3-.3.6-.5.8s-.5.4-.8.5c-.3.1-.6.2-1,.2s-.7,0-1-.2c-.3-.1-.6-.3-.8-.5-.2-.2-.4-.5-.5-.8-.1-.3-.2-.7-.2-1.1s0-.8.2-1.1.3-.6.5-.8c.2-.2.5-.4.8-.5.3-.1.7-.2,1-.2ZM146.3,52.4c.5,0,.9-.2,1.2-.5s.4-.8.4-1.4-.1-1.1-.4-1.5c-.3-.3-.6-.5-1.2-.5s-.5,0-.7.1c-.2,0-.4.2-.5.4-.1.2-.2.4-.3.6,0,.2,0,.5,0,.8,0,.6.1,1.1.4,1.4.3.3.6.5,1.2.5Z"/>
    <path class="st4" d="M154.2,47.8v5.2h-.5c-.1,0-.2,0-.2-.2v-.6c-.3.2-.6.5-.8.6-.3.2-.6.2-1,.2s-.5,0-.8-.1-.4-.2-.5-.4c-.1-.2-.3-.4-.3-.6,0-.2-.1-.5-.1-.8v-3.3h.9v3.3c0,.4,0,.7.3.9.2.2.5.3.8.3s.5,0,.8-.2c.2-.1.5-.3.7-.5v-3.8h.9Z"/>
    <path class="st4" d="M162.5,52.3c-.1.1-.2.3-.4.4-.2.1-.3.2-.5.2-.2,0-.4.1-.6.1-.2,0-.4,0-.6,0-.4,0-.7,0-1-.2-.3-.1-.6-.3-.8-.5s-.4-.5-.5-.9c-.1-.3-.2-.7-.2-1.2s0-.7.2-1c.1-.3.3-.6.5-.8.2-.2.5-.4.8-.5.3-.1.6-.2,1-.2s.6,0,.9.2.5.3.7.5.3.4.5.7c.1.3.2.6.2,1s0,.2,0,.3c0,0,0,0-.2,0h-3.5c0,.3,0,.6.1.9s.2.4.3.6c.1.2.3.3.5.4s.4.1.7.1.4,0,.6,0,.3-.1.4-.2.2-.1.3-.2.1,0,.2,0,.1,0,.2,0l.3.3ZM161.8,49.8c0-.2,0-.4,0-.6s-.1-.3-.3-.5-.3-.2-.4-.3-.4-.1-.6-.1c-.4,0-.8.1-1,.4s-.4.6-.5,1.1h2.9Z"/>
    <path class="st4" d="M168,47.8v5.2h-.5c-.1,0-.2,0-.2-.2v-.6c-.3.2-.6.5-.8.6-.3.2-.6.2-1,.2s-.5,0-.8-.1-.4-.2-.5-.4c-.1-.2-.3-.4-.3-.6,0-.2-.1-.5-.1-.8v-3.3h.9v3.3c0,.4,0,.7.3.9.2.2.5.3.8.3s.5,0,.8-.2c.2-.1.5-.3.7-.5v-3.8h.9Z"/>
    <path class="st4" d="M171.1,53.1c-.4,0-.7-.1-.9-.3-.2-.2-.3-.6-.3-1v-3.2h-.6c0,0-.1,0-.1,0s0,0,0-.2v-.4h.9c0-.1.2-1.7.2-1.7,0,0,0,0,0-.1,0,0,0,0,.1,0h.5v1.8h1.5v.7h-1.5v3.1c0,.2,0,.4.2.5.1.1.2.2.4.2s.2,0,.2,0,.1,0,.2,0c0,0,0,0,.1,0,0,0,0,0,0,0,0,0,0,0,.1,0l.3.4c-.2.1-.3.3-.6.3-.2,0-.5.1-.7.1Z"/>
    <path class="st4" d="M174,48.8c.2-.4.4-.6.6-.8.2-.2.5-.3.9-.3s.2,0,.3,0c.1,0,.2,0,.3.1v.7c0,0-.1.1-.2.1s-.1,0-.2,0c0,0-.2,0-.3,0s-.3,0-.4,0c-.1,0-.2.1-.3.2s-.2.2-.3.4c0,.1-.2.3-.2.5v3.3h-.9v-5.2h.5c0,0,.2,0,.2,0s0,.1,0,.2v.8Z"/>
  </g>
  <g>
    <path class="st4" d="M178.9,47.7c.4,0,.7,0,1,.2.3.1.6.3.8.5s.4.5.5.8c.1.3.2.7.2,1.1s0,.8-.2,1.1c-.1.3-.3.6-.5.8s-.5.4-.8.5c-.3.1-.6.2-1,.2s-.7,0-1-.2c-.3-.1-.6-.3-.8-.5-.2-.2-.4-.5-.5-.8-.1-.3-.2-.7-.2-1.1s0-.8.2-1.1.3-.6.5-.8c.2-.2.5-.4.8-.5.3-.1.7-.2,1-.2ZM178.9,52.4c.5,0,.9-.2,1.2-.5s.4-.8.4-1.4-.1-1.1-.4-1.5c-.3-.3-.6-.5-1.2-.5s-.5,0-.7.1c-.2,0-.4.2-.5.4-.1.2-.2.4-.3.6,0,.2,0,.5,0,.8,0,.6.1,1.1.4,1.4.3.3.6.5,1.2.5ZM180.4,45.6l-1.2,1.3c0,0,0,0-.1.1s-.1,0-.2,0h-.5l.8-1.2c0,0,.1-.1.2-.2,0,0,.1,0,.2,0h.9Z"/>
    <path class="st4" d="M182.8,53v-4.4h-.6c0,0-.1-.1-.2-.1,0,0,0,0,0-.2v-.4h.8v-.3c0-.3,0-.6.1-.9,0-.3.2-.5.4-.7.2-.2.4-.3.7-.4s.6-.2,1-.2.3,0,.4,0,.3,0,.4,0v.5s0,0,0,0,0,0,0,0c0,0,0,0-.1,0,0,0-.1,0-.2,0-.6,0-1.1.1-1.3.4-.3.3-.4.6-.4,1.1v.3h3.1v5.1h-.9v-4.4h-2.2v4.4h-.9Z"/>
  </g>
  <g>
    <path class="st4" d="M191.9,48.7s0,0,0,0c0,0,0,0-.1,0s-.1,0-.2,0c0,0-.1,0-.2-.1,0,0-.2,0-.3-.1-.1,0-.3,0-.5,0s-.5,0-.7.1c-.2,0-.4.2-.5.4-.1.2-.2.4-.3.6,0,.2-.1.5-.1.8s0,.6.1.8c0,.2.2.5.3.6s.3.3.5.4.4.1.6.1.4,0,.6,0,.3-.1.4-.2c0,0,.2-.1.2-.2s.1,0,.2,0,.1,0,.2,0l.3.3c-.1.1-.2.3-.4.4-.1,0-.3.2-.5.2s-.3.1-.5.1c-.2,0-.4,0-.6,0-.3,0-.6,0-.9-.2-.3-.1-.5-.3-.7-.5-.2-.2-.4-.5-.5-.8-.1-.3-.2-.7-.2-1.1s0-.7.2-1.1c.1-.3.3-.6.5-.9s.5-.4.8-.6c.3-.1.7-.2,1-.2s.7,0,1,.2c.3.1.5.3.7.5l-.2.3Z"/>
    <path class="st4" d="M195.3,47.7c.4,0,.7,0,1,.2.3.1.6.3.8.5s.4.5.5.8c.1.3.2.7.2,1.1s0,.8-.2,1.1c-.1.3-.3.6-.5.8s-.5.4-.8.5c-.3.1-.6.2-1,.2s-.7,0-1-.2c-.3-.1-.6-.3-.8-.5-.2-.2-.4-.5-.5-.8-.1-.3-.2-.7-.2-1.1s0-.8.2-1.1.3-.6.5-.8c.2-.2.5-.4.8-.5.3-.1.7-.2,1-.2ZM195.3,52.4c.5,0,.9-.2,1.2-.5s.4-.8.4-1.4-.1-1.1-.4-1.5c-.3-.3-.6-.5-1.2-.5s-.5,0-.7.1c-.2,0-.4.2-.5.4-.1.2-.2.4-.3.6,0,.2,0,.5,0,.8,0,.6.1,1.1.4,1.4.3.3.6.5,1.2.5Z"/>
  </g>
  <g>
    <path class="st4" d="M233.1,49.3c0,.6,0,1.2-.2,1.7-.1.5-.3.9-.6,1.2-.2.3-.5.5-.9.7s-.7.2-1.1.2-.7,0-1.1-.2-.6-.4-.8-.7c-.2-.3-.4-.7-.6-1.2-.1-.5-.2-1-.2-1.7s0-1.2.2-1.7c.1-.5.3-.9.6-1.2.2-.3.5-.5.8-.7s.7-.2,1.1-.2.7,0,1.1.2.6.4.9.7.4.7.6,1.2c.1.5.2,1,.2,1.7ZM232.1,49.3c0-.6,0-1-.1-1.4,0-.4-.2-.7-.4-.9-.2-.2-.3-.4-.6-.5s-.4-.2-.7-.2-.4,0-.7.2c-.2.1-.4.3-.6.5-.2.2-.3.5-.4.9,0,.4-.1.9-.1,1.4s0,1,.1,1.4c0,.4.2.7.4.9.2.2.3.4.6.5.2.1.4.2.7.2s.4,0,.7-.2.4-.3.6-.5c.2-.2.3-.5.4-.9s.1-.9.1-1.4Z"/>
    <path class="st4" d="M334.4,45.6v7.4h-.5c0,0-.1,0-.2,0,0,0-.1,0-.2-.1l-4.3-5.6c0,0,0,.2,0,.3,0,0,0,.2,0,.2v5.3h-.9v-7.4h.5s0,0,.1,0c0,0,0,0,0,0,0,0,0,0,0,0,0,0,0,0,0,0l4.3,5.6c0,0,0-.2,0-.3,0,0,0-.2,0-.2v-5.2h.9Z"/>
  </g>
  <g>
    <path class="st4" d="M338.1,47.7c.4,0,.7,0,1,.2.3.1.6.3.8.5s.4.5.5.8c.1.3.2.7.2,1.1s0,.8-.2,1.1c-.1.3-.3.6-.5.8s-.5.4-.8.5c-.3.1-.6.2-1,.2s-.7,0-1-.2-.6-.3-.8-.5c-.2-.2-.4-.5-.5-.8-.1-.3-.2-.7-.2-1.1s0-.8.2-1.1.3-.6.5-.8c.2-.2.5-.4.8-.5.3-.1.7-.2,1-.2ZM338.1,52.4c.5,0,.9-.2,1.2-.5s.4-.8.4-1.4-.1-1.1-.4-1.5c-.3-.3-.6-.5-1.2-.5s-.5,0-.7.1c-.2,0-.4.2-.5.4s-.2.4-.3.6c0,.2,0,.5,0,.8,0,.6.1,1.1.4,1.4s.6.5,1.2.5Z"/>
    <path class="st4" d="M342.6,48.8c.2-.4.4-.6.6-.8s.5-.3.9-.3.2,0,.3,0c.1,0,.2,0,.3.1v.7c0,0-.1.1-.2.1s-.1,0-.2,0c0,0-.2,0-.3,0s-.3,0-.4,0-.2.1-.3.2-.2.2-.3.4c0,.1-.2.3-.2.5v3.3h-.9v-5.2h.5c0,0,.2,0,.2,0s0,.1,0,.2v.8Z"/>
    <path class="st4" d="M345.4,53v-5.2h.6c.1,0,.2,0,.2.2v.5c.3-.2.5-.4.7-.6.2-.2.5-.2.8-.2s.6,0,.9.3.4.5.5.8c0-.2.2-.4.3-.5s.3-.3.4-.3c.1,0,.3-.2.5-.2s.3,0,.5,0c.3,0,.5,0,.7.1.2,0,.4.2.5.4s.3.4.3.6c0,.2.1.5.1.8v3.3h-.9v-3.3c0-.4,0-.7-.3-.9-.2-.2-.4-.3-.8-.3s-.3,0-.4,0c-.1,0-.3.1-.4.2-.1.1-.2.2-.2.4,0,.2,0,.3,0,.5v3.3h-.9v-3.3c0-.4,0-.7-.3-.9-.2-.2-.4-.3-.7-.3s-.4,0-.6.2c-.2.1-.4.3-.5.5v3.9h-.9Z"/>
    <path class="st4" d="M353.8,48.5c.3-.3.6-.5.9-.6.3-.1.7-.2,1.1-.2s.6,0,.8.1c.2,0,.4.2.6.4.2.2.3.4.3.6,0,.2.1.5.1.8v3.3h-.4c0,0-.2,0-.2,0,0,0,0,0-.1-.2v-.5c-.2.1-.4.2-.5.3-.1,0-.3.2-.4.2-.1,0-.3.1-.5.2s-.3,0-.5,0-.4,0-.6,0-.3-.1-.5-.3c-.1-.1-.2-.3-.3-.4,0-.2-.1-.4-.1-.6s0-.4.2-.6.3-.4.6-.5.6-.3,1-.4c.4,0,.9-.1,1.5-.2v-.4c0-.4,0-.7-.3-.9-.2-.2-.4-.3-.8-.3s-.4,0-.6,0c-.2,0-.3.1-.4.2-.1,0-.2.1-.3.2,0,0-.2,0-.2,0s-.1,0-.2,0c0,0,0,0-.1-.1l-.2-.3ZM356.7,50.7c-.4,0-.8,0-1.1.1-.3,0-.5.1-.7.2-.2,0-.3.2-.4.3s-.1.2-.1.4,0,.3,0,.4c0,0,.1.2.2.2,0,0,.2.1.3.1s.2,0,.3,0,.3,0,.4,0c.1,0,.3,0,.4-.1.1,0,.2-.1.3-.2.1,0,.2-.2.3-.3v-1.1Z"/>
    <path class="st4" d="M360,45.4v7.6h-.9v-7.6h.9Z"/>
  </g>
  <g>
    <path class="st1" d="M12.5,82.1c0,0,.2,0,.2,0,0,0,0,.1,0,.2v.6h-4.9v-.3c0,0,0-.1,0-.2,0,0,0-.1.1-.2l2.4-2.4c.2-.2.4-.4.5-.6.2-.2.3-.4.4-.6.1-.2.2-.4.3-.6,0-.2,0-.4,0-.6s0-.4-.1-.6c0-.2-.2-.3-.3-.4-.1-.1-.3-.2-.4-.2-.2,0-.3,0-.5,0s-.4,0-.5,0c-.2,0-.3.1-.4.2-.1,0-.2.2-.3.3,0,.1-.1.3-.2.4,0,.1,0,.2-.2.2s-.2,0-.3,0h-.5c0-.4.1-.7.3-1,.1-.3.3-.5.5-.7s.5-.3.7-.4c.3,0,.6-.1.9-.1s.6,0,.9.1c.3,0,.5.2.7.4.2.2.4.4.5.6s.2.5.2.9,0,.5-.1.8c0,.2-.2.5-.3.7-.1.2-.3.4-.5.6-.2.2-.4.4-.6.6l-1.9,2c.1,0,.3,0,.4,0s.3,0,.4,0h2.5Z"/>
    <path class="st1" d="M15.3,78.4c.4,0,.7-.1,1.1-.1s.7,0,1,.2.5.3.7.5c.2.2.3.4.4.7s.2.6.2.9,0,.7-.2,1.1c-.1.3-.3.6-.6.8s-.5.4-.8.5c-.3.1-.7.2-1,.2s-.4,0-.6,0c-.2,0-.4-.1-.6-.2-.2,0-.3-.2-.5-.2s-.3-.2-.4-.3l.3-.4c0,0,.1-.1.2-.1s.1,0,.2,0,.2.1.3.2c.1,0,.3.1.4.2s.4,0,.6,0,.5,0,.7-.1c.2,0,.4-.2.5-.4.1-.2.3-.3.3-.5,0-.2.1-.5.1-.7s0-.4-.1-.6-.2-.3-.3-.5c-.1-.1-.3-.2-.5-.3-.2,0-.4-.1-.7-.1s-.4,0-.6,0c-.2,0-.4,0-.6.1l-.6-.2.6-3.4h3.5v.4c0,.1,0,.2-.1.3s-.2.1-.4.1h-2.3l-.3,1.9Z"/>
    <path class="st1" d="M20,84.3s0,0,0,0,0,0,0,0,0,0,0,0c0,0,0,0,0,0,0,0,0,0,.1-.1,0,0,.1-.1.2-.2,0,0,.1-.2.2-.3s0-.2.1-.3c0,0,0,0,0,0h0c-.2,0-.3,0-.4-.2-.1-.1-.2-.3-.2-.5s0-.3.2-.4.3-.2.4-.2.2,0,.3,0c0,0,.1,0,.2.2s0,.1.1.2,0,.2,0,.3c0,.2,0,.3,0,.5,0,.2-.1.3-.2.5,0,.2-.2.3-.3.5s-.3.3-.4.4h-.2Z"/>
    <path class="st1" d="M27.4,79.3c0,.6,0,1.2-.2,1.7-.1.5-.3.9-.6,1.2-.2.3-.5.5-.9.7-.3.2-.7.2-1.1.2s-.7,0-1.1-.2-.6-.4-.8-.7c-.2-.3-.4-.7-.6-1.2-.1-.5-.2-1-.2-1.7s0-1.2.2-1.7c.1-.5.3-.9.6-1.2.2-.3.5-.5.8-.7s.7-.2,1.1-.2.7,0,1.1.2c.3.2.6.4.9.7.2.3.4.7.6,1.2.1.5.2,1,.2,1.7ZM26.4,79.3c0-.6,0-1-.1-1.4,0-.4-.2-.7-.4-.9-.2-.2-.3-.4-.6-.5s-.4-.2-.7-.2-.4,0-.7.2c-.2.1-.4.3-.6.5-.2.2-.3.5-.4.9,0,.4-.1.9-.1,1.4s0,1,.1,1.4c0,.4.2.7.4.9.2.2.3.4.6.5.2.1.4.2.7.2s.4,0,.7-.2.4-.3.6-.5c.2-.2.3-.5.4-.9,0-.4.1-.9.1-1.4Z"/>
    <path class="st1" d="M31.2,79.6h4.1v.7h-4.1v-.7Z"/>
    <path class="st1" d="M44,82.1c0,0,.2,0,.2,0,0,0,0,.1,0,.2v.6h-4.9v-.3c0,0,0-.1,0-.2,0,0,0-.1.1-.2l2.4-2.4c.2-.2.4-.4.5-.6.2-.2.3-.4.4-.6.1-.2.2-.4.3-.6,0-.2,0-.4,0-.6s0-.4-.1-.6c0-.2-.2-.3-.3-.4-.1-.1-.3-.2-.4-.2-.2,0-.3,0-.5,0s-.4,0-.5,0c-.2,0-.3.1-.4.2-.1,0-.2.2-.3.3,0,.1-.1.3-.2.4,0,.1,0,.2-.2.2s-.2,0-.3,0h-.5c0-.4.1-.7.3-1,.1-.3.3-.5.5-.7s.5-.3.7-.4c.3,0,.6-.1.9-.1s.6,0,.9.1c.3,0,.5.2.7.4.2.2.4.4.5.6s.2.5.2.9,0,.5-.1.8c0,.2-.2.5-.3.7-.1.2-.3.4-.5.6-.2.2-.4.4-.6.6l-1.9,2c.1,0,.3,0,.4,0s.3,0,.4,0h2.5Z"/>
    <path class="st1" d="M48.5,80.1c0,0,.1-.2.2-.3,0,0,.1-.2.2-.3-.2.2-.4.3-.6.3s-.5.1-.8.1-.5,0-.8-.1c-.2,0-.5-.2-.7-.4-.2-.2-.3-.4-.5-.7-.1-.3-.2-.6-.2-.9s0-.6.2-.9.3-.5.5-.7c.2-.2.5-.4.8-.5s.6-.2,1-.2.7,0,1,.2.5.3.7.5c.2.2.4.5.5.8s.2.6.2,1,0,.4,0,.6c0,.2,0,.4-.2.6s-.2.4-.3.5c-.1.2-.2.4-.4.6l-1.8,2.6c0,0-.1.1-.2.2,0,0-.2,0-.3,0h-.8l2.2-2.9ZM46.3,77.8c0,.2,0,.4.1.6s.2.3.3.5c.1.1.3.2.5.3.2,0,.4,0,.6,0s.5,0,.7-.1.4-.2.5-.3c.1-.1.2-.3.3-.5,0-.2.1-.4.1-.5s0-.4-.1-.6-.2-.3-.3-.5-.3-.2-.5-.3-.4-.1-.6-.1-.4,0-.6.1c-.2,0-.3.2-.5.3-.1.1-.2.3-.3.5,0,.2-.1.4-.1.6Z"/>
    <path class="st1" d="M51.5,84.3s0,0,0,0,0,0,0,0,0,0,0,0c0,0,0,0,0,0,0,0,0,0,.1-.1,0,0,.1-.1.2-.2,0,0,.1-.2.2-.3s0-.2.1-.3c0,0,0,0,0,0h0c-.2,0-.3,0-.4-.2-.1-.1-.2-.3-.2-.5s0-.3.2-.4.3-.2.4-.2.2,0,.3,0c0,0,.1,0,.2.2s0,.1.1.2,0,.2,0,.3c0,.2,0,.3,0,.5,0,.2-.1.3-.2.5,0,.2-.2.3-.3.5s-.3.3-.4.4h-.2Z"/>
    <path class="st1" d="M56.8,80.1c0,0,.1-.2.2-.3,0,0,.1-.2.2-.3-.2.2-.4.3-.6.3s-.5.1-.8.1-.5,0-.8-.1c-.2,0-.5-.2-.7-.4-.2-.2-.3-.4-.5-.7-.1-.3-.2-.6-.2-.9s0-.6.2-.9.3-.5.5-.7c.2-.2.5-.4.8-.5s.6-.2,1-.2.7,0,1,.2.5.3.7.5c.2.2.4.5.5.8s.2.6.2,1,0,.4,0,.6c0,.2,0,.4-.2.6s-.2.4-.3.5c-.1.2-.2.4-.4.6l-1.8,2.6c0,0-.1.1-.2.2,0,0-.2,0-.3,0h-.8l2.2-2.9ZM54.6,77.8c0,.2,0,.4.1.6s.2.3.3.5c.1.1.3.2.5.3.2,0,.4,0,.6,0s.5,0,.7-.1.4-.2.5-.3c.1-.1.2-.3.3-.5,0-.2.1-.4.1-.5s0-.4-.1-.6-.2-.3-.3-.5-.3-.2-.5-.3-.4-.1-.6-.1-.4,0-.6.1c-.2,0-.3.2-.5.3-.1.1-.2.3-.3.5,0,.2-.1.4-.1.6Z"/>
  </g>
  <g>
    <path class="st4" d="M112.2,76.8c0,0,0,0-.1.1,0,0,0,0-.1,0s-.1,0-.2,0c0,0-.2-.1-.3-.2-.1,0-.3-.1-.4-.2-.2,0-.4,0-.6,0s-.4,0-.6,0-.3.1-.4.2c-.1.1-.2.2-.3.4,0,.1,0,.3,0,.5s0,.4.2.5c.1.1.2.3.4.3s.4.2.6.2.4.1.6.2c.2,0,.4.2.6.3.2,0,.4.2.6.4.2.1.3.3.4.5.1.2.2.5.2.8s0,.6-.2.9c-.1.3-.3.5-.5.7-.2.2-.5.4-.8.5-.3.1-.7.2-1,.2s-.9,0-1.3-.3c-.4-.2-.7-.4-1-.7l.3-.5s0,0,.1,0,0,0,.1,0,0,0,.2,0c0,0,.1,0,.2.1,0,0,.2.1.2.2,0,0,.2.1.3.2.1,0,.3.1.4.1.2,0,.3,0,.5,0s.4,0,.6,0c.2,0,.3-.2.5-.3.1-.1.2-.3.3-.4,0-.2.1-.3.1-.6s0-.4-.2-.5c-.1-.1-.2-.3-.4-.4s-.4-.2-.6-.2-.4-.1-.6-.2c-.2,0-.4-.2-.6-.2-.2,0-.4-.2-.6-.4-.2-.1-.3-.3-.4-.6s-.2-.5-.2-.8,0-.5.2-.8c.1-.2.2-.5.4-.6s.4-.3.7-.5c.3-.1.6-.2,1-.2s.8,0,1.1.2.6.3.9.6l-.2.5Z"/>
    <path class="st4" d="M115.9,77.7c.4,0,.7,0,1,.2.3.1.6.3.8.5s.4.5.5.8c.1.3.2.7.2,1.1s0,.8-.2,1.1c-.1.3-.3.6-.5.8s-.5.4-.8.5c-.3.1-.6.2-1,.2s-.7,0-1-.2c-.3-.1-.6-.3-.8-.5-.2-.2-.4-.5-.5-.8-.1-.3-.2-.7-.2-1.1s0-.8.2-1.1.3-.6.5-.8c.2-.2.5-.4.8-.5.3-.1.7-.2,1-.2ZM115.9,82.4c.5,0,.9-.2,1.2-.5s.4-.8.4-1.4-.1-1.1-.4-1.5c-.3-.3-.6-.5-1.2-.5s-.5,0-.7.1c-.2,0-.4.2-.5.4-.1.2-.2.4-.3.6,0,.2,0,.5,0,.8,0,.6.1,1.1.4,1.4.3.3.6.5,1.2.5Z"/>
    <path class="st4" d="M120.5,78.6c.2-.3.5-.5.7-.6.3-.2.6-.2,1-.2s.6,0,.8.2.5.3.6.5c.2.2.3.5.4.8,0,.3.1.7.1,1.1s0,.8-.2,1.2c-.1.3-.3.6-.4.9s-.4.4-.7.6c-.3.1-.6.2-.9.2s-.6,0-.9-.2c-.2-.1-.4-.3-.6-.5v.5c0,.1-.2.2-.3.2h-.6v-7.6h.9v3.1ZM120.5,81.8c.2.2.4.4.6.5.2,0,.4.1.7.1.5,0,.9-.2,1.1-.5.3-.3.4-.9.4-1.5s-.1-1.1-.3-1.4c-.2-.3-.6-.5-1-.5s-.6,0-.8.2-.4.3-.6.6v2.5Z"/>
    <path class="st4" d="M126.2,78.8c.2-.4.4-.6.6-.8.2-.2.5-.3.9-.3s.2,0,.3,0c.1,0,.2,0,.3.1v.7c0,0-.1.1-.2.1s-.1,0-.2,0c0,0-.2,0-.3,0s-.3,0-.4,0c-.1,0-.2.1-.3.2s-.2.2-.3.4c0,.1-.2.3-.2.5v3.3h-.9v-5.2h.5c0,0,.2,0,.2,0s0,.1,0,.2v.8Z"/>
  </g>
  <g>
    <path class="st4" d="M133.1,82.3c-.1.1-.2.3-.4.4-.2.1-.3.2-.5.2-.2,0-.4.1-.6.1-.2,0-.4,0-.6,0-.4,0-.7,0-1-.2-.3-.1-.6-.3-.8-.5s-.4-.5-.5-.9c-.1-.3-.2-.7-.2-1.2s0-.7.2-1c.1-.3.3-.6.5-.8.2-.2.5-.4.8-.5.3-.1.6-.2,1-.2s.6,0,.9.2.5.3.7.5.3.4.5.7c.1.3.2.6.2,1s0,.2,0,.3c0,0,0,0-.2,0h-3.5c0,.3,0,.6.1.9s.2.4.3.6c.1.2.3.3.5.4s.4.1.7.1.4,0,.6,0,.3-.1.4-.2.2-.1.3-.2.1,0,.2,0,.1,0,.2,0l.3.3ZM132.3,79.8c0-.2,0-.4,0-.6s-.1-.3-.3-.5-.3-.2-.4-.3-.4-.1-.6-.1c-.4,0-.8.1-1,.4s-.4.6-.5,1.1h2.9Z"/>
    <path class="st4" d="M135.2,78.6c.2-.3.5-.5.8-.7.3-.2.6-.2,1-.2s.6,0,.8.2c.2.1.5.3.6.5s.3.5.4.8c0,.3.1.7.1,1.1s0,.7-.2,1.1c-.1.3-.3.6-.4.9s-.4.4-.7.6c-.3.1-.6.2-.9.2s-.6,0-.8-.2c-.2-.1-.4-.3-.6-.5v2.3h-.9v-7h.6c.1,0,.2,0,.2.2v.6ZM135.2,81.8c.2.2.4.4.6.5.2,0,.4.1.7.1.5,0,.9-.2,1.1-.5.3-.3.4-.8.4-1.5s0-.6,0-.9c0-.2-.1-.4-.3-.6-.1-.2-.3-.3-.4-.3s-.4-.1-.6-.1c-.3,0-.6,0-.8.2-.2.1-.4.3-.6.6v2.5Z"/>
    <path class="st4" d="M144.3,82.3c-.1.1-.2.3-.4.4-.2.1-.3.2-.5.2-.2,0-.4.1-.6.1-.2,0-.4,0-.6,0-.4,0-.7,0-1-.2-.3-.1-.6-.3-.8-.5s-.4-.5-.5-.9c-.1-.3-.2-.7-.2-1.2s0-.7.2-1c.1-.3.3-.6.5-.8.2-.2.5-.4.8-.5.3-.1.6-.2,1-.2s.6,0,.9.2.5.3.7.5.3.4.5.7c.1.3.2.6.2,1s0,.2,0,.3c0,0,0,0-.2,0h-3.5c0,.3,0,.6.1.9s.2.4.3.6c.1.2.3.3.5.4s.4.1.7.1.4,0,.6,0,.3-.1.4-.2.2-.1.3-.2.1,0,.2,0,.1,0,.2,0l.3.3ZM143.5,79.8c0-.2,0-.4,0-.6s-.1-.3-.3-.5-.3-.2-.4-.3-.4-.1-.6-.1c-.4,0-.8.1-1,.4s-.4.6-.5,1.1h2.9Z"/>
    <path class="st4" d="M148.5,78.7c0,0-.1.1-.2.1s-.1,0-.2,0c0,0-.1,0-.2-.1,0,0-.2,0-.3-.1s-.3,0-.5,0-.3,0-.4,0c-.1,0-.2,0-.3.2,0,0-.2.1-.2.2,0,0,0,.2,0,.3s0,.2.1.3c0,0,.2.2.3.2s.3.1.4.2.3.1.5.2c.2,0,.3.1.5.2.2,0,.3.2.4.3s.2.2.3.4c0,.1.1.3.1.5s0,.5-.1.7c0,.2-.2.4-.4.5-.2.1-.4.3-.6.4-.2,0-.5.1-.8.1s-.7,0-1-.2-.5-.3-.8-.5l.2-.4s0,0,0-.1c0,0,0,0,.1,0s.1,0,.2,0c0,0,.2.1.2.2,0,0,.2.1.4.2.1,0,.3,0,.5,0s.3,0,.5,0c.1,0,.2-.1.3-.2,0,0,.2-.2.2-.3,0-.1,0-.2,0-.3s0-.3-.1-.4-.2-.2-.3-.2-.3-.1-.4-.2c-.2,0-.3-.1-.5-.2s-.3-.1-.5-.2c-.2,0-.3-.2-.4-.3-.1-.1-.2-.2-.3-.4,0-.2-.1-.3-.1-.6s0-.4.1-.6c0-.2.2-.3.4-.5.2-.1.4-.2.6-.3.2,0,.5-.1.8-.1s.7,0,.9.2c.3.1.5.3.7.4l-.2.3Z"/>
    <path class="st4" d="M152.1,77.7c.4,0,.7,0,1,.2.3.1.6.3.8.5s.4.5.5.8c.1.3.2.7.2,1.1s0,.8-.2,1.1c-.1.3-.3.6-.5.8s-.5.4-.8.5c-.3.1-.6.2-1,.2s-.7,0-1-.2c-.3-.1-.6-.3-.8-.5-.2-.2-.4-.5-.5-.8-.1-.3-.2-.7-.2-1.1s0-.8.2-1.1.3-.6.5-.8c.2-.2.5-.4.8-.5.3-.1.7-.2,1-.2ZM152.1,82.4c.5,0,.9-.2,1.2-.5s.4-.8.4-1.4-.1-1.1-.4-1.5c-.3-.3-.6-.5-1.2-.5s-.5,0-.7.1c-.2,0-.4.2-.5.4-.1.2-.2.4-.3.6,0,.2,0,.5,0,.8,0,.6.1,1.1.4,1.4.3.3.6.5,1.2.5Z"/>
    <path class="st4" d="M160.6,77.7c.4,0,.7,0,1,.2.3.1.6.3.8.5s.4.5.5.8c.1.3.2.7.2,1.1s0,.8-.2,1.1c-.1.3-.3.6-.5.8s-.5.4-.8.5c-.3.1-.6.2-1,.2s-.7,0-1-.2c-.3-.1-.6-.3-.8-.5-.2-.2-.4-.5-.5-.8-.1-.3-.2-.7-.2-1.1s0-.8.2-1.1.3-.6.5-.8c.2-.2.5-.4.8-.5.3-.1.7-.2,1-.2ZM160.6,82.4c.5,0,.9-.2,1.2-.5s.4-.8.4-1.4-.1-1.1-.4-1.5c-.3-.3-.6-.5-1.2-.5s-.5,0-.7.1c-.2,0-.4.2-.5.4-.1.2-.2.4-.3.6,0,.2,0,.5,0,.8,0,.6.1,1.1.4,1.4.3.3.6.5,1.2.5Z"/>
    <path class="st4" d="M168.5,77.8v5.2h-.5c-.1,0-.2,0-.2-.2v-.6c-.3.2-.6.5-.8.6-.3.2-.6.2-1,.2s-.5,0-.8-.1-.4-.2-.5-.4c-.1-.2-.3-.4-.3-.6,0-.2-.1-.5-.1-.8v-3.3h.9v3.3c0,.4,0,.7.3.9.2.2.5.3.8.3s.5,0,.8-.2c.2-.1.5-.3.7-.5v-3.8h.9Z"/>
    <path class="st4" d="M173.5,78.6c.2-.3.5-.5.8-.7.3-.2.6-.2,1-.2s.6,0,.8.2c.2.1.5.3.6.5s.3.5.4.8c0,.3.1.7.1,1.1s0,.7-.2,1.1c-.1.3-.3.6-.4.9s-.4.4-.7.6c-.3.1-.6.2-.9.2s-.6,0-.8-.2c-.2-.1-.4-.3-.6-.5v2.3h-.9v-7h.6c.1,0,.2,0,.2.2v.6ZM173.5,81.8c.2.2.4.4.6.5.2,0,.4.1.7.1.5,0,.9-.2,1.1-.5.3-.3.4-.8.4-1.5s0-.6,0-.9c0-.2-.1-.4-.3-.6-.1-.2-.3-.3-.4-.3s-.4-.1-.6-.1c-.3,0-.6,0-.8.2-.2.1-.4.3-.6.6v2.5Z"/>
    <path class="st4" d="M179.2,78.8c.2-.4.4-.6.6-.8.2-.2.5-.3.9-.3s.2,0,.3,0c.1,0,.2,0,.3.1v.7c0,0-.1.1-.2.1s-.1,0-.2,0c0,0-.2,0-.3,0s-.3,0-.4,0c-.1,0-.2.1-.3.2s-.2.2-.3.4c0,.1-.2.3-.2.5v3.3h-.9v-5.2h.5c0,0,.2,0,.2,0s0,.1,0,.2v.8Z"/>
  </g>
  <g>
    <path class="st4" d="M186.1,82.3c-.1.1-.2.3-.4.4-.2.1-.3.2-.5.2-.2,0-.4.1-.6.1-.2,0-.4,0-.6,0-.4,0-.7,0-1-.2-.3-.1-.6-.3-.8-.5s-.4-.5-.5-.9c-.1-.3-.2-.7-.2-1.2s0-.7.2-1c.1-.3.3-.6.5-.8.2-.2.5-.4.8-.5.3-.1.6-.2,1-.2s.6,0,.9.2.5.3.7.5.3.4.5.7c.1.3.2.6.2,1s0,.2,0,.3c0,0,0,0-.2,0h-3.5c0,.3,0,.6.1.9s.2.4.3.6c.1.2.3.3.5.4s.4.1.7.1.4,0,.6,0,.3-.1.4-.2.2-.1.3-.2.1,0,.2,0,.1,0,.2,0l.3.3ZM185.4,79.8c0-.2,0-.4,0-.6s-.1-.3-.3-.5-.3-.2-.4-.3-.4-.1-.6-.1c-.4,0-.8.1-1,.4s-.4.6-.5,1.1h2.9ZM185.6,75.6l-1.2,1.3c0,0,0,0-.1.1s-.1,0-.2,0h-.5l.8-1.2c0,0,.1-.1.2-.2,0,0,.1,0,.2,0h.9Z"/>
    <path class="st4" d="M187.3,79.5h2.5v.8h-2.5v-.8Z"/>
    <path class="st4" d="M193.4,77.7c.4,0,.7,0,1,.2.3.1.6.3.8.5s.4.5.5.8c.1.3.2.7.2,1.1s0,.8-.2,1.1c-.1.3-.3.6-.5.8s-.5.4-.8.5c-.3.1-.6.2-1,.2s-.7,0-1-.2c-.3-.1-.6-.3-.8-.5-.2-.2-.4-.5-.5-.8-.1-.3-.2-.7-.2-1.1s0-.8.2-1.1.3-.6.5-.8c.2-.2.5-.4.8-.5.3-.1.7-.2,1-.2ZM193.4,82.4c.5,0,.9-.2,1.2-.5s.4-.8.4-1.4-.1-1.1-.4-1.5c-.3-.3-.6-.5-1.2-.5s-.5,0-.7.1c-.2,0-.4.2-.5.4-.1.2-.2.4-.3.6,0,.2,0,.5,0,.8,0,.6.1,1.1.4,1.4.3.3.6.5,1.2.5Z"/>
    <path class="st4" d="M197.9,78.6c.2-.3.5-.5.7-.6.3-.2.6-.2,1-.2s.6,0,.8.2.5.3.6.5c.2.2.3.5.4.8,0,.3.1.7.1,1.1s0,.8-.2,1.2c-.1.3-.3.6-.4.9s-.4.4-.7.6c-.3.1-.6.2-.9.2s-.6,0-.9-.2c-.2-.1-.4-.3-.6-.5v.5c0,.1-.2.2-.3.2h-.6v-7.6h.9v3.1ZM197.9,81.8c.2.2.4.4.6.5.2,0,.4.1.7.1.5,0,.9-.2,1.1-.5.3-.3.4-.9.4-1.5s-.1-1.1-.3-1.4c-.2-.3-.6-.5-1-.5s-.6,0-.8.2-.4.3-.6.6v2.5Z"/>
    <path class="st4" d="M207,82.3c-.1.1-.2.3-.4.4-.2.1-.3.2-.5.2-.2,0-.4.1-.6.1-.2,0-.4,0-.6,0-.4,0-.7,0-1-.2-.3-.1-.6-.3-.8-.5s-.4-.5-.5-.9c-.1-.3-.2-.7-.2-1.2s0-.7.2-1c.1-.3.3-.6.5-.8.2-.2.5-.4.8-.5.3-.1.6-.2,1-.2s.6,0,.9.2.5.3.7.5.3.4.5.7c.1.3.2.6.2,1s0,.2,0,.3c0,0,0,0-.2,0h-3.5c0,.3,0,.6.1.9s.2.4.3.6c.1.2.3.3.5.4s.4.1.7.1.4,0,.6,0,.3-.1.4-.2.2-.1.3-.2.1,0,.2,0,.1,0,.2,0l.3.3ZM206.3,79.8c0-.2,0-.4,0-.6s-.1-.3-.3-.5-.3-.2-.4-.3-.4-.1-.6-.1c-.4,0-.8.1-1,.4s-.4.6-.5,1.1h2.9Z"/>
    <path class="st4" d="M211.2,78.7c0,0-.1.1-.2.1s-.1,0-.2,0c0,0-.1,0-.2-.1,0,0-.2,0-.3-.1s-.3,0-.5,0-.3,0-.4,0c-.1,0-.2,0-.3.2,0,0-.2.1-.2.2,0,0,0,.2,0,.3s0,.2.1.3c0,0,.2.2.3.2s.3.1.4.2.3.1.5.2c.2,0,.3.1.5.2.2,0,.3.2.4.3s.2.2.3.4c0,.1.1.3.1.5s0,.5-.1.7c0,.2-.2.4-.4.5-.2.1-.4.3-.6.4-.2,0-.5.1-.8.1s-.7,0-1-.2-.5-.3-.8-.5l.2-.4s0,0,0-.1c0,0,0,0,.1,0s.1,0,.2,0c0,0,.2.1.2.2,0,0,.2.1.4.2.1,0,.3,0,.5,0s.3,0,.5,0c.1,0,.2-.1.3-.2,0,0,.2-.2.2-.3,0-.1,0-.2,0-.3s0-.3-.1-.4-.2-.2-.3-.2-.3-.1-.4-.2c-.2,0-.3-.1-.5-.2s-.3-.1-.5-.2c-.2,0-.3-.2-.4-.3-.1-.1-.2-.2-.3-.4,0-.2-.1-.3-.1-.6s0-.4.1-.6c0-.2.2-.3.4-.5.2-.1.4-.2.6-.3.2,0,.5-.1.8-.1s.7,0,.9.2c.3.1.5.3.7.4l-.2.3Z"/>
    <path class="st4" d="M214.8,77.7c.4,0,.7,0,1,.2.3.1.6.3.8.5.2.2.4.5.5.8.1.3.2.7.2,1.1s0,.8-.2,1.1c-.1.3-.3.6-.5.8-.2.2-.5.4-.8.5-.3.1-.6.2-1,.2s-.7,0-1-.2c-.3-.1-.6-.3-.8-.5-.2-.2-.4-.5-.5-.8-.1-.3-.2-.7-.2-1.1s0-.8.2-1.1.3-.6.5-.8c.2-.2.5-.4.8-.5.3-.1.7-.2,1-.2ZM214.8,82.4c.5,0,.9-.2,1.2-.5s.4-.8.4-1.4-.1-1.1-.4-1.5c-.3-.3-.6-.5-1.2-.5s-.5,0-.7.1c-.2,0-.4.2-.5.4-.1.2-.2.4-.3.6,0,.2,0,.5,0,.8,0,.6.1,1.1.4,1.4.3.3.6.5,1.2.5Z"/>
  </g>
  <g>
    <path class="st4" d="M233.1,79.3c0,.6,0,1.2-.2,1.7-.1.5-.3.9-.6,1.2-.2.3-.5.5-.9.7s-.7.2-1.1.2-.7,0-1.1-.2-.6-.4-.8-.7c-.2-.3-.4-.7-.6-1.2-.1-.5-.2-1-.2-1.7s0-1.2.2-1.7c.1-.5.3-.9.6-1.2.2-.3.5-.5.8-.7s.7-.2,1.1-.2.7,0,1.1.2.6.4.9.7.4.7.6,1.2c.1.5.2,1,.2,1.7ZM232.1,79.3c0-.6,0-1-.1-1.4,0-.4-.2-.7-.4-.9-.2-.2-.3-.4-.6-.5s-.4-.2-.7-.2-.4,0-.7.2c-.2.1-.4.3-.6.5-.2.2-.3.5-.4.9,0,.4-.1.9-.1,1.4s0,1,.1,1.4c0,.4.2.7.4.9.2.2.3.4.6.5.2.1.4.2.7.2s.4,0,.7-.2.4-.3.6-.5c.2-.2.3-.5.4-.9s.1-.9.1-1.4Z"/>
    <path class="st4" d="M330.6,75.6c.5,0,.9,0,1.2.2.3.1.6.3.9.5.2.2.4.4.5.7s.2.6.2.9,0,.7-.2.9-.3.5-.5.7-.5.4-.9.5c-.3.1-.7.2-1.2.2h-1.2v2.8h-1v-7.4h2.2ZM330.6,79.5c.3,0,.5,0,.8-.1.2,0,.4-.2.5-.3.1-.1.3-.3.3-.5,0-.2.1-.4.1-.6,0-.5-.1-.8-.4-1.1s-.7-.4-1.3-.4h-1.2v3h1.2Z"/>
  </g>
  <g>
    <path class="st4" d="M336.3,77.7c.4,0,.7,0,1,.2.3.1.6.3.8.5s.4.5.5.8c.1.3.2.7.2,1.1s0,.8-.2,1.1c-.1.3-.3.6-.5.8s-.5.4-.8.5c-.3.1-.6.2-1,.2s-.7,0-1-.2-.6-.3-.8-.5c-.2-.2-.4-.5-.5-.8-.1-.3-.2-.7-.2-1.1s0-.8.2-1.1.3-.6.5-.8c.2-.2.5-.4.8-.5.3-.1.7-.2,1-.2ZM336.3,82.4c.5,0,.9-.2,1.2-.5s.4-.8.4-1.4-.1-1.1-.4-1.5c-.3-.3-.6-.5-1.2-.5s-.5,0-.7.1c-.2,0-.4.2-.5.4s-.2.4-.3.6c0,.2,0,.5,0,.8,0,.6.1,1.1.4,1.4s.6.5,1.2.5Z"/>
    <path class="st4" d="M344.2,77.8v5.2h-.5c-.1,0-.2,0-.2-.2v-.6c-.3.2-.6.5-.8.6-.3.2-.6.2-1,.2s-.5,0-.8-.1-.4-.2-.5-.4c-.1-.2-.3-.4-.3-.6,0-.2-.1-.5-.1-.8v-3.3h.9v3.3c0,.4,0,.7.3.9.2.2.5.3.8.3s.5,0,.8-.2c.2-.1.5-.3.7-.5v-3.8h.9Z"/>
    <path class="st4" d="M349.2,78.7s0,0,0,0,0,0-.1,0-.1,0-.2,0c0,0-.1,0-.2-.1,0,0-.2,0-.3-.1s-.3,0-.5,0-.5,0-.7.1c-.2,0-.4.2-.5.4-.1.2-.2.4-.3.6,0,.2-.1.5-.1.8s0,.6.1.8c0,.2.2.5.3.6.1.2.3.3.5.4.2,0,.4.1.6.1s.4,0,.6,0c.1,0,.3-.1.4-.2,0,0,.2-.1.2-.2s.1,0,.2,0,.1,0,.2,0l.3.3c-.1.1-.2.3-.4.4-.1,0-.3.2-.5.2s-.3.1-.5.1c-.2,0-.4,0-.6,0-.3,0-.6,0-.9-.2-.3-.1-.5-.3-.7-.5s-.4-.5-.5-.8c-.1-.3-.2-.7-.2-1.1s0-.7.2-1.1c.1-.3.3-.6.5-.9.2-.2.5-.4.8-.6s.7-.2,1-.2.7,0,1,.2c.3.1.5.3.7.5l-.2.3Z"/>
    <path class="st4" d="M352.7,77.7c.4,0,.7,0,1,.2.3.1.6.3.8.5s.4.5.5.8c.1.3.2.7.2,1.1s0,.8-.2,1.1c-.1.3-.3.6-.5.8s-.5.4-.8.5c-.3.1-.6.2-1,.2s-.7,0-1-.2-.6-.3-.8-.5c-.2-.2-.4-.5-.5-.8-.1-.3-.2-.7-.2-1.1s0-.8.2-1.1.3-.6.5-.8c.2-.2.5-.4.8-.5.3-.1.7-.2,1-.2ZM352.7,82.4c.5,0,.9-.2,1.2-.5s.4-.8.4-1.4-.1-1.1-.4-1.5c-.3-.3-.6-.5-1.2-.5s-.5,0-.7.1c-.2,0-.4.2-.5.4s-.2.4-.3.6c0,.2,0,.5,0,.8,0,.6.1,1.1.4,1.4s.6.5,1.2.5Z"/>
    <path class="st4" d="M363.1,82.3c-.1.1-.2.3-.4.4-.2.1-.3.2-.5.2-.2,0-.4.1-.6.1-.2,0-.4,0-.6,0-.4,0-.7,0-1-.2-.3-.1-.6-.3-.8-.5-.2-.2-.4-.5-.5-.9-.1-.3-.2-.7-.2-1.2s0-.7.2-1c.1-.3.3-.6.5-.8s.5-.4.8-.5c.3-.1.6-.2,1-.2s.6,0,.9.2.5.3.7.5.3.4.5.7c.1.3.2.6.2,1s0,.2,0,.3c0,0,0,0-.2,0h-3.5c0,.3,0,.6.1.9,0,.2.2.4.3.6.1.2.3.3.5.4s.4.1.7.1.4,0,.6,0c.2,0,.3-.1.4-.2s.2-.1.3-.2c0,0,.1,0,.2,0s.1,0,.2,0l.3.3ZM362.4,79.8c0-.2,0-.4,0-.6,0-.2-.1-.3-.3-.5s-.3-.2-.4-.3c-.2,0-.4-.1-.6-.1-.4,0-.8.1-1,.4-.3.3-.4.6-.5,1.1h2.9Z"/>
    <path class="st4" d="M365.2,75.4v7.6h-.9v-7.6h.9Z"/>
  </g>
  <g>
    <path class="st4" d="M371,82.3c-.1.1-.2.3-.4.4-.2.1-.3.2-.5.2-.2,0-.4.1-.6.1-.2,0-.4,0-.6,0-.4,0-.7,0-1-.2-.3-.1-.6-.3-.8-.5-.2-.2-.4-.5-.5-.9-.1-.3-.2-.7-.2-1.2s0-.7.2-1c.1-.3.3-.6.5-.8s.5-.4.8-.5c.3-.1.6-.2,1-.2s.6,0,.9.2.5.3.7.5.3.4.5.7c.1.3.2.6.2,1s0,.2,0,.3c0,0,0,0-.2,0h-3.5c0,.3,0,.6.1.9,0,.2.2.4.3.6.1.2.3.3.5.4s.4.1.7.1.4,0,.6,0c.2,0,.3-.1.4-.2s.2-.1.3-.2c0,0,.1,0,.2,0s.1,0,.2,0l.3.3ZM370.3,79.8c0-.2,0-.4,0-.6,0-.2-.1-.3-.3-.5s-.3-.2-.4-.3c-.2,0-.4-.1-.6-.1-.4,0-.8.1-1,.4-.3.3-.4.6-.5,1.1h2.9Z"/>
    <path class="st4" d="M376.6,77.8l-2.1,5.2h-.8l-2.1-5.2h.7c0,0,.1,0,.2,0s0,0,0,.1l1.3,3.4c0,.1,0,.3.1.4,0,.1,0,.2,0,.4,0-.1,0-.2,0-.4,0-.1,0-.2.1-.4l1.3-3.4c0,0,0-.1.1-.1,0,0,.1,0,.2,0h.7Z"/>
  </g>
  <g>
    <path class="st4" d="M377.2,78.5c.3-.3.6-.5.9-.6.3-.1.7-.2,1.1-.2s.6,0,.8.1c.2,0,.4.2.6.4.2.2.3.4.3.6,0,.2.1.5.1.8v3.3h-.4c0,0-.2,0-.2,0,0,0,0,0-.1-.2v-.5c-.2.1-.4.2-.5.3-.1,0-.3.2-.4.2-.1,0-.3.1-.5.2s-.3,0-.5,0-.4,0-.6,0-.3-.1-.5-.3c-.1-.1-.2-.3-.3-.4,0-.2-.1-.4-.1-.6s0-.4.2-.6.3-.4.6-.5.6-.3,1-.4c.4,0,.9-.1,1.5-.2v-.4c0-.4,0-.7-.3-.9-.2-.2-.4-.3-.8-.3s-.4,0-.6,0c-.2,0-.3.1-.4.2-.1,0-.2.1-.3.2,0,0-.2,0-.2,0s-.1,0-.2,0c0,0,0,0-.1-.1l-.2-.3ZM380.1,80.7c-.4,0-.8,0-1.1.1-.3,0-.5.1-.7.2-.2,0-.3.2-.4.3s-.1.2-.1.4,0,.3,0,.4c0,0,.1.2.2.2,0,0,.2.1.3.1s.2,0,.3,0,.3,0,.4,0c.1,0,.3,0,.4-.1.1,0,.2-.1.3-.2.1,0,.2-.2.3-.3v-1.1Z"/>
    <path class="st4" d="M386.7,75.4v7.6h-.5c-.1,0-.2,0-.2-.2v-.6c-.3.3-.6.5-.8.6-.3.2-.6.2-1,.2s-.6,0-.8-.2c-.2-.1-.5-.3-.6-.5-.2-.2-.3-.5-.4-.8,0-.3-.1-.7-.1-1.1s0-.7.2-1.1c.1-.3.2-.6.4-.9s.4-.4.7-.6c.3-.1.6-.2.9-.2s.6,0,.8.2c.2.1.4.3.6.5v-2.9h.9ZM385.8,79c-.2-.2-.4-.4-.6-.5s-.4-.1-.7-.1c-.5,0-.9.2-1.1.5-.3.3-.4.8-.4,1.5s0,.6,0,.9.1.4.3.6c.1.2.3.3.4.3.2,0,.4.1.6.1.3,0,.6,0,.8-.2s.4-.3.6-.6v-2.5Z"/>
    <path class="st4" d="M390.4,77.7c.4,0,.7,0,1,.2.3.1.6.3.8.5s.4.5.5.8c.1.3.2.7.2,1.1s0,.8-.2,1.1c-.1.3-.3.6-.5.8s-.5.4-.8.5c-.3.1-.6.2-1,.2s-.7,0-1-.2-.6-.3-.8-.5c-.2-.2-.4-.5-.5-.8-.1-.3-.2-.7-.2-1.1s0-.8.2-1.1.3-.6.5-.8c.2-.2.5-.4.8-.5.3-.1.7-.2,1-.2ZM390.4,82.4c.5,0,.9-.2,1.2-.5s.4-.8.4-1.4-.1-1.1-.4-1.5c-.3-.3-.6-.5-1.2-.5s-.5,0-.7.1c-.2,0-.4.2-.5.4s-.2.4-.3.6c0,.2,0,.5,0,.8,0,.6.1,1.1.4,1.4s.6.5,1.2.5Z"/>
  </g>
  <g>
    <path class="st1" d="M8.1,107.6c0-.3.1-.6.3-.9.1-.3.3-.5.5-.7s.5-.3.7-.4.6-.1.9-.1.6,0,.9.1c.3,0,.5.2.7.4.2.2.3.4.4.6s.2.5.2.8,0,.4,0,.6-.1.3-.3.5c-.1.1-.2.3-.4.4-.2,0-.3.2-.5.2.5.1.8.3,1.1.6.2.3.4.7.4,1.1s0,.6-.2.9c-.1.3-.3.5-.5.7-.2.2-.5.3-.8.4-.3.1-.6.2-1,.2s-.7,0-1-.1-.5-.2-.7-.4c-.2-.2-.3-.4-.5-.6-.1-.2-.2-.5-.3-.8l.4-.2c.1,0,.2,0,.3,0s.2,0,.2.2c0,0,.1.2.2.3,0,.1.2.3.3.4.1.1.3.2.4.3s.4.1.7.1.5,0,.7-.1.4-.2.5-.3c.1-.1.2-.3.3-.4,0-.2,0-.3,0-.5s0-.4,0-.5c0-.2-.1-.3-.3-.4-.1-.1-.3-.2-.6-.3-.2,0-.6-.1-.9-.1v-.7c.3,0,.6,0,.8-.1.2,0,.4-.2.5-.3.1-.1.2-.2.3-.4,0-.2,0-.3,0-.5s0-.4-.1-.6c0-.2-.2-.3-.3-.4-.1-.1-.3-.2-.4-.2-.2,0-.3,0-.5,0s-.4,0-.5,0c-.2,0-.3.1-.4.2-.1,0-.2.2-.3.3,0,.1-.1.3-.2.4,0,.1-.1.2-.2.2,0,0-.2,0-.3,0h-.5Z"/>
    <path class="st1" d="M19.1,109.3c0,.6,0,1.2-.2,1.7-.1.5-.3.9-.6,1.2-.2.3-.5.5-.9.7-.3.2-.7.2-1.1.2s-.7,0-1.1-.2c-.3-.2-.6-.4-.8-.7-.2-.3-.4-.7-.6-1.2s-.2-1-.2-1.7,0-1.2.2-1.7c.1-.5.3-.9.6-1.2.2-.3.5-.5.8-.7.3-.2.7-.2,1.1-.2s.7,0,1.1.2c.3.2.6.4.9.7.2.3.4.7.6,1.2.1.5.2,1,.2,1.7ZM18.1,109.3c0-.6,0-1-.1-1.4,0-.4-.2-.7-.4-.9-.2-.2-.3-.4-.6-.5-.2-.1-.4-.2-.7-.2s-.4,0-.7.2c-.2.1-.4.3-.6.5s-.3.5-.4.9c0,.4-.1.9-.1,1.4s0,1,.1,1.4c0,.4.2.7.4.9s.3.4.6.5c.2.1.4.2.7.2s.4,0,.7-.2c.2-.1.4-.3.6-.5.2-.2.3-.5.4-.9,0-.4.1-.9.1-1.4Z"/>
    <path class="st1" d="M20,114.3s0,0,0,0,0,0,0,0,0,0,0,0c0,0,0,0,0,0,0,0,0,0,.1-.1,0,0,.1-.1.2-.2,0,0,.1-.2.2-.3,0-.1,0-.2.1-.3,0,0,0,0,0,0h0c-.2,0-.3,0-.4-.2-.1-.1-.2-.3-.2-.5s0-.3.2-.4.3-.2.4-.2.2,0,.3,0c0,0,.1,0,.2.2,0,0,0,.1.1.2,0,0,0,.2,0,.3,0,.2,0,.3,0,.5,0,.2-.1.3-.2.5,0,.2-.2.3-.3.5s-.3.3-.4.4h-.2Z"/>
    <path class="st1" d="M27.4,109.3c0,.6,0,1.2-.2,1.7-.1.5-.3.9-.6,1.2-.2.3-.5.5-.9.7-.3.2-.7.2-1.1.2s-.7,0-1.1-.2c-.3-.2-.6-.4-.8-.7-.2-.3-.4-.7-.6-1.2s-.2-1-.2-1.7,0-1.2.2-1.7c.1-.5.3-.9.6-1.2.2-.3.5-.5.8-.7.3-.2.7-.2,1.1-.2s.7,0,1.1.2c.3.2.6.4.9.7.2.3.4.7.6,1.2.1.5.2,1,.2,1.7ZM26.4,109.3c0-.6,0-1-.1-1.4,0-.4-.2-.7-.4-.9-.2-.2-.3-.4-.6-.5-.2-.1-.4-.2-.7-.2s-.4,0-.7.2c-.2.1-.4.3-.6.5s-.3.5-.4.9c0,.4-.1.9-.1,1.4s0,1,.1,1.4c0,.4.2.7.4.9s.3.4.6.5c.2.1.4.2.7.2s.4,0,.7-.2c.2-.1.4-.3.6-.5.2-.2.3-.5.4-.9,0-.4.1-.9.1-1.4Z"/>
    <path class="st1" d="M31.2,109.6h4.1v.7h-4.1v-.7Z"/>
    <path class="st1" d="M39.6,107.6c0-.3.1-.6.3-.9.1-.3.3-.5.5-.7s.5-.3.7-.4.6-.1.9-.1.6,0,.9.1c.3,0,.5.2.7.4.2.2.3.4.4.6s.2.5.2.8,0,.4,0,.6-.1.3-.3.5c-.1.1-.2.3-.4.4-.2,0-.3.2-.5.2.5.1.8.3,1.1.6.2.3.4.7.4,1.1s0,.6-.2.9c-.1.3-.3.5-.5.7-.2.2-.5.3-.8.4-.3.1-.6.2-1,.2s-.7,0-1-.1-.5-.2-.7-.4c-.2-.2-.3-.4-.5-.6-.1-.2-.2-.5-.3-.8l.4-.2c.1,0,.2,0,.3,0s.2,0,.2.2c0,0,.1.2.2.3,0,.1.2.3.3.4.1.1.3.2.4.3s.4.1.7.1.5,0,.7-.1.4-.2.5-.3c.1-.1.2-.3.3-.4,0-.2,0-.3,0-.5s0-.4,0-.5c0-.2-.1-.3-.3-.4-.1-.1-.3-.2-.6-.3-.2,0-.6-.1-.9-.1v-.7c.3,0,.6,0,.8-.1.2,0,.4-.2.5-.3.1-.1.2-.2.3-.4,0-.2,0-.3,0-.5s0-.4-.1-.6c0-.2-.2-.3-.3-.4-.1-.1-.3-.2-.4-.2-.2,0-.3,0-.5,0s-.4,0-.5,0c-.2,0-.3.1-.4.2-.1,0-.2.2-.3.3,0,.1-.1.3-.2.4,0,.1-.1.2-.2.2,0,0-.2,0-.3,0h-.5Z"/>
    <path class="st1" d="M50.6,110.4v.5c0,0,0,.1,0,.1s0,0-.2,0h-.9v1.9h-.8v-1.9h-3.3c0,0-.1,0-.2,0,0,0,0,0,0-.1v-.5c0,0,3.5-4.8,3.5-4.8h.9v4.7h1.1ZM48.6,110.4v-3c0,0,0-.2,0-.3,0-.1,0-.2,0-.3l-2.7,3.7h2.6Z"/>
    <path class="st1" d="M51.5,114.3s0,0,0,0,0,0,0,0,0,0,0,0c0,0,0,0,0,0,0,0,0,0,.1-.1,0,0,.1-.1.2-.2,0,0,.1-.2.2-.3,0-.1,0-.2.1-.3,0,0,0,0,0,0h0c-.2,0-.3,0-.4-.2-.1-.1-.2-.3-.2-.5s0-.3.2-.4.3-.2.4-.2.2,0,.3,0c0,0,.1,0,.2.2,0,0,0,.1.1.2,0,0,0,.2,0,.3,0,.2,0,.3,0,.5,0,.2-.1.3-.2.5,0,.2-.2.3-.3.5s-.3.3-.4.4h-.2Z"/>
    <path class="st1" d="M56.8,110.1c0,0,.1-.2.2-.3,0,0,.1-.2.2-.3-.2.2-.4.3-.6.3s-.5.1-.8.1-.5,0-.8-.1c-.2,0-.5-.2-.7-.4-.2-.2-.3-.4-.5-.7-.1-.3-.2-.6-.2-.9s0-.6.2-.9.3-.5.5-.7c.2-.2.5-.4.8-.5s.6-.2,1-.2.7,0,1,.2c.3.1.5.3.7.5.2.2.4.5.5.8.1.3.2.6.2,1s0,.4,0,.6c0,.2,0,.4-.2.6s-.2.4-.3.5c-.1.2-.2.4-.4.6l-1.8,2.6c0,0-.1.1-.2.2,0,0-.2,0-.3,0h-.8l2.2-2.9ZM54.6,107.8c0,.2,0,.4.1.6s.2.3.3.5c.1.1.3.2.5.3.2,0,.4,0,.6,0s.5,0,.7-.1c.2,0,.4-.2.5-.3.1-.1.2-.3.3-.5,0-.2.1-.4.1-.5s0-.4-.1-.6c0-.2-.2-.3-.3-.5-.1-.1-.3-.2-.5-.3s-.4-.1-.6-.1-.4,0-.6.1c-.2,0-.3.2-.5.3s-.2.3-.3.5c0,.2-.1.4-.1.6Z"/>
  </g>
  <g>
    <path class="st4" d="M115.2,109.3c0,.6,0,1.1-.3,1.5s-.4.9-.7,1.2c-.3.3-.7.6-1.1.8-.4.2-.9.3-1.5.3s-1,0-1.5-.3c-.4-.2-.8-.4-1.1-.8-.3-.3-.6-.7-.7-1.2s-.3-1-.3-1.5,0-1.1.3-1.5c.2-.5.4-.9.7-1.2.3-.3.7-.6,1.1-.8.4-.2.9-.3,1.5-.3s1,0,1.5.3c.4.2.8.4,1.1.8.3.3.6.7.7,1.2.2.5.3,1,.3,1.5ZM114.2,109.3c0-.5,0-.9-.2-1.2-.1-.4-.3-.7-.5-.9-.2-.2-.5-.4-.8-.6-.3-.1-.7-.2-1.1-.2s-.8,0-1.1.2c-.3.1-.6.3-.8.6-.2.2-.4.6-.5.9-.1.4-.2.8-.2,1.2s0,.9.2,1.2.3.7.5.9c.2.2.5.4.8.6.3.1.7.2,1.1.2s.8,0,1.1-.2c.3-.1.6-.3.8-.6.2-.2.4-.6.5-.9s.2-.8.2-1.2Z"/>
    <path class="st4" d="M117.3,108.6c.2-.3.5-.5.7-.6.3-.2.6-.2,1-.2s.6,0,.8.2c.2.1.5.3.6.5.2.2.3.5.4.8,0,.3.1.7.1,1.1s0,.8-.2,1.2c-.1.3-.3.6-.4.9s-.4.4-.7.6-.6.2-.9.2-.6,0-.9-.2c-.2-.1-.4-.3-.6-.5v.5c0,.1-.2.2-.3.2h-.6v-7.6h.9v3.1ZM117.3,111.8c.2.2.4.4.6.5.2,0,.4.1.7.1.5,0,.9-.2,1.1-.5s.4-.9.4-1.5-.1-1.1-.3-1.4-.6-.5-1-.5-.6,0-.8.2c-.2.1-.4.3-.6.6v2.5Z"/>
    <path class="st4" d="M126.4,112.3c-.1.1-.2.3-.4.4-.2.1-.3.2-.5.2s-.4.1-.6.1c-.2,0-.4,0-.6,0-.4,0-.7,0-1-.2s-.6-.3-.8-.5c-.2-.2-.4-.5-.5-.9s-.2-.7-.2-1.2,0-.7.2-1c.1-.3.3-.6.5-.8.2-.2.5-.4.8-.5s.6-.2,1-.2.6,0,.9.2.5.3.7.5.3.4.5.7c.1.3.2.6.2,1s0,.2,0,.3c0,0,0,0-.2,0h-3.5c0,.3,0,.6.1.9,0,.2.2.4.3.6.1.2.3.3.5.4.2,0,.4.1.7.1s.4,0,.6,0c.2,0,.3-.1.4-.2s.2-.1.3-.2c0,0,.1,0,.2,0s.1,0,.2,0l.3.3ZM125.7,109.8c0-.2,0-.4,0-.6s-.1-.3-.3-.5c-.1-.1-.3-.2-.4-.3s-.4-.1-.6-.1c-.4,0-.8.1-1,.4-.3.3-.4.6-.5,1.1h2.9Z"/>
    <path class="st4" d="M130.6,108.7c0,0-.1.1-.2.1s-.1,0-.2,0c0,0-.1,0-.2-.1,0,0-.2,0-.3-.1-.1,0-.3,0-.5,0s-.3,0-.4,0c-.1,0-.2,0-.3.2,0,0-.2.1-.2.2,0,0,0,.2,0,.3s0,.2.1.3c0,0,.2.2.3.2.1,0,.3.1.4.2s.3.1.5.2c.2,0,.3.1.5.2s.3.2.4.3c.1.1.2.2.3.4,0,.1.1.3.1.5s0,.5-.1.7c0,.2-.2.4-.4.5s-.4.3-.6.4c-.2,0-.5.1-.8.1s-.7,0-1-.2-.5-.3-.8-.5l.2-.4s0,0,0-.1c0,0,0,0,.1,0s.1,0,.2,0c0,0,.2.1.2.2s.2.1.4.2c.1,0,.3,0,.5,0s.3,0,.5,0,.2-.1.3-.2.2-.2.2-.3c0-.1,0-.2,0-.3s0-.3-.1-.4c0,0-.2-.2-.3-.2-.1,0-.3-.1-.4-.2-.2,0-.3-.1-.5-.2s-.3-.1-.5-.2c-.2,0-.3-.2-.4-.3-.1-.1-.2-.2-.3-.4s-.1-.3-.1-.6,0-.4.1-.6c0-.2.2-.3.4-.5s.4-.2.6-.3c.2,0,.5-.1.8-.1s.7,0,.9.2c.3.1.5.3.7.4l-.2.3Z"/>
    <path class="st4" d="M133.2,106.2c0,0,0,.2,0,.2,0,0,0,.1-.1.2,0,0-.1.1-.2.1s-.2,0-.3,0-.2,0-.2,0-.1,0-.2-.1c0,0-.1-.1-.1-.2s0-.2,0-.2,0-.2,0-.3c0,0,0-.2.1-.2,0,0,.1-.1.2-.1s.2,0,.2,0,.2,0,.3,0,.2,0,.2.1c0,0,.1.1.1.2,0,0,0,.2,0,.3ZM133,107.8v5.2h-.9v-5.2h.9Z"/>
    <path class="st4" d="M138.8,105.4v7.6h-.5c-.1,0-.2,0-.2-.2v-.6c-.3.3-.6.5-.8.6-.3.2-.6.2-1,.2s-.6,0-.8-.2c-.2-.1-.5-.3-.6-.5-.2-.2-.3-.5-.4-.8,0-.3-.1-.7-.1-1.1s0-.7.2-1.1c.1-.3.3-.6.4-.9.2-.2.4-.4.7-.6.3-.1.6-.2.9-.2s.6,0,.8.2c.2.1.4.3.6.5v-2.9h.9ZM137.9,109c-.2-.2-.4-.4-.6-.5s-.4-.1-.7-.1c-.5,0-.9.2-1.1.5s-.4.8-.4,1.5,0,.6,0,.9c0,.2.1.4.3.6.1.2.3.3.4.3.2,0,.4.1.6.1.3,0,.6,0,.8-.2.2-.1.4-.3.6-.6v-2.5Z"/>
    <path class="st4" d="M140.2,108.5c.3-.3.6-.5.9-.6.3-.1.7-.2,1.1-.2s.6,0,.8.1c.2,0,.4.2.6.4s.3.4.4.6c0,.2.1.5.1.8v3.3h-.4c0,0-.2,0-.2,0,0,0,0,0-.1-.2v-.5c-.2.1-.4.2-.5.3-.1,0-.3.2-.4.2-.1,0-.3.1-.5.2-.2,0-.3,0-.5,0s-.4,0-.6,0c-.2,0-.3-.1-.5-.3-.1-.1-.2-.3-.3-.4s-.1-.4-.1-.6,0-.4.2-.6c.1-.2.3-.4.6-.5s.6-.3,1-.4c.4,0,.9-.1,1.5-.2v-.4c0-.4,0-.7-.3-.9-.2-.2-.4-.3-.8-.3s-.4,0-.6,0c-.2,0-.3.1-.4.2-.1,0-.2.1-.3.2s-.2,0-.2,0-.1,0-.2,0c0,0,0,0-.1-.1l-.2-.3ZM143.1,110.7c-.4,0-.8,0-1.1.1-.3,0-.5.1-.7.2s-.3.2-.4.3c0,.1-.1.2-.1.4s0,.3,0,.4c0,0,.1.2.2.2s.2.1.3.1.2,0,.3,0,.3,0,.4,0,.3,0,.4-.1.2-.1.3-.2c.1,0,.2-.2.3-.3v-1.1Z"/>
    <path class="st4" d="M149.7,105.4v7.6h-.5c-.1,0-.2,0-.2-.2v-.6c-.3.3-.6.5-.8.6-.3.2-.6.2-1,.2s-.6,0-.8-.2c-.2-.1-.5-.3-.6-.5-.2-.2-.3-.5-.4-.8,0-.3-.1-.7-.1-1.1s0-.7.2-1.1c.1-.3.3-.6.4-.9.2-.2.4-.4.7-.6.3-.1.6-.2.9-.2s.6,0,.8.2c.2.1.4.3.6.5v-2.9h.9ZM148.8,109c-.2-.2-.4-.4-.6-.5s-.4-.1-.7-.1c-.5,0-.9.2-1.1.5s-.4.8-.4,1.5,0,.6,0,.9c0,.2.1.4.3.6.1.2.3.3.4.3.2,0,.4.1.6.1.3,0,.6,0,.8-.2.2-.1.4-.3.6-.6v-2.5Z"/>
    <path class="st4" d="M155.4,112.3c-.1.1-.2.3-.4.4-.2.1-.3.2-.5.2s-.4.1-.6.1c-.2,0-.4,0-.6,0-.4,0-.7,0-1-.2s-.6-.3-.8-.5c-.2-.2-.4-.5-.5-.9s-.2-.7-.2-1.2,0-.7.2-1c.1-.3.3-.6.5-.8.2-.2.5-.4.8-.5s.6-.2,1-.2.6,0,.9.2.5.3.7.5.3.4.5.7c.1.3.2.6.2,1s0,.2,0,.3c0,0,0,0-.2,0h-3.5c0,.3,0,.6.1.9,0,.2.2.4.3.6.1.2.3.3.5.4.2,0,.4.1.7.1s.4,0,.6,0c.2,0,.3-.1.4-.2s.2-.1.3-.2c0,0,.1,0,.2,0s.1,0,.2,0l.3.3ZM154.7,109.8c0-.2,0-.4,0-.6s-.1-.3-.3-.5c-.1-.1-.3-.2-.4-.3s-.4-.1-.6-.1c-.4,0-.8.1-1,.4-.3.3-.4.6-.5,1.1h2.9Z"/>
  </g>
  <g>
    <path class="st4" d="M229.4,113h-1v-7.4h1v7.4Z"/>
    <path class="st4" d="M332.9,112.2v.8h-4.5v-7.4h4.5v.8h-3.5v2.4h2.9v.8h-2.9v2.5h3.5Z"/>
  </g>
  <path class="st4" d="M335,105.4v7.6h-.9v-7.6h.9Z"/>
  <g>
    <path class="st4" d="M340.7,112.3c-.1.1-.2.3-.4.4-.2.1-.3.2-.5.2-.2,0-.4.1-.6.1-.2,0-.4,0-.6,0-.4,0-.7,0-1-.2-.3-.1-.6-.3-.8-.5-.2-.2-.4-.5-.5-.9s-.2-.7-.2-1.2,0-.7.2-1c.1-.3.3-.6.5-.8s.5-.4.8-.5.6-.2,1-.2.6,0,.9.2.5.3.7.5.3.4.5.7c.1.3.2.6.2,1s0,.2,0,.3c0,0,0,0-.2,0h-3.5c0,.3,0,.6.1.9,0,.2.2.4.3.6.1.2.3.3.5.4.2,0,.4.1.7.1s.4,0,.6,0c.2,0,.3-.1.4-.2s.2-.1.3-.2c0,0,.1,0,.2,0s.1,0,.2,0l.3.3ZM340,109.8c0-.2,0-.4,0-.6,0-.2-.1-.3-.3-.5-.1-.1-.3-.2-.4-.3-.2,0-.4-.1-.6-.1-.4,0-.8.1-1,.4s-.4.6-.5,1.1h2.9Z"/>
    <path class="st4" d="M346.3,107.8l-2.1,5.2h-.8l-2.1-5.2h.7c0,0,.1,0,.2,0,0,0,0,0,0,.1l1.3,3.4c0,.1,0,.3.1.4,0,.1,0,.2,0,.4,0-.1,0-.2,0-.4,0-.1,0-.2.1-.4l1.3-3.4c0,0,0-.1.1-.1,0,0,.1,0,.2,0h.7Z"/>
  </g>
  <g>
    <path class="st4" d="M346.9,108.5c.3-.3.6-.5.9-.6.3-.1.7-.2,1.1-.2s.6,0,.8.1.4.2.6.4c.2.2.3.4.3.6,0,.2.1.5.1.8v3.3h-.4c0,0-.2,0-.2,0,0,0,0,0-.1-.2v-.5c-.2.1-.4.2-.5.3-.1,0-.3.2-.4.2-.1,0-.3.1-.5.2s-.3,0-.5,0-.4,0-.6,0-.3-.1-.5-.3c-.1-.1-.2-.3-.3-.4s-.1-.4-.1-.6,0-.4.2-.6.3-.4.6-.5.6-.3,1-.4c.4,0,.9-.1,1.5-.2v-.4c0-.4,0-.7-.3-.9-.2-.2-.4-.3-.8-.3s-.4,0-.6,0c-.2,0-.3.1-.4.2s-.2.1-.3.2c0,0-.2,0-.2,0s-.1,0-.2,0c0,0,0,0-.1-.1l-.2-.3ZM349.8,110.7c-.4,0-.8,0-1.1.1-.3,0-.5.1-.7.2-.2,0-.3.2-.4.3,0,.1-.1.2-.1.4s0,.3,0,.4c0,0,.1.2.2.2s.2.1.3.1.2,0,.3,0,.3,0,.4,0,.3,0,.4-.1c.1,0,.2-.1.3-.2.1,0,.2-.2.3-.3v-1.1Z"/>
    <path class="st4" d="M356.4,105.4v7.6h-.5c-.1,0-.2,0-.2-.2v-.6c-.3.3-.6.5-.8.6-.3.2-.6.2-1,.2s-.6,0-.8-.2c-.2-.1-.5-.3-.6-.5-.2-.2-.3-.5-.4-.8,0-.3-.1-.7-.1-1.1s0-.7.2-1.1c.1-.3.2-.6.4-.9.2-.2.4-.4.7-.6.3-.1.6-.2.9-.2s.6,0,.8.2c.2.1.4.3.6.5v-2.9h.9ZM355.5,109c-.2-.2-.4-.4-.6-.5s-.4-.1-.7-.1c-.5,0-.9.2-1.1.5s-.4.8-.4,1.5,0,.6,0,.9c0,.2.1.4.3.6.1.2.3.3.4.3.2,0,.4.1.6.1.3,0,.6,0,.8-.2.2-.1.4-.3.6-.6v-2.5Z"/>
    <path class="st4" d="M360.1,107.7c.4,0,.7,0,1,.2.3.1.6.3.8.5s.4.5.5.8c.1.3.2.7.2,1.1s0,.8-.2,1.1c-.1.3-.3.6-.5.8s-.5.4-.8.5c-.3.1-.6.2-1,.2s-.7,0-1-.2-.6-.3-.8-.5c-.2-.2-.4-.5-.5-.8s-.2-.7-.2-1.1,0-.8.2-1.1.3-.6.5-.8c.2-.2.5-.4.8-.5s.7-.2,1-.2ZM360.1,112.4c.5,0,.9-.2,1.2-.5s.4-.8.4-1.4-.1-1.1-.4-1.5c-.3-.3-.6-.5-1.2-.5s-.5,0-.7.1c-.2,0-.4.2-.5.4s-.2.4-.3.6c0,.2,0,.5,0,.8,0,.6.1,1.1.4,1.4s.6.5,1.2.5Z"/>
  </g>
  <g>
    <path class="st1" d="M8.1,137.6c0-.3.1-.6.3-.9.1-.3.3-.5.5-.7s.5-.3.7-.4.6-.1.9-.1.6,0,.9.1c.3,0,.5.2.7.4.2.2.3.4.4.6s.2.5.2.8,0,.4,0,.6-.1.3-.3.5c-.1.1-.2.3-.4.4-.2,0-.3.2-.5.2.5.1.8.3,1.1.6.2.3.4.7.4,1.1s0,.6-.2.9c-.1.3-.3.5-.5.7-.2.2-.5.3-.8.4-.3.1-.6.2-1,.2s-.7,0-1-.1-.5-.2-.7-.4c-.2-.2-.3-.4-.5-.6-.1-.2-.2-.5-.3-.8l.4-.2c.1,0,.2,0,.3,0s.2,0,.2.2c0,0,.1.2.2.3,0,.1.2.3.3.4.1.1.3.2.4.3s.4.1.7.1.5,0,.7-.1.4-.2.5-.3c.1-.1.2-.3.3-.4,0-.2,0-.3,0-.5s0-.4,0-.5c0-.2-.1-.3-.3-.4-.1-.1-.3-.2-.6-.3-.2,0-.6-.1-.9-.1v-.7c.3,0,.6,0,.8-.1.2,0,.4-.2.5-.3.1-.1.2-.2.3-.4,0-.2,0-.3,0-.5s0-.4-.1-.6c0-.2-.2-.3-.3-.4-.1-.1-.3-.2-.4-.2-.2,0-.3,0-.5,0s-.4,0-.5,0c-.2,0-.3.1-.4.2-.1,0-.2.2-.3.3,0,.1-.1.3-.2.4,0,.1-.1.2-.2.2,0,0-.2,0-.3,0h-.5Z"/>
    <path class="st1" d="M15.3,138.4c.4,0,.7-.1,1.1-.1s.7,0,1,.2.5.3.7.5c.2.2.3.4.4.7.1.3.2.6.2.9s0,.7-.2,1.1c-.1.3-.3.6-.6.8s-.5.4-.8.5c-.3.1-.7.2-1,.2s-.4,0-.6,0c-.2,0-.4-.1-.6-.2s-.3-.2-.5-.2-.3-.2-.4-.3l.3-.4c0,0,.1-.1.2-.1s.1,0,.2,0c0,0,.2.1.3.2s.3.1.4.2c.2,0,.4,0,.6,0s.5,0,.7-.1c.2,0,.4-.2.5-.4s.3-.3.3-.5c0-.2.1-.5.1-.7s0-.4-.1-.6c0-.2-.2-.3-.3-.5-.1-.1-.3-.2-.5-.3-.2,0-.4-.1-.7-.1s-.4,0-.6,0c-.2,0-.4,0-.6.1l-.6-.2.6-3.4h3.5v.4c0,.1,0,.2-.1.3s-.2.1-.4.1h-2.3l-.3,1.9Z"/>
    <path class="st1" d="M20,144.3s0,0,0,0,0,0,0,0,0,0,0,0c0,0,0,0,0,0,0,0,0,0,.1-.1,0,0,.1-.1.2-.2,0,0,.1-.2.2-.3,0-.1,0-.2.1-.3,0,0,0,0,0,0h0c-.2,0-.3,0-.4-.2-.1-.1-.2-.3-.2-.5s0-.3.2-.4.3-.2.4-.2.2,0,.3,0c0,0,.1,0,.2.2,0,0,0,.1.1.2,0,0,0,.2,0,.3,0,.2,0,.3,0,.5,0,.2-.1.3-.2.5,0,.2-.2.3-.3.5s-.3.3-.4.4h-.2Z"/>
    <path class="st1" d="M27.4,139.3c0,.6,0,1.2-.2,1.7-.1.5-.3.9-.6,1.2-.2.3-.5.5-.9.7-.3.2-.7.2-1.1.2s-.7,0-1.1-.2c-.3-.2-.6-.4-.8-.7-.2-.3-.4-.7-.6-1.2s-.2-1-.2-1.7,0-1.2.2-1.7c.1-.5.3-.9.6-1.2.2-.3.5-.5.8-.7.3-.2.7-.2,1.1-.2s.7,0,1.1.2c.3.2.6.4.9.7.2.3.4.7.6,1.2.1.5.2,1,.2,1.7ZM26.4,139.3c0-.6,0-1-.1-1.4,0-.4-.2-.7-.4-.9-.2-.2-.3-.4-.6-.5-.2-.1-.4-.2-.7-.2s-.4,0-.7.2c-.2.1-.4.3-.6.5s-.3.5-.4.9c0,.4-.1.9-.1,1.4s0,1,.1,1.4c0,.4.2.7.4.9s.3.4.6.5c.2.1.4.2.7.2s.4,0,.7-.2c.2-.1.4-.3.6-.5.2-.2.3-.5.4-.9,0-.4.1-.9.1-1.4Z"/>
    <path class="st1" d="M31.2,139.6h4.1v.7h-4.1v-.7Z"/>
    <path class="st1" d="M39.6,137.6c0-.3.1-.6.3-.9.1-.3.3-.5.5-.7s.5-.3.7-.4.6-.1.9-.1.6,0,.9.1c.3,0,.5.2.7.4.2.2.3.4.4.6s.2.5.2.8,0,.4,0,.6-.1.3-.3.5c-.1.1-.2.3-.4.4-.2,0-.3.2-.5.2.5.1.8.3,1.1.6.2.3.4.7.4,1.1s0,.6-.2.9c-.1.3-.3.5-.5.7-.2.2-.5.3-.8.4-.3.1-.6.2-1,.2s-.7,0-1-.1-.5-.2-.7-.4c-.2-.2-.3-.4-.5-.6-.1-.2-.2-.5-.3-.8l.4-.2c.1,0,.2,0,.3,0s.2,0,.2.2c0,0,.1.2.2.3,0,.1.2.3.3.4.1.1.3.2.4.3s.4.1.7.1.5,0,.7-.1.4-.2.5-.3c.1-.1.2-.3.3-.4,0-.2,0-.3,0-.5s0-.4,0-.5c0-.2-.1-.3-.3-.4-.1-.1-.3-.2-.6-.3-.2,0-.6-.1-.9-.1v-.7c.3,0,.6,0,.8-.1.2,0,.4-.2.5-.3.1-.1.2-.2.3-.4,0-.2,0-.3,0-.5s0-.4-.1-.6c0-.2-.2-.3-.3-.4-.1-.1-.3-.2-.4-.2-.2,0-.3,0-.5,0s-.4,0-.5,0c-.2,0-.3.1-.4.2-.1,0-.2.2-.3.3,0,.1-.1.3-.2.4,0,.1-.1.2-.2.2,0,0-.2,0-.3,0h-.5Z"/>
    <path class="st1" d="M48.5,140.1c0,0,.1-.2.2-.3,0,0,.1-.2.2-.3-.2.2-.4.3-.6.3s-.5.1-.8.1-.5,0-.8-.1c-.2,0-.5-.2-.7-.4-.2-.2-.3-.4-.5-.7-.1-.3-.2-.6-.2-.9s0-.6.2-.9.3-.5.5-.7c.2-.2.5-.4.8-.5s.6-.2,1-.2.7,0,1,.2c.3.1.5.3.7.5.2.2.4.5.5.8.1.3.2.6.2,1s0,.4,0,.6c0,.2,0,.4-.2.6s-.2.4-.3.5c-.1.2-.2.4-.4.6l-1.8,2.6c0,0-.1.1-.2.2,0,0-.2,0-.3,0h-.8l2.2-2.9ZM46.3,137.8c0,.2,0,.4.1.6s.2.3.3.5c.1.1.3.2.5.3.2,0,.4,0,.6,0s.5,0,.7-.1c.2,0,.4-.2.5-.3.1-.1.2-.3.3-.5,0-.2.1-.4.1-.5s0-.4-.1-.6c0-.2-.2-.3-.3-.5-.1-.1-.3-.2-.5-.3s-.4-.1-.6-.1-.4,0-.6.1c-.2,0-.3.2-.5.3s-.2.3-.3.5c0,.2-.1.4-.1.6Z"/>
    <path class="st1" d="M51.5,144.3s0,0,0,0,0,0,0,0,0,0,0,0c0,0,0,0,0,0,0,0,0,0,.1-.1,0,0,.1-.1.2-.2,0,0,.1-.2.2-.3,0-.1,0-.2.1-.3,0,0,0,0,0,0h0c-.2,0-.3,0-.4-.2-.1-.1-.2-.3-.2-.5s0-.3.2-.4.3-.2.4-.2.2,0,.3,0c0,0,.1,0,.2.2,0,0,0,.1.1.2,0,0,0,.2,0,.3,0,.2,0,.3,0,.5,0,.2-.1.3-.2.5,0,.2-.2.3-.3.5s-.3.3-.4.4h-.2Z"/>
    <path class="st1" d="M56.8,140.1c0,0,.1-.2.2-.3,0,0,.1-.2.2-.3-.2.2-.4.3-.6.3s-.5.1-.8.1-.5,0-.8-.1c-.2,0-.5-.2-.7-.4-.2-.2-.3-.4-.5-.7-.1-.3-.2-.6-.2-.9s0-.6.2-.9.3-.5.5-.7c.2-.2.5-.4.8-.5s.6-.2,1-.2.7,0,1,.2c.3.1.5.3.7.5.2.2.4.5.5.8.1.3.2.6.2,1s0,.4,0,.6c0,.2,0,.4-.2.6s-.2.4-.3.5c-.1.2-.2.4-.4.6l-1.8,2.6c0,0-.1.1-.2.2,0,0-.2,0-.3,0h-.8l2.2-2.9ZM54.6,137.8c0,.2,0,.4.1.6s.2.3.3.5c.1.1.3.2.5.3.2,0,.4,0,.6,0s.5,0,.7-.1c.2,0,.4-.2.5-.3.1-.1.2-.3.3-.5,0-.2.1-.4.1-.5s0-.4-.1-.6c0-.2-.2-.3-.3-.5-.1-.1-.3-.2-.5-.3s-.4-.1-.6-.1-.4,0-.6.1c-.2,0-.3.2-.5.3s-.2.3-.3.5c0,.2-.1.4-.1.6Z"/>
  </g>
  <g>
    <path class="st4" d="M115.2,139.3c0,.6,0,1.1-.3,1.5s-.4.9-.7,1.2c-.3.3-.7.6-1.1.8-.4.2-.9.3-1.5.3s-1,0-1.5-.3c-.4-.2-.8-.4-1.1-.8-.3-.3-.6-.7-.7-1.2s-.3-1-.3-1.5,0-1.1.3-1.5c.2-.5.4-.9.7-1.2.3-.3.7-.6,1.1-.8.4-.2.9-.3,1.5-.3s1,0,1.5.3c.4.2.8.4,1.1.8.3.3.6.7.7,1.2.2.5.3,1,.3,1.5ZM114.2,139.3c0-.5,0-.9-.2-1.2-.1-.4-.3-.7-.5-.9-.2-.2-.5-.4-.8-.6-.3-.1-.7-.2-1.1-.2s-.8,0-1.1.2c-.3.1-.6.3-.8.6-.2.2-.4.6-.5.9-.1.4-.2.8-.2,1.2s0,.9.2,1.2.3.7.5.9c.2.2.5.4.8.6.3.1.7.2,1.1.2s.8,0,1.1-.2c.3-.1.6-.3.8-.6.2-.2.4-.6.5-.9s.2-.8.2-1.2Z"/>
    <path class="st4" d="M117.3,138.6c.2-.3.5-.5.7-.6.3-.2.6-.2,1-.2s.6,0,.8.2c.2.1.5.3.6.5.2.2.3.5.4.8,0,.3.1.7.1,1.1s0,.8-.2,1.2c-.1.3-.3.6-.4.9s-.4.4-.7.6-.6.2-.9.2-.6,0-.9-.2c-.2-.1-.4-.3-.6-.5v.5c0,.1-.2.2-.3.2h-.6v-7.6h.9v3.1ZM117.3,141.8c.2.2.4.4.6.5.2,0,.4.1.7.1.5,0,.9-.2,1.1-.5s.4-.9.4-1.5-.1-1.1-.3-1.4-.6-.5-1-.5-.6,0-.8.2c-.2.1-.4.3-.6.6v2.5Z"/>
    <path class="st4" d="M126.4,142.3c-.1.1-.2.3-.4.4-.2.1-.3.2-.5.2s-.4.1-.6.1c-.2,0-.4,0-.6,0-.4,0-.7,0-1-.2s-.6-.3-.8-.5c-.2-.2-.4-.5-.5-.9s-.2-.7-.2-1.2,0-.7.2-1c.1-.3.3-.6.5-.8.2-.2.5-.4.8-.5s.6-.2,1-.2.6,0,.9.2.5.3.7.5.3.4.5.7c.1.3.2.6.2,1s0,.2,0,.3c0,0,0,0-.2,0h-3.5c0,.3,0,.6.1.9,0,.2.2.4.3.6.1.2.3.3.5.4.2,0,.4.1.7.1s.4,0,.6,0c.2,0,.3-.1.4-.2s.2-.1.3-.2c0,0,.1,0,.2,0s.1,0,.2,0l.3.3ZM125.7,139.8c0-.2,0-.4,0-.6s-.1-.3-.3-.5c-.1-.1-.3-.2-.4-.3s-.4-.1-.6-.1c-.4,0-.8.1-1,.4-.3.3-.4.6-.5,1.1h2.9Z"/>
    <path class="st4" d="M130.6,138.7c0,0-.1.1-.2.1s-.1,0-.2,0c0,0-.1,0-.2-.1,0,0-.2,0-.3-.1-.1,0-.3,0-.5,0s-.3,0-.4,0c-.1,0-.2,0-.3.2,0,0-.2.1-.2.2,0,0,0,.2,0,.3s0,.2.1.3c0,0,.2.2.3.2.1,0,.3.1.4.2s.3.1.5.2c.2,0,.3.1.5.2s.3.2.4.3c.1.1.2.2.3.4,0,.1.1.3.1.5s0,.5-.1.7c0,.2-.2.4-.4.5s-.4.3-.6.4c-.2,0-.5.1-.8.1s-.7,0-1-.2-.5-.3-.8-.5l.2-.4s0,0,0-.1c0,0,0,0,.1,0s.1,0,.2,0c0,0,.2.1.2.2s.2.1.4.2c.1,0,.3,0,.5,0s.3,0,.5,0,.2-.1.3-.2.2-.2.2-.3c0-.1,0-.2,0-.3s0-.3-.1-.4c0,0-.2-.2-.3-.2-.1,0-.3-.1-.4-.2-.2,0-.3-.1-.5-.2s-.3-.1-.5-.2c-.2,0-.3-.2-.4-.3-.1-.1-.2-.2-.3-.4s-.1-.3-.1-.6,0-.4.1-.6c0-.2.2-.3.4-.5s.4-.2.6-.3c.2,0,.5-.1.8-.1s.7,0,.9.2c.3.1.5.3.7.4l-.2.3Z"/>
    <path class="st4" d="M133.2,136.2c0,0,0,.2,0,.2,0,0,0,.1-.1.2,0,0-.1.1-.2.1s-.2,0-.3,0-.2,0-.2,0-.1,0-.2-.1c0,0-.1-.1-.1-.2s0-.2,0-.2,0-.2,0-.3c0,0,0-.2.1-.2,0,0,.1-.1.2-.1s.2,0,.2,0,.2,0,.3,0,.2,0,.2.1c0,0,.1.1.1.2,0,0,0,.2,0,.3ZM133,137.8v5.2h-.9v-5.2h.9Z"/>
    <path class="st4" d="M138.8,135.4v7.6h-.5c-.1,0-.2,0-.2-.2v-.6c-.3.3-.6.5-.8.6-.3.2-.6.2-1,.2s-.6,0-.8-.2c-.2-.1-.5-.3-.6-.5-.2-.2-.3-.5-.4-.8,0-.3-.1-.7-.1-1.1s0-.7.2-1.1c.1-.3.3-.6.4-.9.2-.2.4-.4.7-.6.3-.1.6-.2.9-.2s.6,0,.8.2c.2.1.4.3.6.5v-2.9h.9ZM137.9,139c-.2-.2-.4-.4-.6-.5s-.4-.1-.7-.1c-.5,0-.9.2-1.1.5s-.4.8-.4,1.5,0,.6,0,.9c0,.2.1.4.3.6.1.2.3.3.4.3.2,0,.4.1.6.1.3,0,.6,0,.8-.2.2-.1.4-.3.6-.6v-2.5Z"/>
    <path class="st4" d="M140.2,138.5c.3-.3.6-.5.9-.6.3-.1.7-.2,1.1-.2s.6,0,.8.1c.2,0,.4.2.6.4s.3.4.4.6c0,.2.1.5.1.8v3.3h-.4c0,0-.2,0-.2,0,0,0,0,0-.1-.2v-.5c-.2.1-.4.2-.5.3-.1,0-.3.2-.4.2-.1,0-.3.1-.5.2-.2,0-.3,0-.5,0s-.4,0-.6,0c-.2,0-.3-.1-.5-.3-.1-.1-.2-.3-.3-.4s-.1-.4-.1-.6,0-.4.2-.6c.1-.2.3-.4.6-.5s.6-.3,1-.4c.4,0,.9-.1,1.5-.2v-.4c0-.4,0-.7-.3-.9-.2-.2-.4-.3-.8-.3s-.4,0-.6,0c-.2,0-.3.1-.4.2-.1,0-.2.1-.3.2s-.2,0-.2,0-.1,0-.2,0c0,0,0,0-.1-.1l-.2-.3ZM143.1,140.7c-.4,0-.8,0-1.1.1-.3,0-.5.1-.7.2s-.3.2-.4.3c0,.1-.1.2-.1.4s0,.3,0,.4c0,0,.1.2.2.2s.2.1.3.1.2,0,.3,0,.3,0,.4,0,.3,0,.4-.1.2-.1.3-.2c.1,0,.2-.2.3-.3v-1.1Z"/>
    <path class="st4" d="M149.7,135.4v7.6h-.5c-.1,0-.2,0-.2-.2v-.6c-.3.3-.6.5-.8.6-.3.2-.6.2-1,.2s-.6,0-.8-.2c-.2-.1-.5-.3-.6-.5-.2-.2-.3-.5-.4-.8,0-.3-.1-.7-.1-1.1s0-.7.2-1.1c.1-.3.3-.6.4-.9.2-.2.4-.4.7-.6.3-.1.6-.2.9-.2s.6,0,.8.2c.2.1.4.3.6.5v-2.9h.9ZM148.8,139c-.2-.2-.4-.4-.6-.5s-.4-.1-.7-.1c-.5,0-.9.2-1.1.5s-.4.8-.4,1.5,0,.6,0,.9c0,.2.1.4.3.6.1.2.3.3.4.3.2,0,.4.1.6.1.3,0,.6,0,.8-.2.2-.1.4-.3.6-.6v-2.5Z"/>
    <path class="st4" d="M155.4,142.3c-.1.1-.2.3-.4.4-.2.1-.3.2-.5.2s-.4.1-.6.1c-.2,0-.4,0-.6,0-.4,0-.7,0-1-.2s-.6-.3-.8-.5c-.2-.2-.4-.5-.5-.9s-.2-.7-.2-1.2,0-.7.2-1c.1-.3.3-.6.5-.8.2-.2.5-.4.8-.5s.6-.2,1-.2.6,0,.9.2.5.3.7.5.3.4.5.7c.1.3.2.6.2,1s0,.2,0,.3c0,0,0,0-.2,0h-3.5c0,.3,0,.6.1.9,0,.2.2.4.3.6.1.2.3.3.5.4.2,0,.4.1.7.1s.4,0,.6,0c.2,0,.3-.1.4-.2s.2-.1.3-.2c0,0,.1,0,.2,0s.1,0,.2,0l.3.3ZM154.7,139.8c0-.2,0-.4,0-.6s-.1-.3-.3-.5c-.1-.1-.3-.2-.4-.3s-.4-.1-.6-.1c-.4,0-.8.1-1,.4-.3.3-.4.6-.5,1.1h2.9Z"/>
  </g>
  <g>
    <path class="st4" d="M229.4,143h-1v-7.4h1v7.4Z"/>
    <path class="st4" d="M232.3,143h-1v-7.4h1v7.4Z"/>
  </g>
  <g>
    <path class="st4" d="M336.1,135.6v7.4h-.9v-5.4c0,0,0-.1,0-.2,0,0,0-.2,0-.3l-2.5,4.6c0,.2-.2.2-.4.2h-.1c-.2,0-.3,0-.4-.2l-2.6-4.6c0,.2,0,.3,0,.5v5.4h-.9v-7.4h.7c0,0,.2,0,.2,0,0,0,0,0,.1.1l2.5,4.5c0,0,0,.2.1.3,0,0,0,.2.1.3,0,0,0-.2.1-.3s0-.2.1-.3l2.5-4.5c0,0,0-.1.1-.1,0,0,.1,0,.2,0h.7Z"/>
    <path class="st4" d="M342,137.8v5.2h-.5c-.1,0-.2,0-.2-.2v-.6c-.3.2-.6.5-.8.6s-.6.2-1,.2-.5,0-.8-.1c-.2,0-.4-.2-.5-.4-.1-.2-.3-.4-.3-.6,0-.2-.1-.5-.1-.8v-3.3h.9v3.3c0,.4,0,.7.3.9.2.2.5.3.8.3s.5,0,.8-.2c.2-.1.5-.3.7-.5v-3.8h.9Z"/>
    <path class="st4" d="M344.6,136.2c0,0,0,.2,0,.2s0,.1-.1.2-.1.1-.2.1c0,0-.2,0-.3,0s-.2,0-.2,0-.1,0-.2-.1c0,0-.1-.1-.1-.2s0-.2,0-.2,0-.2,0-.3c0,0,0-.2.1-.2,0,0,.1-.1.2-.1s.2,0,.2,0,.2,0,.3,0c0,0,.2,0,.2.1,0,0,.1.1.1.2,0,0,0,.2,0,.3ZM344.4,137.8v5.2h-.9v-5.2h.9Z"/>
    <path class="st4" d="M347.4,143.1c-.4,0-.7-.1-.9-.3-.2-.2-.3-.6-.3-1v-3.2h-.6c0,0-.1,0-.1,0,0,0,0,0,0-.2v-.4h.9c0-.1.2-1.7.2-1.7,0,0,0,0,0-.1s0,0,.1,0h.5v1.8h1.5v.7h-1.5v3.1c0,.2,0,.4.2.5.1.1.2.2.4.2s.2,0,.2,0c0,0,.1,0,.2,0,0,0,0,0,.1,0s0,0,0,0c0,0,0,0,.1,0l.3.4c-.2.1-.3.3-.6.3-.2,0-.5.1-.7.1Z"/>
    <path class="st4" d="M351.7,137.7c.4,0,.7,0,1,.2.3.1.6.3.8.5s.4.5.5.8c.1.3.2.7.2,1.1s0,.8-.2,1.1c-.1.3-.3.6-.5.8s-.5.4-.8.5c-.3.1-.6.2-1,.2s-.7,0-1-.2-.6-.3-.8-.5c-.2-.2-.4-.5-.5-.8s-.2-.7-.2-1.1,0-.8.2-1.1.3-.6.5-.8c.2-.2.5-.4.8-.5s.7-.2,1-.2ZM351.7,142.4c.5,0,.9-.2,1.2-.5s.4-.8.4-1.4-.1-1.1-.4-1.5c-.3-.3-.6-.5-1.2-.5s-.5,0-.7.1c-.2,0-.4.2-.5.4s-.2.4-.3.6c0,.2,0,.5,0,.8,0,.6.1,1.1.4,1.4s.6.5,1.2.5Z"/>
    <path class="st4" d="M362.1,142.3c-.1.1-.2.3-.4.4-.2.1-.3.2-.5.2-.2,0-.4.1-.6.1-.2,0-.4,0-.6,0-.4,0-.7,0-1-.2-.3-.1-.6-.3-.8-.5-.2-.2-.4-.5-.5-.9s-.2-.7-.2-1.2,0-.7.2-1c.1-.3.3-.6.5-.8s.5-.4.8-.5.6-.2,1-.2.6,0,.9.2.5.3.7.5.3.4.5.7c.1.3.2.6.2,1s0,.2,0,.3c0,0,0,0-.2,0h-3.5c0,.3,0,.6.1.9,0,.2.2.4.3.6.1.2.3.3.5.4.2,0,.4.1.7.1s.4,0,.6,0c.2,0,.3-.1.4-.2s.2-.1.3-.2c0,0,.1,0,.2,0s.1,0,.2,0l.3.3ZM361.4,139.8c0-.2,0-.4,0-.6,0-.2-.1-.3-.3-.5-.1-.1-.3-.2-.4-.3-.2,0-.4-.1-.6-.1-.4,0-.8.1-1,.4s-.4.6-.5,1.1h2.9Z"/>
    <path class="st4" d="M364.2,135.4v7.6h-.9v-7.6h.9Z"/>
    <path class="st4" d="M369.9,142.3c-.1.1-.2.3-.4.4-.2.1-.3.2-.5.2-.2,0-.4.1-.6.1-.2,0-.4,0-.6,0-.4,0-.7,0-1-.2-.3-.1-.6-.3-.8-.5-.2-.2-.4-.5-.5-.9s-.2-.7-.2-1.2,0-.7.2-1c.1-.3.3-.6.5-.8s.5-.4.8-.5.6-.2,1-.2.6,0,.9.2.5.3.7.5.3.4.5.7c.1.3.2.6.2,1s0,.2,0,.3c0,0,0,0-.2,0h-3.5c0,.3,0,.6.1.9,0,.2.2.4.3.6.1.2.3.3.5.4.2,0,.4.1.7.1s.4,0,.6,0c.2,0,.3-.1.4-.2s.2-.1.3-.2c0,0,.1,0,.2,0s.1,0,.2,0l.3.3ZM369.2,139.8c0-.2,0-.4,0-.6,0-.2-.1-.3-.3-.5-.1-.1-.3-.2-.4-.3-.2,0-.4-.1-.6-.1-.4,0-.8.1-1,.4s-.4.6-.5,1.1h2.9Z"/>
    <path class="st4" d="M375.6,137.8l-2.1,5.2h-.8l-2.1-5.2h.7c0,0,.1,0,.2,0,0,0,0,0,0,.1l1.3,3.4c0,.1,0,.3.1.4,0,.1,0,.2,0,.4,0-.1,0-.2,0-.4,0-.1,0-.2.1-.4l1.3-3.4c0,0,0-.1.1-.1,0,0,.1,0,.2,0h.7Z"/>
    <path class="st4" d="M376.2,138.5c.3-.3.6-.5.9-.6.3-.1.7-.2,1.1-.2s.6,0,.8.1.4.2.6.4c.2.2.3.4.3.6,0,.2.1.5.1.8v3.3h-.4c0,0-.2,0-.2,0,0,0,0,0-.1-.2v-.5c-.2.1-.4.2-.5.3-.1,0-.3.2-.4.2-.1,0-.3.1-.5.2s-.3,0-.5,0-.4,0-.6,0-.3-.1-.5-.3c-.1-.1-.2-.3-.3-.4s-.1-.4-.1-.6,0-.4.2-.6.3-.4.6-.5.6-.3,1-.4c.4,0,.9-.1,1.5-.2v-.4c0-.4,0-.7-.3-.9-.2-.2-.4-.3-.8-.3s-.4,0-.6,0c-.2,0-.3.1-.4.2s-.2.1-.3.2c0,0-.2,0-.2,0s-.1,0-.2,0c0,0,0,0-.1-.1l-.2-.3ZM379.2,140.7c-.4,0-.8,0-1.1.1-.3,0-.5.1-.7.2-.2,0-.3.2-.4.3,0,.1-.1.2-.1.4s0,.3,0,.4c0,0,.1.2.2.2s.2.1.3.1.2,0,.3,0,.3,0,.4,0,.3,0,.4-.1c.1,0,.2-.1.3-.2.1,0,.2-.2.3-.3v-1.1Z"/>
    <path class="st4" d="M385.8,135.4v7.6h-.5c-.1,0-.2,0-.2-.2v-.6c-.3.3-.6.5-.8.6-.3.2-.6.2-1,.2s-.6,0-.8-.2c-.2-.1-.5-.3-.6-.5-.2-.2-.3-.5-.4-.8,0-.3-.1-.7-.1-1.1s0-.7.2-1.1c.1-.3.2-.6.4-.9.2-.2.4-.4.7-.6.3-.1.6-.2.9-.2s.6,0,.8.2c.2.1.4.3.6.5v-2.9h.9ZM384.9,139c-.2-.2-.4-.4-.6-.5s-.4-.1-.7-.1c-.5,0-.9.2-1.1.5s-.4.8-.4,1.5,0,.6,0,.9c0,.2.1.4.3.6.1.2.3.3.4.3.2,0,.4.1.6.1.3,0,.6,0,.8-.2.2-.1.4-.3.6-.6v-2.5Z"/>
    <path class="st4" d="M389.4,137.7c.4,0,.7,0,1,.2.3.1.6.3.8.5s.4.5.5.8c.1.3.2.7.2,1.1s0,.8-.2,1.1c-.1.3-.3.6-.5.8s-.5.4-.8.5c-.3.1-.6.2-1,.2s-.7,0-1-.2-.6-.3-.8-.5c-.2-.2-.4-.5-.5-.8s-.2-.7-.2-1.1,0-.8.2-1.1.3-.6.5-.8c.2-.2.5-.4.8-.5s.7-.2,1-.2ZM389.4,142.4c.5,0,.9-.2,1.2-.5s.4-.8.4-1.4-.1-1.1-.4-1.5c-.3-.3-.6-.5-1.2-.5s-.5,0-.7.1c-.2,0-.4.2-.5.4s-.2.4-.3.6c0,.2,0,.5,0,.8,0,.6.1,1.1.4,1.4s.6.5,1.2.5Z"/>
  </g>
  <g>
    <path class="st1" d="M12.5,169.1v.4l-4,2v-.6c0,0,0-.1,0-.2s0,0,.2-.1l2.3-1.1c0,0,.2,0,.2,0,0,0,.2,0,.3,0,0,0-.2,0-.3,0,0,0-.2,0-.2,0l-2.3-1.1c0,0-.1,0-.2-.1,0,0,0,0,0-.2v-.6l4,1.9ZM8.5,172h4v.7h-4v-.7Z"/>
    <path class="st1" d="M21.7,170.5v.5c0,0,0,.1,0,.1s0,0-.2,0h-.9v1.9h-.8v-1.9h-3.3c0,0-.1,0-.2,0,0,0,0,0,0-.1v-.5c0,0,3.5-4.8,3.5-4.8h.9v4.7h1.1ZM19.8,170.5v-3c0,0,0-.2,0-.3,0-.1,0-.2,0-.3l-2.7,3.7h2.6Z"/>
    <path class="st1" d="M27.7,169.5c0,.6,0,1.2-.2,1.7-.1.5-.3.9-.6,1.2-.2.3-.5.5-.9.7-.3.2-.7.2-1.1.2s-.7,0-1.1-.2c-.3-.2-.6-.4-.8-.7-.2-.3-.4-.7-.6-1.2s-.2-1-.2-1.7,0-1.2.2-1.7c.1-.5.3-.9.6-1.2.2-.3.5-.5.8-.7.3-.2.7-.2,1.1-.2s.7,0,1.1.2c.3.2.6.4.9.7.2.3.4.7.6,1.2.1.5.2,1,.2,1.7ZM26.7,169.5c0-.6,0-1-.1-1.4,0-.4-.2-.7-.4-.9-.2-.2-.3-.4-.6-.5-.2-.1-.4-.2-.7-.2s-.4,0-.7.2c-.2.1-.4.3-.6.5s-.3.5-.4.9c0,.4-.1.9-.1,1.4s0,1,.1,1.4c0,.4.2.7.4.9s.3.4.6.5c.2.1.4.2.7.2s.4,0,.7-.2c.2-.1.4-.3.6-.5.2-.2.3-.5.4-.9,0-.4.1-.9.1-1.4Z"/>
    <path class="st1" d="M28.6,174.4s0,0,0,0,0,0,0,0,0,0,0,0c0,0,0,0,0,0,0,0,0,0,.1-.1,0,0,.1-.1.2-.2,0,0,.1-.2.2-.3,0-.1,0-.2.1-.3,0,0,0,0,0,0h0c-.2,0-.3,0-.4-.2-.1-.1-.2-.3-.2-.5s0-.3.2-.4.3-.2.4-.2.2,0,.3,0c0,0,.1,0,.2.2,0,0,0,.1.1.2,0,0,0,.2,0,.3,0,.2,0,.3,0,.5,0,.2-.1.3-.2.5,0,.2-.2.3-.3.5s-.3.3-.4.4h-.2Z"/>
    <path class="st1" d="M36,169.5c0,.6,0,1.2-.2,1.7-.1.5-.3.9-.6,1.2-.2.3-.5.5-.9.7-.3.2-.7.2-1.1.2s-.7,0-1.1-.2c-.3-.2-.6-.4-.8-.7-.2-.3-.4-.7-.6-1.2s-.2-1-.2-1.7,0-1.2.2-1.7c.1-.5.3-.9.6-1.2.2-.3.5-.5.8-.7.3-.2.7-.2,1.1-.2s.7,0,1.1.2c.3.2.6.4.9.7.2.3.4.7.6,1.2.1.5.2,1,.2,1.7ZM35,169.5c0-.6,0-1-.1-1.4,0-.4-.2-.7-.4-.9-.2-.2-.3-.4-.6-.5-.2-.1-.4-.2-.7-.2s-.4,0-.7.2c-.2.1-.4.3-.6.5s-.3.5-.4.9c0,.4-.1.9-.1,1.4s0,1,.1,1.4c0,.4.2.7.4.9s.3.4.6.5c.2.1.4.2.7.2s.4,0,.7-.2c.2-.1.4-.3.6-.5.2-.2.3-.5.4-.9,0-.4.1-.9.1-1.4Z"/>
  </g>
  <g>
    <path class="st4" d="M115.2,169.5c0,.6,0,1.1-.3,1.5s-.4.9-.7,1.2c-.3.3-.7.6-1.1.8-.4.2-.9.3-1.5.3s-1,0-1.5-.3c-.4-.2-.8-.4-1.1-.8-.3-.3-.6-.7-.7-1.2s-.3-1-.3-1.5,0-1.1.3-1.5c.2-.5.4-.9.7-1.2.3-.3.7-.6,1.1-.8.4-.2.9-.3,1.5-.3s1,0,1.5.3c.4.2.8.4,1.1.8.3.3.6.7.7,1.2.2.5.3,1,.3,1.5ZM114.2,169.5c0-.5,0-.9-.2-1.2-.1-.4-.3-.7-.5-.9-.2-.2-.5-.4-.8-.6-.3-.1-.7-.2-1.1-.2s-.8,0-1.1.2c-.3.1-.6.3-.8.6-.2.2-.4.6-.5.9-.1.4-.2.8-.2,1.2s0,.9.2,1.2.3.7.5.9c.2.2.5.4.8.6.3.1.7.2,1.1.2s.8,0,1.1-.2c.3-.1.6-.3.8-.6.2-.2.4-.6.5-.9s.2-.8.2-1.2Z"/>
    <path class="st4" d="M117.3,168.7c.2-.3.5-.5.7-.6.3-.2.6-.2,1-.2s.6,0,.8.2c.2.1.5.3.6.5.2.2.3.5.4.8,0,.3.1.7.1,1.1s0,.8-.2,1.2c-.1.3-.3.6-.4.9s-.4.4-.7.6-.6.2-.9.2-.6,0-.9-.2c-.2-.1-.4-.3-.6-.5v.5c0,.1-.2.2-.3.2h-.6v-7.6h.9v3.1ZM117.3,171.9c.2.2.4.4.6.5.2,0,.4.1.7.1.5,0,.9-.2,1.1-.5s.4-.9.4-1.5-.1-1.1-.3-1.4-.6-.5-1-.5-.6,0-.8.2c-.2.1-.4.3-.6.6v2.5Z"/>
    <path class="st4" d="M126.4,172.4c-.1.1-.2.3-.4.4-.2.1-.3.2-.5.2s-.4.1-.6.1c-.2,0-.4,0-.6,0-.4,0-.7,0-1-.2s-.6-.3-.8-.5c-.2-.2-.4-.5-.5-.9s-.2-.7-.2-1.2,0-.7.2-1c.1-.3.3-.6.5-.8.2-.2.5-.4.8-.5s.6-.2,1-.2.6,0,.9.2.5.3.7.5.3.4.5.7c.1.3.2.6.2,1s0,.2,0,.3c0,0,0,0-.2,0h-3.5c0,.3,0,.6.1.9,0,.2.2.4.3.6.1.2.3.3.5.4.2,0,.4.1.7.1s.4,0,.6,0c.2,0,.3-.1.4-.2s.2-.1.3-.2c0,0,.1,0,.2,0s.1,0,.2,0l.3.3ZM125.7,170c0-.2,0-.4,0-.6s-.1-.3-.3-.5c-.1-.1-.3-.2-.4-.3s-.4-.1-.6-.1c-.4,0-.8.1-1,.4-.3.3-.4.6-.5,1.1h2.9Z"/>
    <path class="st4" d="M130.6,168.8c0,0-.1.1-.2.1s-.1,0-.2,0c0,0-.1,0-.2-.1,0,0-.2,0-.3-.1-.1,0-.3,0-.5,0s-.3,0-.4,0c-.1,0-.2,0-.3.2,0,0-.2.1-.2.2,0,0,0,.2,0,.3s0,.2.1.3c0,0,.2.2.3.2.1,0,.3.1.4.2s.3.1.5.2c.2,0,.3.1.5.2s.3.2.4.3c.1.1.2.2.3.4,0,.1.1.3.1.5s0,.5-.1.7c0,.2-.2.4-.4.5s-.4.3-.6.4c-.2,0-.5.1-.8.1s-.7,0-1-.2-.5-.3-.8-.5l.2-.4s0,0,0-.1c0,0,0,0,.1,0s.1,0,.2,0c0,0,.2.1.2.2s.2.1.4.2c.1,0,.3,0,.5,0s.3,0,.5,0,.2-.1.3-.2.2-.2.2-.3c0-.1,0-.2,0-.3s0-.3-.1-.4c0,0-.2-.2-.3-.2-.1,0-.3-.1-.4-.2-.2,0-.3-.1-.5-.2s-.3-.1-.5-.2c-.2,0-.3-.2-.4-.3-.1-.1-.2-.2-.3-.4s-.1-.3-.1-.6,0-.4.1-.6c0-.2.2-.3.4-.5s.4-.2.6-.3c.2,0,.5-.1.8-.1s.7,0,.9.2c.3.1.5.3.7.4l-.2.3Z"/>
    <path class="st4" d="M133.2,166.3c0,0,0,.2,0,.2,0,0,0,.1-.1.2,0,0-.1.1-.2.1s-.2,0-.3,0-.2,0-.2,0-.1,0-.2-.1c0,0-.1-.1-.1-.2s0-.2,0-.2,0-.2,0-.3c0,0,0-.2.1-.2,0,0,.1-.1.2-.1s.2,0,.2,0,.2,0,.3,0,.2,0,.2.1c0,0,.1.1.1.2,0,0,0,.2,0,.3ZM133,167.9v5.2h-.9v-5.2h.9Z"/>
    <path class="st4" d="M138.8,165.6v7.6h-.5c-.1,0-.2,0-.2-.2v-.6c-.3.3-.6.5-.8.6-.3.2-.6.2-1,.2s-.6,0-.8-.2c-.2-.1-.5-.3-.6-.5-.2-.2-.3-.5-.4-.8,0-.3-.1-.7-.1-1.1s0-.7.2-1.1c.1-.3.3-.6.4-.9.2-.2.4-.4.7-.6.3-.1.6-.2.9-.2s.6,0,.8.2c.2.1.4.3.6.5v-2.9h.9ZM137.9,169.2c-.2-.2-.4-.4-.6-.5s-.4-.1-.7-.1c-.5,0-.9.2-1.1.5s-.4.8-.4,1.5,0,.6,0,.9c0,.2.1.4.3.6.1.2.3.3.4.3.2,0,.4.1.6.1.3,0,.6,0,.8-.2.2-.1.4-.3.6-.6v-2.5Z"/>
    <path class="st4" d="M140.2,168.7c.3-.3.6-.5.9-.6.3-.1.7-.2,1.1-.2s.6,0,.8.1c.2,0,.4.2.6.4s.3.4.4.6c0,.2.1.5.1.8v3.3h-.4c0,0-.2,0-.2,0,0,0,0,0-.1-.2v-.5c-.2.1-.4.2-.5.3-.1,0-.3.2-.4.2-.1,0-.3.1-.5.2-.2,0-.3,0-.5,0s-.4,0-.6,0c-.2,0-.3-.1-.5-.3-.1-.1-.2-.3-.3-.4s-.1-.4-.1-.6,0-.4.2-.6c.1-.2.3-.4.6-.5s.6-.3,1-.4c.4,0,.9-.1,1.5-.2v-.4c0-.4,0-.7-.3-.9-.2-.2-.4-.3-.8-.3s-.4,0-.6,0c-.2,0-.3.1-.4.2-.1,0-.2.1-.3.2s-.2,0-.2,0-.1,0-.2,0c0,0,0,0-.1-.1l-.2-.3ZM143.1,170.8c-.4,0-.8,0-1.1.1-.3,0-.5.1-.7.2s-.3.2-.4.3c0,.1-.1.2-.1.4s0,.3,0,.4c0,0,.1.2.2.2s.2.1.3.1.2,0,.3,0,.3,0,.4,0,.3,0,.4-.1.2-.1.3-.2c.1,0,.2-.2.3-.3v-1.1Z"/>
    <path class="st4" d="M149.7,165.6v7.6h-.5c-.1,0-.2,0-.2-.2v-.6c-.3.3-.6.5-.8.6-.3.2-.6.2-1,.2s-.6,0-.8-.2c-.2-.1-.5-.3-.6-.5-.2-.2-.3-.5-.4-.8,0-.3-.1-.7-.1-1.1s0-.7.2-1.1c.1-.3.3-.6.4-.9.2-.2.4-.4.7-.6.3-.1.6-.2.9-.2s.6,0,.8.2c.2.1.4.3.6.5v-2.9h.9ZM148.8,169.2c-.2-.2-.4-.4-.6-.5s-.4-.1-.7-.1c-.5,0-.9.2-1.1.5s-.4.8-.4,1.5,0,.6,0,.9c0,.2.1.4.3.6.1.2.3.3.4.3.2,0,.4.1.6.1.3,0,.6,0,.8-.2.2-.1.4-.3.6-.6v-2.5Z"/>
    <path class="st4" d="M155.4,172.4c-.1.1-.2.3-.4.4-.2.1-.3.2-.5.2s-.4.1-.6.1c-.2,0-.4,0-.6,0-.4,0-.7,0-1-.2s-.6-.3-.8-.5c-.2-.2-.4-.5-.5-.9s-.2-.7-.2-1.2,0-.7.2-1c.1-.3.3-.6.5-.8.2-.2.5-.4.8-.5s.6-.2,1-.2.6,0,.9.2.5.3.7.5.3.4.5.7c.1.3.2.6.2,1s0,.2,0,.3c0,0,0,0-.2,0h-3.5c0,.3,0,.6.1.9,0,.2.2.4.3.6.1.2.3.3.5.4.2,0,.4.1.7.1s.4,0,.6,0c.2,0,.3-.1.4-.2s.2-.1.3-.2c0,0,.1,0,.2,0s.1,0,.2,0l.3.3ZM154.7,170c0-.2,0-.4,0-.6s-.1-.3-.3-.5c-.1-.1-.3-.2-.4-.3s-.4-.1-.6-.1c-.4,0-.8.1-1,.4-.3.3-.4.6-.5,1.1h2.9Z"/>
    <path class="st4" d="M163.6,168.1v.3c0,.1,0,.2-.2.2h-.6c.1.3.2.6.2.8s0,.5-.1.7c0,.2-.2.4-.4.5s-.4.3-.6.3c-.2,0-.5.1-.8.1s-.5,0-.7,0c-.1,0-.2.1-.3.2,0,0,0,.2,0,.2,0,.1,0,.2.2.3.1,0,.2.1.4.1.2,0,.4,0,.6,0s.4,0,.6,0,.4,0,.6,0c.2,0,.4,0,.6.2s.3.2.4.4c.1.2.2.3.2.6s0,.4-.2.6-.3.4-.5.6c-.2.2-.5.3-.8.4-.3,0-.6.1-1,.1s-.7,0-1-.1c-.3,0-.5-.2-.7-.3-.2-.1-.3-.3-.4-.4s-.1-.3-.1-.5,0-.5.2-.7c.2-.2.4-.3.7-.4-.2,0-.3-.2-.4-.3s-.1-.3-.1-.5,0-.2,0-.2c0,0,0-.2.1-.2,0,0,.1-.2.2-.2,0,0,.2-.1.3-.2-.3-.1-.5-.3-.6-.6s-.2-.5-.2-.8,0-.5.1-.7c0-.2.2-.4.4-.5s.4-.3.6-.3c.2,0,.5-.1.8-.1s.4,0,.6,0c.2,0,.4.1.5.2h1.4ZM162.7,173.4c0-.1,0-.2-.1-.3,0,0-.2-.1-.3-.2-.1,0-.3,0-.4,0-.2,0-.3,0-.5,0s-.4,0-.5,0c-.2,0-.4,0-.5,0-.2,0-.3.2-.5.3-.1.1-.2.3-.2.5s0,.2,0,.3c0,.1.2.2.3.3.1,0,.3.1.5.2.2,0,.4,0,.7,0s.5,0,.7,0c.2,0,.4-.1.5-.2.1,0,.2-.2.3-.3,0-.1.1-.2.1-.4ZM161,170.6c.2,0,.3,0,.5,0,.1,0,.3-.1.4-.2,0,0,.2-.2.2-.3,0-.1,0-.3,0-.4,0-.3,0-.6-.3-.8s-.5-.3-.8-.3-.7,0-.8.3-.3.4-.3.8,0,.3,0,.4c0,.1.1.2.2.3s.2.2.4.2c.1,0,.3,0,.5,0Z"/>
    <path class="st4" d="M165.5,169c.2-.4.4-.6.6-.8.2-.2.5-.3.9-.3s.2,0,.3,0c.1,0,.2,0,.3.1v.7c0,0-.1.1-.2.1s-.1,0-.2,0c0,0-.2,0-.3,0s-.3,0-.4,0c-.1,0-.2.1-.3.2-.1,0-.2.2-.3.3s-.2.3-.2.5v3.3h-.9v-5.2h.5c0,0,.2,0,.2,0,0,0,0,.1,0,.2v.8Z"/>
  </g>
  <g>
    <path class="st4" d="M168,168.7c.3-.3.6-.5.9-.6.3-.1.7-.2,1.1-.2s.6,0,.8.1c.2,0,.4.2.6.4s.3.4.4.6c0,.2.1.5.1.8v3.3h-.4c0,0-.2,0-.2,0,0,0,0,0-.1-.2v-.5c-.2.1-.4.2-.5.3-.1,0-.3.2-.4.2-.1,0-.3.1-.5.2-.2,0-.3,0-.5,0s-.4,0-.6,0c-.2,0-.3-.1-.5-.3-.1-.1-.2-.3-.3-.4s-.1-.4-.1-.6,0-.4.2-.6c.1-.2.3-.4.6-.5s.6-.3,1-.4c.4,0,.9-.1,1.5-.2v-.4c0-.4,0-.7-.3-.9-.2-.2-.4-.3-.8-.3s-.4,0-.6,0c-.2,0-.3.1-.4.2-.1,0-.2.1-.3.2s-.2,0-.2,0-.1,0-.2,0c0,0,0,0-.1-.1l-.2-.3ZM171,170.8c-.4,0-.8,0-1.1.1-.3,0-.5.1-.7.2s-.3.2-.4.3c0,.1-.1.2-.1.4s0,.3,0,.4c0,0,.1.2.2.2s.2.1.3.1.2,0,.3,0,.3,0,.4,0,.3,0,.4-.1.2-.1.3-.2c.1,0,.2-.2.3-.3v-1.1Z"/>
    <path class="st4" d="M177.6,167.9l-2.1,5.2h-.8l-2.1-5.2h.7c0,0,.1,0,.2,0,0,0,0,0,0,.1l1.3,3.4c0,.1,0,.3.1.4s0,.2,0,.4c0-.1,0-.2,0-.4s0-.2.1-.4l1.3-3.4c0,0,0-.1.1-.1,0,0,.1,0,.2,0h.7Z"/>
    <path class="st4" d="M182.6,172.4c-.1.1-.2.3-.4.4-.2.1-.3.2-.5.2s-.4.1-.6.1c-.2,0-.4,0-.6,0-.4,0-.7,0-1-.2s-.6-.3-.8-.5c-.2-.2-.4-.5-.5-.9s-.2-.7-.2-1.2,0-.7.2-1c.1-.3.3-.6.5-.8.2-.2.5-.4.8-.5s.6-.2,1-.2.6,0,.9.2.5.3.7.5.3.4.5.7c.1.3.2.6.2,1s0,.2,0,.3c0,0,0,0-.2,0h-3.5c0,.3,0,.6.1.9,0,.2.2.4.3.6.1.2.3.3.5.4.2,0,.4.1.7.1s.4,0,.6,0c.2,0,.3-.1.4-.2s.2-.1.3-.2c0,0,.1,0,.2,0s.1,0,.2,0l.3.3ZM181.8,170c0-.2,0-.4,0-.6s-.1-.3-.3-.5c-.1-.1-.3-.2-.4-.3s-.4-.1-.6-.1c-.4,0-.8.1-1,.4-.3.3-.4.6-.5,1.1h2.9Z"/>
  </g>
  <g>
    <path class="st4" d="M229.4,173.1h-1v-7.4h1v7.4Z"/>
    <path class="st4" d="M232.3,173.1h-1v-7.4h1v7.4Z"/>
    <path class="st4" d="M235.1,173.1h-1v-7.4h1v7.4Z"/>
  </g>
  <path class="st4" d="M335.3,165.8c0,0-.2,0-.2,0s0,0-.1.1l-2.5,4.5c0,0,0,.2-.1.3s0,.2-.1.3c0,0,0-.2-.1-.3s0-.2-.1-.3l-2.5-4.5c0,0,0-.1-.1-.1s-.1,0-.2,0h-.7v7.4h.9v-5.4c0-.2,0-.3,0-.5l2.6,4.6c0,.2.2.2.4.2h.1c.2,0,.3,0,.4-.2l2.5-4.6c0,0,0,.2,0,.3,0,0,0,.2,0,.2v5.4h.9v-7.4h-.7ZM341,167.9v3.8c-.2.2-.4.4-.6.5-.2.1-.5.2-.8.2s-.6-.1-.8-.3c-.2-.2-.3-.5-.3-.9v-3.3h-.9v3.3c0,.3,0,.6.1.8s.2.5.3.6c.1.2.3.3.5.4s.5.1.8.1.7,0,1-.2.5-.4.8-.6v.6c.1.1.2.2.3.2h.5v-5.2h-.9ZM343.4,167.9v5.2h.9v-5.2h-.9ZM344.4,166c0,0,0-.2-.1-.2s-.1-.1-.2-.1c0,0-.2,0-.3,0s-.2,0-.2,0c0,0-.1,0-.2.1s-.1.1-.1.2c0,0,0,.2,0,.2s0,.2,0,.3c0,0,0,.1.1.2s.1.1.2.1c0,0,.2,0,.2,0s.2,0,.3,0c0,0,.1,0,.2-.1s.1-.1.1-.2c0,0,0-.2,0-.3s0-.2,0-.2h0ZM350.6,168h-3.6v-1.8h-.5c0,0-.1,0-.1,0,0,0,0,0,0,.1l-.2,1.6h-.9v.5c0,0,0,.1,0,.2s0,0,.1,0h.6v3.2c0,.4.1.8.3,1,.2.2.5.3.9.3s.5,0,.7-.1.4-.2.6-.3l-.3-.4c0,0,0,0-.1,0s0,0,0,0c0,0,0,0-.1,0s-.1,0-.2,0c0,0-.2,0-.2,0-.2,0-.3,0-.4-.2-.1-.1-.2-.3-.2-.5v-3.1h2.7v4.4h.9v-5.1ZM350.8,165.7c-.1,0-.2,0-.3,0,0,0-.1,0-.2.2l-.8,1.2h.5c0,0,.1,0,.2,0,0,0,0,0,.1-.1l1.2-1.3h-.9Z"/>
  <g>
    <path class="st4" d="M355.2,168.8c0,0-.1.1-.2.1s-.1,0-.2,0-.1,0-.2-.1c0,0-.2,0-.3-.1-.1,0-.3,0-.5,0s-.3,0-.4,0c-.1,0-.2,0-.3.2,0,0-.2.1-.2.2,0,0,0,.2,0,.3s0,.2.1.3c0,0,.2.2.3.2.1,0,.3.1.4.2s.3.1.5.2c.2,0,.3.1.5.2s.3.2.4.3c.1.1.2.2.3.4,0,.1.1.3.1.5s0,.5-.1.7-.2.4-.4.5-.4.3-.6.4c-.2,0-.5.1-.8.1s-.7,0-1-.2-.5-.3-.8-.5l.2-.4s0,0,0-.1c0,0,0,0,.1,0s.1,0,.2,0,.2.1.2.2.2.1.4.2c.1,0,.3,0,.5,0s.3,0,.5,0,.2-.1.3-.2.2-.2.2-.3c0-.1,0-.2,0-.3s0-.3-.1-.4c0,0-.2-.2-.3-.2-.1,0-.3-.1-.4-.2-.2,0-.3-.1-.5-.2-.2,0-.3-.1-.5-.2-.2,0-.3-.2-.4-.3s-.2-.2-.3-.4-.1-.3-.1-.6,0-.4.1-.6c0-.2.2-.3.4-.5.2-.1.4-.2.6-.3.2,0,.5-.1.8-.1s.7,0,.9.2c.3.1.5.3.7.4l-.2.3Z"/>
    <path class="st4" d="M359.6,168.8c0,0-.1.1-.2.1s-.1,0-.2,0-.1,0-.2-.1c0,0-.2,0-.3-.1-.1,0-.3,0-.5,0s-.3,0-.4,0c-.1,0-.2,0-.3.2,0,0-.2.1-.2.2,0,0,0,.2,0,.3s0,.2.1.3c0,0,.2.2.3.2.1,0,.3.1.4.2s.3.1.5.2c.2,0,.3.1.5.2s.3.2.4.3c.1.1.2.2.3.4,0,.1.1.3.1.5s0,.5-.1.7-.2.4-.4.5-.4.3-.6.4c-.2,0-.5.1-.8.1s-.7,0-1-.2-.5-.3-.8-.5l.2-.4s0,0,0-.1c0,0,0,0,.1,0s.1,0,.2,0,.2.1.2.2.2.1.4.2c.1,0,.3,0,.5,0s.3,0,.5,0,.2-.1.3-.2.2-.2.2-.3c0-.1,0-.2,0-.3s0-.3-.1-.4c0,0-.2-.2-.3-.2-.1,0-.3-.1-.4-.2-.2,0-.3-.1-.5-.2-.2,0-.3-.1-.5-.2-.2,0-.3-.2-.4-.3s-.2-.2-.3-.4-.1-.3-.1-.6,0-.4.1-.6c0-.2.2-.3.4-.5.2-.1.4-.2.6-.3.2,0,.5-.1.8-.1s.7,0,.9.2c.3.1.5.3.7.4l-.2.3Z"/>
    <path class="st4" d="M362.2,166.3c0,0,0,.2,0,.2s0,.1-.1.2-.1.1-.2.1c0,0-.2,0-.3,0s-.2,0-.2,0-.1,0-.2-.1c0,0-.1-.1-.1-.2s0-.2,0-.2,0-.2,0-.3c0,0,0-.2.1-.2,0,0,.1-.1.2-.1s.2,0,.2,0,.2,0,.3,0c0,0,.2,0,.2.1,0,0,.1.1.1.2,0,0,0,.2,0,.3ZM362,167.9v5.2h-.9v-5.2h.9Z"/>
    <path class="st4" d="M363.5,173.1v-5.2h.6c.1,0,.2,0,.2.2v.5c.3-.2.5-.4.7-.6.2-.2.5-.2.8-.2s.6,0,.9.3.4.5.5.8c0-.2.2-.4.3-.5.1-.1.3-.2.4-.3.1,0,.3-.2.5-.2s.3,0,.5,0c.3,0,.5,0,.7.1.2,0,.4.2.5.4s.3.4.3.6c0,.2.1.5.1.8v3.3h-.9v-3.3c0-.4,0-.7-.3-.9-.2-.2-.4-.3-.8-.3s-.3,0-.4,0c-.1,0-.3.1-.4.2-.1.1-.2.2-.2.4,0,.2,0,.3,0,.5v3.3h-.9v-3.3c0-.4,0-.7-.3-.9s-.4-.3-.7-.3-.4,0-.6.2c-.2.1-.4.3-.5.5v3.9h-.9Z"/>
    <path class="st4" d="M374.2,167.8c.4,0,.7,0,1,.2.3.1.6.3.8.5s.4.5.5.8c.1.3.2.7.2,1.1s0,.8-.2,1.1c-.1.3-.3.6-.5.8s-.5.4-.8.5c-.3.1-.6.2-1,.2s-.7,0-1-.2-.6-.3-.8-.5c-.2-.2-.4-.5-.5-.8s-.2-.7-.2-1.1,0-.8.2-1.1.3-.6.5-.8c.2-.2.5-.4.8-.5s.7-.2,1-.2ZM374.2,172.5c.5,0,.9-.2,1.2-.5s.4-.8.4-1.4-.1-1.1-.4-1.5c-.3-.3-.6-.5-1.2-.5s-.5,0-.7.1c-.2,0-.4.2-.5.4s-.2.4-.3.6c0,.2,0,.5,0,.8,0,.6.1,1.1.4,1.4s.6.5,1.2.5Z"/>
    <path class="st4" d="M384.7,172.4c-.1.1-.2.3-.4.4-.2.1-.3.2-.5.2-.2,0-.4.1-.6.1-.2,0-.4,0-.6,0-.4,0-.7,0-1-.2-.3-.1-.6-.3-.8-.5-.2-.2-.4-.5-.5-.9s-.2-.7-.2-1.2,0-.7.2-1c.1-.3.3-.6.5-.8s.5-.4.8-.5.6-.2,1-.2.6,0,.9.2.5.3.7.5.3.4.5.7c.1.3.2.6.2,1s0,.2,0,.3c0,0,0,0-.2,0h-3.5c0,.3,0,.6.1.9,0,.2.2.4.3.6.1.2.3.3.5.4.2,0,.4.1.7.1s.4,0,.6,0c.2,0,.3-.1.4-.2s.2-.1.3-.2c0,0,.1,0,.2,0s.1,0,.2,0l.3.3ZM384,170c0-.2,0-.4,0-.6,0-.2-.1-.3-.3-.5-.1-.1-.3-.2-.4-.3-.2,0-.4-.1-.6-.1-.4,0-.8.1-1,.4s-.4.6-.5,1.1h2.9Z"/>
    <path class="st4" d="M386.9,165.6v7.6h-.9v-7.6h.9Z"/>
  </g>
  <g>
    <path class="st4" d="M392.6,172.4c-.1.1-.2.3-.4.4-.2.1-.3.2-.5.2-.2,0-.4.1-.6.1-.2,0-.4,0-.6,0-.4,0-.7,0-1-.2-.3-.1-.6-.3-.8-.5-.2-.2-.4-.5-.5-.9s-.2-.7-.2-1.2,0-.7.2-1c.1-.3.3-.6.5-.8s.5-.4.8-.5.6-.2,1-.2.6,0,.9.2.5.3.7.5.3.4.5.7c.1.3.2.6.2,1s0,.2,0,.3c0,0,0,0-.2,0h-3.5c0,.3,0,.6.1.9,0,.2.2.4.3.6.1.2.3.3.5.4.2,0,.4.1.7.1s.4,0,.6,0c.2,0,.3-.1.4-.2s.2-.1.3-.2c0,0,.1,0,.2,0s.1,0,.2,0l.3.3ZM391.8,170c0-.2,0-.4,0-.6,0-.2-.1-.3-.3-.5-.1-.1-.3-.2-.4-.3-.2,0-.4-.1-.6-.1-.4,0-.8.1-1,.4s-.4.6-.5,1.1h2.9Z"/>
    <path class="st4" d="M398.1,167.9l-2.1,5.2h-.8l-2.1-5.2h.7c0,0,.1,0,.2,0,0,0,0,0,0,.1l1.3,3.4c0,.1,0,.3.1.4,0,.1,0,.2,0,.4,0-.1,0-.2,0-.4,0-.1,0-.2.1-.4l1.3-3.4c0,0,0-.1.1-.1,0,0,.1,0,.2,0h.7Z"/>
  </g>
  <g>
    <path class="st4" d="M398.7,168.7c.3-.3.6-.5.9-.6.3-.1.7-.2,1.1-.2s.6,0,.8.1.4.2.6.4c.2.2.3.4.3.6,0,.2.1.5.1.8v3.3h-.4c0,0-.2,0-.2,0,0,0,0,0-.1-.2v-.5c-.2.1-.4.2-.5.3-.1,0-.3.2-.4.2-.1,0-.3.1-.5.2s-.3,0-.5,0-.4,0-.6,0-.3-.1-.5-.3c-.1-.1-.2-.3-.3-.4s-.1-.4-.1-.6,0-.4.2-.6.3-.4.6-.5.6-.3,1-.4c.4,0,.9-.1,1.5-.2v-.4c0-.4,0-.7-.3-.9-.2-.2-.4-.3-.8-.3s-.4,0-.6,0c-.2,0-.3.1-.4.2s-.2.1-.3.2c0,0-.2,0-.2,0s-.1,0-.2,0c0,0,0,0-.1-.1l-.2-.3ZM401.7,170.8c-.4,0-.8,0-1.1.1-.3,0-.5.1-.7.2-.2,0-.3.2-.4.3,0,.1-.1.2-.1.4s0,.3,0,.4c0,0,.1.2.2.2s.2.1.3.1.2,0,.3,0,.3,0,.4,0,.3,0,.4-.1c.1,0,.2-.1.3-.2.1,0,.2-.2.3-.3v-1.1Z"/>
    <path class="st4" d="M408.3,165.6v7.6h-.5c-.1,0-.2,0-.2-.2v-.6c-.3.3-.6.5-.8.6-.3.2-.6.2-1,.2s-.6,0-.8-.2c-.2-.1-.5-.3-.6-.5-.2-.2-.3-.5-.4-.8,0-.3-.1-.7-.1-1.1s0-.7.2-1.1c.1-.3.2-.6.4-.9.2-.2.4-.4.7-.6.3-.1.6-.2.9-.2s.6,0,.8.2c.2.1.4.3.6.5v-2.9h.9ZM407.4,169.2c-.2-.2-.4-.4-.6-.5s-.4-.1-.7-.1c-.5,0-.9.2-1.1.5s-.4.8-.4,1.5,0,.6,0,.9c0,.2.1.4.3.6.1.2.3.3.4.3.2,0,.4.1.6.1.3,0,.6,0,.8-.2.2-.1.4-.3.6-.6v-2.5Z"/>
    <path class="st4" d="M411.9,167.8c.4,0,.7,0,1,.2.3.1.6.3.8.5s.4.5.5.8c.1.3.2.7.2,1.1s0,.8-.2,1.1c-.1.3-.3.6-.5.8s-.5.4-.8.5c-.3.1-.6.2-1,.2s-.7,0-1-.2-.6-.3-.8-.5c-.2-.2-.4-.5-.5-.8s-.2-.7-.2-1.1,0-.8.2-1.1.3-.6.5-.8c.2-.2.5-.4.8-.5s.7-.2,1-.2ZM411.9,172.5c.5,0,.9-.2,1.2-.5s.4-.8.4-1.4-.1-1.1-.4-1.5c-.3-.3-.6-.5-1.2-.5s-.5,0-.7.1c-.2,0-.4.2-.5.4s-.2.4-.3.6c0,.2,0,.5,0,.8,0,.6.1,1.1.4,1.4s.6.5,1.2.5Z"/>
  </g>
</svg>