
<svg xmlns="http://www.w3.org/2000/svg" version="1.1" xmlns:xlink="http://www.w3.org/1999/xlink" preserveAspectRatio="none" x="0px" y="0px" width="250px" height="250px" viewBox="0 0 250 250">
<defs>
<g id="Layer1_0_FILL">
<path fill="#EFEED8" stroke="none" d="
M 271.5 38.35
Q 271.5 23.35 256.5 23.35
L 36.5 23.35
Q 21.5 23.35 21.5 38.35
L 21.5 258.35
Q 21.5 273.35 36.5 273.35
L 256.5 273.35
Q 271.5 273.35 271.5 258.35
L 271.5 38.35 Z"/>
</g>

<g id="Layer0_0_FILL">
<path fill="#3B3D35" stroke="none" d="
M 173.8 67
Q 171.45 64.6 166.1 60.7 162.55 58.1 160.55 56.85 157.35 54.75 154.5 53.75 154.05 53.55 147.8 51.8 145.0642578125 51.05703125 143.15 50.05 140.6 48.8 138.6 46.5 136.95 44.65 135.55 42.5 132.25 37.45 128.85 32.5 128.55 32.1 128.2 31.85
L 127.75 31.95
Q 127.55 31.8 127.4 31.7 127.3 31.85 127.2 32.05 127.25 32.35 127.3 32.65 127.4 33.2 127.6 33.7 127.75 34.25 127.95 34.8 130.1 40.55 132.7 46.25 133.8 48.55 134.5 50.6
L 131.8 55.1
Q 127.6078125 62.970703125 125.75 71.95 124.25 79.1 124.4 86.2 124.45 90.55 125.15 94.9 125.8 99 127.65 105.4 127.9 106.45 128.2 107.6
L 121.6 97.7
Q 117.1 90.9 114.3 87.45 109.85 82.1 103.55 77.05 98.5 72.95 91.25 68.4 83.5 63.5 77.45 60.55 69.65 56.9 62.5 55.2 57.95 54.3 55.65 53.65 51.7 52.6 49.2 51 46.75 49.4 43.1 45.2
L 36.55 37.65
Q 35.2 36.2 34.15 36.15 33.95 35.9 33.5 35.85 32.85 35.65 32.85 36.2 37.45 41.95 40.1 48.8 42 53.85 41.9 57.75 41.8 60.3 40.65 64 40 66.05 38.7 70.15 35.35 82.65 41 98.7 42.8 103.85 45.15 108 47.4 111.7 53.15 118.25 58.85 124.75 62.1 127.55 64.6 129.6 70.05 133 78.85 138.7 84.3 141.4 90.4 144.55 94.85 144.8 97.95 145.05 104.05 143.9
L 115.1 141.95
Q 118.05 141.35 119.3 140.95 120.85 140.5 122.1 139.8 122.15 140.05 122.35 140.2 122.45 140.25 122.55 140.4 121.9 140.65 121.5 141.25 121.15 141.95 121.2 142.65 121.25 143.45 121.8 143.95 122.3 144.55 123.05 144.65 122.95 144.85 122.9 145.05 122.75 144.95 122.7 144.9 121 143.9 120 144.2 118.8 144.55 118.7 145.8 118.55 146.65 119.5 148
L 120.45 149.6
Q 120.55 149.7 120.65 149.85 120.5 149.8 120.4 149.85 112.85 149.95 97.8 151.2 89.25 151.95 85.25 152.8 80.3 153.9 74.45 156.1 70.65 157.6 64.05 160.7 57.5 163.85 54.7 166.1 53.3 167.25 50.6 169.95 48 172.6 46.5 173.8 43.3 176.3 39.2 177.5 35.15 178.65 31 178.3 28.65 178.1 24 176.85
L 22.3 176.4
Q 22.1 176.3 21.95 176.15 21.1 175.4 20.45 175.2 19.85 175.05 19.75 175.45 19.75 175.6 19.85 175.75
L 17.75 175.15
Q 19.5 176.3 21.4 177.25 23.05 178.6 23.85 179
L 26.5 180.35
Q 27.05 180.65 28.05 181.25
L 29.05 181.75
Q 33.75 183.65 36.15 184.35
L 38.4 185
Q 38.45 185 38.55 185.05 42.75 192.55 51.1 198.35 58.1 203.2 68.7 207.15 69.65 207.55 70.7 207.9 82.75 212.3 91.95 212.5 96.15 212.55 101.5 211.65 110.1 210.45 118.6 207.25 121 206.35 127.25 203.65
L 142.65 197
Q 147.55 194.85 149.5 193.45 151.55 191.95 154.8 188.25 156.7 186.15 157.65 184.65
L 158.45 183.1 160.1 180.7 185.45 193.25
Q 189.3 195.05 193.15 197 195.7 198.2 198.2 199.4 199.55 199.65 200.3 200.85 202.15 203.7 204.4 206
L 210.85 213.25
Q 211.35 213.75 211.8 214.35 215.25 218.5 218.15 222.95 218.95 223.9 219.2 224.05 219.55 224.35 220.15 224.5 221.6 224.95 222.2 224.4 222.55 224.05 222.65 223.45 222.85 223.1 222.75 222.65 222.7 222.4 222.3 221.9
L 213.65 210.5
Q 211.75 208.1 208.75 204.6
L 205.65 201
Q 205.25 200.45 204.9 200.05 204.45 199.4 204.15 199.05 203.45 197.8 203.3 196.75 203.3 196 203.15 195.6 202.9 194.55 201.1 193.8 200.9 193.7 200.75 193.65 200.35 189.7 200.25 189 200.15 186.1 200.65 183.95 200.95 182.75 200.95 182.35 201 181.4 200.3 181 199.9 180.8 199.3 180.95 198.85 181.15 198.5 181.5 198.4 181.65 198.35 181.8 196.1 174.8 195.4 167.55 196.5 166.1 196.3 164.55 196.1 163.8 196.1 163.45 196.15 162.9 196.7 162.15 197.05 161.45 197.25 160.7 197.4 160.15 197.2 159.8 197.1 159.6 196.65 159.25 196 158.8 195.75 158.85 195.6 158.85 195.2 159 194.85 159.25 194.6 159.3 194.35 159.4 193.6 159.3 192.95 159.25 192.6 159.5 192 159.85 192.3 160.8 192.4 161.05 193.1 162.05 193.65 162.9 193.55 163.4 193.5 163.8 193.25 164.55 193.25 164.85 193.5 165.55
L 193.6 166.6
Q 193.65 167.2 194.1 167.5 194.4 167.75 194.7 167.8 194.65 167.95 194.7 168.2 194.75 175.15 197.2 181.9 196.85 181.55 196.55 181.3 196.6 181.4 196.3 181.35 195.9 182.5 195.95 182.95
L 196.1 183.6
Q 196.65 184.7 196.95 185.05
L 197.5 185.45
Q 197.65 185.65 197.8 185.75 197.65 186.15 197.75 186.85 198.1 189.75 199.3 192.35 199.3 192.7 199.4 193.05 199.35 192.95 199.3 192.95 198.8 192.3 198.15 191.65
L 192.1 171.5
Q 190.9 168 187.95 160.55
L 184.9 152.9 184.9 152.85
Q 185.65 151.15 187.1 149 189.15 146.2 190.15 144.75 191 143.4 191.8 142 195.3 135.4 196.4 127.35 197.65 118.2 195.55 108.55 193.7 100.05 189.3 90.9 185.6 83.5 179.75 74.7 176.35 69.6 173.8 67
M 193.15 160.05
L 194.25 160.25
Q 194.15 160.55 194.55 160.85
L 195.15 161.05
Q 195.4 160.55 195.05 160.25 195.2 159.9 195.75 160.05 196.35 160.4 196.5 160.35 196.45 160.9 195.85 162 195.25 163 195.25 163.6 195.25 163.9 195.4 164.55 195.55 165.15 195.45 165.45 195.4 166.3 194.8 166.75 193.95 165.55 194.25 164.05
L 194.4 163.05
Q 194.45 162.25 193.85 161.6
L 193.25 160.95
Q 192.9 160.5 193.15 160.05
M 182.65 156.55
L 184.3 159.6
Q 186 163.1 186.6 165
L 187.1 166.75
Q 188.2 170.65 188.8 173.25
L 189.9 178
Q 191 182.15 192.35 185.4 192.4 185.6 192.6 185.8 189.25 182.7 185.55 179.9 182.45 177.6 180.9 176.45 178.05 174.4 176.3 172.9 175.95 172.6 175.6 172.35 173.15 170.2 172.35 169.6 171.4 168.95 168.8 167.6 166.45 166.3 165.3 165.4 164.15 164.45 163.55 164.2 162.8 163.85 162.15 163.85 161.95 163.65 161.6 163.2 161.25 162.65 160.95 161.75
L 157.55 152.35
Q 156.55 148.75 156.05 145.25 158 147.15 160.4 148.9
L 162.25 150.2
Q 167.15 153.35 172.55 154.85 174.5 155.5 176.3 155.65 178.95 156 181.5 155.3 181.8 155.2 182.1 155.15 182.35 156 182.65 156.55
M 197.2 182.4
Q 197.25 182.4 197.35 182.4 197.65 183.2 197.95 183.95
L 198.55 184.05
Q 198.65 183.9 198.7 183.65 198.9 182.95 199.45 182.35 199.9 182.55 199.65 183.5 198.95 185.65 199 188.35 198.7 187.25 198.55 186.05 198.55 185.85 198.5 185.7 198.65 185.65 198.75 185.4 198.85 185.1 198.65 184.7 198.6 184.4 198.35 184.4
L 198.15 184.65
Q 197.55 184.8 197.2 184.05 196.95 183.2 196.75 182.85 196.5 182.4 196.6 182.25 196.75 182.3 197.2 182.4
M 184.75 189
Q 184.2 188.7 183.6 188.35
L 160.25 177.15
Q 159.65 176.85 159.15 176.7
L 159 176.25
Q 158.75 175.65 158.75 175.2 158.75 174.9 158.95 174.4 159.1 173.75 159.15 173.6 159.3 172.8 158.8 171.25 158.25 169.3 157.8 168.25
L 159.65 168.05
Q 160.35 168.75 161.45 169.4 162.25 169.85 164 170.55 170.7 173.5 177.4 178.5 181.95 181.95 186.45 186.35
L 193.95 194.3
Q 189.3 191.65 184.75 189
M 113.15 94.55
Q 112.55 94.35 112.55 94.8 113 95.05 113.45 95.3 114.3 95.95 114.85 96.85 116 99.2 116 101.9 115.95 103.3 116.15 103.75 116.35 104.45 117.45 105.25 118.4 106.05 118.8 106.4 119 106.5 119.05 106.55 119.8 107.3 120.35 109.1 120.4 109.35 120.5 109.55 122.15 115.2 122.3 118.25
L 122.3 119.85
Q 122.25 124.15 121.6 128.35 121 131.55 121.6 132.95 121.7 132.75 121.85 132.5 121.85 133.25 122.15 133.8 122.6 134.55 123.3 134.8 123.6 134.95 124.3 135 124.9 135 125.25 135.05 125.2 135.15 125.1 135.3 124.7 135.85 124.6 136.7
L 124.45 138.5
Q 124.35 139 124.7 139.65 124.85 140.05 125.2 140.35 124.75 140.25 124.4 140.2 123.8 139.75 123 139.3
L 123.05 139.25
Q 122.15 138.65 120 139
L 103.3 142.3
Q 100.7 142.85 98.65 143.1 96.85 143.25 95.5 143.2 94.45 143.2 93.4 143.05 90.95 142.6 88.25 141.45 85.85 140.4 81.5 137.95 77.05 135.4 71.3 131.85 63.5 126.95 59.75 123.35 57.3 121.1 53 115.95 48.2 110.2 46.25 106.95 43.25 101.75 41.2 94.2 37.65 81.45 39.9 71.5 40 71.1 41.95 64.3 43.2 59.95 43.25 57 43.25 56.6 43.25 56.3 43.05 50.85 39.15 43.7 38.75 43 38.35 42.4 38.1 41.95 37.85 41.5 37.95 41.65 38.15 41.85 40.3 44.3 43.25 47.55 46.8 51.45 49.2 53 49.25 53 49.3 53.05 52.05 54.75 56.95 55.75
L 65.15 57.4
Q 68.4 58.3 74.3 61.15 85.85 66.65 91.3 70.2 94.65 72.35 101 77.3 107 82 109.2 84.25 111.1 86.15 114.45 90.55 121.15 99.6 126.45 108.1 127.6 109.95 128.6 111.25 129.2 112 129.75 112.6 130.9 116.2 131.9 118.55 131.85 118.65 131.85 118.75
L 131.05 123.85 130.65 125.3
Q 130.35 126.4 130.3 127.5 129.85 127.4 129.4 127.55 128.85 127.7 128.6 128.2 127.35 127.6 126.75 127.4 125.6 126.95 124.85 127.55 124.7 127.65 124.05 128.65 123.7 129.05 123 129.7 122.5 130.25 122.25 130.75 123.1 123.95 123.3 121.5 123.45 118.9 123.3 117.2 123.1 115.35 122.2 111.7 121.95 110.5 121.7 109.6 121.4 108.8 121.2 108.2 120.35 106.4 119.15 105.35 118.75 105.05 118.35 104.8 118.1 104.65 117.9 104.5 117.2 103.9 116.95 103.3 116.7 102.9 116.7 101.15 116.7 99.6 116.05 97.75 116 97.6 115.9 97.4 114.85 95 113.15 94.55
M 127.15 128.75
Q 127.5 128.9 128.1 129.25 128.7 129.5 129.15 129.45 129.2 129.15 129.55 129 129.9 128.8 130.15 129 130.55 129.25 130.55 129.65 130.8 130.8 130.2 131.75 129.95 132.25 129.1 133.15 128.45 134.35 129.55 136.7 130 137.75 130.5 138.4
L 130.45 138.4
Q 129.85 137.85 129.1 136.7 128.3 135.35 127.9 134.95 127.15 134.05 125.95 133.85
L 124.25 133.55
Q 123.3 133.2 123.15 132.4 123 131.9 123.5 131.2 123.7 130.95 124.25 130.5 124.85 130 124.95 129.9 125.1 129.35 125.25 129.05 125.8 128.25 127.15 128.75
M 125.8 136.05
Q 126.05 135.75 126.2 135.55 127 136.15 127.8 137.5 128.1 137.95 128.35 138.3 128.05 138.4 127.8 138.55 127 139 126.6 139.7 126.5 139.8 126.5 139.9 125.65 139.2 125.6 138.8 125.55 138.55 125.7 138.05 125.8 137.5 125.8 137.3 125.6 136.45 125.8 136.05
M 127.3 141
Q 127.55 140.5 127.65 140.35 128.1 139.5 129.25 139.45 129.4 139.45 129.55 139.45 130 139.65 130.4 139.75 130.3 140.25 130.4 140.45 130.65 140.85 131.3 141 131.55 140.9 131.65 140.65 131.95 140.65 132.05 140.55 132.2 140.4 132.05 139.9 131.9 139.55 131.7 139.25 131.75 139.05 132 138.9 132.4 138.7 132.8 138.75 133.55 138.95 134 139.8 134.45 140.65 134.6 141.55 134.35 141.95 134.2 142.65 134 143.65 133.8 144
L 133.3 144.55
Q 133.05 144.6 132.35 144.4 131.7 144.25 131.35 144.5 131.15 144.7 130.9 145.4 130.7 145.9 130.15 146.15 129.75 146.35 129.2 146.3 129.2 146.2 129.05 146.1 128.75 146 128.2 145.85
L 128.1 145.9
Q 127.45 145.85 127.15 146.65 126.95 146.95 126.95 147.9 126.4 147.85 126.15 147.95 125.9 148.05 125.85 148.3 125.4 147.2 124.55 146.35 124.3 146.1 124 145.95 125 144.55 124.3 143.8 124.2 143.65 123.25 143.25 122.5 142.95 122.5 142.45 122.55 141.6 123.65 141.45 124.25 141.5 125.35 141.8 126.35 142.05 126.95 141.6 127.15 141.4 127.3 141
M 122.65 146.55
Q 122.7 146.65 122.75 146.8 123 147.2 123.6 147.45
L 124.95 149 125.25 149.45
Q 125.25 149.65 125.15 150.1 124.95 150.45 125 150.7 124.95 150.85 125.1 151.25 125 151.65 124.35 151.6 123.5 151.4 122.8 150.5 122.1 149.45 121.7 148.9
L 120.75 147.65 120.25 146.6
Q 120 146.05 120.2 145.75 120.45 145.25 121.3 145.6 121.9 145.85 122.65 146.55
M 138.6 141.1
Q 138.8 141 139.2 140.75 139.7 140.45 140.2 140.75 140.45 140.85 140.95 141.4 141.35 141.9 141.7 141.9 142.05 141.85 142.6 141.65 142.95 141.5 143.7 141.6 144.5 141.75 144.85 141.85 145.45 142.25 145.6 142.7 145.85 143.45 145.2 143.75 145 143.85 144.65 143.8
L 144.05 143.75
Q 143.55 143.75 142.7 144.5 141.9 145.1 141.35 144.9 140.75 144.7 140.55 143.5 140.3 142.35 139.65 142.15 139.45 142.1 138.6 142.3 137.9 142.5 137.55 142.1 137.45 141.8 137.85 141.5
L 138.6 141.1
M 134.45 145.2
Q 134.7 144.85 134.9 144.25 135.3 145.15 135.75 146.25 137.35 150.25 138.15 153.65
L 138.55 155.5
Q 138.85 157 139.7 159.9 139.95 160.8 140.25 161.65
L 139.6 160.6 139.15 159.2
Q 138.4 157.8 138.2 157.05
L 137.8 155.8
Q 137.75 155.65 137 154.3 136.5 153.05 136.15 152.45 135.25 151.35 134.9 150.8 134.75 150.6 134.4 149.55
L 133.9 148.55
Q 133.05 146.9 132.05 146
L 132 146
Q 132.05 145.8 132.1 145.65 132.35 145.6 133 145.75 133.55 145.9 133.9 145.8 134.3 145.6 134.45 145.2
M 142.6 146.35
L 142.6 146.4
Q 142.55 146.8 142.05 147.55 141.55 148.25 141.45 148.65 141.35 148.85 141.4 149.3
L 140.95 146.2
Q 141.3 146.25 141.75 146.3 142.2 146.35 142.6 146.35
M 116.8 159.45
Q 117 159.3 117.4 158.4 117.7 157.75 118.2 157.7 118.65 157.6 119 158.2 119.15 158.35 119.25 159.25
L 119.5 161
Q 119.4 161.25 119 161.35 118.55 161.5 118.45 161.7 118.15 162.3 119.05 163.1 119.7 163.7 119.9 164.4 119.7 164.55 119.4 164.7
L 119.45 164.95
Q 119.65 165.05 119.95 165.1 119.85 166.05 119.05 166.25 118.7 166.4 117.95 166.55 117.55 166.9 117.55 167.8
L 117.8 169.15
Q 117.8 169.55 117.4 170.25 116.95 171.15 116.35 171 115.85 170.9 115.7 170.2 115.45 169.3 115.6 168.5 115.8 167.4 115.7 167.1 115.6 166.65 114.85 165.95 114.25 165.25 114.25 164.65 114.3 164.35 114.85 163.65
L 115.8 162.6
Q 116.7 161.7 116.5 161 116.15 160.45 116.25 160.15 116.3 160 116.8 159.45
M 120.35 162.4
Q 120.35 162.35 120.3 162.4 120.15 162.3 120.05 162.25 120.3 161.55 120.4 160.95 120.55 160.9 120.65 160.9 121.75 159.85 121.95 158.1 122.2 157.95 122.95 157.95 123.5 158 123.8 157.75 123.95 157.6 124.1 157.25 124.2 156.8 124.3 156.75 124.5 156.3 125 156.1 125.4 155.9 125.9 156.15 126.35 156.35 126.5 156.85 126.7 157.3 126.45 157.75
L 126.15 158.35
Q 125.75 159.2 126.5 160.1 126.6 160.2 126.65 160.3 125.4 160 124.8 160.35 125.85 161.05 128.3 161.95
L 138.35 165.55
Q 137.45 165.3 136.55 165.1
L 133.85 164.35
Q 132.55 164.3 131.95 164.25
L 124.1 162.45
Q 123.05 162.35 120.35 162.4
M 121.3 164.6
Q 121.3 163.85 121 163.3 121.4 163.3 122.05 163.3 123.8 163.35 126.6 164.1
L 131.25 165.2 132.6 165.25
Q 134.05 165.35 135.55 166 131.6 165.9 131.15 165.85 129.4 165.65 125.9 165.15
L 123.3 164.75
Q 122.15 164.7 121.6 164.65 121.45 164.6 121.3 164.6
M 118 175
Q 118.35 174.85 118.55 174.95 118.9 175.1 119.35 175.7 119.75 176.65 119.9 177.4
L 120.35 177.6
Q 120.45 177.5 120.5 177.35
L 120.6 177.5
Q 121 178.1 121.25 178.15 121.6 177.7 121.7 177.4 121.75 177.25 121.45 176.75 121.35 176.55 121.25 176.45 121.3 176.4 121.45 176.4 127.45 174.75 133.4 172.1 134.05 171.8 134.6 171.55 134.65 171.55 134.85 171.6 133.1 172.75 130.35 174 126.15 176 124.4 177.3 123.85 177.75 123.75 178.05 123.6 178.05 123.5 178 122.7 177.9 122.6 178.35 122.5 178.75 123.05 179
L 123.7 179.35
Q 124.1 179.6 123.95 180.15 123.85 180.7 123.45 180.95 123 181.3 122.45 181.3 121.9 181.3 121.55 180.85 121.45 180.3 121.25 180.1 120.95 179.6 120.1 179.55 118.9 179.4 118.65 179.3 118.5 178.95 118.85 178.45 119.25 178 119.2 177.8 119.4 177.2 118.25 176.55 117.25 175.95 117.6 175.3 117.7 175.05 118 175
M 153.15 158.3
L 153.85 158.65
Q 154.05 158.8 154.8 159.8 155.4 160.45 156.55 161.65 156.95 162.2 157.8 163.3 158.2 163.85 158.65 164.15 157.85 164.1 156.7 164.3 156.5 164.35 156.3 164.4
L 151.1 159.3
Q 148.85 157.15 147.05 156 148.3 156.35 149.95 156.85 149.95 157 150.1 157.3 150.8 158.3 152.9 159.8 153.3 160.15 154.1 161 154.8 161.8 155.45 162.05 155.55 161.8 155.35 161.45 154.15 160 153.25 159.2
L 151.4 157.6
Q 151.15 157.35 150.9 157.1 151.75 157.35 152.7 157.6 152.7 157.95 153.15 158.3
M 145.15 155.4
Q 145.1 155.5 145.05 155.65 147.75 157.15 149.9 159.25 150.7 160 152.15 161.55 153.65 163.15 155.45 164.55 154.6 164.7 153.65 164.75 153.55 164.55 153.25 164.4
L 145.9 157.9
Q 144.55 156.8 143.8 156.65
L 143.8 156.7 143.45 154.6
Q 143.5 154.65 143.6 154.7 144.2 155.15 145.15 155.4
M 144.15 159.6
Q 144.15 159.5 144.1 158.7
L 144 157.7
Q 144.15 157.85 144.3 158.05 147.5 161.45 151.85 165 148.45 165.4 145.1 165.5 145 165 144.7 163.3 144.35 161.5 144.15 161.1 144 160.6 144 160.35
L 144.15 159.6
M 144.7 169.85
Q 145.1 169.85 145.6 169.8
L 146.9 169.65
Q 147 169.8 147.15 170 147.95 171.3 150.4 174.05
L 152.35 176.25
Q 152.75 176.75 153.1 176.7 153.1 176.15 152.5 175.45 150.8 173.6 150.05 172.7 148.55 170.95 147.8 169.7 147.8 169.6 147.75 169.55
L 153.2 168.85
Q 153.35 169.6 153.7 170.55 154.3 172.15 154.85 172.9
L 155.7 174.15
Q 156.2 175.2 156.5 175.35
L 156.7 175.2
Q 156.4 174.25 156.15 173.75 156.05 173.4 155.35 172.55 154.95 171.9 154.25 169.9
L 153.85 168.8 156.8 168.4
Q 156.8 168.45 156.8 168.5
L 157.5 171.2
Q 157.95 172.95 157.75 173.95
L 157.5 174.9
Q 157.4 175.5 157.4 175.95 157.45 176.2 157.5 176.5
L 158 177.9
Q 157.75 177.85 157.4 177.85 156.15 177.9 155.55 177.9
L 153.05 177.75
Q 151.95 177.65 149.25 177.75
L 147.55 177.9
Q 147.45 177.9 147.45 177.95 146.3 174.4 145.05 170.5 144.8 170.05 144.7 169.85
M 139.25 152.45
Q 139.6 152.5 139.7 152.65
L 139.8 152.8 140.1 152.95 140.2 152.95 140.25 156.65
Q 140 155.65 139.85 154.9
L 139.25 152.45
M 132.15 152.2
Q 132.35 152.55 132.7 153.05 132.1 152.7 131.8 152.5 131.05 152.1 130.1 151.75
L 132.15 152.2
M 135.05 155.8
Q 135.1 155.8 135.1 155.9 135.75 156.75 136.4 158.25
L 136.85 159.25
Q 137.9 161.2 138.05 161.45
L 138.95 162.8
Q 139.15 163.3 139.45 164.15 139.55 164.35 139.6 164.55 139.4 164.4 139.2 164.35 138.15 163.95 137 163.6 136.85 163.2 136.45 162.75
L 127.3 151.5
Q 128.1 151.85 129.1 152.35 131.3 153.45 133.6 155.05 134.3 155.55 134.65 155.7 134.85 155.75 135.05 155.8
M 141.05 164.5
Q 141.15 164.45 141.15 164.25 141.5 165.1 141.65 165.5 141.45 165.4 141.35 165.3 141.2 164.9 141.15 164.75 141.1 164.65 141.05 164.5
M 136.65 166.1
Q 136.25 166.05 136 166 135.95 166 135.85 166.05 136.05 165.9 136.4 166 136.5 166.05 136.65 166.1
M 127.35 187.75
Q 127.6 187.6 127.7 187.55 127.9 187.45 128.05 187.35
L 128 187.4
Q 128 188.45 128.5 189.3 128.35 189.5 128 189.3 127.5 189.05 127.05 189.3 126.95 189.35 127 189.55 127.2 189.7 127.2 189.85
L 127.25 189.9
Q 127 190 126.75 190.25 126.7 190.35 126.05 191.15 125.7 191.6 124.9 192.3
L 123.8 193.3
Q 122.95 194.1 122.4 194.15 122.3 193.25 123.25 191.2
L 124.3 189.2
Q 124.45 188.95 124.55 188.75 124.75 188.85 124.9 188.95
L 125.3 189.1
Q 125.45 189.15 125.9 189.05
L 126.65 188.8
Q 127.25 188.45 127.35 187.75
M 155.55 178.8
L 155.55 178.7 158.3 178.65 158.7 180 157.05 182.6
Q 155 185.5 153.15 187.65 153.1 187.2 152.65 186.6 152.05 185.9 151.75 185.5 151.35 184.75 151.05 184.5 150.5 184.1 150.3 183.9
L 149.7 183.2
Q 149.3 182.6 148.6 182.15 148.6 181.8 148.5 181.4 148.05 180 147.65 178.5 148.3 178.7 149.35 178.6 150 178.6 151.3 178.45 152.4 178.4 154.5 178.65
L 154.95 178.65
Q 154.05 179.8 153.7 181.05
L 152.85 183.55
Q 152.55 184.2 152.55 184.65 152.8 184.7 152.95 184.2 153.4 183.65 153.65 183.35 153.85 182.95 154 182.4 154.1 181.75 154.2 181.4
L 154.95 179.8
Q 155.35 178.95 155.55 178.8
M 144.75 173.95
Q 144.85 173.95 144.95 173.95
L 147.55 181.95 147.4 181.9 147.1 180.6 146.7 179.85 144.75 173.95
M 147.7 184.7
Q 148.3 184 148.3 183.55
L 149.5 185 149.85 185.3 150.2 185.75
Q 150.85 186.75 151.65 187.45
L 151.7 187.65
Q 151.75 187.8 151.6 187.9 151.25 188.4 151.05 188.45 150.7 188.55 150.25 188.15
L 149.7 187.6
Q 149.35 187.25 148.55 187.3 148.4 187.3 147.4 187.5 147.4 187.45 147.2 187 147.2 186.75 147.3 186.4 147.45 186.1 147.5 185.9 147.55 185.1 147.7 184.7
M 162 165.3
Q 162.2 165.2 162.35 164.9 164.05 166.2 166.75 167.9 171 170.55 172.2 171.4 173.8 172.55 176.35 174.85 177.1 175.45 177.85 176.15 179.25 177.25 182.15 179.25 185 181.25 186.4 182.35 188.35 183.9 190.75 186.25 192.15 187.6 194.9 190.4 196.25 191.75 197.4 192.85 197.65 193 197.9 193.15 198.75 193.95 199.55 194.5
L 199.6 194.55
Q 199.65 194.7 199.75 194.85 200.15 195.4 200.6 195.05 200.75 195 200.8 194.85 201.7 195.4 201.85 195.8 201.95 195.9 202.05 197.05 202.05 198.3 203 199.6 203.35 200.35 204.7 201.85
L 205.35 202.75 220.2 221.6
Q 220.85 222.4 221.4 222.95
L 221.3 223.05
Q 220.95 223.4 220.3 223 220.15 222.95 219.6 222.25 216.4 217.4 212.45 212.75
L 205.9 205.3 202.3 201.15
Q 201.95 200.8 201.7 200.45 200.75 199.45 199.6 198.7 198.6 197.95 197.95 197 197.3 196 196.65 195.1 194.35 192.4 192 189.8
L 188.3 185.85
Q 184.8 182.4 178 177.15 177.35 176.7 176.75 176.25 174.7 174.65 173 173.6 170.8 172.25 168.05 170.95
L 161.2 167.6
Q 161.3 167.25 160.95 166.9 160.45 166.55 159.5 166.7 152.95 167.4 145.55 168.5 145.1 168.6 144.7 168.7
L 144.65 168.65
Q 144.55 168.5 144.3 168.6
L 140.75 169.05
Q 140.8 168.65 140.7 168.3 140.45 168.2 140.15 168.5
L 139.95 168.95 138.95 170.85
Q 138.8 171.2 137.85 172.75
L 135.95 175.35 136.95 173.65
Q 137.4 172.5 137.55 172
L 138 170.6
Q 138.4 169.75 138.6 169.35 138.95 168.6 138.95 168.1 139 168.05 139.05 168.05 139.3 168 139.4 167.8 139.5 167.6 139.4 167.5 139.5 167.2 139.45 166.85
L 139.95 166.85
Q 140.75 167.05 141.65 167.1 141.65 166.85 141.5 166.65 141.95 166.8 142.3 166.75 142.4 166.75 142.45 166.75
L 142.5 166.7
Q 142.95 166.65 143 166.2 143 166.05 143 165.7 142.95 165.65 142.95 165.6 143.05 165.35 142.85 164.95 142 161.85 141.55 158.1
L 141.55 155.95 141.35 154.55 141.4 152.85
Q 141.45 152.7 141.45 152.6 141.45 152.5 141.4 152.4
L 141.5 150.35 142.1 154.2
Q 142.65 157.15 142.75 158.6
L 142.85 160.75 143.2 162.7
Q 143.4 163.85 143.8 165.45 143.8 165.6 143.9 165.8
L 143.85 165.75
Q 143.4 166.05 143.45 166.4 143.75 166.6 144.5 166.7 144.65 166.8 144.8 166.8 144.85 166.8 144.9 166.75 145.5 166.8 146.35 166.75 152.55 166.35 157.2 165.65 157.45 165.8 157.6 165.95 157.55 165.8 157.5 165.6 157.7 165.6 158.05 165.55 159.55 165.3 160.05 164.65 159.95 164.55 159.9 164.55 160 164.5 160 164.4 160.05 164.2 159.85 163.85
L 158.6 162 158.55 161.95
Q 158.45 160.85 158 159.6
L 157.2 156.75 156.5 155.45
Q 156.45 155.25 156.2 154 155.9 152.55 155.7 151.8 155.4 150.55 155.65 149.7 156.35 153.45 158.85 159.95 159.8 162.65 160.65 164.1 161.3 165.1 162 165.3
M 185 191.2
Q 184.9 191.2 184.8 191.15
L 160.2 179.3 160.1 178.5 185 191.2
M 39.4 183.95
Q 39.15 183.7 38.55 183.55 34.35 182.45 28.15 179.65 27.8 179.5 27.45 179.35 29.85 179.85 32.25 179.95 38.4 180.2 43.5 177.7 45.2 176.8 46.9 175.6 48.5 174.4 50.75 172.15 53.6 169.35 54.45 168.55 57.9 165.55 62.95 162.95 66 161.4 72.4 158.8 79.75 155.8 83.3 154.9 87 154.05 92.5 153.45 93.2 153.4 93.9 153.35 108.1 151.85 121.6 151.3 122.9 152.75 124 153.1 124.7 153.3 125.15 153.15 125.95 152.95 126.3 151.9 126.35 151.7 126.4 151.55 129.95 156.65 133.75 161.1 134.8 162.35 135.7 163.15 132.2 161.95 128.65 160.9
L 128.65 160.85
Q 128.7 160.2 128.3 159.7 127.9 159.2 127.3 159.05 128.2 157.75 127.75 156.3 127.15 154.8 125.65 154.6 125 154.5 124.3 154.85 123.7 155.15 123.4 155.85 123.1 156.45 123 156.55 122.7 156.75 122.15 156.75 121.6 156.8 121.4 156.95 121.1 157.15 121 158.05 120.85 158.85 120.55 159.45 120.55 158.7 120.3 158.25 119.95 157.25 118.9 156.8 117.85 156.3 117.05 156.85 116.75 157.1 116.1 157.95 115.2 159.55 115.15 160.3 115.05 160.65 114.85 161.5 114.75 161.75 114.2 162.6 113.65 163.2 113.4 163.9 113.3 163.75 113.1 163.6 112.8 163.3 111.6 162.85 110.8 162.55 109.4 161.85 107.85 161.15 107.15 160.9 105.1 160.05 102.35 159.6 100.95 159.3 97.4 158.9
L 95.65 158.8
Q 94.7 158.8 92.3 159.25
L 90.25 159.7 89.25 159.9
Q 88.15 160.25 86.75 160.75 85.9 161.05 85.6 161.6 85.6 161.7 85.55 161.8 87.05 161.25 89 160.85
L 89.3 160.8 91.3 160.25 92.7 159.95
Q 93.85 159.75 95.3 159.8 96.5 159.85 97.75 160
L 99.9 160.3
Q 104.3 160.8 106.4 161.65
L 111 163.7
Q 112.05 164.15 112.1 164.25 112.3 164.4 112.85 164.8 113 164.9 113.1 165 113.1 165.7 113.4 166.2 113.45 166.3 113.8 166.8 114.1 167.1 114.2 167.4 114.3 167.65 114.15 168.95 113.95 170.65 114.9 171.65 115.35 172.25 116.1 172.45 116.85 172.65 117.5 172.25 118.05 171.95 118.7 170.8 119.35 169.25 119.2 167.95 119.3 167.95 119.4 167.85 119.95 168.05 120.6 168.2
L 122.8 168.6
Q 124.1 168.85 125.3 169 126.55 169.15 128.75 169.25
L 132.85 169.2
Q 134.5 169.1 135.3 168.95
L 135.35 168.95
Q 134.8 169.4 134.5 169.75
L 134 170.3 133.15 170.8
Q 133 170.9 132.9 171 128.7 173.1 124.3 174.3 123.7 174.5 122.6 174.8 121.55 175.2 120.95 175.55 120.9 175.6 120.85 175.65 120.85 175.6 120.8 175.5 120.45 175 120.05 174.8 119.9 174.65 119.8 174.5 119.15 173.85 118.2 173.95 117.2 174.15 116.8 174.85 116.35 175.65 116.65 176.55 117 177.5 117.8 177.75 117.4 178.55 117.35 179 117.35 179.15 117.3 179.35 110.05 180.8 107.6 181.15 102.45 181.85 92 182.25
L 83 182.6
Q 62.4 183.4 51.65 183.35 48.5 183.35 47.25 183.4 44.8 183.55 42.95 184.05 54.9 184.55 78.15 183.8
L 90.05 183.4
Q 97.4 183.05 98.05 183.05 108.75 182.5 115.75 180.6 116.95 180.3 117.4 179.8 117.45 180.05 117.65 180.2 117.9 180.5 118.65 180.6 119.45 180.8 119.65 180.95 119.8 181.05 120.4 181.65 121.05 182.55 122.2 182.8 123.35 183.1 124.15 182.45 124.8 181.95 125.25 180.8 125.65 179.6 125.15 178.85 125.1 178.65 124.95 178.5 126.9 176.95 130.65 175.1 134.6 173.15 136.6 171.85 136.35 172.45 135.85 173.35
L 134.85 175.1
Q 134.65 175.65 134.25 176.05 133.6 176.7 133.5 177
L 133.25 177.65 132.15 179.55 128.9 183.75
Q 128.35 184.45 127.9 185.5 127.75 185.75 127.8 185.95 127.85 186.2 128.05 186.2 127.05 186.9 125.7 186.65 125.35 186.55 125.25 186.4
L 124.95 185.9
Q 124.7 185.45 124.4 185.25 124.1 185.1 123.9 185.15 123.75 185.15 123.65 185.3 123.55 185.2 123.5 185.25 123.2 185.25 123.15 185.55 123.05 185.95 123.1 186.15 123.1 186.85 123.35 187.35 123.6 187.9 124 188.3
L 123.2 189.1 122.3 190.4 121.95 191.1 120.95 194.25
Q 120.75 194.85 120.85 195.1 120.85 195.15 120.9 195.15
L 120.4 195.65
Q 119.35 196.7 117.65 198.1
L 116.35 199.2
Q 115.9 199.45 114.95 199.8 114.45 200.05 113.4 200.65 112.5 201.1 111.8 201.25 111.4 201.35 110.1 201.35
L 106.15 201.2
Q 103.9 201 103.4 201.15 103.3 201.35 103.5 201.55 103.6 201.65 103.85 201.75
L 105.1 201.95
Q 106.7 202.3 109.9 202.35 111.2 202.3 111.6 202.2
L 112.7 201.95
Q 113.2 201.9 113.45 201.75 113.95 201.45 114.2 201.35
L 114.75 201.15
Q 114.85 201.15 115.2 200.8 116.15 200.45 116.5 200.25 116.9 200.15 117.3 199.7 118 199.05 118.05 199 118.85 198.45 119.2 198.2
L 120.1 197.35 121.5 195.65
Q 121.6 195.55 121.6 195.5
L 121.65 195.5
Q 122.4 195.65 122.6 195.8
L 125.4 193.7
Q 125.95 193.2 126.3 192.65 126.85 192.05 127.7 190.7 127.9 190.5 127.95 190.35
L 128.3 190.45
Q 128.4 190.45 129.05 190.3
L 129.45 190.1 129.6 189.75
Q 129.7 189.35 129.65 189.2 129.55 189 129.35 188.8 129.1 188.5 129.05 188.45 128.85 188.1 128.85 187.9
L 128.75 187.25
Q 128.65 187.05 128.5 187 129.05 186.5 129.35 185.9
L 132.4 182.45
Q 134.75 179.5 135.35 178.7
L 137.2 176.05
Q 138.1 174.25 138.65 173.45 139.4 172.45 139.65 171.9
L 140.05 170.65
Q 140.2 170.35 140.3 170.2 141.15 170.35 142.6 170.25 142.7 170.3 142.75 170.25 142.8 170.3 142.8 170.4 142.9 170.55 143.35 171.75 143.35 173 143.9 174.35
L 144.65 176.7
Q 144.9 178.15 145.55 180.15 145.65 180.55 145.8 180.7
L 146.05 181 146.15 181.45
Q 146.2 182.05 146.45 182.4
L 146.8 183.3
Q 146.85 183.55 146.7 184.05 145.75 185 143.8 187.15 141.75 189.3 140.25 190.2 139.75 190.5 138.65 191.05
L 137.4 192.15 135.4 193.4
Q 134.6 194 133.05 195.2 132.45 195.6 131.05 196.45
L 126.6 199.05
Q 125.85 199.5 125.45 199.55 124.7 199.6 124.3 199.6 123.7 199.7 123.5 200.1 124.85 200.85 126.3 200.2 127 199.95 127.55 199.45
L 128.95 198.65 141.5 190.1
Q 143.15 188.9 143.8 188.2 144.3 187.75 145.45 186.4 145.9 185.9 146.2 185.5 145.85 186.5 145.85 186.9 145.75 188 146.35 188.45 146.8 188.95 148 189.05 148.1 188.9 148.35 188.8 148.65 188.65 148.85 188.75 148.95 188.8 149.5 189.3 150.1 189.95 150.95 189.95 147.75 193 144.25 194.7 141.4 196.2 135.3 198.1 133.25 198.95 129.95 200.7 125.95 202.7 124.6 203.35 118.3 206.25 109.45 208.35 95.4 211.65 85.1 210.15 80 209.5 73.95 207.35 71.95 206.65 69.2 205.55 66.55 204.5 63.15 203 54.1 199.2 49.9 195.85 46.8 193.35 42.55 188.15 42.3 187.9 42.15 187.65 41.9 187.4 41.65 187.1 40.7 185.95 40.25 185.55 39.85 185.2 39.5 184.9 39.6 184.85 39.6 184.8 39.85 184.3 39.4 183.95
M 127.7 148.45
Q 127.75 147.7 128.25 147.1
L 129.15 147.5 129.25 147.45
Q 129.9 147.7 130.65 147.4 131.3 147.1 131.75 146.4 131.95 146.9 132.2 147.2
L 132.65 147.75
Q 132.85 148.1 133.1 148.65
L 133.55 149.7
Q 133.95 150.3 135.05 152.1 136.05 153.7 136.45 154.7 137 155.75 137.8 158 138.5 159.5 138.55 159.8
L 138.55 159.85
Q 138.1923828125 159.324609375 138.05 158.85
L 137.5 157.65
Q 136.95 156.45 136.4 155.6 136 155.05 134.8 153.5
L 133.6 152.15
Q 133.75 152 133.8 151.85 133.5 151.65 133 151.45
L 130.95 149.15 129.8 148.3
Q 129 147.7 128.35 147.6 127.95 147.6 127.95 147.8 128.35 148 128.9 148.6 130.25 149.95 131.05 150.9
L 128.15 150.1
Q 127.2 149.85 126.7 149.95 126.55 150.05 126.4 150.15
L 126.45 150.1
Q 126.25 149.35 125.95 148.6
L 127 148.95 127.35 149
Q 127.55 148.85 127.7 148.45
M 120.65 166.95
Q 121.15 166.35 121.25 165.4 122.15 165.6 123.3 165.75
L 129.3 166.6
Q 130.85 166.85 132.2 166.9
L 134.85 166.85
Q 135.4 166.9 136.5 166.95
L 137.45 166.95 134.15 167.55
Q 133.15 167.7 131.25 167.65 127.65 167.75 122.65 167.2 121.65 167.1 120.65 166.95
M 139.85 162.1
L 140.3 163.15
Q 140.4 163.4 140.7 163.8 140.9 164.1 141 164.35 140.85 164.25 140.8 164.15 140.4 163.8 140.25 163.15
L 139.85 162.1
M 138.8 167
Q 138.668359375 166.9341796875 138.5 166.9
L 138.85 166.9
Q 138.8 166.9 138.8 167
M 166.5 63.15
Q 171.45 66.95 173.1 68.65 175.95 71.55 179.55 77.15 184.95 85.65 188.25 92.6 192.35 101.3 194.05 109.3 196 118.4 194.9 127.05 194.1 132.85 192.05 137.8 190.75 140.85 188.95 143.55 187.9 145.1 185.7 148.15 184.55 149.9 183.85 151.35
L 183.8 151.35 183.85 151.4
Q 183.4 152.25 183.15 153.05 182.8 154.3 183.45 154.45 184 154.6 184.4 154 184.95 156.3 185.95 159.1 186.9 161.6 189 166.6 191.2 172.4 194.5 183.85
L 196.05 189.25
Q 194.85390625 188.05390625 193.75 186.95 193.85 187 193.95 186.95 194.05 186.5 193.75 185.65 191.55 179.25 190.7 175.45 190.6 175.05 189.95 171.85 189.4 169.45 188.55 166.6
L 187.95 164.5
Q 187.35 162.7 186 159.8 185.15 157.9 184.3 157.05 183.2 155.8 183.05 155.55 182.95 154.75 182.75 154.45
L 182.8 154.4
Q 183 154.8 183.2 155.25
L 182.8 154.2
Q 182.8 154 182.7 153.9 182.65 153.85 182.65 153.75
L 180.85 149.4
Q 180.95 148.4 181 146.6 181.2 144.5 181.45 143.15 181.7 141.95 182.4 140.15 183.3 137.5 183.4 137.1 183.85 135.65 184.55 132.55 186.45 124.45 187.2 120.35 187.6 118 187.8 115.95 188.25 110.9 187.3 107.35 187.05 106.35 186.1 103.75 185.9 103.15 185.6 102.8 185.05 102.3 184.55 102.75 185.5 103.85 186.25 106.7
L 187 110.2
Q 187.2 111.85 187.05 114.4 187 116.1 186.75 118.25 185.95 123.15 183.7 132.85
L 182.9 136
Q 182.75 136.55 181.55 139.95 180.7 142.35 180.5 143.95 180.25 145.7 180.3 147.9
L 154.95 84.3
Q 154.1931640625 82.399609375 153.5 80.65 153.544921875 80.7265625 153.6 80.8 153.9 80.35 154 79.25
L 154.2 77.3
Q 154.45 75.25 154.65 74.8 155.15 73.55 155.2 72.9
L 155.3 71.55
Q 155.5 70.85 155.55 70.45 155.45 69.85 155.45 69.55 155.7 68.85 155.75 68.5 155.75 68.05 155.35 66.95
L 155.05 65.1
Q 155.05 64.95 155 64.8 154.95 64.15 154.6 63 154.3 61.85 154.05 61.4
L 152.8 59.35
Q 151.8 57.75 150.5 57.8 150.2 57.85 150.15 58 150.05 58.15 150.25 58.35 150.35 58.4 150.7 58.5 151.55 58.8 152.3 60 153.1 61.4 153.5 61.85
L 153.85 63.2 154.8 67.3
Q 154.95 68.05 154.9 68.45 154.85 68.95 154.65 69.7
L 154.7 70.4
Q 154.7 70.6 154.45 71.45 154.45 71.55 154.45 72.75 154.4 73.1 154 74.7 153.3 77 153.25 79.7 153.275390625 80.056640625 153.35 80.3 149.7115234375 71.218359375 147.6 66.25 145.040234375 60.266015625 142.6 55.1
L 140.15 50.1 142.8 51.8 143.15 51.95
Q 144.52890625 52.512890625 146.3 53 148 53.5 151.55 54.45 155.2 55.6 159.3 58.2 161.75 59.7 166.5 63.15
M 181.2 153.7
Q 177.75 154.5 172.3 153.15 169.65 152.45 168.4 151.85 167.7 151.6 166.1 150.75 161.15 147.9 159 146.2
L 156.45 144.05
Q 156 143.9 155.8 143.9 155.65 142.45 155.55 141.05 155.45 140.25 155.35 140.1 155.05 139.5 154.5 139.55 154.05 139.6 153.8 140.15 153.7 140.45 153.75 141.1
L 153.85 142.85 153.85 143.3 154.1 148.25
Q 154.3 149.5 154.3 149.6 154.4 150.45 154.5 152.05 154.75 152.85 155.25 154.35 155.4 154.85 155.55 155.95
L 156.15 156.95
Q 156.35 157.4 156.6 158.2 156.85 159.25 157.3 160.45 157.15 160.2 156.9 159.9 156.3 159.35 156.05 158.9 155.5 157.95 155.1 157.65 154.45 157.2 154.05 157
L 153.3 156.3
Q 152.95 156.1 152.25 155.9
L 146.6 154.55
Q 144.85 154.1 143.9 154.05 143.5 154.05 143.4 154.25
L 142.4 148.9
Q 142.4 148.65 142.75 148.05 143.25 147.1 143.35 146.05 143.5 145.9 143.75 145.65 144.1 145.35 144.35 145.4 144.65 145.3 145.3 145.45 146.25 145.4 146.7 144 147.2 142.55 146.75 141.65 146.3 140.6 144.35 140.2 143.35 140.1 142.9 140 142.05 139.9 141.5 139.7
L 140.1 139.05
Q 139.25 138.7 138.65 139.1
L 138.15 139.5
Q 137.45 140.25 136.75 141.35 136.25 142.35 136.6 142.95 136.85 143.2 137.6 143.4 137.9 143.45 138.6 143.65 139.1 143.65 139.35 144 139.45 144.2 139.4 144.7 139.5 145.35 140.05 145.75 140 146.1 139.95 146.6
L 140.1 151.25
Q 139.5 150.9 139.2 150.8
L 139.2 150.9
Q 139 150.85 138.8 150.9 138.15 148.8 136.9 145.65
L 135.65 142.75
Q 135.55 142.5 135.4 142.35 135.45 142.1 135.4 141.85 135.5 141.6 135.55 141.15 135.55 140.2 135.5 139.9 135.3 139.35 134.55 138.55
L 133.85 137.9
Q 133.15 137.45 132.1 137.5 131.55 137.55 131.25 137.8 131 137.15 130.5 136.2 129.65 134.6 130.1 133.65 130.2 133.45 131.05 132.55 132.2 131.05 131.7 129.25 131.5 128.35 131 127.9 131.6 126.6 132.15 124
L 132.55 121.7
Q 132.65 121.05 132.7 120.55 135.8 127.45 140.95 133.3 142.2 134.65 143.45 135.95 147.7 140 152.75 143 153.1 143.25 153.45 143.45 153.7 143.35 153.8 143.2 153.85 143.05 153.8 142.8 153.75 142.7 153.7 142.55 153.4 141.8 152.85 141.5 147.25 137.6 142.85 132.75 142.2 132.05 141.65 131.35 139.85 129.3 138.35 127.15 137.65 126.25 137.05 125.2 135.05 122.05 133.55 118.7 132 115.1 129.8 107.6 127.75 100.55 127 96.9 124.65 84.95 127 72.7 128.825 63.29140625 133.05 55.1
L 135.2 51.35 135.75 49.95 129.35 35.2
Q 132.35 39.9 135.45 44.6 136.35 46 137.5 47.25 138.8 48.55 139.55 50.15 140.65 52.6 141.75 55.1 148.9470703125 70.66875 158.5 95.85 171.2 129.15 176.3 141 179.8 148.75 182.25 153.55 181.9 153.45 181.2 153.7
M 173.2 149.7
L 175.5 150.35
Q 178.35 151.2 179.8 150.35 179.35 150.05 178.15 149.85 171.45 148.85 165.45 145.3 164.65 144.85 161.55 142.75 159.65 141.55 158.55 140.45 156.45 138.55 154.8 135.05 154.7 134.8 154.6 134.55 154.75 134.55 154.95 134.5 154.6 134.25 154.2 134.1 153.85 133.85 153.45 133.7 153.25 133.6 153 133.55 151.55 133.15 150.85 132.95 148.15 132.2 146 130.45 143.85 128.7 142.55 126.35 141.95 125.25 141.4 125.15 143.4 130.35 148.25 132.75 149.4 133.3 151.8 134.15 152.95 134.5 153.8 134.6
L 155.4 137.95
Q 156.3 139.65 156.7 140.2 157.35 140.95 158.7 141.9 162.1 144.25 164.9 146 168 147.85 169.95 148.65 171 149.1 173.2 149.7
M 172.85 142.75
Q 175.45 144.55 177 143.95 173.95 142.25 166.85 137.45
L 154.8 128.95
Q 151.7 126.75 150.6 125.85 146.2 122.25 143.15 117.3 140.1 112.3 138.85 106.8 138.45 106.9 138.6 107.55 139.65 113.35 142.95 118.65 146.2 123.75 150.95 127.55
L 172.85 142.75
M 166.45 118.8
Q 165.5 118.3 163.55 117.6 161.5 116.9 160.65 116.45 158.9 115.65 156.45 113.7
L 149.1 108.15
Q 146.6 106.25 145.45 105.15 144.1 104 142.8 102.45 141.55 101.05 140.45 99.55 135.05 91.6 134.45 82.15 133.95 82.2 133.95 83.25 134.3 91.5 139.4 99.65 141.05 102.05 142.3 103.5 144.75 106.3 150.5 110.6
L 155.8 114.65
Q 157.15 115.75 158.45 116.55 160.9 118 164.45 118.85 165.75 119.2 166.45 118.8
M 132.15 67.35
Q 132.1 67.5 132.05 67.65 132.05 68.05 132.1 68.5 132.2 69.45 132.7 70.85 133.3 72.3 133.9 73.6 134.35 74.45 134.85 75.3 135.3 76.05 135.75 76.75 137.35 79.05 139.8 81.45 140.95 82.55 141.6 83.05 143.7 84.8 148.9 87.2
L 154.2 89.5
Q 154.8 89.8 154.9 89.35 153.35 88.05 150.5 86.8 146.15 84.95 145.8 84.75 141 82.15 136.5 76.25 136.4 76.1 136.3 76.05 136 75.65 135.7 75.1 135.5 74.8 135.35 74.55 134.55 73.3 133.75 71.15 132.65 68.6 132.6 67.2 132.45 66.95 132.2 67.2 132.2 67.25 132.15 67.35
M 135.35 61.1
Q 135.25 60.9 135.15 60.8 134.4 59.35 134.3 58.4 134.1 57.2 134 57.05 133.8 56.25 133.25 56.1 133.5 58.95 134.7 61.55 135.05 62.35 135.55 63.2 137.6 66.45 140.75 68.45 143.5 70.25 145.5 69.5 140.3 68.25 137.2 64.1 136.6 63.35 135.35 61.1
M 170.95 82.6
Q 170.8 82.6 170.65 82.7 170.55 82.9 170.6 83.05 170.7 83.2 171.15 83.2 172.75 83.2 174.35 85.75 175.7 87.7 176.25 89.05 176.4 89.65 176.9 91.6 177.65 95.05 177.95 97.75 178.35 100.65 178.2 105.8 178.15 107 178.1 108.4 177.9 114.8 177.1 118.3 176.7 120.35 175.7 124.3 175.25 126.75 175.35 129.65
L 176.6 124.35
Q 178.1 117.95 178.6 114.05 178.85 112.05 179 108.3 179.05 107.8 179.05 107.3
L 179.05 101.95
Q 178.9 96.4 178 92.5 176.8 87.3 173.95 83.9 172.35 81.95 170.95 82.6
M 163.5 69.45
Q 164.15 70.55 165.6 72.85 166.7 74.9 167.15 77.6 167.2 78.5 167.3 79.55 167.5 82.05 167.1 86.65 166.95 89.6 166.65 91.1 166.65 91.15 165.8 94.75
L 163.4 103.9
Q 163.1 105.1 163.65 105.45 165.4 99.85 166.85 94.1
L 167.5 91.2
Q 167.8 89.55 167.95 86.3
L 168.2 82.2
Q 168.25 81.7 168.25 81.25 168.25 80.3 168.3 79.7 168.2 78.4 167.65 75.85 167.25 74.25 166.85 73.4 166.5 72.6 165.65 71.45 164.65 70.1 164.35 69.6 163.65 68.05 163.1 67.4 161.7 65.3 159.1 65.15 159.5 65.8 160.5 66.3 161.75 67.05 162.15 67.35 162.5 67.7 163.5 69.45
M 128 178.4
Q 129.2 178.35 131.5 178 132.6 177.95 133 177.65 132 177.3 131.25 177.3 130.65 177.25 129.75 177.4
L 127.45 177.7
Q 126.8 177.75 126.75 178.15 127.05 178.35 128 178.4
M 137.45 177.5
Q 137.6 177.75 138.35 177.6 139 177.45 139.65 177.6 139.4 177.85 139.15 178.2 137.45 180.5 135.55 182.3 134.75 183 133.25 184.5 132 185.8 131.5 187.05
L 135.85 182.9
Q 137.8 181.2 138.75 180 139.9 178.65 140.35 177.65 140.9 177.7 141.25 177.6 141.6 177.6 142.15 177.45
L 142.55 177.55
Q 142.9 177.5 142.95 177.3 142.5 177 141.05 176.8 139.95 176.7 139.1 176.8 138.2 176.9 137.55 177.25
L 137.45 177.5
M 99.95 197.2
L 98.9 197.1
Q 98.1 197.15 97.2 197.75 97.1 197.8 95.7 198.9 93.35 200.8 89.05 202.25 85.75 203.3 83.85 203.05 82.5 202.95 81.35 202.15 80.25 201.3 79.8 200.1 79.25 200.9 79.8 201.9 80.25 202.5 81.2 203 84.35 204.55 89.15 203.15 93 202.05 96.5 199.45 97.75 198.55 98.3 198.35 99.5 197.85 100.35 198.55
L 106.4 194.6
Q 107.15 193.7 108.35 192.75 109.8 191.7 110.55 191.1 115.4 187.2 117.45 181.45 116.35 182.3 115.4 183.65 114.6 184.8 113.3 187.1 112.5 188.15 110 190.25 104.45 194.75 101.5 196.6 100.5 197.2 99.95 197.2
M 68.5 197.45
Q 69.3 197.2 70.1 197.05 71.45 196.85 74.15 196.8 76.6 196.5 79.25 194.95 80.95 193.95 83.75 191.7 85 190.7 85.65 190.25
L 87.8 188.85
Q 88.9 188.2 90.8 186.5 92.05 185.45 93.05 184.4 93.35 184.15 93.25 183.9 92.8 183.55 92.25 184.3 91.8 184.75 90.9 185.45
L 83.35 191.2
Q 80.65 193.15 79.3 194 76.95 195.35 74.85 195.75 73.95 195.9 71.85 196.05 69.95 196.2 68.85 196.5 67.65 196.75 66.65 197.45 65.55 198 64.7 198.95 65.1 199.35 66.35 198.6 67.35 197.85 68.5 197.45
M 55.15 191.6
Q 55.3 191.6 55.45 191.6 57.75 192 60.75 190.3 63.75 188.2 65.4 187.35 67.05 186.55 67.15 186.5 68.2 185.9 68.55 185.2 65.55 186.4 63.2 187.85 60.4 189.7 59.15 190.3 57.1 191.15 55.35 190.8 55.05 190.7 54.7 190.6 54.6 190.5 54.5 190.5 54.5 190.55 54.5 190.65 54.35 191 54.65 191.3 54.85 191.5 55.15 191.6
M 51.45 175.9
Q 51.1 176.25 50.75 176.55 50.05 176.8 49.2 177.75 49.75 177.75 50.9 176.95 51.9 176.2 53.3 175.6 53.85 175.3 54.5 175.1 55.75 174.75 58.5 174.1 60.85 173.65 62.2 173.65 62.55 173.65 63.05 173.7 63.55 173.75 64.25 173.8
L 68.65 174.4
Q 74.55 175.35 79.45 178.5 80.15 179.05 81.65 180.05 83 180.8 84.1 181.15 84.25 181.1 84.2 180.9 84.15 180.75 83.95 180.6 77.85 175.6 70.7 173.85 67 172.9 63.35 172.9 59.6 172.85 55.9 173.9 53.15 174.65 51.45 175.9
M 69 165.9
Q 66.65 167.1 64.8 168.9 65.65 168.9 67.2 167.95 71.4 165.35 74.2 165.05 74.4 165.05 74.6 165.05 76.1 165 78.45 165.45 85.6 166.65 90.95 169 91.55 169.25 93.85 170.3 95.6 171.2 96.75 171.6 97.2 171.75 99.95 172.7 101.95 173.35 103.1 173.95 103.45 174.05 107.2 176.65 109.6 178.25 111.5 178.5 111.55 177.85 110.25 177.25 108.9 176.7 107 175.35 104.65 173.65 103.9 173.25 102.4 172.4 99.65 171.5 96.35 170.45 95.25 170 92.8 168.75 91.55 168.15 88.45 166.75 82.35 165.2 80.45 164.7 78.85 164.45 74.85 163.85 72.35 164.5 70.75 165 69 165.9
M 152.7 176.65
Q 152.65 176.75 152.4 176.8 150.35 176.5 148.35 176.9
L 148.25 177.2 153.15 177.2
Q 153.5 177.2 153.55 177
L 152.7 176.65
M 64.45 121.7
L 64.15 121.8
Q 64.85 122.95 66 123.85 66.9 124.55 68.1 125 70 125.85 73.1 126.3 73.3 126.35 73.5 126.35 73.75 126.25 73.8 126.05 73.55 125.9 73.3 125.8 72.3 125.3 71.35 125.25 70.25 125.15 69.7 125 69.6 125 69.35 124.95 69.05 124.85 68.6 124.65 66.2 123.7 64.45 121.7
M 61.05 112.55
Q 61.95 113.8 63.2 114.9 63.5 115.15 63.85 115.45 64.05 115.55 64.15 115.7 65.95 116.95 68.35 118 70.35 118.85 77 120.9 81.7 122.45 82.55 122.65 86.35 123.75 91.2 124.3 94.2 124.6 100 125 101.9 125 102.7 124.75 102.1 124.05 100.85 124.05 95.3 123.55 92.5 123.35 87.5 122.9 84.25 122.1 82.65 121.7 80.1 120.85 76.8 119.7 75.95 119.45 69.95 117.65 69.6 117.55 66.05 116.25 63.9 114.4 61.2 112 58.35 106.15 57.55 104.35 56.75 103.65 56.7 103.6 56.6 103.55 56.8 104.8 58.1 107.45 59.1 109.15 59.55 110.05 60.8 112.2 61.05 112.55
M 50 91.85
Q 49.85 91.6 49.7 91.4
L 46.05 85.35
Q 46.4 87.65 48.85 91.75 49.95 93.6 50.55 94.45 51.9 96.15 54.55 98.2 55.05 98.55 55.55 98.95 56.8 99.9 57.65 100.3 58.6 100.75 59.95 101.1
L 78.4 106.75
Q 80.4 107.3 81.1 107.3 82.75 107.35 83.6 106.45 83.35 105.95 81.9 106.25 81.05 106.45 80.05 106.25 79.4 106.1 78.15 105.7 69.6 102.55 61.65 100.55 60.25 100.3 59.2 99.85 57.9 99.4 55.65 97.7 53.35 96.1 52.05 94.7 51.7 94.35 51.4 93.95 51.25 93.7 50.55 92.7 50.35 92.3 50 91.85
M 44.45 69.9
Q 44 69.85 43.75 70.05 44.35 73.35 46.1 76.45 47.8 79.5 50.35 81.8 50.5 81.9 50.7 82.1 51.6 82.75 53.95 84.55 55.8 85.75 55.95 85.85 57.25 86.5 59.1 87.1 64.1 88.75 66.65 89.5 68.85 90.1 69.9 89.35
L 68.4 88.95
Q 66.35 88.6 63.9 87.75 62.8 87.4 59.5 86.2 57.95 85.75 57.25 85.4 56 84.8 53.5 83.05 52.6 82.45 51.9 81.85 49.8 80.3 48.9 79.1 47.85 77.9 46.85 76 44.75 72.35 44.45 69.9
M 70.2 66.4
Q 67.65 63.45 66.2 62.45 65.7 62.1 65.25 62 64.7 61.8 64.3 62.05 66.25 63.4 67.1 64.15 67.5 64.45 67.85 64.8 68.2 65.1 68.5 65.5 68.65 65.7 68.85 66 69.05 66.35 69.45 66.95 69.85 67.5 70.8 68.4 70.95 68.55 71.1 68.75 71.25 68.9 71.55 69.4 71.75 69.75 72.05 70.45
L 73.8 74.2
Q 74.25 75.5 74.35 76.2 74.6 77.35 74.55 79.05 74.6 81.05 74.45 82.4
L 73.8 86.05
Q 73.15 89.45 73.4 91.7 73.8 91.9 73.9 91.2
L 75.05 83
Q 75.55 80.2 75.5 78.4
L 75.35 76.75
Q 75.15 75.35 74.3 73.4 74.1 72.75 73.75 72.05 73.1 70.45 72.05 68.8
L 70.2 66.4
M 100.55 90.1
Q 100.6 90.15 100.7 90.2 105.05 94.7 107.95 99.9
L 108.75 101.5
Q 109.45 102.9 109.85 104.25 110.85 107.6 111.45 114.1
L 112.5 124.6
Q 112.75 126.7 113.25 127.55 113.7 127 113.5 125.7
L 112.8 117.65
Q 112.5 114.05 112.1 110.9 111.45 106.05 110.2 102.55 109.9 101.9 109.65 101.3
L 108.85 99.6
Q 107.45 97.15 104.4 93.4
L 101.35 89.65
Q 100.7 88.85 100.25 89.15 100 89.45 100.55 90.1
M 87.75 78.85
Q 87.85 78.95 87.9 79.05 90.5 81.5 91.3 84.2 91.65 85.15 91.9 87.7 92.05 88.8 92.25 89.65 92.45 90.55 92.65 91.15 93.2 92.3 94.7 94.25 96.35 96.25 96.75 97.45 97.1 98.2 97.55 101.4 97.75 102.35 98.05 104.1 98.4 105.65 98.45 106.7 98.55 108.35 98.35 110.9
L 98 116.4
Q 98.85 115.8 99.15 113.5 99.5 109.9 99.5 108.05 99.4 105.25 98.4 99.8 97.95 97.7 97.65 96.95 97.15 95.65 95.2 93.15 93.35 90.8 92.85 89.2 92.9 89.05 92.85 88.9 92.75 88.25 92.65 87.3 92.6 85.85 92.5 85.35 92.05 82 89.1 79 88.1 78.05 86.4 76.85 85 75.9 83.15 74.7
L 82.9 75.35
Q 86.05 77.35 87.75 78.85
M 97.25 79.05
Q 97.3 79.2 97.4 79.3 98.3 81 98.7 83.35 98.8 83.7 98.8 84.05 98.85 84.8 98.85 86 98.9 87.3 98.8 89 98.75 89.6 99 89.7 99.05 89.65 99.15 89.55 99.5 89.1 99.65 87.9 99.8 84.45 99.1 81.8 98.2 78.45 96.1 76.5 95.8 76.15 95.65 76.4 95.5 76.5 95.7 76.8 96.75 78.2 97.25 79.05
M 90.4 137.45
L 90.2 137.7
Q 90.65 138.3 91.75 138.8 97.15 141.15 102.1 140.35 102.6 140.25 103.05 140.15 103.4 140.1 104.65 139.75 105.65 139.5 106.3 139.4
L 107.85 139.3 109.05 138.95
Q 109.2 138.95 110.75 138.8 112.2 138.65 114.95 137.95
L 117 137.4
Q 117.65 137.2 117.7 136.9 118.1 137 118.45 136.7 118.8 136.35 118.65 135.9
L 116.45 136.8
Q 115.5 136.8 115.05 136.85 114.75 136.8 113.3 137.2 111.95 137.7 109.65 137.95 106.9 138.35 105.95 138.55 103.95 139.1 102.9 139.25
L 102.85 139.25
Q 98.7 140.1 94.65 139.05 93.15 138.65 90.4 137.45
M 82.15 100.8
Q 83.45 103.25 87.15 107.1 93.85 113.95 98.8 118.6 103.75 123.3 106.9 125.55 108.2 126.5 110.8 128.2 113.15 129.75 114.5 131 115.9 132.25 118.45 134.9 120.8 137.2 122.85 138.05
L 118.05 133.35
Q 115.4 130.7 113.5 129.3 110.35 127.1 108.8 126.05 104.55 123.1 99.1 117.95 90.35 109.65 82.15 100.8
M 114.1 104.2
Q 113.7 104.5 113.5 104.6
L 112.85 104.9
Q 112.35 105.05 112.2 105.25 111.85 105.65 112.05 105.95 112.3 106.1 112.55 105.85 113.15 105.45 114.45 105 114.9 104.7 115.05 104.35 115 104.05 114.65 104 114.65 104.15 114.4 104.2
L 114.1 104.2
M 73.95 125
Q 73.75 125.35 74 125.9 75.9 128.75 77.05 129.95 79.3 132.05 83 132.95 85.45 133.55 89.7 133.75 92.2 133.8 93.6 134
L 96.75 134.5
Q 98.6 134.8 103.75 135.15 109.85 135.6 113.25 135.05 114.25 134.9 114.8 134.5 115.3 134.25 115.6 133.55 113.2 134 112 134.05 109.8 134.3 108.4 134.25 105.35 134.35 100.75 133.9 97.75 133.65 97.15 133.55 94.45 133 93.9 132.9 93.45 132.8 90.3 132.8 86.1 132.7 82.75 131.9 80.1 131.2 78.85 130.35 77.8 129.65 76.25 127.8
L 73.95 125
M 50.1 61.85
Q 56.1 71 64.9 82.7 78.45 100.7 89.15 111.8 103.65 126.6 118.55 135.1 116.35 132.75 112.65 130.2 108.4 127.4 106.3 125.9 97.35 119.55 85.85 106.75 60.6 78.55 41.4 46.15 44.1 52.7 50.1 61.85
M 97.25 91.15
L 98.05 90.4 97.95 90.05
Q 97.65 90.1 96.5 90.65 96 90.85 95.85 91 95.65 91.2 95.4 91.6
L 95.05 91.85
Q 94.75 92.05 94.9 92.3
L 95.5 92.6
Q 95.6 92.35 95.85 92.15 96.25 91.8 96.3 91.8
L 96.6 91.55 96.85 91.45
Q 96.95 91.4 97.25 91.15
M 183.45 163.65
Q 183.3 162.6 182.55 161.8 182.15 161.45 181.85 161.45 181.5 161.4 181.15 161.6 180.85 161.85 180.75 162.25 180.55 162.8 180.75 163.8 178.85 165.05 178.9 167.35 179.1 167.35 179.65 167.6 180.05 167.8 180.4 167.75 180.75 167.65 181.25 167.1 182.2 166.4 183.75 167.35 184.3 167.65 184.85 168.15 186.1 169.2 186.6 170.4 186.95 171.4 187.2 171.6
L 187.65 172
Q 187.9 172.25 187.75 172.45 188 172.8 188.5 172.7 188.65 172.2 188.1 171.3
L 185.85 167.25
Q 185.3 165.95 184.7 165.7
L 184.1 165.55
Q 183.65 165.35 183.55 164.8 183.5 164.75 183.45 163.65
M 182.9 165.4
Q 183.1 165.55 183.1 165.75 181.75 165.65 180.7 166.3 180.35 166.5 180.35 166.75
L 179.75 166.7
Q 179.8 166.1 180.2 165.6 180.3 165.45 180.75 165 181.2 164.75 181.25 164.65 181.55 164.45 181.55 163.95 181.6 163.85 181.45 163.2 181.45 163.05 181.65 162.2 181.9 162.2 182.05 162.55 182.25 162.8 182.45 163.35 182.9 164.15 182.8 164.6
L 182.65 165.05
Q 182.7 165.15 182.9 165.4 Z"/>

<path fill="#98A354" stroke="none" d="
M 135.2 51.35
L 133.05 55.1
Q 128.825 63.29140625 127 72.7 124.65 84.95 127 96.9 127.75 100.55 129.8 107.6 132 115.1 133.55 118.7 135.05 122.05 137.05 125.2 136.15 123.15 135.7 119.6 134.9 113.2 135.85 109.7 136.2 108.4 137.2 107.65 137.95 107.15 140.1 105.6 134.65 99.9 132.9 93.3 131.35 87.2 133.05 80.85 133.3 80 134.7 78.05 135.35 77.25 135.75 76.75 135.3 76.05 134.85 75.3 134.35 74.45 133.9 73.6 133.3 72.3 132.7 70.85 132.2 69.45 132.1 68.5 132.05 68.05 132.05 67.65 132.1 67.5 132.15 67.35 132.2 66.65 132.4 66.05 132.8 64.5 134.3 62.15 134.5 61.8 134.7 61.55 133.5 58.95 133.25 56.1 133.8 56.25 134 57.05 134.1 57.2 134.3 58.4 134.4 59.35 135.15 60.8 135.9 59.45 136.05 58.75 136.484765625 57.1466796875 136.2 55.1
L 135.2 51.35
M 153.85 143.3
L 153.85 142.85 153.8 142.8
Q 153.85 143.05 153.8 143.2 153.8484375 143.2484375 153.85 143.3
M 140.9 128
Q 140.3 128.15 139.9 128.05 139 127.8 138.35 127.15 139.85 129.3 141.65 131.35 142.2 132.05 142.85 132.75 142.45 130.9 141.85 127.95 141.55 127.85 140.9 128
M 135.7 75.1
Q 136 75.65 136.3 76.05 136.4 75.85 136.5 75.75 136.3 75.7 136.25 75.55
L 136.2 75.35
Q 136 75.25 135.7 75.1
M 173.1 68.65
Q 171.45 66.95 166.5 63.15 161.75 59.7 159.3 58.2 155.2 55.6 151.55 54.45 148 53.5 146.3 53 144.52890625 52.512890625 143.15 51.95
L 142.8 51.8 143.15 52.35
Q 147.547265625 59.36328125 148.75 59.7 149.15 59.8 149.75 59.65 150.45 59.45 150.9 59.55 151.25 59.65 153.85 63.2
L 153.5 61.85
Q 153.1 61.4 152.3 60 151.55 58.8 150.7 58.5 150.35 58.4 150.25 58.35 150.05 58.15 150.15 58 150.2 57.85 150.5 57.8 151.8 57.75 152.8 59.35
L 154.05 61.4
Q 154.3 61.85 154.6 63 154.95 64.15 155 64.8 155.15 64.95 155.25 65.15 157.2 67.9 159.15 70.6 159.75 70.75 160.5 70.3 161.4 69.8 161.65 69.85 164.4 70.6 166.7 76.45 166.9 76.95 167.15 77.6 166.7 74.9 165.6 72.85 164.15 70.55 163.5 69.45 162.5 67.7 162.15 67.35 161.75 67.05 160.5 66.3 159.5 65.8 159.1 65.15 161.7 65.3 163.1 67.4 163.65 68.05 164.35 69.6 164.65 70.1 165.65 71.45 166.5 72.6 166.85 73.4 167.25 74.25 167.65 75.85 168.2 78.4 168.3 79.7 168.25 80.3 168.25 81.25 168.85 83.35 169.65 86.05 169.7 86.1 172.65 85.45 175.7 86.25 177.05 97.25 177.7 103 178.2 105.8 178.35 100.65 177.95 97.75 177.65 95.05 176.9 91.6 176.4 89.65 176.25 89.05 175.7 87.7 174.35 85.75 172.75 83.2 171.15 83.2 170.7 83.2 170.6 83.05 170.55 82.9 170.65 82.7 170.8 82.6 170.95 82.6 172.35 81.95 173.95 83.9 176.8 87.3 178 92.5 178.9 96.4 179.05 101.95
L 179.05 107.3
Q 179.05 107.8 179 108.3 179.85 108.55 180.65 107.75 181.6 106.85 182.3 107.05 183.3 107.3 185.45 111.1 186.3 112.7 187.05 114.4 187.2 111.85 187 110.2
L 186.25 106.7
Q 185.5 103.85 184.55 102.75 185.05 102.3 185.6 102.8 185.9 103.15 186.1 103.75 187.05 106.35 187.3 107.35 188.25 110.9 187.8 115.95 188.8 118.4 189.6 121.1 192.15 129.6 192.05 137.8 194.1 132.85 194.9 127.05 196 118.4 194.05 109.3 192.35 101.3 188.25 92.6 184.95 85.65 179.55 77.15 175.95 71.55 173.1 68.65
M 91.15 160.75
L 91.3 160.25 89.3 160.8
Q 90.25 160.7 91.15 160.75
M 54.7 190.6
Q 55.05 190.7 55.35 190.8 55.45 190.5 55.6 190.35 56 190.25 56.25 190.1 55.4 190.35 54.7 190.6
M 43.9 189.1
Q 43.1 188.55 42.55 188.15 46.8 193.35 49.9 195.85 54.1 199.2 63.15 203 66.55 204.5 69.2 205.55 67.2 202 67.9 199.4 68.2 198.15 68.5 197.45 67.35 197.85 66.35 198.6 65.1 199.35 64.7 198.95 65.55 198 66.65 197.45 66.15 197.45 65.6 197.6 62.7 198.15 61.05 197.7 57.95 196.9 56.35 195.1 54.85 193.45 55.15 191.6 54.85 191.5 54.65 191.3 54.35 191 54.5 190.65 53.65 190.85 52.9 190.95 49.75 191.5 47.5 190.95 46.1 190.55 43.9 189.1
M 54.5 175.1
Q 53.85 175.3 53.3 175.6 59.35 174.55 63.15 174.75
L 62.8 174.65
Q 62.85 174.15 63.05 173.7 62.55 173.65 62.2 173.65 60.85 173.65 58.5 174.1 55.75 174.75 54.5 175.1
M 64.8 168.9
Q 66.65 167.1 69 165.9 70.75 165 72.35 164.5 74.85 163.85 78.85 164.45 81.05 164.5 82.95 165.25 82.4 162.8 85.6 161.6 85.9 161.05 86.75 160.75 88.15 160.25 89.25 159.9
L 90.25 159.7
Q 89.35 159.3 89 158.9 88.3 158.2 88.6 157.1 89.05 155.35 93.55 153.45 93.7 153.4 93.9 153.35 93.2 153.4 92.5 153.45 87 154.05 83.3 154.9 79.75 155.8 72.4 158.8 66 161.4 62.95 162.95 57.9 165.55 54.45 168.55 53.6 169.35 50.75 172.15 48.5 174.4 46.9 175.6 45.2 176.8 43.5 177.7 44.45 177.45 45.5 177.2 48.7 176.45 51.45 175.9 53.15 174.65 55.9 173.9 59.6 172.85 63.35 172.9 65.2 168.9 71.05 166.3 72.95 165.55 74.6 165.05 74.4 165.05 74.2 165.05 71.4 165.35 67.2 167.95 65.65 168.9 64.8 168.9
M 162.35 164.9
Q 162.2 165.2 162 165.3 161.3 165.1 160.65 164.1 159.8 162.65 158.85 159.95 156.35 153.45 155.65 149.7 155.4 150.55 155.7 151.8 155.9 152.55 156.2 154 156.45 155.25 156.5 155.45
L 157.2 156.75 158 159.6
Q 158.45 160.85 158.55 161.95
L 158.6 162 159.85 163.85
Q 160.05 164.2 160 164.4 160 164.5 159.9 164.55 159.95 164.55 160.05 164.65 159.55 165.3 158.05 165.55 157.7 165.6 157.5 165.6 157.55 165.8 157.6 165.95 157.45 165.8 157.2 165.65 152.55 166.35 146.35 166.75 145.5 166.8 144.9 166.75 144.85 166.8 144.8 166.8 144.65 166.8 144.5 166.7 143.75 166.6 143.45 166.4 143.4 166.05 143.85 165.75
L 143.9 165.8
Q 143.8 165.6 143.8 165.45 143.4 163.85 143.2 162.7
L 142.85 160.75 142.75 158.6
Q 142.65 157.15 142.1 154.2
L 141.5 150.35 141.4 152.4
Q 141.45 152.5 141.45 152.6 141.45 152.7 141.4 152.85
L 141.35 154.55 141.55 155.95 141.55 158.1
Q 142 161.85 142.85 164.95 143.05 165.35 142.95 165.6 142.95 165.65 143 165.7 143 166.05 143 166.2 142.95 166.65 142.5 166.7
L 142.45 166.75
Q 142.4 166.75 142.3 166.75 141.95 166.8 141.5 166.65 141.65 166.85 141.65 167.1 140.75 167.05 139.95 166.85
L 139.45 166.85
Q 139.5 167.2 139.4 167.5 139.5 167.6 139.4 167.8 139.3 168 139.05 168.05 139 168.05 138.95 168.1 138.95 168.6 138.6 169.35 138.4 169.75 138 170.6
L 137.55 172
Q 137.4 172.5 136.95 173.65
L 135.95 175.35 137.85 172.75
Q 138.8 171.2 138.95 170.85
L 139.95 168.95 140.15 168.5
Q 140.45 168.2 140.7 168.3 140.8 168.65 140.75 169.05
L 144.3 168.6
Q 144.55 168.5 144.65 168.65
L 144.7 168.7
Q 145.1 168.6 145.55 168.5 152.95 167.4 159.5 166.7 160.45 166.55 160.95 166.9 161.3 167.25 161.2 167.6
L 168.05 170.95
Q 170.8 172.25 173 173.6 174.7 174.65 176.75 176.25 176.6 175.5 176.35 174.85 173.8 172.55 172.2 171.4 171 170.55 166.75 167.9 164.05 166.2 162.35 164.9
M 205.55 203.5
Q 205.7 204.4 205.9 205.3
L 212.45 212.75
Q 216.4 217.4 219.6 222.25 220.15 222.95 220.3 223 220.95 223.4 221.3 223.05
L 221.4 222.95
Q 220.85 222.4 220.2 221.6
L 205.35 202.75
Q 205.4 203.1 205.55 203.5
M 119.05 106.55
Q 119 106.5 118.8 106.4 119.3 107.95 119.35 108.15 119.6 108.65 120.35 109.1 119.8 107.3 119.05 106.55
M 73.2 125.35
L 71.2 124.85
Q 70.25 125 69.35 124.95 69.6 125 69.7 125 70.25 125.15 71.35 125.25 72.3 125.3 73.3 125.8 73.25 125.6 73.2 125.35
M 52.05 94.7
Q 51.7 94.2 51.25 93.65 50.85 93.1 50.55 92.7 51.25 93.7 51.4 93.95 51.7 94.35 52.05 94.7
M 43.25 56.3
Q 43.25 56.6 43.25 57 43.2 59.95 41.95 64.3 40 71.1 39.9 71.5 37.65 81.45 41.2 94.2 43.25 101.75 46.25 106.95 48.2 110.2 53 115.95 57.3 121.1 59.75 123.35 63.5 126.95 71.3 131.85 77.05 135.4 81.5 137.95 85.85 140.4 88.25 141.45 90.95 142.6 93.4 143.05 91.3 142.3 89.3 140.55 86.6 138.3 87.1 136.45 87.3 135.8 88.55 135.05 84.4 134.95 79.1 131.7 74.5 128.85 73.5 126.35 73.3 126.35 73.1 126.3 70 125.85 68.1 125 66.9 124.55 66 123.85 64.7 123.15 63.6 122.1 61.3 119.9 61.9 117.7 62.2 116.6 62.95 116.2 63.8 116 64.15 115.7 64.05 115.55 63.85 115.45 63.5 115.15 63.2 114.9 61.95 113.8 61.05 112.55 60.8 112.2 59.55 110.05 59.1 109.15 58.1 107.45 56.8 104.8 56.6 103.55 56.7 103.6 56.75 103.65 56.15 102.05 55.9 100.7 55.75 100.05 54.55 98.2 51.9 96.15 50.55 94.45 49.95 93.6 48.85 91.75 46.4 87.65 46.05 85.35
L 49.7 91.4
Q 47.75 87.85 48.5 84.95 49.1 82.75 49.4 82.5 49.65 82.3 50.7 82.1 50.5 81.9 50.35 81.8 47.8 79.5 46.1 76.45 44.35 73.35 43.75 70.05 44 69.85 44.45 69.9 44.75 72.35 46.85 76 47.85 77.9 48.9 79.1 49.8 80.3 51.9 81.85 52.2 81.8 52.45 81.75
L 52.55 81.4
Q 50.15 80.55 46.5 73.7 42.6 66.45 43.6 62.5 44.15 60.4 43.25 56.3
M 71.55 69.4
Q 71.25 68.9 71.1 68.75 70.95 68.55 70.8 68.4 71.15 68.9 71.55 69.4
M 67.85 64.8
Q 68.35 65.35 68.85 66 68.65 65.7 68.5 65.5 68.2 65.1 67.85 64.8
M 38.15 41.85
Q 37.95 41.65 37.85 41.5 38.1 41.95 38.35 42.4 38.25 42.1 38.15 41.85
M 87.75 78.85
Q 88 79.4 88.2 79.95 88.85 81.55 89.95 84.95 90.9 87.7 92.25 89.65 92.05 88.8 91.9 87.7 91.65 85.15 91.3 84.2 90.5 81.5 87.9 79.05 87.85 78.95 87.75 78.85
M 98.85 86
Q 98.85 84.8 98.8 84.05 98.8 83.7 98.7 83.35 98.75 84.8 98.85 86
M 93.85 79.85
L 94.3 78.2
Q 94.35 78.25 94.95 78.25 95.55 78.2 96 78.3 96.75 78.5 97.25 79.05 96.75 78.2 95.7 76.8 95.5 76.5 95.65 76.4 95.8 76.15 96.1 76.5 98.2 78.45 99.1 81.8 99.8 84.45 99.65 87.9 99.5 89.1 99.15 89.55 99.15 90.05 99.2 90.1 99.5 90.2 100.2 90.2 100.45 90.15 100.7 90.2 100.6 90.15 100.55 90.1 100 89.45 100.25 89.15 100.7 88.85 101.35 89.65
L 104.4 93.4
Q 107.45 97.15 108.85 99.6
L 109.65 101.3
Q 109.9 101.9 110.2 102.55 110.45 101.9 110.75 100.9 111.4 98.5 111.45 97.95 111.7 96.15 110.9 95 111.3 94.75 113.15 95.25 113.3 95.25 113.45 95.3 113 95.05 112.55 94.8 112.55 94.35 113.15 94.55 114.85 95 115.9 97.4 116 97.6 116.05 97.75 116.7 99.6 116.7 101.15 116.7 102.9 116.95 103.3 117.2 103.9 117.9 104.5 118.1 104.65 118.35 104.8 118.75 105.05 119.15 105.35 120.35 106.4 121.2 108.2 121.4 108.8 121.7 109.6 123.45 110.15 124.05 111.5 124.4 112.2 125.5 114.55 126.55 116.55 127.7 116.35 128.3 115.45 128.55 114.65 128.85 113.55 128.6 111.25 127.6 109.95 126.45 108.1 121.15 99.6 114.45 90.55 111.1 86.15 109.2 84.25 107 82 101 77.3 94.65 72.35 91.3 70.2 85.85 66.65 74.3 61.15 68.4 58.3 65.15 57.4
L 56.95 55.75
Q 52.05 54.75 49.3 53.05 53.1 56.95 54.15 57.25 54.3 57.25 56.15 57.05 58.05 56.9 58.45 57 61.1 57.7 65.25 62 65.7 62.1 66.2 62.45 67.65 63.45 70.2 66.4
L 72.05 68.8
Q 73.1 70.45 73.75 72.05 74.1 72.75 74.3 73.4 75.5 75.25 75.8 76.45
L 76.15 76.5
Q 77.15 73.8 77.4 73.15 77.7 72.35 80 72.95 84.1 74.05 86.4 76.85 88.1 78.05 89.1 79 92.05 82 92.5 85.35 92.6 85.85 92.65 87.3 92.75 88.25 92.85 88.9
L 92.95 88.4
Q 92.95 88.05 93.55 84.35 94.1 80.95 93.85 79.85 Z"/>

<path fill="#848F41" stroke="none" d="
M 172.3 153.15
Q 177.75 154.5 181.2 153.7 181.9 153.45 182.25 153.55 179.8 148.75 176.3 141 171.2 129.15 158.5 95.85 148.9470703125 70.66875 141.75 55.1 140.65 52.6 139.55 50.15 138.8 48.55 137.5 47.25 136.35 46 135.45 44.6 132.35 39.9 129.35 35.2
L 135.75 49.95 135.2 51.35 136.2 55.1
Q 136.484765625 57.1466796875 136.05 58.75 135.9 59.45 135.15 60.8 135.25 60.9 135.35 61.1 136.6 63.35 137.2 64.1 140.3 68.25 145.5 69.5 143.5 70.25 140.75 68.45 137.6 66.45 135.55 63.2 135.05 62.35 134.7 61.55 134.5 61.8 134.3 62.15 132.8 64.5 132.4 66.05 132.2 66.65 132.15 67.35 132.2 67.25 132.2 67.2 132.45 66.95 132.6 67.2 132.65 68.6 133.75 71.15 134.55 73.3 135.35 74.55 135.5 74.8 135.7 75.1 136 75.25 136.2 75.35
L 136.25 75.55
Q 136.3 75.7 136.5 75.75 136.4 75.85 136.3 76.05 136.4 76.1 136.5 76.25 141 82.15 145.8 84.75 146.15 84.95 150.5 86.8 153.35 88.05 154.9 89.35 154.8 89.8 154.2 89.5
L 148.9 87.2
Q 143.7 84.8 141.6 83.05 140.95 82.55 139.8 81.45 137.35 79.05 135.75 76.75 135.35 77.25 134.7 78.05 133.3 80 133.05 80.85 131.35 87.2 132.9 93.3 134.65 99.9 140.1 105.6 137.95 107.15 137.2 107.65 136.2 108.4 135.85 109.7 134.9 113.2 135.7 119.6 136.15 123.15 137.05 125.2 137.65 126.25 138.35 127.15 139 127.8 139.9 128.05 140.3 128.15 140.9 128 141.55 127.85 141.85 127.95 142.45 130.9 142.85 132.75 147.25 137.6 152.85 141.5 153.4 141.8 153.7 142.55 153.75 142.7 153.8 142.8
L 153.85 142.85 153.75 141.1
Q 153.7 140.45 153.8 140.15 154.05 139.6 154.5 139.55 155.05 139.5 155.35 140.1 155.45 140.25 155.55 141.05 155.65 142.45 155.8 143.9 156 143.9 156.45 144.05
L 159 146.2
Q 161.15 147.9 166.1 150.75 167.7 151.6 168.4 151.85 169.65 152.45 172.3 153.15
M 163.55 117.6
Q 165.5 118.3 166.45 118.8 165.75 119.2 164.45 118.85 160.9 118 158.45 116.55 157.15 115.75 155.8 114.65
L 150.5 110.6
Q 144.75 106.3 142.3 103.5 141.05 102.05 139.4 99.65 134.3 91.5 133.95 83.25 133.95 82.2 134.45 82.15 135.05 91.6 140.45 99.55 141.55 101.05 142.8 102.45 144.1 104 145.45 105.15 146.6 106.25 149.1 108.15
L 156.45 113.7
Q 158.9 115.65 160.65 116.45 161.5 116.9 163.55 117.6
M 177 143.95
Q 175.45 144.55 172.85 142.75
L 150.95 127.55
Q 146.2 123.75 142.95 118.65 139.65 113.35 138.6 107.55 138.45 106.9 138.85 106.8 140.1 112.3 143.15 117.3 146.2 122.25 150.6 125.85 151.7 126.75 154.8 128.95
L 166.85 137.45
Q 173.95 142.25 177 143.95
M 175.5 150.35
L 173.2 149.7
Q 171 149.1 169.95 148.65 168 147.85 164.9 146 162.1 144.25 158.7 141.9 157.35 140.95 156.7 140.2 156.3 139.65 155.4 137.95
L 153.8 134.6
Q 152.95 134.5 151.8 134.15 149.4 133.3 148.25 132.75 143.4 130.35 141.4 125.15 141.95 125.25 142.55 126.35 143.85 128.7 146 130.45 148.15 132.2 150.85 132.95 151.55 133.15 153 133.55 153.25 133.6 153.45 133.7 153.85 133.85 154.2 134.1 154.6 134.25 154.95 134.5 154.75 134.55 154.6 134.55 154.7 134.8 154.8 135.05 156.45 138.55 158.55 140.45 159.65 141.55 161.55 142.75 164.65 144.85 165.45 145.3 171.45 148.85 178.15 149.85 179.35 150.05 179.8 150.35 178.35 151.2 175.5 150.35
M 143.15 52.35
L 142.8 51.8 140.15 50.1 142.6 55.1
Q 145.040234375 60.266015625 147.6 66.25 149.7115234375 71.218359375 153.35 80.3 153.275390625 80.056640625 153.25 79.7 153.3 77 154 74.7 154.4 73.1 154.45 72.75 154.45 71.55 154.45 71.45 154.7 70.6 154.7 70.4
L 154.65 69.7
Q 154.85 68.95 154.9 68.45 154.95 68.05 154.8 67.3
L 153.85 63.2
Q 151.25 59.65 150.9 59.55 150.45 59.45 149.75 59.65 149.15 59.8 148.75 59.7 147.547265625 59.36328125 143.15 52.35
M 189.6 121.1
Q 188.8 118.4 187.8 115.95 187.6 118 187.2 120.35 186.45 124.45 184.55 132.55 183.85 135.65 183.4 137.1 183.3 137.5 182.4 140.15 181.7 141.95 181.45 143.15 181.2 144.5 181 146.6 180.95 148.4 180.85 149.4
L 182.65 153.75
Q 182.65 153.85 182.7 153.9 182.8 154 182.8 154.2
L 183.2 155.25
Q 183 154.8 182.8 154.4
L 182.75 154.45
Q 182.95 154.75 183.05 155.55 183.2 155.8 184.3 157.05 185.15 157.9 186 159.8 187.35 162.7 187.95 164.5
L 188.55 166.6
Q 189.4 169.45 189.95 171.85 190.6 175.05 190.7 175.45 191.55 179.25 193.75 185.65 194.05 186.5 193.95 186.95 193.85 187 193.75 186.95 194.85390625 188.05390625 196.05 189.25
L 194.5 183.85
Q 191.2 172.4 189 166.6 186.9 161.6 185.95 159.1 184.95 156.3 184.4 154 184 154.6 183.45 154.45 182.8 154.3 183.15 153.05 183.4 152.25 183.85 151.4
L 183.8 151.35 183.85 151.35
Q 184.55 149.9 185.7 148.15 187.9 145.1 188.95 143.55 190.75 140.85 192.05 137.8 192.15 129.6 189.6 121.1
M 167.3 79.55
Q 167.2 78.5 167.15 77.6 166.9 76.95 166.7 76.45 164.4 70.6 161.65 69.85 161.4 69.8 160.5 70.3 159.75 70.75 159.15 70.6 157.2 67.9 155.25 65.15 155.15 64.95 155 64.8 155.05 64.95 155.05 65.1
L 155.35 66.95
Q 155.75 68.05 155.75 68.5 155.7 68.85 155.45 69.55 155.45 69.85 155.55 70.45 155.5 70.85 155.3 71.55
L 155.2 72.9
Q 155.15 73.55 154.65 74.8 154.45 75.25 154.2 77.3
L 154 79.25
Q 153.9 80.35 153.6 80.8 153.544921875 80.7265625 153.5 80.65 154.1931640625 82.399609375 154.95 84.3
L 180.3 147.9
Q 180.25 145.7 180.5 143.95 180.7 142.35 181.55 139.95 182.75 136.55 182.9 136
L 183.7 132.85
Q 185.95 123.15 186.75 118.25 187 116.1 187.05 114.4 186.3 112.7 185.45 111.1 183.3 107.3 182.3 107.05 181.6 106.85 180.65 107.75 179.85 108.55 179 108.3 178.85 112.05 178.6 114.05 178.1 117.95 176.6 124.35
L 175.35 129.65
Q 175.25 126.75 175.7 124.3 176.7 120.35 177.1 118.3 177.9 114.8 178.1 108.4 178.15 107 178.2 105.8 177.7 103 177.05 97.25 175.7 86.25 172.65 85.45 169.7 86.1 169.65 86.05 168.85 83.35 168.25 81.25 168.25 81.7 168.2 82.2
L 167.95 86.3
Q 167.8 89.55 167.5 91.2
L 166.85 94.1
Q 165.4 99.85 163.65 105.45 163.1 105.1 163.4 103.9
L 165.8 94.75
Q 166.65 91.15 166.65 91.1 166.95 89.6 167.1 86.65 167.5 82.05 167.3 79.55
M 38.55 183.55
Q 39.15 183.7 39.4 183.95 39.85 184.3 39.6 184.8 39.6 184.85 39.5 184.9 39.85 185.2 40.25 185.55 40.7 185.95 41.65 187.1 41.9 187.4 42.15 187.65 42.3 187.9 42.55 188.15 43.1 188.55 43.9 189.1 46.1 190.55 47.5 190.95 49.75 191.5 52.9 190.95 53.65 190.85 54.5 190.65 54.5 190.55 54.5 190.5 54.6 190.5 54.7 190.6 55.4 190.35 56.25 190.1 56 190.25 55.6 190.35 55.45 190.5 55.35 190.8 57.1 191.15 59.15 190.3 60.4 189.7 63.2 187.85 65.55 186.4 68.55 185.2 68.2 185.9 67.15 186.5 67.05 186.55 65.4 187.35 63.75 188.2 60.75 190.3 57.75 192 55.45 191.6 55.3 191.6 55.15 191.6 54.85 193.45 56.35 195.1 57.95 196.9 61.05 197.7 62.7 198.15 65.6 197.6 66.15 197.45 66.65 197.45 67.65 196.75 68.85 196.5 69.95 196.2 71.85 196.05 73.95 195.9 74.85 195.75 76.95 195.35 79.3 194 80.65 193.15 83.35 191.2
L 90.9 185.45
Q 91.8 184.75 92.25 184.3 92.8 183.55 93.25 183.9 93.35 184.15 93.05 184.4 92.05 185.45 90.8 186.5 88.9 188.2 87.8 188.85
L 85.65 190.25
Q 85 190.7 83.75 191.7 80.95 193.95 79.25 194.95 76.6 196.5 74.15 196.8 71.45 196.85 70.1 197.05 69.3 197.2 68.5 197.45 68.2 198.15 67.9 199.4 67.2 202 69.2 205.55 71.95 206.65 73.95 207.35 80 209.5 85.1 210.15 95.4 211.65 109.45 208.35 118.3 206.25 124.6 203.35 125.95 202.7 129.95 200.7 133.25 198.95 135.3 198.1 141.4 196.2 144.25 194.7 147.75 193 150.95 189.95 150.1 189.95 149.5 189.3 148.95 188.8 148.85 188.75 148.65 188.65 148.35 188.8 148.1 188.9 148 189.05 146.8 188.95 146.35 188.45 145.75 188 145.85 186.9 145.85 186.5 146.2 185.5 145.9 185.9 145.45 186.4 144.3 187.75 143.8 188.2 143.15 188.9 141.5 190.1
L 128.95 198.65 127.55 199.45
Q 127 199.95 126.3 200.2 124.85 200.85 123.5 200.1 123.7 199.7 124.3 199.6 124.7 199.6 125.45 199.55 125.85 199.5 126.6 199.05
L 131.05 196.45
Q 132.45 195.6 133.05 195.2 134.6 194 135.4 193.4
L 137.4 192.15 138.65 191.05
Q 139.75 190.5 140.25 190.2 141.75 189.3 143.8 187.15 145.75 185 146.7 184.05 146.85 183.55 146.8 183.3
L 146.45 182.4
Q 146.2 182.05 146.15 181.45
L 146.05 181 145.8 180.7
Q 145.65 180.55 145.55 180.15 144.9 178.15 144.65 176.7
L 143.9 174.35
Q 143.35 173 143.35 171.75 142.9 170.55 142.8 170.4 142.8 170.3 142.75 170.25 142.7 170.3 142.6 170.25 141.15 170.35 140.3 170.2 140.2 170.35 140.05 170.65
L 139.65 171.9
Q 139.4 172.45 138.65 173.45 138.1 174.25 137.2 176.05
L 135.35 178.7
Q 134.75 179.5 132.4 182.45
L 129.35 185.9
Q 129.05 186.5 128.5 187 128.65 187.05 128.75 187.25
L 128.85 187.9
Q 128.85 188.1 129.05 188.45 129.1 188.5 129.35 188.8 129.55 189 129.65 189.2 129.7 189.35 129.6 189.75
L 129.45 190.1 129.05 190.3
Q 128.4 190.45 128.3 190.45
L 127.95 190.35
Q 127.9 190.5 127.7 190.7 126.85 192.05 126.3 192.65 125.95 193.2 125.4 193.7
L 122.6 195.8
Q 122.4 195.65 121.65 195.5
L 121.6 195.5
Q 121.6 195.55 121.5 195.65
L 120.1 197.35 119.2 198.2
Q 118.85 198.45 118.05 199 118 199.05 117.3 199.7 116.9 200.15 116.5 200.25 116.15 200.45 115.2 200.8 114.85 201.15 114.75 201.15
L 114.2 201.35
Q 113.95 201.45 113.45 201.75 113.2 201.9 112.7 201.95
L 111.6 202.2
Q 111.2 202.3 109.9 202.35 106.7 202.3 105.1 201.95
L 103.85 201.75
Q 103.6 201.65 103.5 201.55 103.3 201.35 103.4 201.15 103.9 201 106.15 201.2
L 110.1 201.35
Q 111.4 201.35 111.8 201.25 112.5 201.1 113.4 200.65 114.45 200.05 114.95 199.8 115.9 199.45 116.35 199.2
L 117.65 198.1
Q 119.35 196.7 120.4 195.65
L 120.9 195.15
Q 120.85 195.15 120.85 195.1 120.75 194.85 120.95 194.25
L 121.95 191.1 122.3 190.4 123.2 189.1 124 188.3
Q 123.6 187.9 123.35 187.35 123.1 186.85 123.1 186.15 123.05 185.95 123.15 185.55 123.2 185.25 123.5 185.25 123.55 185.2 123.65 185.3 123.75 185.15 123.9 185.15 124.1 185.1 124.4 185.25 124.7 185.45 124.95 185.9
L 125.25 186.4
Q 125.35 186.55 125.7 186.65 127.05 186.9 128.05 186.2 127.85 186.2 127.8 185.95 127.75 185.75 127.9 185.5 128.35 184.45 128.9 183.75
L 132.15 179.55 133.25 177.65 133.5 177
Q 133.6 176.7 134.25 176.05 134.65 175.65 134.85 175.1
L 135.85 173.35
Q 136.35 172.45 136.6 171.85 134.6 173.15 130.65 175.1 126.9 176.95 124.95 178.5 125.1 178.65 125.15 178.85 125.65 179.6 125.25 180.8 124.8 181.95 124.15 182.45 123.35 183.1 122.2 182.8 121.05 182.55 120.4 181.65 119.8 181.05 119.65 180.95 119.45 180.8 118.65 180.6 117.9 180.5 117.65 180.2 117.45 180.05 117.4 179.8 116.95 180.3 115.75 180.6 108.75 182.5 98.05 183.05 97.4 183.05 90.05 183.4
L 78.15 183.8
Q 54.9 184.55 42.95 184.05 44.8 183.55 47.25 183.4 48.5 183.35 51.65 183.35 62.4 183.4 83 182.6
L 92 182.25
Q 102.45 181.85 107.6 181.15 110.05 180.8 117.3 179.35 117.35 179.15 117.35 179 117.4 178.55 117.8 177.75 117 177.5 116.65 176.55 116.35 175.65 116.8 174.85 117.2 174.15 118.2 173.95 119.15 173.85 119.8 174.5 119.9 174.65 120.05 174.8 120.45 175 120.8 175.5 120.85 175.6 120.85 175.65 120.9 175.6 120.95 175.55 121.55 175.2 122.6 174.8 123.7 174.5 124.3 174.3 128.7 173.1 132.9 171 133 170.9 133.15 170.8
L 134 170.3 134.5 169.75
Q 134.8 169.4 135.35 168.95
L 135.3 168.95
Q 134.5 169.1 132.85 169.2
L 128.75 169.25
Q 126.55 169.15 125.3 169 124.1 168.85 122.8 168.6
L 120.6 168.2
Q 119.95 168.05 119.4 167.85 119.3 167.95 119.2 167.95 119.35 169.25 118.7 170.8 118.05 171.95 117.5 172.25 116.85 172.65 116.1 172.45 115.35 172.25 114.9 171.65 113.95 170.65 114.15 168.95 114.3 167.65 114.2 167.4 114.1 167.1 113.8 166.8 113.45 166.3 113.4 166.2 113.1 165.7 113.1 165 113 164.9 112.85 164.8 112.3 164.4 112.1 164.25 112.05 164.15 111 163.7
L 106.4 161.65
Q 104.3 160.8 99.9 160.3
L 97.75 160
Q 96.5 159.85 95.3 159.8 93.85 159.75 92.7 159.95
L 91.3 160.25 91.15 160.75
Q 90.25 160.7 89.3 160.8
L 89 160.85
Q 87.05 161.25 85.55 161.8 85.6 161.7 85.6 161.6 82.4 162.8 82.95 165.25 81.05 164.5 78.85 164.45 80.45 164.7 82.35 165.2 88.45 166.75 91.55 168.15 92.8 168.75 95.25 170 96.35 170.45 99.65 171.5 102.4 172.4 103.9 173.25 104.65 173.65 107 175.35 108.9 176.7 110.25 177.25 111.55 177.85 111.5 178.5 109.6 178.25 107.2 176.65 103.45 174.05 103.1 173.95 101.95 173.35 99.95 172.7 97.2 171.75 96.75 171.6 95.6 171.2 93.85 170.3 91.55 169.25 90.95 169 85.6 166.65 78.45 165.45 76.1 165 74.6 165.05 72.95 165.55 71.05 166.3 65.2 168.9 63.35 172.9 67 172.9 70.7 173.85 77.85 175.6 83.95 180.6 84.15 180.75 84.2 180.9 84.25 181.1 84.1 181.15 83 180.8 81.65 180.05 80.15 179.05 79.45 178.5 74.55 175.35 68.65 174.4
L 64.25 173.8
Q 63.55 173.75 63.05 173.7 62.85 174.15 62.8 174.65
L 63.15 174.75
Q 59.35 174.55 53.3 175.6 51.9 176.2 50.9 176.95 49.75 177.75 49.2 177.75 50.05 176.8 50.75 176.55 51.1 176.25 51.45 175.9 48.7 176.45 45.5 177.2 44.45 177.45 43.5 177.7 38.4 180.2 32.25 179.95 29.85 179.85 27.45 179.35 27.8 179.5 28.15 179.65 34.35 182.45 38.55 183.55
M 98.9 197.1
L 99.95 197.2
Q 100.5 197.2 101.5 196.6 104.45 194.75 110 190.25 112.5 188.15 113.3 187.1 114.6 184.8 115.4 183.65 116.35 182.3 117.45 181.45 115.4 187.2 110.55 191.1 109.8 191.7 108.35 192.75 107.15 193.7 106.4 194.6
L 100.35 198.55
Q 99.5 197.85 98.3 198.35 97.75 198.55 96.5 199.45 93 202.05 89.15 203.15 84.35 204.55 81.2 203 80.25 202.5 79.8 201.9 79.25 200.9 79.8 200.1 80.25 201.3 81.35 202.15 82.5 202.95 83.85 203.05 85.75 203.3 89.05 202.25 93.35 200.8 95.7 198.9 97.1 197.8 97.2 197.75 98.1 197.15 98.9 197.1
M 138.35 177.6
Q 137.6 177.75 137.45 177.5
L 137.55 177.25
Q 138.2 176.9 139.1 176.8 139.95 176.7 141.05 176.8 142.5 177 142.95 177.3 142.9 177.5 142.55 177.55
L 142.15 177.45
Q 141.6 177.6 141.25 177.6 140.9 177.7 140.35 177.65 139.9 178.65 138.75 180 137.8 181.2 135.85 182.9
L 131.5 187.05
Q 132 185.8 133.25 184.5 134.75 183 135.55 182.3 137.45 180.5 139.15 178.2 139.4 177.85 139.65 177.6 139 177.45 138.35 177.6
M 131.5 178
Q 129.2 178.35 128 178.4 127.05 178.35 126.75 178.15 126.8 177.75 127.45 177.7
L 129.75 177.4
Q 130.65 177.25 131.25 177.3 132 177.3 133 177.65 132.6 177.95 131.5 178
M 115.15 160.3
Q 115.2 159.55 116.1 157.95 116.75 157.1 117.05 156.85 117.85 156.3 118.9 156.8 119.95 157.25 120.3 158.25 120.55 158.7 120.55 159.45 120.85 158.85 121 158.05 121.1 157.15 121.4 156.95 121.6 156.8 122.15 156.75 122.7 156.75 123 156.55 123.1 156.45 123.4 155.85 123.7 155.15 124.3 154.85 125 154.5 125.65 154.6 127.15 154.8 127.75 156.3 128.2 157.75 127.3 159.05 127.9 159.2 128.3 159.7 128.7 160.2 128.65 160.85
L 128.65 160.9
Q 132.2 161.95 135.7 163.15 134.8 162.35 133.75 161.1 129.95 156.65 126.4 151.55 126.35 151.7 126.3 151.9 125.95 152.95 125.15 153.15 124.7 153.3 124 153.1 122.9 152.75 121.6 151.3 108.1 151.85 93.9 153.35 93.7 153.4 93.55 153.45 89.05 155.35 88.6 157.1 88.3 158.2 89 158.9 89.35 159.3 90.25 159.7
L 92.3 159.25
Q 94.7 158.8 95.65 158.8
L 97.4 158.9
Q 100.95 159.3 102.35 159.6 105.1 160.05 107.15 160.9 107.85 161.15 109.4 161.85 110.8 162.55 111.6 162.85 112.8 163.3 113.1 163.6 113.3 163.75 113.4 163.9 113.65 163.2 114.2 162.6 114.75 161.75 114.85 161.5 115.05 160.65 115.15 160.3
M 155.55 178.7
L 155.55 178.8
Q 155.35 178.95 154.95 179.8
L 154.2 181.4
Q 154.1 181.75 154 182.4 153.85 182.95 153.65 183.35 153.4 183.65 152.95 184.2 152.8 184.7 152.55 184.65 152.55 184.2 152.85 183.55
L 153.7 181.05
Q 154.05 179.8 154.95 178.65
L 154.5 178.65
Q 152.4 178.4 151.3 178.45 150 178.6 149.35 178.6 148.3 178.7 147.65 178.5 148.05 180 148.5 181.4 148.6 181.8 148.6 182.15 149.3 182.6 149.7 183.2
L 150.3 183.9
Q 150.5 184.1 151.05 184.5 151.35 184.75 151.75 185.5 152.05 185.9 152.65 186.6 153.1 187.2 153.15 187.65 155 185.5 157.05 182.6
L 158.7 180 158.3 178.65 155.55 178.7
M 135.1 155.9
Q 135.1 155.8 135.05 155.8 134.85 155.75 134.65 155.7 134.3 155.55 133.6 155.05 131.3 153.45 129.1 152.35 128.1 151.85 127.3 151.5
L 136.45 162.75
Q 136.85 163.2 137 163.6 138.15 163.95 139.2 164.35 139.4 164.4 139.6 164.55 139.55 164.35 139.45 164.15 139.15 163.3 138.95 162.8
L 138.05 161.45
Q 137.9 161.2 136.85 159.25
L 136.4 158.25
Q 135.75 156.75 135.1 155.9
M 145.6 169.8
Q 145.1 169.85 144.7 169.85 144.8 170.05 145.05 170.5 146.3 174.4 147.45 177.95 147.45 177.9 147.55 177.9
L 149.25 177.75
Q 151.95 177.65 153.05 177.75
L 155.55 177.9
Q 156.15 177.9 157.4 177.85 157.75 177.85 158 177.9
L 157.5 176.5
Q 157.45 176.2 157.4 175.95 157.4 175.5 157.5 174.9
L 157.75 173.95
Q 157.95 172.95 157.5 171.2
L 156.8 168.5
Q 156.8 168.45 156.8 168.4
L 153.85 168.8 154.25 169.9
Q 154.95 171.9 155.35 172.55 156.05 173.4 156.15 173.75 156.4 174.25 156.7 175.2
L 156.5 175.35
Q 156.2 175.2 155.7 174.15
L 154.85 172.9
Q 154.3 172.15 153.7 170.55 153.35 169.6 153.2 168.85
L 147.75 169.55
Q 147.8 169.6 147.8 169.7 148.55 170.95 150.05 172.7 150.8 173.6 152.5 175.45 153.1 176.15 153.1 176.7 152.75 176.75 152.35 176.25
L 150.4 174.05
Q 147.95 171.3 147.15 170 147 169.8 146.9 169.65
L 145.6 169.8
M 152.4 176.8
Q 152.65 176.75 152.7 176.65
L 153.55 177
Q 153.5 177.2 153.15 177.2
L 148.25 177.2 148.35 176.9
Q 150.35 176.5 152.4 176.8
M 144.1 158.7
Q 144.15 159.5 144.15 159.6
L 144 160.35
Q 144 160.6 144.15 161.1 144.35 161.5 144.7 163.3 145 165 145.1 165.5 148.45 165.4 151.85 165 147.5 161.45 144.3 158.05 144.15 157.85 144 157.7
L 144.1 158.7
M 121 163.3
Q 121.3 163.85 121.3 164.6 121.45 164.6 121.6 164.65 122.15 164.7 123.3 164.75
L 125.9 165.15
Q 129.4 165.65 131.15 165.85 131.6 165.9 135.55 166 134.05 165.35 132.6 165.25
L 131.25 165.2 126.6 164.1
Q 123.8 163.35 122.05 163.3 121.4 163.3 121 163.3
M 128.55 114.65
Q 128.3 115.45 127.7 116.35 126.55 116.55 125.5 114.55 124.4 112.2 124.05 111.5 123.45 110.15 121.7 109.6 121.95 110.5 122.2 111.7 123.1 115.35 123.3 117.2 123.45 118.9 123.3 121.5 123.1 123.95 122.25 130.75 122.5 130.25 123 129.7 123.7 129.05 124.05 128.65 124.7 127.65 124.85 127.55 125.6 126.95 126.75 127.4 127.35 127.6 128.6 128.2 128.85 127.7 129.4 127.55 129.85 127.4 130.3 127.5 130.35 126.4 130.65 125.3
L 131.05 123.85 131.85 118.75
Q 131.85 118.65 131.9 118.55 130.9 116.2 129.75 112.6 129.2 112 128.6 111.25 128.85 113.55 128.55 114.65
M 97.4 79.3
Q 97.3 79.2 97.25 79.05 96.75 78.5 96 78.3 95.55 78.2 94.95 78.25 94.35 78.25 94.3 78.2
L 93.85 79.85
Q 94.1 80.95 93.55 84.35 92.95 88.05 92.95 88.4
L 92.85 88.9
Q 92.9 89.05 92.85 89.2 93.35 90.8 95.2 93.15 97.15 95.65 97.65 96.95 97.95 97.7 98.4 99.8 99.4 105.25 99.5 108.05 99.5 109.9 99.15 113.5 98.85 115.8 98 116.4
L 98.35 110.9
Q 98.55 108.35 98.45 106.7 98.4 105.65 98.05 104.1 97.75 102.35 97.55 101.4 97.1 98.2 96.75 97.45 96.35 96.25 94.7 94.25 93.2 92.3 92.65 91.15 92.45 90.55 92.25 89.65 90.9 87.7 89.95 84.95 88.85 81.55 88.2 79.95 88 79.4 87.75 78.85 86.05 77.35 82.9 75.35
L 83.15 74.7
Q 85 75.9 86.4 76.85 84.1 74.05 80 72.95 77.7 72.35 77.4 73.15 77.15 73.8 76.15 76.5
L 75.8 76.45
Q 75.5 75.25 74.3 73.4 75.15 75.35 75.35 76.75
L 75.5 78.4
Q 75.55 80.2 75.05 83
L 73.9 91.2
Q 73.8 91.9 73.4 91.7 73.15 89.45 73.8 86.05
L 74.45 82.4
Q 74.6 81.05 74.55 79.05 74.6 77.35 74.35 76.2 74.25 75.5 73.8 74.2
L 72.05 70.45
Q 71.75 69.75 71.55 69.4 71.15 68.9 70.8 68.4 69.85 67.5 69.45 66.95 69.05 66.35 68.85 66 68.35 65.35 67.85 64.8 67.5 64.45 67.1 64.15 66.25 63.4 64.3 62.05 64.7 61.8 65.25 62 61.1 57.7 58.45 57 58.05 56.9 56.15 57.05 54.3 57.25 54.15 57.25 53.1 56.95 49.3 53.05 49.25 53 49.2 53 46.8 51.45 43.25 47.55 40.3 44.3 38.15 41.85 38.25 42.1 38.35 42.4 38.75 43 39.15 43.7 43.05 50.85 43.25 56.3 44.15 60.4 43.6 62.5 42.6 66.45 46.5 73.7 50.15 80.55 52.55 81.4
L 52.45 81.75
Q 52.2 81.8 51.9 81.85 52.6 82.45 53.5 83.05 56 84.8 57.25 85.4 57.95 85.75 59.5 86.2 62.8 87.4 63.9 87.75 66.35 88.6 68.4 88.95
L 69.9 89.35
Q 68.85 90.1 66.65 89.5 64.1 88.75 59.1 87.1 57.25 86.5 55.95 85.85 55.8 85.75 53.95 84.55 51.6 82.75 50.7 82.1 49.65 82.3 49.4 82.5 49.1 82.75 48.5 84.95 47.75 87.85 49.7 91.4 49.85 91.6 50 91.85 50.35 92.3 50.55 92.7 50.85 93.1 51.25 93.65 51.7 94.2 52.05 94.7 53.35 96.1 55.65 97.7 57.9 99.4 59.2 99.85 60.25 100.3 61.65 100.55 69.6 102.55 78.15 105.7 79.4 106.1 80.05 106.25 81.05 106.45 81.9 106.25 83.35 105.95 83.6 106.45 82.75 107.35 81.1 107.3 80.4 107.3 78.4 106.75
L 59.95 101.1
Q 58.6 100.75 57.65 100.3 56.8 99.9 55.55 98.95 55.05 98.55 54.55 98.2 55.75 100.05 55.9 100.7 56.15 102.05 56.75 103.65 57.55 104.35 58.35 106.15 61.2 112 63.9 114.4 66.05 116.25 69.6 117.55 69.95 117.65 75.95 119.45 76.8 119.7 80.1 120.85 82.65 121.7 84.25 122.1 87.5 122.9 92.5 123.35 95.3 123.55 100.85 124.05 102.1 124.05 102.7 124.75 101.9 125 100 125 94.2 124.6 91.2 124.3 86.35 123.75 82.55 122.65 81.7 122.45 77 120.9 70.35 118.85 68.35 118 65.95 116.95 64.15 115.7 63.8 116 62.95 116.2 62.2 116.6 61.9 117.7 61.3 119.9 63.6 122.1 64.7 123.15 66 123.85 64.85 122.95 64.15 121.8
L 64.45 121.7
Q 66.2 123.7 68.6 124.65 69.05 124.85 69.35 124.95 70.25 125 71.2 124.85
L 73.2 125.35
Q 73.25 125.6 73.3 125.8 73.55 125.9 73.8 126.05 73.75 126.25 73.5 126.35 74.5 128.85 79.1 131.7 84.4 134.95 88.55 135.05 87.3 135.8 87.1 136.45 86.6 138.3 89.3 140.55 91.3 142.3 93.4 143.05 94.45 143.2 95.5 143.2 96.85 143.25 98.65 143.1 100.7 142.85 103.3 142.3
L 120 139
Q 122.15 138.65 123.05 139.25
L 123 139.3
Q 123.8 139.75 124.4 140.2 124.75 140.25 125.2 140.35 124.85 140.05 124.7 139.65 124.35 139 124.45 138.5
L 124.6 136.7
Q 124.7 135.85 125.1 135.3 125.2 135.15 125.25 135.05 124.9 135 124.3 135 123.6 134.95 123.3 134.8 122.6 134.55 122.15 133.8 121.85 133.25 121.85 132.5 121.7 132.75 121.6 132.95 121 131.55 121.6 128.35 122.25 124.15 122.3 119.85
L 122.3 118.25
Q 122.15 115.2 120.5 109.55 120.4 109.35 120.35 109.1 119.6 108.65 119.35 108.15 119.3 107.95 118.8 106.4 118.4 106.05 117.45 105.25 116.35 104.45 116.15 103.75 115.95 103.3 116 101.9 116 99.2 114.85 96.85 114.3 95.95 113.45 95.3 113.3 95.25 113.15 95.25 111.3 94.75 110.9 95 111.7 96.15 111.45 97.95 111.4 98.5 110.75 100.9 110.45 101.9 110.2 102.55 111.45 106.05 112.1 110.9 112.5 114.05 112.8 117.65
L 113.5 125.7
Q 113.7 127 113.25 127.55 112.75 126.7 112.5 124.6
L 111.45 114.1
Q 110.85 107.6 109.85 104.25 109.45 102.9 108.75 101.5
L 107.95 99.9
Q 105.05 94.7 100.7 90.2 100.45 90.15 100.2 90.2 99.5 90.2 99.2 90.1 99.15 90.05 99.15 89.55 99.05 89.65 99 89.7 98.75 89.6 98.8 89 98.9 87.3 98.85 86 98.75 84.8 98.7 83.35 98.3 81 97.4 79.3
M 98.05 90.4
L 97.25 91.15
Q 96.95 91.4 96.85 91.45
L 96.6 91.55 96.3 91.8
Q 96.25 91.8 95.85 92.15 95.6 92.35 95.5 92.6
L 94.9 92.3
Q 94.75 92.05 95.05 91.85
L 95.4 91.6
Q 95.65 91.2 95.85 91 96 90.85 96.5 90.65 97.65 90.1 97.95 90.05
L 98.05 90.4
M 64.9 82.7
Q 56.1 71 50.1 61.85 44.1 52.7 41.4 46.15 60.6 78.55 85.85 106.75 97.35 119.55 106.3 125.9 108.4 127.4 112.65 130.2 116.35 132.75 118.55 135.1 103.65 126.6 89.15 111.8 78.45 100.7 64.9 82.7
M 74 125.9
Q 73.75 125.35 73.95 125
L 76.25 127.8
Q 77.8 129.65 78.85 130.35 80.1 131.2 82.75 131.9 86.1 132.7 90.3 132.8 93.45 132.8 93.9 132.9 94.45 133 97.15 133.55 97.75 133.65 100.75 133.9 105.35 134.35 108.4 134.25 109.8 134.3 112 134.05 113.2 134 115.6 133.55 115.3 134.25 114.8 134.5 114.25 134.9 113.25 135.05 109.85 135.6 103.75 135.15 98.6 134.8 96.75 134.5
L 93.6 134
Q 92.2 133.8 89.7 133.75 85.45 133.55 83 132.95 79.3 132.05 77.05 129.95 75.9 128.75 74 125.9
M 113.5 104.6
Q 113.7 104.5 114.1 104.2
L 114.4 104.2
Q 114.65 104.15 114.65 104 115 104.05 115.05 104.35 114.9 104.7 114.45 105 113.15 105.45 112.55 105.85 112.3 106.1 112.05 105.95 111.85 105.65 112.2 105.25 112.35 105.05 112.85 104.9
L 113.5 104.6
M 87.15 107.1
Q 83.45 103.25 82.15 100.8 90.35 109.65 99.1 117.95 104.55 123.1 108.8 126.05 110.35 127.1 113.5 129.3 115.4 130.7 118.05 133.35
L 122.85 138.05
Q 120.8 137.2 118.45 134.9 115.9 132.25 114.5 131 113.15 129.75 110.8 128.2 108.2 126.5 106.9 125.55 103.75 123.3 98.8 118.6 93.85 113.95 87.15 107.1
M 90.2 137.7
L 90.4 137.45
Q 93.15 138.65 94.65 139.05 98.7 140.1 102.85 139.25
L 102.9 139.25
Q 103.95 139.1 105.95 138.55 106.9 138.35 109.65 137.95 111.95 137.7 113.3 137.2 114.75 136.8 115.05 136.85 115.5 136.8 116.45 136.8
L 118.65 135.9
Q 118.8 136.35 118.45 136.7 118.1 137 117.7 136.9 117.65 137.2 117 137.4
L 114.95 137.95
Q 112.2 138.65 110.75 138.8 109.2 138.95 109.05 138.95
L 107.85 139.3 106.3 139.4
Q 105.65 139.5 104.65 139.75 103.4 140.1 103.05 140.15 102.6 140.25 102.1 140.35 97.15 141.15 91.75 138.8 90.65 138.3 90.2 137.7 Z"/>

<path fill="#D7D185" stroke="none" d="
M 138.5 166.9
Q 138.668359375 166.9341796875 138.8 167 138.8 166.9 138.85 166.9
L 138.5 166.9
M 140.3 163.15
L 139.85 162.1 140.25 163.15
Q 140.4 163.8 140.8 164.15 140.85 164.25 141 164.35 140.9 164.1 140.7 163.8 140.4 163.4 140.3 163.15
M 121.25 165.4
Q 121.15 166.35 120.65 166.95 121.65 167.1 122.65 167.2 127.65 167.75 131.25 167.65 133.15 167.7 134.15 167.55
L 137.45 166.95 136.5 166.95
Q 135.4 166.9 134.85 166.85
L 132.2 166.9
Q 130.85 166.85 129.3 166.6
L 123.3 165.75
Q 122.15 165.6 121.25 165.4
M 128.25 147.1
Q 127.75 147.7 127.7 148.45 127.55 148.85 127.35 149
L 127 148.95 125.95 148.6
Q 126.25 149.35 126.45 150.1
L 126.4 150.15
Q 126.55 150.05 126.7 149.95 127.2 149.85 128.15 150.1
L 131.05 150.9
Q 130.25 149.95 128.9 148.6 128.35 148 127.95 147.8 127.95 147.6 128.35 147.6 129 147.7 129.8 148.3
L 130.95 149.15 133 151.45
Q 133.5 151.65 133.8 151.85 133.75 152 133.6 152.15
L 134.8 153.5
Q 136 155.05 136.4 155.6 136.95 156.45 137.5 157.65
L 138.05 158.85
Q 138.1923828125 159.324609375 138.55 159.85
L 138.55 159.8
Q 138.5 159.5 137.8 158 137 155.75 136.45 154.7 136.05 153.7 135.05 152.1 133.95 150.3 133.55 149.7
L 133.1 148.65
Q 132.85 148.1 132.65 147.75
L 132.2 147.2
Q 131.95 146.9 131.75 146.4 131.3 147.1 130.65 147.4 129.9 147.7 129.25 147.45
L 129.15 147.5 128.25 147.1
M 184.8 191.15
Q 184.9 191.2 185 191.2
L 160.1 178.5 160.2 179.3 184.8 191.15
M 176.35 174.85
Q 176.6 175.5 176.75 176.25 177.35 176.7 178 177.15 184.8 182.4 188.3 185.85
L 192 189.8
Q 194.35 192.4 196.65 195.1 197.3 196 197.95 197 198.6 197.95 199.6 198.7 200.75 199.45 201.7 200.45 201.95 200.8 202.3 201.15
L 205.9 205.3
Q 205.7 204.4 205.55 203.5 205.4 203.1 205.35 202.75
L 204.7 201.85
Q 203.35 200.35 203 199.6 202.05 198.3 202.05 197.05 201.95 195.9 201.85 195.8 201.7 195.4 200.8 194.85 200.75 195 200.6 195.05 200.15 195.4 199.75 194.85 199.65 194.7 199.6 194.55
L 199.55 194.5
Q 198.75 193.95 197.9 193.15 197.65 193 197.4 192.85 196.25 191.75 194.9 190.4 192.15 187.6 190.75 186.25 188.35 183.9 186.4 182.35 185 181.25 182.15 179.25 179.25 177.25 177.85 176.15 177.1 175.45 176.35 174.85
M 148.3 183.55
Q 148.3 184 147.7 184.7 147.55 185.1 147.5 185.9 147.45 186.1 147.3 186.4 147.2 186.75 147.2 187 147.4 187.45 147.4 187.5 148.4 187.3 148.55 187.3 149.35 187.25 149.7 187.6
L 150.25 188.15
Q 150.7 188.55 151.05 188.45 151.25 188.4 151.6 187.9 151.75 187.8 151.7 187.65
L 151.65 187.45
Q 150.85 186.75 150.2 185.75
L 149.85 185.3 149.5 185 148.3 183.55
M 144.95 173.95
Q 144.85 173.95 144.75 173.95
L 146.7 179.85 147.1 180.6 147.4 181.9 147.55 181.95 144.95 173.95
M 127.7 187.55
Q 127.6 187.6 127.35 187.75 127.25 188.45 126.65 188.8
L 125.9 189.05
Q 125.45 189.15 125.3 189.1
L 124.9 188.95
Q 124.75 188.85 124.55 188.75 124.45 188.95 124.3 189.2
L 123.25 191.2
Q 122.3 193.25 122.4 194.15 122.95 194.1 123.8 193.3
L 124.9 192.3
Q 125.7 191.6 126.05 191.15 126.7 190.35 126.75 190.25 127 190 127.25 189.9
L 127.2 189.85
Q 127.2 189.7 127 189.55 126.95 189.35 127.05 189.3 127.5 189.05 128 189.3 128.35 189.5 128.5 189.3 128 188.45 128 187.4
L 128.05 187.35
Q 127.9 187.45 127.7 187.55
M 136 166
Q 136.25 166.05 136.65 166.1 136.5 166.05 136.4 166 136.05 165.9 135.85 166.05 135.95 166 136 166
M 141.15 164.25
Q 141.15 164.45 141.05 164.5 141.1 164.65 141.15 164.75 141.2 164.9 141.35 165.3 141.45 165.4 141.65 165.5 141.5 165.1 141.15 164.25
M 132.7 153.05
Q 132.35 152.55 132.15 152.2
L 130.1 151.75
Q 131.05 152.1 131.8 152.5 132.1 152.7 132.7 153.05
M 139.7 152.65
Q 139.6 152.5 139.25 152.45
L 139.85 154.9
Q 140 155.65 140.25 156.65
L 140.2 152.95 140.1 152.95 139.8 152.8 139.7 152.65
M 145.05 155.65
Q 145.1 155.5 145.15 155.4 144.2 155.15 143.6 154.7 143.5 154.65 143.45 154.6
L 143.8 156.7 143.8 156.65
Q 144.55 156.8 145.9 157.9
L 153.25 164.4
Q 153.55 164.55 153.65 164.75 154.6 164.7 155.45 164.55 153.65 163.15 152.15 161.55 150.7 160 149.9 159.25 147.75 157.15 145.05 155.65
M 153.85 158.65
L 153.15 158.3
Q 152.7 157.95 152.7 157.6 151.75 157.35 150.9 157.1 151.15 157.35 151.4 157.6
L 153.25 159.2
Q 154.15 160 155.35 161.45 155.55 161.8 155.45 162.05 154.8 161.8 154.1 161 153.3 160.15 152.9 159.8 150.8 158.3 150.1 157.3 149.95 157 149.95 156.85 148.3 156.35 147.05 156 148.85 157.15 151.1 159.3
L 156.3 164.4
Q 156.5 164.35 156.7 164.3 157.85 164.1 158.65 164.15 158.2 163.85 157.8 163.3 156.95 162.2 156.55 161.65 155.4 160.45 154.8 159.8 154.05 158.8 153.85 158.65
M 118.55 174.95
Q 118.35 174.85 118 175 117.7 175.05 117.6 175.3 117.25 175.95 118.25 176.55 119.4 177.2 119.2 177.8 119.25 178 118.85 178.45 118.5 178.95 118.65 179.3 118.9 179.4 120.1 179.55 120.95 179.6 121.25 180.1 121.45 180.3 121.55 180.85 121.9 181.3 122.45 181.3 123 181.3 123.45 180.95 123.85 180.7 123.95 180.15 124.1 179.6 123.7 179.35
L 123.05 179
Q 122.5 178.75 122.6 178.35 122.7 177.9 123.5 178 123.6 178.05 123.75 178.05 123.85 177.75 124.4 177.3 126.15 176 130.35 174 133.1 172.75 134.85 171.6 134.65 171.55 134.6 171.55 134.05 171.8 133.4 172.1 127.45 174.75 121.45 176.4 121.3 176.4 121.25 176.45 121.35 176.55 121.45 176.75 121.75 177.25 121.7 177.4 121.6 177.7 121.25 178.15 121 178.1 120.6 177.5
L 120.5 177.35
Q 120.45 177.5 120.35 177.6
L 119.9 177.4
Q 119.75 176.65 119.35 175.7 118.9 175.1 118.55 174.95
M 120.3 162.4
Q 120.35 162.35 120.35 162.4 123.05 162.35 124.1 162.45
L 131.95 164.25
Q 132.55 164.3 133.85 164.35
L 136.55 165.1
Q 137.45 165.3 138.35 165.55
L 128.3 161.95
Q 125.85 161.05 124.8 160.35 125.4 160 126.65 160.3 126.6 160.2 126.5 160.1 125.75 159.2 126.15 158.35
L 126.45 157.75
Q 126.7 157.3 126.5 156.85 126.35 156.35 125.9 156.15 125.4 155.9 125 156.1 124.5 156.3 124.3 156.75 124.2 156.8 124.1 157.25 123.95 157.6 123.8 157.75 123.5 158 122.95 157.95 122.2 157.95 121.95 158.1 121.75 159.85 120.65 160.9 120.55 160.9 120.4 160.95 120.3 161.55 120.05 162.25 120.15 162.3 120.3 162.4
M 117.4 158.4
Q 117 159.3 116.8 159.45 116.3 160 116.25 160.15 116.15 160.45 116.5 161 116.7 161.7 115.8 162.6
L 114.85 163.65
Q 114.3 164.35 114.25 164.65 114.25 165.25 114.85 165.95 115.6 166.65 115.7 167.1 115.8 167.4 115.6 168.5 115.45 169.3 115.7 170.2 115.85 170.9 116.35 171 116.95 171.15 117.4 170.25 117.8 169.55 117.8 169.15
L 117.55 167.8
Q 117.55 166.9 117.95 166.55 118.7 166.4 119.05 166.25 119.85 166.05 119.95 165.1 119.65 165.05 119.45 164.95
L 119.4 164.7
Q 119.7 164.55 119.9 164.4 119.7 163.7 119.05 163.1 118.15 162.3 118.45 161.7 118.55 161.5 119 161.35 119.4 161.25 119.5 161
L 119.25 159.25
Q 119.15 158.35 119 158.2 118.65 157.6 118.2 157.7 117.7 157.75 117.4 158.4
M 142.6 146.4
L 142.6 146.35
Q 142.2 146.35 141.75 146.3 141.3 146.25 140.95 146.2
L 141.4 149.3
Q 141.35 148.85 141.45 148.65 141.55 148.25 142.05 147.55 142.55 146.8 142.6 146.4
M 134.9 144.25
Q 134.7 144.85 134.45 145.2 134.3 145.6 133.9 145.8 133.55 145.9 133 145.75 132.35 145.6 132.1 145.65 132.05 145.8 132 146
L 132.05 146
Q 133.05 146.9 133.9 148.55
L 134.4 149.55
Q 134.75 150.6 134.9 150.8 135.25 151.35 136.15 152.45 136.5 153.05 137 154.3 137.75 155.65 137.8 155.8
L 138.2 157.05
Q 138.4 157.8 139.15 159.2
L 139.6 160.6 140.25 161.65
Q 139.95 160.8 139.7 159.9 138.85 157 138.55 155.5
L 138.15 153.65
Q 137.35 150.25 135.75 146.25 135.3 145.15 134.9 144.25
M 139.2 140.75
Q 138.8 141 138.6 141.1
L 137.85 141.5
Q 137.45 141.8 137.55 142.1 137.9 142.5 138.6 142.3 139.45 142.1 139.65 142.15 140.3 142.35 140.55 143.5 140.75 144.7 141.35 144.9 141.9 145.1 142.7 144.5 143.55 143.75 144.05 143.75
L 144.65 143.8
Q 145 143.85 145.2 143.75 145.85 143.45 145.6 142.7 145.45 142.25 144.85 141.85 144.5 141.75 143.7 141.6 142.95 141.5 142.6 141.65 142.05 141.85 141.7 141.9 141.35 141.9 140.95 141.4 140.45 140.85 140.2 140.75 139.7 140.45 139.2 140.75
M 122.75 146.8
Q 122.7 146.65 122.65 146.55 121.9 145.85 121.3 145.6 120.45 145.25 120.2 145.75 120 146.05 120.25 146.6
L 120.75 147.65 121.7 148.9
Q 122.1 149.45 122.8 150.5 123.5 151.4 124.35 151.6 125 151.65 125.1 151.25 124.95 150.85 125 150.7 124.95 150.45 125.15 150.1 125.25 149.65 125.25 149.45
L 124.95 149 123.6 147.45
Q 123 147.2 122.75 146.8
M 127.65 140.35
Q 127.55 140.5 127.3 141 127.15 141.4 126.95 141.6 126.35 142.05 125.35 141.8 124.25 141.5 123.65 141.45 122.55 141.6 122.5 142.45 122.5 142.95 123.25 143.25 124.2 143.65 124.3 143.8 125 144.55 124 145.95 124.3 146.1 124.55 146.35 125.4 147.2 125.85 148.3 125.9 148.05 126.15 147.95 126.4 147.85 126.95 147.9 126.95 146.95 127.15 146.65 127.45 145.85 128.1 145.9
L 128.2 145.85
Q 128.75 146 129.05 146.1 129.2 146.2 129.2 146.3 129.75 146.35 130.15 146.15 130.7 145.9 130.9 145.4 131.15 144.7 131.35 144.5 131.7 144.25 132.35 144.4 133.05 144.6 133.3 144.55
L 133.8 144
Q 134 143.65 134.2 142.65 134.35 141.95 134.6 141.55 134.45 140.65 134 139.8 133.55 138.95 132.8 138.75 132.4 138.7 132 138.9 131.75 139.05 131.7 139.25 131.9 139.55 132.05 139.9 132.2 140.4 132.05 140.55 131.95 140.65 131.65 140.65 131.55 140.9 131.3 141 130.65 140.85 130.4 140.45 130.3 140.25 130.4 139.75 130 139.65 129.55 139.45 129.4 139.45 129.25 139.45 128.1 139.5 127.65 140.35
M 128.1 129.25
Q 127.5 128.9 127.15 128.75 125.8 128.25 125.25 129.05 125.1 129.35 124.95 129.9 124.85 130 124.25 130.5 123.7 130.95 123.5 131.2 123 131.9 123.15 132.4 123.3 133.2 124.25 133.55
L 125.95 133.85
Q 127.15 134.05 127.9 134.95 128.3 135.35 129.1 136.7 129.85 137.85 130.45 138.4
L 130.5 138.4
Q 130 137.75 129.55 136.7 128.45 134.35 129.1 133.15 129.95 132.25 130.2 131.75 130.8 130.8 130.55 129.65 130.55 129.25 130.15 129 129.9 128.8 129.55 129 129.2 129.15 129.15 129.45 128.7 129.5 128.1 129.25
M 197.35 182.4
Q 197.25 182.4 197.2 182.4 196.75 182.3 196.6 182.25 196.5 182.4 196.75 182.85 196.95 183.2 197.2 184.05 197.55 184.8 198.15 184.65
L 198.35 184.4
Q 198.6 184.4 198.65 184.7 198.85 185.1 198.75 185.4 198.65 185.65 198.5 185.7 198.55 185.85 198.55 186.05 198.7 187.25 199 188.35 198.95 185.65 199.65 183.5 199.9 182.55 199.45 182.35 198.9 182.95 198.7 183.65 198.65 183.9 198.55 184.05
L 197.95 183.95
Q 197.65 183.2 197.35 182.4
M 183.1 165.75
Q 183.1 165.55 182.9 165.4 182.7 165.15 182.65 165.05
L 182.8 164.6
Q 182.9 164.15 182.45 163.35 182.25 162.8 182.05 162.55 181.9 162.2 181.65 162.2 181.45 163.05 181.45 163.2 181.6 163.85 181.55 163.95 181.55 164.45 181.25 164.65 181.2 164.75 180.75 165 180.3 165.45 180.2 165.6 179.8 166.1 179.75 166.7
L 180.35 166.75
Q 180.35 166.5 180.7 166.3 181.75 165.65 183.1 165.75
M 194.25 160.25
L 193.15 160.05
Q 192.9 160.5 193.25 160.95
L 193.85 161.6
Q 194.45 162.25 194.4 163.05
L 194.25 164.05
Q 193.95 165.55 194.8 166.75 195.4 166.3 195.45 165.45 195.55 165.15 195.4 164.55 195.25 163.9 195.25 163.6 195.25 163 195.85 162 196.45 160.9 196.5 160.35 196.35 160.4 195.75 160.05 195.2 159.9 195.05 160.25 195.4 160.55 195.15 161.05
L 194.55 160.85
Q 194.15 160.55 194.25 160.25 Z"/>
</g>
</defs>

<g transform="matrix( 1, 0, 0, 1, -21.5,-23.35) ">
<use xlink:href="#Layer1_0_FILL"/>
</g>

<g transform="matrix( 1, 0, 0, 1, 0,0) ">
<use xlink:href="#Layer0_0_FILL"/>
</g>
</svg>
