<?xml version="1.0" encoding="UTF-8"?>
<svg xmlns="http://www.w3.org/2000/svg" viewBox="0 0 150 150">
  <defs>
    <style>
      .cls-1 {
        fill: #fff;
      }

      .cls-2 {
        fill: #cda45e;
      }
    </style>
  </defs>
  <g id="Camada_3" data-name="Camada 3">
    <circle class="cls-2" cx="75" cy="75" r="62.5"/>
  </g>
  <g id="Camada_1" data-name="Camada 1">
    <g>
      <path class="cls-1" d="M110.74,78.32c.85,1.57,1.17,3.38.92,5.15-.26,2.15-1.32,4.12-2.98,5.52-.11.13-.32.21-.32.4.24.65.42,1.33.54,2.02.35,4.07-2.17,7.83-6.06,9.07-1.16.36-2.37.49-3.58.41-.69-.06-1.37-.24-2-.53-1.34,1.49-3.06,2.57-4.98,3.13-3.55.95-7.34-.19-9.77-2.95-.32-.42-.68-.81-1.06-1.17-.58.15-1.12.44-1.56.85.01.26.08.52.19.76.67,1.59.75,3.37.2,5-.26.5-.43,1.04-.49,1.6,0,3.1,0,6.2,0,9.29.05.54,0,1.09-.17,1.61-.31.84-1.08,1.42-1.98,1.49-1.7.02-3.4.02-5.09,0-.73-.05-1.38-.46-1.76-1.07-.31-.53-.46-1.14-.43-1.75-.02-3.28,0-6.55-.03-9.82-.05-.38-.18-.75-.39-1.08-.49-1.32-.63-2.75-.4-4.14.11-1.31.61-2.56,1.44-3.58.1-1.19.42-2.34.92-3.42,1.95-4.11,6.69-6.08,10.98-4.58,1.38.5,2.64,1.3,3.69,2.32,1.56-1.06,3.45-1.53,5.33-1.34,1.02.1,2.02.38,2.95.8.63-1.73,1.94-3.14,3.63-3.89.6-.23,1.21-.38,1.85-.46.41-.11.75-.39.93-.76-.4-.57-.74-1.18-1.01-1.81-1.03-2.56-.76-5.45.73-7.77.33-.53.78-.96,1.12-1.47-.15-.29-.34-.56-.56-.81-1.34-1.73-2.01-3.88-1.9-6.06,0-2.03.69-3.99,1.99-5.55.15-.22.42-.41.43-.69-.72-.73-1.34-1.55-1.84-2.45-.83-1.58-.67-3.49.41-4.9.58-.49.95-1.19,1.03-1.94-.06-.65-.4-1.24-.93-1.62-.53-.38-1.19-.53-1.83-.39-.38.12-.69.39-.87.75-.68,1.23-1.59,2.32-2.67,3.21-1.3.96-2.85,1.54-4.46,1.65-1.13.02-2.27-.15-3.35-.49-.97,1.36-2.29,2.43-3.81,3.12-2,.88-4.27.91-6.3.09-.82-.36-1.59-.81-2.3-1.36-1.56,1.36-3.58,2.06-5.64,1.95-2.07-.09-4.04-.94-5.54-2.38-.47-.43-.87-.94-1.33-1.39h0c-1.07.34-2.19.49-3.31.45-2.05-.14-3.97-1.03-5.41-2.51-.61-.64-1.13-1.36-1.57-2.13-.23-.49-.66-.84-1.18-.97-.69-.11-1.39.13-1.88.62-.49.5-.71,1.2-.59,1.89.29.95,1.18,1.55,1.58,2.45.88,2.01.19,4.36-1.62,5.59.38.76,1.04,1.34,1.42,2.1,1.75,3.18,1.64,7.05-.29,10.12-.43.62-.91,1.23-1.41,1.8.64.77,1.22,1.59,1.73,2.46.87,2,.94,4.26.2,6.32,3.99.32,7.15,3.5,7.45,7.49.1,1.83-.39,3.64-1.41,5.16-.42.5-.8,1.03-1.13,1.6.03,1.6,1,3.04,2.48,3.66.82.15,1.66.23,2.5.23,1.03.25,1.76,1.16,1.78,2.22-.03,1.19-.94,2.17-2.13,2.3-1.42.14-2.86-.04-4.2-.55-1.97-.79-3.53-2.35-4.32-4.32-.2-.51-.36-1.02-.49-1.55-.44-.05-.89-.07-1.34-.07-2.23-.1-4.34-1.04-5.92-2.62-2.47-2.4-3.21-6.08-1.88-9.25-.37-.53-.85-.96-1.25-1.46h0c-1.49-1.84-2.2-4.19-1.98-6.55.13-1.61.79-3.13,1.88-4.31.28-.3.81-.7.37-1.11-1.42-1.5-2.28-3.44-2.47-5.5-.25-2.27.26-4.56,1.45-6.5.29-.49.7-.9.97-1.4h0c-.42-.49-.82-1.01-1.19-1.55-1.58-2.91-1.35-6.46.59-9.15.51-.63,1.07-1.23,1.65-1.79.13-.62.1-1.27.22-1.9h0c.63-4.02,3.71-7.22,7.69-8.01,2.32-.39,4.7.1,6.67,1.37,1.2.81,2.18,1.91,2.87,3.19,2.8.29,5.38,1.64,7.22,3.77,2.82-1.27,6.12-.82,8.5,1.17.1.07.23.26.35.1,2.3-2.04,5.58-2.56,8.4-1.33.31.16.5-.21.72-.38h0c1.7-1.91,4.09-3.07,6.64-3.24.65-1.19,1.54-2.23,2.61-3.05,2.05-1.46,4.61-2.02,7.08-1.53,2.06.39,3.92,1.45,5.3,3.03,1.54,1.7,2.39,3.92,2.4,6.21.02.26-.08.59.18.75h0c1.42,1.2,2.44,2.8,2.91,4.59.61,2.28.23,4.71-1.04,6.7-.46.55-.87,1.14-1.21,1.77.64.62,1.19,1.34,1.62,2.13.92,1.89,1.2,4.03.77,6.08-.22,1.23-.69,2.4-1.4,3.43-.31.46-.74.83-1.01,1.32h0c.55.68,1.06,1.39,1.52,2.12h0Z"/>
      <path class="cls-1" d="M56.96,60.08c1-.26,2.05.18,2.56,1.07.39.67.32,1.52.82,2.14.63.74,1.54,1.2,2.51,1.25,7,.02,14.01,0,21.02.01,1.19-.03,2.39.02,3.57.16,1.79.29,3.47,1.07,4.84,2.26,1.69,1.54,2.67,3.71,2.72,5.99.02,3.31.03,6.62,0,9.93h0c-.16,1.65-.87,3.2-2.02,4.39-.78.82-2.01,1.01-2.99.46-.81-.47-1.24-1.38-1.1-2.3.06-1.06,1.3-1.57,1.31-2.64.09-3.23.02-6.47.03-9.7.04-.7-.17-1.38-.6-1.93-.91-1.11-2.28-1.75-3.72-1.74-7.13,0-14.26,0-21.39,0-1.25.09-2.5,0-3.72-.26-2.21-.63-4.04-2.17-5.03-4.24-.5-.93-.67-2.01-.47-3.05.17-.86.81-1.55,1.65-1.79h0Z"/>
      <path class="cls-1" d="M63.66,73.14c5.08,0,10.17-.05,15.25.02h0c1.91-.04,3.78.6,5.27,1.81,1.63,1.4,2.52,3.48,2.43,5.63-.09,1.32-.61,2.57-1.48,3.57-1.45,1.62-3.54,2.52-5.72,2.46-3.4,0-6.79,0-10.18-.01-.91-.03-1.77.39-2.3,1.12-.66.99-.55,2.31.25,3.18.72.59,1.13,1.49,1.08,2.42-.12.64-.5,1.2-1.05,1.54s-1.22.44-1.85.26c-1.2-.51-2.17-1.45-2.72-2.62-.84-1.61-1.09-3.46-.71-5.23.49-2.4,2.24-4.35,4.57-5.11,1.39-.35,2.83-.47,4.26-.36,2.97,0,5.94.02,8.91.02h0c.57.03,1.14-.16,1.57-.54.63-.55.75-1.49.3-2.19-.46-.65-1.2-1.05-2-1.07-5.39,0-10.78-.03-16.17,0-1.33.03-2.56.74-3.24,1.89-.42.75-.09,1.63-.36,2.41-.27.81-.99,1.4-1.84,1.48-.8.04-1.56-.32-2.03-.95-.57-.94-.76-2.05-.55-3.13.17-1.53.87-2.95,1.98-4.02,1.67-1.68,3.96-2.6,6.33-2.56h0Z"/>
    </g>
  </g>
</svg>