<?xml version="1.0" encoding="UTF-8"?>
<svg xmlns="http://www.w3.org/2000/svg" viewBox="0 0 150 150">
  <defs>
    <style>
      .cls-1 {
        fill: #fff;
      }

      .cls-2 {
        fill: #cda45e;
      }
    </style>
  </defs>
  <g id="Camada_3" data-name="Camada 3">
    <circle class="cls-2" cx="75" cy="75" r="62.5"/>
  </g>
  <g id="Camada_1" data-name="Camada 1">
    <path class="cls-1" d="M95.33,25.01c-.19.01-.38.05-.56.1-.76.2-1.41.69-1.8,1.37-1.22,2.11-2.18,4.32-2.88,6.58-.02.05-.03.1-.05.14-1.72,5.6-1.87,11.55-.43,17.17-4.29-1.1-8.73-1.26-13.05-.54-6.5,1.09-12.69,4.18-17.6,9.09,0,0-.02,0-.02,0-8.18,8.18-11.3,19.92-8.55,30.66-2.89-.74-5.87-1.06-8.84-.96-2.81.09-5.62.56-8.35,1.39-.05.01-.1.03-.15.05-2.26.71-4.47,1.67-6.57,2.88-1.41.81-1.89,2.61-1.09,4.01,0,0,0,0,0,0,.81,1.41,2.61,1.89,4.01,1.09,0,0,0,0,0,0,1.25-.72,2.53-1.32,3.85-1.82l20.48,20.48c-.49,1.32-1.09,2.6-1.82,3.85-.81,1.41-.33,3.21,1.08,4.02,0,0,0,0,0,0,1.41.81,3.21.32,4.01-1.09,0,0,0,0,0,0,1.22-2.11,2.19-4.32,2.89-6.58.02-.06.04-.13.06-.2,1.7-5.58,1.85-11.51.42-17.11,10.74,2.75,22.48-.39,30.67-8.57.04-.04.08-.08.12-.13,3.74-3.78,6.41-8.3,7.93-13.12.05-.14.1-.28.13-.42,1.65-5.5,1.82-11.37.38-16.97,5.63,1.44,11.58,1.28,17.19-.45.03,0,.07-.02.1-.03,2.27-.71,4.49-1.67,6.6-2.89,1.41-.8,1.9-2.6,1.1-4.01,0,0-.01-.02-.02-.03-.82-1.4-2.61-1.88-4.01-1.06-1.25.72-2.53,1.32-3.85,1.82l-20.48-20.48c.49-1.32,1.09-2.61,1.81-3.85.81-1.41.32-3.21-1.09-4.01,0,0,0,0,0,0-.5-.29-1.07-.42-1.65-.38h0ZM94.74,40.07l15.18,15.18c-4.39.36-8.84-.41-12.91-2.25-1.84-4.08-2.62-8.53-2.26-12.92ZM81.22,55.33c3.72.02,7.44.94,10.94,2.51,1.82,4.06,2.55,8.45,2.22,12.75l-15.18-15.18c.67-.06,1.34-.09,2.01-.09h0ZM72.47,57l20.44,20.44c-.93,2.57-2.29,5.01-4.06,7.23l-23.56-23.56c2.2-1.77,4.62-3.14,7.17-4.12ZM61.15,65.29l23.55,23.55c-2.22,1.77-4.67,3.12-7.24,4.06l-20.37-20.37c.93-2.57,2.29-5.01,4.06-7.23ZM55.62,79.36l15.01,15.01c-4.31.33-8.71-.4-12.78-2.23-1.83-4.07-2.56-8.47-2.23-12.78ZM41.91,94.63c3.79-.04,7.58.77,11.09,2.35,1.84,4.07,2.61,8.52,2.25,12.91l-15.17-15.17c.61-.05,1.22-.09,1.83-.09h0Z"/>
  </g>
</svg>