<?xml version="1.0" encoding="UTF-8"?>
<svg id="Camada_1" data-name="Camada 1" xmlns="http://www.w3.org/2000/svg" viewBox="0 0 50 50">
  <defs>
    <style>
      .cls-1 {
        fill: #3b3d35;
      }
    </style>
  </defs>
  <path class="cls-1" d="M20.48,39.94c3.87,0,7.65-1.15,10.85-3.31l11.26,11.26c1.47,1.47,3.84,1.47,5.31,0,1.47-1.47,1.47-3.84,0-5.31,0,0,0,0,0,0l-11.26-11.26c5.99-8.93,3.61-21.02-5.32-27.01C22.39-1.68,10.29.7,4.3,9.63-1.69,18.56.7,30.65,9.62,36.64c3.21,2.15,6.99,3.3,10.85,3.3ZM20.48,5.5c8.27,0,14.97,6.7,14.97,14.97,0,8.27-6.7,14.97-14.97,14.97-8.27,0-14.97-6.7-14.97-14.97h0c0-8.26,6.71-14.96,14.97-14.97Z"/>
</svg>