
<svg xmlns="http://www.w3.org/2000/svg" version="1.1" xmlns:xlink="http://www.w3.org/1999/xlink" preserveAspectRatio="none" x="0px" y="0px" width="350px" height="310px" viewBox="0 0 350 310">
<defs>
<linearGradient id="Gradient_1" gradientUnits="userSpaceOnUse" x1="243.6875" y1="84.025" x2="102.91250000000001" y2="224.775" spreadMethod="pad">
<stop  offset="0%" stop-color="#EC9C75"/>

<stop  offset="98.43137254901961%" stop-color="#EBACA5"/>
</linearGradient>

<g id="Layer0_0_FILL">
<path fill="#43463D" stroke="none" d="
M 55.45 284.5
Q 55.3 284.55 55.1 284.4 54.1 284.9 53.95 287.1 53.8 288.35 53.75 290.35 53.6 291.45 51.4 296.75 50.15 299.7 46.4 304.8 45.9931640625 305.3830078125 45.6 305.9
L 48.1 305.9
Q 50.950390625 302.5060546875 52.8 298.4 55.55 292.15 55.55 285.25 55.55 284.55 55.45 284.5
M 26.95 240.35
L 26.65 241.7
Q 29.65 254.1 31.6 269.65 32.25 274.75 32.6 283.95 32.6 284.55 32.7 285.25 31.1 281.6 26.25 278.45 16.65 273.4 11.7 270.05 9.2 267.55 4.8 258.55 4.218359375 257.3732421875 3.6 256.3
L 3.6 264.1
Q 7.21328125 270.27421875 11.3 274.05 12 274.65 19.05 278.2 25.65 281.55 27.2 283.7 28.65 285.8 30.45 290.4 31.45 293.1 32.5 294.85
L 32.5 294.9
Q 30.6 293.5 28.95 292.85 25.55 290.1 21.55 288.6 21 288.4 20.4 288.2 18.35 286.85 17.45 286.3 12.35 284.45 9.9 283.55 6.77421875 282.5080078125 3.6 282.55
L 3.6 286.25
Q 5.0380859375 286.2 6.75 286.2 7.5 286.2 11.2 287.55 15.35 289.25 21.5 292.5 23.15 293.45 24.7 294.3 29.35 296.9 32 298.1 32.5 300.05 37.2 305.75 37.2587890625 305.8255859375 37.3 305.9
L 41.65 305.9
Q 40.60625 304.5751953125 39.3 302.85 39.2 302.7 39.1 302.55 46 292 48.5 286.5 52.4 277.8 52.4 269.05 52.4 265.95 52.1 264.85
L 51.35 264.85
Q 52 272.7 47.3 284.4 44.75 290.75 39 302.4 38.25 301.4 37.65 300.6 40.4 293.8 41.1 285.2 41.4 281.4 41.4 269.6 41.4 260.45 41.25 257.5 40.8140625 250.815625 39.15 245.55
L 39.05 245.25
Q 38.2 245.5 37.9 246 37.55 246.55 37.55 247.9 37.55 248.85 38.3 253.75 39.05 258.7 39.05 259.6 39.05 265.55 36.6 296.1 36.6 296.2 36.6 296.45 36.65 297.1 36.85 298.45 36.9 299.1 36.95 299.65 35 296.9 34.75 296.1 34.8 296.05 34.85 296.05 35.15 295.85 35.4 295.7 35.45 296.4 35.45 294.5 35.45 294.05 34.4 291.8
L 34.4 273
Q 34.05 271.2 31.5 256.15 29.8 246.05 27.95 240.35
L 26.95 240.35
M 151.15 43
L 151.4 43.45
Q 152.15 42.95 155.55 40.45 158.85 38 159.75 37.15 159.3 37.35 155.7 39.85 151.65 42.7 151.15 43
M 249.65 182.5
L 249.2 182.5
Q 253.55 191.4 262.6 210.65 270.45 226.9 277 237.7
L 277 250.65
Q 277.8 252.85 278.45 252.85 278.1 234.7 277.75 225.8
L 277 225.8 277 237.25
Q 263.4 207.3 249.65 182.5
M 216.05 69.55
Q 215.95 68.15 215.95 67.1 215.8 67.2 215.65 67.25 214.5 67.75 214.35 67.95 214.1 68.15 214.1 68.6 214.1 70.2 214.45 75.35 214.85 81.05 215.25 84.4
L 216.2 84.25
Q 216.5 82.05 216.5 77.5 216.15 72.65 216.05 69.55
M 195.75 67.25
Q 195.75 67.45 195.3 67.6 199.8 71.95 201.6 78.35 202.5 81.3 203.75 86.85 203.9 87.4 204.05 88.05 204.15 88.65 204.3 89.2
L 205 89.05
Q 204.9 88.5 204.85 88 204.75 87.4 204.65 86.85 203.6 81.15 202.65 77.85 200.55 70.85 195.75 67.25
M 189.6 24.15
Q 192.4 21.2 192.35 19.05 191.8 19.35 190.55 20.65 190.85 19.9 190.7 19.3 190.1 19.7 187.55 22.5 184.85 25.5 184.05 26.15 185.15 26.1 186.65 24.95 184.75 27.3 184.05 28.5
L 184.6 28.85
Q 186.05 27.4 189.6 24.15
M 346.45 3.05
L 346.45 2.75 34.2 2.75
Q 34.8595703125 2.790625 35.5 2.8 55.2595703125 2.81328125 75 2.8 72.6166015625 5.10390625 71.25 6.35 69.7 7.85 65.4 11.1 65.2 11.25 65 11.4 60.45 14.8 60 15.15 62.9 13.7 65.7 12 69.2 9.65 72.55 6.8 74.9201171875 4.79453125 76.8 2.8 78.7076171875 2.826171875 80.55 2.8 80.0291015625 3.40390625 79.55 3.9 76.05 7.35 71.6 9.5
L 71.7 9.85
Q 76.4 8.25 80.15 4.65 81.1150390625 3.726171875 81.85 2.8 103.942578125 2.8404296875 126 2.85 126.117578125 3.147265625 126.25 3.45 126.75 4.45 127.55 5.45 128.2 6.25 128.95 7.05 130.7 8.7 131.6 11 132.1 12.45 132.35 14.05 132.45 15 132.45 16.05
L 132.9 15.9 133 12.05
Q 133 11.1 132.55 10.05 132.25 9.45 131.7 8.75 129.9 6.85 128.95 5.8 128.55 5.35 128.25 4.95 127.5 3.95 127 2.9 126.9859375 2.8748046875 126.95 2.85 129.366796875 2.84921875 131.75 2.85 132.8634765625 4.2419921875 134.2 5.7 135.45 6.95 136.3 8.6 136.75 9.55 137.05 10.55 137.1 10.85 137.25 11.2 137.85 13.45 137.85 16.15 137.85 17.7 137.7 19.1 137.2 22.5 135.65 24.9 133.3 28.5 126.15 34 134.3 29.65 137.05 25.25 138.6 22.9 139.05 19.35 139.2 17.85 139.2 16.1 139.55 12.8 139.35 11.7
L 139.35 11.65
Q 139.2 10.7 138.15 8.75 137.4 7.5 136.3 5.8 135.4541015625 4.5166015625 134.1 2.85 148.3927734375 2.8662109375 162.7 2.85 163.379296875 4.2462890625 163.95 5.8 164.4 6.95 164.75 8.25 166.2 13.7 166.3 21 165.3 20.35 165.15 20.3
L 165.15 20.75 166.3 22.55
Q 166.25 23.1 166.25 23.75 166.75 23.3 167.1 23.1 168.75 23.3 170.65 23.3 170.7 23.25 173.95 20.7 175.15 19.8 175.85 18.95 175.75 20.4 175.55 21.1 174.35 24.95 169.5 27.2 170.2 27.05 170.8 26.9
L 171 27.4
Q 176.7 29 179.25 32.85 180.2 34.3 180.95 35.3 180.75 35.5 180.75 36.55 180.75 37.7 184.2 39.95 188.6 42.7 193.8 42.25
L 193.8 42.45
Q 193.2 45.1 188.9 45.8 186.55 46.1 185 46.5 184.75 46.5 184.6 46.55 184.3 46.6 184.05 46.75 183.85 46.75 183.75 46.8 181.65 43.1 179.15 41 177.05 40.1 169.3 37 165.6 35.55 160.7 33.65 157.85 32.5 155.5 31.55 154.2 31 153.1 30.55
L 153 30.5
Q 149.25 28.85 147 27.65 147.4 25.6 147.4 23.3 147.4 17.2 146.7 14.45 145.8 11.15 143.55 8.25 142.8 7.35 141.95 6.5 141.45 5.95 140.9 5.5 140.8 5.4 140.65 5.3 140 5.3 139.8 5.7 140.55 7.05 141.35 8.5 141.7 9.05 142 9.6 142.5 10.5 143.1 11.45 143.5 12.15 143.95 12.9 145.4 15.7 145.4 18.35 145.4 23.85 144.85 26.1 144.7 26.5 144.6 26.75 144.3 27.5 143.15 29.45 141.55 32 138.55 36.6 138 37.35 134.85 38.95 134.25 39.25 133.75 39.6 130.15 41.45 128.65 42.35 126.5 43.7 124.9 45.15 124 45.95 123.35 46.75 122.05 48.2 121.35 49.75 120.75 51.05 120.55 52.4 120.35 53.35 120.4 54.4 120.65 54.6 120.9 54.7 121.3 54.85 121.9 54.7 121.9 54.5 121.95 54.25 122.05 53.05 122.6 51.9 123.25 50.55 124.4 49.3 125.2 48.55 126.15 47.75 126.25 47.65 126.6 47.45 128.25 46.35 134.95 42.3 136.15 41.5 137.3 40.75 136.6 42.2 136.15 42.75 135.65 43.4 134.35 46.75 132.95 50.3 132.95 51.35 132.95 52.4 133.2 53.1 133.4 53.7 133.4 53.8
L 134.15 53.65
Q 135.45 48.05 136.55 45.25 137.55 42.7 139.05 40.55
L 138.7 42.3
Q 141.6 47.4 149.25 54.85 148.1 55.85 145.75 58.65 144.25 60.35 143.15 61.65 142.05 62.85 141.35 63.7 140.25 64.95 140 65.25
L 140.4 65.65
Q 141.25 64.95 142 64.2 143.1 63.25 144.05 62.35 147.65 58.7 149.65 55.15 149.8 55.3 149.9 55.4 154.25 59.55 158.45 62.3 159 66.6 158.45 70.25 158.3 70.8 158.2 71.4 158.05 72.1 157.85 72.85 157.6 73.85 157.2 74.8 155.6 78.85 152.15 82.6 151.8 82.95 151.45 83.35 154.7 78.7 156.25 72.95 156.5 71.75 156.75 70.5 156.85 69.95 156.9 69.45 156.35 69.4 155.75 70.5 155.6 70.65 155.55 70.75
L 155 72.15
Q 155.1 71.35 155.25 70.5 155.3 69.55 155.35 68.55 155.6 67.1 155.6 65.65 155.6 64.15 155.35 62.3
L 154.8 62.3
Q 154.65 62.95 154.5 63.7
L 154.45 63.7
Q 154.4 64.1 154.4 64.5 154.35 64.6 154.35 64.85 151.9 67.15 149.8 69.05 148.75 69.9 147.85 70.65 144.4 73.45 141.45 75.1 126.3 83.5 103.6 83.5 102.9912109375 83.5 101.75 83.25 102.809375 82.9884765625 103.25 82.45 103.55 82.15 104.1 81.5 105.55 80.25 112.35 79.95 125.75 78.8 130.75 74.85 133.5 72.7 135.45 68.9 133.9 69.45 132.75 70.95 131.15 73.2 130.45 73.85 126.2 77.5 112.35 78.1
L 111.75 78.7
Q 107.05 79.05 104.9 79.85 106.9 78.15 108.1 77.05 106.6 77.9 105.25 78.7 110 74.9 111.75 72.55 110.3 73.4 103.8 78.35 101.85 79.85 100.25 81.05 97.7 82.9 95.95 84.1 95.35 84.45 94.85 84.8 94.65 84.9 94.5 85.05 94.45 85.1 94.3 85.15 93.25 85.95 91.35 87.4 90.2 87.35 88.8 87.15 84.65 83.95 82.7 79.35 81.55 76.7 81.4 74.25 82.1 76.05 83.7 77.95 87.85 82.9 95.4 82.9 96.45 82.9 97.75 82.15 99.5 81.25 100.25 81.05 100.05 80.8 99.15 80.65
L 98.3 80.5
Q 92.85 82.8 88.6 79.9 84.7 76.2 83.05 75.45 82 69.5 81.35 66.4 80.45 62.65 77.95 60.35 81.9 59.05 85.55 56.4 90.8 55.55 97.2 49.95 104.15 43.85 105.1 37.1 105.35 35.3 105.15 33.5 104.85 33.95 103.25 38.35 101.7 42.65 99.8 44.75 98.35 46.6 97.45 47.75 95.85 49.75 93.95 51.05 91.9 52.45 89.1 53.5
L 89.1 53.45
Q 95.85 46.9 98.9 36.95 99.4 35.35 99.8 33.75 100.5 30.5 100.9 26.95 100.95 26.7 100.95 26.5 100.8 26.7 100.55 27 99.6 28.35 98.6 30.2 98 31.2 97.35 32.45 96.7 33.8 96 35.45 95.8 35.8 95.6 36.2 95.4 36.8 95.15 37.35 94.7 38.3 94.4 39.15 91.8 44.95 90.85 46.7 90.2 47.8 89.5 48.85 87 52.45 83.65 54.8 82.75 54.95 81.85 55.05 79.35 55.35 76.55 55.45 76.55 55.85 79.4 56.25 80.15 56.35 80.75 56.4 77.45 57.95 73.5 58.4 73 58.45 72.55 58.5 71.45 58.55 70.2 58.55 65 58.55 62 57.85 60.75 57.55 59.85 57.15 59.55 57.05 59.35 56.9 56.35 55.3 54.1 55.3 48.65 55.3 44.05 55.9 42.85 56 41.75 56.2 38.7 56.7 36.05 57.5 31.5 58.7 28 60.8 27.5 61.1 27 61.4 26.55 61.7 26.1 62.05 21.25 65.4 20.35 68.9 20.6 68.9 22.35 67.1 24.5 64.9 27.15 63.25 27.45 63.1 27.75 63 28.85 62.3 30.2 61.7 31.35 61.2 32.6 60.75 32.15 61.35 31.65 62.1 31 63 30.3 64.1 28.65 66.6 26.4 70 22.8 75.55 20.35 77.95 14.8474609375 83.409375 3.6 84.4
L 3.6 86.1
Q 3.773828125 86.1 3.95 86.1 13.5 86.1 20 80.7 24.8 76.8 28.95 69.4 28.55 70.6 28.4 71.7 28.35 72.25 27.2 74.95 27.1 75.2 27.05 75.35 26.45 76.3 25.75 77.45 19.9 87.1 15.65 89.55 14.35 90.25 6.3 93.7 4.8234375 94.3404296875 3.6 94.9
L 3.6 107.6
Q 5.8716796875 106.2763671875 8.25 104.7 16.25 99.55 20.85 95.2 21.5 97.85 21.7 103.15 22.05 108.55 22.45 110.75 24.05 118.65 32.45 118.65 33.05 118.65 33.75 118.2
L 33.8 118.25
Q 34.05 118.35 34.15 118.35 35.4 118.35 36.8 117.95 37.9 117.6 38.3 117.25 36.45 116.85 35.15 116.2 34.65 115.9 34.25 115.65 32.45 114.3 32 112.15 31.85 111.45 31.85 110.8 32.8 104.95 31.95 102.95 29.85 98.25 29.3 94.4 29 92.3 29 86.7 29 78.45 30.2 73.75
L 30.2 73.65
Q 31.35 71.65 32.15 70.35 31.8 70.15 31.2 70.4 32.35 67.5 34.05 64.9 34.95 63.5 36.05 62.2 36.8 61.35 37.55 60.5 35.65 59 32.95 62.3 32.45 62.8 32 63.5 31.8 63.75 31.6 64.05 32 63.15 32.45 62.25 32.8 61.4 33.15 60.5 37.05 59.15 41.95 58.5 42.95 58.4 44.05 58.25 45.4 58.1 46.85 58.05 45.35 59 43.6 60.65 43.2 61 42.8 61.4 42.25 61.95 41.8 62.6 39.25 65.5 39.1 68.1 39.05 68.35 39.05 68.55 39.05 69.7 39.35 69.8 39.55 69.9 40.1 70 40.1 68.15 43.1 63.95 47.15 58.2 52.65 58.2 57.8 58.2 58.85 63.25 59.35 65.8 58.85 68.7 58.85 75 58.65 75.8 58.5 76.45 55.35 84.65
L 55.15 84.4
Q 55.15 82.75 54.15 80.65 52.65 77.55 49.7 77.55 48.55 77.55 46.1 77.8
L 43.95 77.95
Q 40.25 80.7 38.85 84.6 38.85 84.65 38.7 85.5 38.35 86.9 37.55 90.65
L 38.3 90.5
Q 38.55 90.2 40.85 85.65 40.9 85.5 40.95 85.3 42.9 81.45 44.5 79.95
L 49.7 79.75
Q 51.8 80.25 52.55 81.65 53 82.55 53 84.55 53 86.2 51.2 90.1 49.35 94.05 49.35 94.15 49.35 95.3 49.4 95.45 49.5 95.55 49.9 95.85
L 51.5 95.85
Q 52.85 93.95 54.05 92.25 57.65 86.55 59.35 81.4 59.45 81.05 59.55 80.7 61.15 75.2 61.15 68.05 61.15 62.5 60.45 60.9 60.35 60.65 60.25 60.4 61.1 60.65 62.1 60.85 63.35 61.15 64.8 61.3 65.2 61.65 65.65 62.05 69.35 65.25 71.05 69.5 72.35 72.75 72.85 78.7 73.05 81.25 73.3 83.25 73.6 86.25 74.05 87.8 75.5 92.75 79.25 96.2
L 84.35 96.2
Q 86.8 94.05 93.3 88.95 93.75 88.9 94.1 88.75 94.6 88.45 94.85 88.45
L 94.85 87.8
Q 95.55 87.25 96.3 86.65 97.85 85.45 99.25 84.35 99.55 84.6 100.25 84.8 101.4 85.2 101.5 85.35
L 102.75 85.45
Q 103 85.55 103.45 85.65 103.95 85.8 104.45 85.9 106.6484375 86.1388671875 114.85 86.6 115.25703125 86.6279296875 115.65 86.65 115.732421875 86.6548828125 115.8 86.65 124.1646484375 87.15 125.65 87.15 126.85 87.15 129.2 85.45 131.55 83.65 133.6 83.5 133.75 82.2 130.75 83.8 127.4 85.75 126.75 86.1
L 114.25 86.25
Q 113.1 86.25 108.45 85.7 108.246875 85.659375 108.1 85.65
L 109.75 85.7
Q 112.008203125 85.7 114.55 85.4 114.9814453125 85.35078125 115.4 85.3 122.8267578125 84.32109375 132.55 80.95 142.85 77.4 148.7 72.6 150.3 71.25 151.6 69.9 153 68.25 154 66.65 153.8 67.6 153.6 68.8 153.45 69.55 153.2 70.35 152.85 71.55 152.4 72.65 151.85 74.1 151.05 75.35 150 77.15 148.35 78.8 147.35 79.75 146.25 80.7 142.4 83.7 136.65 86.2 136.95 85.7 136.65 85.8 135.55 86.4 134.2 86.9 128.05 89.2 118.95 89.2 118.0533203125 89.2 116.35 88.75 116.1564453125 88.7068359375 115.95 88.65 115.64921875 88.5654296875 115.35 88.5 114.227734375 88.171875 113.7 88.05 114.28515625 88.2060546875 115.45 88.75 115.776171875 88.9130859375 116.15 89.1 116.3072265625 89.1767578125 116.45 89.25 118.5951171875 90.1 123.35 90.1 127.2 90.1 131.7 88.45 132.55 88.2 133.45 87.8 140.2 86.5 145.3 82.85 146.85 81.7 148.3 80.3 149.45 79.2 150.45 77.95 151.9 76.15 153 74.4 152.85 74.95 152.75 75.55 152.1 79.4 149.1 83.4 147.55 85.55 146.85 86.6 146.35 87.35 146.35 87.5 146.35 87.7 146.35 87.8 146.2 87.9 146 88 146 88.05 145.95 88.05
L 146.05 88.25 144.05 89.35
Q 144.3 89.4 144.65 89.5 145.6 89.65 146.7 89.7 152.6 89.75 159.75 84.65 161.9 83.05 163.6 81.65 167.95 77.7 168.15 74.5 168.95 78.3 169.85 86.25 169.9 86.85 169.95 87.45 170.6 93.25 170.8 96.55 170.85 98.1 170.85 99.05 170.85 99.2 170.85 99.5 170.75 100.7 170.2 104.2 169.5 108.35 169.5 109.55 169.5 112.95 171.05 117.15 173.15 122.95 174.05 127.25 173.25 127.55 171.2 128.55 169.9 128.05 168.65 127.4 167.2 126.55 168.45 125.65 168.35 120.2 164.35 115.45 163.35 114.3 162.45 113 159.4 108.3 153.65 108.05 151.75 107.75 149.8 107.55 147.2287109375 107.1515625 144.6 106.8 143.642578125 106.6740234375 142.65 106.55 142.5 106.7 142.4 106.85 142.25 106.95 142.05 107.1 141.16875 107.6875 141.95 108.15 142.28203125 108.30390625 142.8 108.45 143.25 108.5 143.75 108.65 144.55 108.8 145.4 109.15 146.05 109.25 146.75 109.4 154.55 113.5 158.45 121.1 158.85 121.8 158.85 122.75 158.85 123.45 158.85 124.1 159.05 128.15 161.35 131.45 162.8 133.45 165.25 133.75 165.3 133.75 165.35 133.75 166.95 134 168.9 133.55
L 169.9 134.15 174.5 131.3 174.5 129.65
Q 174.65 130.1 174.8 130.45 174.7 131 174.7 131.65 172.95 133.15 170.65 135.5 167.6 138.5 164.9 140.45 164.55 140.65 164.25 140.95 162.95 141.8 161.8 142.35 161.45 142.5 161.2 142.6 155.6 145.15 153.2 149.95 152.55 151.15 152.15 152.6 151.36640625 155.1353515625 151.4 158.05 151.3921875 158.300390625 151.4 158.55 150.8 161.85 150.9 166.85 151 169.65 151.2 175.2 151 184 146.45 190.2 145.65 190.7 144.55 191.3 143.7 191.85 142.85 192.2 141 192.55 140.15 192.6 139.75 192.2 139.35 191.85 137.9 190.4 136.2 189.25 132.05 186.15 128.95 186.15 127.9 186.15 127.15 186.45 126.5 186.7 126.4 186.7
L 126.4 188.45 126.4 188.45
Q 126.9408203125 188.775390625 128.1 189.5 127.65 190.05 127.2 190.65 127.0083984375 190.79375 126.75 191.1
L 126.75 191.15
Q 126.45 191.65 126.4 192 125.95 192.65 125.6 193.4 124.8 194.75 124.05 196.4 122.85 199.1 121.25 201.05 120.25 200.6 119.3 199.65 117.45 197.75 117.3 197.6 114.75 195.5 108.95 195.35 108.1 195.35 107.2 195.35 107.2 195.55 106.65 195.75 110.5 196.7 114.1 198.65 115.15 199.15 118.75 201.4
L 120.1 201.6 120.4 201.65 120.9 201.5
Q 120.7 201.75 120.55 201.9 119.75 202.75 118.9 203.45 118.85 203.45 118.8 203.45 117 204.25 115.9 205 115.8 204.9 115.7 204.75
L 114.55 204.75
Q 114.15 206.05 113.9 207.2 112.6 211.45 111.9 213.6 111.85 213.7 111.85 213.75 111.7 213.9 111.6 213.95 111.2 214.2 110.75 214.45 109.6 214.45 108.6 214.5 99.8 214.85 99.7 214.95 99.2 215.35 98.65 215.9 98.15 216.4 97.6 216.95
L 99.45 217.75
Q 97.45 219.1 97.1 221.2 96.7 223.15 96.35 224.45 95.9 225.95 95.55 226.55 93.7 229.6 91.15 231.15 85.45 234.5 73.9 234.5
L 73.85 234.5
Q 72.770703125 234.5 71.75 234.5 71.2224609375 234.482421875 70.7 234.45 66.93359375 234.250390625 64.55 233.5 61.25 232.55 58 229.85 48.55 220.25 37.2 210.45 33.35 207.05 25.4 209.05 21.55 209.95 16.6 212.2 12.65 214 7.2 216.9 7.05 216.4 6.95 216.1
L 6.3 216.1 6.2 216.8
Q 6.2 217.1 6.3 217.4 4.9791015625 218.082421875 3.6 218.8
L 3.6 222.3
Q 4.0125 222.11875 4.45 221.9 5.8 221.25 6.95 220.7 7.8 224.35 9.75 230.85 14.1 246.25 14.85 249.1
L 15.05 248.85
Q 15.05 248.55 15.3 247.95 15.5 247.3 15.5 246.65 15.5 241.15 12.15 231.5 9.5 223.9 8.2 219.95 9.95 218.95 10.95 218.05 12.2 217 13.55 216.2 14.05 218.05 15.65 223.25 17.15 228.4 17.75 231.1 18.1 231.1 18.2 230.75 16.6 220.6 14 215.9 14.4 215.6 14.85 215.4 16.75 221.25 20.15 228.95 20.75 230.35 21.2 232.5 21.8 235.25 21.95 235.7 22 235.9 22.4 239.4 22.65 241.5 23.85 241.75 23 237.05 22.55 234.7 21.7 230.45 20.9 227.95 20.7 227.45 18.1 220.75 16.6 216.9 15.3 215.15 20.3 212.55 26.75 212 28.4 211.85 30.15 211.85 33.95 211.85 38.35 215.95 41 218.45 46.8 225 56.7853515625 235.5046875 68.4 237.6 69.294140625 237.7865234375 70.2 237.9 72.2501953125 238.15 74.35 238.15 74.6 238.15 74.85 238.15 75.4 247.5 74.75 256.75 73.05 280.3 63.35 303
L 63.9 303
Q 71.8 289.8 74.75 271.9 76.4 261.7 76.4 249.9
L 76.3 238.15
Q 79.65 238.05 82.5 237.55 86.3 236.95 89.3 235.7 89.3 235.8 89.3 236 89 236.65 89 237.8 89 238.25 90.4 245.1 90.9 247.75 91.15 249.85 91.75 253.65 91.75 255.7 91.75 260.15 90.05 267.25 89.8 268.1 89.6 269 88.9 271.5 85.6 282.55 82.6 292.65 76.55 302.3 75.3005859375 304.217578125 74.2 305.9
L 101.2 305.9
Q 102.65 301.4513671875 102.65 298.3 102.65 297.35 102.25 293.45 101.9 290.45 101.85 289.4 101.5 292.6 90.55 303.95 92.7 297.6 93.6 294 95.05 287.9 95.05 273.9 95.3 272.1 95.4 269.45 95.6 264.15 95.05 258.85 95 258 94.75 256.65 94.75 255.75 94.7 255 94.6 251.1 94.3 248.5 93.95 245.25 93.25 242.45 93.3 242.5 93.35 242.55 98.8 244.7 104.65 247.85 113.2 252.7 120.8 258.35 140.2 272.8 155.55 292.05 157.25 294.2 159 296.3
L 159.35 295.1 163.95 296.55 155.8 286.75
Q 174.030859375 298.5689453125 194.65 305.9
L 213.7 305.9
Q 176.1388671875 298.04453125 145.35 273.7
L 144.7 273.9
Q 143.95 272.65 143.1 271.45 129.85 252.5 108.45 243.8 103.45 241.4 99.8 240.55 95 239.4 93.75 237.4 93.7 237.15 93.65 237 93.25 235.65 92.8 234.75 93.55 234 95.45 232.3 98.9 229.15 100.25 227.6 100.3 227.55 100.35 227.5 101.45 226.15 102.15 223.4 102.8 220.35 103.15 219.15 114.3 218.1 115.7 213.7 115.5 208.7 117.75 206.9 122.9 205.85 125.2 203 126.4 201.6 127.2 198.8 128 196.8 128.55 195.25 128.61640625 195.0837890625 128.65 194.9 128.7998046875 194.6169921875 128.9 194.35 129.25 193.65 131.6 193.7 133.95 193.7 137.25 195.45 137.35 195.5 137.5 195.6 140.6 197.05 143.25 196.05 149.95 195.3 152.5 189.3 155.15 185.6 155 180.9 154.9 177.6 155.15 172.3 155.5 165.45 155.55 163.7 155 157.8 155.6 154.9 155.6478515625 154.671875 155.7 154.45 156.96953125 149.556640625 162.9 147.5 164.23515625 147.038671875 165.5 146.4 169.4802734375 144.42265625 172.85 140.75 173.216796875 140.3259765625 173.55 139.9 174.7021484375 138.5103515625 175.55 137.2 175.587109375 137.5333984375 175.75 138.15 176.0205078125 139.1744140625 176.65 141 178.2 145.4 180.2 149.1 186.4 160.4 194.45 160.65 194.9 160.9 195.35 161.1 208.85 191.9 221.95 223.05 238.20234375 263.4859375 249.05 305.9
L 260.2 305.9
Q 251.3275390625 287.13203125 243.75 267.6 235.4 246.2 228.4 224.35 218.65 197.45 204.85 172.65 201.15 166 196.7 160 196.95 159.6 196.95 158.95 196.95 158.85 194.85 157.6 189.8 151.05 183.85 145.2 183.4 144.4 183.05 143.65 181.1671875 139.472265625 180.35 134.45 179.8205078125 130.9306640625 179.8 127 180.5 115.9 180.75 110.5 180.95 106.95 180.75 103.95 180.8 103.2 180.95 102.45 181.15 100.8 181.35 99.35 183.05 101.15 185.3 101.15 186.5 101.15 186.6 100.7
L 186.5 100.2
Q 186.45 99.9 186.15 99.35 185.7 98.55 184.75 97.25 184.25 96.6 183.65 95.85 182.15 93.95 181.5 92.85 181.25 88.8 180.05 86.8 179.8 86.45 179.6 86.05 179.2 84.7 179 83.8 178.8 82.95 178.75 82.5 178.65 81.5 178.2 79.95 177.95 79.2 177.65 78.25 176.95 76.15 175.8 73.4 174.35 69.9 173.75 67.6 175.35 67.55 175.1 66.85
L 174.65 66.85
Q 174.2 66.4 173.3 65.85 173.25 65.3 173.15 64.9
L 172.1 64.9
Q 172.1 65 172.1 65.2 169 63.5 162.6 61.25 160.85 60.5 157.2 57.75
L 152.85 54.55
Q 149.65 52.55 146.2 47.95 140.9 41.2 139.8 40.05
L 139.35 40.05
Q 140.35 38.7 141.45 37.55
L 141.4 37.55
Q 142.15 36.85 142.8 36.1 143.2 35.65 143.55 35.2 144.6 33.8 145.45 32.2 146.1 30.85 146.55 29.35 148.2 30.55 151.8 32.3 152.25 32.5 152.75 32.75 159.8 36.05 160.1 36.25 161.9 37.45 168.85 39.65 170.75 40.25 172.25 40.85 176.05 42.1 177.45 43.2 178.8 44.2 179.9 45.6 179.55 45.9 178.75 46.4 178 46.85 176.95 47.6 175.75 48.3 174.25 49.25 169.1 52.55 168.8 53.7
L 169.35 53.7
Q 171.8 52.35 175.5 49.7 176.25 49.15 176.9 48.65 178 47.75 178.8 47.05 179.65 46.35 180.1 45.8 181.1 47.05 182 48.75 183.05 50.65 183.9 53.05 184.1 53.55 184.3 54 184.7 55.1 185.25 56.2 187.4 60.45 190.7 62.7 190.35 62.1 189.65 60.55 188.45 58.05 186.55 53.15 186.2 52.35 185.95 51.55 185.3 50 184.7 48.6
L 189.1 48.6
Q 189.5 48.5 189.95 48.4 191.8 47.85 193.3 46.85 194.75 45.8 195.85 44.2 197.6 41.55 197.6 38.8 197.6 37.7 197.4 37.5 197.1 37.45 196.85 37.15 195.4 37.3 194.7 38.05 194.05 39.1 193.55 39.55 191.85 39.75 190 39.75 187.65 39.75 184.7 37.5 184.5 37.3 184.15 37 184.2 36.85 184.3 36.6 183.7 35.6 181 32.15 178.25 28.65 177.65 27.8 174.35 26.6 172.4 26.4 175.7 25.15 176.65 23.5 177.1 22.65 177.1 18.75 177.1 17.85 177.05 17.15 177.1 17.05 177.1 17
L 177.05 16.6
Q 177 16.2 176.95 15.85 176.9 15.45 176.85 15.2 176.75 15 176.7 14.9
L 176 14.9
Q 176 15 176 15.15 176 15.2 176 15.3 176 15.6 176 15.9 172.85 19.35 170.65 21.55
L 168.45 21.8
Q 168.1 21.8 167.85 21.75 167.9 20.25 167.9 18.1 167.9 13.45 166.6 8.3 166.5 7.85 166.35 7.4 166.2 6.85 166.1 6.35 165.5 4.65 164.95 3.45 164.814453125 3.15546875 164.65 2.85 166.45625 2.878515625 168.2 2.85 172.2212890625 6.2630859375 177 9 178.45 9.85 180.6 11 181.4 11.45 182.3 12 183.05 12.45 183.9 12.9 184.65 13.25 185.4 13.7 185.3 13.7 185.3 13.8
L 185.75 14.35
Q 185.95 14.25 186.15 14.1 187.45 14.85 188.9 15.65 190.35 16.55 191.55 17.65 192.3 18.35 193.05 19.2 194.7 21.25 195.9 24 197.1 26.95 197.9 28.9 197.9 29.1 197.9 29.3 197.9 30.95 202.1 38.95 202.3 39.5 202.6 40.05 203.4 41.55 204.35 43.3 206.35 47.05 208.05 49.95 208.45 50.65 208.9 51.4 212.15 56.85 214.1 58.75 214.7 58.55 214.7 58.3 212.45 54.65 209.75 49.7 209.4 49.1 209.05 48.5 209 48.35 208.95 48.25 208.15 46.75 207.35 45.2 206.8 44.15 206.25 43.1 206.05 42.75 205.95 42.45 205.4 41.4 204.9 40.45 204.8984375 40.3970703125 204.85 40.3 203.9 38.4 203.1 36.8 202.55 35.65 202.05 34.65 201.4 33.5 200.95 32.5 201 32.45 201.05 32.35 200.85 29.65 200.4 27.4 200.15 26.5 200 25.65 199.5 23.8 198.9 22.2 198.55 21.35 198.15 20.65 195.75 15.9 191.3 13.05 190.4 12.5 189.05 11.75 189.5 11.25 189.9 10.7 191.45 8.5 191.45 6.85 191.45 5.0291015625 191 2.9 194.275390625 2.922265625 197.5 2.9 200.4197265625 7.3677734375 203.2 16.55 205.4 23.75 207.4 28.9
L 207.4 30.6 207.4 31.7
Q 209.75 39.05 210.5 40.9 212.65 46.05 215.95 49.15 212.45 40.3 211.85 38.85 211.45 37.8 211.1 36.8 212.1 38.45 213.05 39.65 210.95 36.2 209.75 31.1 209.5 30.3 209.35 29.45 207.7 21.7 206.95 19.75 204.75 13.1 203.3 9.5 202.25 6.85 201.05 4.65 200.5533203125 3.7484375 200.05 2.9 201.925390625 2.9234375 203.8 2.9 204.613671875 4.490625 205.85 6.8 206.15 7.35 206.45 7.95 206.85 8.75 207.2 9.5 209.15 13.5 209.15 14.5 209.15 14.95 209.3 15.6 209.45 17.1 210.3 19.4 210.9 21.2 211.9 23.4 212.15 23.95 212.7 24.9
L 226.15 49.2
Q 224.95 61.8 225.75 74.5 225.95 77.15 226.1 79.9 226.15 80.75 226.2 81.65 226.774609375 89.5767578125 227.45 97.45 228.7619140625 112.9591796875 230.45 128.35 230.5 128.6 230.5 128.95 230.6 129.9 230.75 130.85 231.55 136.05 233.2 141.05
L 232.8 124.95
Q 233.4 126.35 234.05 127.85 234.3 128.55 234.65 129.35 244.5 152.05 257.35 173.1 270.3 194.2 283.9 214.95 297.45 235.45 309.3 257.25 322.3138671875 281.2755859375 333.9 305.9
L 338.55 305.9
Q 329.9921875 283.1392578125 317.5 262.05 304.65 240.35 291.9 218.55 279.7 197.55 266.35 177.55 253.05 157.65 242.6 136 242.7177734375 136.0181640625 242.8 136
L 242.15 134.5 241.85 134.5
Q 241.75 134.3 241.6 134.05 237.65 125.75 234.55 117.05
L 233.9 116.85
Q 231.7572265625 105.92734375 230.85 94.85 230.061328125 84.73984375 230.3 74.5 230.15 67.8 230.15 67.3 230.45 64.6 230.5 63.65 230.55 63 230.35 62.2 232.95 64.35 236.1 67.8 238.1 69.95 242.25 74.95 243.25 76.2 244.65 78.6 245.8 80.55 246.9 81.9 247.041796875 82.1833984375 247.2 82.45 247.8859375 83.774609375 248.75 85.05 249 85.35 249.25 85.7 249.0892578125 85.7583984375 248.9 85.8 249.0544921875 85.9544921875 249.2 86.1
L 249.95 86.8
Q 250.01484375 86.817578125 250.05 86.8 250.297265625 87.10234375 250.55 87.4 250.7380859375 87.6111328125 250.9 87.8 250.96328125 87.8595703125 251 87.9 256.7 93.25 263 96.3 265.2 97.35 267.55 98.15 270.065625 98.9787109375 272.7 99.45
L 272.9 99.3
Q 275.65 99.95 278.75 99.85 279.7111328125 99.85 280.1 100.05 280.968359375 100.046875 281.8 100 281.99921875 99.75 282.7 99.75 283.674609375 99.81953125 285.3 99.9 285.2869140625 99.789453125 285.25 99.7 288.55 99.25 291.9 98.35 294.75 97.65 297.45 95.9 297.6 95.85 297.7 95.7 297.55 95.75 297.35 95.85 291.55703125 97.00859375 286 96.95 285.8208984375 97.3330078125 284.95 97.25 281.1 96.8 279.2 96.5 277.8759765625 96.344140625 277.2 95.95 272.79140625 95.073046875 268.55 93.35 268.4 93.3 268.3 93.25 268.05 93.15 267.85 93.05 263.85 91.35 260 88.8 259.7294921875 88.5970703125 259.5 88.35
L 259.45 88.35
Q 259.2 88.3 258.75 87.85 256.05 85.35 254.9 83.6 254.640234375 83.2103515625 254.4 82.8 252.91328125 81.079296875 251.75 79.05 251.36328125 78.315625 251 77.55 249.65 75.25 248.5 72.9 246.55 69.05 245.15 65 243.4 59.9 240.4 56.05 237.85 52.85 234.4 50.6 231.35 47.75 228.05 46.9
L 227.85 44.95 227.2 46.05 226.5 44.3 226 42.95
Q 226.45 43.15 226.95 43.35 231.35 45.2 234.35 49.5 237.4 53.8 244.25 53.8 245.8 53.8 247.2 53.55 248.7 53.2 250.25 52.45 250.6 52.3 251.05 52.15 251.95 51.75 252.6 51.05 253.5 50.4 254.4 49.55 258.1 46.05 258.1 43.9 258.1 43.8 258.1 43.7 261 40.5 261 37.75 261 37.5 260.95 37.25 260.9 36.65 260.65 35.8 260.45 35.3 260.3 35 260.3 34.7 260.35 34.45 260.5 33.5 259.75 33.75 259.65 33.75 259.55 33.8 258.05 34.3 257.8 36.05 257.55 38.7 257.4 38.95 256.35 41.35 255.4 42.35 252.95 44.8 248.5 44.8 242.05 44.8 237 40.1 234.95 37.4 233.9 36.1 232.8 34.3 231.45 32.6 230.2 31.05 228.8 29.9 228.3 29.35 228 29.15 224.7 26.55 217.65 25.2 217.5 25.2 217.3 25.15 217.25 25.05 217.2 24.85 216.15 22.15 214.95 18.55 214.6 17.65 214.35 16.7 213.5 14.15 212.6 11.3 211.65 8 208.9 4.55 208.1791015625 3.6626953125 207.55 2.9 251.440625 2.9615234375 295.3 3 304.003515625 3.0166015625 312.7 3 324.348828125 3.03828125 336 3.05 337 3.05 338 3.05 338.85 3.05 339.75 3.05 343.0876953125 3.05 346.45 3.05
M 249.6 49.55
Q 247.35 50.65 244 50.65 243.5 50.65 242.2 50.5 238.75 48.05 235.2 45.85 233.65 44.3 233.65 44.25 232.45 42.85 229.7 41.85 228.75 41.5 227.9 41.4 227.5 41.35 227.15 41.35 226.05 40.7 224.8 40.4
L 218.4 28.45
Q 218.5 28.5 218.65 28.5 219.55 28.7 220.35 28.75
L 222.15 28.95
Q 223.7 29.6 224.05 30 229.2 35.1 229.9 36.4 232.35 40.6 234.5 42.65 234.8 42.95 235.15 43.25 235.95 44.45 237 45.35 240.7 48.4 245.55 49.3 247.65 49.7 249.6 49.55
M 225.3 41.45
Q 225.4 41.5 225.55 41.55 225.5 41.6 225.4 41.6
L 225.3 41.45
M 189.65 4.55
L 189.8 4.95
Q 188.25 8.2 187 10.65 186.4 10.35 185.75 10 185.15 9.75 184.55 9.4 184.4 9.35 184.3 9.3 182.8 8.55 181.65 8 179.3 6.8 178.4 6.2 178.3 6.15 178.2 6.05 177.8 5.9 177.05 5.5 175.4513671875 4.6322265625 172.15 2.9 177.729296875 2.89609375 183.25 2.9 183.3431640625 3.165625 183.4 3.45 183.7 4.85 183.95 5.85 183.9 5.85 183.85 5.85 182.75 6.05 182.55 6.2 182.8 6.7 184.35 7.1 184.5 7.5 184.6 7.65 184.95 7.5 185.25 7.15
L 186.9 7.15
Q 188.65 6.75 189.2 5.8 189.5 5.3 189.65 4.55
M 185.6 5.5
L 185.6 3.5
Q 185.4541015625 3.1986328125 185.3 2.9 187.0455078125 2.904296875 188.75 2.9 188.302734375 3.848828125 186.9 5.3 186.15 5.4 185.6 5.5
M 172 67.65
Q 171.9 67.6 171.75 67.55 171.9 67.55 172 67.55 172 67.6 172 67.65
M 234.25 55.3
Q 235.5 56.65 235.9 57.1 236.4 57.7 237.55 59.8 233.75 56.65 228.65 55.5
L 228.25 48.6
Q 232.3 53.1 234.25 55.3
M 228.75 59.35
Q 228.7 57.85 228.65 56.4 232.1 58.2 234.65 60.95 237.35 63.95 239.6 67.25 238.25 65.55 237.1 64.15 234.65 61.65 232.55 60.4 230.45 59.1 228.75 59.35
M 163.45 127.05
Q 163.25 126.75 163.1 126.5 161.35 123.45 160.3 120.25 158.4 114.35 153.25 111.25 152.65 110.8 152.05 110.45 153.6 110.85 155 111.4 162.1 114.2 164.8 121.85 165.3 123.35 166.05 124.75
L 165.85 126.95 170.1 131.6
Q 168.1 131.65 166.4 130.45 164.8 129.35 163.45 127.05
M 89.45 88.9
Q 84.7 92.5 83.8 93.2
L 80.05 93.2
Q 76.75 90.55 76.2 84.85 75.35 76.45 75.3 76.3 76.05 73.05 72.8 67.3 70.6 63.45 68.05 61.95 67.55 61.7 67.1 61.5 68.35 61.6 69.7 61.6 69.8 61.6 69.9 61.6 72.35 61.6 74.65 61.2 76.65 62.05 77.75 64.75 78.5 66.7 79.4 73.1 80.3 79.25 81.7 82.3 83.8 87.05 88.25 88.8
L 89.45 88.9
M 103.35 81.15
Q 102.9029296875 82.5908203125 101.7 83.25 101.334375 83.1529296875 100.9 83.05 102.2 82.05 103.35 81.15
M 151.2 45.35
Q 151.25 45.9 151.65 45.65 151.9 45.55 152.15 45.15 152.2 45.1 152.25 45.1 153.45 44.3 154.35 43.75 156 42.55 156.6 42.2 158.65 40.6 159.8 39.5 160.2 39.05 160.45 38.65 160.35 38.65 159.15 39.35 158 40.05 155.7 41.55 155.4 41.75 155.15 41.9 151.15 44.5 151.15 44.75 151.15 45.1 151.2 45.35
M 231.65 165.7
L 230.95 165.3
Q 230.65 165.25 230.45 165.1 229.65 164.85 228.9 164.6 220.7 161.65 214.45 156.45 211.85 154.25 209.8 152.7 205.55 149.45 203.55 148.6
L 203.55 148.75
Q 206.15 150.15 208.9 152.45 209.45 152.9 210 153.4 211.9 155.15 215.7 158.6 221.45 163.5 228.95 165.6 230.9 166.2 232.95 166.5 232.5 166.15 231.65 165.7
M 175.95 45.6
Q 175.05 46.15 173.85 46.95 169.65 49.7 168.8 51.5 169 51.35 173.45 48.4 175.3 47.2 176.5 46.25 177.6 45.25 178.05 44.6 178.1 44.55 178.2 44.45 178.1 44.45 178 44.5 177.4 44.7 175.95 45.6
M 3.6 168.5
L 3.6 170.05
Q 4.5083984375 170.2662109375 5.3 170.5 13.85 181.45 14.7 183.25 15.5 184.85 15.8 188.45 15 190.3 14.9 191.9
L 14.7 191.7
Q 15.25 188.35 13.9 185.2 12.6 182.1 9.3 178.45 7.7 176.7 4.9 175.45 4.210546875 175.2021484375 3.6 174.95
L 3.6 178.25
Q 12.5 182.259375 12.5 190.1 12.5 193.3 12.2 194.3 11.65 196.25 10.2 197.5 8.95 198.5 8.95 199.5 8.95 201.35 9.3 200.4
L 10.95 200.4
Q 13.55 198.3 14.95 194.15 15.45 192.15 15.95 190.75 15.95 191.85 15.95 193 15.95 194.1 15.3 194.85
L 14.5 195.75
Q 14.7 196.25 15.25 196.25 15.85 195.3 16.7 191.3 17.45 187.8 17.45 186.9 17.45 182.6 12.65 176.35 8.5380859375 170.917578125 3.6 168.5
M 12.75 124.6
L 12.5 123.85
Q 10.55 127.75 9.45 132.85 8.2 138.05 8.2 142.85 8.2 146.6 18.5 170.3 19.7265625 173.080078125 21.05 176.15 20.7392578125 175.4630859375 20.1 174.55 18.6 172.65 15.85 169.8 10 163.7 6.6 162.75 5.012890625 162.2904296875 3.6 161.4
L 3.6 164.5
Q 19.8685546875 169.7177734375 20.55 181.35
L 21.1 181.35
Q 21.35 179.5 21.5 178.3 21.5 177.85 21.5 177.5 21.5 177.1806640625 21.35 176.75 22.3619140625 179.04140625 23.45 181.5 24.2 182.85 24.2 181.05 20.6 172.45 17.05 163.05 15.9 160.15 15 157.65 9.85 143.5 9.85 139.55 9.85 136.9 10.8 132.1 11.75 127.65 12.75 124.6
M 69.8 5.9
Q 67.5 7.85 63.4 9.45 61.1 10.3 58.2 11 53.9 12.15 47.15 13.25 47.25 13.2 47.4 13.15 54.15 11.1 57.1 9.15 55.3 9.35 53.65 9.65 48.6 10.45 44.5 12.2 41.4 13.45 37 13.85 36.15 13.9 35.3 13.95 34.1 14 32.8 14 29.35 14 25.3 13.25 22.25 12.65 18.9 11.7 10.95 9.4 4.45 9.4 4.0431640625 9.4 3.6 9.45
L 3.6 10.8
Q 4.0392578125 10.75 4.45 10.75 7.7 10.75 17.75 13.25 21.15 14.1 23.95 14.7 29.55 15.8 32.8 15.8 34.3 15.8 36 15.65 36.85 15.6 37.7 15.45 40 15.15 42.6 14.5 45.65 14.15 48.35 13.8 48.55 13.8 48.7 13.7 55.1 12.8 59.75 11.55 62.1 10.9 63.9 10.2 68.75 8.25 69.8 5.9
M 48.65 26.95
Q 48.2 26.85 47.75 26.7 45.1 26 42.45 25.6
L 42.4 25.6
Q 39.25 25.15 36.1 25.1 34.7 25.05 33.35 25.15 32.55 25.15 31.7 25.2 27.9 25.1 24.3 25.75 22.95 26 21.6 26.4 21.2 26.45 20.85 26.6 20.6 26.7 20.35 26.9 23.4 28.25 26.95 27.45 27.35 27.35 27.8 27.2 30.1 26.6 32.55 26.4 33.7 26.3 34.75 26.3 38.4 26.25 42.05 26.5 42.6 26.55 43.15 26.6 45.35 26.7 47.55 27 48.2 27.05 48.9 27.15 49.9 27.35 50.9 27.5 49.8 27.2 48.65 26.95
M 123.9 177.55
Q 124.35 176.3 124.35 175.8 122.25 177.4 122.05 179.55 122 179.85 122 180.15 122 180.2 122.25 181.9 123 183.25 125.15 183.5 125.4654296875 183.531640625 125.8 183.55 125.9970703125 183.55 126.2 183.55 126.2 184.15 134.55 184.7 137 185.6 137.8 187.15 137.9 187.4 138 187.6 138.3 188.3 138.55 189.2 139.2 189 139.55 188.7 139.6 188.55 139.65 188.45 139.9 186.2 137.05 183.4 134.8015625 182.6505859375 126.75 181.85 126.21875 181.8037109375 125.65 181.75 124.2 180.55 123.9 180.25 123.45 179.9 123.45 179.75 123.45 178.8 123.9 177.55
M 129.45 132.35
L 128.95 132.35
Q 129.15 133 130 134.35 130.8 135.75 132.35 137.95 135.5 142.45 136 143.75
L 136.35 143.35
Q 136.65 141.15 133.7 137.35 130.2 133.45 129.45 132.35
M 138.9 125.05
Q 138.9 125.3 138.2 125.8 141.3 126.15 142.8 127 144.7 128 145.2 128.1 144.3 127.6 143.3 126.55 142.4 125.45 142.2 125.3
L 138.9 125.05
M 42.15 107.3
Q 42.15 106.1 41.95 105.65 41.45 104.6 39.55 104.1
L 37.2 103.85
Q 35.9 106.05 35.9 108.35 35.9 110.4 36.1 111.45
L 39.55 111.45
Q 41.05 109.85 41.6 109 42.15 108.1 42.15 107.3
M 41 107.45
Q 41 108.6 40.5 109.35 40.2 109.7 39.55 110.25
L 36.9 110.4 36.9 105.6
Q 38.8 105.8 40.05 106.45 41 107 41 107.45
M 95.6 210.3
Q 93.4 206.85 93.35 206.8
L 92.85 206.95
Q 93.85 209.2 95.3 211.4 96.55 213.45 97.65 214.4 98.25 214.95 98.75 215.1 96.85 212.15 95.6 210.3
M 96.85 216
L 97 215.65
Q 96.25 214.1 95 212.75 93.75 211.65 93.35 211.2
L 92.85 211.2
Q 92.85 211.3 93.55 213.5 94.6 215.65 96.85 216
M 114.9 177.9
Q 113.7 178.4 112.8 178.85 108.25 180.85 108.25 181.2 108.25 181.9 108.5 182.1 108.6 182.2 108.9 182.05 109.15 181.9 109.45 181.5 111.7705078125 180.678515625 113.75 179.9 118.725 178.10234375 121.75 176.75 123.05 176.2 124 175.7 132.8 171.25 131.65 166.95 131.45 167.15 130.75 168 130 168.9 128.65 170.55 125.8669921875 173.716796875 122.95 174.65 122.823046875 174.713671875 122.7 174.75 122.45 174.85 121.95 175 119.9 175.75 114.9 177.9
M 100.7 195.45
Q 100.6 195.5 100.6 195.55 100.1560546875 196.2603515625 99.8 196.8 99.243359375 197.7630859375 99.05 198.15
L 99.5 199.2
Q 100.95 198.45 102.05 196.8 102.1 196.7 102.1 196.65 102.3 196.35 102.45 196.05 103.9 197.45 106.85 200.85 110 204 113.1 205.5 113.6 205.25 113.9 204.95 114 204.75 114.05 204.6 114 204.55 113.95 204.55 106.4337890625 197.8744140625 103.2 195.2 103.1853515625 195.179296875 103.15 195.15 103.1 195.15 103.1 195.1 103.65 194.15 103.9 193.9 103.75 193.55 102.9 193.35
L 102.1 193.2
Q 101.9 193.35 100.7 195.45
M 103.9 204
Q 103.8 203.9 103.7 203.85
L 103.15 204.05
Q 104.15 205.25 105.3 207.4 105.9 208.7 106.6 210.35 108 213.6 109.75 214.4 109.15 213.7 107.35 209.1 105.9 205.5 103.9 204
M 150.15 57.65
Q 149.1 57.7 147.3 60.3 146.05 62.25 145.1 63.75 144.4 64.95 143.75 65.85 143.7 65.9 143.65 65.95
L 144.1 66.35 144.15 66.35
Q 145.05 65.7 145.9 64.9 147.2 63.65 148.35 62.05 150.5 59.1 150.15 57.65
M 41.85 45.55
Q 41.4 45.45 40.85 45.35 39.3 45.1 37.3 45 36.6 44.95 35.95 44.9 35.85 44.9 35.7 44.9 34.95 44.8 34.1 44.8 32.4 44.75 30.5 44.75 27.85 44.75 24.85 45.85 22.4 46.6 19.7 48.2 18.65 48.75 17.6 49.45 15 51.05 13.2 52.55 12.35 53.15 11.75 53.75 10.85 54.55 10.25 55.3 11.2 54.95 12.1 54.55 12.95 54.15 13.7 53.75 16.65 52.1 18.65 49.5 20.8 48.1 25.6 47.35 25.8 47.3 26.1 47.25 28.85 46.85 32.5 46.6 33.7 46.55 35 46.5 35.2 46.5 35.45 46.5 36.2 46.45 37 46.45 37.25 46.4 37.45 46.45 39 46.4 40.65 46.4 41.8 46.4 42.4 47.4 42.45 47.6 42.6 47.8 43.1 48.8 44.9 48.7 45.35 48.7 45.85 48.6 45.9 48.65 46.75 48.75 48.75 48.85 55.25 49.05 58.5 49.1 61.75 49.15 63.05 49.15 64.4 49.15 65.45 48.55 66.6 47.9 66.75 47.8 66.85 47.75 68.9 46.55 71.2 45.35 72.55 44.5 73.85 43.35 74.65 42.7 75.4 41.9 75.85 41.4 76.4 40.85 75.65 40.85 74.75 41.35 73.95 41.65 73.05 42.35 73 42.4 72.95 42.45 72 43.15 71.1 44.05 70.35 44.7 69.1 45.4 67.95 46.05 67.6 46.05 65.6 46.35 65.85 46.75 66.5 47.05 66.25 47.2 65.7 47.4 55.35 47.5 51.7 47.5 46.85 47.5 46.75 47.5 46.65 47.5 45.35 47.45 44.85 47.05 44.3 46.5 43.7 46.15 43.1 45.8 41.85 45.55
M 83.65 42.5
Q 84.8 40.7 86.35 37.85
L 86 36.45
Q 85.6 36.65 81.15 43.6 80.95 43.9 80.7 44.3 80.35 44.8 80.05 45.35 80.8 45.7 82 44.55 82.75 43.8 83.65 42.5
M 82.85 12.6
Q 83.35 11.65 83.8 10.55 82.95 11.75 82 12.8 78.3 16.85 73.15 18.95 69.65 20.6 65.85 20.55 65.3 20.9 64.75 20.9 61.55 21.1 58.4 21.05 56.25 20.9 54.1 20.75 51.85 20.55 49.6 20.2 48.8 20.15 48.05 20.1 44.25 19.9 40.6 20.6 39.6 20.8 38.6 21.1 38.2 21.15 37.9 21.25 37.1 21.5 36.4 21.75 35.9 21.95 35.4 22.1 35.75 22.05 36.2 22.05 36.95 22 37.7 21.95 40 21.75 42.3 21.7 49.45 21.45 56.5 21.8 60.8 22.05 65.15 22.5 69.35 22.55 73.25 21 79.6 18.45 82.85 12.6
M 82.55 22.8
Q 85.9 20.15 89 17.25 85.1 17.55 82.95 21.25 82.7 21.75 82.35 22.05 80.5 23.15 78.55 24.05 72.4 26.9 65.15 27.1 58.15 27.8 51.15 27.5 55.75 28.2 60.35 28.65 64.95 29 69.65 29.25 74 28.5 77.9 26.2 78.85 25.6 79.75 24.9 81.15 23.85 82.55 22.8 Z"/>

<path fill="#FEB5AA" stroke="none" d="
M 6.75 286.2
Q 5.0380859375 286.2 3.6 286.25
L 3.6 305.9 37.3 305.9
Q 37.2587890625 305.8255859375 37.2 305.75 32.5 300.05 32 298.1 29.35 296.9 24.7 294.3 23.15 293.45 21.5 292.5 15.35 289.25 11.2 287.55 7.5 286.2 6.75 286.2
M 94.7 255
Q 94.75 255.75 94.75 256.65 95 258 95.05 258.85 95.6 264.15 95.4 269.45 95.3 272.1 95.05 273.9 95.05 287.9 93.6 294 92.7 297.6 90.55 303.95 101.5 292.6 101.85 289.4 101.9 290.45 102.25 293.45 102.65 297.35 102.65 298.3 102.65 301.4513671875 101.2 305.9
L 121.3 305.9
Q 121.45 304.79296875 121.45 304.25 121.45 293.9 115.45 282.75 111.2 276.25 109.6 273.7 109.8 274.5 110.05 275.7 110.8 279.05 110.8 281.15 110.8 282 110.45 286.6
L 110.1 286.6
Q 110.05 285.95 108.25 281.75 105.4 275.25 103.35 270 101.25 264.6 96 256.8 95.35 255.85 94.7 255
M 162.45 40.55
Q 164 41.4 168.15 43.75 168.6 44 173.8 44.75 175.15 44.95 175.95 45.6 177.4 44.7 178 44.5 178.1 44.45 178.2 44.45 178.1 44.55 178.05 44.6 177.6 45.25 176.5 46.25 176.85 46.8 176.95 47.6 178 46.85 178.75 46.4 179.55 45.9 179.9 45.6 178.8 44.2 177.45 43.2 176.05 42.1 172.25 40.85 170.75 40.25 168.85 39.65 161.9 37.45 160.1 36.25 159.8 36.05 152.75 32.75 152.25 32.5 151.8 32.3 148.2 30.55 146.55 29.35 146.1 30.85 145.45 32.2 144.6 33.8 143.55 35.2 143.2 35.65 142.8 36.1 142.15 36.85 141.4 37.55
L 141.45 37.55
Q 140.35 38.7 139.35 40.05
L 139.8 40.05
Q 140.9 41.2 146.2 47.95 149.65 52.55 152.85 54.55
L 157.2 57.75
Q 160.85 60.5 162.6 61.25 169 63.5 172.1 65.2 172.1 65 172.1 64.9
L 173.15 64.9
Q 173.25 65.3 173.3 65.85 174.2 66.4 174.65 66.85
L 175.1 66.85
Q 175.35 67.55 173.75 67.6 174.35 69.9 175.8 73.4 176.95 76.15 177.65 78.25 177.95 79.2 178.2 79.95 178.65 81.5 178.75 82.5 178.8 82.95 179 83.8 179.2 84.7 179.6 86.05 179.8 86.45 180.05 86.8 181.25 88.8 181.5 92.85 182.15 93.95 183.65 95.85 184.25 96.6 184.75 97.25 185.7 98.55 186.15 99.35 186.45 99.9 186.5 100.2
L 186.6 100.7
Q 186.5 101.15 185.3 101.15 183.05 101.15 181.35 99.35 181.15 100.8 180.95 102.45 180.8 103.2 180.75 103.95 180.95 106.95 180.75 110.5 180.5 115.9 179.8 127 179.8205078125 130.9306640625 180.35 134.45 181.1671875 139.472265625 183.05 143.65 183.4 144.4 183.85 145.2 189.8 151.05 194.85 157.6 196.95 158.85 196.95 158.95 196.95 159.6 196.7 160 201.15 166 204.85 172.65 218.65 197.45 228.4 224.35 235.4 246.2 243.75 267.6 251.3275390625 287.13203125 260.2 305.9
L 305.5 305.9
Q 302.478515625 301.3412109375 299.05 296.1 277.45 263.05 273.8 258.85
L 273.8 259.6
Q 274 261 275.5 265 277.05 269.2 278.35 271.7
L 278.35 274.75
Q 272.55 268.55 249.85 230.85 221.15 183.15 212.55 169.75 215.3 169.15 220.9 167.8 226.05 166.5 228.95 165.6 221.45 163.5 215.7 158.6 211.9 155.15 210 153.4 209.45 152.9 208.9 152.45 206.15 150.15 203.55 148.75
L 203.55 148.6
Q 205.55 149.45 209.8 152.7 211.85 154.25 214.45 156.45 220.7 161.65 228.9 164.6 226.4 163.35 222.7 159.7 218.95 155.9 213.95 152.85 211.4 151.3 208.6 150 207.95 149.65 207.3 149.35 206.2 148.85 205 148.15 203.45 147.1 201.75 145.7 197.25 141.9 191.95 134.9 189.2859375 131.425 187.5 128.75 183.9 123.4072265625 183.9 121.4 183.9 117.55 186.9 109.05 189.8 101.3 191.6 96.55 191.3 96.15 190.95 95.85 190.05 94.8 189.3 93.85 185.95 89.4 185.1 85.05 185 84.55 184.95 83.95 184.7 82 183.6 78.55 183.35 77.95 183.15 77.35 182.7 76 182.1 74.5 180 68.9 179.75 64.6 179.7 64.35 179.7 64.05 179.65 63.3 179.6 62.7 179.1 59.6 176.95 58.55 173.4 57.6 171.25 56.75 167.95 55.55 165.35 54.65 164.15 54.2 163.15 53.8 160.75 52.9 159.3 52.35 153.5 50 153.5 47.45 153.5 47.15 153.55 46.8 153.6 45.85 153.95 44.75 154.1 44.25 154.35 43.75 153.45 44.3 152.25 45.1 152.2 45.1 152.15 45.15 151.9 45.55 151.65 45.65 151.25 45.9 151.2 45.35 151.15 45.1 151.15 44.75 151.15 44.5 155.15 41.9 155.4 41.75 155.7 41.55 158 40.05 159.15 39.35 160.35 38.65 160.45 38.65 160.2 39.05 159.8 39.5 160.95 39.8 162.45 40.55
M 151.4 43.45
L 151.15 43
Q 151.65 42.7 155.7 39.85 159.3 37.35 159.75 37.15 158.85 38 155.55 40.45 152.15 42.95 151.4 43.45
M 206.45 7.95
Q 206.15 7.35 205.85 6.8 204.613671875 4.490625 203.8 2.9 201.925390625 2.9234375 200.05 2.9 200.5533203125 3.7484375 201.05 4.65 202.25 6.85 203.3 9.5 204.75 13.1 206.95 19.75 207.7 21.7 209.35 29.45 209.5 30.3 209.75 31.1 209.75 27.55 209.95 24 210.1 21.5 210.3 19.4 209.45 17.1 209.3 15.6 209.15 14.95 209.15 14.5 209.15 13.5 207.2 9.5 206.85 8.75 206.45 7.95
M 180.6 11
Q 178.45 9.85 177 9 172.2212890625 6.2630859375 168.2 2.85 166.45625 2.878515625 164.65 2.85 164.814453125 3.15546875 164.95 3.45 165.5 4.65 166.1 6.35 166.2 6.85 166.35 7.4 166.5 7.85 166.6 8.3 167.9 13.45 167.9 18.1 167.9 20.25 167.85 21.75 168.1 21.8 168.45 21.8
L 170.65 21.55
Q 172.85 19.35 176 15.9 176 15.6 176 15.3 176 15.2 176 15.15 176 15 176 14.9
L 176.7 14.9
Q 176.75 15 176.85 15.2 176.9 15.45 176.95 15.85 177 16.2 177.05 16.6
L 177.1 17
Q 177.1 17.05 177.05 17.15 177.1 17.85 177.1 18.75 177.1 22.65 176.65 23.5 175.7 25.15 172.4 26.4 174.35 26.6 177.65 27.8 178.25 28.65 181 32.15 183.7 35.6 184.3 36.6 184.2 36.85 184.15 37 184.5 37.3 184.7 37.5 187.65 39.75 190 39.75 191.85 39.75 193.55 39.55 194.05 39.1 194.7 38.05 195.4 37.3 196.85 37.15 197.1 37.45 197.4 37.5 197.6 37.7 197.6 38.8 197.6 41.55 195.85 44.2 194.75 45.8 193.3 46.85 191.8 47.85 189.95 48.4 189.5 48.5 189.1 48.6
L 184.7 48.6
Q 185.3 50 185.95 51.55 186.2 52.35 186.55 53.15 188.45 58.05 189.65 60.55 190.4 61.65 190.95 62.35 192.9 64.65 197.3 68.1 191 54.8 191 50.5 191 50.15 191.1 50.05 191.25 50 191.25 49.95 192.4 50.45 194.5 48.85 194.95 48.55 195.45 48.1 198.65 45.25 198.65 41.3 198.65 37.75 197 34.15 194.9 30.1 193.8 27.65 194.05 28.85 193.2 30 192.3 31.25 190.9 31.25 187.4 31.25 184.65 29.2 182 26.65 180.35 25.85 180.95 25.4 181.45 23.7 181.65 22.9 181.85 22.15 182 21.05 182 20 182 19.85 182 19.55 181.95 19.4 181.95 19.25 181.9 18.6 181.8 17.7 181.65 17.15 181.55 16.5 181.5 16.1 181.45 15.7 181.25 14.85 181.1 14.1 181.1 13.95 181.05 13.85 180.75 12.1 180.6 11
M 207.4 30.6
L 207.4 28.9
Q 205.4 23.75 203.2 16.55 200.4197265625 7.3677734375 197.5 2.9 194.275390625 2.922265625 191 2.9 191.45 5.0291015625 191.45 6.85 191.45 8.5 189.9 10.7 189.5 11.25 189.05 11.75 190.4 12.5 191.3 13.05 195.75 15.9 198.15 20.65 198.55 21.35 198.9 22.2 199.5 23.8 200 25.65 200.15 26.5 200.4 27.4 200.85 29.65 201.05 32.35 201 32.45 200.95 32.5 201.4 33.5 202.05 34.65 202.55 35.65 203.1 36.8 203.9 38.4 204.85 40.3 204.8984375 40.3970703125 204.9 40.45 204.9 40.396875 204.9 40.3 204.6 38.85 204.15 36.65 203.55 33.9 203.25 31.5 203 29.9 202.95 28.5 202.85 28.4 202.85 28.3
L 202.85 24.05
Q 203.15 24.35 206.2 28.8 206.85 29.8 207.4 30.6
M 3.6 164.5
L 3.6 168.5
Q 8.5380859375 170.917578125 12.65 176.35 17.45 182.6 17.45 186.9 17.45 187.8 16.7 191.3 15.85 195.3 15.25 196.25 14.7 196.25 14.5 195.75
L 15.3 194.85
Q 15.95 194.1 15.95 193 15.95 191.85 15.95 190.75 15.45 192.15 14.95 194.15 13.55 198.3 10.95 200.4
L 9.3 200.4
Q 8.95 201.35 8.95 199.5 8.95 198.5 10.2 197.5 11.65 196.25 12.2 194.3 12.5 193.3 12.5 190.1 12.5 182.259375 3.6 178.25
L 3.6 218.8
Q 4.9791015625 218.082421875 6.3 217.4 6.2 217.1 6.2 216.8
L 6.3 216.1 6.95 216.1
Q 7.05 216.4 7.2 216.9 12.65 214 16.6 212.2 21.55 209.95 25.4 209.05 33.35 207.05 37.2 210.45 48.55 220.25 58 229.85 61.25 232.55 64.55 233.5 66.93359375 234.250390625 70.7 234.45 71.2224609375 234.482421875 71.75 234.5 71.35234375 234.3240234375 70.95 234.15 59.627734375 228.8533203125 49 216.1 32.05 195.9 28.95 173.25
L 28.95 174.05
Q 28.2 174.9 26.65 181.15 25.3 186.75 25.2 188.35
L 25.2 187.5
Q 23.1 182.55 21.5 178.3 21.35 179.5 21.1 181.35
L 20.55 181.35
Q 19.8685546875 169.7177734375 3.6 164.5
M 22.45 110.75
Q 22.05 108.55 21.7 103.15 21.5 97.85 20.85 95.2 16.25 99.55 8.25 104.7 5.8716796875 106.2763671875 3.6 107.6
L 3.6 161.4
Q 5.012890625 162.2904296875 6.6 162.75 10 163.7 15.85 169.8 18.6 172.65 20.1 174.55 19.25 172.3 18.5 170.3 8.2 146.6 8.2 142.85 8.2 138.05 9.45 132.85 10.55 127.75 12.5 123.85
L 12.75 124.6
Q 11.75 127.65 10.8 132.1 9.85 136.9 9.85 139.55 9.85 143.5 15 157.65 13.15 148.65 13.15 139.8 13.15 134.7 15.75 126.15 18.2 117.95 20 116.15
L 23.7 116.15
Q 23.7 121.2 25.2 133.5
L 25.95 133.5
Q 28.05 129.1 30 125.3 32.15 120.85 33.8 118.25
L 33.75 118.2
Q 33.05 118.65 32.45 118.65 24.05 118.65 22.45 110.75
M 169.85 86.25
Q 168.95 78.3 168.15 74.5 167.95 77.7 163.6 81.65 161.9 83.05 159.75 84.65 152.6 89.75 146.7 89.7 145.6 89.65 144.65 89.5 144.3 89.4 144.05 89.35
L 146.05 88.25 145.95 88.05
Q 146 88.05 146 88 146.2 87.9 146.35 87.8 146.35 87.7 146.35 87.5 146.35 87.35 146.85 86.6 147.55 85.55 149.1 83.4 152.1 79.4 152.75 75.55 152.85 74.95 153 74.4 151.9 76.15 150.45 77.95 149.45 79.2 148.3 80.3 146.85 81.7 145.3 82.85 140.2 86.5 133.45 87.8 132.55 88.2 131.7 88.45 127.2 90.1 123.35 90.1 118.5951171875 90.1 116.45 89.25 116.3072265625 89.1767578125 116.15 89.1 115.776171875 88.9130859375 115.45 88.75 114.28515625 88.2060546875 113.7 88.05 114.227734375 88.171875 115.35 88.5 115.64921875 88.5654296875 115.95 88.65 116.1564453125 88.7068359375 116.35 88.75 118.0533203125 89.2 118.95 89.2 128.05 89.2 134.2 86.9 135.55 86.4 136.65 85.8 136.95 85.7 136.65 86.2 142.4 83.7 146.25 80.7 147.35 79.75 148.35 78.8 150 77.15 151.05 75.35 151.85 74.1 152.4 72.65 152.85 71.55 153.2 70.35 153.45 69.55 153.6 68.8 153.8 67.6 154 66.65 153 68.25 151.6 69.9 150.3 71.25 148.7 72.6 142.85 77.4 132.55 80.95 122.8267578125 84.32109375 115.4 85.3 114.9814453125 85.35078125 114.55 85.4 112.008203125 85.7 109.75 85.7
L 108.1 85.65
Q 108.246875 85.659375 108.45 85.7 113.1 86.25 114.25 86.25
L 126.75 86.1
Q 127.4 85.75 130.75 83.8 133.75 82.2 133.6 83.5 131.55 83.65 129.2 85.45 126.85 87.15 125.65 87.15 124.1646484375 87.15 115.8 86.65 115.732421875 86.6548828125 115.65 86.65 115.25703125 86.6279296875 114.85 86.6 106.6484375 86.1388671875 104.45 85.9 103.95 85.8 103.45 85.65 103 85.55 102.75 85.45
L 101.5 85.35
Q 101.4 85.2 100.25 84.8 99.55 84.6 99.25 84.35 97.85 85.45 96.3 86.65 95.55 87.25 94.85 87.8
L 94.85 88.45
Q 94.6 88.45 94.1 88.75 93.75 88.9 93.3 88.95 86.8 94.05 84.35 96.2
L 79.25 96.2
Q 75.5 92.75 74.05 87.8 73.6 86.25 73.3 83.25 73 84.6 73 85.15 73 92.7 79.4 97.5 85.05 101.8 92.05 101.8 100.75 101.8 114.55 96.85 115.93359375 96.362109375 117.25 95.85 117.696875 95.717578125 118.1 95.55 118.156640625 95.7283203125 118.2 95.9 118.75 98.2 119.45 100.95 122.33984375 112.3947265625 124.95 122.65 125.10546875 125.33828125 128.9 139.7 132.8 154.7 132.8 158.75 132.8 165.2 126.8 171.3 125.489453125 172.6232421875 124 173.8 126.713671875 172.3037109375 128.65 170.55 130 168.9 130.75 168 131.45 167.15 131.65 166.95 132.8 171.25 124 175.7 123.05 176.2 121.75 176.75 118.725 178.10234375 113.75 179.9 111.7705078125 180.678515625 109.45 181.5 109.15 181.9 108.9 182.05 108.6 182.2 108.5 182.1 107.15 183.4 106.25 184.95 108.65 183.7 109.4 183.4 110.60703125 182.9421875 112 182.85 111.9171875 183.0759765625 111.85 183.3 110.7 186.95 109.2 188.65 107.65 190.4 105.5 193.1 104.4912109375 194.2529296875 103.35 195.1 103.4498046875 195.0701171875 103.55 195.05 105.8 194.4 106.75 194.4 107.1 194.4 108.95 195.35 114.75 195.5 117.3 197.6 117.45 197.75 119.3 199.65 120.25 200.6 121.25 201.05 122.85 199.1 124.05 196.4 124.8 194.75 125.6 193.4 125.95 192.65 126.4 192 126.45 191.65 126.75 191.15
L 126.75 191.1
Q 127.0083984375 190.79375 127.2 190.65 127.65 190.05 128.1 189.5 126.9408203125 188.775390625 126.4 188.45
L 126.4 188.45 126.4 186.7
Q 126.5 186.7 127.15 186.45 127.9 186.15 128.95 186.15 132.05 186.15 136.2 189.25 137.9 190.4 139.35 191.85 139.75 192.2 140.15 192.6 141 192.55 142.85 192.2 143.7 191.85 144.55 191.3 145.65 190.7 146.45 190.2 151 184 151.2 175.2 151 169.65 150.9 166.85 150.8 161.85 151.4 158.55 151.3921875 158.300390625 151.4 158.05 151.36640625 155.1353515625 152.15 152.6 152.55 151.15 153.2 149.95 155.6 145.15 161.2 142.6 161.45 142.5 161.8 142.35 162.95 141.8 164.25 140.95 164.55 140.65 164.9 140.45 167.6 138.5 170.65 135.5 172.95 133.15 174.7 131.65 174.7 131 174.8 130.45 174.65 130.1 174.5 129.65
L 174.5 131.3 169.9 134.15 168.9 133.55
Q 166.95 134 165.35 133.75 165.3 133.75 165.25 133.75 162.8 133.45 161.35 131.45 159.05 128.15 158.85 124.1 154.15 121.7 149.25 120.75 141.8 119.35 134.05 117.2 131.8 116.6 130.05 116 130.5755859375 116.893359375 130.85 117.4 131.12890625 117.8576171875 131.2 118 130.8404296875 118.20546875 130.1 118.45 129.0009765625 117.3345703125 128.05 116.3 129.55 115.6 139.05 109.75 140.578515625 108.884375 141.95 108.15 141.16875 107.6875 142.05 107.1 142.25 106.95 142.4 106.85 142.5 106.7 142.65 106.55 143.642578125 106.6740234375 144.6 106.8 147.2287109375 107.1515625 149.8 107.55 151.75 107.75 153.65 108.05 159.4 108.3 162.45 113 163.35 114.3 164.35 115.45 168.35 120.2 168.45 125.65 167.2 126.55 168.65 127.4 169.9 128.05 171.2 128.55 173.25 127.55 174.05 127.25 173.15 122.95 171.05 117.15 169.5 112.95 169.5 109.55 169.5 108.35 170.2 104.2 170.75 100.7 170.85 99.5 170.85 99.2 170.85 99.05 170.85 98.1 170.8 96.55 170.6 93.25 169.95 87.45 169.9 86.85 169.85 86.25
M 138.2 125.8
Q 138.9 125.3 138.9 125.05
L 142.2 125.3
Q 142.4 125.45 143.3 126.55 144.3 127.6 145.2 128.1 144.7 128 142.8 127 141.3 126.15 138.2 125.8
M 128.95 132.35
L 129.45 132.35
Q 130.2 133.45 133.7 137.35 136.65 141.15 136.35 143.35
L 136 143.75
Q 135.5 142.45 132.35 137.95 130.8 135.75 130 134.35 129.15 133 128.95 132.35
M 146.3 132.7
L 145.8 132.65 145.75 132.6
Q 146 132.6 146.3 132.65
L 146.3 132.7
M 139.35 132.2
L 139.35 132.25
Q 139.35 132.75 139.6 134.85 139.85 136.15 139.95 136.45 140.15 136.9 140.75 137.8 141.271875 138.5306640625 141.75 138.7 141.3296875 139.191796875 140.9 139.55 140.15 137.55 139.1 135.55 137.75 132.95 136.1 131.1 137.0666015625 131.436328125 139.35 132.2
M 124.35 175.8
Q 124.35 176.3 123.9 177.55 123.45 178.8 123.45 179.75 123.45 179.9 123.9 180.25 124.2 180.55 125.65 181.75 126.21875 181.8037109375 126.75 181.85 134.8015625 182.6505859375 137.05 183.4 139.9 186.2 139.65 188.45 139.6 188.55 139.55 188.7 139.2 189 138.55 189.2 138.3 188.3 138 187.6 137.9 187.4 137.8 187.15 137 185.6 134.55 184.7 126.2 184.15 126.2 183.55 125.9970703125 183.55 125.8 183.55 125.4654296875 183.531640625 125.15 183.5 123 183.25 122.25 181.9 122 180.2 122 180.15 122 179.85 122.05 179.55 122.25 177.4 124.35 175.8
M 99.8 196.8
Q 98.6634765625 197.1828125 96.75 197.8 93.95 198.65 93.45 200.45 93.2888671875 201.0228515625 93 201.9 92.7345703125 201.076171875 92.45 200.15 91.758984375 203.893359375 91.25 206.75 89.682421875 211.088671875 88.75 213 84.35 222.2 76.55 231.45 75.1421875 233.1294921875 73.85 234.5
L 73.9 234.5
Q 85.45 234.5 91.15 231.15 93.7 229.6 95.55 226.55 95.9 225.95 96.35 224.45 96.7 223.15 97.1 221.2 97.45 219.1 99.45 217.75
L 97.6 216.95
Q 98.15 216.4 98.65 215.9 99.2 215.35 99.7 214.95 99.8 214.85 108.6 214.5 107.85 213.5 106.6 210.5 105.8 208.75 105.3 207.4 104.15 205.25 103.15 204.05
L 103.7 203.85
Q 103.8 203.9 103.9 204 103.55 203.25 103.35 202.85 103 201.85 102.85 200.5 102.8 199.75 102.4 198.35 102.1 197.25 102.05 196.8 100.95 198.45 99.5 199.2
L 99.05 198.15
Q 99.243359375 197.7630859375 99.8 196.8
M 97 215.65
L 96.85 216
Q 94.6 215.65 93.55 213.5 92.85 211.3 92.85 211.2
L 93.35 211.2
Q 93.75 211.65 95 212.75 96.25 214.1 97 215.65
M 93.35 206.8
Q 93.4 206.85 95.6 210.3 96.85 212.15 98.75 215.1 98.25 214.95 97.65 214.4 96.55 213.45 95.3 211.4 93.85 209.2 92.85 206.95
L 93.35 206.8
M 40.2 91.8
Q 39.15 96.1 39.15 97.65 39.15 100.9 39.5 101.7 40.1 103.15 42.5 103.15 47.3 103.15 52.1 95.6 53 94.2 54.05 92.25 52.85 93.95 51.5 95.85
L 49.9 95.85
Q 49.5 95.55 49.4 95.45 49.35 95.3 49.35 94.15 49.35 94.05 51.2 90.1 53 86.2 53 84.55 53 82.55 52.55 81.65 51.8 80.25 49.7 79.75
L 44.5 79.95
Q 42.9 81.45 40.95 85.3 40.9 85.5 40.85 85.65 40.9 85.7 40.95 85.8 41.3 86.4 41.3 86.9 41.3 87.5 40.2 91.8
M 40.1 70
Q 39.55 69.9 39.35 69.8 39.05 69.7 39.05 68.55 39.05 68.35 39.1 68.1 39 68.35 38.85 68.5 35.25 76.05 35.25 87.1 35.25 91.15 35.6 92.15
L 35.95 92.15
Q 35.75 90.5 36.95 87.9 37.8 86.1 38.7 85.5 38.85 84.65 38.85 84.6 40.25 80.7 43.95 77.95
L 46.1 77.8
Q 48.55 77.55 49.7 77.55 52.65 77.55 54.15 80.65 55.15 82.75 55.15 84.4
L 55.35 84.65
Q 58.5 76.45 58.65 75.8 58.85 75 58.85 68.7 59.35 65.8 58.85 63.25 57.8 58.2 52.65 58.2 47.15 58.2 43.1 63.95 40.1 68.15 40.1 70 Z"/>

<path fill="#39969D" stroke="none" d="
M 89 258.85
L 89 259.7
Q 87.85 264.6 83.2 276.75 77.35 292.15 73.3 297.15
L 73.3 296.45
Q 73.3 294.6 74 289.05 74.2 287.75 74.35 285.8 72.4 290.9 69.05 299.35
L 68.5 299.35
Q 72.35 289.7 74.6 280.95 74.7 277.15 74.75 271.9 71.8 289.8 63.9 303
L 63.35 303
Q 73.05 280.3 74.75 256.75
L 74.75 255.15
Q 74.75 241.6 74 239.4
L 74 240.15
Q 72.25 244.55 70.8 258.25 69.3 272.2 66.4 279.9 66.4 279.45 66.1 279.3
L 65.7 279.15
Q 65.9 276.35 64.75 259.7 63.9646484375 248.8021484375 63.65 244.2 63.8845703125 243.9025390625 64.1 243.6 66.3748046875 240.402734375 68.4 237.6 56.7853515625 235.5046875 46.8 225 41 218.45 38.35 215.95 33.95 211.85 30.15 211.85 28.4 211.85 26.75 212 20.3 212.55 15.3 215.15 16.6 216.9 18.1 220.75 20.7 227.45 20.9 227.95 21.7 230.45 22.55 234.7 23 237.05 23.85 241.75 22.65 241.5 22.4 239.4 22 235.9 21.95 235.7 21.8 235.25 21.2 232.5 20.75 230.35 20.15 228.95 16.75 221.25 14.85 215.4 14.4 215.6 14 215.9 16.6 220.6 18.2 230.75 18.1 231.1 17.75 231.1 17.15 228.4 15.65 223.25 14.05 218.05 13.55 216.2 12.2 217 10.95 218.05 9.95 218.95 8.2 219.95 9.5 223.9 12.15 231.5 15.5 241.15 15.5 246.65 15.5 247.3 15.3 247.95 15.05 248.55 15.05 248.85
L 14.85 249.1
Q 14.1 246.25 9.75 230.85 7.8 224.35 6.95 220.7 5.8 221.25 4.45 221.9 4.0125 222.11875 3.6 222.3
L 3.6 256.3
Q 4.218359375 257.3732421875 4.8 258.55 9.2 267.55 11.7 270.05 16.65 273.4 26.25 278.45 31.1 281.6 32.7 285.25 32.6 284.55 32.6 283.95 32.25 274.75 31.6 269.65 29.65 254.1 26.65 241.7
L 26.95 240.35 27.95 240.35
Q 29.8 246.05 31.5 256.15 34.05 271.2 34.4 273
L 34.4 291.8
Q 35.45 294.05 35.45 294.5 35.45 296.4 35.4 295.7 35.15 295.85 34.85 296.05 35.95 296.25 36.6 296.45 36.6 296.2 36.6 296.1 39.05 265.55 39.05 259.6 39.05 258.7 38.3 253.75 37.55 248.85 37.55 247.9 37.55 246.55 37.9 246 38.2 245.5 39.05 245.25
L 39.15 245.55
Q 40.8140625 250.815625 41.25 257.5 41.4 260.45 41.4 269.6 41.4 281.4 41.1 285.2 40.4 293.8 37.65 300.6 38.25 301.4 39 302.4 44.75 290.75 47.3 284.4 52 272.7 51.35 264.85
L 52.1 264.85
Q 52.4 265.95 52.4 269.05 52.4 277.8 48.5 286.5 46 292 39.1 302.55 39.2 302.7 39.3 302.85 40.60625 304.5751953125 41.65 305.9
L 45.6 305.9
Q 45.9931640625 305.3830078125 46.4 304.8 50.15 299.7 51.4 296.75 53.6 291.45 53.75 290.35 53.8 288.35 53.95 287.1 54.1 284.9 55.1 284.4 55.3 284.55 55.45 284.5 55.55 284.55 55.55 285.25 55.55 292.15 52.8 298.4 50.950390625 302.5060546875 48.1 305.9
L 74.2 305.9
Q 75.3005859375 304.217578125 76.55 302.3 82.6 292.65 85.6 282.55 88.9 271.5 89.6 269 89.8 268.1 90.05 267.25 89.5 259.9 89 258.85
M 55.15 267.9
L 55.15 267.2
Q 55.15 266.037890625 53.75 258.95 57.270703125 253.2974609375 62.55 245.75 61.8380859375 249.0591796875 60.75 254.2 58.5 262.95 55.15 267.9 Z"/>

<path fill="#9FDCDB" stroke="none" d="
M 55.15 267.2
L 55.15 267.9
Q 58.5 262.95 60.75 254.2 61.8380859375 249.0591796875 62.55 245.75 57.270703125 253.2974609375 53.75 258.95 55.15 266.037890625 55.15 267.2
M 19.05 278.2
Q 12 274.65 11.3 274.05 7.21328125 270.27421875 3.6 264.1
L 3.6 282.55
Q 6.77421875 282.5080078125 9.9 283.55 12.35 284.45 17.45 286.3 18.35 286.85 20.4 288.2 21 288.4 21.55 288.6 25.55 290.1 28.95 292.85 30.6 293.5 32.5 294.9
L 32.5 294.85
Q 31.45 293.1 30.45 290.4 28.65 285.8 27.2 283.7 25.65 281.55 19.05 278.2
M 68.4 237.6
Q 66.3748046875 240.402734375 64.1 243.6 63.8845703125 243.9025390625 63.65 244.2 63.9646484375 248.8021484375 64.75 259.7 65.9 276.35 65.7 279.15
L 66.1 279.3
Q 66.4 279.45 66.4 279.9 69.3 272.2 70.8 258.25 72.25 244.55 74 240.15
L 74 239.4
Q 74.75 241.6 74.75 255.15
L 74.75 256.75
Q 75.4 247.5 74.85 238.15 74.6 238.15 74.35 238.15 72.2501953125 238.15 70.2 237.9 69.294140625 237.7865234375 68.4 237.6
M 89 237.8
Q 89 236.65 89.3 236 89.3 235.8 89.3 235.7 86.3 236.95 82.5 237.55 79.65 238.05 76.3 238.15
L 76.4 249.9
Q 76.4 261.7 74.75 271.9 74.7 277.15 74.6 280.95 78.7 264.7 77.3 251.8
L 77.85 251.8
Q 78.3 255.05 78.3 262.5 78.3 274.35 76.85 278.95 76.2 280.85 74.35 285.8 74.2 287.75 74 289.05 73.3 294.6 73.3 296.45
L 73.3 297.15
Q 77.35 292.15 83.2 276.75 87.85 264.6 89 259.7
L 89 258.85
Q 89.5 259.9 90.05 267.25 91.75 260.15 91.75 255.7 91.75 253.65 91.15 249.85 90.9 247.75 90.4 245.1 89 238.25 89 237.8 Z"/>

<path fill="#FCD6CE" stroke="none" d="
M 93.35 242.55
Q 93.3 242.5 93.25 242.45 93.95 245.25 94.3 248.5 94.6 251.1 94.7 255 95.35 255.85 96 256.8 101.25 264.6 103.35 270 105.4 275.25 108.25 281.75 110.05 285.95 110.1 286.6
L 110.45 286.6
Q 110.8 282 110.8 281.15 110.8 279.05 110.05 275.7 109.8 274.5 109.6 273.7 108.85 272.55 108.65 272.2
L 109.1 272.2
Q 109.3 272.6 109.6 273.7 111.2 276.25 115.45 282.75 121.45 293.9 121.45 304.25 121.45 304.79296875 121.3 305.9
L 194.65 305.9
Q 174.030859375 298.5689453125 155.8 286.75
L 163.95 296.55 159.35 295.1 159 296.3
Q 157.25 294.2 155.55 292.05 140.2 272.8 120.8 258.35 113.2 252.7 104.65 247.85 98.8 244.7 93.35 242.55
M 210.3 19.4
Q 210.1 21.5 209.95 24 209.75 27.55 209.75 31.1 210.95 36.2 213.05 39.65 212.1 38.45 211.1 36.8 211.45 37.8 211.85 38.85 212.45 40.3 215.95 49.15 212.65 46.05 210.5 40.9 209.75 39.05 207.4 31.7
L 207.4 30.6
Q 206.85 29.8 206.2 28.8 203.15 24.35 202.85 24.05
L 202.85 28.3
Q 202.85 28.4 202.95 28.5 203 29.9 203.25 31.5 203.55 33.9 204.15 36.65 204.6 38.85 204.9 40.3 204.9 40.396875 204.9 40.45 205.4 41.4 205.95 42.45 206.05 42.75 206.25 43.1 206.8 44.15 207.35 45.2 208.15 46.75 208.95 48.25 209 48.35 209.05 48.5 209.4 49.1 209.75 49.7 212.45 54.65 214.7 58.3 214.7 58.55 214.1 58.75 212.15 56.85 208.9 51.4 208.45 50.65 208.05 49.95 206.35 47.05 204.35 43.3 203.4 41.55 202.6 40.05 202.3 39.5 202.1 38.95 197.9 30.95 197.9 29.3 197.9 29.1 197.9 28.9 197.1 26.95 195.9 24 194.7 21.25 193.05 19.2 192.3 18.35 191.55 17.65 190.35 16.55 188.9 15.65 187.45 14.85 186.15 14.1 185.95 14.25 185.75 14.35
L 185.3 13.8
Q 185.3 13.7 185.4 13.7 184.65 13.25 183.9 12.9 183.05 12.45 182.3 12 181.4 11.45 180.6 11 180.75 12.1 181.05 13.85 181.1 13.95 181.1 14.1 181.25 14.85 181.45 15.7 181.5 16.1 181.55 16.5 181.65 17.15 181.8 17.7 181.9 18.6 181.95 19.25 181.95 19.4 182 19.55 182 19.85 182 20 182 21.05 181.85 22.15 181.65 22.9 181.45 23.7 180.95 25.4 180.35 25.85 182 26.65 184.65 29.2 187.4 31.25 190.9 31.25 192.3 31.25 193.2 30 194.05 28.85 193.8 27.65 194.9 30.1 197 34.15 198.65 37.75 198.65 41.3 198.65 45.25 195.45 48.1 194.95 48.55 194.5 48.85 192.4 50.45 191.25 49.95 191.25 50 191.1 50.05 191 50.15 191 50.5 191 54.8 197.3 68.1 197.45 68.25 197.65 68.4
L 197.4 68.4
Q 197.35 68.25 197.3 68.1 192.9 64.65 190.95 62.35 190.4 61.65 189.65 60.55 190.35 62.1 190.7 62.7 187.4 60.45 185.25 56.2 184.7 55.1 184.3 54 184.1 53.55 183.9 53.05 183.05 50.65 182 48.75 181.1 47.05 180.1 45.8 179.65 46.35 178.8 47.05 178 47.75 176.9 48.65 176.25 49.15 175.5 49.7 171.8 52.35 169.35 53.7
L 168.8 53.7
Q 169.1 52.55 174.25 49.25 175.75 48.3 176.95 47.6 176.85 46.8 176.5 46.25 175.3 47.2 173.45 48.4 169 51.35 168.8 51.5 169.65 49.7 173.85 46.95 175.05 46.15 175.95 45.6 175.15 44.95 173.8 44.75 168.6 44 168.15 43.75 164 41.4 162.45 40.55 160.95 39.8 159.8 39.5 158.65 40.6 156.6 42.2 156 42.55 154.35 43.75 154.1 44.25 153.95 44.75 153.6 45.85 153.55 46.8 153.5 47.15 153.5 47.45 153.5 50 159.3 52.35 160.75 52.9 163.15 53.8 164.15 54.2 165.35 54.65 167.95 55.55 171.25 56.75 173.4 57.6 176.95 58.55 179.1 59.6 179.6 62.7 179.65 63.3 179.7 64.05 179.7 64.35 179.75 64.6 180 68.9 182.1 74.5 182.7 76 183.15 77.35 183.35 77.95 183.6 78.55 184.7 82 184.95 83.95 185 84.55 185.1 85.05 185.95 89.4 189.3 93.85 190.05 94.8 190.95 95.85 191.3 96.15 191.6 96.55 189.8 101.3 186.9 109.05 183.9 117.55 183.9 121.4 183.9 123.4072265625 187.5 128.75 189.2859375 131.425 191.95 134.9 197.25 141.9 201.75 145.7 203.45 147.1 205 148.15 206.2 148.85 207.3 149.35 207.95 149.65 208.6 150 211.4 151.3 213.95 152.85 218.95 155.9 222.7 159.7 226.4 163.35 228.9 164.6 229.65 164.85 230.45 165.1 230.65 165.25 230.95 165.3
L 231.65 165.7
Q 232.5 166.15 232.95 166.5 230.9 166.2 228.95 165.6 226.05 166.5 220.9 167.8 215.3 169.15 212.55 169.75 221.15 183.15 249.85 230.85 272.55 268.55 278.35 274.75
L 278.35 271.7
Q 277.05 269.2 275.5 265 274 261 273.8 259.6
L 273.8 258.85
Q 277.45 263.05 299.05 296.1 302.478515625 301.3412109375 305.5 305.9
L 333.9 305.9
Q 322.3138671875 281.2755859375 309.3 257.25 297.45 235.45 283.9 214.95 270.3 194.2 257.35 173.1 244.5 152.05 234.65 129.35 234.3 128.55 234.05 127.85 233.4 126.35 232.8 124.95
L 233.2 141.05
Q 231.55 136.05 230.75 130.85 230.6 129.9 230.5 128.95 230.5 128.6 230.45 128.35 228.7619140625 112.9591796875 227.45 97.45 226.774609375 89.5767578125 226.2 81.65 226.15 80.75 226.1 79.9 225.95 77.15 225.75 74.5 224.95 61.8 226.15 49.2
L 212.7 24.9
Q 212.15 23.95 211.9 23.4 210.9 21.2 210.3 19.4
M 192.35 19.05
Q 192.4 21.2 189.6 24.15 186.05 27.4 184.6 28.85
L 184.05 28.5
Q 184.75 27.3 186.65 24.95 185.15 26.1 184.05 26.15 184.85 25.5 187.55 22.5 190.1 19.7 190.7 19.3 190.85 19.9 190.55 20.65 191.8 19.35 192.35 19.05
M 195.3 67.6
Q 195.75 67.45 195.75 67.25 200.55 70.85 202.65 77.85 203.6 81.15 204.65 86.85 204.75 87.4 204.85 88 204.9 88.5 205 89.05
L 204.3 89.2
Q 204.15 88.65 204.05 88.05 203.9 87.4 203.75 86.85 202.5 81.3 201.6 78.35 199.8 71.95 195.3 67.6
M 215.95 67.1
Q 215.95 68.15 216.05 69.55 216.15 72.65 216.5 77.5 216.5 82.05 216.2 84.25
L 215.25 84.4
Q 214.85 81.05 214.45 75.35 214.1 70.2 214.1 68.6 214.1 68.15 214.35 67.95 214.5 67.75 215.65 67.25 215.8 67.2 215.95 67.1
M 213.8 115.4
L 214.3 115.4
Q 215.95 120.2 218.15 129 218.45 130.1 218.75 131.25 219.2 133.15 219.7 135.3
L 219.35 135.6
Q 218.75 134 218.05 131.7 217.7 130.75 217.45 129.65 216.95 127.75 216.35 125.6 213.85 115.7 213.8 115.4
M 249.2 182.5
L 249.65 182.5
Q 263.4 207.3 277 237.25
L 277 225.8 277.75 225.8
Q 278.1 234.7 278.45 252.85 277.8 252.85 277 250.65
L 277 237.7
Q 270.45 226.9 262.6 210.65 253.55 191.4 249.2 182.5
M 281.4 234.85
Q 281.55 237.6 281.7 243.45 281.95 248.8 282.4 252.55
L 282.4 256.45 281.65 256.6
Q 281.65 253.3 280.8 251.55
L 280.8 234.85 281.4 234.85
M 210.85 110.4
L 211.35 110.25
Q 211.35 110.35 211.4 110.5 211.6 111.05 212 112.5 212.75 115.2 214.45 120.95 216.15 126.55 216.65 130.45 216.7 131.15 216.75 131.75
L 216.05 131.95
Q 215.95 131.6 215.9 131.25 215.05 127.2 213.55 121.2 212.1 115.4 211.4 112.65 211 111.2 210.9 110.6 210.875390625 110.5259765625 210.85 110.45 210.85 110.425390625 210.85 110.4
M 118.2 95.9
Q 118.156640625 95.7283203125 118.1 95.55 117.696875 95.717578125 117.25 95.85 115.93359375 96.362109375 114.55 96.85 100.75 101.8 92.05 101.8 85.05 101.8 79.4 97.5 73 92.7 73 85.15 73 84.6 73.3 83.25 73.05 81.25 72.85 78.7 72.35 72.75 71.05 69.5 69.35 65.25 65.65 62.05 65.2 61.65 64.8 61.3 63.35 61.15 62.1 60.85 61.1 60.65 60.25 60.4 60.35 60.65 60.45 60.9 61.15 62.5 61.15 68.05 61.15 75.2 59.55 80.7 59.45 81.05 59.35 81.4 57.65 86.55 54.05 92.25 53 94.2 52.1 95.6 47.3 103.15 42.5 103.15 40.1 103.15 39.5 101.7 39.15 100.9 39.15 97.65 39.15 96.1 40.2 91.8 41.3 87.5 41.3 86.9 41.3 86.4 40.95 85.8 40.9 85.7 40.85 85.65 38.55 90.2 38.3 90.5
L 37.55 90.65
Q 38.35 86.9 38.7 85.5 37.8 86.1 36.95 87.9 35.75 90.5 35.95 92.15
L 35.6 92.15
Q 35.25 91.15 35.25 87.1 35.25 76.05 38.85 68.5 39 68.35 39.1 68.1 39.25 65.5 41.8 62.6 42.25 61.95 42.8 61.4 43.2 61 43.6 60.65 45.35 59 46.85 58.05 45.4 58.1 44.05 58.25 42.95 58.4 41.95 58.5 37.05 59.15 33.15 60.5 32.8 61.4 32.45 62.25 32 63.15 31.6 64.05 31.8 63.75 32 63.5 32.45 62.8 32.95 62.3 35.65 59 37.55 60.5 36.8 61.35 36.05 62.2 34.95 63.5 34.05 64.9 32.35 67.5 31.2 70.4 31.8 70.15 32.15 70.35 31.35 71.65 30.2 73.65
L 30.2 73.75
Q 29 78.45 29 86.7 29 92.3 29.3 94.4 29.85 98.25 31.95 102.95 32.8 104.95 31.85 110.8 31.85 111.45 32 112.15 32.45 114.3 34.25 115.65 34.65 115.9 35.15 116.2 36.45 116.85 38.3 117.25 37.9 117.6 36.8 117.95 35.4 118.35 34.15 118.35 34.05 118.35 33.8 118.25 32.15 120.85 30 125.3 28.05 129.1 25.95 133.5
L 25.2 133.5
Q 23.7 121.2 23.7 116.15
L 20 116.15
Q 18.2 117.95 15.75 126.15 13.15 134.7 13.15 139.8 13.15 148.65 15 157.65 15.9 160.15 17.05 163.05 20.6 172.45 24.2 181.05 24.2 182.85 23.45 181.5 22.3619140625 179.04140625 21.35 176.75 21.5 177.1806640625 21.5 177.5 21.5 177.85 21.5 178.3 23.1 182.55 25.2 187.5
L 25.2 188.35
Q 25.3 186.75 26.65 181.15 28.2 174.9 28.95 174.05
L 28.95 173.25
Q 32.05 195.9 49 216.1 59.627734375 228.8533203125 70.95 234.15 71.35234375 234.3240234375 71.75 234.5 72.770703125 234.5 73.85 234.5 75.1421875 233.1294921875 76.55 231.45 84.35 222.2 88.75 213 89.682421875 211.088671875 91.25 206.75 91.758984375 203.893359375 92.45 200.15 92.7345703125 201.076171875 93 201.9 93.2888671875 201.0228515625 93.45 200.45 93.95 198.65 96.75 197.8 98.6634765625 197.1828125 99.8 196.8 100.1560546875 196.2603515625 100.6 195.55 100.6 195.5 100.7 195.45 101.9 193.35 102.1 193.2
L 102.9 193.35
Q 103.75 193.55 103.9 193.9 103.65 194.15 103.1 195.1 103.1 195.15 103.15 195.15 103.23984375 195.1201171875 103.35 195.1 104.4912109375 194.2529296875 105.5 193.1 107.65 190.4 109.2 188.65 110.7 186.95 111.85 183.3 111.9171875 183.0759765625 112 182.85 110.60703125 182.9421875 109.4 183.4 108.65 183.7 106.25 184.95 107.15 183.4 108.5 182.1 108.25 181.9 108.25 181.2 108.25 180.85 112.8 178.85 115.05 177.55 118 176.5 120.1 175.7 121.95 174.9 123.0408203125 174.3748046875 124 173.8 125.489453125 172.6232421875 126.8 171.3 132.8 165.2 132.8 158.75 132.8 154.7 128.9 139.7 125.10546875 125.33828125 124.95 122.65 122.33984375 112.3947265625 119.45 100.95 118.75 98.2 118.2 95.9
M 41.95 105.65
Q 42.15 106.1 42.15 107.3 42.15 108.1 41.6 109 41.05 109.85 39.55 111.45
L 36.1 111.45
Q 35.9 110.4 35.9 108.35 35.9 106.05 37.2 103.85
L 39.55 104.1
Q 41.45 104.6 41.95 105.65
M 92.15 196.5
Q 93.2 195.2 94.05 194.25 95.75 192.35 96.3 192.1 95.95 193.3 94.7 194.8 93.5 196.4 92.45 196.85
L 92.15 196.5
M 143.75 108.65
Q 143.25 108.5 142.8 108.45 142.28203125 108.30390625 141.95 108.15 140.578515625 108.884375 139.05 109.75 129.55 115.6 128.05 116.3 129.0009765625 117.3345703125 130.1 118.45 130.8404296875 118.20546875 131.2 118 131.12890625 117.8576171875 130.85 117.4 130.5755859375 116.893359375 130.05 116 131.8 116.6 134.05 117.2 141.8 119.35 149.25 120.75 154.15 121.7 158.85 124.1 158.85 123.45 158.85 122.75 158.85 121.8 158.45 121.1 154.55 113.5 146.75 109.4 146.05 109.25 145.4 109.15 144.55 108.8 143.75 108.65
M 94.3 85.15
Q 94.45 85.1 94.5 85.05 94.65 84.9 94.85 84.8 95.35 84.45 95.95 84.1 97.7 82.9 100.25 81.05 99.5 81.25 97.75 82.15 96.45 82.9 95.4 82.9 87.85 82.9 83.7 77.95 82.1 76.05 81.4 74.25 81.55 76.7 82.7 79.35 84.65 83.95 88.8 87.15 90.2 87.35 91.35 87.4 93.25 85.95 94.3 85.15 Z"/>

<path fill="#E5CFA5" stroke="none" d="
M 128.65 194.9
Q 128.61640625 195.0837890625 128.55 195.25 128 196.8 127.2 198.8 126.4 201.6 125.2 203 122.9 205.85 117.75 206.9 115.5 208.7 115.7 213.7 114.3 218.1 103.15 219.15 102.8 220.35 102.15 223.4 101.45 226.15 100.35 227.5 100.3 227.55 100.25 227.6 98.9 229.15 95.45 232.3 93.55 234 92.8 234.75 93.25 235.65 93.65 237 93.7 237.15 93.75 237.4 95 239.4 99.8 240.55 103.45 241.4 108.45 243.8 129.85 252.5 143.1 271.45 143.95 272.65 144.7 273.9
L 145.35 273.7
Q 176.1388671875 298.04453125 213.7 305.9
L 238.5 305.9 128.65 194.9
M 346.45 10.4
L 346.45 3.05
Q 343.0876953125 3.05 339.75 3.05 338.85 3.05 338 3.05 337 3.05 336 3.05 324.348828125 3.03828125 312.7 3 304.003515625 3.0166015625 295.3 3 251.440625 2.9615234375 207.55 2.9 208.1791015625 3.6626953125 208.9 4.55 211.65 8 212.6 11.3 213.5 14.15 214.35 16.7 214.6 16.6 214.9 16.5 215.7 16.15 215.9 16.15 215.3 17.4 214.95 18.55 216.15 22.15 217.2 24.85 217.45 25.05 217.65 25.2 224.7 26.55 228 29.15 228.3 29.35 228.8 29.9 230.2 31.05 231.45 32.6 232.8 34.3 233.9 36.1 234.95 37.4 237 40.1 242.05 44.8 248.5 44.8 252.95 44.8 255.4 42.35 256.35 41.35 257.4 38.95 257.55 38.7 257.8 36.05 258.05 34.3 259.55 33.8 259.65 33.75 259.75 33.75 260.5 33.5 260.35 34.45 260.3 34.7 260.3 35 260.45 35.3 260.65 35.8 260.9 36.65 260.95 37.25 261 37.5 261 37.75 261 40.5 258.1 43.7 258.1 43.8 258.1 43.9 258.1 46.05 254.4 49.55 253.5 50.4 252.6 51.05 251.95 51.75 251.05 52.15 250.6 52.3 250.25 52.45 248.7 53.2 247.2 53.55 245.8 53.8 244.25 53.8 237.4 53.8 234.35 49.5 231.35 45.2 226.95 43.35 226.65 43.9 226.5 44.3
L 227.2 46.05 227.85 44.95 228.05 46.9
Q 231.35 47.75 234.4 50.6 237.85 52.85 240.4 56.05 243.4 59.9 245.15 65 246.55 69.05 248.5 72.9 249.65 75.25 251 77.55 251.36328125 78.315625 251.75 79.05
L 346.45 10.4
M 173.55 139.9
L 175.75 138.15
Q 175.587109375 137.5333984375 175.55 137.2 174.7021484375 138.5103515625 173.55 139.9
M 165.5 146.4
Q 164.23515625 147.038671875 162.9 147.5 156.96953125 149.556640625 155.7 154.45
L 165.5 146.4
M 247.2 82.45
Q 247.041796875 82.1833984375 246.9 81.9 245.8 80.55 244.65 78.6 243.25 76.2 242.25 74.95 238.1 69.95 236.1 67.8 232.95 64.35 230.35 62.2 230.55 63 230.5 63.65 230.45 64.6 230.15 67.3 230.15 67.8 230.3 74.5 230.061328125 84.73984375 230.85 94.85
L 247.2 82.45 Z"/>

<path fill="#EFEED8" stroke="none" d="
M 175.75 138.15
L 173.55 139.9
Q 173.216796875 140.3259765625 172.85 140.75 169.4802734375 144.42265625 165.5 146.4
L 155.7 154.45
Q 155.6478515625 154.671875 155.6 154.9 155 157.8 155.55 163.7 155.5 165.45 155.15 172.3 154.9 177.6 155 180.9 155.15 185.6 152.5 189.3 149.95 195.3 143.25 196.05 140.6 197.05 137.5 195.6 137.35 195.5 137.25 195.45 133.95 193.7 131.6 193.7 129.25 193.65 128.9 194.35 128.7998046875 194.6169921875 128.65 194.9
L 238.5 305.9 249.05 305.9
Q 238.20234375 263.4859375 221.95 223.05 208.85 191.9 195.35 161.1 194.9 160.9 194.45 160.65 186.4 160.4 180.2 149.1 178.2 145.4 176.65 141 176.0205078125 139.1744140625 175.75 138.15
M 338.55 305.9
L 346.45 305.9 346.45 10.4 251.75 79.05
Q 252.91328125 81.079296875 254.4 82.8 254.640234375 83.2103515625 254.9 83.6 256.05 85.35 258.75 87.85 259.2 88.3 259.45 88.35
L 259.5 88.35
Q 259.7294921875 88.5970703125 260 88.8 263.85 91.35 267.85 93.05 268 92.95 268.15 92.9 268.15 93.15 268.3 93.25 268.4 93.3 268.55 93.35 272.79140625 95.073046875 277.2 95.95 277.8759765625 96.344140625 279.2 96.5 281.1 96.8 284.95 97.25 285.8208984375 97.3330078125 286 96.95 291.55703125 97.00859375 297.35 95.85 297.55 95.75 297.7 95.7 297.6 95.85 297.45 95.9 294.75 97.65 291.9 98.35 288.55 99.25 285.25 99.7 285.2869140625 99.789453125 285.3 99.9 283.674609375 99.81953125 282.7 99.75 281.99921875 99.75 281.8 100 280.968359375 100.046875 280.1 100.05 279.7111328125 99.85 278.75 99.85 275.65 99.95 272.9 99.3
L 272.7 99.45
Q 270.065625 98.9787109375 267.55 98.15 265.2 97.35 263 96.3 256.7 93.25 251 87.9 250.96328125 87.8595703125 250.9 87.8 250.7380859375 87.6111328125 250.55 87.4 250.297265625 87.10234375 250.05 86.8 250.01484375 86.817578125 249.95 86.8
L 249.2 86.1
Q 249.0544921875 85.9544921875 248.9 85.8 249.0892578125 85.7583984375 249.25 85.7 249 85.35 248.75 85.05 247.8859375 83.774609375 247.2 82.45
L 230.85 94.85
Q 231.7572265625 105.92734375 233.9 116.85
L 234.55 117.05
Q 237.65 125.75 241.6 134.05 241.75 134.3 241.85 134.5
L 242.15 134.5 242.8 136
Q 242.7177734375 136.0181640625 242.6 136 253.05 157.65 266.35 177.55 279.7 197.55 291.9 218.55 304.65 240.35 317.5 262.05 329.9921875 283.1392578125 338.55 305.9
M 312.35 94.65
Q 312.3033203125 94.6900390625 312.25 94.7 312.175 94.4814453125 312.1 94.25 312.2375 94.45625 312.35 94.65 Z"/>

<path fill="#2A201E" stroke="none" d="
M 211.35 110.25
L 210.85 110.4
Q 210.85 110.425390625 210.85 110.45 210.875390625 110.5259765625 210.9 110.6 211 111.2 211.4 112.65 212.1 115.4 213.55 121.2 215.05 127.2 215.9 131.25 215.95 131.6 216.05 131.95
L 216.75 131.75
Q 216.7 131.15 216.65 130.45 216.15 126.55 214.45 120.95 212.75 115.2 212 112.5 211.6 111.05 211.4 110.5 211.35 110.35 211.35 110.25
M 281.7 243.45
Q 281.55 237.6 281.4 234.85
L 280.8 234.85 280.8 251.55
Q 281.65 253.3 281.65 256.6
L 282.4 256.45 282.4 252.55
Q 281.95 248.8 281.7 243.45
M 214.3 115.4
L 213.8 115.4
Q 213.85 115.7 216.35 125.6 216.95 127.75 217.45 129.65 217.7 130.75 218.05 131.7 218.75 134 219.35 135.6
L 219.7 135.3
Q 219.2 133.15 218.75 131.25 218.45 130.1 218.15 129 215.95 120.2 214.3 115.4
M 77 42.95
Q 77.95 42.05 78.85 40.95 80.7 38.45 80.9 36.45 79.35 39.65 78.1 41.3 77.5 42.1 76.75 42.85 75.85 43.65 74.9 44.25 74.45 44.55 73.95 44.8 74.45 44.6 74.95 44.3 76.05 43.75 77 42.95
M 77.85 251.8
L 77.3 251.8
Q 78.7 264.7 74.6 280.95 72.35 289.7 68.5 299.35
L 69.05 299.35
Q 72.4 290.9 74.35 285.8 76.2 280.85 76.85 278.95 78.3 274.35 78.3 262.5 78.3 255.05 77.85 251.8
M 94.05 194.25
Q 93.2 195.2 92.15 196.5
L 92.45 196.85
Q 93.5 196.4 94.7 194.8 95.95 193.3 96.3 192.1 95.75 192.35 94.05 194.25 Z"/>

<path fill="#D7F0F7" stroke="none" d="
M 312.25 94.7
Q 312.3033203125 94.6900390625 312.35 94.65 312.2375 94.45625 312.1 94.25 312.175 94.4814453125 312.25 94.7
M 171.75 67.55
Q 171.9 67.6 172 67.65 172 67.6 172 67.55 171.9 67.55 171.75 67.55
M 225.55 41.55
Q 225.4 41.5 225.3 41.45
L 225.4 41.6
Q 225.5 41.6 225.55 41.55
M 197.3 68.1
Q 197.35 68.25 197.4 68.4
L 197.65 68.4
Q 197.45 68.25 197.3 68.1
M 40.5 109.35
Q 41 108.6 41 107.45 41 107 40.05 106.45 38.8 105.8 36.9 105.6
L 36.9 110.4 39.55 110.25
Q 40.2 109.7 40.5 109.35
M 226.5 44.3
Q 226.65 43.9 226.95 43.35 226.45 43.15 226 42.95
L 226.5 44.3
M 217.65 25.2
Q 217.45 25.05 217.2 24.85 217.25 25.05 217.3 25.15 217.5 25.2 217.65 25.2
M 214.35 16.7
Q 214.6 17.65 214.95 18.55 215.3 17.4 215.9 16.15 215.7 16.15 214.9 16.5 214.6 16.6 214.35 16.7 Z"/>

<path fill="#593A3F" stroke="none" d="
M 101.7 83.25
Q 102.9029296875 82.5908203125 103.35 81.15 102.2 82.05 100.9 83.05 101.334375 83.1529296875 101.7 83.25 Z"/>

<path fill="#995D3E" stroke="none" d="
M 83.8 93.2
Q 84.7 92.5 89.45 88.9
L 88.25 88.8
Q 83.8 87.05 81.7 82.3 80.3 79.25 79.4 73.1 78.5 66.7 77.75 64.75 76.65 62.05 74.65 61.2 72.35 61.6 69.9 61.6 69.8 61.6 69.7 61.6 68.35 61.6 67.1 61.5 67.55 61.7 68.05 61.95 70.6 63.45 72.8 67.3 76.05 73.05 75.3 76.3 75.35 76.45 76.2 84.85 76.75 90.55 80.05 93.2
L 83.8 93.2
M 228.65 56.4
Q 228.7 57.85 228.75 59.35 230.45 59.1 232.55 60.4 234.65 61.65 237.1 64.15 238.25 65.55 239.6 67.25 237.35 63.95 234.65 60.95 232.1 58.2 228.65 56.4
M 235.9 57.1
Q 235.5 56.65 234.25 55.3 232.3 53.1 228.25 48.6
L 228.65 55.5
Q 233.75 56.65 237.55 59.8 236.4 57.7 235.9 57.1
M 5.3 170.5
Q 4.5083984375 170.2662109375 3.6 170.05
L 3.6 174.95
Q 4.210546875 175.2021484375 4.9 175.45 7.7 176.7 9.3 178.45 12.6 182.1 13.9 185.2 15.25 188.35 14.7 191.7
L 14.9 191.9
Q 15 190.3 15.8 188.45 15.5 184.85 14.7 183.25 13.85 181.45 5.3 170.5
M 28.4 71.7
Q 28.55 70.6 28.95 69.4 24.8 76.8 20 80.7 13.5 86.1 3.95 86.1 3.773828125 86.1 3.6 86.1
L 3.6 94.9
Q 4.8234375 94.3404296875 6.3 93.7 14.35 90.25 15.65 89.55 19.9 87.1 25.75 77.45 26.45 76.3 27.05 75.35 27.1 75.2 27.2 74.95 28.35 72.25 28.4 71.7
M 95.6 36.2
Q 95.8 35.8 96 35.45 94.75 36.4 93.15 37.4 91.1 38.7 88.45 40.1 87.3 40.7 86 41.35 84.75 41.95 83.65 42.5 82.75 43.8 82 44.55 80.8 45.7 80.05 45.35 80.35 44.8 80.7 44.3 80.95 43.9 81.15 43.6 80.5 43.85 79.85 44.15 78.2 44.8 76.6 45.4 71.45 47.2 67 47.85 66.8 47.85 66.6 47.9 65.45 48.55 64.4 49.15 63.05 49.15 61.75 49.15 58.5 49.1 55.25 49.05 48.75 48.85 46.75 48.75 45.9 48.65 45.85 48.6 45.35 48.7 44.9 48.7 43.1 48.8 42.6 47.8 42.45 47.6 42.4 47.4 41.8 46.4 40.65 46.4 39 46.4 37.45 46.45 37.25 46.4 37 46.45 36.2 46.45 35.45 46.5 35.2 46.5 35 46.5 33.7 46.55 32.5 46.6 28.85 46.85 26.1 47.25 25.8 47.3 25.6 47.35 20.8 48.1 18.65 49.5 16.65 52.1 13.7 53.75 12.95 54.15 12.1 54.55 11.2 54.95 10.25 55.3 10.85 54.55 11.75 53.75 12.35 53.15 13.2 52.55 15 51.05 17.6 49.45 18.65 48.75 19.7 48.2 17.5 48.7 14.55 49.5 13.35 49.85 12.05 50.2 10.5 50.6 9 51.05 7.6 51.45 6.15 51.9 6.05 51.95 6.05 52
L 5.6 52
Q 5.85 51.95 6.15 51.9 6.25 51.45 6.7 50.75 7.05 50.15 7.6 49.45 8.85 47.75 11.1 45.1 11.55 44.6 11.9 44.15 15.9 39.5 16.25 38.35
L 9.9 38.35
Q 9 38.85 7.6 39.5 7.25 39.6 6.9 39.7 6.4 40 5.95 40.25 5.55 40.75 5.25 41.35
L 4.8 41.35
Q 5.25 40.75 5.95 40.25 6.5 39.55 7.2 38.8 10.9 34.9 18.2 31.85 27.1 28.2 34.6 28.2 36.3 28.2 40.5 28.35 43.05 28.4 46.5 28.55 54.4 28.8 60.35 28.65 55.75 28.2 51.15 27.5 58.15 27.8 65.15 27.1 72.4 26.9 78.55 24.05 72.9 25.6 66.7 25.6 63.8 25.6 55.1 24.05 52.15 23.5 48.55 22.85 45.15 22.15 42.3 21.7 40 21.75 37.7 21.95 36.95 22 36.2 22.05 35.75 22.05 35.4 22.1 35.9 21.95 36.4 21.75 37.1 21.5 37.9 21.25 38.2 21.15 38.6 21.1 38.25 21.05 37.95 21 37.3 20.85 36.75 20.8 31.55 20.1 28.65 20.1 21.7 20.1 16.8 21.05 12.3 21.9 8.3 23.85 7.35 24.25 6.45 24.75 7.3 23.95 8.45 23.3 11.55 21.2 16.7 19.65 20.7 18.4 31 16.2 31.9 16.05 32.8 15.8 29.55 15.8 23.95 14.7 21.15 14.1 17.75 13.25 7.7 10.75 4.45 10.75 4.0392578125 10.75 3.6 10.8
L 3.6 84.4
Q 14.8474609375 83.409375 20.35 77.95 22.8 75.55 26.4 70 28.65 66.6 30.3 64.1 31 63 31.65 62.1 32.15 61.35 32.6 60.75 31.35 61.2 30.2 61.7 28.85 62.3 27.75 63 27.45 63.1 27.15 63.25 24.5 64.9 22.35 67.1 20.6 68.9 20.35 68.9 21.25 65.4 26.1 62.05 26.55 61.7 27 61.4 27.5 61.1 28 60.8 31.5 58.7 36.05 57.5 38.7 56.7 41.75 56.2 42.85 56 44.05 55.9 48.65 55.3 54.1 55.3 56.35 55.3 59.35 56.9 59.55 57.05 59.85 57.15 60.75 57.55 62 57.85 65 58.55 70.2 58.55 71.45 58.55 72.55 58.5 73 58.45 73.5 58.4 77.45 57.95 80.75 56.4 80.15 56.35 79.4 56.25 76.55 55.85 76.55 55.45 79.35 55.35 81.85 55.05
L 81.85 55
Q 85.45 53.75 89.5 48.85 90.2 47.8 90.85 46.7 91.8 44.95 94.4 39.15 94.7 38.3 95.15 37.35 95.4 36.8 95.6 36.2
M 47.75 26.7
Q 48.2 26.85 48.65 26.95 49.8 27.2 50.9 27.5 49.9 27.35 48.9 27.15 48.2 27.05 47.55 27 45.35 26.7 43.15 26.6 42.6 26.55 42.05 26.5 38.4 26.25 34.75 26.3 33.7 26.3 32.55 26.4 30.1 26.6 27.8 27.2 27.35 27.35 26.95 27.45 23.4 28.25 20.35 26.9 20.6 26.7 20.85 26.6 21.2 26.45 21.6 26.4 22.95 26 24.3 25.75 27.9 25.1 31.7 25.2 32.55 25.15 33.35 25.15 34.7 25.05 36.1 25.1 39.25 25.15 42.4 25.6
L 42.45 25.6
Q 45.1 26 47.75 26.7
M 126.6 47.45
Q 126.25 47.65 126.15 47.75 125.2 48.55 124.4 49.3 123.25 50.55 122.6 51.9 122.05 53.05 121.95 54.25 121.9 54.5 121.9 54.7 121.3 54.85 120.9 54.7 120.65 54.6 120.4 54.4 120.35 53.35 120.55 52.4 120.75 51.05 121.35 49.75 120.4 50.2 119.45 50.75 107.4 56.75 105.7 58.4 106.35 58.7 107.65 59 108.9 59.2 109.75 59.2 110.45 59.2 112.1 59.05 113 59 114.15 58.85
L 114.25 58.85 114.25 59.2
Q 113.9 59.45 112.35 59.85 110.2 60.4 105.75 61.35 97.65 63.05 95.05 63.05 91.7 63.05 90.8 62.65 95.6 61.85 101.6 51.2 107.6 40.45 106.15 34.55
L 106.15 35
Q 105.6 36.05 105.1 37.1 104.15 43.85 97.2 49.95 90.8 55.55 85.55 56.4 81.9 59.05 77.95 60.35 80.45 62.65 81.35 66.4 82 69.5 83.05 75.45 84.7 76.2 88.6 79.9 92.85 82.8 98.3 80.5
L 99.15 80.65
Q 100.05 80.8 100.25 81.05 101.85 79.85 103.8 78.35 110.3 73.4 111.75 72.55 110 74.9 105.25 78.7 106.6 77.9 108.1 77.05 106.9 78.15 104.9 79.85 107.05 79.05 111.75 78.7
L 112.35 78.1
Q 126.2 77.5 130.45 73.85 131.15 73.2 132.75 70.95 133.9 69.45 135.45 68.9 133.5 72.7 130.75 74.85 125.75 78.8 112.35 79.95 105.55 80.25 104.1 81.5 103.55 82.15 103.25 82.45 102.809375 82.9884765625 101.75 83.25 102.9912109375 83.5 103.6 83.5 126.3 83.5 141.45 75.1 144.4 73.45 147.85 70.65 148.75 69.9 149.8 69.05 151.9 67.15 154.35 64.85 154.35 64.6 154.4 64.5 154.4 64.1 154.45 63.7
L 154.5 63.7
Q 154.65 62.95 154.8 62.3
L 155.35 62.3
Q 155.6 64.15 155.6 65.65 155.6 67.1 155.35 68.55 155.3 69.55 155.25 70.5 155.1 71.35 155 72.15
L 155.55 70.75
Q 155.6 70.65 155.75 70.5 156.35 69.4 156.9 69.45 156.85 69.95 156.75 70.5 156.5 71.75 156.25 72.95 154.7 78.7 151.45 83.35 151.8 82.95 152.15 82.6 155.6 78.85 157.2 74.8 157.6 73.85 157.85 72.85 158.05 72.1 158.2 71.4 158.3 70.8 158.45 70.25 159 66.6 158.45 62.3 154.25 59.55 149.9 55.4 149.8 55.3 149.65 55.15 147.65 58.7 144.05 62.35 143.1 63.25 142 64.2 141.25 64.95 140.4 65.65
L 140 65.25
Q 140.25 64.95 141.35 63.7 142.05 62.85 143.15 61.65 144.25 60.35 145.75 58.65 148.1 55.85 149.25 54.85 141.6 47.4 138.7 42.3
L 139.05 40.55
Q 137.55 42.7 136.55 45.25 135.45 48.05 134.15 53.65
L 133.4 53.8
Q 133.4 53.7 133.2 53.1 132.95 52.4 132.95 51.35 132.95 50.3 134.35 46.75 135.65 43.4 136.15 42.75 136.6 42.2 137.3 40.75 136.15 41.5 134.95 42.3 128.25 46.35 126.6 47.45
M 147.3 60.3
Q 149.1 57.7 150.15 57.65 150.5 59.1 148.35 62.05 147.2 63.65 145.9 64.9 145.05 65.7 144.15 66.35
L 144.1 66.35 143.65 65.95
Q 143.7 65.9 143.75 65.85 144.4 64.95 145.1 63.75 146.05 62.25 147.3 60.3
M 141.95 6.5
Q 142.8 7.35 143.55 8.25 145.8 11.15 146.7 14.45 147.4 17.2 147.4 23.3 147.4 25.6 147 27.65 149.25 28.85 153 30.5 153.05 29.4 153.6 27 153.8 26.05 154 25.15 153.7 21.35 151.6 16.6 148.65 10.2 144.25 6.45 143.5 5.75 142.65 5.15 141.6 4.5 140.6 3.95
L 140.6 4.35
Q 140.7 4.9 140.9 5.5 141.45 5.95 141.95 6.5
M 169.1 35
Q 168.8 35 168.5 34.9 165.4 34.55 163.4 31.2 163.35 31.1 163.15 30.75 162.55 29.55 160.65 25.2 159.55 22.8 155.45 18.2 154.35 17 153.7 16.05 153.75 16.65 153.9 17.3 154.2 19.85 154.2 22 154.2 23.45 154 25.15 154.1 28.2 153.1 30.55 154.2 31 155.5 31.55 157.85 32.5 160.7 33.65 165.6 35.55 169.3 37 177.05 40.1 179.15 41 181.65 43.1 183.75 46.8 183.85 46.75 184.05 46.75 182.5 43.1 179.3 40.05 174.15 35.2 169.1 35 Z"/>

<path fill="#7B5A53" stroke="none" d="
M 163.1 126.5
Q 163.25 126.75 163.45 127.05 164.8 129.35 166.4 130.45 168.1 131.65 170.1 131.6
L 165.85 126.95 166.05 124.75
Q 165.3 123.35 164.8 121.85 162.1 114.2 155 111.4 153.6 110.85 152.05 110.45 152.65 110.8 153.25 111.25 158.4 114.35 160.3 120.25 161.35 123.45 163.1 126.5
M 81.85 55.05
Q 82.75 54.95 83.65 54.8 87 52.45 89.5 48.85 85.45 53.75 81.85 55
L 81.85 55.05
M 153.6 27
Q 153.05 29.4 153 30.5
L 153.1 30.55
Q 154.1 28.2 154 25.15 153.8 26.05 153.6 27
M 6.05 52
Q 6.05 51.95 6.15 51.9 5.85 51.95 5.6 52
L 6.05 52
M 5.25 41.35
Q 5.55 40.75 5.95 40.25 5.25 40.75 4.8 41.35
L 5.25 41.35 Z"/>

<path fill="#EC9C75" stroke="none" d="
M 185.6 3.5
L 185.6 5.5
Q 186.15 5.4 186.9 5.3 188.302734375 3.848828125 188.75 2.9 187.0455078125 2.904296875 185.3 2.9 185.4541015625 3.1986328125 185.6 3.5 Z"/>

<path fill="#C08157" stroke="none" d="
M 189.8 4.95
L 189.65 4.55
Q 189.5 5.3 189.2 5.8 188.65 6.75 186.9 7.15
L 185.25 7.15
Q 184.95 7.5 184.6 7.65 184.5 7.5 184.35 7.1 182.8 6.7 182.55 6.2 182.75 6.05 183.85 5.85 183.9 5.85 183.95 5.85 183.7 4.85 183.4 3.45 183.3431640625 3.165625 183.25 2.9 177.729296875 2.89609375 172.15 2.9 175.4513671875 4.6322265625 177.05 5.5 177.8 5.9 178.2 6.05 178.3 6.15 178.4 6.2 179.3 6.8 181.65 8 182.8 8.55 184.3 9.3 184.4 9.35 184.55 9.4 185.15 9.75 185.75 10 186.4 10.35 187 10.65 188.25 8.2 189.8 4.95
M 244 50.65
Q 247.35 50.65 249.6 49.55 247.65 49.7 245.55 49.3 240.7 48.4 237 45.35 235.95 44.45 235.15 43.25 234.8 42.95 234.5 42.65 232.35 40.6 229.9 36.4 229.2 35.1 224.05 30 223.7 29.6 222.15 28.95
L 220.35 28.75
Q 219.55 28.7 218.65 28.5 218.5 28.5 218.4 28.45
L 224.8 40.4
Q 226.05 40.7 227.15 41.35 227.5 41.35 227.9 41.4 228.75 41.5 229.7 41.85 232.45 42.85 233.65 44.25 233.65 44.3 235.2 45.85 238.75 48.05 242.2 50.5 243.5 50.65 244 50.65
M 163.95 5.8
Q 163.379296875 4.2462890625 162.7 2.85 148.3927734375 2.8662109375 134.1 2.85 135.4541015625 4.5166015625 136.3 5.8 137.4 7.5 138.15 8.75 139.2 10.7 139.35 11.65
L 139.35 11.7
Q 139.55 12.8 139.2 16.1 139.2 17.85 139.05 19.35 138.6 22.9 137.05 25.25 134.3 29.65 126.15 34 133.3 28.5 135.65 24.9 137.2 22.5 137.7 19.1 137.85 17.7 137.85 16.15 137.85 13.45 137.25 11.2 137.1 10.85 137.05 10.55 136.75 9.55 136.3 8.6 135.45 6.95 134.2 5.7 132.8634765625 4.2419921875 131.75 2.85 129.366796875 2.84921875 126.95 2.85 126.9859375 2.8748046875 127 2.9 127.5 3.95 128.25 4.95 128.55 5.35 128.95 5.8 129.9 6.85 131.7 8.75 132.25 9.45 132.55 10.05 133 11.1 133 12.05
L 132.9 15.9 132.45 16.05
Q 132.45 15 132.35 14.05 132.1 12.45 131.6 11 130.7 8.7 128.95 7.05 128.2 6.25 127.55 5.45 126.75 4.45 126.25 3.45 126.117578125 3.147265625 126 2.85 103.942578125 2.8404296875 81.85 2.8 81.1150390625 3.726171875 80.15 4.65 76.4 8.25 71.7 9.85
L 71.6 9.5
Q 76.05 7.35 79.55 3.9 80.0291015625 3.40390625 80.55 2.8 78.7076171875 2.826171875 76.8 2.8 74.9201171875 4.79453125 72.55 6.8 69.2 9.65 65.7 12 62.9 13.7 60 15.15 60.45 14.8 65 11.4 65.2 11.25 65.4 11.1 69.7 7.85 71.25 6.35 72.6166015625 5.10390625 75 2.8 55.2595703125 2.81328125 35.5 2.8 34.8595703125 2.790625 34.2 2.75
L 3.6 2.75 3.6 9.45
Q 4.0431640625 9.4 4.45 9.4 10.95 9.4 18.9 11.7 22.25 12.65 25.3 13.25 29.35 14 32.8 14 34.1 14 35.3 13.95 36.15 13.9 37 13.85 41.4 13.45 44.5 12.2 48.6 10.45 53.65 9.65 55.3 9.35 57.1 9.15 54.15 11.1 47.4 13.15 47.25 13.2 47.15 13.25 53.9 12.15 58.2 11 61.1 10.3 63.4 9.45 67.5 7.85 69.8 5.9 68.75 8.25 63.9 10.2 62.1 10.9 59.75 11.55 55.1 12.8 48.7 13.7 48.55 13.8 48.35 13.8 45.65 14.15 42.6 14.5 40 15.15 37.7 15.45 36.85 15.6 36 15.65 34.3 15.8 32.8 15.8 31.9 16.05 31 16.2 20.7 18.4 16.7 19.65 11.55 21.2 8.45 23.3 7.3 23.95 6.45 24.75 7.35 24.25 8.3 23.85 12.3 21.9 16.8 21.05 21.7 20.1 28.65 20.1 31.55 20.1 36.75 20.8 37.3 20.85 37.95 21 38.25 21.05 38.6 21.1 39.6 20.8 40.6 20.6 44.25 19.9 48.05 20.1 48.8 20.15 49.6 20.2 51.85 20.55 54.1 20.75 56.25 20.9 58.4 21.05 61.55 21.1 64.75 20.9 65.3 20.9 65.85 20.55 69.65 20.6 73.15 18.95 78.3 16.85 82 12.8 82.95 11.75 83.8 10.55 83.35 11.65 82.85 12.6 79.6 18.45 73.25 21 69.35 22.55 65.15 22.5 60.8 22.05 56.5 21.8 49.45 21.45 42.3 21.7 45.15 22.15 48.55 22.85 52.15 23.5 55.1 24.05 63.8 25.6 66.7 25.6 72.9 25.6 78.55 24.05 80.5 23.15 82.35 22.05 82.7 21.75 82.95 21.25 85.1 17.55 89 17.25 85.9 20.15 82.55 22.8 81.15 23.85 79.75 24.9 78.85 25.6 77.9 26.2 74 28.5 69.65 29.25 64.95 29 60.35 28.65 54.4 28.8 46.5 28.55 43.05 28.4 40.5 28.35 36.3 28.2 34.6 28.2 27.1 28.2 18.2 31.85 10.9 34.9 7.2 38.8 6.5 39.55 5.95 40.25 6.4 40 6.9 39.7 7.25 39.6 7.6 39.5 9 38.85 9.9 38.35
L 16.25 38.35
Q 15.9 39.5 11.9 44.15 11.55 44.6 11.1 45.1 8.85 47.75 7.6 49.45 7.05 50.15 6.7 50.75 6.25 51.45 6.15 51.9 7.6 51.45 9 51.05 10.5 50.6 12.05 50.2 13.35 49.85 14.55 49.5 17.5 48.7 19.7 48.2 22.4 46.6 24.85 45.85 27.85 44.75 30.5 44.75 32.4 44.75 34.1 44.8 34.95 44.8 35.7 44.9 35.85 44.9 35.95 44.9 36.6 44.95 37.3 45 39.3 45.1 40.85 45.35 41.4 45.45 41.85 45.55 43.1 45.8 43.7 46.15 44.3 46.5 44.85 47.05 45.35 47.45 46.65 47.5 46.75 47.5 46.85 47.5 51.7 47.5 55.35 47.5 65.7 47.4 66.25 47.2 66.5 47.05 65.85 46.75 65.6 46.35 67.6 46.05 67.95 46.05 69.1 45.4 70.35 44.7 71.1 44.05 72 43.15 72.95 42.45 73 42.4 73.05 42.35 73.95 41.65 74.75 41.35 75.65 40.85 76.4 40.85 75.85 41.4 75.4 41.9 74.65 42.7 73.85 43.35 72.55 44.5 71.2 45.35 68.9 46.55 66.85 47.75 66.75 47.8 66.6 47.9 66.8 47.85 67 47.85 71.45 47.2 76.6 45.4 78.2 44.8 79.85 44.15 80.5 43.85 81.15 43.6 85.6 36.65 86 36.45
L 86.35 37.85
Q 84.8 40.7 83.65 42.5 84.75 41.95 86 41.35 87.3 40.7 88.45 40.1 91.1 38.7 93.15 37.4 94.75 36.4 96 35.45 96.7 33.8 97.35 32.45 98 31.2 98.6 30.2 99.6 28.35 100.55 27 100.8 26.7 100.95 26.5 100.95 26.7 100.9 26.95 100.5 30.5 99.8 33.75 99.4 35.35 98.9 36.95 95.85 46.9 89.1 53.45
L 89.1 53.5
Q 91.9 52.45 93.95 51.05 95.85 49.75 97.45 47.75 98.35 46.6 99.8 44.75 101.7 42.65 103.25 38.35 104.85 33.95 105.15 33.5 105.35 35.3 105.1 37.1 105.6 36.05 106.15 35
L 106.15 34.55
Q 107.6 40.45 101.6 51.2 95.6 61.85 90.8 62.65 91.7 63.05 95.05 63.05 97.65 63.05 105.75 61.35 110.2 60.4 112.35 59.85 113.9 59.45 114.25 59.2
L 114.25 58.85 114.15 58.85
Q 113 59 112.1 59.05 110.45 59.2 109.75 59.2 108.9 59.2 107.65 59 106.35 58.7 105.7 58.4 107.4 56.75 119.45 50.75 120.4 50.2 121.35 49.75 122.05 48.2 123.35 46.75 124 45.95 124.9 45.15 126.5 43.7 128.65 42.35 130.15 41.45 133.75 39.6 134.25 39.25 134.85 38.95 138 37.35 138.55 36.6 141.55 32 143.15 29.45 144.3 27.5 144.6 26.75 144.7 26.5 144.85 26.1 145.4 23.85 145.4 18.35 145.4 15.7 143.95 12.9 143.5 12.15 143.1 11.45 142.5 10.5 142 9.6 141.7 9.05 141.35 8.5 140.55 7.05 139.8 5.7 140 5.3 140.65 5.3 140.8 5.4 140.9 5.5 140.7 4.9 140.6 4.35
L 140.6 3.95
Q 141.6 4.5 142.65 5.15 143.5 5.75 144.25 6.45 148.65 10.2 151.6 16.6 153.7 21.35 154 25.15 154.2 23.45 154.2 22 154.2 19.85 153.9 17.3 153.75 16.65 153.7 16.05 154.35 17 155.45 18.2 159.55 22.8 160.65 25.2 162.55 29.55 163.15 30.75 163.35 31.1 163.4 31.2 165.4 34.55 168.5 34.9 168.8 35 169.1 35 174.15 35.2 179.3 40.05 182.5 43.1 184.05 46.75 184.3 46.6 184.6 46.55 184.75 46.5 185 46.5 186.55 46.1 188.9 45.8 193.2 45.1 193.8 42.45
L 193.8 42.25
Q 188.6 42.7 184.2 39.95 180.75 37.7 180.75 36.55 180.75 35.5 180.95 35.3 180.2 34.3 179.25 32.85 176.7 29 171 27.4
L 170.8 26.9
Q 170.2 27.05 169.5 27.2 174.35 24.95 175.55 21.1 175.75 20.4 175.85 18.95 175.15 19.8 173.95 20.7 170.7 23.25 170.65 23.3 168.75 23.3 167.1 23.1 166.75 23.3 166.25 23.75 166.25 23.1 166.3 22.55
L 165.15 20.75 165.15 20.3
Q 165.3 20.35 166.3 21 166.2 13.7 164.75 8.25 164.4 6.95 163.95 5.8
M 78.85 40.95
Q 77.95 42.05 77 42.95 76.05 43.75 74.95 44.3 74.45 44.6 73.95 44.8 74.45 44.55 74.9 44.25 75.85 43.65 76.75 42.85 77.5 42.1 78.1 41.3 79.35 39.65 80.9 36.45 80.7 38.45 78.85 40.95 Z"/>

<path fill="url(#Gradient_1)" stroke="none" d="
M 109.1 272.2
L 108.65 272.2
Q 108.85 272.55 109.6 273.7 109.3 272.6 109.1 272.2
M 145.8 132.65
L 146.3 132.7 146.3 132.65
Q 146 132.6 145.75 132.6
L 145.8 132.65
M 118 176.5
Q 115.05 177.55 112.8 178.85 113.7 178.4 114.9 177.9 119.9 175.75 121.95 175 122.45 174.85 122.7 174.75 122.823046875 174.713671875 122.95 174.65 125.8669921875 173.716796875 128.65 170.55 126.713671875 172.3037109375 124 173.8 123.0408203125 174.3748046875 121.95 174.9 120.1 175.7 118 176.5 Z"/>

<path fill="#9DA5BC" stroke="none" d="
M 34.85 296.05
Q 34.8 296.05 34.75 296.1 35 296.9 36.95 299.65 36.9 299.1 36.85 298.45 36.65 297.1 36.6 296.45 35.95 296.25 34.85 296.05
M 267.85 93.05
Q 268.05 93.15 268.3 93.25 268.15 93.15 268.15 92.9 268 92.95 267.85 93.05 Z"/>

<path fill="#FCDE98" stroke="none" d="
M 139.35 132.25
L 139.35 132.2
Q 137.0666015625 131.436328125 136.1 131.1 137.75 132.95 139.1 135.55 140.15 137.55 140.9 139.55 141.3296875 139.191796875 141.75 138.7 141.271875 138.5306640625 140.75 137.8 140.15 136.9 139.95 136.45 139.85 136.15 139.6 134.85 139.35 132.75 139.35 132.25
M 111.6 213.95
Q 111.7 213.9 111.85 213.75 111.85 213.7 111.9 213.6 111.75 213.75 111.6 213.95
M 120.55 201.9
Q 120.7 201.75 120.9 201.5
L 120.4 201.65 120.1 201.6
Q 120.35 201.8 120.55 201.9
M 118.8 203.45
Q 118.55 203.55 118.35 203.6 114.6 204.35 113.95 204.55 114 204.55 114.05 204.6 114 204.75 113.9 204.95 113.95 206.1 113.9 207.2 114.15 206.05 114.55 204.75
L 115.7 204.75
Q 115.8 204.9 115.9 205 117 204.25 118.8 203.45
M 20.1 174.55
Q 20.7392578125 175.4630859375 21.05 176.15 19.7265625 173.080078125 18.5 170.3 19.25 172.3 20.1 174.55 Z"/>

<path fill="#EBACA5" stroke="none" d="
M 102.1 196.65
Q 102.1 196.7 102.05 196.8 102.1 197.25 102.4 198.35 102.8 199.75 102.85 200.5 103 201.85 103.35 202.85 103.55 203.25 103.9 204 105.9 205.5 107.35 209.1 109.15 213.7 109.75 214.4 108 213.6 106.6 210.35 105.9 208.7 105.3 207.4 105.8 208.75 106.6 210.5 107.85 213.5 108.6 214.5 109.6 214.45 110.75 214.45 111.2 214.2 111.6 213.95 111.75 213.75 111.9 213.6 112.6 211.45 113.9 207.2 113.95 206.1 113.9 204.95 113.6 205.25 113.1 205.5 110 204 106.85 200.85 103.9 197.45 102.45 196.05 102.3 196.35 102.1 196.65 Z"/>

<path fill="#B28D94" stroke="none" d="
M 103.35 195.1
Q 103.23984375 195.1201171875 103.15 195.15 103.1853515625 195.179296875 103.2 195.2 106.4337890625 197.8744140625 113.95 204.55 114.6 204.35 118.35 203.6 118.55 203.55 118.8 203.45 118.85 203.45 118.9 203.45 119.75 202.75 120.55 201.9 120.35 201.8 120.1 201.6
L 118.75 201.4
Q 115.15 199.15 114.1 198.65 110.5 196.7 106.65 195.75 107.2 195.55 107.2 195.35 108.1 195.35 108.95 195.35 107.1 194.4 106.75 194.4 105.8 194.4 103.55 195.05 103.4498046875 195.0701171875 103.35 195.1 Z"/>
</g>

<g id="Layer0_0_MEMBER_0_FILL">
<path fill="#43463D" stroke="none" d="
M 138.95 121.1
Q 138.25 120.95 138.15 120.85 137.85 120.7 137.8 120.7 137.55 120.8 137.45 120.75
L 137.45 121
Q 137.8 121.05 138.45 121.45
L 139.35 121.65
Q 139.6 121.7 140 121.85 140.4 121.95 140.65 121.9 140.55 121.6 140 121.4 139.45 121.15 138.95 121.1
M 141.6 122.6
Q 140.2 122.15 139.65 122.05 139 121.9 136.55 121.8 135.15 121.8 134.55 122.1
L 134.65 122.45
Q 135.4 122.7 136.6 122.75 138.4 122.75 138.65 122.8 139.45 122.9 141.05 123.35 142.3 123.6 143.35 123.6 142.9 123.1 141.6 122.6
M 139.2 134.35
Q 136.45 129.55 133.3 126.35 132.904296875 126.026171875 132.65 125.95 132.249609375 125.46015625 131.85 125 131.55 125.05 131.35 125.3 131.15 125.6 131.2 125.9 131.2 126.35 131.7 127.05 136.05 133.15 138.95 139.85 140.4 143.15 141.85 144.15 141.8244140625 143.3087890625 141.6 142.4 142.179296875 143.4689453125 142.5 143.95 142.7 144.3 143.05 144.5 143.45 144.7 143.7 144.45 144.05 144.2 143.7 143.3 142.7810546875 141.3115234375 141.95 139.65 142.37578125 139.47421875 142.75 139.1 146.05 135.9 147.65 128.95 148.25 126.55 147.7 125.35 147.5 124.75 147 124.65 146.3 124.65 146.2 125.9 145.8 128.7 144 133.5 143 136.35 141.75 137.4
L 141.1 137.9
Q 140.0404296875 135.7908203125 139.2 134.35 Z"/>
</g>
</defs>

<g transform="matrix( 1.0208587646484375, 0, 0, 1.0225982666015625, -3.7,-2.8) ">
<use xlink:href="#Layer0_0_FILL"/>
</g>

<g transform="matrix( 1.0208587646484375, 0, 0, 1.0225982666015625, -3.7,-2.8) ">
<use xlink:href="#Layer0_0_MEMBER_0_FILL"/>
</g>
</svg>
