<?xml version="1.0" encoding="UTF-8"?>
<svg id="Camada_1" data-name="Camada 1" xmlns="http://www.w3.org/2000/svg" viewBox="0 0 60 60">
  <defs>
    <style>
      .cls-1 {
        fill: #fff;
      }

      .cls-2 {
        fill: #92a26e;
      }

      .cls-3 {
        fill: #66714c;
      }
    </style>
  </defs>
  <path class="cls-2" d="M56.12,30.58c.22-.31-.08-.84-.11-1.17-.1.12-.22.19-.37.21,0-.15.02-.7.34-.43-.07-.67-.16-1.33-.25-1.99-.06.09-.14.18-.23.25-.02-.23-.13-.35.11-.42.15-.04.23-.09.19-.24-.07-.31-.29-.59-.48-.83-.12-.86-.17-1.69-.43-2.49-.66-2.1-1.02-4.23-1.86-6.28-.87-2.12-2.04-4.14-3.59-5.84-.85-.93-1.83-1.73-2.89-2.41-.5-.32-1.03-.68-1.58-.9-.14-.07-1.39-.64-.81-.87-.46-.21-.91-.54-1.32-.85-.49-.36-.98-.58-1.51-.87-.44-.23-.83-.55-1.27-.78-.57-.3-1.03-.16-1.62-.05-.44.08-1-.28-1.42-.42-.3-.1-.58-.19-.9-.21-.15,0-.56-.03-.52.22.04.19.62.23.77.31-.43.08-.84.13-1.28.11-.11,0-.45.14-.3-.11-.38.02-.74-.32-1.16-.33-.06,0-1.12-.22-1.01-.33-.08.08.12.53.17.61-.23-.09-.58-.1-.83-.07-.06,0-.2.03-.18.13-.34-.03-.68-.04-1.01-.04.18-.02,2.44-.14,1.75-.62-.29-.2-.97-.13-1.31-.16-.58-.04-1.15-.06-1.73-.05-2.02,0-4.05.28-6,.82.3-.41-.33-.3-.56-.28.21-.52-1.02-.2-1.19-.27-.81-.36-1.89.48-2.69.69-.6.16-1.2.31-1.79.48-.09.03-.19.22-.22.29-.1.23-.06.19-.29.41-.36.34-.73.78-1.06,1.15-.31.35-.48.85-.92,1.07.24.09.83.37.5.63-.11.16-.24.15-.37-.04-.27-.17-.51-.15-.37-.47.12-.09-.48-.14-.44-.48-.36.29-.83.71-.91,1.19-.5.26-1.12.25-1.58.57-.18.13-1,.9-.55,1.07.16.06.84-.72,1.09-.82-.59.56-1.13,1.05-1.58,1.73-.09.14-.17.36-.3.46-.2.15-.38-.15-.59,0-.34.25-.75.88-.61,1.3-.36-.29-.73.54-.95.82-.2.26-.52.59-.08.72.44.12.9.19,1.28.47-.4.62-1.11-.11-1.51-.47-.04.26-.11.51-.16.76-.05.25.03.68-.07.89-.13.27-.62.14-.66-.13-.26.57-.58,1.12-.78,1.72-.25.68-.12,1.43-.31,2.13-.32,1.21-1.13,2.21-1.15,3.5,0,.21-.14.24-.23.4-.12.22-.09.49-.13.73-.1.71-.12,1.24,0,1.95.12.75-.02,1.58-.26,2.29-.11.33-.33.86.12.96-.23,0-.27.73-.31.89-.05.25-.07.53.02.78.02.05.25.49.35.36.16-.21-.03-.59.01-.83.02-.27.33-.96.03-1.16.44.14.19,1.02.16,1.39-.04.4.25,1.53-.34,1.49.1.79.05,1.48.42,2.18.07.13.08.25-.02.36-.15.16.04.62.09.79.16.65.28,1.31.5,1.94.03-.29.4.26.43.34.05.14-.15.2-.24.23.08.25.16.51.25.76.14.42.33.83.49,1.24.4-.15.23-.62.33-.93.13.32.26.63.41.93.08.16.16.32.23.48.17.36.27.36.08.69-.22.38.12.73.26,1.06.04.11.04.22,0,.34-.02.21.21.47.31.63.13.21.37.91.7.83.32-.08.46.07.53.36.08.33.32.33.49.58.18.27.09.63.17.93.21.25.41.22.66.06.64-.4.19.34.07.55-.06.07-.06.14,0,.21.24.16.04,0,.17.26.12.23.36.39.55.56.57.5.91.9,1.51,1.44.95.85,1.97,1.6,3.03,2.3.46.3.88.47,1.39.63.15.05.45.17.27.36.39.22.74.56,1.03.9.15.18,1.1,1.3,1.34,1.08.05-.2.16-.24.34-.11.23.08.45.19.68.26.07.02,1,.15.92-.04-.06-.16-1.05-.43-1.22-.54-.42-.26-.9-.34-.7-.91.28.13.24.31.39.57.13.22.39.32.62.39.21.06.34.2.47-.04.18-.35.39-.11.74.02-.07.12-.14.25-.2.38.58.19.83.71,1.49.83.52.09,1.09-.09,1.58.07.29.1.58.19.87.3.22.08.5.19.73.12.1-.03.14-.1.12-.2.25.12.35.05.29-.21.73.12,1.33.19,2.05.25.24.02,1.45.54,1.57.17-.16,0-.32,0-.48-.02.04-.17,2.06-.09,2.37-.11.48-.03.97-.07,1.45-.13.19-.02.38-.05.58-.07.04,0,.94-.21.43.05.63-.15,1.28-.16,1.91-.28-.3-.34.36-.3.66-.38.36-.1.72-.2,1.08-.32.68-.22,1.22-.4,1.89-.58-.29-.13.37-.27.45-.3.36-.16.72-.32,1.07-.5.62-.31,1.23-.64,1.82-.99.05.11.1.23.14.35.36-.28.74-.54,1.08-.85-.19-.32.42-.68.75-.75.35-.06.72-.06,1.05-.2.39-.16.31-.28.37-.59.05-.25.72-.43.59-.76-.18-.46.58-.25.84-.16.13-.09.24-.2.35-.31.25-.26.07-.25-.1-.51-.28-.42.52-.76.88-.67-.04.11-.02.27.04.37.12-.12.22-.21.06-.35.33.1.37-.12.6-.39.31-.37.17-.59-.01-1.01.31,0,.61-.05.91-.06.22-.3.39-.63.58-.96-.19.03-.65.27-.73-.04.39-.55.76-1.11,1.11-1.68.09.16.08.31-.07.42.37.09.4.06.57-.27.11-.2.35-.51.36-.74,0-.19-.5-1,.12-.8.38.12.33-.05.49-.4.14-.33.28-.65.4-.99-.17.07-.34.13-.51.2.32-.71.61-1.44.86-2.17.23-.67.52-1.13.89-1.72.12-.18.35-.37.35-.6,0-.41-.48-.3-.39-.76.1-.51.38-.05.66-.35.17-.18.1-.47.13-.7-.69.06-.33-.53-.37-.96-.05-.49.55-.33.56-.52.04-.62.1-1.23.11-1.85-.16.11-.35.18-.55.22.02-.39-.02-.61.2-.87.14-.17.2-.39.33-.56Z"/>
  <path class="cls-3" d="M18.72,24.73c.07.01-.15.4-.14.4-.02-.18-.04-.67,0-.85.31.14.17-.48.15-.42-.07-.25,0-.53-.29-.65-.32-.13-.36.05-.51-.21.02.04.04.06.08.07-.01-.25-.23-.44-.2-.53.26.04.36.49.51.42-.04-.14-.02-.14-.06-.25-.1-.26-.14-.13,0-.25-.21-.11-.31-.37-.44-.55.09.03.27.13.3.22-.3-.54-.48-.95-1.15-.68.05-.02-.29-.18-.41-.02-.18.23-.65.26-.8.57.03-.05.31-.42.29-.45-.22-.27-.51.8-.44.78-.12.22-.26.43-.41.63-.18.26-.3.05-.34.15.12.1.04.14.07.22-.03-.06-.06-.13-.08-.19-.02.07,0,.67.09.71-.21-.13-.12.32-.12.4.03.29-.22.57-.21.87-.09-.21-.09.05-.08.11.01.24-.05.43-.08.67-.04.32-.03.67.01.99.03.27.36.48.15.61.22.23.48.42.64.69-.35.07.02.22.14.19.23.28.41.53.64.15-.02.05-.09.3-.02.34.07-.03.12-.09.13-.17,0,.06,0,.12,0,.18.01-.17.01-.35.02-.52.19.02.35.02.57-.03-.12.21-.24.42-.33.64.16-.17.69-.55.46-.68.22-.06.17-.02.43-.2-.04.27-.48.31-.5.57-.02.3.43-.07.49-.12.13-.11.79-1.02.53-.96.08-.06.16-.12.22-.19.03.1.05.21.05.31.13-.33.8-2.96.62-2.97ZM18.13,22.52s.1.09.03.18c-.02-.04-.05-.27-.03-.18ZM15.29,28.24l.07.09s-.29-.04-.07-.09ZM16.3,22.03c.05.08-.15.13-.19.15.02-.06.02-.13,0-.19,0,0,.17.02.2.03ZM15.97,28.4s-.06-.06-.08-.09c.12-.01.15.02.08.09ZM15.92,25.86c-.01-.55.15-1.09.39-1.58.09.37-.34,1.16-.39,1.58ZM16.42,22.03c-.09-.09.03-.2.12-.19,0,.09-.03.15-.12.19ZM16.56,26.51c-.1.13,0-.55.02-.64.01.21.02.44-.02.64ZM16.57,21.53s.18.06.12.09c-.04.02-.08,0-.12-.09ZM17.12,22.06c-.12-.15-.26-.21-.45-.21.13-.06.25-.06.38,0,.23.12-.04.08.06.21ZM17.73,22.45l-.05-.09c.11-.03.13,0,.05.09ZM17.54,21.91s-.05.08-.09.11c-.08-.06-.05-.1.09-.11ZM17.41,22.31c.2.08.26.22.35.41-.11-.15-.22-.29-.35-.41ZM17.62,27.8s.02-.03.03-.04c-.01.02-.03.04-.03.04ZM17.72,27.65s.03-.07.08-.06c-.03.02-.05.04-.08.06ZM18.24,23.22c.38.22-.23.2,0,0,.04.02-.09.07,0,0ZM18.38,23.46c.17.09.14.15-.08.16-.09.01.05-.15.08-.16ZM18.5,24.16s-.08-.05-.12-.07c.14,0,.17-.04.1-.14-.08-.1-.15-.17,0-.26.06.09.15.4.01.47Z"/>
  <path class="cls-3" d="M45.06,24.27c.07,0-.12.47-.12.46-.05-.1-.03-.18.05-.26.04-.22-.15-.43-.1-.65.32.12.12-.51.11-.44-.07-.24-.05-.54-.33-.64-.36-.13-.35-.14-.49-.52.11.09.21.34.33.28-.07-.17-.02-.14-.08-.25-.14-.25-.16-.11-.05-.25-.21-.12-.37-.33-.52-.51.1.02.27.11.33.19-.4-.47-.51-.79-1.18-.63.06-.02-.28-.23-.42-.11-.23.18-.72.25-.88.57.02-.07.34-.46.32-.48-.19-.24-.48.68-.48.77,0,.17-.14.35-.23.5-.09.14-.18.28-.28.41-.06-.12-.13-.13-.19-.05.12.11.04.14.07.24-.03-.07-.06-.14-.08-.21-.05.2,0,.52.08.71-.1-.07-.24,1.27-.23,1.41-.11-.2.02.74.03.83.04.29.13.56.13.84,0,.31.44.52.22.67.2.2.47.36.58.64-.11-.02-.16,0-.16.08.16.19.22.05.38.32.16.27.23.26.46.07-.03.04-.18.25-.13.31.11.12.28-.41.12.05.04-.12.11-.24.15-.36.37.21.89.22,1.3.15-.04.22-.07.44-.06.66.07-.2.14-.66.35-.73-.12.12-.13.25-.03.38.25.18,1.05-1.7,1.07-1.91.06-.51.02-1.02-.06-1.52-.02-.13.24-1.03.02-1.02ZM44.24,22.07s.11.08.06.18c-.03-.04-.1-.26-.06-.18ZM41.68,27.84l.05.09s-.27-.07-.05-.09ZM42.69,21.14s-.08-.02-.11-.11c.03,0,.18.1.11.11ZM42.06,21.49s.17.01.2.03c.06.09-.16.13-.19.16.02-.06.02-.13,0-.19ZM43.09,21.48c-.31.12-.61.29-.88.49.07-.14.16-.27.27-.38-.25-.25.06-.28,0-.13.13-.21.47-.09.61.02ZM44.43,22.92c-.04-.06-.05-.08,0-.15.25.09.04.26,0,.15ZM44.51,23.17c0-.11.1-.22.2-.09.05.07-.18.16-.2.09ZM44.79,23.71s-.09-.04-.13-.07c.15,0,.18-.05.09-.14-.09-.1-.15-.16-.01-.27.06.09.18.39.05.48Z"/>
  <path class="cls-3" d="M21.76,14.33c-.2.04-.23-.04-.09-.25-.22.14-.35.23-.61.28-.06-.18.17-.13.27-.15.25-.05-.19-.3-.31-.3-.25,0-.14.16-.41.16-.34,0,.15.22.18.24,0,.17-.39.28-.51.34.02-.04.02-.09,0-.13.1.02-.39.27-.36.18-.09.28-.64.22-.5.42.03-.04.08-.05.14-.01-.15.1-.5.19-.5.19-.13.17-.34.66-.52.43,0,.14-.07.23-.21.28,0-.08.01-.16.04-.24-.08.05-.16-.03-.13.13-.31-.27-.27.25-.22.38-.07-.03-.28-.12-.17.09-.13.08-.36-.21-.48-.07.19-.31-.03-.31-.1-.03-.05.19.09.21-.23.24-.15.01-.44-.23-.4-.25.02.07.04.14.06.21-.04-.04-.06-.1-.08-.2-.09.11-.06.38-.05.51-.09-.25-.37.36-.61.06,0,.01-.51.39-.5.46-.03-.07-.18-.44-.34-.33-.16.11-.07.36-.2.03-.03.1-.08.4-.25.4.02-.09,0-.17-.06-.23-.12.14.07.22-.14.28-.21.07-.07.36-.02.5-.02-.06-.17-.29-.17-.32.01.09.03.19.06.28-.03-.06-.06-.12-.09-.17.11.18.17.39.3.55-.09-.04-.68.65-.54.89.23.41,1.05.39,1.43.34,1.1-.14,2.1-.74,3.09-1.22.94-.45,1.89-.95,2.67-1.65.38-.34,1.79-2.15.51-2.32ZM14.66,18.08c0,.1-.03.07-.08-.08,0,0,.13-.07.08.08ZM14.65,17.41s0-.29.04-.01h-.04ZM15.34,17.18c.05.1.08.2.09.31-.03-.04-.18-.3-.09-.31ZM15.17,17.73c.03-.16-.12-.34-.04-.48-.03.07.15.39.04.48ZM15.26,17.41c-.01-.06-.01-.08,0-.07.15.43,0,.1,0,.07ZM15.35,17.93c-.04-.14.04-.06,0,0,0-.02.02-.03,0,0ZM15.46,17.71c-.09-.17,0-.11.04-.04l-.04.04ZM15.71,17.73s-.05-.09-.02-.15c-.05.03.1.11.02.15ZM15.81,17.67c-.03-.1-.06-.2-.08-.3.04.08.16.26.08.3ZM15.95,17.58s-.05-.06-.05-.13c.03.04.05.09.05.13ZM16.17,17.46c-.07-.07-.09-.14-.04-.21,0,.03.08.19.04.21ZM16.28,17.39s-.02-.12,0-.11c0,0,.01.1,0,.11ZM16.38,17.33c-.03-.05-.06-.12-.07-.2.05.06.07.12.07.2ZM16.5,17.26s-.02-.04-.03-.06c0,0,.05.05.03.06Z"/>
  <path class="cls-3" d="M45.4,18.98c-.18-.33-.43-.6-.74-.82-.23-.17-.09-.25-.28-.48-.17-.2-.23.02-.37-.19-.23-.34-.15.14-.12.24-.09.06-.5-.17-.62-.21.05-.01.09-.04.12-.07.01.02-.23.03-.26.02.06-.2-.04-.29-.21-.18-.2.13-.75-.65-.45-.06-.21-.08-.49-.34-.51-.37-.16-.02-.76.01-.69-.22-.11.07-.22.05-.32-.06.06-.03.12-.05.18-.06-.09-.04-.07-.15-.19-.05.04-.32-.17-.22-.32-.06-.13-.07-.26-.14-.39-.2,0-.12-.03-.22-.12-.29.04,0,.21.11.23.06.1-.17-.06-.19-.19-.18-.18.03-.21.16-.36-.01-.08-.1-.14-.2-.18-.31.09-.06.14-.13.14-.23-.05.05-.1.11-.16.16.02-.05.06-.1.14-.16-.14-.03-.37.13-.49.2.17-.18,0-.16-.14-.15-.16.01-.15-.29-.31-.33.17-.06-.52-.36-.58-.31.06-.07.31-.36.15-.47-.17-.12-.36.08-.12-.17-.12.01-.43.1-.5-.07.09-.02.15-.08.18-.16-.18-.06-.16.16-.32-.02-.16-.18-.35.08-.47.19.02-.02.24-.29.22-.3-.09.04-.16.1-.23.18.04-.05.08-.1.12-.16-.11.18-.27.33-.36.52,0-.1-.38-.01-.08.18-.09.03-.14.09-.16.18.02.14.3-.17.2-.13.05-.03.1-.02.14.02-.6.53.64,1.82.99,2.22.65.73,1.42,1.35,2.25,1.85.86.52,1.82,1,2.79,1.25.41.11,2.94.22,2.39-.77ZM37.12,14.16c-.1.04-.08,0,.04-.11,0,0,.12.1-.04.11ZM37.72,13.88s.27-.11.03.04l-.03-.04ZM37.75,14.48c.12-.05.22-.23.36-.22.02,0-.34.21-.36.22ZM38.02,14.46s.07-.04.07-.02c-.32.32-.09.04-.07.02ZM38.03,14.66s.21-.19.16-.24c.26-.05-.21.29-.16.24Z"/>
  <path class="cls-3" d="M37.53,38.21c-.05-.14.2-1.06-.1-1.07-.23,0-.06.42-.08.53-.12-.27-.17-.64-.24-.87-.08-.28-.02-.54-.08-.8-.06-.28-.32-.45-.41-.72.58.11-.02-.78-.19-.91-.17-.13-.74-1.76-.99-1.52.04-.04.56,1.05.59,1.18-.35.08-.34-.75-.42-.88-.2-.3-.54-.44-.78-.7.37-.07-.75-.77-.79-.8-.24-.16-.5-.21-.77-.11-.29.11-.59-.12-.87-.21.11,0,.57.16.6.04-.25-.11-.45-.22-.78-.27.08.02.11-.01.1-.09-.36.03-.73-.06-1.08-.12.16-.06.38-.06.55-.04-.36-.06-.66-.19-1-.23-.35-.04-.65.22-.92.32.08-.04-.6-.23-.58,0-.42.02-.88-.14-1.28.01.08-.05.73-.15.73-.21-.02-.14-2.67.85-2.76.89.03-.08.02-.14-.04-.18-.03,0-.26.27-.27.3.04-.09.09-.17.14-.25-.26.16-.54.51-.66.79-.04-.26-.48.31-.52.36-.32.4-.79.63-1.09,1.06.12-.33-.14.07-.17.12-.09.17-.19.33-.27.51-.14.28-.65.99-.52,1.26-.28-.02-.44.23-.53.46-.11.28-.05.83-.27.83,0,.45.07.88,0,1.33-.05-.07-.1-.09-.17-.07-.06.08.07.35.13.41-.02.32-.22,1.01.32.85-.08.05-.29.21-.27.32.07.05.14.05.22-.01.11-.14-.17.21-.14.18.16-.18.33-.37.46-.58-.01.07-.07.42.11.33,0,.08.04.53-.02.15.02.16.07.37.16.51-.22-.14-.26.13.11.16-.06.07-.06.13.01.19.17.1.14-.21.07-.16.24-.27.82.19,1.02.3.29.16.57.03.87-.05.17-.05.34-.08.51-.09.2-.06.27-.02.19.11.14.07.8-.26.78.04,0-.02.79-.06.82-.06,1.08,0,2.16-.06,3.24-.12-.23.29.65-.04.67-.04.5-.03,1.01-.06,1.51-.09.39-.02.58-.02.92-.03.51-.01.04-.01.28.08.1.04.49-.09.67-.08-.06.03-.11.05-.18.05.28.1.91-.03,1.23-.01.03-.02.91.14,1.17.08.17-.04.26-.12.43-.16.37-.08.24-.64.39-.1-.02-.46-.02-.93-.05-1.4-.28.29-.05-.46-.02-.26-.01-.18-.07-.32.05-.42.24.31-.23,1.22.17,1.38.1.04.26-1.25.08-1.44ZM21.76,38.48s-.18-.32.02-.16l-.02.16ZM37.06,38.16c-.12-.17-.12-.27,0-.28.06.04.12.27,0,.28ZM22.42,37.19l.02-.12c0,.06.09.09-.02.12ZM22.53,36.8s.03-.07.05-.1c.05.05.04.16-.05.1ZM36.49,35.77s-.03-.09-.04-.14c.05.04.05.09.04.14ZM37.06,37.67c-.09.07-.12.05-.11-.08.04.03.07.06.11.08ZM36.91,37.29s0-.04-.01-.06c.05,0,.09.06.01.06ZM36.83,36.98c-.02-.07-.03-.14-.05-.2.08-.06.14.2.05.2ZM36.75,36.63c-.09-.13-.08-.23.03-.32.05,0,.11.31-.03.32ZM36.61,36.17s-.03-.1-.05-.15c.1-.07.23.16.05.15ZM36.73,35.16c-.31-.04-.27-.34-.37-.58.11.2.31.36.37.58ZM35.42,33.46c.07.18.13.33.35.37-.17.26.02.23.21.3.1.04.32.74.33.91-.13-.02-.31-.48-.39-.63-.24-.46-.53-.89-.86-1.28.19.03.3.17.38.33ZM34.65,32.4c-.06,0-.13,0-.19,0-.05-.18.13-.16-.17-.22-.14-.03-.22-.09-.22-.25.14.07.61.25.59.46ZM33.83,32.01c-.05.06-.16-.16-.15-.2.19-.03.3.02.15.2ZM33.26,31.68c.1-.02.37-.03.29.15-.1.03-.27-.05-.29-.15ZM32.27,31.18c.07.03.19,0,.26.12-.08-.02-.39-.17-.26-.12ZM29.39,31.02c-.07,0-.13-.09,0,0-.02,0-.03-.02,0,0ZM24.62,33.14c.01.1-.06.08-.11.03.04,0,.07-.02.11-.03ZM24.32,33.49c-.1.03-.15-.02-.14-.14.1,0,.14.05.14.14ZM24.07,33.62v.13c-.05.15-.09-.07,0-.13ZM23.72,33.93c.02.09.05.13.09.22-.14-.04-.17-.11-.09-.22ZM23.35,34.82c-.06.06-.09.04-.09-.06.06-.03.09,0,.09.06ZM23.19,35.14c-.02.05-.05.11-.07.16-.07-.06-.12-.14-.16-.22.1,0,.12.06.23.06ZM22.99,35.5c.05.06,0,.11-.06.14-.07-.14-.05-.19.06-.14ZM22.67,36.1c-.02.06-.03.12-.04.18-.17.05-.03-.17.04-.18ZM22.33,35.92c.1,0,.16.04.2.14-.1.06-.15.05-.19-.03-.05.02-.07.07-.06.14.02-.08.04-.16.05-.24ZM22.12,39.2s0-.45.09-.18c.07.1.04.16-.09.18ZM22.11,36.87s-.09-.26.01-.25c.04.18.23.3.2.5-.01-.08-.06-.33-.22-.25ZM22.29,36.48s-.04-.07-.02-.1c.32.1.04.12.02.1ZM22.72,40.18s.08.04.12.04c-.06.04-.13.08-.12-.04ZM23.64,40.62s.4.09.56.08c-.17.04-.57.07-.56-.08ZM24.27,40.68c-.06,0,0,0,0,0h0ZM24.31,40.6s-.01,0,0-.03c.03,0,0,.03,0,.03ZM37.11,38.56c0-.07-.01-.11.05-.15.07.08.05.13-.05.15Z"/>
  <g>
    <path class="cls-1" d="M33.56,34.76c0-.07.02.07,0,0,0-.02,0,.01,0,0Z"/>
    <path class="cls-1" d="M31.17,32.94s0,0,0,0h0Z"/>
    <path class="cls-1" d="M34.66,35.73c-.17-.15-.9-1.15-1.18-.97-.02.01-.78-.86-.93-.95.05.02.42.31.44.28.11-.13-.53-.4-.6-.43-.21-.08-.17-.03-.41-.19-.15-.11-.31-.21-.46-.31-.26-.06-.31-.13-.15-.22,0-.04-.6-.04-.09-.07-.25-.09-.63-.08-.79-.12-.39-.1-1.11-.17-1.48-.05.23-.12-.25-.01-.3.03-.29.11-.56.24-.84.35-.27.1-.13.16-.39.13-.19-.02-.38.12-.51.24-.36.31-.49.6-.89.99-.06-.26-.18.09-.16.18-.14.16-.54.5-.17.61-.38-.03-.12.14-.29.21.09-.04.2-.07.28-.1-.04.06-.08.12-.12.18.04-.06,1.39,0,1.45.09-.23.14-.84-.23-.98.04-.01.02,1.7.34,1.73.17.03-.15-.29-.09-.35-.11.21-.06.47-.04.67-.06.21-.02.36.1.55.08.17-.02.33-.12.51-.12-.24.4.64.09.73.09.13,0,1.11.28,1.11.09,0,.03-.8-.16-.88-.17.07-.21.69.12.79.12.19,0,.39-.08.58-.04-.09.12.18.15.23.15.26.02.73.05.97-.16.23-.2.5-.13.8-.13-.09.05-.54.03-.53.14.23,0,.46,0,.71,0-.15.01.72.08.76,0-.03-.03-.05-.06-.08-.09.07.03.12.07.16.13-.08.02-.17.05-.26.05.08,0,.5.08.37-.05ZM26.86,34.09l.06-.06s-.04.05-.06.06ZM33.15,34.47s.05.17,0,.12c-.04-.03-.04-.07,0-.12ZM32.62,34.08s.02.09.02.14c-.08-.04-.15-.1-.19-.17.06.03.11.04.18.03ZM29.86,32.92c-.05.06-.07.05-.06-.05l.06.05ZM29.54,32.8c.06.05.05.1-.01.15-.07-.03-.07-.08.01-.15ZM29.34,32.87l-.07.06c-.1.05,0-.08.07-.06ZM29.01,32.86c-.04.05-.03.09-.07.15-.05-.09-.03-.14.07-.15ZM28.38,33.09s.05.03.02.07c-.06.01-.07-.01-.02-.07ZM28.07,33.14c.1.09.11.12-.01.17,0-.06,0-.12.01-.17ZM27.9,33.38s-.05.04-.07.05c.03-.11.06-.13.07-.05ZM27.46,33.57l-.1.08c-.12-.04.06-.1.1-.08ZM27.35,33.34c.06.03.07.09.05.16-.19-.02,0-.17-.19-.05.05-.04.09-.07.14-.11ZM27.12,33.57c.13.18-.03.08-.03.07,0-.03,0-.05.03-.07ZM26.94,33.65c-.01.13-.05.25-.1.36,0,.02.01-.44.1-.36ZM26.04,34.48l-.08.09s.03-.25.08-.09ZM25.86,35.12s.14-.16.13-.12c-.02.1-.06.14-.13.12ZM29.25,35.71c.14-.16.26-.08.47-.08-.16.04-.31.06-.47.08ZM30.05,35.55c.12.02.06.03,0,0,0,0,.01,0,0,0ZM31.65,35.65s.07-.06.1-.09c.09.07.32-.03.41.11-.11.02-.43.08-.51-.03ZM32.28,35.56s.15.03.16.07c-.13.1-.18.08-.16-.07ZM32.74,35.58c-.05.03-.22.14-.23,0,.05-.04.19-.05.23,0ZM33.63,35.67c-.06,0-.13.04-.26-.02.06,0,.38.03.26.02Z"/>
    <path class="cls-1" d="M31.76,35.56s.02.03,0,0h0Z"/>
    <path class="cls-1" d="M27.81,35.96c.18-.01.41-.06.56-.17-.02.02-.5.17-.56.17Z"/>
    <path class="cls-1" d="M28.35,35.77s-.17-.02,0,0h0Z"/>
    <path class="cls-1" d="M28.66,35.78s.37-.05.31-.07c-.02,0-.34.06-.31.07Z"/>
    <path class="cls-1" d="M30.12,32.55s-.25.02-.18.07c.04.03.24-.02.18-.07Z"/>
    <path class="cls-1" d="M29.68,35.87c-.02.21.31.06.21,0,0,0-.2-.08-.21,0Z"/>
  </g>
</svg>