<?xml version="1.0" encoding="UTF-8"?>
<svg xmlns="http://www.w3.org/2000/svg" viewBox="0 0 207.76 209.06">
  <defs>
    <style>
      .cls-1, .cls-2 {
        fill: none;
      }

      .cls-3 {
        fill: #e1c99b;
      }

      .cls-4 {
        fill: #d7d185;
      }

      .cls-2 {
        stroke: #3b3d35;
        stroke-miterlimit: 10;
      }

      .cls-5 {
        fill: #3b3d35;
      }
    </style>
  </defs>
  <g id="Camada_1" data-name="Camada 1">
    <line class="cls-2" x1="160.54" y1="166.58" x2="46.34" y2="52.39"/>
    <line class="cls-2" x1="160.54" y1="52.39" x2="46.34" y2="166.58"/>
    <line class="cls-2" x1="184.19" y1="109.49" x2="22.69" y2="109.49"/>
    <line class="cls-2" x1="103.44" y1="28.74" x2="103.44" y2="190.24"/>
    <circle class="cls-4" cx="103.88" cy="104.53" r="33.19"/>
    <g>
      <circle class="cls-1" cx="103.88" cy="104.53" r="78.9"/>
      <circle class="cls-3" cx="159.68" cy="160.32" r="20"/>
      <circle class="cls-3" cx="48.09" cy="160.32" r="20"/>
      <circle class="cls-3" cx="48.09" cy="48.74" r="20"/>
      <circle class="cls-3" cx="159.68" cy="48.74" r="20"/>
      <circle class="cls-3" cx="182.79" cy="104.53" r="20"/>
      <circle class="cls-3" cx="103.88" cy="183.43" r="20"/>
      <circle class="cls-3" cx="24.98" cy="104.53" r="20"/>
      <circle class="cls-3" cx="103.88" cy="25.63" r="20"/>
    </g>
  </g>
  <g id="Camada_3" data-name="Camada 3">
    <path class="cls-5" d="M119.48,96.48c1.91-.07,3.32-.78,4.31-1.98,1.49-1.91,1.2-4.53,1.06-5.52.35-.57.5-1.27.42-1.98-.21-1.98-2.12-3.89-2.9-4.53-.78-3.61-3.82-5.16-5.59-5.52-.07-.07-.14-.14-.21-.21-.07-.07-.14-.14-.21-.21h0c-1.2-1.2-2.9-1.41-3.61-1.49-1.13-.85-2.33-.78-2.97-.64-1.77-1.49-4.17-1.2-5.09-1.06-3.89-1.77-8.56,1.49-9.83,2.48-2.97-.21-4.46,1.7-5.02,3.18-.78.07-1.56.42-2.12.99-.71.64-1.13,1.56-1.27,2.55-1.56.92-2.97,2.69-2.05,6.15-.35.85-.99,3.18.64,5.8.28.35.57.71.85.99-.14,1.06-.14,3.68,1.49,5.59,1.56,1.77,5.09,3.61,7.71,4.03-.5.92-.99,2.05-.71,2.97.35,1.2,2.19,2.19,3.68,2.48.21.07.5.07.71.07.99,0,1.84-.35,2.33-1.06.92-1.34,2.48-2.62,4.6-3.75,2.12-1.2,3.4-5.87,3.54-6.44,2.05-.42,3.25-1.49,3.89-2.26.92.64,1.91.99,2.97.99,1.56-.21,2.83-1.13,3.4-1.63ZM88.71,99.88c-.92-.99-1.13-2.4-1.13-3.47,1.49.42,3.04.21,3.82,0,1.34.71,2.62.5,3.54,0,.85,1.13,2.05,1.49,3.04,1.49.35,1.41.21,2.97-.35,4.17-.28.64-.71,1.06-1.13,1.2-1.34.5-6.01-1.41-7.78-3.4ZM104.77,104.05c-2.33,1.34-4.1,2.76-5.16,4.31-.21.35-.71.35-1.06.28-1.2-.14-2.26-.92-2.4-1.2-.07-.35.5-1.56,1.2-2.62.78-.35,1.41-1.06,1.91-1.98.5-1.06.78-2.33.71-3.61.92.42,1.91.64,2.83.64,1.2,0,2.33-.28,3.11-.57.5.07.92.07,1.34.07-.5,1.84-1.56,4.17-2.48,4.67ZM113.61,95c-.14-.21-.35-.85-.21-1.41.14-.5.5-.92,1.13-1.27.42-.21.57-.78.35-1.2-.21-.42-.78-.57-1.2-.35-1.06.64-1.77,1.41-2.05,2.4s0,1.91.21,2.4c-.5.71-1.98,2.48-5.94,1.91-.14,0-.35,0-.5.07s-2.83,1.2-4.95-.07c-.21-.35-.85-1.41-.64-2.48.14-.64.57-1.2,1.41-1.7.42-.28.57-.78.35-1.27-.21-.42-.71-.5-1.13-.35-.07-.35-.21-.78-.5-1.13-.42-.57-1.2-1.13-2.76-1.13-.5,0-.92.42-.92.92s.42.92.92.92c.64,0,1.06.14,1.27.42.35.5.21,1.34.14,1.63-.28.42-.5.85-.57,1.34s-.07.99,0,1.49c-.5,0-1.49-.14-1.98-1.34-.14-.28-.35-.5-.64-.57s-.64.07-.85.28c-.07.07-1.13,1.13-2.55.21-.21-.14-.5-.21-.78-.07,0,0-3.32,1.06-4.74-1.13-1.49-2.26-.5-4.17-.42-4.31.14-.21.14-.42.07-.71-.64-2.33-.21-3.82,1.49-4.6.07-.07.99-.35,1.7-.07.5.21.85.71,1.06,1.49.14.42.5.64.85.64h.21c.5-.14.78-.64.64-1.13-.35-1.34-1.06-2.19-2.05-2.69-.57-.28-1.13-.35-1.63-.28.14-.21.28-.42.42-.64.28-.28.78-.57,1.49-.57.42,0,.85-.28.92-.71.07-.28.71-2.69,3.54-2.4.35.14,1.63.85,1.27,2.62-.07.5.28.99.71,1.06h.14c.42,0,.85-.28.92-.78s.07-.99,0-1.41c1.2-.57,2.05.07,2.19.14.42.28.92.21,1.27-.14.28-.42.21-.99-.14-1.27-.07-.07-1.77-1.34-3.96-.42-.21-.28-.42-.57-.64-.78,1.63-1.06,4.88-2.9,7.36-1.56.21.07.42.14.64.07,0,0,2.69-.64,4.03.85.28.28.71.35,1.13.21.07-.07.99-.5,1.84.35.14.14.42.21.64.21,0,0,1.63-.07,2.62.92.14.21,1.13,1.41-.07,2.76-.35.35-.28.92.07,1.27.14.14.35.21.57.21.28,0,.5-.14.71-.28.78-.92.99-1.84.99-2.69,1.2.5,2.83,1.63,3.25,4.1.07.21.14.42.35.57.64.5,2.33,2.12,2.48,3.47.07.35-.07.71-.28.99-.21.14-.78.57-1.34.42-.42-.07-.85-.5-1.2-1.2-.21-.42-.78-.64-1.2-.42s-.64.78-.42,1.2c.64,1.2,1.41,1.91,2.48,2.12.21.07.35.07.57.07.42,0,.78-.07,1.06-.21.07.92-.07,2.26-.78,3.18-.64.85-1.77,1.27-3.25,1.34-.21,0-.5.14-.64.28,0,0-1.06,1.13-2.48,1.13-.5.21-1.27-.14-2.05-.92ZM112.62,88.28c.21.42,0,.99-.42,1.2-.85.42-1.77.64-2.55.64s-1.56-.21-2.26-.64c-1.41-.85-2.26-2.4-2.33-4.31-.14-2.55-1.34-3.25-1.41-3.25-.42-.21-.64-.78-.35-1.2.21-.42.78-.64,1.2-.42.07,0,.71.35,1.34,1.2.14-.14.28-.35.5-.5.92-.78,2.12-1.06,3.68-.78.5.07.85.57.78,1.06-.07.5-.57.85-1.06.78-.99-.14-1.7,0-2.19.35-.57.5-.71,1.34-.71,1.56.07.35.14.78.14,1.2.07,1.27.57,2.33,1.49,2.9.85.5,1.98.5,3.11-.07.28-.35.85-.14,1.06.28ZM101.44,85.73c.35.35.28.92-.07,1.27-.14.14-.42.21-.64.21s-.5-.07-.64-.28c-1.27-1.41-3.82.14-3.89.14-.42.28-.99.14-1.27-.28-.28-.42-.14-.99.28-1.27.21,0,3.89-2.26,6.22.21ZM134.54,106.53c-.99,1.49-2.55,1.77-3.61,1.91-.21,0-.42.07-.57.14.07.14.14.35.28.57.21.35.42.85.57,1.34.28,1.34-.35,2.12-.85,2.69.14.42.35,1.27-.28,2.19-.35.5-.71.85-.92.99h0c.92,4.74-.71,7.21-2.26,8.42-2.26,1.84-4.67,1.77-6.65,1.7-.99,0-1.98-.07-2.76.21-1.7.5-1.7,2.48-1.41,3.47.35,1.49,2.05,6.01,2.48,7.43h-2.33c-.64-2.12-1.91-5.52-2.26-6.86-.57-2.4.21-5.23,2.9-6.08,1.06-.35,2.26-.28,3.4-.28,1.91.07,3.68.07,5.23-1.2,1.56-1.27,2.05-3.4,1.49-6.37l-.07-.21c-.21-1.06.42-1.56.71-1.84.21-.14.35-.28.57-.64q.07-.14,0-.42c-.14-.35-.35-1.2.35-1.84l.07-.07c.42-.42.5-.57.42-.92-.07-.21-.21-.5-.35-.78-.35-.64-.78-1.49-.35-2.55.35-.99,1.34-1.13,2.26-1.27.85-.14,1.7-.28,2.19-.99.57-.85-.71-2.55-2.05-4.31-.42-.57-.85-1.13-1.27-1.77-2.12-3.11-2.33-4.39-2.05-6.22.21-1.27,0-3.96-.57-5.8-.5-1.56-.35-2.4-.21-3.18.07-.35.14-.71.14-1.13,0-1.34-.99-5.23-2.55-6.72l-.28-.28c-2.05-1.84-6.15-5.73-19.1-5.52-13.79.28-23.77,7.92-23.77,18.25,0,8.7,2.69,13.37,4.81,17.12.5.92.99,1.77,1.41,2.62,2.33,4.6,3.82,8.28,2.19,13.3-1.2,3.89-5.87,12.45-7.57,15.98h-2.48c.78-1.41,6.72-12.45,8.06-16.69,1.41-4.24.07-7.43-2.05-11.67-.42-.78-.85-1.63-1.41-2.48-2.26-3.96-5.16-8.91-5.16-18.18,0-11.53,10.89-20.16,25.96-20.44,13.86-.21,18.53,4.24,20.58,6.15l.28.28c2.26,2.12,3.25,6.79,3.25,8.35,0,.64-.07,1.13-.14,1.49-.14.64-.21,1.13.14,2.12.64,2.05.99,5.09.64,6.86-.21,1.13-.21,1.84,1.7,4.6.42.57.85,1.13,1.2,1.7,1.7,2.33,3.47,4.67,2.05,6.86Z"/>
    <path class="cls-5" d="M98.61,12.11c2.77,0,5.27,1.02,7.09,2.67.75.67,1.37,1.45,1.86,2.31.14,0,.28,0,.42,0,2.77,0,5.27,1.02,7.09,2.67,1.84,1.67,2.98,3.97,2.98,6.51,0,1.01-.18,1.98-.51,2.89-.31.84-.74,1.62-1.27,2.33l1.13,5.52c.04.17,0,.36-.1.52-.21.32-.64.4-.96.19l-4.47-2.98c-.55.21-1.12.38-1.72.5-.71.14-1.44.22-2.17.22-.96,0-1.89-.12-2.78-.36-.92-.24-1.78-.59-2.57-1.04-.33-.19-.45-.61-.26-.94.19-.33.61-.45.94-.26.69.39,1.43.7,2.23.91.77.2,1.58.31,2.43.31.66,0,1.3-.06,1.9-.18.63-.13,1.23-.31,1.8-.56.22-.09.47-.06.65.06l3.37,2.25-.86-4.19c-.04-.21.02-.42.14-.57h0c.54-.66.97-1.4,1.25-2.19.28-.76.43-1.57.43-2.42,0-2.14-.96-4.08-2.52-5.49-1.53-1.38-3.63-2.26-5.96-2.3.32.89.49,1.84.49,2.82,0,2.55-1.14,4.85-2.98,6.51-1.82,1.65-4.33,2.67-7.09,2.67-.74,0-1.46-.08-2.17-.22-.59-.12-1.17-.29-1.72-.5l-4.47,2.98c-.32.21-.75.13-.96-.19-.11-.16-.14-.35-.1-.52l1.13-5.52c-.54-.71-.97-1.49-1.27-2.33-.33-.91-.51-1.89-.51-2.89,0-2.55,1.14-4.85,2.98-6.51,1.82-1.65,4.33-2.67,7.09-2.67h0ZM106.74,18.54c-1.92.25-3.63,1.05-4.92,2.23-1.56,1.41-2.52,3.35-2.52,5.49,0,.56.06,1.11.19,1.63.09.38.21.76.37,1.12,1.92-.25,3.63-1.05,4.92-2.23,1.56-1.41,2.52-3.35,2.52-5.49,0-.97-.2-1.89-.55-2.75h0ZM98.4,29.09c-.1-.29-.19-.58-.26-.88-.15-.63-.23-1.28-.23-1.94,0-2.55,1.14-4.85,2.98-6.51,1.38-1.25,3.16-2.14,5.15-2.5-.36-.53-.78-1.02-1.27-1.45-1.57-1.43-3.76-2.31-6.17-2.31s-4.6.88-6.17,2.31c-1.55,1.41-2.52,3.35-2.52,5.49,0,.85.15,1.66.43,2.42.29.79.71,1.53,1.25,2.19h0c.13.16.18.37.14.58l-.86,4.19,3.37-2.25c.19-.12.43-.16.65-.06.57.24,1.17.43,1.8.56.54.11,1.11.17,1.7.18h0Z"/>
    <path class="cls-5" d="M112.27,171.14c-.36.02-.73.1-1.07.27l-6.77,3.21c-.18.09-.26.31-.18.49l1.16,2.45c.04.09.12.16.21.19.09.03.19.03.28-.01l1.17-.55c.78-.37,1.7-.09,2.11.63.22.4.26.88.11,1.31-.14.4-.43.72-.81.9l-1.22.58c-.09.04-.16.12-.19.21-.03.09-.03.19.01.28l1.42,2.98c.09.18.31.26.49.18l2.38-1.13.45.96c.26.56.73.98,1.32,1.19.25.09.52.14.78.14.39,0,.79-.1,1.14-.3,1.06-.59,1.47-1.94.93-3.07l-.43-.91,2.38-1.13c.18-.08.26-.3.17-.49l-3.21-6.78c-.49-1.04-1.55-1.64-2.64-1.59ZM112.3,171.88c.8-.03,1.58.4,1.94,1.17l3.05,6.44-2.38,1.13c-.18.09-.26.31-.18.49l.59,1.24c.37.78.09,1.7-.63,2.11-.41.23-.87.27-1.31.11-.4-.14-.72-.43-.9-.81l-.61-1.3c-.04-.09-.12-.16-.21-.19-.04-.01-.08-.02-.12-.02-.06,0-.11.01-.16.04l-2.38,1.13-1.1-2.32.89-.42c.56-.26.98-.73,1.19-1.32.22-.63.16-1.33-.16-1.92-.59-1.06-1.94-1.47-3.07-.93l-.83.4-.84-1.78,6.44-3.05c.26-.12.52-.18.79-.19ZM94.8,176.55c-1.54,0-2.79,1.25-2.79,2.79v14.99c0,1.54,1.25,2.79,2.79,2.79h14.99c1.54,0,2.79-1.25,2.79-2.79v-7.5c0-.21-.16-.37-.37-.37h-3.01c-.21,0-.37.17-.37.37v1.38c0,.86-.65,1.58-1.47,1.64-.46.03-.9-.13-1.23-.46-.3-.3-.46-.7-.46-1.12v-1.43c0-.21-.17-.37-.37-.37h-2.64v-2.56h.98c.62,0,1.2-.24,1.64-.68.47-.48.72-1.13.67-1.8-.08-1.21-1.13-2.16-2.38-2.16h-.92v-2.34c0-.21-.17-.37-.37-.37h-7.5ZM94.8,177.29h7.13v2.34c0,.21.17.37.37.37h1.29c.86,0,1.58.65,1.64,1.47.03.46-.14.9-.46,1.23-.3.3-.7.46-1.12.46h-1.35c-.21,0-.37.17-.37.37v2.93h-2.27v-.98c0-.62-.24-1.2-.68-1.64-.48-.47-1.13-.72-1.8-.67-1.21.08-2.16,1.13-2.16,2.38v.92h-2.27v-7.13c0-1.13.92-2.05,2.05-2.05h0ZM97.4,183.9c.4.02.77.18,1.06.46.3.3.46.7.46,1.12v1.35c0,.21.17.37.37.37h2.64v2.27h-.98c-.62,0-1.2.24-1.64.68-.47.47-.72,1.13-.68,1.8.08,1.21,1.13,2.16,2.38,2.16h.92v2.27h-7.13c-1.13,0-2.05-.92-2.05-2.05v-7.13h2.64c.21,0,.37-.17.37-.37v-1.29c0-.86.65-1.58,1.47-1.64.06,0,.11,0,.17,0ZM102.67,187.2h2.27v1.06c0,.62.24,1.2.68,1.64.47.47,1.13.72,1.8.68,1.21-.08,2.16-1.13,2.16-2.38v-1.01h2.27v7.13c0,1.13-.92,2.05-2.05,2.05h-7.12v-2.64c0-.21-.17-.37-.37-.37h-1.3c-.86,0-1.58-.65-1.64-1.47-.03-.46.13-.9.46-1.23.3-.3.69-.46,1.12-.46h1.35c.21,0,.37-.17.37-.37v-2.64Z"/>
    <g>
      <path class="cls-5" d="M22.64,101.46l.31-.87c-.15-.05-3.6-1.27-7.21,0l.31.87c3.29-1.16,6.56-.01,6.59,0Z"/>
      <path class="cls-5" d="M22.64,104.24l.31-.87c-.15-.05-3.6-1.27-7.21,0l.31.87c3.29-1.16,6.56-.01,6.59,0Z"/>
      <path class="cls-5" d="M22.64,107.02l.31-.87c-.15-.05-3.6-1.27-7.21,0l.31.87c3.29-1.16,6.56-.01,6.59,0Z"/>
      <path class="cls-5" d="M33.84,101.46l.31-.87c-.15-.05-3.6-1.27-7.21,0l.31.87c3.29-1.16,6.56-.01,6.59,0Z"/>
      <path class="cls-5" d="M36.6,96.17l-.31-.11c-.1-.04-2.57-.91-5.93-.91-1.92,0-3.75.29-5.43.86-.61-.2-2.85-.86-5.77-.86-1.98,0-3.86.31-5.58.91l-.31.11v.94h-1.92v16.8h27.16v-16.8h-1.92v-.94ZM36.46,99.66l.14.05.33.13-.33.87-.93,2.41-1.26,3.29-.47.53v-.2s0-.51,0-.51l.05-.13,1.69-4.39.79-2.05ZM25.4,96.83c1.54-.5,3.21-.76,4.96-.76,2.53,0,4.56.53,5.31.76v2.29l-1.62,4.21c-.58-.19-3.78-1.14-7.12.03l.31.87c2.96-1.04,5.89-.22,6.48-.04l-.64,1.65c-1.32-.29-3.7-.57-6.15.29l.31.87c2.3-.81,4.59-.49,5.77-.23v2.57s2.2-2.47,2.2-2.47l.46-1.2v5.12c-.95-.27-2.9-.72-5.31-.72-1.75,0-3.41.24-4.96.71v-13.98ZM14.21,96.83c1.54-.5,3.21-.76,4.96-.76,2.54,0,4.57.54,5.31.76v13.98c-.95-.27-2.9-.72-5.31-.72-1.75,0-3.41.24-4.96.71,0,0,0-13.98,0-13.98ZM37.59,112.98H12.29v-14.95h.99v14.07l.62-.22c1.62-.57,3.4-.86,5.27-.86,3.19,0,5.59.85,5.62.86l.15.06.16-.05c1.62-.57,3.4-.86,5.27-.86,3.19,0,5.59.85,5.62.86l.62.22v-8.82l.99-2.58v12.28ZM37.59,98.03v1.07l-.99-.38v-.69h.99Z"/>
    </g>
    <path class="cls-5" d="M183.14,91.73c2.65,0,5.05,1.07,6.78,2.81,1.74,1.74,2.81,4.13,2.81,6.78,0,4.29-2.06,7-3.61,9.04-.83,1.1-1.5,1.98-1.5,2.69s-.3,1.39-.78,1.87c-.13.13-.28.25-.44.36v.8c0,.48-.2.92-.52,1.24-.21.21-.48.37-.78.45-.09.35-.28.67-.53.92-.37.37-.88.6-1.44.6s-1.07-.23-1.44-.6c-.25-.25-.44-.57-.53-.92-.3-.08-.56-.24-.78-.45-.32-.32-.52-.76-.52-1.24v-.8c-.16-.1-.31-.22-.44-.36-.5-.54-.78-1.12-.78-1.87,0-.71-.67-1.59-1.5-2.69-1.55-2.04-3.61-4.75-3.61-9.04,0-2.65,1.07-5.05,2.81-6.78,1.74-1.74,4.13-2.81,6.78-2.81h0ZM194.24,93.83h1.39v1.17h-1.39v-1.17ZM194.12,95.12v1.39h-1.17v-1.39h1.17ZM191.44,93.83h1.39v1.17h-1.39v-1.17ZM194.12,92.32v1.39h-1.17v-1.39h1.17ZM192.85,112.08h1.39v1.17h-1.39v-1.17ZM192.73,113.37v1.39h-1.17v-1.39h1.17ZM190.05,112.08h1.39v1.17h-1.39v-1.17ZM192.73,110.56v1.39h-1.17v-1.39h1.17ZM172.74,109.98h1.39v1.17h-1.39v-1.17ZM172.62,111.27v1.39h-1.17v-1.39h1.17ZM169.94,109.98h1.39v1.17h-1.39v-1.17ZM172.62,108.46v1.39h-1.17v-1.39h1.17ZM179.64,112.08h1.47v-1.49c0-.32.26-.59.59-.59h.87v-1.91l-2.12-1.74c-.14-.12-.21-.28-.21-.45v-2.36c0-.32.26-.59.58-.59.1,0,.19.03.27.07l2.06.87,2.11-.89c.3-.12.64.01.76.31.03.07.05.15.05.23v2.36c0,.32-.26.59-.58.59s-.59-.26-.59-.59v-1.48l-1.52.64c-.14.06-.3.06-.45,0l-1.52-.64v1.2l2.08,1.71c.15.11.25.28.25.48v2.19h.87c.32,0,.59.26.59.59v1.49h1.47c.29-.75.87-1.52,1.55-2.42,1.44-1.9,3.37-4.43,3.37-8.34,0-2.33-.94-4.43-2.47-5.95s-3.63-2.47-5.95-2.47-4.43.94-5.95,2.47c-1.52,1.52-2.47,3.63-2.47,5.95,0,3.9,1.92,6.43,3.37,8.34.68.89,1.26,1.66,1.55,2.42h0ZM182.27,112.08h1.73v-.91h-1.73v.91ZM186.44,113.25h-6.59c.04.31.19.63.42.84.26.26.62.43,1.02.43h3.71c.4,0,.76-.17,1.02-.43.22-.22.38-.52.42-.84h0ZM181.05,115.7v.38c0,.16.07.31.17.41.11.11.25.17.41.17h3.01c.16,0,.31-.07.41-.17s.17-.25.17-.41v-.38h-4.18ZM183.78,117.84h-1.28l.03.03c.16.16.37.25.61.25s.46-.1.61-.25l.03-.03Z"/>
    <g>
      <path class="cls-5" d="M160.95,150.29c.12-.13.11-.33-.01-.45-.13-.12-.33-.11-.45.01-.51.54-1.39.54-1.89,0-.12-.13-.32-.14-.45-.01-.13.12-.14.32-.01.45.75.8,2.07.8,2.83,0Z"/>
      <ellipse class="cls-5" cx="160.59" cy="148.11" rx=".38" ry=".45"/>
      <ellipse class="cls-5" cx="158.49" cy="148.11" rx=".38" ry=".45"/>
      <path class="cls-5" d="M171.01,157.07c-1.84,0-3.35,1.41-3.51,3.21h-.83c-.79-1.95-2.27-3.52-4.25-4.27v-1.24c0-.88.72-1.6,1.6-1.6h.4c.16,1.79,1.67,3.21,3.51,3.21,1.94,0,3.53-1.58,3.53-3.53s-1.58-3.53-3.53-3.53c-1.84,0-3.35,1.41-3.51,3.21h-.4c-1.24,0-2.24,1.01-2.24,2.24v1.03c-.61-.17-1.25-.28-1.92-.32v-3.11c1.79-.16,3.21-1.67,3.21-3.51,0-1.94-1.58-3.53-3.53-3.53s-3.53,1.58-3.53,3.53c0,1.84,1.41,3.35,3.21,3.51v3.09c-.66,0-1.3.1-1.92.27v-.96c0-1.24-1.01-2.24-2.24-2.24h-.4c-.16-1.79-1.67-3.21-3.51-3.21-1.94,0-3.53,1.58-3.53,3.53s1.58,3.53,3.53,3.53c1.84,0,3.35-1.41,3.51-3.21h.4c.88,0,1.6.72,1.6,1.6v1.17c-1.98.75-3.47,2.37-4.21,4.34h-.87c-.16-1.79-1.67-3.21-3.51-3.21-1.94,0-3.53,1.58-3.53,3.53s1.58,3.53,3.53,3.53c1.84,0,3.35-1.41,3.51-3.21h.66c-.66,2.3-.35,4.82.89,6.9l.03.05c.61,1.01.93,2.17.92,3.34l-.02,3.79c0,.18.14.32.32.32h0c.18,0,.32-.14.32-.32l.02-3.79c0-1.29-.35-2.56-1.02-3.67l-.03-.05c-1.18-1.99-1.46-4.4-.78-6.58h.23c1.59,0,2.88,1.29,2.88,2.88v3.56c0,.18.14.32.32.32s.32-.14.32-.32v-3.56c0-1.94-1.58-3.52-3.52-3.53.66-1.62,1.9-2.97,3.52-3.66v2.5c0,.18.14.32.32.32s.32-.14.32-.32v-2.73c.61-.18,1.25-.28,1.92-.29v11.27c0,.18.14.32.32.32s.32-.14.32-.32v-11.25c.68.04,1.32.16,1.92.35v2.56c0,.18.14.32.32.32s.32-.14.32-.32v-2.33c1.62.68,2.86,1.98,3.56,3.58-1.93,0-3.56,1.58-3.56,3.53v3.56c0,.18.14.32.32.32s.32-.14.32-.32v-3.56c0-1.77,1.5-2.91,3.18-2.88.27.78.44,1.64.52,2.6,0,.8.26,1.96.59,2.64.36.81.74,1.5.93,1.84.12.2.03.59-.26.59h-.94c-.18,0-.32.14-.32.32v2.89c0,1.14-.93,2.08-2.06,2.08h-.86c-1.04-.06-2.14-.36-3.27-.89-.16-.07-.35,0-.43.15-.07.16,0,.35.15.43,1.1.52,2.18.83,3.21.93v.51c0,.18.14.32.32.32s.32-.14.32-.32v-.48h.55c1.49,0,2.7-1.22,2.7-2.72v-2.57h.62c.77,0,1.18-.93.81-1.55-.32-.56-.65-1.21-.9-1.79,0,0,0,0,0,0-.28-.6-.53-1.69-.53-2.38,0,0,0-.02,0-.03-.08-.92-.24-1.77-.49-2.56h.59c.16,1.79,1.67,3.21,3.51,3.21,1.94,0,3.53-1.58,3.53-3.53s-1.58-3.53-3.53-3.53ZM167.94,149.95c1.59,0,2.88,1.29,2.88,2.88s-1.29,2.88-2.88,2.88-2.88-1.29-2.88-2.88,1.29-2.88,2.88-2.88ZM151.14,155.72c-1.59,0-2.88-1.29-2.88-2.88s1.29-2.88,2.88-2.88,2.88,1.29,2.88,2.88-1.29,2.88-2.88,2.88ZM148.06,163.48c-1.59,0-2.88-1.29-2.88-2.88s1.29-2.88,2.88-2.88,2.88,1.29,2.88,2.88-1.29,2.88-2.88,2.88ZM156.65,148.85c0-1.59,1.29-2.88,2.88-2.88s2.88,1.29,2.88,2.88-1.29,2.88-2.88,2.88-2.88-1.29-2.88-2.88ZM171.01,163.48c-1.59,0-2.88-1.29-2.88-2.88s1.29-2.88,2.88-2.88,2.88,1.29,2.88,2.88-1.29,2.88-2.88,2.88Z"/>
      <path class="cls-5" d="M171.84,161.49h-1.66c-.18,0-.32.14-.32.32s.14.32.32.32h1.66c.18,0,.32-.14.32-.32s-.14-.32-.32-.32Z"/>
      <ellipse class="cls-5" cx="172.04" cy="159.85" rx=".38" ry=".45"/>
      <ellipse class="cls-5" cx="169.99" cy="159.85" rx=".38" ry=".45"/>
      <path class="cls-5" d="M148.06,161.21c-.46,0-.89.2-1.19.55-.11.13-.1.34.03.45.13.11.34.1.45-.03.36-.42,1.04-.42,1.4,0,.12.14.35.15.48,0,.11-.12.11-.3,0-.43-.3-.35-.73-.55-1.19-.55Z"/>
      <ellipse class="cls-5" cx="149.09" cy="159.95" rx=".38" ry=".45"/>
      <ellipse class="cls-5" cx="147.04" cy="159.95" rx=".38" ry=".45"/>
      <path class="cls-5" d="M167.23,153.57c-.12-.13-.32-.15-.45-.03-.13.12-.15.32-.03.45.61.71,1.76.71,2.38,0,.12-.13.1-.34-.03-.45-.13-.12-.34-.1-.45.03-.36.42-1.04.42-1.4,0Z"/>
      <path class="cls-5" d="M166.91,152.43c.35,0,.64-.32.64-.71,0-.18-.24-.26-.35-.11-.14.2-.44.2-.58,0-.11-.15-.35-.07-.35.11,0,.39.29.71.64.71Z"/>
      <path class="cls-5" d="M151.14,153.46c-.46,0-.89.2-1.19.55-.11.13-.1.34.03.45s.34.1.45-.03c.36-.42,1.04-.42,1.4,0,.12.14.35.15.48,0,.11-.12.11-.3,0-.43-.3-.35-.73-.55-1.19-.55Z"/>
      <path class="cls-5" d="M152.67,151.54c-.08-.03-.17,0-.22.07-.14.2-.44.2-.58,0-.11-.15-.35-.07-.35.11,0,.39.29.71.64.71s.64-.32.64-.71c0-.08-.05-.16-.13-.18Z"/>
      <path class="cls-5" d="M150.76,151.73c0-.18-.24-.26-.35-.11-.14.2-.44.2-.58,0-.11-.15-.35-.07-.35.11,0,.39.29.71.64.71s.64-.32.64-.71Z"/>
      <path class="cls-5" d="M168.96,152.43c.35,0,.64-.32.64-.71,0-.18-.24-.26-.35-.11-.14.2-.44.2-.58,0-.11-.15-.35-.07-.35.11,0,.39.29.71.64.71Z"/>
    </g>
    <g>
      <path class="cls-5" d="M57.15,42.46c0-.1.01-.2.01-.29,0-2.54-2.07-4.61-4.61-4.61-.79,0-1.56.2-2.25.59-.83-.85-1.95-1.34-3.14-1.37-1.21-.03-2.38.41-3.27,1.25-.32.31-.59.64-.8,1-.15-.02-.31-.03-.47-.03-2.24,0-4.06,1.82-4.06,4.06,0,.55.11,1.1.33,1.6-.41.2-.78.47-1.1.8-1.65,1.66-1.65,4.36,0,6.02.28.27.59.5.92.69-.58.46-.94,1.14-.94,1.9,0,1.38,1.21,2.51,2.7,2.51.3,0,.58-.05.84-.13.81.64,1.81.99,2.85.99.79,0,1.56-.2,2.25-.59.88.89,2.06,1.37,3.26,1.37.78,0,1.56-.2,2.27-.6.7-.4,1.28-.97,1.68-1.65.16.02.32.03.48.03,2.24,0,4.06-1.82,4.06-4.06,0-.55-.11-1.1-.33-1.6.41-.2.78-.47,1.1-.8.8-.8,1.25-1.87,1.25-3.01s-.44-2.21-1.24-3.01c-.49-.5-1.1-.86-1.77-1.07h0ZM38.58,54.07c0-.93.85-1.69,1.88-1.69s1.88.76,1.88,1.69-.85,1.69-1.88,1.69-1.88-.76-1.88-1.69ZM58.34,48.96c-.34.35-.75.61-1.22.79-.11.04-.2.13-.24.24-.04.11-.03.24.03.34.28.49.42,1.03.42,1.6,0,1.79-1.46,3.25-3.25,3.25-.21,0-.42-.02-.62-.06-.18-.03-.36.05-.45.22-.33.66-.85,1.2-1.49,1.57-1.58.9-3.57.55-4.74-.84-.13-.16-.37-.19-.54-.08-.62.41-1.34.64-2.09.64s-1.42-.21-2.02-.59c.63-.46,1.03-1.17,1.03-1.97,0-1.38-1.21-2.51-2.7-2.51-.3,0-.58.05-.85.13-.46-.17-.89-.44-1.25-.79-1.34-1.34-1.34-3.52,0-4.86.35-.35.76-.61,1.22-.79.11-.04.2-.13.24-.24.04-.11.03-.24-.03-.34-.28-.49-.42-1.03-.42-1.6,0-1.79,1.46-3.25,3.25-3.25.21,0,.42.02.62.06.18.04.36-.06.45-.22.19-.38.45-.73.78-1.04.73-.69,1.68-1.05,2.68-1.03,1,.03,1.94.44,2.63,1.17.05.05.09.1.13.15.13.18.38.22.56.1.62-.42,1.35-.64,2.1-.64,2.09,0,3.79,1.7,3.79,3.79,0,.17-.01.34-.04.54-.03.21.11.41.32.46.65.14,1.25.46,1.72.94.65.65,1,1.51,1,2.43s-.36,1.78-1.01,2.43h0Z"/>
      <path class="cls-5" d="M38.06,60.7c.08,0,.16,0,.25-.01.55-.06,1.04-.31,1.39-.72.36-.41.53-.92.47-1.45-.06-.52-.33-.99-.77-1.31-.43-.31-.96-.45-1.51-.39-1.14.13-1.98,1.1-1.86,2.16.11.99,1,1.71,2.04,1.71h0ZM37.97,57.64c.05,0,.11,0,.16,0,.29,0,.56.09.78.25.25.18.41.45.44.74.03.29-.06.58-.27.82-.22.25-.52.4-.87.44-.7.08-1.31-.36-1.38-.98-.07-.62.44-1.18,1.13-1.26h0Z"/>
      <path class="cls-5" d="M48.39,43.11c-.74-.02-1.43.27-1.96.79-.52.52-.81,1.21-.81,1.94,0,.23.18.41.41.41s.41-.18.41-.41c0-.52.2-1,.57-1.36.37-.36.85-.56,1.37-.55,1.01.01,1.87.88,1.88,1.88.01.79-.47,1.51-1.2,1.8-.68.27-1.12.9-1.12,1.59v.38c0,.23.18.41.41.41s.41-.18.41-.41v-.38c0-.36.24-.68.6-.83,1.04-.42,1.73-1.45,1.72-2.58-.02-1.46-1.23-2.67-2.69-2.69h0Z"/>
      <path class="cls-5" d="M48.35,51c-.23,0-.41.18-.41.41v.18c0,.23.18.41.41.41s.41-.18.41-.41v-.18c0-.23-.18-.41-.41-.41Z"/>
    </g>
    <g>
      <path class="cls-5" d="M170.52,38.91c-.4-.39-.92-.61-1.48-.61h-.01c-.56,0-1.09.23-1.49.63l-2.45,2.48-3.51.68-5.5.25c-.12,0-.23.05-.31.13l-7.18,6.73c-.41.38-.65.9-.66,1.47s.18,1.1.57,1.51c.38.41.9.65,1.47.66.56.02,1.1-.18,1.51-.57l4.15-3.89v1.85l-5.36,9.4c-.57,1.01-.22,2.29.78,2.87.49.28,1.06.35,1.6.2.54-.15.99-.5,1.27-.99l4.92-8.63,3.05,3.45v4.26c0,1.16.94,2.1,2.1,2.1s2.1-.94,2.1-2.1v-5.06c0-.51-.19-1.01-.53-1.39l-3.43-3.88v-4.2l4.41-.85c.42-.08.79-.28,1.09-.59l2.91-2.95c.81-.82.81-2.16-.02-2.97h0ZM169.84,41.19l-2.91,2.95c-.16.16-.36.27-.58.31l-4.8.93c-.23.04-.4.25-.4.48v4.79c0,.12.04.24.12.32l3.56,4.02c.18.21.28.47.28.75v5.06c0,.62-.5,1.12-1.12,1.12s-1.12-.5-1.12-1.12v-4.45c0-.12-.04-.24-.12-.32l-3.63-4.1c-.09-.11-.23-.17-.37-.17-.02,0-.03,0-.05,0-.16.02-.3.11-.38.25l-5.26,9.22c-.15.26-.39.45-.68.53-.29.08-.59.04-.85-.11-.54-.31-.73-.99-.42-1.53l5.43-9.51c.04-.07.06-.16.06-.24v-3.11c0-.19-.12-.37-.3-.45-.18-.08-.39-.04-.53.09l-4.97,4.66c-.22.2-.5.31-.8.3-.3,0-.58-.14-.78-.35-.2-.22-.31-.5-.3-.8,0-.3.14-.58.35-.78l7.05-6.61,5.35-.24s.05,0,.07,0l3.7-.72c.1-.02.19-.07.26-.14l2.55-2.59c.21-.21.49-.33.79-.33.31.01.58.11.8.32.44.44.44,1.15,0,1.59h0Z"/>
      <path class="cls-5" d="M158.84,41.47c1.67,0,3.03-1.36,3.03-3.03s-1.36-3.03-3.03-3.03-3.03,1.36-3.03,3.03,1.36,3.03,3.03,3.03ZM158.84,36.4c1.13,0,2.05.92,2.05,2.05s-.92,2.05-2.05,2.05-2.05-.92-2.05-2.05.92-2.05,2.05-2.05Z"/>
    </g>
    <g>
      <path class="cls-5" d="M39.39,150.07c-.67-.42-1.56-.26-2.04.37l-.26.35c-.47.59-.37,1.45.22,1.92.04.03.08.06.12.08l5.46,3.33v9.22c0,.35.13.69.37.94v7.41c0,.99.82,1.79,1.81,1.78h.9c.58,0,1.14-.22,1.57-.62-.15-.31-.24-.65-.26-.99l-.32.32c-.26.26-.62.4-.98.4h-.9c-.5,0-.91-.39-.92-.89v-6.93c.09.01.17.02.26.02h1.85v4.43c0,.25.2.45.45.45.12,0,.23-.05.31-.13l.25-.25v-1.26l-.12.12v-3.36h1.01v6.91c0,.99.82,1.79,1.81,1.78h.9c.6,0,1.18-.24,1.61-.66l4.51-4.48c.43-.43.62-1.05.49-1.64-.13-.6-.57-1.1-1.15-1.3-.67-.24-1.42-.08-1.93.42l-2.35,2.33v-3.89c.22-.25.35-.58.35-.92v-8.86l6.06-3.7c.63-.41.81-1.25.4-1.89-.02-.04-.05-.07-.07-.1l-.26-.35c-.48-.63-1.37-.8-2.04-.38l-5.14,2.67h-.19c-.24.34-.53.64-.86.89h1.16c.07,0,.14-.02.21-.05l5.26-2.73s.02-.01.04-.02c.28-.18.66-.11.86.15l.26.35h0c.09.11.12.25.1.39-.02.13-.1.24-.2.31l-6.26,3.82c-.13.08-.21.23-.21.38v9.11c-.02.33-.31.57-.63.55h-6.47c-.33.02-.61-.23-.63-.55v-9.47c0-.16-.08-.3-.21-.38l-5.65-3.45c-.12-.07-.2-.19-.22-.32-.02-.14.02-.28.11-.39l.27-.36c.12-.16.31-.25.51-.25.12,0,.25.03.35.1.01,0,.02.01.04.02l5.26,2.73c.06.03.13.05.21.05h.71c-.39-.3-.73-.68-1-1.1l-4.75-2.47ZM49.06,166.79h1.83c.09,0,.19,0,.28-.03v4.46c0,.25.2.45.45.45.12,0,.23-.05.31-.13l3.11-3.08c.26-.26.65-.34,1-.22.3.1.52.35.58.66.07.3-.03.61-.24.82l-4.51,4.48c-.26.26-.62.4-.98.4h-.9c-.5,0-.91-.39-.92-.89v-6.91Z"/>
      <path class="cls-5" d="M47.72,153.63c1.85,0,3.34-1.5,3.34-3.35,0-1.85-1.5-3.34-3.35-3.34-1.85,0-3.34,1.5-3.34,3.34,0,1.85,1.5,3.34,3.35,3.34ZM47.72,147.83c1.35,0,2.45,1.1,2.45,2.45s-1.1,2.45-2.45,2.45c-1.35,0-2.45-1.1-2.45-2.45,0-1.35,1.1-2.45,2.45-2.45Z"/>
      <path class="cls-5" d="M47.72,151.85c.41,0,.81-.16,1.1-.46.17-.17.17-.46,0-.63-.17-.17-.46-.17-.63,0-.26.26-.68.26-.95,0-.17-.17-.46-.17-.63,0-.17.17-.17.46,0,.63.29.29.69.46,1.1.46Z"/>
    </g>
  </g>
</svg>