<?xml version="1.0" encoding="UTF-8"?>
<svg id="Camada_1" data-name="Camada 1" xmlns="http://www.w3.org/2000/svg" viewBox="0 0 60 60">
  <defs>
    <style>
      .cls-1 {
        fill: #d7b980;
      }

      .cls-2 {
        fill: #9b8b5d;
      }

      .cls-3 {
        fill: #cba45f;
      }
    </style>
  </defs>
  <path class="cls-1" d="M38.38,54.38c-.75-.4.17-.49.46-.63.1-.05.61-.27.55-.44-.09-.25-.69.1-.83-.13.23-.09.45-.17.68-.26.34-.14.31.04.62.14.47.16.52-.53.99-.18.16.12.59.38.52-.04-.07-.48-.45-.66.06-.91.07.43.37.82.47,1.24.38-.24.72-.49,1.07-.76.12-.09-.3-.42,0-.53.32-.11.74-.15,1.08-.18.32-.02.65-.06.94-.2.36-.19.11-.44.36-.59.19-.11.75-.46.44-.72-.25-.21-.57.26-.78.35-.04-.18.13-.43.03-.6.15-.09.3-.19.45-.28.14.16.28.32.5.37.47.11.68.23,1.06-.1.27-.24-.2-.75-.37-1.06.32-.02.63-.12.96-.1.42.02.12.15.27.42.12-.12.22-.21.07-.35.31.12.35-.06.59-.3.35-.35.26-.55.09-1.01.29.03.58-.03.88-.03.23-.28.44-.59.64-.89-.19.01-.51.17-.67,0,.27-.25,1.01-1.24,1.32-1.16.17.04.4-.44.47-.55.54-.81,1.12-1.64,1.61-2.49.64-1.1,1.1-2.29,1.42-3.51.06-.24.25-.38.29-.61,0-.1-.02-.18-.09-.25.04-.17.07-.33.1-.5.08-.42.26-.13.42-.45.09-.17.08-.37.12-.55-.47,0-.35-.2-.3-.58.1-.25-.09-.7.27-.78.34-.08.33.03.41-.37.09-.5.18-.99.22-1.5-.23.13-.48.17-.74.19,0-.37,0-.74,0-1.11.2-.02.14.27.29.33.16.08.39-.34.45-.44.29-.45.09-.82.09-1.32-.19.24-.61.18-.87.22-.02-.31-.03-.63-.06-.94.1.2.21.24.38.34.13.07-.1.17-.04.26.16.23.34-.33.58-.1.02-.66-.05-1.31-.07-1.97-.05.07-.35.4-.44.24-.23-.41.33-.36.51-.46.3-.16-.55-1.29-.63-1.44-.07-.13-.11-.27-.12-.41-.39.16-.54.05-.51-.32.03-.37-.04-.36.32-.3.39.07.24-.13.5-.39.05-.41-.28-.9-.34-1.27-.67-3.74-2.24-7.32-4.6-10.28.29-.11-.51-.94-.68-1.17-.14-.19-.27-.38-.41-.57-.04-.08-.12-.08-.22,0-.17.09-.3.04-.39-.15.11-.16.28.12.27-.22,0-1.25-1.6-1.44-2.07-2.43-.02-.04-1.84-.98-1.17-1.2-.85-.47-1.52-1.15-2.36-1.63-.82-.47-1.65-1.44-2.68-1.27-.92.15-1.52-.43-2.39-.65-.04,0-1.1-.09-.77.18.2.16.48.17.69.31-.43.03-.83.07-1.26,0-.1-.01-.45.1-.28-.13-.37-.01-.7-.37-1.11-.42-.06,0-1.08-.31-.96-.41-.08.07.07.53.12.61-.12-.06-.98-.27-.99-.04-.94-.15-1.89-.26-2.84-.32-1.88-.11-3.76-.03-5.62.27.24-.48-.98-.28-1.15-.36-.52-.29-1.09-.03-1.59.16-.44.16-.88.24-1.35.31-.39.06-1.31.03-1.61.29-.09.08-.21.21-.22.33-.01.16-.41.34-.56.52-.35.4-.82.65-1.17,1.06-.34.4-.66.62-1.07.86.34-.48-.42-.09-.28-.65-.39.24-.89.59-1.02,1.05-.51.2-1.12.11-1.61.37-.19.1-1.09.75-.66.98.17.09.9-.6,1.16-.67-.64.47-1.22.9-1.74,1.51-.09.1-.16.21-.24.31-.24.29-.37-.08-.62.01-.38.13-.89.83-.81,1.23-.34-.34-.66.33-.88.57-.17.18-.37.35-.48.58-.12.26.42.33.61.41-.07.09-.14.18-.22.27-.16-.15-.3-.31-.45-.47-.08.24-.17.48-.25.72-.07.24-.03.67-.16.87-.16.24-.62.07-.63-.2-.29.46-.58.92-.83,1.4-.51.99-.47,2.11-1.02,3.11-.45.81-.9,1.56-1,2.49-.03.31-.36.55-.42.91-.09.56-.31,1.12-.22,1.7-.12.54-.22,1.08-.31,1.63-.06.35-.02.91-.18,1.23-.02.34-.05.67-.07,1.01-.03.48-.31.95-.07,1.43-.04,2.31.23,4.62.81,6.86,1.03,3.94,3.04,7.55,5.79,10.53,1.24,1.34,2.72,2.87,4.38,3.69.96.46,1.61,1.46,2.39,2.28.11.12.22.35.4.37.12-.01.2-.08.25-.2.13.05.25.1.37.16.07.04,1.51.56,1.39.23-.04-.12-.86-.38-.98-.46-.18-.13-.93-.5-.92-.76.37.18.52.46.87.63.17.08.34.13.51.21.07-.21.19-.24.35-.1.14.05.27.11.41.16-.22.28.12.34.32.56.21.23.41.4.7.5.58.21,1.25,0,1.8.23.22.1,1.72.83,1.68.32.08.04.18.02.26.06.04-.59.83-.46,1-.09.14.31.39.07.41-.16.36.03.72.06,1.08.08-.69.69,1,.73,1.07.56-.16,0-.31-.02-.47-.03.23-.75,1.13-.31,1.66-.31.19,0,.35-.09.46-.23.28-.02.57-.04.85-.06.66-.06,1.32-.14,1.97-.25.04.27.12.74-.2.88.62-.11,1.27-.02,1.89-.14-.23-.28-.79-.89-.21-1.02.52-.11,1.03-.24,1.55-.38-.1.08-.2.24-.32.29-.19.07-.28-.22-.46.03-.03.05-.13.23,0,.27.29.08.23-.23.43.06.18.24.6.11.8-.03.42-.3.61.05,1.06-.15-.06.27.68-.04.82-.06ZM19.99,5.56c.37-.05.73-.12,1.1-.15-.33.07-.64.22-.95.35,0-.1-.04-.17-.14-.2ZM54.81,29.03c-.04-.41-.1-.38.24-.55-.12.17-.02.45-.24.55ZM45.71,9.58c.38.23,1.47.63,1.35,1.12-.7-.57-1.43-1.1-2.18-1.59.3.1.57.3.83.48ZM39.6,6.11c.24.07.41.25.68.23.32-.02.66-.14.95.06-.21.18-.45.29-.71.4.87.1,1.75.45,2.43,1,.31.25.39.06.72-.09.18-.08.17-.09.19.09.05.59-.71.26-.92.15-1-.53-2.03-.99-3.08-1.4-.75-.29-1.18-.55-1.95-.75.58-.02,1.13.17,1.69.3ZM14.71,9.27c-.13-.05-.25-.1-.38-.15.32-.08.64-.15.97-.21-.19.15-.35.3-.59.36ZM12.86,10.6c.15-.16.41-.46.66-.34-.22.18-.38.49-.66.34ZM44.03,50.54c.33-.19.65-.38.98-.58-.01.46-.65.52-.98.58ZM40.4,52.41c-.06.17-.16.35-.33.44-.14.06-.44-.17-.52-.05.28-.13.57-.26.85-.39Z"/>
  <path class="cls-3" d="M11.64,40.75c-2.56-1.62-5.5-3.93-6.61-6.85-.69-1.83-.19-4.02.24-5.86.32-1.39.72-2.69.79-4.11.08-1.46.26-3.04.84-4.4.4-.93,1.41-1.81,2.48-1.3,1.52.72,1.09,3.12,1.19,4.44.02.33.06,1.99.78,1.69.74-.31,1.34-1.2,1.83-1.79.84-1.01,1.63-2.06,2.42-3.11.65-.87,1.29-1.75,1.99-2.58.58-.68.68-.47,1.44-.02.89.52,2.33,1.39,1.77,2.6-.52,1.12-1.32,2.14-2.03,3.15-.69.98-1.46,1.94-2.02,3.01-.55,1.05.91-.09,1.16-.3,1.14-.98,2.27-2.11,3.09-3.38.74-1.13,2.33-3.03,3.92-2.29,1.56.73,1.12,2.35.55,3.58-.57,1.23-1.16,2.46-1.71,3.7-.25.55-.49,1.1-.71,1.66-.11.27-.34.68-.3.98.01.09,1.31-1.26,1.42-1.39.81-.98,1.6-1.98,2.42-2.95.58-.68,1.32-1.57,2.28-.87,1.28.93.16,3.26-.25,4.36-.81,2.2-1.83,4.35-3.14,6.3-.62.93-1.33,1.82-2.17,2.56-1.01.89-2.28,1.47-3.41,2.19-1.2.76-2.43,1.59-3.82,1.93-1.57.38-3.1-.09-4.44-.94Z"/>
  <path class="cls-2" d="M46.41,25.92c-.85,1.4-1.95,2.79-3.5,3.44-1.48.63-3.19.53-4.41-.57-.51-.46-.93-1.02-1.33-1.58-.35-.49-.83-1.46-1.46-1.61-.91-.22-1.29.67-1.28,1.41.02.98.55,1.86,1.22,2.55-.08,0-.16,0-.23-.04.16.15.38.2.54.35.2.18.44.43.66.58.21.14.47.27.7.4.06.11.33.66.5.36-.09-.03-.14-.09-.17-.18.24.13.52.17.56.4.03.17.34.25.3.2.11.04.22.09.32.15.23.08.3-.14.55-.08.19.05.31.12.51.15-.06.02-.09.07-.07.14.19-.12.46-.05.66-.01-.07.06-.25.14-.35.13.08.03.16.06.24.08.22,0,.14.1.37.14.22.04.45-.32.55-.43.03.03.39.33.36.02.28-.02.52.28.81.16-.05.03-.45.11-.44.16.05.41.82-.29.75-.33.24-.07.48-.11.72-.15.2-.12.3-.08.29.12.01.06.05.09.11.07-.04-.17.05-.2.07-.26,0,.08-.02.17-.04.25.16-.13.3-.48.3-.68.1.29.3-.11.36-.21.14-.25.54-.25.72-.5-.05.32.27-.23.32-.3.1-.17.5-.56.41-.73.18.1.41.16.56-.03.19-.24.02-.55.32-.41,0-.27-.06-.59.13-.83.05.08.11.12.2.13-.04.04-.02-.88.07-.78-.14-.15.2-.67.3-.91.15-.36.23-.73-.16-.97-.33-.2-.81-.15-1.02.2ZM41.62,31.86s.03.01.03.03c0,0-.02-.01-.03-.03ZM46.27,29.44c.02-.06-.24-.06-.14-.2.12.05.09.18.19.05-.02.05-.03.1-.05.14ZM46.32,29.15c-.09-.02-.1-.06-.05-.1.04.02.06.05.05.1ZM47.03,28.21l.05-.09s.17.29-.05.09ZM46.52,28.91s.03.1.03.15c-.01.07-.21-.1-.13-.21.03.02.07.04.1.06Z"/>
  <path class="cls-2" d="M35.91,41.17c.16-.13-.12-.2,0-.38.05-.07.03-.12-.04-.14-.27-.01-.21-.11-.37-.39-.39-.71-.89-1.28-1.59-1.73-.58-.38-1.36-.73-2.06-.8-.4-.06-.84-.08-1.25-.08-.23,0-.9-.1-1.05.01.06-.27-.14-.08-.22-.02-.29.22-.73.22-1.09.31-.41.1-.59-.05-.95.29-.16.05-.31.11-.46.17-.29.11-.25-.07-.32-.04-.15.07-.02.18-.26.29-.49.22-.03.02-.27.03-.12,0-.43.31-.46.32-.38.1-.88.56-1.19.79-.47.35-.91.75-1.3,1.2-.51.59-.64,1.34-.11,1.98.43.52,1.17.7,1.68.19.78-.77,1.38-1.57,2.34-2.14,1.83-1.11,4.05-1.29,5.88-.1.82.53,1.45,1.42,2.28,1.89.35.19.78.05.97-.29.21-.41-.03-.96-.16-1.35Z"/>
  <path class="cls-2" d="M28.1,31.95c.02.18.24.06.29-.02.11-.17.15-.4.18-.6.09-.65.51-1.24.75-1.85.12-.3.17-.63.39-.86.19-.21.29-.49.36-.75.2-.68.22-1.4.23-2.1-.03.13-.06.26-.08.39-.03-.21.02-.41.06-.61-.08.53-.22-.67-.21-.82,0-.16-.03-.33-.16-.45-.22-.19.07-.31-.14-.45-.12-.08-.27-.04-.4-.03-.19.02-.1-.11-.27-.18-.2-.09-.42-.11-.64-.09-.23.02-.57.22-.47-.1-.78.36-1.54.95-2.1,1.6-.2-.13-.55.69-.65.83-.16.21-.31.43-.47.65-.04.06-.3.28-.14.19-.13.17-.26.33-.4.49.57-.95,1.24-2.02,1.72-3.13.24-.45.4-.96.6-1.42.24-.53.19-1.16.04-1.7.08.36.15.74.06,1.1-.07-.66-.1-1.31-.27-1.96-.46.13-.32-.29-.17-.12-.22-.39-.27-1.12-.8-1.28.29-.15-.29-.39-.41-.29.25-.24-.3-.11-.34-.09-.24.09-.4.25-.6.38-.24.16-.54.21-.76.41-.08.07-.5.44-.14.3-.19.1-.29.12-.48.18-.07.14-.16.15-.28.04-.12,0-.23.02-.33.1-.44.3-.61.85-.91,1.26.06-.05.12-.1.19-.14-.14.38-.58.71-.92,1.12-.52.63-.98,1.24-1.55,1.91-.08-.37-.42.01-.17.2-.24.27-1.14,1.47-1.49,1.37.45-.87,1.09-1.58,1.74-2.3.18-.2.36-.4.54-.6.35-.4.03-.1.37-.12.12,0,.09-.21.09-.27-.01-.24.32-.52.47-.72-.02.09,0,.16.05.22.12-.03.22-.33.06-.37.27-.38.48-.81.59-1.26.66-.6.55-1.53.19-2.26.17.31.3.75.23,1.11-.09-.68-.3-1.35-.72-1.91-.37.29-.41-.14-.2-.05-.41-.3-.66-.71-1.18-.87.22-.22-.32-.3-.39-.22.2-.26-.35-.08-.44-.02-.41.2-1.01.56-1.27.93-.25.16-.48.36-.69.57-.24-.03-.43.21-.54.39-.35.54-.65,1.08-1.04,1.59.05-.21-.2-.27-.18,0,.02.33-.21.52-.41.8.02-.09,0-.17-.05-.24-.12.1-.43.37-.05.38-.22.3-.43.6-.65.9-.11.15-.22.3-.33.45-.15-.12-.25-.06-.22.12.08.53-1.2,1.7-1.57,2.11-.09-.15-.16-.31-.23-.48.29.09-.16-1.52-.12-1.75.06-.34.33-.84.2-1.18-.15-.38-.33.42-.34.49,0-.6-.17-1.21-.13-1.81.05-.66-.22-.98-.84-1.28.43-.2.06-.54-.26-.6-.37-.12-.85-.03-1.13.24-.31.22-.74.27-1.07.48-.41.25-.73.6-.98,1-.92,1.47-.8,3.34-1.07,5-.35,2.16-1.52,4.1-1.57,6.32-.05,2.17.74,4.37,1.75,6.27.91,1.71,2.25,3.26,3.97,4.19.41.22.84.4,1.28.54.41.33.85.62,1.32.85.93.45,1.95.65,2.98.6,4.14-.22,7.52-3.69,9.94-6.69,1.02-1.27,1.95-2.61,2.76-4.02ZM5.84,32.37c-.02-.75-.26-1.45-.23-2.2.03-.7.13-1.4.27-2.09.25-1.21.68-2.16.84-3.33.07-.53.2-1.07.21-1.61,0-.36.03-.71.09-1.07.2-.09.26-.37.28-.57.1-.67.04-1.21.41-1.81.29-.47.75-.8,1.33-.77,1.51.07.78,3.08.88,4.01.05.44.27.93.52,1.3.15.22.29.32.32.54.03.19.52.28.66.38.25.17.53.06.65-.21.13-.29.34-.41.57-.65.49-.51.91-1.12,1.34-1.68.01.09,0,.17-.02.26.15-.23.18-.47.35-.69.22-.29.43-.59.64-.89.11-.15.21-.3.32-.45.07.08.14.1.23.06.12-.09.05-.31-.11-.23.45-.63.9-1.25,1.39-1.84.41-.49.87-1.17,1.52-1.35,1.08-.3,1.73.96,1.79,1.77-.2-.32,0,.37,0,.37-.03.26-.14.22-.23.45-.18.52-.65.67-.94,1.11.04-.07.03-.11-.01-.14-.17.07-.37.53-.46.67-.14.23-.69.68-.61.93-.29-.15-.55-.04-.73.21-.07.1-.13.21-.17.32-.11.27,0,.34-.26.22-.09.42-.14.86-.35,1.25-.16-.19-.25-.15-.21.08.05.31,0,.47-.02.81-.13.37-.08.66-.28.94-.13.18-.07.49.15.58.6.23,1.61-.47,2.04-.82.54-.44.98-.98,1.4-1.53,0,.13,0,.25-.04.37.16-.23.16-.52.31-.73.34-.46.68-.91,1.03-1.35.08.47.54-.38.08-.1.8-.98,1.77-2.23,3-2.7.43-.17.89-.15,1.2.23.33.41.66,1.41.38,1.89-.03-.03-.22-.2-.26-.06.23.16.06.13.11.27-.04-.08-.08-.16-.12-.23-.05.28.07.59.11.86-.22-.21-.25.31-.26.42-.06.43-.52.7-.68,1.09.03-.07.01-.12-.04-.13-.15.1-.26.59-.32.75-.1.26-.56.79-.43,1.03-.27-.09-.5.02-.65.26-.08.14-.13.3-.17.46-.06.28.05.29-.21.22-.02.42.01.86-.15,1.26-.26-.24-.25-.01-.16.19.15.36-.08.9-.06,1.31,0,.24-.05.73.19.89.1.07.26.04.29-.1.03-.21.3-.26.46-.38,1.4-1.02,2.16-2.83,3.27-4.13-.02.13-.05.25-.1.37.28-.41,1.84-2.8,2.57-1.81.44.6.23,1.7.13,2.38-.2,1.35-.9,2.54-1.56,3.71-.15.28-.29.55-.53.75-.36.3-.34.72-.58,1.09-.25.39-.5.77-.76,1.14-.31.44-.74.79-1.03,1.24.05-.09.63-.84.58-.88-.23-.2-.81,1.04-.88,1.18-.35.76-1.05,1.33-1.73,1.84-.02-.14-.08-.29-.22-.16.09.27-.07.22-.14.41.03-.12.06-.24.09-.36-.27.35-.51.77-.68,1.18-.06-.33-.68.44-.76.51-.45.45-1.21.61-1.76.91.05-.04.09-.09.11-.14,0,.03-.8.4-.93.46-.1.05-.64.23-.66.34-.34.1-.95,0-1.18.33-.17-.3-.52-.38-.83-.35-.19,0-.37.02-.56.04-.33.05-.46.19-.49-.11-.5.06-1,.16-1.48-.05.01-.29-.1-.34-.41-.29-.39.05-.11-.2-.39-.31-.27-.1-.08.14-.41-.07-.27-.17-.38-.22-.53.11,0-.1,0-.48-.13-.51-.1.04-.16.11-.18.23-.02-.1-.03-.2-.05-.3.03.12.04.27.06.4-.6-.45-.95-1.12-1.57-1.56-.73-.51-1.47-1.08-1.85-1.91.08.09.14.09.18.02-.07-.32-.49-.53-.63-.82.06-.04-.4-.83-.43-.91.08.08.18.11.29.07.02-.01-.56-1.19-.59-1.15-.05.07.05.37.09.43-.15-.14-.35-.29-.4-.5.04.09.1.15.19.18-.14-.35-.3-.67-.31-1.05ZM16.24,24.87s-.15-.39.06-.16l-.06.16ZM17.07,23.53s-.04-.28.08-.22c.11.11.13.21.06.29-.04-.02-.09-.05-.13-.07ZM17.37,23.28s0-.07,0-.11c.17.13.04.16,0,.11ZM17.66,23.02c-.19-.03-.09-.23-.25-.04.09-.45.31-.03.25.04ZM22.23,28.73s-.19-.36.04-.15l-.04.15ZM22.86,27.33s-.09-.28.04-.23c.02.08.12.22-.04.23ZM23.09,26.92c.11.06-.1.1,0,0,.01,0-.02.02,0,0ZM23.27,26.71c-.13-.05-.05-.19-.17.02,0-.35.28-.2.17-.02ZM19.89,39.73c0-.12.04-.15.12-.09-.04.03-.08.06-.12.09ZM17.09,41.1c0-.11.03-.27.1-.36.09.12.03.16.15.28-.08.02-.17.05-.25.08ZM16.63,41.23s-.07-.03-.11-.04c.05-.09.11-.13.2-.14.08.07-.03.17-.09.18ZM15.06,40.89c.03-.05.07-.08.13-.06,0,.45-.14.09-.13.06ZM15.81,40.78c-.03.07-.06.15-.09.22-.22-.15-.06-.12-.06-.26-.07-.02-.14-.02-.2,0,.1-.05.21-.07.32-.07-.04.04-.03.08.04.11ZM15.75,41.19l-.26.05c-.16-.18.2-.12.26-.05ZM14.2,41.1c.07-.02.61-.54.63-.37-.22.12-.35.4-.63.37ZM14.29,41.26c-.08.01-.11.13-.18-.02l.18.02ZM8.79,38.17l.15.04c.09.03-.1.06-.15-.04ZM9.08,38.17c.11.09,0,0,0,0h0ZM9.36,38.74s.06.03.1.04c-.03.04-.06.03-.1-.04ZM9.23,38.28c.14.11,1.11.6,1,.82-.34-.26-.69-.51-1-.82ZM12.75,40.13s-.08-.03-.12-.04c.08,0,.14,0,.12.04ZM14.7,41.32c.05,0,.11.02.16.03-.05.08-.12.11-.2.09.01-.04.02-.08.03-.12ZM17.8,40.85c-.15-.01.04-.24.08-.09,0,.06-.03.09-.08.09ZM19.01,40.11c-.06.16.04.14-.13.23-.04-.12,0-.2.13-.23ZM29.8,28.02s.02-.06.03-.09c0,.03,0,.05-.01.08,0-.05.01-.09.03-.14-.01.05-.03.1-.04.15ZM29.69,24.25c.03.08.05.17.08.25-.06-.09-.34-.52-.44-.55.13-.12.34.26.36.31ZM25.78,19.6s-.01.06-.02.09c-.06-.08.01-.11.02-.09ZM25.46,19.37s-.03,0-.03,0c.01,0,.02,0,.03,0ZM24.86,18.69c0,.08-.02.14-.07.19-.03-.06-.04-.12-.04-.19h.11ZM24.07,18.84c0,.15-.04.17-.15.06,0,0,.15-.06.15-.06ZM23.78,19.02c-.02.13-.1.19-.23.19.12-.03.13-.08.03-.16.06-.04.13-.05.2-.03ZM22.09,19.97s.09-.01.13-.02c-.12.1-.23.21-.34.32.07-.1.14-.2.21-.3ZM21.23,19.21c0-.2.08.01,0,0,0-.03.02,0,0,0ZM21.24,18.87s-.03-.05-.03-.08c.02,0,.04.03.03.08ZM20.7,17.25c.14-.04.1.27.1.33-.02-.04-.37-.3-.1-.33ZM20.09,16.75c.04.05.03.11-.02.16-.06-.04-.01-.18.02-.16ZM18.95,16.12c.01.08,0,.14-.06.19-.03-.06-.05-.12-.05-.19.04,0,.07,0,.11,0ZM18.17,16.28c0,.12-.07.14-.15.06.05-.02.1-.04.15-.06ZM17.81,16.48s-.07.03-.11.05c.02-.02.06-.04.11-.05ZM9.65,17.44c.18,0,.39,0,.53.13-.39.14-.64-.08-1.04-.05.17-.04.34-.07.51-.09Z"/>
  <path class="cls-2" d="M33.79,21.22c-.08-.06-.26.28.08.18-.03.09-.02.17.03.24.12.08.07-.34.03-.23.01-.06.04-.09.1-.09.06.83,1.8.69,2.37.68,1.05-.03,2.08-.25,3.07-.59,1.26-.44,3.75-1.35,3.83-2.99-.02-.03-.04-.02-.06.06.17-.32-.12-.63-.45-.58-.19.03-1.07,0-1.33-.06-.3-.07-.28.17-.48.14-.43-.06-.08.18.06.24-.19.11-.38.22-.57.33.02-.04.03-.09.02-.13.02,0-.13.2-.15.21-.17-.27-.3-.04-.27.16-.15.09-.98.03-.33.19-.21.11-.57.16-.62.14-.11.11-.49.59-.61.38-.01.13-.1.2-.25.2.01-.06.04-.12.07-.18-.09.04-.16-.05-.16.11-.22-.24-.28-.01-.26.21-.14.06-.27.11-.41.16-.09-.08-.19-.11-.3-.1.03-.03.22-.09.2-.14-.05-.15-.15-.11-.23-.01-.03.04-.15.22-.11.28-.18.04-.35.03-.52-.04.02-.11,0-.19-.08-.26,0,.07.01.15.02.22-.03-.05-.04-.11-.03-.21-.11.09-.15.37-.17.5-.03-.26-.48.25-.64-.08,0,0-.63.29-.64.34-.02-.09-.07-.47-.26-.42-.2.05-.18.33-.21-.02-.07.1-.2.39-.38.33.04-.09.04-.17,0-.24-.16.1.02.23-.22.23-.24,0-.17.31-.16.48,0-.03-.07-.37-.08-.36-.02.09-.03.19-.01.29-.01-.06-.03-.13-.05-.19.06.2.07.42.16.62ZM34.88,20.33c.02.11.03.21,0,.32-.02-.06-.1-.34,0-.32ZM34.75,20.46c.03.45-.03.1-.02.07,0-.06.01-.08.02-.07ZM34.66,20.37c-.03.12-.05.25-.07.37-.07.39.05-.64.07-.37ZM34.14,20.38h-.05s.09-.28.05,0ZM33.91,21.02c-.03.1-.06.06-.06-.1,0,0,.15-.03.06.1Z"/>
</svg>