<?xml version="1.0" encoding="UTF-8"?>
<svg id="Camada_1" data-name="Camada 1" xmlns="http://www.w3.org/2000/svg" viewBox="0 0 60 60">
  <defs>
    <style>
      .cls-1 {
        fill: #d7b980;
      }

      .cls-2 {
        fill: #9b8b5d;
      }
    </style>
  </defs>
  <path class="cls-1" d="M3.95,29.73c-.07.49.32.57.16,1.06-.08.23-.09.67.2.77.33.12.02.15.18.4.07.1.22-.04.25-.09.19-.25-.12-.25-.1-.45,0-.13.13-.27.18-.39.01.62.05,1.24.1,1.86-.38.11-.71-.03-1.06-.18.06.63.33,1.22.41,1.85.04-.35.51-.41.78-.45.07.56.16,1.12.27,1.68.05.28.11.56.18.83.09.41-.02.23-.05.59-.02.39.38.65.41,1.06.03.39.17.56-.21.81-.05-.15-.11-.29-.16-.44-.16.12.38,1.72.84.86.12.34.25.68.39,1.02-.21.09-.37.39-.03.44.41.06.75.78.2.99.06.06.07.17.13.23-.51.11.69,1.4.85,1.59.36.43.34,1.15.71,1.63.18.23.39.37.65.49.27.13.42.44.63.15.09.12.18.23.27.35.18.11.18.23,0,.36.12.14.23.29.35.43.27.29.58.35.85.65-.25.08-.82-.53-.99-.67-.12-.09-.6-.8-.72-.81-.35-.01.57,1.21.62,1.27.09.1.18.2.26.31-.09.07-.13.15-.13.26.03.16.26.23.38.27.48.18,1,.45,1.47.67.5.24.87.45,1.25.78,4.61,3.94,10.51,6.07,16.62,5.89,1.27-.04,2.53-.17,3.78-.4,1.12-.21,2.3-.73,3.42-.79.46-.02.9-.4,1.32-.56.23-.09.62-.16.79-.33.92-.4,1.85-1.05,2.81-1.3.51-.14,1.01-.49,1.48-.74.33-.18.37-.52.73-.63.86-.27,1.5-1.19,2.12-1.79.75-.74,1.77-.98,2.52-1.71.39-.38.75-.79,1.11-1.2-.31.08-.62-.5-.29-.61.5-.18.9-.48,1.32-.79-.2-.09-.39-.18-.58-.29.07-.09.13-.19.2-.28.13.16.35.66.57.47.19-.17.29-.41.42-.62.17-.29.72-.78.29-1.01.41-.04.93-.73.95-1.13.01-.27-.38-.29-.17-.6.07-.11.16-.21.23-.32.43-.67.67-1.35.94-2.1,0,.27-.45,1.17-.31,1.3.34.35.7-.7.75-.91.11-.54-.14-1.1-.1-1.65.4-.26.59-.84.71-1.28-.49.29-.34-.55-.7-.09.12-.46.23-.83.52-1.27.29-.45.39-.97.68-1.42.13-.2.19-.63.34-.68.12-.05.21-.2.25-.31.17-.36-.12-1.24-.18-1.63-.02-.13-.23-1.06-.1-1.16-.01-.54.16-1.1-.15-1.6-.13-.21-.51-1.48-.83-1.18-.25-1.87-.72-3.69-1.36-5.46-.33-.9-.71-1.77-1.12-2.63.22-.08-.23-.83-.32-.93.09.02.58.03.62-.07-.06.14-.64-.75-.67-.8-.16-.37-.6-.59-.72-.94-.17.23-.53-1.26-.57-1.44.19.16.28.43.49.57.36.24-.03-.75-.05-.79-.24-.39-.57-.78-.88-1.11-.39-.42-.32-.69-.47-1.21-.22-.89-1.32-1.39-1.94-1.98-.7-.66-1.54-1.12-2.24-1.79-.01.71-1.43-.77-1.48-.78-1.09-.17-1.72-1.64-2.92-1.28-.32.09,0,.17-.13.32-.21-.03-.29-.14-.26-.33.05-.12.02-.2-.06-.21-.22-.07-.44-.15-.66-.23-.27-.1-1.3-.62-1.32-.31-2.68-1.08-5.58-1.62-8.49-1.61-1.2,0-2.44.05-3.62.16-.36.03-.81.22-.61.62.25.5-.71.7-.65,0-.53.1-1.46-.55-1.94-.25-.26.16.21.54-.2.67-.37.12-.13-.34-.04-.47-.63.17-1.28.29-1.91.5.29.16-.19.5.07.59.1.03.13-.21.24-.11.14.14.21.23.43.27-.31.07-.61.14-.92.22-.04-.26-.22-.65-.04-.9-.48.14-.89.06-1.24.47-.07.09-.41.42-.29.56.11.12.36-.02.4.18-.36.1-.71.21-1.06.32-.06-.26-.09-.51-.03-.77-.4.16-.79.35-1.18.55-.41.21-.46.17-.43.6.02.36-.46.31-.67.48-.35.15-.5.32-.64-.12-.16.1-.36.14-.5.27-.27.25.07.33-.31.53-.15.08-.3.16-.45.24-.08-.05-.17-.05-.27-.01-.2.11-.29.32-.5.45-1.08.66-2.08,1.45-2.96,2.37-.68.72-1.3,1.51-1.92,2.26-.08.09-.48.46-.39.61.16.27-.57,1.27-.73,1.6-.21-.11-.14-.46-.19-.65-.23.29-.46.57-.67.87.09.28.11.57.23.85-.38-.02-.67-.11-.88.26-.17.31-.4.49-.18.77-.19-.1-.24.02-.32.16.3.07.33-.26.48.13.11.3.11.63.18.94-.35-.08-.98-.38-1.13-.05-.21.46-.04.63.21,1.05.11.2.3.29.5.37-.05.17-.1.34-.14.52-.19-.04-.38.19-.57.2.03-.22.38-.66.11-.84-.34-.23-.51.42-.56.63-.07.28-.39.11-.46.51-.07.4.04.81.13,1.2.04.21.16.72.07.91-.09.2-.45-.04-.49.08-.16.41-.3.82-.42,1.25.44-.02.9.15,1.33.1-.1.56-.38.25-.86.32-.42.06-.05.39.12.51.47.36-.21.66.16,1.06.2.22.29.15.26.49-.02.24-.04.48-.06.72-.28-.08-.1-.54-.31-.74-.18-.17-.31.56-.32.62-.05.32.12,1.2-.47.62.02.15-.07.94.18.81ZM55.59,32.44c.04-.34.09-.67.06-1.01.08.36.11.73.17,1.09-.05-.09-.13-.11-.23-.08ZM23.8,5.52c-.06.37-.06.31-.46.39.03-.24.34-.22.46-.39ZM45.28,9.69c-.69-.58-1.41-1.13-2.15-1.63.41-.25,1.14.67,1.46.97.24.2.51.4.7.66ZM50.43,15.42c-.41-.68-.79-1.02-1.28-1.65-.69-.89-1.43-1.75-2.22-2.55-.16-.16-.7-.8-.12-.92.18-.04.17-.04.14.16-.05.37-.21.5.12.72.72.49,1.31,1.24,1.65,2.04.03-.28.07-.54.18-.79.28.22.26.58.33.89.06.26.28.37.41.58.28.5.62.97.77,1.53ZM53.96,37.97c.03.33.06.66.07.99-.08-.11-.17-.21-.25-.32-.02-.24.08-.44.18-.67ZM53.17,40.06c.18.21-.03.54-.14.73-.22-.23.03-.47.14-.73ZM6.11,21.3c-.1.37-.19.74-.28,1.11-.03-.33-.16-.96.28-1.11ZM4.95,27.35c.09-.12-.22-.33-.2-.49.03-.19.17-.33.32-.44-.04.31-.08.62-.13.93Z"/>
  <path class="cls-2" d="M14.56,30.11c.05.16.85,1.57.98,1.47.1-.13.09-.26-.03-.38.21.07.28.54.35.73,0-.22-.02-.45-.07-.67.41.07.93.06,1.3-.14.05.12.11.24.15.36-.16-.46.01.07.12-.05.05-.06-.1-.27-.13-.31.22.19.3.2.46-.07.16-.27.22-.13.38-.32,0-.08-.05-.11-.16-.08.11-.28.38-.44.58-.64-.22-.15.22-.36.22-.67,0-.28.09-.55.13-.84.01-.09.14-1.03.03-.83.01-.14-.13-1.48-.23-1.41.04-.11.06-.23.07-.35.56.34,3.29,1.83,3.69.82.05.02.07.06.06.12,0-.11-.2.26-.06.23.08-.05.11-.12.11-.21.28.22.24-.16.14-.13.15-.15.24-.35.37-.52-.04.05-.07.11-.11.16.04-.09.07-.18.09-.27,0,.02-.18.24-.21.3.06-.15.24-.42.02-.5-.22-.09,0-.15-.12-.3-.07.05-.09.13-.09.22-.18-.01-.21-.33-.23-.45-.16.31-.04.06-.21-.06-.16-.11-.34.22-.39.3.02-.08-.49-.63-.49-.44-.1-.13-.38-.02-.42-.18-.03-.13-.08-.3-.19-.08.03-.13.09-.4.02-.53-.03.1-.06.15-.11.19.03-.07.06-.13.09-.2-.09.03-.15.1-.17.21-.12,0-.24-.03-.36-.07-.21-.08-.1-.15-.13-.33-.02-.13-.1-.27-.23-.12-.03.04.12.16.14.2-.1-.06-.21-.06-.32-.02-.11-.1-.22-.2-.32-.3.1-.19.12-.43-.17-.28.06-.15-.04-.09-.11-.16.01.06.01.13,0,.19-.14-.06-.19-.15-.16-.28-.19.15-.37-.43-.43-.57-.03,0-.38-.17-.52-.35.66.08-.14-.17-.25-.3.09-.18.06-.43-.2-.25-.02-.02-.08-.25-.06-.25-.02.04-.03.09-.03.13-.08-.1-.43-.42-.41-.51.61-.01.1-.1.05-.33-.04-.15-.4-.25-.51-.15-.05.04-.64-.34-.77-.39-1.03-.38-1.09.61-.86,1.39.22.78.77,1.42,1.32,1.99-.42-.08-.59.44-.81.7.07-.08.23-.16.33-.19-.14.18-.31.39-.52.51.11.14.1,0-.05.25-.06.11-.01.08-.08.25.12.06.22-.19.33-.27-.15.38-.13.39-.49.52-.28.1-.26.4-.33.64-.01-.07-.22.56.11.44.05.22-.14.42-.1.65.08.08.1.17.05.26,0,0-.18-.46-.12-.46-.23-.01-.06.43-.03.51.26.73-.15,1.66.08,2.47ZM15.27,25.11c-.05-.1.04-.13.06-.18.04-.09-.03.14-.06.18ZM22.69,25.86l-.05-.02c.06-.28.05-.02.05.02ZM22.72,26.44c-.06.15-.09.18-.09.07-.04-.15.09-.07.09-.07ZM22.19,25.61c.06.13-.08.28-.08.41,0-.02.07-.43.08-.41ZM22.04,25.7s.02.02,0,.07c0,.03-.19.34,0-.07ZM21.85,25.82c-.03.06.13-.49.17-.23-.07-.03-.14.2-.17.23ZM17.85,30.78l.05-.09c.22.03-.01.08-.05.09ZM16.89,24.53c-.13-.07-.27-.14-.41-.19.19-.16.27.07.41.19ZM15.13,25.63c.06.06.05.08,0,.15-.05.12-.26-.06,0-.15ZM14.87,25.93c.16-.23.17.1.17.1-.1.02-.16-.02-.17-.1ZM14.83,26.09c.14.11.08.17-.01.27-.09.09-.06.14.09.14-.04.02-.09.04-.13.07-.12-.09,0-.39.05-.48Z"/>
  <path class="cls-2" d="M24.1,41.2c-.09.7-.29,1.64-.12,2.34.13.52.7.38.84.64.11-.26.61-.2.72-.63.11-.41.04-.91.08-1.33.06-.73.22-1.39.37-2.08-.22.44,0-.3,0-.33.12-.44.17-.03.25-.28.05-.13.04-.3-.12-.25.08-.27.08-.54.35-.64.2-.08.05-.21-.08-.19.11-.3.23-.59.37-.87.2-.16.44-.32.61-.51.14-.17.16-.37.04-.56.12-.15.23-.3.36-.44.38-.11.67-.5,1.08-.38.12.04.65.26.44-.07.1-.1.41.09.24-.26.39-.03.75-.26,1.16-.13-.17-.14.22-.35.09.19.51.1,1,.38,1.28.83-.22-.17-.41-.38-.64-.53.35.28.59.69.99.91.39.21.63.21.93.56.04-.09.03-.17,0-.26.12.13.08.34.07.5-.03-.17-.41-.21-.2.08.03.04.39.42.33.46.1-.06.16-.15.19-.26.14.26.33.48.36.77.02.14.07.65.23.27.53.66-.01,1.64.47,2.26.18.23,1.1,1.14.57,1.49.1-.11-.24-.15-.29.01-.06.19.23.17.31.11,0,.17-.17.58.2.47.08.49.27,1.34.98.92.35-.21.31-.87.33-1.23.07-1.01-.02-2.04-.22-3.03-.4-2.05-1.31-4.23-3.03-5.51-1.89-1.41-4.57-1.18-6.39.25-1,.79-1.71,1.89-2.21,3.06-.14.32-.26.65-.37.98-.05.15-.4.36-.15.47-.13.47-.24.95-.33,1.44-.06.35-.19.6-.28.92.04-.07.1-.12.17-.16ZM35.07,40.24s.04-.11.04-.11c.02.05.01.08-.04.11ZM34.94,40.43c.06.23.25.73.27.79-.25.05-.26-.52-.27-.79ZM34.93,40.31s.01.09,0,0h0ZM34.92,39.32s-.04-.15,0,0c-.02,0,0-.02,0,0ZM34.59,38.23c-.13.05-.02-.06,0,0-.02,0,0-.01,0,0ZM34.4,37.86c.02-.07.02-.06.05.02-.04.05-.05.04-.05-.02ZM34.19,37.63c.07-.16.11-.17.15-.03-.05.01-.1.02-.15.03ZM34.04,37.24s.12,0,.12.02c-.18.13-.22.12-.12-.02ZM33.82,37.45c.03-.11.08-.15.15-.14.03.12-.02.16-.15.14ZM32.44,36.18c.14-.32.12.1,0,0h0ZM32.39,35.79c.02.08-.01.13-.08.17-.06-.06-.03-.11.08-.17ZM31.05,35.05c.19-.24.14-.03.3.06-.06,0-.47.16-.3-.06ZM29.07,35.13c.17.34,0,.03-.04.15-.06-.09-.05-.14.04-.15ZM28.49,35.49s-.08.04-.12.06c.04-.1.08-.12.12-.06ZM28.11,35.73s.05-.04.07-.06c-.02.04-.04.07-.07.06ZM27.17,36.9c-.14.08-.04-.09,0,0-.02.01,0-.02,0,0Z"/>
  <path class="cls-2" d="M38.58,26.24c.85-.2,1.62-.71,2.31-1.23-.02.09-.03.17-.03.26.04,0,.06-.03.08-.07-.15.26-.19.08-.51.21-.29.12-.22.4-.29.65-.02-.07-.16.56.15.42.05.18.03.66,0,.85,0,0-.21-.38-.14-.4-.18,0,.5,2.64.62,2.97,0-.11.02-.21.05-.31.07.08.14.14.23.19-.27-.08.39.85.52.96.06.06.51.42.49.12-.02-.27-.46-.3-.5-.57.27.18.21.14.43.2-.23.13.29.51.46.68-.09-.22-.21-.44-.33-.65.22.04.38.04.57.03,0,.17,0,.35.01.52,0-.06,0-.12,0-.18.02.09.06.14.13.17.07-.04,0-.28-.02-.34.23.39.4.13.64-.15.13.03.49-.12.14-.19.16-.28.43-.46.64-.69-.22-.13.11-.34.15-.61.04-.31.05-.67,0-.99-.03-.24-.09-.43-.08-.67,0-.06,0-.33-.08-.11,0-.31-.24-.58-.21-.87,0-.08.09-.53-.12-.4.1-.04.11-.63.09-.71-.02.07-.05.13-.08.19.03-.08-.05-.12.07-.22-.04-.09-.16.11-.34-.15-.14-.21-.28-.41-.41-.63.07.02-.22-1.05-.44-.78-.02.02.27.39.29.45-.13-.26-.47-.33-.72-.44.77-.65,1.66-1.36,2.06-2.31.11-.27.36-1.03-.03-1.21-.15-.07-.91.17-.91.24-.1-.18-.27-.32-.39-.49.04.05.08.1.12.15-.07-.07-.15-.13-.24-.17,0,0,.21.26.24.28-.12-.1-.33-.35-.47-.18-.14.17-.14-.04-.31.01.03.08.1.12.19.15-.06.15-.36.08-.46.07.25.24.05.06-.11.17-.16.11.12.38.17.44-.07-.04-.72.27-.53.32-.15.05-.11.34-.27.33-.13,0-.3-.02-.12.15-.12-.06-.36-.19-.49-.15.09.05.13.1.16.15-.06-.05-.11-.09-.17-.14.05-.05.14.38.03.53-.12.18-.09.09-.23.06-.29-.06-.45.16-.05.09-.17.05,0,.37-.12.47-.14-.18-.15.04-.14.12-.1-.1-.56-.35-.44.05-.13-.09-.09.02-.17.07.08,0,.16.02.23.05-.09.1-.21.13-.34.08.14.26-.4.26-.6.31,0,0-.22.29-.37.39,0-.07.01-.11.07-.12-.16-.26-.23.38-.54.3-.17-.04-.17.09-.11.21-.02.01-.24.08-.23.05.04.03.08.04.12.04-.1.08-.36.4-.51.33,0-.08-.04-.58-.17-.2-.08.23-.18.03-.28.26-.05.11.01.61.15.4.06-.08.1-.32.24-.19-.15.21-.28.3-.5.45.08.01.16.02.25.03-.35.94.87,1.02,1.48.88ZM43.24,20.35c.13.1.14.14.05.1-.16-.01-.05-.1-.05-.1ZM42.85,21.05c-.1-.06,0-.09,0,0-.01,0,0-.03,0,0ZM43.52,30.53l.07-.09c.23.05-.03.09-.07.09ZM40.38,25.9c.16.09.09.16,0,.26-.08.1-.05.14.09.14-.04.02-.08.05-.11.07-.13-.07-.04-.37.01-.47ZM40.5,25.66s.17.17.08.16c-.22-.02-.25-.08-.08-.16ZM40.63,25.42c.23.2-.38.22,0,0,.09.07-.04.02,0,0ZM42.22,21.35c.07.03.1.06.1.1-.04-.02-.08-.05-.1-.1ZM41.77,21.76s.03.04.05.05c-.02.02-.05-.05-.05-.05ZM41.9,21.76c-.06-.05-.1-.1-.14-.16.07.05.12.1.14.16ZM41.91,21.63s.07,0,.09.05l-.09-.05ZM42.11,21.6c-.05-.05-.1-.09-.16-.13.08,0,.13.04.16.13ZM42.44,20.93c.06.05-.44-.28-.17-.23-.05.05.15.2.17.23ZM42.37,20.72s.02,0,.07.02c.02.02.27.28-.07-.02ZM42.68,20.18l-.03.04c-.25-.15,0-.05.03-.04ZM42.76,20.79c-.13.06-.35-.23-.42-.23.04,0,.08.02.11.03.08.1.18.17.31.19ZM42.58,21.07c-.05-.06-.07-.18.06-.02l-.06.02ZM42.42,21.2s.17.04.11.1c-.04-.03-.08-.06-.11-.1ZM42.21,21.16c.09.06.17.12.25.19-.07.06-.19-.12-.25-.19ZM42.77,24.19c-.03.06-.03.12,0,.19-.03-.02-.24-.07-.19-.15.02-.02.2-.04.2-.03ZM42.99,30.51s-.05.06-.08.09c-.07-.07-.04-.1.08-.09ZM42.57,26.48c.24.48.41,1.03.39,1.58-.05-.42-.48-1.21-.39-1.58ZM42.34,24.04c.09,0,.21.1.12.19-.09-.04-.13-.11-.12-.19ZM42.3,28.06c.02.1.12.77.02.64-.05-.21-.04-.43-.02-.64ZM42.04,24.06s.03-.03.05-.05c.03.01.07.02.1.04-.05,0-.1,0-.15,0ZM41.22,29.95s.02.02.03.05c0,0-.02-.02-.03-.05ZM41.06,29.79s.08.02.09.07c-.03-.02-.06-.04-.09-.07ZM41.36,24.64c-.09.09-.17.18-.24.28.04-.13.12-.22.24-.28Z"/>
</svg>