<?xml version="1.0" encoding="UTF-8"?>
<svg id="Camada_1" data-name="Camada 1" xmlns="http://www.w3.org/2000/svg" viewBox="0 0 60 60">
  <defs>
    <style>
      .cls-1 {
        fill: #d7b980;
      }

      .cls-2 {
        fill: #9b8b5d;
      }

      .cls-3 {
        fill: #fff;
      }
    </style>
  </defs>
  <path class="cls-1" d="M22.46,54.44c.45.2.64-.15,1.06.15.19.14.62.28.8.03.21-.28.15.02.43-.06.12-.03.02-.22,0-.27-.18-.25-.27.04-.46-.03-.12-.04-.22-.21-.32-.29.51.14,1.03.27,1.54.38.58.13.02.73-.21,1.02.62.13,1.27.04,1.89.14-.32-.13-.24-.61-.2-.88.65.11,1.31.19,1.97.25.28.03.57.05.85.06.12.14.28.23.46.23.53,0,1.43-.44,1.66.31-.16,0-.31.02-.47.03.07.18,1.76.13,1.07-.56.36-.02.72-.04,1.08-.08.02.23.27.46.41.16.17-.37.97-.5,1,.09.08-.04.18-.02.26-.06-.04.52,1.46-.22,1.68-.32.55-.24,1.22-.02,1.8-.23.29-.1.49-.27.7-.5.2-.22.54-.27.32-.56.14-.05.27-.1.41-.16.16-.14.28-.11.35.1.17-.08.34-.13.51-.21.35-.17.5-.45.87-.63,0,.26-.74.63-.92.76-.12.09-.94.34-.98.46-.11.33,1.32-.2,1.39-.23.12-.06.24-.12.37-.16.04.12.12.19.24.2.18-.02.3-.25.4-.37.78-.82,1.42-1.82,2.39-2.28,1.65-.82,3.14-2.35,4.38-3.69,2.75-2.98,4.76-6.6,5.79-10.53.58-2.23.85-4.55.81-6.86.25-.48-.03-.94-.07-1.43-.02-.34-.06-.67-.07-1.01-.17-.31-.13-.88-.18-1.23-.09-.55-.19-1.09-.31-1.63.08-.58-.13-1.14-.22-1.7-.06-.36-.39-.6-.42-.91-.1-.93-.56-1.68-1-2.49-.55-1-.51-2.12-1.02-3.11-.25-.49-.54-.94-.83-1.41-.01.27-.47.45-.63.2-.13-.2-.08-.63-.16-.87-.08-.24-.17-.48-.25-.72-.14.16-.29.32-.45.47-.07-.09-.14-.18-.22-.27.19-.07.74-.14.61-.41-.1-.23-.31-.4-.48-.58-.23-.24-.54-.91-.88-.57.08-.41-.43-1.1-.81-1.23-.26-.09-.39.28-.63-.01-.08-.1-.15-.21-.24-.31-.52-.61-1.1-1.03-1.74-1.51.25.08.99.76,1.16.67.43-.23-.47-.88-.66-.98-.48-.26-1.09-.18-1.61-.37-.14-.46-.64-.81-1.02-1.05.14.55-.62.16-.28.65-.41-.24-.73-.46-1.07-.86-.34-.41-.82-.65-1.17-1.06-.15-.18-.54-.36-.56-.52-.01-.12-.13-.25-.22-.33-.3-.26-1.22-.24-1.61-.29-.47-.07-.91-.15-1.35-.31-.5-.19-1.07-.45-1.59-.16-.16.09-1.38-.12-1.15.36-1.86-.3-3.74-.37-5.62-.27-.95.05-1.9.17-2.84.32-.01-.23-.86-.02-.99.04.04-.08.2-.54.12-.61.12.1-.9.4-.96.41-.41.05-.74.41-1.11.42.17.23-.18.12-.28.13-.43.06-.83.03-1.26,0,.21-.14.49-.15.69-.31.33-.27-.73-.19-.77-.18-.87.23-1.48.8-2.39.65-1.02-.17-1.86.8-2.68,1.27-.83.48-1.51,1.16-2.36,1.63.67.22-1.15,1.15-1.17,1.2-.47.99-2.07,1.18-2.07,2.43,0,.33.17.05.28.22-.09.19-.22.24-.39.15-.11-.08-.18-.08-.22,0-.13.19-.27.38-.41.57-.17.23-.97,1.07-.68,1.17-2.37,2.97-3.93,6.54-4.6,10.28-.07.37-.4.87-.34,1.27.26.26.11.46.5.39.36-.06.29-.07.32.3.03.37-.12.48-.51.32-.02.15-.06.28-.12.41-.07.15-.93,1.27-.63,1.44.18.1.74.05.51.46-.09.16-.39-.17-.44-.24-.02.66-.09,1.31-.07,1.97.24-.23.42.33.58.1.06-.09-.17-.19-.04-.26.17-.1.28-.13.38-.34-.02.31-.04.63-.06.94-.26-.04-.68.03-.87-.22,0,.49-.2.87.09,1.32.06.1.29.51.45.44.15-.07.08-.35.29-.33,0,.37,0,.74,0,1.11-.26-.02-.51-.06-.74-.19.04.5.13,1,.22,1.5.08.4.07.3.41.37.36.08.17.53.27.78.04.37.17.57-.3.58.05.18.04.38.12.55.16.33.34.03.42.45.03.17.06.33.1.5-.07.07-.1.15-.09.25.05.22.23.37.29.61.32,1.23.79,2.41,1.42,3.51.49.86,1.07,1.68,1.61,2.49.07.1.3.59.47.55.31-.08,1.05.91,1.32,1.16-.16.17-.48,0-.67,0,.21.3.41.61.64.89.29,0,.58.06.88.02-.16.46-.26.66.09,1.01.24.24.28.42.59.3-.15.15-.05.24.07.35.15-.27-.15-.39.27-.42.32-.02.64.08.96.1-.18.32-.65.83-.37,1.06.38.33.59.22,1.06.1.22-.05.36-.21.5-.37.15.1.3.19.45.28-.09.17.07.42.03.6-.2-.09-.52-.56-.78-.35-.31.26.25.61.44.72.25.15,0,.4.36.59.29.15.62.18.94.2.34.02.75.06,1.07.18.3.11-.12.44,0,.53.35.27.7.52,1.07.76.11-.42.4-.82.47-1.24.5.25.13.43.06.91-.06.42.36.16.52.04.47-.35.52.34.99.18.31-.11.28-.28.62-.14.22.09.45.18.67.26-.15.23-.74-.12-.83.13-.06.17.45.4.55.44.28.14,1.2.23.46.63.15.03.88.33.82.06ZM39.89,5.75c-.31-.13-.62-.28-.96-.35.37.03.73.1,1.1.15-.1.03-.14.09-.14.2ZM4.97,28.48c.34.17.28.15.24.55-.22-.1-.12-.39-.24-.55ZM15.14,9.1c-.76.49-1.49,1.02-2.18,1.59-.13-.49.97-.89,1.35-1.12.26-.17.53-.37.84-.48ZM22.1,5.81c-.77.2-1.2.46-1.95.75-1.05.4-2.08.87-3.08,1.4-.2.11-.97.44-.92-.15.02-.19,0-.17.19-.09.34.15.42.34.72.09.68-.55,1.56-.9,2.43-1-.26-.11-.49-.22-.71-.4.29-.2.63-.08.95-.06.27.02.44-.16.68-.23.56-.13,1.11-.32,1.69-.3ZM44.72,8.91c.32.07.65.14.97.21-.13.05-.25.1-.38.15-.24-.05-.4-.2-.59-.36ZM46.49,10.26c.25-.11.51.19.66.34-.28.14-.44-.16-.66-.34ZM15,49.95c.32.2.65.39.98.58-.33-.07-.96-.12-.98-.58ZM20.46,52.8c-.09-.12-.38.11-.52.05-.17-.09-.27-.26-.33-.44.28.13.57.25.85.39Z"/>
  <path class="cls-2" d="M40.72,22.93s-.22.71.13.55c.05.18.03.66,0,.85,0,0-.21-.38-.14-.4-.18,0,.5,2.64.62,2.97,0-.11.02-.21.05-.31.07.07.14.14.22.19-.27-.06.4.85.53.96.06.05.51.42.49.12-.02-.27-.46-.3-.5-.57.27.18.21.14.43.2-.23.13.29.51.46.68-.09-.22-.21-.44-.33-.64.22.04.38.04.57.03,0,.17,0,.35.01.52,0-.06,0-.12,0-.18.02.08.06.14.13.17.07-.04,0-.29-.02-.34.23.39.41.14.64-.15.13.03.49-.12.14-.19.16-.28.43-.46.64-.69-.22-.13.11-.34.15-.61.04-.31.05-.67.01-.99-.03-.24-.09-.43-.08-.67,0-.06,0-.33-.08-.11,0-.31-.24-.58-.21-.87,0-.08.09-.53-.12-.4.1-.04.11-.63.09-.71-.02.07-.05.13-.08.19.03-.08-.05-.12.07-.22-.04-.09-.15.11-.34-.15-.14-.2-.28-.41-.41-.63.07.02-.09-.47-.08-.44-.09-.12-.03-.2.18-.26.48-.38,1.52-.96,1.55-1.65.02-.5-.41-1.03-.92-1.03-.33,0-.58.24-.82.42-.39.3-.15-.16-.41-.04-.06.03.13.2.17.22-.27.2-.77.76-1.1.79-.13.01-.41-.03-.47.13-.09.23.18.17-.08.36-.1.08-.28.28-.43.22-.06-.02-.48-.2-.24.04,0,0-.11.34-.26.46-.13.09-.54.24-.8.2.11-.05.22-.08.34-.07-.18.02-.44-.05-.57.13-.12.17-.04.27-.25.38.03.04.08.07.13.08-.09,0-.17-.04-.24-.11.06.01.05-.14.02-.16-.06-.06-.25.16-.27.1.03.08.08.14.14.19-.06.02-.48.14-.5.07.12.46-.69-.17-.85.27-.06.16-.28.57-.45.25.06.09,0-.32-.08-.22-.02.08-.01.16.04.24-.32-.02-.08.26-.03.19-.02.21,0,.43-.02.65,0-.07,0-.13,0-.2.04.21-.51.66-.25.81,1.07.61,2.5-.14,3.45-.64ZM38.32,22.19s.05.06.08.1c-.04.07-.07.03-.08-.1ZM38.25,22.36c-.03-.14.01-.02.04,0h-.04ZM37.6,22.89c0-.07,0-.14-.01-.21.08.09.08.17.01.21ZM37.65,22.6c-.03-.16-.03-.2.03-.11.12.1-.03.11-.03.11ZM38.35,21.93c-.09.03-.26.12-.28.13-.06-.2.17-.14.28-.13ZM38.51,22.1s-.09-.09-.06-.06l.06.06ZM40.11,21.22s.05.06.04.09c-.03-.03-.07-.08-.04-.09ZM40.94,23.16c-.08.1-.05.14.09.14-.25.1-.21-.22-.1-.4.16.09.09.16,0,.26ZM43.12,23.48c.25.48.41,1.03.39,1.58-.05-.42-.48-1.21-.39-1.58ZM42.85,25.07c.04.23.07.46.07.7-.14-.16-.08-.51-.07-.7ZM43.25,21.36c.06-.05.11.05,0,0,.01-.01.03.01,0,0ZM42.16,19.79c-.07.1-.1.1-.1.01.03,0,.07,0,.1-.01ZM43.66,21.21s-.06-.07-.09-.1c.05.04.08.09.09.1ZM44.07,27.53l.07-.09c.22.05-.03.09-.07.09ZM43.55,27.52s-.05.06-.08.09c-.07-.07-.04-.1.08-.09ZM41.78,26.96s.02.02.03.03c0,0-.01-.01-.03-.03ZM41.62,26.79s.08.02.08.06c-.03-.02-.05-.04-.08-.06ZM40.98,22.8c.28-.15.09.03.15.04-.05-.01-.1-.02-.15-.04Z"/>
  <path class="cls-2" d="M14.58,17.9c.06.51.64.95.97,1.31.39.41.79.81,1.2,1.2-.09.08-.17.17-.22.27.07-.08.23-.15.33-.18-.14.18-.3.38-.51.5.11.14.1,0-.05.25-.06.11-.01.08-.08.25.12.06.22-.19.33-.28-.15.38-.13.39-.49.52-.28.1-.26.4-.33.64-.01-.07-.22.56.11.44.05.21-.14.42-.1.65.08.08.1.17.05.26,0,0-.18-.46-.12-.46-.23,0,.04.89.02,1.02-.08.5-.12,1.02-.06,1.52.03.21.82,2.09,1.07,1.91.1-.13.09-.25-.03-.38.21.07.28.54.35.73,0-.22-.02-.45-.07-.66.42.07.92.06,1.3-.15.05.12.11.24.15.36-.16-.46.01.07.12-.05.05-.06-.1-.27-.13-.31.22.19.3.2.46-.07.16-.27.22-.13.38-.32,0-.08-.05-.11-.16-.08.11-.28.38-.44.58-.64-.22-.14.22-.36.22-.67,0-.28.09-.55.13-.84.01-.09.14-1.03.03-.83.04-.33-.15-.64-.12-.95.75.46,1.61.86,2.5.85.24,0,.76-.13.46-.48-.12-.14.11-.29.21-.43-.05.04-.08.09-.11.15.05-.08.08-.17.11-.26,0,.02-.19.23-.23.28.07-.15.26-.4.04-.51-.22-.1,0-.15-.11-.31-.07.05-.1.12-.1.22-.18-.03-.2-.33-.23-.45-.16.29-.05.06-.21-.07-.16-.13-.35.18-.41.27.02-.09-.52-.64-.51-.46-.1-.13-.39-.04-.44-.2-.04-.13-.08-.31-.19-.09.02-.13.07-.41,0-.53-.02.11-.06.15-.1.19.03-.07.06-.14.09-.2-.09.03-.15.1-.16.21-.13,0-.25-.02-.37-.07-.22-.09-.11-.15-.16-.34-.03-.12-.12-.28-.24-.12-.03.04.13.17.15.2-.05-.08-.34-.06-.45-.15-.08-.06-.15-.12-.22-.19.08-.2.04-.38-.2-.24.02-.08-.13-.3-.11-.03-.18-.16-.36-.31-.53-.47.02-.1,0-.16-.09-.2-.17-.09.07-.13-.13-.18-.21-.05-.2,0-.38-.19.05-.01.07,0,.08.04.21-.22-.25-.21-.36-.32-.06-.07-.1-.29-.17-.32-.17-.07-.43-.13-.33-.4.03-.08.06-.22.02-.3.04.08-.12.28-.11.39-.19-.21.1-.36-.24-.4-.2-.03-.48-.41-.63-.59-.56-.67-1.53-.01-1.44.75ZM21.88,22.3c.03-.11.07-.21.13-.29.09.02-.08.24-.13.29ZM21.99,22.39c.03-.07.06-.13.09-.2.04,0-.08.19-.09.2ZM22.13,22.5c.03-.12.05-.23.07-.35.05-.09-.06.32-.07.35ZM22.74,22.39l-.05-.02c.08-.28.05-.02.05.02ZM22.65,22.99s.06-.04.1-.01c-.02.1-.05.1-.1.01ZM19,26.92l.05-.09c.22.03-.01.08-.05.09ZM15.98,22.22c.14.11.08.17-.01.27-.09.1-.06.14.09.14-.04.02-.09.04-.13.07-.12-.09,0-.39.05-.48ZM16.02,22.07c.16-.23.17.1.17.1-.1.02-.16-.02-.17-.1ZM16.28,21.76c.23.24-.43.16,0,0,.03.03-.05.02,0,0ZM16.42,21.24c-.05-.1.04-.13.06-.18.04-.09-.03.14-.06.18Z"/>
  <path class="cls-2" d="M21.48,38.75c-.03.46-.09.97.42,1.18.07.42.43.52.8.58.26.04.52.08.78.1-.01,0,.54.16.47.21-.03-.06-.06-.12-.1-.18.04,0,.74.1.65.17.18-.15.25-.13.56-.13.17,0,.34,0,.52,0-.07.38.34.29.14,0,.2,0,.41-.09.51.09.02.06.07.11.13.12.04-.08.04-.16-.02-.23.34-.01.67-.06.99.03.3.09.43-.1.72-.11.13,0,1.32.06,1.3.09.17-.2-.32-.13.32-.12.19,0,.38,0,.57.01.47.02.93.08,1.39.12.07,0,1.42.02,1.41.09,0-.12.98-.07,1.17-.07.36-.01.5.13.83.25.27.07,1.15-.88,1.37-.38-.06-.1-.14.29.03.3.15,0,.07-.27.05-.31.15.02.52.11.29-.24.34-.11.29-.42.44-.54.07-.05-.21-.26-.18-.35.69.13.25-.66.52-1,.18-.22.22-.45-.14-.25-.1-.47.06-.93.14-1.39-.08,0-.15.03-.22.07.03-.31.03-.67-.12-.96-.07-.13-.18-.24-.33-.29-.27-.08-.25-.25-.37-.51-.05-.11-.52-1.55-.7-1.57-.05.04-.06.1-.04.16-.23-.54-.75-1.11-1.08-1.59-.18-.26-.21.07-.29-.4-.04-.22-.08-.5-.23-.68,0,.11.01.23,0,.35-.01-.16-.17-.12-.04-.38-.14-.13-.23.14-.26.22-.47-.27-1.18-.5-1.48-.93-.1-.14-1.08-1.03-1.17-.56,0,.12.67.24.75.35-.39-.23-1.18-.36-1.64-.38-.38-.02-1.26-.09-1.55.19-1.14.32-2.19.93-3.13,1.63,0,0-1.09.84-1.19.88-.27.11-.38.53-.57.74-.16.18-.32.36-.47.55-.15.19-.47.34-.54.59-.06.23-.12.36-.25.58-.1.16-.49.99-.64.74-.11.18-.29.29-.39.48.1-.18.46-.25.61-.39-.08.18-.15.36-.22.54-.48-.38-.28.96-.32,1.03-.34.15-.18,1.19-.2,1.48ZM37.42,38.25c.34-.17.06.13.02.17l-.02-.17ZM36.89,36.08c-.1-.09-.11-.17-.03-.22.01.07.02.14.03.22ZM37.06,36.76c-.07-.08-.07-.16-.01-.22.15-.03.03.18.01.22ZM35.1,40.64c.14-.01.28-.04.42-.06-.04.14-.25.11-.42.06Z"/>
  <path class="cls-3" d="M25.43,34.71s-.09-.01-.13-.02c.02-.08.24-.22.31-.27-.09.05-.14.12-.16.21.16.03.57,0,.54,0,.24,0,.45,0,.67,0,.03-.09-.39-.08-.46-.14h.45c.23,0,.25.16.47.24.24.08.59.09.84.04.18-.04.05-.15.22-.14.19.01.38.07.57.04.06-.01.53-.35.6-.11-.08,0-.82.19-.82.17,0,.2.91-.09,1.04-.09.09,0,.91.31.68-.09.16,0,.31.11.47.12.18.02.31-.11.51-.08.18.02.43,0,.63.06-.06.02-.35-.04-.32.11.03.16,1.63-.12,1.61-.17-.12-.26-.7.1-.91-.04.17-.25,1.53.18,1.25-.26.08.03.19.06.27.09-.17-.07.1-.23-.27-.21.25-.07.16-.19.03-.38.01.02-.26-.48-.24-.48-.06.16-.12.13-.2-.07-.04-.06-.08-.12-.11-.18-.01-.02-.24-.58-.28-.32-.13-.22-.55-.74-.86-.49-.05-.25-1.05-.66-1.32-.68-.05.02-.03.04.05.07-.17-.05-1.49.07-1.45.11-.18-.07-.51-.04-.69.02.48,0-.08.07-.08.07.04.24-.63.59-.94.72-.07.03-.66.29-.55.42.02.02.36-.26.41-.28-.46.29-.63.91-1.08,1.06-.44.15-.67.59-.93.92.03,0,0,.02.19.02ZM26.71,33.47s-.02-.1,0-.12c.04.05.04.09,0,.12ZM27.36,32.95c-.04.07-.09.13-.17.17,0-.05,0-.09,0-.14.06.01.11,0,.17-.03ZM29.8,31.8c0,.09-.01.11-.06.05l.06-.05ZM30.05,31.88c-.06-.05-.06-.1,0-.15.07.06.07.11,0,.15ZM30.29,31.88s-.04-.05-.06-.07c.07-.01.15.12.06.07ZM30.59,31.97c-.03-.06-.02-.1-.05-.15.09.02.11.07.05.15ZM31.09,32.13s-.02-.06.02-.07c.04.06.04.08-.02.07ZM31.4,32.29c-.12-.06-.09-.1,0-.18,0,.06,0,.12,0,.18ZM31.61,32.41s-.04-.02-.06-.05c.02-.07.05-.05.06.05ZM32.03,32.64s-.06-.06-.09-.08c.04-.02.2.05.09.08ZM32.19,32.45c-.17-.12,0,.03-.18.04-.02-.07,0-.12.06-.15.04.04.08.08.12.12ZM32.3,32.63s-.17.11-.03-.06c.03.01.04.03.03.06ZM32.47,33.07s-.03-.03-.04-.04c0-.02.05.04.04.04ZM32.51,32.99c-.05-.11-.07-.23-.07-.35.09-.07.08.37.07.35ZM33.3,33.54l-.07-.08c.06-.16.07.05.07.08ZM33.24,33.96s.11.11.12.12c-.07.02-.11-.02-.12-.12ZM29.74,34.57c.2,0,.31-.08.44.08-.15-.01-.29-.04-.44-.08ZM29.44,34.49c-.05.03-.11.02,0,0-.01,0,0,0,0,0ZM27.47,34.61c.08-.14.3-.04.38-.11.03.03.06.06.1.09-.08.11-.37.04-.48.03ZM27.21,34.56s.11-.1.15-.07c.02.15-.03.17-.15.07ZM27.15,34.52c0,.14-.17.03-.22,0,.04-.05.17-.05.22,0ZM26.31,34.58c-.13.06-.19.02-.25.02-.12,0,.19-.03.25-.02Z"/>
</svg>