<?xml version="1.0" encoding="UTF-8"?>
<svg id="Camada_1" data-name="Camada 1" xmlns="http://www.w3.org/2000/svg" viewBox="0 0 60 60">
  <defs>
    <style>
      .cls-1 {
        fill: #92a26e;
      }

      .cls-2 {
        fill: #b6bd79;
      }
    </style>
  </defs>
  <path class="cls-2" d="M55.49,35.21c.07-.28.12-.57.16-.86.04-.25.17-.58,0-.81-.12-.17-.09-.29-.05-.49.06-.28.12-.6-.1-.83-.23-.25-.29-.03-.26-.46.04-.65.12-1.29.12-1.94.22.27.24.79.68.79,0-.46,0-.93,0-1.39,0-.34.13-.78-.21-.84-.35-.06.03-.83.15-.61-.06-.7-.12-1.39-.23-2.09-.03-.18,0-.71-.2-.81-.14-.07-.16-.19-.14-.34.08-.77-.2-1.56-.46-2.3-.53.27-.61-.58-.76-.92-.18-.4-1.04-1.4-.64-1.77-.18.3.35.8.5,1.01.18.24.16.59.33.84.15.22.23-.21.24-.27.06-.34-.06-.68-.28-.94-.1-.14-.47-.82-.7-.72.48-.36-.3-.97-.56-1.25-.52-.59-.97-1.25-1.19-2.01-.21-.71-.78-1.48-1.3-2.01-.23-.24-.48-.18-.65-.51-.14-.28-.41-.52-.64-.73-.62-.55-1.35-.94-1.97-1.48-.54-.47-.84-1.09-1.29-1.64-.5-.61-1.28-1.01-1.91-1.47.12.32-.44.72-.6.38-.25-.49-.64-.88-.98-1.3-.11.31-.22.61-.38.89-.13-.08-.26-.15-.39-.23.23-.25.98-.65.54-.94-.23-.15-.51-.21-.75-.34-.3-.14-.75-.59-.94-.16-.08-.49-.64-.66-1.05-.84-.33-.14-.29.05-.54.19-.2.11-.37-.1-.52-.19-.76-.45-1.57-.7-2.42-.94.36-.03.72.01,1.03.21.15.09.41.23.43-.1.03-.39-1.04-.63-1.31-.61-.5.03-1.23.43-1.62.06-.33-.31-.85-.45-1.28-.54.22.34-.05.35-.25.51-.07.06.17.16.05.14.49.4-.25.27-.48.23.06-.09.13-.17.21-.25-.59-.03-1.03-.51-1.58-.68-.31-.1-1.62-.48-1.68-.67-.16-.51-.98-.2-1.28-.13-.52.11-1.04.18-1.56.29-.42.09-.84.07-1.27.09-.56.03-.76.31-1.22.51-.26.11-.86.28-.93.6-.62.09-1.23.22-1.83.38-.39.1-.91.26-1.43.44-.38.13-1.53.81-1.84.68-.61-.26-1.82.94-2.14,1.26-.48.3-1.03.21-1.54.46-.5.26-.76.76-1.13,1.16-.46.5-1.04.9-1.46,1.44-.39.5-.81,1-1.32,1.4.45.06-.37.82-.5.99-.33.2-.39.35-.61.61-.27.32-.44.82-.77,1.08-.27.22-.56.27-.74.61-.14.27-.38.86-.22,1.16.2.38-.25.15-.37.37-.35.62-.71,1.24-1.03,1.87.14.05.36.11.49-.02-.13.32-.48.46-.71.7-.21.22-.32.5-.42.78-.26.67-.36,1.38-.7,2.02-.16.31-.18.53-.12.87.05.25-.1.5-.03.75.07.27-.62,1.45-.25,1.58-.19-.03-.58,1.29-.63,1.46-.15.57.18,1.17.39.32.21.38.26.46.22.94-.37.01-.53-.12-.59.29-.03.19-.06.39-.08.59-.05.42-.27.89.22.97-.25.52-.37.89-.36,1.46,0,.29-.04.34.17.52.3.27.2.26.61.12.01.24.03.48.05.73-.26-.07-.34.01-.26.25-.01.15-.05.3-.1.44-.06.18-.13.36-.19.54-.07.22-.24.61-.12.83.14.26.81-.2.71.4-.04.22-.44-.07-.52-.13.15.69.23,1.38.4,2.06.2-.31.33.13.56.03.18-.08-.05-.19-.06-.27.04-.08.1-.14.18-.18.05.23.11.46.16.69-.24.03-.58.13-.79-.04.11.48,0,.95.37,1.32.13.13.32.37.52.39.2.03.11-.33.24-.4.11.38.23.75.36,1.12-.29.04-.58.06-.86-.03.18.52.36,1.05.57,1.56.21.5.48.02.75.37.15.2.26.69.36.93.11.25-.18.34-.37.39.11.22.15.55.4.66.39.17.63-.37.85.06.23.43-.41.5-.33.95.05.25.38.37.55.52.24.19.55.63.84.72.42.13.61.6.87.98.43.61.88,1.2,1.35,1.76-.26-.03-.52-.05-.77-.08.22.3.44.61.67.9.24.32.25.51.59.28.7-.46.34.32.36.7.02.25.41.55.56.72.27.29.3.3.66.1-.28-.1-.24-.35-.13-.58.46.43.94.84,1.43,1.24.24.61-.17.5-.61.55.14.14.27.29.41.42.26.21.36.37.7.31.23-.04.46-.08.69-.14-.04.28-.2.7.09.9.3.23.62.52.93.31-.12.19.01.26.16.34.03-.12,0-.29-.07-.39.19-.11.4-.16.62-.18.51-.06.58.2.46.61-.09.3-.29.39.05.55.32.15.38.2.68.03.21-.12.48-.2.64-.38.16.07.31.15.47.22-.18-.09-.43-.09-.45.18-.02.25.51.45.69.5.26.07.06.32.29.42.32.14.67.1,1.01.05.22-.03,1.55-.32,1.57.03.02.45.03.37.49.55.27.11.54.21.82.28,0-.2,0-.41.04-.61.28.06.33.02.45.25.07.1.15.1.25.02.26-.18.67-.02.99.03.79.11,1.58.17,2.37.2-.02.11-.08.2-.15.28.18-.02.99.04.86-.19.45.06.99-.1,1.46-.12.62-.03,1.24-.09,1.86-.17-.05.12-.1.25-.15.37.67-.09,1.3-.36,1.97-.46-.13,0-.22-.07-.29-.18.94-.19,1.87-.43,2.78-.72.39-.13,2.11-.95,2.3-.67-.15.07-.3.14-.46.2.3.39,1.25-.73,1.45-.83.25-.12.95-.25.98-.5.36-.19.86-.73,1.06-.23.25-.25.22.03.45.02.3-.02.58-.33.79-.52.22-.2.46-.44.71-.59.27-.22.76-.26,1.08-.42.28-.14.55-.3.79-.51.27-.24.34-.61.54-.9.22-.32-.06-.2-.23-.46.3-.27.39-.58.72-.28.23.2.3.02.49-.12.21-.16.42-.34.45-.62.04-.3-.08-.5.14-.73.43.46.02.76-.3,1.18-.13.17-1,.8-1,.97,0,.29,1.12-.46,1.19-.52.25-.23.34-.46.63-.33.14.06.23-.03.29-.14.45-.85.65-1.96,1.29-2.69-.35-.17.24-.54.37-.64.4-.29.68-.75.96-1.14.69-.99,1.3-2.06,1.83-3.14.12-.26.25-.52.38-.77,0-.02.23-.65.15-.61.29-.19.7-1.14.74-1.5.04-.37.11-.45-.3-.7-.26-.16-.16-.43.14-.38.14.03.31.05.44-.04.46-.33-.23-.98.07-1.43.2-.3.02-.78.23-1,.17-.19.46-.03.53-.33Z"/>
  <path class="cls-1" d="M22.14,38.24c1.81.78,4.18.6,6.09.49,2.09-.12,4.19-.37,6.29-.21.61.04,1.46.32,1.72-.45.17-.5-.04-1.13-.53-1.35.1-.1.21-.21.31-.31-.05.04-.1.09-.15.14.05-.08.09-.17.11-.26,0-.03-.26.24-.28.27.12-.25.25-.42-.08-.53-.03-.01-.37-.33-.33-.34-.05.07-.06.15-.04.24-.27-.01-.44-.28-.61-.45-.08.33-.16,0-.44-.02-.22-.01-.31.22-.35.4-.04-.14-.58-.17-.75-.23-.07-.02-.48-.17-.28.03-.29-.07-.52.18-.8.03-.12-.07-.29-.14-.24.09-.1-.15-.3-.39-.48-.43.04.06.08.13.12.19-.02-.03-.12-.06-.15-.2-.08.07-.08.16,0,.27-.08.03-.17.07-.25.1-.16.06-.33.1-.51.11.04-.07-.28-.2-.31-.21-.11-.04-.34-.09-.32.1,0,.05.32.03.37.05-.25-.04-.36.32-.6.33-.02-.27-.26,0-.29.05-.07-.09-.27-.38-.41-.4-.19-.03-.16.14-.33.12-.07.01-.13.03-.19.05.1.04.19.09.27.16-.17.02-.39.04-.53-.1-.03.22.11.13-.12.13-.09-.02-.12.02-.11.09-.13-.07-.12.03-.28.04-.03-.1-.09-.18-.16-.26-.15-.13-.83-.17-.71.22-.12.07-.31-.09-.44-.08-.25.02-.05.18-.42.18.04-.03.52-.33.52-.29,0-.4-.62.19-.78.18-.19-.02-.62-.6-.52.12-.18,0-.19-.15-.34-.21-.13-.04-.16.21-.32.17-.1-.03-.46-.13-.53-.2.05-.04.46-.08.23-.3-.1-.09-.33.07-.42.1,0,0-1.06-.15-.74.29-.04,0-.08,0-.13-.01-1.18-.17-1.99,1.54-.76,2.07ZM23.25,36.22c.16-.04.33-.12.39.02-.14,0-.26,0-.39-.02ZM25.48,36.33c-.2,0-.29.06-.29-.14.11.02.21.07.29.14ZM27.24,36.23c-.02.09-.25.05-.35.05.05-.13.25-.09.35-.05ZM27.39,36.26s-.05,0-.07,0c0-.06.03-.06.07,0ZM28.06,36.22s.07-.05.12-.03c0,0-.09.03-.12.03ZM32.5,36.12c-.1.02-.11-.04-.04-.17.01.06.03.11.04.17ZM32.6,36.08s.1.12,0,0c.02-.01,0,0,0,0ZM32.9,36.15c-.08,0-.05-.1-.07-.17.08.02.1.07.07.17ZM34.5,36.37l.06.02s-.04,0-.06-.02ZM33.27,36.18c0-.15.1,0,0,0,0-.02.02,0,0,0ZM33.51,35.98c.03.08.1.24-.03.22,0-.08.01-.15.03-.22ZM33.73,36.24s-.04,0-.05,0c0-.08.02-.07.05,0ZM34.02,36.22c.02-.08.16-.15.09.04l-.09-.04ZM34.16,35.77c-.13-.01-.06.16-.12.27-.03-.11-.03-.22,0-.32.04.02.08.04.12.06ZM34.3,35.93s-.09.38-.04-.07c.02,0,.04.01.04.07ZM34.56,36.24c-.13-.06-.1-.48-.11-.49.03.04.06.08.07.12-.06.13-.04.25.04.37ZM35.37,35.95l-.08-.02c0-.29.07-.02.08.02ZM35.56,36.58c-.01.08-.05.1-.12.04-.05-.12.09-.04.12-.04Z"/>
  <path class="cls-1" d="M38.1,27.27c.94-.48,1.81-1.09,2.66-1.7.24-.17,2.54,2.05,2.97,2.31.56.35,1.2.61,1.87.59.28,0,.55-.29.44-.58-.13-.36-.32-.4,0-.64-.06.03-.11.06-.16.11.07-.07.13-.15.17-.24,0-.03-.27.18-.29.19.13-.17.32-.32.1-.48-.24-.18.01-.16-.1-.37-.08.02-.13.09-.14.19-.2-.09-.2-.38-.23-.56-.21.24-.09.08-.23-.11-.12-.17-.31-.07-.43.04-.18-.19-.39-.34-.52-.57-.09-.15-.46-.33-.69-.52-.08-.22-.16.01-.15-.3,0-.09,0-.18-.03-.27-.02.07-.04.14-.06.21,0-.01-.02-.13.05-.23-.04-.03-.17.2-.36.13-.11-.09-.22-.18-.33-.27,1.25-.95,2.44-1.97,3.51-3.13.34-.36.8-.82.4-1.32-.32-.4-.78-.28-1.11.03-.03-.08-.1-.22-.13-.3.16.4.01.02-.12-.03-.02,0,.12.31.14.35-.15-.18-.27-.4-.49-.19-.04.04-.42.1-.41.07.04.07.1.13.18.16-.14.19-.43.16-.63.17.2.26,0,.1-.22.24-.2.14-.06.39.05.54-.17-.1-.36.19-.53.26-.07.03-.56.2-.28.24-.26.11-.25.44-.55.48-.14.02-.29.06-.12.2-.16-.06-.44-.15-.6-.08.07.03.14.06.2.09-.02,0-.13,0-.22-.08-.01.1.04.18.15.22-.08.15-.17.29-.28.41-.22.24-.16.1-.43.12-.38.03-.79-.49-1.09-.75-.19-.17-.7-.81-.99-.82-.15-.12-.49-.28-.46-.49,0-.07-.03-.24-.09-.3,0,.11,0,.22-.02.33-.14-.11-.07-.25-.18-.29-.17-.06-.23-.01-.39-.13-.11-.23-.8-.61-1.05-.68-.57-.16-1.08.31-1.2.85-.21.94.79,1.35,1.4,1.82.85.65,1.65,1.36,2.44,2.07-.11,0-.14.01-.09.05-.12.13-.25.12-.37-.04-.17-.04-.22.11-.36.16,0,0-.39.08-.13.35-.06.1-.29.07-.39.12-.15.08-.05.17-.23.27.53-1.1-.2.17-.45.07-.48-.19-.24.28-.46.38-.25-.08-.61.47-.89.35.33-.62-.16-.09-.38-.1-.44-.01-.4.7-.67.86-.01,0-.05.67.19.85.81.61,2.04.06,2.82-.34ZM37.38,25.48c-.38.18-.02.03-.16.02.05,0,.11-.01.16-.02ZM38.93,24.63c-.08.05-.16.09-.23.14.03-.09.16-.13.23-.14ZM41.14,22.78s-.04.04-.07.04c.04-.02.07-.04.07-.04ZM43.06,21.82c-.06.08-.1.04-.13-.09.04.03.09.06.13.09ZM43.16,21.73s-.02.01-.05,0c0-.02.03-.02.05,0ZM43.35,21.58s-.08-.02-.13-.05c.05-.04.09-.02.13.05ZM43.82,21.2c-.07.06-.11-.05-.15-.11.05.03.1.07.15.11ZM44.04,20.77c-.1-.05-.18-.13-.24-.22.04-.01.08-.03.11-.04-.08.08.09.16.12.26ZM44.04,20.51s.03-.01.08.02c.02.02.23.31-.08-.02ZM44.51,20.54c-.13.07-.41-.24-.44-.23.05,0,.09.01.13.03.07.12.17.19.31.21ZM44.67,19.77l-.05.05c-.24-.16.01-.06.05-.05ZM44.23,20.86s-.04.04-.06.06c-.04-.06-.01-.18.06-.06ZM44.91,26.16c-.14-.11,0,.02-.05-.1.02.03.03.07.05.1ZM45.7,26.71l-.05-.04c.12-.26.06,0,.05.04ZM45.12,26.25s0,.09,0,.13c-.16.02,0-.15,0-.13Z"/>
  <path class="cls-1" d="M13.27,27.35c.64.07,1.29-.15,1.85-.45.61-.31,1.17-.72,1.71-1.14.21-.16.42-.33.64-.49.48-.37.42-.43.83.04,1.06,1.18,2.16,2.33,3.4,3.31.42.33,1.09.2,1.3-.31.2-.46-.32-.71-.21-1.03,0,0-.14.07-.18.02.2-.22.12-.26-.06-.45.01-.03.11-.27.06-.28-.07.04-.12.1-.15.18-.18-.12-.14-.41-.14-.59-.25.22-.08.02-.22-.17-.14-.18-.39.01-.51.11.05-.09-.46-.86-.49-.68-.13-.22-.43-.18-.46-.45-.02-.14-.06-.26-.19-.09.05-.15.13-.43.07-.58-.02.07-.05.14-.08.2,0-.01,0-.13.07-.22-.1,0-.17.06-.21.17-.14-.05-.27-.12-.4-.21-.23-.16-.11-.14-.14-.36,0-.08-.04-.32-.18-.31-.21.03.03.24.06.32-.14-.27-.58.04-.11-.38.29-.26.57-.52.86-.77.5-.45,1.02-.88,1.55-1.29.31-.23.37-.67.15-.98-.28-.4-.67-.24-1-.03-.02-.09-.05-.19-.07-.28,0,.06.02.13.04.19-.03-.09-.09-.18-.16-.25-.04,0,.08.34.1.37-.1-.18-.18-.45-.42-.3-.05.03-.4.01-.38-.02.03.08.08.14.15.19-.14.16-.43.06-.6.04.18.28,0,.08-.2.2-.2.11-.03.39.05.52-.09-.07-.89.34-.71.38-.18.07-.19.4-.38.41-.13,0-.36.01-.16.19-.48-.2-.66-.17-1.04-.58.07,0,.11.02.13.07.24-.22-.22-.27-.34-.3-.06-.06-.24-.47-.31-.5-.09-.04-.37-.09-.36-.19-.13-.13-.25-.26-.38-.38.36-.18-.63-.6-.77-.73-.46-.44-1.14-.48-1.5.11-.47.77.54,1.37,1,1.83.42.42.82.85,1.22,1.29.2.22.4.44.59.66-.07.07-.08.15-.03.25-.15-.07-.11.05-.2.11.09-.01.18,0,.27.02-.1.12-.23.17-.39.15.1.18,0,.21-.25.39-.28-.2-.31.03-.49,0-.22-.04-.05.37-.13.43-.22.04-.19.12-.36.22,0,.03.1-.35.14-.29-.21-.34-.25.53-.55.4-.09-.04-.32-.09-.3.09.05.44-.14-.02-.24.16.05.03.1.05.16.05-.19.09-.39.16-.58.24.28-.44-.45-.04-.43-.04-.16,0-.29.24-.32.36-.04.17-.15.21-.27.34-.52.56.13,1.07.67,1.13ZM18.95,21.94s-.07.02-.09-.07l.09.07ZM19.2,21.75s-.07.02-.1-.04c.04-.03.07-.02.1.04ZM19.6,21.46c-.05.04-.09-.05-.11-.1.04.03.08.06.11.1ZM19.82,21.11c-.09-.07-.16-.14-.22-.24.03,0,.07-.02.1-.02-.07.06.09.19.12.26ZM19.81,20.86s.03,0,.07.03c.02.02.21.33-.07-.03ZM20.23,20.96c-.14.04-.35-.29-.4-.29.04,0,.08.02.12.05.06.12.15.2.28.25ZM20.42,20.28l-.05.04c-.21-.2.02-.06.05-.04ZM19.97,21.19s-.03.02-.05.04c-.01-.06,0-.1.05-.04ZM21.84,26.18c-.08-.07-.11.07-.18.11-.1-.11.17-.14.15-.21.01.03.03.07.04.1ZM21.77,26.42c-.05-.04-.03-.08.07-.12,0,.06-.02.1-.07.12ZM22.52,26.82l-.05-.05c.15-.25.06,0,.05.05ZM21.87,26.53c0-.15.05-.23.16-.24,0,.04,0,.09-.03.13-.04.04-.09.07-.13.11Z"/>
</svg>