
<svg xmlns="http://www.w3.org/2000/svg" version="1.1" xmlns:xlink="http://www.w3.org/1999/xlink" preserveAspectRatio="none" x="0px" y="0px" width="290px" height="380px" viewBox="0 0 290 380">
<defs>
<g id="flash0_ai_04_Fonte__Clip_Group__0_Layer3_0_FILL">
<path fill="#E1C99B" stroke="none" d="
M 125.85 276.75
Q 125.2 276.1 124.35 276.1 123.45 276.1 122.8 276.75 122.15 277.35 122.15 278.25 122.15 279.15 122.8 279.8 123.45 280.4 124.35 280.4 125.2 280.4 125.85 279.8 126.5 279.15 126.5 278.25 126.5 277.35 125.85 276.75
M 81.9 246.3
Q 82 247 82.55 247.4 83.1 247.8 83.8 247.7 93.8 246.35 104.65 255.15 112.9 261.9 118.75 271.55 119.25 272.35 120.15 272.35 120.6 272.35 121 272.1 121.6 271.75 121.75 271.05 121.95 270.4 121.55 269.8 115.3 259.45 106.3 252.3 94.45 242.9 83.3 244.45 82.65 244.55 82.25 245.1 81.85 245.6 81.9 246.3
M 261.25 182.9
Q 261.9 183.5 262.8 183.5 263.65 183.5 264.3 182.9 264.95 182.25 264.95 181.35 264.95 180.45 264.3 179.85 263.65 179.2 262.8 179.2 261.9 179.2 261.25 179.85 260.6 180.45 260.6 181.35 260.6 182.25 261.25 182.9
M 267.55 133
Q 270.35 138.55 271.55 145.2 273.2 154.05 272.55 161.5 271.75 170.4 267.7 173.65 267.15 174.05 267.1 174.75 267 175.45 267.45 176 267.9 176.6 268.75 176.6 269.35 176.6 269.75 176.25 275.45 171.7 276 159.9 276.3 152.9 274.85 144.6 273.5 137.35 270.4 131.35 265.95 122.65 258.6 118.2 258.05 117.85 257.35 118 256.7 118.15 256.35 118.75 256 119.35 256.15 120 256.3 120.65 256.9 121 263.55 125.1 267.55 133
M 206.45 97.5
Q 195 87.4 181.5 64 173.2 49.5 170.75 45.65 164.4 35.5 158.25 28.7 144.7 13.75 125.3 6.15 105.8 -1.5 85.7 0.35 65.6 2.2 47.85 13.2 30.1 24.15 19.5 41.35 10.6 55.85 6.45 75.3 3.1 91.15 2.65 111.9 2.55 115.75 3 148.65 3.25 170.9 1.65 185.3 -0.25 202.85 0.1 209.25 0.8 222.6 7.95 229.9 14.8 236.95 26.8 237.8 36.35 238.45 48.45 235.15 68.1 229.8 69.45 229.55 81.5 227.15 90.4 229.65 98.95 232.05 107.75 239.85 110.15 241.9 122.35 254.65 138.6 271.5 156.4 271.15 175.6 270.75 185.55 249.6 185.95 248.8 192.6 232.1 196.8 221.55 201.35 215.6 206.85 208.3 217.35 201.45 223.45 197.45 236.05 190.15 237.2 189.45 241.25 186.65 260.15 173 261.55 157.1 262.4 147.15 256.3 137.2 251.05 128.55 241.7 121.4 237 117.85 223.85 109.75 212.35 102.65 206.45 97.5 Z"/>
</g>

<g id="Mask_flash0_ai_04_Fonte__Clip_Group__0_2_MASK_0_FILL">
<path fill="#FFFFFF" stroke="none" d="
M 125.85 276.75
Q 125.2 276.1 124.35 276.1 123.45 276.1 122.8 276.75 122.15 277.35 122.15 278.25 122.15 279.15 122.8 279.8 123.45 280.4 124.35 280.4 125.2 280.4 125.85 279.8 126.5 279.15 126.5 278.25 126.5 277.35 125.85 276.75
M 81.9 246.3
Q 82 247 82.55 247.4 83.1 247.8 83.8 247.7 93.8 246.35 104.65 255.15 112.9 261.9 118.75 271.55 119.25 272.35 120.15 272.35 120.6 272.35 121 272.1 121.6 271.75 121.75 271.05 121.95 270.4 121.55 269.8 115.3 259.45 106.3 252.3 94.45 242.9 83.3 244.45 82.65 244.55 82.25 245.1 81.85 245.6 81.9 246.3
M 261.25 182.9
Q 261.9 183.5 262.8 183.5 263.65 183.5 264.3 182.9 264.95 182.25 264.95 181.35 264.95 180.45 264.3 179.85 263.65 179.2 262.8 179.2 261.9 179.2 261.25 179.85 260.6 180.45 260.6 181.35 260.6 182.25 261.25 182.9
M 267.55 133
Q 270.35 138.55 271.55 145.2 273.2 154.05 272.55 161.5 271.75 170.4 267.7 173.65 267.15 174.05 267.1 174.75 267 175.45 267.45 176 267.9 176.6 268.75 176.6 269.35 176.6 269.75 176.25 275.45 171.7 276 159.9 276.3 152.9 274.85 144.6 273.5 137.35 270.4 131.35 265.95 122.65 258.6 118.2 258.05 117.85 257.35 118 256.7 118.15 256.35 118.75 256 119.35 256.15 120 256.3 120.65 256.9 121 263.55 125.1 267.55 133
M 206.45 97.5
Q 195 87.4 181.5 64 173.2 49.5 170.75 45.65 164.4 35.5 158.25 28.7 144.7 13.75 125.3 6.15 105.8 -1.5 85.7 0.35 65.6 2.2 47.85 13.2 30.1 24.15 19.5 41.35 10.6 55.85 6.45 75.3 3.1 91.15 2.65 111.9 2.55 115.75 3 148.65 3.25 170.9 1.65 185.3 -0.25 202.85 0.1 209.25 0.8 222.6 7.95 229.9 14.8 236.95 26.8 237.8 36.35 238.45 48.45 235.15 68.1 229.8 69.45 229.55 81.5 227.15 90.4 229.65 98.95 232.05 107.75 239.85 110.15 241.9 122.35 254.65 138.6 271.5 156.4 271.15 175.6 270.75 185.55 249.6 185.95 248.8 192.6 232.1 196.8 221.55 201.35 215.6 206.85 208.3 217.35 201.45 223.45 197.45 236.05 190.15 237.2 189.45 241.25 186.65 260.15 173 261.55 157.1 262.4 147.15 256.3 137.2 251.05 128.55 241.7 121.4 237 117.85 223.85 109.75 212.35 102.65 206.45 97.5 Z"/>
</g>

<g id="Layer0_0_FILL">
<path fill="#617983" stroke="none" d="
M 260.25 233.95
Q 257.55 233.3 254.9 233.05 254.15 235.7 252.25 239 249.05 244.7 248.3 246.9
L 248.3 249.45
Q 250.85 249.15 252.8 248.55
L 258.9 242.6
Q 259.35 242.65 259.65 242.85
L 254.5 247.9
Q 255.85 247.25 256.85 246.45
L 257.35 246.45
Q 257.1 247.45 254.6 250.5 251.95 253.65 251.8 254 252.084375 254.02109375 252.4 254.1
L 242.65 259.7 243.4 261.05
Q 250.8 258.35 258.65 257.55 261.1 257.25 263.6 257.25 264.4 257.2 265.25 257.35
L 255.45 259.25
Q 255.1 259.45 254.7 259.65 252.35 260.7 249.3 261.95
L 249.3 262.45
Q 250.25 262.7 252.55 262.95 254.75 263.2 255.8 263.5
L 255.8 265.55
Q 246.55 276.65 238.3 291.95 229.95 307.45 229.3 315.15 229.4 315.35 229.55 315.6
L 231.75 315.6
Q 234.2 315 244.45 307.35 255.1 299.45 257.35 296.1 257.6 296.1 257.85 295.85 258.05 295.6 258.35 295.6 257.7 297.15 257 298.7 257.15 298.8 257.3 298.95 257.75 299.4 257.95 299.9 256.3 301.7 254.55 304.2 251.1 312 247.5 320 248.45 318.45 249.7 316.75 250.8 315.2 256.25 308.4
L 257 308.6
Q 255.85 310.4 251.05 316.9 247.25 321.95 245.7 325.3
L 245.1 325.2
Q 242.55 330.65 240 336.2 239.5 337.2 239 338.3 239.2 338.65 239.35 339.05 240.2533203125 341.488671875 240.7 344 240.821484375 344.5234375 240.9 345.05
L 254.8 345.05 262.55 321.45 261.35 321.45 276.15 273.3
Q 270.95 279.6 263.8 283.5 270.85 276.05 277.5 268.3 278.85 266.65 279.15 264.65 280.65 255.85 274 250.05 271.5 247.95 270.2 245.25 267.55 239.9 263.45 235.75 262.1 234.5 260.25 233.95
M 152.75 278.7
Q 144.7 280.2 137 282.7 117.85 302.05 97.35 319.8 90.15 326 82.95 332.2
L 81.95 332.2 83.3 320.9
Q 81.15 322.55 78.9 324.25 76.9 325.75 74.75 327.2 71.6 329.2 68.35 331.15 66.2 332.4 64 333.55 65 334.8 66.05 336.05 67.15 337.35 68.3 338.55 69.5 339.8 70.75 341 71.95 342.15 73.3 343.25 73.76015625 343.625 74.2 344 74.866015625 344.525 75.5 345.05
L 142.45 345.05
Q 143.7197265625 344.53359375 144.95 344 156.4814453125 339.004296875 167.35 332.55 175.25 327.85 182.7 322.55
L 177.45 322.35 183.85 321.7 196.1 311.55 186 321.65 195.65 321.85 187.9 322.35 183.4 330.3 202 327.95 172.75 345.05 237.4 345.05 230.15 321.45 228.75 321.45
Q 226.35 311.3 220.85 302.25 216.75 295.4 212 288.95 207.3 282.65 201.75 277.05 201.2 276.5 200.6 276 196.35 272.3 190.95 271.65 188.35 271.35 185.45 271.8 168.95 274.35 152.75 278.7 Z"/>

<path fill="#4D6476" stroke="none" d="
M 151.1 344
Q 149.9029296875 344.5421875 148.65 345.05
L 172.75 345.05 202 327.95 183.4 330.3 187.9 322.35 184.9 322.55
Q 183.5 323.7 182 324.9 169.7 334.6 155.65 341.85 153.398046875 342.9849609375 151.1 344
M 137 282.7
Q 131.6 284.4 126.4 286.65 118.55 290 110.95 294.05 106.75 296.25 103.55 299.45 95.75 307.55 89.8 316.15 89.75 315.6 89.9 315 90.35 312.1 92.4 309.75 96.5 304.75 101.25 300.3 96.3 303.1 91.45 306.7 84.75 311.7 79.55 318.1 80.2 315.85 81.9 314.05 85.65 310 89.9 306.65
L 55.15 331.2
Q 49.9 331.8 44.7 330.95 44.25 330.9 43.75 330.8 43.5 330.7 43.2 330.65 41.1 330.3 39.25 329.1 37.8 327.95 35.95 327.7 32.15 327.4 29.1 325.05
L 44.7 345.05 75.5 345.05
Q 74.866015625 344.525 74.2 344 73.76015625 343.625 73.3 343.25 71.95 342.15 70.75 341 69.5 339.8 68.3 338.55 67.15 337.35 66.05 336.05 65 334.8 64 333.55 66.2 332.4 68.35 331.15 71.6 329.2 74.75 327.2 76.9 325.75 78.9 324.25 81.15 322.55 83.3 320.9
L 81.95 332.2 82.95 332.2
Q 90.15 326 97.35 319.8 117.85 302.05 137 282.7
M 197.9 252.05
L 198.25 250.45 191.35 253 190 256.4 192.15 259.05 197.55 259.7
Q 196.6 258.05 196.85 256.3 197.15 254.05 197.9 252.05
M 257.35 246.45
L 256.85 246.45
Q 255.85 247.25 254.5 247.9
L 243 259.25 252.4 254.1
Q 252.084375 254.02109375 251.8 254 251.95 253.65 254.6 250.5 257.1 247.45 257.35 246.45
M 258.35 295.6
Q 258.05 295.6 257.85 295.85 257.6 296.1 257.35 296.1 255.1 299.45 244.45 307.35 234.2 315 231.75 315.6
L 229.55 315.6
Q 234.65 326.8 239 338.3 239.5 337.2 240 336.2 242.55 330.65 245.1 325.2
L 244.85 325.15
Q 245.7 322.8 247.5 320 251.1 312 254.55 304.2 252.1 307.8 249.35 313.05 244.6 322.15 241.9 325.15 247 314 256.1 298.35 256.55 298.35 257 298.7 257.7 297.15 258.35 295.6
M 254.7 259.65
Q 255.1 259.45 255.45 259.25
L 243.6 261.6 244.05 266.9
Q 239.85 269.8 238.15 274.45 237.65 275.7 237.65 277.2 237.65 283.05 233.4 287.3 230.65 290.05 228.3 293.25 225.35 297.2 222.75 301.5 226.15 308.25 229.3 315.15 229.95 307.45 238.3 291.95 246.55 276.65 255.8 265.55
L 255.8 263.5
Q 254.75 263.2 252.55 262.95 250.25 262.7 249.3 262.45
L 249.3 261.95
Q 252.35 260.7 254.7 259.65
M 252.25 239
Q 254.15 235.7 254.9 233.05 247.85 232.5 241 235.05
L 240.55 236.15
Q 243 240.2 244.75 244.4 245.05 245.1 244.6 246 244.15 247.15 243.45 248.2 247.05 252.4 244.05 256.55 243.1 257.9 242.1 259
L 252.8 248.55
Q 250.85 249.15 248.3 249.45
L 248.3 246.9
Q 249.05 244.7 252.25 239 Z"/>

<path fill="#43463D" stroke="none" d="
M 142.45 345.05
L 148.65 345.05
Q 149.9029296875 344.5421875 151.1 344 153.398046875 342.9849609375 155.65 341.85 169.7 334.6 182 324.9 183.5 323.7 184.9 322.55
L 187.9 322.35 195.65 321.85 186 321.65 196.1 311.55 183.85 321.7 177.45 322.35 182.7 322.55
Q 175.25 327.85 167.35 332.55 156.4814453125 339.004296875 144.95 344 143.7197265625 344.53359375 142.45 345.05
M 180.5 45.4
L 176.35 45
Q 170.35 45.3 165.8 49.4
L 157.75 45.95 155.75 47.8 157.6 49.35 158.7 51.5
Q 154.7 52.8 151.35 55.35 148.15 57.7 145.8 60.9 139.5 69.4 134.45 78.8 133.2 81.2 131.6 83.45 128.7 87.55 127.3 92.25 127.25 92.4 127.2 92.55 126.95 93.4 126.5 94.5 126.25 95.15 125.9 95.8 123 101.65 116.85 105.15 115.95 104.25 114.8 103.45 113.2 102.25 111.45 102.35 108.55 102.8 106.75 105.7 105 108.45 101.8 109.15 91.6 111.1 84.85 118.1 68.25 119.2 54.8 129 54 129.5 53.35 130.2 43.3 140.5 38.25 154.45 37.85 155.4 37.95 156.45 38.25 161.05 35.05 164.1 31.2 167.8 33.05 173.15 27.2 178.45 24.85 186.5 22.35 195.3 19.85 204.2 17.55 212.8 16.75 222 16.5 225.05 16.3 228.05 15.65 236.1 16.35 244.25 18.15 264.7 18 285.3 17.95 288.15 18.7 291.05 20.55 298.55 14.7 304.5 14.75 305.35 14.9 306.2 15.15 308.2 17.2 308.65
L 22.85 321.45 24.2 321.45
Q 30.7392578125 333.4099609375 39.25 344 39.700390625 344.526953125 40.1 345.05
L 44.7 345.05 29.1 325.05
Q 32.15 327.4 35.95 327.7 37.8 327.95 39.25 329.1 41.1 330.3 43.2 330.65 43.5 330.7 43.75 330.8 44.25 330.9 44.7 330.95 49.9 331.8 55.15 331.2
L 89.9 306.65
Q 85.65 310 81.9 314.05 80.2 315.85 79.55 318.1 84.75 311.7 91.45 306.7 96.3 303.1 101.25 300.3 96.5 304.75 92.4 309.75 90.35 312.1 89.9 315 89.75 315.6 89.8 316.15 95.75 307.55 103.55 299.45 106.75 296.25 110.95 294.05 118.55 290 126.4 286.65 131.6 284.4 137 282.7 144.7 280.2 152.75 278.7 168.95 274.35 185.45 271.8 188.35 271.35 190.95 271.65 196.35 272.3 200.6 276 201.2 276.5 201.75 277.05 207.3 282.65 212 288.95 216.75 295.4 220.85 302.25 226.35 311.3 228.75 321.45
L 230.15 321.45 237.4 345.05 240.9 345.05
Q 240.821484375 344.5234375 240.7 344 240.2533203125 341.488671875 239.35 339.05 239.2 338.65 239 338.3 234.65 326.8 229.55 315.6 229.4 315.35 229.3 315.15 226.15 308.25 222.75 301.5 225.35 297.2 228.3 293.25 230.65 290.05 233.4 287.3 237.65 283.05 237.65 277.2 237.65 275.7 238.15 274.45 239.85 269.8 244.05 266.9
L 243.6 261.6 255.45 259.25 265.25 257.35
Q 264.4 257.2 263.6 257.25 261.1 257.25 258.65 257.55 250.8 258.35 243.4 261.05
L 242.65 259.7 252.4 254.1 243 259.25 254.5 247.9 259.65 242.85
Q 259.35 242.65 258.9 242.6
L 252.8 248.55 242.1 259
Q 243.1 257.9 244.05 256.55 247.05 252.4 243.45 248.2 244.15 247.15 244.6 246 245.05 245.1 244.75 244.4 243 240.2 240.55 236.15
L 241 235.05
Q 247.85 232.5 254.9 233.05 257.55 233.3 260.25 233.95 262.1 234.5 263.45 235.75 267.55 239.9 270.2 245.25 271.5 247.95 274 250.05 280.65 255.85 279.15 264.65 278.85 266.65 277.5 268.3 270.85 276.05 263.8 283.5 270.95 279.6 276.15 273.3
L 261.35 321.45 262.55 321.45 254.8 345.05 257.4 345.05
Q 257.65703125 344.526953125 257.9 344 261.840234375 335.5193359375 263.55 326.15 264.55 320.75 266.35 315.55 269.4 306.7 271.65 297.65 272.5 294.2 273.9 290.95 278 281.25 279.6 270.9 280.6 269.55 281.5 268.2 285.65 262.1 281.85 255.4 278.5 249.45 273.5 244.45 272.6 243.6 272.2 242.5 269.8 235.45 263.2 232.45 253 227.95 242.1 231.05
L 237.55 228.25
Q 238.8 221.85 236.7 215.6 233.6 206.25 227.1 198.65 224.15 195.1 220.75 192.1 214.25 186.3 208.6 179.4 207.35 177.9 206.55 176.2 204.15 171.45 201.15 166.85 197.8 161.85 194.6 156.6 190.7 150.3 187.3 144 189.05 143.9 190.65 143 191.95 142.2 192.35 141.1 194.7 135.15 197.6 129.45 200.55 129.45 202.7 127.6 206.25 124.55 207.45 120.25 209 114.45 213.3 110.2 216.05 116.25 212.9 122.4
L 213.7 123.45 216.35 121.15
Q 218.3 120.1 219.7 118 222.15 114.5 222.1 110.3 221.9 103.45 224.3 97 225.65 93.3 223.2 90.4 221.65 88.55 221 87.35 221.1 86.85 221.05 86.4 221 85.75 221.05 85.25 221.3 79.55 216.75 76.3 211.6 65.6 202.8 57.25 200.8 55.4 201.25 55.35
L 204.65 56
Q 204.3 54.6 202.5 53.9 194.65 50.95 186.75 48.2
L 178.2 48.4 180.5 45.4
M 215.5 109.8
Q 215.65 110.25 215.8 110.7 215.8 110.75 215.7 110.8
L 215.5 109.8
M 151.05 218.3
L 151.2 221.05 150.65 224.85 151.05 218.3
M 133.35 211.7
Q 134.75 214.05 136.15 216.4 139.95 222.7 142.05 229.7 144.7 238.4 149.8 245
L 151.35 244.7
Q 160.2 248.35 169.35 251.4 172.9 252.55 176.1 254.3 185.1 259 194.2 262.2
L 194.75 261.75
Q 197.65 262 200.55 261.4 204.6 260.8 204.15 257.5
L 202.35 258.75 199.2 259.1
Q 198.6 257.1 199.1 255.05 199.6 253.2 200.05 251.4 201.7 244.4 196.85 238.85 196.75 237.4 197 236.15 197.6 233.8 199.7 233.45
L 204.05 240.65 203.3 239.7
Q 204.6 244.45 208.9 246.65 208.65 246.7 208.5 246.9 208.45 247 208.6 247.3 208.65 247.35 208.7 247.45 216.7 246.95 222.8 243.35 226.75 240.95 229.95 237.25 231.4 235.6 232.7 233.65 234.55 230.8 236.3 229.25
L 236.45 230.45
Q 237.2 229.65 238.3 231.2 239.4 232.95 238.75 234.95 237.45 239.25 235.95 242.95
L 239.85 237.95 243.7 245.05 234.5 255.9 242.7 249.85 243.75 253.15 239.85 260.95 240.85 260.6 241.45 261.3 242.7 264.4
Q 242.55 264.65 242.35 264.9 238.4 268.7 235.15 273.2 234.65 273.85 234.15 274.55 233.05 276.2 232 277.95 229.75 281.65 226.75 284.1 221.8 288.1 214.65 288.7 208.9 281.5 202.6 274.75 201.95 274.1 201.4 273.45 199.8 271.7 197.7 270.9 190.95 268.25 183.95 268.95 182.15 269.15 180.35 269.6 166.45 272.8 152.55 276.1 152.1 276.25 151.65 276.35 146.7 277.5 141.8 278.7
L 146.35 276.1
Q 139.1 280 131.45 280.7 126.85 277.45 123.2 273.3 113.75 262.3 105.5 250.4 97.4 238.85 89.9 226.9 88.95 225.4 88.75 223.85 88 217.65 90.6 211.7 94.05 204.45 102.1 202.5 104.05 202 105.9 201.6 113.85 201.15 121.4 200.3
L 126.95 200.9
Q 130.1 206.3 133.35 211.7
M 155.3 233
Q 155.55 231.25 156.8 230.05 164.8 222.35 168.5 211.9 171.85 215.9 174.4 220.3 178.15 226.7 182.05 233.05 182.85 234.35 184.15 235 190.25 238.55 195.7 243
L 196.75 248.05 182.8 253.85
Q 181.9 253.65 181.1 253.2 167.6 246.4 153 242.8
L 154.35 240.65
Q 154.6 239.65 154.7 238.7 154.95 235.8 155.3 233
M 190.95 202.3
Q 191.25 203.45 191.55 204.55 192.1 206.95 192.45 209.6 193.85 221.6 199.2 232.3
L 195.55 234.55 195.05 238.85 174.75 214.4
Q 178.4 210.05 181.95 205.75 184.1 203.15 182.7 201.45
L 173.3 213.25 182.2 200.95
Q 186.7 200.55 190.95 202.3
M 198.25 250.45
L 197.9 252.05
Q 197.15 254.05 196.85 256.3 196.6 258.05 197.55 259.7
L 192.15 259.05 190 256.4 191.35 253 198.25 250.45
M 164.2 163.2
Q 165.1 167.8 167.6 171.6 174.55 182.05 186.25 186.1
L 186.15 186.25 189 195.05
Q 187.6 195.05 186.2 195.1 176.8 196.4 168.95 201.7
L 170.3 196.4 184.4 189.45
Q 179.7 189.9 175.4 192.6 172.45 194.4 170.75 195.1
L 179.45 188
Q 176.8 188.1 174.75 189.8 172.95 191.35 171.3 193.1
L 174.55 181
Q 171.4 181.1 171.35 184.8 171.35 185.85 171 186.85 169.75 190.85 168.45 194.9 167.55 197.7 166.3 200.25 163.05 207.3 158.55 213.6 154.85 218.7 151.35 223.85 151.65 222.6 151.85 221.5 154.25 208.45 156.25 195.45 157.2 189.45 156.15 184.55
L 151.6 219.5 155 172.55 151.6 203.55 151.2 198.15 150.95 198.9 149.85 199.55 146.85 233.15
Q 144.7 227.7 142 222.45 141.45 221.35 141.1 220.25 140.15 217.3 139.4 214.25 138.7 211.5 138.05 208.75
L 140.2 219.3 129.4 202.35
Q 130.65 195.85 131.3 189.3 131.7 185.3 131.15 182.05
L 129.6 197.25 127.85 189.9 127.85 183.6
Q 128.05 182.05 128.35 180.55 129.4 174.9 126.35 170.15 126.55 169 126.4 167.85 125.25 160.05 122.85 152.65 121.55 148.6 119.6 144.9 117.65 141 115.05 137.45 114.75 137 114.4 136.65 112.9 134.9 111.2 134.25 110.6 134 110 133.9 116.95 141.8 120.85 151.75 122.35 155.5 121.85 155.6
L 114.9 145.6 124.8 168.25 116.45 160.8
Q 119.55 166.6 124.25 171.35 124.85 171.95 125.25 172.55 125.9 173.45 126.3 174.5 127.45 177.6 126.55 180.8 126.45 181.2 126.3 181.6 125.05 180.45 123.9 179.35 119.1 174.85 113.2 172.6
L 117.2 176.6 126.8 186.1 125.2 190.7 126.3 191.85
Q 126.55 192.15 126.75 192.55 126.95 192.85 127.2 193.25 127.75 194.3 127.9 195.3 128.3 197.15 127.3 198.55 127.2 198.7 127.15 198.9 110.1 197.45 93.1 197.3 90.15 197.3 87.15 197.5 79.8 197.05 74.4 200.95 73.3 200.05 72.8 199.05 70.8 195.3 71.3 190.9 71.4 189.85 71.05 188.9 68.15 181.5 61.85 176.3 61.3 175.85 60.65 175.5
L 66.65 184.3 61.95 180.5
Q 64.05 183 66.7 185.25 67.6 186.05 68.05 187.1 70.15 191.9 70.35 197.1
L 49.3 193.35
Q 51.05 194.15 52.85 194.6 61.35 197.1 70.4 197.5 70.5 198 70.65 198.6 71.05 199.9 72 200.85 73.25 202.1 74.65 202.4
L 75.65 203.3 77.5 210.75 71.2 212.2
Q 80.55 221.75 87.75 233.55
L 49.95 221
Q 56.55 225.1 65 228.1 79.15 233.2 93.05 236.6
L 55.95 228.7
Q 69.7 234.9 84.9 236.6 91.4 241.4 96.85 247.15 99.9 250.35 97.65 253.7 95.95 254.05 94.25 254.05 90.1 254 86.45 251.95 74.8 245.4 62.05 242 73.8 246.7 85.25 251.85 91.2 254.45 96.75 257.45 102.55 260.6 107.45 265 112.05 269.15 115.15 274.7 117.35 278.5 114.9 281.65 114.35 282.4 113.5 282.85 108.75 282.6 104.05 281.5 96.25 279.8 88.5 278.1 78.2 276.05 67.85 277.55
L 85.65 279.75 79.35 280.05 101.35 282.75
Q 106.35 286.7 108.25 292.65
L 98.45 298.9 98.2 299.8
Q 85.7 304.6 73.6 310.15 67.35 313.1 61.45 316.9 58.75 316.9 56.05 316.85 55.8 316.85 55.55 316.85 45.8 315.2 36.3 313.3 35.75 313.15 35.15 313.1 34.45 312.9 33.7 312.75 26.45 311.35 20 307.7 20.15 306.75 20.15 305.85 20.2 304.6 20.5 303.4 21.75 298.05 21.55 292.5 21.5 291.25 21.45 290 21.1 277.05 20.6 264.1 20.45 259.3 20.1 254.55 19.8 251.15 19.6 247.7 18.8 233.2 21.5 218.8 22.4 214.05 22.75 209.05 23.7 194.6 30.1 181.95 31.8 177.9 34.45 174.4 35.2 173.4 35.05 172.15 34.45 167.4 39.1 164.65 41.4 163.2 41.65 160.2 42.25 151.45 47.45 143.95 54.7 133.5 66.2 127.75 73.35 124.2 81 121.75 82.05 121.45 83.15 121.25 83.35 121.5 83.55 121.8 84.95 121.9 86.15 121.3 90.25 119.25 93.9 116.6 94.85 115.9 96.1 115.5 105.9 112.9 112.1 105.05
L 113.7 105.15 115.15 106.4
Q 112.5 107.3 112.15 109.9 111.75 113.25 113.05 116.55 114.3 119.85 116.95 120.55 121.05 126.35 123.45 132.9 125.2 137.45 126.1 142.45 127.5 150.05 129.2 157.6 130.35 162.6 131.65 167.65 132.6 171.25 134.05 174.65 134.35 175.4 134.6 176.2 136 180.75 137.3 184.8 137.75 187.65 137.75 190.7 137.8 194.65 140 197.4 140.2 195.8 140.2 194.25 140.3 188.55 138.85 182.95 136.6 174.2 134.25 166.5
L 139.75 171.8 142.2 171.5 144.25 165.3 141.1 170.4
Q 138.25 169.45 136.35 166.95 130.55 159.35 129.65 149.4 130.05 150.4 130.35 151.5 132.5 158.9 138.7 163.4
L 140.4 163 141.9 159.5
Q 143.5 158.7 142.5 157.35
L 139.25 161.6 139.2 161.6
Q 139 161.15 138.85 160.7 139.05 160.35 139.15 160.05 140.25 156.85 142 153.85 142.65 152.65 143.35 151.6 143.8 150.95 144.25 150.3 146.25 147.45 147.75 147.25
L 151.2 151.4
Q 149.4 153.15 148.95 155.45 148.75 156.6 149.15 157.6 149.2 157.8 149.35 158.05 150 159.2 151.4 159.65 154.2 160.45 152.75 158.85
L 156.6 158.4 155.1 166.35 158.75 167 164.2 163.2
M 176.45 47.35
Q 175.8 48 175.2 48.7 173.6 50.55 175 52.05 179.7 49.9 184.75 50.45 193.5 51.2 199.6 57.6 204.95 63.15 209.85 69.15 211.25 70.85 212.65 72.55 214.4 74.75 214.1 75.6
L 210.7 74 203.85 70.75 210.2 74.55 208.95 74.5
Q 211.45 77.55 215.4 77.75
L 216.85 79.25 219.1 86.3
Q 213.95 81 207.1 80.6 211.25 82.75 215.35 85 217.2 86 218.55 87.15
L 218.6 87.75 222.75 92.85
Q 222.15 96.3 220.65 99.6 219.6 101.85 220 104.35 221.2 111.7 216.75 117.45
L 215.85 108.95 216.7 109.65 214.7 107.1 218.25 108.15
Q 212.45 104.65 208.8 99.1
L 212.95 101
Q 208.25 97.85 205.15 93.45 205.05 93.35 205 93.3 204.95 93.35 204.9 93.35 204.9 93.4 204.9 93.5 204.85 93.6 204.85 93.75
L 204.85 94.15
Q 203.1 91.8 201.7 88.9 201.25 88.15 200.9 87.3 201.05 88 201.25 88.65 203.35 95.4 208.75 101.15
L 205.65 98.9 213.15 106.5 214.4 107.75
Q 214.3 107.75 214.1 107.75 210.1 108.4 208.15 112.15 205.25 117.6 202.55 123.3 202.15 124.1 201.45 124.35 197.7 125.9 195 128.85 192.65 131.35 192.25 135.15 191.6 140.75 186.3 141.8
L 183.75 137.1 183.75 136.2 182.1 133.7 183.2 133.05 185.5 133.9 187.1 136.65 185.6 132.45 181.5 132.9
Q 181.3 132.6 181.1 132.35 180.9880859375 132.4619140625 180.85 132.55 180.4515625 132.0453125 180 131.55 180.090234375 131.3392578125 180.15 131.1 180.1 130.95 180.05 130.85 180.4 130.05 180.85 128.6 181.05 127.95 181.15 127.35 181.6 125.45 181.6 124.5 181.6 122.35 181.5 121.5 181.45 120.35 181.15 118.95 181.05 118.55 180.95 118.1
L 180.7 118.1 180.6 118.5
Q 180.7 119.2 181.05 120.9 181.05 121.45 181.05 122 181 122.4 181 122.85 179.45 121.2 177.65 118.55 177.3 118.05 176.95 117.45 173.5 112.25 173.25 111.9 174.45 114.2 175.35 115.8 176.1 117.15 176.7 118.05 177 118.5 177.25 118.95 176.8 118.4 176.25 117.8 176.35 118.95 177.65 120.7 178.95 122.45 179.7 122.45 179.7 122.2 179.5 121.9 180.2 122.7 181 123.4 180.95 124.1 180.85 124.75 180.8 125.45 180.7 126.15 180.65 126.45 179.95 129 179.75 129.75 179.6 130.3 179.5 130.2 179.4 130.05 178.15 128.4 176.8 126.8 176.25 126.15 175.7 125.5 173.75 123.25 170.75 122.65 160.8 121.3 151.25 121
L 149.95 122.45
Q 149.75 123.25 149.9 123.95 150.05 124.4 150.35 124.8 155.6 131.6 165.3 130.4
L 167.05 134.35 164 132.3
Q 161.7 131.6 159.3 131.6 157.25 131.45 155.2 131.55 152.35 131.75 149.6 132.45 149.05 132.6 148.5 132.7 146.7 133.1 145.25 133.05 144.5 132.95 143.85 132.75
L 142.85 129.3 143 133.55
Q 142.85 130.8 142.2 128.1 142.2 127.7 142.05 127.35 141.95 126.6 141.75 125.9 141.5 125 141.55 124.1 141.95 119.7 143.55 115.6 144.45 113.4 145.75 111.3
L 145 111.1
Q 143.8 113.15 142.65 115.35 141.35 117.65 140.55 120.05 140.2 121 139.95 122 136.75 134.1 136.55 146.6 136.5 148.9 136.8 151.15 137.3 155.7 137.05 159.95 132.15 153.75 129.4 146.15 127.65 141.15 126.3 136 125.6 133.4 124.5 131 122.5 126.5 119.25 122.75 116.2 119.2 114.15 114.9 111.85 110.05 116.15 107.45 116.9 107.7 117.45 107.35 124.4 103.5 129.55 97.35 129.95 96.85 130.35 96.35
L 128.6 96.8 132.55 95.55 138.3 93.75 132.2 95.1 129 95.8
Q 129.7 94.5 130.3 93.15 130.35 92.95 130.4 92.85 130.55 92.55 130.6 92.35 137.15 77.55 147.5 65.1 149.35 62.9 150.95 60.6 154.55 55.35 160.55 53.15 160.75 53.45 161.05 53.6 161.1 53.65 161.25 53.4
L 161.75 52.3 161.6 51.25 160.45 49.4 167 52.1 168.2 51.4
Q 168.05 51.1 168.1 51.05 171.85 47.65 176.45 47.35
M 159.5 145.9
L 156.65 146.05 151.85 150.65 145.35 142.1 155.5 142.7 159.5 145.9
M 176.7 130.85
Q 176.74296875 130.99296875 176.85 131.1 176.937890625 131.187890625 177 131.25
L 179 133.75
Q 179.3451171875 134.2140625 179.65 134.7
L 179.6 134.7
Q 182.85 140.25 185.75 146.15 191.6 158.25 199 169.95 201.05 173.05 202.85 176.3 203.25 176.9 203.55 177.55 205.25 180.45 207.45 182.95 212.4 188.7 217.5 194.4 220.35 197.5 223.15 200.45 234.25 211.9 236.1 227.4 232.9 232 229 235.6 225.5 238.85 221.45 241.25 216 244.6 209.4 246.45
L 205.15 241.55
Q 205.05 238 203.05 235 201.7 232.8 200.7 230.3 195.4 216.6 193.15 201.95 191.85 193 186.75 186.1
L 189.5 186.55
Q 188.7 185.8 187.8 185.2 183.3 182 178.55 179 175.55 177.15 173.1 174.6 168.15 169.35 164.65 162.85
L 166.25 161.45
Q 165.85 161.35 165.5 161.45 161.45 162.2 158.6 165.15
L 157.4 164.95 160.45 155.5
Q 164.45 155.2 167.6 152.85
L 167.35 152.7 159.55 153.95 157 157.35 152.3 157.35 151.85 158 150.7 156.35 151.3 155.5 153.1 153.1
Q 153.25 153.15 153.3 153.3 153.25 152.85 153 152.4
L 158.55 147.4
Q 159.7 147.7 160.85 147.9 162.4 148.2 163.9 148.35 165.1 148.45 166.35 148.45 168.2 148.5 168.3 147.3
L 158.45 141.1 158.1 139.9 156.85 139.85 156.25 139.3 139.95 138.8 139.85 136.15
Q 144.7 134.7 149.6 133.85 157 132.45 163.55 135.35 168 137.3 172.3 139.2 174.1 140.05 174.8 139.35 174.95 138.9 174.5 138.5 172.1 136.4 169.2 135.3
L 165.55 129.7
Q 157.75 129.05 151.65 125.25
L 151.8 123.25 171.6 124.6 176.7 130.85
M 182.15 145.35
Q 183.25 144.25 183.25 144 178.35 143.9 175.3 149.5 175 150.05 174.45 151.25 173.9 152.4 173.15 154.25 171.85 157.15 170.95 158.35 170.95 158.8 171.35 159 172.55 157.8 173.55 155.8 174.55 153.4 175.2 152.2 175.85 150.8 176.75 149.65 178.8 146.9 182.15 145.35
M 186.55 117.25
Q 185.1 115.7 184.05 115 182.85 114.2 182.2 114.45
L 182.1 114.3
Q 181.95 114.3 181.95 115.15
L 182.35 115.6
Q 182.3 116.25 182.2 117.25 182.15 117.6 182.15 118.05 182.15 118.6 182.6 124.35 182.6 126.75 182.5 128.05 182.4 128.85 182.05 131.4 181.95 131.95 181.85 132.55 181.95 132.65 182.15 132.65 182.4 132 182.6 131 182.7 130.45 182.85 129.9 182.8583984375 129.8158203125 182.85 129.7 182.9251953125 129.3158203125 183.05 128.9 183.05 128.85 183.05 128.8 183.3 127.25 183.35 126.05 183.45 125.15 183.45 124.4 183.4 124.05 183.35 123.7 183.05 120.8 182.9 118.85 182.95 119 183.05 119.25 183.1 119.45 183.25 119.7 183.5 120.4 184 121.4 185.1 123.7 185.6 124.2 185.6 124.15 185.7 124 185.75 123.85 185.75 123.1 185.75 122.85 185.5 122.15 185.5 122.1 185.45 122.05 185.65 122.05 185.9 122.1 186.2 122.1 186.45 122.1 187.1208984375 122.0521484375 187.7 121.65
L 187.7 121.65 187.75 121.65
Q 187.9 121.6 188 121.45 188.1 121.55 188.2 121.65 188.85 122.2 189.35 122.65 189.6 123.45 189.6 122.25 189.6 121.9 189.45 121.4 189.25 120.7 188.65 119.85 187.9 118.7 186.55 117.25
M 182.6 115.95
Q 182.7 116.05 182.8 116.15 183.45 116.85 184.65 118.05 185.3 118.75 185.95 119.4 185.45 119.65 185.25 119.95 185.1 120.25 185 121 184.85 120.7 184.7 120.35 183.7 118.15 183.15 117.65
L 183 117.6 182.95 117.6
Q 182.85 117.75 182.85 118.4 182.65 116.9 182.6 115.95
M 186.9 120.5
Q 186.9 120.35 186.9 120.3 186.95 120.4 187.1 120.55 186.95 120.55 186.9 120.6 186.9 120.55 186.9 120.5
M 162.05 93.35
Q 162.55 90.05 162.8 88.05 163.1 85.5 163.1 84.9 163.1 83.05 161.75 81.8 161.15 81.25 160.4 80.85 159.5 80.45 158.4 80.35 154.5 80 151.15 83.5 150.2 84.5 149.3 85.8 144.9 90.75 144.25 91.75 143.25 93.1 142.7 94.5 142.65 94.7 142.65 94.85 142.2 94.95 141.65 95.15 141.15 95.3 140.65 95.5 140.45 95.5 138.45 96.1 136.2 96.8 135.25 97.2 135.15 97.25 135.05 97.3 134.65 97.4 134.3 97.5 134 97.55 133.7 97.55 133 97.5 132.35 97.15 131.9 96.85 131.15 97.3 131.1 97.35 131.05 97.4 130.9 97.45 130.75 97.65 130.35 97.95 129.85 98.5 131.85 98.8 135 98.1 136.85 97.65 139.05 96.9 139.9 96.55 140.65 96.3 141.6 95.9 142.4 95.6 142.15 96.65 142.15 97.75 142.15 97.85 142.15 98.05 142.25 100.35 144.3 102.85 145.6 104.35 147.4 105.7 148.85 106.75 150.6 107.65 150.3 107.1 148.75 105.05 148.45 104.65 148.1 104.25 147.6 103.5 146.95 102.7 144.45 99.4 144.45 97.7 144.45 96.75 145.3 95.15 146.25 93.35 148.15 90.9 149.85 91.35 151.15 92.75 152.65 94.25 152.65 95.65 152.65 96.5 152.35 97.3 152.3 97.5 151.65 98.8 151.85 99.5 152.3 99.65 154.1 99.4 155.85 96.5 157.45 94.05 157.45 92.45 157.45 89.85 157.05 88.45 156.45 86.2 154.8 85
L 153.7 85.15
Q 153.45 85.25 153.2 85.3 153.1 85.3 153.05 85.3 155.5 83.05 157.4 82.65 157.85 82.6 158.2 82.6 158.85 82.6 159.1 82.75 159.5 82.95 160.2 83.05 162.25 85.05 161.95 88 161.75 89.7 161.45 93.2
L 162.05 93.35
M 152.55 85.8
L 152.55 85.95
Q 153 86.1 154.7 86.1 155.05 86.4 155.7 88.55 156.3 90.45 156.3 90.8 156.3 91.8 155.7 93.2 155.3 94.05 154.2 96.25
L 153.9 96.25
Q 154.4 95.1 153.5 93.2 152.55 91.15 150.75 90.4 149.5 90.25 148.8 90 149.15 89.65 149.4 89.3 151.05 87.2 152.55 85.8
M 192.2 70.7
L 191.75 70.7
Q 191.75 71.35 191.7 72.15 191.7 72.5 191.7 72.95 191.6 79.2 191.25 90.45 191.25 90.85 191.3 91.1 191.35 91.3 191.4 91.35 191.45 91.4 191.55 91.5 191.2 91.55 190.85 91.6 190.35 91.6 189.75 91.7 188.4 91.85 187.1 92.15 190.25 91.2 190.75 90.9 188.1 91.45 173.25 95.7 172.95 95.8 172.7 95.85 172.55 95.95 172.5 96 170.05 96.5 166.7 98.75 166.45 98.9 166.25 99 164.25 100.4 160.85 103.05 160.6 103.25 160.3 103.45 160.4 103.25 160.4 103.05
L 160.45 103
Q 161.05 100.85 161.85 98.4 162.2 97.2 162.65 96 163.2 94.15 163.7 92.65 164.5 90.05 165.05 88.35
L 164.65 88.35
Q 164.35 88.95 164.05 89.45 163.95 89.65 163.85 89.8 162.85 91.55 162.7 91.85 162.7 91.9 162.65 91.9 161.6 94.25 161.5 95.85 161.5 96.75 160.65 99.45 160.6 99.8 160.45 100.1 160.3 100.8 160.2 101.4 160.15 101.75 160.1 102.1 160 102.8 160.05 103.4
L 160.2 103.55 160.2 103.6 160.3 103.6
Q 161.1 103.5 162.2 103.05 163.75 102.3 166 100.7 170.65 97.35 172.95 96.2 174.7005859375 95.693359375 176.35 95.2 176.2791015625 95.260546875 176.2 95.3
L 176.1 95.6 176.8 95.85
Q 177.9 95.55 183.05 94.3 184.2 94.05 185.55 93.7 188.45 93 190.3 92.45 192.2 91.85 193.1 91.45
L 192.5 91.35
Q 192.45 91.35 191.9 91.4 192.45 90.55 192.75 88.45 192.95 86.7 192.95 85.3 192.9 84.25 192.85 83.25 192.85 83.15 192.8 83.05 192.75 81 192.6 79.2 192.6 79.0509765625 192.55 78.95
L 192.55 78.9 192.55 78.85
Q 192.4 75.15 192.3 72.5 192.3 71.55 192.25 70.7
L 192.2 70.7
M 190.7 111.1
Q 189.4 110.45 187.35 109.65 186.35 109.25 184.5 108.2 182.85 107.35 181.75 107.4
L 181.6 107.75 181.5 108.15
Q 182.75 109.75 185.35 111.3 186.3 111.8 187.55 112.4 188.5 112.85 189.65 113.3 189.6 113.45 189.6 113.7 189.6 115.05 190.35 118.15 191.2 121.55 191.4 123.85 192 124.2 192.45 124.45 192.55 124.6 192.65 124.6 192.95 124.6 192.95 123.85 192.95 123.75 192.95 123.65
L 194.65 123.65
Q 194.75 123.9 194.9 124.1 195.65 123.95 195.85 123.6 197.7 123.45 197.85 123.1
L 197.7 122.65
Q 196.55 122.6 195.65 122.6 195.45 121.2 195.15 118.15 194.8 115.15 193.1 114 193.15 113.8 193.15 113.5 193.15 112.35 190.7 111.1
M 119.75 143.75
Q 120.35 145.25 120.95 146.6
L 121.5 146.75
Q 120.8 144.1 120.15 141.8 117.4 132.15 115.1 127.8 116.4 133.35 117.5 137 118.55 140.6 119.75 143.75
M 119.6 170.25
L 120 170.25
Q 118.4 166.45 112.8 160.95 107.2 155.55 102.05 152.95 117.2 164.15 119.6 170.25
M 106.75 158
Q 106.95 158.05 110.35 160.85 112.5 162.55 113.95 163.2 111.45 161.4 106.5 157 101.65 153.2 97 152 105.4 157 106.75 158
M 94.65 132.85
L 94.1 132.9
Q 93.5 133.05 93.4 133.2 98.6 135.75 102.4 136.65 101.85 136.15 98.7 134.65 95.6 133.1 94.65 132.85
M 101.2 130.7
Q 101.15 131 101.15 131.75 101.15 132.4 105.9 136.95 109.2 140.05 111.55 142.25 111.85 142.45 112.1 142.7
L 112.45 142.7
Q 111.45 141.65 110.1 140.2 107.05 136.8 102.05 131.15
L 102.05 131.05
Q 103.05 131.1 104.5 131.75 105.45 132.2 106.25 132.65 106.45 132.8 106.65 132.9
L 107.9 132.7 107.85 132.65
Q 107.25 132.1 105.45 131.3 103.45 130.4 103.15 130.2
L 101.55 130.3
Q 101.25 130.7 101.2 130.7
M 107.4 113.85
L 107.1 113.85
Q 107 114.1 106.95 114.1 106.95 114.15 106.95 114.85 106.95 116.05 110.8 121.25 111.15 121.8 111.45 122.3 110.8 121.7 109.9 121.15 105.15 117.85 103 116.8 105.7 119.2 112.35 123.45 113.95 125.4 114.95 126.5 115.85 128.6 117.3 131.75 119.5 136.65 120.45 139.1
L 120.95 139.25
Q 120.9 139.15 120.9 139.05 118.2 131.75 115.75 127.25 115.9 127.35 116 127.45 115.75 126.4 114.8 124.95 115.4 125.3 116 125.7 115.4 125.15 114.5 124.5 113.45 122.85 111.55 120.7 107.75 116.2 107.4 113.85
M 140.85 210.1
Q 139.35 202.4 137.6 201.45 138.35 203.9 140.4 213.55 142.05 220.9 143 222.2 141.65 214.35 140.85 210.1
M 89.95 188.05
L 89.95 188.35
Q 90 188.35 90.6 188.25 90.8 188.2 91.05 188.2 91.3 188.2 91.6 188.25 93.25 188.5 94.4 188.8
L 97.5 188.8
Q 97.75 188.8 98.1 188.9 96.4 188.9 93.1 189.05 85.85 189.4 81.4 189.8
L 90.85 190.05
Q 101.45 190.25 106.9 190.9 107.9 190.9 108.1 190.6 107.6 190.55 105.45 189.8 111.7 190.3 121.95 190.9
L 122.05 190.6
Q 111.8 188.95 108 188.35 107.35 188.25 106.9 188.2 106.05 188.05 105.9 188.05 98.65 187.2 89.95 187.95
L 89.95 188.05
M 76.9 190
Q 75.4 190.7 73.85 192.15 74.35 192.2 76.85 190.95 79.6 189.5 82.95 189.1 82.65 188.95 82.65 188.85 79.2 188.85 76.9 190
M 60.25 191.8
Q 51.75 188.9 46.9 186.55 52.25 190.15 59.2 192.55 63.75 194 69.8 195.3 68.5 194.65 60.25 191.8
M 95.4 284.55
Q 95.4 284.4 95.3 284.3 95.15 284.2 95.15 284.15 90.65 284.55 85.65 286.95 83.95 287.8 81.15 289.2 79.5 290.05 77.35 291.15 76.8 291.45 76.2 291.75 73.9 292.8 67.85 295.45 62.55 297.95 60.85 299.45 63.4 298.8 67.9 296.9 72.35 294.95 76.95 292.45 81.95 289.8 86.75 287.65 86.9 287.55 87.05 287.55 92.9 284.95 95.4 284.55
M 107.25 173.2
Q 105 171.5 101.9 169.6 101.55 169.35 101.15 169.15 100.2 168.55 99.25 168.05 94.15 165.2 90.15 163.9 95.05 166.2 101.05 170.2 102 170.8 102.95 171.45 103.15 171.6 103.35 171.7 110.15 176.4 111.5 177.05 111.4 176.9 111.25 176.7 109.75 175.1 107.25 173.2
M 102.95 169.5
Q 105.6 171.25 108.25 173.2 108.9 173.7 109.55 174.2 111.25 175.5 120.5 183.3 120.65 183.4 120.7 183.45
L 121.45 183.25
Q 120.65 182.65 119.7 181.8 115.95 178.7 109.35 173.05 106.1 170.6 102.8 168.55 101.1 167.55 99.35 166.65 99.1 166.55 98.9 166.4 98.2 166.05 97.45 165.7 95.5 164.75 93.5 164.05 95.75 165.15 97.95 166.45 98.9 166.95 99.8 167.5 101.35 168.45 102.95 169.5
M 74.2 132.95
Q 67.9 135.55 62.75 139.85
L 73 130.8 70.65 131.6
Q 66.8 134.1 63.6 137.4 49.3 151.9 50.8 171.8 50.95 173.75 51.25 175.75 51.2 171.25 51.9 166.9 53 160.35 55.85 154.25 55.95 154.05 56 153.9 56.05 153.85 56.05 153.75 65.45 134.45 86.75 129.95 80.25 130.45 74.2 132.95
M 149.4 267
Q 150.55 269.9 151.2 271
L 151.55 271
Q 151.9 269.55 150.15 266.25 148.5 263.1 147.65 262.75 148 263.5 149.4 267
M 151.65 265.8
Q 151.65 265.85 151.7 266 151.9 267.2 152.45 269.2 152.75 270.35 152.95 271.2 153.15 272 153.2 272.5
L 153.55 272.5
Q 153.65 272.3 153.65 272.2 153.7 272.05 153.7 271.2 153.7 270.05 153.4 268.7 152.85 266.35 151.65 265.8
M 113.25 246.45
L 113.45 246.25
Q 111.95 244.1 108.35 238.6 105.65 234.45 101.8 228.45 94.65 217.35 90.6 211.7 97.65 223.35 101.3 229.15 103.85 233.15 106.2 236.65 109.9 242.1 113.25 246.45
M 257 308.6
L 256.25 308.4
Q 250.8 315.2 249.7 316.75 248.45 318.45 247.5 320 245.7 322.8 244.85 325.15
L 245.1 325.2 245.7 325.3
Q 247.25 321.95 251.05 316.9 255.85 310.4 257 308.6
M 257 298.7
Q 256.55 298.35 256.1 298.35 247 314 241.9 325.15 244.6 322.15 249.35 313.05 252.1 307.8 254.55 304.2 256.3 301.7 257.95 299.9 257.75 299.4 257.3 298.95 257.15 298.8 257 298.7 Z"/>

<path fill="#DBB891" stroke="none" d="
M 173.15 154.25
Q 173.9 152.4 174.45 151.25 174.1 151.6 173.65 152.05 171.4 154.2 170.9 154.2
L 167.15 150.95
Q 165.1 149.15 163.9 148.35 162.4 148.2 160.85 147.9 160.35 148.15 160.05 148.55 158.9 150.2 156.55 151.6 154.85 152.6 152.75 154.25 151.95 154.9 151.3 155.5
L 150.7 156.35 151.85 158 152.3 157.35 157 157.35 159.55 153.95 167.35 152.7 167.6 152.85
Q 164.45 155.2 160.45 155.5
L 157.4 164.95 158.6 165.15
Q 161.45 162.2 165.5 161.45 165.85 161.35 166.25 161.45
L 164.65 162.85
Q 168.15 169.35 173.1 174.6 175.55 177.15 178.55 179 183.3 182 187.8 185.2 188.7 185.8 189.5 186.55
L 186.75 186.1
Q 191.85 193 193.15 201.95 195.4 216.6 200.7 230.3 201.7 232.8 203.05 235 205.05 238 205.15 241.55
L 209.4 246.45
Q 216 244.6 221.45 241.25 221.15 240.65 220.8 240.05 215.95 231.65 213.4 227.4 209.6 221.15 204.75 210.6 199.2 198.6 199.65 196
L 199.95 196
Q 201.1 197.5 201.95 198.45 203.6 200.3 204.55 200.25 202.1 194.25 194.05 178.65 184.75 160.6 182 158.15 181.4 158.75 178.15 161.15 174.55 163.85 172.85 164.65
L 172.85 162.05
Q 173.2 159.75 175.05 154.7 176.55 150.75 176.75 149.65 175.85 150.8 175.2 152.2 174.55 153.4 173.55 155.8 172.55 157.8 171.35 159 170.95 158.8 170.95 158.35 171.85 157.15 173.15 154.25
M 191 188.5
Q 191.3 189.4 191.6 189.8
L 191.25 189.8
Q 190.8 189.45 190.5 188.65 190.1 187.85 189.8 187.55 190.65 187.8 191 188.5
M 156.65 146.05
L 159.5 145.9 155.5 142.7 145.35 142.1 151.85 150.65 156.65 146.05
M 185.25 119.95
Q 185.45 119.65 185.95 119.4 185.3 118.75 184.65 118.05 183.45 116.85 182.8 116.15 182.85 116.9 182.95 117.6
L 183 117.6 183.15 117.65
Q 183.7 118.15 184.7 120.35 184.85 120.7 185 121 185.1 120.25 185.25 119.95
M 196.15 85.5
Q 194.85 84.45 194 82.9 195.7 87.55 197.2 92 198.4 95.4 199.85 99.65 200.15 100.05 200.3 100.15
L 200.05 100.15
Q 199.95 99.9 199.85 99.65 199.3 98.85 198.1 96.95 196.4 94.1 196.4 93.9
L 196.15 93.9
Q 196.15 95 197.55 101.25 198.4 105.15 199.45 108.85 199 107.55 198.1 105.9 198.75 107.25 199 109.35 199.55 114.25 199.65 114.7
L 199.15 114.45
Q 198.7 113.05 198.35 109.4 198.05 106.15 197.2 104.35 197.5 104.7 197.75 105.15 197.65 104.85 197.5 104.6 194.8 99.95 194.75 99.65 193.9 100.1 191.2 101.85 189.2 103.15 187.65 104 188.9 103.2 189.95 101.7 189.25 102.15 188.35 102.8 185.1 104.85 184.15 104.6 184.2 104.4 184.55 104.25 185.05 103.95 185.2 103.9 187.45 103.65 189.6 101.8 189.9 101.55 190.15 101.3 190.8 100.3 191.85 97.7 190.95 97.65 188.2 99.45 185.1 101.45 182.35 101.95 179.3 102.5 178.8 102.7 177.45 103.25 177.45 104.9 177.45 105.3 177.75 106 178.1 106.7 178.1 107.2 179.35 107 181.6 107.75
L 181.75 107.4
Q 182.85 107.35 184.5 108.2 186.35 109.25 187.35 109.65 189.4 110.45 190.7 111.1 193.15 112.35 193.15 113.5 193.15 113.8 193.1 114 194.8 115.15 195.15 118.15 195.45 121.2 195.65 122.6 196.55 122.6 197.7 122.65
L 197.85 123.1
Q 197.7 123.45 195.85 123.6 195.65 123.95 194.9 124.1 194.75 123.9 194.65 123.65
L 192.95 123.65
Q 192.95 123.75 192.95 123.85 192.95 124.6 192.65 124.6 192.55 124.6 192.45 124.45 192 124.2 191.4 123.85 191.2 121.55 190.35 118.15 189.6 115.05 189.6 113.7 189.6 113.45 189.65 113.3 188.5 112.85 187.55 112.4
L 187.55 114.7
Q 186.9 114.5 185.3 113.55 183.95 112.7 183.65 112.4 183.55 113.8 184.05 115 185.1 115.7 186.55 117.25 187.9 118.7 188.65 119.85 189.25 120.7 189.45 121.4 189.6 121.9 189.6 122.25 189.6 123.45 189.35 122.65 188.85 122.2 188.2 121.65 188 121.65 187.75 121.65
L 187.7 121.65 187.7 121.65
Q 187.1208984375 122.0521484375 186.45 122.1 186.287109375 122.1814453125 186.15 122.25
L 185.8 122.35 185.75 122.4
Q 185.64453125 122.29453125 185.5 122.15 185.75 122.85 185.75 123.1 185.75 123.85 185.7 124 185.6 124.15 185.6 124.2 185.1 123.7 184 121.4 183.5 120.4 183.25 119.7 183.1 119.65 183 119.6 183.05 121.15 183.65 123.5
L 183.65 123.85
Q 183.5 123.75 183.35 123.7 183.4 124.05 183.45 124.4 183.45 125.15 183.35 126.05 183.3 127.25 183.05 128.8 183.05 128.85 183.05 128.9 183 129.45 182.9 129.65 182.88125 129.6873046875 182.85 129.7 182.8583984375 129.8158203125 182.85 129.9 182.7 130.45 182.6 131 182.4 132 182.15 132.65 181.95 132.65 181.85 132.55 181.95 131.95 182.05 131.4 181.85 131.6 181.65 131.75 181.4 132 181.1 132.35 181.3 132.6 181.5 132.9
L 185.6 132.45 187.1 136.65 185.5 133.9 183.2 133.05 182.1 133.7 183.75 136.2 183.75 137.1 186.3 141.8
Q 191.6 140.75 192.25 135.15 192.65 131.35 195 128.85 197.7 125.9 201.45 124.35 202.15 124.1 202.55 123.3 205.25 117.6 208.15 112.15 210.1 108.4 214.1 107.75 213.7 107.15 213.15 106.5
L 205.65 98.9 208.75 101.15
Q 203.35 95.4 201.25 88.65 196.25 85.55 196.15 85.5
M 200.9 101.8
Q 201.15 102.15 201.25 102.3
L 200.95 101.95
Q 200.95 101.9 200.9 101.8
M 199.75 107.9
L 200.15 107.9
Q 200.15 108.9 200.35 111.25 200.45 112.05 200.5 112.7 200.6 113.75 200.6 114.05 200.6 116.1 200.35 117.1
L 200.15 116.95
Q 200.15 115.45 199.9 112.65 199.85 112.15 199.8 111.8 199.7 110.2 199.65 109.65
L 199.65 109.55
Q 199.65 109.4 199.65 109.35 199.65 108.4 199.7 108.05 199.75 107.95 199.75 107.9
M 142.15 98.05
Q 142.15 97.85 142.15 97.75 142.15 96.65 142.4 95.6 141.6 95.9 140.65 96.3 139.8 97.45 139 99.35 138.95 99.45 138.9 99.55 136.9 104.15 136.9 107.15 136.9 108.25 136.9 109.75 137.1 110.75 138.55 110.75 140.75 110.75 143.15 108.7 145.35 106.9 147.4 105.7 145.6 104.35 144.3 102.85 142.25 100.35 142.15 98.05
M 152.55 85.95
L 152.55 85.8
Q 151.05 87.2 149.4 89.3 149.15 89.65 148.8 90 149.5 90.25 150.75 90.4 152.55 91.15 153.5 93.2 154.4 95.1 153.9 96.25
L 154.2 96.25
Q 155.3 94.05 155.7 93.2 156.3 91.8 156.3 90.8 156.3 90.45 155.7 88.55 155.05 86.4 154.7 86.1 153 86.1 152.55 85.95
M 139.95 122
Q 140.2 121 140.55 120.05 136.6 126.25 131.7 136.25 131.15 135.35 131 134.7 130.75 133.55 130.75 130.85 130.75 126.35 130.9 124.45 131.1 122.4 131.7 121.2
L 131.7 120.9
Q 129.2 123.45 125.85 128.65 125.15 129.8 124.5 131 125.6 133.4 126.3 136 127.65 141.15 129.4 146.15 132.15 153.75 137.05 159.95 137.3 155.7 136.8 151.15 136.5 148.9 136.55 146.6 136.75 134.1 139.95 122
M 164 132.3
L 167.05 134.35 165.3 130.4
Q 155.6 131.6 150.35 124.8 150.05 124.4 149.9 123.95 149.4 123.9 148.85 123.85 148.15 123.85 147.7 125.15 147.7 127.95 151.2 129.55 153.9 130.85 155.2 131.55 157.25 131.45 159.3 131.6 161.7 131.6 164 132.3
M 173.2 113.05
L 173.2 114.35
Q 173.2 116 175.15 119.95 177.1 123.9 177.1 125 177.1 125.45 176.95 125.95 176.8 126.5 176.8 126.8 178.15 128.4 179.4 130.05
L 179.4 123.85
Q 179.75 124.2 180.85 124.75 180.95 124.1 181 123.4 180.2 122.7 179.5 121.9 179.7 122.2 179.7 122.45 178.95 122.45 177.65 120.7 176.35 118.95 176.25 117.8 176.8 118.4 177.25 118.95 177 118.5 176.7 118.05 176.1 117.15 175.35 115.8 174.3 114.5 173.2 113.05
M 131.75 211.25
Q 132.65 211.5 133.35 211.7 130.1 206.3 126.95 200.9
L 121.4 200.3
Q 113.85 201.15 105.9 201.6 104.05 202 102.1 202.5 94.05 204.45 90.6 211.7 94.65 217.35 101.8 228.45 105.65 234.45 108.35 238.6 111.25 241.1 111.75 241.45 104.5 228.35 104.2 227.75 97.95 215.9 95.45 208.75 96.75 208.75 101.55 208.45 105.43125 208.1640625 106.3 208.1 104.95 208 104.95 208.1 104.95 207.65 105.4 207.85 106 208 106.3 208.1 106.3529296875 208.1029296875 106.4 208.1 110.1421875 208.32109375 123.2 209.75 127.45 210.1 131.75 211.25
M 230.65 259.55
Q 230.65 258.55 230.6 257.6 229.4 255 227.05 253 225.65 254.1 221.9 257.7 219.25 260.25 216.6 263 214.4 265.5 207.65 270.9 204.6 273.3 202.6 274.75 208.9 281.5 214.65 288.7 221.8 288.1 226.75 284.1 229.75 281.65 232 277.95 233.05 276.2 234.15 274.55 234.65 273.85 235.15 273.2 236.7 270.95 237.3 269.7 238.05 268.25 238.5 266 239.15 263.1 239.85 261.05
L 239.5 261.05
Q 237.6 261.5 235.45 265.1 234.05 267.45 232.45 268.7 232.45 272.15 232.25 276.1
L 231.8 275.9
Q 231.1 273.45 231.35 269.5 231.05 269.7 230.65 269.8 230.65 269.6 230.5 269.55
L 230.35 269.5
Q 230.35 268.6 230.2 266.65 230 264.8 230 264.45 230 264.05 230.35 262 230.65 259.95 230.65 259.55
M 150.95 264.65
Q 151.4 265.35 151.7 266 151.65 265.85 151.65 265.8 152.85 266.35 153.4 268.7 153.7 270.05 153.7 271.2 153.7 272.05 153.65 272.2 153.65 272.3 153.55 272.5
L 153.2 272.5
Q 153.15 272 152.95 271.2 152.95 272 152.75 274.35 152.65 275.3 152.55 276.1 166.45 272.8 180.35 269.6 182.15 269.15 183.95 268.95 181.15 268.45 172.05 266.95 160.75 265.1 155.55 264
L 150.95 264 150.95 264.65
M 88.75 223.85
Q 88.95 225.4 89.9 226.9 97.4 238.85 105.5 250.4 113.75 262.3 123.2 273.3 126.85 277.45 131.45 280.7 139.1 280 146.35 276.1
L 141.8 278.7
Q 146.7 277.5 151.65 276.35 150.75 274.05 148.75 270.35 144.9 263.3 142.15 263.3 141.25 263.3 138.9 270.05 137.75 273.55 136.3 277.65 136.3 277.45 136.15 277.4 136.05 277.35 135.95 277.35 131.65 272.3 118.9 256 104.95 238 101.75 232.7 101.45 232.4 101.35 232.3
L 101.35 231.95
Q 101.5 232.3 101.75 232.7 102.85 233.7 106.2 236.65 103.85 233.15 101.3 229.15 97.65 223.35 90.6 211.7 88 217.65 88.75 223.85 Z"/>

<path fill="#2A201E" stroke="none" d="
M 191.6 189.8
Q 191.3 189.4 191 188.5 190.65 187.8 189.8 187.55 190.1 187.85 190.5 188.65 190.8 189.45 191.25 189.8
L 191.6 189.8
M 228.15 220.2
L 228.7 220.45
Q 225.85 215.6 219.65 206.6 212.35 196 210.8 193.6 213.4 198.55 219 206.7 227.95 219.95 228.15 220.2
M 205.8 183.6
Q 210.05 191.2 212.95 195.55 217.65 202.7 222.15 207.35 218.5 202.85 213.55 195.3 210.75 191.2 205.8 183.6
M 200.15 107.9
L 199.75 107.9
Q 199.75 107.95 199.7 108.05 199.65 108.4 199.65 109.35 199.65 109.4 199.65 109.55
L 199.65 109.65
Q 199.7 110.2 199.8 111.8 199.85 112.15 199.9 112.65 200.15 115.45 200.15 116.95
L 200.35 117.1
Q 200.6 116.1 200.6 114.05 200.6 113.75 200.5 112.7 200.45 112.05 200.35 111.25 200.15 108.9 200.15 107.9
M 177.25 109.45
Q 177.65 110.15 178.4 110.75 179.15 111.35 179.7 111.4 179.5 111.2 178.65 110.25 177.9 109.45 177.25 109.45
M 176.7 110.9
L 176.6 111.1
Q 177.6 111.65 179.1 112.7 179.5 112 179.6 111.55 179.1 111.55 178.2 111.3 177.2 110.95 176.7 110.9
M 191.75 99.3
Q 191.3 100.25 190.15 101.3 189.9 101.55 189.6 101.8 187.45 103.65 185.2 103.9 185.05 103.95 184.55 104.25 184.2 104.4 184.15 104.6 185.1 104.85 188.35 102.8 189.25 102.15 189.95 101.7 191.65 100.35 192.1 99.45
L 191.75 99.3
M 199 109.35
Q 198.75 107.25 198.1 105.9 197.95 105.5 197.75 105.15 197.5 104.7 197.2 104.35 198.05 106.15 198.35 109.4 198.7 113.05 199.15 114.45
L 199.65 114.7
Q 199.55 114.25 199 109.35
M 210.7 94.15
Q 206.6 91 197.3 83.2 203.05 90.1 210.7 94.15
M 72.05 246.95
Q 60.3 241.7 56.9 241.2 71.45 247.75 73.1 248.5 83.5 252.95 91.35 255.25 86.8 253.6 72.05 246.95
M 235.85 243.2
L 235.4 243.1
Q 234.95 244.35 233.4 246.45 232 248.35 231.25 248.95
L 231.55 249.25
Q 233.7 247.25 234.6 246.35 236.15 244.85 235.85 243.2
M 224.25 250.5
L 224 250.85
Q 225.7 251.85 227.05 253 229.4 255 230.6 257.6 231.65 260 231.75 262.85 231.8 263.75 231.35 269.5 231.1 273.45 231.8 275.9
L 232.25 276.1
Q 232.45 272.15 232.45 268.7 232.5 267.45 232.5 266.25 232.5 259.4 232 257.5 230.45 252.1 224.25 250.5 Z"/>

<path fill="#E7CCB4" stroke="none" d="
M 176.85 131.1
Q 176.74296875 130.99296875 176.7 130.85
L 171.6 124.6 151.8 123.25 151.65 125.25
Q 157.75 129.05 165.55 129.7
L 169.2 135.3
Q 172.1 136.4 174.5 138.5 174.95 138.9 174.8 139.35 174.1 140.05 172.3 139.2 168 137.3 163.55 135.35 157 132.45 149.6 133.85 144.7 134.7 139.85 136.15
L 139.95 138.8 156.25 139.3 156.85 139.85 158.1 139.9 158.45 141.1 168.3 147.3
Q 168.2 148.5 166.35 148.45 165.1 148.45 163.9 148.35 165.1 149.15 167.15 150.95
L 170.9 154.2
Q 171.4 154.2 173.65 152.05 174.1 151.6 174.45 151.25 175 150.05 175.3 149.5 178.35 143.9 183.25 144 183.25 144.25 182.15 145.35 178.8 146.9 176.75 149.65 176.55 150.75 175.05 154.7 173.2 159.75 172.85 162.05
L 172.85 164.65
Q 174.55 163.85 178.15 161.15 181.4 158.75 182 158.15 184.75 160.6 194.05 178.65 202.1 194.25 204.55 200.25 203.6 200.3 201.95 198.45 201.1 197.5 199.95 196
L 199.65 196
Q 199.2 198.6 204.75 210.6 209.6 221.15 213.4 227.4 215.95 231.65 220.8 240.05 221.15 240.65 221.45 241.25 225.5 238.85 229 235.6 232.9 232 236.1 227.4 234.25 211.9 223.15 200.45 220.35 197.5 217.5 194.4 212.4 188.7 207.45 182.95 205.25 180.45 203.55 177.55 203.25 176.9 202.85 176.3 201.05 173.05 199 169.95 191.6 158.25 185.75 146.15 182.85 140.25 179.6 134.7
L 179.65 134.7
Q 179.3451171875 134.2140625 179 133.75
L 177 131.25
Q 176.937890625 131.187890625 176.85 131.1
M 212.95 195.55
Q 210.05 191.2 205.8 183.6 210.75 191.2 213.55 195.3 218.5 202.85 222.15 207.35 217.65 202.7 212.95 195.55
M 228.7 220.45
L 228.15 220.2
Q 227.95 219.95 219 206.7 213.4 198.55 210.8 193.6 212.35 196 219.65 206.6 225.85 215.6 228.7 220.45
M 160.85 147.9
Q 159.7 147.7 158.55 147.4
L 153 152.4
Q 153.25 152.85 153.3 153.3 153.25 153.15 153.1 153.1
L 151.3 155.5
Q 151.95 154.9 152.75 154.25 154.85 152.6 156.55 151.6 158.9 150.2 160.05 148.55 160.35 148.15 160.85 147.9
M 162.8 88.5
Q 162.8 88.25 162.8 88.05 162.55 90.05 162.05 93.35
L 161.45 93.2
Q 161.75 89.7 161.95 88 162.25 85.05 160.2 83.05 159.5 82.95 159.1 82.75 158.85 82.6 158.2 82.6 157.85 82.6 157.4 82.65 155.5 83.05 153.05 85.3 153.1 85.3 153.2 85.3 153.45 85.25 153.7 85.15
L 154.8 85
Q 156.45 86.2 157.05 88.45 157.45 89.85 157.45 92.45 157.45 94.05 155.85 96.5 154.1 99.4 152.3 99.65 151.85 99.5 151.65 98.8 152.3 97.5 152.35 97.3 152.65 96.5 152.65 95.65 152.65 94.25 151.15 92.75 149.85 91.35 148.15 90.9 146.25 93.35 145.3 95.15 144.45 96.75 144.45 97.7 144.45 99.4 146.95 102.7 147.6 103.5 148.1 104.25 148.45 104.65 148.75 105.05 150.3 107.1 150.6 107.65 148.85 106.75 147.4 105.7 145.35 106.9 143.15 108.7 140.75 110.75 138.55 110.75 137.1 110.75 136.9 109.75 136.9 108.25 136.9 107.15 136.9 104.15 138.9 99.55 138.95 99.45 139 99.35 139.8 97.45 140.65 96.3 139.9 96.55 139.05 96.9 136.85 97.65 135 98.1 131.85 98.8 129.85 98.5 130.35 97.95 130.75 97.65 130.9 97.45 131.05 97.4 131.1 97.35 131.15 97.3 131.05 97.25 130.9 97.2 130.6 97.15 130.6 97.4 130.05 97.4 129.55 97.35 124.4 103.5 117.45 107.35 116.9 107.7 116.15 107.45 111.85 110.05 114.15 114.9 116.2 119.2 119.25 122.75 122.5 126.5 124.5 131 125.15 129.8 125.85 128.65 129.2 123.45 131.7 120.9
L 131.7 121.2
Q 131.1 122.4 130.9 124.45 130.75 126.35 130.75 130.85 130.75 133.55 131 134.7 131.15 135.35 131.7 136.25 136.6 126.25 140.55 120.05 141.35 117.65 142.65 115.35 143.8 113.15 145 111.1
L 145.75 111.3
Q 144.45 113.4 143.55 115.6 141.95 119.7 141.55 124.1 141.5 125 141.75 125.9 141.95 126.6 142.05 127.35 142.2 127.7 142.2 128.1 142.85 130.8 143 133.55
L 142.85 129.3 143.85 132.75
Q 144.5 132.95 145.25 133.05 146.7 133.1 148.5 132.7 149.05 132.6 149.6 132.45 152.35 131.75 155.2 131.55 153.9 130.85 151.2 129.55 147.7 127.95 147.7 125.15 148.15 123.85 148.85 123.85 149.4 123.9 149.9 123.95 149.75 123.25 149.95 122.45
L 151.25 121
Q 160.8 121.3 170.75 122.65 173.75 123.25 175.7 125.5 176.25 126.15 176.8 126.8 176.8 126.5 176.95 125.95 177.1 125.45 177.1 125 177.1 123.9 175.15 119.95 173.2 116 173.2 114.35
L 173.2 113.05
Q 174.3 114.5 175.35 115.8 174.45 114.2 173.25 111.9 173.5 112.25 176.95 117.45 177.3 118.05 177.65 118.55 179.5 120.65 181.05 122 181.05 121.45 181.05 120.9 180.7 119.2 180.6 118.5
L 180.7 118.1 180.95 118.1
Q 181.05 118.55 181.15 118.95
L 181.15 118.65
Q 181.3 116.2 181.3 115.8
L 181.5 115.8
Q 181.5 116 181.55 116.2 181.6 115.9 181.75 115.35
L 181.95 115.35
Q 182 115.8 182.2 117.25 182.3 116.25 182.35 115.6
L 181.95 115.15
Q 181.95 114.3 182.1 114.3
L 182.2 114.45
Q 182.85 114.2 184.05 115 183.55 113.8 183.65 112.4 183.95 112.7 185.3 113.55 186.9 114.5 187.55 114.7
L 187.55 112.4
Q 186.3 111.8 185.35 111.3 182.75 109.75 181.5 108.15
L 181.6 107.75
Q 179.35 107 178.1 107.2 178.1 106.7 177.75 106 177.45 105.3 177.45 104.9 177.45 103.25 178.8 102.7 179.3 102.5 182.35 101.95 185.1 101.45 188.2 99.45 190.95 97.65 191.85 97.7 190.8 100.3 190.15 101.3 191.3 100.25 191.75 99.3
L 192.1 99.45
Q 191.65 100.35 189.95 101.7 188.9 103.2 187.65 104 189.2 103.15 191.2 101.85 193.9 100.1 194.75 99.65 194.8 99.95 197.5 104.6 197.65 104.85 197.75 105.15 197.95 105.5 198.1 105.9 199 107.55 199.45 108.85 198.4 105.15 197.55 101.25 196.15 95 196.15 93.9
L 196.4 93.9
Q 196.4 94.1 198.1 96.95 199.3 98.85 199.85 99.65 198.4 95.4 197.2 92 195.7 87.55 194 82.9 193.55 82.05 193.2 81.05 193.2 81 193.15 80.95 193.05 80.55 192.95 80.15 192.7626953125 79.49453125 192.55 78.95 192.6 79.0509765625 192.6 79.2 192.75 81 192.8 83.05 192.85 83.15 192.85 83.25 192.9 84.25 192.95 85.3 192.95 86.7 192.75 88.45 192.45 90.55 191.9 91.4 192.45 91.35 192.5 91.35
L 193.1 91.45
Q 192.2 91.85 190.3 92.45 188.45 93 185.55 93.7 184.2 94.05 183.05 94.3 177.9 95.55 176.8 95.85
L 176.1 95.6 176.2 95.3
Q 176.2791015625 95.260546875 176.35 95.2 174.7005859375 95.693359375 172.95 96.2 170.65 97.35 166 100.7 163.75 102.3 162.2 103.05 161.1 103.5 160.3 103.6
L 160.2 103.6 160.2 103.55 160.05 103.4
Q 160 102.8 160.1 102.1 160.15 101.75 160.2 101.4 160.3 100.8 160.45 100.1 160.6 99.8 160.65 99.45 161.5 96.75 161.5 95.85 161.6 94.25 162.65 91.9 162.8 90.45 162.8 88.5
M 176.6 111.1
L 176.7 110.9
Q 177.2 110.95 178.2 111.3 179.1 111.55 179.6 111.55 179.5 112 179.1 112.7 177.6 111.65 176.6 111.1
M 178.4 110.75
Q 177.65 110.15 177.25 109.45 177.9 109.45 178.65 110.25 179.5 111.2 179.7 111.4 179.15 111.35 178.4 110.75
M 136.15 216.4
Q 134.75 214.05 133.35 211.7 132.65 211.5 131.75 211.25 127.45 210.1 123.2 209.75 110.1421875 208.32109375 106.4 208.1 106.3529296875 208.1029296875 106.3 208.1 105.43125 208.1640625 101.55 208.45 96.75 208.75 95.45 208.75 97.95 215.9 104.2 227.75 104.5 228.35 111.75 241.45 111.25 241.1 108.35 238.6 111.95 244.1 113.45 246.25
L 113.25 246.45
Q 109.9 242.1 106.2 236.65 102.85 233.7 101.75 232.7 104.95 238 118.9 256 131.65 272.3 135.95 277.35 136.05 277.35 136.15 277.4 136.3 277.45 136.3 277.65 137.75 273.55 138.9 270.05 141.25 263.3 142.15 263.3 144.9 263.3 148.75 270.35 150.75 274.05 151.65 276.35 152.1 276.25 152.55 276.1 152.65 275.3 152.75 274.35 152.95 272 152.95 271.2 152.75 270.35 152.45 269.2 151.9 267.2 151.7 266 151.4 265.35 150.95 264.65
L 150.95 264 155.55 264
Q 160.75 265.1 172.05 266.95 181.15 268.45 183.95 268.95 190.95 268.25 197.7 270.9 199.8 271.7 201.4 273.45 201.95 274.1 202.6 274.75 204.6 273.3 207.65 270.9 214.4 265.5 216.6 263 219.25 260.25 221.9 257.7 225.65 254.1 227.05 253 225.7 251.85 224 250.85
L 224.25 250.5
Q 230.45 252.1 232 257.5 232.5 259.4 232.5 266.25 232.5 267.45 232.45 268.7 234.05 267.45 235.45 265.1 237.6 261.5 239.5 261.05
L 239.85 261.05
Q 239.15 263.1 238.5 266 238.05 268.25 237.3 269.7 236.7 270.95 235.15 273.2 238.4 268.7 242.35 264.9 242.55 264.65 242.7 264.4
L 241.45 261.3 240.85 260.6 239.85 260.95 243.75 253.15 242.7 249.85 234.5 255.9 243.7 245.05 239.85 237.95 235.95 242.95
Q 237.45 239.25 238.75 234.95 239.4 232.95 238.3 231.2 237.2 229.65 236.45 230.45
L 236.3 229.25
Q 234.55 230.8 232.7 233.65 231.4 235.6 229.95 237.25 226.75 240.95 222.8 243.35 216.7 246.95 208.7 247.45 208.65 247.35 208.6 247.3 208.45 247 208.5 246.9 208.65 246.7 208.9 246.65 204.6 244.45 203.3 239.7
L 204.05 240.65 199.7 233.45
Q 197.6 233.8 197 236.15 196.75 237.4 196.85 238.85 201.7 244.4 200.05 251.4 199.6 253.2 199.1 255.05 198.6 257.1 199.2 259.1
L 202.35 258.75 204.15 257.5
Q 204.6 260.8 200.55 261.4 197.65 262 194.75 261.75
L 194.2 262.2
Q 185.1 259 176.1 254.3 172.9 252.55 169.35 251.4 160.2 248.35 151.35 244.7
L 149.8 245
Q 144.7 238.4 142.05 229.7 139.95 222.7 136.15 216.4
M 151.2 271
Q 150.55 269.9 149.4 267 148 263.5 147.65 262.75 148.5 263.1 150.15 266.25 151.9 269.55 151.55 271
L 151.2 271
M 235.4 243.1
L 235.85 243.2
Q 236.15 244.85 234.6 246.35 233.7 247.25 231.55 249.25
L 231.25 248.95
Q 232 248.35 233.4 246.45 234.95 244.35 235.4 243.1 Z"/>

<path fill="#D2A068" stroke="none" d="
M 182.8 116.15
Q 182.7 116.05 182.6 115.95 182.65 116.9 182.85 118.4 182.85 117.75 182.95 117.6 182.85 116.9 182.8 116.15
M 181.7 118.95
Q 181.7 118.6 181.65 118.2 181.65 118.75 181.7 119.35 181.7 119.1 181.7 118.95
M 181.15 127.35
Q 181.05 127.95 180.85 128.6 180.4 130.05 180.05 130.85 180.1 130.95 180.15 131.1 180.45 130.2 180.85 128.9 181.05 128.25 181.15 127.7
L 181.15 127.35
M 183.25 119.7
Q 183.1 119.45 183.05 119.25 182.95 119 182.9 118.85 183.05 120.8 183.35 123.7 183.5 123.75 183.65 123.85
L 183.65 123.5
Q 183.05 121.15 183 119.6 183.1 119.65 183.25 119.7
M 179.95 129
Q 180.65 126.45 180.7 126.15 180.8 125.45 180.85 124.75 179.75 124.2 179.4 123.85
L 179.4 130.05
Q 179.5 130.2 179.6 130.3 179.75 129.75 179.95 129
M 230.6 257.6
Q 230.65 258.55 230.65 259.55 230.65 259.95 230.35 262 230 264.05 230 264.45 230 264.8 230.2 266.65 230.35 268.6 230.35 269.5
L 230.5 269.55
Q 230.65 269.6 230.65 269.8 231.05 269.7 231.35 269.5 231.8 263.75 231.75 262.85 231.65 260 230.6 257.6 Z"/>

<path fill="#FCDE98" stroke="none" d="
M 134.3 97.5
Q 134.3 97.45 134.25 97.45 134 97.5 133.7 97.55 134 97.55 134.3 97.5
M 160.4 103.05
Q 160.4 103.25 160.3 103.45 160.6 103.25 160.85 103.05
L 160.4 103.05
M 199.85 99.65
Q 199.95 99.9 200.05 100.15
L 200.3 100.15
Q 200.15 100.05 199.85 99.65
M 191.05 91.4
Q 190.95 91.5 190.85 91.6 191.2 91.55 191.55 91.5 191.45 91.4 191.4 91.35 191.35 91.3 191.3 91.1 191.15 91.3 191.05 91.4
M 163.7 92.65
Q 163.2 94.15 162.65 96 162.2 97.2 161.85 98.4 163.15 95.6 163.7 92.65
M 178.7 86.4
Q 178.65 86.5 178.6 86.55
L 178.6 87.05
Q 178.65 86.75 178.7 86.4
M 192.25 70.7
Q 192.3 71.55 192.3 72.5 192.75 72.15 193.15 71.95 192.8 71.45 192.25 70.7 Z"/>

<path fill="#71644F" stroke="none" d="
M 130.6 92.35
Q 130.55 92.55 130.4 92.85 131.45 94.1 132.2 95.1
L 138.3 93.75 132.55 95.55
Q 133.05 96.1 133.45 96.55 133.85 97.05 134.25 97.45 134.3 97.45 134.3 97.5 134.65 97.4 135.05 97.3 135.15 97.25 135.25 97.2 136.2 96.8 138.45 96.1 140.45 95.5 140.65 95.5 141.15 95.3 141.65 95.15 142.2 94.95 142.65 94.85 142.65 94.7 142.7 94.5 143.25 93.1 144.25 91.75 144.9 90.75 149.3 85.8 150.2 84.5 151.15 83.5 151.45 81.25 152.55 79
L 152.55 78.5
Q 151.6 80.7 144.15 84.5 137.25 88 135.55 88
L 135.55 88.5
Q 136.5 88.5 138.85 89.45 141.2 90.45 141.55 91
L 141.55 91.5
Q 140.85 91.75 130.6 92.35
M 179.6 77.45
L 179.6 77
Q 179.5 79.35 174.85 83.85 172.5 86.2 169.6 88.5
L 169.6 85.5
Q 170.4 84 170.9 79.4 171.25 75.65 172.6 75
L 171.6 75
Q 170.2 75 162.2 79.75 162.1 79.85 161.95 79.9 162.95 81.7 163.55 83.85 163.9 85.25 164 86.55 164.1 87.15 164.1 87.75 164.1 87.85 164.1 88 164.1 88.75 164.05 89.45 164.35 88.95 164.65 88.35
L 165.05 88.35
Q 164.5 90.05 163.7 92.65 163.15 95.6 161.85 98.4 161.05 100.85 160.45 103
L 160.4 103.05 160.85 103.05
Q 164.25 100.4 166.25 99 166.45 98.9 166.7 98.75 170.05 96.5 172.5 96 172.55 95.95 172.7 95.85 172.95 95.8 173.25 95.7 174.3 95.05 174.3 95 182.8 89.9 189.65 91 190.5 87.4 190.95 80.65 191.3 76.25 191.6 72.95 189.1 74.9 184.85 79.55 181.95 82.7 178.7 86.4 178.65 86.75 178.6 87.05
L 178.6 86.55
Q 178.65 86.5 178.7 86.4 178.9 85.05 179.1 82.6 179.35 79.1 179.6 77.45
M 188.2 64.95
Q 188.65 65.9 190.3 68.15 191.25 69.35 191.9 70.3 192.05 70.5 192.2 70.7
L 192.25 70.7
Q 192.8 71.45 193.15 71.95 192.75 72.15 192.3 72.5 192.4 75.15 192.55 78.85
L 192.55 78.9 192.55 78.95
Q 192.7626953125 79.49453125 192.95 80.15 193.05 80.55 193.15 80.95 193.2 81 193.2 81.05 193.55 82.05 194 82.9 194.85 84.45 196.15 85.5 196.25 85.55 201.25 88.65 201.05 88 200.9 87.3 201.25 88.15 201.7 88.9 203.1 91.8 204.85 94.15
L 204.85 93.75
Q 204.85 93.6 204.9 93.5 204.9 93.4 204.9 93.35 204.95 93.35 205 93.3 205.05 93.35 205.15 93.45 208.25 97.85 212.95 101
L 208.8 99.1
Q 212.45 104.65 218.25 108.15
L 214.7 107.1 216.7 109.65 215.85 108.95 216.75 117.45
Q 221.2 111.7 220 104.35 219.6 101.85 220.65 99.6 222.15 96.3 222.75 92.85
L 218.6 87.75 218.55 87.15
Q 217.2 86 215.35 85 211.25 82.75 207.1 80.6 213.95 81 219.1 86.3
L 216.85 79.25 215.4 77.75
Q 211.45 77.55 208.95 74.5
L 210.2 74.55 203.85 70.75 210.7 74
Q 205.5 68.95 201.25 66.5 198.3 64.85 190.65 60.95 199 68.75 200.2 70 197.65 68.45 194.2 67.1 192.2 66.35 188.2 64.95
M 197.3 83.2
Q 206.6 91 210.7 94.15 203.05 90.1 197.3 83.2 Z"/>

<path fill="#A39469" stroke="none" d="
M 130.6 97.4
Q 130.6 97.15 130.9 97.2 131.05 97.25 131.15 97.3 131.9 96.85 132.35 97.15 133 97.5 133.7 97.55 134 97.5 134.25 97.45 133.85 97.05 133.45 96.55 133.05 96.1 132.55 95.55
L 128.6 96.8 130.35 96.35
Q 129.95 96.85 129.55 97.35 130.05 97.4 130.6 97.4
M 130.4 92.85
Q 130.35 92.95 130.3 93.15 129.7 94.5 129 95.8
L 132.2 95.1
Q 131.45 94.1 130.4 92.85 Z"/>

<path fill="#817B6D" stroke="none" d="
M 175.2 48.7
Q 175.8 48 176.45 47.35 171.85 47.65 168.1 51.05 168.05 51.1 168.2 51.4
L 167 52.1 160.45 49.4 161.6 51.25 161.75 52.3 161.25 53.4
Q 161.1 53.65 161.05 53.6 160.75 53.45 160.55 53.15 154.55 55.35 150.95 60.6 149.35 62.9 147.5 65.1 137.15 77.55 130.6 92.35 140.85 91.75 141.55 91.5
L 141.55 91
Q 141.2 90.45 138.85 89.45 136.5 88.5 135.55 88.5
L 135.55 88
Q 137.25 88 144.15 84.5 151.6 80.7 152.55 78.5
L 152.55 79
Q 151.45 81.25 151.15 83.5 154.5 80 158.4 80.35 159.5 80.45 160.4 80.85 161.15 81.25 161.75 81.8 163.1 83.05 163.1 84.9 163.1 85.5 162.8 88.05 162.8 88.25 162.8 88.5 162.8 90.45 162.65 91.9 162.7 91.9 162.7 91.85 162.85 91.55 163.85 89.8 163.95 89.65 164.05 89.45 164.1 88.75 164.1 88 164.1 87.85 164.1 87.75 164.1 87.15 164 86.55 163.9 85.25 163.55 83.85 162.95 81.7 161.95 79.9 162.1 79.85 162.2 79.75 170.2 75 171.6 75
L 172.6 75
Q 171.25 75.65 170.9 79.4 170.4 84 169.6 85.5
L 169.6 88.5
Q 172.5 86.2 174.85 83.85 179.5 79.35 179.6 77
L 179.6 77.45
Q 179.35 79.1 179.1 82.6 178.9 85.05 178.7 86.4 181.95 82.7 184.85 79.55 189.1 74.9 191.6 72.95 191.3 76.25 190.95 80.65 190.5 87.4 189.65 91 182.8 89.9 174.3 95 174.3 95.05 173.25 95.7 188.1 91.45 190.75 90.9 190.25 91.2 187.1 92.15 188.4 91.85 189.75 91.7 190.35 91.6 190.85 91.6 190.95 91.5 191.05 91.4 191.15 91.3 191.3 91.1 191.25 90.85 191.25 90.45 191.6 79.2 191.7 72.95 191.7 72.5 191.7 72.15 191.75 71.35 191.75 70.7
L 192.2 70.7
Q 192.05 70.5 191.9 70.3 191.25 69.35 190.3 68.15 188.65 65.9 188.2 64.95 192.2 66.35 194.2 67.1 197.65 68.45 200.2 70 199 68.75 190.65 60.95 198.3 64.85 201.25 66.5 205.5 68.95 210.7 74
L 214.1 75.6
Q 214.4 74.75 212.65 72.55 211.25 70.85 209.85 69.15 204.95 63.15 199.6 57.6 193.5 51.2 184.75 50.45 179.7 49.9 175 52.05 173.6 50.55 175.2 48.7 Z"/>

<path fill="#D7F0F7" stroke="none" d="
M 182.2 117.25
Q 182 115.8 181.95 115.35
L 181.75 115.35
Q 181.6 115.9 181.55 116.2 181.5 116 181.5 115.8
L 181.3 115.8
Q 181.3 116.2 181.15 118.65
L 181.15 118.95
Q 181.45 120.35 181.5 121.5 181.6 122.35 181.6 124.5 181.6 125.45 181.15 127.35
L 181.15 127.7
Q 181.05 128.25 180.85 128.9 180.45 130.2 180.15 131.1 180.090234375 131.3392578125 180 131.55 180.4515625 132.0453125 180.85 132.55 180.9880859375 132.4619140625 181.1 132.35 181.4 132 181.65 131.75 181.85 131.6 182.05 131.4 182.4 128.85 182.5 128.05 182.6 126.75 182.6 124.35 182.15 118.6 182.15 118.05 182.15 117.6 182.2 117.25
M 181.65 118.2
Q 181.7 118.6 181.7 118.95 181.7 119.1 181.7 119.35 181.65 118.75 181.65 118.2
M 183.05 128.9
Q 182.9251953125 129.3158203125 182.85 129.7 182.88125 129.6873046875 182.9 129.65 183 129.45 183.05 128.9 Z"/>

<path fill="#BB8153" stroke="none" d="
M 181 122.85
Q 181 122.4 181.05 122 179.5 120.65 177.65 118.55 179.45 121.2 181 122.85 Z"/>

<path fill="#919ABE" stroke="none" d="
M 143.35 151.6
Q 142.65 152.65 142 153.85 140.25 156.85 139.15 160.05 139.05 160.35 138.85 160.7 139 161.15 139.2 161.6
L 139.25 161.6 142.5 157.35
Q 143.5 158.7 141.9 159.5
L 140.4 163 138.7 163.4
Q 132.5 158.9 130.35 151.5 130.05 150.4 129.65 149.4 130.55 159.35 136.35 166.95 138.25 169.45 141.1 170.4
L 144.25 165.3 142.2 171.5 139.75 171.8 134.25 166.5
Q 136.6 174.2 138.85 182.95 140.3 188.55 140.2 194.25 143.1 204 144.5 209.35
L 144.5 208.85
Q 146.15 204.85 146.35 203.2 146.5 202.25 146.5 194.55 146.0505859375 182.56796875 146 177.95 146.01171875 178.25 146.5 178.25 146.35 179.05 148.15 186.1 150.05 193.25 150.05 193.75
L 150.05 193.25
Q 149.25 191.3 146.7 174.85 144.65 161.4 143.35 151.6
M 62.75 139.85
Q 67.9 135.55 74.2 132.95 80.25 130.45 86.75 129.95 65.45 134.45 56.05 153.75 56.35 153.95 56.85 154.25 59.8 156.3 70.9 165.9 86.65 179.5 88.4 180.75 87.35 180.75 87.35 181.25 83.2 179.85 80.7 182.55 80 183.35 78.4 185.1 76.85 186.6 74.85 187.25 79.45 187.25 84.25 187.55 87.5 187.75 89.95 188.05
L 89.95 187.95
Q 98.65 187.2 105.9 188.05 106.05 188.05 106.9 188.2 107.35 188.25 108 188.35 107.95 188.3 107.85 188.2 107.15 187.4 106.05 186.1 104.7 184.5 104.4 184.3 105.95 184.3 109.35 184.05 112.75 183.85 113.95 183.85
L 113.95 182.75
Q 112.7 182.2 106.4 175.15 104.75 173.3 103.35 171.7 103.15 171.6 102.95 171.45 102 170.8 101.05 170.2 95.05 166.2 90.15 163.9 94.15 165.2 99.25 168.05 100.2 168.55 101.15 169.15 100.7 168.55 100.25 168.05 100 167.75 99.8 167.5 98.9 166.95 97.95 166.45 95.75 165.15 93.5 164.05 95.5 164.75 97.45 165.7 98.2 166.05 98.9 166.4 99.1 166.55 99.35 166.65 101.1 167.55 102.8 168.55 106.1 170.6 109.35 173.05 115.95 178.7 119.7 181.8 120.65 182.65 121.45 183.25
L 120.7 183.45
Q 120.65 183.4 120.5 183.3 111.25 175.5 109.55 174.2 108.9 173.7 108.25 173.2 109.7 174.5 111.45 176 111.85 176.4 112.2 176.7
L 122.9 186.3 122.9 185.8
Q 122.85 185.75 121.5 183.3 121.15 182.65 120.7 181.85
L 120.65 181.8
Q 118.5 178.1 117.2 176.6
L 113.2 172.6
Q 119.1 174.85 123.9 179.35 125.05 180.45 126.3 181.6 126.45 181.2 126.55 180.8 127.45 177.6 126.3 174.5 125.9 173.45 125.25 172.55 124.85 171.95 124.25 171.35 119.55 166.6 116.45 160.8
L 124.8 168.25 114.9 145.6 121.85 155.6
Q 122.35 155.5 120.85 151.75 116.95 141.8 110 133.9 110.6 134 111.2 134.25 112.9 134.9 114.4 136.65
L 114.45 136.65
Q 114.85 136.65 117 139.9 119.1 143 120.95 146.6 120.35 145.25 119.75 143.75 118.55 140.6 117.5 137 116.4 133.35 115.1 127.8 117.4 132.15 120.15 141.8 120.8 144.1 121.5 146.75
L 120.95 146.6
Q 121.3 147.2 121.55 147.8 127.35 159.15 126.6 164.9 127.2 163.7 128 161.25 128.8 158.7 129.2 157.6 127.5 150.05 126.1 142.45 125.2 137.45 123.45 132.9 121.05 126.35 116.95 120.55 114.3 119.85 113.05 116.55 111.75 113.25 112.15 109.9 112.5 107.3 115.15 106.4
L 113.7 105.15 112.1 105.05
Q 105.9 112.9 96.1 115.5 94.85 115.9 93.9 116.6 90.25 119.25 86.15 121.3 84.95 121.9 83.55 121.8 83.35 121.5 83.15 121.25 82.05 121.45 81 121.75 73.35 124.2 66.2 127.75 54.7 133.5 47.45 143.95 42.25 151.45 41.65 160.2 41.4 163.2 39.1 164.65 34.45 167.4 35.05 172.15 35.2 173.4 34.45 174.4 31.8 177.9 30.1 181.95 23.7 194.6 22.75 209.05 22.4 214.05 21.5 218.8 18.8 233.2 19.6 247.7 19.8 251.15 20.1 254.55 20.45 259.3 20.6 264.1 21.1 277.05 21.45 290 21.5 291.25 21.55 292.5 21.75 298.05 20.5 303.4 20.2 304.6 20.15 305.85 20.15 306.75 20 307.7 26.45 311.35 33.7 312.75 34.45 312.9 35.15 313.1 35.75 313.15 36.3 313.3 36.25 313.2 36.15 313.1 35.05 311.4 33.55 309.3 32.25 307.45 32.25 306.65
L 32.75 306.65
Q 40.95 307.8 48.15 310.65 53.45 312.65 61.1 312.65 65.5 312.65 75.05 303.45 78.9 299.65 89.9 287.55
L 87.05 287.55
Q 86.9 287.55 86.75 287.65 81.95 289.8 76.95 292.45 72.35 294.95 67.9 296.9 63.4 298.8 60.85 299.45 62.55 297.95 67.85 295.45 73.9 292.8 76.2 291.75 76.8 291.45 77.35 291.15 73.7 292.65 68.5 294.65 61.05 297.55 51.75 301.1
L 51.75 300.6
Q 52.6 297.8 61.85 292.35 71.9 286.4 73.85 283.55 72 282.8 58.95 277.25 45.9 271.8 42.3 270
L 42.75 270
Q 47.7 271.95 54.5 272.35 57.3 272.5 71.6 272.5 82.05 272.5 82.3 272.5 91.4 272.2 91.4 270.5 91.4 266 84.8 260.3 77.35 253.9 67.85 252.45 65.4 252.1 55.35 245.6 45.9 239.6 40.75 235.4
L 42.75 235.4
Q 53.75 237.95 57.05 237.95 58.55 237.95 58.85 237.8 59.25 237.6 59.85 236.45 58.9 235.85 51.6 231.2 44.8 226.75 44.8 225.9 44.8 225.15 45 224.95
L 45.25 224.9 53.8 224.9
Q 52.45 224 45 219.9 37.6 215.5 35.2 211.85
L 35.7 211.35
Q 61.55 215.15 65.35 215.85
L 67.35 215.85 67.35 215.35
Q 66.2 214.8 62.55 211.6 60.6 209.9 57.8 207.4 57.65 207.3 47.25 201.1 37.25 195.05 37.25 194.8 37.25 194 37.5 193.85
L 37.75 193.8
Q 41.4 193.1 44.45 192.55 50.4 191.45 50.8 190.8 50.5 190.55 44.4 186.25 38.3 181.8 37.75 180.75
L 39.75 180.75
Q 49.9 184.15 53.25 183.85 53.25 179.75 52.5 178.65 51.8 177.55 51.75 171.8 51.75 171.5 51.75 171.25 51.75 169 51.9 166.9 51.2 171.25 51.25 175.75 50.95 173.75 50.8 171.8 49.3 151.9 63.6 137.4 66.8 134.1 70.65 131.6
L 73 130.8 62.75 139.85
M 107.1 113.85
L 107.4 113.85
Q 107.75 116.2 111.55 120.7 113.45 122.85 114.5 124.5 115.4 125.15 116 125.7 115.4 125.3 114.8 124.95 115.75 126.4 116 127.45 115.9 127.35 115.75 127.25 118.2 131.75 120.9 139.05 120.9 139.15 120.95 139.25
L 120.45 139.1
Q 119.5 136.65 117.3 131.75 115.85 128.6 114.95 126.5 113.95 125.4 112.35 123.45 105.7 119.2 103 116.8 105.15 117.85 109.9 121.15 110.8 121.7 111.45 122.3 111.15 121.8 110.8 121.25 106.95 116.05 106.95 114.85 106.95 114.15 106.95 114.1 107 114.1 107.1 113.85
M 101.15 131.75
Q 101.15 131 101.2 130.7 101.25 130.7 101.55 130.3
L 103.15 130.2
Q 103.45 130.4 105.45 131.3 107.25 132.1 107.85 132.65
L 107.9 132.7 106.65 132.9
Q 106.45 132.8 106.25 132.65 105.45 132.2 104.5 131.75 103.05 131.1 102.05 131.05
L 102.05 131.15
Q 107.05 136.8 110.1 140.2 111.45 141.65 112.45 142.7
L 112.1 142.7
Q 111.85 142.45 111.55 142.25 109.2 140.05 105.9 136.95 101.15 132.4 101.15 131.75
M 94.1 132.9
L 94.65 132.85
Q 95.6 133.1 98.7 134.65 101.85 136.15 102.4 136.65 98.6 135.75 93.4 133.2 93.5 133.05 94.1 132.9
M 110.35 160.85
Q 106.95 158.05 106.75 158 105.4 157 97 152 101.65 153.2 106.5 157 111.45 161.4 113.95 163.2 112.5 162.55 110.35 160.85
M 120 170.25
L 119.6 170.25
Q 117.2 164.15 102.05 152.95 107.2 155.55 112.8 160.95 118.4 166.45 120 170.25 Z"/>

<path fill="#5B6E9C" stroke="none" d="
M 167.6 171.6
Q 165.1 167.8 164.2 163.2
L 158.75 167 155.1 166.35 156.6 158.4 152.75 158.85
Q 154.2 160.45 151.4 159.65 150 159.2 149.35 158.05 149.2 157.8 149.15 157.6 148.75 156.6 148.95 155.45 149.4 153.15 151.2 151.4
L 147.75 147.25
Q 146.25 147.45 144.25 150.3 143.8 150.95 143.35 151.6 144.65 161.4 146.7 174.85 149.25 191.3 150.05 193.25
L 150.05 193.75
Q 150.05 193.25 148.15 186.1 146.35 179.05 146.5 178.25 146.01171875 178.25 146 177.95 146.0505859375 182.56796875 146.5 194.55 146.5 202.25 146.35 203.2 146.15 204.85 144.5 208.85
L 144.5 209.35
Q 143.1 204 140.2 194.25 140.2 195.8 140 197.4 137.8 194.65 137.75 190.7 137.75 187.65 137.3 184.8 136 180.75 134.6 176.2 134.35 175.4 134.05 174.65 132.6 171.25 131.65 167.65 130.35 162.6 129.2 157.6 128.8 158.7 128 161.25 127.2 163.7 126.6 164.9 126.55 165.3 126.5 165.7
L 126.5 165.2
Q 126.55 165.05 126.6 164.9 127.35 159.15 121.55 147.8 121.3 147.2 120.95 146.6 119.1 143 117 139.9 114.85 136.65 114.45 136.65
L 114.4 136.65
Q 114.75 137 115.05 137.45 117.65 141 119.6 144.9 121.55 148.6 122.85 152.65 125.25 160.05 126.4 167.85 126.55 169 126.35 170.15 129.4 174.9 128.35 180.55 128.05 182.05 127.85 183.6
L 127.85 189.9 129.6 197.25 131.15 182.05
Q 131.7 185.3 131.3 189.3 130.65 195.85 129.4 202.35
L 140.2 219.3 138.05 208.75
Q 138.7 211.5 139.4 214.25 140.15 217.3 141.1 220.25 141.45 221.35 142 222.45 144.7 227.7 146.85 233.15
L 149.85 199.55 150.95 198.9 151.2 198.15 151.6 203.55 155 172.55 151.6 219.5 156.15 184.55
Q 157.2 189.45 156.25 195.45 154.25 208.45 151.85 221.5 151.65 222.6 151.35 223.85 154.85 218.7 158.55 213.6 163.05 207.3 166.3 200.25 167.55 197.7 168.45 194.9 169.75 190.85 171 186.85 171.35 185.85 171.35 184.8 171.4 181.1 174.55 181
L 171.3 193.1
Q 172.95 191.35 174.75 189.8 176.8 188.1 179.45 188
L 170.75 195.1
Q 172.45 194.4 175.4 192.6 179.7 189.9 184.4 189.45
L 170.3 196.4 168.95 201.7
Q 176.8 196.4 186.2 195.1 187.6 195.05 189 195.05
L 186.15 186.25 186.25 186.1
Q 174.55 182.05 167.6 171.6
M 137.6 201.45
Q 139.35 202.4 140.85 210.1 141.65 214.35 143 222.2 142.05 220.9 140.4 213.55 138.35 203.9 137.6 201.45
M 37.5 193.85
Q 37.25 194 37.25 194.8 37.25 195.05 47.25 201.1 57.65 207.3 57.8 207.4 60.6 209.9 62.55 211.6 66.2 214.8 67.35 215.35
L 67.35 215.85 65.35 215.85
Q 61.55 215.15 35.7 211.35
L 35.2 211.85
Q 37.6 215.5 45 219.9 52.45 224 53.8 224.9
L 45.25 224.9 45 224.95
Q 44.8 225.15 44.8 225.9 44.8 226.75 51.6 231.2 58.9 235.85 59.85 236.45 59.25 237.6 58.85 237.8 58.55 237.95 57.05 237.95 53.75 237.95 42.75 235.4
L 40.75 235.4
Q 45.9 239.6 55.35 245.6 65.4 252.1 67.85 252.45 77.35 253.9 84.8 260.3 91.4 266 91.4 270.5 91.4 272.2 82.3 272.5 82.05 272.5 71.6 272.5 57.3 272.5 54.5 272.35 47.7 271.95 42.75 270
L 42.3 270
Q 45.9 271.8 58.95 277.25 72 282.8 73.85 283.55 71.9 286.4 61.85 292.35 52.6 297.8 51.75 300.6
L 51.75 301.1
Q 61.05 297.55 68.5 294.65 73.7 292.65 77.35 291.15 79.5 290.05 81.15 289.2 83.95 287.8 85.65 286.95 90.65 284.55 95.15 284.15 95.15 284.2 95.3 284.3 95.4 284.4 95.4 284.55 92.9 284.95 87.05 287.55
L 89.9 287.55
Q 78.9 299.65 75.05 303.45 65.5 312.65 61.1 312.65 53.45 312.65 48.15 310.65 40.95 307.8 32.75 306.65
L 32.25 306.65
Q 32.25 307.45 33.55 309.3 35.05 311.4 36.15 313.1 36.25 313.2 36.3 313.3 45.8 315.2 55.55 316.85 55.8 316.85 56.05 316.85 58.75 316.9 61.45 316.9 67.35 313.1 73.6 310.15 85.7 304.6 98.2 299.8
L 98.45 298.9 108.25 292.65
Q 106.35 286.7 101.35 282.75
L 79.35 280.05 85.65 279.75 67.85 277.55
Q 78.2 276.05 88.5 278.1 96.25 279.8 104.05 281.5 108.75 282.6 113.5 282.85 114.35 282.4 114.9 281.65 117.35 278.5 115.15 274.7 112.05 269.15 107.45 265 102.55 260.6 96.75 257.45 91.2 254.45 85.25 251.85 73.8 246.7 62.05 242 74.8 245.4 86.45 251.95 90.1 254 94.25 254.05 95.95 254.05 97.65 253.7 99.9 250.35 96.85 247.15 91.4 241.4 84.9 236.6 69.7 234.9 55.95 228.7
L 93.05 236.6
Q 79.15 233.2 65 228.1 56.55 225.1 49.95 221
L 87.75 233.55
Q 80.55 221.75 71.2 212.2
L 77.5 210.75 75.65 203.3 74.65 202.4
Q 73.25 202.1 72 200.85 71.05 199.9 70.65 198.6 70.5 198 70.4 197.5 61.35 197.1 52.85 194.6 51.05 194.15 49.3 193.35
L 70.35 197.1
Q 70.15 191.9 68.05 187.1 67.6 186.05 66.7 185.25 64.05 183 61.95 180.5
L 66.65 184.3 60.65 175.5
Q 61.3 175.85 61.85 176.3 68.15 181.5 71.05 188.9 71.4 189.85 71.3 190.9 70.8 195.3 72.8 199.05 73.3 200.05 74.4 200.95 79.8 197.05 87.15 197.5 90.15 197.3 93.1 197.3 110.1 197.45 127.15 198.9 127.2 198.7 127.3 198.55 128.3 197.15 127.9 195.3 127.75 194.3 127.2 193.25 126.95 192.85 126.75 192.55 126.55 192.15 126.3 191.85
L 125.2 190.7 126.8 186.1 117.2 176.6
Q 118.5 178.1 120.65 181.8
L 120.7 181.85
Q 121.15 182.65 121.5 183.3 122.85 185.75 122.9 185.8
L 122.9 186.3 112.2 176.7
Q 111.85 176.4 111.45 176 109.7 174.5 108.25 173.2 105.6 171.25 102.95 169.5 101.35 168.45 99.8 167.5 100 167.75 100.25 168.05 100.7 168.55 101.15 169.15 101.55 169.35 101.9 169.6 105 171.5 107.25 173.2 109.75 175.1 111.25 176.7 111.4 176.9 111.5 177.05 110.15 176.4 103.35 171.7 104.75 173.3 106.4 175.15 112.7 182.2 113.95 182.75
L 113.95 183.85
Q 112.75 183.85 109.35 184.05 105.95 184.3 104.4 184.3 104.7 184.5 106.05 186.1 107.15 187.4 107.85 188.2 107.95 188.3 108 188.35 111.8 188.95 122.05 190.6
L 121.95 190.9
Q 111.7 190.3 105.45 189.8 107.6 190.55 108.1 190.6 107.9 190.9 106.9 190.9 101.45 190.25 90.85 190.05
L 81.4 189.8
Q 85.85 189.4 93.1 189.05 96.4 188.9 98.1 188.9 97.75 188.8 97.5 188.8
L 94.4 188.8
Q 93.25 188.5 91.6 188.25 91.3 188.2 91.05 188.2 90.8 188.2 90.6 188.25 90 188.35 89.95 188.35
L 89.95 188.05
Q 87.5 187.75 84.25 187.55 79.45 187.25 74.85 187.25 76.85 186.6 78.4 185.1 80 183.35 80.7 182.55 83.2 179.85 87.35 181.25 87.35 180.75 88.4 180.75 86.65 179.5 70.9 165.9 59.8 156.3 56.85 154.25 56.35 153.95 56.05 153.75 56.05 153.85 56 153.9 55.95 154.05 55.85 154.25 53 160.35 51.9 166.9 51.75 169 51.75 171.25 51.75 171.5 51.75 171.8 51.8 177.55 52.5 178.65 53.25 179.75 53.25 183.85 49.9 184.15 39.75 180.75
L 37.75 180.75
Q 38.3 181.8 44.4 186.25 50.5 190.55 50.8 190.8 50.4 191.45 44.45 192.55 41.4 193.1 37.75 193.8
L 37.5 193.85
M 46.9 186.55
Q 51.75 188.9 60.25 191.8 68.5 194.65 69.8 195.3 63.75 194 59.2 192.55 52.25 190.15 46.9 186.55
M 73.85 192.15
Q 75.4 190.7 76.9 190 79.2 188.85 82.65 188.85 82.65 188.95 82.95 189.1 79.6 189.5 76.85 190.95 74.35 192.2 73.85 192.15
M 56.9 241.2
Q 60.3 241.7 72.05 246.95 86.8 253.6 91.35 255.25 83.5 252.95 73.1 248.5 71.45 247.75 56.9 241.2 Z"/>

<path fill="#CD9176" stroke="none" d="
M 191.55 204.55
Q 191.25 203.45 190.95 202.3 186.7 200.55 182.2 200.95
L 173.3 213.25 182.7 201.45
Q 184.1 203.15 181.95 205.75 178.4 210.05 174.75 214.4
L 195.05 238.85 195.55 234.55 199.2 232.3
Q 193.85 221.6 192.45 209.6 192.1 206.95 191.55 204.55 Z"/>
</g>
</defs>

<g transform="matrix( -0.9195556640625, 0.11627197265625, 0.11627197265625, 0.9195556640625, 251.1,34.8) ">
<g transform="matrix( 1, 0, 0, 1, -0.05,0) ">
<g transform="matrix( 1, 0, 0, 1, 0,0) ">
<use xlink:href="#flash0_ai_04_Fonte__Clip_Group__0_Layer3_0_FILL"/>
</g>

<mask id="Mask_Mask_1">
<g transform="matrix( 1, 0, 0, 1, 0,0) ">
<use xlink:href="#Mask_flash0_ai_04_Fonte__Clip_Group__0_2_MASK_0_FILL"/>
</g>
</mask>

<g mask="url(#Mask_Mask_1)"/>
</g>
</g>

<g transform="matrix( 1, 0, 0, 1, 0,0) ">
<use xlink:href="#Layer0_0_FILL"/>
</g>
</svg>
