<?xml version="1.0" encoding="UTF-8"?>
<svg id="Camada_1" data-name="Camada 1" xmlns="http://www.w3.org/2000/svg" viewBox="0 0 60 60">
  <defs>
    <style>
      .cls-1 {
        fill: #92a26e;
      }

      .cls-2 {
        fill: #b6bd79;
      }
    </style>
  </defs>
  <path class="cls-2" d="M4.65,31.1c.02-.27.32-.94.03-1.14.44.14.18,1.08.15,1.44-.03.38.25,1.43-.32,1.38.1.77.05,1.46.41,2.15.07.13.07.25-.02.35-.15.16.04.61.09.78.16.63.27,1.29.5,1.91.03-.29.39.25.42.33.05.14-.15.2-.24.22.08.25.16.5.24.75.14.41.32.81.49,1.22.4-.15.22-.61.32-.92.13.31.26.62.4.92.08.16.15.32.23.47.17.35.27.36.08.68-.21.37.12.72.26,1.04.04.11.04.22,0,.33-.02.21.21.46.31.62.12.2.32.75.56.82.33.1.53-.15.65.35.07.32.32.32.48.57.18.26.09.62.17.91.2.24.4.22.65.06.63-.4.19.33.07.54-.06.07-.06.14,0,.21.23.16.04,0,.17.25.12.23.35.39.54.55.56.49.88.87,1.46,1.4.96.86,1.98,1.61,3.06,2.32.43.28.84.43,1.31.59.14.05.44.16.26.36.39.22.73.55,1.01.88.15.17,1.08,1.27,1.32,1.06.05-.2.16-.24.33-.1.22.08.44.18.67.26.07.02.98.15.91-.04-.06-.16-1.03-.42-1.2-.53-.41-.26-.89-.33-.68-.89.27.13.23.31.38.56.13.22.38.31.61.38.2.06.34.2.46-.04.18-.34.39-.11.72.02-.07.12-.14.25-.2.37.47.15.71.62,1.21.76.56.15,1.21-.07,1.73.1.28.09.56.18.84.29.24.1.56.24.82.16.1-.03.14-.1.12-.2.25.12.34.05.29-.21.72.12,1.31.19,2.02.24.23.02,1.43.53,1.54.17-.16,0-.31,0-.47-.02.04-.17,2.16-.1,2.47-.12.4-.03.81-.06,1.21-.11.2-.02.4-.05.6-.08.04,0,.96-.22.46.04.62-.14,1.26-.16,1.88-.27-.3-.33.36-.3.65-.37.36-.1.71-.2,1.06-.31.67-.22,1.2-.39,1.86-.57-.28-.13.37-.26.44-.29.36-.15.71-.32,1.05-.49.61-.3,1.21-.63,1.79-.98.05.11.1.23.14.35.36-.27.73-.53,1.06-.83-.19-.31.41-.67.74-.74.34-.06.71-.06,1.03-.2.39-.16.31-.28.37-.58.05-.25.7-.43.58-.75-.18-.45.57-.25.83-.15.12-.09.24-.19.34-.31.25-.25.07-.25-.1-.5-.28-.41.51-.74.87-.66-.04.11-.02.27.04.37.12-.11.22-.2.06-.35.32.1.34-.09.56-.35.32-.38.21-.58.02-1.03.3,0,.6-.05.9-.06.22-.3.39-.62.57-.94-.18.03-.64.26-.72-.04.38-.54.75-1.09,1.09-1.66.09.15.08.3-.07.42.37.09.39.06.56-.26.1-.19.35-.5.35-.73,0-.18-.5-.98.12-.79.37.12.33-.05.48-.4.14-.32.28-.64.39-.98-.17.06-.34.13-.51.19.31-.7.6-1.41.84-2.14.23-.66.51-1.11.88-1.7.12-.18.34-.36.34-.6,0-.41-.47-.29-.38-.75.1-.5.37-.04.65-.35.16-.18.1-.47.13-.69-.23.02-.49-.01-.43-.3.06-.27.01-.57.08-.83.05-.22.54-.23.55-.32.04-.61.1-1.21.11-1.82-.16.11-.35.18-.54.22.01-.21-.05-.68.11-.78.15-.1.24-.31.32-.46.24-.47.04-.82-.02-1.32-.09.12-.22.19-.37.2,0-.15.02-.68.34-.43-.07-.66-.15-1.31-.25-1.96-.06.09-.14.18-.22.25-.02-.23-.13-.35.11-.41.14-.04.22-.09.19-.24-.07-.3-.29-.58-.48-.82-.12-.85-.17-1.66-.42-2.45-.66-2.1-1.02-4.24-1.88-6.29-.89-2.12-2.07-4.14-3.66-5.82-.8-.84-1.7-1.57-2.68-2.19-.49-.31-1.01-.67-1.55-.88-.14-.07-1.37-.63-.8-.85-.46-.21-.9-.53-1.3-.83-.48-.36-.97-.57-1.49-.86-.44-.22-.82-.54-1.25-.77-.56-.3-1.01-.16-1.59-.05-.43.08-.99-.28-1.39-.41-.3-.1-.57-.18-.88-.2-.15,0-.55-.03-.52.22.04.18.62.23.76.31-.42.08-.83.13-1.26.11-.1,0-.45.14-.29-.11-.38.02-.73-.31-1.14-.33-.06,0-1.1-.22-.99-.32-.08.07.12.52.17.6-.23-.09-.57-.1-.82-.07-.06,0-.2.03-.17.13-.33-.03-.66-.04-1-.04.28-.03,2.07.02,1.8-.52-.24-.47-2.39-.3-2.88-.3-2.06,0-4.12.26-6.1.8.3-.4-.33-.3-.56-.27.19-.46-.94-.26-1.14-.26-.56,0-.86-.08-1.41.19-.35.18-.66.31-1.03.41-.57.18-1.17.3-1.74.47-.48.14-.37.45-.67.69-.39.31-.8.83-1.14,1.21-.3.35-.48.84-.91,1.06.23.09.82.37.49.62-.25.19-.85-.21-.72-.5.11-.09-.47-.14-.43-.47-.19.16-.38.33-.54.52-.23.28-.27.63-.6.76-.5.2-1.07.2-1.47.58-.16.15-.28.32-.4.49-.08.12-.17.61.16.42.35-.19.51-.62.93-.81-.58.55-1.11,1.04-1.55,1.71-.09.14-.17.35-.3.45-.2.15-.37-.14-.58,0-.33.25-.74.87-.6,1.28-.36-.28-.72.53-.93.81-.2.26-.51.59-.08.71.43.12.88.19,1.25.46-.4.6-1.09-.11-1.49-.47-.04.25-.11.5-.16.75-.05.24.03.67-.07.88-.13.26-.61.13-.65-.13-.26.57-.57,1.11-.77,1.69-.25.67-.12,1.41-.3,2.1-.31,1.19-1.11,2.18-1.13,3.44,0,.21-.14.23-.23.4-.12.22-.09.48-.12.72-.09.7-.12,1.22,0,1.91.12.74-.01,1.56-.26,2.25-.11.32-.32.85.12.94-.36,0-.35,1.46-.28,1.64.38.99.32-.23.36-.47ZM5.77,37.13c0-.06.02-.1.08-.12.07.24.13.48.21.71-.31.11-.22-.44-.29-.59ZM6.6,39.31c-.21-.26-.39-.55-.59-.83.49-.13.45.45.59.83ZM8.25,43.68c-.14-.2-.27-.42-.36-.65-.11-.28.02-.38.22-.6.31.55.45.68.14,1.25ZM12.85,48.99c.01-.15.02-.29.04-.44.09.08.17.16.26.25-.1.06-.2.13-.3.19ZM13.91,49.99c-.17-.15-.09-.36,0-.52.17.14.34.28.52.42-.13.1-.36.24-.52.1ZM18.66,52.7c.1.02.19.07.28.12-.1,0-.19-.02-.28-.12ZM48.3,12.94c.08.09.17.19.25.29-.15.05-.29.1-.44.16.07-.15.13-.3.19-.45ZM41.99,7.06c-.01.05-.02.1-.03.15-.12-.04-.25-.09-.37-.13.18-.09.37-.29.41-.02ZM40.47,6.72c-.53-.16-1.07-.3-1.6-.44.55.09,1.1.2,1.6.44ZM37.65,5.63c.24.05.43.22.69.17.33-.06.63-.17.94,0-.28.28-.54.44-.92.35-.55-.13-1.11-.25-1.67-.35.07-.01.13-.04.19-.09.06-.15-.91-.25-.93-.25.57-.06,1.14.06,1.7.17ZM28.89,5.25c-.23,0-.46-.01-.68-.02.23-.03.45,0,.68.02ZM18.84,5.52c-.33.1-.62.28-.92.45,0-.1-.06-.16-.16-.18.36-.09.71-.2,1.08-.26ZM15.93,8.32c.06-.18.5-.2.49-.05-.02.29-.36.16-.49.05ZM14.92,9.48c-.19.16-.3.27-.44-.03.13-.03.33-.05.44.03ZM13.47,9.65c.02.09.15.28.08.37-.11-.15-.41-.04-.54.01-.16.06-.32-.02-.48-.06.31-.12.62-.22.94-.33ZM11.25,11.62c.28-.4.54-.56.92-.18.26.26.41.25.13.56-.35-.13-.7-.25-1.04-.38ZM7.34,19.41c.1.2-.11.45-.19.64-.15-.31-.02-.42.19-.64Z"/>
  <path class="cls-1" d="M23.55,22.75c-.9-.36-1.79-.77-2.67-1.18.12-.06.14-.14.07-.22-.15.14-.19.04-.29.07.08-.03.17-.06.26-.08-.12-.03-.24-.04-.36-.03-.27.01-.41-.08-.65-.2-.45-.26-.91-.5-1.37-.76-.48-.26-.98-.51-1.48-.73-.17-.3-.88-.2-.8-.48-.22.01-.3.02-.52-.05-.24-.08-.32-.14-.41-.24.02.02-.53-.06-.49-.05-.27-.08-.54-.15-.81-.22-.32-.08-.86-.3-1.04.12-.12.27.18.6.36.77.42.4.91.73,1.42,1.01.93.53,1.92.91,2.83,1.47,1.03.64,2.01,1.4,3.14,1.85-1.55.49-3.01,1.26-4.46,1.97-.66.32-1.31.64-2.01.88-.59.2-1.56.4-1.97.91-1.03,1.27,2.38.75,2.8.68.15-.03.33-.2.44-.21.16,0,.32.02.48,0,.1,0,.33-.02.29-.19-.06-.28-.31-.06-.45-.09.22-.2.78-.35,1.06-.46.26.05.31.02.48-.2.38-.16.3.26.66.05.39-.23.3-.49.8-.51.15,0,.94.05.81-.28.02.05-.61.07-.63.07.33-.13.55-.14.86-.36.28-.11.27.16.59.09.13-.03.55-.12.71-.26.13-.11.18-.29.24-.44.27-.11.54-.21.8-.32-.08.1-.17.18-.28.24-.1.16-.17.17-.21.04-.07.05-.1.11-.09.2.2-.03.4,0,.66-.12-.08.04-.09.09-.03.17.27-.25.66-.31.94-.55-.01.12-.21.38-.34.4.31-.12.43-.29.68-.43.4-.22,0-.63.22-.8.53-.41.35-1.29-.24-1.53ZM17.77,27.01c.16-.17-.58.17.22-.16-.06.08-.13.13-.22.16ZM20.44,25.85c.1-.04.19-.08.29-.11-.06.04-.18.09-.29.11ZM20.86,25.68s.09-.03.13-.05c-.06.09-.1.11-.13.05ZM21.12,25.58c.05-.02.11-.04.16-.06-.05.06-.11.12-.16.06ZM22.24,25.44c-.1,0-.14.1-.24,0,.05-.02.27,0,.24,0ZM22.47,25.04s.03-.01.05-.02c0,.03-.02.03-.05.02Z"/>
  <path class="cls-1" d="M46.88,28.29c.23.05.69.24.75-.14.06-.31-.7-.48-.91-.58-.89-.39-1.77-.8-2.66-1.2-1.79-.8-3.6-1.57-5.48-2.11,1.61-1.22,3.42-2.15,4.99-3.44.67-.55,1.3-1.19,1.73-1.95.07-.13.38-1.09-.13-.69-.31.25-.52.17-.9.18.08-.04.26-.18.12-.27-.24-.16-.28.18-.39.29-.02-.11-.16-.2-.26-.1-.13.14.16.33.16.18.02.1-.23.41-.3.47-.28.25-.7.25-1.05.33-.85.2-1.23,1.23-2.04,1.55.03-.05.04-.11.01-.16,0,0-1.06.77-1.14.82.04-.09.04-.18,0-.27.03.03-.7.36-.72.46-.03.12.28,0,.3-.03-.08.15-.15.32-.3.41.07-.06.11-.14.12-.22-.42.25-.87.25-1.29.47-.47.24-.84.66-1.22,1,.28-.25.56-.52.88-.71-.47.52-1.13.85-1.59,1.39.12-.06.24-.05.33.02,0,.08-.24.34-.24.1-.04.07-.06.15-.07.23.38.08.49.36.78.56-.38.06.15.33.26.38-.3.14.76.38.85.45.42.32.92.34,1.33.63.25.19.27.45.71.55.38.08.77.06,1.15.13-.07-.03-.14-.07-.2-.1.28-.03.59.13.83.19.24.06.48.12.73.18.18.04.85.06.65.29.13,0,.63.24.58.1.17-.02.17.21.36.19-.02-.07.04-.23.15-.17.05.07.03.14-.05.2.09.06.18.09.29.1-.04-.07-.06-.15-.05-.24,0,.01.33.11.07.37-.09.23.08.26.24.15.19-.13-.03-.13.03-.28.04-.11.33,0,.12.14.3.1.61.21.91.3-.1-.07-.04-.23.07-.24.21-.02.2.26.02.27.69.19,1.41.34,2.09.04-.43-.01-.82-.02-1.24-.13.19.56-.4-.08-.23-.06-.49-.11-.3-.34.09-.15.17.08.64.42.78.09ZM39.37,26.67s-.05-.07-.08-.1c.14.05.29.1.43.14-.12-.02-.24-.03-.36-.04ZM42.55,19.79s.04.08.06.12c-.03.01-.06.02-.09.04.01-.05.02-.11.04-.16ZM44.93,18.37s-.07.05-.11.01c.04,0,.07,0,.11-.01ZM44.66,18.58s-.05,0-.07-.02c.02,0,.04.01.07.02ZM44.2,18.7c0-.13.06-.14.19-.04,0,.01-.28.29-.19.04ZM42.83,19.79s-.03-.15.09-.07l-.09.07ZM42.9,19.32c-.06.04-.55.31-.76.45.2-.19.63-.61.76-.45ZM42.05,19.86c.07-.06,0,0,0,0h0ZM42.07,19.99c.03-.06.04.1-.04.12l.04-.12ZM41.69,20.51c0,.06-.03.09-.09.1-.04-.12,0-.15.09-.1ZM41.31,20.61c.05-.08.15.3-.06.13.02-.04.04-.09.06-.13ZM39.33,21.71s.07.05.1.08c-.09.08-.13.06-.1-.08ZM37.52,22.63c.14-.09.05.29,0,0h0ZM37.34,22.84c.06.03.07.07.04.14-.1-.04-.11-.09-.04-.14ZM36.38,23.73c-.06.07-.4.17-.37.14.07-.08.27-.13.37-.14ZM37.79,25.8s.05.03.08.05c-.02,0-.05-.02-.08-.05ZM45.83,28.55l-.07-.21c.1-.05.19-.03.07.21ZM44.68,28.25c-.05-.16.19-.22,0,0h0ZM45.03,28.35c-.08-.08-.05-.15.08-.19.03.08,0,.14-.08.19Z"/>
  <path class="cls-1" d="M33.97,19.62c2.4.42,3.64-1.64,4.22-3.64-.02-.01.3.18.33.12-.08-.05-.15-.1-.23-.15.06.02.07.01.04-.03.07.05.13.11.19.17,0-.18-.29-.25-.25-.42-.04-.01.23-.48.23-.55.17.18.1-.57.04-.61.09.03.48.17.56.02.11-.21-.38-.36.12-.21-.06-.07-.37-.33-.26-.47.09.05.18.08.27.11,0,0-.19-.17-.24-.2.1-.33-.22-.33-.49-.41.1.02.35.12.45.07.02-.01-.44-.15-.34-.12.07,0,.16.02.24.03-.25-.05-.52-.08-.78-.1.05-.02-.28-.36-.23,0-.09-.06-.19-.08-.29-.07-.1.05.37.18.27.11.33.17.02.34-.2.38-.71.12.24.61-.14.89-.05-.07-.11-.09-.18-.08-.03.09.07.31.03.45-.08-.06-.16-.12-.26-.15.07.03-.14.19-.06.25.05.04.46,0,.36.22-.03-.05-.07-.1-.13-.13-.09.2-.18.11-.37.19-.22.09-.06.38-.04.53-.03-.11-.03-.21,0-.32.11.25-.13.53.06.63-.12.15-.24.19-.35.31,0,0-.29-.23-.23-.04-.36-.32.09.29.02.35-.12.09-.21.22-.32.32-.08-.07-.32-.26-.36-.04-.07.41-.08.43-.47.71-.19.14-.25.18-.39.28-.04-.1-.07-.31-.17-.37,0,0,.08.34.12.4-.08.05.01-.04-.11,0-.27.1-.05.1-.2.21-.08-.33-.46.19-.53.34.02,0,.04,0,.05,0-.32.23-.58.89,0,1ZM38.97,13.79s.31.19-.01.04v-.04ZM38.59,14.25c.06.03.09.05.07.05-.03-.01-.05-.02-.07-.05ZM38.77,14.47c-.04-.08-.22,0-.2-.11.01,0,.25.05.2.11ZM38.8,14.27c-.06-.04-.13-.07-.19-.11.1-.02.29.14.19.11ZM38.4,13.38s0,.13-.14,0c-.11-.07-.06-.07.14,0ZM38.1,14c-.05.05-.11.03-.16-.06.05.02.1.04.16.06ZM38.01,14.34c.15.09-.24-.04,0,0,.02,0-.08-.02,0,0ZM37.99,14.45c-.04.07-.11,0-.15-.05.05,0,.1,0,.15.05ZM37.87,14.12l-.08-.06s.13.05.08.06ZM37.77,13.7s-.12.17-.14.25c-.04-.1-.11-.33.14-.25ZM37.63,15.06c-.02.06-.06.05-.12-.03.04,0,.08.02.12.03ZM37.12,15.54s.29.18,0,0h0ZM37.18,15.66s.02.02.04.02c-.03,0-.04-.01-.04-.02ZM35.87,17.13c.08.05.01.14,0,0,.03.02,0,.03,0,0ZM34.54,18.15s.02.03.03.05c-.01-.01-.02-.03-.03-.05ZM34.36,18.34s-.02-.03-.03-.06l.03.06ZM34.3,18.38s-.04.03-.06.04c-.06-.16,0-.12.06-.04Z"/>
  <path class="cls-1" d="M19.7,13.97c.45,1.67,1.28,3.25,2.55,4.54.6.6,1.3,1.13,2.14,1.4.44.14.91.2,1.36.09.18-.05.46-.12.56-.29.13-.22-.16-.4-.04-.52-.25-.03-.43-.19-.65-.29.12-.25.24.2.36.14.31-.15-.18-.84-.29-.57-.05.02-.12-.36-.21-.27-.18.18,0,.31.02.42-.08.07-.22-.14-.23.08.04.04-.46-.27-.25-.29-.14,0-.14.19-.29.13.11-.2.24-.65-.12-.36-.33.27-.09-.81-.41-.35,0,0,.09.43.09.49-.24-.13.02-.32-.15-.37-.26-.08-.27.11-.12-.23.21-.48-.72-.1-.75-.13.13-.09.09-.2-.06-.28.06-.02.11-.06.15-.12-.15.07-.25,0-.34-.12.09-.03.18-.04.27-.04-.07-.07.02-.19-.16-.1.06-.07.09-.15.08-.24-.05-.1-.51.14-.6.17.14-.05.16-.38-.06-.19-.1-.12.2-.45.04-.54.37.16.34-.13-.02-.11-.21,0-.25-.02-.26-.29,0-.14.28-.39.27-.4.23-.12-.22.1-.25.12.05-.04.05-.06,0-.05.08-.03.16-.06.24-.08-.15-.07-.46.03-.62.07.08-.02.13-.06.14-.14-.04-.06-.17-.05-.23-.06-.15-.03-.02-.34-.15-.43.32-.03-.12-.21-.19-.24-.17-.07-.03-.32-.31-.22.08-.06.45-.27.38-.44-.1-.23-.52.02-.1-.25-.12,0-.51.03-.55-.16.1-.03.19-.07.27-.14-.01.08-.34,0-.38-.07-.14-.23-.45.07-.6.16.08-.06.33-.2.35-.3,0-.03-.41.23-.32.17.05-.05.12-.12.18-.16-.2.16-.41.34-.58.53.03-.13-.09-.09-.17-.04-.29.17-.07.11-.03.24-.09.03-.15.08-.19.16.08.04.15.02.22-.05ZM20.77,14.62s.09-.02.14-.03c0,.01-.32.2-.14.03ZM20.73,14.38c.2-.15.14-.02.06.03l-.06-.03ZM21.05,14.08c.06-.03.09-.03.09-.02-.49.28-.12.03-.09.02ZM21.34,15.17l-.14.05c-.11.01.16-.1.14-.05ZM21.38,15.42c-.1.05-.08.03.06-.08-.02.03-.04.05-.06.08ZM20.84,14.8c-.07-.09.19-.17.33-.22-.11.08-.22.14-.33.22ZM21.09,14.79s-.1.08-.15.09c.01-.04.06-.07.15-.09ZM24.76,18.38c-.12.13,0,.19-.25.07.04,0,.21-.14.25-.07ZM23.77,17.97s-.11.03-.02-.07c-.05-.05-.26.09-.13-.12.12,0,.22.06.14.2ZM23.52,17.82s-.04-.03-.05-.04c.13-.1.15-.09.05.04ZM23.43,17.75s-.02-.02-.03-.03c.03-.01.05-.01.03.03ZM23.23,17.56s0-.02.03-.03c-.01.01-.02.02-.03.03ZM23.17,17.37s.11-.03.02.11c-.03-.01-.03-.16-.02-.11ZM22.53,16.68s-.05.08-.08.11c-.05-.04-.02-.08.08-.11ZM22.24,16.55s.12-.13,0,0c0,0,.03-.04,0,0ZM21.52,15.16c-.08.08-.18.14-.29.18.06-.07.16-.13.29-.18ZM21.37,14.98c-.11.04-.2.1-.31.14-.08.06.36-.23.31-.14ZM21.35,14.11s-.33.17-.36.19c.05-.04.34-.27.36-.19ZM20.94,13.45l-.03-.05s.35-.09.03.05ZM21.09,13.9s.1-.02.15-.02c-.11-.03-.42.28-.57.19.16-.01.3-.07.43-.17ZM20.54,14.32s-.06.02-.09.03c.08-.1.11-.11.09-.03ZM20.49,14.15l.03.03s-.17.07-.03-.03ZM20.21,13.53s.11.11-.08.11c-.12.03-.09,0,.08-.11Z"/>
  <path class="cls-1" d="M35.22,38.97s-.15-.2-.16-.22c-.16-.18.2-.12.19-.23,0-.1-.34-.08-.33-.17,0,0,.66,0,.54-.16-.05-.06-.32-.1-.33-.14-.03-.11.69-.5.16-.43-.07,0-.27.4-.44.37-.01-.25.38-.18.33-.32-.01-.04-.19-.15-.15-.19.32,0,.35-.25.29-.2-.08-.1.1-.15-.09-.2-.17-.04-.47.09-.49-.11.07,0,.14,0,.21,0-.09-.05-.07-.08.05-.09,0-.05-.02-.08-.05-.11.07.02.13.01.2-.01-.14-.02-.2-.1-.2-.24.09.02.17.05.25.09-.02-.09.14-.12-.07-.14.09-.02.16-.06.21-.14.02-.1-.52-.11-.6-.13.14.02.35-.2.05-.15-.02-.11.42-.26.34-.36.45.38.19-.23-.12-.11-.06-.38.53-.43.52-.47-.09,0-.19,0-.28,0,.06-.01.07-.03.02-.04.09,0,.17.01.26.02-.11-.12-.45-.13-.6-.14.11.03.17,0,.19-.07-.03-.03-.21-.08-.21-.12,0-.1.17-.23.09-.32.26.06-.16-.46-.23-.46.04,0,.6-.05.55-.2-.06-.18-.47-.12.03-.17-.05-.02-.49-.12-.44-.27.1,0,.2,0,.3,0-.08.02-.3-.08-.31-.17-.03-.21-.5-.11-.63-.1.11-.01.38,0,.46-.08.01-.01-.47,0-.38,0,.07-.01.17-.03.24-.04-.26.03-.53.08-.78.15.15-.14-.4-.12-.33-.02.03.03.07.06.11.09.03,0-.34-.03-.31.05.03.07.29.05.35.01-.16.1-.25.69-.3.98-.1.62-.06,1.26-.03,1.86-.1,0-.23.21-.36.11-.37-.3-.05.09-.41.04.17-.78-.18-.18-.37-.2-.13,0-.53-.62-.56-.22,0-.04.39.35.43.37-.05.34-.32-.26-.31-.25-.12-.09-.29.12-.39.04.09-.34-.21-.26-.21-.26-.13.02-.2-.1-.31.02-.25.28.03.37-.45.37.11-.15.16-.15.14-.01.05-.05.07-.1.07-.17-.18-.03-.24,0-.25-.2-.1.13-.25.11-.39.1.06-.07.12-.13.2-.17-.1,0-.14-.11-.22.03-.16-.46-.39.13-.49.26.07-.12-.22-.29-.21-.05-.18,0-.27-.35-.47-.28.04-.02.27-.02.27-.08,0-.21-.2-.12-.3-.04-.17.13-.1.24-.35.19-.13-.03-.26-.08-.38-.14.05-.11.04-.19-.03-.27-.01.07-.02.15-.03.22-.02-.06-.03-.11.01-.22-.14.06-.25.33-.3.46.02-.26-.13-.11-.23-.02-.14.12-.34-.11-.51-.05.1-.15-.69.09-.71.17-.03-.39-.15-.79-.21-1.2-.04-.26-.09-.51-.17-.76.2-.17-.36-.23.06-.25-.2-.1-.46-.24-.13-.3,0,0-.23-.09-.25-.12,0-.29-.36-.18-.55-.17.09,0,.32-.1.39-.08-.11,0-.21,0-.32,0,.07-.01.14-.03.21-.04-.23.05-.46.08-.68.14.03-.03-.35-.22-.19.07-.09-.02-.18-.01-.27.03-.07.07.37.04.27.01.38.06.06.32-.1.43-.19.12-.17.19,0,.35.1.08.19.17.25.28.12.28-.22.07-.18.16.11.19.14.14.19.36-.09-.03-.18-.04-.27-.03.07,0-.04.22.05.24.11.02.26-.19.37.03-.04-.02-.09-.04-.14-.04.01.23-.17.17-.25.36-.07.16.15.32.23.42-.08-.08-.12-.16-.14-.27.19.15.14.51.33.49,0,.22-.25.55-.28.53-.29-.03.31.34.33.61-.73.21-.08.51-.09.53.05.03.06.06,0,.1.12-.16.25.17.08.26.06-.04.32.32-.06.29.1.1-.09.2.09.17.06.03-.17.07-.07.12.08-.02.16-.01.23.01-.01,0-.24-.04-.25.06,0,.1.32-.04.29.03-.07.14-.59-.06-.61.06-.01.07.55.06.52.08-.15.06-.24,0-.16.27.06-.05.24-.05.3,0,.05.05-.26.05-.3.02.01.25.1.42.31.57.03-.08.04-.24.03-.33-.09.03-.18.03-.26-.01,0-.04.25-.1.28-.18.28,0,.06.16.04.27-.01.06.49.28.59.07.31-.65.44-1.37.45-2.09,1.19.25,2.4.04,3.59.1,1.21.06,2.46.41,3.66.08.03.41.49,2.86,1.18,1.83.07.11.17.2.28.26.03-.08.04-.24.03-.33-.09,0-.18,0-.27,0,.08-.13.71-.26.44-.03-.51.42,1-.1.43-.19,0,0,.45-.44-.21-.13ZM24.38,33.82c-.07-.08-.2-.25.03-.26,0,.02-.05.18-.03.26ZM24.57,37.41c-.12-.07-.12-.11,0-.13,0,.04,0,.09,0,.13ZM24.66,38.88c.16-.03.3.03,0,0h0ZM24.67,38.98c.06-.03.14-.03.23,0-.08.02-.15.01-.23,0ZM24.72,39.21l.2-.03c.09.02.08.05-.2.03ZM34.68,39.11s.02-.04.03-.06c.08.01.1.05-.03.06ZM34.57,34.16c-.06,0-.31.06-.33,0,.11,0,.22,0,.33,0ZM34.7,33.78c.07,0,.1,0,.09.02-.59.04-.13-.02-.09-.02ZM34.4,34.8s.03-.02.06-.02l-.06.02ZM34.35,34.59c.05,0,.11,0,.09.02,0,0-.08,0-.09-.02ZM34.35,34.5c.14-.04.26-.04.21-.01-.11,0-.1,0-.21.01ZM34.27,34.29s.07-.02.12-.01c-.04.01-.08.01-.12.01ZM34.58,35.84s.06,0,.08,0c0,0-.03.01-.08,0ZM34.38,34.7c.07-.04.14-.04.24-.04-.08.02-.16.03-.24.04ZM34.07,33.67s.19.02,0,0c0-.01.02,0,0,0ZM34.9,37.46s-.07,0-.1,0c.3-.21.01.07-.02-.14.21-.09.33.09.12.14ZM34.77,37.26c-.02-.1.07-.08.17-.05-.03.06-.08.08-.17.05ZM34.76,37.17s0-.04,0-.06c.08,0,.17.03,0,.06ZM34.73,36.96c-.03-.08,0-.08.1-.02-.03,0-.06.01-.1.02ZM34.87,36.79s.1.03-.06.08c-.01-.02.08-.12.06-.08ZM34.76,36.06s-.08.03-.14.05c.03-.03.08-.04.14-.05ZM34.82,33.9c-.09,0-.18,0-.27,0,.01,0,.44-.08.42-.02-.05,0-.1.01-.14.02ZM34.82,33.67s.1.02.14.03c-.13-.07-.49.09-.62-.05.16.04.31.05.47.02ZM34.3,33.93l-.04-.04c.25-.04.14.03.04.04ZM34.17,33.14s.05.11-.13.05c-.13-.02-.09-.04.13-.05ZM32.47,36.04c-.01.24-.09.17-.25.14.07-.07.16-.11.25-.14ZM32.92,36.47s-.04-.01-.07-.02c.01-.02.04-.02.07.02ZM31.22,36.07s-.13.24-.06-.04c-.07-.01-.08.11-.17.1-.12-.24.21-.21.23-.06ZM30.89,36.13c-.26-.01.11-.08,0-.15,0,.05,0,.1,0,.15ZM30.77,36.12s-.06,0-.09,0c.03-.06.09-.14.09,0ZM30.27,35.94s.07-.07.1.06c-.03,0-.15-.09-.1-.06ZM29.22,36.09s-.04-.05-.05-.18c.01,0,.08.19.05.18ZM28.84,35.97c.02.07.04.13.06.2-.17.02-.14-.09-.06-.2ZM27.3,36.35c-.06.02-.06-.02,0-.11,0,.04,0,.07,0,.11ZM27.29,36.16c-.02.14-.03.11-.04-.07l.04.07ZM27.12,35.96c.03.1.04.19,0,.29-.04-.07-.04-.17,0-.29ZM27.02,36.1l-.03.12c-.05.08,0-.15.03-.12ZM26.86,36c-.02.09-.02.19-.03.28.01.07-.03-.37.03-.28ZM26.53,36.13c.02.05.02.1,0,.14-.03-.03-.03-.07,0-.14ZM26.37,35.99c.02.14.03.27-.02.4.03-.03,0-.32.02-.4ZM26.25,36.28c-.01.13-.03.08-.05,0,.05-.15.06-.15.05,0ZM26.03,35.84s0-.08,0-.12c.01.04.02.08,0,.12ZM24.83,33.11s.04.11-.11.05c-.11-.02-.07-.04.11-.05ZM24.81,33.65s-.17-.01-.01-.03v.03ZM24.79,33.72c-.03.06-.08.06-.15,0,.05,0,.1,0,.15,0ZM24.54,33.87s.13,0,.09.03l-.09-.03ZM24.55,35.37s.03-.02.06-.02c-.02.02-.04.02-.06.02ZM24.64,37.52s.05,0,.07,0c-.02.03-.05.03-.07,0ZM34.64,39.21s.12-.04.12-.04c.08.02.08.04-.12.04ZM34.95,38.16s.25.1.21.15c-.03,0-.3.02-.29-.04.03-.04.05-.07.07-.11Z"/>
</svg>