
<svg xmlns="http://www.w3.org/2000/svg" version="1.1" xmlns:xlink="http://www.w3.org/1999/xlink" preserveAspectRatio="none" x="0px" y="0px" width="290px" height="380px" viewBox="0 0 290 380">
<defs>
<g id="flash0_ai_04_Fonte__Clip_Group__0_Layer3_0_FILL">
<path fill="#E1C99B" stroke="none" d="
M 125.85 276.75
Q 125.2 276.1 124.35 276.1 123.45 276.1 122.8 276.75 122.15 277.35 122.15 278.25 122.15 279.15 122.8 279.8 123.45 280.4 124.35 280.4 125.2 280.4 125.85 279.8 126.5 279.15 126.5 278.25 126.5 277.35 125.85 276.75
M 81.9 246.3
Q 82 247 82.55 247.4 83.1 247.8 83.8 247.7 93.8 246.35 104.65 255.15 112.9 261.9 118.75 271.55 119.25 272.35 120.15 272.35 120.6 272.35 121 272.1 121.6 271.75 121.75 271.05 121.95 270.4 121.55 269.8 115.3 259.45 106.3 252.3 94.45 242.9 83.3 244.45 82.65 244.55 82.25 245.1 81.85 245.6 81.9 246.3
M 261.25 182.9
Q 261.9 183.5 262.8 183.5 263.65 183.5 264.3 182.9 264.95 182.25 264.95 181.35 264.95 180.45 264.3 179.85 263.65 179.2 262.8 179.2 261.9 179.2 261.25 179.85 260.6 180.45 260.6 181.35 260.6 182.25 261.25 182.9
M 267.55 133
Q 270.35 138.55 271.55 145.2 273.2 154.05 272.55 161.5 271.75 170.4 267.7 173.65 267.15 174.05 267.1 174.75 267 175.45 267.45 176 267.9 176.6 268.75 176.6 269.35 176.6 269.75 176.25 275.45 171.7 276 159.9 276.3 152.9 274.85 144.6 273.5 137.35 270.4 131.35 265.95 122.65 258.6 118.2 258.05 117.85 257.35 118 256.7 118.15 256.35 118.75 256 119.35 256.15 120 256.3 120.65 256.9 121 263.55 125.1 267.55 133
M 206.45 97.5
Q 195 87.4 181.5 64 173.2 49.5 170.75 45.65 164.4 35.5 158.25 28.7 144.7 13.75 125.3 6.15 105.8 -1.5 85.7 0.35 65.6 2.2 47.85 13.2 30.1 24.15 19.5 41.35 10.6 55.85 6.45 75.3 3.1 91.15 2.65 111.9 2.55 115.75 3 148.65 3.25 170.9 1.65 185.3 -0.25 202.85 0.1 209.25 0.8 222.6 7.95 229.9 14.8 236.95 26.8 237.8 36.35 238.45 48.45 235.15 68.1 229.8 69.45 229.55 81.5 227.15 90.4 229.65 98.95 232.05 107.75 239.85 110.15 241.9 122.35 254.65 138.6 271.5 156.4 271.15 175.6 270.75 185.55 249.6 185.95 248.8 192.6 232.1 196.8 221.55 201.35 215.6 206.85 208.3 217.35 201.45 223.45 197.45 236.05 190.15 237.2 189.45 241.25 186.65 260.15 173 261.55 157.1 262.4 147.15 256.3 137.2 251.05 128.55 241.7 121.4 237 117.85 223.85 109.75 212.35 102.65 206.45 97.5 Z"/>
</g>

<g id="Mask_flash0_ai_04_Fonte__Clip_Group__0_2_MASK_0_FILL">
<path fill="#FFFFFF" stroke="none" d="
M 125.85 276.75
Q 125.2 276.1 124.35 276.1 123.45 276.1 122.8 276.75 122.15 277.35 122.15 278.25 122.15 279.15 122.8 279.8 123.45 280.4 124.35 280.4 125.2 280.4 125.85 279.8 126.5 279.15 126.5 278.25 126.5 277.35 125.85 276.75
M 81.9 246.3
Q 82 247 82.55 247.4 83.1 247.8 83.8 247.7 93.8 246.35 104.65 255.15 112.9 261.9 118.75 271.55 119.25 272.35 120.15 272.35 120.6 272.35 121 272.1 121.6 271.75 121.75 271.05 121.95 270.4 121.55 269.8 115.3 259.45 106.3 252.3 94.45 242.9 83.3 244.45 82.65 244.55 82.25 245.1 81.85 245.6 81.9 246.3
M 261.25 182.9
Q 261.9 183.5 262.8 183.5 263.65 183.5 264.3 182.9 264.95 182.25 264.95 181.35 264.95 180.45 264.3 179.85 263.65 179.2 262.8 179.2 261.9 179.2 261.25 179.85 260.6 180.45 260.6 181.35 260.6 182.25 261.25 182.9
M 267.55 133
Q 270.35 138.55 271.55 145.2 273.2 154.05 272.55 161.5 271.75 170.4 267.7 173.65 267.15 174.05 267.1 174.75 267 175.45 267.45 176 267.9 176.6 268.75 176.6 269.35 176.6 269.75 176.25 275.45 171.7 276 159.9 276.3 152.9 274.85 144.6 273.5 137.35 270.4 131.35 265.95 122.65 258.6 118.2 258.05 117.85 257.35 118 256.7 118.15 256.35 118.75 256 119.35 256.15 120 256.3 120.65 256.9 121 263.55 125.1 267.55 133
M 206.45 97.5
Q 195 87.4 181.5 64 173.2 49.5 170.75 45.65 164.4 35.5 158.25 28.7 144.7 13.75 125.3 6.15 105.8 -1.5 85.7 0.35 65.6 2.2 47.85 13.2 30.1 24.15 19.5 41.35 10.6 55.85 6.45 75.3 3.1 91.15 2.65 111.9 2.55 115.75 3 148.65 3.25 170.9 1.65 185.3 -0.25 202.85 0.1 209.25 0.8 222.6 7.95 229.9 14.8 236.95 26.8 237.8 36.35 238.45 48.45 235.15 68.1 229.8 69.45 229.55 81.5 227.15 90.4 229.65 98.95 232.05 107.75 239.85 110.15 241.9 122.35 254.65 138.6 271.5 156.4 271.15 175.6 270.75 185.55 249.6 185.95 248.8 192.6 232.1 196.8 221.55 201.35 215.6 206.85 208.3 217.35 201.45 223.45 197.45 236.05 190.15 237.2 189.45 241.25 186.65 260.15 173 261.55 157.1 262.4 147.15 256.3 137.2 251.05 128.55 241.7 121.4 237 117.85 223.85 109.75 212.35 102.65 206.45 97.5 Z"/>
</g>

<g id="Layer0_0_FILL">
<path fill="#90A0AD" stroke="none" d="
M 282.95 321.9
L 283.35 321.9 283.35 321.6
Q 283.1296875 321.765234375 282.95 321.9
M 283.35 316.4
Q 281.9 316.15 281.2 316.15 278.15 316.15 273.25 319.6 271.35 320.95 270 321.9
L 280.35 321.9
Q 281.3 321 282.45 319.9 282.9119140625 319.450390625 283.35 319
L 283.35 316.4
M 283.35 268.2
L 283.35 260.75
Q 272.5474609375 259.9111328125 254.75 258.55 230.7 256.75 230.45 256.7 224.1 257.9 217.25 260
L 203.35 264.8
Q 204 264.9 204.6 265 206.25 265.3 207.9 265.55 224.9 268.2 242.05 269.8 258.8 271.25 275.75 271.75
L 275.8 271.85
Q 278.58984375 270.7552734375 283.35 268.2
M 62.95 142.5
Q 65.3 141.35 67.7 140.2 63 141.1 55 142.05 27.25 145.35 24.85 145.75
L 10.35 145.75
Q 5.15 146 2.7 146.4 2 146.65 1.3 147.05 0.75 147.35 0.2 147.75 0.1 147.8 0 147.9
L 0 189.45
Q 3.7 192.15 9.2 195.85 8.7 195.15 8.15 190.05 7.45 183.75 6.85 181.3 6.05 177.7 5.8 175.55 5.75 175.1 5.45 171.45 5.25 168.55 3.7 166.3 2.15 164.15 2.15 163.45 2.15 161.1 13.5 158.3 12.5 158.2 11.5 157.95 10.1 157.7 8.7 157.3 25.3 155.5 41.3 151.6 44.9 150.7 48.1 149.3 52.55 147.2 62.95 142.5 Z"/>

<path fill="#43463D" stroke="none" d="
M 283.35 319
Q 282.9119140625 319.450390625 282.45 319.9 281.3 321 280.35 321.9
L 282.95 321.9
Q 283.1296875 321.765234375 283.35 321.6
L 283.35 319
M 283.35 316.4
L 283.35 314.55
Q 281.862109375 314.45 280.4 314.45 279.3 314.45 272.9 318.65 269.8 320.7 268.2 321.9
L 270 321.9
Q 271.35 320.95 273.25 319.6 278.15 316.15 281.2 316.15 281.9 316.15 283.35 316.4
M 283.35 306.15
L 283.35 303.55
Q 279.1943359375 302.584375 274.35 302.1 268.4 306.15 253.7 314.65 245.15 319.55 243.95 321.35 243.6 321.6 243.2 321.9
L 246.2 321.9 248 320.6
Q 263.8 312.25 275.05 304.65
L 278.05 304.65
Q 278.55 304.8 282 305.8 282.71484375 305.99609375 283.35 306.15
M 283.35 273.7
L 283.35 272.8
Q 283.2494140625 272.848828125 283.15 272.9
L 276.25 276.35 283.1 273.8
Q 283.2236328125 273.7455078125 283.35 273.7
M 179.7 76.1
Q 176.35 74.3 175.7 74.3 173.65 74.3 169.3 77 168.1 77.75 166.15 79.15 165.9 79 165.55 78.9
L 164.75 78.7
Q 163.1 78.7 158.25 79.3 157.9 79.35 157.6 79.4 156 79.4 154.05 79.35 151.35 79.3 151.1 79.5 150.4 80.05 149.45 81.05
L 149.4 81.05
Q 148.6 81.6 147.55 82.75 146.65 83.75 146.05 84.5 145.25 85.1 144.35 85.85 142.25 87.55 140.9 88.35 136.8 90.75 135.1 94.3 134.15 96.35 132.85 100.65 132.75 101 132.45 102.05 131.95 103.65 131.05 107 130.9 107.65 130.7 108.25 130.55 108.8 130.4 109.3 130 110.3 129.6 111.45 129.05 112.65 128.5 113.55 127.5 115.15 125.15 119.65 123.55 122.7 122.8 124.5 121.75 124.35 120.85 124.35
L 120.2 124.2 110.65 124.2 110.65 124.35
Q 97 126.7 88.3 130.6 84.1 132.85 80.75 134.65 78.45 135.5 76.2 136.45 76.2 136.4 76.15 136.4 76.05 136.3 76.05 136.25 74.7 136.1 67.75 137.25 60.75 138.5 60.2 138.55
L 37.7 141.55
Q 33.4 142.1 24.35 142.8 19.9 143.15 16.4 143.4
L 6.2 143.55
Q 2.6 144.1 0.85 144.95 0.35 145.2 0 145.45
L 0 147.9
Q 0.1 147.8 0.2 147.75 0.75 147.35 1.3 147.05 2 146.65 2.7 146.4 5.15 146 10.35 145.75
L 24.85 145.75
Q 27.25 145.35 55 142.05 63 141.1 67.7 140.2 65.3 141.35 62.95 142.5 52.55 147.2 48.1 149.3 44.9 150.7 41.3 151.6 25.3 155.5 8.7 157.3 10.1 157.7 11.5 157.95 12.5 158.2 13.5 158.3 16.75 158.75 20.1 158.05 31.2 156.1 42.15 153.25
L 39.75 155.95 5.5 162.9 24.1 176.15
Q 21.15 179.15 17.9 181.85 14.75 184.4 14 188.4 13 193.5 13.35 198.95 14.65 220 14.45 240.85 14.1 239.9 13.65 239.05 11.65 234.5 8.35 230.8
L 7.7 231.25
Q 6.15 242.7 6.75 254.4 8.2 281.05 3.9 307.2 3.65 308.05 3.3 309 2.75 310.5 2.25 311.9 1.05 312.25 0 312.7
L 0 314.25
Q 0.75 314.1 1.55 314 1.55 314.7 1.7 314.8 1.8 314.85 2.3 314.9 3 314.5 3.7 313.65 7.65 313.05 11.75 312.4
L 31.95 309.2
Q 36.2 308.5 40.5 307.8 40.6 307.75 40.7 307.75 42.85 308.45 45.85 309.1 46.15 309.2 53 310.4 55.15 310.8 65.05 311.6 74.95 312.35 75.3 312.4 76.7 312.75 80.2 313.5 83.8 314.3 88.2 314.9 99.8 316.5 103.85 317.5 106.95 318.25 113 318.95 120.75 319.8 121.9 320.15 122.65 320.4 124.55 321 125.55 321.2 132.9 321.15 136.95 321.1 139.45 321.85
L 143.55 321.85
Q 143.55 321.1 143.45 321 143.25 320.95 143 320.75 142.35 320.6 132.15 319 122.65 317.6 120.3 316.45 118.6 315.6 113.6 315.2 107.8 314.75 105.95 314.3 102.6 313.3 101.85 313.25 100.05 313.1 95.55 312.75 87.5 312.05 75.75 310.1 67.4 308.75 55.35 308.45 54.45 308.2 53.55 308.05 60.65 306.65 76.15 303.9 80.45 303.05 83.9 302.25
L 95.05 298.8 97.7 300.7 86.8 303.55
Q 95.85 306.7 105.4 308.3 133.1 313 160.9 316.15 193.15 319.5 222.45 307.95 223.65 307.45 224.85 307 239 301 250.1 291.9 252.3 292.6 256.35 293.2 259.5 293.65 270.35 294.8 270.5 295 272.2 295.15 273.45 295.25 274.7 295.25 274.8 295.25 274.85 295.25 275.55 295.25 276.9 294.5
L 277.65 294.5
Q 278.5 294.2 279.35 293.9 279.35 293.85 279.4 293.85
L 283.35 292.05 283.35 288.25
Q 282.2791015625 288.750390625 281.4 289.15 279.8 289.85 278.85 290.4 276.95 291.15 275.7 291.8 274.4 292.45 273.7 293.1 273.75 293.1 273.85 293.25 273.65 293.3 273.4 293.35 273.4 293.25 273.4 293.2 273.05 292.95 270.9 292.6 269.15 292.3 262.3 291.4 257.9 291.15 254.15 290.55 252.6 290.35 251.9 290.35 256.35 286.45 260.35 282.1
L 259.45 281.2 258.45 281.75
Q 254.8 283.65 250.8 284.45 247.05 285.3 243.2 285.25 242.3 285.25 241.45 285.15
L 241.7 281.45
Q 241.85 280.5 241.85 279.05 241.85 278.85 241.85 278.75
L 242 276.7 241.8 277.4
Q 241.6 275.75 241.05 273.7
L 241.05 273.65 254.4 274.85 271.4 276.35 276 276.75
Q 275.5 276.65 275 276.5 258.75 272.6 242.05 271.6 225.7 270.55 209.5 268.15 204.6 267.45 199.8 266.6
L 199.5 266.1 216.35 268.25 217.2 269.05 275.4 273.2 276.15 272.3 275.8 271.85 275.75 271.75
Q 258.8 271.25 242.05 269.8 224.9 268.2 207.9 265.55 206.25 265.3 204.6 265 204 264.9 203.35 264.8
L 217.25 260
Q 224.1 257.9 230.45 256.7 230.7 256.75 254.75 258.55 272.5474609375 259.9111328125 283.35 260.75
L 283.35 258
Q 274.9 257.428515625 266.05 256.75 249.65 255.6 247.35 255.25 230.5 254.15 229.7 254.2 227 255.05 220.95 256.45 216.65 257.4 211 259.6
L 205.65 261.85 196.05 265.8 196.2 267.2 198.1 266.55 199.1 267.8 199.3 269.75
Q 199.1 273.4 198.7 279.35 181.5 279.25 164.55 274.35
L 201.05 262.3
Q 201.3 262.25 201.5 262.2
L 205.1 261 233.75 251.55
Q 233.85 251.8 234.15 251.8 234.45 251.8 234.7 251.6
L 235.1 251.5
Q 235.15 251.3 235.2 251.05
L 283.35 235.25 283.35 231.5
Q 282.5947265625 231.77890625 281.8 232.05 266.05 237.4 264.6 237.85 258.05 239.9 247.2 243.85 247.15 243.85 247.15 243.9 238.75 246.85 235.9 248.15 235.9 246.8 236 245.8 236.5 244.15 236.65 241.7 236.65 239.1 236.65 237.6 236.6 236.1 236.6 235.7 236.35 233.8 236.15 232.15 235.9 230.9 235.7 229.75 234.6 223.3 233.6 221.85 231.35 218.7 227 214.85 224.1 212.3 221.9 210.9 220.2 208.45 218.2 204.75 218.15 204.6 218.1 204.5 217.4 201.1 217 200.35 214.15 194.75 213.5 188.85 213.4 187.85 213.35 187.05 213.3 186.75 213.3 186.5 213.2 185.05 213.3 183.5 213.55 178.5 212.2 174.9 211.7 173.45 210.85 172.15 210.95 169.1 210.95 164.15 210.95 164.05 210.95 163.95 211.2 163.1 211.55 162.05 212.2 160 212.2 158.45 212.05 157.75 211.9 157.05 212 156.8 212 156.7 212 156.25 211.6 155.8 211.2 154.35 210.75 153.45 210.75 153.25 210.75 153.15 210.8 153.05 210.85 153 213.2 154.45 216.5 156.45 224.6 161.2 225.65 161.2 226.55 161.2 226.75 160.85 226.85 160.75 226.95 159.9 226.9 159.6 226.9 159.3 227 159.15 227.1 158.95 227 158.95 226.85 158.9 226.6 155.15 226.35 152.8 226.7 149.35 226.7 148 226.7 147.5 226.65 147.05 226.85 141.9 226.85 136.6 226.85 136.4 226.55 133.95 226.4 129.95 226.05 126.3 225.75 123.55 224.5 114.8 224.25 112.65 222.55 109.15 220.55 105.1 220.15 103.6 219.8 103.2 215.75 97.85 214.45 96.1 213.6 95.1 213.6 95.05 213.6 94.7 215.05 95.6 216.9 96.8 221.65 99.7 224 100.5
L 224.1 100.25
Q 223.6625 99.23828125 222.85 98.4 218.0076171875 96.2638671875 211.55 92.7 201.35 87.15 189.6 80.55 186.7828125 78.9849609375 184.4 77.55 181.7333984375 76.674609375 179.7 76.1
M 193.25 182.95
Q 195.5 181 196.75 179.2 199.9 177.1 202.6 173.65 203.5 172.55 205.3 169.45 208.2 172.95 209.55 177.85 210.95 182.7 210.85 189.25 210.75 200.7 217.6 208.2 217.8 208.55 218 208.95 220.1 212.85 223.05 216.45 223.2 216.65 223.5 217.1 222.5 217 221.85 217.1 221.6 217.15 220.75 217.45 219.9 217 219 216.65 217.6 215.7 212.75 211.95 209.65 209.6 207.65 208.1 207.3 206.45 207.3 205.65 206.75 201.7 199.55 199.8 195.55 198.7 193.25 198.6 193 196.6 190.7 191.85 189.2 188.85 188 187.35 190.05 185.5 193.25 182.95
M 187 191
Q 187.5 192.35 188.3 194.2 190.8 200.05 192.05 200.6 192.2 208.45 189.85 223.05 189.85 223.1 189.8 223.25 188.65 229.75 187.5 236.1
L 187.5 236.2 187.45 236.15
Q 185.95 231.95 182.25 225.35 180.65 222.45 179.45 220.15 179.75 220.35 180.05 220.5 177.25 215.1 173.8 208.1 173.7 208 173.7 207.85 177.4 204.85 181.75 199.3 185.3 194.8 186.5 192.1 186.8 191.45 187 191
M 209.9 161.3
Q 209.75 161.9 209.55 162.65 208.6 166.45 208.5 169.15 208.35 169.05 208.25 168.9 208.15 168.75 208.05 168.6 207.4 167.6 206.7 167 207.4 165.85 208.1 164.4 209.15 162.5 209.9 161.1 209.9 161.2 209.9 161.3
M 135.45 135
L 137.1 134.9
Q 139.05 135.55 140.7 137.75 142.2 139.7 142.05 141.05 141.45 140.9 140.3 140.25 139.4 139.7 138.65 139.7
L 135.8 139.85
Q 134.8 140.65 134.25 141.85 134.05 141.05 134.05 140.4 134.05 138.6 134.4 136.65
L 134.4 136.6
Q 135.1 135.4 135.45 135
M 155.4 217.65
Q 155.3 217.3 155.3 217.15 155.3 216.4 155.45 216 155.6 215.7 155.55 215.55 155.35 215.65 155.2 215.8 155.25 215.65 155.3 215.5 155.7 214.45 159.45 207.1 161.75 202.45 162.55 200.75 162.7 200.7 162.9 200.65 163.5 200.75 165 200.85 166.15 201.55 167.8 201.9 169.75 206.1 170.9 208.55
L 170.85 208.55
Q 170.9 208.6 171 208.7 172.35 211.55 172.55 211.9 173.25 213.15 174.05 214.3 172.65 215.8 171.95 218.65 171.4 220.7 170.85 224.9 170.85 226.15 169.45 230.95 168 235.85 168 237.55 168 238.85 168.25 239.2 168.7 240 170.05 240.45 169.7 240.6 169.4 240.9 169.7 241.2 170.05 241.45 170.05 241.5 170 241.5 170.15 241.55 170.35 241.65 170.1 242 169.85 242.45 169.2 243.45 168.45 244.8 167.1 247.2 166.1 249 165.8 249.4 165.55 249.7
L 165.6 249.8
Q 164.4 251.9 163.65 252.95 163.45 253.15 163.25 253.25 160.55 255.35 158.85 257.55 159.1 256.15 159.2 254.65 159.4 252.85 159.4 245.15 159.4 241.95 158.9 238.5 158.55 236.15 157.6 231.1 157.2 229 157 223.7 156.85 218.9 156.2 216.65 155.7 216.9 155.4 217.65
M 91.25 293.7
Q 95.1 295.4 99.4 295 134.5 293.8 164.3 277.05 166.1 277.75 168 278.25 193.3 285.5 217.5 281.7 227 280.25 236.35 277.1
L 239 276.15 226.95 289.6 227.5 289.85 230.25 287.75 229.2 289.45
Q 229.7 289.55 230.3 289.75 230.55 289.75 230.85 289.75 232.2 289.45 233.25 288.45 233.8 287.9 234.35 287.35 236.15 285.4 237.55 283.25 239.25 280.65 240.4 277.7
L 240.65 276.2
Q 240.7 276.85 240.8 277.65 240.95 279.25 240.95 279.6
L 240.95 279.65 240.6 280.75 238.75 285.85 235.9 293.9 236.35 294.3
Q 236.85 293.8 237.35 293.35 238.85 291.9 239.65 290 240.15 288.8 240.55 287.6 240.7 287.15 240.8 286.7 246.8 287.5 252.75 286.2 253.9 285.95 255.1 285.75 251.4 288.1 247.75 290.55 247.55 290.5 247.5 290.5 247.55 290.6 247.6 290.65 240.65 295.25 233.75 299.95 231.35 301.6 228.85 303 219 308.45 207.65 309.65 194.1 311.4 180.3 311.85 165.4 313 150.65 311.95 120.85 311.2 92.65 303.05
L 99.85 301.95 112.45 306.95 113.65 305.85
Q 107.7 303.15 101.85 300.4 98.75 298.9 95.9 297.1 93.45 295.5 91.25 293.7
M 159.35 269.9
Q 159.5 268.2 159.6 266 159.75 261.5 161.35 258.75 162.65 257.25 164 255.6 164.75 254.75 165.45 253.85 167.7 251.05 169.6 247.9 169.95 247.2 172.45 242.8 172.9 243.05 173.45 243.3 173.5 243.3 173.55 243.3 175.6 244.6 175.95 245.95 176.1 246.55 176.1 247.45 176.1 247.95 176.1 248.95 176.2 250.45 178.75 250.85 178.9 250.85 179.1 250.95 180.15 251.05 181.05 250.95 182.35 250.95 183.7 250.75 184.85 252.05 189.35 257.6 191.1 259.6 192.45 260.8 175.6 266.25 159.05 272.35 159.1 272.2 159.1 272.15 159.4 271.3 159.4 270.3 159.4 270.1 159.35 269.9
M 136.85 261.95
Q 136.65 264.45 136.2 271 136.15 272.7 136.15 276.35 136.15 277.25 135.6 279.15 135.25 280.25 135.15 280.95 133.9 281.35 132.75 281.75
L 132.55 281.35
Q 129.4 280.85 128 280.6 125.65 280.2 123.35 279.1 123.8 278.15 124.75 275.45 125.4 273.8 125.95 272.7 126.2 272.3 126.45 272 130.2 269.35 136.85 261.95
M 252.05 291
Q 251.6 290.95 251.25 290.95 251.4 290.7 251.6 290.6 251.85 290.8 252.05 291
M 223.7 217.6
Q 223.85 217.9 224 218.3 224.5 219.45 225.45 220.2 225.9 220.6 227.65 221.75 229 222.65 229.65 223.4 230.8 224.8 231.9 227.05 232.45 228.1 232.8 229
L 232.8 229.05
Q 232.95 231.45 233.25 235.65 233.3 237.2 233.45 239.05 233.5 240.15 233.6 241.15 233.55 241.6 233.5 242.05 233.45 242.75 233.7 244.2 233.95 245.8 233.95 246.05 233.95 246.45 233.75 247.15 233.65 247.75 233.7 248
L 233.95 248
Q 233.95 248.45 233.95 248.85 233.9 248.95 233.85 249.1
L 225.75 251.75
Q 225.7 251.65 225.65 251.55
L 225.35 251.3
Q 216.45 248.95 206.7 245.5 211.7 244.95 211.7 241.95 211.7 240.6 211.2 235.15 210.95 232.7 210.65 229.4 209.55 218.8 209.55 217.65 209.55 215.55 208.4 211.35 208.35 211 208.25 210.7 209.15 211.7 210.25 212.95 213.75 216.6 217.2 218.05 220.6 219.5 223.7 222.8 225.45 224.75 229.2 229.05 229.45 228.75 229.7 227.9 228.2 224.25 225.7 221.45 224 219.55 222.1 218.3 222.35 218 223.7 217.6
M 194.1 262.1
L 193.5 262.3
Q 193.75 262.2 194.05 262.05 194.05 262.1 194.1 262.1
M 162.55 275
L 162.55 275.05
Q 139.95 287.9 114.35 290.9
L 162.55 275
M 172.65 241.15
Q 172.4875 241.1 172.3 241.1
L 172.35 241.05
Q 172.490625 241.096875 172.65 241.15
M 204.5 205.4
Q 204.75 206.5 204.8 208.25 206.7 215.35 207 219.4 207 219.45 207.8 230.55 207.95 232.7 208.15 234.65 208.55 238.7 209.1 241.65 208.35 242 206.8 242.35 205 242.8 204.1 242.8 200.25 242.8 198.5 241.85 196.8 240.85 196.15 240.85 195.95 240.85 190.65 242.95 190.3 242.95 189.7 242.2 188.65 240.95 188.6 240.85 188.35 240.95 188.3 241.2 188.25 241.35 188.3 241.45 188.2 241.7 188.1 241.85 188.05 241.9 188.05 242.7 188.05 243.45 188.25 244.15 188.4 244.85 188.4 245.15 188.95 245.3 189.6 245.45 190.05 245.6 190.9 245.6 192.7 245.6 194.3 244.8 194.45 244.7 194.6 244.65 194.5 247.9 194.5 252.75 193.5 252.45 190.3 249.65 187.25 247.05 186.8 247.05 186.05 247.25 185.3 247.55
L 185.3 247.45
Q 184.95 247.75 183.65 248.05 181.9 248.45 180.7 248.7 179 248.55 178.65 246.15 178.65 243.45 178.55 242.8 178.35 241.15 175.1 239.7 171.4 238.4 170.35 237.7 172 233.7 173 226.3 173.45 222.4 173.4 220.5 173.4 220.05 174.35 217.6 174.75 216.5 175.05 215.7 175.15 215.9 175.3 216.1 175.6 217.4 176.3 219.2 177.55 222.35 180.2 226.85 181.5 229.15 182.55 230.95 183.2 232.15 183.8 233.2 185.55 236.35 186.2 237.75 186.35 238.15 186.45 238.4 186.8 238.35 187.15 238.25 187.05 238.5 187 238.75 187 239.6 187.2 239.8 187.35 239.9 187.65 240.05 189.05 238.35 190.3 233.7 190.45 233 190.65 232.25 191.35 229.15 192.05 224.95 193.8 214.25 193.8 206.95 193.8 204.5 192.85 200.65 193.15 200.55 193.2 200.5 193.25 200.35 193.15 200.25 193.1 200.1 193.15 200 194.15 200.6 195.75 201.1 197.7 201.7 202.05 202.75 204 203.3 204.5 205.4
M 200.75 271.75
Q 200.75 270.85 200.65 270.05
L 200.55 269.65 200.3 268
Q 205.45 269.15 210.65 270.05 216.5 271.1 222.5 271.85 228.4 272.6 234.35 273 236.2 273.15 238.1 273.25
L 237.75 273.4 229 275.85
Q 228.8 275.9 228.65 275.95 222.05 277.45 215.5 278.35 207.95 279.3 200.5 279.35 200.85 277.25 200.85 276.35 200.85 273.15 200.75 271.75
M 65.65 144.1
Q 70.45 142.55 75.1 139.85 81.15 136.25 83.3 135.3 94.3443359375 130.2525390625 120.2 126.65 120.1865234375 126.6634765625 120.15 126.7 119.3 127.1 118.5 127.45 112.65 130.2 111.3 133.2 110.7 134.7 110.4 137.1 110.15 138.85 110.1 141.15 110.05 143.9 110.25 146.95 110.25 153.2 111.45 158.15 111.578515625 158.671484375 111.75 159.3 112.7837890625 162.9302734375 115.5 170.4 116.35 172.8 117.9 176.5 118.8 178.5 120.45 182.35 121.65 185.2 124.35 189 127.7 193.6 129.7 193.75 128.35 195.8 126.9 198.2 121.1 207.4 119.45 210.7 115.15 213.05 110.75 215.25 107.5 217.6 107.5 223.35 107.5 224.8 107.55 225.7 105.65 227.1 100.9 231.1
L 101.2 231.95
Q 101.65 231.8 102.5 231.25 103.75 230.45 105.75 229 106.95 228.05 107.8 227.4 108.1 228.1 108.8 228.5 109.1 228.7 112 229.95 115.15 231.25 118.35 233 119.3 233.5 129.3 236.45 130.45 236.8 131.9 237.2 144.25 240.75 145.1 240.75 146.4 240.75 146.35 240.6
L 146.3 240.3 146.2 239.8
Q 144 238.95 141.6 237.55 139.65 236.4 138.35 236.1 133.6 235.15 131.1 234.55 126.7 233.55 123.45 232.2 113.95 228.35 113.4 228.05 110.75 226.65 110 224.9 109.7 224.15 109.7 223.35 109.7 218.75 113.4 216.4 119.1 213.5 123.85 210 132.35 214.3 138.65 223.65 139.15 224.4 139.65 225.2 140.7 226.75 144.7 233.95 147.2 238.3 149.05 240.8 149.35 241.2 149.65 241.55 150 241.2 150.2 241.05
L 150.2 241
Q 150.45 240.6 150.45 239.7 150.45 238.6 148.75 235.15 149.45 234.65 150.05 233.65 151.35 231.35 152.55 231.25 153.4 232.1 154.95 234.7 155.85 236.05 156.9 236.65 157 237 157.05 237.35 157.05 238.7 156.1 260.25 156.1 261.05 156.25 262.35 156.25 262.45 156.3 262.55 155.85 264.15 155.85 265.8 155.85 269.25 155.95 270.1 156.15 271.7 156.75 272.75 156.75 272.95 156.75 273.2 156.6 273.25 156.45 273.3 148.55 276.25 138.15 279.9 138.15 279.8 138.15 279.75 138.3 279.1 138.3 276.2 138.3 273.85 138.1 269.8 137.9 264.35 137.45 261.3 138.3 260.3 139.2 259.3 150.05 246.9 150.05 242.4 150.05 241.55 149.85 241.5
L 149.65 241.55
Q 148.3 243.5 144.75 248.9 141.4 253.8 138.5 256.55 135.65 259.3 130.4 265 128.3 267.3 126.9 268.9 125.45 270 122.15 273.4 117.15 278.65 116.15 279.55 114.35 281.2 110.55 285.95 108.05 289.25 107.3 290.5
L 102 292.2 88.05 292.25 88.2 293.35 92.7 297 83.9 299.2
Q 83 299.4 82.15 299.6 81.55 299.4 80.85 299.1 80.95 299 81.05 298.8
L 81.05 298.35
Q 76.6 295.95 73.15 290.35 69.8 283.95 68.45 281.45 67.65 279.95 65.65 277.1 63.7 274.2 62.95 272.8 62.3 271.6 58.9 268.35 55.3 264.9 54.5 263.75 45.45 250.05 44.1 247.85 38.7 238.7 36.9 232.8 37.05 218.35 38.75 213.7
L 38.75 208.95
Q 38.05 210.15 37.35 211.55 37.2 210.35 37.15 210.05
L 36.75 210.05
Q 36.7 211.1 36.25 213.2 36.2 213.7 36.05 214.3 35.65 216.25 35.05 218.95 33.75 224.85 33.75 227.8 33.75 232.75 36.6 239.25
L 36.45 240.75
Q 36.45 244.05 36.95 247.1 37.7 251.6 37.95 254.35 38.15 256.45 38.5 261.3 39.4 265.55 43.45 268.4 43.75 268.6 44.05 268.8 43.35 269.35 42.8 269.8 42 270.4 41.05 271.1 38.4 273 34.55 275.5 29.35 278.85 26.25 280.5 29.55 279.95 35.45 276.5 40 273.8 43.1 271.35 44.15 270.45 45.15 269.6 46.4 270.55 47.65 271.55 49.25 272.9 50.75 274.3 48.1 277.35 45.25 281.05 44.15 282.45 43.15 283.85 39.05 289.4 36.65 293.75 36.7 294.15 37.15 294.15 37.85 293.2 39.55 291.05 42.4 287.35 48.1 280.2 50.35 277.4 51.95 275.35 55.2 278.45 58.1 282.05 62.85 287.8 67.8 296.1 65.75 297.5 52.6 306.15 51 306.65 50.35 307.25 44.05 305.75 40.5 305.4 40.45 305.35 40.4 305.3 40.25 305.3 40.15 305.35 40.1 305.3 40.05 305.35 37.95 305.1 36.9 305.3
L 36.9 305.6
Q 33.85 305.9 31.7 306.2
L 30.75 306.35
Q 24.55 298 17.3 290.75 16.5 289.9 15.6 289.05
L 18.4 281.1 17.25 281.45
Q 12.65 266.3 20.25 251.05 21.75 248.05 22.05 244.9 24.25 223.2 28.95 201.65 30.4 194.95 30.75 188.25 32.25 161.1 54.15 149.35 55.2 148.75 56.5 148.15 62.7 145.05 65.65 144.1
M 122.65 127.75
Q 122.75 127.8 122.85 127.85 123.25 127.55 123.6 127.25 123.9 127.05 124.25 126.9 123.2 130.2 123.2 131.4 123.2 132.35 123.6 133.1 123.85 133.7 124.5 134.35 123.7 136.25 123.1 138.75 121.9013671875 143.9759765625 121.85 148.7 121.85 148.8986328125 121.85 149.1 121.85 152.7 122.9 155.75 123.65 157.75 126.1 162.4 128 166.05 131.9 170.9 135.85 175.8 136.95 175.8 137.55 175.8 137.75 175.8
L 137.8 175.7
Q 137.8 175.75 137.8 175.8 137.75 177.7 137.75 180 136.4 182.75 130.65 192.2 125.35 187.85 119 171.55 117.6134765625 168.046875 116.5 164.9 112.45 153.3171875 112.45 147.05 112.4 144.35 112.45 141.95 112.55 137.35 113.15 134.8 113.8 132.1 119.15 129.5 121.1 128.55 122.65 127.75
M 199.55 154.95
Q 199.9 154.75 200.2 154.25 201.45 153.65 203.85 152.25 206.6 150.65 206.9 150.55 207.1 151 208.1 152.05 201.95 160.85 201.85 160.85 199.1 164.65 196.8 167.5 196 168.5 195.2 169.4 194.05 170.75 191.75 172.25
L 191.7 172.25
Q 191.35 171.55 190.8 170.4
L 190.35 170.55
Q 190.5 171.15 191.1 172.65 190.45 173 189.7 173.45 189.35 173.1 188.9 172.6 187.5 171.2 187 170.95
L 189.35 173.65
Q 187.25 174.75 184.6 175.95 182.05 177.05 180 178.1 175 180.6 172.75 182.75 174.4 182.2 175.95 181.75 179.75 180.4 182.55 179.4 185.2 178.4 186.9 177.7 194.35 174.5 196.95 171.2 198.6 169.15 205.2 160.8 207.4 157.95 208.8 156.1 209.6 157.15 209.65 157.25 206.75 162.2 205.15 164.9 204.8 165.55 204.45 166.1 203.65 166.25 202.9 167 203.25 167.25 203.55 167.55 201.65 170.6 200.25 172.55 198.4 175.05 195.15 177.15 194.25 175.8 194.1 174.75
L 193.65 174.75
Q 193.65 175.45 194.25 176.25 194.65 176.85 195.1 177.2 193.4 178.2 191.4 179.15 181.3 183.9 178.75 185.5 185.55 183.85 189.85 182.45 188.5 183.65 187.45 184.6 184.85 186.85 183.65 187.8 174.65 195.1 164.4 198.35 163.55 198.3 162.85 198.6 162.9 198.65 162.95 198.75 161.9 198.6 160.9 198.35 160.4 198.05 159.7 198.05 159.65 198.05 159.6 198.05 159.35 198 159.1 197.9 154.2 196.6 153.75 196.55 153.75 196.7 153.3 196.85 156.25 198.65 159.25 199.7 159.3 199.95 159.45 200.1 159.8 200.7 160.85 201.15 158.4 204.95 154.7 211.9 149.7 221.35 146.15 229.5
L 146.2 229.65
Q 146.15 229.8 146.05 229.95 142.9 224.4 141.65 222.55 139.65 219.55 138.95 218.55 138.75 218.3 138.65 218.15 136.65 215.7 133.95 214.05 130.9 211.9 128.85 210.7 126.45 209.3 124.85 209.3
L 124.85 209.25
Q 124.7 208.85 123.6 208.55 124.75 207.1 125.75 205.35 128.55 200 129.9 197.8 130 197.6 135.45 189.8 138.85 184.9 139.95 181.7 140.9 179.15 140.75 173.75 140.65 168.3 141.6 165.6 143.05 161.45 147.25 157.25 149.3 155.15 150.8 153.5 152.2 151.9 153.1 150.65
L 153.2 150.65
Q 154.6 150.6 155.9 150.45 156.5 150.45 157.15 151.35 158.95 153.6 158.95 154.65 158.95 155.8 157.75 157.9 157.55 158.15 157.4 158.45 156.9 159.2 156.6 159.9 155.5 159.85 155.25 160.9 155.15 161.3 155.15 162.8 155.15 163.7 155.4 164.15 155.65 164.75 156.55 165.45 149.4 168.1 149.4 169.5 149.4 170.85 149.65 170.4 154.7 167.45 161.9 165.25 165.05 164.3 176.3 161.55 177.2 161.3 186.9 157.05 196.15 153 196.95 153 197.05 153 197.75 153.85 198.4 154.45 199 154.8 196.95 155.75 192.9 159.35 188.15 163.7 186.25 165.3 185.1 166.3 182.35 167.75 181.7 166.55 180.85 164.9
L 180.45 164.9
Q 180.55 165.6 181.7 167.75 181.75 167.9 181.8 168
L 181.75 168.05
Q 181.25 167.65 180.65 167.1 179.4 166.05 178.65 165.4
L 178.2 165.6
Q 180.1 167.35 181.35 168.25 178.55 169.65 174.45 171.5 166.3 175.05 166.3 176.05 166.3 176.85 166.4 176.9 166.55 176.95 166.95 177 169.6 175.95 177.25 173.1 180.75 171.6 183.1 170.15 183.4 170.5 183.6 170.65
L 183.75 170.25
Q 183.65 170.1 183.5 169.85 185.35 168.65 186.45 167.45 190.9 162.2 199.7 155.1
L 199.55 154.95
M 178.9 78.1
Q 179.4 78.2 179.8 78.4 184.15 80.95 184.35 81.05 184.9 81.3 187.05 82.65 189 83.9 189.5 84.05 189.85 84.15 191.65 84.4 192.9 84.6 193.4 84.7 193.5 84.8 193.65 84.9 194.05 85.2 195.3 86.5 195.75 86.75 197.2 87.2 204.55 91.95 208.8 93.45 208.9 93.55 209.05 93.65 209.95 94.2 210.65 94.6 213 99.1 216.75 105.9 221.55 115.15 222.65 121 223.1 123.55 223.1 128.6 223.1 134 223.4 136.2 223.4 136.3 223.55 144.3 223.6 145.55 223.75 146.65 223.7 146.85 223.7 147.05 223.3 146.05 222.8 144.95 221.95 143.2 218.3 136.1
L 217.75 136.2
Q 218.95 139.8 222.75 147.3 223.15 148.2 223.5 149.05 223.3 151.05 223.3 151.7 223.3 154.6 223.4 155.6
L 223.45 155.7
Q 222.85 155.4 222.35 155.15 221.9 153.5 219.35 148.05 216.05 141.15 215.95 140.8 215.1 137.8 211.75 133.15 208.8 129.05 205.6 125.85
L 205.25 125.9
Q 207.95 128.95 213.25 138.35 218.35 147.55 220.95 154.35 213 150 207.05 145.65 201.4 141.6 198 137.85 197.2 137 196.5 136.15
L 196.4 135.95
Q 196.3 135.9 196.25 135.8
L 196.2 135.65
Q 194.85 133.95 194.1 132.3 193.65 132.3 193.55 132.55 193.65 132.8 193.85 133.15 193.65 133.3 193.6 133.35 193.5 133.3 193.45 133.3 192.85 133.05 192.3 133.1 192.7 133.9 193.15 134.6 193 135.3 192.9 135.95
L 192.6 136.1
Q 192.6 137.75 192.45 138.3 192.45 138.4 192.4 138.45
L 191.95 137.9
Q 191.8 136.25 191.45 134.65 190.75 131.85 189.3 129.25 188.45 129.25 188.3 129.75 188.35 129.95 188.4 130.1 188.4 130.25 188.5 130.45 188.45 130.55 188.45 130.9 188.45 131.4 188.65 132.1
L 188.4 132.1 188.4 134.5
Q 189.4 136.8 190.9 142.3 191.2 142.1 191.5 141.8 191.8 142.2 192.2 142.2 192.25 142.2 192.35 142.2 192.6 142.5 192.9 142.75 193.6 142.1 194 139.25 194.3 137.6 194.35 136.55 195.2 137.9 196.05 138.95 196.95 140.2 198.15 141.6 198.35 141.85 198.6 142.1 200.5 144.2 205.4 148.85 204.05 149.95 202.9 150.8 201.1 152.2 200 152.7 199.7 152.45 199.35 152.1 198.25 151 197.75 150.65
L 195.6 150.65
Q 192.95 152.55 187.15 155.1 182 157.3 176.25 159.3 170 161.05 164.45 162.8 163.35 163.15 162.3 163.45 159.45 164.4 157.3 165.15
L 157.3 162.05
Q 158.05 161.05 158.7 160.1 160.65 156.95 160.65 154.85 160.65 153.2 159.4 151.1 157.65 148.25 154.8 148.4 154.05 148.75 153.55 149.25 153.45 149.4 153.25 149.6 151.85 150 149.75 152.05 147.55 154.15 146.75 155.6 146 157 142.85 160 141.35 161.45 140.5 162.45 139.75 163.35 139.55 163.9 138.4 167.45 138 171.9 137.9 173.05 137.85 174.6 132.5 166.95 129.5 162.35 124 153.7 124 149.05 124 143.75 124.9 140.1 125.5 137.7 125.95 135.85 126.45 136.35 127.35 137.2 129.05 138.9 129.5 138.9 130.95 138.9 131.7 138.2 131.6 139.2 131.6 140.2 131.6 143.2 133.15 147.25 135.45 153.15 139.45 153.15 140.35 153.15 140.7 152.9 140.75 152.8 141.05 152.3 138.95 151.3 136.45 146.9 135.05 144.45 134.5 142.6 135.1 142.95 135.45 142.35 136.1 141.2 136.55 141.05
L 138.1 140.9
Q 138.8 142.25 140.45 143.2 143.15 144.7 143.3 144.8 143.85 144.45 144 144.1 143.5 143.15 143.45 141.35 143.4 139.2 143.2 138.45 142.25 135.05 135 133.6 135.05 133.55 135.05 133.5 136.4 128.35 138.9 127.6
L 141.5 127.45
Q 144.25 130.2 145.15 131.25 145.6 131.8 146.1 132.6 146.85 134.05 147.35 135.75 147.35 135.95 147.35 136.25 147.2 137.65 147.3 138.2 147.4 138.65 148.05 139.95 148.1 140.1 148.2 140.2 148.15 141.05 148.1 142.45 148.05 143.1 148.15 143.65 147.8 144.15 147.55 144.55
L 147.95 145.95 148.35 145.95
Q 148.5 145.8 148.75 145.55 148.8 145.65 148.9 145.75
L 154.8 145.9
Q 155.45 145.9 159.7 144.85 164.65 143.7 165.35 143.55 165.6 143.35 165.7 143.05 165.75 142.85 165.75 141.8 165.75 140.95 164.9 137.6 164.7 136.8 164.45 135.85 164.7 136.1 164.95 136.35 165.7 137.1 166.15 137.4 167.5 138.45 168.65 138.45 169.4 138.45 169.5 138.1
L 169.6 137.8
Q 169.5 136.7 168.95 134.95 168.4 133.2 168.35 132.4
L 169.2 132.55
Q 169.85 133.2 170.75 134 171.55 135.3 172.35 136.4 172.3 136.75 172.2 137.1
L 172.6 137.1
Q 172.65 136.95 172.65 136.8 175.55 140.9 176.7 141.35 176.75 141.35 176.8 141.4 176.8 141.65 176.9 141.7 177 141.75 177.45 141.8 177.6 141.65 177.95 141.35 177.95 141.3 178.05 141.25 178.45 140.9 179.1 140.65 179.4 140.25 179.7 139.85 181.3 137.55 184.2 133.8 186.1 131.2 187.35 129.1 187.95 128 188.4 127.05 187.4 126.1 186.05 128.1 185.8 128.4 185.55 128.8 184.45 131.1 183.85 132.15 183.55 132.6 183.35 132.8 178.25 138.05 177.15 140 176.55 139.25 175.55 137.85
L 175.5 137.8 175.55 137.8
Q 176.3 138.35 177 138.75
L 177.15 138.3
Q 176.9 137.5 176.6 137.1 175.85 136.85 175.1 136.4 174.6 136.15 174.1 135.8 173.45 134.9 172.85 134.25 172.85 134.2 172.85 134.15 172.85 133.4 169.75 128.65 168.25 126.4 167.35 125 166.3 123.35 166.05 123
L 165.55 123
Q 165.6 123.3 166.25 124.3 167.3 126.05 169.9 130.05 170.9 131.65 171.55 132.9 171 132.5 170.5 132.3
L 170.35 132.6
Q 168.55 131.05 167.5 130.45 167.4 130.35 167.3 130.2 167.1 130.05 167.1 130.85 167.1 132.35 167.6 134.05 167.8 134.7 168 135.25 168.35 136.15 168.75 136.6 168.55 136.6 168.3 136.55 168.25 136.5 168.15 136.5 167 136.1 165.15 134.5 164.8 134.15 164.55 133.9 163 132.35 162.85 132.3
L 162.65 132.65
Q 163.3 134.8 163.95 137.85 164.2 138.75 164.35 139.45 164.8 141.6 164.95 142.2
L 163.7 142.5
Q 161.55 143.05 159.4 143.4 158.7 143.5 157.95 143.65 154.3 144.15 149.45 144.35 149.45 144.2 149.45 144 149.6 143.7 149.7 143.3 150.3 141.6 150.3 140.4 150.15 139.45 149.95 138.55 149.25 134.95 147.8 131.65 144.2 123.45 138.9 125.65 135.25 126.9 133.2 132.3 132.25 134.75 131.85 137.1 131.1 135.85 128.75 134 127.45 133 126.8 132.4 127.35 130.15 127.4 129.65 126.8494140625 130.1638671875 126.3 130.85 126.1361328125 131.1208984375 125.95 131.4 126.1609375 129.796484375 128.9 122.25 129.11640625 121.6521484375 129.35 121 129.66015625 120.166796875 130 119.25 130.35 118.15 130.7 117.2 135.05 105.3 135.15 105.05 135.25 104.5 135.4 104 136.35 99.85 137 97.9 138.3 94.1 141.9 91.4 144.2 89.7 149 84.75 150.65 83.2 158.15 81.55 160.4 81.05 162.15 80.7 165.95 80.6 166.8 80.5 166.95 80.45 167.3 80.25 173.2 78 173.75 77.75 175.05 77.25 175.9 76.8 177.05 77.5 178.9 78.1
M 134.05 114.75
Q 133.65 115.55 133.3 116.9 132.9 118.3 132.9 119.25 132.9 121.55 133.1 122.8
L 133.65 122.6
Q 133.8 120.45 133.85 119.3 134.05 117.3 134.35 116
L 134.05 114.75
M 137.9 109.25
Q 136.9 109.55 136.5 110.95 136.35 111.5 136.2 113 136.15 113.8 135.7 115.9 135.25 117.9 135.25 118.6 135.25 119.4 135.3 119.45 135.35 119.45 135.6 119.45 135.9 117.9 136.7 114.4 137.6 110.7 137.9 109.25
M 140.5 109.9
Q 141 108.85 141.45 107.95 144.9 100.95 145.65 99.25 143.95 100.55 141.55 105.5 141.05 106.55 140.65 107.4 140.55 107.55 140.5 107.7 138.05 112.8 137.75 113.3 138.1 113.65 138.65 113.65 139.65 111.65 140.5 109.9
M 157.9 107.3
L 157.7 107.1
Q 156.6 107.1 153.85 108.85 152.9 109.4 151.8 110.2 149.8 111.55 148.35 112.5 146 114 145.1 114.35
L 145.45 114.6
Q 146.1 114.15 148.65 112.7 149.65 112.15 150.9 111.4 152.3 110.65 153.45 110 156.45 108.25 157.9 107.3
M 164.45 156.1
Q 165.1 156.9 166.95 158 168.95 159.2 169.6 158.95 168.7 158.05 166.55 157 164.7 156.1 164.45 156.1
M 165.55 111.65
L 165.5 111.45
Q 164.9 111.4 162.55 112.25 159.95 113.15 159.6 113.95 160.65 113.6 163 112.75 164.85 112.05 165.4 111.8 165.5 111.75 165.55 111.7
L 165.55 111.65
M 166.7 106.75
L 166.55 106.5
Q 164.75 106.55 158.25 110.2 154.75 112.15 151.9 113.3 151.1 113.6 150.4 113.85 148.6 114.4 147.15 114.6 147 114.7 146.9 114.9 146.85 115 146.85 115.1
L 148.85 115.15
Q 149.7 114.7 150.9 114.15 151.35 113.9 151.85 113.7 154.7 112.35 159.05 110.35 165.8 107.25 166.7 106.75
M 166.8 83.95
Q 165.95 83 164.2 83.65 169.4 89.9 173.7 96 173.95 96.5 174.3 96.95 179.85 105.15 183.65 113.15 186 118.3 187.65 123.35
L 188.15 123.2
Q 188.15 122.85 188.2 122.6 188.2 117.9 185.8 112.4 185.55 111.95 185.3 111.45 185.1 111 184.85 110.5 183.2 107.2 180.05 102.15 177.6 98.15 176.3 96.35 175.7 95.55 175.1 94.8 174.5 93.95 173.85 93.25 172.95 92.25 172.05 91.4 171.7 91.05 170.35 89 169.05 87 168.35 86.3 167.35 84.55 166.8 83.95
M 188.35 91.4
Q 188.15 91.35 187.95 91.45 181.15 93.6 180.05 100.5 180.05 101.25 180.1 101.7 180.15 101.85 180.45 102.65
L 181.1 102.55
Q 181.1 102.35 181.15 102.15 184.35 95.95 188.35 91.4
M 186.2 99.35
Q 184.3 100.4 183.1 102.1
L 182.1 103.3 187.5 98.85
Q 186.85 99.1 186.2 99.35
M 179.8 89.45
Q 176.5 91.75 177.15 95.8
L 177.7 95.6
Q 177.85 92.15 179.8 89.45
M 169.4 156.8
Q 170.05 159.05 172.05 159.65
L 172.2 159.25
Q 171.95 159 171.3 157.55 170.9 156.65 170.35 155.4 169.45 153.1 166.55 153.35 168.8 153.95 169.35 156.4 169.4 156.55 169.4 156.8
M 164.1 159.2
Q 164.35 159.3 164.75 159.4 166.1 159.45 167.05 159.65 167.9 159.8 168.5 159.8 169.85 159.8 169.4 159.65 169.35 159.5 168.7 159.3
L 168 159.15
Q 167.3 158.75 164.05 158.7 163.7 158.7 163.4 158.7 163.4 159 164.1 159.2
M 169.4 184.75
L 169.3 184.15
Q 165.6 185.55 162.55 186.7 156.6 189.1 155.65 190.45
L 159.9 188.9
Q 163.8 187.45 168 186.5 168.2 186.35 168.7 185.7 169.3 184.95 169.4 184.75
M 118.6 157.3
Q 118.6 158.0703125 119.45 160 121.0857421875 163.63125 125.7 171.3 126.65 172.95 128.05 176.65 124.7 172.45 122.55 169.35
L 122.05 169.35
Q 123.85 172.95 127.3 177.25 128.25 178.45 129.2 179.6 131 183.25 133.65 184.9 133.3 184.2 132.85 183.4 133.4 183.9 133.95 184.4
L 134.05 184.15
Q 132.75 182.55 131.65 181.25 127.163671875 172.6080078125 120 157.35 119.5802734375 156.46875 119.15 155.55
L 118.8 155.55 118.7 155.9
Q 118.6 156.45 118.6 157.3
M 100.5 231.6
Q 100.4 231.1 100.05 230.55 99.25 231.4 97.55 235.85 97.15 236.9 96.75 237.85 96.3 239 95.95 239.9 95.05 242.15 94.65 242.95 94.4 243.55 90.55 250 87.15 255.7 87.15 256.35 87.15 257.25 87.3 257.45 87.45 257.55 87.7 257.65 91.2 252.75 94.85 246.55 98.1 240.95 99.5 237.35 99.35 240.6 98.3 244.65 97.35 248.2 95.15 255.25 97.05 253.9 98.85 248.85 100.55 244.05 100.55 240.75 100.55 237.8 100.2 235.35 100.55 233.95 100.55 233 100.55 231.95 100.5 231.6
M 87.25 190.2
L 86.8 190.2 86.75 191.95
Q 86.75 192.75 87.15 193.75 87.75 195.35 87.8 195.45 88 196.1 88.15 197.5 88.45 198.5 90.15 198.05 89.4 196.8 88.5 194.1 87.65 191.25 87.25 190.2
M 92.2 141.8
L 91.75 141.95
Q 93.55 144.45 99.05 150.7 103.7 156.45 103.9 159.65
L 104.45 159.5
Q 105.35 156.25 100.3 150.4 94.15 144.15 92.2 141.8
M 82.85 146.8
L 82.45 146.8
Q 83.05 147.65 86.85 150 91.75 153.05 92.1 153.35 93.45 154.35 95.5 157.1 97.2 159.4 99.25 160.35
L 99.5 160.05
Q 95.1 154.2 94.1 153.25 90 149.3 82.85 146.8
M 79.8 187.85
Q 75.45 184.35 74.35 183.55 71.6 180.15 70.1 178.5 67.35 175.45 64.8 175.8 64.8 176.45 65.1 176.7 65.25 176.5 66.1 176.6 66.5 176.65 66.85 176.7 71.6 182.5 74.45 185.35 79.15 190.1 84.65 193.6 85.25 195.45 86.3 197.8
L 86.8 197.65
Q 86.95 198.35 86.95 196.95 86.95 195.65 86.3 193.5
L 86.55 193.1
Q 86.3 192.9 86.05 192.7 86 192.5 85.9 192.25 84.7 188.7 84.45 186.9
L 84.05 186.9
Q 84.05 187.85 83.95 189.65 83.95 190.35 84.1 191.25 82.25 189.8 79.8 187.85
M 70.3 149.85
Q 73.05 150.4 79.8 151.55 83.15 152.05 86.95 153.25 88.8 153.75 91.5 155.55 94.4 157.4 94.8 157.55 95.2 157.3 95.2 156.9 91.7 153.75 86.55 152.2 80.6 150.4 70.3 149.85
M 49.55 296.7
Q 49.5 296.7 49.5 296.75 49.1 297.35 47.25 299.65 47.25 299.7 47.2 299.75 45.55 301.8 45.55 302.35 45.55 303.7 45.8 302.85 46.8 301.7 48.35 299.6 49.1 299.55 49.55 299.55
L 49.55 298
Q 49.75 297.8 49.9 297.55 52.45 293.95 53.65 292.6 53.05 292.85 51.4 294.6 50.25 295.8 49.55 296.7
M 48.65 292.65
Q 48 293.2 47.4 293.75 42.2 298.15 40.7 300.45 40.6 300.5 40.55 300.6 40.6 300.55 40.75 300.45 41.5 299.75 44.85 297 46.5 295.65 48.8 293.8 54.25 289.3 56 286.65
L 55.9 286
Q 55.05 287.3 48.65 292.65
M 108.2 264.55
L 107.75 264.55
Q 107.65 265.8 107.45 268.7 107.3 271 107.15 274.45 106.9 280.35 106.15 284.05
L 106.7 283.95
Q 107.7 279.55 108 278.15 108.4 276.15 108.4 273.65
L 108.4 271.15 108.2 264.55
M 103.8 253
L 103.4 253
Q 103.35 252.85 103.35 252.8 103.25 252.75 103.25 253.65 103.25 253.7 103.75 260.25 103.8 260.55 103.8 260.8 104.25 266.8 104.2 269.9 104.2 272.2 103.1 278.35 102 284.6 102 287.05 102 287.95 102.1 288.35 102.2 288.6 102.5 289.2 102.75 289.05 102.9 288.75
L 102.95 288.55
Q 103.25 284.8 104.45 277.5 105.35 271.95 105.35 267.4 105.35 265.65 105.3 264.05 105.05 258 103.8 253
M 137.7 246
Q 138.3 245.15 138.5 244.75 136.35 247.2 134 251.55 133.2 252.95 132.4 254.6 130.45 258.5 127.6 265.45
L 128.05 265.45
Q 130 262.05 133.3 255.75 136 250.6 136.85 248.7 137.2 247.85 137.2 247.65 137.2 246.8 137.7 246
M 35.95 192.85
Q 35.95 193.15 35.95 193.4 35.95 194.05 36.1 195.7 36.2 197.3 36.2 198.15
L 36.75 198.05
Q 36.25 193.55 37.5 188.85 37.6 188.4 37.7 188 39 183.6 41.5 179.75 40.75 181.25 40.05 183.05 39.55 184.4 39.15 185.7 37.55 190.75 37.55 194.95 37.55 198.2 38.1 200.4 38.3 200.25 38.4 199.9
L 38.5 199.65
Q 38.95 191.1 40.05 186.7 40.7 184.1 41.65 181.75 45.5 176.25 52.6 168 52.7 167.85 52.85 167.7
L 52.85 167.3
Q 55.1 166.2 58.8 164.65 64.9 162.25 66.35 161 51.25 163.85 42.8 174.85 36.15 183.55 35.95 192.85
M 101.6 219.95
Q 101.55 219.55 101.5 219.2 101.35 218.55 101.2 218.05 101.05 218.1 100.95 218.3 99.85 219.45 99.35 223.5 99.1 225.9 99.1 228.25 99.1 228.8 99.2 229.25 99.25 229.45 99.3 229.55 99.5 230.05 99.5 230.15 100.1 229.6 100.65 227.55 100.85 226.75 101.05 225.75 101.75 222.8 101.75 221.95 101.75 220.9 101.6 219.95
M 103.45 178.2
Q 102.55 177 102.15 176.45
L 101.75 176.45
Q 101.8 176.6 101.95 176.75 103.75 180 107.8 187.3 111.7 194.05 114.95 197.5 114.7 196 112.4 192.3 109.8 188.3 109.45 187.2 108.7 185.15 105.95 181.45 104.4 179.5 103.45 178.2
M 90.05 162.6
L 89.65 162.6
Q 90.5 165.7 94.3 170.9 96.45 173.9 100.9 179.6 103.15 182.7 105.2 188.3 107.35 194.3 108.75 196.5 108.7 195.5 108.55 194.4 107.45 188.2 102 179.85 101.15 178.65 100.35 177.55 93.4 167.85 90.05 162.6
M 80.85 167.35
Q 80.35 166.8 80.25 166.7
L 79.7 166.35
Q 79.05 165.9 77.55 164.95 75.9 163.9 75.15 161.6
L 74.75 161.6
Q 74.75 161.85 74.65 162.3 74.6 162.75 74.6 163.45 74.6 163.95 78.7 167.9 83.35 172.4 84.95 175.35 85.6 176.55 87.6 180.4 88.05 181.25 88.55 182.25 89.85 184.8 91.55 188.15 92.6 190.4 93.5 194.55 94 196.9 94.8 201 95 201.9 95.05 207.4 95.05 210 95.55 211.8 89.65 211.25 83.6 209.2 81.25 208.25 79.6 207.6 77.25 206.7 76.3 206.45
L 76.1 206.9
Q 76.1 207.45 76.8 208.55 78.65 208.9 83.6 211.2 87.85 213.25 94.85 214.1 95 214.15 95.15 214.15 95.7 214.7 97.4 216.85 98.9 218.75 99.35 219.1
L 99.9 218.7
Q 100.35 218.3 100.35 217.5
L 100.35 217.45
Q 100.3 216.55 98.35 214.25 97.75 213.55 97.3 213.1 97.45 212.95 97.55 212.95 97.9 204.15 97.9 203.6 97.9 197.8 96.75 193.75 95.6 189.8 92.1 182.8 91.7 181.95 91.3 181.25 89.3 177.3 89.15 177 87.45 174 85.2 172.05 84.5 171.45 82.55 169.25 81.45 168 80.85 167.35
M 198.6 213.35
L 198.6 219 198.5 227.1
Q 198.5 233.25 198.6 236.15
L 199.15 236.1
Q 199.4 225.75 199.15 216.9 199.1 215.1 199.05 213.35
L 198.6 213.35
M 198.4 217.1
Q 198.4 215 197.95 213.2
L 197.35 213.2
Q 197.35 213.8 196 224.25 195.95 224.6 195.9 224.95 194.65 234.65 194.65 236.5 194.65 237.85 194.75 237.3
L 195.3 237.15
Q 195.65 236.05 196.95 228.3 197.8 223.3 198.15 220.3 198.4 218.2 198.4 217.1
M 146.95 301.4
Q 152.15 301.65 153.2 301.65 157.1 301.65 165.15 299.4 173 297.15 176.5 295.1 177.35 295.2 180.85 295.85 184.15 296.45 185 296.5 185.15 296.65 192.65 296.8 196.35 296.9 200.05 296.9 203.7 295.9 210.8 294.5 215.95 293.5 216.75 292.85 216.65 292.5 216.2 292.25 215.7 292 214.9 291.9 214.45 292 209.9 293.35 207.9 293.9 205.1 294.35 202.85 294.7 200.05 295
L 185.8 295.1
Q 184.85 294.9 183.9 294.7 178.25 293.4 176.35 293.1 176 293.05 175.75 293 173.1 294.35 171.2 295.25 167.65 297 163.95 298.05 154.95 300.6 142.2 300.1 139.15 299.95 135.9 299.65 135.9 300.05 137.2 300.35 137.75 300.4 138.4 300.45 139.75 300.65 141.65 301.05 141.65 301.1 146.95 301.4
M 193.15 305.7
L 192.7 305.55
Q 192.45 305.45 191 305.45
L 189.5 305.45 189.5 305.7 177.05 306.15
Q 179.35 305.65 182 305 182.3 304.75 182.45 304.45
L 182.5 304.15
Q 179.4 305.1 177 305.75 176.2 306 175.3 306.25
L 174.4 306.25
Q 174.4 306.35 174.55 306.4 170.5 307.35 164.45 308.05 164.05 308.45 163.95 308.95 167.15 308.45 175.1 306.65 175.7 306.8 176.9 306.95
L 184.3 307.05
Q 185.45 307.05 189.1 306.7 193 306.35 193.65 306.1 193.6 305.9 193.15 305.7
M 148.5 304.65
Q 148.5 304.9 152.55 305.1 155.95 305.3 157.6 305.3 163.95 305.3 170.65 303.6 174 302.75 176.75 301.9 178.1 301.9 180.05 302.4 180.2 302.6 188.75 302.7 193 302.8 197.2 302.85 197.85 302.55 199.8 302.55 201.25 302.55 204 300.35
L 203.6 299.95
Q 203.15 299.95 201.05 300.35 198.1 300.95 196.7 301.15
L 180.85 301.25
Q 180.5 301.05 178.55 300.8 176.4 300.45 174.8 300.45 171.95 300.95 170.45 301.7 169.2 302.55 168.25 302.9 164.65 304.2 148.5 304.65
M 276.8 277.9
L 275.95 277.9 275.9 278.65 275.85 279.3
Q 275.8 280.25 275.75 281.1 275.55 283.7 275.55 285.95 275.55 288.65 275.8 289.85
L 276.1 289.85 276.8 289.85
Q 277.5 288.3 277.5 285.75 277.5 281.75 277 278.85
L 276.85 278.15 276.8 277.9 Z"/>

<path fill="#C5CDD4" stroke="none" d="
M 283.35 306.15
Q 282.71484375 305.99609375 282 305.8 278.55 304.8 278.05 304.65
L 275.05 304.65
Q 263.8 312.25 248 320.6
L 246.2 321.9 268.2 321.9
Q 269.8 320.7 272.9 318.65 279.3 314.45 280.4 314.45 281.862109375 314.45 283.35 314.55
L 283.35 306.15
M 283.35 268.2
Q 278.58984375 270.7552734375 275.8 271.85
L 276.15 272.3 275.4 273.2 217.2 269.05 216.35 268.25 199.5 266.1 199.8 266.6
Q 204.6 267.45 209.5 268.15 225.7 270.55 242.05 271.6 258.75 272.6 275 276.5 275.5 276.65 276 276.75
L 271.4 276.35
Q 273 277.05 274 278.15 274.45 278.6 274.85 279.25 275.3 278.95 275.9 278.65
L 275.95 277.9 276.8 277.9 276.85 278.15
Q 279.4240234375 276.74609375 283.35 274.75
L 283.35 273.7
Q 283.2236328125 273.7455078125 283.1 273.8
L 276.25 276.35 283.15 272.9
Q 283.2494140625 272.848828125 283.35 272.8
L 283.35 268.2 Z"/>

<path fill="#0F0F12" stroke="none" d="
M 283.35 283.8
L 283.35 282.85
Q 280.65 284.1255859375 280.65 284.5 280.65 285.35 281.1 285.15 281.3 285.05 281.5 284.8 282.2603515625 284.348828125 283.35 283.8
M 283.35 276.2
L 283.35 275.3
Q 283.09609375 275.4248046875 282.85 275.55
L 277.95 278.4 278.25 278.6
Q 279.6359375 277.90703125 283.35 276.2
M 113.15 188.5
L 112.7 188.5
Q 114.05 190.7 115.6 193.7 117.35 197 117.95 198.7
L 118.25 198.45
Q 118.15 196.35 116.4 193.5 114.15 190.2 113.15 188.5
M 82.15 238.4
Q 86.9 231.1 88.9 228.25 86.15 231.15 82 237.6 79.65 241.2 75.3 248.05
L 75.55 248.3
Q 77.75 245.2 82.15 238.4
M 90.2 222.6
L 89.3 222.5
Q 84.65 226.55 80.15 232.4 75.7 238.25 73.15 243.6 74.5 242.15 76.55 239.1 80 233.95 80.25 233.55 85.35 226.35 91.25 223.05 91.15 222.8 90.2 222.6
M 118.5 219.65
Q 118.5 219.8 118.1 219.95 124.75 222 135.8 227.85 132.6 224.1 118.5 219.65
M 123.2 217.7
L 123.2 218.55
Q 127.95 220.4 131.9 224.15 135.5 227.65 138.35 228.8 138.5 228.9 138.65 228.95 138.5 228.8 138.35 228.7 133.8 225.15 131.5 223.4 127.5 220.4 123.2 217.7 Z"/>

<path fill="#E5CFA5" stroke="none" d="
M 283.35 275.3
L 283.35 274.75
Q 279.4240234375 276.74609375 276.85 278.15
L 277 278.85
Q 277.5 281.75 277.5 285.75 277.5 288.3 276.8 289.85
L 276.1 289.85
Q 275.95 290.85 275.7 291.8 276.95 291.15 278.85 290.4 279.8 289.85 281.4 289.15 282.2791015625 288.750390625 283.35 288.25
L 283.35 283.8
Q 282.2603515625 284.348828125 281.5 284.8 281.3 285.05 281.1 285.15 280.65 285.35 280.65 284.5 280.65 284.1255859375 283.35 282.85
L 283.35 276.2
Q 279.6359375 277.90703125 278.25 278.6
L 277.95 278.4 282.85 275.55
Q 283.09609375 275.4248046875 283.35 275.3
M 153.2 301.65
Q 152.15 301.65 146.95 301.4 141.65 301.1 141.65 301.05 139.75 300.65 138.4 300.45 137.65 300.5 137.05 300.5 134.8 300.5 132.7 299.6 130.6 298.65 129.35 298.65 130.7 299 136.5 301.6 143.05 304.5 143.9 305.7
L 129.8 305.7
Q 119.35 303.6 110.35 301.4 101 299.05 95.9 297.1 98.75 298.9 101.85 300.4 107.7 303.15 113.65 305.85
L 112.45 306.95 99.85 301.95 92.65 303.05
Q 120.85 311.2 150.65 311.95 165.4 313 180.3 311.85 194.1 311.4 207.65 309.65 219 308.45 228.85 303 229.85 301.85 230.65 300.7 232.25 298.3 234.95 293.05 237.05 288.95 238.75 285.85
L 240.6 280.75 240.6 279.35
Q 239.2 281.3 237.55 283.25 236.15 285.4 234.35 287.35 233.8 287.9 233.25 288.45 232.2 289.45 230.85 289.75 229.6 290.7 228.3 291.7 218.1 299.45 208.15 300.95 209.7 300.65 218.5 291.6
L 218.05 291.6
Q 217.05 291.9 216.2 292.25 216.65 292.5 216.75 292.85 215.95 293.5 210.8 294.5 203.7 295.9 200.05 296.9 196.35 296.9 192.65 296.8 185.15 296.65 185 296.5 184.15 296.45 180.85 295.85 177.35 295.2 176.5 295.1 173 297.15 165.15 299.4 157.1 301.65 153.2 301.65
M 152.55 305.1
Q 148.5 304.9 148.5 304.65 164.65 304.2 168.25 302.9 169.2 302.55 170.45 301.7 171.95 300.95 174.8 300.45 176.4 300.45 178.55 300.8 180.5 301.05 180.85 301.25
L 196.7 301.15
Q 198.1 300.95 201.05 300.35 203.15 299.95 203.6 299.95
L 204 300.35
Q 201.25 302.55 199.8 302.55 197.85 302.55 197.2 302.85 193 302.8 188.75 302.7 180.2 302.6 180.05 302.4 178.1 301.9 176.75 301.9 174 302.75 170.65 303.6 163.95 305.3 157.6 305.3 155.95 305.3 152.55 305.1
M 192.7 305.55
L 193.15 305.7
Q 193.6 305.9 193.65 306.1 193 306.35 189.1 306.7 185.45 307.05 184.3 307.05
L 176.9 306.95
Q 175.7 306.8 175.1 306.65 167.15 308.45 163.95 308.95 164.05 308.45 164.45 308.05 170.5 307.35 174.55 306.4 174.4 306.35 174.4 306.25
L 175.3 306.25
Q 176.2 306 177 305.75 179.4 305.1 182.5 304.15
L 182.45 304.45
Q 182.3 304.75 182 305 179.35 305.65 177.05 306.15
L 189.5 305.7 189.5 305.45 191 305.45
Q 192.45 305.45 192.7 305.55 Z"/>

<path fill="#E0C277" stroke="none" d="
M 266.05 256.75
Q 274.9 257.428515625 283.35 258
L 283.35 235.25 235.2 251.05
Q 235.15 251.3 235.1 251.5
L 234.7 251.6
Q 234.45 251.8 234.15 251.8 233.85 251.8 233.75 251.55
L 205.1 261
Q 205.35 261.4 205.65 261.85
L 211 259.6
Q 216.65 257.4 220.95 256.45 227 255.05 229.7 254.2 230.5 254.15 247.35 255.25 249.65 255.6 266.05 256.75 Z"/>

<path fill="#D2A068" stroke="none" d="
M 53.55 308.05
Q 54.45 308.2 55.35 308.45 67.4 308.75 75.75 310.1 87.5 312.05 95.55 312.75 100.05 313.1 101.85 313.25 102.6 313.3 105.95 314.3 107.8 314.75 113.6 315.2 118.6 315.6 120.3 316.45 122.65 317.6 132.15 319 142.35 320.6 143 320.75 143.25 320.95 143.45 321 143.55 321.1 143.55 321.85
L 243.2 321.9
Q 243.6 321.6 243.95 321.35 245.15 319.55 253.7 314.65 268.4 306.15 274.35 302.1 279.1943359375 302.584375 283.35 303.55
L 283.35 292.05 279.4 293.85
Q 279.35 293.85 279.35 293.9 278.5 294.2 277.65 294.5
L 276.9 294.5
Q 275.55 295.25 274.85 295.25 274.8 295.25 274.7 295.25 273.45 295.25 272.2 295.15 270.5 295 270.35 294.8 259.5 293.65 256.35 293.2 252.3 292.6 250.1 291.9 239 301 224.85 307 223.65 307.45 222.45 307.95 193.15 319.5 160.9 316.15 133.1 313 105.4 308.3 95.85 306.7 86.8 303.55
L 97.7 300.7 95.05 298.8 83.9 302.25
Q 80.45 303.05 76.15 303.9 60.65 306.65 53.55 308.05
M 201.5 262.2
Q 201.3 262.25 201.05 262.3
L 164.55 274.35
Q 181.5 279.25 198.7 279.35 199.1 273.4 199.3 269.75
L 199.1 267.8 198.1 266.55 196.2 267.2 196.05 265.8 205.65 261.85
Q 205.35 261.4 205.1 261
L 201.5 262.2 Z"/>

<path fill="#7B5A53" stroke="none" d="
M 174.3 96.95
Q 173.95 96.5 173.7 96 173.55 97.35 173.4 99.05 173.05 102.2 172.55 106.5 171.15 118.55 170.15 122.15 169.75 120.9 166.1 118.5 161.9 115.75 161.75 115.6 162.75 114.75 165.4 111.8 164.85 112.05 163 112.75 160.65 113.6 159.6 113.95 159.95 113.15 162.55 112.25 164.9 111.4 165.5 111.45
L 165.55 111.65
Q 165.6 111.5 165.75 111.4 168.3 108.5 169 107.25 164.75 108.65 158.85 110.9 153.75 112.9 151.85 113.75
L 151.85 113.7
Q 151.35 113.9 150.9 114.15 149.7 114.7 148.85 115.15
L 146.85 115.1
Q 146.85 115 146.9 114.9 147 114.7 147.15 114.6 148.6 114.4 150.4 113.85 151.1 113.6 151.9 113.3 152.25 112.95 153.45 110 152.3 110.65 150.9 111.4 149.65 112.15 148.65 112.7 146.1 114.15 145.45 114.6
L 145.1 114.35
Q 146 114 148.35 112.5 149.8 111.55 151.8 110.2 152.9 109.4 153.85 108.85 154.7 106.35 154.7 105.3 149.5 108.6 147.95 109.75 141.85 113.85 140.2 116.1
L 140.2 115.15
Q 140.45 112.65 140.5 109.9 139.65 111.65 138.65 113.65 138.1 113.65 137.75 113.3 138.05 112.8 140.5 107.7 140.45 104.65 140.2 102.45
L 139.75 102.45
Q 138.4 104.35 134.55 113.35 130.8 122.1 130.7 122.15
L 130.7 117.2
Q 130.35 118.15 130 119.25 129.66015625 120.166796875 129.35 121 129.11640625 121.6521484375 128.9 122.25 126.1609375 129.796484375 125.95 131.4 126.1361328125 131.1208984375 126.3 130.85 126.8494140625 130.1638671875 127.4 129.65 127.35 130.15 126.8 132.4 127.45 133 128.75 134 131.1 135.85 131.85 137.1 132.25 134.75 133.2 132.3 135.25 126.9 138.9 125.65 144.2 123.45 147.8 131.65 149.25 134.95 149.95 138.55 150.15 139.45 150.3 140.4 150.3 141.6 149.7 143.3 149.6 143.7 149.45 144 149.45 144.2 149.45 144.35 154.3 144.15 157.95 143.65 158.7 143.5 159.4 143.4 161.55 143.05 163.7 142.5
L 164.95 142.2
Q 164.8 141.6 164.35 139.45 164.2 138.75 163.95 137.85 163.3 134.8 162.65 132.65
L 162.85 132.3
Q 163 132.35 164.55 133.9 164.8 134.15 165.15 134.5 167 136.1 168.15 136.5 168.25 136.5 168.3 136.55 168.1 136.05 168 135.25 167.8 134.7 167.6 134.05 167.1 132.35 167.1 130.85 167.1 130.05 167.3 130.2 167.4 130.35 167.5 130.45 168.55 131.05 170.35 132.6
L 170.5 132.3
Q 171 132.5 171.55 132.9 170.9 131.65 169.9 130.05 167.3 126.05 166.25 124.3 165.6 123.3 165.55 123
L 166.05 123
Q 166.3 123.35 167.35 125 168.25 126.4 169.75 128.65 172.85 133.4 172.85 134.15 172.85 134.2 172.85 134.25 173.45 134.9 174.1 135.8 174.6 136.15 175.1 136.4 175.85 136.85 176.6 137.1 176.9 137.5 177.15 138.3
L 177 138.75
Q 176.3 138.35 175.55 137.8
L 175.5 137.8 175.55 137.85
Q 176.55 139.25 177.15 140 178.25 138.05 183.35 132.8 183.55 132.6 183.85 132.15 185.2 129.25 185.65 127.85 185.8 127.95 186.05 128.1 187.4 126.1 188.4 127.05 187.95 128 187.35 129.1 187.9 129.6 188.4 130.1 188.35 129.95 188.3 129.75 188.45 129.25 189.3 129.25 190.75 131.85 191.45 134.65 192.1 136.3 192.45 138.3 192.6 137.75 192.6 136.1
L 192.9 135.95
Q 193 135.3 193.15 134.6 192.7 133.9 192.3 133.1 192.85 133.05 193.45 133.3 193.5 133.3 193.6 133.35 193.65 133.3 193.85 133.15 193.65 132.8 193.55 132.55 193.65 132.3 194.1 132.3 194.85 133.95 196.2 135.65
L 196.25 135.8
Q 196.3 135.9 196.4 135.95
L 196.5 136.15
Q 197.2 137 198 137.85 197.2 133.3 195.65 128.6 191.25 117.95 189.85 114.2 189.85 121.25 189.4 125
L 188.95 125
Q 188.6 123.85 188.2 122.6 188.15 122.85 188.15 123.2
L 187.65 123.35
Q 186 118.3 183.65 113.15 179.85 105.15 174.3 96.95
M 136.5 110.95
Q 136.9 109.55 137.9 109.25 137.6 110.7 136.7 114.4 135.9 117.9 135.6 119.45 135.35 119.45 135.3 119.45 135.25 119.4 135.25 118.6 135.25 117.9 135.7 115.9 136.15 113.8 136.2 113 136.35 111.5 136.5 110.95
M 133.3 116.9
Q 133.65 115.55 134.05 114.75
L 134.35 116
Q 134.05 117.3 133.85 119.3 133.8 120.45 133.65 122.6
L 133.1 122.8
Q 132.9 121.55 132.9 119.25 132.9 118.3 133.3 116.9
M 182.05 92
Q 181.5 92.55 181 93.1
L 180.05 84.2 175.45 93.95 180.05 100.5
Q 181.15 93.6 187.95 91.45 188.15 91.35 188.35 91.4 184.35 95.95 181.15 102.15
L 185.05 110.2
Q 186.15 108 187.45 105.95 191.95 98.8 200.3 97.2 202.4 96.75 204.45 95.9 198.95 95.3 193.65 93.6 192.45 93.15 191.1 93.2 189.75 93.4 188.4 93.55
L 191.75 85.1
Q 189.2 85.75 187 87.25 184.65 88.7 183.05 90.8 182.6 91.4 182.05 92
M 177.15 95.8
Q 176.5 91.75 179.8 89.45 177.85 92.15 177.7 95.6
L 177.15 95.8
M 183.1 102.1
Q 184.3 100.4 186.2 99.35 186.85 99.1 187.5 98.85
L 182.1 103.3 183.1 102.1 Z"/>

<path fill="#B06929" stroke="none" d="
M 192.4 138.45
Q 192.45 138.4 192.45 138.3 192.1 136.3 191.45 134.65 191.8 136.25 191.95 137.9
L 192.4 138.45
M 186.05 128.1
Q 185.8 127.95 185.65 127.85 185.2 129.25 183.85 132.15 184.45 131.1 185.55 128.8 185.8 128.4 186.05 128.1
M 168.3 136.55
Q 168.55 136.6 168.75 136.6 168.35 136.15 168 135.25 168.1 136.05 168.3 136.55 Z"/>

<path fill="#FEB5AA" stroke="none" d="
M 177.95 141.35
Q 177.6 141.65 177.45 141.8 177 141.75 176.9 141.7 176.8 141.65 176.8 141.4 176.75 141.35 176.7 141.35 178.15 145.15 179.5 146.1 180.5 144.35 182.1 143 183.05 142.2 185.2 140.45 185.2 142.3 185.9 144.55 186.6 146.8 186.6 149.1 186.6 152.55 186.3 153.05 185.6 154.3 181.9 155 180.4 155.3 176.85 156.65 173.8 157.8 172.5 157.8 172.05 157.8 171.3 157.55 171.95 159 172.2 159.25
L 172.05 159.65
Q 170.05 159.05 169.4 156.8 168.8 156.45 168.05 156.1 164.75 154.4 163.6 154.55 163.85 155.85 164.05 158.7 167.3 158.75 168 159.15
L 168.7 159.3
Q 169.35 159.5 169.4 159.65 169.85 159.8 168.5 159.8 167.9 159.8 167.05 159.65 166.1 159.45 164.75 159.4 164.35 159.3 164.1 159.2 164.25 161.5 164.45 162.8 170 161.05 176.25 159.3 182 157.3 187.15 155.1 192.95 152.55 195.6 150.65
L 197.75 150.65
Q 198.25 151 199.35 152.1 199.7 152.45 200 152.7 201.1 152.2 202.9 150.8 204.05 149.95 205.4 148.85 200.5 144.2 198.6 142.1 198.35 141.85 198.15 141.6 196.95 140.2 196.05 138.95 195.2 137.9 194.35 136.55 194.3 137.6 194 139.25 193.6 142.1 192.9 142.75 192.6 142.5 192.35 142.2 192.25 142.2 192.2 142.2 191.8 142.2 191.5 141.8 191.2 142.1 190.9 142.3 189.4 136.8 188.4 134.5
L 188.4 132.1 188.65 132.1
Q 188.45 131.4 188.45 130.9 188.45 130.55 188.5 130.45 188.4 130.25 188.4 130.1 187.9 129.6 187.35 129.1 186.1 131.2 184.2 133.8 181.3 137.55 179.7 139.85 179.4 140.25 179.1 140.65 178.45 140.9 178.05 141.25 177.95 141.3 177.95 141.35
M 166.95 158
Q 165.1 156.9 164.45 156.1 164.7 156.1 166.55 157 168.7 158.05 169.6 158.95 168.95 159.2 166.95 158
M 157.3 162.05
L 157.3 165.15
Q 159.45 164.4 162.3 163.45
L 161.25 163.45
Q 159.9 162.7 158.7 160.1 158.05 161.05 157.3 162.05
M 141.5 127.45
L 138.9 127.6
Q 136.4 128.35 135.05 133.5 135.05 133.55 135 133.6 142.25 135.05 143.2 138.45 143.4 139.2 143.45 141.35 143.5 143.15 144 144.1 143.85 144.45 143.3 144.8 143.15 144.7 140.45 143.2 138.8 142.25 138.1 140.9
L 136.55 141.05
Q 136.1 141.2 135.45 142.35 135.1 142.95 134.5 142.6 135.05 144.45 136.45 146.9 138.95 151.3 141.05 152.3 140.75 152.8 140.7 152.9 140.35 153.15 139.45 153.15 135.45 153.15 133.15 147.25 131.6 143.2 131.6 140.2 131.6 139.2 131.7 138.2 130.95 138.9 129.5 138.9 129.05 138.9 127.35 137.2 126.45 136.35 125.95 135.85 125.5 137.7 124.9 140.1 124 143.75 124 149.05 124 153.7 129.5 162.35 132.5 166.95 137.85 174.6 137.9 173.05 138 171.9 138.4 167.45 139.55 163.9 139.75 163.35 140.5 162.45 139.95 162.25 138.3 161.7 135.75 160.8 134.5 160.15 135 160.15 135 159.7 139.2 157.6 143.55 152.55 146.55 149.05 147.95 145.95
L 147.55 144.55
Q 147.8 144.15 148.15 143.65 148.05 143.1 148.1 142.45 148.15 141.05 148.2 140.2 148.1 140.1 148.05 139.95 147.4 138.65 147.3 138.2 147.2 137.65 147.35 136.25 147.35 135.95 147.35 135.75 146.85 134.05 146.1 132.6 145.6 131.8 145.15 131.25 144.25 130.2 141.5 127.45
M 180 178.1
Q 180.15078125 177.96171875 180.3 177.8 178.16640625 178.8123046875 176.05 179.1 175.9529296875 179.1216796875 175.85 179.1 171.9091796875 181.295703125 166.8 183.7 151.9 190.3 150.4 191.15
L 150.4 192.1
Q 150.9 192.1 152.1 192.35 153.25 192.55 153.75 192.55 152.6 196.1 149 201.7 147.1 204.6 144.35 208.5
L 143.9 208.5
Q 144 204.25 140.2 195.85
L 140.2 195.45
Q 140.15 197.1 139.25 213.25 139.05 216.15 138.95 218.55 139.65 219.55 141.65 222.55 142.9 224.4 146.05 229.95 146.15 229.8 146.2 229.65
L 146.15 229.5
Q 149.7 221.35 154.7 211.9 158.4 204.95 160.85 201.15 159.8 200.7 159.45 200.1 159.3 199.95 159.25 199.7 156.25 198.65 153.3 196.85 153.75 196.7 153.75 196.55 154.2 196.6 159.1 197.9 159.35 198 159.6 198.05 159.65 198.05 159.7 198.05 160.4 198.05 160.9 198.35 161.9 198.6 162.95 198.75 162.9 198.65 162.85 198.6 163.55 198.3 164.4 198.35 174.65 195.1 183.65 187.8 184.85 186.85 187.45 184.6 188.5 183.65 189.85 182.45 185.55 183.85 178.75 185.5 181.3 183.9 191.4 179.15 193.4 178.2 195.1 177.2 194.65 176.85 194.25 176.25 193.65 175.45 193.65 174.75
L 194.1 174.75
Q 194.25 175.8 195.15 177.15 198.4 175.05 200.25 172.55 201.65 170.6 203.55 167.55 203.25 167.25 202.9 167 203.65 166.25 204.45 166.1 204.8 165.55 205.15 164.9 206.75 162.2 209.65 157.25 209.6 157.15 208.8 156.1 207.4 157.95 205.2 160.8 198.6 169.15 196.95 171.2 194.35 174.5 186.9 177.7 185.2 178.4 182.55 179.4 179.75 180.4 175.95 181.75 174.4 182.2 172.75 182.75 175 180.6 180 178.1
M 169.3 184.15
L 169.4 184.75
Q 169.3 184.95 168.7 185.7 168.2 186.35 168 186.5 163.8 187.45 159.9 188.9
L 155.65 190.45
Q 156.6 189.1 162.55 186.7 165.6 185.55 169.3 184.15
M 186.95 171.5
Q 187.016796875 171.5439453125 187.05 171.55
L 187.05 171.45
Q 187.0154296875 171.48515625 186.95 171.5
M 137.1 134.9
L 135.45 135
Q 135.1 135.4 134.4 136.6
L 134.4 136.65
Q 134.05 138.6 134.05 140.4 134.05 141.05 134.25 141.85 134.8 140.65 135.8 139.85
L 138.65 139.7
Q 139.4 139.7 140.3 140.25 141.45 140.9 142.05 141.05 142.2 139.7 140.7 137.75 139.05 135.55 137.1 134.9
M 188.9 206.65
L 188.4 206.65
Q 187.95 207.6 186.25 210.25 184.6 212.85 184.25 213.25
L 184.25 210.85
Q 185.7 198.8 186.5 192.1 185.3 194.8 181.75 199.3 177.4 204.85 173.7 207.85 173.7 208 173.8 208.1 177.25 215.1 180.05 220.5 179.75 220.35 179.45 220.15 180.65 222.45 182.25 225.35 185.95 231.95 187.45 236.15
L 187.5 236.2 187.5 236.1
Q 188.65 229.75 189.8 223.25 189.7 221.85 189.6 220.35 188.9 208.35 188.9 206.65 Z"/>

<path fill="#8F7260" stroke="none" d="
M 179.8 78.4
Q 179.4 78.2 178.9 78.1 177.05 77.5 175.9 76.8 175.05 77.25 173.75 77.75 173.2 78 167.3 80.25 166.95 80.45 166.8 80.5 165.95 80.6 162.15 80.7 160.4 81.05 158.15 81.55 150.65 83.2 149 84.75 144.2 89.7 141.9 91.4 138.3 94.1 137 97.9 136.35 99.85 135.4 104 135.25 104.5 135.15 105.05 135.05 105.3 130.7 117.2
L 130.7 122.15
Q 130.8 122.1 134.55 113.35 138.4 104.35 139.75 102.45
L 140.2 102.45
Q 140.45 104.65 140.5 107.7 140.55 107.55 140.65 107.4 141.05 106.55 141.55 105.5 143.95 100.55 145.65 99.25 144.9 100.95 141.45 107.95 141 108.85 140.5 109.9 140.45 112.65 140.2 115.15
L 140.2 116.1
Q 141.85 113.85 147.95 109.75 149.5 108.6 154.7 105.3 154.7 106.35 153.85 108.85 156.6 107.1 157.7 107.1
L 157.9 107.3
Q 156.45 108.25 153.45 110 152.25 112.95 151.9 113.3 154.75 112.15 158.25 110.2 164.75 106.55 166.55 106.5
L 166.7 106.75
Q 165.8 107.25 159.05 110.35 154.7 112.35 151.85 113.7
L 151.85 113.75
Q 153.75 112.9 158.85 110.9 164.75 108.65 169 107.25 168.3 108.5 165.75 111.4 165.6 111.5 165.55 111.65
L 165.55 111.7
Q 165.5 111.75 165.4 111.8 162.75 114.75 161.75 115.6 161.9 115.75 166.1 118.5 169.75 120.9 170.15 122.15 171.15 118.55 172.55 106.5 173.05 102.2 173.4 99.05 173.55 97.35 173.7 96 169.4 89.9 164.2 83.65 165.95 83 166.8 83.95 167.35 84.55 168.35 86.3 169.05 87 170.35 89 171.7 91.05 172.05 91.4 172.95 92.25 173.85 93.25 174.5 93.95 175.1 94.8 175.7 95.55 176.3 96.35 177.6 98.15 180.05 102.15 183.2 107.2 184.85 110.5 185.1 111 185.3 111.45 185.55 111.95 185.8 112.4 188.2 117.9 188.2 122.6 188.6 123.85 188.95 125
L 189.4 125
Q 189.85 121.25 189.85 114.2 191.25 117.95 195.65 128.6 197.2 133.3 198 137.85 201.4 141.6 207.05 145.65 213 150 220.95 154.35 218.35 147.55 213.25 138.35 207.95 128.95 205.25 125.9
L 205.6 125.85
Q 208.8 129.05 211.75 133.15 215.1 137.8 215.95 140.8 216.05 141.15 219.35 148.05 221.9 153.5 222.35 155.15 222.85 155.4 223.45 155.7
L 223.4 155.6
Q 223.3 154.6 223.3 151.7 223.3 151.05 223.5 149.05 223.15 148.2 222.75 147.3 218.95 139.8 217.75 136.2
L 218.3 136.1
Q 221.95 143.2 222.8 144.95 223.3 146.05 223.7 147.05 223.7 146.85 223.75 146.65 223.6 145.55 223.55 144.3 223.4 136.3 223.4 136.2 223.1 134 223.1 128.6 223.1 123.55 222.65 121 221.55 115.15 216.75 105.9 213 99.1 210.65 94.6 209.95 94.2 209.05 93.65 208.9 93.55 208.8 93.45 204.55 91.95 197.2 87.2 195.75 86.75 195.3 86.5 194.05 85.2 193.65 84.9 193.5 84.8 193.4 84.7 192.9 84.6 191.65 84.4 189.85 84.15 189.5 84.05 189 83.9 187.05 82.65 184.9 81.3 184.35 81.05 184.15 80.95 179.8 78.4
M 181 93.1
Q 181.5 92.55 182.05 92 182.6 91.4 183.05 90.8 184.65 88.7 187 87.25 189.2 85.75 191.75 85.1
L 188.4 93.55
Q 189.75 93.4 191.1 93.2 192.45 93.15 193.65 93.6 198.95 95.3 204.45 95.9 202.4 96.75 200.3 97.2 191.95 98.8 187.45 105.95 186.15 108 185.05 110.2
L 181.15 102.15
Q 181.1 102.35 181.1 102.55
L 180.45 102.65
Q 180.15 101.85 180.1 101.7 180.05 101.25 180.05 100.5
L 175.45 93.95 180.05 84.2 181 93.1 Z"/>

<path fill="#FCD6CE" stroke="none" d="
M 169.2 132.55
L 168.35 132.4
Q 168.4 133.2 168.95 134.95 169.5 136.7 169.6 137.8
L 169.5 138.1
Q 169.4 138.45 168.65 138.45 167.5 138.45 166.15 137.4 165.7 137.1 164.95 136.35 164.7 136.1 164.45 135.85 164.7 136.8 164.9 137.6 165.75 140.95 165.75 141.8 165.75 142.85 165.7 143.05 165.6 143.35 165.35 143.55 164.65 143.7 159.7 144.85 155.45 145.9 154.8 145.9
L 148.9 145.75
Q 148.8 145.65 148.75 145.55 148.5 145.8 148.35 145.95
L 147.95 145.95
Q 146.55 149.05 143.55 152.55 139.2 157.6 135 159.7 135 160.15 134.5 160.15 135.75 160.8 138.3 161.7 139.95 162.25 140.5 162.45 141.35 161.45 142.85 160 146 157 146.75 155.6 147.55 154.15 149.75 152.05 151.85 150 153.25 149.6 153.45 149.4 153.55 149.25 154.05 148.75 154.8 148.4 157.65 148.25 159.4 151.1 160.65 153.2 160.65 154.85 160.65 156.95 158.7 160.1 159.9 162.7 161.25 163.45
L 162.3 163.45
Q 163.35 163.15 164.45 162.8 164.25 161.5 164.1 159.2 163.4 159 163.4 158.7 163.7 158.7 164.05 158.7 163.85 155.85 163.6 154.55 164.75 154.4 168.05 156.1 168.8 156.45 169.4 156.8 169.4 156.55 169.35 156.4 168.8 153.95 166.55 153.35 169.45 153.1 170.35 155.4 170.9 156.65 171.3 157.55 172.05 157.8 172.5 157.8 173.8 157.8 176.85 156.65 180.4 155.3 181.9 155 185.6 154.3 186.3 153.05 186.6 152.55 186.6 149.1 186.6 146.8 185.9 144.55 185.2 142.3 185.2 140.45 183.05 142.2 182.1 143 180.5 144.35 179.5 146.1 178.15 145.15 176.7 141.35 175.55 140.9 172.65 136.8 172.65 136.95 172.6 137.1
L 172.2 137.1
Q 172.3 136.75 172.35 136.4 171.55 135.3 170.75 134 169.85 133.2 169.2 132.55
M 200.2 154.25
Q 199.9 154.75 199.55 154.95
L 199.7 155.1
Q 190.9 162.2 186.45 167.45 185.35 168.65 183.5 169.85 183.65 170.1 183.75 170.25
L 183.6 170.65
Q 183.4 170.5 183.1 170.15 180.75 171.6 177.25 173.1 169.6 175.95 166.95 177 166.55 176.95 166.4 176.9 166.3 176.85 166.3 176.05 166.3 175.05 174.45 171.5 178.55 169.65 181.35 168.25 180.1 167.35 178.2 165.6
L 178.65 165.4
Q 179.4 166.05 180.65 167.1 181.25 167.65 181.75 168.05
L 181.8 168
Q 181.75 167.9 181.7 167.75 180.55 165.6 180.45 164.9
L 180.85 164.9
Q 181.7 166.55 182.35 167.75 185.1 166.3 186.25 165.3 188.15 163.7 192.9 159.35 196.95 155.75 199 154.8 198.4 154.45 197.75 153.85 197.05 153 196.95 153 196.15 153 186.9 157.05 177.2 161.3 176.3 161.55 165.05 164.3 161.9 165.25 154.7 167.45 149.65 170.4 149.4 170.85 149.4 169.5 149.4 168.1 156.55 165.45 155.65 164.75 155.4 164.15 155.15 163.7 155.15 162.8 155.15 161.3 155.25 160.9 155.5 159.85 156.6 159.9 156.9 159.2 157.4 158.45 157.55 158.15 157.75 157.9 158.95 155.8 158.95 154.65 158.95 153.6 157.15 151.35 156.5 150.45 155.9 150.45 154.6 150.6 153.2 150.65
L 153.1 150.65
Q 152.2 151.9 150.8 153.5 149.3 155.15 147.25 157.25 143.05 161.45 141.6 165.6 140.65 168.3 140.75 173.75 140.9 179.15 139.95 181.7 138.85 184.9 135.45 189.8 130 197.6 129.9 197.8 128.55 200 125.75 205.35 124.75 207.1 123.6 208.55 124.7 208.85 124.85 209.25
L 124.85 209.3
Q 126.45 209.3 128.85 210.7 130.9 211.9 133.95 214.05 136.65 215.7 138.65 218.15 138.75 218.3 138.95 218.55 139.05 216.15 139.25 213.25 140.15 197.1 140.2 195.45
L 140.2 195.85
Q 144 204.25 143.9 208.5
L 144.35 208.5
Q 147.1 204.6 149 201.7 152.6 196.1 153.75 192.55 153.25 192.55 152.1 192.35 150.9 192.1 150.4 192.1
L 150.4 191.15
Q 151.9 190.3 166.8 183.7 171.9091796875 181.295703125 175.85 179.1 175.9529296875 179.1216796875 176.05 179.1 178.16640625 178.8123046875 180.3 177.8 180.15078125 177.96171875 180 178.1 182.05 177.05 184.6 175.95 187.25 174.75 189.35 173.65
L 187 170.95
Q 187.5 171.2 188.9 172.6 189.35 173.1 189.7 173.45 190.45 173 191.1 172.65 190.5 171.15 190.35 170.55
L 190.8 170.4
Q 191.35 171.55 191.7 172.25
L 191.75 172.25
Q 194.45 169.85 196.8 167.5 199.1 164.65 201.85 160.85 201.95 160.85 208.1 152.05 207.1 151 206.9 150.55 206.6 150.65 203.85 152.25 201.45 153.65 200.2 154.25
M 187.05 171.55
Q 187.016796875 171.5439453125 186.95 171.5 187.0154296875 171.48515625 187.05 171.45
L 187.05 171.55
M 188.3 194.2
Q 187.5 192.35 187 191 186.8 191.45 186.5 192.1 185.7 198.8 184.25 210.85
L 184.25 213.25
Q 184.6 212.85 186.25 210.25 187.95 207.6 188.4 206.65
L 188.9 206.65
Q 188.9 208.35 189.6 220.35 189.7 221.85 189.8 223.25 189.85 223.1 189.85 223.05 192.2 208.45 192.05 200.6 190.8 200.05 188.3 194.2 Z"/>

<path fill="#7BA1B1" stroke="none" d="
M 117.2 166.15
Q 116.9173828125 165.563671875 116.5 164.9 117.6134765625 168.046875 119 171.55 125.35 187.85 130.65 192.2 136.4 182.75 137.75 180 137.75 177.7 137.8 175.8
L 137.75 175.8
Q 137.55 175.8 136.95 175.8 135.85 175.8 131.9 170.9 128 166.05 126.1 162.4 123.65 157.75 122.9 155.75 121.85 152.7 121.85 149.1 121.85 148.8986328125 121.85 148.7 120.903515625 152.921875 120 157.35 127.163671875 172.6080078125 131.65 181.25 132.75 182.55 134.05 184.15
L 133.95 184.4
Q 133.4 183.9 132.85 183.4 133.3 184.2 133.65 184.9 131 183.25 129.2 179.6 128.25 178.45 127.3 177.25 123.85 172.95 122.05 169.35
L 122.55 169.35
Q 124.7 172.45 128.05 176.65 126.65 172.95 125.7 171.3 121.0857421875 163.63125 119.45 160 118.8755859375 163.031640625 118.3 166.15
L 117.2 166.15
M 110.4 137.1
Q 109.6 138.1 109.35 138.45 106.5 142.3 104.45 146.5 104.6 150.65 106.05 155.15 107.1 158.5 109.6 164.9 110.25 166.8 111 170.8 111.7 174.85 112.45 177.05 113.1 178.9 116 184.6 117.95 188.45 118.1 190.7 115.85 189.55 108.65 183.05 105.9 180.55 103.45 178.2 104.4 179.5 105.95 181.45 108.7 185.15 109.45 187.2 109.8 188.3 112.4 192.3 114.7 196 114.95 197.5 111.7 194.05 107.8 187.3 103.75 180 101.95 176.75 100.1 175 98.4 173.3
L 98.4 173.8
Q 98.8 174.45 100.35 177.55 101.15 178.65 102 179.85 107.45 188.2 108.55 194.4 109.5 196.45 110.55 198.7
L 110.1 198.7
Q 107.5 196.1 94.6 184.6 93.1 183.25 91.3 181.25 91.7 181.95 92.1 182.8 95.6 189.8 96.75 193.75 97.9 197.8 97.9 203.6 97.9 204.15 97.55 212.95 97.45 212.95 97.3 213.1 97.75 213.55 98.35 214.25 100.3 216.55 100.35 217.45 100.7 217.85 100.95 218.3 101.05 218.1 101.2 218.05 101.35 218.55 101.5 219.2 101.65 219.55 101.65 219.75 101.65 219.8 101.6 219.95 101.75 220.9 101.75 221.95 101.75 222.8 101.05 225.75 100.85 226.75 100.65 227.55 100.7 229.9 100.7 232.85 101.3 232.3 102.5 231.25 101.65 231.8 101.2 231.95
L 100.9 231.1
Q 105.65 227.1 107.55 225.7 107.5 224.8 107.5 223.35 107.5 217.6 110.75 215.25 115.15 213.05 119.45 210.7 121.1 207.4 126.9 198.2 128.35 195.8 129.7 193.75 127.7 193.6 124.35 189 121.65 185.2 120.45 182.35 118.8 178.5 117.9 176.5 116.35 172.8 115.5 170.4 112.7837890625 162.9302734375 111.75 159.3 111.578515625 158.671484375 111.45 158.15 110.25 153.2 110.25 146.95 110.05 143.9 110.1 141.15 110.15 138.85 110.4 137.1
M 112.7 188.5
L 113.15 188.5
Q 114.15 190.2 116.4 193.5 118.15 196.35 118.25 198.45
L 117.95 198.7
Q 117.35 197 115.6 193.7 114.05 190.7 112.7 188.5
M 38.3 293.45
L 38.3 293.9
Q 41.7 292.6 46.6 290.4 50.1 288.8 52.15 288.1 50.35 290.05 47.6 293.45 47.5 293.55 47.4 293.75 48 293.2 48.65 292.65 55.05 287.3 55.9 286
L 56 286.65
Q 54.25 289.3 48.8 293.8 46.5 295.65 44.85 297 41.5 299.75 40.75 300.45 40.6 300.55 40.55 300.6 40.6 300.5 40.7 300.45 36.55 300.95 36.4 300.95 34.15 300.95 25.5 295.45 20.9 292.55 17.3 290.75 24.55 298 30.75 306.35
L 31.7 306.2
Q 33.85 305.9 36.9 305.6
L 36.9 305.3
Q 37.95 305.1 40.05 305.35 40.1 305.3 40.15 305.35 40.25 305.3 40.4 305.3 40.45 305.35 40.5 305.4 44.05 305.75 50.35 307.25 51 306.65 52.6 306.15 65.75 297.5 67.8 296.1 62.85 287.8 58.1 282.05 55.2 278.45 51.95 275.35 50.35 277.4 48.1 280.2 42.4 287.35 39.55 291.05 38.9 292.2 38.3 293.45
M 49.5 296.75
Q 49.5 296.7 49.55 296.7 50.25 295.8 51.4 294.6 53.05 292.85 53.65 292.6 52.45 293.95 49.9 297.55 49.75 297.8 49.55 298
L 49.55 299.55
Q 49.1 299.55 48.35 299.6 46.8 301.7 45.8 302.85 45.55 303.7 45.55 302.35 45.55 301.8 47.2 299.75 47.25 299.7 47.25 299.65 49.1 297.35 49.5 296.75
M 35.95 193.4
Q 35.95 193.15 35.95 192.85 35 195.95 35 198.85 35 200.6 35.95 209.7 36.15 211.6 36.25 213.2 36.7 211.1 36.75 210.05
L 37.15 210.05
Q 37.2 210.35 37.35 211.55 38.05 210.15 38.75 208.95
L 38.75 213.7
Q 37.05 218.35 36.9 232.8 38.7 238.7 44.1 247.85 45.45 250.05 54.5 263.75 55.3 264.9 58.9 268.35 62.3 271.6 62.95 272.8 63.7 274.2 65.65 277.1 67.65 279.95 68.45 281.45 69.8 283.95 73.15 290.35 76.6 295.95 81.05 298.35
L 81.05 298.8
Q 80.95 299 80.85 299.1 81.55 299.4 82.15 299.6 83 299.4 83.9 299.2
L 92.7 297 88.2 293.35 88.05 292.25 102 292.2 107.3 290.5
Q 108.05 289.25 110.55 285.95 114.35 281.2 116.15 279.55 117.15 278.65 122.15 273.4 125.45 270 126.9 268.9 128.3 267.3 130.4 265 135.65 259.3 138.5 256.55 141.4 253.8 144.75 248.9 148.3 243.5 149.65 241.55 149.35 241.2 149.05 240.8 148.15 240.6 147.15 240.45 146.7 240.4 146.3 240.3
L 146.35 240.6
Q 146.4 240.75 145.1 240.75 144.25 240.75 131.9 237.2 130.45 236.8 129.3 236.45 137.35 241.05 140.2 245.15 138.6 246.55 136.85 248.7 136 250.6 133.3 255.75 130 262.05 128.05 265.45
L 127.6 265.45
Q 130.45 258.5 132.4 254.6 133.2 252.95 134 251.55 133.85 250.65 133.3 249.85 132.5 248.65 132.15 247.95 129.35 250.6 122.25 258.95 111.45 271.65 109.15 274.2 108.9 272.75 108.4 271.15
L 108.4 273.65
Q 108.4 276.15 108 278.15 107.7 279.55 106.7 283.95
L 106.15 284.05
Q 106.9 280.35 107.15 274.45 107.3 271 107.45 268.7 107 267.7 106.5 266.6 105.85 265.25 105.3 264.05 105.35 265.65 105.35 267.4 105.35 271.95 104.45 277.5 103.25 284.8 102.95 288.55
L 102.9 288.75
Q 102.75 289.05 102.5 289.2 102.2 288.6 102.1 288.35 102 287.95 102 287.05 102 284.6 103.1 278.35 104.2 272.2 104.2 269.9 104.25 266.8 103.8 260.8 102.7 258.4 102.1 256.85
L 102.1 257.3
Q 102.1 259.25 100.3 267.05 98.6 274.1 97.95 276 97.25 277.9 93.3 280.25 88.55 283.1 87.55 284.1 87.15 281.95 84.9 278.6 82.25 274.7 81 270.95 79.75 267.05 78 260.6 76.35 254.55 75.4 250.3
L 75.4 250.75
Q 74.9 251.9 74.15 256.05 73.5 259.8 73.5 260.55
L 73 260.55
Q 70.9 256.55 63.3 248.7 56.15 241.65 56.15 241.55 56.95 239.2 57.8 236.6 59.4 231.35 59.4 228.7 59.4 225.85 55.65 224.65 51.05 223.15 50 221.65 48.95 220.05 48.3 212.45 47.65 205.75 47.65 198.4 47.65 193.95 50 180.9 51.75 170.7 52.6 168 45.5 176.25 41.65 181.75 40.7 184.1 40.05 186.7 38.95 191.1 38.5 199.65
L 38.4 199.9
Q 38.3 200.25 38.1 200.4 37.55 198.2 37.55 194.95 37.55 190.75 39.15 185.7 38.2 187.25 37.5 188.85 36.25 193.55 36.75 198.05
L 36.2 198.15
Q 36.2 197.3 36.1 195.7 35.95 194.05 35.95 193.4
M 35.05 218.95
Q 35.65 216.25 36.05 214.3 33.45 220.35 31.05 229.7 27.95 241.55 27.95 245.55 27.95 247.85 31.95 255.55 35.95 263.2 35.95 263.6 35.95 265.8 27.2 271.05 22.7 273.75 16.7 277
L 16.7 277.95 20.45 277.95
Q 30.25 276.9 37.35 273.2 38.55 272.6 41.05 271.1 42 270.4 42.8 269.8 43.35 269.35 44.05 268.8 43.75 268.6 43.45 268.4 39.4 265.55 38.5 261.3 38.15 256.45 37.95 254.35 37.7 251.6 36.95 247.1 36.45 244.05 36.45 240.75
L 36.6 239.25
Q 33.75 232.75 33.75 227.8 33.75 224.85 35.05 218.95
M 208.15 234.65
Q 207.9 234.6 207.7 234.55 201 233.4 200.2 233.4 199.8 230.05 199.55 225.1 199.25 219.85 199.25 216.5 199.2 216.7 199.15 216.9 199.4 225.75 199.15 236.1
L 198.6 236.15
Q 198.5 233.25 198.5 227.1
L 198.6 219
Q 198.4 219.65 198.15 220.3 197.8 223.3 196.95 228.3 195.65 236.05 195.3 237.15
L 194.75 237.3
Q 194.65 237.85 194.65 236.5 194.65 234.65 195.9 224.95 194.85 226.7 193.55 228.5 192.45 230 190.65 232.25 190.45 233 190.3 233.7 189.05 238.35 187.65 240.05 187.35 239.9 187.2 239.8 187 239.6 187 238.75 187.05 238.5 187.15 238.25 186.8 238.35 186.45 238.4 186.35 238.15 186.2 237.75 185.55 236.35 183.8 233.2 183.2 232.15 182.55 230.95 181.8 231.3 180.5 231.85 178.7 232.65 177.7 234.8 176.85 223.8 176.3 219.2 175.6 217.4 175.3 216.1 175.15 215.9 175.05 215.7 174.75 216.5 174.35 217.6 173.4 220.05 173.4 220.5 173.45 222.4 173 226.3 172 233.7 170.35 237.7 171.4 238.4 175.1 239.7 178.35 241.15 178.55 242.8 178.65 243.45 178.65 246.15 179 248.55 180.7 248.7 181.9 248.45 183.65 248.05 184.95 247.75 185.3 247.45
L 185.3 247.55
Q 186.05 247.25 186.8 247.05 187.25 247.05 190.3 249.65 193.5 252.45 194.5 252.75 194.5 247.9 194.6 244.65 194.45 244.7 194.3 244.8 192.7 245.6 190.9 245.6 190.05 245.6 189.6 245.45 188.95 245.3 188.4 245.15 188.4 244.85 188.25 244.15 188.05 243.45 188.05 242.7 188.05 241.9 188.1 241.85 188.2 241.7 188.3 241.45 188.25 241.35 188.3 241.2 188.35 240.95 188.6 240.85 188.65 240.95 189.7 242.2 190.3 242.95 190.65 242.95 195.95 240.85 196.15 240.85 196.8 240.85 198.5 241.85 200.25 242.8 204.1 242.8 205 242.8 206.8 242.35 208.35 242 209.1 241.65 208.55 238.7 208.15 234.65
M 213 228.5
Q 214.75 232.8 215.25 233.85
L 215.25 235.7
Q 214.7 235.7 211.2 235.15 211.7 240.6 211.7 241.95 211.7 244.95 206.7 245.5 216.45 248.95 225.35 251.3
L 225.65 251.55
Q 225.7 251.65 225.75 251.75
L 233.85 249.1
Q 233.9 248.95 233.95 248.85 233.95 248.45 233.95 248
L 233.7 248
Q 233.65 247.75 233.75 247.15 233.95 246.45 233.95 246.05 233.95 245.8 233.7 244.2 233.45 242.75 233.5 242.05 233.55 241.6 233.6 241.15 233.5 240.15 233.45 239.05 233.3 237.2 233.25 235.65 232.9 235.45 232.55 235.25 232.3 235.1 220.65 228.1 212.45 223.2 210.5 222.6 211.3 224.15 213 228.5
M 136.2 271
Q 136.65 264.45 136.85 261.95 130.2 269.35 126.45 272 126.2 272.3 125.95 272.7 125.4 273.8 124.75 275.45 123.8 278.15 123.35 279.1 125.65 280.2 128 280.6 129.4 280.85 132.55 281.35
L 132.75 281.75
Q 133.9 281.35 135.15 280.95 135.25 280.25 135.6 279.15 136.15 277.25 136.15 276.35 136.15 272.7 136.2 271 Z"/>

<path fill="#E5E5E5" stroke="none" d="
M 122.85 127.85
Q 122.75 127.8 122.65 127.75 121.1 128.55 119.15 129.5 113.8 132.1 113.15 134.8 112.55 137.35 112.45 141.95 112.4 144.35 112.45 147.05 112.45 153.3171875 116.5 164.9 116.9173828125 165.563671875 117.2 166.15
L 118.3 166.15
Q 118.8755859375 163.031640625 119.45 160 118.6 158.0703125 118.6 157.3 118.6 156.45 118.7 155.9
L 118.8 155.55 119.15 155.55
Q 119.5802734375 156.46875 120 157.35 120.903515625 152.921875 121.85 148.7 121.9013671875 143.9759765625 123.1 138.75 123.7 136.25 124.5 134.35 123.85 133.7 123.6 133.1 123.2 132.35 123.2 131.4 123.2 130.2 124.25 126.9 123.9 127.05 123.6 127.25 123.25 127.55 122.85 127.85
M 75.1 139.85
Q 70.45 142.55 65.65 144.1 62.7 145.05 56.5 148.15 55.2 148.75 54.15 149.35 32.25 161.1 30.75 188.25 30.4 194.95 28.95 201.65 24.25 223.2 22.05 244.9 21.75 248.05 20.25 251.05 12.65 266.3 17.25 281.45
L 18.4 281.1 15.6 289.05
Q 16.5 289.9 17.3 290.75 20.9 292.55 25.5 295.45 34.15 300.95 36.4 300.95 36.55 300.95 40.7 300.45 42.2 298.15 47.4 293.75 47.5 293.55 47.6 293.45 50.35 290.05 52.15 288.1 50.1 288.8 46.6 290.4 41.7 292.6 38.3 293.9
L 38.3 293.45
Q 38.9 292.2 39.55 291.05 37.85 293.2 37.15 294.15 36.7 294.15 36.65 293.75 39.05 289.4 43.15 283.85 44.15 282.45 45.25 281.05 48.1 277.35 50.75 274.3 49.25 272.9 47.65 271.55 46.4 270.55 45.15 269.6 44.15 270.45 43.1 271.35 40 273.8 35.45 276.5 29.55 279.95 26.25 280.5 29.35 278.85 34.55 275.5 38.4 273 41.05 271.1 38.55 272.6 37.35 273.2 30.25 276.9 20.45 277.95
L 16.7 277.95 16.7 277
Q 22.7 273.75 27.2 271.05 35.95 265.8 35.95 263.6 35.95 263.2 31.95 255.55 27.95 247.85 27.95 245.55 27.95 241.55 31.05 229.7 33.45 220.35 36.05 214.3 36.2 213.7 36.25 213.2 36.15 211.6 35.95 209.7 35 200.6 35 198.85 35 195.95 35.95 192.85 36.15 183.55 42.8 174.85 51.25 163.85 66.35 161 64.9 162.25 58.8 164.65 55.1 166.2 52.85 167.3
L 52.85 167.7
Q 52.7 167.85 52.6 168 51.75 170.7 50 180.9 47.65 193.95 47.65 198.4 47.65 205.75 48.3 212.45 48.95 220.05 50 221.65 51.05 223.15 55.65 224.65 59.4 225.85 59.4 228.7 59.4 231.35 57.8 236.6 56.95 239.2 56.15 241.55 56.15 241.65 63.3 248.7 70.9 256.55 73 260.55
L 73.5 260.55
Q 73.5 259.8 74.15 256.05 74.9 251.9 75.4 250.75
L 75.4 250.3
Q 76.35 254.55 78 260.6 79.75 267.05 81 270.95 82.25 274.7 84.9 278.6 87.15 281.95 87.55 284.1 88.55 283.1 93.3 280.25 97.25 277.9 97.95 276 98.6 274.1 100.3 267.05 102.1 259.25 102.1 257.3
L 102.1 256.85
Q 102.7 258.4 103.8 260.8 103.8 260.55 103.75 260.25 103.25 253.7 103.25 253.65 103.25 252.75 103.35 252.8 103.35 252.85 103.4 253
L 103.8 253
Q 105.05 258 105.3 264.05 105.85 265.25 106.5 266.6 107 267.7 107.45 268.7 107.65 265.8 107.75 264.55
L 108.2 264.55 108.4 271.15
Q 108.9 272.75 109.15 274.2 111.45 271.65 122.25 258.95 129.35 250.6 132.15 247.95 132.5 248.65 133.3 249.85 133.85 250.65 134 251.55 136.35 247.2 138.5 244.75 138.3 245.15 137.7 246 137.2 246.8 137.2 247.65 137.2 247.85 136.85 248.7 138.6 246.55 140.2 245.15 137.35 241.05 129.3 236.45 119.3 233.5 118.35 233 115.15 231.25 112 229.95 109.1 228.7 108.8 228.5 108.1 228.1 107.8 227.4 106.95 228.05 105.75 229 103.75 230.45 102.5 231.25 101.3 232.3 100.7 232.85 100.7 229.9 100.65 227.55 100.1 229.6 99.5 230.15 99.5 230.05 99.3 229.55 99.25 229.45 99.2 229.25 99.1 228.8 99.1 228.25 99.1 225.9 99.35 223.5 99.85 219.45 100.95 218.3 100.7 217.85 100.35 217.45
L 100.35 217.5
Q 100.35 218.3 99.9 218.7
L 99.35 219.1
Q 98.9 218.75 97.4 216.85 95.7 214.7 95.15 214.15 95 214.15 94.85 214.1 87.85 213.25 83.6 211.2 78.65 208.9 76.8 208.55 76.1 207.45 76.1 206.9
L 76.3 206.45
Q 77.25 206.7 79.6 207.6 81.25 208.25 83.6 209.2 89.65 211.25 95.55 211.8 95.05 210 95.05 207.4 95 201.9 94.8 201 94 196.9 93.5 194.55 92.6 190.4 91.55 188.15 89.85 184.8 88.55 182.25 88.05 181.25 87.6 180.4 85.6 176.55 84.95 175.35 83.35 172.4 78.7 167.9 74.6 163.95 74.6 163.45 74.6 162.75 74.65 162.3 74.75 161.85 74.75 161.6
L 75.15 161.6
Q 75.9 163.9 77.55 164.95 79.05 165.9 79.7 166.35
L 80.25 166.7
Q 80.35 166.8 80.85 167.35 81.45 168 82.55 169.25 84.5 171.45 85.2 172.05 87.45 174 89.15 177 89.3 177.3 91.3 181.25 93.1 183.25 94.6 184.6 107.5 196.1 110.1 198.7
L 110.55 198.7
Q 109.5 196.45 108.55 194.4 108.7 195.5 108.75 196.5 107.35 194.3 105.2 188.3 103.15 182.7 100.9 179.6 96.45 173.9 94.3 170.9 90.5 165.7 89.65 162.6
L 90.05 162.6
Q 93.4 167.85 100.35 177.55 98.8 174.45 98.4 173.8
L 98.4 173.3
Q 100.1 175 101.95 176.75 101.8 176.6 101.75 176.45
L 102.15 176.45
Q 102.55 177 103.45 178.2 105.9 180.55 108.65 183.05 115.85 189.55 118.1 190.7 117.95 188.45 116 184.6 113.1 178.9 112.45 177.05 111.7 174.85 111 170.8 110.25 166.8 109.6 164.9 107.1 158.5 106.05 155.15 104.6 150.65 104.45 146.5 106.5 142.3 109.35 138.45 109.6 138.1 110.4 137.1 110.7 134.7 111.3 133.2 112.65 130.2 118.5 127.45 119.3 127.1 120.15 126.7 120.1865234375 126.6634765625 120.2 126.65 94.3443359375 130.2525390625 83.3 135.3 81.15 136.25 75.1 139.85
M 79.8 151.55
Q 73.05 150.4 70.3 149.85 80.6 150.4 86.55 152.2 91.7 153.75 95.2 156.9 95.2 157.3 94.8 157.55 94.4 157.4 91.5 155.55 88.8 153.75 86.95 153.25 83.15 152.05 79.8 151.55
M 74.35 183.55
Q 75.45 184.35 79.8 187.85 82.25 189.8 84.1 191.25 83.95 190.35 83.95 189.65 84.05 187.85 84.05 186.9
L 84.45 186.9
Q 84.7 188.7 85.9 192.25 86 192.5 86.05 192.7 86.3 192.9 86.55 193.1
L 86.3 193.5
Q 86.95 195.65 86.95 196.95 86.95 198.35 86.8 197.65
L 86.3 197.8
Q 85.25 195.45 84.65 193.6 79.15 190.1 74.45 185.35 71.6 182.5 66.85 176.7 66.5 176.65 66.1 176.6 65.25 176.5 65.1 176.7 64.8 176.45 64.8 175.8 67.35 175.45 70.1 178.5 71.6 180.15 74.35 183.55
M 82.45 146.8
L 82.85 146.8
Q 90 149.3 94.1 153.25 95.1 154.2 99.5 160.05
L 99.25 160.35
Q 97.2 159.4 95.5 157.1 93.45 154.35 92.1 153.35 91.75 153.05 86.85 150 83.05 147.65 82.45 146.8
M 91.75 141.95
L 92.2 141.8
Q 94.15 144.15 100.3 150.4 105.35 156.25 104.45 159.5
L 103.9 159.65
Q 103.7 156.45 99.05 150.7 93.55 144.45 91.75 141.95
M 86.8 190.2
L 87.25 190.2
Q 87.65 191.25 88.5 194.1 89.4 196.8 90.15 198.05 88.45 198.5 88.15 197.5 88 196.1 87.8 195.45 87.75 195.35 87.15 193.75 86.75 192.75 86.75 191.95
L 86.8 190.2
M 89.3 222.5
L 90.2 222.6
Q 91.15 222.8 91.25 223.05 85.35 226.35 80.25 233.55 80 233.95 76.55 239.1 74.5 242.15 73.15 243.6 75.7 238.25 80.15 232.4 84.65 226.55 89.3 222.5
M 100.05 230.55
Q 100.4 231.1 100.5 231.6 100.55 231.95 100.55 233 100.55 233.95 100.2 235.35 100.55 237.8 100.55 240.75 100.55 244.05 98.85 248.85 97.05 253.9 95.15 255.25 97.35 248.2 98.3 244.65 99.35 240.6 99.5 237.35 98.1 240.95 94.85 246.55 91.2 252.75 87.7 257.65 87.45 257.55 87.3 257.45 87.15 257.25 87.15 256.35 87.15 255.7 90.55 250 94.4 243.55 94.65 242.95 95.05 242.15 95.95 239.9 96.3 239 96.75 237.85 97.15 236.9 97.55 235.85 99.25 231.4 100.05 230.55
M 88.9 228.25
Q 86.9 231.1 82.15 238.4 77.75 245.2 75.55 248.3
L 75.3 248.05
Q 79.65 241.2 82 237.6 86.15 231.15 88.9 228.25
M 139.65 225.2
Q 139.15 224.4 138.65 223.65 132.35 214.3 123.85 210 119.1 213.5 113.4 216.4 109.7 218.75 109.7 223.35 109.7 224.15 110 224.9 110.75 226.65 113.4 228.05 113.95 228.35 123.45 232.2 126.7 233.55 131.1 234.55 133.6 235.15 138.35 236.1 139.65 236.4 141.6 237.55 144 238.95 146.2 239.8
L 146.3 240.3
Q 146.7 240.4 147.15 240.45 148.15 240.6 149.05 240.8 147.2 238.3 144.7 233.95 140.7 226.75 139.65 225.2
M 123.2 218.55
L 123.2 217.7
Q 127.5 220.4 131.5 223.4 133.8 225.15 138.35 228.7 138.5 228.8 138.65 228.95 138.5 228.9 138.35 228.8 135.5 227.65 131.9 224.15 127.95 220.4 123.2 218.55
M 118.1 219.95
Q 118.5 219.8 118.5 219.65 132.6 224.1 135.8 227.85 124.75 222 118.1 219.95
M 177.7 234.8
Q 178.7 232.65 180.5 231.85 181.8 231.3 182.55 230.95 181.5 229.15 180.2 226.85 177.55 222.35 176.3 219.2 176.85 223.8 177.7 234.8
M 204.8 208.25
Q 204.75 206.5 204.5 205.4 204 203.3 202.05 202.75 197.7 201.7 195.75 201.1 194.15 200.6 193.15 200 193.1 200.1 193.15 200.25 193.25 200.35 193.2 200.5 193.15 200.55 192.85 200.65 193.8 204.5 193.8 206.95 193.8 214.25 192.05 224.95 191.35 229.15 190.65 232.25 192.45 230 193.55 228.5 194.85 226.7 195.9 224.95 195.95 224.6 196 224.25 197.35 213.8 197.35 213.2
L 197.95 213.2
Q 198.4 215 198.4 217.1 198.4 218.2 198.15 220.3 198.4 219.65 198.6 219
L 198.6 213.35 199.05 213.35
Q 199.1 215.1 199.15 216.9 199.2 216.7 199.25 216.5 199.25 219.85 199.55 225.1 199.8 230.05 200.2 233.4 201 233.4 207.7 234.55 207.9 234.6 208.15 234.65 207.95 232.7 207.8 230.55 207 219.45 207 219.4 206.7 215.35 204.8 208.25
M 224 218.3
Q 223.85 217.9 223.7 217.6 222.35 218 222.1 218.3 224 219.55 225.7 221.45 228.2 224.25 229.7 227.9 229.45 228.75 229.2 229.05 225.45 224.75 223.7 222.8 220.6 219.5 217.2 218.05 213.75 216.6 210.25 212.95 209.15 211.7 208.25 210.7 208.35 211 208.4 211.35 209.55 215.55 209.55 217.65 209.55 218.8 210.65 229.4 210.95 232.7 211.2 235.15 214.7 235.7 215.25 235.7
L 215.25 233.85
Q 214.75 232.8 213 228.5 211.3 224.15 210.5 222.6 212.45 223.2 220.65 228.1 232.3 235.1 232.55 235.25 232.9 235.45 233.25 235.65 232.95 231.45 232.8 229.05
L 232.8 229
Q 232.45 228.1 231.9 227.05 230.8 224.8 229.65 223.4 229 222.65 227.65 221.75 225.9 220.6 225.45 220.2 224.5 219.45 224 218.3
M 155.3 217.15
Q 155.3 217.3 155.4 217.65 155.7 216.9 156.2 216.65 156.85 218.9 157 223.7 157.2 229 157.6 231.1 158.55 236.15 158.9 238.5 159.4 241.95 159.4 245.15 159.4 252.85 159.2 254.65 159.1 256.15 158.85 257.55 160.55 255.35 163.25 253.25 163.45 253.15 163.65 252.95 164.4 251.9 165.6 249.8
L 165.55 249.7
Q 165.8 249.4 166.1 249 167.1 247.2 168.45 244.8 169.2 243.45 169.85 242.45 170.1 242 170.35 241.65 170.15 241.55 170 241.5 170.05 241.5 170.05 241.45 169.7 241.2 169.4 240.9 169.7 240.6 170.05 240.45 168.7 240 168.25 239.2 168 238.85 168 237.55 168 235.85 169.45 230.95 170.85 226.15 170.85 224.9 171.4 220.7 171.95 218.65 172.65 215.8 174.05 214.3 173.25 213.15 172.55 211.9 172.35 211.55 171 208.7 170.9 208.6 170.85 208.55
L 170.9 208.55
Q 169.75 206.1 167.8 201.9 166.15 201.55 165 200.85 163.5 200.75 162.9 200.65 162.7 200.7 162.55 200.75 161.75 202.45 159.45 207.1 155.7 214.45 155.3 215.5 155.25 215.65 155.2 215.8 155.35 215.65 155.55 215.55 155.6 215.7 155.45 216 155.3 216.4 155.3 217.15
M 196.75 179.2
Q 195.5 181 193.25 182.95 190.05 185.5 188 187.35 189.2 188.85 190.7 191.85 193 196.6 193.25 198.6 195.55 198.7 199.55 199.8 206.75 201.7 207.3 205.65 207.3 206.45 207.65 208.1 209.65 209.6 212.75 211.95 217.6 215.7 219 216.65 219.9 217 220.75 217.45 221.6 217.15 221.85 217.1 222.5 217 223.5 217.1 223.2 216.65 223.05 216.45 220.1 212.85 218 208.95 217.8 208.55 217.6 208.2 210.75 200.7 210.85 189.25 210.95 182.7 209.55 177.85 208.2 172.95 205.3 169.45 203.5 172.55 202.6 173.65 199.9 177.1 196.75 179.2 Z"/>

<path fill="#5B6E9C" stroke="none" d="
M 154.95 234.7
Q 153.4 232.1 152.55 231.25 151.35 231.35 150.05 233.65 149.45 234.65 148.75 235.15 150.45 238.6 150.45 239.7 150.45 240.6 150.2 241
L 150.2 241.05
Q 150 241.2 149.65 241.55
L 149.85 241.5
Q 150.05 241.55 150.05 242.4 150.05 246.9 139.2 259.3 138.3 260.3 137.45 261.3 137.9 264.35 138.1 269.8 138.3 273.85 138.3 276.2 138.3 279.1 138.15 279.75 138.15 279.8 138.15 279.9 148.55 276.25 156.45 273.3 156.6 273.25 156.75 273.2 156.75 272.95 156.75 272.75 156.15 271.7 155.95 270.1 155.85 269.25 155.85 265.8 155.85 264.15 156.3 262.55 156.25 262.45 156.25 262.35 156.1 261.05 156.1 260.25 157.05 238.7 157.05 237.35 157 237 156.9 236.65 155.85 236.05 154.95 234.7 Z"/>

<path fill="#EFEED8" stroke="none" d="
M 200.65 270.05
Q 200.75 270.85 200.75 271.75 200.85 273.15 200.85 276.35 200.85 277.25 200.5 279.35 207.95 279.3 215.5 278.35 222.05 277.45 228.65 275.95 228.8 275.9 229 275.85
L 237.75 273.4
Q 236.15 273.2 234.35 273 228.4 272.6 222.5 271.85 216.5 271.1 210.65 270.05 205.45 269.15 200.3 268
L 200.55 269.65 200.65 270.05
M 247.5 290.5
Q 247.55 290.5 247.75 290.55 251.4 288.1 255.1 285.75 253.9 285.95 252.75 286.2 246.8 287.5 240.8 286.7 240.7 287.15 240.55 287.6 240.15 288.8 239.65 290 238.85 291.9 237.35 293.35 236.85 293.8 236.35 294.3
L 235.9 293.9 238.75 285.85
Q 237.05 288.95 234.95 293.05 232.25 298.3 230.65 300.7 229.85 301.85 228.85 303 231.35 301.6 233.75 299.95 240.65 295.25 247.6 290.65 247.55 290.6 247.5 290.5
M 99.4 295
Q 95.1 295.4 91.25 293.7 93.45 295.5 95.9 297.1 101 299.05 110.35 301.4 119.35 303.6 129.8 305.7
L 143.9 305.7
Q 143.05 304.5 136.5 301.6 130.7 299 129.35 298.65 130.6 298.65 132.7 299.6 134.8 300.5 137.05 300.5 137.65 300.5 138.4 300.45 137.75 300.4 137.2 300.35 135.9 300.05 135.9 299.65 139.15 299.95 142.2 300.1 154.95 300.6 163.95 298.05 167.65 297 171.2 295.25 173.1 294.35 175.75 293 176 293.05 176.35 293.1 178.25 293.4 183.9 294.7 184.85 294.9 185.8 295.1
L 200.05 295
Q 202.85 294.7 205.1 294.35 207.9 293.9 209.9 293.35 214.45 292 214.9 291.9 215.7 292 216.2 292.25 217.05 291.9 218.05 291.6
L 218.5 291.6
Q 209.7 300.65 208.15 300.95 218.1 299.45 228.3 291.7 229.6 290.7 230.85 289.75 230.55 289.75 230.3 289.75 229.7 289.55 229.2 289.45
L 230.25 287.75 227.5 289.85 226.95 289.6 239 276.15 236.35 277.1
Q 227 280.25 217.5 281.7 193.3 285.5 168 278.25 166.1 277.75 164.3 277.05 134.5 293.8 99.4 295
M 258.45 281.75
L 259.45 281.2 260.35 282.1
Q 256.35 286.45 251.9 290.35 252.6 290.35 254.15 290.55 257.9 291.15 262.3 291.4 269.15 292.3 270.9 292.6 273.05 292.95 273.4 293.2 273.4 293.25 273.4 293.35 273.65 293.3 273.85 293.25 273.75 293.1 273.7 293.1 274.4 292.45 275.7 291.8 275.95 290.85 276.1 289.85
L 275.8 289.85
Q 275.55 288.65 275.55 285.95 275.55 283.7 275.75 281.1 275.35 280.05 274.85 279.25 274.45 278.6 274 278.15 273 277.05 271.4 276.35
L 254.4 274.85
Q 249.9 274.75 246.95 274.35 244.75 274.1 241.05 273.7 241.6 275.75 241.8 277.4
L 242 276.7 241.85 278.75
Q 241.85 278.85 241.85 279.05 241.85 280.5 241.7 281.45
L 241.45 285.15
Q 242.3 285.25 243.2 285.25 247.05 285.3 250.8 284.45 254.8 283.65 258.45 281.75 Z"/>

<path fill="#E69C43" stroke="none" d="
M 162.55 275.05
L 162.55 275 114.35 290.9
Q 139.95 287.9 162.55 275.05 Z"/>

<path fill="#F5E88D" stroke="none" d="
M 240.8 277.65
Q 240.7 276.85 240.65 276.2
L 240.4 277.7
Q 239.25 280.65 237.55 283.25 239.2 281.3 240.6 279.35
L 240.6 280.75 240.95 279.65 240.95 279.6
Q 240.95 279.25 240.8 277.65 Z"/>

<path fill="#D7F0F7" stroke="none" d="
M 209.55 162.65
Q 209.75 161.9 209.9 161.3 209.9 161.2 209.9 161.1 209.15 162.5 208.1 164.4 207.4 165.85 206.7 167 207.4 167.6 208.05 168.6 208.15 168.75 208.25 168.9 208.35 169.05 208.5 169.15 208.6 166.45 209.55 162.65 Z"/>

<path fill="#748F80" stroke="none" d="
M 46.25 320.3
Q 44 320.15 41.75 312.6 40.95 310 40.5 307.8 36.2 308.5 31.95 309.2
L 11.75 312.4
Q 7.65 313.05 3.7 313.65 3 314.5 2.3 314.9 1.8 314.85 1.7 314.8 1.55 314.7 1.55 314 0.75 314.1 0 314.25
L 0 321.65 63.85 321.75
Q 46.8 320.3 46.25 320.3 Z"/>

<path fill="#95A693" stroke="none" d="
M 80.2 313.5
Q 76.7 312.75 75.3 312.4 74.95 312.35 65.05 311.6 55.15 310.8 53 310.4 46.15 309.2 45.85 309.1 42.85 308.45 40.7 307.75 40.6 307.75 40.5 307.8 40.95 310 41.75 312.6 44 320.15 46.25 320.3 46.8 320.3 63.85 321.75
L 139.45 321.85
Q 136.95 321.1 132.9 321.15 125.55 321.2 124.55 321 122.65 320.4 121.9 320.15 120.75 319.8 113 318.95 106.95 318.25 103.85 317.5 99.8 316.5 88.2 314.9 83.8 314.3 80.2 313.5 Z"/>

<path fill="#49555F" stroke="none" d="
M 3.7 166.3
Q 5.25 168.55 5.45 171.45 5.75 175.1 5.8 175.55 6.05 177.7 6.85 181.3 7.45 183.75 8.15 190.05 8.7 195.15 9.2 195.85 3.7 192.15 0 189.45
L 0 312.7
Q 1.05 312.25 2.25 311.9 2.75 310.5 3.3 309 3.65 308.05 3.9 307.2 8.2 281.05 6.75 254.4 6.15 242.7 7.7 231.25
L 8.35 230.8
Q 11.65 234.5 13.65 239.05 14.1 239.9 14.45 240.85 14.65 220 13.35 198.95 13 193.5 14 188.4 14.75 184.4 17.9 181.85 21.15 179.15 24.1 176.15
L 5.5 162.9 39.75 155.95 42.15 153.25
Q 31.2 156.1 20.1 158.05 16.75 158.75 13.5 158.3 2.15 161.1 2.15 163.45 2.15 164.15 3.7 166.3 Z"/>
</g>
</defs>

<g transform="matrix( -0.9195556640625, 0.11627197265625, 0.11627197265625, 0.9195556640625, 251.1,34.8) ">
<g transform="matrix( 1, 0, 0, 1, -0.05,0) ">
<g transform="matrix( 1, 0, 0, 1, 0,0) ">
<use xlink:href="#flash0_ai_04_Fonte__Clip_Group__0_Layer3_0_FILL"/>
</g>

<mask id="Mask_Mask_1">
<g transform="matrix( 1, 0, 0, 1, 0,0) ">
<use xlink:href="#Mask_flash0_ai_04_Fonte__Clip_Group__0_2_MASK_0_FILL"/>
</g>
</mask>

<g mask="url(#Mask_Mask_1)"/>
</g>
</g>

<g transform="matrix( 0.9512176513671875, 0, 0, 0.9512176513671875, 10.6,30.2) ">
<use xlink:href="#Layer0_0_FILL"/>
</g>
</svg>
