<?xml version="1.0" encoding="UTF-8"?>
<svg id="Camada_1" data-name="Camada 1" xmlns="http://www.w3.org/2000/svg" viewBox="0 0 60 60">
  <defs>
    <style>
      .cls-1 {
        fill: #d7b980;
      }

      .cls-2 {
        fill: #9b8b5d;
      }

      .cls-3 {
        fill: #fff;
      }
    </style>
  </defs>
  <path class="cls-1" d="M38.37,54.38c-.75-.4.17-.49.46-.63.1-.05.61-.27.55-.44-.09-.25-.69.1-.83-.13.23-.09.45-.17.67-.26.34-.14.31.04.62.14.47.16.52-.53.99-.18.16.12.59.38.52-.04-.07-.48-.45-.66.06-.91.07.43.37.82.47,1.24.38-.24.72-.49,1.07-.76.12-.09-.3-.42,0-.53.32-.11.74-.15,1.08-.18.32-.02.65-.06.94-.2.36-.19.11-.44.36-.59.19-.11.75-.46.44-.72-.25-.21-.57.26-.78.35-.04-.18.13-.43.03-.6.15-.09.3-.19.45-.28.14.17.28.32.5.37.47.11.68.23,1.06-.1.27-.24-.2-.75-.37-1.06.32-.02.63-.12.96-.1.42.02.12.15.27.42.12-.12.22-.21.07-.35.31.12.35-.06.59-.3.35-.35.26-.55.09-1.01.29.03.58-.03.88-.03.23-.28.43-.59.64-.89-.19.01-.51.17-.67,0,.27-.25,1.01-1.24,1.32-1.16.17.04.4-.44.47-.55.54-.81,1.12-1.64,1.61-2.49.63-1.1,1.1-2.29,1.42-3.51.06-.24.25-.38.29-.61,0-.1-.02-.18-.09-.25.04-.17.07-.33.1-.5.08-.42.26-.13.42-.45.09-.17.08-.37.12-.55-.47,0-.35-.2-.3-.58.1-.25-.09-.7.27-.78.34-.08.33.03.41-.37.09-.5.18-.99.22-1.5-.23.13-.48.17-.74.19,0-.37,0-.74,0-1.11.2-.02.14.26.29.33.16.08.39-.34.45-.44.29-.44.09-.82.09-1.32-.19.24-.61.18-.87.22-.02-.31-.04-.63-.06-.94.1.2.21.24.38.34.13.08-.1.17-.04.26.16.23.34-.33.58-.1.02-.66-.05-1.32-.07-1.97-.05.06-.35.4-.44.24-.23-.41.33-.36.51-.46.3-.17-.55-1.29-.63-1.44-.07-.13-.11-.27-.12-.41-.39.16-.54.05-.51-.32.03-.37-.04-.35.32-.3.39.07.24-.13.5-.39.06-.41-.28-.9-.34-1.27-.67-3.74-2.24-7.32-4.6-10.28.29-.11-.51-.94-.68-1.17-.14-.19-.27-.38-.41-.57-.04-.08-.11-.08-.22,0-.17.09-.3.04-.39-.15.11-.16.28.12.27-.22,0-1.25-1.6-1.44-2.07-2.43-.02-.05-1.84-.98-1.17-1.2-.85-.47-1.52-1.15-2.36-1.63-.82-.47-1.65-1.44-2.68-1.27-.92.15-1.52-.43-2.39-.65-.04,0-1.1-.09-.77.18.2.16.48.17.69.31-.44.03-.83.07-1.27,0-.1-.01-.45.1-.28-.13-.37-.01-.7-.37-1.11-.42-.06,0-1.08-.31-.96-.41-.08.07.08.53.12.61-.12-.06-.97-.27-.99-.04-.94-.15-1.89-.26-2.84-.32-1.88-.11-3.76-.03-5.62.27.24-.48-.98-.28-1.15-.36-.52-.29-1.09-.03-1.59.16-.44.16-.88.24-1.34.31-.39.06-1.31.03-1.61.29-.09.08-.21.21-.22.33-.01.16-.41.34-.56.52-.35.4-.82.65-1.17,1.06-.34.4-.66.62-1.07.86.34-.48-.42-.09-.28-.65-.39.24-.89.59-1.02,1.05-.51.2-1.12.11-1.61.37-.19.1-1.09.75-.66.98.17.09.9-.6,1.16-.67-.64.48-1.22.9-1.74,1.51-.09.1-.16.21-.24.31-.24.29-.37-.08-.62.01-.38.13-.89.83-.81,1.23-.34-.34-.65.33-.88.57-.17.18-.37.35-.48.58-.12.26.42.33.61.41-.07.09-.14.18-.22.27-.16-.15-.3-.31-.45-.47-.08.24-.17.48-.25.72-.07.24-.03.67-.16.87-.16.24-.62.07-.63-.2-.29.46-.58.92-.83,1.41-.51.99-.47,2.11-1.02,3.11-.45.81-.9,1.56-1,2.49-.03.31-.36.55-.42.91-.09.56-.31,1.12-.22,1.7-.12.54-.22,1.08-.31,1.63-.06.35-.02.91-.18,1.23-.02.34-.05.67-.07,1.01-.03.48-.31.95-.07,1.43-.04,2.31.23,4.62.81,6.86,1.03,3.94,3.04,7.55,5.79,10.53,1.24,1.34,2.72,2.87,4.38,3.69.96.46,1.61,1.46,2.39,2.28.11.12.22.35.41.37.12-.01.2-.08.24-.2.13.05.25.1.37.16.07.04,1.51.56,1.39.23-.04-.12-.86-.38-.98-.46-.18-.13-.93-.5-.92-.76.37.18.52.46.87.63.17.08.34.13.51.21.07-.21.19-.24.35-.1.14.05.27.11.41.16-.22.28.12.34.32.56.21.23.41.4.7.5.59.21,1.25,0,1.8.23.23.1,1.72.83,1.68.32.08.04.18.02.26.06.04-.59.83-.46,1-.09.14.31.39.07.41-.16.36.03.72.06,1.08.08-.69.69,1,.73,1.07.56-.16,0-.31-.02-.47-.03.23-.75,1.13-.31,1.66-.31.19,0,.35-.09.46-.23.28-.02.57-.04.85-.06.66-.06,1.32-.14,1.97-.25.04.27.12.74-.2.88.62-.11,1.27-.02,1.89-.14-.23-.28-.79-.89-.22-1.02.52-.11,1.03-.24,1.55-.38-.1.08-.2.24-.32.29-.19.07-.28-.22-.46.03-.03.05-.13.23,0,.27.29.08.23-.23.43.06.18.24.6.11.79-.03.42-.3.61.05,1.06-.15-.06.27.68-.04.82-.06ZM19.97,5.56c.37-.05.73-.12,1.1-.15-.33.07-.64.22-.96.35,0-.1-.04-.17-.14-.2ZM54.8,29.03c-.04-.41-.1-.38.24-.55-.12.17-.02.45-.24.55ZM45.7,9.58c.38.23,1.47.63,1.35,1.12-.7-.57-1.43-1.1-2.18-1.59.3.1.57.3.83.48ZM39.59,6.11c.24.07.41.25.68.23.32-.02.66-.14.95.06-.21.18-.45.29-.71.4.87.1,1.75.45,2.43,1,.31.25.39.06.72-.09.18-.08.17-.09.19.09.05.59-.71.26-.92.15-1-.53-2.03-.99-3.08-1.4-.75-.29-1.18-.55-1.95-.75.58-.02,1.13.17,1.69.3ZM14.69,9.26c-.13-.05-.25-.1-.38-.15.32-.08.64-.15.97-.21-.19.16-.35.3-.59.36ZM12.85,10.6c.15-.16.41-.46.66-.34-.22.18-.39.49-.66.34ZM44.02,50.54c.33-.19.65-.38.98-.58-.01.46-.65.52-.98.58ZM40.39,52.41c-.06.17-.16.35-.33.44-.14.06-.44-.17-.52-.05.28-.14.57-.26.85-.39Z"/>
  <path class="cls-2" d="M22.4,26.1c.16-.29.57-.53.5-.92.11.14.1.43,0,.57.15-.18.3-.4.14-.63.11-.13.19-.35.28-.51.2-.34.18-.83-.14-1.09-.43-.35-1.21-.44-1.73-.63-.61-.22-1.51-.4-2.03-.79.05-.04.22-.19.08-.26-.14.16-.19.05-.29.09.08-.04.17-.07.26-.1-.34-.1-.6.05-.92-.09-.48-.21-.97-.47-1.45-.66-.5-.2-1-.42-1.5-.62-.27-.11-.44-.32-.74-.37-.27-.05-.47.09-.42-.2-.23.03-.36.04-.58-.02-.07-.02-.15-.04-.22-.05-.21.03-.27-.03-.19-.18,0,0-.57,0-.55,0-.29-.06-.58-.12-.88-.17-.36-.06-1.02-.25-1.01.35,0,.29.51.63.73.78.52.35,1.07.63,1.64.89,1.09.49,2.19.88,3.23,1.45,1.14.63,2.26,1.35,3.53,1.71-1.43.6-2.75,1.47-4.06,2.29-.65.4-1.29.81-1.98,1.14-.61.29-1.24.55-1.78.95-.42.31-.51.98.17,1.06.7.07,1.39-.12,2.03-.39.46-.02.73-.33,1.14-.36.16-.01.37-.01.51-.1.26-.16-.15-.29-.31-.22.26-.15.5-.3.76-.46.19-.11.29,0,.44-.1.2-.12.24-.3.46-.42.2.68.74-.38.95-.43.17-.04,1.26-.08,1.08-.43.03.05-.69.15-.74.15.38-.2.64-.23,1-.51.21-.13.26.24.63.1.11-.04.55-.16.7-.32.16-.16.17-.39.25-.58.24-.12.49-.25.73-.37,0,.28-.39.37-.46.39-.06.06-.09.13-.07.21.1-.03.66-.31.76-.3-.06.07-.05.11.05.15ZM13.35,19.75s-.05-.01-.07-.02c.05-.02.09-.03.07.02ZM17.65,28.06c-.05-.17.07-.14.26-.24-.06.11-.15.19-.26.24ZM20.14,26.65c.13-.06.39-.3.5-.15-.14.08-.34.18-.5.15ZM20.73,26.35c.08-.1.14-.11.19-.04-.06.19-.13.2-.19.04ZM21.24,26.13c-.05.09-.17.3-.25.09.1-.14.19-.18.25-.09ZM22.26,25.94c-.07.02-.12.15-.29.07.06-.03.43-.12.29-.07Z"/>
  <path class="cls-2" d="M45.65,29.14c.16.06.48.26.62.06.23-.33-.31-.55-.5-.68-.68-.45-1.34-.92-2-1.4-1.34-.96-2.69-1.91-4.16-2.66,1.51-.72,2.93-1.92,4.25-2.95.65-.51,1.28-1.06,1.8-1.7.15-.19.68-.73.57-1-.16-.4-1,.3-1.19.42.1-.12.71-.66.25-.78-.35-.09-.75.5-1.17.47.13-.07.24-.31-.02-.3-.15,0-.17.22-.23.31-.03-.09-.16-.2-.25-.1-.11.14.18.3.17.17.03.09-.16.35-.21.41-.38.21-.78.19-1.16.38-.34.17-.51.57-.84.76-.51.3-1.02.62-1.51.96-.06-.18-.68.48-.78.57-.28.24-.59.31-.88.53-.3.23-.51.55-.75.83.2-.22.37-.46.62-.63-.21.3-.48.55-.74.81-.31.02-.59.36-.46.67-.27.32-.68.6-.08.76,0,0-.28.04-.27.11.01.08.48.17.55.15-.07,0-.12.03-.17.07-.03.06.59.11.58.15.32.09.44.07.71.29.17.14.33.23.54.29.2.14.35.23.33.44-.02.17.1.3.23.39.32.22.72.28,1.08.4-.05-.04-.1-.09-.15-.13.11,0,.2.06.26.15-.27-.25.36-.03.39-.01.19.29.27,0,.34.33-.01-.05,1.09.14.75.48.18.03.32.15.47.24.03-.2.14.14.27.14,0-.05.07-.22.16-.15.09.07-.22.3.15.31-.17-.46.31-.14.1.05-.07.07-.28.37,0,.28.11-.04.21-.1.14-.21-.04-.24.33-.08.09.05.24.12.49.24.74.35-.09-.08,0-.25.13-.23.17.02.07.27-.05.27.57.23,1.17.4,1.77.2-.36-.05-.68-.13-1.03-.24.08.56-.33-.11-.18-.08-.22-.03-.39-.33-.08-.23.19.06.63.59.81.25ZM39.59,26.77s-.02-.08-.03-.11c.1.08.21.15.32.22-.09-.04-.19-.08-.28-.11ZM42.97,19.77c-.15.08-.3.17-.45.25.16-.16.34-.32.45-.25ZM37.18,24.58s.07-.07,0,0c0-.01-.02.02,0,0ZM37.68,25.13c.05-.06.09-.05.12.02-.05.05-.06,0-.12-.02ZM44.73,29.31l-.03-.21c.1-.04.16-.01.03.21ZM43.78,28.95c-.01-.16.2-.2,0,0h0ZM44.07,29.07c-.05-.08-.02-.14.1-.18.01.08-.02.14-.1.18Z"/>
  <path class="cls-2" d="M38.13,37.01c-.12-.24-.25-.49-.32-.74,0,.03,0,.05.02.08-.2-.43-.41-.78-.68-1.17.38.05-.34-.77-.44-.85-.16-.11-1.11-1.53-1.26-1.35.05-.05.78.93.84,1.04-.13.02-.43-.4-.5-.5.13-.29-.6-.66-.77-.78-.26-.17-.29-.54-.71-.64-.03,0-.41-.23-.57-.3-.29-.12-.53-.05-.83-.05.07.07.13.14.2.2-.24-.1-.49-.19-.73-.27.04.01.39.06.42.09-.29-.14-.75-.17-.92-.32.13-.03,1,.15,1,.11-.26-.1-.48-.23-.8-.27.07.03.1,0,.09-.06-.36,0-.75-.11-1.1-.16.18-.02.39-.03.57,0-.77-.12-1.24-.2-1.98.02.04-.01-.62-.16-.61.04-.44.1-.88.03-1.31.19.08-.03.75-.21.74-.27-.02-.17-2.54,1.26-2.68,1.35.07-.32-.25.17-.27.2.04-.08.08-.16.12-.24-.2.2-.36.46-.49.71-.09.19-.17.12-.32.33-.34.51-.79,1.01-1.05,1.57.03-.05.04-.09.02-.13-.36.25-.61,1.4-.76,1.79-.11.3-.08.25-.25.48-.15.19-.21.46-.25.69-.12.66-.08,1.15-.17,1.9-.2-.23-.08.28-.02.36,0,.18-.14,1.09.25.86-.07.08-.28.51,0,.32-.03.06-.06.13-.08.19.09-.17.15-.35.22-.52.06.46.09.8.04,1.27.17.03.09.14.22.27.13.13.38.18.54.29-.08-.04-.15-.02-.19.05.02.15.26.04.34.03-.07.09.07.15.13.1.05-.07.04-.11-.05-.1.2-.28.89.06,1.12.1.21.04.44-.02.64-.06.31-.06.61,0,.92.03,1.4.13,2.8.24,4.2.29.25,0,.48.08.65.12.19.05.65-.08.88-.08.65,0,1.3,0,1.95-.04.41-.02.95-.07,1.28-.12.2.08.37-.05.51-.08.06.08-.11.15,0,.21.2.11.12-.26.09-.23.14-.03.43,0,.69-.07-.3,0,.3-.18.06-.02.46-.15,2.05-1.15,1.2-1.74.6.14.56-1.75.55-2.1,0-.2-.13-2.07-.38-2.07ZM32.13,31.35c.07.03.2,0,.27.1-.08-.03-.41-.15-.27-.1ZM22.36,39.97s-.12-.31.01-.17v.17ZM37.17,35.05c-.26-.02-.34-.36-.46-.54.14.19.35.33.46.54ZM36.33,34.14c.01.09-.02.07-.09-.05.03.02.06.04.09.05ZM35.99,33.84c-.11-.1,0-.04,0,0-.02-.02,0,0,0,0ZM35.59,33.48c-.11-.09-.25-.2-.38-.3.17.06.29.18.38.3ZM34.62,32.53c-.06,0-.11-.01-.17-.02.08-.11.04-.16-.12-.17-.14-.04-.31-.07-.35-.24.16.07.61.22.64.42ZM33.77,32.13s-.18-.15-.18-.17c.23,0,.28.06.18.17ZM33.48,31.96c-.11.01-.26-.04-.31-.15.07,0,.36,0,.31.15ZM34.62,32.77s-.05-.03-.08-.05c.02-.02.07.03.08.05ZM31.67,31.45s-.17-.04-.17-.04c.07-.06.13-.05.17.04ZM30.74,31.21s.04.06.03.1c-.04,0-.08,0-.11,0,.03-.03.05-.06.08-.09ZM29.19,31.23c-.07.02-.11,0-.13-.07.04,0,.23.06.13.07ZM28.81,31.37c-.05.03-.1.06-.15.09.21-.05.43-.08.65-.09-.26.03-.64.18-.87.13-.02-.12.31-.13.38-.12ZM28.11,31.41c.07.01.13.03.19.06-.04.1-.31.07-.39.08.12-.05.11-.09.2-.14ZM26.58,32.28c.09,0,.09.03,0,.08-.05,0-.05-.03,0-.08ZM26.37,32.57c-.15.12,0-.18,0,0h0ZM25.47,33.43s-.02.02-.03.03c0-.01.02-.02.03-.03ZM25.16,33.76s-.05.06-.08.09c.05-.11.11-.21.19-.3-.05.07-.08.14-.11.21ZM24.71,34.22c-.1.07-.11.04-.04-.08.05-.04.07-.01.04.08ZM24.64,34.11c.01.1-.02.12-.09.06l.09-.06ZM24.29,34.44c.08-.04.12,0,.11.1-.09.06-.12.03-.11-.1ZM24.19,34.72v.12c-.04.15-.08-.04,0-.12ZM23.91,35.11c0,.08.04.1.06.19-.12-.02-.13-.09-.06-.19ZM23.53,36s.07-.03.06.04c-.05.08-.07.06-.06-.04ZM23.47,36.39c0,.07-.01.12-.04.18-.06-.05-.1-.11-.12-.19.09-.02.06.04.17,0ZM23.29,36.79c.03.06.02.11-.04.15-.06-.12-.04-.17.04-.15ZM23.04,37.44l-.03.18c-.12.08-.01-.16.03-.18ZM22.8,37.32c.04-.18.11.39,0,.1-.04.04-.06.08-.05.15.01-.08.03-.17.04-.25ZM22.75,37.88s-.02-.06,0-.1c.22.06.02.11,0,.1ZM22.63,38.04c.02.17.15.3.12.48,0-.04-.25-.48-.12-.48ZM22.61,40.7s-.02-.47.05-.19c.05.1.03.16-.05.19ZM24.6,42.81s.4.02.56.02c-.17.02-.55.08-.56-.02ZM25.24,42.82c-.06,0,0,0,0,0h0ZM23.71,42.67s-.07.03-.09-.03c.12-.01.15,0,.09.03ZM36.29,43.02s-.03-.05-.02-.07c.03,0,.03.02.02.07ZM36.51,42.97c-.15-.03.12-.16,0,0-.05,0,.02-.03,0,0ZM36.96,42.76s.08.02,0,0c.01,0,0,0,0,0ZM37.12,42.7s.08-.03.12-.05c0,.03-.06.05-.12.05Z"/>
  <path class="cls-3" d="M35.16,36.53c-.17-.15-.9-1.15-1.18-.97-.02.01-.78-.86-.93-.95.05.02.42.31.44.28.11-.13-.53-.4-.6-.43-.21-.08-.17-.03-.41-.19-.15-.1-.31-.21-.47-.31-.26-.06-.31-.13-.15-.22,0-.04-.6-.04-.09-.07-.25-.09-.63-.08-.79-.12-.39-.1-1.11-.17-1.48-.05.23-.12-.25-.01-.3.03-.29.11-.56.24-.84.35-.24.09-.14.18-.37.14-.22-.04-.44.14-.58.28-.14.13-.15.28-.28.19-.18.26-.33.54-.56.76-.06-.26-.18.09-.16.18-.14.16-.55.5-.17.61-.38-.03-.12.14-.29.21.09-.04.2-.07.28-.1-.04.06-.08.12-.12.18.04-.06,1.39,0,1.45.09-.23.13-.84-.23-.97.04,0,.02,1.7.34,1.73.17.03-.15-.29-.09-.35-.11.22-.06.47-.04.67-.06.21-.03.36.1.55.08.17-.02.33-.12.51-.12-.24.4.64.09.73.09.13,0,1.11.28,1.11.09,0,.03-.8-.16-.88-.17.07-.22.69.12.79.12.19,0,.39-.08.58-.04-.09.12.18.14.23.15.26.02.73.05.97-.16.23-.2.5-.13.8-.13-.09.05-.54.03-.53.14.23,0,.46,0,.72,0-.14.01.72.08.76,0-.03-.03-.05-.06-.08-.09.07.03.12.07.16.13-.08.02-.17.05-.25.05.09,0,.5.08.37-.05ZM27.36,34.88l.06-.06s-.04.05-.06.06ZM33.65,35.26s.05.17,0,.12c-.04-.03-.04-.07,0-.12ZM33.12,34.88s.02.09.02.14c-.08-.04-.15-.1-.19-.17.06.03.11.04.18.03ZM30.36,33.71c-.06.06-.08.05-.07-.05l.07.05ZM30.04,33.59c.06.05.05.1-.01.15-.07-.03-.07-.08.01-.15ZM29.84,33.66l-.07.06c-.1.05,0-.08.07-.06ZM29.51,33.66c-.04.06-.03.09-.07.15-.05-.09-.03-.14.07-.15ZM28.88,33.88s.05.03.02.07c-.06.01-.07-.01-.02-.07ZM28.57,33.93c.1.09.11.12-.01.17,0-.06,0-.12.01-.17ZM28.4,34.17s-.05.04-.07.05c.03-.11.06-.13.07-.05ZM27.97,34.37l-.1.08c-.12-.04.06-.1.1-.08ZM27.86,34.13c.06.03.07.09.05.16-.19-.02,0-.17-.19-.05.05-.04.09-.07.14-.11ZM27.62,34.37c.13.18-.03.08-.03.07,0-.03,0-.05.03-.07ZM27.44,34.44c-.01.13-.05.25-.1.36,0,.02.01-.44.1-.36ZM26.54,35.27l-.08.09s.03-.25.08-.09ZM26.36,35.91s.14-.16.13-.12c-.02.1-.06.14-.13.12ZM29.75,36.5c.14-.16.26-.08.47-.08-.15.04-.31.06-.47.08ZM30.55,36.35c.12.02.06.03,0,0,0,0,.01,0,0,0ZM32.15,36.44s.07-.06.1-.09c.09.07.32-.03.41.11-.11.02-.43.08-.51-.03ZM32.78,36.35s.15.03.16.07c-.12.1-.18.08-.16-.07ZM33.24,36.38c-.05.03-.22.14-.23,0,.05-.05.19-.05.23,0ZM34.14,36.46c-.06,0-.13.04-.26-.02.06,0,.38.03.26.02Z"/>
</svg>