<?xml version="1.0" encoding="UTF-8"?>
<svg id="Camada_1" data-name="Camada 1" xmlns="http://www.w3.org/2000/svg" viewBox="0 0 60 60">
  <defs>
    <style>
      .cls-1 {
        fill: #92a26e;
      }

      .cls-2 {
        fill: #66714c;
      }

      .cls-3 {
        fill: #b0b877;
      }
    </style>
  </defs>
  <path class="cls-1" d="M3.93,32.86c.06.39.11.79.17,1.19.05.33,0,.85.34.86.34,0,.08.78-.06.59.14.65.31,1.28.5,1.91.05.17.09.58.25.7.13.11.22.1.23.32.03.74.36,1.41.69,2.09.48-.31.63.48.81.79.21.36,1.12,1.22.76,1.6.16-.32-.46-.76-.61-.98-.14-.19-.15-.62-.39-.73-.17-.08-.15.5-.14.56.05.27.21.46.39.67.1.12.48.66.67.55-.42.36.31.84.56,1.08.5.48.9,1,1.19,1.64.26.64.53,1.14,1.01,1.65.16.18.28.43.5.55.17.09.3.04.41.22.76,1.15,2.12,1.52,3.04,2.49.44.45.73,1.04,1.24,1.42.51.37,1.07.66,1.61.99-.14-.3.38-.71.55-.39.27.45.68.78,1.04,1.15.07-.28.15-.56.27-.82.15-.31.26-.12.52,0-.22.32-.52.58-.76.89.15.26.54.33.81.4.33.09.92.56,1.06.11.13.45.54.49.92.64.47.18.6-.34.95-.17.85.4,1.68.64,2.62.76-.27.05-1.24-.27-1.35-.12-.29.39.81.61,1.03.62.56.02,1.07-.36,1.63-.4.34.38.93.45,1.41.48-.33-.37.18-.3.19-.53,0-.05-.24-.18-.27-.19.23-.47.21-.51.72-.5-.02.21-.15.4-.28.57.49-.03.9.3,1.36.42.51.13,1.13.36,1.64.42.37.05.47.35.95.2.58-.18,1.17-.36,1.75-.54.69-.21,1.74-.09,2.27-.63.17-.18,1.37-.76.98-1.02.85-.42,1.76-.68,2.58-1.16.78-.46,1.43-1.08,2.2-1.52.58-.33,1.13-.69,1.69-1.04.36-.23.79-.66,1.19-.7.27-.03.58-.35.75-.56,0,.09.1.57.21.59-.12-.02,1.09-1.28,1.12-1.34.27-.52,1.03-1.09,1.57-1.31-.08.13-.54.51-.46.68.14.28.62-.16.74-.26.62-.55.85-1.48,1.68-1.73.97-.3,1.29-1.27,1.75-2.08.3-.5.67-.93.92-1.46.22-.47.46-.93.8-1.33-.77.06.58-1.38.6-1.45.09-.35.23-.68.33-1.03.11-.39.29-.49.54-.78.24-.28.26-1.04.11-1.36-.16-.36-.45.23-.31-.32.56-.13.49-.28.61-.81.09-.46.22-.91.29-1.38-.43,0-.41.15-.54.49.11-.59.55-.95.67-1.55.11-.57.02-1.14.04-1.71.01-.33.11-.64.14-.96.02-.29-.14-.46-.21-.72-.09-.3-.14-.66-.12-.98.01-.25.15-.85-.06-1.06-.09-.09.16-1.02.18-1.24.02-.28.04-.63-.11-.88-.23-.39-.3.28-.31.41-.17-.12-.14-.42-.17-.6-.06-.34-.02-.27.27-.35.04-.18-.05-.47-.07-.66-.04-.42.08-1.04-.42-.99.07-.38.18-2.58-.77-1.9-.07-.21-.14-.41-.22-.62.22-.07.06-.44.09-.68.02-.18.05-.35.06-.53,0-.22.05-.6-.1-.78-.2-.23-.5.3-.69-.08-.18-.34.32-.19.46-.12-.24-.62-.57-1.2-.85-1.79-.11.32-.53-.1-.57.18-.02.11.22.09.15.21-.05.06-.1.13-.14.2-.12-.2-.24-.41-.36-.61.23-.09.56-.31.82-.18-.2-.52-.51-1.38-1.24-1.34-.35.02.05.92-.59.06-.3-.39-.61-.77-.94-1.15.1.09.45.66.6.65.34-.02.63-.27.99-.26-.32-.42-.62-.85-.94-1.26-.3-.38-.26-.04-.64-.08-.26-.03-.44-.52-.64-.69-.25-.23-.12-.4.15-.55-.21-.26-.44-.66-.83-.41-.42.26-.48.64-.87.25.18-.22.54-.77.38-1.08-.11-.22-.45-.24-.65-.31-.38-.15-.81-.49-1.23-.36-.43.14-.69-.27-1.03-.55-.33-.27-.1-.42-.59-.61-.41-.15-.71-.43-1.06-.68.28-.06.56-.11.84-.17-.22-.16-1.22-1.03-1.39-.82-.35.43-.55.43-.59-.17-.02-.36-.23-.43-.52-.6-.43-.25-.53-.38-.87-.03.22.02.31.16.3.36-.61-.35-1.23-.67-1.86-.96.04-.23.44-.27.61-.33-.25-.13-.5-.25-.75-.36-.34-.15-.42-.03-.73.12-.59.28-.18-.27-.49-.56-.14-.13-.43-.16-.61-.21-.29-.09-.26-.15-.46.08.07-.21-.07-.23-.23-.28,0,.12.07.27.16.35-.21.2-.24.18-.53.1-.34-.09-.59,0-.55-.41.13-.24.07-.35-.19-.32-.48-.1-.55.05-.9.34-.38-.07-.48-.3-.87-.39-.15-.03-.37.02-.43-.17-.05-.2-.23-.2-.41-.19-.41.02-.78.23-1.17.36-.31.09-1.03.15-1.04-.21-.46-.06-.91-.14-1.37-.18.03.14.06.28.07.43-1.24.06-2.6.23-3.88.48,0-.1.03-.2.09-.29-.13.03-.97.08-.78.3-.32.03-.48.24-.79.32-.2.05-.39.03-.59.09-.56.16-1.14.41-1.7.6.02-.17.06-.34.09-.51-.61.21-1.18.49-1.77.74.2-.02.31.1.4.26-1.02.41-2.01.89-2.97,1.42-.48.25-1.21,1.01-1.7.5.13-.08.27-.17.41-.25-.16-.14-1.63.73-.76.96-.3.19-.6.38-.9.58-.13-.21-.46-.3-.44.05.02.46-.67.86-.97.33-.33.25-.24-.08-.55.11-.16.1-.29.25-.42.39-.21.24-.42.47-.63.7-.41.44-1.08.59-1.53,1.02-.29.27-.38.57-.49.94-.12.38-.22.3.14.53-.21.22-.33.55-.62.39-.21-.12-.4.2-.53.35-.3.35-.12.72-.39,1.07-.3-.27.12-.74.27-1.01.09-.17.83-.89.81-1.05-.05-.34-1.25.91-1.31.98-.2.25-.43-.11-.55.25-.06.19-.06.38-.14.56-.29.69-.28,1.48-.67,2.14.39.11-.23.62-.33.73-.69.69-1.01,1.92-1.37,2.83-.3.77-.54,1.56-.78,2.35-.07.22-.1.24-.02.44.01.03-.15.2-.17.28-.09.38-.25.76-.3,1.15-.01.1.02.56.02.57.31.27.38.1.32.56-.79-.02-.42.56-.26,1.02.13.37-.21.61-.08.98.08.24.07.48-.21.56-.37.1-.37,1.42-.21,1.72.17.31.18.39.19.77.01.3.15.57.45.65.06.7.16,1.39.25,2.08-.24-.22-.33-.7-.76-.64ZM4.36,30.27c-.27-.13-.32,0-.38-.36-.04-.25-.04-.5-.02-.74.13.08.26.16.38.24,0,.29,0,.57.02.86ZM48.15,11.6c-.41-.41-.84-.82-1.27-1.21.19.08.37.17.55.28.35.21.62.53.72.93ZM31.95,56.23c.08-.07.09-.15.04-.24.34-.02.69-.06,1.03-.12-.36.11-.71.24-1.07.36ZM25.18,55.55c.09-.09.18-.24.28-.31.15-.04.55-.1.57-.32.11.05.1.28.13.37-.33.06-.65.18-.98.26ZM23.18,54.88c.14-.18.27-.37.41-.55.36.08.53-.03.42.41-.09.37-.58.22-.83.15ZM4.92,35.46c.27-.17.3.53.35.7-.1.03-.17,0-.23-.07,0-.15-.3-.53-.12-.64ZM4.59,34.8c.02-.34.08-.68.13-1.01.05.28.12.56.18.84-.06-.16-.06.07.01.06-.1.04-.21.08-.32.1Z"/>
  <g>
    <path class="cls-3" d="M42.15,34.08s.02.05.03.07c-.07-.01-.07-.04-.03-.07Z"/>
    <path class="cls-3" d="M40.6,28.87c-.13,0-.27-.02-.4-.03-.02.27.09.53.21.76.13-.08.28-.14.43-.16-.13.09-.26.16-.42.18.17.2.32.42.53.59,0-.1.04-.13.11-.09.07.07-.06.1-.09.12.09.1.78.5.79.44,0,.1.05.26.18.18-.12.24.3.5.33.48.04.08.13.23.23.26.18.05.1.21.12.22.09.07.17.14.16.34.03.14-.1.35-.13.48-.05.2.06.28.02.44-.14.04-.25.71-.5.82.5-.08.09.06-.02.16.49.14-.1.42-.14.64.08,0,.16-.03.24-.06-.01.23-.55.41-.12.67-.18.05.09.82.48.87-.17.24.15.24.31.24-.02,0-.04.03-.05.06.29-.04.12.38.51.19.02.05.62.15.35.32.23.11.21-.08.39.06.08.06.16.13.24.2-.02.01-.04.02-.07.04.73.19.91,1.67.91,2.32,0,.15.05.73-.13.67,0,.06-.04.12-.05.17-.04.12.04.43,0,.61-.05-.03-.09-.06-.12-.11-.32.08.25.36.01.41-.16.03-.15.22-.06.31-.23-.1-.22.12-.22.31.08-.02.17-.03.26-.03-.01.18-.12.15-.26.08,0,.11-.01.21,0,.32.08-.02.15-.02.23,0-.06.07-.13.09-.23.05,0,.11.02.22.04.33.17-.09.25-.08.28.09-.09-.04-.17-.05-.27-.06.15.18-.06.42.32.32-.08.03-.13.1-.24.12.02.08.34.31.35.27-.02.13-.26.04-.22.17-.01.07.1.28.16.21-.11.14.1.48.2.68.03-.02.06-.04.09-.07-.02.12-.01.36.18.32.23-.04.03.59.28.7,0,0,.15-.18.18-.13.05.09-.2.09-.04.22.23.2.08.46.31.16,0,0,.28.47.28.48-.03-.03-.06-.08-.1-.09.02,0,.09.63.22.42.01.01.17.18.17.17-.19.23.99.55.93.38,0-.02-.1-.06-.19-.09.05,0,.09,0,.1-.01,0,0-.28-.19-.45-.31.22.15.55.35.83.38.04.05.07.11.11.16,1.57-1.5,3.3-3.15,4.31-5.09.24-.08.43-.36.33-.61-.11-.26-.5-.36-.67-.59-.77-1.06.15-2.84.3-3.98.1-.75-.11-1.3-.73-1.76-.64-.47-1.53-.57-2.1-1.12-.99-.95.06-2.51-.18-3.66-.17-.83-.98-1.19-1.63-1.59-.33-.2-.66-.44-.86-.78-.18-.28-.04-.31-.44-.31-.07,0-.18-.02-.29-.03-.03-.12-.07-.25-.09-.38-.06-.32-.37-.5-.64-.6-1.36-.52-3.11-.29-4.52-.1.03.24.08.47.12.71-.11,0-.22,0-.32,0-.36.04-.28.28-.37.58.02,0,.22.03.12.07-.04-.02-.08-.04-.12-.06-.09.32.22.01.21.26-.07-.05-.18-.07-.26-.09,0,.04-.02.09-.03.13.06-.03.11-.01.15.05-.26-.07-.22.31-.2.5.09-.03.41-.09.4.06ZM40.43,28.48s.08-.02.12-.01c0,.19-.02.02-.12.01ZM42.23,35.05c0,.06-.05.04,0,0h0ZM47.06,46.62s.07.05.11.08c-.06-.04-.1-.07-.11-.08ZM45.34,44.46c.28-.22.1-.09.12-.03-.04.01-.08.02-.12.03ZM45.33,44c.06.17-.09.14-.2.17.09-.07.16-.07.2-.17ZM42.93,36.43s.07,0,.08,0c-.03-.01-.06-.02-.08,0ZM40.91,29.54s.05.07.07.11c-.13.07-.08-.02-.07-.11Z"/>
  </g>
  <path class="cls-2" d="M37.63,27.24c.99.15,2.07.25,3.06.14.52-.06,1.11.06,1.64.08.49.02.98.05,1.47.1,1.03.11,1.97.22,2.94.22-.09-.27.64-.31.91-.42.22-.09.68-.27.75-.54.08-.31-.21-.72.08-1.03-.03.08-.05.16-.07.24,0,.1.03-.39-.01-.36-.09.05-.11.35-.12.44.03-.4.08-.59-.36-.61,0-.04-.14-.33-.16-.29-.01.1,0,.19.02.29-.23.05-.41-.27-.51-.41-.04.42-.04.08-.3.03-.24-.05-.3.37-.32.51-.03-.18-.41-.17-.58-.26-.08-.04-.42-.27-.27,0-.22-.09-.58-.06-.81-.14-.22-.07.01.32-.23-.13-.05-.11-.11-.2-.2-.27.03.08.05.17.07.25-.02-.05-.05-.05-.07.02-.01-.09-.02-.18-.03-.28-.1,0-.05.34-.05.33-.25.11-.49.04-.76.01-.26-.34-.55-.1-.37-.04-1.32-.14-2.64-.41-4-.32.08-.07.08-.38-.02-.32-.07.04-.08.26-.04.33-.29.02-.81.25-.96,0-.05-.09-.18-.22-.29-.25.1.02.2.34.27.41-.52.13-.09.02-.29-.2-.07-.08-.2.05-.25.09-.24.22-.12.05-.35.08-.66.1-.14.85-.7.82.46.28-.02,1.32.92,1.46ZM48.11,26.18c.08-.02.1.02.05.12-.11-.02-.13-.06-.05-.12ZM47.88,25.49h-.07c-.05-.36.05-.05.07,0ZM47.13,25.44c.1.09.05.25.04.35,0,0-.07-.37-.04-.35ZM46.98,25.6s.04.08.03.13c-.06,0-.07-.05-.03-.13ZM46.91,25.49c-.16,0,.04.22-.11.17,0-.06-.03-.39.11-.17Z"/>
  <path class="cls-2" d="M24.31,17.19c.44-.47,1.21-1.26,1.14-1.96-.05-.46-.85-.84-.57-1.15-.23.08-.28.17-.53.15-.18-.01-.36.02-.52.11-.21.11-.7.63-.75.85-.01.08-.03.19-.24.13-.12-.04-.02.19.02.21-.06.08-.13.16-.2.23-.06-.05-.13-.08-.21-.09.02.08.06.14.13.18-.17.17-.29.34-.53.36-.09,0-.17.03-.25.08-.12.11.03.21-.1.31-.07-.06-.15-.09-.24-.09.01.08.05.14.12.17-.28.2-.39.36-.72.27-.05-.01-.13-.07-.18-.05-.02.07,0,.12.07.17-.15-.04-.13.12-.08.2-.05.03-.16-.09-.19-.02-.14.33-.78.6-1.19.48.15-.05.3-.06.45-.03-.25-.01-.58-.14-.77.09-.17.21-.11.31-.37.4.07.04.07.07.02.08-.43-.31.12-.06-.09-.33-.07-.08-.36.15-.38.07.03.1.07.19.14.27-.05,0-.66,0-.64-.02-.01.07.01.13.07.18-.48.36-.88-.58-1.27.06-.12.2-.48.5-.58.11.03.08.11-.27,0-.3-.1-.02-.05.31-.05.3-.38-.13-.18.28-.1.22-.16.46-1.09.71-.3,1.14.47.26,1.06.29,1.59.28,1.13-.02,2.32-.25,3.38-.65,1.45-.53,2.84-1.28,3.91-2.42ZM15.87,19.07s-.04,0-.06.01c.01-.09.03-.09.06-.01ZM16.89,18.57c-.11.01-.36.1-.39.1-.02-.25.25-.14.39-.1ZM16.95,18.59s-.05,0,0,0h0ZM17.05,18.82s-.09-.13-.06-.09l.06.09Z"/>
  <path class="cls-2" d="M44.92,20.22c.07-.3-.08-.5-.04-.78,0,.08.01.16.03.24.02.05-.1-.35-.13-.34-.03.01.02.29.03.32-.26-.17.02-.48-.41-.37-.02-.04-.16-.26-.16-.26.01.1.03.19.06.28-.17.07-.33-.28-.38-.37,0,.43.01.13-.17.05-.17-.08-.24.37-.25.43-.18-.02-.27-.09-.42-.23-.07-.07-.24-.3-.2-.02-.11-.12-.42.06-.48-.09-.02-.06-.04-.2-.1-.23-.07.01-.11.07-.12.16.01-.16.08-.49-.01-.63-.02.08-.04.17-.06.25,0-.05-.02-.06-.05,0,.03-.09.06-.17.1-.26-.07-.03-.19.3-.18.28-.14.02-.28.01-.41-.02-.25-.07-.13-.12-.16-.32-.01-.07-.06-.32-.19-.25-.2.1.02.21.08.31-.02-.03-.45-.16-.5-.19-.08-.06-.16-.13-.24-.2.1-.25.05-.42-.23-.25.06-.19-.05-.1-.14-.18.01.04.02.09.02.13-.3-.25-.15-.11-.41-.35-.17-.15-.09-.35-.25-.43-.14-.07.03-.24-.2-.23-.27.02-.24,0-.46-.22.08-.03.14,0,.17.05.28-.27-.53-.2-.52-.59,0-.2-.13-.2-.27-.09.05.05-.22-.27-.14-.26,0,.18-.09.15-.23-.11-.07-.07-.14-.14-.22-.2.13,0,.41-.25.18-.32-.25-.07-.24.03-.31-.16-.08-.19-.56-.15-.72-.21-.28-.11-.59-.1-.85.04-1.61.82.46,2.45,1.12,3.1,1.14,1.1,2.41,2.16,3.9,2.73.71.27,1.48.47,2.25.49.35.01.62,0,.95-.12.15-.05.58-.42.64-.31-.06-.08-.07.3.07.29.13-.01,0-.29,0-.31.46.03.12-.32.05-.24ZM43.58,19.42s.01-.08.02-.13c.08-.02.05.13-.02.13ZM43.88,19.43c-.06.02-.08,0-.07-.08,0-.15.06.06.07.08ZM44.36,19.3h-.05c-.1-.32.02-.04.05,0Z"/>
  <path class="cls-3" d="M5.9,38.98c.06.16.18.32.3.42.04.37.15.75.24,1.06.52,1.71,1.37,3.3,2.44,4.72.34.45.7.9,1.07,1.33.03.22.21.44.45.47.3.04.68-.14.94-.26.07-.03.49-.36.5-.16,0-.17.25-.27.36-.36-.08.18.38-.22.46-.24.25-.07.24-.61.45-.78.08.02.41-1.02.44-1.14.14-.52.17-1.03.18-1.57,0-.89.04-1.89.64-2.61.19-.23,1.16-.71,1.16-.75.04-.02.5-.19.51-.18-.04-.05.46-.22.57-.24-.15-.23.49-.36.58-.41.09-.05.22-.63.42-.26.07-.08.13-.17.19-.26-.06,0-.11-.02-.16-.06.12-.16.27-.85.41-.62.06,0,.04-.3-.12-.2,0-.3.01-.1-.02-.38.07-.03.19-.09.12-.2-.07-.11-.11-.13-.1-.27.02-.21-.1-.25-.18-.37,0-.05.08-.31.09-.33,0-.02-.22-.14-.18-.12-.13-.04-.17-.43-.2-.55-.09-.4-.16-.83-.08-1.24.18.06.12-.18.16-.24.13-.21-.02-.2.22-.45-.01.08.01.16.07.22.14-.15.14-.17.17-.29,0,.01.47-.27.55-.33.03-.02.31-.63.46-.5-.03-.02-.19.16-.22.2-.06.1.39.01.24-.17.06.06.53-.38.66-.5.13-.14.24-.39.29-.57.08-.29.33-.4.4-.72-.25.12-.12-.11-.06-.18.29-.33-.21.08-.18-.18.41.05.32-.3.18-.28.09-.05-.08-.55-.15-.71.01,0,.06.19.1.19.29,0-.04-.28-.1-.32-.13-.09.02-.15-.02-.31-.27.24-.09-.68-.09-.68-.15-.16-.37-.23-.61-.25-.12-.33-.25-.65-.35-.98-.99-.46-2.23-.43-3.28-.3-.7.09-1.39.24-2.07.44-.39.12-.28.33-.22.64-.1-.01-.21,0-.32.06-.26.13-.12.78-.17,1.07-.31,1.79-2.42,2.04-2.89,3.75-.37,1.35.58,3.17-.79,4.11-.94.65-2.25.68-3.08,1.51-.36.36-.58.82-.38,1.33ZM20.12,28.72s.06-.04,0,0h0ZM19.91,27.7s-.04-.1-.06-.15c.17.09.19.14.06.15ZM19.42,31.13c.05.04.06.07,0,.09-.08,0-.08-.04,0-.09ZM18.04,32.41s.05.06.06.1c-.21.05-.03-.05-.06-.1ZM17.8,32.72c.24-.23.02-.05.18-.03-.06,0-.12.02-.18.03ZM17.47,33.15c.08.05.08.11,0,.18-.06-.05-.06-.11,0-.18Z"/>
  <path class="cls-2" d="M13.93,27.47c-.08-.32.84-.18,1.12-.18.49,0,.97,0,1.46.01.88.02,1.76.05,2.63.06.94.01,1.77.15,2.7-.15.27-.09.44-.38.37-.66-.07-.26-.23-.17-.11-.45.03-.07.06-.14.09-.21-.04.07-.07.15-.1.23-.02.11.09-.38.05-.36-.09.05-.15.33-.17.43.08-.36.19-.57-.22-.63,0-.04-.09-.33-.1-.31-.02.09-.03.19-.02.29-.21.03-.35-.33-.42-.46-.09.47-.03,0-.31,0-.2,0-.26.39-.28.51-.02-.2-.09-.2-.24-.14-.11.05-.17-.09-.26-.15-.08-.05-.37-.28-.24,0-.1-.06-.78-.04-.78-.02-.15-.02-.15-.4-.31-.48.02.08.05.17.06.25-.02-.05-.04-.04-.06.02-.01-.09-.02-.18-.03-.27-.09,0-.04.35-.04.33-.22.12-.42.05-.66.03-.23-.31-.44-.07-.35-.03-.89-.06-1.78-.06-2.68-.05,0-.08-.91-.06-.96.01-.21,0-.46.1-.56-.12-.03-.08-.14-.21-.22-.24.07.02.15.31.18.36-.31,0-.17-.3-.51.01-.32.03-.52.09-.76.39-.55.69-.06,1.79.84,1.79.35-.21.69-.23.91.16ZM21.64,25.54c0-.36.05-.04.06,0h-.06ZM21.05,25.43c.09.1.02.26,0,.36,0,0-.02-.38,0-.36ZM20.9,25.58c.03.05.03.1.01.16-.07-.01-.07-.06-.01-.16ZM20.76,25.4c.09-.02.03.2,0,.28-.14-.05.06-.22,0-.28Z"/>
  <path class="cls-2" d="M23.65,40.03c.35.48.63,1,1.2,1.26-.09.08-.16.18-.22.29.18-.43,1.07-.02,1.4.02.52.06,1.05.07,1.58.05.85-.03,1.69-.11,2.55-.09,1.07.03,2.19.1,3.24-.19.19-.05.55-.12.68-.18.26.02.51-.08.74-.18.18.1.78-.01.32-.2.37-.34.76-.66,1.02-1.09-.27-.12-.07-.18,0-.49.03-.15.05-.32.01-.48-.05-.2-.18-.34-.39-.37-.03-.18.02-.29-.06-.47-.15-.3-.07-1.13-.35-1.34-.05.01-.07.05-.05.13-.13-.41-.55-.63-.67-1.03-.03-.1-.18-.62-.34-.35,0-.31-.13-.74-.37-.94.04.1.08.21.09.32-.03-.13-.24-.12-.14-.35-.14-.07-.16.13-.17.21-.47-.14-.99-.23-1.33-.54-.1-.09-.8-.63-.87-.29,0,.04.51.19.57.22-.38-.19-.8.19-1.08-.05-.09-.07-.55,0-.43.1-.17-.13-.41-.5-.71-.47-.25.02-.23.14-.48.13-.11.01-.22.04-.32.07.11-.04.36.08.44.13-.27.01-.61.11-.87-.02-.02.08,0,.13.08.14,0-.02-.63.17-.62.17.09.39-.38,0-.55-.03-.19-.03-.32.06-.47.15-.05.03-.93.25-.51.54-.22.22-.64.39-.9.59,0,0,.28-.49.32-.43-.19-.27-.86.95-1.11,1.05-.17.06-.58.33-.37.55-.06.07-.38.37-.39.44.04,0,.08-.02.1-.06-.22.31-.41.65-.57,1-.24-.23-.28.28-.28.39.03.57-.1,1.17.27,1.67ZM35.89,38.88c-.01-.16.02-.15.03-.22,0,.07-.02.15-.03.22ZM35.9,39.31c.12.03-.06.2-.09.22-.03-.11,0-.18.09-.22ZM34.93,40.95c.05-.03.1-.05.15-.09.28.14-.1.12-.15.09ZM31.77,34.28c-.14-.03-.02-.09,0,0-.03,0,0-.02,0,0ZM31.03,34.02s-.03.08-.04.12c-.17-.02.01-.13.04-.12ZM28.49,34.16c.04-.15.15-.09.2-.1.1-.04-.14.09-.2.1ZM28.34,34.22s-.04,0-.06.01c.02-.02.04-.02.06-.01ZM27.38,34.49c0-.05.03-.07.11-.04-.04.01-.07.02-.11.04ZM26.77,34.75c.08-.13.36-.21.47-.2-.16.06-.32.13-.47.2Z"/>
</svg>