<?xml version="1.0" encoding="UTF-8"?>
<svg id="Camada_1" data-name="Camada 1" xmlns="http://www.w3.org/2000/svg" xmlns:xlink="http://www.w3.org/1999/xlink" viewBox="0 0 888 95.41">
  <defs>
    <style>
      .cls-1 {
        fill: #95a36e;
      }

      .cls-2 {
        fill: #b9bf79;
      }

      .cls-3 {
        fill: #9e7432;
      }

      .cls-4, .cls-5 {
        fill: #fff;
      }

      .cls-6, .cls-7 {
        fill: none;
      }

      .cls-8 {
        fill: #edebd3;
      }

      .cls-9 {
        clip-path: url(#clippath-1);
      }

      .cls-10 {
        fill: #cda55f;
      }

      .cls-11 {
        isolation: isolate;
      }

      .cls-7 {
        stroke: #cda55f;
      }

      .cls-7, .cls-5 {
        stroke-miterlimit: 10;
      }

      .cls-12 {
        fill: #9fa934;
      }

      .cls-13 {
        fill: #94a26e;
      }

      .cls-5 {
        stroke: #94a26e;
        stroke-width: 1.49px;
      }

      .cls-14 {
        clip-path: url(#clippath);
      }

      .cls-15 {
        fill: #b8be79;
      }
    </style>
    <clipPath id="clippath">
      <rect class="cls-6" x="-8.26" width="896.26" height="95.41"/>
    </clipPath>
    <clipPath id="clippath-1">
      <rect class="cls-6" x="-5.95" y="440.01" width="888" height="60"/>
    </clipPath>
  </defs>
  <g class="cls-14">
    <rect class="cls-6" width="888" height="500"/>
    <rect class="cls-4" width="888" height="500"/>
    <g id="Atualização_em_Fitoterapia_-_Aspectos_Clínicos_-_Telas-03" data-name="Atualização em Fitoterapia - Aspectos Clínicos - Telas-03">
      <g id="Grupo_7800" data-name="Grupo 7800">
        <path id="Caminho_10024" data-name="Caminho 10024" class="cls-8" d="M870.38,26.77c.22.46.57.85,1,1.12.38.19.81.24,1.22.13.4-.14.74-.41.95-.77.21-.46.28-.98.22-1.48-.02-1.01-.86-1.81-1.87-1.79s-1.81.86-1.79,1.87c0,.33.1.65.28.93h0Z"/>
        <path id="Caminho_10025" data-name="Caminho 10025" class="cls-8" d="M861.64,19.14c-.02-.33-.04-.67-.06-1-.03.29-.06.59-.1.88,0-.08.02-.15.05-.22-.28.53-.57,1.05-.85,1.58.04-.05.08-.1.13-.15.55-.62.9-1.4.99-2.23.1-.86-.08-1.73-.53-2.47-.45-.7-1.12-1.24-1.9-1.53-.79-.33-1.66-.37-2.48-.13-.64.22-1.23.58-1.72,1.06-.57.61-.92,1.4-.99,2.23-.1.86.08,1.73.53,2.47.55.84,1.4,1.45,2.37,1.71.06.02.13.04.19.06-.53-.28-1.05-.57-1.58-.85.06.05.11.1.16.15-.19-.23-.38-.46-.56-.68.17.29.34.58.5.87.37.58.91,1.02,1.56,1.25.64.27,1.36.3,2.03.1,1.35-.43,2.27-1.68,2.26-3.1h0Z"/>
        <path id="Caminho_10026" data-name="Caminho 10026" class="cls-8" d="M855.82,29.73l-.37.24c-.42.24-.72.64-.84,1.1-.13.53.04,1.08.43,1.45.36.32.83.48,1.31.45h.44c.97-.02,1.73-.82,1.71-1.79-.02-.97-.82-1.73-1.79-1.71-.32,0-.63.1-.9.27h0Z"/>
        <path id="Caminho_10027" data-name="Caminho 10027" class="cls-8" d="M840.43,28.13c.75,2.52,4.67,1.35,3.91-1.17-.76-2.52-4.67-1.35-3.91,1.17Z"/>
        <path id="Caminho_10028" data-name="Caminho 10028" class="cls-8" d="M863.85,39.71c.27.81,1.16,1.25,1.97.98.77-.26,1.21-1.08,1.01-1.87-.27-.81-1.16-1.25-1.97-.98-.77.26-1.21,1.08-1.01,1.87Z"/>
        <path id="Caminho_10029" data-name="Caminho 10029" class="cls-8" d="M867.76,16.44c.24.69.99,1.06,1.68.82.65-.23,1.02-.91.85-1.58-.24-.69-.99-1.06-1.68-.82-.65.23-1.02.91-.85,1.58Z"/>
        <path id="Caminho_10030" data-name="Caminho 10030" class="cls-8" d="M862.86,28.51c.17.52.73.81,1.25.64.51-.16.8-.7.65-1.21-.17-.52-.73-.81-1.25-.64-.51.16-.8.7-.65,1.21Z"/>
        <path id="Caminho_10031" data-name="Caminho 10031" class="cls-8" d="M878.68,31.41l.39.57c.21.32.51.56.87.7.36.15.76.17,1.13.06.29-.1.56-.27.78-.49.31-.34.48-.78.48-1.24,0-.23,0-.46.01-.69-.02-1.09-.93-1.96-2.02-1.94s-1.96.93-1.94,2.02c0,.36.11.71.3,1.01h0Z"/>
        <path id="Caminho_10032" data-name="Caminho 10032" class="cls-8" d="M866.72,36.2c.2.62.86.97,1.49.77.61-.19.96-.84.78-1.45-.2-.62-.86-.97-1.49-.77-.61.19-.96.84-.78,1.45Z"/>
        <path id="Caminho_10033" data-name="Caminho 10033" class="cls-8" d="M850.04,43.83c.09.22.17.45.26.67.08.3.23.58.45.81.17.25.41.46.68.59,1.15.61,2.57.18,3.19-.96.07-.19.14-.37.22-.56.1-.41.09-.83-.03-1.23-.05-.23-.1-.47-.15-.7-.08-.31-.24-.6-.46-.83-.18-.26-.42-.47-.7-.6-.27-.16-.58-.25-.89-.26-.32-.06-.65-.04-.95.07-.61.19-1.12.6-1.43,1.16-.31.56-.38,1.23-.19,1.84h0Z"/>
        <path id="Caminho_10034" data-name="Caminho 10034" class="cls-8" d="M838.68,41.03c.26.78,1.09,1.2,1.87.94.75-.25,1.17-1.03.96-1.79-.26-.78-1.09-1.2-1.87-.94-.75.25-1.17,1.03-.96,1.79Z"/>
        <path id="Caminho_10035" data-name="Caminho 10035" class="cls-8" d="M826.72,26.92c.23.67.96,1.03,1.63.8.63-.22,1-.88.83-1.53-.23-.67-.96-1.03-1.63-.8-.63.22-1,.88-.83,1.53Z"/>
        <path id="Caminho_10036" data-name="Caminho 10036" class="cls-8" d="M823.57,55.85c.14.15.28.31.42.46.64.6,1.55.82,2.39.57.42-.13.8-.36,1.1-.68.29-.31.49-.69.6-1.1.03-.2.06-.41.1-.61.23-.98-.07-2-.81-2.69-1.13-1.05-2.89-.98-3.93.14-.32.35-.55.78-.67,1.24-.23.98.07,2,.81,2.69h0v-.02Z"/>
        <path id="Caminho_10037" data-name="Caminho 10037" class="cls-8" d="M847.07,58.86c.71,2.37,4.4,1.28,3.69-1.1-.71-2.38-4.4-1.28-3.69,1.1Z"/>
        <path id="Caminho_10038" data-name="Caminho 10038" class="cls-8" d="M815.34,40.04c.26.81,1.13,1.24,1.94.98.77-.25,1.21-1.07,1-1.86-.26-.81-1.13-1.24-1.94-.98-.77.25-1.21,1.07-1,1.86Z"/>
        <path id="Caminho_10039" data-name="Caminho 10039" class="cls-8" d="M826.07,42.51c.16.22.33.44.49.66.25.39.73.56,1.17.44.43-.15.73-.55.74-1.01.02-.27.03-.55.05-.82,0-.48-.27-.92-.69-1.14-.31-.16-.67-.2-1.01-.1-.33.11-.61.34-.79.64-.23.42-.21.93.04,1.33h0Z"/>
        <path id="Caminho_10040" data-name="Caminho 10040" class="cls-8" d="M814.19,73.1c.07.21.14.41.2.62.22.69.69,1.27,1.32,1.63.65.32,1.39.39,2.09.21.69-.21,1.28-.68,1.63-1.32.33-.65.4-1.39.22-2.09-.06-.21-.11-.42-.17-.63-.24-.69-.71-1.27-1.33-1.64-.65-.32-1.4-.39-2.1-.21-.7.21-1.29.69-1.64,1.33-.34.64-.42,1.4-.22,2.1h0Z"/>
        <path id="Caminho_10041" data-name="Caminho 10041" class="cls-8" d="M834.76,62.54c.06.2.26.31.46.25.2-.06.31-.26.25-.46h0c-.06-.2-.26-.31-.46-.25-.2.06-.31.26-.25.46Z"/>
        <path id="Caminho_10042" data-name="Caminho 10042" class="cls-8" d="M798.9,59.09c.27.81,1.16,1.25,1.97.98.77-.26,1.21-1.08,1.01-1.87-.27-.81-1.16-1.25-1.97-.98-.77.26-1.21,1.08-1.01,1.87Z"/>
        <path id="Caminho_10043" data-name="Caminho 10043" class="cls-8" d="M796.76,33.2c.23.67.96,1.03,1.63.8.63-.22,1-.88.83-1.53-.23-.67-.96-1.03-1.63-.8-.63.22-1,.88-.83,1.53Z"/>
        <path id="Caminho_10044" data-name="Caminho 10044" class="cls-8" d="M838.49,11.5c.44-.11.85-.32,1.2-.62.45-.51.41-1.28-.09-1.74-.14-.13-.32-.22-.51-.27-.45-.06-.92,0-1.35.14-.69.21-1.08.93-.87,1.62.1.33.33.61.63.77.3.17.66.2.99.1h0Z"/>
        <path id="Caminho_10045" data-name="Caminho 10045" class="cls-8" d="M843.25,75.04c.16.47.67.71,1.14.55.44-.15.69-.61.58-1.06-.16-.47-.67-.71-1.14-.55-.44.15-.69.61-.58,1.06Z"/>
        <path id="Caminho_10046" data-name="Caminho 10046" class="cls-8" d="M878.89,21.07c.14.54.45,1.01.9,1.34.56.29,1.26.09,1.57-.47.2-.52.2-1.09.02-1.61-.1-.33-.32-.61-.63-.77-.63-.34-1.42-.1-1.76.53-.17.3-.21.66-.1.99h0Z"/>
        <path id="Caminho_10047" data-name="Caminho 10047" class="cls-8" d="M873.59,10.28c.31.83,1.23,1.25,2.06.94.75-.28,1.18-1.07,1-1.85-.31-.83-1.23-1.25-2.06-.94-.75.28-1.18,1.07-1,1.85Z"/>
        <path id="Caminho_10048" data-name="Caminho 10048" class="cls-8" d="M860.77,5.26c.26.75,1.08,1.15,1.83.89.71-.24,1.11-.99.93-1.71-.26-.75-1.08-1.15-1.83-.89-.71.24-1.11.99-.93,1.71Z"/>
        <path id="Caminho_10049" data-name="Caminho 10049" class="cls-8" d="M799.51,79.43c-.18.07-.37.14-.55.21-.04.02-.08.03-.12.05-.3.11-.56.3-.76.55-.27.36-.36.83-.23,1.27.12.37.38.67.71.87.38.18.81.22,1.21.09.2-.04.4-.09.61-.13.38-.12.71-.38.9-.73.19-.35.23-.77.12-1.15-.12-.38-.38-.71-.73-.9-.35-.19-.77-.24-1.15-.12h-.01Z"/>
        <path id="Caminho_10050" data-name="Caminho 10050" class="cls-8" d="M871.37,45.43c.19.56.79.86,1.35.68.53-.18.84-.74.7-1.29-.19-.56-.79-.86-1.35-.68-.53.18-.84.74-.7,1.29Z"/>
        <path id="Caminho_10051" data-name="Caminho 10051" class="cls-8" d="M882.41,41.25c.05.17.22.26.39.21.17-.05.26-.22.21-.39s-.22-.26-.39-.21c-.17.05-.26.22-.21.39Z"/>
        <path id="Caminho_10052" data-name="Caminho 10052" class="cls-8" d="M873.51,40c.19.22.41.42.64.6.28.15.64.04.79-.24.1-.27.17-.56.21-.85.08-.35-.03-.71-.29-.96-.4-.38-1.02-.36-1.4.04-.12.13-.2.28-.24.45-.08.35.03.71.29.96Z"/>
        <path id="Caminho_10053" data-name="Caminho 10053" class="cls-8" d="M865.09,54.37c.21.61.88.94,1.49.73.58-.2.9-.81.75-1.4-.21-.61-.88-.94-1.49-.73-.58.2-.9.81-.75,1.4Z"/>
      </g>
      <rect id="Retângulo_714" data-name="Retângulo 714" class="cls-8" y="12.16" width="888" height="31.31"/>
      <path id="Caminho_10054" data-name="Caminho 10054" class="cls-4" d="M566.55,11.73h222.56v31.74h-222.56c-8.76,0-15.87-7.11-15.87-15.87h0c0-8.76,7.11-15.87,15.87-15.87Z"/>
      <path id="Caminho_10055" data-name="Caminho 10055" class="cls-13" d="M665.95,11.73h221.92c.28,0,.51.23.51.51v31.23h-222.7c-8.69,0-15.72-7.04-15.73-15.73h0c0-8.83,7.17-16,16-16h0Z"/>
      <line id="Linha_29" data-name="Linha 29" class="cls-7" y1="49.43" x2="888" y2="49.43"/>
      <line id="Linha_30" data-name="Linha 30" class="cls-7" y1="11.73" x2="888" y2="11.73"/>
      <path id="Caminho_10056" data-name="Caminho 10056" class="cls-5" d="M19.43,0h180.57v47.43c0,6.63-5.37,11.99-12,12H31.43c-6.63,0-11.99-5.37-12-12V0Z"/>
      <g id="Grupo_7803" data-name="Grupo 7803">
        <path id="Caminho_10066" data-name="Caminho 10066" class="cls-15" d="M217.37,11.29c2.17,2.1,4.98,3.4,7.98,3.7,3.23.16,6.36-1.13,8.54-3.52"/>
        <path id="Caminho_10067" data-name="Caminho 10067" class="cls-15" d="M251.62,11.1c-2.17-2.1-4.98-3.4-7.98-3.7-3.23-.16-6.36,1.13-8.54,3.52"/>
        <path id="Caminho_10068" data-name="Caminho 10068" class="cls-15" d="M252.84,11.29c2.17,2.1,4.98,3.4,7.98,3.7,3.23.16,6.36-1.13,8.54-3.52"/>
        <path id="Caminho_10069" data-name="Caminho 10069" class="cls-15" d="M287.09,11.1c-2.17-2.1-4.98-3.4-7.98-3.7-3.23-.16-6.36,1.13-8.54,3.52"/>
        <path id="Caminho_10070" data-name="Caminho 10070" class="cls-15" d="M288.31,11.29c2.17,2.1,4.98,3.4,7.98,3.7,3.23.16,6.36-1.13,8.54-3.52"/>
        <path id="Caminho_10071" data-name="Caminho 10071" class="cls-15" d="M322.56,11.1c-2.17-2.1-4.98-3.4-7.98-3.7-3.23-.16-6.36,1.13-8.54,3.52"/>
      </g>
      <g id="Grupo_7809" data-name="Grupo 7809">
        <g id="Grupo_7807" data-name="Grupo 7807">
          <g id="Layer2_9_FILL" data-name="Layer2 9 FILL">
            <path id="Caminho_10072" data-name="Caminho 10072" class="cls-10" d="M187.96,41.52v-1.18h-113.04v1.18h113.04Z"/>
          </g>
          <g id="Grupo_7804" data-name="Grupo 7804" class="cls-11">
            <path id="Caminho_10073" data-name="Caminho 10073" class="cls-3" d="M85.34,48.71c-.13.24-.33.42-.58.53-.26.12-.55.18-.84.18-.32,0-.63-.09-.88-.29-.24-.2-.38-.5-.38-.81-.03-.35.11-.69.38-.91.28-.23.63-.34.99-.33.43-.01.85.09,1.23.3v-.44c0-.17-.06-.34-.19-.46-.12-.12-.27-.2-.43-.24-.17-.04-.34-.06-.51-.06-.38-.01-.76.08-1.09.26l-.1-.46c.4-.19.84-.28,1.28-.27.4-.02.79.09,1.13.3.31.22.47.58.43.95v1.77s0,.06.01.09c0,.02.01.05.02.07,0,.03.02.06.03.06s.03.02.05.04c.02.02.04.03.07.03.03,0,.07,0,.1,0,.04,0,.08,0,.12,0v.38c-.22.06-.46.04-.67-.06-.14-.09-.2-.29-.2-.61l.03-.02ZM85.26,48.14v-.34c-.35-.19-.73-.29-1.13-.29-.23,0-.45.06-.64.2-.18.13-.27.35-.25.57,0,.19.08.37.24.48.16.11.35.16.55.16.27,0,.53-.07.77-.2.23-.11.4-.32.45-.57h.01Z"/>
            <path id="Caminho_10074" data-name="Caminho 10074" class="cls-3" d="M88.94,48.35h.56c0,.21.13.39.32.48.44.22.96.21,1.4,0,.19-.09.3-.27.31-.48.01-.17-.07-.32-.22-.4-.25-.1-.51-.17-.78-.2-.17-.02-.31-.04-.43-.06-.13-.03-.26-.06-.39-.1-.12-.04-.24-.1-.35-.17-.09-.07-.17-.16-.23-.26-.06-.12-.1-.25-.1-.38-.02-.32.15-.63.43-.79.32-.19.69-.28,1.06-.27.37,0,.74.08,1.06.27.28.15.45.44.43.76h-.56c0-.18-.11-.34-.27-.42-.2-.1-.43-.15-.66-.14-.23,0-.46.05-.67.15-.17.08-.28.25-.27.44,0,.15.09.29.23.35.25.09.51.16.77.19.17.02.3.04.38.05s.2.04.34.07c.12.02.23.06.33.12.08.05.16.11.24.18.08.07.14.16.18.26.04.12.05.24.04.36,0,.33-.16.64-.45.81-.69.39-1.52.4-2.22.04-.3-.17-.49-.49-.49-.84h.01Z"/>
            <path id="Caminho_10075" data-name="Caminho 10075" class="cls-3" d="M95.82,46.37c.27-.46.78-.72,1.31-.69.46-.02.9.18,1.19.53.3.38.45.85.43,1.33,0,.36-.09.71-.27,1.02-.16.28-.4.5-.68.65-.29.14-.6.2-.92.17-.35-.03-.69-.15-.98-.35v2.17h-.58v-4.23c.01-.2,0-.4-.04-.59-.05-.14-.18-.2-.39-.18v-.43c.23-.06.47-.04.69.06.18.12.27.33.23.54h0ZM95.89,47.39v1.11c.29.24.64.37,1.01.39.33.02.66-.11.89-.35.25-.27.38-.63.36-1,.01-.34-.09-.68-.29-.96-.2-.26-.52-.4-.85-.38-.31,0-.6.12-.8.35-.21.23-.33.53-.33.84h.01Z"/>
            <path id="Caminho_10076" data-name="Caminho 10076" class="cls-3" d="M103.49,45.69c.5-.04.99.15,1.32.52.29.41.39.92.27,1.41h-2.85c-.03.37.11.73.39.97.29.25.66.38,1.04.36.42,0,.83-.1,1.21-.26l.09.44c-.41.2-.86.3-1.32.3-.54.02-1.07-.17-1.46-.54-.38-.38-.57-.9-.53-1.43,0-.49.19-.96.55-1.3.35-.32.81-.49,1.29-.48h0ZM103.49,46.15c-.3-.01-.59.09-.83.27-.23.19-.37.46-.41.75h2.33c.04-.28-.07-.57-.28-.76-.23-.19-.52-.28-.82-.27h.01Z"/>
            <path id="Caminho_10077" data-name="Caminho 10077" class="cls-3" d="M111.56,46.87h-.56c-.09-.21-.24-.38-.43-.49-.2-.11-.42-.17-.65-.17-.35,0-.68.12-.94.36-.27.25-.42.62-.4.99-.02.37.12.73.39.99.25.23.57.36.91.36.24,0,.48-.06.68-.19.21-.13.37-.33.45-.56h.57c-.09.38-.31.72-.64.94-.31.22-.69.33-1.07.33-.49.01-.96-.16-1.32-.49-.38-.35-.59-.85-.56-1.37-.03-.52.18-1.03.57-1.38.37-.32.84-.5,1.33-.49.37,0,.73.11,1.03.31.31.2.53.51.62.87h.02Z"/>
            <path id="Caminho_10078" data-name="Caminho 10078" class="cls-3" d="M115.63,44.67v1.12h1.32v.42h-1.32v1.75c-.05.35.1.69.39.89.33.15.72.14,1.04-.03l.07.47c-.35.11-.72.16-1.09.14-.29-.02-.56-.18-.72-.42-.19-.31-.28-.67-.26-1.03v-1.77l-.77-.04v-.39h.8l.06-1.12h.48,0Z"/>
            <path id="Caminho_10079" data-name="Caminho 10079" class="cls-3" d="M123.58,47.56c0,.28-.05.55-.16.81-.1.23-.24.43-.43.59-.18.15-.38.27-.6.35-.45.16-.95.16-1.4,0-.22-.08-.42-.2-.6-.35-.19-.16-.33-.36-.43-.58-.11-.26-.17-.53-.16-.81,0-.28.05-.56.16-.82.1-.23.24-.43.43-.59.18-.15.38-.27.6-.35.45-.16.95-.16,1.4,0,.22.08.42.2.6.35.19.16.34.36.43.59.11.26.17.54.16.82h0ZM120.59,46.8c-.25.47-.25,1.05,0,1.52.11.2.28.36.48.46.2.1.41.15.63.14.22,0,.43-.05.63-.14.2-.11.36-.27.48-.46.25-.47.25-1.05,0-1.52-.11-.2-.28-.36-.48-.46-.2-.09-.41-.14-.63-.14-.22,0-.43.05-.63.14-.2.1-.37.26-.48.46Z"/>
            <path id="Caminho_10080" data-name="Caminho 10080" class="cls-3" d="M126.44,48.35h.56c0,.21.13.39.32.48.22.11.46.16.7.16.24,0,.48-.06.7-.17.19-.09.3-.27.31-.48.01-.17-.07-.32-.22-.4-.25-.1-.51-.17-.78-.2-.17-.02-.31-.04-.43-.06-.13-.03-.26-.06-.39-.1-.12-.04-.24-.1-.35-.17-.09-.07-.17-.16-.23-.26-.07-.11-.1-.25-.1-.38-.02-.32.15-.63.43-.79.32-.19.69-.28,1.06-.27.37,0,.74.08,1.06.27.28.15.45.44.43.76h-.56c0-.18-.11-.34-.27-.42-.2-.1-.43-.15-.66-.14-.23,0-.46.05-.67.15-.17.08-.28.25-.27.44,0,.15.09.29.23.35.25.09.51.16.77.19.17.02.3.04.38.05s.2.04.34.07c.12.02.23.06.33.12.08.05.16.11.24.18.08.07.14.16.18.26.04.12.05.24.04.36,0,.33-.16.64-.45.81-.69.39-1.52.4-2.22.04-.3-.17-.49-.49-.49-.84h.01Z"/>
            <path id="Caminho_10081" data-name="Caminho 10081" class="cls-3" d="M140.2,46.87h-.56c-.09-.21-.24-.38-.43-.49-.2-.11-.42-.17-.65-.17-.35,0-.68.12-.94.36-.27.25-.42.62-.4.99-.02.37.12.73.39.99.25.23.57.36.91.36.24,0,.48-.06.68-.19.21-.13.37-.33.45-.56h.57c-.09.38-.31.72-.64.94-.31.22-.69.33-1.07.33-.49.01-.96-.16-1.32-.49-.38-.35-.59-.85-.56-1.37-.03-.52.18-1.03.57-1.38.37-.32.84-.5,1.33-.49.37,0,.73.11,1.03.31.31.2.53.51.62.87h.02Z"/>
            <path id="Caminho_10082" data-name="Caminho 10082" class="cls-3" d="M143.28,43.91h.59v4.16c-.03.26.03.52.18.73.21.14.47.18.72.12l.02.46c-.39.12-.82.05-1.16-.17-.27-.31-.4-.73-.35-1.14v-4.16h0Z"/>
            <path id="Caminho_10083" data-name="Caminho 10083" class="cls-3" d="M148.06,45.01h-.47v-.04l.53-.94.51.21v.05l-.57.73h0ZM148.19,45.78v3.58h-.59v-3.58h.59Z"/>
            <path id="Caminho_10084" data-name="Caminho 10084" class="cls-3" d="M154.93,49.36h-.59v-2.13c.02-.28-.09-.56-.28-.76-.19-.19-.45-.3-.72-.29-.28,0-.56.1-.77.29-.2.19-.31.46-.3.74v2.15h-.58v-2.56c.02-.17,0-.33-.07-.49-.05-.07-.16-.1-.35-.08v-.46c.09,0,.16-.02.21-.03.07,0,.14,0,.21,0,.07,0,.14,0,.21.03.06.02.11.05.16.09.06.04.11.11.13.18.03.09.04.19.04.28.28-.41.76-.65,1.26-.61.4-.02.79.13,1.06.42.26.31.4.71.38,1.11v2.13Z"/>
            <path id="Caminho_10085" data-name="Caminho 10085" class="cls-3" d="M158.19,44.59c0-.14.06-.26.18-.33.11-.07.26-.07.37,0,.12.06.2.19.19.33,0,.11-.04.21-.12.28-.07.06-.16.1-.25.1-.09,0-.18-.03-.25-.1-.08-.07-.12-.17-.12-.28ZM158.84,45.8v3.55h-.58v-3.55h.58Z"/>
            <path id="Caminho_10086" data-name="Caminho 10086" class="cls-3" d="M165.54,46.87h-.56c-.09-.21-.24-.38-.43-.49-.2-.11-.42-.17-.65-.17-.35,0-.68.12-.94.36-.27.25-.42.62-.4.99-.02.37.12.73.39.99.25.23.57.36.91.36.24,0,.48-.06.68-.19.21-.13.37-.33.45-.56h.57c-.09.38-.31.72-.64.94-.31.22-.69.33-1.07.33-.49.01-.96-.16-1.32-.49-.38-.35-.59-.85-.56-1.37-.03-.52.18-1.03.57-1.38.37-.32.84-.5,1.33-.49.37,0,.73.11,1.03.31.31.2.53.51.62.87h.02Z"/>
            <path id="Caminho_10087" data-name="Caminho 10087" class="cls-3" d="M172.2,47.56c0,.28-.05.55-.16.81-.1.23-.24.43-.43.59-.18.15-.38.27-.6.35-.45.16-.95.16-1.4,0-.22-.08-.42-.2-.6-.35-.19-.16-.33-.36-.43-.58-.11-.26-.17-.53-.16-.81,0-.28.05-.56.16-.82.1-.23.24-.43.43-.59.18-.15.38-.27.6-.35.45-.16.95-.16,1.4,0,.22.08.42.2.6.35.19.16.34.36.43.59.11.26.17.54.16.82h0ZM169.2,46.8c-.25.47-.25,1.05,0,1.52.11.2.28.36.48.46.2.1.41.15.63.14.22,0,.43-.05.63-.14.2-.11.36-.27.48-.46.25-.47.25-1.05,0-1.52-.11-.2-.28-.36-.48-.46-.4-.19-.86-.19-1.26,0-.2.1-.37.26-.48.46Z"/>
            <path id="Caminho_10088" data-name="Caminho 10088" class="cls-3" d="M175.06,48.35h.56c0,.21.13.39.32.48.22.11.46.16.7.16.24,0,.49-.05.7-.17.19-.09.3-.27.31-.48.01-.17-.07-.32-.22-.4-.25-.1-.51-.17-.78-.2-.17-.02-.31-.04-.43-.06-.13-.03-.26-.06-.39-.1-.12-.04-.24-.1-.35-.17-.09-.07-.17-.16-.23-.26-.06-.12-.1-.25-.1-.38-.02-.32.15-.63.43-.79.66-.36,1.46-.36,2.12,0,.28.15.45.44.43.76h-.56c0-.18-.11-.34-.27-.42-.2-.1-.43-.15-.66-.14-.23,0-.46.05-.67.15-.17.08-.28.25-.27.44,0,.15.09.29.23.35.25.09.51.16.77.19.17.02.3.04.38.05s.2.04.34.07c.12.02.23.06.33.12.08.05.16.11.24.18.08.07.14.16.18.26.04.12.05.24.04.36,0,.33-.16.64-.45.81-.69.39-1.52.4-2.22.04-.3-.17-.49-.49-.49-.84h.01Z"/>
          </g>
          <g id="Grupo_7805" data-name="Grupo 7805">
            <path id="Caminho_10089" data-name="Caminho 10089" class="cls-12" d="M83.42,21.94h-1.4c-.14,0-.27-.03-.38-.11-.1-.07-.17-.17-.22-.28l-.46-1.35h-2.95l-.46,1.35c-.05.11-.12.2-.21.27-.11.08-.24.12-.38.12h-1.41l3-7.76h1.84l3,7.76h.03ZM80.56,18.97l-.72-2.13c-.05-.14-.11-.29-.17-.48s-.12-.38-.18-.59c-.05.22-.11.42-.17.6s-.12.34-.17.48l-.71,2.11h2.13-.01Z"/>
            <path id="Caminho_10090" data-name="Caminho 10090" class="cls-12" d="M92.37,15.61h-2.18v6.33h-1.8v-6.33h-2.18v-1.43h6.17v1.43h0Z"/>
            <path id="Caminho_10091" data-name="Caminho 10091" class="cls-12" d="M100.03,20.52c.22,0,.44-.04.65-.12.18-.07.35-.19.48-.34.14-.16.24-.35.3-.55.07-.24.11-.48.1-.73v-4.6h1.8v4.6c0,.45-.07.89-.23,1.31-.29.79-.92,1.41-1.71,1.7-.44.17-.92.25-1.39.24-.48,0-.95-.08-1.4-.24-.39-.15-.75-.38-1.05-.67-.29-.29-.52-.64-.66-1.03-.16-.42-.23-.86-.23-1.31v-4.6h1.8v4.59c0,.25.03.49.1.73.06.2.17.39.3.55.13.15.3.27.48.35.21.08.43.12.65.12h0Z"/>
            <path id="Caminho_10092" data-name="Caminho 10092" class="cls-12" d="M115.05,21.94h-1.4c-.14,0-.27-.03-.38-.11-.1-.07-.17-.17-.22-.28l-.46-1.35h-2.95l-.46,1.35c-.05.11-.12.2-.21.27-.11.08-.24.12-.38.12h-1.41l3-7.76h1.84l3,7.76h.03ZM112.19,18.97l-.72-2.13c-.05-.14-.11-.29-.17-.48s-.12-.38-.18-.59c-.05.22-.11.42-.17.6s-.12.34-.17.48l-.71,2.11h2.13-.01Z"/>
            <path id="Caminho_10093" data-name="Caminho 10093" class="cls-12" d="M123.85,20.5v1.44h-4.68v-7.76h1.8v6.32h2.88Z"/>
            <path id="Caminho_10094" data-name="Caminho 10094" class="cls-12" d="M130.1,21.94h-1.81v-7.76h1.81v7.76Z"/>
            <path id="Caminho_10095" data-name="Caminho 10095" class="cls-12" d="M140.61,14.83c0,.19-.07.37-.18.52l-3.64,5.2h3.7v1.38h-5.99v-.69c0-.08.01-.16.04-.24.03-.08.07-.15.12-.22l3.65-5.22h-3.52v-1.38h5.81v.65h.01Z"/>
            <path id="Caminho_10096" data-name="Caminho 10096" class="cls-12" d="M152.08,21.94h-1.4c-.14,0-.27-.03-.38-.11-.1-.07-.17-.17-.22-.28l-.46-1.35h-2.95l-.46,1.35c-.05.11-.12.2-.21.27-.11.08-.24.12-.38.12h-1.41l3-7.76h1.84l3,7.76h.03ZM149.22,18.97l-.72-2.13c-.05-.14-.11-.29-.17-.48s-.12-.38-.18-.59c-.05.22-.11.42-.17.6s-.12.34-.17.48l-.71,2.11h2.12Z"/>
            <path id="Caminho_10097" data-name="Caminho 10097" class="cls-12" d="M162.14,20.79c-.27.36-.61.64-1.01.84-.44.21-.91.34-1.39.38l-.05.2c.15.03.29.08.42.15.1.05.19.11.27.19.07.06.11.14.14.23.03.08.04.17.04.26,0,.12-.03.24-.1.34-.08.1-.18.19-.29.26-.14.08-.29.13-.45.16-.19.04-.39.06-.58.06-.13,0-.27,0-.4-.02-.12-.01-.25-.04-.39-.06l.15-.5c0-.09.09-.15.18-.14,0,0,0,0,0,0,.05,0,.1,0,.15.02.06.02.13.02.19.02.07,0,.14-.01.2-.05.04-.02.06-.07.06-.11,0-.08-.05-.14-.16-.17-.18-.05-.36-.09-.55-.11l.24-.71c-.48-.04-.95-.18-1.38-.41-.4-.21-.75-.5-1.03-.85-.29-.36-.51-.76-.65-1.2-.15-.48-.23-.98-.22-1.48,0-.55.09-1.09.28-1.6.18-.46.45-.89.79-1.25.35-.35.77-.63,1.23-.82.5-.2,1.03-.3,1.57-.29.28,0,.55.03.82.08.25.05.49.12.72.21.22.09.43.2.62.33.18.12.35.26.5.42l-.61.81s-.09.1-.14.14c-.06.04-.14.06-.22.06-.06,0-.12-.01-.18-.04-.06-.03-.12-.06-.18-.1-.07-.05-.14-.09-.21-.13-.09-.05-.18-.09-.27-.13-.12-.05-.24-.08-.37-.1-.16-.03-.33-.04-.49-.04-.28,0-.56.06-.82.17-.25.11-.47.27-.64.48-.19.23-.33.49-.42.78-.1.34-.16.69-.15,1.05,0,.36.05.72.16,1.06.1.28.25.55.44.78.18.2.4.37.65.48.25.11.52.17.8.17.15,0,.3,0,.45-.02.13-.02.26-.04.38-.08.12-.04.23-.09.33-.15.11-.07.22-.15.31-.24.04-.04.09-.07.14-.09.05-.02.1-.03.15-.03.04,0,.09,0,.13.02.04.02.08.05.12.08l.71.75v-.06Z"/>
            <path id="Caminho_10098" data-name="Caminho 10098" class="cls-12" d="M173.41,21.94h-1.4c-.14,0-.27-.03-.38-.11-.1-.07-.17-.17-.22-.28l-.46-1.35h-2.95l-.46,1.35c-.05.11-.12.2-.21.27-.11.08-.24.12-.38.12h-1.41l3-7.76h1.84l3,7.76h.03ZM170.14,12.73c.07,0,.14-.02.2-.05.05-.03.1-.07.13-.12.03-.05.06-.1.07-.15.02-.05.02-.11.02-.16h1c0,.19-.03.38-.08.56-.05.17-.13.33-.23.48-.1.14-.23.25-.38.34-.16.09-.35.13-.53.13-.17,0-.35-.02-.51-.08-.13-.05-.25-.11-.37-.18-.11-.07-.21-.13-.3-.18-.08-.05-.17-.08-.27-.08-.07,0-.14.02-.2.05-.05.03-.1.07-.13.12-.03.05-.06.1-.07.16-.01.05-.02.11-.02.16h-1.01c0-.19.03-.38.08-.56.05-.17.13-.34.24-.48.1-.14.23-.26.38-.34.16-.09.34-.13.52-.13.17,0,.35.03.51.08.13.04.25.1.37.18.11.07.2.13.29.18.08.05.17.08.27.08h.02ZM170.55,18.97l-.72-2.13c-.05-.14-.11-.29-.17-.48s-.12-.38-.18-.59c-.05.22-.11.42-.17.6s-.12.34-.17.48l-.71,2.11h2.12Z"/>
            <path id="Caminho_10099" data-name="Caminho 10099" class="cls-12" d="M184.9,18.06c0,.54-.1,1.07-.29,1.57-.19.47-.47.9-.82,1.26-.36.36-.79.65-1.27.84-1.06.4-2.24.4-3.3,0-.48-.19-.92-.47-1.28-.84-.35-.36-.63-.79-.82-1.26-.39-1.01-.39-2.13,0-3.14.38-.96,1.14-1.72,2.1-2.1.53-.2,1.09-.31,1.65-.3.57,0,1.13.1,1.65.31.48.19.91.47,1.27.84.35.36.63.79.82,1.26.19.5.29,1.03.29,1.56ZM183.06,18.06c0-.35-.05-.7-.15-1.04-.09-.29-.23-.55-.43-.78-.19-.21-.42-.38-.68-.49-.29-.12-.61-.17-.92-.17-.32,0-.63.05-.93.17-.26.11-.5.28-.69.49-.2.23-.34.49-.43.78-.2.68-.2,1.4,0,2.08.09.29.23.55.43.78.19.21.43.38.69.49.3.12.61.17.93.17.31,0,.63-.05.92-.17.26-.1.5-.27.68-.49.2-.23.34-.49.43-.78.1-.34.16-.69.15-1.04Z"/>
          </g>
          <g id="Grupo_7806" data-name="Grupo 7806" class="cls-11">
            <path id="Caminho_10100" data-name="Caminho 10100" class="cls-1" d="M77.4,28.85v1.86h2.5v1.37h-2.5v1.9h3.27v1.42h-5.13v-7.96h5.13v1.42h-3.27Z"/>
            <path id="Caminho_10101" data-name="Caminho 10101" class="cls-1" d="M92.39,27.43v7.96h-1.63v-4.92c0-.12.02-.25.03-.38l-2.12,4.09c-.06.12-.15.22-.27.29-.11.07-.25.1-.38.1h-.25c-.13,0-.27-.03-.38-.1-.11-.07-.21-.17-.27-.29l-2.12-4.11.03.39c.01.13.01.24.01.35v4.58h-1.63v-7.96h1.62c.05,0,.11,0,.16.03.05.02.09.05.13.08.05.05.08.1.11.16l2.05,4.04c.07.14.14.28.21.43s.13.3.19.46c.06-.16.13-.32.19-.47.06-.15.14-.3.22-.44l2.04-4.02c.03-.06.07-.11.11-.16.03-.04.08-.07.13-.08.05-.02.11-.03.16-.03h1.66Z"/>
            <path id="Caminho_10102" data-name="Caminho 10102" class="cls-1" d="M101.6,28.85v2.02h2.72v1.43h-2.72v3.1h-1.86v-7.96h5.13v1.42h-3.27Z"/>
            <path id="Caminho_10103" data-name="Caminho 10103" class="cls-1" d="M109.43,35.39h-1.86v-7.96h1.86v7.96Z"/>
            <path id="Caminho_10104" data-name="Caminho 10104" class="cls-1" d="M118.34,28.89h-2.24v6.5h-1.85v-6.5h-2.24v-1.46h6.33v1.46Z"/>
            <path id="Caminho_10105" data-name="Caminho 10105" class="cls-1" d="M128.54,31.41c0,.55-.1,1.1-.3,1.61-.19.48-.47.92-.84,1.29-.37.37-.81.66-1.3.86-1.09.41-2.29.41-3.38,0-.49-.19-.94-.49-1.31-.86-.36-.37-.65-.81-.84-1.29-.4-1.04-.4-2.18,0-3.22.19-.48.47-.92.84-1.29.38-.37.82-.66,1.31-.86,1.09-.41,2.29-.41,3.38,0,.49.2.93.49,1.3.86.37.37.65.81.84,1.29.2.51.3,1.05.3,1.6h0ZM126.65,31.41c0-.36-.05-.72-.15-1.06-.09-.29-.24-.57-.44-.8-.19-.22-.43-.39-.7-.5-.3-.12-.63-.18-.95-.17-.32,0-.65.05-.95.17-.27.11-.51.28-.71.5-.2.23-.35.51-.44.8-.1.34-.15.7-.15,1.06,0,.36.05.72.15,1.07.09.29.24.57.44.8.19.22.44.39.71.5.61.23,1.29.23,1.9,0,.27-.11.51-.28.7-.5.2-.23.35-.51.44-.8.11-.35.16-.71.15-1.07Z"/>
            <path id="Caminho_10106" data-name="Caminho 10106" class="cls-1" d="M136.8,28.89h-2.24v6.5h-1.85v-6.5h-2.24v-1.46h6.33v1.46h0Z"/>
            <path id="Caminho_10107" data-name="Caminho 10107" class="cls-1" d="M141.24,28.85v1.86h2.5v1.37h-2.5v1.9h3.27v1.42h-5.13v-7.96h5.13v1.42h-3.27Z"/>
            <path id="Caminho_10108" data-name="Caminho 10108" class="cls-1" d="M153.8,35.39h-1.67c-.27.02-.53-.12-.67-.35l-1.32-2.31c-.05-.09-.12-.16-.21-.22-.1-.05-.22-.08-.33-.07h-.47v2.95h-1.85v-7.96h2.59c.5-.01.99.05,1.47.18.36.09.7.26.99.49.25.2.44.46.56.75.12.3.18.62.18.94,0,.25-.03.49-.1.73-.14.46-.42.87-.81,1.16-.21.16-.44.29-.69.38.12.06.24.14.34.23.11.09.21.21.28.33l1.69,2.77h.02ZM149.87,31.17c.22,0,.43-.03.64-.1.16-.05.31-.14.43-.27.11-.12.19-.25.25-.4.05-.16.08-.32.08-.49.02-.31-.11-.61-.34-.82-.31-.22-.68-.33-1.06-.3h-.74v2.36h.74v.02Z"/>
            <path id="Caminho_10109" data-name="Caminho 10109" class="cls-1" d="M163.25,35.39h-1.43c-.14,0-.27-.03-.39-.11-.1-.07-.18-.17-.22-.29l-.47-1.39h-3.03l-.47,1.39c-.05.11-.12.21-.22.28-.11.08-.25.13-.39.12h-1.44l3.08-7.96h1.89l3.08,7.96h0ZM160.32,32.35l-.74-2.18c-.05-.14-.11-.3-.17-.49s-.12-.39-.19-.61c-.05.21-.11.42-.18.62-.07.19-.12.35-.17.49l-.73,2.17h2.18Z"/>
            <path id="Caminho_10110" data-name="Caminho 10110" class="cls-1" d="M168.33,27.43c.49,0,.98.06,1.45.2.36.11.7.3.99.55.26.23.45.51.58.83.13.33.19.68.19,1.03,0,.37-.06.74-.19,1.09-.12.33-.32.62-.58.85-.29.26-.63.44-1,.55-.46.14-.95.21-1.43.2h-.96v2.66h-1.85v-7.96h2.81,0ZM168.33,31.34c.38.04.76-.09,1.04-.34.23-.27.34-.61.32-.96,0-.17-.03-.34-.08-.5-.05-.15-.14-.28-.25-.39-.12-.11-.26-.2-.42-.25-.19-.06-.4-.09-.6-.09h-.96v2.53h.96,0Z"/>
            <path id="Caminho_10111" data-name="Caminho 10111" class="cls-1" d="M175.97,35.39h-1.86v-7.96h1.86v7.96Z"/>
            <path id="Caminho_10112" data-name="Caminho 10112" class="cls-1" d="M186.3,35.39h-1.43c-.14,0-.27-.03-.39-.11-.1-.07-.18-.17-.22-.29l-.47-1.39h-3.03l-.47,1.39c-.05.11-.12.21-.22.28-.11.08-.25.13-.39.12h-1.44l3.08-7.96h1.89l3.08,7.96h0ZM183.36,32.35l-.74-2.18c-.05-.14-.11-.3-.17-.49s-.12-.39-.19-.61c-.05.22-.11.43-.17.62s-.12.35-.18.49l-.73,2.17h2.18Z"/>
          </g>
        </g>
        <g id="Grupo_7808" data-name="Grupo 7808">
          <g id="Layer0_1_MEMBER_0_FILL" data-name="Layer0 1 MEMBER 0 FILL">
            <path id="Caminho_10113" data-name="Caminho 10113" class="cls-10" d="M38.92,25.34h1.44l.89-2.01,9.5,24.58h-3.55v1.49h13.65v-1.49h-3.03l-14.3-33.95-4.6,11.38Z"/>
          </g>
          <g id="Layer0_1_MEMBER_1_FILL" data-name="Layer0 1 MEMBER 1 FILL">
            <path id="Caminho_10114" data-name="Caminho 10114" class="cls-12" d="M30.92,50.28c4.9-.42,9.37-2.99,12.19-7.02,2.4-3.92,3.42-8.52,2.9-13.08-.13.03-.25.05-.38.06l-14.71,20.04Z"/>
            <path id="Caminho_10115" data-name="Caminho 10115" class="cls-2" d="M34.28,36.62c-3.08,3.83-4.31,8.83-3.36,13.66l14.71-20.04c-4.37.84-8.36,3.08-11.35,6.38Z"/>
          </g>
          <g id="Layer0_1_MEMBER_2_FILL" data-name="Layer0 1 MEMBER 2 FILL">
            <path id="Caminho_10116" data-name="Caminho 10116" class="cls-1" d="M64.11,24.55h-1.55v1.74c-.27,1.97-1.95,3.44-3.94,3.46h-5.49l.76,1.79h4.74c1.05-.02,2.07.4,2.8,1.16.63.61,1.03,1.43,1.14,2.3v1.74h1.55v-12.19M46.22,13.18v.15l.89,2.13h12.97c3.2,0,5.8,2.59,5.81,5.79,0,0,0,.01,0,.02v1.69h2.32v-9.79h-21.99Z"/>
          </g>
        </g>
      </g>
    </g>
    <g id="Introdução_à_Fitoterapia" data-name="Introdução à Fitoterapia" class="cls-11">
      <g class="cls-11">
        <path class="cls-4" d="M671.02,33h-1.89v-10.12h1.89v10.12Z"/>
        <path class="cls-4" d="M674.52,26.7c.14-.14.3-.28.46-.4.16-.12.33-.23.51-.32.18-.09.37-.15.58-.2.21-.05.43-.07.67-.07.39,0,.74.07,1.04.2.3.13.56.32.76.56.2.24.36.53.46.86.11.33.16.7.16,1.1v4.57h-1.73v-4.57c0-.44-.1-.78-.3-1.02-.2-.24-.51-.36-.92-.36-.3,0-.58.07-.84.2-.26.14-.51.32-.74.55v5.19h-1.73v-7.18h1.06c.22,0,.37.1.44.31l.12.57Z"/>
        <path class="cls-4" d="M683.09,33.11c-.62,0-1.1-.18-1.44-.53-.33-.35-.5-.84-.5-1.46v-4.01h-.74c-.09,0-.17-.03-.24-.09-.06-.06-.1-.15-.1-.27v-.69l1.16-.19.36-1.96c.02-.09.07-.17.13-.22.06-.05.15-.08.25-.08h.9v2.26h1.92v1.23h-1.92v3.89c0,.22.05.4.16.53s.26.19.45.19c.11,0,.2-.01.27-.04s.13-.05.19-.08c.05-.03.1-.05.14-.08.04-.03.08-.04.13-.04.05,0,.09.01.12.04.03.03.07.06.11.12l.52.84c-.25.21-.54.37-.87.48s-.67.16-1.02.16Z"/>
        <path class="cls-4" d="M687.54,27.06c.22-.43.49-.77.8-1.01.31-.25.67-.37,1.09-.37.33,0,.6.07.8.22l-.11,1.29c-.02.08-.06.14-.1.18-.04.03-.1.05-.18.05-.07,0-.17-.01-.31-.04-.14-.02-.27-.03-.4-.03-.19,0-.36.03-.51.08-.15.06-.28.14-.4.24-.12.1-.22.23-.31.38-.09.15-.18.32-.26.51v4.42h-1.73v-7.18h1.02c.18,0,.3.03.37.09.07.06.12.18.14.34l.11.81Z"/>
        <path class="cls-4" d="M694.1,25.71c.53,0,1.02.09,1.45.26.44.17.81.42,1.12.74s.55.7.72,1.16c.17.46.25.97.25,1.53s-.08,1.08-.25,1.54c-.17.46-.41.85-.72,1.17-.31.32-.68.57-1.12.74-.44.17-.92.26-1.45.26s-1.03-.09-1.46-.26c-.44-.17-.81-.42-1.12-.74-.31-.32-.55-.71-.72-1.17-.17-.46-.25-.97-.25-1.54s.08-1.08.25-1.53c.17-.46.41-.84.72-1.16.31-.32.69-.56,1.12-.74s.93-.26,1.46-.26ZM694.1,31.78c.6,0,1.04-.2,1.33-.6s.43-.99.43-1.76-.14-1.37-.43-1.77c-.29-.41-.73-.61-1.33-.61s-1.06.2-1.35.61c-.29.41-.44,1-.44,1.77s.14,1.36.44,1.76c.29.4.74.61,1.35.61Z"/>
        <path class="cls-4" d="M705.21,22.6v10.4h-1.06c-.23,0-.37-.11-.43-.32l-.15-.69c-.29.33-.62.6-1,.8s-.81.31-1.31.31c-.39,0-.75-.08-1.08-.25-.33-.16-.61-.4-.84-.71-.24-.31-.42-.69-.55-1.15s-.19-.98-.19-1.57c0-.53.07-1.03.22-1.48.14-.46.35-.85.62-1.19.27-.34.59-.6.97-.79.38-.19.8-.28,1.27-.28.4,0,.74.06,1.03.19s.54.3.76.51v-3.79h1.73ZM703.48,27.65c-.2-.24-.41-.41-.64-.5-.23-.1-.48-.15-.75-.15s-.5.05-.71.15c-.21.1-.39.25-.54.44s-.26.45-.34.76-.12.67-.12,1.08.03.78.1,1.07c.07.29.17.53.29.71.13.18.28.32.46.4.18.08.38.12.61.12.36,0,.67-.08.92-.22s.49-.36.71-.64v-3.22Z"/>
        <path class="cls-4" d="M713.1,25.82v7.18h-1.06c-.23,0-.37-.11-.43-.32l-.12-.57c-.29.3-.62.54-.97.72-.35.18-.77.28-1.25.28-.39,0-.74-.07-1.04-.2-.3-.13-.55-.32-.76-.56-.21-.24-.36-.53-.47-.86-.11-.33-.16-.7-.16-1.1v-4.56h1.73v4.56c0,.44.1.78.3,1.02s.51.36.91.36c.3,0,.58-.07.84-.2.26-.13.51-.32.74-.55v-5.19h1.73Z"/>
        <path class="cls-4" d="M720.48,31.93c-.32.37-.68.65-1.07.82-.4.17-.81.28-1.24.33l-.09.35c.44.1.75.24.92.42s.26.38.26.63c0,.16-.04.3-.12.43-.08.13-.2.23-.35.32s-.33.16-.54.2-.44.07-.69.07c-.19,0-.37-.01-.54-.04-.17-.03-.33-.06-.49-.12l.15-.54c.03-.11.1-.16.2-.16.07,0,.14.02.22.05s.19.05.34.05.27-.03.35-.09.12-.13.12-.21c0-.14-.08-.23-.25-.29s-.43-.11-.78-.16l.31-.92c-.39-.06-.76-.18-1.09-.37-.34-.19-.63-.44-.88-.75-.25-.31-.44-.68-.58-1.11-.14-.43-.21-.91-.21-1.45s.08-1.02.23-1.47c.15-.45.38-.84.67-1.17.29-.33.66-.59,1.09-.77.43-.19.93-.28,1.5-.28.54,0,1.01.09,1.41.26.4.17.77.42,1.09.74l-.46.63c-.05.07-.1.12-.15.15s-.12.06-.21.06c-.09,0-.18-.03-.26-.08s-.18-.11-.3-.18c-.12-.07-.26-.13-.42-.18-.16-.05-.36-.08-.6-.08-.3,0-.57.05-.8.16s-.42.27-.57.47c-.15.21-.27.45-.34.75-.07.29-.11.62-.11.99s.04.72.12,1.02c.08.3.2.55.35.75.15.2.34.36.56.46.22.1.47.16.74.16s.5-.03.67-.1c.17-.07.31-.14.43-.22.12-.08.22-.16.3-.22.09-.07.18-.1.29-.1.14,0,.25.05.32.16l.5.63Z"/>
        <path class="cls-4" d="M721.4,26.82c.83-.76,1.82-1.13,2.98-1.13.42,0,.79.07,1.13.21.33.14.61.33.84.57s.4.54.52.88.18.71.18,1.12v4.54h-.78c-.16,0-.29-.02-.38-.07-.09-.05-.16-.15-.21-.3l-.15-.52c-.18.16-.36.31-.53.43-.17.12-.35.23-.54.31s-.39.15-.6.19c-.21.04-.45.07-.7.07-.3,0-.58-.04-.84-.12-.26-.08-.48-.2-.67-.37s-.33-.37-.43-.61c-.1-.24-.15-.52-.15-.85,0-.18.03-.36.09-.54.06-.18.16-.35.3-.51.14-.16.32-.32.54-.46.22-.15.49-.27.81-.38.32-.11.69-.19,1.12-.26.42-.07.91-.11,1.46-.12v-.42c0-.48-.1-.84-.31-1.07s-.5-.35-.89-.35c-.28,0-.51.03-.7.1-.18.07-.35.14-.49.22-.14.08-.27.16-.38.22-.12.07-.24.1-.38.1-.12,0-.22-.03-.31-.09-.08-.06-.15-.14-.2-.22l-.31-.55ZM724.97,23.49c.14,0,.25-.04.33-.12.08-.08.12-.22.12-.42h1.05c0,.26-.04.5-.11.71-.07.21-.17.39-.3.55-.13.15-.28.27-.45.35-.18.08-.37.12-.58.12-.17,0-.32-.03-.47-.09s-.28-.13-.41-.2c-.13-.07-.24-.14-.35-.2s-.21-.09-.3-.09c-.13,0-.24.04-.32.12-.08.08-.12.22-.12.42h-1.07c0-.26.04-.5.11-.71.07-.21.17-.39.3-.55s.28-.27.46-.35c.17-.08.37-.13.57-.13.17,0,.33.03.47.09.15.06.28.13.41.2.13.07.24.13.35.2.11.06.21.09.3.09ZM725.36,29.93c-.5.02-.92.07-1.26.13-.34.06-.61.14-.82.24-.21.1-.35.21-.44.34-.09.13-.13.27-.13.43,0,.3.09.52.27.65.18.13.41.2.7.2.36,0,.66-.06.92-.19.26-.13.51-.32.76-.58v-1.21Z"/>
        <path class="cls-4" d="M731.85,25.71c.53,0,1.02.09,1.45.26s.81.42,1.12.74.55.7.72,1.16c.17.46.25.97.25,1.53s-.08,1.08-.25,1.54c-.17.46-.41.85-.72,1.17-.31.32-.68.57-1.12.74-.44.17-.92.26-1.45.26s-1.02-.09-1.46-.26c-.44-.17-.81-.42-1.12-.74-.31-.32-.55-.71-.72-1.17-.17-.46-.25-.97-.25-1.54s.08-1.08.25-1.53c.17-.46.41-.84.72-1.16.31-.32.68-.56,1.12-.74.44-.17.93-.26,1.46-.26ZM731.85,31.78c.6,0,1.04-.2,1.33-.6s.43-.99.43-1.76-.14-1.37-.43-1.77c-.29-.41-.73-.61-1.33-.61s-1.06.2-1.35.61c-.29.41-.44,1-.44,1.77s.15,1.36.44,1.76c.29.4.74.61,1.35.61Z"/>
        <path class="cls-4" d="M739.95,26.82c.83-.76,1.82-1.13,2.98-1.13.42,0,.8.07,1.13.21.33.14.61.33.84.57.23.25.4.54.52.88.12.34.18.71.18,1.12v4.54h-.79c-.16,0-.29-.02-.38-.07-.09-.05-.16-.15-.21-.3l-.15-.52c-.18.16-.36.31-.53.43-.17.12-.35.23-.54.31-.19.08-.39.15-.6.19-.21.04-.45.07-.7.07-.3,0-.58-.04-.84-.12-.26-.08-.48-.2-.67-.37-.19-.16-.33-.37-.43-.61-.1-.24-.15-.52-.15-.85,0-.18.03-.36.09-.54.06-.18.16-.35.3-.51.14-.16.32-.32.54-.46.22-.15.49-.27.81-.38.32-.11.69-.19,1.12-.26.42-.07.91-.11,1.46-.12v-.42c0-.48-.1-.84-.31-1.07-.21-.23-.5-.35-.89-.35-.28,0-.51.03-.7.1s-.35.14-.49.22c-.14.08-.27.16-.38.22-.11.07-.24.1-.38.1-.12,0-.22-.03-.31-.09-.08-.06-.15-.14-.2-.22l-.31-.55ZM742.15,22.77c.19,0,.33.03.43.09.09.06.17.16.24.28l1,1.7h-.99c-.13,0-.24-.02-.32-.05-.08-.03-.17-.1-.25-.19l-1.73-1.83h1.62ZM743.91,29.93c-.5.02-.92.07-1.26.13-.34.06-.61.14-.82.24-.21.1-.35.21-.44.34-.09.13-.13.27-.13.43,0,.3.09.52.27.65.18.13.41.2.7.2.35,0,.66-.06.92-.19.26-.13.51-.32.76-.58v-1.21Z"/>
        <path class="cls-4" d="M752.79,24.38v3h3.79v1.5h-3.79v4.12h-1.89v-10.12h6.38v1.5h-4.49Z"/>
        <path class="cls-4" d="M760.57,23.72c0,.15-.03.29-.09.42-.06.13-.14.25-.24.34-.1.1-.22.18-.35.23-.13.06-.28.09-.43.09s-.29-.03-.42-.09-.25-.14-.35-.23-.18-.21-.24-.34c-.06-.13-.09-.27-.09-.42s.03-.3.09-.43c.06-.14.14-.25.24-.35.1-.1.21-.18.35-.24.13-.06.27-.09.42-.09s.3.03.43.09c.14.06.25.14.35.24.1.1.18.21.24.35s.09.28.09.43ZM760.33,25.82v7.18h-1.74v-7.18h1.74Z"/>
        <path class="cls-4" d="M764.49,33.11c-.62,0-1.1-.18-1.44-.53-.33-.35-.5-.84-.5-1.46v-4.01h-.74c-.09,0-.17-.03-.24-.09-.06-.06-.1-.15-.1-.27v-.69l1.16-.19.36-1.96c.02-.09.07-.17.13-.22.06-.05.15-.08.25-.08h.9v2.26h1.92v1.23h-1.92v3.89c0,.22.05.4.16.53s.26.19.45.19c.11,0,.2-.01.27-.04s.13-.05.19-.08c.05-.03.1-.05.14-.08.04-.03.08-.04.13-.04.05,0,.09.01.12.04.03.03.07.06.11.12l.52.84c-.25.21-.54.37-.87.48s-.67.16-1.02.16Z"/>
        <path class="cls-4" d="M770.42,25.71c.53,0,1.02.09,1.45.26.44.17.81.42,1.12.74s.55.7.72,1.16c.17.46.25.97.25,1.53s-.08,1.08-.25,1.54c-.17.46-.41.85-.72,1.17-.31.32-.68.57-1.12.74-.44.17-.92.26-1.45.26s-1.03-.09-1.46-.26c-.44-.17-.81-.42-1.12-.74-.31-.32-.55-.71-.72-1.17-.17-.46-.25-.97-.25-1.54s.08-1.08.25-1.53c.17-.46.41-.84.72-1.16.31-.32.69-.56,1.12-.74s.93-.26,1.46-.26ZM770.42,31.78c.6,0,1.04-.2,1.33-.6s.43-.99.43-1.76-.14-1.37-.43-1.77c-.29-.41-.73-.61-1.33-.61s-1.06.2-1.35.61c-.29.41-.44,1-.44,1.77s.14,1.36.44,1.76c.29.4.74.61,1.35.61Z"/>
        <path class="cls-4" d="M777.54,33.11c-.63,0-1.1-.18-1.44-.53-.33-.35-.5-.84-.5-1.46v-4.01h-.74c-.09,0-.17-.03-.24-.09-.07-.06-.1-.15-.1-.27v-.69l1.16-.19.36-1.96c.02-.09.07-.17.13-.22.07-.05.15-.08.25-.08h.9v2.26h1.92v1.23h-1.92v3.89c0,.22.05.4.16.53s.26.19.45.19c.11,0,.2-.01.27-.04s.14-.05.19-.08c.05-.03.1-.05.14-.08s.08-.04.13-.04c.05,0,.09.01.13.04s.07.06.1.12l.52.84c-.25.21-.54.37-.87.48s-.66.16-1.01.16Z"/>
        <path class="cls-4" d="M781.63,29.63c.03.37.09.69.2.96.1.27.24.49.41.67.17.18.37.31.6.39.23.09.49.13.77.13s.52-.03.72-.1.38-.14.53-.22c.15-.08.28-.15.4-.22.12-.07.23-.1.33-.1.14,0,.25.05.32.16l.5.63c-.19.22-.41.41-.64.56-.24.15-.49.27-.75.36-.26.09-.52.16-.79.19-.27.04-.53.06-.78.06-.5,0-.96-.08-1.39-.25s-.8-.41-1.12-.74c-.32-.32-.57-.73-.75-1.2-.18-.48-.27-1.03-.27-1.66,0-.49.08-.95.24-1.38.16-.43.38-.81.68-1.13.3-.32.66-.57,1.08-.76s.91-.28,1.45-.28c.45,0,.87.07,1.25.22s.71.36.99.63.49.62.65,1.02c.16.4.23.87.23,1.38,0,.26-.03.44-.08.53-.06.09-.16.14-.32.14h-4.44ZM784.93,28.58c0-.22-.03-.44-.09-.63-.06-.2-.16-.37-.28-.52s-.29-.27-.48-.35c-.19-.09-.42-.13-.67-.13-.5,0-.89.14-1.18.43s-.47.69-.55,1.21h3.26Z"/>
        <path class="cls-4" d="M789.41,27.06c.22-.43.49-.77.8-1.01.31-.25.67-.37,1.09-.37.33,0,.6.07.8.22l-.11,1.29c-.02.08-.06.14-.1.18-.04.03-.1.05-.18.05-.07,0-.17-.01-.31-.04-.14-.02-.27-.03-.4-.03-.19,0-.36.03-.51.08-.15.06-.28.14-.4.24-.12.1-.22.23-.32.38-.09.15-.18.32-.25.51v4.42h-1.73v-7.18h1.02c.18,0,.3.03.37.09.07.06.12.18.14.34l.1.81Z"/>
        <path class="cls-4" d="M792.74,26.82c.83-.76,1.82-1.13,2.98-1.13.42,0,.79.07,1.13.21s.61.33.84.57.4.54.52.88.18.71.18,1.12v4.54h-.78c-.16,0-.29-.02-.38-.07s-.16-.15-.21-.3l-.15-.52c-.18.16-.36.31-.53.43-.17.12-.35.23-.54.31-.19.08-.39.15-.6.19-.21.04-.45.07-.7.07-.3,0-.58-.04-.84-.12-.26-.08-.48-.2-.66-.37-.19-.16-.33-.37-.43-.61-.1-.24-.15-.52-.15-.85,0-.18.03-.36.09-.54.06-.18.16-.35.3-.51.14-.16.32-.32.54-.46.22-.15.49-.27.81-.38.32-.11.69-.19,1.12-.26.43-.07.91-.11,1.46-.12v-.42c0-.48-.1-.84-.31-1.07s-.5-.35-.89-.35c-.28,0-.51.03-.7.1-.18.07-.35.14-.49.22-.14.08-.27.16-.38.22-.12.07-.24.1-.38.1-.12,0-.22-.03-.31-.09-.08-.06-.15-.14-.2-.22l-.31-.55ZM796.7,29.93c-.5.02-.92.07-1.26.13-.34.06-.61.14-.82.24-.21.1-.35.21-.44.34-.09.13-.13.27-.13.43,0,.3.09.52.27.65.18.13.41.2.7.2.35,0,.66-.06.92-.19.26-.13.51-.32.76-.58v-1.21Z"/>
        <path class="cls-4" d="M801.65,26.8c.29-.33.63-.6,1-.8s.81-.31,1.32-.31c.39,0,.75.08,1.07.25.32.16.6.4.84.71.24.31.42.69.55,1.15.13.46.19.98.19,1.56,0,.54-.07,1.03-.22,1.49-.14.46-.35.85-.62,1.19-.27.34-.59.6-.97.79-.38.19-.81.28-1.28.28-.4,0-.75-.06-1.03-.19-.29-.12-.54-.3-.76-.51v2.94h-1.73v-9.53h1.06c.22,0,.37.1.44.31l.14.67ZM801.74,31.14c.2.24.41.41.64.5.23.1.48.15.75.15s.5-.05.71-.15c.21-.1.39-.25.54-.45.15-.2.26-.45.34-.76s.12-.67.12-1.08-.03-.78-.1-1.07c-.07-.29-.17-.53-.29-.71-.13-.18-.28-.32-.46-.4s-.38-.13-.61-.13c-.36,0-.66.08-.92.23-.25.15-.49.37-.71.64v3.22Z"/>
        <path class="cls-4" d="M809.99,23.72c0,.15-.03.29-.09.42-.06.13-.14.25-.24.34-.1.1-.22.18-.35.23s-.28.09-.43.09-.29-.03-.42-.09c-.13-.06-.25-.14-.35-.23-.1-.1-.18-.21-.23-.34-.06-.13-.09-.27-.09-.42s.03-.3.09-.43.14-.25.23-.35c.1-.1.21-.18.35-.24.13-.06.28-.09.42-.09s.3.03.43.09c.14.06.25.14.35.24.1.1.18.21.24.35s.09.28.09.43ZM809.76,25.82v7.18h-1.74v-7.18h1.74Z"/>
        <path class="cls-4" d="M811.35,26.82c.83-.76,1.82-1.13,2.98-1.13.42,0,.79.07,1.13.21.33.14.61.33.84.57s.4.54.52.88.18.71.18,1.12v4.54h-.78c-.16,0-.29-.02-.38-.07-.09-.05-.16-.15-.21-.3l-.15-.52c-.18.16-.36.31-.53.43-.17.12-.35.23-.54.31s-.39.15-.6.19c-.21.04-.45.07-.7.07-.3,0-.58-.04-.84-.12-.26-.08-.48-.2-.67-.37s-.33-.37-.43-.61c-.1-.24-.15-.52-.15-.85,0-.18.03-.36.09-.54.06-.18.16-.35.3-.51.14-.16.32-.32.54-.46.22-.15.49-.27.81-.38.32-.11.69-.19,1.12-.26.42-.07.91-.11,1.46-.12v-.42c0-.48-.1-.84-.31-1.07s-.5-.35-.89-.35c-.28,0-.51.03-.7.1-.18.07-.35.14-.49.22-.14.08-.27.16-.38.22-.12.07-.24.1-.38.1-.12,0-.22-.03-.31-.09-.08-.06-.15-.14-.2-.22l-.31-.55ZM815.31,29.93c-.5.02-.92.07-1.26.13-.34.06-.61.14-.82.24-.21.1-.35.21-.44.34-.09.13-.13.27-.13.43,0,.3.09.52.27.65.18.13.41.2.7.2.36,0,.66-.06.92-.19.26-.13.51-.32.76-.58v-1.21Z"/>
      </g>
    </g>
    <g id="MÓDULO_1" data-name="MÓDULO 1" class="cls-11">
      <g class="cls-11">
        <path class="cls-13" d="M575.35,22.84v10.16h-1.86v-6.24c0-.13,0-.27.01-.42s.02-.3.04-.46l-2.9,5.51c-.16.3-.4.45-.74.45h-.29c-.16,0-.31-.04-.43-.12s-.23-.19-.3-.34l-2.92-5.53c.01.16.03.32.04.47,0,.15.01.29.01.42v6.24h-1.85v-10.16h1.6c.09,0,.17,0,.24,0,.07,0,.13.02.19.04.05.02.1.05.15.1s.09.11.13.19l2.84,5.42c.09.16.17.33.25.5.08.17.15.35.22.53.07-.19.14-.37.22-.55s.16-.35.25-.51l2.82-5.4c.04-.08.09-.14.13-.19.05-.04.1-.08.15-.1.05-.02.11-.03.18-.04.07,0,.15,0,.24,0h1.6Z"/>
        <path class="cls-13" d="M587.28,27.92c0,.74-.12,1.43-.38,2.07-.25.63-.6,1.18-1.06,1.64s-1,.83-1.64,1.09-1.35.4-2.13.4-1.49-.13-2.13-.4-1.19-.63-1.65-1.09c-.46-.46-.81-1.01-1.06-1.64-.25-.63-.37-1.32-.37-2.07s.12-1.43.37-2.06c.25-.63.6-1.18,1.06-1.64.46-.46,1.01-.82,1.65-1.09s1.35-.4,2.13-.4,1.49.13,2.13.4,1.19.63,1.64,1.09c.46.46.81,1.01,1.06,1.64.25.63.38,1.32.38,2.05ZM585.13,27.92c0-.53-.07-1.01-.21-1.43-.14-.42-.34-.78-.61-1.08-.26-.3-.58-.52-.96-.68s-.8-.23-1.28-.23-.9.08-1.28.23-.7.38-.96.68c-.26.3-.47.66-.61,1.08-.14.42-.21.9-.21,1.43s.07,1.02.21,1.44c.14.42.34.78.61,1.07s.58.52.96.68.81.23,1.28.23.9-.08,1.28-.23.7-.38.96-.68.47-.65.61-1.07c.14-.42.21-.9.21-1.44ZM585.16,19.95l-2.26,2c-.05.04-.1.08-.15.1s-.09.04-.14.06c-.05.01-.1.02-.16.03-.06,0-.12,0-.19,0h-1.4l1.4-1.9c.05-.07.1-.12.15-.16.05-.04.1-.07.16-.09.06-.02.12-.03.2-.04.08,0,.16,0,.26,0h2.13Z"/>
        <path class="cls-13" d="M597.93,27.92c0,.74-.12,1.42-.37,2.05-.25.62-.6,1.16-1.06,1.61-.45.45-1,.8-1.64,1.05-.64.25-1.35.38-2.13.38h-3.91v-10.16h3.91c.78,0,1.49.13,2.13.38.64.25,1.19.6,1.64,1.05.46.45.81.99,1.06,1.61.25.62.37,1.3.37,2.04ZM595.77,27.92c0-.53-.07-1.01-.21-1.43-.14-.42-.34-.78-.6-1.08s-.58-.52-.96-.68c-.38-.16-.8-.24-1.28-.24h-1.79v6.87h1.79c.48,0,.9-.08,1.28-.24.38-.16.69-.38.96-.68.26-.3.46-.66.6-1.08.14-.42.21-.91.21-1.44Z"/>
        <path class="cls-13" d="M603.63,31.32c.34,0,.65-.06.92-.17s.5-.28.69-.49c.19-.21.33-.46.43-.76.1-.3.15-.63.15-1.01v-6.05h2.1v6.05c0,.62-.1,1.18-.3,1.7s-.48.96-.85,1.33c-.37.37-.82.67-1.34.88s-1.12.32-1.79.32-1.26-.11-1.79-.32c-.53-.21-.98-.5-1.35-.88-.37-.37-.65-.82-.85-1.33s-.3-1.08-.3-1.7v-6.05h2.1v6.05c0,.37.05.71.15,1.01.1.3.24.55.43.76.19.21.42.37.69.49s.58.17.92.17Z"/>
        <path class="cls-13" d="M615.94,31.29v1.71h-6.03v-10.16h2.1v8.45h3.93Z"/>
        <path class="cls-13" d="M626.72,27.92c0,.74-.12,1.43-.37,2.07-.25.63-.6,1.18-1.06,1.64-.45.46-1,.83-1.64,1.09-.64.26-1.35.4-2.13.4s-1.49-.13-2.13-.4c-.64-.26-1.19-.63-1.64-1.09s-.81-1.01-1.06-1.64-.37-1.32-.37-2.07.12-1.43.37-2.06c.25-.63.6-1.18,1.06-1.64s1.01-.82,1.64-1.09c.64-.26,1.35-.4,2.13-.4s1.49.13,2.13.4c.64.26,1.19.63,1.64,1.09.46.46.81,1.01,1.06,1.64.25.63.37,1.32.37,2.05ZM624.58,27.92c0-.53-.07-1.01-.21-1.43-.14-.42-.34-.78-.61-1.08-.26-.3-.58-.52-.96-.68-.38-.16-.8-.23-1.28-.23s-.9.08-1.28.23-.7.38-.96.68c-.26.3-.47.66-.61,1.08-.14.42-.21.9-.21,1.43s.07,1.02.21,1.44c.14.42.34.78.61,1.07s.58.52.96.68.8.23,1.28.23.9-.08,1.28-.23c.38-.16.7-.38.96-.68s.46-.65.61-1.07c.14-.42.21-.9.21-1.44Z"/>
        <path class="cls-13" d="M637.82,31.58v1.42h-5.7v-1.42h2.02v-5.56c0-.12,0-.25,0-.37s.01-.25.02-.39l-1.33,1.11c-.09.07-.18.11-.27.13s-.17.02-.25,0c-.08-.02-.15-.04-.21-.08-.06-.04-.11-.08-.14-.12l-.61-.82,3.12-2.65h1.59v8.74h1.76Z"/>
      </g>
    </g>
  </g>
  <g class="cls-9">
    <rect class="cls-6" x="-5.95" y=".01" width="888" height="500"/>
    <rect class="cls-4" x="-5.95" y=".01" width="888" height="500"/>
    <g id="Atualização_em_Fitoterapia_-_Aspectos_Clínicos_-_Telas-03-2" data-name="Atualização em Fitoterapia - Aspectos Clínicos - Telas-03">
      <g id="Grupo_7800-2" data-name="Grupo 7800">
        <path id="Caminho_10024-2" data-name="Caminho 10024" class="cls-8" d="M864.43,26.78c.22.46.57.85,1,1.12.38.19.81.24,1.22.13.4-.14.74-.41.95-.77.21-.46.28-.98.22-1.48-.02-1.01-.86-1.81-1.87-1.79s-1.81.86-1.79,1.87c0,.33.1.65.28.93h0Z"/>
        <path id="Caminho_10025-2" data-name="Caminho 10025" class="cls-8" d="M855.69,19.15c-.02-.33-.04-.67-.06-1-.03.29-.06.59-.1.88,0-.08.02-.15.05-.22-.28.53-.57,1.05-.85,1.58.04-.05.08-.1.13-.15.55-.62.9-1.4.99-2.23.1-.86-.08-1.73-.53-2.47-.45-.7-1.12-1.24-1.9-1.53-.79-.33-1.66-.37-2.48-.13-.64.22-1.23.58-1.72,1.06-.57.61-.92,1.4-.99,2.23-.1.86.08,1.73.53,2.47.55.84,1.4,1.45,2.37,1.71.06.02.13.04.19.06-.53-.28-1.05-.57-1.58-.85.06.05.11.1.16.15-.19-.23-.38-.46-.56-.68.17.29.34.58.5.87.37.58.91,1.02,1.56,1.25.64.27,1.36.3,2.03.1,1.35-.43,2.27-1.68,2.26-3.1h0Z"/>
        <path id="Caminho_10026-2" data-name="Caminho 10026" class="cls-8" d="M849.87,29.74l-.37.24c-.42.24-.72.64-.84,1.1-.13.53.04,1.08.43,1.45.36.32.83.48,1.31.45h.44c.97-.02,1.73-.82,1.71-1.79-.02-.97-.82-1.73-1.79-1.71-.32,0-.63.1-.9.27h0Z"/>
        <path id="Caminho_10027-2" data-name="Caminho 10027" class="cls-8" d="M834.48,28.14c.75,2.52,4.67,1.35,3.91-1.17-.76-2.52-4.67-1.35-3.91,1.17Z"/>
        <path id="Caminho_10028-2" data-name="Caminho 10028" class="cls-8" d="M857.9,39.72c.27.81,1.16,1.25,1.97.98.77-.26,1.21-1.08,1.01-1.87-.27-.81-1.16-1.25-1.97-.98-.77.26-1.21,1.08-1.01,1.87Z"/>
        <path id="Caminho_10029-2" data-name="Caminho 10029" class="cls-8" d="M861.81,16.45c.24.69.99,1.06,1.68.82.65-.23,1.02-.91.85-1.58-.24-.69-.99-1.06-1.68-.82-.65.23-1.02.91-.85,1.58Z"/>
        <path id="Caminho_10030-2" data-name="Caminho 10030" class="cls-8" d="M856.91,28.52c.17.52.73.81,1.25.64.51-.16.8-.7.65-1.21-.17-.52-.73-.81-1.25-.64-.51.16-.8.7-.65,1.21Z"/>
        <path id="Caminho_10031-2" data-name="Caminho 10031" class="cls-8" d="M872.73,31.42l.39.57c.21.32.51.56.87.7.36.15.76.17,1.13.06.29-.1.56-.27.78-.49.31-.34.48-.78.48-1.24,0-.23,0-.46.01-.69-.02-1.09-.93-1.96-2.02-1.94s-1.96.93-1.94,2.02c0,.36.11.71.3,1.01h0Z"/>
        <path id="Caminho_10032-2" data-name="Caminho 10032" class="cls-8" d="M860.77,36.21c.2.62.86.97,1.49.77.61-.19.96-.84.78-1.45-.2-.62-.86-.97-1.49-.77-.61.19-.96.84-.78,1.45Z"/>
        <path id="Caminho_10033-2" data-name="Caminho 10033" class="cls-8" d="M844.09,43.84c.09.22.17.45.26.67.08.3.23.58.45.81.17.25.41.46.68.59,1.15.61,2.57.18,3.19-.96.07-.19.14-.37.22-.56.1-.41.09-.83-.03-1.23-.05-.23-.1-.47-.15-.7-.08-.31-.24-.6-.46-.83-.18-.26-.42-.47-.7-.6-.27-.16-.58-.25-.89-.26-.32-.06-.65-.04-.95.07-.61.19-1.12.6-1.43,1.16-.31.56-.38,1.23-.19,1.84h0Z"/>
        <path id="Caminho_10034-2" data-name="Caminho 10034" class="cls-8" d="M832.73,41.04c.26.78,1.09,1.2,1.87.94.75-.25,1.17-1.03.96-1.79-.26-.78-1.09-1.2-1.87-.94-.75.25-1.17,1.03-.96,1.79Z"/>
        <path id="Caminho_10035-2" data-name="Caminho 10035" class="cls-8" d="M820.77,26.93c.23.67.96,1.03,1.63.8.63-.22,1-.88.83-1.53-.23-.67-.96-1.03-1.63-.8-.63.22-1,.88-.83,1.53Z"/>
        <path id="Caminho_10036-2" data-name="Caminho 10036" class="cls-8" d="M817.62,55.86c.14.15.28.31.42.46.64.6,1.55.82,2.39.57.42-.13.8-.36,1.1-.68.29-.31.49-.69.6-1.1.03-.2.06-.41.1-.61.23-.98-.07-2-.81-2.69-1.13-1.05-2.89-.98-3.93.14-.32.35-.55.78-.67,1.24-.23.98.07,2,.81,2.69h0v-.02Z"/>
        <path id="Caminho_10037-2" data-name="Caminho 10037" class="cls-8" d="M841.12,58.87c.71,2.37,4.4,1.28,3.69-1.1-.71-2.38-4.4-1.28-3.69,1.1Z"/>
        <path id="Caminho_10038-2" data-name="Caminho 10038" class="cls-8" d="M809.39,40.05c.26.81,1.13,1.24,1.94.98.77-.25,1.21-1.07,1-1.86-.26-.81-1.13-1.24-1.94-.98-.77.25-1.21,1.07-1,1.86Z"/>
        <path id="Caminho_10039-2" data-name="Caminho 10039" class="cls-8" d="M820.12,42.52c.16.22.33.44.49.66.25.39.73.56,1.17.44.43-.15.73-.55.74-1.01.02-.27.03-.55.05-.82,0-.48-.27-.92-.69-1.14-.31-.16-.67-.2-1.01-.1-.33.11-.61.34-.79.64-.23.42-.21.93.04,1.33h0Z"/>
        <path id="Caminho_10040-2" data-name="Caminho 10040" class="cls-8" d="M808.24,73.11c.07.21.14.41.2.62.22.69.69,1.27,1.32,1.63.65.32,1.39.39,2.09.21.69-.21,1.28-.68,1.63-1.32.33-.65.4-1.39.22-2.09-.06-.21-.11-.42-.17-.63-.24-.69-.71-1.27-1.33-1.64-.65-.32-1.4-.39-2.1-.21-.7.21-1.29.69-1.64,1.33-.34.64-.42,1.4-.22,2.1h0Z"/>
        <path id="Caminho_10041-2" data-name="Caminho 10041" class="cls-8" d="M828.81,62.55c.06.2.26.31.46.25.2-.06.31-.26.25-.46h0c-.06-.2-.26-.31-.46-.25-.2.06-.31.26-.25.46Z"/>
        <path id="Caminho_10042-2" data-name="Caminho 10042" class="cls-8" d="M792.95,59.1c.27.81,1.16,1.25,1.97.98.77-.26,1.21-1.08,1.01-1.87-.27-.81-1.16-1.25-1.97-.98-.77.26-1.21,1.08-1.01,1.87Z"/>
        <path id="Caminho_10043-2" data-name="Caminho 10043" class="cls-8" d="M790.81,33.21c.23.67.96,1.03,1.63.8.63-.22,1-.88.83-1.53-.23-.67-.96-1.03-1.63-.8-.63.22-1,.88-.83,1.53Z"/>
        <path id="Caminho_10044-2" data-name="Caminho 10044" class="cls-8" d="M832.54,11.51c.44-.11.85-.32,1.2-.62.45-.51.41-1.28-.09-1.74-.14-.13-.32-.22-.51-.27-.45-.06-.92,0-1.35.14-.69.21-1.08.93-.87,1.62.1.33.33.61.63.77.3.17.66.2.99.1h0Z"/>
        <path id="Caminho_10045-2" data-name="Caminho 10045" class="cls-8" d="M837.3,75.05c.16.47.67.71,1.14.55.44-.15.69-.61.58-1.06-.16-.47-.67-.71-1.14-.55-.44.15-.69.61-.58,1.06Z"/>
        <path id="Caminho_10046-2" data-name="Caminho 10046" class="cls-8" d="M872.94,21.08c.14.54.45,1.01.9,1.34.56.29,1.26.09,1.57-.47.2-.52.2-1.09.02-1.61-.1-.33-.32-.61-.63-.77-.63-.34-1.42-.1-1.76.53-.17.3-.21.66-.1.99h0Z"/>
        <path id="Caminho_10047-2" data-name="Caminho 10047" class="cls-8" d="M867.64,10.29c.31.83,1.23,1.25,2.06.94.75-.28,1.18-1.07,1-1.85-.31-.83-1.23-1.25-2.06-.94-.75.28-1.18,1.07-1,1.85Z"/>
        <path id="Caminho_10048-2" data-name="Caminho 10048" class="cls-8" d="M854.82,5.27c.26.75,1.08,1.15,1.83.89.71-.24,1.11-.99.93-1.71-.26-.75-1.08-1.15-1.83-.89-.71.24-1.11.99-.93,1.71Z"/>
        <path id="Caminho_10049-2" data-name="Caminho 10049" class="cls-8" d="M793.56,79.44c-.18.07-.37.14-.55.21-.04.02-.08.03-.12.05-.3.11-.56.3-.76.55-.27.36-.36.83-.23,1.27.12.37.38.67.71.87.38.18.81.22,1.21.09.2-.04.4-.09.61-.13.38-.12.71-.38.9-.73.19-.35.23-.77.12-1.15-.12-.38-.38-.71-.73-.9-.35-.19-.77-.24-1.15-.12h-.01Z"/>
        <path id="Caminho_10050-2" data-name="Caminho 10050" class="cls-8" d="M865.42,45.44c.19.56.79.86,1.35.68.53-.18.84-.74.7-1.29-.19-.56-.79-.86-1.35-.68-.53.18-.84.74-.7,1.29Z"/>
        <path id="Caminho_10051-2" data-name="Caminho 10051" class="cls-8" d="M876.46,41.26c.05.17.22.26.39.21.17-.05.26-.22.21-.39s-.22-.26-.39-.21c-.17.05-.26.22-.21.39Z"/>
        <path id="Caminho_10052-2" data-name="Caminho 10052" class="cls-8" d="M867.56,40.01c.19.22.41.42.64.6.28.15.64.04.79-.24.1-.27.17-.56.21-.85.08-.35-.03-.71-.29-.96-.4-.38-1.02-.36-1.4.04-.12.13-.2.28-.24.45-.08.35.03.71.29.96Z"/>
        <path id="Caminho_10053-2" data-name="Caminho 10053" class="cls-8" d="M859.14,54.38c.21.61.88.94,1.49.73.58-.2.9-.81.75-1.4-.21-.61-.88-.94-1.49-.73-.58.2-.9.81-.75,1.4Z"/>
      </g>
      <rect id="Retângulo_714-2" data-name="Retângulo 714" class="cls-8" x="-5.95" y="12.17" width="888" height="31.31"/>
      <path id="Caminho_10054-2" data-name="Caminho 10054" class="cls-4" d="M560.6,11.74h222.56v31.74h-222.56c-8.76,0-15.87-7.11-15.87-15.87h0c0-8.76,7.11-15.87,15.87-15.87Z"/>
      <path id="Caminho_10055-2" data-name="Caminho 10055" class="cls-13" d="M660,11.74h221.92c.28,0,.51.23.51.51v31.23h-222.7c-8.69,0-15.72-7.04-15.73-15.73h0c0-8.83,7.17-16,16-16h0Z"/>
      <line id="Linha_29-2" data-name="Linha 29" class="cls-7" x1="-5.95" y1="49.44" x2="882.05" y2="49.44"/>
      <line id="Linha_30-2" data-name="Linha 30" class="cls-7" x1="-5.95" y1="11.74" x2="882.05" y2="11.74"/>
      <path id="Caminho_10056-2" data-name="Caminho 10056" class="cls-5" d="M13.48.01h180.57v47.43c0,6.63-5.37,11.99-12,12H25.48c-6.63,0-11.99-5.37-12-12V.01Z"/>
      <g id="Grupo_7803-2" data-name="Grupo 7803">
        <path id="Caminho_10066-2" data-name="Caminho 10066" class="cls-15" d="M211.42,11.3c2.17,2.1,4.98,3.4,7.98,3.7,3.23.16,6.36-1.13,8.54-3.52"/>
        <path id="Caminho_10067-2" data-name="Caminho 10067" class="cls-15" d="M245.67,11.11c-2.17-2.1-4.98-3.4-7.98-3.7-3.23-.16-6.36,1.13-8.54,3.52"/>
        <path id="Caminho_10068-2" data-name="Caminho 10068" class="cls-15" d="M246.89,11.3c2.17,2.1,4.98,3.4,7.98,3.7,3.23.16,6.36-1.13,8.54-3.52"/>
        <path id="Caminho_10069-2" data-name="Caminho 10069" class="cls-15" d="M281.14,11.11c-2.17-2.1-4.98-3.4-7.98-3.7-3.23-.16-6.36,1.13-8.54,3.52"/>
        <path id="Caminho_10070-2" data-name="Caminho 10070" class="cls-15" d="M282.36,11.3c2.17,2.1,4.98,3.4,7.98,3.7,3.23.16,6.36-1.13,8.54-3.52"/>
        <path id="Caminho_10071-2" data-name="Caminho 10071" class="cls-15" d="M316.61,11.11c-2.17-2.1-4.98-3.4-7.98-3.7-3.23-.16-6.36,1.13-8.54,3.52"/>
      </g>
      <g id="Grupo_7809-2" data-name="Grupo 7809">
        <g id="Grupo_7807-2" data-name="Grupo 7807">
          <g id="Layer2_9_FILL-2" data-name="Layer2 9 FILL">
            <path id="Caminho_10072-2" data-name="Caminho 10072" class="cls-10" d="M182.01,41.53v-1.18h-113.04v1.18h113.04Z"/>
          </g>
          <g id="Grupo_7804-2" data-name="Grupo 7804" class="cls-11">
            <path id="Caminho_10073-2" data-name="Caminho 10073" class="cls-3" d="M79.39,48.72c-.13.24-.33.42-.58.53-.26.12-.55.18-.84.18-.32,0-.63-.09-.88-.29-.24-.2-.38-.5-.38-.81-.03-.35.11-.69.38-.91.28-.23.63-.34.99-.33.43-.01.85.09,1.23.3v-.44c0-.17-.06-.34-.19-.46-.12-.12-.27-.2-.43-.24-.17-.04-.34-.06-.51-.06-.38-.01-.76.08-1.09.26l-.1-.46c.4-.19.84-.28,1.28-.27.4-.02.79.09,1.13.3.31.22.47.58.43.95v1.77s0,.06.01.09c0,.02.01.05.02.07,0,.03.02.06.03.06s.03.02.05.04c.02.02.04.03.07.03.03,0,.07,0,.1,0,.04,0,.08,0,.12,0v.38c-.22.06-.46.04-.67-.06-.14-.09-.2-.29-.2-.61l.03-.02ZM79.31,48.15v-.34c-.35-.19-.73-.29-1.13-.29-.23,0-.45.06-.64.2-.18.13-.27.35-.25.57,0,.19.08.37.24.48.16.11.35.16.55.16.27,0,.53-.07.77-.2.23-.11.4-.32.45-.57h.01Z"/>
            <path id="Caminho_10074-2" data-name="Caminho 10074" class="cls-3" d="M82.99,48.36h.56c0,.21.13.39.32.48.44.22.96.21,1.4,0,.19-.09.3-.27.31-.48.01-.17-.07-.32-.22-.4-.25-.1-.51-.17-.78-.2-.17-.02-.31-.04-.43-.06-.13-.03-.26-.06-.39-.1-.12-.04-.24-.1-.35-.17-.09-.07-.17-.16-.23-.26-.06-.12-.1-.25-.1-.38-.02-.32.15-.63.43-.79.32-.19.69-.28,1.06-.27.37,0,.74.08,1.06.27.28.15.45.44.43.76h-.56c0-.18-.11-.34-.27-.42-.2-.1-.43-.15-.66-.14-.23,0-.46.05-.67.15-.17.08-.28.25-.27.44,0,.15.09.29.23.35.25.09.51.16.77.19.17.02.3.04.38.05s.2.04.34.07c.12.02.23.06.33.12.08.05.16.11.24.18.08.07.14.16.18.26.04.12.05.24.04.36,0,.33-.16.64-.45.81-.69.39-1.52.4-2.22.04-.3-.17-.49-.49-.49-.84h.01Z"/>
            <path id="Caminho_10075-2" data-name="Caminho 10075" class="cls-3" d="M89.87,46.38c.27-.46.78-.72,1.31-.69.46-.02.9.18,1.19.53.3.38.45.85.43,1.33,0,.36-.09.71-.27,1.02-.16.28-.4.5-.68.65-.29.14-.6.2-.92.17-.35-.03-.69-.15-.98-.35v2.17h-.58v-4.23c.01-.2,0-.4-.04-.59-.05-.14-.18-.2-.39-.18v-.43c.23-.06.47-.04.69.06.18.12.27.33.23.54h0ZM89.94,47.4v1.11c.29.24.64.37,1.01.39.33.02.66-.11.89-.35.25-.27.38-.63.36-1,.01-.34-.09-.68-.29-.96-.2-.26-.52-.4-.85-.38-.31,0-.6.12-.8.35-.21.23-.33.53-.33.84h.01Z"/>
            <path id="Caminho_10076-2" data-name="Caminho 10076" class="cls-3" d="M97.54,45.7c.5-.04.99.15,1.32.52.29.41.39.92.27,1.41h-2.85c-.03.37.11.73.39.97.29.25.66.38,1.04.36.42,0,.83-.1,1.21-.26l.09.44c-.41.2-.86.3-1.32.3-.54.02-1.07-.17-1.46-.54-.38-.38-.57-.9-.53-1.43,0-.49.19-.96.55-1.3.35-.32.81-.49,1.29-.48h0ZM97.54,46.16c-.3-.01-.59.09-.83.27-.23.19-.37.46-.41.75h2.33c.04-.28-.07-.57-.28-.76-.23-.19-.52-.28-.82-.27h.01Z"/>
            <path id="Caminho_10077-2" data-name="Caminho 10077" class="cls-3" d="M105.61,46.88h-.56c-.09-.21-.24-.38-.43-.49-.2-.11-.42-.17-.65-.17-.35,0-.68.12-.94.36-.27.25-.42.62-.4.99-.02.37.12.73.39.99.25.23.57.36.91.36.24,0,.48-.06.68-.19.21-.13.37-.33.45-.56h.57c-.09.38-.31.72-.64.94-.31.22-.69.33-1.07.33-.49.01-.96-.16-1.32-.49-.38-.35-.59-.85-.56-1.37-.03-.52.18-1.03.57-1.38.37-.32.84-.5,1.33-.49.37,0,.73.11,1.03.31.31.2.53.51.62.87h.02Z"/>
            <path id="Caminho_10078-2" data-name="Caminho 10078" class="cls-3" d="M109.68,44.68v1.12h1.32v.42h-1.32v1.75c-.05.35.1.69.39.89.33.15.72.14,1.04-.03l.07.47c-.35.11-.72.16-1.09.14-.29-.02-.56-.18-.72-.42-.19-.31-.28-.67-.26-1.03v-1.77l-.77-.04v-.39h.8l.06-1.12h.48,0Z"/>
            <path id="Caminho_10079-2" data-name="Caminho 10079" class="cls-3" d="M117.63,47.57c0,.28-.05.55-.16.81-.1.23-.24.43-.43.59-.18.15-.38.27-.6.35-.45.16-.95.16-1.4,0-.22-.08-.42-.2-.6-.35-.19-.16-.33-.36-.43-.58-.11-.26-.17-.53-.16-.81,0-.28.05-.56.16-.82.1-.23.24-.43.43-.59.18-.15.38-.27.6-.35.45-.16.95-.16,1.4,0,.22.08.42.2.6.35.19.16.34.36.43.59.11.26.17.54.16.82h0ZM114.64,46.81c-.25.47-.25,1.05,0,1.52.11.2.28.36.48.46.2.1.41.15.63.14.22,0,.43-.05.63-.14.2-.11.36-.27.48-.46.25-.47.25-1.05,0-1.52-.11-.2-.28-.36-.48-.46-.2-.09-.41-.14-.63-.14-.22,0-.43.05-.63.14-.2.1-.37.26-.48.46Z"/>
            <path id="Caminho_10080-2" data-name="Caminho 10080" class="cls-3" d="M120.49,48.36h.56c0,.21.13.39.32.48.22.11.46.16.7.16.24,0,.48-.06.7-.17.19-.09.3-.27.31-.48.01-.17-.07-.32-.22-.4-.25-.1-.51-.17-.78-.2-.17-.02-.31-.04-.43-.06-.13-.03-.26-.06-.39-.1-.12-.04-.24-.1-.35-.17-.09-.07-.17-.16-.23-.26-.07-.11-.1-.25-.1-.38-.02-.32.15-.63.43-.79.32-.19.69-.28,1.06-.27.37,0,.74.08,1.06.27.28.15.45.44.43.76h-.56c0-.18-.11-.34-.27-.42-.2-.1-.43-.15-.66-.14-.23,0-.46.05-.67.15-.17.08-.28.25-.27.44,0,.15.09.29.23.35.25.09.51.16.77.19.17.02.3.04.38.05s.2.04.34.07c.12.02.23.06.33.12.08.05.16.11.24.18.08.07.14.16.18.26.04.12.05.24.04.36,0,.33-.16.64-.45.81-.69.39-1.52.4-2.22.04-.3-.17-.49-.49-.49-.84h.01Z"/>
            <path id="Caminho_10081-2" data-name="Caminho 10081" class="cls-3" d="M134.25,46.88h-.56c-.09-.21-.24-.38-.43-.49-.2-.11-.42-.17-.65-.17-.35,0-.68.12-.94.36-.27.25-.42.62-.4.99-.02.37.12.73.39.99.25.23.57.36.91.36.24,0,.48-.06.68-.19.21-.13.37-.33.45-.56h.57c-.09.38-.31.72-.64.94-.31.22-.69.33-1.07.33-.49.01-.96-.16-1.32-.49-.38-.35-.59-.85-.56-1.37-.03-.52.18-1.03.57-1.38.37-.32.84-.5,1.33-.49.37,0,.73.11,1.03.31.31.2.53.51.62.87h.02Z"/>
            <path id="Caminho_10082-2" data-name="Caminho 10082" class="cls-3" d="M137.33,43.92h.59v4.16c-.03.26.03.52.18.73.21.14.47.18.72.12l.02.46c-.39.12-.82.05-1.16-.17-.27-.31-.4-.73-.35-1.14v-4.16h0Z"/>
            <path id="Caminho_10083-2" data-name="Caminho 10083" class="cls-3" d="M142.11,45.02h-.47v-.04l.53-.94.51.21v.05l-.57.73h0ZM142.24,45.79v3.58h-.59v-3.58h.59Z"/>
            <path id="Caminho_10084-2" data-name="Caminho 10084" class="cls-3" d="M148.98,49.37h-.59v-2.13c.02-.28-.09-.56-.28-.76-.19-.19-.45-.3-.72-.29-.28,0-.56.1-.77.29-.2.19-.31.46-.3.74v2.15h-.58v-2.56c.02-.17,0-.33-.07-.49-.05-.07-.16-.1-.35-.08v-.46c.09,0,.16-.02.21-.03.07,0,.14,0,.21,0,.07,0,.14,0,.21.03.06.02.11.05.16.09.06.04.11.11.13.18.03.09.04.19.04.28.28-.41.76-.65,1.26-.61.4-.02.79.13,1.06.42.26.31.4.71.38,1.11v2.13Z"/>
            <path id="Caminho_10085-2" data-name="Caminho 10085" class="cls-3" d="M152.24,44.6c0-.14.06-.26.18-.33.11-.07.26-.07.37,0,.12.06.2.19.19.33,0,.11-.04.21-.12.28-.07.06-.16.1-.25.1-.09,0-.18-.03-.25-.1-.08-.07-.12-.17-.12-.28ZM152.89,45.81v3.55h-.58v-3.55h.58Z"/>
            <path id="Caminho_10086-2" data-name="Caminho 10086" class="cls-3" d="M159.59,46.88h-.56c-.09-.21-.24-.38-.43-.49-.2-.11-.42-.17-.65-.17-.35,0-.68.12-.94.36-.27.25-.42.62-.4.99-.02.37.12.73.39.99.25.23.57.36.91.36.24,0,.48-.06.68-.19.21-.13.37-.33.45-.56h.57c-.09.38-.31.72-.64.94-.31.22-.69.33-1.07.33-.49.01-.96-.16-1.32-.49-.38-.35-.59-.85-.56-1.37-.03-.52.18-1.03.57-1.38.37-.32.84-.5,1.33-.49.37,0,.73.11,1.03.31.31.2.53.51.62.87h.02Z"/>
            <path id="Caminho_10087-2" data-name="Caminho 10087" class="cls-3" d="M166.25,47.57c0,.28-.05.55-.16.81-.1.23-.24.43-.43.59-.18.15-.38.27-.6.35-.45.16-.95.16-1.4,0-.22-.08-.42-.2-.6-.35-.19-.16-.33-.36-.43-.58-.11-.26-.17-.53-.16-.81,0-.28.05-.56.16-.82.1-.23.24-.43.43-.59.18-.15.38-.27.6-.35.45-.16.95-.16,1.4,0,.22.08.42.2.6.35.19.16.34.36.43.59.11.26.17.54.16.82h0ZM163.25,46.81c-.25.47-.25,1.05,0,1.52.11.2.28.36.48.46.2.1.41.15.63.14.22,0,.43-.05.63-.14.2-.11.36-.27.48-.46.25-.47.25-1.05,0-1.52-.11-.2-.28-.36-.48-.46-.4-.19-.86-.19-1.26,0-.2.1-.37.26-.48.46Z"/>
            <path id="Caminho_10088-2" data-name="Caminho 10088" class="cls-3" d="M169.11,48.36h.56c0,.21.13.39.32.48.22.11.46.16.7.16.24,0,.49-.05.7-.17.19-.09.3-.27.31-.48.01-.17-.07-.32-.22-.4-.25-.1-.51-.17-.78-.2-.17-.02-.31-.04-.43-.06-.13-.03-.26-.06-.39-.1-.12-.04-.24-.1-.35-.17-.09-.07-.17-.16-.23-.26-.06-.12-.1-.25-.1-.38-.02-.32.15-.63.43-.79.66-.36,1.46-.36,2.12,0,.28.15.45.44.43.76h-.56c0-.18-.11-.34-.27-.42-.2-.1-.43-.15-.66-.14-.23,0-.46.05-.67.15-.17.08-.28.25-.27.44,0,.15.09.29.23.35.25.09.51.16.77.19.17.02.3.04.38.05s.2.04.34.07c.12.02.23.06.33.12.08.05.16.11.24.18.08.07.14.16.18.26.04.12.05.24.04.36,0,.33-.16.64-.45.81-.69.39-1.52.4-2.22.04-.3-.17-.49-.49-.49-.84h.01Z"/>
          </g>
          <g id="Grupo_7805-2" data-name="Grupo 7805">
            <path id="Caminho_10089-2" data-name="Caminho 10089" class="cls-12" d="M77.47,21.95h-1.4c-.14,0-.27-.03-.38-.11-.1-.07-.17-.17-.22-.28l-.46-1.35h-2.95l-.46,1.35c-.05.11-.12.2-.21.27-.11.08-.24.12-.38.12h-1.41l3-7.76h1.84l3,7.76h.03ZM74.61,18.98l-.72-2.13c-.05-.14-.11-.29-.17-.48s-.12-.38-.18-.59c-.05.22-.11.42-.17.6s-.12.34-.17.48l-.71,2.11h2.13-.01Z"/>
            <path id="Caminho_10090-2" data-name="Caminho 10090" class="cls-12" d="M86.42,15.62h-2.18v6.33h-1.8v-6.33h-2.18v-1.43h6.17v1.43h0Z"/>
            <path id="Caminho_10091-2" data-name="Caminho 10091" class="cls-12" d="M94.08,20.53c.22,0,.44-.04.65-.12.18-.07.35-.19.48-.34.14-.16.24-.35.3-.55.07-.24.11-.48.1-.73v-4.6h1.8v4.6c0,.45-.07.89-.23,1.31-.29.79-.92,1.41-1.71,1.7-.44.17-.92.25-1.39.24-.48,0-.95-.08-1.4-.24-.39-.15-.75-.38-1.05-.67-.29-.29-.52-.64-.66-1.03-.16-.42-.23-.86-.23-1.31v-4.6h1.8v4.59c0,.25.03.49.1.73.06.2.17.39.3.55.13.15.3.27.48.35.21.08.43.12.65.12h0Z"/>
            <path id="Caminho_10092-2" data-name="Caminho 10092" class="cls-12" d="M109.1,21.95h-1.4c-.14,0-.27-.03-.38-.11-.1-.07-.17-.17-.22-.28l-.46-1.35h-2.95l-.46,1.35c-.05.11-.12.2-.21.27-.11.08-.24.12-.38.12h-1.41l3-7.76h1.84l3,7.76h.03ZM106.24,18.98l-.72-2.13c-.05-.14-.11-.29-.17-.48s-.12-.38-.18-.59c-.05.22-.11.42-.17.6s-.12.34-.17.48l-.71,2.11h2.13-.01Z"/>
            <path id="Caminho_10093-2" data-name="Caminho 10093" class="cls-12" d="M117.9,20.51v1.44h-4.68v-7.76h1.8v6.32h2.88Z"/>
            <path id="Caminho_10094-2" data-name="Caminho 10094" class="cls-12" d="M124.15,21.95h-1.81v-7.76h1.81v7.76Z"/>
            <path id="Caminho_10095-2" data-name="Caminho 10095" class="cls-12" d="M134.66,14.84c0,.19-.07.37-.18.52l-3.64,5.2h3.7v1.38h-5.99v-.69c0-.08.01-.16.04-.24.03-.08.07-.15.12-.22l3.65-5.22h-3.52v-1.38h5.81v.65h.01Z"/>
            <path id="Caminho_10096-2" data-name="Caminho 10096" class="cls-12" d="M146.13,21.95h-1.4c-.14,0-.27-.03-.38-.11-.1-.07-.17-.17-.22-.28l-.46-1.35h-2.95l-.46,1.35c-.05.11-.12.2-.21.27-.11.08-.24.12-.38.12h-1.41l3-7.76h1.84l3,7.76h.03ZM143.27,18.98l-.72-2.13c-.05-.14-.11-.29-.17-.48s-.12-.38-.18-.59c-.05.22-.11.42-.17.6s-.12.34-.17.48l-.71,2.11h2.12Z"/>
            <path id="Caminho_10097-2" data-name="Caminho 10097" class="cls-12" d="M156.19,20.8c-.27.36-.61.64-1.01.84-.44.21-.91.34-1.39.38l-.05.2c.15.03.29.08.42.15.1.05.19.11.27.19.07.06.11.14.14.23.03.08.04.17.04.26,0,.12-.03.24-.1.34-.08.1-.18.19-.29.26-.14.08-.29.13-.45.16-.19.04-.39.06-.58.06-.13,0-.27,0-.4-.02-.12-.01-.25-.04-.39-.06l.15-.5c0-.09.09-.15.18-.14,0,0,0,0,0,0,.05,0,.1,0,.15.02.06.02.13.02.19.02.07,0,.14-.01.2-.05.04-.02.06-.07.06-.11,0-.08-.05-.14-.16-.17-.18-.05-.36-.09-.55-.11l.24-.71c-.48-.04-.95-.18-1.38-.41-.4-.21-.75-.5-1.03-.85-.29-.36-.51-.76-.65-1.2-.15-.48-.23-.98-.22-1.48,0-.55.09-1.09.28-1.6.18-.46.45-.89.79-1.25.35-.35.77-.63,1.23-.82.5-.2,1.03-.3,1.57-.29.28,0,.55.03.82.08.25.05.49.12.72.21.22.09.43.2.62.33.18.12.35.26.5.42l-.61.81s-.09.1-.14.14c-.06.04-.14.06-.22.06-.06,0-.12-.01-.18-.04-.06-.03-.12-.06-.18-.1-.07-.05-.14-.09-.21-.13-.09-.05-.18-.09-.27-.13-.12-.05-.24-.08-.37-.1-.16-.03-.33-.04-.49-.04-.28,0-.56.06-.82.17-.25.11-.47.27-.64.48-.19.23-.33.49-.42.78-.1.34-.16.69-.15,1.05,0,.36.05.72.16,1.06.1.28.25.55.44.78.18.2.4.37.65.48.25.11.52.17.8.17.15,0,.3,0,.45-.02.13-.02.26-.04.38-.08.12-.04.23-.09.33-.15.11-.07.22-.15.31-.24.04-.04.09-.07.14-.09.05-.02.1-.03.15-.03.04,0,.09,0,.13.02.04.02.08.05.12.08l.71.75v-.06Z"/>
            <path id="Caminho_10098-2" data-name="Caminho 10098" class="cls-12" d="M167.46,21.95h-1.4c-.14,0-.27-.03-.38-.11-.1-.07-.17-.17-.22-.28l-.46-1.35h-2.95l-.46,1.35c-.05.11-.12.2-.21.27-.11.08-.24.12-.38.12h-1.41l3-7.76h1.84l3,7.76h.03ZM164.19,12.74c.07,0,.14-.02.2-.05.05-.03.1-.07.13-.12.03-.05.06-.1.07-.15.02-.05.02-.11.02-.16h1c0,.19-.03.38-.08.56-.05.17-.13.33-.23.48-.1.14-.23.25-.38.34-.16.09-.35.13-.53.13-.17,0-.35-.02-.51-.08-.13-.05-.25-.11-.37-.18-.11-.07-.21-.13-.3-.18-.08-.05-.17-.08-.27-.08-.07,0-.14.02-.2.05-.05.03-.1.07-.13.12-.03.05-.06.1-.07.16-.01.05-.02.11-.02.16h-1.01c0-.19.03-.38.08-.56.05-.17.13-.34.24-.48.1-.14.23-.26.38-.34.16-.09.34-.13.52-.13.17,0,.35.03.51.08.13.04.25.1.37.18.11.07.2.13.29.18.08.05.17.08.27.08h.02ZM164.6,18.98l-.72-2.13c-.05-.14-.11-.29-.17-.48s-.12-.38-.18-.59c-.05.22-.11.42-.17.6s-.12.34-.17.48l-.71,2.11h2.12Z"/>
            <path id="Caminho_10099-2" data-name="Caminho 10099" class="cls-12" d="M178.95,18.07c0,.54-.1,1.07-.29,1.57-.19.47-.47.9-.82,1.26-.36.36-.79.65-1.27.84-1.06.4-2.24.4-3.3,0-.48-.19-.92-.47-1.28-.84-.35-.36-.63-.79-.82-1.26-.39-1.01-.39-2.13,0-3.14.38-.96,1.14-1.72,2.1-2.1.53-.2,1.09-.31,1.65-.3.57,0,1.13.1,1.65.31.48.19.91.47,1.27.84.35.36.63.79.82,1.26.19.5.29,1.03.29,1.56ZM177.11,18.07c0-.35-.05-.7-.15-1.04-.09-.29-.23-.55-.43-.78-.19-.21-.42-.38-.68-.49-.29-.12-.61-.17-.92-.17-.32,0-.63.05-.93.17-.26.11-.5.28-.69.49-.2.23-.34.49-.43.78-.2.68-.2,1.4,0,2.08.09.29.23.55.43.78.19.21.43.38.69.49.3.12.61.17.93.17.31,0,.63-.05.92-.17.26-.1.5-.27.68-.49.2-.23.34-.49.43-.78.1-.34.16-.69.15-1.04Z"/>
          </g>
          <g id="Grupo_7806-2" data-name="Grupo 7806" class="cls-11">
            <path id="Caminho_10100-2" data-name="Caminho 10100" class="cls-1" d="M71.45,28.86v1.86h2.5v1.37h-2.5v1.9h3.27v1.42h-5.13v-7.96h5.13v1.42h-3.27Z"/>
            <path id="Caminho_10101-2" data-name="Caminho 10101" class="cls-1" d="M86.44,27.44v7.96h-1.63v-4.92c0-.12.02-.25.03-.38l-2.12,4.09c-.06.12-.15.22-.27.29-.11.07-.25.1-.38.1h-.25c-.13,0-.27-.03-.38-.1-.11-.07-.21-.17-.27-.29l-2.12-4.11.03.39c.01.13.01.24.01.35v4.58h-1.63v-7.96h1.62c.05,0,.11,0,.16.03.05.02.09.05.13.08.05.05.08.1.11.16l2.05,4.04c.07.14.14.28.21.43s.13.3.19.46c.06-.16.13-.32.19-.47.06-.15.14-.3.22-.44l2.04-4.02c.03-.06.07-.11.11-.16.03-.04.08-.07.13-.08.05-.02.11-.03.16-.03h1.66Z"/>
            <path id="Caminho_10102-2" data-name="Caminho 10102" class="cls-1" d="M95.65,28.86v2.02h2.72v1.43h-2.72v3.1h-1.86v-7.96h5.13v1.42h-3.27Z"/>
            <path id="Caminho_10103-2" data-name="Caminho 10103" class="cls-1" d="M103.48,35.4h-1.86v-7.96h1.86v7.96Z"/>
            <path id="Caminho_10104-2" data-name="Caminho 10104" class="cls-1" d="M112.39,28.9h-2.24v6.5h-1.85v-6.5h-2.24v-1.46h6.33s0,1.46,0,1.46Z"/>
            <path id="Caminho_10105-2" data-name="Caminho 10105" class="cls-1" d="M122.59,31.42c0,.55-.1,1.1-.3,1.61-.19.48-.47.92-.84,1.29-.37.37-.81.66-1.3.86-1.09.41-2.29.41-3.38,0-.49-.19-.94-.49-1.31-.86-.36-.37-.65-.81-.84-1.29-.4-1.04-.4-2.18,0-3.22.19-.48.47-.92.84-1.29.38-.37.82-.66,1.31-.86,1.09-.41,2.29-.41,3.38,0,.49.2.93.49,1.3.86.37.37.65.81.84,1.29.2.51.3,1.05.3,1.6h0ZM120.7,31.42c0-.36-.05-.72-.15-1.06-.09-.29-.24-.57-.44-.8-.19-.22-.43-.39-.7-.5-.3-.12-.63-.18-.95-.17-.32,0-.65.05-.95.17-.27.11-.51.28-.71.5-.2.23-.35.51-.44.8-.1.34-.15.7-.15,1.06,0,.36.05.72.15,1.07.09.29.24.57.44.8.19.22.44.39.71.5.61.23,1.29.23,1.9,0,.27-.11.51-.28.7-.5.2-.23.35-.51.44-.8.11-.35.16-.71.15-1.07Z"/>
            <path id="Caminho_10106-2" data-name="Caminho 10106" class="cls-1" d="M130.85,28.9h-2.24v6.5h-1.85v-6.5h-2.24v-1.46h6.33v1.46h0Z"/>
            <path id="Caminho_10107-2" data-name="Caminho 10107" class="cls-1" d="M135.29,28.86v1.86h2.5v1.37h-2.5v1.9h3.27v1.42h-5.13v-7.96h5.13v1.42h-3.27Z"/>
            <path id="Caminho_10108-2" data-name="Caminho 10108" class="cls-1" d="M147.85,35.4h-1.67c-.27.02-.53-.12-.67-.35l-1.32-2.31c-.05-.09-.12-.16-.21-.22-.1-.05-.22-.08-.33-.07h-.47v2.95h-1.85v-7.96h2.59c.5-.01.99.05,1.47.18.36.09.7.26.99.49.25.2.44.46.56.75.12.3.18.62.18.94,0,.25-.03.49-.1.73-.14.46-.42.87-.81,1.16-.21.16-.44.29-.69.38.12.06.24.14.34.23.11.09.21.21.28.33l1.69,2.77h.02ZM143.92,31.18c.22,0,.43-.03.64-.1.16-.05.31-.14.43-.27.11-.12.19-.25.25-.4.05-.16.08-.32.08-.49.02-.31-.11-.61-.34-.82-.31-.22-.68-.33-1.06-.3h-.74v2.36h.74v.02Z"/>
            <path id="Caminho_10109-2" data-name="Caminho 10109" class="cls-1" d="M157.3,35.4h-1.43c-.14,0-.27-.03-.39-.11-.1-.07-.18-.17-.22-.29l-.47-1.39h-3.03l-.47,1.39c-.05.11-.12.21-.22.28-.11.08-.25.13-.39.12h-1.44l3.08-7.96h1.89l3.08,7.96h0ZM154.37,32.36l-.74-2.18c-.05-.14-.11-.3-.17-.49s-.12-.39-.19-.61c-.05.21-.11.42-.18.62-.07.19-.12.35-.17.49l-.73,2.17h2.18Z"/>
            <path id="Caminho_10110-2" data-name="Caminho 10110" class="cls-1" d="M162.38,27.44c.49,0,.98.06,1.45.2.36.11.7.3.99.55.26.23.45.51.58.83.13.33.19.68.19,1.03,0,.37-.06.74-.19,1.09-.12.33-.32.62-.58.85-.29.26-.63.44-1,.55-.46.14-.95.21-1.43.2h-.96v2.66h-1.85v-7.96h2.81,0ZM162.38,31.35c.38.04.76-.09,1.04-.34.23-.27.34-.61.32-.96,0-.17-.03-.34-.08-.5-.05-.15-.14-.28-.25-.39-.12-.11-.26-.2-.42-.25-.19-.06-.4-.09-.6-.09h-.96v2.53h.96,0Z"/>
            <path id="Caminho_10111-2" data-name="Caminho 10111" class="cls-1" d="M170.02,35.4h-1.86v-7.96h1.86v7.96Z"/>
            <path id="Caminho_10112-2" data-name="Caminho 10112" class="cls-1" d="M180.35,35.4h-1.43c-.14,0-.27-.03-.39-.11-.1-.07-.18-.17-.22-.29l-.47-1.39h-3.03l-.47,1.39c-.05.11-.12.21-.22.28-.11.08-.25.13-.39.12h-1.44l3.08-7.96h1.89l3.08,7.96h0ZM177.41,32.36l-.74-2.18c-.05-.14-.11-.3-.17-.49s-.12-.39-.19-.61c-.05.22-.11.43-.17.62s-.12.35-.18.49l-.73,2.17h2.18Z"/>
          </g>
        </g>
        <g id="Grupo_7808-2" data-name="Grupo 7808">
          <g id="Layer0_1_MEMBER_0_FILL-2" data-name="Layer0 1 MEMBER 0 FILL">
            <path id="Caminho_10113-2" data-name="Caminho 10113" class="cls-10" d="M32.97,25.35h1.44l.89-2.01,9.5,24.58h-3.55v1.49h13.65v-1.49h-3.03l-14.3-33.95-4.6,11.38Z"/>
          </g>
          <g id="Layer0_1_MEMBER_1_FILL-2" data-name="Layer0 1 MEMBER 1 FILL">
            <path id="Caminho_10114-2" data-name="Caminho 10114" class="cls-12" d="M24.97,50.29c4.9-.42,9.37-2.99,12.19-7.02,2.4-3.92,3.42-8.52,2.9-13.08-.13.03-.25.05-.38.06l-14.71,20.04Z"/>
            <path id="Caminho_10115-2" data-name="Caminho 10115" class="cls-2" d="M28.33,36.63c-3.08,3.83-4.31,8.83-3.36,13.66l14.71-20.04c-4.37.84-8.36,3.08-11.35,6.38Z"/>
          </g>
          <g id="Layer0_1_MEMBER_2_FILL-2" data-name="Layer0 1 MEMBER 2 FILL">
            <path id="Caminho_10116-2" data-name="Caminho 10116" class="cls-1" d="M58.16,24.56h-1.55v1.74c-.27,1.97-1.95,3.44-3.94,3.46h-5.49l.76,1.79h4.74c1.05-.02,2.07.4,2.8,1.16.63.61,1.03,1.43,1.14,2.3v1.74h1.55v-12.19M40.27,13.19v.15l.89,2.13h12.97c3.2,0,5.8,2.59,5.81,5.79,0,0,0,.01,0,.02v1.69h2.32v-9.79h-21.99Z"/>
          </g>
        </g>
      </g>
    </g>
  </g>
</svg>