
<svg xmlns="http://www.w3.org/2000/svg" version="1.1" xmlns:xlink="http://www.w3.org/1999/xlink" preserveAspectRatio="none" x="0px" y="0px" width="275px" height="170px" viewBox="0 0 275 170">
<defs>
<g id="Layer0_0_MEMBER_0_FILL">
<path fill="#FEF3CB" stroke="none" d="
M 275.25 174.8
L 275.25 0.25 -0.55 0.25 -0.55 174.8 275.25 174.8 Z"/>
</g>

<g id="Layer0_0_MEMBER_1_FILL">
<path fill="#516391" stroke="none" d="
M 109.2 166.2
Q 107.9 169.4 106.9 172.45
L 122.85 172.45
Q 122.85 171.45 122.8 170.8 122.8 170.45 122.3 166.55 122 163.9 122.25 162.25 121.35 162.1 120.6 161.9
L 120.6 162
Q 120.4 163.4 120.8 165.85 121.15 168.6 121.15 169.75 121.05 171.25 120.75 172.25
L 120.05 165.5
Q 119.75 163.15 119.85 161.75 119.15 161.6 118.7 161.5 118.6 161.45 112.05 159.7 111 162.25 109.2 166.2 Z"/>

<path fill="#868FB6" stroke="none" d="
M 13.2 123.05
Q 12.3 120.6 10.85 119.25 10.053515625 119.5623046875 9.45 119.9 10.6048828125 121.12890625 15.35 132.3 20.55 144.7 21.7 146.65 21.6802734375 145.95703125 21.6 144.65 16.8255859375 136.738671875 14.45 127.5 13.6 124.15 13.2 123.05
M 3.5 120.25
Q 3.25 120.35 3.1 120.4 2.75 120.5 2.05 120.5 0.25 120.6 -0.55 120.75
L -0.55 128.55
Q 0.9 125.8 1.6 124.2 2.85 121.65 3.5 120.25
M 61.55 95.5
Q 65.1 93.55 66.95 92.95 70 92 72.35 92.85 73.27890625 91.92109375 74.25 91.25 65.3294921875 80.0294921875 61.6 75.35 53.25 64.75 46.95 53.8 43.8 48.2 22.25 23.05 2.720703125 0.16875 2.15 -1.85
L -0.55 -1.85 -0.55 119.55
Q 1.5 119.5 2.5 119.3
L 3.85 118.9
Q 4.1 118.85 4.35 118.9 4.4 118.85 4.4 118.8 6.75 115.3 11.65 112.85 14.75 111.3 20.75 109.45 25.05 108.1 27.25 107.7 28.75 107.4 31.85 106.85 34.9 106.35 36.4 106 40.6 105.1 45.8 103.05 54.4 99.6 61.55 95.5
M 66.35 94.45
Q 65.15 95 62.9 96.3 52.9 102.05 42.15 105.9 37.85 107.5 35 107.9 30.8 108.15 28.75 108.55 27.1 108.9 24.7 109.75 22.2 110.8 20.8 111.25 18.25 112.2 13.05 113.9 8.65 115.65 6.35 118.25 5.25 119.6 4.2 121.75 3.5 122.95 2.5 125.55 1.15 128.6 -0.55 131.4
L -0.55 156.35 -0.5 156.35
Q 0.6 156.35 2.65 147 4.7 137.45 4.3 132.9 5.95 127.7 6.85 125.25 8.314453125 121.140234375 9.3 120 8.2115234375 120.78125 8.05 121.75 8 122.5 7.6 122.5 7.3 121.7 7.85 120.7 8.2 120.05 9.05 119.3 10.05 118.45 10.5 118.35 11.9 118.15 12.9 120.15 13.65 121.7 14.35 123.9 14.4 124.05 15.45 127.65 17.6078125 135.696484375 21.5 143.15 21.438671875 142.2048828125 21.35 141 21 136.25 21 135.95 21 130.4 23.6 124 25.5 119.3 26.35 118.45 26.35 118.7603515625 26.4 119.7 26.79296875 119.0748046875 27.2 118.65 26.881640625 119.32421875 26.45 120.45 26.626953125 122.8234375 27.05 127.9 27.8 136.7 28.15 139.4 28.3 139.35 31.15 137.4 33.75 135.6 35.4 135.1
L 37.9 135.1 37.9 136.85
Q 33.95 144.95 33.95 146.3 36.05 145.7 48.15 152.55 61.05 159.85 61.4 159.95
L 61.4 153.1
Q 61.35 152.85 60.3 145.5
L 60.3 139.75
Q 62 140.55 72.5 148.65 77.7654296875 152.700390625 81.95 155.85
L 76.05 146.45
Q 71.85 139.65 70.4 136.5 68.65 132.8 68.4 130.1 68.3 129.15 68.3 127.35 68.3 125.4 68.25 124.55 68.15 123.15 67.6 121.35 67.46640625 120.7888671875 67.35 120.3 67.019921875 118.9560546875 66.8 118.15 64.45 109 66.3 99.65 66.4 99.15 66.8 98.85 67.2 98.5 67.4 98.8 67.4 98.95 67.4 99.1 69.15 96.25 71.45 93.8 71.65 93.55 71.9 93.35 71.65 93.4 71.4 93.45 71.35 93.5 70.05 93.55 68.3 93.6 66.35 94.45
M 24.7 118.05
Q 26.4 114.2 28 111.45 28.65 110.65 29.1 110.9 25.95 116.55 23.95 122.1 22.9 124.8 22.35 125.65 22.25 125.65 22.25 125.3 23.35 121.35 24.7 118.05
M 125.1 -1.45
Q 125 -1.7 124.9 -1.85
L 118.6 -1.85
Q 124.65 7.85 130.5 17.75
L 130.05 16.3
Q 129.8 15.4 129.5 13.05 129.35 11.6 128.95 10.3
L 126.35 1.05 125.1 -1.45
M 117.35 -1.85
L 100.4 -1.85
Q 111.4501953125 11.5861328125 119.2 23.1 127.15 34.95 127.15 37.85 127.15 38 126.05 43.45 124.95 49.05 124.95 50.15
L 124.95 51.6
Q 125.2 51.3 127.6 49.6 129.65 48.1 130 47.25
L 130.4 47.25
Q 128.2 56 126.15 76.75 124.25 95.75 124.25 104.9 124.25 105.9869140625 124.4 107.85 125.0013671875 107.9619140625 125.65 108.1 129.45 109.1 130.95 109.2 132.35 109.35 132.55 109.35 133.05 109.45 133.5 109.65
L 134.85 109.65
Q 135.05 109.65 135.25 109.7 128.35 98.4 128.35 84.35 128.35 83.069140625 128.4 81.8 128.9599609375 69.6724609375 134.85 59.75 137.45 56.15 139.25 52.2 139.55 51.45 139.4 50.55 139.05 48.3 138.7 46.25 138.4 44.75 138.15 43.35 138.1 42.6 138.05 41.95 136.6 30.8 131.55 21.05
L 131.5 21.05 131.4 20.75
Q 129.7 17.5 127.5 14.35 122.1 6.5 117.35 -1.85
M 52.8 -1.85
L 9.85 -1.85 26.4 17.65
Q 30.7 22.65 32.7 24.6 33.55 25.35 35.7 27.25 37.65 28.9 38.7 30 40.1 31.35 43.4 35.3
L 64.7 61.4
Q 67.5 64.8 70.2 68.35 71.05 69.55 72.75 72.05 74.35 74.2 75.4 75.6 77.25 77.9 81.3 82.2 84.25 85.7 85.5 88.65 87.6 88.75 90.45 89.05 96.85 89.9 101.25 90.95
L 103.65 91.65
Q 101.4 77.45 94.85 64.85 87.75 51.15 78.25 38.95 73.2 32.45 69 25.4 68.7 25 68.85 24.4
L 72.15 28.65
Q 71.15 26 69.75 23.65 67.15 19.65 64.6 15.65
L 59.05 7.3
Q 56.25 3.05 55 1.35 53.65 -0.45 52.8 -1.85
M 89.15 62.5
Q 85.9 59.75 82.15 57.05 80.05 55.6 71.95 50.15 65.65 46 62.1 43 61.35 42.35 61.15 41.95
L 68.85 47.5
Q 71.6 49.55 73 50.45
L 76.55 52.65
Q 83.65 57.05 89.15 62.5
M 91.75 64.9
L 91.5 65 78.2 56.15
Q 76.3 54.9 75.25 54 75.45 53.95 75.7 54.15
L 86.9 61.65
Q 89.7 63.65 91.75 64.9
M 57.4 36.85
Q 48.95 30.7 44.9 26.8
L 75.45 50.15 57.4 36.85 Z"/>

<path fill="#3B3D35" stroke="none" d="
M 7.6 122.5
Q 8 122.5 8.05 121.75 8.2115234375 120.78125 9.3 120 9.3984375 119.975390625 9.45 119.9 10.053515625 119.5623046875 10.85 119.25 12.3 120.6 13.2 123.05 13.6 124.15 14.45 127.5 16.8255859375 136.738671875 21.6 144.65 22.2533203125 145.7427734375 22.95 146.8 23.65 148.05 24.6 148.6 22.93515625 145.9283203125 21.5 143.15 17.6078125 135.696484375 15.45 127.65 14.4 124.05 14.35 123.9 13.65 121.7 12.9 120.15 11.9 118.15 10.5 118.35 10.05 118.45 9.05 119.3 8.2 120.05 7.85 120.7 7.3 121.7 7.6 122.5
M 26.45 120.45
Q 26.881640625 119.32421875 27.2 118.65 26.79296875 119.0748046875 26.4 119.7 25.713671875 120.8763671875 25.1 122.75
L 22 132.05
Q 23.25 129.7 24.7 125.4 25.73203125 122.3041015625 26.45 120.45
M 18.8 144.2
L 20.15 146.55
Q 21.1 148.3 21.85 148.8
L 21.9 148.65
Q 21.2 147.95 20.4 146.55
L 18.9 143.9
Q 18.75 143.75 18.75 144
L 18.8 144.2
M 28 111.45
Q 26.4 114.2 24.7 118.05 23.35 121.35 22.25 125.3 22.25 125.65 22.35 125.65 22.9 124.8 23.95 122.1 25.95 116.55 29.1 110.9 28.65 110.65 28 111.45
M 44.9 26.8
Q 48.95 30.7 57.4 36.85
L 75.45 50.15 44.9 26.8
M 91.5 65
L 91.75 64.9
Q 89.7 63.65 86.9 61.65
L 75.7 54.15
Q 75.45 53.95 75.25 54 76.3 54.9 78.2 56.15
L 91.5 65
M 82.15 57.05
Q 85.9 59.75 89.15 62.5 83.65 57.05 76.55 52.65
L 73 50.45
Q 71.6 49.55 68.85 47.5
L 61.15 41.95
Q 61.35 42.35 62.1 43 65.65 46 71.95 50.15 80.05 55.6 82.15 57.05
M 9.85 -1.85
L 8.05 -1.85 22.55 15.6
Q 27.55 21.55 29.75 23.8 31.55 25.5 35.15 28.8 40.35 33.9 49.05 44.65
L 64 62.95
Q 68.1 68.05 69.35 69.7 74.65 77.05 75 77.55 76.3 79.2 80.05 83.4
L 84.95 88.6
Q 83.8 88.5 82.85 88.6 78.65 88.75 75.7 90.4 74.9658203125 90.756640625 74.25 91.25 73.27890625 91.92109375 72.35 92.85 70 92 66.95 92.95 65.1 93.55 61.55 95.5 54.4 99.6 45.8 103.05 40.6 105.1 36.4 106 34.9 106.35 31.85 106.85 28.75 107.4 27.25 107.7 25.05 108.1 20.75 109.45 14.75 111.3 11.65 112.85 6.75 115.3 4.4 118.8 4.4 118.85 4.35 118.9 4.1 118.85 3.85 118.9
L 2.5 119.3
Q 1.5 119.5 -0.55 119.55
L -0.55 120.75
Q 0.25 120.6 2.05 120.5 2.75 120.5 3.1 120.4 3.25 120.35 3.5 120.25 2.85 121.65 1.6 124.2 0.9 125.8 -0.55 128.55
L -0.55 131.4
Q 1.15 128.6 2.5 125.55 3.5 122.95 4.2 121.75 5.25 119.6 6.35 118.25 8.65 115.65 13.05 113.9 18.25 112.2 20.8 111.25 22.2 110.8 24.7 109.75 27.1 108.9 28.75 108.55 30.8 108.15 35 107.9 37.85 107.5 42.15 105.9 52.9 102.05 62.9 96.3 65.15 95 66.35 94.45 68.3 93.6 70.05 93.55 71.35 93.5 71.4 93.45 71.65 93.4 71.9 93.35 71.65 93.55 71.45 93.8 69.15 96.25 67.4 99.1 67.4 98.95 67.4 98.8 67.2 98.5 66.8 98.85 66.4 99.15 66.3 99.65 64.45 109 66.8 118.15 67.019921875 118.9560546875 67.35 120.3 67.46640625 120.7888671875 67.6 121.35 68.15 123.15 68.25 124.55 68.3 125.4 68.3 127.35 68.3 129.15 68.4 130.1 68.65 132.8 70.4 136.5 71.85 139.65 76.05 146.45
L 81.95 155.85 84.95 160.65
Q 86.95 163.3 87.5 164.3 88.25 165.55 88.55 166.7
L 89 167.45
Q 89 167.5 89.1 167.6
L 92.15 172.45 106.9 172.45
Q 107.9 169.4 109.2 166.2 111 162.25 112.05 159.7 118.6 161.45 118.7 161.5 119.15 161.6 119.85 161.75 119.75 163.15 120.05 165.5
L 120.75 172.25
Q 121.05 171.25 121.15 169.75 121.15 168.6 120.8 165.85 120.4 163.4 120.6 162
L 120.6 161.9
Q 121.35 162.1 122.25 162.25 122 163.9 122.3 166.55 122.8 170.45 122.8 170.8 122.85 171.45 122.85 172.45
L 124.05 172.45
Q 124.05 171 123.9 169.25 123.45 163.95 123.45 162.75 123.45 162.6 123.45 162.5 123.75 162.55 124.05 162.6 127.2 163.25 129.35 164.2 130.35 164.65 132.8 166.05 134.95 167.25 136.25 167.75 141.75 169.75 149.75 167.35 150.7 167.1 156.2 165.15 160.2 163.8 162.75 163.25 165.3 162.75 168.55 162.6 170.2 162.5 174.4 162.45 182.85 162.3 192.1 161.55 196.55 161.2 198.55 160.5 199.95 159.95 202.1 158.7 204.7 157.15 205.7 156.7 207.4 155.95 210.95 154.9
L 224.95 150.8 225 150.8
Q 225.4 150.75 225.65 150.6 225.85 150.5 225.85 150.3
L 225.8 150.25
Q 226.45 150.25 227.2 150.25 229.95 150.3 231.3 150.15 233.65 149.85 235.1 148.85 236 148.25 236.6 147.3 236.95 146.8 237.05 146.25 237.35 146.2 238.4 145.85 241.55 144.9 244.7 144.55 247.05 144.35 249.2 144.25 252.3 143.65 254.9 142 255.95 141.3 256.85 140.2 259.4751953125 137.0794921875 258.5 133.2 258.509375 133.1865234375 258.5 133.15 258.3 132.3 257.8 131.75 256.2 129.45 253.6 127.85 253.5 126.05 252.65 124.6 252.3748046875 124.032421875 251.95 123.55 251.1619140625 122.6748046875 249.85 122.15 244.6 119.9 238.95 120.6 235.4 121 232.25 121.95 232.35 121.9 232.45 121.8 232.6 121.8 232.6 121.7 232.65 121.5 232.6 121.3 231.3 120.25 229.75 119.45 229 118.95 228.15 118.8 223.708984375 117.5853515625 219.2 117.95 217.783203125 118.073046875 216.35 118.35 215.8 118.4 215.35 118.5 229.1 104.25 229.1 84.35 229.1 63.75 214.3 49.25 200.35 35.45 180.9 34.7 181.2 33.75 181.5 32.95 183.15 28.7 185.8 26.25 187.5 24.7 191.45 22.1 193.15 20.8 195.75 18.5 199.25 15.35 200 14.7 200.79453125 14.0232421875 202.75 12.55 204.1158203125 11.54921875 206.05 10.15 209.9 7.35 212 5.35 213.85 3.45 214.4 2.1 215.4 -0.15 214.5 -1.85
L 209.5 -1.85
Q 204.3 0.3 200.25 1.55 197.35 2.4 196.3 3 194.1 4.05 191.45 7 187.8 11.1 187.1 11.7 186.15 12.55 185.5 12.85 185.3 11.6 184.9 10.85
L 184.35 9.5
Q 183.95 8.45 183.85 6.3 183.85 4.7 184.05 4.1 184.35 3.35 184 3.3 184.1 3.15 184.15 3.05
L 183.95 2.8
Q 183.15 3 181.55 4.1
L 176.6 7.95
Q 175.8 8.4 175.5 8.9 174.85 9.75 174.65 11.25 174.5 12.3 174.7 13.1
L 174.75 13.2
Q 174.45 12.7 173.95 12.05 168.8 6.1 161.95 2.9 160.8 2.3 160 2.2 158.8 2.15 158.35 2.1 154.5 1.75 152.65 1.75 150.65 1.85 149.55 1.9 147.75 2 146.5 1.7 145.65 1.5 144.85 0.95 144.3 0.75 144.15 0.8 144 0.85 143.9 0.95 143.85 0.9 143.8 0.9 143.5 0.95 143.5 1.5 143.55 2.3 143.9 3.6 144.35 5.15 144.5 5.75
L 144.5 8.55
Q 144.6 10.75 145.65 12.65 145.95 13.25 147.25 14.85
L 149.2 17.35
Q 150.5 19.05 151.6 19.95 154.05 22 159.15 22.75 163.1 23.3 163.3 23.35 165.55 23.75 167.15 24.5 168.35 25 170.55 26.3
L 174.7 28.8
Q 176.25 29.85 176.85 30.3 177.95 31.5 178.5 33.4 178.65 33.95 178.8 34.65 178.75 34.65 178.7 34.65 157.85 34.65 143.15 49.25 141.85 50.45 140.75 51.7 140.95 50.85 140.85 49.7
L 140.85 49.65
Q 140.8 49.2 140.7 48.7 139.8 45.55 139.4 42.25 139.3 41.05 139.2 39.9 137.75 30.25 132.95 22 132.45 21.05 131.9 20.25 131.95 19.8 131.85 19.1
L 130.5 11.15 127.95 2.05
Q 127.8 1.5 127.25 0.4 126.85 -0.65 126.2 -1.85
L 124.9 -1.85
Q 125 -1.7 125.1 -1.45
L 126.35 1.05 128.95 10.3
Q 129.35 11.6 129.5 13.05 129.8 15.4 130.05 16.3
L 130.5 17.75
Q 124.65 7.85 118.6 -1.85
L 117.35 -1.85
Q 122.1 6.5 127.5 14.35 129.7 17.5 131.4 20.75
L 131.5 21.05 131.55 21.05
Q 136.6 30.8 138.05 41.95 138.1 42.6 138.15 43.35 138.4 44.75 138.7 46.25 139.05 48.3 139.4 50.55 139.55 51.45 139.25 52.2 137.45 56.15 134.85 59.75 128.9599609375 69.6724609375 128.4 81.8 128.35 83.069140625 128.35 84.35 128.35 98.4 135.25 109.7 135.05 109.65 134.85 109.65
L 133.5 109.65
Q 133.05 109.45 132.55 109.35 132.35 109.35 130.95 109.2 129.45 109.1 125.65 108.1 125.0013671875 107.9619140625 124.4 107.85 122.84453125 107.5724609375 121.65 107.5 121.35 107.35 121.1 107.2 121.05 107.1 121.05 106.95 121.05 98.5 120.95 89.95 120.75 77.1 119.05 64.4 117.4 50.85 112.9 37.7 108.7 25.65 102.7 14.4 98.5 6.3 94.3 -1.85
L 93.15 -1.85
Q 96.75 6.15 100.85 13.9 107.55 26.85 112.15 40.75 115.95 52.15 117.3 64.05 119.5 84.55 119.7 105.2 119.4 104.7 119.2 104.25 117.6322265625 101.114453125 115.25 98.55 114.8078125 98.0923828125 114.35 97.65 111.45 94.95 107.25 93.05
L 105.25 92.2
Q 104.2 84.1 101.4 76.55 96.45 62.85 88.45 50.45 83.9 43.3 79.3 36.4 72.35 26.2 66.1 15.5 59.25 4.95 54.45 -1.85
L 52.8 -1.85
Q 53.65 -0.45 55 1.35 56.25 3.05 59.05 7.3
L 64.6 15.65
Q 67.15 19.65 69.75 23.65 71.15 26 72.15 28.65
L 68.85 24.4
Q 68.7 25 69 25.4 73.2 32.45 78.25 38.95 87.75 51.15 94.85 64.85 101.4 77.45 103.65 91.65
L 101.25 90.95
Q 96.85 89.9 90.45 89.05 87.6 88.75 85.5 88.65 84.25 85.7 81.3 82.2 77.25 77.9 75.4 75.6 74.35 74.2 72.75 72.05 71.05 69.55 70.2 68.35 67.5 64.8 64.7 61.4
L 43.4 35.3
Q 40.1 31.35 38.7 30 37.65 28.9 35.7 27.25 33.55 25.35 32.7 24.6 30.7 22.65 26.4 17.65
L 9.85 -1.85
M 210.6 1.7
L 207.25 3.7
Q 204.5 5.4 199.35 8.85 199.55 8.55 199.75 8.2
L 200.9 6.35
Q 202.35 4.4 203.6 1.85 207.3 0.6 213 -1.8 214.15 -0.4 213.35 1.65 212.7 3.1 211.1 4.45 209.15 6.3 205.45 8.8 205.132421875 9.034375 204.8 9.25 203.13828125 10.501171875 201.95 11.35 201.2 10.9 200.5 10.55 200.0009765625 10.2171875 199.45 10 199.359375 9.9419921875 199.25 9.9 203.75 6.8 207.4 4.55
L 211.15 1.8
Q 211.15 1.45 210.6 1.7
M 201.6 4.6
Q 201.1 5.45 200.9 5.65 200.8 5.8 200.05 6.9 199.2 7.95 198.9 9.25 196.7 10.75 194.1 12.6
L 193.2 13.2 189.15 16.05
Q 189.1 16.1 189 16.15 188.9 16.15 188.75 16.15 188.75 16.2 188.75 16.3 187.2 17.55 186.7 17.95 186.1 18.5 185.55 19.15 185.7 18.2 185.85 17.4 185.8615234375 17.0076171875 185.85 16.6 185.819140625 15.2728515625 185.55 13.85 186.7 13.55 188.05 12.4 189.8 10.8 191 9.45 193.5 6.65 193.55 6.6 194.35 5.8 195.15 5.25 192.9 7.6 189.85 12.35 188.642578125 14.179296875 188.5 15.45 188.4560546875 15.94765625 188.55 16.35 188.6390625 16.0533203125 189.1 15.2 189.4123046875 14.633203125 189.9 13.8 193.6 7.3 196.25 4.75
L 196.05 4.6
Q 196.25 4.4 196.55 4.25 197.7 3.6 200.95 2.65 202.05 2.35 203.55 1.85 202.05 3.85 201.6 4.6
M 197.85 10.85
Q 198.3908203125 10.489453125 198.9 10.15 198.9 10.2 198.95 10.2
L 199 10.2 199.35 10.4
Q 200.2 10.75 201.65 11.6 200.35 12.55 199.75 13.05 198.5 14.05 195.65 16.65 195.25 17.1 194.8 17.5
L 189.85 16.4
Q 190.35 16.05 190.8 15.7
L 193.9 13.55
Q 195.9482421875 12.13203125 197.85 10.85
M 182.45 4.8
Q 182.9 4.4 183.15 4.15 183.1 4.3 183.1 4.55 182.45 5.25 182.25 5.75 182.05 6.4 181.95 7.5 181.85 8.7 181.7 9.25
L 181.35 10.35
Q 181.3380859375 10.4216796875 181.3 10.55 181.3 10.9484375 181.3 11.9 181.3 12.55 181.05 13.95
L 180.05 25.2
Q 179.9 24.95 179.8 24.7 179.65 24.3 178.45 22.6 177.65 21.35 177.6 20.4
L 177.6 19.3 177.3 18.3
Q 177.1 17.65 177 16.15 176.9 15.7 176.8 15.3 177.1 15.7 177.25 15.85
L 177.7 16.3 178.15 17
Q 178.3 17.35 178.85 17.9
L 179.35 18.85
Q 179.8 19.45 180.2 19.5 179.3142578125 17.6353515625 178 16 177.8982421875 15.8685546875 177.8 15.75 176.85 14.4 176.8 14.3 176.5 13.7 176.2 13.5 176.05 13.05 175.95 12.8 175.7 11.95 175.75 11.3 175.9 10 178.05 8.3
L 182.45 4.8
M 182.9 7.7
Q 182.9 8.85 183.1 9.85
L 183.45 10.95
Q 183.9 12.2 184.25 13.3 184.15 13.35 184.15 13.4 184.15 13.5 184.3 13.6 184.4802734375 14.8615234375 184.5 16.05 184.55 16.539453125 184.55 17 184.55 18.55 184.4 19.3 184.15 20.3 183.45 21.75 182.35 23.65 181.85 24.65 180.6 27.05 180.6 28.9
L 181.25 28.15 183.25 24.5
Q 184.7 22.15 184.8 22 185.1 21.4 185.4 20.1 186.75 18.6 189.4 16.8 190 17.1 191 17.25 193.15 17.65 194.45 17.8 192.7 19.3 191.55 20.25 187.65 22.9 185.85 24.5 182.4 27.45 180.55 31.5 180.4 31 180.2 30.55 180.2 30.05 180.25 29.5 180.25 29.25 180.3 29.05 180.45 28.8 180.45 28.3 180.45 27.9 180.4 27.55 180.55 26.35 180.65 25.6
L 181.2 23.65
Q 181.25 23.25 181.25 21.2
L 181.4 19.5
Q 181.45 19.4 181.55 19.3
L 181.85 18.75
Q 182 18.6 182.75 17.85 183.15 17.4 183.85 15.5
L 184.15 14.45
Q 184.004296875 14.4134765625 183.8 14.45 183.7677734375 14.509375 183.7 14.55
L 183.55 15
Q 183.1 16.75 182.55 17.3 181.75 18.05 181.5 18.6 181.5 18.65 181.45 18.75 181.7 15.85 181.85 14.35
L 182.8 6.55
Q 182.85 6.35 183 6.1
L 182.9 7.7
M 163.05 4.9
Q 165.75 6.5 168.25 8.4 168.351171875 10.605078125 168.4 12.6 168.5203125 15.61015625 168.55 18.2 168.55 19.55 168.85 20.35 164.9 17.7 162.05 15.95 162.3322265625 12.6248046875 161.65 9.45 161.2453125 7.54453125 160.5 5.7 159.95 4.2 159.9 3.6 159.9 3.55 159.9 3.5 160 3.5 160.1 3.55 161.35 3.85 163.05 4.9
M 170.35 16.45
Q 170.25 16.35 170.15 16.5
L 170.1 16.75 170.1 21.15
Q 169.85 21 169.55 20.8 169.4 20.7 169.3 20.65
L 169.25 20.4
Q 169.25 20.35 169.1 18.2
L 168.9 12.9 168.75 8.9
Q 171.3 10.95 173.6 13.35 174.7 14.6 175.15 14.9 175.2 14.65 175.2 14.4 175.4951171875 15.3271484375 175.8 17.55 175.887109375 17.98671875 175.95 18.45
L 176.25 20.25
Q 176.65 21.95 177.05 22.75 177.2 23 178.35 24.6 179.35 25.95 179.85 27.6
L 179.75 28.2
Q 179.75 28.9 179.75 29.6 178.7 27.75 176.9 26 175.5 24.7 173.35 23.25 173.05 23 170.2 21.2
L 170.35 21.2 170.35 16.45
M 165.4 22.35
Q 166.15 22.2 166.7 21.95 166.95 21.8 166.9 21.7 166.5 21.6 165.65 21.8 164.9 21.95 163.8 22.05 160.9 21.65 159.5 21.4 154 20.4 151.65 18.1 151.1 17.6 150.3 16.6 149.55 15.55 149.15 15.05 148.7439453125 14.5626953125 148.4 14.15 147.9064453125 13.5251953125 147.55 13.05 147.94140625 13.1240234375 148.3 13.2 151.4298828125 13.7763671875 152.95 14 155.7 14.4 158 14.55
L 161.55 16.85
Q 161.55 17.1 161.55 17.35 161.75 17.4 161.9 17.05
L 174.75 25.2
Q 177.9 27.7 179.75 31 179.75 32.3 179.85 33.25 180 32.65 180.1 31.7 180.2 31.85 180.3 32.15 180.05 32.65 179.85 33.25 179.85 33.3 179.85 33.35 179.8 33.3 179.8 33.2 179.5 31.2 178.25 29.75 177.35 28.65 174.85 27.15
L 171.05 24.9
Q 169.05 23.65 168 23.15 166.8 22.7 165.4 22.35
M 175.55 36
Q 177.1 35.9 178.65 35.9 198.95 35.9 213.3 50.05 217.5 54.25 220.45 58.9
L 220.25 65.85
Q 220.15 66.55 220.35 67
L 221.15 68.25
Q 221.25 68.4 221.35 68.55 221.05 68.3 220.55 68 220.1 67.75 219.75 67.25
L 219.25 66.6
Q 219.05 66.15 219.15 65.25 219.25 63.95 218.85 63.25 218.5 62.65 217.95 62.6 217.95 62.75 217.75 62.75 218.15 62.9 218.35 63.45 218.55 64.15 218.45 66.3
L 218.55 67
Q 218.75 67.45 219.15 67.85 220.1 68.8 221.55 69.05 221.7 69.45 221.75 69.95 221.75 70.1 221.75 71.2 221.7 71.95 221.85 72.4 221.95 72.75 222.6 73.65
L 224.5 75.85
Q 225 76.45 225.4 77.15 225.55 77.3 225.9 78.2 226.2 78.75 226.45 79.1
L 227.1 80.05 227.3 80.75
Q 227.35 80.8 227.45 81.1 227.55 82.65 227.55 84.2 227.55 104.2 213.3 118.35 211.189453125 120.408203125 208.95 122.15 208.6978515625 122.37421875 208.45 122.55 202.4037109375 127.2216796875 195.5 129.7 192.8 129.6 189.45 129.8 181.7 130.4 181.1 130.45 176.35 130.55 173 129.7 170.15 128.85 168.65 128.55 166.65 128.15 164.25 128.15 161.2 128.1 158.25 128.25 157.648828125 127.978515625 157.05 127.7 149.999609375 124.253515625 144.05 118.35 140.7654296875 115.0998046875 138.2 111.55 129.75 99.60625 129.75 84.2 129.75 84.1259765625 129.75 84.05 129.785546875 70.7404296875 136.2 60
L 139.05 55.8
Q 141.2 52.8 144.05 50.05 145.9 48.25 147.9 46.7 147.8 46.9 147.75 47.1 147.4 47.85 146.5 49.1 146.1 49.85 146.05 50.85 145.9 51.7 145.9 54.7 146.05 55.4 145.85 55.95
L 145.65 56.55 145.55 57.6
Q 145.55 58.8 146.1 59 146.35 59.1 146.8 59.2 147.2 59.35 147.1 60.15 147.1 61.15 147.2 61.3 147.3 61.45 147.95 61.75 148.55 62 149 62.4 149.9 63.3 150.15 63.4 150.3 63.45 150.5 63.5 150.7 64.2 150.95 64.7 151.5 65.8 153.55 66.85 155.5 67.85 156.4 68.05 156.85 68.15 157.9 68.2 158.8 68.3 159.35 68.45 160.45 68.9 162.1 70.75 166.65 75.6 171.15 76.25 172.35 76.45 172.9 76.65 173.75 77 173.9 77.7 174.1 78.5 173.25 79.5 172.3 80.65 171.8 81.25 171.05 82.35 171.15 83.35 171.2 83.7 171.45 84.45 171.75 85.15 171.8 85.55 171.95 86.05 171.8 86.8 171.75 87.3 171.55 88.15 171 92.8 176.9 97.55 178.35 98.75 178.9 99.35 180 100.4 180.35 101.5 180.8 102.85 180.3 105.55
L 179.65 109.35
Q 179.3 111.05 179.5 111.9 179.65 112.35 180.4 113.75 181 114.9 180.95 115.6 180.95 116.35 180.05 117.9 179.3576171875 119.1548828125 179.05 120.5 178.73125 122.249609375 179.1 124.15 179.1 124.25 179.15 124.35 178.95 124.65 179.15 125.15 179.5 126.05 180.3 126.15 181.5 126.3 183.05 124.95
L 186.85 121.9 190 119.4
Q 191.25 118.5 191.9 117.65 192.25 117.1 192.65 116.3 192.95 115.4 193.15 115 194.8 111.75 198.05 110.1 198.5 109.8 202.15 108.4 204.7 107.5 205.85 106.2 206.05 106 206.3 105.7 206.3 106.25 205.8 106.65 205.35 107.1 205.35 107.15 205.9 107.25 206.1 107.1 206.35 106.95 206.45 106.55
L 206.75 105.85 206.5 105.6 206.35 105.65
Q 206.75 105.1 207.3 104.3 208.05 103 208.55 102.4 209.15 101.75 210.15 101.05 210.7 100.6 211.9 99.9 214.3 98.15 215.3 95.95 216.45 93.25 215.05 90.95 214.65 90.4 213.95 89.7 213.05 88.95 212.7 88.5 211.1 86.85 210.25 86.05 208.8 84.6 207.55 83.9 205.55 83.25 204.75 82.8 203.3 82.05 201.5 80.3 198.05 76.95 196.25 75.75 193.1 73.55 190.15 73.4 188.95 73.4 188.3 73.35 187.35 73.2 186.7 72.8 185.85 72 185.35 71.65 184.45 71.1 183 71.3 179.9 71.5 177.6 73.2 176.2 74 175.85 74.05 175.3 74.15 173.85 73.55
L 167.25 69.95
Q 167.45 68.15 166.1 67 166.45 65.5 166.4 64.05 166.4 63.15 165.95 62.9 165.55 62.65 164.85 63.05 164.3 63.3 163.35 64.15 162.4 64.8 161.85 65.1 160.95 65.55 160.1 65.4 159 65.25 158.6 64.5 158.15 63.5 159.1 61.7 159.9 60.3 159.95 59 159.95 58.5 159.85 58.1 160.5 57.4 161.55 57.1 162.25 56.9 164.05 56.9 165.7 56.95 166.5 56.6 167.05 56.3 168.05 55.65 169 55.2 169.7 55.5 169.75 55.75 169.7 56.8 169.6 57.55 169.95 57.85 170.25 58.15 171 58.2 171.75 58.25 172.1 58.45 172.45 58.65 172.65 59.1 172.75 59.3 172.95 59.9 173.1 60.3 173.55 60.5 173.95 60.7 174.25 60.4
L 174.2 60.25
Q 174.35 60.25 174.55 60.15 174.65 59.8 174.3 59.7 174.5 59.45 174.25 59.05 174 58.35 173.8 56.85
L 173.6 55.15
Q 174.25 54.8 175.1 53.9 175.9 52.8 176.5 52.5 176.7 52.45 178.4 51.95 179.65 51.5 179.95 50.75 180.05 49.8 180.25 49.45 180.55 48.85 182 48.45 183.4 48.1 183.75 47.55
L 184.1 46.7
Q 184.45 46.1 185.45 45.65 186.85 45 190.5 44.8
L 192.4 44.75
Q 192.95 44.7 193.2 44.65 194.65 44.7 196.3 44.65 196.75 44.65 197.05 44.55 197.55 44.15 197.45 43.4 197.4 42.2 196.35 41.3 195.1 40.15 192.5 40.35 191.6 40.35 191.4 40.3 191 40.15 190.4 39.25 189.05 37.6 187.45 37.6 187.2 37.6 185.8 37.85 185.2 37.95 183.8 37.95
L 178.4 37.95
Q 178.3 37.45 177.4 37
L 175.55 36
M 177.9 38.9
Q 178.2 39 179.25 39.1
L 183.95 39.1
Q 185.5 39.1 186.2 39 188 38.8 188.6 39.1 189.05 39.35 189.75 40.3 190.4 41.2 190.9 41.4 191.15 41.5 191.6 41.5
L 194.15 41.6
Q 194.65 41.6 195.05 41.75 195.45 41.95 195.95 42.8
L 196.3 43.5
Q 195 43.75 193.55 43.65
L 193.5 43.6
Q 193.2 43.4 192.95 43.5
L 192.3 43.55
Q 191.5 43.45 190.8 43.25 189.75 42.95 189.25 43.35 189.55 43.5 189.8 43.65 187.05 43.85 186.1 44.2 183.9 44.9 183.1 46.5
L 182.65 47.1
Q 182.4 47.4 181.4 47.5 179.95 47.75 179.4 48.75 179.1 50.05 178.65 50.6 178.35 50.95 177.65 51.1 176.45 51.35 176.3 51.4 175.7 51.6 175.15 52.3 174.4 53.1 174 53.5 173.4 54 173.1 54.4 172.55 55.25 172.8 56.15 173.1 57.2 173.1 57.25 173.1 57.4 173.15 57.65 172.75 57.4 172.05 57.25 171.05 57.1 170.8 57 170.75 56.75 170.8 55.8 170.9 55.05 170.65 54.65 170.3 54.3 169.35 54.3 168.5 54.2 167.95 54.4 166.85 55 166.3 55.3 165.45 55.75 163.7 55.8 161.75 55.9 160.95 56.15 160.05 56.6 159.4 57.25 159.1 57 158.8 56.85 158.9 57.35 158.95 57.9 158.75 58.3 158.65 58.7 158.5 59.35 158.75 59.7 158.65 60 158.55 60.3 158.35 61 157.6 62.4 157.1 63.7 157.35 64.65 157.7 65.8 158.85 66.3 160.1 66.8 161.2 66.55 162.9 66.25 165.35 64.15 164.75 68.05 166.6 70.5 167.45 71.4 168.35 72.05 169.1 72.5 170.65 73.15 172.2 73.85 172.85 74.25 173.3 74.55 174.35 75.25 175.3 75.7 175.95 75.55 176.65 75.45 178 74.4 180.95 72.3 184.6 72.6 185.5 74.25 187.95 74.55 189.3 74.75 192 74.9 194.55 75.4 197.45 78.3 201.45 82.15 202.5 82.85 203.2 83.35 206.1 84.75 208.35 85.9 209.45 86.95 209.85 87.4 210.6 88.35 211.35 89.3 211.85 89.7 212.2 90.05 212.95 90.7 213.65 91.2 213.95 91.75 214.85 93.05 214.25 94.9 213.75 96.5 212.4 97.7 211.9 98.2 209.7 99.8 208.05 101 207.3 102 206.1 103.8 205.4 104.65 203.95 106.4 199.6 108.05 195.2 109.75 193.7 111.45 192.95 112.3 192.2 113.95 191.25 115.8 190.75 116.55 189.8 117.95 187.05 120
L 180.5 124.9
Q 180.4 124.45 180.1 124.25 180.166796875 122.21171875 180.45 120.8 180.634375 120.097265625 180.85 119.55 181.75 117.7 182.1 116.75 182.65 115.15 182.2 113.95 182.05 113.6 181.45 112.75 180.9 112 180.75 111.45 180.6 110.9 180.95 109.4 181.65 106.8 181.8 103.95 182 101.35 181.2 99.9 180.65 98.95 179.65 98.15 178.35 97.15 177.7 96.65 175.35 94.75 173.7 91.95 172.8 90.35 172.8 89 172.8 88.6 173.1 86.9 173.3 85.7 173.1 84.9 172.6 84 172.5 83.55 172.35 82.65 173.05 81.65 173.55 80.95 174.65 79.35 175.55 78.1 175.15 77 174.75 76.1 173.55 75.55 172.95 75.3 171.25 74.9 167 73.95 164.05 70.8 163.05 69.55 162.45 69 161.5 68.05 160.65 67.65 160 67.3 157.4 66.8 155.7 66.4 154.35 65.9 153 65.25 152.2 64.4 151.75 63.95 151.55 63.35 151.55 63.3 151.6 63.3
L 151.45 63.1
Q 151.15 62.25 151.2 61.25 151.2 59.85 151.8 57.6 150.75 58.6 150.45 61.25 150.4 61.65 150.4 61.95 149.9 61.45 149.45 61.1 148.45 60.4 148.35 60 148.4 59.15 148.3 58.75 148.15 58.1 146.85 57.65 147.15 56.85 147.15 54.65
L 147.15 52.25
Q 147.15 51.35 147.2 51.15
L 147.35 50.4
Q 147.9 48.95 148.05 48.7 148.4 48.25 148.5 48
L 149.2 45.6
Q 159.35 37.8 172.25 36.3 175.2 36.65 176.8 38 177.7 38.8 177.9 38.9
M 224.05 73.2
Q 223.15 72.3 223 71.6 222.9 71.25 222.95 70.35 223 69.45 222.9 69 222.8 68.6 222.4 67.95 221.95 67.2 221.85 66.9 221.6 66.4 221.5 64.6
L 221.45 60.45
Q 226.1 68.5 227.25 78.05 227.1 77.6 226.75 76.85 226.3 75.9 225.25 74.75
L 224.05 73.2
M 211.25 122.3
Q 211.8625 121.8203125 212.45 121.3 213.226171875 120.588671875 214 119.85
L 216.5 119.75
Q 216.5 119.65 216.65 119.6 218.6 119.45 220.6 119.35 226.85 118.45 231.7 122.5
L 226.95 124.25
Q 226.6 124.35 226.2 124.5 224.300390625 125.0734375 223.05 125.6 222.546484375 125.8376953125 222.15 126.05 221.85 126.15 221.8 126.35
L 221.8 126.4
Q 221.6 126.4 221.4 126.45
L 216.75 127.05
Q 214.5 127.55 213.4 127.8
L 211.45 128.1
Q 210.1 128.4 207.85 129.15 207.45 129.3 207.05 129.45
L 204.65 129.05
Q 203.4 128.8 202.3 128.45 206.9787109375 125.921875 211.25 122.3
M 221.15 130.15
L 220.95 130.3
Q 218.9 129.95 216.8 129.9
L 213.75 129.95
Q 207.35 130.35 203.95 131.4 203.9 131.4 203.85 131.45 201.65 130.45 199 130.05 200.05 129.6 201.05 129.1 203.05 129.9 205 130.05 204.55 130.2 204.25 130.25
L 203.8 130.45
Q 203.55 130.65 203.75 130.85 204.7 130.95 205.9 130.65 205.95 130.65 208 130.05 209.35 129.6 212.05 129
L 217.1 128.05
Q 219.15 127.65 220.35 127.55
L 222.8 127.3
Q 223.58671875 127.1251953125 224.65 126.35 224.836328125 126.22578125 225 126.1
L 226.9 125.55
Q 228.05 125.15 228.85 124.95 229.2 124.9 229.5 124.7 233.45 122.95 237.3 122.35 243.1 121.15 248.65 123.2 249.0662109375 123.338671875 249.45 123.55 249.896875 123.8005859375 250.3 124.15 251.9 125.55 252.3 127.35
L 249.7 126.05
Q 249.5 126.05 249.35 126.1 249.25 126.2 249.15 126.35
L 249.15 126.4
Q 246.2 125.3 243 125.3 238 125.35 233 126.6 231.35 127 229.55 127.45 224.15 128.95 221.15 130.15
M 213.05 131.55
Q 217.95 131.2 221.6 132.05 225.05 132.7 228.75 134.7 230.5236328125 135.719921875 231.45 136.55 231.592578125 136.692578125 231.7 136.8 232.3 137.35 233.55 139.2 234.8 141.05 235.2 142.1 235.95 143.9 235.75 145.35 235.75 145.55 235.75 145.85 235.25 147.4 233.25 148.15 231.8 148.65 229.3 148.65
L 226.5 148.7
Q 215.25 148.8 209.15 149.6 207.35 149.9 205.25 150.35 205.2 150.2 204.95 150.15 204.5 150 203.95 150.15
L 189.45 153.95
Q 184.65 155.15 182.75 155.4 178.35 156.05 171.75 155.4 164.55 154.6 160.9 154.4 158.85 154.2 155 154.2 152.15 154.25 150.8 154.45 148.4 154.75 146.7 155.55 147.25 156.1 148.6 155.75 154.5 154.65 166.2 156 178.15 157.2 183.8 156.3
L 188 155.35
Q 194.55 153.8 201.2 151.9 201.3 151.9 201.5 151.9 202.2 151.9 203.45 151.7 214.1 150.25 224.65 150.25
L 224.3 150.35
Q 222.75 150.2 221.05 150.45 219.3 150.7 216.45 151.7
L 210.05 153.75
Q 205.2 155.35 203.4 156.4 200.6 158.05 199.15 158.65 197.45 159.4 195.2 159.75 193.85 159.95 191 160.15 180.65 161.05 174.5 161.1 170.05 161.15 167.85 161.25 163.9 161.4 161.1 162 158.85 162.5 155.65 163.75 150.9 165.5 150.1 165.75 143.35 167.95 138.7 166.85 136.6 166.35 133.85 164.85 129.85 162.85 129.05 162.5 126.95 161.6 123.85 160.95 120.3 160.2 118.6 159.8 115.25 158.95 112.75 158.25 109 157.2 106.65 156.6 102.45 155.55 99.1 155.25 98.95 155.15 98.65 155.1
L 98.5 155.2
Q 96.45 155 94.55 155.1 91.25 155.35 84.4 157.2
L 77.15 145.65
Q 73.35 139.25 71.9 136.15 71.6 135.5 71.35 134.9 72.45 136.1 74.55 137.45
L 78.1 140.05
Q 78.35 140.3 78.5 140.1 77.5 139.05 74.65 137 71.95 135.15 70.9 133.75 70.85 133.65 70.8 133.6 70.65 133.3 70.55 133 75.8 137.35 82 141.35 81.15 140.15 78.35 138.15 74.6 135.5 70.2 131.85 69.9 130.7 69.8 129.65 69.75 128.65 69.75 126.85 69.75 124.85 69.7 124 69.5 121.9 68.6 118.6 68.535546875 118.3787109375 68.45 118.15 67.4388671875 114.5744140625 67.25 113.3 66.95 110.9 66.95 107.25 67.05 103.55 67.25 100.35 67.9 100 68.55 99.35 69 98.9 70.1 97.35 72.3572265625 94.1255859375 75.1 92.35 75.3599609375 92.1916015625 75.6 92.05 79.05 90.05 83.85 89.95 87.3 89.85 92.55 90.8 93.1 90.85 93.65 90.95 92.1 91 91.3 91.15 89.4 91.5 88.4 92.4 87.5 93.05 87.85 93.6 88.45 93.7 89.15 93.3 89.6 93.1 90.45 92.6 91.1 92.3 93 92.2 96.8 92.1 98.85 92.8 100.95 93.6 103.1 95.8 104.55 97.35 105.15 98.6 105.6 99.7 105.85 101.55 106.15 103.9 106.35 104.55
L 107.7 109.2
Q 108.25 111.4 108.2 112.6 108.1646484375 114.4060546875 106.9 116.55 106.3794921875 117.4517578125 105.65 118.4 104.35 120.2 102.9 121.15 101.4 122.15 99.05 122.45 98.15 122.5 94.75 122.55 90.3 122.6 84.45 123.65 81.35 124.2 80.05 125.35 81.9 125.5 84.6 125 87.45 124.65 89.95 124.45 87.65 125.65 86.3 126.55 85.35 127.2 85.2 127.7 85.6 127.65 86.15 127.35
L 90.35 124.9 91.75 124.4 91.7 124.3
Q 94.4 124 96.75 123.95 99.1 123.9 99.7 123.85 101.35 123.6 102.5 123.05 102.908984375 122.8916015625 103.3 122.65 104.472265625 121.9880859375 105.65 120.7 109.45 116.75 109.65 112.95 109.65 111.45 109.1 109.05
L 107.1 100.6
Q 106.55 98 105.85 96.8 104.85 95 101.9 92.95 101.7 92.75 101.4 92.6 102 92.75 102.65 92.9 103.55 92.9 104.1 93.35 104.6 93.8 104.6 94.45 104.8 94.55 105.25 93.7
L 106.75 94.3
Q 111.4 96.4 114.5 100.1
L 119.8 107.95 119.8 108.7
Q 119.166015625 108.346484375 118.5 108.05 116.9244140625 107.4251953125 115.25 107.3 114.8583984375 107.292578125 114.45 107.3 114.1 107.4 113.75 107.55
L 119.75 109.6
Q 119.95 109.65 120.1 109.75
L 120.5 110.25
Q 120.65 110.4 121.2 110.6
L 121.8 111.15
Q 122.5390625 111.8890625 123.95 113.05 124.462890625 113.4802734375 125.05 113.95
L 125.05 113.95
Q 126.214453125 115.0654296875 128.25 117.25
L 130 118.75
Q 130 118.4 129.7 118
L 127.85 115.6
Q 127.9 115.6 127.95 115.65 127.1 113.8 124.95 111.55 124.8494140625 111.4439453125 124.75 111.35 123.0482421875 109.545703125 122.15 108.6
L 122.55 108.65
Q 123.3583984375 108.777734375 124.5 109.05 126.0669921875 109.4392578125 128.25 110.1 130.7478515625 110.6322265625 132.7 110.35 133.142578125 110.299609375 133.55 110.2
L 134.95 110.15
Q 135.25 110.15 135.5 110.1 135.79921875 110.5748046875 136.1 111.05 139.07734375 115.52265625 143.15 119.55 146.25 122.65 149.75 125.1 148.25 124.65 145.95 124.1
L 140.9 122.85
Q 138.85 122.5 137.15 122.35 137.1 122.35 137.05 122.35
L 137.05 122.3
Q 137.05 120.45 137 120.1
L 136.9 120.1
Q 136.9 120.05 136.9 119.95 136.9 118.1 136.5 117.3 136.35 117 136.2 116.85 135.8 116.7 135.75 117 135.7 117.1 135.8 117.4 136.25 118.45 136.25 120.4 136.25 121.5 136.3 122.3 135.05 122.25 133.1 122.25
L 130.05 122.45
Q 129.7 122.45 129.55 122.6 129.45 122.75 129.5 122.95 129.6 123.1 129.75 123.2 129.95 123.3 130.4 123.3 133.9630859375 123.3 137.8 123.85 139.1712890625 124.0423828125 140.55 124.3
L 147.3 126 150 126.7
Q 152.25 127.5 152.9 127.85
L 153.65 128.35 153.95 128.55
Q 153.1001953125 128.6208984375 152.25 128.7 147.7158203125 129.165234375 143.25 130.05 142.75 130.15 142.7 130.4 142.6 130.65 142.9 130.8 143.25 130.95 143.55 130.9 143.9138671875 130.8791015625 144.3 130.85 148.627734375 130.5748046875 156.6 129.75 164.3 129.2 169.6 130.3 170.75 130.55 172.6 131 172.55 131 172.5 131.05
L 170.9 132.2
Q 169.45 133.4 168.85 134.3 168.1 135.7 168.4 137.1
L 168.7 136.4
Q 169.15 135.15 169.45 134.65 169.75 134.15 170.8 133.1 172.3 131.75 173.6 131.25 174.15 131.4 174.75 131.55 178.7 132.2 187.9 131.45 196.3 130.7 200.75 131.95 202.65 132.35 203.15 132.45 203.85 132.55 204.5 132.5 204.45 132.55 204.35 132.6 202.8 133.85 201.4 135.35 199.8 137.25 200 138.7 201.7 134.85 205.3 132.45 205.25 132.35 205.2 132.35
L 205.25 132.3
Q 212.1 131.6 213.05 131.55
M 233.45 136.45
Q 233.31796875 136.2896484375 233.15 136.1 232.4953125 135.420703125 231.4 134.65 227.3 131.75 222.5 130.6 229.45 128.4 234.8 127.3 238.85 126.35 243.15 126.35 249.1 126.4 254 129.65 256.0431640625 130.96953125 256.85 133.05 256.9958984375 133.4134765625 257.1 133.8 257.75 135.75 256.85 137.4 256.2 138.75 255 139.85 252.35 142.15 248.95 142.75 243.2 142.75 237.75 144.6 237.35 144.75 237.1 144.95 237.25 142.75 236.65 141.45 236.4 140.8 235.7 139.85
L 233.45 136.45
M 157.9 3.3
Q 158.55 3.35 159.1 3.4 159.05 3.85 159.25 4.4 159.35 4.75 159.9 5.9 160.5142578125 7.3740234375 160.85 9.15 161.0841796875 10.2654296875 161.2 11.5 161.45 13.05 161.55 15.6 160.65 15.05 159.9 14.6 160.25 14.6 160.4 14.45
L 159.4 14.3
Q 159.3 14.25 159.15 14.2
L 155.55 12.05
Q 152.5552734375 10.2625 150 8 147.05703125 5.391015625 144.7 2.15 146.45 3.15 148.9 3.25 148.95 3.25 153.55 3.1 155.05 3.1 157.9 3.3
M 145.1 3.8
Q 145.7 4.7 146.65 5.65 147.964453125 7.0203125 149.35 8.25 152.944140625 11.51484375 157.05 14
L 150.1 13
Q 149.109375 12.85 148.25 12.8 147.7294921875 12.75 147.25 12.75 147.15 12.6 147.05 12.45 145.95 10.85 145.7 9.45 145.6 8.8 145.6 7.85 145.6 6.4 145.6 6.2 145.55 5.3 145.1 3.8
M 120.55 108.9
Q 120.646875 109.0455078125 120.75 109.15 120.6453125 109.0484375 120.5 109
L 120.4 108.95
Q 120.5 108.9 120.55 108.9
M 101.8 157.1
Q 101.75 157.1 101.75 157.15 101.25 158.25 101.15 158.35 101 158.8 100.65 159.05
L 100.2 159.5 99.95 159.9
Q 99.8 160.3 99.25 161.05 98 162.55 96.75 163.55 96.05 164.05 94.05 165.2 92.9 165.8 92.25 166
L 91.15 166.3
Q 90.65 166.6 90.3 166.8
L 87.8 162.8
Q 88.9904296875 162.49140625 90.1 162 91.5361328125 161.438671875 92.85 160.6
L 98.2 156.6
Q 99.05 156.65 99.9 156.8 96.4486328125 160.6828125 92.6 163.85 92.465234375 164.013671875 92.3 164.15 92.5384765625 164.0998046875 92.8 164 93.563671875 163.72421875 94.5 163.05 95.7 162.2 98.1 159.65
L 100.65 156.9
Q 101.2 156.95 101.8 157.1
M 96.65 156.55
L 95.1 157.6
Q 92.2 159.6 90.65 160.45 89.8443359375 160.8650390625 89 161.2 88.12109375 161.544140625 87.2 161.8
L 85.05 158.3
Q 85.0833984375 158.29140625 85.1 158.25 87.818359375 157.595703125 89.3 157.25 92.9 156.55 95.8 156.55 96.2 156.55 96.65 156.55
M 128.55 141.65
Q 124.4 140.75 122.9 140.05 121.4 139.5 119.15 138.2 119.15 138.85 120.3 139.45 122.80390625 140.529296875 126 141.45 126.52421875 141.606640625 127.05 141.75 129.25 142.35 134 143.45 133.5359375 143.21796875 132.95 143 131.2328125 142.2923828125 128.55 141.65
M 125.35 116.35
Q 123.465625 114.94296875 122 113.75 122 113.85 121.8 113.85
L 122.15 114.2
Q 123.667578125 115.4646484375 125.4 116.7 126.0927734375 117.178515625 126.8 117.65 127.2 117.9 127.25 117.7 126.2630859375 116.999609375 125.35 116.35
M 123.5 116.85
Q 123.15 116.6 122.9 116.8 124.23046875 117.7373046875 125.65 118.6 126.6119140625 119.16640625 127.6 119.7
L 127.7 119.45
Q 126.6138671875 118.872265625 125.6 118.25 124.494921875 117.5759765625 123.5 116.85
M 75.3 108.3
Q 75.2 108.4 75.2 108.6 75.0275390625 110.4763671875 74.95 111.9 74.886328125 113.8126953125 75 114.95 75.25 117.3 76.25 119.5
L 75.95 117.9
Q 75.5 116 75.35 114.5 75.25 113.6 75.25 111.85 75.25 111.7708984375 75.25 111.7 75.259375 109.6935546875 75.5 108.25 75.4 108.2 75.3 108.3
M 74.9 99.9
Q 74 102.4 74 107.65
L 74 112.7 74 118
Q 74 119.1 74.4 119.65
L 74.55 116.9
Q 74.55 116.368359375 74.55 112.25 74.55 110.9591796875 74.55 109.3 74.5 104.65 74.85 101.65 74.95 100.6 75.3 100.1 75.15 99.9 74.9 99.9
M 87.35 96.35
L 87.95 95.95 87.75 95.3
Q 86.4 96.85 85.05 98.55 84.25 99.75 83.9 101.1 83.65 102.45 83.6 103.75 83.53515625 104.78828125 83.55 105.8 83.623046875 107.1666015625 83.85 108.5 85 115.1 91.05 118.05 90.1 117.9 89.3 117.65 87.7 117.2 86.4 116.25 83.55 114.3 82.05 111.25 81.5 110.25 81.35 109.15 81.2330078125 108.2318359375 81.25 107.35 81.3046875 104.4591796875 82.75 101.9 83.3791015625 100.8734375 84.2 99.9
L 84.05 99.05
Q 82.97890625 100.12109375 82.3 101.35 81.7126953125 102.5107421875 81.45 103.8 81.15 105.5 81.1 107.25 81.0958984375 107.3529296875 81.1 107.45 81.003515625 111.090625 82.9 114.3 84 116.25 85.9 117.15 88.75 118.5 91.85 118.5 92.15 118.75 92.6 119 93.5 119.4 94.3 119.85 96.1 121.05 97.95 120.3 95.75 120 93.8 118.7 93.6 118.6 93.45 118.5 91.2 117.3 89.1 115.6 87.1275390625 113.927734375 85.85 111.7 85.6421875 111.334375 85.45 110.95 84.29140625 108.3951171875 84.15 105.6 84.14375 105.539453125 84.15 105.45 84.051171875 103.6498046875 84.4 101.75 84.4 101.8 84.45 101.8 84.5 101.8 84.6 101.7 84.65 101.7 84.7 101.65
L 84.8 99.85 87.35 96.35
M 134.7 159.3
L 138.2 158.6
Q 139.5 158.25 140.45 157.8
L 140.3 157.6
Q 139.4 157.45 138.25 157.55 136.85 157.75 136.15 157.8 131 158.55 126.75 157.65 125.7 157.3 125.05 157.25 123.95 157.15 123.3 157.7 122.8 158.05 123 158.3 123.2 158.45 123.45 158.45 123.9 158.45 124.95 158.4 125.6 158.45 126.9 159
L 128.05 159.1
Q 129.1 159.2 131.25 159.6 132.6 159.65 134.7 159.3
M 153.3 156.55
Q 155.4 156.1 156.1 155.55
L 156 155.3
Q 154.55 155.3 152.65 155.85 150.4 156.55 149.3 156.75 147.8 157.2 146.2 157.4
L 145.75 157.55
Q 145.4 157.75 145.65 158 145.75 158.1 145.95 158.1 147.3 158.2 149.95 157.5
L 153.3 156.55
M 112.85 157.9
Q 113.45 158.05 113.95 158.1 115.65 158.4 117.05 158 116.55 157.5 115.1 157.4 114.3 157.25 113.2 157 112.05 156.7 110.55 156.25 105.65 154.5 99.85 152.05 97.45 151 95.95 150.85 94.55 150.9 93.9 150.8
L 92.8 150.6
Q 92.05 150.45 91.65 150.5 91.2 150.6 91.25 150.9 91.25 151.05 91.6 151.15 92.75 151.5 94.1 151.65 97 152.05 97.1 152.05 97.85 152.2 99.65 153 105.9 155.55 110.7 157.25 111.9 157.7 112.85 157.9
M 126.8 143.15
Q 126.55 143 126.3 143.05
L 126.3 143.2 131.75 145.3 131.9 145.15
Q 129.3 144.05 126.8 143.15
M 168.05 135
L 169.45 133.5
Q 169.4 133.3 169.1 133.55
L 167.45 135.25
Q 166.75 136.05 166.75 136.5 166.85 136.6 166.95 136.45
L 167 136.3
Q 167.1 136 168.05 135
M 147.85 56.85
L 147.85 57.1 147.9 57.2 148 57.5 148.35 57.6 148.3 57.2 148.15 56.85 147.85 56.85
M 149.3 47.45
Q 149.75 47.7 149.4 48.65
L 149.1 49.55
Q 148.95 49.95 148.7 50.3 148.2 50.75 148 51 147.8 51.35 147.8 52.2
L 147.8 54.15
Q 147.8 54.55 148 54.75 148.35 54.35 148.3 53.3 148.25 52.1 148.4 51.7 148.55 51.4 148.9 51 149.35 50.55 149.5 50.3 149.65 50.05 149.8 49.55
L 149.95 48.75
Q 150.1 47.9 149.55 47.15
L 149.3 47.45
M 183.1 118.35
Q 182.95 118.2 182.8 118.25 182.6 118.3 182.5 118.45 182.4 118.7 182.3 118.8
L 182 119.2 181.9 119.6
Q 181.9 119.8 181.7 120.15 181.65 120.3 181.65 121.05 181.65 121.6 181.8 122.1 181.8 122.4 182 122.4 182.259375 122.0111328125 182.3 121.15 182.3 121.042578125 182.3 120.9
L 182.3 120.45 182.5 120.15 182.65 119.6 183.05 119.1
Q 183.15 118.9 183.15 118.55 183.15 118.45 183.1 118.35
M 183.1 108.95
Q 183.1 109.2 182.95 109.6 182.8 110.1 182.8 110.9 182.85 111.3 182.95 112.2 183.05 112.45 183.2 112.85 183.35 113.45 183.35 113.9 183.5 116.15 183.55 116.55 183.95 116.5 183.95 115.8 184.15 113.7 183.8 112.45 183.4 110.8 183.4 110.6 183.4 110 183.7 109.5
L 183.55 108.15 183.15 108.25
Q 183.2 108.6 183.1 108.95
M 182.5 101.6
L 182.4 101.85
Q 183.1 102.15 183.15 102.6
L 183.2 102.75 183.4 102.95
Q 183.55 103.05 183.5 103.45 183.5 103.9 183.6 104.05 183.9 103.8 183.9 103.25
L 183.85 102.8 183.7 102.5 183.65 102.1
Q 183.6 101.85 183.35 101.65 183.1 101.45 182.85 101.5
L 182.5 101.6
M 200 98.8
Q 201.6 98.2 202.4 97.85 203.3 97.4 205.25 95.8 205.95 95.4 206.2 94.95 206.7 94.25 206.7 92.9
L 206.3 92.95
Q 206.45 93.85 205.9 94.55 205.5 95.1 204.65 95.75 202.15 97.6 200.75 98.2 200.15 98.55 200 98.8
M 200.4 97.25
Q 200.25 97.35 198.85 98.5 197.85 99.3 197.1 99.5 196.85 99.5 196.7 99.65 196.4 99.8 196.65 100 197.1 99.8 198.1 99.45
L 200.15 97.8
Q 200.45 97.4 200.4 97.25
M 198.8 97.1
Q 196.55 98.55 195.35 98.85
L 195.3 99
Q 196.2 99 196.7 98.85
L 199.75 96.95 199.55 96.65 198.8 97.1
M 175.7 87.5
Q 175.7 86.85 175.7 86.7 175.5 86.25 175.1 86.35 175.3 86.8 175.3 87.55 175.3 87.95 175.3 88.75 175.4 90.6 176.45 92.05 176.9 92.55 177 92.9 177.05 93.3 177.05 93.95 177.15 94.45 177.85 95
L 180.85 97.25
Q 181.25 96.5 180.4 95.7 179.95 95.35 178.9 94.85 177.9 94.2 177.75 93.6 177.7 93 177.65 92.65 177.6 92.4 176.85 91.1 175.7 89.3 175.7 87.5
M 167.45 54.3
L 168 54.2
Q 168.3 54 168.3 53.8 167.95 53.65 167 53.75 165.5 54.65 163.65 54.2 163.3 54.1 163.15 54.15 162.75 54.15 162.75 54.45 164.3 55.05 166 54.9 166.35 54.9 166.55 54.8 166.85 54.7 167.45 54.3
M 175 51.1
Q 175.4 51 175.45 50.8
L 175.25 50.6 174.65 50.75 174.35 50.9
Q 174.2 50.95 173.95 51.2
L 173.8 51.3 173.8 51.55 174.35 51.4 174.5 51.3 175 51.1
M 181.6 45.7
Q 181.55 45.85 181.3 45.95 179.95 46.15 179.4 46.6 179.1 46.85 178.55 48.2 178.3 48.9 177.95 49.4
L 177.65 49.65 177.4 49.75
Q 177.3 49.85 177.35 50 177.95 50.15 178.45 49.75 178.7 49.55 178.9 49.1
L 179.5 47.8
Q 179.75 47.15 180 46.95 180.2 46.75 181.1 46.55 181.85 46.35 182 45.85
L 181.6 45.7
M 177.65 103.6
Q 177.45 103.25 177.4 103.05
L 177.15 103.05 177.15 103.35 177.2 103.6 177.3 103.7 177.3 103.9 177.4 104.05 177.7 104.35 177.9 104.4 178.05 104.15 177.7 103.8 177.65 103.7 177.65 103.6
M 170.9 92
Q 170.65 91.9 170.35 92.15
L 171.8 95.6
Q 172.2 96.3 172.45 96.6
L 173.25 97.25 175.2 98.4
Q 175.5 99.9 176.75 100.85
L 176.25 99.4
Q 176.05 98.55 175.8 98.2 175.5 97.8 174.45 97.25 173.4 96.7 173.1 96.3 172.9 96.05 172.55 95.35
L 170.9 92
M 169.8 86
L 169.5 86 169.5 86.75 169.6 87.1 169.85 86.8 169.8 86
M 169.55 77.25
Q 169.15 77.2 168 76.6
L 166 75.55
Q 165.4 75.15 165.05 75.05 164.05 74.75 163.6 74.55 163.35 74.45 162.5 73.85 161.9 73.4 161.4 73.4
L 162.9 74.5
Q 163.7 75.1 164.05 75.2
L 164.85 75.35 165.35 75.7
Q 165.75 76.05 166.55 76.45
L 168.65 77.55 170.1 77.7 170.15 78.1
Q 170.35 78.15 170.4 77.9 170.55 77.6 170.35 77.45 170.15 77.25 169.55 77.25
M 170.7 79.95
L 170.35 79.95
Q 170.35 80.45 170.25 80.65 170.2 80.95 169.8 81.3 169.7 81.45 169.7 81.9
L 169.75 83.4
Q 169.75 83.7 169.95 83.75 170.05 83.65 170.2 83.2
L 170.2 82.3 170.25 81.9
Q 170.55 81.65 170.65 81.5 170.9 81.2 170.8 80.75 170.8 80.35 170.7 79.95
M 199.35 111
Q 198.7 111 198.45 111.15 198.25 111.2 197.85 111.6 197 112.45 196.7 113.2
L 196.2 113.95
Q 196 114.15 195.9 114.2 195.7 114.35 195.75 114.5 196.3 114.5 196.65 114.25
L 197 113.85
Q 197.3 113.45 197.35 113.2
L 197.55 112.75 198.65 111.8
Q 198.85 111.7 199.35 111.6 199.85 111.45 200.05 111.3 199.95 111 199.35 111
M 212.5 100.6
Q 211.65 101.2 211.15 101.4
L 210.05 101.8
Q 209.2 102.15 208.55 103.05 208.2 103.45 208.1 103.5 207.85 103.65 207.8 103.7 207.75 103.75 207.75 103.9 207.75 104 207.75 104.05 208.5 103.65 209.9 102.75
L 211.3 102.05
Q 213.4 101.1 214.9 99.65 215.5 99.05 215.15 98.7 214.75 98.5 214.4 99 213.9 99.7 212.5 100.6
M 222.75 76.45
Q 222.75 76.95 223.05 77.25
L 223.35 77.4
Q 223.6 77.55 224.05 78.15 224.35 78.7 224.65 78.8
L 224.95 78.95
Q 225.05 79.05 225.25 79.35
L 225.45 79.25
Q 225.15 78.7 224.7 78.35
L 224.4 77.95 224.25 77.45
Q 223.6 77.05 223.35 76.8
L 223.1 76.55
Q 222.9 76.3 222.75 76.45
M 209.95 84.55
L 210.4 84.95
Q 210.65 85.2 210.75 84.95 210.5 84.25 210.25 84.05 210.05 83.8 209.6 83.7 208.7 83.45 207.85 83.5 207.75 83.65 208.1 83.75 208.5 84.05 209.45 84.35
L 209.95 84.55
M 221.65 72.55
L 221.5 72.45 221.4 72.2
Q 221.15 71.95 221.1 71.8 221.15 71.45 221.05 71.35
L 220.7 71.35
Q 220.7 72.05 220.85 72.2 220.95 72.3 221.05 72.45
L 221.05 72.65
Q 221.1 72.75 221.25 72.8 221.3 72.85 221.3 73.15 221.3 73.55 221.6 73.7
L 221.7 73.55
Q 221.65 73.5 221.65 73.1 221.75 72.7 221.65 72.55
M 201.6 77.4
Q 201.1 76.7 200.8 76.45 200.4 76.15 199.3 75.7 198.1 75.1 197.2 74.4 196.95 74.4 197.05 74.65
L 197.2 75
Q 197.65 75.45 198.8 76.05 199.95 76.65 200.35 77.05 200.55 77.25 201.6 78.55 203.15 80.4 205.7 81.9 205.7 81.15 204.5 80.3 202.85 78.9 201.6 77.4
M 191.8 72.4
L 192.05 72.3
Q 192.05 72.2 191.9 72.1
L 191.3 72 190.7 72 190.7 72.05 190.5 72.15 190.55 72.35 191.8 72.4
M 184.85 69.9
Q 183.8 69.85 182.35 70.25
L 176.1 71.45
Q 175.95 71.5 175.8 71.6 175.7 71.8 175.8 71.9 179.35 71.6 182 71.05 184.55 70.45 185.85 70.55 186.9 71.55 188.35 71.45 186.95 70 184.85 69.9 Z"/>

<path fill="#747EAB" stroke="none" d="
M 60.3 139.75
L 60.3 145.5
Q 61.35 152.85 61.4 153.1
L 61.4 159.95
Q 61.05 159.85 48.15 152.55 36.05 145.7 33.95 146.3 33.95 144.95 37.9 136.85
L 37.9 135.1 35.4 135.1
Q 33.75 135.6 31.15 137.4 28.3 139.35 28.15 139.4 27.8 136.7 27.05 127.9 26.626953125 122.8234375 26.45 120.45 25.73203125 122.3041015625 24.7 125.4 23.25 129.7 22 132.05
L 25.1 122.75
Q 25.713671875 120.8763671875 26.4 119.7 26.35 118.7603515625 26.35 118.45 25.5 119.3 23.6 124 21 130.4 21 135.95 21 136.25 21.35 141 21.438671875 142.2048828125 21.5 143.15 22.93515625 145.9283203125 24.6 148.6 23.65 148.05 22.95 146.8 22.2533203125 145.7427734375 21.6 144.65 21.6802734375 145.95703125 21.7 146.65 20.55 144.7 15.35 132.3 10.6048828125 121.12890625 9.45 119.9 9.3984375 119.975390625 9.3 120 8.314453125 121.140234375 6.85 125.25 5.95 127.7 4.3 132.9 4.7 137.45 2.65 147 0.6 156.35 -0.5 156.35
L -0.55 156.35 -0.55 172.45 92.15 172.45 89.1 167.6
Q 89 167.5 89 167.45
L 88.55 166.7
Q 88.25 165.55 87.5 164.3 86.95 163.3 84.95 160.65
L 81.95 155.85
Q 77.7654296875 152.700390625 72.5 148.65 62 140.55 60.3 139.75
M 20.15 146.55
L 18.8 144.2 18.75 144
Q 18.75 143.75 18.9 143.9
L 20.4 146.55
Q 21.2 147.95 21.9 148.65
L 21.85 148.8
Q 21.1 148.3 20.15 146.55
M 100.4 -1.85
L 94.3 -1.85
Q 98.5 6.3 102.7 14.4 108.7 25.65 112.9 37.7 117.4 50.85 119.05 64.4 120.75 77.1 120.95 89.95 121.05 98.5 121.05 106.95 121.05 107.1 121.1 107.2 121.35 107.35 121.65 107.5 122.84453125 107.5724609375 124.4 107.85 124.25 105.9869140625 124.25 104.9 124.25 95.75 126.15 76.75 128.2 56 130.4 47.25
L 130 47.25
Q 129.65 48.1 127.6 49.6 125.2 51.3 124.95 51.6
L 124.95 50.15
Q 124.95 49.05 126.05 43.45 127.15 38 127.15 37.85 127.15 34.95 119.2 23.1 111.4501953125 11.5861328125 100.4 -1.85
M 8.05 -1.85
L 2.15 -1.85
Q 2.720703125 0.16875 22.25 23.05 43.8 48.2 46.95 53.8 53.25 64.75 61.6 75.35 65.3294921875 80.0294921875 74.25 91.25 74.9658203125 90.756640625 75.7 90.4 78.65 88.75 82.85 88.6 83.8 88.5 84.95 88.6
L 80.05 83.4
Q 76.3 79.2 75 77.55 74.65 77.05 69.35 69.7 68.1 68.05 64 62.95
L 49.05 44.65
Q 40.35 33.9 35.15 28.8 31.55 25.5 29.75 23.8 27.55 21.55 22.55 15.6
L 8.05 -1.85 Z"/>

<path fill="#ABD1DC" stroke="none" d="
M 89.6 -1.85
L 54.45 -1.85
Q 59.25 4.95 66.1 15.5 72.35 26.2 79.3 36.4 83.9 43.3 88.45 50.45 96.45 62.85 101.4 76.55 104.2 84.1 105.25 92.2
L 107.25 93.05
Q 111.45 94.95 114.35 97.65 114.8078125 98.0923828125 115.25 98.55 114.6 86.3 113.05 74.25 110.4 54 104.3 34.55 98.4 15.65 89.6 -1.85
M 101.75 157.15
Q 101.75 157.1 101.8 157.1 101.2 156.95 100.65 156.9
L 98.1 159.65
Q 95.7 162.2 94.5 163.05 93.563671875 163.72421875 92.8 164 92.5384765625 164.0998046875 92.3 164.15 92.465234375 164.013671875 92.6 163.85 96.4486328125 160.6828125 99.9 156.8 99.05 156.65 98.2 156.6
L 92.85 160.6
Q 91.5361328125 161.438671875 90.1 162 88.9904296875 162.49140625 87.8 162.8
L 90.3 166.8
Q 90.65 166.6 91.15 166.3
L 92.25 166
Q 92.9 165.8 94.05 165.2 96.05 164.05 96.75 163.55 98 162.55 99.25 161.05 99.8 160.3 99.95 159.9
L 100.2 159.5 100.65 159.05
Q 101 158.8 101.15 158.35 101.25 158.25 101.75 157.15 Z"/>

<path fill="#98C1CD" stroke="none" d="
M 93.15 -1.85
L 89.6 -1.85
Q 98.4 15.65 104.3 34.55 110.4 54 113.05 74.25 114.6 86.3 115.25 98.55 117.6322265625 101.114453125 119.2 104.25 119.4 104.7 119.7 105.2 119.5 84.55 117.3 64.05 115.95 52.15 112.15 40.75 107.55 26.85 100.85 13.9 96.75 6.15 93.15 -1.85 Z"/>

<path fill="#7097A8" stroke="none" d="
M 95.1 157.6
L 96.65 156.55
Q 96.2 156.55 95.8 156.55 92.9 156.55 89.3 157.25 87.818359375 157.595703125 85.1 158.25 85.0833984375 158.29140625 85.05 158.3
L 87.2 161.8
Q 88.12109375 161.544140625 89 161.2 89.8443359375 160.8650390625 90.65 160.45 92.2 159.6 95.1 157.6 Z"/>

<path fill="#FFFFFF" stroke="none" d="
M 120.75 109.15
Q 120.646875 109.0455078125 120.55 108.9 120.5 108.9 120.4 108.95
L 120.5 109
Q 120.6453125 109.0484375 120.75 109.15
M 179.85 33.25
Q 180.05 32.65 180.3 32.15 180.2 31.85 180.1 31.7 180 32.65 179.85 33.25 Z"/>

<path fill="#94A26E" stroke="none" d="
M 149.35 8.25
Q 148.3142578125 8.8484375 148.2 9.9 148.123046875 10.7482421875 148.25 12.8 149.109375 12.85 150.1 13
L 157.05 14
Q 152.944140625 11.51484375 149.35 8.25
M 161.2 11.5
Q 161.0841796875 10.2654296875 160.85 9.15 156.530859375 7.6 153.15 7.6 151.188671875 7.6 150 8 152.5552734375 10.2625 155.55 12.05
L 159.15 14.2
Q 159.3 14.25 159.4 14.3
L 160.4 14.45
Q 160.25 14.6 159.9 14.6 160.65 15.05 161.55 15.6 161.45 13.05 161.2 11.5
M 166.7 21.95
Q 166.15 22.2 165.4 22.35 166.8 22.7 168 23.15 169.05 23.65 171.05 24.9
L 174.85 27.15
Q 177.35 28.65 178.25 29.75 179.5 31.2 179.8 33.2 179.8 33.3 179.85 33.35 179.85 33.3 179.85 33.25 179.75 32.3 179.75 31 177.9 27.7 174.75 25.2
L 161.9 17.05
Q 161.75 17.4 161.55 17.35 161.55 17.1 161.55 16.85
L 158 14.55
Q 155.7 14.4 152.95 14 151.4298828125 13.7763671875 148.3 13.2 147.94140625 13.1240234375 147.55 13.05 147.9064453125 13.5251953125 148.4 14.15 148.7439453125 14.5626953125 149.15 15.05 149.55 15.55 150.3 16.6 151.1 17.6 151.65 18.1 154 20.4 159.5 21.4 160.9 21.65 163.8 22.05 164.9 21.95 165.65 21.8 166.5 21.6 166.9 21.7 166.95 21.8 166.7 21.95
M 170.15 16.5
Q 170.25 16.35 170.35 16.45
L 170.35 21.2 170.2 21.2
Q 173.05 23 173.35 23.25 175.5 24.7 176.9 26 178.7 27.75 179.75 29.6 179.75 28.9 179.75 28.2
L 179.85 27.6
Q 179.35 25.95 178.35 24.6 177.2 23 177.05 22.75 176.65 21.95 176.25 20.25
L 175.95 18.45
Q 175.887109375 17.98671875 175.8 17.55 173.542578125 15.48828125 168.9 12.9
L 169.1 18.2
Q 169.25 20.35 169.25 20.4
L 169.3 20.65
Q 169.4 20.7 169.55 20.8 169.85 21 170.1 21.15
L 170.1 16.75 170.15 16.5
M 168.4 12.6
Q 168.2123046875 12.515234375 168 12.4 164.606640625 10.5697265625 161.65 9.45 162.3322265625 12.6248046875 162.05 15.95 164.9 17.7 168.85 20.35 168.55 19.55 168.55 18.2 168.5203125 15.61015625 168.4 12.6
M 183.1 9.85
Q 182.9 8.85 182.9 7.7
L 183 6.1
Q 182.85 6.35 182.8 6.55
L 181.85 14.35
Q 181.7 15.85 181.45 18.75 181.5 18.65 181.5 18.6 181.75 18.05 182.55 17.3 183.1 16.75 183.55 15
L 183.7 14.55
Q 183.7677734375 14.509375 183.8 14.45 184.004296875 14.4134765625 184.15 14.45
L 183.85 15.5
Q 183.15 17.4 182.75 17.85 182 18.6 181.85 18.75
L 181.55 19.3
Q 181.45 19.4 181.4 19.5
L 181.25 21.2
Q 181.25 23.25 181.2 23.65
L 180.65 25.6
Q 180.55 26.35 180.4 27.55 180.45 27.9 180.45 28.3 180.45 28.8 180.3 29.05 180.25 29.25 180.25 29.5 180.2 30.05 180.2 30.55 180.4 31 180.55 31.5 182.4 27.45 185.85 24.5 187.65 22.9 191.55 20.25 192.7 19.3 194.45 17.8 193.15 17.65 191 17.25 190 17.1 189.4 16.8 186.75 18.6 185.4 20.1 185.1 21.4 184.8 22 184.7 22.15 183.25 24.5
L 181.25 28.15 180.6 28.9
Q 180.6 27.05 181.85 24.65 182.35 23.65 183.45 21.75 184.15 20.3 184.4 19.3 184.55 18.55 184.55 17 184.55 16.539453125 184.5 16.05 184.4802734375 14.8615234375 184.3 13.6 184.15 13.5 184.15 13.4 184.15 13.35 184.25 13.3 183.9 12.2 183.45 10.95
L 183.1 9.85
M 181.3 10.55
Q 180.8185546875 9.969921875 180.25 9.45 178.95 10.8 178.35 13.65 178.094140625 14.7916015625 178 16 179.3142578125 17.6353515625 180.2 19.5 179.8 19.45 179.35 18.85
L 178.85 17.9
Q 178.3 17.35 178.15 17
L 177.7 16.3 177.25 15.85
Q 177.1 15.7 176.8 15.3 176.9 15.7 177 16.15 177.1 17.65 177.3 18.3
L 177.6 19.3 177.6 20.4
Q 177.65 21.35 178.45 22.6 179.65 24.3 179.8 24.7 179.9 24.95 180.05 25.2
L 181.05 13.95
Q 181.3 12.55 181.3 11.9 181.3 10.9484375 181.3 10.55
M 198.9 10.15
Q 198.3908203125 10.489453125 197.85 10.85 195.9482421875 12.13203125 193.9 13.55
L 190.8 15.7
Q 190.35 16.05 189.85 16.4
L 194.8 17.5
Q 195.25 17.1 195.65 16.65 198.5 14.05 199.75 13.05 200.35 12.55 201.65 11.6 200.2 10.75 199.35 10.4
L 199 10.2 198.95 10.2
Q 198.9 10.2 198.9 10.15
M 188.55 16.35
Q 188.4560546875 15.94765625 188.5 15.45 186.9564453125 16.1794921875 185.85 16.6 185.8615234375 17.0076171875 185.85 17.4 185.7 18.2 185.55 19.15 186.1 18.5 186.7 17.95 187.2 17.55 188.75 16.3 188.75 16.2 188.75 16.15 188.9 16.15 189 16.15 189.1 16.1 189.15 16.05
L 193.2 13.2
Q 190.879296875 14.384375 189.1 15.2 188.6390625 16.0533203125 188.55 16.35
M 204.8 9.25
Q 206.6005859375 6.5076171875 207.3 5.75
L 206.95 5.75
Q 205.3591796875 6.838671875 199.45 10 200.0009765625 10.2171875 200.5 10.55 201.2 10.9 201.95 11.35 203.13828125 10.501171875 204.8 9.25 Z"/>

<path fill="#B8BE79" stroke="none" d="
M 146.65 5.65
Q 145.7 4.7 145.1 3.8 145.55 5.3 145.6 6.2 145.6 6.4 145.6 7.85 145.6 8.8 145.7 9.45 145.95 10.85 147.05 12.45 147.15 12.6 147.25 12.75 147.7294921875 12.75 148.25 12.8 148.123046875 10.7482421875 148.2 9.9 148.3142578125 8.8484375 149.35 8.25 147.964453125 7.0203125 146.65 5.65
M 159.1 3.4
Q 158.55 3.35 157.9 3.3 155.05 3.1 153.55 3.1 148.95 3.25 148.9 3.25 146.45 3.15 144.7 2.15 147.05703125 5.391015625 150 8 151.188671875 7.6 153.15 7.6 156.530859375 7.6 160.85 9.15 160.5142578125 7.3740234375 159.9 5.9 159.35 4.75 159.25 4.4 159.05 3.85 159.1 3.4
M 223 71.6
Q 223.15 72.3 224.05 73.2
L 225.25 74.75
Q 226.3 75.9 226.75 76.85 227.1 77.6 227.25 78.05 226.1 68.5 221.45 60.45
L 221.5 64.6
Q 221.6 66.4 221.85 66.9 221.95 67.2 222.4 67.95 222.8 68.6 222.9 69 223 69.45 222.95 70.35 222.9 71.25 223 71.6
M 179.25 39.1
Q 178.2 39 177.9 38.9 177.7 38.8 176.8 38 175.2 36.65 172.25 36.3 159.35 37.8 149.2 45.6
L 148.5 48
Q 148.4 48.25 148.05 48.7 147.9 48.95 147.35 50.4
L 147.2 51.15
Q 147.15 51.35 147.15 52.25
L 147.15 54.65
Q 147.15 56.85 146.85 57.65 148.15 58.1 148.3 58.75 148.4 59.15 148.35 60 148.45 60.4 149.45 61.1 149.9 61.45 150.4 61.95 150.4 61.65 150.45 61.25 150.75 58.6 151.8 57.6 151.2 59.85 151.2 61.25 151.15 62.25 151.45 63.1
L 151.6 63.3
Q 151.55 63.3 151.55 63.35 151.75 63.95 152.2 64.4 153 65.25 154.35 65.9 155.7 66.4 157.4 66.8 160 67.3 160.65 67.65 161.5 68.05 162.45 69 163.05 69.55 164.05 70.8 167 73.95 171.25 74.9 172.95 75.3 173.55 75.55 174.75 76.1 175.15 77 175.55 78.1 174.65 79.35 173.55 80.95 173.05 81.65 172.35 82.65 172.5 83.55 172.6 84 173.1 84.9 173.3 85.7 173.1 86.9 172.8 88.6 172.8 89 172.8 90.35 173.7 91.95 175.35 94.75 177.7 96.65 178.35 97.15 179.65 98.15 180.65 98.95 181.2 99.9 182 101.35 181.8 103.95 181.65 106.8 180.95 109.4 180.6 110.9 180.75 111.45 180.9 112 181.45 112.75 182.05 113.6 182.2 113.95 182.65 115.15 182.1 116.75 181.75 117.7 180.85 119.55 180.634375 120.097265625 180.45 120.8 180.166796875 122.21171875 180.1 124.25 180.4 124.45 180.5 124.9
L 187.05 120
Q 189.8 117.95 190.75 116.55 191.25 115.8 192.2 113.95 192.95 112.3 193.7 111.45 195.2 109.75 199.6 108.05 203.95 106.4 205.4 104.65 206.1 103.8 207.3 102 208.05 101 209.7 99.8 211.9 98.2 212.4 97.7 213.75 96.5 214.25 94.9 214.85 93.05 213.95 91.75 213.65 91.2 212.95 90.7 212.2 90.05 211.85 89.7 211.35 89.3 210.6 88.35 209.85 87.4 209.45 86.95 208.35 85.9 206.1 84.75 203.2 83.35 202.5 82.85 201.45 82.15 197.45 78.3 194.55 75.4 192 74.9 189.3 74.75 187.95 74.55 185.5 74.25 184.6 72.6 180.95 72.3 178 74.4 176.65 75.45 175.95 75.55 175.3 75.7 174.35 75.25 173.3 74.55 172.85 74.25 172.2 73.85 170.65 73.15 169.1 72.5 168.35 72.05 167.45 71.4 166.6 70.5 164.75 68.05 165.35 64.15 162.9 66.25 161.2 66.55 160.1 66.8 158.85 66.3 157.7 65.8 157.35 64.65 157.1 63.7 157.6 62.4 158.35 61 158.55 60.3 158.65 60 158.75 59.7 158.5 59.35 158.65 58.7 158.75 58.3 158.95 57.9 158.9 57.35 158.8 56.85 159.1 57 159.4 57.25 160.05 56.6 160.95 56.15 161.75 55.9 163.7 55.8 165.45 55.75 166.3 55.3 166.85 55 167.95 54.4 168.5 54.2 169.35 54.3 170.3 54.3 170.65 54.65 170.9 55.05 170.8 55.8 170.75 56.75 170.8 57 171.05 57.1 172.05 57.25 172.75 57.4 173.15 57.65 173.1 57.4 173.1 57.25 173.1 57.2 172.8 56.15 172.55 55.25 173.1 54.4 173.4 54 174 53.5 174.4 53.1 175.15 52.3 175.7 51.6 176.3 51.4 176.45 51.35 177.65 51.1 178.35 50.95 178.65 50.6 179.1 50.05 179.4 48.75 179.95 47.75 181.4 47.5 182.4 47.4 182.65 47.1
L 183.1 46.5
Q 183.9 44.9 186.1 44.2 187.05 43.85 189.8 43.65 189.55 43.5 189.25 43.35 189.75 42.95 190.8 43.25 191.5 43.45 192.3 43.55
L 192.95 43.5
Q 193.2 43.4 193.5 43.6
L 193.55 43.65
Q 195 43.75 196.3 43.5
L 195.95 42.8
Q 195.45 41.95 195.05 41.75 194.65 41.6 194.15 41.6
L 191.6 41.5
Q 191.15 41.5 190.9 41.4 190.4 41.2 189.75 40.3 189.05 39.35 188.6 39.1 188 38.8 186.2 39 185.5 39.1 183.95 39.1
L 179.25 39.1
M 171.25 39.95
Q 170.2 39.7 170.05 39.2 169.95 38.85 170.35 38.3
L 171.15 37.65
Q 171.7 38.1 173 38.5 174.3 38.9 174.8 39.3 175.2 39.7 175.45 39.85 175.85 40 176.7 40.05 177.4 40.3 177.65 41 177.9 41.75 177.4 42.35 176.4 42.35 176 42.05 175.7 41.75 175.5 41.7 175.4 41.65 174.75 41.65 174.55 41.6 173.85 41.15 172.6 40.25 171.25 39.95
M 182.05 41.25
L 182.2 41.15
Q 182.5 40.95 182.7 41
L 182.7 40.9
Q 183.5 40.8 183.75 41.5
L 183.8 41.65 183.7 41.75 183.4 42.15 182.35 42.1 182.05 41.8 182.05 41.25
M 181.3 45.95
Q 181.55 45.85 181.6 45.7
L 182 45.85
Q 181.85 46.35 181.1 46.55 180.2 46.75 180 46.95 179.75 47.15 179.5 47.8
L 178.9 49.1
Q 178.7 49.55 178.45 49.75 177.95 50.15 177.35 50 177.3 49.85 177.4 49.75
L 177.65 49.65 177.95 49.4
Q 178.3 48.9 178.55 48.2 179.1 46.85 179.4 46.6 179.95 46.15 181.3 45.95
M 175.45 50.8
Q 175.4 51 175 51.1
L 174.5 51.3 174.35 51.4 173.8 51.55 173.8 51.3 173.95 51.2
Q 174.2 50.95 174.35 50.9
L 174.65 50.75 175.25 50.6 175.45 50.8
M 168 54.2
L 167.45 54.3
Q 166.85 54.7 166.55 54.8 166.35 54.9 166 54.9 164.3 55.05 162.75 54.45 162.75 54.15 163.15 54.15 163.3 54.1 163.65 54.2 165.5 54.65 167 53.75 167.95 53.65 168.3 53.8 168.3 54 168 54.2
M 180.8 77.55
L 180.4 77.4
Q 180.15 77.25 180.25 76.85 180.25 76.75 180.5 76.35 180.6 76.2 181.55 75.4 182.2 74.9 182.7 74.8 183 74.75 183.5 74.75 184.1 74.75 184.35 74.8 185 74.9 185.4 75.15 185.9 75.45 186 75.8 186.05 75.95 186.05 76.5 186.05 77.6 185.75 77.8 185.55 78 185 78
L 180.8 77.55
M 175.7 86.7
Q 175.7 86.85 175.7 87.5 175.7 89.3 176.85 91.1 177.6 92.4 177.65 92.65 177.7 93 177.75 93.6 177.9 94.2 178.9 94.85 179.95 95.35 180.4 95.7 181.25 96.5 180.85 97.25
L 177.85 95
Q 177.15 94.45 177.05 93.95 177.05 93.3 177 92.9 176.9 92.55 176.45 92.05 175.4 90.6 175.3 88.75 175.3 87.95 175.3 87.55 175.3 86.8 175.1 86.35 175.5 86.25 175.7 86.7
M 191.15 76.8
Q 191.45 76.95 191.75 77.3 192.35 78.05 192 78.6 191.9 78.75 191.35 79.1
L 190.85 79.3 190.15 79.35 188.9 79.3
Q 188.4 79.3 188.3 79.1 188.2 78.95 188.2 78.65
L 188.25 77.4
Q 188.4 77.15 188.9 76.95
L 189.5 76.75 189.55 76.65
Q 190.65 76.55 191.15 76.8
M 195.35 98.85
Q 196.55 98.55 198.8 97.1
L 199.55 96.65 199.75 96.95 196.7 98.85
Q 196.2 99 195.3 99
L 195.35 98.85
M 198.85 98.5
Q 200.25 97.35 200.4 97.25 200.45 97.4 200.15 97.8
L 198.1 99.45
Q 197.1 99.8 196.65 100 196.4 99.8 196.7 99.65 196.85 99.5 197.1 99.5 197.85 99.3 198.85 98.5
M 202.4 97.85
Q 201.6 98.2 200 98.8 200.15 98.55 200.75 98.2 202.15 97.6 204.65 95.75 205.5 95.1 205.9 94.55 206.45 93.85 206.3 92.95
L 206.7 92.9
Q 206.7 94.25 206.2 94.95 205.95 95.4 205.25 95.8 203.3 97.4 202.4 97.85
M 212.4 93.4
Q 212.35 93.5 212.25 93.7 212.15 94 212.35 94.65 212.35 95.15 211.4 96 209.45 97.8 208.35 98.6 206.4 100 204.65 99.5 204.3 99.4 204.15 99.2 203.95 98.75 204.45 98.35 205.4 97.3 207.95 95.8 210.45 94.35 211.4 93.25 211.7 92.95 211.85 92.9 212.25 92.7 212.4 93.05 212.45 93.15 212.4 93.4
M 182.4 101.85
L 182.5 101.6 182.85 101.5
Q 183.1 101.45 183.35 101.65 183.6 101.85 183.65 102.1
L 183.7 102.5 183.85 102.8 183.9 103.25
Q 183.9 103.8 183.6 104.05 183.5 103.9 183.5 103.45 183.55 103.05 183.4 102.95
L 183.2 102.75 183.15 102.6
Q 183.1 102.15 182.4 101.85
M 182.95 109.6
Q 183.1 109.2 183.1 108.95 183.2 108.6 183.15 108.25
L 183.55 108.15 183.7 109.5
Q 183.4 110 183.4 110.6 183.4 110.8 183.8 112.45 184.15 113.7 183.95 115.8 183.95 116.5 183.55 116.55 183.5 116.15 183.35 113.9 183.35 113.45 183.2 112.85 183.05 112.45 182.95 112.2 182.85 111.3 182.8 110.9 182.8 110.1 182.95 109.6
M 182.8 118.25
Q 182.95 118.2 183.1 118.35 183.15 118.45 183.15 118.55 183.15 118.9 183.05 119.1
L 182.65 119.6 182.5 120.15 182.3 120.45 182.3 120.9
Q 182.3 121.042578125 182.3 121.15 182.259375 122.0111328125 182 122.4 181.8 122.4 181.8 122.1 181.65 121.6 181.65 121.05 181.65 120.3 181.7 120.15 181.9 119.8 181.9 119.6
L 182 119.2 182.3 118.8
Q 182.4 118.7 182.5 118.45 182.6 118.3 182.8 118.25
M 149.4 48.65
Q 149.75 47.7 149.3 47.45
L 149.55 47.15
Q 150.1 47.9 149.95 48.75
L 149.8 49.55
Q 149.65 50.05 149.5 50.3 149.35 50.55 148.9 51 148.55 51.4 148.4 51.7 148.25 52.1 148.3 53.3 148.35 54.35 148 54.75 147.8 54.55 147.8 54.15
L 147.8 52.2
Q 147.8 51.35 148 51 148.2 50.75 148.7 50.3 148.95 49.95 149.1 49.55
L 149.4 48.65
M 147.85 57.1
L 147.85 56.85 148.15 56.85 148.3 57.2 148.35 57.6 148 57.5 147.9 57.2 147.85 57.1
M 175.15 14.9
Q 174.7 14.6 173.6 13.35 171.3 10.95 168.75 8.9
L 168.9 12.9
Q 173.542578125 15.48828125 175.8 17.55 175.4951171875 15.3271484375 175.2 14.4 175.2 14.65 175.15 14.9
M 168.25 8.4
Q 165.75 6.5 163.05 4.9 161.35 3.85 160.1 3.55 160 3.5 159.9 3.5 159.9 3.55 159.9 3.6 159.95 4.2 160.5 5.7 161.2453125 7.54453125 161.65 9.45 164.606640625 10.5697265625 168 12.4 168.2123046875 12.515234375 168.4 12.6 168.351171875 10.605078125 168.25 8.4
M 183.15 4.15
Q 182.9 4.4 182.45 4.8
L 178.05 8.3
Q 175.9 10 175.75 11.3 175.7 11.95 175.95 12.8 176.05 13.05 176.2 13.5 176.5 13.7 176.8 14.3 176.85 14.4 177.8 15.75 177.8982421875 15.8685546875 178 16 178.094140625 14.7916015625 178.35 13.65 178.95 10.8 180.25 9.45 180.8185546875 9.969921875 181.3 10.55 181.3380859375 10.4216796875 181.35 10.35
L 181.7 9.25
Q 181.85 8.7 181.95 7.5 182.05 6.4 182.25 5.75 182.45 5.25 183.1 4.55 183.1 4.3 183.15 4.15
M 195.15 5.25
Q 194.35 5.8 193.55 6.6 193.5 6.65 191 9.45 189.8 10.8 188.05 12.4 186.7 13.55 185.55 13.85 185.819140625 15.2728515625 185.85 16.6 186.9564453125 16.1794921875 188.5 15.45 188.642578125 14.179296875 189.85 12.35 192.9 7.6 195.15 5.25
M 200.9 5.65
Q 201.1 5.45 201.6 4.6 202.05 3.85 203.55 1.85 202.05 2.35 200.95 2.65 197.7 3.6 196.55 4.25 196.25 4.4 196.05 4.6
L 196.25 4.75
Q 193.6 7.3 189.9 13.8 189.4123046875 14.633203125 189.1 15.2 190.879296875 14.384375 193.2 13.2
L 194.1 12.6
Q 196.7 10.75 198.9 9.25 199.2 7.95 200.05 6.9 200.8 5.8 200.9 5.65
M 207.25 3.7
L 210.6 1.7
Q 211.15 1.45 211.15 1.8
L 207.4 4.55
Q 203.75 6.8 199.25 9.9 199.359375 9.9419921875 199.45 10 205.3591796875 6.838671875 206.95 5.75
L 207.3 5.75
Q 206.6005859375 6.5076171875 204.8 9.25 205.132421875 9.034375 205.45 8.8 209.15 6.3 211.1 4.45 212.7 3.1 213.35 1.65 214.15 -0.4 213 -1.8 207.3 0.6 203.6 1.85 202.35 4.4 200.9 6.35
L 199.75 8.2
Q 199.55 8.55 199.35 8.85 204.5 5.4 207.25 3.7 Z"/>

<path fill="#E3C5AB" stroke="none" d="
M 233.15 136.1
Q 235.25546875 135.558203125 238.25 134.7 244.65 132.9 252.65 132.9 254.966796875 132.9 256.85 133.05 256.0431640625 130.96953125 254 129.65 249.1 126.4 243.15 126.35 238.85 126.35 234.8 127.3 229.45 128.4 222.5 130.6 227.3 131.75 231.4 134.65 232.4953125 135.420703125 233.15 136.1
M 236.95 127.85
Q 237.5 127.8 240.3 127.8
L 243.1 127.85
Q 244.3 127.95 244.35 128.55 244.45 129.15 243.35 129.5 242.05 129.85 239.4 130.05 234.95 130.4 233.65 130.4 232.85 130.4 232.6 130.1 232.35 129.85 232.4 129.45 232.45 129.05 232.75 128.75 233.15 128.4 234.15 128.2 235.95 127.9 236.95 127.85
M 153.65 128.35
Q 152.981640625 128.53046875 152.25 128.7 153.1001953125 128.6208984375 153.95 128.55
L 153.65 128.35
M 132.7 110.35
Q 134.6171875 110.719921875 136.1 111.05 135.79921875 110.5748046875 135.5 110.1 135.25 110.15 134.95 110.15
L 133.55 110.2
Q 133.142578125 110.299609375 132.7 110.35
M 90.45 92.6
Q 89.6 93.1 89.15 93.3 88.45 93.7 87.85 93.6 87.5 93.05 88.4 92.4 89.4 91.5 91.3 91.15 92.1 91 93.65 90.95 93.1 90.85 92.55 90.8 87.3 89.85 83.85 89.95 79.05 90.05 75.6 92.05 75.3599609375 92.1916015625 75.1 92.35 72.3572265625 94.1255859375 70.1 97.35 69 98.9 68.55 99.35 67.9 100 67.25 100.35 67.05 103.55 66.95 107.25 66.95 110.9 67.25 113.3 67.4388671875 114.5744140625 68.45 118.15 69.9994140625 115.93828125 74 112.7
L 74 107.65
Q 74 102.4 74.9 99.9 75.15 99.9 75.3 100.1 74.95 100.6 74.85 101.65 74.5 104.65 74.55 109.3 74.55 110.9591796875 74.55 112.25 74.759375 112.0935546875 74.95 111.9 75.0275390625 110.4763671875 75.2 108.6 75.2 108.4 75.3 108.3 75.4 108.2 75.5 108.25 75.259375 109.6935546875 75.25 111.7 78.020703125 109.53046875 81.1 107.45 81.0958984375 107.3529296875 81.1 107.25 81.15 105.5 81.45 103.8 81.7126953125 102.5107421875 82.3 101.35 82.97890625 100.12109375 84.05 99.05
L 84.2 99.9
Q 83.3791015625 100.8734375 82.75 101.9 81.3046875 104.4591796875 81.25 107.35 81.2330078125 108.2318359375 81.35 109.15 81.5 110.25 82.05 111.25 83.55 114.3 86.4 116.25 87.7 117.2 89.3 117.65 90.1 117.9 91.05 118.05 85 115.1 83.85 108.5 83.623046875 107.1666015625 83.55 105.8 83.53515625 104.78828125 83.6 103.75 83.65 102.45 83.9 101.1 84.25 99.75 85.05 98.55 86.4 96.85 87.75 95.3
L 87.95 95.95 87.35 96.35 84.8 99.85 84.7 101.65
Q 84.65 101.7 84.6 101.7 84.5 101.8 84.45 101.8 84.4 101.8 84.4 101.75 84.051171875 103.6498046875 84.15 105.45 84.14375 105.539453125 84.15 105.6 84.29140625 108.3951171875 85.45 110.95 85.6421875 111.334375 85.85 111.7 86.762109375 113.0556640625 88.15 114.3 92.4 118.1 97.65 118.1 103.65 118.1 106.55 113.75
L 106.9 113.75 106.9 116.55
Q 108.1646484375 114.4060546875 108.2 112.6 108.25 111.4 107.7 109.2
L 106.35 104.55
Q 106.15 103.9 105.85 101.55 105.6 99.7 105.15 98.6 104.55 97.35 103.1 95.8 100.95 93.6 98.85 92.8 96.8 92.1 93 92.2 91.1 92.3 90.45 92.6
M 92.45 97.85
Q 91.95 96.3 92.6 95.65 92.9 95.3 93.6 95.2 95.3 94.85 97.1 95.3 98.85 95.7 100.25 96.7 102.3 98.3 102.3 100.1 102.3 101.5 101.2 102.3 100.1 103.05 98.9 102.6 98.25 102.3 97.6 101.6 96.9 100.7 96.5 100.25 94.95 98.4 92.45 97.85
M 101.9 103.9
Q 102.35 104 102.55 104.3 102.8 104.6 102.7 105.15
L 102.65 105.7
Q 102.55 106.1 102.4 106.2 102.25 106.3 102 106.3
L 101.65 106.3
Q 101.5 106.4 101.4 106.3
L 101.05 105.95
Q 100.85 105.65 100.25 105.35
L 100.25 104.25
Q 100.65 103.95 101.1 104
L 101.1 103.9 101.9 103.9
M 101 99.2
L 100.9 99.2 100.9 100.55
Q 101 100.5 101 100.25
L 101 99.2
M 221.6 132.05
Q 217.95 131.2 213.05 131.55 212.1 131.6 205.25 132.3
L 205.2 132.35
Q 205.25 132.35 205.3 132.45 201.7 134.85 200 138.7 199.8 137.25 201.4 135.35 202.8 133.85 204.35 132.6 204.45 132.55 204.5 132.5 203.85 132.55 203.15 132.45 202.65 132.35 200.75 131.95 196.3 130.7 187.9 131.45 178.7 132.2 174.75 131.55 174.15 131.4 173.6 131.25 172.3 131.75 170.8 133.1 169.75 134.15 169.45 134.65 169.15 135.15 168.7 136.4
L 168.4 137.1
Q 168.1 135.7 168.85 134.3 169.45 133.4 170.9 132.2
L 172.5 131.05
Q 172.55 131 172.6 131 170.75 130.55 169.6 130.3 164.3 129.2 156.6 129.75 148.627734375 130.5748046875 144.3 130.85 143.4537109375 131.103515625 142.75 131.3 137.9806640625 131.5240234375 136.5 131.45 144.7796875 127.3998046875 147.3 126
L 140.55 124.3
Q 139.1712890625 124.0423828125 137.8 123.85 137.1775390625 123.8453125 136.5 123.85 128.5 124.1 124.95 123.9 126.1 120.3 120.95 120.45 112.6 120.65 111.3 120.25
L 111.65 120.25
Q 112.3 119.8 112.7 118.85
L 112.7 116.65
Q 112 116.65 111.65 116.3 114.05 114.75 117.85 113.85 120.868359375 113.16015625 123.95 113.05 122.5390625 111.8890625 121.8 111.15
L 121.2 110.6
Q 120.65 110.4 120.5 110.25
L 120.1 109.75
Q 119.95 109.65 119.75 109.6
L 113.75 107.55
Q 114.1 107.4 114.45 107.3 114.8583984375 107.292578125 115.25 107.3 116.9244140625 107.4251953125 118.5 108.05 119.166015625 108.346484375 119.8 108.7
L 119.8 107.95 114.5 100.1
Q 111.4 96.4 106.75 94.3
L 105.25 93.7
Q 104.8 94.55 104.6 94.45 104.6 93.8 104.1 93.35 103.55 92.9 102.65 92.9 102 92.75 101.4 92.6 101.7 92.75 101.9 92.95 104.85 95 105.85 96.8 106.55 98 107.1 100.6
L 109.1 109.05
Q 109.65 111.45 109.65 112.95 109.45 116.75 105.65 120.7 104.472265625 121.9880859375 103.3 122.65 100.9693359375 124.91640625 97.15 127.15 96 127.85 93.3 132.4 91.95 134.75 90.65 137.25 93.2 137.85 102.9 143.25 113.1 148.95 114.85 149.55 113.2 147.5 111.65 145.5 108.55 141.45 108 139.4
L 108 137.25 112 137.25
Q 117.56328125 139.434375 126 141.45 122.80390625 140.529296875 120.3 139.45 119.15 138.85 119.15 138.2 121.4 139.5 122.9 140.05 124.4 140.75 128.55 141.65 131.2328125 142.2923828125 132.95 143 133.727734375 143.1466796875 134.5 143.3 144 145.2 150.25 145.95 150.6 147 148.55 148.7 147.45 149.65 145.6 151
L 145.6 152.8 154.95 152.8
Q 156.5 152.5 158.8 152.3 160.9 152.05 161.65 152.05 162.5 152.05 171.5 152.8 185.45 152.8 200.75 149.1 209.9 146.9 215.6 144.55
L 215.6 142.65 213.35 142.65
Q 212.25 142.5 211.65 141.6 211.95 139.9 219.45 138.55 221.3 138.2 228.6 137.25 229.2841796875 137.1556640625 231.45 136.55 230.5236328125 135.719921875 228.75 134.7 225.05 132.7 221.6 132.05
M 179.55 135.55
Q 179.85 134.85 180.6 134.45 181.9 133.6 184.75 133.5
L 190.05 133.2
Q 192.05 133.1 193 133.5 193.7 133.8 194.15 134.4 194.6 135.1 194.45 135.8 194.2 136.9 192.95 137.35 192.25 137.55 190.7 137.55
L 181.35 137.45
Q 180.15 137.35 179.8 137 179.2 136.45 179.55 135.55
M 169.45 133.5
L 168.05 135
Q 167.1 136 167 136.3
L 166.95 136.45
Q 166.85 136.6 166.75 136.5 166.75 136.05 167.45 135.25
L 169.1 133.55
Q 169.4 133.3 169.45 133.5
M 229.5 124.7
Q 229.2 124.9 228.85 124.95 228.05 125.15 226.9 125.55
L 225 126.1
Q 224.836328125 126.22578125 224.65 126.35 226.0296875 126.8 227.35 126.8 228.55 126.8 235.3 125.2 241.823046875 123.6171875 249.45 123.55 249.0662109375 123.338671875 248.65 123.2 243.1 121.15 237.3 122.35 233.45 122.95 229.5 124.7
M 212.45 121.3
Q 211.8625 121.8203125 211.25 122.3 213.262109375 122.15 213.8 122.15 218.2 122.15 221.3 124.5 222.1783203125 125.1515625 223.05 125.6 224.300390625 125.0734375 226.2 124.5 226.6 124.35 226.95 124.25
L 231.7 122.5
Q 226.85 118.45 220.6 119.35 218.6 119.45 216.65 119.6 216.5 119.65 216.5 119.75
L 214 119.85
Q 213.226171875 120.588671875 212.45 121.3 Z"/>

<path fill="#ECDCCF" stroke="none" d="
M 240.3 127.8
Q 237.5 127.8 236.95 127.85 235.95 127.9 234.15 128.2 233.15 128.4 232.75 128.75 232.45 129.05 232.4 129.45 232.35 129.85 232.6 130.1 232.85 130.4 233.65 130.4 234.95 130.4 239.4 130.05 242.05 129.85 243.35 129.5 244.45 129.15 244.35 128.55 244.3 127.95 243.1 127.85
L 240.3 127.8
M 102.55 104.3
Q 102.35 104 101.9 103.9
L 101.1 103.9 101.1 104
Q 100.65 103.95 100.25 104.25
L 100.25 105.35
Q 100.85 105.65 101.05 105.95
L 101.4 106.3
Q 101.5 106.4 101.65 106.3
L 102 106.3
Q 102.25 106.3 102.4 106.2 102.55 106.1 102.65 105.7
L 102.7 105.15
Q 102.8 104.6 102.55 104.3
M 92.6 95.65
Q 91.95 96.3 92.45 97.85 94.95 98.4 96.5 100.25 96.9 100.7 97.6 101.6 98.25 102.3 98.9 102.6 100.1 103.05 101.2 102.3 102.3 101.5 102.3 100.1 102.3 98.3 100.25 96.7 98.85 95.7 97.1 95.3 95.3 94.85 93.6 95.2 92.9 95.3 92.6 95.65
M 100.9 99.2
L 101 99.2 101 100.25
Q 101 100.5 100.9 100.55
L 100.9 99.2
M 180.6 134.45
Q 179.85 134.85 179.55 135.55 179.2 136.45 179.8 137 180.15 137.35 181.35 137.45
L 190.7 137.55
Q 192.25 137.55 192.95 137.35 194.2 136.9 194.45 135.8 194.6 135.1 194.15 134.4 193.7 133.8 193 133.5 192.05 133.1 190.05 133.2
L 184.75 133.5
Q 181.9 133.6 180.6 134.45 Z"/>

<path fill="#D6AF86" stroke="none" d="
M 233.15 136.1
Q 233.31796875 136.2896484375 233.45 136.45
L 235.7 139.85
Q 236.4 140.8 236.65 141.45 237.25 142.75 237.1 144.95 237.35 144.75 237.75 144.6 243.2 142.75 248.95 142.75 252.35 142.15 255 139.85 256.2 138.75 256.85 137.4 257.75 135.75 257.1 133.8 256.9958984375 133.4134765625 256.85 133.05 254.966796875 132.9 252.65 132.9 244.65 132.9 238.25 134.7 235.25546875 135.558203125 233.15 136.1
M 152.25 128.7
Q 152.981640625 128.53046875 153.65 128.35
L 152.9 127.85
Q 152.25 127.5 150 126.7
L 147.3 126
Q 144.7796875 127.3998046875 136.5 131.45 137.9806640625 131.5240234375 142.75 131.3 143.4537109375 131.103515625 144.3 130.85 143.9138671875 130.8791015625 143.55 130.9 143.25 130.95 142.9 130.8 142.6 130.65 142.7 130.4 142.75 130.15 143.25 130.05 147.7158203125 129.165234375 152.25 128.7
M 136.1 111.05
Q 134.6171875 110.719921875 132.7 110.35 130.7478515625 110.6322265625 128.25 110.1 126.0669921875 109.4392578125 124.5 109.05 123.3583984375 108.777734375 122.55 108.65
L 122.15 108.6
Q 123.0482421875 109.545703125 124.75 111.35 124.8494140625 111.4439453125 124.95 111.55 127.1 113.8 127.95 115.65 127.9 115.6 127.85 115.6
L 129.7 118
Q 130 118.4 130 118.75
L 128.25 117.25
Q 126.214453125 115.0654296875 125.05 113.95
L 125.05 113.95
Q 124.462890625 113.4802734375 123.95 113.05 120.868359375 113.16015625 117.85 113.85 114.05 114.75 111.65 116.3 112 116.65 112.7 116.65
L 112.7 118.85
Q 112.3 119.8 111.65 120.25
L 111.3 120.25
Q 112.6 120.65 120.95 120.45 126.1 120.3 124.95 123.9 128.5 124.1 136.5 123.85 137.1775390625 123.8453125 137.8 123.85 133.9630859375 123.3 130.4 123.3 129.95 123.3 129.75 123.2 129.6 123.1 129.5 122.95 129.45 122.75 129.55 122.6 129.7 122.45 130.05 122.45
L 133.1 122.25
Q 135.05 122.25 136.3 122.3 136.25 121.5 136.25 120.4 136.25 118.45 135.8 117.4 135.7 117.1 135.75 117 135.8 116.7 136.2 116.85 136.35 117 136.5 117.3 136.9 118.1 136.9 119.95 136.9 120.05 136.9 120.1
L 137 120.1
Q 137.05 120.45 137.05 122.3
L 137.05 122.35
Q 137.1 122.35 137.15 122.35 138.85 122.5 140.9 122.85
L 145.95 124.1
Q 148.25 124.65 149.75 125.1 146.25 122.65 143.15 119.55 139.07734375 115.52265625 136.1 111.05
M 122.9 116.8
Q 123.15 116.6 123.5 116.85 124.494921875 117.5759765625 125.6 118.25 126.6138671875 118.872265625 127.7 119.45
L 127.6 119.7
Q 126.6119140625 119.16640625 125.65 118.6 124.23046875 117.7373046875 122.9 116.8
M 122 113.75
Q 123.465625 114.94296875 125.35 116.35 126.2630859375 116.999609375 127.25 117.7 127.2 117.9 126.8 117.65 126.0927734375 117.178515625 125.4 116.7 123.667578125 115.4646484375 122.15 114.2
L 121.8 113.85
Q 122 113.85 122 113.75
M 215.6 142.65
L 215.6 144.55
Q 209.9 146.9 200.75 149.1 185.45 152.8 171.5 152.8 162.5 152.05 161.65 152.05 160.9 152.05 158.8 152.3 156.5 152.5 154.95 152.8
L 145.6 152.8 145.6 151
Q 147.45 149.65 148.55 148.7 150.6 147 150.25 145.95 144 145.2 134.5 143.3 133.727734375 143.1466796875 132.95 143 133.5359375 143.21796875 134 143.45 129.25 142.35 127.05 141.75 126.52421875 141.606640625 126 141.45 117.56328125 139.434375 112 137.25
L 108 137.25 108 139.4
Q 108.55 141.45 111.65 145.5 113.2 147.5 114.85 149.55 113.1 148.95 102.9 143.25 93.2 137.85 90.65 137.25 91.95 134.75 93.3 132.4 96 127.85 97.15 127.15 100.9693359375 124.91640625 103.3 122.65 102.908984375 122.8916015625 102.5 123.05 101.35 123.6 99.7 123.85 99.1 123.9 96.75 123.95 94.4 124 91.7 124.3
L 91.75 124.4 90.35 124.9 86.15 127.35
Q 85.6 127.65 85.2 127.7 85.35 127.2 86.3 126.55 87.65 125.65 89.95 124.45 87.45 124.65 84.6 125 81.9 125.5 80.05 125.35 81.35 124.2 84.45 123.65 90.3 122.6 94.75 122.55 98.15 122.5 99.05 122.45 101.4 122.15 102.9 121.15 104.35 120.2 105.65 118.4 106.3794921875 117.4517578125 106.9 116.55
L 106.9 113.75 106.55 113.75
Q 103.65 118.1 97.65 118.1 92.4 118.1 88.15 114.3 86.762109375 113.0556640625 85.85 111.7 87.1275390625 113.927734375 89.1 115.6 91.2 117.3 93.45 118.5 93.6 118.6 93.8 118.7 95.75 120 97.95 120.3 96.1 121.05 94.3 119.85 93.5 119.4 92.6 119 92.15 118.75 91.85 118.5 88.75 118.5 85.9 117.15 84 116.25 82.9 114.3 81.003515625 111.090625 81.1 107.45 78.020703125 109.53046875 75.25 111.7 75.25 111.7708984375 75.25 111.85 75.25 113.6 75.35 114.5 75.5 116 75.95 117.9
L 76.25 119.5
Q 75.25 117.3 75 114.95 74.886328125 113.8126953125 74.95 111.9 74.759375 112.0935546875 74.55 112.25 74.55 116.368359375 74.55 116.9
L 74.4 119.65
Q 74 119.1 74 118
L 74 112.7
Q 69.9994140625 115.93828125 68.45 118.15 68.535546875 118.3787109375 68.6 118.6 69.5 121.9 69.7 124 69.75 124.85 69.75 126.85 69.75 128.65 69.8 129.65 69.9 130.7 70.2 131.85 74.6 135.5 78.35 138.15 81.15 140.15 82 141.35 75.8 137.35 70.55 133 70.65 133.3 70.8 133.6 70.85 133.65 70.9 133.75 71.95 135.15 74.65 137 77.5 139.05 78.5 140.1 78.35 140.3 78.1 140.05
L 74.55 137.45
Q 72.45 136.1 71.35 134.9 71.6 135.5 71.9 136.15 73.35 139.25 77.15 145.65
L 84.4 157.2
Q 91.25 155.35 94.55 155.1 96.45 155 98.5 155.2
L 98.65 155.1
Q 98.95 155.15 99.1 155.25 102.45 155.55 106.65 156.6 109 157.2 112.75 158.25 115.25 158.95 118.6 159.8 120.3 160.2 123.85 160.95 126.95 161.6 129.05 162.5 129.85 162.85 133.85 164.85 136.6 166.35 138.7 166.85 143.35 167.95 150.1 165.75 150.9 165.5 155.65 163.75 158.85 162.5 161.1 162 163.9 161.4 167.85 161.25 170.05 161.15 174.5 161.1 180.65 161.05 191 160.15 193.85 159.95 195.2 159.75 197.45 159.4 199.15 158.65 200.6 158.05 203.4 156.4 205.2 155.35 210.05 153.75
L 216.45 151.7
Q 219.3 150.7 221.05 150.45 222.75 150.2 224.3 150.35
L 224.65 150.25
Q 214.1 150.25 203.45 151.7 202.2 151.9 201.5 151.9 201.3 151.9 201.2 151.9 194.55 153.8 188 155.35
L 183.8 156.3
Q 178.15 157.2 166.2 156 154.5 154.65 148.6 155.75 147.25 156.1 146.7 155.55 148.4 154.75 150.8 154.45 152.15 154.25 155 154.2 158.85 154.2 160.9 154.4 164.55 154.6 171.75 155.4 178.35 156.05 182.75 155.4 184.65 155.15 189.45 153.95
L 203.95 150.15
Q 204.5 150 204.95 150.15 205.2 150.2 205.25 150.35 207.35 149.9 209.15 149.6 215.25 148.8 226.5 148.7
L 229.3 148.65
Q 231.8 148.65 233.25 148.15 235.25 147.4 235.75 145.85 235.75 145.55 235.75 145.35 235.95 143.9 235.2 142.1 234.8 141.05 233.55 139.2 232.3 137.35 231.7 136.8 231.592578125 136.692578125 231.45 136.55 229.2841796875 137.1556640625 228.6 137.25 221.3 138.2 219.45 138.55 211.95 139.9 211.65 141.6 212.25 142.5 213.35 142.65
L 215.6 142.65
M 126.3 143.05
Q 126.55 143 126.8 143.15 129.3 144.05 131.9 145.15
L 131.75 145.3 126.3 143.2 126.3 143.05
M 113.95 158.1
Q 113.45 158.05 112.85 157.9 111.9 157.7 110.7 157.25 105.9 155.55 99.65 153 97.85 152.2 97.1 152.05 97 152.05 94.1 151.65 92.75 151.5 91.6 151.15 91.25 151.05 91.25 150.9 91.2 150.6 91.65 150.5 92.05 150.45 92.8 150.6
L 93.9 150.8
Q 94.55 150.9 95.95 150.85 97.45 151 99.85 152.05 105.65 154.5 110.55 156.25 112.05 156.7 113.2 157 114.3 157.25 115.1 157.4 116.55 157.5 117.05 158 115.65 158.4 113.95 158.1
M 156.1 155.55
Q 155.4 156.1 153.3 156.55
L 149.95 157.5
Q 147.3 158.2 145.95 158.1 145.75 158.1 145.65 158 145.4 157.75 145.75 157.55
L 146.2 157.4
Q 147.8 157.2 149.3 156.75 150.4 156.55 152.65 155.85 154.55 155.3 156 155.3
L 156.1 155.55
M 138.2 158.6
L 134.7 159.3
Q 132.6 159.65 131.25 159.6 129.1 159.2 128.05 159.1
L 126.9 159
Q 125.6 158.45 124.95 158.4 123.9 158.45 123.45 158.45 123.2 158.45 123 158.3 122.8 158.05 123.3 157.7 123.95 157.15 125.05 157.25 125.7 157.3 126.75 157.65 131 158.55 136.15 157.8 136.85 157.75 138.25 157.55 139.4 157.45 140.3 157.6
L 140.45 157.8
Q 139.5 158.25 138.2 158.6
M 220.95 130.3
L 221.15 130.15
Q 224.15 128.95 229.55 127.45 231.35 127 233 126.6 238 125.35 243 125.3 246.2 125.3 249.15 126.4
L 249.15 126.35
Q 249.25 126.2 249.35 126.1 249.5 126.05 249.7 126.05
L 252.3 127.35
Q 251.9 125.55 250.3 124.15 249.896875 123.8005859375 249.45 123.55 241.823046875 123.6171875 235.3 125.2 228.55 126.8 227.35 126.8 226.0296875 126.8 224.65 126.35 223.58671875 127.1251953125 222.8 127.3
L 220.35 127.55
Q 219.15 127.65 217.1 128.05
L 212.05 129
Q 209.35 129.6 208 130.05 205.95 130.65 205.9 130.65 204.7 130.95 203.75 130.85 203.55 130.65 203.8 130.45
L 204.25 130.25
Q 204.55 130.2 205 130.05 203.05 129.9 201.05 129.1 200.05 129.6 199 130.05 201.65 130.45 203.85 131.45 203.9 131.4 203.95 131.4 207.35 130.35 213.75 129.95
L 216.8 129.9
Q 218.9 129.95 220.95 130.3
M 213.8 122.15
Q 213.262109375 122.15 211.25 122.3 206.9787109375 125.921875 202.3 128.45 203.4 128.8 204.65 129.05
L 207.05 129.45
Q 207.45 129.3 207.85 129.15 210.1 128.4 211.45 128.1
L 213.4 127.8
Q 214.5 127.55 216.75 127.05
L 221.4 126.45
Q 221.6 126.4 221.8 126.4
L 221.8 126.35
Q 221.85 126.15 222.15 126.05 222.546484375 125.8376953125 223.05 125.6 222.1783203125 125.1515625 221.3 124.5 218.2 122.15 213.8 122.15 Z"/>

<path fill="#D7D185" stroke="none" d="
M 212.25 93.7
Q 212.35 93.5 212.4 93.4 212.45 93.15 212.4 93.05 212.25 92.7 211.85 92.9 211.7 92.95 211.4 93.25 210.45 94.35 207.95 95.8 205.4 97.3 204.45 98.35 203.95 98.75 204.15 99.2 204.3 99.4 204.65 99.5 206.4 100 208.35 98.6 209.45 97.8 211.4 96 212.35 95.15 212.35 94.65 212.15 94 212.25 93.7
M 191.75 77.3
Q 191.45 76.95 191.15 76.8 190.65 76.55 189.55 76.65
L 189.5 76.75 188.9 76.95
Q 188.4 77.15 188.25 77.4
L 188.2 78.65
Q 188.2 78.95 188.3 79.1 188.4 79.3 188.9 79.3
L 190.15 79.35 190.85 79.3 191.35 79.1
Q 191.9 78.75 192 78.6 192.35 78.05 191.75 77.3
M 180.4 77.4
L 180.8 77.55 185 78
Q 185.55 78 185.75 77.8 186.05 77.6 186.05 76.5 186.05 75.95 186 75.8 185.9 75.45 185.4 75.15 185 74.9 184.35 74.8 184.1 74.75 183.5 74.75 183 74.75 182.7 74.8 182.2 74.9 181.55 75.4 180.6 76.2 180.5 76.35 180.25 76.75 180.25 76.85 180.15 77.25 180.4 77.4
M 182.2 41.15
L 182.05 41.25 182.05 41.8 182.35 42.1 183.4 42.15 183.7 41.75 183.8 41.65 183.75 41.5
Q 183.5 40.8 182.7 40.9
L 182.7 41
Q 182.5 40.95 182.2 41.15
M 170.05 39.2
Q 170.2 39.7 171.25 39.95 172.6 40.25 173.85 41.15 174.55 41.6 174.75 41.65 175.4 41.65 175.5 41.7 175.7 41.75 176 42.05 176.4 42.35 177.4 42.35 177.9 41.75 177.65 41 177.4 40.3 176.7 40.05 175.85 40 175.45 39.85 175.2 39.7 174.8 39.3 174.3 38.9 173 38.5 171.7 38.1 171.15 37.65
L 170.35 38.3
Q 169.95 38.85 170.05 39.2 Z"/>

<path fill="#98B5E0" stroke="none" d="
M 208.95 122.15
Q 207.2869140625 122.4873046875 205.45 122.65 203.3865234375 122.85 201.1 122.85 193.6958984375 122.85 186.85 121.9
L 183.05 124.95
Q 181.5 126.3 180.3 126.15 179.5 126.05 179.15 125.15 178.95 124.65 179.15 124.35 179.1 124.25 179.1 124.15 178.73125 122.249609375 179.05 120.5 167.8111328125 117.9318359375 159.25 112.7 147.85 105.75 140 97.45 134.379296875 91.5314453125 129.75 84.05 129.75 84.1259765625 129.75 84.2 129.75 99.60625 138.2 111.55 140.7654296875 115.0998046875 144.05 118.35 149.999609375 124.253515625 157.05 127.7 157.648828125 127.978515625 158.25 128.25 161.2 128.1 164.25 128.15 166.65 128.15 168.65 128.55 170.15 128.85 173 129.7 176.35 130.55 181.1 130.45 181.7 130.4 189.45 129.8 192.8 129.6 195.5 129.7 202.4037109375 127.2216796875 208.45 122.55 208.6978515625 122.37421875 208.95 122.15 Z"/>

<path fill="#B9D3F9" stroke="none" d="
M 173.25 79.5
Q 174.1 78.5 173.9 77.7 173.75 77 172.9 76.65 172.35 76.45 171.15 76.25 166.65 75.6 162.1 70.75 160.45 68.9 159.35 68.45 158.8 68.3 157.9 68.2 156.85 68.15 156.4 68.05 155.5 67.85 153.55 66.85 151.5 65.8 150.95 64.7 150.7 64.2 150.5 63.5 150.3 63.45 150.15 63.4 149.9 63.3 149 62.4 148.55 62 147.95 61.75 147.3 61.45 147.2 61.3 147.1 61.15 147.1 60.15 147.2 59.35 146.8 59.2 146.35 59.1 146.1 59 145.55 58.8 145.55 57.6
L 145.65 56.55 145.85 55.95
Q 146.05 55.4 145.9 54.7 145.9 51.7 146.05 50.85 146.1 49.85 146.5 49.1 147.4 47.85 147.75 47.1 147.8 46.9 147.9 46.7 145.9 48.25 144.05 50.05 141.2 52.8 139.05 55.8
L 136.2 60
Q 129.785546875 70.7404296875 129.75 84.05 134.379296875 91.5314453125 140 97.45 147.85 105.75 159.25 112.7 167.8111328125 117.9318359375 179.05 120.5 179.3576171875 119.1548828125 180.05 117.9 180.95 116.35 180.95 115.6 181 114.9 180.4 113.75 179.65 112.35 179.5 111.9 179.3 111.05 179.65 109.35
L 180.3 105.55
Q 180.8 102.85 180.35 101.5 180 100.4 178.9 99.35 178.35 98.75 176.9 97.55 171 92.8 171.55 88.15 171.75 87.3 171.8 86.8 171.95 86.05 171.8 85.55 171.75 85.15 171.45 84.45 171.2 83.7 171.15 83.35 171.05 82.35 171.8 81.25 172.3 80.65 173.25 79.5
M 170.35 79.95
L 170.7 79.95
Q 170.8 80.35 170.8 80.75 170.9 81.2 170.65 81.5 170.55 81.65 170.25 81.9
L 170.2 82.3 170.2 83.2
Q 170.05 83.65 169.95 83.75 169.75 83.7 169.75 83.4
L 169.7 81.9
Q 169.7 81.45 169.8 81.3 170.2 80.95 170.25 80.65 170.35 80.45 170.35 79.95
M 168 76.6
Q 169.15 77.2 169.55 77.25 170.15 77.25 170.35 77.45 170.55 77.6 170.4 77.9 170.35 78.15 170.15 78.1
L 170.1 77.7 168.65 77.55 166.55 76.45
Q 165.75 76.05 165.35 75.7
L 164.85 75.35 164.05 75.2
Q 163.7 75.1 162.9 74.5
L 161.4 73.4
Q 161.9 73.4 162.5 73.85 163.35 74.45 163.6 74.55 164.05 74.75 165.05 75.05 165.4 75.15 166 75.55
L 168 76.6
M 169.5 86
L 169.8 86 169.85 86.8 169.6 87.1 169.5 86.75 169.5 86
M 170.35 92.15
Q 170.65 91.9 170.9 92
L 172.55 95.35
Q 172.9 96.05 173.1 96.3 173.4 96.7 174.45 97.25 175.5 97.8 175.8 98.2 176.05 98.55 176.25 99.4
L 176.75 100.85
Q 175.5 99.9 175.2 98.4
L 173.25 97.25 172.45 96.6
Q 172.2 96.3 171.8 95.6
L 170.35 92.15
M 177.4 103.05
Q 177.45 103.25 177.65 103.6
L 177.65 103.7 177.7 103.8 178.05 104.15 177.9 104.4 177.7 104.35 177.4 104.05 177.3 103.9 177.3 103.7 177.2 103.6 177.15 103.35 177.15 103.05 177.4 103.05
M 178.65 35.9
Q 177.1 35.9 175.55 36
L 177.4 37
Q 178.3 37.45 178.4 37.95
L 183.8 37.95
Q 185.2 37.95 185.8 37.85 187.2 37.6 187.45 37.6 189.05 37.6 190.4 39.25 191 40.15 191.4 40.3 191.6 40.35 192.5 40.35 195.1 40.15 196.35 41.3 197.4 42.2 197.45 43.4 197.55 44.15 197.05 44.55 196.75 44.65 196.3 44.65 194.65 44.7 193.2 44.65 192.95 44.7 192.4 44.75
L 190.5 44.8
Q 186.85 45 185.45 45.65 184.45 46.1 184.1 46.7
L 183.75 47.55
Q 183.4 48.1 182 48.45 180.55 48.85 180.25 49.45 180.05 49.8 179.95 50.75 179.65 51.5 178.4 51.95 176.7 52.45 176.5 52.5 175.9 52.8 175.1 53.9 174.25 54.8 173.6 55.15
L 173.8 56.85
Q 174 58.35 174.25 59.05 174.5 59.45 174.3 59.7 174.65 59.8 174.55 60.15 174.35 60.25 174.2 60.25
L 174.25 60.4
Q 173.95 60.7 173.55 60.5 173.1 60.3 172.95 59.9 172.75 59.3 172.65 59.1 172.45 58.65 172.1 58.45 171.75 58.25 171 58.2 170.25 58.15 169.95 57.85 169.6 57.55 169.7 56.8 169.75 55.75 169.7 55.5 169 55.2 168.05 55.65 167.05 56.3 166.5 56.6 165.7 56.95 164.05 56.9 162.25 56.9 161.55 57.1 160.5 57.4 159.85 58.1 159.95 58.5 159.95 59 159.9 60.3 159.1 61.7 158.15 63.5 158.6 64.5 159 65.25 160.1 65.4 160.95 65.55 161.85 65.1 162.4 64.8 163.35 64.15 164.3 63.3 164.85 63.05 165.55 62.65 165.95 62.9 166.4 63.15 166.4 64.05 166.45 65.5 166.1 67 167.45 68.15 167.25 69.95
L 173.85 73.55
Q 175.3 74.15 175.85 74.05 176.2 74 177.6 73.2 179.9 71.5 183 71.3 184.45 71.1 185.35 71.65 185.85 72 186.7 72.8 187.35 73.2 188.3 73.35 188.95 73.4 190.15 73.4 193.1 73.55 196.25 75.75 198.05 76.95 201.5 80.3 203.3 82.05 204.75 82.8 205.55 83.25 207.55 83.9 208.8 84.6 210.25 86.05 211.1 86.85 212.7 88.5 213.05 88.95 213.95 89.7 214.65 90.4 215.05 90.95 216.45 93.25 215.3 95.95 214.3 98.15 211.9 99.9 210.7 100.6 210.15 101.05 209.15 101.75 208.55 102.4 208.05 103 207.3 104.3 206.75 105.1 206.35 105.65
L 206.5 105.6 206.75 105.85 206.45 106.55
Q 206.35 106.95 206.1 107.1 205.9 107.25 205.35 107.15 205.35 107.1 205.8 106.65 206.3 106.25 206.3 105.7 206.05 106 205.85 106.2 204.7 107.5 202.15 108.4 198.5 109.8 198.05 110.1 194.8 111.75 193.15 115 192.95 115.4 192.65 116.3 192.25 117.1 191.9 117.65 191.25 118.5 190 119.4
L 186.85 121.9
Q 193.6958984375 122.85 201.1 122.85 203.3865234375 122.85 205.45 122.65 207.2869140625 122.4873046875 208.95 122.15 211.189453125 120.408203125 213.3 118.35 227.55 104.2 227.55 84.2 227.55 82.65 227.45 81.1 227.35 80.8 227.3 80.75
L 227.1 80.05 226.45 79.1
Q 226.2 78.75 225.9 78.2 225.55 77.3 225.4 77.15 225 76.45 224.5 75.85
L 222.6 73.65
Q 221.95 72.75 221.85 72.4 221.7 71.95 221.75 71.2 221.75 70.1 221.75 69.95 221.7 69.45 221.55 69.05 220.1 68.8 219.15 67.85 218.75 67.45 218.55 67
L 218.45 66.3
Q 218.55 64.15 218.35 63.45 218.15 62.9 217.75 62.75 217.95 62.75 217.95 62.6 218.5 62.65 218.85 63.25 219.25 63.95 219.15 65.25 219.05 66.15 219.25 66.6
L 219.75 67.25
Q 220.1 67.75 220.55 68 221.05 68.3 221.35 68.55 221.25 68.4 221.15 68.25
L 220.35 67
Q 220.15 66.55 220.25 65.85
L 220.45 58.9
Q 217.5 54.25 213.3 50.05 198.95 35.9 178.65 35.9
M 182.35 70.25
Q 183.8 69.85 184.85 69.9 186.95 70 188.35 71.45 186.9 71.55 185.85 70.55 184.55 70.45 182 71.05 179.35 71.6 175.8 71.9 175.7 71.8 175.8 71.6 175.95 71.5 176.1 71.45
L 182.35 70.25
M 192.05 72.3
L 191.8 72.4 190.55 72.35 190.5 72.15 190.7 72.05 190.7 72 191.3 72 191.9 72.1
Q 192.05 72.2 192.05 72.3
M 200.8 76.45
Q 201.1 76.7 201.6 77.4 202.85 78.9 204.5 80.3 205.7 81.15 205.7 81.9 203.15 80.4 201.6 78.55 200.55 77.25 200.35 77.05 199.95 76.65 198.8 76.05 197.65 75.45 197.2 75
L 197.05 74.65
Q 196.95 74.4 197.2 74.4 198.1 75.1 199.3 75.7 200.4 76.15 200.8 76.45
M 221.5 72.45
L 221.65 72.55
Q 221.75 72.7 221.65 73.1 221.65 73.5 221.7 73.55
L 221.6 73.7
Q 221.3 73.55 221.3 73.15 221.3 72.85 221.25 72.8 221.1 72.75 221.05 72.65
L 221.05 72.45
Q 220.95 72.3 220.85 72.2 220.7 72.05 220.7 71.35
L 221.05 71.35
Q 221.15 71.45 221.1 71.8 221.15 71.95 221.4 72.2
L 221.5 72.45
M 210.4 84.95
L 209.95 84.55 209.45 84.35
Q 208.5 84.05 208.1 83.75 207.75 83.65 207.85 83.5 208.7 83.45 209.6 83.7 210.05 83.8 210.25 84.05 210.5 84.25 210.75 84.95 210.65 85.2 210.4 84.95
M 223.05 77.25
Q 222.75 76.95 222.75 76.45 222.9 76.3 223.1 76.55
L 223.35 76.8
Q 223.6 77.05 224.25 77.45
L 224.4 77.95 224.7 78.35
Q 225.15 78.7 225.45 79.25
L 225.25 79.35
Q 225.05 79.05 224.95 78.95
L 224.65 78.8
Q 224.35 78.7 224.05 78.15 223.6 77.55 223.35 77.4
L 223.05 77.25
M 211.15 101.4
Q 211.65 101.2 212.5 100.6 213.9 99.7 214.4 99 214.75 98.5 215.15 98.7 215.5 99.05 214.9 99.65 213.4 101.1 211.3 102.05
L 209.9 102.75
Q 208.5 103.65 207.75 104.05 207.75 104 207.75 103.9 207.75 103.75 207.8 103.7 207.85 103.65 208.1 103.5 208.2 103.45 208.55 103.05 209.2 102.15 210.05 101.8
L 211.15 101.4
M 198.45 111.15
Q 198.7 111 199.35 111 199.95 111 200.05 111.3 199.85 111.45 199.35 111.6 198.85 111.7 198.65 111.8
L 197.55 112.75 197.35 113.2
Q 197.3 113.45 197 113.85
L 196.65 114.25
Q 196.3 114.5 195.75 114.5 195.7 114.35 195.9 114.2 196 114.15 196.2 113.95
L 196.7 113.2
Q 197 112.45 197.85 111.6 198.25 111.2 198.45 111.15 Z"/>
</g>
</defs>

<g transform="matrix( 1, 0, 0, 1, 1,-2) ">
<use xlink:href="#Layer0_0_MEMBER_0_FILL"/>
</g>

<g transform="matrix( 1, 0, 0, 1, 1,0.1) ">
<use xlink:href="#Layer0_0_MEMBER_1_FILL"/>
</g>
</svg>
