
<svg xmlns="http://www.w3.org/2000/svg" version="1.1" xmlns:xlink="http://www.w3.org/1999/xlink" preserveAspectRatio="none" x="0px" y="0px" width="250px" height="250px" viewBox="0 0 250 250">
<defs>
<g id="Layer4_0_FILL">
<path fill="#EDEBD3" stroke="none" d="
M 287 35.05
Q 287 30.05 282 30.05
L 42 30.05
Q 37 30.05 37 35.05
L 37 275.05
Q 37 280.05 42 280.05
L 282 280.05
Q 287 280.05 287 275.05
L 287 35.05 Z"/>
</g>

<g id="Layer4_1_FILL">
<path fill="#3B3D35" stroke="none" d="
M 173.95 95.3
Q 173.4 93.9 172.7 92.5 172.2 91.45 171.6 90.45 166.45 81.8 155.2 75.1 150 72 140.95 67.25 134.5 63.5 134.5 60.25 134.5 59.75 136.6 52.55
L 136.45 51.35
Q 139.75 50.8 141.9 46.6 143.55 43.35 143.55 41.2 143.55 40.25 143.05 38.8 142.4 36.8 141.1 35.45
L 140.85 35.5
Q 141.35 34.1 141.35 32.15 141.35 28.7 140.45 25.85 139.85 23.65 138.7 21.85 134.75 15.3 125.15 14.1
L 125.1 14.1
Q 115.45 15.3 111.5 21.85 110.4 23.65 109.75 25.85 108.9 28.7 108.9 32.15 108.9 34.1 109.4 35.5
L 109.15 35.45
Q 107.85 36.8 107.15 38.8 106.65 40.25 106.65 41.2 106.65 43.35 108.35 46.6 110.45 50.8 113.8 51.35
L 113.6 52.55
Q 115.7 59.75 115.7 60.25 115.7 63.5 109.25 67.25 100.2 72 95 75.1 74.3 87.45 74.3 106.4 74.3 112.1 74.65 113.5 75.15 115.35 77.05 118.45 76.5 122 75.35 129.55 75 131.45 74.8 133.2 74.55 134.7 74.35 136.05 73.1 144.35 73.1 146.9 73.1 148 73.4 149.8 73.45 150.4 73.6 150.95 73.65 151.35 73.8 151.8 74.2 153.8 74.85 154.85 73.85 158.15 72.35 162.85 70.15 171.1 70.55 177 70.75 179.85 70.7 184 70.6 186.3 70.55 190.7 70.55 193.65 69.55 198.2 69.2 200 68.95 201.4
L 68.75 201.35
Q 66.4 202.55 63.85 203.45 62.05 204.45 59.45 207.95 57.05 211.2 56.9 211.4 55.05 214.15 55.05 215.4 55.05 216.75 55.1 216.95
L 55.45 217.35 58.9 217.35
Q 61.05 216.35 61.3 216.7 59.25 221.15 58.85 224.1 58.65 225.5 58.65 230.9 58.65 233.75 58.8 234.55 59.2 236.65 60.75 237.85
L 64 237.85
Q 70.45 235.8 74.65 226.35 78 218.8 78 212.85 78 208.95 77.3 206.1 81.9 195.05 83.9 189.25 89.25 173.9 89.25 164.15 89.25 157.7 89.05 156.2 88.8 153.75 88.1 151.8 87.7 150.75 87.2 149.8 88.9 144.3 90.15 140.35 90.85 138.1 91.45 136.05 91.9 134.55 92.25 133.2 92.25 133 92.35 132.9 92.4 133 92.45 133.2 92.5 133.55 92.65 133.95 92.95 135.05 93.3 136.05 96 145.1 96.75 148.65 96.5 149.2 96.3 149.8 95.95 150.8 95.55 151.8 94.55 154.7 93.9 158.05 92.6 164.2 90.7 177.35 89.95 181.9 88.05 195.1 85.75 211.05 85.75 213.65 85.75 223.75 85.8 224.1 86.25 229.35 89.25 235.7 90.65 238.8 91.95 246.9 92.2533203125 248.00859375 92.65 249
L 157.55 249
Q 157.9466796875 248.00859375 158.25 246.9 159.55 238.8 161 235.7 163.95 229.35 164.4 224.1 164.45 223.75 164.45 213.65 164.45 211.05 162.15 195.1 160.25 181.9 159.5 177.35 157.65 164.2 156.35 158.05 155.65 154.7 154.65 151.8 154.3 150.8 154 149.8 153.75 149.2 153.5 148.65 154.25 145.1 156.95 136.05 157.25 135.05 157.55 133.95 157.7 133.55 157.8 133.2 157.8 133 157.9 132.9 157.95 133 158 133.2 158.3 134.55 158.8 136.05 159.35 138.1 160.05 140.35 161.3 144.3 163.05 149.8 162.55 150.75 162.15 151.8 161.4 153.75 161.15 156.2 161 157.7 161 164.15 161 173.9 166.3 189.25 168.3 195.05 172.9 206.1 172.2 208.95 172.2 212.85 172.2 218.8 175.55 226.35 179.8 235.8 186.25 237.85
L 189.45 237.85
Q 191 236.65 191.45 234.55 191.55 233.75 191.55 230.9 191.55 225.5 191.4 224.1 190.95 221.15 188.9 216.7 189.15 216.35 191.3 217.35
L 194.8 217.35 195.1 216.95
Q 195.15 216.75 195.15 215.4 195.15 214.15 193.3 211.4 193.15 211.2 190.75 207.95 188.15 204.45 186.35 203.45 183.8 202.55 181.45 201.35
L 181.25 201.4
Q 181 200 180.65 198.2 179.65 193.65 179.65 190.7 179.6 186.3 179.55 184 179.45 179.85 179.65 177 180.1 171.1 177.85 162.85 176.35 158.15 175.35 154.85 176.1 153.55 176.6 150.95 176.75 150.4 176.85 149.8 177.1 148 177.1 146.9 177.1 143.5 174.9 129.55 174.4 126.15 173.95 123.6 173.45 120.45 173.15 118.45 173.6 117.75 173.95 117.1 175.2 114.9 175.55 113.5 175.95 112.1 175.95 106.4 175.95 100.5 173.95 95.3 Z"/>
</g>

<g id="Layer1_0_FILL">
<path fill="#2A201E" stroke="none" d="
M 441 28.65
Q 438.9 26.9 435.9 26.75 432.9 26.6 430.75 28 428.45 29.6 428.45 32.3 428.45 34.5 428.9 35.35 429.65 36.7 432.55 38.8
L 432.7 38.8
Q 432.65 39 432.65 39.25 432.65 40.4 432.75 41 433.1 41.2 433.3 41.35 433.45 41.4 433.75 41.45 433.3 47.05 433.3 67.25
L 433.3 84.15
Q 433.35 84.9 433.15 87.15 433.15 88.05 433.35 88.7 432.6 88.85 431.7 89 427.35 89.5 425.15 90 417 91.75 417 99 417 102.3 417.65 104.2 417.3 105 416.95 106.4 416.45 108.55 416.45 109.4 416.45 110.8 416.65 111.2 417.15 112.35 419 112.75
L 420.25 112.75
Q 420.3 112.75 422.15 110.7 423.5 109.15 425.85 108.75 429.9 108.1 431.2 107.4 432.05 106.95 434.15 105.5 435.95 104.5 439.65 101.15 440.65 100.25 441.45 99.5 442.6 98.3 443.2 97.5 444.05 98.5 444.05 100.1 444.05 103.2 441.5 104.5 440.4 105.1 435.95 106 432.1 106.75 430.4 108.2 427.85 110.3 427.85 114.75 427.85 115.8 427.95 116.15 428.15 116.8 429 117.7 428.8 117.7 428.55 117.7 426.75 117.7 425.65 116.95 424.65 116.1 424.05 115.8
L 421.95 115.8
Q 419.9 115.95 418.25 117.15 417.2 117.9 417 118.45 415 119.8 414.4 121.45 413.95 122.6 413.95 125.55 413.95 126.1 414.6 128.75 415.2 131.35 415.2 131.55 415.2 132.05 414.75 135.6 414.25 139.1 414.25 139.6 414.25 142.45 415.45 143.45 416.4 144.3 421.1 148.2
L 425.75 148.2
Q 426.65 147.85 427.3 147.35 427.55 147.55 427.95 147.85 428.8 148.5 428.8 148.8 428.8 148.85 428.35 151.35 428.45 153.85 431.4 153.85 431.8 153.85 432.3 153.8 432.25 153.9 432.25 153.95 432.25 154.75 433.4 156.2
L 434.35 156.4
Q 434.25 157.25 433.8 159.1 433.75 160.75 435.5 161.65
L 437.5 161.75 438.05 161.65
Q 438.3 157.2 438.45 156.4 439.75 156.25 440.3 155.15 442 156.05 444.45 156.05 448 156.05 449.8 153.8 450.75 152.6 451.3 151.05 452.35 149.95 454.45 147.65 456.05 145.75 456 144.7
L 456 138.4
Q 456 137.15 456.45 134.8 456.85 132.45 456.85 132.1 456.85 130.5 456.05 128.05 455.2 125.6 455.2 123.25 455.2 120 457.15 116.85 459.05 113.7 459.05 112.35 459.05 110.3 458.75 109.85 458.05 108.85 455.25 107.7 456.55 106 456.75 105.35 456.85 105 456.85 103.15 456.85 100.05 455.8 98.15 454.6 95.9 450.95 92.95 450.15 92.7 448.55 93.4 446.9 94.1 446.85 94.85 446.7 94.55 446.5 94.25 446.45 94.15 446.4 94.05 447.1 93.7 447.75 93.05 448 92.8 448.15 92.6 448.55 92 448.55 91.45 448.55 91.35 448.55 91.25 448.65 91.1 448.75 90.95
L 448.85 90.35
Q 447.6 88.95 442.85 87.95 440.4 87.4 438.85 87.45
L 438.85 52.6
Q 438.7 47.15 438.7 46.45 438.6 43.65 438.3 41.45 438.7 41.25 439.3 40.9 439.85 40.3 440.05 38.95 440.2 37.75 440.65 37.45 442.8 35.95 443.15 35.35 443.3 35.1 443.3 33.8 443.3 30.6 441 28.65
M 438.7 29.2
Q 439.9 29.75 440.45 30.2 440.8 30.4 441.3 31.9 441.8 33.3 441.8 33.7 441.8 34.4 440.6 35.25 439.15 36.25 438.65 37.35 438.55 37.6 438.55 38.3 438.5 38.95 438.35 39.25 438.2 39.5 437.35 39.85 436.65 40.15 436.65 40.85 436.65 41.85 436.9 41.35
L 437.55 41.5
Q 436.8 43.35 436.85 46.8 436.85 49.5 437 55.1 436.75 60.15 437 70.55 437 71.05 436.95 74.5 436.9 78.1 437 80.05 437.05 81.45 436.85 84.9 436.85 86.3 437.1 87.4
L 436.65 87.4
Q 436 87.9 434.9 88.3
L 435 67
Q 435 47.4 434.55 41.45 434.85 41.4 434.95 41.25 435.05 41.1 435.1 40.8 434.9 40.15 434.4 39.65
L 434.35 39.65
Q 434.35 39.6 434.35 39.55 434.2 39.15 434.1 39.4
L 433.95 39.25
Q 434.05 38.85 434.15 38.55
L 434.25 38.4
Q 434.2 38.3 434.15 38.2 434.15 37.65 433.95 37.35 433.6 37.45 433.35 37.65 431.85 37.05 430.75 35.1 429.7 33.35 429.7 32.4 429.7 31.2 430.45 30.2 431.9 28.3 435.6 28.3 436.9 28.3 438.7 29.2
M 418.8 97.8
Q 419.45 95.4 421.3 93.8 423.3 92.1 431.55 90.75 435.95 90 437.7 89.25 437.8 89.5 437.95 89.7 438.45 89.5 438.85 89.2
L 438.85 88.8
Q 442.1 89.3 444.75 90.25 445.95 90.65 447.25 91.25 446.8 91.6 446.45 92.1 446.35 92.25 446.3 92.35 445.95 92.95 445.9 93.4 445.75 93.15 445.7 93.05
L 445.1 93.05
Q 445.05 93.3 444.95 93.35 444.95 93.45 444.95 94.1 444.95 95.15 446.75 96.45 447.2 96.25 447.3 95.9 447.3 95.85 447.3 95.8 447.4 95.85 447.6 95.9
L 449.85 94.75
Q 452.05 94.75 453.8 98.65 455.2 101.75 455.2 103.4 455.2 104.25 454.35 105.75 453.9 106.55 453.6 107.2 447.5 107.6 446.15 108.45 445.7 108.7 444.65 111.15 444.4 111.8 443.6 113.35 441.1 113.4 439.55 112.6 437.7 111.7 433 112.2 432.2 112.8 432.05 113.65 431.95 113.95 431.95 115.05 431.95 116.1 432.9 117.05 433.2 116.95 433.3 116.75 432.75 115 433.5 113.6
L 434.55 113.5
Q 438.45 113.8 439.5 114.25 440.15 114.5 441.3 115.15
L 442.7 115.15
Q 442.3 115.95 442.15 116.55 439.8 116.45 437.95 117.35 436 118.3 435.8 118.3 435.35 118.1 434.7 117.95 433.7 117.65 430.25 117.7
L 430.45 117.45
Q 429.85 116.35 429.8 116.25 429.5 115.6 429.5 114.95 429.5 111.2 432 109.45 433.6 108.3 437.45 107.45 441.55 106.6 442.9 105.85 445.4 104.4 445.4 101.3 445.4 99.55 445.1 98.4 444.6 96.6 443.5 97.05 443.8 96.5 443.8 96.15 443.8 95.55 443.7 95.5 443.45 95.55 443.2 95.4 442.7 95.55 441.5 96.55 440.45 97.4 438.85 98.85 435 102.4 433.6 103.3 432.1 104.55 431.15 105.1 429.5 106 425.3 106.85 423.8 107.15 421.7 108.85 419.4 110.7 419.1 110.85 418.75 110.5 418.35 109.2 418.05 108 418.05 107.5 418.05 107 418.45 105.95 418.45 105.9 418.5 105.85 418.85 106.25 419.3 106.45 419 105.3 418.8 104.45 418.8 104.4 418.8 104.35 418.8 103.7 418.7 103.55 418.65 103.55 418.6 103.5 418.35 102.35 418.35 101.85 418.35 99.3 418.8 97.8
M 446.65 110.55
Q 447.85 109.45 453.9 109.05 455.95 110.1 456.6 110.8 457.15 111.35 457.15 112.2 457.15 113 455.75 115.25 454.3 117.4 454.25 117.6 453.5 119.9 453.5 123.25 453.5 123.7 453.55 124.2
L 453.5 124.15 453.4 124.2
Q 452.65 124.3 451.75 124.25 451.65 123.45 451.4 122.95 451.25 122.55 451.1 122.15 452 121.8 452.1 121.05 451.75 120.95 451 121.35 450.95 121.4 450.9 121.4 450.75 120.7 450.7 120 450.7 119.5 450.75 119.05 451.7 118.15 451.85 116.5 453.75 115 453.75 113.8 453.75 113.5 453.7 113.45
L 453.6 113.5
Q 452.8 114.55 451.9 115.55 451.85 115.1 451.7 115
L 451.5 115.05
Q 450.95 115.25 450.15 116.3 449.5 117.15 449.15 117.6 447 115.85 446.4 115.8
L 446.3 116.1
Q 446.55 116.45 447.55 117.25 448.2 117.8 448.6 118.05 446.75 118.4 445.55 119.2 445.45 119.3 445.3 119.4 444.95 119.05 444.35 118.7 443.25 118 442.95 118.1 443.05 118.4 444.1 119.35 444.45 119.7 444.75 119.95 444.45 120.2 444.15 120.55
L 441.6 120.75
Q 440.8 120.2 440.4 120.2
L 441.1 120.85
Q 440.65 121 440 121.65 439.2 122.55 439.1 122.65 438 122.7 437.1 122.75
L 437.05 122.7
Q 436 121.55 435.25 121.5 435.6 122.15 436.25 122.85 435 122.95 434.15 123.15 432.5 123.45 432.45 123.45 431.9 123.45 431.4 123.4 431.3 123.05 431.2 122.7 430.9 121.3 430.8 120.95
L 430.45 121
Q 430.75 122.4 430.95 123.3 430.05 123.05 429.35 122.6 428.05 121.7 426.4 121.7 426.65 121.05 426.95 120.25 426.4 120.4 425.9 121.4 425.8 121.6 425.7 121.75 425.3 121.8 424.8 121.95 423.85 122.2 423.75 122.2 423.3 122.1 422.05 121.8 422.15 121.6 422.2 121.5 422.7 120.55 423.55 119.85 422.75 119.75 421.9 120.95 421.65 121.35 421.45 121.65 420.5 121.4 419.85 121.35 418.95 121.3 418.55 121.9 418.25 122.3 418.25 122.8 418.25 123.8 418.35 123.45 418.45 123.45 418.6 123 418.7 122.5 419.3 122.5 419.45 122.5 420.1 122.75 420.05 122.85 420.05 122.95 420.05 123 420.05 123.05
L 419.95 123.05 419.9 125.75
Q 419 125.55 418.1 125 417.2 124.3 417.15 124.3
L 417.05 124.45
Q 417.25 124.7 417.65 125.35 418.3 125.95 419.9 126.1
L 419.75 130.25
Q 418.5 130.4 418.1 130.2 417.8 129.85 417.55 129.75
L 417.5 129.9
Q 418.2 130.6 418.4 130.65
L 419.75 130.7 419.75 131
Q 419.75 132.35 419.95 132.75 420.1 133.05 421.65 134.85 421.85 135.05 421.75 136.75 421.7 138.1 422.2 138.7 421.1 139.3 419.1 139.5
L 418.95 139.6
Q 419.05 139.9 420.6 139.9 421.2 139.9 422.4 138.9
L 422.45 138.95
Q 424.15 139 424.35 140.25 424.45 140.9 424.25 141.9 424.3 142.1 424.4 142.35 424.25 142.4 424.1 142.5 423.7 142.85 423.6 142.9 422.5 143.35 420.85 143.35 420.85 143.5 421 143.65 421.4 143.9 422.6 143.9 423.05 143.9 423.9 143.2 424.25 142.9 424.5 142.65 424.8 143.3 425.4 143.95 426.25 144.85 426.25 145.35 426.25 145.4 426.25 145.45 425.7 145.85 425.1 146.1
L 421.65 146.1
Q 421.2 145.65 417.4 142.6 416.15 141.55 416.15 139.7 416.15 139.2 416.6 136.8 417 134.35 417 133.85 417 132.3 416.3 128.5 415.55 124.7 415.55 123.95 415.55 123.45 416.75 121.05 417.3 120 417.7 119.3 418.1 118.95 418.75 118.35 420.25 117.25 421.95 117.25 424 117.25 425 118.3 426.05 119.35 427 119.35 433.05 119.35 434.2 119.8 435.35 120.2 435.8 120.2 436.4 120.2 437.05 119.75 438.1 118.95 442.35 117.9 443.6 116.8 444.4 115.5 444.55 115.25 445.6 113.15 446.2 112.1 446.65 110.55
M 445.7 121.6
Q 446.45 121.05 447.3 120.1 448.7 120.1 449.65 119.7 449.6 120.15 449.6 120.75 449.6 121.4 450.05 123.65 450.45 125.75 450.35 126.4 450.15 128.1 450.85 129.65 451.6 131.4 451.6 132.1 451.6 132.5 451.35 133.55 451.1 134.45 451.2 134.95 451.25 135.2 451.7 136.6 452 137.65 452 138.25 452 139.3 451.85 139.7 451.35 140.9 449.4 141.25 449.25 141.65 449.05 144.2 448.1 146.5 443.9 146.5 443.35 146.2 442.6 145.95 441.05 145.35 439.6 145.35 439.1 145.75 438.8 146.6 438.65 147 438.55 147.45 438.3 148.2 437.5 148.65 436.4 149.2 436.35 149.25 436 149.6 435.6 150.3 435.3 150.9 434.55 151.45 433.8 152.05 433.3 152.5 430.95 152.05 429.85 151.45 430.85 150.1 429.8 148.15 429.6 147.8 428.3 146.05 428.35 145.8 428.35 145.55 428.35 144.95 428.1 144.85 427.7 144.85 427.4 144.7
L 427.35 144.7
Q 427.1 144.3 426.65 143.75 425.65 142.55 425.5 142 425.4 141.55 425.35 140.1 425.35 139 425 138.5 424.8 138.2 423.65 137.9 423.55 137.85 423.5 137.8 423.7 137.5 423.75 137.3 423.6 137.45 423.4 137.65 423.05 137.05 423 135.05 422.95 133.85 421.85 132.95 420.8 132.05 420.8 131.1 420.85 128.65 420.8 127.35 420.8 126.45 420.7 125.55
L 420.9 123.05
Q 421.8 123.4 423.2 124 424.1 123.95 425.3 123.65 426.4 123.35 426.9 123.35 426.95 123.35 428.7 124.55 429.9 125.35 432.45 125.35 433.65 125.35 433.95 125.05 434.15 124.9 437.15 124.6
L 437.8 124.55
Q 437.9 124.55 438 124.6 438 124.55 438.05 124.55
L 440.15 124.3 441.8 122.65
Q 444.4 122.6 445.7 121.6
M 451.8 125.15
L 452.9 125.15
Q 453.45 125 453.55 124.7 453.7 126.65 454.35 128.2 455.2 130.35 455.2 132.05 455.2 133.15 454.4 137.75 453.65 141.8 454 143.45 454.25 144.65 452.95 146.35 452.45 147 450.85 148.7 450 149.65 448.85 151.55 448.75 152.65 448.1 153.25 446.9 154.3 442.65 154.3 442.4 154.3 441.2 153.6 440.95 153.45 440.75 153.35 440.75 153.05 440.75 152.75 440.75 152.15 440.6 152.15
L 440.45 152.3
Q 440.3 152.4 439.85 152.9 439.45 152.7 439.2 152.6 438.9 152.75 438.65 153.15 438.45 153.5 438.45 153.75 438.6 153.85 438.85 154.05 438.8 154.1 438.7 154.2 437.1 156 436.9 156.2 436.9 156.25 436.95 158.55 436.95 160.05 436.35 160.4 435.5 159.55 435.4 159.35 435.2 159.1 435.2 158.6 435.2 158.1 435.65 157.65 436.05 157.2 436.05 156.7 436.05 156.05 435.75 155.65 435.35 155.3 435.2 155.15 434.05 155 433.7 154.4 433.55 153.8 433.5 153.75
L 433.65 153.6
Q 433.8 153.6 433.95 153.55
L 433.95 153.35 434.15 153.15
Q 435 152.9 436.25 152.3 436.8 151.65 437.6 150.1 438 149.9 438.45 149.8 438.4 149.95 438.4 150.15 438.4 150.55 438.95 151.35 439.15 151.3 439.2 151.15 439 150.45 439 149.6 439.1 149.6 439.2 149.55 439.8 148.7 439.8 146.8
L 440.75 146.7
Q 441.65 147.15 442.55 147.6 443.1 147.8 444.55 147.85 444.25 148.3 443.9 149.25 443.45 150.55 443.45 150.95 443.45 151.4 443.5 151.55 443.6 151.75 444.1 151.95
L 444.25 151.8
Q 444.2 151.55 444.7 149.9 445.2 148.15 445.2 147.9
L 445.2 147.85
Q 445.8 147.85 446.4 147.7 446.3 147.85 446.3 148.1 446.3 150.1 447.45 150.3
L 447.55 150.1
Q 447.45 149.4 446.75 147.55 448.05 147 449.1 145.65 449.55 145 449.9 144.3
L 449.85 145.25
Q 449.85 146.45 450.3 146.7
L 450.4 146.4 450.45 145.25
Q 450.45 144.25 450.25 143.5 450.3 143.35 450.35 143.25 450.5 142.85 451.65 141.95 451.95 141.7 452.2 141.55 452.4 142.1 452.9 142.45 453.1 142.35 453.2 142.05 453.1 141.95 452.75 141.05 452.85 141 452.85 140.95 453.3 140.15 453.3 137.95 453.3 137.45 453 135.75 452.85 135 452.85 134.35 452.95 134.35 453.1 134.4 453.65 134.4 454.3 134.25 454.3 134.05 454.15 133.85
L 454 133.75
Q 453.3 133.6 452.85 133.25 452.85 133.15 452.85 133.05 452.9 132.25 452.25 130.4 452 129.75 451.85 129.3 451.95 129.3 452.05 129.35
L 452.9 129.35
Q 453.25 129.25 453.4 129.05
L 453.2 128.75 452.1 128.55
Q 451.9 128.45 451.6 127.95 451.8 126.3 451.8 125.15
M 441.35 151.25
Q 441.55 151.15 441.7 151 442.05 148.8 442.1 147.85 441.4 148.05 441.15 149.15 441.05 149.6 441.05 150.35 441.05 150.95 441.35 151.25
M 440.1 140.95
Q 440.05 140.9 440 140.9 439.85 140.85 439.85 141.15 439.85 141.65 439.95 141.4 441.9 141.85 442.85 143.1 443.35 143.8 444.2 145.1
L 444.35 144.95
Q 443.9 143.5 443.35 142.8 442.35 141.6 440.1 140.95
M 433 146
Q 432.75 146.25 431.45 146.85 430.2 147.45 429.9 147.8 430.2 148.1 430.7 148.1 432.4 148.1 433.6 146.8 434.6 145.75 434.6 144.9 434.6 144.55 434.35 144.3 434.05 144.4 433.7 144.95 433.2 145.75 433 146
M 429.8 139.25
Q 430.1 138.9 430.1 138.55 430.1 137.95 429.9 137.05
L 429.7 137.05
Q 430.15 138.55 428.35 139.55 426.35 140.65 426.35 141.55
L 426.45 142.6 427.05 142.55 427.1 142.4
Q 426.9 140.9 429.25 140.2 429.4 139.7 429.8 139.25
M 432.5 142.05
Q 432.4 141.95 432.4 141.9 431.75 142.8 431.3 143.2 430.5 143.85 429.75 144.05 429.45 144.1 428.55 144.1 428.55 144.45 428.75 144.6 429 144.75 429.45 144.85 431.3 143.9 431.75 143.55 432.55 143 432.55 142.4 432.55 142.1 432.5 142.05
M 432.2 138.05
Q 432.4 137.1 432.4 136.65 431.55 137.65 431.55 139.45 431.55 139.95 432.45 141.2 432.8 141.75 435.5 142.55 436.5 143.2 436.8 144.4 437.15 145.8 437.4 146.1 437.6 146.05 437.75 145.9
L 437.85 144.5
Q 437.85 142.25 435.05 141.5 432.2 140.8 432.2 138.05
M 436.45 132.15
Q 437.25 131.65 437.25 130.95 437.25 130.65 437.2 130.55 437.1 130.5 437 130.4 436.85 130.45 436.2 131.35 435.85 131.85 433.9 131.85 432.65 131.85 430.85 131.4 429 130.9 427.65 130.9 425.95 130.9 425.25 131.6 424.75 132.4 424.55 132.55 424.7 132.75 425.25 132.75 425.5 132.75 426.75 131.8
L 428.35 131.8
Q 430 132 431.2 132.45 432.05 132.75 433.9 132.75 435.55 132.75 436.45 132.15
M 440.05 133.7
Q 439.7 134.15 438.25 134.65 436.75 135.15 435.55 135.15 432.4 135.15 431.25 134.85 431.05 134.75 429.85 134.05
L 427.75 134.05
Q 426.25 134.55 426.15 134.55 425.5 134.85 425.5 135.2 425.5 135.7 425.65 135.55 426.15 135.5 426.95 135.25 427.7 135.05 427.8 134.95
L 429.6 134.95
Q 430.55 136.15 435.6 136.15 438.95 136.15 440.5 134.7 441.6 133.65 441.6 132.2 441.6 131.9 441.5 131.85
L 441.4 131.85
Q 440.95 131.9 440.55 132.65 440.2 133.5 440.05 133.7
M 423.95 127
Q 423.25 125.9 422.5 125.5
L 422.45 125.65
Q 422.8 126 423.05 126.8 423.3 127.5 423.95 127.95 424.7 128.5 426.35 128.35 428.75 128.15 431.1 128.65
L 434.65 128.65 435.7 127.8 435.55 127.45
Q 435.45 127.4 431.15 127.6 430.65 127.3 428.25 127.3 426.3 127.75 425.8 127.75 424.35 127.75 423.95 127
M 446.5 143.8
Q 446.7 143.4 446.7 142.7 446.7 141.75 445.75 140.7 444.6 139.4 442.7 139.3
L 442.6 139.45
Q 444.95 140.1 445.6 141.6 446 142.4 446.5 143.8
M 448.3 140.95
Q 448.7 140.85 448.9 140.7
L 448.95 140.1
Q 448.95 139.65 447.85 138.6 447 137.75 446.6 137.5
L 443.6 137.5
Q 440.65 138.4 438.45 138.4 437.1 138.4 436.95 137.75 436.75 136.65 436.65 136.55
L 436.35 136.55 436.25 137.7
Q 436.25 137.75 436.55 138.55 437.35 139.35 439.8 139.35 440 139.35 441.6 139.05 443.4 138.7 443.7 138.55
L 446.3 138.55
Q 446.8 139.35 448.3 140.95
M 446.15 130.7
Q 445.95 130.35 445.75 130.3 443.8 130.25 443.55 130.45 443.5 130.8 443.15 131.05 443.3 131.2 443.8 131.3 444.2 131.2 445.1 131.35 445.5 131.4 446.15 130.7
M 449.1 135.4
Q 447.5 134 445.9 134.5 446.3 134.95 448.45 135.7 448.6 136.15 449.3 137.05 449.95 137.95 450.25 138.05 450.45 137.85 450.45 137.5 450.45 136.6 449.1 135.4
M 446.2 126.8
Q 446.95 127.4 447.5 128.4 448 129.4 448 130.4 448 130.85 447.65 131.25 447.2 131.85 447 132.5 447.05 132.65 447.45 132.7 448.6 132.05 448.85 131.5 448.95 131.25 448.95 130.3 448.95 125.1 444.7 126.05 443.2 126.4 441.8 127.4 440.45 128.35 440.45 128.95 440.45 129.25 440.5 129.3 440.55 129.3 440.65 129.35 440.85 129.25 442.7 128 443.9 127.2 446.2 126.8
M 419.1 133.75
Q 418.25 133.8 417.7 134.1
L 418.15 134.45 420 134.5 420.7 133.75
Q 419.2 133.75 419.1 133.75
M 430.85 97.6
Q 429.4 97.85 427.6 98.95 425.15 100.45 423.25 103.4 420.3 108.15 420.05 108.45
L 420.25 108.65
Q 421.5 107.2 424.05 104.1 426.4 101.4 429 99.5 429.8 98.95 436.7 97 440 96.05 442.1 94.5 443.1 93.7 443.85 92.75 444.15 92.4 444.35 92 443.6 92.2 441.25 93.7 438.7 95.3 437.5 95.7 433.5 97.15 430.85 97.6
M 430.15 99.35
Q 429.2 99.85 426.8 101.3
L 427 101.5
Q 430.15 100.25 433.4 98.35 432.15 98.35 430.15 99.35 Z"/>

<path fill="#C6A059" stroke="none" d="
M 452.9 125.15
L 451.8 125.15
Q 451.8 126.3 451.6 127.95 451.9 128.45 452.1 128.55
L 453.2 128.75 453.4 129.05
Q 453.25 129.25 452.9 129.35
L 452.05 129.35
Q 451.95 129.3 451.85 129.3 452 129.75 452.25 130.4 452.9 132.25 452.85 133.05 452.85 133.15 452.85 133.25 453.3 133.6 454 133.75
L 454.15 133.85
Q 454.3 134.05 454.3 134.25 453.65 134.4 453.1 134.4 452.95 134.35 452.85 134.35 452.85 135 453 135.75 453.3 137.45 453.3 137.95 453.3 140.15 452.85 140.95 452.85 141 452.75 141.05 453.1 141.95 453.2 142.05 453.1 142.35 452.9 142.45 452.4 142.1 452.2 141.55 451.95 141.7 451.65 141.95 450.5 142.85 450.35 143.25 450.3 143.35 450.25 143.5 450.45 144.25 450.45 145.25
L 450.4 146.4 450.3 146.7
Q 449.85 146.45 449.85 145.25
L 449.9 144.3
Q 449.55 145 449.1 145.65 448.05 147 446.75 147.55 447.45 149.4 447.55 150.1
L 447.45 150.3
Q 446.3 150.1 446.3 148.1 446.3 147.85 446.4 147.7 445.8 147.85 445.2 147.85
L 445.2 147.9
Q 445.2 148.15 444.7 149.9 444.2 151.55 444.25 151.8
L 444.1 151.95
Q 443.6 151.75 443.5 151.55 443.45 151.4 443.45 150.95 443.45 150.55 443.9 149.25 444.25 148.3 444.55 147.85 443.1 147.8 442.55 147.6 441.65 147.15 440.75 146.7
L 439.8 146.8
Q 439.8 148.7 439.2 149.55 439.1 149.6 439 149.6 439 150.45 439.2 151.15 439.15 151.3 438.95 151.35 438.4 150.55 438.4 150.15 438.4 149.95 438.45 149.8 438 149.9 437.6 150.1 436.8 151.65 436.25 152.3 435 152.9 434.15 153.15
L 433.95 153.35 433.95 153.55
Q 433.8 153.6 433.65 153.6
L 433.5 153.75
Q 433.55 153.8 433.7 154.4 434.05 155 435.2 155.15 435.35 155.3 435.75 155.65 436.05 156.05 436.05 156.7 436.05 157.2 435.65 157.65 435.2 158.1 435.2 158.6 435.2 159.1 435.4 159.35 435.5 159.55 436.35 160.4 436.95 160.05 436.95 158.55 436.9 156.25 436.9 156.2 437.1 156 438.7 154.2 438.8 154.1 438.85 154.05 438.6 153.85 438.45 153.75 438.45 153.5 438.65 153.15 438.9 152.75 439.2 152.6 439.45 152.7 439.85 152.9 440.3 152.4 440.45 152.3
L 440.6 152.15
Q 440.75 152.15 440.75 152.75 440.75 153.05 440.75 153.35 440.95 153.45 441.2 153.6 442.4 154.3 442.65 154.3 446.9 154.3 448.1 153.25 448.75 152.65 448.85 151.55 450 149.65 450.85 148.7 452.45 147 452.95 146.35 454.25 144.65 454 143.45 453.65 141.8 454.4 137.75 455.2 133.15 455.2 132.05 455.2 130.35 454.35 128.2 453.7 126.65 453.55 124.7 453.45 125 452.9 125.15
M 441.7 151
Q 441.55 151.15 441.35 151.25 441.05 150.95 441.05 150.35 441.05 149.6 441.15 149.15 441.4 148.05 442.1 147.85 442.05 148.8 441.7 151
M 453.9 109.05
Q 447.85 109.45 446.65 110.55 446.2 112.1 445.6 113.15 444.55 115.25 444.4 115.5 443.6 116.8 442.35 117.9 438.1 118.95 437.05 119.75 436.4 120.2 435.8 120.2 435.35 120.2 434.2 119.8 433.05 119.35 427 119.35 426.05 119.35 425 118.3 424 117.25 421.95 117.25 420.25 117.25 418.75 118.35 418.1 118.95 417.7 119.3 417.3 120 416.75 121.05 415.55 123.45 415.55 123.95 415.55 124.7 416.3 128.5 417 132.3 417 133.85 417 134.35 416.6 136.8 416.15 139.2 416.15 139.7 416.15 141.55 417.4 142.6 421.2 145.65 421.65 146.1
L 425.1 146.1
Q 425.7 145.85 426.25 145.45 426.25 145.4 426.25 145.35 426.25 144.85 425.4 143.95 424.8 143.3 424.5 142.65 424.25 142.9 423.9 143.2 423.05 143.9 422.6 143.9 421.4 143.9 421 143.65 420.85 143.5 420.85 143.35 422.5 143.35 423.6 142.9 423.7 142.85 424.1 142.5 424.25 142.4 424.4 142.35 424.3 142.1 424.25 141.9 424.45 140.9 424.35 140.25 424.15 139 422.45 138.95
L 422.4 138.9
Q 421.2 139.9 420.6 139.9 419.05 139.9 418.95 139.6
L 419.1 139.5
Q 421.1 139.3 422.2 138.7 421.7 138.1 421.75 136.75 421.85 135.05 421.65 134.85 420.1 133.05 419.95 132.75 419.75 132.35 419.75 131
L 419.75 130.7 418.4 130.65
Q 418.2 130.6 417.5 129.9
L 417.55 129.75
Q 417.8 129.85 418.1 130.2 418.5 130.4 419.75 130.25
L 419.9 126.1
Q 418.3 125.95 417.65 125.35 417.25 124.7 417.05 124.45
L 417.15 124.3
Q 417.2 124.3 418.1 125 419 125.55 419.9 125.75
L 419.95 123.05 420.05 123.05
Q 420.05 123 420.05 122.95 420.05 122.85 420.1 122.75 419.45 122.5 419.3 122.5 418.7 122.5 418.6 123 418.45 123.45 418.35 123.45 418.25 123.8 418.25 122.8 418.25 122.3 418.55 121.9 418.95 121.3 419.85 121.35 420.5 121.4 421.45 121.65 421.65 121.35 421.9 120.95 422.75 119.75 423.55 119.85 422.7 120.55 422.2 121.5 422.15 121.6 422.05 121.8 423.3 122.1 423.75 122.2 423.85 122.2 424.8 121.95 425.3 121.8 425.7 121.75 425.8 121.6 425.9 121.4 426.4 120.4 426.95 120.25 426.65 121.05 426.4 121.7 428.05 121.7 429.35 122.6 430.05 123.05 430.95 123.3 430.75 122.4 430.45 121
L 430.8 120.95
Q 430.9 121.3 431.2 122.7 431.3 123.05 431.4 123.4 431.9 123.45 432.45 123.45 432.5 123.45 434.15 123.15 435 122.95 436.25 122.85 435.6 122.15 435.25 121.5 436 121.55 437.05 122.7
L 437.1 122.75
Q 438 122.7 439.1 122.65 439.2 122.55 440 121.65 440.65 121 441.1 120.85
L 440.4 120.2
Q 440.8 120.2 441.6 120.75
L 444.15 120.55
Q 444.45 120.2 444.75 119.95 444.45 119.7 444.1 119.35 443.05 118.4 442.95 118.1 443.25 118 444.35 118.7 444.95 119.05 445.3 119.4 445.45 119.3 445.55 119.2 446.75 118.4 448.6 118.05 448.2 117.8 447.55 117.25 446.55 116.45 446.3 116.1
L 446.4 115.8
Q 447 115.85 449.15 117.6 449.5 117.15 450.15 116.3 450.95 115.25 451.5 115.05
L 451.7 115
Q 451.85 115.1 451.9 115.55 452.8 114.55 453.6 113.5
L 453.7 113.45
Q 453.75 113.5 453.75 113.8 453.75 115 451.85 116.5 451.7 118.15 450.75 119.05 450.7 119.5 450.7 120 450.75 120.7 450.9 121.4 450.95 121.4 451 121.35 451.75 120.95 452.1 121.05 452 121.8 451.1 122.15 451.25 122.55 451.4 122.95 451.65 123.45 451.75 124.25 452.65 124.3 453.4 124.2
L 453.5 124.15 453.55 124.2
Q 453.5 123.7 453.5 123.25 453.5 119.9 454.25 117.6 454.3 117.4 455.75 115.25 457.15 113 457.15 112.2 457.15 111.35 456.6 110.8 455.95 110.1 453.9 109.05
M 417.7 134.1
Q 418.25 133.8 419.1 133.75 419.2 133.75 420.7 133.75
L 420 134.5 418.15 134.45 417.7 134.1 Z"/>

<path fill="#EBACA5" stroke="none" d="
M 447.3 120.1
Q 446.45 121.05 445.7 121.6 444.4 122.6 441.8 122.65
L 440.15 124.3 438.05 124.55
Q 438 124.55 438 124.6 437.9 124.55 437.8 124.55
L 437.15 124.6
Q 434.15 124.9 433.95 125.05 433.65 125.35 432.45 125.35 429.9 125.35 428.7 124.55 426.95 123.35 426.9 123.35 426.4 123.35 425.3 123.65 424.1 123.95 423.2 124 421.8 123.4 420.9 123.05
L 420.7 125.55
Q 420.8 126.45 420.8 127.35 420.85 128.65 420.8 131.1 420.8 132.05 421.85 132.95 422.95 133.85 423 135.05 423.05 137.05 423.4 137.65 423.6 137.45 423.75 137.3 423.7 137.5 423.5 137.8 423.55 137.85 423.65 137.9 424.8 138.2 425 138.5 425.35 139 425.35 140.1 425.4 141.55 425.5 142 425.65 142.55 426.65 143.75 427.1 144.3 427.35 144.7
L 427.4 144.7
Q 427.7 144.85 428.1 144.85 428.35 144.95 428.35 145.55 428.35 145.8 428.3 146.05 429.6 147.8 429.8 148.15 430.85 150.1 429.85 151.45 430.95 152.05 433.3 152.5 433.8 152.05 434.55 151.45 435.3 150.9 435.6 150.3 436 149.6 436.35 149.25 436.4 149.2 437.5 148.65 438.3 148.2 438.55 147.45 438.65 147 438.8 146.6 439.1 145.75 439.6 145.35 441.05 145.35 442.6 145.95 443.35 146.2 443.9 146.5 448.1 146.5 449.05 144.2 449.25 141.65 449.4 141.25 451.35 140.9 451.85 139.7 452 139.3 452 138.25 452 137.65 451.7 136.6 451.25 135.2 451.2 134.95 451.1 134.45 451.35 133.55 451.6 132.5 451.6 132.1 451.6 131.4 450.85 129.65 450.15 128.1 450.35 126.4 450.45 125.75 450.05 123.65 449.6 121.4 449.6 120.75 449.6 120.15 449.65 119.7 448.7 120.1 447.3 120.1
M 447.5 128.4
Q 446.95 127.4 446.2 126.8 443.9 127.2 442.7 128 440.85 129.25 440.65 129.35 440.55 129.3 440.5 129.3 440.45 129.25 440.45 128.95 440.45 128.35 441.8 127.4 443.2 126.4 444.7 126.05 448.95 125.1 448.95 130.3 448.95 131.25 448.85 131.5 448.6 132.05 447.45 132.7 447.05 132.65 447 132.5 447.2 131.85 447.65 131.25 448 130.85 448 130.4 448 129.4 447.5 128.4
M 445.9 134.5
Q 447.5 134 449.1 135.4 450.45 136.6 450.45 137.5 450.45 137.85 450.25 138.05 449.95 137.95 449.3 137.05 448.6 136.15 448.45 135.7 446.3 134.95 445.9 134.5
M 445.75 130.3
Q 445.95 130.35 446.15 130.7 445.5 131.4 445.1 131.35 444.2 131.2 443.8 131.3 443.3 131.2 443.15 131.05 443.5 130.8 443.55 130.45 443.8 130.25 445.75 130.3
M 448.9 140.7
Q 448.7 140.85 448.3 140.95 446.8 139.35 446.3 138.55
L 443.7 138.55
Q 443.4 138.7 441.6 139.05 440 139.35 439.8 139.35 437.35 139.35 436.55 138.55 436.25 137.75 436.25 137.7
L 436.35 136.55 436.65 136.55
Q 436.75 136.65 436.95 137.75 437.1 138.4 438.45 138.4 440.65 138.4 443.6 137.5
L 446.6 137.5
Q 447 137.75 447.85 138.6 448.95 139.65 448.95 140.1
L 448.9 140.7
M 446.7 142.7
Q 446.7 143.4 446.5 143.8 446 142.4 445.6 141.6 444.95 140.1 442.6 139.45
L 442.7 139.3
Q 444.6 139.4 445.75 140.7 446.7 141.75 446.7 142.7
M 422.5 125.5
Q 423.25 125.9 423.95 127 424.35 127.75 425.8 127.75 426.3 127.75 428.25 127.3 430.65 127.3 431.15 127.6 435.45 127.4 435.55 127.45
L 435.7 127.8 434.65 128.65 431.1 128.65
Q 428.75 128.15 426.35 128.35 424.7 128.5 423.95 127.95 423.3 127.5 423.05 126.8 422.8 126 422.45 125.65
L 422.5 125.5
M 438.25 134.65
Q 439.7 134.15 440.05 133.7 440.2 133.5 440.55 132.65 440.95 131.9 441.4 131.85
L 441.5 131.85
Q 441.6 131.9 441.6 132.2 441.6 133.65 440.5 134.7 438.95 136.15 435.6 136.15 430.55 136.15 429.6 134.95
L 427.8 134.95
Q 427.7 135.05 426.95 135.25 426.15 135.5 425.65 135.55 425.5 135.7 425.5 135.2 425.5 134.85 426.15 134.55 426.25 134.55 427.75 134.05
L 429.85 134.05
Q 431.05 134.75 431.25 134.85 432.4 135.15 435.55 135.15 436.75 135.15 438.25 134.65
M 437.25 130.95
Q 437.25 131.65 436.45 132.15 435.55 132.75 433.9 132.75 432.05 132.75 431.2 132.45 430 132 428.35 131.8
L 426.75 131.8
Q 425.5 132.75 425.25 132.75 424.7 132.75 424.55 132.55 424.75 132.4 425.25 131.6 425.95 130.9 427.65 130.9 429 130.9 430.85 131.4 432.65 131.85 433.9 131.85 435.85 131.85 436.2 131.35 436.85 130.45 437 130.4 437.1 130.5 437.2 130.55 437.25 130.65 437.25 130.95
M 432.4 136.65
Q 432.4 137.1 432.2 138.05 432.2 140.8 435.05 141.5 437.85 142.25 437.85 144.5
L 437.75 145.9
Q 437.6 146.05 437.4 146.1 437.15 145.8 436.8 144.4 436.5 143.2 435.5 142.55 432.8 141.75 432.45 141.2 431.55 139.95 431.55 139.45 431.55 137.65 432.4 136.65
M 432.4 141.9
Q 432.4 141.95 432.5 142.05 432.55 142.1 432.55 142.4 432.55 143 431.75 143.55 431.3 143.9 429.45 144.85 429 144.75 428.75 144.6 428.55 144.45 428.55 144.1 429.45 144.1 429.75 144.05 430.5 143.85 431.3 143.2 431.75 142.8 432.4 141.9
M 430.1 138.55
Q 430.1 138.9 429.8 139.25 429.4 139.7 429.25 140.2 426.9 140.9 427.1 142.4
L 427.05 142.55 426.45 142.6 426.35 141.55
Q 426.35 140.65 428.35 139.55 430.15 138.55 429.7 137.05
L 429.9 137.05
Q 430.1 137.95 430.1 138.55
M 431.45 146.85
Q 432.75 146.25 433 146 433.2 145.75 433.7 144.95 434.05 144.4 434.35 144.3 434.6 144.55 434.6 144.9 434.6 145.75 433.6 146.8 432.4 148.1 430.7 148.1 430.2 148.1 429.9 147.8 430.2 147.45 431.45 146.85
M 440 140.9
Q 440.05 140.9 440.1 140.95 442.35 141.6 443.35 142.8 443.9 143.5 444.35 144.95
L 444.2 145.1
Q 443.35 143.8 442.85 143.1 441.9 141.85 439.95 141.4 439.85 141.65 439.85 141.15 439.85 140.85 440 140.9
M 442.1 94.5
Q 441.65 95.35 441.5 96.55 442.7 95.55 443.2 95.4 443.45 95.55 443.7 95.5 443.8 95.55 443.8 96.15 443.8 96.5 443.5 97.05 444.6 96.6 445.1 98.4 445.4 99.55 445.4 101.3 445.4 104.4 442.9 105.85 441.55 106.6 437.45 107.45 433.6 108.3 432 109.45 429.5 111.2 429.5 114.95 429.5 115.6 429.8 116.25 429.85 116.35 430.45 117.45
L 430.25 117.7
Q 433.7 117.65 434.7 117.95 435.35 118.1 435.8 118.3 436 118.3 437.95 117.35 439.8 116.45 442.15 116.55 442.3 115.95 442.7 115.15
L 441.3 115.15
Q 440.15 114.5 439.5 114.25 438.45 113.8 434.55 113.5
L 433.5 113.6
Q 432.75 115 433.3 116.75 433.2 116.95 432.9 117.05 431.95 116.1 431.95 115.05 431.95 113.95 432.05 113.65 432.2 112.8 433 112.2 437.7 111.7 439.55 112.6 441.1 113.4 443.6 113.35 444.4 111.8 444.65 111.15 445.7 108.7 446.15 108.45 447.5 107.6 453.6 107.2 453.9 106.55 454.35 105.75 455.2 104.25 455.2 103.4 455.2 101.75 453.8 98.65 452.05 94.75 449.85 94.75
L 447.6 95.9
Q 447.4 95.85 447.3 95.8 447.3 95.85 447.3 95.9 447.2 96.25 446.75 96.45 444.95 95.15 444.95 94.1 444.95 93.45 444.95 93.35 445.05 93.3 445.1 93.05
L 445.7 93.05
Q 445.75 93.15 445.9 93.4 445.95 92.95 446.3 92.35 444.85 92.3 443.85 92.75 443.1 93.7 442.1 94.5
M 440.45 30.2
Q 439.9 29.75 438.7 29.2 436.9 28.3 435.6 28.3 431.9 28.3 430.45 30.2 429.7 31.2 429.7 32.4 429.7 33.35 430.75 35.1 431.85 37.05 433.35 37.65 433.6 37.45 433.95 37.35 434.15 37.65 434.15 38.2 434.2 38.3 434.25 38.4
L 434.15 38.55
Q 434.05 38.85 433.95 39.25
L 434.1 39.4
Q 434.2 39.15 434.35 39.55 434.35 39.6 434.35 39.65
L 434.4 39.65
Q 434.9 40.15 435.1 40.8 435.05 41.1 434.95 41.25 434.85 41.4 434.55 41.45 435 47.4 435 67
L 434.9 88.3
Q 436 87.9 436.65 87.4
L 437.1 87.4
Q 436.85 86.3 436.85 84.9 437.05 81.45 437 80.05 436.9 78.1 436.95 74.5 437 71.05 437 70.55 436.75 60.15 437 55.1 436.85 49.5 436.85 46.8 436.8 43.35 437.55 41.5
L 436.9 41.35
Q 436.65 41.85 436.65 40.85 436.65 40.15 437.35 39.85 438.2 39.5 438.35 39.25 438.5 38.95 438.55 38.3 438.55 37.6 438.65 37.35 439.15 36.25 440.6 35.25 441.8 34.4 441.8 33.7 441.8 33.3 441.3 31.9 440.8 30.4 440.45 30.2 Z"/>

<path fill="#B28D94" stroke="none" d="
M 421.3 93.8
Q 419.45 95.4 418.8 97.8 418.35 99.3 418.35 101.85 418.35 102.35 418.6 103.5 418.65 103.55 418.7 103.55 418.8 103.7 418.8 104.35 418.8 104.4 418.8 104.45 419 105.3 419.3 106.45 418.85 106.25 418.5 105.85 418.45 105.9 418.45 105.95 418.05 107 418.05 107.5 418.05 108 418.35 109.2 418.75 110.5 419.1 110.85 419.4 110.7 421.7 108.85 423.8 107.15 425.3 106.85 429.5 106 431.15 105.1 432.1 104.55 433.6 103.3 435 102.4 438.85 98.85 440.45 97.4 441.5 96.55 441.65 95.35 442.1 94.5 440 96.05 436.7 97 429.8 98.95 429 99.5 426.4 101.4 424.05 104.1 421.5 107.2 420.25 108.65
L 420.05 108.45
Q 420.3 108.15 423.25 103.4 425.15 100.45 427.6 98.95 429.4 97.85 430.85 97.6 433.5 97.15 437.5 95.7 438.7 95.3 441.25 93.7 443.6 92.2 444.35 92 444.15 92.4 443.85 92.75 444.85 92.3 446.3 92.35 446.35 92.25 446.45 92.1 446.8 91.6 447.25 91.25 445.95 90.65 444.75 90.25 442.1 89.3 438.85 88.8
L 438.85 89.2
Q 438.45 89.5 437.95 89.7 437.8 89.5 437.7 89.25 435.95 90 431.55 90.75 423.3 92.1 421.3 93.8
M 426.8 101.3
Q 429.2 99.85 430.15 99.35 432.15 98.35 433.4 98.35 430.15 100.25 427 101.5
L 426.8 101.3 Z"/>
</g>

<g id="Layer0_0_FILL">
<path fill="#B8BE79" stroke="none" d="
M 25 230.05
Q 25 235.05 30 235.05
L 215 235.05
Q 220 235.05 220 230.05
L 220 203.05
Q 220 198.05 215 198.05
L 30 198.05
Q 25 198.05 25 203.05
L 25 230.05 Z"/>
</g>

<g id="Layer0_1_FILL">
<path fill="#3B3D35" stroke="none" d="
M 169 219.05
Q 168.15 219.4 167.5 220 166.9 220.6 166.6 221.45 166.25 222.3 166.25 223.35 166.25 224.45 166.6 225.3 166.9 226.2 167.5 226.8 168.15 227.4 169 227.7 169.85 228.05 170.85 228.05 171.9 228.05 172.75 227.7 173.6 227.4 174.2 226.8 174.8 226.2 175.15 225.3 175.45 224.45 175.45 223.35 175.45 222.3 175.15 221.45 174.8 220.6 174.2 220 173.6 219.4 172.75 219.05 171.9 218.75 170.85 218.75 169.85 218.75 169 219.05
M 169.45 221.4
Q 169.9 220.75 170.85 220.75 171.8 220.75 172.25 221.4 172.7 222.05 172.7 223.4 172.7 224.7 172.25 225.4 171.8 226.05 170.85 226.05 169.9 226.05 169.45 225.4 169.05 224.7 169.05 223.4 169.05 222.05 169.45 221.4
M 171.1 215.2
Q 170.9 215.35 170.75 215.6
L 169.55 217.75 171.2 217.75
Q 171.5 217.75 171.65 217.65
L 172.05 217.35 174.3 215.1 171.7 215.1
Q 171.3 215.1 171.1 215.2
M 188.8 220
Q 188.2 220.6 187.9 221.45 187.55 222.3 187.55 223.35 187.55 224.45 187.9 225.3 188.2 226.2 188.8 226.8 189.45 227.4 190.3 227.7 191.15 228.05 192.15 228.05 193.2 228.05 194.05 227.7 194.9 227.4 195.5 226.8 196.1 226.2 196.45 225.3 196.75 224.45 196.75 223.35 196.75 222.3 196.45 221.45 196.1 220.6 195.5 220 194.9 219.4 194.05 219.05 193.2 218.75 192.15 218.75 191.15 218.75 190.3 219.05 189.45 219.4 188.8 220
M 190.75 221.4
Q 191.2 220.75 192.15 220.75 193.1 220.75 193.55 221.4 194 222.05 194 223.4 194 224.7 193.55 225.4 193.1 226.05 192.15 226.05 191.2 226.05 190.75 225.4 190.35 224.7 190.35 223.4 190.35 222.05 190.75 221.4
M 182.3 221
L 182.5 219
Q 182.1 218.7 181.5 218.7 180.8 218.7 180.25 219.1 179.7 219.55 179.3 220.25
L 179.15 219.5 179.05 219.2 178.95 219 178.7 218.9 176.75 218.9 176.75 227.9 179.45 227.9 179.45 222.4
Q 179.7 221.85 180.05 221.55 180.4 221.25 181 221.25
L 181.5 221.25 181.7 221.3 181.9 221.3 182.15 221.25
Q 182.25 221.15 182.3 221
M 186.15 218.9
L 183.5 218.9 183.5 227.9 186.15 227.9 186.15 218.9
M 184.2 214.95
Q 183.9 215.05 183.65 215.3 183.45 215.5 183.3 215.8 183.2 216.05 183.2 216.4 183.2 216.75 183.3 217 183.45 217.3 183.65 217.5 183.9 217.7 184.2 217.85 184.45 218 184.8 218 185.15 218 185.45 217.85 185.75 217.7 185.95 217.5 186.2 217.3 186.3 217 186.45 216.75 186.45 216.4 186.45 216.05 186.3 215.8 186.2 215.5 185.95 215.3 185.75 215.05 185.45 214.95 185.15 214.85 184.8 214.85 184.45 214.85 184.2 214.95
M 65.9 218.9
L 63.25 218.9 63.25 227.9 65.9 227.9 65.9 218.9
M 70 221.4
Q 70 221.05 70.25 220.85 70.55 220.65 71.05 220.65
L 71.7 220.7 72.6 221.1 73 221.15 73.25 221.1 73.5 220.85 74.1 219.9 73.5 219.45 72.8 219.05 71.95 218.85 71 218.75
Q 70.1 218.75 69.4 218.95 68.75 219.2 68.3 219.6 67.85 220 67.65 220.5 67.45 221 67.45 221.6 67.45 222.2 67.6 222.65 67.8 223.1 68.1 223.4 68.4 223.7 68.75 223.85
L 70.95 224.7 71.45 225
Q 71.65 225.15 71.65 225.45
L 71.55 225.75 71.4 226 71.05 226.15 70.5 226.2
Q 70.05 226.2 69.75 226.1
L 69.25 225.9 68.85 225.65
Q 68.65 225.55 68.45 225.55 68.2 225.55 68 225.65
L 67.75 225.95 67.15 226.9 67.75 227.35 68.55 227.7 69.45 227.95 70.35 228.05
Q 71.3 228.05 72 227.8 72.7 227.6 73.2 227.2 73.65 226.75 73.9 226.2 74.15 225.65 74.15 224.95 74.15 224.4 74 224.05 73.8 223.65 73.5 223.35 73.2 223.1 72.85 222.9
L 72.05 222.55 70.65 222.1 70.15 221.8
Q 70 221.65 70 221.4
M 61.65 216.45
Q 61.3 216.15 60.9 215.85
L 58.9 215.15 57.8 215.1
Q 56.75 215.1 55.95 215.4 55.1 215.7 54.55 216.25 54 216.8 53.7 217.45 53.45 218.15 53.45 218.85 53.45 219.75 53.7 220.35 53.9 220.95 54.3 221.35 54.7 221.75 55.2 222
L 58.2 223.05
Q 58.6 223.25 58.85 223.5 59.05 223.8 59.05 224.25 59.05 225 58.6 225.35 58.2 225.7 57.4 225.7 56.8 225.7 56.35 225.55
L 55 224.8
Q 54.7 224.65 54.45 224.65 54.25 224.65 54.1 224.75
L 53.8 225 52.95 226.35
Q 53.3 226.75 53.8 227.05 54.3 227.35 54.9 227.6 55.5 227.8 56.1 227.9 56.7 228.05 57.3 228.05 58.35 228.05 59.2 227.7 60.05 227.4 60.65 226.8 61.25 226.25 61.55 225.5 61.85 224.7 61.85 223.85 61.85 223.05 61.6 222.5 61.35 221.95 60.95 221.55 60.55 221.15 60.05 220.9
L 57.05 219.8
Q 56.65 219.6 56.4 219.35 56.2 219.1 56.2 218.7 56.2 218.1 56.6 217.75 57 217.4 57.8 217.4 58.3 217.4 58.65 217.55
L 59.35 217.8 59.85 218.1
Q 60.1 218.2 60.3 218.2 60.5 218.2 60.65 218.1
L 60.95 217.8 61.65 216.45
M 66.2 216.4
Q 66.2 216.05 66.05 215.8 65.95 215.5 65.7 215.3 65.5 215.05 65.2 214.95 64.9 214.85 64.55 214.85 64.2 214.85 63.95 214.95 63.65 215.05 63.4 215.3 63.2 215.5 63.05 215.8 62.95 216.05 62.95 216.4 62.95 216.75 63.05 217 63.2 217.3 63.4 217.5 63.65 217.7 63.95 217.85 64.2 218 64.55 218 64.9 218 65.2 217.85 65.5 217.7 65.7 217.5 65.95 217.3 66.05 217 66.2 216.75 66.2 216.4
M 82.85 220.05
Q 82.25 220.65 81.95 221.5 81.65 222.3 81.65 223.2 81.65 224.4 82 225.3 82.35 226.2 83 226.8 83.6 227.4 84.45 227.75 85.25 228.05 86.2 228.05
L 87.2 228 88.2 227.75
Q 88.7 227.55 89.2 227.25 89.65 226.95 90.1 226.5
L 89.3 225.5
Q 89.15 225.3 88.8 225.3 88.55 225.3 88.35 225.4
L 87.25 225.9
Q 86.95 226 86.45 226 85.6 226 85 225.5 84.45 225 84.35 223.85
L 89.85 223.85 90 223.65 90.1 223.35 90.15 222.85
Q 90.15 221.9 89.85 221.15 89.55 220.35 89 219.85 88.45 219.3 87.75 219 87 218.75 86.1 218.75 85.05 218.75 84.25 219.1 83.4 219.45 82.85 220.05
M 84.35 222.3
Q 84.5 221.5 84.95 221.05 85.4 220.6 86.15 220.6 86.6 220.6 86.9 220.75 87.2 220.9 87.4 221.15 87.55 221.4 87.65 221.7
L 87.7 222.3 84.35 222.3
M 81.05 220.75
L 81.05 218.9 78.8 218.9 78.8 216.25 77.4 216.25
Q 76.9 216.25 76.8 216.7
L 76.25 218.9 74.85 219.15 74.85 220.2
Q 74.85 220.5 74.95 220.6 75.1 220.75 75.35 220.75
L 76.1 220.75 76.1 225.4
Q 76.1 226 76.25 226.5 76.45 226.95 76.8 227.3 77.1 227.65 77.6 227.85 78.1 228.05 78.75 228.05 79.45 228.05 80.1 227.85 80.75 227.65 81.25 227.25
L 80.45 226 80.3 225.8 80.1 225.75 79.65 225.9 79.4 225.95
Q 79.1 225.95 78.95 225.75 78.8 225.55 78.8 225.2
L 78.8 220.75 81.05 220.75
M 107.3 221.45
Q 107.6 221.45 107.8 221.35
L 108.85 220.85
Q 109.15 220.75 109.6 220.75 110.2 220.75 110.55 221.1 110.85 221.45 110.85 222.25
L 110.85 222.65
Q 109.3 222.7 108.3 222.95 107.3 223.25 106.7 223.65 106.1 224.05 105.85 224.55 105.6 225.05 105.6 225.55 105.6 226.15 105.8 226.65 106 227.1 106.35 227.4 106.7 227.7 107.2 227.85 107.7 228.05 108.3 228.05
L 109.15 227.95 109.85 227.75 111.15 226.85 111.35 227.35
Q 111.5 227.7 111.7 227.8 111.9 227.9 112.25 227.9
L 113.5 227.9 113.5 222.25
Q 113.5 221.5 113.25 220.85 113 220.2 112.55 219.7 112.1 219.25 111.45 218.95 110.8 218.7 109.95 218.7 108.85 218.7 107.8 219.05 106.85 219.4 106 220.15
L 106.5 221 106.8 221.3
Q 107 221.45 107.3 221.45
M 110.85 224.25
L 110.85 225.5
Q 110.45 225.9 110.05 226.05 109.7 226.25 109.15 226.25 108.65 226.25 108.45 226.05 108.15 225.9 108.15 225.4 108.15 225.2 108.3 225 108.4 224.8 108.7 224.65 109 224.5 109.55 224.35
L 110.85 224.25
M 104.55 222.15
Q 104.55 221.35 104.3 220.7 104.1 220.1 103.7 219.65 103.3 219.2 102.7 218.95 102.1 218.75 101.35 218.75
L 100.5 218.85
Q 100.05 218.9 99.7 219.1 99.3 219.3 99 219.55 98.65 219.85 98.45 220.3 98.15 219.6 97.6 219.15 97.1 218.75 96.25 218.75
L 95.55 218.8 94.95 219.05 94.4 219.4 93.95 219.8 93.8 219.35
Q 93.65 218.9 93.15 218.9
L 91.45 218.9 91.45 227.9 94.15 227.9 94.15 221.4
Q 94.45 221.1 94.75 220.95 95.1 220.75 95.45 220.75 96.05 220.75 96.35 221.1 96.65 221.4 96.65 222.15
L 96.65 227.9 99.35 227.9 99.35 222.15
Q 99.35 221.5 99.7 221.15 100.1 220.75 100.65 220.75 101.85 220.75 101.85 222.15
L 101.85 227.9 104.55 227.9 104.55 222.15
M 131.85 218.9
L 129.2 218.9 129.2 227.9 131.85 227.9 131.85 218.9
M 123.8 218.9
Q 123.35 218.7 122.65 218.7 121.75 218.7 121.05 219.05 120.35 219.4 119.85 220.05 119.35 220.7 119.05 221.55 118.75 222.4 118.75 223.4 118.75 224.5 119 225.4 119.25 226.25 119.7 226.8 120.15 227.4 120.75 227.75 121.35 228.05 122.05 228.05
L 122.9 227.95 123.65 227.7 124.25 227.3 124.85 226.75 125.05 227.45
Q 125.2 227.9 125.7 227.9
L 127.4 227.9 127.4 214.9 124.7 214.9 124.7 219.45
Q 124.3 219.1 123.8 218.9
M 124.05 220.8
Q 124.4 220.95 124.7 221.3
L 124.7 225.1 124.35 225.5 123.95 225.75 123.5 225.9 123 225.95
Q 122.65 225.95 122.4 225.85 122.15 225.7 121.95 225.4 121.75 225.1 121.65 224.6 121.55 224.15 121.55 223.4 121.55 222.7 121.7 222.15 121.8 221.65 122.05 221.3 122.3 221 122.6 220.85 122.9 220.7 123.3 220.7 123.65 220.7 124.05 220.8
M 129.9 214.95
Q 129.6 215.05 129.35 215.3 129.15 215.5 129 215.8 128.9 216.05 128.9 216.4 128.9 216.75 129 217 129.15 217.3 129.35 217.5 129.6 217.7 129.9 217.85 130.15 218 130.5 218 130.85 218 131.15 217.85 131.45 217.7 131.65 217.5 131.9 217.3 132 217 132.15 216.75 132.15 216.4 132.15 216.05 132 215.8 131.9 215.5 131.65 215.3 131.45 215.05 131.15 214.95 130.85 214.85 130.5 214.85 130.15 214.85 129.9 214.95
M 161.35 216.7
L 160.8 218.9 159.4 219.15 159.4 220.2
Q 159.4 220.5 159.5 220.6 159.65 220.75 159.9 220.75
L 160.65 220.75 160.65 225.4
Q 160.65 226 160.8 226.5 161 226.95 161.35 227.3 161.65 227.65 162.15 227.85 162.65 228.05 163.3 228.05 164 228.05 164.65 227.85 165.3 227.65 165.8 227.25
L 165 226 164.85 225.8 164.65 225.75 164.2 225.9 163.95 225.95
Q 163.65 225.95 163.5 225.75 163.35 225.55 163.35 225.2
L 163.35 220.75 165.6 220.75 165.6 218.9 163.35 218.9 163.35 216.25 161.95 216.25
Q 161.45 216.25 161.35 216.7
M 156.5 218.85
L 155.55 218.75
Q 154.65 218.75 153.95 218.95 153.3 219.2 152.85 219.6 152.4 220 152.2 220.5 152 221 152 221.6 152 222.2 152.15 222.65 152.35 223.1 152.65 223.4 152.95 223.7 153.3 223.85
L 155.5 224.7 156 225
Q 156.2 225.15 156.2 225.45
L 156.1 225.75 155.95 226 155.6 226.15 155.05 226.2
Q 154.6 226.2 154.3 226.1
L 153.8 225.9 153.4 225.65
Q 153.2 225.55 153 225.55 152.75 225.55 152.55 225.65
L 152.3 225.95 151.7 226.9 152.3 227.35 153.1 227.7 154 227.95 154.9 228.05
Q 155.85 228.05 156.55 227.8 157.25 227.6 157.75 227.2 158.2 226.75 158.45 226.2 158.7 225.65 158.7 224.95 158.7 224.4 158.55 224.05 158.35 223.65 158.05 223.35 157.75 223.1 157.4 222.9
L 156.6 222.55 155.2 222.1 154.7 221.8
Q 154.55 221.65 154.55 221.4 154.55 221.05 154.8 220.85 155.1 220.65 155.6 220.65
L 156.25 220.7 157.15 221.1 157.55 221.15 157.8 221.1 158.05 220.85 158.65 219.9 158.05 219.45 157.35 219.05 156.5 218.85
M 141.75 220.5
Q 141.9 220.35 141.9 220.15
L 141.9 219.15 139.2 219.15
Q 138.3 218.75 137.15 218.75 136.35 218.75 135.7 218.95 135 219.15 134.5 219.5 134 219.9 133.7 220.45 133.45 221 133.45 221.65 133.45 222.45 133.85 223.1 134.25 223.7 134.95 224.05
L 134.4 224.4 134.05 224.8 133.8 225.25 133.75 225.65
Q 133.75 226.15 133.95 226.5 134.15 226.8 134.45 227 133.85 227.25 133.5 227.65 133.15 228.05 133.15 228.65 133.15 229.1 133.4 229.5 133.6 229.95 134.15 230.3 134.65 230.6 135.4 230.8 136.15 231 137.25 231 138.3 231 139.15 230.75 140 230.45 140.55 230 141.15 229.55 141.45 228.95 141.75 228.4 141.75 227.8 141.75 227.15 141.5 226.7 141.25 226.3 140.85 226.05 140.45 225.8 139.95 225.65
L 136.95 225.4 136.3 225.25
Q 136.05 225.15 136.05 224.95 136.05 224.7 136.35 224.5
L 137.15 224.6
Q 137.9 224.6 138.6 224.35 139.25 224.15 139.75 223.8 140.25 223.4 140.5 222.85 140.8 222.35 140.8 221.65
L 140.7 220.85 141.35 220.7
Q 141.65 220.65 141.75 220.5
M 135.9 221.7
Q 135.9 221.15 136.2 220.85 136.5 220.55 137.15 220.55 137.8 220.55 138.1 220.85 138.4 221.15 138.4 221.7 138.4 222.25 138.1 222.6 137.8 222.9 137.15 222.9 136.8 222.9 136.6 222.8 136.35 222.75 136.2 222.55
L 135.95 222.2 135.9 221.7
M 138.2 227.55
Q 138.65 227.6 138.95 227.75 139.25 227.9 139.25 228.25
L 139.15 228.6
Q 139.05 228.75 138.85 228.9
L 138.25 229.1 136.4 229.1 135.85 228.9
Q 135.65 228.8 135.55 228.65
L 135.45 228.3
Q 135.45 228 135.6 227.8
L 136.05 227.4 138.2 227.55
M 145.15 219.1
Q 144.3 219.45 143.75 220.05 143.15 220.65 142.85 221.5 142.55 222.3 142.55 223.2 142.55 224.4 142.9 225.3 143.25 226.2 143.9 226.8 144.5 227.4 145.35 227.75 146.15 228.05 147.1 228.05
L 148.1 228 149.1 227.75
Q 149.6 227.55 150.1 227.25 150.55 226.95 151 226.5
L 150.2 225.5
Q 150.05 225.3 149.7 225.3 149.45 225.3 149.25 225.4
L 148.15 225.9
Q 147.85 226 147.35 226 146.5 226 145.9 225.5 145.35 225 145.25 223.85
L 150.75 223.85 150.9 223.65 151 223.35 151.05 222.85
Q 151.05 221.9 150.75 221.15 150.45 220.35 149.9 219.85 149.35 219.3 148.65 219 147.9 218.75 147 218.75 145.95 218.75 145.15 219.1
M 145.25 222.3
Q 145.4 221.5 145.85 221.05 146.3 220.6 147.05 220.6 147.5 220.6 147.8 220.75 148.1 220.9 148.3 221.15 148.45 221.4 148.55 221.7
L 148.6 222.3 145.25 222.3 Z"/>
</g>
</defs>

<g transform="matrix( 1, 0, 0, 1, -37,-30.05) ">
<use xlink:href="#Layer4_0_FILL"/>
</g>

<g transform="matrix( 1, 0, 0, 1, 0,0) ">
<use xlink:href="#Layer4_1_FILL"/>
</g>

<g transform="matrix( 1.24041748046875, 0, 0, 1.24041748046875, -416.35,8.7) ">
<use xlink:href="#Layer1_0_FILL"/>
</g>

<g transform="matrix( 1, 0, 0, 1, 0,6) ">
<use xlink:href="#Layer0_0_FILL"/>
</g>

<g transform="matrix( 1, 0, 0, 1, 0,0) ">
<use xlink:href="#Layer0_1_FILL"/>
</g>
</svg>
