
<svg xmlns="http://www.w3.org/2000/svg" version="1.1" xmlns:xlink="http://www.w3.org/1999/xlink" preserveAspectRatio="none" x="0px" y="0px" width="350px" height="350px" viewBox="0 0 350 350">
<defs>
<g id="Layer0_0_FILL">
<path fill="#43463D" stroke="none" d="
M 271.3 346.8
L 271.6 346.8
Q 275.8736328125 342.8056640625 282.8 335.1 295.2 321.3 300.75 314.3 310.25 302.35 315.85 291.55 309.5 301.2 301.35 311.3
L 271.3 346.8
M 287.6 334.5
L 302.05 318.15
Q 302.7 317.4 302.5 316.9 293.4 325.3 278.35 342.4
L 274.55 346.8 276.35 346.8
Q 280.4978515625 342.40625 287.6 334.5
M 11.05 316.85
Q 10.65 314.55 10.25 313.7
L 9.95 313.85
Q 11.05 320.05 12.55 325.75 13.15 325.55 12.8 324.55 11.65 320.45 11.05 316.85
M 14.95 320.05
Q 15.15 321.05 15.35 321.6
L 15.75 321.5 13.85 312.7 13.45 312.8
Q 13.45 313.9 13.95 315.9
L 14.95 320.05
M 112.35 291.55
Q 111.3 292.45 110.35 294.4 105.5 304.2 102.5 315.15 103 314.3 103.8 312.4
L 112.35 291.55
M 99.8 253.2
Q 99.45 252.45 98.3 253.15 96.48125 254.3158203125 95.3 255.2 95.230859375 255.2859375 95.15 255.35 94.888671875 255.55234375 94.6 255.8 93.1197265625 256.9966796875 90.75 259.2 89.75 260.05 89.15 260.95 89 261.25 88.35 263
L 82.4 283.75
Q 81.55 286.85 81.45 287.65 81.25 288.65 81.05 290.85
L 80.9 292.75
Q 81.5 292.25 82 290.7
L 89.4 265.9
Q 90.2 263.25 90.95 261.95 91.9375 260.1546875 94.1 258.25 94.383984375 258.019921875 94.65 257.8 96.65 256.05 99.15 254.3 99.490625 254.0794921875 99.65 253.85 99.919921875 253.5294921875 99.8 253.2
M 81.85 226.05
Q 81.65 225.8 81.15 226
L 70.3 229.9 69.75 230.1
Q 66.05 231.45 65.25 233.25 64.95 233.9 64.75 235.75 64.6 236.8 64.1 238.55 62.85 243.2 59.55 252.3
L 55.4 265.7
Q 54.9599609375 267.10390625 54.65 268.25 54.22421875 269.8251953125 54.05 270.9 53.5 273.85 53.9 276.2 54.5 275.15 55.2 272.85
L 63.65 246.35
Q 64.583984375 243.2990234375 65.2 240.95 66.1490234375 237.71328125 66.5 235.9 66.8 234.35 67.25 233.75 67.7419921875 233.061328125 69.05 232.4
L 69.1 232.4
Q 73.35 230.25 77.7 229 79.3 228.55 80.05 228.2 81.25 227.55 81.8 226.6 81.9 226.15 81.85 226.05
M 177.4 291.1
Q 177.2 291.05 177 291.3
L 176.95 291.75 177.45 297.05
Q 177.55 298.2 177.5 298.75 177.4 299.55 177.8 299.75 178.1 299.65 178.1 298.9
L 177.4 291.1
M 220.85 147.65
Q 220.4966796875 147.3236328125 220.05 147.05 219.70390625 146.8076171875 219.3 146.6 219.621484375 146.4099609375 220 146 220.747265625 145.23046875 221.5 144.45 227.653515625 138.4251953125 235.25 133.05 234.05 133.15 232.25 134.4 224.9357421875 139.4712890625 218.35 146.3 217.7763671875 146.14453125 217.05 146.1 215.2654296875 146.053125 212.7 146.75
L 140.25 165.15
Q 132.663671875 167.0837890625 129.2 168.15 129.08046875 168.07578125 128.9 168.05 128.6248046875 168.05 128.5 168.4 127.5982421875 168.808984375 127.15 169.3 126.71484375 169.530859375 126.2 169.85
L 102 184.45
Q 102.131640625 184.2564453125 102.2 184 102.4931640625 184.0517578125 102.75 183.85 103.1 183.6 103 182.7 101.25 172.25 94.85 163.35 88.45 154.45 79.1 149.4 75.85 147.65 71.2 145.85 65.75 143.9 63.05 142.9 36.95 133.35 23.7 117.95 13.65 106.3 7 85.95 5.348828125 80.809375 4.7 76.85 4.35 74.491015625 4.35 72.55 4.4 67.1 8.5 55.7 12.35 44.9 11.9 38.8 11.7 36.35 10.85 32.95 9.8 29.1 9.3 27.15 7.65 20.2 8 12.9 8.240234375 7.055859375 9.7 1.5
L 8.25 1.5
Q 7.4474609375 2.9810546875 6.95 4.9 6.25 7.65 6.1 12.4 5.8 21.15 6.6 25.45 6.9 27.15 8.05 31.55 9.05 35.35 9.3 37.65 9.8 41.85 8.8 46.75 8 50.45 6.15 55.55 3.95 61.55 3.65 62.45
L 3.65 81.7
Q 3.81640625 82.3794921875 4 83.05 4.6033203125 85.2458984375 5.25 87.35 11.3310546875 107.0693359375 21.45 118.95 33.95 133.7 59 143.85 63.35 145.6 72.1 149.1 79.45 152.35 84.25 156 91.05703125 161.209375 95.1 168.35 93.718359375 168.7275390625 92.55 169.65 91.2 170.7 89.6 173.4 87.75 176.55 86.9 179.3
L 85.2 186.1 83.7 194.8
Q 83.6 195.5 83.65 195.85 83.7265625 196.098828125 83.85 196.25
L 66 207.9
Q 65.35 208.3 65.05 208.8 64.7720703125 209.2515625 64.85 209.6 62.87421875 210.5197265625 60.8 211.8 58.25 213.35 53.8 216.7 50.85 218.9 49.3 220.25 46.95 222.3 45.5 224.4 43.8 226.9 42.65 230.65 42 232.75 41 237.4 35.2 265.6 27.75 288.3
L 23.6 300.8
Q 22.287890625 304.8859375 21.1 309 17.282421875 307.6521484375 13.05 307.1 10.5 306.8 9.3 307.15 8.2 307.4 5.65 309.05
L 3.65 310.45 3.65 313.1
Q 4.065234375 312.894140625 4.5 312.6 6.45 311.1 7.45 310.55 9.6 309.4 12.7 309.65 14.65 309.85 18.2 310.85 19.496875 311.2283203125 20.45 311.25 16.4734375 325.362109375 13.85 339.9 13.25 343.4 13.2 345.45 13.2 346.148046875 13.25 346.8
L 15.05 346.8
Q 19.1365234375 324.7466796875 22.4 312.75 23.19296875 309.7947265625 25.4 302.65 27.8462890625 294.9708984375 31.95 282.4 38 263.8 40.25 251.8 40.3546875 251.23515625 40.45 250.7 42.824609375 237.963671875 43.4 235.95 45.75 227.15 50.3 221.95 53.15 218.7 59.85 214.15
L 68.55 208.2
Q 68.291796875 208.2767578125 68 208.35 70.87890625 206.829296875 74.1 204.8 75.75 203.75 82.85 199.05 91.85 193.1 105.6 184.75 113.25 180.15 128.55 170.85 128.8236328125 170.6646484375 129.05 170.45 129.6279296875 171.8552734375 130.5 173.7
L 130.95 174.75 134.5 182.4
Q 135.5 184.5 136.65 184.9
L 131.7 174.25
Q 130.6 172 130.35 170.95 130.1318359375 170.19609375 129.9 169.65
L 131.05 169.35
Q 131.05 169.4791015625 131.05 169.6 131.05 170.5 131.5 171.65 131.855859375 172.6205078125 132.7 174.3 133.1822265625 175.2205078125 133.8 176.35
L 135.5 179.45
Q 136.8 181.8 138.05 183.75 138.1 182.8 137.45 181.5 136.6 180.15 136.25 179.4 135.6 177.4 135.1 176.45 134.012109375 174.9703125 133.4 174.1 133.327734375 174.01015625 133.25 173.9 132.26015625 172.297265625 131.65 169.2
L 173.4 158.9
Q 173.565625 159.7759765625 174.15 160.9
L 175.55 163.8 175.8 164.1 176.05 164.4
Q 176.4 164.75 176.5 165.05
L 176.95 165.05
Q 176.6646484375 164.6060546875 176.35 163.95 176.151171875 163.557421875 175.95 163.1 175.35 161.55 175.1 161.1 174.55 160.15 174.35 159.65 174.10625 159.189453125 173.95 158.8
L 194.4 153.75
Q 194.5017578125 155.095703125 195 156.95 195.1416015625 157.4453125 195.3 157.9 195.976953125 159.9623046875 196.8 160.95 198.15 162.5 200.9 163.3 204.15 164.25 207.6 163.9 208.29609375 163.829296875 208.95 163.7 211.6654296875 163.2373046875 214.1 162 213.8513671875 161.7513671875 213.2 161.7 213.05390625 161.7 212.9 161.7 211.65 161.7 208.7 162.05 206 162.4 204.5 162.35 202.2 162.25 200.35 161.45 198.25 160.5 197.3 158.75 197.0271484375 158.231640625 196.75 157.35 196.5271484375 156.654296875 196.3 155.7
L 195.75 153.4 213.45 149.05
Q 214.1322265625 148.8880859375 214.7 148.8 215.1900390625 148.7134765625 215.6 148.65 216.536328125 148.5939453125 217.2 148.7 217.569140625 148.753125 217.85 148.85 220 149.6 220.9 152.55 220.927734375 152.6357421875 220.95 152.7 221.5984375 154.8267578125 221.35 156.9 221.3361328125 157.30390625 221.25 157.7 221.122265625 158.5068359375 220.85 159.3 220.325390625 160.85 219.3 162.25 217.2740234375 163.822265625 214.95 165.5 211.9380859375 167.74296875 208.4 170.2 187.85078125 181.1966796875 167.5 187.9 158.85 190.65 154.5 192.05 146.9 194.55 141.75 196.9 128.51484375 203.012109375 121.95 212.15 121.1255859375 213.07734375 120.35 214.05
L 101.35 216.4
Q 101.3212890625 216.3736328125 101.3 216.35
L 100.35 215.35 97.95 212.8
Q 97.75 212.95 97.35 213.2 97.3 213.3 97.45 213.7 98.2 214.8 98.6 215.1 98.8822265625 215.33515625 99.5 215.75 99.5583984375 215.7732421875 99.6 215.8 99.75 215.95 100.1 216.55
L 92.3 217.5
Q 91 217.7 90.95 218.4 90.9056640625 219.153515625 92.05 219.3 92.1853515625 219.338671875 92.35 219.35 94.65 219.55 99.05 219.05 119.2 216.9 138.2 214.55 144.9 213.75 148 213.5 153.45 213.15 157.75 213.6 160.33203125 213.8951171875 161.85 214.65 162.95 220.0205078125 162.95 225.45 163 226.6 162.95 228.85 163 230.85 163.25 232.25 163.35 232.75 163.65 232.75 164.093359375 230.260546875 164.1 227.25
L 164.6 233.05 165 238
Q 165.45625 235.67734375 165.5 232.85 165.50859375 232.255078125 165.5 231.65 165.45 229.35 165 225.3
L 164.35 218.75
Q 164.35 218.25 164.05 218.2 163.8 218.1 163.65 218.4 163.5 218.65 163.55 219 163.5541015625 219.09375 163.55 219.2 163.383203125 217.726171875 163.15 216 163.11875 215.7494140625 163.05 215.5 164.312109375 216.7173828125 165.5 219.55 168.1 225.7 169 229.85 169.2171875 230.9091796875 169.35 231.9 169.9646484375 236.5509765625 168.9 240.4 168 243.5 167.9 244.25 167.8140625 244.8796875 167.85 245.4 167.412109375 245.265234375 166.75 245.15 160.35 244 153.85 244.85
L 148.05 245.75
Q 144.15 246.4 137.4 247 129.7 247.7 126.75 248.1 124 248.45 122.95 248.3 121.35 248.1 118 246.55 115.4 245.4 112.85 244.6
L 112.8 244.55
Q 112.33125 244.45703125 111.95 244.6 111.45 244.75 111.5 245.15
L 118.35 248.55
Q 120.6 249.6 121.65 249.85 122.332421875 249.9921875 123.55 250 124.3078125 249.9892578125 125.25 249.9 125.4908203125 249.91796875 125.75 249.9 140.8 248.75 149.3 247.55 155.15 246.75 156.1 246.7 159.95 246.3 162.85 246.6 163.41875 246.64375 165.3 246.85
L 165.55 247.4 165.65 248.2
Q 165.65 248.35 166.2 249.55 166.55 250.25 166.7 251.4 167.65 256.1 167.95 258.1
L 168.5 262.75
Q 168.6 264.7 168.7 265.1
L 169.05 266.5
Q 169.1 267 169.05 268.3 169.05 269.45 169.2 270.1
L 169.75 271.75 169.85 272.9 169.9 273.25
Q 170.2 274.15 170.8 274.3 170.438671875 273.5775390625 170.4 272.8 170.4083984375 272.54140625 170.45 272.25 170.6 271.25 170.55 271.05
L 170.25 269.95
Q 170.15 269.55 170.15 268.1 170.1 266.7 169.85 265.25
L 169.45 262.2
Q 168.85 257.25 168.4 254.95 167.95 252.05 167.35 250.25
L 166.25 247
Q 166.528515625 247.0404296875 166.8 247.05
L 166.8 247.1
Q 167 247.65 168 248.35
L 173.3 252.25
Q 176.6 254.65 177.45 256.55 178.15 258.1 178.15 261.15 178.1033203125 264.4705078125 177.65 268.2 177.6322265625 268.48828125 177.6 268.75 177.4314453125 270.436328125 177.15 271.75 177.0126953125 272.3966796875 176.85 272.95 176.7 273.55 175.85 275.85 174.85 278.25 173.65 280.55 172.85 282.05 172.95 282.9 172.9556640625 282.9728515625 172.95 283.05 172.893359375 283.1328125 172.8 283.25
L 172.8 283.3
Q 172.7345703125 283.4310546875 172.7 283.55 172.611328125 283.537109375 172.5 283.5 171.4 283.15 169.2 282.8 163.1 281.9 160 281.7 156.05 281.4 150.1 281.4
L 139.7 281.3
Q 136.097265625 281.22578125 133.7 281.55 133.426171875 281.4130859375 133.1 281.25
L 130 279.65 128.3 278.75
Q 127.8 278.65 127.7 278.65 127.5 278.7 127.4 278.95 127.3 279.2 127.4 279.45 127.5 279.75 128.15 280.15
L 132.55 282.65 133.95 283.1
Q 134.56875 283.17734375 134.9 282.75 135.0560546875 282.75 135.2 282.75
L 152.4 283.1
Q 162.6716796875 283.483984375 172.75 285.2 174.10859375 288.76484375 174.5 294.05 174.75 297.15 175 303.35 175.4 303.15 175.5 302.25 176.05 297.5 175.5 292.75 175.0388671875 288.3697265625 173.6 285.35 173.7275390625 285.36953125 173.85 285.35
L 178.05 289.4
Q 180.85 292.1 181.35 294.15 181.7 296 180.65 298.95 180.3083984375 299.887109375 179.9 300.8 177.78515625 305.8109375 174 310.9 170.55 315.65 164.9 321.35 161.3849609375 324.8650390625 158.95 326.6 158.615234375 326.8439453125 158.3 327.05 155.05 329.25 150.45 330.6 147.1 331.6 141.95 332.4 140.05 332.6 139.3 332.4 138.95 332.3 138.2 331.95 138.162109375 331.9326171875 138.1 331.9 138.973046875 330.2814453125 139.75 329 142.25 325.25 143.45 323.35 144.2357421875 322.1154296875 144.85 320.95
L 145.2 321.55
Q 145.25 321.8 145.25 322.25 145.3 322.5 145.6 322.9
L 145.75 323.65
Q 145.75 323.8 146.15 324.7
L 147.1 326.5 147.35 326.5
Q 147.65 326.25 147.3 325.9
L 147 325.3 147 324.6
Q 147 324.5 146.9 323.9
L 145.85 320.8
Q 145.6 319.85 145.55 319.6
L 145.55 319.55
Q 145.873828125 318.8630859375 146.1 318.2 146.1908203125 318.4201171875 146.5 319
L 147.45 320.7 148.2 321.75
Q 148.5 322.2 149.1 323.05 149.65 323.75 150.25 323.95
L 150.55 323.7
Q 149.95 322.05 149.55 321.3
L 148.7 320.15 148.25 319.2
Q 147.65 318.45 147.4 318
L 147.05 317.35
Q 147.0181640625 317.3091796875 146.95 317.25 148.948828125 316.893359375 151.55 316.85 153.3 316.8 156.75 316.85 158.80625 316.85 160.55 316.65 164.3830078125 316.2064453125 166.75 314.8 166.15 314.1 164.95 314.1 164.4 314.1 162.8 314.4 162.5546875 314.4419921875 162.3 314.45 160.6576171875 314.6859375 158.25 314.6
L 149.35 314.5
Q 146.7 314.5 145.65 315.25 144.75 315.85 144.15 317.2 143.8 317.95 143.15 319.55 142.75 320.45 141.65 322.15
L 138.35 327.2 136.2 330.45
Q 134.7 332.75 134.15 334
L 132.8 337.75
Q 131.4 341.6 129 345.6 128.6326171875 346.2501953125 128.4 346.8
L 150.3 346.8
Q 150.4296875 346.6123046875 150.55 346.4
L 158.4 333.35
Q 159.4869140625 331.268359375 160.4 329.65 160.788671875 328.943359375 161.15 328.3 163.40703125 326.54296875 165.95 324 172 318.15 175.9 312.9 176.7720703125 311.728125 177.55 310.55 181.126953125 305.278125 183.05 300 184.65 295.8 183.8 293 183.35 291.65 182.25 290.3 181.6 289.5 180.1 288.05
L 175.5 283.7
Q 175.40234375 283.60234375 175.3 283.5 175.40546875 283.35078125 175.5 283.15 178.9892578125 276.2205078125 179.85 271.3 179.885546875 271.234765625 179.9 271.15 180.35 268.8 180.55 264.05 180.692578125 261.76953125 180.65 259.95 180.588671875 258.01484375 180.3 256.65 179.95 255.15 179.35 254.3 179.1 253.9 178.05 253
L 176.7 251.85
Q 174.5 249.95 173.3 249.05 172.1044921875 248.19609375 169.25 246.55 172.297265625 240.67421875 171.75 233.15 171.718359375 232.6732421875 171.65 232.2 171.635546875 231.7955078125 171.55 231.4 171.3888671875 229.808203125 171 228.15 170.0341796875 223.5865234375 167.75 218.6 165.85 214.55 163.65 212.9 160.8 210.8 154.95 210.8 152.953125 210.7853515625 150.35 210.9
L 186 186.9
Q 193.73671875 181.6611328125 200.05 177.25 205.2423828125 174.736328125 210 172.05 211.6720703125 171.1162109375 213.3 170.15 218.9 166.85 221.15 163.85 223.1 161.25 223.65 157.9 223.76328125 157.1412109375 223.8 156.4 223.861328125 155.0638671875 223.65 153.75 223.487109375 152.5927734375 223.1 151.45 222.9654296875 151.04140625 222.8 150.65 222.0751953125 148.828125 220.9 147.7 222.092578125 147.534765625 223.35 146.65 223.65 146.45 225.65 144.85 226.95 143.85 229.75 142.15 230.943359375 141.386328125 232 140.6 233.2046875 139.786328125 234.25 138.95 233.698046875 139.115625 233.05 139.45 232.56015625 139.719140625 232 140.1 230.6 141.1 229.9 141.55 229.4 141.85 227.55 142.75 226.1 143.5 225.3 144.1 224.75 144.5 223.1 146.05 221.8369140625 147.17265625 220.85 147.65
M 92.7 172.6
Q 92.7248046875 172.6931640625 92.75 172.8 92.7103515625 172.7115234375 92.65 172.6
L 92.7 172.6
M 91.45 174.35
Q 92.798046875 176.9634765625 96.05 180.9
L 99.35 184.9
Q 99.765625 185.40234375 100.15 185.65
L 85.95 194.9
Q 86.34140625 193.7880859375 86.55 192.05
L 87.5 186.35 89.3 180
Q 90.5416015625 176.0912109375 91.45 174.35
M 261.8 214.7
Q 261.3 214.65 261.1 215.2 260.9 215.65 260.95 216.3 261.45 221.9 262.05 226.35 262.8 232.05 264.7 243.35 266.25 252.95 267.9 257.95 268.464453125 259.70625 269.45 262.15 270.797265625 265.537109375 272.95 270.25 273.3 269.85 272.9 269 270.716796875 263.721484375 269.05 258.3 267.76171875 253.9779296875 266.8 249.55 265.9 245.4 264.3 235
L 261.9 218.45
Q 261.8 217.1 261.85 216.75 262 216 262.05 215.65 262.1 215 261.8 214.7
M 264.6 131.75
Q 263.415234375 137.1265625 262.45 143 260.8396484375 153.280078125 259.95 165.1 259.57734375 170.2357421875 259.25 176.9 258.863671875 186.36328125 258.6 198.9 258.15 219.45 259.05 230.8 259.7580078125 240.3865234375 261.5 248.7 262.964453125 255.698828125 265.15 261.8 264.2310546875 258.229296875 263.45 254.45 259.8212890625 236.787890625 259.45 215.05 259.15 198.8 261.15 167.6 261.2919921875 165.328515625 261.4 163.25 261.476953125 162.53515625 261.5 161.8 262.04140625 154.05625 262.45 149.6 263.3 139.65 264.6 131.75
M 339.25 254.9
L 337.3 256.6 337.3 256.55
Q 336.3 257.3 333.7 258.6 331.6287109375 259.635546875 330.5 260.45 330.35078125 260.619921875 330.2 260.75 328.4 262.65 327.3 263.35 325.6 264.2 324.85 264.8 324.35 265.15 323.7 265.85 322.8 266.85 322.6 267 320.8 268.25 319.9 268.95 319.1 269.6 317.65 271.3 316.25 272.9 315.35 273.6 314.4 274.35 314.2 274.6 313.6 275.2 313.6 275.85
L 318.85 270.85
Q 320.2 269.65 320.6 269.35 320.95 269.05 321.9 268.4 322.75 267.8 323.2 267.4 323.85 266.85 325.05 265.6 325.95 264.85 328 263.7 329.1 262.9 331.05 261 331.148828125 260.919921875 331.25 260.8 332.3072265625 260.0322265625 334.3 258.9 335.01171875 258.5044921875 335.6 258.15
L 316.25 275.4
Q 316.05 275.6 315.95 275.85 315.9 276.1 316.1 276.15
L 343.95 251.4 343.8 250.95
Q 342.85 251.6 341.5 252.85 339.65 254.6 339.25 254.9
M 275.35 321.5
Q 276.4 319.4 280.1 313.2
L 284.85 305.5
Q 283.4 306.8 281.55 309.8 279.05 313.8 278.45 314.9 274.7 321.2 271.55 328.3 272.65 327.05 273.65 325.05 274.8 322.7 275.35 321.5
M 291.45 292.3
Q 294.85 286.3 295.85 283.3
L 284.95 301.95
Q 283 305.4 281.25 307.95 279.95 309.85 277.1 313.6 275.55 315.85 272.55 321.1 269.7 326.05 267.9 328.5 265.15 332.1 264.95 332.4 263.4 334.65 263 336.7 263.95 334.55 266.05 331.8 268.45 328.8 269.55 327.2 270.7 325.65 272.05 323.3 273.6 320.65 274.35 319.3 275.9 316.75 278.5 313 282.45 307.2 282.75 306.75 286.05 301.75 291.45 292.3
M 342.3 258.35
L 342.25 258.05
Q 339.3 259.85 334.7 264.25
L 331.05 267.75
Q 327.5 271.1 325.9 272.95 323.85 275.3 321.5 278.45
L 313.7 288.75
Q 313.4 289.15 313.75 289.25 315.5 287.1 318.85 282.75 329.35 269.5 342.3 258.35
M 348.2 1.5
L 347.95 1.5 347.95 44.35 347.45 54.35
Q 347.05 61.1 346.85 63.75 346.4 69 345.65 73.05 343.25 85.9 334.55 102.95 329.65 112.55 319.55 131.6 327.811328125 118.4265625 332.65 109.8 334.296875 106.8294921875 335.55 104.4 342.3251953125 91.1478515625 345.45 79.25 346.0140625 77.1744140625 346.45 75.15 347.3833984375 70.86640625 347.95 66.15
L 347.95 110.45
Q 344.8419921875 116.762890625 341 122.4 337.1 128.2 327.35 139.9 326.16875 141.309765625 325.05 142.65 317.5228515625 151.83203125 313.9 157.55 309.165625 164.98984375 305.8 173.65 306.012109375 172.5482421875 306.2 171.45 306.8 167.35 307.45 164.35 309.05 157.5 309.1 157.25 309.5 155.3 310.4 149.1 310.4505859375 148.731640625 310.5 148.35 311.9880859375 137.595703125 313.7 127 314.319140625 123.2736328125 314.95 119.55 315.4498046875 116.74140625 315.95 113.95 314.6892578125 117.41015625 313.55 121.45 312.634375 124.933203125 311.8 128.85 310.7 133.85 309 144.15
L 303.15 178.95
Q 302.6171875 175.3580078125 302.55 170.45 302.324609375 160.4576171875 303 150.55 303.2642578125 147.2703125 303.6 144
L 304.1 139.5
Q 304.3 137.7 303.85 137 303.598046875 136.9212890625 303.4 137 302.93984375 137.206640625 302.7 138.2 301.95 142.3 301.3 149.05
L 300.85 153.4
Q 300.45 158.95 300.45 165.85 300.35 172.75 300.8 176.75 301.1 179.55 301.7 182.35 301.9 183.25 302.25 183.65 302.3767578125 183.8083984375 302.5 183.9 302.3068359375 183.84765625 302.1 183.8 300.55 183.5 297.8 184.35 289.8 187.1 280.45 194.45 279.8689453125 194.9416015625 279.45 195.3 277.40859375 187.8728515625 276.5 178.7 275.75 171.4 275.5 159.4 275.244921875 149.0294921875 275.85 142.35 275.9650390625 141.1646484375 276.1 140.1 276.5888671875 136.1404296875 278.6 127.05 278.7169921875 137.6990234375 280.2 148.15 280.23359375 148.2865234375 280.25 148.4 280.55 150.7 281.5 155.85 283.2 165.1 285 170.8 287.5 178.8 291.3 184.5 284.9732421875 167.9341796875 282.05 150.65 280.2470703125 139.6421875 279.8 128.35 279.7072265625 125.2861328125 279.35 123.7
L 285.1 98.05
Q 284.4203125 101.963671875 284.15 106.45 283.85 111.55 284.1 121.4 284.3 128.3 284.65 130.95 285.2 135.45 286.75 138.15 286 128.7 286.4 109.75 286.5 104.75 286.85 101.45 287.4 97.25 288.95 92.2 289.9 89.1 292.15 83.2
L 297.6 69.2
Q 298.0505859375 67.985546875 298.2 67 299.0212890625 66.65625 299.75 66.3 303.7287109375 64.280859375 306.7 61.8 306.1783203125 63.5482421875 305.65 65.55 303.3 74.3 302.35 78.8 300.8 86.25 300.5 92.3 300.4 94.65 300.4 99.35 300.5 112.25 300.95 118.65 301.55 113.45 301.55 103.85 301.6 93.6 302 89 302.45 83.75 303.85 77.2 304.65 73.5 306.65 65.5
L 307.8 60.85
Q 309.184375 59.5974609375 310.3 58.25 312.4 55.7 314.2 51.95 315.3 49.7 317.1 45.1 322.05 32.55 323.65 25.45 323.7509765625 25.0041015625 323.85 24.55 324.2470703125 51.4912109375 318.15 77.95 318.1 78.3 316.45 85.15 315.4 89.45 314.85 92.3 313.8 97.2 313.25 101.7
L 316.05 91.45
Q 318.35 83.1 319.9 76.55 326.65859375 47.37109375 324.9 17.7 325.502734375 11.01796875 324.25 5.3 323.687890625 2.7837890625 322.6 1.5
L 320.7 1.5
Q 323.1703125 10.6662109375 322.05 20.05 321.4 25.7 319.15 32.5 317.8 36.6 314.55 44.5 312.9 48.6 311.9 50.65 310.64140625 53.1671875 309.25 55.1
L 309.35 54.8
Q 309.18515625 55.1251953125 309 55.45 308.7103515625 55.905859375 308.4 56.3 304.5 61.1 297.4 64.45 293.3 66.35 284.15 69.25 274.8 72.25 271.65 73.1 264.55 75.05 258.85 75.65 253.628515625 76.2302734375 250.1 75.05 249.17265625 74.644140625 248.25 74.2 245.51953125 72.707421875 243 69.6 242.9134765625 69.491796875 242.8 69.4 242.923828125 69.18515625 242.95 68.95 243 68.45 242.7 68.15 242.05 67.5 240.95 68.1 240.3 68.45 239.45 69.3
L 237.1 71.5
Q 236.35 72.25 236.5 72.7 236.5064453125 72.7453125 236.5 72.75 236.608203125 73.0693359375 237 73.2 237.35 73.35 237.75 73.25 238.1 73.15 238.95 72.3 240.05 71.25 241.1 70.75 241.6466796875 71.384375 242.1 71.9 242.063671875 72.0138671875 242.05 72.15 242 72.45 242.4 72.75 243.0361328125 73.2689453125 243.9 73.8 244.2173828125 74.1375 244.5 74.4 246.8 76.5 249.1 77.4 250.8865234375 78.1287109375 253.3 78.3 265.090625 83.16484375 278.5 86.2 278.8060546875 86.2841796875 279.1 86.35 283.25 87.25 285.4 87 287.4751953125 86.754296875 288.85 85.85 288.630078125 86.453515625 288.4 87.05 287.25 89.9 286.65 91.85 285.81484375 94.480859375 285.25 97.45 276.7818359375 117.9189453125 274.15 140.1 273.8705078125 142.6041015625 273.65 145.1 273.568359375 146.0134765625 273.5 146.9 273.358984375 148.77734375 273.25 150.65 272.1638671875 171.3576171875 276.2 191.35 276.87421875 194.539453125 277.65 197.7 279.55 205.6 282.5 209.3 284.15 211.4 286.85 213.4 288.55 214.65 291.95 216.65
L 295.6 218.8
Q 295.6130859375 218.9169921875 295.65 219 295.8 219.5 296.25 219.55 296.455078125 219.5755859375 296.7 219.5
L 334.25 242
Q 335.95 243 337.4 243.2 338.6265625 243.3658203125 339.4 242.85 339.5357421875 242.9265625 339.65 242.95 335.794921875 244.662109375 331.75 247.6 328.75 249.8 324.2 253.9 323.104296875 254.8951171875 322.15 255.75 318.3580078125 259.1615234375 316.8 260.4 312.65 263.8 296.3 274.35 290.6533203125 278.0193359375 286.25 281.4 280.801953125 285.679296875 277.3 289.5 247.38984375 305.08828125 215.7 318.3 208.75 321.2 205.95 323.25 203.7 324.9 201.4 327.55 200.15 328.95 197.45 332.45 196.1 334.25 195.6 335.3 194.8 337 195.1 338.45
L 197.3 335.25
Q 200.3 330.9 201.95 329.2 204.85 326.1 209.45 323.55 211.59296875 322.3876953125 215.15 320.8 216.5044921875 320.2064453125 218.05 319.55 245.3 308.05 247.95 306.9 257.1822265625 302.76328125 264.95 298.7 269.5431640625 296.3166015625 273.6 293.95 272.9435546875 294.8396484375 272.25 295.8 271.35 297 267.8 302.15 251.6201171875 325.40546875 232.45 346.8
L 236.1 346.8
Q 252.4244140625 328.5080078125 266.45 308.3 272.65 299.35 274.3 297.15 277.84296875 292.41328125 281.2 288.9 281.754296875 288.31875 282.3 287.75 282.7544921875 287.3248046875 283.2 286.9 287.8095703125 282.5375 296.5 276.9 298.3892578125 275.6736328125 300.45 274.4 313.4 266.4 318.2 262.45 320.254296875 260.7529296875 324.25 257 324.742578125 256.575390625 325.25 256.1 329.8 251.85 332.4 249.8 340.4771484375 243.5177734375 347.95 242.6
L 347.95 346.8 348.2 346.8 348.2 1.5
M 327.5 231.4
L 329.7 234.2
Q 331.366015625 236.3205078125 333.3 238.2
L 316.65 228.35
Q 316.4427734375 227.9734375 316.1 227.55 314.1 224.8 310.3 219.2
L 306.9 214.25
Q 306.77421875 214.0234375 306.6 213.85
L 307.95 213.1
Q 309.3 212.25 309.75 211.9 309.970703125 211.7283203125 310.15 211.55 310.6029296875 211.5005859375 311.05 211.4 311.1423828125 211.5705078125 311.25 211.75 314.9 217.9 320.25 223.65 320.7 224.1 323.95 227.45 326.2 229.8 327.5 231.4
M 280.6 197.1
Q 281.3 196.3 282.7 195.35
L 287.2 192.4
Q 288.9 191.25 290.3 190.45 291.55 189.8 292.75 189.4
L 297.55 187.4
Q 300.5 186.15 302 186.85 303.35 187.45 304.15 189.35 304.25 189.65 304.7 190.95 305 191.95 305.3 192.55 305.8296875 193.609375 306.6 194.4 306.190625 194.4091796875 305.75 194.45 304 194.6 301.2 195.65
L 292.3 200
Q 290.1 201.25 289.35 201.55 287.95 202.15 287.3 202.55 286.2 203.2 285.85 204.25 286.25 204.5 287 204.3 287.95 204 290.15 202.95
L 295.2 200.55
Q 300.1 198.25 302.7 197.55 304.65 197.05 306.75 196.95 307.55 196.85 308.2 197.05 308.65 197.2 309.55 197.65 309.9978515625 197.784375 310.55 197.65 310.5447265625 197.828515625 310.6 198.05 310.65 198.4 310.95 198.6 311.2 198.75 311.7 198.7
L 312.5 198.6
Q 313.6 198.6 314.6 200.1 315.65 201.6 316.35 203.45 316.85 204.85 316.5 205.65 316.15 206.3 315 207
L 310.55 209.6
Q 310.3421875 209.71953125 310.15 209.85 309.583984375 209.6982421875 308.8 209.85 307.9 210.05 306.55 210.95
L 297.1 216.8 296.2 216.25
Q 292.1 213.85 290.1 212.35 289.300390625 211.7806640625 288.55 211.2 288.6369140625 211.176953125 288.7 211.15 289 211.05 289.55 210.5 294.4 205.6 300.6 202.4 303.4 201 303.5 200.95 305.1 200.05 306.1 199.1 295.44609375 202.7005859375 287.95 210.65 286.1173828125 209.107421875 284.85 207.45 282.0134765625 203.8171875 280.15 197.65 280.3453125 197.4330078125 280.6 197.1
M 305.7 214.35
Q 305.753515625 214.4380859375 305.8 214.5
L 309.65 220.35
Q 311.55 223.35 312.65 224.75
L 315.25 227.5 299.25 218.05 305.7 214.35
M 327.85 142.9
Q 334.9 134.75 340.65 127 345.1990234375 120.9232421875 347.95 115.9
L 347.95 240.75
Q 344.5298828125 241.056640625 340.95 242.45 340.1087890625 241.1685546875 338.7 239.8 336.65 237.85 335.6 236.85 333.9 235.2 331.55 232.3 328.3 228.35 327.6 227.6
L 323.15 222.9
Q 317.6248046875 217.0498046875 313.15 210.75 314.2072265625 210.3845703125 315.75 209.65 317.45 208.8 318.05 208.25 319.75 206.55 319.3 203.9 319.05 201.95 317.45 199.65 316.25 197.9 315.1 197.1 313.4 196 311.7 196.5
L 311.65 196.5
Q 311.1865234375 195.854296875 310.35 195.3 310.5197265625 194.9890625 310.4 194.55 310.25 194 309.85 193.65 309.65 193.4 309.05 193 308.5 192.6 308.25 192.35 307.65 191.7 307.15 190 306.3 187.4 305.4 186.2 304.8341796875 185.3828125 304.15 184.8 304.5552734375 181.9310546875 305 179 305.01640625 179.1095703125 305.05 179.2 309.6 167.85 316.45 157.35 317.354296875 155.9748046875 318.2 154.75 319.6224609375 152.7203125 320.9 151.1 322.35 149.2 327.85 142.9
M 303.7 202.95
Q 303.2 203.3 302.3 203.5 300.85 203.85 300.8 203.85 300.05 204.15 298.55 205.1 296.05 206.85 294.5 208.2 293.8 208.7 293.65 209.2
L 293.9 209.45
Q 296 207.55 298.35 206.1 301.4 204.1 303.95 203.4
L 303.7 202.95
M 312.2 218.8
Q 311.15 217.05 310.6 216.2 309.65 214.7 308.35 213.5 308.35 214.3 309.2 215.8 312.6 221.4 317.3 225.95 318.7 227.35 318.9 228.05 319.1 228.1 319.15 227.8 319.15 227.5 319 227.3 316.2 223.4 314.55 221.6 312.7 219.55 312.2 218.8
M 177.7 160.8
L 177.6 160.4
Q 177.55 160.15 177.4 160.05
L 177 160.05
Q 176.8 160.7 177.05 161.5
L 178.2 163.4 178.55 163.95
Q 179.45 164.85 179.55 165.05
L 179.95 165.05
Q 179.65 164.25 179.2 163.55 179.0412109375 163.3515625 178.9 163.15 178.7603515625 162.930859375 178.7 162.75
L 178.55 162.15 178.3 161.65 177.9 161.15 177.7 160.8
M 171.9 262.25
Q 171.85 262.85 171.95 263.15 171.95 263.25 172.35 264.15 172.5 264.7 172.45 265.8 172.4 266.9 172.55 267.4
L 172.8 267.4
Q 173 266.6 173 265.6 173 264.7 172.85 264.25
L 172.5 263.3
Q 172.4 262.9 172.45 261.9 172.5 261 172.3 260.55 172 260.35 171.9 260.8
L 171.9 261.3
Q 171.95 261.55 171.9 262.25
M 317.15 115.65
Q 316.85 116.8 317.15 117.35 321.35 102.75 323.6 96.55 324.2 94.85 323.95 93.95 319.95 105.15 317.15 115.65
M 27.85 1.5
L 22.35 1.5
Q 20.3736328125 2.626171875 18.7 4.05 18.7822265625 3.744921875 18.6 3.35
L 18 2.45
Q 17.7439453125 2.1298828125 17.4 1.5
L 15.4 1.5
Q 15.650390625 2.0794921875 16.4 3.5 16.5423828125 3.7015625 16.65 3.85 17.07109375 4.385546875 17.3 4.5 17.6443359375 4.7458984375 17.95 4.75 16.5939453125 6.001953125 15.45 7.45 15.42421875 7.5185546875 15.4 7.55 14.7 8.45 14.6 9.05 14.5658203125 9.2037109375 14.55 9.35 14.5853515625 9.63671875 14.75 9.9 14.95 10.35 15.35 10.45 19.1109375 4.88515625 27.85 1.5
M 52.4 21.95
Q 47.7 20.45 40.8 20 35.6 19.6 32.6 20.35 32.25 20.45 32.05 20.65 31.8 20.9 31.95 21.1 41.9 20.25 51.35 22.2 52.25 22.3 52.4 21.95
M 292.7 1.5
L 291.9 1.5
Q 291.4837890625 2.7236328125 290.8 3.85 290.5 4.4 289.05 6.45
L 286.55 10.1 285.35 11.9
Q 285.1296875 12.2546875 284.9 12.6 282.3328125 16.8890625 281.5 19.85 281.1 21.4 281 22.05 280.45 24.8 280.45 28.1 280.45 31.6 281.45 33.55 281.95 34.45 282.55 34.55 281.95 33.7 281.85 31.8 281.7 30.15 281.7 28.4 281.7 23.7 283 19.6 283.59765625 17.8068359375 284.45 16.05 285.345703125 14.281640625 286.5 12.55
L 287.7 10.7 290.9 5.7
Q 292.3 3.35 292.6 2.25 292.741796875 1.8248046875 292.7 1.5
M 195.7 86.45
L 195.85 86.7
Q 197.9 86.45 199.3 85.2
L 199.15 84.8
Q 199.05 84.95 198.65 85.1 198 85.45 197.65 85.55
L 196.95 85.75
Q 196.65 85.85 195.7 86.45
M 267.95 56.1
Q 271.8 54.3 278.3 50.15 279.1 49.6 278.85 49.15 271.45 53.05 267.7 54.75 261.1 57.8 255.95 58.1 255.6 58.1 255.35 57.85 255.05 57.65 255.3 57.45
L 254.65 57.3
Q 254.35 57.65 254.45 58.1 254.55 58.6 254.95 58.85 255.45 59.15 256.65 59.15 261.95 58.9 267.95 56.1
M 274 53.75
Q 271.6 55.55 270.3 56.3 269.1 56.95 268.75 57.45 270.65 57.05 273.4 55 278.5 51.2 280.3 49.65 281.05 49.05 280.6 48.65
L 274 53.75
M 257.7 18.95
Q 256.65 19.75 255.65 21.8 254.5 24.05 253.8 24.8 252.7 25.95 252.6 26.05 252.35 26.4 251.9 27.6 250.95 29.2 250.5 30 249.95 30.9 249.05 32.7 244.65 41.8 242.7 46.85
L 243 47.1
Q 245.85 40.35 251.6 29.45 253.1 26.55 254 25.2 255.1 23.7 255.55 22.9 255.9 22.3 256.55 21 257.15 19.9 257.85 19.35
L 257.7 18.95
M 267 5.3
Q 266 5.25 264.7 7.1 264.25 7.75 262 10.25 260.55 11.85 257.95 15.25 254.1 20.25 252.3 22.85 249.3 27.1 247.4 30.85 246.5 32.65 244.9 36.35
L 242.45 42.1
Q 243.45 41 244.9 37.9 247.65 31.75 250.25 27.6 251.5 25.5 253.75 22.45 255.2 20.45 259.95 14.2
L 262.7 10.65
Q 263.45 9.75 264.9 8 266.2 6.4 267 5.3
M 313.55 1.5
L 311.55 1.5
Q 312.6 6.25 313 8.75 313.65 12.8 313.7 16.05 313.75 18.9 313.05 24.85 312.4 30.6 312.5 33.6 312.547265625 35.209765625 312.65 38.35 312.6447265625 38.51953125 312.65 38.7 312.55 41.55 311.5 43.45 310.9212890625 44.5392578125 309.85 45.5 309.390625 46.003125 308.8 46.45 307.75 47.25 305.25 48.7 297.15 53.5 290 59.35 291.05 59.05 293.3 57.85
L 295.45 56.65 304.7 51.65
Q 305.084765625 51.4427734375 305.45 51.25 308.797265625 49.3921875 310.6 47.95 313.65 45.4 314.55 42.3 315 40.85 315 38.75 314.9 36.3 314.85 35.1 314.75 32 315.3 26.25 315.419921875 25.0306640625 315.5 23.95 315.8900390625 19.590234375 315.85 17.35 315.8 13.2 314.95 8.15 314.484375 5.47265625 313.55 1.5
M 296.7 169.55
Q 296.7 169.7 296.35 170.4 296.2 170.65 296.1 171.7 295.95 174.45 296.5 177.35
L 296.85 177.35 296.7 172.1
Q 296.7 171 296.9 170.45
L 297.2 169.7
Q 297.3 169.2 297.05 168.95 297 168.9 296.85 168.95 296.75 169 296.7 169.1
L 296.7 169.55
M 280.6 174.8
Q 281.2 176.3 283.1 180.6
L 285.8 186.7
Q 286.1 187.55 286.7 187.55
L 282.35 177.75
Q 280.95 174.65 280.8 172.95 280.05 173.4 280.6 174.8
M 278.15 146.05
Q 278 146.2 277.95 146.35 277.45 149.4 278.4 154.55
L 280.75 166.9
Q 281.65 171.35 282.1 172.85 282.65 174.75 283.45 176.8
L 284.65 180
Q 286.3 184.5 287.7 186.3 288 186.25 287.75 185.75 286.45 183.25 286.2 182.6 285.95 182 285.35 179.95
L 283.9 175.7
Q 283.25 173.65 282.25 169.45
L 280.45 161.45
Q 279.55 157.25 278.65 150.95 278.2 147.95 278.35 146.05 278.3 145.9 278.15 146.05
M 292.65 100.15
Q 292 100.75 292 102.4 292 113.55 292.95 124.15 293.4 129.35 294.55 139.75 295.45 148.95 295.4 155.35 295.4 159.1 295.05 164.55 294.85 167.6 294.45 173.75 294.15 178.4 295.6 180.45 295.1 177.4 295.4 173.2 295.95 168.35 296.2 165.95 297.05 157.5 296.35 146.35 296.2 144.45 294.5 126.7 293.25 113.9 292.65 100.15
M 297.05 88.95
Q 296.75 89 296.65 89.75 296.6 93.4 296.95 104.5 297.3 112.1 297.5 114.25 297.85 117.8 299.05 125.15
L 300.35 133.05
Q 300.45 134 300.85 134.45
L 300.55 131.15
Q 300.35 128.15 300.15 126.85 299.7 124.5 299.55 123.3 299.3 119.9 299.1 118.2 298.2 113.6 298 111.3 297.85 109.6 297.85 106.9 297.9 103.35 297.85 102.45 297.8 101.4 297.4 97.65 297.1 94.65 297.15 92.8 297.25 89.85 297.05 88.95
M 329.6 1.5
L 328.4 1.5 330.45 22.6
Q 330.85 26.6 331 29.8 331.1 32.75 330.8 38.45 330.3771484375 45.4548828125 329.7 52.3 328.601953125 64.0451171875 326.8 75.3 329.15 67.35 330.4 57.1 330.836328125 53.6373046875 331.25 48.4 331.6634765625 44.069921875 332.05 38.5 332.4 32.55 332.35 30.55 332.3 28.25 331.8 23.55
L 329.6 1.5
M 55.85 5.95
Q 58 5.1 58.45 4.1 57.88515625 4.066796875 57.3 4.1 55.22421875 4.2158203125 52.85 5.15 52.6880859375 5.2095703125 52.5 5.25 52.3267578125 5.3583984375 52.1 5.45 50.3501953125 6.190234375 47.6 7.75 40.3 11.95 36.65 14 34.14921875 15.3783203125 31.85 16.55 28.3703125 18.36640625 25.4 19.7 23.05 20.7 21.6 21 19.4 21.4 17.75 20.7 16.35 19.9 15.55 19.65 14.831640625 19.4703125 14.3 19.6 13.8681640625 19.7021484375 13.55 20 13.4462890625 20.1736328125 13.35 20.35 13.7974609375 20.6095703125 14.2 20.85 15.3587890625 21.4716796875 16.3 21.9 16.946875 22.198828125 17.5 22.4 19.9 23.3 21.95 23.05 22.2375 23.01796875 22.55 22.95 23.8111328125 22.687109375 25.7 21.9 30.85 19.7 37.75 15.85 41.5486328125 13.734375 48.9 9.5 49.2009765625 9.3224609375 49.5 9.15 50.828125 8.4103515625 51.95 7.8 54.25703125 6.6138671875 55.85 5.95
M 24.65 24.55
Q 25.1 24.1 25.55 23.9 25.8 23.75 26.4 23.5 26.95 23.25 26.85 22.75 24.55 23.75 22.65 25.45
L 20.2 28
Q 18.819140625 29.380859375 18.15 30.5 17.81328125 31.094140625 17.65 31.6 17.85 31.7 18.2 31.25
L 18.2 31.2
Q 19.078515625 29.77265625 21.75 27.2
L 24.65 24.55
M 54.7 25.6
Q 54.35 24.95 53.1 24.75 48.3248046875 23.6818359375 43.45 22.9 40.5990234375 22.4216796875 37.7 22.05 37.45 22 37.25 22.1 37 22.2 37.05 22.4
L 39.6 22.85 54.7 25.6
M 292.15 41.05
Q 293 41.05 292.75 40.65 288.1 38.85 281.3 37 279.4 36.5 278.45 36.45 276.9 36.4 274.45 37.15 271.85 38.05 265.4 41.5 259.928515625 44.3822265625 256.35 45.15 256.614453125 44.6681640625 256.85 44.2 257.0431640625 44.108203125 257.25 43.95 257.7 43.6 258.3 42.6
L 258.95 41.45
Q 259.6 40.25 259.75 39.65 259.9 38.7 260 38.25 260.130078125 37.67734375 260.2 37.25 260.3021484375 36.863671875 260.35 36.6 260.3912109375 36.327734375 260.4 36.05 260.476171875 34.7271484375 259.85 33.6 259.741796875 33.3474609375 259.55 33.2
L 262 30.9
Q 264.1 28.9 264.85 27.65 265.55 26.55 265.85 25.35 266.0390625 24.5701171875 266.1 23.5 266.15546875 22.3056640625 266.05 20.75 265.85 17.3 265 15.4 264.6 15.15 264.35 15.9 264.15 16.55 264.3 17.45 264.4 18 264.65 19.1 264.9 20.35 264.7 22.3 264.603125 23.0107421875 264.45 23.75 264.35625 24.2076171875 264.25 24.65 264.1 25.45 263.8 26.1 263.45 26.95 262.45 28.15 261.15 29.65 258.15 32.35 257.6357421875 32.8052734375 257.15 33.2 254.880859375 35.311328125 253.8 36.6 252.3 38.3 252.3 39.8 252.35 40.25 252.65 41.25
L 253.7 44.35
Q 253.925390625 45.2517578125 254.4 45.7 254.4751953125 45.806640625 254.55 45.9 254.7939453125 46.1439453125 255.5 46.25
L 255.55 46.25
Q 255.720703125 46.265625 255.9 46.25 256.021484375 46.27578125 256.15 46.25 258.1 46.3220703125 260.35 45.5 261.9 44.9 264.85 43.35 269.8263671875 40.6734375 273.8 39.3 275.1068359375 38.8576171875 276.3 38.55 277.95 38.1 279 38.15 279.85 38.2 281.35 38.7 286.85 40.3 292.15 41.05
M 259.05 34.15
L 259.15 34.15 259.15 34.25
Q 259.1087890625 34.2173828125 259.05 34.15
M 288.45 11.2
Q 288.3296875 11.6470703125 288.45 12.2 288.55 12.85 289.25 13.85
L 297.7 27.2
Q 298 27.7 298.2 27.8 297 24.2 292.95 18.05
L 290 13.55
Q 289.3748046875 12.56015625 289.1 11.75 288.878125 11.05078125 288.95 10.5 288.5607421875 10.785546875 288.45 11.2
M 92.5 76.9
Q 93.60546875 77.15390625 94.75 77.4 114.8 81.55 129.45 83.1 148.4 85.15 164.4 83.65 125.1341796875 84.22265625 87.2 74.7 78.7701171875 72.6111328125 70.4 70 61.1 67 57.7 66.05 49.5 63.7 41.85 62.4 36.4048828125 61.469140625 32.3 61.25 31.99765625 61.2603515625 31.7 61.25 26.2 61.05 21.6 62.1 18.434375 62.83046875 15.65 64.2 13.90390625 65.0654296875 12.3 66.2 7.85 69.3 5.8 73.75 8.2 69.5 12.75 66.55 17 63.85 22.25 62.8 26.8 61.85 32.35 62.15 36.65 62.35 42.5 63.35 52.65 65.15 62.55 68.25 64.8 68.95 70.7 70.95 75.8 72.65 78.8 73.55 84.0689453125 75.05546875 92.5 76.9
M 106.2 147.25
Q 104.4 145.25 102.95 143.95 101.3 142.4 99.15 141 106.1 147.15 111.65 154.05 110.15 151.4 106.2 147.25
M 70.5 120.45
Q 69.2 119.5 68.7 120.2 70.7 121.15 74.4 124 93.35 139.15 110.25 155.6 110.25 155.05 109.45 154.25 90.75 136.15 70.5 120.45
M 180.05 87
Q 175.25 88 174.15 88.15 171.05 88.65 164.85 88.75 160.95 88.85 158.75 88.75 155.35 88.6 152.7 88 152.75 88.6 153.8 88.8 156.2 89.2 160 89.3 166.4 89.5 169.6 89.25 172.7 89 178.9 87.8
L 187.05 86.3 186.8 85.9
Q 183.05 86.4 180.05 87
M 316.45 103.7
Q 315.9 105.05 315.1 107.75 312.2 117.2 310.95 122.5 310.14375 125.9314453125 309.6 129.1 308.8966796875 133.63203125 308.75 137.65 309.15 137.75 309.35 137.2 309.4 137.1 309.4 136.4 309.25 134.9 309.7 132.45
L 311.35 125.35 313.05 118.1
Q 314.3 113.2 316.3 106.3 317.3 102.75 318.35 101.15 318.85 100.25 318.3 100.1 317.25 101.75 316.45 103.7
M 330.2 120.75
L 337.95 106
Q 338.75 104.55 339.25 103.2 339.7 102 339.85 100.7 339.45 100.75 339 101.65 337 106.5 332.7 114.4 327.7 123.45 326.05 127 324.55 130.2 321 139.4 320.25 141.6 320.65 142.6 321.45 139.75 322.8 136.2 324.8 131.05 330.2 120.75
M 336.4 40.95
Q 336.5 42.35 335.95 45.9
L 334.9 52
Q 334.1 56.55 333.45 58.65 332.55 61.8 332.45 62.35 332.25 63.3 332.1 65.3 331.933984375 66.8279296875 331.3 69.35 331.01953125 70.62265625 330.6 72.15 330.55 72.45 330.65 72.7 330.75 73 331 72.95 331.45 70.1 332.15 67.95 332.33046875 67.3908203125 332.45 66.9 332.7041015625 66.111328125 332.8 65.6 332.9 63.7 333.05 62.75 333.65 60.65 333.95 59.55 334.8 56.9 335.6 51.4
L 336 49
Q 336.9 43.1 336.95 40.1 336.65 39.95 336.45 40.3 336.3 40.55 336.4 40.95
M 336.25 17.05
Q 335.35 18.3 335.25 21.3 335 27.1 333.6 38.6
L 332.85 44.65 331.1 59.15
Q 330.75 61.8 329.9 67.1 329.4810546875 70.276953125 329.4 72.9 329.3697265625 74.0240234375 329.4 75.05 329.897265625 73.2140625 330.3 71.25 331.0251953125 68.1462890625 331.55 64.75 331.6 64.3 332.3 59.15 333.0642578125 53.0353515625 334.35 41.35 334.498828125 40.0306640625 334.65 38.65 335.2 33.85 335.55 29.15 335.95 22.8 336.15 19.65
L 336.25 17.05 Z"/>

<path fill="#FEB5AA" stroke="none" d="
M 118.65 346.4
Q 120.15 337.3 120.15 334.3 119.65 323.85 119.65 322.3 117.75 323.55 111.1 327.1 102.95 331.75 92.15 339.1 86.028515625 343.285546875 78.15 346.8
L 118.55 346.8
Q 118.6158203125 346.6009765625 118.65 346.4
M 160.4 329.65
Q 159.4869140625 331.268359375 158.4 333.35
L 150.55 346.4
Q 150.4296875 346.6123046875 150.3 346.8
L 169.85 346.8
Q 172.1048828125 333.78515625 175.9 317.35 176.8111328125 313.64453125 177.55 310.55 176.7720703125 311.728125 175.9 312.9 172 318.15 165.95 324 163.40703125 326.54296875 161.15 328.3 160.788671875 328.943359375 160.4 329.65
M 112.75 291.25
Q 108.05 291.25 106.05 292.95 104.35 294.45 103.65 298.4 103.2 300.95 102.4 308.2 101.4 315.75 99.3 322.8
L 99.3 324.85
Q 103.8 314.6 107.65 305.95 111.9091796875 296.53515625 114.5 291.45 113.9 291.25 112.75 291.25
M 110.35 294.4
Q 111.3 292.45 112.35 291.55
L 103.8 312.4
Q 103 314.3 102.5 315.15 105.5 304.2 110.35 294.4
M 90.95 261.95
Q 90.2 263.25 89.4 265.9
L 82 290.7
Q 81.5 292.25 80.9 292.75
L 81.05 290.85
Q 81.25 288.65 81.45 287.65 81.55 286.85 82.4 283.75
L 88.35 263
Q 89 261.25 89.15 260.95 89.75 260.05 90.75 259.2 93.1197265625 256.9966796875 94.6 255.8 92.609375 256.545703125 91.05 257.15 83.65 260 83 262.25 82.2 265.05 80 281.95 77.9 298.1 77.9 299.9
L 77.9 303
Q 79.45 298.2 87.1 277.2 91.808984375 264.2861328125 94.1 258.25 91.9375 260.1546875 90.95 261.95
M 70.3 229.9
Q 70.514453125 229.4775390625 70.7 229.05 69.0775390625 229.7068359375 67.25 230.5 58.45 234.35 58 237.25 55.85 250.1 52.5 263.1 50.4 271.3 50.4 277.25
L 50.4 280.05
Q 52.614453125 273.8126953125 54.65 268.25 54.9599609375 267.10390625 55.4 265.7
L 59.55 252.3
Q 62.85 243.2 64.1 238.55 64.6 236.8 64.75 235.75 64.95 233.9 65.25 233.25 66.05 231.45 69.75 230.1
L 70.3 229.9
M 96.05 180.9
Q 92.798046875 176.9634765625 91.45 174.35 90.5416015625 176.0912109375 89.3 180
L 87.5 186.35 86.55 192.05
Q 86.34140625 193.7880859375 85.95 194.9
L 100.15 185.65
Q 99.765625 185.40234375 99.35 184.9
L 96.05 180.9
M 261.4 163.25
Q 261.2919921875 165.328515625 261.15 167.6 259.15 198.8 259.45 215.05 259.8212890625 236.787890625 263.45 254.45 266.382421875 262.598046875 270.8 272.65
L 271.25 273.15
Q 270.344921875 271.1341796875 269.45 262.15 268.464453125 259.70625 267.9 257.95 266.25 252.95 264.7 243.35 262.8 232.05 262.05 226.35 261.45 221.9 260.95 216.3 260.9 215.65 261.1 215.2 261.3 214.65 261.8 214.7 262.1 215 262.05 215.65 262 216 261.85 216.75 261.8 217.1 261.9 218.45
L 264.3 235
Q 265.9 245.4 266.8 249.55 267.76171875 253.9779296875 269.05 258.3 269.066796875 258.1443359375 269.05 257.95 268.1 245.15 267.85 243.75
L 267.85 239.35
Q 272.15 243.65 280.5 253.95 288.85 264.25 288.9 264.3
L 289.4 264.3
Q 282.05 242.4 275 218.75 263.43515625 179.842578125 261.4 163.25
M 143.15 319.55
Q 143.8 317.95 144.15 317.2 144.75 315.85 145.65 315.25 146.7 314.5 149.35 314.5
L 158.25 314.6
Q 160.6576171875 314.6859375 162.3 314.45 165.378515625 310.440234375 166 308.05
L 163.5 308.05
Q 158.55 308.95 151.8 310.7 144.1 312.75 143.1 313.65 141.1 315.45 139.25 323 138.7171875 325.2203125 138.35 327.2
L 141.65 322.15
Q 142.75 320.45 143.15 319.55
M 145.55 319.6
Q 145.6 319.85 145.85 320.8
L 146.9 323.9
Q 147 324.5 147 324.6
L 147 325.3 147.3 325.9
Q 147.65 326.25 147.35 326.5
L 147.1 326.5 146.15 324.7
Q 145.75 323.8 145.75 323.65
L 145.6 322.9
Q 145.3 322.5 145.25 322.25 145.25 321.8 145.2 321.55
L 144.85 320.95
Q 144.2357421875 322.1154296875 143.45 323.35 142.25 325.25 139.75 329 138.973046875 330.2814453125 138.1 331.9 138.162109375 331.9326171875 138.2 331.95 138.95 332.3 139.3 332.4 140.05 332.6 141.95 332.4 147.1 331.6 150.45 330.6 155.05 329.25 158.3 327.05 158.615234375 326.8439453125 158.95 326.6 158.7580078125 326.234765625 158.55 325.85 156.8 322.65 156.3 321.3 158.5865234375 319.0134765625 160.55 316.65 158.80625 316.85 156.75 316.85 153.3 316.8 151.55 316.85 148.948828125 316.893359375 146.95 317.25 147.0181640625 317.3091796875 147.05 317.35
L 147.4 318
Q 147.65 318.45 148.25 319.2
L 148.7 320.15 149.55 321.3
Q 149.95 322.05 150.55 323.7
L 150.25 323.95
Q 149.65 323.75 149.1 323.05 148.5 322.2 148.2 321.75
L 147.45 320.7 146.5 319
Q 146.1908203125 318.4201171875 146.1 318.2 145.873828125 318.8630859375 145.55 319.55
L 145.55 319.6
M 133.7 281.55
Q 136.097265625 281.22578125 139.7 281.3
L 150.1 281.4
Q 156.05 281.4 160 281.7 163.1 281.9 169.2 282.8 171.4 283.15 172.5 283.5 172.611328125 283.537109375 172.7 283.55 172.7345703125 283.4310546875 172.8 283.3
L 172.8 283.25
Q 172.893359375 283.1328125 172.95 283.05 172.9556640625 282.9728515625 172.95 282.9 172.85 282.05 173.65 280.55 174.85 278.25 175.85 275.85 176.7 273.55 176.85 272.95 177.0126953125 272.3966796875 177.15 271.75 173.4802734375 272.3421875 170.4 272.8 170.438671875 273.5775390625 170.8 274.3 170.2 274.15 169.9 273.25
L 169.85 272.9
Q 157.8197265625 274.8248046875 155.55 275.1 142.25 276.75 128.3 276.5 128.0798828125 278.003515625 130 279.65
L 133.1 281.25
Q 133.426171875 281.4130859375 133.7 281.55
M 137.4 247
Q 144.15 246.4 148.05 245.75
L 153.85 244.85
Q 160.35 244 166.75 245.15 167.412109375 245.265234375 167.85 245.4 167.8140625 244.8796875 167.9 244.25 168 243.5 168.9 240.4 169.9646484375 236.5509765625 169.35 231.9 167.410546875 232.3884765625 165.5 232.85 165.45625 235.67734375 165 238
L 164.6 233.05
Q 154.7208984375 235.3990234375 145.55 237.5 118.55 243.65 112.5 243.85
L 112.5 244.4
Q 112.63125 244.483984375 112.8 244.55
L 112.85 244.6
Q 115.4 245.4 118 246.55 121.35 248.1 122.95 248.3 124 248.45 126.75 248.1 129.7 247.7 137.4 247
M 220.85 159.3
Q 221.122265625 158.5068359375 221.25 157.7 217.3400390625 159.708203125 213.2 161.7 213.8513671875 161.7513671875 214.1 162 211.6654296875 163.2373046875 208.95 163.7 198.0642578125 168.8318359375 185.75 173.9 151.7 187.85 137.25 187.85 136.65 187.85 135.2 187.35 133.8 186.85 133.15 186.85 132.6 186.85 123.4 196.4 115.15 204.95 114.05 206.25 108.95 211.15 100.55 215.25 100.4513671875 215.29765625 100.35 215.35
L 101.3 216.35
Q 101.3212890625 216.3736328125 101.35 216.4
L 120.35 214.05
Q 121.1255859375 213.07734375 121.95 212.15 128.51484375 203.012109375 141.75 196.9 146.9 194.55 154.5 192.05 158.85 190.65 167.5 187.9 187.85078125 181.1966796875 208.4 170.2 211.9380859375 167.74296875 214.95 165.5 217.2740234375 163.822265625 219.3 162.25 220.325390625 160.85 220.85 159.3
M 59.75 1.5
Q 58.8197265625 2.7837890625 57.3 4.1 57.88515625 4.066796875 58.45 4.1 58 5.1 55.85 5.95 54.25703125 6.6138671875 51.95 7.8 50.550390625 8.6400390625 48.9 9.5 41.5486328125 13.734375 37.75 15.85 30.85 19.7 25.7 21.9 23.8111328125 22.687109375 22.55 22.95 22.2375 23.01796875 21.95 23.05 19.9 23.3 17.5 22.4 16.946875 22.198828125 16.3 21.9 16.44375 22.1861328125 16.55 22.5 17.0833984375 23.7169921875 17.4 25.35 17.8033203125 27.487109375 18.15 30.5 18.819140625 29.380859375 20.2 28
L 22.65 25.45
Q 24.55 23.75 26.85 22.75 26.95 23.25 26.4 23.5 25.8 23.75 25.55 23.9 25.1 24.1 24.65 24.55
L 21.75 27.2
Q 19.078515625 29.77265625 18.2 31.2 18.2583984375 31.628515625 18.3 32.05 24.85 25.65 27.75 24.4 31.0404296875 22.983203125 39.6 22.85
L 37.05 22.4
Q 37 22.2 37.25 22.1 37.45 22 37.7 22.05 40.5990234375 22.4216796875 43.45 22.9 47.261328125 23.02890625 50.6 23.65 53.916015625 24.2216796875 57.95 24.35 57.062109375 23.9845703125 55.95 23.4 51.15 20.9 50.9 20.85 52.75 17.95 60.5 9.55 65.159765625 4.501953125 67.8 1.5
L 59.75 1.5
M 40.8 20
Q 47.7 20.45 52.4 21.95 52.25 22.3 51.35 22.2 41.9 20.25 31.95 21.1 31.8 20.9 32.05 20.65 32.25 20.45 32.6 20.35 35.6 19.6 40.8 20
M 290.8 3.85
Q 291.4837890625 2.7236328125 291.9 1.5
L 280.55 1.5
Q 279.6947265625 1.9525390625 278.75 2.45 272.85 5.55 271.75 8.3 271 10.15 271.15 16.9 271.3 23.1 270.25 24.5 269.5 24.5 268.1 24 266.7 23.5 266.1 23.5 266.0390625 24.5701171875 265.85 25.35 265.55 26.55 264.85 27.65 264.1 28.9 262 30.9
L 259.55 33.2
Q 259.741796875 33.3474609375 259.85 33.6 260.476171875 34.7271484375 260.4 36.05 260.3912109375 36.327734375 260.35 36.6 260.3021484375 36.863671875 260.2 37.25 260.130078125 37.67734375 260 38.25 259.9 38.7 259.75 39.65 259.6 40.25 258.95 41.45
L 258.3 42.6
Q 257.7 43.6 257.25 43.95 257.0431640625 44.108203125 256.85 44.2 256.614453125 44.6681640625 256.35 45.15 259.928515625 44.3822265625 265.4 41.5 271.85 38.05 274.45 37.15 276.9 36.4 278.45 36.45 279.4 36.5 281.3 37 288.1 38.85 292.75 40.65 293 41.05 292.15 41.05 286.85 40.3 281.35 38.7 279.85 38.2 279 38.15 277.95 38.1 276.3 38.55 275.1068359375 38.8576171875 273.8 39.3 274.8111328125 39.15 275.65 39.15 280.25 39.15 284.15 40.65 288 42.1 290.1 42.1 293.3 42.1 293.3 39.4 293.3 38.35 288.4 34.4 283.5 30.5 283.5 26.65 283.5 24.95 284.2 18.5 284.3375 17.1794921875 284.45 16.05 283.59765625 17.8068359375 283 19.6 281.7 23.7 281.7 28.4 281.7 30.15 281.85 31.8 281.95 33.7 282.55 34.55 281.95 34.45 281.45 33.55 280.45 31.6 280.45 28.1 280.45 24.8 281 22.05 281.1 21.4 281.5 19.85 282.3328125 16.8890625 284.9 12.6 285.2328125 10.528515625 285.5 9.8 286.014453125 9.8802734375 286.55 10.1
L 289.05 6.45
Q 290.5 4.4 290.8 3.85
M 306 15.65
Q 306 13.5576171875 305.5 11.05 303.421484375 5.821484375 301.8 1.5
L 292.7 1.5
Q 292.741796875 1.8248046875 292.6 2.25 292.3 3.35 290.9 5.7
L 287.7 10.7
Q 288.0623046875 10.9314453125 288.45 11.2 288.5607421875 10.785546875 288.95 10.5 288.878125 11.05078125 289.1 11.75 291.83671875 14.151171875 295.25 19.3 301.2 28.35 301.1 33.8 302.4 32.45 304.1 26.65 306 20.3 306 15.65
M 313 8.75
Q 312.6 6.25 311.55 1.5
L 302.3 1.5
Q 303.2203125 3.387109375 304.1 6 305.018359375 8.7068359375 305.5 11.05 305.66953125 11.497265625 305.85 11.95 308 18.5 308 26.9 308 34.2 306.3 37.7 305.15 40.05 301.7 42.8 297.3 46.25 294.85 49.25 290.4 54.75 286.5 64.15
L 286.5 64.65
Q 290.39609375 59.6716796875 295.45 56.65
L 293.3 57.85
Q 291.05 59.05 290 59.35 297.15 53.5 305.25 48.7 307.75 47.25 308.8 46.45 309.390625 46.003125 309.85 45.5 311.3251953125 42.749609375 312.45 39 312.5453125 38.67734375 312.65 38.35 312.547265625 35.209765625 312.5 33.6 312.4 30.6 313.05 24.85 313.75 18.9 313.7 16.05 313.65 12.8 313 8.75
M 171.65 232.2
Q 171.718359375 232.6732421875 171.75 233.15 172.297265625 240.67421875 169.25 246.55 172.1044921875 248.19609375 173.3 249.05 174.5 249.95 176.7 251.85
L 178.05 253
Q 179.1 253.9 179.35 254.3 179.95 255.15 180.3 256.65 180.588671875 258.01484375 180.65 259.95 181.5646484375 257.1177734375 182.05 255.5 183.6 250.4 183.6 248.15 183.6 245.55 177.25 239.15 173.112890625 235.012890625 171.65 232.2
M 200.05 177.25
Q 193.73671875 181.6611328125 186 186.9
L 150.35 210.9
Q 152.953125 210.7853515625 154.95 210.8 160.8 210.8 163.65 212.9 165.85 214.55 167.75 218.6 170.0341796875 223.5865234375 171 228.15 172.3982421875 220.7294921875 187.4 201 200.2236328125 184.8529296875 210 172.05 205.2423828125 174.736328125 200.05 177.25
M 259.15 34.15
L 259.05 34.15
Q 259.1087890625 34.2173828125 259.15 34.25
L 259.15 34.15
M 286.25 281.4
Q 270.9888671875 288.1435546875 252.5 296.1 223.65 308.5 215 311.8 200.25 317.45 196.1 326.35 195.95 326.65 192.85 335.05 190.7 340.95 187.55 345.6
L 187.55 346.1
Q 191.9 342 200.95 332.3 206.5 326.35 211.7 322.9 213.1373046875 321.94375 215.15 320.8 211.59296875 322.3876953125 209.45 323.55 204.85 326.1 201.95 329.2 200.3 330.9 197.3 335.25
L 195.1 338.45
Q 194.8 337 195.6 335.3 196.1 334.25 197.45 332.45 200.15 328.95 201.4 327.55 203.7 324.9 205.95 323.25 208.75 321.2 215.7 318.3 247.38984375 305.08828125 277.3 289.5 280.801953125 285.679296875 286.25 281.4
M 253.3 78.3
Q 250.8865234375 78.1287109375 249.1 77.4 246.8 76.5 244.5 74.4 244.2173828125 74.1375 243.9 73.8 243.0361328125 73.2689453125 242.4 72.75 242 72.45 242.05 72.15 242.063671875 72.0138671875 242.1 71.9 241.6466796875 71.384375 241.1 70.75 240.05 71.25 238.95 72.3 238.1 73.15 237.75 73.25 237.35 73.35 237 73.2 236.608203125 73.0693359375 236.5 72.75
L 236.5 72.8
Q 232.9 75.15 232.6 75.85 232.95 76.1 233.55 76.55 234.05 77 234.05 77.8 234.05 81.6 221.45 87.5 213.4251953125 91.248046875 203.1 94.7 202.8896484375 94.8802734375 202.75 95
L 202.25 95
Q 202.67265625 94.859765625 203.1 94.7 204.4052734375 93.6677734375 208.35 90.85 212.6 87.6 213.5 85.65
L 209.05 85.65
Q 204.25 87.1 195.1 89.15 190.866796875 90.0822265625 188.35 90.65 186.694921875 91.55 186.05 91.55
L 185.1 91.55
Q 185.89375 91.2771484375 188.35 90.65 190.6994140625 89.469921875 195.05 86.55 203.25 81.1 205.65 77.35
L 203.25 77.35
Q 184.25 83 176.95 84.55 162.75 87.6 147.85 87.6 128.55 87.6 112.15 83.45 103.3830078125 81.2484375 92.5 76.9 84.0689453125 75.05546875 78.8 73.55 75.8 72.65 70.7 70.95 64.8 68.95 62.55 68.25 52.65 65.15 42.5 63.35 36.65 62.35 32.35 62.15 26.8 61.85 22.25 62.8 17 63.85 12.75 66.55 8.2 69.5 5.8 73.75 7.85 69.3 12.3 66.2 13.90390625 65.0654296875 15.65 64.2 15.173828125 64.3890625 14.7 64.6 6.23359375 68.422265625 4.7 76.85 5.348828125 80.809375 7 85.95 13.65 106.3 23.7 117.95 36.95 133.35 63.05 142.9 65.75 143.9 71.2 145.85 75.85 147.65 79.1 149.4 88.45 154.45 94.85 163.35 101.25 172.25 103 182.7 103.1 183.6 102.75 183.85 102.4931640625 184.0517578125 102.2 184 102.131640625 184.2564453125 102 184.45
L 126.2 169.85
Q 126.71484375 169.530859375 127.15 169.3 127.5982421875 168.808984375 128.5 168.4 128.6248046875 168.05 128.9 168.05 129.08046875 168.07578125 129.2 168.15 132.663671875 167.0837890625 140.25 165.15
L 212.7 146.75
Q 215.2654296875 146.053125 217.05 146.1 224.7916015625 137.638671875 250.8 112.8 257.4046875 119.1923828125 264.2 127.35 264.292578125 127.4560546875 264.35 127.5 266.1884765625 129.75 268.05 132.1 270.108984375 134.712109375 274.15 140.1 276.7818359375 117.9189453125 285.25 97.45 285.81484375 94.480859375 286.65 91.85 287.25 89.9 288.4 87.05 288.630078125 86.453515625 288.85 85.85 287.4751953125 86.754296875 285.4 87 283.25 87.25 279.1 86.35 278.8060546875 86.2841796875 278.5 86.2 265.090625 83.16484375 253.3 78.3
M 174.15 88.15
Q 175.25 88 180.05 87 183.05 86.4 186.8 85.9
L 187.05 86.3 178.9 87.8
Q 172.7 89 169.6 89.25 166.4 89.5 160 89.3 156.2 89.2 153.8 88.8 152.75 88.6 152.7 88 155.35 88.6 158.75 88.75 160.95 88.85 164.85 88.75 171.05 88.65 174.15 88.15
M 68.7 120.2
Q 69.2 119.5 70.5 120.45 90.75 136.15 109.45 154.25 110.25 155.05 110.25 155.6 93.35 139.15 74.4 124 70.7 121.15 68.7 120.2
M 102.95 143.95
Q 104.4 145.25 106.2 147.25 110.15 151.4 111.65 154.05 106.1 147.15 99.15 141 101.3 142.4 102.95 143.95
M 339.4 242.85
Q 338.6265625 243.3658203125 337.4 243.2 335.95 243 334.25 242
L 296.7 219.5
Q 296.455078125 219.5755859375 296.25 219.55 295.8 219.5 295.65 219 295.6130859375 218.9169921875 295.6 218.8
L 291.95 216.65
Q 288.55 214.65 286.85 213.4 284.15 211.4 282.5 209.3 279.55 205.6 277.65 197.7 276.87421875 194.539453125 276.2 191.35 276.9513671875 196.444921875 277.85 201.7 281.85 225.2 284.5 228.6 287.45 232.45 307.2 246 315.8755859375 251.923828125 322.15 255.75 323.104296875 254.8951171875 324.2 253.9 328.75 249.8 331.75 247.6 335.794921875 244.662109375 339.65 242.95 339.5357421875 242.9265625 339.4 242.85 Z"/>

<path fill="#B4D7E0" stroke="none" d="
M 4.5 312.6
Q 4.065234375 312.894140625 3.65 313.1
L 3.65 346.8 13.25 346.8
Q 13.2 346.148046875 13.2 345.45 13.25 343.4 13.85 339.9 16.4734375 325.362109375 20.45 311.25 19.496875 311.2283203125 18.2 310.85 14.65 309.85 12.7 309.65 9.6 309.4 7.45 310.55 6.45 311.1 4.5 312.6
M 15.35 321.6
Q 15.15 321.05 14.95 320.05
L 13.95 315.9
Q 13.45 313.9 13.45 312.8
L 13.85 312.7 15.75 321.5 15.35 321.6
M 10.25 313.7
Q 10.65 314.55 11.05 316.85 11.65 320.45 12.8 324.55 13.15 325.55 12.55 325.75 11.05 320.05 9.95 313.85
L 10.25 313.7
M 325.25 256.1
Q 324.742578125 256.575390625 324.25 257 320.254296875 260.7529296875 318.2 262.45 313.4 266.4 300.45 274.4 298.3892578125 275.6736328125 296.5 276.9 287.8095703125 282.5375 283.2 286.9 282.7544921875 287.3248046875 282.3 287.75 281.754296875 288.31875 281.2 288.9 277.84296875 292.41328125 274.3 297.15 272.65 299.35 266.45 308.3 252.4244140625 328.5080078125 236.1 346.8
L 271.3 346.8 301.35 311.3
Q 309.5 301.2 315.85 291.55 310.25 302.35 300.75 314.3 295.2 321.3 282.8 335.1 275.8736328125 342.8056640625 271.6 346.8
L 274.55 346.8 278.35 342.4
Q 293.4 325.3 302.5 316.9 302.7 317.4 302.05 318.15
L 287.6 334.5
Q 280.4978515625 342.40625 276.35 346.8
L 347.95 346.8 347.95 242.6
Q 340.4771484375 243.5177734375 332.4 249.8 329.8 251.85 325.25 256.1
M 342.25 258.05
L 342.3 258.35
Q 329.35 269.5 318.85 282.75 315.5 287.1 313.75 289.25 313.4 289.15 313.7 288.75
L 321.5 278.45
Q 323.85 275.3 325.9 272.95 327.5 271.1 331.05 267.75
L 334.7 264.25
Q 339.3 259.85 342.25 258.05
M 295.85 283.3
Q 294.85 286.3 291.45 292.3 286.05 301.75 282.75 306.75 282.45 307.2 278.5 313 275.9 316.75 274.35 319.3 273.6 320.65 272.05 323.3 270.7 325.65 269.55 327.2 268.45 328.8 266.05 331.8 263.95 334.55 263 336.7 263.4 334.65 264.95 332.4 265.15 332.1 267.9 328.5 269.7 326.05 272.55 321.1 275.55 315.85 277.1 313.6 279.95 309.85 281.25 307.95 283 305.4 284.95 301.95
L 295.85 283.3
M 280.1 313.2
Q 276.4 319.4 275.35 321.5 274.8 322.7 273.65 325.05 272.65 327.05 271.55 328.3 274.7 321.2 278.45 314.9 279.05 313.8 281.55 309.8 283.4 306.8 284.85 305.5
L 280.1 313.2
M 337.3 256.6
L 339.25 254.9
Q 339.65 254.6 341.5 252.85 342.85 251.6 343.8 250.95
L 343.95 251.4 316.1 276.15
Q 315.9 276.1 315.95 275.85 316.05 275.6 316.25 275.4
L 335.6 258.15
Q 335.01171875 258.5044921875 334.3 258.9 332.3072265625 260.0322265625 331.25 260.8 331.148828125 260.919921875 331.05 261 329.1 262.9 328 263.7 325.95 264.85 325.05 265.6 323.85 266.85 323.2 267.4 322.75 267.8 321.9 268.4 320.95 269.05 320.6 269.35 320.2 269.65 318.85 270.85
L 313.6 275.85
Q 313.6 275.2 314.2 274.6 314.4 274.35 315.35 273.6 316.25 272.9 317.65 271.3 319.1 269.6 319.9 268.95 320.8 268.25 322.6 267 322.8 266.85 323.7 265.85 324.35 265.15 324.85 264.8 325.6 264.2 327.3 263.35 328.4 262.65 330.2 260.75 330.35078125 260.619921875 330.5 260.45 331.6287109375 259.635546875 333.7 258.6 336.3 257.3 337.3 256.55
L 337.3 256.6 Z"/>

<path fill="#F9EDEC" stroke="none" d="
M 25.4 302.65
Q 23.19296875 309.7947265625 22.4 312.75 19.1365234375 324.7466796875 15.05 346.8
L 21.6 346.8
Q 21.6 346.4806640625 21.6 346.2 21.6 324.26640625 25.4 302.65
M 129.05 170.45
Q 128.8236328125 170.6646484375 128.55 170.85 113.25 180.15 105.6 184.75 91.85 193.1 82.85 199.05 75.75 203.75 74.1 204.8 70.87890625 206.829296875 68 208.35 68.291796875 208.2767578125 68.55 208.2
L 59.85 214.15
Q 53.15 218.7 50.3 221.95 45.75 227.15 43.4 235.95 42.824609375 237.963671875 40.45 250.7 44.53359375 240.6626953125 49.5 230.8 54.3 221.2 64.75 212.35 76.1 202.75 99.75 189 117.55 178.6 128.05 175.55 129.3126953125 175.1791015625 130.95 174.75
L 130.5 173.7
Q 129.6279296875 171.8552734375 129.05 170.45
M 175.55 163.8
L 174.15 160.9
Q 173.565625 159.7759765625 173.4 158.9
L 131.65 169.2
Q 132.26015625 172.297265625 133.25 173.9 133.327734375 174.01015625 133.4 174.1 141.1865234375 172.267578125 155.45 169.45 165.816015625 167.0048828125 175.8 164.1
L 175.55 163.8
M 195.75 153.4
L 196.3 155.7
Q 196.5271484375 156.654296875 196.75 157.35 209.875 152.6912109375 217.2 148.7 216.536328125 148.5939453125 215.6 148.65 215.1900390625 148.7134765625 214.7 148.8 214.1322265625 148.8880859375 213.45 149.05
L 195.75 153.4
M 193.1 158.65
Q 194.2140625 158.2673828125 195.3 157.9 195.1416015625 157.4453125 195 156.95 194.5017578125 155.095703125 194.4 153.75
L 173.95 158.8
Q 174.10625 159.189453125 174.35 159.65 174.55 160.15 175.1 161.1 175.35 161.55 175.95 163.1 176.151171875 163.557421875 176.35 163.95 177.2775390625 163.6701171875 178.2 163.4
L 177.05 161.5
Q 176.8 160.7 177 160.05
L 177.4 160.05
Q 177.55 160.15 177.6 160.4
L 177.7 160.8 177.9 161.15 178.3 161.65 178.55 162.15 178.7 162.75
Q 178.7603515625 162.930859375 178.9 163.15 186.1150390625 161.0359375 193.1 158.65
M 24.75 49.15
Q 29.95 47.4 33.4 47.4 37.15 47.4 44.3 48.8 48.2 49.55 54.3 50.9 54.7 44.25 45.7 37.9 38.0283203125 32.479296875 31.4 32.05 22.7146484375 37.0482421875 20.15 39.1 13.35 44.6 13.2 50.9 19.55 50.9 24.75 49.15 Z"/>

<path fill="#FCD0C7" stroke="none" d="
M 195.3 157.9
Q 194.2140625 158.2673828125 193.1 158.65 186.1150390625 161.0359375 178.9 163.15 179.0412109375 163.3515625 179.2 163.55 179.65 164.25 179.95 165.05
L 179.55 165.05
Q 179.45 164.85 178.55 163.95
L 178.2 163.4
Q 177.2775390625 163.6701171875 176.35 163.95 176.6646484375 164.6060546875 176.95 165.05
L 176.5 165.05
Q 176.4 164.75 176.05 164.4
L 175.8 164.1
Q 165.816015625 167.0048828125 155.45 169.45 141.1865234375 172.267578125 133.4 174.1 134.012109375 174.9703125 135.1 176.45 135.6 177.4 136.25 179.4 136.6 180.15 137.45 181.5 138.1 182.8 138.05 183.75 136.8 181.8 135.5 179.45
L 133.8 176.35
Q 133.1822265625 175.2205078125 132.7 174.3 131.855859375 172.6205078125 131.5 171.65 131.05 170.5 131.05 169.6 131.05 169.4791015625 131.05 169.35
L 129.9 169.65
Q 130.1318359375 170.19609375 130.35 170.95 130.6 172 131.7 174.25
L 136.65 184.9
Q 135.5 184.5 134.5 182.4
L 130.95 174.75
Q 129.3126953125 175.1791015625 128.05 175.55 117.55 178.6 99.75 189 76.1 202.75 64.75 212.35 54.3 221.2 49.5 230.8 44.53359375 240.6626953125 40.45 250.7 40.3546875 251.23515625 40.25 251.8 38 263.8 31.95 282.4 27.8462890625 294.9708984375 25.4 302.65 21.6 324.26640625 21.6 346.2 21.6 346.4806640625 21.6 346.8
L 78.15 346.8
Q 86.028515625 343.285546875 92.15 339.1 102.95 331.75 111.1 327.1 117.75 323.55 119.65 322.3 119.65 323.85 120.15 334.3 120.15 337.3 118.65 346.4 118.6158203125 346.6009765625 118.55 346.8
L 128.4 346.8
Q 128.6326171875 346.2501953125 129 345.6 131.4 341.6 132.8 337.75
L 134.15 334
Q 134.7 332.75 136.2 330.45
L 138.35 327.2
Q 138.7171875 325.2203125 139.25 323 141.1 315.45 143.1 313.65 144.1 312.75 151.8 310.7 158.55 308.95 163.5 308.05
L 166 308.05
Q 165.378515625 310.440234375 162.3 314.45 162.5546875 314.4419921875 162.8 314.4 164.4 314.1 164.95 314.1 166.15 314.1 166.75 314.8 164.3830078125 316.2064453125 160.55 316.65 158.5865234375 319.0134765625 156.3 321.3 156.8 322.65 158.55 325.85 158.7580078125 326.234765625 158.95 326.6 161.3849609375 324.8650390625 164.9 321.35 170.55 315.65 174 310.9 177.78515625 305.8109375 179.9 300.8 180.3083984375 299.887109375 180.65 298.95 181.7 296 181.35 294.15 180.85 292.1 178.05 289.4
L 173.85 285.35
Q 173.7275390625 285.36953125 173.6 285.35 175.0388671875 288.3697265625 175.5 292.75 176.05 297.5 175.5 302.25 175.4 303.15 175 303.35 174.75 297.15 174.5 294.05 174.10859375 288.76484375 172.75 285.2 162.6716796875 283.483984375 152.4 283.1
L 135.2 282.75
Q 135.0560546875 282.75 134.9 282.75 134.56875 283.17734375 133.95 283.1
L 132.55 282.65 128.15 280.15
Q 127.5 279.75 127.4 279.45 127.3 279.2 127.4 278.95 127.5 278.7 127.7 278.65 127.8 278.65 128.3 278.75
L 130 279.65
Q 128.0798828125 278.003515625 128.3 276.5 142.25 276.75 155.55 275.1 157.8197265625 274.8248046875 169.85 272.9
L 169.75 271.75 169.2 270.1
Q 169.05 269.45 169.05 268.3 169.1 267 169.05 266.5
L 168.7 265.1
Q 168.6 264.7 168.5 262.75
L 167.95 258.1
Q 167.65 256.1 166.7 251.4 166.55 250.25 166.2 249.55 165.65 248.35 165.65 248.2
L 165.55 247.4 165.3 246.85
Q 163.41875 246.64375 162.85 246.6 159.95 246.3 156.1 246.7 155.15 246.75 149.3 247.55 140.8 248.75 125.75 249.9 125.4908203125 249.91796875 125.25 249.9 124.3078125 249.9892578125 123.55 250 122.332421875 249.9921875 121.65 249.85 120.6 249.6 118.35 248.55
L 111.5 245.15
Q 111.45 244.75 111.95 244.6 112.33125 244.45703125 112.8 244.55 112.63125 244.483984375 112.5 244.4
L 112.5 243.85
Q 118.55 243.65 145.55 237.5 154.7208984375 235.3990234375 164.6 233.05
L 164.1 227.25
Q 164.093359375 230.260546875 163.65 232.75 163.35 232.75 163.25 232.25 163 230.85 162.95 228.85 163 226.6 162.95 225.45 162.95 220.0205078125 161.85 214.65 160.33203125 213.8951171875 157.75 213.6 153.45 213.15 148 213.5 144.9 213.75 138.2 214.55 119.2 216.9 99.05 219.05 94.65 219.55 92.35 219.35 92.1853515625 219.338671875 92.05 219.3 90.9056640625 219.153515625 90.95 218.4 91 217.7 92.3 217.5
L 100.1 216.55
Q 99.75 215.95 99.6 215.8 99.5583984375 215.7732421875 99.5 215.75 98.8822265625 215.33515625 98.6 215.1 98.2 214.8 97.45 213.7 97.3 213.3 97.35 213.2 97.75 212.95 97.95 212.8
L 100.35 215.35
Q 100.4513671875 215.29765625 100.55 215.25 108.95 211.15 114.05 206.25 115.15 204.95 123.4 196.4 132.6 186.85 133.15 186.85 133.8 186.85 135.2 187.35 136.65 187.85 137.25 187.85 151.7 187.85 185.75 173.9 198.0642578125 168.8318359375 208.95 163.7 208.29609375 163.829296875 207.6 163.9 204.15 164.25 200.9 163.3 198.15 162.5 196.8 160.95 195.976953125 159.9623046875 195.3 157.9
M 177 291.3
Q 177.2 291.05 177.4 291.1
L 178.1 298.9
Q 178.1 299.65 177.8 299.75 177.4 299.55 177.5 298.75 177.55 298.2 177.45 297.05
L 176.95 291.75 177 291.3
M 81.15 226
Q 81.65 225.8 81.85 226.05 81.9 226.15 81.8 226.6 81.25 227.55 80.05 228.2 79.3 228.55 77.7 229 73.35 230.25 69.1 232.4
L 69.05 232.4
Q 67.7419921875 233.061328125 67.25 233.75 66.8 234.35 66.5 235.9 66.1490234375 237.71328125 65.2 240.95 64.583984375 243.2990234375 63.65 246.35
L 55.2 272.85
Q 54.5 275.15 53.9 276.2 53.5 273.85 54.05 270.9 54.22421875 269.8251953125 54.65 268.25 52.614453125 273.8126953125 50.4 280.05
L 50.4 277.25
Q 50.4 271.3 52.5 263.1 55.85 250.1 58 237.25 58.45 234.35 67.25 230.5 69.0775390625 229.7068359375 70.7 229.05 70.514453125 229.4775390625 70.3 229.9
L 81.15 226
M 98.3 253.15
Q 99.45 252.45 99.8 253.2 99.919921875 253.5294921875 99.65 253.85 99.490625 254.0794921875 99.15 254.3 96.65 256.05 94.65 257.8 94.383984375 258.019921875 94.1 258.25 91.808984375 264.2861328125 87.1 277.2 79.45 298.2 77.9 303
L 77.9 299.9
Q 77.9 298.1 80 281.95 82.2 265.05 83 262.25 83.65 260 91.05 257.15 92.609375 256.545703125 94.6 255.8 94.888671875 255.55234375 95.15 255.35 95.230859375 255.2859375 95.3 255.2 96.48125 254.3158203125 98.3 253.15
M 106.05 292.95
Q 108.05 291.25 112.75 291.25 113.9 291.25 114.5 291.45 111.9091796875 296.53515625 107.65 305.95 103.8 314.6 99.3 324.85
L 99.3 322.8
Q 101.4 315.75 102.4 308.2 103.2 300.95 103.65 298.4 104.35 294.45 106.05 292.95
M 92.75 172.8
Q 92.7248046875 172.6931640625 92.7 172.6
L 92.65 172.6
Q 92.7103515625 172.7115234375 92.75 172.8
M 220.05 147.05
Q 220.4966796875 147.3236328125 220.85 147.65 221.8369140625 147.17265625 223.1 146.05 224.75 144.5 225.3 144.1 226.1 143.5 227.55 142.75 229.4 141.85 229.9 141.55 230.6 141.1 232 140.1 232.56015625 139.719140625 233.05 139.45 233.698046875 139.115625 234.25 138.95 233.2046875 139.786328125 232 140.6 230.943359375 141.386328125 229.75 142.15 226.95 143.85 225.65 144.85 223.65 146.45 223.35 146.65 222.092578125 147.534765625 220.9 147.7 222.0751953125 148.828125 222.8 150.65 222.9654296875 151.04140625 223.1 151.45 223.487109375 152.5927734375 223.65 153.75 223.861328125 155.0638671875 223.8 156.4 223.76328125 157.1412109375 223.65 157.9 223.1 161.25 221.15 163.85 218.9 166.85 213.3 170.15 211.6720703125 171.1162109375 210 172.05 200.2236328125 184.8529296875 187.4 201 172.3982421875 220.7294921875 171 228.15 171.3888671875 229.808203125 171.55 231.4 171.635546875 231.7955078125 171.65 232.2 173.112890625 235.012890625 177.25 239.15 183.6 245.55 183.6 248.15 183.6 250.4 182.05 255.5 181.5646484375 257.1177734375 180.65 259.95 180.692578125 261.76953125 180.55 264.05 180.35 268.8 179.9 271.15 179.885546875 271.234765625 179.85 271.3 178.9892578125 276.2205078125 175.5 283.15 175.40546875 283.35078125 175.3 283.5 175.40234375 283.60234375 175.5 283.7
L 180.1 288.05
Q 181.6 289.5 182.25 290.3 183.35 291.65 183.8 293 184.65 295.8 183.05 300 181.126953125 305.278125 177.55 310.55 176.8111328125 313.64453125 175.9 317.35 172.1048828125 333.78515625 169.85 346.8
L 232.45 346.8
Q 251.6201171875 325.40546875 267.8 302.15 271.35 297 272.25 295.8 272.9435546875 294.8396484375 273.6 293.95 269.5431640625 296.3166015625 264.95 298.7 257.1822265625 302.76328125 247.95 306.9 245.3 308.05 218.05 319.55 216.5044921875 320.2064453125 215.15 320.8 213.1373046875 321.94375 211.7 322.9 206.5 326.35 200.95 332.3 191.9 342 187.55 346.1
L 187.55 345.6
Q 190.7 340.95 192.85 335.05 195.95 326.65 196.1 326.35 200.25 317.45 215 311.8 223.65 308.5 252.5 296.1 270.9888671875 288.1435546875 286.25 281.4 290.6533203125 278.0193359375 296.3 274.35 312.65 263.8 316.8 260.4 318.3580078125 259.1615234375 322.15 255.75 315.8755859375 251.923828125 307.2 246 287.45 232.45 284.5 228.6 281.85 225.2 277.85 201.7 276.9513671875 196.444921875 276.2 191.35 272.1638671875 171.3576171875 273.25 150.65 273.358984375 148.77734375 273.5 146.9 273.568359375 146.0134765625 273.65 145.1 273.8705078125 142.6041015625 274.15 140.1 270.108984375 134.712109375 268.05 132.1 266.1884765625 129.75 264.35 127.5 264.292578125 127.4560546875 264.2 127.35 257.4046875 119.1923828125 250.8 112.8 224.7916015625 137.638671875 217.05 146.1 217.7763671875 146.14453125 218.35 146.3 224.9357421875 139.4712890625 232.25 134.4 234.05 133.15 235.25 133.05 227.653515625 138.4251953125 221.5 144.45 220.747265625 145.23046875 220 146 219.621484375 146.4099609375 219.3 146.6 219.70390625 146.8076171875 220.05 147.05
M 262.45 143
Q 263.415234375 137.1265625 264.6 131.75 263.3 139.65 262.45 149.6 262.04140625 154.05625 261.5 161.8 261.476953125 162.53515625 261.4 163.25 263.43515625 179.842578125 275 218.75 282.05 242.4 289.4 264.3
L 288.9 264.3
Q 288.85 264.25 280.5 253.95 272.15 243.65 267.85 239.35
L 267.85 243.75
Q 268.1 245.15 269.05 257.95 269.066796875 258.1443359375 269.05 258.3 270.716796875 263.721484375 272.9 269 273.3 269.85 272.95 270.25 270.797265625 265.537109375 269.45 262.15 270.344921875 271.1341796875 271.25 273.15
L 270.8 272.65
Q 266.382421875 262.598046875 263.45 254.45 264.2310546875 258.229296875 265.15 261.8 262.964453125 255.698828125 261.5 248.7 259.7580078125 240.3865234375 259.05 230.8 258.15 219.45 258.6 198.9 258.863671875 186.36328125 259.25 176.9 259.57734375 170.2357421875 259.95 165.1 260.8396484375 153.280078125 262.45 143
M 196.75 157.35
Q 197.0271484375 158.231640625 197.3 158.75 198.25 160.5 200.35 161.45 202.2 162.25 204.5 162.35 206 162.4 208.7 162.05 211.65 161.7 212.9 161.7 213.05390625 161.7 213.2 161.7 217.3400390625 159.708203125 221.25 157.7 221.3361328125 157.30390625 221.35 156.9 221.5984375 154.8267578125 220.95 152.7 220.927734375 152.6357421875 220.9 152.55 220 149.6 217.85 148.85 217.569140625 148.753125 217.2 148.7 209.875 152.6912109375 196.75 157.35
M 166.8 247.1
L 166.8 247.05
Q 166.528515625 247.0404296875 166.25 247
L 167.35 250.25
Q 167.95 252.05 168.4 254.95 168.85 257.25 169.45 262.2
L 169.85 265.25
Q 170.1 266.7 170.15 268.1 170.15 269.55 170.25 269.95
L 170.55 271.05
Q 170.6 271.25 170.45 272.25 170.4083984375 272.54140625 170.4 272.8 173.4802734375 272.3421875 177.15 271.75 177.4314453125 270.436328125 177.6 268.75 177.6322265625 268.48828125 177.65 268.2 178.1033203125 264.4705078125 178.15 261.15 178.15 258.1 177.45 256.55 176.6 254.65 173.3 252.25
L 168 248.35
Q 167 247.65 166.8 247.1
M 171.95 263.15
Q 171.85 262.85 171.9 262.25 171.95 261.55 171.9 261.3
L 171.9 260.8
Q 172 260.35 172.3 260.55 172.5 261 172.45 261.9 172.4 262.9 172.5 263.3
L 172.85 264.25
Q 173 264.7 173 265.6 173 266.6 172.8 267.4
L 172.55 267.4
Q 172.4 266.9 172.45 265.8 172.5 264.7 172.35 264.15 171.95 263.25 171.95 263.15
M 163.05 215.5
Q 163.11875 215.7494140625 163.15 216 163.383203125 217.726171875 163.55 219.2 163.5541015625 219.09375 163.55 219 163.5 218.65 163.65 218.4 163.8 218.1 164.05 218.2 164.35 218.25 164.35 218.75
L 165 225.3
Q 165.45 229.35 165.5 231.65 165.50859375 232.255078125 165.5 232.85 167.410546875 232.3884765625 169.35 231.9 169.2171875 230.9091796875 169 229.85 168.1 225.7 165.5 219.55 164.312109375 216.7173828125 163.05 215.5
M 59.75 1.5
L 58.75 1.5
Q 55.803515625 3.2875 52.5 5.25 52.6880859375 5.2095703125 52.85 5.15 55.22421875 4.2158203125 57.3 4.1 58.8197265625 2.7837890625 59.75 1.5
M 305.5 11.05
Q 305.018359375 8.7068359375 304.1 6 303.2203125 3.387109375 302.3 1.5
L 301.8 1.5
Q 303.421484375 5.821484375 305.5 11.05
M 305.85 11.95
Q 305.66953125 11.497265625 305.5 11.05 306 13.5576171875 306 15.65 306 20.3 304.1 26.65 302.4 32.45 301.1 33.8 301.2 28.35 295.25 19.3 291.83671875 14.151171875 289.1 11.75 289.3748046875 12.56015625 290 13.55
L 292.95 18.05
Q 297 24.2 298.2 27.8 298 27.7 297.7 27.2
L 289.25 13.85
Q 288.55 12.85 288.45 12.2 288.3296875 11.6470703125 288.45 11.2 288.0623046875 10.9314453125 287.7 10.7
L 286.5 12.55
Q 285.345703125 14.281640625 284.45 16.05 284.3375 17.1794921875 284.2 18.5 283.5 24.95 283.5 26.65 283.5 30.5 288.4 34.4 293.3 38.35 293.3 39.4 293.3 42.1 290.1 42.1 288 42.1 284.15 40.65 280.25 39.15 275.65 39.15 274.8111328125 39.15 273.8 39.3 269.8263671875 40.6734375 264.85 43.35 261.9 44.9 260.35 45.5 258.1 46.3220703125 256.15 46.25 256.021484375 46.27578125 255.9 46.25 255.720703125 46.265625 255.55 46.25
L 255.5 46.25
Q 254.7939453125 46.1439453125 254.55 45.9 254.4751953125 45.806640625 254.4 45.7 253.925390625 45.2517578125 253.7 44.35
L 252.65 41.25
Q 252.35 40.25 252.3 39.8 252.3 38.3 253.8 36.6 254.880859375 35.311328125 257.15 33.2 257.6357421875 32.8052734375 258.15 32.35 261.15 29.65 262.45 28.15 263.45 26.95 263.8 26.1 264.1 25.45 264.25 24.65 264.35625 24.2076171875 264.45 23.75 264.603125 23.0107421875 264.7 22.3 264.9 20.35 264.65 19.1 264.4 18 264.3 17.45 264.15 16.55 264.35 15.9 264.6 15.15 265 15.4 265.85 17.3 266.05 20.75 266.15546875 22.3056640625 266.1 23.5 266.7 23.5 268.1 24 269.5 24.5 270.25 24.5 271.3 23.1 271.15 16.9 271 10.15 271.75 8.3 272.85 5.55 278.75 2.45 279.6947265625 1.9525390625 280.55 1.5
L 67.8 1.5
Q 65.159765625 4.501953125 60.5 9.55 52.75 17.95 50.9 20.85 51.15 20.9 55.95 23.4 57.062109375 23.9845703125 57.95 24.35 53.916015625 24.2216796875 50.6 23.65 47.261328125 23.02890625 43.45 22.9 48.3248046875 23.6818359375 53.1 24.75 54.35 24.95 54.7 25.6
L 39.6 22.85
Q 31.0404296875 22.983203125 27.75 24.4 24.85 25.65 18.3 32.05 18.2583984375 31.628515625 18.2 31.2
L 18.2 31.25
Q 17.85 31.7 17.65 31.6 17.81328125 31.094140625 18.15 30.5 17.8033203125 27.487109375 17.4 25.35 17.0833984375 23.7169921875 16.55 22.5 16.44375 22.1861328125 16.3 21.9 15.3587890625 21.4716796875 14.2 20.85 13.7974609375 20.6095703125 13.35 20.35 13.4462890625 20.1736328125 13.55 20 12.25 18.113671875 12.25 15.25 12.25 14.15 14.55 9.4 14.5615234375 9.37578125 14.55 9.35 14.5658203125 9.2037109375 14.6 9.05 14.7 8.45 15.4 7.55 15.42421875 7.5185546875 15.45 7.45 16.5939453125 6.001953125 17.95 4.75 17.6443359375 4.7458984375 17.3 4.5 17.07109375 4.385546875 16.65 3.85 16.5423828125 3.7015625 16.4 3.5 15.650390625 2.0794921875 15.4 1.5
L 9.7 1.5
Q 8.240234375 7.055859375 8 12.9 7.65 20.2 9.3 27.15 9.8 29.1 10.85 32.95 11.7 36.35 11.9 38.8 12.35 44.9 8.5 55.7 4.4 67.1 4.35 72.55 4.35 74.491015625 4.7 76.85 6.23359375 68.422265625 14.7 64.6 15.173828125 64.3890625 15.65 64.2 18.434375 62.83046875 21.6 62.1 26.2 61.05 31.7 61.25 31.99765625 61.2603515625 32.3 61.25 36.4048828125 61.469140625 41.85 62.4 49.5 63.7 57.7 66.05 61.1 67 70.4 70 78.7701171875 72.6111328125 87.2 74.7 125.1341796875 84.22265625 164.4 83.65 148.4 85.15 129.45 83.1 114.8 81.55 94.75 77.4 93.60546875 77.15390625 92.5 76.9 103.3830078125 81.2484375 112.15 83.45 128.55 87.6 147.85 87.6 162.75 87.6 176.95 84.55 184.25 83 203.25 77.35
L 205.65 77.35
Q 203.25 81.1 195.05 86.55 190.6994140625 89.469921875 188.35 90.65 190.866796875 90.0822265625 195.1 89.15 204.25 87.1 209.05 85.65
L 213.5 85.65
Q 212.6 87.6 208.35 90.85 204.4052734375 93.6677734375 203.1 94.7 213.4251953125 91.248046875 221.45 87.5 234.05 81.6 234.05 77.8 234.05 77 233.55 76.55 232.95 76.1 232.6 75.85 232.9 75.15 236.5 72.8
L 236.5 72.75
Q 236.5064453125 72.7453125 236.5 72.7 236.35 72.25 237.1 71.5
L 239.45 69.3
Q 240.3 68.45 240.95 68.1 242.05 67.5 242.7 68.15 243 68.45 242.95 68.95 242.923828125 69.18515625 242.8 69.4 242.9134765625 69.491796875 243 69.6 245.51953125 72.707421875 248.25 74.2 249.17265625 74.644140625 250.1 75.05 253.628515625 76.2302734375 258.85 75.65 264.55 75.05 271.65 73.1 274.8 72.25 284.15 69.25 293.3 66.35 297.4 64.45 304.5 61.1 308.4 56.3 308.7103515625 55.905859375 309 55.45 309.18515625 55.1251953125 309.35 54.8
L 309.25 55.1
Q 310.64140625 53.1671875 311.9 50.65 312.9 48.6 314.55 44.5 317.8 36.6 319.15 32.5 321.4 25.7 322.05 20.05 323.1703125 10.6662109375 320.7 1.5
L 313.55 1.5
Q 314.484375 5.47265625 314.95 8.15 315.8 13.2 315.85 17.35 315.8900390625 19.590234375 315.5 23.95 315.419921875 25.0306640625 315.3 26.25 314.75 32 314.85 35.1 314.9 36.3 315 38.75 315 40.85 314.55 42.3 313.65 45.4 310.6 47.95 308.797265625 49.3921875 305.45 51.25 305.084765625 51.4427734375 304.7 51.65
L 295.45 56.65
Q 290.39609375 59.6716796875 286.5 64.65
L 286.5 64.15
Q 290.4 54.75 294.85 49.25 297.3 46.25 301.7 42.8 305.15 40.05 306.3 37.7 308 34.2 308 26.9 308 18.5 305.85 11.95
M 264.7 7.1
Q 266 5.25 267 5.3 266.2 6.4 264.9 8 263.45 9.75 262.7 10.65
L 259.95 14.2
Q 255.2 20.45 253.75 22.45 251.5 25.5 250.25 27.6 247.65 31.75 244.9 37.9 243.45 41 242.45 42.1
L 244.9 36.35
Q 246.5 32.65 247.4 30.85 249.3 27.1 252.3 22.85 254.1 20.25 257.95 15.25 260.55 11.85 262 10.25 264.25 7.75 264.7 7.1
M 255.65 21.8
Q 256.65 19.75 257.7 18.95
L 257.85 19.35
Q 257.15 19.9 256.55 21 255.9 22.3 255.55 22.9 255.1 23.7 254 25.2 253.1 26.55 251.6 29.45 245.85 40.35 243 47.1
L 242.7 46.85
Q 244.65 41.8 249.05 32.7 249.95 30.9 250.5 30 250.95 29.2 251.9 27.6 252.35 26.4 252.6 26.05 252.7 25.95 253.8 24.8 254.5 24.05 255.65 21.8
M 270.3 56.3
Q 271.6 55.55 274 53.75
L 280.6 48.65
Q 281.05 49.05 280.3 49.65 278.5 51.2 273.4 55 270.65 57.05 268.75 57.45 269.1 56.95 270.3 56.3
M 278.3 50.15
Q 271.8 54.3 267.95 56.1 261.95 58.9 256.65 59.15 255.45 59.15 254.95 58.85 254.55 58.6 254.45 58.1 254.35 57.65 254.65 57.3
L 255.3 57.45
Q 255.05 57.65 255.35 57.85 255.6 58.1 255.95 58.1 261.1 57.8 267.7 54.75 271.45 53.05 278.85 49.15 279.1 49.6 278.3 50.15
M 195.85 86.7
L 195.7 86.45
Q 196.65 85.85 196.95 85.75
L 197.65 85.55
Q 198 85.45 198.65 85.1 199.05 84.95 199.15 84.8
L 199.3 85.2
Q 197.9 86.45 195.85 86.7
M 33.4 47.4
Q 29.95 47.4 24.75 49.15 19.55 50.9 13.2 50.9 13.35 44.6 20.15 39.1 22.7146484375 37.0482421875 31.4 32.05 38.0283203125 32.479296875 45.7 37.9 54.7 44.25 54.3 50.9 48.2 49.55 44.3 48.8 37.15 47.4 33.4 47.4
M 49.5 9.15
Q 49.2009765625 9.3224609375 48.9 9.5 50.550390625 8.6400390625 51.95 7.8 50.828125 8.4103515625 49.5 9.15
M 312.45 39
Q 311.3251953125 42.749609375 309.85 45.5 310.9212890625 44.5392578125 311.5 43.45 312.55 41.55 312.65 38.7 312.6447265625 38.51953125 312.65 38.35 312.5453125 38.67734375 312.45 39
M 286.55 10.1
Q 286.014453125 9.8802734375 285.5 9.8 285.2328125 10.528515625 284.9 12.6 285.1296875 12.2546875 285.35 11.9
L 286.55 10.1
M 202.75 95
Q 202.8896484375 94.8802734375 203.1 94.7 202.67265625 94.859765625 202.25 95
L 202.75 95
M 185.1 91.55
L 186.05 91.55
Q 186.694921875 91.55 188.35 90.65 185.89375 91.2771484375 185.1 91.55 Z"/>

<path fill="#E5CFA5" stroke="none" d="
M 340.65 127
Q 334.9 134.75 327.85 142.9 322.35 149.2 320.9 151.1 319.6224609375 152.7203125 318.2 154.75 317.354296875 155.9748046875 316.45 157.35 309.6 167.85 305.05 179.2 305.01640625 179.1095703125 305 179 304.5552734375 181.9310546875 304.15 184.8 304.8341796875 185.3828125 305.4 186.2 306.3 187.4 307.15 190 307.65 191.7 308.25 192.35 308.5 192.6 309.05 193 309.65 193.4 309.85 193.65 310.25 194 310.4 194.55 310.5197265625 194.9890625 310.35 195.3 311.1865234375 195.854296875 311.65 196.5
L 311.7 196.5
Q 313.4 196 315.1 197.1 316.25 197.9 317.45 199.65 319.05 201.95 319.3 203.9 319.75 206.55 318.05 208.25 317.45 208.8 315.75 209.65 314.2072265625 210.3845703125 313.15 210.75 317.6248046875 217.0498046875 323.15 222.9
L 327.6 227.6
Q 328.3 228.35 331.55 232.3 333.9 235.2 335.6 236.85 336.65 237.85 338.7 239.8 340.1087890625 241.1685546875 340.95 242.45 344.5298828125 241.056640625 347.95 240.75
L 347.95 115.9
Q 345.1990234375 120.9232421875 340.65 127
M 4 83.05
Q 3.81640625 82.3794921875 3.65 81.7
L 3.65 310.45 5.65 309.05
Q 8.2 307.4 9.3 307.15 10.5 306.8 13.05 307.1 17.282421875 307.6521484375 21.1 309 22.287890625 304.8859375 23.6 300.8
L 27.75 288.3
Q 35.2 265.6 41 237.4 42 232.75 42.65 230.65 43.8 226.9 45.5 224.4 46.95 222.3 49.3 220.25 50.85 218.9 53.8 216.7 58.25 213.35 60.8 211.8 62.87421875 210.5197265625 64.85 209.6 64.7720703125 209.2515625 65.05 208.8 65.35 208.3 66 207.9
L 83.85 196.25
Q 83.7265625 196.098828125 83.65 195.85 83.6 195.5 83.7 194.8
L 85.2 186.1 86.9 179.3
Q 87.75 176.55 89.6 173.4 91.2 170.7 92.55 169.65 93.718359375 168.7275390625 95.1 168.35 91.05703125 161.209375 84.25 156 79.45 152.35 72.1 149.1 63.35 145.6 59 143.85 33.95 133.7 21.45 118.95 11.3310546875 107.0693359375 5.25 87.35 4.6033203125 85.2458984375 4 83.05
M 8.25 1.5
L 3.65 1.5 3.65 62.45
Q 3.95 61.55 6.15 55.55 8 50.45 8.8 46.75 9.8 41.85 9.3 37.65 9.05 35.35 8.05 31.55 6.9 27.15 6.6 25.45 5.8 21.15 6.1 12.4 6.25 7.65 6.95 4.9 7.4474609375 2.9810546875 8.25 1.5 Z"/>

<path fill="#995D3E" stroke="none" d="
M 305.8 214.5
Q 305.753515625 214.4380859375 305.7 214.35
L 299.25 218.05 315.25 227.5 312.65 224.75
Q 311.55 223.35 309.65 220.35
L 305.8 214.5
M 329.7 234.2
L 327.5 231.4
Q 326.2 229.8 323.95 227.45 320.7 224.1 320.25 223.65 314.9 217.9 311.25 211.75 311.1423828125 211.5705078125 311.05 211.4 310.6029296875 211.5005859375 310.15 211.55 309.970703125 211.7283203125 309.75 211.9 309.3 212.25 307.95 213.1
L 306.6 213.85
Q 306.77421875 214.0234375 306.9 214.25
L 310.3 219.2
Q 314.1 224.8 316.1 227.55 316.4427734375 227.9734375 316.65 228.35
L 333.3 238.2
Q 331.366015625 236.3205078125 329.7 234.2
M 310.6 216.2
Q 311.15 217.05 312.2 218.8 312.7 219.55 314.55 221.6 316.2 223.4 319 227.3 319.15 227.5 319.15 227.8 319.1 228.1 318.9 228.05 318.7 227.35 317.3 225.95 312.6 221.4 309.2 215.8 308.35 214.3 308.35 213.5 309.65 214.7 310.6 216.2
M 324.25 5.3
Q 325.502734375 11.01796875 324.9 17.7 326.65859375 47.37109375 319.9 76.55 318.35 83.1 316.05 91.45
L 313.25 101.7
Q 313.8 97.2 314.85 92.3 315.4 89.45 316.45 85.15 318.1 78.3 318.15 77.95 324.2470703125 51.4912109375 323.85 24.55 323.7509765625 25.0041015625 323.65 25.45 322.05 32.55 317.1 45.1 315.3 49.7 314.2 51.95 312.4 55.7 310.3 58.25 309.184375 59.5974609375 307.8 60.85
L 306.65 65.5
Q 304.65 73.5 303.85 77.2 302.45 83.75 302 89 301.6 93.6 301.55 103.85 301.55 113.45 300.95 118.65 300.5 112.25 300.4 99.35 300.4 94.65 300.5 92.3 300.8 86.25 302.35 78.8 303.3 74.3 305.65 65.55 306.1783203125 63.5482421875 306.7 61.8 303.7287109375 64.280859375 299.75 66.3 299.0212890625 66.65625 298.2 67 298.0505859375 67.985546875 297.6 69.2
L 292.15 83.2
Q 289.9 89.1 288.95 92.2 287.4 97.25 286.85 101.45 286.5 104.75 286.4 109.75 286 128.7 286.75 138.15 285.2 135.45 284.65 130.95 284.3 128.3 284.1 121.4 283.85 111.55 284.15 106.45 284.4203125 101.963671875 285.1 98.05
L 279.35 123.7
Q 279.7072265625 125.2861328125 279.8 128.35 280.2470703125 139.6421875 282.05 150.65 284.9732421875 167.9341796875 291.3 184.5 287.5 178.8 285 170.8 283.2 165.1 281.5 155.85 280.55 150.7 280.25 148.4 280.23359375 148.2865234375 280.2 148.15 278.7169921875 137.6990234375 278.6 127.05 276.5888671875 136.1404296875 276.1 140.1 275.9650390625 141.1646484375 275.85 142.35 275.244921875 149.0294921875 275.5 159.4 275.75 171.4 276.5 178.7 277.40859375 187.8728515625 279.45 195.3 279.8689453125 194.9416015625 280.45 194.45 289.8 187.1 297.8 184.35 300.55 183.5 302.1 183.8 302.3068359375 183.84765625 302.5 183.9 302.3767578125 183.8083984375 302.25 183.65 301.9 183.25 301.7 182.35 301.1 179.55 300.8 176.75 300.35 172.75 300.45 165.85 300.45 158.95 300.85 153.4
L 301.3 149.05
Q 301.95 142.3 302.7 138.2 302.93984375 137.206640625 303.4 137 303.44453125 136.5125 303.5 136 304.65 125.3 307.85 115.8 310.55 107.85 315.75 97.75 320.5787109375 88.4208984375 329.4 72.9 329.4810546875 70.276953125 329.9 67.1 330.75 61.8 331.1 59.15
L 332.85 44.65
Q 332.1115234375 46.3931640625 331.25 48.4 330.836328125 53.6373046875 330.4 57.1 329.15 67.35 326.8 75.3 328.601953125 64.0451171875 329.7 52.3 328.2509765625 56.0255859375 326.55 60.55 323.8953125 67.6888671875 321.05 75.35 320.20859375 78.2068359375 319.3 81
L 318.8 81.5
Q 319.9443359375 78.3921875 321.05 75.35 322.7404296875 69.7720703125 324.2 64 328.5 47 328.5 31.55 328.5 22.4 325.9 10.8 324.6185546875 5.1373046875 323.4 1.5
L 322.6 1.5
Q 323.687890625 2.7837890625 324.25 5.3
M 296.65 89.75
Q 296.75 89 297.05 88.95 297.25 89.85 297.15 92.8 297.1 94.65 297.4 97.65 297.8 101.4 297.85 102.45 297.9 103.35 297.85 106.9 297.85 109.6 298 111.3 298.2 113.6 299.1 118.2 299.3 119.9 299.55 123.3 299.7 124.5 300.15 126.85 300.35 128.15 300.55 131.15
L 300.85 134.45
Q 300.45 134 300.35 133.05
L 299.05 125.15
Q 297.85 117.8 297.5 114.25 297.3 112.1 296.95 104.5 296.6 93.4 296.65 89.75
M 292 102.4
Q 292 100.75 292.65 100.15 293.25 113.9 294.5 126.7 296.2 144.45 296.35 146.35 297.05 157.5 296.2 165.95 295.95 168.35 295.4 173.2 295.1 177.4 295.6 180.45 294.15 178.4 294.45 173.75 294.85 167.6 295.05 164.55 295.4 159.1 295.4 155.35 295.45 148.95 294.55 139.75 293.4 129.35 292.95 124.15 292 113.55 292 102.4
M 277.95 146.35
Q 278 146.2 278.15 146.05 278.3 145.9 278.35 146.05 278.2 147.95 278.65 150.95 279.55 157.25 280.45 161.45
L 282.25 169.45
Q 283.25 173.65 283.9 175.7
L 285.35 179.95
Q 285.95 182 286.2 182.6 286.45 183.25 287.75 185.75 288 186.25 287.7 186.3 286.3 184.5 284.65 180
L 283.45 176.8
Q 282.65 174.75 282.1 172.85 281.65 171.35 280.75 166.9
L 278.4 154.55
Q 277.45 149.4 277.95 146.35
M 283.1 180.6
Q 281.2 176.3 280.6 174.8 280.05 173.4 280.8 172.95 280.95 174.65 282.35 177.75
L 286.7 187.55
Q 286.1 187.55 285.8 186.7
L 283.1 180.6
M 296.35 170.4
Q 296.7 169.7 296.7 169.55
L 296.7 169.1
Q 296.75 169 296.85 168.95 297 168.9 297.05 168.95 297.3 169.2 297.2 169.7
L 296.9 170.45
Q 296.7 171 296.7 172.1
L 296.85 177.35 296.5 177.35
Q 295.95 174.45 296.1 171.7 296.2 170.65 296.35 170.4
M 311.35 125.35
L 309.7 132.45
Q 309.25 134.9 309.4 136.4 309.4 137.1 309.35 137.2 309.15 137.75 308.75 137.65 308.8966796875 133.63203125 309.6 129.1 308.0638671875 132.8275390625 306.5 137.6 304.266796875 144.4591796875 303 150.55 302.324609375 160.4576171875 302.55 170.45 302.6171875 175.3580078125 303.15 178.95
L 309 144.15
Q 310.7 133.85 311.8 128.85 312.634375 124.933203125 313.55 121.45 312.4662109375 123.1337890625 311.35 125.35
M 347.1 74.9
Q 346.4134765625 76.88828125 345.45 79.25 342.3251953125 91.1478515625 335.55 104.4 334.296875 106.8294921875 332.65 109.8 332.0646484375 111.1814453125 331.5 112.55 327.95 121.05 319.3 135.05 312.550390625 145.9498046875 310.5 148.35 310.4505859375 148.731640625 310.4 149.1 309.5 155.3 309.1 157.25 309.05 157.5 307.45 164.35 306.8 167.35 306.2 171.45 306.012109375 172.5482421875 305.8 173.65 309.165625 164.98984375 313.9 157.55 317.5228515625 151.83203125 325.05 142.65 330.2078125 133.3576171875 333.05 127.3 339.85 112.9 344.5 89.75 346.0298828125 80.759765625 347.1 74.9
M 337.95 106
L 330.2 120.75
Q 324.8 131.05 322.8 136.2 321.45 139.75 320.65 142.6 320.25 141.6 321 139.4 324.55 130.2 326.05 127 327.7 123.45 332.7 114.4 337 106.5 339 101.65 339.45 100.75 339.85 100.7 339.7 102 339.25 103.2 338.75 104.55 337.95 106
M 337.65 36.15
L 337.1 36.15
Q 335.9802734375 37.8470703125 334.35 41.35 333.0642578125 53.0353515625 332.3 59.15 331.6 64.3 331.55 64.75 331.0251953125 68.1462890625 330.3 71.25 330.4638671875 71.038671875 330.6 70.8 330.9724609375 70.070703125 331.3 69.35 331.933984375 66.8279296875 332.1 65.3 332.25 63.3 332.45 62.35 332.55 61.8 333.45 58.65 334.1 56.55 334.9 52
L 335.95 45.9
Q 336.5 42.35 336.4 40.95 336.3 40.55 336.45 40.3 336.65 39.95 336.95 40.1 336.9 43.1 336 49
L 335.6 51.4
Q 334.8 56.9 333.95 59.55 333.65 60.65 333.05 62.75 332.9 63.7 332.8 65.6 332.7041015625 66.111328125 332.45 66.9 337.7791015625 55.1798828125 337.65 45.8
L 337.65 36.15 Z"/>

<path fill="#817B6D" stroke="none" d="
M 282.7 195.35
Q 281.3 196.3 280.6 197.1 280.3453125 197.4330078125 280.15 197.65 282.0134765625 203.8171875 284.85 207.45 286.1173828125 209.107421875 287.95 210.65 295.44609375 202.7005859375 306.1 199.1 305.1 200.05 303.5 200.95 303.4 201 300.6 202.4 294.4 205.6 289.55 210.5 289 211.05 288.7 211.15 288.6369140625 211.176953125 288.55 211.2 289.300390625 211.7806640625 290.1 212.35 292.1 213.85 296.2 216.25
L 297.1 216.8 306.55 210.95
Q 307.9 210.05 308.8 209.85 309.583984375 209.6982421875 310.15 209.85 310.3421875 209.71953125 310.55 209.6
L 315 207
Q 316.15 206.3 316.5 205.65 316.85 204.85 316.35 203.45 315.65 201.6 314.6 200.1 313.6 198.6 312.5 198.6
L 311.7 198.7
Q 311.2 198.75 310.95 198.6 310.65 198.4 310.6 198.05 310.5447265625 197.828515625 310.55 197.65 309.9978515625 197.784375 309.55 197.65 308.65 197.2 308.2 197.05 307.55 196.85 306.75 196.95 304.65 197.05 302.7 197.55 300.1 198.25 295.2 200.55
L 290.15 202.95
Q 287.95 204 287 204.3 286.25 204.5 285.85 204.25 286.2 203.2 287.3 202.55 287.95 202.15 289.35 201.55 290.1 201.25 292.3 200
L 301.2 195.65
Q 304 194.6 305.75 194.45 306.190625 194.4091796875 306.6 194.4 305.8296875 193.609375 305.3 192.55 305 191.95 304.7 190.95 304.25 189.65 304.15 189.35 303.35 187.45 302 186.85 300.5 186.15 297.55 187.4
L 292.75 189.4
Q 291.55 189.8 290.3 190.45 288.9 191.25 287.2 192.4
L 282.7 195.35
M 302.3 203.5
Q 303.2 203.3 303.7 202.95
L 303.95 203.4
Q 301.4 204.1 298.35 206.1 296 207.55 293.9 209.45
L 293.65 209.2
Q 293.8 208.7 294.5 208.2 296.05 206.85 298.55 205.1 300.05 204.15 300.8 203.85 300.85 203.85 302.3 203.5 Z"/>

<path fill="#A77C48" stroke="none" d="
M 335.25 21.3
Q 335.35 18.3 336.25 17.05
L 336.15 19.65
Q 335.95 22.8 335.55 29.15 335.2 33.85 334.65 38.65 334.498828125 40.0306640625 334.35 41.35 335.9802734375 37.8470703125 337.1 36.15
L 337.65 36.15 337.65 45.8
Q 337.7791015625 55.1798828125 332.45 66.9 332.33046875 67.3908203125 332.15 67.95 331.45 70.1 331 72.95 330.75 73 330.65 72.7 330.55 72.45 330.6 72.15 331.01953125 70.62265625 331.3 69.35 330.9724609375 70.070703125 330.6 70.8 330.4638671875 71.038671875 330.3 71.25 329.897265625 73.2140625 329.4 75.05 329.3697265625 74.0240234375 329.4 72.9 320.5787109375 88.4208984375 315.75 97.75 310.55 107.85 307.85 115.8 304.65 125.3 303.5 136 303.44453125 136.5125 303.4 137 303.598046875 136.9212890625 303.85 137 304.3 137.7 304.1 139.5
L 303.6 144
Q 303.2642578125 147.2703125 303 150.55 304.266796875 144.4591796875 306.5 137.6 308.0638671875 132.8275390625 309.6 129.1 310.14375 125.9314453125 310.95 122.5 312.2 117.2 315.1 107.75 315.9 105.05 316.45 103.7 317.25 101.75 318.3 100.1 318.85 100.25 318.35 101.15 317.3 102.75 316.3 106.3 314.3 113.2 313.05 118.1
L 311.35 125.35
Q 312.4662109375 123.1337890625 313.55 121.45 314.6892578125 117.41015625 315.95 113.95 315.4498046875 116.74140625 314.95 119.55 314.319140625 123.2736328125 313.7 127 311.9880859375 137.595703125 310.5 148.35 312.550390625 145.9498046875 319.3 135.05 327.95 121.05 331.5 112.55 332.0646484375 111.1814453125 332.65 109.8 327.811328125 118.4265625 319.55 131.6 329.65 112.55 334.55 102.95 343.25 85.9 345.65 73.05 346.4 69 346.85 63.75 347.05 61.1 347.45 54.35
L 347.95 44.35 347.95 1.5 329.6 1.5 331.8 23.55
Q 332.3 28.25 332.35 30.55 332.4 32.55 332.05 38.5 331.6634765625 44.069921875 331.25 48.4 332.1115234375 46.3931640625 332.85 44.65
L 333.6 38.6
Q 335 27.1 335.25 21.3
M 317.15 117.35
Q 316.85 116.8 317.15 115.65 319.95 105.15 323.95 93.95 324.2 94.85 323.6 96.55 321.35 102.75 317.15 117.35
M 330.45 22.6
L 328.4 1.5 323.4 1.5
Q 324.6185546875 5.1373046875 325.9 10.8 328.5 22.4 328.5 31.55 328.5 47 324.2 64 322.7404296875 69.7720703125 321.05 75.35 323.8953125 67.6888671875 326.55 60.55 328.2509765625 56.0255859375 329.7 52.3 330.3771484375 45.4548828125 330.8 38.45 331.1 32.75 331 29.8 330.85 26.6 330.45 22.6
M 345.45 79.25
Q 346.4134765625 76.88828125 347.1 74.9 346.0298828125 80.759765625 344.5 89.75 339.85 112.9 333.05 127.3 330.2078125 133.3576171875 325.05 142.65 326.16875 141.309765625 327.35 139.9 337.1 128.2 341 122.4 344.8419921875 116.762890625 347.95 110.45
L 347.95 66.15
Q 347.3833984375 70.86640625 346.45 75.15 346.0140625 77.1744140625 345.45 79.25
M 318.8 81.5
L 319.3 81
Q 320.20859375 78.2068359375 321.05 75.35 319.9443359375 78.3921875 318.8 81.5 Z"/>

<path fill="#EA8E7B" stroke="none" d="
M 18.6 3.35
Q 18.7822265625 3.744921875 18.7 4.05 20.3736328125 2.626171875 22.35 1.5
L 17.4 1.5
Q 17.7439453125 2.1298828125 18 2.45
L 18.6 3.35
M 52.1 5.45
Q 52.3267578125 5.3583984375 52.5 5.25 55.803515625 3.2875 58.75 1.5
L 27.85 1.5
Q 19.1109375 4.88515625 15.35 10.45 14.95 10.35 14.75 9.9 14.5853515625 9.63671875 14.55 9.35 14.5615234375 9.37578125 14.55 9.4 12.25 14.15 12.25 15.25 12.25 18.113671875 13.55 20 13.8681640625 19.7021484375 14.3 19.6 14.831640625 19.4703125 15.55 19.65 16.35 19.9 17.75 20.7 19.4 21.4 21.6 21 23.05 20.7 25.4 19.7 28.3703125 18.36640625 31.85 16.55 34.14921875 15.3783203125 36.65 14 40.3 11.95 47.6 7.75 50.3501953125 6.190234375 52.1 5.45 Z"/>
</g>
</defs>

<g transform="matrix( 1.0158233642578125, 0, 0, 1.01361083984375, -3.7,-1.5) ">
<use xlink:href="#Layer0_0_FILL"/>
</g>
</svg>
