
<svg xmlns="http://www.w3.org/2000/svg" version="1.1" xmlns:xlink="http://www.w3.org/1999/xlink" preserveAspectRatio="none" x="0px" y="0px" width="250px" height="250px" viewBox="0 0 250 250">
<defs>
<g id="Layer4_0_FILL">
<path fill="#EDEBD3" stroke="none" d="
M 287 35.05
Q 287 30.05 282 30.05
L 42 30.05
Q 37 30.05 37 35.05
L 37 275.05
Q 37 280.05 42 280.05
L 282 280.05
Q 287 280.05 287 275.05
L 287 35.05 Z"/>
</g>

<g id="Layer4_1_FILL">
<path fill="#3B3D35" stroke="none" d="
M 173.95 95.3
Q 173.4 93.9 172.7 92.5 172.2 91.45 171.6 90.45 166.45 81.8 155.2 75.1 150 72 140.95 67.25 134.5 63.5 134.5 60.25 134.5 59.75 136.6 52.55
L 136.45 51.35
Q 139.75 50.8 141.9 46.6 143.55 43.35 143.55 41.2 143.55 40.25 143.05 38.8 142.4 36.8 141.1 35.45
L 140.85 35.5
Q 141.35 34.1 141.35 32.15 141.35 28.7 140.45 25.85 139.85 23.65 138.7 21.85 134.75 15.3 125.15 14.1
L 125.1 14.1
Q 115.45 15.3 111.5 21.85 110.4 23.65 109.75 25.85 108.9 28.7 108.9 32.15 108.9 34.1 109.4 35.5
L 109.15 35.45
Q 107.85 36.8 107.15 38.8 106.65 40.25 106.65 41.2 106.65 43.35 108.35 46.6 110.45 50.8 113.8 51.35
L 113.6 52.55
Q 115.7 59.75 115.7 60.25 115.7 63.5 109.25 67.25 100.2 72 95 75.1 74.3 87.45 74.3 106.4 74.3 112.1 74.65 113.5 75.15 115.35 77.05 118.45 76.5 122 75.35 129.55 75 131.45 74.8 133.2 74.55 134.7 74.35 136.05 73.1 144.35 73.1 146.9 73.1 148 73.4 149.8 73.45 150.4 73.6 150.95 73.65 151.35 73.8 151.8 74.2 153.8 74.85 154.85 73.85 158.15 72.35 162.85 70.15 171.1 70.55 177 70.75 179.85 70.7 184 70.6 186.3 70.55 190.7 70.55 193.65 69.55 198.2 69.2 200 68.95 201.4
L 68.75 201.35
Q 66.4 202.55 63.85 203.45 62.05 204.45 59.45 207.95 57.05 211.2 56.9 211.4 55.05 214.15 55.05 215.4 55.05 216.75 55.1 216.95
L 55.45 217.35 58.9 217.35
Q 61.05 216.35 61.3 216.7 59.25 221.15 58.85 224.1 58.65 225.5 58.65 230.9 58.65 233.75 58.8 234.55 59.2 236.65 60.75 237.85
L 64 237.85
Q 70.45 235.8 74.65 226.35 78 218.8 78 212.85 78 208.95 77.3 206.1 81.9 195.05 83.9 189.25 89.25 173.9 89.25 164.15 89.25 157.7 89.05 156.2 88.8 153.75 88.1 151.8 87.7 150.75 87.2 149.8 88.9 144.3 90.15 140.35 90.85 138.1 91.45 136.05 91.9 134.55 92.25 133.2 92.25 133 92.35 132.9 92.4 133 92.45 133.2 92.5 133.55 92.65 133.95 92.95 135.05 93.3 136.05 96 145.1 96.75 148.65 96.5 149.2 96.3 149.8 95.95 150.8 95.55 151.8 94.55 154.7 93.9 158.05 92.6 164.2 90.7 177.35 89.95 181.9 88.05 195.1 85.75 211.05 85.75 213.65 85.75 223.75 85.8 224.1 86.25 229.35 89.25 235.7 90.65 238.8 91.95 246.9 92.2533203125 248.00859375 92.65 249
L 157.55 249
Q 157.9466796875 248.00859375 158.25 246.9 159.55 238.8 161 235.7 163.95 229.35 164.4 224.1 164.45 223.75 164.45 213.65 164.45 211.05 162.15 195.1 160.25 181.9 159.5 177.35 157.65 164.2 156.35 158.05 155.65 154.7 154.65 151.8 154.3 150.8 154 149.8 153.75 149.2 153.5 148.65 154.25 145.1 156.95 136.05 157.25 135.05 157.55 133.95 157.7 133.55 157.8 133.2 157.8 133 157.9 132.9 157.95 133 158 133.2 158.3 134.55 158.8 136.05 159.35 138.1 160.05 140.35 161.3 144.3 163.05 149.8 162.55 150.75 162.15 151.8 161.4 153.75 161.15 156.2 161 157.7 161 164.15 161 173.9 166.3 189.25 168.3 195.05 172.9 206.1 172.2 208.95 172.2 212.85 172.2 218.8 175.55 226.35 179.8 235.8 186.25 237.85
L 189.45 237.85
Q 191 236.65 191.45 234.55 191.55 233.75 191.55 230.9 191.55 225.5 191.4 224.1 190.95 221.15 188.9 216.7 189.15 216.35 191.3 217.35
L 194.8 217.35 195.1 216.95
Q 195.15 216.75 195.15 215.4 195.15 214.15 193.3 211.4 193.15 211.2 190.75 207.95 188.15 204.45 186.35 203.45 183.8 202.55 181.45 201.35
L 181.25 201.4
Q 181 200 180.65 198.2 179.65 193.65 179.65 190.7 179.6 186.3 179.55 184 179.45 179.85 179.65 177 180.1 171.1 177.85 162.85 176.35 158.15 175.35 154.85 176.1 153.55 176.6 150.95 176.75 150.4 176.85 149.8 177.1 148 177.1 146.9 177.1 143.5 174.9 129.55 174.4 126.15 173.95 123.6 173.45 120.45 173.15 118.45 173.6 117.75 173.95 117.1 175.2 114.9 175.55 113.5 175.95 112.1 175.95 106.4 175.95 100.5 173.95 95.3 Z"/>
</g>

<g id="Layer2_0_FILL">
<path fill="#8A2B0D" stroke="none" d="
M 145.15 247.9
L 145.45 247.9
Q 145.2798828125 247.68984375 145.1 247.6 145.090625 247.703125 145.15 247.9
M 107 247.9
L 107.35 247.9
Q 107.409375 247.703125 107.4 247.6 107.219921875 247.6900390625 107 247.9
M 130.6 127.95
Q 130.569921875 127.2158203125 130.5 126.55 129.354296875 125.7591796875 128.45 125.15 128.3634765625 125.98984375 128.35 127 128.3 129.05 128.5 132.85 128.5 135.15 128.1 138.45 127.8599609375 140.27421875 127.4 143.7 127.05546875 144.1208984375 126.6 144.55 125.8142578125 145.30390625 124.7 146.1 124.3943359375 146.3248046875 124.1 146.55 122.263671875 147.89296875 120.85 148.9 120.598828125 148.85859375 120.15 148.8
L 119.1 148.6 117.15 148.6
Q 117.15 148.7 116.75 148.85 116.8869140625 149.16953125 120.6 149.1 117.022265625 151.76171875 116.75 152
L 116.9 152.55
Q 120.4783203125 151.341796875 124.1 148.55 124.3748046875 148.36875 124.65 148.15 125.76796875 147.2423828125 126.6 146.4 126.8892578125 146.09765625 127.15 145.8 126.83515625 148.8525390625 126.6 151.7 126.223828125 156.1845703125 126.05 160.15 125.31328125 160.84609375 124 162.05 123.0708984375 162.9173828125 121.85 164.05 117.4 167.75 113.9 168.95
L 115.15 169.2
Q 118.05 168.55 122.6 165.15 123.3556640625 164.5640625 123.95 164 125.2333984375 162.9587890625 125.95 162.1 125.9 164.488671875 125.9 166.7 125.9 168.1119140625 125.9 169.25 125.35859375 169.1091796875 124.75 169.05
L 124.4 169.8
Q 124.5171875 169.944140625 124.6 170.1 124.30625 170.2994140625 124 170.55 122.947265625 171.4146484375 122.15 172.75 119.9 176.65 116.75 179.85 109.65 187.45 108.5 197.85 108.4181640625 198.590625 108.35 199.3 107.3453125 201.20078125 106.4 203.1 106.12734375 203.6720703125 105.85 204.25 105.118359375 205.7595703125 104.5 207.3 104.3294921875 207.716015625 104.15 208.1 102.5662109375 212.2421875 101.65 216.6 101.3181640625 218.33046875 101.05 220.1 99.4818359375 223.1302734375 96.6 229.25 99.2333984375 225.81796875 100.7 223.35 100.525 225.99453125 100.6 228.6 100.2837890625 229.331640625 99.85 230.8 99.1 233.15 98.45 234
L 98.6 234.55
Q 100.1 233.4 100.55 231.45 100.66484375 231.0892578125 100.75 230.6 100.8541015625 231.8873046875 101 233.15
L 100.95 233.2
Q 100.9951171875 233.2564453125 101.05 233.3 101.2013671875 234.387890625 101.4 235.45 101.773828125 237.5345703125 102.2 239.55 102.3326171875 240.0556640625 102.45 240.5 102.621875 241.2830078125 102.8 242 102.889453125 242.3662109375 102.95 242.7 103.658984375 245.328515625 104.45 247.9
L 107 247.9
Q 107.1861328125 244.9705078125 106.9 242.6 107.9005859375 243.6248046875 109 244.25 107.4 242.5 105.4 238.65 105.2359375 238.330859375 105.05 238 104.7912109375 237.5068359375 104.5 237 104.069921875 236.3091796875 103.6 235.65 103.5416015625 235.2080078125 103.45 234.75 102.5 230.15 102.35 225.5 102.3 221.55 103.2 217.55 104.8255859375 210.1849609375 108 203.35 107.508203125 210.0990234375 107.65 216.8 107.78671875 223.221875 109 229.5 109.2318359375 230.6720703125 109.5 231.85 109.88046875 233.5505859375 110.35 235.25 111.9 240.95 111.65 246.95 111.6330078125 247.426171875 111.6 247.9
L 114.95 247.9
Q 114.916796875 244.4482421875 114.6 240.95 113.85 232.95 111.65 225.4 110.55 221.35 110.5 217.05 110.35 208.55 110.95 200.1 111.0353515625 198.878125 111.2 197.7 111.26953125 197.3830078125 111.3 197.05 111.45859375 196.8341796875 111.6 196.6 113.4 193.55 114.1 190.35 114.15 189.95 114.1 189.6 113.51875 190.4939453125 112.95 191.4 113.8900390625 189.0974609375 115.25 186.95 119.3013671875 180.6087890625 124.1 174.7 124.78203125 173.8931640625 125.45 173.1 125.7787109375 172.6861328125 126.1 172.25 126.1263671875 172.4744140625 126.15 172.65 126.31640625 172.5236328125 126.45 172.35 126.762109375 172.7375 127.05 173.1 132.65 179.75 137.25 186.95 138.6091796875 189.0962890625 139.55 191.4 138.98046875 190.492578125 138.4 189.6 138.35 189.95 138.4 190.35 139.1 193.55 140.9 196.6 141.04140625 196.8341796875 141.15 197.05 141.4421875 198.5578125 141.55 200.1 141.6068359375 200.9015625 141.65 201.7 141.6822265625 201.9521484375 141.7 202.2 141.7431640625 202.9396484375 141.75 203.65 142.0642578125 209.2806640625 142 214.9 142.0189453125 215.977734375 142 217.05 141.954296875 220.9849609375 141 224.7 140.943359375 225.05625 140.85 225.4 140.51875 226.5365234375 140.2 227.65 138.537109375 234.154296875 137.9 240.95 137.671484375 243.4720703125 137.6 245.95 137.569921875 246.941015625 137.55 247.9
L 140.85 247.9
Q 140.8669921875 247.425390625 140.85 246.95 140.6 240.95 142.15 235.25 142.40859375 234.313671875 142.65 233.35 142.8845703125 232.4013671875 143.1 231.4 144.6919921875 224.2224609375 144.85 216.8 144.98359375 210.48984375 144.55 204.15 144.5287109375 203.766796875 144.5 203.35 144.850390625 204.1265625 145.15 204.85 147.85390625 210.9982421875 149.3 217.55 150.2 221.55 150.15 225.5 150 230.15 149.05 234.75 148.9583984375 235.2080078125 148.85 235.65 148.1640625 236.6884765625 147.5 237.9 147.2943359375 238.2720703125 147.1 238.65 147.0435546875 238.7587890625 147 238.85 145.0548828125 242.5494140625 143.5 244.25 144.599609375 243.6248046875 145.6 242.6 145.3138671875 244.9701171875 145.45 247.9
L 148 247.9
Q 148.496484375 246.3857421875 148.9 244.85 149.026171875 244.490625 149.1 244.1 149.50546875 242.7544921875 149.85 241.35 149.94375 240.989453125 150 240.6 150.6337890625 238.0494140625 151.1 235.45 151.298828125 234.387890625 151.45 233.3 151.5046875 233.2564453125 151.55 233.2
L 151.45 233.15
Q 151.6458984375 231.887109375 151.75 230.6 151.8349609375 231.0884765625 151.95 231.45 152.4 233.4 153.9 234.55
L 154.05 234
Q 153.4 233.15 152.65 230.8 152.2158203125 229.3306640625 151.85 228.6 151.9748046875 225.9939453125 151.75 223.35 153.2666015625 225.81796875 155.9 229.25 153.01796875 223.1298828125 151.4 220.1 150.9455078125 216.6111328125 150 213.25 149.071875 209.7392578125 147.6 206.35 147.1634765625 205.309375 146.65 204.25 145.459765625 201.7705078125 144.15 199.3 144.0818359375 198.5904296875 144 197.85 142.85 187.45 135.75 179.85 132.6 176.65 130.35 172.75 129.3501953125 171.075390625 127.95 170.15 128.0154296875 169.9916015625 128.05 169.8
L 128.1 169.8 128.1 169.75
Q 128.8734375 167.6166015625 128.9 164.25 128.8849609375 163.930078125 128.85 163.6 129.2265625 164.3451171875 129.7 165.15 131.9 168.75 134.6 170.55
L 134.75 170.2
Q 133.9 168.55 131.2 165.2 130.8205078125 164.7134765625 130.45 164.2 131.143359375 164.944921875 132.15 165.7 134.15 167.25 135.25 166.95 134.25 166.35 130.15 163.25
L 129.9 163.3
Q 129.27578125 162.31640625 128.75 161.25 128.5931640625 156.1525390625 128.75 153.8 128.8 152.4 129.8 144.15 129.82421875 143.933203125 129.85 143.7 130.3529296875 144.6951171875 132.15 146.6 135 149.7 137.1 149.7 138.35 149.7 137.7 149.45 134.2 147.35 132.75 146.45 130.35 144.75 130.15 141.9
L 130.05 141.9
Q 130.65 136.13671875 130.65 133.9 130.65 128.75 130.6 127.95
M 104.35 238.85
Q 104.41953125 239.005078125 104.5 239.15 105.57265625 241.1580078125 106.8 242.5
L 106.4 242.5 106.4 246.35
Q 105.248046875 242.6435546875 104.35 238.85
M 147.75 239.6
Q 147.8751953125 239.3837890625 148 239.15 148.080078125 239.005859375 148.15 238.85 148.0421875 239.3271484375 147.9 239.75 147.8787109375 239.974609375 147.8 240.15 147.7669921875 240.4375 147.7 240.7 146.9712890625 243.5458984375 146.1 246.35
L 146.1 242.5 145.65 242.5
Q 146.65078125 241.4544921875 147.5 240 147.594140625 239.86640625 147.65 239.7 147.709765625 239.6669921875 147.75 239.6
M 187.7 224.65
Q 187.6068359375 225.0080078125 187.5 225.4
L 187.05 225.3 186.55 223.4
Q 186.5220703125 223.75234375 186.45 224.1 187.4736328125 227.1103515625 187.6 228.5 188.2 229 188.5 228.8 188.2759765625 226.9111328125 187.7 224.65
M 181.6 218.35
Q 181.3025390625 217.341015625 181 216.35 181.2158203125 217.7568359375 182.2 222.35 182.96640625 225.737890625 183.25 227.7 183.8783203125 229.67734375 184.5 231.5 184.7 231.4 184.85 231.2 185 231.05 185 230.35 185 230.05 181.6 218.35
M 178.85 210.3
Q 178.85 209.3798828125 178.85 208.5 178.3595703125 206.4455078125 177.95 204.65 177.6400390625 204.331640625 177.35 204 177.189453125 204.5875 176.95 205.1 177.788671875 209.385546875 179.65 215.95 178.85 212.20703125 178.85 210.3
M 179.05 205.7
Q 179.015234375 205.6919921875 178.95 205.65 179.0154296875 205.741796875 179.05 205.8 179.044921875 205.77890625 179.05 205.7
M 175.1 203.2
Q 175.026171875 203.610546875 174.95 204 175.286328125 203.0341796875 175.5 202.15 175.3388671875 202.5189453125 175.1 202.95 175.1158203125 203.0892578125 175.1 203.2
M 175.35 201.25
Q 175.3197265625 201.1693359375 175.3 201.1 175.262890625 201.6140625 175.2 202.05 175.3861328125 201.832421875 175.5 201.6 175.4228515625 201.4158203125 175.35 201.25
M 184.75 216.15
Q 184.188671875 214.78515625 183.55 213.35 182.0861328125 210.106640625 180.95 207.45
L 180.6 207.15
Q 180.2814453125 206.86796875 179.95 206.6 180.0412109375 207.52421875 180.1 208.4 180.951953125 210.4072265625 182 212.8 184.4845703125 218.6130859375 185.85 222.4 185.9255859375 222.073046875 186.05 221.7 186.079296875 221.6205078125 186.1 221.55
L 184.75 216.15
M 185.45 206.75
Q 185.418359375 206.715234375 185.35 206.65 184.0728515625 205.8958984375 182.55 205.1 179.85 203.75 178.65 200.65 178.3421875 199.8677734375 178.05 199.25
L 178.05 199.3
Q 178.05 200.1181640625 177.95 200.9 178.633984375 201.7412109375 179.3 202.45 180.2 203.35 182.2 205.35 183.6564453125 206.951953125 186 208.85 186.5658203125 209.209765625 187.1 209.6
L 186.85 209.8
Q 187.0115234375 210.0140625 187.1 210.2 187.21015625 210.10703125 187.3 210 187.4001953125 209.93984375 187.5 209.85 187.994140625 210.2634765625 188.5 210.7 188.559765625 210.7515625 188.6 210.8 188.5853515625 210.8734375 188.55 210.95 188.35 211.5 188.35 212.15 188.35 213.25 188.45 212.8
L 188.85 212.9
Q 189.04765625 211.9314453125 189.15 211.25 191.8107421875 213.5552734375 191.9 213.6
L 192.1 213.1
Q 190.6693359375 209.960546875 185.45 206.75
M 63.6 224.1
Q 63.528125 223.75234375 63.45 223.4
L 63 225.3 62.55 225.4
Q 62.4427734375 225.006640625 62.35 224.65 61.7740234375 226.9115234375 61.55 228.8 61.85 229 62.45 228.5 62.5763671875 227.1103515625 63.6 224.1
M 67.85 222.35
Q 68.835546875 217.7505859375 69 216.35 68.748046875 217.3390625 68.45 218.35 65.05 230.05 65.05 230.35 65.05 231.05 65.2 231.2 65.35 231.4 65.55 231.5 66.171875 229.676953125 66.8 227.7 67.0837890625 225.7373046875 67.85 222.35
M 70.05 206.6
Q 69.768359375 206.8681640625 69.45 207.15
L 69.1 207.45
Q 67.963671875 210.1068359375 66.5 213.35 65.8615234375 214.7845703125 65.3 216.1
L 63.95 221.55
Q 63.970703125 221.620703125 64 221.7 64.12421875 222.07265625 64.15 222.4 65.565625 218.6125 68.05 212.8 69.09765625 210.408203125 69.9 208.4 70.00859375 207.525 70.05 206.6
M 72.1 204.65
Q 71.68984375 206.4458984375 71.15 208.5 71.2 209.378125 71.2 210.3 71.2 212.2048828125 70.4 215.95 72.3630859375 209.0232421875 73.15 204.65 72.9900390625 204.26796875 72.85 203.85 72.502734375 204.2365234375 72.1 204.65
M 71.05 205.65
Q 71.034375 205.692578125 71 205.7 71.005078125 205.77890625 71 205.8 71.034375 205.7421875 71.05 205.65
M 74.75 201.1
Q 74.73046875 201.169140625 74.7 201.25 74.64296875 201.3798828125 74.55 201.5 74.6083984375 201.6587890625 74.65 201.8 74.733984375 201.9361328125 74.8 202.05 74.787109375 201.613671875 74.75 201.1
M 72.15 200.8
Q 72.05703125 200.0265625 72 199.2 71.7169921875 199.84453125 71.4 200.65 70.2 203.75 67.5 205.1 65.9775390625 205.895703125 64.7 206.65 64.6310546875 206.715625 64.55 206.75 59.380859375 209.9599609375 57.95 213.1
L 58.15 213.6
Q 58.239453125 213.5552734375 60.85 211.25 61.0013671875 211.9271484375 61.2 212.9
L 61.6 212.8
Q 61.7 213.25 61.7 212.15 61.7 211.5 61.5 210.95 61.4646484375 210.8736328125 61.4 210.8 61.490234375 210.7515625 61.55 210.7 62.055859375 210.2634765625 62.55 209.85 62.649609375 209.9396484375 62.75 210 62.8421875 210.109765625 62.9 210.2 63.041796875 210.0134765625 63.15 209.8
L 62.9 209.6
Q 63.4896484375 209.202734375 64.05 208.85 66.39765625 206.94765625 67.85 205.35 69.85 203.35 70.75 202.45 71.457421875 201.696875 72.15 200.8
M 84.75 154.8
Q 85.001953125 155.619140625 85.3 156.6 85.6865234375 157.9349609375 85.8 160 85.85 158.9208984375 85.85 157.85 85.85 155.9390625 85.35 153.35 85.1087890625 154.1478515625 84.75 154.8
M 81.3 150.2
Q 81.31640625 150.068359375 81.3 149.9 81.11171875 150.2314453125 80.9 150.6 81.0515625 150.475390625 81.2 150.35 81.2685546875 150.2916015625 81.3 150.2
M 83.5 133.65
Q 82.759375 134.670703125 82.15 135.35 81.6576171875 137.78046875 81.45 139.9 82.413671875 139.1923828125 83.1 138.5 83.2072265625 138.2521484375 83.3 137.95 83.5849609375 136.101171875 84 133.9 84.0056640625 133.4677734375 83.95 133 83.7607421875 133.30234375 83.5 133.65
M 83.95 132.85
Q 83.9423828125 132.103125 83.9 131.3 83.8380859375 130.1427734375 83.75 129.15 83.1892578125 131.4982421875 82.4 134.35 82.301953125 134.7689453125 82.2 135.15 83.1681640625 134.102734375 83.65 133.35 83.821484375 133.106640625 83.95 132.85
M 85.2 115.05
Q 85.219921875 113.255078125 85.15 112.45 85.096484375 112.1552734375 84.45 110.95 84.5048828125 112.8671875 85.2 115.05
M 123.2 110.75
Q 123.65 110.2 124.15 109.6 123.65 109.8 123.1 109.8
L 116.75 109.65 115.85 108.7 115.65 108.9
Q 115.65 108.7 115.65 108.55
L 115.4 108.3
Q 115.1 108.35 114.85 108.55 115.2 108.9 115.75 109.15
L 115.5 109.8 114.9 109.9
Q 114.4 109.8 113.95 109.65 113.9 109.9 113.9 110.15 113.9 110.9 115.2 112.7 116.95 111.95 120.1 112.15 120.15078125 112.16328125 120.2 112.15 120.508984375 112.2619140625 120.75 112.35 121.2435546875 112.5548828125 121.55 112.8 121.6 112.65 121.7 112.45 122.05 112.15 122.4 111.75 121.665234375 111.7205078125 121 111.7 120.59140625 111.6705078125 120.2 111.65 117.3376953125 111.4751953125 117.15 111.25 117.65 110.9 117.65 110.75
L 123.2 110.75
M 76.9 195.1
Q 77.05 195.0158203125 77.05 194.95 77.0232421875 194.919140625 77 194.9 76.961328125 194.993359375 76.9 195.1
M 75.6 183
Q 75.475390625 183.4001953125 75.2 183.75 75.01640625 184.2923828125 74.85 184.75 73.1162109375 189.0841796875 72.55 194.4 73.287890625 192.0376953125 74.85 189.65 74.8873046875 189.3115234375 74.9 189 74.9974609375 189.1556640625 75.1 189.3 75.334765625 188.9515625 75.55 188.6 75.34765625 188.19921875 75.2 187.75 75.55234375 186.7669921875 76.4 185.35 76.0328125 184.3529296875 75.6 183
M 73.45 179.8
Q 73.45 180.5 73.6 180.5 73.65 180.5 73.85 180.5 74.2384765625 180.16328125 74.65 179.5 74.3736328125 178.3935546875 74.15 177.4 73.45 178.9154296875 73.45 179.8
M 80.75 156.3
Q 80.836328125 156.213671875 80.9 156.1 80.8744140625 155.23515625 80.75 154.35 81.2580078125 153.3169921875 81.65 152.45 81.5318359375 151.7314453125 81.4 151 80.8671875 151.457421875 80.3 151.75 77.7474609375 156.803515625 77.5 157.15 75.45 160.5 75 162.8 74.7615234375 163.849609375 74.75 167.35 75.1958984375 165.761328125 75.85 164.15 75.948828125 163.902734375 76.05 163.65 76.05 163.4564453125 76.05 163.25 77.95 159.85 79.75 156.3 79.951171875 155.90859375 80.15 155.5
L 80.1 156.3
Q 80.1 156.68359375 80.1 157 80.4220703125 156.6388671875 80.75 156.3
M 80.6 129.2
Q 80.6 130.25 80.95 129.7 82.707421875 128.6697265625 83.6 127.1 83.4259765625 125.3310546875 83.2 124.7 82.830078125 125.8294921875 81.85 127.1 80.6 128.7 80.6 129.2
M 79.5 144.65
L 80.55 144.9
Q 80.975 144.8392578125 81.3 144.75 81.6126953125 142.6728515625 82.4 140.3 81.99921875 140.56953125 81.35 140.9 81.3 141.839453125 81.3 142.7 81.3 143.154296875 81.35 143.8 81.2673828125 143.8431640625 81.15 143.9 79.65 144.65 79.5 144.65
M 80.3 119.9
Q 80.5 121.25 80.4 122 80.4 123.85 79.3 124.7 78.1 125.65 78.1 125.8 78.1 126.85 78.85 126.35 80.4 125.6 80.85 125.15 81.45 124.45 81.45 123.05 81.45 122.742578125 81.2 121.1 80.6634765625 120.2609375 80.25 119.55 80.2765625 119.7181640625 80.3 119.9
M 160.25 91.5
Q 158.5427734375 90.5208984375 157.4 89.8 156.5544921875 89.9244140625 155.65 90.15 156.5431640625 90.7302734375 157.35 91.35 159.6357421875 91.554296875 160.95 91.9 160.60390625 91.703125 160.25 91.5
M 143.95 123.4
Q 143.95 123.05 143.95 122.75 143 123.75 140.45 124.9 139.7 125.9 139.7 124.65 139.7 124.4 140.8 123.9
L 139.7 123.8 139.95 123.4
Q 142.45 123 143.25 122.2 143.5 121.85 143.6 121.45 142.8 118.65 139.65 116.1 135.6 112.75 135.35 107.8 135 107.4 134.5 106.9
L 132.15 106.8 131.95 106.65
Q 131.9 106.6 131.9 105.95 131.6 105.85 131.4 105.75 131.25 105.7 131.05 105.3 131.6 104.9 132.35 104.55 132.4 104.4 132.5 104.2 133.15 103.15 133.15 102.5 133.15 101.8 133 101.4
L 132.9 101.2
Q 131.35 100.95 130.65 100.7 130.15 101.2 129.9 101.55 129.6779296875 101.78671875 129.45 102.1 129.001953125 102.853125 128.65 104.05 128.4044921875 104.94140625 128.2 105.65 127.6353515625 107.66796875 127.45 108.15 126.35 111 124.5 112.75
L 124.45 112.75
Q 123.1 114 123.1 116.3 123.1 119.97578125 128.85 123.35 129.47734375 123.694140625 130.15 124.05 130.389453125 124.1689453125 130.65 124.3 134.45 126.2 138.4 127.25 141.75 127.25 143.2 125.4 143.85 124.45 143.95 123.4
M 130.35 119.65
Q 128.8 118.25 128.3 117.7 128.55 117.6 128.55 117.45 129.4 117.65 130.6 118.4 131.9 119.25 132.4 120.2 133.05 121.5 133.9 122.25 135.2 123.35 137.6 123.9 137.85 124.15 138.7 124.8 137.25 124.6 134.95 123.6 132.35 122.5 131.75 121.45 131.2 120.4 130.35 119.65
M 132.65 65.1
Q 132.65 64.36328125 132.6 63.7 132.565234375 65.0119140625 132.5 66.75 132.65 65.6330078125 132.65 65.1
M 131.9 59.55
L 131.85 59.55
Q 131.6 59.15 130.4 57.25 129.8888671875 56.3439453125 129.6 55.7 129.3623046875 55.6224609375 129.1 55.55
L 128.8 55.9 129.75 57.5
Q 130.4 58.65 130.55 59.35 130.55 59.8 130.85 61.05 130.9064453125 61.2984375 130.95 61.5
L 130.95 61.35
Q 130.95 60.8841796875 131.9 59.55
M 134.05 58.75
Q 132.9 60.6 132.85 61.1 132.76796875 61.67421875 132.7 62.5 134.4908203125 60.9013671875 134.55 57.9 134.3365234375 58.2943359375 134.05 58.75
M 98.95 91.5
L 98.45 91.5
Q 98.2 93.3 97.8 100.55 97.45 106.35 96.65 109.85 95.55 114.85 92.7 120.05 91.9341796875 121.4568359375 91.45 122.95 91.45 121.5345703125 91.45 119.5 91.45 116.511328125 91.6 114.45 92.155859375 114.9248046875 93 115.15
L 93.15 114.9
Q 92.324609375 113.891015625 91.7 113.1 92.0119140625 110.2642578125 92.45 108.3 92.66953125 108.91953125 93.55 109.8 94.05 110.25 94.75 110.75 95.35 110.7 95.35 110.4 93.65 108 93.4 107.6 93.1330078125 107.1603515625 92.9 106.65 94.3 102.1802734375 94.3 100.55 94.3 99.85 94.5 99.05 94.76640625 98.2951171875 94.8 97.8 96.423046875 94.1208984375 98.45 91.5 102.95 85.65 110.25 83.55
L 112.8 83.55
Q 110.2228515625 82.55 107.5 82.55 106.3267578125 82.55 104.85 82.9 104.1919921875 83.3060546875 103.5 83.75 98.9693359375 86.60625 96.1 90.75 94.290234375 90.0080078125 92.6 89.85 92.3720703125 89.98984375 92.1 90.15 91.5740234375 90.76953125 90.95 91.55 91.7818359375 91.4341796875 92.75 91.35 94.9240234375 91.1759765625 95.85 91.05 93.4888671875 94.5625 92.9 98 92.1140625 98.3701171875 90.7 99.1 87.124609375 100.8876953125 85.3 101.05
L 86.3 101.2 87.65 101.2
Q 90.15 100.9 91.75 99.55 92.358984375 98.941015625 92.85 98.5 92.75 99.3318359375 92.75 100.15 92.75 100.48984375 92.8 100.7 92.6763671875 100.971484375 92.55 101.25 92.06640625 101.490625 90.3 102.5 88.05 103.8 87.8 103.95
L 87.9 104.05
Q 88.1 104.2 88.8 104.2 91.656640625 102.3607421875 92.4 101.55 92.146875 102.330078125 91.9 103.2 91.6 104.25 90.55 109.85 90.464453125 110.2892578125 90.35 110.8 90.0107421875 111.0599609375 89.55 111.4 87.5 112.9 87.35 113.05 88.3 112.95 89.9 111.9 90.032421875 111.8103515625 90.15 111.7 90.189453125 111.827734375 90.2 111.9 89.7416015625 115.7794921875 89.55 122.6 89.95 126.85 88.25 135.45 88.226953125 135.5654296875 88.2 135.65
L 88 132.35
Q 87.4431640625 133.9865234375 86.5 136 86.7525390625 140.3482421875 86.95 142.95 86.523046875 146.30078125 86.6 148.25 87.0828125 155.853125 85.85 161.8 85.85 161.877734375 85.85 161.95 85.85 163.75 85.75 165.85 85.75 166.6880859375 85.05 170.7 90.350390625 158.409765625 88.8 150.7 88.3 148.3 88.8 144.5 89.55 140.15 89.85 138.25 90.7166015625 133.30703125 91.1 129.55 92.39375 125.5115234375 96.75 115.3 99.45 109.05 99.45 100.45 99.45 95.95 98.95 91.5
M 82.3 95.7
Q 84.0884765625 93.3587890625 86.75 91.15 85.1681640625 92.1681640625 83.7 93.85 81.42265625 96.4119140625 80.3 98.9 81.1634765625 97.1892578125 82.3 95.7
M 84.15 148.25
Q 83.6490234375 146.4080078125 83.35 145.1 83.2 146.1794921875 83.2 147.1 83.2 149.6787109375 83.6 151.2 84.17890625 149.4791015625 84.15 148.25
M 84.15 141.85
Q 84.124609375 141.943359375 84.1 142 84.1251953125 142.0630859375 84.15 142.1
L 84.15 141.85
M 74.1 197.9
Q 74.4451171875 197.3431640625 74.7 196.65 74.7439453125 195.578515625 74.75 195.05 74.221875 196.52578125 74.1 197.9
M 83.65 164.85
Q 83.6255859375 165.0962890625 83.6 165.35 83.4873046875 166.4681640625 83.35 167.45 83.425390625 167.6087890625 83.45 167.75 83.65 166.4810546875 83.65 165.65 83.65 165.228515625 83.65 164.85
M 80.4 164.8
Q 80.6654296875 164.1611328125 80.95 163.5 81.597265625 162.0306640625 82.1 160.85 82.1306640625 160.87421875 82.15 160.9
L 82.3 160.65
Q 82.265234375 160.5998046875 82.2 160.55 82.8421875 159.141015625 83.25 158.15 83.1326171875 157.5443359375 82.95 157 82.7900390625 157.17578125 82.6 157.35 82.17265625 158.2482421875 81.55 159.45 81.3998046875 159.1064453125 81.25 158.75 81.0865234375 158.99296875 80.9 159.2 81.1052734375 159.4939453125 81.35 159.85 80.571484375 161.491796875 79.5 163.65 77.155859375 168.6630859375 76.5 171.5 76.3345703125 170.226953125 76.2 168.75 76.142578125 169.365234375 76.05 170.05 75.65 173.4 75.65 174.1 75.65 176.6224609375 78 182.85 78.33203125 182.402734375 78.7 181.9 80.1935546875 179.8044921875 81.15 178.3 81.6060546875 176.6923828125 82.15 174.4 82.9791015625 170.91796875 83.35 168.6 83.312109375 168.5052734375 83.25 168.4 83.1974609375 169.04296875 83.1 169.6 81.8962890625 172.1365234375 80.15 174.95 78.7083984375 177.2353515625 77.6 179.1 77.46171875 176.93046875 77.1 174.9 77.488671875 172.65625 78.55 169.45 78.7994140625 171.03671875 80.25 171.25 80.1 170.5 79.6 168.95 79.356640625 168.2640625 79.2 167.75 79.5935546875 166.7521484375 80.05 165.65 80.7115234375 167.096875 81.55 167.6 81.95 167.4 81.95 167.15 81.9 166.75 81.05 165.7 80.5970703125 165.1564453125 80.4 164.8
M 84.75 119.95
Q 84.291796875 119.055078125 83.9 118.1 83.94140625 118.8095703125 83.95 119.6 83.9587890625 120.1982421875 84 120.75 85.196484375 123.26640625 85.65 125.05 86.180078125 127.2962890625 86.25 130.9 86.95 128.8208984375 86.95 127.65 86.95 126.4125 86.65 125.1 85.8986328125 122.77734375 85.6 121.7 85.22578125 120.84765625 84.75 119.95
M 82.85 114.3
Q 82.746875 113.459765625 82.65 112.6 82.358984375 113.2328125 81.9 113.95 81.446484375 114.623828125 81.1 115.2 81.266796875 115.56171875 81.45 115.9 81.863671875 115.1390625 82.6 114.55 82.751171875 114.4203125 82.85 114.3
M 80.8 103.65
Q 80.8 103.2671875 80.85 102.8 80.36640625 104.4462890625 80.1 106.2 80.577734375 107.169921875 81.35 108.3 82.0826171875 109.3814453125 82.6 110.4 82.6009765625 108.851171875 82.6 107.65 80.8 104.4392578125 80.8 103.65
M 117.5 65.1
Q 117.5 65.6328125 117.6 66.75 117.584765625 65.0111328125 117.5 63.7 117.5 64.3625 117.5 65.1
M 120.55 55.7
Q 120.2611328125 56.3439453125 119.75 57.25 118.55 59.15 118.3 59.55
L 118.25 59.55
Q 119.2 60.8841796875 119.2 61.35
L 119.2 61.5
Q 119.2435546875 61.2978515625 119.3 61.05 119.6 59.8 119.6 59.35 119.75 58.65 120.4 57.5
L 121.35 55.9 121.05 55.55
Q 120.787890625 55.6224609375 120.55 55.7
M 116.1 58.75
Q 115.8134765625 58.294140625 115.6 57.9 115.6591796875 60.9013671875 117.45 62.5 117.38203125 61.67421875 117.3 61.1 117.25 60.6 116.1 58.75
M 116.55 47.5
Q 116.5005859375 47.7109375 116.45 47.9 116.628515625 48.528125 116.7 48.85 117 50.3 116.8 53.1 116.65 55.95 116.9 57.3 116.9384765625 57.6841796875 117.6 58.7 117.4623046875 57.551953125 117.5 56.2 117.65 51.55 117.5 50.9 117.4287109375 50.555859375 117.35 50.2 117.397265625 50.1830078125 117.45 50.15 118.95 46.5 118.85 45.85 118.45 46.1 117.7 47.8 117.437109375 48.45703125 117.1 49.25 116.8654296875 48.3953125 116.55 47.5
M 113.55 44.4
Q 113.6658203125 44.9978515625 113.8 45.65 113.8724609375 46.0841796875 114.4 47.4 114.065625 46.038671875 113.55 44.4
M 114.45 40.7
Q 114.353515625 40.9716796875 114.25 41.2 114.592578125 42.2072265625 114.9 43.05 114.5486328125 41.8884765625 114.45 40.7
M 117.3 39.05
Q 117.3 38.4 117.15 38.45
L 116.9 38.65
Q 115.4 40.05 115.1 41.9 114.99765625 42.3349609375 114.95 43.2 115.4134765625 44.6216796875 115.75 45.7 115.901171875 45.2828125 116.1 44.8 116.1251953125 44.7296875 116.15 44.65 116.15 44.55625 116.15 44.45 116.15 43.8 116.75 41.7 117.3 39.65 117.3 39.05
M 115.85 28.15
Q 115.2478515625 28.6919921875 114.5 29.25 114.1044921875 30.5958984375 113.85 31.7 114.43359375 31.31875 114.9 31 114.8359375 31.078125 114.8 31.15 114.2630859375 31.7943359375 113.75 32.25 113.55 33.4154296875 113.55 34.3 113.55 34.39296875 113.55 34.5 113.4966796875 34.617578125 113.45 34.75 113.20625 35.5158203125 113.1 37.75 113.4818359375 38.9408203125 113.95 40.3 114.251171875 39.6501953125 114.5 39.1 114.640234375 37.369140625 115.4 35.25 116.45 32.3 117.95 30.65 116.1240234375 31.4361328125 115 32.45 115.1984375 31.1646484375 115.7 30.25 116.234765625 29.2951171875 117 27.15 116.401953125 27.6361328125 115.85 28.15
M 119.6 21.5
L 119.35 21.25
Q 117.5 21.25 115.4 26.75 115.1650390625 27.372265625 114.95 27.95 115.1501953125 27.7841796875 115.35 27.6 116.46328125 26.672265625 117.35 26.15 117.465234375 25.9431640625 117.55 25.7 118.55 22.9 119.6 21.5
M 133.7 47.85
Q 133.661328125 47.6939453125 133.6 47.45 133.2859375 48.3900390625 133.05 49.25 132.7126953125 48.4568359375 132.45 47.8 131.7 46.1 131.3 45.85 131.2 46.5 132.7 50.15 132.75234375 50.1828125 132.8 50.2 132.7212890625 50.555859375 132.65 50.9 132.5 51.55 132.65 56.2 132.6876953125 57.5525390625 132.5 58.7 133.2115234375 57.684375 133.25 57.3 133.5 55.95 133.35 53.1 133.15 50.3 133.45 48.85 133.5220703125 48.52578125 133.7 47.85
M 136.35 45.65
Q 136.4845703125 44.99609375 136.6 44.35 136.084765625 46.037109375 135.75 47.4 136.2775390625 46.0841796875 136.35 45.65
M 135.25 43
Q 135.563671875 42.175 135.9 41.2 135.796484375 40.971484375 135.65 40.7 135.602734375 41.8591796875 135.25 43
M 133 38.45
Q 132.85 38.4 132.85 39.05 132.85 39.65 133.4 41.7 134 43.8 134 44.45 134 44.5560546875 134 44.65 134.024609375 44.729296875 134.05 44.8 134.250390625 45.28671875 134.4 45.7 134.7369140625 44.6375 135.2 43.25 135.153515625 42.33984375 135.05 41.9 134.75 40.05 133.25 38.65
L 133 38.45
M 133.1 27.15
Q 133.914453125 29.29375 134.45 30.25 134.9515625 31.1646484375 135.15 32.45 134.02578125 31.4361328125 132.2 30.65 133.7 32.3 134.75 35.25 135.5095703125 37.36875 135.65 39.1 135.8986328125 39.6498046875 136.2 40.3 136.6705078125 38.9453125 137 37.75 136.944140625 35.5169921875 136.7 34.75 136.653515625 34.6181640625 136.6 34.5 136.6 34.393359375 136.6 34.3 136.6 33.4091796875 136.35 32.25 135.8826171875 31.7890625 135.35 31.15 135.3142578125 31.0787109375 135.25 31 135.7146484375 31.317578125 136.25 31.7 136.044140625 30.591796875 135.6 29.25 134.9025390625 28.6923828125 134.3 28.15 133.74453125 27.6328125 133.1 27.15
M 130.8 21.25
L 130.55 21.5
Q 131.6 22.9 132.6 25.7 132.6845703125 25.942578125 132.75 26.15 133.68671875 26.672265625 134.8 27.6 135 27.784375 135.2 27.95 134.9849609375 27.3724609375 134.75 26.75 132.65 21.25 130.8 21.25
M 173 194.95
Q 173 195.0158203125 173.1 195.1 173.088671875 194.993359375 173.05 194.9 173.0267578125 194.919140625 173 194.95
M 174.4 183.05
Q 174.0169921875 184.356640625 173.65 185.35 174.4982421875 186.768359375 174.85 187.75 174.58671875 188.5318359375 174.1 189.25 174.6078125 189.973046875 175.15 190.75 175.191796875 190.810546875 175.2 190.85 175.037890625 190.017578125 174.8 189.5 175.0044921875 189.2318359375 175.1 189 175.221875 189.7568359375 175.3 190.95 176.9205078125 193.36953125 177.55 195.8 177.1583984375 189.6458984375 175.2 184.75 175.0333984375 184.2921875 174.8 183.75 174.5701171875 183.40390625 174.4 183.05
M 176.45 180.5
Q 176.6 180.5 176.6 179.8 176.6 178.915234375 175.85 177.4 175.6763671875 178.3931640625 175.4 179.5 175.8115234375 180.16328125 176.2 180.5 176.4 180.5 176.45 180.5
M 164.75 158.85
Q 165.3748046875 156.8453125 165.75 155.6 165.1103515625 154.6443359375 164.65 153.35 164.2 155.940234375 164.2 157.85 164.2 159.5064453125 164.3 161.25 164.4533203125 159.84765625 164.75 158.85
M 168.65 153.05
Q 168.966796875 153.672265625 169.3 154.35 169.1755859375 155.2341796875 169.1 156.1 169.2138671875 156.2138671875 169.3 156.3 169.6279296875 156.6388671875 169.95 157 169.95 156.68359375 169.95 156.3
L 169.9 155.55
Q 170.0998046875 155.910546875 170.3 156.3 172.1 159.85 174 163.25 174 163.4564453125 174 163.65 174.101171875 163.902734375 174.2 164.15 174.8541015625 165.761328125 175.3 167.35 175.2884765625 163.849609375 175.05 162.8 174.6 160.5 172.55 157.15 172.3025390625 156.803515625 169.75 151.75 169.2984375 151.5189453125 168.85 151.15 168.7966796875 152.128515625 168.65 153.05
M 168.9 150.35
Q 169.0177734375 150.47578125 169.1 150.55 169.012109375 150.3552734375 168.9 150.15 168.896875 150.2681640625 168.9 150.35
M 168.7 140.9
Q 167.794921875 140.4236328125 167.3 140.1 166.7005859375 139.704296875 166.2 139.3 166.183203125 139.4404296875 166.1 139.55 166.420703125 140.188671875 166.65 140.75 166.8517578125 140.459765625 166.95 140.15 167.048828125 140.9849609375 167.05 141.7 167.9220703125 143.76796875 168.35 145.6 168.47421875 145.1197265625 168.55 144.7 168.95390625 144.8220703125 169.5 144.9
L 170.55 144.65
Q 170.4 144.65 168.9 143.9 168.7849609375 143.8443359375 168.65 143.8 168.75 143.15390625 168.75 142.7 168.75 141.83984375 168.7 140.9
M 166.55 133.65
Q 166.288671875 133.3017578125 166.05 133 166.044140625 133.4560546875 166 133.9 166.485546875 136.2029296875 166.75 138.15 166.72578125 138.2037109375 166.7 138.25 167.4478515625 139.05390625 168.6 139.9 168.3931640625 137.7830078125 167.85 135.35 167.290234375 134.6703125 166.55 133.65
M 166.15 131.3
Q 166.1076171875 132.106640625 166.05 132.85 166.228515625 133.1064453125 166.4 133.35 166.881640625 134.1025390625 167.8 135.15 167.7478515625 134.768359375 167.65 134.35 166.86015625 131.4966796875 166.25 129.15 166.212109375 130.14140625 166.15 131.3
M 169.1 129.7
Q 169.45 130.25 169.45 129.2 169.45 128.7 168.2 127.1 167.2197265625 125.829296875 166.8 124.7 166.6216796875 125.325390625 166.45 127.05 167.3412109375 128.6689453125 169.1 129.7
M 169.8 119.55
Q 169.3845703125 120.2578125 168.8 121.1 168.6 122.742578125 168.6 123.05 168.6 124.45 169.2 125.15 169.65 125.6 171.2 126.35 171.95 126.85 171.95 125.8 171.95 125.65 170.75 124.7 169.65 123.85 169.65 122 169.55 121.25 169.75 119.9 169.773828125 119.71484375 169.8 119.55
M 164.9 112.45
Q 164.8 113.6 164.85 116.8 164.85 117.85625 164.8 118.7 165.6 116.4126953125 165.6 114.4 165.6 112.4587890625 165.55 111 164.95234375 112.1619140625 164.9 112.45
M 168.6 115.9
Q 168.7833984375 115.561328125 168.95 115.2 168.603515625 114.623828125 168.15 113.95 167.7421875 113.312890625 167.45 112.75 167.45 113.5802734375 167.45 114.55 168.1861328125 115.1388671875 168.6 115.9
M 162.15 104.05
L 162.25 103.95
Q 162 103.8 159.75 102.5 157.970703125 101.483203125 157.45 101.25 156.81796875 99.6259765625 155.9 98.5 155.191015625 96.9298828125 154.05 95.35 152.9970703125 93.843359375 151.7 92.5 151.653125 91.882421875 151.6 91.5
L 151.1 91.5
Q 151.080078125 91.6775390625 151.05 91.85 149.058203125 89.9267578125 146.55 88.4 145.863671875 87.9748046875 145.2 87.6 142.0462890625 85.8919921875 139.15 85.45 138.526171875 85.338671875 137.9 85.3 133.35 85.1 131.1 88 128.535546875 90.0205078125 126.45 93.05 126.3548828125 92.9337890625 126.25 92.8 126.852734375 92.003125 127.6 91 130.05 87.7 130.65 85.85 131.3 84.05 131.35 80.5 131.3 76.7 131.4 75.25 131.50859375 74.51953125 131.6 73.85
L 131.6 73.8
Q 130.95 70.75 130.95 65.35
L 130.95 65
Q 130.812890625 66.04609375 130.55 67.05 129.8 69.9 129.55 72.15 129.3 73.95 129.4 76.8
L 129.55 81.45
Q 129.55 86.619921875 125.2 91.3 123.485546875 88.041796875 121.35 85.65 120.6 83.59140625 120.6 81.45
L 120.75 76.8
Q 120.85 73.95 120.6 72.15 120.35 69.9 119.6 67.05 119.3373046875 66.0466796875 119.2 65
L 119.2 65.35
Q 119.2 70.75 118.55 73.8
L 118.55 73.85
Q 118.64140625 74.5201171875 118.75 75.25 118.85 76.7 118.8 80.5 118.82265625 82.1138671875 118.95 83.35
L 118.95 83.35
Q 118.138671875 82.2501953125 117 81.55
L 116.9 82.2 116.45 82.3
Q 116.368359375 81.71484375 116.3 81.2 114.5494140625 80.4181640625 112.15 80.55 111.55625 80.58671875 110.95 80.65 111.744140625 80.8376953125 112.65 81.05 114.65 82 116.75 83.55 119 85.1 120.3 86.7 123.4314453125 90.40078125 124.65 91.9 124.0876953125 92.564453125 123.55 93.2 122.234375 91.15703125 120.75 89.45 122.1708984375 91.3919921875 123.3 93.55 120.55 97.1953125 120.55 100.15 120.55 101.5533203125 121 104.85 121.0296875 105.0974609375 121.05 105.3 121.030078125 105.4515625 121 105.55 120.64296875 107.030859375 120.45 108.4 121.5177734375 108.3763671875 122.3 108.3 124.13203125 103.6755859375 125.35 100.8 125.615234375 100.1716796875 125.9 99.55 126.55859375 101.2599609375 127.3 103.3 127.4197265625 103.100390625 127.5 102.9 127.7423828125 102.2845703125 128 101.75 127.28359375 99.9947265625 126.5 98.35 127.0654296875 97.270703125 127.7 96.2 128.8755859375 98.371875 129.05 100
L 129.05 100.4
Q 129.3126953125 100.1833984375 129.6 100 129.5517578125 97.924609375 128.15 95.5 128.6966796875 94.6943359375 129.25 93.9 131.684375 90.7009765625 134.9 88.2
L 137.25 88.2 139.8 88.2
Q 146.459765625 90.0701171875 150.8 94.9 150.6 97.683984375 150.6 100.45 150.6 109.05 153.3 115.3 157.655859375 125.5103515625 158.95 129.55 159.333203125 133.30625 160.2 138.25 160.5 140.15 161.25 144.5 161.75 148.3 161.25 150.7 159.775 158.0349609375 164.5 169.5 164.3 168.226171875 164.3 167.8 164.2 165.75 164.2 164 164.2 162.967578125 164.25 162.05 162.9560546875 156.028515625 163.45 148.25 163.526953125 146.30234375 163.1 143 163.2337890625 141.2037109375 163.35 138.6 162.4498046875 136.6333984375 161.85 135
L 161.85 135.65
Q 161.8232421875 135.566015625 161.8 135.45 161.629296875 134.5861328125 161.45 133.75 161 132.1009765625 161 130.95
L 161 130.9
Q 160.2142578125 125.6359375 160.5 122.6 160.3083984375 115.779296875 159.8 111.9 159.860546875 111.827734375 159.9 111.7 160.017578125 111.8103515625 160.15 111.9 161.75 112.95 162.7 113.05 162.55 112.9 160.5 111.4 160.0390625 111.059765625 159.65 110.8 159.585546875 110.2892578125 159.5 109.85 158.45 104.25 158.15 103.2 157.899609375 102.317578125 157.6 101.55 158.358203125 102.3380859375 161.25 104.2 161.95 104.2 162.15 104.05
M 124.65 94.95
Q 125.1353515625 94.33671875 125.85 93.35 125.9498046875 93.508984375 126.05 93.65 125.4888671875 94.5216796875 124.95 95.45 124.82734375 95.2177734375 124.65 94.95
M 123.85 96.15
Q 123.881640625 96.0708984375 124.25 95.5 124.4255859375 95.8736328125 124.55 96.2 123.858984375 97.5716796875 123.2 99.05 123.110546875 99.3296875 123 99.6 122.462109375 100.8869140625 122 102.1 122.0623046875 101.8220703125 122.1 101.55 122.1447265625 101.128125 122.2 100.7 122.62890625 97.9814453125 123.85 96.15
M 156.5 105.3
Q 156.609375 105.258984375 156.7 105.2 156.89296875 105.895703125 157.1 106.65 156.916796875 107.160546875 156.65 107.6 156.4 108 154.7 110.4 154.7 110.7 155.3 110.75 156 110.25 156.5 109.8 157.38046875 108.91953125 157.6 108.3 158.0380859375 110.2642578125 158.3 113.1 157.725390625 113.8912109375 156.9 114.9
L 157.05 115.15
Q 157.8939453125 114.925 158.45 114.45 158.6 116.5115234375 158.6 119.5 158.6 121.5341796875 158.6 122.95 158.115625 121.456640625 157.35 120.05 154.5 114.85 153.4 109.85 152.6 106.35 152.25 100.55 152.120703125 98.20703125 152 96.4 154.642578125 99.9599609375 156.5 105.3
M 162.7 101.2
Q 162.465625 100.798046875 162.2 100.35 160.9580078125 99.9041015625 159.35 99.1 156.25 97.5 156.05 97.7 156.85 98.1 158.3 99.55 159.9 100.9 162.4 101.2
L 162.7 101.2
M 169.15 102.8
Q 169.25 103.265234375 169.25 103.65 169.25 104.46171875 167.3 107.8 167.3427734375 107.88828125 167.35 107.95 167.4021484375 108.67890625 167.4 110.45 167.9525390625 109.403515625 168.7 108.3 169.4720703125 107.1701171875 169.95 106.2 169.6853515625 104.44140625 169.15 102.8
M 163.2 91.15
Q 165.946484375 93.3390625 167.75 95.7 168.886328125 97.1888671875 169.7 98.9 168.6271484375 96.41171875 166.35 93.85 164.8595703125 92.1427734375 163.2 91.15
M 175.3 196.1
Q 175.32578125 196.3673828125 175.3 196.65 175.529296875 197.1423828125 175.75 197.55 175.59921875 196.8646484375 175.3 196.1
M 166.45 165.35
Q 166.424609375 165.097265625 166.4 164.85 166.4 165.827734375 166.4 167.6 166.4 167.8732421875 166.4 168.2 166.55234375 167.80078125 166.65 167.45 166.5626953125 166.468359375 166.45 165.35
M 168.75 158.75
Q 168.6486328125 159.109375 168.45 159.45 167.9865234375 158.46796875 167.6 157.7 167.4609375 158.127734375 167.3 158.55 167.219140625 158.7580078125 167.15 158.95 167.446484375 159.6865234375 167.8 160.55 167.7818359375 160.6041015625 167.75 160.65
L 167.9 160.9
Q 167.9234375 160.86875 167.95 160.85 168.4513671875 162.027734375 169.1 163.5 169.3849609375 164.16171875 169.65 164.8 169.4517578125 165.1578125 169 165.7 168.15 166.75 168.1 167.15 168.1 167.4 168.5 167.6 169.3369140625 167.0978515625 170 165.65 170.4484375 166.7650390625 170.8 167.8 170.69140625 168.26953125 170.45 168.95 169.95 170.5 169.8 171.25 171.2408203125 171.0380859375 171.45 169.5 172.5609375 172.66328125 172.95 174.9 172.5890625 176.9326171875 172.4 179.1 171.341796875 177.2357421875 169.9 174.95 168.1537109375 172.136328125 166.9 169.6 166.8525390625 169.043359375 166.75 168.4 166.63671875 168.7927734375 166.5 169.15 166.80859375 171.6111328125 167.9 176.05 168.0552734375 176.68203125 168.2 177.25 169.2607421875 178.96875 171.35 181.9 171.7171875 182.4017578125 172.05 182.85 174.4 176.6224609375 174.4 174.1 174.4 173.4 174 170.05 173.907421875 169.3650390625 173.8 168.75 173.7154296875 170.2267578125 173.55 171.5 172.894140625 168.6626953125 170.55 163.65 169.4787109375 161.4919921875 168.65 159.85 168.9447265625 159.49375 169.15 159.2 168.9634765625 158.9927734375 168.75 158.75
M 166.4 146.3
Q 166.1810546875 147.198828125 165.9 148.25 165.865625 149.7626953125 166.75 152 166.85 151.0021484375 166.85 149.7 166.85 148.1869140625 166.4 146.3
M 163.1 130.85
Q 163.1 131.91640625 163.65 133.7 163.7201171875 133.228125 163.75 132.75 163.741796875 128.1857421875 164.3 125.45 163.1 128.326171875 163.1 130.85
M 119.7 147.25
L 117.65 147.1
Q 117.65 147.25 117.25 147.35 117.3 147.6 119.5 147.75 121.65 147.8 121.85 147.6 121.8 147.35 119.7 147.25
M 131.15 136.95
L 130.8 136.95
Q 132.1 138.95 132.2 139.1 133.3 140.5 134.6 140.65 133.95 140.3 132.7 138.8 131.25 137.05 131.15 136.95 Z"/>

<path fill="#4D6476" stroke="none" d="
M 127 182.6
L 126.75 183.35
Q 147.4 204.5 137.1 233.5 134.6330078125 240.5189453125 133.65 247.9
L 136.75 247.9
Q 136.7939453125 247.4625 136.8 247 137.015625 247.4474609375 137.25 247.9
L 137.55 247.9
Q 137.569921875 246.941015625 137.6 245.95 137.201171875 245.0939453125 137 244.35 137.8990234375 234.5240234375 140 224.8 140 225.184765625 140 225.55 140 226.59140625 140.2 227.65 140.51875 226.5365234375 140.85 225.4 140.943359375 225.05625 141 224.7 140.93203125 223.931640625 140.9 223.15
L 140.4 223.15
Q 140.6482421875 222.12578125 140.9 221.1 141.671484375 217.906640625 142 214.9 142.0642578125 209.2806640625 141.75 203.65 141.634765625 202.880859375 141.45 202.1 141.569921875 202.14765625 141.7 202.2 141.6822265625 201.9521484375 141.65 201.7 141.496875 201.662890625 141.3 201.6 138.408984375 190.1583984375 127 182.6
M 124.5 183.35
L 124.25 182.6
Q 114.8572265625 188.82265625 111.2 197.7 111.0353515625 198.878125 110.95 200.1 110.35 208.55 110.5 217.05 110.55 221.35 111.65 225.4 113.85 232.95 114.6 240.95 114.916796875 244.4482421875 114.95 247.9
L 117.55 247.9
Q 116.6169921875 240.5189453125 114.15 233.5 103.85 204.5 124.5 183.35
M 147.5 240
Q 147.6033203125 240.35 147.7 240.7 147.7669921875 240.4375 147.8 240.15
L 147.65 239.7
Q 147.594140625 239.86640625 147.5 240
M 148 239.15
Q 147.8751953125 239.3837890625 147.75 239.6 147.83515625 239.6921875 147.9 239.75 148.0421875 239.3271484375 148.15 238.85 148.080078125 239.005859375 148 239.15
M 102.95 242.7
Q 102.889453125 242.3662109375 102.8 242
L 101.05 247.35 101.55 247.2
Q 102.3505859375 244.861328125 102.95 242.7
M 149.1 244.1
Q 149.026171875 244.490625 148.9 244.85 149.290234375 246.003125 149.7 247.2
L 150.2 247.35 149.1 244.1
M 143.1 231.4
Q 142.8845703125 232.4013671875 142.65 233.35 142.9306640625 233.833203125 143.25 234.3 144.8927734375 236.7640625 147 238.85 147.0435546875 238.7587890625 147.1 238.65 147.2943359375 238.2720703125 147.5 237.9 147.1626953125 237.5314453125 146.85 237.15 145.2328125 235.180078125 144.05 233.2
L 146.45 233.2
Q 147.7 232.95 147.7 232.6 145.914453125 232.6 143.85 232.85 143.45859375 232.151953125 143.1 231.4
M 144.5 203.35
Q 144.5287109375 203.766796875 144.55 204.15 144.8822265625 204.496875 145.15 204.85 144.850390625 204.1265625 144.5 203.35
M 103.55 232.6
Q 103.55 232.95 104.8 233.2
L 107.15 233.2
Q 106.0537109375 235.1177734375 104.5 237 104.7912109375 237.5068359375 105.05 238 106.6806640625 236.279296875 108 234.3 108.8599609375 233.0431640625 109.5 231.85 109.2318359375 230.6720703125 109 229.5 108.346875 231.1875 107.35 232.85 105.3353515625 232.6 103.55 232.6
M 149.85 241.35
Q 150.601953125 241.951953125 151.4 242.5
L 151.8 242.25
Q 150.877734375 241.4287109375 150 240.6 149.94375 240.989453125 149.85 241.35
M 148.75 208.5
Q 148.1615234375 207.3044921875 147.6 206.35 149.071875 209.7392578125 150 213.25 150.408984375 213.991796875 150.85 214.85 153.4 217.95 159.1 218.55 156.2130859375 217.31875 153.9 215.3 155.3251953125 213.7748046875 156.15 211.85
L 155.75 211.85
Q 155.4 212.4 154.9 213.55 154.4154296875 214.1859375 153.3 214.8 151.7345703125 213.2982421875 150.45 211.4 151.6728515625 210.8904296875 152.15 210.5
L 151.65 210.35
Q 150.7923828125 210.69609375 150.15 210.95 149.395703125 209.80078125 148.75 208.5
M 126.45 172.35
Q 126.31640625 172.5236328125 126.15 172.65 126.1263671875 172.4744140625 126.1 172.25 125.7787109375 172.6861328125 125.45 173.1 124.78203125 173.8931640625 124.1 174.7 124.3912109375 180.5890625 125.05 183.35
L 125.75 183.2
Q 126.290234375 178.4158203125 126.45 172.35
M 125.9 166.7
Q 125.9 164.488671875 125.95 162.1 125.2333984375 162.9587890625 123.95 164 123.967578125 165.238671875 123.95 166.6 123.9583984375 168.691796875 124 170.55 124.30625 170.2994140625 124.6 170.1 124.5171875 169.944140625 124.4 169.8
L 124.75 169.05
Q 125.35859375 169.1091796875 125.9 169.25 125.9 168.1119140625 125.9 166.7
M 99.45 242.25
L 99.85 242.5
Q 101.2087890625 241.566796875 102.45 240.5 102.3326171875 240.0556640625 102.2 239.55 100.9419921875 240.9212890625 99.45 242.25
M 104.15 208.1
Q 104.209375 207.9279296875 104.25 207.7 104.3705078125 207.5087890625 104.5 207.3 105.118359375 205.7595703125 105.85 204.25 106.12734375 203.6720703125 106.4 203.1 105.801171875 203.5232421875 105.3 204.05 104.1 205.25 102.5 208.5 101.854296875 209.8005859375 101.1 210.95 100.457421875 210.6958984375 99.6 210.35
L 99.1 210.5
Q 99.576953125 210.890234375 100.8 211.4 99.515625 213.2982421875 97.9 214.8 96.834375 214.1857421875 96.35 213.55 95.85 212.4 95.5 211.85
L 95.1 211.85
Q 95.9248046875 213.774609375 97.35 215.3 95.037109375 217.31875 92.15 218.55 97.85 217.95 100.4 214.85 101.3423828125 213.0162109375 101.95 211.8 102.2947265625 211.9392578125 102.5 212 101.8216796875 214.6994140625 101.55 216.6
L 101.65 216.6
Q 102.5662109375 212.2421875 104.15 208.1
M 102.95 210.15
Q 103.0689453125 209.9154296875 103.15 209.7 102.88125 210.698828125 102.6 211.6 102.45390625 211.5291015625 102.2 211.4 102.671875 210.587109375 102.95 210.15
M 121 105.55
Q 121.030078125 105.4515625 121.05 105.3 121.0296875 105.0974609375 121 104.85
L 121 105.55
M 126.6 146.4
Q 125.76796875 147.2423828125 124.65 148.15 124.3748046875 148.36875 124.1 148.55
L 124.1 154.5
Q 124.1 154.8908203125 124 162.05 125.31328125 160.84609375 126.05 160.15 126.223828125 156.1845703125 126.6 151.7
L 126.6 146.4
M 126.55 124
Q 126.2646484375 123.8919921875 126.05 123.8 125.075390625 123.366796875 124.3 122.9 124.05625 123.736328125 124.1 124.85 124.15 126.25 124.2 129.05 124.1 132 124.1 137.5
L 124.1 146.55
Q 124.3943359375 146.3248046875 124.7 146.1 125.8142578125 145.30390625 126.6 144.55
L 126.55 129
Q 126.55 128.8 126.55 124.7 126.55703125 124.3541015625 126.55 124
M 145.1 106.75
Q 144.9 106.75 144.65 106.75 141.9 106.9 140.95 106.9 139.45 106.9 136.85 106.75 136.5 106.75 136.1 106.65 136.15 106.75 136.25 106.85 136.25 106.8 136.25 106.75 136.3498046875 106.75 142.55 107.35 142.55 107.3423828125 142.55 107.3 142.95 107.05 142.95 106.9 143.8 107.1 144.5 107.55
L 144.5 107.5
Q 144.85 107.05 145.1 106.75
M 142.95 104.45
L 142.7 104.2
Q 142.75 104.15 142.8 104 142.45 104.25 141.95 104.45 139.2 105.6 134.8 105.85
L 135.25 105.95
Q 135.3 105.95 135.3 106 135.55 105.95 135.85 105.95 137.95 105.75 137.95 105.7 143.2 105.7 145.4 105.8
L 144.85 103.35
Q 144.8 103.2 144.75 103.15 143.3 104.15 142.95 104.45
M 129.25 93.9
Q 130.11015625 92.981640625 131 92.15 134.0224609375 89.407421875 137.25 88.2
L 134.9 88.2
Q 131.684375 90.7009765625 129.25 93.9
M 127.7 96.2
Q 127.0654296875 97.270703125 126.5 98.35 127.28359375 99.9947265625 128 101.75 128.4845703125 100.9564453125 129.05 100.4
L 129.05 100
Q 128.8755859375 98.371875 127.7 96.2
M 89.35 85.85
L 89.05 85.95
Q 89.3 86.2 90.1 86.65 91.2 87.2 92.1 87.3 92 87.2 91.5 87 91.1 86.75 91 86.7 90.3 86.5 89.35 85.85
M 94.7 84.8
Q 94.1 84.55 94 84.4 91.15 83.9 90.15 84.2 90.2 84.4 90.85 84.65 91.45 84.95 91.5 85.1
L 94.55 85.5
Q 93.260546875 86.3080078125 92.1 87.3 91.6203125 87.680859375 91.15 88.1 88.733203125 89.596484375 86.75 91.15 84.0884765625 93.3587890625 82.3 95.7 81.1634765625 97.1892578125 80.3 98.9 77.95 103.712109375 77.95 110.25 77.95 112.2 77.95 113.55 78 114.25 79.25 117.45 79.5029296875 118.2404296875 80.25 119.55 80.6634765625 120.2609375 81.2 121.1 81.258984375 121.18671875 81.3 121.25 82.9 123.75 83.2 124.6 83.215234375 124.6419921875 83.2 124.7 83.4259765625 125.3310546875 83.6 127.1 83.691796875 127.9853515625 83.75 129.15 83.8380859375 130.1427734375 83.9 131.3 83.9423828125 132.103125 83.95 132.85 83.821484375 133.106640625 83.65 133.35 83.1681640625 134.102734375 82.2 135.15 81.5853515625 135.8947265625 80.75 136.75 81.2896484375 136.4201171875 82.15 135.35 82.759375 134.670703125 83.5 133.65 83.7607421875 133.30234375 83.95 133 84.0056640625 133.4677734375 84 133.9 84.0720703125 135.145703125 84.1 136.25 83.6828125 137.1267578125 83.3 137.95 83.2072265625 138.2521484375 83.1 138.5 82.413671875 139.1923828125 81.45 139.9 77.55 142.75 77.4 143 79.9091796875 141.7298828125 81.35 140.9 81.99921875 140.56953125 82.4 140.3 81.6126953125 142.6728515625 81.3 144.75 81.15 145.921875 81.15 147 81.15 148.4814453125 81.3 149.9 81.31640625 150.068359375 81.3 150.2 81.2685546875 150.2916015625 81.2 150.35 81.0515625 150.475390625 80.9 150.6 79.567578125 151.741796875 79.25 152.15 79.7783203125 152.0232421875 80.3 151.75 80.8671875 151.457421875 81.4 151 81.5318359375 151.7314453125 81.65 152.45 81.871875 153.4591796875 82.15 154.45 81.565234375 155.433984375 80.9 156.1 80.836328125 156.213671875 80.75 156.3 80.4220703125 156.6388671875 80.1 157 77.6916015625 159.748828125 76.05 163.65 75.948828125 163.902734375 75.85 164.15 75.1958984375 165.761328125 74.75 167.35 73.8 170.7634765625 73.8 174.1 73.8 175.4125 74.15 177.4 74.3736328125 178.3935546875 74.65 179.5 74.926171875 180.6220703125 75.25 181.85 75.1232421875 182.273046875 74.9 182.85 74.1 184.45 73.15 185.2 74.35 185 75.15 183.9 75.1943359375 183.83671875 75.2 183.75 75.475390625 183.4001953125 75.6 183 76.0328125 184.3529296875 76.4 185.35 76.644921875 186.08671875 76.85 186.65 76.269921875 187.556640625 75.55 188.6 75.334765625 188.9515625 75.1 189.3 74.99921875 189.452734375 74.9 189.6 74.876953125 189.6345703125 74.85 189.65 73.287890625 192.0376953125 72.55 194.4 72 196.405078125 72 198.4 72 198.8138671875 72 199.2 72.05703125 200.0265625 72.15 200.8 71.457421875 201.696875 70.75 202.45 69.85 203.35 67.85 205.35 66.39765625 206.94765625 64.05 208.85 63.977734375 208.9365234375 63.9 209 63.4873046875 209.4126953125 63.15 209.8 63.041796875 210.0134765625 62.9 210.2 62.3 211.23515625 62.3 212.3 62.3 213 62.35 213 62.45 213.05 62.75 213.05
L 66.7 209.55
Q 65.9666015625 211.1654296875 64.95 213.55 64.869921875 213.742578125 64.8 213.9 64.226171875 214.428125 63.65 215.35
L 64.15 215.45
Q 63.301953125 217.6884765625 62.8 219.3 62 219.520703125 62 220.15 62 220.9673828125 62.35 220.8 62.1 221.98203125 62.1 222.7 62.1 223.499609375 62.35 224.65 62.4427734375 225.006640625 62.55 225.4
L 63 225.3 63.45 223.4
Q 63.528125 223.75234375 63.6 224.1 63.61875 224.2751953125 63.65 224.45
L 64.05 224.45
Q 64.25 223.5 64.25 223.1 64.25 222.773046875 64.15 222.4 64.12421875 222.07265625 64 221.7 63.970703125 221.620703125 63.95 221.55
L 65.3 216.1 65.35 215.95
Q 65.45 215.45 67.35 211.1 68.0826171875 209.3634765625 68.35 208.1
L 69.1 207.45 69.45 207.15
Q 69.768359375 206.8681640625 70.05 206.6 70.00859375 207.525 69.9 208.4 69.57734375 212.739453125 69.05 216.2 69.0408203125 216.2765625 69 216.35 68.835546875 217.7505859375 67.85 222.35 67.0837890625 225.7373046875 66.8 227.7 66.738671875 228.2033203125 66.7 228.6
L 67.1 228.6
Q 68.45 223.85 69.4 220.15 69.996875 217.82890625 70.4 215.95 71.2 212.2048828125 71.2 210.3 71.2 209.378125 71.15 208.5 71.1259765625 207.117578125 71 205.8 71.005078125 205.77890625 71 205.7 71.034375 205.692578125 71.05 205.65 71.6205078125 205.1314453125 72.1 204.65 72.502734375 204.2365234375 72.85 203.85 72.9900390625 204.26796875 73.15 204.65 73.2291015625 204.836328125 73.3 205 74.6 207.95 74.6 210.7 74.6 211.85 73.1 216.65 71.6 221.5 71.6 222.2 71.6 223.25 72 223.25 72.06875 223.1431640625 72.1 223.05 72.3681640625 223.143359375 72.6 222.95 72.8310546875 222.256640625 72.95 221.7 73.6029296875 220.697265625 74.1 219.8
L 74.1 224.45 74.45 224.35 74.45 219.7 74.15 219.7
Q 75.237109375 217.8287109375 75.65 216.7 76.45 214.45 76.45 210.7 76.45 207.1 75.25 203.75 75.573828125 204.4443359375 75.95 205.35
L 76.2 205.1
Q 76.2 204.1 75.65 203.25 75.1787109375 202.6216796875 74.8 202.05 74.733984375 201.9361328125 74.65 201.8 74.6083984375 201.6587890625 74.55 201.5 74.64296875 201.3798828125 74.7 201.25 74.73046875 201.169140625 74.75 201.1 75.6498046875 198.717578125 76.35 196.75 76.4974609375 197.1521484375 76.65 197.4
L 76.9 197.4
Q 77 197.3 77.05 197.15 77.05 197.05 77.05 196.3 76.9099609375 195.885546875 76.75 195.5 76.8486328125 195.31171875 76.9 195.1 76.961328125 194.993359375 77 194.9 78.607421875 190.13984375 78.8 188.3 81.32578125 184.5697265625 82.3 182.65
L 82.3 182.75
Q 82.7 183.7 83 185.8
L 83.2 185.55
Q 83.35 185.25 83.35 184.3 83.069921875 182.3708984375 82.85 181.05 83.575 178.75 84.55 173.55 84.615234375 173.1908203125 84.65 172.85
L 84.9 172.8
Q 84.8373046875 172.54296875 84.75 172.3 84.925 171.4564453125 85.05 170.7 85.75 166.6880859375 85.75 165.85 85.85 163.75 85.85 161.95 85.85 161.877734375 85.85 161.8 85.846484375 160.8607421875 85.8 160 85.6865234375 157.9349609375 85.3 156.6 85.001953125 155.619140625 84.75 154.8 85.1087890625 154.1478515625 85.35 153.35 85.528125 152.9548828125 85.65 152.5 86.2 150.35 86 148.1 85.85 146.35 85.95 143 86 139.8 86 139.25 86.091796875 137.97265625 86.15 136.75 86.3443359375 136.3859375 86.5 136 87.4431640625 133.9865234375 88 132.35 89.05 129.4845703125 89.05 127.75 89.05 123.25 86.75 118.7 85.777734375 116.79765625 85.2 115.05 84.5048828125 112.8671875 84.45 110.95 84.45 110.794921875 84.45 110.65 84.45 104.55 84.75 103 84.905078125 102.1318359375 85.3 101.05 86.2265625 98.6498046875 88.4 95.2 89.808203125 93.0876953125 90.95 91.55 91.5740234375 90.76953125 92.1 90.15 92.3720703125 89.98984375 92.6 89.85 93.723046875 89.1515625 94.25 88.75 96.85 87.45 98.45 86.5 100.431640625 85.4279296875 101.25 84.2 103.23984375 83.3419921875 104.85 82.9 106.3267578125 82.55 107.5 82.55 110.2228515625 82.55 112.8 83.55 116.0408203125 84.8080078125 119.05 87.65 119.93515625 88.501953125 120.75 89.45 122.234375 91.15703125 123.55 93.2 124.0876953125 92.564453125 124.65 91.9 123.4314453125 90.40078125 120.3 86.7 119 85.1 116.75 83.55 114.65 82 112.65 81.05 111.744140625 80.8376953125 110.95 80.65 108.9404296875 80.2859375 107.65 80.25 104.65 80.2 102.25 81.6 101.9392578125 81.817578125 101.3 82.15 100.9576171875 81.98125 100.1 81.6 98.6 80.95 98.45 80.85
L 98.15 81 99 81.95
Q 99.9236328125 82.0705078125 100.9 82.35 99.4638671875 83.09375 96.75 84.3 95.966015625 84.675 95.2 85.1 95.084375 84.9748046875 94.7 84.8
M 85.5 94.75
Q 86.073046875 94.141015625 86.8 93.55 85.825 95.06484375 84.7 97.05 83.15 100.05 82.7 103.95 82.633203125 104.95078125 82.6 107.65 82.6009765625 108.851171875 82.6 110.4 82.6 110.5724609375 82.6 110.75 82.6 111.6892578125 82.65 112.6 82.746875 113.459765625 82.85 114.3 83.2138671875 116.28203125 83.9 118.1 84.291796875 119.055078125 84.75 119.95 85.22578125 120.84765625 85.6 121.7 85.8986328125 122.77734375 86.65 125.1 86.95 126.4125 86.95 127.65 86.95 128.8208984375 86.25 130.9 86.180078125 127.2962890625 85.65 125.05 85.196484375 123.26640625 84 120.75 83.20703125 119.1072265625 82.1 117.15 81.7513671875 116.5287109375 81.45 115.9 81.266796875 115.56171875 81.1 115.2 79.8 112.3607421875 79.8 110.25 79.8 108.151171875 80.1 106.2 80.36640625 104.4462890625 80.85 102.8 82.2716796875 98.3181640625 85.5 94.75
M 76.9 165.4
Q 77.45 163.75 79.5 161 80.1994140625 160.0548828125 80.9 159.2 81.0865234375 158.99296875 81.25 158.75 81.9376953125 158.0140625 82.6 157.35 82.7900390625 157.17578125 82.95 157 83.1326171875 157.5443359375 83.25 158.15 83.5349609375 159.6359375 83.65 161.65 83.65 161.9595703125 83.65 164.85 83.65 165.228515625 83.65 165.65 83.65 166.4810546875 83.45 167.75 83.425390625 167.6087890625 83.35 167.45 83.259375 167.1501953125 83.15 166.9
L 82.75 167
Q 83.03359375 167.7412109375 83.25 168.4 83.312109375 168.5052734375 83.35 168.6 82.9791015625 170.91796875 82.15 174.4 81.6060546875 176.6923828125 81.15 178.3 80.45859375 180.9216796875 80 181.9 79.870703125 182.1583984375 78.5 184.2 78.244921875 183.5203125 78 182.85 75.65 176.6224609375 75.65 174.1 75.65 173.4 76.05 170.05 76.142578125 169.365234375 76.2 168.75 76.61484375 166.17421875 76.9 165.4
M 75.8 192.8
Q 75.8181640625 192.884765625 75.8 192.95 75.7830078125 192.9419921875 75.75 192.9 75.805078125 192.8466796875 75.8 192.8
M 75.35 193.6
Q 75.4671875 193.8205078125 75.55 194.05 75.189453125 195.5029296875 74.7 196.65 74.4451171875 197.3431640625 74.1 197.9 74.221875 196.52578125 74.75 195.05 75.008984375 194.35859375 75.35 193.6
M 84.1 142
Q 84.124609375 141.943359375 84.15 141.85
L 84.15 142.1 84.15 148.05
Q 84.1560546875 148.1498046875 84.15 148.25 84.17890625 149.4791015625 83.6 151.2 83.2 149.6787109375 83.2 147.1 83.2 146.1794921875 83.35 145.1 83.5783203125 143.697265625 84.1 142
M 114.8 31.15
Q 114.8359375 31.078125 114.9 31 114.43359375 31.31875 113.85 31.7 113.1603515625 32.2048828125 112.3 32.85
L 112.9 33
Q 113.316796875 32.6990234375 113.75 32.25 114.2630859375 31.7943359375 114.8 31.15
M 115.95 19.45
Q 113.6 22.1 112.65 23.7 111.3 26.05 110.85 28.1 110.5 29.65 110.5 32.25 110.5 35.45 112.8 42.05 113.2177734375 43.283984375 113.55 44.4 114.065625 46.038671875 114.4 47.4 115 49.9466796875 115 51.5
L 115 56.15
Q 115 56.778515625 115.6 57.9 115.8134765625 58.294140625 116.1 58.75 117.25 60.6 117.3 61.1 117.38203125 61.67421875 117.45 62.5 117.48984375 63.0634765625 117.5 63.7 117.584765625 65.0111328125 117.6 66.75 117.65 68.7166015625 117.65 71.2 117.65 71.5 116.9 74.8 116.15 78.1 116.15 79 116.15 79.837109375 116.3 81.2 116.368359375 81.71484375 116.45 82.3
L 116.9 82.2 117 81.55 118.55 73.85 118.55 73.8
Q 119.2 70.75 119.2 65.35
L 119.2 65 119.2 61.5 119.2 61.35
Q 119.2 60.8841796875 118.25 59.55
L 118.3 59.55
Q 118.55 59.15 119.75 57.25 120.2611328125 56.3439453125 120.55 55.7 120.8732421875 55.02109375 120.9 54.7 120.05 55.15 119 56.8 118 58.3 118 58.85 118 59.0712890625 118 59.2 117.798046875 58.94140625 117.6 58.7 116.9384765625 57.6841796875 116.9 57.3 116.65 55.95 116.8 53.1 117 50.3 116.7 48.85 116.628515625 48.528125 116.45 47.9 116.5005859375 47.7109375 116.55 47.5 116.7376953125 46.8515625 117 45.95 117.45 44.45 117.45 43.65 117.45 43.05 117.2 41.8
L 116.9 41.8
Q 116.803515625 42.812109375 116.15 44.65 116.1251953125 44.7296875 116.1 44.8 115.901171875 45.2828125 115.75 45.7 115.4134765625 44.6216796875 114.95 43.2 114.9267578125 43.1556640625 114.9 43.05 114.592578125 42.2072265625 114.25 41.2 114.353515625 40.9716796875 114.45 40.7 114.83828125 39.8349609375 115.35 38.5 116.45 35.55 116.45 35.1
L 116.4 34.3 116.15 34.3
Q 115.85 36.1 114.85 38.35 114.6931640625 38.6923828125 114.5 39.1 114.251171875 39.6501953125 113.95 40.3 113.4818359375 38.9408203125 113.1 37.75 112.1 34.2759765625 112.1 32.35 112.1 31.5787109375 112.15 30.85 113.4666015625 30.0490234375 114.5 29.25 115.2478515625 28.6919921875 115.85 28.15 116.401953125 27.6361328125 117 27.15 118.0421875 26.343359375 119.25 25.6 118.4458984375 25.6 117.35 26.15 116.46328125 26.672265625 115.35 27.6 115.1501953125 27.7841796875 114.95 27.95 113.143359375 29.623828125 112.2 30.4 112.4861328125 27.460546875 113.7 25.45 114.9 23.5 119.8 17.05
L 119.35 16.5
Q 118.45 16.7 115.95 19.45
M 136.25 31.7
Q 135.7146484375 31.317578125 135.25 31 135.3142578125 31.0787109375 135.35 31.15 135.8826171875 31.7890625 136.35 32.25 136.829296875 32.69609375 137.25 33
L 137.85 32.85
Q 136.9869140625 32.202734375 136.25 31.7
M 137.5 23.7
Q 136.55 22.1 134.2 19.45 131.7 16.7 130.8 16.5
L 130.35 17.05
Q 135.25 23.5 136.45 25.45 137.6638671875 27.460546875 137.95 30.4 137.0068359375 29.62421875 135.2 27.95 135 27.784375 134.8 27.6 133.68671875 26.672265625 132.75 26.15 131.704296875 25.6 130.9 25.6 132.1029296875 26.340234375 133.1 27.15 133.74453125 27.6328125 134.3 28.15 134.9025390625 28.6923828125 135.6 29.25 136.6810546875 30.0453125 138 30.85 138.05 31.5787109375 138.05 32.35 138.05 34.2779296875 137 37.75 136.6705078125 38.9453125 136.2 40.3 135.8986328125 39.6498046875 135.65 39.1 135.4568359375 38.6921875 135.3 38.35 134.3 36.1 134 34.3
L 133.75 34.3 133.7 35.1
Q 133.7 35.55 134.8 38.5 135.3115234375 39.8345703125 135.65 40.7 135.796484375 40.971484375 135.9 41.2 135.563671875 42.175 135.25 43 135.2361328125 43.14140625 135.2 43.25 134.7369140625 44.6375 134.4 45.7 134.250390625 45.28671875 134.05 44.8 134.024609375 44.729296875 134 44.65 133.3462890625 42.8119140625 133.25 41.8
L 132.95 41.8
Q 132.7 43.05 132.7 43.65 132.7 44.45 133.15 45.95 133.411328125 46.848046875 133.6 47.45 133.661328125 47.6939453125 133.7 47.85 133.5220703125 48.52578125 133.45 48.85 133.15 50.3 133.35 53.1 133.5 55.95 133.25 57.3 133.2115234375 57.684375 132.5 58.7 132.351953125 58.94140625 132.15 59.2 132.15 59.07109375 132.15 58.85 132.15 58.3 131.15 56.8 130.1 55.15 129.25 54.7 129.2767578125 55.0212890625 129.6 55.7 129.8888671875 56.3439453125 130.4 57.25 131.6 59.15 131.85 59.55
L 131.9 59.55
Q 130.95 60.8841796875 130.95 61.35
L 130.95 61.5 130.95 65 130.95 65.35
Q 130.95 70.75 131.6 73.8
L 131.6 73.85 133.25 82.2 133.7 82.3
Q 134 80.15 134 79 134 78.1 133.25 74.8 132.5 71.5 132.5 71.2 132.5 68.7177734375 132.5 66.75 132.565234375 65.0119140625 132.6 63.7 132.66015625 63.06328125 132.7 62.5 132.76796875 61.67421875 132.85 61.1 132.9 60.6 134.05 58.75 134.3365234375 58.2943359375 134.55 57.9 135.15 56.7787109375 135.15 56.15
L 135.15 51.5
Q 135.15 49.9466796875 135.75 47.4 136.084765625 46.037109375 136.6 44.35 136.9330078125 43.28203125 137.35 42.05 139.65 35.45 139.65 32.25 139.65 29.65 139.3 28.1 138.85 26.05 137.5 23.7
M 122.2 100.7
Q 122.1447265625 101.128125 122.1 101.55 122.0623046875 101.8220703125 122 102.1 122.462109375 100.8869140625 123 99.6 123.110546875 99.3296875 123.2 99.05 122.640234375 99.9375 122.2 100.7
M 125.85 93.35
Q 125.1353515625 94.33671875 124.65 94.95 124.82734375 95.2177734375 124.95 95.45 125.4888671875 94.5216796875 126.05 93.65 125.9498046875 93.508984375 125.85 93.35
M 167.75 95.7
Q 165.946484375 93.3390625 163.2 91.15 157.659375 86.6638671875 148.25 82.9 148.55 84.85 151.6 86.5 153.2 87.45 155.8 88.75 156.32265625 89.1482421875 157.4 89.8 158.5427734375 90.5208984375 160.25 91.5 160.60390625 91.703125 160.95 91.9 163.159765625 93.2728515625 164.55 94.75 167.7759765625 98.315625 169.15 102.8 169.6853515625 104.44140625 169.95 106.2 170.25 108.152734375 170.25 110.25 170.25 112.3607421875 168.95 115.2 168.7833984375 115.561328125 168.6 115.9 168.298828125 116.528515625 167.95 117.15 167.415234375 118.0955078125 166.95 118.95 167.45 116.8453125 167.45 114.55 167.45 113.5802734375 167.45 112.75 167.443359375 111.4322265625 167.4 110.45 167.4021484375 108.67890625 167.35 107.95 167.3427734375 107.88828125 167.3 107.8 166.8748046875 104.1037109375 165.35 101.3 162.8 96.9 161.05 94.85 159.4046875 92.89140625 157.35 91.35 156.5431640625 90.7302734375 155.65 90.15 154.5240234375 89.4853515625 153.3 88.9 148.8 87 147.8 86.35 145.4 84.95 142.4 85 141.130859375 85.0705078125 139.15 85.45 142.0462890625 85.8919921875 145.2 87.6 147.14140625 88.08515625 149.6 89.2 151.6 90.1 155.5 92.35 157.65 93.65 161.65 99.5 161.94140625 99.9486328125 162.2 100.35 162.465625 100.798046875 162.7 101.2 164.89140625 104.8431640625 165.3 107.05 165.500390625 108.05234375 165.55 111 165.6 112.4587890625 165.6 114.4 165.6 116.4126953125 164.8 118.7 164.258203125 120.3876953125 163.3 122.2 161.015234375 126.570703125 161 130.9
L 161 130.95
Q 161 132.1009765625 161.45 133.75 161.6482421875 134.3705078125 161.85 135 162.4498046875 136.6333984375 163.35 138.6 163.6515625 139.1931640625 163.95 139.8 164.0041015625 139.912890625 164.05 140 164.0685546875 140.9890625 164.1 143 164.2 146.35 164.05 148.1 163.85 150.35 164.4 152.5 164.5220703125 152.9556640625 164.65 153.35 165.1103515625 154.6443359375 165.75 155.6 165.3748046875 156.8453125 164.75 158.85 164.4533203125 159.84765625 164.3 161.25 164.2849609375 161.6615234375 164.25 162.05 164.2 162.967578125 164.2 164 164.2 165.75 164.3 167.8 164.3 168.226171875 164.5 169.5 164.787109375 171.4478515625 165.5 175.25 166.3787109375 179.77421875 167 182.05 166.8830078125 183.0396484375 166.7 184.3 166.7 185.25 166.85 185.55
L 167.05 185.8
Q 167.2513671875 184.391015625 167.5 183.5 167.576171875 183.6978515625 167.65 183.85 168.6482421875 185.8064453125 171.55 190 172.015625 191.8369140625 173.05 194.9 173.088671875 194.993359375 173.1 195.1 173.2013671875 195.3115234375 173.25 195.5 173.1400390625 195.8853515625 173 196.3 173 197.05 173 197.15 173.05 197.3 173.15 197.4
L 173.4 197.4
Q 173.55234375 197.1525390625 173.7 196.75 174.4005859375 198.718359375 175.3 201.1 175.3197265625 201.1693359375 175.35 201.25 175.4228515625 201.4158203125 175.5 201.6 175.3861328125 201.832421875 175.2 202.05 174.8685546875 202.6251953125 174.4 203.25 173.85 204.1 173.85 205.1
L 174.1 205.35
Q 174.70078125 203.90390625 175.1 202.95 175.3388671875 202.5189453125 175.5 202.15 175.286328125 203.0341796875 174.95 204 174.87734375 204.2314453125 174.8 204.45 173.6 207.65 173.6 211.15 173.6 214.8 174.4 216.95 174.7923828125 217.996484375 175.75 219.7
L 175.6 219.7 175.6 224.35 175.95 224.45 175.95 220
Q 176.4740234375 220.8953125 177.15 221.95 177.2681640625 222.4046875 177.45 222.95 177.654296875 223.1203125 177.85 223.05 177.953125 223.203125 178.05 223.35 178.45 223.35 178.45 222.3 178.45 221.6 176.95 216.9 175.45 212.3 175.45 211.15 175.45 208.5 176.75 205.65 176.8669921875 205.3888671875 176.95 205.1 177.189453125 204.5875 177.35 204 177.6400390625 204.331640625 177.95 204.65 178.4283203125 205.1302734375 178.95 205.65 179.015234375 205.6919921875 179.05 205.7 179.044921875 205.77890625 179.05 205.8 178.9240234375 207.119140625 178.85 208.5 178.85 209.3798828125 178.85 210.3 178.85 212.20703125 179.65 215.95 180.0544921875 217.833984375 180.65 220.15 181.6 223.85 182.95 228.6
L 183.35 228.6
Q 183.311328125 228.2037109375 183.25 227.7 182.96640625 225.737890625 182.2 222.35 181.2158203125 217.7568359375 181 216.35 181.009375 216.2783203125 181 216.2 180.47265625 212.738671875 180.1 208.4 180.0412109375 207.52421875 179.95 206.6 180.2814453125 206.86796875 180.6 207.15
L 180.95 207.45 181.65 208.1
Q 181.9673828125 209.36328125 182.7 211.1 184.6 215.45 184.7 215.95
L 184.75 216.15 186.1 221.55
Q 186.079296875 221.6205078125 186.05 221.7 185.9255859375 222.073046875 185.85 222.4 185.8 222.7734375 185.8 223.1 185.8 223.5 186 224.45
L 186.4 224.45
Q 186.43125 224.2751953125 186.45 224.1 186.5220703125 223.75234375 186.55 223.4
L 187.05 225.3 187.5 225.4
Q 187.6068359375 225.0080078125 187.7 224.65 187.95 223.5005859375 187.95 222.7 187.95 221.9818359375 187.65 220.8 188.05 220.967578125 188.05 220.15 188.05 219.520703125 187.25 219.3 186.748046875 217.68828125 185.85 215.45
L 186.4 215.35
Q 185.8234375 214.42734375 185.25 213.9 185.1798828125 213.7421875 185.1 213.55 184.083203125 211.165234375 183.3 209.55
L 187.3 213.05
Q 187.6 213.05 187.7 213 187.75 213 187.75 212.3 187.75 211.234375 187.1 210.2 187.0115234375 210.0140625 186.85 209.8 186.56171875 209.41171875 186.15 209 186.0787109375 208.941796875 186 208.85 183.6564453125 206.951953125 182.2 205.35 180.2 203.35 179.3 202.45 178.633984375 201.7412109375 177.95 200.9 178.05 200.1181640625 178.05 199.3
L 178.05 199.25
Q 178.044140625 197.531640625 177.55 195.8 176.9205078125 193.36953125 175.3 190.95 175.267578125 190.91015625 175.2 190.85 175.191796875 190.810546875 175.15 190.75 174.6078125 189.973046875 174.1 189.25 173.7458984375 188.7306640625 173.4 188.2 173.235546875 187.5619140625 173.05 187 173.3302734375 186.3248046875 173.65 185.35 174.0169921875 184.356640625 174.4 183.05 174.5701171875 183.40390625 174.8 183.75 174.85546875 183.8365234375 174.9 183.9 175.7 185 176.9 185.2 175.95 184.45 175.15 182.85 174.9263671875 182.2724609375 174.75 181.85 175.123828125 180.621875 175.4 179.5 175.6763671875 178.3931640625 175.85 177.4 176.25 175.4123046875 176.25 174.1 176.25 170.7634765625 175.3 167.35 174.8541015625 165.761328125 174.2 164.15 174.101171875 163.902734375 174 163.65 172.3583984375 159.748828125 169.95 157 169.6279296875 156.6388671875 169.3 156.3 169.2138671875 156.2138671875 169.1 156.1 168.7134765625 155.6751953125 168.3 155.1 168.5392578125 154.0916015625 168.65 153.05 168.7966796875 152.128515625 168.85 151.15 169.2984375 151.5189453125 169.75 151.75 170.27265625 152.0234375 170.8 152.15 170.480859375 151.7396484375 169.1 150.55 169.0177734375 150.47578125 168.9 150.35 168.896875 150.2681640625 168.9 150.15 168.9 149.855078125 168.9 149.55 168.9 147.720703125 168.35 145.6 167.9220703125 143.76796875 167.05 141.7 166.887109375 141.252734375 166.65 140.75 166.420703125 140.188671875 166.1 139.55 166.0421875 139.3875 165.95 139.2 165.925 139.147265625 165.9 139.1 165.9 139.0671875 165.9 139 166.0529296875 139.17890625 166.2 139.3 166.7005859375 139.704296875 167.3 140.1 167.794921875 140.4236328125 168.7 140.9 170.1419921875 141.73046875 172.65 143 172.5 142.75 168.6 139.9 167.4478515625 139.05390625 166.7 138.25 166.231640625 137.780859375 165.9 137.3 165.9498046875 135.751171875 166 133.9 166.044140625 133.4560546875 166.05 133 166.288671875 133.3017578125 166.55 133.65 167.290234375 134.6703125 167.85 135.35 168.76015625 136.4201171875 169.3 136.75 168.4640625 135.894140625 167.8 135.15 166.881640625 134.1025390625 166.4 133.35 166.228515625 133.1064453125 166.05 132.85 166.1076171875 132.106640625 166.15 131.3 166.212109375 130.14140625 166.25 129.15 166.3578125 127.984375 166.45 127.05 166.6216796875 125.325390625 166.8 124.7 166.834765625 124.6419921875 166.85 124.6 167.15 123.75 168.75 121.25 168.7912109375 121.186328125 168.8 121.1 169.3845703125 120.2578125 169.8 119.55 170.54765625 118.2384765625 170.8 117.45 172.05 114.25 172.1 113.55 172.1 112.2 172.1 110.25 172.1 103.71171875 169.7 98.9 168.886328125 97.1888671875 167.75 95.7
M 163.8 134.05
Q 163.7318359375 133.8990234375 163.65 133.7 163.1 131.91640625 163.1 130.85 163.1 128.326171875 164.3 125.45 163.741796875 128.1857421875 163.75 132.75 163.778515625 133.3966796875 163.8 134.05
M 165.9 148.25
Q 165.8939453125 148.14921875 165.9 148.05
L 165.9 144.6
Q 166.1962890625 145.4939453125 166.4 146.3 166.85 148.1869140625 166.85 149.7 166.85 151.0021484375 166.75 152 165.865625 149.7626953125 165.9 148.25
M 167.6 157.7
Q 167.62265625 157.6330078125 167.65 157.55 168.209765625 158.134765625 168.75 158.75 168.9634765625 158.9927734375 169.15 159.2 169.85078125 160.0548828125 170.55 161 172.6 163.75 173.15 165.4 173.43515625 166.17421875 173.8 168.75 173.907421875 169.3650390625 174 170.05 174.4 173.4 174.4 174.1 174.4 176.6224609375 172.05 182.85 171.7875 183.56640625 171.5 184.3
L 171.5 185.45
Q 170.17734375 183.5544921875 170.05 183.3 169.383203125 181.921875 168.2 177.25 168.0552734375 176.68203125 167.9 176.05 166.80859375 171.6111328125 166.5 169.15 166.63671875 168.7927734375 166.75 168.4 167.0162109375 167.7416015625 167.3 167
L 166.9 166.9
Q 166.7904296875 167.1501953125 166.65 167.45 166.55234375 167.80078125 166.4 168.2 166.4 167.8732421875 166.4 167.6 166.4 165.827734375 166.4 164.85 166.4 163.8751953125 166.4 163.7 166.576953125 160.7369140625 167.15 158.95 167.219140625 158.7580078125 167.3 158.55 167.4609375 158.127734375 167.6 157.7
M 175.3 196.1
Q 175.59921875 196.8646484375 175.75 197.55 175.529296875 197.1423828125 175.3 196.65 174.970703125 195.77109375 174.65 194.7 175.051171875 195.4193359375 175.3 196.1
M 185.75 205.95
Q 186.4 205.85 186.45 205.55 185.35 205.05 185.35 204.9
L 184.65 205.05
Q 183.9 205.15 183.85 205.35
L 184.1 205.55 185.75 205.95
M 64.7 204.9
Q 64.7 205.05 63.6 205.55 63.65 205.85 64.3 205.95
L 65.95 205.55 66.2 205.35
Q 66.15 205.15 65.4 205.05
L 64.7 204.9
M 119.25 29.5
Q 119.7 29.2 119.7 28.9 117.2 29.85 115.95 30.45 117.2 29.9 119.25 29.5
M 130.45 28.9
Q 130.45 29.2 130.9 29.5 132.95 29.9 134.2 30.45 132.95 29.85 130.45 28.9 Z"/>

<path fill="#2A201E" stroke="none" d="
M 111.45 105.2
Q 111.8 106 112.05 107.8 112.4 109.05 113.95 109.65 114.4 109.8 114.9 109.9
L 115.5 109.8 115.75 109.15
Q 115.2 108.9 114.85 108.55 113.95 107.9 113.45 107.05 112.5 105.25 112.3 105.05
L 111.45 105.2
M 144.05 97.25
L 143.7 97.25
Q 144.9 99.25 144.9 100.65 144.9 100.9 144.65 101.4 144.55 98.2 142.7 98.25 142.7 98.8 142.8 99.8 142.85 100.15 142.95 100.55 143 101.8 142.55 102.2 140.95 103.65 137 103.75 135.5 103.75 134.25 104 134.3 103.95 134.3 103.9 134.75 103 134.75 102.25 134.75 101.8 133.25 99.85
L 131.5 99.75 131.45 99.8 131.25 99.5
Q 130.3458984375 99.5369140625 129.6 100 129.3126953125 100.1833984375 129.05 100.4 128.4845703125 100.9564453125 128 101.75 127.7423828125 102.2845703125 127.5 102.9 127.4197265625 103.100390625 127.3 103.3 126.6740234375 104.9822265625 125.7 107.55 125.5 107.8 125.3 108.1 124.75 108.15 123.95 108.25 123.35859375 108.2859375 122.3 108.3 121.5177734375 108.3763671875 120.45 108.4 119.0314453125 108.476953125 117.15 108.55 116.75 108.25 116.45 108.1 116.2 107.9 116 107.85 116.1 107.55 116.2 107.15 116.5 106.25 116.5 105.6 116.5 105.1 115.35 104.5 113.85 103.65 113.55 103.35 114.4 101.6 114.3 100.7
L 113.55 101.8
Q 112.8 102.9 112.8 103.25 112.8 103.5 113.85 104.25 115 105.05 115.4 106.05 115.6 106.55 115.65 107.75
L 115.6 107.75
Q 115.35 107.65 114.9 107.8
L 115.4 108.3 115.65 108.55
Q 115.65 108.7 115.65 108.9
L 115.85 108.7 116.75 109.65 123.1 109.8
Q 123.65 109.8 124.15 109.6 123.65 110.2 123.2 110.75
L 117.65 110.75
Q 117.65 110.9 117.15 111.25 117.3376953125 111.4751953125 120.2 111.65 120.59140625 111.6705078125 121 111.7 121.665234375 111.7205078125 122.4 111.75 122.05 112.15 121.7 112.45 121.6 112.65 121.55 112.8 121.2435546875 112.5548828125 120.75 112.35 120.508984375 112.2619140625 120.2 112.15 120.15078125 112.16328125 120.1 112.15 116.95 111.95 115.2 112.7
L 115.15 112.7
Q 114.6 111.75 113.8 111.15 112.6 110.2 111.2 110.5 110.45 109.05 109.95 109.05 109.9 109.1 109.75 109.15 109.7 109.35 109.7 110.15 109.7 110.9 110 111.2 110.1 111.4 110.45 111.65 113.35 112 114.05 112.65 114.2 112.8 114.35 113.1 114.05 113.35 113.8 113.6
L 113.9 114 113.95 114.1
Q 114.05 114.2 114.2 114.2 113.65 114.7 113.65 115 113.65 115.75 113.95 116.3 114.15 116.6 114.55 117.2 114.4 117.45 113.4 118.35 112.65 119 112.65 119.65 112.65 120.9 113.15 120.05 114.85 119.5 115.4 118.5 115.75 117.95 115.75 116.85 115.75 116.35 115.45 115.1 115.35 114.6 115.25 114.25 115.65 114.2 116.25 114.1 117 114 118.25 113.8 118.3 113.75 118.35 113.75 120.5 113.35 121.4 113.3 121.1 114.3 121.1 116.25 121.1 119.1 121.55 120 122.2064453125 121.6044921875 124.3 122.9 125.075390625 123.366796875 126.05 123.8 126.2646484375 123.8919921875 126.55 124 127.2775390625 124.4201171875 128.45 125.15 129.354296875 125.7591796875 130.5 126.55 130.9611328125 126.8578125 131.45 127.2 135.5 129.75 138.45 129.75 145.9 129.75 145.9 123.35 145.9 121.35 144.9 119.1 143.8 116.6 142.05 115 139.6 112.7 138.4 110.35 137.8 109.15 137.3 108.3
L 142.45 108.4
Q 143.05 108.4 143.35 108.3 143.5 108.35 143.6 108.45 144 108.8 144.55 109.2 145.55 110 145.55 110.85 145.55 111.55 145.25 112.05 144.85 112.5 144.65 112.9
L 145.3 112.75
Q 145.95 112.15 146.1 111.95 146.3 111.55 146.3 110.7 146.3 110.45 146.3 110.2 146.35 110.35 146.4 110.4
L 146.65 110.15
Q 146.8 109.8 146.8 109.05 146.8 108.65 146.55 108.45 146.35 108.3 144.9 107.4 144.9 107.55 144.65 107.65 144.55 107.55 144.5 107.55 143.8 107.1 142.95 106.9 142.95 107.05 142.55 107.3 142.55 107.3423828125 142.55 107.35 136.3498046875 106.75 136.25 106.75 136.25 106.8 136.25 106.85 136.15 106.75 136.1 106.65 136.5 106.75 136.85 106.75 139.45 106.9 140.95 106.9 141.9 106.9 144.65 106.75 144.9 106.75 145.1 106.75 147.45 106.5 147.65 106.45
L 146.9 105.95
Q 146.55 105.85 145.4 105.8 143.2 105.7 137.95 105.7 137.95 105.75 135.85 105.95 135.55 105.95 135.3 106 135.3 105.95 135.25 105.95
L 134.8 105.85
Q 139.2 105.6 141.95 104.45 142.45 104.25 142.8 104 142.75 104.15 142.7 104.2
L 142.95 104.45
Q 143.3 104.15 144.75 103.15
L 144.75 103.1
Q 145.9 102 145.9 101.15 145.9 100.4 145.6 99.35 145.1 97.8 145.05 97.6
L 144.05 97.25
M 141.8 123.5
Q 143.1 122.75 143.8 121.95 143.85 122.3 143.95 122.6 142.7 123.1 141.8 123.5
M 143.95 122.75
Q 143.95 123.05 143.95 123.4 143.85 124.45 143.2 125.4 141.75 127.25 138.4 127.25 134.45 126.2 130.65 124.3 130.389453125 124.1689453125 130.15 124.05 129.47734375 123.694140625 128.85 123.35 123.1 119.97578125 123.1 116.3 123.1 114 124.45 112.75
L 124.5 112.75
Q 126.35 111 127.45 108.15 127.6353515625 107.66796875 128.2 105.65 128.4044921875 104.94140625 128.65 104.05 129.001953125 102.853125 129.45 102.1 129.6779296875 101.78671875 129.9 101.55 130.15 101.2 130.65 100.7 131.35 100.95 132.9 101.2
L 133 101.4
Q 133.15 101.8 133.15 102.5 133.15 103.15 132.5 104.2 132.4 104.4 132.35 104.55 131.6 104.9 131.05 105.3 131.25 105.7 131.4 105.75 131.6 105.85 131.9 105.95 131.9 106.6 131.95 106.65
L 132.15 106.8 134.5 106.9
Q 135 107.4 135.35 107.8 135.6 112.75 139.65 116.1 142.8 118.65 143.6 121.45 143.5 121.85 143.25 122.2 142.45 123 139.95 123.4
L 139.7 123.8 140.8 123.9
Q 139.7 124.4 139.7 124.65 139.7 125.9 140.45 124.9 143 123.75 143.95 122.75
M 128.3 117.7
Q 128.8 118.25 130.35 119.65 131.2 120.4 131.75 121.45 132.35 122.5 134.95 123.6 137.25 124.6 138.7 124.8 137.85 124.15 137.6 123.9 135.2 123.35 133.9 122.25 133.05 121.5 132.4 120.2 131.9 119.25 130.6 118.4 129.4 117.65 128.55 117.45 128.55 117.6 128.3 117.7
M 110.3 117.7
Q 110.25 117.85 110.1 117.8 110.05 117.8 110.05 118.45 110.05 119.7 110.3 119.2 112.8 119.2 112.8 117.55 112.8 115.8 113.65 114.75
L 113.3 114
Q 112.6 114.25 112 115.35 111.3 116.55 111.55 117.35
L 110.3 117.7 Z"/>
</g>

<g id="Layer0_0_FILL">
<path fill="#B8BE79" stroke="none" d="
M 25 230.05
Q 25 235.05 30 235.05
L 215 235.05
Q 220 235.05 220 230.05
L 220 203.05
Q 220 198.05 215 198.05
L 30 198.05
Q 25 198.05 25 203.05
L 25 230.05 Z"/>
</g>

<g id="Layer0_1_FILL">
<path fill="#3B3D35" stroke="none" d="
M 176.05 218.75
Q 175.05 218.75 174.2 219.05 173.35 219.4 172.7 220 172.1 220.6 171.8 221.45 171.45 222.3 171.45 223.35 171.45 224.45 171.8 225.3 172.1 226.2 172.7 226.8 173.35 227.4 174.2 227.7 175.05 228.05 176.05 228.05 177.1 228.05 177.95 227.7 178.8 227.4 179.4 226.8 180 226.2 180.35 225.3 180.65 224.45 180.65 223.35 180.65 222.3 180.35 221.45 180 220.6 179.4 220 178.8 219.4 177.95 219.05 177.1 218.75 176.05 218.75
M 174.65 221.4
Q 175.1 220.75 176.05 220.75 177 220.75 177.45 221.4 177.9 222.05 177.9 223.4 177.9 224.7 177.45 225.4 177 226.05 176.05 226.05 175.1 226.05 174.65 225.4 174.25 224.7 174.25 223.4 174.25 222.05 174.65 221.4
M 176.9 215.1
Q 176.5 215.1 176.3 215.2 176.1 215.35 175.95 215.6
L 174.75 217.75 176.4 217.75
Q 176.7 217.75 176.85 217.65
L 177.25 217.35 179.5 215.1 176.9 215.1
M 168.6 216.25
L 167.2 216.25
Q 166.7 216.25 166.6 216.7
L 166.05 218.9 164.65 219.15 164.65 220.2
Q 164.65 220.5 164.75 220.6 164.9 220.75 165.15 220.75
L 165.9 220.75 165.9 225.4
Q 165.9 226 166.05 226.5 166.25 226.95 166.6 227.3 166.9 227.65 167.4 227.85 167.9 228.05 168.55 228.05 169.25 228.05 169.9 227.85 170.55 227.65 171.05 227.25
L 170.25 226 170.1 225.8 169.9 225.75 169.45 225.9 169.2 225.95
Q 168.9 225.95 168.75 225.75 168.6 225.55 168.6 225.2
L 168.6 220.75 170.85 220.75 170.85 218.9 168.6 218.9 168.6 216.25
M 194 220
Q 193.4 220.6 193.1 221.45 192.75 222.3 192.75 223.35 192.75 224.45 193.1 225.3 193.4 226.2 194 226.8 194.65 227.4 195.5 227.7 196.35 228.05 197.35 228.05 198.4 228.05 199.25 227.7 200.1 227.4 200.7 226.8 201.3 226.2 201.65 225.3 201.95 224.45 201.95 223.35 201.95 222.3 201.65 221.45 201.3 220.6 200.7 220 200.1 219.4 199.25 219.05 198.4 218.75 197.35 218.75 196.35 218.75 195.5 219.05 194.65 219.4 194 220
M 195.95 221.4
Q 196.4 220.75 197.35 220.75 198.3 220.75 198.75 221.4 199.2 222.05 199.2 223.4 199.2 224.7 198.75 225.4 198.3 226.05 197.35 226.05 196.4 226.05 195.95 225.4 195.55 224.7 195.55 223.4 195.55 222.05 195.95 221.4
M 191.35 218.9
L 188.7 218.9 188.7 227.9 191.35 227.9 191.35 218.9
M 186.75 218.7
Q 186.05 218.7 185.5 219.1 184.95 219.55 184.55 220.25
L 184.4 219.5 184.3 219.2 184.2 219 183.95 218.9 182 218.9 182 227.9 184.7 227.9 184.7 222.4
Q 184.95 221.85 185.3 221.55 185.65 221.25 186.25 221.25
L 186.75 221.25 186.95 221.3 187.15 221.3 187.4 221.25
Q 187.5 221.15 187.55 221
L 187.75 219
Q 187.35 218.7 186.75 218.7
M 189.4 214.95
Q 189.1 215.05 188.85 215.3 188.65 215.5 188.5 215.8 188.4 216.05 188.4 216.4 188.4 216.75 188.5 217 188.65 217.3 188.85 217.5 189.1 217.7 189.4 217.85 189.65 218 190 218 190.35 218 190.65 217.85 190.95 217.7 191.15 217.5 191.4 217.3 191.5 217 191.65 216.75 191.65 216.4 191.65 216.05 191.5 215.8 191.4 215.5 191.15 215.3 190.95 215.05 190.65 214.95 190.35 214.85 190 214.85 189.65 214.85 189.4 214.95
M 60.7 218.9
L 58.05 218.9 58.05 227.9 60.7 227.9 60.7 218.9
M 49.05 221.35
Q 49.45 221.75 49.95 222
L 52.95 223.05
Q 53.35 223.25 53.6 223.5 53.8 223.8 53.8 224.25 53.8 225 53.35 225.35 52.95 225.7 52.15 225.7 51.55 225.7 51.1 225.55
L 49.75 224.8
Q 49.45 224.65 49.2 224.65 49 224.65 48.85 224.75
L 48.55 225 47.7 226.35
Q 48.05 226.75 48.55 227.05 49.05 227.35 49.65 227.6 50.25 227.8 50.85 227.9 51.45 228.05 52.05 228.05 53.1 228.05 53.95 227.7 54.8 227.4 55.4 226.8 56 226.25 56.3 225.5 56.6 224.7 56.6 223.85 56.6 223.05 56.35 222.5 56.1 221.95 55.7 221.55 55.3 221.15 54.8 220.9
L 51.8 219.8
Q 51.4 219.6 51.15 219.35 50.95 219.1 50.95 218.7 50.95 218.1 51.35 217.75 51.75 217.4 52.55 217.4 53.05 217.4 53.4 217.55
L 54.1 217.8 54.6 218.1
Q 54.85 218.2 55.05 218.2 55.25 218.2 55.4 218.1
L 55.7 217.8 56.4 216.45
Q 56.05 216.15 55.65 215.85
L 53.65 215.15 52.55 215.1
Q 51.5 215.1 50.7 215.4 49.85 215.7 49.3 216.25 48.75 216.8 48.45 217.45 48.2 218.15 48.2 218.85 48.2 219.75 48.45 220.35 48.65 220.95 49.05 221.35
M 69.75 220.6
Q 69.9 220.75 70.15 220.75
L 70.9 220.75 70.9 225.4
Q 70.9 226 71.05 226.5 71.25 226.95 71.6 227.3 71.9 227.65 72.4 227.85 72.9 228.05 73.55 228.05 74.25 228.05 74.9 227.85 75.55 227.65 76.05 227.25
L 75.25 226 75.1 225.8 74.9 225.75 74.45 225.9 74.2 225.95
Q 73.9 225.95 73.75 225.75 73.6 225.55 73.6 225.2
L 73.6 220.75 75.85 220.75 75.85 218.9 73.6 218.9 73.6 216.25 72.2 216.25
Q 71.7 216.25 71.6 216.7
L 71.05 218.9 69.65 219.15 69.65 220.2
Q 69.65 220.5 69.75 220.6
M 62.25 221.6
Q 62.25 222.2 62.4 222.65 62.6 223.1 62.9 223.4 63.2 223.7 63.55 223.85
L 65.75 224.7 66.25 225
Q 66.45 225.15 66.45 225.45
L 66.35 225.75 66.2 226 65.85 226.15 65.3 226.2
Q 64.85 226.2 64.55 226.1
L 64.05 225.9 63.65 225.65
Q 63.45 225.55 63.25 225.55 63 225.55 62.8 225.65
L 62.55 225.95 61.95 226.9 62.55 227.35 63.35 227.7 64.25 227.95 65.15 228.05
Q 66.1 228.05 66.8 227.8 67.5 227.6 68 227.2 68.45 226.75 68.7 226.2 68.95 225.65 68.95 224.95 68.95 224.4 68.8 224.05 68.6 223.65 68.3 223.35 68 223.1 67.65 222.9
L 66.85 222.55 65.45 222.1 64.95 221.8
Q 64.8 221.65 64.8 221.4 64.8 221.05 65.05 220.85 65.35 220.65 65.85 220.65
L 66.5 220.7 67.4 221.1 67.8 221.15 68.05 221.1 68.3 220.85 68.9 219.9 68.3 219.45 67.6 219.05 66.75 218.85 65.8 218.75
Q 64.9 218.75 64.2 218.95 63.55 219.2 63.1 219.6 62.65 220 62.45 220.5 62.25 221 62.25 221.6
M 61 216.4
Q 61 216.05 60.85 215.8 60.75 215.5 60.5 215.3 60.3 215.05 60 214.95 59.7 214.85 59.35 214.85 59 214.85 58.75 214.95 58.45 215.05 58.2 215.3 58 215.5 57.85 215.8 57.75 216.05 57.75 216.4 57.75 216.75 57.85 217 58 217.3 58.2 217.5 58.45 217.7 58.75 217.85 59 218 59.35 218 59.7 218 60 217.85 60.3 217.7 60.5 217.5 60.75 217.3 60.85 217 61 216.75 61 216.4
M 91 218.75
L 90.3 218.8 89.7 219.05 89.15 219.4 88.7 219.8 88.55 219.35
Q 88.4 218.9 87.9 218.9
L 86.2 218.9 86.2 227.9 88.9 227.9 88.9 221.4
Q 89.2 221.1 89.5 220.95 89.85 220.75 90.2 220.75 90.8 220.75 91.1 221.1 91.4 221.4 91.4 222.15
L 91.4 227.9 94.1 227.9 94.1 222.15
Q 94.1 221.5 94.45 221.15 94.85 220.75 95.4 220.75 96.6 220.75 96.6 222.15
L 96.6 227.9 99.3 227.9 99.3 222.15
Q 99.3 221.35 99.05 220.7 98.85 220.1 98.45 219.65 98.05 219.2 97.45 218.95 96.85 218.75 96.1 218.75
L 95.25 218.85
Q 94.8 218.9 94.45 219.1 94.05 219.3 93.75 219.55 93.4 219.85 93.2 220.3 92.9 219.6 92.35 219.15 91.85 218.75 91 218.75
M 83.8 219.85
Q 83.25 219.3 82.55 219 81.8 218.75 80.9 218.75 79.85 218.75 79.05 219.1 78.2 219.45 77.65 220.05 77.05 220.65 76.75 221.5 76.45 222.3 76.45 223.2 76.45 224.4 76.8 225.3 77.15 226.2 77.8 226.8 78.4 227.4 79.25 227.75 80.05 228.05 81 228.05
L 82 228 83 227.75
Q 83.5 227.55 84 227.25 84.45 226.95 84.9 226.5
L 84.1 225.5
Q 83.95 225.3 83.6 225.3 83.35 225.3 83.15 225.4
L 82.05 225.9
Q 81.75 226 81.25 226 80.4 226 79.8 225.5 79.25 225 79.15 223.85
L 84.65 223.85 84.8 223.65 84.9 223.35 84.95 222.85
Q 84.95 221.9 84.65 221.15 84.35 220.35 83.8 219.85
M 81.7 220.75
Q 82 220.9 82.2 221.15 82.35 221.4 82.45 221.7
L 82.5 222.3 79.15 222.3
Q 79.3 221.5 79.75 221.05 80.2 220.6 80.95 220.6 81.4 220.6 81.7 220.75
M 116.05 219.1
Q 115.2 219.45 114.65 220.1 114.1 220.7 113.8 221.55 113.5 222.4 113.5 223.35 113.5 224.5 113.85 225.35 114.15 226.2 114.75 226.8 115.3 227.4 116.05 227.75 116.8 228.05 117.65 228.05
L 118.6 228
Q 119.05 227.9 119.55 227.75 120.05 227.55 120.5 227.25 120.95 226.95 121.4 226.5
L 120.6 225.5
Q 120.4 225.3 120.1 225.3 119.85 225.3 119.7 225.4
L 118.9 225.95
Q 118.6 226.05 118.15 226.05 117.25 226.05 116.75 225.35 116.25 224.65 116.25 223.35 116.25 222.75 116.35 222.25 116.5 221.75 116.7 221.45 116.95 221.1 117.3 220.9 117.7 220.7 118.15 220.7 118.55 220.7 118.85 220.8
L 119.7 221.25
Q 119.85 221.35 120.05 221.35 120.25 221.35 120.35 221.25
L 120.6 221 121.3 220.05
Q 120.65 219.4 119.85 219.1 119.05 218.75 118 218.75 116.9 218.75 116.05 219.1
M 106.25 218.95
Q 105.6 218.7 104.75 218.7 103.65 218.7 102.6 219.05 101.65 219.4 100.8 220.15
L 101.3 221 101.6 221.3
Q 101.8 221.45 102.1 221.45 102.4 221.45 102.6 221.35
L 103.65 220.85
Q 103.95 220.75 104.4 220.75 105 220.75 105.35 221.1 105.65 221.45 105.65 222.25
L 105.65 222.65
Q 104.1 222.7 103.1 222.95 102.1 223.25 101.5 223.65 100.9 224.05 100.65 224.55 100.4 225.05 100.4 225.55 100.4 226.15 100.6 226.65 100.8 227.1 101.15 227.4 101.5 227.7 102 227.85 102.5 228.05 103.1 228.05
L 103.95 227.95 104.65 227.75 105.95 226.85 106.15 227.35
Q 106.3 227.7 106.5 227.8 106.7 227.9 107.05 227.9
L 108.3 227.9 108.3 222.25
Q 108.3 221.5 108.05 220.85 107.8 220.2 107.35 219.7 106.9 219.25 106.25 218.95
M 105.65 224.25
L 105.65 225.5
Q 105.25 225.9 104.85 226.05 104.5 226.25 103.95 226.25 103.45 226.25 103.25 226.05 102.95 225.9 102.95 225.4 102.95 225.2 103.1 225 103.2 224.8 103.5 224.65 103.8 224.5 104.35 224.35
L 105.65 224.25
M 136 222.25
Q 136.15 221.75 136.35 221.45 136.6 221.1 136.95 220.9 137.35 220.7 137.8 220.7 138.2 220.7 138.5 220.8
L 139.35 221.25
Q 139.5 221.35 139.7 221.35 139.9 221.35 140 221.25
L 140.25 221 140.95 220.05
Q 140.3 219.4 139.5 219.1 138.7 218.75 137.65 218.75 136.55 218.75 135.7 219.1 134.85 219.45 134.3 220.1 133.75 220.7 133.45 221.55 133.15 222.4 133.15 223.35 133.15 224.5 133.5 225.35 133.8 226.2 134.4 226.8 134.95 227.4 135.7 227.75 136.45 228.05 137.3 228.05
L 138.25 228
Q 138.7 227.9 139.2 227.75 139.7 227.55 140.15 227.25 140.6 226.95 141.05 226.5
L 140.25 225.5
Q 140.05 225.3 139.75 225.3 139.5 225.3 139.35 225.4
L 138.55 225.95
Q 138.25 226.05 137.8 226.05 136.9 226.05 136.4 225.35 135.9 224.65 135.9 223.35 135.9 222.75 136 222.25
M 129.4 219.5
L 129.3 219.2 129.2 219 128.95 218.9 127 218.9 127 227.9 129.7 227.9 129.7 222.4
Q 129.95 221.85 130.3 221.55 130.65 221.25 131.25 221.25
L 131.75 221.25 131.95 221.3 132.15 221.3 132.4 221.25
Q 132.5 221.15 132.55 221
L 132.75 219
Q 132.35 218.7 131.75 218.7 131.05 218.7 130.5 219.1 129.95 219.55 129.55 220.25
L 129.4 219.5
M 125.15 218.9
L 122.5 218.9 122.5 227.9 125.15 227.9 125.15 218.9
M 125.45 216.4
Q 125.45 216.05 125.3 215.8 125.2 215.5 124.95 215.3 124.75 215.05 124.45 214.95 124.15 214.85 123.8 214.85 123.45 214.85 123.2 214.95 122.9 215.05 122.65 215.3 122.45 215.5 122.3 215.8 122.2 216.05 122.2 216.4 122.2 216.75 122.3 217 122.45 217.3 122.65 217.5 122.9 217.7 123.2 217.85 123.45 218 123.8 218 124.15 218 124.45 217.85 124.75 217.7 124.95 217.5 125.2 217.3 125.3 217 125.45 216.75 125.45 216.4
M 156.15 220.15
L 156.65 221 156.95 221.3
Q 157.15 221.45 157.45 221.45 157.75 221.45 157.95 221.35
L 159 220.85
Q 159.3 220.75 159.75 220.75 160.35 220.75 160.7 221.1 161 221.45 161 222.25
L 161 222.65
Q 159.45 222.7 158.45 222.95 157.45 223.25 156.85 223.65 156.25 224.05 156 224.55 155.75 225.05 155.75 225.55 155.75 226.15 155.95 226.65 156.15 227.1 156.5 227.4 156.85 227.7 157.35 227.85 157.85 228.05 158.45 228.05
L 159.3 227.95 160 227.75 161.3 226.85 161.5 227.35
Q 161.65 227.7 161.85 227.8 162.05 227.9 162.4 227.9
L 163.65 227.9 163.65 222.25
Q 163.65 221.5 163.4 220.85 163.15 220.2 162.7 219.7 162.25 219.25 161.6 218.95 160.95 218.7 160.1 218.7 159 218.7 157.95 219.05 157 219.4 156.15 220.15
M 159.7 224.35
L 161 224.25 161 225.5
Q 160.6 225.9 160.2 226.05 159.85 226.25 159.3 226.25 158.8 226.25 158.6 226.05 158.3 225.9 158.3 225.4 158.3 225.2 158.45 225 158.55 224.8 158.85 224.65 159.15 224.5 159.7 224.35
M 154.6 214.9
L 151.9 214.9 151.9 227.9 154.6 227.9 154.6 214.9
M 150.15 218.9
L 147.45 218.9 147.45 225.3
Q 147.1 225.65 146.7 225.8 146.3 226 145.85 226 145.3 226 145 225.65 144.7 225.25 144.7 224.6
L 144.7 218.9 141.95 218.9 141.95 224.6
Q 141.95 225.35 142.2 226 142.35 226.6 142.75 227.05 143.15 227.55 143.75 227.8 144.3 228.05 145.05 228.05
L 145.85 227.95 146.55 227.75 147.1 227.4 147.65 226.9 147.8 227.45
Q 148 227.9 148.5 227.9
L 150.15 227.9 150.15 218.9 Z"/>
</g>
</defs>

<g transform="matrix( 1, 0, 0, 1, -37,-30.05) ">
<use xlink:href="#Layer4_0_FILL"/>
</g>

<g transform="matrix( 1, 0, 0, 1, 0,0) ">
<use xlink:href="#Layer4_1_FILL"/>
</g>

<g transform="matrix( 1, 0, 0, 1, 0,0) ">
<use xlink:href="#Layer2_0_FILL"/>
</g>

<g transform="matrix( 1, 0, 0, 1, 0,6) ">
<use xlink:href="#Layer0_0_FILL"/>
</g>

<g transform="matrix( 1, 0, 0, 1, 0,0) ">
<use xlink:href="#Layer0_1_FILL"/>
</g>
</svg>
