
<svg xmlns="http://www.w3.org/2000/svg" version="1.1" xmlns:xlink="http://www.w3.org/1999/xlink" preserveAspectRatio="none" x="0px" y="0px" width="300px" height="320px" viewBox="0 0 300 320">
<defs>
<g id="flash0_ai_04_Fonte__Clip_Group__0_Layer3_0_FILL">
<path fill="#E1C99B" stroke="none" d="
M 125.85 276.75
Q 125.2 276.1 124.35 276.1 123.45 276.1 122.8 276.75 122.15 277.35 122.15 278.25 122.15 279.15 122.8 279.8 123.45 280.4 124.35 280.4 125.2 280.4 125.85 279.8 126.5 279.15 126.5 278.25 126.5 277.35 125.85 276.75
M 81.9 246.3
Q 82 247 82.55 247.4 83.1 247.8 83.8 247.7 93.8 246.35 104.65 255.15 112.9 261.9 118.75 271.55 119.25 272.35 120.15 272.35 120.6 272.35 121 272.1 121.6 271.75 121.75 271.05 121.95 270.4 121.55 269.8 115.3 259.45 106.3 252.3 94.45 242.9 83.3 244.45 82.65 244.55 82.25 245.1 81.85 245.6 81.9 246.3
M 261.25 182.9
Q 261.9 183.5 262.8 183.5 263.65 183.5 264.3 182.9 264.95 182.25 264.95 181.35 264.95 180.45 264.3 179.85 263.65 179.2 262.8 179.2 261.9 179.2 261.25 179.85 260.6 180.45 260.6 181.35 260.6 182.25 261.25 182.9
M 267.55 133
Q 270.35 138.55 271.55 145.2 273.2 154.05 272.55 161.5 271.75 170.4 267.7 173.65 267.15 174.05 267.1 174.75 267 175.45 267.45 176 267.9 176.6 268.75 176.6 269.35 176.6 269.75 176.25 275.45 171.7 276 159.9 276.3 152.9 274.85 144.6 273.5 137.35 270.4 131.35 265.95 122.65 258.6 118.2 258.05 117.85 257.35 118 256.7 118.15 256.35 118.75 256 119.35 256.15 120 256.3 120.65 256.9 121 263.55 125.1 267.55 133
M 206.45 97.5
Q 195 87.4 181.5 64 173.2 49.5 170.75 45.65 164.4 35.5 158.25 28.7 144.7 13.75 125.3 6.15 105.8 -1.5 85.7 0.35 65.6 2.2 47.85 13.2 30.1 24.15 19.5 41.35 10.6 55.85 6.45 75.3 3.1 91.15 2.65 111.9 2.55 115.75 3 148.65 3.25 170.9 1.65 185.3 -0.25 202.85 0.1 209.25 0.8 222.6 7.95 229.9 14.8 236.95 26.8 237.8 36.35 238.45 48.45 235.15 68.1 229.8 69.45 229.55 81.5 227.15 90.4 229.65 98.95 232.05 107.75 239.85 110.15 241.9 122.35 254.65 138.6 271.5 156.4 271.15 175.6 270.75 185.55 249.6 185.95 248.8 192.6 232.1 196.8 221.55 201.35 215.6 206.85 208.3 217.35 201.45 223.45 197.45 236.05 190.15 237.2 189.45 241.25 186.65 260.15 173 261.55 157.1 262.4 147.15 256.3 137.2 251.05 128.55 241.7 121.4 237 117.85 223.85 109.75 212.35 102.65 206.45 97.5 Z"/>
</g>

<g id="Mask_flash0_ai_04_Fonte__Clip_Group__0_2_MASK_0_FILL">
<path fill="#FFFFFF" stroke="none" d="
M 125.85 276.75
Q 125.2 276.1 124.35 276.1 123.45 276.1 122.8 276.75 122.15 277.35 122.15 278.25 122.15 279.15 122.8 279.8 123.45 280.4 124.35 280.4 125.2 280.4 125.85 279.8 126.5 279.15 126.5 278.25 126.5 277.35 125.85 276.75
M 81.9 246.3
Q 82 247 82.55 247.4 83.1 247.8 83.8 247.7 93.8 246.35 104.65 255.15 112.9 261.9 118.75 271.55 119.25 272.35 120.15 272.35 120.6 272.35 121 272.1 121.6 271.75 121.75 271.05 121.95 270.4 121.55 269.8 115.3 259.45 106.3 252.3 94.45 242.9 83.3 244.45 82.65 244.55 82.25 245.1 81.85 245.6 81.9 246.3
M 261.25 182.9
Q 261.9 183.5 262.8 183.5 263.65 183.5 264.3 182.9 264.95 182.25 264.95 181.35 264.95 180.45 264.3 179.85 263.65 179.2 262.8 179.2 261.9 179.2 261.25 179.85 260.6 180.45 260.6 181.35 260.6 182.25 261.25 182.9
M 267.55 133
Q 270.35 138.55 271.55 145.2 273.2 154.05 272.55 161.5 271.75 170.4 267.7 173.65 267.15 174.05 267.1 174.75 267 175.45 267.45 176 267.9 176.6 268.75 176.6 269.35 176.6 269.75 176.25 275.45 171.7 276 159.9 276.3 152.9 274.85 144.6 273.5 137.35 270.4 131.35 265.95 122.65 258.6 118.2 258.05 117.85 257.35 118 256.7 118.15 256.35 118.75 256 119.35 256.15 120 256.3 120.65 256.9 121 263.55 125.1 267.55 133
M 206.45 97.5
Q 195 87.4 181.5 64 173.2 49.5 170.75 45.65 164.4 35.5 158.25 28.7 144.7 13.75 125.3 6.15 105.8 -1.5 85.7 0.35 65.6 2.2 47.85 13.2 30.1 24.15 19.5 41.35 10.6 55.85 6.45 75.3 3.1 91.15 2.65 111.9 2.55 115.75 3 148.65 3.25 170.9 1.65 185.3 -0.25 202.85 0.1 209.25 0.8 222.6 7.95 229.9 14.8 236.95 26.8 237.8 36.35 238.45 48.45 235.15 68.1 229.8 69.45 229.55 81.5 227.15 90.4 229.65 98.95 232.05 107.75 239.85 110.15 241.9 122.35 254.65 138.6 271.5 156.4 271.15 175.6 270.75 185.55 249.6 185.95 248.8 192.6 232.1 196.8 221.55 201.35 215.6 206.85 208.3 217.35 201.45 223.45 197.45 236.05 190.15 237.2 189.45 241.25 186.65 260.15 173 261.55 157.1 262.4 147.15 256.3 137.2 251.05 128.55 241.7 121.4 237 117.85 223.85 109.75 212.35 102.65 206.45 97.5 Z"/>
</g>

<g id="Layer1_1_FILL">
<path fill="#43463D" stroke="none" d="
M 279.8 2.95
L 277.3 2.95
Q 276.6671875 3.7873046875 275.85 5 270.95 12.2 264.05 20.55 259.7 25.7 251.15 35.25
L 247.9 38.85
Q 247.45546875 38.1642578125 246.2 37.35 241.3 34.5 238.6 33.15 234.35 30.95 230.65 29.7 227 28.5 222.05 27.65 221.722265625 27.5890625 221.3 27.5 218.89375 27.1126953125 213.3 26.35 205.45 25.15 201.5 24.6 200.24375 24.4244140625 199.05 24.25 193.7578125 23.60390625 189.6 23.4 175.95 22.7 166.1 26.55 162.6904296875 27.8787109375 159.2 29.95 155.71484375 32.083203125 152.15 34.95 148.617578125 37.7681640625 143.05 43.1
L 145.85 38.5
Q 147.35 36.05 148.1 34.45 149.3 31.7 149.5 31.3 149.85 30.7 151 29.25 151.95 28 152.35 27.15 152.75 26.25 153.2 24.1 153.6 22.05 154.15 21.05 155.1 19.4 158 17.75 163.05 14.9 169 13.2 171.1 12.65 171.25 11.5 166.2 12.45 162.8 13.7 160.30234375 14.55078125 158.2 15.65 158.4212890625 15.0044921875 158.6 14.2 159.25 11.5 160.1 10.5 160.45 10.1 161.3 9.4 161.95 8.75 162.15 8.1 162.3 7.6 162.15 6.7 162 5.65 162.05 5.2 162.15 4.15 163.2 3.15 163.290625 3.070703125 163.45 2.95
L 161.25 2.95
Q 159.9365234375 4.6578125 160.35 6.45 160.55 7.15 160.5 7.45 160.4 7.75 159.45 8.35 157.9 9.35 156.95 12.9 156.323046875 15.1439453125 156.55 16.6 155.775390625 17.1060546875 155.05 17.65 152.8 19.35 152.2 21 152 21.6 151.8 22.85 151.6 24.1 151.35 24.7 151.05 25.5 150 27 147.9 29.9 146.25 33.35 144.85 36.55 144.15 37.6 143.95 37.95 142.5 40.05 141.5 41.55 141.05 42.65 140.6361328125 43.7625 140.75 44.55 140.6515625 44.680859375 140.55 44.85
L 126.5 70.65
Q 119.8 82.95 116.9 89.3 111.9 100.1 109.5 109.8 109.4728515625 109.88828125 109.45 109.95 108.8076171875 110.0447265625 108.2 110.15 108.5599609375 109.3251953125 108.75 108.1 109.05 106 110.55 93.95 111.64296875 85.404296875 112.7 79.9 112.74296875 79.884765625 112.75 79.85
L 115 69.3
Q 116.25 63 117.15 55.05 117.4841796875 51.875 117.9 46.5 118.1513671875 43.883203125 118.4 40.7 118.95 33.25 118.95 29.5 119 23.3 118 18.45 116.5 12.8 116.1 9.9 115.5935546875 5.8484375 116.7 2.95
L 115.25 2.95
Q 114.567578125 6.4197265625 115.05 11.1 115.35 13.9 116.3 19.5 117.45 28.1 116.75 38.95 116.6220703125 40.995703125 116.35 43.7 115.838671875 49.52109375 114.75 58.4 113.65 67 112.7 71.25 112.35 73.05 111.35 77.05 110.4 80.8 110 82.85 109.6494140625 84.6462890625 108.9 89.9 108.811328125 90.6396484375 108.7 91.45
L 106.9 106.1
Q 106.534375 108.6955078125 106.7 110.4 104.1609375 111.0357421875 102.35 112.2 101.09921875 112.9853515625 99.55 114.6 98.42578125 115.7896484375 97.15 117.4
L 96.1 118.65
Q 95.2873046875 118.549609375 94.25 118.65 93.45 118.7 91.6 119
L 83.2 120.65
Q 81.65 121 81.35 121.7 81.5 122.2 82.45 122.2 85.35 122.1 87.85 121.7 89.05 121.5 91.45 120.9 93.3916015625 120.5029296875 94.75 120.35
L 91.95 123.85
Q 85.75 125.05 79.75 127.55 78.35 128.15 77.95 128.95 77.65 129.6 77.9 130.7 77.9984375 131.180078125 78.1 131.6 78.211328125 131.88203125 78.3 132.1 78.7232421875 133.2078125 79.4 134.1 80.77734375 136.04453125 83 137.15 86.304296875 138.8595703125 91.45 138.8 94.4830078125 138.7767578125 97.4 138.2 100.9873046875 138.0732421875 104.65 137.55
L 111.35 136.5
Q 112.45 136.3 113 136.1 113.3 136 114.3 135.35
L 115.75 134.35
Q 116.5 133.8 116.4 133.35 116.3728515625 133.18671875 116.25 133.05 116.77890625 133.05 117.4 133.05
L 122.65 133.1 125.25 133.1
Q 125.6587890625 133.46015625 126.2 133.8
L 129.85 136.05
Q 131.35 136.9 132 137.6 132.8 138.5 133.7 140.8 133.15 143.05 131.2 144.85 129.4 146.45 126.95 147.25 124.85 147.9 122.2 148 120.3 148.1 117.3 147.9 116.665234375 147.873046875 116.1 147.8 114.571875 147.678515625 113.55 147.35 113.1 147.2 110.5 145.9 109 145.15 105.4 143.75 104.5 143.45 104.05 143.5 103.2 143.6 103.1 144.35
L 106.35 146
Q 105.9212890625 145.9443359375 105.5 145.9 105.6 146.45 106.9 147.1 107.5 147.4 108.55 148.2 110.95 149.75 115.05 150.65 116.03125 150.865234375 116.95 151 121.412890625 151.8310546875 124.6 151.5
L 126.4 151.25
Q 130.05 150.45 132.25 148.6 134.35 146.85 134.3 144.8
L 134.25 144.8
Q 135.5037109375 143.2287109375 135.75 141.8 136.3 138.5 132.85 135.55 131.596484375 134.4357421875 129.4 133.15
L 132.75 133.2
Q 134.1 133.2 134.75 133 135.1443359375 132.845703125 135.4 132.6 135.881640625 133.0796875 136.6 133.6 141.55 137.3 146.4 144.8 146.846875 145.4875 147.25 145.85 147.143359375 146.36171875 147 147.25 146.9 147.9 146.2 150.1 145.65 151.65 144.7 155.35
L 144.1 157.7
Q 142.7853515625 158.476953125 141.35 159.4 141.1431640625 159.5818359375 140.9 159.75 138.9 161.1 135.05 164.2
L 125.3 172.1 115.45 180.15
Q 110.05 184.4 109.1 185.1 104.6 188.45 96.75 193.3 94.019921875 194.966015625 91.8 196.3 91.7521484375 196.132421875 91.6 195.95 91.35 195.7 90.55 195.35 87.395703125 194.0078125 84.85 192.8 84.8943359375 191.9583984375 84.65 190.9 84.3 189.35 84.1 188.6 83.5 185.8 83.6 180.75 83.6 179.79375 83.65 178.85 83.92734375 178.0599609375 84.2 177.25 86.332421875 171.466796875 89.05 165.6 89.75 164.2 90 163.45
L 90.2 162.8 90.7 161.4
Q 90.9 160.8 91.5 159.6 93.9291015625 154.741796875 96.55 149.95 99.9544921875 148.316015625 104.15 146.95 105.25 146.5 105.25 145.9 105.2 145.45 104.6 145.25 104.1 145.1 103.1 145.4 100.4 146.25 94.15 149.1 93.3 149.55 93.05 149.9 92.85 150.15 92.9 150.55 92.9 150.9 93.15 151.1 93.5921875 151.080859375 94.15 150.9 92.956640625 152.25859375 91.9 154.3 90.7423828125 156.470703125 88.2 163.3 88.0953125 163.544140625 88 163.8
L 85.1 170.8
Q 84.5494140625 172.13046875 84.15 173.15
L 84.35 171.1
Q 84.6033203125 166.876953125 84.35 164.2 84.312109375 163.6927734375 84.25 163.25 84.25 163.15 83.95 160.95
L 83.45 157.95
Q 83 158.15 82.8 159 82.5 160.5 83.1 163.6 83.1181640625 163.962890625 83.1 164.45 83.113671875 165.34375 83.05 166.65 83.05 167.0833984375 83.05 168.55 83.05 168.641015625 83.05 168.7 83.1 170 83 170.8
L 82.65 172.6
Q 82.35 174.1 82.05 177.2 81.9 179.95 82 183.35 82 185.7 82.1 186.85
L 82.3 188.75
Q 82.50625 190.7431640625 82.95 191.9 82.7583984375 191.8041015625 82.55 191.7 81.85 191.4 81.4 191.4 81.1 191.45 80.9 191.65 80.65 191.9 80.7 192.15 81.5 193.2 83.55 194.25 87.45 196.4 90 197.35 90.0552734375 197.3671875 90.1 197.35 85.889453125 200.003515625 84.2 201.15 81.7 202.85 80.65 203.95 80.1826171875 204.4173828125 80.25 204.75 79.6806640625 205.22734375 79.1 205.75 77.9 206.85 75.7 209.2 75.354296875 209.5671875 75.05 209.9 74.73125 209.6587890625 74.3 209.4 72.6 208.4 72.15 207.75 71.6 207.05 71.35 205.95 71.3189453125 205.7322265625 71.2 205 71.1755859375 204.5736328125 71.1 203.95 70.5 199.75 68.15 196.35 66.85 194.45 65.55 194.35
L 67.95 198.65
Q 69.05 200.45 69.4 201.8 69.6 202.6 69.8 204.55 69.95 206.35 70.3 207.3 70.580859375 208.077734375 71.05 208.7 71.684375 209.5751953125 72.65 210.2 73.4791015625 210.7365234375 74.35 210.95 74.0154296875 211.60546875 73.95 212.15 73.85 213.55 75.35 215.55 77.1 218 78.65 218.65 79.9283203125 219.2892578125 82 219.1 81.8611328125 219.789453125 81.9 220.8 81.95 222.35 81.85 222.85 81.75 223.6 81.35 225.15 81.2 226.2 81.75 228.55
L 82.05 228.55 82.75 223.7
Q 82.757421875 223.626171875 82.75 223.55
L 84.1 226.3 85.1 227.85
Q 85.4 228.35 85.95 229.35 86.4 230.2 86.9 230.65 86.9 231.05 86.9 231.1 86.9 233.05 87.3 234.45 87.5 234.55 87.6 234.2 87.9494140625 232.9072265625 88.05 231.15 88.1 230.393359375 88.1 229.55
L 88.05 229.05
Q 90.295703125 234.6033203125 91.8 238
L 92.55 239.75 88.35 235.55
Q 84.35 231.55 81.75 229.95 80 228.9 79 229.3 79.1 230.1 80.45 231.05 85.75 234.7 89.55 239.4 90.4755859375 240.55703125 91.2 241.2 89.510546875 241.465625 88 242.15 88.55 242.9 89.65 242.9 90.3 242.95 91.55 242.7 93.1 242.5 95.2 242.95 98.65 243.6 101.85 245 103.35 245.6 103.75 244.9 104.1 244.4 103.6 243.8 103.3 243.45 102.6 243.15 98.65 241.45 95.35 241.1 94.969140625 241.06328125 94.6 241.05
L 91.9 233.65
Q 91.2068359375 231.76875 90.4 229.8 89.63359375 227.770703125 88.75 225.65 88.3 224.6 88 224.1 87.5 223.25 87.45 223.05 87.35 222.1 87.2 221.7 86.9 221.1 86.75 220.75 86.7 219.95 86.65 219.5 86.6224609375 219.2796875 86.55 219.1 86.8419921875 219.0869140625 87.1 219.05 87.1501953125 219.2251953125 87.25 219.35 87.55 219.25 88.2 219.25 88.819921875 219.2056640625 89.1 219.1 89.528125 219.130078125 89.8 219 91.02578125 219.0453125 92.3 219.1 97.05 219.45 98.05 219.5 100.5 219.55 105.3 219.05 106.3 218.95 106.75 218.8
L 107.15 218.65 110.5 219.15
Q 112 219.35 112.75 219.55 113.15 219.65 113.9 219.9 114.6 220.05 115.05 220.1 116.15 220.25 117.45 219.7 118.5 219.35 119.2 218.85 120.4 217.95 121.15 216.25 122.05 214.3 121.7 212.75 121.45 211.55 120.45 210.4 119.85 209.65 118.45 208.5
L 115.15 205.8 128.5 197
Q 129.773046875 196.133203125 130.55 195.4 138.5017578125 192.807421875 147.25 191.45 147.2921875 191.4998046875 147.35 191.55 148.55 192.75 150.8 193.55 151.1509765625 193.6474609375 151.4 193.7 150.49375 195.2251953125 149.4 197.1 145.53671875 203.275 139.7 209.8 135.9623046875 214.0333984375 131.4 218.4 124.65 224.9 110.5 237.3 106.25 241.2 104.55 243.95 102.5890625 247.2796875 102.8 250.35 102.8515625 251.2666015625 103.1 252.15 103.1431640625 252.323046875 103.2 252.5 103.317578125 252.844921875 103.45 253.15 102.53984375 252.918359375 102.05 253 101.969921875 253 101.85 253 101.7115234375 253.04296875 101.5 253.1 101.3845703125 253.14609375 101.25 253.2
L 100.2 253.35
Q 99.35 253.5 98.75 253.85 97.75 254.35 97.45 254.95 97.05 255.55 97.15 256.3 97.15 257.05 97.65 257.95
L 96.3 257.7
Q 92.05 257 89.75 256.15 87.7 255.4 85.35 253.85 84.1 253.05 81.25 250.95
L 70.1 242.5
Q 68.1 241 67.15 240.1 65.65 238.65 64.9 237.1 63.65 234.55 64.05 230.8 64.15 229.95 65.35 224.2 67.05 216.1 66.1 206.15 65.4 198.9 62.9 188.15 61.9 183.65 61.6 181.7 61.1 178.05 61.45 175.15 61.7 173.25 62.6 170.4 63.8 166.45 64 165.65 65.8 158.75 64.5 146.95 62.95 132.55 63.25 127.95 64 121.65 63.85 118.55 63.8 116.55 63.25 113.3 62.6 109.35 62.45 108.05 62.3484375 106.9330078125 62.35 104.7 62.4048828125 104.64765625 62.45 104.55 62.7 104 62.6 103.35 62.5107421875 102.3998046875 62.4 101.4 62.4671875 99.05546875 62.6 95.95 62.95 88.4 61.65 84
L 61.15 92.5
Q 59.9107421875 85.2931640625 57.9 77.25 55.95 69.5 50.6 51.6 41.430078125 20.9263671875 39.8 2.95
L 39.1 2.95
Q 38.623046875 7.1486328125 38.95 11.4 39.3 15.05 40.2 19.45 42.3 30 47.45 47.1 53.65 67.85 55.35 74.6 58.6876953125 87.9970703125 60.6 101.65 60.3611328125 107.326171875 60.75 110.35 60.85 111.05 61.45 114.25 61.9 116.65 61.95 118.2 62 119.8 61.75 122.2 61.6 123.5 61.25 126.15 60.7 131.6 62.1 143.85 63.45 155.35 62.45 161.5 62.2 163.25 60.55 169.9 59.3 175.05 59.25 178.35 59.2 180.65 59.7 183.45 59.95 184.9 60.75 188.5 63.1 199.1 63.8 205.25 64.85 214.6 63.5 222.05 62 230.5 62 230.55 61.5 235.4 63.15 238.6 64.45 241.2 67.75 243.55 68.416796875 244.0412109375 69.35 244.65 69.3 244.809765625 69.3 245 69.35 245.3 69.7 246
L 79.25 260.8
Q 83.05 266.7 85.2 269.5 85.9 270.4 87.25 272.15 88.4 273.75 89.1 274.95 89.6 275.8 90.45 277.55 91.12109375 278.8083984375 91.8 279.6 91.7689453125 280.0134765625 91.85 280.5 91.95 281.2 92.2 282.5 92.2 282.8 92.1 283.7 92.05 284.4 92.1 284.85 92.2 285.5 92.6 286.7 92.6625 287.137109375 92.65 287.8 92.66875 288.2427734375 92.65 288.75 92.7 289.4 93.05 290.55 93.2 291.3 93.2 293.55 93.25 295.05 93.7 297.05 94.25 300.3 94.9 303.3
L 95.65 306.9
Q 96.75 311.5 98.05 316.4 98.8 318.9 99.3 319.75 99.4126953125 319.915234375 99.5 320.05
L 101.3 320.05
Q 101.35 319.8759765625 101.35 319.65 101.35 319.2 101.05 318.5 100 315.75 98.75 310.4 97.2 304.3 96.45 300.25 95.55 295.55 95 291.8 94.9169921875 291.2193359375 94.15 284.95 93.9875 283.67578125 93.8 282.15 93.705859375 281.523046875 93.6 281 95.21171875 281.8837890625 97.3 281.95 99.75 281.95 101.8 280.5 102.56640625 279.9525390625 103.1 279.3
L 109.05 290.35
Q 110.482421875 292.9283203125 111.45 294.15 111.5048828125 294.1958984375 111.55 294.25 111.95 294.8 112.6 295.35 112.5 293.25 110.45 289.45
L 109.8 288.25 104 277.8
Q 104.2373046875 277.3130859375 104.35 276.75 104.5146484375 276.0185546875 104.45 275.15 104.3794921875 273.6529296875 103.65 271.75 101.0763671875 264.776171875 95.85 259.7 99.4234375 260.068359375 100.95 260.45 101.7 260.6 103.75 261.2 105.5 261.75 106.55 261.9 110.05 262.45 112.1 260.75 113.25 259.8 113.55 258.25 113.7685546875 256.851171875 113.05 255.85 114.00625 255.2669921875 115.05 254.4 124.6 246.5 127.45 244.25 134.55 238.6 140.45 234.8 143.6 232.85 145.15 231.8 147.85 230 149.7 228.5 151.3361328125 227.1724609375 153.4 225 155.891796875 223.396484375 158.6 221.7 161.5 219.95 162.5 218.65 163.6 217.25 164.6 214 165.0435546875 212.5001953125 165.3 211.35 165.7494140625 210.7373046875 166.05 210.35 166.09140625 210.5658203125 166.1 210.8 166.15 212.35 166.3 215.5 166.45 222 164.3 232.75 162.3525390625 242.6076171875 159.95 252.3 158.3234375 258.8177734375 156.5 265.25 155.8 267.75 155.75 269.35 155.7 271.65 156.85 273.05 157.5265625 273.90703125 158.75 274.45 158.908203125 274.49609375 159.05 274.55 159.31796875 274.6541015625 159.65 274.75 159.2626953125 276.070703125 158.4 277.7 158.0197265625 278.460546875 157.3 279.75 157.0634765625 280.144921875 156.8 280.6 154.25 285.3 153.3 290.3 154.049609375 289.5505859375 154.55 288.35 154.615234375 288.28203125 154.65 288.2 154.75 287.9 155.5 285.75 156.15 284.05 157.1 282.2
L 159.8 276.6
Q 159.9974609375 276.2048828125 160.15 275.85 160.4130859375 275.407421875 160.6 275 161.1345703125 275.16328125 161.75 275.3 165 276 166.5 275.2 167.9 274.45 168.6 272.6 169.05 271.4 169.35 269.1 170.05 263.7 171.3 260 171.3234375 259.934375 171.35 259.85 171.505078125 259.9974609375 171.75 260.05
L 172.1 259.4
Q 172.8115234375 258.8884765625 173.55 257.75 174.4 256.55 177.1 253.25 179.21171875 250.725 180.25 248.95 180.792578125 249.0134765625 181.35 248.95 181.4697265625 250.7390625 182.55 253.7 185.45 261.55 189.85 275.45 191.3140625 280.0470703125 192.5 283.8 195.4794921875 292.9361328125 197 297.25 200.8 308 205.5 319.15 205.73203125 319.7009765625 205.95 320.05
L 207.85 320.05
Q 207.9072265625 319.65625 207.7 319 206.3 315.1 203 306.4 199.85 298.25 198.3 293.75 197.8119140625 292.346484375 196.5 288.4 194.6591796875 282.631640625 191.1 271.45 186.8 257.85 183.15 249.45
L 182.8 248.7
Q 184.425 248.2115234375 185.45 246.95 186.55 245.55 186.95 243.25 187.05 242.4 187.25 239.15 187.65 232.05 190.35 225.55 191.65 222.7 192.3 221.25 193.4 218.65 193.9 216.8 194.25 215.5 194.6 213.1 194.95 210.5 195.2 209.4 195.85 206.5 197.65 202.9 199.85 198.75 200.9 196.7 204.2 190.55 206.35 184.8 206.5423828125 184.27109375 206.45 183.9 211.5134765625 180.0404296875 215.6 173.75 216.3779296875 172.538671875 217.15 171.2 227.13828125 161.0900390625 235.05 153.2 243.0625 145.2638671875 248.95 139.6 261.634765625 127.484375 269 120.25 275.27734375 114.1330078125 277.75 111.5 280.2138671875 108.86953125 282.5 106.25 282.46796875 106.3341796875 282.45 106.4 290.2 104.35 291.8 103.8 296.754296875 102.11640625 299.95 99.6
L 299.95 97.85
Q 299.790234375 97.9052734375 299.6 97.95 298.75 98.2 295.8 99.85 293.85 100.95 290.9 102 287.55 103.15 285.85 103.75 284.6734375 104.148828125 283.9 104.65 285.309375 102.99375 286.65 101.35 286.95 101.65 287.65 101.35 295.059765625 98.6935546875 299.95 92.5
L 299.95 68.55
Q 275.6509765625 87.462890625 253.4 108.25 245.1 116.05 240.4 121.35 239.60390625 122.259765625 238.85 123.15 233.2771484375 129.823828125 229.8 136.25 227.75 140.05 221.05 157.6 218.5673828125 164.06484375 215.9 168.95 213.1240234375 174.0193359375 210.15 177.4 207.7 180.15 207.25 180.75 206.2275390625 182.16015625 205.8 183.5 205.3810546875 183.4634765625 205.05 183.7 204.65 184 204.3 185.15 203.1 189.25 198.95 196.7 194.75 204.15 193.55 208.2 193.1 209.65 192.2 213.8 191.45 217.35 190.7 219.35 190.2 220.65 189.05 222.9 188.7498046875 223.5130859375 188.5 224.05 188.4486328125 223.9890625 188.4 223.95 188 223.85 187.85 223.7 187.7 223.25 187.55 223.05
L 187.35 223.05
Q 187.15 223.35 187.2 223.55 187.2 223.65 187.4 223.85 187.9 224.35 188.2 224.55
L 188.25 224.55
Q 187.6779296875 225.7703125 187.4 226.45 185.5029296875 230.933984375 185.05 237.25 183.8796875 236.9509765625 182.8 237 182.513671875 237.191015625 182.1 237.3 184.173046875 231.3349609375 185.65 223.95 187.13515625 214.8310546875 188.25 208.45 188.5998046875 208.1060546875 188.95 207.25
L 189.85 205.05
Q 190.4 203.9 190.95 203.2
L 190.6 202.85
Q 190.15 202.85 189.7 203.5 189.2 204.05 189 204.7 188.9 205.1 188.9 205.85 188.851171875 206.290234375 188.45 207.2 189.096875 203.6373046875 189.6 201 189.52265625 201.109765625 189.45 201.2 187.99765625 203.359765625 187 206.4 186.555859375 207.8005859375 186.05 210.05 185.8033203125 211.08046875 185.55 212.3
L 183.85 220.5
Q 182.2 228.5 181.05 232.65 179.2 239.3 176.7 244.25 176.25 245.1 172.85 251.1 170.5 255.25 169.45 258.15 168.8 259.9 167.7 264.9
L 165.95 273
Q 163.2 273.2 161.9 272.9 161.4126953125 272.7833984375 161 272.6 160.9576171875 272.589453125 160.9 272.55 160.9921875 272.4720703125 161.05 272.35 161.5630859375 271.5357421875 162 270.4 162.8 268.05 163.4 266.95 164.35 264.95 166 264.4 166.9 264.2 167.2 263.95 167.45 263.75 167.55 263.45 167.6 263.1 167.4 262.9 167.1 262.65 166.35 262.85 164.45 263.5 163.75 264.05 163.196484375 264.5244140625 162.7 265.4 162.6150390625 265.6384765625 162.5 265.9 161.85 267.1 160.8 269.95 160.1685546875 271.84453125 160.85 272.55 159.5478515625 271.99375 158.85 270.9 158.777734375 270.751171875 158.7 270.6 158 269.05 158.9 265.75 158.9451171875 265.590234375 159 265.4 163.333203125 249.98359375 166.55 233.9 167.55 228.55 167.85 226 168.34375 221.60625 168.15 211.8 168.1525390625 211.6765625 168.15 211.55
L 168 205.75
Q 168 205.1 167.75 204.85 167.61171875 204.7423828125 167.45 204.7 168.10390625 203.4443359375 168.7 202.15 167.428515625 203.0416015625 166.1 204.3 163.5125 206.9470703125 160.8 211.2 155.5 219.45 153.85 221.3 152.8375 222.4541015625 151.55 223.6 150.4373046875 222.85234375 149.3 222.3 147.0775390625 221.188671875 146.5 220.9 146.380859375 220.820703125 146.35 220.8 144.9 219.65 144.2 219.1 142.9 218.1 141.8 218.05 141.45 218.05 141.2 218.25 140.9 218.4 141 218.7 141.15 218.95 141.8 218.95 142.8 219 143.95 220 144.62421875 220.4814453125 145.85 221.5 145.901953125 221.559375 145.95 221.6 146.85 222.2 148.85 223 149.5 223.35 150.8 224.15 150.8583984375 224.179296875 150.9 224.2 150.5078125 224.5650390625 150.05 224.9 145.85859375 227.860546875 141.7 230.9 140.923828125 231.4341796875 140 232.05 126 241.4 113.35 252.7 111.5 254.5 110.1 254.75 108.65 255.05 107.3 254.15 105.9619140625 253.35703125 105.35 251.9
L 105.4 251.95
Q 106.269140625 251.4373046875 107 250.95 107.8849609375 250.398828125 108.55 249.9 110.2 248.65 111.2 248.55 112.7 249.9 114.8 250 115.45 250 115.25 249.65 114.75 249.45 114.1 249 113.4 248.45 113 248.2 111.7 247.2 110.55 247.25 110.0859375 247.32734375 109.6 247.55 109.16015625 247.78671875 108.7 248.15 108.479296875 248.3283203125 108.3 248.45 107.366015625 249.2169921875 107.2 249.3
L 106.25 249.8
Q 105.9841796875 250.0068359375 105.8 250.2 105.65234375 250.386328125 105.55 250.55 105.4787109375 250.651953125 105.4 250.75 105.18984375 251.0806640625 105.15 251.2 105.14375 251.234375 105.15 251.25 105.0794921875 251.0185546875 105 250.75 105.030078125 250.731640625 105 250.7 104.6580078125 248.533984375 105.9 246.05 106.85 244.2 109.65 241.4 113.9 237.15 121.55 230.3 130.4 222.4 133.6 219.35 140.2 213.05 144.7 207.4 145.927734375 205.8681640625 147.05 204.3 150.893359375 199.0568359375 153.45 193.75 154.53359375 191.5056640625 154.4 189.95 154.385546875 189.4955078125 154.25 189.1 153.4232421875 190.364453125 152.25 192.3 152.2275390625 192.270703125 152.2 192.25 151.15 191.35 150.3 191
L 149.45 190.65
Q 149.6 190.467578125 149.6 190.2 149.65 189.55 148.9 189.3 148.25 189.05 147.4 189.15 128.8 191.65 112.45 201 107.75 203.75 98.5 209.7 90.2 214.7 83.7 216.45 80.95 217.15 79.55 216.5 78.2 215.95 76.85 213.9 76.790625 213.8265625 76.7 213.75 76 212.790625 76 212 76.041015625 211.344921875 76.85 210.4 77.166796875 210.67109375 77.7 210.6
L 79 209.85
Q 79.3 209.9 79.7 209.7 79.9 209.6 80.35 209.35 81.15 209 82.9 209.1 83.55 209.1 83.85 209.25 84.2 209.4 84.7 210 84.822265625 210.1630859375 84.95 210.35 85.3673828125 210.9533203125 85.95 211.9 86.7 213 87.55 213.45 88.05 212.5 87.3 211.4 86.4970703125 210.4703125 86.05 209.9 86.0119140625 209.79296875 85.95 209.7 85.55 209 85.3 208.7 84.9 208.1 84.45 207.9 84.2 207.8 82.8 207.8 81.45 207.65 80.75 207.75 79.75 207.9 78.35 208.95
L 78.15 209.1
Q 80.095703125 207.0658203125 81.75 204.8
L 101.3 192.95
Q 104.85 190.85 107.75 188.85 111 186.65 115.3 183.15
L 142.2 161.85
Q 142.56015625 161.3623046875 143.05 160.75 143.598046875 160.0845703125 144.05 159.5
L 144.8 159.05
Q 145.45 158.5 145.7 158 145.8041015625 157.81796875 145.9 157.45 145.982421875 157.4138671875 146.05 157.35 146.73515625 156.66484375 147.3 156.3 147.296875 156.2685546875 147.3 156.2 147.034375 156.30625 146.75 156.4 146.833203125 156.1673828125 146.9 155.9
L 147.6 152.85 149.15 146.4
Q 149.398828125 145.612109375 149.15 145.2 149.1001953125 144.83046875 148.8 144.35
L 146.6 141.05
Q 144.05 137.45 140.95 134.35 138.5 131.9 136.6 131.2 136 130.95 135.45 131 135.2529296875 131.028125 135.1 131.1 133.9439453125 130.75 132.1 130.75
L 117.65 130.7
Q 111.4 130.7 108.45 131.7 107.45 132.05 106.05 132.7
L 103.65 133.8
Q 97.2 136.7 90.35 136.45 86.85 136.35 84.5 135.35 84.3046875 135.2712890625 84.1 135.15 81.3244140625 133.9267578125 80.2 131.35 79.9 130.45 80.05 129.95 80.3 129.3 81.55 128.9
L 89.95 126
Q 90.13515625 125.9453125 90.3 125.9 93.5 125.2 96.95 121.05 98.30546875 119.37109375 99.35 118.1 101.462109375 115.6740234375 102.5 114.8 102.5 114.9123046875 102.5 115.05
L 102.75 115.65 102.85 116.1
Q 102.9 116.55 103.4 117.25
L 103.4 117.8
Q 103.4 118.15 103.55 118.3
L 103.9 118.5 104.05 118.75
Q 104.25 118.85 104.35 118.8 104.05 117.9 104.1 117.15
L 104.15 116.65 103.75 116
Q 103.8 115.6 103.75 115.4 103.5 115 103.4 114.8 103.2755859375 114.5095703125 103.15 114.3 106.2126953125 112.2703125 111.15 111.8 114.2 111.5 120.35 111.3 124.8 110.95 131.05 109.35 134.55 108.4 141.6 106.5 145.85 105.5 156.7 103.8 166.35 102.3 171.75 100.75 181.15 98.1 191.1 92.45 199.05 87.95 208.65 80.65 216.3 74.75 221.3 70.25 227.85 64.45 235.25 56.5 239.2671875 52.269140625 246 44.65 247.1724609375 43.34453125 248.4 41.95
L 259.55 29.35
Q 268.05 19.75 272 14.55 276.273828125 8.8912109375 279.8 2.95
M 247 39.45
Q 247.18203125 39.4900390625 247.35 39.5
L 247 39.85 247.05 39.65
Q 247.05 39.5671875 247 39.45
M 114.15 207.25
Q 114.5 207.6 115.1 208.3 115.15 208.35 117.35 210.15 118.7 211.25 119.15 212.3 119.85 214.05 119 215.7 118 217.35 116.2 217.6 115.6 217.7 113.4 217.35 108.6 216.25 103.4 215.95 101.85 215.8 98.55 215.7
L 92.65 215.5
Q 96.02265625 213.888671875 99.75 211.6 106.2826171875 207.3365234375 110.65 204.7 110.81875 205.151171875 111.4 205.5
L 111.4 205.5 111.45 205.55
Q 111.5626953125 205.6001953125 111.65 205.65 111.7208984375 205.7892578125 111.85 205.9 112.2087890625 206.2376953125 112.7 206.2 112.8826171875 206.273828125 113.05 206.35 113.55 206.65 114.15 207.25
M 89.35 217.05
L 89.2 217.05
Q 89.99375 216.7478515625 90.75 216.4 90.93515625 216.637890625 91.3 216.8 92.2611328125 217.1392578125 93.5 217.3 93.143359375 217.318359375 92.75 217.3 92.385546875 217.2818359375 92.05 217.25 91.5587890625 217.0478515625 90.85 216.95
L 89.65 216.95 89.35 217.05
M 111.8 256.6
Q 111.63984375 256.88125 111.5 257.25 110.85 258.9 110.35 259.3 109.45 260 107.5 259.6
L 98.45 258.05
Q 98.5869140625 257.5482421875 98.1 257.15 98 256 98.45 255.4 98.85 255 99.3 254.85
L 103.3 253.7
Q 103.51328125 253.6224609375 103.65 253.55 104.4208984375 255.0470703125 105.85 256.1 107.85 257.55 110 257.2 110.8314453125 257.0615234375 111.8 256.6
M 181.55 239.6
Q 181.85 239 182.1 238.8 182.4 238.55 183.2 238.35 184.2833984375 238.0791015625 185 238.1 184.9697265625 238.69375 184.95 239.3 184.85 241.35 184.75 241.85 184.55 243.25 184.05 244.25 183.45 245.45 182.3 246.1 181.05 246.75 179.9 246.3 179.0662109375 245.9248046875 178.6 245.7 179.2865234375 244.426953125 179.9 243
L 179.95 243.05 181.55 239.6
M 81.5 253.9
Q 84.6015625 256.4076171875 87.35 257.75 93.1533203125 262.6330078125 97.15 265.4 98.0201171875 266.0142578125 98.7 266.25 99.98125 268.6060546875 101.1 271.55 101.474609375 272.507421875 101.7 273.25 102.0208984375 274.3703125 102.05 275.1 102.15 277.35 100.8 278.5 99.8 279.45 97.6 279.55 95.6 279.55 94.4 278.85 93.25 278.15 92.4 276.5 91.45 274.45 90.95 273.5 90.558203125 272.765234375 89.9 271.9 90.1046875 271.913671875 90.25 271.95 91 272.05 91.9 273.25
L 94.3 276.3 94.55 276.2
Q 94 274.85 92 272.1 91.4 271.4 91.2 271.3 90.5 271.15 90.25 270.9
L 89.25 271.05
Q 88.855078125 270.5611328125 88.35 270 85.75 267.1 85.4 266.65 84.65 265.7 81.85 261.05 80.9552734375 259.5544921875 79.7 257.65 76.57109375 252.9916015625 71.2 245.9 72.3060546875 246.61015625 73.65 247.45 76.4 249.4 81.5 253.9
M 293.95 87.75
Q 292.793359375 89.3830078125 290.95 92 282.3 104.15 267.9 118.55 266.793359375 119.6109375 265.7 120.65 250.35 135.3837890625 242.45 143.05 239.8634765625 145.5767578125 236.55 148.9 231.5470703125 153.9216796875 224.85 160.75 222.4880859375 163.2259765625 219.85 165.9 220.091796875 165.465625 220.3 165 221.3171875 162.79140625 222.3 160.35 225.8 151.05 227.6 146.4 230.85 138.2 234.05 132.95 236.92578125 128.2826171875 241.3 123.3 241.5787109375 123.0025390625 241.85 122.7 245.25 118.9 250.95 113.5 263.4376953125 101.6205078125 275.9 91
L 293.95 87.75
M 114 133.1
Q 114.148046875 133.091796875 114.35 133.05 114.10546875 133.1310546875 113.95 133.1
L 114 133.1
M 245.9 40.95
Q 245.954296875 40.9681640625 246 40.95
L 243.3 44 239.25 48.5
Q 233.25 55.25 229.85 58.85 224.5 64.45 219.85 68.6 214.65 73.3 207.35 78.8 197.75 86.1 190.4 90.35 180.75 95.95 171.75 98.45 166.5 99.9 157.1 101.3 146.55 102.85 142.35 103.8
L 130.05 107.15
Q 122.7 109.15 117.6 109.5 114.0326171875 109.6009765625 111.7 109.75 111.836328125 109.3080078125 111.95 108.75 115 95.6 125.3 76.5 136.6248046875 55.5765625 140.3 47.65 140.6880859375 46.89375 140.95 46.25 141.2732421875 46.1677734375 141.6 45.95 142.4 45.4 153.6 36.75 155.1796875 35.5126953125 156.65 34.4 161.976171875 30.641796875 166.3 28.85 173.75 25.75 183.7 25.7 189.37421875 25.6146484375 198.45 26.7 200.0345703125 26.92265625 201.7 27.15
L 214.9 28.95
Q 216.4611328125 29.166796875 217.85 29.35 222.9240234375 30.134375 225.9 30.8 231.95 32.25 236.3 34.6 238.2 35.65 242 37.9 242.3783203125 38.0890625 242.75 38.25 242.8326171875 38.5130859375 242.9 38.85 243.15 39.55 244.5 40.25
L 245.9 40.95
M 158 284.05
Q 159.15 281.7 159.45 280.8 160.15 278.95 160.15 277.4
L 157.6 282.85
Q 156.1 285.95 155.1 288.6 154.934375 289.0966796875 154.8 289.55 154.4748046875 290.566015625 154.3 291.3 154.1 292.2 154 295 154.45 294.45 155 292.45 155.6251953125 289.88671875 156.65 287.25 157.250390625 285.66171875 158 284.05
M 97.2 61.25
Q 96.55 61.45 96.45 62.85 95.6 79.1 95.35 86.5 95 99.65 95.6 110.1 95.75 110.9 96.1 110.75
L 97.2 61.25
M 99.05 113.05
Q 99.65 100.85 99.05 88.6 98.55 100.85 99.05 113.05
M 175.75 155.6
L 176.85 153.55
Q 176.55 153.65 176.05 154.15 174.75 155.45 173.15 157.5 172.4279296875 158.49453125 171.8 159.35 170.1322265625 161.6267578125 169.15 162.9 166.75 166 164.5 167.6 164.03046875 167.9228515625 163 168.5 162.3208984375 168.9421875 161.35 169.5 159.55 170.5 158.6 170.8 157.5 171.1 157.1 171.4 156.6 171.8 156.8 172.15 156.95 172.4 157.4 172.4 157.8556640625 172.4 158.35 172.3 159.16953125 172.115234375 160.1 171.65 160.95 171.25 162.6 170.2 163.3 169.85 164.65 169.2 165.85 168.6 166.55 167.95 167.15 167.55 168.35 166.1
L 171.6 161.65 174.45 157.75
Q 174.8 157.25 175.75 155.6
M 195.7 157.4
L 193.15 160.7
Q 193.0703125 160.80625 193 160.9 191.1693359375 163.3470703125 190.45 164.45 189.7 165.5 188.4 167.8
L 182.8 178.5
Q 181.15 181.65 180.25 183.05 179.39453125 184.3333984375 178.45 185.3 177.6607421875 186.1986328125 176.8 186.85 176.5859375 187.010546875 175.65 187.6 174.9017578125 188.11328125 173.6 188.95 171.65 190.15 170.7 191.35 170.7 191.7455078125 171.05 191.85 171.2033203125 191.9 171.4 191.9 171.75 191.85 172.25 191.55
L 174.35 190.25
Q 177.6 188.25 179.15 186.7 180.56328125 185.242578125 182.5 181.8 182.781640625 181.340234375 183.05 180.85
L 186 175.25
Q 186.5388671875 174.133984375 186.95 173.3 187.630859375 171.9458984375 188 171.3 188.2119140625 170.9609375 189.45 169 189.69140625 168.6533203125 189.95 168.25 190.75 166.95 192.15 164.25
L 195.7 157.4
M 166.5 251.9
Q 166.5 252 166.3 252 165.95 252 165.95 252.4 165.95 252.7 166.2 252.85 166.7 253.55 167.65 253.8
L 168.3 254 168.65 254.2
Q 168.9 254.35 169.45 254.4 170 254.5 170.25 254.6 170.35 254.5 170.35 254.25 170.15 254.2 169.5 253.7
L 167.65 252.35
Q 166.95 251.85 166.5 251.9
M 167.45 250.3
Q 167.55 250.4 167.3 250.4
L 166.95 250.45
Q 166.75 250.55 166.85 250.75 167.35 250.8 168.15 251.35
L 168.9 251.55 169.3 251.75 169.65 251.85
Q 170.2 251.85 170.5 251.9
L 170.7 251.85
Q 170.9 251.8 170.8 251.45 169.65 251.2 169.35 251.05 168.95 250.8 168.8 250.75 168.45 250.75 168.3 250.65
L 168.1 250.45
Q 167.8 250.3 167.45 250.3
M 176.65 229.7
Q 176.35 229.65 176.25 229.55 176.05 229.5 175.45 228.9 175.35 229.1 175.1 229
L 175 229.35
Q 175.85 230.3 177.35 231.2 178.6 231.85 179.1 232 179.8 232.2 180.2 232.15
L 180.5 232.1
Q 180.75 232 180.6 231.85 180.1 231.5 178.95 231 177.85 230.45 177.35 230.1
L 176.65 229.7
M 174.3 231.45
Q 174.25 231.65 174.85 232.25
L 175.35 232.65 178.4 233.75 178.5 233.55
Q 178.4 233.35 177.7 233
L 176.65 232.35 175.65 231.95 175.05 231.55
Q 174.7 231.3 174.4 231.35 174.5 231.45 174.3 231.45
M 117 189.4
L 117.5 189.9
Q 117.65 190.1 117.8 190.65 118.1 191.15 119.1 191.7 119.35 191.55 119.25 191.25
L 119 190.75
Q 117.95 189.35 116.85 187.35 116.05 185.9 115.5 185.5
L 114.85 185.85
Q 115.05 186.3 115.7 187.1 116.3 187.9 116.5 188.35 116.9 189.3 117 189.4
M 117.8 183.9
L 117.45 184
Q 117.4 184.35 117.85 184.9 118.15 185.3 119.15 187.55 119.8 188.95 121.35 191.1 121.55 191.4 121.75 191.35
L 118.95 185.8
Q 118 184.4 117.8 183.9
M 121.1 183.85
L 121.25 184.35 121.85 185.7
Q 122.65 187.6 123.35 188.45 123.55 188.85 123.9 188.75 123.15 187.4 123.05 187.05
L 121.65 183.5
Q 121.4 182.95 121.05 182.5
L 120.85 182.6
Q 120.75 182.9 121.15 183.45 121.2 183.55 121.1 183.85
M 92.65 128.7
Q 92.4 127.7 92.7 127.5
L 92.55 127.15
Q 91.95 127.4 91.7 128.05 91.55 128.45 91.45 129.25 91.25 130.2 90.8 130.6 90.4 130.95 89.8 131.1 86.8 132.2 85.25 132.45 84.1 132.7 83.2 132.7 82.5 132.8 82.7 133.15 86.15 133.6 89.6 132.45 91.2 131.85 91.9 131.15 93.05 130 92.65 128.7
M 104.8 114
Q 104.1 113.8 103.85 114.35 104.3 114.8 104.7 116.05
L 105.7 118.9
Q 106.15 120.05 106.55 120.2
L 106.75 119.95
Q 106.05 119.15 106.55 118.2 106.1 117.55 105.85 116.35 105.35 114.65 104.8 114
M 216.5 80.65
Q 217.95 79.6 218.25 78.75 217.2 79.35 215 81.25 210.7 85 208.1 87.6 207.1 88.6 202.2 93.7
L 194.8 101.65
Q 194.3 102.25 194.3 102.65 194.5 102.55 195.25 101.8 198.45 98.1 205.25 91 212.4 83.65 216.5 80.65
M 225.5 69.3
Q 225.05 69.75 224.2 70.4 223.05 71.25 222.85 71.45 222.45 71.8 219.55 74.7 216.7 77.65 210.4 82.85
L 206.6 86
Q 204.55 87.7 203.3 89 202.15 90.2 201 91.95 205.35 87.95 208.5 85.3 210.35 83.75 214 80.7 217.2 78 219.3 75.9
L 224.15 71.3
Q 224.9 70.7 226.4 69.45 227.65 68.35 228.45 67.45
L 228.25 67.15
Q 227.55 67.4 226.8 68.1 225.95 68.9 225.5 69.3
M 104.8 138.3
L 104.45 138.3
Q 104.2 138.9 104.3 139.6
L 104.35 140.05 104.55 140.5 104.7 141.1
Q 104.8 141.6 105.6 142.4 105.95 142.3 105.85 141.8
L 105.6 141.15 105.6 140.5
Q 105.15 139.85 105.05 139.45 105.1 138.55 104.8 138.3
M 90.3 145.85
Q 90.55 146.35 91.1 146.25 91.4 146.2 91.95 145.95
L 93.55 145.05
Q 96.65 143.35 98.15 142.35 99.2 141.65 99.65 141.45
L 99.55 141.05 95.2 143.05
Q 93.65 143.7 92.75 144.35 92.35 144.6 91.55 145.2 90.85 145.65 90.3 145.85
M 129.45 140.35
Q 128.7 139.75 127.55 140 126.85 140.1 125.75 140.75 124.55 141.35 124 141.75 122.85 142.7 122.35 142.8 121 143.2 119.8 142 119.2 141.45 118.3 139.65 118.65 138.3 120.35 137.5 120.8 137.3 121.75 136.95 122.55 136.55 123.05 136.2 123 135.6 121.95 135.85 120.35 136.25 118.9 137.15 117.3 138.1 117.1 139.3 117 140 117.45 141.05 117.95 142 119.85 143.7 121 144.75 121.8 144.7 122.25 144.7 123.25 144.15
L 129.45 140.35
M 187.35 11.95
Q 186.454296875 11.973046875 185.45 12.05 182.18671875 12.2681640625 177.95 13 173.15 13.8 170 14.85 165 16.55 158.75 21.05 156.9 22.35 157.15 23.5 158.0240234375 22.7626953125 158.9 22.05 164.6287109375 17.7927734375 171.45 15.85 171.65 15.8 174.4 15.1 185.15 12.65 196.35 13.25 196.5 13.25 196.65 13.15 196.75 13.05 196.65 13 192.5 11.85 187.35 11.95
M 249.3 26.7
Q 250.55 27 251.15 26.75
L 249.4 26.2
Q 243.77578125 24.2279296875 240.2 22.95 238.887890625 22.5138671875 237.85 22.15 230.9 19.7 226.1 18.85
L 223.5 18.45
Q 220.3 17.8 212.35 15.35 210.25 14.75 209.2 14.9 209.25 15.45 210.2 15.75 218.95 18.6 227.6 20.2 229.2 20.55 232.45 21.25 234.44296875 21.8193359375 237.9 23.2 238.7232421875 23.5361328125 239.6 23.9
L 249.3 26.7
M 253.25 25.25
Q 254.15 25.6 254.3 25.05
L 247.2 22.3 233.3 16.95
Q 232.35 16.55 231.8 16.8 232.7 17.5 235.4 18.6
L 245.7 22.45 253.25 25.25
M 266.3 12.9
Q 268 13.2 269.2 12.7 266.7734375 11.6783203125 264.5 10.9 259.65234375 9.2765625 255.5 8.8 254.7626953125 8.7330078125 252.05 8.5 250.7134765625 8.4318359375 248.9 8.3 245.35 8.1 238.25 7.3
L 229.15 6.25
Q 224.5 5.75 222.35 5.4 218.5 4.85 217.05 4.8 214.1 4.7 211.95 5.6 211.6138671875 5.7306640625 211.3 5.9 210.86328125 6.17421875 210.55 6.55 209.95 7.45 210.55 8.15 210.85 8.5 211.45 8.6 213.15 9 214.6 8.35 212.8 8.2 211.05 7.25 211.6796875 6.9701171875 212.3 6.75 213.5498046875 6.3625 214.85 6.2 216.65 6 220.15 6.4
L 253.4 10.2
Q 260.1 11 263.35 12 265.45 12.7 266.3 12.9
M 125.15 237.3
L 124.9 237.1 124.8 237.05
Q 124.55 236.9 124.45 237.15 124.475 237.2623046875 124.5 237.35 124.6623046875 237.6748046875 125 237.9 125.4 238.1 125.5 238.25 125.65 238.4 125.8 238.75 125.9 239.1 126.4 239.6
L 126.65 239.45
Q 126.4 238.9 126.25 238.6 126 238.1 125.75 237.85
L 125.15 237.3
M 126.75 240.65
Q 127.05 240.65 127.1 240.5 127.15 240.35 126.95 240.15 126.6 239.9 125.5 239.25 124.55 238.75 124.15 238.3 123.939453125 238.03671875 123.75 237.85 123.618359375 237.747265625 123.5 237.7 123.3 237.6 123.1 237.65 122.85 237.65 122.8 237.85 122.8853515625 238.0916015625 123.05 238.35 123.5263671875 239.0126953125 124.6 239.8 125.9 240.7 126.75 240.65
M 149.6 217.8
Q 150.03046875 218.0759765625 150.7 218.35 151.15 218.7 151.4 218.75
L 151.5 218.55
Q 151.25 218.2 150.7 217.9 150.1583984375 217.5814453125 149.95 217.45 149.8181640625 217.3681640625 149.8 217.35 149.55 217.2 148.95 216.45 148.75 216.65 148.6 216.7 148.8 216.8 148.95 217.05
L 149.2 217.45
Q 149.3564453125 217.6259765625 149.6 217.8
M 146.3 217.35
L 146.15 217.6
Q 146.45 218.2 147.6 218.95 147.728515625 219.078515625 148 219.45 148.049609375 219.528125 148.1 219.6 148.4 220.05 148.65 220.2 148.85 220.35 149.6 220.65 150.15 220.9 150.35 221.2
L 150.6 221.1
Q 150.55 220.75 150.2 220.5
L 149.55 220.1
Q 149.2 219.85 148.6 219.15 148.535546875 219.076953125 148.45 219 147.7466796875 218.209765625 146.65 217.25 146.55 217.35 146.3 217.35
M 187.1 221.15
L 186.5 221 186.5 221.1 186.3 221.1 186.15 221.35
Q 186.4 221.7 187.05 222
L 188.15 222.15
Q 188.25 222.4 188.85 222.5
L 188.95 222.25
Q 188.5 221.65 188.15 221.55 187.55 221.45 187.3 221.3
L 187.1 221.15 Z"/>

<path fill="#DFA896" stroke="none" d="
M 197 33.05
Q 184.5775390625 30.15 184.5 30.15 184.2 30.15 159 40.15 155.3732421875 41.5951171875 152.2 42.85 145.0189453125 45.738671875 140.3 47.65 136.6248046875 55.5765625 125.3 76.5 115 95.6 111.95 108.75 111.836328125 109.3080078125 111.7 109.75 114.0326171875 109.6009765625 117.6 109.5 122.7 109.15 130.05 107.15
L 142.35 103.8
Q 146.55 102.85 157.1 101.3 166.5 99.9 171.75 98.45 180.75 95.95 190.4 90.35 197.75 86.1 207.35 78.8 214.65 73.3 219.85 68.6 224.5 64.45 229.85 58.85 233.25 55.25 239.25 48.5
L 243.3 44
Q 219.9498046875 38.4841796875 205.85 35.15 200.845703125 33.9802734375 197 33.05
M 239.25 141.25
Q 237.791796875 145.3384765625 236.55 148.9 239.8634765625 145.5767578125 242.45 143.05 250.35 135.3837890625 265.7 120.65
L 246.1 122.95
Q 243.4078125 129.5693359375 239.25 141.25
M 90.25 271.95
Q 90.1046875 271.913671875 89.9 271.9 90.558203125 272.765234375 90.95 273.5 91.45 274.45 92.4 276.5 93.25 278.15 94.4 278.85 95.6 279.55 97.6 279.55 99.8 279.45 100.8 278.5 102.15 277.35 102.05 275.1 102.0208984375 274.3703125 101.7 273.25 97.6244140625 270.4908203125 92.6 266.8 84.7232421875 260.9685546875 79.7 257.65 80.9552734375 259.5544921875 81.85 261.05 84.65 265.7 85.4 266.65 85.75 267.1 88.35 270 88.855078125 270.5611328125 89.25 271.05
L 90.25 270.9
Q 90.5 271.15 91.2 271.3 91.4 271.4 92 272.1 94 274.85 94.55 276.2
L 94.3 276.3 91.9 273.25
Q 91 272.05 90.25 271.95
M 182.1 238.8
Q 181.85 239 181.55 239.6
L 179.95 243.05 179.9 243
Q 179.2865234375 244.426953125 178.6 245.7 179.0662109375 245.9248046875 179.9 246.3 181.05 246.75 182.3 246.1 183.45 245.45 184.05 244.25 184.55 243.25 184.75 241.85 184.85 241.35 184.95 239.3 184.9697265625 238.69375 185 238.1 184.2833984375 238.0791015625 183.2 238.35 182.4 238.55 182.1 238.8
M 111.5 257.25
Q 111.63984375 256.88125 111.8 256.6 110.8314453125 257.0615234375 110 257.2 107.85 257.55 105.85 256.1 104.4208984375 255.0470703125 103.65 253.55 103.51328125 253.6224609375 103.3 253.7
L 99.3 254.85
Q 98.85 255 98.45 255.4 98 256 98.1 257.15 98.5869140625 257.5482421875 98.45 258.05
L 107.5 259.6
Q 109.45 260 110.35 259.3 110.85 258.9 111.5 257.25
M 115.1 208.3
Q 114.5 207.6 114.15 207.25 113.55 206.65 113.05 206.35 112.8826171875 206.273828125 112.7 206.2 112.2087890625 206.2376953125 111.85 205.9 111.7208984375 205.7892578125 111.65 205.65 111.5626953125 205.6001953125 111.45 205.55
L 111.4 205.5 111.4 205.5
Q 110.81875 205.151171875 110.65 204.7 106.2826171875 207.3365234375 99.75 211.6 96.02265625 213.888671875 92.65 215.5
L 98.55 215.7
Q 101.85 215.8 103.4 215.95 108.6 216.25 113.4 217.35 115.6 217.7 116.2 217.6 118 217.35 119 215.7 119.85 214.05 119.15 212.3 118.7 211.25 117.35 210.15 115.15 208.35 115.1 208.3
M 149.95 234.35
Q 137 242.3 132.7 245.25 111.35 259.8 112.8 269.85 111.75 268.8 108.9 268.3 105.5 267.6 105.15 267.45 105.15 268.05 104.55 268.05 105.2509765625 270.9642578125 106.7 276.6 107.2337890625 278.6400390625 107.85 281 108.955078125 285.1908203125 109.8 288.25
L 110.45 289.45
Q 112.5 293.25 112.6 295.35 111.95 294.8 111.55 294.25 111.5048828125 294.1958984375 111.45 294.15 111.532421875 294.381640625 111.6 294.6
L 111 294.6
Q 109.95 293.2 103.75 288.7 97.25 283.95 95.9 283.95 94.948046875 283.95 94.15 284.95 94.9169921875 291.2193359375 95 291.8 95.55 295.55 96.45 300.25 97.2 304.3 98.75 310.4 100 315.75 101.05 318.5 101.35 319.2 101.35 319.65 101.35 319.8759765625 101.3 320.05
L 205.95 320.05
Q 205.73203125 319.7009765625 205.5 319.15 200.8 308 197 297.25 195.4794921875 292.9361328125 192.5 283.8 188.8451171875 279.4451171875 185.8 275.25 182 269.85 180.65 268 178.45 265.1 176.55 263.9 174.75 266.25 165.5 276.8 159.7546875 283.431640625 156.65 287.25 155.6251953125 289.88671875 155 292.45 154.45 294.45 154 295 154.1 292.2 154.3 291.3 154.4748046875 290.566015625 154.8 289.55 154.40703125 290.038671875 154.1 290.45
L 154.1 289.85
Q 154.3462890625 289.087890625 154.55 288.35 154.049609375 289.5505859375 153.3 290.3 154.25 285.3 156.8 280.6 157.0634765625 280.144921875 157.3 279.75 158.0197265625 278.460546875 158.4 277.7 159.2626953125 276.070703125 159.65 274.75 159.31796875 274.6541015625 159.05 274.55 158.908203125 274.49609375 158.75 274.45 157.5265625 273.90703125 156.85 273.05 155.7 271.65 155.75 269.35 155.8 267.75 156.5 265.25 158.3234375 258.8177734375 159.95 252.3 161.558984375 239.601171875 162.95 225.5 159.75 228.3 149.95 234.35
M 116.35 43.7
Q 114.76953125 40.835546875 112.9 37.5 102.4654296875 19.0076171875 94.55 2.95
L 39.8 2.95
Q 41.430078125 20.9263671875 50.6 51.6 55.95 69.5 57.9 77.25 59.9107421875 85.2931640625 61.15 92.5
L 61.65 84
Q 62.95 88.4 62.6 95.95 62.4671875 99.05546875 62.4 101.4 62.5107421875 102.3998046875 62.6 103.35 62.7 104 62.45 104.55 62.4048828125 104.64765625 62.35 104.7 62.3484375 106.9330078125 62.45 108.05 62.6 109.35 63.25 113.3 63.8 116.55 63.85 118.55 64 121.65 63.25 127.95 62.95 132.55 64.5 146.95 65.8 158.75 64 165.65 63.8 166.45 62.6 170.4 61.7 173.25 61.45 175.15 61.1 178.05 61.6 181.7 61.9 183.65 62.9 188.15 65.4 198.9 66.1 206.15 67.05 216.1 65.35 224.2 64.15 229.95 64.05 230.8 63.65 234.55 64.9 237.1 65.65 238.65 67.15 240.1 68.1 241 70.1 242.5
L 81.25 250.95
Q 84.1 253.05 85.35 253.85 87.7 255.4 89.75 256.15 92.05 257 96.3 257.7
L 97.65 257.95
Q 97.15 257.05 97.15 256.3 97.05 255.55 97.45 254.95 97.75 254.35 98.75 253.85 99.35 253.5 100.2 253.35
L 101.25 253.2
Q 101.3845703125 253.14609375 101.5 253.1 101.7115234375 253.04296875 101.85 253 101.969921875 253 102.05 253 102.53984375 252.918359375 103.45 253.15 103.317578125 252.844921875 103.2 252.5 103.1431640625 252.323046875 103.1 252.15 102.8515625 251.2666015625 102.8 250.35
L 99.3 249.85
Q 92.3 248.85 90.3 247.95 88.1 246.9 84.55 241.8 80.65 236.2 77.9 234.35 73.55 231.3 71.9 226.95 70.5 223.35 70.6 217.55 70.8767578125 212.3951171875 71.05 208.7 70.580859375 208.077734375 70.3 207.3 69.95 206.35 69.8 204.55 69.6 202.6 69.4 201.8 69.05 200.45 67.95 198.65
L 65.55 194.35
Q 66.85 194.45 68.15 196.35 70.5 199.75 71.1 203.95 71.1755859375 204.5736328125 71.2 205 71.3189453125 205.7322265625 71.35 205.95 71.6 207.05 72.15 207.75 72.6 208.4 74.3 209.4 74.73125 209.6587890625 75.05 209.9 75.354296875 209.5671875 75.7 209.2 77.9 206.85 79.1 205.75 79.6806640625 205.22734375 80.25 204.75 80.1826171875 204.4173828125 80.65 203.95 81.7 202.85 84.2 201.15 85.889453125 200.003515625 90.1 197.35 90.0552734375 197.3671875 90 197.35 87.45 196.4 83.55 194.25 81.5 193.2 80.7 192.15 80.65 191.9 80.9 191.65 81.1 191.45 81.4 191.4 81.85 191.4 82.55 191.7 82.7583984375 191.8041015625 82.95 191.9 82.50625 190.7431640625 82.3 188.75
L 82.1 186.85
Q 82 185.7 82 183.35 81.9 179.95 82.05 177.2 82.35 174.1 82.65 172.6
L 83 170.8
Q 83.1 170 83.05 168.7 83.05 168.641015625 83.05 168.55 83.05 167.0833984375 83.05 166.65 83.113671875 165.34375 83.1 164.45 82.755078125 164.5533203125 82.5 164.6 81.7248046875 159.0466796875 81.45 157.65
L 81.45 147 87.35 147
Q 86.85 144.75 83.2 137.55 83.1072265625 137.365625 83 137.15 80.77734375 136.04453125 79.4 134.1 78.7232421875 133.2078125 78.3 132.1 78.211328125 131.88203125 78.1 131.6 77.9984375 131.180078125 77.9 130.7 77.65 129.6 77.95 128.95 78.35 128.15 79.75 127.55 85.75 125.05 91.95 123.85
L 94.75 120.35
Q 93.3916015625 120.5029296875 91.45 120.9 89.05 121.5 87.85 121.7 85.35 122.1 82.45 122.2 81.5 122.2 81.35 121.7 81.65 121 83.2 120.65
L 91.6 119
Q 93.45 118.7 94.25 118.65 95.2873046875 118.549609375 96.1 118.65
L 97.15 117.4
Q 98.42578125 115.7896484375 99.55 114.6 99.7947265625 108.9392578125 100 101.05 100.35 86.2 100.35 78.5 103.95 99.15 103.95 99.75 104.25 99.75 104.55 99.45 104.85 99.15 105.15 99.15 105.6 97.65 108.7 90.4 108.808984375 90.146875 108.9 89.9 109.6494140625 84.6462890625 110 82.85 110.4 80.8 111.35 77.05 112.35 73.05 112.7 71.25 113.65 67 114.75 58.4 115.838671875 49.52109375 116.35 43.7
M 99.05 88.6
Q 99.65 100.85 99.05 113.05 98.55 100.85 99.05 88.6
M 96.45 62.85
Q 96.55 61.45 97.2 61.25
L 96.1 110.75
Q 95.75 110.9 95.6 110.1 95 99.65 95.35 86.5 95.6 79.1 96.45 62.85
M 279.8 2.95
Q 276.273828125 8.8912109375 272 14.55 268.05 19.75 259.55 29.35
L 248.4 41.95
Q 247.1724609375 43.34453125 246 44.65 239.2671875 52.269140625 235.25 56.5 227.85 64.45 221.3 70.25 216.3 74.75 208.65 80.65 199.05 87.95 191.1 92.45 181.15 98.1 171.75 100.75 166.35 102.3 156.7 103.8 145.85 105.5 141.6 106.5 134.55 108.4 131.05 109.35 124.8 110.95 120.35 111.3 114.2 111.5 111.15 111.8 106.2126953125 112.2703125 103.15 114.3 103.2755859375 114.5095703125 103.4 114.8 103.5 115 103.75 115.4 103.8 115.6 103.75 116
L 104.15 116.65 104.1 117.15
Q 104.05 117.9 104.35 118.8 104.25 118.85 104.05 118.75
L 103.9 118.5 103.55 118.3
Q 103.4 118.15 103.4 117.8
L 103.4 117.25
Q 102.9 116.55 102.85 116.1
L 102.75 115.65 102.5 115.05
Q 102.5 114.9123046875 102.5 114.8 101.462109375 115.6740234375 99.35 118.1 98.30546875 119.37109375 96.95 121.05 93.5 125.2 90.3 125.9 90.13515625 125.9453125 89.95 126
L 81.55 128.9
Q 80.3 129.3 80.05 129.95 79.9 130.45 80.2 131.35 81.3244140625 133.9267578125 84.1 135.15 84.286328125 135.2 84.45 135.2 87.9 135.2 97.5 130.2 107.15 125.15 108.6 125.15 112.3 125.15 127.25 127.35 139.8 129.2 147.6 128.1
L 151.2 128.1 151.2 131.7
Q 150.2 135.65 150.45 140.45 150.75 145.55 150.35 147.4 149.8287109375 149.90625 147.6 152.85
L 146.9 155.9
Q 146.833203125 156.1673828125 146.75 156.4 147.034375 156.30625 147.3 156.2 147.296875 156.2685546875 147.3 156.3 146.73515625 156.66484375 146.05 157.35 145.982421875 157.4138671875 145.9 157.45 145.8041015625 157.81796875 145.7 158 145.45 158.5 144.8 159.05
L 144.05 159.5
Q 143.598046875 160.0845703125 143.05 160.75 142.56015625 161.3623046875 142.2 161.85
L 115.3 183.15
Q 111 186.65 107.75 188.85 104.85 190.85 101.3 192.95
L 81.75 204.8
Q 80.095703125 207.0658203125 78.15 209.1
L 78.35 208.95
Q 79.75 207.9 80.75 207.75 81.45 207.65 82.8 207.8 84.2 207.8 84.45 207.9 84.9 208.1 85.3 208.7 85.55 209 85.95 209.7 86.0119140625 209.79296875 86.05 209.9 96.4201171875 205.4107421875 115.3 196.65 145.95 182.4 151.1 182.4 152.3 182.4 153.55 185.4 154.65 188 154.65 189.2 154.65 189.3880859375 154.4 189.95 154.53359375 191.5056640625 153.45 193.75 150.893359375 199.0568359375 147.05 204.3 145.927734375 205.8681640625 144.7 207.4 140.2 213.05 133.6 219.35 130.4 222.4 121.55 230.3 113.9 237.15 109.65 241.4 106.85 244.2 105.9 246.05 104.6580078125 248.533984375 105 250.7 105.030078125 250.731640625 105 250.75 105.0794921875 251.0185546875 105.15 251.25 105.14375 251.234375 105.15 251.2 105.18984375 251.0806640625 105.4 250.75 105.4787109375 250.651953125 105.55 250.55 105.65234375 250.386328125 105.8 250.2 105.9841796875 250.0068359375 106.25 249.8
L 107.2 249.3
Q 107.366015625 249.2169921875 108.3 248.45 108.479296875 248.3283203125 108.7 248.15 109.16015625 247.78671875 109.6 247.55 115.2314453125 243.662109375 123.05 238.35 122.8853515625 238.0916015625 122.8 237.85 122.85 237.65 123.1 237.65 123.3 237.6 123.5 237.7 123.618359375 237.747265625 123.75 237.85 124.1455078125 237.6314453125 124.5 237.35 124.475 237.2623046875 124.45 237.15 124.55 236.9 124.8 237.05
L 124.9 237.1
Q 125.417578125 236.759765625 125.95 236.4 137.65 228.45 142.85 224.15 144.411328125 222.8490234375 145.85 221.5 144.62421875 220.4814453125 143.95 220 142.8 219 141.8 218.95 141.15 218.95 141 218.7 140.9 218.4 141.2 218.25 141.45 218.05 141.8 218.05 142.9 218.1 144.2 219.1 144.9 219.65 146.35 220.8 146.380859375 220.820703125 146.5 220.9 147.2796875 220.1869140625 148 219.45 147.728515625 219.078515625 147.6 218.95 146.45 218.2 146.15 217.6
L 146.3 217.35
Q 146.55 217.35 146.65 217.25 147.7466796875 218.209765625 148.45 219 149.0568359375 218.40234375 149.6 217.8 149.3564453125 217.6259765625 149.2 217.45
L 148.95 217.05
Q 148.8 216.8 148.6 216.7 148.75 216.65 148.95 216.45 149.55 217.2 149.8 217.35 149.8181640625 217.3681640625 149.95 217.45 152.6068359375 214.5595703125 154.75 211.55 159.75 204.45 164.1 193.65 164.801953125 198.76875 166.1 204.3 167.428515625 203.0416015625 168.7 202.15 168.10390625 203.4443359375 167.45 204.7 167.61171875 204.7423828125 167.75 204.85 168 205.1 168 205.75
L 168.15 211.55
Q 168.1525390625 211.6765625 168.15 211.8 168.2515625 212.1255859375 168.35 212.45 170.6 219.9 170.6 227.85 170.6 231 165.95 251.5 164.2466796875 259.0404296875 162.7 265.4 163.196484375 264.5244140625 163.75 264.05 164.45 263.5 166.35 262.85 167.1 262.65 167.4 262.9 167.6 263.1 167.55 263.45 167.45 263.75 167.2 263.95 166.9 264.2 166 264.4 164.35 264.95 163.4 266.95 162.8 268.05 162 270.4 161.5630859375 271.5357421875 161.05 272.35 160.9921875 272.4720703125 160.9 272.55 160.9576171875 272.589453125 161 272.6 161.4126953125 272.7833984375 161.9 272.9 163.2 273.2 165.95 273
L 167.7 264.9
Q 168.8 259.9 169.45 258.15 170.5 255.25 172.85 251.1 176.25 245.1 176.7 244.25 179.2 239.3 181.05 232.65 182.2 228.5 183.85 220.5
L 185.55 212.3
Q 185.8033203125 211.08046875 186.05 210.05 186.555859375 207.8005859375 187 206.4 187.99765625 203.359765625 189.45 201.2 193.0220703125 191.962890625 193.2 191.5 195.4 186.6 198.5 183.65 200.8 181.45 209.75 174.25 212.71484375 171.7658203125 215.9 168.95 218.5673828125 164.06484375 221.05 157.6 227.75 140.05 229.8 136.25 233.2771484375 129.823828125 238.85 123.15 239.60390625 122.259765625 240.4 121.35 245.1 116.05 253.4 108.25 275.6509765625 87.462890625 299.95 68.55
L 299.95 2.95 279.8 2.95
M 224.2 70.4
Q 225.05 69.75 225.5 69.3 225.95 68.9 226.8 68.1 227.55 67.4 228.25 67.15
L 228.45 67.45
Q 227.65 68.35 226.4 69.45 224.9 70.7 224.15 71.3
L 219.3 75.9
Q 217.2 78 214 80.7 210.35 83.75 208.5 85.3 205.35 87.95 201 91.95 202.15 90.2 203.3 89 204.55 87.7 206.6 86
L 210.4 82.85
Q 216.7 77.65 219.55 74.7 222.45 71.8 222.85 71.45 223.05 71.25 224.2 70.4
M 218.25 78.75
Q 217.95 79.6 216.5 80.65 212.4 83.65 205.25 91 198.45 98.1 195.25 101.8 194.5 102.55 194.3 102.65 194.3 102.25 194.8 101.65
L 202.2 93.7
Q 207.1 88.6 208.1 87.6 210.7 85 215 81.25 217.2 79.35 218.25 78.75
M 103.85 114.35
Q 104.1 113.8 104.8 114 105.35 114.65 105.85 116.35 106.1 117.55 106.55 118.2 106.05 119.15 106.75 119.95
L 106.55 120.2
Q 106.15 120.05 105.7 118.9
L 104.7 116.05
Q 104.3 114.8 103.85 114.35
M 92.7 127.5
Q 92.4 127.7 92.65 128.7 93.05 130 91.9 131.15 91.2 131.85 89.6 132.45 86.15 133.6 82.7 133.15 82.5 132.8 83.2 132.7 84.1 132.7 85.25 132.45 86.8 132.2 89.8 131.1 90.4 130.95 90.8 130.6 91.25 130.2 91.45 129.25 91.55 128.45 91.7 128.05 91.95 127.4 92.55 127.15
L 92.7 127.5
M 121.25 184.35
L 121.1 183.85
Q 121.2 183.55 121.15 183.45 120.75 182.9 120.85 182.6
L 121.05 182.5
Q 121.4 182.95 121.65 183.5
L 123.05 187.05
Q 123.15 187.4 123.9 188.75 123.55 188.85 123.35 188.45 122.65 187.6 121.85 185.7
L 121.25 184.35
M 117.45 184
L 117.8 183.9
Q 118 184.4 118.95 185.8
L 121.75 191.35
Q 121.55 191.4 121.35 191.1 119.8 188.95 119.15 187.55 118.15 185.3 117.85 184.9 117.4 184.35 117.45 184
M 117.5 189.9
L 117 189.4
Q 116.9 189.3 116.5 188.35 116.3 187.9 115.7 187.1 115.05 186.3 114.85 185.85
L 115.5 185.5
Q 116.05 185.9 116.85 187.35 117.95 189.35 119 190.75
L 119.25 191.25
Q 119.35 191.55 119.1 191.7 118.1 191.15 117.8 190.65 117.65 190.1 117.5 189.9
M 174.85 232.25
Q 174.25 231.65 174.3 231.45 174.5 231.45 174.4 231.35 174.7 231.3 175.05 231.55
L 175.65 231.95 176.65 232.35 177.7 233
Q 178.4 233.35 178.5 233.55
L 178.4 233.75 175.35 232.65 174.85 232.25
M 176.25 229.55
Q 176.35 229.65 176.65 229.7
L 177.35 230.1
Q 177.85 230.45 178.95 231 180.1 231.5 180.6 231.85 180.75 232 180.5 232.1
L 180.2 232.15
Q 179.8 232.2 179.1 232 178.6 231.85 177.35 231.2 175.85 230.3 175 229.35
L 175.1 229
Q 175.35 229.1 175.45 228.9 176.05 229.5 176.25 229.55
M 167.3 250.4
Q 167.55 250.4 167.45 250.3 167.8 250.3 168.1 250.45
L 168.3 250.65
Q 168.45 250.75 168.8 250.75 168.95 250.8 169.35 251.05 169.65 251.2 170.8 251.45 170.9 251.8 170.7 251.85
L 170.5 251.9
Q 170.2 251.85 169.65 251.85
L 169.3 251.75 168.9 251.55 168.15 251.35
Q 167.35 250.8 166.85 250.75 166.75 250.55 166.95 250.45
L 167.3 250.4
M 166.3 252
Q 166.5 252 166.5 251.9 166.95 251.85 167.65 252.35
L 169.5 253.7
Q 170.15 254.2 170.35 254.25 170.35 254.5 170.25 254.6 170 254.5 169.45 254.4 168.9 254.35 168.65 254.2
L 168.3 254 167.65 253.8
Q 166.7 253.55 166.2 252.85 165.95 252.7 165.95 252.4 165.95 252 166.3 252
M 193.15 160.7
L 195.7 157.4 192.15 164.25
Q 190.75 166.95 189.95 168.25 189.69140625 168.6533203125 189.45 169 188.2119140625 170.9609375 188 171.3 187.630859375 171.9458984375 186.95 173.3 186.5388671875 174.133984375 186 175.25
L 183.05 180.85
Q 182.781640625 181.340234375 182.5 181.8 183.6306640625 180.7478515625 184.2 180.05 185.30390625 178.730078125 186.55 176.15 186.4083984375 177.187890625 186.25 178.3 183.1 195.45 179.15 195.45 178.55 195.45 175.2 193.95 171.8 192.45 170.6 192.45 170.7833984375 192.1826171875 171.05 191.85 170.7 191.7455078125 170.7 191.35 171.65 190.15 173.6 188.95 174.9017578125 188.11328125 175.65 187.6 176.5859375 187.010546875 176.8 186.85 177.6607421875 186.1986328125 178.45 185.3 179.39453125 184.3333984375 180.25 183.05 181.15 181.65 182.8 178.5
L 188.4 167.8
Q 189.7 165.5 190.45 164.45 191.1693359375 163.3470703125 193 160.9 193.0703125 160.80625 193.15 160.7
M 176.85 153.55
L 175.75 155.6
Q 174.8 157.25 174.45 157.75
L 171.6 161.65
Q 171.366015625 164.208984375 171.1 167.55 169.5 177.75 165.3 177.75 163.9 177.75 160.45 176 157.3 174.4 156.45 173.55 157.407421875 172.9568359375 158.35 172.3 157.8556640625 172.4 157.4 172.4 156.95 172.4 156.8 172.15 156.6 171.8 157.1 171.4 157.5 171.1 158.6 170.8 159.55 170.5 161.35 169.5 162.3208984375 168.9421875 163 168.5 164.03046875 167.9228515625 164.5 167.6 166.75 166 169.15 162.9 170.1322265625 161.6267578125 171.8 159.35 172.4279296875 158.49453125 173.15 157.5 174.75 155.45 176.05 154.15 176.55 153.65 176.85 153.55
M 119.35 166.35
Q 111.75 158.85 111 158.85 107.75 158.85 95.3 161.65 92.4513671875 162.3126953125 90.2 162.8
L 90 163.45
Q 89.75 164.2 89.05 165.6 86.332421875 171.466796875 84.2 177.25 83.92734375 178.0599609375 83.65 178.85 83.6 179.79375 83.6 180.75 83.5 185.8 84.1 188.6 84.3 189.35 84.65 190.9 84.8943359375 191.9583984375 84.85 192.8 87.395703125 194.0078125 90.55 195.35 91.35 195.7 91.6 195.95 91.7521484375 196.132421875 91.8 196.3 94.019921875 194.966015625 96.75 193.3 104.6 188.45 109.1 185.1 110.05 184.4 115.45 180.15
L 125.3 172.1
Q 122.719140625 169.6810546875 119.35 166.35
M 125.25 133.1
L 122.65 133.1
Q 121.6876953125 133.4384765625 120.95 133.7 114.5 135.95 114.5 139.85 114.5 141.95 115.7 146.4 115.912109375 147.1458984375 116.1 147.8 116.665234375 147.873046875 117.3 147.9 120.3 148.1 122.2 148 124.85 147.9 126.95 147.25 129.4 146.45 131.2 144.85 133.15 143.05 133.7 140.8 132.8 138.5 132 137.6 131.35 136.9 129.85 136.05
L 126.2 133.8
Q 125.6587890625 133.46015625 125.25 133.1
M 127.55 140
Q 128.7 139.75 129.45 140.35
L 123.25 144.15
Q 122.25 144.7 121.8 144.7 121 144.75 119.85 143.7 117.95 142 117.45 141.05 117 140 117.1 139.3 117.3 138.1 118.9 137.15 120.35 136.25 121.95 135.85 123 135.6 123.05 136.2 122.55 136.55 121.75 136.95 120.8 137.3 120.35 137.5 118.65 138.3 118.3 139.65 119.2 141.45 119.8 142 121 143.2 122.35 142.8 122.85 142.7 124 141.75 124.55 141.35 125.75 140.75 126.85 140.1 127.55 140
M 84.7 210
Q 84.2 209.4 83.85 209.25 83.55 209.1 82.9 209.1 81.15 209 80.35 209.35 79.9 209.6 79.7 209.7 79.3 209.9 79 209.85
L 77.7 210.6
Q 77.166796875 210.67109375 76.85 210.4 76.041015625 211.344921875 76 212 76 212.790625 76.7 213.75 79.573828125 212.7068359375 84.95 210.35 84.822265625 210.1630859375 84.7 210 Z"/>

<path fill="#C88C86" stroke="none" d="
M 246 40.95
Q 245.954296875 40.9681640625 245.9 40.95
L 244.5 40.25
Q 243.15 39.55 242.9 38.85 242.8326171875 38.5130859375 242.75 38.25 242.3783203125 38.0890625 242 37.9 238.2 35.65 236.3 34.6 231.95 32.25 225.9 30.8 222.9240234375 30.134375 217.85 29.35 216.4611328125 29.166796875 214.9 28.95
L 201.7 27.15
Q 200.0345703125 26.92265625 198.45 26.7 189.37421875 25.6146484375 183.7 25.7 173.75 25.75 166.3 28.85 161.976171875 30.641796875 156.65 34.4 155.1796875 35.5126953125 153.6 36.75 142.4 45.4 141.6 45.95 141.2732421875 46.1677734375 140.95 46.25 140.6880859375 46.89375 140.3 47.65 145.0189453125 45.738671875 152.2 42.85 155.3732421875 41.5951171875 159 40.15 184.2 30.15 184.5 30.15 184.5775390625 30.15 197 33.05 200.845703125 33.9802734375 205.85 35.15 219.9498046875 38.4841796875 243.3 44
L 246 40.95
M 290.95 92
Q 292.793359375 89.3830078125 293.95 87.75
L 275.9 91
Q 263.4376953125 101.6205078125 250.95 113.5 245.25 118.9 241.85 122.7 241.5787109375 123.0025390625 241.3 123.3 236.92578125 128.2826171875 234.05 132.95 230.85 138.2 227.6 146.4 225.8 151.05 222.3 160.35 221.3171875 162.79140625 220.3 165 220.091796875 165.465625 219.85 165.9 222.4880859375 163.2259765625 224.85 160.75 231.5470703125 153.9216796875 236.55 148.9 237.791796875 145.3384765625 239.25 141.25 243.4078125 129.5693359375 246.1 122.95
L 265.7 120.65
Q 266.793359375 119.6109375 267.9 118.55 282.3 104.15 290.95 92
M 87.35 257.75
Q 84.6015625 256.4076171875 81.5 253.9 76.4 249.4 73.65 247.45 72.3060546875 246.61015625 71.2 245.9 76.57109375 252.9916015625 79.7 257.65 84.7232421875 260.9685546875 92.6 266.8 97.6244140625 270.4908203125 101.7 273.25 101.474609375 272.507421875 101.1 271.55 99.98125 268.6060546875 98.7 266.25 98.0201171875 266.0142578125 97.15 265.4 93.1533203125 262.6330078125 87.35 257.75
M 161.75 275.3
Q 161.1345703125 275.16328125 160.6 275 160.4130859375 275.407421875 160.15 275.85 159.9974609375 276.2048828125 159.8 276.6
L 157.1 282.2
Q 156.15 284.05 155.5 285.75 154.75 287.9 154.65 288.2 154.615234375 288.28203125 154.55 288.35 154.3462890625 289.087890625 154.1 289.85
L 154.1 290.45
Q 154.40703125 290.038671875 154.8 289.55 154.934375 289.0966796875 155.1 288.6 156.1 285.95 157.6 282.85
L 160.15 277.4
Q 160.15 278.95 159.45 280.8 159.15 281.7 158 284.05 157.250390625 285.66171875 156.65 287.25 159.7546875 283.431640625 165.5 276.8 174.75 266.25 176.55 263.9 178.45 265.1 180.65 268 182 269.85 185.8 275.25 188.8451171875 279.4451171875 192.5 283.8 191.3140625 280.0470703125 189.85 275.45 185.45 261.55 182.55 253.7 181.4697265625 250.7390625 181.35 248.95 180.792578125 249.0134765625 180.25 248.95 179.21171875 250.725 177.1 253.25 174.4 256.55 173.55 257.75 172.8115234375 258.8884765625 172.1 259.4
L 171.75 260.05
Q 171.505078125 259.9974609375 171.35 259.85 171.3234375 259.934375 171.3 260 170.05 263.7 169.35 269.1 169.05 271.4 168.6 272.6 167.9 274.45 166.5 275.2 165 276 161.75 275.3
M 140.45 234.8
Q 134.55 238.6 127.45 244.25 124.6 246.5 115.05 254.4 114.00625 255.2669921875 113.05 255.85 113.7685546875 256.851171875 113.55 258.25 113.25 259.8 112.1 260.75 110.05 262.45 106.55 261.9 105.5 261.75 103.75 261.2 101.7 260.6 100.95 260.45 99.4234375 260.068359375 95.85 259.7 101.0763671875 264.776171875 103.65 271.75 104.3794921875 273.6529296875 104.45 275.15 104.5146484375 276.0185546875 104.35 276.75 104.2373046875 277.3130859375 104 277.8
L 109.8 288.25
Q 108.955078125 285.1908203125 107.85 281 107.2337890625 278.6400390625 106.7 276.6 105.2509765625 270.9642578125 104.55 268.05 105.15 268.05 105.15 267.45 105.5 267.6 108.9 268.3 111.75 268.8 112.8 269.85 111.35 259.8 132.7 245.25 137 242.3 149.95 234.35 159.75 228.3 162.95 225.5 161.558984375 239.601171875 159.95 252.3 162.3525390625 242.6076171875 164.3 232.75 166.45 222 166.3 215.5 166.15 212.35 166.1 210.8 166.09140625 210.5658203125 166.05 210.35 165.7494140625 210.7373046875 165.3 211.35 165.0435546875 212.5001953125 164.6 214 163.6 217.25 162.5 218.65 161.5 219.95 158.6 221.7 155.891796875 223.396484375 153.4 225 151.3361328125 227.1724609375 149.7 228.5 147.85 230 145.15 231.8 143.6 232.85 140.45 234.8
M 93.6 281
Q 93.705859375 281.523046875 93.8 282.15 93.9875 283.67578125 94.15 284.95 94.948046875 283.95 95.9 283.95 97.25 283.95 103.75 288.7 109.95 293.2 111 294.6
L 111.6 294.6
Q 111.532421875 294.381640625 111.45 294.15 110.482421875 292.9283203125 109.05 290.35
L 103.1 279.3
Q 102.56640625 279.9525390625 101.8 280.5 99.75 281.95 97.3 281.95 95.21171875 281.8837890625 93.6 281
M 115.05 11.1
Q 114.567578125 6.4197265625 115.25 2.95
L 94.55 2.95
Q 102.4654296875 19.0076171875 112.9 37.5 114.76953125 40.835546875 116.35 43.7 116.6220703125 40.995703125 116.75 38.95 117.45 28.1 116.3 19.5 115.35 13.9 115.05 11.1
M 171.1 167.55
Q 171.366015625 164.208984375 171.6 161.65
L 168.35 166.1
Q 167.15 167.55 166.55 167.95 165.85 168.6 164.65 169.2 163.3 169.85 162.6 170.2 160.95 171.25 160.1 171.65 159.16953125 172.115234375 158.35 172.3 157.407421875 172.9568359375 156.45 173.55 157.3 174.4 160.45 176 163.9 177.75 165.3 177.75 169.5 177.75 171.1 167.55
M 171.05 191.85
Q 170.7833984375 192.1826171875 170.6 192.45 171.8 192.45 175.2 193.95 178.55 195.45 179.15 195.45 183.1 195.45 186.25 178.3 186.4083984375 177.187890625 186.55 176.15 185.30390625 178.730078125 184.2 180.05 183.6306640625 180.7478515625 182.5 181.8 180.56328125 185.242578125 179.15 186.7 177.6 188.25 174.35 190.25
L 172.25 191.55
Q 171.75 191.85 171.4 191.9 171.2033203125 191.9 171.05 191.85
M 108.9 89.9
Q 108.808984375 90.146875 108.7 90.4 105.6 97.65 105.15 99.15 104.85 99.15 104.55 99.45 104.25 99.75 103.95 99.75 103.95 99.15 100.35 78.5 100.35 86.2 100 101.05 99.7947265625 108.9392578125 99.55 114.6 101.09921875 112.9853515625 102.35 112.2 104.1609375 111.0357421875 106.7 110.4 106.534375 108.6955078125 106.9 106.1
L 108.7 91.45
Q 108.811328125 90.6396484375 108.9 89.9
M 134.75 133
Q 134.1 133.2 132.75 133.2
L 129.4 133.15
Q 131.596484375 134.4357421875 132.85 135.55 136.3 138.5 135.75 141.8 135.5037109375 143.2287109375 134.25 144.8
L 134.3 144.8
Q 134.35 146.85 132.25 148.6 130.05 150.45 126.4 151.25
L 124.6 151.5
Q 121.412890625 151.8310546875 116.95 151 116.03125 150.865234375 115.05 150.65 110.95 149.75 108.55 148.2 107.5 147.4 106.9 147.1 105.6 146.45 105.5 145.9 105.9212890625 145.9443359375 106.35 146
L 103.1 144.35
Q 103.2 143.6 104.05 143.5 104.5 143.45 105.4 143.75 109 145.15 110.5 145.9 113.1 147.2 113.55 147.35 114.571875 147.678515625 116.1 147.8 115.912109375 147.1458984375 115.7 146.4 114.5 141.95 114.5 139.85 114.5 135.95 120.95 133.7 121.6876953125 133.4384765625 122.65 133.1
L 117.4 133.05
Q 116.77890625 133.05 116.25 133.05 116.3728515625 133.18671875 116.4 133.35 116.5 133.8 115.75 134.35
L 114.3 135.35
Q 113.3 136 113 136.1 112.45 136.3 111.35 136.5
L 104.65 137.55
Q 100.9873046875 138.0732421875 97.4 138.2 94.4830078125 138.7767578125 91.45 138.8 86.304296875 138.8595703125 83 137.15 83.1072265625 137.365625 83.2 137.55 86.85 144.75 87.35 147
L 81.45 147 81.45 157.65
Q 81.7248046875 159.0466796875 82.5 164.6 82.755078125 164.5533203125 83.1 164.45 83.1181640625 163.962890625 83.1 163.6 82.5 160.5 82.8 159 83 158.15 83.45 157.95
L 83.95 160.95
Q 84.25 163.15 84.25 163.25 84.312109375 163.6927734375 84.35 164.2 84.6033203125 166.876953125 84.35 171.1
L 84.15 173.15
Q 84.5494140625 172.13046875 85.1 170.8
L 88 163.8
Q 88.0953125 163.544140625 88.2 163.3 90.7423828125 156.470703125 91.9 154.3 92.956640625 152.25859375 94.15 150.9 93.5921875 151.080859375 93.15 151.1 92.9 150.9 92.9 150.55 92.85 150.15 93.05 149.9 93.3 149.55 94.15 149.1 100.4 146.25 103.1 145.4 104.1 145.1 104.6 145.25 105.2 145.45 105.25 145.9 105.25 146.5 104.15 146.95 99.9544921875 148.316015625 96.55 149.95 93.9291015625 154.741796875 91.5 159.6 90.9 160.8 90.7 161.4
L 90.2 162.8
Q 92.4513671875 162.3126953125 95.3 161.65 107.75 158.85 111 158.85 111.75 158.85 119.35 166.35 122.719140625 169.6810546875 125.3 172.1
L 135.05 164.2
Q 138.9 161.1 140.9 159.75 141.1431640625 159.5818359375 141.35 159.4 142.7853515625 158.476953125 144.1 157.7
L 144.7 155.35
Q 145.65 151.65 146.2 150.1 146.9 147.9 147 147.25 147.143359375 146.36171875 147.25 145.85 146.846875 145.4875 146.4 144.8 141.55 137.3 136.6 133.6 135.881640625 133.0796875 135.4 132.6 135.1443359375 132.845703125 134.75 133
M 91.1 146.25
Q 90.55 146.35 90.3 145.85 90.85 145.65 91.55 145.2 92.35 144.6 92.75 144.35 93.65 143.7 95.2 143.05
L 99.55 141.05 99.65 141.45
Q 99.2 141.65 98.15 142.35 96.65 143.35 93.55 145.05
L 91.95 145.95
Q 91.4 146.2 91.1 146.25
M 104.45 138.3
L 104.8 138.3
Q 105.1 138.55 105.05 139.45 105.15 139.85 105.6 140.5
L 105.6 141.15 105.85 141.8
Q 105.95 142.3 105.6 142.4 104.8 141.6 104.7 141.1
L 104.55 140.5 104.35 140.05 104.3 139.6
Q 104.2 138.9 104.45 138.3
M 130.55 195.4
Q 129.773046875 196.133203125 128.5 197
L 115.15 205.8 118.45 208.5
Q 119.85 209.65 120.45 210.4 121.45 211.55 121.7 212.75 122.05 214.3 121.15 216.25 120.4 217.95 119.2 218.85 118.5 219.35 117.45 219.7 116.15 220.25 115.05 220.1 114.6 220.05 113.9 219.9 113.15 219.65 112.75 219.55 112 219.35 110.5 219.15
L 107.15 218.65 106.75 218.8
Q 106.3 218.95 105.3 219.05 100.5 219.55 98.05 219.5 97.05 219.45 92.3 219.1 91.02578125 219.0453125 89.8 219 89.528125 219.130078125 89.1 219.1 88.819921875 219.2056640625 88.2 219.25 87.55 219.25 87.25 219.35 87.1501953125 219.2251953125 87.1 219.05 86.8419921875 219.0869140625 86.55 219.1 86.6224609375 219.2796875 86.65 219.5 86.7 219.95 86.75 220.75 86.9 221.1 87.2 221.7 87.35 222.1 87.45 223.05 87.5 223.25 88 224.1 88.3 224.6 88.75 225.65 89.63359375 227.770703125 90.4 229.8 91.2068359375 231.76875 91.9 233.65
L 94.6 241.05
Q 94.969140625 241.06328125 95.35 241.1 98.65 241.45 102.6 243.15 103.3 243.45 103.6 243.8 104.1 244.4 103.75 244.9 103.35 245.6 101.85 245 98.65 243.6 95.2 242.95 93.1 242.5 91.55 242.7 90.3 242.95 89.65 242.9 88.55 242.9 88 242.15 89.510546875 241.465625 91.2 241.2 90.4755859375 240.55703125 89.55 239.4 85.75 234.7 80.45 231.05 79.1 230.1 79 229.3 80 228.9 81.75 229.95 84.35 231.55 88.35 235.55
L 92.55 239.75 91.8 238
Q 90.295703125 234.6033203125 88.05 229.05
L 88.1 229.55
Q 88.1 230.393359375 88.05 231.15 87.9494140625 232.9072265625 87.6 234.2 87.5 234.55 87.3 234.45 86.9 233.05 86.9 231.1 86.9 231.05 86.9 230.65 86.4 230.2 85.95 229.35 85.4 228.35 85.1 227.85
L 84.1 226.3 82.75 223.55
Q 82.757421875 223.626171875 82.75 223.7
L 82.05 228.55 81.75 228.55
Q 81.2 226.2 81.35 225.15 81.75 223.6 81.85 222.85 81.95 222.35 81.9 220.8 81.8611328125 219.789453125 82 219.1 79.9283203125 219.2892578125 78.65 218.65 77.1 218 75.35 215.55 73.85 213.55 73.95 212.15 74.0154296875 211.60546875 74.35 210.95 73.4791015625 210.7365234375 72.65 210.2 71.684375 209.5751953125 71.05 208.7 70.8767578125 212.3951171875 70.6 217.55 70.5 223.35 71.9 226.95 73.55 231.3 77.9 234.35 80.65 236.2 84.55 241.8 88.1 246.9 90.3 247.95 92.3 248.85 99.3 249.85
L 102.8 250.35
Q 102.5890625 247.2796875 104.55 243.95 106.25 241.2 110.5 237.3 124.65 224.9 131.4 218.4 135.9623046875 214.0333984375 139.7 209.8 145.53671875 203.275 149.4 197.1 150.49375 195.2251953125 151.4 193.7 151.1509765625 193.6474609375 150.8 193.55 148.55 192.75 147.35 191.55 147.2921875 191.4998046875 147.25 191.45 138.5017578125 192.807421875 130.55 195.4
M 148.9 189.3
Q 149.65 189.55 149.6 190.2 149.6 190.467578125 149.45 190.65
L 150.3 191
Q 151.15 191.35 152.2 192.25 152.2275390625 192.270703125 152.25 192.3 153.4232421875 190.364453125 154.25 189.1 154.385546875 189.4955078125 154.4 189.95 154.65 189.3880859375 154.65 189.2 154.65 188 153.55 185.4 152.3 182.4 151.1 182.4 145.95 182.4 115.3 196.65 96.4201171875 205.4107421875 86.05 209.9 86.4970703125 210.4703125 87.3 211.4 88.05 212.5 87.55 213.45 86.7 213 85.95 211.9 85.3673828125 210.9533203125 84.95 210.35 79.573828125 212.7068359375 76.7 213.75 76.790625 213.8265625 76.85 213.9 78.2 215.95 79.55 216.5 80.95 217.15 83.7 216.45 90.2 214.7 98.5 209.7 107.75 203.75 112.45 201 128.8 191.65 147.4 189.15 148.25 189.05 148.9 189.3
M 135.45 131
Q 136 130.95 136.6 131.2 138.5 131.9 140.95 134.35 144.05 137.45 146.6 141.05
L 148.8 144.35
Q 149.1001953125 144.83046875 149.15 145.2 149.398828125 145.612109375 149.15 146.4
L 147.6 152.85
Q 149.8287109375 149.90625 150.35 147.4 150.75 145.55 150.45 140.45 150.2 135.65 151.2 131.7
L 151.2 128.1 147.6 128.1
Q 139.8 129.2 127.25 127.35 112.3 125.15 108.6 125.15 107.15 125.15 97.5 130.2 87.9 135.2 84.45 135.2 84.286328125 135.2 84.1 135.15 84.3046875 135.2712890625 84.5 135.35 86.85 136.35 90.35 136.45 97.2 136.7 103.65 133.8
L 106.05 132.7
Q 107.45 132.05 108.45 131.7 111.4 130.7 117.65 130.7
L 132.1 130.75
Q 133.9439453125 130.75 135.1 131.1 135.2529296875 131.028125 135.45 131
M 159 265.4
Q 158.9451171875 265.590234375 158.9 265.75 158 269.05 158.7 270.6 158.777734375 270.751171875 158.85 270.9 159.5478515625 271.99375 160.85 272.55 160.1685546875 271.84453125 160.8 269.95 161.85 267.1 162.5 265.9 162.6150390625 265.6384765625 162.7 265.4 164.2466796875 259.0404296875 165.95 251.5 170.6 231 170.6 227.85 170.6 219.9 168.35 212.45 168.2515625 212.1255859375 168.15 211.8 168.34375 221.60625 167.85 226 167.55 228.55 166.55 233.9 163.333203125 249.98359375 159 265.4
M 150.7 218.35
Q 150.03046875 218.0759765625 149.6 217.8 149.0568359375 218.40234375 148.45 219 148.535546875 219.076953125 148.6 219.15 149.2 219.85 149.55 220.1
L 150.2 220.5
Q 150.55 220.75 150.6 221.1
L 150.35 221.2
Q 150.15 220.9 149.6 220.65 148.85 220.35 148.65 220.2 148.4 220.05 148.1 219.6 148.049609375 219.528125 148 219.45 147.2796875 220.1869140625 146.5 220.9 147.0775390625 221.188671875 149.3 222.3 150.4373046875 222.85234375 151.55 223.6 152.8375 222.4541015625 153.85 221.3 155.5 219.45 160.8 211.2 163.5125 206.9470703125 166.1 204.3 164.801953125 198.76875 164.1 193.65 159.75 204.45 154.75 211.55 152.6068359375 214.5595703125 149.95 217.45 150.1583984375 217.5814453125 150.7 217.9 151.25 218.2 151.5 218.55
L 151.4 218.75
Q 151.15 218.7 150.7 218.35
M 145.95 221.6
Q 145.901953125 221.559375 145.85 221.5 144.411328125 222.8490234375 142.85 224.15 137.65 228.45 125.95 236.4 125.417578125 236.759765625 124.9 237.1
L 125.15 237.3 125.75 237.85
Q 126 238.1 126.25 238.6 126.4 238.9 126.65 239.45
L 126.4 239.6
Q 125.9 239.1 125.8 238.75 125.65 238.4 125.5 238.25 125.4 238.1 125 237.9 124.6623046875 237.6748046875 124.5 237.35 124.1455078125 237.6314453125 123.75 237.85 123.939453125 238.03671875 124.15 238.3 124.55 238.75 125.5 239.25 126.6 239.9 126.95 240.15 127.15 240.35 127.1 240.5 127.05 240.65 126.75 240.65 125.9 240.7 124.6 239.8 123.5263671875 239.0126953125 123.05 238.35 115.2314453125 243.662109375 109.6 247.55 110.0859375 247.32734375 110.55 247.25 111.7 247.2 113 248.2 113.4 248.45 114.1 249 114.75 249.45 115.25 249.65 115.45 250 114.8 250 112.7 249.9 111.2 248.55 110.2 248.65 108.55 249.9 107.8849609375 250.398828125 107 250.95 106.269140625 251.4373046875 105.4 251.95
L 105.35 251.9
Q 105.9619140625 253.35703125 107.3 254.15 108.65 255.05 110.1 254.75 111.5 254.5 113.35 252.7 126 241.4 140 232.05 140.923828125 231.4341796875 141.7 230.9 145.85859375 227.860546875 150.05 224.9 150.5078125 224.5650390625 150.9 224.2 150.8583984375 224.179296875 150.8 224.15 149.5 223.35 148.85 223 146.85 222.2 145.95 221.6
M 198.5 183.65
Q 195.4 186.6 193.2 191.5 193.0220703125 191.962890625 189.45 201.2 189.52265625 201.109765625 189.6 201 189.096875 203.6373046875 188.45 207.2 188.851171875 206.290234375 188.9 205.85 188.9 205.1 189 204.7 189.2 204.05 189.7 203.5 190.15 202.85 190.6 202.85
L 190.95 203.2
Q 190.4 203.9 189.85 205.05
L 188.95 207.25
Q 188.5998046875 208.1060546875 188.25 208.45 187.13515625 214.8310546875 185.65 223.95 184.173046875 231.3349609375 182.1 237.3 182.513671875 237.191015625 182.8 237 183.8796875 236.9509765625 185.05 237.25 185.5029296875 230.933984375 187.4 226.45 187.6779296875 225.7703125 188.25 224.55
L 188.2 224.55
Q 187.9 224.35 187.4 223.85 187.2 223.65 187.2 223.55 187.15 223.35 187.35 223.05
L 187.55 223.05
Q 187.7 223.25 187.85 223.7 188 223.85 188.4 223.95 188.4486328125 223.9890625 188.5 224.05 188.7498046875 223.5130859375 189.05 222.9 190.2 220.65 190.7 219.35 191.45 217.35 192.2 213.8 193.1 209.65 193.55 208.2 194.75 204.15 198.95 196.7 203.1 189.25 204.3 185.15 204.65 184 205.05 183.7 205.3810546875 183.4634765625 205.8 183.5 206.2275390625 182.16015625 207.25 180.75 207.7 180.15 210.15 177.4 213.1240234375 174.0193359375 215.9 168.95 212.71484375 171.7658203125 209.75 174.25 200.8 181.45 198.5 183.65
M 186.5 221
L 187.1 221.15 187.3 221.3
Q 187.55 221.45 188.15 221.55 188.5 221.65 188.95 222.25
L 188.85 222.5
Q 188.25 222.4 188.15 222.15
L 187.05 222
Q 186.4 221.7 186.15 221.35
L 186.3 221.1 186.5 221.1 186.5 221 Z"/>

<path fill="#FFFFFF" stroke="none" d="
M 114.35 133.05
Q 114.148046875 133.091796875 114 133.1
L 113.95 133.1
Q 114.10546875 133.1310546875 114.35 133.05
M 89.2 217.05
L 89.35 217.05 89.65 216.95 90.85 216.95
Q 91.5587890625 217.0478515625 92.05 217.25 92.385546875 217.2818359375 92.75 217.3 93.143359375 217.318359375 93.5 217.3 92.2611328125 217.1392578125 91.3 216.8 90.93515625 216.637890625 90.75 216.4 89.99375 216.7478515625 89.2 217.05
M 247.35 39.5
Q 247.18203125 39.4900390625 247 39.45 247.05 39.5671875 247.05 39.65
L 247 39.85 247.35 39.5 Z"/>

<path fill="#C0C584" stroke="none" d="
M 264.5 10.9
L 264.5 10.65
Q 262.95 6.45 262.25 4.4 261.986328125 3.66171875 261.75 2.95
L 163.45 2.95
Q 163.290625 3.070703125 163.2 3.15 162.15 4.15 162.05 5.2 162 5.65 162.15 6.7 162.3 7.6 162.15 8.1 161.95 8.75 161.3 9.4 160.45 10.1 160.1 10.5 159.25 11.5 158.6 14.2 158.4212890625 15.0044921875 158.2 15.65 160.30234375 14.55078125 162.8 13.7 166.2 12.45 171.25 11.5 171.1 12.65 169 13.2 163.05 14.9 158 17.75 155.1 19.4 154.15 21.05 153.6 22.05 153.2 24.1 152.75 26.25 152.35 27.15 151.95 28 151 29.25 149.85 30.7 149.5 31.3 149.3 31.7 148.1 34.45 147.35 36.05 145.85 38.5
L 143.05 43.1
Q 148.617578125 37.7681640625 152.15 34.95 155.71484375 32.083203125 159.2 29.95 159.4013671875 29.63203125 159.6 29.3 161.1 26.8 162.35 24.75 161 24.75 159.95 23.65 159.1849609375 22.8849609375 158.9 22.05 158.0240234375 22.7626953125 157.15 23.5 156.9 22.35 158.75 21.05 165 16.55 170 14.85 173.15 13.8 177.95 13 182.18671875 12.2681640625 185.45 12.05 189.730078125 11.25 192.8 11.25 196.2 11.25 197.75 11.85 200.15 12.75 200.15 15.3 200.15 19.3888671875 199.05 24.25 200.24375 24.4244140625 201.5 24.6 205.45 25.15 213.3 26.35 218.89375 27.1126953125 221.3 27.5 222.9185546875 26.58671875 223.8 25.95 225.7287109375 24.5388671875 237.9 23.2 234.44296875 21.8193359375 232.45 21.25 229.2 20.55 227.6 20.2 218.95 18.6 210.2 15.75 209.25 15.45 209.2 14.9 210.25 14.75 212.35 15.35 220.3 17.8 223.5 18.45
L 226.1 18.85
Q 230.9 19.7 237.85 22.15 238.887890625 22.5138671875 240.2 22.95 243.1498046875 22.6708984375 245.7 22.45
L 235.4 18.6
Q 232.7 17.5 231.8 16.8 232.35 16.55 233.3 16.95
L 247.2 22.3
Q 253.5078125 21.8 257.4 21.8 247.65 19.95 230.6 14.35 216.369921875 9.6541015625 212.3 6.75 211.6796875 6.9701171875 211.05 7.25 212.8 8.2 214.6 8.35 213.15 9 211.45 8.6 210.85 8.5 210.55 8.15 209.95 7.45 210.55 6.55 210.86328125 6.17421875 211.3 5.9 210.7232421875 5.2421875 210.75 4.7 214.35 3.5 216.95 3.5 221.2 3.5 240.55 6.6 247.1724609375 7.658984375 252.05 8.5 254.7626953125 8.7330078125 255.5 8.8 259.65234375 9.2765625 264.5 10.9 Z"/>

<path fill="#9EAC79" stroke="none" d="
M 275.85 5
Q 276.6671875 3.7873046875 277.3 2.95
L 261.75 2.95
Q 261.986328125 3.66171875 262.25 4.4 262.95 6.45 264.5 10.65
L 264.5 10.9
Q 266.7734375 11.6783203125 269.2 12.7 268 13.2 266.3 12.9 265.45 12.7 263.35 12 260.1 11 253.4 10.2
L 220.15 6.4
Q 216.65 6 214.85 6.2 213.5498046875 6.3625 212.3 6.75 216.369921875 9.6541015625 230.6 14.35 247.65 19.95 257.4 21.8 253.5078125 21.8 247.2 22.3
L 254.3 25.05
Q 254.15 25.6 253.25 25.25
L 245.7 22.45
Q 243.1498046875 22.6708984375 240.2 22.95 243.77578125 24.2279296875 249.4 26.2
L 251.15 26.75
Q 250.55 27 249.3 26.7
L 239.6 23.9
Q 238.7232421875 23.5361328125 237.9 23.2 225.7287109375 24.5388671875 223.8 25.95 222.9185546875 26.58671875 221.3 27.5 221.722265625 27.5890625 222.05 27.65 227 28.5 230.65 29.7 234.35 30.95 238.6 33.15 241.3 34.5 246.2 37.35 247.45546875 38.1642578125 247.9 38.85
L 251.15 35.25
Q 259.7 25.7 264.05 20.55 270.95 12.2 275.85 5
M 197.75 11.85
Q 196.2 11.25 192.8 11.25 189.730078125 11.25 185.45 12.05 186.454296875 11.973046875 187.35 11.95 192.5 11.85 196.65 13 196.75 13.05 196.65 13.15 196.5 13.25 196.35 13.25 185.15 12.65 174.4 15.1 171.65 15.8 171.45 15.85 164.6287109375 17.7927734375 158.9 22.05 159.1849609375 22.8849609375 159.95 23.65 161 24.75 162.35 24.75 161.1 26.8 159.6 29.3 159.4013671875 29.63203125 159.2 29.95 162.6904296875 27.8787109375 166.1 26.55 175.95 22.7 189.6 23.4 193.7578125 23.60390625 199.05 24.25 200.15 19.3888671875 200.15 15.3 200.15 12.75 197.75 11.85
M 248.9 8.3
Q 250.7134765625 8.4318359375 252.05 8.5 247.1724609375 7.658984375 240.55 6.6 221.2 3.5 216.95 3.5 214.35 3.5 210.75 4.7 210.7232421875 5.2421875 211.3 5.9 211.6138671875 5.7306640625 211.95 5.6 214.1 4.7 217.05 4.8 218.5 4.85 222.35 5.4 224.5 5.75 229.15 6.25
L 238.25 7.3
Q 245.35 8.1 248.9 8.3
M 299.95 97.85
L 299.95 92.5
Q 295.059765625 98.6935546875 287.65 101.35 286.95 101.65 286.65 101.35 285.309375 102.99375 283.9 104.65 284.6734375 104.148828125 285.85 103.75 287.55 103.15 290.9 102 293.85 100.95 295.8 99.85 298.75 98.2 299.6 97.95 299.790234375 97.9052734375 299.95 97.85 Z"/>
</g>

<g id="Layer1_2_FILL">
<path fill="#F24321" fill-opacity="0.4980392156862745" stroke="none" d="
M 64.75 139.15
Q 47.25 156.65 47.25 181.35 47.25 206 64.75 223.45 82.25 241 106.9 241 131.6 241 149.05 223.45 166.55 206 166.55 181.35 166.55 156.65 149.05 139.15 131.6 121.7 106.9 121.7 82.25 121.7 64.75 139.15
M 57.6 181.35
Q 57.6 160.9 72 146.45 86.5 132 107 132 127.4 132 141.85 146.45 156.3 160.9 156.3 181.35 156.3 201.8 141.85 216.25 127.4 230.7 107 230.7 86.5 230.7 72 216.25 57.6 201.8 57.6 181.35
M 75.1 149.5
Q 61.95 162.7 61.95 181.3 61.95 199.95 75.1 213.1 88.3 226.3 106.95 226.3 125.55 226.3 138.7 213.1 151.9 199.95 151.9 181.3 151.9 162.7 138.7 149.5 125.55 136.35 106.95 136.35 88.3 136.35 75.1 149.5 Z"/>
</g>
</defs>

<g transform="matrix( -0.9195556640625, 0.11627197265625, 0.11627197265625, 0.9195556640625, 252.05,27.8) ">
<g transform="matrix( 1, 0, 0, 1, -0.05,0) ">
<g transform="matrix( 1, 0, 0, 1, 0,0) ">
<use xlink:href="#flash0_ai_04_Fonte__Clip_Group__0_Layer3_0_FILL"/>
</g>

<mask id="Mask_Mask_1">
<g transform="matrix( 1, 0, 0, 1, 0,0) ">
<use xlink:href="#Mask_flash0_ai_04_Fonte__Clip_Group__0_2_MASK_0_FILL"/>
</g>
</mask>

<g mask="url(#Mask_Mask_1)"/>
</g>
</g>

<g transform="matrix( 1.00689697265625, 0, 0, 1.00689697265625, -2,-2.95) ">
<use xlink:href="#Layer1_1_FILL"/>
</g>

<g transform="matrix( 1, 0, 0, 1, 0,0) ">
<use xlink:href="#Layer1_2_FILL"/>
</g>
</svg>
