
<svg xmlns="http://www.w3.org/2000/svg" version="1.1" xmlns:xlink="http://www.w3.org/1999/xlink" preserveAspectRatio="none" x="0px" y="0px" width="350px" height="350px" viewBox="0 0 350 350">
<defs>
<g id="Layer0_0_FILL">
<path fill="#F03B1E" stroke="none" d="
M 230.4 247.95
Q 230.2 253.85 229.1 256.5 227.7 260.45 223.8 263.15 225.55 264.05 226.4 263.7 229.6 262.4 231.7 257.55 233.8 252.8 232.65 250.05 232.4 249.45 230.45 247.05 230.45 247.45 230.4 247.95
M 227.4 243.15
Q 226.35 241.65 225.85 240.75 219.5 247.45 212.45 254.5 217.2 258.3 219.55 260.15 220 260.6 220.45 260.9 221.85 260.15 223.05 259.15 225.85 256.6 226.35 253.4 226.35 250.55 226.5 249.05 226.5 247.3 227.4 243.15
M 234.8 208.1
Q 234.3 208.55 233.5 208.9 230.75 210 218.2 214.05 219.9 214.8 221.55 216.2 222.7 217 223.75 218.2 226.15 217.65 229.6 216.45
L 229.7 216.4
Q 233.35 215.1 236.05 214.2 236.5 214 236.85 214.05 237.4 212.45 238.1 211 236.6 209.3 234.8 208.1
M 245.35 214.25
L 245.2 214.25
Q 244.5 213.75 243.65 213.4 242.4 213.45 240.4 213.7 240.35 213.85 240.2 214.1 240.35 214.05 240.35 214.15 240.6 214.2 240.8 214.25 240.85 214.5 240.7 214.7 240.65 215.25 240.4 216.2 239.8 218.2 238.8 221.7 238.4 223.45 237.7 225.55 237.3 227.05 236.9 228.35 238.25 228.5 239.4 228.55 240.35 226.7 241.6 223.35 242.25 221.7 242.7 220.4 244.55 215.8 245.35 214.25
M 171.4 115.4
L 171.8 116.35
Q 171.55 116.15 169.9 115.4 168.35 115.45 166.7 115.9 167.2 117.8 168.15 121.4 169 124.5 169.45 127.1 169.75 129.45 169.85 131.35
L 170.6 133.25 172.5 132.5
Q 179.9 127.45 183.75 123.9
L 183 122
Q 182.05 121.7 179.25 120.1 178.4 119.7 177.6 119.3 177.6 118.55 177.3 116.6 173.25 115.55 172.25 115.45 171.8 115.45 171.4 115.4
M 169.15 103.2
Q 167.85 102.1 166.35 101.5 161.1 98.85 155.1 101.25 152.25 102.4 149.3 105.55 147.7 107.3 147 108.65
L 147.05 108.7
Q 147.25 108.95 147.35 109.2 147.9 110.55 147.6 112.2 148 112.75 148.45 113.3 149.1 111.5 150.9 109.35 153.5 106.35 155.65 105.45 159.95 103.7 164.95 107.1 168.05 109.25 169.75 112.1 170.9 111.9 171.9 111.9 173.65 111.95 176.55 112.7 173.85 106.7 169.15 103.2 Z"/>

<path fill="#00ABD1" stroke="none" d="
M 189.65 258.05
Q 189.05 258.7 188.4 259.5 167.3 283.25 168.5 286.25 168.7 286.7 170.1 288.1 171.6 288.9 172.65 289.5 173.25 289.75 173.8 290.15 174.1 289.8 174.3 289.6 176.3 288.2 177.65 289.25 177.9 290.3 177.35 291.5 178.7 291.8 180.05 291.95 182.85 288.05 188.8 278.95 192.65 274.6 197.7 269.4 199.7 267.3 202 265 200.15 264.2 198.15 263.05 196 261.85 191.85 259.15 190.75 258.55 189.65 258.05
M 225.85 240.75
Q 226.05 240.6 226.2 240.45 225.95 240.4 225.75 240.6 216.15 243.9 204.05 246.8 201.3 247.45 198.65 248.1 196.7 250.2 194.5 252.55 193.3 253.95 192.1 255.4 194.75 256.7 198.3 258.95 202.05 261.25 204.7 262.25 205.75 261.25 206.9 260.1 209.75 257.25 212.45 254.5 219.5 247.45 225.85 240.75
M 229.6 216.45
Q 226.15 217.65 223.75 218.2 222.4 218.5 221.4 218.75 221.1 218.75 220.95 218.85 219.85 219.15 219.7 219.2
L 215.55 220.9 216.5 223.25 217.95 224.85
Q 216.05 227.5 213 231.35 220.35 230.3 221.3 229.9 222.25 229.5 222.2 228.45 222.2 227.45 221.25 225.4 222.1 225.05 221.9 224.65 226.1 226.35 230.55 227.3 231.6 227.55 232.55 227.75 234.85 228.1 236.65 228.4 236.8 228.35 236.9 228.35 237.3 227.05 237.7 225.55 238.4 223.45 238.8 221.7 239.8 218.2 240.4 216.2 240.65 215.25 240.7 214.7 240.85 214.5 240.8 214.25 240.6 214.2 240.35 214.15 240.35 214.05 240.2 214.1 239.6 215.05 238.8 215.75 237.4 217 236.15 216.15 236.5 215 236.85 214.05 236.5 214 236.05 214.2 233.35 215.1 229.7 216.4
L 229.6 216.45
M 149.6 261.15
Q 148.85 264.15 147.8 269.2 146.6 274.4 145.65 277.25 146.3 277.3 147.05 277.5 148.5 277.9 150 278.3
L 159.7 274.35
Q 164.5 271.45 167 270.4 166.45 269.25 165.15 268 163.8 266.7 163.5 266.35 167.65 261.4 172.45 255.9 171.3 256.3 170.05 256.65
L 159.95 260.2
Q 156.85 261.2 154.7 261.5 154.75 261.6 154.65 261.7 154.3 262.75 152.15 262.25 151.1 261.75 149.6 261.15
M 159 251.45
Q 154.05 257.15 153.5 257.4 153.25 257.5 150.9 256.4 150.75 256.8 150.55 257.5 152.45 258.5 153.55 259.55
L 169.85 253.65
Q 173.5 252.25 175.9 251.8 176.25 251.5 176.6 251 183.3 243.2 191.1 234.25 196.7 227.75 202.8 220.75 203.95 219.4 205.1 218.15 203.15 218.7 201.05 219.4 196.55 220.7 191.5 222.25 185.9 223.9 181.05 225.5 175.95 231.55 171.65 236.6 163.55 246.2 159 251.45
M 140.65 235.35
Q 140.95 235.5 141.15 235.75 141.85 234.85 142.25 234.5 142 234.5 141.85 234.55 141.75 234.6 140.65 235.35
M 160.55 207.55
Q 159.7 206.9 159.25 206.3 137.8 231.5 137.9 231.65 138.2 232.45 138.6 233.25
L 139.75 232.5 142.25 231.35
Q 143.7 230.5 144.4 230.1 145.65 229.4 148.6 228.4 149.8 228.15 150.25 228.55 150.7 229.2 150.25 229.85 149.85 230.3 149.15 230.55
L 146.15 232.1 144.7 233.4
Q 145.15 233.45 145.3 233.75 145.5 234.2 145.65 233.9 145.75 234.85 144.9 235.9
L 143.9 237.1
Q 144 237.1 144.15 237.15 148.1 238.5 150.5 237.55 152.2 235.8 153.65 234.1 163.95 222.75 171.45 214.3 185.35 198.9 190 193.1 181.15 196.5 172.45 200.25
L 172.6 200.2
Q 173.3 200.7 173.45 201.35
L 173.7 201.2
Q 174.35 202.25 173.95 203.3 173.85 203.95 173.55 204.25 173.2 204.65 171.75 205.25
L 170 205.9
Q 168.85 206.2 168.3 205.55
L 167.95 204.95 166.95 202.5
Q 165.2 203.2 163.55 204 164 205.15 164 205.55 164.15 206.95 163.2 207.65 162.05 208.65 160.55 207.55
M 128.35 171.3
Q 128.6 172 128.75 172.75 129.95 169.45 131.25 167.35 129.5 167.95 127.5 168.55 127 168.65 126.4 168.9 127.7 169.75 128.35 171.3
M 95 184.7
Q 93.65 184.5 92.55 185.25 91.5 185.95 90.95 189.05 90.8 190.55 90.45 192.05 96.75 190.1 101.55 188.85 100.85 188.15 99.75 187.2 97.2 184.9 95 184.7
M 95.7 181.45
Q 98.45 181.85 99.8 182.45 101.15 183.1 102.8 184.85 105.1 187.35 105.45 187.65 105.55 187.75 105.7 187.8 106.2 187.65 106.8 187.55 114.2 185.85 121.45 183.8 123.7 181.8 124.8 180.5 125.4 179.6 126.15 178.3
L 126.05 178.05
Q 125.7 178.2 125.35 178.3 123.3 179.15 121.25 178.3 119.25 177.4 118.4 175.35 117.6 173.45 118.3 171.45 109.9 174.3 104.45 176.5 103.95 176.7 93.15 181.25 94.25 181.25 95.7 181.45
M 135.75 131.35
L 135.6 131.3 135.65 131.4 135.75 131.35
M 76.4 189.55
Q 78.85 188.75 79.3 189.9 78.4 191.15 76.9 191.85 76.95 192.65 77.2 193.35 80.8 194.3 86.6 193.1 87 190.95 87.35 189 87.7 186.25 88.25 184.85 88.7 183.65 89.4 182.9 84.05 185.15 76.8 188.15 76.65 188.85 76.4 189.55
M 75.15 181.95
Q 75.35 182.2 75.3 182.35 76.25 181.15 77.4 180.45 78.05 179.95 78.6 180.05 79.05 180.15 79.35 180.7 79.65 181.25 79.6 181.75 79.5 182.05 78.6 183.75 78 184.6 77.6 186 77.8 185.95 77.95 185.9 78.15 186.05 78.2 186.1 79.25 186.4 80.75 185.15
L 93.15 175.45
Q 102.9 167.85 108 164.35
L 113.15 160.75
Q 115.45 159.1 121.15 154.7
L 124.75 151.85
Q 127.5 149.7 129.05 148.8 129.9 148.15 130.45 147.75 130.55 147.85 130.6 148 131.05 148.8 131.45 149.3 131.7 149.2 131.95 149 132.1 148.95 132.3 148.85
L 132.25 148.8
Q 132.4 147.7 133.5 147.1
L 135.4 146.2
Q 137.4 145.4 139.05 144.25 139.1 144 139.15 143.85 140.4 141.1 141.95 138.65 142.35 137.95 142.8 137.3 142.2 137.3 141.55 137.4 139.7 137.75 139 136.95 140.45 134.95 144.35 134.35 144.3 133.55 144.15 132.95 144.15 132.9 144.1 132.8 143.85 132.45 143.4 132.35 142.85 132.45 142.05 132.7 140.8 133.2 140.05 133.2
L 138.4 133.4
Q 137.75 133.45 136.55 133.9
L 136.45 133.95
Q 136.55 134.65 136.3 135.3 136.15 135.7 135.95 135.95 135.35 136.9 133.85 137.35 131.45 137.9 126.95 136 125.05 135.05 124.2 134.45 123.8 134.1 123.05 133.55 123.25 134 123.45 134.5 123.5 134.7 123.6 134.85 123.25 135 122.9 135.4
L 120.75 136.95 121.3 138.6 115.7 140.55 102.7 150
Q 97.75 153.45 94.65 156.15 94.8 156.45 94.95 156.8 95.5 158.3 95.55 158.95 95.7 160.4 94.65 160.9 93.9 161.2 92.8 160.85 91.55 160.6 90.3 160.45
L 77 173.9
Q 75.65 175.45 75.4 175.8 73.8 178.4 74.45 181.7 74.85 181.7 75.15 181.95
M 132.3 132.15
Q 132.05 131.75 131.75 131.25 131.7 131.15 131.2 130.65 127.7 130.15 125.3 130.85 125.95 131.25 126.35 131.55 128.9 133.1 131.1 133.6 130.9 133.4 130.9 133.1 130.9 132.6 131.3 132.35 131.6 132.15 132.3 132.15
M 229.95 166.65
Q 230.4 166.8 230.65 167.35 230.95 168.1 230.3 168.75 229.9 169.05 229.15 169.1 228.3 169.25 227.5 169.5 219.85 178.7 213.1 186.85
L 213.6 187.15 214.6 187.9 215.05 188.15
Q 215.3 188.85 214.7 189.4 214.25 189.9 213.6 189.85 212.7 189.9 211.15 189.25 203.55 198.45 196.9 206.45 212.15 201.85 221.1 199.7 228.85 190.9 234.85 184.15 239.1 179.2 242.55 175.3 242.2 174.95 242 174.6 241.45 173.8 242.05 173.1 242.7 172.35 244.15 173.15 244.3 173.2 244.35 173.3 248.7 168.2 251.35 165.25 249.4 162.7 245.65 160
L 245.6 160.35
Q 245.25 161.9 244.8 162.5 243.8 163.7 242.6 163.05 242.65 161.25 243.1 158.4 240.05 156.75 238.35 157.45 238.1 157.55 234.7 161.15 232.75 163.15 231.4 164.7 230.65 165.6 229.95 166.65
M 194.9 148.15
Q 193.85 145.45 186.7 137.85 182.6 143.3 171.85 149.9 162.2 155.75 151.55 160.1 147.35 161.8 141.7 163.8
L 141.8 163.95 141.45 163.9
Q 139.95 164.4 138.5 164.95 136.6 166.4 135.4 167.75 133.85 169.75 132.15 173.95 131.15 176.5 130.35 178.25 130.6 178.3 130.7 178.55
L 130.8 178.45
Q 131.3 178.05 131.8 177.8 131.75 177.7 131.7 177.55 131.25 176.45 131.65 175.35 132.15 174.3 133.25 173.85 134.4 173.4 135.45 173.8 136.6 174.3 137.05 175.4 137.2 175.75 137.2 176.15
L 138.15 175.75
Q 138 174.9 138.35 174.05 138.85 173 139.95 172.55 140.55 172.3 141.2 172.3
L 141.5 171.6 141.65 170.5 142.25 169
Q 141.35 168.45 140.95 167.55 140.5 166.4 140.95 165.3 141.4 164.2 142.5 163.75 143.65 163.3 144.75 163.8 145.8 164.2 146.25 165.35 146.7 166.45 146.25 167.55 145.85 168.65 144.7 169.1 143.85 169.45 142.8 169.25
L 141.85 172.45
Q 142.05 172.45 142.15 172.5 143.3 173 143.75 174.1 144.2 175.2 143.7 176.3 143.6 176.55 143.4 176.9 150.9 174.2 158.1 171.3 175.15 164.4 184.9 158.6 196.4 151.85 194.9 148.15
M 188.8 112.85
Q 188.8 112.75 188.7 112.8 188.2 112.6 187.8 112.65 187.05 112.75 186.45 113.8 186.65 113.75 186.7 113.7 187.35 113.55 188.6 112.95
L 188.8 112.85
M 222.35 146.85
Q 222.55 146.95 222.7 147 222.85 147 223.15 147.15 224.7 148.25 226 148 227.65 147.45 228.35 144.2
L 231.15 129.55
Q 231.4 128.35 231.2 127.5 229.6 128.3 228.2 129.3 227.75 129.1 227.6 128.55 227.4 128.05 227.7 127.55 228 126.75 229 126.2 228.7 126.2 228.3 126.3 222.5 126.85 216.7 128 213.8 128.75 212.8 129.4 210.8 130.8 210.9 132.75 211.05 134 212.4 135.7 204.15 145.8 195.45 158.25 191.15 164.5 181.55 178.2 186.75 176.5 192.05 174.95 192.4 174.8 192.7 174.8 192.6 173.45 192.7 172.15 192.65 170.9 193.25 170.35 194 169.7 195.75 170.35 199.45 171.75 203.7 173.85 207.3 168.65 211.45 162.5 217.65 153.35 222.25 146.9
L 222.35 146.85
M 216.95 97.05
L 213.4 95.95
Q 213.45 96.05 213.4 96.2 212.85 98 210.45 100.6 202.45 109 192.5 114.55
L 192.35 114.65
Q 190.75 115.45 189.15 116.2 188.55 116.6 187.95 116.85 187 117.2 186.05 117.45 186.05 117.6 186.05 117.7 186.05 118.95 186.2 120.3 186.65 125.55 188.05 130.8 188.7 132.8 189.7 133.1 190.4 133.35 191.95 132.7 193.45 132.15 196.35 131.95
L 199.1 131.9
Q 201.5 131.85 201.95 131.75 203.7 131.3 204 129.8 204.4 128.25 202.35 126.2 201.35 125.5 201.45 124.75 201.45 124.45 201.9 123.8
L 213.35 108.8
Q 215.7 105.75 217.35 103.9 219.55 101.5 219.5 100.05 219.3 98.1 216.95 97.05
M 202.15 95.35
Q 202.2 95.4 202.1 95.45
L 198.25 103.1
Q 197.7 104.4 196.55 107 196.25 107.5 195.9 108.35 201.4 104.6 204.95 101.2 208.05 98 210.4 94.7 206.1 94.2 202.15 95.35
M 189.25 59.3
Q 186.75 58.55 184 58 177.75 56.65 166.8 56.05 161.25 55.7 158.05 57 158.4 57.95 158.95 59.35 159.6 61.3 159.15 62.65 158.45 62.9 157.45 61.65 156.45 60.25 155.85 58.95 155.8 59.1 155.8 59.3 155.7 59.55 155.05 60 154.6 59.9 154.2 60.05 153.3 60.3 152.85 61.2 152.2 62.8 153.35 64.6 154.25 66.15 156.2 67.3 157.25 67.85 159.8 68.9
L 164.55 70.75
Q 167.6 71 170 72.6 170.45 72.95 170.7 73.2 174.3 74.55 177.1 75.55 177.9 75.5 178.85 75.4
L 182.5 75
Q 182.7 72.95 183.3 70.8 185.05 64.1 189.25 59.3
M 201.85 59.25
Q 200.85 60.2 200.15 61.2 199.7 62.85 198.75 64.55
L 198.45 63.25
Q 195.7 61.6 192.35 60.3 188.7 64.15 186.95 69.45 185.55 73.4 185.65 77.6 189.75 78.05 193.25 77.4 193.55 78.05 193.8 78.75 194.8 81.6 196.75 82 197.6 82.2 199.55 81.7 202.15 80.95 205.4 80.4
L 212.65 79.05
Q 214.95 78.8 215.95 78 215.05 77.25 214 77.2 213.75 77.2 212.1 77.25 211 77.35 210.35 77.05 209.85 76.1 210.6 75 211.4 73.95 212.7 73.6 214.15 73.3 215.6 73.95 215.2 73.3 214.45 72.5 208.7 66.55 205.05 59.9 204.35 58.85 203.7 58.65 202.95 58.45 201.85 59.25 Z"/>

<path fill="#328B92" stroke="none" d="
M 167.6 200.7
L 167.95 200.55
Q 167.75 200.3 167.55 200.1 167.3 199.6 167.1 199.2
L 167 199.25 166.95 199.15
Q 166.25 199.3 165.7 199.15 165.45 199.15 165.3 199.1 164.95 199 164.65 198.85 164.55 199 164.2 199.45 163.8 199.9 163.7 200.45
L 162.4 202.65 163 203.35
Q 163.25 203.55 163.3 203.4 163.4 203.65 163.55 204 165.2 203.2 166.95 202.5
L 166.8 201.9
Q 166.8 201.2 167.6 200.7
M 238.85 233.1
Q 238.65 233 238.55 232.85 236.8 233.5 235.3 234.7 232.9 236.75 231.8 239.4 231.4 240.25 231.2 241.45 233.1 239.55 235.6 236.75
L 235.65 236.6
Q 235.85 236.3 236.05 236.15 237.55 234.45 238.85 233.1
M 221.3 229.9
Q 220.35 230.3 213 231.35 209.55 231.85 204.8 232.45 202.45 232.75 199.8 233.1 195.85 233.6 191.1 234.25 183.3 243.2 176.6 251 181.7 250.85 187.7 250.05 192.85 249.25 198.65 248.1 201.3 247.45 204.05 246.8 216.15 243.9 225.75 240.6 225.95 240.4 226.2 240.45 226.6 240.25 227.15 240.05
L 227.8 241.7
Q 228.6 238.75 229.15 237.35 230.2 234.7 231.75 233.1 234.55 230.15 241.45 228.85 241.95 228.75 242.4 228.75 242.7 228.5 242.95 228.4 242.9 228.35 242.85 228.15 241.4 228.45 239.4 228.55 238.25 228.5 236.9 228.35 236.8 228.35 236.65 228.4 234.85 228.1 232.55 227.75 231.6 227.55 230.55 227.3 226.1 226.35 221.9 224.65 222.1 225.05 221.25 225.4 222.2 227.45 222.2 228.45 222.25 229.5 221.3 229.9
M 235.25 201.3
Q 234.95 199.95 234.3 198.4 233.65 196.75 221.1 199.7 212.15 201.85 196.9 206.45 195.9 206.75 194.8 207.05 184.5 210.15 171.45 214.3 163.95 222.75 153.65 234.1 162.15 231.25 181.05 225.5 185.9 223.9 191.5 222.25 196.55 220.7 201.05 219.4 203.15 218.7 205.1 218.15 212.65 215.75 218.2 214.05 230.75 210 233.5 208.9 234.3 208.55 234.8 208.1 235.85 206.9 235.75 204.5 235.8 203 235.25 201.3
M 133.85 242.45
Q 134.95 243.55 136.2 244.25 139.6 246.5 139.75 246.7 140.4 247.45 140.6 248.3 140.65 249.4 139.85 249.8 143.75 250.9 149.75 251.3 152.7 251.35 159 251.45 163.55 246.2 171.65 236.6 158.05 238.2 141.95 240.25 141.65 240.5 141.45 240.75
L 140.05 241.7
Q 139.35 242 139.25 241.9 138.75 241.95 138.5 241.35 138.35 241 138.4 240.6 137.3 240.7 136.35 240.9 134.85 241.7 134.55 241.9 134.15 242.2 133.85 242.45
M 153.55 189.55
Q 153.45 189.3 153.35 189.05 143.15 193.55 133.15 199 131.45 199.9 130.6 200.95 133.15 201 134.1 202.05 135 202.75 134.5 203.7 134 204.45 132.6 204.45 131.05 204.5 129.45 204.5 129.6 205.05 129.75 205.6 130.15 207.65 131.15 208.8 131 209 131 209.25 130.95 209.3 130.9 209.45 132.1 208.95 133.4 208.45 135.9 207.4 136.45 208.8 136.95 210.05 134.65 211.25 133.2 211.9 131.8 212.45 132.5 213.9 132.85 214.35 134.1 216.05 136 216.15 137.1 216.15 138.55 215.35 140.95 214.15 143.2 213.2 145.1 210.35 146.9 207.25 147.35 206.55 147.7 206.4 148.4 206.15 148.9 206.95 149.25 207.55 149.25 208.25 149.15 209.25 148.2 210.85 153.65 208.3 159.15 205.95 158.9 205.35 158.85 204.75 158.75 204.15 158.85 203.8 158.95 203.7 158.95 203.6 159.25 203.05 160.45 202.6 161.25 202.15 161.8 202.2
L 163.55 199.1 164.1 198.5
Q 163.9 198.25 163.75 198.05 163.1 197.1 163.1 196.1 161.45 195.65 160.85 195.6 160.5 195.75 159.9 196 158.95 196.4 158.45 196.3
L 157.65 195.95
Q 157.3 195.8 157.05 195.95 157 195.55 156.75 194.85 156.45 194.1 156.35 193.7 156.25 192.95 156.5 192.4 156.75 192.15 157.25 191.95
L 157.05 191.1 156.75 191.2
Q 155.9 191.55 155.45 191.45
L 154.75 191.15
Q 154.35 191 154.1 191.15 154.1 191.05 154.05 190.95 153.9 190.4 153.55 189.55
M 118.15 133.3
Q 119.25 132.05 120.2 130.95 117.35 128.8 111.8 126.7
L 108.7 125.7 108.1 125.85 108.5 138.6
Q 108.6 138.45 108.7 138.4
L 113.1 134.4
Q 114.7 132.9 115.8 133.6 116.65 134.3 116.15 135.35 115.95 136.05 115.15 137 112.6 139.6 110.45 141.3
L 115.7 140.55 121.3 138.6 120.75 136.95 118.15 133.3
M 128.45 119.1
Q 128.7 119.75 129.1 120.5 129.3 120.2 129.5 119.95 128.9 119.6 128.45 119.1
M 134.65 247.4
Q 134.45 247.15 134.2 247.05 134.4 247.25 134.55 247.4
L 134.65 247.4
M 126.6 123.45
Q 125.3 120.95 124.3 119.75 122.95 118.2 122.4 117.3 121.85 115.95 121.35 115.3 120.8 114.7 119.45 113.85 118.75 113.4 118 113.2
L 117.05 115.25
Q 116.8 115.8 116.6 116.3
L 120.25 115.25
Q 121.1 115.15 121.3 115.35 121.75 115.7 121.35 116.3 121.1 116.85 120.45 117.2 118.25 118.4 114.9 119.65
L 113.55 121.95
Q 113.15 122.7 112.65 123.7 112.9 123.65 113.1 123.8 117.55 125.4 120.7 127.45 121.5 128 122.25 128.6 124.4 126.05 126.6 123.45
M 137.1 110.85
Q 138.45 109.25 138.95 107.4 137.7 107.05 136.2 106.85 132.25 106.3 129.95 106.75 126.35 107.5 124.95 110.25 124.4 111.6 124.8 112.4 125.1 112.85 125.95 113.5
L 129.45 115.85
Q 130.85 116.75 131.75 117.35 134.45 114.05 137.1 110.85
M 127.45 94.4
Q 126.8 95.1 126.3 96.35
L 124.8 99.5 123.55 100.65 119.3 110.15
Q 120.15 110.65 121 111.15 121.45 111.25 121.6 110.4 122.25 106.6 126.45 104.55 129.6 102.95 134 103.25 136.5 103.4 139 104.1 138.9 103.75 138.75 103.4 138.15 101.85 137.1 100.45 136.6 99.75 136.05 99.1
L 134.65 101.85
Q 134.1 102.85 133.55 103 132.65 103.15 132.35 102.3 132.05 101.6 132.2 100.75 132.35 98.95 133.5 96.25 132.25 95.2 130.75 94.3 129.95 93.75 129.4 93.6 128.35 93.45 127.45 94.4
M 112.7 73.1
Q 112.65 72.3 112.85 71.4 110.35 72 108.95 73.1 107.4 74.3 107.3 74.35
L 105.8 74.9
Q 104.85 75.3 104.6 75.75 104.2 76.4 104.45 77.45 104.8 78.55 106 79.8 106.6 80.3 107.65 81.25
L 107.35 103.8
Q 107.15 107.35 108.1 109.45 108.35 109 108.55 108.6 108.8 108 109.25 107.85 109.95 107.7 110.3 108.5 110.45 108.9 110.3 109.7 111.8 109.2 113.45 109.1 113.45 107.85 113.3 105.95 113.1 102.95 113.05 102 113.15 99.65 114 95.2 114.8 90.9 115 88.7 116 89.15 116.5 89.35 117.5 89.75 118.2 89.4 119.15 89 119.15 87.6 119.15 86.9 118.65 85.6 117.35 82.2 116.65 78 116.15 75.05 115.55 73.75 115.1 75.8 114.1 76.3 112.7 75.15 112.7 73.1
M 111.9 74.6
Q 111.9 74.8 111.9 75.1 111.75 75.15 111.3 75.15 111.7 74.8 111.9 74.6
M 193.25 170.35
Q 192.65 170.9 192.7 172.15 192.6 173.45 192.7 174.8 192.4 174.8 192.05 174.95 186.75 176.5 181.55 178.2 169.5 182.1 157.7 187.15 157.75 187.3 157.85 187.55
L 158.1 187.45
Q 158.45 188.35 158.45 188.95 158.45 189.05 158.5 189.1 158.45 190.2 157.85 190.7
L 157.6 190.8 157.8 191.3 157.8 191.6
Q 159.35 191 159.75 190.95 161.2 190.75 161.4 191.8
L 161.5 192.05
Q 161.5 192.15 161.7 192.05 161.85 193.4 161.7 194.05 161.65 194.65 161.45 195.1
L 163.25 195.4
Q 163.35 195.3 163.4 195.2
L 163.8 194.5 166.15 193.2
Q 167.05 192.7 167.8 192.8 168.9 192.8 169.15 193.55
L 169.45 193.2 169.8 193.1 170.9 192.45 170.95 192.4
Q 170.35 191.35 170.6 190.05 170.95 188.7 172 188.05 173.4 187.2 174.85 187.7 176.4 188.35 176.85 189.9
L 177.1 189.8
Q 177.5 190.75 177.5 191.45 177.4 192.5 176.75 193.1 176.55 193.3 175.35 193.75 174.05 194.3 173.7 194.2
L 172.7 194
Q 171.9 193.4 171.4 192.9
L 170.85 193.15 170.4 193.55 170.05 193.7 169.55 194.1 170.1 195.55
Q 170.35 196.55 169.95 197.35 169.6 198.2 168.1 198.8 167.95 198.85 167.7 198.95
L 168.85 200.3 170.25 199.75 171.45 199.8 172.45 200.25
Q 181.15 196.5 190 193.1 191.8 192.4 193.55 191.75 196.1 190.7 198.75 189.75
L 199.55 190.65
Q 201.25 192.25 202.5 191.85 203.3 191.65 204.05 190.1
L 206.2 186.25
Q 206 185.95 205.75 185.4
L 205.75 184.7
Q 205.75 184.65 206.2 184.2 206.7 184 207.35 184.05
L 208.9 181.15
Q 208.5 181.2 208.15 181.15
L 207.6 180.25
Q 208.45 179.4 210.2 178 209.65 176.85 207.85 175.9 205.8 174.8 203.8 173.8
L 203.7 173.85
Q 199.45 171.75 195.75 170.35 194 169.7 193.25 170.35
M 189.5 88.65
Q 189.15 88.95 188.95 89.45 191.1 92.6 194.4 93.25 194.8 93.3 195.25 93.45 194.2 91.8 192.8 90 191.95 88.95 191.3 88.65 190.35 87.95 189.5 88.65
M 181.45 86.3
Q 180.95 87.55 181.95 89.95
L 185.2 98.05
Q 185.55 98.9 185.85 99.2 186.25 99.6 187.1 99.6 187.4 99.7 187.6 99.75 188.05 99.95 188.8 100.05 190.25 100.25 191.25 100.15 191.45 100.85 191.45 101.1 191.55 101.8 191.6 103.5 192.25 105.05 193.85 105 195.2 104.95 196.7 103.15 198 101.5 198.15 100.15 198.15 99.45 197.75 97.85 197.55 97.4 197.4 96.95 197.1 97 196.9 97.05 192.25 97.85 188.4 94.3 185.3 91.65 183.6 86.4 183.2 85.15 182.9 84
L 182.9 84.1
Q 182.8 83.85 182.9 83.7 182.85 83.3 182.75 83.05 182.4 82.9 182.15 83.1 181.75 83.35 181.7 84.2
L 181.75 85.35 181.45 86.3 Z"/>

<path fill="#7097A8" stroke="none" d="
M 167.65 198.85
L 167.45 198.55
Q 167 198.5 166.95 198.6
L 166.95 199.15 167 199.25 167.1 199.2
Q 167.3 199.6 167.55 200.1 167.75 200.3 167.95 200.55 168.2 200.85 168.5 201.2
L 168.85 201.3
Q 169.15 201.35 169.3 201.1 169.4 200.95 169.25 200.6
L 169.05 200.5 168.85 200.3 167.7 198.95 167.65 198.85
M 161.25 203.8
Q 161.35 203.75 161.45 203.7 161.8 203.45 162.4 202.65
L 163.7 200.45
Q 163.8 199.9 164.2 199.45 164.55 199 164.65 198.85
L 164.6 198.8
Q 165.1 198.6 164.9 198.05
L 164.8 197.9 164.3 198 164.3 198.25 164.1 198.5 163.55 199.1 161.8 202.2 161.7 202.55
Q 161.2 202.95 161.15 203.3
L 161.25 203.8
M 157.8 191.6
L 157.8 191.3 157.6 190.8 157.4 190.25 156.9 190.4 156.9 190.6 157.05 191.1 157.25 191.95 157.55 193.05 157.85 193.4
Q 158 193.75 158.25 193.45
L 158.3 193.05 158.05 192.45 157.8 191.6
M 152.55 184
Q 152.8 183.75 152.7 183.4 152.45 182.9 152.1 182.9 151.7 182.95 151.65 182.8
L 151.5 182.9 148.3 182.95 147.95 183
Q 147.85 183 147.75 183.15 147.7 183.2 147.75 183.3 147.85 183.55 148.15 183.55 148.75 183.7 151.25 183.55
L 151.35 183.6
Q 152.2 183.6 152.55 184
M 125.8 177.85
L 125.85 177.85 125.95 178 126.05 177.95 126.05 178.05 126.15 178.3
Q 126.3 177.95 126.45 177.7 126.3 177.35 126.15 177.2 126.05 176.95 125.8 177.05
L 125.65 177.4 125.8 177.85
M 132.05 178.25
L 132.4 178.1
Q 132.5 177.8 132.35 177.7 132.05 177.7 131.8 177.8 131.3 178.05 130.8 178.45
L 130.7 178.55 129.95 179.05
Q 129.7 179.6 129.5 180.05
L 130.45 179.35
Q 130.7 179.2 131 178.95 131.75 178.35 132.05 178.25
M 141.6 178.05
L 141.7 178.35 141.95 178.5 142.3 179.35 142.45 179.45
Q 142.5 179.5 142.6 179.45
L 143.05 180.6 143.3 181.2
Q 143.45 181.15 143.8 181.4 143.9 181.5 144.05 181.15
L 143.95 180.7
Q 143.85 180.45 143.6 180.1 143.25 179.15 142.35 177.7 142.35 177.65 142.3 177.55 142.15 177.4 141.95 177.45 141.85 177.25 141.75 177.25 141.6 177.3 141.5 177.5 141.55 177.6 141.45 177.7
L 141.6 178.05
M 139.4 176.05
L 139.4 175.65 138.9 175.45 138.15 175.75 137.2 176.15 135.45 176.9
Q 135.35 177.2 135.6 177.25
L 137.25 176.7 138.4 176.25 139 176.1 139.4 176.05
M 141.05 163.25
Q 140.95 163.3 140.85 163.3
L 141.45 163.9 141.8 163.95 141.7 163.8 141.75 163.65
Q 141.55 163.35 141.4 163.1 141.2 163.2 141.05 163.25
M 138.8 160.5
Q 139 160.3 139.25 160.2 139.2 160 139 159.85
L 138.65 159.6
Q 138.4 159.55 138.3 159.75
L 138.8 160.5
M 141.85 172.45
L 142.8 169.25 143.1 168.65
Q 143.3 168.15 143 167.95 142.7 167.7 142.5 168.2
L 142.25 169 141.65 170.5 141.5 171.6 141.2 172.3 141.15 172.45
Q 140.8 173.3 140.9 174.35 141.2 174.2 141.45 173.75
L 141.85 172.45
M 171.55 192.55
L 171.2 192.3 170.95 192.4 170.9 192.45 169.8 193.1 169.45 193.2 169.15 193.55 168.8 193.8 168.75 194.1
Q 168.85 194.35 169.1 194.25
L 169.25 194.1 169.55 194.1 170.05 193.7 170.4 193.55 170.85 193.15 171.4 192.9
Q 171.65 192.8 171.55 192.55
M 163.1 196.1
Q 163.35 196.1 163.45 196.15 163.85 196.3 164 196.2 164.35 196.05 164.2 195.75
L 163.25 195.4 161.45 195.1 159.95 194.65 159.65 194.9
Q 159.9 195.35 160.5 195.45
L 160.8 195.5 160.85 195.6
Q 161.45 195.65 163.1 196.1 Z"/>

<path fill="#94A26E" stroke="none" d="
M 173.95 203.3
Q 174.35 202.25 173.7 201.2
L 173.45 201.35
Q 173.3 200.7 172.6 200.2
L 172.45 200.25 171.45 199.8 170.25 199.75 168.85 200.3 169.05 200.5 169.25 200.6
Q 169.4 200.95 169.3 201.1 169.15 201.35 168.85 201.3
L 168.5 201.2
Q 168.2 200.85 167.95 200.55
L 167.6 200.7
Q 166.8 201.2 166.8 201.9
L 166.95 202.5 167.95 204.95 168.3 205.55
Q 168.85 206.2 170 205.9
L 171.75 205.25
Q 173.2 204.65 173.55 204.25 173.85 203.95 173.95 203.3
M 161.45 203.7
Q 161.35 203.75 161.25 203.8
L 161.15 203.3
Q 161.2 202.95 161.7 202.55
L 161.8 202.2
Q 161.25 202.15 160.45 202.6 159.25 203.05 158.95 203.6 158.95 203.7 158.85 203.8 158.75 204.15 158.85 204.75 158.9 205.35 159.15 205.95 159.2 206.1 159.25 206.3 159.7 206.9 160.55 207.55 162.05 208.65 163.2 207.65 164.15 206.95 164 205.55 164 205.15 163.55 204 163.4 203.65 163.3 203.4 163.25 203.55 163 203.35
L 162.4 202.65
Q 161.8 203.45 161.45 203.7
M 161.4 191.8
Q 161.2 190.75 159.75 190.95 159.35 191 157.8 191.6
L 158.05 192.45 158.3 193.05 158.25 193.45
Q 158 193.75 157.85 193.4
L 157.55 193.05 157.25 191.95
Q 156.75 192.15 156.5 192.4 156.25 192.95 156.35 193.7 156.45 194.1 156.75 194.85 157 195.55 157.05 195.95 157.3 195.8 157.65 195.95
L 158.45 196.3
Q 158.95 196.4 159.9 196 160.5 195.75 160.85 195.6
L 160.8 195.5 160.5 195.45
Q 159.9 195.35 159.65 194.9
L 159.95 194.65 161.45 195.1
Q 161.65 194.65 161.7 194.05 161.85 193.4 161.7 192.05 161.5 192.15 161.5 192.05
L 161.4 191.8
M 157.55 184.1
Q 157.6 183.6 157 182.15
L 156.7 182.25
Q 156.6 181.1 155.3 181.05 154.45 180.85 153.35 181.3 151.8 181.95 151.5 182.9
L 151.65 182.8
Q 151.7 182.95 152.1 182.9 152.45 182.9 152.7 183.4 152.8 183.75 152.55 184 152.2 183.6 151.35 183.6 151.35 184.1 151.65 184.9 152.05 185.85 152.2 186.4
L 152.45 186.8
Q 152.5 186.95 153.1 187.1 153.55 187.25 154 187.35 153.7 187.6 153.5 187.9 153.3 188.3 153.35 189.05 153.45 189.3 153.55 189.55 153.9 190.4 154.05 190.95 154.1 191.05 154.1 191.15 154.35 191 154.75 191.15
L 155.45 191.45
Q 155.9 191.55 156.75 191.2
L 157.05 191.1 156.9 190.6 156.9 190.4 157.4 190.25 157.6 190.8 157.85 190.7
Q 158.45 190.2 158.5 189.1 158.45 189.05 158.45 188.95 158.45 188.35 158.1 187.45
L 157.85 187.55
Q 157.75 187.3 157.7 187.15 157.4 186.35 156.5 186.35
L 156.95 186.05
Q 157.75 185.25 157.55 184.1
M 141.9 157.5
Q 142.95 154.85 141.9 152.3 140.8 149.65 138.25 148.5 137.95 148.35 137.8 148.4 136.7 148.7 135.7 148.9 133.4 149.65 132.3 148.85 132.1 148.95 131.95 149 131.7 149.2 131.45 149.3 130 150.45 129.2 152.15 128.05 154.8 129.15 157.45 130.2 160 132.85 161.15 134.9 162.05 136.9 161.6 137.45 161.2 138.15 160.8 138.45 160.65 138.8 160.5
L 138.3 159.75
Q 138.4 159.55 138.65 159.6
L 139 159.85
Q 139.2 160 139.25 160.2 140.15 159.7 140.8 159.25 141.5 158.45 141.9 157.5
M 118.4 171.25
Q 118.35 171.35 118.3 171.45 117.6 173.45 118.4 175.35 119.25 177.4 121.25 178.3 123.3 179.15 125.35 178.3 125.7 178.2 126.05 178.05
L 126.05 177.95 125.95 178 125.85 177.85 125.8 177.85 125.65 177.4 125.8 177.05
Q 126.05 176.95 126.15 177.2 126.3 177.35 126.45 177.7 127.5 175.75 128.7 172.85
L 128.75 172.75
Q 128.6 172 128.35 171.3 127.7 169.75 126.4 168.9 125.95 168.55 125.45 168.4 123.4 167.5 121.3 168.3 119.25 169.15 118.4 171.25
M 172 188.05
Q 170.95 188.7 170.6 190.05 170.35 191.35 170.95 192.4
L 171.2 192.3 171.55 192.55
Q 171.65 192.8 171.4 192.9 171.9 193.4 172.7 194
L 173.7 194.2
Q 174.05 194.3 175.35 193.75 176.55 193.3 176.75 193.1 177.4 192.5 177.5 191.45 177.5 190.75 177.1 189.8
L 176.85 189.9
Q 176.4 188.35 174.85 187.7 173.4 187.2 172 188.05 Z"/>

<path fill="#AD3B29" stroke="none" d="
M 221.55 216.2
L 212.95 219.4
Q 209 221 206.85 222.85 205.4 224 204.8 225.25 203.8 227.25 204.3 230.45 204.5 231.4 204.8 232.45 209.55 231.85 213 231.35 216.05 227.5 217.95 224.85
L 216.5 223.25 215.55 220.9 219.7 219.2
Q 219.85 219.15 220.95 218.85 221.1 218.75 221.4 218.75 222.4 218.5 223.75 218.2 222.7 217 221.55 216.2
M 239.75 183.45
Q 238 183.55 234.85 184.15 228.85 190.9 221.1 199.7 233.65 196.75 234.3 198.4 234.95 199.95 235.25 201.3 241.2 201.15 241.9 200.9 243.3 200.35 244.35 199.05 244.15 198.9 243.95 198.8 242.9 198.1 243.5 196.6 243.75 195.85 244.9 194.65 245.9 193.7 247 192.15 247.75 188.25 246.75 185.85 245.6 183 239.75 183.45 Z"/>

<path fill="#BD0026" stroke="none" d="
M 143.6 180.1
Q 143.85 180.45 143.95 180.7
L 144.05 181.15
Q 143.9 181.5 143.8 181.4 143.45 181.15 143.3 181.2
L 143.05 180.6
Q 142.5 181 142.25 181.6 141.8 182.7 142.25 183.85 142.7 184.95 143.75 185.35 144.9 185.85 146 185.4 147.1 184.95 147.55 183.85 147.65 183.6 147.75 183.3 147.7 183.2 147.75 183.15 147.85 182.4 147.55 181.65 147.1 180.5 146.05 180.1 144.9 179.6 143.8 180.05 143.7 180.1 143.6 180.1
M 130.7 178.55
Q 130.6 178.3 130.35 178.25 130.2 178.7 129.95 179.05
L 130.7 178.55
M 131.2 179.35
Q 131.1 179.1 131 178.95 130.7 179.2 130.45 179.35
L 129.5 180.05
Q 129.35 180.2 129.25 180.45 128.5 181.65 127.3 183.1
L 127.4 183.1
Q 128.55 183.55 129.65 183.1 130.75 182.65 131.2 181.55 131.35 181.2 131.35 180.8 131.5 180.05 131.2 179.35
M 137.2 176.15
Q 137.2 175.75 137.05 175.4 136.6 174.3 135.45 173.8 134.4 173.4 133.25 173.85 132.15 174.3 131.65 175.35 131.25 176.45 131.7 177.55 131.75 177.7 131.8 177.8 132.05 177.7 132.35 177.7 132.5 177.8 132.4 178.1
L 132.05 178.25
Q 132.5 178.8 133.2 179.15 134.3 179.6 135.4 179.15 136.55 178.7 137 177.6 137.2 177.15 137.25 176.7
L 135.6 177.25
Q 135.35 177.2 135.45 176.9
L 137.2 176.15
M 144.75 163.8
Q 143.65 163.3 142.5 163.75 141.4 164.2 140.95 165.3 140.5 166.4 140.95 167.55 141.35 168.45 142.25 169
L 142.5 168.2
Q 142.7 167.7 143 167.95 143.3 168.15 143.1 168.65
L 142.8 169.25
Q 143.85 169.45 144.7 169.1 145.85 168.65 146.25 167.55 146.7 166.45 146.25 165.35 145.8 164.2 144.75 163.8 Z"/>

<path fill="#FF9341" stroke="none" d="
M 142.15 172.5
Q 142.05 172.45 141.85 172.45
L 141.45 173.75
Q 141.2 174.2 140.9 174.35 140.8 173.3 141.15 172.45
L 141.2 172.3
Q 140.55 172.3 139.95 172.55 138.85 173 138.35 174.05 138 174.9 138.15 175.75
L 138.9 175.45 139.4 175.65 139.4 176.05 139 176.1 138.4 176.25
Q 138.85 177.35 139.9 177.85 140.05 177.9 140.15 177.95 140.85 178.15 141.6 178.05
L 141.45 177.7
Q 141.55 177.6 141.5 177.5 141.6 177.3 141.75 177.25 141.85 177.25 141.95 177.45 142.15 177.4 142.3 177.55 142.35 177.65 142.35 177.7 143.05 177.4 143.4 176.9 143.6 176.55 143.7 176.3 144.2 175.2 143.75 174.1 143.3 173 142.15 172.5 Z"/>

<path fill="#B15CAD" stroke="none" d="
M 139.05 144.25
Q 137.4 145.4 135.4 146.2
L 133.5 147.1
Q 132.4 147.7 132.25 148.8
L 132.3 148.85
Q 133.4 149.65 135.7 148.9 136.7 148.7 137.8 148.4 138.55 148.05 139.45 147.7 141.05 147.05 141.75 146.55 142.65 146 144.4 144.2 146.75 141.85 147.4 139.95 147.6 139.25 147.75 138.3 145.7 138.7 143.7 138.75 143.75 138.8 143.7 138.95 143.5 139.45 142.25 141.15
L 140.6 142.95
Q 139.85 143.6 139.05 144.25
M 51.4 185.55
Q 49.8 186.4 49.4 189.55 48.25 197.35 49.5 202.05 50.5 205.25 52.45 207.7 54.05 209.6 56.15 210.7 53.8 214 53 218.65 51.6 226.45 55.55 232.65 57.35 235.55 60.85 238.65 64.45 241.8 67 242.85 70.55 244.45 76.35 244.45 82.85 244.15 86.05 244.35 88.8 244.55 91 245.25 91.4 248.95 90.55 253.2 90 256.05 88.8 261.65 88.1 266.55 89.55 269.75 90.9 273.15 94.45 275.7 97.25 277.7 98.55 278.7 100.8 280.6 101.35 282.7 101.8 284.5 100.95 288.3 98.95 295.6 100.7 299.6 102.85 304.15 108.55 305.8 111.85 306.9 118.7 306.95 119.2 306.9 119.5 306.9 121.05 310.4 124.2 313.35 128.65 317.1 135.15 318.5 140.15 319.55 145.35 318.9 150.45 318.1 152.35 315.55 153.1 314.4 153.7 312.4 155.05 307.55 155.05 302.9 155.25 300.2 155.95 299.45 156.85 298.3 159.4 298.1
L 165.1 297.35
Q 169.3 296.75 171.3 296.15 173 295.55 174.3 294.75 177.45 295.95 180.25 296.15 185.05 296.35 192.3 293.1 201.4 289 204.2 288.3 207.55 287.6 213.8 287.55 220.55 287.5 223.55 287 230.6 285.75 236.05 280.4 241.55 275.2 243.15 268.15 244 261.95 244.45 258.9 245.4 253.5 247.9 250.7 249.35 249.1 252.75 247.1 256.45 245 257.75 243.75 261 240.85 261.75 236.2 262.35 231.5 260.1 227.7 259.45 226.65 255.85 222.6 255.65 222.5 255.5 222.35 254.55 224.25 253.7 226 256.55 229.4 257.4 231.6 258 233.75 257.7 236.05 257.3 238.35 255.9 240.1 254.35 242.15 250.1 244.55 246.95 246.25 245.25 247.65 244.55 248.2 244.05 248.75 241.65 251.4 240.75 256.55 240.7 257 240.6 257.45 240.2 260.7 239.35 267.25 237.85 273.65 232.6 278.3 227.35 282.95 220.8 283.7 218.45 283.9 212.95 283.65 207.85 283.45 205.1 283.95 201.6 284.6 193.05 288.75 185.85 292.35 181.1 292.05 180.6 292.05 180.05 291.95 178.7 291.8 177.35 291.5 177.9 290.3 177.65 289.25 176.3 288.2 174.3 289.6 174.1 289.8 173.8 290.15 173.25 289.75 172.65 289.5 171.6 288.9 170.1 288.1 167.9 286.75 164.85 284.8 158.25 280.75 150 278.3 148.5 277.9 147.05 277.5 146.3 277.3 145.65 277.25 140.1 276.2 136.6 276.95 130.6 278.2 128.55 283.05 128.4 283.4 128.3 283.7 126.15 284.85 124 286.6 122.5 287.65 121.65 288.8 120.05 290.75 119.35 294.25 118.05 299.3 118.45 302.9 118.55 303.1 118.55 303.3 114.25 303.25 110.65 302.3 106.5 301.3 105 299.3 103.2 296.85 103.95 292.6 105.15 288.1 105.35 285.8 105.6 282.8 104.4 279.9 103.2 276.95 100.85 275 100.75 274.95 96.75 272.05 94.25 270.4 93.4 268.5 92.4 266.2 93.15 261.85
L 94.4 254.9
Q 95.1 250.75 95.35 248 95.35 247.8 95.35 247.6 95.8 248 96.35 248.5 97.85 250.25 98.85 253.15 98.95 253.8 100.05 258.5 101.35 263.9 103.5 267 106.45 271.3 110.95 272.15 116.75 273.1 123.25 267 127.1 263.55 130.8 258.25 131.95 256.65 133.9 253.7 138.35 255.1 142.3 257.2
L 147.2 259.85
Q 148.5 260.55 149.6 261.15 151.1 261.75 152.15 262.25 154.3 262.75 154.65 261.7 154.75 261.6 154.7 261.5 156.85 261.2 159.95 260.2
L 170.05 256.65
Q 171.3 256.3 172.45 255.9 175.7 254.9 178 254.75 182.3 254.5 187.75 257.1 187.35 255.1 187.35 253.15 182.05 251.1 177.4 251.6 176.75 251.65 175.9 251.8 173.5 252.25 169.85 253.65
L 153.55 259.55
Q 152.45 258.5 150.55 257.5 149.85 257.05 149.15 256.65 142.35 253.3 137.85 251.6 136.75 251.15 135.7 250.85 136.4 249.9 137.05 248.8 137.15 249 137.3 249 139 250.2 139.85 249.8 140.65 249.4 140.6 248.3 140.4 247.45 139.75 246.7 139.6 246.5 136.2 244.25 134.95 243.55 133.85 242.45 132.55 241.3 131.55 239.65 132.4 239.15 135.65 237.95 138.3 237.1 139.65 236.05 140.2 235.6 140.65 235.35 141.75 234.6 141.85 234.55 142 234.5 142.25 234.5 141.85 234.85 141.15 235.75 141 235.9 140.85 236.15
L 139.25 238.5
Q 138.45 239.75 138.4 240.6 138.35 241 138.5 241.35 138.75 241.95 139.25 241.9 139.35 242 140.05 241.7
L 141.45 240.75
Q 141.65 240.5 141.95 240.25 142.3 239.8 142.55 239.3 143.1 238.15 143.5 237.6
L 143.9 237.1 144.9 235.9
Q 145.75 234.85 145.65 233.9 145.5 234.2 145.3 233.75 145.15 233.45 144.7 233.4
L 146.15 232.1 149.15 230.55
Q 149.85 230.3 150.25 229.85 150.7 229.2 150.25 228.55 149.8 228.15 148.6 228.4 145.65 229.4 144.4 230.1 143.7 230.5 142.25 231.35
L 139.75 232.5 138.6 233.25 137.6 233.85
Q 134.55 236 130.65 236.6 129.35 236.6 129.25 236.55 128.9 236.4 128.1 235.5 126.8 234.05 125.5 232.85 125.9 232.2 126.3 231.75 128.1 229.4 130.45 228.15 131.2 227.75 134.45 226.65 137.05 225.75 138.3 224.8 138.95 224.3 140.3 222.55 143.5 218.55 147.8 211.4 147.95 211.15 148.2 210.85 149.15 209.25 149.25 208.25 149.25 207.55 148.9 206.95 148.4 206.15 147.7 206.4 147.35 206.55 146.9 207.25 145.1 210.35 143.2 213.2 141.35 216.05 139.45 218.6 137.45 221.2 135.75 222.5 134.5 223.3 132.5 224.05 131.4 224.5 129 225.35 127.2 226.05 126.45 226.65 125.5 227.45 124.15 228.9 123.5 229.8 122.9 230.5 122.15 229.9 121.45 229.4 119.1 227.75 117.35 227.25 114.6 226.6 112.85 228 111.65 228.95 110.75 231.75 109.65 235.7 110.6 238 111.05 239.15 111.95 240.05 115.1 243.3 119.05 242.75 120.95 242.35 121.9 242.15 122.05 242.85 122.4 243.6
L 123.4 246.25
Q 123.85 247.45 124.15 248 124.75 248.9 126.2 249.7 127.7 250.75 129.45 251.6 129.6 251.95 130 252.3 130.25 252.45 130.7 252.7 129.55 254.35 127.8 256.95 124.15 262.5 118.35 266.5 114.5 269.3 111.7 268.9 109 268.6 106.75 265.8 104.55 263.1 102.85 255.85 101.05 248.8 98.6 246.05 97.2 244.4 95.15 243.35 94.55 238.2 91.85 234.7 89.5 231.8 85.15 229.6 82.6 228.2 77.25 225.95 75 225 74.5 223.7 73.9 222.65 74.4 221.05 74.95 219.3 75.2 218.4 75.85 216.05 75.2 213.4 74.9 212.25 74.5 211.35 77.45 210.8 80.65 209.55 82.7 208.95 83.85 208.05 85.5 206.7 86.95 203.6 89.5 198 90.45 192.05 90.8 190.55 90.95 189.05 91.5 185.95 92.55 185.25 93.65 184.5 95 184.7 97.2 184.9 99.75 187.2 100.85 188.15 101.55 188.85 103.85 190.95 103.95 191 106.15 192.35 107.2 193 109.05 194.15 109.8 195.45 110.25 196.3 110.95 199.4 111.55 201.85 112.85 202.75 113.45 203.2 115 203.55 114.8 203.85 114.5 204.05 114.05 204.55 112.1 206.1 110.6 207.4 109.85 208.45 108.8 209.8 108.4 211.35 108.1 213.1 108.85 214.35 110.25 216.8 114.75 216.95 119.35 217.05 124.9 215.25 127.5 214.45 131.8 212.45 133.2 211.9 134.65 211.25 136.95 210.05 136.45 208.8 135.9 207.4 133.4 208.45 132.1 208.95 130.9 209.45 126.25 211.35 124 212.05 118.55 213.65 114.2 213.2 113 213.05 112.65 212.55 112 211.8 112.6 210.75 113.05 209.95 114.1 209.25 117.65 206.7 118.9 204.6 119.05 204.35 119.2 204.05 124.45 204.45 129.45 204.5 131.05 204.5 132.6 204.45 134 204.45 134.5 203.7 135 202.75 134.1 202.05 133.15 201 130.6 200.95
L 120.15 200.55
Q 120.2 199.35 119.7 198.15 117.85 195.55 117.8 194 117.85 192.65 119.5 191 122.95 187.65 124.65 185.95 126.25 184.4 127.3 183.1 128.5 181.65 129.25 180.45 129.35 180.2 129.5 180.05 129.7 179.6 129.95 179.05 130.2 178.7 130.35 178.25 131.15 176.5 132.15 173.95 133.85 169.75 135.4 167.75 136.6 166.4 138.5 164.95 139.6 164.15 140.85 163.3 140.95 163.3 141.05 163.25 141.2 163.2 141.4 163.1 145.4 161 147.35 159.6 154.7 154.5 159.8 143.75 161.85 138.8 160.15 136.6 159 134.95 155.55 134.55 152.6 136.65 151.1 137.2 153.4 137.4 155.6 137.85 156.85 138.1 157.25 138.75 157.6 139.3 157.15 140.6 153.35 150.95 144.15 157.2 142.9 158 140.8 159.25 140.15 159.7 139.25 160.2 139 160.3 138.8 160.5 138.45 160.65 138.15 160.8 137.45 161.2 136.9 161.6 134.15 163.45 132.7 165.25 132.05 166.1 131.25 167.35 129.95 169.45 128.75 172.75
L 128.7 172.85
Q 127.5 175.75 126.45 177.7 126.3 177.95 126.15 178.3 125.4 179.6 124.8 180.5 123.7 181.8 121.45 183.8 121.25 184 120.95 184.25 118.1 186.55 117.1 187.8 115.2 189.95 114.5 192.45 113.6 195.3 114.8 197.5 116 199.45 116.25 200.05 115.7 199.9 115.4 199.7 114.55 199 114.15 197.3 113.45 194.65 113.4 194.45 112.7 192.5 109.95 190.7 108.55 189.75 105.7 187.8 105.55 187.75 105.45 187.65 105.1 187.35 102.8 184.85 101.15 183.1 99.8 182.45 98.45 181.85 95.7 181.45 94.25 181.25 93.15 181.25 91.55 181.3 90.7 181.75 89.95 182.15 89.4 182.9 88.7 183.65 88.25 184.85 87.7 186.25 87.35 189 87 190.95 86.6 193.1 85.95 196 85 199.2 83.55 203.1 81.95 204.65 80.15 206.35 76.95 207.35 74.95 207.95 72.45 208.3 70.8 206.55 68.4 205.1 70.75 203.65 71.9 202.5 74.4 199.8 75.6 193.4 75.75 192.75 75.8 192.2 76.45 192.05 76.9 191.85 78.4 191.15 79.3 189.9 78.85 188.75 76.4 189.55 76.65 188.85 76.8 188.15 77.15 186.9 77.6 186 78 184.6 78.6 183.75 79.5 182.05 79.6 181.75 79.65 181.25 79.35 180.7 79.05 180.15 78.6 180.05 78.05 179.95 77.4 180.45 76.25 181.15 75.3 182.35 75.35 182.2 75.15 181.95 74.85 181.7 74.45 181.7 74.15 181.65 73.7 181.85 67.8 183.55 62.9 187.25 59.55 186.4 55.1 185.35 52.55 184.9 51.4 185.55
M 53.35 189.15
Q 54.5 188.3 57.4 189.05 58.55 189.4 59.95 189.85 54.6 194.95 55.85 199.55 56.5 201.9 58.9 203.85 59.9 204.55 61.35 205.55 60.8 205.9 60.2 206.3 59.4 207 58.55 207.7 57.3 207.3 56.55 206.8 54.55 205.3 53.4 201.9 51.95 197.55 52.05 192.45 52.25 189.9 53.35 189.15
M 73.8 184.3
Q 74.15 184.15 74.4 183.95 73.3 186 72.65 189.15 72.6 189.45 72.55 189.85 72.2 189.75 71.85 189.7 70.8 189.45 67.4 188.5 67 188.35 66.6 188.35 69.95 185.95 73.8 184.3
M 62.45 191.6
Q 62.95 191.1 63.5 190.65 65.5 191.3 68.05 191.85 70.35 192.3 72.05 192.55 71.75 194.05 71.75 194.25 70.95 197.05 69.7 198.9 68.35 200.9 65.3 202.95 65.15 203 64.95 203.2
L 64.8 203.15
Q 62.4 202.15 61.6 201.65 59.85 200.55 59.35 199.1 58 195.75 62.45 191.6
M 125.35 238.35
Q 125.15 238.5 124.7 238.65 124.55 237.75 124.45 237.1 125.4 237.7 125.35 238.35
M 125.9 242.9
Q 125.6 242.15 125.45 241.4 126.55 241.05 127.35 240.5 130.7 244.8 132.9 246.4 133.6 246.7 134.2 247.05 134.45 247.15 134.65 247.4
L 134.55 247.4
Q 133.9 248.1 133.2 249.05 133.15 248.95 133.1 248.9
L 130.45 247.85
Q 128.85 247.35 128 246.6 127 245.6 125.9 242.9
M 90.4 241.8
Q 87.1 241.1 82.15 240.9 75.7 240.95 73.15 240.5 68.15 240 65 237.65 62.75 236.05 59.5 231.55 56.9 227.9 56.4 225.9 54.9 221.2 58.05 214.6 58.8 213 59.7 211.75 61 211.95 62.65 211.95 67.55 212.05 70.45 212 71.2 213.1 71.3 214.4 71.5 215.9 70.75 218.9 69.9 221.9 70.15 223.45 70.75 227.85 76.7 230.45
L 81.45 232.3
Q 84.25 233.35 85.9 234.6 89.25 237.15 90.4 241.8
M 113.7 232.65
Q 114 232 114.8 231.1 115.35 230.45 115.7 230.3 116.2 230.25 117.05 230.6 119.45 232 121.15 233.65 120.95 234 120.95 234.3 120.4 236.2 121 239.3 119.45 239.9 117.65 239.55 115.75 239.1 114.45 237.8 113.65 237.15 113.45 236.4 113.35 236.15 113.55 234.6 113.7 232.8 113.7 232.65
M 127.7 287.65
L 127.75 287.75
Q 127.8 289.35 128 292.55 128.2 298.95 124.9 301.3 123.05 302.55 122.65 303 122.55 303.05 122.5 303.2 122.25 302.4 122.2 301.65 121.3 295.6 124.75 290.75 126 289.1 127.7 287.65
M 131.6 296.2
Q 131.5 291.5 131.45 289.15 131.25 285 133.15 282.95 136.05 279.5 143.3 280.85 153.25 282.5 161.7 287.5 167.15 291.05 170.2 292.8 169.05 293.05 167.35 293.3
L 159.95 294.3
Q 157 294.6 155.25 295.3 152.75 296.35 151.85 298.6 151.6 299.3 151.4 302.6 151.35 307.45 149.6 311.95 148.9 313.65 148.05 314.25 147.15 314.85 145.3 314.95 142.8 315.25 140.85 315.3 137.05 315.2 133.25 313.7 130.3 312.8 128.05 311.2 125.05 308.95 123.5 305.85 124.25 305.9 125.5 305.3 127.9 303.9 129.55 301.55 131.2 299.05 131.6 296.2
M 62.75 208.4
Q 63.45 207.9 64.55 207.25 65.85 207.85 66.85 208.55 65 208.5 62.95 208.45 62.9 208.5 62.75 208.4
M 68.25 159.65
Q 68.65 160.65 69.25 161 70 161.4 71.5 161 80.9 159 90.3 160.45 91.55 160.6 92.8 160.85 93.9 161.2 94.65 160.9 95.7 160.4 95.55 158.95 95.5 158.3 94.95 156.8 94.8 156.45 94.65 156.15 93.6 153.25 93.25 149.9 92.95 147.7 93.75 146.65 94.45 145.7 96.65 145.2 96.9 145.2 102.25 144.3 105.8 143.75 107.8 142.9 109 142.4 110.45 141.3 112.6 139.6 115.15 137 115.95 136.05 116.15 135.35 116.65 134.3 115.8 133.6 114.7 132.9 113.1 134.4
L 108.7 138.4
Q 108.6 138.45 108.5 138.6 107.25 139.55 106.45 140 105.65 140.3 103.95 140.6
L 98.05 141.5
Q 93 142.4 91.3 144.35 89.5 146.4 89.8 150.35 89.95 152.4 90.65 156.65 81.1 155.9 72 157.05 72.3 155.35 74.05 151.55
L 82.15 135.15
Q 84.95 129.5 87.7 127.85 89.25 126.95 92.6 126
L 100.65 123.95
Q 102.05 123.55 103.4 123.2 103.45 123.3 103.5 123.4 104 124 105.35 124.45
L 108.7 125.7 111.8 126.7
Q 117.35 128.8 120.2 130.95 120.6 131.3 121.1 131.6 122.25 132.75 123.05 133.55 123.8 134.1 124.2 134.45 125.05 135.05 126.95 136 131.45 137.9 133.85 137.35 135.35 136.9 135.95 135.95 134.6 134.6 133.8 132.65 132.55 129.55 132.5 126.75 130.75 124.05 129.1 120.5 128.7 119.75 128.45 119.1 128.9 119.6 129.5 119.95 131.25 121.15 133.4 121.7 133.95 121.75 134.45 121.85 137.95 122.35 140.9 120.75 144 119.05 146.15 115.6 147.25 113.75 147.6 112.2 147.9 110.55 147.35 109.2 147.25 108.95 147.05 108.7
L 147 108.65
Q 146.05 106.95 143.45 105.7 141.2 104.65 139 104.1 136.5 103.4 134 103.25 129.6 102.95 126.45 104.55 122.25 106.6 121.6 110.4 121.45 111.25 121 111.15 120.15 110.65 119.3 110.15 117.3 109.2 114.8 109.05 114.1 109.05 113.45 109.1 111.8 109.2 110.3 109.7 110.45 108.9 110.3 108.5 109.95 107.7 109.25 107.85 108.8 108 108.55 108.6 108.35 109 108.1 109.45 106.1 113.15 104.3 117.15 103.55 118.75 103.5 119.9
L 88.6 124
Q 84.9 125.1 83.75 126.15 82.45 127.3 81.15 129.7 78.2 135.05 75.95 139.65
L 69.25 153.8
Q 67.55 157.45 68.25 159.65
M 144.1 110.3
Q 144.15 110.5 144.25 110.65 144.55 111.95 143.35 113.75 141.35 117.1 138.65 118.15 136.95 118.85 134.9 118.55 133.95 118.35 132.85 117.9 132.5 117.75 131.75 117.35 130.85 116.75 129.45 115.85
L 125.95 113.5
Q 125.1 112.85 124.8 112.4 124.4 111.6 124.95 110.25 126.35 107.5 129.95 106.75 132.25 106.3 136.2 106.85 137.7 107.05 138.95 107.4 140.95 107.95 142.2 108.6 143.6 109.35 144.1 110.3
M 124.3 119.75
Q 125.3 120.95 126.6 123.45 126.85 123.85 127.1 124.35 128.8 127.55 129.9 128.95 130.75 130.05 131.2 130.65 131.7 131.15 131.75 131.25 132.05 131.75 132.3 132.15 131.6 132.15 131.3 132.35 130.9 132.6 130.9 133.1 130.9 133.4 131.1 133.6 128.9 133.1 126.35 131.55 125.95 131.25 125.3 130.85 124 129.9 122.25 128.6 121.5 128 120.7 127.45 117.55 125.4 113.1 123.8 112.9 123.65 112.65 123.7 110.65 123 107.3 122.15 111.6 120.8 114.9 119.65 118.25 118.4 120.45 117.2 121.1 116.85 121.35 116.3 121.75 115.7 121.3 115.35 121.1 115.15 120.25 115.25
L 116.6 116.3 106.95 118.95
Q 107.15 118.45 107.25 117.85 107.5 116.9 107.75 116.45
L 108.35 115.2
Q 108.75 114.55 109.35 113.25 109.85 113.05 110.75 112.8 114.45 111.75 118 113.2 118.75 113.4 119.45 113.85 120.8 114.7 121.35 115.3 121.85 115.95 122.4 117.3 122.95 118.2 124.3 119.75
M 142.8 45.15
Q 141 45.55 139.25 46.25
L 134.55 48.1
Q 131.95 49.15 131.45 49.45 130 50.25 127.45 52.45
L 123.7 55.7
Q 119.6 59.25 118.1 61.05 114.75 65.05 113.35 69.6 113.05 70.5 112.85 71.4 112.65 72.3 112.7 73.1 112.7 75.15 114.1 76.3 115.1 75.8 115.55 73.75 115.6 73.4 115.65 73.2 116.45 68.55 120.55 63.55 122.85 60.85 128.3 56.05
L 130.6 54.05
Q 133.7 51.55 136.9 50.1 141.7 47.9 145.9 48.3 148.7 48.5 151.2 50.05 152.2 50.75 152.9 51.5 153.7 52.45 154.85 56.3 155.3 57.55 155.85 58.95 156.45 60.25 157.45 61.65 158.45 62.9 159.15 62.65 159.6 61.3 158.95 59.35 158.4 57.95 158.05 57 157.95 56.45 157.85 55.95 157.45 53.2 156.95 51.85 156.05 49.3 153.3 47.5 151.65 46.45 148 45.35
L 145.55 44.95
Q 144.1 44.9 142.8 45.15
M 215.6 73.95
Q 214.15 73.3 212.7 73.6 211.4 73.95 210.6 75 209.85 76.1 210.35 77.05 211 77.35 212.1 77.25 213.75 77.2 214 77.2 215.05 77.25 215.95 78 216.75 78.5 217.3 79.45 218.15 80.65 218.85 83.35
L 220.95 91.2
Q 222.05 94.8 223.35 96.05 224.55 97.25 227.05 98.05 230.2 99 233.8 98.65 236.05 98.2 237.25 98.15 239.25 97.9 240.7 98.25 244.05 99.2 246.05 103.5 246.75 105.25 247.1 107.75 247.35 109 247.65 111.15 245.9 111.4 243.8 112.4
L 241.45 113.25 239.75 113.5
Q 238 113.75 234.95 115.2 233.9 115.6 233.6 116.05 233.45 116.2 232.7 117.9 232.65 118 231.8 119.8 231.3 120.85 231.25 121.7
L 231.45 123.65
Q 231.55 124.7 231.25 125.3
L 229.25 126.1
Q 229.1 126.2 229 126.2 228 126.75 227.7 127.55 227.4 128.05 227.6 128.55 227.75 129.1 228.2 129.3 229.6 128.3 231.2 127.5 231.65 127.35 232.05 127.15
L 233.2 132.15
Q 233.95 135.2 234.5 136.1 234.6 136.3 234.65 136.45 236.3 135.9 238.1 135.55 235.95 131.8 235.35 126.15 242.15 124.7 248.45 127.5 250.55 128.6 251.55 129.8 252.15 130.55 252.9 132.35 253.3 133.3 253.5 134.1 252.95 134.45 252.4 134.85 251.75 135.3 251.3 135.8 252.15 135.95 253.05 136.1 255.35 136.65 257.3 137.35 257.35 136.85 257.3 136.25 257.55 136.15 257.75 136.2 259.7 136 263.8 137.05 267.75 138.05 269.85 137.55 271.9 136.7 272.85 136.3 274.65 135.6 275.95 135.8 277.4 136.25 279.1 138.95 283.25 145.9 284.1 149.35 285.9 155.85 283 160.6 282.75 161.15 280.05 164.45 278.2 166.7 277.85 168.4 277.4 170.8 278.9 173.5 279.4 174.5 282.05 178.25 285.6 183.15 287.75 189.15 289.4 194.2 289.15 197.8 288.6 202.95 285.1 205.35 283.2 206.65 280.1 207.1 278.3 207.4 274.6 207.6 272.7 207.85 268.15 208.85 261.5 210.45 259.05 212 258.3 212.45 257.45 213.15 258.7 213.4 259 214.1 259.3 214.9 257.7 218.25 257.95 217.95 258.1 217.8 262.55 212.95 273.9 211.55 280.25 210.8 283.35 209.9 288.5 208.3 290.9 204.8 294.5 199.6 292.25 190.9 290.05 181.2 283.7 173.35 281.6 170.8 281.75 169.25 281.95 167.95 283.6 166.3 286.8 162.8 288 159.2 289.5 154.5 287.8 148.5 286.55 144.4 283.15 138.3 279.45 131.85 275.45 131.85 274.25 131.9 272.45 132.65 270.2 133.55 269.6 133.7 267.5 134.25 263.9 133.5 259.7 132.6 258.15 132.6 257.25 132.7 256.45 132.9 256.25 132.5 256.1 132.05 256.05 131.9 256 131.8 256.6 130.15 255.35 127.05 252.5 119.45 251.4 113.35 251.85 112.45 251.05 111.8 250.7 109.45 250.45 108.05 249.9 104.95 249.2 103 247 96.95 242.25 95.4 239.95 94.65 235.1 95.1 230.2 95.55 227.85 94.8 226.15 94.25 225.5 93.15 225.1 92.65 224.6 91.35
L 222.65 85.1
Q 221.15 79.45 219.85 77.25 218.55 75.35 216.7 74.45 216.2 74.1 215.6 73.95
M 236.9 117.8
Q 237.6 117.3 239.05 117 241.15 116.8 241.4 116.7 242.2 116.55 243.6 115.85 245.05 115.2 245.75 115 247.4 114.75 248.2 114.65
L 248.3 114.6
Q 249.1 118.2 250.5 122.2 251.05 123.8 252.15 126.45 251.25 125.8 250.15 125.25 245.3 122.8 239.95 122.95 239.1 123.05 235.05 123.35 234.3 122.25 235.45 119.9 236.25 118.4 236.9 117.8
M 200.15 61.2
Q 200.5 59.2 200.35 57.3 200.05 55.1 198.85 54.3 197.85 53.8 196.35 54.2 194.1 54.8 191.1 57.3 190.1 58.25 189.25 59.3 185.05 64.1 183.3 70.8 182.7 72.95 182.5 75
L 178.85 75.4
Q 177.9 75.5 177.1 75.55 174.5 75.6 173.1 74.9 172.2 74.4 170.7 73.2 170.45 72.95 170 72.6 167.6 71 164.55 70.75 162.9 70.7 161.05 71.05 157.65 71.6 152.35 74.55
L 148.7 76.6
Q 148.4 76.85 141.35 81.1 140.8 80.75 140.55 79.75 140.35 78.6 140.25 78.05 139.8 75.45 136.5 73.85 132.95 72 129.35 73.15 125.35 74.5 124.2 78.15 123.55 80.1 124.25 81.8 124.95 83.3 126.6 84.45 128.5 86 130.75 86.35 133.2 86.9 135.3 86.05 136.3 85.65 136.65 85.8 137.35 86.2 137.15 87.4 136.8 89.65 134.6 94 134 95.2 133.5 96.25 132.35 98.95 132.2 100.75 132.05 101.6 132.35 102.3 132.65 103.15 133.55 103 134.1 102.85 134.65 101.85
L 136.05 99.1 138.75 93.75
Q 140.65 89.7 140.65 88 140.7 86.95 140.65 86.5 140.7 85.55 141.05 85 141.55 84.3 143.2 83.65 145.25 82.7 151.75 78.5 156.65 75.2 160.25 74.25 162.8 73.65 164.6 73.9 166.25 74.2 169.1 76.1 172.05 77.85 173.6 78.25 175.1 78.55 178.95 78.1 180.9 77.8 182.35 77.4 182.3 80.2 182.75 83.05 182.85 83.3 182.9 83.7 182.9 83.8 182.9 84 183.2 85.15 183.6 86.4 185.3 91.65 188.4 94.3 192.25 97.85 196.9 97.05 197.1 97 197.4 96.95 199.75 96.1 200.95 95.7 201.55 95.45 202.15 95.35 206.1 94.2 210.4 94.7 208.05 98 204.95 101.2 201.4 104.6 195.9 108.35 193.2 110.15 190.05 112.05 189.4 112.4 188.8 112.85
L 188.6 112.95
Q 187.35 113.55 186.7 113.7 186.65 113.75 186.45 113.8 185.85 113.95 185.05 114.1 184.8 116.15 184.4 117.75 184.85 117.65 185.3 117.6 185.7 117.5 186.05 117.45 187 117.2 187.95 116.85 188.55 116.6 189.15 116.2 190.75 115.45 192.35 114.65
L 192.5 114.55
Q 202.45 109 210.45 100.6 212.85 98 213.4 96.2 213.45 96.05 213.4 95.95 213.75 94.75 213.35 93.6 212.95 92.15 211.9 91.45 210.8 90.8 208.55 90.95 205.45 90.95 202.35 91.95 198.6 93.05 198.35 93.05 196.55 93.45 195.25 93.45 194.8 93.3 194.4 93.25 191.1 92.6 188.95 89.45 187.95 88.05 187.25 86 185.7 81.75 185.65 77.6 185.55 73.4 186.95 69.45 188.7 64.15 192.35 60.3 194.45 58.05 197.2 56.4
L 198.45 63.25 198.75 64.55
Q 199.7 62.85 200.15 61.2
M 131.8 75.95
Q 132.65 75.9 133.6 76.3 135.1 76.7 136 77.75 137.25 79.15 137.65 82.5 136.65 82.3 135.35 82.6 134 83.15 133.7 83.2
L 132.6 83 131.4 83.15
Q 129.45 83.1 127.8 80.9 127.25 80.15 127.35 79.8
L 128.35 77.35
Q 128.7 76.9 129.7 76.5 131.1 75.95 131.8 75.95 Z"/>

<path fill="#CA516E" stroke="none" d="
M 251.45 196.05
Q 249.85 196 247.7 197.85 241.45 203.5 238.1 211 237.4 212.45 236.85 214.05 236.5 215 236.15 216.15 237.4 217 238.8 215.75 239.6 215.05 240.2 214.1 240.35 213.85 240.4 213.7 240.55 213.4 240.7 213 244.5 205.25 250.95 199.55 251.5 202.65 249.75 209.55 249.25 211.55 248.9 213.3 248.55 215.85 248.85 217.75 248.9 218.6 249.2 219.3 249.5 220.3 250.15 221.55
L 250.15 221.6
Q 246.55 226.4 242.95 228.4 242.7 228.5 242.4 228.75 241.95 228.75 241.45 228.85 234.55 230.15 231.75 233.1 230.2 234.7 229.15 237.35 228.6 238.75 227.8 241.7 227.7 241.95 227.65 242.25 227.5 242.7 227.4 243.15 226.5 247.3 226.5 249.05 226.35 250.55 226.35 253.4 225.85 256.6 223.05 259.15 221.85 260.15 220.45 260.9 218.8 261.8 216.8 262.35 211.35 264.1 206.3 262.8 205.5 262.6 204.7 262.25 202.05 261.25 198.3 258.95 194.75 256.7 192.1 255.4 189.85 254.15 188.3 253.45 187.8 253.25 187.35 253.15 187.35 255.1 187.75 257.1 188.7 257.55 189.65 258.05 190.75 258.55 191.85 259.15 196 261.85 198.15 263.05 200.15 264.2 202 265 203.45 265.65 204.85 266.1 212.9 268.5 220.5 265 222.35 264.1 223.8 263.15 227.7 260.45 229.1 256.5 230.2 253.85 230.4 247.95 230.45 247.45 230.45 247.05 230.7 243.65 231.2 241.45 231.4 240.25 231.8 239.4 232.9 236.75 235.3 234.7 236.8 233.5 238.55 232.85 238.65 233 238.85 233.1 239.2 233.25 239.5 233.35 240.95 233.9 243.1 232.6 248.65 229.85 252.75 224.85 253.05 225.15 253.25 225.45 253.45 225.65 253.7 226 254.55 224.25 255.5 222.35 255.3 222 255.05 221.7 256.9 219.3 257.7 218.25 259.3 214.9 259 214.1 258.7 213.4 257.45 213.15 255.9 214.4 254.2 216.35 254.05 216.5 252.85 218 252.65 217.5 252.6 217 252.4 216.4 252.35 215.7 252.25 214.45 252.55 212.8 252.85 210.8 253.75 208.3 255.55 202.4 254.85 199.5 253.95 196.3 251.45 196.05
M 242 174.6
Q 242.2 174.95 242.55 175.3 242.85 175.5 243.25 175.75 246.5 178.3 248 180.5 250 183.8 249.45 187.05 249 189.25 247.25 191.75 247.1 191.95 247 192.15 245.9 193.7 244.9 194.65 243.75 195.85 243.5 196.6 242.9 198.1 243.95 198.8 244.15 198.9 244.35 199.05 245.3 199.35 246.65 198.25 247.95 197.3 249.85 194.5 252.4 190.75 252.9 188.25 253.75 184.8 252.1 181.2 250.5 177.8 247.55 175.4 245.95 174.25 244.35 173.3 244.3 173.2 244.15 173.15 242.7 172.35 242.05 173.1 241.45 173.8 242 174.6
M 205.75 184.7
L 205.75 185.4
Q 206 185.95 206.2 186.25 206.55 186.7 206.85 186.75
L 208.45 187.5
Q 208.85 187.85 210.8 189 211 189.1 211.15 189.25 212.7 189.9 213.6 189.85 214.25 189.9 214.7 189.4 215.3 188.85 215.05 188.15
L 214.6 187.9 213.6 187.15 213.1 186.85 208.5 184.2
Q 207.85 184.1 207.35 184.05 206.7 184 206.2 184.2 205.75 184.65 205.75 184.7
M 228.75 166.2
Q 227.95 166.2 226.55 166.75 222.7 168.35 221 169.5
L 216.4 172.85
Q 212.6 175.95 210.2 178 208.45 179.4 207.6 180.25
L 208.15 181.15
Q 208.5 181.2 208.9 181.15 210.1 180.95 212.05 179.65
L 221.5 172.75
Q 224.25 170.65 226 169.95 226.65 169.65 227.5 169.5 228.3 169.25 229.15 169.1 229.9 169.05 230.3 168.75 230.95 168.1 230.65 167.35 230.4 166.8 229.95 166.65 229.5 166.3 228.75 166.2
M 185.05 114.1
Q 184 114.2 182.8 114.1 181.2 113.9 177.3 112.9 176.85 112.8 176.55 112.7 173.65 111.95 171.9 111.9 170.9 111.9 169.75 112.1 165.6 112.45 160.3 115.2 159.9 115.45 159.55 115.7 159.5 115.6 159.45 115.55 158.5 114.2 156.75 113.8 155.05 113.5 153.3 114.05 150.1 115.05 146.15 119.5
L 144.45 121.8
Q 142.45 125.25 143.95 129 142.25 129.8 140.1 130.4
L 136.8 131.15
Q 136.15 131.3 135.75 131.35
L 135.65 131.4 135.6 131.3
Q 135.2 130.55 134.65 129.7 133.3 127.9 132.7 126.95 132.65 126.75 132.5 126.75 132.55 129.55 133.8 132.65 134.6 134.6 135.95 135.95 136.15 135.7 136.3 135.3 136.55 134.65 136.45 133.95
L 136.55 133.9
Q 137.75 133.45 138.4 133.4
L 140.05 133.2
Q 140.8 133.2 142.05 132.7 142.85 132.45 143.4 132.35 143.75 132.2 144.05 132.15 144.2 132.5 144.15 132.95 144.3 133.55 144.35 134.35 140.45 134.95 139 136.95 139.7 137.75 141.55 137.4 142.2 137.3 142.8 137.3 143.45 137.2 144.1 137.2 143.95 138.15 143.7 138.75 145.7 138.7 147.75 138.3 147.8 137.8 147.8 137.1 149.45 137.15 151.1 137.2 152.6 136.65 155.55 134.55 154.8 134.45 154 134.5
L 148.35 134.25
Q 148 134.2 147.6 134.25 147.5 131.55 147.55 130.55 152.05 129 154.05 127.75 155.15 127.1 156.3 125.8
L 157.95 124.25
Q 159.85 122 160 119.2 160.05 118.85 160.05 118.55 161.7 117.6 163.05 117.05 164.95 116.3 166.7 115.9 168.35 115.45 169.9 115.4 170.7 115.35 171.4 115.4 171.8 115.45 172.25 115.45 173.25 115.55 177.3 116.6 178 116.85 178.75 117.05 182 117.9 184.4 117.75 184.8 116.15 185.05 114.1
M 147.7 122.85
Q 148.15 122 149.4 120.8 150.65 119.4 151.1 118.95 152.35 117.5 152.95 117.15 154.15 116.6 155.55 117.05 156.3 117.2 156.55 117.5
L 156.6 117.6
Q 156.5 117.75 156.4 117.75 154.55 119.8 154.7 121.85 155.4 121.4 156.15 121 155.85 121.7 155.35 122.4 155.1 122.8 152.95 124.65
L 151.7 125.65
Q 150.4 126.6 147.2 127.65 145.9 125.4 147.7 122.85
M 236.25 138.6
Q 238.6 141.6 240.35 142.85 241.85 144.15 243.95 144.9 244.9 145.2 245.85 145.45 245.1 147.9 244.35 151.35 243.5 155.35 243.1 158.4 242.65 161.25 242.6 163.05 243.8 163.7 244.8 162.5 245.25 161.9 245.6 160.35
L 245.65 160 248 149.75
Q 248.55 147.35 249.2 145.5 250.5 145.25 251.3 144.95 252.45 144.6 253.8 143.5 255.1 142.45 255.85 141.4 257.15 139.35 257.35 137.9 257.4 137.65 257.3 137.35 255.35 136.65 253.05 136.1 252.15 135.95 251.3 135.8 249.5 137.35 248.25 139.45 247.6 140.5 247 142.15 246.85 142.15 246.7 142.05 241.65 141.35 238.4 136.15 238.2 135.8 238.1 135.55 236.3 135.9 234.65 136.45 235.1 137.15 236.25 138.6
M 250.75 141.55
Q 250.85 141.4 250.95 141.25 252.3 139 253.95 137.75 253.95 138.05 253.85 138.35 253.25 140.4 251.05 141.4 250.9 141.5 250.75 141.55 Z"/>

<path fill="#016DAE" stroke="none" d="
M 163.8 194.5
L 163.4 195.2
Q 163.35 195.3 163.25 195.4
L 164.2 195.75
Q 164.35 196.05 164 196.2 163.85 196.3 163.45 196.15 163.35 196.1 163.1 196.1 163.1 197.1 163.75 198.05 163.9 198.25 164.1 198.5
L 164.3 198.25 164.3 198 164.8 197.9 164.9 198.05
Q 165.1 198.6 164.6 198.8
L 164.65 198.85
Q 164.95 199 165.3 199.1 165.45 199.15 165.7 199.15 166.25 199.3 166.95 199.15
L 166.95 198.6
Q 167 198.5 167.45 198.55
L 167.65 198.85 167.7 198.95
Q 167.95 198.85 168.1 198.8 169.6 198.2 169.95 197.35 170.35 196.55 170.1 195.55
L 169.55 194.1 169.25 194.1 169.1 194.25
Q 168.85 194.35 168.75 194.1
L 168.8 193.8 169.15 193.55
Q 168.9 192.8 167.8 192.8 167.05 192.7 166.15 193.2
L 163.8 194.5 Z"/>
</g>
</defs>

<g transform="matrix( 1.10211181640625, 0, 0, 1.10211181640625, -17.45,-18.55) ">
<use xlink:href="#Layer0_0_FILL"/>
</g>
</svg>
