<?xml version="1.0" encoding="UTF-8"?>
<svg xmlns="http://www.w3.org/2000/svg" xmlns:xlink="http://www.w3.org/1999/xlink" viewBox="0 0 50 50">
  <defs>
    <style>
      .cls-1 {
        fill: #98a354;
      }

      .cls-2 {
        fill: #fff;
      }

      .cls-2, .cls-3 {
        fill-rule: evenodd;
      }

      .cls-4 {
        isolation: isolate;
      }

      .cls-3 {
        fill: url(#radial-gradient);
        mix-blend-mode: multiply;
      }
    </style>
    <radialGradient id="radial-gradient" cx="25.63" cy="25.01" fx="25.63" fy="25.01" r="18.75" gradientUnits="userSpaceOnUse">
      <stop offset="0" stop-color="#231f20"/>
      <stop offset="1" stop-color="#fff"/>
    </radialGradient>
  </defs>
  <g class="cls-4">
    <g id="Camada_3" data-name="Camada 3">
      <path class="cls-3" d="M25.63,6.26c10.35,0,18.75,8.38,18.75,18.75s-8.4,18.75-18.75,18.75S6.88,35.36,6.88,25.01,15.28,6.26,25.63,6.26h0Z"/>
      <path class="cls-1" d="M30.01,44.53h-.03l-.12.03-.12.03h-.12s-.13.04-.13.04l-.12.03h-.12s-.12.04-.12.04h-.12s-.13.03-.13.03l-.12.03h-.12s-.12.03-.12.03h-.13s-.12.04-.12.04h-.12s-.13.03-.13.03h-.12s-.12.03-.12.03h-.25s-.12.03-.12.03h-.13s-.12.01-.12.01h-.13s-.12.03-.12.03h-.25s-.13.01-.13.01h-.25s-.12.01-.12.01h-1.27s-.12-.01-.12-.01h-.27s-.12-.01-.12-.01h-.13s-.13-.03-.13-.03h-.25s-.13-.03-.13-.03h-.12s-.13-.03-.13-.03h-.13s-.12-.03-.12-.03h-.13s-.13-.03-.13-.03h-.12s-.13-.03-.13-.03h-.12s-.13-.04-.13-.04h-.12s-.13-.04-.13-.04h-.12s-.13-.04-.13-.04h-.12s-.13-.04-.13-.04l-.12-.03h-.13s-.12-.04-.12-.04l-.12-.03-.13-.03-.12-.03-.12-.03-.13-.03-.12-.03-.12-.03-.12-.03-.12-.04-.13-.03-.12-.03-.12-.04-.12-.03-.12-.04-.12-.03-.12-.04-.12-.03-.12-.04-.12-.04-.12-.03-.12-.04-.12-.04-.1-.04-.12-.04-.12-.04-.12-.04-.12-.04-.1-.04-.12-.06-.12-.04-.1-.04-.12-.04-.12-.06-.1-.04-.12-.06-.1-.04-.12-.06-.1-.04-.12-.06-.1-.06-.1-.04-.12-.06-.1-.06-.1-.06-.12-.06-.1-.06-.1-.06-.1-.06-.1-.06-.1-.06-.12-.06-.1-.06-.1-.06-.1-.07-.1-.06-.1-.06-.1-.07-.09-.06-.1-.07-.1-.06-.1-.07-.1-.06-.09-.07-.1-.07-.1-.06-.1-.07-.09-.07-.1-.07-.09-.07-.1-.06-.09-.07-.1-.07-.09-.07-.1-.07-.09-.07-.09-.09-.1-.07-.09-.07-.09-.07-.09-.07-.09-.09-.1-.07-.09-.09-.09-.07-.09-.07-.09-.09-.09-.07-.09-.09-.09-.09-.07-.07-.09-.09-.09-.07-.09-.09-.09-.09-.07-.09-.09-.09-.09-.07-.07-.09-.09-.09-.07-.09-.09-.09-.07-.09-.09-.09-.07-.09-.07-.09-.09-.1-.07-.09-.07-.09-.07-.09-.07-.1-.07-.09-.09-.09-.07-.1-.07-.09-.06-.09-.07-.1-.07-.09-.07-.1-.07-.09-.07-.1-.06-.09-.07-.1-.07-.1-.06-.09-.07-.1-.06-.1-.07-.1-.06-.09-.07-.1-.06-.1-.06-.1-.07-.1-.06-.1-.06-.1-.06-.1-.06-.1-.07-.1-.06-.1-.06-.1-.06-.1-.04-.1-.06-.1-.06-.12-.06-.1-.06-.1-.04-.1-.06-.1-.06-.12-.04-.1-.06-.1-.04-.12-.06-.1-.04-.12-.04-.1-.06-.12-.04-.1-.04-.12-.04-.1-.06-.12-.04-.1-.04-.12-.04-.1-.04-.12-.04-.12-.03-.1-.04-.12-.04-.12-.04-.12-.03-.1-.04-.12-.04-.12-.03-.12-.04-.12-.03-.1-.04-.12-.03-.12-.03-.12-.03-.12-.04-.12-.03-.12-.03-.12-.03-.12-.03-.12-.03-.12-.03-.12-.03-.12-.03-.12v-.12s-.04-.12-.04-.12l-.03-.13v-.12s-.04-.12-.04-.12l-.03-.12v-.12s-.04-.13-.04-.13v-.12s-.03-.12-.03-.12l-.03-.12v-.13s-.03-.12-.03-.12v-.12s-.03-.12-.03-.12v-.13s-.03-.12-.03-.12v-.12s-.03-.13-.03-.13v-.12s-.03-.13-.03-.13v-.24s-.03-.13-.03-.13v-.25s-.01-.12-.01-.12v-.25s-.01-.13-.01-.13v-.25s-.01-.12-.01-.12v-.77s.01-.12.01-.12v-.27s.01-.12.01-.12v-.25s.01-.13.01-.13v-.13s.03-.12.03-.12v-.13s.01-.13.01-.13v-.12s.03-.13.03-.13v-.13s.03-.13.03-.13v-.12s.03-.13.03-.13v-.12s.04-.13.04-.13v-.13s.03-.12.03-.12l.03-.13v-.12s.04-.13.04-.13v-.12s.04-.13.04-.13v-.12s.04-.12.04-.12l.03-.13.03-.12v-.13s.04-.12.04-.12l.03-.12.03-.13.03-.12.04-.12.03-.12.03-.12.03-.13.03-.12.04-.12.03-.12.04-.12.03-.12.04-.12.03-.12.04-.12.04-.12.03-.12.04-.12.04-.12.04-.12.04-.12.04-.1.04-.12.04-.12.04-.12.04-.12.04-.1.04-.12.06-.12.04-.1.04-.12.06-.1.04-.12.06-.1.04-.12.06-.1.06-.12.04-.1.06-.12.06-.1.06-.1.04-.12.06-.1.06-.1.06-.1.06-.1.06-.12.06-.1.07-.1.06-.1.06-.1.06-.1.07-.1.06-.1.06-.1.07-.1.06-.1.07-.09.06-.1.07-.1.06-.1.07-.09.07-.1.07-.1.06-.09.07-.1.07-.1.07-.09.07-.1.07-.09.07-.09.07-.1.07-.09.07-.1.07-.09.09-.09.07-.09.07-.1.07-.09.09-.09.07-.09.07-.09.09-.09.07-.09.09-.09.09-.09.07-.09.09-.09.07-.09.09-.07.09-.09.09-.09.07-.07.09-.09.09-.09.09-.07.09-.09.09-.07.09-.09.09-.07.09-.09.09-.07.09-.07.09-.09.09-.07.1-.07.09-.07.09-.09.09-.07.1-.07.09-.07.09-.07.1-.07.09-.07.1-.06.09-.07.1-.07.09-.07.1-.07.1-.06.09-.07.1-.07.1-.06.09-.07.1-.06.1-.07.1-.06.1-.06.1-.07.09-.06.1-.06.1-.06.1-.07.1-.06.1-.06.1-.06.12-.06.1-.06.1-.06.1-.06.1-.04.1-.06.12-.06.1-.06.1-.04.1-.06.12-.04.1-.06.1-.04.12-.06.1-.04.12-.06.1-.04.12-.04.1-.06.12-.04.1-.04.12-.04.1-.04.12-.04.12-.04.1-.04.12-.04.12-.03.1-.04.12-.04.12-.04.12-.03.1-.04.12-.03.12-.04.12-.03.12-.04.12-.03.12-.03.12-.04.12-.03.12-.03.12-.03.12-.03.12-.03.12-.03.12-.03.12-.03.12-.03.12-.03h.12s.12-.04.12-.04l.12-.03h.12s.13-.04.13-.04h.12s.12-.04.12-.04h.12s.13-.03.13-.03l.12-.03h.12s.12-.03.12-.03h.13s.12-.03.12-.03h.12s.13-.03.13-.03h.12s.12-.03.12-.03h.13s.12-.03.12-.03h.25s.12-.03.12-.03h.25s.13-.01.13-.01h.12s.13-.01.13-.01h.25s.12-.01.12-.01h1.02s.12.01.12.01h.27s.12.01.12.01h.13s.13.01.13.01h.12s.13.03.13.03h.25s.13.03.13.03h.13s.04.01.04.01h.04s.04.01.04.01h.09s.04.01.04.01h.1s.04.01.04.01h.04s.04.01.04.01h.09s.04.01.04.01h.04s.04.01.04.01h.04s.04.01.04.01h.09s.06.01.06.01h.04s.04.01.04.01h.04s.04.01.04.01h.04s.04.01.04.01h.04s.04.01.04.01h.04s.04.03.04.03h.09s.04.01.04.01h.04s.04.01.04.01h.04s.04.03.04.03h.09s.04.01.04.01h.04s.04.03.04.03h.09s.04.01.04.01h.04s.04.03.04.03h.07c.18-.19.43-.31.71-.31.52,0,.95.41.95.95s-.43.93-.95.93c-.44,0-.81-.31-.92-.72h-.04s-.04-.01-.04-.01h-.04s-.04-.01-.04-.01h-.04s-.04-.03-.04-.03h-.07s-.04-.01-.04-.01h-.04s-.04-.01-.04-.01h-.04s-.04-.03-.04-.03h-.09s-.03-.01-.03-.01h-.04s-.04-.01-.04-.01h-.04s-.04-.01-.04-.01h-.04s-.04-.01-.04-.01h-.04s-.04-.01-.04-.01h-.04s-.04-.01-.04-.01h-.04s-.03-.01-.03-.01h-.04s-.04-.01-.04-.01h-.04s-.04-.01-.04-.01h-.09s-.04-.01-.04-.01h-.04s-.04-.01-.04-.01h-.09s-.04-.01-.04-.01h-.04s-.04-.01-.04-.01h-.09s-.04-.01-.04-.01h-.09s-.04-.01-.04-.01h-.16s-.12-.03-.12-.03h-.12s-.13-.03-.13-.03h-.24s-.13-.01-.13-.01h-.12s-.12-.01-.12-.01h-.12s-.13-.01-.13-.01h-.24s-.12-.01-.12-.01h-.86s-.12.01-.12.01h-.35s-.12.01-.12.01h-.12s-.13.01-.13.01h-.12s-.12.01-.12.01h-.12s-.12.03-.12.03h-.12s-.12.01-.12.01h-.12s-.12.03-.12.03h-.12s-.12.03-.12.03h-.12s-.12.04-.12.04h-.1s-.12.03-.12.03h-.12s-.12.04-.12.04h-.12s-.12.03-.12.03l-.12.03h-.1s-.12.04-.12.04h-.12s-.12.04-.12.04l-.12.03-.1.03h-.12s-.12.04-.12.04l-.1.03-.12.03-.12.03-.1.03-.12.03-.12.03-.1.03-.12.04-.1.03-.12.03-.1.03-.12.04-.1.03-.12.04-.1.03-.12.04-.1.03-.12.04-.1.04-.1.04-.12.03-.1.04-.1.04-.1.04-.12.04-.1.04-.1.04-.1.04-.1.04-.12.04-.1.06-.1.04-.1.04-.1.04-.1.06-.1.04-.1.06-.1.04-.1.06-.1.04-.1.06-.1.06-.09.04-.1.06-.1.06-.1.06-.1.06-.09.04-.1.06-.1.06-.09.06-.1.06-.1.07-.09.06-.1.06-.09.06-.1.06-.09.07-.1.06-.09.06-.1.07-.09.06-.09.07-.1.06-.09.07-.09.06-.09.07-.1.07-.09.06-.09.07-.09.07-.09.07-.09.07-.09.06-.09.07-.09.07-.09.07-.09.07-.09.07-.09.09-.09.07-.07.07-.09.07-.09.07-.09.09-.07.07-.09.07-.09.09-.07.07-.09.09-.07.07-.09.07-.07.09-.07.09-.09.07-.07.09-.09.09-.07.07-.07.09-.07.09-.07.09-.09.07-.07.09-.07.09-.07.09-.07.09-.07.09-.07.09-.07.09-.07.09-.06.09-.07.1-.07.09-.07.09-.06.09-.07.1-.07.09-.06.09-.07.1-.06.09-.07.09-.06.1-.07.09-.06.1-.06.09-.07.1-.06.09-.06.1-.06.1-.06.09-.06.1-.06.1-.06.1-.06.09-.06.1-.06.1-.06.1-.06.1-.06.1-.04.1-.06.1-.06.1-.04.1-.06.1-.04.1-.06.1-.04.1-.06.1-.04.12-.04.1-.06.1-.04.1-.04.12-.04.1-.04.1-.04.12-.04.1-.04.1-.04.12-.04.1-.04.12-.04.1-.04.12-.03.1-.04.12-.03.12-.04.1-.04.12-.03.1-.03.12-.04.12-.03.12-.04.1-.03.12-.03.12-.03.12-.03.12-.03.1-.03.12-.03.12-.03.12-.03.12-.03.12-.03.12v.12s-.04.12-.04.12l-.03.12v.12s-.04.12-.04.12v.13s-.04.12-.04.12v.12s-.03.12-.03.12l-.03.12v.12s-.03.13-.03.13v.12s-.03.12-.03.12v.12s-.03.13-.03.13v.12s-.03.12-.03.12v.13s-.03.12-.03.12v.25s-.03.12-.03.12v.25s-.01.12-.01.12v.24s-.01.13-.01.13v.35s-.01.12-.01.12v.49s.01.12.01.12v.37s.01.12.01.12v.24s.01.12.01.12v.12s.03.12.03.12v.24s.03.12.03.12v.12s.03.12.03.12v.12s.01.12.01.12l.03.12v.12s.03.12.03.12v.12s.03.12.03.12v.12s.04.12.04.12v.12s.04.1.04.1v.12s.03.12.03.12l.03.12.03.12v.1s.04.12.04.12l.03.12.03.12v.1s.04.12.04.12l.03.12.03.1.03.12.03.12.03.1.04.12.03.1.03.12.03.1.04.12.03.1.03.12.04.1.03.12.04.1.04.12.03.1.04.1.04.12.04.1.03.1.04.12.04.1.04.1.04.1.04.12.04.1.04.1.06.1.04.1.04.1.04.1.06.12.04.1.04.1.06.1.04.1.06.09.06.1.04.1.06.1.06.1.04.1.06.1.06.09.06.1.06.1.06.1.06.09.06.1.06.1.06.09.06.1.06.09.06.1.07.09.06.1.06.09.07.1.06.09.06.1.07.09.06.09.07.09.07.1.06.09.07.09.07.09.06.09.07.1.07.09.07.09.07.09.07.09.07.09.07.09.07.09.07.07.07.09.07.09.07.09.07.09.09.07.07.09.07.09.07.07.09.09.07.09.09.07.07.09.09.07.07.09.09.07.07.07.09.09.09.07.07.07.09.09.09.07.09.07.09.07.09.07.07.07.09.07.09.07.09.07.09.07.09.07.1.07.09.07.09.07.09.07.09.06.09.07.1.07.09.06.09.07.1.06.09.07.1.06.09.07.09.06.1.07.1.06.09.06.1.06.09.07.1.06.1.06.09.06.1.06.1.06.1.06.09.06.1.06.1.06.1.04.1.06.1.06.1.06.1.04.1.06.1.04.1.06.1.04.1.06.12.04.1.06.1.04.1.04.1.04.12.06.1.04.1.04.12.04.1.04.12.04.1.04.1.04.12.04.1.03.12.04.12.04.1.03.12.04.1.04.12.03.12.04.1.03.12.03.12.04.12.03.1.03.12.04.12.03.12.03.12.03.12.03.1.03.12.03.12.03h.12s.12.04.12.04l.12.03.12.03h.12s.13.04.13.04h.12s.12.04.12.04h.12s.12.04.12.04h.12s.12.03.12.03h.13s.12.04.12.04h.12s.12.03.12.03h.13s.12.03.12.03h.12s.13.03.13.03h.24s.13.03.13.03h.12s.12.01.12.01h.12s.13.01.13.01h.12s.12.01.12.01h.25s.12.01.12.01h1.21s.12-.01.12-.01h.24s.12-.01.12-.01h.12s.12-.01.12-.01h.12s.12-.03.12-.03h.13s.12-.01.12-.01h.12s.12-.03.12-.03h.12s.1-.03.1-.03h.12s.12-.03.12-.03h.12s.12-.03.12-.03l.12-.03h.12s.12-.03.12-.03l.12-.03h.12s.1-.03.1-.03l.12-.03h.12s.12-.04.12-.04l.12-.03h.1s.01-.03.01-.03c.1-.41.47-.72.92-.72.52,0,.95.43.95.95s-.43.93-.95.93c-.28,0-.53-.12-.71-.31h0Z"/>
      <path class="cls-2" d="M25.63,8.83c8.93,0,16.18,7.23,16.18,16.18s-7.25,16.18-16.18,16.18-16.18-7.25-16.18-16.18,7.25-16.18,16.18-16.18h0Z"/>
      <path class="cls-1" d="M21.28,30.29c2.51,0,4.38-1.91,4.38-5.28s-1.86-5.29-4.38-5.29-4.39,1.92-4.39,5.29,1.88,5.28,4.39,5.28h0ZM21.28,28.29c-1.17,0-2-.96-2-3.28s.83-3.3,2-3.3,2,.98,2,3.3-.81,3.28-2,3.28h0ZM29.96,28.19l2.35-2.22c1.43-1.33,1.72-2.23,1.72-3.22,0-1.86-1.52-3.03-3.8-3.03-1.83,0-3.27.74-4.07,1.91l1.73,1.11c.5-.7,1.24-1.04,2.11-1.04,1.08,0,1.64.47,1.64,1.27,0,.5-.16,1.04-1.06,1.89l-3.95,3.73v1.52h7.73v-1.92h-4.41Z"/>
    </g>
  </g>
</svg>