
<svg xmlns="http://www.w3.org/2000/svg" version="1.1" xmlns:xlink="http://www.w3.org/1999/xlink" preserveAspectRatio="none" x="0px" y="0px" width="250px" height="250px" viewBox="0 0 250 250">
<defs>
<g id="Layer4_0_FILL">
<path fill="#EDEBD3" stroke="none" d="
M 287 35.05
Q 287 30.05 282 30.05
L 42 30.05
Q 37 30.05 37 35.05
L 37 275.05
Q 37 280.05 42 280.05
L 282 280.05
Q 287 280.05 287 275.05
L 287 35.05 Z"/>
</g>

<g id="Layer4_1_FILL">
<path fill="#3B3D35" stroke="none" d="
M 173.95 95.3
Q 173.4 93.9 172.7 92.5 172.2 91.45 171.6 90.45 166.45 81.8 155.2 75.1 150 72 140.95 67.25 134.5 63.5 134.5 60.25 134.5 59.75 136.6 52.55
L 136.45 51.35
Q 139.75 50.8 141.9 46.6 143.55 43.35 143.55 41.2 143.55 40.25 143.05 38.8 142.4 36.8 141.1 35.45
L 140.85 35.5
Q 141.35 34.1 141.35 32.15 141.35 28.7 140.45 25.85 139.85 23.65 138.7 21.85 134.75 15.3 125.15 14.1
L 125.1 14.1
Q 115.45 15.3 111.5 21.85 110.4 23.65 109.75 25.85 108.9 28.7 108.9 32.15 108.9 34.1 109.4 35.5
L 109.15 35.45
Q 107.85 36.8 107.15 38.8 106.65 40.25 106.65 41.2 106.65 43.35 108.35 46.6 110.45 50.8 113.8 51.35
L 113.6 52.55
Q 115.7 59.75 115.7 60.25 115.7 63.5 109.25 67.25 100.2 72 95 75.1 74.3 87.45 74.3 106.4 74.3 112.1 74.65 113.5 75.15 115.35 77.05 118.45 76.5 122 75.35 129.55 75 131.45 74.8 133.2 74.55 134.7 74.35 136.05 73.1 144.35 73.1 146.9 73.1 148 73.4 149.8 73.45 150.4 73.6 150.95 73.65 151.35 73.8 151.8 74.2 153.8 74.85 154.85 73.85 158.15 72.35 162.85 70.15 171.1 70.55 177 70.75 179.85 70.7 184 70.6 186.3 70.55 190.7 70.55 193.65 69.55 198.2 69.2 200 68.95 201.4
L 68.75 201.35
Q 66.4 202.55 63.85 203.45 62.05 204.45 59.45 207.95 57.05 211.2 56.9 211.4 55.05 214.15 55.05 215.4 55.05 216.75 55.1 216.95
L 55.45 217.35 58.9 217.35
Q 61.05 216.35 61.3 216.7 59.25 221.15 58.85 224.1 58.65 225.5 58.65 230.9 58.65 233.75 58.8 234.55 59.2 236.65 60.75 237.85
L 64 237.85
Q 70.45 235.8 74.65 226.35 78 218.8 78 212.85 78 208.95 77.3 206.1 81.9 195.05 83.9 189.25 89.25 173.9 89.25 164.15 89.25 157.7 89.05 156.2 88.8 153.75 88.1 151.8 87.7 150.75 87.2 149.8 88.9 144.3 90.15 140.35 90.85 138.1 91.45 136.05 91.9 134.55 92.25 133.2 92.25 133 92.35 132.9 92.4 133 92.45 133.2 92.5 133.55 92.65 133.95 92.95 135.05 93.3 136.05 96 145.1 96.75 148.65 96.5 149.2 96.3 149.8 95.95 150.8 95.55 151.8 94.55 154.7 93.9 158.05 92.6 164.2 90.7 177.35 89.95 181.9 88.05 195.1 85.75 211.05 85.75 213.65 85.75 223.75 85.8 224.1 86.25 229.35 89.25 235.7 90.65 238.8 91.95 246.9 92.2533203125 248.00859375 92.65 249
L 157.55 249
Q 157.9466796875 248.00859375 158.25 246.9 159.55 238.8 161 235.7 163.95 229.35 164.4 224.1 164.45 223.75 164.45 213.65 164.45 211.05 162.15 195.1 160.25 181.9 159.5 177.35 157.65 164.2 156.35 158.05 155.65 154.7 154.65 151.8 154.3 150.8 154 149.8 153.75 149.2 153.5 148.65 154.25 145.1 156.95 136.05 157.25 135.05 157.55 133.95 157.7 133.55 157.8 133.2 157.8 133 157.9 132.9 157.95 133 158 133.2 158.3 134.55 158.8 136.05 159.35 138.1 160.05 140.35 161.3 144.3 163.05 149.8 162.55 150.75 162.15 151.8 161.4 153.75 161.15 156.2 161 157.7 161 164.15 161 173.9 166.3 189.25 168.3 195.05 172.9 206.1 172.2 208.95 172.2 212.85 172.2 218.8 175.55 226.35 179.8 235.8 186.25 237.85
L 189.45 237.85
Q 191 236.65 191.45 234.55 191.55 233.75 191.55 230.9 191.55 225.5 191.4 224.1 190.95 221.15 188.9 216.7 189.15 216.35 191.3 217.35
L 194.8 217.35 195.1 216.95
Q 195.15 216.75 195.15 215.4 195.15 214.15 193.3 211.4 193.15 211.2 190.75 207.95 188.15 204.45 186.35 203.45 183.8 202.55 181.45 201.35
L 181.25 201.4
Q 181 200 180.65 198.2 179.65 193.65 179.65 190.7 179.6 186.3 179.55 184 179.45 179.85 179.65 177 180.1 171.1 177.85 162.85 176.35 158.15 175.35 154.85 176.1 153.55 176.6 150.95 176.75 150.4 176.85 149.8 177.1 148 177.1 146.9 177.1 143.5 174.9 129.55 174.4 126.15 173.95 123.6 173.45 120.45 173.15 118.45 173.6 117.75 173.95 117.1 175.2 114.9 175.55 113.5 175.95 112.1 175.95 106.4 175.95 100.5 173.95 95.3 Z"/>
</g>

<g id="Layer3_0_FILL">
<path fill="#2A201E" stroke="none" d="
M 334.6 67.95
Q 331.25 65.1 325.95 59.95 323.55 58.85 321.5 60.95 319.7044921875 62.8376953125 319.55 65.6 319.480078125 65.89296875 319.4 66.2 319.22890625 66.8599609375 319.1 67.45 318.94609375 67.3654296875 318.75 67.25
L 318.75 42.5
Q 318.7 43.25 318.7 42.35 318.8 42.5 319.05 42.45 319.55 42.35 320.1 41.1
L 320.1 39.9
Q 320.1 39.2 320.9 38.35 321.75 37.6 321.9 37.35 323.15 35.55 323.35 34.75 323.45 34.4 323.45 32.5 323.45 30.6 323 29.55 322.15 27.7 319.8 27.45 319.6 27.25 318.65 24.75 318.066796875 23.194921875 316.35 23.35 314.633203125 23.194921875 314.05 24.75 313.1 27.25 312.9 27.45 310.55 27.7 309.7 29.55 309.25 30.6 309.25 32.5 309.25 34.4 309.35 34.75 309.55 35.55 310.8 37.35 310.95 37.6 311.8 38.35 312.6 39.2 312.6 39.9
L 312.6 41.1
Q 313.15 42.35 313.65 42.45 313.9 42.5 314 42.35 314 43.25 313.95 42.5
L 313.95 67.1
Q 313.216796875 67.2810546875 312.5 67.3 312.3341796875 66.423046875 312.2 65.75 312.235546875 65.7783203125 312.25 65.8
L 312.55 65.6
Q 312.75 63.2 312.75 62.3 312.75 61.5 312.1 60.35 311.4 59.05 310.6 59 305.1 59.2 302.8 61.3 300.9 64.05 299.6 65.35 297.9 67.15 296.55 69.4 295.65 70.9 294.45 73.6 293.05 76.75 292 81.3 290.85 86.35 290.85 90.25 290.85 93.65 292.25 95.65 295.25 100 304.25 100 307.85 100 310.6 98.6 311.574609375 98.1126953125 312.15 97.6 314.1751953125 97.12734375 314.75 92.75 314.8890625 91.804296875 314.95 89.75 315 88.157421875 315 85.85 315 79.2 313.5 72.25 313.297265625 71.304296875 313.1 70.45 317.292578125 70.0521484375 318.25 70.1 318.5240234375 70.0193359375 318.7 69.95 318.7 70.3412109375 318.7 70.7 318.7 72.294921875 319 73.5 318.95 76.0234375 318.95 78.95 318.95 83 318.5 84.7 317.75 87.2 317.6 88.05 317.5435546875 88.41640625 317.5 89.1 317.5 89.686328125 317.5 90.45 317.5 93.05 319.7 95.45 323.25 99.4 330.95 99.4 334.6 99.4 335.35 99.25 336.7302734375 98.9291015625 337.85 97.85 338.462890625 97.30546875 339 96.5
L 338.8 96.5
Q 338.7169921875 96.5322265625 338.6 96.55 339.6333984375 94.707421875 339.75 91.15 339.35 85.1 339.35 84.8 339.35 78.2 339 76.25 338.15 70.95 334.6 67.95
M 324.45 61
Q 325.3 61 328.6 64.45
L 332.5 68.5
Q 334.6 70.05 335.95 72.55 336.7 73.95 337.85 76.35
L 337.85 94.15
Q 337.95 94.35 337.95 95.1 337.95 95.7 337.6 96.5 337.5431640625 96.6048828125 337.5 96.7 337.41484375 96.8572265625 337.35 97 337.0755859375 97.0748046875 336.8 97.15 334.7 97.7 331.05 97.7 324.5 97.7 321.3 94.85 319 92.85 319 90.45 319 89.924609375 319.2 88.6 319.359375 87.5923828125 319.65 86.05 320.25 82.6 320.25 78.35 320.25 73.4966796875 320 70.3 320.1244140625 69.5544921875 320.2 68.95 320.296484375 68.2458984375 320.4 67.6 320.472265625 67.50234375 320.45 67.35
L 320.45 67.35
Q 320.93125 64.814453125 321.7 63.2
L 321.45 63
Q 321.365234375 62.981640625 321.25 62.95 322.3130859375 61 324.45 61
M 316.8 24.2
L 316.85 24.2
Q 316.884765625 24.25234375 316.95 24.35
L 317.05 24.35
Q 317.7103515625 24.7927734375 317.8 25.75 318.05 27.85 318.7 28.35
L 319.95 28.95
Q 321.15 29.5 321.5 29.95 322.1 30.85 322.1 32.2 322.1 32.8 321.15 34.7 320.15 36.75 319.35 37.45 319.3197265625 37.476953125 319.3 37.5 317.8248046875 36.6423828125 317.35 36.5 317.45 36.6 317.8 37.2 318.3 37.8 319 37.8 319.0359375 37.8 319.05 37.8 318.863671875 38.1583984375 318.8 38.7 318.8 39.2 318.75 40.25 318.6 41 317.85 41.5 317.2 42 317.2 42.2 317.2 42.4984375 317.2 42.65 316.5724609375 42.5255859375 315.5 42.3 315.5 42.252734375 315.5 42.2 315.5 42 314.85 41.5 314.1 41 313.95 40.25 313.9 39.2 313.9 38.7 313.8826171875 38.5521484375 313.85 38.4 314.975 37.69453125 316.75 37
L 316.75 36.85
Q 316.3 36.85 314.95 37.45 314.22890625 37.75234375 313.75 38.05 313.603515625 37.675390625 313.35 37.45 312.55 36.75 311.55 34.7 310.6 32.8 310.6 32.2 310.6 30.85 311.2 29.95 311.55 29.5 312.75 28.95
L 314 28.35
Q 314.65 27.85 314.9 25.75 315.0021484375 24.6609375 315.8 24.25
L 316.8 24.2
M 315.35 42.95
L 315.7 43.2 317.45 43.2 317.45 67.6
Q 317.666015625 67.859375 317.95 67.9 318.0568359375 68.0755859375 318.15 68.15 318.3462890625 68.3462890625 318.9 68.35 318.8353515625 68.8765625 318.75 69.35 318.186328125 69.0091796875 317.75 68.9 316.8 68.65 313 69.3 312.9376953125 69.3125 312.9 69.3 312.7591796875 68.6392578125 312.65 68 313.2912109375 68.1 314.3 68.1 314.5 68.1 315.35 67.65 316.45 67.1 317 66.5
L 316.75 66.25
Q 316.6162109375 66.20546875 315.25 66.7
L 315.25 43.1
Q 315.3146484375 43.0353515625 315.35 42.95
M 308.1 60.35
L 310.5 60.35
Q 311.7 61.15 311.8 63.1 311.803125 63.1455078125 311.8 63.2 311 64.0193359375 311 68 311 69.5 312 72.4 313.1 75.75 313.25 76.75 313.5 78.65 313.55 82.1 313.55 83.9 313.5 85.85 313.5 88.0111328125 313.45 89.45 312.2802734375 90.233984375 310.95 91 307.65 92.85 305.95 92.85 305.2 92.85 302.8 92.6 302.5181640625 92.5673828125 302.25 92.5 300.1349609375 92.2783203125 299.6 92.1 299.56015625 91.9802734375 299.55 91.9
L 299.55 91.85
Q 299.507421875 91.807421875 299.45 91.85 299.45 91.9841796875 299.45 92.3
L 302.25 93.25
Q 302.25 93.3 304.1 93.5 305.95 93.7 306.6 93.7 308.2 93.7 311.25 92.25 312.5962890625 91.6203125 313.35 91.05 313.311328125 91.619140625 313.25 91.95 312.6771484375 95.3431640625 310.6 96.75 309.4751953125 97.22109375 308.75 97.5 306.45 98.35 304.4 98.35 296.8208984375 98.35 293.95 95.25
L 294 95.25
Q 295.65 95.05 297.15 94.3 298.5 93.6 299 92.85
L 298.6 92.75
Q 298.15 92.75 296.6 93.5 296.3345703125 93.6224609375 296.05 93.7 294.728125 94.3283203125 293.5 94.7 292.35 93.06640625 292.35 90.3 292.35 87.25 293.45 82.2 294.5 77.35 295.6 74.9 298.1 69.35 299.9 66.9 303.15 62.3 308.1 60.35
M 299.45 81.6
Q 300.6 82.45 301.8 82.9 303.65 83.55 306.95 83.85 309.2 82.75 308.35 82.85 306.9 83.65 303.1 82.65 299.55 81.55 299.45 81.55
L 299.45 81.6
M 297 81.2
L 296.8 81.2 296.7 83.5
Q 296.7 85.45 297.4 87.1 297.8 88 299.6 91.1
L 299.75 91
Q 297.7 87 297 81.2
M 296.35 84.85
L 296.1 84.85
Q 296.1 86.35 296.7 87.95 297.35 89.85 298.6 91
L 298.7 90.85
Q 297.85 88.85 297.4 87.85 296.65 86.05 296.35 84.85
M 298.35 78.5
L 298.1 78.5
Q 299.3 79 299.6 80.6 300.95 82 308.25 82.25 308.3416015625 82.1583984375 310.3 80.75 309.8177734375 81.1029296875 309.45 81.25 308.65 81.6 303.1 81.6 301.9 81.6 300.15 80.15 298.6 78.65 298.35 78.5
M 330.8 89.6
Q 329.21953125 88.857421875 327.4 88.35 326.227734375 88.048828125 324.95 87.85 322.990234375 87.76484375 321.8 87.9 320.8751953125 87.983984375 320.4 88.2 320.3345703125 88.2392578125 320.25 88.3 320.0453125 88.5201171875 319.75 89
L 320.95 88.9
Q 328.2 89 331.9 91.2 333.649609375 92.2318359375 336.1 93.95 336.40703125 94.14453125 336.7 94.35 336.0873046875 93.4966796875 335.25 92.7 334.2498046875 91.6998046875 332.9 90.8 331.907421875 90.1525390625 330.8 89.6
M 329.95 86
L 330.05 85.85
Q 329.3 84.8 327.8 83.55 326.1 82.1 325.35 82.25 329.45 85.6 329.95 86
M 328 85.4
L 328 85.1
Q 321.8 80.95 320.75 80.2 321.6 81.35 323.95 82.85 325.3 83.7 328 85.4
M 336.75 78.5
Q 336.8 80.15 335.05 82.75 333.45 85.05 331.45 86.7
L 331.95 86.8
Q 333.60546875 85.2962890625 334.7 84 332.546484375 86.6431640625 332.15 87
L 332.6 87.2
Q 335 85.8 336 82.45 335.6515625 82.8765625 335.3 83.25 337.6306640625 80.3384765625 337.05 78.5
L 336.75 78.5 Z"/>

<path fill="#B28D94" stroke="none" d="
M 299.45 92.3
Q 299.45 91.9841796875 299.45 91.85 299.1037109375 91.8 299.05 91.8 297.3123046875 92.9583984375 296.05 93.7 296.3345703125 93.6224609375 296.6 93.5 298.15 92.75 298.6 92.75
L 299 92.85
Q 298.5 93.6 297.15 94.3 295.65 95.05 294 95.25
L 293.95 95.25
Q 296.8208984375 98.35 304.4 98.35 306.45 98.35 308.75 97.5 309.4751953125 97.22109375 310.6 96.75 312.6771484375 95.3431640625 313.25 91.95 313.311328125 91.619140625 313.35 91.05 312.5962890625 91.6203125 311.25 92.25 308.2 93.7 306.6 93.7 305.95 93.7 304.1 93.5 302.25 93.3 302.25 93.25
L 299.45 92.3
M 336.8 97.15
Q 337.0755859375 97.0748046875 337.35 97 337.41484375 96.8572265625 337.5 96.7 337.0146484375 95.3697265625 336.1 93.95 333.649609375 92.2318359375 331.9 91.2 328.2 89 320.95 88.9
L 319.75 89
Q 320.0453125 88.5201171875 320.25 88.3 319.7599609375 88.4611328125 319.2 88.6 319 89.924609375 319 90.45 319 92.85 321.3 94.85 324.5 97.7 331.05 97.7 334.7 97.7 336.8 97.15 Z"/>

<path fill="#EBACA5" stroke="none" d="
M 310.5 60.35
L 308.1 60.35
Q 303.15 62.3 299.9 66.9 298.1 69.35 295.6 74.9 294.5 77.35 293.45 82.2 292.35 87.25 292.35 90.3 292.35 93.06640625 293.5 94.7 294.728125 94.3283203125 296.05 93.7 297.3123046875 92.9583984375 299.05 91.8 299.1037109375 91.8 299.45 91.85 299.507421875 91.807421875 299.55 91.85
L 299.55 91.9
Q 300.25859375 92.0548828125 301.9 92.45 302.0853515625 92.49453125 302.25 92.5 302.5181640625 92.5673828125 302.8 92.6 305.2 92.85 305.95 92.85 307.65 92.85 310.95 91 312.2802734375 90.233984375 313.45 89.45 313.5 88.0111328125 313.5 85.85 313.55 83.9 313.55 82.1 313.5 78.65 313.25 76.75 313.1 75.75 312 72.4 311 69.5 311 68 311 64.0193359375 311.8 63.2 311.803125 63.1455078125 311.8 63.1 311.7 61.15 310.5 60.35
M 298.1 78.5
L 298.35 78.5
Q 298.6 78.65 300.15 80.15 301.9 81.6 303.1 81.6 308.65 81.6 309.45 81.25 309.8177734375 81.1029296875 310.3 80.75 308.3416015625 82.1583984375 308.25 82.25 300.95 82 299.6 80.6 299.3 79 298.1 78.5
M 296.1 84.85
L 296.35 84.85
Q 296.65 86.05 297.4 87.85 297.85 88.85 298.7 90.85
L 298.6 91
Q 297.35 89.85 296.7 87.95 296.1 86.35 296.1 84.85
M 296.8 81.2
L 297 81.2
Q 297.7 87 299.75 91
L 299.6 91.1
Q 297.8 88 297.4 87.1 296.7 85.45 296.7 83.5
L 296.8 81.2
M 301.8 82.9
Q 300.6 82.45 299.45 81.6
L 299.45 81.55
Q 299.55 81.55 303.1 82.65 306.9 83.65 308.35 82.85 309.2 82.75 306.95 83.85 303.65 83.55 301.8 82.9
M 316.85 24.2
L 316.8 24.2 315.8 24.25
Q 315.0021484375 24.6609375 314.9 25.75 314.65 27.85 314 28.35
L 312.75 28.95
Q 311.55 29.5 311.2 29.95 310.6 30.85 310.6 32.2 310.6 32.8 311.55 34.7 312.55 36.75 313.35 37.45 313.603515625 37.675390625 313.75 38.05 314.22890625 37.75234375 314.95 37.45 316.3 36.85 316.75 36.85
L 316.75 37
Q 314.975 37.69453125 313.85 38.4 313.8826171875 38.5521484375 313.9 38.7 313.9 39.2 313.95 40.25 314.1 41 314.85 41.5 315.5 42 315.5 42.2 315.5 42.252734375 315.5 42.3 316.5724609375 42.5255859375 317.2 42.65 317.2 42.4984375 317.2 42.2 317.2 42 317.85 41.5 318.6 41 318.75 40.25 318.8 39.2 318.8 38.7 318.863671875 38.1583984375 319.05 37.8 319.0359375 37.8 319 37.8 318.3 37.8 317.8 37.2 317.45 36.6 317.35 36.5 317.8248046875 36.6423828125 319.3 37.5 319.3197265625 37.476953125 319.35 37.45 320.15 36.75 321.15 34.7 322.1 32.8 322.1 32.2 322.1 30.85 321.5 29.95 321.15 29.5 319.95 28.95
L 318.7 28.35
Q 318.05 27.85 317.8 25.75 317.7103515625 24.7927734375 317.05 24.35
L 316.95 24.35
Q 316.884765625 24.25234375 316.85 24.2
M 328.6 64.45
Q 325.3 61 324.45 61 322.3130859375 61 321.25 62.95 321.365234375 62.981640625 321.45 63
L 321.7 63.2
Q 320.93125 64.814453125 320.45 67.35
L 320.45 67.35
Q 320.472265625 67.50234375 320.4 67.6 320.296484375 68.2458984375 320.2 68.95 320.1244140625 69.5544921875 320 70.3 320.25 73.4966796875 320.25 78.35 320.25 82.6 319.65 86.05 319.359375 87.5923828125 319.2 88.6 319.7599609375 88.4611328125 320.25 88.3 320.3345703125 88.2392578125 320.4 88.2 320.8751953125 87.983984375 321.8 87.9 323.272265625 87.5 323.85 87.5 325.678515625 87.5 327.4 88.35 329.21953125 88.857421875 330.8 89.6 330.9125 89.6421875 331 89.65 332.55 89.7 333.15 90.25 334.0890625 91.0611328125 335.25 92.7 336.0873046875 93.4966796875 336.7 94.35 336.40703125 94.14453125 336.1 93.95 337.0146484375 95.3697265625 337.5 96.7 337.5431640625 96.6048828125 337.6 96.5 337.95 95.7 337.95 95.1 337.95 94.35 337.85 94.15
L 337.85 76.35
Q 336.7 73.95 335.95 72.55 334.6 70.05 332.5 68.5
L 328.6 64.45
M 335.05 82.75
Q 336.8 80.15 336.75 78.5
L 337.05 78.5
Q 337.6306640625 80.3384765625 335.3 83.25 335.6515625 82.8765625 336 82.45 335 85.8 332.6 87.2
L 332.15 87
Q 332.546484375 86.6431640625 334.7 84 333.60546875 85.2962890625 331.95 86.8
L 331.45 86.7
Q 333.45 85.05 335.05 82.75
M 328 85.1
L 328 85.4
Q 325.3 83.7 323.95 82.85 321.6 81.35 320.75 80.2 321.8 80.95 328 85.1
M 330.05 85.85
L 329.95 86
Q 329.45 85.6 325.35 82.25 326.1 82.1 327.8 83.55 329.3 84.8 330.05 85.85 Z"/>

<path fill="#F7D9D5" stroke="none" d="
M 315.7 43.2
L 315.35 42.95
Q 315.3146484375 43.0353515625 315.25 43.1
L 315.25 66.7
Q 316.6162109375 66.20546875 316.75 66.25
L 317 66.5
Q 316.45 67.1 315.35 67.65 314.5 68.1 314.3 68.1 313.2912109375 68.1 312.65 68 312.7591796875 68.6392578125 312.9 69.3 312.9376953125 69.3125 313 69.3 316.8 68.65 317.75 68.9 318.186328125 69.0091796875 318.75 69.35 318.8353515625 68.8765625 318.9 68.35 318.3462890625 68.3462890625 318.15 68.15 318.0568359375 68.0755859375 317.95 67.9 317.666015625 67.859375 317.45 67.6
L 317.45 43.2 315.7 43.2 Z"/>
</g>

<g id="Layer0_0_FILL">
<path fill="#B8BE79" stroke="none" d="
M 25 230.05
Q 25 235.05 30 235.05
L 215 235.05
Q 220 235.05 220 230.05
L 220 203.05
Q 220 198.05 215 198.05
L 30 198.05
Q 25 198.05 25 203.05
L 25 230.05 Z"/>
</g>

<g id="Layer0_1_FILL">
<path fill="#3B3D35" stroke="none" d="
M 175.4 219.05
Q 174.55 219.4 173.9 220 173.3 220.6 173 221.45 172.65 222.3 172.65 223.35 172.65 224.45 173 225.3 173.3 226.2 173.9 226.8 174.55 227.4 175.4 227.7 176.25 228.05 177.25 228.05 178.3 228.05 179.15 227.7 180 227.4 180.6 226.8 181.2 226.2 181.55 225.3 181.85 224.45 181.85 223.35 181.85 222.3 181.55 221.45 181.2 220.6 180.6 220 180 219.4 179.15 219.05 178.3 218.75 177.25 218.75 176.25 218.75 175.4 219.05
M 177.25 220.75
Q 178.2 220.75 178.65 221.4 179.1 222.05 179.1 223.4 179.1 224.7 178.65 225.4 178.2 226.05 177.25 226.05 176.3 226.05 175.85 225.4 175.45 224.7 175.45 223.4 175.45 222.05 175.85 221.4 176.3 220.75 177.25 220.75
M 180.7 215.1
L 178.1 215.1
Q 177.7 215.1 177.5 215.2 177.3 215.35 177.15 215.6
L 175.95 217.75 177.6 217.75
Q 177.9 217.75 178.05 217.65
L 178.45 217.35 180.7 215.1
M 169.8 216.25
L 168.4 216.25
Q 167.9 216.25 167.8 216.7
L 167.25 218.9 165.85 219.15 165.85 220.2
Q 165.85 220.5 165.95 220.6 166.1 220.75 166.35 220.75
L 167.1 220.75 167.1 225.4
Q 167.1 226 167.25 226.5 167.45 226.95 167.8 227.3 168.1 227.65 168.6 227.85 169.1 228.05 169.75 228.05 170.45 228.05 171.1 227.85 171.75 227.65 172.25 227.25
L 171.45 226 171.3 225.8 171.1 225.75 170.65 225.9 170.4 225.95
Q 170.1 225.95 169.95 225.75 169.8 225.55 169.8 225.2
L 169.8 220.75 172.05 220.75 172.05 218.9 169.8 218.9 169.8 216.25
M 192.55 218.9
L 189.9 218.9 189.9 227.9 192.55 227.9 192.55 218.9
M 185.4 219
L 185.15 218.9 183.2 218.9 183.2 227.9 185.9 227.9 185.9 222.4
Q 186.15 221.85 186.5 221.55 186.85 221.25 187.45 221.25
L 187.95 221.25 188.15 221.3 188.35 221.3 188.6 221.25
Q 188.7 221.15 188.75 221
L 188.95 219
Q 188.55 218.7 187.95 218.7 187.25 218.7 186.7 219.1 186.15 219.55 185.75 220.25
L 185.6 219.5 185.5 219.2 185.4 219
M 190.6 214.95
Q 190.3 215.05 190.05 215.3 189.85 215.5 189.7 215.8 189.6 216.05 189.6 216.4 189.6 216.75 189.7 217 189.85 217.3 190.05 217.5 190.3 217.7 190.6 217.85 190.85 218 191.2 218 191.55 218 191.85 217.85 192.15 217.7 192.35 217.5 192.6 217.3 192.7 217 192.85 216.75 192.85 216.4 192.85 216.05 192.7 215.8 192.6 215.5 192.35 215.3 192.15 215.05 191.85 214.95 191.55 214.85 191.2 214.85 190.85 214.85 190.6 214.95
M 203.2 223.35
Q 203.2 222.3 202.9 221.45 202.55 220.6 201.95 220 201.35 219.4 200.5 219.05 199.65 218.75 198.6 218.75 197.6 218.75 196.75 219.05 195.9 219.4 195.25 220 194.65 220.6 194.35 221.45 194 222.3 194 223.35 194 224.45 194.35 225.3 194.65 226.2 195.25 226.8 195.9 227.4 196.75 227.7 197.6 228.05 198.6 228.05 199.65 228.05 200.5 227.7 201.35 227.4 201.95 226.8 202.55 226.2 202.9 225.3 203.2 224.45 203.2 223.35
M 198.6 220.75
Q 199.55 220.75 200 221.4 200.45 222.05 200.45 223.4 200.45 224.7 200 225.4 199.55 226.05 198.6 226.05 197.65 226.05 197.2 225.4 196.8 224.7 196.8 223.4 196.8 222.05 197.2 221.4 197.65 220.75 198.6 220.75
M 59.45 218.9
L 56.8 218.9 56.8 227.9 59.45 227.9 59.45 218.9
M 57.5 214.95
Q 57.2 215.05 56.95 215.3 56.75 215.5 56.6 215.8 56.5 216.05 56.5 216.4 56.5 216.75 56.6 217 56.75 217.3 56.95 217.5 57.2 217.7 57.5 217.85 57.75 218 58.1 218 58.45 218 58.75 217.85 59.05 217.7 59.25 217.5 59.5 217.3 59.6 217 59.75 216.75 59.75 216.4 59.75 216.05 59.6 215.8 59.5 215.5 59.25 215.3 59.05 215.05 58.75 214.95 58.45 214.85 58.1 214.85 57.75 214.85 57.5 214.95
M 49.5 215.4
Q 48.65 215.7 48.1 216.25 47.55 216.8 47.25 217.45 47 218.15 47 218.85 47 219.75 47.25 220.35 47.45 220.95 47.85 221.35 48.25 221.75 48.75 222
L 51.75 223.05
Q 52.15 223.25 52.4 223.5 52.6 223.8 52.6 224.25 52.6 225 52.15 225.35 51.75 225.7 50.95 225.7 50.35 225.7 49.9 225.55
L 48.55 224.8
Q 48.25 224.65 48 224.65 47.8 224.65 47.65 224.75
L 47.35 225 46.5 226.35
Q 46.85 226.75 47.35 227.05 47.85 227.35 48.45 227.6 49.05 227.8 49.65 227.9 50.25 228.05 50.85 228.05 51.9 228.05 52.75 227.7 53.6 227.4 54.2 226.8 54.8 226.25 55.1 225.5 55.4 224.7 55.4 223.85 55.4 223.05 55.15 222.5 54.9 221.95 54.5 221.55 54.1 221.15 53.6 220.9
L 50.6 219.8
Q 50.2 219.6 49.95 219.35 49.75 219.1 49.75 218.7 49.75 218.1 50.15 217.75 50.55 217.4 51.35 217.4 51.85 217.4 52.2 217.55
L 52.9 217.8 53.4 218.1
Q 53.65 218.2 53.85 218.2 54.05 218.2 54.2 218.1
L 54.5 217.8 55.2 216.45
Q 54.85 216.15 54.45 215.85
L 52.45 215.15 51.35 215.1
Q 50.3 215.1 49.5 215.4
M 69.8 218.9
L 68.4 219.15 68.4 220.2
Q 68.4 220.5 68.5 220.6 68.65 220.75 68.9 220.75
L 69.65 220.75 69.65 225.4
Q 69.65 226 69.8 226.5 70 226.95 70.35 227.3 70.65 227.65 71.15 227.85 71.65 228.05 72.3 228.05 73 228.05 73.65 227.85 74.3 227.65 74.8 227.25
L 74 226 73.85 225.8 73.65 225.75 73.2 225.9 72.95 225.95
Q 72.65 225.95 72.5 225.75 72.35 225.55 72.35 225.2
L 72.35 220.75 74.6 220.75 74.6 218.9 72.35 218.9 72.35 216.25 70.95 216.25
Q 70.45 216.25 70.35 216.7
L 69.8 218.9
M 65.5 218.85
L 64.55 218.75
Q 63.65 218.75 62.95 218.95 62.3 219.2 61.85 219.6 61.4 220 61.2 220.5 61 221 61 221.6 61 222.2 61.15 222.65 61.35 223.1 61.65 223.4 61.95 223.7 62.3 223.85
L 64.5 224.7 65 225
Q 65.2 225.15 65.2 225.45
L 65.1 225.75 64.95 226 64.6 226.15 64.05 226.2
Q 63.6 226.2 63.3 226.1
L 62.8 225.9 62.4 225.65
Q 62.2 225.55 62 225.55 61.75 225.55 61.55 225.65
L 61.3 225.95 60.7 226.9 61.3 227.35 62.1 227.7 63 227.95 63.9 228.05
Q 64.85 228.05 65.55 227.8 66.25 227.6 66.75 227.2 67.2 226.75 67.45 226.2 67.7 225.65 67.7 224.95 67.7 224.4 67.55 224.05 67.35 223.65 67.05 223.35 66.75 223.1 66.4 222.9
L 65.6 222.55 64.2 222.1 63.7 221.8
Q 63.55 221.65 63.55 221.4 63.55 221.05 63.8 220.85 64.1 220.65 64.6 220.65
L 65.25 220.7 66.15 221.1 66.55 221.15 66.8 221.1 67.05 220.85 67.65 219.9 67.05 219.45 66.35 219.05 65.5 218.85
M 89.8 218.75
L 89.1 218.8 88.5 219.05 87.95 219.4 87.5 219.8 87.35 219.35
Q 87.2 218.9 86.7 218.9
L 85 218.9 85 227.9 87.7 227.9 87.7 221.4
Q 88 221.1 88.3 220.95 88.65 220.75 89 220.75 89.6 220.75 89.9 221.1 90.2 221.4 90.2 222.15
L 90.2 227.9 92.9 227.9 92.9 222.15
Q 92.9 221.5 93.25 221.15 93.65 220.75 94.2 220.75 95.4 220.75 95.4 222.15
L 95.4 227.9 98.1 227.9 98.1 222.15
Q 98.1 221.35 97.85 220.7 97.65 220.1 97.25 219.65 96.85 219.2 96.25 218.95 95.65 218.75 94.9 218.75
L 94.05 218.85
Q 93.6 218.9 93.25 219.1 92.85 219.3 92.55 219.55 92.2 219.85 92 220.3 91.7 219.6 91.15 219.15 90.65 218.75 89.8 218.75
M 83.45 221.15
Q 83.15 220.35 82.6 219.85 82.05 219.3 81.35 219 80.6 218.75 79.7 218.75 78.65 218.75 77.85 219.1 77 219.45 76.45 220.05 75.85 220.65 75.55 221.5 75.25 222.3 75.25 223.2 75.25 224.4 75.6 225.3 75.95 226.2 76.6 226.8 77.2 227.4 78.05 227.75 78.85 228.05 79.8 228.05
L 80.8 228 81.8 227.75
Q 82.3 227.55 82.8 227.25 83.25 226.95 83.7 226.5
L 82.9 225.5
Q 82.75 225.3 82.4 225.3 82.15 225.3 81.95 225.4
L 80.85 225.9
Q 80.55 226 80.05 226 79.2 226 78.6 225.5 78.05 225 77.95 223.85
L 83.45 223.85 83.6 223.65 83.7 223.35 83.75 222.85
Q 83.75 221.9 83.45 221.15
M 81 221.15
Q 81.15 221.4 81.25 221.7
L 81.3 222.3 77.95 222.3
Q 78.1 221.5 78.55 221.05 79 220.6 79.75 220.6 80.2 220.6 80.5 220.75 80.8 220.9 81 221.15
M 114.7 218.9
L 112.75 218.9 112.75 227.9 115.45 227.9 115.45 222.4
Q 115.7 221.85 116.05 221.55 116.4 221.25 117 221.25
L 117.5 221.25 117.7 221.3 117.9 221.3 118.15 221.25
Q 118.25 221.15 118.3 221
L 118.5 219
Q 118.1 218.7 117.5 218.7 116.8 218.7 116.25 219.1 115.7 219.55 115.3 220.25
L 115.15 219.5 115.05 219.2 114.95 219 114.7 218.9
M 103.55 218.7
Q 102.45 218.7 101.4 219.05 100.45 219.4 99.6 220.15
L 100.1 221 100.4 221.3
Q 100.6 221.45 100.9 221.45 101.2 221.45 101.4 221.35
L 102.45 220.85
Q 102.75 220.75 103.2 220.75 103.8 220.75 104.15 221.1 104.45 221.45 104.45 222.25
L 104.45 222.65
Q 102.9 222.7 101.9 222.95 100.9 223.25 100.3 223.65 99.7 224.05 99.45 224.55 99.2 225.05 99.2 225.55 99.2 226.15 99.4 226.65 99.6 227.1 99.95 227.4 100.3 227.7 100.8 227.85 101.3 228.05 101.9 228.05
L 102.75 227.95 103.45 227.75 104.75 226.85 104.95 227.35
Q 105.1 227.7 105.3 227.8 105.5 227.9 105.85 227.9
L 107.1 227.9 107.1 222.25
Q 107.1 221.5 106.85 220.85 106.6 220.2 106.15 219.7 105.7 219.25 105.05 218.95 104.4 218.7 103.55 218.7
M 104.45 224.25
L 104.45 225.5
Q 104.05 225.9 103.65 226.05 103.3 226.25 102.75 226.25 102.25 226.25 102.05 226.05 101.75 225.9 101.75 225.4 101.75 225.2 101.9 225 102 224.8 102.3 224.65 102.6 224.5 103.15 224.35
L 104.45 224.25
M 130.9 221.4
Q 130.9 221.05 131.15 220.85 131.45 220.65 131.95 220.65
L 132.6 220.7 133.5 221.1 133.9 221.15 134.15 221.1 134.4 220.85 135 219.9 134.4 219.45 133.7 219.05 132.85 218.85 131.9 218.75
Q 131 218.75 130.3 218.95 129.65 219.2 129.2 219.6 128.75 220 128.55 220.5 128.35 221 128.35 221.6 128.35 222.2 128.5 222.65 128.7 223.1 129 223.4 129.3 223.7 129.65 223.85
L 131.85 224.7 132.35 225
Q 132.55 225.15 132.55 225.45
L 132.45 225.75 132.3 226 131.95 226.15 131.4 226.2
Q 130.95 226.2 130.65 226.1
L 130.15 225.9 129.75 225.65
Q 129.55 225.55 129.35 225.55 129.1 225.55 128.9 225.65
L 128.65 225.95 128.05 226.9 128.65 227.35 129.45 227.7 130.35 227.95 131.25 228.05
Q 132.2 228.05 132.9 227.8 133.6 227.6 134.1 227.2 134.55 226.75 134.8 226.2 135.05 225.65 135.05 224.95 135.05 224.4 134.9 224.05 134.7 223.65 134.4 223.35 134.1 223.1 133.75 222.9
L 132.95 222.55 131.55 222.1 131.05 221.8
Q 130.9 221.65 130.9 221.4
M 123.35 218.75
Q 122.3 218.75 121.5 219.1 120.65 219.45 120.1 220.05 119.5 220.65 119.2 221.5 118.9 222.3 118.9 223.2 118.9 224.4 119.25 225.3 119.6 226.2 120.25 226.8 120.85 227.4 121.7 227.75 122.5 228.05 123.45 228.05
L 124.45 228 125.45 227.75
Q 125.95 227.55 126.45 227.25 126.9 226.95 127.35 226.5
L 126.55 225.5
Q 126.4 225.3 126.05 225.3 125.8 225.3 125.6 225.4
L 124.5 225.9
Q 124.2 226 123.7 226 122.85 226 122.25 225.5 121.7 225 121.6 223.85
L 127.1 223.85 127.25 223.65 127.35 223.35 127.4 222.85
Q 127.4 221.9 127.1 221.15 126.8 220.35 126.25 219.85 125.7 219.3 125 219 124.25 218.75 123.35 218.75
M 122.2 221.05
Q 122.65 220.6 123.4 220.6 123.85 220.6 124.15 220.75 124.45 220.9 124.65 221.15 124.8 221.4 124.9 221.7
L 124.95 222.3 121.6 222.3
Q 121.75 221.5 122.2 221.05
M 157.85 221
L 158.15 221.3
Q 158.35 221.45 158.65 221.45 158.95 221.45 159.15 221.35
L 160.2 220.85
Q 160.5 220.75 160.95 220.75 161.55 220.75 161.9 221.1 162.2 221.45 162.2 222.25
L 162.2 222.65
Q 160.65 222.7 159.65 222.95 158.65 223.25 158.05 223.65 157.45 224.05 157.2 224.55 156.95 225.05 156.95 225.55 156.95 226.15 157.15 226.65 157.35 227.1 157.7 227.4 158.05 227.7 158.55 227.85 159.05 228.05 159.65 228.05
L 160.5 227.95 161.2 227.75 162.5 226.85 162.7 227.35
Q 162.85 227.7 163.05 227.8 163.25 227.9 163.6 227.9
L 164.85 227.9 164.85 222.25
Q 164.85 221.5 164.6 220.85 164.35 220.2 163.9 219.7 163.45 219.25 162.8 218.95 162.15 218.7 161.3 218.7 160.2 218.7 159.15 219.05 158.2 219.4 157.35 220.15
L 157.85 221
M 159.5 225.4
Q 159.5 225.2 159.65 225 159.75 224.8 160.05 224.65 160.35 224.5 160.9 224.35
L 162.2 224.25 162.2 225.5
Q 161.8 225.9 161.4 226.05 161.05 226.25 160.5 226.25 160 226.25 159.8 226.05 159.5 225.9 159.5 225.4
M 155.7 218.7
Q 155 218.7 154.45 219.1 153.9 219.55 153.5 220.25
L 153.35 219.5 153.25 219.2 153.15 219 152.9 218.9 150.95 218.9 150.95 227.9 153.65 227.9 153.65 222.4
Q 153.9 221.85 154.25 221.55 154.6 221.25 155.2 221.25
L 155.7 221.25 155.9 221.3 156.1 221.3 156.35 221.25
Q 156.45 221.15 156.5 221
L 156.7 219
Q 156.3 218.7 155.7 218.7
M 149.05 218.9
L 146.4 218.9 146.4 227.9 149.05 227.9 149.05 218.9
M 144.8 221.35
Q 144.55 220.5 144.1 219.9 143.65 219.35 143.05 219 142.45 218.7 141.75 218.7 140.85 218.7 140.15 219.05 139.5 219.45 138.95 220
L 138.75 219.35
Q 138.6 218.9 138.1 218.9
L 136.4 218.9 136.4 230.75 139.1 230.75 139.1 227.3
Q 139.5 227.65 140 227.85 140.45 228.05 141.15 228.05 142 228.05 142.75 227.7 143.45 227.3 143.95 226.7 144.45 226.05 144.75 225.2 145 224.35 145 223.3 145 222.25 144.8 221.35
M 141.85 221.3
Q 142.05 221.65 142.15 222.1 142.25 222.6 142.25 223.3 142.25 224.05 142.1 224.6 142 225.1 141.75 225.45 141.5 225.75 141.2 225.9 140.9 226.05 140.5 226.05 140.15 226.05 139.75 225.9 139.4 225.8 139.1 225.45
L 139.1 221.6
Q 139.45 221.2 139.85 221 140.2 220.75 140.8 220.75 141.15 220.75 141.4 220.9 141.65 221.05 141.85 221.3
M 147.7 214.85
Q 147.35 214.85 147.1 214.95 146.8 215.05 146.55 215.3 146.35 215.5 146.2 215.8 146.1 216.05 146.1 216.4 146.1 216.75 146.2 217 146.35 217.3 146.55 217.5 146.8 217.7 147.1 217.85 147.35 218 147.7 218 148.05 218 148.35 217.85 148.65 217.7 148.85 217.5 149.1 217.3 149.2 217 149.35 216.75 149.35 216.4 149.35 216.05 149.2 215.8 149.1 215.5 148.85 215.3 148.65 215.05 148.35 214.95 148.05 214.85 147.7 214.85 Z"/>
</g>
</defs>

<g transform="matrix( 1, 0, 0, 1, -37,-30.05) ">
<use xlink:href="#Layer4_0_FILL"/>
</g>

<g transform="matrix( 1, 0, 0, 1, 0,0) ">
<use xlink:href="#Layer4_1_FILL"/>
</g>

<g transform="matrix( 1.24041748046875, 0, 0, 1.24041748046875, -266,10.4) ">
<use xlink:href="#Layer3_0_FILL"/>
</g>

<g transform="matrix( 1, 0, 0, 1, 0,6) ">
<use xlink:href="#Layer0_0_FILL"/>
</g>

<g transform="matrix( 1, 0, 0, 1, 0,0) ">
<use xlink:href="#Layer0_1_FILL"/>
</g>
</svg>
