<?xml version="1.0" encoding="UTF-8"?>
<svg xmlns="http://www.w3.org/2000/svg" viewBox="0 0 180 180">
  <defs>
    <style>
      .cls-1 {
        fill: none;
      }

      .cls-2 {
        fill: #d7d185;
      }

      .cls-3 {
        fill: #94a26e;
      }

      .cls-4 {
        fill: #cda45e;
      }
    </style>
  </defs>
  <g id="Camada_1" data-name="Camada 1">
    <circle class="cls-4" cx="90.04" cy="91.52" r="23.29"/>
    <g>
      <circle class="cls-1" cx="89.62" cy="93.44" r="68.47"/>
      <circle class="cls-2" cx="23.3" cy="110.54" r="20.4"/>
      <circle class="cls-2" cx="141.95" cy="49.27" r="20.4"/>
      <circle class="cls-2" cx="121.04" cy="154.28" r="20.4"/>
      <circle class="cls-2" cx="34.91" cy="52.24" r="20.4"/>
      <circle class="cls-2" cx="156.78" cy="106.81" r="20.4"/>
      <circle class="cls-2" cx="87.7" cy="24.98" r="20.4"/>
      <circle class="cls-2" cx="61.63" cy="155.94" r="20.4"/>
    </g>
  </g>
  <g id="Camada_4" data-name="Camada 4">
    <g>
      <circle class="cls-1" cx="90.04" cy="92.54" r="39.66"/>
      <polygon class="cls-3" points="52.98 94.32 41.86 105.45 57.05 109.51 56.08 105.86 62.65 104.1 60.53 96.2 53.96 97.97 52.98 94.32"/>
      <polygon class="cls-3" points="96.55 56.02 88.2 42.7 80.83 56.59 84.61 56.45 84.85 63.26 93.02 62.96 92.78 56.16 96.55 56.02"/>
      <polygon class="cls-3" points="122.65 74.87 127.86 60.03 112.41 62.94 114.87 65.8 109.7 70.23 115.03 76.44 120.19 72 122.65 74.87"/>
      <polygon class="cls-3" points="65.55 64.68 49.93 62.9 56.2 77.32 58.45 74.28 63.92 78.33 68.78 71.76 63.31 67.71 65.55 64.68"/>
      <polygon class="cls-3" points="68.32 122.63 70.09 138.25 82.73 128.91 79.27 127.4 81.99 121.16 74.5 117.9 71.78 124.13 68.32 122.63"/>
      <polygon class="cls-3" points="100.02 128.27 113.34 136.64 113.92 120.92 110.59 122.69 107.4 116.67 100.18 120.49 103.36 126.51 100.02 128.27"/>
      <polygon class="cls-3" points="124.2 107.02 139.04 101.83 127.12 91.57 126.42 95.27 119.73 94.01 118.21 102.04 124.9 103.31 124.2 107.02"/>
    </g>
  </g>
  <g id="Camada_3" data-name="Camada 3">
    <g>
      <path d="M83.59,85.82c0,.42-.07.81-.21,1.16-.14.36-.33.67-.59.93-.25.26-.56.46-.91.61s-.75.22-1.19.22-.83-.07-1.18-.22-.66-.35-.92-.61c-.25-.26-.45-.57-.59-.93-.14-.36-.21-.75-.21-1.16s.07-.81.21-1.16c.14-.36.34-.67.59-.93.25-.26.56-.46.92-.61s.75-.22,1.18-.22c.29,0,.56.03.82.1s.49.16.7.28c.21.12.41.27.58.45.17.18.31.37.43.59.12.22.21.45.27.7s.09.52.09.8ZM82.5,85.82c0-.31-.04-.6-.13-.84-.08-.25-.2-.46-.36-.63-.16-.17-.34-.31-.57-.4-.22-.09-.47-.14-.75-.14s-.53.05-.75.14c-.22.09-.41.23-.57.4-.16.17-.28.39-.36.63s-.13.53-.13.84.04.6.13.84c.08.25.21.46.36.63.16.17.35.31.57.4.22.09.47.14.75.14s.53-.05.75-.14c.22-.09.41-.22.57-.4.16-.17.28-.38.36-.63.08-.25.13-.53.13-.84Z"/>
      <path d="M92.2,89.8h-.88c-.13,0-.24-.02-.34-.05s-.19-.1-.28-.19l-.84-.93c-.13.04-.27.06-.41.08-.14.02-.29.03-.44.03-.43,0-.83-.07-1.18-.22s-.66-.35-.92-.61c-.25-.26-.45-.57-.59-.93-.14-.36-.21-.75-.21-1.16s.07-.81.21-1.16c.14-.36.34-.67.59-.93.25-.26.56-.46.92-.61s.75-.22,1.18-.22c.29,0,.56.03.82.1s.49.16.7.28c.21.12.41.27.58.45.17.18.31.37.43.59.12.22.21.45.27.7s.09.52.09.8c0,.26-.03.5-.08.73-.05.23-.13.45-.23.65-.1.2-.22.39-.36.56-.14.17-.3.32-.49.45l1.45,1.58ZM87.2,85.82c0,.31.04.6.13.84.08.25.21.46.36.63.16.17.35.31.57.4.22.09.47.14.75.14s.53-.05.75-.14c.22-.09.41-.22.57-.4.16-.17.28-.38.36-.63.08-.25.13-.53.13-.84s-.04-.6-.13-.84-.2-.46-.36-.63c-.16-.17-.34-.31-.57-.4-.22-.09-.47-.14-.75-.14s-.53.05-.75.14c-.22.09-.41.23-.57.4-.16.17-.28.39-.36.63s-.13.53-.13.84Z"/>
      <path d="M95.14,87.82c.21,0,.39-.03.55-.1.16-.07.3-.17.41-.29.11-.12.2-.27.26-.45.06-.18.09-.37.09-.59v-3.42h1.06v3.42c0,.34-.06.65-.16.94s-.27.54-.47.75c-.2.21-.45.37-.75.49-.29.12-.62.18-.99.18s-.7-.06-.99-.18-.54-.28-.75-.49c-.2-.21-.36-.46-.47-.75s-.16-.6-.16-.94v-3.42h1.06v3.42c0,.22.03.42.09.59.06.18.15.33.26.45.11.13.25.22.41.29.16.07.35.1.55.1Z"/>
      <path d="M99.78,83.81v1.59h2v.82h-2v1.62h2.54v.85h-3.61v-5.72h3.61v.85h-2.54Z"/>
      <path d="M77.48,99.23h-.82c-.09,0-.17-.02-.23-.07-.06-.05-.1-.1-.13-.17l-.43-1.17h-2.37l-.43,1.17c-.02.06-.06.12-.12.17-.06.05-.14.08-.23.08h-.83l2.25-5.72h1.08l2.25,5.72ZM75.6,97.07l-.7-1.9c-.03-.08-.07-.18-.11-.3-.04-.12-.07-.24-.11-.38-.03.13-.07.26-.11.38-.04.12-.07.22-.11.31l-.69,1.89h1.82Z"/>
      <path d="M82.52,93.51l-2.31,5.72h-.96l-2.31-5.72h.85c.09,0,.17.02.23.07s.1.1.13.17l1.35,3.49c.04.11.09.24.13.37.04.14.08.28.12.43.03-.15.07-.29.1-.43.04-.14.08-.26.12-.37l1.34-3.49c.02-.06.06-.12.12-.17s.14-.08.23-.08h.86Z"/>
      <path d="M87.56,99.23h-.82c-.09,0-.17-.02-.23-.07-.06-.05-.1-.1-.13-.17l-.43-1.17h-2.37l-.43,1.17c-.02.06-.06.12-.12.17-.06.05-.14.08-.23.08h-.83l2.25-5.72h1.08l2.25,5.72ZM85.68,97.07l-.7-1.9c-.03-.08-.07-.18-.11-.3-.04-.12-.07-.24-.11-.38-.03.13-.07.26-.11.38-.04.12-.07.22-.11.31l-.69,1.89h1.82Z"/>
      <path d="M91.5,98.35v.88h-3.35v-5.72h1.06v4.84h2.29Z"/>
      <path d="M93.33,99.23h-1.07v-5.72h1.07v5.72Z"/>
      <path d="M99.5,99.23h-.82c-.09,0-.17-.02-.23-.07-.06-.05-.1-.1-.13-.17l-.43-1.17h-2.37l-.43,1.17c-.02.06-.06.12-.12.17-.06.05-.14.08-.23.08h-.83l2.25-5.72h1.08l2.25,5.72ZM97.62,97.07l-.7-1.9c-.03-.08-.07-.18-.11-.3-.04-.12-.07-.24-.11-.38-.03.13-.07.26-.11.38-.04.12-.07.22-.11.31l-.69,1.89h1.82Z"/>
      <path d="M104.56,99.23h-.96c-.18,0-.31-.07-.4-.21l-1.2-1.83c-.04-.07-.09-.12-.15-.15-.05-.03-.13-.04-.24-.04h-.45v2.23h-1.06v-5.72h1.74c.39,0,.72.04,1,.12s.51.19.68.34c.18.15.31.32.39.52s.13.42.13.67c0,.19-.03.37-.08.55s-.14.33-.25.47-.24.26-.4.37-.34.19-.54.25c.07.04.13.09.19.14.06.05.11.12.16.19l1.43,2.11ZM101.82,96.23c.2,0,.38-.03.52-.08.15-.05.27-.12.37-.21.1-.09.17-.19.22-.31.05-.12.07-.25.07-.4,0-.29-.1-.51-.29-.67-.19-.16-.48-.23-.88-.23h-.68v1.9h.66Z"/>
      <path d="M104.83,94.03c.09-.08.19-.15.29-.23.11-.07.22-.13.35-.19s.26-.09.4-.12.3-.05.47-.05c.23,0,.44.03.63.1.19.06.35.15.48.27.13.12.24.26.31.42.07.17.11.35.11.56s-.03.37-.09.52c-.06.15-.13.27-.22.38-.09.11-.18.2-.29.28s-.2.15-.29.22c-.09.07-.17.14-.24.21-.07.07-.11.14-.12.23l-.09.58h-.67l-.07-.64c-.02-.12,0-.23.05-.33s.12-.18.21-.26c.09-.08.18-.15.29-.23.11-.07.2-.15.3-.24.09-.09.17-.18.23-.29.06-.11.09-.23.09-.38,0-.1-.02-.18-.05-.26-.04-.07-.08-.14-.15-.19-.06-.05-.14-.1-.23-.12-.09-.03-.18-.04-.29-.04-.15,0-.28.02-.38.05-.1.03-.19.07-.26.11-.07.04-.13.08-.18.11-.05.03-.09.05-.13.05-.1,0-.16-.04-.21-.12l-.26-.41ZM105.57,98.69c0-.08.02-.16.05-.23.03-.07.07-.14.12-.19s.12-.1.19-.13c.07-.03.15-.05.24-.05s.16.02.24.05c.07.03.14.07.19.13.05.05.1.12.13.19.03.07.05.15.05.23s-.02.16-.05.24c-.03.07-.07.14-.13.19-.05.05-.12.09-.19.12-.07.03-.15.05-.24.05s-.16-.02-.24-.05-.14-.07-.19-.12-.09-.12-.12-.19c-.03-.07-.05-.15-.05-.24Z"/>
    </g>
    <g>
      <path d="M77.12,26.77v.63h-3.54v-5.73h3.53v.63h-2.76v1.9h2.23v.61h-2.23v1.96h2.76Z"/>
      <path d="M81.62,27.41h-.71v-3.46h-2.09v2.43c0,.17.04.3.12.38.08.08.19.12.32.12.07,0,.14-.01.19-.03.05-.02.1-.04.14-.07.04-.02.07-.05.1-.07.03-.02.05-.03.07-.03.04,0,.07.02.1.07l.21.34c-.12.11-.27.2-.44.27-.17.07-.35.1-.54.1-.32,0-.57-.09-.74-.27-.17-.18-.26-.44-.26-.77v-2.48h-.49s-.08-.01-.11-.04-.04-.06-.04-.12v-.28l.66-.09.16-1.25s.03-.07.05-.1c.03-.03.06-.04.11-.04h.36v1.4h2.8v3.97ZM81.8,22.05c0,.07-.01.13-.04.19-.03.06-.07.11-.11.16-.05.05-.1.08-.16.11-.06.03-.13.04-.2.04s-.13-.01-.19-.04c-.06-.03-.11-.06-.16-.11-.05-.05-.08-.1-.11-.16-.03-.06-.04-.12-.04-.19s.01-.14.04-.2c.03-.06.06-.12.11-.16.04-.05.1-.08.16-.11.06-.03.12-.04.19-.04s.13.01.2.04c.06.03.12.06.16.11s.08.1.11.16c.03.06.04.13.04.2Z"/>
      <path d="M84.5,23.29c.3,0,.56.05.8.15s.44.24.61.42.3.4.39.66c.09.26.13.54.13.86s-.04.61-.13.86-.22.47-.39.66-.37.32-.61.42c-.24.1-.5.15-.8.15s-.57-.05-.81-.15c-.24-.1-.44-.24-.61-.42s-.3-.4-.39-.66c-.09-.26-.13-.54-.13-.86s.04-.6.13-.86c.09-.26.22-.48.39-.66s.37-.32.61-.42c.24-.1.51-.15.81-.15ZM84.5,26.91c.4,0,.7-.13.9-.4.2-.27.3-.64.3-1.12s-.1-.86-.3-1.13c-.2-.27-.5-.4-.9-.4-.2,0-.38.03-.53.1-.15.07-.28.17-.38.3-.1.13-.17.29-.22.48s-.07.41-.07.65c0,.48.1.85.3,1.12.2.27.5.4.91.4Z"/>
      <path d="M88.06,21.51v5.89h-.71v-5.89h.71Z"/>
      <path d="M90.92,23.29c.3,0,.56.05.8.15s.44.24.61.42.3.4.39.66c.09.26.13.54.13.86s-.04.61-.13.86-.22.47-.39.66-.37.32-.61.42c-.24.1-.5.15-.8.15s-.57-.05-.81-.15c-.24-.1-.44-.24-.61-.42s-.3-.4-.39-.66c-.09-.26-.13-.54-.13-.86s.04-.6.13-.86c.09-.26.22-.48.39-.66s.37-.32.61-.42c.24-.1.51-.15.81-.15ZM90.92,26.91c.4,0,.7-.13.9-.4.2-.27.3-.64.3-1.12s-.1-.86-.3-1.13c-.2-.27-.5-.4-.9-.4-.2,0-.38.03-.53.1-.15.07-.28.17-.38.3-.1.13-.17.29-.22.48s-.07.41-.07.65c0,.48.1.85.3,1.12.2.27.5.4.91.4Z"/>
      <path d="M97.15,23.51v.26c0,.09-.06.14-.17.17l-.46.06c.09.18.14.37.14.58,0,.2-.04.38-.11.54-.08.16-.18.3-.31.41-.13.12-.29.2-.48.26-.19.06-.39.09-.61.09-.19,0-.37-.02-.54-.07-.09.05-.15.11-.2.17-.05.06-.07.12-.07.18,0,.1.04.17.12.22.08.05.18.08.31.11.13.02.27.04.44.04.16,0,.33.01.5.03s.34.03.5.06c.16.03.31.08.44.14.13.07.23.16.31.28.08.12.12.27.12.46,0,.17-.04.34-.13.5-.09.16-.21.31-.37.43s-.36.23-.6.3-.5.11-.8.11-.55-.03-.78-.09c-.22-.06-.41-.14-.55-.24s-.26-.21-.33-.34-.11-.26-.11-.41c0-.2.06-.37.19-.51s.3-.25.52-.33c-.12-.05-.22-.12-.29-.21-.07-.09-.11-.21-.11-.36,0-.06.01-.12.03-.18.02-.06.05-.12.1-.19.04-.06.1-.12.16-.18.06-.06.14-.11.22-.15-.2-.11-.36-.26-.47-.45-.11-.19-.17-.4-.17-.65,0-.2.04-.38.11-.54.08-.16.18-.3.32-.41.14-.11.3-.2.49-.26.19-.06.39-.09.62-.09.18,0,.34.02.49.06.15.04.29.1.42.17h1.1ZM96.43,27.63c0-.1-.03-.18-.08-.24-.06-.06-.13-.11-.23-.14-.09-.03-.21-.06-.33-.07-.13-.01-.26-.03-.4-.03-.14,0-.28-.02-.43-.02s-.28-.02-.42-.04c-.15.07-.27.16-.37.26-.09.11-.14.23-.14.37,0,.09.02.18.07.25.05.08.12.15.21.2.1.06.22.1.36.14.15.03.32.05.51.05s.36-.02.52-.05c.15-.03.28-.08.39-.15.11-.06.19-.14.24-.23.06-.09.08-.19.08-.29ZM95.14,25.42c.14,0,.27-.02.38-.06s.2-.1.28-.17.13-.16.17-.26c.04-.1.06-.21.06-.33,0-.25-.08-.45-.23-.59-.15-.15-.37-.22-.65-.22s-.51.07-.66.22c-.15.15-.23.34-.23.59,0,.12.02.23.06.33.04.1.1.19.17.26s.17.13.28.17c.11.04.24.06.38.06Z"/>
      <path d="M98.8,22.08c0,.07-.01.13-.04.19-.03.06-.06.11-.11.16-.05.05-.1.08-.16.11-.06.03-.13.04-.2.04s-.13-.01-.19-.04c-.06-.03-.11-.06-.16-.11-.05-.05-.08-.1-.11-.16-.03-.06-.04-.12-.04-.19s.01-.14.04-.2c.03-.06.06-.12.11-.16.05-.05.1-.08.16-.11.06-.03.12-.04.19-.04s.14.01.2.04c.06.03.12.06.16.11.05.05.08.1.11.16.03.06.04.13.04.2ZM98.64,23.35v4.05h-.71v-4.05h.71Z"/>
      <path d="M99.71,23.92c.22-.22.47-.38.72-.48.26-.11.55-.16.86-.16.23,0,.43.04.6.11.18.08.32.18.44.31.12.13.21.29.27.48.06.19.09.4.09.62v2.59h-.32c-.07,0-.12-.01-.16-.03-.04-.02-.07-.07-.09-.13l-.08-.38c-.11.1-.21.19-.31.26-.1.08-.21.14-.32.19-.11.05-.23.09-.36.12-.13.03-.27.04-.42.04s-.31-.02-.44-.07-.26-.11-.36-.2c-.1-.09-.18-.2-.24-.33s-.09-.29-.09-.48c0-.16.04-.31.13-.46.09-.15.23-.28.43-.39.2-.11.45-.21.77-.28.32-.07.71-.12,1.17-.13v-.32c0-.31-.07-.55-.2-.71-.14-.16-.33-.24-.6-.24-.18,0-.32.02-.44.07s-.22.09-.31.15-.16.1-.22.15c-.06.04-.12.07-.19.07-.05,0-.09-.01-.12-.04s-.06-.06-.09-.09l-.13-.23ZM102.01,25.58c-.33.01-.61.04-.84.08-.23.04-.42.1-.56.16s-.25.15-.32.24-.1.19-.1.3c0,.11.02.2.05.28.03.08.08.14.14.19.06.05.13.09.21.11.08.02.17.03.26.03.13,0,.24-.01.34-.04s.2-.06.29-.11.18-.11.26-.17.17-.14.25-.23v-.84Z"/>
    </g>
    <g>
      <path d="M148.51,104.81c.35,0,.66.03.91.1.25.07.46.17.63.3s.28.29.36.47c.08.18.12.39.12.63,0,.14-.02.28-.07.41-.04.13-.11.25-.2.36-.09.11-.2.21-.33.3-.13.09-.29.16-.47.22.42.08.74.23.95.45s.32.51.32.87c0,.24-.04.46-.13.66s-.22.37-.39.52c-.17.14-.38.26-.63.33-.25.08-.54.12-.86.12h-2.02v-5.73h1.83ZM147.45,105.42v1.96h1.02c.22,0,.41-.02.57-.07.16-.05.29-.11.4-.2.11-.09.18-.19.23-.31s.08-.25.08-.4c0-.34-.1-.59-.3-.74s-.52-.23-.94-.23h-1.06ZM148.69,109.93c.22,0,.41-.03.57-.08.16-.05.29-.12.39-.21s.18-.2.23-.33c.05-.13.07-.27.07-.42,0-.3-.1-.53-.32-.7-.21-.17-.53-.26-.95-.26h-1.24v2h1.24Z"/>
      <path d="M153.33,106.43c.3,0,.56.05.8.15s.44.24.61.42.3.4.39.66c.09.26.13.54.13.86s-.04.61-.13.86-.22.47-.39.66-.37.32-.61.42c-.24.1-.5.15-.8.15s-.57-.05-.81-.15c-.24-.1-.44-.24-.61-.42s-.3-.4-.39-.66c-.09-.26-.13-.54-.13-.86s.04-.6.13-.86c.09-.26.22-.48.39-.66s.37-.32.61-.42c.24-.1.51-.15.81-.15ZM153.33,110.04c.4,0,.7-.13.9-.4.2-.27.3-.64.3-1.12s-.1-.86-.3-1.13c-.2-.27-.5-.4-.9-.4-.2,0-.38.03-.53.1-.15.07-.28.17-.38.3-.1.13-.17.29-.22.48s-.07.41-.07.65c0,.48.1.85.3,1.12.2.27.5.4.91.4Z"/>
      <path d="M156.83,107.3c.13-.28.29-.49.47-.65.19-.16.41-.23.68-.23.09,0,.17,0,.25.03s.15.05.21.09l-.05.53c-.02.07-.06.1-.12.1-.04,0-.09,0-.16-.02-.07-.02-.15-.02-.24-.02-.13,0-.24.02-.34.06-.1.04-.19.09-.27.17s-.15.16-.21.27c-.06.11-.12.23-.17.37v2.56h-.72v-4.05h.41c.08,0,.13.01.16.04s.05.08.06.15l.05.62Z"/>
      <path d="M162.27,104.65v5.89h-.42c-.1,0-.17-.05-.19-.15l-.06-.49c-.17.21-.37.38-.59.5s-.48.19-.77.19c-.23,0-.44-.04-.63-.13-.19-.09-.35-.22-.48-.39-.13-.17-.24-.39-.31-.65-.07-.26-.11-.56-.11-.89,0-.3.04-.58.12-.83.08-.26.19-.48.34-.67s.33-.34.55-.45c.22-.11.46-.16.73-.16.25,0,.46.04.64.13s.34.2.47.35v-2.24h.71ZM161.55,107.45c-.13-.18-.28-.3-.43-.37s-.33-.11-.52-.11c-.38,0-.67.13-.87.4s-.3.65-.3,1.15c0,.26.02.49.07.68.05.19.11.34.2.46.09.12.2.21.32.27.13.06.27.08.44.08.23,0,.44-.05.61-.16.17-.11.33-.26.48-.45v-1.96Z"/>
      <path d="M163.29,107.06c.22-.22.47-.38.72-.48.26-.11.55-.16.86-.16.23,0,.43.04.6.11.18.08.32.18.44.31.12.13.21.29.27.48.06.19.09.4.09.62v2.59h-.32c-.07,0-.12-.01-.16-.03-.04-.02-.07-.07-.09-.13l-.08-.38c-.11.1-.21.19-.31.26-.1.08-.21.14-.32.19-.11.05-.23.09-.36.12-.13.03-.27.04-.42.04s-.31-.02-.44-.07-.26-.11-.36-.2c-.1-.09-.18-.2-.24-.33s-.09-.29-.09-.48c0-.16.04-.31.13-.46.09-.15.23-.28.43-.39.2-.11.45-.21.77-.28.32-.07.71-.12,1.17-.13v-.32c0-.31-.07-.55-.2-.71-.14-.16-.33-.24-.6-.24-.18,0-.32.02-.44.07s-.22.09-.31.15-.16.1-.22.15c-.06.04-.12.07-.19.07-.05,0-.09-.01-.12-.04s-.06-.06-.09-.09l-.13-.23ZM165.59,108.72c-.33.01-.61.04-.84.08-.23.04-.42.1-.56.16s-.25.15-.32.24-.1.19-.1.3c0,.11.02.2.05.28.03.08.08.14.14.19.06.05.13.09.21.11.08.02.17.03.26.03.13,0,.24-.01.34-.04s.2-.06.29-.11.18-.11.26-.17.17-.14.25-.23v-.84Z"/>
      <path d="M169.73,107.16c-.03.06-.08.09-.15.09-.04,0-.08-.01-.14-.04s-.11-.06-.19-.1c-.07-.04-.16-.07-.26-.1-.1-.03-.22-.05-.36-.05-.12,0-.23.02-.32.05-.1.03-.18.07-.25.13-.07.05-.12.12-.16.19-.04.07-.05.15-.05.23,0,.1.03.19.09.26.06.07.14.13.24.18s.21.09.34.13c.12.04.25.08.39.12s.26.09.39.15c.13.05.24.12.34.2.1.08.18.18.24.29.06.12.09.26.09.42,0,.19-.03.36-.1.52-.07.16-.17.3-.3.41-.13.12-.29.21-.48.27s-.41.1-.66.1c-.28,0-.54-.05-.77-.14s-.42-.21-.58-.35l.17-.27s.05-.06.08-.08.07-.03.11-.03.1.02.15.06c.05.04.12.08.19.12s.17.09.28.12.25.06.41.06c.14,0,.26-.02.36-.05.1-.04.19-.08.26-.15.07-.06.12-.13.15-.21s.05-.17.05-.26c0-.11-.03-.2-.09-.28-.06-.07-.14-.14-.24-.19s-.21-.1-.34-.14c-.13-.04-.26-.08-.39-.12s-.26-.09-.39-.15c-.13-.05-.24-.12-.34-.21-.1-.08-.18-.18-.24-.31-.06-.12-.09-.27-.09-.44,0-.15.03-.3.1-.45.06-.14.16-.27.28-.38.12-.11.27-.19.45-.26.18-.06.38-.1.61-.1.27,0,.51.04.72.13.21.08.39.2.55.35l-.16.26Z"/>
    </g>
    <g>
      <path d="M34.26,53.79c0,.43-.07.82-.2,1.17-.14.35-.33.65-.58.9s-.55.44-.89.58c-.35.14-.73.21-1.15.21h-2.14v-5.73h2.14c.42,0,.81.07,1.15.21.35.14.65.33.89.58s.44.55.58.91c.14.35.2.74.2,1.17ZM33.46,53.79c0-.35-.05-.67-.14-.94-.1-.28-.23-.51-.41-.7-.18-.19-.39-.34-.64-.44-.25-.1-.53-.15-.84-.15h-1.36v4.48h1.36c.31,0,.59-.05.84-.15.25-.1.46-.25.64-.44.18-.19.31-.42.41-.7.1-.28.14-.59.14-.94Z"/>
      <path d="M36.86,52.54c.3,0,.56.05.8.15s.44.24.61.42.3.4.39.66c.09.26.13.54.13.86s-.04.61-.13.86-.22.47-.39.66-.37.32-.61.42c-.24.1-.5.15-.8.15s-.57-.05-.81-.15c-.24-.1-.44-.24-.61-.42s-.3-.4-.39-.66c-.09-.26-.13-.54-.13-.86s.04-.6.13-.86c.09-.26.22-.48.39-.66s.37-.32.61-.42c.24-.1.51-.15.81-.15ZM36.86,56.16c.4,0,.7-.13.9-.4.2-.27.3-.64.3-1.12s-.1-.86-.3-1.13c-.2-.27-.5-.4-.9-.4-.2,0-.38.03-.53.1-.15.07-.28.17-.38.3-.1.13-.17.29-.22.48s-.07.41-.07.65c0,.48.1.85.3,1.12.2.27.5.4.91.4Z"/>
      <path d="M40.36,53.42c.13-.28.29-.49.47-.65.19-.16.41-.23.68-.23.09,0,.17,0,.25.03.08.02.15.05.21.09l-.05.53c-.02.07-.06.1-.12.1-.04,0-.09,0-.16-.02-.07-.02-.15-.02-.24-.02-.13,0-.24.02-.34.06-.1.04-.19.09-.27.17s-.15.16-.21.27c-.06.11-.12.23-.17.37v2.56h-.72v-4.05h.41c.08,0,.13.01.16.04s.05.08.06.15l.05.62Z"/>
    </g>
    <g>
      <path d="M137.26,41.73c.36,0,.68.04.95.13s.49.2.67.36c.18.15.31.34.39.56.09.22.13.46.13.73s-.05.51-.14.73c-.09.22-.23.41-.41.57-.18.16-.4.29-.67.37-.27.09-.57.13-.92.13h-.92v2.14h-.77v-5.73h1.69ZM137.26,44.71c.22,0,.42-.03.59-.09.17-.06.31-.14.43-.25s.2-.23.26-.38c.06-.15.09-.31.09-.48,0-.37-.11-.65-.34-.86-.23-.21-.57-.31-1.03-.31h-.92v2.36h.92Z"/>
      <path d="M143.28,46.9c-.09.11-.19.2-.32.28-.12.08-.25.14-.39.19s-.28.09-.43.11c-.15.03-.3.04-.44.04-.28,0-.54-.05-.77-.14-.24-.09-.44-.23-.61-.42s-.31-.41-.4-.68c-.1-.27-.14-.58-.14-.93,0-.28.04-.55.13-.79.09-.25.21-.46.37-.64s.36-.32.6-.42c.23-.1.5-.15.79-.15.24,0,.47.04.67.12s.39.2.54.35c.15.15.27.34.35.57.09.23.13.48.13.77,0,.11-.01.19-.04.22s-.07.06-.14.06h-2.71c0,.26.04.48.11.67.06.19.15.35.26.47.11.13.25.22.4.28.15.06.33.09.52.09.18,0,.33-.02.46-.06.13-.04.24-.09.33-.13s.17-.09.23-.13.12-.06.16-.06c.06,0,.1.02.14.07l.2.26ZM142.7,45c0-.17-.02-.32-.07-.45-.05-.14-.11-.26-.2-.36-.09-.1-.2-.18-.33-.23-.13-.05-.27-.08-.44-.08-.34,0-.61.1-.81.3-.2.2-.32.47-.37.83h2.22Z"/>
      <path d="M144.95,41.57v5.89h-.71v-5.89h.71Z"/>
      <path d="M149.39,46.9c-.09.11-.19.2-.32.28-.12.08-.25.14-.39.19s-.28.09-.43.11c-.15.03-.3.04-.44.04-.28,0-.54-.05-.77-.14-.24-.09-.44-.23-.61-.42s-.31-.41-.4-.68c-.1-.27-.14-.58-.14-.93,0-.28.04-.55.13-.79.09-.25.21-.46.37-.64s.36-.32.6-.42c.23-.1.5-.15.79-.15.24,0,.47.04.67.12s.39.2.54.35c.15.15.27.34.35.57.09.23.13.48.13.77,0,.11-.01.19-.04.22s-.07.06-.14.06h-2.71c0,.26.04.48.11.67.06.19.15.35.26.47.11.13.25.22.4.28.15.06.33.09.52.09.18,0,.33-.02.46-.06.13-.04.24-.09.33-.13s.17-.09.23-.13.12-.06.16-.06c.06,0,.1.02.14.07l.2.26ZM148.82,45c0-.17-.02-.32-.07-.45-.05-.14-.11-.26-.2-.36-.09-.1-.2-.18-.33-.23-.13-.05-.27-.08-.44-.08-.34,0-.61.1-.81.3-.2.2-.32.47-.37.83h2.22Z"/>
      <path d="M125.86,52.99c.22-.22.47-.38.72-.48.26-.11.55-.16.86-.16.23,0,.43.04.6.11.18.07.32.18.44.31.12.13.21.29.27.48.06.19.09.4.09.62v2.59h-.32c-.07,0-.12-.01-.16-.03-.04-.02-.07-.07-.09-.13l-.08-.38c-.11.1-.21.19-.31.26-.1.08-.21.14-.32.19-.11.05-.23.09-.36.12-.13.03-.27.04-.42.04s-.31-.02-.44-.07-.26-.11-.36-.2c-.1-.09-.18-.2-.24-.33s-.09-.29-.09-.48c0-.16.04-.31.13-.46.09-.15.23-.28.43-.39.2-.11.45-.21.77-.28.32-.07.71-.12,1.17-.13v-.32c0-.31-.07-.55-.2-.71-.14-.16-.33-.24-.6-.24-.18,0-.32.02-.44.07s-.22.09-.31.15-.16.1-.22.15c-.06.04-.12.07-.19.07-.05,0-.09-.01-.12-.04s-.06-.06-.09-.09l-.13-.23ZM128.16,54.64c-.33.01-.61.04-.84.08-.23.04-.42.1-.56.16s-.25.15-.32.24-.1.19-.1.3c0,.11.02.2.05.28.03.08.08.14.14.19.06.05.13.09.21.11.08.02.17.03.26.03.13,0,.24-.01.34-.04s.2-.06.29-.11.18-.11.26-.17.17-.14.25-.23v-.84Z"/>
      <path d="M133.29,50.57v5.89h-.42c-.1,0-.17-.05-.19-.15l-.06-.49c-.17.21-.37.38-.59.5s-.48.19-.77.19c-.23,0-.44-.04-.63-.13-.19-.09-.35-.22-.48-.39-.13-.17-.24-.39-.31-.65-.07-.26-.11-.56-.11-.89,0-.3.04-.58.12-.83.08-.26.19-.48.34-.67s.33-.34.55-.45.46-.16.73-.16c.25,0,.46.04.64.13s.34.2.47.35v-2.24h.71ZM132.58,53.38c-.13-.18-.28-.3-.43-.37s-.33-.11-.52-.11c-.38,0-.67.13-.87.4s-.3.65-.3,1.15c0,.26.02.49.07.68.05.19.11.34.2.46.09.12.2.21.32.27.13.06.27.08.44.08.23,0,.44-.05.61-.16.17-.11.33-.26.48-.45v-1.96Z"/>
      <path d="M135.17,52.41v4.35c0,.16-.02.31-.06.45s-.11.26-.2.37c-.09.1-.21.19-.36.25-.15.06-.32.09-.52.09-.09,0-.16,0-.24-.02-.07-.01-.14-.03-.22-.06l.03-.38s.01-.04.03-.05c.01-.01.03-.02.05-.02.02,0,.05,0,.08,0,.03,0,.08,0,.13,0,.21,0,.36-.05.44-.15.09-.1.13-.25.13-.47v-4.35h.71ZM135.32,51.14c0,.07-.01.13-.04.19-.03.06-.07.11-.11.16-.05.05-.1.08-.16.11-.06.03-.13.04-.2.04s-.13-.01-.19-.04c-.06-.03-.11-.06-.16-.11s-.08-.1-.11-.16c-.03-.06-.04-.12-.04-.19s.01-.13.04-.2c.03-.06.06-.12.11-.16.05-.05.1-.08.16-.11.06-.03.12-.04.19-.04s.13.01.2.04.12.06.16.11c.05.05.08.1.11.16.03.06.04.13.04.2Z"/>
      <path d="M136.23,52.99c.22-.22.47-.38.72-.48.26-.11.55-.16.86-.16.23,0,.43.04.6.11.18.07.32.18.44.31.12.13.21.29.27.48.06.19.09.4.09.62v2.59h-.32c-.07,0-.12-.01-.16-.03-.04-.02-.07-.07-.09-.13l-.08-.38c-.11.1-.21.19-.31.26-.1.08-.21.14-.32.19-.11.05-.23.09-.36.12-.13.03-.27.04-.42.04s-.31-.02-.44-.07-.26-.11-.36-.2c-.1-.09-.18-.2-.24-.33s-.09-.29-.09-.48c0-.16.04-.31.13-.46.09-.15.23-.28.43-.39.2-.11.45-.21.77-.28.32-.07.71-.12,1.17-.13v-.32c0-.31-.07-.55-.2-.71-.14-.16-.33-.24-.6-.24-.18,0-.32.02-.44.07s-.22.09-.31.15-.16.1-.22.15c-.06.04-.12.07-.19.07-.05,0-.09-.01-.12-.04s-.06-.06-.09-.09l-.13-.23ZM138.53,54.64c-.33.01-.61.04-.84.08-.23.04-.42.1-.56.16s-.25.15-.32.24-.1.19-.1.3c0,.11.02.2.05.28.03.08.08.14.14.19.06.05.13.09.21.11.08.02.17.03.26.03.13,0,.24-.01.34-.04s.2-.06.29-.11.18-.11.26-.17.17-.14.25-.23v-.84Z"/>
      <path d="M143.13,53.13s-.04.05-.06.07c-.02.02-.05.02-.09.02-.04,0-.08-.02-.13-.05-.05-.03-.11-.07-.18-.11s-.16-.08-.26-.11c-.1-.03-.23-.05-.38-.05-.2,0-.38.04-.53.11-.15.07-.28.17-.38.31-.1.13-.18.29-.23.48-.05.19-.08.4-.08.64,0,.25.03.46.08.65s.14.35.24.48c.1.13.23.23.37.3.15.07.31.1.49.1s.32-.02.43-.06c.11-.04.21-.09.28-.14s.13-.1.18-.14.1-.06.15-.06c.06,0,.1.02.14.07l.2.26c-.09.11-.19.2-.3.28-.11.08-.23.14-.36.19-.13.05-.26.09-.41.11-.14.02-.29.04-.43.04-.25,0-.49-.05-.71-.14s-.41-.23-.57-.41c-.16-.18-.29-.4-.38-.65-.09-.26-.14-.55-.14-.88,0-.3.04-.58.13-.84s.21-.48.37-.66c.16-.18.36-.33.6-.43.24-.1.51-.16.81-.16.29,0,.54.05.75.14.22.09.41.22.58.39l-.19.26Z"/>
      <path d="M147.35,55.9c-.09.11-.19.2-.32.28-.12.08-.25.14-.39.19s-.28.09-.43.11c-.15.03-.3.04-.44.04-.28,0-.54-.05-.77-.14-.24-.09-.44-.23-.61-.42s-.31-.41-.4-.68c-.1-.27-.14-.58-.14-.93,0-.28.04-.55.13-.79.09-.25.21-.46.37-.64s.36-.32.6-.42c.23-.1.5-.15.79-.15.24,0,.47.04.67.12s.39.2.54.35c.15.15.27.34.35.57.09.23.13.48.13.77,0,.11-.01.19-.04.22s-.07.06-.14.06h-2.71c0,.26.04.48.11.67.06.19.15.35.26.47.11.13.25.22.4.28.15.06.33.09.52.09.18,0,.33-.02.46-.06.13-.04.24-.09.33-.13s.17-.09.23-.13.12-.06.16-.06c.06,0,.1.02.14.07l.2.26ZM146.77,54c0-.17-.02-.32-.07-.45-.05-.14-.11-.26-.2-.36-.09-.1-.2-.18-.33-.23-.13-.05-.27-.08-.44-.08-.34,0-.61.1-.81.3-.2.2-.32.47-.37.83h2.22Z"/>
      <path d="M148.96,53c.09-.1.18-.19.28-.27.1-.08.2-.15.31-.21.11-.06.23-.1.35-.13.12-.03.26-.05.4-.05.22,0,.42.04.59.11s.31.18.42.31c.11.13.2.3.26.49s.09.4.09.63v2.58h-.72v-2.58c0-.31-.07-.54-.21-.71-.14-.17-.35-.25-.64-.25-.21,0-.41.05-.59.15-.18.1-.35.24-.51.41v2.98h-.72v-4.05h.43c.1,0,.16.05.19.15l.06.44Z"/>
      <path d="M153.94,56.53c-.32,0-.57-.09-.74-.27-.17-.18-.26-.44-.26-.77v-2.48h-.49s-.08-.01-.11-.04-.04-.06-.04-.12v-.28l.66-.08.16-1.25s.03-.07.05-.1c.03-.03.06-.04.11-.04h.36v1.4h1.17v.52h-1.17v2.43c0,.17.04.3.12.38.08.08.19.12.32.12.07,0,.14-.01.19-.03.05-.02.1-.04.14-.07.04-.02.07-.05.1-.07.03-.02.05-.03.07-.03.04,0,.07.02.1.07l.21.34c-.12.11-.27.2-.44.27-.17.07-.35.1-.54.1Z"/>
      <path d="M158.83,55.9c-.09.11-.19.2-.32.28-.12.08-.25.14-.39.19s-.28.09-.43.11c-.15.03-.3.04-.44.04-.28,0-.54-.05-.77-.14-.24-.09-.44-.23-.61-.42s-.31-.41-.4-.68c-.1-.27-.14-.58-.14-.93,0-.28.04-.55.13-.79.09-.25.21-.46.37-.64s.36-.32.6-.42c.23-.1.5-.15.79-.15.24,0,.47.04.67.12s.39.2.54.35c.15.15.27.34.35.57.09.23.13.48.13.77,0,.11-.01.19-.04.22s-.07.06-.14.06h-2.71c0,.26.04.48.11.67.06.19.15.35.26.47.11.13.25.22.4.28.15.06.33.09.52.09.18,0,.33-.02.46-.06.13-.04.24-.09.33-.13s.17-.09.23-.13.12-.06.16-.06c.06,0,.1.02.14.07l.2.26ZM158.25,54c0-.17-.02-.32-.07-.45-.05-.14-.11-.26-.2-.36-.09-.1-.2-.18-.33-.23-.13-.05-.27-.08-.44-.08-.34,0-.61.1-.81.3-.2.2-.32.47-.37.83h2.22Z"/>
    </g>
    <g>
      <path d="M11.57,104.13s-.05.07-.08.09c-.03.02-.06.03-.1.03-.05,0-.1-.02-.16-.07-.06-.04-.14-.1-.23-.15-.09-.05-.2-.1-.33-.15-.13-.05-.29-.07-.47-.07-.17,0-.33.02-.46.07s-.24.11-.33.19-.16.17-.2.28c-.05.11-.07.22-.07.35,0,.16.04.29.12.4s.18.2.31.27c.13.07.28.14.44.19.16.05.33.11.5.17.17.06.34.12.5.2s.31.17.44.28.23.25.31.41c.08.16.12.36.12.6,0,.25-.04.49-.13.71s-.21.41-.37.57-.37.29-.6.38c-.24.09-.51.14-.81.14-.37,0-.71-.07-1.02-.2-.3-.13-.56-.32-.78-.55l.22-.37s.05-.05.08-.07c.03-.02.06-.03.1-.03.03,0,.07.01.12.04.04.03.09.06.15.11s.12.09.19.14c.07.05.15.1.25.14.09.04.2.08.31.11s.25.04.4.04c.18,0,.35-.03.49-.08s.27-.12.37-.21.18-.2.23-.33.08-.27.08-.43c0-.17-.04-.32-.12-.43-.08-.11-.18-.2-.31-.28-.13-.07-.27-.14-.44-.19-.17-.05-.33-.1-.5-.16-.17-.05-.34-.12-.5-.19s-.31-.17-.44-.28c-.13-.11-.23-.26-.31-.43s-.12-.38-.12-.64c0-.2.04-.4.12-.59.08-.19.19-.36.34-.5.15-.15.34-.26.56-.35.22-.09.47-.13.76-.13.32,0,.61.05.87.15.26.1.49.25.69.44l-.19.37Z"/>
      <path d="M13.68,103.64c0,.07-.01.13-.04.19-.03.06-.06.11-.11.16-.05.05-.1.08-.16.11s-.13.04-.2.04-.13-.01-.19-.04c-.06-.03-.11-.06-.16-.11-.05-.05-.08-.1-.11-.16-.03-.06-.04-.12-.04-.19s.01-.14.04-.2c.03-.06.06-.12.11-.16.05-.05.1-.08.16-.11.06-.03.12-.04.19-.04s.14.01.2.04c.06.03.12.06.16.11.05.05.08.1.11.16.03.06.04.13.04.2ZM13.52,104.91v4.05h-.71v-4.05h.71Z"/>
      <path d="M15.36,105.5c.09-.1.18-.19.28-.27.1-.08.2-.15.31-.21.11-.06.23-.1.35-.13s.26-.05.4-.05c.22,0,.42.04.59.11s.31.18.42.31c.11.13.2.3.26.49s.09.4.09.63v2.58h-.72v-2.58c0-.31-.07-.54-.21-.71-.14-.17-.35-.25-.64-.25-.21,0-.41.05-.59.15-.18.1-.35.24-.51.41v2.98h-.72v-4.05h.43c.1,0,.16.05.19.15l.06.44Z"/>
      <path d="M19.05,105.48c.22-.22.47-.38.72-.48.26-.11.55-.16.86-.16.23,0,.43.04.6.11.18.08.32.18.44.31.12.13.21.29.27.48.06.19.09.4.09.62v2.59h-.32c-.07,0-.12-.01-.16-.03-.04-.02-.07-.07-.09-.13l-.08-.38c-.11.1-.21.19-.31.26-.1.08-.21.14-.32.19-.11.05-.23.09-.36.12-.13.03-.27.04-.42.04s-.31-.02-.44-.07-.26-.11-.36-.2c-.1-.09-.18-.2-.24-.33s-.09-.29-.09-.48c0-.16.04-.31.13-.46.09-.15.23-.28.43-.39.2-.11.45-.21.77-.28.32-.07.71-.12,1.17-.13v-.32c0-.31-.07-.55-.2-.71-.14-.16-.33-.24-.6-.24-.18,0-.32.02-.44.07s-.22.09-.31.15-.16.1-.22.15c-.06.04-.12.07-.19.07-.05,0-.09-.01-.12-.04s-.06-.06-.09-.09l-.13-.23ZM21.35,107.14c-.33.01-.61.04-.84.08-.23.04-.42.1-.56.16s-.25.15-.32.24-.1.19-.1.3c0,.11.02.2.05.28.03.08.08.14.14.19.06.05.13.09.21.11.08.02.17.03.26.03.13,0,.24-.01.34-.04s.2-.06.29-.11.18-.11.26-.17.17-.14.25-.23v-.84Z"/>
      <path d="M24.04,103.64c0,.07-.01.13-.04.19-.03.06-.06.11-.11.16-.05.05-.1.08-.16.11s-.13.04-.2.04-.13-.01-.19-.04c-.06-.03-.11-.06-.16-.11-.05-.05-.08-.1-.11-.16-.03-.06-.04-.12-.04-.19s.01-.14.04-.2c.03-.06.06-.12.11-.16.05-.05.1-.08.16-.11.06-.03.12-.04.19-.04s.14.01.2.04c.06.03.12.06.16.11.05.05.08.1.11.16.03.06.04.13.04.2ZM23.88,104.91v4.05h-.71v-4.05h.71Z"/>
      <path d="M27.41,105.58c-.03.06-.08.09-.15.09-.04,0-.09-.01-.14-.04-.05-.03-.11-.06-.19-.1-.07-.04-.16-.07-.26-.1-.1-.03-.22-.05-.36-.05-.12,0-.23.02-.32.05-.1.03-.18.07-.25.13-.07.05-.12.12-.16.19-.04.07-.05.15-.05.23,0,.1.03.19.09.26s.14.13.24.18.21.09.34.13c.13.04.25.08.39.12s.26.09.39.15c.13.05.24.12.34.2.1.08.18.18.24.29s.09.26.09.42c0,.19-.03.36-.1.52-.07.16-.17.3-.3.41-.13.12-.29.21-.48.27s-.41.1-.66.1c-.28,0-.54-.05-.77-.14s-.42-.21-.58-.35l.17-.27s.05-.06.08-.08c.03-.02.07-.03.11-.03.05,0,.1.02.15.06s.12.08.19.12c.08.04.17.09.28.12s.25.06.41.06c.14,0,.26-.02.36-.05s.19-.08.26-.15c.07-.06.12-.13.15-.21.03-.08.05-.17.05-.26,0-.11-.03-.2-.09-.28-.06-.07-.14-.14-.24-.19s-.21-.1-.34-.14c-.13-.04-.26-.08-.39-.12-.13-.04-.26-.09-.39-.15s-.24-.12-.34-.21c-.1-.08-.18-.18-.24-.31s-.09-.27-.09-.44c0-.15.03-.3.1-.45s.16-.27.28-.38c.12-.11.27-.19.45-.26.18-.06.38-.1.61-.1.27,0,.51.04.72.13.21.08.4.2.55.35l-.16.26Z"/>
      <path d="M33.92,103.07v5.89h-.42c-.1,0-.17-.05-.19-.15l-.06-.49c-.17.21-.37.38-.59.5s-.48.19-.77.19c-.23,0-.44-.04-.63-.13-.19-.09-.35-.22-.48-.39-.13-.17-.24-.39-.31-.65-.07-.26-.11-.56-.11-.89,0-.3.04-.58.12-.83.08-.26.19-.48.34-.67s.33-.34.55-.45.46-.16.73-.16c.25,0,.46.04.64.13s.34.2.47.35v-2.24h.71ZM33.2,105.88c-.13-.18-.28-.3-.43-.37s-.33-.11-.52-.11c-.38,0-.67.13-.87.4s-.3.65-.3,1.15c0,.26.02.49.07.68.05.19.11.34.2.46.09.12.2.21.32.27.13.06.27.08.44.08.23,0,.44-.05.61-.16.17-.11.33-.26.48-.45v-1.96Z"/>
      <path d="M38.33,108.4c-.09.11-.19.2-.32.28-.12.08-.25.14-.39.19s-.28.09-.43.11c-.15.03-.3.04-.44.04-.28,0-.54-.05-.77-.14-.24-.09-.44-.23-.61-.42s-.31-.41-.4-.68c-.1-.27-.14-.58-.14-.93,0-.28.04-.55.13-.79.09-.25.21-.46.37-.64s.36-.32.6-.42c.23-.1.5-.15.79-.15.24,0,.47.04.67.12s.39.2.54.35c.15.15.27.34.35.57.09.23.13.48.13.77,0,.11-.01.19-.04.22s-.07.06-.14.06h-2.71c0,.26.04.48.11.67.06.19.15.35.26.47.11.13.25.22.4.28.15.06.33.09.52.09.18,0,.33-.02.46-.06.13-.04.24-.09.33-.13s.17-.09.23-.13.12-.06.16-.06c.06,0,.1.02.14.07l.2.26ZM37.76,106.5c0-.17-.02-.32-.07-.45-.05-.14-.11-.26-.2-.36-.09-.1-.2-.18-.33-.23-.13-.05-.27-.08-.44-.08-.34,0-.61.1-.81.3-.2.2-.32.47-.37.83h2.22Z"/>
      <path d="M10.03,117.97h-.78v-5.73h.78v5.73Z"/>
      <path d="M11.94,114.5c.09-.1.18-.19.28-.27.1-.08.2-.15.31-.21.11-.06.23-.1.35-.13.12-.03.26-.05.4-.05.22,0,.42.04.59.11s.31.18.42.31c.11.13.2.3.26.49s.09.4.09.63v2.58h-.72v-2.58c0-.31-.07-.54-.21-.71-.14-.17-.35-.25-.64-.25-.21,0-.41.05-.59.15-.18.1-.35.24-.51.41v2.98h-.72v-4.05h.43c.1,0,.16.05.19.15l.06.44Z"/>
      <path d="M15.93,117.97v-3.44l-.45-.05c-.06-.01-.1-.03-.14-.06-.04-.03-.05-.07-.05-.12v-.29h.64v-.39c0-.23.03-.44.1-.62.07-.18.16-.33.28-.46.12-.12.27-.22.44-.28.17-.06.36-.1.58-.1.18,0,.35.03.5.08l-.02.36c0,.06-.04.1-.11.1-.07,0-.15,0-.26,0-.12,0-.23.02-.33.05-.1.03-.19.08-.26.16-.07.07-.13.17-.17.28s-.06.26-.06.44v.37h1.17v.52h-1.14v3.46h-.72Z"/>
      <path d="M21.63,117.4c-.09.11-.19.2-.32.28-.12.08-.25.14-.39.19s-.28.09-.43.11c-.15.03-.3.04-.44.04-.28,0-.54-.05-.77-.14-.24-.09-.44-.23-.61-.42s-.31-.41-.4-.68c-.1-.27-.14-.58-.14-.93,0-.28.04-.55.13-.79.09-.25.21-.46.37-.64s.36-.32.6-.42c.23-.1.5-.15.79-.15.24,0,.47.04.67.12s.39.2.54.35c.15.15.27.34.35.57.09.23.13.48.13.77,0,.11-.01.19-.04.22s-.07.06-.14.06h-2.71c0,.26.04.48.11.67.06.19.15.35.26.47.11.13.25.22.4.28.15.06.33.09.52.09.18,0,.33-.02.46-.06.13-.04.24-.09.33-.13s.17-.09.23-.13.12-.06.16-.06c.06,0,.1.02.14.07l.2.26ZM21.05,115.5c0-.17-.02-.32-.07-.45-.05-.14-.11-.26-.2-.36-.09-.1-.2-.18-.33-.23-.13-.05-.27-.08-.44-.08-.34,0-.61.1-.81.3-.2.2-.32.47-.37.83h2.22Z"/>
      <path d="M25.38,114.63s-.04.05-.06.07c-.02.02-.05.02-.09.02-.04,0-.08-.02-.13-.05-.05-.03-.11-.07-.18-.11s-.16-.08-.26-.11c-.1-.03-.23-.05-.38-.05-.2,0-.38.04-.53.11-.15.07-.28.17-.38.31-.1.13-.18.29-.23.48-.05.19-.08.4-.08.64,0,.25.03.46.08.65s.14.35.24.48c.1.13.23.23.37.3.15.07.31.1.49.1s.32-.02.43-.06c.11-.04.21-.09.28-.14s.13-.1.18-.14.1-.06.15-.06c.06,0,.1.02.14.07l.2.26c-.09.11-.19.2-.3.28-.11.08-.23.14-.36.19-.13.05-.26.09-.41.11-.14.02-.29.04-.43.04-.25,0-.49-.05-.71-.14s-.41-.23-.57-.41c-.16-.18-.29-.4-.38-.65-.09-.26-.14-.55-.14-.88,0-.3.04-.58.13-.84s.21-.48.37-.66c.16-.18.36-.33.6-.43.24-.1.51-.16.81-.16.29,0,.54.05.75.14.22.09.41.22.58.39l-.19.26Z"/>
      <path d="M29.37,117.4c-.15.19-.34.33-.56.43s-.46.16-.71.18l-.07.26c.25.05.43.12.54.22.11.09.16.21.16.36,0,.08-.02.16-.06.23s-.1.13-.18.18c-.08.05-.17.08-.27.11-.1.03-.22.04-.35.04-.11,0-.21-.01-.31-.03-.1-.02-.19-.05-.27-.09l.06-.22s.05-.07.09-.07c.02,0,.03,0,.06.01.02,0,.05.02.08.03.03.01.07.02.11.03.04,0,.09.01.15.01.11,0,.2-.02.25-.07.06-.05.08-.1.08-.17,0-.1-.06-.17-.17-.21-.11-.04-.27-.08-.47-.1l.16-.5c-.23-.02-.45-.08-.64-.19-.2-.1-.37-.24-.51-.42-.14-.18-.25-.39-.33-.64-.08-.25-.12-.52-.12-.83s.04-.58.13-.84.21-.48.37-.66c.16-.18.36-.33.6-.43.24-.1.51-.16.81-.16.29,0,.54.05.75.14.22.09.41.22.58.39l-.19.26s-.04.05-.06.07c-.02.02-.05.02-.09.02-.04,0-.08-.02-.13-.05-.05-.03-.11-.07-.18-.11s-.16-.08-.26-.11c-.1-.03-.23-.05-.38-.05-.2,0-.38.04-.53.11-.15.07-.28.17-.38.31-.1.13-.18.29-.23.48-.05.19-.08.4-.08.64,0,.25.03.46.08.65s.14.35.24.48c.1.13.23.23.37.3.15.07.31.1.49.1s.32-.02.43-.06c.11-.04.21-.09.28-.14s.13-.1.18-.14.1-.06.15-.06c.06,0,.1.02.14.07l.2.26Z"/>
      <path d="M30.03,114.48c.22-.22.47-.38.72-.48.26-.11.55-.16.86-.16.23,0,.43.04.6.11.18.07.32.18.44.31.12.13.21.29.27.48.06.19.09.4.09.62v2.59h-.32c-.07,0-.12-.01-.16-.03-.04-.02-.07-.07-.09-.13l-.08-.38c-.11.1-.21.19-.31.26-.1.08-.21.14-.32.19-.11.05-.23.09-.36.12-.13.03-.27.04-.42.04s-.31-.02-.44-.07-.26-.11-.36-.2c-.1-.09-.18-.2-.24-.33s-.09-.29-.09-.48c0-.16.04-.31.13-.46.09-.15.23-.28.43-.39.2-.11.45-.21.77-.28.32-.07.71-.12,1.17-.13v-.32c0-.31-.07-.55-.2-.71-.14-.16-.33-.24-.6-.24-.18,0-.32.02-.44.07s-.22.09-.31.15-.16.1-.22.15c-.06.04-.12.07-.19.07-.05,0-.09-.01-.12-.04s-.06-.06-.09-.09l-.13-.23ZM31.97,112.67c.1,0,.17-.03.22-.08.05-.06.08-.14.08-.26h.43c0,.12-.02.24-.05.35s-.08.2-.14.27c-.06.08-.14.13-.22.17-.09.04-.18.06-.29.06-.09,0-.18-.02-.26-.06-.08-.04-.16-.08-.23-.13-.07-.05-.14-.09-.2-.13-.06-.04-.13-.06-.19-.06-.19,0-.29.12-.3.35h-.44c0-.13.02-.25.05-.35s.08-.2.15-.27.14-.13.23-.18c.09-.04.18-.06.29-.06.09,0,.18.02.26.06.08.04.16.08.23.13.07.05.14.09.2.13.06.04.12.06.19.06ZM32.33,116.14c-.33.01-.61.04-.84.08-.23.04-.42.1-.56.16s-.25.15-.32.24-.1.19-.1.3c0,.11.02.2.05.28.03.08.08.14.14.19.06.05.13.09.21.11.08.02.17.03.26.03.13,0,.24-.01.34-.04s.2-.06.29-.11.18-.11.26-.17.17-.14.25-.23v-.84Z"/>
      <path d="M35.82,113.85c.3,0,.56.05.8.15s.44.24.61.42.3.4.39.66c.09.26.13.54.13.86s-.04.61-.13.86-.22.47-.39.66-.37.32-.61.42c-.24.1-.5.15-.8.15s-.57-.05-.81-.15c-.24-.1-.44-.24-.61-.42s-.3-.4-.39-.66c-.09-.26-.13-.54-.13-.86s.04-.6.13-.86c.09-.26.22-.48.39-.66s.37-.32.61-.42c.24-.1.51-.15.81-.15ZM35.82,117.47c.4,0,.7-.13.9-.4.2-.27.3-.64.3-1.12s-.1-.86-.3-1.13c-.2-.27-.5-.4-.9-.4-.2,0-.38.03-.53.1-.15.07-.28.17-.38.3-.1.13-.17.29-.22.48s-.07.41-.07.65c0,.48.1.85.3,1.12.2.27.5.4.91.4Z"/>
    </g>
    <g>
      <path d="M110.01,157.22v.63h-3.54v-5.73h3.53v.63h-2.76v1.9h2.23v.61h-2.23v1.96h2.76Z"/>
      <path d="M114.26,157.85h-.68c-.06,0-.1-.02-.14-.05-.03-.03-.06-.06-.08-.1l-1.02-1.59s-.02.07-.03.11c-.01.04-.03.07-.05.1l-.94,1.38s-.06.07-.09.1-.07.05-.13.05h-.64l1.42-2.08-1.36-1.97h.68c.06,0,.1,0,.13.03s.05.04.07.08l1,1.52c.02-.08.05-.15.1-.22l.87-1.28s.05-.07.08-.09c.03-.02.06-.03.1-.03h.66l-1.36,1.94,1.42,2.12Z"/>
      <path d="M117.27,154.47c-.03.06-.08.09-.15.09-.04,0-.09-.01-.14-.04-.05-.03-.11-.06-.19-.1-.07-.04-.16-.07-.26-.1-.1-.03-.22-.05-.36-.05-.12,0-.23.02-.32.05-.1.03-.18.07-.25.13-.07.05-.12.12-.16.19-.04.07-.05.15-.05.23,0,.1.03.19.09.26s.14.13.24.18.21.09.34.13c.13.04.25.08.39.12s.26.09.39.15c.13.05.24.12.34.2.1.08.18.18.24.29s.09.26.09.42c0,.19-.03.36-.1.52-.07.16-.17.3-.3.41-.13.12-.29.21-.48.27s-.41.1-.66.1c-.28,0-.54-.05-.77-.14s-.42-.21-.58-.35l.17-.27s.05-.06.08-.08c.03-.02.07-.03.11-.03.05,0,.1.02.15.06s.12.08.19.12c.08.04.17.09.28.12s.25.06.41.06c.14,0,.26-.02.36-.05s.19-.08.26-.15c.07-.06.12-.13.15-.21.03-.08.05-.17.05-.26,0-.11-.03-.2-.09-.28-.06-.07-.14-.14-.24-.19s-.21-.1-.34-.14c-.13-.04-.26-.08-.39-.12-.13-.04-.26-.09-.39-.15s-.24-.12-.34-.21c-.1-.08-.18-.18-.24-.31s-.09-.27-.09-.44c0-.15.03-.3.1-.45s.16-.27.28-.38c.12-.11.27-.19.45-.26.18-.06.38-.1.61-.1.27,0,.51.04.72.13.21.08.4.2.55.35l-.16.26Z"/>
      <path d="M121.71,153.8v4.05h-.42c-.1,0-.17-.05-.19-.15l-.06-.44c-.18.19-.37.35-.59.47-.22.12-.47.18-.75.18-.22,0-.42-.04-.59-.11s-.31-.18-.43-.31c-.11-.13-.2-.29-.26-.48-.06-.19-.09-.4-.09-.63v-2.58h.71v2.58c0,.31.07.54.21.71.14.17.35.25.64.25.21,0,.41-.05.59-.15.18-.1.35-.24.51-.41v-2.98h.71Z"/>
      <path d="M126.19,151.96v5.89h-.42c-.1,0-.17-.05-.19-.15l-.06-.49c-.17.21-.37.38-.59.5s-.48.19-.77.19c-.23,0-.44-.04-.63-.13-.19-.09-.35-.22-.48-.39-.13-.17-.24-.39-.31-.65-.07-.26-.11-.56-.11-.89,0-.3.04-.58.12-.83.08-.26.19-.48.34-.67s.33-.34.55-.45c.22-.11.46-.16.73-.16.25,0,.46.04.64.13s.34.2.47.35v-2.24h.71ZM125.48,154.77c-.13-.18-.28-.3-.43-.37s-.33-.11-.52-.11c-.38,0-.67.13-.87.4s-.3.65-.3,1.15c0,.26.02.49.07.68.05.19.11.34.2.46.09.12.2.21.32.27.13.06.27.08.44.08.23,0,.44-.05.61-.16.17-.11.33-.26.48-.45v-1.96Z"/>
      <path d="M127.21,154.37c.22-.22.47-.38.72-.48.26-.11.55-.16.86-.16.23,0,.43.04.6.11.18.08.32.18.44.31.12.13.21.29.27.48.06.19.09.4.09.62v2.59h-.32c-.07,0-.12-.01-.16-.03-.04-.02-.07-.07-.09-.13l-.08-.38c-.11.1-.21.19-.31.26-.1.08-.21.14-.32.19-.11.05-.23.09-.36.12-.13.03-.27.04-.42.04s-.31-.02-.44-.07-.26-.11-.36-.2c-.1-.09-.18-.2-.24-.33s-.09-.29-.09-.48c0-.16.04-.31.13-.46.09-.15.23-.28.43-.39.2-.11.45-.21.77-.28.32-.07.71-.12,1.17-.13v-.32c0-.31-.07-.55-.2-.71-.14-.16-.33-.24-.6-.24-.18,0-.32.02-.44.07s-.22.09-.31.15-.16.1-.22.15c-.06.04-.12.07-.19.07-.05,0-.09-.01-.12-.04s-.06-.06-.09-.09l-.13-.23ZM129.51,156.03c-.33.01-.61.04-.84.08-.23.04-.42.1-.56.16s-.25.15-.32.24-.1.19-.1.3c0,.11.02.2.05.28.03.08.08.14.14.19.06.05.13.09.21.11.08.02.17.03.26.03.13,0,.24-.01.34-.04s.2-.06.29-.11.18-.11.26-.17.17-.14.25-.23v-.84Z"/>
      <path d="M132.49,157.92c-.32,0-.57-.09-.74-.27-.17-.18-.26-.44-.26-.77v-2.48h-.49s-.08-.01-.11-.04-.04-.06-.04-.12v-.28l.66-.08.16-1.25s.03-.07.05-.1c.03-.03.06-.04.11-.04h.36v1.4h1.17v.52h-1.17v2.43c0,.17.04.3.12.38.08.08.19.12.32.12.07,0,.14-.01.19-.03.05-.02.1-.04.14-.07.04-.02.07-.05.1-.07.03-.02.05-.03.07-.03.04,0,.07.02.1.07l.21.34c-.12.11-.27.2-.44.27-.17.07-.35.1-.54.1Z"/>
      <path d="M135.8,153.74c.3,0,.56.05.8.15s.44.24.61.42.3.4.39.66c.09.26.13.54.13.86s-.04.61-.13.86-.22.47-.39.66-.37.32-.61.42c-.24.1-.5.15-.8.15s-.57-.05-.81-.15c-.24-.1-.44-.24-.61-.42s-.3-.4-.39-.66c-.09-.26-.13-.54-.13-.86s.04-.6.13-.86c.09-.26.22-.48.39-.66s.37-.32.61-.42c.24-.1.51-.15.81-.15ZM135.8,157.35c.4,0,.7-.13.9-.4.2-.27.3-.64.3-1.12s-.1-.86-.3-1.13c-.2-.27-.5-.4-.9-.4-.2,0-.38.03-.53.1-.15.07-.28.17-.38.3-.1.13-.17.29-.22.48s-.07.41-.07.65c0,.48.1.85.3,1.12.2.27.5.4.91.4Z"/>
    </g>
    <g>
      <path d="M56.15,154.6h-1.86v5.08h-.77v-5.08h-1.86v-.65h4.49v.65Z"/>
      <path d="M59.14,159.11c-.09.11-.19.2-.32.28-.12.08-.25.14-.39.19s-.28.09-.43.11c-.15.03-.3.04-.44.04-.28,0-.54-.05-.77-.14-.24-.09-.44-.23-.61-.42s-.31-.41-.4-.68c-.1-.27-.14-.58-.14-.93,0-.28.04-.55.13-.79.09-.25.21-.46.37-.64s.36-.32.6-.42c.23-.1.5-.15.79-.15.24,0,.47.04.67.12s.39.2.54.35c.15.15.27.34.35.57.09.23.13.48.13.77,0,.11-.01.19-.04.22s-.07.06-.14.06h-2.71c0,.26.04.48.11.67.06.19.15.35.26.47.11.13.25.22.4.28.15.06.33.09.52.09.18,0,.33-.02.46-.06.13-.04.24-.09.33-.13s.17-.09.23-.13.12-.06.16-.06c.06,0,.1.02.14.07l.2.26ZM58.57,157.22c0-.17-.02-.32-.07-.45-.05-.14-.11-.26-.2-.36-.09-.1-.2-.18-.33-.23-.13-.05-.27-.08-.44-.08-.34,0-.61.1-.81.3-.2.2-.32.47-.37.83h2.22Z"/>
      <path d="M62.9,156.35s-.04.05-.06.07c-.02.02-.05.02-.09.02-.04,0-.08-.02-.13-.05-.05-.03-.11-.07-.18-.11s-.16-.08-.26-.11c-.1-.03-.23-.05-.38-.05-.2,0-.38.04-.53.11-.15.07-.28.17-.38.31-.1.13-.18.29-.23.48-.05.19-.08.4-.08.64,0,.25.03.46.08.65s.14.35.24.48c.1.13.23.23.37.3.15.07.31.1.49.1s.32-.02.43-.06c.11-.04.21-.09.28-.14s.13-.1.18-.14.1-.06.15-.06c.06,0,.1.02.14.07l.2.26c-.09.11-.19.2-.3.28-.11.08-.23.14-.36.19-.13.05-.26.09-.41.11-.14.02-.29.04-.43.04-.25,0-.49-.05-.71-.14s-.41-.23-.57-.41c-.16-.18-.29-.4-.38-.65-.09-.26-.14-.55-.14-.88,0-.3.04-.58.13-.84s.21-.48.37-.66c.16-.18.36-.33.6-.43.24-.1.51-.16.81-.16.29,0,.54.05.75.14.22.09.41.22.58.39l-.19.26Z"/>
      <path d="M64.8,154.36c0,.07-.01.13-.04.19-.03.06-.06.11-.11.16-.05.05-.1.08-.16.11s-.13.04-.2.04-.13-.01-.19-.04c-.06-.03-.11-.06-.16-.11-.05-.05-.08-.1-.11-.16-.03-.06-.04-.12-.04-.19s.01-.14.04-.2c.03-.06.06-.12.11-.16.05-.05.1-.08.16-.11.06-.03.12-.04.19-.04s.14.01.2.04c.06.03.12.06.16.11.05.05.08.1.11.16.03.06.04.13.04.2ZM64.65,155.63v4.05h-.71v-4.05h.71Z"/>
      <path d="M69.17,153.79v5.89h-.42c-.1,0-.17-.05-.19-.15l-.06-.49c-.17.21-.37.38-.59.5s-.48.19-.77.19c-.23,0-.44-.04-.63-.13-.19-.09-.35-.22-.48-.39-.13-.17-.24-.39-.31-.65-.07-.26-.11-.56-.11-.89,0-.3.04-.58.12-.83.08-.26.19-.48.34-.67s.33-.34.55-.45.46-.16.73-.16c.25,0,.46.04.64.13s.34.2.47.35v-2.24h.71ZM68.46,156.6c-.13-.18-.28-.3-.43-.37s-.33-.11-.52-.11c-.38,0-.67.13-.87.4s-.3.65-.3,1.15c0,.26.02.49.07.68.05.19.11.34.2.46.09.12.2.21.32.27.13.06.27.08.44.08.23,0,.44-.05.61-.16.17-.11.33-.26.48-.45v-1.96Z"/>
      <path d="M72.01,155.57c.3,0,.56.05.8.15s.44.24.61.42.3.4.39.66c.09.26.13.54.13.86s-.04.61-.13.86-.22.47-.39.66-.37.32-.61.42c-.24.1-.5.15-.8.15s-.57-.05-.81-.15c-.24-.1-.44-.24-.61-.42s-.3-.4-.39-.66c-.09-.26-.13-.54-.13-.86s.04-.6.13-.86c.09-.26.22-.48.39-.66s.37-.32.61-.42c.24-.1.51-.15.81-.15ZM72.01,159.18c.4,0,.7-.13.9-.4.2-.27.3-.64.3-1.12s-.1-.86-.3-1.13c-.2-.27-.5-.4-.9-.4-.2,0-.38.03-.53.1-.15.07-.28.17-.38.3-.1.13-.17.29-.22.48s-.07.41-.07.65c0,.48.1.85.3,1.12.2.27.5.4.91.4Z"/>
    </g>
  </g>
</svg>