
<svg xmlns="http://www.w3.org/2000/svg" version="1.1" xmlns:xlink="http://www.w3.org/1999/xlink" preserveAspectRatio="none" x="0px" y="0px" width="350px" height="300px" viewBox="0 0 350 300">
<defs>
<g id="Layer0_0_FILL">
<path fill="#F9EDEC" stroke="none" d="
M 97.6 70.8
Q 96.0953125 68.341796875 94.55 65.8 88.0955078125 54.90078125 81.35 42.75 73.2423828125 28.24375 58.75 0.6
L 54.25 0.6
Q 59.123828125 10.174609375 68.6 27.45 82.1 52.05 93.7 71.4 102 85.3 107.3 100.7 108.6625 104.6236328125 109.8 107.8 109.8603515625 107.7939453125 109.9 107.8 109.8748046875 107.8376953125 109.85 107.85 113.249609375 117.1958984375 114.85 119.95 116.6 122.9 128 138.8 130.7 142.6 132.25 149.15 133.0349609375 152.416796875 133.7 154.4 134.0884765625 154.185546875 134.45 154.05 134.263671875 154.515625 133.9 155 134.3587890625 156.2646484375 134.75 156.85 135.468359375 155.996484375 136.55 155.15
L 136.7 155.55
Q 136.45 155.9 135.8 156.5 135.2732421875 156.945703125 135 157.25 136.474609375 159.1767578125 141.2 164.8 146.55 171.35 150.7 177.55 156.9404296875 186.850390625 161.55 196.75 162.08203125 197.424609375 162.55 198.1 163.6810546875 192.0478515625 162.5 185.65 160.65 175.25 152.45 162.5 150.65 159.7 145.3 152 141.0232421875 145.8435546875 138.6 141.9 137.7681640625 140.7078125 136.85 138.55 130.1 122 120.6 106.75 119.45 104.85 110.65 91.5 109.324609375 89.4955078125 107.95 87.4 102.8830078125 79.5576171875 97.6 70.8
M 18.8 131.1
Q 26.567578125 144.30625 33.7 158.05 39.7 169.65 50.85 182.8 56.5 189.5 66.7 198.8 81.85 212.6 84.05 214.7 99.9939453125 230.264453125 109.1 247.25 109.8923828125 243.394140625 109 239.55 108.2 236.7 107.95 235.3 107.9103515625 235.0798828125 107.85 234.85 101.110546875 226.7205078125 97.35 222.8 93.6 218.85 87.55 213.2 77.95 204.3 77.5 203.9 58.95 186.15 39.6 160.45 31.57109375 149.75625 18.8 131.1
M 71.1 139
Q 71.360546875 139.5771484375 71.6 140.2 72.7 143.1 73.6 145.65 73.8 146.15 75.3 147.55 75.7 147.95 76.25 148.45 79.6 151.4 87.3 157.3 101.65 168.35 106.75 175.35 110.9 181 117.95 192.6 124.8 203.85 127.85 207.9 130.9 211.9 142.55 223.1 147.1076171875 228.008203125 151.45 233.65 151.130078125 232.33984375 150.7 230.95 149.85 228.3 147.95 223.5
L 144.1 213.6
Q 143.413671875 213.01953125 142.65 212.3 131.75 201.8 118.45 184.85 103.65 165.35 96.05 155.75 76.6 132.5 67.4 120.5 61.3580078125 112.5958984375 56.5 105.15 60.7927734375 114.0673828125 65.25 124.6 68.394140625 132.1083984375 70.8 138.15 71.191015625 138.15 71.6 138.15 71.75 138.15 71.8 138.3 71.9 138.5 71.8 138.6 71.75 138.75 71.3 138.95
L 71.1 139
M 298.5 34.3
Q 299.0162109375 32.235546875 299.55 30.3 295.71875 38.896875 291.9 48.55 288.95 56.05 283.8 69.3 274.8 91.35 262.1 107.9 249.9 123.85 241.7 137.7 241.45 138.05 241.3 138.4 240.1 140.4 239 142.35 232.1 154.55 229.25 163.85 229.240234375 163.87734375 229.2 163.9 229.4138671875 163.9037109375 229.6 163.9 230.23984375 163.8599609375 230.75 164 231.0587890625 163.6521484375 231.45 163.3 231.8 162.95 233.3 161.75 238.1955078125 157.748046875 241.8 150.4 241.8615234375 150.3125 241.9 150.2
L 241.9 150.2
Q 242.9103515625 148.2060546875 243.8 145.95 244.6 143.9 247.05 136.9 249 131.3 250.5 128 254.7 118.85 265.8 105.45 278.55 90.05 282.4 83.55 286.75 76.25 290.05 66.85 292.7 59.3 295.1 49.05
L 298.5 34.3
M 344.05 95
Q 344.13828125 95.025390625 344.2 95.05 344.65 95.25 345.75 95.55 346.75 95.85 347.3 96.1 348.45 96.65 349.5 97.65 349.6 98 349.1 98 348.9 98 348.5 97.75 347.6 97.2 345.6 96.55 344.4046875 96.131640625 343.6 95.75 343.0255859375 96.731640625 342.45 97.6 344.3537109375 98.4349609375 346.3 99.2 347.4 99.65 347.6 100.15 345.115625 99.5931640625 342.05 98.3 338.540625 104.1861328125 336.6 107.35 332.9 113.35 329.05 125.05 326.8 131.9 322.3 146.85 320.82578125 151.36484375 315.6 160.1 316.9599609375 160.9958984375 317.85 162.25
L 315.1 160.95
Q 314.9173828125 161.2912109375 314.7 161.65 314.2353515625 162.4095703125 313.75 163.15 316.5470703125 164.85234375 317.2 166.55
L 313.25 164
Q 308.2392578125 171.9638671875 303.35 178.25 300.631640625 181.416015625 298.2 184.25 298.8947265625 184.9490234375 299.55 185.75
L 297.65 184.9
Q 292.8740234375 190.5888671875 289.3 195 282.471875 203.4943359375 280.1 208.35 280.478125 208.3939453125 280.85 208.4 284.6 208.5 288.25 206.2 291.4 204.2 294.05 200.7 295.75 198.45 298.25 193.95 300.95 189.1 302.3 187.1 304.2 184.4 308.55 179.65 312.95 174.8 314.8 172.25 318.35 167.2 321.45 159 324.7 149.55 326.5 144.9 329.1 138.3 335.9 125.05
L 349.15 99.55
Q 349.71015625 98.4677734375 350.25 97.45
L 350.25 84.7
Q 346.7880859375 90.4869140625 344.05 95
M 327.75 61.25
Q 327.97265625 59.94609375 328.15 58.8 324.8162109375 68.4453125 322.75 73.55 317.35 86.8 312.3 93.15 312.1 93.35 311.9 93.6
L 311.85 93.6
Q 313.25625 94.5390625 314.6 95.5 316.45 96.9 316.75 98.1 315.45 97.8 313.05 96.05 312.084765625 95.3279296875 311.1 94.6 309.8677734375 96.109375 308.75 97.7 308.616015625 97.872265625 308.45 98.05 310.8232421875 99.10234375 313.2 100.05 313.05 100.45 312.3 100.45 310.266796875 100.3595703125 307.75 99.05 303.9251953125 104.5552734375 300.8 110.95 299.15 114.35 291.9 131.45 290.15 135.55 282.4 148.65 279.5 153.5 277 157.7 276.856640625 157.9150390625 276.7 158.1 276.6830078125 158.2677734375 276.55 158.35 276.513671875 158.4853515625 276.45 158.6 275.95 159.45 275.45 160.3 275.3 160.55 275.15 160.8 270.3 168.95 267.15 174.4 266.3 175.9 265.45 177.35 265.323046875 177.5677734375 265.2 177.75 267.213671875 178.8494140625 268.3 179.8 266.4208984375 179.4072265625 264.6 178.85 252.9216796875 199.326953125 248.95 210.15 248.9126953125 210.241796875 248.85 210.3 249.13671875 210.3724609375 249.4 210.4 251.85 210.75 253.55 209.7 254.75 209 256.3 206.4 259.5 200.6 263.8 191.1 269.75 177.9 270.9 175.55
L 274.35 168.6
Q 276.112109375 165.166015625 278 164.15 278.759375 162.056640625 280.05 159.75 280.95 158.15 284.6 152.5 288 147.35 293.2 138.4 299.35 127.7 301.55 124.15 304.15 120.05 309.4 111.85 313.9 104.6 316.45 99.05 319.4 92.55 323.35 79.55 325.8 71.45 326.6 67.55 327 65.6 327.75 61.25 Z"/>

<path fill="#FEB5AA" stroke="none" d="
M 103.25 52.9
Q 103.1564453125 53.4791015625 103.05 54.05 102.8419921875 53.5056640625 102.6 52.95 102.7748046875 52.1435546875 102.95 51.3 102.9890625 51.1123046875 103 50.9 102.8587890625 49.437890625 102.85 49.05
L 102.85 49.6
Q 102.55 50.6 100.1 60.65 99.1814453125 64.477734375 98.5 67.1 102.8763671875 74.3736328125 107.05 80.9 106.5861328125 77.573046875 106.05 73.7 104.0123046875 58.8306640625 103.25 52.9
M 89.05 40.2
Q 87.4369140625 31.2828125 82.35 0.6
L 60.85 0.6
Q 61.7359375 1.8783203125 62.6 3.25 64.8 6.8 69.25 14.95 83.6 41.4 90.55 53.5 91.43984375 55.0564453125 92.3 56.55 90.819140625 49.767578125 89.05 40.2
M 246.8 12.2
Q 246.8 9.5923828125 246 0.6
L 231.5 0.6
Q 231.7744140625 9.29296875 232.55 27.4 232.55 54.2 223.4 93.6 221.8013671875 100.4828125 220.6 105.7 220.8884765625 104.8994140625 221.2 104.05 227.85 87.5 231.65 77.9 246.8 39.45 246.8 12.2
M 159.4 212.75
Q 156.2 216.8 152.55 217.25 150.5990234375 217.4412109375 148.5 216.55 149.9431640625 219.3267578125 151.5 223.2 155.1443359375 232.49765625 155.7 239.35 155.7271484375 239.83125 155.75 240.3 155.807421875 241.622265625 155.75 242.9 155.605078125 246.09296875 154.75 249.05 153.5 253.55 150.75 256.8 147.8 260.25 143.5 261.75 139 263.3 134.9 262 134.4474609375 261.8615234375 134 261.65 130.542578125 261.734765625 127.25 260.4 126.7 260.2 125.05 259.45 122.75 258.4 121.2 257.4 120 256.65 118.35 255.15 117.35 254.3 116.2 253.05
L 114.65 251.15
Q 114.2 250.65 112.15 248.8 112.08671875 248.7427734375 112 248.65 111.9666015625 248.96875 111.9 249.25 111.6275390625 250.3517578125 111.25 251.4 110.5955078125 253.2462890625 109.6 254.95
L 109.4 256.25
Q 108.65 259.6 106.15 263.2 104.55 265.45 101.1 269.25 99.7 270.75 98.9 271.35 97.45 272.4 94.45 273.05 90.4134765625 273.9046875 87.6 273.6 93.033203125 286.843359375 97.9 299.95
L 129.55 299.95
Q 134.322265625 293.0595703125 139.8 285.45 149.3 272.35 151.45 269.15 156.3 261.8 158.3 256.35 160.6 250.25 160.6 243.35 160.6 241.7 159.75 237.1 158.85 232.5 158.85 230.75 158.85 228.35 160.1 226.3 161.85 223.95 162.85 222.45 166.85 216.45 166.85 205.35 166.85 199.9970703125 166.05 194.75 165.916015625 196.853125 165.55 198.9 165.146484375 201.23515625 164.45 203.35 162.7806640625 208.6576171875 159.4 212.75
M 306.1 191.7
Q 305.25 194.95 304.4 196.85 303.65 198.45 301.75 201.45
L 300.2 203.9
Q 299.45 205.15 298.8 206 296.75 208.75 293.7 210.5
L 292 211.35
Q 290.95 211.75 290.1 211.95 288.9 212.25 287.75 212.25 285.95 212.4 281.7 211.75 281.2806640625 211.6958984375 280.9 211.6 279.963671875 211.5587890625 278.95 211.35 278.692578125 211.3162109375 278.4 211.25 274.3 210.3 271.25 207.5 268.25 204.8 266.7 200.85 266.3994140625 200.103515625 266.15 199.35 266.051953125 199.8923828125 265.9 200.5 265.3 202.8 264.9 203.9 263.8 206.55 261.5 209.2 258.85 212.3 256.35 213.4 253.0265625 214.830859375 250.3 213.6 249.81171875 213.6029296875 249.3 213.55 248.560546875 213.48359375 247.85 213.35 247.314453125 213.2552734375 246.8 213.1 244.7076171875 212.5953125 242.75 211.5 249.618359375 220.55 259.1 220.55 259.8 220.55 265.65 219.4 271.55 218.25 272.5 218.25 273.7 218.25 277.15 220.3 279.2 221.5 284.65 224.8 296.2 231.3 304.55 231.3 307.800390625 231.3 310.55 230.7 308.5048828125 210.2849609375 306.75 190.5 306.577734375 190.79453125 306.25 191.1 306.183203125 191.3947265625 306.1 191.7
M 229.65 166.3
Q 229.0513671875 166.3173828125 228.5 166.3 227.2654296875 166.3470703125 226.3 166.3 225.2341796875 166.286328125 224.5 166.2 221.6 165.9 219.65 164.75 217.9455078125 163.7474609375 216.6 162 218.42890625 166.344140625 221.7 169.65 223.8 171.8 228.2 174.35 231.75 177.4 232.55 184.5 232.6046875 184.9818359375 232.65 185.45 233.1021484375 181.28359375 234.6 175.1 236.40546875 167.6673828125 238.65 160.15 238.0603515625 160.785546875 237.4 161.35 234.700390625 163.6974609375 231.7 164.7 231.738671875 164.8150390625 231.75 164.95 231.9 166.2 229.65 166.3 Z"/>

<path fill="#43463D" stroke="none" d="
M 107.5 34.1
L 105.9 39.8
Q 103.8548828125 47.076953125 103 50.9 102.9890625 51.1123046875 102.95 51.3 102.7748046875 52.1435546875 102.6 52.95 102.8419921875 53.5056640625 103.05 54.05 103.1564453125 53.4791015625 103.25 52.9 104.5474609375 46.3818359375 106.5 40.1 107.15 38.05 107.3 37.15 107.65 35.45 107.5 34.1
M 166.05 194.75
Q 166.4255859375 189.19453125 165.15 183.4 163.65 176.45 159.85 168.95 156.85 163.15 151.75 155.7 151.6859375 155.6095703125 151.6 155.5 148.2033203125 150.6970703125 145.7 147.85 143.7158203125 145.6484375 141.7 143.9 141.7755859375 143.9435546875 141.85 143.95 141.85 142.3 140.55 139.2 136.55 130.05 134.45 125.55 130.9 118 127.6 112.25 124.9 107.6 120.75 101.45 116 94.45 113.6 90.9 110.382421875 86.1326171875 107.05 80.9 102.8763671875 74.3736328125 98.5 67.1 95.4669921875 62.02890625 92.3 56.55 91.43984375 55.0564453125 90.55 53.5 83.6 41.4 69.25 14.95 64.8 6.8 62.6 3.25 61.7359375 1.8783203125 60.85 0.6
L 58.75 0.6
Q 73.2423828125 28.24375 81.35 42.75 88.0955078125 54.90078125 94.55 65.8 96.0953125 68.341796875 97.6 70.8 102.8830078125 79.5576171875 107.95 87.4 109.324609375 89.4955078125 110.65 91.5 119.45 104.85 120.6 106.75 130.1 122 136.85 138.55 137.7681640625 140.7078125 138.6 141.9 141.0232421875 145.8435546875 145.3 152 150.65 159.7 152.45 162.5 160.65 175.25 162.5 185.65 163.6810546875 192.0478515625 162.55 198.1 162.08203125 197.424609375 161.55 196.75 160.062109375 194.7515625 158.5 192.9 156.7 190.75 155.55 189.85 151.15 186 145.4 185.7 145.4 186.9 147.75 187.5 153.15 189.05 158.3 195.15 160.1 197.3 160.75 197.95 161.5548828125 198.728125 162.35 199.2 161.103125 205.2859375 157.75 209.85 154.6 214.05 151.2 213.8 149.4 213.65 147 211.8 144.66640625 210.0291015625 142 207.45 139.1357421875 203.1859375 138.3 200.4 137.35 197.35 137.75 194.1 138.15 190.8 139.85 188.1 140.45 187.2 140.7 186.75 141.1 186 141.2 185.35 138.85 186.3 137.6 188.9 136.6 190.95 136.35 193.9 136 197.55 136.9 200.35 137.2453125 201.5337890625 138.55 203.9 136.310546875 201.5169921875 133.85 198.6 127 190.45 118.15 179.3
L 76.25 126.65
Q 69.95 118.75 65.2 112.55 54 97.85 44 82.05 48.65 92.99296875 56.5 105.15 61.3580078125 112.5958984375 67.4 120.5 76.6 132.5 96.05 155.75 103.65 165.35 118.45 184.85 131.75 201.8 142.65 212.3 143.413671875 213.01953125 144.1 213.6
L 147.95 223.5
Q 149.85 228.3 150.7 230.95 151.130078125 232.33984375 151.45 233.65 152.0619140625 235.9552734375 152.35 238 152.396875 238.219921875 152.4 238.4 152.3240234375 238.2716796875 152.2 238.1 147.95 232.95 139.55 229.95 135.45 228.5 133.05 229.3 132.7 229.45 132.5 229.7 132.25 229.95 132.4 230.2 132.5 230.3 133 230.45 139.6 230.7 145.25 234.45 146.9 235.6 150.15 238.1 151.4216796875 238.962890625 152.5 239.4 153.315234375 248.05 149.1 253.75 146.65 257.05 142.85 258.5 138.85 260 135.2 258.8 133.2 258.1 131.15 256.45 129.75 255.35 127.65 253.2 122.6 247.85 112.05 235.15 102.2 223.25 96.25 217.25 92.55 213.5 86.15 207.7 78.3 200.6 75.85 198.25 61.7 184.75 45.65 163.75 27.55 138.95 18.45 126.6 14.95 121.8 12.9 119.4 9.65 115.55 6.5 112.95 8.33828125 115.690234375 10.1 118.3
L 8.6 117.5
Q 7.7 117.15 7.6 116.85 7.55 117 7.3 117 7.2 117.4 7.55 117.75
L 7.95 118 10.7 119.25
Q 10.7255859375 119.258984375 10.75 119.25 14.9857421875 125.548828125 18.8 131.1 31.57109375 149.75625 39.6 160.45 58.95 186.15 77.5 203.9 77.95 204.3 87.55 213.2 93.6 218.85 97.35 222.8 101.110546875 226.7205078125 107.85 234.85 107.9103515625 235.0798828125 107.95 235.3 108.2 236.7 109 239.55 109.8923828125 243.394140625 109.1 247.25 108.78984375 249.028515625 108.1 250.8 105.95 256.45 101.25 259.7 96.35 263.1 92.2 261.75 90.05 261.05 86.85 257.85
L 68.5 239.4
Q 52 222.7 41.95 213.75 31.9 205.1 26.9 200.75 18.1 193.05 12.55 187.05 6.3841796875 180.433984375 1.15 172.65
L 1.15 176.85
Q 8.5265625 187.7107421875 18.2 196.8 20.95 199.35 25.1 202.85 27.4 204.85 32.1 208.75 44.15 219 58.45 233.25 64.07890625 238.87890625 76.55 251.8 79.3853515625 259.705078125 83 269.15
L 94.95 299.95 97.9 299.95
Q 93.033203125 286.843359375 87.6 273.6 90.4134765625 273.9046875 94.45 273.05 97.45 272.4 98.9 271.35 99.7 270.75 101.1 269.25 104.55 265.45 106.15 263.2 108.65 259.6 109.4 256.25
L 109.6 254.95
Q 110.5955078125 253.2462890625 111.25 251.4 111.6275390625 250.3517578125 111.9 249.25 111.9666015625 248.96875 112 248.65 112.08671875 248.7427734375 112.15 248.8 114.2 250.65 114.65 251.15
L 116.2 253.05
Q 117.35 254.3 118.35 255.15 120 256.65 121.2 257.4 122.75 258.4 125.05 259.45 126.7 260.2 127.25 260.4 130.542578125 261.734765625 134 261.65 134.4474609375 261.8615234375 134.9 262 139 263.3 143.5 261.75 147.8 260.25 150.75 256.8 153.5 253.55 154.75 249.05 155.605078125 246.09296875 155.75 242.9 155.807421875 241.622265625 155.75 240.3 155.7271484375 239.83125 155.7 239.35 155.1443359375 232.49765625 151.5 223.2 149.9431640625 219.3267578125 148.5 216.55 150.5990234375 217.4412109375 152.55 217.25 156.2 216.8 159.4 212.75 162.7806640625 208.6576171875 164.45 203.35 165.146484375 201.23515625 165.55 198.9 165.916015625 196.853125 166.05 194.75
M 216.95 208.6
Q 216.75 208.4 216.55 208.4 216.35 208.4 216.2 208.65 216.0546875 209.2314453125 215.85 209.55 215.7173828125 209.7953125 215.55 209.9
L 215.4 209.95
Q 215.384765625 210.13046875 215.3 210.3
L 215.2 210.5
Q 215.2 210.55 215.35 210.85
L 215.1 210.95 214.95 210.85
Q 215.0076171875 211.190234375 215.3 211.3 215.3880859375 211.3587890625 215.55 211.35 215.6556640625 211.4 215.8 211.4
L 217.15 211.4
Q 217.45 210.5 217.4 209.95 217.4 209.2 216.95 208.6
M 205.55 188.3
Q 205.6654296875 188.3986328125 205.75 188.5 205.55 188.7 205.75 189.15 205.95 189.65 205.8 189.85 205.75 189.95 205.6 190.15
L 205.6 190.4 205.35 190.45 205.1 190.4 205.15 190.45 205.6 190.8
Q 205.95 191 206.85 191 206.75 190.85 206.95 190.65
L 207.25 190.4
Q 207.4333984375 190.241015625 207.55 190.05 207.914453125 189.517578125 207.65 188.8
L 207.25 188.2 206.7 187.6
Q 206.5 187.3 206.25 187.3 206.15 187.3 205.9 187.55 205.748046875 187.762890625 205.65 187.95 205.5802734375 188.1466796875 205.55 188.3
M 184 178.3
Q 183.7 178.4 183.55 178.4 183.22265625 178.77421875 183.6 179.25 183.6208984375 179.314453125 183.65 179.35 183.85 179.65 184.35 180.1
L 184.65 180.45 185.1 180.65
Q 185.9 180.85 186.35 180.85 186.75 180.75 186.8 180.7
L 187.05 180.35 187.15 179.7
Q 187.15 179.0279296875 186.5 178.8 186.4794921875 178.8234375 186.45 178.85 186.35 179.1 186.3 179.1
L 186.15 179.1 185.35 179 185.2 178.95 185.1 178.85
Q 185.044140625 178.7103515625 185 178.45 184.908203125 178.422265625 184.8 178.35 184.5 178.2 184.45 178.2 184.4021484375 178.183984375 184.35 178.2 184.204296875 178.1978515625 184 178.3
M 178.8 163.95
L 178.7 163.8
Q 178.55 163.7 178.25 163.7
L 178 163.75
Q 177.9541015625 163.75 177.8 164 177.8123046875 164.025390625 177.8 164.05 177.8 164.4 178.1 165
L 178.6 166 178.85 166.25 179.7 166.4 179.95 166.4 180.25 166.2
Q 180.42421875 166.0548828125 180.55 165.9 181.0822265625 165.22734375 180.8 164.3
L 180.7 164.05
Q 180.48203125 164.347265625 180.1 164.5
L 179.85 164.6 179.6 164.55
Q 179.15 164.45 179.05 164.25
L 179 164
Q 178.903515625 164.0189453125 178.8 163.95
M 203.25 214.95
Q 203.05 214.75 202.8 214.7 202.55 214.65 202.1 214.9 201.6 215.15 201.35 215.1
L 200.1 213
Q 200 212.95 199.85 213.2 199.744921875 213.4365234375 199.65 213.65 199.489453125 214.2181640625 199.6 214.55 199.65 214.8 199.95 215.25
L 199.95 215.4
Q 200.0234375 215.5935546875 200.1 215.9 200.15 216.25 200.35 216.4 200.5 216.5 201 216.6 201.370703125 216.6 201.9 216.65 202.2794921875 216.66171875 202.7 216.7
L 203.35 215.4
Q 203.4 215.15 203.25 214.95
M 192.95 184.45
Q 193.2017578125 184.79609375 193.45 185.2 194.8724609375 187.4837890625 196.6 191.95
L 199.35 198.95
Q 201.05 203.3 202.4 205.4 202.95 206.3 204.2 208.1 204.3142578125 208.2818359375 204.4 208.45 205.43515625 210.25546875 206.6 213.75
L 206.95 214.8 207.45 216.15
Q 208.05 218.05 208.8 218.85 210.1 220.25 211.5 219.65 211.9 219.3 211.5 218.8 211.4 218.65 210.7 218.2 209.9 217.6 209.3 215.8
L 208.8 214.3 208.15 212.35
Q 207.05 209.45 206.75 208.8 206.2 207.65 205.1 206 203.6 203.7 203.35 203.25 202.2 201.4 201.6 200
L 197.55 190.2
Q 195.85 186.15 193.2 182.55 192.55 181.65 192.15 182.15 191.95 182.85 192.95 184.45
M 198.85 169
L 198.85 169.2
Q 198.7 169.1 198.5 169.15 198.35 169.2 198.25 169.4 198.05 169.65 198.25 170.1
L 198.5 170.75
Q 198.7 171.3 198.4 172.15 198.357421875 172.15 198.3 172.15 198.154296875 172.412890625 198.2 172.55
L 197.35 172.7 197.45 173
Q 198 173.85 199.05 174
L 199.4 173.95
Q 199.55 173.9 199.75 173.7 200.25 172.95 200.3 172.8 200.4 172.5 200.4 171.95
L 200.35 170.1
Q 200.15 169.45 198.85 169
M 192.7 157.5
Q 192.9 157.05 192.9 156.45 192.9 156.05 192.75 155.6 192.55 155.1 192.2 155 191.7 154.8 191.45 155.25
L 191.4 155.3
Q 191.601953125 155.36796875 191.8 155.5
L 191.95 155.65 192.05 155.85
Q 192.25 156.15 192.15 156.7
L 192.1 156.95 191.9 157.05
Q 191.4 157.2 191.05 157.15 190.65 157 190.45 156.5 190.409375 156.4083984375 190.35 156.3 190.334765625 156.365234375 190.3 156.4 190.3 156.75 190.75 157.4 190.75 157.65 190.9 157.7
L 191.65 157.9
Q 192.3 158 192.5 157.85 192.6 157.8 192.7 157.5
M 183.55 140.25
L 183.5 140.25 183.8 140.55 183.6 140.9
Q 183.9 141.3 183.9 141.75 183.9 142.1 183.7 142.15
L 183.5 142.2 182.45 142.2
Q 182.45625 142.2978515625 182.5 142.4 182.55 142.55 182.75 142.9 182.95 143.2 183 143.4
L 184.55 143.55 184.8 142.85
Q 185.05 142.2 185.05 141.6 184.95 140.8 184.7 140.5 184.15 139.85 183.55 140.25
M 172.1 148.1
Q 171.909375 147.909375 171.9 147.4 171.87578125 147.37578125 171.85 147.35 171.5 147 171.2 147.15 171 147.25 170.9 147.7
L 170.85 148.45 170.9 148.9 171.15 149.15
Q 171.4 149.4 171.4 149.7 172.4 150.15 173.5 149.85
L 173.75 149.75
Q 173.95 149.65 173.95 149.35 174.079296875 148.876171875 173.85 148.4 173.62578125 148.5068359375 173.2 148.45
L 172.35 148.2 172.1 148.1
M 171.15 138.85
L 171 138.95
Q 171.298828125 139.449609375 171.6 139.95 172.7208984375 141.8501953125 173.8 143.8 174.329296875 144.703125 174.8 145.6 175.6146484375 147.0251953125 176.4 148.45 177.001171875 149.6076171875 177.6 150.75 178.65 152.9 178.8 153.85 178.85 154.35 178.95 155.4 179.1 156.35 180 157.85 180.06953125 157.97421875 180.15 158.1 180.8390625 159.3384765625 182.1 161.5
L 183.9 164.95 185.4 167.8
Q 186.1 169.35 187.4 172.5 187.4748046875 172.665234375 187.55 172.8 188.3220703125 174.462109375 189.2 175.65 189.274609375 175.7521484375 189.35 175.85 189.687890625 176.312890625 190.05 176.7 190.55 177.05 190.7 176.85 189.9 174.2 189.45 172.9 189.2 172.1 188.7 171
L 187.95 169.15
Q 186.6 166.1 185.6 164.15
L 184.95 162.85
Q 183.87578125 160.9494140625 183.05 159.75 182.8650390625 159.5169921875 182.7 159.3 181.95 158.25 181.6 157.75 181 156.8 180.75 156.05 180.3 154.05 180.05 153.05 179.6009765625 151.2541015625 177.7 148.4
L 177.7 148.4 171.6 138.65 171.15 138.85
M 191.8 196.2
L 191.55 195.85
Q 191.558203125 196.206640625 191.4 196.8 191.4 197.25 191.9 197.95
L 192.15 198.2 192.55 198.25 194.3 198.25
Q 194.65 197.05 194.55 196.55 194.3 195.5 194.4 195.25 194.2169921875 195.1890625 194 195.2
L 194 195.5
Q 194 195.7 193.8 196 193.45 196.55 193.15 196.6 192.95 196.65 192.65 196.6 192.35 196.6 192.2 196.5 192.05 196.45 191.8 196.2
M 172.35 133.5
Q 173.35 134.35 174 135.35 174.5 136.1 174.95 137.35
L 175.3 138.7
Q 175.9 140.85 176.8 142.2 177.35 143.1 178.15 144.05
L 179.5 145.65
Q 180.3 146.55 180.35 147.15 180.4 147.5 180.35 148.1
L 180.7 148.95
Q 180.9 149.4 180.95 150.35 181.05 150.95 181.55 151.65 181.8 152.1 182.35 152.9 183.05 153.9 183.8 155.75 185.15 158.75 186.5 159.55
L 191.4 171.7
Q 193.15 175.75 197.15 183.65
L 200.95 191.25
Q 203.3 196.05 204.2 199.15 205.2 202.6 205.5 203.2 206.05 204.35 207.35 206.15 208.75 208.15 209.25 209 209.8494140625 210.1322265625 210.4 211.9 210.7162109375 212.8314453125 211 213.9 211.2421875 214.820703125 211.45 215.6 211.976953125 217.479296875 212.3 218.45 212.4173828125 218.743359375 212.5 218.95 212.9203125 220.0814453125 213.5 220.35 213.8611328125 220.53828125 214.25 220.45 214.85 219.35 214.25 217.1 213.8673828125 215.5244140625 213.5 214.25 213.1298828125 212.7671875 212.8 211.75 212.1712890625 209.7978515625 211.4 208.2 211.0228515625 207.37734375 210.6 206.65 208.6 203.9 207.85 202.4 207.3 201.25 206.6 198.95 206.00546875 196.869140625 205.55 195.8 205.475390625 195.608203125 205.4 195.45 205.2 195.1 203.75 192.55 202.9689453125 191.1521484375 202 188.8 201.81328125 188.3009765625 201.6 187.75 200.25 184.2 199.6 182.9 199.22109375 182.1421875 197.9 179.95 197.327734375 179.009765625 196.55 177.75 195.2794921875 175.662890625 194.15 173.55 192.819921875 171.062890625 191.7 168.55 190.45 165.55 189.75 164.05 189.6384765625 163.8025390625 189.5 163.55 188.4884765625 161.330078125 187.45 159.75 187.0837890625 159.15078125 186.7 159.1 186.9173828125 158.428515625 186.55 157.4 186.537890625 157.3615234375 186.5 157.3 185.6857421875 154.672265625 184.7 152.75
L 183.4 150.45 183.3 150.3
Q 182.85 149.6 182.8 149.25 182.75 148.5 182.65 148.15 182.25 147.45 182.1 147.05 182.05 146.2 181.95 145.8 181.8 145.3 181.05 144.45
L 179.55 142.75
Q 178.6861328125 141.73359375 178.15 141 177.6212890625 140.343359375 177.4 139.95 176.85 138.9 176.55 137.9
L 176.05 136.3 175.65 135.4
Q 174.95 134.15 173.55 132.95 172.7 132.2 172.05 131.95 171.05 131.6 170.25 132.05 169.455859375 132.605859375 169.4 134.2 169.4087890625 134.616015625 169.45 135.1 169.45 135.3 169.6 135.5 169.7 135.65 169.85 135.55
L 169.85 135.45
Q 169.9181640625 135.2048828125 170.05 134.15 170.1275390625 133.78203125 170.25 133.5 170.4630859375 133.103125 170.8 132.95 171.55 132.7 172.35 133.5
M 105.4 60.25
L 105.1 60.95
Q 105.22265625 61.475 105.35 62
L 105.5 61.3
Q 105.95 60.15 106 59.75 105.95 59.05 106 58.7 106 58.1 106.45 57.85
L 106.3 57.45
Q 105.55 57.6 105.45 58.65 105.45 58.85 105.45 59.45 105.5 59.95 105.4 60.25
M 101.5 24.4
Q 101 24.5 100.9 25.65 100.75 35.45 100.8 39.65 100.8712890625 45.2501953125 101.2 49.95 101.50390625 50.4869140625 101.75 51.05 101.2072265625 38.6990234375 101.5 24.4
M 333.6 49.4
L 334.1 48.9
Q 334.35 48.6 334.7 47.6 334.4 47.55 334.15 47.7
L 333.8 48.05 332.95 48.7
Q 333.620703125 45.0580078125 334.25 41.35 330.7 47.05 328.95 54.95 328.608984375 56.450390625 328.15 58.8 327.97265625 59.94609375 327.75 61.25 327 65.6 326.6 67.55 325.8 71.45 323.35 79.55 319.4 92.55 316.45 99.05 313.9 104.6 309.4 111.85 304.15 120.05 301.55 124.15 299.35 127.7 293.2 138.4 288 147.35 284.6 152.5 280.95 158.15 280.05 159.75 278.759375 162.056640625 278 164.15 276.112109375 165.166015625 274.35 168.6
L 270.9 175.55
Q 269.75 177.9 263.8 191.1 259.5 200.6 256.3 206.4 254.75 209 253.55 209.7 251.85 210.75 249.4 210.4 249.13671875 210.3724609375 248.85 210.3 248.3447265625 210.253515625 247.8 210.1 245.3328125 209.548046875 243.05 207.95 242.8751953125 207.8294921875 242.7 207.7 242.5015625 207.18984375 242.35 206.55 241.85 204.85 241.7 202.9 241.65 201.25 241.7 199.6 241.85 197.55 242.4 195.95 242.75 194.75 243.4 193.45 245.2 189.75 247.75 187 249.1 185.55 249.35 184.95 250.75 183.95 252.85 181.6 255.1 179 256.2 178.1 257.4 177.2 258.4 177 259.6 176.8 261.9 177.85 262.7775390625 178.2095703125 263.65 178.5 264.1505859375 178.6900390625 264.6 178.85 266.4208984375 179.4072265625 268.3 179.8 267.213671875 178.8494140625 265.2 177.75 264.7955078125 177.5703125 264.35 177.35 263.7603515625 177.052734375 263.1 176.75 260.85 175.65 259.5 175.4 258.2 175.15 257.3 175.4 256.45 175.6 255.25 176.7 253.8 177.95 251.2 180.85
L 248 184.4
Q 245.5 187.25 244.9 188.05 243.5 189.95 242.15 192.6 241.15 194.75 240.85 196.4 240.35 198.9 240.75 203.35 240.901171875 205.18984375 241.25 206.5 239.5369140625 204.9392578125 238.3 202.9 234.95 197.4 235.05 189.65 235.1 184.5 237.1 175.95 239.1603515625 166.72734375 242.5 155.15 242.6361328125 154.9498046875 242.75 154.75 244.55 151.65 246.15 147 247.9 141.65 248.8 138.95 252.75 127.45 258.45 119 261.05 115.15 265.75 109.65 272.45 101.8 273.45 100.55 286.65 84.15 293.6 64.05 295.8 57.8 297.75 49.8 299 44.6 301 35.2 302.1 30 302.5 27.65 302.6263671875 26.8138671875 302.7 26 302.8423828125 25.886328125 302.9 25.8 303.1 25.55 303 25.3
L 302.8 25.3
Q 303.1638671875 22.4083984375 303.2 19.95 301.2390625 24.4376953125 299.55 30.3 299.0162109375 32.235546875 298.5 34.3
L 295.1 49.05
Q 292.7 59.3 290.05 66.85 286.75 76.25 282.4 83.55 278.55 90.05 265.8 105.45 254.7 118.85 250.5 128 249 131.3 247.05 136.9 244.6 143.9 243.8 145.95 242.9103515625 148.2060546875 241.9 150.2
L 241.9 150.2
Q 241.8615234375 150.3125 241.8 150.4 238.1955078125 157.748046875 233.3 161.75 231.8 162.95 231.45 163.3 231.0587890625 163.6521484375 230.75 164 230.23984375 163.8599609375 229.6 163.9 229.4138671875 163.9037109375 229.2 163.9 228.0697265625 163.912890625 227 163.8 223.7103515625 163.5181640625 221.55 162.2 218.07421875 160.1724609375 216.4 155.25 216.5833984375 154.784375 216.8 154.15 217.35 152.5 218.7 149.7
L 220.45 146.1
Q 220.7 145.65 221.8 144.05 223.45 141.8 225.25 139.9
L 227.25 138.05
Q 228.35 137.15 229 136.8 230.1 136.2 232.5 135.7 232.8 136.1 233.95 136.2 235.2 136.35 236.9 137.25 238.371875 138.0154296875 239.05 138.35 239.5765625 138.63828125 239.7 138.7 239.95 138.3 239.5 137.75 239.484765625 137.729296875 239.45 137.7 237.8142578125 135.4908203125 233.95 134.5
L 232.3 134.2
Q 231.4 134.15 230.5 134.35 228.7 134.8 226.8 136.35 224.8 137.9 222.75 140.35 221.2 142.3 219.55 145.15 218 147.95 217.1 149.9
L 216.35 151.75
Q 216.0736328125 152.4962890625 215.8 153.25 215.582421875 152.221484375 215.4 151.1 213.7201171875 140.6390625 217.2 127.95 218.3158203125 124.0376953125 219.9 119.9 222.1 114.2 226.45 105.35 232.05 94 233.4 90.95 237.35 82.35 243.15 66.05 244.95 61.15 245.75 58.55 247.05 54.4 247.6 50.9 247.95 48.6 248.2 44.7 248.55 40.05 248.7 38.45 249.4 32.55 251.75 24.6 253.1 20.05 256 11 257.97578125 4.6490234375 257.75 0.6
L 246 0.6
Q 246.8 9.5923828125 246.8 12.2 246.8 39.45 231.65 77.9 227.85 87.5 221.2 104.05 220.8884765625 104.8994140625 220.6 105.7 217.378125 114.8279296875 216.65 120.75 209.79765625 140.17578125 213.6 155.1 214.678125 159.382421875 216.6 162 217.9455078125 163.7474609375 219.65 164.75 221.6 165.9 224.5 166.2 225.2341796875 166.286328125 226.3 166.3 227.2654296875 166.3470703125 228.5 166.3 229.0513671875 166.3173828125 229.65 166.3 231.9 166.2 231.75 164.95 231.738671875 164.8150390625 231.7 164.7 234.700390625 163.6974609375 237.4 161.35 238.0603515625 160.785546875 238.65 160.15 236.40546875 167.6673828125 234.6 175.1 233.1021484375 181.28359375 232.65 185.45 232.534765625 186.721875 232.5 187.8 232.2 194.05 234.1 200.15 235 203.2 236.4 205.5 238.45 208.85 241.9 211 242.31796875 211.2626953125 242.75 211.5 244.7076171875 212.5953125 246.8 213.1 247.314453125 213.2552734375 247.85 213.35 248.560546875 213.48359375 249.3 213.55 249.81171875 213.6029296875 250.3 213.6 253.0265625 214.830859375 256.35 213.4 258.85 212.3 261.5 209.2 263.8 206.55 264.9 203.9 265.3 202.8 265.9 200.5 266.051953125 199.8923828125 266.15 199.35 266.3994140625 200.103515625 266.7 200.85 268.25 204.8 271.25 207.5 274.3 210.3 278.4 211.25 278.692578125 211.3162109375 278.95 211.35 279.963671875 211.5587890625 280.9 211.6 281.2806640625 211.6958984375 281.7 211.75 285.95 212.4 287.75 212.25 288.9 212.25 290.1 211.95 290.95 211.75 292 211.35
L 293.7 210.5
Q 296.75 208.75 298.8 206 299.45 205.15 300.2 203.9
L 301.75 201.45
Q 303.65 198.45 304.4 196.85 305.25 194.95 306.1 191.7 306.183203125 191.3947265625 306.25 191.1 306.577734375 190.79453125 306.75 190.5 308.5048828125 210.2849609375 310.55 230.7 313.9126953125 264.4541015625 318.1 299.95
L 321.05 299.95
Q 317.4265625 265.7943359375 313.4 229.9 310.929296875 207.7560546875 308.3 184.95 309.9603515625 182.89453125 312 180.45 318.3 172.95 321 168.1 323.3 163.95 325.6 157.45 328.1 150.1 329.45 146.45 332.6 138.05 343.8 116.95 347.5005859375 109.9853515625 350.25 103.95
L 350.25 97.45
Q 349.71015625 98.4677734375 349.15 99.55
L 335.9 125.05
Q 329.1 138.3 326.5 144.9 324.7 149.55 321.45 159 318.35 167.2 314.8 172.25 312.95 174.8 308.55 179.65 304.2 184.4 302.3 187.1 300.95 189.1 298.25 193.95 295.75 198.45 294.05 200.7 291.4 204.2 288.25 206.2 284.6 208.5 280.85 208.4 280.478125 208.3939453125 280.1 208.35 279.8529296875 208.336328125 279.6 208.3 277.8900390625 205.9421875 276.6 203.4 275.8 201.85 274.5 198.65
L 274.7 198.25 273.85 197.4
Q 273.55 197.7 273.25 197.7 273.15 198.65 273.75 200.15 275.4154296875 204.65859375 277.45 207.8 276.21484375 207.3875 275 206.65 272.3 205.05 270.5 202.4 267.3080078125 197.70859375 267.3 191.15
L 278.05 167.95
Q 278.645703125 166.584765625 278.7 165.6 281.6076171875 162.0689453125 284.6 157.6 286.95 154.15 291.35 147.05
L 303.85 126.85
Q 310.1 116.75 313 111.6 317.85 103 320.9 95.7 323.9 88.4 326.35 79.35 328.2 72.55 330.3 62.5 331.533203125 56.48046875 332.7 50.25 333.0673828125 49.9326171875 333.6 49.4
M 134.9 157.4
Q 134.9474609375 157.33359375 135 157.25 135.2732421875 156.945703125 135.8 156.5 136.45 155.9 136.7 155.55
L 136.55 155.15
Q 135.468359375 155.996484375 134.75 156.85 134.69453125 156.9435546875 134.65 157
L 133.8 158.15 132.55 159.4
Q 132.5 159.5 131.75 160.55 131.25 161.2 130.8 161.5 130.45 161.75 129.7 162.1 129.1 162.5 129 163 130.15 162.75 131.4 161.5 132.7 160 133.4 159.35 134.2 158.6 134.3 158.4
L 134.9 157.4
M 117.45 169.75
Q 117.25 170.4 117.8 170.65 125 164.05 132.85 156.15 133.4912109375 155.562109375 133.9 155 134.263671875 154.515625 134.45 154.05 134.0884765625 154.185546875 133.7 154.4 131.88984375 155.3421875 129.35 157.8
L 118.05 168.9
Q 117.55 169.4 117.45 169.75
M 109.8 107.8
Q 109.1861328125 107.7578125 108.2 108.65 104.85 111.7 97.45 117
L 88 123.75
Q 95.25 119.8 106.4 111.15 108.92734375 109.205859375 109.85 107.85 109.8748046875 107.8376953125 109.9 107.8 109.8603515625 107.7939453125 109.8 107.8
M 53.25 144.3
Q 51 145.65 50.6 147.15 54.85 144.75 58.25 143.2 62.1 141.5 67.4 140.05
L 71.1 139 71.3 138.95
Q 71.75 138.75 71.8 138.6 71.9 138.5 71.8 138.3 71.75 138.15 71.6 138.15 71.191015625 138.15 70.8 138.15 69.519140625 138.2041015625 68.3 138.35 67.2853515625 138.538671875 66.3 138.8 64.75 139.2 61.05 140.6 55.55 142.85 53.25 144.3
M 72.5 147
L 72.5 147
Q 71.85 147.15 71.15 147.75 64.15 153.25 57.75 159.35 54.2 162.7 52.9 165.1 53.45 165.4 54.35 164.5 58.65 159.65 68.4 151.95
L 73.75 147.65
Q 73.7 147.3 73.3 147.1 72.9109375 146.90546875 72.5 147
M 72.7 217.55
Q 72.2 217.55 71.85 218 71.5 218.35 71.3 219 71.45 219 71.9 218.65
L 72.6 217.95 72.7 217.55
M 70.05 214.7
Q 69.8 214.95 69.3 215.55 68.9 215.9 68 216.45 67.4 216.85 66.35 217.95 66.05 218.2 65.5 218.65 65 219.25 65.35 219.65 65.75 219.9 66.55 219.3
L 71.95 214.6
Q 73.35 213.25 74.15 211.5
L 70.05 214.7
M 70.05 212.5
Q 69.25 213.2 67.65 214.85 66.1 216.45 65.2 217.15 64.7 217.6 63.15 218.6 61.8 219.5 61.1 220.15 59.65 221.45 59.05 223.15 59.65 223.3 60.65 222.5
L 74.55 210.2
Q 73.75 209.85 72.4 210.8 71 211.65 70.05 212.5
M 86.45 235.85
Q 93 236.1 98.25 239.95 99.95 241.2 103.2 244.05 106.1 246.4 108.7 246.9 102.35 239.1 93.25 235.3 88.9 233.5 86.6 235.05
L 86.45 235.85
M 81.3 237.85
L 81.15 237.4
Q 81 237.65 80.5 237.95 79.95 238.25 79.8 238.45 79.55 238.75 79.45 239.7 79.25 244.45 79.9 246.75 80.4 248.55 82.25 251.7 83.6 254 84.8 254.45
L 81.9 248.4
Q 81.1 246.45 80.95 245.8 80.55 244.25 80.65 242.15 80.75 240.2 80.95 238.25
L 81.3 237.85
M 116.1 206.9
L 111.9 210.05
Q 107.6 213.25 105.7 215.25
L 103.8 217.6
Q 103.2 218.5 103.3 219.05 104.3 218.85 105.7 217.05 107.25 215.05 110.85 211.95 114.65 208.7 116.1 206.9
M 116.7 202.7
Q 115.45 202.25 113.55 203.85 108.25 208.2 103.05 213.25 101.4 214.85 100.65 215.9 99.45 217.45 99.15 219
L 100 219.15
Q 102.25 215.25 107.85 210.55 114.95 204.65 116.7 202.7
M 126.55 245.75
Q 126.1 243.75 126.1 241.6 126.15 239.5 127 234.25 124.75 235.7 124.45 239.85 124.25 244.05 125.8 248.3 127.8 253.65 131.55 256.1 129.45 252.75 128.6 251.1 127.1 248.25 126.55 245.75
M 104.4 109.2
L 104.15 108.85
Q 96.55 113.05 88.65 117.85 87.65 118.4 87.85 119 88.65 118.95 89.5 118.45 89.95 118.25 91 117.45 92.35 116.5 94.4 115.4 96.75 114.2 97.9 113.55 101.25 111.7 104.4 109.2
M 59.85 150.95
Q 58.6 151.2 56.55 152.85 54.5 154.5 53.8 155.25 53.25 155.85 52.15 157.2 51.1 158.3 50.15 158.65
L 50.3 159
Q 51.45 158.7 52.65 157.5 53.95 156 54.6 155.3 55 154.9 56.5 153.75
L 58.9 152
Q 59.7 151.4 59.85 150.95
M 80.15 160.7
L 80 160.3
Q 79.95 160.4 79.7 160.45 79.6 160.5 79.55 160.65 79.4 161 79.2 161.1
L 78.75 161.55 78.65 161.7
Q 78.6 161.85 78.7 162.15 78.9 162.1 79.25 161.65 79.4 161.5 80.15 160.7
M 26.45 167.7
Q 27.25 167.4 28.9 166.8 30.3 166.15 30.9 165.25 30.9 164.7 30.05 164.95 25.15 166.5 19.85 170.05 16.55 172.25 10.7 177.1 9.75 177.85 10.15 178.45
L 20 171.5
Q 24.25 168.5 26.45 167.7
M 20.65 164.05
Q 21.9 163.65 24.4 163.1 26.6 162.5 27.85 161.55 25.5 160.35 21.4 161.9 11.8 165.65 5.5 173.8
L 7.2 173.2
Q 11.4 169.4 15.85 166.55 18.4 164.85 20.65 164.05
M 24.7 170.55
Q 23.95 171.15 22.4 172.2
L 19.15 174.6
Q 18.8 174.95 18.75 175.05 18.65 175.4 18.85 175.55 20.05 175.2 22.05 173.7 24.25 172.1 25 171
L 24.7 170.55
M 78.85 117.85
Q 78.3 118.7 78.45 119.85 79.2 120.1 79.85 119.7 79.5 119.25 80.2 118.4 81.85 116.6 83.7 115.05
L 87.25 112.15
Q 88.55 111.05 89.25 110.6
L 104.05 103.1
Q 105.4 102.35 105.85 101.55 103.9 101.4 102.3 101.95 101.8 102.15 99 103.65 97.75 104.3 94.6 105.75 91.8 107 90.3 107.9 88.6 108.95 84.85 112.05
L 79.65 116.9
Q 79.05 117.5 78.85 117.85
M 46.15 90.75
Q 46.65 91.05 47.55 91.65 47.8 91.75 48 91.65 48.1 91.6 48.15 91.5 48.2 91.35 48.15 91.3 47.7 91.25 46.6 90.3
L 44.2 88.3
Q 43.55 87.65 43.1 87.85 43.25 89.15 44.35 89.85 44.9 90.25 46.15 90.75
M 3.7 18.35
L 3.45 17.35
Q 3.05 16.5 2.95 16 2.85 15.6 2.85 14.5 2.8 13.5 2.6 13 2.3 12.95 2 13.15 1.75 15.25 1.85 16.7
L 2.05 18.2
Q 2.2 18.9 2.65 20.25
L 7.05 30.55
Q 7.75 32.05 8.8 34 9.1 34.6 10.4 36.7 11.7 38.95 12.7 40.1
L 14.45 42
Q 16.4 44.05 17.3 45.5 17.8 46.2 18.15 46 17.5 44.05 16.15 42.1 14.55 40.1 13.85 39.1 13.1 38 12.35 36.6
L 9.6 31.7
Q 8.15 29 7.1 26.6
L 3.7 18.35
M 313.75 163.15
Q 313.359375 162.90234375 312.9 162.65
L 305.35 158.6
Q 302.45 157 301.35 156.2 299.45 154.75 298.5 155.35 300.15 156.85 302.95 158.35 304.6 159.15 307.85 160.75 309.4 161.55 312.4 163.45
L 313.25 164 317.2 166.55
Q 316.5470703125 164.85234375 313.75 163.15
M 315.6 160.1
Q 315.29375 159.9314453125 314.95 159.75 313 158.95 312.05 158.45 311.3 158.1 309.8 157
L 306.55 154.95
Q 305.3 154.3 304.8 154.85
L 306.65 156.15
Q 308.55 157.55 309.55 158.15 310.45 158.7 312.35 159.6
L 315.1 160.95 317.85 162.25
Q 316.9599609375 160.9958984375 315.6 160.1
M 274.1 196.05
Q 273.9 196.55 274.05 197.05 274.2 197.6 274.65 197.55 276 193.95 279.4 190.5 281.5 188.35 286.05 184.9 288.7 182.85 290.45 182.65 292.2 182.45 295.4 183.9
L 297.65 184.9 299.55 185.75
Q 298.8947265625 184.9490234375 298.2 184.25 296.571875 182.650390625 294.8 181.8 291.6 180.25 288.75 181.2 287.25 181.75 285 183.5 280.65 186.9 278.55 189.05 275.3 192.45 274.1 196.05
M 297.55 93.75
Q 299.15 94.55 302.35 96.05 303.934375 96.8662109375 306.95 98.65 307.07265625 98.7244140625 307.2 98.8 307.4748046875 98.9494140625 307.75 99.05 310.266796875 100.3595703125 312.3 100.45 313.05 100.45 313.2 100.05 310.8232421875 99.10234375 308.45 98.05 308.0654296875 97.865234375 307.65 97.65 302.3705078125 95.2884765625 297.25 92.4 294.75 90.9 293.25 90.8 294.75 92.35 297.55 93.75
M 297.85 85.45
Q 296.25 84.7 295.5 84.95 296.5 86.25 299.7 87.8 305.358984375 90.66875 310.35 94.1 310.7373046875 94.37578125 311.1 94.6 312.084765625 95.3279296875 313.05 96.05 315.45 97.8 316.75 98.1 316.45 96.9 314.6 95.5 313.25625 94.5390625 311.85 93.6 311.5306640625 93.383984375 311.15 93.15 304.8064453125 88.90859375 297.85 85.45
M 338.1 91
Q 337.3 90.5 336.85 90.85 337 91.5 338.35 92.2 339.15 92.65 340.55 93.8 341.95 94.95 342.7 95.35 343.062109375 95.551171875 343.6 95.75 344.4046875 96.131640625 345.6 96.55 347.6 97.2 348.5 97.75 348.9 98 349.1 98 349.6 98 349.5 97.65 348.45 96.65 347.3 96.1 346.75 95.85 345.75 95.55 344.65 95.25 344.2 95.05 344.13828125 95.025390625 344.05 95 342.85859375 94.4783203125 341.1 93.1 339 91.5 338.1 91
M 332.85 92.9
L 332.35 93.2
Q 333.45 94.2 336.15 95.5
L 341.05 97.85
Q 341.573046875 98.0865234375 342.05 98.3 345.115625 99.5931640625 347.6 100.15 347.4 99.65 346.3 99.2 344.3537109375 98.4349609375 342.45 97.6 337.385546875 95.423828125 332.85 92.9
M 274.05 160.8
L 274.1 160.8
Q 274.3 160.8 274.4 160.65 274.5 160.45 274.4 160.3
L 274.35 160.3 267.2 158.4
Q 266.05 158.15 265.25 157.8 264.55 157.5 263.35 156.75 262.05 156 261.4 155.7
L 260.9 155.95
Q 262.2 157.45 264 158.3 265.4 159 268.4 159.7 270.8 160.2 271.8 160.35 273.05 160.45 273.4 160.6 273.85 160.825 274.05 160.8
M 304.75 162.75
Q 304.45 162.65 304.25 162.85 305.55 164.55 307.7 164.7
L 307.85 164.4
Q 306.65 164.05 305.25 163.05 305 162.8 304.75 162.75
M 240.5 115.45
Q 239.1 114.9 238.4 114.6 237.15 114.1 236.25 114 236.1 114.25 236.25 114.6 236.4 114.9 236.65 115.05 237.05 115.25 237.85 115.45 238.45 115.6 239.5 116.15 239.55 116.2 240.5 116.45
L 246.75 117.85
Q 245.8 116.8 243.8 116.25 241.6 115.8 240.5 115.45
M 233.5 110.4
Q 233.8 110.85 234.55 111.2 239.85 114.3 245.7 116.1 248.15 116.85 249.6 116.5 248.65 115.7 246.55 115.05 241.8 113.4 240.95 113.05 237.85 111.85 235.65 110.5 234 109.45 233.45 109.2 233.05 109.75 233.5 110.4
M 301.75 81.55
Q 301.45 81.85 301.65 82.3 301.8 82.55 302.25 82.9
L 311.75 89.75
Q 312.55 90.3 312.95 90.35 309.2 86.8 307.5 85.55 303.5 83.1 301.75 81.55
M 275.6 66.9
Q 277.4 68 278.55 68.45 280.3 69.1 281.75 68.75 269.85 62.6 259.1 55.5 257.8 54.55 256.85 54.5 256.5 54.8 256.8 55.3 257.05 55.75 257.55 56.05
L 275.6 66.9
M 280.45 65.55
Q 281.85 66.1 282.45 65.5 274.2 62.1 266.85 56.9 263.15 54.2 259.9 51.25 268.5 60.8 280.45 65.55
M 265.9 48.4
Q 265.4 48.55 265.6 49.2 265.75 49.45 266.25 49.85 275.3 56.5 284.35 62.05 280.1 58.05 275.4 55.1 272.1 53.1 270.45 52 267.6 50.15 265.9 48.4
M 274.95 158.5
Q 275.1603515625 158.5701171875 275.35 158.6 275.725390625 158.66484375 276.05 158.6 276.4046875 158.5455078125 276.55 158.35 276.6830078125 158.2677734375 276.7 158.1 276.7431640625 158.0689453125 276.75 158 276.3162109375 157.83984375 275.9 157.65 270.053125 155.483203125 267.3 153.85 265.65 152.85 263.8 151.45
L 258.1 147.5
Q 257.9 148.25 258.6 148.95 258.9 149.25 260 149.85 260.9 150.4 263.45 152.5 268.5 156.65 274.95 158.5 Z"/>

<path fill="#FCD0C7" stroke="none" d="
M 232.55 27.4
Q 231.7744140625 9.29296875 231.5 0.6
L 82.35 0.6
Q 87.4369140625 31.2828125 89.05 40.2 90.819140625 49.767578125 92.3 56.55 95.4669921875 62.02890625 98.5 67.1 99.1814453125 64.477734375 100.1 60.65 102.55 50.6 102.85 49.6
L 102.85 49.05
Q 102.8587890625 49.437890625 103 50.9 103.8548828125 47.076953125 105.9 39.8
L 107.5 34.1
Q 107.65 35.45 107.3 37.15 107.15 38.05 106.5 40.1 104.5474609375 46.3818359375 103.25 52.9 104.0123046875 58.8306640625 106.05 73.7 106.5861328125 77.573046875 107.05 80.9 110.382421875 86.1326171875 113.6 90.9 116 94.45 120.75 101.45 124.9 107.6 127.6 112.25 130.9 118 134.45 125.55 136.55 130.05 140.55 139.2 141.85 142.3 141.85 143.95 141.7755859375 143.9435546875 141.7 143.9 143.7158203125 145.6484375 145.7 147.85 148.2033203125 150.6970703125 151.6 155.5 151.6859375 155.6095703125 151.75 155.7 156.85 163.15 159.85 168.95 163.65 176.45 165.15 183.4 166.4255859375 189.19453125 166.05 194.75 166.85 199.9970703125 166.85 205.35 166.85 216.45 162.85 222.45 161.85 223.95 160.1 226.3 158.85 228.35 158.85 230.75 158.85 232.5 159.75 237.1 160.6 241.7 160.6 243.35 160.6 250.25 158.3 256.35 156.3 261.8 151.45 269.15 149.3 272.35 139.8 285.45 134.322265625 293.0595703125 129.55 299.95
L 318.1 299.95
Q 313.9126953125 264.4541015625 310.55 230.7 307.800390625 231.3 304.55 231.3 296.2 231.3 284.65 224.8 279.2 221.5 277.15 220.3 273.7 218.25 272.5 218.25 271.55 218.25 265.65 219.4 259.8 220.55 259.1 220.55 249.618359375 220.55 242.75 211.5 242.31796875 211.2626953125 241.9 211 238.45 208.85 236.4 205.5 235 203.2 234.1 200.15 232.2 194.05 232.5 187.8 232.534765625 186.721875 232.65 185.45 232.6046875 184.9818359375 232.55 184.5 231.75 177.4 228.2 174.35 223.8 171.8 221.7 169.65 218.42890625 166.344140625 216.6 162 214.678125 159.382421875 213.6 155.1 209.79765625 140.17578125 216.65 120.75 217.378125 114.8279296875 220.6 105.7 221.8013671875 100.4828125 223.4 93.6 232.55 54.2 232.55 27.4
M 100.9 25.65
Q 101 24.5 101.5 24.4 101.2072265625 38.6990234375 101.75 51.05 101.50390625 50.4869140625 101.2 49.95 100.8712890625 45.2501953125 100.8 39.65 100.75 35.45 100.9 25.65
M 105.1 60.95
L 105.4 60.25
Q 105.5 59.95 105.45 59.45 105.45 58.85 105.45 58.65 105.55 57.6 106.3 57.45
L 106.45 57.85
Q 106 58.1 106 58.7 105.95 59.05 106 59.75 105.95 60.15 105.5 61.3
L 105.35 62
Q 105.22265625 61.475 105.1 60.95
M 163.95 133.4
Q 163.95 132.2890625 164.6 130.8 165.15 127.75 166.45 126.4 167.65 125.1 169.65 125.1 175.56015625 125.1 185.25 139.75 185.7021484375 140.453515625 186.15 141.15 186.937890625 142.380859375 187.75 143.7 193.55 153.1 198.85 163.4 200.6 165.2 201.55 168.7 201.6 168.95 202.85 175.35 203.2 177.25 205.75 181.3 208.25 185.4 208.55 186.75 210.5 196 215.55 202.25 216.75 203.75 218.7 205.95 220 207.7 220 209.05 220 210.5 218.85 212.3 217.7 214.05 217.7 214.8
L 217.7 221.1
Q 217.1 225.6 213.95 225.6 209.0216796875 225.6 201 216.6 200.5 216.5 200.35 216.4 200.15 216.25 200.1 215.9 200.0234375 215.5935546875 199.95 215.4 199.7197265625 215.1201171875 199.45 214.8 190.3 203.95 190.3 197.35 190.3 196.7 190.85 195.2 191.4 193.75 191.4 193.05 191.4 192.05 187.55 187.9 183.35 183.45 182.85 182.25 182.55 181.5 181.6 176.65 180.9 172.9 178.85 170.25 177.2 168.05 176.25 165.15 175.55 162.85 174.9 158.8 174.35 155.4 171 153.6 167.95 152 167.95 147.95 167.95 143.15 165.95 138.6 163.95 134.05 163.95 133.4
M 223.05 221.85
Q 223 222.15 222.75 222.3 222.55 222.4 222.1 222.4 221.75 222.4 221.6 222.2 221.45 222.05 221.45 221.65
L 221.45 220.6
Q 221.45 220.05 221.55 219.8 221.75 219.35 222.2 219.45
L 222.2 219.35
Q 222.85 219.55 222.95 219.9
L 222.95 220.2 223.05 220.55 223.1 221.25 223.05 221.85
M 223.85 215.3
Q 223.85 215.15 223.65 215.15 222.9 214.9 222.45 214.35 221.9 213.75 221.95 213 221.95 212.2 222.55 211.7 223.15 211.15 223.95 211.25
L 223.95 211.05
Q 224.5 211.05 224.95 211.5 225.1 211.6 225.7 212.35 226.05 212.95 226.1 213.2 226.15 213.6 226 214.1 225.7 214.75 225.35 215 224.9 215.3 223.85 215.3
M 211.75 187.3
Q 211.6 187 211.6 186.95 211.55 186.85 211.65 186.6 211.95 185.95 212.6 185.95
L 212.6 185.85
Q 213.2 185.95 213.6 186.5
L 213.65 186.75 213.65 187
Q 213.45 187.55 213.2 187.65
L 212.8 187.7 212.05 187.7 211.75 187.3
M 176.25 181.95
Q 176.55 181.95 176.4 181.8 177.45 182.05 178.15 182.45 178.6 182.7 178.7 182.85 178.7 182.9 178.85 183.55 178.95 184.85 178.95 184.9 178.9 185.65 178.55 186.1 177.9 186.9 176.55 186.7 175.9 186.6 175.45 186.3 174.9 185.85 174.85 185.3
L 174.9 184.6
Q 174.85 183.95 174.85 183.6 174.8 183.05 175 182.7 175.35 181.85 176.25 181.95
M 175.7 177.15
L 175.7 177
Q 176.4 177.1 176.65 177.3 177.15 177.7 177.05 178.2
L 176.85 178.65 176.5 179.2
Q 176.15 179.15 175.5 179.15
L 175.25 179.1 175 178.85 174.8 178.45 174.75 178.05
Q 174.75 177.65 174.85 177.5
L 175.15 177.25
Q 175.45 177.1 175.7 177.15
M 181.6 192.1
L 181.6 191.95
Q 182.4 192.2 182.5 192.3 182.55 192.35 182.9 192.8 183.05 193.25 183.05 193.3
L 182.95 193.8
Q 182.6 194.45 182.35 194.6 182.15 194.7 182.15 194.8 181.1 194.8 180.65 194.4 180.3 194.1 180.3 193.5 180.25 192.9 180.6 192.45 181.05 192 181.6 192.1
M 178.15 117.05
Q 177.75 117.15 177.35 117.05 176.85 117.05 176.6 116.9 175.85 116.55 175.95 115.6 175.95 115.2 176.1 114.9 176.5 114.3 177.25 114.4
L 177.25 114.25
Q 177.9 114.15 178.45 114.5 178.8 114.75 178.85 114.8
L 179.05 115.15 179.2 115.6
Q 179.25 116.05 178.8 116.5 178.55 116.9 178.15 117.05
M 179.5 121.35
Q 179.85 121.15 180.3 121.15
L 180.3 121.05
Q 181.05 121.25 181.3 121.6
L 181.5 122.05
Q 181.6 122.65 181.55 122.95 181.45 123.55 181.05 123.75 180.7 124 179.95 123.9
L 179.75 123.85 179.15 123.25 179.1 122.95
Q 179.05 122.65 179.15 122.05 179.25 121.6 179.5 121.35
M 162.4 126.85
Q 163 127.4 162.95 128.1 162.9 128.7 162.25 129.15
L 161.8 129.45 160.85 129.45 160.5 129.4
Q 160.25 129.4 160.1 129.15 159.45 128.6 159.55 127.7 159.6 127.2 159.9 126.85 160.25 126.45 160.7 126.45 161.05 126.45 161.1 126.3 161.95 126.45 162.4 126.85
M 162.1 132.7
Q 162.6 133 162.75 133.5 162.95 134 162.7 134.55 162.5 135.1 162.05 135.35 161.6 135.65 160.7 135.55
L 160.25 135.4
Q 159.95 135.25 159.75 134.9 159.4 134.35 159.45 133.85 159.45 133.25 159.95 132.85 160.25 132.6 161 132.5
L 161.1 132.45
Q 161.65 132.4 162.1 132.7
M 163.5 148.45
Q 163.75 148.1 164.15 148.2
L 164.15 148.1
Q 164.3 148.2 164.65 148.3 164.75 148.4 164.9 148.65
L 165.1 148.9 165.15 149.25
Q 165.15 149.8 164.9 149.95 164.75 150 164.7 150.1 164.55 150.25 164.6 150.3 163.9 150.25 163.6 150.05 163.3 149.85 163.3 149.2 163.3 148.65 163.5 148.45
M 216.75 196.75
L 216.75 196.65
Q 217.55 196.85 217.9 197.2 218.3 197.55 218.3 198.2 218.3 198.75 217.8 199.15 217.55 199.45 217.5 199.5 216.75 199.5 216.45 199.35
L 216.05 199.05
Q 215.75 198.8 215.65 198.6 215.55 198.45 215.55 197.95
L 215.6 197.5 215.9 197.05
Q 216.4 196.65 216.75 196.75
M 219.55 200.25
L 219.6 200.2
Q 220.2 200.15 220.65 200.6 221.05 201 221.2 201.6 221.3 201.95 221.25 202.2 221.2 202.55 220.85 202.9 220.45 203.3 220.25 203.5 219.2 203.6 218.75 203.3
L 218.35 202.9
Q 217.95 202.35 218.05 201.7 218.1 201.1 218.55 200.7 219 200.25 219.55 200.25
M 223.1 197.55
L 223.1 197.45
Q 223.85 197.65 224.05 197.95 224.4 198.3 224.3 198.95 224.2 199.95 223.55 200.15 223.25 200.3 222.85 200.15 222.3 200.05 222.05 199.6
L 222 199.1 222 198.15
Q 222.05 197.95 222.35 197.75 222.65 197.45 223.1 197.55
M 213.9 229.75
Q 214.4 229.85 214.65 230.1 215.05 230.35 215.15 230.75 215.25 231.1 215 231.45 214.8 231.8 214.45 231.85 214.1 231.95 213.6 231.75 213.2 231.45 213.1 231.2 212.9 230.75 213.25 230.2
L 213.5 229.9
Q 213.7 229.8 213.9 229.85
L 213.9 229.75
M 209.25 229.35
L 209.65 229.5 209.7 229.65
Q 209.9 230.25 209.5 230.55
L 209.3 230.7 209.15 230.7
Q 208.45 230.7 208.15 230.55
L 208 230.45 207.95 230.3 207.9 229.85
Q 208 229.55 208.2 229.5
L 209 229.3 209.25 229.35
M 68.6 27.45
Q 59.123828125 10.174609375 54.25 0.6
L 1.15 0.6 1.15 172.65
Q 6.3841796875 180.433984375 12.55 187.05 18.1 193.05 26.9 200.75 31.9 205.1 41.95 213.75 52 222.7 68.5 239.4
L 86.85 257.85
Q 90.05 261.05 92.2 261.75 96.35 263.1 101.25 259.7 105.95 256.45 108.1 250.8 108.78984375 249.028515625 109.1 247.25 99.9939453125 230.264453125 84.05 214.7 81.85 212.6 66.7 198.8 56.5 189.5 50.85 182.8 39.7 169.65 33.7 158.05 26.567578125 144.30625 18.8 131.1 14.9857421875 125.548828125 10.75 119.25 10.7255859375 119.258984375 10.7 119.25
L 7.95 118 7.55 117.75
Q 7.2 117.4 7.3 117 7.55 117 7.6 116.85 7.7 117.15 8.6 117.5
L 10.1 118.3
Q 8.33828125 115.690234375 6.5 112.95 9.65 115.55 12.9 119.4 14.95 121.8 18.45 126.6 27.55 138.95 45.65 163.75 61.7 184.75 75.85 198.25 78.3 200.6 86.15 207.7 92.55 213.5 96.25 217.25 102.2 223.25 112.05 235.15 122.6 247.85 127.65 253.2 129.75 255.35 131.15 256.45 133.2 258.1 135.2 258.8 138.85 260 142.85 258.5 146.65 257.05 149.1 253.75 153.315234375 248.05 152.5 239.4 151.4216796875 238.962890625 150.15 238.1 146.9 235.6 145.25 234.45 139.6 230.7 133 230.45 132.5 230.3 132.4 230.2 132.25 229.95 132.5 229.7 132.7 229.45 133.05 229.3 135.45 228.5 139.55 229.95 147.95 232.95 152.2 238.1 152.3240234375 238.2716796875 152.4 238.4 152.396875 238.219921875 152.35 238 152.0619140625 235.9552734375 151.45 233.65 147.1076171875 228.008203125 142.55 223.1 130.9 211.9 127.85 207.9 124.8 203.85 117.95 192.6 110.9 181 106.75 175.35 101.65 168.35 87.3 157.3 79.6 151.4 76.25 148.45 75.7 147.95 75.3 147.55 73.8 146.15 73.6 145.65 72.7 143.1 71.6 140.2 71.360546875 139.5771484375 71.1 139
L 67.4 140.05
Q 62.1 141.5 58.25 143.2 54.85 144.75 50.6 147.15 51 145.65 53.25 144.3 55.55 142.85 61.05 140.6 64.75 139.2 66.3 138.8 67.2853515625 138.538671875 68.3 138.35 69.519140625 138.2041015625 70.8 138.15 68.394140625 132.1083984375 65.25 124.6 60.7927734375 114.0673828125 56.5 105.15 48.65 92.99296875 44 82.05 54 97.85 65.2 112.55 69.95 118.75 76.25 126.65
L 118.15 179.3
Q 127 190.45 133.85 198.6 136.310546875 201.5169921875 138.55 203.9 137.2453125 201.5337890625 136.9 200.35 136 197.55 136.35 193.9 136.6 190.95 137.6 188.9 138.85 186.3 141.2 185.35 141.1 186 140.7 186.75 140.45 187.2 139.85 188.1 138.15 190.8 137.75 194.1 137.35 197.35 138.3 200.4 139.1357421875 203.1859375 142 207.45 144.66640625 210.0291015625 147 211.8 149.4 213.65 151.2 213.8 154.6 214.05 157.75 209.85 161.103125 205.2859375 162.35 199.2 161.5548828125 198.728125 160.75 197.95 160.1 197.3 158.3 195.15 153.15 189.05 147.75 187.5 145.4 186.9 145.4 185.7 151.15 186 155.55 189.85 156.7 190.75 158.5 192.9 160.062109375 194.7515625 161.55 196.75 156.9404296875 186.850390625 150.7 177.55 146.55 171.35 141.2 164.8 136.474609375 159.1767578125 135 157.25 134.9474609375 157.33359375 134.9 157.4
L 134.3 158.4
Q 134.2 158.6 133.4 159.35 132.7 160 131.4 161.5 130.15 162.75 129 163 129.1 162.5 129.7 162.1 130.45 161.75 130.8 161.5 131.25 161.2 131.75 160.55 132.5 159.5 132.55 159.4
L 133.8 158.15 134.65 157
Q 134.69453125 156.9435546875 134.75 156.85 134.3587890625 156.2646484375 133.9 155 133.4912109375 155.562109375 132.85 156.15 125 164.05 117.8 170.65 117.25 170.4 117.45 169.75 117.55 169.4 118.05 168.9
L 129.35 157.8
Q 131.88984375 155.3421875 133.7 154.4 133.0349609375 152.416796875 132.25 149.15 130.7 142.6 128 138.8 116.6 122.9 114.85 119.95 113.249609375 117.1958984375 109.85 107.85 108.92734375 109.205859375 106.4 111.15 95.25 119.8 88 123.75
L 97.45 117
Q 104.85 111.7 108.2 108.65 109.1861328125 107.7578125 109.8 107.8 108.6625 104.6236328125 107.3 100.7 102 85.3 93.7 71.4 82.1 52.05 68.6 27.45
M 3.45 17.35
L 3.7 18.35 7.1 26.6
Q 8.15 29 9.6 31.7
L 12.35 36.6
Q 13.1 38 13.85 39.1 14.55 40.1 16.15 42.1 17.5 44.05 18.15 46 17.8 46.2 17.3 45.5 16.4 44.05 14.45 42
L 12.7 40.1
Q 11.7 38.95 10.4 36.7 9.1 34.6 8.8 34 7.75 32.05 7.05 30.55
L 2.65 20.25
Q 2.2 18.9 2.05 18.2
L 1.85 16.7
Q 1.75 15.25 2 13.15 2.3 12.95 2.6 13 2.8 13.5 2.85 14.5 2.85 15.6 2.95 16 3.05 16.5 3.45 17.35
M 47.55 91.65
Q 46.65 91.05 46.15 90.75 44.9 90.25 44.35 89.85 43.25 89.15 43.1 87.85 43.55 87.65 44.2 88.3
L 46.6 90.3
Q 47.7 91.25 48.15 91.3 48.2 91.35 48.15 91.5 48.1 91.6 48 91.65 47.8 91.75 47.55 91.65
M 78.45 119.85
Q 78.3 118.7 78.85 117.85 79.05 117.5 79.65 116.9
L 84.85 112.05
Q 88.6 108.95 90.3 107.9 91.8 107 94.6 105.75 97.75 104.3 99 103.65 101.8 102.15 102.3 101.95 103.9 101.4 105.85 101.55 105.4 102.35 104.05 103.1
L 89.25 110.6
Q 88.55 111.05 87.25 112.15
L 83.7 115.05
Q 81.85 116.6 80.2 118.4 79.5 119.25 79.85 119.7 79.2 120.1 78.45 119.85
M 22.4 172.2
Q 23.95 171.15 24.7 170.55
L 25 171
Q 24.25 172.1 22.05 173.7 20.05 175.2 18.85 175.55 18.65 175.4 18.75 175.05 18.8 174.95 19.15 174.6
L 22.4 172.2
M 24.4 163.1
Q 21.9 163.65 20.65 164.05 18.4 164.85 15.85 166.55 11.4 169.4 7.2 173.2
L 5.5 173.8
Q 11.8 165.65 21.4 161.9 25.5 160.35 27.85 161.55 26.6 162.5 24.4 163.1
M 28.9 166.8
Q 27.25 167.4 26.45 167.7 24.25 168.5 20 171.5
L 10.15 178.45
Q 9.75 177.85 10.7 177.1 16.55 172.25 19.85 170.05 25.15 166.5 30.05 164.95 30.9 164.7 30.9 165.25 30.3 166.15 28.9 166.8
M 80 160.3
L 80.15 160.7
Q 79.4 161.5 79.25 161.65 78.9 162.1 78.7 162.15 78.6 161.85 78.65 161.7
L 78.75 161.55 79.2 161.1
Q 79.4 161 79.55 160.65 79.6 160.5 79.7 160.45 79.95 160.4 80 160.3
M 56.55 152.85
Q 58.6 151.2 59.85 150.95 59.7 151.4 58.9 152
L 56.5 153.75
Q 55 154.9 54.6 155.3 53.95 156 52.65 157.5 51.45 158.7 50.3 159
L 50.15 158.65
Q 51.1 158.3 52.15 157.2 53.25 155.85 53.8 155.25 54.5 154.5 56.55 152.85
M 104.15 108.85
L 104.4 109.2
Q 101.25 111.7 97.9 113.55 96.75 114.2 94.4 115.4 92.35 116.5 91 117.45 89.95 118.25 89.5 118.45 88.65 118.95 87.85 119 87.65 118.4 88.65 117.85 96.55 113.05 104.15 108.85
M 126.1 241.6
Q 126.1 243.75 126.55 245.75 127.1 248.25 128.6 251.1 129.45 252.75 131.55 256.1 127.8 253.65 125.8 248.3 124.25 244.05 124.45 239.85 124.75 235.7 127 234.25 126.15 239.5 126.1 241.6
M 113.55 203.85
Q 115.45 202.25 116.7 202.7 114.95 204.65 107.85 210.55 102.25 215.25 100 219.15
L 99.15 219
Q 99.45 217.45 100.65 215.9 101.4 214.85 103.05 213.25 108.25 208.2 113.55 203.85
M 111.9 210.05
L 116.1 206.9
Q 114.65 208.7 110.85 211.95 107.25 215.05 105.7 217.05 104.3 218.85 103.3 219.05 103.2 218.5 103.8 217.6
L 105.7 215.25
Q 107.6 213.25 111.9 210.05
M 81.15 237.4
L 81.3 237.85 80.95 238.25
Q 80.75 240.2 80.65 242.15 80.55 244.25 80.95 245.8 81.1 246.45 81.9 248.4
L 84.8 254.45
Q 83.6 254 82.25 251.7 80.4 248.55 79.9 246.75 79.25 244.45 79.45 239.7 79.55 238.75 79.8 238.45 79.95 238.25 80.5 237.95 81 237.65 81.15 237.4
M 98.25 239.95
Q 93 236.1 86.45 235.85
L 86.6 235.05
Q 88.9 233.5 93.25 235.3 102.35 239.1 108.7 246.9 106.1 246.4 103.2 244.05 99.95 241.2 98.25 239.95
M 67.65 214.85
Q 69.25 213.2 70.05 212.5 71 211.65 72.4 210.8 73.75 209.85 74.55 210.2
L 60.65 222.5
Q 59.65 223.3 59.05 223.15 59.65 221.45 61.1 220.15 61.8 219.5 63.15 218.6 64.7 217.6 65.2 217.15 66.1 216.45 67.65 214.85
M 69.3 215.55
Q 69.8 214.95 70.05 214.7
L 74.15 211.5
Q 73.35 213.25 71.95 214.6
L 66.55 219.3
Q 65.75 219.9 65.35 219.65 65 219.25 65.5 218.65 66.05 218.2 66.35 217.95 67.4 216.85 68 216.45 68.9 215.9 69.3 215.55
M 71.85 218
Q 72.2 217.55 72.7 217.55
L 72.6 217.95 71.9 218.65
Q 71.45 219 71.3 219 71.5 218.35 71.85 218
M 72.5 147
L 72.5 147
Q 72.9109375 146.90546875 73.3 147.1 73.7 147.3 73.75 147.65
L 68.4 151.95
Q 58.65 159.65 54.35 164.5 53.45 165.4 52.9 165.1 54.2 162.7 57.75 159.35 64.15 153.25 71.15 147.75 71.85 147.15 72.5 147
M 261.9 177.85
Q 259.6 176.8 258.4 177 257.4 177.2 256.2 178.1 255.1 179 252.85 181.6 250.75 183.95 249.35 184.95 249.1 185.55 247.75 187 245.2 189.75 243.4 193.45 242.75 194.75 242.4 195.95 241.85 197.55 241.7 199.6 241.65 201.25 241.7 202.9 241.85 204.85 242.35 206.55 242.5015625 207.18984375 242.7 207.7 242.8751953125 207.8294921875 243.05 207.95 245.3328125 209.548046875 247.8 210.1 248.3447265625 210.253515625 248.85 210.3 248.9126953125 210.241796875 248.95 210.15 252.9216796875 199.326953125 264.6 178.85 264.1505859375 178.6900390625 263.65 178.5 262.7775390625 178.2095703125 261.9 177.85
M 334.1 48.9
L 333.6 49.4
Q 333.0673828125 49.9326171875 332.7 50.25 331.533203125 56.48046875 330.3 62.5 328.2 72.55 326.35 79.35 323.9 88.4 320.9 95.7 317.85 103 313 111.6 310.1 116.75 303.85 126.85
L 291.35 147.05
Q 286.95 154.15 284.6 157.6 281.6076171875 162.0689453125 278.7 165.6 278.645703125 166.584765625 278.05 167.95
L 267.3 191.15
Q 267.3080078125 197.70859375 270.5 202.4 272.3 205.05 275 206.65 276.21484375 207.3875 277.45 207.8 275.4154296875 204.65859375 273.75 200.15 273.15 198.65 273.25 197.7 273.55 197.7 273.85 197.4
L 274.7 198.25 274.5 198.65
Q 275.8 201.85 276.6 203.4 277.8900390625 205.9421875 279.6 208.3 279.8529296875 208.336328125 280.1 208.35 282.471875 203.4943359375 289.3 195 292.8740234375 190.5888671875 297.65 184.9
L 295.4 183.9
Q 292.2 182.45 290.45 182.65 288.7 182.85 286.05 184.9 281.5 188.35 279.4 190.5 276 193.95 274.65 197.55 274.2 197.6 274.05 197.05 273.9 196.55 274.1 196.05 275.3 192.45 278.55 189.05 280.65 186.9 285 183.5 287.25 181.75 288.75 181.2 291.6 180.25 294.8 181.8 296.571875 182.650390625 298.2 184.25 300.631640625 181.416015625 303.35 178.25 308.2392578125 171.9638671875 313.25 164
L 312.4 163.45
Q 309.4 161.55 307.85 160.75 304.6 159.15 302.95 158.35 300.15 156.85 298.5 155.35 299.45 154.75 301.35 156.2 302.45 157 305.35 158.6
L 312.9 162.65
Q 313.359375 162.90234375 313.75 163.15 314.2353515625 162.4095703125 314.7 161.65 314.9173828125 161.2912109375 315.1 160.95
L 312.35 159.6
Q 310.45 158.7 309.55 158.15 308.55 157.55 306.65 156.15
L 304.8 154.85
Q 305.3 154.3 306.55 154.95
L 309.8 157
Q 311.3 158.1 312.05 158.45 313 158.95 314.95 159.75 315.29375 159.9314453125 315.6 160.1 320.82578125 151.36484375 322.3 146.85 326.8 131.9 329.05 125.05 332.9 113.35 336.6 107.35 338.540625 104.1861328125 342.05 98.3 341.573046875 98.0865234375 341.05 97.85
L 336.15 95.5
Q 333.45 94.2 332.35 93.2
L 332.85 92.9
Q 337.385546875 95.423828125 342.45 97.6 343.0255859375 96.731640625 343.6 95.75 343.062109375 95.551171875 342.7 95.35 341.95 94.95 340.55 93.8 339.15 92.65 338.35 92.2 337 91.5 336.85 90.85 337.3 90.5 338.1 91 339 91.5 341.1 93.1 342.85859375 94.4783203125 344.05 95 346.7880859375 90.4869140625 350.25 84.7
L 350.25 0.6 257.75 0.6
Q 257.97578125 4.6490234375 256 11 253.1 20.05 251.75 24.6 249.4 32.55 248.7 38.45 248.55 40.05 248.2 44.7 247.95 48.6 247.6 50.9 247.05 54.4 245.75 58.55 244.95 61.15 243.15 66.05 237.35 82.35 233.4 90.95 232.05 94 226.45 105.35 222.1 114.2 219.9 119.9 218.3158203125 124.0376953125 217.2 127.95 213.7201171875 140.6390625 215.4 151.1 215.582421875 152.221484375 215.8 153.25 216.0736328125 152.4962890625 216.35 151.75
L 217.1 149.9
Q 218 147.95 219.55 145.15 221.2 142.3 222.75 140.35 224.8 137.9 226.8 136.35 228.7 134.8 230.5 134.35 231.4 134.15 232.3 134.2
L 233.95 134.5
Q 237.8142578125 135.4908203125 239.45 137.7 239.484765625 137.729296875 239.5 137.75 239.95 138.3 239.7 138.7 239.5765625 138.63828125 239.05 138.35 238.371875 138.0154296875 236.9 137.25 235.2 136.35 233.95 136.2 232.8 136.1 232.5 135.7 230.1 136.2 229 136.8 228.35 137.15 227.25 138.05
L 225.25 139.9
Q 223.45 141.8 221.8 144.05 220.7 145.65 220.45 146.1
L 218.7 149.7
Q 217.35 152.5 216.8 154.15 216.5833984375 154.784375 216.4 155.25 218.07421875 160.1724609375 221.55 162.2 223.7103515625 163.5181640625 227 163.8 228.0697265625 163.912890625 229.2 163.9 229.240234375 163.87734375 229.25 163.85 232.1 154.55 239 142.35 240.1 140.4 241.3 138.4 241.45 138.05 241.7 137.7 249.9 123.85 262.1 107.9 274.8 91.35 283.8 69.3 288.95 56.05 291.9 48.55 295.71875 38.896875 299.55 30.3 301.2390625 24.4376953125 303.2 19.95 303.1638671875 22.4083984375 302.8 25.3
L 303 25.3
Q 303.1 25.55 302.9 25.8 302.8423828125 25.886328125 302.7 26 302.6263671875 26.8138671875 302.5 27.65 302.1 30 301 35.2 299 44.6 297.75 49.8 295.8 57.8 293.6 64.05 286.65 84.15 273.45 100.55 272.45 101.8 265.75 109.65 261.05 115.15 258.45 119 252.75 127.45 248.8 138.95 247.9 141.65 246.15 147 244.55 151.65 242.75 154.75 242.6361328125 154.9498046875 242.5 155.15 239.1603515625 166.72734375 237.1 175.95 235.1 184.5 235.05 189.65 234.95 197.4 238.3 202.9 239.5369140625 204.9392578125 241.25 206.5 240.901171875 205.18984375 240.75 203.35 240.35 198.9 240.85 196.4 241.15 194.75 242.15 192.6 243.5 189.95 244.9 188.05 245.5 187.25 248 184.4
L 251.2 180.85
Q 253.8 177.95 255.25 176.7 256.45 175.6 257.3 175.4 258.2 175.15 259.5 175.4 260.85 175.65 263.1 176.75 263.7603515625 177.052734375 264.35 177.35 264.7955078125 177.5703125 265.2 177.75 265.323046875 177.5677734375 265.45 177.35 266.3 175.9 267.15 174.4 270.3 168.95 275.15 160.8 275.3 160.55 275.45 160.3 275.95 159.45 276.45 158.6 276.513671875 158.4853515625 276.55 158.35 276.4046875 158.5455078125 276.05 158.6 275.725390625 158.66484375 275.35 158.6 275.1603515625 158.5701171875 274.95 158.5 268.5 156.65 263.45 152.5 260.9 150.4 260 149.85 258.9 149.25 258.6 148.95 257.9 148.25 258.1 147.5
L 263.8 151.45
Q 265.65 152.85 267.3 153.85 270.053125 155.483203125 275.9 157.65 276.3162109375 157.83984375 276.75 158 276.7431640625 158.0689453125 276.7 158.1 276.856640625 157.9150390625 277 157.7 279.5 153.5 282.4 148.65 290.15 135.55 291.9 131.45 299.15 114.35 300.8 110.95 303.9251953125 104.5552734375 307.75 99.05 307.4748046875 98.9494140625 307.2 98.8 307.07265625 98.7244140625 306.95 98.65 303.934375 96.8662109375 302.35 96.05 299.15 94.55 297.55 93.75 294.75 92.35 293.25 90.8 294.75 90.9 297.25 92.4 302.3705078125 95.2884765625 307.65 97.65 308.0654296875 97.865234375 308.45 98.05 308.616015625 97.872265625 308.75 97.7 309.8677734375 96.109375 311.1 94.6 310.7373046875 94.37578125 310.35 94.1 305.358984375 90.66875 299.7 87.8 296.5 86.25 295.5 84.95 296.25 84.7 297.85 85.45 304.8064453125 88.90859375 311.15 93.15 311.5306640625 93.383984375 311.85 93.6
L 311.9 93.6
Q 312.1 93.35 312.3 93.15 317.35 86.8 322.75 73.55 324.8162109375 68.4453125 328.15 58.8 328.608984375 56.450390625 328.95 54.95 330.7 47.05 334.25 41.35 333.620703125 45.0580078125 332.95 48.7
L 333.8 48.05 334.15 47.7
Q 334.4 47.55 334.7 47.6 334.35 48.6 334.1 48.9
M 265.6 49.2
Q 265.4 48.55 265.9 48.4 267.6 50.15 270.45 52 272.1 53.1 275.4 55.1 280.1 58.05 284.35 62.05 275.3 56.5 266.25 49.85 265.75 49.45 265.6 49.2
M 282.45 65.5
Q 281.85 66.1 280.45 65.55 268.5 60.8 259.9 51.25 263.15 54.2 266.85 56.9 274.2 62.1 282.45 65.5
M 278.55 68.45
Q 277.4 68 275.6 66.9
L 257.55 56.05
Q 257.05 55.75 256.8 55.3 256.5 54.8 256.85 54.5 257.8 54.55 259.1 55.5 269.85 62.6 281.75 68.75 280.3 69.1 278.55 68.45
M 301.65 82.3
Q 301.45 81.85 301.75 81.55 303.5 83.1 307.5 85.55 309.2 86.8 312.95 90.35 312.55 90.3 311.75 89.75
L 302.25 82.9
Q 301.8 82.55 301.65 82.3
M 234.55 111.2
Q 233.8 110.85 233.5 110.4 233.05 109.75 233.45 109.2 234 109.45 235.65 110.5 237.85 111.85 240.95 113.05 241.8 113.4 246.55 115.05 248.65 115.7 249.6 116.5 248.15 116.85 245.7 116.1 239.85 114.3 234.55 111.2
M 238.4 114.6
Q 239.1 114.9 240.5 115.45 241.6 115.8 243.8 116.25 245.8 116.8 246.75 117.85
L 240.5 116.45
Q 239.55 116.2 239.5 116.15 238.45 115.6 237.85 115.45 237.05 115.25 236.65 115.05 236.4 114.9 236.25 114.6 236.1 114.25 236.25 114 237.15 114.1 238.4 114.6
M 304.25 162.85
Q 304.45 162.65 304.75 162.75 305 162.8 305.25 163.05 306.65 164.05 307.85 164.4
L 307.7 164.7
Q 305.55 164.55 304.25 162.85
M 274.1 160.8
L 274.05 160.8
Q 273.85 160.825 273.4 160.6 273.05 160.45 271.8 160.35 270.8 160.2 268.4 159.7 265.4 159 264 158.3 262.2 157.45 260.9 155.95
L 261.4 155.7
Q 262.05 156 263.35 156.75 264.55 157.5 265.25 157.8 266.05 158.15 267.2 158.4
L 274.35 160.3 274.4 160.3
Q 274.5 160.45 274.4 160.65 274.3 160.8 274.1 160.8 Z"/>

<path fill="#F8A497" stroke="none" d="
M 209.65 229.5
L 209.25 229.35 209 229.3 208.2 229.5
Q 208 229.55 207.9 229.85
L 207.95 230.3 208 230.45 208.15 230.55
Q 208.45 230.7 209.15 230.7
L 209.3 230.7 209.5 230.55
Q 209.9 230.25 209.7 229.65
L 209.65 229.5
M 214.65 230.1
Q 214.4 229.85 213.9 229.75
L 213.9 229.85
Q 213.7 229.8 213.5 229.9
L 213.25 230.2
Q 212.9 230.75 213.1 231.2 213.2 231.45 213.6 231.75 214.1 231.95 214.45 231.85 214.8 231.8 215 231.45 215.25 231.1 215.15 230.75 215.05 230.35 214.65 230.1
M 223.1 197.45
L 223.1 197.55
Q 222.65 197.45 222.35 197.75 222.05 197.95 222 198.15
L 222 199.1 222.05 199.6
Q 222.3 200.05 222.85 200.15 223.25 200.3 223.55 200.15 224.2 199.95 224.3 198.95 224.4 198.3 224.05 197.95 223.85 197.65 223.1 197.45
M 219.6 200.2
L 219.55 200.25
Q 219 200.25 218.55 200.7 218.1 201.1 218.05 201.7 217.95 202.35 218.35 202.9
L 218.75 203.3
Q 219.2 203.6 220.25 203.5 220.45 203.3 220.85 202.9 221.2 202.55 221.25 202.2 221.3 201.95 221.2 201.6 221.05 201 220.65 200.6 220.2 200.15 219.6 200.2
M 216.75 196.65
L 216.75 196.75
Q 216.4 196.65 215.9 197.05
L 215.6 197.5 215.55 197.95
Q 215.55 198.45 215.65 198.6 215.75 198.8 216.05 199.05
L 216.45 199.35
Q 216.75 199.5 217.5 199.5 217.55 199.45 217.8 199.15 218.3 198.75 218.3 198.2 218.3 197.55 217.9 197.2 217.55 196.85 216.75 196.65
M 164.15 148.2
Q 163.75 148.1 163.5 148.45 163.3 148.65 163.3 149.2 163.3 149.85 163.6 150.05 163.9 150.25 164.6 150.3 164.55 150.25 164.7 150.1 164.75 150 164.9 149.95 165.15 149.8 165.15 149.25
L 165.1 148.9 164.9 148.65
Q 164.75 148.4 164.65 148.3 164.3 148.2 164.15 148.1
L 164.15 148.2
M 162.75 133.5
Q 162.6 133 162.1 132.7 161.65 132.4 161.1 132.45
L 161 132.5
Q 160.25 132.6 159.95 132.85 159.45 133.25 159.45 133.85 159.4 134.35 159.75 134.9 159.95 135.25 160.25 135.4
L 160.7 135.55
Q 161.6 135.65 162.05 135.35 162.5 135.1 162.7 134.55 162.95 134 162.75 133.5
M 162.95 128.1
Q 163 127.4 162.4 126.85 161.95 126.45 161.1 126.3 161.05 126.45 160.7 126.45 160.25 126.45 159.9 126.85 159.6 127.2 159.55 127.7 159.45 128.6 160.1 129.15 160.25 129.4 160.5 129.4
L 160.85 129.45 161.8 129.45 162.25 129.15
Q 162.9 128.7 162.95 128.1
M 186.5 142.8
Q 186.5 144.45 184.95 146.95 183.626171875 149.0185546875 183.4 150.45
L 184.7 152.75
Q 185.6857421875 154.672265625 186.5 157.3 187.4119140625 157.11875 188.65 155.35 190.05 153.35 191.05 153.35 191.85 153.35 192.8 154.8 193.65 156.1 193.65 156.75 193.65 158.25 191.5 160.45 189.9666015625 162.019140625 189.5 163.55 189.6384765625 163.8025390625 189.75 164.05 190.45 165.55 191.7 168.55 192.819921875 171.062890625 194.15 173.55 194.9138671875 172.964453125 195.6 171.2 196.7 168.5 198.3 168.5 199.6 168.5 200.5 169.95 201.35 171.25 201.35 172.9 201.35 175.4 199.4 177.9 198.41640625 179.1294921875 197.9 179.95 199.22109375 182.1421875 199.6 182.9 200.25 184.2 201.6 187.75 201.81328125 188.3009765625 202 188.8 202.2498046875 188.6384765625 202.6 188.35 203.45 187.65 204.3 187.65 204.996484375 187.65 205.65 187.95 205.748046875 187.762890625 205.9 187.55 206.15 187.3 206.25 187.3 206.5 187.3 206.7 187.6
L 207.25 188.2 207.65 188.8
Q 207.914453125 189.517578125 207.55 190.05 207.6 190.2787109375 207.6 190.5 207.6 191.4 206.5 193.65 205.8359375 194.94921875 205.55 195.8 206.00546875 196.869140625 206.6 198.95 207.3 201.25 207.85 202.4 208.6 203.9 210.6 206.65 211.0228515625 207.37734375 211.4 208.2 211.455859375 208.2 211.5 208.2 212 208.2 212.5 207.8 213 207.35 213.45 207.35 214.65 207.35 215.4 208.5 215.75625 209.105859375 215.85 209.55 216.0546875 209.2314453125 216.2 208.65 216.35 208.4 216.55 208.4 216.75 208.4 216.95 208.6 217.4 209.2 217.4 209.95 217.45 210.5 217.15 211.4
L 215.8 211.4
Q 215.6556640625 211.4 215.55 211.35 215.135546875 212.3228515625 214.25 213.45 213.8830078125 213.9171875 213.5 214.25 213.8673828125 215.5244140625 214.25 217.1 214.85 219.35 214.25 220.45 213.8611328125 220.53828125 213.5 220.35 212.9203125 220.0814453125 212.5 218.95 212.4173828125 218.743359375 212.3 218.45 211.0595703125 217.3865234375 209.85 215.85 209.33203125 215.139453125 208.8 214.3
L 209.3 215.8
Q 209.9 217.6 210.7 218.2 211.4 218.65 211.5 218.8 211.9 219.3 211.5 219.65 210.1 220.25 208.8 218.85 208.05 218.05 207.45 216.15
L 206.95 214.8
Q 206.802734375 214.8 206.65 214.8 205.95 214.8 204.8 215.95 203.6 217.05 203.25 217.05 202.583984375 217.05 201.9 216.65 201.370703125 216.6 201 216.6 209.0216796875 225.6 213.95 225.6 217.1 225.6 217.7 221.1
L 217.7 214.8
Q 217.7 214.05 218.85 212.3 220 210.5 220 209.05 220 207.7 218.7 205.95 216.75 203.75 215.55 202.25 210.5 196 208.55 186.75 208.25 185.4 205.75 181.3 203.2 177.25 202.85 175.35 201.6 168.95 201.55 168.7 200.6 165.2 198.85 163.4 193.55 153.1 187.75 143.7 186.937890625 142.380859375 186.15 141.15 186.5 141.958203125 186.5 142.8
M 215.2 212.9
L 215.3 212.9 215.45 212.8
Q 215.5 213.15 215.75 213.45
L 215.55 213.8 214.9 213.8 214.8 213.45 215.15 212.95 215.2 212.9
M 173.55 132.95
Q 174.95 134.15 175.65 135.4
L 176.05 136.3 176.55 137.9
Q 176.85 138.9 177.4 139.95 177.6212890625 140.343359375 178.15 141 178.31484375 141.05 178.5 141.05 179 141.05 180.8 139.9 182.6 138.75 182.9 138.75 184.2955078125 138.75 185.25 139.75 175.56015625 125.1 169.65 125.1 167.65 125.1 166.45 126.4 165.15 127.75 164.6 130.8 163.95 132.2890625 163.95 133.4 163.95 134.05 165.95 138.6 167.95 143.15 167.95 147.95 167.95 152 171 153.6 174.35 155.4 174.9 158.8 175.55 162.85 176.25 165.15 177.2 168.05 178.85 170.25 180.9 172.9 181.6 176.65 182.55 181.5 182.85 182.25 183.35 183.45 187.55 187.9 191.4 192.05 191.4 193.05 191.4 193.75 190.85 195.2 190.3 196.7 190.3 197.35 190.3 203.95 199.45 214.8 199.7197265625 215.1201171875 199.95 215.4
L 199.95 215.25
Q 199.65 214.8 199.6 214.55 199.489453125 214.2181640625 199.65 213.65 199.65 213.4904296875 199.65 213.35 199.65 212.55 201.65 210.85 203.5701171875 209.25546875 204.4 208.45 204.3142578125 208.2818359375 204.2 208.1 202.95 206.3 202.4 205.4 201.05 203.3 199.35 198.95
L 196.6 191.95
Q 194.8724609375 187.4837890625 193.45 185.2 192.9990234375 184.6990234375 192.5 184.2 191.3 183 186.8 182.95 183.35 182.9 183.35 179.9 183.35 179.6984375 183.6 179.25 183.22265625 178.77421875 183.55 178.4 183.7 178.4 184 178.3 184.204296875 178.1978515625 184.35 178.2 184.8083984375 177.5703125 185.5 176.75 187.1873046875 174.787890625 187.55 172.8 187.4748046875 172.665234375 187.4 172.5 186.1 169.35 185.4 167.8
L 183.9 164.95
Q 183.543359375 164.75 183.2 164.75 182.65 164.75 181.8 165.35 181.0333984375 165.84609375 180.55 165.9 180.42421875 166.0548828125 180.25 166.2
L 179.95 166.4 179.7 166.4 178.85 166.25 178.6 166 178.1 165
Q 177.8 164.4 177.8 164.05 177.8123046875 164.025390625 177.8 164 177.65 163.55546875 177.65 163.05 177.65 161.9 179.2 159.65 179.782421875 158.8234375 180.15 158.1 180.06953125 157.97421875 180 157.85 179.1 156.35 178.95 155.4 178.85 154.35 178.8 153.85 178.65 152.9 177.6 150.75 177.001171875 149.6076171875 176.4 148.45
L 175.15 149.2
Q 173.35 150.2 172.35 150.2 170.25 150.2 170.25 148.05 170.25 146.55 171.8 145.55 173.083203125 144.716015625 173.8 143.8 172.7208984375 141.8501953125 171.6 139.95 171.298828125 139.449609375 171 138.95
L 171.15 138.85
Q 170.83515625 137.92578125 170.6 137 170.25 135.4310546875 170.25 133.95 170.25 133.7201171875 170.25 133.5 170.1275390625 133.78203125 170.05 134.15 169.9181640625 135.2048828125 169.85 135.45
L 169.85 135.55
Q 169.7 135.65 169.6 135.5 169.45 135.3 169.45 135.1 169.4087890625 134.616015625 169.4 134.2 169.455859375 132.605859375 170.25 132.05 171.05 131.6 172.05 131.95 172.7 132.2 173.55 132.95
M 191.95 194.25
Q 192.1091796875 194.1439453125 192.25 194.05 192.32109375 193.967578125 192.35 193.9 192.55 193.35 193.35 193.35 194.85 193.35 196.25 195.05 197.4 196.45 197.4 197.1 197.4 197.85 196.25 198.5 195.15 199.05 194.1 199.05 193 199.05 191.95 198.2 190.8 197.3 190.8 196.2 190.8 195.7 191.4 194.95 191.488671875 194.8453125 191.55 194.75 191.6015625 194.52265625 191.65 194.45
L 191.95 194.25 Z"/>

<path fill="#E5CFA5" stroke="none" d="
M 180.3 121.15
Q 179.85 121.15 179.5 121.35 179.25 121.6 179.15 122.05 179.05 122.65 179.1 122.95
L 179.15 123.25 179.75 123.85 179.95 123.9
Q 180.7 124 181.05 123.75 181.45 123.55 181.55 122.95 181.6 122.65 181.5 122.05
L 181.3 121.6
Q 181.05 121.25 180.3 121.05
L 180.3 121.15
M 177.35 117.05
Q 177.75 117.15 178.15 117.05 178.55 116.9 178.8 116.5 179.25 116.05 179.2 115.6
L 179.05 115.15 178.85 114.8
Q 178.8 114.75 178.45 114.5 177.9 114.15 177.25 114.25
L 177.25 114.4
Q 176.5 114.3 176.1 114.9 175.95 115.2 175.95 115.6 175.85 116.55 176.6 116.9 176.85 117.05 177.35 117.05
M 181.6 191.95
L 181.6 192.1
Q 181.05 192 180.6 192.45 180.25 192.9 180.3 193.5 180.3 194.1 180.65 194.4 181.1 194.8 182.15 194.8 182.15 194.7 182.35 194.6 182.6 194.45 182.95 193.8
L 183.05 193.3
Q 183.05 193.25 182.9 192.8 182.55 192.35 182.5 192.3 182.4 192.2 181.6 191.95
M 175.7 177
L 175.7 177.15
Q 175.45 177.1 175.15 177.25
L 174.85 177.5
Q 174.75 177.65 174.75 178.05
L 174.8 178.45 175 178.85 175.25 179.1 175.5 179.15
Q 176.15 179.15 176.5 179.2
L 176.85 178.65 177.05 178.2
Q 177.15 177.7 176.65 177.3 176.4 177.1 175.7 177
M 176.4 181.8
Q 176.55 181.95 176.25 181.95 175.35 181.85 175 182.7 174.8 183.05 174.85 183.6 174.85 183.95 174.9 184.6
L 174.85 185.3
Q 174.9 185.85 175.45 186.3 175.9 186.6 176.55 186.7 177.9 186.9 178.55 186.1 178.9 185.65 178.95 184.9 178.95 184.85 178.85 183.55 178.7 182.9 178.7 182.85 178.6 182.7 178.15 182.45 177.45 182.05 176.4 181.8
M 211.6 186.95
Q 211.6 187 211.75 187.3
L 212.05 187.7 212.8 187.7 213.2 187.65
Q 213.45 187.55 213.65 187
L 213.65 186.75 213.6 186.5
Q 213.2 185.95 212.6 185.85
L 212.6 185.95
Q 211.95 185.95 211.65 186.6 211.55 186.85 211.6 186.95
M 223.65 215.15
Q 223.85 215.15 223.85 215.3 224.9 215.3 225.35 215 225.7 214.75 226 214.1 226.15 213.6 226.1 213.2 226.05 212.95 225.7 212.35 225.1 211.6 224.95 211.5 224.5 211.05 223.95 211.05
L 223.95 211.25
Q 223.15 211.15 222.55 211.7 221.95 212.2 221.95 213 221.9 213.75 222.45 214.35 222.9 214.9 223.65 215.15
M 222.75 222.3
Q 223 222.15 223.05 221.85
L 223.1 221.25 223.05 220.55 222.95 220.2 222.95 219.9
Q 222.85 219.55 222.2 219.35
L 222.2 219.45
Q 221.75 219.35 221.55 219.8 221.45 220.05 221.45 220.6
L 221.45 221.65
Q 221.45 222.05 221.6 222.2 221.75 222.4 222.1 222.4 222.55 222.4 222.75 222.3
M 214.35 209.1
L 214 209.15
Q 213.85 209.15 213.85 209.35
L 213.8 209.75 213.9 210.1 214.95 210.85 215.1 210.95 215.35 210.85
Q 215.2 210.55 215.2 210.5
L 215.3 210.3
Q 215.384765625 210.13046875 215.4 209.95 215.45 209.8587890625 215.45 209.75 215.45 209.4 215.2 209.25 215.05 209.15 215 209.1 214.5 208.95 214.35 209
L 214.35 209.1
M 205.75 188.5
Q 205.6654296875 188.3986328125 205.55 188.3 205.3140625 188.1662109375 204.95 188.1 204.3 188.1 204 188.05
L 204 188.15 203.5 188.15
Q 203.2 188.25 203.05 188.45 202.95 188.75 203.2 189.2
L 204.05 190.1 204.35 190.35 204.6 190.4 205.1 190.4 205.35 190.45 205.6 190.4 205.6 190.15
Q 205.75 189.95 205.8 189.85 205.95 189.65 205.75 189.15 205.55 188.7 205.75 188.5
M 215.3 212.9
L 215.2 212.9 215.15 212.95 214.8 213.45 214.9 213.8 215.55 213.8 215.75 213.45
Q 215.5 213.15 215.45 212.8
L 215.3 212.9
M 186.9 177.3
Q 186.8 176.6 186.65 176.45 186.35 176.45 186.1 176.6
L 186.1 176.9 185.55 177.15
Q 185.15 177.35 185.05 177.55
L 185 178.05
Q 185 178.292578125 185 178.45 185.044140625 178.7103515625 185.1 178.85
L 185.2 178.95 185.35 179 186.15 179.1 186.3 179.1
Q 186.35 179.1 186.45 178.85 186.4794921875 178.8234375 186.5 178.8 186.955859375 178.382421875 187.05 178.1 187.05 178.05 186.9 177.3
M 180.05 162.4
L 179.8 162.4
Q 179.6 162.45 179.25 162.8
L 179.05 163.15 179 163.5 179 164 179.05 164.25
Q 179.15 164.45 179.6 164.55
L 179.85 164.6 180.1 164.5
Q 180.48203125 164.347265625 180.7 164.05 180.752734375 163.9943359375 180.8 163.9 181 163.55 180.75 163.15 180.6 162.8 180.3 162.6
L 180.05 162.4
M 203.15 213.35
Q 203.15 213.2 203.05 213.2 202.65 212.85 202.25 212.8
L 202.25 212.9
Q 202 212.8 201.8 213
L 201.7 213.2
Q 201.45 213.75 201.7 214.3
L 201.75 214.4 201.9 214.45
Q 202.45 214.6 202.95 214.4
L 203.1 214.35 203.15 214.15 203.2 213.55 203.15 213.35
M 199.2 177.8
Q 199.35 177.4 199.3 177.05
L 199.2 176.85 199.05 176.75 198.4 176.45
Q 198.1 176.55 198 176.65 197.95 176.7 197.8 176.95
L 197.65 177.7
Q 197.65 178.2 197.85 178.45
L 198.85 178.45 199.2 177.8
M 197.2 172.75
L 197.35 172.7 198.2 172.55
Q 198.154296875 172.412890625 198.3 172.15 198.3328125 172.12578125 198.35 172.1 198.5 171.65 198.1 170.85 197.85 170.35 197.7 170.25 197.45 170.15 196.9 170.15
L 196.9 170.25
Q 196.5 170.25 196.4 170.4
L 196.35 170.65 196.4 172.05 196.5 172.45
Q 196.65 172.9 196.65 173.4
L 197.2 173.4 197.2 172.75
M 192.05 155.85
L 191.95 155.65 191.8 155.5
Q 191.601953125 155.36796875 191.4 155.3 191.3349609375 155.3 191.25 155.3 191.05 155.3 190.8 155.45 190.55 155.55 190.4 155.8 190.28046875 155.9990234375 190.35 156.3 190.409375 156.4083984375 190.45 156.5 190.65 157 191.05 157.15 191.4 157.2 191.9 157.05
L 192.1 156.95 192.15 156.7
Q 192.25 156.15 192.05 155.85
M 183.8 140.55
L 183.5 140.25 183.25 140 183.05 139.9
Q 182.85 139.8 182.7 139.95
L 182.55 140.1
Q 181.85 141.05 182.15 142.2
L 182.45 142.2 183.5 142.2 183.7 142.15
Q 183.9 142.1 183.9 141.75 183.9 141.3 183.6 140.9
L 183.8 140.55
M 172 145.95
Q 171.9 146.1 171.9 146.45
L 171.9 147.4
Q 171.909375 147.909375 172.1 148.1
L 172.35 148.2 173.2 148.45
Q 173.62578125 148.5068359375 173.85 148.4 174.0634765625 148.3228515625 174.15 148.15
L 174.3 147.7 174.3 146.95 174.2 146.45 173.6 145.9
Q 173.45 145.75 173.05 145.75 172.55 145.75 172.45 145.7
L 172.45 145.8
Q 172.2 145.65 172 145.95
M 196.1 196.25
Q 195.7 196.25 195.55 196.35 195.2 196.5 195.15 196.8
L 195.15 197.45 195.45 197.65 195.6 197.65 196.15 197.55
Q 196.3 197.25 196.15 196.9
L 196.45 196.55
Q 196.35 196.35 196.25 196.3
L 196.1 196.25
M 192.25 194.05
Q 192.1091796875 194.1439453125 191.95 194.25
L 191.65 194.45
Q 191.6015625 194.52265625 191.55 194.75 191.55 194.9880859375 191.55 195.4
L 191.55 195.85 191.8 196.2
Q 192.05 196.45 192.2 196.5 192.35 196.6 192.65 196.6 192.95 196.65 193.15 196.6 193.45 196.55 193.8 196 194 195.7 194 195.5
L 194 195.2 194.05 194.95 194 194.4
Q 193.9 194.15 193.55 194 193.15 193.8 192.95 193.7
L 192.95 193.8
Q 192.59453125 193.896875 192.25 194.05
M 174 135.35
Q 173.35 134.35 172.35 133.5 171.55 132.7 170.8 132.95 170.4630859375 133.103125 170.25 133.5 170.25 133.7201171875 170.25 133.95 170.25 135.4310546875 170.6 137 171.4619140625 138.487890625 172.75 139.9 174.75 142 176.75 143.1 178.1 143.8 179 147.1 179.5 149 180.5 153.35 181.103125 155.3369140625 183.05 159.75 183.87578125 160.9494140625 184.95 162.85
L 185.6 164.15
Q 186.6 166.1 187.95 169.15
L 188.7 171
Q 189.2 172.1 189.45 172.9 189.9 174.2 190.7 176.85 190.55 177.05 190.05 176.7 189.687890625 176.312890625 189.35 175.85 189.9412109375 177.1986328125 190.3 178.05 191.3638671875 179.3896484375 193.45 180.8 197 183.2 197.4 185.1 197.8 187.05 198.55 191.2 199.4 194.85 201.05 197.1 202.35 198.85 204 202.4 206.25 207.25 206.75 208.2 206.89453125 208.4408203125 210.4 211.9 209.8494140625 210.1322265625 209.25 209 208.75 208.15 207.35 206.15 206.05 204.35 205.5 203.2 205.2 202.6 204.2 199.15 203.3 196.05 200.95 191.25
L 197.15 183.65
Q 193.15 175.75 191.4 171.7
L 186.5 159.55
Q 185.15 158.75 183.8 155.75 183.05 153.9 182.35 152.9 181.8 152.1 181.55 151.65 181.05 150.95 180.95 150.35 180.9 149.4 180.7 148.95
L 180.35 148.1
Q 180.4 147.5 180.35 147.15 180.3 146.55 179.5 145.65
L 178.15 144.05
Q 177.35 143.1 176.8 142.2 175.9 140.85 175.3 138.7
L 174.95 137.35
Q 174.5 136.1 174 135.35 Z"/>

<path fill="#E7897B" stroke="none" d="
M 214 209.15
L 214.35 209.1 214.35 209
Q 214.5 208.95 215 209.1 215.05 209.15 215.2 209.25 215.45 209.4 215.45 209.75 215.45 209.8587890625 215.4 209.95
L 215.55 209.9
Q 215.7173828125 209.7953125 215.85 209.55 215.75625 209.105859375 215.4 208.5 214.65 207.35 213.45 207.35 213 207.35 212.5 207.8 212 208.2 211.5 208.2 211.455859375 208.2 211.4 208.2 212.1712890625 209.7978515625 212.8 211.75 213.1298828125 212.7671875 213.5 214.25 213.8830078125 213.9171875 214.25 213.45 215.135546875 212.3228515625 215.55 211.35 215.3880859375 211.3587890625 215.3 211.3 215.0076171875 211.190234375 214.95 210.85
L 213.9 210.1 213.8 209.75 213.85 209.35
Q 213.85 209.15 214 209.15
M 205.55 188.3
Q 205.5802734375 188.1466796875 205.65 187.95 204.996484375 187.65 204.3 187.65 203.45 187.65 202.6 188.35 202.2498046875 188.6384765625 202 188.8 202.9689453125 191.1521484375 203.75 192.55 205.2 195.1 205.4 195.45 205.475390625 195.608203125 205.55 195.8 205.8359375 194.94921875 206.5 193.65 207.6 191.4 207.6 190.5 207.6 190.2787109375 207.55 190.05 207.4333984375 190.241015625 207.25 190.4
L 206.95 190.65
Q 206.75 190.85 206.85 191 205.95 191 205.6 190.8
L 205.15 190.45 205.1 190.4 204.6 190.4 204.35 190.35 204.05 190.1 203.2 189.2
Q 202.95 188.75 203.05 188.45 203.2 188.25 203.5 188.15
L 204 188.15 204 188.05
Q 204.3 188.1 204.95 188.1 205.3140625 188.1662109375 205.55 188.3
M 197.4 185.1
Q 197 183.2 193.45 180.8 191.3638671875 179.3896484375 190.3 178.05 189.9412109375 177.1986328125 189.35 175.85 189.274609375 175.7521484375 189.2 175.65 188.3220703125 174.462109375 187.55 172.8 187.1873046875 174.787890625 185.5 176.75 184.8083984375 177.5703125 184.35 178.2 184.4021484375 178.183984375 184.45 178.2 184.5 178.2 184.8 178.35 184.908203125 178.422265625 185 178.45 185 178.292578125 185 178.05
L 185.05 177.55
Q 185.15 177.35 185.55 177.15
L 186.1 176.9 186.1 176.6
Q 186.35 176.45 186.65 176.45 186.8 176.6 186.9 177.3 187.05 178.05 187.05 178.1 186.955859375 178.382421875 186.5 178.8 187.15 179.0279296875 187.15 179.7
L 187.05 180.35 186.8 180.7
Q 186.75 180.75 186.35 180.85 185.9 180.85 185.1 180.65
L 184.65 180.45 184.35 180.1
Q 183.85 179.65 183.65 179.35 183.6208984375 179.314453125 183.6 179.25 183.35 179.6984375 183.35 179.9 183.35 182.9 186.8 182.95 191.3 183 192.5 184.2 192.9990234375 184.6990234375 193.45 185.2 193.2017578125 184.79609375 192.95 184.45 191.95 182.85 192.15 182.15 192.55 181.65 193.2 182.55 195.85 186.15 197.55 190.2
L 201.6 200
Q 202.2 201.4 203.35 203.25 203.6 203.7 205.1 206 206.2 207.65 206.75 208.8 207.05 209.45 208.15 212.35
L 208.8 214.3
Q 209.33203125 215.139453125 209.85 215.85 211.0595703125 217.3865234375 212.3 218.45 211.976953125 217.479296875 211.45 215.6 211.2421875 214.820703125 211 213.9 210.7162109375 212.8314453125 210.4 211.9 206.89453125 208.4408203125 206.75 208.2 206.25 207.25 204 202.4 202.35 198.85 201.05 197.1 199.4 194.85 198.55 191.2 197.8 187.05 197.4 185.1
M 183.2 164.75
Q 183.543359375 164.75 183.9 164.95
L 182.1 161.5
Q 180.8390625 159.3384765625 180.15 158.1 179.782421875 158.8234375 179.2 159.65 177.65 161.9 177.65 163.05 177.65 163.55546875 177.8 164 177.9541015625 163.75 178 163.75
L 178.25 163.7
Q 178.55 163.7 178.7 163.8
L 178.8 163.95
Q 178.903515625 164.0189453125 179 164
L 179 163.5 179.05 163.15 179.25 162.8
Q 179.6 162.45 179.8 162.4
L 180.05 162.4 180.3 162.6
Q 180.6 162.8 180.75 163.15 181 163.55 180.8 163.9 180.752734375 163.9943359375 180.7 164.05
L 180.8 164.3
Q 181.0822265625 165.22734375 180.55 165.9 181.0333984375 165.84609375 181.8 165.35 182.65 164.75 183.2 164.75
M 204.8 215.95
Q 205.95 214.8 206.65 214.8 206.802734375 214.8 206.95 214.8
L 206.6 213.75
Q 205.43515625 210.25546875 204.4 208.45 203.5701171875 209.25546875 201.65 210.85 199.65 212.55 199.65 213.35 199.65 213.4904296875 199.65 213.65 199.744921875 213.4365234375 199.85 213.2 200 212.95 200.1 213
L 201.35 215.1
Q 201.6 215.15 202.1 214.9 202.55 214.65 202.8 214.7 203.05 214.75 203.25 214.95 203.4 215.15 203.35 215.4
L 202.7 216.7
Q 202.2794921875 216.66171875 201.9 216.65 202.583984375 217.05 203.25 217.05 203.6 217.05 204.8 215.95
M 203.05 213.2
Q 203.15 213.2 203.15 213.35
L 203.2 213.55 203.15 214.15 203.1 214.35 202.95 214.4
Q 202.45 214.6 201.9 214.45
L 201.75 214.4 201.7 214.3
Q 201.45 213.75 201.7 213.2
L 201.8 213
Q 202 212.8 202.25 212.9
L 202.25 212.8
Q 202.65 212.85 203.05 213.2
M 200.5 169.95
Q 199.6 168.5 198.3 168.5 196.7 168.5 195.6 171.2 194.9138671875 172.964453125 194.15 173.55 195.2794921875 175.662890625 196.55 177.75 197.327734375 179.009765625 197.9 179.95 198.41640625 179.1294921875 199.4 177.9 201.35 175.4 201.35 172.9 201.35 171.25 200.5 169.95
M 197.35 172.7
L 197.2 172.75 197.2 173.4 196.65 173.4
Q 196.65 172.9 196.5 172.45
L 196.4 172.05 196.35 170.65 196.4 170.4
Q 196.5 170.25 196.9 170.25
L 196.9 170.15
Q 197.45 170.15 197.7 170.25 197.85 170.35 198.1 170.85 198.5 171.65 198.35 172.1 198.3328125 172.12578125 198.3 172.15 198.357421875 172.15 198.4 172.15 198.7 171.3 198.5 170.75
L 198.25 170.1
Q 198.05 169.65 198.25 169.4 198.35 169.2 198.5 169.15 198.7 169.1 198.85 169.2
L 198.85 169
Q 200.15 169.45 200.35 170.1
L 200.4 171.95
Q 200.4 172.5 200.3 172.8 200.25 172.95 199.75 173.7 199.55 173.9 199.4 173.95
L 199.05 174
Q 198 173.85 197.45 173
L 197.35 172.7
M 199.3 177.05
Q 199.35 177.4 199.2 177.8
L 198.85 178.45 197.85 178.45
Q 197.65 178.2 197.65 177.7
L 197.8 176.95
Q 197.95 176.7 198 176.65 198.1 176.55 198.4 176.45
L 199.05 176.75 199.2 176.85 199.3 177.05
M 193.65 156.75
Q 193.65 156.1 192.8 154.8 191.85 153.35 191.05 153.35 190.05 153.35 188.65 155.35 187.4119140625 157.11875 186.5 157.3 186.537890625 157.3615234375 186.55 157.4 186.9173828125 158.428515625 186.7 159.1 187.0837890625 159.15078125 187.45 159.75 188.4884765625 161.330078125 189.5 163.55 189.9666015625 162.019140625 191.5 160.45 193.65 158.25 193.65 156.75
M 192.9 156.45
Q 192.9 157.05 192.7 157.5 192.6 157.8 192.5 157.85 192.3 158 191.65 157.9
L 190.9 157.7
Q 190.75 157.65 190.75 157.4 190.3 156.75 190.3 156.4 190.334765625 156.365234375 190.35 156.3 190.28046875 155.9990234375 190.4 155.8 190.55 155.55 190.8 155.45 191.05 155.3 191.25 155.3 191.3349609375 155.3 191.4 155.3
L 191.45 155.25
Q 191.7 154.8 192.2 155 192.55 155.1 192.75 155.6 192.9 156.05 192.9 156.45
M 178.5 141.05
Q 178.31484375 141.05 178.15 141 178.6861328125 141.73359375 179.55 142.75
L 181.05 144.45
Q 181.8 145.3 181.95 145.8 182.05 146.2 182.1 147.05 182.25 147.45 182.65 148.15 182.75 148.5 182.8 149.25 182.85 149.6 183.3 150.3
L 183.4 150.45
Q 183.626171875 149.0185546875 184.95 146.95 186.5 144.45 186.5 142.8 186.5 141.958203125 186.15 141.15 185.7021484375 140.453515625 185.25 139.75 184.2955078125 138.75 182.9 138.75 182.6 138.75 180.8 139.9 179 141.05 178.5 141.05
M 183.5 140.25
L 183.55 140.25
Q 184.15 139.85 184.7 140.5 184.95 140.8 185.05 141.6 185.05 142.2 184.8 142.85
L 184.55 143.55 183 143.4
Q 182.95 143.2 182.75 142.9 182.55 142.55 182.5 142.4 182.45625 142.2978515625 182.45 142.2
L 182.15 142.2
Q 181.85 141.05 182.55 140.1
L 182.7 139.95
Q 182.85 139.8 183.05 139.9
L 183.25 140 183.5 140.25
M 171.8 145.55
Q 170.25 146.55 170.25 148.05 170.25 150.2 172.35 150.2 173.35 150.2 175.15 149.2
L 176.4 148.45
Q 175.6146484375 147.0251953125 174.8 145.6 174.329296875 144.703125 173.8 143.8 173.083203125 144.716015625 171.8 145.55
M 171.9 146.45
Q 171.9 146.1 172 145.95 172.2 145.65 172.45 145.8
L 172.45 145.7
Q 172.55 145.75 173.05 145.75 173.45 145.75 173.6 145.9
L 174.2 146.45 174.3 146.95 174.3 147.7 174.15 148.15
Q 174.0634765625 148.3228515625 173.85 148.4 174.079296875 148.876171875 173.95 149.35 173.95 149.65 173.75 149.75
L 173.5 149.85
Q 172.4 150.15 171.4 149.7 171.4 149.4 171.15 149.15
L 170.9 148.9 170.85 148.45 170.9 147.7
Q 171 147.25 171.2 147.15 171.5 147 171.85 147.35 171.87578125 147.37578125 171.9 147.4
L 171.9 146.45
M 171.15 138.85
L 171.6 138.65 177.7 148.4 177.7 148.4
Q 179.6009765625 151.2541015625 180.05 153.05 180.3 154.05 180.75 156.05 181 156.8 181.6 157.75 181.95 158.25 182.7 159.3 182.8650390625 159.5169921875 183.05 159.75 181.103125 155.3369140625 180.5 153.35 179.5 149 179 147.1 178.1 143.8 176.75 143.1 174.75 142 172.75 139.9 171.4619140625 138.487890625 170.6 137 170.83515625 137.92578125 171.15 138.85
M 192.35 193.9
Q 192.32109375 193.967578125 192.25 194.05 192.59453125 193.896875 192.95 193.8
L 192.95 193.7
Q 193.15 193.8 193.55 194 193.9 194.15 194 194.4
L 194.05 194.95 194 195.2
Q 194.2169921875 195.1890625 194.4 195.25 194.3 195.5 194.55 196.55 194.65 197.05 194.3 198.25
L 192.55 198.25 192.15 198.2 191.9 197.95
Q 191.4 197.25 191.4 196.8 191.558203125 196.206640625 191.55 195.85
L 191.55 195.4
Q 191.55 194.9880859375 191.55 194.75 191.488671875 194.8453125 191.4 194.95 190.8 195.7 190.8 196.2 190.8 197.3 191.95 198.2 193 199.05 194.1 199.05 195.15 199.05 196.25 198.5 197.4 197.85 197.4 197.1 197.4 196.45 196.25 195.05 194.85 193.35 193.35 193.35 192.55 193.35 192.35 193.9
M 195.55 196.35
Q 195.7 196.25 196.1 196.25
L 196.25 196.3
Q 196.35 196.35 196.45 196.55
L 196.15 196.9
Q 196.3 197.25 196.15 197.55
L 195.6 197.65 195.45 197.65 195.15 197.45 195.15 196.8
Q 195.2 196.5 195.55 196.35 Z"/>

<path fill="#D3AE69" stroke="none" d="
M 350.25 103.95
Q 347.5005859375 109.9853515625 343.8 116.95 332.6 138.05 329.45 146.45 328.1 150.1 325.6 157.45 323.3 163.95 321 168.1 318.3 172.95 312 180.45 309.9603515625 182.89453125 308.3 184.95 310.929296875 207.7560546875 313.4 229.9 317.4265625 265.7943359375 321.05 299.95
L 350.25 299.95 350.25 103.95
M 18.2 196.8
Q 8.5265625 187.7107421875 1.15 176.85
L 1.15 299.95 94.95 299.95 83 269.15
Q 79.3853515625 259.705078125 76.55 251.8 64.07890625 238.87890625 58.45 233.25 44.15 219 32.1 208.75 27.4 204.85 25.1 202.85 20.95 199.35 18.2 196.8 Z"/>
</g>
</defs>

<g transform="matrix( 1, 0, 0, 1, 0,0) ">
<use xlink:href="#Layer0_0_FILL"/>
</g>
</svg>
