<?xml version="1.0" encoding="UTF-8"?>
<svg xmlns="http://www.w3.org/2000/svg" viewBox="0 0 200 194.97">
  <defs>
    <style>
      .cls-1 {
        fill: #edebd3;
      }

      .cls-2 {
        fill: #d7d185;
      }

      .cls-3 {
        fill: #98a354;
      }

      .cls-4 {
        fill: #b8be79;
      }

      .cls-5 {
        fill: #d6a16e;
      }

      .cls-6 {
        fill: #cda45e;
      }

      .cls-7 {
        fill: #e1c99b;
      }
    </style>
  </defs>
  <g id="Camada_1" data-name="Camada 1">
    <polygon class="cls-4" points="188.57 31.2 192.8 31.2 178.35 10.35 163.91 31.2 168.89 31.2 168.89 167.12 163.91 167.12 178.35 187.97 192.8 167.12 188.57 167.12 188.57 31.2"/>
    <rect class="cls-1" x="7.74" y="28.47" width="95.53" height="31.48" rx="5.05" ry="5.05"/>
    <rect class="cls-7" x="26.39" y="64.99" width="95.53" height="31.48" rx="5.05" ry="5.05"/>
    <rect class="cls-6" x="56.04" y="101.52" width="78.36" height="31.48" rx="4.57" ry="4.57"/>
    <rect class="cls-5" x="80.37" y="138.04" width="78.36" height="31.48" rx="4.57" ry="4.57"/>
    <g>
      <path class="cls-3" d="M7.74,70.44h3.63c.13.8.23,1.56.38,2.31.5,2.49,1.48,4.75,3.27,6.59,2.03,2.1,4.52,3.22,7.44,3.4.23.01.46.02.73-.02-1.24-1.01-2.36-2.11-3.3-3.38-.94-1.27-1.61-2.67-2.09-4.17-.49-1.51-.81-3.05-.8-4.72h4.31c.11-.33-.09-.52-.2-.71-1.45-2.54-2.92-5.07-4.38-7.61-.63-1.09-1.25-2.17-1.88-3.26-.06-.11-.14-.22-.22-.33-.64.63-6.16,10.12-6.9,11.89Z"/>
      <path class="cls-2" d="M30.88,77.45c-3.76,1.83-7.56,1.95-11.44.59-.02.04-.04.08-.05.12.32.43.64.87.98,1.29.85,1.04,1.79,2,2.84,2.84.35.29.7.39,1.15.27,2.85-.73,5.02-2.36,6.49-4.91.02-.04.02-.08.04-.21Z"/>
    </g>
    <g>
      <path class="cls-3" d="M35.01,105.79h3.63c.13.8.23,1.56.38,2.31.5,2.49,1.48,4.75,3.27,6.59,2.03,2.1,4.52,3.22,7.44,3.4.23.01.46.02.73-.02-1.24-1.01-2.36-2.11-3.3-3.38-.94-1.27-1.61-2.67-2.09-4.17-.49-1.51-.81-3.05-.8-4.72h4.31c.11-.33-.09-.52-.2-.71-1.45-2.54-2.92-5.07-4.38-7.61-.63-1.09-1.25-2.17-1.88-3.26-.06-.11-.14-.22-.22-.33-.64.63-6.16,10.12-6.9,11.89Z"/>
      <path class="cls-2" d="M58.15,112.8c-3.76,1.83-7.56,1.95-11.44.59-.02.04-.04.08-.05.12.32.43.64.87.98,1.29.85,1.04,1.79,2,2.84,2.84.35.29.7.39,1.15.27,2.85-.73,5.02-2.36,6.49-4.91.02-.04.02-.08.04-.21Z"/>
    </g>
    <g>
      <path class="cls-3" d="M66.19,143.08h3.63c.13.8.23,1.56.38,2.31.5,2.49,1.48,4.75,3.27,6.59,2.03,2.1,4.52,3.22,7.44,3.4.23.01.46.02.73-.02-1.24-1.01-2.36-2.11-3.3-3.38-.94-1.27-1.61-2.67-2.09-4.17-.49-1.51-.81-3.05-.8-4.72h4.31c.11-.33-.09-.52-.2-.71-1.45-2.54-2.92-5.07-4.38-7.61-.63-1.09-1.25-2.17-1.88-3.26-.06-.11-.14-.22-.22-.33-.64.63-6.16,10.12-6.9,11.89Z"/>
      <path class="cls-2" d="M89.33,150.09c-3.76,1.83-7.56,1.95-11.44.59-.02.04-.04.08-.05.12.32.43.64.87.98,1.29.85,1.04,1.79,2,2.84,2.84.35.29.7.39,1.15.27,2.85-.73,5.02-2.36,6.49-4.91.02-.04.02-.08.04-.21Z"/>
    </g>
    <path class="cls-2" d="M99.99,47.88c.97,0,1.94-.04,2.9,0,1.34.06,2.66.3,3.92.78,3.01,1.13,4.84,3.32,5.68,6.38.48,1.75.63,3.53.59,5.33-.01.64,0,1.28,0,1.98.12.01.28.03.43.03.93,0,1.87,0,2.8,0,.43,0,.79.13,1.01.53.18.33.19.67-.02.99-.12.18-.26.35-.41.52-2.05,2.22-4.1,4.44-6.16,6.66-.86.93-1.36.94-2.22.01-2.06-2.21-4.11-4.43-6.17-6.65-.12-.13-.25-.27-.35-.42-.48-.71-.05-1.6.81-1.63.9-.03,1.79-.01,2.69-.01.22,0,.43,0,.69,0,.22-2.82-.1-5.51-1.17-8.1-1.07-2.6-2.74-4.73-5.12-6.29.03-.04.05-.09.08-.13Z"/>
    <path class="cls-2" d="M117.54,84.51c.97,0,1.94-.04,2.9,0,1.34.06,2.66.3,3.92.78,3.01,1.13,4.84,3.32,5.68,6.38.48,1.75.63,3.53.59,5.33-.01.64,0,1.28,0,1.98.12.01.28.03.43.03.93,0,1.87,0,2.8,0,.43,0,.79.13,1.01.53.18.33.19.67-.02.99-.12.18-.26.35-.41.52-2.05,2.22-4.1,4.44-6.16,6.66-.86.93-1.36.94-2.22.01-2.06-2.21-4.11-4.43-6.17-6.65-.12-.13-.25-.27-.35-.42-.48-.71-.05-1.6.81-1.63.9-.03,1.79-.01,2.69-.01.22,0,.43,0,.69,0,.22-2.82-.1-5.51-1.17-8.1-1.07-2.6-2.74-4.73-5.12-6.29.03-.04.05-.09.08-.13Z"/>
    <path class="cls-2" d="M135.09,121.14c.97,0,1.94-.04,2.9,0,1.34.06,2.66.3,3.92.78,3.01,1.13,4.84,3.32,5.68,6.38.48,1.75.63,3.53.59,5.33-.01.64,0,1.28,0,1.98.12.01.28.03.43.03.93,0,1.87,0,2.8,0,.43,0,.79.13,1.01.53.18.33.19.67-.02.99-.12.18-.26.35-.41.52-2.05,2.22-4.1,4.44-6.16,6.66-.86.93-1.36.94-2.22.01-2.06-2.21-4.11-4.43-6.17-6.65-.12-.13-.25-.27-.35-.42-.48-.71-.05-1.6.81-1.63.9-.03,1.79-.01,2.69-.01.22,0,.43,0,.69,0,.22-2.82-.1-5.51-1.17-8.1-1.07-2.6-2.74-4.73-5.12-6.29.03-.04.05-.09.08-.13Z"/>
  </g>
  <g id="Camada_3" data-name="Camada 3">
    <g>
      <path d="M22.72,37.34c0,.47-.08.9-.23,1.29-.16.39-.37.73-.66,1.01s-.62.5-1.02.66c-.4.16-.84.23-1.32.23h-2.43v-6.37h2.43c.48,0,.92.08,1.32.24.4.16.74.38,1.02.66s.5.62.66,1.01c.16.39.23.82.23,1.29ZM21.5,37.34c0-.35-.05-.66-.14-.94s-.23-.51-.4-.7c-.17-.19-.39-.34-.63-.44-.25-.1-.53-.15-.84-.15h-1.24v4.48h1.24c.31,0,.59-.05.84-.15.25-.1.46-.25.63-.44.17-.19.31-.43.4-.7s.14-.59.14-.94Z"/>
      <path d="M24.37,38.41c.02.23.06.43.12.6.06.17.15.31.26.42.11.11.23.19.38.25.15.05.31.08.48.08s.33-.02.46-.06c.13-.04.24-.09.33-.14.1-.05.18-.1.25-.14s.14-.06.21-.06c.09,0,.16.03.2.1l.31.4c-.12.14-.26.26-.4.35-.15.1-.31.17-.47.23-.16.06-.33.1-.5.12-.17.02-.33.04-.49.04-.31,0-.61-.05-.88-.16s-.5-.26-.7-.46c-.2-.2-.36-.46-.47-.76-.11-.3-.17-.65-.17-1.05,0-.31.05-.6.15-.87.1-.27.24-.51.43-.71.19-.2.41-.36.68-.48.27-.12.57-.18.91-.18.28,0,.55.05.79.14.24.09.45.22.62.4.17.17.31.39.41.64.1.25.15.54.15.87,0,.16-.02.28-.05.33s-.1.09-.2.09h-2.79ZM26.44,37.75c0-.14-.02-.27-.06-.4-.04-.12-.1-.23-.18-.33s-.18-.17-.3-.22c-.12-.05-.26-.08-.42-.08-.31,0-.56.09-.74.27-.18.18-.3.43-.35.76h2.05Z"/>
      <path d="M30.99,36.89s-.06.08-.09.1-.07.03-.12.03c-.05,0-.11-.01-.17-.04-.06-.03-.13-.06-.21-.1-.08-.04-.17-.07-.27-.1s-.22-.04-.36-.04c-.21,0-.38.05-.5.14-.12.09-.18.21-.18.36,0,.1.03.18.09.24.06.07.15.12.25.17.1.05.22.09.35.13.13.04.27.08.4.13.14.05.27.1.4.16s.25.14.35.23c.1.09.19.2.25.33.06.13.09.28.09.47,0,.22-.04.42-.12.6-.08.18-.19.34-.35.48-.15.13-.34.24-.57.31-.22.08-.48.11-.78.11-.16,0-.31-.01-.46-.04-.15-.03-.29-.07-.43-.12-.14-.05-.26-.11-.38-.18-.12-.07-.22-.14-.31-.22l.25-.41s.07-.09.11-.11c.04-.03.1-.04.17-.04s.13.02.19.06c.06.04.13.08.21.12s.17.08.28.12c.11.04.24.06.41.06.13,0,.24-.02.33-.05s.17-.07.23-.12.1-.11.13-.17.04-.13.04-.2c0-.11-.03-.19-.09-.26s-.15-.13-.25-.18-.22-.09-.36-.13c-.13-.04-.27-.08-.41-.13-.14-.05-.28-.1-.41-.17-.13-.06-.25-.14-.36-.24-.1-.1-.19-.22-.25-.36-.06-.14-.09-.31-.09-.51,0-.19.04-.36.11-.53.07-.17.18-.31.32-.44.14-.12.32-.22.53-.3s.46-.11.74-.11c.31,0,.59.05.85.15.26.1.47.24.64.4l-.25.39Z"/>
      <path d="M35.34,36.97s-.06.07-.09.1-.08.04-.13.04-.11-.02-.16-.05c-.05-.03-.12-.07-.19-.11s-.16-.08-.26-.11c-.1-.03-.23-.05-.38-.05-.19,0-.36.03-.5.1-.14.07-.26.17-.36.3-.1.13-.17.29-.21.47-.05.18-.07.39-.07.62s.03.46.08.64c.05.19.13.35.22.47.1.13.21.22.35.29.14.07.29.1.47.1s.31-.02.42-.06c.11-.04.2-.09.27-.14s.14-.1.19-.14.12-.06.18-.06c.09,0,.15.03.2.1l.31.4c-.12.14-.25.26-.39.35-.14.1-.29.17-.44.23-.15.06-.31.1-.47.12-.16.02-.32.04-.48.04-.28,0-.54-.05-.79-.16s-.46-.26-.65-.46-.33-.44-.44-.73-.16-.62-.16-.99c0-.33.05-.64.14-.92.1-.28.24-.53.42-.73s.41-.37.69-.49c.27-.12.59-.18.94-.18s.63.05.89.16c.25.11.48.26.68.47l-.29.4Z"/>
      <path d="M38.27,35.94c.33,0,.64.05.91.16.27.11.51.26.7.46.2.2.35.44.45.73s.16.61.16.96-.05.68-.16.97-.26.53-.45.73-.43.36-.7.47c-.27.11-.58.16-.91.16s-.64-.05-.92-.16c-.28-.11-.51-.26-.71-.47-.2-.2-.35-.45-.45-.73s-.16-.61-.16-.97.05-.68.16-.96.26-.53.45-.73c.19-.2.43-.35.71-.46.28-.11.58-.16.92-.16ZM38.27,39.76c.38,0,.65-.13.83-.38.18-.25.27-.62.27-1.11s-.09-.86-.27-1.11c-.18-.26-.46-.38-.83-.38s-.66.13-.85.39c-.18.26-.27.63-.27,1.11s.09.85.27,1.11c.18.25.47.38.85.38Z"/>
      <path d="M42.34,36.57c.09-.09.19-.18.29-.25s.21-.14.32-.2.23-.1.36-.13c.13-.03.27-.05.42-.05.25,0,.47.04.66.13.19.08.35.2.48.35.13.15.22.33.29.54.07.21.1.44.1.69v2.87h-1.09v-2.87c0-.28-.06-.49-.19-.64-.13-.15-.32-.23-.58-.23-.19,0-.36.04-.53.13-.16.09-.32.2-.47.35v3.27h-1.09v-4.52h.66c.14,0,.23.07.28.2l.07.36Z"/>
      <path d="M47.74,40.6c-.39,0-.69-.11-.9-.33-.21-.22-.31-.53-.31-.92v-2.52h-.46c-.06,0-.11-.02-.15-.06-.04-.04-.06-.1-.06-.17v-.43l.73-.12.23-1.23c.01-.06.04-.1.08-.14s.09-.05.16-.05h.56v1.42h1.21v.77h-1.21v2.45c0,.14.03.25.1.33.07.08.16.12.28.12.07,0,.12,0,.17-.02s.08-.03.12-.05.06-.03.09-.05.05-.02.08-.02c.03,0,.06,0,.08.02s.04.04.07.07l.33.53c-.16.13-.34.23-.55.3-.21.07-.42.1-.64.1Z"/>
      <path d="M49.4,36.64c.52-.48,1.14-.71,1.88-.71.26,0,.5.04.71.13.21.09.38.21.53.36.14.15.25.34.33.55.07.21.11.45.11.7v2.85h-.49c-.1,0-.18-.02-.24-.05s-.1-.09-.13-.19l-.1-.33c-.11.1-.23.19-.33.27-.11.08-.22.14-.34.2-.12.05-.24.09-.38.12-.13.03-.28.04-.44.04-.19,0-.37-.03-.53-.08-.16-.05-.3-.13-.42-.23-.12-.1-.21-.23-.27-.38-.06-.15-.1-.33-.1-.53,0-.11.02-.23.06-.34.04-.11.1-.22.19-.32.09-.1.2-.2.34-.29.14-.09.31-.17.51-.24s.44-.12.7-.17.57-.07.92-.08v-.26c0-.3-.06-.53-.19-.67-.13-.15-.32-.22-.56-.22-.18,0-.32.02-.44.06-.12.04-.22.09-.31.14s-.17.1-.24.14c-.07.04-.15.06-.24.06-.08,0-.14-.02-.19-.06-.05-.04-.1-.09-.13-.14l-.19-.35ZM51.89,38.6c-.31.01-.58.04-.79.08-.21.04-.39.09-.51.15-.13.06-.22.13-.28.22-.06.08-.08.17-.08.27,0,.19.06.33.17.41.11.08.26.12.44.12.22,0,.42-.04.58-.12s.32-.2.48-.37v-.76Z"/>
      <path d="M53.97,40.53v-4.52h.66c.14,0,.23.07.28.2l.07.33c.08-.09.16-.17.25-.24.09-.07.18-.14.28-.19.1-.05.2-.09.32-.13.11-.03.24-.05.37-.05.28,0,.52.08.7.23.18.15.32.36.41.61.07-.15.16-.28.26-.39.11-.11.22-.19.35-.26.13-.07.26-.12.4-.15.14-.03.29-.05.43-.05.25,0,.47.04.67.11.19.08.36.19.49.33.13.15.23.33.3.54.07.21.1.45.1.73v2.87h-1.09v-2.87c0-.29-.06-.5-.19-.65-.13-.15-.31-.22-.55-.22-.11,0-.21.02-.31.06s-.18.09-.25.17c-.07.07-.13.16-.17.27-.04.11-.06.23-.06.37v2.87h-1.09v-2.87c0-.3-.06-.52-.18-.66-.12-.14-.3-.21-.54-.21-.16,0-.31.04-.44.12-.14.08-.26.18-.38.32v3.31h-1.09Z"/>
      <path d="M62.62,34.69c0,.09-.02.18-.06.26s-.09.15-.15.22c-.06.06-.14.11-.22.15-.09.04-.18.06-.27.06s-.18-.02-.27-.06c-.08-.04-.16-.09-.22-.15-.06-.06-.11-.13-.15-.22s-.06-.17-.06-.26.02-.19.06-.27.09-.16.15-.22.13-.11.22-.15c.08-.04.17-.06.27-.06s.19.02.27.06c.08.04.16.09.22.15s.11.14.15.22.06.18.06.27ZM62.47,36.01v4.52h-1.09v-4.52h1.09Z"/>
      <path d="M64.6,36.57c.09-.09.19-.18.29-.25s.21-.14.32-.2.23-.1.36-.13c.13-.03.27-.05.42-.05.25,0,.47.04.66.13.19.08.35.2.48.35.13.15.22.33.29.54.07.21.1.44.1.69v2.87h-1.09v-2.87c0-.28-.06-.49-.19-.64-.13-.15-.32-.23-.58-.23-.19,0-.36.04-.53.13-.16.09-.32.2-.47.35v3.27h-1.09v-4.52h.66c.14,0,.23.07.28.2l.07.36Z"/>
      <path d="M68.44,36.64c.52-.48,1.14-.71,1.88-.71.26,0,.5.04.71.13.21.09.38.21.53.36.14.15.25.34.33.55.07.21.11.45.11.7v2.85h-.49c-.1,0-.18-.02-.24-.05s-.1-.09-.13-.19l-.1-.33c-.11.1-.23.19-.33.27-.11.08-.22.14-.34.2-.12.05-.24.09-.38.12-.13.03-.28.04-.44.04-.19,0-.37-.03-.53-.08-.16-.05-.3-.13-.42-.23-.12-.1-.21-.23-.27-.38-.06-.15-.1-.33-.1-.53,0-.11.02-.23.06-.34.04-.11.1-.22.19-.32.09-.1.2-.2.34-.29.14-.09.31-.17.51-.24s.44-.12.7-.17.57-.07.92-.08v-.26c0-.3-.06-.53-.19-.67-.13-.15-.32-.22-.56-.22-.18,0-.32.02-.44.06-.12.04-.22.09-.31.14s-.17.1-.24.14c-.07.04-.15.06-.24.06-.08,0-.14-.02-.19-.06-.05-.04-.1-.09-.13-.14l-.19-.35ZM70.93,38.6c-.31.01-.58.04-.79.08-.21.04-.39.09-.51.15-.13.06-.22.13-.28.22-.06.08-.08.17-.08.27,0,.19.06.33.17.41.11.08.26.12.44.12.22,0,.42-.04.58-.12s.32-.2.48-.37v-.76Z"/>
      <path d="M76.58,39.85c-.2.23-.42.41-.68.52s-.51.18-.78.2l-.06.22c.28.06.47.15.58.26s.17.24.17.39c0,.1-.03.19-.08.27s-.12.15-.22.2-.21.1-.34.13c-.13.03-.28.04-.43.04-.12,0-.23,0-.34-.02-.11-.02-.21-.04-.31-.07l.1-.34c.02-.07.06-.1.13-.1.04,0,.09.01.14.03s.12.03.22.03.17-.02.22-.06.07-.08.07-.13c0-.08-.05-.15-.16-.18s-.27-.07-.49-.1l.19-.58c-.25-.04-.48-.11-.69-.23-.21-.12-.4-.28-.55-.47-.16-.19-.28-.43-.37-.7s-.13-.57-.13-.91.05-.64.14-.92c.1-.28.24-.53.42-.73s.41-.37.69-.49c.27-.12.59-.18.94-.18s.63.05.89.16c.25.11.48.26.68.47l-.29.4s-.06.07-.09.1-.08.04-.13.04-.11-.02-.16-.05c-.05-.03-.12-.07-.19-.11s-.16-.08-.26-.11c-.1-.03-.23-.05-.38-.05-.19,0-.36.03-.5.1-.14.07-.26.17-.36.3-.1.13-.17.29-.21.47-.05.18-.07.39-.07.62s.03.46.08.64c.05.19.13.35.22.47.1.13.21.22.35.29.14.07.29.1.47.1s.31-.02.42-.06c.11-.04.2-.09.27-.14s.14-.1.19-.14.12-.06.18-.06c.09,0,.15.03.2.1l.31.4Z"/>
      <path d="M77.16,36.64c.52-.48,1.14-.71,1.88-.71.26,0,.5.04.71.13.21.09.38.21.53.36.14.15.25.34.33.55.07.21.11.45.11.7v2.85h-.49c-.1,0-.18-.02-.24-.05s-.1-.09-.13-.19l-.1-.33c-.11.1-.23.19-.33.27-.11.08-.22.14-.34.2-.12.05-.24.09-.38.12-.13.03-.28.04-.44.04-.19,0-.37-.03-.53-.08-.16-.05-.3-.13-.42-.23-.12-.1-.21-.23-.27-.38-.06-.15-.1-.33-.1-.53,0-.11.02-.23.06-.34.04-.11.1-.22.19-.32.09-.1.2-.2.34-.29.14-.09.31-.17.51-.24s.44-.12.7-.17.57-.07.92-.08v-.26c0-.3-.06-.53-.19-.67-.13-.15-.32-.22-.56-.22-.18,0-.32.02-.44.06-.12.04-.22.09-.31.14s-.17.1-.24.14c-.07.04-.15.06-.24.06-.08,0-.14-.02-.19-.06-.05-.04-.1-.09-.13-.14l-.19-.35ZM79.41,34.55c.09,0,.16-.02.21-.07.05-.05.07-.14.07-.26h.66c0,.16-.02.31-.07.45-.05.13-.11.25-.19.34-.08.1-.17.17-.28.22-.11.05-.23.08-.36.08-.11,0-.2-.02-.29-.06-.09-.04-.18-.08-.25-.12-.08-.04-.15-.08-.22-.12s-.13-.06-.19-.06c-.08,0-.15.03-.2.08-.05.05-.07.14-.07.26h-.67c0-.16.02-.31.07-.45.05-.13.11-.25.19-.34.08-.1.18-.17.29-.22.11-.05.23-.08.36-.08.11,0,.2.02.3.06.09.04.18.08.26.12s.15.08.22.12c.07.04.13.06.19.06ZM79.65,38.6c-.31.01-.58.04-.79.08-.21.04-.39.09-.51.15-.13.06-.22.13-.28.22-.06.08-.08.17-.08.27,0,.19.06.33.17.41.11.08.26.12.44.12.22,0,.42-.04.58-.12s.32-.2.48-.37v-.76Z"/>
      <path d="M83.73,35.94c.33,0,.64.05.91.16.27.11.51.26.7.46.2.2.35.44.45.73s.16.61.16.96-.05.68-.16.97-.26.53-.45.73-.43.36-.7.47c-.27.11-.58.16-.91.16s-.64-.05-.92-.16c-.28-.11-.51-.26-.71-.47-.2-.2-.35-.45-.45-.73s-.16-.61-.16-.97.05-.68.16-.96.26-.53.45-.73c.19-.2.43-.35.71-.46.28-.11.58-.16.92-.16ZM83.73,39.76c.38,0,.65-.13.83-.38.18-.25.27-.62.27-1.11s-.09-.86-.27-1.11c-.18-.26-.46-.38-.83-.38s-.66.13-.85.39c-.18.26-.27.63-.27,1.11s.09.85.27,1.11c.18.25.47.38.85.38Z"/>
      <path d="M17.73,51.17c.02.23.06.43.12.6.06.17.15.31.26.42.11.11.23.19.38.25.15.05.31.08.48.08s.33-.02.46-.06c.13-.04.24-.09.33-.14.1-.05.18-.1.25-.14s.14-.06.21-.06c.09,0,.16.03.2.1l.31.4c-.12.14-.26.26-.4.35-.15.1-.31.17-.47.23-.16.06-.33.1-.5.12-.17.02-.33.04-.49.04-.31,0-.61-.05-.88-.16s-.5-.26-.7-.46c-.2-.2-.36-.46-.47-.76-.11-.3-.17-.65-.17-1.05,0-.31.05-.6.15-.87.1-.27.24-.51.43-.71.19-.2.41-.36.68-.48.27-.12.57-.18.91-.18.28,0,.55.05.79.14.24.09.45.22.62.4.17.17.31.39.41.64.1.25.15.54.15.87,0,.16-.02.28-.05.33s-.1.09-.2.09h-2.79ZM19.8,50.52c0-.14-.02-.27-.06-.4-.04-.12-.1-.23-.18-.33s-.18-.17-.3-.22c-.12-.05-.26-.08-.42-.08-.31,0-.56.09-.74.27-.18.18-.3.43-.35.76h2.05Z"/>
      <path d="M27.66,46.75v6.54h-.66c-.14,0-.23-.07-.27-.2l-.09-.44c-.18.21-.39.38-.63.51-.24.13-.51.19-.83.19-.25,0-.47-.05-.68-.15-.21-.1-.38-.25-.53-.45-.15-.2-.26-.44-.34-.72s-.12-.62-.12-.99c0-.33.05-.65.14-.93.09-.29.22-.54.39-.75.17-.21.37-.38.61-.5.24-.12.5-.18.8-.18.25,0,.47.04.65.12.18.08.34.19.48.32v-2.38h1.09ZM26.57,49.93c-.12-.15-.26-.26-.4-.32-.15-.06-.3-.09-.47-.09s-.31.03-.44.09c-.13.06-.25.15-.34.28-.09.12-.17.28-.22.48-.05.19-.07.42-.07.68s.02.49.06.67c.04.18.1.33.18.45.08.12.18.2.29.25.11.05.24.08.38.08.23,0,.42-.05.58-.14.16-.09.31-.23.45-.4v-2.02Z"/>
      <path d="M29.57,51.17c.02.23.06.43.12.6.06.17.15.31.26.42.11.11.23.19.38.25.15.05.31.08.48.08s.33-.02.46-.06c.13-.04.24-.09.33-.14.1-.05.18-.1.25-.14s.14-.06.21-.06c.09,0,.16.03.2.1l.31.4c-.12.14-.26.26-.4.35-.15.1-.31.17-.47.23-.16.06-.33.1-.5.12-.17.02-.33.04-.49.04-.31,0-.61-.05-.88-.16s-.5-.26-.7-.46c-.2-.2-.36-.46-.47-.76-.11-.3-.17-.65-.17-1.05,0-.31.05-.6.15-.87.1-.27.24-.51.43-.71.19-.2.41-.36.68-.48.27-.12.57-.18.91-.18.28,0,.55.05.79.14.24.09.45.22.62.4.17.17.31.39.41.64.1.25.15.54.15.87,0,.16-.02.28-.05.33s-.1.09-.2.09h-2.79ZM31.64,50.52c0-.14-.02-.27-.06-.4-.04-.12-.1-.23-.18-.33s-.18-.17-.3-.22c-.12-.05-.26-.08-.42-.08-.31,0-.56.09-.74.27-.18.18-.3.43-.35.76h2.05Z"/>
      <path d="M36.19,49.66s-.06.08-.09.1-.07.03-.12.03c-.05,0-.11-.01-.17-.04-.06-.03-.13-.06-.21-.1-.08-.04-.17-.07-.27-.1s-.22-.04-.36-.04c-.21,0-.38.05-.5.14-.12.09-.18.21-.18.36,0,.1.03.18.09.24.06.07.15.12.25.17.1.05.22.09.35.13.13.04.27.08.4.13.14.05.27.1.4.16s.25.14.35.23c.1.09.19.2.25.33.06.13.09.28.09.47,0,.22-.04.42-.12.6-.08.18-.19.34-.35.48-.15.13-.34.24-.57.31-.22.08-.48.11-.78.11-.16,0-.31-.01-.46-.04-.15-.03-.29-.07-.43-.12-.14-.05-.26-.11-.38-.18-.12-.07-.22-.14-.31-.22l.25-.41s.07-.09.11-.11c.04-.03.1-.04.17-.04s.13.02.19.06c.06.04.13.08.21.12s.17.08.28.12c.11.04.24.06.41.06.13,0,.24-.02.33-.05s.17-.07.23-.12.1-.11.13-.17.04-.13.04-.2c0-.11-.03-.19-.09-.26s-.15-.13-.25-.18-.22-.09-.36-.13c-.13-.04-.27-.08-.41-.13-.14-.05-.28-.1-.41-.17-.13-.06-.25-.14-.36-.24-.1-.1-.19-.22-.25-.36-.06-.14-.09-.31-.09-.51,0-.19.04-.36.11-.53.07-.17.18-.31.32-.44.14-.12.32-.22.53-.3s.46-.11.74-.11c.31,0,.59.05.85.15.26.1.47.24.64.4l-.25.39Z"/>
      <path d="M38.39,49.33c.18-.19.38-.34.6-.46.22-.11.47-.17.76-.17.26,0,.5.05.71.15.21.1.39.25.54.44.15.19.26.42.34.7s.12.58.12.92c0,.37-.05.7-.14,1-.09.3-.22.56-.39.77-.17.21-.37.38-.61.5-.24.12-.5.18-.79.18-.14,0-.27-.01-.38-.04-.11-.03-.22-.07-.32-.12s-.19-.11-.27-.18c-.08-.07-.16-.15-.23-.24l-.05.3c-.02.08-.05.13-.09.16-.04.03-.1.05-.17.05h-.72v-6.54h1.09v2.58ZM38.39,52.12c.12.15.26.26.4.32.15.06.3.09.46.09s.32-.03.45-.09c.13-.06.25-.15.34-.28.09-.13.17-.29.22-.49s.07-.44.07-.71c0-.5-.08-.85-.25-1.08-.16-.22-.4-.33-.71-.33-.21,0-.39.05-.55.14-.16.1-.3.23-.44.4v2.02Z"/>
      <path d="M43.32,49.56c.14-.27.31-.48.5-.64.19-.15.42-.23.69-.23.21,0,.38.05.5.14l-.07.81c-.01.05-.04.09-.06.11s-.07.03-.11.03c-.04,0-.11,0-.2-.02s-.17-.02-.25-.02c-.12,0-.23.02-.32.05-.09.04-.18.09-.25.15-.07.07-.14.15-.2.24-.06.09-.11.2-.16.32v2.78h-1.09v-4.52h.64c.11,0,.19.02.23.06s.07.11.09.21l.07.51Z"/>
      <path d="M46.86,47.46c0,.09-.02.18-.06.26s-.09.15-.15.22c-.06.06-.14.11-.22.15-.09.04-.18.06-.27.06s-.18-.02-.27-.06c-.08-.04-.16-.09-.22-.15-.06-.06-.11-.13-.15-.22s-.06-.17-.06-.26.02-.19.06-.27.09-.16.15-.22.13-.11.22-.15c.08-.04.17-.06.27-.06s.19.02.27.06c.08.04.16.09.22.15s.11.14.15.22.06.18.06.27ZM46.71,48.78v4.52h-1.09v-4.52h1.09Z"/>
      <path d="M51.74,46.75v6.54h-.66c-.14,0-.23-.07-.27-.2l-.09-.44c-.18.21-.39.38-.63.51-.24.13-.51.19-.83.19-.25,0-.47-.05-.68-.15-.21-.1-.38-.25-.53-.45-.15-.2-.26-.44-.34-.72s-.12-.62-.12-.99c0-.33.05-.65.14-.93.09-.29.22-.54.39-.75.17-.21.37-.38.61-.5.24-.12.5-.18.8-.18.25,0,.47.04.65.12.18.08.34.19.48.32v-2.38h1.09ZM50.65,49.93c-.12-.15-.26-.26-.4-.32-.15-.06-.3-.09-.47-.09s-.31.03-.44.09c-.13.06-.25.15-.34.28-.09.12-.17.28-.22.48-.05.19-.07.42-.07.68s.02.49.06.67c.04.18.1.33.18.45.08.12.18.2.29.25.11.05.24.08.38.08.23,0,.42-.05.58-.14.16-.09.31-.23.45-.4v-2.02Z"/>
      <path d="M52.71,49.41c.52-.48,1.14-.71,1.88-.71.26,0,.5.04.71.13.21.09.38.21.53.36.14.15.25.34.33.55.07.21.11.45.11.7v2.85h-.49c-.1,0-.18-.02-.24-.05s-.1-.09-.13-.19l-.1-.33c-.11.1-.23.19-.33.27-.11.08-.22.14-.34.2-.12.05-.24.09-.38.12-.13.03-.28.04-.44.04-.19,0-.37-.03-.53-.08-.16-.05-.3-.13-.42-.23-.12-.1-.21-.23-.27-.38-.06-.15-.1-.33-.1-.53,0-.11.02-.23.06-.34.04-.11.1-.22.19-.32.09-.1.2-.2.34-.29.14-.09.31-.17.51-.24s.44-.12.7-.17.57-.07.92-.08v-.26c0-.3-.06-.53-.19-.67-.13-.15-.32-.22-.56-.22-.18,0-.32.02-.44.06-.12.04-.22.09-.31.14s-.17.1-.24.14c-.07.04-.15.06-.24.06-.08,0-.14-.02-.19-.06-.05-.04-.1-.09-.13-.14l-.19-.35ZM55.2,51.36c-.31.01-.58.04-.79.08-.21.04-.39.09-.51.15-.13.06-.22.13-.28.22-.06.08-.08.17-.08.27,0,.19.06.33.17.41.11.08.26.12.44.12.22,0,.42-.04.58-.12s.32-.2.48-.37v-.76Z"/>
      <path d="M57.28,53.29v-4.52h.66c.14,0,.23.07.28.2l.07.33c.08-.09.16-.17.25-.24.09-.07.18-.14.28-.19.1-.05.2-.09.32-.13.11-.03.24-.05.37-.05.28,0,.52.08.7.23.18.15.32.36.41.61.07-.15.16-.28.26-.39.11-.11.22-.19.35-.26.13-.07.26-.12.4-.15.14-.03.29-.05.43-.05.25,0,.47.04.67.11.19.08.36.19.49.33.13.15.23.33.3.54.07.21.1.45.1.73v2.87h-1.09v-2.87c0-.29-.06-.5-.19-.65-.13-.15-.31-.22-.55-.22-.11,0-.21.02-.31.06s-.18.09-.25.17c-.07.07-.13.16-.17.27-.04.11-.06.23-.06.37v2.87h-1.09v-2.87c0-.3-.06-.52-.18-.66-.12-.14-.3-.21-.54-.21-.16,0-.31.04-.44.12-.14.08-.26.18-.38.32v3.31h-1.09Z"/>
      <path d="M65.49,51.17c.02.23.06.43.12.6.06.17.15.31.26.42.11.11.23.19.38.25.15.05.31.08.48.08s.33-.02.46-.06c.13-.04.24-.09.33-.14.1-.05.18-.1.25-.14s.14-.06.21-.06c.09,0,.16.03.2.1l.31.4c-.12.14-.26.26-.4.35-.15.1-.31.17-.47.23-.16.06-.33.1-.5.12-.17.02-.33.04-.49.04-.31,0-.61-.05-.88-.16s-.5-.26-.7-.46c-.2-.2-.36-.46-.47-.76-.11-.3-.17-.65-.17-1.05,0-.31.05-.6.15-.87.1-.27.24-.51.43-.71.19-.2.41-.36.68-.48.27-.12.57-.18.91-.18.28,0,.55.05.79.14.24.09.45.22.62.4.17.17.31.39.41.64.1.25.15.54.15.87,0,.16-.02.28-.05.33s-.1.09-.2.09h-2.79ZM67.57,50.52c0-.14-.02-.27-.06-.4-.04-.12-.1-.23-.18-.33s-.18-.17-.3-.22c-.12-.05-.26-.08-.42-.08-.31,0-.56.09-.74.27-.18.18-.3.43-.35.76h2.05Z"/>
      <path d="M70.37,49.33c.09-.09.19-.18.29-.25s.21-.14.32-.2.23-.1.36-.13c.13-.03.27-.05.42-.05.25,0,.47.04.66.13.19.08.35.2.48.35.13.15.22.33.29.54.07.21.1.44.1.69v2.87h-1.09v-2.87c0-.28-.06-.49-.19-.64-.13-.15-.32-.23-.58-.23-.19,0-.36.04-.53.13-.16.09-.32.2-.47.35v3.27h-1.09v-4.52h.66c.14,0,.23.07.28.2l.07.36Z"/>
      <path d="M75.77,53.36c-.39,0-.69-.11-.9-.33-.21-.22-.31-.53-.31-.92v-2.52h-.46c-.06,0-.11-.02-.15-.06-.04-.04-.06-.1-.06-.17v-.43l.73-.12.23-1.23c.01-.06.04-.1.08-.14s.09-.05.16-.05h.56v1.42h1.21v.77h-1.21v2.45c0,.14.03.25.1.33.07.08.16.12.28.12.07,0,.12,0,.17-.02s.08-.03.12-.05.06-.03.09-.05.05-.02.08-.02c.03,0,.06,0,.08.02s.04.04.07.07l.33.53c-.16.13-.34.23-.55.3-.21.07-.42.1-.64.1Z"/>
      <path d="M79.5,48.71c.33,0,.64.05.91.16.27.11.51.26.7.46.2.2.35.44.45.73s.16.61.16.96-.05.68-.16.97-.26.53-.45.73-.43.36-.7.47c-.27.11-.58.16-.91.16s-.64-.05-.92-.16c-.28-.11-.51-.26-.71-.47-.2-.2-.35-.45-.45-.73s-.16-.61-.16-.97.05-.68.16-.96.26-.53.45-.73c.19-.2.43-.35.71-.46.28-.11.58-.16.92-.16ZM79.5,52.52c.38,0,.65-.13.83-.38.18-.25.27-.62.27-1.11s-.09-.86-.27-1.11c-.18-.26-.46-.38-.83-.38s-.66.13-.85.39c-.18.26-.27.63-.27,1.11s.09.85.27,1.11c.18.25.47.38.85.38Z"/>
    </g>
    <g>
      <path d="M40.96,73.86v2.58c-.32.24-.67.41-1.03.52-.37.11-.76.17-1.17.17-.52,0-.99-.08-1.41-.24-.42-.16-.78-.39-1.08-.67s-.53-.63-.69-1.03c-.16-.4-.24-.83-.24-1.31s.08-.92.23-1.32c.16-.4.38-.74.66-1.03s.63-.51,1.04-.67c.41-.16.87-.24,1.37-.24.26,0,.5.02.72.06.22.04.43.1.62.17.19.07.37.16.53.26.16.1.3.22.44.34l-.34.54c-.05.09-.12.14-.21.16-.09.02-.18,0-.28-.06-.1-.06-.19-.11-.29-.17-.1-.06-.2-.1-.32-.15-.12-.04-.25-.08-.4-.1-.15-.03-.32-.04-.51-.04-.31,0-.6.05-.85.16-.25.11-.47.26-.65.45-.18.2-.32.43-.41.71s-.15.58-.15.92c0,.36.05.69.16.98.1.29.25.53.44.73.19.2.42.35.68.45s.56.16.89.16c.23,0,.44-.02.63-.07s.37-.12.54-.2v-1.15h-.8c-.08,0-.14-.02-.18-.06-.04-.04-.06-.09-.06-.16v-.67h2.11Z"/>
      <path d="M42.89,73.32c.14-.27.31-.48.5-.64.19-.15.42-.23.69-.23.21,0,.38.05.5.14l-.07.81c-.01.05-.04.09-.06.11s-.07.03-.11.03c-.04,0-.11,0-.2-.02s-.17-.02-.25-.02c-.12,0-.23.02-.32.05-.09.04-.18.09-.25.15-.07.07-.14.15-.2.24-.06.09-.11.2-.16.32v2.78h-1.09v-4.52h.64c.11,0,.19.02.23.06s.07.11.09.21l.07.51Z"/>
      <path d="M44.99,73.17c.52-.48,1.14-.71,1.88-.71.26,0,.5.04.71.13.21.09.38.21.53.36.14.15.25.34.33.55.07.21.11.45.11.7v2.85h-.49c-.1,0-.18-.02-.24-.05s-.1-.09-.13-.19l-.1-.33c-.11.1-.23.19-.33.27-.11.08-.22.14-.34.2-.12.05-.24.09-.38.12-.13.03-.28.04-.44.04-.19,0-.37-.03-.53-.08-.16-.05-.3-.13-.42-.23-.12-.1-.21-.23-.27-.38-.06-.15-.1-.33-.1-.53,0-.11.02-.23.06-.34.04-.11.1-.22.19-.32.09-.1.2-.2.34-.29.14-.09.31-.17.51-.24s.44-.12.7-.17.57-.07.92-.08v-.26c0-.3-.06-.53-.19-.67-.13-.15-.32-.22-.56-.22-.18,0-.32.02-.44.06-.12.04-.22.09-.31.14s-.17.1-.24.14c-.07.04-.15.06-.24.06-.08,0-.14-.02-.19-.06-.05-.04-.1-.09-.13-.14l-.19-.35ZM47.48,75.13c-.31.01-.58.04-.79.08-.21.04-.39.09-.51.15-.13.06-.22.13-.28.22-.06.08-.08.17-.08.27,0,.19.06.33.17.41.11.08.26.12.44.12.22,0,.42-.04.58-.12s.32-.2.48-.37v-.76Z"/>
      <path d="M50.58,73.09c.09-.09.19-.18.29-.25s.21-.14.32-.2.23-.1.36-.13c.13-.03.27-.05.42-.05.25,0,.47.04.66.13.19.08.35.2.48.35.13.15.22.33.29.54.07.21.1.44.1.69v2.87h-1.09v-2.87c0-.28-.06-.49-.19-.64-.13-.15-.32-.23-.58-.23-.19,0-.36.04-.53.13-.16.09-.32.2-.47.35v3.27h-1.09v-4.52h.66c.14,0,.23.07.28.2l.07.36Z"/>
      <path d="M58.42,72.54v4.52h-.66c-.14,0-.23-.07-.27-.2l-.07-.36c-.19.19-.39.34-.61.46-.22.12-.49.17-.79.17-.25,0-.46-.04-.65-.13-.19-.08-.35-.2-.48-.35-.13-.15-.23-.33-.29-.54-.07-.21-.1-.44-.1-.69v-2.87h1.09v2.87c0,.28.06.49.19.64.13.15.32.23.57.23.19,0,.36-.04.53-.13.16-.08.32-.2.47-.35v-3.27h1.09Z"/>
      <path d="M60.59,70.51v6.54h-1.09v-6.54h1.09Z"/>
      <path d="M61.57,73.17c.52-.48,1.14-.71,1.88-.71.26,0,.5.04.71.13.21.09.38.21.53.36.14.15.25.34.33.55.07.21.11.45.11.7v2.85h-.49c-.1,0-.18-.02-.24-.05s-.1-.09-.13-.19l-.1-.33c-.11.1-.23.19-.33.27-.11.08-.22.14-.34.2-.12.05-.24.09-.38.12-.13.03-.28.04-.44.04-.19,0-.37-.03-.53-.08-.16-.05-.3-.13-.42-.23-.12-.1-.21-.23-.27-.38-.06-.15-.1-.33-.1-.53,0-.11.02-.23.06-.34.04-.11.1-.22.19-.32.09-.1.2-.2.34-.29.14-.09.31-.17.51-.24s.44-.12.7-.17.57-.07.92-.08v-.26c0-.3-.06-.53-.19-.67-.13-.15-.32-.22-.56-.22-.18,0-.32.02-.44.06-.12.04-.22.09-.31.14s-.17.1-.24.14c-.07.04-.15.06-.24.06-.08,0-.14-.02-.19-.06-.05-.04-.1-.09-.13-.14l-.19-.35ZM64.07,75.13c-.31.01-.58.04-.79.08-.21.04-.39.09-.51.15-.13.06-.22.13-.28.22-.06.08-.08.17-.08.27,0,.19.06.33.17.41.11.08.26.12.44.12.22,0,.42-.04.58-.12s.32-.2.48-.37v-.76Z"/>
      <path d="M69.71,76.38c-.2.23-.42.41-.68.52s-.51.18-.78.2l-.06.22c.28.06.47.15.58.26s.17.24.17.39c0,.1-.03.19-.08.27s-.12.15-.22.2-.21.1-.34.13c-.13.03-.28.04-.43.04-.12,0-.23,0-.34-.02-.11-.02-.21-.04-.31-.07l.1-.34c.02-.07.06-.1.13-.1.04,0,.09.01.14.03s.12.03.22.03.17-.02.22-.06.07-.08.07-.13c0-.08-.05-.15-.16-.18s-.27-.07-.49-.1l.19-.58c-.25-.04-.48-.11-.69-.23-.21-.12-.4-.28-.55-.47-.16-.19-.28-.43-.37-.7s-.13-.57-.13-.91.05-.64.14-.92c.1-.28.24-.53.42-.73s.41-.37.69-.49c.27-.12.59-.18.94-.18s.63.05.89.16c.25.11.48.26.68.47l-.29.4s-.06.07-.09.1-.08.04-.13.04-.11-.02-.16-.05c-.05-.03-.12-.07-.19-.11s-.16-.08-.26-.11c-.1-.03-.23-.05-.38-.05-.19,0-.36.03-.5.1-.14.07-.26.17-.36.3-.1.13-.17.29-.21.47-.05.18-.07.39-.07.62s.03.46.08.64c.05.19.13.35.22.47.1.13.21.22.35.29.14.07.29.1.47.1s.31-.02.42-.06c.11-.04.2-.09.27-.14s.14-.1.19-.14.12-.06.18-.06c.09,0,.15.03.2.1l.31.4Z"/>
      <path d="M70.29,73.17c.52-.48,1.14-.71,1.88-.71.26,0,.5.04.71.13.21.09.38.21.53.36.14.15.25.34.33.55.07.21.11.45.11.7v2.85h-.49c-.1,0-.18-.02-.24-.05s-.1-.09-.13-.19l-.1-.33c-.11.1-.23.19-.33.27-.11.08-.22.14-.34.2-.12.05-.24.09-.38.12-.13.03-.28.04-.44.04-.19,0-.37-.03-.53-.08-.16-.05-.3-.13-.42-.23-.12-.1-.21-.23-.27-.38-.06-.15-.1-.33-.1-.53,0-.11.02-.23.06-.34.04-.11.1-.22.19-.32.09-.1.2-.2.34-.29.14-.09.31-.17.51-.24s.44-.12.7-.17.57-.07.92-.08v-.26c0-.3-.06-.53-.19-.67-.13-.15-.32-.22-.56-.22-.18,0-.32.02-.44.06-.12.04-.22.09-.31.14s-.17.1-.24.14c-.07.04-.15.06-.24.06-.08,0-.14-.02-.19-.06-.05-.04-.1-.09-.13-.14l-.19-.35ZM72.54,71.07c.09,0,.16-.02.21-.07.05-.05.07-.14.07-.26h.66c0,.16-.02.31-.07.45-.05.13-.11.25-.19.34-.08.1-.17.17-.28.22-.11.05-.23.08-.36.08-.11,0-.2-.02-.29-.06-.09-.04-.18-.08-.25-.12-.08-.04-.15-.08-.22-.12s-.13-.06-.19-.06c-.08,0-.15.03-.2.08-.05.05-.07.14-.07.26h-.67c0-.16.02-.31.07-.45.05-.13.11-.25.19-.34.08-.1.18-.17.29-.22.11-.05.23-.08.36-.08.11,0,.2.02.3.06.09.04.18.08.26.12s.15.08.22.12c.07.04.13.06.19.06ZM72.79,75.13c-.31.01-.58.04-.79.08-.21.04-.39.09-.51.15-.13.06-.22.13-.28.22-.06.08-.08.17-.08.27,0,.19.06.33.17.41.11.08.26.12.44.12.22,0,.42-.04.58-.12s.32-.2.48-.37v-.76Z"/>
      <path d="M76.87,72.47c.33,0,.64.05.91.16.27.11.51.26.7.46.2.2.35.44.45.73s.16.61.16.96-.05.68-.16.97-.26.53-.45.73-.43.36-.7.47c-.27.11-.58.16-.91.16s-.64-.05-.92-.16c-.28-.11-.51-.26-.71-.47-.2-.2-.35-.45-.45-.73s-.16-.61-.16-.97.05-.68.16-.96.26-.53.45-.73c.19-.2.43-.35.71-.46.28-.11.58-.16.92-.16ZM76.87,76.28c.38,0,.65-.13.83-.38.18-.25.27-.62.27-1.11s-.09-.86-.27-1.11c-.18-.26-.46-.38-.83-.38s-.66.13-.85.39c-.18.26-.27.63-.27,1.11s.09.85.27,1.11c.18.25.47.38.85.38Z"/>
      <path d="M82.9,74.93c.02.23.06.43.12.6.06.17.15.31.26.42.11.11.23.19.38.25.15.05.31.08.48.08s.33-.02.46-.06c.13-.04.24-.09.33-.14.1-.05.18-.1.25-.14s.14-.06.21-.06c.09,0,.16.03.2.1l.31.4c-.12.14-.26.26-.4.35-.15.1-.31.17-.47.23-.16.06-.33.1-.5.12-.17.02-.33.04-.49.04-.31,0-.61-.05-.88-.16s-.5-.26-.7-.46c-.2-.2-.36-.46-.47-.76-.11-.3-.17-.65-.17-1.05,0-.31.05-.6.15-.87.1-.27.24-.51.43-.71.19-.2.41-.36.68-.48.27-.12.57-.18.91-.18.28,0,.55.05.79.14.24.09.45.22.62.4.17.17.31.39.41.64.1.25.15.54.15.87,0,.16-.02.28-.05.33s-.1.09-.2.09h-2.79ZM84.98,74.28c0-.14-.02-.27-.06-.4-.04-.12-.1-.23-.18-.33s-.18-.17-.3-.22c-.12-.05-.26-.08-.42-.08-.31,0-.56.09-.74.27-.18.18-.3.43-.35.76h2.05Z"/>
      <path d="M38.78,86.26s-.06.07-.09.1-.08.04-.13.04-.11-.02-.16-.05c-.05-.03-.12-.07-.19-.11s-.16-.08-.26-.11c-.1-.03-.23-.05-.38-.05-.19,0-.36.03-.5.1-.14.07-.26.17-.36.3-.1.13-.17.29-.21.47-.05.18-.07.39-.07.62s.03.46.08.64c.05.19.13.35.22.47.1.13.21.22.35.29.14.07.29.1.47.1s.31-.02.42-.06c.11-.04.2-.09.27-.14s.14-.1.19-.14.12-.06.18-.06c.09,0,.15.03.2.1l.31.4c-.12.14-.25.26-.39.35-.14.1-.29.17-.44.23-.15.06-.31.1-.47.12-.16.02-.32.04-.48.04-.28,0-.54-.05-.79-.16s-.46-.26-.65-.46-.33-.44-.44-.73-.16-.62-.16-.99c0-.33.05-.64.14-.92.1-.28.24-.53.42-.73s.41-.37.69-.49c.27-.12.59-.18.94-.18s.63.05.89.16c.25.11.48.26.68.47l-.29.4Z"/>
      <path d="M41.06,83.99c0,.09-.02.18-.06.26s-.09.15-.15.22c-.06.06-.14.11-.22.15-.09.04-.18.06-.27.06s-.18-.02-.27-.06c-.08-.04-.16-.09-.22-.15-.06-.06-.11-.13-.15-.22s-.06-.17-.06-.26.02-.19.06-.27.09-.16.15-.22.13-.11.22-.15c.08-.04.17-.06.27-.06s.19.02.27.06c.08.04.16.09.22.15s.11.14.15.22.06.18.06.27ZM40.91,85.3v4.52h-1.09v-4.52h1.09Z"/>
      <path d="M45.26,86.26s-.06.07-.09.1-.08.04-.13.04-.11-.02-.16-.05c-.05-.03-.12-.07-.19-.11s-.16-.08-.26-.11c-.1-.03-.23-.05-.38-.05-.19,0-.36.03-.5.1-.14.07-.26.17-.36.3-.1.13-.17.29-.21.47-.05.18-.07.39-.07.62s.03.46.08.64c.05.19.13.35.22.47.1.13.21.22.35.29.14.07.29.1.47.1s.31-.02.42-.06c.11-.04.2-.09.27-.14s.14-.1.19-.14.12-.06.18-.06c.09,0,.15.03.2.1l.31.4c-.12.14-.25.26-.39.35-.14.1-.29.17-.44.23-.15.06-.31.1-.47.12-.16.02-.32.04-.48.04-.28,0-.54-.05-.79-.16s-.46-.26-.65-.46-.33-.44-.44-.73-.16-.62-.16-.99c0-.33.05-.64.14-.92.1-.28.24-.53.42-.73s.41-.37.69-.49c.27-.12.59-.18.94-.18s.63.05.89.16c.25.11.48.26.68.47l-.29.4Z"/>
      <path d="M46.16,85.93c.52-.48,1.14-.71,1.88-.71.26,0,.5.04.71.13.21.09.38.21.53.36.14.15.25.34.33.55.07.21.11.45.11.7v2.85h-.49c-.1,0-.18-.02-.24-.05s-.1-.09-.13-.19l-.1-.33c-.11.1-.23.19-.33.27-.11.08-.22.14-.34.2-.12.05-.24.09-.38.12-.13.03-.28.04-.44.04-.19,0-.37-.03-.53-.08-.16-.05-.3-.13-.42-.23-.12-.1-.21-.23-.27-.38-.06-.15-.1-.33-.1-.53,0-.11.02-.23.06-.34.04-.11.1-.22.19-.32.09-.1.2-.2.34-.29.14-.09.31-.17.51-.24s.44-.12.7-.17.57-.07.92-.08v-.26c0-.3-.06-.53-.19-.67-.13-.15-.32-.22-.56-.22-.18,0-.32.02-.44.06-.12.04-.22.09-.31.14s-.17.1-.24.14c-.07.04-.15.06-.24.06-.08,0-.14-.02-.19-.06-.05-.04-.1-.09-.13-.14l-.19-.35ZM48.65,87.89c-.31.01-.58.04-.79.08-.21.04-.39.09-.51.15-.13.06-.22.13-.28.22-.06.08-.08.17-.08.27,0,.19.06.33.17.41.11.08.26.12.44.12.22,0,.42-.04.58-.12s.32-.2.48-.37v-.76Z"/>
      <path d="M52.18,89.89c-.39,0-.69-.11-.9-.33-.21-.22-.31-.53-.31-.92v-2.52h-.46c-.06,0-.11-.02-.15-.06-.04-.04-.06-.1-.06-.17v-.43l.73-.12.23-1.23c.01-.06.04-.1.08-.14s.09-.05.16-.05h.56v1.42h1.21v.77h-1.21v2.45c0,.14.03.25.1.33.07.08.16.12.28.12.07,0,.12,0,.17-.02s.08-.03.12-.05.06-.03.09-.05.05-.02.08-.02c.03,0,.06,0,.08.02s.04.04.07.07l.33.53c-.16.13-.34.23-.55.3-.21.07-.42.1-.64.1Z"/>
      <path d="M54.97,86.09c.14-.27.31-.48.5-.64.19-.15.42-.23.69-.23.21,0,.38.05.5.14l-.07.81c-.01.05-.04.09-.06.11s-.07.03-.11.03c-.04,0-.11,0-.2-.02s-.17-.02-.25-.02c-.12,0-.23.02-.32.05-.09.04-.18.09-.25.15-.07.07-.14.15-.2.24-.06.09-.11.2-.16.32v2.78h-1.09v-4.52h.64c.11,0,.19.02.23.06s.07.11.09.21l.07.51Z"/>
      <path d="M58.51,83.99c0,.09-.02.18-.06.26s-.09.15-.15.22c-.06.06-.14.11-.22.15-.09.04-.18.06-.27.06s-.18-.02-.27-.06c-.08-.04-.16-.09-.22-.15-.06-.06-.11-.13-.15-.22s-.06-.17-.06-.26.02-.19.06-.27.09-.16.15-.22.13-.11.22-.15c.08-.04.17-.06.27-.06s.19.02.27.06c.08.04.16.09.22.15s.11.14.15.22.06.18.06.27ZM58.36,85.3v4.52h-1.09v-4.52h1.09Z"/>
      <path d="M62.71,85.75c0,.08-.01.15-.04.22s-.06.13-.11.18l-2.14,2.83h2.22v.84h-3.49v-.45s.01-.11.04-.18c.02-.07.06-.13.11-.2l2.17-2.86h-2.18v-.83h3.42v.45Z"/>
      <path d="M63.41,85.93c.52-.48,1.14-.71,1.88-.71.26,0,.5.04.71.13.21.09.38.21.53.36.14.15.25.34.33.55.07.21.11.45.11.7v2.85h-.49c-.1,0-.18-.02-.24-.05s-.1-.09-.13-.19l-.1-.33c-.11.1-.23.19-.33.27-.11.08-.22.14-.34.2-.12.05-.24.09-.38.12-.13.03-.28.04-.44.04-.19,0-.37-.03-.53-.08-.16-.05-.3-.13-.42-.23-.12-.1-.21-.23-.27-.38-.06-.15-.1-.33-.1-.53,0-.11.02-.23.06-.34.04-.11.1-.22.19-.32.09-.1.2-.2.34-.29.14-.09.31-.17.51-.24s.44-.12.7-.17.57-.07.92-.08v-.26c0-.3-.06-.53-.19-.67-.13-.15-.32-.22-.56-.22-.18,0-.32.02-.44.06-.12.04-.22.09-.31.14s-.17.1-.24.14c-.07.04-.15.06-.24.06-.08,0-.14-.02-.19-.06-.05-.04-.1-.09-.13-.14l-.19-.35ZM65.9,87.89c-.31.01-.58.04-.79.08-.21.04-.39.09-.51.15-.13.06-.22.13-.28.22-.06.08-.08.17-.08.27,0,.19.06.33.17.41.11.08.26.12.44.12.22,0,.42-.04.58-.12s.32-.2.48-.37v-.76Z"/>
      <path d="M71.54,89.15c-.2.23-.42.41-.68.52s-.51.18-.78.2l-.06.22c.28.06.47.15.58.26s.17.24.17.39c0,.1-.03.19-.08.27s-.12.15-.22.2-.21.1-.34.13c-.13.03-.28.04-.43.04-.12,0-.23,0-.34-.02-.11-.02-.21-.04-.31-.07l.1-.34c.02-.07.06-.1.13-.1.04,0,.09.01.14.03s.12.03.22.03.17-.02.22-.06.07-.08.07-.13c0-.08-.05-.15-.16-.18s-.27-.07-.49-.1l.19-.58c-.25-.04-.48-.11-.69-.23-.21-.12-.4-.28-.55-.47-.16-.19-.28-.43-.37-.7s-.13-.57-.13-.91.05-.64.14-.92c.1-.28.24-.53.42-.73s.41-.37.69-.49c.27-.12.59-.18.94-.18s.63.05.89.16c.25.11.48.26.68.47l-.29.4s-.06.07-.09.1-.08.04-.13.04-.11-.02-.16-.05c-.05-.03-.12-.07-.19-.11s-.16-.08-.26-.11c-.1-.03-.23-.05-.38-.05-.19,0-.36.03-.5.1-.14.07-.26.17-.36.3-.1.13-.17.29-.21.47-.05.18-.07.39-.07.62s.03.46.08.64c.05.19.13.35.22.47.1.13.21.22.35.29.14.07.29.1.47.1s.31-.02.42-.06c.11-.04.2-.09.27-.14s.14-.1.19-.14.12-.06.18-.06c.09,0,.15.03.2.1l.31.4Z"/>
      <path d="M72.13,85.93c.52-.48,1.14-.71,1.88-.71.26,0,.5.04.71.13.21.09.38.21.53.36.14.15.25.34.33.55.07.21.11.45.11.7v2.85h-.49c-.1,0-.18-.02-.24-.05s-.1-.09-.13-.19l-.1-.33c-.11.1-.23.19-.33.27-.11.08-.22.14-.34.2-.12.05-.24.09-.38.12-.13.03-.28.04-.44.04-.19,0-.37-.03-.53-.08-.16-.05-.3-.13-.42-.23-.12-.1-.21-.23-.27-.38-.06-.15-.1-.33-.1-.53,0-.11.02-.23.06-.34.04-.11.1-.22.19-.32.09-.1.2-.2.34-.29.14-.09.31-.17.51-.24s.44-.12.7-.17.57-.07.92-.08v-.26c0-.3-.06-.53-.19-.67-.13-.15-.32-.22-.56-.22-.18,0-.32.02-.44.06-.12.04-.22.09-.31.14s-.17.1-.24.14c-.07.04-.15.06-.24.06-.08,0-.14-.02-.19-.06-.05-.04-.1-.09-.13-.14l-.19-.35ZM74.37,83.84c.09,0,.16-.02.21-.07.05-.05.07-.14.07-.26h.66c0,.16-.02.31-.07.45-.05.13-.11.25-.19.34-.08.1-.17.17-.28.22-.11.05-.23.08-.36.08-.11,0-.2-.02-.29-.06-.09-.04-.18-.08-.25-.12-.08-.04-.15-.08-.22-.12s-.13-.06-.19-.06c-.08,0-.15.03-.2.08-.05.05-.07.14-.07.26h-.67c0-.16.02-.31.07-.45.05-.13.11-.25.19-.34.08-.1.18-.17.29-.22.11-.05.23-.08.36-.08.11,0,.2.02.3.06.09.04.18.08.26.12s.15.08.22.12c.07.04.13.06.19.06ZM74.62,87.89c-.31.01-.58.04-.79.08-.21.04-.39.09-.51.15-.13.06-.22.13-.28.22-.06.08-.08.17-.08.27,0,.19.06.33.17.41.11.08.26.12.44.12.22,0,.42-.04.58-.12s.32-.2.48-.37v-.76Z"/>
      <path d="M78.7,85.23c.33,0,.64.05.91.16.27.11.51.26.7.46.2.2.35.44.45.73s.16.61.16.96-.05.68-.16.97-.26.53-.45.73-.43.36-.7.47c-.27.11-.58.16-.91.16s-.64-.05-.92-.16c-.28-.11-.51-.26-.71-.47-.2-.2-.35-.45-.45-.73s-.16-.61-.16-.97.05-.68.16-.96.26-.53.45-.73c.19-.2.43-.35.71-.46.28-.11.58-.16.92-.16ZM78.7,89.05c.38,0,.65-.13.83-.38.18-.25.27-.62.27-1.11s-.09-.86-.27-1.11c-.18-.26-.46-.38-.83-.38s-.66.13-.85.39c-.18.26-.27.63-.27,1.11s.09.85.27,1.11c.18.25.47.38.85.38Z"/>
    </g>
    <g>
      <path d="M66.55,108.16v1.77h2.23v.91h-2.23v1.8h2.83v.95h-4.01v-6.37h4.01v.94h-2.83Z"/>
      <path d="M71.19,109.68c.19-.21.4-.38.63-.51.23-.13.51-.19.83-.19.25,0,.47.05.68.15.2.1.38.25.53.45.15.19.26.44.34.72.08.29.12.61.12.98,0,.34-.05.65-.14.94-.09.29-.22.54-.39.75-.17.21-.37.38-.61.5s-.51.18-.8.18c-.25,0-.47-.04-.65-.12-.18-.08-.34-.19-.48-.32v1.85h-1.09v-5.99h.66c.14,0,.23.07.28.2l.09.42ZM71.25,112.41c.12.15.26.25.4.32.15.06.3.09.47.09s.31-.03.44-.09c.13-.06.24-.16.34-.28s.16-.29.21-.48.07-.42.07-.68-.02-.49-.06-.67c-.04-.18-.1-.33-.18-.45-.08-.11-.18-.2-.29-.25s-.24-.08-.39-.08c-.23,0-.42.05-.58.14-.16.09-.31.23-.45.4v2.02Z"/>
      <path d="M76.44,107.75c0,.09-.02.18-.06.26s-.09.15-.15.21c-.06.06-.14.11-.22.15-.09.04-.18.05-.27.05s-.18-.02-.27-.05c-.08-.04-.16-.09-.22-.15-.06-.06-.11-.13-.15-.21s-.06-.17-.06-.26.02-.19.06-.27.09-.16.15-.22c.06-.06.13-.11.22-.15.08-.04.17-.06.27-.06s.19.02.27.06c.08.04.16.09.22.15.06.06.11.14.15.22s.06.18.06.27ZM76.29,109.06v4.52h-1.09v-4.52h1.09Z"/>
      <path d="M78.9,113.65c-.39,0-.69-.11-.9-.33-.21-.22-.31-.53-.31-.92v-2.52h-.46c-.06,0-.11-.02-.15-.06-.04-.04-.06-.09-.06-.17v-.43l.73-.12.23-1.23c.01-.06.04-.1.08-.14.04-.03.09-.05.16-.05h.56v1.42h1.21v.77h-1.21v2.45c0,.14.03.25.1.33.07.08.16.12.28.12.07,0,.12,0,.17-.02.05-.02.08-.03.12-.05.03-.02.06-.03.09-.05.03-.02.05-.02.08-.02.03,0,.06,0,.08.02.02.02.04.04.07.07l.33.53c-.16.13-.34.23-.55.3-.21.07-.42.1-.64.1Z"/>
      <path d="M81.47,111.46c.02.23.06.43.12.6.06.17.15.31.26.42s.23.19.38.25c.15.05.31.08.48.08s.33-.02.46-.06c.13-.04.24-.09.33-.14.1-.05.18-.1.25-.14s.14-.06.21-.06c.09,0,.16.03.2.1l.31.4c-.12.14-.26.26-.4.35-.15.1-.31.17-.47.23-.16.06-.33.1-.5.12-.17.02-.33.04-.49.04-.31,0-.61-.05-.88-.16-.27-.1-.5-.26-.7-.46s-.36-.46-.47-.76c-.11-.3-.17-.65-.17-1.05,0-.31.05-.6.15-.87.1-.27.24-.51.43-.71.19-.2.41-.36.68-.48.27-.12.57-.18.91-.18.28,0,.55.05.79.14s.45.22.62.4c.17.18.31.39.41.64.1.25.15.54.15.87,0,.16-.02.28-.05.33-.04.06-.1.09-.2.09h-2.79ZM83.55,110.8c0-.14-.02-.27-.06-.4s-.1-.23-.18-.33-.18-.17-.3-.22c-.12-.05-.26-.08-.42-.08-.31,0-.56.09-.74.27-.18.18-.3.43-.35.76h2.05Z"/>
      <path d="M86.44,107.04v6.54h-1.09v-6.54h1.09Z"/>
      <path d="M88.8,107.75c0,.09-.02.18-.06.26s-.09.15-.15.21c-.06.06-.14.11-.22.15-.09.04-.18.05-.27.05s-.18-.02-.27-.05c-.08-.04-.16-.09-.22-.15-.06-.06-.11-.13-.15-.21s-.06-.17-.06-.26.02-.19.06-.27.09-.16.15-.22c.06-.06.13-.11.22-.15.08-.04.17-.06.27-.06s.19.02.27.06c.08.04.16.09.22.15.06.06.11.14.15.22s.06.18.06.27ZM88.65,109.06v4.52h-1.09v-4.52h1.09Z"/>
      <path d="M93.01,109.51c0,.08-.01.15-.04.22s-.06.13-.11.18l-2.14,2.83h2.22v.84h-3.49v-.45s.01-.11.04-.18c.02-.07.06-.13.11-.2l2.17-2.86h-2.18v-.83h3.42v.45Z"/>
      <path d="M93.7,109.69c.52-.48,1.14-.71,1.88-.71.26,0,.5.04.71.13.21.09.38.21.53.36.14.15.25.34.33.55.07.21.11.45.11.7v2.85h-.49c-.1,0-.18-.02-.24-.05-.06-.03-.1-.09-.13-.19l-.1-.33c-.11.1-.23.19-.33.27-.11.08-.22.14-.34.2s-.24.09-.38.12c-.13.03-.28.04-.44.04-.19,0-.37-.03-.53-.08-.16-.05-.3-.13-.42-.23-.12-.1-.21-.23-.27-.38-.06-.15-.1-.33-.1-.53,0-.11.02-.23.06-.34.04-.11.1-.22.19-.32.09-.1.2-.2.34-.29.14-.09.31-.17.51-.24.2-.07.44-.12.7-.17.27-.04.57-.07.92-.08v-.26c0-.3-.06-.53-.19-.67-.13-.15-.32-.22-.56-.22-.18,0-.32.02-.44.06-.12.04-.22.09-.31.14-.09.05-.17.1-.24.14-.07.04-.15.06-.24.06-.08,0-.14-.02-.19-.06-.05-.04-.1-.09-.13-.14l-.19-.35ZM96.19,111.65c-.31.01-.58.04-.79.08-.21.04-.39.09-.51.15-.13.06-.22.13-.28.21-.06.08-.08.17-.08.27,0,.19.06.33.17.41.11.08.26.12.44.12.22,0,.42-.04.58-.12s.32-.2.48-.37v-.76Z"/>
      <path d="M101.84,112.91c-.2.24-.42.41-.68.52s-.51.18-.78.21l-.06.22c.28.06.47.15.58.26.11.11.17.24.17.39,0,.1-.03.19-.08.27-.05.08-.12.15-.22.2s-.21.1-.34.13c-.13.03-.28.04-.43.04-.12,0-.23,0-.34-.02-.11-.02-.21-.04-.31-.07l.1-.34c.02-.07.06-.1.13-.1.04,0,.09.01.14.03.05.02.12.03.22.03s.17-.02.22-.05.07-.08.07-.13c0-.09-.05-.15-.16-.18-.11-.04-.27-.07-.49-.1l.19-.58c-.25-.04-.48-.11-.69-.23-.21-.12-.4-.28-.55-.47-.16-.2-.28-.43-.37-.7-.09-.27-.13-.57-.13-.91s.05-.64.14-.92.24-.53.42-.73.41-.37.69-.49c.27-.12.59-.18.94-.18s.63.05.89.16c.25.11.48.26.68.47l-.29.4s-.06.07-.09.1-.08.04-.13.04-.11-.02-.16-.05c-.05-.03-.12-.07-.19-.11-.07-.04-.16-.08-.26-.12-.1-.03-.23-.05-.38-.05-.19,0-.36.04-.5.1-.14.07-.26.17-.36.3-.1.13-.17.29-.21.47s-.07.39-.07.62.03.45.08.64c.05.19.13.35.22.47.1.13.21.22.35.29.14.07.29.1.47.1s.31-.02.42-.06c.11-.04.2-.09.27-.14.07-.05.14-.1.19-.14.05-.04.12-.06.18-.06.09,0,.15.03.2.1l.31.4Z"/>
      <path d="M102.42,109.69c.52-.48,1.14-.71,1.88-.71.26,0,.5.04.71.13.21.09.38.21.53.36.14.15.25.34.33.55.07.21.11.45.11.7v2.85h-.49c-.1,0-.18-.02-.24-.05-.06-.03-.1-.09-.13-.19l-.1-.33c-.11.1-.23.19-.33.27-.11.08-.22.14-.34.2s-.24.09-.38.12c-.13.03-.28.04-.44.04-.19,0-.37-.03-.53-.08-.16-.05-.3-.13-.42-.23-.12-.1-.21-.23-.27-.38-.06-.15-.1-.33-.1-.53,0-.11.02-.23.06-.34.04-.11.1-.22.19-.32.09-.1.2-.2.34-.29.14-.09.31-.17.51-.24.2-.07.44-.12.7-.17.27-.04.57-.07.92-.08v-.26c0-.3-.06-.53-.19-.67-.13-.15-.32-.22-.56-.22-.18,0-.32.02-.44.06-.12.04-.22.09-.31.14-.09.05-.17.1-.24.14-.07.04-.15.06-.24.06-.08,0-.14-.02-.19-.06-.05-.04-.1-.09-.13-.14l-.19-.35ZM104.67,107.6c.09,0,.16-.02.21-.07s.07-.14.07-.26h.66c0,.16-.02.31-.07.45s-.11.25-.19.34c-.08.1-.17.17-.28.22-.11.05-.23.08-.36.08-.11,0-.2-.02-.29-.06-.09-.04-.18-.08-.25-.12-.08-.04-.15-.08-.22-.12s-.13-.06-.19-.06c-.08,0-.15.03-.2.08-.05.05-.07.14-.07.26h-.67c0-.16.02-.31.07-.45.05-.13.11-.25.19-.34.08-.1.18-.17.29-.22.11-.05.23-.08.36-.08.11,0,.2.02.3.06.09.04.18.08.26.12.08.04.15.08.22.12.07.04.13.06.19.06ZM104.91,111.65c-.31.01-.58.04-.79.08-.21.04-.39.09-.51.15-.13.06-.22.13-.28.21-.06.08-.08.17-.08.27,0,.19.06.33.17.41.11.08.26.12.44.12.22,0,.42-.04.58-.12s.32-.2.48-.37v-.76Z"/>
      <path d="M108.99,108.99c.33,0,.64.05.91.16.27.11.51.26.7.46.2.2.35.44.45.73.11.29.16.61.16.96s-.05.68-.16.97c-.11.29-.26.53-.45.74s-.43.36-.7.47-.58.16-.91.16-.64-.05-.92-.16c-.28-.11-.51-.26-.71-.47-.2-.2-.35-.45-.45-.74-.11-.29-.16-.61-.16-.97s.05-.68.16-.96c.11-.29.26-.53.45-.73.19-.2.43-.35.71-.46.28-.11.58-.16.92-.16ZM108.99,112.81c.38,0,.65-.13.83-.38.18-.25.27-.62.27-1.11s-.09-.86-.27-1.11c-.18-.25-.46-.38-.83-.38s-.66.13-.85.39c-.18.26-.27.63-.27,1.11s.09.85.27,1.11c.18.25.47.38.85.38Z"/>
      <path d="M66.03,124.22c.02.23.06.43.12.6.06.17.15.31.26.42s.23.19.38.25c.15.05.31.08.48.08s.33-.02.46-.06c.13-.04.24-.09.33-.14.1-.05.18-.1.25-.14s.14-.06.21-.06c.09,0,.16.03.2.1l.31.4c-.12.14-.26.26-.4.35-.15.1-.31.17-.47.23-.16.06-.33.1-.5.12-.17.02-.33.04-.49.04-.31,0-.61-.05-.88-.16-.27-.1-.5-.26-.7-.46s-.36-.46-.47-.76c-.11-.3-.17-.65-.17-1.05,0-.31.05-.6.15-.87.1-.27.24-.51.43-.71.19-.2.41-.36.68-.48.27-.12.57-.18.91-.18.28,0,.55.05.79.14s.45.22.62.4c.17.17.31.39.41.64.1.25.15.54.15.87,0,.16-.02.28-.05.33-.04.06-.1.09-.2.09h-2.79ZM68.1,123.57c0-.14-.02-.27-.06-.4s-.1-.23-.18-.33-.18-.17-.3-.22c-.12-.05-.26-.08-.42-.08-.31,0-.56.09-.74.27-.18.18-.3.43-.35.76h2.05Z"/>
      <path d="M72.36,126.34v-3.7l-.39-.06c-.09-.02-.15-.05-.21-.09-.05-.04-.08-.1-.08-.18v-.44h.67v-.15c0-.28.05-.53.14-.77.09-.24.23-.44.41-.61.19-.17.42-.31.7-.41.28-.1.62-.15,1-.15.12,0,.25,0,.38.02.13.01.24.03.33.06l-.04.56c0,.07-.04.11-.11.12-.07.01-.15.02-.25.02-.28,0-.52.02-.72.07-.19.05-.35.12-.47.22-.12.1-.2.22-.26.37-.05.15-.08.32-.08.52v.11h2.8v4.48h-1.09v-3.7h-1.68v3.7h-1.09Z"/>
      <path d="M78.34,122.38c.09-.09.19-.17.29-.25s.21-.14.32-.2c.11-.05.23-.1.36-.13.13-.03.27-.05.42-.05.25,0,.47.04.66.13.19.08.35.2.48.35.13.15.22.33.29.54.07.21.1.44.1.69v2.87h-1.09v-2.87c0-.28-.06-.49-.19-.64-.13-.15-.32-.23-.58-.23-.19,0-.36.04-.53.13-.16.08-.32.2-.47.35v3.27h-1.09v-4.52h.66c.14,0,.23.07.28.2l.07.36Z"/>
      <path d="M82.18,122.46c.52-.48,1.14-.71,1.88-.71.26,0,.5.04.71.13.21.09.38.21.53.36.14.15.25.34.33.55s.11.45.11.7v2.85h-.49c-.1,0-.18-.02-.24-.05-.06-.03-.1-.09-.13-.19l-.1-.33c-.11.1-.23.19-.33.27-.11.08-.22.14-.34.2s-.24.09-.38.12c-.13.03-.28.04-.44.04-.19,0-.37-.03-.53-.08-.16-.05-.3-.13-.42-.23-.12-.1-.21-.23-.27-.38-.06-.15-.1-.33-.1-.53,0-.11.02-.23.06-.34.04-.11.1-.22.19-.32.09-.1.2-.2.34-.29.14-.09.31-.17.51-.24.2-.07.44-.12.7-.17.27-.04.57-.07.92-.08v-.26c0-.3-.06-.53-.19-.67-.13-.15-.32-.22-.56-.22-.18,0-.32.02-.44.06-.12.04-.22.09-.31.14-.09.05-.17.1-.24.14-.07.04-.15.06-.24.06-.08,0-.14-.02-.19-.06-.05-.04-.1-.09-.13-.14l-.19-.35ZM84.67,124.42c-.31.01-.58.04-.79.08-.21.04-.39.09-.51.15-.13.06-.22.13-.28.21-.06.08-.08.17-.08.27,0,.19.06.33.17.41.11.08.26.12.44.12.22,0,.42-.04.58-.12s.32-.2.48-.37v-.76Z"/>
      <path d="M87.86,119.8v6.54h-1.09v-6.54h1.09Z"/>
      <path d="M90.22,120.51c0,.09-.02.18-.06.26s-.09.15-.15.22-.14.11-.22.15c-.09.04-.18.05-.27.05s-.18-.02-.27-.05c-.08-.04-.16-.09-.22-.15s-.11-.13-.15-.22-.06-.17-.06-.26.02-.19.06-.27.09-.16.15-.22c.06-.06.13-.11.22-.15.08-.04.17-.06.27-.06s.19.02.27.06c.08.04.16.08.22.15.06.06.11.13.15.22s.06.18.06.27ZM90.07,121.83v4.52h-1.09v-4.52h1.09Z"/>
      <path d="M94.42,122.28c0,.08-.01.15-.04.22s-.06.13-.11.18l-2.14,2.83h2.22v.84h-3.49v-.45s.01-.11.04-.18c.02-.07.06-.13.11-.2l2.17-2.86h-2.18v-.83h3.42v.45Z"/>
      <path d="M95.12,122.46c.52-.48,1.14-.71,1.88-.71.26,0,.5.04.71.13.21.09.38.21.53.36.14.15.25.34.33.55s.11.45.11.7v2.85h-.49c-.1,0-.18-.02-.24-.05-.06-.03-.1-.09-.13-.19l-.1-.33c-.11.1-.23.19-.33.27-.11.08-.22.14-.34.2s-.24.09-.38.12c-.13.03-.28.04-.44.04-.19,0-.37-.03-.53-.08-.16-.05-.3-.13-.42-.23-.12-.1-.21-.23-.27-.38-.06-.15-.1-.33-.1-.53,0-.11.02-.23.06-.34.04-.11.1-.22.19-.32.09-.1.2-.2.34-.29.14-.09.31-.17.51-.24.2-.07.44-.12.7-.17.27-.04.57-.07.92-.08v-.26c0-.3-.06-.53-.19-.67-.13-.15-.32-.22-.56-.22-.18,0-.32.02-.44.06-.12.04-.22.09-.31.14-.09.05-.17.1-.24.14-.07.04-.15.06-.24.06-.08,0-.14-.02-.19-.06-.05-.04-.1-.09-.13-.14l-.19-.35ZM97.61,124.42c-.31.01-.58.04-.79.08-.21.04-.39.09-.51.15-.13.06-.22.13-.28.21-.06.08-.08.17-.08.27,0,.19.06.33.17.41.11.08.26.12.44.12.22,0,.42-.04.58-.12s.32-.2.48-.37v-.76Z"/>
      <path d="M103.26,125.67c-.2.24-.42.41-.68.52s-.51.18-.78.21l-.06.22c.28.06.47.15.58.26.11.11.17.24.17.39,0,.1-.03.19-.08.27-.05.08-.12.15-.22.2s-.21.1-.34.13c-.13.03-.28.04-.43.04-.12,0-.23,0-.34-.02-.11-.02-.21-.04-.31-.07l.1-.34c.02-.07.06-.1.13-.1.04,0,.09.01.14.03.05.02.12.03.22.03s.17-.02.22-.05.07-.08.07-.13c0-.09-.05-.15-.16-.18-.11-.04-.27-.07-.49-.1l.19-.58c-.25-.04-.48-.11-.69-.23-.21-.12-.4-.28-.55-.47-.16-.2-.28-.43-.37-.7-.09-.27-.13-.57-.13-.91s.05-.64.14-.92.24-.53.42-.74c.19-.21.41-.37.69-.49.27-.12.59-.18.94-.18s.63.05.89.16.48.26.68.47l-.29.4s-.06.07-.09.1c-.03.02-.08.04-.13.04s-.11-.02-.16-.05c-.05-.03-.12-.07-.19-.11-.07-.04-.16-.08-.26-.12-.1-.03-.23-.05-.38-.05-.19,0-.36.04-.5.1-.14.07-.26.17-.36.3-.1.13-.17.29-.21.47s-.07.39-.07.62.03.45.08.64c.05.19.13.35.22.47.1.13.21.22.35.29.14.07.29.1.47.1s.31-.02.42-.06c.11-.04.2-.09.27-.14.07-.05.14-.1.19-.14.05-.04.12-.06.18-.06.09,0,.15.03.2.1l.31.4Z"/>
      <path d="M103.84,122.46c.52-.48,1.14-.71,1.88-.71.26,0,.5.04.71.13.21.09.38.21.53.36.14.15.25.34.33.55s.11.45.11.7v2.85h-.49c-.1,0-.18-.02-.24-.05-.06-.03-.1-.09-.13-.19l-.1-.33c-.11.1-.23.19-.33.27-.11.08-.22.14-.34.2s-.24.09-.38.12c-.13.03-.28.04-.44.04-.19,0-.37-.03-.53-.08-.16-.05-.3-.13-.42-.23-.12-.1-.21-.23-.27-.38-.06-.15-.1-.33-.1-.53,0-.11.02-.23.06-.34.04-.11.1-.22.19-.32.09-.1.2-.2.34-.29.14-.09.31-.17.51-.24.2-.07.44-.12.7-.17.27-.04.57-.07.92-.08v-.26c0-.3-.06-.53-.19-.67-.13-.15-.32-.22-.56-.22-.18,0-.32.02-.44.06-.12.04-.22.09-.31.14-.09.05-.17.1-.24.14-.07.04-.15.06-.24.06-.08,0-.14-.02-.19-.06-.05-.04-.1-.09-.13-.14l-.19-.35ZM106.08,120.36c.09,0,.16-.02.21-.07.05-.05.07-.14.07-.26h.66c0,.16-.02.31-.07.45s-.11.25-.19.34c-.08.09-.17.17-.28.22-.11.05-.23.08-.36.08-.11,0-.2-.02-.29-.06-.09-.04-.18-.08-.25-.12-.08-.04-.15-.08-.22-.12s-.13-.06-.19-.06c-.08,0-.15.03-.2.08-.05.05-.07.14-.07.26h-.67c0-.16.02-.31.07-.45.05-.13.11-.25.19-.34.08-.09.18-.17.29-.22.11-.05.23-.08.36-.08.11,0,.2.02.3.06.09.04.18.08.26.12s.15.09.22.12c.07.04.13.06.19.06ZM106.33,124.42c-.31.01-.58.04-.79.08-.21.04-.39.09-.51.15-.13.06-.22.13-.28.21-.06.08-.08.17-.08.27,0,.19.06.33.17.41.11.08.26.12.44.12.22,0,.42-.04.58-.12s.32-.2.48-.37v-.76Z"/>
      <path d="M110.41,121.76c.33,0,.64.05.91.16s.51.26.7.46c.2.2.35.44.45.73.11.29.16.61.16.96s-.05.68-.16.97c-.11.29-.26.53-.45.74s-.43.36-.7.47-.58.16-.91.16-.64-.05-.92-.16c-.28-.11-.51-.26-.71-.47-.2-.2-.35-.45-.45-.74-.11-.29-.16-.61-.16-.97s.05-.68.16-.96c.11-.29.26-.53.45-.73.19-.2.43-.35.71-.46.28-.11.58-.16.92-.16ZM110.41,125.57c.38,0,.65-.13.83-.38.18-.25.27-.62.27-1.11s-.09-.86-.27-1.11c-.18-.25-.46-.38-.83-.38s-.66.13-.85.38c-.18.26-.27.63-.27,1.11s.09.85.27,1.11c.18.25.47.38.85.38Z"/>
    </g>
    <g>
      <path d="M101.92,150.77v6.37h-1.04v-4.11c0-.16,0-.34.03-.53l-1.92,3.61c-.09.17-.23.26-.42.26h-.17c-.19,0-.33-.09-.42-.26l-1.95-3.63c0,.1.02.19.02.29s0,.18,0,.26v4.11h-1.04v-6.37h.89c.05,0,.1,0,.14,0,.04,0,.07.01.1.02s.06.03.08.06.05.06.07.11l1.91,3.53c.05.09.1.19.14.29.04.1.08.2.12.31.04-.11.08-.21.13-.31s.09-.2.14-.29l1.88-3.53s.05-.08.07-.11.06-.05.09-.06.07-.02.1-.02c.04,0,.08,0,.14,0h.89Z"/>
      <path d="M102.95,153.25c.52-.48,1.14-.71,1.88-.71.26,0,.5.04.71.13.21.09.38.21.53.36.14.15.25.34.33.55s.11.45.11.7v2.85h-.49c-.1,0-.18-.02-.24-.05-.06-.03-.1-.09-.13-.19l-.1-.33c-.11.1-.23.19-.33.27-.11.08-.22.14-.34.2s-.24.09-.38.12c-.13.03-.28.04-.44.04-.19,0-.37-.03-.53-.08-.16-.05-.3-.13-.42-.23-.12-.1-.21-.23-.27-.38-.06-.15-.1-.33-.1-.53,0-.11.02-.23.06-.34.04-.11.1-.22.19-.32.09-.1.2-.2.34-.29.14-.09.31-.17.51-.24.2-.07.44-.12.7-.17.27-.04.57-.07.92-.08v-.26c0-.3-.06-.53-.19-.67-.13-.15-.32-.22-.56-.22-.18,0-.32.02-.44.06-.12.04-.22.09-.31.14-.09.05-.17.1-.24.14-.07.04-.15.06-.24.06-.08,0-.14-.02-.19-.06-.05-.04-.1-.09-.13-.14l-.19-.35ZM105.44,155.21c-.31.01-.58.04-.79.08-.21.04-.39.09-.51.15-.13.06-.22.13-.28.21-.06.08-.08.17-.08.27,0,.19.06.33.17.41.11.08.26.12.44.12.22,0,.42-.04.58-.12s.32-.2.48-.37v-.76Z"/>
      <path d="M108.54,153.17c.09-.09.19-.17.29-.25s.21-.14.32-.2c.11-.05.23-.1.36-.13.13-.03.27-.05.42-.05.25,0,.47.04.66.13.19.08.35.2.48.35.13.15.22.33.29.54.07.21.1.44.1.69v2.87h-1.09v-2.87c0-.28-.06-.49-.19-.64-.13-.15-.32-.23-.58-.23-.19,0-.36.04-.53.13-.16.08-.32.2-.47.35v3.27h-1.09v-4.52h.66c.14,0,.23.07.28.2l.07.36Z"/>
      <path d="M116.38,152.62v4.52h-.66c-.14,0-.23-.07-.27-.2l-.07-.36c-.19.19-.39.34-.61.46-.22.12-.49.17-.79.17-.25,0-.46-.04-.65-.12-.19-.08-.35-.2-.48-.35s-.23-.33-.29-.54c-.07-.21-.1-.44-.1-.69v-2.87h1.09v2.87c0,.28.06.49.19.64.13.15.32.23.57.23.19,0,.36-.04.53-.12.16-.08.32-.2.47-.35v-3.27h1.09Z"/>
      <path d="M118.96,157.21c-.39,0-.69-.11-.9-.33-.21-.22-.31-.53-.31-.92v-2.52h-.46c-.06,0-.11-.02-.15-.06-.04-.04-.06-.09-.06-.17v-.43l.73-.12.23-1.23c.01-.06.04-.1.08-.14s.09-.05.16-.05h.56v1.42h1.21v.77h-1.21v2.45c0,.14.03.25.1.33.07.08.16.12.28.12.07,0,.12,0,.17-.02.05-.02.08-.03.12-.05.03-.02.06-.03.09-.05.03-.02.05-.02.08-.02.03,0,.06,0,.08.02.02.02.04.04.07.07l.33.53c-.16.13-.34.23-.55.3-.21.07-.42.1-.64.1Z"/>
      <path d="M121.53,155.01c.02.23.06.43.12.6.06.17.15.31.26.42s.23.19.38.25c.15.05.31.08.48.08s.33-.02.46-.06c.13-.04.24-.09.33-.14.1-.05.18-.1.25-.14s.14-.06.21-.06c.09,0,.16.03.2.1l.31.4c-.12.14-.26.26-.4.35-.15.1-.31.17-.47.23-.16.06-.33.1-.5.12-.17.02-.33.04-.49.04-.31,0-.61-.05-.88-.16-.27-.1-.5-.26-.7-.46s-.36-.46-.47-.76c-.11-.3-.17-.65-.17-1.05,0-.31.05-.6.15-.87.1-.27.24-.51.43-.71.19-.2.41-.36.68-.48.27-.12.57-.18.91-.18.28,0,.55.05.79.14s.45.22.62.4c.17.17.31.39.41.64.1.25.15.54.15.87,0,.16-.02.28-.05.33-.04.06-.1.09-.2.09h-2.79ZM123.6,154.36c0-.14-.02-.27-.06-.4s-.1-.23-.18-.33-.18-.17-.3-.22c-.12-.05-.26-.08-.42-.08-.31,0-.56.09-.74.27-.18.18-.3.43-.35.76h2.05Z"/>
      <path d="M126.41,153.17c.09-.09.19-.17.29-.25s.21-.14.32-.2c.11-.05.23-.1.36-.13.13-.03.27-.05.42-.05.25,0,.47.04.66.13.19.08.35.2.48.35.13.15.22.33.29.54.07.21.1.44.1.69v2.87h-1.09v-2.87c0-.28-.06-.49-.19-.64-.13-.15-.32-.23-.58-.23-.19,0-.36.04-.53.13-.16.08-.32.2-.47.35v3.27h-1.09v-4.52h.66c.14,0,.23.07.28.2l.07.36Z"/>
      <path d="M133.92,156.46c-.2.24-.42.41-.68.52s-.51.18-.78.21l-.06.22c.28.06.47.15.58.26.11.11.17.24.17.39,0,.1-.03.19-.08.27-.05.08-.12.15-.22.2s-.21.1-.34.13c-.13.03-.28.04-.43.04-.12,0-.23,0-.34-.02-.11-.02-.21-.04-.31-.07l.1-.34c.02-.07.06-.1.13-.1.04,0,.09.01.14.03.05.02.12.03.22.03s.17-.02.22-.05.07-.08.07-.13c0-.09-.05-.15-.16-.18-.11-.04-.27-.07-.49-.1l.19-.58c-.25-.04-.48-.11-.69-.23-.21-.12-.4-.28-.55-.47-.16-.2-.28-.43-.37-.7-.09-.27-.13-.57-.13-.91s.05-.64.14-.92.24-.53.42-.74c.19-.21.41-.37.69-.49.27-.12.59-.18.94-.18s.63.05.89.16.48.26.68.47l-.29.4s-.06.07-.09.1c-.03.02-.08.04-.13.04s-.11-.02-.16-.05c-.05-.03-.12-.07-.19-.11-.07-.04-.16-.08-.26-.12-.1-.03-.23-.05-.38-.05-.19,0-.36.04-.5.1-.14.07-.26.17-.36.3-.1.13-.17.29-.21.47s-.07.39-.07.62.03.45.08.64c.05.19.13.35.22.47.1.13.21.22.35.29.14.07.29.1.47.1s.31-.02.42-.06c.11-.04.2-.09.27-.14.07-.05.14-.1.19-.14.05-.04.12-.06.18-.06.09,0,.15.03.2.1l.31.4Z"/>
      <path d="M134.5,153.25c.52-.48,1.14-.71,1.88-.71.26,0,.5.04.71.13.21.09.38.21.53.36.14.15.25.34.33.55s.11.45.11.7v2.85h-.49c-.1,0-.18-.02-.24-.05-.06-.03-.1-.09-.13-.19l-.1-.33c-.11.1-.23.19-.33.27-.11.08-.22.14-.34.2s-.24.09-.38.12c-.13.03-.28.04-.44.04-.19,0-.37-.03-.53-.08-.16-.05-.3-.13-.42-.23-.12-.1-.21-.23-.27-.38-.06-.15-.1-.33-.1-.53,0-.11.02-.23.06-.34.04-.11.1-.22.19-.32.09-.1.2-.2.34-.29.14-.09.31-.17.51-.24.2-.07.44-.12.7-.17.27-.04.57-.07.92-.08v-.26c0-.3-.06-.53-.19-.67-.13-.15-.32-.22-.56-.22-.18,0-.32.02-.44.06-.12.04-.22.09-.31.14-.09.05-.17.1-.24.14-.07.04-.15.06-.24.06-.08,0-.14-.02-.19-.06-.05-.04-.1-.09-.13-.14l-.19-.35ZM136.75,151.15c.09,0,.16-.02.21-.07.05-.05.07-.14.07-.26h.66c0,.16-.02.31-.07.45s-.11.25-.19.34c-.08.09-.17.17-.28.22-.11.05-.23.08-.36.08-.11,0-.2-.02-.29-.06-.09-.04-.18-.08-.25-.12-.08-.04-.15-.08-.22-.12s-.13-.06-.19-.06c-.08,0-.15.03-.2.08-.05.05-.07.14-.07.26h-.67c0-.16.02-.31.07-.45.05-.13.11-.25.19-.34.08-.09.18-.17.29-.22.11-.05.23-.08.36-.08.11,0,.2.02.3.06.09.04.18.08.26.12s.15.09.22.12c.07.04.13.06.19.06ZM136.99,155.21c-.31.01-.58.04-.79.08-.21.04-.39.09-.51.15-.13.06-.22.13-.28.21-.06.08-.08.17-.08.27,0,.19.06.33.17.41.11.08.26.12.44.12.22,0,.42-.04.58-.12s.32-.2.48-.37v-.76Z"/>
      <path d="M141.08,152.55c.33,0,.64.05.91.16s.51.26.7.46c.2.2.35.44.45.73.11.29.16.61.16.96s-.05.68-.16.97c-.11.29-.26.53-.45.74s-.43.36-.7.47-.58.16-.91.16-.64-.05-.92-.16c-.28-.11-.51-.26-.71-.47-.2-.2-.35-.45-.45-.74-.11-.29-.16-.61-.16-.97s.05-.68.16-.96c.11-.29.26-.53.45-.73.19-.2.43-.35.71-.46.28-.11.58-.16.92-.16ZM141.08,156.37c.38,0,.65-.13.83-.38.18-.25.27-.62.27-1.11s-.09-.86-.27-1.11c-.18-.25-.46-.38-.83-.38s-.66.13-.85.38c-.18.26-.27.63-.27,1.11s.09.85.27,1.11c.18.25.47.38.85.38Z"/>
    </g>
    <g>
      <path d="M182.15,31.68v-2.4h-6.74v-1.48h6.74v-2.4h1.22v6.28h-1.22Z"/>
      <path d="M180.07,32.68c.34.18.6.38.8.63.19.24.29.53.29.86,0,.26-.06.47-.17.63l-1.02-.09c-.07-.02-.11-.05-.14-.08-.03-.03-.04-.08-.04-.14,0-.06,0-.14.03-.25.02-.11.03-.21.03-.32,0-.15-.02-.28-.07-.4-.04-.12-.11-.22-.19-.32-.08-.09-.18-.18-.3-.25-.12-.07-.25-.14-.4-.2h-3.48v-1.36h5.65v.8c0,.14-.02.24-.07.29s-.14.09-.27.11l-.64.08Z"/>
      <path d="M180.26,35.3c.59.65.89,1.43.89,2.34,0,.33-.05.63-.16.89-.11.26-.26.48-.45.66-.19.18-.42.32-.69.41-.27.09-.56.14-.88.14h-3.57v-.62c0-.13.02-.23.06-.3.04-.07.12-.12.23-.17l.41-.12c-.13-.14-.24-.28-.34-.42s-.18-.28-.24-.42c-.07-.15-.12-.3-.15-.47-.04-.17-.05-.35-.05-.55,0-.24.03-.46.1-.66s.16-.38.29-.52c.13-.15.29-.26.48-.34.19-.08.41-.12.67-.12.14,0,.29.02.43.07.14.05.28.13.4.23.13.11.25.25.36.42.11.17.21.38.3.64.08.25.15.54.21.88.05.33.08.72.1,1.14h.33c.38,0,.66-.08.84-.24.18-.16.27-.39.27-.7,0-.22-.03-.4-.08-.55-.05-.14-.11-.27-.17-.38-.06-.11-.12-.21-.17-.3-.05-.09-.08-.19-.08-.3,0-.1.02-.18.07-.24s.11-.12.17-.16l.44-.24ZM177.82,38.42c-.02-.39-.05-.72-.1-.99-.05-.27-.11-.48-.19-.64-.08-.16-.17-.28-.27-.35-.1-.07-.21-.1-.34-.1-.24,0-.41.07-.51.21-.1.14-.15.33-.15.55,0,.28.05.52.15.72.1.2.25.4.46.6h.95Z"/>
      <path d="M175.32,42.82c0-.49.14-.87.42-1.13.28-.26.66-.39,1.15-.39h3.15v-.58c0-.07.02-.14.07-.19s.12-.08.21-.08h.54l.15.91,1.54.29c.07.02.13.05.17.1.04.05.06.12.06.2v.7h-1.78v1.51h-.97v-1.51h-3.06c-.18,0-.31.04-.41.13-.1.09-.15.2-.15.35,0,.08.01.16.03.21.02.06.04.11.06.15.02.04.04.08.06.11.02.03.03.07.03.1,0,.04,0,.07-.03.1-.02.03-.05.05-.09.08l-.66.41c-.17-.2-.29-.43-.37-.68s-.13-.52-.13-.8Z"/>
      <path d="M180.26,44.9c.59.65.89,1.43.89,2.34,0,.33-.05.63-.16.89-.11.26-.26.48-.45.66-.19.18-.42.32-.69.41-.27.09-.56.14-.88.14h-3.57v-.62c0-.13.02-.23.06-.3.04-.07.12-.12.23-.17l.41-.12c-.13-.14-.24-.28-.34-.42s-.18-.28-.24-.42c-.07-.15-.12-.3-.15-.47-.04-.17-.05-.35-.05-.55,0-.24.03-.46.1-.66s.16-.38.29-.52c.13-.15.29-.26.48-.34.19-.08.41-.12.67-.12.14,0,.29.02.43.07.14.05.28.13.4.23.13.11.25.25.36.42.11.17.21.38.3.64.08.25.15.54.21.88.05.33.08.72.1,1.14h.33c.38,0,.66-.08.84-.24.18-.16.27-.39.27-.7,0-.22-.03-.4-.08-.55-.05-.14-.11-.27-.17-.38-.06-.11-.12-.21-.17-.3-.05-.09-.08-.19-.08-.3,0-.1.02-.18.07-.24s.11-.12.17-.16l.44-.24ZM177.82,48.02c-.02-.39-.05-.72-.1-.99-.05-.27-.11-.48-.19-.64-.08-.16-.17-.28-.27-.35-.1-.07-.21-.1-.34-.1-.24,0-.41.07-.51.21-.1.14-.15.33-.15.55,0,.28.05.52.15.72.1.2.25.4.46.6h.95Z"/>
      <path d="M175.41,50.62h5.65v.83c0,.18-.08.29-.25.35l-.42.09c.11.1.21.2.3.31.09.11.17.22.24.35.07.12.12.25.16.4.04.14.06.3.06.46,0,.36-.1.65-.29.88-.19.23-.45.4-.77.51.19.09.35.2.48.33.13.13.24.28.33.43.08.16.15.33.19.5.04.18.06.36.06.54,0,.31-.05.59-.14.83s-.24.45-.42.61c-.18.17-.41.29-.67.38-.26.09-.57.13-.91.13h-3.59v-1.36h3.59c.36,0,.63-.08.81-.24.18-.16.27-.39.27-.69,0-.14-.02-.27-.07-.39s-.12-.22-.21-.31-.2-.16-.34-.21c-.14-.05-.29-.08-.47-.08h-3.59v-1.36h3.59c.38,0,.65-.08.83-.23.17-.15.26-.38.26-.67,0-.2-.05-.38-.15-.55-.1-.17-.23-.33-.4-.48h-4.13v-1.36Z"/>
      <path d="M178.06,60.88c-.29.02-.54.07-.75.15-.21.08-.39.19-.52.32-.14.13-.24.29-.31.47-.07.18-.1.38-.1.6s.03.41.08.57.11.3.17.42c.06.12.12.22.17.31s.08.18.08.26c0,.11-.04.2-.13.25l-.5.39c-.18-.15-.32-.32-.44-.51s-.21-.38-.29-.59c-.07-.2-.12-.41-.15-.62s-.04-.42-.04-.61c0-.39.06-.76.2-1.1s.32-.63.58-.88.57-.45.95-.59c.38-.14.81-.21,1.31-.21.38,0,.75.06,1.09.19.34.12.63.3.89.54.25.23.45.52.6.85.15.34.22.71.22,1.14,0,.36-.06.68-.17.99-.11.3-.28.56-.5.78-.22.22-.49.39-.8.51s-.68.18-1.09.18c-.21,0-.34-.02-.42-.07s-.11-.13-.11-.25v-3.49ZM178.88,63.47c.18,0,.34-.02.5-.07.16-.05.29-.12.41-.22.12-.1.21-.22.28-.38.07-.15.1-.33.1-.53,0-.39-.11-.7-.34-.93s-.54-.37-.95-.43v2.56Z"/>
      <path d="M180.36,66.98c.11.11.22.23.32.36.1.13.18.26.25.4.07.14.12.29.16.45.04.16.06.34.06.53,0,.31-.05.58-.16.82-.1.24-.25.44-.44.6-.19.16-.41.28-.68.36s-.55.12-.87.12h-3.59v-1.36h3.59c.34,0,.61-.08.8-.24.19-.16.28-.4.28-.72,0-.23-.05-.46-.16-.66-.11-.21-.25-.4-.43-.58h-4.08v-1.36h5.65v.83c0,.18-.08.29-.25.35l-.45.09Z"/>
      <path d="M175.32,73.72c0-.49.14-.87.42-1.13.28-.26.66-.39,1.15-.39h3.15v-.58c0-.07.02-.14.07-.19s.12-.08.21-.08h.54l.15.91,1.54.29c.07.02.13.05.17.1.04.05.06.12.06.2v.7h-1.78v1.51h-.97v-1.51h-3.06c-.18,0-.31.04-.41.13-.1.09-.15.2-.15.35,0,.08.01.16.03.21.02.06.04.11.06.15.02.04.04.08.06.11.02.03.03.07.03.1,0,.04,0,.07-.03.1-.02.03-.05.05-.09.08l-.66.41c-.17-.2-.29-.43-.37-.68s-.13-.52-.13-.8Z"/>
      <path d="M181.14,78.39c0,.42-.07.8-.2,1.14-.14.34-.33.64-.58.88-.25.24-.55.43-.91.56-.36.13-.76.2-1.21.2s-.85-.07-1.21-.2c-.36-.13-.67-.32-.92-.56-.25-.24-.45-.54-.58-.88-.14-.34-.2-.72-.2-1.14s.07-.81.2-1.15c.14-.35.33-.64.58-.88.25-.24.56-.43.92-.57.36-.13.76-.2,1.21-.2s.85.07,1.21.2c.36.13.66.32.91.57.25.24.44.54.58.88.14.34.2.73.2,1.15ZM176.37,78.39c0,.47.16.82.47,1.04.32.23.78.34,1.39.34s1.07-.11,1.39-.34.48-.57.48-1.04-.16-.83-.48-1.06c-.32-.23-.78-.34-1.39-.34s-1.07.11-1.38.34c-.32.23-.48.58-.48,1.06Z"/>
      <path d="M183.58,89.79h-8.18v-.83c0-.18.08-.29.25-.34l.54-.12c-.26-.23-.47-.49-.63-.78-.16-.3-.24-.64-.24-1.03,0-.31.06-.59.19-.85s.31-.48.56-.66c.24-.19.55-.33.91-.43.36-.1.77-.15,1.23-.15.42,0,.81.06,1.17.17s.67.28.94.49c.26.21.47.47.62.76.15.3.22.63.22,1,0,.32-.05.58-.15.81-.1.22-.23.42-.4.6h2.98v1.36ZM179.61,88.43c.19-.15.32-.32.4-.5s.12-.38.12-.59-.04-.39-.12-.56-.19-.31-.35-.42c-.16-.12-.35-.21-.59-.27-.24-.06-.52-.09-.85-.09s-.61.03-.84.08c-.23.05-.42.13-.56.23s-.25.22-.31.36c-.06.14-.1.3-.1.48,0,.28.06.52.18.72.12.2.28.38.5.56h2.53Z"/>
      <path d="M180.26,91c.59.65.89,1.43.89,2.34,0,.33-.05.63-.16.89-.11.26-.26.48-.45.66-.19.18-.42.32-.69.41-.27.09-.56.14-.88.14h-3.57v-.62c0-.13.02-.23.06-.3.04-.07.12-.12.23-.17l.41-.12c-.13-.14-.24-.28-.34-.42s-.18-.28-.24-.42c-.07-.15-.12-.3-.15-.47-.04-.17-.05-.35-.05-.55,0-.24.03-.46.1-.66s.16-.38.29-.52c.13-.15.29-.26.48-.34.19-.08.41-.12.67-.12.14,0,.29.02.43.07.14.05.28.13.4.23.13.11.25.25.36.42.11.17.21.38.3.64.08.25.15.54.21.88.05.33.08.72.1,1.14h.33c.38,0,.66-.08.84-.24.18-.16.27-.39.27-.7,0-.22-.03-.4-.08-.55-.05-.14-.11-.27-.17-.38-.06-.11-.12-.21-.17-.3-.05-.09-.08-.19-.08-.3,0-.1.02-.18.07-.24s.11-.12.17-.16l.44-.24ZM177.82,94.12c-.02-.39-.05-.72-.1-.99-.05-.27-.11-.48-.19-.64-.08-.16-.17-.28-.27-.35-.1-.07-.21-.1-.34-.1-.24,0-.41.07-.51.21-.1.14-.15.33-.15.55,0,.28.05.52.15.72.1.2.25.4.46.6h.95Z"/>
      <path d="M179.95,100.16c-.06-.04-.1-.08-.12-.12-.02-.04-.04-.09-.04-.15,0-.07.02-.14.05-.21.04-.08.08-.16.12-.26s.09-.21.12-.34c.04-.13.05-.28.05-.45,0-.27-.06-.48-.17-.63-.11-.15-.26-.23-.45-.23-.12,0-.22.04-.31.12-.08.08-.15.18-.22.31s-.12.28-.17.44-.1.33-.16.5c-.06.17-.13.34-.2.5-.08.17-.17.31-.29.44-.12.13-.25.23-.42.31-.16.08-.36.12-.58.12-.27,0-.52-.05-.75-.15-.23-.1-.43-.24-.59-.43s-.3-.43-.39-.71-.14-.6-.14-.97c0-.19.02-.38.05-.57.03-.19.08-.36.15-.53.06-.17.14-.33.22-.47.08-.14.18-.27.28-.38l.52.31c.06.04.11.09.14.14.03.05.05.12.05.21s-.02.16-.07.24c-.05.08-.1.16-.15.26-.05.1-.11.22-.15.35-.05.13-.07.3-.07.51,0,.16.02.3.06.42.04.12.09.21.15.29.06.08.14.13.22.17s.17.05.26.05c.13,0,.24-.04.32-.12.08-.08.16-.18.22-.31.06-.13.12-.28.17-.45.05-.17.1-.34.16-.51.06-.17.13-.35.21-.51.08-.17.18-.32.3-.45.12-.13.27-.23.45-.31.18-.08.39-.12.64-.12.23,0,.45.05.66.14s.39.23.55.4c.16.18.28.4.37.67.09.27.14.57.14.92,0,.39-.06.74-.19,1.06-.13.32-.3.59-.51.8l-.49-.31Z"/>
      <path d="M179.86,108.27c-.05-.04-.09-.08-.12-.12s-.04-.09-.04-.17c0-.07.02-.14.06-.2s.09-.14.14-.24c.05-.09.1-.2.14-.33s.06-.28.06-.47c0-.24-.04-.45-.13-.63-.09-.18-.21-.33-.37-.45-.16-.12-.36-.21-.59-.27-.23-.06-.49-.09-.78-.09s-.57.03-.8.1c-.23.06-.43.16-.59.28s-.28.27-.36.44-.12.37-.12.58.03.39.08.53.11.25.18.34c.06.09.12.17.18.24.05.07.08.14.08.23,0,.11-.04.19-.13.25l-.5.39c-.18-.15-.32-.31-.44-.49s-.21-.36-.29-.55c-.07-.19-.12-.38-.15-.58-.03-.2-.04-.4-.04-.6,0-.35.06-.68.2-.98s.32-.58.57-.81c.25-.23.56-.41.92-.55.36-.13.77-.2,1.24-.2.41,0,.8.06,1.15.18.35.12.66.29.92.53.26.23.46.52.61.86.15.34.22.73.22,1.18s-.07.79-.2,1.11c-.14.32-.33.6-.58.86l-.5-.36Z"/>
      <path d="M181.14,111.93c0,.42-.07.8-.2,1.14-.14.34-.33.64-.58.88-.25.24-.55.43-.91.56-.36.13-.76.2-1.21.2s-.85-.07-1.21-.2c-.36-.13-.67-.32-.92-.56-.25-.24-.45-.54-.58-.88-.14-.34-.2-.72-.2-1.14s.07-.8.2-1.15.33-.64.58-.88c.25-.24.56-.43.92-.57.36-.13.76-.2,1.21-.2s.85.07,1.21.2c.36.13.66.32.91.57.25.24.44.54.58.88s.2.73.2,1.15ZM176.37,111.93c0,.47.16.82.47,1.04.32.23.78.34,1.39.34s1.07-.11,1.39-.34.48-.57.48-1.04-.16-.83-.48-1.06c-.32-.23-.78-.34-1.39-.34s-1.07.11-1.38.34c-.32.23-.48.58-.48,1.06Z"/>
      <path d="M175.41,115.76h5.65v.83c0,.18-.08.29-.25.35l-.42.09c.11.1.21.2.3.31.09.11.17.22.24.35.07.12.12.25.16.4.04.14.06.3.06.46,0,.36-.1.65-.29.88-.19.23-.45.4-.77.51.19.09.35.2.48.33.13.13.24.28.33.43.08.16.15.33.19.5.04.18.06.36.06.54,0,.31-.05.59-.14.83s-.24.45-.42.61c-.18.17-.41.29-.67.38-.26.09-.57.13-.91.13h-3.59v-1.36h3.59c.36,0,.63-.08.81-.24.18-.16.27-.39.27-.69,0-.14-.02-.27-.07-.39-.05-.12-.12-.22-.21-.31s-.2-.16-.34-.21c-.14-.05-.29-.08-.47-.08h-3.59v-1.37h3.59c.38,0,.65-.08.83-.23.17-.15.26-.38.26-.67,0-.2-.05-.38-.15-.55-.1-.17-.23-.33-.4-.48h-4.13v-1.36Z"/>
      <path d="M181.14,127.47c0,.42-.07.8-.2,1.14-.14.34-.33.64-.58.88-.25.24-.55.43-.91.56-.36.13-.76.2-1.21.2s-.85-.07-1.21-.2c-.36-.13-.67-.32-.92-.56-.25-.24-.45-.54-.58-.88-.14-.34-.2-.72-.2-1.14s.07-.8.2-1.15.33-.64.58-.88c.25-.24.56-.43.92-.57.36-.13.76-.2,1.21-.2s.85.07,1.21.2.66.32.91.57c.25.24.44.54.58.88s.2.73.2,1.15ZM176.37,127.47c0,.47.16.82.47,1.04.32.23.78.34,1.39.34s1.07-.11,1.39-.34.48-.57.48-1.04-.16-.83-.48-1.06c-.32-.23-.78-.34-1.39-.34s-1.07.11-1.38.34c-.32.23-.48.58-.48,1.06Z"/>
      <path d="M180.07,132.58c.34.18.6.39.8.63.19.24.29.53.29.86,0,.26-.06.47-.17.63l-1.02-.09c-.07-.02-.11-.04-.14-.08-.03-.04-.04-.08-.04-.14,0-.05,0-.14.03-.24.02-.11.03-.21.03-.32,0-.15-.02-.28-.07-.4-.04-.12-.11-.22-.19-.32-.08-.09-.18-.18-.3-.25-.12-.07-.25-.14-.4-.2h-3.48v-1.36h5.65v.8c0,.14-.02.24-.07.29s-.14.09-.27.11l-.64.08Z"/>
      <path d="M180.36,136.76c.24.23.43.48.57.76.14.28.21.59.21.95,0,.33-.06.62-.19.88-.13.26-.31.49-.55.67-.24.18-.53.33-.87.43-.34.1-.72.15-1.15.15-.46,0-.88-.06-1.25-.17-.37-.11-.69-.28-.96-.49-.27-.21-.47-.46-.62-.76-.15-.3-.22-.63-.22-.99,0-.18.02-.33.05-.48.03-.14.08-.27.15-.4.06-.12.14-.23.23-.33.09-.1.19-.2.3-.29l-.38-.06c-.1-.02-.16-.06-.2-.11-.04-.05-.06-.12-.06-.22v-.9h8.18v1.36h-3.22ZM176.87,136.76c-.19.15-.32.32-.4.5s-.12.37-.12.58.04.4.11.56c.07.17.19.31.35.43.16.12.36.21.61.27.25.06.54.09.89.09.62,0,1.07-.1,1.34-.31.28-.21.42-.5.42-.89,0-.26-.06-.49-.18-.68s-.29-.38-.5-.56h-2.53Z"/>
      <path d="M181.05,143.05h-5.65v-1.37h5.65v1.37ZM182.7,143.24c-.12,0-.23-.02-.33-.07s-.19-.11-.27-.19-.14-.17-.18-.28-.07-.22-.07-.34.02-.23.07-.33.11-.2.18-.27.17-.14.27-.18.21-.07.33-.07.23.02.34.07.2.11.28.18.14.17.18.27c.04.1.07.22.07.33s-.02.23-.07.34c-.05.11-.11.2-.18.28s-.17.14-.28.19-.22.07-.34.07Z"/>
      <path d="M183.58,149.34h-8.18v-.83c0-.18.08-.29.25-.34l.54-.12c-.26-.23-.47-.49-.63-.78-.16-.29-.24-.64-.24-1.03,0-.31.06-.59.19-.85s.31-.48.56-.66c.24-.18.55-.33.91-.43.36-.1.77-.15,1.23-.15.42,0,.81.06,1.17.17.36.11.67.28.94.49.26.21.47.47.62.76s.22.63.22,1c0,.32-.05.58-.15.81-.1.22-.23.42-.4.6h2.98v1.36ZM179.61,147.98c.19-.15.32-.32.4-.5.08-.18.12-.38.12-.59s-.04-.39-.12-.56-.19-.31-.35-.42c-.16-.12-.35-.21-.59-.27s-.52-.09-.85-.09-.61.03-.84.08c-.23.05-.42.13-.56.23-.15.1-.25.22-.31.36-.06.14-.1.3-.1.48,0,.28.06.52.18.72.12.2.28.39.5.56h2.53Z"/>
      <path d="M180.26,150.55c.59.65.89,1.43.89,2.34,0,.33-.05.63-.16.89-.11.26-.26.48-.45.66s-.42.32-.69.41c-.27.09-.56.14-.88.14h-3.57v-.62c0-.13.02-.23.06-.3s.12-.12.23-.17l.41-.12c-.13-.14-.24-.28-.34-.42s-.18-.28-.24-.42c-.07-.15-.12-.3-.15-.47-.04-.17-.05-.35-.05-.55,0-.24.03-.46.1-.66.06-.2.16-.38.29-.52.13-.15.29-.26.48-.34.19-.08.41-.12.67-.12.14,0,.29.02.43.07.14.05.28.13.4.23.13.11.25.25.36.42.11.17.21.38.3.64.08.25.15.54.21.88.05.33.08.72.1,1.14h.33c.38,0,.66-.08.84-.24.18-.16.27-.39.27-.7,0-.22-.03-.4-.08-.55-.05-.14-.11-.27-.17-.38-.06-.11-.12-.21-.17-.3-.05-.09-.08-.19-.08-.3,0-.09.02-.18.07-.24.05-.07.11-.12.17-.16l.44-.24ZM177.82,153.67c-.02-.39-.05-.72-.1-.99s-.11-.48-.19-.64c-.08-.16-.17-.28-.27-.35-.1-.07-.21-.1-.34-.1-.24,0-.41.07-.51.21-.1.14-.15.33-.15.55,0,.28.05.52.15.72.1.2.25.4.46.6h.95Z"/>
      <path d="M183.58,161.17h-8.18v-.83c0-.18.08-.29.25-.34l.54-.12c-.26-.23-.47-.49-.63-.78-.16-.29-.24-.64-.24-1.03,0-.31.06-.59.19-.85s.31-.48.56-.66c.24-.18.55-.33.91-.43.36-.1.77-.15,1.23-.15.42,0,.81.06,1.17.17.36.11.67.28.94.49.26.21.47.47.62.76s.22.63.22,1c0,.32-.05.58-.15.81-.1.22-.23.42-.4.6h2.98v1.36ZM179.61,159.81c.19-.15.32-.32.4-.5.08-.18.12-.38.12-.59s-.04-.39-.12-.56-.19-.31-.35-.42c-.16-.12-.35-.21-.59-.27s-.52-.09-.85-.09-.61.03-.84.08c-.23.05-.42.13-.56.23-.15.1-.25.22-.31.36-.06.14-.1.3-.1.48,0,.28.06.52.18.72.12.2.28.39.5.56h2.53Z"/>
      <path d="M178.06,163.56c-.29.02-.54.07-.75.15-.21.08-.39.19-.52.32-.14.13-.24.29-.31.47s-.1.38-.1.6.03.41.08.57c.05.16.11.3.17.42.06.12.12.22.17.31s.08.18.08.26c0,.11-.04.2-.13.25l-.5.39c-.18-.15-.32-.32-.44-.51-.12-.19-.21-.38-.29-.59-.07-.2-.12-.41-.15-.62s-.04-.42-.04-.61c0-.39.06-.76.2-1.09s.32-.63.58-.88c.25-.25.57-.45.95-.59.38-.14.81-.21,1.31-.21.38,0,.75.06,1.09.19.34.12.63.3.89.54.25.23.45.52.6.85s.22.71.22,1.14c0,.36-.06.68-.17.98-.11.3-.28.56-.5.78-.22.22-.49.39-.8.51s-.68.18-1.09.18c-.21,0-.34-.02-.42-.07s-.11-.13-.11-.25v-3.49ZM178.88,166.15c.18,0,.34-.03.5-.07.16-.05.29-.12.41-.22.12-.1.21-.23.28-.38.07-.15.1-.33.1-.53,0-.39-.11-.7-.34-.93s-.54-.37-.95-.43v2.56Z"/>
      <path d="M179.95,171.84c-.06-.04-.1-.08-.12-.12-.02-.04-.04-.09-.04-.15,0-.07.02-.14.05-.21.04-.08.08-.16.12-.26s.09-.21.12-.34c.04-.13.05-.28.05-.45,0-.27-.06-.48-.17-.63-.11-.15-.26-.23-.45-.23-.12,0-.22.04-.31.12-.08.08-.15.18-.22.31-.06.13-.12.28-.17.44s-.1.33-.16.5c-.06.17-.13.34-.2.5s-.17.31-.29.44c-.12.13-.25.23-.42.31-.16.08-.36.12-.58.12-.27,0-.52-.05-.75-.15-.23-.1-.43-.24-.59-.43-.17-.19-.3-.43-.39-.71-.09-.28-.14-.6-.14-.97,0-.19.02-.38.05-.57.03-.19.08-.36.15-.53.06-.17.14-.33.22-.47.08-.15.18-.27.28-.38l.52.31c.06.04.11.09.14.14.03.05.05.12.05.21s-.02.16-.07.24c-.05.08-.1.16-.15.26-.05.1-.11.21-.15.35-.05.13-.07.3-.07.51,0,.16.02.3.06.42.04.12.09.21.15.29.06.08.14.13.22.17s.17.05.26.05c.13,0,.24-.04.32-.12.08-.08.16-.18.22-.31.06-.13.12-.28.17-.45.05-.17.1-.34.16-.51.06-.17.13-.34.21-.51.08-.17.18-.32.3-.45.12-.13.27-.23.45-.31.18-.08.39-.12.64-.12.23,0,.45.05.66.14s.39.23.55.4c.16.18.28.4.37.67s.14.57.14.92c0,.39-.06.74-.19,1.06-.13.32-.3.58-.51.8l-.49-.31Z"/>
    </g>
  </g>
</svg>