
<svg xmlns="http://www.w3.org/2000/svg" version="1.1" xmlns:xlink="http://www.w3.org/1999/xlink" preserveAspectRatio="none" x="0px" y="0px" width="350px" height="300px" viewBox="0 0 350 300">
<defs>
<g id="Layer0_0_FILL">
<path fill="#FCDCC7" stroke="none" d="
M 203.6 299.3
L 203.55 299.25
Q 203.3037109375 299.4755859375 203.2 299.6 203.01484375 299.7646484375 202.75 300 202.6228515625 300.159375 202.45 300.35
L 204.4 300.35
Q 204.2837890625 300.1740234375 204.15 300 203.85 299.65 203.6 299.3
M 256.7 295.8
Q 256.395703125 294.96484375 256.1 294.15 256.08046875 294.216015625 256.05 294.25 255.55 294.8 253.8 297.15 252.6330078125 298.72109375 251.15 300.35
L 259.7 300.35
Q 257.76875 298.023828125 256.7 295.8
M 157.75 300.35
L 159.05 300.35
Q 158.5744140625 299.8794921875 158.2 299.5
L 157.75 300.35
M 157.7 299
Q 157.275 298.498828125 157.15 298.2 156.3875 299.346484375 155.5 300.35
L 157 300.35 157.7 299
M 213.75 139.45
Q 210.1197265625 134.3525390625 206.15 129.4 202.4220703125 125.75 195.75 117.35 195.1205078125 116.5154296875 194.4 115.6 194.288671875 115.614453125 194.15 115.6 186.80703125 115.0349609375 181 114.75 173.05 114.35 164.8 114.35 157.15 114.9 153.75 115.1 149.7263671875 115.334765625 145.55 114.7 146.9255859375 116.6806640625 149.6 118.95 150.9958984375 120.2568359375 152.25 121.05 152.72265625 121.2068359375 153.2 121.3 156.35 121.7 159.15 122.7 161.85 123.625 163.2 124.8 164.55 125.975 164.55 127.4 164.55 127.75 162.85 129.6 162.818359375 129.632421875 162.8 129.65 162.8578125 130.241015625 162.6 130.9 162.15 132 161.15 132.45 159.35 133.3 156.95 132.1 155.9 131.55 154.6 130.5 153.1 129.25 152.35 128.6 149.6 126.25 147.3 125.95 146.1 125.8 146.25 125.2 146.3 124.85 146.75 124.75 148.0302734375 124.18984375 149.6 124.6 148.326171875 123.95 147.5 123.95 146.95 123.95 145.55 124.4
L 145.5 124.4
Q 144.91171875 125.578125 143.4 126.25 140.6 127.5 138 126.05 136.3 125.05 136.15 125 135.35 124.65 134 124.6 132.55 124.6 131.8 124.5 129.9 124.3 128.15 123.25 126.9 122.45 126.35 121.6
L 125.45 119.95
Q 124.75 118.9 124.65 118.55
L 124.5 117.2 124.25 116.3
Q 124.15 115.95 124.15 114.55
L 124.2 110.05
Q 124.2 109.1 124.3 108.65
L 124.55 107.8
Q 124.8271484375 107.1765625 125.15 106.7 123.4271484375 104.5966796875 121.75 101.95 120.2 99.45 120.4 98 120.515625 97.151953125 121.35 95.95 120.9341796875 95.77109375 120.5 95.55 117.0181640625 93.8091796875 114.9 93.25 114.79921875 93.3671875 114.6 93.5 113.3076171875 94.0078125 112.1 93.65 111.92890625 93.85390625 111.75 94.1 110.95 95.15 109.95 95.15 109.837109375 95.15 109.5 94.95
L 109.55 95.45
Q 109.6 95.55 109.7 95.8 109.75 96 109.7 96.1 109.15 96 109 95.6 108.95 95.5 108.95 94.8 108.95 94.7392578125 108.95 94.65 108.4353515625 94.395703125 107.65 93.9 107.6408203125 94.13203125 107.55 94.35
L 107.35 95.25
Q 107.25 95.55 107.1 95.65 106.9 95.55 106.9 95.45
L 106.85 95.1 106.85 94.3 106.9 94.15 106.95 94.05 107.15 93.95 107.25 93.85
Q 107.2970703125 93.787109375 107.3 93.7 107.3607421875 93.5314453125 107.3 93.25 107.0935546875 93.28125 106.85 93.2 106.65 93 106.3 92.95 106.1828125 92.9228515625 106.05 92.9 105.641015625 92.8 105.6 92.8 105.2 92.7 104.6 92.3 103.9 91.85 103.55 91.75
L 102.2 91.6
Q 101.4 91.6 100.85 91.25 100.15 90.75 100.4 90.1 101.2 90.35 101.65 90.75 102.1216796875 90.75 102.5 90.75 100.7271484375 89.9 99.5 89.9 99.1 89.9 98.15 90.8
L 97.3 91.65
Q 97.2060546875 91.5560546875 97.1 91.45 97.0806640625 91.5490234375 97.05 91.6
L 96.6 91.6
Q 96.6115234375 91.4509765625 96.65 91.25
L 96.45 91.25
Q 96.4 91.2 95.85 90 95.8234375 89.9470703125 95.8 89.9
L 95.5 90.15
Q 95.3 90.35 95.3 90.55
L 95.1 90.55
Q 94.8 90.15 95.3 89.55
L 95.35 89.4
Q 95.01796875 89.1 94.5 89.1 90.15 89.1 89.2 88.75 87.03203125 87.8544921875 84.9 83.85 86.1869140625 84.079296875 88.35 84.15 88.4208984375 83.9763671875 88.65 83.9 88.9755859375 83.9814453125 89.25 84.2 90.5365234375 84.25 92.1 84.25 92.3017578125 84.25 92.6 84.3 92.372265625 84.11484375 92.2 84 91.7 83.5 91.7 83.4 91.7 83 92.25 83
L 93 83.15
Q 93.4 83.25 94.15 83.05 94.95 82.9 95.35 82.95 95.9 83 97.1 83.75 98.1 84.55 98.4 84.95 98.8966796875 85.7177734375 98.65 86.45 98.7333984375 86.45 98.8 86.45 99.4939453125 86.45 100.8 86.9 101 86.4 101.45 86.2
L 104.35 85.95
Q 105.25 85.95 105.5 86.05
L 106.95 87
Q 107.65 87.45 107.9 87.95 107.991796875 88.0927734375 108.05 88.2
L 108.1 88.2
Q 108.9 87.75 109.5 87.75 110.255859375 87.75 111.4 88.25 111.4173828125 88.2326171875 111.45 88.2 112.25 87.35 113.8 87.75 115.15 88.05 116.1 88.95
L 116.8 89.85
Q 116.89375 89.970703125 116.95 90.1 117.13359375 90.0283203125 117.3 89.95 118.15 89.55 118.7 89.55 120.073046875 89.55 122.55 91.45 122.8548828125 91.663671875 123.1 91.9 123.5935546875 92.3125 124.1 92.75 125.065234375 91.7259765625 126.3 90.45 129.35 87.2 130.7 85.6 131.8 84.3 135.85 78.8 138.23046875 75.536328125 140.15 73.4 129.4296875 67.1796875 122.6 65.15 118.9 64.05 112.8 63.15 105.05 62 100.85 61.1 90.95 59.1 79.95 57.15 58.05 53.25 51.75 53.25 41.05 53.25 31.9 59.3 29.45 60.95 24.5 64.25 20.2849609375 66.7322265625 15.9 67.9 16.728125 67.0611328125 22.25 61.8 25.223828125 58.936328125 26.9 56.5 26.2494140625 56.9068359375 25.55 57.35
L 19.8 61.2 10.1 69.45 9.95 69.15
Q 12.35 66.7 18.25 61.9
L 21.5 59.3
Q 21.75 59.15 23.4 58.1 25.611328125 56.7669921875 27.4 55.7 28.3880859375 54.1615234375 28.8 52.8 28.4 52.8 27.8 52.6 27.2 52.35 26.6 52.35 26.5 52.35 7.65 54.55 3.436328125 55.0306640625 0.05 55.4
L 0.05 150.05
Q 3.307421875 151.05 6.35 151.05 8.5 151.05 9.2 150.6 9.6 150.35 9.6 149.5 9.6 149.35 8.75 147.55 7.85 145.75 7.85 145.55 7.85 143.9 9.15 143.6
L 11.75 143.6
Q 21.6 143.6 33.45 148.1 45.4642578125 152.6181640625 54.2 160.5 54.691015625 160.73359375 55.3 161 55.4080078125 161.0501953125 55.5 161.1 54.94765625 159.86484375 55.7 159.35 58.5951171875 163.034765625 61.05 167.85 61.248828125 168.2166015625 61.4 168.55 63.9017578125 173.581640625 65.95 179.8 68.35 187.15 72.4 202.2 75 210.75 79.2 221.15 81.65 227.2 87.15 239.7 91.7 250.1 94.95 255.4 97.25 259.15 100.65 263.45 102.65 266.05 106.9 271.1
L 116.95 283.05
Q 129.717578125 294.988671875 134.9 297.65 136.95 298.7 142.45 300.35
L 154.2 300.35
Q 155.9162109375 298.586328125 157 296.75 157.2115234375 296.28828125 157.4 295.85 157.496484375 295.317578125 157.6 294.65 158.05 291.7 158.05 291.15 158.05 282.2 150.1 274.95 147.3 272.35 139.9 266.75 130.55 259.6 125.3 255.3
L 125.6 255.3 124.9 255
Q 123.7 254.55 124.05 253.85 130.96875 256.643359375 136.55 259.15 135.76015625 258.5388671875 134.95 257.95 131.05 255.15 129.6 253.45 137.55 256.5 146.5 264.9 155.6 273.4 162.9 283.4 163.05 283.6 167.1 289.35 169.6 292.95 171.4 295.2 173.178125 297.455078125 175.85 300.35
L 201.25 300.35
Q 201.596875 300.0703125 201.7 299.95
L 202.95 298.5
Q 202.9841796875 298.4658203125 203 298.4 202.6248046875 297.799609375 202.3 297.15 200.5 293.7 199.55 287.6 198.1 278.2 187.1 263.15 180.8 254.85 177.7 250.75 173.51328125 245.182421875 170.85 241.05 169.0416015625 239.1416015625 167.25 237.35 167.5 236.95 168.05 237.1 168.5 237.2 168.95 237.6 175.45 242.95 181.15 249.45 184.1 252.95 188.1 258.2 192.95 264.55 210.8 288.15
L 220 300.35 227.1 300.35
Q 227.23046875 300.2037109375 227.35 300.05 229.8 296.6 234.7 292.55
L 242.85 286.2
Q 244.15 285.3 245.55 284.55 246.15 284.2 246.45 284.45 246.2 285.05 245.05 285.9
L 236.05 292.8
Q 232.95 295.2 231.5 296.6
L 228.05 300.35 249.85 300.35
Q 250.9013671875 299.241015625 252.2 297.75 254.37265625 295.1939453125 255.8 293.4 254.2982421875 289.2181640625 253.35 286.65 251.1 280.75 246.65 275.4 244.75 273.1 235.55 266.15 228.35 260.7 225.7 254.45 222.65 247.2 218.05 237.6 215.5546875 232.376953125 213.5 228.45 212.4080078125 226.9919921875 211.75 225.95 211.7060546875 225.8818359375 211.65 225.8 211.5130859375 225.572265625 211.35 225.3 209.7888671875 222.786328125 208.95 220.5 208.8681640625 220.2970703125 208.8 220.1 209.9 219.8 210.9 221.75 211.5228515625 222.9177734375 212.85 224.85 214.3919921875 224.391015625 216.5 223.6
L 211 216
Q 211.1 215.8 211.4 215.75 211.65 215.7 211.9 215.8 212.1 215.9 212.7 216.5
L 222.2 228.65
Q 225.7 233.15 227.35 235.5 232.6 243 236.85 253.15 236.730078125 253.17734375 236.6 253.2 239.2140625 257.62890625 242.2 261.35
L 244.85 264.55
Q 250.15 270.8 251.85 272.65 257.6 278.9 257.9 279.25 259.8591796875 281.530859375 261.25 283.65 264.17265625 286.25546875 269.2 290.65 275.65 296.3 279.15 299.65 279.5146484375 299.99921875 279.85 300.35
L 322.65 300.35
Q 320.4841796875 297.4970703125 317.6 294.05 310.75 285.75 308.3 282.25 307.0197265625 280.4513671875 305.6 278.1 302.1279296875 274.95390625 298.25 271.4 288.64921875 262.56171875 284.55 258.9 284.2658203125 259.2474609375 283.95 259.8
L 282.65 261.8
Q 280.45 264.85 279.25 266 278.25 266.9 277.75 267.3 276.85 268.1 276.35 268.75
L 275 270.55
Q 274.5 271.1 273.75 271.7
L 270.9 274.2
Q 269.15 275.8 267.9 276.15 268.05 275.65 268.85 275.25 270.25 274.4 271.7 272.85
L 275.5 268.55
Q 276.25 267.65 277.7 266.3 279.35 264.7 279.95 264.1 280.3 263.7 282.7 260.65
L 284.2 258.6
Q 282.661328125 257.2373046875 282 256.7 279.8 254.85 279.25 248.7 279.05 242.05 278.55 240.1 277.75 236.9 272.55 230.65 271.4 229.25 262.8 219.6 250.7 207.2 245.5 200.7 236.7 189.7 232.25 174.6 227.5 158.7 213.75 139.45
M 189.9 165.75
Q 190.55 166.3 190.65 166.7 181.15 159.9 171.85 152.15 171.6 151.95 171.5 151.65 171.4 151.3 171.7 151.25 172.15 152.1 173.75 153.3
L 189.9 165.75
M 115.95 95.55
L 116.15 95.85
Q 116.35 96.1 116.35 96.5 116.35 96.9 116.05 96.95 115.95 96.45 115.6 96.1
L 115.5 96 115.5 95 115.8 94.9
Q 115.95 95.05 115.95 95.3
L 115.95 95.55
M 86.35 122.35
Q 93.45 130 103.1 138.65 109.1 144.05 120.85 153.85
L 130.65 162
Q 135.7 166.25 137.85 168.25 141.8 171.8 144.6 174.95 138.75 169.3 114.6 149.5 95.85 134.1 86.35 122.35
M 118.8 149.75
Q 118.9 149.65 119 149.7
L 154.7 178.85
Q 153.35 178.5 151.35 176.9 143 170.2 137 164.95
L 128.35 157.85
Q 122.45 153.35 118.95 150.35 118.7 150.1 118.7 149.95 118.65 149.85 118.8 149.75
M 147.65 198.15
Q 148.95 199.8 150.35 202.2
L 153.9 208.05
Q 156.45 212.1 157.9 213.4 158.95 214.45 161.45 216.05 170.2 221.75 175.75 225.85 179.45 228.6 180.65 230.85
L 159.5 216.25
Q 156.8 214.5 155.55 213 154.7 212.05 153.4 209.85
L 146.4 197.75
Q 146.9 197.3 147.65 198.15
M 126.25 239.2
Q 123.85 237.1 122.6 235.6 120.85 233.6 118.15 229.3 117.35 228.05 117.05 227.15 117.6 226.85 118.3 227.8
L 122.35 233.7
Q 123.3 234.95 125.05 236.6 129.7 241.05 133.9 243.7 136.5 245.25 136.85 245.5
L 139.35 247.4
Q 140.15 247.95 141.85 249 143.25 249.95 143.95 251 143.65 251.1 143.05 250.5 142.5 250 141.55 249.5 140.4 248.95 139.85 248.65 139.55 248.5 137.55 247.3
L 130.95 242.9
Q 128.75 241.35 126.25 239.2
M 276.5 250.85
L 275.15 251.7
Q 272.2 253.35 269.05 255.85 267.8 256.85 266.3 258.25 262.8 261.3 260.95 263.9 259.85 265.5 259.25 266.9 259 267.45 258.85 267.6 258.35 267.9 258.1 267.55 257.9 266.85 258.6 265.7
L 259.2 264.75
Q 260.8 262.2 261.7 261.2
L 262.75 260.1
Q 267.2 255.7 272.15 252.25 273.65 251.25 274.5 250.9 275.75 250.4 276.5 250.85
M 275.05 254.8
Q 275.9 254.3 276.95 253.9 270.05 258.8 264.65 264.55 264.4 264.7 264.4 264.35 264.4 264.25 264.6 264.05
L 267.85 260.8
Q 272.35 256.4 275.05 254.8
M 277.7 269.3
Q 277.45 269.65 277.1 269.7 277.3 269.25 277.95 268.65 278.7 267.95 278.9 267.65
L 279.4 266.8
Q 279.8 266.25 280.35 266 280.55 266.05 280.5 266.3 280.45 266.55 280.3 266.65 279.85 266.9 279.65 267.1 279.45 267.5 279.35 267.65
L 278.65 268.45 277.7 269.3
M 246.75 286.6
L 246.95 287
Q 245.3 288.45 242.1 292.35 239.15 295.9 237.15 297.5 242 291.7 246.75 286.6
M 155.4 200.1
Q 155.5119140625 200.19296875 155.6 200.3 158.9 203.7 162.35 204.3 162.5 204.15 162.75 203.45 162.95 202.95 163.2 202.95 164.65 206.85 171.5 213.8 180.887890625 223.2318359375 183.85 226.55 174.3072265625 221.0697265625 167.75 216.2 156.3994140625 207.6759765625 155.4 200.1
M 133.1 241.95
Q 126.035546875 236.6515625 122.3 227.05 126.6169921875 230.489453125 133.65 235.75 143.85 243.4 151 250.5
L 150.55 250.5
Q 138.15 245.75 133.1 241.95
M 165.9 128.7
Q 166.75 129.25 166.9 129.7 166.9509765625 129.9205078125 166.9 130.15 167.1076171875 130.2802734375 167.15 130.45
L 167.2 130.85
Q 167.2 131.65 166.95 131.95 166.5 132.25 165.9 132.15
L 165.3 132.1 164.6 131.7 164.4 131.5
Q 164.3154296875 131.4154296875 164.4 131 164.2447265625 130.839453125 164.2 130.75
L 164.15 130.4
Q 164.15 129.8 164.25 129.55 164.55 128.7 165.4 128.8 165.85 128.8 165.9 128.7
M 147.25 129.45
Q 147.4 129.35 147.7 129.2 148.05 129.35 148.6 130
L 148.9 130.2
Q 149.05 130.55 148.9 130.8 148.85 130.95 148.65 131.1 148.45 131.4 148.45 131.5
L 147.15 131.4
Q 147 131.25 147 130.85
L 147.05 130.4 147.15 130.05
Q 147.2 129.85 147.25 129.45
M 151.95 132.4
Q 152.2 132.4 152.7 132.9
L 153.65 133.7
Q 154.25 134.3 154.1 134.8 154.1 135.1 153.8 135.4 153.4 135.9 153.05 136 152.7 136.15 151.95 136.05 151.45 136.05 151.1 135.85 151 135.8 150.6 135.15 150.3 134.3 150.55 134 150.8 133.8 150.85 133.65 150.9 133.25 150.95 133.05 151.05 132.8 151.45 132.5
L 151.95 132.4
M 267.7 217.3
Q 267.4841796875 217.14765625 267.25 217 268.0521484375 218.0873046875 269 219.65 269.7 220.5 271.1 222.15
L 271.7 223.1
Q 271.974609375 223.553515625 272.3 224.1 276.4451171875 227.1439453125 283.15 231.85
L 282.65 231.2
Q 282.55 231.05 281.8 230.45 281.15 229.9 280.4 228.75 279.2 226.95 279.15 226.9
L 277.55 224.9
Q 274.768359375 222.505859375 273.25 221.3 272.55 220.75 267.7 217.3
M 285.2 231.85
Q 287.25 233.75 289.4 235.1 290.3 235.7 291.7 236.4
L 295.9 238.05
Q 297.4 238.65 297.85 239.25 295.1 239.15 292.7 238.3
L 292.1 238.05
Q 296.5515625 241.09375 300.25 243.5 300.403125 242.775 300.5 240.4 300.6708984375 238.6056640625 300.95 237.25 300.5091796875 237.2849609375 299.9 236.95
L 286.95 230.5
Q 283.14375 228.6123046875 280.7 227.15 281.375 227.9201171875 282.2 228.8
L 285.2 231.85
M 181 32.2
Q 176.85 32.2 174.75 32.25 165.85 32.6 159.25 36.05 155.3 38.4 153.2 39.35 152.465234375 39.6609375 151.9 39.75 152.1333984375 39.9380859375 152.3 40.2
L 145.8 43.45
Q 142.2 45.35 139.9 45.9 137.35 46.55 132 46.4 126.7 46.3 124.1 47 121.6 47.7 118.9 49.45 116.65 51.05 115.95 52.55 115.1638671875 54.1564453125 115.5 55.7 115.58828125 55.72109375 115.65 55.75 115.6763671875 55.3201171875 115.75 55.05 115.8 54.95 116.3 53.75 116.45 53.5 116.75 52.95 116.85 52.85 117.65 52.15
L 118.55 51.65
Q 118.45 52.65 118.2 53.1
L 117.4 54.1
Q 117.2 54.45 117 55.05 116.84765625 55.4458984375 116.65 56.05 118.219140625 56.51875 119.7 57 120.4552734375 56.2533203125 121.3 55.65 124 53.65 127 53.65 128.8 53.65 131.4 54.3 134.05 54.95 135.3 54.95 137.530859375 54.95 139 53.55 138.5802734375 53.415234375 138.35 53.3 137.5 52.5 136.95 52.5
L 136.95 51.85 137.2 51.85
Q 137.25 52 137.85 52.25 138.3 52.4 138.95 53 139.2232421875 53.068359375 139.35 53.15 139.994140625 52.447265625 140.45 51.45 140.594921875 51.1392578125 140.7 50.85
L 140.7 50.85 140.25 50.8 139.8 50.6 139.4 50.5 137.85 50.3 137.85 50.1 137.95 50.1 137.95 50 139.85 50.15
Q 140.5794921875 50.4052734375 140.9 50.5 142.7642578125 46.8236328125 144.5 45.8 147.15 44.25 151.8 42.5 154.4 41.5 159.35 39.7 168.65 35.95 175.15 34.75 178.9056640625 34.0751953125 184.35 33.8 185.4611328125 32.6701171875 186.5 31.65 184.20546875 32.112109375 181 32.2
M 138.4 48.35
L 138.4 48.25
Q 138.55 48.25 139.05 48.35 139.45 48.45 139.65 48.4
L 140 48.25 140.45 48.45
Q 140.45 48.65 140.2 48.75 139.75 48.9 139.3 48.9 138.3 48.8 137.85 49
L 138.05 48.6
Q 138.15 48.35 138.4 48.35
M 144.2 114.5
Q 144.0171875 114.5353515625 143.8 114.55 145.955859375 117.384765625 148.25 119.05 146.0595703125 116.7919921875 145 114.6 144.9328125 114.5 144.85 114.35 144.5509765625 114.4384765625 144.2 114.5
M 136.6 122.2
Q 136.18828125 122.2 134.85 122.45 136.1544921875 122.5517578125 136.55 122.7 136.9 122.85 138.1 123.7 140.03046875 124.891015625 141.8 124.5 140.944140625 124.1716796875 140.35 123.5 139.15 122.2 136.6 122.2
M 105.75 88.15
Q 105.8203125 88.34453125 105.75 88.55 106.076171875 88.6068359375 106.35 88.6 106.0158203125 88.367578125 105.75 88.15
M 105.55 88.05
Q 105.33359375 87.9001953125 105.15 87.8 104.6470703125 87.5365234375 103.9 87.5 104.4029296875 87.6638671875 105.55 88.05
M 95.85 84.95
Q 95.35 84.55 95.1 84.5 95.001953125 84.4859375 94.85 84.5 95.082421875 84.600390625 95.3 84.75
L 96.85 85.95 96.85 85.95
Q 96.9025390625 85.9818359375 96.95 86 96.8955078125 85.9455078125 96.85 85.9
L 95.85 84.95
M 348.1 20.8
Q 345.8 19.85 344.65 19.4 342.65 18.6 341.15 18.2 339.9 17.85 337.9 17.5 335.2 17.05 334.6 16.95 331.45 16.4 327.55 15.2 325.5 14.55 320.6 12.85 314.85 10.8 312.3 9.45 312.0322265625 9.313671875 311.75 9.15 314.0197265625 11.4701171875 316.35 15.05 321.5 23 324.9 32.35
L 317 19.85
Q 314.65 16.05 313.1 14 310.75 10.9 308.25 9 307.55 8.45 303 5.7 299.8 3.75 298.25 1.85 297.6373046875 1.130859375 296.95 0
L 293.85 0
Q 292.3 0.75 278.55 9.35 265.4 17.6 262.35 19.65
L 262.35 19.2
Q 263.3 14.45 264 11.9 265.25 7.35 268.45 5.65 270.45 4.6 277.1 2.4 280.5 1.3 284.6 0
L 245.15 0
Q 241.7392578125 1.9373046875 238.8 3.95 231.1 9.3 215.2 19.2 207.45 23.75 205.65 24.9 205.25 25.1 203.95 28.8 202.7 32.3 201.85 32.3 200.3 32.3 198.65 30.15 196.95 27.95 195.35 27.95 192.95 27.95 175.95 48.45 174.7 49.95 165.85 58.45 162 62.15 162 66.6 162 67.15 162.25 68.6 162.35625 69.370703125 162.4 69.9 168.6498046875 76.6923828125 173.6 82.55 172.9 83.1 171.75 81.85
L 161.5 70.2
Q 156.690234375 67.65 155.55 67.65 153.1 67.65 148.75 72.75 147.89765625 73.73984375 145.65 76.7 143.7908203125 79.1689453125 141 82.95 140.2314453125 83.998828125 139.4 85 140.27890625 84.9564453125 141.05 85.1 142.5 85.4 144.25 86.4 145.25 87 147.2 88.25 148.2 88.8 148.5 89.1 149.15 89.8 149.35 91.55 149.05 91.45 147.8 90.3 147.4 89.9 145.4 88.55 143.25 87.2 141.95 86.7 139.930078125 85.9787109375 138.2 86.45 138.166796875 86.4791015625 138.1 86.5 137.6 86.65 136.85 87.05 135.9 87.55 135.55 87.7
L 134.1 88.3
Q 133.45 88.6 132.35 89.5
L 125 95.15
Q 124.2701171875 95.7521484375 123.75 96.2 123.45078125 96.561328125 123.2 96.9 122.784375 97.58671875 122.7 98.15 122.5931640625 98.72734375 122.8 99.45 123.0701171875 100.4408203125 123.9 101.7 129.339453125 109.644140625 135.35 111.95 135.507421875 111.9255859375 135.65 111.9 135.4736328125 111.1763671875 136.5 110.15 136.75 109.9 142.2 105.8 145.6 103.2 146.95 100.75 147.35 100.1 148.05 98.65 148.7 97.4 149.4 96.75 150 97.5 149.4 99 148.997265625 100.046875 148.35 101.05 148.6677734375 100.75 148.95 100.75 148.8 101.35 148.1 102.35 146.45 104.5 144.5 106.2
L 144.4 105.95
Q 146.8302734375 103.5197265625 147.85 101.9 146.2359375 104.2236328125 143.5 106.4 142.1 107.55 139.6 109.25 136.9162109375 111.1150390625 135.9 111.85 139.665234375 111.1849609375 144.5 109.1 151.95 105.85 159.25 100.5 166.7 95.1 170.7 89.9 175.1 84.2 173.75 80.75 180 79.95 189.65 75.1 198 70.9 201.7 67.65 202.7 66.75 206.85 63.7 210.1 61.25 211.7 59.4 212.9 58 213.75 55.5 214.85 53.55 218.7 52.8 228.9 50.85 241.3 39.7 249 32.7638671875 253.7 25.65
L 253.75 25.45
Q 255.15 20.45 255.95 17.95 257.25 14.2 258.9 12.95 257 15.6 255.5 21.3 255.1169921875 22.75078125 254.75 24 257.0052734375 20.2966796875 258.45 16.55 258.8208984375 17.0134765625 259.25 19.95 259.4501953125 19.80546875 259.7 19.75
L 260.05 20.1
Q 259.8529296875 20.4447265625 259.5 21.75
L 259.5 21.8
Q 259.75 23.855859375 259.75 24.85 259.75 26.478125 257.65 28.95
L 259.7 27.5
Q 257.751953125 29.8830078125 254.45 32.75 274.718359375 19.4416015625 277.2 17.9 264 28.4 252.7 38.05 230.7255859375 56.807421875 230.5 62.1
L 244.55 78.6
Q 246.2126953125 79.4 248.15 79.4 252.4376953125 79.4 262.15 73.7 263.1861328125 73.123046875 264.25 72.45 264.772265625 72.1525390625 265.3 71.8 268.1173828125 69.4935546875 271.45 67.1 274.35078125 65.051953125 277.65 62.95 280.16171875 61.3646484375 283.6 59.25 289.776953125 55.400390625 298.95 49.8 299.8541015625 49.190234375 300.6 48.65 300.7056640625 48.50703125 300.8 48.35 301.05 47.85 301.85 46.95
L 302.65 45.7
Q 303 45.2 303.75 44.25 304 43.85 304.4 43.05 304.65 42.8 305 42.8 305.4 42.8 305.55 43.1 304.433203125 45.0677734375 303.1 47.05 304.1763671875 46.362109375 304.8 46 305.240234375 45.741015625 305.65 45.5 311.8390625 40.20625 313.85 38.85 308 49.55 289.35 65.15 279.3 73.6 277.75 75 272.85 79.55 272.85 81.65 272.85 82.98515625 273.35 84.6
L 282.1 94.7
Q 282.603125 95.260546875 282.95 95.75 282.975390625 95.2228515625 282.9 94.7 288.95 94.45 310.6 85.15 321.8 80.3 336.15 73.8
L 336.6 73.8
Q 334.184375 75.3669921875 331.7 76.9 333.1197265625 76.5470703125 334.3 76.8 333.05 78.75 329.25 80.65 326.2013671875 82.1552734375 321.45 84.25 320.45 86.0103515625 320.45 87.05 320.45 88.1 321.75 89.1 322.435546875 89.5984375 322.95 89.75
L 327.5 84.4
Q 329.15 82.4 330.3 83.2 329.8208984375 83.896875 325.75 89.2 325.1333984375 90.01015625 324.45 90.9 320.65 95.7 318.65 98 315.35 101.85 312.3 104.6 309.65 106.95 308.3 108.1 308.152734375 108.229296875 308 108.35
L 308.1 108.45
Q 307.9515625 108.5044921875 307.8 108.5 305.705078125 110.415625 304.45 111.85 303.65 112.75 302.15 114.8 300.7 116.8 299.85 117.75 297.5 120.45 293.3 123.55 288.45 126.95 286.1 128.75 278.855078125 134.4630859375 277.15 140.55 281.1451171875 136.964453125 285.85 134.5 288.6 133.1 290.45 133.2 292.15 133.35 294.8 135.2 297.3 136.85 297.4 138.4 296.2 138.15 294.2 136.45 292.25 134.85 291 134.6 289.2 134.25 286.45 135.75 281.1150390625 138.5744140625 276.75 142.35 276.7322265625 142.7314453125 276.7 143.1 276.6591796875 143.83515625 276.4 144.4
L 279.85 148.05
Q 281.5 149.75 282.4 150.5 283.95 151.75 285.4 152.3 285.741796875 152.4095703125 286.1 152.5 286.2 151.5 288.05 150.4 289.7 149.45 291.85 147.8 293.1 146.9 295.55 145 296.45 144.3 297 144.6 296.7 145.55 295.55 146.45 294.15 147.4 293.5 147.9 292.25 149 291.55 149.5 289.3 150.5 288.35 151.3 287.65 151.95 287.3 152.2 286.7205078125 152.601171875 286.2 152.5 286.5376953125 152.5892578125 286.85 152.6 288.773828125 151.1392578125 293.05 149.05 301.45 144.95 305.6 141.85 310.55 138.15 312.8 135.7 315.6333984375 132.547265625 316 129.7 315.8123046875 129.5470703125 315.6 129.35 312.8 126.6 307.3 121 306.55 120.25 306.65 119.7 307.5 119.9 308.85 121.25
L 316.05 128.65
Q 316.066015625 128.483984375 316.05 128.3 316.33046875 128.112890625 317.35 127.45
L 314.1 124.55
Q 311 121.65 310.05 119.95
L 310.6 119.9
Q 312.45 122.1 315.2 124.5 316.85 125.9 317.25 126.35 317.52890625 126.6541015625 317.9 127.15 321.719140625 124.8533203125 332.7 118.35 347.5 109.25 347.5 107.6 347.5 105.55 346.6 103.05
L 346.6 99.5
Q 347.593359375 99.732421875 350.15 98.95
L 350.15 21.55
Q 349.11484375 21.201953125 348.1 20.8
M 335.15 79.8
L 336.2 79.55
Q 335.85 80.05 335.55 80.3 335.1 80.6 334.4 80.7 333.95 80.75 332.4 80.65 332.25 80.35 332.4 80 333.3 79.85 335.15 79.8
M 343.1 96.55
Q 342.75 96.15 342.35 95.4 341.75 94.3 341.65 94.15 340.95 93.1 339.45 91.65
L 339.05 91.15
Q 338.95 90.8 339.2 90.65 341.25 92.9 342.05 94.2 343.35 96.4 343.65 96.75 344 97.2 344.8 98 345.45 98.7 345.55 99.4 345.25 99.25 344.95 98.85 344.65 98.35 344.45 98.1 343.5 97.1 343.1 96.55
M 206.35 49.05
Q 205.9 48.55 204.05 46.95 202.95 45.9 199.8 42.55 199.15 41.75 199.5 41.4
L 207 49.1
Q 208.4 50.4 208.45 51.5 207.55 50.25 206.35 49.05
M 209.95 46
Q 208.1 43.2 203.9 38
L 201.7 35.4
Q 201.65 35.35 200.45 33.3 199.65 32 198.85 31.45 199 31.15 199.4 31.35 199.45 31.35 199.85 31.75
L 215.65 51.65
Q 216.15 52.15 216.35 52.7 215.6 52.85 214.9 52.15 214.7 51.95 213.95 50.95 213.55 50.35 212.65 49.45 211.7 48.4 211.35 47.95 211.15 47.75 209.95 46
M 196.25 33.65
Q 195.3 32.4 195.35 31.65
L 195.8 31.65
Q 197.65 34.3 200 36.95
L 201.65 38.75
Q 202.75 39.85 203.25 40.45
L 212.7 51.9
Q 212.3 52.3 211.45 51.55 210.25 50.3 206.75 46.25
L 196.25 33.65
M 164.15 69.3
Q 164.85 71.35 167.9 74.1
L 173 78.75
Q 173.4 79.15 173.3 79.4 168.05 75.85 164.2 70.65 163.9 70.25 163.85 70 163.75 69.45 164.15 69.3
M 198.1 86.1
Q 198.074609375 86.1216796875 198.05 86.15 196.748046875 87.2572265625 195.75 88.2 195.6861328125 88.553515625 195.65 88.9 195.55 89.7037109375 195.55 90.55 195.55 95.3384765625 196.7 99.15 196.7791015625 99.0744140625 196.95 99.05 198.8 102.4 203.4 107 205.5353515625 109.175390625 207.05 110.8 209.7623046875 111.75 213 111.75 217.05 111.75 224.1 107.95 230.55 104.5 232.25 102.15 235.2 98.05 241.45 90.65 245.4708984375 84.994140625 244.7 79.85 243.8552734375 78.97265625 242.85 77.75 239.45 73.9 237.75 71.75
L 230.5 62.45
Q 230.5435546875 62.8826171875 230.7 63 230.9 63.15 230.9 63.3 229.5107421875 62.970703125 228.05 62.95
L 229.9 65.15
Q 231.3 66.85 232.05 67.65
L 233.65 69.45
Q 234 69.85 236.25 72.9 237.85 75.05 241.45 79.05
L 243.85 81.7
Q 242.85 81.55 242.05 80.9 241 79.65 240.45 79.05 239.1 77.8 238.4 77.15 237.3 76.15 236 74.3 233.85 71.25 233.8 71.2
L 231.9 68.95
Q 229.95 66.45 228.9 65.25 228.1787109375 64.4564453125 226.85 63.05 221.696484375 63.535546875 215.65 68.05 214.7333984375 69.4791015625 214.1 70.35 211.25 74.35 206.65 78.7 204.35 80.85 198.1 86.1
M 272.5 88.7
Q 271.196484375 88.2 270.45 88.2 264.45 88.2 249.45 97 237.505859375 104.0259765625 231.2 109.4 232.4771484375 107.4357421875 236.25 102.95 237.16640625 101.5453125 238.7 100.05 238.9982421875 99.76484375 239.35 99.4 240.48515625 98.40546875 242.3 96.85 242.4798828125 96.68828125 242.65 96.5 241.1748046875 97.7158203125 239.75 99 238.61328125 100.0205078125 237.5 101.1 233.89375 104.7396484375 230.8 109.05
L 230.75 109.05
Q 230.4669921875 109.6578125 230.3 109.95 230.0390625 110.3416015625 229.7 110.55 224.4 118.4658203125 224.4 124.4 224.4 128.6 227 132.3 230.05 136.6 234.8 136.6 238.05 136.6 241.5 134 243.25 132.7 244.45 131.4
L 247.05 132.25
Q 249.75 133.1 250.35 133.1 251.209765625 133.1 252.05 133 252.62890625 132.2724609375 253.2 131.45 258.6 123.65 259.5 122.6 262.8994140625 118.7216796875 270.3 114.05 273.910546875 110.8744140625 276.05 108.55 282.3341796875 101.7318359375 282.9 96.75 277.944921875 91.35859375 274.45 87.3 274.8521484375 88.2048828125 275.45 89.55
L 275.9 89.55
Q 275.1693359375 89.7423828125 274 89.35 276.762109375 93.0623046875 279.1 97 277.55 95.4 274.75 91.7
L 272.5 88.7
M 199.95 105.65
Q 200.165625 105.865625 200.4 106.1 201.440625 107.1224609375 202.45 108.25 204.081640625 109.5998046875 206 110.4 201.2533203125 105.569140625 197.1 100.45 198.1931640625 103.354296875 199.95 105.65 Z"/>

<path fill="#43463D" stroke="none" d="
M 207.9 299.15
L 207.8 298.8
Q 207.35 298.9 206.75 299.35 205.93984375 299.8564453125 205.2 300.35
L 206.4 300.35 207.9 299.15
M 208.6 295
L 208.35 294.7
Q 207.6 295.05 205.7 296.35
L 204.2 297.5
Q 203.501171875 297.9658203125 203 298.4 202.9841796875 298.4658203125 202.95 298.5
L 201.7 299.95
Q 201.596875 300.0703125 201.25 300.35
L 202.45 300.35
Q 202.6228515625 300.159375 202.75 300 203.01484375 299.7646484375 203.2 299.6 203.3037109375 299.4755859375 203.55 299.25 203.92734375 298.9265625 204.6 298.4 207.25 296.45 208.6 295
M 168.05 237.1
Q 167.5 236.95 167.25 237.35 169.0416015625 239.1416015625 170.85 241.05 177.171875 247.7564453125 183.95 256.2 189.45 263.05 199.25 276.35
L 206.25 285.8
Q 212.5294921875 294.33125 217.2 300.3 217.228125 300.324609375 217.25 300.35
L 220 300.35 210.8 288.15
Q 192.95 264.55 188.1 258.2 184.1 252.95 181.15 249.45 175.45 242.95 168.95 237.6 168.5 237.2 168.05 237.1
M 258.75 290.8
Q 259.3 290.35 259.55 290.1 259.95 289.65 259.85 289.25 258.8 289.7 257.25 291.7 256.654296875 292.4400390625 255.8 293.4 254.37265625 295.1939453125 252.2 297.75 250.9013671875 299.241015625 249.85 300.35
L 251.15 300.35
Q 252.6330078125 298.72109375 253.8 297.15 255.55 294.8 256.05 294.25 256.08046875 294.216015625 256.1 294.15 257.3546875 292.79296875 257.55 292.5 257.9 291.9 258.1 291.6 258.4 291.1 258.75 290.8
M 246.45 284.45
Q 246.15 284.2 245.55 284.55 244.15 285.3 242.85 286.2
L 234.7 292.55
Q 229.8 296.6 227.35 300.05 227.23046875 300.2037109375 227.1 300.35
L 228.05 300.35 231.5 296.6
Q 232.95 295.2 236.05 292.8
L 245.05 285.9
Q 246.2 285.05 246.45 284.45
M 261.25 283.65
Q 259.8591796875 281.530859375 257.9 279.25 257.6 278.9 251.85 272.65 250.15 270.8 244.85 264.55
L 242.2 261.35
Q 239.2140625 257.62890625 236.6 253.2 236.730078125 253.17734375 236.85 253.15 232.6 243 227.35 235.5 225.7 233.15 222.2 228.65
L 212.7 216.5
Q 212.1 215.9 211.9 215.8 211.65 215.7 211.4 215.75 211.1 215.8 211 216
L 216.5 223.6 221.3 230.25
Q 221.61484375 230.6875 221.9 231.1 221.6361328125 231.0248046875 221.15 230.95
L 221.15 231.1 218.15 231.45
Q 217.99140625 231.45 217.85 231.45 215.7357421875 228.8001953125 213.7 226.05 213.6529296875 225.9841796875 213.6 225.9 213.2109375 225.375390625 212.85 224.85 211.5228515625 222.9177734375 210.9 221.75 209.9 219.8 208.8 220.1 208.8681640625 220.2970703125 208.95 220.5 209.7888671875 222.786328125 211.35 225.3 211.5130859375 225.572265625 211.65 225.8 211.7060546875 225.8818359375 211.75 225.95 212.4080078125 226.9919921875 213.5 228.45 214.4306640625 229.714453125 215.65 231.25
L 221.55 238.85
Q 223.65 241.55 224.8 242.8 225.9 244 228.15 246.25 230.8 248.95 232.7 251.5 234 253 234.45 253.35 234.806640625 253.632421875 235.15 253.8 235.5412109375 255.5197265625 237.2 257.95
L 252.35 280.45
Q 254.55 283.65 255.85 285.05 257.2 286.5 259.25 288.15 267.1138671875 294.5251953125 276 299.35 276.5177734375 299.8669921875 277 300.35
L 279.85 300.35
Q 279.5146484375 299.99921875 279.15 299.65 275.65 296.3 269.2 290.65 264.17265625 286.25546875 261.25 283.65
M 220.3 232.45
Q 221.3509765625 232.16328125 222 231.25 227.516015625 239.040625 232.05 247.65 225.05 240.450390625 218.7 232.55 219.6220703125 232.61953125 220.3 232.45
M 235.7 254
Q 235.7416015625 254.0173828125 235.75 254 236.1345703125 254.698828125 236.55 255.4 236.091015625 254.6646484375 235.7 254
M 157.4 295.85
Q 157.2115234375 296.28828125 157 296.75 155.9162109375 298.586328125 154.2 300.35
L 155.5 300.35
Q 156.3875 299.346484375 157.15 298.2 157.91015625 297.1908203125 158.55 296.05 159.95 293.5 159.9 291.6 158.8103515625 292.951171875 157.4 295.85
M 160.4 290.85
Q 160.35 291 160.5 291.5 160.55 292.2 160.3 293.15 159.85 294.75 157.9 298.65
L 157.7 299 157 300.35 157.75 300.35 158.2 299.5 159.15 297.65
Q 161.05 293.6 160.9 290.4 160.5 290.3 160.4 290.85
M 161.65 296.55
Q 161.5 296.5 161.25 296.75
L 160.55 297.7
Q 160.25 298.1 160.15 298.55
L 160.15 299.15
Q 160.1 299.35 159.95 299.65 159.85 299.95 159.9 300.15 160.05 300.2 160.15 300.1 160.25 299.95 160.3 299.9 160.5 299.5 160.5 299.3
L 160.55 298.55
Q 160.65 298.2 161.1 297.55 161.6 296.95 161.65 296.55
M 134.95 257.95
Q 135.76015625 258.5388671875 136.55 259.15 130.96875 256.643359375 124.05 253.85 123.7 254.55 124.9 255
L 125.6 255.3 138.9 260.95
Q 147.8951171875 268.1337890625 155.25 277.05 156.45 278.5 167.25 293.05 170.23125 297.0869140625 172.95 300.35
L 175.85 300.35
Q 173.178125 297.455078125 171.4 295.2 169.6 292.95 167.1 289.35 163.05 283.6 162.9 283.4 155.6 273.4 146.5 264.9 137.55 256.5 129.6 253.45 131.05 255.15 134.95 257.95
M 18.05 146.7
Q 17.4 147.15 17.7 147.65 25.25 147.9 32.45 150.45 37.87578125 152.3716796875 42.65 155.4 40.288671875 155.244140625 37.25 155.9 33.9 156.6 28.6 158.35 22.05 160.55 20 161.1 14 162.7 5.6 163.75 3.3552734375 164.027734375 0.05 164.35
L 0.05 166.25
Q 9.367578125 165.81953125 18.45 163.5 23 162.35 32 159.65 36.95 158.3 42.05 157.4 43.91953125 157.7279296875 45.7 157.5 48.6029296875 159.6521484375 49.3 160.15 51.05 161.25 53.5 162.35 55.35 163.25 56.7 163.15
L 56.75 163.15
Q 61.91875 171.669921875 65.85 186.1 72.05 208.65 73.2 211.75 75.3 217.45 80.35 228.55 82.2 232.95 85.7 241.8 88.9 249.55 91.85 254.6 94.5 259.1 98.6 264.4 100.7 267.15 106.15 273.65 113.9607421875 282.7853515625 128.8 300.35
L 131.5 300.35
Q 131.173828125 299.9380859375 130.8 299.5
L 116.95 283.05 106.9 271.1
Q 102.65 266.05 100.65 263.45 97.25 259.15 94.95 255.4 91.7 250.1 87.15 239.7 81.65 227.2 79.2 221.15 75 210.75 72.4 202.2 68.35 187.15 65.95 179.8 63.9017578125 173.581640625 61.4 168.55 61.248828125 168.2166015625 61.05 167.85 58.5951171875 163.034765625 55.7 159.35 54.94765625 159.86484375 55.5 161.1 55.4080078125 161.0501953125 55.3 161 54.691015625 160.73359375 54.2 160.5 53.3955078125 160.14765625 52.9 159.9 51.2 159.1 49.05 157.6 46.7 155.85 45.45 154.95 39.7 150.9 32.95 148.7 26.15 146.55 19.1 146.5 18.35 146.5 18.05 146.7
M 166.9 130.15
Q 166.8634765625 130.5875 166.5 131.05 166.4 131.3 166.2 131.4 165.9 131.55 165.55 131.45
L 165.2 131.45 164.8 131.35
Q 164.75 131.35 164.45 131.05 164.42890625 131.02890625 164.4 131 164.3154296875 131.4154296875 164.4 131.5
L 164.6 131.7 165.3 132.1 165.9 132.15
Q 166.5 132.25 166.95 131.95 167.2 131.65 167.2 130.85
L 167.15 130.45
Q 167.1076171875 130.2802734375 166.9 130.15
M 246.95 287
L 246.75 286.6
Q 242 291.7 237.15 297.5 239.15 295.9 242.1 292.35 245.3 288.45 246.95 287
M 277.1 269.7
Q 277.45 269.65 277.7 269.3
L 278.65 268.45 279.35 267.65
Q 279.45 267.5 279.65 267.1 279.85 266.9 280.3 266.65 280.45 266.55 280.5 266.3 280.55 266.05 280.35 266 279.8 266.25 279.4 266.8
L 278.9 267.65
Q 278.7 267.95 277.95 268.65 277.3 269.25 277.1 269.7
M 276.95 253.9
Q 275.9 254.3 275.05 254.8 272.35 256.4 267.85 260.8
L 264.6 264.05
Q 264.4 264.25 264.4 264.35 264.4 264.7 264.65 264.55 270.05 258.8 276.95 253.9
M 275.15 251.7
L 276.5 250.85
Q 275.75 250.4 274.5 250.9 273.65 251.25 272.15 252.25 267.2 255.7 262.75 260.1
L 261.7 261.2
Q 260.8 262.2 259.2 264.75
L 258.6 265.7
Q 257.9 266.85 258.1 267.55 258.35 267.9 258.85 267.6 259 267.45 259.25 266.9 259.85 265.5 260.95 263.9 262.8 261.3 266.3 258.25 267.8 256.85 269.05 255.85 272.2 253.35 275.15 251.7
M 122.6 235.6
Q 123.85 237.1 126.25 239.2 128.75 241.35 130.95 242.9
L 137.55 247.3
Q 139.55 248.5 139.85 248.65 140.4 248.95 141.55 249.5 142.5 250 143.05 250.5 143.65 251.1 143.95 251 143.25 249.95 141.85 249 140.15 247.95 139.35 247.4
L 136.85 245.5
Q 136.5 245.25 133.9 243.7 129.7 241.05 125.05 236.6 123.3 234.95 122.35 233.7
L 118.3 227.8
Q 117.6 226.85 117.05 227.15 117.35 228.05 118.15 229.3 120.85 233.6 122.6 235.6
M 150.35 202.2
Q 148.95 199.8 147.65 198.15 146.9 197.3 146.4 197.75
L 153.4 209.85
Q 154.7 212.05 155.55 213 156.8 214.5 159.5 216.25
L 180.65 230.85
Q 179.45 228.6 175.75 225.85 170.2 221.75 161.45 216.05 158.95 214.45 157.9 213.4 156.45 212.1 153.9 208.05
L 150.35 202.2
M 119 149.7
Q 118.9 149.65 118.8 149.75 118.65 149.85 118.7 149.95 118.7 150.1 118.95 150.35 122.45 153.35 128.35 157.85
L 137 164.95
Q 143 170.2 151.35 176.9 153.35 178.5 154.7 178.85
L 119 149.7
M 103.1 138.65
Q 93.45 130 86.35 122.35 95.85 134.1 114.6 149.5 138.75 169.3 144.6 174.95 141.8 171.8 137.85 168.25 135.7 166.25 130.65 162
L 120.85 153.85
Q 109.1 144.05 103.1 138.65
M 116.15 95.85
L 115.95 95.55 115.95 95.3
Q 115.95 95.05 115.8 94.9
L 115.5 95 115.5 96 115.6 96.1
Q 115.95 96.45 116.05 96.95 116.35 96.9 116.35 96.5 116.35 96.1 116.15 95.85
M 190.65 166.7
Q 190.55 166.3 189.9 165.75
L 173.75 153.3
Q 172.15 152.1 171.7 151.25 171.4 151.3 171.5 151.65 171.6 151.95 171.85 152.15 181.15 159.9 190.65 166.7
M 331.7 76.9
Q 331.466796875 77.005859375 331.2 77.1 330.1 77.45 328.25 78.45 326.4123046875 79.4171875 324.15 80.5 320.6177734375 82.284765625 316.05 84.4 304.95 89.45 303.65 90.05 301.8517578125 90.8720703125 300.75 91.75
L 300.75 91.75
Q 296 92.7 291.05 97.3 289.85 98.45 287.1 101.35 284.6 104 283.1 105.35 280.1 108.05 271 113.65 270.662890625 113.8578125 270.3 114.05 262.8994140625 118.7216796875 259.5 122.6 258.6 123.65 253.2 131.45 252.62890625 132.2724609375 252.05 133 248.9017578125 137.18515625 245.85 139.05 242 141.4 236.1 142 230.832421875 142.475390625 225.75 141.7 225.924609375 141.4494140625 225.7 141.15 225.45 140.9 225.4 140.75 225.35 140.4 225.3 140.2
L 224.8 139.7
Q 224.7 139.6 224.45 138.9 224.2 138.15 223.8 137.75 223.35 137.3 223.3 137.15 223.05 137 222.85 137.2 222.7 137.35 222.7 137.65 222.7 137.95 223 138.65
L 223.9 140.35
Q 224.2 140.65 224.35 141
L 224.45 141.45
Q 223.7830078125 141.3505859375 223.1 141.2 223.1224609375 141.267578125 223.15 141.3 222.337890625 141.1728515625 222 141.05 220.55 140.45 218.9 137.65 217.7 135.55 217.45 134.4 217.148046875 133.0107421875 217.65 130.95 218.6154296875 130.95390625 218.8 131 219.35 131.15 219.75 131.55 219.8 131.6 220.6 132.8 221.1 133.7 221.65 133.9
L 221.85 133.8
Q 221.75 131.55 220.15 130.6 219.3490234375 130.1421875 217.9 130.1 217.98515625 129.83828125 218.05 129.55 218.1400390625 129.5427734375 218.2 129.5 218.8 129 219.05 128.05 219.15 127.65 219.25 126.25 219.5 123.75 220.8 120.75 221.08828125 120.0822265625 221.3 119.55 222.510546875 118.8689453125 223.6 118 225.75 116.4 225.15 114.9 223.9 114.7 222.45 115.65 220.8 116.95 220 117.5 217 119.75 211.55 119.85 207.3 119.95 204.1 118.7 201.915625 117.8126953125 199.65 116.05 198.5791015625 115.215625 197.5 114.2 192.9 109.8 191.15 105.35 188.9 99.7 190.9 94.65 191.85 92.3 193.95 90 194.671484375 89.201171875 195.75 88.2 196.748046875 87.2572265625 198.05 86.15 198.074609375 86.1216796875 198.1 86.1 204.35 80.85 206.65 78.7 211.25 74.35 214.1 70.35 214.7333984375 69.4791015625 215.65 68.05 216.4875 66.7736328125 217.55 65.05 219.7 61.5 221 59.75 226.2 52.75 240.15 43.45 249.103125 37.4501953125 254.45 32.75 257.751953125 29.8830078125 259.7 27.5
L 257.65 28.95 232.8 46.6
Q 228.15 49.85 225.8 51.85 222.05 54.9 219.65 58 218.80625 59.0763671875 217.75 60.65 216.321484375 61.225 214.75 62.25 213.7 62.9 210.85 65.15 207.45 67.8 193.9 76.85 183.3 83.9 177.65 89.45 176.55 90.5 171.8 95.7 168.25 99.55 165.7 101.65 159.85 106.6 149.85 110.55 146.6 111.85 144.4 112.35 143.4208984375 112.574609375 142.5 112.7 142.1134765625 112.7525390625 141.7 112.8 140.1716796875 112.93671875 138.75 112.8 137.0330078125 112.5935546875 135.35 111.95 129.339453125 109.644140625 123.9 101.7 123.0701171875 100.4408203125 122.8 99.45 122.5931640625 98.72734375 122.7 98.15 122.784375 97.58671875 123.2 96.9 123.45078125 96.561328125 123.75 96.2 124.2701171875 95.7521484375 125 95.15
L 132.35 89.5
Q 133.45 88.6 134.1 88.3
L 135.55 87.7
Q 135.9 87.55 136.85 87.05 137.6 86.65 138.1 86.5 138.166796875 86.4791015625 138.2 86.45 139.930078125 85.9787109375 141.95 86.7 143.25 87.2 145.4 88.55 147.4 89.9 147.8 90.3 149.05 91.45 149.35 91.55 149.15 89.8 148.5 89.1 148.2 88.8 147.2 88.25 145.25 87 144.25 86.4 142.5 85.4 141.05 85.1 140.27890625 84.9564453125 139.4 85 137.931640625 85.0765625 136.2 85.75 134.55 86.45 131.9 88.3 130.3328125 89.4318359375 128.85 90.55 131.771484375 87.348046875 132.85 86 134.55 83.9 137.7 79.6 140.044140625 76.56875 142 74.5 142.499609375 74.03125 142.95 73.6 145.55 71.15 149.85 68.2 152.3 66.55 157.2 63.25 164.05 58.3 172.2 49.8 176.9 44.95 186 34.9 186.587890625 34.2759765625 187.15 33.65 192.956640625 27.7421875 197.55 25.15 199.75 23.95 204.1 22.25 208.7 20.45 210.7 19.4 214.95 17.2 219.8 12.9 222.6 10.45 227.95 5.2 230.8314453125 2.5314453125 233.9 0
L 231.35 0
Q 230.6080078125 0.6541015625 229.85 1.35 223.75 7.05 220.6 9.8 215.2 14.45 210.5 17.05 208.4 18.2 203.6 20.35 199 22.35 196.7 23.7 192.4923828125 26.0994140625 188 30.25 187.8658203125 30.051953125 187.6 29.9 187.2 29.75 186.35 29.75
L 178.35 30
Q 173.25 30.15 170.75 30.4 166.55 30.85 163.35 31.95 158.65 33.5 150.95 38.85 150.5255859375 39.180078125 150.55 39.4 150.0953125 39.4302734375 149.55 39.55 147.6 39.95 144.35 41.6 140.85 43.3 139.2 43.75 136.65 44.5 131 44.4 125.55 44.35 122.9 45.2 121.25 45.75 119.1 47.1 116.5 48.9 115.25 50.75 113.8224609375 52.98046875 114.15 55.3 104.2046875 52.38515625 85.85 47.5 78.95 45.65 75.35 44.9 69.5 43.65 64.7 43.3 57.15 42.8 46.55 44.45 34.45 46.6 28.4 47.5 20.25 48.75 10.05 49.35 6.071484375 49.594921875 0.05 49.8
L 0.05 51.5
Q 18.3126953125 51.77890625 36.25 48.5 40.15 47.85 47.85 46.35 54.6 45.25 59.6 45.2 65.85 45.15 73.4 46.65 78.25 47.6 87 50 105.25 54.9 114.55 57.75 116.3982421875 58.3154296875 118.2 58.85 131.1787109375 62.9958984375 141.5 67.3 143.55 68.15 144.15 68.35 144.9078125 68.59453125 145.55 68.7 143.0326171875 70.5587890625 141.3 72.25 140.7546875 72.7837890625 140.15 73.4 138.23046875 75.536328125 135.85 78.8 131.8 84.3 130.7 85.6 129.35 87.2 126.3 90.45 125.065234375 91.7259765625 124.1 92.75 122.723828125 94.2498046875 121.9 95.25 121.5908203125 95.6279296875 121.35 95.95 120.515625 97.151953125 120.4 98 120.2 99.45 121.75 101.95 123.4271484375 104.5966796875 125.15 106.7 124.8271484375 107.1765625 124.55 107.8
L 124.3 108.65
Q 124.2 109.1 124.2 110.05
L 124.15 114.55
Q 124.15 115.95 124.25 116.3
L 124.5 117.2 124.65 118.55
Q 124.75 118.9 125.45 119.95
L 126.35 121.6
Q 126.9 122.45 128.15 123.25 129.9 124.3 131.8 124.5 132.55 124.6 134 124.6 135.35 124.65 136.15 125 136.3 125.05 138 126.05 140.6 127.5 143.4 126.25 144.91171875 125.578125 145.5 124.4 145.619921875 124.190234375 145.7 123.95 144.8 123.45 143.9 123.7 143 124.1 142.55 124.25 142.175 124.4107421875 141.8 124.5 140.03046875 124.891015625 138.1 123.7 136.9 122.85 136.55 122.7 136.1544921875 122.5517578125 134.85 122.45
L 132.9 122.4
Q 129.9 122.3 128.7 121.3 128.1 120.75 127.45 119.75
L 126.6 118.3
Q 126.05 117.15 125.8 115.6 125.2 111.9 126 108 126.0333984375 107.85546875 126.05 107.7 128.6158203125 110.566015625 131.3 112.25 133.4208984375 113.5712890625 135.6 114.2 136.7447265625 114.526953125 137.95 114.7 140.6947265625 115.048046875 143.8 114.55 144.0171875 114.5353515625 144.2 114.5 144.5509765625 114.4384765625 144.85 114.35 144.9328125 114.5 145 114.6 146.0595703125 116.7919921875 148.25 119.05 148.9462890625 119.7755859375 149.75 120.5 152 122.5 153.8 123.15 154.8 123.55 156.5 123.85 158.6 124.15 159.25 124.35 160.640625 124.7505859375 161.8 125.5 163.16640625 126.3548828125 164.25 127.65 164.2 126.15 162.9 124.95 162.8458984375 124.9005859375 162.8 124.85 161.6724609375 123.87421875 160.1 123.35 159.3 123.1 156.95 122.75 155 122.4 153.9 121.95 153.1083984375 121.6251953125 152.25 121.05 150.9958984375 120.2568359375 149.6 118.95 146.9255859375 116.6806640625 145.55 114.7 145.42890625 114.5056640625 145.3 114.3 145.7498046875 114.20390625 146.2 114.1 147.420703125 114.23046875 149.25 114.45 152.5 114.85 154.6 114.3 155.75 114 158.35 112.6 160.85 111.2 162.25 110.05
L 174.2 98.3
Q 175.39609375 97.1958984375 177.1 96.15 177.5896484375 96.615625 178.4 97.35 184.15 102.35 192.6 113.25 193.541796875 114.4748046875 194.4 115.6 195.1205078125 116.5154296875 195.75 117.35 202.4220703125 125.75 206.15 129.4 206.256640625 129.5095703125 206.35 129.6 208 131.2 211.4 134.3 214.25 137.1 215.95 139.45 216.95 140.85 217.55 141.4 218.2376953125 142.022265625 218.95 142.2 219.125 142.675 219.5 143.05 225.8 149.25 231.95 162.65 239.35 178.9 242.7 183.7 244.1 185.7 248.45 191.1 252.2 195.65 254 198.65 254.15 198.9 257.9 206.05 260.25 210.5 262.5 212.95 263.01328125 213.5060546875 263.65 214.1 264.5705078125 215.315234375 266.15 217 266.9 218 268.25 220
L 268.3 220.1
Q 267.2595703125 219.05625 266.2 218.1
L 269.95 223.25
Q 280.2 237.5 285.3 244.95 293.65 257.15 299.5 267.45 300.95 269.95 303.75 274.95 304.70625 276.6478515625 305.6 278.1 307.0197265625 280.4513671875 308.3 282.25 310.75 285.75 317.6 294.05 320.4841796875 297.4970703125 322.65 300.35
L 325.25 300.35
Q 323.958203125 298.67578125 322.4 296.75 317.05 290.1 315.35 287.85 314.3912109375 286.5919921875 313.4 285.2 308.74765625 278.8263671875 303.35 270.05 297.153125 259.6796875 293.5 253.7 293.7841796875 253.597265625 294.1 253.4 300.9 249.35 301.85 244.7 301.863671875 244.636328125 301.85 244.55 302.0091796875 243.7951171875 302.1 241.75
L 302.25 236.8
Q 302.25 236.2 301.95 236 301.7763671875 235.9130859375 301.6 236 301.578125 235.9478515625 301.55 235.9 301.1 235.15 300.3 234.75
L 288.25 228.65
Q 282.55 225.75 279.95 223.9 278.65 223 276.55 221.25 274.05 219.15 273.15 218.5 269.9 216.2 268.3 215.05 265.4 213 263.8 211.2 261.9 209.05 259.9 205.2 257.8 200.9 256.6 198.8 254.7 195.5 250.75 190.6 246 184.75 244.55 182.65 241.65 178.4 238.55 171.95 235.2 164.5 233.45 160.75 230.4 154.35 227.45 150 224.7095703125 145.9806640625 221.6 143 222.282421875 143.2298828125 223.05 143.25 223.965625 143.2734375 224.75 143.05 226.084375 143.7490234375 228.3 143.9 241.5 145.15 248.6 139.95 251.7056640625 137.69140625 255.3 132.4 255.5232421875 132.0916015625 255.75 131.75 260.3 125 262.3 122.95 265.15 120.05 270.75 116.7 278.1 112.3 279.8 111.05 282.7 108.9 288.15 103.6 293.4 98.4 296.55 96.2 297.2552734375 95.698828125 297.8 95.3 297.9734375 96.321875 298.45 97.6 300.2 102.15 301.95 104.3 302.5 105 304.4 106.9 304.9439453125 107.419140625 305.45 107.75 304.6390625 108.54765625 304.05 109.2 303.1 110.25 301.4 112.45 299.65 114.7 298.75 115.7 296.25 118.55 291.65 122 284.45 127.4 284 127.75 274.7 135.35 274.4 143.5 274.3 145.1 275.2 145.3 275.4244140625 145.348046875 275.6 145.3 276.7953125 148.7724609375 279.85 151.45 283.85 155 288.85 155.1 291.65 155.15 294.85 154.1 297.2 153.35 300.5 151.65 304.8 149.4 312.25 144.75 318.25 140.95 320.9 138.65 323.85 136.05 328.95 130.2 334.55 124.5 344.15 118.4 347.78984375 116.13515625 350.15 114.55
L 350.15 111.05
Q 346.725390625 113.4826171875 342.3 116.45 331 123.95 325.7 129.75 321.15 135.15 318.5 137.45 316.85 138.8 314.45 140.3 311.6 142 310.15 142.85 304.5 146.45 301.6 148.1 296.4 151.1 291.75 152.25 289.0197265625 152.9142578125 286.85 152.6 286.5376953125 152.5892578125 286.2 152.5 286.7205078125 152.601171875 287.3 152.2 287.65 151.95 288.35 151.3 289.3 150.5 291.55 149.5 292.25 149 293.5 147.9 294.15 147.4 295.55 146.45 296.7 145.55 297 144.6 296.45 144.3 295.55 145 293.1 146.9 291.85 147.8 289.7 149.45 288.05 150.4 286.2 151.5 286.1 152.5 285.741796875 152.4095703125 285.4 152.3 283.95 151.75 282.4 150.5 281.5 149.75 279.85 148.05
L 276.4 144.4
Q 276.6591796875 143.83515625 276.7 143.1 276.7322265625 142.7314453125 276.75 142.35 281.1150390625 138.5744140625 286.45 135.75 289.2 134.25 291 134.6 292.25 134.85 294.2 136.45 296.2 138.15 297.4 138.4 297.3 136.85 294.8 135.2 292.15 133.35 290.45 133.2 288.6 133.1 285.85 134.5 281.1451171875 136.964453125 277.15 140.55 278.855078125 134.4630859375 286.1 128.75 288.45 126.95 293.3 123.55 297.5 120.45 299.85 117.75 300.7 116.8 302.15 114.8 303.65 112.75 304.45 111.85 305.705078125 110.415625 307.8 108.5 307.9515625 108.5044921875 308.1 108.45
L 308 108.35
Q 308.152734375 108.229296875 308.3 108.1 309.65 106.95 312.3 104.6 315.35 101.85 318.65 98 320.65 95.7 324.45 90.9 325.1333984375 90.01015625 325.75 89.2 329.8208984375 83.896875 330.3 83.2 329.15 82.4 327.5 84.4
L 322.95 89.75 319.25 94.2
Q 314.85 99.5 312.3 101.8 311.35 102.7 308.1 105.45 307.23984375 106.1640625 306.5 106.8
L 305.05 105.3
Q 304.7291015625 104.9642578125 304.45 104.65 304.68046875 104.0263671875 304.85 102.5 305 101.55 305.3 100.65
L 305.65 99.45 308.45 94.85
Q 309.1 93.9 310.7 92.2
L 317.35 86.1
Q 318.76171875 85.4908203125 320.05 84.9 320.775390625 84.591015625 321.45 84.25 326.2013671875 82.1552734375 329.25 80.65 333.05 78.75 334.3 76.8 333.1197265625 76.5470703125 331.7 76.9
M 174.75 32.25
Q 176.85 32.2 181 32.2 184.20546875 32.112109375 186.5 31.65 185.4611328125 32.6701171875 184.35 33.8 184.1919921875 33.996484375 184 34.2 176.6 42.55 172.8 46.6 168.6845703125 51 164.25 54.9 164.45 53.9642578125 164.45 51.65 164.45 51.35 164.35 51.25 164.25 50.95 164 51.1 163.9 51.35 163.9 51.95
L 163.9 54.05
Q 163.9 54.75 163.6 54.9
L 163.7 55.1 164.1 55
Q 158.5486328125 59.9435546875 152.5 64.05 148.7693359375 66.4892578125 146.85 67.8 146.4271484375 66.496875 143.9 65.45 133.1388671875 61.162890625 119.7 57 118.219140625 56.51875 116.65 56.05 116.84765625 55.4458984375 117 55.05 117.2 54.45 117.4 54.1
L 118.2 53.1
Q 118.45 52.65 118.55 51.65
L 117.65 52.15
Q 116.85 52.85 116.75 52.95 116.45 53.5 116.3 53.75 115.8 54.95 115.75 55.05 115.6763671875 55.3201171875 115.65 55.75 115.58828125 55.72109375 115.5 55.7 115.1638671875 54.1564453125 115.95 52.55 116.65 51.05 118.9 49.45 121.6 47.7 124.1 47 126.7 46.3 132 46.4 137.35 46.55 139.9 45.9 142.2 45.35 145.8 43.45
L 152.3 40.2
Q 152.1333984375 39.9380859375 151.9 39.75 152.465234375 39.6609375 153.2 39.35 155.3 38.4 159.25 36.05 165.85 32.6 174.75 32.25
M 219.3 120.55
Q 218.962109375 121.233203125 218.6 122
L 218 123.55
Q 217.6 124.75 217.55 125.35 217.5 125.85 217.45 126.75 217.4 127 217.2 127.65 217 128.2 217 128.55 217.0130859375 128.68046875 217.05 128.8 216.337109375 129.959375 216 131.4 215.45 133.7 216.1 135.85 216.1802734375 136.1712890625 216.35 136.6 215.2798828125 135.45859375 214 134.2 210.6 131 208.9 129.3 205.314453125 125.75078125 199.65 119 201.229296875 119.96171875 202.95 120.65 208.1 122.7 213.65 122.05 216.7060546875 121.6779296875 219.3 120.55
M 289.4 235.1
Q 287.25 233.75 285.2 231.85
L 282.2 228.8
Q 281.375 227.9201171875 280.7 227.15 283.14375 228.6123046875 286.95 230.5
L 299.9 236.95
Q 300.5091796875 237.2849609375 300.95 237.25 300.6708984375 238.6056640625 300.5 240.4 300.403125 242.775 300.25 243.5
L 300.25 243.55
Q 299.35 248.15 292.75 251.9 292.612109375 251.972265625 292.5 252.05 292.3697265625 251.8447265625 292.25 251.65 281.9306640625 234.801171875 272.4 224.35 272.362109375 224.237890625 272.3 224.1 271.974609375 223.553515625 271.7 223.1
L 271.1 222.15
Q 269.7 220.5 269 219.65 268.0521484375 218.0873046875 267.25 217 267.4841796875 217.14765625 267.7 217.3 272.55 220.75 273.25 221.3 274.768359375 222.505859375 277.55 224.9
L 279.15 226.9
Q 279.2 226.95 280.4 228.75 281.15 229.9 281.8 230.45 282.55 231.05 282.65 231.2
L 283.15 231.85 287.15 235.25
Q 289.25 236.85 290.2 237.3
L 292.1 238.05 292.7 238.3
Q 295.1 239.15 297.85 239.25 297.4 238.65 295.9 238.05
L 291.7 236.4
Q 290.3 235.7 289.4 235.1
M 176.2 94.15
Q 178.926953125 91.2939453125 180.35 89.95 186 84.65 195.6 78.25 200.95 74.7 211.65 67.55 213.791015625 66.01484375 215.15 64.8 213.559375 67.43046875 212.9 68.4 210.1 72.5 205.75 76.7 202.75 79.6 197.45 83.95 197.036328125 84.290625 196.65 84.6 193.867578125 86.9384765625 192.55 88.3 190.05 90.9 188.95 93.55 187 98.55 188.9 104.9 189.1380859375 105.6884765625 189.4 106.45
L 189.3 106.3
Q 185.35 101.35 182.85 98.95 179.53828125 95.8060546875 176.2 94.15
M 137.85 52.25
Q 137.25 52 137.2 51.85
L 136.95 51.85 136.95 52.5
Q 137.5 52.5 138.35 53.3 138.5802734375 53.415234375 139 53.55 139.1107421875 53.603515625 139.25 53.65
L 139.7 54
Q 140.05 54.25 140.45 54.25
L 140.65 54
Q 140.15 53.95 139.8 53.5
L 139.5 53.25
Q 139.4525390625 53.2025390625 139.35 53.15 139.2232421875 53.068359375 138.95 53 138.3 52.4 137.85 52.25
M 141 50.8
Q 141.2 50.7 141.1 50.55 141.032421875 50.5365234375 140.9 50.5 140.5794921875 50.4052734375 139.85 50.15
L 137.95 50 137.95 50.1 137.85 50.1 137.85 50.3 139.4 50.5 139.8 50.6 140.25 50.8 140.7 50.85 140.7 50.85 141 50.8
M 162.15 50.4
Q 162.05 50.8 162.45 51.6 162.45 51.75 162.2 52.7 162.1 53.05 162.15 53.85 162.2 54.65 162.05 55
L 161.75 55.6
Q 161.65 56.05 161.95 56.2 162.05 56.15 162.2 55.65 162.25 55.5 162.6 55 162.75 54.7 162.7 54.05 162.65 53.35 162.75 53.1 163.15 52.5 163.25 52.15 163.3 51.85 163.1 51.15
L 162.8 50.55
Q 162.4 50.25 162.15 50.4
M 138.4 48.25
L 138.4 48.35
Q 138.15 48.35 138.05 48.6
L 137.85 49
Q 138.3 48.8 139.3 48.9 139.75 48.9 140.2 48.75 140.45 48.65 140.45 48.45
L 140 48.25 139.65 48.4
Q 139.45 48.45 139.05 48.35 138.55 48.25 138.4 48.25
M 13.1 147.7
Q 10.7 147.1 9 146.8 8.8 147.45 9.9 147.7
L 25.45 151.25
Q 26.8 151.55 27.45 151.2 25.5 150.6 22.3 149.95 18.2 149.05 17.15 148.8 14.45 148.05 13.1 147.7
M 37.1 51.7
Q 37.85 51.15 37.8 50.75 30.8 55.25 25.2 59.95 24.55 60.5 24.55 60.95 30.7 56.05 37.1 51.7
M 136.65 119.65
Q 135.9265625 119.564453125 134.65 119.6 133 119.7 132.15 119.3
L 131.45 118.9
Q 131.45 119.55 132.05 119.9 132.55 120.25 133.2 120.35 133.3 120.35 135.5 120.5 136.85 120.55 137.6 121.05 137.75 121.15 138.65 121.9 139.25 122.4 139.75 122.45 140.45 122.55 140.95 122.05 140.3 121.8 139.05 120.85 138.76640625 120.628125 138.5 120.45 137.7150390625 119.90078125 137.15 119.75 136.946484375 119.691796875 136.65 119.65
M 143.45 121.65
L 143.45 121.85 144.95 121.95 145.05 121.8 145.05 121.65 143.65 121.5 143.65 121.65 143.45 121.65
M 162.8 129.65
Q 162.7349609375 129.234375 162.5 128.85 162.3 128.95 161.15 129.8 160.3 130.35 159.7 130.45 158.4 130.65 156.5 129.15
L 153.6 126.9
Q 151.45 125.3 150.45 124.85 150.0302734375 124.6900390625 149.6 124.6 148.0302734375 124.18984375 146.75 124.75 146.3 124.85 146.25 125.2 146.1 125.8 147.3 125.95 149.6 126.25 152.35 128.6 153.1 129.25 154.6 130.5 155.9 131.55 156.95 132.1 159.35 133.3 161.15 132.45 162.15 132 162.6 130.9 162.8578125 130.241015625 162.8 129.65
M 279.25 266
Q 280.45 264.85 282.65 261.8
L 283.95 259.8
Q 284.2658203125 259.2474609375 284.55 258.9 284.6263671875 258.8236328125 284.7 258.75 284.85 258.55 285.25 258.15 285.55 257.75 285.3 257.4 285.05 257.4 284.85 257.7
L 284.2 258.6 282.7 260.65
Q 280.3 263.7 279.95 264.1 279.35 264.7 277.7 266.3 276.25 267.65 275.5 268.55
L 271.7 272.85
Q 270.25 274.4 268.85 275.25 268.05 275.65 267.9 276.15 269.15 275.8 270.9 274.2
L 273.75 271.7
Q 274.5 271.1 275 270.55
L 276.35 268.75
Q 276.85 268.1 277.75 267.3 278.25 266.9 279.25 266
M 33.55 52.7
L 33.45 52.35
Q 31.391015625 53.3794921875 27.4 55.7 25.611328125 56.7669921875 23.4 58.1 21.75 59.15 21.5 59.3
L 18.25 61.9
Q 12.35 66.7 9.95 69.15
L 10.1 69.45 19.8 61.2 25.55 57.35
Q 26.2494140625 56.9068359375 26.9 56.5 31.00859375 53.94921875 33.55 52.7
M 118.95 90.55
Q 118.85 90.7 118.95 90.9
L 119.25 91.15
Q 119.615625 91.3220703125 119.95 91.45 120.033203125 91.2837890625 120.1 90.95
L 120.55 90.85 120.55 90.7 121.8 91.4 122.15 91.8
Q 122.5 92.15 122.55 92.35 122.6513671875 92.552734375 122.6 92.7
L 123.55 93.05 123.8 92.8
Q 123.503125 92.298828125 123.1 91.9 122.8548828125 91.663671875 122.55 91.45 122.090625 91.1677734375 121.55 91
L 120.45 90.65
Q 119.5 90.3 119.2 90.35 119 90.35 118.95 90.55
M 108.05 90.9
Q 108.35 91.2 108.4 91.4
L 109.3 91.4
Q 109.7 90.7 109.65 90.3 109.55 89.85 109.2 89.65 108.75 89.45 108.05 89.7
L 107.85 89.8 107.75 89.9
Q 107.55 90.15 107.65 90.4 107.7 90.6 108.05 90.9
M 119.65 94.45
L 119.75 94.15
Q 119.15 93.8 118.8 93.65
L 117.9 93.45 117.9 93.6 117.7 93.7 117.7 94 118.2 94.2
Q 118.45 94.3 118.55 94.55
L 119.65 94.45
M 117.35 90.75
Q 117.203515625 90.420703125 116.95 90.1 116.89375 89.970703125 116.8 89.85
L 116.1 88.95
Q 115.15 88.05 113.8 87.75 112.25 87.35 111.45 88.2 111.4173828125 88.2326171875 111.4 88.25 111.15 88.5380859375 111.15 88.85 111.4203125 88.9201171875 112.05 89.1 112.7 89.25 113.15 89.25
L 114.35 89.4 114.95 89.85 115.25 90
Q 115.599609375 90.2623046875 115.35 90.65 115.50703125 90.8767578125 115.75 91.15 116.6 92.1 117.35 91.75 117.55 91.35 117.35 90.75
M 100.85 87.8
Q 101.005859375 87.871875 101.15 87.9 101.2982421875 87.5822265625 101.75 87.5
L 102.65 87.25 102.65 87.1
Q 102.7 87.1 103.5 87.35 103.5396484375 87.3697265625 103.9 87.5 104.6470703125 87.5365234375 105.15 87.8 105.33359375 87.9001953125 105.55 88.05 105.6369140625 88.07890625 105.7 88.1 105.7248046875 88.1373046875 105.75 88.15 106.0158203125 88.367578125 106.35 88.6 106.3984375 88.6646484375 106.45 88.7
L 106.65 88.3
Q 107.15 88.3 107.95 88.6 108.03515625 88.626171875 108.1 88.65 108.1322265625 88.4482421875 108.05 88.2 107.991796875 88.0927734375 107.9 87.95 107.65 87.45 106.95 87
L 105.5 86.05
Q 105.25 85.95 104.35 85.95
L 101.45 86.2
Q 101 86.4 100.8 86.9 100.65 87.4 100.85 87.8
M 95.35 82.95
Q 94.95 82.9 94.15 83.05 93.4 83.25 93 83.15
L 92.25 83
Q 91.7 83 91.7 83.4 91.7 83.5 92.2 84 92.372265625 84.11484375 92.6 84.3 92.758203125 84.458203125 92.95 84.65 93.1107421875 84.741796875 93.35 84.75
L 93.35 84.7
Q 93.45 84.3 93.7 84.3
L 93.8 84.3 93.8 84.2
Q 94.3095703125 84.2 94.85 84.5 95.001953125 84.4859375 95.1 84.5 95.35 84.55 95.85 84.95
L 96.85 85.9
Q 96.8955078125 85.9455078125 96.95 86 97.4166015625 86.458203125 97.6 86.55 98.15 86.85 98.6 86.6 98.6337890625 86.52265625 98.65 86.45 98.8966796875 85.7177734375 98.4 84.95 98.1 84.55 97.1 83.75 95.9 83 95.35 82.95
M 113 92.65
L 112 92.7
Q 111.75 93.15 111.9 93.6 111.9998046875 93.6345703125 112.1 93.65 113.3076171875 94.0078125 114.6 93.5 114.79921875 93.3671875 114.9 93.25 114.933203125 93.200390625 114.95 93.15 114.2 92.85 113 92.65
M 109.5 94.05
L 109.45 93.8
Q 109.45 93.75 109.3 93.6 109.15 93.5 109.05 93.15
L 108.6 93.15
Q 108.65 93.35 108.65 93.8
L 108.8 94.1
Q 108.9318359375 94.27578125 108.95 94.65 108.95 94.7392578125 108.95 94.8 108.95 95.5 109 95.6 109.15 96 109.7 96.1 109.75 96 109.7 95.8 109.6 95.55 109.55 95.45
L 109.5 94.95 109.5 94.05
M 100.4 90.1
Q 100.15 90.75 100.85 91.25 101.4 91.6 102.2 91.6
L 103.55 91.75
Q 103.9 91.85 104.6 92.3 105.2 92.7 105.6 92.8 105.641015625 92.8 106.05 92.9 106.1828125 92.9228515625 106.3 92.95 106.65 93 106.85 93.2 107.0935546875 93.28125 107.3 93.25 107.3607421875 93.5314453125 107.3 93.7 107.2970703125 93.787109375 107.25 93.85
L 107.15 93.95 106.95 94.05 106.9 94.15 106.85 94.3 106.85 95.1 106.9 95.45
Q 106.9 95.55 107.1 95.65 107.25 95.55 107.35 95.25
L 107.55 94.35
Q 107.6408203125 94.13203125 107.65 93.9 107.7015625 93.5705078125 107.55 93.2 107.9080078125 93.1419921875 108.2 92.85 107.85 92.5 107.15 92.2 106.4 91.9 106 91.7
L 104.45 91
Q 103.87265625 90.8076171875 102.5 90.75 102.1216796875 90.75 101.65 90.75 101.2 90.35 100.4 90.1
M 97.95 89.3
L 97.7 89.3
Q 97.75 89.45 97.55 89.55 97.5 89.6 97.25 89.95 96.7875 90.7208984375 96.65 91.25 96.6115234375 91.4509765625 96.6 91.6
L 97.05 91.6
Q 97.0806640625 91.5490234375 97.1 91.45 97.2 91.2275390625 97.2 90.75
L 97.9 89.85 98 89.65
Q 98.05 89.55 97.95 89.3
M 97.05 87.9
L 96.5 87.8 96.5 87.9
Q 96.35 87.85 96.05 88.05 95.65 88.55 95.6 88.9
L 95.5 89.2 95.35 89.4 95.3 89.55
Q 94.8 90.15 95.1 90.55
L 95.3 90.55
Q 95.3 90.35 95.5 90.15
L 95.8 89.9 95.85 89.85 96.15 89.4
Q 96.35 89.3 96.4 89.15
L 96.4 88.95 96.65 88.65
Q 97 88.3 97.05 87.9
M 88.65 83.9
Q 88.4208984375 83.9763671875 88.35 84.15 88.35 84.2291015625 88.35 84.3 88.3 84.7 88.75 85.15 89.5 86 89.95 86.35 90.55 86.85 91.85 87.45
L 92.55 87.8
Q 92.7 87.95 93 88.3 93.25 88.6 93.55 88.55
L 93.55 88.8
Q 94.15 88.95 94.75 88.8 95 88.6 94.6 88.2 93.9 87.5 93.45 87.25 93.35 87.2 92.45 86.8
L 91.6 86.45
Q 90.9 86.2 90.4 85.8 90.25 85.65 89.65 84.7 89.4669921875 84.402734375 89.25 84.2 88.9755859375 83.9814453125 88.65 83.9
M 344.65 19.4
Q 345.8 19.85 348.1 20.8 349.11484375 21.201953125 350.15 21.55
L 350.15 18.95
Q 347.51015625 17.9267578125 344.45 17.05 333.95 14.6 328.8 13.25 317.35 10.4 309.1 5.6 304.7509765625 3.055859375 301.25 0
L 296.95 0
Q 297.6373046875 1.130859375 298.25 1.85 299.8 3.75 303 5.7 307.55 8.45 308.25 9 310.75 10.9 313.1 14 314.65 16.05 317 19.85
L 324.9 32.35
Q 321.5 23 316.35 15.05 314.0197265625 11.4701171875 311.75 9.15 312.0322265625 9.313671875 312.3 9.45 314.85 10.8 320.6 12.85 325.5 14.55 327.55 15.2 331.45 16.4 334.6 16.95 335.2 17.05 337.9 17.5 339.9 17.85 341.15 18.2 342.65 18.6 344.65 19.4
M 299.45 0.1
Q 300.8587890625 1.4982421875 302.5 2.85 300.7015625 1.605078125 299.65 0.35 299.5564453125 0.2376953125 299.45 0.1
M 167.9 74.1
Q 164.85 71.35 164.15 69.3 163.75 69.45 163.85 70 163.9 70.25 164.2 70.65 168.05 75.85 173.3 79.4 173.4 79.15 173 78.75
L 167.9 74.1
M 195.35 31.65
Q 195.3 32.4 196.25 33.65
L 206.75 46.25
Q 210.25 50.3 211.45 51.55 212.3 52.3 212.7 51.9
L 203.25 40.45
Q 202.75 39.85 201.65 38.75
L 200 36.95
Q 197.65 34.3 195.8 31.65
L 195.35 31.65
M 203.9 38
Q 208.1 43.2 209.95 46 211.15 47.75 211.35 47.95 211.7 48.4 212.65 49.45 213.55 50.35 213.95 50.95 214.7 51.95 214.9 52.15 215.6 52.85 216.35 52.7 216.15 52.15 215.65 51.65
L 199.85 31.75
Q 199.45 31.35 199.4 31.35 199 31.15 198.85 31.45 199.65 32 200.45 33.3 201.65 35.35 201.7 35.4
L 203.9 38
M 204.05 46.95
Q 205.9 48.55 206.35 49.05 207.55 50.25 208.45 51.5 208.4 50.4 207 49.1
L 199.5 41.4
Q 199.15 41.75 199.8 42.55 202.95 45.9 204.05 46.95
M 342.35 95.4
Q 342.75 96.15 343.1 96.55 343.5 97.1 344.45 98.1 344.65 98.35 344.95 98.85 345.25 99.25 345.55 99.4 345.45 98.7 344.8 98 344 97.2 343.65 96.75 343.35 96.4 342.05 94.2 341.25 92.9 339.2 90.65 338.95 90.8 339.05 91.15
L 339.45 91.65
Q 340.95 93.1 341.65 94.15 341.75 94.3 342.35 95.4
M 336.2 79.55
L 335.15 79.8
Q 333.3 79.85 332.4 80 332.25 80.35 332.4 80.65 333.95 80.75 334.4 80.7 335.1 80.6 335.55 80.3 335.85 80.05 336.2 79.55
M 224.85 60.1
Q 224.85 60.85 225.75 61.85 226.3490234375 62.4908203125 226.85 63.05 228.1787109375 64.4564453125 228.9 65.25 229.95 66.45 231.9 68.95
L 233.8 71.2
Q 233.85 71.25 236 74.3 237.3 76.15 238.4 77.15 239.1 77.8 240.45 79.05 241 79.65 242.05 80.9 242.85 81.55 243.85 81.7
L 241.45 79.05
Q 237.85 75.05 236.25 72.9 234 69.85 233.65 69.45
L 232.05 67.65
Q 231.3 66.85 229.9 65.15
L 228.05 62.95 226 60.6
Q 225.3 59.9 224.85 60.1
M 171.75 81.85
Q 172.9 83.1 173.6 82.55 168.6498046875 76.6923828125 162.4 69.9 161.0822265625 68.478515625 159.7 67 159.45 66.75 159.1 66.65 158.65 66.6 158.6 66.9
L 161.5 70.2 171.75 81.85
M 267.95 81.9
Q 267.5 81.3 267.1 81.45
L 272.5 88.7 274.75 91.7
Q 277.55 95.4 279.1 97 276.762109375 93.0623046875 274 89.35 271.2 85.5052734375 267.95 81.9
M 272.05 83.1
Q 270.9 81.75 269.95 81.85 271.7560546875 84.169140625 274.45 87.3 277.944921875 91.35859375 282.9 96.75 283.4736328125 97.376171875 284.05 98 283.907421875 97.0380859375 282.95 95.75 282.603125 95.260546875 282.1 94.7
L 273.35 84.6 272.05 83.1
M 246.1 81.2
Q 246.95 81.95 247.25 82.45 247.4 82.75 247.65 83.3 247.95 83.8 248.3 83.95 248 82.65 246.3 80.65
L 244.55 78.6 230.5 62.1 229.7 61.15
Q 229.5 60.95 229.45 61.1
L 230.5 62.45 237.75 71.75
Q 239.45 73.9 242.85 77.75 243.8552734375 78.97265625 244.7 79.85 245.4607421875 80.6521484375 246.1 81.2
M 225.8 131.25
Q 225.55 131.25 225.55 131.4 227.2 134.7 230.1 137.15
L 232.95 139.35
Q 232.8 138.65 231.7 137.75 230.2 136.45 227.25 132.95
L 226.05 131.45 225.8 131.25
M 221.85 127.35
Q 221.65 127.3 221.6 127.55 221.55 127.8 221.65 128 223.45 131 225.55 133.85
L 226.85 135.65
Q 229 138.55 230.8 139.85 230.55 139 229.45 137.6 225.2 132.4 221.85 127.35
M 236.45 98.15
Q 236.05 97.9 235.35 98.6 234.45 99.65 233.35 101.35
L 228.65 108.2
Q 227.45 110.05 227 110.9 226.2 112.5 226.1 113.9
L 236.45 98.15
M 301.85 46.95
Q 301.05 47.85 300.8 48.35 300.7056640625 48.50703125 300.6 48.65 299.8541015625 49.190234375 298.95 49.8 289.776953125 55.400390625 283.6 59.25 280.16171875 61.3646484375 277.65 62.95 274.35078125 65.051953125 271.45 67.1 268.1173828125 69.4935546875 265.3 71.8 264.158203125 72.7640625 263.1 73.7 260.4392578125 76.04140625 258.3 78.35 257.0359375 79.711328125 254.1 83.25 252.5578125 85.214453125 250.5 87.8 245.99765625 93.4396484375 242.65 96.5 242.4798828125 96.68828125 242.3 96.85 240.48515625 98.40546875 239.35 99.4 238.9982421875 99.76484375 238.7 100.05 237.16640625 101.5453125 236.25 102.95 236.0099609375 103.4185546875 235.8 103.85 243.45 98.15 249.7 91.1 250.75 89.9 254.6 85.2 257.6 81.6 259.6 79.45 267.25 71.3 281.8 62.3 304.05 48.6 305.85 47.3 309.2 44.95 311.1 43.1 309.3515625 43.642578125 307.4 44.55 306.565625 45.0001953125 305.65 45.5 305.240234375 45.741015625 304.8 46 304.1763671875 46.362109375 303.1 47.05 304.433203125 45.0677734375 305.55 43.1 305.4 42.8 305 42.8 304.65 42.8 304.4 43.05 304 43.85 303.75 44.25 303 45.2 302.65 45.7
L 301.85 46.95
M 149.4 96.75
Q 148.7 97.4 148.05 98.65 147.35 100.1 146.95 100.75 145.6 103.2 142.2 105.8 136.75 109.9 136.5 110.15 135.4736328125 111.1763671875 135.65 111.9 135.6798828125 111.9498046875 135.7 112 135.7857421875 111.9369140625 135.9 111.85 136.9162109375 111.1150390625 139.6 109.25 142.1 107.55 143.5 106.4 146.2359375 104.2236328125 147.85 101.9 146.8302734375 103.5197265625 144.4 105.95
L 144.5 106.2
Q 146.45 104.5 148.1 102.35 148.8 101.35 148.95 100.75 148.6677734375 100.75 148.35 101.05 148.997265625 100.046875 149.4 99 150 97.5 149.4 96.75
M 310.6 119.9
L 310.05 119.95
Q 311 121.65 314.1 124.55
L 317.35 127.45 319.65 129.5
Q 320.4 130.1 320.75 129.75 319.8 129.3 318.85 128.25 318.3322265625 127.608984375 317.9 127.15 317.52890625 126.6541015625 317.25 126.35 316.85 125.9 315.2 124.5 312.45 122.1 310.6 119.9
M 308.85 121.25
Q 307.5 119.9 306.65 119.7 306.55 120.25 307.3 121 312.8 126.6 315.6 129.35 315.8123046875 129.5470703125 316 129.7 317.144140625 130.6423828125 317.95 130.6
L 316.05 128.65 308.85 121.25
M 197.35 102.9
Q 196.65 101.95 196.3 101.45 195.65 100.6 195.1 100.15 194.6 99.75 194.3 100 199.3 106.3 205.85 112.5 204.1994140625 110.214453125 202.45 108.25 201.440625 107.1224609375 200.4 106.1 200.165625 105.865625 199.95 105.65 197.8484375 103.534375 197.35 102.9
M 207.05 110.8
Q 205.5353515625 109.175390625 203.4 107 198.8 102.4 196.95 99.05 196.7791015625 99.0744140625 196.7 99.15 196.6244140625 99.2951171875 196.65 99.5 196.7 99.9 196.95 100.25 197.0423828125 100.3646484375 197.1 100.45 201.2533203125 105.569140625 206 110.4 208.1248046875 112.56015625 210.35 114.65 209.388671875 113.328125 207.05 110.8
M 234.85 101.5
Q 234.5 101.8 233.9 102.6 232.9 103.95 232.4 104.85 232.1 105.45 231.4 106.95 230.85 108.25 230.4 108.95 229.5 110.3 229.4 110.75 229.573828125 110.68046875 229.7 110.55 230.0390625 110.3416015625 230.3 109.95 230.4669921875 109.6578125 230.75 109.05 230.833984375 108.973828125 230.9 108.85 231.2 108.4 231.9 107.5 232.05 107.25 232.4 106.05 232.65 105.3 233.65 103.95 234.65 102.6 234.9 101.8
L 234.85 101.5
M 260.05 20.1
L 259.7 19.75
Q 259.4501953125 19.80546875 259.25 19.95 259.1388671875 20.0998046875 259.05 20.3
L 258.85 21.2
Q 258.85 21.35 258.45 22.5
L 257.2 25.6
Q 256.9 26.3 256.9 26.7 256.85 26.9 256.8 27.4
L 256.55 27.8
Q 256.35 28.05 256.55 28.25
L 256.8 28.25
Q 257.3 27.45 257.75 26.35
L 258.8 23.75
Q 259.45 22.15 259.5 21.8
L 259.5 21.75
Q 259.8529296875 20.4447265625 260.05 20.1
M 254.75 24
Q 255.1169921875 22.75078125 255.5 21.3 257 15.6 258.9 12.95 257.25 14.2 255.95 17.95 255.15 20.45 253.75 25.45
L 253.7 25.65 252.55 29.9
Q 253.5482421875 28.0955078125 254.75 24 Z"/>

<path fill="#EFB7AB" stroke="none" d="
M 187.1 263.15
Q 198.1 278.2 199.55 287.6 200.5 293.7 202.3 297.15 202.6248046875 297.799609375 203 298.4 203.501171875 297.9658203125 204.2 297.5
L 205.7 296.35
Q 207.6 295.05 208.35 294.7
L 208.6 295
Q 207.25 296.45 204.6 298.4 203.92734375 298.9265625 203.55 299.25
L 203.6 299.3
Q 203.85 299.65 204.15 300 204.2837890625 300.1740234375 204.4 300.35
L 205.2 300.35
Q 205.93984375 299.8564453125 206.75 299.35 207.35 298.9 207.8 298.8
L 207.9 299.15 206.4 300.35 217.25 300.35
Q 217.228125 300.324609375 217.2 300.3 212.5294921875 294.33125 206.25 285.8
L 199.25 276.35
Q 189.45 263.05 183.95 256.2 177.171875 247.7564453125 170.85 241.05 173.51328125 245.182421875 177.7 250.75 180.8 254.85 187.1 263.15
M 259.55 290.1
Q 259.3 290.35 258.75 290.8 258.4 291.1 258.1 291.6 257.9 291.9 257.55 292.5 257.3546875 292.79296875 256.1 294.15 256.395703125 294.96484375 256.7 295.8 257.76875 298.023828125 259.7 300.35
L 277 300.35
Q 276.5177734375 299.8669921875 276 299.35 267.1138671875 294.5251953125 259.25 288.15 257.2 286.5 255.85 285.05 254.55 283.65 252.35 280.45
L 237.2 257.95
Q 235.5412109375 255.5197265625 235.15 253.8 234.806640625 253.632421875 234.45 253.35 234 253 232.7 251.5 230.8 248.95 228.15 246.25 225.9 244 224.8 242.8 223.65 241.55 221.55 238.85
L 215.65 231.25
Q 214.4306640625 229.714453125 213.5 228.45 215.5546875 232.376953125 218.05 237.6 222.65 247.2 225.7 254.45 228.35 260.7 235.55 266.15 244.75 273.1 246.65 275.4 251.1 280.75 253.35 286.65 254.2982421875 289.2181640625 255.8 293.4 256.654296875 292.4400390625 257.25 291.7 258.8 289.7 259.85 289.25 259.95 289.65 259.55 290.1
M 130.8 299.5
Q 131.173828125 299.9380859375 131.5 300.35
L 142.45 300.35
Q 136.95 298.7 134.9 297.65 129.717578125 294.988671875 116.95 283.05
L 130.8 299.5
M 125.6 255.3
L 125.3 255.3
Q 130.55 259.6 139.9 266.75 147.3 272.35 150.1 274.95 158.05 282.2 158.05 291.15 158.05 291.7 157.6 294.65 157.496484375 295.317578125 157.4 295.85 158.8103515625 292.951171875 159.9 291.6 159.95 293.5 158.55 296.05 157.91015625 297.1908203125 157.15 298.2 157.275 298.498828125 157.7 299
L 157.9 298.65
Q 159.85 294.75 160.3 293.15 160.55 292.2 160.5 291.5 160.35 291 160.4 290.85 160.5 290.3 160.9 290.4 161.05 293.6 159.15 297.65
L 158.2 299.5
Q 158.5744140625 299.8794921875 159.05 300.35
L 172.95 300.35
Q 170.23125 297.0869140625 167.25 293.05 156.45 278.5 155.25 277.05 147.8951171875 268.1337890625 138.9 260.95
L 125.6 255.3
M 161.25 296.75
Q 161.5 296.5 161.65 296.55 161.6 296.95 161.1 297.55 160.65 298.2 160.55 298.55
L 160.5 299.3
Q 160.5 299.5 160.3 299.9 160.25 299.95 160.15 300.1 160.05 300.2 159.9 300.15 159.85 299.95 159.95 299.65 160.1 299.35 160.15 299.15
L 160.15 298.55
Q 160.25 298.1 160.55 297.7
L 161.25 296.75
M 292.1 238.05
L 290.2 237.3
Q 289.25 236.85 287.15 235.25
L 283.15 231.85
Q 276.4451171875 227.1439453125 272.3 224.1 272.362109375 224.237890625 272.4 224.35 281.9306640625 234.801171875 292.25 251.65 292.3697265625 251.8447265625 292.5 252.05 292.612109375 251.972265625 292.75 251.9 299.35 248.15 300.25 243.55
L 300.25 243.5
Q 296.5515625 241.09375 292.1 238.05
M 184 34.2
Q 184.1919921875 33.996484375 184.35 33.8 178.9056640625 34.0751953125 175.15 34.75 168.65 35.95 159.35 39.7 154.4 41.5 151.8 42.5 147.15 44.25 144.5 45.8 142.7642578125 46.8236328125 140.9 50.5 141.032421875 50.5365234375 141.1 50.55 141.2 50.7 141 50.8
L 140.7 50.85
Q 140.594921875 51.1392578125 140.45 51.45 139.994140625 52.447265625 139.35 53.15 139.4525390625 53.2025390625 139.5 53.25
L 139.8 53.5
Q 140.15 53.95 140.65 54
L 140.45 54.25
Q 140.05 54.25 139.7 54
L 139.25 53.65
Q 139.1107421875 53.603515625 139 53.55 137.530859375 54.95 135.3 54.95 134.05 54.95 131.4 54.3 128.8 53.65 127 53.65 124 53.65 121.3 55.65 120.4552734375 56.2533203125 119.7 57 133.1388671875 61.162890625 143.9 65.45 146.4271484375 66.496875 146.85 67.8 148.7693359375 66.4892578125 152.5 64.05 158.5486328125 59.9435546875 164.1 55
L 163.7 55.1 163.6 54.9
Q 163.9 54.75 163.9 54.05
L 163.9 51.95
Q 163.9 51.35 164 51.1 164.25 50.95 164.35 51.25 164.45 51.35 164.45 51.65 164.45 53.9642578125 164.25 54.9 168.6845703125 51 172.8 46.6 176.6 42.55 184 34.2
M 162.45 51.6
Q 162.05 50.8 162.15 50.4 162.4 50.25 162.8 50.55
L 163.1 51.15
Q 163.3 51.85 163.25 52.15 163.15 52.5 162.75 53.1 162.65 53.35 162.7 54.05 162.75 54.7 162.6 55 162.25 55.5 162.2 55.65 162.05 56.15 161.95 56.2 161.65 56.05 161.75 55.6
L 162.05 55
Q 162.2 54.65 162.15 53.85 162.1 53.05 162.2 52.7 162.45 51.75 162.45 51.6
M 11.75 143.6
L 9.15 143.6
Q 7.85 143.9 7.85 145.55 7.85 145.75 8.75 147.55 9.6 149.35 9.6 149.5 9.6 150.35 9.2 150.6 8.5 151.05 6.35 151.05 3.307421875 151.05 0.05 150.05
L 0.05 164.35
Q 3.3552734375 164.027734375 5.6 163.75 14 162.7 20 161.1 22.05 160.55 28.6 158.35 33.9 156.6 37.25 155.9 40.288671875 155.244140625 42.65 155.4 37.87578125 152.3716796875 32.45 150.45 25.25 147.9 17.7 147.65 17.4 147.15 18.05 146.7 18.35 146.5 19.1 146.5 26.15 146.55 32.95 148.7 39.7 150.9 45.45 154.95 46.7 155.85 49.05 157.6 51.2 159.1 52.9 159.9 53.3955078125 160.14765625 54.2 160.5 45.4642578125 152.6181640625 33.45 148.1 21.6 143.6 11.75 143.6
M 9 146.8
Q 10.7 147.1 13.1 147.7 14.45 148.05 17.15 148.8 18.2 149.05 22.3 149.95 25.5 150.6 27.45 151.2 26.8 151.55 25.45 151.25
L 9.9 147.7
Q 8.8 147.45 9 146.8
M 216.5 223.6
Q 214.3919921875 224.391015625 212.85 224.85 213.2109375 225.375390625 213.6 225.9 213.6529296875 225.9841796875 213.7 226.05 215.7357421875 228.8001953125 217.85 231.45 217.99140625 231.45 218.15 231.45
L 221.15 231.1 221.15 230.95
Q 221.6361328125 231.0248046875 221.9 231.1 221.61484375 230.6875 221.3 230.25
L 216.5 223.6
M 178.4 97.35
Q 177.5896484375 96.615625 177.1 96.15 175.39609375 97.1958984375 174.2 98.3
L 162.25 110.05
Q 160.85 111.2 158.35 112.6 155.75 114 154.6 114.3 152.5 114.85 149.25 114.45 147.420703125 114.23046875 146.2 114.1 145.7498046875 114.20390625 145.3 114.3 145.42890625 114.5056640625 145.55 114.7 149.7263671875 115.334765625 153.75 115.1 157.15 114.9 164.8 114.35 173.05 114.35 181 114.75 186.80703125 115.0349609375 194.15 115.6 194.288671875 115.614453125 194.4 115.6 193.541796875 114.4748046875 192.6 113.25 184.15 102.35 178.4 97.35
M 346.6 99.5
L 346.6 103.05
Q 347.5 105.55 347.5 107.6 347.5 109.25 332.7 118.35 321.719140625 124.8533203125 317.9 127.15 318.3322265625 127.608984375 318.85 128.25 319.8 129.3 320.75 129.75 320.4 130.1 319.65 129.5
L 317.35 127.45
Q 316.33046875 128.112890625 316.05 128.3 316.066015625 128.483984375 316.05 128.65
L 317.95 130.6
Q 317.144140625 130.6423828125 316 129.7 315.6333984375 132.547265625 312.8 135.7 310.55 138.15 305.6 141.85 301.45 144.95 293.05 149.05 288.773828125 151.1392578125 286.85 152.6 289.0197265625 152.9142578125 291.75 152.25 296.4 151.1 301.6 148.1 304.5 146.45 310.15 142.85 311.6 142 314.45 140.3 316.85 138.8 318.5 137.45 321.15 135.15 325.7 129.75 331 123.95 342.3 116.45 346.725390625 113.4826171875 350.15 111.05
L 350.15 98.95
Q 347.593359375 99.732421875 346.6 99.5
M 258.85 21.2
L 259.05 20.3
Q 259.1388671875 20.0998046875 259.25 19.95 258.8208984375 17.0134765625 258.45 16.55 257.0052734375 20.2966796875 254.75 24 253.5482421875 28.0955078125 252.55 29.9
L 253.7 25.65
Q 249 32.7638671875 241.3 39.7 228.9 50.85 218.7 52.8 214.85 53.55 213.75 55.5 212.9 58 211.7 59.4 210.1 61.25 206.85 63.7 202.7 66.75 201.7 67.65 198 70.9 189.65 75.1 180 79.95 173.75 80.75 175.1 84.2 170.7 89.9 166.7 95.1 159.25 100.5 151.95 105.85 144.5 109.1 139.665234375 111.1849609375 135.9 111.85 135.7857421875 111.9369140625 135.7 112 135.6798828125 111.9498046875 135.65 111.9 135.507421875 111.9255859375 135.35 111.95 137.0330078125 112.5935546875 138.75 112.8 140.1716796875 112.93671875 141.7 112.8 142.1134765625 112.7525390625 142.5 112.7 143.4208984375 112.574609375 144.4 112.35 146.6 111.85 149.85 110.55 159.85 106.6 165.7 101.65 168.25 99.55 171.8 95.7 176.55 90.5 177.65 89.45 183.3 83.9 193.9 76.85 207.45 67.8 210.85 65.15 213.7 62.9 214.75 62.25 216.321484375 61.225 217.75 60.65 218.80625 59.0763671875 219.65 58 222.05 54.9 225.8 51.85 228.15 49.85 232.8 46.6
L 257.65 28.95
Q 259.75 26.478125 259.75 24.85 259.75 23.855859375 259.5 21.8 259.45 22.15 258.8 23.75
L 257.75 26.35
Q 257.3 27.45 256.8 28.25
L 256.55 28.25
Q 256.35 28.05 256.55 27.8
L 256.8 27.4
Q 256.85 26.9 256.9 26.7 256.9 26.3 257.2 25.6
L 258.45 22.5
Q 258.85 21.35 258.85 21.2
M 265.3 71.8
Q 264.772265625 72.1525390625 264.25 72.45 263.1861328125 73.123046875 262.15 73.7 252.4376953125 79.4 248.15 79.4 246.2126953125 79.4 244.55 78.6
L 246.3 80.65
Q 248 82.65 248.3 83.95 247.95 83.8 247.65 83.3 247.4 82.75 247.25 82.45 246.95 81.95 246.1 81.2 245.4607421875 80.6521484375 244.7 79.85 245.4708984375 84.994140625 241.45 90.65 235.2 98.05 232.25 102.15 230.55 104.5 224.1 107.95 217.05 111.75 213 111.75 209.7623046875 111.75 207.05 110.8 209.388671875 113.328125 210.35 114.65 208.1248046875 112.56015625 206 110.4 204.081640625 109.5998046875 202.45 108.25 204.1994140625 110.214453125 205.85 112.5 199.3 106.3 194.3 100 194.6 99.75 195.1 100.15 195.65 100.6 196.3 101.45 196.65 101.95 197.35 102.9 197.8484375 103.534375 199.95 105.65 198.1931640625 103.354296875 197.1 100.45 197.0423828125 100.3646484375 196.95 100.25 196.7 99.9 196.65 99.5 196.6244140625 99.2951171875 196.7 99.15 195.55 95.3384765625 195.55 90.55 195.55 89.7037109375 195.65 88.9 195.6861328125 88.553515625 195.75 88.2 194.671484375 89.201171875 193.95 90 191.85 92.3 190.9 94.65 188.9 99.7 191.15 105.35 192.9 109.8 197.5 114.2 198.5791015625 115.215625 199.65 116.05 201.915625 117.8126953125 204.1 118.7 207.3 119.95 211.55 119.85 217 119.75 220 117.5 220.8 116.95 222.45 115.65 223.9 114.7 225.15 114.9 225.75 116.4 223.6 118 222.510546875 118.8689453125 221.3 119.55 221.08828125 120.0822265625 220.8 120.75 219.5 123.75 219.25 126.25 219.15 127.65 219.05 128.05 218.8 129 218.2 129.5 218.1400390625 129.5427734375 218.05 129.55 217.98515625 129.83828125 217.9 130.1 219.3490234375 130.1421875 220.15 130.6 221.75 131.55 221.85 133.8
L 221.65 133.9
Q 221.1 133.7 220.6 132.8 219.8 131.6 219.75 131.55 219.35 131.15 218.8 131 218.6154296875 130.95390625 217.65 130.95 217.148046875 133.0107421875 217.45 134.4 217.7 135.55 218.9 137.65 220.55 140.45 222 141.05 222.337890625 141.1728515625 223.15 141.3 223.1224609375 141.267578125 223.1 141.2 223.7830078125 141.3505859375 224.45 141.45
L 224.35 141
Q 224.2 140.65 223.9 140.35
L 223 138.65
Q 222.7 137.95 222.7 137.65 222.7 137.35 222.85 137.2 223.05 137 223.3 137.15 223.35 137.3 223.8 137.75 224.2 138.15 224.45 138.9 224.7 139.6 224.8 139.7
L 225.3 140.2
Q 225.35 140.4 225.4 140.75 225.45 140.9 225.7 141.15 225.924609375 141.4494140625 225.75 141.7 230.832421875 142.475390625 236.1 142 242 141.4 245.85 139.05 248.9017578125 137.18515625 252.05 133 251.209765625 133.1 250.35 133.1 249.75 133.1 247.05 132.25
L 244.45 131.4
Q 243.25 132.7 241.5 134 238.05 136.6 234.8 136.6 230.05 136.6 227 132.3 224.4 128.6 224.4 124.4 224.4 118.4658203125 229.7 110.55 229.573828125 110.68046875 229.4 110.75 229.5 110.3 230.4 108.95 230.85 108.25 231.4 106.95 232.1 105.45 232.4 104.85 232.9 103.95 233.9 102.6 234.5 101.8 234.85 101.5
L 234.9 101.8
Q 234.65 102.6 233.65 103.95 232.65 105.3 232.4 106.05 232.05 107.25 231.9 107.5 231.2 108.4 230.9 108.85 230.833984375 108.973828125 230.75 109.05
L 230.8 109.05
Q 233.89375 104.7396484375 237.5 101.1 238.61328125 100.0205078125 239.75 99 241.1748046875 97.7158203125 242.65 96.5 245.99765625 93.4396484375 250.5 87.8 252.5578125 85.214453125 254.1 83.25 257.0359375 79.711328125 258.3 78.35 260.4392578125 76.04140625 263.1 73.7 264.158203125 72.7640625 265.3 71.8
M 235.35 98.6
Q 236.05 97.9 236.45 98.15
L 226.1 113.9
Q 226.2 112.5 227 110.9 227.45 110.05 228.65 108.2
L 233.35 101.35
Q 234.45 99.65 235.35 98.6
M 221.6 127.55
Q 221.65 127.3 221.85 127.35 225.2 132.4 229.45 137.6 230.55 139 230.8 139.85 229 138.55 226.85 135.65
L 225.55 133.85
Q 223.45 131 221.65 128 221.55 127.8 221.6 127.55
M 225.55 131.4
Q 225.55 131.25 225.8 131.25
L 226.05 131.45 227.25 132.95
Q 230.2 136.45 231.7 137.75 232.8 138.65 232.95 139.35
L 230.1 137.15
Q 227.2 134.7 225.55 131.4
M 336.6 73.8
L 336.15 73.8
Q 321.8 80.3 310.6 85.15 288.95 94.45 282.9 94.7 282.975390625 95.2228515625 282.95 95.75 283.907421875 97.0380859375 284.05 98 283.4736328125 97.376171875 282.9 96.75 282.3341796875 101.7318359375 276.05 108.55 273.910546875 110.8744140625 270.3 114.05 270.662890625 113.8578125 271 113.65 280.1 108.05 283.1 105.35 284.6 104 287.1 101.35 289.85 98.45 291.05 97.3 296 92.7 300.75 91.75
L 300.75 91.75
Q 301.8517578125 90.8720703125 303.65 90.05 304.95 89.45 316.05 84.4 320.6177734375 82.284765625 324.15 80.5 326.4123046875 79.4171875 328.25 78.45 330.1 77.45 331.2 77.1 331.466796875 77.005859375 331.7 76.9 334.184375 75.3669921875 336.6 73.8
M 320.05 84.9
Q 318.76171875 85.4908203125 317.35 86.1
L 310.7 92.2
Q 309.1 93.9 308.45 94.85
L 305.65 99.45 305.3 100.65
Q 305 101.55 304.85 102.5 304.68046875 104.0263671875 304.45 104.65 304.7291015625 104.9642578125 305.05 105.3
L 306.5 106.8
Q 307.23984375 106.1640625 308.1 105.45 311.35 102.7 312.3 101.8 314.85 99.5 319.25 94.2
L 322.95 89.75
Q 322.435546875 89.5984375 321.75 89.1 320.45 88.1 320.45 87.05 320.45 86.0103515625 321.45 84.25 320.775390625 84.591015625 320.05 84.9 Z"/>

<path fill="#FCE6C7" stroke="none" d="
M 235.75 254
Q 235.7416015625 254.0173828125 235.7 254 236.091015625 254.6646484375 236.55 255.4 236.1345703125 254.698828125 235.75 254
M 302.5 2.85
Q 300.8587890625 1.4982421875 299.45 0.1 299.5564453125 0.2376953125 299.65 0.35 300.7015625 1.605078125 302.5 2.85 Z"/>

<path fill="#C0C584" stroke="none" d="
M 222 231.25
Q 221.3509765625 232.16328125 220.3 232.45 219.6220703125 232.61953125 218.7 232.55 225.05 240.450390625 232.05 247.65 227.516015625 239.040625 222 231.25
M 18.45 163.5
Q 9.367578125 165.81953125 0.05 166.25
L 0.05 300.35 128.8 300.35
Q 113.9607421875 282.7853515625 106.15 273.65 100.7 267.15 98.6 264.4 94.5 259.1 91.85 254.6 88.9 249.55 85.7 241.8 82.2 232.95 80.35 228.55 75.3 217.45 73.2 211.75 72.05 208.65 65.85 186.1 61.91875 171.669921875 56.75 163.15
L 56.7 163.15
Q 55.35 163.25 53.5 162.35 51.05 161.25 49.3 160.15 48.6029296875 159.6521484375 45.7 157.5 43.91953125 157.7279296875 42.05 157.4 36.95 158.3 32 159.65 23 162.35 18.45 163.5
M 344.15 118.4
Q 334.55 124.5 328.95 130.2 323.85 136.05 320.9 138.65 318.25 140.95 312.25 144.75 304.8 149.4 300.5 151.65 297.2 153.35 294.85 154.1 291.65 155.15 288.85 155.1 283.85 155 279.85 151.45 276.7953125 148.7724609375 275.6 145.3 275.4244140625 145.348046875 275.2 145.3 274.3 145.1 274.4 143.5 274.7 135.35 284 127.75 284.45 127.4 291.65 122 296.25 118.55 298.75 115.7 299.65 114.7 301.4 112.45 303.1 110.25 304.05 109.2 304.6390625 108.54765625 305.45 107.75 304.9439453125 107.419140625 304.4 106.9 302.5 105 301.95 104.3 300.2 102.15 298.45 97.6 297.9734375 96.321875 297.8 95.3 297.2552734375 95.698828125 296.55 96.2 293.4 98.4 288.15 103.6 282.7 108.9 279.8 111.05 278.1 112.3 270.75 116.7 265.15 120.05 262.3 122.95 260.3 125 255.75 131.75 255.5232421875 132.0916015625 255.3 132.4 251.7056640625 137.69140625 248.6 139.95 241.5 145.15 228.3 143.9 226.084375 143.7490234375 224.75 143.05 223.965625 143.2734375 223.05 143.25 222.282421875 143.2298828125 221.6 143 224.7095703125 145.9806640625 227.45 150 230.4 154.35 233.45 160.75 235.2 164.5 238.55 171.95 241.65 178.4 244.55 182.65 246 184.75 250.75 190.6 254.7 195.5 256.6 198.8 257.8 200.9 259.9 205.2 261.9 209.05 263.8 211.2 265.4 213 268.3 215.05 269.9 216.2 273.15 218.5 274.05 219.15 276.55 221.25 278.65 223 279.95 223.9 282.55 225.75 288.25 228.65
L 300.3 234.75
Q 301.1 235.15 301.55 235.9 301.578125 235.9478515625 301.6 236 301.7763671875 235.9130859375 301.95 236 302.25 236.2 302.25 236.8
L 302.1 241.75
Q 302.0091796875 243.7951171875 301.85 244.55 301.863671875 244.636328125 301.85 244.7 300.9 249.35 294.1 253.4 293.7841796875 253.597265625 293.5 253.7 297.153125 259.6796875 303.35 270.05 308.74765625 278.8263671875 313.4 285.2 314.3912109375 286.5919921875 315.35 287.85 317.05 290.1 322.4 296.75 323.958203125 298.67578125 325.25 300.35
L 350.15 300.35 350.15 114.55
Q 347.78984375 116.13515625 344.15 118.4
M 180.35 89.95
Q 178.926953125 91.2939453125 176.2 94.15 179.53828125 95.8060546875 182.85 98.95 185.35 101.35 189.3 106.3
L 189.4 106.45
Q 189.1380859375 105.6884765625 188.9 104.9 187 98.55 188.95 93.55 190.05 90.9 192.55 88.3 193.867578125 86.9384765625 196.65 84.6 197.036328125 84.290625 197.45 83.95 202.75 79.6 205.75 76.7 210.1 72.5 212.9 68.4 213.559375 67.43046875 215.15 64.8 213.791015625 66.01484375 211.65 67.55 200.95 74.7 195.6 78.25 186 84.65 180.35 89.95
M 218.6 122
Q 218.962109375 121.233203125 219.3 120.55 216.7060546875 121.6779296875 213.65 122.05 208.1 122.7 202.95 120.65 201.229296875 119.96171875 199.65 119 205.314453125 125.75078125 208.9 129.3 210.6 131 214 134.2 215.2798828125 135.45859375 216.35 136.6 216.1802734375 136.1712890625 216.1 135.85 215.45 133.7 216 131.4 216.337109375 129.959375 217.05 128.8 217.0130859375 128.68046875 217 128.55 217 128.2 217.2 127.65 217.4 127 217.45 126.75 217.5 125.85 217.55 125.35 217.6 124.75 218 123.55
L 218.6 122
M 229.85 1.35
Q 230.6080078125 0.6541015625 231.35 0
L 0.05 0 0.05 49.8
Q 6.071484375 49.594921875 10.05 49.35 20.25 48.75 28.4 47.5 34.45 46.6 46.55 44.45 57.15 42.8 64.7 43.3 69.5 43.65 75.35 44.9 78.95 45.65 85.85 47.5 104.2046875 52.38515625 114.15 55.3 113.8224609375 52.98046875 115.25 50.75 116.5 48.9 119.1 47.1 121.25 45.75 122.9 45.2 125.55 44.35 131 44.4 136.65 44.5 139.2 43.75 140.85 43.3 144.35 41.6 147.6 39.95 149.55 39.55 150.0953125 39.4302734375 150.55 39.4 150.5255859375 39.180078125 150.95 38.85 158.65 33.5 163.35 31.95 166.55 30.85 170.75 30.4 173.25 30.15 178.35 30
L 186.35 29.75
Q 187.2 29.75 187.6 29.9 187.8658203125 30.051953125 188 30.25 192.4923828125 26.0994140625 196.7 23.7 199 22.35 203.6 20.35 208.4 18.2 210.5 17.05 215.2 14.45 220.6 9.8 223.75 7.05 229.85 1.35
M 344.45 17.05
Q 347.51015625 17.9267578125 350.15 18.95
L 350.15 0 301.25 0
Q 304.7509765625 3.055859375 309.1 5.6 317.35 10.4 328.8 13.25 333.95 14.6 344.45 17.05 Z"/>

<path fill="#FFFFFF" stroke="none" d="
M 152.7 132.9
Q 152.2 132.4 151.95 132.4
L 151.45 132.5
Q 151.05 132.8 150.95 133.05 150.9 133.25 150.85 133.65 150.8 133.8 150.55 134 150.3 134.3 150.6 135.15 151 135.8 151.1 135.85 151.45 136.05 151.95 136.05 152.7 136.15 153.05 136 153.4 135.9 153.8 135.4 154.1 135.1 154.1 134.8 154.25 134.3 153.65 133.7
L 152.7 132.9
M 147.7 129.2
Q 147.4 129.35 147.25 129.45 147.2 129.85 147.15 130.05
L 147.05 130.4 147 130.85
Q 147 131.25 147.15 131.4
L 148.45 131.5
Q 148.45 131.4 148.65 131.1 148.85 130.95 148.9 130.8 149.05 130.55 148.9 130.2
L 148.6 130
Q 148.05 129.35 147.7 129.2
M 142.45 119.55
Q 143.75 119.55 146.4 120.85 147.95 121.6 151.45 123.5 151.85 123.7 155.1 126.45 157.85 128.75 158.85 128.75 160.3 128.75 161.1 126.8 161.4244140625 125.9890625 161.8 125.5 160.640625 124.7505859375 159.25 124.35 158.6 124.15 156.5 123.85 154.8 123.55 153.8 123.15 152 122.5 149.75 120.5 148.9462890625 119.7755859375 148.25 119.05 145.955859375 117.384765625 143.8 114.55 140.6947265625 115.048046875 137.95 114.7 136.15 116.059765625 136.15 117.8 136.15 118.9984375 136.65 119.65 136.946484375 119.691796875 137.15 119.75 137.7150390625 119.90078125 138.5 120.45 138.553125 120.45 138.6 120.45 139.15 120.45 140.55 120 141.9 119.55 142.45 119.55
M 162.8 124.85
Q 162.9890625 124.8 163.2 124.8 161.85 123.625 159.15 122.7 156.35 121.7 153.2 121.3 152.72265625 121.2068359375 152.25 121.05 153.1083984375 121.6251953125 153.9 121.95 155 122.4 156.95 122.75 159.3 123.1 160.1 123.35 161.6724609375 123.87421875 162.8 124.85 Z"/>

<path fill="#E6F1F4" stroke="none" d="
M 166.9 129.7
Q 166.75 129.25 165.9 128.7 165.85 128.8 165.4 128.8 164.55 128.7 164.25 129.55 164.15 129.8 164.15 130.4
L 164.2 130.75
Q 164.2447265625 130.839453125 164.4 131 164.42890625 131.02890625 164.45 131.05 164.75 131.35 164.8 131.35
L 165.2 131.45 165.55 131.45
Q 165.9 131.55 166.2 131.4 166.4 131.3 166.5 131.05 166.8634765625 130.5875 166.9 130.15 166.9509765625 129.9205078125 166.9 129.7
M 163.2 124.8
Q 162.9890625 124.8 162.8 124.85 162.8458984375 124.9005859375 162.9 124.95 164.2 126.15 164.25 127.65 163.16640625 126.3548828125 161.8 125.5 161.4244140625 125.9890625 161.1 126.8 160.3 128.75 158.85 128.75 157.85 128.75 155.1 126.45 151.85 123.7 151.45 123.5 147.95 121.6 146.4 120.85 143.75 119.55 142.45 119.55 141.9 119.55 140.55 120 139.15 120.45 138.6 120.45 138.553125 120.45 138.5 120.45 138.76640625 120.628125 139.05 120.85 140.3 121.8 140.95 122.05 140.45 122.55 139.75 122.45 139.25 122.4 138.65 121.9 137.75 121.15 137.6 121.05 136.85 120.55 135.5 120.5 133.3 120.35 133.2 120.35 132.55 120.25 132.05 119.9 131.45 119.55 131.45 118.9
L 132.15 119.3
Q 133 119.7 134.65 119.6 135.9265625 119.564453125 136.65 119.65 136.15 118.9984375 136.15 117.8 136.15 116.059765625 137.95 114.7 136.7447265625 114.526953125 135.6 114.2 133.4208984375 113.5712890625 131.3 112.25 128.6158203125 110.566015625 126.05 107.7 126.0333984375 107.85546875 126 108 125.2 111.9 125.8 115.6 126.05 117.15 126.6 118.3
L 127.45 119.75
Q 128.1 120.75 128.7 121.3 129.9 122.3 132.9 122.4
L 134.85 122.45
Q 136.18828125 122.2 136.6 122.2 139.15 122.2 140.35 123.5 140.944140625 124.1716796875 141.8 124.5 142.175 124.4107421875 142.55 124.25 143 124.1 143.9 123.7 144.8 123.45 145.7 123.95 145.619921875 124.190234375 145.5 124.4
L 145.55 124.4
Q 146.95 123.95 147.5 123.95 148.326171875 123.95 149.6 124.6 150.0302734375 124.6900390625 150.45 124.85 151.45 125.3 153.6 126.9
L 156.5 129.15
Q 158.4 130.65 159.7 130.45 160.3 130.35 161.15 129.8 162.3 128.95 162.5 128.85 162.7349609375 129.234375 162.8 129.65 162.818359375 129.632421875 162.85 129.6 164.55 127.75 164.55 127.4 164.55 125.975 163.2 124.8
M 143.45 121.85
L 143.45 121.65 143.65 121.65 143.65 121.5 145.05 121.65 145.05 121.8 144.95 121.95 143.45 121.85 Z"/>

<path fill="#FAE7DA" stroke="none" d="
M 122.3 227.05
Q 126.035546875 236.6515625 133.1 241.95 138.15 245.75 150.55 250.5
L 151 250.5
Q 143.85 243.4 133.65 235.75 126.6169921875 230.489453125 122.3 227.05
M 155.6 200.3
Q 155.5119140625 200.19296875 155.4 200.1 156.3994140625 207.6759765625 167.75 216.2 174.3072265625 221.0697265625 183.85 226.55 180.887890625 223.2318359375 171.5 213.8 164.65 206.85 163.2 202.95 162.95 202.95 162.75 203.45 162.5 204.15 162.35 204.3 158.9 203.7 155.6 200.3
M 118.2 58.85
Q 116.3982421875 58.3154296875 114.55 57.75 105.25 54.9 87 50 78.25 47.6 73.4 46.65 65.85 45.15 59.6 45.2 54.6 45.25 47.85 46.35 40.15 47.85 36.25 48.5 18.3126953125 51.77890625 0.05 51.5
L 0.05 55.4
Q 3.436328125 55.0306640625 7.65 54.55 26.5 52.35 26.6 52.35 27.2 52.35 27.8 52.6 28.4 52.8 28.8 52.8 28.3880859375 54.1615234375 27.4 55.7 31.391015625 53.3794921875 33.45 52.35
L 33.55 52.7
Q 31.00859375 53.94921875 26.9 56.5 25.223828125 58.936328125 22.25 61.8 16.728125 67.0611328125 15.9 67.9 20.2849609375 66.7322265625 24.5 64.25 29.45 60.95 31.9 59.3 41.05 53.25 51.75 53.25 58.05 53.25 79.95 57.15 90.95 59.1 100.85 61.1 105.05 62 112.8 63.15 118.9 64.05 122.6 65.15 129.4296875 67.1796875 140.15 73.4 140.7546875 72.7837890625 141.3 72.25 143.0326171875 70.5587890625 145.55 68.7 144.9078125 68.59453125 144.15 68.35 143.55 68.15 141.5 67.3 131.1787109375 62.9958984375 118.2 58.85
M 37.8 50.75
Q 37.85 51.15 37.1 51.7 30.7 56.05 24.55 60.95 24.55 60.5 25.2 59.95 30.8 55.25 37.8 50.75
M 206.35 129.6
Q 206.256640625 129.5095703125 206.15 129.4 210.1197265625 134.3525390625 213.75 139.45 227.5 158.7 232.25 174.6 236.7 189.7 245.5 200.7 250.7 207.2 262.8 219.6 271.4 229.25 272.55 230.65 277.75 236.9 278.55 240.1 279.05 242.05 279.25 248.7 279.8 254.85 282 256.7 282.661328125 257.2373046875 284.2 258.6
L 284.85 257.7
Q 285.05 257.4 285.3 257.4 285.55 257.75 285.25 258.15 284.85 258.55 284.7 258.75 284.6263671875 258.8236328125 284.55 258.9 288.64921875 262.56171875 298.25 271.4 302.1279296875 274.95390625 305.6 278.1 304.70625 276.6478515625 303.75 274.95 300.95 269.95 299.5 267.45 293.65 257.15 285.3 244.95 280.2 237.5 269.95 223.25
L 266.2 218.1
Q 267.2595703125 219.05625 268.3 220.1
L 268.25 220
Q 266.9 218 266.15 217 264.5705078125 215.315234375 263.65 214.1 263.01328125 213.5060546875 262.5 212.95 260.25 210.5 257.9 206.05 254.15 198.9 254 198.65 252.2 195.65 248.45 191.1 244.1 185.7 242.7 183.7 239.35 178.9 231.95 162.65 225.8 149.25 219.5 143.05 219.125 142.675 218.95 142.2 218.2376953125 142.022265625 217.55 141.4 216.95 140.85 215.95 139.45 214.25 137.1 211.4 134.3 208 131.2 206.35 129.6
M 233.9 0
Q 230.8314453125 2.5314453125 227.95 5.2 222.6 10.45 219.8 12.9 214.95 17.2 210.7 19.4 208.7 20.45 204.1 22.25 199.75 23.95 197.55 25.15 192.956640625 27.7421875 187.15 33.65 186.587890625 34.2759765625 186 34.9 176.9 44.95 172.2 49.8 164.05 58.3 157.2 63.25 152.3 66.55 149.85 68.2 145.55 71.15 142.95 73.6 142.499609375 74.03125 142 74.5 140.044140625 76.56875 137.7 79.6 134.55 83.9 132.85 86 131.771484375 87.348046875 128.85 90.55 130.3328125 89.4318359375 131.9 88.3 134.55 86.45 136.2 85.75 137.931640625 85.0765625 139.4 85 140.2314453125 83.998828125 141 82.95 143.7908203125 79.1689453125 145.65 76.7 147.89765625 73.73984375 148.75 72.75 153.1 67.65 155.55 67.65 156.690234375 67.65 161.5 70.2
L 158.6 66.9
Q 158.65 66.6 159.1 66.65 159.45 66.75 159.7 67 161.0822265625 68.478515625 162.4 69.9 162.35625 69.370703125 162.25 68.6 162 67.15 162 66.6 162 62.15 165.85 58.45 174.7 49.95 175.95 48.45 192.95 27.95 195.35 27.95 196.95 27.95 198.65 30.15 200.3 32.3 201.85 32.3 202.7 32.3 203.95 28.8 205.25 25.1 205.65 24.9 207.45 23.75 215.2 19.2 231.1 9.3 238.8 3.95 241.7392578125 1.9373046875 245.15 0
L 233.9 0
M 293.85 0
L 284.6 0
Q 280.5 1.3 277.1 2.4 270.45 4.6 268.45 5.65 265.25 7.35 264 11.9 263.3 14.45 262.35 19.2
L 262.35 19.65
Q 265.4 17.6 278.55 9.35 292.3 0.75 293.85 0
M 277.2 17.9
Q 274.718359375 19.4416015625 254.45 32.75 249.103125 37.4501953125 240.15 43.45 226.2 52.75 221 59.75 219.7 61.5 217.55 65.05 216.4875 66.7736328125 215.65 68.05 221.696484375 63.535546875 226.85 63.05 226.3490234375 62.4908203125 225.75 61.85 224.85 60.85 224.85 60.1 225.3 59.9 226 60.6
L 228.05 62.95
Q 229.5107421875 62.970703125 230.9 63.3 230.9 63.15 230.7 63 230.5435546875 62.8826171875 230.5 62.45
L 229.45 61.1
Q 229.5 60.95 229.7 61.15
L 230.5 62.1
Q 230.7255859375 56.807421875 252.7 38.05 264 28.4 277.2 17.9
M 305.65 45.5
Q 306.565625 45.0001953125 307.4 44.55 309.3515625 43.642578125 311.1 43.1 309.2 44.95 305.85 47.3 304.05 48.6 281.8 62.3 267.25 71.3 259.6 79.45 257.6 81.6 254.6 85.2 250.75 89.9 249.7 91.1 243.45 98.15 235.8 103.85 236.0099609375 103.4185546875 236.25 102.95 232.4771484375 107.4357421875 231.2 109.4 237.505859375 104.0259765625 249.45 97 264.45 88.2 270.45 88.2 271.196484375 88.2 272.5 88.7
L 267.1 81.45
Q 267.5 81.3 267.95 81.9 271.2 85.5052734375 274 89.35 275.1693359375 89.7423828125 275.9 89.55
L 275.45 89.55
Q 274.8521484375 88.2048828125 274.45 87.3 271.7560546875 84.169140625 269.95 81.85 270.9 81.75 272.05 83.1
L 273.35 84.6
Q 272.85 82.98515625 272.85 81.65 272.85 79.55 277.75 75 279.3 73.6 289.35 65.15 308 49.55 313.85 38.85 311.8390625 40.20625 305.65 45.5 Z"/>

<path fill="#E5CFA5" stroke="none" d="
M 120.55 90.7
L 120.55 90.85 120.1 90.95
Q 120.033203125 91.2837890625 119.95 91.45 119.8998046875 91.5501953125 119.85 91.6
L 119.55 91.85
Q 119.3 92 119.55 92.6
L 120.45 92.75
Q 120.75 92.85 120.75 93
L 122.05 93 122.4 92.95
Q 122.5724609375 92.8513671875 122.6 92.7 122.6513671875 92.552734375 122.55 92.35 122.5 92.15 122.15 91.8
L 121.8 91.4 120.55 90.7
M 111.15 88.85
L 110.95 88.8
Q 110.4 88.6 110.05 88.9 109.8 89.15 109.95 89.6 110.15 89.9 110.5 90.05
L 111.1 90.3
Q 111.35 90.5 111.75 90.95 111.85 91.05 112.1 91.1 112.35 91.2 112.35 91.4
L 114.75 91.5
Q 115.1 91.05 115.25 90.8 115.300390625 90.737109375 115.35 90.65 115.599609375 90.2623046875 115.25 90
L 114.95 89.85 114.35 89.4 113.15 89.25
Q 112.7 89.25 112.05 89.1 111.4203125 88.9201171875 111.15 88.85
M 106.65 88.3
L 106.45 88.7 106.4 88.8
Q 106.2 89.15 106.45 89.4
L 106.9 89.55 107.4 89.6
Q 108 89.7 108.4 89.5
L 108.75 89.1
Q 108.6197265625 88.8392578125 108.1 88.65 108.03515625 88.626171875 107.95 88.6 107.15 88.3 106.65 88.3
M 101.15 87.9
Q 101.1177734375 87.9697265625 101.1 88.05 101 88.35 101.3 88.8 101.5 89.1 101.7 89.15
L 102.1 89.25 103.85 89.4 103.95 89.65 105.15 89.75 105.65 88.85
Q 105.7365234375 88.6943359375 105.75 88.55 105.8203125 88.34453125 105.75 88.15 105.7248046875 88.1373046875 105.7 88.1 105.6369140625 88.07890625 105.55 88.05 104.4029296875 87.6638671875 103.9 87.5 103.5396484375 87.3697265625 103.5 87.35 102.7 87.1 102.65 87.1
L 102.65 87.25 101.75 87.5
Q 101.2982421875 87.5822265625 101.15 87.9
M 93.35 84.7
L 93.35 84.75
Q 93.3126953125 85.0296875 93.45 85.35 93.65 85.65 94.25 85.95 95.45 86.65 96.25 86.6 96.55 86.6 96.7 86.4 96.94453125 86.2533203125 96.85 85.95
L 96.85 85.95 95.3 84.75
Q 95.082421875 84.600390625 94.85 84.5 94.3095703125 84.2 93.8 84.2
L 93.8 84.3 93.7 84.3
Q 93.45 84.3 93.35 84.7 Z"/>

<path fill="#F8A497" stroke="none" d="
M 93.45 85.35
Q 93.3126953125 85.0296875 93.35 84.75 93.1107421875 84.741796875 92.95 84.65 92.758203125 84.458203125 92.6 84.3 92.3017578125 84.25 92.1 84.25 90.5365234375 84.25 89.25 84.2 89.4669921875 84.402734375 89.65 84.7 90.25 85.65 90.4 85.8 90.9 86.2 91.6 86.45
L 92.45 86.8
Q 93.35 87.2 93.45 87.25 93.9 87.5 94.6 88.2 95 88.6 94.75 88.8 94.15 88.95 93.55 88.8
L 93.55 88.55
Q 93.25 88.6 93 88.3 92.7 87.95 92.55 87.8
L 91.85 87.45
Q 90.55 86.85 89.95 86.35 89.5 86 88.75 85.15 88.3 84.7 88.35 84.3 88.35 84.2291015625 88.35 84.15 86.1869140625 84.079296875 84.9 83.85 87.03203125 87.8544921875 89.2 88.75 90.15 89.1 94.5 89.1 95.01796875 89.1 95.35 89.4
L 95.5 89.2 95.6 88.9
Q 95.65 88.55 96.05 88.05 96.35 87.85 96.5 87.9
L 96.5 87.8 97.05 87.9
Q 97 88.3 96.65 88.65
L 96.4 88.95 96.4 89.15
Q 96.35 89.3 96.15 89.4
L 95.85 89.85 95.8 89.9
Q 95.8234375 89.9470703125 95.85 90 96.4 91.2 96.45 91.25
L 96.65 91.25
Q 96.7875 90.7208984375 97.25 89.95 97.5 89.6 97.55 89.55 97.75 89.45 97.7 89.3
L 97.95 89.3
Q 98.05 89.55 98 89.65
L 97.9 89.85 97.2 90.75
Q 97.2 91.2275390625 97.1 91.45 97.2060546875 91.5560546875 97.3 91.65
L 98.15 90.8
Q 99.1 89.9 99.5 89.9 100.7271484375 89.9 102.5 90.75 103.87265625 90.8076171875 104.45 91
L 106 91.7
Q 106.4 91.9 107.15 92.2 107.85 92.5 108.2 92.85 107.9080078125 93.1419921875 107.55 93.2 107.7015625 93.5705078125 107.65 93.9 108.4353515625 94.395703125 108.95 94.65 108.9318359375 94.27578125 108.8 94.1
L 108.65 93.8
Q 108.65 93.35 108.6 93.15
L 109.05 93.15
Q 109.15 93.5 109.3 93.6 109.45 93.75 109.45 93.8
L 109.5 94.05 109.5 94.95
Q 109.837109375 95.15 109.95 95.15 110.95 95.15 111.75 94.1 111.92890625 93.85390625 112.1 93.65 111.9998046875 93.6345703125 111.9 93.6 111.75 93.15 112 92.7
L 113 92.65
Q 114.2 92.85 114.95 93.15 114.933203125 93.200390625 114.9 93.25 117.0181640625 93.8091796875 120.5 95.55 120.9341796875 95.77109375 121.35 95.95 121.5908203125 95.6279296875 121.9 95.25 122.723828125 94.2498046875 124.1 92.75 123.5935546875 92.3125 123.1 91.9 123.503125 92.298828125 123.8 92.8
L 123.55 93.05 122.6 92.7
Q 122.5724609375 92.8513671875 122.4 92.95
L 122.05 93 120.75 93
Q 120.75 92.85 120.45 92.75
L 119.55 92.6
Q 119.3 92 119.55 91.85
L 119.85 91.6
Q 119.8998046875 91.5501953125 119.95 91.45 119.615625 91.3220703125 119.25 91.15
L 118.95 90.9
Q 118.85 90.7 118.95 90.55 119 90.35 119.2 90.35 119.5 90.3 120.45 90.65
L 121.55 91
Q 122.090625 91.1677734375 122.55 91.45 120.073046875 89.55 118.7 89.55 118.15 89.55 117.3 89.95 117.13359375 90.0283203125 116.95 90.1 117.203515625 90.420703125 117.35 90.75 117.55 91.35 117.35 91.75 116.6 92.1 115.75 91.15 115.50703125 90.8767578125 115.35 90.65 115.300390625 90.737109375 115.25 90.8 115.1 91.05 114.75 91.5
L 112.35 91.4
Q 112.35 91.2 112.1 91.1 111.85 91.05 111.75 90.95 111.35 90.5 111.1 90.3
L 110.5 90.05
Q 110.15 89.9 109.95 89.6 109.8 89.15 110.05 88.9 110.4 88.6 110.95 88.8
L 111.15 88.85
Q 111.15 88.5380859375 111.4 88.25 110.255859375 87.75 109.5 87.75 108.9 87.75 108.1 88.2
L 108.05 88.2
Q 108.1322265625 88.4482421875 108.1 88.65 108.6197265625 88.8392578125 108.75 89.1
L 108.4 89.5
Q 108 89.7 107.4 89.6
L 106.9 89.55 106.45 89.4
Q 106.2 89.15 106.4 88.8
L 106.45 88.7
Q 106.3984375 88.6646484375 106.35 88.6 106.076171875 88.6068359375 105.75 88.55 105.7365234375 88.6943359375 105.65 88.85
L 105.15 89.75 103.95 89.65 103.85 89.4 102.1 89.25 101.7 89.15
Q 101.5 89.1 101.3 88.8 101 88.35 101.1 88.05 101.1177734375 87.9697265625 101.15 87.9 101.005859375 87.871875 100.85 87.8 100.65 87.4 100.8 86.9 99.4939453125 86.45 98.8 86.45 98.7333984375 86.45 98.65 86.45 98.6337890625 86.52265625 98.6 86.6 98.15 86.85 97.6 86.55 97.4166015625 86.458203125 96.95 86 96.9025390625 85.9818359375 96.85 85.95 96.94453125 86.2533203125 96.7 86.4 96.55 86.6 96.25 86.6 95.45 86.65 94.25 85.95 93.65 85.65 93.45 85.35
M 119.75 94.15
L 119.65 94.45 118.55 94.55
Q 118.45 94.3 118.2 94.2
L 117.7 94 117.7 93.7 117.9 93.6 117.9 93.45 118.8 93.65
Q 119.15 93.8 119.75 94.15
M 108.4 91.4
Q 108.35 91.2 108.05 90.9 107.7 90.6 107.65 90.4 107.55 90.15 107.75 89.9
L 107.85 89.8 108.05 89.7
Q 108.75 89.45 109.2 89.65 109.55 89.85 109.65 90.3 109.7 90.7 109.3 91.4
L 108.4 91.4 Z"/>
</g>
</defs>

<g transform="matrix( 1, 0, 0, 1, 0,0) ">
<use xlink:href="#Layer0_0_FILL"/>
</g>
</svg>
