
<svg xmlns="http://www.w3.org/2000/svg" version="1.1" xmlns:xlink="http://www.w3.org/1999/xlink" preserveAspectRatio="none" x="0px" y="0px" width="325px" height="350px" viewBox="0 0 325 350">
<defs>
<g id="Layer0_0_MEMBER_0_FILL">
<path fill="#B8BE79" stroke="none" d="
M 111 73.2
Q 101.05 83.15 101.05 97.25 101.05 111.35 111 121.3 120.95 131.25 135.05 131.25 149.15 131.25 159.1 121.3 169.05 111.35 169.05 97.25 169.05 83.15 159.1 73.2 149.15 63.25 135.05 63.25 120.95 63.25 111 73.2 Z"/>
</g>

<g id="Layer0_0_MEMBER_1_FILL">
<path fill="#FFFFFF" stroke="none" d="
M 89.4 10.95
L 89.15 10.7
Q 80.9 2.5 69.2 2.5 57.55 2.5 49.25 10.7
L 10.35 49.5
Q 2.2 57.7 2.5 69.45 2.85 81.05 11.15 89.35 19.45 97.55 31.15 97.55 42.8 97.55 51.1 89.35
L 89.15 50.5
Q 97.4 42.35 97.45 30.75 97.55 19.15 89.4 10.95
M 89.4 30.85
Q 89.3 39.05 83.5 44.85
L 68.4 59.95
Q 66.95 61.35 64.95 61.35 62.95 61.35 61.5 59.95
L 39.75 38.3
Q 38.35 36.9 38.35 34.95 38.35 32.95 39.75 31.55
L 39.75 31.5 54.7 16.75
Q 60.75 10.7 69.35 10.7 78 10.65 83.8 16.75 89.5 22.65 89.4 30.85 Z"/>
</g>

<g id="Layer0_1_FILL">
<path fill="#0178B7" stroke="none" d="
M 263.35 292.05
Q 263.35 284.85 258.25 279.75 253.2 274.7 246 274.7 238.8 274.7 233.7 279.75 228.65 284.85 228.65 292.05 228.65 299.25 233.7 304.3 238.8 309.4 246 309.4 253.2 309.4 258.25 304.3 263.35 299.25 263.35 292.05 Z"/>
</g>

<g id="Layer0_2_FILL">
<path fill="#FFFFFF" stroke="none" d="
M 61.15 62.95
Q 61.15 62.2 60.85 61.5 60.55 60.8 60 60.3 59.4 59.8 58.55 59.5 57.7 59.15 56.65 59.15 55.65 59.15 54.75 59.45 53.9 59.7 53.25 60.25 52.55 60.8 52.1 61.6 51.65 62.4 51.5 63.5
L 53.1 63.8
Q 53.75 63.9 54.1 63.7 54.45 63.5 54.65 62.95 54.8 62.45 55.3 62.05 55.75 61.7 56.45 61.7 57.3 61.7 57.75 62.15 58.15 62.65 58.15 63.5
L 58.05 64.25
Q 57.95 64.6 57.65 64.85 57.35 65.1 56.75 65.25 56.2 65.4 55.3 65.4
L 55.3 67.5
Q 56.4 67.5 57 67.65 57.6 67.8 57.9 68.1 58.2 68.35 58.25 68.7
L 58.3 69.55
Q 58.3 69.95 58.2 70.3 58.05 70.65 57.8 70.9 57.55 71.2 57.15 71.35 56.8 71.55 56.25 71.55 55.6 71.55 55.05 71.15 54.55 70.8 54.1 69.95 53.9 69.6 53.45 69.5 53 69.4 52.45 69.6
L 51.1 70.15
Q 51.45 71.2 51.9 71.9 52.4 72.65 53 73.15 53.65 73.6 54.45 73.85 55.25 74.05 56.3 74.05 57.3 74.05 58.25 73.75 59.15 73.5 59.9 72.9 60.6 72.35 61 71.5 61.4 70.65 61.4 69.45 61.4 67 59 66.15 59.5 66 59.95 65.75 60.35 65.45 60.6 65.05 60.9 64.7 61 64.15 61.15 63.65 61.15 62.95 Z"/>
</g>
</defs>

<g transform="matrix( 1, 0, 0, 1, -101.05,-63.25) ">
<use xlink:href="#Layer0_0_MEMBER_0_FILL"/>
</g>

<g transform="matrix( 0.420806884765625, 0, 0, 0.420806884765625, 13,12.95) ">
<use xlink:href="#Layer0_0_MEMBER_1_FILL"/>
</g>

<g transform="matrix( 1, 0, 0, 1, -189.45,-225.3) ">
<use xlink:href="#Layer0_1_FILL"/>
</g>

<g transform="matrix( 1, 0, 0, 1, 0,0) ">
<use xlink:href="#Layer0_2_FILL"/>
</g>
</svg>
