<?xml version="1.0" encoding="UTF-8"?>
<svg xmlns="http://www.w3.org/2000/svg" viewBox="0 0 220 35">
  <defs>
    <style>
      .cls-1 {
        fill: #94a26e;
      }
    </style>
  </defs>
  <g id="Camada_1" data-name="Camada 1">
    <polygon class="cls-1" points="98.28 24.32 90.6 19.89 90.6 22.14 50.83 22.14 50.83 26.5 90.6 26.5 90.6 28.75 98.28 24.32"/>
    <polygon class="cls-1" points="185.78 24.32 178.1 19.89 178.1 22.14 138.33 22.14 138.33 26.5 178.1 26.5 178.1 28.75 185.78 24.32"/>
  </g>
  <g id="Camada_3" data-name="Camada 3">
    <g>
      <path d="M3.8,22.28v1.71h2.17v.86h-2.17v2.36h-1.08v-5.78h3.65v.86h-2.57Z"/>
      <path d="M11.73,27.21h-.83c-.09,0-.17-.02-.23-.07-.06-.05-.1-.1-.13-.17l-.43-1.18h-2.4l-.43,1.18c-.02.06-.06.12-.12.17s-.14.08-.23.08h-.84l2.28-5.78h1.1l2.27,5.78ZM9.83,25.03l-.7-1.92c-.03-.09-.07-.19-.11-.3-.04-.12-.07-.24-.11-.38-.03.14-.07.26-.11.38s-.07.22-.11.31l-.7,1.92h1.84ZM10.59,19.77l-1.3,1.14c-.05.05-.1.08-.15.09-.05.01-.11.02-.18.02h-.72l.84-1.08s.05-.07.08-.09c.03-.02.06-.04.09-.05.03-.01.07-.02.11-.02.04,0,.08,0,.14,0h1.1Z"/>
      <path d="M16.85,27.21h-.97c-.18,0-.32-.07-.4-.22l-1.22-1.85c-.04-.07-.1-.12-.15-.15s-.14-.04-.24-.04h-.46v2.26h-1.08v-5.78h1.76c.39,0,.73.04,1.01.12.28.08.51.2.69.34.18.15.31.32.4.53.09.2.13.43.13.67,0,.19-.03.38-.09.55-.06.17-.14.33-.25.47-.11.14-.24.26-.4.37-.16.11-.34.19-.54.25.07.04.13.09.19.14.06.05.11.12.16.19l1.45,2.14ZM14.08,24.18c.2,0,.38-.03.53-.08.15-.05.27-.12.37-.21.1-.09.17-.2.22-.32.05-.12.07-.26.07-.4,0-.29-.1-.52-.29-.68-.19-.16-.49-.24-.89-.24h-.69v1.92h.67Z"/>
      <path d="M23.75,21.42v5.78h-.95v-3.74c0-.15,0-.31.02-.48l-1.75,3.28c-.08.16-.21.24-.38.24h-.15c-.17,0-.3-.08-.38-.24l-1.77-3.3c0,.09.01.17.02.26,0,.08,0,.16,0,.24v3.74h-.95v-5.78h.81s.09,0,.12,0c.03,0,.07,0,.09.02.03.01.05.03.08.05s.04.06.07.1l1.73,3.21c.05.09.09.17.13.26s.08.18.11.28c.04-.1.08-.19.12-.29.04-.09.08-.18.13-.27l1.71-3.2s.04-.07.07-.1.05-.04.08-.05c.03-.01.06-.02.09-.02.03,0,.08,0,.12,0h.81Z"/>
      <path d="M29.99,27.21h-.83c-.09,0-.17-.02-.23-.07-.06-.05-.1-.1-.13-.17l-.43-1.18h-2.4l-.43,1.18c-.02.06-.06.12-.12.17s-.14.08-.23.08h-.84l2.28-5.78h1.1l2.27,5.78ZM28.09,25.03l-.7-1.92c-.03-.09-.07-.19-.11-.3-.04-.12-.07-.24-.11-.38-.03.14-.07.26-.11.38s-.07.22-.11.31l-.7,1.92h1.84Z"/>
      <path d="M34.39,25.84c.06,0,.11.02.16.07l.42.46c-.23.29-.52.51-.87.67s-.75.23-1.23.23c-.43,0-.82-.07-1.16-.22s-.64-.35-.88-.61c-.24-.26-.43-.57-.56-.94s-.19-.76-.19-1.19.07-.83.21-1.19.33-.67.59-.93.55-.46.9-.61c.35-.15.74-.22,1.16-.22s.8.07,1.12.21.6.32.83.54l-.36.5s-.05.06-.08.08c-.03.02-.08.04-.14.04-.04,0-.08-.01-.12-.03-.04-.02-.09-.05-.14-.08-.05-.03-.11-.07-.18-.11-.07-.04-.14-.08-.23-.11-.09-.03-.19-.06-.31-.08s-.25-.03-.4-.03c-.26,0-.5.05-.71.14-.21.09-.4.23-.55.4s-.27.39-.36.64c-.09.25-.13.54-.13.86s.05.61.14.87c.09.25.22.47.37.64.16.17.34.31.56.4.21.09.44.14.69.14.15,0,.28,0,.4-.02s.23-.04.33-.08c.1-.03.19-.08.28-.13.09-.05.18-.12.27-.2.03-.02.05-.04.08-.06s.06-.02.09-.02Z"/>
      <path d="M41.1,24.32c0,.42-.07.82-.21,1.18-.14.36-.34.67-.59.94-.26.26-.56.47-.92.62-.36.15-.76.22-1.2.22s-.84-.07-1.2-.22c-.36-.15-.67-.35-.93-.62-.26-.26-.46-.58-.6-.94-.14-.36-.21-.75-.21-1.18s.07-.82.21-1.18c.14-.36.34-.67.6-.94.26-.26.57-.47.93-.62.36-.15.76-.22,1.2-.22.29,0,.57.03.83.1s.5.16.71.29.41.27.58.45.32.38.44.59.21.46.27.71.09.53.09.81ZM40,24.32c0-.32-.04-.6-.13-.85-.09-.25-.21-.47-.36-.64-.16-.18-.35-.31-.57-.4-.23-.09-.48-.14-.76-.14s-.54.05-.76.14c-.23.09-.42.23-.58.4-.16.18-.28.39-.37.64s-.13.54-.13.85.04.6.13.85.21.47.37.64c.16.17.35.31.58.4.23.09.48.14.76.14s.54-.05.76-.14c.23-.09.42-.23.57-.4.16-.17.28-.39.36-.64.08-.25.13-.54.13-.85Z"/>
    </g>
    <g>
      <path d="M111.65,22.28v1.71h2.17v.86h-2.17v2.36h-1.08v-5.78h3.65v.86h-2.57Z"/>
      <path d="M114.3,23.68c.47-.43,1.04-.65,1.7-.65.24,0,.45.04.64.12s.35.19.48.33c.13.14.23.31.3.5.07.2.1.41.1.64v2.59h-.45c-.09,0-.17-.01-.22-.04s-.09-.08-.12-.17l-.09-.3c-.1.09-.21.17-.3.25-.1.07-.2.13-.31.18-.11.05-.22.08-.34.11-.12.03-.25.04-.4.04-.17,0-.33-.02-.48-.07s-.27-.12-.38-.21c-.11-.09-.19-.21-.25-.35-.06-.14-.09-.3-.09-.48,0-.1.02-.21.05-.31.04-.1.09-.2.17-.29.08-.09.18-.18.31-.26.12-.08.28-.15.46-.22s.4-.11.64-.15c.24-.04.52-.06.83-.07v-.24c0-.27-.06-.48-.18-.61s-.29-.2-.51-.2c-.16,0-.29.02-.4.06s-.2.08-.28.13-.15.09-.22.13-.14.06-.22.06c-.07,0-.13-.02-.18-.05s-.09-.08-.12-.13l-.18-.32ZM116.57,25.46c-.29.01-.53.04-.72.07-.2.04-.35.08-.47.14-.12.06-.2.12-.25.2-.05.07-.08.16-.08.24,0,.17.05.3.15.37.1.07.24.11.4.11.2,0,.38-.04.53-.11.15-.07.29-.18.43-.33v-.69Z"/>
      <path d="M120.96,23.91s-.05.07-.08.09-.07.03-.11.03-.1-.01-.15-.04c-.05-.03-.12-.06-.19-.09-.07-.03-.15-.06-.25-.09-.09-.03-.2-.04-.33-.04-.19,0-.35.04-.46.12-.11.08-.17.19-.17.32,0,.09.03.16.09.22.06.06.13.11.23.16.09.05.2.09.32.12s.24.08.37.12.25.09.37.15.23.12.32.21.17.18.23.3c.06.12.09.26.09.42,0,.2-.04.38-.11.55s-.18.31-.31.43c-.14.12-.31.22-.51.28s-.44.1-.71.1c-.14,0-.28-.01-.41-.04s-.26-.06-.39-.11c-.12-.04-.24-.1-.34-.16-.11-.06-.2-.13-.28-.2l.23-.38s.06-.08.1-.1c.04-.02.09-.04.15-.04s.12.02.17.05c.05.04.12.07.19.11.07.04.16.08.25.11.1.03.22.05.37.05.12,0,.22-.01.3-.04s.15-.06.21-.11c.05-.04.09-.1.12-.16.03-.06.04-.12.04-.19,0-.1-.03-.17-.09-.24-.06-.06-.13-.11-.23-.16-.09-.05-.2-.09-.32-.12-.12-.04-.25-.08-.37-.12-.13-.04-.25-.09-.37-.15s-.23-.13-.32-.22-.17-.2-.23-.32-.09-.28-.09-.46c0-.17.03-.33.1-.48.07-.15.17-.28.29-.4.13-.11.29-.2.48-.27s.42-.1.67-.1c.28,0,.54.05.77.14.23.09.42.22.58.37l-.22.36Z"/>
      <path d="M122.74,25.28c.02.21.05.39.11.55s.14.28.23.38c.1.1.21.17.34.22.13.05.28.07.44.07s.3-.02.41-.06c.12-.04.22-.08.3-.12.09-.05.16-.09.23-.12s.13-.06.19-.06c.08,0,.14.03.18.09l.28.36c-.11.13-.23.24-.37.32-.14.09-.28.16-.43.21-.15.05-.3.09-.45.11-.15.02-.3.03-.45.03-.29,0-.55-.05-.8-.14-.25-.09-.46-.23-.64-.42s-.32-.42-.43-.69c-.1-.27-.16-.59-.16-.95,0-.28.04-.54.14-.79.09-.25.22-.46.39-.64.17-.18.38-.33.62-.43.24-.11.52-.16.83-.16.26,0,.5.04.72.12.22.08.41.2.56.36.16.16.28.35.37.58.09.23.13.49.13.79,0,.15-.02.25-.05.3s-.09.08-.18.08h-2.54ZM124.62,24.68c0-.13-.02-.25-.05-.36-.04-.11-.09-.21-.16-.3-.07-.09-.16-.15-.27-.2-.11-.05-.24-.07-.39-.07-.29,0-.51.08-.67.24-.16.16-.27.39-.31.69h1.86Z"/>
      <path d="M129.43,27.21h-1.08v-5.78h1.08v5.78Z"/>
    </g>
    <g>
      <path d="M196.1,22.28v1.71h2.17v.86h-2.17v2.36h-1.08v-5.78h3.65v.86h-2.57Z"/>
      <path d="M198.76,23.68c.47-.43,1.04-.65,1.7-.65.24,0,.46.04.64.12.19.08.35.19.48.33.13.14.23.31.3.5.07.2.1.41.1.64v2.59h-.45c-.09,0-.17-.01-.22-.04s-.09-.08-.12-.17l-.09-.3c-.1.09-.21.17-.3.25-.1.07-.2.13-.31.18s-.22.08-.34.11-.26.04-.4.04c-.17,0-.33-.02-.48-.07-.15-.05-.27-.12-.38-.21-.11-.09-.19-.21-.25-.35-.06-.14-.09-.3-.09-.48,0-.1.02-.21.05-.31.03-.1.09-.2.17-.29.08-.09.18-.18.31-.26s.28-.15.46-.22.4-.11.64-.15c.24-.04.52-.06.83-.07v-.24c0-.27-.06-.48-.18-.61s-.29-.2-.51-.2c-.16,0-.29.02-.4.06-.11.04-.2.08-.28.13s-.15.09-.22.13-.14.06-.22.06c-.07,0-.13-.02-.18-.05s-.09-.08-.12-.13l-.18-.32ZM201.02,25.46c-.29.01-.52.04-.72.07-.19.04-.35.08-.47.14s-.2.12-.25.2c-.05.07-.08.16-.08.24,0,.17.05.3.15.37.1.07.24.11.4.11.2,0,.38-.04.53-.11.15-.07.29-.18.43-.33v-.69Z"/>
      <path d="M205.42,23.91s-.05.07-.08.09c-.03.02-.07.03-.11.03-.05,0-.1-.01-.15-.04-.05-.03-.12-.06-.19-.09-.07-.03-.15-.06-.25-.09-.09-.03-.2-.04-.33-.04-.19,0-.35.04-.46.12-.11.08-.17.19-.17.32,0,.09.03.16.09.22.06.06.13.11.23.16.09.05.2.09.32.12s.24.08.37.12.25.09.37.15.23.12.32.21.17.18.23.3c.06.12.09.26.09.42,0,.2-.04.38-.11.55-.07.17-.17.31-.31.43-.14.12-.31.22-.51.28-.2.07-.44.1-.71.1-.14,0-.28-.01-.41-.04s-.26-.06-.39-.11c-.12-.04-.24-.1-.34-.16s-.2-.13-.28-.2l.23-.38s.06-.08.1-.1c.04-.02.09-.04.15-.04s.12.02.17.05c.05.04.12.07.19.11s.16.08.25.11c.1.03.22.05.37.05.12,0,.22-.01.3-.04s.15-.06.21-.11c.05-.04.09-.1.12-.16.03-.06.04-.12.04-.19,0-.1-.03-.17-.09-.24-.06-.06-.13-.11-.23-.16-.09-.05-.2-.09-.32-.12-.12-.04-.25-.08-.37-.12-.13-.04-.25-.09-.37-.15-.12-.06-.23-.13-.32-.22s-.17-.2-.23-.32c-.06-.13-.09-.28-.09-.46,0-.17.03-.33.1-.48.07-.15.16-.28.29-.4.13-.11.29-.2.48-.27s.42-.1.67-.1c.28,0,.54.05.77.14s.43.22.58.37l-.22.36Z"/>
      <path d="M207.19,25.28c.02.21.05.39.11.55s.14.28.23.38c.1.1.21.17.34.22.13.05.28.07.44.07s.3-.02.41-.06.22-.08.3-.12c.09-.05.16-.09.23-.12s.13-.06.19-.06c.08,0,.14.03.18.09l.28.36c-.11.13-.23.24-.37.32s-.28.16-.43.21c-.15.05-.3.09-.45.11-.15.02-.3.03-.45.03-.29,0-.55-.05-.8-.14s-.46-.23-.64-.42c-.18-.19-.32-.42-.43-.69-.1-.27-.16-.59-.16-.95,0-.28.04-.54.14-.79.09-.25.22-.46.39-.64.17-.18.38-.33.62-.43.24-.11.52-.16.83-.16.26,0,.5.04.72.12.22.08.41.2.56.36.16.16.28.35.37.58.09.23.13.49.13.79,0,.15-.02.25-.05.3-.03.05-.09.08-.18.08h-2.54ZM209.07,24.68c0-.13-.02-.25-.05-.36s-.09-.21-.16-.3c-.07-.09-.16-.15-.27-.2-.11-.05-.24-.07-.39-.07-.29,0-.51.08-.67.24-.16.16-.27.39-.31.69h1.86Z"/>
      <path d="M213.88,27.21h-1.08v-5.78h1.08v5.78Z"/>
      <path d="M216.25,27.21h-1.08v-5.78h1.08v5.78Z"/>
    </g>
    <g>
      <path d="M60.18,9.64c0,.43-.07.82-.2,1.18-.14.36-.33.67-.58.93s-.55.46-.89.6-.73.21-1.15.21-.81-.07-1.15-.21-.64-.34-.89-.6c-.25-.26-.44-.57-.58-.93-.14-.36-.2-.75-.2-1.18s.07-.82.2-1.18c.14-.36.33-.67.58-.93.25-.26.55-.46.89-.61s.73-.22,1.15-.22.81.07,1.15.22.65.35.89.61c.25.26.44.57.58.93.14.36.2.75.2,1.18ZM59.38,9.64c0-.35-.05-.67-.14-.95-.1-.28-.23-.52-.41-.71-.18-.19-.39-.34-.64-.45s-.53-.16-.84-.16-.59.05-.84.16c-.25.1-.46.25-.64.45-.18.19-.31.43-.41.71-.1.28-.14.6-.14.95s.05.67.14.95.23.51.41.71c.18.19.39.34.64.44.25.1.53.15.84.15s.59-.05.84-.15.46-.25.64-.44c.18-.19.31-.43.41-.71.1-.28.14-.59.14-.95Z"/>
      <path d="M64.32,12.5h-.68c-.06,0-.1-.02-.14-.05-.03-.03-.06-.06-.08-.1l-1.02-1.59s-.02.07-.03.11c-.01.04-.03.07-.05.1l-.94,1.38s-.06.07-.09.1-.07.05-.13.05h-.64l1.42-2.08-1.36-1.97h.68c.06,0,.1,0,.13.03.03.02.05.05.07.08l1,1.52c.02-.08.05-.15.1-.22l.87-1.28s.05-.07.08-.09c.03-.02.06-.03.1-.03h.66l-1.36,1.94,1.42,2.12Z"/>
      <path d="M65.88,7.18c0,.07-.01.13-.04.19-.03.06-.06.11-.11.16-.05.05-.1.08-.16.11-.06.03-.13.04-.2.04s-.13-.01-.19-.04c-.06-.03-.11-.06-.16-.11-.05-.05-.08-.1-.11-.16-.03-.06-.04-.12-.04-.19s.01-.14.04-.2c.03-.06.06-.12.11-.16.05-.05.1-.08.16-.11.06-.03.12-.04.19-.04s.14.01.2.04c.06.03.12.06.16.11.05.05.08.1.11.16.03.06.04.13.04.2ZM65.73,8.45v4.05h-.71v-4.05h.71Z"/>
      <path d="M70.25,6.61v5.89h-.42c-.1,0-.17-.05-.19-.15l-.06-.49c-.17.21-.37.38-.59.5s-.48.19-.77.19c-.23,0-.44-.04-.63-.13-.19-.09-.35-.22-.48-.39-.13-.17-.24-.39-.31-.65-.07-.26-.11-.56-.11-.89,0-.3.04-.58.12-.83.08-.26.19-.48.34-.67s.33-.34.55-.45c.22-.11.46-.16.73-.16.25,0,.46.04.64.13s.34.2.47.35v-2.24h.71ZM69.54,9.41c-.13-.18-.28-.3-.43-.37s-.33-.11-.52-.11c-.38,0-.67.13-.87.4s-.3.65-.3,1.15c0,.26.02.49.07.68.05.19.11.34.2.46.09.12.2.21.32.27.13.06.27.08.44.08.23,0,.44-.05.61-.16.17-.11.33-.26.48-.45v-1.96Z"/>
      <path d="M71.27,9.02c.22-.22.47-.38.72-.48.26-.11.55-.16.86-.16.23,0,.43.04.6.11.18.08.32.18.44.31.12.13.21.29.27.48.06.19.09.4.09.62v2.59h-.32c-.07,0-.12-.01-.16-.03-.04-.02-.07-.07-.09-.13l-.08-.38c-.11.1-.21.19-.31.26-.1.08-.21.14-.32.19-.11.05-.23.09-.36.12-.13.03-.27.04-.42.04s-.31-.02-.44-.07-.26-.11-.36-.2c-.1-.09-.18-.2-.24-.33s-.09-.29-.09-.48c0-.16.04-.31.13-.46.09-.15.23-.28.43-.39.2-.11.45-.21.77-.28.32-.07.71-.12,1.17-.13v-.32c0-.31-.07-.55-.2-.71-.14-.16-.33-.24-.6-.24-.18,0-.32.02-.44.07s-.22.09-.31.15-.16.1-.22.15c-.06.04-.12.07-.19.07-.05,0-.09-.01-.12-.04s-.06-.06-.09-.09l-.13-.23ZM73.57,10.68c-.33.01-.61.04-.84.08-.23.04-.42.1-.56.16s-.25.15-.32.24-.1.19-.1.3c0,.11.02.2.05.28.03.08.08.14.14.19.06.05.13.09.21.11.08.02.17.03.26.03.13,0,.24-.01.34-.04s.2-.06.29-.11.18-.11.26-.17.17-.14.25-.23v-.84Z"/>
      <path d="M78.41,11.93c-.15.19-.34.33-.56.43s-.46.16-.71.18l-.07.26c.25.05.43.12.54.22.11.09.16.21.16.36,0,.08-.02.16-.06.23s-.1.13-.18.18c-.08.05-.17.08-.27.11-.1.03-.22.04-.35.04-.11,0-.21-.01-.31-.03-.1-.02-.19-.05-.27-.09l.06-.22s.05-.07.09-.07c.02,0,.03,0,.06.01.02,0,.05.02.08.03.03.01.07.02.11.03.04,0,.09.01.15.01.11,0,.2-.02.25-.07.06-.05.08-.1.08-.17,0-.1-.06-.17-.17-.21-.11-.04-.27-.08-.47-.1l.16-.5c-.23-.02-.45-.08-.64-.19-.2-.1-.37-.24-.51-.42-.14-.18-.25-.39-.33-.64-.08-.25-.12-.52-.12-.83s.04-.58.13-.84.21-.48.37-.66c.16-.18.36-.33.6-.43.24-.1.51-.16.81-.16.29,0,.54.05.75.14.22.09.41.22.58.39l-.19.26s-.04.05-.06.07c-.02.02-.05.02-.09.02-.04,0-.08-.02-.13-.05-.05-.03-.11-.07-.18-.11s-.16-.08-.26-.11c-.1-.03-.23-.05-.38-.05-.2,0-.38.04-.53.11-.15.07-.28.17-.38.31-.1.13-.18.29-.23.48-.05.19-.08.4-.08.64,0,.25.03.46.08.65s.14.35.24.48c.1.13.23.23.37.3.15.07.31.1.49.1s.32-.02.43-.06c.11-.04.21-.09.28-.14s.13-.1.18-.14.1-.06.15-.06c.06,0,.1.02.14.07l.2.26Z"/>
      <path d="M79.07,9.02c.22-.22.47-.38.72-.48.26-.11.55-.16.86-.16.23,0,.43.04.6.11.18.08.32.18.44.31.12.13.21.29.27.48.06.19.09.4.09.62v2.59h-.32c-.07,0-.12-.01-.16-.03-.04-.02-.07-.07-.09-.13l-.08-.38c-.11.1-.21.19-.31.26-.1.08-.21.14-.32.19-.11.05-.23.09-.36.12-.13.03-.27.04-.42.04s-.31-.02-.44-.07-.26-.11-.36-.2c-.1-.09-.18-.2-.24-.33s-.09-.29-.09-.48c0-.16.04-.31.13-.46.09-.15.23-.28.43-.39.2-.11.45-.21.77-.28.32-.07.71-.12,1.17-.13v-.32c0-.31-.07-.55-.2-.71-.14-.16-.33-.24-.6-.24-.18,0-.32.02-.44.07s-.22.09-.31.15-.16.1-.22.15c-.06.04-.12.07-.19.07-.05,0-.09-.01-.12-.04s-.06-.06-.09-.09l-.13-.23ZM81.01,7.2c.1,0,.17-.03.22-.08.05-.06.08-.14.08-.26h.43c0,.13-.02.24-.05.35s-.08.2-.14.27-.14.13-.22.17c-.09.04-.18.06-.29.06-.09,0-.18-.02-.26-.06-.08-.04-.16-.08-.23-.13-.07-.05-.14-.09-.2-.13s-.13-.06-.19-.06c-.19,0-.29.12-.3.35h-.44c0-.13.02-.24.05-.35.03-.1.08-.2.15-.27.06-.08.14-.13.23-.18s.18-.06.29-.06c.09,0,.18.02.26.06.08.04.16.08.23.13.07.05.14.09.2.13s.12.06.19.06ZM81.37,10.68c-.33.01-.61.04-.84.08-.23.04-.42.1-.56.16s-.25.15-.32.24-.1.19-.1.3c0,.11.02.2.05.28.03.08.08.14.14.19.06.05.13.09.21.11.08.02.17.03.26.03.13,0,.24-.01.34-.04s.2-.06.29-.11.18-.11.26-.17.17-.14.25-.23v-.84Z"/>
      <path d="M84.86,8.38c.3,0,.56.05.8.15s.44.24.61.42.3.4.39.66c.09.26.13.54.13.86s-.04.61-.13.86-.22.47-.39.66-.37.32-.61.42c-.24.1-.5.15-.8.15s-.57-.05-.81-.15c-.24-.1-.44-.24-.61-.42s-.3-.4-.39-.66c-.09-.26-.13-.54-.13-.86s.04-.6.13-.86c.09-.26.22-.48.39-.66s.37-.32.61-.42c.24-.1.51-.15.81-.15ZM84.86,12c.4,0,.7-.13.9-.4.2-.27.3-.64.3-1.12s-.1-.86-.3-1.13c-.2-.27-.5-.4-.9-.4-.2,0-.38.03-.53.1-.15.07-.28.17-.38.3-.1.13-.17.29-.22.48s-.07.41-.07.65c0,.48.1.85.3,1.12.2.27.5.4.91.4Z"/>
    </g>
    <g>
      <path d="M145.11,11.32s.08.02.11.05l.31.33c-.23.27-.52.48-.85.64-.33.15-.74.23-1.21.23-.41,0-.78-.07-1.12-.21-.34-.14-.62-.34-.86-.6-.24-.26-.42-.57-.55-.93-.13-.36-.2-.76-.2-1.19s.07-.83.2-1.19c.14-.36.33-.67.57-.93.25-.26.54-.46.89-.6.34-.14.72-.21,1.14-.21s.77.07,1.08.2c.31.13.59.31.82.53l-.26.36s-.04.05-.06.07c-.03.02-.06.03-.1.03-.05,0-.11-.03-.18-.08-.07-.05-.16-.11-.27-.17-.11-.06-.25-.12-.42-.17-.17-.05-.37-.08-.62-.08-.3,0-.57.05-.81.15-.25.1-.46.25-.63.45s-.32.43-.41.71c-.1.28-.15.6-.15.95s.05.68.15.96c.1.28.24.52.42.71s.39.34.63.44.5.15.78.15c.17,0,.32-.01.46-.03.14-.02.26-.05.38-.09.12-.04.22-.1.32-.16.1-.07.2-.14.3-.23.05-.04.09-.06.14-.06Z"/>
      <path d="M147.89,8.38c.3,0,.56.05.8.15s.44.24.61.42.3.4.39.66c.09.26.13.54.13.86s-.04.61-.13.86-.22.47-.39.66-.37.32-.61.42c-.24.1-.5.15-.8.15s-.57-.05-.81-.15c-.24-.1-.44-.24-.61-.42s-.3-.4-.39-.66c-.09-.26-.13-.54-.13-.86s.04-.6.13-.86c.09-.26.22-.48.39-.66s.37-.32.61-.42c.24-.1.51-.15.81-.15ZM147.89,12c.4,0,.7-.13.9-.4.2-.27.3-.64.3-1.12s-.1-.86-.3-1.13c-.2-.27-.5-.4-.9-.4-.2,0-.38.03-.53.1-.15.07-.28.17-.38.3-.1.13-.17.29-.22.48s-.07.41-.07.65c0,.48.1.85.3,1.12.2.27.5.4.91.4Z"/>
      <path d="M151.39,9.04c.09-.1.18-.19.28-.27.1-.08.2-.15.31-.21.11-.06.23-.1.35-.13.12-.03.26-.05.4-.05.22,0,.42.04.59.11s.31.18.42.31c.11.13.2.3.26.49s.09.4.09.63v2.58h-.72v-2.58c0-.31-.07-.54-.21-.71-.14-.17-.35-.25-.64-.25-.21,0-.41.05-.59.15-.18.1-.35.24-.51.41v2.98h-.72v-4.05h.43c.1,0,.16.05.19.15l.06.44Z"/>
      <path d="M155.94,8.45v4.35c0,.16-.02.31-.06.45s-.11.26-.2.37c-.09.1-.21.19-.36.25-.15.06-.32.09-.52.09-.09,0-.16,0-.24-.02-.07-.01-.14-.03-.22-.06l.03-.38s.01-.04.03-.05c.01-.01.03-.02.05-.02.02,0,.05,0,.08,0,.03,0,.08,0,.13,0,.21,0,.36-.05.44-.15.09-.1.13-.25.13-.47v-4.35h.71ZM156.08,7.18c0,.07-.01.13-.04.19-.03.06-.07.11-.11.16s-.1.08-.16.11c-.06.03-.13.04-.2.04s-.13-.01-.19-.04c-.06-.03-.11-.06-.16-.11-.05-.05-.08-.1-.11-.16-.03-.06-.04-.12-.04-.19s.01-.14.04-.2c.03-.06.06-.12.11-.16.05-.05.1-.08.16-.11.06-.03.12-.04.19-.04s.13.01.2.04c.06.03.12.06.16.11.05.05.08.1.11.16.03.06.04.13.04.2Z"/>
      <path d="M160.44,8.45v4.05h-.42c-.1,0-.17-.05-.19-.15l-.06-.44c-.18.19-.37.35-.59.47-.22.12-.47.18-.75.18-.22,0-.42-.04-.59-.11s-.31-.18-.43-.31c-.11-.13-.2-.29-.26-.48-.06-.19-.09-.4-.09-.63v-2.58h.71v2.58c0,.31.07.54.21.71.14.17.35.25.64.25.21,0,.41-.05.59-.15.18-.1.35-.24.51-.41v-2.98h.71Z"/>
      <path d="M164.98,8.61v.26c0,.09-.06.14-.17.17l-.46.06c.09.18.14.37.14.58,0,.2-.04.38-.11.54-.08.16-.18.3-.31.41-.13.12-.29.2-.48.26-.19.06-.39.09-.61.09-.19,0-.37-.02-.54-.07-.09.05-.15.11-.2.17-.05.06-.07.12-.07.18,0,.1.04.17.12.22.08.05.18.08.31.11.13.02.27.04.44.04.16,0,.33.01.5.03s.34.03.5.06c.16.03.31.08.44.14.13.07.23.16.31.28.08.12.12.27.12.46,0,.17-.04.34-.13.5-.09.16-.21.31-.37.43s-.36.23-.6.3-.5.11-.8.11-.55-.03-.78-.09c-.22-.06-.41-.14-.55-.24s-.26-.21-.33-.34-.11-.26-.11-.41c0-.2.06-.37.19-.51s.3-.25.52-.33c-.12-.05-.22-.12-.29-.21-.07-.09-.11-.21-.11-.36,0-.06.01-.12.03-.18.02-.06.05-.12.1-.19.04-.06.1-.12.16-.18.06-.06.14-.11.22-.15-.2-.11-.36-.26-.47-.45-.11-.19-.17-.4-.17-.65,0-.2.04-.38.11-.54.08-.16.18-.3.32-.41.14-.11.3-.2.49-.26.19-.06.39-.09.62-.09.18,0,.34.02.49.06.15.04.29.1.42.17h1.1ZM164.26,12.72c0-.1-.03-.18-.08-.24-.06-.06-.13-.11-.23-.14-.09-.03-.21-.06-.33-.07-.13-.01-.26-.03-.4-.03-.14,0-.28-.02-.43-.02s-.28-.02-.42-.04c-.15.07-.27.16-.37.26-.09.11-.14.23-.14.37,0,.09.02.18.07.25.05.08.12.15.21.2.1.06.22.1.36.14.15.03.32.05.51.05s.36-.02.52-.05c.15-.03.28-.08.39-.15.11-.06.19-.14.24-.23.06-.09.08-.19.08-.29ZM162.98,10.52c.14,0,.27-.02.38-.06s.2-.1.28-.17.13-.16.17-.26c.04-.1.06-.21.06-.33,0-.25-.08-.45-.23-.59-.15-.15-.37-.22-.65-.22s-.51.07-.66.22c-.15.15-.23.34-.23.59,0,.12.02.23.06.33.04.1.1.19.17.26s.17.13.28.17c.11.04.24.06.38.06Z"/>
      <path d="M165.62,9.02c.22-.22.47-.38.72-.48.26-.11.55-.16.86-.16.23,0,.43.04.6.11.18.08.32.18.44.31.12.13.21.29.27.48.06.19.09.4.09.62v2.59h-.32c-.07,0-.12-.01-.16-.03-.04-.02-.07-.07-.09-.13l-.08-.38c-.11.1-.21.19-.31.26-.1.08-.21.14-.32.19-.11.05-.23.09-.36.12-.13.03-.27.04-.42.04s-.31-.02-.44-.07-.26-.11-.36-.2c-.1-.09-.18-.2-.24-.33s-.09-.29-.09-.48c0-.16.04-.31.13-.46.09-.15.23-.28.43-.39.2-.11.45-.21.77-.28.32-.07.71-.12,1.17-.13v-.32c0-.31-.07-.55-.2-.71-.14-.16-.33-.24-.6-.24-.18,0-.32.02-.44.07s-.22.09-.31.15-.16.1-.22.15c-.06.04-.12.07-.19.07-.05,0-.09-.01-.12-.04s-.06-.06-.09-.09l-.13-.23ZM167.92,10.68c-.33.01-.61.04-.84.08-.23.04-.42.1-.56.16s-.25.15-.32.24-.1.19-.1.3c0,.11.02.2.05.28.03.08.08.14.14.19.06.05.13.09.21.11.08.02.17.03.26.03.13,0,.24-.01.34-.04s.2-.06.29-.11.18-.11.26-.17.17-.14.25-.23v-.84Z"/>
      <path d="M172.76,11.93c-.15.19-.34.33-.56.43s-.46.16-.71.18l-.07.26c.25.05.43.12.54.22.11.09.16.21.16.36,0,.08-.02.16-.06.23s-.1.13-.18.18c-.08.05-.17.08-.27.11-.1.03-.22.04-.35.04-.11,0-.21-.01-.31-.03-.1-.02-.19-.05-.27-.09l.06-.22s.05-.07.09-.07c.02,0,.03,0,.06.01.02,0,.05.02.08.03.03.01.07.02.11.03.04,0,.09.01.15.01.11,0,.2-.02.25-.07.06-.05.08-.1.08-.17,0-.1-.06-.17-.17-.21-.11-.04-.27-.08-.47-.1l.16-.5c-.23-.02-.45-.08-.64-.19-.2-.1-.37-.24-.51-.42-.14-.18-.25-.39-.33-.64-.08-.25-.12-.52-.12-.83s.04-.58.13-.84.21-.48.37-.66c.16-.18.36-.33.6-.43.24-.1.51-.16.81-.16.29,0,.54.05.75.14.22.09.41.22.58.39l-.19.26s-.04.05-.06.07c-.02.02-.05.02-.09.02-.04,0-.08-.02-.13-.05-.05-.03-.11-.07-.18-.11s-.16-.08-.26-.11c-.1-.03-.23-.05-.38-.05-.2,0-.38.04-.53.11-.15.07-.28.17-.38.31-.1.13-.18.29-.23.48-.05.19-.08.4-.08.64,0,.25.03.46.08.65s.14.35.24.48c.1.13.23.23.37.3.15.07.31.1.49.1s.32-.02.43-.06c.11-.04.21-.09.28-.14s.13-.1.18-.14.1-.06.15-.06c.06,0,.1.02.14.07l.2.26Z"/>
      <path d="M173.42,9.02c.22-.22.47-.38.72-.48.26-.11.55-.16.86-.16.23,0,.43.04.6.11.18.08.32.18.44.31.12.13.21.29.27.48.06.19.09.4.09.62v2.59h-.32c-.07,0-.12-.01-.16-.03-.04-.02-.07-.07-.09-.13l-.08-.38c-.11.1-.21.19-.31.26-.1.08-.21.14-.32.19-.11.05-.23.09-.36.12-.13.03-.27.04-.42.04s-.31-.02-.44-.07-.26-.11-.36-.2c-.1-.09-.18-.2-.24-.33s-.09-.29-.09-.48c0-.16.04-.31.13-.46.09-.15.23-.28.43-.39.2-.11.45-.21.77-.28.32-.07.71-.12,1.17-.13v-.32c0-.31-.07-.55-.2-.71-.14-.16-.33-.24-.6-.24-.18,0-.32.02-.44.07s-.22.09-.31.15-.16.1-.22.15c-.06.04-.12.07-.19.07-.05,0-.09-.01-.12-.04s-.06-.06-.09-.09l-.13-.23ZM175.36,7.2c.1,0,.17-.03.22-.08.05-.06.08-.14.08-.26h.43c0,.13-.02.24-.05.35s-.08.2-.14.27-.14.13-.22.17c-.09.04-.18.06-.29.06-.09,0-.18-.02-.26-.06-.08-.04-.16-.08-.23-.13-.07-.05-.14-.09-.2-.13s-.13-.06-.19-.06c-.19,0-.29.12-.3.35h-.44c0-.13.02-.24.05-.35.03-.1.08-.2.15-.27.06-.08.14-.13.23-.18s.18-.06.29-.06c.09,0,.18.02.26.06.08.04.16.08.23.13.07.05.14.09.2.13s.12.06.19.06ZM175.72,10.68c-.33.01-.61.04-.84.08-.23.04-.42.1-.56.16s-.25.15-.32.24-.1.19-.1.3c0,.11.02.2.05.28.03.08.08.14.14.19.06.05.13.09.21.11.08.02.17.03.26.03.13,0,.24-.01.34-.04s.2-.06.29-.11.18-.11.26-.17.17-.14.25-.23v-.84Z"/>
      <path d="M179.21,8.38c.3,0,.56.05.8.15s.44.24.61.42.3.4.39.66c.09.26.13.54.13.86s-.04.61-.13.86-.22.47-.39.66-.37.32-.61.42c-.24.1-.5.15-.8.15s-.57-.05-.81-.15c-.24-.1-.44-.24-.61-.42s-.3-.4-.39-.66c-.09-.26-.13-.54-.13-.86s.04-.6.13-.86c.09-.26.22-.48.39-.66s.37-.32.61-.42c.24-.1.51-.15.81-.15ZM179.21,12c.4,0,.7-.13.9-.4.2-.27.3-.64.3-1.12s-.1-.86-.3-1.13c-.2-.27-.5-.4-.9-.4-.2,0-.38.03-.53.1-.15.07-.28.17-.38.3-.1.13-.17.29-.22.48s-.07.41-.07.65c0,.48.1.85.3,1.12.2.27.5.4.91.4Z"/>
    </g>
  </g>
</svg>