<?xml version="1.0" encoding="UTF-8"?>
<svg id="Camada_1" data-name="Camada 1" xmlns="http://www.w3.org/2000/svg" viewBox="0 0 499 285">
  <defs>
    <style>
      .cls-1 {
        fill: #edebd3;
      }

      .cls-2 {
        fill: #3b3d35;
      }

      .cls-3 {
        fill: #b8be79;
      }

      .cls-4 {
        fill: #94a26e;
      }

      .cls-5 {
        fill: none;
        stroke: #3b3d35;
        stroke-miterlimit: 10;
      }
    </style>
  </defs>
  <line class="cls-5" x1="216.5" y1="58.5" x2="216.5" y2="80.5"/>
  <line class="cls-5" x1="216.5" y1="81" x2="216.5" y2="102"/>
  <polyline class="cls-5" points="128.5 101.5 128.5 80.5 297.5 80.5 297.5 81 297.5 102"/>
  <polyline class="cls-5" points="128.5 107.5 62.5 107.5 62.5 205.5"/>
  <polyline class="cls-5" points="297 107 361 107 361 209"/>
  <line class="cls-5" x1="216" y1="113" x2="216" y2="162"/>
  <polyline class="cls-5" points="270.5 156.5 270.5 134.5 150.5 134.5 150.5 156.5"/>
  <line class="cls-5" x1="150.5" y1="161.5" x2="150.5" y2="254.5"/>
  <line class="cls-5" x1="216.5" y1="159.5" x2="216.5" y2="205.5"/>
  <line class="cls-5" x1="270.5" y1="159.5" x2="270.5" y2="205.5"/>
  <rect class="cls-4" x="192" y="47" width="48" height="24"/>
  <g>
    <path class="cls-2" d="M211.94,61.41c.06,0,.12.03.17.08l.46.5c-.35.41-.78.73-1.28.95-.5.23-1.11.34-1.82.34-.62,0-1.18-.11-1.68-.32-.5-.21-.93-.51-1.29-.9-.36-.39-.63-.85-.83-1.39-.2-.54-.29-1.13-.29-1.78s.1-1.24.31-1.78.49-1,.86-1.39c.37-.39.81-.69,1.33-.9.52-.21,1.09-.32,1.71-.32s1.15.1,1.62.29c.47.2.88.46,1.24.8l-.38.53s-.05.07-.09.1c-.04.03-.09.04-.15.04-.07,0-.16-.04-.26-.12-.1-.08-.24-.17-.41-.26-.17-.1-.38-.18-.63-.26s-.56-.12-.93-.12c-.44,0-.85.08-1.22.23s-.68.38-.95.67c-.27.29-.47.65-.62,1.07-.15.42-.22.89-.22,1.42s.08,1.01.23,1.43c.15.42.36.78.63,1.07.27.29.58.51.94.66.36.15.75.23,1.17.23.26,0,.49-.01.69-.04s.4-.08.57-.14c.17-.06.34-.15.49-.24.15-.1.3-.21.45-.35.07-.06.14-.09.2-.09Z"/>
    <path class="cls-2" d="M217.15,59.76v3.43h-1.16v-3.43l-3.15-5.17h1.02c.1,0,.19.02.25.07.06.05.11.12.16.2l1.97,3.34c.07.14.14.27.2.39.06.12.11.25.16.37.04-.12.09-.25.15-.37.06-.12.12-.25.19-.39l1.96-3.34c.04-.07.09-.13.15-.19.06-.06.15-.08.25-.08h1.03l-3.15,5.17Z"/>
    <path class="cls-2" d="M223.95,54.59c.54,0,1.02.06,1.42.19.4.13.74.31,1,.54.26.23.46.51.59.84.13.33.2.69.2,1.1s-.07.77-.21,1.1-.34.62-.62.86c-.27.24-.6.43-1,.56-.4.13-.86.2-1.38.2h-1.38v3.22h-1.16v-8.6h2.54ZM223.95,59.05c.33,0,.62-.04.88-.13.25-.09.47-.21.64-.37.17-.16.3-.35.39-.57s.13-.46.13-.73c0-.55-.17-.98-.51-1.28-.34-.31-.85-.46-1.54-.46h-1.38v3.54h1.38Z"/>
  </g>
  <g>
    <rect class="cls-3" x="192" y="96" width="48" height="24"/>
    <g>
      <path class="cls-2" d="M206.93,110.41c.06,0,.12.03.17.08l.46.5c-.35.41-.78.73-1.28.95-.5.23-1.11.34-1.82.34-.62,0-1.18-.11-1.68-.32-.5-.21-.93-.51-1.29-.9-.36-.39-.63-.85-.83-1.39-.2-.54-.29-1.13-.29-1.78s.1-1.24.31-1.78.49-1,.86-1.39c.37-.39.81-.69,1.33-.9.52-.21,1.09-.32,1.71-.32s1.15.1,1.62.29c.47.2.88.46,1.24.8l-.38.53s-.05.07-.09.1c-.04.03-.09.04-.15.04-.07,0-.16-.04-.26-.12-.1-.08-.24-.17-.41-.26-.17-.1-.38-.18-.63-.26s-.56-.12-.93-.12c-.44,0-.85.08-1.22.23s-.68.38-.95.67c-.27.29-.47.65-.62,1.07-.15.42-.22.89-.22,1.42s.08,1.01.23,1.43c.15.42.36.78.63,1.07.27.29.58.51.94.66.36.15.75.23,1.17.23.26,0,.49-.01.69-.04s.4-.08.57-.14c.17-.06.34-.15.49-.24.15-.1.3-.21.45-.35.07-.06.14-.09.2-.09Z"/>
      <path class="cls-2" d="M212.14,108.76v3.43h-1.16v-3.43l-3.15-5.17h1.02c.1,0,.19.02.25.07.06.05.11.12.16.2l1.97,3.34c.07.14.14.27.2.39.06.12.11.25.16.37.04-.12.09-.25.15-.37.06-.12.12-.25.19-.39l1.96-3.34c.04-.07.09-.13.15-.19.06-.06.15-.08.25-.08h1.03l-3.15,5.17Z"/>
      <path class="cls-2" d="M218.93,103.59c.54,0,1.02.06,1.42.19.4.13.74.31,1,.54.26.23.46.51.59.84.13.33.2.69.2,1.1s-.07.77-.21,1.1-.34.62-.62.86c-.27.24-.6.43-1,.56-.4.13-.86.2-1.38.2h-1.38v3.22h-1.16v-8.6h2.54ZM218.93,108.05c.33,0,.62-.04.88-.13.25-.09.47-.21.64-.37.17-.16.3-.35.39-.57s.13-.46.13-.73c0-.55-.17-.98-.51-1.28-.34-.31-.85-.46-1.54-.46h-1.38v3.54h1.38Z"/>
      <path class="cls-2" d="M231.17,111.18c.12,0,.21.03.28.1.07.07.1.16.1.26v.65h-5.74v-.37c0-.08.02-.15.05-.23.03-.08.08-.15.15-.22l2.75-2.77c.23-.23.44-.46.62-.67.19-.21.35-.43.48-.65.13-.22.23-.43.31-.66.07-.22.11-.46.11-.71s-.04-.47-.12-.66c-.08-.19-.19-.35-.33-.47s-.3-.22-.49-.28c-.19-.06-.39-.09-.61-.09s-.42.03-.61.1c-.18.06-.35.15-.49.27-.14.11-.26.25-.36.41s-.16.33-.2.52c-.05.14-.11.23-.2.28s-.2.06-.34.04l-.56-.1c.06-.39.17-.74.33-1.04.16-.3.37-.56.61-.76s.53-.36.84-.46c.32-.11.66-.16,1.03-.16s.7.05,1.02.16c.32.11.59.27.82.47.23.21.41.46.55.75.13.3.2.63.2,1.01,0,.32-.05.62-.14.89-.1.27-.23.54-.39.78s-.35.49-.57.73c-.21.24-.44.47-.68.71l-2.27,2.32c.16-.04.32-.08.49-.1.16-.03.32-.04.47-.04h2.88Z"/>
    </g>
  </g>
  <g>
    <rect class="cls-3" x="104" y="96" width="48" height="24"/>
    <g>
      <path class="cls-2" d="M118.93,110.41c.06,0,.12.03.17.08l.46.5c-.35.41-.78.73-1.28.95-.5.23-1.11.34-1.82.34-.62,0-1.18-.11-1.68-.32-.5-.21-.93-.51-1.29-.9-.36-.39-.63-.85-.83-1.39-.2-.54-.29-1.13-.29-1.78s.1-1.24.31-1.78.49-1,.86-1.39c.37-.39.81-.69,1.33-.9.52-.21,1.09-.32,1.71-.32s1.15.1,1.62.29c.47.2.88.46,1.24.8l-.38.53s-.05.07-.09.1c-.04.03-.09.04-.15.04-.07,0-.16-.04-.26-.12-.1-.08-.24-.17-.41-.26-.17-.1-.38-.18-.63-.26s-.56-.12-.93-.12c-.44,0-.85.08-1.22.23s-.68.38-.95.67c-.27.29-.47.65-.62,1.07-.15.42-.22.89-.22,1.42s.08,1.01.23,1.43c.15.42.36.78.63,1.07.27.29.58.51.94.66.36.15.75.23,1.17.23.26,0,.49-.01.69-.04s.4-.08.57-.14c.17-.06.34-.15.49-.24.15-.1.3-.21.45-.35.07-.06.14-.09.2-.09Z"/>
      <path class="cls-2" d="M124.14,108.76v3.43h-1.16v-3.43l-3.15-5.17h1.02c.1,0,.19.02.25.07.06.05.11.12.16.2l1.97,3.34c.07.14.14.27.2.39.06.12.11.25.16.37.04-.12.09-.25.15-.37.06-.12.12-.25.19-.39l1.96-3.34c.04-.07.09-.13.15-.19.06-.06.15-.08.25-.08h1.03l-3.15,5.17Z"/>
      <path class="cls-2" d="M130.93,103.59c.54,0,1.02.06,1.42.19.4.13.74.31,1,.54.26.23.46.51.59.84.13.33.2.69.2,1.1s-.07.77-.21,1.1-.34.62-.62.86c-.27.24-.6.43-1,.56-.4.13-.86.2-1.38.2h-1.38v3.22h-1.16v-8.6h2.54ZM130.93,108.05c.33,0,.62-.04.88-.13.25-.09.47-.21.64-.37.17-.16.3-.35.39-.57s.13-.46.13-.73c0-.55-.17-.98-.51-1.28-.34-.31-.85-.46-1.54-.46h-1.38v3.54h1.38Z"/>
      <path class="cls-2" d="M143.35,111.37v.82h-4.61v-.82h1.84v-5.86c0-.18,0-.35.02-.53l-1.53,1.31c-.05.04-.1.07-.16.08-.05.01-.1.01-.14,0-.04,0-.08-.02-.12-.05-.04-.02-.07-.05-.09-.08l-.34-.46,2.56-2.21h.87v7.8h1.69Z"/>
    </g>
  </g>
  <g>
    <rect class="cls-3" x="273" y="96" width="48" height="24"/>
    <g>
      <path class="cls-2" d="M287.93,110.41c.06,0,.12.03.17.08l.46.5c-.35.41-.78.73-1.28.95-.5.23-1.11.34-1.82.34-.62,0-1.18-.11-1.68-.32-.5-.21-.93-.51-1.29-.9-.36-.39-.63-.85-.83-1.39-.2-.54-.29-1.13-.29-1.78s.1-1.24.31-1.78.49-1,.86-1.39c.37-.39.81-.69,1.33-.9.52-.21,1.09-.32,1.71-.32s1.15.1,1.62.29c.47.2.88.46,1.24.8l-.38.53s-.05.07-.09.1c-.04.03-.09.04-.15.04-.07,0-.16-.04-.26-.12-.1-.08-.24-.17-.41-.26-.17-.1-.38-.18-.63-.26s-.56-.12-.93-.12c-.44,0-.85.08-1.22.23s-.68.38-.95.67c-.27.29-.47.65-.62,1.07-.15.42-.22.89-.22,1.42s.08,1.01.23,1.43c.15.42.36.78.63,1.07.27.29.58.51.94.66.36.15.75.23,1.17.23.26,0,.49-.01.69-.04s.4-.08.57-.14c.17-.06.34-.15.49-.24.15-.1.3-.21.45-.35.07-.06.14-.09.2-.09Z"/>
      <path class="cls-2" d="M293.14,108.76v3.43h-1.16v-3.43l-3.15-5.17h1.02c.1,0,.19.02.25.07.06.05.11.12.16.2l1.97,3.34c.07.14.14.27.2.39.06.12.11.25.16.37.04-.12.09-.25.15-.37.06-.12.12-.25.19-.39l1.96-3.34c.04-.07.09-.13.15-.19.06-.06.15-.08.25-.08h1.03l-3.15,5.17Z"/>
      <path class="cls-2" d="M299.93,103.59c.54,0,1.02.06,1.42.19.4.13.74.31,1,.54.26.23.46.51.59.84.13.33.2.69.2,1.1s-.07.77-.21,1.1-.34.62-.62.86c-.27.24-.6.43-1,.56-.4.13-.86.2-1.38.2h-1.38v3.22h-1.16v-8.6h2.54ZM299.93,108.05c.33,0,.62-.04.88-.13.25-.09.47-.21.64-.37.17-.16.3-.35.39-.57s.13-.46.13-.73c0-.55-.17-.98-.51-1.28-.34-.31-.85-.46-1.54-.46h-1.38v3.54h1.38Z"/>
      <path class="cls-2" d="M307.03,105.92c.06-.39.16-.74.32-1.04.16-.3.36-.56.61-.76s.53-.36.85-.46c.32-.11.66-.16,1.03-.16s.7.05,1.01.16c.31.1.57.25.79.44.22.19.4.42.52.7.12.27.19.57.19.91,0,.27-.04.52-.1.73-.07.21-.17.4-.3.56-.13.16-.29.3-.47.41-.18.11-.39.2-.62.28.56.14.98.39,1.26.74.28.35.42.79.42,1.31,0,.4-.08.75-.22,1.07-.15.32-.36.58-.62.81-.26.22-.56.39-.91.51s-.72.18-1.11.18c-.46,0-.85-.06-1.17-.17s-.6-.27-.82-.47c-.22-.2-.41-.44-.55-.71-.14-.27-.27-.57-.37-.89l.46-.19c.12-.05.24-.07.35-.04.11.02.2.09.25.2.05.11.12.25.2.4.08.16.18.31.32.45s.31.27.52.37c.21.1.48.15.8.15.3,0,.56-.05.79-.15.23-.1.41-.23.56-.38.15-.16.26-.33.34-.52.08-.19.11-.38.11-.57,0-.23-.03-.44-.09-.64-.06-.19-.17-.36-.34-.5-.16-.14-.39-.25-.67-.33-.29-.08-.65-.12-1.1-.12v-.77c.37,0,.68-.04.94-.12s.47-.18.63-.31c.16-.13.28-.29.35-.47.07-.18.11-.39.11-.61,0-.25-.04-.46-.12-.65-.08-.18-.18-.34-.32-.46-.14-.12-.3-.21-.48-.27-.19-.06-.39-.09-.6-.09s-.42.03-.6.1c-.19.06-.35.15-.49.27-.14.11-.26.25-.36.41s-.16.33-.2.52c-.05.14-.12.23-.2.28s-.19.06-.34.04l-.56-.1Z"/>
    </g>
  </g>
  <rect class="cls-1" x="127" y="145" width="48" height="24"/>
  <g>
    <path class="cls-2" d="M137.92,159.41c.06,0,.12.03.17.08l.46.5c-.35.41-.78.73-1.28.95-.5.23-1.11.34-1.82.34-.62,0-1.18-.11-1.68-.32-.5-.21-.93-.51-1.29-.9-.36-.39-.63-.85-.83-1.39-.2-.54-.29-1.13-.29-1.78s.1-1.24.31-1.78.49-1,.86-1.39c.37-.39.81-.69,1.33-.9.52-.21,1.09-.32,1.71-.32s1.15.1,1.62.29c.47.2.88.46,1.24.8l-.38.53s-.05.07-.09.1c-.04.03-.09.04-.15.04-.07,0-.16-.04-.26-.12-.1-.08-.24-.17-.41-.26-.17-.1-.38-.18-.63-.26s-.56-.12-.93-.12c-.44,0-.85.08-1.22.23s-.68.38-.95.67c-.27.29-.47.65-.62,1.07-.15.42-.22.89-.22,1.42s.08,1.01.23,1.43c.15.42.36.78.63,1.07.27.29.58.51.94.66.36.15.75.23,1.17.23.26,0,.49-.01.69-.04s.4-.08.57-.14c.17-.06.34-.15.49-.24.15-.1.3-.21.45-.35.07-.06.14-.09.2-.09Z"/>
    <path class="cls-2" d="M143.13,157.76v3.43h-1.16v-3.43l-3.15-5.17h1.02c.1,0,.19.02.25.07.06.05.11.12.16.2l1.97,3.34c.07.14.14.27.2.39.06.12.11.25.16.37.04-.12.09-.25.15-.37.06-.12.12-.25.19-.39l1.96-3.34c.04-.07.09-.13.15-.19.06-.06.15-.08.25-.08h1.03l-3.15,5.17Z"/>
    <path class="cls-2" d="M149.93,152.59c.54,0,1.02.06,1.42.19.4.13.74.31,1,.54.26.23.46.51.59.84.13.33.2.69.2,1.1s-.07.77-.21,1.1-.34.62-.62.86c-.27.24-.6.43-1,.56-.4.13-.86.2-1.38.2h-1.38v3.22h-1.16v-8.6h2.54ZM149.93,157.05c.33,0,.62-.04.88-.13.25-.09.47-.21.64-.37.17-.16.3-.35.39-.57s.13-.46.13-.73c0-.55-.17-.98-.51-1.28-.34-.31-.85-.46-1.54-.46h-1.38v3.54h1.38Z"/>
    <path class="cls-2" d="M162.16,160.18c.12,0,.21.03.28.1.07.07.1.16.1.26v.65h-5.74v-.37c0-.08.02-.15.05-.23.03-.08.08-.15.15-.22l2.75-2.77c.23-.23.44-.46.62-.67.19-.21.35-.43.48-.65.13-.22.23-.43.31-.66.07-.22.11-.46.11-.71s-.04-.47-.12-.66c-.08-.19-.19-.35-.33-.47s-.3-.22-.49-.28c-.19-.06-.39-.09-.61-.09s-.42.03-.61.1c-.18.06-.35.15-.49.27-.14.11-.26.25-.36.41s-.16.33-.2.52c-.05.14-.11.23-.2.28s-.2.06-.34.04l-.56-.1c.06-.39.17-.74.33-1.04.16-.3.37-.56.61-.76s.53-.36.84-.46c.32-.11.66-.16,1.03-.16s.7.05,1.02.16c.32.11.59.27.82.47.23.21.41.46.55.75.13.3.2.63.2,1.01,0,.32-.05.62-.14.89-.1.27-.23.54-.39.78s-.35.49-.57.73c-.21.24-.44.47-.68.71l-2.27,2.32c.16-.04.32-.08.49-.1.16-.03.32-.04.47-.04h2.88Z"/>
    <path class="cls-2" d="M170.33,159.41c.06,0,.12.03.17.08l.46.5c-.35.41-.78.73-1.28.95-.5.23-1.11.34-1.82.34-.62,0-1.18-.11-1.68-.32-.5-.21-.93-.51-1.29-.9-.36-.39-.63-.85-.83-1.39-.2-.54-.29-1.13-.29-1.78s.1-1.24.31-1.78.49-1,.86-1.39c.37-.39.81-.69,1.33-.9.52-.21,1.09-.32,1.71-.32s1.15.1,1.62.29c.47.2.88.46,1.24.8l-.38.53s-.05.07-.09.1c-.04.03-.09.04-.15.04-.07,0-.16-.04-.26-.12-.1-.08-.24-.17-.41-.26-.17-.1-.38-.18-.63-.26s-.56-.12-.93-.12c-.44,0-.85.08-1.22.23s-.68.38-.95.67c-.27.29-.47.65-.62,1.07-.15.42-.22.89-.22,1.42s.08,1.01.23,1.43c.15.42.36.78.63,1.07.27.29.58.51.94.66.36.15.75.23,1.17.23.26,0,.49-.01.69-.04s.4-.08.57-.14c.17-.06.34-.15.49-.24.15-.1.3-.21.45-.35.07-.06.14-.09.2-.09Z"/>
  </g>
  <rect class="cls-1" x="38" y="145" width="48" height="24"/>
  <g>
    <path class="cls-2" d="M49.07,159.41c.06,0,.12.03.17.08l.46.5c-.35.41-.78.73-1.28.95-.5.23-1.11.34-1.82.34-.62,0-1.18-.11-1.68-.32-.5-.21-.93-.51-1.29-.9-.36-.39-.63-.85-.83-1.39-.2-.54-.29-1.13-.29-1.78s.1-1.24.31-1.78.49-1,.86-1.39c.37-.39.81-.69,1.33-.9.52-.21,1.09-.32,1.71-.32s1.15.1,1.62.29c.47.2.88.46,1.24.8l-.38.53s-.05.07-.09.1c-.04.03-.09.04-.15.04-.07,0-.16-.04-.26-.12-.1-.08-.24-.17-.41-.26-.17-.1-.38-.18-.63-.26s-.56-.12-.93-.12c-.44,0-.85.08-1.22.23s-.68.38-.95.67c-.27.29-.47.65-.62,1.07-.15.42-.22.89-.22,1.42s.08,1.01.23,1.43c.15.42.36.78.63,1.07.27.29.58.51.94.66.36.15.75.23,1.17.23.26,0,.49-.01.69-.04s.4-.08.57-.14c.17-.06.34-.15.49-.24.15-.1.3-.21.45-.35.07-.06.14-.09.2-.09Z"/>
    <path class="cls-2" d="M54.28,157.76v3.43h-1.16v-3.43l-3.15-5.17h1.02c.1,0,.19.02.25.07.06.05.11.12.16.2l1.97,3.34c.07.14.14.27.2.39.06.12.11.25.16.37.04-.12.09-.25.15-.37.06-.12.12-.25.19-.39l1.96-3.34c.04-.07.09-.13.15-.19.06-.06.15-.08.25-.08h1.03l-3.15,5.17Z"/>
    <path class="cls-2" d="M61.07,152.59c.54,0,1.02.06,1.42.19.4.13.74.31,1,.54.26.23.46.51.59.84.13.33.2.69.2,1.1s-.07.77-.21,1.1-.34.62-.62.86c-.27.24-.6.43-1,.56-.4.13-.86.2-1.38.2h-1.38v3.22h-1.16v-8.6h2.54ZM61.07,157.05c.33,0,.62-.04.88-.13.25-.09.47-.21.64-.37.17-.16.3-.35.39-.57s.13-.46.13-.73c0-.55-.17-.98-.51-1.28-.34-.31-.85-.46-1.54-.46h-1.38v3.54h1.38Z"/>
    <path class="cls-2" d="M73.49,160.37v.82h-4.61v-.82h1.84v-5.86c0-.18,0-.35.02-.53l-1.53,1.31c-.05.04-.1.07-.16.08-.05.01-.1.01-.14,0-.04,0-.08-.02-.12-.05-.04-.02-.07-.05-.09-.08l-.34-.46,2.56-2.21h.87v7.8h1.69Z"/>
    <path class="cls-2" d="M82.43,161.19h-.9c-.1,0-.19-.03-.25-.08-.06-.05-.11-.12-.14-.2l-.8-2.08h-3.86l-.8,2.08c-.02.07-.07.14-.14.19-.07.06-.15.08-.25.08h-.9l3.44-8.6h1.18l3.44,8.6ZM80.01,158l-1.35-3.5c-.04-.1-.08-.22-.13-.36-.04-.14-.09-.29-.13-.44-.08.32-.17.59-.26.81l-1.35,3.49h3.21Z"/>
  </g>
  <rect class="cls-1" x="337" y="145" width="48" height="24"/>
  <g>
    <path class="cls-2" d="M348.07,159.41c.06,0,.12.03.17.08l.46.5c-.35.41-.78.73-1.28.95-.5.23-1.11.34-1.82.34-.62,0-1.18-.11-1.68-.32-.5-.21-.93-.51-1.29-.9-.36-.39-.63-.85-.83-1.39-.2-.54-.29-1.13-.29-1.78s.1-1.24.31-1.78.49-1,.86-1.39c.37-.39.81-.69,1.33-.9.52-.21,1.09-.32,1.71-.32s1.15.1,1.62.29c.47.2.88.46,1.24.8l-.38.53s-.05.07-.09.1c-.04.03-.09.04-.15.04-.07,0-.16-.04-.26-.12-.1-.08-.24-.17-.41-.26-.17-.1-.38-.18-.63-.26s-.56-.12-.93-.12c-.44,0-.85.08-1.22.23s-.68.38-.95.67c-.27.29-.47.65-.62,1.07-.15.42-.22.89-.22,1.42s.08,1.01.23,1.43c.15.42.36.78.63,1.07.27.29.58.51.94.66.36.15.75.23,1.17.23.26,0,.49-.01.69-.04s.4-.08.57-.14c.17-.06.34-.15.49-.24.15-.1.3-.21.45-.35.07-.06.14-.09.2-.09Z"/>
    <path class="cls-2" d="M353.28,157.76v3.43h-1.16v-3.43l-3.15-5.17h1.02c.1,0,.19.02.25.07.06.05.11.12.16.2l1.97,3.34c.07.14.14.27.2.39.06.12.11.25.16.37.04-.12.09-.25.15-.37.06-.12.12-.25.19-.39l1.96-3.34c.04-.07.09-.13.15-.19.06-.06.15-.08.25-.08h1.03l-3.15,5.17Z"/>
    <path class="cls-2" d="M360.07,152.59c.54,0,1.02.06,1.42.19.4.13.74.31,1,.54.26.23.46.51.59.84.13.33.2.69.2,1.1s-.07.77-.21,1.1-.34.62-.62.86c-.27.24-.6.43-1,.56-.4.13-.86.2-1.38.2h-1.38v3.22h-1.16v-8.6h2.54ZM360.07,157.05c.33,0,.62-.04.88-.13.25-.09.47-.21.64-.37.17-.16.3-.35.39-.57s.13-.46.13-.73c0-.55-.17-.98-.51-1.28-.34-.31-.85-.46-1.54-.46h-1.38v3.54h1.38Z"/>
    <path class="cls-2" d="M367.17,154.92c.06-.39.16-.74.32-1.04.16-.3.36-.56.61-.76s.53-.36.85-.46c.32-.11.66-.16,1.03-.16s.7.05,1.01.16c.31.1.57.25.79.44.22.19.4.42.52.7.12.27.19.57.19.91,0,.27-.04.52-.1.73-.07.21-.17.4-.3.56-.13.16-.29.3-.47.41-.18.11-.39.2-.62.28.56.14.98.39,1.26.74.28.35.42.79.42,1.31,0,.4-.08.75-.22,1.07-.15.32-.36.58-.62.81-.26.22-.56.39-.91.51s-.72.18-1.11.18c-.46,0-.85-.06-1.17-.17s-.6-.27-.82-.47c-.22-.2-.41-.44-.55-.71-.14-.27-.27-.57-.37-.89l.46-.19c.12-.05.24-.07.35-.04.11.02.2.09.25.2.05.11.12.25.2.4.08.16.18.31.32.45s.31.27.52.37c.21.1.48.15.8.15.3,0,.56-.05.79-.15.23-.1.41-.23.56-.38.15-.16.26-.33.34-.52.08-.19.11-.38.11-.57,0-.23-.03-.44-.09-.64-.06-.19-.17-.36-.34-.5-.16-.14-.39-.25-.67-.33-.29-.08-.65-.12-1.1-.12v-.77c.37,0,.68-.04.94-.12s.47-.18.63-.31c.16-.13.28-.29.35-.47.07-.18.11-.39.11-.61,0-.25-.04-.46-.12-.65-.08-.18-.18-.34-.32-.46-.14-.12-.3-.21-.48-.27-.19-.06-.39-.09-.6-.09s-.42.03-.6.1c-.19.06-.35.15-.49.27-.14.11-.26.25-.36.41s-.16.33-.2.52c-.05.14-.12.23-.2.28s-.19.06-.34.04l-.56-.1Z"/>
    <path class="cls-2" d="M381.43,161.19h-.9c-.1,0-.19-.03-.25-.08-.06-.05-.11-.12-.14-.2l-.8-2.08h-3.86l-.8,2.08c-.02.07-.07.14-.14.19-.07.06-.15.08-.25.08h-.9l3.44-8.6h1.18l3.44,8.6ZM379.01,158l-1.35-3.5c-.04-.1-.08-.22-.13-.36-.04-.14-.09-.29-.13-.44-.08.32-.17.59-.26.81l-1.35,3.49h3.21Z"/>
  </g>
  <rect class="cls-1" x="184" y="145" width="48" height="24"/>
  <g>
    <path class="cls-2" d="M194.37,159.41c.06,0,.12.03.17.08l.46.5c-.35.41-.78.73-1.28.95-.5.23-1.11.34-1.82.34-.62,0-1.18-.11-1.68-.32-.5-.21-.93-.51-1.29-.9-.36-.39-.63-.85-.83-1.39-.2-.54-.29-1.13-.29-1.78s.1-1.24.31-1.78.49-1,.86-1.39c.37-.39.81-.69,1.33-.9.52-.21,1.09-.32,1.71-.32s1.15.1,1.62.29c.47.2.88.46,1.24.8l-.38.53s-.05.07-.09.1c-.04.03-.09.04-.15.04-.07,0-.16-.04-.26-.12-.1-.08-.24-.17-.41-.26-.17-.1-.38-.18-.63-.26s-.56-.12-.93-.12c-.44,0-.85.08-1.22.23s-.68.38-.95.67c-.27.29-.47.65-.62,1.07-.15.42-.22.89-.22,1.42s.08,1.01.23,1.43c.15.42.36.78.63,1.07.27.29.58.51.94.66.36.15.75.23,1.17.23.26,0,.49-.01.69-.04s.4-.08.57-.14c.17-.06.34-.15.49-.24.15-.1.3-.21.45-.35.07-.06.14-.09.2-.09Z"/>
    <path class="cls-2" d="M199.57,157.76v3.43h-1.16v-3.43l-3.15-5.17h1.02c.1,0,.19.02.25.07.06.05.11.12.16.2l1.97,3.34c.07.14.14.27.2.39.06.12.11.25.16.37.04-.12.09-.25.15-.37.06-.12.12-.25.19-.39l1.96-3.34c.04-.07.09-.13.15-.19.06-.06.15-.08.25-.08h1.03l-3.15,5.17Z"/>
    <path class="cls-2" d="M206.37,152.59c.54,0,1.02.06,1.42.19.4.13.74.31,1,.54.26.23.46.51.59.84.13.33.2.69.2,1.1s-.07.77-.21,1.1-.34.62-.62.86c-.27.24-.6.43-1,.56-.4.13-.86.2-1.38.2h-1.38v3.22h-1.16v-8.6h2.54ZM206.37,157.05c.33,0,.62-.04.88-.13.25-.09.47-.21.64-.37.17-.16.3-.35.39-.57s.13-.46.13-.73c0-.55-.17-.98-.51-1.28-.34-.31-.85-.46-1.54-.46h-1.38v3.54h1.38Z"/>
    <path class="cls-2" d="M218.61,160.18c.12,0,.21.03.28.1.07.07.1.16.1.26v.65h-5.74v-.37c0-.08.02-.15.05-.23.03-.08.08-.15.15-.22l2.75-2.77c.23-.23.44-.46.62-.67.19-.21.35-.43.48-.65.13-.22.23-.43.31-.66.07-.22.11-.46.11-.71s-.04-.47-.12-.66c-.08-.19-.19-.35-.33-.47s-.3-.22-.49-.28c-.19-.06-.39-.09-.61-.09s-.42.03-.61.1c-.18.06-.35.15-.49.27-.14.11-.26.25-.36.41s-.16.33-.2.52c-.05.14-.11.23-.2.28s-.2.06-.34.04l-.56-.1c.06-.39.17-.74.33-1.04.16-.3.37-.56.61-.76s.53-.36.84-.46c.32-.11.66-.16,1.03-.16s.7.05,1.02.16c.32.11.59.27.82.47.23.21.41.46.55.75.13.3.2.63.2,1.01,0,.32-.05.62-.14.89-.1.27-.23.54-.39.78s-.35.49-.57.73c-.21.24-.44.47-.68.71l-2.27,2.32c.16-.04.32-.08.49-.1.16-.03.32-.04.47-.04h2.88Z"/>
    <path class="cls-2" d="M228.19,156.89c0,.64-.1,1.23-.31,1.76s-.49.98-.86,1.36-.82.67-1.34.87c-.52.21-1.1.31-1.73.31h-3.21v-8.6h3.21c.63,0,1.21.1,1.73.31.52.21.97.5,1.34.88s.66.83.86,1.36c.2.53.31,1.11.31,1.76ZM227,156.89c0-.53-.07-1-.22-1.42-.14-.42-.35-.77-.61-1.06-.26-.29-.58-.51-.96-.66-.38-.15-.8-.23-1.26-.23h-2.05v6.71h2.05c.46,0,.88-.08,1.26-.23s.7-.37.96-.66c.26-.29.47-.64.61-1.05.14-.42.22-.89.22-1.42Z"/>
  </g>
  <rect class="cls-1" x="244" y="145" width="48" height="24"/>
  <g>
    <path class="cls-2" d="M255.46,159.41c.06,0,.12.03.17.08l.46.5c-.35.41-.78.73-1.28.95-.5.23-1.11.34-1.82.34-.62,0-1.18-.11-1.68-.32-.5-.21-.93-.51-1.29-.9-.36-.39-.63-.85-.83-1.39-.2-.54-.29-1.13-.29-1.78s.1-1.24.31-1.78.49-1,.86-1.39c.37-.39.81-.69,1.33-.9.52-.21,1.09-.32,1.71-.32s1.15.1,1.62.29c.47.2.88.46,1.24.8l-.38.53s-.05.07-.09.1c-.04.03-.09.04-.15.04-.07,0-.16-.04-.26-.12-.1-.08-.24-.17-.41-.26-.17-.1-.38-.18-.63-.26s-.56-.12-.93-.12c-.44,0-.85.08-1.22.23s-.68.38-.95.67c-.27.29-.47.65-.62,1.07-.15.42-.22.89-.22,1.42s.08,1.01.23,1.43c.15.42.36.78.63,1.07.27.29.58.51.94.66.36.15.75.23,1.17.23.26,0,.49-.01.69-.04s.4-.08.57-.14c.17-.06.34-.15.49-.24.15-.1.3-.21.45-.35.07-.06.14-.09.2-.09Z"/>
    <path class="cls-2" d="M260.67,157.76v3.43h-1.16v-3.43l-3.15-5.17h1.02c.1,0,.19.02.25.07.06.05.11.12.16.2l1.97,3.34c.07.14.14.27.2.39.06.12.11.25.16.37.04-.12.09-.25.15-.37.06-.12.12-.25.19-.39l1.96-3.34c.04-.07.09-.13.15-.19.06-.06.15-.08.25-.08h1.03l-3.15,5.17Z"/>
    <path class="cls-2" d="M267.47,152.59c.54,0,1.02.06,1.42.19.4.13.74.31,1,.54.26.23.46.51.59.84.13.33.2.69.2,1.1s-.07.77-.21,1.1-.34.62-.62.86c-.27.24-.6.43-1,.56-.4.13-.86.2-1.38.2h-1.38v3.22h-1.16v-8.6h2.54ZM267.47,157.05c.33,0,.62-.04.88-.13.25-.09.47-.21.64-.37.17-.16.3-.35.39-.57s.13-.46.13-.73c0-.55-.17-.98-.51-1.28-.34-.31-.85-.46-1.54-.46h-1.38v3.54h1.38Z"/>
    <path class="cls-2" d="M279.7,160.18c.12,0,.21.03.28.1.07.07.1.16.1.26v.65h-5.74v-.37c0-.08.02-.15.05-.23.03-.08.08-.15.15-.22l2.75-2.77c.23-.23.44-.46.62-.67.19-.21.35-.43.48-.65.13-.22.23-.43.31-.66.07-.22.11-.46.11-.71s-.04-.47-.12-.66c-.08-.19-.19-.35-.33-.47s-.3-.22-.49-.28c-.19-.06-.39-.09-.61-.09s-.42.03-.61.1c-.18.06-.35.15-.49.27-.14.11-.26.25-.36.41s-.16.33-.2.52c-.05.14-.11.23-.2.28s-.2.06-.34.04l-.56-.1c.06-.39.17-.74.33-1.04.16-.3.37-.56.61-.76s.53-.36.84-.46c.32-.11.66-.16,1.03-.16s.7.05,1.02.16c.32.11.59.27.82.47.23.21.41.46.55.75.13.3.2.63.2,1.01,0,.32-.05.62-.14.89-.1.27-.23.54-.39.78s-.35.49-.57.73c-.21.24-.44.47-.68.71l-2.27,2.32c.16-.04.32-.08.49-.1.16-.03.32-.04.47-.04h2.88Z"/>
    <path class="cls-2" d="M287.14,160.24v.95h-5.3v-8.6h5.3v.95h-4.13v2.86h3.35v.91h-3.35v2.93h4.14Z"/>
  </g>
  <rect class="cls-1" x="124" y="194" width="55" height="24"/>
  <g>
    <path class="cls-2" d="M135.1,208.41c.06,0,.12.03.17.08l.46.5c-.35.41-.78.73-1.28.95-.5.23-1.11.34-1.82.34-.62,0-1.18-.11-1.68-.32-.5-.21-.93-.51-1.29-.9-.36-.39-.63-.85-.83-1.39-.2-.54-.29-1.13-.29-1.78s.1-1.24.31-1.78.49-1,.86-1.39c.37-.39.81-.69,1.33-.9.52-.21,1.09-.32,1.71-.32s1.15.1,1.62.29c.47.2.88.46,1.24.8l-.38.53s-.05.07-.09.1c-.04.03-.09.04-.15.04-.07,0-.16-.04-.26-.12-.1-.08-.24-.17-.41-.26-.17-.1-.38-.18-.63-.26s-.56-.12-.93-.12c-.44,0-.85.08-1.22.23s-.68.38-.95.67c-.27.29-.47.65-.62,1.07-.15.42-.22.89-.22,1.42s.08,1.01.23,1.43c.15.42.36.78.63,1.07.27.29.58.51.94.66.36.15.75.23,1.17.23.26,0,.49-.01.69-.04s.4-.08.57-.14c.17-.06.34-.15.49-.24.15-.1.3-.21.45-.35.07-.06.14-.09.2-.09Z"/>
    <path class="cls-2" d="M140.31,206.76v3.43h-1.16v-3.43l-3.15-5.17h1.02c.1,0,.19.02.25.07.06.05.11.12.16.2l1.97,3.34c.07.14.14.27.2.39.06.12.11.25.16.37.04-.12.09-.25.15-.37.06-.12.12-.25.19-.39l1.96-3.34c.04-.07.09-.13.15-.19.06-.06.15-.08.25-.08h1.03l-3.15,5.17Z"/>
    <path class="cls-2" d="M147.11,201.59c.54,0,1.02.06,1.42.19.4.13.74.31,1,.54.26.23.46.51.59.84.13.33.2.69.2,1.1s-.07.77-.21,1.1-.34.62-.62.86c-.27.24-.6.43-1,.56-.4.13-.86.2-1.38.2h-1.38v3.22h-1.16v-8.6h2.54ZM147.11,206.05c.33,0,.62-.04.88-.13.25-.09.47-.21.64-.37.17-.16.3-.35.39-.57s.13-.46.13-.73c0-.55-.17-.98-.51-1.28-.34-.31-.85-.46-1.54-.46h-1.38v3.54h1.38Z"/>
    <path class="cls-2" d="M159.34,209.18c.12,0,.21.03.28.1.07.07.1.16.1.26v.65h-5.74v-.37c0-.08.02-.15.05-.23.03-.08.08-.15.15-.22l2.75-2.77c.23-.23.44-.46.62-.67.19-.21.35-.43.48-.65.13-.22.23-.43.31-.66.07-.22.11-.46.11-.71s-.04-.47-.12-.66c-.08-.19-.19-.35-.33-.47s-.3-.22-.49-.28c-.19-.06-.39-.09-.61-.09s-.42.03-.61.1c-.18.06-.35.15-.49.27-.14.11-.26.25-.36.41s-.16.33-.2.52c-.05.14-.11.23-.2.28s-.2.06-.34.04l-.56-.1c.06-.39.17-.74.33-1.04.16-.3.37-.56.61-.76s.53-.36.84-.46c.32-.11.66-.16,1.03-.16s.7.05,1.02.16c.32.11.59.27.82.47.23.21.41.46.55.75.13.3.2.63.2,1.01,0,.32-.05.62-.14.89-.1.27-.23.54-.39.78s-.35.49-.57.73c-.21.24-.44.47-.68.71l-2.27,2.32c.16-.04.32-.08.49-.1.16-.03.32-.04.47-.04h2.88Z"/>
    <path class="cls-2" d="M167.52,208.41c.06,0,.12.03.17.08l.46.5c-.35.41-.78.73-1.28.95-.5.23-1.11.34-1.82.34-.62,0-1.18-.11-1.68-.32-.5-.21-.93-.51-1.29-.9-.36-.39-.63-.85-.83-1.39-.2-.54-.29-1.13-.29-1.78s.1-1.24.31-1.78.49-1,.86-1.39c.37-.39.81-.69,1.33-.9.52-.21,1.09-.32,1.71-.32s1.15.1,1.62.29c.47.2.88.46,1.24.8l-.38.53s-.05.07-.09.1c-.04.03-.09.04-.15.04-.07,0-.16-.04-.26-.12-.1-.08-.24-.17-.41-.26-.17-.1-.38-.18-.63-.26s-.56-.12-.93-.12c-.44,0-.85.08-1.22.23s-.68.38-.95.67c-.27.29-.47.65-.62,1.07-.15.42-.22.89-.22,1.42s.08,1.01.23,1.43c.15.42.36.78.63,1.07.27.29.58.51.94.66.36.15.75.23,1.17.23.26,0,.49-.01.69-.04s.4-.08.57-.14c.17-.06.34-.15.49-.24.15-.1.3-.21.45-.35.07-.06.14-.09.2-.09Z"/>
    <path class="cls-2" d="M172.59,206.76c.09-.12.17-.23.25-.33.08-.1.15-.21.22-.31-.22.18-.47.31-.74.4s-.57.14-.88.14c-.32,0-.63-.05-.92-.16-.29-.11-.54-.27-.77-.48-.22-.21-.39-.47-.52-.77-.13-.31-.2-.66-.2-1.05,0-.38.07-.73.21-1.06s.34-.61.59-.86.55-.44.9-.58c.35-.14.73-.21,1.15-.21s.79.07,1.12.2c.34.14.62.33.86.57s.42.54.55.88.2.72.2,1.13c0,.25-.02.48-.07.71s-.11.44-.2.65-.19.43-.32.64-.26.42-.42.64l-2.09,3.02c-.05.08-.13.14-.22.18-.1.05-.21.07-.33.07h-.98l2.62-3.43ZM170.1,204.12c0,.27.04.52.12.73.08.21.19.39.34.54.15.15.32.26.53.34s.45.11.71.11c.29,0,.54-.05.77-.14.22-.09.41-.22.56-.38s.27-.34.35-.54c.08-.2.12-.42.12-.64,0-.27-.04-.51-.13-.73-.09-.22-.21-.4-.36-.55-.15-.15-.33-.27-.54-.35s-.44-.12-.69-.12-.5.04-.72.13-.4.21-.56.36c-.16.15-.28.33-.36.55s-.13.44-.13.7Z"/>
  </g>
  <rect class="cls-1" x="122" y="243" width="62" height="24"/>
  <g>
    <path class="cls-2" d="M134.12,257.41c.06,0,.12.03.17.08l.46.5c-.35.41-.78.73-1.28.95-.5.23-1.11.34-1.82.34-.62,0-1.18-.11-1.68-.32-.5-.21-.93-.51-1.29-.9-.36-.39-.63-.85-.83-1.39-.2-.54-.29-1.13-.29-1.78s.1-1.24.31-1.78.49-1,.86-1.39c.37-.39.81-.69,1.33-.9.52-.21,1.09-.32,1.71-.32s1.15.1,1.62.29c.47.2.88.46,1.24.8l-.38.53s-.05.07-.09.1c-.04.03-.09.04-.15.04-.07,0-.16-.04-.26-.12-.1-.08-.24-.17-.41-.26-.17-.1-.38-.18-.63-.26s-.56-.12-.93-.12c-.44,0-.85.08-1.22.23s-.68.38-.95.67c-.27.29-.47.65-.62,1.07-.15.42-.22.89-.22,1.42s.08,1.01.23,1.43c.15.42.36.78.63,1.07.27.29.58.51.94.66.36.15.75.23,1.17.23.26,0,.49-.01.69-.04s.4-.08.57-.14c.17-.06.34-.15.49-.24.15-.1.3-.21.45-.35.07-.06.14-.09.2-.09Z"/>
    <path class="cls-2" d="M139.33,255.76v3.43h-1.16v-3.43l-3.15-5.17h1.02c.1,0,.19.02.25.07.06.05.11.12.16.2l1.97,3.34c.07.14.14.27.2.39.06.12.11.25.16.37.04-.12.09-.25.15-.37.06-.12.12-.25.19-.39l1.96-3.34c.04-.07.09-.13.15-.19.06-.06.15-.08.25-.08h1.03l-3.15,5.17Z"/>
    <path class="cls-2" d="M146.13,250.59c.54,0,1.02.06,1.42.19.4.13.74.31,1,.54.26.23.46.51.59.84.13.33.2.69.2,1.1s-.07.77-.21,1.1-.34.62-.62.86c-.27.24-.6.43-1,.56-.4.13-.86.2-1.38.2h-1.38v3.22h-1.16v-8.6h2.54ZM146.13,255.05c.33,0,.62-.04.88-.13.25-.09.47-.21.64-.37.17-.16.3-.35.39-.57s.13-.46.13-.73c0-.55-.17-.98-.51-1.28-.34-.31-.85-.46-1.54-.46h-1.38v3.54h1.38Z"/>
    <path class="cls-2" d="M158.36,258.18c.12,0,.21.03.28.1.07.07.1.16.1.26v.65h-5.74v-.37c0-.08.02-.15.05-.23.03-.08.08-.15.15-.22l2.75-2.77c.23-.23.44-.46.62-.67.19-.21.35-.43.48-.65.13-.22.23-.43.31-.66.07-.22.11-.46.11-.71s-.04-.47-.12-.66c-.08-.19-.19-.35-.33-.47s-.3-.22-.49-.28c-.19-.06-.39-.09-.61-.09s-.42.03-.61.1c-.18.06-.35.15-.49.27-.14.11-.26.25-.36.41s-.16.33-.2.52c-.05.14-.11.23-.2.28s-.2.06-.34.04l-.56-.1c.06-.39.17-.74.33-1.04.16-.3.37-.56.61-.76s.53-.36.84-.46c.32-.11.66-.16,1.03-.16s.7.05,1.02.16c.32.11.59.27.82.47.23.21.41.46.55.75.13.3.2.63.2,1.01,0,.32-.05.62-.14.89-.1.27-.23.54-.39.78s-.35.49-.57.73c-.21.24-.44.47-.68.71l-2.27,2.32c.16-.04.32-.08.49-.1.16-.03.32-.04.47-.04h2.88Z"/>
    <path class="cls-2" d="M166.54,257.41c.06,0,.12.03.17.08l.46.5c-.35.41-.78.73-1.28.95-.5.23-1.11.34-1.82.34-.62,0-1.18-.11-1.68-.32-.5-.21-.93-.51-1.29-.9-.36-.39-.63-.85-.83-1.39-.2-.54-.29-1.13-.29-1.78s.1-1.24.31-1.78.49-1,.86-1.39c.37-.39.81-.69,1.33-.9.52-.21,1.09-.32,1.71-.32s1.15.1,1.62.29c.47.2.88.46,1.24.8l-.38.53s-.05.07-.09.1c-.04.03-.09.04-.15.04-.07,0-.16-.04-.26-.12-.1-.08-.24-.17-.41-.26-.17-.1-.38-.18-.63-.26s-.56-.12-.93-.12c-.44,0-.85.08-1.22.23s-.68.38-.95.67c-.27.29-.47.65-.62,1.07-.15.42-.22.89-.22,1.42s.08,1.01.23,1.43c.15.42.36.78.63,1.07.27.29.58.51.94.66.36.15.75.23,1.17.23.26,0,.49-.01.69-.04s.4-.08.57-.14c.17-.06.34-.15.49-.24.15-.1.3-.21.45-.35.07-.06.14-.09.2-.09Z"/>
    <path class="cls-2" d="M173.53,258.37v.82h-4.61v-.82h1.84v-5.86c0-.18,0-.35.02-.53l-1.53,1.31c-.05.04-.1.07-.16.08-.05.01-.1.01-.14,0-.04,0-.08-.02-.12-.05-.04-.02-.07-.05-.09-.08l-.34-.46,2.56-2.21h.87v7.8h1.69Z"/>
    <path class="cls-2" d="M178.57,255.76c.09-.12.17-.23.25-.33.08-.1.15-.21.22-.31-.22.18-.47.31-.74.4s-.57.14-.88.14c-.32,0-.63-.05-.92-.16-.29-.11-.54-.27-.77-.48-.22-.21-.39-.47-.52-.77-.13-.31-.2-.66-.2-1.05,0-.38.07-.73.21-1.06s.34-.61.59-.86.55-.44.9-.58c.35-.14.73-.21,1.15-.21s.79.07,1.12.2c.34.14.62.33.86.57s.42.54.55.88.2.72.2,1.13c0,.25-.02.48-.07.71s-.11.44-.2.65-.19.43-.32.64-.26.42-.42.64l-2.09,3.02c-.05.08-.13.14-.22.18-.1.05-.21.07-.33.07h-.98l2.62-3.43ZM176.08,253.12c0,.27.04.52.12.73.08.21.19.39.34.54.15.15.32.26.53.34s.45.11.71.11c.29,0,.54-.05.77-.14.22-.09.41-.22.56-.38s.27-.34.35-.54c.08-.2.12-.42.12-.64,0-.27-.04-.51-.13-.73-.09-.22-.21-.4-.36-.55-.15-.15-.33-.27-.54-.35s-.44-.12-.69-.12-.5.04-.72.13-.4.21-.56.36c-.16.15-.28.33-.36.55s-.13.44-.13.7Z"/>
  </g>
  <rect class="cls-1" x="38" y="194" width="55" height="24"/>
  <g>
    <path class="cls-2" d="M49.84,208.41c.06,0,.12.03.17.08l.46.5c-.35.41-.78.73-1.28.95-.5.23-1.11.34-1.82.34-.62,0-1.18-.11-1.68-.32-.5-.21-.93-.51-1.29-.9-.36-.39-.63-.85-.83-1.39-.2-.54-.29-1.13-.29-1.78s.1-1.24.31-1.78.49-1,.86-1.39c.37-.39.81-.69,1.33-.9.52-.21,1.09-.32,1.71-.32s1.15.1,1.62.29c.47.2.88.46,1.24.8l-.38.53s-.05.07-.09.1c-.04.03-.09.04-.15.04-.07,0-.16-.04-.26-.12-.1-.08-.24-.17-.41-.26-.17-.1-.38-.18-.63-.26s-.56-.12-.93-.12c-.44,0-.85.08-1.22.23s-.68.38-.95.67c-.27.29-.47.65-.62,1.07-.15.42-.22.89-.22,1.42s.08,1.01.23,1.43c.15.42.36.78.63,1.07.27.29.58.51.94.66.36.15.75.23,1.17.23.26,0,.49-.01.69-.04s.4-.08.57-.14c.17-.06.34-.15.49-.24.15-.1.3-.21.45-.35.07-.06.14-.09.2-.09Z"/>
    <path class="cls-2" d="M55.05,206.76v3.43h-1.16v-3.43l-3.15-5.17h1.02c.1,0,.19.02.25.07.06.05.11.12.16.2l1.97,3.34c.07.14.14.27.2.39.06.12.11.25.16.37.04-.12.09-.25.15-.37.06-.12.12-.25.19-.39l1.96-3.34c.04-.07.09-.13.15-.19.06-.06.15-.08.25-.08h1.03l-3.15,5.17Z"/>
    <path class="cls-2" d="M61.85,201.59c.54,0,1.02.06,1.42.19.4.13.74.31,1,.54.26.23.46.51.59.84.13.33.2.69.2,1.1s-.07.77-.21,1.1-.34.62-.62.86c-.27.24-.6.43-1,.56-.4.13-.86.2-1.38.2h-1.38v3.22h-1.16v-8.6h2.54ZM61.85,206.05c.33,0,.62-.04.88-.13.25-.09.47-.21.64-.37.17-.16.3-.35.39-.57s.13-.46.13-.73c0-.55-.17-.98-.51-1.28-.34-.31-.85-.46-1.54-.46h-1.38v3.54h1.38Z"/>
    <path class="cls-2" d="M74.27,209.37v.82h-4.61v-.82h1.84v-5.86c0-.18,0-.35.02-.53l-1.53,1.31c-.05.04-.1.07-.16.08-.05.01-.1.01-.14,0-.04,0-.08-.02-.12-.05-.04-.02-.07-.05-.09-.08l-.34-.46,2.56-2.21h.87v7.8h1.69Z"/>
    <path class="cls-2" d="M83.21,210.19h-.9c-.1,0-.19-.03-.25-.08-.06-.05-.11-.12-.14-.2l-.8-2.08h-3.86l-.8,2.08c-.02.07-.07.14-.14.19-.07.06-.15.08-.25.08h-.9l3.44-8.6h1.18l3.44,8.6ZM80.78,207l-1.35-3.5c-.04-.1-.08-.22-.13-.36-.04-.14-.09-.29-.13-.44-.08.32-.17.59-.26.81l-1.35,3.49h3.21Z"/>
    <path class="cls-2" d="M89.16,209.18c.12,0,.21.03.28.1.07.07.1.16.1.26v.65h-5.74v-.37c0-.08.02-.15.05-.23.03-.08.08-.15.15-.22l2.75-2.77c.23-.23.44-.46.62-.67.19-.21.35-.43.48-.65.13-.22.23-.43.31-.66.07-.22.11-.46.11-.71s-.04-.47-.12-.66c-.08-.19-.19-.35-.33-.47s-.3-.22-.49-.28c-.19-.06-.39-.09-.61-.09s-.42.03-.61.1c-.18.06-.35.15-.49.27-.14.11-.26.25-.36.41s-.16.33-.2.52c-.05.14-.11.23-.2.28s-.2.06-.34.04l-.56-.1c.06-.39.17-.74.33-1.04.16-.3.37-.56.61-.76s.53-.36.84-.46c.32-.11.66-.16,1.03-.16s.7.05,1.02.16c.32.11.59.27.82.47.23.21.41.46.55.75.13.3.2.63.2,1.01,0,.32-.05.62-.14.89-.1.27-.23.54-.39.78s-.35.49-.57.73c-.21.24-.44.47-.68.71l-2.27,2.32c.16-.04.32-.08.49-.1.16-.03.32-.04.47-.04h2.88Z"/>
  </g>
  <rect class="cls-1" x="334.21" y="194" width="55" height="24"/>
  <g>
    <path class="cls-2" d="M344.89,208.41c.06,0,.12.03.17.08l.46.5c-.35.41-.78.73-1.28.95-.5.23-1.11.34-1.82.34-.62,0-1.18-.11-1.68-.32-.5-.21-.93-.51-1.29-.9-.36-.39-.63-.85-.83-1.39-.2-.54-.29-1.13-.29-1.78s.1-1.24.31-1.78.49-1,.86-1.39c.37-.39.81-.69,1.33-.9.52-.21,1.09-.32,1.71-.32s1.15.1,1.62.29c.47.2.88.46,1.24.8l-.38.53s-.05.07-.09.1c-.04.03-.09.04-.15.04-.07,0-.16-.04-.26-.12-.1-.08-.24-.17-.41-.26-.17-.1-.38-.18-.63-.26s-.56-.12-.93-.12c-.44,0-.85.08-1.22.23s-.68.38-.95.67c-.27.29-.47.65-.62,1.07-.15.42-.22.89-.22,1.42s.08,1.01.23,1.43c.15.42.36.78.63,1.07.27.29.58.51.94.66.36.15.75.23,1.17.23.26,0,.49-.01.69-.04s.4-.08.57-.14c.17-.06.34-.15.49-.24.15-.1.3-.21.45-.35.07-.06.14-.09.2-.09Z"/>
    <path class="cls-2" d="M350.09,206.76v3.43h-1.16v-3.43l-3.15-5.17h1.02c.1,0,.19.02.25.07.06.05.11.12.16.2l1.97,3.34c.07.14.14.27.2.39.06.12.11.25.16.37.04-.12.09-.25.15-.37.06-.12.12-.25.19-.39l1.96-3.34c.04-.07.09-.13.15-.19.06-.06.15-.08.25-.08h1.03l-3.15,5.17Z"/>
    <path class="cls-2" d="M356.89,201.59c.54,0,1.02.06,1.42.19.4.13.74.31,1,.54.26.23.46.51.59.84.13.33.2.69.2,1.1s-.07.77-.21,1.1-.34.62-.62.86c-.27.24-.6.43-1,.56-.4.13-.86.2-1.38.2h-1.38v3.22h-1.16v-8.6h2.54ZM356.89,206.05c.33,0,.62-.04.88-.13.25-.09.47-.21.64-.37.17-.16.3-.35.39-.57s.13-.46.13-.73c0-.55-.17-.98-.51-1.28-.34-.31-.85-.46-1.54-.46h-1.38v3.54h1.38Z"/>
    <path class="cls-2" d="M363.98,203.92c.06-.39.16-.74.32-1.04.16-.3.36-.56.61-.76s.53-.36.85-.46c.32-.11.66-.16,1.03-.16s.7.05,1.01.16c.31.1.57.25.79.44.22.19.4.42.52.7.12.27.19.57.19.91,0,.27-.04.52-.1.73-.07.21-.17.4-.3.56-.13.16-.29.3-.47.41-.18.11-.39.2-.62.28.56.14.98.39,1.26.74.28.35.42.79.42,1.31,0,.4-.08.75-.22,1.07-.15.32-.36.58-.62.81-.26.22-.56.39-.91.51s-.72.18-1.11.18c-.46,0-.85-.06-1.17-.17s-.6-.27-.82-.47c-.22-.2-.41-.44-.55-.71-.14-.27-.27-.57-.37-.89l.46-.19c.12-.05.24-.07.35-.04.11.02.2.09.25.2.05.11.12.25.2.4.08.16.18.31.32.45s.31.27.52.37c.21.1.48.15.8.15.3,0,.56-.05.79-.15.23-.1.41-.23.56-.38.15-.16.26-.33.34-.52.08-.19.11-.38.11-.57,0-.23-.03-.44-.09-.64-.06-.19-.17-.36-.34-.5-.16-.14-.39-.25-.67-.33-.29-.08-.65-.12-1.1-.12v-.77c.37,0,.68-.04.94-.12s.47-.18.63-.31c.16-.13.28-.29.35-.47.07-.18.11-.39.11-.61,0-.25-.04-.46-.12-.65-.08-.18-.18-.34-.32-.46-.14-.12-.3-.21-.48-.27-.19-.06-.39-.09-.6-.09s-.42.03-.6.1c-.19.06-.35.15-.49.27-.14.11-.26.25-.36.41s-.16.33-.2.52c-.05.14-.12.23-.2.28s-.19.06-.34.04l-.56-.1Z"/>
    <path class="cls-2" d="M378.25,210.19h-.9c-.1,0-.19-.03-.25-.08-.06-.05-.11-.12-.14-.2l-.8-2.08h-3.86l-.8,2.08c-.02.07-.07.14-.14.19-.07.06-.15.08-.25.08h-.9l3.44-8.6h1.18l3.44,8.6ZM375.83,207l-1.35-3.5c-.04-.1-.08-.22-.13-.36-.04-.14-.09-.29-.13-.44-.08.32-.17.59-.26.81l-1.35,3.49h3.21Z"/>
    <path class="cls-2" d="M384.91,207.09v.61c0,.06-.02.12-.06.16s-.1.07-.18.07h-1.07v2.26h-.94v-2.26h-3.82c-.08,0-.15-.02-.21-.07-.06-.05-.1-.1-.11-.17l-.11-.55,4.18-5.55h1v5.5h1.3ZM382.67,207.09v-3.55c0-.1,0-.22.01-.34,0-.12.02-.25.04-.38l-3.13,4.27h3.08Z"/>
  </g>
  <rect class="cls-1" x="189.2" y="194" width="55" height="24"/>
  <g>
    <path class="cls-2" d="M199.19,208.41c.06,0,.12.03.17.08l.46.5c-.35.41-.78.73-1.28.95-.5.23-1.11.34-1.82.34-.62,0-1.18-.11-1.68-.32-.5-.21-.93-.51-1.29-.9-.36-.39-.63-.85-.83-1.39-.2-.54-.29-1.13-.29-1.78s.1-1.24.31-1.78.49-1,.86-1.39c.37-.39.81-.69,1.33-.9.52-.21,1.09-.32,1.71-.32s1.15.1,1.62.29c.47.2.88.46,1.24.8l-.38.53s-.05.07-.09.1c-.04.03-.09.04-.15.04-.07,0-.16-.04-.26-.12-.1-.08-.24-.17-.41-.26-.17-.1-.38-.18-.63-.26s-.56-.12-.93-.12c-.44,0-.85.08-1.22.23s-.68.38-.95.67c-.27.29-.47.65-.62,1.07-.15.42-.22.89-.22,1.42s.08,1.01.23,1.43c.15.42.36.78.63,1.07.27.29.58.51.94.66.36.15.75.23,1.17.23.26,0,.49-.01.69-.04s.4-.08.57-.14c.17-.06.34-.15.49-.24.15-.1.3-.21.45-.35.07-.06.14-.09.2-.09Z"/>
    <path class="cls-2" d="M204.4,206.76v3.43h-1.16v-3.43l-3.15-5.17h1.02c.1,0,.19.02.25.07.06.05.11.12.16.2l1.97,3.34c.07.14.14.27.2.39.06.12.11.25.16.37.04-.12.09-.25.15-.37.06-.12.12-.25.19-.39l1.96-3.34c.04-.07.09-.13.15-.19.06-.06.15-.08.25-.08h1.03l-3.15,5.17Z"/>
    <path class="cls-2" d="M211.19,201.59c.54,0,1.02.06,1.42.19.4.13.74.31,1,.54.26.23.46.51.59.84.13.33.2.69.2,1.1s-.07.77-.21,1.1-.34.62-.62.86c-.27.24-.6.43-1,.56-.4.13-.86.2-1.38.2h-1.38v3.22h-1.16v-8.6h2.54ZM211.19,206.05c.33,0,.62-.04.88-.13.25-.09.47-.21.64-.37.17-.16.3-.35.39-.57s.13-.46.13-.73c0-.55-.17-.98-.51-1.28-.34-.31-.85-.46-1.54-.46h-1.38v3.54h1.38Z"/>
    <path class="cls-2" d="M223.43,209.18c.12,0,.21.03.28.1.07.07.1.16.1.26v.65h-5.74v-.37c0-.08.02-.15.05-.23.03-.08.08-.15.15-.22l2.75-2.77c.23-.23.44-.46.62-.67.19-.21.35-.43.48-.65.13-.22.23-.43.31-.66.07-.22.11-.46.11-.71s-.04-.47-.12-.66c-.08-.19-.19-.35-.33-.47s-.3-.22-.49-.28c-.19-.06-.39-.09-.61-.09s-.42.03-.61.1c-.18.06-.35.15-.49.27-.14.11-.26.25-.36.41s-.16.33-.2.52c-.05.14-.11.23-.2.28s-.2.06-.34.04l-.56-.1c.06-.39.17-.74.33-1.04.16-.3.37-.56.61-.76s.53-.36.84-.46c.32-.11.66-.16,1.03-.16s.7.05,1.02.16c.32.11.59.27.82.47.23.21.41.46.55.75.13.3.2.63.2,1.01,0,.32-.05.62-.14.89-.1.27-.23.54-.39.78s-.35.49-.57.73c-.21.24-.44.47-.68.71l-2.27,2.32c.16-.04.32-.08.49-.1.16-.03.32-.04.47-.04h2.88Z"/>
    <path class="cls-2" d="M233.02,205.89c0,.64-.1,1.23-.31,1.76s-.49.98-.86,1.36-.82.67-1.34.87c-.52.21-1.1.31-1.73.31h-3.21v-8.6h3.21c.63,0,1.21.1,1.73.31.52.21.97.5,1.34.88s.66.83.86,1.36c.2.53.31,1.11.31,1.76ZM231.82,205.89c0-.53-.07-1-.22-1.42-.14-.42-.35-.77-.61-1.06-.26-.29-.58-.51-.96-.66-.38-.15-.8-.23-1.26-.23h-2.05v6.71h2.05c.46,0,.88-.08,1.26-.23s.7-.37.96-.66c.26-.29.47-.64.61-1.05.14-.42.22-.89.22-1.42Z"/>
    <path class="cls-2" d="M236.44,204.81c-.08.1-.15.19-.22.28s-.14.18-.2.27c.2-.14.43-.25.67-.32.24-.08.51-.11.8-.11.35,0,.68.06.98.17.31.11.58.28.81.5.23.22.41.49.55.8.14.32.2.68.2,1.09s-.07.76-.22,1.1c-.14.34-.34.64-.6.89s-.57.45-.93.59c-.36.14-.76.22-1.2.22s-.82-.07-1.18-.21c-.35-.14-.65-.33-.9-.59s-.44-.56-.57-.92c-.13-.36-.2-.77-.2-1.21,0-.38.08-.78.25-1.2.17-.43.43-.88.79-1.37l2.18-2.93c.06-.07.13-.13.23-.18.1-.05.21-.07.34-.07h.95l-2.55,3.22ZM237.06,209.4c.29,0,.55-.05.78-.14s.43-.22.6-.38c.17-.16.29-.36.38-.58.09-.22.13-.47.13-.73,0-.28-.04-.53-.13-.76-.09-.23-.21-.42-.38-.58s-.36-.28-.58-.36c-.22-.08-.47-.13-.74-.13-.29,0-.55.05-.78.15-.23.1-.43.23-.59.4s-.29.36-.37.58-.13.45-.13.68c0,.28.04.53.12.76.08.23.2.42.35.59.15.16.34.29.56.38s.47.13.76.13Z"/>
  </g>
  <rect class="cls-1" x="254.57" y="194" width="55" height="24"/>
  <g>
    <path class="cls-2" d="M267.07,208.41c.06,0,.12.03.17.08l.46.5c-.35.41-.78.73-1.28.95-.5.23-1.11.34-1.82.34-.62,0-1.18-.11-1.68-.32-.5-.21-.93-.51-1.29-.9-.36-.39-.63-.85-.83-1.39-.2-.54-.29-1.13-.29-1.78s.1-1.24.31-1.78.49-1,.86-1.39c.37-.39.81-.69,1.33-.9.52-.21,1.09-.32,1.71-.32s1.15.1,1.62.29c.47.2.88.46,1.24.8l-.38.53s-.05.07-.09.1c-.04.03-.09.04-.15.04-.07,0-.16-.04-.26-.12-.1-.08-.24-.17-.41-.26-.17-.1-.38-.18-.63-.26s-.56-.12-.93-.12c-.44,0-.85.08-1.22.23s-.68.38-.95.67c-.27.29-.47.65-.62,1.07-.15.42-.22.89-.22,1.42s.08,1.01.23,1.43c.15.42.36.78.63,1.07.27.29.58.51.94.66.36.15.75.23,1.17.23.26,0,.49-.01.69-.04s.4-.08.57-.14c.17-.06.34-.15.49-.24.15-.1.3-.21.45-.35.07-.06.14-.09.2-.09Z"/>
    <path class="cls-2" d="M272.27,206.76v3.43h-1.16v-3.43l-3.15-5.17h1.02c.1,0,.19.02.25.07.06.05.11.12.16.2l1.97,3.34c.07.14.14.27.2.39.06.12.11.25.16.37.04-.12.09-.25.15-.37.06-.12.12-.25.19-.39l1.96-3.34c.04-.07.09-.13.15-.19.06-.06.15-.08.25-.08h1.03l-3.15,5.17Z"/>
    <path class="cls-2" d="M279.07,201.59c.54,0,1.02.06,1.42.19.4.13.74.31,1,.54.26.23.46.51.59.84.13.33.2.69.2,1.1s-.07.77-.21,1.1-.34.62-.62.86c-.27.24-.6.43-1,.56-.4.13-.86.2-1.38.2h-1.38v3.22h-1.16v-8.6h2.54ZM279.07,206.05c.33,0,.62-.04.88-.13.25-.09.47-.21.64-.37.17-.16.3-.35.39-.57s.13-.46.13-.73c0-.55-.17-.98-.51-1.28-.34-.31-.85-.46-1.54-.46h-1.38v3.54h1.38Z"/>
    <path class="cls-2" d="M291.31,209.18c.12,0,.21.03.28.1.07.07.1.16.1.26v.65h-5.74v-.37c0-.08.02-.15.05-.23.03-.08.08-.15.15-.22l2.75-2.77c.23-.23.44-.46.62-.67.19-.21.35-.43.48-.65.13-.22.23-.43.31-.66.07-.22.11-.46.11-.71s-.04-.47-.12-.66c-.08-.19-.19-.35-.33-.47s-.3-.22-.49-.28c-.19-.06-.39-.09-.61-.09s-.42.03-.61.1c-.18.06-.35.15-.49.27-.14.11-.26.25-.36.41s-.16.33-.2.52c-.05.14-.11.23-.2.28s-.2.06-.34.04l-.56-.1c.06-.39.17-.74.33-1.04.16-.3.37-.56.61-.76s.53-.36.84-.46c.32-.11.66-.16,1.03-.16s.7.05,1.02.16c.32.11.59.27.82.47.23.21.41.46.55.75.13.3.2.63.2,1.01,0,.32-.05.62-.14.89-.1.27-.23.54-.39.78s-.35.49-.57.73c-.21.24-.44.47-.68.71l-2.27,2.32c.16-.04.32-.08.49-.1.16-.03.32-.04.47-.04h2.88Z"/>
    <path class="cls-2" d="M298.75,209.24v.95h-5.3v-8.6h5.3v.95h-4.13v2.86h3.35v.91h-3.35v2.93h4.14Z"/>
    <path class="cls-2" d="M305.38,209.37v.82h-4.61v-.82h1.84v-5.86c0-.18,0-.35.02-.53l-1.53,1.31c-.05.04-.1.07-.16.08-.05.01-.1.01-.14,0-.04,0-.08-.02-.12-.05-.04-.02-.07-.05-.09-.08l-.34-.46,2.56-2.21h.87v7.8h1.69Z"/>
  </g>
  <g>
    <path class="cls-2" d="M267.4,57.16c-.05.08-.1.14-.15.18-.05.04-.12.06-.2.06-.08,0-.18-.03-.27-.09-.1-.06-.21-.13-.35-.21-.14-.08-.3-.14-.48-.21-.18-.06-.4-.09-.64-.09-.22,0-.42.03-.59.08s-.31.13-.42.22c-.11.1-.2.21-.25.35-.06.13-.08.28-.08.44,0,.2.06.37.17.51.11.14.27.25.45.35.19.1.4.18.64.26.24.08.49.16.74.24s.5.19.74.3.45.26.64.43c.19.17.34.39.45.64.11.25.17.56.17.92,0,.39-.07.76-.2,1.1-.13.34-.33.64-.59.89-.26.25-.57.45-.95.6-.37.15-.8.22-1.28.22-.28,0-.55-.03-.82-.08-.27-.05-.53-.13-.77-.23-.25-.1-.48-.22-.69-.36-.22-.14-.41-.3-.58-.47l.47-.77c.04-.06.09-.1.16-.14.06-.04.13-.06.2-.06.1,0,.21.04.32.12.12.08.25.17.41.27.16.1.35.19.56.27s.47.12.77.12c.46,0,.82-.11,1.07-.33s.38-.53.38-.94c0-.23-.06-.41-.17-.56-.11-.14-.26-.26-.45-.36-.19-.1-.4-.18-.64-.25-.24-.07-.48-.14-.73-.22s-.49-.18-.73-.29c-.24-.11-.45-.26-.64-.44-.19-.18-.34-.4-.45-.67-.11-.27-.17-.6-.17-1,0-.32.06-.62.19-.92s.31-.57.55-.8.54-.42.89-.56c.35-.14.76-.21,1.21-.21.51,0,.98.08,1.42.24.43.16.8.38,1.1.67l-.4.76Z"/>
    <path class="cls-2" d="M274.33,58.1v6.16h-.91c-.2,0-.32-.09-.37-.27l-.1-.49c-.25.26-.53.46-.83.62-.3.16-.66.24-1.07.24-.34,0-.63-.06-.89-.17-.26-.11-.48-.27-.65-.48s-.31-.46-.4-.74c-.09-.29-.13-.6-.13-.95v-3.91h1.48v3.91c0,.38.09.67.26.87s.43.31.78.31c.26,0,.5-.06.72-.17.22-.11.44-.27.64-.47v-4.45h1.48Z"/>
    <path class="cls-2" d="M277.2,58.94c.25-.28.54-.51.86-.69s.7-.26,1.13-.26c.34,0,.64.07.92.21.28.14.52.34.72.61.2.27.36.59.47.98.11.39.17.84.17,1.34,0,.46-.06.89-.19,1.28-.12.39-.3.73-.53,1.02-.23.29-.51.51-.83.67s-.69.24-1.09.24c-.34,0-.64-.05-.88-.16-.24-.11-.46-.25-.65-.44v2.52h-1.48v-8.17h.91c.19,0,.32.09.38.27l.12.57ZM277.27,62.66c.17.2.35.35.55.43.2.08.41.13.65.13s.43-.04.61-.13c.18-.08.33-.21.46-.38s.22-.39.29-.65c.07-.26.1-.57.1-.93s-.03-.67-.09-.92c-.06-.25-.14-.45-.25-.61-.11-.16-.24-.27-.39-.34-.15-.07-.33-.11-.52-.11-.31,0-.57.06-.79.19s-.42.31-.61.55v2.76Z"/>
    <path class="cls-2" d="M283.75,61.36c.02.32.08.59.17.82.09.23.2.42.35.57.14.15.32.26.51.34.2.07.42.11.66.11s.45-.03.62-.08c.17-.06.33-.12.46-.19.13-.07.24-.13.34-.19.1-.06.19-.08.29-.08.12,0,.22.05.28.14l.43.54c-.16.19-.35.35-.55.48s-.42.23-.64.31c-.22.08-.45.13-.68.17-.23.03-.45.05-.67.05-.43,0-.83-.07-1.19-.21-.37-.14-.69-.35-.96-.63-.27-.28-.49-.62-.64-1.03s-.23-.88-.23-1.42c0-.42.07-.82.2-1.18.14-.37.33-.69.58-.97.25-.27.56-.49.93-.65s.78-.24,1.24-.24c.39,0,.75.06,1.07.19.33.12.61.31.85.54.24.24.42.53.55.88.13.35.2.74.2,1.19,0,.22-.02.38-.07.45s-.14.12-.28.12h-3.81ZM286.57,60.47c0-.19-.03-.37-.08-.54s-.13-.32-.24-.45c-.11-.13-.25-.23-.41-.3s-.36-.11-.58-.11c-.43,0-.76.12-1.01.37s-.4.59-.47,1.04h2.8Z"/>
    <path class="cls-2" d="M290.41,59.17c.19-.37.42-.66.68-.87.26-.21.58-.31.94-.31.28,0,.51.06.68.19l-.1,1.11c-.02.07-.05.12-.09.15-.04.03-.09.04-.15.04-.06,0-.15,0-.27-.03-.12-.02-.23-.03-.34-.03-.16,0-.31.02-.44.07s-.24.12-.34.21c-.1.09-.19.2-.27.33-.08.13-.15.27-.22.44v3.79h-1.48v-6.16h.87c.15,0,.26.03.32.08.06.05.1.15.12.29l.09.7Z"/>
    <path class="cls-2" d="M293.92,64.26v-5.04l-.53-.08c-.12-.02-.21-.07-.28-.12-.07-.06-.1-.14-.1-.25v-.61h.92v-.46c0-.35.05-.67.16-.95.11-.28.26-.52.46-.71.2-.2.44-.35.72-.45.28-.1.6-.16.96-.16.28,0,.55.04.79.11l-.03.74c0,.06-.02.1-.05.13-.03.03-.06.06-.11.08-.05.02-.1.03-.16.04-.06,0-.12,0-.19,0-.18,0-.33.02-.47.06s-.25.1-.35.2c-.1.09-.17.22-.22.37s-.08.34-.08.57v.41h1.6v1.06h-1.55v5.05h-1.48Z"/>
    <path class="cls-2" d="M297.63,58.96c.71-.65,1.56-.97,2.56-.97.36,0,.68.06.97.18.28.12.52.28.72.49s.34.46.45.75c.1.29.15.61.15.96v3.89h-.67c-.14,0-.25-.02-.32-.06-.08-.04-.14-.13-.18-.25l-.13-.44c-.16.14-.31.26-.46.37-.15.11-.3.19-.46.27s-.33.13-.51.17c-.18.04-.38.06-.6.06-.26,0-.5-.04-.72-.1-.22-.07-.41-.17-.57-.32-.16-.14-.28-.31-.37-.52s-.13-.45-.13-.73c0-.16.03-.31.08-.46s.14-.3.25-.44c.12-.14.27-.27.46-.4s.42-.23.69-.32c.27-.09.59-.17.96-.22.36-.06.78-.09,1.25-.11v-.36c0-.41-.09-.72-.26-.92-.18-.2-.43-.3-.76-.3-.24,0-.44.03-.6.08-.16.06-.3.12-.42.19-.12.07-.23.13-.33.19-.1.06-.21.08-.33.08-.1,0-.19-.03-.26-.08-.07-.05-.13-.12-.17-.19l-.26-.47ZM301.03,61.63c-.43.02-.79.06-1.08.11-.29.05-.53.12-.7.21s-.3.18-.38.29c-.08.11-.11.23-.11.37,0,.26.08.45.23.56.15.11.35.17.6.17.3,0,.57-.05.79-.17s.44-.28.65-.5v-1.04Z"/>
    <path class="cls-2" d="M303.86,64.26v-6.16h.91c.19,0,.32.09.38.27l.1.46c.11-.12.22-.23.34-.33.12-.1.24-.19.38-.26.13-.07.28-.13.43-.17.15-.04.32-.06.51-.06.39,0,.71.1.96.32.25.21.44.49.56.84.1-.2.22-.38.36-.53.14-.15.3-.26.47-.36.17-.09.35-.16.55-.2s.39-.07.58-.07c.34,0,.64.05.91.16.26.1.49.26.67.46s.32.44.41.73c.09.29.14.62.14.99v3.92h-1.48v-3.92c0-.39-.09-.69-.26-.88-.17-.2-.42-.3-.76-.3-.15,0-.29.03-.42.08-.13.05-.24.13-.34.23-.1.1-.17.22-.23.37-.06.15-.08.32-.08.51v3.92h-1.49v-3.92c0-.41-.08-.71-.25-.9-.17-.19-.41-.28-.73-.28-.22,0-.42.05-.6.16-.19.11-.36.25-.52.44v4.51h-1.48Z"/>
    <path class="cls-2" d="M316.83,55.48l-1.48,1.57c-.08.08-.15.13-.22.17-.07.03-.16.04-.27.04h-.89l.85-1.46c.06-.1.13-.18.21-.24.08-.05.2-.08.36-.08h1.44ZM315.45,58.1v6.16h-1.48v-6.16h1.48Z"/>
    <path class="cls-2" d="M318.77,55.34v8.92h-1.48v-8.92h1.48Z"/>
    <path class="cls-2" d="M322,56.31c0,.13-.03.25-.08.36-.05.11-.12.21-.21.29-.09.08-.19.15-.3.2s-.24.08-.37.08-.25-.03-.36-.08c-.11-.05-.21-.12-.3-.2s-.15-.18-.2-.29c-.05-.11-.08-.23-.08-.36s.02-.26.08-.37c.05-.12.12-.22.2-.3s.18-.15.3-.2c.11-.05.23-.08.36-.08s.26.03.37.08c.12.05.22.12.3.2.09.08.16.18.21.3.05.12.08.24.08.37ZM321.79,58.1v6.16h-1.49v-6.16h1.49Z"/>
    <path class="cls-2" d="M323.16,58.96c.71-.65,1.56-.97,2.56-.97.36,0,.68.06.97.18.28.12.52.28.72.49s.34.46.45.75c.1.29.15.61.15.96v3.89h-.67c-.14,0-.25-.02-.32-.06-.08-.04-.14-.13-.18-.25l-.13-.44c-.16.14-.31.26-.46.37-.15.11-.3.19-.46.27s-.33.13-.51.17c-.18.04-.38.06-.6.06-.26,0-.5-.04-.72-.1-.22-.07-.41-.17-.57-.32-.16-.14-.28-.31-.37-.52s-.13-.45-.13-.73c0-.16.03-.31.08-.46s.14-.3.25-.44c.12-.14.27-.27.46-.4s.42-.23.69-.32c.27-.09.59-.17.96-.22.36-.06.78-.09,1.25-.11v-.36c0-.41-.09-.72-.26-.92-.18-.2-.43-.3-.76-.3-.24,0-.44.03-.6.08-.16.06-.3.12-.42.19-.12.07-.23.13-.33.19-.1.06-.21.08-.33.08-.1,0-.19-.03-.26-.08-.07-.05-.13-.12-.17-.19l-.26-.47ZM326.55,61.63c-.43.02-.79.06-1.08.11-.29.05-.53.12-.7.21s-.3.18-.38.29c-.08.11-.11.23-.11.37,0,.26.08.45.23.56.15.11.35.17.6.17.3,0,.57-.05.79-.17s.44-.28.65-.5v-1.04Z"/>
  </g>
  <g>
    <path class="cls-2" d="M377.4,104.86v2.57h3.25v1.29h-3.25v3.53h-1.62v-8.68h5.47v1.28h-3.85Z"/>
    <path class="cls-2" d="M381.39,106.96c.71-.65,1.56-.97,2.56-.97.36,0,.68.06.97.18.28.12.52.28.72.49s.34.46.45.75c.1.29.15.61.15.96v3.89h-.67c-.14,0-.25-.02-.32-.06-.08-.04-.14-.13-.18-.25l-.13-.44c-.16.14-.31.26-.46.37-.15.11-.3.19-.46.27s-.33.13-.51.17c-.18.04-.38.06-.6.06-.26,0-.5-.04-.72-.1-.22-.07-.41-.17-.57-.32-.16-.14-.28-.31-.37-.52s-.13-.45-.13-.73c0-.16.03-.31.08-.46s.14-.3.25-.44c.12-.14.27-.27.46-.4s.42-.23.69-.32c.27-.09.59-.17.96-.22.36-.06.78-.09,1.25-.11v-.36c0-.41-.09-.72-.26-.92-.18-.2-.43-.3-.76-.3-.24,0-.44.03-.6.08-.16.06-.3.12-.42.19-.12.07-.23.13-.33.19-.1.06-.21.08-.33.08-.1,0-.19-.03-.26-.08-.07-.05-.13-.12-.17-.19l-.26-.47ZM384.78,109.63c-.43.02-.79.06-1.08.11-.29.05-.53.12-.7.21s-.3.18-.38.29c-.08.11-.11.23-.11.37,0,.26.08.45.23.56.15.11.35.17.6.17.3,0,.57-.05.79-.17s.44-.28.65-.5v-1.04Z"/>
    <path class="cls-2" d="M387.62,112.26v-6.16h.91c.19,0,.32.09.38.27l.1.46c.11-.12.22-.23.34-.33.12-.1.24-.19.38-.26.13-.07.28-.13.43-.17.15-.04.32-.06.51-.06.39,0,.71.1.96.32.25.21.44.49.56.84.1-.2.22-.38.36-.53.14-.15.3-.26.47-.36.17-.09.35-.16.55-.2s.39-.07.58-.07c.34,0,.64.05.91.16.26.1.49.26.67.46s.32.44.41.73c.09.29.14.62.14.99v3.92h-1.48v-3.92c0-.39-.09-.69-.26-.88-.17-.2-.42-.3-.76-.3-.15,0-.29.03-.42.08-.13.05-.24.13-.34.23-.1.1-.17.22-.23.37-.06.15-.08.32-.08.51v3.92h-1.49v-3.92c0-.41-.08-.71-.25-.9-.17-.19-.41-.28-.73-.28-.22,0-.42.05-.6.16-.19.11-.36.25-.52.44v4.51h-1.48Z"/>
    <path class="cls-2" d="M400.59,103.48l-1.48,1.57c-.08.08-.15.13-.22.17-.07.03-.16.04-.27.04h-.89l.85-1.46c.06-.1.13-.18.21-.24.08-.05.2-.08.36-.08h1.44ZM399.21,106.1v6.16h-1.48v-6.16h1.48Z"/>
    <path class="cls-2" d="M402.53,103.34v8.92h-1.48v-8.92h1.48Z"/>
    <path class="cls-2" d="M405.75,104.31c0,.13-.03.25-.08.36-.05.11-.12.21-.21.29-.09.08-.19.15-.3.2s-.24.08-.37.08-.25-.03-.36-.08c-.11-.05-.21-.12-.3-.2s-.15-.18-.2-.29c-.05-.11-.08-.23-.08-.36s.02-.26.08-.37c.05-.12.12-.22.2-.3s.18-.15.3-.2c.11-.05.23-.08.36-.08s.26.03.37.08c.12.05.22.12.3.2.09.08.16.18.21.3.05.12.08.24.08.37ZM405.55,106.1v6.16h-1.49v-6.16h1.49Z"/>
    <path class="cls-2" d="M406.92,106.96c.71-.65,1.56-.97,2.56-.97.36,0,.68.06.97.18.28.12.52.28.72.49s.34.46.45.75c.1.29.15.61.15.96v3.89h-.67c-.14,0-.25-.02-.32-.06-.08-.04-.14-.13-.18-.25l-.13-.44c-.16.14-.31.26-.46.37-.15.11-.3.19-.46.27s-.33.13-.51.17c-.18.04-.38.06-.6.06-.26,0-.5-.04-.72-.1-.22-.07-.41-.17-.57-.32-.16-.14-.28-.31-.37-.52s-.13-.45-.13-.73c0-.16.03-.31.08-.46s.14-.3.25-.44c.12-.14.27-.27.46-.4s.42-.23.69-.32c.27-.09.59-.17.96-.22.36-.06.78-.09,1.25-.11v-.36c0-.41-.09-.72-.26-.92-.18-.2-.43-.3-.76-.3-.24,0-.44.03-.6.08-.16.06-.3.12-.42.19-.12.07-.23.13-.33.19-.1.06-.21.08-.33.08-.1,0-.19-.03-.26-.08-.07-.05-.13-.12-.17-.19l-.26-.47ZM410.31,109.63c-.43.02-.79.06-1.08.11-.29.05-.53.12-.7.21s-.3.18-.38.29c-.08.11-.11.23-.11.37,0,.26.08.45.23.56.15.11.35.17.6.17.3,0,.57-.05.79-.17s.44-.28.65-.5v-1.04Z"/>
  </g>
  <g>
    <path class="cls-2" d="M406.4,156.16c-.05.08-.1.14-.15.18-.05.04-.12.06-.2.06-.08,0-.18-.03-.27-.09-.1-.06-.21-.13-.35-.21-.14-.08-.3-.14-.48-.21-.18-.06-.4-.09-.64-.09-.22,0-.42.03-.59.08s-.31.13-.42.22c-.11.1-.2.21-.25.35-.06.13-.08.28-.08.44,0,.2.06.37.17.51.11.14.27.25.45.35.19.1.4.18.64.26.24.08.49.16.74.24s.5.19.74.3.45.26.64.43c.19.17.34.39.45.64.11.25.17.56.17.92,0,.39-.07.76-.2,1.1-.13.34-.33.64-.59.89-.26.25-.57.45-.95.6-.37.15-.8.22-1.28.22-.28,0-.55-.03-.82-.08-.27-.05-.53-.13-.77-.23-.25-.1-.48-.22-.69-.36-.22-.14-.41-.3-.58-.47l.47-.77c.04-.06.09-.1.16-.14.06-.04.13-.06.2-.06.1,0,.21.04.32.12.12.08.25.17.41.27.16.1.35.19.56.27s.47.12.77.12c.46,0,.82-.11,1.07-.33s.38-.53.38-.94c0-.23-.06-.41-.17-.56-.11-.14-.26-.26-.45-.36-.19-.1-.4-.18-.64-.25-.24-.07-.48-.14-.73-.22s-.49-.18-.73-.29c-.24-.11-.45-.26-.64-.44-.19-.18-.34-.4-.45-.67-.11-.27-.17-.6-.17-1,0-.32.06-.62.19-.92s.31-.57.55-.8.54-.42.89-.56c.35-.14.76-.21,1.21-.21.51,0,.98.08,1.42.24.43.16.8.38,1.1.67l-.4.76Z"/>
    <path class="cls-2" d="M413.33,157.1v6.16h-.91c-.2,0-.32-.09-.37-.27l-.1-.49c-.25.26-.53.46-.83.62-.3.16-.66.24-1.07.24-.34,0-.63-.06-.89-.17-.26-.11-.48-.27-.65-.48s-.31-.46-.4-.74c-.09-.29-.13-.6-.13-.95v-3.91h1.48v3.91c0,.38.09.67.26.87s.43.31.78.31c.26,0,.5-.06.72-.17.22-.11.44-.27.64-.47v-4.45h1.48Z"/>
    <path class="cls-2" d="M416.27,157.85c.25-.26.52-.47.83-.62.3-.15.65-.23,1.04-.23.36,0,.68.07.96.21s.53.34.73.6c.2.26.36.58.47.95.11.37.16.79.16,1.25,0,.5-.06.95-.19,1.36s-.3.76-.53,1.05c-.23.29-.51.52-.83.67-.32.16-.68.24-1.08.24-.19,0-.37-.02-.52-.06s-.3-.09-.43-.16c-.13-.07-.25-.15-.36-.25-.11-.1-.21-.21-.32-.33l-.07.41c-.02.1-.07.18-.12.22-.06.04-.14.07-.24.07h-.98v-8.92h1.48v3.52ZM416.27,161.66c.17.2.35.35.55.43.2.08.41.13.63.13s.43-.04.62-.12.34-.21.46-.38.23-.4.29-.67c.07-.27.1-.59.1-.97,0-.68-.11-1.17-.34-1.47-.22-.3-.55-.45-.97-.45-.28,0-.53.06-.74.19s-.41.31-.61.55v2.76Z"/>
    <path class="cls-2" d="M421.92,163.26v-5.04l-.53-.08c-.12-.02-.21-.07-.28-.12-.07-.06-.1-.14-.1-.25v-.61h.92v-.46c0-.35.05-.67.16-.95.11-.28.26-.52.46-.71.2-.2.44-.35.72-.45.28-.1.6-.16.96-.16.28,0,.55.04.79.11l-.03.74c0,.06-.02.1-.05.13-.03.03-.06.06-.11.08-.05.02-.1.03-.16.04-.06,0-.12,0-.19,0-.18,0-.33.02-.47.06s-.25.1-.35.2c-.1.09-.17.22-.22.37s-.08.34-.08.57v.41h1.6v1.06h-1.55v5.05h-1.48Z"/>
    <path class="cls-2" d="M425.63,157.96c.71-.65,1.56-.97,2.56-.97.36,0,.68.06.97.18.28.12.52.28.72.49s.34.46.45.75c.1.29.15.61.15.96v3.89h-.67c-.14,0-.25-.02-.32-.06-.08-.04-.14-.13-.18-.25l-.13-.44c-.16.14-.31.26-.46.37-.15.11-.3.19-.46.27s-.33.13-.51.17c-.18.04-.38.06-.6.06-.26,0-.5-.04-.72-.1-.22-.07-.41-.17-.57-.32-.16-.14-.28-.31-.37-.52s-.13-.45-.13-.73c0-.16.03-.31.08-.46s.14-.3.25-.44c.12-.14.27-.27.46-.4s.42-.23.69-.32c.27-.09.59-.17.96-.22.36-.06.78-.09,1.25-.11v-.36c0-.41-.09-.72-.26-.92-.18-.2-.43-.3-.76-.3-.24,0-.44.03-.6.08-.16.06-.3.12-.42.19-.12.07-.23.13-.33.19-.1.06-.21.08-.33.08-.1,0-.19-.03-.26-.08-.07-.05-.13-.12-.17-.19l-.26-.47ZM429.02,160.63c-.43.02-.79.06-1.08.11-.29.05-.53.12-.7.21s-.3.18-.38.29c-.08.11-.11.23-.11.37,0,.26.08.45.23.56.15.11.35.17.6.17.3,0,.57-.05.79-.17s.44-.28.65-.5v-1.04Z"/>
    <path class="cls-2" d="M431.86,163.26v-6.16h.91c.19,0,.32.09.38.27l.1.46c.11-.12.22-.23.34-.33.12-.1.24-.19.38-.26.13-.07.28-.13.43-.17.15-.04.32-.06.51-.06.39,0,.71.1.96.32.25.21.44.49.56.84.1-.2.22-.38.36-.53.14-.15.3-.26.47-.36.17-.09.35-.16.55-.2s.39-.07.58-.07c.34,0,.64.05.91.16.26.1.49.26.67.46s.32.44.41.73c.09.29.14.62.14.99v3.92h-1.48v-3.92c0-.39-.09-.69-.26-.88-.17-.2-.42-.3-.76-.3-.15,0-.29.03-.42.08-.13.05-.24.13-.34.23-.1.1-.17.22-.23.37-.06.15-.08.32-.08.51v3.92h-1.49v-3.92c0-.41-.08-.71-.25-.9-.17-.19-.41-.28-.73-.28-.22,0-.42.05-.6.16-.19.11-.36.25-.52.44v4.51h-1.48Z"/>
    <path class="cls-2" d="M444.83,154.48l-1.48,1.57c-.08.08-.15.13-.22.17-.07.03-.16.04-.27.04h-.89l.85-1.46c.06-.1.13-.18.21-.24.08-.05.2-.08.36-.08h1.44ZM443.45,157.1v6.16h-1.48v-6.16h1.48Z"/>
    <path class="cls-2" d="M446.77,154.34v8.92h-1.48v-8.92h1.48Z"/>
    <path class="cls-2" d="M449.99,155.31c0,.13-.03.25-.08.36-.05.11-.12.21-.21.29-.09.08-.19.15-.3.2s-.24.08-.37.08-.25-.03-.36-.08c-.11-.05-.21-.12-.3-.2s-.15-.18-.2-.29c-.05-.11-.08-.23-.08-.36s.02-.26.08-.37c.05-.12.12-.22.2-.3s.18-.15.3-.2c.11-.05.23-.08.36-.08s.26.03.37.08c.12.05.22.12.3.2.09.08.16.18.21.3.05.12.08.24.08.37ZM449.79,157.1v6.16h-1.49v-6.16h1.49Z"/>
    <path class="cls-2" d="M451.16,157.96c.71-.65,1.56-.97,2.56-.97.36,0,.68.06.97.18.28.12.52.28.72.49s.34.46.45.75c.1.29.15.61.15.96v3.89h-.67c-.14,0-.25-.02-.32-.06-.08-.04-.14-.13-.18-.25l-.13-.44c-.16.14-.31.26-.46.37-.15.11-.3.19-.46.27s-.33.13-.51.17c-.18.04-.38.06-.6.06-.26,0-.5-.04-.72-.1-.22-.07-.41-.17-.57-.32-.16-.14-.28-.31-.37-.52s-.13-.45-.13-.73c0-.16.03-.31.08-.46s.14-.3.25-.44c.12-.14.27-.27.46-.4s.42-.23.69-.32c.27-.09.59-.17.96-.22.36-.06.78-.09,1.25-.11v-.36c0-.41-.09-.72-.26-.92-.18-.2-.43-.3-.76-.3-.24,0-.44.03-.6.08-.16.06-.3.12-.42.19-.12.07-.23.13-.33.19-.1.06-.21.08-.33.08-.1,0-.19-.03-.26-.08-.07-.05-.13-.12-.17-.19l-.26-.47ZM454.55,160.63c-.43.02-.79.06-1.08.11-.29.05-.53.12-.7.21s-.3.18-.38.29c-.08.11-.11.23-.11.37,0,.26.08.45.23.56.15.11.35.17.6.17.3,0,.57-.05.79-.17s.44-.28.65-.5v-1.04Z"/>
  </g>
  <g>
    <path class="cls-2" d="M403.4,210.26h-1.62v-8.68h1.62v8.68Z"/>
    <path class="cls-2" d="M408.71,205.3c-.04.06-.08.11-.13.13-.04.03-.1.04-.17.04-.07,0-.15-.02-.23-.06s-.18-.08-.29-.13c-.11-.05-.23-.1-.37-.14-.14-.04-.3-.06-.49-.06-.29,0-.52.06-.69.19s-.25.29-.25.49c0,.13.04.24.13.33s.2.17.34.24c.14.07.3.13.48.18s.36.11.55.18c.19.06.37.14.55.22.18.08.34.19.48.31s.26.28.34.45.13.39.13.64c0,.3-.05.57-.16.82-.11.25-.26.47-.47.65-.21.18-.46.32-.77.43-.31.1-.66.15-1.06.15-.21,0-.42-.02-.62-.06-.2-.04-.4-.09-.58-.16-.19-.07-.36-.15-.52-.24-.16-.09-.3-.19-.42-.3l.34-.56c.04-.07.1-.12.16-.16s.14-.05.23-.05.18.03.26.08c.08.05.18.11.29.17.11.06.23.12.38.17.15.05.33.08.55.08.18,0,.33-.02.45-.06s.23-.1.31-.17.14-.15.18-.24.06-.18.06-.28c0-.14-.04-.26-.13-.35s-.2-.17-.34-.24c-.14-.07-.3-.13-.49-.18s-.37-.11-.56-.18c-.19-.06-.38-.14-.56-.23-.18-.09-.34-.19-.49-.33-.14-.13-.26-.29-.34-.49-.09-.19-.13-.42-.13-.7,0-.25.05-.49.15-.72.1-.23.25-.43.44-.6.19-.17.44-.31.73-.41.29-.1.62-.15,1-.15.42,0,.81.07,1.16.21s.64.32.87.55l-.34.53Z"/>
    <path class="cls-2" d="M412.95,204c.46,0,.87.07,1.25.22.37.15.69.36.96.63.27.27.47.6.62,1,.14.39.22.83.22,1.31s-.07.93-.22,1.32c-.14.39-.35.73-.62,1-.27.28-.59.49-.96.64-.37.15-.79.22-1.25.22s-.88-.07-1.25-.22c-.38-.15-.7-.36-.96-.64-.27-.28-.47-.61-.62-1-.15-.39-.22-.83-.22-1.32s.07-.92.22-1.31c.15-.39.35-.72.62-1,.27-.27.59-.48.96-.63.38-.15.79-.22,1.25-.22ZM412.95,209.21c.51,0,.89-.17,1.14-.52.25-.34.37-.85.37-1.51s-.12-1.17-.37-1.52c-.25-.35-.62-.52-1.14-.52s-.91.17-1.16.53c-.25.35-.38.85-.38,1.51s.12,1.16.38,1.51c.25.35.63.52,1.16.52Z"/>
    <path class="cls-2" d="M418.26,207.36c.02.32.08.59.17.82.09.23.2.42.35.57.14.15.32.26.51.34.2.07.42.11.66.11s.45-.03.62-.08c.17-.06.33-.12.46-.19.13-.07.24-.13.34-.19.1-.06.19-.08.29-.08.12,0,.22.05.28.14l.43.54c-.16.19-.35.35-.55.48s-.42.23-.64.31c-.22.08-.45.13-.68.17-.23.03-.45.05-.67.05-.43,0-.83-.07-1.19-.21-.37-.14-.69-.35-.96-.63-.27-.28-.49-.62-.64-1.03s-.23-.88-.23-1.42c0-.42.07-.82.2-1.18.14-.37.33-.69.58-.97.25-.27.56-.49.93-.65s.78-.24,1.24-.24c.39,0,.75.06,1.07.19.33.12.61.31.85.54.24.24.42.53.55.88.13.35.2.74.2,1.19,0,.22-.02.38-.07.45s-.14.12-.28.12h-3.81ZM421.08,206.47c0-.19-.03-.37-.08-.54s-.13-.32-.24-.45c-.11-.13-.25-.23-.41-.3s-.36-.11-.58-.11c-.43,0-.76.12-1.01.37s-.4.59-.47,1.04h2.8Z"/>
    <path class="cls-2" d="M424.91,204.86c.12-.12.25-.24.39-.34.14-.11.28-.2.44-.27.15-.07.32-.13.5-.17.18-.04.37-.06.58-.06.34,0,.63.06.89.17s.48.27.65.48c.17.21.31.45.4.74s.13.6.13.95v3.92h-1.48v-3.92c0-.38-.09-.67-.26-.87-.17-.21-.43-.31-.79-.31-.26,0-.5.06-.72.17-.22.12-.44.27-.64.47v4.45h-1.48v-6.16h.91c.19,0,.32.09.38.27l.1.49Z"/>
    <path class="cls-2" d="M434.72,204.71c0,.1-.02.21-.05.31-.04.1-.08.18-.14.25l-2.92,3.85h3.03v1.14h-4.75v-.62c0-.07.02-.15.05-.24.03-.09.08-.18.14-.27l2.95-3.89h-2.97v-1.13h4.67v.61Z"/>
    <path class="cls-2" d="M437.55,202.31c0,.13-.03.25-.08.36-.05.11-.12.21-.21.29-.09.08-.19.15-.3.2s-.24.08-.37.08-.25-.03-.36-.08c-.11-.05-.21-.12-.3-.2s-.15-.18-.2-.29c-.05-.11-.08-.23-.08-.36s.02-.26.08-.37c.05-.12.12-.22.2-.3s.18-.15.3-.2c.11-.05.23-.08.36-.08s.26.03.37.08c.12.05.22.12.3.2.09.08.16.18.21.3.05.12.08.24.08.37ZM437.34,204.1v6.16h-1.49v-6.16h1.49Z"/>
    <path class="cls-2" d="M438.86,210.26v-6.16h.91c.19,0,.32.09.38.27l.1.46c.11-.12.22-.23.34-.33.12-.1.24-.19.38-.26.13-.07.28-.13.43-.17.15-.04.32-.06.51-.06.39,0,.71.1.96.32.25.21.44.49.56.84.1-.2.22-.38.36-.53.14-.15.3-.26.47-.36.17-.09.35-.16.55-.2s.39-.07.58-.07c.34,0,.64.05.91.16.26.1.49.26.67.46s.32.44.41.73c.09.29.14.62.14.99v3.92h-1.48v-3.92c0-.39-.09-.69-.26-.88-.17-.2-.42-.3-.76-.3-.15,0-.29.03-.42.08-.13.05-.24.13-.34.23-.1.1-.17.22-.23.37-.06.15-.08.32-.08.51v3.92h-1.49v-3.92c0-.41-.08-.71-.25-.9-.17-.19-.41-.28-.73-.28-.22,0-.42.05-.6.16-.19.11-.36.25-.52.44v4.51h-1.48Z"/>
    <path class="cls-2" d="M448.76,204.96c.71-.65,1.56-.97,2.56-.97.36,0,.68.06.97.18.28.12.52.28.72.49s.34.46.45.75c.1.29.15.61.15.96v3.89h-.67c-.14,0-.25-.02-.32-.06-.08-.04-.14-.13-.18-.25l-.13-.44c-.16.14-.31.26-.46.37-.15.11-.3.19-.46.27s-.33.13-.51.17c-.18.04-.38.06-.6.06-.26,0-.5-.04-.72-.1-.22-.07-.41-.17-.57-.32-.16-.14-.28-.31-.37-.52s-.13-.45-.13-.73c0-.16.03-.31.08-.46s.14-.3.25-.44c.12-.14.27-.27.46-.4s.42-.23.69-.32c.27-.09.59-.17.96-.22.36-.06.78-.09,1.25-.11v-.36c0-.41-.09-.72-.26-.92-.18-.2-.43-.3-.76-.3-.24,0-.44.03-.6.08-.16.06-.3.12-.42.19-.12.07-.23.13-.33.19-.1.06-.21.08-.33.08-.1,0-.19-.03-.26-.08-.07-.05-.13-.12-.17-.19l-.26-.47ZM452.16,207.63c-.43.02-.79.06-1.08.11-.29.05-.53.12-.7.21s-.3.18-.38.29c-.08.11-.11.23-.11.37,0,.26.08.45.23.56.15.11.35.17.6.17.3,0,.57-.05.79-.17s.44-.28.65-.5v-1.04Z"/>
    <path class="cls-2" d="M458.75,205.3c-.04.06-.08.11-.13.13-.04.03-.1.04-.17.04-.07,0-.15-.02-.23-.06s-.18-.08-.29-.13c-.11-.05-.23-.1-.37-.14-.14-.04-.3-.06-.49-.06-.29,0-.52.06-.69.19s-.25.29-.25.49c0,.13.04.24.13.33s.2.17.34.24c.14.07.3.13.48.18s.36.11.55.18c.19.06.37.14.55.22.18.08.34.19.48.31s.26.28.34.45.13.39.13.64c0,.3-.05.57-.16.82-.11.25-.26.47-.47.65-.21.18-.46.32-.77.43-.31.1-.66.15-1.06.15-.21,0-.42-.02-.62-.06-.2-.04-.4-.09-.58-.16-.19-.07-.36-.15-.52-.24-.16-.09-.3-.19-.42-.3l.34-.56c.04-.07.1-.12.16-.16s.14-.05.23-.05.18.03.26.08c.08.05.18.11.29.17.11.06.23.12.38.17.15.05.33.08.55.08.18,0,.33-.02.45-.06s.23-.1.31-.17.14-.15.18-.24.06-.18.06-.28c0-.14-.04-.26-.13-.35s-.2-.17-.34-.24c-.14-.07-.3-.13-.49-.18s-.37-.11-.56-.18c-.19-.06-.38-.14-.56-.23-.18-.09-.34-.19-.49-.33-.14-.13-.26-.29-.34-.49-.09-.19-.13-.42-.13-.7,0-.25.05-.49.15-.72.1-.23.25-.43.44-.6.19-.17.44-.31.73-.41.29-.1.62-.15,1-.15.42,0,.81.07,1.16.21s.64.32.87.55l-.34.53Z"/>
  </g>
  <g>
    <path class="cls-2" d="M81.23,16.12v2.81h3.54v1.45h-3.54v2.86h4.49v1.5h-6.38v-10.12h6.38v1.5h-4.49Z"/>
    <path class="cls-2" d="M88.58,18.44c.14-.14.3-.28.46-.4.16-.12.33-.23.51-.32.18-.09.37-.15.58-.2.21-.05.43-.07.67-.07.39,0,.74.07,1.04.2.3.13.56.32.76.56s.36.53.46.86c.11.33.16.7.16,1.1v4.57h-1.73v-4.57c0-.44-.1-.78-.3-1.02-.2-.24-.51-.36-.92-.36-.3,0-.58.07-.84.2-.26.14-.51.32-.74.55v5.19h-1.73v-7.18h1.06c.22,0,.37.1.44.31l.12.57Z"/>
    <path class="cls-2" d="M100.01,18.27c0,.12-.02.24-.06.36-.04.12-.1.21-.17.29l-3.41,4.49h3.54v1.33h-5.54v-.72c0-.08.02-.17.06-.28.04-.11.09-.21.17-.31l3.44-4.54h-3.46v-1.32h5.45v.71Z"/>
    <path class="cls-2" d="M103.32,15.47c0,.15-.03.29-.09.42-.06.13-.14.25-.24.34-.1.1-.22.18-.35.23-.14.06-.28.09-.43.09s-.29-.03-.42-.09c-.13-.06-.25-.14-.35-.23-.1-.1-.18-.21-.23-.34-.06-.13-.09-.27-.09-.42s.03-.3.09-.43c.06-.14.14-.25.23-.35.1-.1.21-.18.35-.24.13-.06.27-.09.42-.09s.3.03.43.09c.13.06.25.14.35.24.1.1.18.21.24.35s.09.28.09.43ZM103.08,17.56v7.18h-1.74v-7.18h1.74Z"/>
    <path class="cls-2" d="M104.84,24.74v-7.18h1.06c.22,0,.37.1.44.31l.11.53c.13-.14.26-.27.4-.38.14-.12.29-.22.44-.3.16-.08.32-.15.5-.2s.38-.07.59-.07c.45,0,.82.12,1.12.37.29.25.51.57.65.98.11-.24.25-.44.42-.61s.35-.31.55-.42c.2-.11.41-.19.64-.24.23-.05.45-.08.68-.08.4,0,.75.06,1.06.18.31.12.57.3.78.53s.37.52.48.85.17.72.17,1.15v4.57h-1.73v-4.57c0-.46-.1-.8-.3-1.03-.2-.23-.5-.35-.88-.35-.18,0-.34.03-.49.09-.15.06-.28.15-.4.26s-.2.26-.27.43-.1.37-.1.59v4.57h-1.74v-4.57c0-.48-.1-.83-.29-1.05-.19-.22-.48-.33-.85-.33-.25,0-.49.06-.7.19-.22.12-.42.29-.61.51v5.26h-1.73Z"/>
    <path class="cls-2" d="M116.4,18.56c.83-.76,1.82-1.13,2.98-1.13.42,0,.8.07,1.13.21s.61.33.84.57.4.54.52.88.18.71.18,1.12v4.54h-.78c-.16,0-.29-.02-.38-.07s-.16-.15-.21-.3l-.15-.52c-.18.16-.36.31-.53.43-.17.12-.35.23-.54.31s-.39.15-.6.19c-.21.04-.45.07-.7.07-.3,0-.58-.04-.84-.12-.26-.08-.48-.2-.67-.37s-.33-.37-.43-.61c-.1-.24-.15-.52-.15-.85,0-.18.03-.36.09-.54.06-.18.16-.35.3-.51.14-.16.32-.32.54-.46.22-.15.49-.27.81-.38.32-.11.69-.19,1.12-.26.42-.07.91-.11,1.46-.12v-.42c0-.48-.1-.84-.31-1.07s-.5-.35-.89-.35c-.28,0-.51.03-.7.1-.18.07-.35.14-.49.22-.14.08-.27.16-.38.22s-.24.1-.38.1c-.12,0-.22-.03-.31-.09-.08-.06-.15-.14-.2-.22l-.31-.55ZM120.36,21.68c-.5.02-.92.07-1.26.13-.34.06-.61.14-.82.24-.21.1-.35.21-.44.34-.09.13-.13.27-.13.43,0,.3.09.52.27.65.18.13.41.2.7.2.35,0,.66-.06.92-.19s.51-.32.76-.58v-1.21Z"/>
    <path class="cls-2" d="M128.05,18.96c-.05.08-.1.13-.15.16-.05.03-.12.04-.2.04s-.17-.02-.27-.07c-.1-.05-.21-.1-.33-.16s-.27-.11-.43-.16-.35-.07-.57-.07c-.34,0-.61.07-.8.22-.19.15-.29.33-.29.57,0,.15.05.28.15.39.1.1.23.2.4.28.17.08.35.15.56.21.21.06.42.13.64.21.22.08.43.16.64.26s.4.22.56.36c.17.15.3.32.4.53.1.21.15.45.15.74,0,.35-.06.66-.19.96s-.31.54-.55.76c-.24.21-.54.38-.9.5-.36.12-.77.18-1.24.18-.25,0-.49-.02-.72-.07-.24-.04-.46-.11-.68-.19-.22-.08-.42-.17-.6-.28-.18-.11-.35-.22-.49-.35l.4-.66c.05-.08.11-.14.18-.18s.16-.06.27-.06.21.03.3.09.21.13.33.2c.13.07.27.13.44.2.17.06.39.09.65.09.21,0,.38-.02.53-.07.15-.05.27-.11.36-.19.1-.08.17-.17.21-.28.04-.1.07-.21.07-.33,0-.17-.05-.31-.15-.41s-.23-.2-.4-.28c-.17-.08-.35-.15-.57-.21-.21-.06-.43-.13-.65-.21-.22-.07-.44-.16-.65-.26-.21-.1-.4-.23-.57-.38-.17-.15-.3-.34-.4-.57-.1-.22-.15-.49-.15-.81,0-.29.06-.57.17-.84.12-.27.29-.5.51-.7s.51-.36.85-.48c.34-.12.73-.18,1.17-.18.5,0,.95.08,1.35.25.41.16.74.38,1.01.64l-.39.62Z"/>
    <path class="cls-2" d="M133.23,24.74v-7.18h1.06c.22,0,.37.1.44.31l.11.53c.13-.14.26-.27.4-.38.14-.12.29-.22.44-.3.16-.08.32-.15.5-.2s.38-.07.59-.07c.45,0,.82.12,1.12.37.29.25.51.57.65.98.11-.24.25-.44.42-.61s.35-.31.55-.42c.2-.11.41-.19.64-.24.23-.05.45-.08.68-.08.4,0,.75.06,1.06.18.31.12.57.3.78.53s.37.52.48.85.17.72.17,1.15v4.57h-1.73v-4.57c0-.46-.1-.8-.3-1.03-.2-.23-.5-.35-.88-.35-.18,0-.34.03-.49.09-.15.06-.28.15-.4.26s-.2.26-.27.43-.1.37-.1.59v4.57h-1.74v-4.57c0-.48-.1-.83-.29-1.05-.19-.22-.48-.33-.85-.33-.25,0-.49.06-.7.19-.22.12-.42.29-.61.51v5.26h-1.73Z"/>
    <path class="cls-2" d="M146.28,21.37c.03.37.09.69.2.96.1.27.24.49.41.67.17.18.37.31.6.39.23.09.49.13.77.13s.52-.03.72-.1c.2-.07.38-.14.53-.22.15-.08.29-.15.4-.22s.22-.1.33-.1c.14,0,.25.05.32.16l.5.63c-.19.22-.41.41-.64.56-.24.15-.49.27-.75.36s-.52.16-.79.19-.53.06-.78.06c-.5,0-.96-.08-1.39-.25-.43-.17-.8-.41-1.12-.74-.32-.32-.57-.73-.75-1.2-.18-.48-.27-1.03-.27-1.66,0-.49.08-.95.24-1.38.16-.43.39-.81.68-1.13.3-.32.66-.57,1.08-.76.43-.19.91-.28,1.45-.28.45,0,.87.07,1.25.22s.71.36.99.63.49.62.65,1.02c.16.4.23.87.23,1.38,0,.26-.03.44-.08.53-.06.09-.16.14-.32.14h-4.45ZM149.58,20.32c0-.22-.03-.44-.09-.63-.06-.2-.16-.37-.28-.52s-.29-.27-.48-.35c-.19-.09-.42-.13-.67-.13-.5,0-.89.14-1.18.43s-.47.69-.55,1.21h3.26Z"/>
    <path class="cls-2" d="M154.75,24.85c-.62,0-1.1-.18-1.44-.53-.33-.35-.5-.84-.5-1.46v-4.01h-.73c-.09,0-.17-.03-.24-.09-.07-.06-.1-.15-.1-.27v-.69l1.15-.19.36-1.96c.02-.09.07-.17.13-.22.07-.05.15-.08.25-.08h.9v2.26h1.92v1.23h-1.92v3.89c0,.22.05.4.16.53.11.13.26.19.45.19.11,0,.2-.01.27-.04s.13-.05.19-.08c.05-.03.1-.05.14-.08s.08-.04.13-.04c.05,0,.09.01.13.04.03.03.07.06.11.12l.52.84c-.25.21-.54.37-.87.48-.33.11-.67.16-1.01.16Z"/>
    <path class="cls-2" d="M157.4,18.56c.83-.76,1.82-1.13,2.98-1.13.42,0,.8.07,1.13.21s.61.33.84.57.4.54.52.88.18.71.18,1.12v4.54h-.78c-.16,0-.29-.02-.38-.07s-.16-.15-.21-.3l-.15-.52c-.18.16-.36.31-.53.43-.17.12-.35.23-.54.31s-.39.15-.6.19c-.21.04-.45.07-.7.07-.3,0-.58-.04-.84-.12-.26-.08-.48-.2-.67-.37s-.33-.37-.43-.61c-.1-.24-.15-.52-.15-.85,0-.18.03-.36.09-.54.06-.18.16-.35.3-.51.14-.16.32-.32.54-.46.22-.15.49-.27.81-.38.32-.11.69-.19,1.12-.26.42-.07.91-.11,1.46-.12v-.42c0-.48-.1-.84-.31-1.07s-.5-.35-.89-.35c-.28,0-.51.03-.7.1-.18.07-.35.14-.49.22-.14.08-.27.16-.38.22s-.24.1-.38.1c-.12,0-.22-.03-.31-.09-.08-.06-.15-.14-.2-.22l-.31-.55ZM161.36,21.68c-.5.02-.92.07-1.26.13-.34.06-.61.14-.82.24-.21.1-.35.21-.44.34-.09.13-.13.27-.13.43,0,.3.09.52.27.65.18.13.41.2.7.2.35,0,.66-.06.92-.19s.51-.32.76-.58v-1.21Z"/>
    <path class="cls-2" d="M166.4,18.44c.29-.3.61-.54.96-.72.35-.18.75-.27,1.21-.27.42,0,.79.08,1.12.25.33.16.62.4.85.7s.42.68.54,1.11c.13.43.19.92.19,1.46,0,.58-.07,1.11-.22,1.59-.14.48-.35.88-.62,1.22-.27.34-.59.6-.97.79s-.8.28-1.26.28c-.22,0-.43-.02-.61-.07-.18-.04-.35-.11-.5-.19-.15-.08-.29-.18-.42-.29-.13-.11-.25-.24-.37-.38l-.08.48c-.03.12-.08.21-.14.26-.07.05-.16.08-.28.08h-1.14v-10.4h1.73v4.1ZM166.4,22.88c.2.24.41.41.64.5.23.1.47.15.73.15s.5-.05.72-.14c.21-.1.39-.25.54-.45s.26-.46.34-.78c.08-.32.12-.69.12-1.13,0-.79-.13-1.36-.39-1.71-.26-.35-.64-.53-1.13-.53-.33,0-.62.08-.87.23-.25.15-.48.37-.71.64v3.22Z"/>
    <path class="cls-2" d="M175.79,17.45c.53,0,1.02.09,1.45.26s.81.42,1.12.74.55.7.72,1.16c.17.46.25.97.25,1.53s-.08,1.08-.25,1.54c-.17.46-.41.85-.72,1.17-.31.32-.68.57-1.12.74-.44.17-.92.26-1.45.26s-1.02-.09-1.46-.26c-.44-.17-.81-.42-1.12-.74-.31-.32-.55-.71-.72-1.17-.17-.46-.26-.97-.26-1.54s.08-1.08.26-1.53c.17-.46.41-.84.72-1.16s.68-.56,1.12-.74c.44-.17.93-.26,1.46-.26ZM175.79,23.52c.6,0,1.04-.2,1.33-.6s.43-.99.43-1.76-.14-1.37-.43-1.77c-.29-.41-.73-.61-1.33-.61s-1.06.2-1.35.61-.44,1-.44,1.77.15,1.36.44,1.76c.29.4.74.61,1.35.61Z"/>
    <path class="cls-2" d="M182.41,14.34v10.4h-1.73v-10.4h1.73Z"/>
    <path class="cls-2" d="M186.17,15.47c0,.15-.03.29-.09.42-.06.13-.14.25-.24.34-.1.1-.22.18-.35.23-.14.06-.28.09-.43.09s-.29-.03-.42-.09c-.13-.06-.25-.14-.35-.23-.1-.1-.18-.21-.23-.34-.06-.13-.09-.27-.09-.42s.03-.3.09-.43c.06-.14.14-.25.23-.35.1-.1.21-.18.35-.24.13-.06.27-.09.42-.09s.3.03.43.09c.13.06.25.14.35.24.1.1.18.21.24.35s.09.28.09.43ZM185.93,17.56v7.18h-1.74v-7.18h1.74Z"/>
    <path class="cls-2" d="M192.85,18.27c0,.12-.02.24-.06.36-.04.12-.1.21-.17.29l-3.41,4.49h3.54v1.33h-5.54v-.72c0-.08.02-.17.06-.28.04-.11.09-.21.17-.31l3.44-4.54h-3.46v-1.32h5.45v.71Z"/>
    <path class="cls-2" d="M193.96,18.56c.83-.76,1.82-1.13,2.98-1.13.42,0,.8.07,1.13.21s.61.33.84.57.4.54.52.88.18.71.18,1.12v4.54h-.78c-.16,0-.29-.02-.38-.07s-.16-.15-.21-.3l-.15-.52c-.18.16-.36.31-.53.43-.17.12-.35.23-.54.31s-.39.15-.6.19c-.21.04-.45.07-.7.07-.3,0-.58-.04-.84-.12-.26-.08-.48-.2-.67-.37s-.33-.37-.43-.61c-.1-.24-.15-.52-.15-.85,0-.18.03-.36.09-.54.06-.18.16-.35.3-.51.14-.16.32-.32.54-.46.22-.15.49-.27.81-.38.32-.11.69-.19,1.12-.26.42-.07.91-.11,1.46-.12v-.42c0-.48-.1-.84-.31-1.07s-.5-.35-.89-.35c-.28,0-.51.03-.7.1-.18.07-.35.14-.49.22-.14.08-.27.16-.38.22s-.24.1-.38.1c-.12,0-.22-.03-.31-.09-.08-.06-.15-.14-.2-.22l-.31-.55ZM197.92,21.68c-.5.02-.92.07-1.26.13-.34.06-.61.14-.82.24-.21.1-.35.21-.44.34-.09.13-.13.27-.13.43,0,.3.09.52.27.65.18.13.41.2.7.2.35,0,.66-.06.92-.19s.51-.32.76-.58v-1.21Z"/>
    <path class="cls-2" d="M207.47,14.34v10.4h-1.06c-.23,0-.37-.11-.43-.32l-.15-.69c-.29.33-.62.6-1,.8-.38.21-.81.31-1.31.31-.39,0-.75-.08-1.08-.25-.33-.16-.61-.4-.84-.71-.24-.31-.42-.69-.55-1.15-.13-.46-.19-.98-.19-1.57,0-.53.07-1.03.22-1.48.14-.46.35-.85.62-1.19s.59-.6.97-.79c.38-.19.8-.28,1.27-.28.4,0,.74.06,1.03.19.29.13.54.3.76.51v-3.79h1.73ZM205.74,19.39c-.2-.24-.41-.41-.64-.5-.23-.1-.48-.15-.75-.15s-.5.05-.71.15c-.21.1-.39.25-.54.44-.15.2-.26.45-.34.76s-.12.67-.12,1.08.03.78.1,1.07c.07.29.17.53.29.71.13.18.28.32.46.4.18.08.38.12.61.12.36,0,.67-.08.92-.22s.49-.36.71-.64v-3.22Z"/>
    <path class="cls-2" d="M212.35,17.45c.53,0,1.02.09,1.45.26s.81.42,1.12.74.55.7.72,1.16c.17.46.25.97.25,1.53s-.08,1.08-.25,1.54c-.17.46-.41.85-.72,1.17-.31.32-.68.57-1.12.74-.44.17-.92.26-1.45.26s-1.02-.09-1.46-.26c-.44-.17-.81-.42-1.12-.74-.31-.32-.55-.71-.72-1.17-.17-.46-.26-.97-.26-1.54s.08-1.08.26-1.53c.17-.46.41-.84.72-1.16s.68-.56,1.12-.74c.44-.17.93-.26,1.46-.26ZM212.35,23.52c.6,0,1.04-.2,1.33-.6s.43-.99.43-1.76-.14-1.37-.43-1.77c-.29-.41-.73-.61-1.33-.61s-1.06.2-1.35.61-.44,1-.44,1.77.15,1.36.44,1.76c.29.4.74.61,1.35.61Z"/>
    <path class="cls-2" d="M218.85,18.81c.22-.43.49-.77.8-1.01.31-.25.67-.37,1.09-.37.33,0,.6.07.8.22l-.11,1.29c-.02.08-.06.14-.1.18-.04.03-.1.05-.18.05-.07,0-.17-.01-.31-.04-.14-.02-.27-.03-.4-.03-.19,0-.36.03-.51.08-.15.06-.28.14-.4.24-.12.1-.22.23-.31.38-.09.15-.18.32-.26.51v4.42h-1.73v-7.18h1.02c.18,0,.3.03.37.09.07.06.12.18.14.34l.11.81Z"/>
    <path class="cls-2" d="M222.18,18.56c.83-.76,1.82-1.13,2.98-1.13.42,0,.8.07,1.13.21s.61.33.84.57.4.54.52.88.18.71.18,1.12v4.54h-.78c-.16,0-.29-.02-.38-.07s-.16-.15-.21-.3l-.15-.52c-.18.16-.36.31-.53.43-.17.12-.35.23-.54.31s-.39.15-.6.19c-.21.04-.45.07-.7.07-.3,0-.58-.04-.84-.12-.26-.08-.48-.2-.67-.37s-.33-.37-.43-.61c-.1-.24-.15-.52-.15-.85,0-.18.03-.36.09-.54.06-.18.16-.35.3-.51.14-.16.32-.32.54-.46.22-.15.49-.27.81-.38.32-.11.69-.19,1.12-.26.42-.07.91-.11,1.46-.12v-.42c0-.48-.1-.84-.31-1.07s-.5-.35-.89-.35c-.28,0-.51.03-.7.1-.18.07-.35.14-.49.22-.14.08-.27.16-.38.22s-.24.1-.38.1c-.12,0-.22-.03-.31-.09-.08-.06-.15-.14-.2-.22l-.31-.55ZM226.14,21.68c-.5.02-.92.07-1.26.13-.34.06-.61.14-.82.24-.21.1-.35.21-.44.34-.09.13-.13.27-.13.43,0,.3.09.52.27.65.18.13.41.2.7.2.35,0,.66-.06.92-.19s.51-.32.76-.58v-1.21Z"/>
    <path class="cls-2" d="M233.84,18.96c-.05.08-.1.13-.15.16-.05.03-.12.04-.2.04s-.17-.02-.27-.07c-.1-.05-.21-.1-.33-.16s-.27-.11-.43-.16-.35-.07-.57-.07c-.34,0-.61.07-.8.22-.19.15-.29.33-.29.57,0,.15.05.28.15.39.1.1.23.2.4.28.17.08.35.15.56.21.21.06.42.13.64.21.22.08.43.16.64.26s.4.22.56.36c.17.15.3.32.4.53.1.21.15.45.15.74,0,.35-.06.66-.19.96s-.31.54-.55.76c-.24.21-.54.38-.9.5-.36.12-.77.18-1.24.18-.25,0-.49-.02-.72-.07-.24-.04-.46-.11-.68-.19-.22-.08-.42-.17-.6-.28-.18-.11-.35-.22-.49-.35l.4-.66c.05-.08.11-.14.18-.18s.16-.06.27-.06.21.03.3.09.21.13.33.2c.13.07.27.13.44.2.17.06.39.09.65.09.21,0,.38-.02.53-.07.15-.05.27-.11.36-.19.1-.08.17-.17.21-.28.04-.1.07-.21.07-.33,0-.17-.05-.31-.15-.41s-.23-.2-.4-.28c-.17-.08-.35-.15-.57-.21-.21-.06-.43-.13-.65-.21-.22-.07-.44-.16-.65-.26-.21-.1-.4-.23-.57-.38-.17-.15-.3-.34-.4-.57-.1-.22-.15-.49-.15-.81,0-.29.06-.57.17-.84.12-.27.29-.5.51-.7s.51-.36.85-.48c.34-.12.73-.18,1.17-.18.5,0,.95.08,1.35.25.41.16.74.38,1.01.64l-.39.62Z"/>
    <path class="cls-2" d="M245.25,14.34v10.4h-1.06c-.23,0-.37-.11-.43-.32l-.15-.69c-.29.33-.62.6-1,.8-.38.21-.81.31-1.31.31-.39,0-.75-.08-1.08-.25-.33-.16-.61-.4-.84-.71-.24-.31-.42-.69-.55-1.15-.13-.46-.19-.98-.19-1.57,0-.53.07-1.03.22-1.48.14-.46.35-.85.62-1.19s.59-.6.97-.79c.38-.19.8-.28,1.27-.28.4,0,.74.06,1.03.19.29.13.54.3.76.51v-3.79h1.73ZM243.52,19.39c-.2-.24-.41-.41-.64-.5-.23-.1-.48-.15-.75-.15s-.5.05-.71.15c-.21.1-.39.25-.54.44-.15.2-.26.45-.34.76s-.12.67-.12,1.08.03.78.1,1.07c.07.29.17.53.29.71.13.18.28.32.46.4.18.08.38.12.61.12.36,0,.67-.08.92-.22s.49-.36.71-.64v-3.22Z"/>
    <path class="cls-2" d="M246.79,18.56c.83-.76,1.82-1.13,2.98-1.13.42,0,.8.07,1.13.21s.61.33.84.57.4.54.52.88.18.71.18,1.12v4.54h-.78c-.16,0-.29-.02-.38-.07s-.16-.15-.21-.3l-.15-.52c-.18.16-.36.31-.53.43-.17.12-.35.23-.54.31s-.39.15-.6.19c-.21.04-.45.07-.7.07-.3,0-.58-.04-.84-.12-.26-.08-.48-.2-.67-.37s-.33-.37-.43-.61c-.1-.24-.15-.52-.15-.85,0-.18.03-.36.09-.54.06-.18.16-.35.3-.51.14-.16.32-.32.54-.46.22-.15.49-.27.81-.38.32-.11.69-.19,1.12-.26.42-.07.91-.11,1.46-.12v-.42c0-.48-.1-.84-.31-1.07s-.5-.35-.89-.35c-.28,0-.51.03-.7.1-.18.07-.35.14-.49.22-.14.08-.27.16-.38.22s-.24.1-.38.1c-.12,0-.22-.03-.31-.09-.08-.06-.15-.14-.2-.22l-.31-.55ZM250.75,21.68c-.5.02-.92.07-1.26.13-.34.06-.61.14-.82.24-.21.1-.35.21-.44.34-.09.13-.13.27-.13.43,0,.3.09.52.27.65.18.13.41.2.7.2.35,0,.66-.06.92-.19s.51-.32.76-.58v-1.21Z"/>
    <path class="cls-2" d="M257.97,24.74v-5.88l-.62-.1c-.14-.03-.24-.08-.33-.14-.08-.07-.12-.17-.12-.29v-.71h1.07v-.53c0-.41.06-.78.19-1.11.12-.33.3-.6.53-.83.23-.23.51-.4.84-.53.33-.12.71-.18,1.12-.18.33,0,.64.04.92.13l-.04.87c0,.07-.02.12-.06.16-.03.04-.08.07-.13.09-.05.02-.12.04-.19.04-.07,0-.14.01-.22.01-.21,0-.39.02-.55.07-.16.04-.3.12-.41.23s-.2.25-.26.43c-.06.18-.09.4-.09.67v.48h1.87v1.23h-1.81v5.89h-1.73Z"/>
    <path class="cls-2" d="M262.29,18.56c.83-.76,1.82-1.13,2.98-1.13.42,0,.8.07,1.13.21s.61.33.84.57.4.54.52.88.18.71.18,1.12v4.54h-.78c-.16,0-.29-.02-.38-.07s-.16-.15-.21-.3l-.15-.52c-.18.16-.36.31-.53.43-.17.12-.35.23-.54.31s-.39.15-.6.19c-.21.04-.45.07-.7.07-.3,0-.58-.04-.84-.12-.26-.08-.48-.2-.67-.37s-.33-.37-.43-.61c-.1-.24-.15-.52-.15-.85,0-.18.03-.36.09-.54.06-.18.16-.35.3-.51.14-.16.32-.32.54-.46.22-.15.49-.27.81-.38.32-.11.69-.19,1.12-.26.42-.07.91-.11,1.46-.12v-.42c0-.48-.1-.84-.31-1.07s-.5-.35-.89-.35c-.28,0-.51.03-.7.1-.18.07-.35.14-.49.22-.14.08-.27.16-.38.22s-.24.1-.38.1c-.12,0-.22-.03-.31-.09-.08-.06-.15-.14-.2-.22l-.31-.55ZM266.25,21.68c-.5.02-.92.07-1.26.13-.34.06-.61.14-.82.24-.21.1-.35.21-.44.34-.09.13-.13.27-.13.43,0,.3.09.52.27.65.18.13.41.2.7.2.35,0,.66-.06.92-.19s.51-.32.76-.58v-1.21Z"/>
    <path class="cls-2" d="M269.56,24.74v-7.18h1.06c.22,0,.37.1.44.31l.11.53c.13-.14.26-.27.4-.38.14-.12.29-.22.44-.3.16-.08.32-.15.5-.2s.38-.07.59-.07c.45,0,.82.12,1.12.37.29.25.51.57.65.98.11-.24.25-.44.42-.61s.35-.31.55-.42c.2-.11.41-.19.64-.24.23-.05.45-.08.68-.08.4,0,.75.06,1.06.18.31.12.57.3.78.53s.37.52.48.85.17.72.17,1.15v4.57h-1.73v-4.57c0-.46-.1-.8-.3-1.03-.2-.23-.5-.35-.88-.35-.18,0-.34.03-.49.09-.15.06-.28.15-.4.26s-.2.26-.27.43-.1.37-.1.59v4.57h-1.74v-4.57c0-.48-.1-.83-.29-1.05-.19-.22-.48-.33-.85-.33-.25,0-.49.06-.7.19-.22.12-.42.29-.61.51v5.26h-1.73Z"/>
    <path class="cls-2" d="M284.69,14.51l-1.73,1.83c-.09.09-.17.16-.26.19-.08.04-.19.05-.32.05h-1.04l.99-1.7c.07-.12.15-.21.25-.28.09-.06.23-.09.42-.09h1.68ZM283.08,17.56v7.18h-1.73v-7.18h1.73Z"/>
    <path class="cls-2" d="M286.96,14.34v10.4h-1.73v-10.4h1.73Z"/>
    <path class="cls-2" d="M290.72,15.47c0,.15-.03.29-.09.42-.06.13-.14.25-.24.34-.1.1-.22.18-.35.23-.14.06-.28.09-.43.09s-.29-.03-.42-.09c-.13-.06-.25-.14-.35-.23-.1-.1-.18-.21-.23-.34-.06-.13-.09-.27-.09-.42s.03-.3.09-.43c.06-.14.14-.25.23-.35.1-.1.21-.18.35-.24.13-.06.27-.09.42-.09s.3.03.43.09c.13.06.25.14.35.24.1.1.18.21.24.35s.09.28.09.43ZM290.48,17.56v7.18h-1.74v-7.18h1.74Z"/>
    <path class="cls-2" d="M292.07,18.56c.83-.76,1.82-1.13,2.98-1.13.42,0,.8.07,1.13.21s.61.33.84.57.4.54.52.88.18.71.18,1.12v4.54h-.78c-.16,0-.29-.02-.38-.07s-.16-.15-.21-.3l-.15-.52c-.18.16-.36.31-.53.43-.17.12-.35.23-.54.31s-.39.15-.6.19c-.21.04-.45.07-.7.07-.3,0-.58-.04-.84-.12-.26-.08-.48-.2-.67-.37s-.33-.37-.43-.61c-.1-.24-.15-.52-.15-.85,0-.18.03-.36.09-.54.06-.18.16-.35.3-.51.14-.16.32-.32.54-.46.22-.15.49-.27.81-.38.32-.11.69-.19,1.12-.26.42-.07.91-.11,1.46-.12v-.42c0-.48-.1-.84-.31-1.07s-.5-.35-.89-.35c-.28,0-.51.03-.7.1-.18.07-.35.14-.49.22-.14.08-.27.16-.38.22s-.24.1-.38.1c-.12,0-.22-.03-.31-.09-.08-.06-.15-.14-.2-.22l-.31-.55ZM296.04,21.68c-.5.02-.92.07-1.26.13-.34.06-.61.14-.82.24-.21.1-.35.21-.44.34-.09.13-.13.27-.13.43,0,.3.09.52.27.65.18.13.41.2.7.2.35,0,.66-.06.92-.19s.51-.32.76-.58v-1.21Z"/>
    <path class="cls-2" d="M308.99,14.34v10.4h-1.06c-.23,0-.37-.11-.43-.32l-.15-.69c-.29.33-.62.6-1,.8-.38.21-.81.31-1.31.31-.39,0-.75-.08-1.08-.25-.33-.16-.61-.4-.84-.71-.24-.31-.42-.69-.55-1.15-.13-.46-.19-.98-.19-1.57,0-.53.07-1.03.22-1.48.14-.46.35-.85.62-1.19s.59-.6.97-.79c.38-.19.8-.28,1.27-.28.4,0,.74.06,1.03.19.29.13.54.3.76.51v-3.79h1.73ZM307.26,19.39c-.2-.24-.41-.41-.64-.5-.23-.1-.48-.15-.75-.15s-.5.05-.71.15c-.21.1-.39.25-.54.44-.15.2-.26.45-.34.76s-.12.67-.12,1.08.03.78.1,1.07c.07.29.17.53.29.71.13.18.28.32.46.4.18.08.38.12.61.12.36,0,.67-.08.92-.22s.49-.36.71-.64v-3.22Z"/>
    <path class="cls-2" d="M313.87,17.45c.53,0,1.02.09,1.45.26s.81.42,1.12.74.55.7.72,1.16c.17.46.25.97.25,1.53s-.08,1.08-.25,1.54c-.17.46-.41.85-.72,1.17-.31.32-.68.57-1.12.74-.44.17-.92.26-1.45.26s-1.02-.09-1.46-.26c-.44-.17-.81-.42-1.12-.74-.31-.32-.55-.71-.72-1.17-.17-.46-.26-.97-.26-1.54s.08-1.08.26-1.53c.17-.46.41-.84.72-1.16s.68-.56,1.12-.74c.44-.17.93-.26,1.46-.26ZM313.87,23.52c.6,0,1.04-.2,1.33-.6s.43-.99.43-1.76-.14-1.37-.43-1.77c-.29-.41-.73-.61-1.33-.61s-1.06.2-1.35.61-.44,1-.44,1.77.15,1.36.44,1.76c.29.4.74.61,1.35.61Z"/>
    <path class="cls-2" d="M327.28,19.08c-.05.07-.1.12-.15.15s-.12.06-.21.06c-.09,0-.17-.03-.26-.08s-.18-.11-.3-.18c-.12-.07-.26-.13-.42-.18s-.36-.08-.6-.08c-.3,0-.57.05-.8.16s-.42.27-.57.47-.26.45-.34.75c-.07.29-.11.62-.11.99s.04.72.12,1.02c.08.3.2.55.35.75.15.2.34.36.56.46.22.1.47.16.74.16s.5-.03.67-.1c.17-.07.31-.14.43-.22.12-.08.22-.16.3-.22.09-.07.18-.1.29-.1.14,0,.25.05.32.16l.5.63c-.19.22-.4.41-.62.56-.22.15-.46.27-.7.36s-.49.16-.74.19c-.25.04-.51.06-.76.06-.44,0-.86-.08-1.25-.25-.39-.17-.74-.41-1.03-.72s-.53-.71-.7-1.17c-.17-.46-.26-.98-.26-1.57,0-.53.08-1.02.23-1.47s.38-.84.67-1.17.66-.59,1.09-.77.93-.28,1.5-.28,1.01.09,1.41.26c.4.17.77.42,1.09.74l-.46.63Z"/>
    <path class="cls-2" d="M330.92,15.47c0,.15-.03.29-.09.42-.06.13-.14.25-.24.34-.1.1-.22.18-.35.23-.14.06-.28.09-.43.09s-.29-.03-.42-.09c-.13-.06-.25-.14-.35-.23-.1-.1-.18-.21-.23-.34-.06-.13-.09-.27-.09-.42s.03-.3.09-.43c.06-.14.14-.25.23-.35.1-.1.21-.18.35-.24.13-.06.27-.09.42-.09s.3.03.43.09c.13.06.25.14.35.24.1.1.18.21.24.35s.09.28.09.43ZM330.68,17.56v7.18h-1.74v-7.18h1.74Z"/>
    <path class="cls-2" d="M334.84,24.85c-.62,0-1.1-.18-1.44-.53-.33-.35-.5-.84-.5-1.46v-4.01h-.73c-.09,0-.17-.03-.24-.09-.07-.06-.1-.15-.1-.27v-.69l1.15-.19.36-1.96c.02-.09.07-.17.13-.22.07-.05.15-.08.25-.08h.9v2.26h1.92v1.23h-1.92v3.89c0,.22.05.4.16.53.11.13.26.19.45.19.11,0,.2-.01.27-.04s.13-.05.19-.08c.05-.03.1-.05.14-.08s.08-.04.13-.04c.05,0,.09.01.13.04.03.03.07.06.11.12l.52.84c-.25.21-.54.37-.87.48-.33.11-.67.16-1.01.16Z"/>
    <path class="cls-2" d="M340.77,17.45c.53,0,1.02.09,1.45.26s.81.42,1.12.74.55.7.72,1.16c.17.46.25.97.25,1.53s-.08,1.08-.25,1.54c-.17.46-.41.85-.72,1.17-.31.32-.68.57-1.12.74-.44.17-.92.26-1.45.26s-1.02-.09-1.46-.26c-.44-.17-.81-.42-1.12-.74-.31-.32-.55-.71-.72-1.17-.17-.46-.26-.97-.26-1.54s.08-1.08.26-1.53c.17-.46.41-.84.72-1.16s.68-.56,1.12-.74c.44-.17.93-.26,1.46-.26ZM340.77,23.52c.6,0,1.04-.2,1.33-.6s.43-.99.43-1.76-.14-1.37-.43-1.77c-.29-.41-.73-.61-1.33-.61s-1.06.2-1.35.61-.44,1-.44,1.77.15,1.36.44,1.76c.29.4.74.61,1.35.61Z"/>
    <path class="cls-2" d="M350.78,19.08c-.05.07-.1.12-.15.15s-.12.06-.21.06c-.09,0-.17-.03-.26-.08s-.18-.11-.3-.18c-.12-.07-.26-.13-.42-.18s-.36-.08-.6-.08c-.3,0-.57.05-.8.16s-.42.27-.57.47-.26.45-.34.75c-.07.29-.11.62-.11.99s.04.72.12,1.02c.08.3.2.55.35.75.15.2.34.36.56.46.22.1.47.16.74.16s.5-.03.67-.1c.17-.07.31-.14.43-.22.12-.08.22-.16.3-.22.09-.07.18-.1.29-.1.14,0,.25.05.32.16l.5.63c-.19.22-.4.41-.62.56-.22.15-.46.27-.7.36s-.49.16-.74.19c-.25.04-.51.06-.76.06-.44,0-.86-.08-1.25-.25-.39-.17-.74-.41-1.03-.72s-.53-.71-.7-1.17c-.17-.46-.26-.98-.26-1.57,0-.53.08-1.02.23-1.47s.38-.84.67-1.17.66-.59,1.09-.77.93-.28,1.5-.28,1.01.09,1.41.26c.4.17.77.42,1.09.74l-.46.63Z"/>
    <path class="cls-2" d="M354.02,18.81c.22-.43.49-.77.8-1.01.31-.25.67-.37,1.09-.37.33,0,.6.07.8.22l-.11,1.29c-.02.08-.06.14-.1.18-.04.03-.1.05-.18.05-.07,0-.17-.01-.31-.04-.14-.02-.27-.03-.4-.03-.19,0-.36.03-.51.08-.15.06-.28.14-.4.24-.12.1-.22.23-.31.38-.09.15-.18.32-.26.51v4.42h-1.73v-7.18h1.02c.18,0,.3.03.37.09.07.06.12.18.14.34l.11.81Z"/>
    <path class="cls-2" d="M360.58,17.45c.53,0,1.02.09,1.45.26s.81.42,1.12.74.55.7.72,1.16c.17.46.25.97.25,1.53s-.08,1.08-.25,1.54c-.17.46-.41.85-.72,1.17-.31.32-.68.57-1.12.74-.44.17-.92.26-1.45.26s-1.02-.09-1.46-.26c-.44-.17-.81-.42-1.12-.74-.31-.32-.55-.71-.72-1.17-.17-.46-.26-.97-.26-1.54s.08-1.08.26-1.53c.17-.46.41-.84.72-1.16s.68-.56,1.12-.74c.44-.17.93-.26,1.46-.26ZM360.58,23.52c.6,0,1.04-.2,1.33-.6s.43-.99.43-1.76-.14-1.37-.43-1.77c-.29-.41-.73-.61-1.33-.61s-1.06.2-1.35.61-.44,1-.44,1.77.15,1.36.44,1.76c.29.4.74.61,1.35.61Z"/>
    <path class="cls-2" d="M365.45,24.74v-7.18h1.06c.22,0,.37.1.44.31l.11.53c.13-.14.26-.27.4-.38.14-.12.29-.22.44-.3.16-.08.32-.15.5-.2s.38-.07.59-.07c.45,0,.82.12,1.12.37.29.25.51.57.65.98.11-.24.25-.44.42-.61s.35-.31.55-.42c.2-.11.41-.19.64-.24.23-.05.45-.08.68-.08.4,0,.75.06,1.06.18.31.12.57.3.78.53s.37.52.48.85.17.72.17,1.15v4.57h-1.73v-4.57c0-.46-.1-.8-.3-1.03-.2-.23-.5-.35-.88-.35-.18,0-.34.03-.49.09-.15.06-.28.15-.4.26s-.2.26-.27.43-.1.37-.1.59v4.57h-1.74v-4.57c0-.48-.1-.83-.29-1.05-.19-.22-.48-.33-.85-.33-.25,0-.49.06-.7.19-.22.12-.42.29-.61.51v5.26h-1.73Z"/>
    <path class="cls-2" d="M380.35,17.45c.53,0,1.02.09,1.45.26s.81.42,1.12.74.55.7.72,1.16c.17.46.25.97.25,1.53s-.08,1.08-.25,1.54c-.17.46-.41.85-.72,1.17-.31.32-.68.57-1.12.74-.44.17-.92.26-1.45.26s-1.02-.09-1.46-.26c-.44-.17-.81-.42-1.12-.74-.31-.32-.55-.71-.72-1.17-.17-.46-.26-.97-.26-1.54s.08-1.08.26-1.53c.17-.46.41-.84.72-1.16s.68-.56,1.12-.74c.44-.17.93-.26,1.46-.26ZM380.35,23.52c.6,0,1.04-.2,1.33-.6s.43-.99.43-1.76-.14-1.37-.43-1.77c-.29-.41-.73-.61-1.33-.61s-1.06.2-1.35.61-.44,1-.44,1.77.15,1.36.44,1.76c.29.4.74.61,1.35.61Z"/>
    <path class="cls-2" d="M392.18,14.62c.68,0,1.26.08,1.76.24.5.16.9.38,1.23.67.32.28.56.62.72,1.02s.23.83.23,1.3-.08.94-.24,1.35c-.16.41-.41.76-.74,1.05-.33.29-.74.52-1.23.69-.49.16-1.07.24-1.73.24h-1.41v3.56h-1.88v-10.12h3.29ZM392.18,19.71c.35,0,.65-.04.9-.13.26-.09.47-.21.64-.37.17-.16.3-.36.38-.59.08-.23.13-.49.13-.77s-.04-.52-.13-.74-.21-.41-.38-.56c-.17-.15-.38-.27-.64-.35-.26-.08-.56-.12-.91-.12h-1.41v3.63h1.41Z"/>
    <path class="cls-2" d="M404.19,20.93v1c0,.09-.03.17-.09.24s-.15.1-.26.1h-.92v2.47h-1.5v-2.47h-4.27c-.12,0-.22-.04-.31-.11-.09-.07-.14-.16-.17-.27l-.18-.88,4.79-6.41h1.64v6.31h1.27ZM401.41,20.93v-3.31c0-.31.02-.66.06-1.04l-3.14,4.35h3.08Z"/>
    <path class="cls-2" d="M407.39,18.29c.22-.05.44-.08.64-.1.21-.02.4-.03.59-.03.53,0,1,.08,1.41.24.41.16.75.38,1.02.66.28.28.48.61.62.98.14.38.21.78.21,1.21,0,.54-.09,1.03-.28,1.47-.19.44-.45.82-.79,1.14-.34.32-.73.56-1.19.73-.46.17-.96.26-1.5.26-.32,0-.62-.03-.9-.1-.28-.07-.55-.15-.8-.26-.25-.11-.48-.24-.69-.38-.21-.14-.4-.29-.57-.45l.53-.74c.11-.16.26-.24.44-.24.12,0,.24.04.36.11.12.08.26.16.42.25.16.09.34.17.55.25.21.08.47.11.77.11.32,0,.6-.05.84-.15.24-.1.45-.25.61-.43.16-.18.28-.4.36-.66.08-.25.12-.53.12-.83,0-.55-.16-.98-.48-1.29-.32-.31-.79-.47-1.42-.47-.48,0-.97.09-1.48.27l-1.08-.31.84-4.91h5v.74c0,.25-.08.45-.23.6-.15.15-.42.23-.78.23h-2.78l-.36,2.11Z"/>
    <path class="cls-2" d="M420.44,19.68c0,.88-.09,1.65-.28,2.3-.19.65-.45,1.19-.78,1.61-.33.42-.73.74-1.18.95-.46.21-.95.31-1.47.31s-1.02-.1-1.47-.31c-.45-.21-.84-.52-1.17-.95-.33-.42-.59-.96-.78-1.61-.19-.65-.28-1.42-.28-2.3s.09-1.65.28-2.3c.19-.65.45-1.18.78-1.61.33-.42.72-.74,1.17-.95.45-.21.94-.31,1.47-.31s1.02.1,1.47.31c.46.21.85.52,1.18.95.33.42.6.96.78,1.61.19.65.28,1.42.28,2.3ZM418.66,19.68c0-.73-.05-1.34-.16-1.82s-.25-.86-.43-1.15c-.18-.28-.39-.48-.62-.6-.23-.11-.48-.17-.73-.17s-.49.06-.72.17c-.23.12-.43.31-.61.6-.18.29-.32.67-.42,1.15-.11.48-.16,1.09-.16,1.82s.05,1.34.16,1.82c.1.48.25.86.42,1.15.18.28.38.48.61.6.23.11.47.17.72.17s.5-.06.73-.17c.23-.11.44-.31.62-.6.18-.29.32-.67.43-1.15s.16-1.09.16-1.82Z"/>
  </g>
</svg>