<svg version="1.2" xmlns="http://www.w3.org/2000/svg" viewBox="0 0 247 184" width="247" height="184"><style>.a{fill:#94a26e}.b{fill:#fff}.c{fill:#cda45e}.d{fill:#930d0c}</style><path fill-rule="evenodd" class="a" d="m46 60.3c-16.7 0-30.2-13.4-30.2-30.1 0-16.7 13.5-30.2 30.2-30.2 16.7 0 30.2 13.5 30.2 30.2 0 16.7-13.5 30.1-30.2 30.1z"/><path class="b" d="m57.1 27.7c-0.4-0.7-1.2-2.5-1.4-3.6-0.3-1.1-0.7-2.2-1.5-3.1q0 0 0 0-0.4-0.3-0.5-0.8c-0.2-0.8-0.6-2.5-0.7-3.8-0.1-1.7-1.3-2.9-3-3.1 0 0-1.3-1-2.3-1.1l-0.2-1.7c0 0 0.5-0.9 0.6-1.5 0 0 0.7-0.4 0-1.3 0 0 0.4-2.3-2.1-2.5-2.5 0.2-2.1 2.5-2.1 2.5-0.7 0.9 0 1.3 0 1.3 0.1 0.6 0.6 1.5 0.6 1.5l-0.2 1.7c-1 0.1-2.3 1.1-2.3 1.1-1.7 0.2-2.9 1.4-3.1 3.1-0.1 1.3-0.4 3-0.6 3.8-0.1 0.3-0.3 0.6-0.5 0.8q0 0 0 0c-0.8 0.8-1.2 1.9-1.5 3.1-0.2 1.1-1 2.9-1.4 3.6q0 0 0 0c-0.2 0.3-1.5 2.1 0 2.5 0.6 0.1 0.9 0 1.1-0.2 0.2-0.1 0.3-0.3 0.3-0.5 0.1-0.3 0.1-0.6 0.1-0.6 0-0.3 0.1-0.6 0.1-0.8q0.2-0.4 0.5-0.8c1.8-2.3 2.5-3.9 2.7-4.8 0.3-0.9 0.6-1.7 1-2.6 0.4-0.9 0.6-1.5 0.6-1.9 0-0.2 0.2-0.2 0.3-0.1 0.8 2.4 0.4 5.9 0.2 7.7q-0.3 0.9-0.5 1.8c-1.2 3.4-1 8.5-0.7 11.4q0.2 1.7-0.2 3.4c-0.6 2.2-0.4 7.3-0.3 9.3q0 1-0.4 1.8l-0.4 0.7c-0.7 1.2 0.1 1.2 0.1 1.2h2c0.3 0 0.7-0.4 0.6-0.8-0.1-3 0.3-5.2 0.5-6 0-0.3 0.1-0.5 0.2-0.8 0.6-1.4 0.7-4.3 0.7-5.4q0-0.4 0.1-0.7c2.5-6.9 2.3-10.4 2.3-10.4h0.3c0 0-0.1 3.5 2.3 10.4q0.1 0.3 0.2 0.7c0 1.1 0.1 4 0.7 5.4 0.1 0.3 0.2 0.5 0.2 0.8 0.2 0.8 0.5 3 0.4 6 0 0.4 0.3 0.8 0.7 0.8h1.9c0 0 0.9 0 0.2-1.2l-0.4-0.7c-0.3-0.5-0.5-1.1-0.4-1.8 0.1-2 0.3-7.1-0.3-9.3q-0.4-1.7-0.3-3.4c0.3-2.9 0.6-8-0.6-11.4q-0.3-0.9-0.5-1.8c-0.2-1.8-0.6-5.3 0.2-7.7 0.1-0.1 0.2-0.1 0.3 0.1 0 0.4 0.2 1 0.6 1.9 0.3 0.9 0.7 1.7 0.9 2.6 0.3 0.9 1 2.5 2.8 4.8q0.2 0.4 0.4 0.8c0.1 0.2 0.2 0.5 0.2 0.8q0 0.3 0.1 0.6c0 0.2 0.1 0.4 0.2 0.5 0.2 0.2 0.6 0.3 1.1 0.2 1.6-0.4 0.3-2.2 0.1-2.5z"/><path fill-rule="evenodd" class="a" d="m200.9 60.3c-16.7 0-30.2-13.4-30.2-30.1 0-16.7 13.5-30.2 30.2-30.2 16.7 0 30.1 13.5 30.1 30.2 0 16.7-13.4 30.1-30.1 30.1z"/><path class="b" d="m212.6 18.4c-3.3-3.2-8.6-3.2-11.9 0l-11.7 11.6c-3.2 3.3-3 8.6 0.3 11.9 3.3 3.3 8.6 3.3 11.9 0l11.4-11.6c3.3-3.2 3.3-8.5 0.1-11.8q-0.1 0-0.1-0.1zm-8.3 14.7l-6.5-6.4c-0.5-0.6-0.5-1.5 0-2l4.5-4.5c2.4-2.4 6.3-2.4 8.7 0 2.2 2.4 2.2 6.1-0.1 8.4l-4.5 4.5c-0.6 0.6-1.5 0.6-2.1 0z"/><path fill-rule="evenodd" class="c" d="m6.6 69.3h78.8c3.3 0 6 2.7 6 6v8.9c0 3.3-2.7 6-6 6h-78.8c-3.3 0-6-2.7-6-6v-8.9c0-3.3 2.7-6 6-6z"/><path fill-rule="evenodd" class="c" d="m161.5 69.3h78.8c3.3 0 6 2.7 6 6v8.9c0 3.3-2.7 6-6 6h-78.8c-3.3 0-6-2.7-6-6v-8.9c0-3.3 2.7-6 6-6z"/><path  d="m9.4 76.5v2.1h2.7v1.1h-2.7v3h-1.3v-7.3h4.5v1.1z"/><path  d="m12.8 78.3q0.8-0.9 2.1-0.9 0.4 0 0.8 0.2 0.3 0.1 0.6 0.4 0.2 0.3 0.4 0.6 0.1 0.4 0.1 0.8v3.3h-0.6q-0.2 0-0.3-0.1 0 0-0.1-0.2l-0.1-0.4q-0.2 0.2-0.4 0.3-0.2 0.2-0.4 0.3-0.2 0.1-0.4 0.1-0.2 0.1-0.5 0.1-0.3 0-0.6-0.1-0.3-0.1-0.5-0.3-0.2-0.2-0.3-0.4-0.1-0.3-0.1-0.6 0-0.2 0-0.4 0.1-0.2 0.3-0.4 0.1-0.2 0.3-0.3 0.3-0.2 0.6-0.3 0.4-0.1 0.8-0.2 0.5-0.1 1.1-0.1v-0.3q0-0.5-0.3-0.7-0.2-0.3-0.6-0.3-0.3 0-0.5 0.1-0.2 0.1-0.3 0.1-0.2 0.1-0.3 0.2-0.1 0.1-0.3 0.1-0.1 0-0.2-0.1-0.1-0.1-0.2-0.2l-0.2-0.4zm2.9 2.3q-0.6 0-0.9 0.1-0.4 0-0.6 0.1-0.3 0.1-0.3 0.3-0.1 0.1-0.1 0.3 0 0.3 0.1 0.4 0.2 0.2 0.5 0.2 0.4 0 0.7-0.2 0.3-0.1 0.5-0.4v-0.9z"/><path  d="m19.1 78.4q0.3-0.4 0.6-0.7 0.3-0.3 0.8-0.3 0.3 0 0.5 0.2l-0.1 0.9q0 0.1 0 0.1-0.1 0.1-0.2 0.1 0 0-0.2 0-0.1-0.1-0.3-0.1-0.2 0-0.3 0.1-0.2 0.1-0.3 0.2-0.1 0.1-0.2 0.2-0.1 0.2-0.2 0.4v3.2h-1.3v-5.1h0.8q0.2-0.1 0.2 0 0.1 0.1 0.1 0.3l0.1 0.5z"/><path  d="m21.7 82.7v-5.2h0.7q0.3 0 0.3 0.3l0.1 0.3q0.2-0.1 0.3-0.2 0.1-0.2 0.3-0.2 0.2-0.1 0.4-0.2 0.2 0 0.4 0 0.5 0 0.8 0.2 0.3 0.3 0.5 0.7 0.1-0.2 0.3-0.4 0.1-0.2 0.4-0.3 0.2-0.1 0.4-0.2 0.3 0 0.5 0 0.4-0.1 0.8 0.1 0.3 0.1 0.5 0.4 0.2 0.2 0.4 0.6 0.1 0.3 0.1 0.8v3.3h-1.2v-3.3q0-0.5-0.3-0.7-0.2-0.3-0.6-0.3-0.2 0-0.3 0.1-0.2 0-0.3 0.2-0.1 0.1-0.2 0.3-0.1 0.2-0.1 0.4v3.3h-1.2v-3.3q0-0.5-0.2-0.7-0.2-0.3-0.6-0.3-0.3 0-0.5 0.2-0.3 0.1-0.5 0.3v3.8h-1.2z"/><path  d="m29.9 78.3q0.9-0.9 2.2-0.9 0.4 0 0.8 0.2 0.3 0.1 0.6 0.4 0.2 0.3 0.3 0.6 0.2 0.4 0.2 0.8v3.3h-0.6q-0.2 0-0.3-0.1-0.1 0-0.1-0.2l-0.1-0.4q-0.2 0.2-0.4 0.3-0.2 0.2-0.4 0.3-0.2 0.1-0.4 0.1-0.3 0.1-0.5 0.1-0.4 0-0.6-0.1-0.3-0.1-0.5-0.3-0.2-0.2-0.3-0.4-0.1-0.3-0.1-0.6 0-0.2 0-0.4 0.1-0.2 0.2-0.4 0.2-0.2 0.4-0.3 0.3-0.2 0.6-0.3 0.3-0.1 0.8-0.2 0.5-0.1 1-0.1v-0.3q0-0.5-0.2-0.7-0.2-0.3-0.6-0.3-0.3 0-0.5 0.1-0.2 0.1-0.4 0.1-0.1 0.1-0.2 0.2-0.2 0.1-0.3 0.1-0.1 0-0.2-0.1-0.1-0.1-0.2-0.2l-0.2-0.4zm2.8 2.3q-0.5 0-0.9 0.1-0.3 0-0.6 0.1-0.2 0.1-0.3 0.3-0.1 0.1-0.1 0.3 0 0.3 0.2 0.4 0.2 0.2 0.5 0.2 0.4 0 0.7-0.2 0.3-0.1 0.5-0.4v-0.9z"/><path  d="m38.8 78.6c0 0-0.1 0.1-0.1 0.1q-0.1 0.1-0.2 0.1 0 0-0.2-0.1 0 0-0.2-0.1-0.1-0.1-0.3-0.1-0.1-0.1-0.4-0.1-0.3 0-0.6 0.1-0.2 0.1-0.4 0.4-0.1 0.2-0.2 0.5-0.1 0.3-0.1 0.7 0 0.4 0.1 0.7 0.1 0.3 0.2 0.6 0.2 0.2 0.4 0.3 0.3 0.1 0.6 0.1 0.3 0 0.5-0.1 0.1 0 0.3-0.1 0.1-0.1 0.2-0.2 0.1-0.1 0.2-0.1 0.1 0 0.2 0.2l0.4 0.4q-0.2 0.2-0.5 0.4-0.2 0.2-0.5 0.3-0.2 0.1-0.5 0.1-0.3 0.1-0.5 0.1-0.5 0-0.9-0.2-0.5-0.2-0.8-0.5-0.3-0.4-0.5-0.9-0.2-0.5-0.2-1.1 0-0.6 0.2-1 0.2-0.5 0.5-0.9 0.3-0.3 0.8-0.5 0.4-0.2 1-0.2 0.6 0 1 0.2 0.5 0.1 0.8 0.5l-0.3 0.4z"/><path  d="m42.1 77.5q0.6-0.1 1.1 0.1 0.4 0.2 0.8 0.6 0.3 0.3 0.5 0.8 0.2 0.5 0.2 1.1 0 0.6-0.2 1.1-0.2 0.5-0.5 0.8-0.4 0.4-0.8 0.5-0.5 0.2-1.1 0.2-0.6 0-1-0.2-0.5-0.1-0.8-0.5-0.3-0.3-0.5-0.8-0.2-0.5-0.2-1.1 0-0.6 0.2-1.1 0.1-0.5 0.5-0.8 0.3-0.4 0.8-0.6 0.4-0.1 1-0.1zm0 4.3q0.7 0 1-0.4 0.3-0.5 0.3-1.3 0-0.8-0.3-1.3-0.3-0.4-1-0.4-0.6 0-0.9 0.4-0.4 0.5-0.4 1.3 0 0.8 0.4 1.3 0.3 0.4 0.9 0.4z"/><path  d="m50.1 75.2v7.5h-0.8q-0.2 0-0.3-0.3l-0.1-0.5q-0.3 0.4-0.7 0.6-0.4 0.2-1 0.2-0.4 0-0.7-0.1-0.4-0.2-0.6-0.5-0.3-0.4-0.4-0.9-0.2-0.5-0.2-1.1 0-0.5 0.2-1 0.1-0.5 0.4-0.9 0.3-0.4 0.7-0.6 0.4-0.2 0.9-0.2 0.5 0 0.8 0.2 0.3 0.1 0.5 0.3v-2.7c0 0 1.3 0 1.3 0zm-1.3 3.6q-0.2-0.2-0.4-0.3-0.3-0.1-0.6-0.1-0.3 0-0.5 0.1-0.2 0.1-0.4 0.3-0.1 0.2-0.2 0.5-0.1 0.4-0.1 0.8 0 0.4 0.1 0.8 0.1 0.3 0.2 0.5 0.1 0.2 0.3 0.3 0.2 0.1 0.5 0.1 0.4 0 0.6-0.2 0.3-0.2 0.5-0.4v-2.3z"/><path  d="m52.7 76q0 0.2 0 0.3-0.1 0.2-0.2 0.3-0.1 0.1-0.3 0.2-0.1 0-0.3 0-0.1 0-0.3 0-0.1-0.1-0.2-0.2-0.1-0.1-0.2-0.3 0-0.1 0-0.3 0-0.1 0-0.3 0.1-0.1 0.2-0.2 0.1-0.1 0.2-0.2 0.2 0 0.3 0 0.2 0 0.3 0 0.2 0.1 0.3 0.2 0.1 0.1 0.2 0.2 0 0.2 0 0.3zm-0.1 1.5v5.2h-1.3v-5.2z"/><path  d="m55 78.2q0.1-0.2 0.3-0.3 0.2-0.2 0.4-0.3 0.2-0.1 0.4-0.1 0.2-0.1 0.5-0.1 0.4 0 0.7 0.2 0.3 0.1 0.5 0.4 0.3 0.2 0.4 0.6 0.1 0.3 0.1 0.8v3.2h-1.2v-3.2q0-0.5-0.3-0.8-0.2-0.2-0.6-0.2-0.3 0-0.6 0.1-0.3 0.2-0.5 0.4v3.7h-1.3v-5.1h0.8q0.2 0 0.3 0.2c0 0 0.1 0.5 0.1 0.5z"/><path  d="m59.3 78.3q0.9-0.9 2.2-0.9 0.4 0 0.8 0.2 0.3 0.1 0.6 0.4 0.2 0.3 0.3 0.6 0.2 0.4 0.2 0.8v3.3h-0.6q-0.2 0-0.3-0.1-0.1 0-0.1-0.2l-0.1-0.4q-0.2 0.2-0.4 0.3-0.2 0.2-0.4 0.3-0.2 0.1-0.4 0.1-0.3 0.1-0.5 0.1-0.4 0-0.6-0.1-0.3-0.1-0.5-0.3-0.2-0.2-0.3-0.4-0.1-0.3-0.1-0.6 0-0.2 0-0.4 0.1-0.2 0.2-0.4 0.2-0.2 0.4-0.3 0.3-0.2 0.6-0.3 0.3-0.1 0.8-0.2 0.5-0.1 1-0.1v-0.3q0-0.5-0.2-0.7-0.2-0.3-0.6-0.3-0.3 0-0.5 0.1-0.2 0.1-0.4 0.1-0.1 0.1-0.2 0.2-0.2 0.1-0.3 0.1-0.1 0-0.2-0.1-0.1-0.1-0.2-0.2l-0.2-0.4zm3.7-1.4h-0.8c0 0-0.1 0-0.1 0q-0.1 0-0.2-0.1l-0.5-0.5c0 0 0-0.1-0.1-0.2q0 0.1-0.1 0.2l-0.5 0.5c0 0 0 0.1-0.1 0.1q-0.1 0-0.1 0h-0.9l1.2-1.4h1.1l1.2 1.4zm-0.9 3.7q-0.6 0-0.9 0-0.4 0.1-0.6 0.2-0.2 0.1-0.3 0.3-0.1 0.1-0.1 0.3 0 0.3 0.2 0.4 0.2 0.2 0.5 0.2 0.3 0 0.6-0.2 0.3-0.1 0.6-0.4v-0.9z"/><path  d="m64.5 82.7v-5.2h0.8q0.2 0 0.3 0.3l0.1 0.3q0.1-0.1 0.3-0.2 0.1-0.2 0.3-0.2 0.1-0.1 0.3-0.2 0.2 0 0.5 0 0.4 0 0.8 0.2 0.3 0.3 0.4 0.7 0.1-0.2 0.3-0.4 0.2-0.2 0.4-0.3 0.2-0.1 0.5-0.2 0.2 0 0.5 0 0.4-0.1 0.7 0.1 0.4 0.1 0.6 0.4 0.2 0.2 0.3 0.6 0.1 0.3 0.1 0.8v3.3h-1.2v-3.3q0-0.5-0.2-0.7-0.2-0.3-0.6-0.3-0.2 0-0.4 0.1-0.1 0-0.3 0.2-0.1 0.1-0.1 0.3-0.1 0.2-0.1 0.4v3.3h-1.3v-3.3q0-0.5-0.2-0.7-0.2-0.3-0.6-0.3-0.3 0-0.5 0.2-0.2 0.1-0.4 0.3v3.8h-1.2z"/><path  d="m74.3 76q0 0.2 0 0.3-0.1 0.2-0.2 0.3-0.1 0.1-0.2 0.2-0.2 0-0.3 0-0.2 0-0.3 0-0.2-0.1-0.3-0.2-0.1-0.1-0.2-0.3 0-0.1 0-0.3 0-0.1 0-0.3 0.1-0.1 0.2-0.2 0.1-0.1 0.3-0.2 0.1 0 0.3 0 0.1 0 0.3 0 0.1 0.1 0.2 0.2 0.1 0.1 0.2 0.2 0 0.2 0 0.3zm-0.1 1.5v5.2h-1.3v-5.2z"/><path  d="m79.1 78.6c0 0 0 0.1-0.1 0.1q-0.1 0.1-0.1 0.1-0.1 0-0.2-0.1-0.1 0-0.2-0.1-0.2-0.1-0.3-0.1-0.2-0.1-0.5-0.1-0.3 0-0.5 0.1-0.3 0.1-0.5 0.4-0.1 0.2-0.2 0.5-0.1 0.3-0.1 0.7 0 0.4 0.1 0.7 0.1 0.3 0.3 0.6 0.1 0.2 0.4 0.3 0.2 0.1 0.5 0.1 0.3 0 0.5-0.1 0.2 0 0.3-0.1 0.1-0.1 0.2-0.2 0.1-0.1 0.2-0.1 0.2 0 0.2 0.2l0.4 0.4q-0.2 0.2-0.5 0.4-0.2 0.2-0.5 0.3-0.2 0.1-0.5 0.1-0.3 0.1-0.5 0.1-0.5 0-0.9-0.2-0.4-0.2-0.8-0.5-0.3-0.4-0.5-0.9-0.1-0.5-0.1-1.1 0-0.6 0.1-1 0.2-0.5 0.5-0.9 0.3-0.3 0.8-0.5 0.5-0.2 1.1-0.2 0.5 0 1 0.2 0.4 0.1 0.7 0.5l-0.3 0.4z"/><path  d="m80.1 78.3q0.9-0.9 2.2-0.9 0.4 0 0.8 0.2 0.3 0.1 0.6 0.4 0.2 0.3 0.3 0.6 0.2 0.4 0.2 0.8v3.3h-0.6q-0.2 0-0.3-0.1-0.1 0-0.1-0.2l-0.1-0.4q-0.2 0.2-0.4 0.3-0.2 0.2-0.4 0.3-0.2 0.1-0.4 0.1-0.2 0.1-0.5 0.1-0.4 0-0.6-0.1-0.3-0.1-0.5-0.3-0.2-0.2-0.3-0.4-0.1-0.3-0.1-0.6 0-0.2 0-0.4 0.1-0.2 0.2-0.4 0.2-0.2 0.4-0.3 0.3-0.2 0.6-0.3 0.3-0.1 0.8-0.2 0.5-0.1 1-0.1v-0.3q0.1-0.5-0.2-0.7-0.2-0.3-0.6-0.3-0.3 0-0.5 0.1-0.2 0.1-0.4 0.1-0.1 0.1-0.2 0.2-0.2 0.1-0.3 0.1-0.1 0-0.2-0.1-0.1-0.1-0.2-0.2l-0.2-0.4zm2.8 2.3q-0.5 0-0.9 0.1-0.3 0-0.5 0.1-0.3 0.1-0.4 0.3 0 0.1-0.1 0.3 0 0.3 0.2 0.4 0.2 0.2 0.5 0.2 0.4 0 0.7-0.2 0.3-0.1 0.5-0.4v-0.9z"/><path  d="m166.9 76.5v2.1h2.7v1.1h-2.7v3h-1.4v-7.3h4.6v1.1z"/><path  d="m170.2 78.3q0.9-0.9 2.1-0.9 0.5 0 0.8 0.2 0.4 0.1 0.6 0.4 0.3 0.3 0.4 0.6 0.1 0.4 0.1 0.8v3.3h-0.5q-0.2 0-0.3-0.1-0.1 0-0.2-0.2l-0.1-0.4q-0.2 0.2-0.3 0.3-0.2 0.2-0.4 0.3-0.2 0.1-0.5 0.1-0.2 0.1-0.5 0.1-0.3 0-0.6-0.1-0.2-0.1-0.4-0.3-0.2-0.2-0.4-0.4-0.1-0.3-0.1-0.6 0-0.2 0.1-0.4 0.1-0.2 0.2-0.4 0.2-0.2 0.4-0.3 0.2-0.2 0.6-0.3 0.3-0.1 0.8-0.2 0.4-0.1 1-0.1v-0.3q0-0.5-0.2-0.7-0.2-0.3-0.7-0.3-0.3 0-0.5 0.1-0.2 0.1-0.3 0.1-0.2 0.1-0.3 0.2-0.1 0.1-0.2 0.1-0.2 0-0.3-0.1-0.1-0.1-0.1-0.2l-0.2-0.4zm2.8 2.3q-0.6 0-0.9 0.1-0.4 0-0.6 0.1-0.2 0.1-0.3 0.3-0.1 0.1-0.1 0.3 0 0.3 0.2 0.4 0.2 0.2 0.5 0.2 0.4 0 0.6-0.2 0.3-0.1 0.6-0.4v-0.9z"/><path  d="m176.6 78.4q0.2-0.4 0.5-0.7 0.4-0.3 0.8-0.3 0.4 0 0.6 0.2l-0.1 0.9q0 0.1-0.1 0.1 0 0.1-0.1 0.1-0.1 0-0.2 0-0.2-0.1-0.3-0.1-0.2 0-0.4 0.1-0.1 0.1-0.3 0.2-0.1 0.1-0.2 0.2-0.1 0.2-0.2 0.4v3.2h-1.2v-5.1h0.7q0.2-0.1 0.3 0 0.1 0.1 0.1 0.3v0.5z"/><path  d="m179.1 82.7v-5.2h0.8q0.2 0 0.3 0.3l0.1 0.3q0.1-0.1 0.2-0.2 0.2-0.2 0.3-0.2 0.2-0.1 0.4-0.2 0.2 0 0.4 0 0.5 0 0.8 0.2 0.3 0.3 0.5 0.7 0.1-0.2 0.3-0.4 0.2-0.2 0.4-0.3 0.2-0.1 0.5-0.2 0.2 0 0.5 0 0.4-0.1 0.7 0.1 0.3 0.1 0.6 0.4 0.2 0.2 0.3 0.6 0.1 0.3 0.1 0.8v3.3h-1.2v-3.3q0-0.5-0.2-0.7-0.2-0.3-0.6-0.3-0.2 0-0.4 0.1-0.2 0-0.3 0.2-0.1 0.1-0.2 0.3 0 0.2 0 0.4v3.3h-1.3v-3.3q0-0.5-0.2-0.7-0.2-0.3-0.6-0.3-0.3 0-0.5 0.2-0.2 0.1-0.4 0.3v3.8h-1.3z"/><path  d="m187.4 78.3q0.9-0.9 2.1-0.9 0.5 0 0.8 0.2 0.4 0.1 0.6 0.4 0.2 0.3 0.4 0.6 0.1 0.4 0.1 0.8v3.3h-0.6q-0.1 0-0.2-0.1-0.1 0-0.2-0.2l-0.1-0.4q-0.2 0.2-0.4 0.3-0.1 0.2-0.4 0.3-0.2 0.1-0.4 0.1-0.2 0.1-0.5 0.1-0.3 0-0.6-0.1-0.3-0.1-0.5-0.3-0.2-0.2-0.3-0.4-0.1-0.3-0.1-0.6 0-0.2 0.1-0.4 0-0.2 0.2-0.4 0.1-0.2 0.4-0.3 0.2-0.2 0.5-0.3 0.4-0.1 0.8-0.2 0.5-0.1 1.1-0.1v-0.3q0-0.5-0.2-0.7-0.3-0.3-0.7-0.3-0.3 0-0.5 0.1-0.2 0.1-0.3 0.1-0.2 0.1-0.3 0.2-0.1 0.1-0.3 0.1-0.1 0-0.2-0.1-0.1-0.1-0.1-0.2l-0.3-0.4zm2.9 2.3q-0.6 0-0.9 0.1-0.4 0-0.6 0.1-0.2 0.1-0.3 0.3-0.1 0.1-0.1 0.3 0 0.3 0.2 0.4 0.2 0.2 0.5 0.2 0.3 0 0.6-0.2 0.3-0.1 0.6-0.4v-0.9z"/><path  d="m196.2 78.6c0 0 0 0.1-0.1 0.1q0 0.1-0.1 0.1-0.1 0-0.2-0.1-0.1 0-0.2-0.1-0.1-0.1-0.3-0.1-0.2-0.1-0.4-0.1-0.4 0-0.6 0.1-0.3 0.1-0.4 0.4-0.2 0.2-0.3 0.5 0 0.3 0 0.7 0 0.4 0 0.7 0.1 0.3 0.3 0.6 0.2 0.2 0.4 0.3 0.2 0.1 0.5 0.1 0.3 0 0.5-0.1 0.2 0 0.3-0.1 0.1-0.1 0.2-0.2 0.1-0.1 0.2-0.1 0.2 0 0.3 0.2l0.3 0.4q-0.2 0.2-0.4 0.4-0.3 0.2-0.5 0.3-0.3 0.1-0.6 0.1-0.2 0.1-0.5 0.1-0.5 0-0.9-0.2-0.4-0.2-0.7-0.5-0.3-0.4-0.5-0.9-0.2-0.5-0.2-1.1 0-0.6 0.2-1 0.1-0.5 0.4-0.9 0.3-0.3 0.8-0.5 0.5-0.2 1.1-0.2 0.6 0 1 0.2 0.4 0.1 0.8 0.5l-0.3 0.4z"/><path  d="m199.6 77.5q0.5-0.1 1 0.1 0.5 0.2 0.8 0.6 0.3 0.3 0.5 0.8 0.2 0.5 0.2 1.1 0 0.6-0.2 1.1-0.2 0.5-0.5 0.8-0.3 0.4-0.8 0.5-0.5 0.2-1 0.2-0.6 0-1.1-0.2-0.4-0.1-0.8-0.5-0.3-0.3-0.5-0.8-0.2-0.5-0.2-1.1 0-0.6 0.2-1.1 0.2-0.5 0.5-0.8 0.4-0.4 0.8-0.6 0.5-0.1 1.1-0.1zm0 4.3q0.6 0 0.9-0.4 0.3-0.5 0.3-1.3 0-0.8-0.3-1.3-0.3-0.4-0.9-0.4-0.7 0-1 0.4-0.3 0.5-0.3 1.3 0 0.8 0.3 1.3 0.3 0.4 1 0.4z"/><path  d="m206.7 78.6c0 0-0.1 0.1-0.1 0.1q-0.1 0.1-0.1 0.1-0.1 0-0.2-0.1-0.1 0-0.2-0.1-0.2-0.1-0.3-0.1-0.2-0.1-0.5-0.1-0.3 0-0.5 0.1-0.3 0.1-0.5 0.4-0.1 0.2-0.2 0.5-0.1 0.3-0.1 0.7 0 0.4 0.1 0.7 0.1 0.3 0.3 0.6 0.1 0.2 0.4 0.3 0.2 0.1 0.5 0.1 0.3 0 0.5-0.1 0.2 0 0.3-0.1 0.1-0.1 0.2-0.2 0.1-0.1 0.2-0.1 0.2 0 0.2 0.2l0.4 0.4q-0.2 0.2-0.5 0.4-0.2 0.2-0.5 0.3-0.2 0.1-0.5 0.1-0.3 0.1-0.5 0.1-0.5 0-0.9-0.2-0.4-0.2-0.8-0.5-0.3-0.4-0.4-0.9-0.2-0.5-0.2-1.1 0-0.6 0.1-1 0.2-0.5 0.5-0.9 0.3-0.3 0.8-0.5 0.5-0.2 1.1-0.2 0.5 0 1 0.2 0.4 0.1 0.7 0.5l-0.3 0.4z"/><path  d="m209.3 76q0 0.2-0.1 0.3 0 0.2-0.1 0.3-0.1 0.1-0.3 0.2-0.1 0-0.3 0-0.2 0-0.3 0-0.1-0.1-0.2-0.2-0.1-0.1-0.2-0.3-0.1-0.1-0.1-0.3 0-0.1 0.1-0.3 0.1-0.1 0.2-0.2 0.1-0.1 0.2-0.2 0.2 0 0.3 0 0.2 0 0.3 0 0.2 0.1 0.3 0.2 0.1 0.1 0.1 0.2 0.1 0.2 0.1 0.3zm-0.2 1.5v5.2h-1.2v-5.2z"/><path  d="m211.6 78.2q0.1-0.2 0.3-0.3 0.2-0.2 0.4-0.3 0.1-0.1 0.4-0.1 0.2-0.1 0.4-0.1 0.5 0 0.8 0.2 0.3 0.1 0.5 0.4 0.2 0.2 0.4 0.6 0.1 0.3 0.1 0.8v3.2h-1.3v-3.2q0-0.5-0.2-0.8-0.2-0.2-0.6-0.2-0.3 0-0.6 0.1-0.3 0.2-0.6 0.4v3.7h-1.2v-5.1h0.8q0.2 0 0.3 0.2c0 0 0.1 0.5 0.1 0.5z"/><path  d="m217 80.3q0 0.3 0.1 0.6 0.1 0.3 0.3 0.5 0.2 0.2 0.5 0.3 0.2 0.1 0.5 0.1 0.3 0 0.5-0.1 0.2-0.1 0.4-0.2 0.2 0 0.3-0.1 0.1-0.1 0.2-0.1 0.2 0 0.3 0.1l0.3 0.5q-0.2 0.2-0.4 0.4-0.3 0.2-0.6 0.3-0.2 0.1-0.5 0.1-0.3 0-0.6 0-0.5 0-1-0.1-0.4-0.2-0.8-0.6-0.3-0.3-0.5-0.8-0.2-0.6-0.2-1.2 0-0.6 0.1-1 0.2-0.5 0.5-0.8 0.3-0.4 0.8-0.6 0.5-0.2 1-0.2 0.5 0 0.9 0.2 0.4 0.1 0.8 0.4 0.2 0.3 0.4 0.8 0.2 0.4 0.2 1 0 0.2-0.1 0.3 0 0.1-0.2 0.1h-3.2zm2.4-0.7q0-0.2-0.1-0.5-0.1-0.2-0.2-0.3-0.1-0.2-0.3-0.3-0.3-0.1-0.5-0.1-0.6 0-0.9 0.3-0.3 0.3-0.3 0.9h2.3zm0.6-4.2l-1.2 1.4q-0.1 0.1-0.2 0.1-0.1 0-0.2 0h-0.8l0.7-1.2q0.1-0.1 0.2-0.2 0.1 0 0.3 0h1.2z"/><path  d="m226.5 82.7h-1.2v-4.3h-2.4v2.8q0 0.3 0.1 0.4 0.1 0.1 0.3 0.1 0.1 0 0.2 0 0.1 0 0.1-0.1 0.1 0 0.1 0 0.1 0 0.1 0 0.1 0 0.1 0 0.1 0 0.1 0.1l0.4 0.6q-0.3 0.2-0.7 0.3-0.3 0.1-0.7 0.1-0.7 0-1-0.4-0.4-0.3-0.4-1v-2.9h-0.5q-0.1 0-0.2 0 0-0.1 0-0.2v-0.5l0.8-0.1 0.3-1.4q0-0.1 0-0.2 0.1 0 0.2-0.1h0.7v1.7h3.6v5zm0.2-6.6q0 0.2-0.1 0.3 0 0.1-0.1 0.3-0.1 0.1-0.3 0.1-0.1 0.1-0.3 0.1-0.2 0-0.3-0.1-0.1 0-0.3-0.1-0.1-0.1-0.1-0.3-0.1-0.1-0.1-0.3 0-0.1 0.1-0.3 0-0.1 0.1-0.3 0.2-0.1 0.3-0.1 0.1-0.1 0.3-0.1 0.2 0 0.3 0.1 0.2 0 0.3 0.1 0.1 0.2 0.1 0.3 0.1 0.1 0.1 0.3z"/><path  d="m231.4 78.6c0 0 0 0.1-0.1 0.1q0 0.1-0.1 0.1-0.1 0-0.2-0.1-0.1 0-0.2-0.1-0.1-0.1-0.3-0.1-0.2-0.1-0.4-0.1-0.4 0-0.6 0.1-0.3 0.1-0.4 0.4-0.2 0.2-0.3 0.5 0 0.3 0 0.7 0 0.4 0 0.7 0.1 0.3 0.3 0.6 0.2 0.2 0.4 0.3 0.2 0.1 0.5 0.1 0.3 0 0.5-0.1 0.2 0 0.3-0.1 0.1-0.1 0.2-0.2 0.1-0.1 0.2-0.1 0.2 0 0.3 0.2l0.3 0.4q-0.2 0.2-0.4 0.4-0.3 0.2-0.5 0.3-0.3 0.1-0.5 0.1-0.3 0.1-0.6 0.1-0.5 0-0.9-0.2-0.4-0.2-0.7-0.5-0.3-0.4-0.5-0.9-0.2-0.5-0.2-1.1 0-0.6 0.2-1 0.1-0.5 0.4-0.9 0.4-0.3 0.8-0.5 0.5-0.2 1.1-0.2 0.6 0 1 0.2 0.4 0.1 0.8 0.5l-0.3 0.4z"/><path  d="m232.5 78.3q0.8-0.9 2.1-0.9 0.4 0 0.8 0.2 0.3 0.1 0.6 0.4 0.2 0.3 0.4 0.6 0.1 0.4 0.1 0.8v3.3h-0.6q-0.1 0-0.2-0.1-0.1 0-0.2-0.2l-0.1-0.4q-0.2 0.2-0.4 0.3-0.2 0.2-0.4 0.3-0.2 0.1-0.4 0.1-0.2 0.1-0.5 0.1-0.3 0-0.6-0.1-0.3-0.1-0.5-0.3-0.2-0.2-0.3-0.4-0.1-0.3-0.1-0.6 0-0.2 0.1-0.4 0-0.2 0.2-0.4 0.1-0.2 0.4-0.3 0.2-0.2 0.5-0.3 0.4-0.1 0.8-0.2 0.5-0.1 1.1-0.1v-0.3q0-0.5-0.2-0.7-0.3-0.3-0.7-0.3-0.3 0-0.5 0.1-0.2 0.1-0.3 0.1-0.2 0.1-0.3 0.2-0.1 0.1-0.3 0.1-0.1 0-0.2-0.1-0.1-0.1-0.1-0.2c0 0-0.2-0.4-0.2-0.3zm2.8 2.2q-0.6 0-0.9 0.1-0.4 0-0.6 0.1-0.2 0.1-0.3 0.3-0.1 0.1-0.1 0.3 0 0.3 0.2 0.4 0.2 0.2 0.5 0.2 0.4 0 0.7-0.2 0.2-0.1 0.5-0.4v-0.9z"/><path  d="m26.4 135.3v0.6h-3.2v-5.7h0.7v5.1z"/><path  d="m28.5 131.8q0.5 0 0.8 0.2 0.4 0.1 0.6 0.4 0.3 0.2 0.4 0.6 0.1 0.4 0.1 0.9 0 0.5-0.1 0.9-0.1 0.3-0.4 0.6-0.2 0.3-0.6 0.4-0.3 0.2-0.8 0.2-0.4 0-0.8-0.2-0.4-0.1-0.6-0.4-0.3-0.2-0.4-0.6-0.1-0.4-0.1-0.9 0-0.5 0.1-0.9 0.1-0.3 0.4-0.6 0.2-0.3 0.6-0.4 0.4-0.2 0.8-0.2zm0 3.6q0.6 0 0.9-0.4 0.3-0.4 0.3-1.1 0-0.7-0.3-1.1-0.3-0.4-0.9-0.4-0.3 0-0.5 0.1-0.2 0.1-0.4 0.3-0.1 0.2-0.2 0.4-0.1 0.3-0.1 0.7 0 0.7 0.3 1.1 0.3 0.4 0.9 0.4z"/><path  d="m34.2 132.6c0 0-0.1 0-0.1 0.1q0 0-0.1 0 0 0-0.1-0.1-0.1 0-0.2-0.1-0.1 0-0.3-0.1-0.1 0-0.3 0-0.3 0-0.6 0.1-0.2 0.1-0.3 0.3-0.2 0.2-0.3 0.5-0.1 0.2-0.1 0.6 0 0.4 0.1 0.6 0.1 0.3 0.3 0.5 0.1 0.2 0.3 0.3 0.3 0.1 0.5 0.1 0.3 0 0.5 0 0.1-0.1 0.2-0.2 0.1 0 0.2-0.1 0.1-0.1 0.2-0.1 0 0 0.1 0.1l0.2 0.3q-0.1 0.1-0.3 0.2-0.2 0.2-0.4 0.2-0.1 0.1-0.4 0.1-0.2 0.1-0.4 0.1-0.4 0-0.7-0.2-0.3-0.1-0.6-0.4-0.2-0.2-0.4-0.6-0.1-0.4-0.1-0.9 0-0.5 0.1-0.8 0.2-0.4 0.4-0.7 0.2-0.3 0.6-0.4 0.4-0.2 0.8-0.2 0.4 0 0.8 0.1 0.3 0.2 0.5 0.4l-0.1 0.3z"/><path  d="m35.1 132.4q0.3-0.3 0.7-0.4 0.4-0.2 0.8-0.2 0.4 0 0.6 0.1 0.3 0.1 0.5 0.3 0.2 0.2 0.3 0.5 0 0.3 0 0.6v2.6h-0.3q-0.1 0-0.1 0-0.1-0.1-0.1-0.1l-0.1-0.4q-0.2 0.1-0.3 0.2-0.2 0.1-0.3 0.2-0.2 0.1-0.4 0.1-0.2 0.1-0.4 0.1-0.3 0-0.5-0.1-0.2-0.1-0.3-0.2-0.2-0.1-0.3-0.3-0.1-0.2-0.1-0.5 0-0.2 0.2-0.5 0.1-0.2 0.4-0.3 0.3-0.2 0.8-0.3 0.5-0.1 1.1-0.2v-0.3q0-0.4-0.1-0.7-0.3-0.2-0.6-0.2-0.3 0-0.5 0-0.2 0.1-0.3 0.2-0.1 0.1-0.2 0.1-0.1 0.1-0.2 0.1-0.1 0-0.1 0-0.1-0.1-0.1-0.1l-0.1-0.2zm2.3 1.6q-0.5 0-0.9 0.1-0.3 0.1-0.5 0.2-0.3 0-0.4 0.2-0.1 0.1-0.1 0.3 0 0.2 0.1 0.3 0 0.1 0.1 0.2 0.1 0 0.2 0.1 0.2 0 0.3 0 0.2 0 0.3 0 0.2-0.1 0.3-0.1 0.2-0.1 0.3-0.2 0.1-0.1 0.2-0.2v-0.9z"/><path  d="m39.9 130v5.9h-0.7v-5.9z"/><path  d="m46.4 130v5.9h-0.4q-0.1 0-0.2-0.1v-0.5q-0.3 0.3-0.6 0.5-0.4 0.2-0.8 0.2-0.3 0-0.6-0.2-0.3-0.1-0.5-0.4-0.2-0.2-0.3-0.6-0.1-0.4-0.1-0.9 0-0.4 0.1-0.8 0.1-0.4 0.3-0.7 0.3-0.3 0.6-0.4 0.3-0.2 0.7-0.2 0.4 0 0.7 0.1 0.2 0.2 0.4 0.4v-2.3c0 0 0.7 0 0.7 0zm-0.7 2.8q-0.2-0.2-0.4-0.3-0.3-0.1-0.5-0.1-0.6 0-0.9 0.4-0.3 0.4-0.3 1.1 0 0.4 0.1 0.7 0 0.3 0.2 0.5 0.1 0.1 0.3 0.2 0.2 0.1 0.4 0.1 0.4 0 0.6-0.2 0.3-0.1 0.5-0.4c0 0 0-2 0-2z"/><path  d="m50.8 135.4q-0.1 0.1-0.3 0.2-0.2 0.2-0.4 0.2-0.2 0.1-0.4 0.1-0.2 0.1-0.4 0.1-0.5 0-0.8-0.2-0.4-0.1-0.6-0.4-0.3-0.3-0.4-0.7-0.2-0.4-0.2-0.9 0-0.4 0.2-0.8 0.1-0.4 0.3-0.6 0.3-0.3 0.6-0.4 0.4-0.2 0.8-0.2 0.4 0 0.7 0.1 0.3 0.2 0.5 0.4 0.3 0.2 0.4 0.6 0.1 0.3 0.1 0.7 0 0.2 0 0.2-0.1 0.1-0.2 0.1h-2.7q0 0.4 0.1 0.7 0.1 0.3 0.3 0.4 0.2 0.2 0.4 0.3 0.2 0.1 0.5 0.1 0.3 0 0.5 0 0.2-0.1 0.3-0.2 0.1 0 0.2-0.1 0.1-0.1 0.2-0.1 0.1 0 0.1 0.1zm-0.5-1.9q0-0.3-0.1-0.4-0.1-0.3-0.2-0.4-0.1-0.2-0.3-0.2-0.2-0.1-0.5-0.1-0.5 0-0.8 0.3-0.3 0.3-0.4 0.8h2.3z"/><path  d="m53.7 132.4q0.4-0.3 0.7-0.4 0.4-0.2 0.9-0.2 0.3 0 0.6 0.1 0.3 0.1 0.4 0.3 0.2 0.2 0.3 0.5 0.1 0.3 0.1 0.6v2.6h-0.3q-0.1 0-0.2 0 0-0.1-0.1-0.1v-0.4q-0.2 0.1-0.4 0.2-0.1 0.1-0.3 0.2-0.1 0.1-0.3 0.1-0.2 0.1-0.5 0.1-0.2 0-0.4-0.1-0.2-0.1-0.4-0.2-0.1-0.1-0.2-0.3-0.1-0.2-0.1-0.5 0-0.2 0.1-0.5 0.2-0.2 0.5-0.3 0.3-0.2 0.7-0.3 0.5-0.1 1.2-0.2v-0.3q0-0.4-0.2-0.7-0.2-0.2-0.6-0.2-0.3 0-0.4 0-0.2 0.1-0.3 0.2-0.2 0.1-0.3 0.1 0 0.1-0.1 0.1-0.1 0-0.2 0 0-0.1-0.1-0.1l-0.1-0.2zm2.3 1.6q-0.5 0-0.8 0.1-0.4 0.1-0.6 0.2-0.2 0-0.3 0.2-0.1 0.1-0.1 0.3 0 0.2 0 0.3 0.1 0.1 0.2 0.2 0.1 0 0.2 0.1 0.1 0 0.3 0 0.1 0 0.3 0 0.1-0.1 0.3-0.1 0.1-0.1 0.2-0.2 0.2-0.1 0.3-0.2v-0.9z"/><path  d="m60.9 135.4q-0.3 0.2-0.6 0.4-0.3 0.1-0.7 0.2l-0.1 0.2q0.4 0.1 0.6 0.3 0.1 0.1 0.1 0.3 0 0.1 0 0.2-0.1 0.1-0.2 0.2-0.1 0.1-0.3 0.1-0.1 0.1-0.3 0.1-0.2 0-0.4-0.1-0.1 0-0.2 0v-0.3c0 0 0.1 0 0.1 0q0.1 0 0.1 0 0 0 0.1 0 0 0 0.1 0 0 0 0.1 0 0.2 0 0.3 0 0.1-0.1 0.1-0.2 0-0.1-0.2-0.2-0.2-0.1-0.5-0.1l0.2-0.5q-0.4 0-0.7-0.2-0.3-0.1-0.5-0.4-0.2-0.3-0.3-0.7-0.1-0.3-0.1-0.8 0-0.4 0.1-0.8 0.1-0.4 0.4-0.7 0.2-0.3 0.6-0.4 0.3-0.2 0.8-0.2 0.4 0 0.7 0.2 0.4 0.1 0.6 0.4l-0.2 0.2c0 0 0 0.1 0 0.1q-0.1 0-0.1 0-0.1 0-0.1-0.1-0.1 0-0.2-0.1-0.1 0-0.3-0.1-0.1 0-0.4 0-0.3 0-0.5 0.1-0.2 0.1-0.4 0.3-0.1 0.2-0.2 0.5-0.1 0.3-0.1 0.6 0 0.4 0.1 0.7 0.1 0.3 0.2 0.4 0.2 0.2 0.4 0.3 0.2 0.2 0.5 0.1 0.3 0 0.4 0 0.2-0.1 0.3-0.2 0.1 0 0.2-0.1 0.1 0 0.1-0.1 0.1 0 0.2 0.1l0.2 0.3z"/><path  d="m61.5 132.4q0.4-0.3 0.7-0.4 0.4-0.2 0.9-0.2 0.3 0 0.6 0.1 0.3 0.1 0.4 0.3 0.2 0.2 0.3 0.5 0.1 0.3 0.1 0.6v2.6h-0.3q-0.1 0-0.2 0 0-0.1-0.1-0.1v-0.4q-0.2 0.1-0.4 0.2-0.1 0.1-0.3 0.2-0.1 0.1-0.3 0.1-0.2 0.1-0.5 0.1-0.2 0-0.4-0.1-0.2-0.1-0.4-0.2-0.1-0.1-0.2-0.3-0.1-0.2-0.1-0.5 0-0.2 0.1-0.5 0.2-0.2 0.5-0.3 0.3-0.2 0.7-0.3 0.5-0.1 1.2-0.2v-0.3q0-0.4-0.2-0.7-0.2-0.2-0.6-0.2-0.3 0-0.4 0-0.2 0.1-0.3 0.2-0.2 0.1-0.3 0.1 0 0.1-0.1 0.1-0.1 0-0.2 0 0-0.1-0.1-0.1l-0.1-0.2zm2-1.9q0.1 0 0.2 0 0-0.1 0.1-0.3h0.4q0 0.2-0.1 0.3 0 0.2-0.1 0.3-0.1 0.1-0.2 0.2-0.2 0-0.3 0-0.2 0-0.3 0-0.1-0.1-0.2-0.1-0.1-0.1-0.2-0.2-0.1 0-0.2 0-0.3 0-0.3 0.3h-0.4q0-0.2 0-0.3 0.1-0.2 0.2-0.3 0.1-0.1 0.2-0.2 0.1 0 0.3 0 0.1 0 0.2 0 0.2 0.1 0.3 0.1 0.1 0.1 0.2 0.2 0.1 0 0.2 0zm0.3 3.5q-0.5 0-0.8 0.1-0.4 0.1-0.6 0.2-0.2 0-0.3 0.2-0.1 0.1-0.1 0.3 0 0.2 0.1 0.3 0 0.1 0.1 0.2 0.1 0 0.2 0.1 0.1 0 0.3 0 0.2 0 0.3 0 0.2-0.1 0.3-0.1 0.1-0.1 0.3-0.2 0.1-0.1 0.2-0.2v-0.9z"/><path  d="m67.3 131.8q0.5 0 0.8 0.2 0.4 0.1 0.6 0.4 0.3 0.2 0.4 0.6 0.1 0.4 0.1 0.9 0 0.5-0.1 0.9-0.1 0.3-0.4 0.6-0.2 0.3-0.6 0.4-0.3 0.2-0.8 0.2-0.4 0-0.8-0.2-0.4-0.1-0.6-0.4-0.3-0.2-0.4-0.6-0.1-0.4-0.1-0.9 0-0.5 0.1-0.9 0.1-0.3 0.4-0.6 0.2-0.3 0.6-0.4 0.4-0.2 0.8-0.2zm0 3.6q0.6 0 0.9-0.4 0.3-0.4 0.3-1.1 0-0.7-0.3-1.1-0.3-0.4-0.9-0.4-0.3 0-0.5 0.1-0.2 0.1-0.4 0.3-0.1 0.2-0.2 0.4-0.1 0.3-0.1 0.7 0 0.7 0.3 1.1 0.3 0.4 0.9 0.4z"/><path  d="m18 141.8v5.7h-0.7v-4.2q0-0.1 0-0.2 0-0.1 0-0.2l-1.9 3.6q-0.1 0.2-0.3 0.2h-0.1q-0.2 0-0.3-0.2l-2-3.6q0 0.2 0 0.4v4.2h-0.7v-5.7h0.6q0.1 0 0.1 0 0.1 0 0.2 0.1l1.9 3.5q0.1 0.1 0.1 0.2 0.1 0.1 0.1 0.3 0.1-0.2 0.1-0.3 0-0.1 0.1-0.2l1.9-3.5q0.1-0.1 0.1-0.1 0.1 0 0.2 0h0.6z"/><path  d="m22.5 146.9q-0.2 0.2-0.4 0.3-0.1 0.1-0.3 0.2-0.3 0.1-0.5 0.1-0.2 0.1-0.4 0.1-0.4 0-0.8-0.2-0.3-0.1-0.6-0.4-0.3-0.3-0.4-0.7-0.1-0.4-0.1-0.9 0-0.4 0.1-0.8 0.1-0.4 0.4-0.6 0.2-0.3 0.6-0.4 0.3-0.2 0.7-0.2 0.4 0 0.7 0.1 0.3 0.1 0.6 0.4 0.2 0.2 0.3 0.5 0.1 0.4 0.1 0.8 0 0.2 0 0.2 0 0.1-0.1 0.1h-2.8q0.1 0.4 0.2 0.7 0.1 0.2 0.2 0.4 0.2 0.2 0.4 0.3 0.2 0.1 0.5 0.1 0.3 0 0.5-0.1 0.2 0 0.3-0.1 0.2-0.1 0.3-0.1 0.1-0.1 0.1-0.1 0.1 0 0.2 0.1zm-0.6-1.9q0-0.3-0.1-0.4-0.1-0.3-0.2-0.4-0.1-0.2-0.3-0.2-0.2-0.1-0.5-0.1-0.5 0-0.8 0.3-0.3 0.3-0.3 0.8h2.2z"/><path  d="m26.2 144.2c0 0 0 0 0 0.1q-0.1 0-0.1 0-0.1 0-0.2-0.1 0 0-0.1-0.1-0.2 0-0.3-0.1-0.2 0-0.4 0-0.3 0-0.5 0.1-0.2 0.1-0.4 0.3-0.2 0.2-0.2 0.5-0.1 0.2-0.1 0.6 0 0.4 0.1 0.6 0.1 0.3 0.2 0.5 0.2 0.2 0.4 0.3 0.2 0.1 0.5 0.1 0.2 0 0.4 0 0.2-0.1 0.3-0.2 0.1 0 0.2-0.1 0-0.1 0.1-0.1 0.1 0 0.2 0.1l0.2 0.3q-0.2 0.1-0.3 0.2-0.2 0.2-0.4 0.2-0.2 0.1-0.4 0.1-0.2 0.1-0.4 0.1-0.4 0-0.8-0.2-0.3-0.1-0.5-0.4-0.3-0.2-0.4-0.6-0.1-0.4-0.1-0.9-0.1-0.5 0.1-0.8 0.1-0.4 0.4-0.7 0.2-0.3 0.6-0.4 0.3-0.2 0.8-0.2 0.4 0 0.7 0.1 0.3 0.2 0.6 0.4l-0.2 0.3z"/><path  d="m27.1 144q0.3-0.3 0.7-0.4 0.4-0.2 0.9-0.2 0.3 0 0.6 0.1 0.3 0.1 0.4 0.3 0.2 0.2 0.3 0.5 0.1 0.3 0.1 0.6v2.6h-0.3q-0.1 0-0.2 0 0-0.1-0.1-0.1l-0.1-0.4q-0.1 0.1-0.3 0.2-0.1 0.1-0.3 0.2-0.2 0.1-0.3 0.1-0.2 0.1-0.5 0.1-0.2 0-0.4-0.1-0.2-0.1-0.4-0.2-0.1-0.1-0.2-0.3-0.1-0.2-0.1-0.5 0-0.2 0.1-0.5 0.2-0.2 0.5-0.3 0.3-0.2 0.7-0.3 0.5-0.1 1.2-0.2v-0.3q0-0.4-0.2-0.7-0.2-0.2-0.6-0.2-0.3 0-0.4 0-0.2 0.1-0.3 0.2-0.2 0.1-0.3 0.1-0.1 0.1-0.2 0.1 0 0-0.1 0 0-0.1-0.1-0.1l-0.1-0.2zm2.3 1.6q-0.5 0-0.8 0.1-0.4 0.1-0.6 0.2-0.2 0-0.3 0.2-0.1 0.1-0.1 0.3 0 0.2 0 0.3 0.1 0.1 0.2 0.2 0.1 0 0.2 0.1 0.1 0 0.2 0 0.2 0 0.4 0 0.1-0.1 0.3-0.1 0.1-0.1 0.2-0.2 0.2-0.1 0.3-0.2v-0.9z"/><path  d="m31.9 144.1q0.1-0.2 0.2-0.3 0.2-0.1 0.4-0.2 0.1-0.1 0.3-0.2 0.2 0 0.4 0 0.3 0 0.6 0.1 0.2 0.1 0.4 0.3 0.2 0.2 0.3 0.5 0.1 0.3 0.1 0.6v2.6h-0.8v-2.6q0-0.4-0.2-0.7-0.2-0.2-0.6-0.2-0.3 0-0.6 0.1-0.3 0.2-0.5 0.4v3h-0.7v-4h0.4q0.1 0 0.2 0.1c0 0 0.1 0.5 0.1 0.5z"/><path  d="m36.6 142.2q0 0.1-0.1 0.2 0 0.1-0.1 0.1-0.1 0.1-0.2 0.2 0 0-0.1 0-0.2 0-0.2 0-0.1-0.1-0.2-0.2-0.1 0-0.1-0.1-0.1-0.1 0-0.2-0.1-0.1 0-0.2 0-0.1 0.1-0.2 0.1 0 0.2-0.1 0 0 0.2 0 0.1 0 0.1 0 0.1 0.1 0.2 0.1 0.1 0.1 0.1 0.2 0.1 0.1 0.1 0.2zm-0.2 1.3v4h-0.7v-4z"/><path  d="m39.9 144.1q0 0.1-0.1 0.1-0.1 0-0.2 0 0-0.1-0.1-0.1-0.2-0.1-0.3-0.1-0.2-0.1-0.4-0.1-0.2 0-0.3 0.1-0.1 0-0.2 0.1-0.1 0.1-0.2 0.2-0.1 0.1 0 0.2 0 0.2 0 0.3 0.1 0.1 0.3 0.2 0.1 0.1 0.3 0.1 0.2 0.1 0.4 0.1 0.2 0.1 0.4 0.2 0.2 0.1 0.3 0.2 0.2 0.1 0.3 0.3 0.1 0.1 0.1 0.4 0 0.3-0.1 0.5-0.1 0.3-0.3 0.4-0.2 0.2-0.5 0.3-0.3 0.1-0.7 0.1-0.4 0-0.7-0.2-0.4-0.1-0.6-0.3l0.1-0.3c0 0 0.1 0 0.1-0.1q0.1 0 0.1 0 0.1 0 0.2 0.1 0.1 0 0.2 0.1 0.1 0.1 0.3 0.1 0.1 0.1 0.4 0.1 0.2 0 0.3-0.1 0.2 0 0.3-0.1 0.1-0.1 0.1-0.2 0.1-0.2 0.1-0.3 0-0.2-0.1-0.3-0.1-0.1-0.2-0.2-0.2 0-0.4-0.1-0.2-0.1-0.4-0.1-0.2-0.1-0.4-0.2-0.2-0.1-0.3-0.2-0.1-0.1-0.2-0.3-0.1-0.2-0.1-0.4 0-0.3 0.1-0.5 0.1-0.2 0.3-0.4 0.1-0.1 0.4-0.2 0.3-0.1 0.6-0.1 0.4 0 0.7 0.1 0.4 0.1 0.6 0.4l-0.2 0.2z"/><path  d="m41 147.5v-4h0.5q0.1 0 0.2 0.1v0.4q0.2-0.2 0.5-0.4 0.3-0.2 0.7-0.2 0.4 0 0.6 0.2 0.3 0.3 0.4 0.7 0.1-0.3 0.2-0.4 0.2-0.2 0.3-0.3 0.2-0.1 0.4-0.1 0.2-0.1 0.4-0.1 0.3 0 0.6 0.1 0.2 0.1 0.4 0.3 0.2 0.2 0.2 0.5 0.1 0.3 0.1 0.6v2.6h-0.7v-2.6q0-0.4-0.2-0.7-0.2-0.2-0.6-0.2-0.2 0-0.3 0-0.2 0.1-0.3 0.2-0.1 0.1-0.2 0.3-0.1 0.2-0.1 0.4v2.6h-0.7v-2.6q0-0.5-0.2-0.7-0.2-0.2-0.5-0.2-0.3 0-0.5 0.1-0.3 0.1-0.5 0.4v3c0 0-0.7 0-0.7 0z"/><path  d="m49.3 143.4q0.5 0 0.8 0.2 0.4 0.1 0.6 0.4 0.3 0.2 0.4 0.6 0.2 0.4 0.2 0.9 0 0.5-0.2 0.9-0.1 0.3-0.4 0.6-0.2 0.3-0.6 0.4-0.3 0.2-0.8 0.2-0.4 0-0.8-0.2-0.3-0.1-0.6-0.4-0.3-0.2-0.4-0.6-0.1-0.4-0.1-0.9 0-0.5 0.1-0.9 0.1-0.4 0.4-0.6 0.3-0.3 0.6-0.4 0.4-0.2 0.8-0.2zm0 3.6q0.6 0 0.9-0.4 0.3-0.4 0.3-1.1 0-0.7-0.3-1.1-0.3-0.4-0.9-0.4-0.3 0-0.5 0.1-0.2 0.1-0.4 0.3-0.1 0.2-0.2 0.4-0.1 0.3-0.1 0.7 0 0.7 0.3 1.1 0.3 0.4 0.9 0.4z"/><path  d="m57.6 141.6v5.9h-0.5q-0.1 0-0.2-0.1v-0.5q-0.3 0.3-0.6 0.5-0.3 0.2-0.8 0.2-0.3 0-0.6-0.2-0.3-0.1-0.5-0.4-0.2-0.2-0.3-0.6-0.1-0.4-0.1-0.9 0-0.4 0.1-0.8 0.1-0.4 0.4-0.7 0.2-0.3 0.5-0.4 0.3-0.2 0.7-0.2 0.4 0 0.7 0.1 0.2 0.2 0.4 0.4v-2.3c0 0 0.8 0 0.8 0zm-0.8 2.8q-0.2-0.2-0.4-0.3-0.2-0.1-0.5-0.1-0.6 0-0.9 0.4-0.3 0.4-0.3 1.1 0 0.4 0.1 0.7 0.1 0.3 0.2 0.5 0.1 0.1 0.3 0.2 0.2 0.1 0.4 0.1 0.4 0 0.7-0.2 0.2-0.1 0.4-0.4c0 0 0-2 0-2z"/><path  d="m62 146.9q-0.2 0.2-0.3 0.3-0.2 0.1-0.4 0.2-0.2 0.1-0.5 0.1-0.2 0.1-0.4 0.1-0.4 0-0.8-0.2-0.3-0.1-0.6-0.4-0.3-0.3-0.4-0.7-0.1-0.4-0.1-0.9 0-0.4 0.1-0.8 0.1-0.4 0.4-0.6 0.2-0.3 0.6-0.4 0.3-0.2 0.8-0.2 0.3 0 0.6 0.1 0.3 0.1 0.6 0.4 0.2 0.2 0.3 0.5 0.2 0.4 0.1 0.8 0.1 0.2 0 0.2 0 0.1-0.1 0.1h-2.7q0 0.4 0.1 0.7 0.1 0.2 0.2 0.4 0.2 0.2 0.4 0.3 0.3 0.1 0.5 0.1 0.3 0 0.5-0.1 0.2 0 0.3-0.1 0.2-0.1 0.3-0.1 0.1-0.1 0.1-0.1 0.1 0 0.2 0.1zm-0.6-1.9q0-0.3-0.1-0.4-0.1-0.3-0.2-0.4-0.1-0.2-0.3-0.2-0.2-0.1-0.5-0.1-0.5 0-0.8 0.3-0.3 0.3-0.3 0.8h2.2z"/><path  d="m64.8 144q0.4-0.3 0.8-0.4 0.4-0.2 0.8-0.2 0.4 0 0.6 0.1 0.3 0.1 0.5 0.3 0.2 0.2 0.2 0.5 0.1 0.3 0.1 0.6v2.6h-0.3q-0.1 0-0.1 0-0.1-0.1-0.1-0.1l-0.1-0.4q-0.2 0.1-0.3 0.2-0.2 0.1-0.3 0.2-0.2 0.1-0.4 0.1-0.2 0.1-0.4 0.1-0.3 0-0.5-0.1-0.2-0.1-0.3-0.2-0.2-0.1-0.3-0.3-0.1-0.2-0.1-0.5 0-0.2 0.2-0.5 0.1-0.2 0.4-0.3 0.3-0.2 0.8-0.3 0.5-0.1 1.1-0.2v-0.3q0-0.4-0.2-0.7-0.2-0.2-0.6-0.2-0.2 0-0.4 0-0.2 0.1-0.3 0.2-0.1 0.1-0.2 0.1-0.1 0.1-0.2 0.1-0.1 0-0.1 0-0.1-0.1-0.1-0.1l-0.2-0.2zm2.3 1.6q-0.5 0-0.8 0.1-0.3 0.1-0.6 0.2-0.2 0-0.3 0.2-0.1 0.1-0.1 0.3 0 0.2 0.1 0.3 0 0.1 0.1 0.2 0.1 0 0.2 0.1 0.1 0 0.3 0 0.2 0 0.3 0 0.2-0.1 0.3-0.1 0.1-0.1 0.3-0.2 0.1-0.1 0.2-0.2v-0.9z"/><path  d="m72 146.9q-0.2 0.3-0.6 0.5-0.3 0.1-0.7 0.2l-0.1 0.2q0.4 0.1 0.6 0.2 0.1 0.2 0.1 0.4 0 0.1 0 0.2-0.1 0.1-0.2 0.2-0.1 0.1-0.3 0.1-0.1 0.1-0.3 0.1-0.2 0-0.3-0.1-0.2 0-0.3-0.1l0.1-0.2c0 0 0 0 0 0q0.1-0.1 0.1 0 0 0 0.1 0 0 0 0.1 0 0.1 0 0.1 0 0.2 0 0.3 0 0.1-0.1 0.1-0.2 0-0.2-0.2-0.2-0.2-0.1-0.5-0.1l0.2-0.5q-0.3 0-0.6-0.2-0.3-0.2-0.5-0.4-0.3-0.3-0.4-0.7-0.1-0.3-0.1-0.8 0-0.5 0.1-0.8 0.2-0.4 0.4-0.7 0.2-0.3 0.6-0.4 0.4-0.2 0.8-0.2 0.4 0 0.8 0.2 0.3 0.1 0.5 0.3l-0.1 0.3c0 0-0.1 0-0.1 0.1q0 0-0.1 0-0.1 0-0.1-0.1-0.1 0-0.2-0.1-0.1 0-0.3-0.1-0.1 0-0.3 0-0.4 0-0.6 0.1-0.2 0.1-0.4 0.3-0.1 0.2-0.2 0.5-0.1 0.3-0.1 0.6 0 0.4 0.1 0.7 0.1 0.2 0.3 0.4 0.1 0.2 0.3 0.3 0.2 0.1 0.5 0.1 0.3 0 0.4 0 0.2-0.1 0.3-0.2 0.1 0 0.2-0.1 0.1-0.1 0.2-0.1 0 0 0.1 0.1l0.2 0.3z"/><path  d="m72.7 144q0.3-0.3 0.7-0.4 0.4-0.2 0.8-0.2 0.4 0 0.6 0.1 0.3 0.1 0.5 0.3 0.2 0.2 0.2 0.5 0.1 0.3 0.1 0.6v2.6h-0.3q-0.1 0-0.1 0-0.1-0.1-0.1-0.1l-0.1-0.4q-0.2 0.1-0.3 0.2-0.2 0.1-0.3 0.2-0.2 0.1-0.4 0.1-0.2 0.1-0.4 0.1-0.3 0-0.5-0.1-0.2-0.1-0.3-0.2-0.2-0.1-0.3-0.3-0.1-0.2-0.1-0.5 0-0.2 0.2-0.5 0.1-0.2 0.4-0.3 0.3-0.2 0.8-0.3 0.5-0.1 1.1-0.2v-0.3q0-0.4-0.2-0.7-0.2-0.2-0.6-0.2-0.2 0-0.4 0-0.2 0.1-0.3 0.2-0.1 0.1-0.2 0.1-0.1 0.1-0.2 0.1-0.1 0-0.1 0-0.1-0.1-0.1-0.1l-0.2-0.2zm2-1.9q0.1 0 0.2 0 0.1-0.1 0.1-0.3h0.4q0 0.2 0 0.3-0.1 0.2-0.2 0.3-0.1 0.1-0.2 0.2-0.1 0-0.3 0-0.1 0-0.3 0-0.1-0.1-0.2-0.1-0.1-0.1-0.2-0.2-0.1 0-0.2 0-0.3 0-0.3 0.3h-0.4q0-0.2 0-0.3 0.1-0.2 0.2-0.3 0.1-0.1 0.2-0.2 0.1 0 0.3 0 0.1 0 0.3 0 0.1 0.1 0.2 0.1 0.1 0.1 0.2 0.2 0.1 0 0.2 0zm0.4 3.5q-0.5 0-0.9 0.1-0.3 0.1-0.5 0.2-0.3 0-0.4 0.2-0.1 0.1-0.1 0.3 0 0.2 0.1 0.3 0 0.1 0.1 0.2 0.1 0 0.2 0.1 0.2 0 0.3 0 0.2 0 0.3 0 0.2-0.1 0.3-0.1 0.2-0.1 0.3-0.2 0.1-0.1 0.2-0.2v-0.9z"/><path  d="m78.4 143.4q0.5 0 0.8 0.2 0.4 0.1 0.7 0.4 0.2 0.2 0.3 0.6 0.2 0.4 0.2 0.9 0 0.5-0.2 0.9-0.1 0.3-0.3 0.6-0.3 0.3-0.7 0.4-0.3 0.2-0.8 0.2-0.4 0-0.8-0.2-0.3-0.1-0.6-0.4-0.2-0.2-0.4-0.6-0.1-0.4-0.1-0.9 0-0.5 0.1-0.9 0.2-0.4 0.4-0.6 0.3-0.3 0.6-0.4 0.4-0.2 0.8-0.2zm0 3.6q0.6 0 0.9-0.4 0.3-0.4 0.3-1.1 0-0.7-0.3-1.1-0.3-0.4-0.9-0.4-0.3 0-0.5 0.1-0.2 0.1-0.4 0.3-0.1 0.2-0.2 0.4-0.1 0.3-0.1 0.7 0 0.7 0.3 1.1 0.3 0.4 1 0.4z"/><path  d="m39.9 158.5v0.6h-3.5v-5.7h3.5v0.6h-2.7v1.9h2.2v0.6h-2.2v2c0 0 2.7 0 2.7 0z"/><path  d="m40.9 159.1v-3.4l-0.4-0.1q-0.1 0-0.1 0-0.1-0.1-0.1-0.2v-0.2h0.6v-0.4q0-0.4 0.1-0.6 0.2-0.3 0.3-0.5 0.2-0.2 0.5-0.3 0.2-0.1 0.5-0.1 0.3 0 0.5 0.1v0.4q0 0-0.1 0.1-0.1 0-0.2 0-0.2 0-0.4 0-0.1 0-0.2 0.2-0.1 0.1-0.2 0.2-0.1 0.2-0.1 0.5v0.4h1.2v0.5h-1.1v3.4h-0.8z"/><path  d="m46.7 158.6q-0.2 0.1-0.4 0.2-0.1 0.2-0.4 0.2-0.2 0.1-0.4 0.1-0.2 0.1-0.4 0.1-0.5 0-0.8-0.2-0.4-0.1-0.6-0.4-0.3-0.3-0.4-0.7-0.2-0.4-0.1-0.9-0.1-0.4 0.1-0.8 0.1-0.4 0.4-0.6 0.2-0.3 0.5-0.4 0.4-0.2 0.8-0.2 0.4 0 0.7 0.1 0.3 0.2 0.5 0.4 0.3 0.2 0.4 0.6 0.1 0.3 0.1 0.7 0 0.2 0 0.2-0.1 0.1-0.2 0.1h-2.7q0 0.4 0.1 0.7 0.1 0.3 0.3 0.4 0.2 0.2 0.4 0.3 0.2 0.1 0.5 0.1 0.3 0 0.5 0 0.2-0.1 0.3-0.2 0.2 0 0.3-0.1 0-0.1 0.1-0.1 0.1 0 0.1 0.1zm-0.5-1.9q0-0.3-0.1-0.4-0.1-0.3-0.2-0.4-0.1-0.2-0.3-0.2-0.2-0.1-0.5-0.1-0.5 0-0.8 0.3-0.3 0.3-0.4 0.8h2.3z"/><path  d="m48.5 153.8q0 0.1 0 0.2-0.1 0.1-0.2 0.1 0 0.1-0.1 0.2-0.1 0-0.2 0-0.1 0-0.2 0-0.1-0.1-0.2-0.2 0 0-0.1-0.1 0-0.1 0-0.2 0-0.1 0-0.2 0.1-0.1 0.1-0.2 0.1 0 0.2-0.1 0.1 0 0.2 0 0.1 0 0.2 0 0.1 0.1 0.1 0.1 0.1 0.1 0.2 0.2 0 0.1 0 0.2zm-0.2 1.3v4h-0.7v-4z"/><path  d="m50.8 159.2q-0.5 0-0.8-0.3-0.2-0.3-0.2-0.8v-2.4h-0.5c0 0-0.1 0-0.2-0.1q0 0 0-0.1v-0.3l0.7-0.1 0.1-1.2c0 0 0.1-0.1 0.1-0.1q0 0 0.1 0h0.4v1.4h1.1v0.5h-1.1v2.4q0 0.3 0.1 0.4 0.1 0.1 0.3 0.1 0.1 0 0.2 0 0.1 0 0.1-0.1 0.1 0 0.1-0.1 0.1 0 0.1 0 0 0 0.1 0.1l0.2 0.3q-0.2 0.2-0.4 0.3-0.3 0.1-0.6 0.1z"/><path  d="m54.1 155q0.4 0 0.8 0.2 0.3 0.1 0.6 0.4 0.2 0.2 0.4 0.6 0.1 0.4 0.1 0.9 0 0.5-0.1 0.9-0.2 0.3-0.4 0.6-0.3 0.3-0.6 0.4-0.4 0.2-0.8 0.2-0.5 0-0.9-0.2-0.3-0.1-0.6-0.4-0.2-0.3-0.4-0.6-0.1-0.4-0.1-0.9 0-0.5 0.1-0.9 0.2-0.4 0.4-0.6 0.3-0.3 0.6-0.4 0.4-0.2 0.9-0.2zm0 3.6q0.6 0 0.9-0.4 0.3-0.4 0.3-1.1 0-0.7-0.3-1.1-0.3-0.4-0.9-0.4-0.3 0-0.6 0.1-0.2 0.1-0.3 0.3-0.2 0.2-0.3 0.4 0 0.3 0 0.7 0 0.7 0.3 1.1 0.3 0.4 0.9 0.4z"/><path  d="m189.8 135.9h-0.6q-0.1 0-0.2 0 0-0.1-0.1-0.2l-0.5-1.3h-2.6l-0.5 1.3c0 0-0.1 0.1-0.1 0.2q-0.1 0-0.2 0h-0.6l2.3-5.7h0.8l2.3 5.7zm-1.6-2.1l-0.9-2.3q-0.1-0.1-0.1-0.3-0.1-0.1-0.1-0.3-0.1 0.4-0.2 0.6l-0.9 2.3h2.2z"/><path  d="m191.1 132.5q0.2-0.3 0.6-0.5 0.3-0.2 0.7-0.2 0.4 0 0.6 0.1 0.3 0.2 0.5 0.4 0.2 0.3 0.3 0.7 0.1 0.3 0.1 0.8 0 0.5-0.1 0.9-0.1 0.4-0.3 0.7-0.2 0.3-0.6 0.4-0.3 0.2-0.7 0.2-0.4 0-0.7-0.2-0.2-0.1-0.5-0.4v0.4q0 0.1-0.2 0.1h-0.4v-5.9h0.7c0 0 0 2.5 0 2.5zm0 2.4q0.2 0.3 0.4 0.4 0.3 0.1 0.5 0.1 0.6 0 0.9-0.4 0.3-0.4 0.3-1.2 0-0.7-0.3-1.1-0.2-0.3-0.7-0.3-0.4 0-0.6 0.2-0.3 0.1-0.5 0.4v2z"/><path  d="m197.2 132.5q0 0.1-0.1 0.1-0.1 0-0.2 0-0.1-0.1-0.2-0.1-0.1-0.1-0.2-0.1-0.2-0.1-0.4-0.1-0.2 0-0.3 0.1-0.2 0-0.3 0.1-0.1 0.1-0.1 0.2-0.1 0.1-0.1 0.2 0 0.2 0.1 0.3 0.1 0.1 0.2 0.2 0.2 0.1 0.4 0.1 0.2 0.1 0.4 0.1 0.2 0.1 0.4 0.2 0.2 0.1 0.3 0.2 0.2 0.1 0.2 0.3 0.1 0.1 0.1 0.4 0 0.3-0.1 0.5-0.1 0.3-0.3 0.4-0.2 0.2-0.4 0.3-0.3 0.1-0.7 0.1-0.4 0-0.8-0.2-0.3-0.1-0.6-0.3l0.2-0.3c0 0 0.1 0 0.1-0.1q0 0 0.1 0 0.1 0 0.2 0.1 0 0 0.1 0.1 0.2 0.1 0.3 0.1 0.2 0.1 0.4 0.1 0.2 0 0.4-0.1 0.2 0 0.3-0.1 0.1-0.1 0.1-0.2 0.1-0.2 0.1-0.3 0-0.2-0.1-0.3-0.1-0.1-0.3-0.2-0.1 0-0.3-0.1-0.2-0.1-0.4-0.1-0.2-0.1-0.4-0.2-0.2-0.1-0.3-0.2-0.2-0.1-0.3-0.3-0.1-0.2-0.1-0.4 0-0.3 0.1-0.5 0.1-0.2 0.3-0.4 0.2-0.1 0.5-0.2 0.2-0.1 0.6-0.1 0.4 0 0.7 0.1 0.3 0.1 0.5 0.4l-0.1 0.2z"/><path  d="m200 131.8q0.5 0 0.8 0.2 0.4 0.1 0.6 0.4 0.3 0.2 0.4 0.6 0.1 0.4 0.1 0.9 0 0.5-0.1 0.9-0.1 0.3-0.4 0.6-0.2 0.3-0.6 0.4-0.3 0.2-0.8 0.2-0.4 0-0.8-0.2-0.4-0.1-0.6-0.4-0.3-0.2-0.4-0.6-0.1-0.4-0.1-0.9 0-0.5 0.1-0.9 0.1-0.3 0.4-0.6 0.2-0.3 0.6-0.4 0.4-0.2 0.8-0.2zm0 3.6q0.6 0 0.9-0.4 0.3-0.4 0.3-1.1 0-0.7-0.3-1.1-0.3-0.4-0.9-0.4-0.3 0-0.5 0.1-0.2 0.1-0.4 0.3-0.1 0.2-0.2 0.4-0.1 0.3-0.1 0.7 0 0.7 0.3 1.1 0.3 0.4 0.9 0.4z"/><path  d="m203.5 132.7q0.2-0.4 0.5-0.7 0.3-0.2 0.7-0.2 0.1 0 0.2 0 0.1 0.1 0.2 0.1v0.6q0 0.1-0.1 0.1-0.1 0-0.2-0.1-0.1 0-0.2 0-0.2 0-0.4 0.1-0.1 0-0.3 0.1-0.1 0.1-0.2 0.3-0.1 0.2-0.1 0.4v2.5h-0.8v-4h0.5q0.1 0 0.1 0 0.1 0.1 0.1 0.2v0.6z"/><path  d="m208.6 135.4q-0.2 0.2-0.5 0.4-0.3 0.1-0.7 0.2l-0.1 0.2q0.4 0.1 0.6 0.3 0.1 0.1 0.1 0.3 0 0.1 0 0.2-0.1 0.1-0.2 0.2-0.1 0.1-0.3 0.1-0.2 0.1-0.3 0.1-0.2 0-0.4-0.1-0.1 0-0.2 0v-0.3c0 0 0.1 0 0.1 0q0 0 0.1 0 0 0 0.1 0 0 0 0.1 0 0 0 0.1 0 0.2 0 0.3 0 0.1-0.1 0-0.2 0-0.1-0.1-0.2-0.2-0.1-0.5-0.1l0.2-0.5q-0.4 0-0.7-0.2-0.3-0.1-0.5-0.4-0.2-0.3-0.3-0.7-0.1-0.3-0.1-0.8 0-0.4 0.1-0.8 0.1-0.4 0.4-0.7 0.2-0.3 0.6-0.4 0.3-0.2 0.8-0.2 0.4 0 0.7 0.2 0.4 0.1 0.6 0.4l-0.2 0.2c0 0 0 0.1 0 0.1q-0.1 0-0.1 0-0.1 0-0.2-0.1 0 0-0.1-0.1-0.1 0-0.3-0.1-0.2 0-0.4 0-0.3 0-0.5 0.1-0.2 0.1-0.4 0.3-0.1 0.2-0.2 0.5-0.1 0.3-0.1 0.6 0 0.4 0.1 0.7 0.1 0.3 0.2 0.4 0.2 0.2 0.4 0.3 0.2 0.2 0.5 0.1 0.2 0 0.4 0 0.2-0.1 0.3-0.2 0.1 0 0.2-0.1 0 0 0.1-0.1 0.1 0 0.2 0.1l0.2 0.3z"/><path  d="m209.3 132.4q0.3-0.3 0.7-0.4 0.4-0.2 0.9-0.2 0.3 0 0.6 0.1 0.3 0.1 0.4 0.3 0.2 0.2 0.3 0.5 0.1 0.3 0.1 0.6v2.6h-0.3q-0.1 0-0.2 0-0.1-0.1-0.1-0.1l-0.1-0.4q-0.1 0.1-0.3 0.2-0.1 0.1-0.3 0.2-0.2 0.1-0.3 0.1-0.2 0.1-0.5 0.1-0.2 0-0.4-0.1-0.2-0.1-0.4-0.2-0.1-0.1-0.2-0.3-0.1-0.2-0.1-0.5 0-0.2 0.1-0.5 0.2-0.2 0.5-0.3 0.3-0.2 0.7-0.3 0.5-0.1 1.2-0.2v-0.3q0-0.4-0.2-0.7-0.2-0.2-0.6-0.2-0.3 0-0.4 0-0.2 0.1-0.3 0.2-0.2 0.1-0.3 0.1-0.1 0.1-0.2 0.1 0 0-0.1 0 0-0.1-0.1-0.1l-0.1-0.2zm1.9-1.9q0.2 0 0.3 0 0-0.1 0-0.3h0.5q0 0.2-0.1 0.3 0 0.2-0.1 0.3-0.1 0.1-0.2 0.2-0.2 0-0.3 0-0.2 0-0.3 0-0.1-0.1-0.2-0.1-0.1-0.1-0.2-0.2-0.1 0-0.2 0-0.3 0-0.3 0.3h-0.5q0.1-0.2 0.1-0.3 0.1-0.2 0.1-0.3 0.1-0.1 0.3-0.2 0.1 0 0.3 0 0.1 0 0.2 0 0.2 0.1 0.3 0.1 0.1 0.1 0.2 0.2 0 0 0.1 0zm0.4 3.5q-0.5 0-0.8 0.1-0.4 0.1-0.6 0.2-0.2 0-0.3 0.2-0.1 0.1-0.1 0.3 0 0.2 0 0.3 0.1 0.1 0.2 0.2 0.1 0 0.2 0.1 0.1 0 0.2 0 0.2 0 0.4 0 0.1-0.1 0.3-0.1 0.1-0.1 0.2-0.2 0.2-0.1 0.3-0.2v-0.9z"/><path  d="m215.1 131.8q0.4 0 0.8 0.2 0.4 0.1 0.6 0.4 0.3 0.2 0.4 0.6 0.1 0.4 0.1 0.9 0 0.5-0.1 0.9-0.1 0.3-0.4 0.6-0.2 0.3-0.6 0.4-0.4 0.2-0.8 0.2-0.4 0-0.8-0.2-0.4-0.1-0.6-0.4-0.3-0.2-0.4-0.6-0.1-0.4-0.1-0.9 0-0.5 0.1-0.9 0.1-0.3 0.4-0.6 0.2-0.3 0.6-0.4 0.4-0.2 0.8-0.2zm0 3.6q0.6 0 0.9-0.4 0.3-0.4 0.3-1.1 0-0.7-0.3-1.1-0.3-0.4-0.9-0.4-0.3 0-0.5 0.1-0.3 0.1-0.4 0.3-0.2 0.2-0.2 0.4-0.1 0.3-0.1 0.7 0 0.7 0.3 1.1 0.3 0.4 0.9 0.4z"/><path  d="m185.4 144.7q0 0.6-0.2 1.1-0.2 0.6-0.5 0.9-0.4 0.4-0.9 0.6-0.6 0.2-1.2 0.2h-2.1v-5.7h2.1q0.7 0 1.2 0.2 0.5 0.2 0.9 0.6 0.3 0.4 0.5 0.9 0.2 0.5 0.2 1.2zm-0.8 0q0-0.6-0.1-1-0.1-0.4-0.4-0.7-0.3-0.3-0.7-0.4-0.3-0.2-0.8-0.2h-1.4v4.5h1.4q0.5 0 0.8-0.1 0.4-0.2 0.7-0.5 0.3-0.3 0.4-0.7 0.1-0.4 0.1-0.9z"/><path  d="m187.2 142.2q0 0.1 0 0.2-0.1 0.1-0.1 0.1-0.1 0.1-0.2 0.2-0.1 0-0.2 0-0.1 0-0.2 0-0.1-0.1-0.2-0.2 0 0-0.1-0.1 0-0.1 0-0.2 0-0.1 0-0.2 0.1-0.1 0.1-0.2 0.1 0 0.2-0.1 0.1 0 0.2 0 0.1 0 0.2 0 0.1 0.1 0.2 0.1 0 0.1 0.1 0.2 0 0.1 0 0.2zm-0.1 1.3v4h-0.7v-4z"/><path  d="m190.6 144.1q-0.1 0.1-0.2 0.1 0 0-0.1 0-0.1-0.1-0.2-0.1-0.1-0.1-0.2-0.1-0.2-0.1-0.4-0.1-0.2 0-0.3 0.1-0.2 0-0.3 0.1-0.1 0.1-0.1 0.2-0.1 0.1-0.1 0.2 0 0.2 0.1 0.3 0.1 0.1 0.2 0.2 0.2 0.1 0.4 0.1 0.2 0.1 0.4 0.1 0.2 0.1 0.4 0.2 0.2 0.1 0.3 0.2 0.1 0.1 0.2 0.3 0.1 0.1 0.1 0.4 0 0.3-0.1 0.5-0.1 0.3-0.3 0.4-0.2 0.2-0.5 0.3-0.2 0.1-0.6 0.1-0.4 0-0.8-0.2-0.3-0.1-0.6-0.3l0.2-0.3c0 0 0.1 0 0.1-0.1q0 0 0.1 0 0.1 0 0.1 0.1 0.1 0 0.2 0.1 0.2 0.1 0.3 0.1 0.2 0.1 0.4 0.1 0.2 0 0.4-0.1 0.1 0 0.2-0.1 0.2-0.1 0.2-0.2 0-0.2 0-0.3 0-0.2 0-0.3-0.1-0.1-0.3-0.2-0.1 0-0.3-0.1-0.2-0.1-0.4-0.1-0.2-0.1-0.4-0.2-0.2-0.1-0.3-0.2-0.2-0.1-0.3-0.3-0.1-0.2-0.1-0.4 0-0.3 0.1-0.5 0.1-0.2 0.3-0.4 0.2-0.1 0.5-0.2 0.2-0.1 0.6-0.1 0.4 0 0.7 0.1 0.3 0.1 0.5 0.4l-0.1 0.2z"/><path  d="m192.9 147.6q-0.4 0-0.7-0.3-0.3-0.3-0.3-0.8v-2.4h-0.5c0 0 0 0-0.1-0.1q0 0 0-0.1v-0.3l0.7-0.1 0.1-1.2c0 0 0-0.1 0.1-0.1q0 0 0.1 0h0.3v1.4h1.2v0.5h-1.2v2.4q0 0.3 0.2 0.4 0.1 0.1 0.3 0.1 0.1 0 0.2 0 0 0 0.1-0.1 0.1 0 0.1-0.1 0.1 0 0.1 0 0 0 0.1 0.1l0.2 0.3q-0.2 0.2-0.4 0.3-0.3 0.1-0.6 0.1z"/><path  d="m195.2 144.3q0.2-0.4 0.5-0.7 0.3-0.2 0.7-0.2 0.1 0 0.2 0 0.2 0.1 0.3 0.1l-0.1 0.5q0 0.2-0.1 0.1-0.1 0.1-0.2 0-0.1 0-0.2 0-0.2 0-0.4 0.1-0.1 0-0.2 0.1-0.1 0.2-0.2 0.3-0.1 0.2-0.2 0.4v2.5h-0.7v-4h0.4q0.1 0 0.1 0 0.1 0.1 0.1 0.2l0.1 0.6z"/><path  d="m198.4 142.2q0 0.1-0.1 0.2 0 0.1-0.1 0.1 0 0.1-0.1 0.2-0.1 0-0.2 0-0.1 0-0.2 0-0.1-0.1-0.2-0.2-0.1 0-0.1-0.1 0-0.1 0-0.2 0-0.1 0-0.2 0-0.1 0.1-0.2 0.1 0 0.2-0.1 0.1 0 0.2 0 0.1 0 0.2 0 0.1 0.1 0.1 0.1 0.1 0.1 0.1 0.2 0.1 0.1 0.1 0.2zm-0.2 1.3v4h-0.7v-4z"/><path  d="m200.1 144.1q0.3-0.3 0.6-0.5 0.3-0.2 0.7-0.2 0.4 0 0.7 0.1 0.3 0.2 0.5 0.4 0.2 0.3 0.3 0.7 0.1 0.3 0.1 0.8 0 0.5-0.1 0.9-0.2 0.4-0.4 0.7-0.2 0.3-0.5 0.4-0.4 0.2-0.8 0.2-0.4 0-0.6-0.2-0.3-0.1-0.5-0.4l-0.1 0.4q0 0.1-0.1 0.1h-0.5v-5.9h0.7c0 0 0 2.5 0 2.5zm0 2.5q0.2 0.2 0.4 0.3 0.3 0.1 0.6 0.1 0.5 0 0.8-0.4 0.3-0.4 0.3-1.2 0-0.7-0.2-1.1-0.3-0.3-0.8-0.3-0.4 0-0.6 0.2-0.3 0.1-0.5 0.4v2z"/><path  d="m207.2 143.5v4h-0.4q-0.2 0-0.2-0.1l-0.1-0.5q-0.2 0.3-0.6 0.5-0.3 0.2-0.7 0.2-0.3 0-0.6-0.1-0.3-0.1-0.4-0.3-0.2-0.2-0.3-0.5-0.1-0.3-0.1-0.6v-2.6h0.7v2.6q0 0.4 0.2 0.7 0.2 0.2 0.7 0.2 0.3 0 0.6-0.1 0.2-0.2 0.5-0.4v-3h0.7z"/><path  d="m209.2 142.2q0 0.1 0 0.2 0 0.1-0.1 0.1-0.1 0.1-0.2 0.2-0.1 0-0.2 0-0.1 0-0.2 0-0.1-0.1-0.1-0.2-0.1 0-0.1-0.1-0.1-0.1-0.1-0.2 0-0.1 0.1-0.2 0-0.1 0.1-0.2 0 0 0.1-0.1 0.1 0 0.2 0 0.1 0 0.2 0 0.1 0.1 0.2 0.1 0 0.1 0.1 0.2 0 0.1 0 0.2zm-0.1 1.3v4h-0.7v-4z"/><path  d="m213.3 146.9q-0.2 0.3-0.6 0.5-0.3 0.1-0.7 0.2v0.2q0.3 0.1 0.5 0.2 0.2 0.2 0.2 0.4 0 0.1-0.1 0.2 0 0.1-0.2 0.2-0.1 0.1-0.2 0.1-0.2 0.1-0.4 0.1-0.2 0-0.3-0.1-0.1 0-0.3-0.1l0.1-0.2c0 0 0 0 0.1 0q0-0.1 0 0 0.1 0 0.1 0 0.1 0 0.1 0 0.1 0 0.2 0 0.2 0 0.2 0 0.1-0.1 0.1-0.2 0-0.2-0.2-0.2-0.1-0.1-0.4-0.1l0.1-0.5q-0.3 0-0.6-0.2-0.3-0.2-0.5-0.4-0.2-0.3-0.3-0.7-0.2-0.3-0.2-0.8 0-0.5 0.2-0.8 0.1-0.4 0.3-0.7 0.3-0.3 0.6-0.4 0.4-0.2 0.8-0.2 0.5 0 0.8 0.2 0.3 0.1 0.6 0.3l-0.2 0.3c0 0-0.1 0-0.1 0.1q0 0-0.1 0 0 0-0.1-0.1-0.1 0-0.2-0.1-0.1 0-0.2-0.1-0.2 0-0.4 0-0.3 0-0.5 0.1-0.3 0.1-0.4 0.3-0.2 0.2-0.3 0.5 0 0.3 0 0.6 0 0.4 0 0.7 0.1 0.2 0.3 0.4 0.1 0.2 0.4 0.3 0.2 0.1 0.4 0.1 0.3 0 0.5 0 0.1-0.1 0.3-0.2 0.1 0 0.1-0.1 0.1-0.1 0.2-0.1 0.1 0 0.1 0.1l0.2 0.3z"/><path  d="m214 144q0.3-0.3 0.7-0.4 0.4-0.2 0.9-0.2 0.3 0 0.6 0.1 0.2 0.1 0.4 0.3 0.2 0.2 0.3 0.5 0.1 0.3 0.1 0.6v2.6h-0.4q-0.1 0-0.1 0-0.1-0.1-0.1-0.1l-0.1-0.4q-0.2 0.1-0.3 0.2-0.2 0.1-0.3 0.2-0.2 0.1-0.4 0.1-0.2 0.1-0.4 0.1-0.2 0-0.4-0.1-0.3-0.1-0.4-0.2-0.2-0.1-0.2-0.3-0.1-0.2-0.1-0.5 0-0.2 0.1-0.5 0.1-0.2 0.4-0.3 0.3-0.2 0.8-0.3 0.5-0.1 1.2-0.2v-0.3q0-0.4-0.2-0.7-0.2-0.2-0.6-0.2-0.3 0-0.5 0-0.2 0.1-0.3 0.2-0.1 0.1-0.2 0.1-0.1 0.1-0.2 0.1-0.1 0-0.1 0-0.1-0.1-0.1-0.1l-0.1-0.2zm1.9-1.9q0.1 0 0.2 0 0.1-0.1 0.1-0.3h0.4q0 0.2 0 0.3-0.1 0.2-0.2 0.3-0.1 0.1-0.2 0.2-0.1 0-0.3 0-0.1 0-0.2 0-0.2-0.1-0.3-0.1-0.1-0.1-0.2-0.2-0.1 0-0.1 0-0.3 0-0.3 0.3h-0.5q0-0.2 0.1-0.3 0-0.2 0.1-0.3 0.1-0.1 0.2-0.2 0.2 0 0.3 0 0.2 0 0.3 0 0.1 0.1 0.2 0.1 0.1 0.1 0.2 0.2 0.1 0 0.2 0zm0.4 3.5q-0.5 0-0.9 0.1-0.3 0.1-0.5 0.2-0.3 0-0.4 0.2-0.1 0.1-0.1 0.3 0 0.2 0.1 0.3 0 0.1 0.1 0.2 0.1 0 0.2 0.1 0.2 0 0.3 0 0.2 0 0.3 0 0.2-0.1 0.3-0.1 0.2-0.1 0.3-0.2 0.1-0.1 0.2-0.2v-0.9z"/><path  d="m219.8 143.4q0.4 0 0.8 0.2 0.3 0.1 0.6 0.4 0.2 0.2 0.4 0.6 0.1 0.4 0.1 0.9 0 0.5-0.1 0.9-0.2 0.3-0.4 0.6-0.3 0.3-0.6 0.4-0.4 0.2-0.8 0.2-0.5 0-0.9-0.2-0.3-0.1-0.6-0.4-0.2-0.2-0.4-0.6-0.1-0.4-0.1-0.9 0-0.5 0.1-0.9 0.2-0.4 0.4-0.6 0.3-0.3 0.6-0.4 0.4-0.2 0.9-0.2zm0 3.6q0.6 0 0.9-0.4 0.3-0.4 0.3-1.1 0-0.7-0.3-1.1-0.3-0.4-0.9-0.4-0.3 0-0.6 0.1-0.2 0.1-0.3 0.3-0.2 0.2-0.3 0.4 0 0.3 0 0.7 0 0.7 0.3 1.1 0.3 0.4 0.9 0.4z"/><path  d="m172.4 153.4q0.5 0 0.9 0.1 0.4 0.1 0.6 0.3 0.3 0.2 0.4 0.5 0.1 0.2 0.1 0.6 0 0.2-0.1 0.4 0 0.2-0.2 0.4-0.1 0.1-0.3 0.3-0.2 0.1-0.5 0.2 0.7 0.1 1 0.4 0.3 0.4 0.3 0.9 0 0.4-0.1 0.7-0.2 0.3-0.4 0.5-0.3 0.2-0.6 0.3-0.4 0.1-0.9 0.1h-2v-5.7h1.8zm-1 0.6v2h1q0.3 0 0.5-0.1 0.3-0.1 0.4-0.2 0.2-0.1 0.3-0.3 0-0.2 0-0.4 0-0.5-0.3-0.7-0.3-0.3-0.9-0.3h-1.1zm1.3 4.5q0.3 0 0.6 0 0.2-0.1 0.3-0.3 0.2-0.1 0.3-0.3 0.1-0.2 0-0.4 0.1-0.5-0.3-0.7-0.3-0.3-0.9-0.3h-1.3v2c0 0 1.3 0 1.3 0z"/><path  d="m176.4 153.8q0 0.1-0.1 0.2 0 0.1-0.1 0.1 0 0.1-0.1 0.2-0.1 0-0.2 0-0.1 0-0.2 0-0.1-0.1-0.2-0.2-0.1 0-0.1-0.1 0-0.1 0-0.2 0-0.1 0-0.2 0-0.1 0.1-0.2 0.1 0 0.2-0.1 0.1 0 0.2 0 0.1 0 0.2 0 0.1 0.1 0.1 0.1 0.1 0.1 0.1 0.2 0.1 0.1 0.1 0.2zm-0.2 1.3v4h-0.7v-4z"/><path  d="m179.1 155q0.5 0 0.8 0.2 0.4 0.1 0.6 0.4 0.3 0.2 0.4 0.6 0.1 0.4 0.1 0.9 0 0.5-0.1 0.9-0.1 0.3-0.4 0.6-0.2 0.3-0.6 0.4-0.3 0.2-0.8 0.2-0.4 0-0.8-0.2-0.4-0.1-0.6-0.4-0.3-0.3-0.4-0.6-0.1-0.4-0.1-0.9 0-0.5 0.1-0.9 0.1-0.4 0.4-0.6 0.2-0.3 0.6-0.4 0.4-0.2 0.8-0.2zm0 3.6q0.6 0 0.9-0.4 0.3-0.4 0.3-1.1 0-0.7-0.3-1.1-0.3-0.4-0.9-0.4-0.3 0-0.5 0.1-0.2 0.1-0.4 0.3-0.1 0.2-0.2 0.4-0.1 0.3-0.1 0.7 0 0.7 0.3 1.1 0.3 0.4 0.9 0.4z"/><path  d="m183.1 159.2q-0.5 0-0.7-0.3-0.3-0.3-0.3-0.8v-2.4h-0.5c0 0-0.1 0-0.1-0.1q0 0 0-0.1v-0.3l0.6-0.1 0.2-1.2c0 0 0-0.1 0-0.1q0.1 0 0.2 0h0.3v1.4h1.2v0.5h-1.2v2.4q0 0.3 0.1 0.4 0.2 0.1 0.4 0.1 0.1 0 0.1 0 0.1 0 0.2-0.1 0 0 0.1-0.1 0 0 0.1 0 0 0 0.1 0.1l0.2 0.3q-0.2 0.2-0.5 0.3-0.2 0.1-0.5 0.1z"/><path  d="m185.4 155.9q0.2-0.4 0.5-0.7 0.3-0.2 0.7-0.2 0.1 0 0.2 0 0.1 0.1 0.2 0.1v0.5q-0.1 0.2-0.1 0.1-0.1 0.1-0.2 0-0.1 0-0.3 0-0.1 0-0.3 0.1-0.1 0-0.3 0.1-0.1 0.2-0.2 0.3-0.1 0.2-0.1 0.4v2.5h-0.8v-4h0.5q0.1 0 0.1 0 0.1 0.1 0.1 0.2v0.6z"/><path  d="m187.5 155.6q0.3-0.3 0.7-0.4 0.4-0.2 0.9-0.2 0.3 0 0.6 0.1 0.2 0.1 0.4 0.3 0.2 0.2 0.3 0.5 0.1 0.3 0.1 0.6v2.6h-0.4q-0.1 0-0.1 0-0.1-0.1-0.1-0.1l-0.1-0.4q-0.2 0.1-0.3 0.2-0.2 0.1-0.3 0.2-0.2 0.1-0.4 0.1-0.2 0.1-0.4 0.1-0.2 0-0.4-0.1-0.2-0.1-0.4-0.2-0.2-0.1-0.2-0.3-0.1-0.2-0.1-0.5 0-0.2 0.1-0.5 0.1-0.2 0.4-0.3 0.3-0.2 0.8-0.3 0.5-0.1 1.2-0.2v-0.3q0-0.4-0.2-0.7-0.2-0.2-0.6-0.2-0.3 0-0.5 0-0.1 0.1-0.3 0.2-0.1 0.1-0.2 0.1-0.1 0.1-0.2 0.1-0.1 0-0.1 0-0.1-0.1-0.1-0.1l-0.1-0.2zm2.3 1.6q-0.5 0-0.9 0.1-0.3 0.1-0.5 0.2-0.2 0-0.3 0.2-0.2 0.1-0.2 0.3 0.1 0.2 0.1 0.3 0 0.1 0.1 0.2 0.1 0 0.2 0.1 0.2 0 0.3 0 0.2 0 0.3 0 0.2-0.1 0.3-0.1 0.2-0.1 0.3-0.2 0.1-0.1 0.2-0.2v-0.9z"/><path  d="m192.2 155.7q0.2-0.2 0.3-0.3 0.2-0.1 0.3-0.2 0.2-0.1 0.4-0.2 0.2 0 0.4 0 0.3 0 0.6 0.1 0.2 0.1 0.4 0.3 0.1 0.2 0.2 0.5 0.1 0.3 0.1 0.6v2.6h-0.7v-2.6q0-0.4-0.2-0.7-0.2-0.2-0.6-0.2-0.4 0-0.6 0.1-0.3 0.2-0.5 0.4v3h-0.8v-4h0.5q0.1 0 0.2 0.1v0.5z"/><path  d="m198.4 155.7q-0.1 0.1-0.2 0.1 0 0-0.1 0-0.1-0.1-0.2-0.1-0.1-0.1-0.3-0.1-0.1-0.1-0.3-0.1-0.2 0-0.3 0.1-0.2 0-0.3 0.1-0.1 0.1-0.1 0.2-0.1 0.1-0.1 0.2 0 0.2 0.1 0.3 0.1 0.1 0.2 0.2 0.2 0.1 0.4 0.1 0.2 0.1 0.4 0.1 0.2 0.1 0.3 0.2 0.2 0.1 0.4 0.2 0.1 0.1 0.2 0.3 0.1 0.1 0.1 0.4 0 0.3-0.1 0.5-0.1 0.3-0.3 0.4-0.2 0.2-0.5 0.3-0.2 0.1-0.6 0.1-0.4 0-0.8-0.1-0.3-0.2-0.6-0.4l0.2-0.3c0 0 0 0 0.1 0q0-0.1 0.1-0.1 0.1 0 0.1 0.1 0.1 0 0.2 0.1 0.1 0.1 0.3 0.1 0.2 0.1 0.4 0.1 0.2 0 0.4-0.1 0.1 0 0.2-0.1 0.1-0.1 0.2-0.2 0-0.2 0-0.3 0-0.2-0.1-0.3 0-0.1-0.2-0.2-0.1 0-0.3-0.1-0.2-0.1-0.4-0.1-0.2-0.1-0.4-0.2-0.2-0.1-0.4-0.2-0.1-0.1-0.2-0.3-0.1-0.2-0.1-0.4 0-0.3 0.1-0.5 0.1-0.2 0.3-0.4 0.2-0.1 0.4-0.2 0.3-0.1 0.7-0.1 0.4 0 0.7 0.1 0.3 0.1 0.5 0.4l-0.1 0.2z"/><path  d="m199.8 159.1l-0.1-3.4-0.4-0.1q-0.1 0-0.1 0-0.1-0.1-0.1-0.2v-0.2h0.6v-0.4q0-0.4 0.2-0.6 0.1-0.3 0.2-0.5 0.2-0.2 0.5-0.3 0.2-0.1 0.5-0.1 0.3 0 0.5 0.1v0.4q0 0-0.1 0.1-0.1 0-0.2 0-0.2 0-0.4 0-0.1 0-0.2 0.2-0.1 0.1-0.2 0.2-0.1 0.2-0.1 0.5v0.4h1.2v0.5h-1.1v3.4h-0.8z"/><path  d="m203.9 155q0.4 0 0.8 0.2 0.3 0.1 0.6 0.4 0.2 0.2 0.4 0.6 0.1 0.4 0.1 0.9 0 0.5-0.1 0.9-0.2 0.3-0.4 0.6-0.3 0.3-0.6 0.4-0.4 0.2-0.8 0.2-0.5 0-0.8-0.2-0.4-0.1-0.7-0.4-0.2-0.3-0.3-0.6-0.2-0.4-0.2-0.9 0-0.5 0.2-0.9 0.1-0.4 0.3-0.6 0.3-0.3 0.7-0.4 0.3-0.2 0.8-0.2zm0 3.6q0.6 0 0.9-0.4 0.3-0.4 0.3-1.1 0-0.7-0.3-1.1-0.3-0.4-0.9-0.4-0.3 0-0.6 0.1-0.2 0.1-0.3 0.3-0.2 0.2-0.3 0.4 0 0.3 0 0.7 0 0.7 0.3 1.1 0.3 0.4 0.9 0.4z"/><path  d="m207.4 155.9q0.2-0.4 0.4-0.7 0.3-0.2 0.7-0.2 0.2 0 0.3 0 0.1 0.1 0.2 0.1l-0.1 0.5q0 0.2-0.1 0.1 0 0.1-0.2 0-0.1 0-0.2 0-0.2 0-0.3 0.1-0.2 0-0.3 0.1-0.1 0.1-0.2 0.3-0.1 0.2-0.2 0.4v2.5h-0.7v-4h0.4q0.1 0 0.2 0 0 0.1 0 0.2l0.1 0.6z"/><path  d="m209.6 159.1v-4h0.4q0.2 0 0.2 0.1l0.1 0.4q0.2-0.2 0.5-0.4 0.3-0.2 0.6-0.2 0.4 0 0.7 0.2 0.2 0.3 0.4 0.7 0-0.3 0.2-0.4 0.1-0.2 0.3-0.3 0.2-0.1 0.4-0.1 0.2-0.1 0.4-0.1 0.3 0 0.5 0.1 0.3 0.1 0.4 0.3 0.2 0.2 0.3 0.5 0.1 0.3 0.1 0.6v2.6h-0.7v-2.6q0-0.4-0.2-0.7-0.2-0.2-0.6-0.2-0.2 0-0.4 0-0.1 0.1-0.2 0.2-0.2 0.1-0.2 0.3-0.1 0.2-0.1 0.4v2.6h-0.7v-2.6q0-0.5-0.2-0.7-0.2-0.2-0.6-0.2-0.3 0-0.5 0.1-0.2 0.1-0.4 0.4v3h-0.7z"/><path  d="m216.1 155.6q0.3-0.3 0.7-0.4 0.4-0.2 0.9-0.2 0.3 0 0.6 0.1 0.2 0.1 0.4 0.3 0.2 0.2 0.3 0.5 0.1 0.3 0.1 0.6v2.6h-0.4q-0.1 0-0.1 0-0.1-0.1-0.1-0.1l-0.1-0.4q-0.2 0.1-0.3 0.2-0.2 0.1-0.3 0.2-0.2 0.1-0.4 0.1-0.2 0.1-0.4 0.1-0.2 0-0.4-0.1-0.2-0.1-0.4-0.2-0.2-0.1-0.2-0.3-0.1-0.2-0.1-0.5 0-0.2 0.1-0.5 0.1-0.2 0.4-0.3 0.3-0.2 0.8-0.3 0.5-0.1 1.2-0.2v-0.3q0-0.4-0.2-0.7-0.2-0.2-0.6-0.2-0.3 0-0.5 0-0.1 0.1-0.3 0.2-0.1 0.1-0.2 0.1-0.1 0.1-0.2 0.1-0.1 0-0.1 0-0.1-0.1-0.1-0.1l-0.1-0.2zm2.3 1.6q-0.5 0-0.9 0.1-0.3 0.1-0.5 0.2-0.2 0-0.3 0.2-0.2 0.1-0.1 0.3 0 0.2 0 0.3 0.1 0.1 0.1 0.2 0.1 0 0.2 0.1 0.2 0 0.3 0 0.2 0 0.3 0 0.2-0.1 0.3-0.1 0.2-0.1 0.3-0.2 0.1-0.1 0.2-0.2v-0.9z"/><path  d="m223.2 158.6q-0.2 0.2-0.5 0.4-0.4 0.1-0.7 0.2l-0.1 0.2q0.4 0.1 0.5 0.3 0.2 0.1 0.2 0.3 0 0.1-0.1 0.2 0 0.1-0.2 0.2-0.1 0.1-0.2 0.1-0.2 0.1-0.4 0.1-0.1 0-0.3-0.1-0.1 0-0.3 0l0.1-0.3c0 0 0.1 0 0.1 0q0 0 0.1 0 0 0 0 0 0.1 0 0.1 0 0.1 0 0.2 0 0.2 0 0.2 0 0.1-0.1 0.1-0.2 0-0.1-0.1-0.2-0.2-0.1-0.5-0.1l0.1-0.5q-0.3 0-0.6-0.2-0.3-0.2-0.5-0.4-0.2-0.3-0.3-0.7-0.2-0.3-0.2-0.8 0-0.4 0.2-0.8 0.1-0.4 0.3-0.7 0.3-0.3 0.6-0.4 0.4-0.2 0.9-0.2 0.4 0 0.7 0.2 0.3 0.1 0.6 0.4l-0.2 0.2c0 0 0 0.1-0.1 0.1q0 0-0.1 0 0 0-0.1-0.1-0.1 0-0.2-0.1-0.1 0-0.2-0.1-0.2 0-0.4 0-0.3 0-0.5 0.1-0.3 0.1-0.4 0.3-0.2 0.2-0.2 0.5-0.1 0.3-0.1 0.6 0 0.4 0.1 0.7 0 0.3 0.2 0.4 0.1 0.2 0.4 0.3 0.2 0.2 0.5 0.1 0.2 0 0.4 0 0.2-0.1 0.3-0.2 0.1 0 0.1-0.1 0.1-0.1 0.2-0.1 0.1 0 0.1 0.1l0.2 0.3z"/><path  d="m223.9 155.6q0.3-0.3 0.7-0.4 0.4-0.2 0.9-0.2 0.3 0 0.6 0.1 0.2 0.1 0.4 0.3 0.2 0.2 0.3 0.5 0.1 0.3 0.1 0.6v2.6h-0.4q-0.1 0-0.1 0-0.1-0.1-0.1-0.1l-0.1-0.4q-0.2 0.1-0.3 0.2-0.2 0.1-0.3 0.2-0.2 0.1-0.4 0.1-0.2 0.1-0.4 0.1-0.2 0-0.4-0.1-0.2-0.1-0.4-0.2-0.2-0.1-0.2-0.3-0.1-0.2-0.1-0.5 0-0.2 0.1-0.5 0.1-0.2 0.4-0.3 0.3-0.2 0.8-0.3 0.5-0.1 1.2-0.2v-0.3q0-0.4-0.2-0.7-0.2-0.2-0.6-0.2-0.3 0-0.5 0-0.1 0.1-0.3 0.2-0.1 0.1-0.2 0.1-0.1 0.1-0.2 0.1-0.1 0-0.1 0-0.1-0.1-0.1-0.1l-0.1-0.2zm1.9-1.9q0.2 0 0.2 0 0.1-0.1 0.1-0.3h0.4q0 0.2 0 0.3-0.1 0.2-0.1 0.3-0.1 0.1-0.3 0.2-0.1 0-0.3 0-0.1 0-0.2 0-0.1-0.1-0.3-0.1-0.1-0.1-0.2-0.2 0 0-0.1 0-0.3 0-0.3 0.3h-0.5q0-0.2 0.1-0.3 0-0.2 0.1-0.3 0.1-0.1 0.2-0.2 0.2 0 0.3 0 0.2 0 0.3 0 0.1 0.1 0.2 0.1 0.1 0.1 0.2 0.2 0.1 0 0.2 0zm0.4 3.5q-0.5 0-0.9 0.1-0.3 0.1-0.5 0.2-0.2 0-0.3 0.2-0.2 0.1-0.1 0.3 0 0.2 0 0.3 0 0.1 0.1 0.2 0.1 0 0.2 0.1 0.2 0 0.3 0 0.2 0 0.3 0 0.2-0.1 0.3-0.1 0.2-0.1 0.3-0.2 0.1-0.1 0.2-0.2v-0.9z"/><path  d="m229.7 155q0.4 0 0.8 0.2 0.3 0.1 0.6 0.4 0.2 0.2 0.4 0.6 0.1 0.4 0.1 0.9 0 0.5-0.1 0.9-0.2 0.3-0.4 0.6-0.3 0.3-0.6 0.4-0.4 0.2-0.8 0.2-0.5 0-0.8-0.2-0.4-0.1-0.6-0.4-0.3-0.3-0.4-0.6-0.2-0.4-0.2-0.9 0-0.5 0.2-0.9 0.1-0.4 0.4-0.6 0.2-0.3 0.6-0.4 0.3-0.2 0.8-0.2zm0 3.6q0.6 0 0.9-0.4 0.3-0.4 0.3-1.1 0-0.7-0.3-1.1-0.3-0.4-0.9-0.4-0.3 0-0.6 0.1-0.2 0.1-0.3 0.3-0.2 0.2-0.3 0.4 0 0.3 0 0.7 0 0.7 0.3 1.1 0.3 0.4 0.9 0.4z"/><path  d="m189.4 170.1v0.6h-3.6v-5.7h3.6v0.6h-2.8v1.9h2.2v0.6h-2.2v2h2.8z"/><path  d="m193.6 170.7h-0.7q0 0-0.1 0 0-0.1-0.1-0.1l-1-1.6c0 0 0 0 0 0.1q0 0-0.1 0.1l-0.9 1.4c0 0-0.1 0-0.1 0.1q-0.1 0-0.1 0h-0.7l1.4-2.1-1.3-1.9h0.7q0 0 0.1 0 0 0 0.1 0.1l1 1.5q0-0.1 0.1-0.2l0.8-1.3c0 0 0.1-0.1 0.1-0.1q0.1 0 0.1 0h0.7l-1.4 1.9 1.4 2.1z"/><path  d="m196.9 167.4c0 0 0 0 0 0.1q-0.1 0-0.1 0-0.1 0-0.2-0.1 0 0-0.1-0.1-0.2 0-0.3-0.1-0.2 0-0.4 0-0.3 0-0.5 0.1-0.2 0.1-0.4 0.3-0.2 0.2-0.2 0.5-0.1 0.2-0.1 0.6 0 0.4 0.1 0.6 0.1 0.3 0.2 0.5 0.2 0.2 0.4 0.3 0.2 0.1 0.5 0.1 0.2 0 0.4 0 0.2-0.1 0.3-0.2 0.1 0 0.2-0.1 0-0.1 0.1-0.1 0.1 0 0.2 0.1l0.2 0.3q-0.2 0.1-0.3 0.2-0.2 0.2-0.4 0.2-0.2 0.1-0.4 0.1-0.2 0.1-0.5 0.1-0.3 0-0.7-0.2-0.3-0.1-0.5-0.4-0.3-0.2-0.4-0.6-0.1-0.4-0.1-0.9-0.1-0.5 0.1-0.8 0.1-0.4 0.4-0.7 0.2-0.3 0.6-0.4 0.3-0.2 0.8-0.2 0.4 0 0.7 0.1 0.3 0.2 0.6 0.4l-0.2 0.3z"/><path  d="m198.6 167.5q0.2-0.4 0.5-0.7 0.2-0.2 0.6-0.2 0.2 0 0.3 0 0.1 0.1 0.2 0.1l-0.1 0.5q0 0.2-0.1 0.1 0 0.1-0.1 0-0.1 0-0.3 0-0.2 0-0.3 0.1-0.2 0-0.3 0.1-0.1 0.2-0.2 0.3-0.1 0.2-0.2 0.4v2.5h-0.7v-4h0.4q0.1 0 0.2 0 0 0.1 0.1 0.2v0.6z"/><path  d="m203.9 170.2q-0.1 0.1-0.3 0.2-0.2 0.1-0.4 0.2-0.2 0.1-0.4 0.1-0.2 0.1-0.4 0.1-0.5 0-0.8-0.2-0.4-0.1-0.6-0.4-0.3-0.3-0.4-0.7-0.1-0.4-0.1-0.9-0.1-0.4 0.1-0.8 0.1-0.4 0.4-0.6 0.2-0.3 0.6-0.4 0.3-0.2 0.7-0.2 0.4 0 0.7 0.1 0.3 0.1 0.6 0.4 0.2 0.2 0.3 0.5 0.1 0.4 0.1 0.8 0 0.2 0 0.2 0 0.1-0.1 0.1h-2.8q0 0.4 0.2 0.7 0 0.2 0.2 0.4 0.2 0.2 0.4 0.3 0.2 0.1 0.5 0.1 0.3 0 0.5-0.1 0.2 0 0.3-0.1 0.2-0.1 0.3-0.1 0-0.1 0.1-0.1 0.1 0 0.2 0.1zm-0.6-1.9q0-0.3-0.1-0.4-0.1-0.3-0.2-0.4-0.1-0.2-0.3-0.2-0.2-0.1-0.5-0.1-0.5 0-0.8 0.3-0.3 0.3-0.3 0.8h2.2z"/><path  d="m207.9 170.2q-0.2 0.2-0.5 0.4-0.4 0.1-0.7 0.2l-0.1 0.2q0.4 0.1 0.5 0.2 0.2 0.2 0.2 0.4 0 0.1-0.1 0.2 0 0.1-0.1 0.2-0.2 0.1-0.3 0.1-0.2 0.1-0.4 0.1-0.1 0-0.3-0.1-0.1 0-0.2-0.1v-0.2c0 0 0.1 0 0.1 0q0-0.1 0.1 0 0 0 0.1 0 0 0 0.1 0 0 0 0.1 0 0.2 0 0.3 0 0-0.1 0-0.2 0-0.2-0.1-0.2-0.2-0.1-0.5-0.1l0.2-0.5q-0.4 0-0.7-0.2-0.3-0.2-0.5-0.4-0.2-0.3-0.3-0.7-0.1-0.3-0.1-0.8 0-0.5 0.1-0.8 0.1-0.4 0.4-0.7 0.2-0.3 0.6-0.4 0.3-0.2 0.8-0.2 0.4 0 0.7 0.2 0.3 0.1 0.6 0.3l-0.2 0.3c0 0 0 0.1 0 0.1q-0.1 0-0.1 0-0.1 0-0.2-0.1 0 0-0.1-0.1-0.2 0-0.3-0.1-0.2 0-0.4 0-0.3 0-0.5 0.1-0.2 0.1-0.4 0.3-0.2 0.2-0.2 0.5-0.1 0.3-0.1 0.6 0 0.4 0.1 0.7 0.1 0.2 0.2 0.4 0.2 0.2 0.4 0.3 0.2 0.1 0.5 0.1 0.2 0 0.4 0 0.2-0.1 0.3-0.2 0.1 0 0.2-0.1 0-0.1 0.1-0.1 0.1 0 0.2 0.1l0.2 0.3z"/><path  d="m208.6 167.2q0.3-0.3 0.7-0.4 0.4-0.2 0.9-0.2 0.3 0 0.6 0.1 0.2 0.1 0.4 0.3 0.2 0.2 0.3 0.5 0.1 0.3 0.1 0.6v2.6h-0.3q-0.1 0-0.2 0-0.1-0.1-0.1-0.1l-0.1-0.4q-0.1 0.1-0.3 0.2-0.1 0.1-0.3 0.2-0.2 0.1-0.4 0.1-0.2 0.1-0.4 0.1-0.2 0-0.4-0.1-0.2-0.1-0.4-0.2-0.1-0.1-0.2-0.3-0.1-0.2-0.1-0.5 0-0.2 0.1-0.5 0.2-0.2 0.5-0.3 0.2-0.2 0.7-0.3 0.5-0.1 1.2-0.2v-0.3q0-0.4-0.2-0.7-0.2-0.2-0.6-0.2-0.3 0-0.4 0-0.2 0.1-0.4 0.2-0.1 0.1-0.2 0.1-0.1 0.1-0.2 0.1 0 0-0.1 0 0-0.1-0.1-0.1l-0.1-0.2zm1.9-1.9q0.2 0 0.3 0 0-0.1 0-0.3h0.5q0 0.2-0.1 0.3 0 0.2-0.1 0.3-0.1 0.1-0.2 0.2-0.2 0-0.3 0-0.2 0-0.3 0-0.1-0.1-0.2-0.1-0.1-0.1-0.2-0.2-0.1 0-0.2 0-0.3 0-0.3 0.3h-0.5q0-0.2 0.1-0.3 0-0.2 0.1-0.3 0.1-0.1 0.3-0.2 0.1 0 0.3 0 0.1 0 0.2 0 0.1 0.1 0.3 0.1 0.1 0.1 0.2 0.2 0 0 0.1 0zm0.4 3.5q-0.5 0-0.8 0.1-0.4 0.1-0.6 0.2-0.2 0-0.3 0.2-0.1 0.1-0.1 0.3 0 0.2 0 0.3 0.1 0.1 0.2 0.2 0.1 0 0.2 0.1 0.1 0 0.2 0 0.2 0 0.4 0 0.1-0.1 0.3-0.1 0.1-0.1 0.2-0.2 0.1-0.1 0.3-0.2v-0.9z"/><path  d="m214.4 166.6q0.4 0 0.8 0.2 0.3 0.1 0.6 0.4 0.3 0.2 0.4 0.6 0.1 0.4 0.1 0.9 0 0.5-0.1 0.9-0.1 0.3-0.4 0.6-0.3 0.3-0.6 0.4-0.4 0.2-0.8 0.2-0.5 0-0.8-0.2-0.4-0.1-0.6-0.4-0.3-0.2-0.4-0.6-0.2-0.4-0.2-0.9 0-0.5 0.2-0.9 0.1-0.4 0.4-0.6 0.2-0.3 0.6-0.4 0.3-0.2 0.8-0.2zm0 3.6q0.6 0 0.9-0.4 0.3-0.4 0.3-1.1 0-0.7-0.3-1.1-0.3-0.4-0.9-0.4-0.3 0-0.5 0.1-0.3 0.1-0.4 0.3-0.2 0.2-0.2 0.4-0.1 0.3-0.1 0.7 0 0.7 0.3 1.1 0.3 0.4 0.9 0.4z"/><path  d="m186.3 181.7v0.6h-3.5v-5.7h3.5v0.6h-2.8v1.9h2.3v0.6h-2.3v2h2.8z"/><path  d="m187.9 176.4v5.9h-0.7v-5.9z"/><path  d="m190 177q0 0.1-0.1 0.2 0 0.1-0.1 0.1 0 0.1-0.1 0.2-0.1 0-0.2 0-0.1 0-0.2 0-0.1-0.1-0.2-0.2 0 0-0.1-0.1 0-0.1 0-0.2 0-0.1 0-0.2 0.1-0.1 0.1-0.2 0.1 0 0.2-0.1 0.1 0 0.2 0 0.1 0 0.2 0 0.1 0.1 0.1 0.1 0.1 0.1 0.1 0.2 0.1 0.1 0.1 0.2zm-0.2 1.3v4h-0.7v-4z"/><path  d="m191 182.3v-4h0.4q0.2 0 0.2 0.1l0.1 0.4q0.2-0.2 0.5-0.4 0.3-0.2 0.6-0.2 0.4 0 0.7 0.2 0.2 0.3 0.4 0.7 0-0.3 0.2-0.4 0.1-0.2 0.3-0.3 0.2-0.1 0.4-0.1 0.2-0.1 0.4-0.1 0.3 0 0.5 0.1 0.3 0.1 0.4 0.3 0.2 0.2 0.3 0.5 0.1 0.3 0.1 0.6v2.6h-0.7v-2.6q0-0.4-0.2-0.7-0.2-0.2-0.6-0.2-0.2 0-0.4 0-0.1 0.1-0.2 0.2-0.2 0.1-0.2 0.3-0.1 0.2-0.1 0.4v2.6h-0.7v-2.6q0-0.5-0.2-0.7-0.2-0.2-0.6-0.2-0.3 0-0.5 0.1-0.2 0.1-0.4 0.4v3h-0.7z"/><path  d="m198.5 177q0 0.1-0.1 0.2 0 0.1-0.1 0.1 0 0.1-0.1 0.2-0.1 0-0.2 0-0.1 0-0.2 0-0.1-0.1-0.2-0.2 0 0-0.1-0.1 0-0.1 0-0.2 0-0.1 0-0.2 0.1-0.1 0.1-0.2 0.1 0 0.2-0.1 0.1 0 0.2 0 0.1 0 0.2 0 0.1 0.1 0.1 0.1 0.1 0.1 0.1 0.2 0.1 0.1 0.1 0.2zm-0.2 1.3v4h-0.7v-4z"/><path  d="m200.2 178.9q0.1-0.2 0.3-0.3 0.1-0.1 0.3-0.2 0.1-0.1 0.3-0.2 0.2 0 0.4 0 0.3 0 0.6 0.1 0.3 0.1 0.4 0.3 0.2 0.2 0.3 0.5 0.1 0.3 0.1 0.6v2.6h-0.8v-2.6q0-0.4-0.2-0.7-0.2-0.2-0.6-0.2-0.3 0-0.6 0.1-0.3 0.2-0.5 0.4v3h-0.7v-4h0.4q0.2 0 0.2 0.1l0.1 0.5z"/><path  d="m203.9 178.8q0.3-0.3 0.7-0.4 0.4-0.2 0.8-0.2 0.4 0 0.6 0.1 0.3 0.1 0.5 0.3 0.2 0.2 0.3 0.5 0 0.3 0 0.6v2.6h-0.3q-0.1 0-0.1 0-0.1-0.1-0.1-0.1l-0.1-0.4q-0.2 0.1-0.3 0.2-0.2 0.1-0.3 0.2-0.2 0.1-0.4 0.1-0.2 0.1-0.4 0.1-0.3 0-0.5-0.1-0.2-0.1-0.3-0.2-0.2-0.1-0.3-0.3-0.1-0.2 0-0.5-0.1-0.2 0.1-0.5 0.1-0.2 0.4-0.3 0.3-0.2 0.8-0.3 0.5-0.1 1.2-0.2v-0.3q-0.1-0.4-0.2-0.7-0.3-0.2-0.6-0.2-0.3 0-0.5 0-0.2 0.1-0.3 0.2-0.1 0.1-0.2 0.1-0.1 0.1-0.2 0.1-0.1 0-0.1 0-0.1-0.1-0.1-0.1l-0.1-0.2zm2.3 1.6q-0.5 0-0.9 0.1-0.3 0.1-0.5 0.2-0.3 0-0.4 0.2-0.1 0.1-0.1 0.3 0 0.2 0.1 0.3 0 0.1 0.1 0.2 0.1 0 0.2 0.1 0.2 0 0.3 0 0.2 0 0.3 0 0.2-0.1 0.3-0.1 0.2-0.1 0.3-0.2 0.1-0.1 0.2-0.2v-0.9z"/><path  d="m211 181.8q-0.2 0.2-0.6 0.4-0.3 0.1-0.7 0.2v0.2q0.3 0.1 0.5 0.2 0.2 0.2 0.2 0.4 0 0.1-0.1 0.2-0.1 0.1-0.2 0.2-0.1 0.1-0.2 0.1-0.2 0.1-0.4 0.1-0.2 0-0.3-0.1-0.2 0-0.3-0.1l0.1-0.2c0 0 0 0 0.1 0q0 0 0 0 0.1 0 0.1 0 0.1 0 0.1 0 0.1 0 0.2 0 0.1 0 0.2 0 0.1-0.1 0.1-0.2 0-0.1-0.2-0.2-0.1-0.1-0.4-0.1l0.1-0.5q-0.3 0-0.6-0.2-0.3-0.2-0.5-0.4-0.2-0.3-0.4-0.7-0.1-0.3-0.1-0.8 0-0.4 0.2-0.8 0.1-0.4 0.3-0.7 0.3-0.3 0.6-0.4 0.4-0.2 0.8-0.2 0.5 0 0.8 0.2 0.3 0.1 0.6 0.3l-0.2 0.3c0 0-0.1 0.1-0.1 0.1q0 0-0.1 0 0 0-0.1-0.1-0.1 0-0.2-0.1-0.1 0-0.2-0.1-0.2 0-0.4 0-0.3 0-0.6 0.1-0.2 0.1-0.3 0.3-0.2 0.2-0.3 0.5 0 0.3 0 0.6 0 0.4 0 0.7 0.1 0.3 0.3 0.4 0.1 0.2 0.3 0.3 0.3 0.2 0.5 0.1 0.3 0 0.5 0 0.1-0.1 0.2-0.2 0.1 0 0.2-0.1 0.1-0.1 0.2-0.1 0.1 0 0.1 0.1l0.2 0.3z"/><path  d="m211.7 178.8q0.3-0.3 0.7-0.4 0.4-0.2 0.8-0.2 0.4 0 0.6 0.1 0.3 0.1 0.5 0.3 0.2 0.2 0.3 0.5 0 0.3 0 0.6v2.6h-0.3q-0.1 0-0.1 0-0.1-0.1-0.1-0.1l-0.1-0.4q-0.2 0.1-0.3 0.2-0.2 0.1-0.3 0.2-0.2 0.1-0.4 0.1-0.2 0.1-0.4 0.1-0.3 0-0.5-0.1-0.2-0.1-0.3-0.2-0.2-0.1-0.3-0.3 0-0.2 0-0.5-0.1-0.2 0.1-0.5 0.1-0.2 0.4-0.3 0.3-0.2 0.8-0.3 0.5-0.1 1.2-0.2v-0.3q-0.1-0.4-0.2-0.7-0.3-0.2-0.6-0.2-0.3 0-0.5 0-0.2 0.1-0.3 0.2-0.1 0.1-0.2 0.1-0.1 0.1-0.2 0.1-0.1 0-0.1 0-0.1-0.1-0.1-0.1l-0.1-0.2zm1.9-1.9q0.1 0 0.2 0 0.1-0.1 0.1-0.3h0.4q0 0.2 0 0.3-0.1 0.2-0.2 0.3-0.1 0.1-0.2 0.2-0.1 0-0.3 0-0.1 0-0.2 0-0.2-0.1-0.3-0.1-0.1-0.1-0.2-0.2-0.1 0-0.2 0-0.2 0-0.3 0.3h-0.4q0-0.2 0.1-0.3 0-0.2 0.1-0.3 0.1-0.1 0.2-0.2 0.2 0 0.3 0 0.2 0 0.3 0 0.1 0.1 0.2 0.1 0.1 0.1 0.2 0.2 0.1 0 0.2 0zm0.4 3.5q-0.5 0-0.9 0.1-0.3 0.1-0.5 0.2-0.3 0-0.4 0.2-0.1 0.1-0.1 0.3 0 0.2 0.1 0.3 0 0.1 0.1 0.2 0.1 0 0.2 0.1 0.2 0 0.3 0 0.2 0 0.3 0 0.2-0.1 0.3-0.1 0.2-0.1 0.3-0.2 0.1-0.1 0.2-0.2v-0.9z"/><path  d="m217.4 178.2q0.5 0 0.8 0.2 0.4 0.1 0.7 0.4 0.2 0.2 0.3 0.6 0.2 0.4 0.2 0.9 0 0.5-0.2 0.9-0.1 0.3-0.3 0.6-0.3 0.3-0.7 0.4-0.3 0.2-0.8 0.2-0.4 0-0.8-0.2-0.3-0.1-0.6-0.4-0.2-0.2-0.4-0.6-0.1-0.4-0.1-0.9 0-0.5 0.1-0.9 0.2-0.3 0.4-0.6 0.3-0.3 0.6-0.4 0.4-0.2 0.8-0.2zm0 3.6q0.6 0 0.9-0.4 0.3-0.4 0.3-1.1 0-0.7-0.3-1.1-0.3-0.4-0.9-0.4-0.3 0-0.5 0.1-0.2 0.1-0.4 0.3-0.1 0.2-0.2 0.4-0.1 0.3-0.1 0.7 0 0.7 0.4 1.1 0.2 0.4 0.9 0.4z"/><path fill-rule="evenodd" class="d" d="m89.3 9.5h55.6v11.3h-55.6z"/><path fill-rule="evenodd" class="d" d="m157.1 15.1l-15-8.7v17.4l15-8.7z"/><path fill-rule="evenodd" class="d" d="m157.1 47.9h-55.6v-11.3h55.6z"/><path fill-rule="evenodd" class="d" d="m89.3 42.2l15 8.7v-17.3l-15 8.6z"/><path fill-rule="evenodd" class="d" d="m50.4 96.2v21.7h-4.4v-21.7z"/><path fill-rule="evenodd" class="d" d="m48.2 122.6l3.3-5.8h-6.7l3.4 5.8z"/><path fill-rule="evenodd" class="d" d="m35.4 122.6v-21.7h4.4v21.7z"/><path fill-rule="evenodd" class="d" d="m37.6 96.2l-3.4 5.8h6.8l-3.4-5.8z"/><path fill-rule="evenodd" class="d" d="m204.9 96.2v21.7h-4.4v-21.7z"/><path fill-rule="evenodd" class="d" d="m202.7 122.6l3.4-5.8h-6.8l3.4 5.8z"/><path fill-rule="evenodd" class="d" d="m189.9 122.6v-21.7h4.4v21.7z"/><path fill-rule="evenodd" class="d" d="m192.1 96.2l-3.4 5.8h6.8l-3.4-5.8z"/></svg>