<?xml version="1.0" encoding="UTF-8"?>
<svg xmlns="http://www.w3.org/2000/svg" viewBox="0 0 266.82 190.41">
  <defs>
    <style>
      .cls-1 {
        fill: #930d0c;
      }

      .cls-2 {
        fill: #fff;
      }

      .cls-3 {
        fill: #cda45e;
      }

      .cls-4 {
        fill: #94a26e;
      }
    </style>
  </defs>
  <g id="Camada_1" data-name="Camada 1">
    <g>
      <circle class="cls-4" cx="55.82" cy="43.77" r="30.17"/>
      <path class="cls-2" d="M66.89,41.32s-.03-.05-.03-.05c-.34-.71-1.15-2.44-1.39-3.6-.24-1.11-.66-2.21-1.44-3.04-.02-.02-.03-.02-.05-.03-.21-.23-.37-.48-.44-.78-.21-.81-.6-2.52-.69-3.86-.11-1.63-1.32-2.86-3.04-3.1,0,0-1.34-.95-2.28-1.03l-.27-1.74s.57-.87.61-1.45c0,0,.69-.47,0-1.34,0,0,.47-2.29-2.07-2.52-2.54.23-2.07,2.52-2.07,2.52-.69.87,0,1.34,0,1.34.05.58.61,1.45.61,1.45l-.27,1.74c-.94.08-2.28,1.03-2.28,1.03-1.71.24-2.92,1.47-3.04,3.1-.1,1.34-.48,3.05-.69,3.86-.06.29-.23.55-.44.78-.02.02-.03.02-.05.03-.78.82-1.2,1.92-1.44,3.04-.24,1.16-1.05,2.89-1.39,3.6,0,0-.02.02-.03.05-.23.29-1.49,2.1.03,2.45.57.13.9.03,1.11-.16.15-.13.24-.31.27-.47.1-.32.05-.63.05-.63.03-.34.11-.6.18-.81.11-.29.27-.57.47-.81,1.79-2.28,2.47-3.86,2.71-4.78.26-.9.61-1.76.99-2.62.38-.87.54-1.51.59-1.93.02-.13.2-.16.25-.03.8,2.41.46,5.87.2,7.66-.15.6-.3,1.2-.44,1.8-1.2,3.45-.97,8.51-.69,11.44.1,1.13.02,2.26-.26,3.38-.58,2.23-.37,7.24-.26,9.32.03.63-.11,1.24-.4,1.79l-.39.71c-.73,1.13.13,1.13.13,1.13h1.91c.39,0,.71-.34.69-.74-.11-3,.24-5.22.42-6.07.05-.26.15-.47.24-.71.6-1.45.69-4.34.71-5.44,0-.24.05-.48.13-.73,2.41-6.9,2.3-10.4,2.3-10.4h.28s-.11,3.5,2.3,10.4c.08.24.13.48.13.73.02,1.1.11,3.99.71,5.44.1.24.19.45.24.71.18.86.53,3.07.42,6.07-.02.4.31.74.69.74h1.91s.86,0,.13-1.13l-.39-.71c-.29-.55-.44-1.16-.4-1.79.11-2.08.32-7.09-.26-9.32-.27-1.11-.36-2.24-.26-3.38.27-2.93.51-7.99-.69-11.44-.15-.6-.3-1.2-.44-1.8-.26-1.79-.6-5.25.2-7.66.04-.13.23-.11.25.03.06.42.21,1.05.59,1.93.37.86.73,1.71.99,2.62.24.92.92,2.5,2.71,4.78.19.24.36.52.47.81.06.21.15.47.18.81.03.19.05.39.05.63.03.16.13.34.27.47.21.19.55.29,1.11.16,1.52-.36.26-2.16.03-2.45Z"/>
    </g>
    <g>
      <circle class="cls-4" cx="210.7" cy="43.77" r="30.17"/>
      <path class="cls-2" d="M222.4,32.03c-3.3-3.28-8.62-3.28-11.92,0l-11.62,11.59c-3.29,3.29-3.05,8.61.24,11.89,3.3,3.28,8.62,3.28,11.92,0l11.39-11.59c3.28-3.25,3.31-8.55.06-11.83-.02-.02-.04-.04-.06-.06ZM214.13,46.73l-6.48-6.45c-.56-.56-.56-1.47,0-2.03,0,0,0,0,0,0l4.45-4.42c2.39-2.39,6.37-2.45,8.7,0,2.27,2.35,2.23,6.09-.09,8.4l-4.51,4.51c-.57.57-1.49.57-2.06,0Z"/>
    </g>
    <rect class="cls-3" x="10.44" y="82.93" width="90.75" height="20.9" rx="6" ry="6"/>
    <rect class="cls-3" x="165.32" y="82.93" width="90.75" height="20.9" rx="6" ry="6"/>
  </g>
  <g id="Camada_3" data-name="Camada 3">
    <g>
      <path d="M19.24,90.1v2.14h2.71v1.07h-2.71v2.95h-1.35v-7.23h4.56v1.07h-3.21Z"/>
      <path d="M22.56,91.85c.59-.54,1.3-.81,2.13-.81.3,0,.57.05.8.15.24.1.44.24.6.41.16.17.29.38.37.63s.13.51.13.8v3.24h-.56c-.12,0-.21-.02-.27-.05-.06-.04-.11-.11-.15-.21l-.11-.37c-.13.12-.26.22-.38.31-.12.09-.25.16-.39.22-.13.06-.28.11-.43.14-.15.03-.32.05-.5.05-.22,0-.42-.03-.6-.09-.18-.06-.34-.15-.48-.26-.13-.12-.24-.26-.31-.44-.07-.17-.11-.38-.11-.6,0-.13.02-.26.06-.39.04-.13.11-.25.21-.37.1-.12.23-.23.38-.33.16-.1.35-.19.58-.27.23-.08.49-.14.8-.19.3-.05.65-.08,1.04-.09v-.3c0-.34-.07-.6-.22-.76-.15-.16-.36-.25-.64-.25-.2,0-.37.02-.5.07-.13.05-.25.1-.35.16-.1.06-.19.11-.27.16-.08.05-.17.07-.27.07-.09,0-.16-.02-.22-.07s-.11-.1-.15-.16l-.22-.4ZM25.39,94.07c-.36.02-.66.05-.9.09s-.44.1-.58.17c-.15.07-.25.15-.31.25-.06.09-.1.19-.1.3,0,.22.06.37.19.46.13.09.3.14.5.14.25,0,.47-.05.66-.14s.37-.23.54-.42v-.87Z"/>
      <path d="M28.92,92.02c.16-.31.35-.55.57-.72.22-.18.48-.26.78-.26.24,0,.43.05.57.16l-.08.92c-.02.06-.04.1-.07.13-.03.03-.07.04-.13.04-.05,0-.12,0-.22-.02-.1-.02-.19-.02-.29-.02-.14,0-.26.02-.36.06-.11.04-.2.1-.29.17-.08.08-.16.17-.23.27-.06.11-.13.23-.18.37v3.16h-1.24v-5.13h.73c.13,0,.21.02.27.07.05.04.08.13.1.24l.07.58Z"/>
      <path d="M31.49,96.26v-5.13h.76c.16,0,.26.07.31.23l.08.38c.09-.1.18-.19.28-.27.1-.08.2-.16.31-.22s.23-.11.36-.14c.13-.03.27-.05.42-.05.32,0,.59.09.8.26.21.17.36.41.47.7.08-.17.18-.32.3-.44s.25-.22.4-.3c.14-.08.3-.13.46-.17s.32-.06.49-.06c.28,0,.54.04.75.13.22.09.41.21.56.38.15.17.26.37.34.61.08.24.12.51.12.83v3.26h-1.23v-3.26c0-.33-.07-.57-.21-.74-.14-.16-.35-.25-.63-.25-.13,0-.24.02-.35.06s-.2.11-.28.19c-.08.08-.15.18-.19.31-.05.12-.07.27-.07.43v3.26h-1.24v-3.26c0-.34-.07-.59-.21-.75-.14-.16-.34-.23-.61-.23-.18,0-.35.04-.5.13-.15.09-.3.21-.43.36v3.75h-1.24Z"/>
      <path d="M39.74,91.85c.59-.54,1.3-.81,2.13-.81.3,0,.57.05.8.15.24.1.44.24.6.41.16.17.29.38.37.63s.13.51.13.8v3.24h-.56c-.12,0-.21-.02-.27-.05-.06-.04-.11-.11-.15-.21l-.11-.37c-.13.12-.26.22-.38.31-.12.09-.25.16-.39.22-.13.06-.28.11-.43.14-.15.03-.32.05-.5.05-.22,0-.42-.03-.6-.09-.18-.06-.34-.15-.48-.26-.13-.12-.24-.26-.31-.44-.07-.17-.11-.38-.11-.6,0-.13.02-.26.06-.39.04-.13.11-.25.21-.37.1-.12.23-.23.38-.33.16-.1.35-.19.58-.27.23-.08.49-.14.8-.19.3-.05.65-.08,1.04-.09v-.3c0-.34-.07-.6-.22-.76-.15-.16-.36-.25-.64-.25-.2,0-.37.02-.5.07-.13.05-.25.1-.35.16-.1.06-.19.11-.27.16-.08.05-.17.07-.27.07-.09,0-.16-.02-.22-.07s-.11-.1-.15-.16l-.22-.4ZM42.57,94.07c-.36.02-.66.05-.9.09s-.44.1-.58.17c-.15.07-.25.15-.31.25-.06.09-.1.19-.1.3,0,.22.06.37.19.46.13.09.3.14.5.14.25,0,.47-.05.66-.14s.37-.23.54-.42v-.87Z"/>
      <path d="M48.61,92.22s-.07.08-.11.11c-.04.03-.09.04-.15.04s-.12-.02-.19-.06c-.06-.04-.13-.08-.21-.13s-.18-.09-.3-.13c-.12-.04-.26-.06-.43-.06-.22,0-.41.04-.57.12-.16.08-.3.19-.41.34-.11.15-.19.32-.24.53-.05.21-.08.44-.08.71s.03.52.09.73c.06.21.14.39.25.54.11.15.24.25.4.33s.33.11.53.11.36-.02.48-.07c.12-.05.22-.1.31-.16.08-.06.16-.11.22-.16.06-.05.13-.07.21-.07.1,0,.17.04.23.12l.35.45c-.14.16-.29.29-.45.4-.16.11-.33.19-.5.26-.17.07-.35.11-.53.14-.18.03-.36.04-.54.04-.32,0-.62-.06-.9-.18s-.52-.29-.73-.52-.38-.5-.5-.83c-.12-.33-.18-.7-.18-1.12,0-.38.05-.73.16-1.05.11-.32.27-.6.48-.84s.47-.42.78-.55.67-.2,1.07-.2.72.06,1.01.19c.29.12.55.3.78.53l-.32.45Z"/>
      <path d="M51.94,91.05c.38,0,.73.06,1.04.19.31.12.58.3.8.52s.39.5.51.83c.12.33.18.69.18,1.09s-.06.77-.18,1.1c-.12.33-.29.6-.51.83-.22.23-.49.41-.8.53-.31.12-.66.19-1.04.19s-.73-.06-1.04-.19c-.31-.12-.58-.3-.8-.53-.22-.23-.39-.51-.52-.83-.12-.33-.18-.69-.18-1.1s.06-.77.18-1.09c.12-.33.29-.6.52-.83.22-.23.49-.4.8-.52.31-.12.66-.19,1.04-.19ZM51.94,95.39c.43,0,.74-.14.95-.43.21-.29.31-.71.31-1.26s-.1-.97-.31-1.26-.52-.44-.95-.44-.75.15-.96.44c-.21.29-.31.71-.31,1.26s.1.97.31,1.26.53.43.96.43Z"/>
      <path d="M59.87,88.83v7.43h-.75c-.16,0-.27-.08-.31-.22l-.1-.5c-.21.24-.44.43-.71.58-.27.15-.58.22-.94.22-.28,0-.54-.06-.77-.17-.23-.12-.43-.29-.6-.51s-.3-.5-.39-.82c-.09-.33-.14-.7-.14-1.12,0-.38.05-.73.15-1.06.1-.33.25-.61.44-.85.19-.24.43-.43.7-.56.27-.14.57-.2.91-.2.29,0,.53.04.74.14.2.09.38.21.54.36v-2.71h1.23ZM58.63,92.44c-.14-.17-.29-.29-.46-.36-.17-.07-.34-.1-.53-.1s-.35.04-.5.1c-.15.07-.28.18-.38.32-.11.14-.19.32-.25.54-.06.22-.08.48-.08.77s.02.55.07.76c.05.21.12.38.21.51.09.13.2.23.33.29.13.06.27.09.44.09.26,0,.48-.05.65-.16.18-.11.35-.26.51-.45v-2.3Z"/>
      <path d="M62.54,89.64c0,.11-.02.21-.06.3-.04.09-.1.18-.17.25-.07.07-.16.13-.25.17-.1.04-.2.06-.31.06s-.21-.02-.3-.06c-.1-.04-.18-.1-.25-.17-.07-.07-.13-.15-.17-.25-.04-.09-.06-.19-.06-.3s.02-.21.06-.31.1-.18.17-.25.15-.13.25-.17c.1-.04.2-.06.3-.06s.21.02.31.06c.1.04.18.1.25.17.07.07.13.15.17.25.04.1.06.2.06.31ZM62.37,91.13v5.13h-1.24v-5.13h1.24Z"/>
      <path d="M64.78,91.76c.1-.1.21-.2.33-.29.12-.09.24-.16.37-.23.13-.06.27-.11.41-.15.15-.03.31-.05.48-.05.28,0,.53.05.75.14.22.09.4.23.54.4s.25.38.33.61c.08.24.11.5.11.79v3.26h-1.23v-3.26c0-.31-.07-.56-.22-.73-.14-.17-.36-.26-.65-.26-.21,0-.41.05-.6.15-.19.1-.36.23-.53.4v3.71h-1.24v-5.13h.76c.16,0,.26.07.31.23l.08.4Z"/>
      <path d="M69.15,91.85c.59-.54,1.3-.81,2.13-.81.3,0,.57.05.8.15.24.1.44.24.6.41.16.17.29.38.37.63s.13.51.13.8v3.24h-.56c-.12,0-.21-.02-.27-.05-.06-.04-.11-.11-.15-.21l-.11-.37c-.13.12-.26.22-.38.31-.12.09-.25.16-.39.22-.13.06-.28.11-.43.14-.15.03-.32.05-.5.05-.22,0-.42-.03-.6-.09-.18-.06-.34-.15-.48-.26-.13-.12-.24-.26-.31-.44-.07-.17-.11-.38-.11-.6,0-.13.02-.26.06-.39.04-.13.11-.25.21-.37.1-.12.23-.23.38-.33.16-.1.35-.19.58-.27.23-.08.49-.14.8-.19.3-.05.65-.08,1.04-.09v-.3c0-.34-.07-.6-.22-.76-.15-.16-.36-.25-.64-.25-.2,0-.37.02-.5.07-.13.05-.25.1-.35.16-.1.06-.19.11-.27.16-.08.05-.17.07-.27.07-.09,0-.16-.02-.22-.07s-.11-.1-.15-.16l-.22-.4ZM72.89,90.42h-.83s-.09,0-.14-.03c-.05-.02-.1-.05-.14-.1l-.49-.52s-.07-.07-.1-.12c-.04.05-.07.09-.1.12l-.5.52s-.08.07-.13.09c-.05.02-.1.03-.15.03h-.85l1.15-1.39h1.16l1.15,1.39ZM71.98,94.07c-.36.02-.66.05-.9.09s-.44.1-.58.17c-.15.07-.25.15-.31.25-.06.09-.1.19-.1.3,0,.22.06.37.19.46.13.09.3.14.5.14.25,0,.47-.05.66-.14s.37-.23.54-.42v-.87Z"/>
      <path d="M74.34,96.26v-5.13h.76c.16,0,.26.07.31.23l.08.38c.09-.1.18-.19.28-.27.1-.08.2-.16.31-.22s.23-.11.36-.14c.13-.03.27-.05.42-.05.32,0,.59.09.8.26.21.17.36.41.47.7.08-.17.18-.32.3-.44s.25-.22.4-.3c.14-.08.3-.13.46-.17s.32-.06.49-.06c.28,0,.54.04.75.13.22.09.41.21.56.38.15.17.26.37.34.61.08.24.12.51.12.83v3.26h-1.23v-3.26c0-.33-.07-.57-.21-.74-.14-.16-.35-.25-.63-.25-.13,0-.24.02-.35.06s-.2.11-.28.19c-.08.08-.15.18-.19.31-.05.12-.07.27-.07.43v3.26h-1.24v-3.26c0-.34-.07-.59-.21-.75-.14-.16-.34-.23-.61-.23-.18,0-.35.04-.5.13-.15.09-.3.21-.43.36v3.75h-1.24Z"/>
      <path d="M84.17,89.64c0,.11-.02.21-.06.3-.04.09-.1.18-.17.25-.07.07-.16.13-.25.17-.1.04-.2.06-.31.06s-.21-.02-.3-.06c-.1-.04-.18-.1-.25-.17-.07-.07-.13-.15-.17-.25-.04-.09-.06-.19-.06-.3s.02-.21.06-.31.1-.18.17-.25.15-.13.25-.17c.1-.04.2-.06.3-.06s.21.02.31.06c.1.04.18.1.25.17.07.07.13.15.17.25.04.1.06.2.06.31ZM84,91.13v5.13h-1.24v-5.13h1.24Z"/>
      <path d="M88.93,92.22s-.07.08-.11.11c-.04.03-.09.04-.15.04s-.12-.02-.19-.06c-.06-.04-.13-.08-.21-.13s-.18-.09-.3-.13c-.12-.04-.26-.06-.43-.06-.22,0-.41.04-.57.12-.16.08-.3.19-.41.34-.11.15-.19.32-.24.53-.05.21-.08.44-.08.71s.03.52.09.73c.06.21.14.39.25.54.11.15.24.25.4.33s.33.11.53.11.36-.02.48-.07c.12-.05.22-.1.31-.16.08-.06.16-.11.22-.16.06-.05.13-.07.21-.07.1,0,.17.04.23.12l.35.45c-.14.16-.29.29-.45.4-.16.11-.33.19-.5.26-.17.07-.35.11-.53.14-.18.03-.36.04-.54.04-.32,0-.62-.06-.9-.18s-.52-.29-.73-.52-.38-.5-.5-.83c-.12-.33-.18-.7-.18-1.12,0-.38.05-.73.16-1.05.11-.32.27-.6.48-.84s.47-.42.78-.55.67-.2,1.07-.2.72.06,1.01.19c.29.12.55.3.78.53l-.32.45Z"/>
      <path d="M89.96,91.85c.59-.54,1.3-.81,2.13-.81.3,0,.57.05.8.15.24.1.44.24.6.41.16.17.29.38.37.63s.13.51.13.8v3.24h-.56c-.12,0-.21-.02-.27-.05-.06-.04-.11-.11-.15-.21l-.11-.37c-.13.12-.26.22-.38.31-.12.09-.25.16-.39.22-.13.06-.28.11-.43.14-.15.03-.32.05-.5.05-.22,0-.42-.03-.6-.09-.18-.06-.34-.15-.48-.26-.13-.12-.24-.26-.31-.44-.07-.17-.11-.38-.11-.6,0-.13.02-.26.06-.39.04-.13.11-.25.21-.37.1-.12.23-.23.38-.33.16-.1.35-.19.58-.27.23-.08.49-.14.8-.19.3-.05.65-.08,1.04-.09v-.3c0-.34-.07-.6-.22-.76-.15-.16-.36-.25-.64-.25-.2,0-.37.02-.5.07-.13.05-.25.1-.35.16-.1.06-.19.11-.27.16-.08.05-.17.07-.27.07-.09,0-.16-.02-.22-.07s-.11-.1-.15-.16l-.22-.4ZM92.79,94.07c-.36.02-.66.05-.9.09s-.44.1-.58.17c-.15.07-.25.15-.31.25-.06.09-.1.19-.1.3,0,.22.06.37.19.46.13.09.3.14.5.14.25,0,.47-.05.66-.14s.37-.23.54-.42v-.87Z"/>
    </g>
    <g>
      <path d="M176.68,90.1v2.14h2.71v1.07h-2.71v2.95h-1.35v-7.23h4.56v1.07h-3.21Z"/>
      <path d="M180,91.85c.59-.54,1.3-.81,2.13-.81.3,0,.57.05.8.15.24.1.44.24.6.41.16.17.29.38.37.63s.13.51.13.8v3.24h-.56c-.12,0-.21-.02-.27-.05-.06-.04-.11-.11-.15-.21l-.11-.37c-.13.12-.26.22-.38.31-.12.09-.25.16-.39.22-.13.06-.28.11-.43.14-.15.03-.32.05-.5.05-.22,0-.42-.03-.6-.09-.18-.06-.34-.15-.48-.26-.13-.12-.24-.26-.31-.44-.07-.17-.11-.38-.11-.6,0-.13.02-.26.06-.39.04-.13.11-.25.21-.37.1-.12.23-.23.38-.33.16-.1.35-.19.58-.27.23-.08.49-.14.8-.19.3-.05.65-.08,1.04-.09v-.3c0-.34-.07-.6-.22-.76-.15-.16-.36-.25-.64-.25-.2,0-.37.02-.5.07-.13.05-.25.1-.35.16-.1.06-.19.11-.27.16-.08.05-.17.07-.27.07-.09,0-.16-.02-.22-.07s-.11-.1-.15-.16l-.22-.4ZM182.83,94.07c-.36.02-.66.05-.9.09s-.44.1-.58.17c-.15.07-.25.15-.31.25-.06.09-.1.19-.1.3,0,.22.06.37.19.46.13.09.3.14.5.14.25,0,.47-.05.66-.14s.37-.23.54-.42v-.87Z"/>
      <path d="M186.36,92.02c.16-.31.35-.55.57-.72.22-.18.48-.26.78-.26.24,0,.43.05.57.16l-.08.92c-.02.06-.04.1-.07.13-.03.03-.07.04-.13.04-.05,0-.12,0-.22-.02-.1-.02-.19-.02-.29-.02-.14,0-.26.02-.36.06-.11.04-.2.1-.29.17-.08.08-.16.17-.23.27-.06.11-.13.23-.18.37v3.16h-1.24v-5.13h.73c.13,0,.21.02.27.07.05.04.08.13.1.24l.07.58Z"/>
      <path d="M188.93,96.26v-5.13h.76c.16,0,.26.07.31.23l.08.38c.09-.1.18-.19.28-.27.1-.08.2-.16.31-.22s.23-.11.36-.14c.13-.03.27-.05.42-.05.32,0,.59.09.8.26.21.17.36.41.47.7.08-.17.18-.32.3-.44s.25-.22.4-.3c.14-.08.3-.13.46-.17s.32-.06.49-.06c.28,0,.54.04.75.13.22.09.41.21.56.38.15.17.26.37.34.61.08.24.12.51.12.83v3.26h-1.23v-3.26c0-.33-.07-.57-.21-.74-.14-.16-.35-.25-.63-.25-.13,0-.24.02-.35.06s-.2.11-.28.19c-.08.08-.15.18-.19.31-.05.12-.07.27-.07.43v3.26h-1.24v-3.26c0-.34-.07-.59-.21-.75-.14-.16-.34-.23-.61-.23-.18,0-.35.04-.5.13-.15.09-.3.21-.43.36v3.75h-1.24Z"/>
      <path d="M197.18,91.85c.59-.54,1.3-.81,2.13-.81.3,0,.57.05.8.15.24.1.44.24.6.41.16.17.29.38.37.63s.13.51.13.8v3.24h-.56c-.12,0-.21-.02-.27-.05-.06-.04-.11-.11-.15-.21l-.11-.37c-.13.12-.26.22-.38.31-.12.09-.25.16-.39.22-.13.06-.28.11-.43.14-.15.03-.32.05-.5.05-.22,0-.42-.03-.6-.09-.18-.06-.34-.15-.48-.26-.13-.12-.24-.26-.31-.44-.07-.17-.11-.38-.11-.6,0-.13.02-.26.06-.39.04-.13.11-.25.21-.37.1-.12.23-.23.38-.33.16-.1.35-.19.58-.27.23-.08.49-.14.8-.19.3-.05.65-.08,1.04-.09v-.3c0-.34-.07-.6-.22-.76-.15-.16-.36-.25-.64-.25-.2,0-.37.02-.5.07-.13.05-.25.1-.35.16-.1.06-.19.11-.27.16-.08.05-.17.07-.27.07-.09,0-.16-.02-.22-.07s-.11-.1-.15-.16l-.22-.4ZM200.01,94.07c-.36.02-.66.05-.9.09s-.44.1-.58.17c-.15.07-.25.15-.31.25-.06.09-.1.19-.1.3,0,.22.06.37.19.46.13.09.3.14.5.14.25,0,.47-.05.66-.14s.37-.23.54-.42v-.87Z"/>
      <path d="M206.05,92.22s-.07.08-.11.11c-.04.03-.09.04-.15.04s-.12-.02-.19-.06c-.06-.04-.13-.08-.21-.13s-.18-.09-.3-.13c-.12-.04-.26-.06-.43-.06-.22,0-.41.04-.57.12-.16.08-.3.19-.41.34-.11.15-.19.32-.24.53-.05.21-.08.44-.08.71s.03.52.09.73c.06.21.14.39.25.54.11.15.24.25.4.33s.33.11.53.11.36-.02.48-.07c.12-.05.22-.1.31-.16.08-.06.16-.11.22-.16.06-.05.13-.07.21-.07.1,0,.17.04.23.12l.35.45c-.14.16-.29.29-.45.4-.16.11-.33.19-.5.26-.17.07-.35.11-.53.14-.18.03-.36.04-.54.04-.32,0-.62-.06-.9-.18s-.52-.29-.73-.52-.38-.5-.5-.83c-.12-.33-.18-.7-.18-1.12,0-.38.05-.73.16-1.05.11-.32.27-.6.48-.84s.47-.42.78-.55.67-.2,1.07-.2.72.06,1.01.19c.29.12.55.3.78.53l-.32.45Z"/>
      <path d="M209.38,91.05c.38,0,.73.06,1.04.19.31.12.58.3.8.52s.39.5.51.83c.12.33.18.69.18,1.09s-.06.77-.18,1.1c-.12.33-.29.6-.51.83-.22.23-.49.41-.8.53-.31.12-.66.19-1.04.19s-.73-.06-1.04-.19c-.31-.12-.58-.3-.8-.53-.22-.23-.39-.51-.52-.83-.12-.33-.18-.69-.18-1.1s.06-.77.18-1.09c.12-.33.29-.6.52-.83.22-.23.49-.4.8-.52.31-.12.66-.19,1.04-.19ZM209.38,95.39c.43,0,.74-.14.95-.43.2-.29.31-.71.31-1.26s-.1-.97-.31-1.26c-.21-.29-.52-.44-.95-.44s-.75.15-.96.44c-.21.29-.31.71-.31,1.26s.1.97.31,1.26.53.43.96.43Z"/>
      <path d="M216.53,92.22s-.07.08-.11.11c-.04.03-.09.04-.15.04-.06,0-.12-.02-.18-.06-.06-.04-.13-.08-.21-.13-.08-.05-.18-.09-.3-.13-.12-.04-.26-.06-.43-.06-.22,0-.41.04-.57.12-.16.08-.3.19-.41.34-.11.15-.19.32-.24.53-.05.21-.08.44-.08.71s.03.52.09.73c.06.21.14.39.25.54.11.15.24.25.4.33.16.08.33.11.53.11s.36-.02.48-.07c.12-.05.22-.1.31-.16.08-.06.16-.11.22-.16.06-.05.13-.07.21-.07.1,0,.17.04.22.12l.36.45c-.14.16-.29.29-.45.4s-.33.19-.5.26c-.17.07-.35.11-.53.14-.18.03-.36.04-.54.04-.32,0-.62-.06-.89-.18-.28-.12-.53-.29-.74-.52s-.38-.5-.5-.83c-.12-.33-.18-.7-.18-1.12,0-.38.05-.73.16-1.05.11-.32.27-.6.48-.84s.47-.42.78-.55c.31-.13.67-.2,1.07-.2s.72.06,1.01.19c.29.12.55.3.78.53l-.32.45Z"/>
      <path d="M219.12,89.64c0,.11-.02.21-.07.3-.04.09-.1.18-.17.25-.07.07-.16.13-.25.17-.1.04-.2.06-.31.06s-.21-.02-.3-.06c-.1-.04-.18-.1-.25-.17-.07-.07-.13-.15-.17-.25-.04-.09-.06-.19-.06-.3s.02-.21.06-.31c.04-.1.1-.18.17-.25.07-.07.15-.13.25-.17.09-.04.2-.06.3-.06s.21.02.31.06c.1.04.18.1.25.17.07.07.13.15.17.25s.07.2.07.31ZM218.95,91.13v5.13h-1.24v-5.13h1.24Z"/>
      <path d="M221.37,91.76c.1-.1.21-.2.33-.29s.24-.16.37-.23c.13-.06.27-.11.41-.15.15-.03.31-.05.48-.05.28,0,.53.05.75.14.22.09.4.23.54.4.15.17.25.38.33.61s.11.5.11.79v3.26h-1.23v-3.26c0-.31-.07-.56-.22-.73-.14-.17-.36-.26-.65-.26-.21,0-.41.05-.6.15-.19.1-.36.23-.53.4v3.71h-1.24v-5.13h.75c.16,0,.26.07.32.23l.08.4Z"/>
      <path d="M226.8,93.85c.02.26.07.49.14.68s.17.35.29.47.26.22.43.28.35.09.55.09.37-.02.52-.07c.15-.05.27-.1.38-.16.11-.06.2-.11.29-.15.08-.05.16-.07.24-.07.1,0,.18.04.23.12l.36.45c-.14.16-.29.29-.46.4-.17.11-.35.19-.53.26-.18.07-.37.11-.56.14-.19.03-.38.04-.56.04-.36,0-.69-.06-1-.18s-.57-.29-.8-.53c-.23-.23-.41-.52-.54-.86s-.2-.74-.2-1.19c0-.35.06-.68.17-.99.11-.31.28-.58.49-.81.21-.23.47-.41.78-.54s.65-.2,1.03-.2c.32,0,.62.05.9.15.27.1.51.25.71.45.2.2.35.44.46.73.11.29.17.62.17.99,0,.19-.02.31-.06.38-.04.07-.12.1-.23.1h-3.17ZM229.16,93.11c0-.16-.02-.31-.07-.45s-.11-.27-.2-.37c-.09-.11-.2-.19-.34-.25s-.3-.09-.48-.09c-.36,0-.64.1-.84.31-.21.2-.34.49-.39.86h2.33ZM229.8,88.95l-1.24,1.31c-.06.07-.12.11-.18.14-.06.03-.13.04-.23.04h-.74l.71-1.21c.05-.09.11-.15.18-.2.07-.04.17-.07.3-.07h1.2Z"/>
      <path d="M236.32,96.26h-1.24v-4.21h-2.38v2.78c0,.16.04.29.12.38s.19.13.32.13c.08,0,.14,0,.19-.03.05-.02.1-.04.13-.06.04-.02.07-.04.1-.06.03-.02.06-.03.09-.03.04,0,.07,0,.09.03s.05.05.08.08l.37.6c-.18.15-.39.26-.62.34-.23.08-.48.12-.73.12-.45,0-.79-.13-1.03-.38-.24-.25-.36-.6-.36-1.04v-2.87h-.52c-.07,0-.12-.02-.17-.06-.05-.04-.07-.11-.07-.19v-.49l.83-.14.26-1.4c.02-.07.05-.12.09-.15s.11-.06.18-.06h.64v1.62h3.62v5.08ZM236.53,89.62c0,.11-.02.21-.07.3-.04.09-.1.18-.17.25-.07.07-.16.13-.26.17-.1.04-.2.06-.31.06s-.21-.02-.3-.06c-.09-.04-.17-.1-.25-.17-.07-.07-.13-.15-.17-.25-.04-.1-.06-.2-.06-.3s.02-.21.06-.31c.04-.09.1-.18.17-.25.07-.07.15-.13.25-.17.09-.04.19-.06.3-.06s.21.02.31.06c.1.04.18.1.26.17.07.07.13.16.17.25.04.1.07.2.07.31Z"/>
      <path d="M241.25,92.22s-.07.08-.11.11c-.04.03-.09.04-.15.04-.06,0-.12-.02-.18-.06-.06-.04-.13-.08-.21-.13-.08-.05-.18-.09-.3-.13-.12-.04-.26-.06-.43-.06-.22,0-.41.04-.57.12-.16.08-.3.19-.41.34-.11.15-.19.32-.24.53-.05.21-.08.44-.08.71s.03.52.09.73c.06.21.14.39.25.54.11.15.24.25.4.33.16.08.33.11.53.11s.36-.02.48-.07c.12-.05.22-.1.31-.16.08-.06.16-.11.22-.16.06-.05.13-.07.21-.07.1,0,.17.04.22.12l.36.45c-.14.16-.29.29-.45.4s-.33.19-.5.26c-.17.07-.35.11-.53.14-.18.03-.36.04-.54.04-.32,0-.62-.06-.89-.18-.28-.12-.53-.29-.74-.52s-.38-.5-.5-.83c-.12-.33-.18-.7-.18-1.12,0-.38.05-.73.16-1.05.11-.32.27-.6.48-.84s.47-.42.78-.55c.31-.13.67-.2,1.07-.2s.72.06,1.01.19c.29.12.55.3.78.53l-.32.45Z"/>
      <path d="M242.28,91.85c.59-.54,1.3-.81,2.13-.81.3,0,.57.05.8.15.24.1.44.24.6.41.16.17.29.38.37.63s.13.51.13.8v3.24h-.56c-.12,0-.21-.02-.27-.05-.06-.04-.11-.11-.15-.21l-.11-.37c-.13.12-.26.22-.38.31-.12.09-.25.16-.38.22-.13.06-.28.11-.43.14-.15.03-.32.05-.5.05-.22,0-.42-.03-.6-.09-.18-.06-.34-.15-.47-.26-.13-.12-.24-.26-.31-.44-.07-.17-.11-.38-.11-.6,0-.13.02-.26.06-.39.04-.13.11-.25.21-.37.1-.12.23-.23.38-.33.16-.1.35-.19.58-.27.23-.08.49-.14.8-.19.3-.05.65-.08,1.04-.09v-.3c0-.34-.07-.6-.22-.76-.15-.16-.36-.25-.63-.25-.2,0-.37.02-.5.07-.13.05-.25.1-.35.16-.1.06-.19.11-.27.16-.08.05-.17.07-.27.07-.09,0-.16-.02-.22-.07-.06-.04-.11-.1-.14-.16l-.22-.4ZM245.11,94.07c-.36.02-.66.05-.9.09s-.44.1-.58.17c-.15.07-.25.15-.32.25-.06.09-.09.19-.09.3,0,.22.06.37.19.46.13.09.3.14.5.14.25,0,.47-.05.66-.14.18-.09.37-.23.54-.42v-.87Z"/>
    </g>
    <g>
      <path d="M36.23,148.87v.65h-3.25v-5.73h.77v5.08h2.48Z"/>
      <path d="M38.33,145.41c.3,0,.56.05.8.15s.44.24.61.42.3.4.39.66c.09.26.13.54.13.86s-.04.61-.13.86-.22.47-.39.66-.37.32-.61.42c-.24.1-.5.15-.8.15s-.57-.05-.81-.15c-.24-.1-.44-.24-.61-.42s-.3-.4-.39-.66c-.09-.26-.13-.54-.13-.86s.04-.6.13-.86c.09-.26.22-.48.39-.66s.37-.32.61-.42c.24-.1.51-.15.81-.15ZM38.33,149.02c.4,0,.7-.13.9-.4.2-.27.3-.64.3-1.12s-.1-.86-.3-1.13c-.2-.27-.5-.4-.9-.4-.2,0-.38.03-.53.1-.15.07-.28.17-.38.3-.1.13-.17.29-.22.48s-.07.41-.07.65c0,.48.1.85.3,1.12.2.27.5.4.91.4Z"/>
      <path d="M43.98,146.19s-.04.05-.06.07c-.02.02-.05.02-.09.02-.04,0-.08-.02-.13-.05-.05-.03-.11-.07-.18-.11s-.16-.08-.26-.11c-.1-.03-.23-.05-.38-.05-.2,0-.38.04-.53.11-.15.07-.28.17-.38.31-.1.13-.18.29-.23.48-.05.19-.08.4-.08.64,0,.25.03.46.08.65s.14.35.24.48c.1.13.23.23.37.3.15.07.31.1.49.1s.32-.02.43-.06c.11-.04.21-.09.28-.14s.13-.1.18-.14.1-.06.15-.06c.06,0,.1.02.14.07l.2.26c-.09.11-.19.2-.3.28-.11.08-.23.14-.36.19-.13.05-.26.09-.41.11-.14.02-.29.04-.43.04-.25,0-.49-.05-.71-.14s-.41-.23-.57-.41c-.16-.18-.29-.4-.38-.65-.09-.26-.14-.55-.14-.88,0-.3.04-.58.13-.84s.21-.48.37-.66c.16-.18.36-.33.6-.43.24-.1.51-.16.81-.16.29,0,.54.05.75.14.22.09.41.22.58.39l-.19.26Z"/>
      <path d="M44.87,146.04c.22-.22.47-.38.72-.48.26-.11.55-.16.86-.16.23,0,.43.04.6.11.18.08.32.18.44.31.12.13.21.29.27.48.06.19.09.4.09.62v2.59h-.32c-.07,0-.12-.01-.16-.03-.04-.02-.07-.07-.09-.13l-.08-.38c-.11.1-.21.19-.31.26-.1.08-.21.14-.32.19-.11.05-.23.09-.36.12-.13.03-.27.04-.42.04s-.31-.02-.44-.07-.26-.11-.36-.2c-.1-.09-.18-.2-.24-.33s-.09-.29-.09-.48c0-.16.04-.31.13-.46.09-.15.23-.28.43-.39.2-.11.45-.21.77-.28.32-.07.71-.12,1.17-.13v-.32c0-.31-.07-.55-.2-.71-.14-.16-.33-.24-.6-.24-.18,0-.32.02-.44.07s-.22.09-.31.15-.16.1-.22.15c-.06.04-.12.07-.19.07-.05,0-.09-.01-.12-.04s-.06-.06-.09-.09l-.13-.23ZM47.17,147.7c-.33.01-.61.04-.84.08-.23.04-.42.1-.56.16s-.25.15-.32.24-.1.19-.1.3c0,.11.02.2.05.28.03.08.08.14.14.19.06.05.13.09.21.11.08.02.17.03.26.03.13,0,.24-.01.34-.04s.2-.06.29-.11.18-.11.26-.17.17-.14.25-.23v-.84Z"/>
      <path d="M49.69,143.63v5.89h-.71v-5.89h.71Z"/>
      <path d="M56.24,143.63v5.89h-.42c-.1,0-.17-.05-.19-.15l-.06-.49c-.17.21-.37.38-.59.5s-.48.19-.77.19c-.23,0-.44-.04-.63-.13-.19-.09-.35-.22-.48-.39-.13-.17-.24-.39-.31-.65-.07-.26-.11-.56-.11-.89,0-.3.04-.58.12-.83.08-.26.19-.48.34-.67s.33-.34.55-.45.46-.16.73-.16c.25,0,.46.04.64.13s.34.2.47.35v-2.24h.71ZM55.53,146.43c-.13-.18-.28-.3-.43-.37s-.33-.11-.52-.11c-.38,0-.67.13-.87.4s-.3.65-.3,1.15c0,.26.02.49.07.68.05.19.11.34.2.46.09.12.2.21.32.27.13.06.27.08.44.08.23,0,.44-.05.61-.16.17-.11.33-.26.48-.45v-1.96Z"/>
      <path d="M60.66,148.95c-.09.11-.19.2-.32.28-.12.08-.25.14-.39.19s-.28.09-.43.11c-.15.03-.3.04-.44.04-.28,0-.54-.05-.77-.14-.24-.09-.44-.23-.61-.42s-.31-.41-.4-.68c-.1-.27-.14-.58-.14-.93,0-.28.04-.55.13-.79.09-.25.21-.46.37-.64s.36-.32.6-.42c.23-.1.5-.15.79-.15.24,0,.47.04.67.12s.39.2.54.35c.15.15.27.34.35.57.09.23.13.48.13.77,0,.11-.01.19-.04.22s-.07.06-.14.06h-2.71c0,.26.04.48.11.67.06.19.15.35.26.47.11.13.25.22.4.28.15.06.33.09.52.09.18,0,.33-.02.46-.06.13-.04.24-.09.33-.13s.17-.09.23-.13.12-.06.16-.06c.06,0,.1.02.14.07l.2.26ZM60.08,147.05c0-.17-.02-.32-.07-.45-.05-.14-.11-.26-.2-.36-.09-.1-.2-.18-.33-.23-.13-.05-.27-.08-.44-.08-.34,0-.61.1-.81.3-.2.2-.32.47-.37.83h2.22Z"/>
      <path d="M63.54,146.04c.22-.22.47-.38.72-.48.26-.11.55-.16.86-.16.23,0,.43.04.6.11.18.08.32.18.44.31.12.13.21.29.27.48.06.19.09.4.09.62v2.59h-.32c-.07,0-.12-.01-.16-.03-.04-.02-.07-.07-.09-.13l-.08-.38c-.11.1-.21.19-.31.26-.1.08-.21.14-.32.19-.11.05-.23.09-.36.12-.13.03-.27.04-.42.04s-.31-.02-.44-.07-.26-.11-.36-.2c-.1-.09-.18-.2-.24-.33s-.09-.29-.09-.48c0-.16.04-.31.13-.46.09-.15.23-.28.43-.39.2-.11.45-.21.77-.28.32-.07.71-.12,1.17-.13v-.32c0-.31-.07-.55-.2-.71-.14-.16-.33-.24-.6-.24-.18,0-.32.02-.44.07s-.22.09-.31.15-.16.1-.22.15c-.06.04-.12.07-.19.07-.05,0-.09-.01-.12-.04s-.06-.06-.09-.09l-.13-.23ZM65.84,147.7c-.33.01-.61.04-.84.08-.23.04-.42.1-.56.16s-.25.15-.32.24-.1.19-.1.3c0,.11.02.2.05.28.03.08.08.14.14.19.06.05.13.09.21.11.08.02.17.03.26.03.13,0,.24-.01.34-.04s.2-.06.29-.11.18-.11.26-.17.17-.14.25-.23v-.84Z"/>
      <path d="M70.67,148.95c-.15.19-.34.33-.56.43s-.46.16-.71.18l-.07.26c.25.05.43.12.54.22.11.09.16.21.16.36,0,.08-.02.16-.06.23s-.1.13-.18.18c-.08.05-.17.08-.27.11-.1.03-.22.04-.35.04-.11,0-.21-.01-.31-.03-.1-.02-.19-.05-.27-.09l.06-.22s.05-.07.09-.07c.02,0,.03,0,.06.01.02,0,.05.02.08.03.03.01.07.02.11.03.04,0,.09.01.15.01.11,0,.2-.02.25-.07.06-.05.08-.1.08-.17,0-.1-.06-.17-.17-.21-.11-.04-.27-.08-.47-.1l.16-.5c-.23-.02-.45-.08-.64-.19-.2-.1-.37-.24-.51-.42-.14-.18-.25-.39-.33-.64-.08-.25-.12-.52-.12-.83s.04-.58.13-.84.21-.48.37-.66c.16-.18.36-.33.6-.43.24-.1.51-.16.81-.16.29,0,.54.05.75.14.22.09.41.22.58.39l-.19.26s-.04.05-.06.07c-.02.02-.05.02-.09.02-.04,0-.08-.02-.13-.05-.05-.03-.11-.07-.18-.11s-.16-.08-.26-.11c-.1-.03-.23-.05-.38-.05-.2,0-.38.04-.53.11-.15.07-.28.17-.38.31-.1.13-.18.29-.23.48-.05.19-.08.4-.08.64,0,.25.03.46.08.65s.14.35.24.48c.1.13.23.23.37.3.15.07.31.1.49.1s.32-.02.43-.06c.11-.04.21-.09.28-.14s.13-.1.18-.14.1-.06.15-.06c.06,0,.1.02.14.07l.2.26Z"/>
      <path d="M71.34,146.04c.22-.22.47-.38.72-.48.26-.11.55-.16.86-.16.23,0,.43.04.6.11.18.08.32.18.44.31.12.13.21.29.27.48.06.19.09.4.09.62v2.59h-.32c-.07,0-.12-.01-.16-.03-.04-.02-.07-.07-.09-.13l-.08-.38c-.11.1-.21.19-.31.26-.1.08-.21.14-.32.19-.11.05-.23.09-.36.12-.13.03-.27.04-.42.04s-.31-.02-.44-.07-.26-.11-.36-.2c-.1-.09-.18-.2-.24-.33s-.09-.29-.09-.48c0-.16.04-.31.13-.46.09-.15.23-.28.43-.39.2-.11.45-.21.77-.28.32-.07.71-.12,1.17-.13v-.32c0-.31-.07-.55-.2-.71-.14-.16-.33-.24-.6-.24-.18,0-.32.02-.44.07s-.22.09-.31.15-.16.1-.22.15c-.06.04-.12.07-.19.07-.05,0-.09-.01-.12-.04s-.06-.06-.09-.09l-.13-.23ZM73.27,144.22c.1,0,.17-.03.22-.08.05-.06.08-.14.08-.26h.43c0,.13-.02.24-.05.35s-.08.2-.14.27c-.06.08-.14.13-.22.17-.09.04-.18.06-.29.06-.09,0-.18-.02-.26-.06-.08-.04-.16-.08-.23-.13-.07-.04-.14-.09-.2-.13-.06-.04-.13-.06-.19-.06-.19,0-.29.12-.3.35h-.44c0-.13.02-.24.05-.35s.08-.2.15-.27c.06-.08.14-.13.23-.18.09-.04.18-.06.29-.06.09,0,.18.02.26.06.08.04.16.08.23.13.07.05.14.09.2.13.06.04.12.06.19.06ZM73.64,147.7c-.33.01-.61.04-.84.08-.23.04-.42.1-.56.16s-.25.15-.32.24-.1.19-.1.3c0,.11.02.2.05.28.03.08.08.14.14.19.06.05.13.09.21.11.08.02.17.03.26.03.13,0,.24-.01.34-.04s.2-.06.29-.11.18-.11.26-.17.17-.14.25-.23v-.84Z"/>
      <path d="M77.12,145.41c.3,0,.56.05.8.15s.44.24.61.42.3.4.39.66c.09.26.13.54.13.86s-.04.61-.13.86-.22.47-.39.66-.37.32-.61.42c-.24.1-.5.15-.8.15s-.57-.05-.81-.15c-.24-.1-.44-.24-.61-.42s-.3-.4-.39-.66c-.09-.26-.13-.54-.13-.86s.04-.6.13-.86c.09-.26.22-.48.39-.66s.37-.32.61-.42c.24-.1.51-.15.81-.15ZM77.12,149.02c.4,0,.7-.13.9-.4.2-.27.3-.64.3-1.12s-.1-.86-.3-1.13c-.2-.27-.5-.4-.9-.4-.2,0-.38.03-.53.1-.15.07-.28.17-.38.3-.1.13-.17.29-.22.48s-.07.41-.07.65c0,.48.1.85.3,1.12.2.27.5.4.91.4Z"/>
      <path d="M27.81,155.39v5.73h-.68v-4.21c0-.06,0-.12,0-.18,0-.06,0-.13.01-.2l-1.97,3.58c-.06.12-.15.18-.28.18h-.11c-.12,0-.22-.06-.28-.18l-2.01-3.6c.02.14.02.27.02.39v4.21h-.68v-5.73h.57c.07,0,.12,0,.16.02.04.01.07.05.11.11l1.98,3.53c.03.06.06.13.09.2s.06.14.09.21c.03-.07.05-.14.08-.21s.06-.14.1-.2l1.94-3.52c.03-.06.07-.1.11-.11s.09-.02.16-.02h.57Z"/>
      <path d="M32.27,160.55c-.09.11-.19.2-.32.28-.12.08-.25.14-.39.19s-.28.09-.43.11c-.15.03-.3.04-.44.04-.28,0-.54-.05-.77-.14-.24-.09-.44-.23-.61-.42s-.31-.41-.4-.68c-.1-.27-.14-.58-.14-.93,0-.28.04-.55.13-.79.09-.25.21-.46.37-.64s.36-.32.6-.42c.23-.1.5-.15.79-.15.24,0,.47.04.67.12s.39.2.54.35c.15.15.27.34.35.57.09.23.13.48.13.77,0,.11-.01.19-.04.22s-.07.06-.14.06h-2.71c0,.26.04.48.11.67.06.19.15.35.26.47.11.13.25.22.4.28.15.06.33.09.52.09.18,0,.33-.02.46-.06.13-.04.24-.09.33-.13s.17-.09.23-.13.12-.06.16-.06c.06,0,.1.02.14.07l.2.26ZM31.7,158.65c0-.17-.02-.32-.07-.45-.05-.14-.11-.26-.2-.36-.09-.1-.2-.18-.33-.23-.13-.05-.27-.08-.44-.08-.34,0-.61.1-.81.3-.2.2-.32.47-.37.83h2.22Z"/>
      <path d="M36.03,157.79s-.04.05-.06.07c-.02.02-.05.02-.09.02-.04,0-.08-.02-.13-.05-.05-.03-.11-.07-.18-.11s-.16-.08-.26-.11c-.1-.03-.23-.05-.38-.05-.2,0-.38.04-.53.11-.15.07-.28.17-.38.31-.1.13-.18.29-.23.48-.05.19-.08.4-.08.64,0,.25.03.46.08.65s.14.35.24.48c.1.13.23.23.37.3.15.07.31.1.49.1s.32-.02.43-.06c.11-.04.21-.09.28-.14s.13-.1.18-.14.1-.06.15-.06c.06,0,.1.02.14.07l.2.26c-.09.11-.19.2-.3.28-.11.08-.23.14-.36.19-.13.05-.26.09-.41.11-.14.02-.29.04-.43.04-.25,0-.49-.05-.71-.14s-.41-.23-.57-.41c-.16-.18-.29-.4-.38-.65-.09-.26-.14-.55-.14-.88,0-.3.04-.58.13-.84s.21-.48.37-.66c.16-.18.36-.33.6-.43.24-.1.51-.16.81-.16.29,0,.54.05.75.14.22.09.41.22.58.39l-.19.26Z"/>
      <path d="M36.92,157.64c.22-.22.47-.38.72-.48.26-.11.55-.16.86-.16.23,0,.43.04.6.11.18.07.32.18.44.31.12.13.21.29.27.48.06.19.09.4.09.62v2.59h-.32c-.07,0-.12-.01-.16-.03-.04-.02-.07-.07-.09-.13l-.08-.38c-.11.1-.21.19-.31.26-.1.08-.21.14-.32.19-.11.05-.23.09-.36.12-.13.03-.27.04-.42.04s-.31-.02-.44-.07-.26-.11-.36-.2c-.1-.09-.18-.2-.24-.33s-.09-.29-.09-.48c0-.16.04-.31.13-.46.09-.15.23-.28.43-.39.2-.11.45-.21.77-.28.32-.07.71-.12,1.17-.13v-.32c0-.31-.07-.55-.2-.71-.14-.16-.33-.24-.6-.24-.18,0-.32.02-.44.07s-.22.09-.31.15-.16.1-.22.15c-.06.04-.12.07-.19.07-.05,0-.09-.01-.12-.04s-.06-.06-.09-.09l-.13-.23ZM39.22,159.3c-.33.01-.61.04-.84.08-.23.04-.42.1-.56.16s-.25.15-.32.24-.1.19-.1.3c0,.11.02.2.05.28.03.08.08.14.14.19.06.05.13.09.21.11.08.02.17.03.26.03.13,0,.24-.01.34-.04s.2-.06.29-.11.18-.11.26-.17.17-.14.25-.23v-.84Z"/>
      <path d="M41.68,157.66c.09-.1.18-.19.28-.27.1-.08.2-.15.31-.21.11-.06.23-.1.35-.13.12-.03.26-.05.4-.05.22,0,.42.04.59.11s.31.18.42.31c.11.13.2.3.26.49s.09.4.09.63v2.58h-.72v-2.58c0-.31-.07-.54-.21-.71-.14-.17-.35-.25-.64-.25-.21,0-.41.05-.59.15-.18.1-.35.24-.51.41v2.98h-.72v-4.05h.43c.1,0,.16.05.19.15l.06.44Z"/>
      <path d="M46.37,155.8c0,.07-.01.13-.04.19-.03.06-.06.11-.11.16s-.1.08-.16.11c-.06.03-.13.04-.2.04s-.13-.01-.19-.04c-.06-.03-.11-.06-.16-.11s-.08-.1-.11-.16c-.03-.06-.04-.12-.04-.19s.01-.13.04-.2c.03-.06.06-.12.11-.16.05-.05.1-.08.16-.11.06-.03.12-.04.19-.04s.14.01.2.04.12.06.16.11c.05.05.08.1.11.16.03.06.04.13.04.2ZM46.22,157.07v4.05h-.71v-4.05h.71Z"/>
      <path d="M49.75,157.74c-.03.06-.08.09-.15.09-.04,0-.09-.01-.14-.04-.05-.03-.11-.06-.19-.1-.07-.04-.16-.07-.26-.1-.1-.03-.22-.05-.36-.05-.12,0-.23.02-.32.05-.1.03-.18.07-.25.13-.07.05-.12.12-.16.19-.04.07-.05.15-.05.23,0,.1.03.19.09.26s.14.13.24.18.21.09.34.13c.13.04.25.08.39.12s.26.09.39.15c.13.05.24.12.34.2.1.08.18.18.24.29s.09.26.09.42c0,.19-.03.36-.1.52-.07.16-.17.3-.3.41-.13.12-.29.21-.48.27s-.41.1-.66.1c-.28,0-.54-.05-.77-.14s-.42-.21-.58-.35l.17-.27s.05-.06.08-.08c.03-.02.07-.03.11-.03.05,0,.1.02.15.06s.12.08.19.12c.08.04.17.09.28.12s.25.06.41.06c.14,0,.26-.02.36-.05s.19-.08.26-.15c.07-.06.12-.13.15-.21.03-.08.05-.17.05-.26,0-.11-.03-.2-.09-.28-.06-.07-.14-.14-.24-.19s-.21-.1-.34-.14c-.13-.04-.26-.08-.39-.12-.13-.04-.26-.09-.39-.15s-.24-.12-.34-.21c-.1-.08-.18-.18-.24-.31s-.09-.27-.09-.44c0-.15.03-.3.1-.45s.16-.27.28-.38c.12-.11.27-.19.45-.26.18-.06.38-.1.61-.1.27,0,.51.04.72.13.21.08.4.2.55.35l-.16.26Z"/>
      <path d="M50.85,161.12v-4.05h.43c.1,0,.16.05.19.15l.05.42c.15-.18.32-.33.5-.45.19-.12.4-.18.65-.18.27,0,.49.08.66.23.17.15.29.36.37.62.06-.15.13-.27.23-.38.09-.11.2-.19.31-.26.11-.07.24-.12.37-.15.13-.03.26-.05.39-.05.21,0,.4.03.57.1.17.07.31.17.42.3.12.13.2.29.27.48.06.19.09.41.09.65v2.58h-.72v-2.58c0-.32-.07-.56-.21-.72-.14-.16-.34-.25-.6-.25-.12,0-.23.02-.33.06-.11.04-.2.1-.28.18-.08.08-.14.18-.19.3-.05.12-.07.26-.07.42v2.58h-.72v-2.58c0-.33-.07-.57-.2-.73-.13-.16-.32-.24-.57-.24-.18,0-.34.05-.49.14s-.29.22-.41.39v3.02h-.72Z"/>
      <path d="M59.14,157.01c.3,0,.56.05.8.15s.44.24.61.42.3.4.39.66c.09.26.13.54.13.86s-.04.61-.13.86-.22.47-.39.66-.37.32-.61.42c-.24.1-.5.15-.8.15s-.57-.05-.81-.15c-.24-.1-.44-.24-.61-.42s-.3-.4-.39-.66c-.09-.26-.13-.54-.13-.86s.04-.6.13-.86c.09-.26.22-.48.39-.66s.37-.32.61-.42c.24-.1.51-.15.81-.15ZM59.14,160.62c.4,0,.7-.13.9-.4.2-.27.3-.64.3-1.12s-.1-.86-.3-1.13c-.2-.27-.5-.4-.9-.4-.2,0-.38.03-.53.1-.15.07-.28.17-.38.3-.1.13-.17.29-.22.48s-.07.41-.07.65c0,.48.1.85.3,1.12.2.27.5.4.91.4Z"/>
      <path d="M67.37,155.23v5.89h-.42c-.1,0-.17-.05-.19-.15l-.06-.49c-.17.21-.37.38-.59.5s-.48.19-.77.19c-.23,0-.44-.04-.63-.13-.19-.09-.35-.22-.48-.39-.13-.17-.24-.39-.31-.65-.07-.26-.11-.56-.11-.89,0-.3.04-.58.12-.83.08-.26.19-.48.34-.67s.33-.34.55-.45.46-.16.73-.16c.25,0,.46.04.64.13s.34.2.47.35v-2.24h.71ZM66.66,158.03c-.13-.18-.28-.3-.43-.37s-.33-.11-.52-.11c-.38,0-.67.13-.87.4s-.3.65-.3,1.15c0,.26.02.49.07.68.05.19.11.34.2.46.09.12.2.21.32.27.13.06.27.08.44.08.23,0,.44-.05.61-.16.17-.11.33-.26.48-.45v-1.96Z"/>
      <path d="M71.78,160.55c-.09.11-.19.2-.32.28-.12.08-.25.14-.39.19s-.28.09-.43.11c-.15.03-.3.04-.44.04-.28,0-.54-.05-.77-.14-.24-.09-.44-.23-.61-.42s-.31-.41-.4-.68c-.1-.27-.14-.58-.14-.93,0-.28.04-.55.13-.79.09-.25.21-.46.37-.64s.36-.32.6-.42c.23-.1.5-.15.79-.15.24,0,.47.04.67.12s.39.2.54.35c.15.15.27.34.35.57.09.23.13.48.13.77,0,.11-.01.19-.04.22s-.07.06-.14.06h-2.71c0,.26.04.48.11.67.06.19.15.35.26.47.11.13.25.22.4.28.15.06.33.09.52.09.18,0,.33-.02.46-.06.13-.04.24-.09.33-.13s.17-.09.23-.13.12-.06.16-.06c.06,0,.1.02.14.07l.2.26ZM71.21,158.65c0-.17-.02-.32-.07-.45-.05-.14-.11-.26-.2-.36-.09-.1-.2-.18-.33-.23-.13-.05-.27-.08-.44-.08-.34,0-.61.1-.81.3-.2.2-.32.47-.37.83h2.22Z"/>
      <path d="M74.66,157.64c.22-.22.47-.38.72-.48.26-.11.55-.16.86-.16.23,0,.43.04.6.11.18.07.32.18.44.31.12.13.21.29.27.48.06.19.09.4.09.62v2.59h-.32c-.07,0-.12-.01-.16-.03-.04-.02-.07-.07-.09-.13l-.08-.38c-.11.1-.21.19-.31.26-.1.08-.21.14-.32.19-.11.05-.23.09-.36.12-.13.03-.27.04-.42.04s-.31-.02-.44-.07-.26-.11-.36-.2c-.1-.09-.18-.2-.24-.33s-.09-.29-.09-.48c0-.16.04-.31.13-.46.09-.15.23-.28.43-.39.2-.11.45-.21.77-.28.32-.07.71-.12,1.17-.13v-.32c0-.31-.07-.55-.2-.71-.14-.16-.33-.24-.6-.24-.18,0-.32.02-.44.07s-.22.09-.31.15-.16.1-.22.15c-.06.04-.12.07-.19.07-.05,0-.09-.01-.12-.04s-.06-.06-.09-.09l-.13-.23ZM76.96,159.3c-.33.01-.61.04-.84.08-.23.04-.42.1-.56.16s-.25.15-.32.24-.1.19-.1.3c0,.11.02.2.05.28.03.08.08.14.14.19.06.05.13.09.21.11.08.02.17.03.26.03.13,0,.24-.01.34-.04s.2-.06.29-.11.18-.11.26-.17.17-.14.25-.23v-.84Z"/>
      <path d="M81.8,160.55c-.15.19-.34.33-.56.43s-.46.16-.71.18l-.07.26c.25.05.43.12.54.22.11.09.16.21.16.36,0,.08-.02.16-.06.23s-.1.13-.18.18c-.08.05-.17.08-.27.11-.1.03-.22.04-.35.04-.11,0-.21-.01-.31-.03-.1-.02-.19-.05-.27-.09l.06-.22s.05-.07.09-.07c.02,0,.03,0,.06.01.02,0,.05.02.08.03.03.01.07.02.11.03.04,0,.09.01.15.01.11,0,.2-.02.25-.07.06-.05.08-.1.08-.17,0-.1-.06-.17-.17-.21-.11-.04-.27-.08-.47-.1l.16-.5c-.23-.02-.45-.08-.64-.19-.2-.1-.37-.24-.51-.42-.14-.18-.25-.39-.33-.64-.08-.25-.12-.52-.12-.83s.04-.58.13-.84.21-.48.37-.66c.16-.18.36-.33.6-.43.24-.1.51-.16.81-.16.29,0,.54.05.75.14.22.09.41.22.58.39l-.19.26s-.04.05-.06.07c-.02.02-.05.02-.09.02-.04,0-.08-.02-.13-.05-.05-.03-.11-.07-.18-.11s-.16-.08-.26-.11c-.1-.03-.23-.05-.38-.05-.2,0-.38.04-.53.11-.15.07-.28.17-.38.31-.1.13-.18.29-.23.48-.05.19-.08.4-.08.64,0,.25.03.46.08.65s.14.35.24.48c.1.13.23.23.37.3.15.07.31.1.49.1s.32-.02.43-.06c.11-.04.21-.09.28-.14s.13-.1.18-.14.1-.06.15-.06c.06,0,.1.02.14.07l.2.26Z"/>
      <path d="M82.46,157.64c.22-.22.47-.38.72-.48.26-.11.55-.16.86-.16.23,0,.43.04.6.11.18.07.32.18.44.31.12.13.21.29.27.48.06.19.09.4.09.62v2.59h-.32c-.07,0-.12-.01-.16-.03-.04-.02-.07-.07-.09-.13l-.08-.38c-.11.1-.21.19-.31.26-.1.08-.21.14-.32.19-.11.05-.23.09-.36.12-.13.03-.27.04-.42.04s-.31-.02-.44-.07-.26-.11-.36-.2c-.1-.09-.18-.2-.24-.33s-.09-.29-.09-.48c0-.16.04-.31.13-.46.09-.15.23-.28.43-.39.2-.11.45-.21.77-.28.32-.07.71-.12,1.17-.13v-.32c0-.31-.07-.55-.2-.71-.14-.16-.33-.24-.6-.24-.18,0-.32.02-.44.07s-.22.09-.31.15-.16.1-.22.15c-.06.04-.12.07-.19.07-.05,0-.09-.01-.12-.04s-.06-.06-.09-.09l-.13-.23ZM84.4,155.82c.1,0,.17-.03.22-.08.05-.06.08-.14.08-.26h.43c0,.12-.02.24-.05.35s-.08.2-.14.27c-.06.08-.14.13-.22.17-.09.04-.18.06-.29.06-.09,0-.18-.02-.26-.06-.08-.04-.16-.08-.23-.13-.07-.05-.14-.09-.2-.13-.06-.04-.13-.06-.19-.06-.19,0-.29.12-.3.35h-.44c0-.13.02-.25.05-.35s.08-.2.15-.27.14-.13.23-.18c.09-.04.18-.06.29-.06.09,0,.18.02.26.06.08.04.16.08.23.13.07.05.14.09.2.13.06.04.12.06.19.06ZM84.76,159.3c-.33.01-.61.04-.84.08-.23.04-.42.1-.56.16s-.25.15-.32.24-.1.19-.1.3c0,.11.02.2.05.28.03.08.08.14.14.19.06.05.13.09.21.11.08.02.17.03.26.03.13,0,.24-.01.34-.04s.2-.06.29-.11.18-.11.26-.17.17-.14.25-.23v-.84Z"/>
      <path d="M88.25,157.01c.3,0,.56.05.8.15s.44.24.61.42.3.4.39.66c.09.26.13.54.13.86s-.04.61-.13.86-.22.47-.39.66-.37.32-.61.42c-.24.1-.5.15-.8.15s-.57-.05-.81-.15c-.24-.1-.44-.24-.61-.42s-.3-.4-.39-.66c-.09-.26-.13-.54-.13-.86s.04-.6.13-.86c.09-.26.22-.48.39-.66s.37-.32.61-.42c.24-.1.51-.15.81-.15ZM88.25,160.62c.4,0,.7-.13.9-.4.2-.27.3-.64.3-1.12s-.1-.86-.3-1.13c-.2-.27-.5-.4-.9-.4-.2,0-.38.03-.53.1-.15.07-.28.17-.38.3-.1.13-.17.29-.22.48s-.07.41-.07.65c0,.48.1.85.3,1.12.2.27.5.4.91.4Z"/>
      <path d="M49.76,172.09v.63h-3.54v-5.73h3.53v.63h-2.76v1.9h2.23v.61h-2.23v1.96h2.76Z"/>
      <path d="M50.77,172.72v-3.44l-.45-.05c-.06-.01-.1-.03-.14-.06-.04-.03-.05-.07-.05-.12v-.29h.64v-.39c0-.23.03-.44.1-.62.07-.18.16-.33.28-.46.12-.12.27-.22.44-.28.17-.06.36-.1.58-.1.18,0,.35.03.5.08l-.02.36c0,.06-.04.1-.11.1-.07,0-.15,0-.26,0-.12,0-.23.02-.33.05-.1.03-.19.08-.26.16-.07.07-.13.17-.17.28s-.06.26-.06.44v.37h1.17v.52h-1.14v3.46h-.72Z"/>
      <path d="M56.47,172.15c-.09.11-.19.2-.32.28-.12.08-.25.14-.39.19s-.28.09-.43.11c-.15.03-.3.04-.44.04-.28,0-.54-.05-.77-.14-.24-.09-.44-.23-.61-.42s-.31-.41-.4-.68c-.1-.27-.14-.58-.14-.93,0-.28.04-.55.13-.79.09-.25.21-.46.37-.64s.36-.32.6-.42c.23-.1.5-.15.79-.15.24,0,.47.04.67.12s.39.2.54.35c.15.15.27.34.35.57.09.23.13.48.13.77,0,.11-.01.19-.04.22s-.07.06-.14.06h-2.71c0,.26.04.48.11.67.06.19.15.35.26.47.11.13.25.22.4.28.15.06.33.09.52.09.18,0,.33-.02.46-.06.13-.04.24-.09.33-.13s.17-.09.23-.13.12-.06.16-.06c.06,0,.1.02.14.07l.2.26ZM55.89,170.25c0-.17-.02-.32-.07-.45-.05-.14-.11-.26-.2-.36-.09-.1-.2-.18-.33-.23-.13-.05-.27-.08-.44-.08-.34,0-.61.1-.81.3-.2.2-.32.47-.37.83h2.22Z"/>
      <path d="M58.31,167.4c0,.07-.01.13-.04.19-.03.06-.06.11-.11.16s-.1.08-.16.11c-.06.03-.13.04-.2.04s-.13-.01-.19-.04c-.06-.03-.11-.06-.16-.11s-.08-.1-.11-.16c-.03-.06-.04-.12-.04-.19s.01-.13.04-.2c.03-.06.06-.12.11-.16.05-.05.1-.08.16-.11.06-.03.12-.04.19-.04s.14.01.2.04.12.06.16.11c.05.05.08.1.11.16.03.06.04.13.04.2ZM58.15,168.67v4.05h-.71v-4.05h.71Z"/>
      <path d="M60.57,172.79c-.32,0-.57-.09-.74-.27-.17-.18-.26-.44-.26-.77v-2.48h-.49s-.08-.01-.11-.04-.04-.06-.04-.12v-.28l.66-.08.16-1.25s.03-.07.05-.1c.03-.03.06-.04.11-.04h.36v1.4h1.17v.52h-1.17v2.43c0,.17.04.3.12.38.08.08.19.12.32.12.07,0,.14-.01.19-.03.05-.02.1-.04.14-.07.04-.02.07-.05.1-.07.03-.02.05-.03.07-.03.04,0,.07.02.1.07l.21.34c-.12.11-.27.2-.44.27-.17.07-.35.1-.54.1Z"/>
      <path d="M63.88,168.61c.3,0,.56.05.8.15s.44.24.61.42.3.4.39.66c.09.26.13.54.13.86s-.04.61-.13.86-.22.47-.39.66-.37.32-.61.42c-.24.1-.5.15-.8.15s-.57-.05-.81-.15c-.24-.1-.44-.24-.61-.42s-.3-.4-.39-.66c-.09-.26-.13-.54-.13-.86s.04-.6.13-.86c.09-.26.22-.48.39-.66s.37-.32.61-.42c.24-.1.51-.15.81-.15ZM63.88,172.22c.4,0,.7-.13.9-.4.2-.27.3-.64.3-1.12s-.1-.86-.3-1.13c-.2-.27-.5-.4-.9-.4-.2,0-.38.03-.53.1-.15.07-.28.17-.38.3-.1.13-.17.29-.22.48s-.07.41-.07.65c0,.48.1.85.3,1.12.2.27.5.4.91.4Z"/>
    </g>
    <g>
      <path d="M199.61,149.52h-.6c-.07,0-.13-.02-.17-.05-.04-.04-.07-.08-.1-.13l-.54-1.38h-2.57l-.54,1.38s-.05.09-.09.13c-.05.04-.1.06-.17.06h-.6l2.29-5.73h.78l2.29,5.73ZM197.99,147.39l-.9-2.33c-.03-.07-.05-.15-.08-.24s-.06-.19-.08-.29c-.06.22-.11.4-.17.54l-.9,2.33h2.14Z"/>
      <path d="M200.89,146.05c.17-.2.36-.35.58-.47.21-.12.46-.18.74-.18.24,0,.45.04.64.14.19.09.35.22.49.39s.24.38.31.63c.07.25.11.52.11.83,0,.33-.04.63-.12.9-.08.27-.2.5-.35.69-.15.19-.33.34-.55.44-.22.1-.46.16-.73.16s-.49-.05-.67-.15c-.18-.1-.34-.24-.48-.43l-.04.37c-.02.1-.08.15-.18.15h-.46v-5.89h.72v2.42ZM200.89,148.55c.13.18.27.3.43.37.16.07.33.11.51.11.38,0,.67-.13.88-.4.2-.27.3-.67.3-1.2,0-.5-.09-.86-.27-1.09-.18-.23-.44-.35-.77-.35-.23,0-.43.05-.61.16-.17.11-.33.26-.48.45v1.96Z"/>
      <path d="M207.02,146.14c-.03.06-.08.09-.15.09-.04,0-.09-.01-.14-.04-.05-.03-.11-.06-.19-.1-.07-.04-.16-.07-.26-.1-.1-.03-.22-.05-.36-.05-.12,0-.23.02-.32.05-.1.03-.18.07-.25.13-.07.05-.12.12-.16.19-.04.07-.05.15-.05.23,0,.1.03.19.09.26s.14.13.24.18.21.09.34.13c.13.04.25.08.39.12s.26.09.39.15c.13.05.24.12.34.2.1.08.18.18.24.29s.09.26.09.42c0,.19-.03.36-.1.52-.07.16-.17.3-.3.41-.13.12-.29.21-.48.27s-.41.1-.66.1c-.28,0-.54-.05-.77-.14s-.42-.21-.58-.35l.17-.27s.05-.06.08-.08c.03-.02.07-.03.11-.03.05,0,.1.02.15.06s.12.08.19.12c.08.04.17.09.28.12s.25.06.41.06c.14,0,.26-.02.36-.05s.19-.08.26-.15c.07-.06.12-.13.15-.21.03-.08.05-.17.05-.26,0-.11-.03-.2-.09-.28-.06-.07-.14-.14-.24-.19s-.21-.1-.34-.14c-.13-.04-.26-.08-.39-.12-.13-.04-.26-.09-.39-.15s-.24-.12-.34-.21c-.1-.08-.18-.18-.24-.31s-.09-.27-.09-.44c0-.15.03-.3.1-.45s.16-.27.28-.38c.12-.11.27-.19.45-.26.18-.06.38-.1.61-.1.27,0,.51.04.72.13.21.08.4.2.55.35l-.16.26Z"/>
      <path d="M209.83,145.41c.3,0,.56.05.8.15s.44.24.61.42.3.4.39.66c.09.26.13.54.13.86s-.04.61-.13.86c-.09.26-.22.47-.39.66s-.37.32-.61.42c-.24.1-.5.15-.8.15s-.57-.05-.81-.15c-.24-.1-.44-.24-.61-.42s-.3-.4-.39-.66c-.09-.26-.13-.54-.13-.86s.04-.6.13-.86c.09-.26.22-.48.39-.66s.37-.32.61-.42c.24-.1.51-.15.81-.15ZM209.83,149.02c.4,0,.7-.13.9-.4.2-.27.3-.64.3-1.12s-.1-.86-.3-1.13c-.2-.27-.5-.4-.9-.4-.2,0-.38.03-.53.1-.15.07-.28.17-.38.3-.1.13-.17.29-.22.48s-.07.41-.07.65c0,.48.1.85.3,1.12.2.27.5.4.91.4Z"/>
      <path d="M213.33,146.28c.13-.28.29-.49.47-.65.19-.16.42-.23.68-.23.08,0,.17,0,.25.03.08.02.15.05.21.09l-.05.53c-.02.07-.06.1-.12.1-.04,0-.09,0-.16-.02-.07-.02-.15-.02-.24-.02-.13,0-.24.02-.34.06-.1.04-.19.09-.27.17-.08.07-.15.16-.21.27-.06.11-.12.23-.17.37v2.56h-.72v-4.05h.41c.08,0,.13.01.16.04s.05.08.06.15l.05.62Z"/>
      <path d="M218.46,148.95c-.15.19-.34.33-.56.43-.22.1-.46.16-.71.18l-.07.26c.25.05.43.12.54.22.11.09.16.21.16.36,0,.08-.02.16-.06.23-.04.07-.1.13-.18.18s-.17.08-.27.11c-.1.03-.22.04-.35.04-.11,0-.21-.01-.31-.03-.1-.02-.19-.05-.27-.09l.06-.22s.05-.07.09-.07c.02,0,.03,0,.06.01.02,0,.05.02.08.03.03.01.07.02.11.03.04,0,.09.01.15.01.11,0,.2-.02.25-.07.06-.05.08-.1.08-.17,0-.1-.06-.17-.17-.21-.11-.04-.27-.08-.47-.1l.16-.5c-.23-.02-.45-.08-.64-.19-.2-.1-.37-.24-.51-.42-.14-.18-.25-.39-.33-.64-.08-.25-.12-.52-.12-.83s.04-.58.13-.84.21-.48.37-.66c.16-.18.36-.33.6-.43.24-.1.51-.16.81-.16.29,0,.54.05.75.14.22.09.41.22.58.39l-.19.26s-.04.05-.06.07c-.02.02-.05.02-.09.02-.04,0-.08-.02-.13-.05-.05-.03-.11-.07-.18-.11-.07-.04-.16-.08-.26-.11s-.23-.05-.38-.05c-.2,0-.38.04-.53.11-.15.07-.28.17-.38.31-.1.13-.18.29-.23.48-.05.19-.08.4-.08.64,0,.25.03.46.08.65.06.19.13.35.24.48.1.13.23.23.37.3.15.07.31.1.49.1s.32-.02.43-.06c.11-.04.21-.09.28-.14s.13-.1.18-.14c.05-.04.1-.06.15-.06.06,0,.1.02.14.07l.2.26Z"/>
      <path d="M219.13,146.04c.22-.22.46-.38.72-.48.26-.11.55-.16.86-.16.23,0,.43.04.6.11.18.08.32.18.44.31.12.13.21.29.27.48.06.19.09.4.09.62v2.59h-.32c-.07,0-.12-.01-.16-.03s-.07-.07-.09-.13l-.08-.38c-.11.1-.21.19-.31.26-.1.08-.21.14-.32.19-.11.05-.23.09-.36.12-.13.03-.27.04-.42.04s-.3-.02-.44-.07-.26-.11-.36-.2-.18-.2-.24-.33c-.06-.13-.09-.29-.09-.48,0-.16.04-.31.13-.46.09-.15.23-.28.43-.39.2-.11.46-.21.77-.28.32-.07.71-.12,1.17-.13v-.32c0-.31-.07-.55-.2-.71-.14-.16-.33-.24-.6-.24-.18,0-.32.02-.44.07-.12.04-.22.09-.31.15-.09.05-.16.1-.22.15-.06.04-.12.07-.19.07-.05,0-.09-.01-.12-.04-.04-.03-.06-.06-.09-.09l-.13-.23ZM221.06,144.22c.1,0,.17-.03.22-.08.05-.06.08-.14.08-.26h.43c0,.13-.02.24-.05.35s-.08.2-.14.27c-.06.08-.14.13-.22.17-.09.04-.18.06-.29.06-.09,0-.18-.02-.26-.06-.08-.04-.16-.08-.23-.13-.07-.04-.14-.09-.2-.13-.06-.04-.13-.06-.19-.06-.19,0-.29.12-.3.35h-.44c0-.13.02-.24.05-.35.04-.11.08-.2.15-.27.06-.08.14-.13.23-.18.09-.04.18-.06.29-.06.09,0,.18.02.26.06.08.04.16.08.23.13.07.05.14.09.2.13.06.04.12.06.19.06ZM221.43,147.7c-.33.01-.61.04-.84.08s-.42.1-.56.16-.25.15-.32.24-.1.19-.1.3c0,.11.02.2.05.28.03.08.08.14.14.19.06.05.13.09.21.11s.17.03.26.03c.13,0,.24-.01.34-.04.1-.03.2-.06.29-.11s.18-.11.26-.17.17-.14.25-.23v-.84Z"/>
      <path d="M224.91,145.41c.3,0,.56.05.8.15s.44.24.61.42.3.4.39.66c.09.26.13.54.13.86s-.04.61-.13.86c-.09.26-.22.47-.39.66s-.37.32-.61.42c-.24.1-.5.15-.8.15s-.57-.05-.81-.15c-.24-.1-.44-.24-.61-.42s-.3-.4-.39-.66c-.09-.26-.13-.54-.13-.86s.04-.6.13-.86c.09-.26.22-.48.39-.66s.37-.32.61-.42c.24-.1.51-.15.81-.15ZM224.91,149.02c.4,0,.7-.13.9-.4.2-.27.3-.64.3-1.12s-.1-.86-.3-1.13c-.2-.27-.5-.4-.9-.4-.2,0-.38.03-.53.1s-.28.17-.38.3c-.1.13-.17.29-.22.48-.05.19-.07.41-.07.65,0,.48.1.85.3,1.12.2.27.5.4.91.4Z"/>
      <path d="M195.26,158.26c0,.43-.07.82-.2,1.17-.14.35-.33.65-.58.9s-.55.44-.89.58c-.35.14-.73.21-1.15.21h-2.14v-5.73h2.14c.42,0,.81.07,1.15.21.35.14.65.33.89.58s.44.55.58.91c.14.35.2.74.2,1.17ZM194.46,158.26c0-.35-.05-.67-.14-.94-.1-.28-.23-.51-.41-.7-.18-.19-.39-.34-.64-.44s-.53-.15-.84-.15h-1.36v4.48h1.36c.31,0,.59-.05.84-.15.25-.1.46-.25.64-.44.18-.19.31-.42.41-.7.1-.28.14-.59.14-.94Z"/>
      <path d="M197.03,155.8c0,.07-.01.13-.04.19-.03.06-.06.11-.11.16s-.1.08-.16.11c-.06.03-.13.04-.2.04s-.13-.01-.19-.04c-.06-.03-.11-.06-.16-.11s-.08-.1-.11-.16c-.03-.06-.04-.12-.04-.19s.01-.13.04-.2c.03-.06.06-.12.11-.16.05-.05.1-.08.16-.11.06-.03.12-.04.19-.04s.14.01.2.04.12.06.16.11c.05.05.08.1.11.16.03.06.04.13.04.2ZM196.87,157.07v4.05h-.71v-4.05h.71Z"/>
      <path d="M200.4,157.74c-.03.06-.08.09-.15.09-.04,0-.09-.01-.14-.04-.05-.03-.11-.06-.19-.1-.07-.04-.16-.07-.26-.1-.1-.03-.22-.05-.36-.05-.12,0-.23.02-.32.05-.1.03-.18.07-.25.13-.07.05-.12.12-.16.19-.04.07-.05.15-.05.23,0,.1.03.19.09.26s.14.13.24.18.21.09.34.13c.13.04.25.08.39.12s.26.09.39.15c.13.05.24.12.34.2.1.08.18.18.24.29s.09.26.09.42c0,.19-.03.36-.1.52-.07.16-.17.3-.3.41-.13.12-.29.21-.48.27s-.41.1-.66.1c-.28,0-.54-.05-.77-.14s-.42-.21-.58-.35l.17-.27s.05-.06.08-.08c.03-.02.07-.03.11-.03.05,0,.1.02.15.06s.12.08.19.12c.08.04.17.09.28.12s.25.06.41.06c.14,0,.26-.02.36-.05s.19-.08.26-.15c.07-.06.12-.13.15-.21.03-.08.05-.17.05-.26,0-.11-.03-.2-.09-.28-.06-.07-.14-.14-.24-.19s-.21-.1-.34-.14c-.13-.04-.26-.08-.39-.12-.13-.04-.26-.09-.39-.15s-.24-.12-.34-.21c-.1-.08-.18-.18-.24-.31s-.09-.27-.09-.44c0-.15.03-.3.1-.45s.16-.27.28-.38c.12-.11.27-.19.45-.26.18-.06.38-.1.61-.1.27,0,.51.04.72.13.21.08.4.2.55.35l-.16.26Z"/>
      <path d="M202.75,161.19c-.32,0-.57-.09-.74-.27-.17-.18-.26-.44-.26-.77v-2.48h-.49s-.08-.01-.11-.04-.04-.06-.04-.12v-.28l.66-.08.16-1.25s.03-.07.05-.1c.03-.03.06-.04.11-.04h.36v1.4h1.17v.52h-1.17v2.43c0,.17.04.3.12.38.08.08.19.12.32.12.07,0,.14-.01.19-.03.05-.02.1-.04.14-.07.04-.02.07-.05.1-.07.03-.02.05-.03.07-.03.04,0,.07.02.1.07l.21.34c-.12.11-.27.2-.44.27-.17.07-.35.1-.54.1Z"/>
      <path d="M205.05,157.88c.13-.28.29-.49.47-.65.19-.16.41-.23.68-.23.09,0,.17,0,.25.03s.15.05.21.09l-.05.53c-.02.07-.06.1-.12.1-.04,0-.09,0-.16-.02-.07-.02-.15-.02-.24-.02-.13,0-.24.02-.34.06-.1.04-.19.09-.27.17s-.15.16-.21.27c-.06.11-.12.23-.17.37v2.56h-.72v-4.05h.41c.08,0,.13.01.16.04s.05.08.06.15l.05.62Z"/>
      <path d="M208.19,155.8c0,.07-.01.13-.04.19-.03.06-.06.11-.11.16s-.1.08-.16.11c-.06.03-.13.04-.2.04s-.13-.01-.19-.04c-.06-.03-.11-.06-.16-.11s-.08-.1-.11-.16c-.03-.06-.04-.12-.04-.19s.01-.13.04-.2c.03-.06.06-.12.11-.16.05-.05.1-.08.16-.11.06-.03.12-.04.19-.04s.14.01.2.04.12.06.16.11c.05.05.08.1.11.16.03.06.04.13.04.2ZM208.04,157.07v4.05h-.71v-4.05h.71Z"/>
      <path d="M209.92,157.65c.17-.2.36-.35.58-.47.21-.12.46-.18.74-.18.24,0,.45.05.64.14.19.09.35.22.49.39.13.17.24.38.31.63.07.25.11.52.11.83,0,.33-.04.63-.12.9-.08.27-.2.5-.35.69s-.33.34-.55.44c-.22.1-.46.16-.73.16s-.49-.05-.67-.15c-.18-.1-.34-.24-.48-.43l-.04.37c-.02.1-.08.15-.18.15h-.46v-5.89h.72v2.42ZM209.92,160.15c.13.18.27.3.43.37.16.07.33.11.51.11.38,0,.67-.13.88-.4.2-.27.3-.67.3-1.2,0-.5-.09-.86-.27-1.09s-.44-.35-.77-.35c-.23,0-.43.05-.61.16s-.33.26-.48.45v1.96Z"/>
      <path d="M217.02,157.07v4.05h-.42c-.1,0-.17-.05-.19-.15l-.06-.44c-.18.19-.37.35-.59.47-.22.12-.47.18-.75.18-.22,0-.42-.04-.59-.11-.17-.07-.31-.18-.43-.31-.11-.13-.2-.29-.26-.48s-.09-.4-.09-.63v-2.58h.71v2.58c0,.31.07.54.21.71s.35.25.64.25c.21,0,.41-.05.59-.15.18-.1.35-.24.51-.41v-2.98h.71Z"/>
      <path d="M219.05,155.8c0,.07-.01.13-.04.19-.03.06-.06.11-.11.16s-.1.08-.16.11c-.06.03-.13.04-.2.04s-.13-.01-.19-.04c-.06-.03-.11-.06-.16-.11-.05-.05-.08-.1-.11-.16-.03-.06-.04-.12-.04-.19s.01-.13.04-.2c.03-.06.06-.12.11-.16.04-.05.1-.08.16-.11.06-.03.12-.04.19-.04s.14.01.2.04.12.06.16.11c.05.05.08.1.11.16.03.06.04.13.04.2ZM218.9,157.07v4.05h-.71v-4.05h.71Z"/>
      <path d="M223.12,160.55c-.15.19-.34.33-.56.43-.22.1-.46.16-.71.18l-.07.26c.25.05.43.12.54.22.11.09.16.21.16.36,0,.08-.02.16-.06.23-.04.07-.1.13-.18.18s-.17.08-.27.11c-.1.03-.22.04-.35.04-.11,0-.21-.01-.31-.03-.1-.02-.19-.05-.27-.09l.06-.22s.05-.07.09-.07c.02,0,.03,0,.06.01.02,0,.05.02.08.03.03.01.07.02.11.03.04,0,.09.01.15.01.11,0,.2-.02.25-.07.06-.05.08-.1.08-.17,0-.1-.06-.17-.17-.21-.11-.04-.27-.08-.47-.1l.16-.5c-.23-.02-.45-.08-.64-.19-.2-.1-.37-.24-.51-.42-.14-.18-.25-.39-.33-.64-.08-.25-.12-.52-.12-.83s.04-.58.13-.84.21-.48.37-.66c.16-.18.36-.33.6-.43.24-.1.51-.16.81-.16.29,0,.54.05.75.14.22.09.41.22.58.39l-.19.26s-.04.05-.06.07c-.02.02-.05.02-.09.02-.04,0-.08-.02-.13-.05-.05-.03-.11-.07-.18-.11-.07-.04-.16-.08-.26-.11s-.23-.05-.38-.05c-.2,0-.38.04-.53.11-.15.07-.28.17-.38.31-.1.13-.18.29-.23.48-.05.19-.08.4-.08.64,0,.25.03.46.08.65.06.19.13.35.24.48.1.13.23.23.37.3.15.07.31.1.49.1s.32-.02.43-.06c.11-.04.21-.09.28-.14s.13-.1.18-.14c.05-.04.1-.06.15-.06.06,0,.1.02.14.07l.2.26Z"/>
      <path d="M223.79,157.64c.22-.22.46-.38.72-.48s.55-.16.86-.16c.23,0,.43.04.6.11.18.07.32.18.44.31.12.13.21.29.27.48.06.19.09.4.09.62v2.59h-.32c-.07,0-.12-.01-.16-.03s-.07-.07-.09-.13l-.08-.38c-.11.1-.21.19-.31.26-.1.08-.21.14-.32.19-.11.05-.23.09-.36.12-.13.03-.27.04-.42.04s-.3-.02-.44-.07-.26-.11-.36-.2-.18-.2-.24-.33c-.06-.13-.09-.29-.09-.48,0-.16.04-.31.13-.46.09-.15.23-.28.43-.39.2-.11.46-.21.77-.28.32-.07.71-.12,1.17-.13v-.32c0-.31-.07-.55-.2-.71-.14-.16-.33-.24-.6-.24-.18,0-.32.02-.44.07-.12.04-.22.09-.31.15-.09.05-.16.1-.22.15-.06.04-.12.07-.19.07-.05,0-.09-.01-.12-.04-.04-.03-.06-.06-.09-.09l-.13-.23ZM225.72,155.82c.1,0,.17-.03.22-.08.05-.06.08-.14.08-.26h.43c0,.12-.02.24-.05.35s-.08.2-.14.27c-.06.08-.14.13-.22.17-.09.04-.18.06-.29.06-.09,0-.18-.02-.26-.06-.08-.04-.16-.08-.23-.13-.07-.05-.14-.09-.2-.13-.06-.04-.13-.06-.19-.06-.19,0-.29.12-.3.35h-.44c0-.13.02-.25.05-.35.04-.11.08-.2.15-.27.06-.08.14-.13.23-.18.09-.04.18-.06.29-.06.09,0,.18.02.26.06.08.04.16.08.23.13.07.05.14.09.2.13.06.04.12.06.19.06ZM226.09,159.3c-.33.01-.61.04-.84.08s-.42.1-.56.16-.25.15-.32.24-.1.19-.1.3c0,.11.02.2.05.28.03.08.08.14.14.19.06.05.13.09.21.11s.17.03.26.03c.13,0,.24-.01.34-.04.1-.03.2-.06.29-.11s.18-.11.26-.17.17-.14.25-.23v-.84Z"/>
      <path d="M229.57,157.01c.3,0,.56.05.8.15s.44.24.61.42.3.4.39.66c.09.26.13.54.13.86s-.04.61-.13.86c-.09.26-.22.47-.39.66s-.37.32-.61.42c-.24.1-.5.15-.8.15s-.57-.05-.81-.15c-.24-.1-.44-.24-.61-.42s-.3-.4-.39-.66c-.09-.26-.13-.54-.13-.86s.04-.6.13-.86c.09-.26.22-.48.39-.66s.37-.32.61-.42c.24-.1.51-.15.81-.15ZM229.57,160.62c.4,0,.7-.13.9-.4.2-.27.3-.64.3-1.12s-.1-.86-.3-1.13c-.2-.27-.5-.4-.9-.4-.2,0-.38.03-.53.1s-.28.17-.38.3c-.1.13-.17.29-.22.48-.05.19-.07.41-.07.65,0,.48.1.85.3,1.12.2.27.5.4.91.4Z"/>
      <path d="M182.2,166.99c.35,0,.66.04.91.1.25.07.46.17.63.3s.28.29.36.47c.08.19.12.39.12.63,0,.14-.02.28-.07.41-.04.13-.11.25-.2.36-.09.11-.2.21-.33.3-.13.09-.29.16-.47.22.42.08.74.23.95.45s.32.51.32.87c0,.24-.04.46-.13.66s-.22.37-.39.52c-.17.14-.38.26-.63.33-.25.08-.54.12-.86.12h-2.02v-5.73h1.83ZM181.15,167.6v1.96h1.02c.22,0,.41-.02.57-.07.16-.05.29-.11.4-.2.11-.09.18-.19.23-.31s.08-.25.08-.4c0-.34-.1-.59-.3-.74-.2-.16-.52-.23-.94-.23h-1.06ZM182.39,172.11c.22,0,.41-.03.57-.08.16-.05.29-.12.39-.21s.18-.2.23-.33c.05-.13.07-.27.07-.42,0-.3-.1-.53-.32-.7-.21-.17-.53-.26-.95-.26h-1.24v2h1.24Z"/>
      <path d="M186.2,167.4c0,.07-.01.13-.04.19-.03.06-.06.11-.11.16s-.1.08-.16.11c-.06.03-.13.04-.2.04s-.13-.01-.19-.04c-.06-.03-.11-.06-.16-.11s-.08-.1-.11-.16c-.03-.06-.04-.12-.04-.19s.01-.13.04-.2c.03-.06.06-.12.11-.16.05-.05.1-.08.16-.11.06-.03.12-.04.19-.04s.14.01.2.04.12.06.16.11c.05.05.08.1.11.16.03.06.04.13.04.2ZM186.05,168.67v4.05h-.71v-4.05h.71Z"/>
      <path d="M188.92,168.61c.3,0,.56.05.8.15s.44.24.61.42.3.4.39.66c.09.26.13.54.13.86s-.04.61-.13.86-.22.47-.39.66-.37.32-.61.42c-.24.1-.5.15-.8.15s-.57-.05-.81-.15c-.24-.1-.44-.24-.61-.42s-.3-.4-.39-.66c-.09-.26-.13-.54-.13-.86s.04-.6.13-.86c.09-.26.22-.48.39-.66s.37-.32.61-.42c.24-.1.51-.15.81-.15ZM188.92,172.22c.4,0,.7-.13.9-.4.2-.27.3-.64.3-1.12s-.1-.86-.3-1.13c-.2-.27-.5-.4-.9-.4-.2,0-.38.03-.53.1-.15.07-.28.17-.38.3-.1.13-.17.29-.22.48s-.07.41-.07.65c0,.48.1.85.3,1.12.2.27.5.4.91.4Z"/>
      <path d="M192.92,172.79c-.32,0-.57-.09-.74-.27-.17-.18-.26-.44-.26-.77v-2.48h-.49s-.08-.01-.11-.04-.04-.06-.04-.12v-.28l.66-.08.16-1.25s.03-.07.05-.1c.03-.03.06-.04.11-.04h.36v1.4h1.17v.52h-1.17v2.43c0,.17.04.3.12.38.08.08.19.12.32.12.07,0,.14-.01.19-.03.05-.02.1-.04.14-.07.04-.02.07-.05.1-.07.03-.02.05-.03.07-.03.04,0,.07.02.1.07l.21.34c-.12.11-.27.2-.44.27-.17.07-.35.1-.54.1Z"/>
      <path d="M195.23,169.48c.13-.28.29-.49.47-.65.19-.16.41-.23.68-.23.09,0,.17,0,.25.03s.15.05.21.09l-.05.53c-.02.07-.06.1-.12.1-.04,0-.09,0-.16-.02-.07-.02-.15-.02-.24-.02-.13,0-.24.02-.34.06-.1.04-.19.09-.27.17s-.15.16-.21.27c-.06.11-.12.23-.17.37v2.56h-.72v-4.05h.41c.08,0,.13.01.16.04s.05.08.06.15l.05.62Z"/>
      <path d="M197.29,169.24c.22-.22.47-.38.72-.48.26-.11.55-.16.86-.16.23,0,.43.04.6.11.18.07.32.18.44.31.12.13.21.29.27.48.06.19.09.4.09.62v2.59h-.32c-.07,0-.12-.01-.16-.03-.04-.02-.07-.07-.09-.13l-.08-.38c-.11.1-.21.19-.31.26-.1.08-.21.14-.32.19-.11.05-.23.09-.36.12-.13.03-.27.04-.42.04s-.31-.02-.44-.07-.26-.11-.36-.2c-.1-.09-.18-.2-.24-.33s-.09-.29-.09-.48c0-.16.04-.31.13-.46.09-.15.23-.28.43-.39.2-.11.45-.21.77-.28.32-.07.71-.12,1.17-.13v-.32c0-.31-.07-.55-.2-.71-.14-.16-.33-.24-.6-.24-.18,0-.32.02-.44.07s-.22.09-.31.15-.16.1-.22.15c-.06.04-.12.07-.19.07-.05,0-.09-.01-.12-.04s-.06-.06-.09-.09l-.13-.23ZM199.59,170.9c-.33.01-.61.04-.84.08-.23.04-.42.1-.56.16s-.25.15-.32.24-.1.19-.1.3c0,.11.02.2.05.28.03.08.08.14.14.19.06.05.13.09.21.11.08.02.17.03.26.03.13,0,.24-.01.34-.04s.2-.06.29-.11.18-.11.26-.17.17-.14.25-.23v-.84Z"/>
      <path d="M202.04,169.26c.09-.1.18-.19.28-.27.1-.08.2-.15.31-.21.11-.06.23-.1.35-.13.12-.03.26-.05.4-.05.22,0,.42.04.59.11s.31.18.42.31c.11.13.2.3.26.49s.09.4.09.63v2.58h-.72v-2.58c0-.31-.07-.54-.21-.71-.14-.17-.35-.25-.64-.25-.21,0-.41.05-.59.15-.18.1-.35.24-.51.41v2.98h-.72v-4.05h.43c.1,0,.16.05.19.15l.06.44Z"/>
      <path d="M208.2,169.34c-.03.06-.08.09-.15.09-.04,0-.09-.01-.14-.04-.05-.03-.11-.06-.19-.1-.07-.04-.16-.07-.26-.1-.1-.03-.22-.05-.36-.05-.12,0-.23.02-.32.05-.1.03-.18.07-.25.13-.07.05-.12.12-.16.19-.04.07-.05.15-.05.23,0,.1.03.19.09.26s.14.13.24.18.21.09.34.13c.13.04.25.08.39.12s.26.09.39.15c.13.05.24.12.34.2.1.08.18.18.24.29s.09.26.09.42c0,.19-.03.36-.1.52-.07.16-.17.3-.3.41-.13.12-.29.21-.48.27s-.41.1-.66.1c-.28,0-.54-.05-.77-.14s-.42-.21-.58-.35l.17-.27s.05-.06.08-.08c.03-.02.07-.03.11-.03.05,0,.1.02.15.06s.12.08.19.12c.08.04.17.09.28.12s.25.06.41.06c.14,0,.26-.02.36-.05s.19-.08.26-.15c.07-.06.12-.13.15-.21.03-.08.05-.17.05-.26,0-.11-.03-.2-.09-.28-.06-.07-.14-.14-.24-.19s-.21-.1-.34-.14c-.13-.04-.26-.08-.39-.12-.13-.04-.26-.09-.39-.15s-.24-.12-.34-.21c-.1-.08-.18-.18-.24-.31s-.09-.27-.09-.44c0-.15.03-.3.1-.45s.16-.27.28-.38c.12-.11.27-.19.45-.26.18-.06.38-.1.61-.1.27,0,.51.04.72.13.21.08.4.2.55.35l-.16.26Z"/>
      <path d="M209.56,172.72v-3.44l-.45-.05c-.06-.01-.1-.03-.14-.06-.04-.03-.05-.07-.05-.12v-.29h.64v-.39c0-.23.03-.44.1-.62.07-.18.16-.33.28-.46.12-.12.27-.22.44-.28.17-.06.36-.1.58-.1.18,0,.35.03.5.08l-.02.36c0,.06-.04.1-.11.1-.07,0-.15,0-.26,0-.12,0-.23.02-.33.05-.1.03-.19.08-.26.16s-.13.17-.17.28c-.04.12-.06.26-.06.44v.37h1.17v.52h-1.14v3.46h-.72Z"/>
      <path d="M213.68,168.61c.3,0,.56.05.8.15s.44.24.61.42.3.4.39.66c.09.26.13.54.13.86s-.04.61-.13.86c-.09.26-.22.47-.39.66s-.37.32-.61.42c-.24.1-.5.15-.8.15s-.57-.05-.81-.15c-.24-.1-.44-.24-.61-.42s-.3-.4-.39-.66-.13-.54-.13-.86.04-.6.13-.86c.09-.26.22-.48.39-.66s.37-.32.61-.42.51-.15.81-.15ZM213.68,172.22c.4,0,.7-.13.9-.4.2-.27.3-.64.3-1.12s-.1-.86-.3-1.13c-.2-.27-.5-.4-.9-.4-.2,0-.38.03-.53.1-.15.07-.28.17-.38.3-.1.13-.17.29-.22.48-.05.19-.07.41-.07.65,0,.48.1.85.3,1.12.2.27.5.4.91.4Z"/>
      <path d="M217.18,169.48c.13-.28.29-.49.47-.65.19-.16.41-.23.68-.23.09,0,.17,0,.25.03.08.02.15.05.21.09l-.05.53c-.02.07-.06.1-.12.1-.04,0-.09,0-.16-.02-.07-.02-.15-.02-.24-.02-.13,0-.24.02-.34.06s-.19.09-.27.17c-.08.07-.15.16-.21.27-.06.11-.12.23-.17.37v2.56h-.72v-4.05h.41c.08,0,.13.01.16.04s.05.08.06.15l.05.62Z"/>
      <path d="M219.42,172.72v-4.05h.43c.1,0,.16.05.19.15l.05.42c.15-.18.32-.33.5-.45.19-.12.4-.18.65-.18.27,0,.49.08.66.23.17.15.29.36.37.62.06-.15.13-.27.23-.38.09-.11.2-.19.31-.26.11-.07.24-.12.37-.15.13-.03.26-.05.39-.05.21,0,.4.03.57.1.17.07.31.17.42.3.12.13.2.29.27.48.06.19.09.41.09.65v2.58h-.72v-2.58c0-.32-.07-.56-.21-.72s-.34-.25-.6-.25c-.12,0-.23.02-.33.06-.11.04-.2.1-.28.18s-.14.18-.19.3c-.05.12-.07.26-.07.42v2.58h-.72v-2.58c0-.33-.07-.57-.2-.73-.13-.16-.32-.24-.57-.24-.18,0-.34.05-.49.14s-.29.22-.41.39v3.02h-.72Z"/>
      <path d="M225.9,169.24c.22-.22.47-.38.72-.48.26-.11.54-.16.86-.16.23,0,.43.04.6.11.18.07.32.18.44.31.12.13.21.29.27.48s.09.4.09.62v2.59h-.32c-.07,0-.12-.01-.16-.03-.04-.02-.07-.07-.09-.13l-.08-.38c-.11.1-.21.19-.31.26s-.21.14-.32.19c-.11.05-.23.09-.36.12-.13.03-.27.04-.42.04s-.31-.02-.44-.07-.26-.11-.36-.2c-.1-.09-.18-.2-.24-.33-.06-.13-.09-.29-.09-.48,0-.16.04-.31.13-.46.09-.15.23-.28.43-.39.2-.11.45-.21.77-.28.32-.07.71-.12,1.17-.13v-.32c0-.31-.07-.55-.2-.71-.14-.16-.33-.24-.6-.24-.18,0-.32.02-.44.07-.12.04-.22.09-.31.15-.09.05-.16.1-.22.15-.06.04-.12.07-.19.07-.05,0-.09-.01-.12-.04-.03-.03-.06-.06-.09-.09l-.13-.23ZM228.2,170.9c-.33.01-.61.04-.84.08-.23.04-.42.1-.56.16s-.25.15-.32.24-.1.19-.1.3c0,.11.02.2.05.28.04.08.08.14.14.19.06.05.13.09.21.11.08.02.17.03.26.03.12,0,.24-.01.34-.04.1-.03.2-.06.29-.11s.18-.11.26-.17.17-.14.25-.23v-.84Z"/>
      <path d="M233.03,172.15c-.15.19-.34.33-.56.43-.22.1-.46.16-.71.18l-.07.26c.25.05.43.12.54.22.11.09.16.21.16.36,0,.08-.02.16-.06.23-.04.07-.1.13-.18.18-.08.05-.17.08-.27.11s-.22.04-.35.04c-.11,0-.21-.01-.31-.03-.1-.02-.19-.05-.27-.09l.06-.22s.05-.07.09-.07c.02,0,.04,0,.06.01.02,0,.05.02.08.03.03.01.07.02.11.03.04,0,.09.01.15.01.11,0,.2-.02.25-.07.06-.05.08-.1.08-.17,0-.1-.06-.17-.17-.21-.11-.04-.27-.08-.47-.1l.16-.5c-.23-.02-.45-.08-.64-.19s-.37-.24-.51-.42c-.14-.18-.25-.39-.33-.64-.08-.25-.12-.52-.12-.83s.04-.58.13-.84.21-.48.37-.66c.16-.18.36-.33.6-.43.24-.1.51-.16.81-.16.29,0,.54.05.75.14.22.09.41.22.58.39l-.19.26s-.04.05-.06.07c-.02.02-.05.02-.09.02-.04,0-.08-.02-.13-.05s-.11-.07-.18-.11c-.07-.04-.16-.08-.26-.11-.1-.03-.23-.05-.38-.05-.2,0-.38.04-.53.11s-.28.17-.38.31c-.1.13-.18.29-.23.48s-.08.4-.08.64c0,.25.03.46.08.65.06.19.14.35.24.48.1.13.23.23.37.3.15.07.31.1.49.1s.32-.02.43-.06c.11-.04.21-.09.28-.14s.13-.1.18-.14c.05-.04.1-.06.15-.06.06,0,.1.02.14.07l.2.26Z"/>
      <path d="M233.7,169.24c.22-.22.46-.38.72-.48s.55-.16.86-.16c.23,0,.43.04.6.11.18.07.32.18.44.31.12.13.21.29.27.48.06.19.09.4.09.62v2.59h-.32c-.07,0-.12-.01-.16-.03s-.07-.07-.09-.13l-.08-.38c-.11.1-.21.19-.31.26-.1.08-.21.14-.32.19-.11.05-.23.09-.36.12-.13.03-.27.04-.42.04s-.3-.02-.44-.07-.26-.11-.36-.2-.18-.2-.24-.33c-.06-.13-.09-.29-.09-.48,0-.16.04-.31.13-.46.09-.15.23-.28.43-.39.2-.11.46-.21.77-.28.32-.07.71-.12,1.17-.13v-.32c0-.31-.07-.55-.2-.71-.14-.16-.33-.24-.6-.24-.18,0-.32.02-.44.07-.12.04-.22.09-.31.15-.09.05-.16.1-.22.15-.06.04-.12.07-.19.07-.05,0-.09-.01-.12-.04-.04-.03-.06-.06-.09-.09l-.13-.23ZM235.63,167.42c.1,0,.17-.03.22-.08.05-.06.08-.14.08-.26h.43c0,.12-.02.24-.05.35s-.08.2-.14.27c-.06.08-.14.13-.22.17-.09.04-.18.06-.29.06-.09,0-.18-.02-.26-.06-.08-.04-.16-.08-.23-.13-.07-.05-.14-.09-.2-.13-.06-.04-.13-.06-.19-.06-.19,0-.29.12-.3.35h-.44c0-.13.02-.25.05-.35.04-.11.08-.2.15-.27.06-.08.14-.13.23-.18.09-.04.18-.06.29-.06.09,0,.18.02.26.06.08.04.16.08.23.13.07.05.14.09.2.13.06.04.12.06.19.06ZM236,170.9c-.33.01-.61.04-.84.08s-.42.1-.56.16-.25.15-.32.24-.1.19-.1.3c0,.11.02.2.05.28.03.08.08.14.14.19.06.05.13.09.21.11s.17.03.26.03c.13,0,.24-.01.34-.04.1-.03.2-.06.29-.11s.18-.11.26-.17.17-.14.25-.23v-.84Z"/>
      <path d="M239.48,168.61c.3,0,.56.05.8.15s.44.24.61.42.3.4.39.66c.09.26.13.54.13.86s-.04.61-.13.86c-.09.26-.22.47-.39.66s-.37.32-.61.42c-.24.1-.5.15-.8.15s-.57-.05-.81-.15c-.24-.1-.44-.24-.61-.42s-.3-.4-.39-.66-.13-.54-.13-.86.04-.6.13-.86c.09-.26.22-.48.39-.66s.37-.32.61-.42.51-.15.81-.15ZM239.48,172.22c.4,0,.7-.13.9-.4.2-.27.3-.64.3-1.12s-.1-.86-.3-1.13c-.2-.27-.5-.4-.9-.4-.2,0-.38.03-.53.1-.15.07-.28.17-.38.3-.1.13-.17.29-.22.48-.05.19-.07.41-.07.65,0,.48.1.85.3,1.12.2.27.5.4.91.4Z"/>
      <path d="M199.19,183.69v.63h-3.54v-5.73h3.53v.63h-2.76v1.9h2.23v.61h-2.23v1.96h2.76Z"/>
      <path d="M203.43,184.32h-.68c-.06,0-.1-.02-.14-.05-.03-.03-.06-.06-.08-.1l-1.02-1.59s-.02.07-.03.11c-.01.04-.03.07-.05.1l-.94,1.38s-.06.07-.09.1-.07.05-.13.05h-.64l1.42-2.08-1.36-1.97h.68c.06,0,.1,0,.13.03.03.02.05.05.07.08l1,1.52c.02-.08.05-.15.1-.22l.87-1.28s.05-.07.08-.09c.03-.02.06-.03.1-.03h.66l-1.36,1.94,1.42,2.12Z"/>
      <path d="M206.73,180.99s-.04.05-.06.07c-.02.02-.05.02-.09.02-.04,0-.08-.02-.13-.05-.05-.03-.11-.07-.18-.11s-.16-.08-.26-.11c-.1-.03-.23-.05-.38-.05-.2,0-.38.04-.53.11-.15.07-.28.17-.38.31-.1.13-.18.29-.23.48-.05.19-.08.4-.08.64,0,.25.03.46.08.65s.14.35.24.48c.1.13.23.23.37.3.15.07.31.1.49.1s.32-.02.43-.06c.11-.04.21-.09.28-.14s.13-.1.18-.14.1-.06.15-.06c.06,0,.1.02.14.07l.2.26c-.09.11-.19.2-.3.28-.11.08-.23.14-.36.19-.13.05-.26.09-.41.11-.14.02-.29.04-.43.04-.25,0-.49-.05-.71-.14s-.41-.23-.57-.41c-.16-.18-.29-.4-.38-.65-.09-.26-.14-.55-.14-.88,0-.3.04-.58.13-.84s.21-.48.37-.66c.16-.18.36-.33.6-.43.24-.1.51-.16.81-.16.29,0,.54.05.75.14.22.09.41.22.58.39l-.19.26Z"/>
      <path d="M208.4,181.08c.13-.28.29-.49.47-.65.19-.16.41-.23.68-.23.09,0,.17,0,.25.03s.15.05.21.09l-.05.53c-.02.07-.06.1-.12.1-.04,0-.09,0-.16-.02-.07-.02-.15-.02-.24-.02-.13,0-.24.02-.34.06-.1.04-.19.09-.27.17s-.15.16-.21.27c-.06.11-.12.23-.17.37v2.56h-.72v-4.05h.41c.08,0,.13.01.16.04s.05.08.06.15l.05.62Z"/>
      <path d="M213.76,183.75c-.09.11-.19.2-.32.28-.12.08-.25.14-.39.19-.14.05-.28.09-.43.11-.15.03-.3.04-.44.04-.28,0-.54-.05-.77-.14-.24-.09-.44-.23-.61-.42s-.31-.41-.4-.68-.14-.58-.14-.93c0-.28.04-.55.13-.79.09-.25.21-.46.37-.64.16-.18.36-.32.6-.42s.5-.15.79-.15c.24,0,.47.04.67.12.21.08.39.2.54.35s.27.34.35.57c.08.23.13.48.13.77,0,.11-.01.19-.04.22-.02.04-.07.06-.14.06h-2.71c0,.26.04.48.11.67.06.19.15.35.26.47.11.13.25.22.4.28s.33.09.52.09c.18,0,.33-.02.46-.06.13-.04.24-.09.33-.13.09-.05.17-.09.23-.13s.12-.06.16-.06c.06,0,.1.02.14.07l.2.26ZM213.19,181.85c0-.17-.02-.32-.07-.45-.05-.14-.12-.26-.2-.36-.09-.1-.2-.18-.33-.23s-.27-.08-.44-.08c-.34,0-.61.1-.81.3s-.32.47-.37.83h2.22Z"/>
      <path d="M217.76,183.75c-.15.19-.34.33-.56.43-.22.1-.46.16-.71.18l-.07.26c.25.05.43.12.54.22.11.09.16.21.16.36,0,.08-.02.16-.06.23-.04.07-.1.13-.18.18s-.17.08-.27.11c-.1.03-.22.04-.35.04-.11,0-.21-.01-.31-.03-.1-.02-.19-.05-.27-.09l.06-.22s.05-.07.09-.07c.02,0,.03,0,.06.01.02,0,.05.02.08.03.03.01.07.02.11.03.04,0,.09.01.15.01.11,0,.2-.02.25-.07.06-.05.08-.1.08-.17,0-.1-.06-.17-.17-.21-.11-.04-.27-.08-.47-.1l.16-.5c-.23-.02-.45-.08-.64-.19-.2-.1-.37-.24-.51-.42-.14-.18-.25-.39-.33-.64-.08-.25-.12-.52-.12-.83s.04-.58.13-.84.21-.48.37-.66c.16-.18.36-.33.6-.43.24-.1.51-.16.81-.16.29,0,.54.05.75.14.22.09.41.22.58.39l-.19.26s-.04.05-.06.07c-.02.02-.05.02-.09.02-.04,0-.08-.02-.13-.05-.05-.03-.11-.07-.18-.11-.07-.04-.16-.08-.26-.11s-.23-.05-.38-.05c-.2,0-.38.04-.53.11-.15.07-.28.17-.38.31-.1.13-.18.29-.23.48-.05.19-.08.4-.08.64,0,.25.03.46.08.65.06.19.13.35.24.48.1.13.23.23.37.3.15.07.31.1.49.1s.32-.02.43-.06c.11-.04.21-.09.28-.14s.13-.1.18-.14c.05-.04.1-.06.15-.06.06,0,.1.02.14.07l.2.26Z"/>
      <path d="M218.42,180.84c.22-.22.47-.38.72-.48.26-.11.54-.16.86-.16.23,0,.43.04.6.11.18.07.32.18.44.31.12.13.21.29.27.48s.09.4.09.62v2.59h-.32c-.07,0-.12-.01-.16-.03-.04-.02-.07-.07-.09-.13l-.08-.38c-.11.1-.21.19-.31.26s-.21.14-.32.19c-.11.05-.23.09-.36.12-.13.03-.27.04-.42.04s-.31-.02-.44-.07-.26-.11-.36-.2c-.1-.09-.18-.2-.24-.33-.06-.13-.09-.29-.09-.48,0-.16.04-.31.13-.46.09-.15.23-.28.43-.39.2-.11.45-.21.77-.28.32-.07.71-.12,1.17-.13v-.32c0-.31-.07-.55-.2-.71-.14-.16-.33-.24-.6-.24-.18,0-.32.02-.44.07-.12.04-.22.09-.31.15-.09.05-.16.1-.22.15-.06.04-.12.07-.19.07-.05,0-.09-.01-.12-.04-.03-.03-.06-.06-.09-.09l-.13-.23ZM220.36,179.02c.1,0,.17-.03.22-.08.05-.06.08-.14.08-.26h.43c0,.12-.02.24-.05.35s-.08.2-.14.27c-.06.08-.14.13-.22.17-.09.04-.18.06-.29.06-.09,0-.18-.02-.26-.06-.08-.04-.16-.08-.23-.13-.07-.05-.14-.09-.2-.13-.06-.04-.13-.06-.19-.06-.19,0-.29.12-.3.35h-.44c0-.13.02-.25.05-.35.03-.11.08-.2.15-.27.06-.08.14-.13.23-.18.09-.04.18-.06.29-.06.09,0,.18.02.26.06.08.04.16.08.23.13.07.05.14.09.2.13.06.04.12.06.19.06ZM220.72,182.5c-.33.01-.61.04-.84.08-.23.04-.42.1-.56.16s-.25.15-.32.24-.1.19-.1.3c0,.11.02.2.05.28.04.08.08.14.14.19.06.05.13.09.21.11.08.02.17.03.26.03.12,0,.24-.01.34-.04.1-.03.2-.06.29-.11s.18-.11.26-.17.17-.14.25-.23v-.84Z"/>
      <path d="M224.21,180.21c.3,0,.56.05.8.15s.44.24.61.42.3.4.39.66c.09.26.13.54.13.86s-.04.61-.13.86c-.09.26-.22.47-.39.66s-.37.32-.61.42c-.24.1-.5.15-.8.15s-.57-.05-.81-.15c-.24-.1-.44-.24-.61-.42s-.3-.4-.39-.66-.13-.54-.13-.86.04-.6.13-.86c.09-.26.22-.48.39-.66s.37-.32.61-.42.51-.15.81-.15ZM224.21,183.82c.4,0,.7-.13.9-.4.2-.27.3-.64.3-1.12s-.1-.86-.3-1.13c-.2-.27-.5-.4-.9-.4-.2,0-.38.03-.53.1-.15.07-.28.17-.38.3-.1.13-.17.29-.22.48-.05.19-.07.41-.07.65,0,.48.1.85.3,1.12.2.27.5.4.91.4Z"/>
    </g>
    <g>
      <rect class="cls-1" x="99.09" y="23.06" width="55.59" height="11.3"/>
      <polygon class="cls-1" points="166.91 28.71 151.91 20.05 151.91 37.37 166.91 28.71"/>
    </g>
    <g>
      <rect class="cls-1" x="111.32" y="50.17" width="55.59" height="11.3" transform="translate(278.23 111.64) rotate(180)"/>
      <polygon class="cls-1" points="99.09 55.82 114.09 64.48 114.09 47.16 99.09 55.82"/>
    </g>
    <g>
      <rect class="cls-1" x="47.14" y="118.41" width="21.67" height="4.41" transform="translate(178.59 62.64) rotate(90)"/>
      <polygon class="cls-1" points="57.98 136.22 61.35 130.37 54.6 130.37 57.98 136.22"/>
    </g>
    <g>
      <rect class="cls-1" x="36.57" y="123.18" width="21.67" height="4.41" transform="translate(-77.98 172.79) rotate(-90)"/>
      <polygon class="cls-1" points="47.41 109.78 44.03 115.63 50.78 115.63 47.41 109.78"/>
    </g>
    <g>
      <rect class="cls-1" x="201.67" y="118.41" width="21.67" height="4.41" transform="translate(333.12 -91.89) rotate(90)"/>
      <polygon class="cls-1" points="212.5 136.22 215.88 130.37 209.13 130.37 212.5 136.22"/>
    </g>
    <g>
      <rect class="cls-1" x="191.1" y="123.18" width="21.67" height="4.41" transform="translate(76.55 327.32) rotate(-90)"/>
      <polygon class="cls-1" points="201.94 109.78 198.56 115.63 205.31 115.63 201.94 109.78"/>
    </g>
  </g>
</svg>