
<svg xmlns="http://www.w3.org/2000/svg" version="1.1" xmlns:xlink="http://www.w3.org/1999/xlink" preserveAspectRatio="none" x="0px" y="0px" width="700px" height="220px" viewBox="0 0 700 220">
<defs>
<g id="Layer0_0_FILL">
<path fill="#D3AE69" stroke="none" d="
M 64.6 237.85
Q 58.2 231.45 49.1 231.45 40 231.45 33.55 237.85 27.15 244.3 27.15 253.4 27.15 262.5 33.55 268.9 40 275.35 49.1 275.35 58.2 275.35 64.6 268.9 71.05 262.5 71.05 253.4 71.05 244.3 64.6 237.85 Z"/>
</g>

<g id="Layer0_1_FILL">
<path fill="#EFEED8" stroke="none" d="
M 67.55 179.15
Q 67.55 176.25 65.45 174.15 63.4 172.1 60.5 172.1 57.6 172.1 55.5 174.15 53.45 176.25 53.45 179.15 53.45 182.05 55.5 184.1 57.6 186.2 60.5 186.2 63.4 186.2 65.45 184.1 67.55 182.05 67.55 179.15 Z"/>
</g>

<g id="Layer0_2_FILL">
<path fill="#EFEED8" stroke="none" d="
M 67.55 179.15
Q 67.55 176.25 65.45 174.15 63.4 172.1 60.5 172.1 57.6 172.1 55.5 174.15 53.45 176.25 53.45 179.15 53.45 182.05 55.5 184.1 57.6 186.2 60.5 186.2 63.4 186.2 65.45 184.1 67.55 182.05 67.55 179.15 Z"/>
</g>
</defs>

<g transform="matrix( 1, 0, 0, 1, -27.15,-231.45) ">
<use xlink:href="#Layer0_0_FILL"/>
</g>

<g transform="matrix( 1, 0, 0, 1, -30.35,-166.1) ">
<use xlink:href="#Layer0_1_FILL"/>
</g>

<g transform="matrix( 0.5673828125, 0, 0, 0.5673828125, -9.65,-81.3) ">
<use xlink:href="#Layer0_2_FILL"/>
</g>
</svg>
