
<svg xmlns="http://www.w3.org/2000/svg" version="1.1" xmlns:xlink="http://www.w3.org/1999/xlink" preserveAspectRatio="none" x="0px" y="0px" width="325px" height="350px" viewBox="0 0 325 350">
<defs>
<g id="Layer0_0_MEMBER_0_FILL">
<path fill="#B8BE79" stroke="none" d="
M 111 73.2
Q 101.05 83.15 101.05 97.25 101.05 111.35 111 121.3 120.95 131.25 135.05 131.25 149.15 131.25 159.1 121.3 169.05 111.35 169.05 97.25 169.05 83.15 159.1 73.2 149.15 63.25 135.05 63.25 120.95 63.25 111 73.2 Z"/>
</g>

<g id="Layer0_0_MEMBER_1_FILL">
<path fill="#FFFFFF" stroke="none" d="
M 89.4 10.95
L 89.15 10.7
Q 80.9 2.5 69.2 2.5 57.55 2.5 49.25 10.7
L 10.35 49.5
Q 2.2 57.7 2.5 69.45 2.85 81.05 11.15 89.35 19.45 97.55 31.15 97.55 42.8 97.55 51.1 89.35
L 89.15 50.5
Q 97.4 42.35 97.45 30.75 97.55 19.15 89.4 10.95
M 89.4 30.85
Q 89.3 39.05 83.5 44.85
L 68.4 59.95
Q 66.95 61.35 64.95 61.35 62.95 61.35 61.5 59.95
L 39.75 38.3
Q 38.35 36.9 38.35 34.95 38.35 32.95 39.75 31.55
L 39.75 31.5 54.7 16.75
Q 60.75 10.7 69.35 10.7 78 10.65 83.8 16.75 89.5 22.65 89.4 30.85 Z"/>
</g>

<g id="Layer0_1_FILL">
<path fill="#0178B7" stroke="none" d="
M 263.35 292.05
Q 263.35 284.85 258.25 279.75 253.2 274.7 246 274.7 238.8 274.7 233.7 279.75 228.65 284.85 228.65 292.05 228.65 299.25 233.7 304.3 238.8 309.4 246 309.4 253.2 309.4 258.25 304.3 263.35 299.25 263.35 292.05 Z"/>
</g>

<g id="Layer0_2_FILL">
<path fill="#FFFFFF" stroke="none" d="
M 61.1 73.9
L 61.1 71.65 58.7 71.65 58.7 59.3 56.15 59.3 51.6 63.15 52.6 64.45 52.8 64.6 53.15 64.75 53.55 64.75
Q 53.75 64.7 54 64.55
L 55.65 63.15 55.6 71.65 52.8 71.65 52.8 73.9 61.1 73.9 Z"/>
</g>
</defs>

<g transform="matrix( 1, 0, 0, 1, -101.05,-63.25) ">
<use xlink:href="#Layer0_0_MEMBER_0_FILL"/>
</g>

<g transform="matrix( 0.420806884765625, 0, 0, 0.420806884765625, 13,12.95) ">
<use xlink:href="#Layer0_0_MEMBER_1_FILL"/>
</g>

<g transform="matrix( 1, 0, 0, 1, -189.45,-225.3) ">
<use xlink:href="#Layer0_1_FILL"/>
</g>

<g transform="matrix( 1, 0, 0, 1, 0,0) ">
<use xlink:href="#Layer0_2_FILL"/>
</g>
</svg>
