
<svg xmlns="http://www.w3.org/2000/svg" version="1.1" xmlns:xlink="http://www.w3.org/1999/xlink" preserveAspectRatio="none" x="0px" y="0px" width="250px" height="200px" viewBox="0 0 250 200">
<defs>
<g id="flash0_ai_04_Fonte__Clip_Group__2_0_Layer3_0_FILL">
<path fill="#E1C99B" stroke="none" d="
M 10.5 115.6
Q 8.3 111.45 6.7 107.15 5.55 103.65 5.55 103.6 5.35 102.9 4.75 102.55 4.2 102.2 3.5 102.35 2.85 102.55 2.45 103.15 2.1 103.75 2.25 104.4
L 2.65 105.8
Q 4.9 113.15 9.2 120.25 16.3 132 26.7 138.45 27.3 138.85 28 138.65 28.7 138.5 29.05 137.9 29.45 137.3 29.25 136.65 29.1 136 28.5 135.6 17.6 128.8 10.5 115.6
M 3.3 96.3
Q 3.1 95.65 2.5 95.3 1.9 94.95 1.2 95.15 0.55 95.4 0.2 96 -0.15 96.6 0.05 97.3 0.3 98 0.9 98.3 1.55 98.65 2.2 98.4 2.9 98.2 3.2 97.6 3.55 97 3.3 96.3
M 177.35 65
Q 179.65 59.25 179.05 53.4 177.45 38.2 164.05 26.6 148.35 13.05 124.2 13.3 101.5 13.55 89.05 23.4 84.55 27 80 32.95 75.15 39.9 72.6 43.2 66.15 51.65 54.95 54.85 51.3 55.9 44.2 57.15 35.9 58.6 32.15 59.5 18.2 62.75 13.7 76.25 8.65 91.45 19.45 112.3 29.05 130.8 58.35 145.65 73 153.1 85.7 156.8 104.65 163.5 123.05 164 145.65 164.65 160.4 155.3 167.9 150.55 170.3 143.65 172.25 138 171 129.8 170.4 126.15 167.4 114.55 164.85 104.75 164.5 98.85 164.1 91.85 166.5 85.4 168 81.35 172 74.85 176.05 68.2 177.35 65
M 181.25 29.35
Q 181.5 30 182.1 30.35 182.75 30.65 183.4 30.45 184.1 30.25 184.4 29.65 184.75 29.05 184.5 28.35 184.3 27.7 183.7 27.35 183.1 27 182.4 27.2 181.75 27.45 181.4 28.05 181.05 28.65 181.25 29.35
M 167.8 13.3
Q 173.6 18 177.1 22.75 177.5 23.3 178.2 23.45 178.9 23.55 179.45 23.15 180.05 22.75 180.15 22.05 180.25 21.3 179.85 20.75 175.9 15.4 169.7 10.4 157.4 0.55 144.15 0 143.45 -0.05 142.95 0.45 142.45 0.95 142.4 1.65
L 142.45 2.2
Q 142.8 3.3 144 3.4 156.15 3.9 167.8 13.3 Z"/>
</g>

<g id="Mask_flash0_ai_04_Fonte__Clip_Group__2_0_2_MASK_0_FILL">
<path fill="#FFFFFF" stroke="none" d="
M 10.5 115.6
Q 8.3 111.45 6.7 107.15 5.55 103.65 5.55 103.6 5.35 102.9 4.75 102.55 4.2 102.2 3.5 102.35 2.85 102.55 2.45 103.15 2.1 103.75 2.25 104.4
L 2.65 105.8
Q 4.9 113.15 9.2 120.25 16.3 132 26.7 138.45 27.3 138.85 28 138.65 28.7 138.5 29.05 137.9 29.45 137.3 29.25 136.65 29.1 136 28.5 135.6 17.6 128.8 10.5 115.6
M 3.3 96.3
Q 3.1 95.65 2.5 95.3 1.9 94.95 1.2 95.15 0.55 95.4 0.2 96 -0.15 96.6 0.05 97.3 0.3 98 0.9 98.3 1.55 98.65 2.2 98.4 2.9 98.2 3.2 97.6 3.55 97 3.3 96.3
M 177.35 65
Q 179.65 59.25 179.05 53.4 177.45 38.2 164.05 26.6 148.35 13.05 124.2 13.3 101.5 13.55 89.05 23.4 84.55 27 80 32.95 75.15 39.9 72.6 43.2 66.15 51.65 54.95 54.85 51.3 55.9 44.2 57.15 35.9 58.6 32.15 59.5 18.2 62.75 13.7 76.25 8.65 91.45 19.45 112.3 29.05 130.8 58.35 145.65 73 153.1 85.7 156.8 104.65 163.5 123.05 164 145.65 164.65 160.4 155.3 167.9 150.55 170.3 143.65 172.25 138 171 129.8 170.4 126.15 167.4 114.55 164.85 104.75 164.5 98.85 164.1 91.85 166.5 85.4 168 81.35 172 74.85 176.05 68.2 177.35 65
M 181.25 29.35
Q 181.5 30 182.1 30.35 182.75 30.65 183.4 30.45 184.1 30.25 184.4 29.65 184.75 29.05 184.5 28.35 184.3 27.7 183.7 27.35 183.1 27 182.4 27.2 181.75 27.45 181.4 28.05 181.05 28.65 181.25 29.35
M 167.8 13.3
Q 173.6 18 177.1 22.75 177.5 23.3 178.2 23.45 178.9 23.55 179.45 23.15 180.05 22.75 180.15 22.05 180.25 21.3 179.85 20.75 175.9 15.4 169.7 10.4 157.4 0.55 144.15 0 143.45 -0.05 142.95 0.45 142.45 0.95 142.4 1.65
L 142.45 2.2
Q 142.8 3.3 144 3.4 156.15 3.9 167.8 13.3 Z"/>
</g>

<g id="Layer1_1_FILL">
<path fill="#44453C" stroke="none" d="
M 139.25 160.5
L 139.9 160.5
Q 140.2810546875 159.606640625 140.6 158.65 140.55 158.5 140.35 158.5 140.15 158.45 140.05 158.6 139.85 158.75 139.75 159.2 139.612109375 159.751171875 139.25 160.5
M 138.9 155.35
L 138.8 155.45 137.55 160.5 137.9 160.5
Q 138.2208984375 159.3166015625 138.5 158.05
L 138.9 155.35
M 91.85 140
Q 91.35 139.6 91 139.65 100.65 147.15 109.7 156.4 109.3 155.7 107.9 154.3 100.45 146.75 91.85 140
M 82.7 134.05
Q 83.221875 134.3919921875 83.7 134.7 85.833984375 136.15703125 86.9 137.1 88.85 138.8 91.2 141.5
L 100.4 151.85
Q 100.95 152.5 105.3 158.25 106.2302734375 159.459375 107.1 160.5
L 108.25 160.5
Q 107.44609375 159.3615234375 106.5 158.1
L 104.7 155.7
Q 101.3 151.15 93.6 142.65 90.5 139.2 88.7 137.55 85.85 134.85 83.1 133.3 82.930859375 133.2076171875 82.8 133.15 82.4884765625 133.076953125 82.35 133.25 82.15 133.6 82.7 134.05
M 128.1 146.65
Q 127.3931640625 145.79765625 126.6 144.95
L 125.2 142.5
Q 125 142.5 125 142.55
L 125.95 144.25
Q 125.1533203125 143.4423828125 124.3 142.65 123 141.5 122.05 140.15 120.95 138.6 119.25 137.7 119.25 137.95 119.4 138.15 120.5 139.8 121.8 141.3 124.05 143.9 126.45 146.5 127.7 147.9 128.65 149.4 128.6849609375 149.452734375 128.7 149.5 131.2294921875 153.30625 133.35 157.35 134.1314453125 158.87890625 134.7 160.5
L 136 160.5
Q 135.7880859375 159.7275390625 135.55 158.95 135.35 158.25 135.05 157.6 133.2173828125 153.87265625 130.95 150.55 129.6150390625 148.525 128.1 146.65
M 44.3 137.55
Q 44.2 137.2 43.9 137.4
L 38 150.75
Q 35.284375 156.7431640625 34.55 160.5
L 34.85 160.5
Q 35.2056640625 159.808203125 35.55 158.5 35.95 157 37.6 153.3 41.35 145.05 44.3 137.55
M 52.25 130.45
Q 53.4572265625 130.003515625 54.95 129.75 56.2 129.5 59.65 129.3 60.1 129.3 60.1 129.05 56.0333984375 128.95 52.8 130 51.166796875 130.5333984375 49.75 131.35 50 131.65 50.55 131.3 51.3142578125 130.8197265625 52.25 130.45
M 95.95 124.4
Q 96.55 124.9 98.4 125.9
L 106.5 129.95
Q 108.2 130.75 109.1 131.05 103 127.55 95.95 124.4
M 64.55 109.5
Q 63.55 109.05 62.9 109.15 65.5 110.6 69.1 112.1 70.4 112.65 75.5 114.6 83.2869140625 117.594921875 91.65 121.3 100.0349609375 125.017578125 109 129.45 102.39140625 125.4771484375 93.1 121.3 90.2650390625 120.009765625 87.15 118.7 72.05 112.7 64.55 109.5
M 39.1 152.25
Q 39.45 151.55 39.45 151
L 35.25 159.85
Q 35.1 160.3 35.35 160.2
L 39.1 152.25
M 47.2 124.9
Q 47.75 124.45 47.45 124.1 42.45 129.15 39.7 135.5 40.45 134.7 41.2 133.5 42.05 132.05 42.45 131.3 44.45 127.85 47.2 124.9
M 63.8 112.5
Q 63.55 112.5 63.4 112.65 50.4 120.75 43.65 131.1 42.95 132.2 42.85 132.9
L 48.45 125.7
Q 53.45 119.9 63 113.5
L 63.95 112.95
Q 64.2 112.6 63.8 112.5
M 123.05 36.6
Q 122.35 35.45 122 34.85 119.5 30.9 115.6 28.55 112.9 26.9 109.1 25.85 108.323046875 25.632421875 107.35 25.4 108.49453125 24.3513671875 109.45 22.85
L 111.1 19.5
Q 111.45 18.65 111.05 18.45 111 18.4 110.55 18.4 108.25 18.9 105.8 18.5 107.05 17.55 107.75 16.25 108.05 15.75 108.05 15.45 108.05 14.95 107.65 14.7 107.3 14.55 106.5 15.15 105.55 15.8 104.1 16.05 103.25 16.2 101.45 16.25 98.65 16.25 97.3 16.15
L 95.05 16
Q 91.35 15.75 87.85 17.4 87.47265625 17.6033203125 87.35 17.8 87.02265625 17.7388671875 86.75 17.7
L 85.55 17.65
Q 83.15 17.55 81.7 17.85 81 18 79.45 18.5 76.4 19.5 74.75 20.65 74.45 20.85 72.35 22.7
L 71.4 23.65
Q 69.784765625 23.841015625 68.2 24.25 66.35 24.85 65.9 25.7 65.65 26.1 65.55 26.75 65.45 27.15 65.35 27.85 65 29.15 63.8 30.45 63.25 31 61.4 32.5 58.95 34.45 58.15 35.95 57.75 36.85 57.55 37.25 57.15 38 56.75 38.45 56.35 38.9 55.4 39.45 54.35 40.1 54 40.4 52.8 41.4 52.3 43.2 51.95 44.4 51.8 46.55
L 50.6 61.4
Q 50.3 64.1 50.55 65.75 50.9 67.9 52.65 71.2 54.75 75.05 55.2 76.55 55.4 77.15 55.7 78.3 56 79.35 56.4 80.05 57.05 81.1 59.15 82.7
L 62.45 85.15 62.6 85.5
Q 62.95 86.35 63.8 87.55
L 64.5 88.5
Q 64.7 88.75 65.1 89.2 65.35 89.65 65.55 90.75 65.75 91.2 66.35 92.1 66.65 92.7 66.65 94.1 66.65 95.2 66.55 95.7
L 66.35 96.5 66.3 98.1 66.3 98.15
Q 65.5 99.75 65.55 101 65.894140625 100.5697265625 66.3 99.6
L 66.3 101.1
Q 66.3 101.6607421875 66.45 101.95 65.8802734375 102.489453125 65.6 103.05
L 64.9 104.45
Q 64.8408203125 104.6126953125 64.8 104.75 63.6974609375 104.5001953125 62.9 104.55 61.7 104.65 60.7 105.35 59.7 106.1 59.5 107.2 59.476171875 107.3904296875 59.45 107.55 57.974609375 108.8126953125 56.1 109.75 54.25 110.6 53.7 111 52.4 111.85 52.05 112.95 51.95 113.25 51.85 114.2 51.75 114.95 51.5 115.35 51.2 115.95 49.85 116.85 43.8 120.65 40.8 127.25 39.9 129.45 39.3 130.45 38.85 131.2 37.55 132.6 36.35 133.95 35.85 134.8 35 136.2 34.45 138.75 33.7 142.1 33.4 142.9 33.15 143.6 32.05 145.9 31.15 147.75 30.85 148.95 30.7 149.55 30.45 152.8 30.35 154.35 29.95 157.4 29.85078125 158.556640625 29.8 160.5
L 31.1 160.5
Q 31.08671875 159.7353515625 31.15 158.9 31.6 155.1 31.65 153.2 31.7 152 31.75 151.4 31.8 150.35 32 149.65 32.25 148.75 32.9 147.45 33.8 145.7 33.95 145.3 34.360546875 144.3421875 34.85 142.35 35.9546875 141.0953125 37.5 139.55
L 39.3 137.75
Q 43.15 134.2 47.3 131.85 49.2 130.75 50.15 130.2 51.8 129.2 52.85 128.3 45.9 131.4 41.45 135.05 39.65 136.5 36.35 139.8 35.7029296875 140.4470703125 35.25 140.9 35.3298828125 140.6423828125 35.4 140.35 36.15 137.15 37.05 135.5 37.5 134.75 38.4 133.6 39.5 132.2 39.85 131.65 40.65 130.45 41.7 128.3 42.9 125.7 43.35 124.9 45.7 120.7 49.9 118.15 51.95 117.05 52.45 116 52.7 115.55 52.9 114.45 53.1 113.4 53.4 112.9 53.85 112.1 55.7 111.25 58.6 109.8 60.7 107.9 60.855078125 107.434765625 60.7 107.05 61.4384765625 105.8 63.15 105.8 64.15 105.75 66.05 106.45 78.8826171875 111.188671875 93.75 118.75 100.3728515625 122.1203125 107.4 126.05 111.3 128.25 113.4 129 113.5443359375 128.9638671875 113.6 128.8
L 113.65 128.8 113.65 128.75
Q 113.683984375 128.6982421875 113.7 128.65 113.721484375 128.5208984375 113.7 128.4 113.8 127.6796875 113.8 126.5
L 113.75 125.7 113.7 125.6
Q 113.7427734375 125.5740234375 113.75 125.5 114.846484375 126.7458984375 116.4 127.4 116.6 127.75 117.1 128.25 117.35 128.65 117.3 129.5 117.25 130.4 117.45 130.75 117.55 131 117.75 131.05 117.9419921875 131.05 118.05 130.8 118.203515625 130.9958984375 118.45 131.15 119.7 132.25 121.3 134.4 121.5494140625 134.728515625 121.75 135 124.4 138.55 128 141.3 131.9 144.25 133.3 148.85 133.75 150.25 134.4 151.65 134.5033203125 151.8888671875 134.6 152.1 135.4646484375 153.558203125 137.25 153.95 139.85 154.2 141.8 155.85 144.6810546875 158.2359375 147.65 160.5
L 149.55 160.5
Q 146.357421875 157.825 143.2 155.15 141.634765625 153.812890625 139.75 153.1 138.7455078125 152.7412109375 137.65 152.55 136.15 152.3 135.6 151.1 135 149.8 134.55 148.4 133.45 144.75 130.45 142.35 126.2 139 122.85 134.8 122.417578125 134.2638671875 121.9 133.6 120.1 131.25 118.65 130.1 118.45 129.9 118.25 129.9 118.2146484375 129.9 118.15 129.9 118.2404296875 128.8078125 118.2 128.2 118.2 127.6 117.95 127.3 117.9 127.2 117.5 126.95
L 116.05 126.1
Q 115.086328125 125.54921875 114.05 124.65 114.8931640625 122.66796875 116.05 120.95 117.5 118.95 118.1 117.95 119.2 116.1 119.25 114.6 119.1 112.85 119.1 112 119.1 110.45 120.05 109.7 120.16796875 109.6115234375 120.3 109.5 120.6015625 109.3958984375 121 109.3 121.5513671875 109.605859375 122 109.75
L 122.1 109.6
Q 121.7921875 109.4212890625 121.45 109.2 121.7861328125 109.17421875 122.15 109.15 122.67109375 109.0876953125 123.25 108.95 126.448828125 108.3455078125 131.6 106.15 135.8 104.3 137.55 102.95 138.14765625 102.5232421875 138.5 102 138.827734375 101.630859375 139 101.2 139.4 100.25 139.2 98.55 138.90859375 96.21796875 138.45 94.1 138.29375 93.1236328125 138.05 92.2 138.1162109375 92.134375 138.15 92.05 138.2 91.95 138.35 91.05 138.45 90.55 138.9 89.85 139.45 88.95 139.55 88.7 140.05 87.7 139.85 86.55 139.7 85.4 138.9 84.6 138.2 83.85 136.4 83.05 135.039453125 82.394921875 133.7 81.55 133.95 81.3623046875 133.95 80.75
L 133.95 79.05
Q 133.95 78.641015625 133.8 78.45 135.168359375 77.7884765625 136.95 76.95 138.15 76.35 138.5 75.8 138.85 75.2 138.6 74.15 138.3 73 138.2 72.4 138.2 71.2 138.1 70.65 137.9 70.05 137.85 69.8 137.79765625 69.62578125 137.75 69.45 137.734765625 69.178125 137.8 68.95 138 68.35 139.2 67.9 140.55 67.25 141.3 66.75 141.513671875 66.6216796875 141.65 66.5 141.8640625 66.3431640625 141.95 66.2 142.15 65.95 142.25 65.1 142.35 63.05 141.7 61.75 141.25 60.8 139.8 59.35
L 137.2 56.8
Q 137.3453125 56.88203125 137.5 56.95 137.308203125 56.374609375 136.1 55.75
L 136.05 55.7
Q 134.45 54.1 133.25 53.55 133.7013671875 51.0078125 132.4 48.45 131.1162109375 45.97109375 128.8 44.8 128.515234375 44.676171875 128.2 44.55 128.145703125 44.530078125 128.1 44.5 128.214453125 44.1994140625 128.3 43.75 128.6 41.3 127.85 40.3 127.4 39.65 126.25 39.05 124.65 38.25 124.4 38.05 123.7 37.55 123.05 36.6
M 121.85 37.35
Q 122.95 38.9 124.1 39.6 124.65 39.95 125.8 40.55 126.7 41.15 127 41.9 127.2 42.3 127.2 43.6 127.21796875 43.978515625 127.3 44.25 126.36328125 44.0962890625 125.65 44.3
L 124.85 44.65 101.15 49.25
Q 101.237109375 48.9796875 101.3 48.7
L 102.85 40.75
Q 103.15 39.5 103.3 38.1 103.45 36.4 103.2 34.5
L 103 33.1
Q 102.8 31.6 102.6 30.95 102.3 29.7 101.5 28.25 100.55 26.7 99.25 25.2
L 99 24.9
Q 99.2435546875 24.9990234375 99.6 25.05 102.3080078125 25.5685546875 104.95 26.2 104.9771484375 26.2927734375 105 26.35 105.2 26.7 105.6 26.6 105.7908203125 26.57265625 105.95 26.45 107.4134765625 26.873828125 108.85 27.3 112.35 28.35 114.15 29.35 117.7 31.25 120.05 34.6 120.7 35.5 121.85 37.35
M 125.25 48.6
Q 125.465234375 48.5666015625 125.65 48.5 126.3 48.3 126.35 47.85 126.35 47.3 125.75 47.2 125.3 47.15 124.8 47.3 124.032421875 47.498046875 122.9 47.65 121.766796875 47.79765625 120.25 47.9 120.8564453125 47.69765625 120.9 47.35
L 120.9 47.3 124.3 46.65
Q 124.74453125 46.577734375 125 46.45
L 125.9 45.85
Q 126.35 45.6 127.3 45.8 127.6359375 45.883984375 127.95 46 127.726953125 46.023046875 127.65 46.1 127.6 46.15 127.45 46.55 127.3 49.35 127.3 50.55 127.35 52.8 127.85 54.45 128.25 55.65 128.35 56.25 128.4 56.45 128.5 57.25 128.55 57.85 128.7 58.2 129.1 59.45 130.1 59.35 130.05 59 129.8 58.45 129.45 57.7 129.4 57.5 129.4 57.4740234375 129.4 57.35 129.3611328125 57.0630859375 129.25 56.1 128.85 54.65 128.65 53.9 127.98125 51.5595703125 128.1 47.15 128.141015625 46.9603515625 128.15 46.75
L 128.2 46.75 129.25 46.75
Q 130.4921875 47.6767578125 131.3 49.35 132.1439453125 50.9173828125 132.45 53.35
L 131.55 52.75
Q 130.95 52.35 130.6 52.5 130.85 52.9 131.2 53.1 131.8125 53.5900390625 132.45 54.05 132.0970703125 54.9544921875 132.15 56.2 132.15 56.6 132.2 57.35 132.15 58 131.95 58.4 131.65 59.1 130.85 59.4 130.7470703125 59.4412109375 130.65 59.45 129.9970703125 59.665625 129.35 59.45 127.95 59.05 127.15 57.4 127.0294921875 57.12265625 126.9 56.8 126.5896484375 55.80390625 126.4 54.4
L 125.75 50.25
Q 125.5890625 49.1640625 125.25 48.6
M 124.1 48.9
Q 124.2251953125 49.0501953125 124.35 49.2 124.5080078125 49.42109375 124.6 49.85 124.512109375 49.883984375 124.4 49.9 123.9 50 123 50.6 121.2 51.8 119.6 53.25 118.55 54.1 118.5 54.85 118.5 55.2 118.65 55.25 118.85 55.3 119.1 55.15 119.35 55 120.3 54.15
L 122.2 52.55 122.2 53.55
Q 122.2 54.15 122.45 54.45 122.85 54.95 123.35 54.7
L 123.7 54.35 123.9 53.95 123.95 51.45
Q 123.95 51.2841796875 123.9 51.15 124.2677734375 50.9302734375 124.55 50.8 124.6443359375 50.765625 124.7 50.7
L 125.05 54.05
Q 125.3453125 57.6431640625 126.45 59.1 126.48203125 59.12734375 126.5 59.15 127.8 60.8 129.8 60.95 130.8 61.05 131.65 60.7
L 131.65 60.7
Q 132.603125 60.294140625 133.05 59.45 133.35 58.85 133.35 57.9 133.2 56.75 133.15 56.2 133.088671875 55.4236328125 133.1 54.7
L 138.3 59.8
Q 139.55 61.15 140 61.85 140.85 63.1 140.9 64.3 140.9634765625 64.68125 140.85 64.95 140.809375 65.1541015625 140.7 65.3 140.5 65.6 139.9 65.9
L 137.85 67
Q 137 67.35 136.75 67.9 136.60390625 68.1556640625 136.55 68.6 136.55 68.7615234375 136.55 68.95 136.65 70.45 136.85 71.85 137.2 74.2 137.4 74.85 136.9 75.45 135.35 76.1 133.05 77.1 131.15 78.8 130.7501953125 79.1998046875 130.75 79.5 130.199609375 79.212890625 129.9 79.55 129.65 79.8 129.85 80.2 130 80.55 130.35 80.8 132.95 82.9 135.65 84.2 137.3 85.05 137.75 85.5 138.9 86.55 138.55 87.8 138.4 88.35 137.65 89.25 137.3884765625 89.6982421875 137.25 90.15 136.9568359375 89.9310546875 136.6 90.05
L 136.75 90.85
Q 136.5287109375 90.6818359375 136.1 90.55
L 134.75 89.95
Q 133.95 89.6 132.85 89.45
L 130.1 89.05
Q 130.1 89.25 130.45 89.35 131.2 89.5 132.7 89.7 134.05 89.95 134.9 90.35 135.9 90.85 136.1 90.9 136.462109375 91.020703125 136.8 91.05
L 137.4 94.3
Q 137.0931640625 94.5 136.45 94.5
L 133.85 94.6 133.4 94.55 133 94.3
Q 132.15 93.6 130.7 92.9 130.4591796875 92.8037109375 130.3 92.7 130.1037109375 92.6037109375 130 92.5
L 129.55 92.05 129.2 91.55
Q 129.1521484375 91.3107421875 129.25 90.8
L 129.25 90.75
Q 129.3 89.95 128.45 88.45
L 127.6 87.15
Q 127.35 86.75 127.25 86.7
L 126.7 86.3
Q 126.5 86.1 126.25 85.6 126 85.1 125.85 84.9 125.45 84.4 125.45 84.3
L 125.45 83.85
Q 125.55 83.6 125.35 83.4 125.15 83.1 124.95 83.4 124.9982421875 83.5931640625 124.95 84.1
L 124.95 84.15
Q 124.9 84.65 125.05 84.9
L 125.4 85.35
Q 125.65 85.7 125.85 86.5 126 86.75 126.45 87.1 126.95 87.45 127.1 87.65 127.25 87.9 127.45 88.45 127.95 89.05 127.95 89.15
L 128.05 89.6 128.4 90
Q 128.6 90.2 128.6 90.65 128.6 90.95 128.55 91.45 128.55 92.55 129.55 93.15 129.85 93.35 130.45 93.55
L 132.55 94.85 133.05 95.1 133.6 95.15 135.45 95.15
Q 136.9 95.15 137.5 94.8
L 137.5 94.75 138 97.3
Q 138.3 98.95 138.1 99.75 137.872265625 100.8607421875 136.95 101.8 136.24765625 102.4974609375 135.15 103.1 133.95 103.75 131.95 104.55 129.4 105.55 128.75 105.85 127.4 106.45 126.75 106.7 125.55 107.2 124.7 107.4 123.051953125 107.53515625 121.9 107.7 121.7830078125 107.7548828125 121.65 107.75 121.3193359375 107.619921875 120.9 107.45 119.45 106.85 117 104.8 116.95 104.95 116.7 104.95 116.5 105.1 116.85 105.45
L 118.05 106.35
Q 119.05 107.15 119.65 107.45 119.96796875 107.6486328125 120.8 107.95 120.5083984375 108.0576171875 120.25 108.15 120.141796875 108.1923828125 120.05 108.2 119.3908203125 107.76015625 118.7 107.2 118.4 106.9 118.15 107 118.05 107.15 118.25 107.35 118.99453125 107.9677734375 119.65 108.4 119.3693359375 108.584375 119.15 108.75 118.6158203125 109.1919921875 118.35 109.75 118 110.45 118.1 111.6 118.2 112.3 118.3 113.6 118.25 115.15 117.3 116.9 116.9 117.65 115.3 119.85 113.4986328125 122.3591796875 113.25 124.35 113.0853515625 124.481640625 113.15 124.7
L 113 124.7
Q 113 124.9 112.85 125.2 112.85 125.35 113 125.65 113.15 125.95 113.15 126.6
L 113.15 127.65
Q 113.0177734375 127.5505859375 112.8 127.45 106.1439453125 123.7818359375 101.4 121.25 98.1775390625 119.5046875 95.85 118.3 91.2994140625 115.91640625 87.1 113.9 82.619921875 111.7369140625 78.55 110 73.7 107.9 67.4 105.55 66.5779296875 105.2380859375 65.85 105 65.88125 104.9875 65.9 104.95 66.1 104.7 66.55 103.7 66.85 102.9 67.3 102.6 67.7 102.3 67.75 102.15 67.8 101.8 67.45 101.6
L 67.4 101.6
Q 67.5330078125 100.8876953125 67.5 99.9 67.45 98.15 67.55 97.55
L 67.6 96.8
Q 68.042578125 96.0244140625 68.55 95.1 69.1271484375 94.107421875 69.7 93.15 70.4232421875 92.0498046875 71.15 91 71.1 90.8 70.9 90.8 70.65 90.75 70.5 90.9 70.35 91 70.1 91.5 70.0640625 91.58984375 70 91.65 69.67421875 92.3998046875 68.75 93.5 68.6 93.75 67.8 95.45 67.8333984375 95.02421875 67.8 94.55 67.837890625 94.006640625 67.8 93.4 67.8 92.35 67.65 91.9 67.55 91.5 67.2 90.95 66.8 90.35 66.6 90.05 66.3 89.15 66.05 88.7 65.9 88.4 64.8 87.05 64.701171875 86.915234375 64.55 86.75
L 64.6 86.75
Q 63.9876953125 85.1333984375 62.95 83.85
L 62.25 82.4
Q 61.9 81.6 61.4 81.7 61.1611328125 81.8365234375 61.05 82.05 60.755078125 81.82265625 60.4 81.6 59.45 81.05 59 80.75 58.2 80.2 57.8 79.65 57.4 79.1 56.95 77.15 56.5 75.45 55.3 73.15 53.9 70.6 53.25 69.3 52.35 67.5 52.05 66.1 51.85 64.95 51.95 62.6 52.35 54 53.05 46.65 53.35 42.5 55.2 41.2 55.5 41 56.45 40.5 57.25 40.15 57.6 39.8 57.6478515625 39.7568359375 57.7 39.7 58.13828125 39.2685546875 58.5 38.5 58.75 38 59.2 37 59.95 35.55 63.2 32.75 66.05 30.3 66.45 28.25 66.55 27.5 66.65 27.1 66.8 26.45 67.1 26.05 67.6 25.4 69.25 25.1
L 70.95 24.85
Q 71.1275390625 24.930078125 71.3 24.8
L 74.65 24.3
Q 75.1 24.2 75.15 24 75.3 23.65 74.5 23.5 73.707421875 23.4876953125 72.9 23.5 73.4095703125 23.1330078125 74 22.65 75.45 21.55 76.65 20.95 78.15 20.2 80.55 19.55 81.7 19.2 82.7 19.15 83.9 19 85.4 19.1
L 86.7 19.2 94.4 20.9
Q 93.4 19.75 90.6 18.85
L 88.55 18.2
Q 90.92109375 17.4423828125 93.2 17.3 94.4 17.25 96.8 17.35
L 101.75 17.65
Q 104.35 17.75 105.45 17.1 105.35 17.5 104.7 17.85 103.95 18.25 103.75 18.55 103.5 18.9 103.75 19.25 103.85 19.4 104.4 19.5 107.2 19.75 109.95 19.65 109.65 20.75 108.65 22.1 107.4400390625 23.71328125 105.85 25.05 104.203515625 24.7505859375 102.1 24.4
L 98.35 23.7
Q 98.22734375 23.8751953125 98.2 24.05
L 97.55 23.3
Q 97.15 22.9 96.85 22.85 96.65 22.8 96.45 22.95 96.25 23.1 96.25 23.3 96.3 23.5 96.75 23.85 97.25 24.2 97.7 24.95
L 98.65 26.3
Q 100.45 28.9 101 30.4 101.55 31.75 101.8 33.55
L 102 35.35
Q 102.2 37.65 101.95 39.05
L 100.8 44.1
Q 100.2 46.7 100.2 48.05 100.2 48.0994140625 100.25 49.45
L 92 51.55
Q 90.8240234375 51.9064453125 90.05 52.2 87.65 53.15 86.1 54.5 86.0673828125 54.53046875 86 54.55 85.1478515625 55.407421875 85.05 56.15 83.4634765625 55.7205078125 80.8 55.8 79.95 55.8 79.55 55.9 78.85 56.15 77.85 57.45 76.35 59.35 76.15 60.6 76.111328125 60.9095703125 76.1 62.1 76.051171875 62.1974609375 76 62.3 75.1 63.55 74.65 64.2 73.85 65.25 73.8 66.3 73.8 66.75 73.95 67.1 74 67.25 74.45 67.8 75.1 68.6 75.3 68.75 75.9 69.25 76.5 69.1 76.8 69 77.3 68.5
L 77.3 68.55
Q 77.4 75 76.65 78.45 76.15 80.8 75.05 83.7 73.6712890625 87.5751953125 72.1 91.2 71.560546875 92.4771484375 71 93.7 70.749609375 94.344140625 70.7 94.7 70.6857421875 94.850390625 70.7 94.95 70.95 94.9 71.3 94.45 72.35 93 74 89.25 76.4 83.75 77.2 80.85
L 77.8 78
Q 78.5326171875 74.01171875 78.35 69.9
L 78.6 70.4
Q 78.95 71.3 79.3 71.75 79.4138671875 71.936328125 79.55 72.1 79.667578125 72.5828125 80 73.1 80.2 73.5 80.75 74.3 81.25 74.95 81.45 75.6
L 81.9 76.8
Q 82.15 77.15 82.85 77.65 84 78.3 85.35 78.85 86.65 79.3 89.45 79.8
L 90.9 80.1
Q 91.8646484375 80.2287109375 92.4 80.2 92.7537109375 80.203515625 92.95 80.15 92.9701171875 80.0296875 93.05 79.85 93.140234375 79.66953125 93.35 79.4 93.55 79.14296875 93.65 78.95 94.2263671875 79.04609375 94.65 78.9
L 94.7 78.9
Q 95.3 78.65 95.65 77.85 96.25 76.65 96.3 75 96.3 74.15625 96.15 72.7 96.09921875 72.383203125 96.05 72 95.95 71.1 95.5 71.1
L 95.45 71.7 95.2 74.4
Q 95.1 75.7 94.8 76.5 94.55 77.15 94.1 77.4 93.6 77.7 92.35 77.2 87.55 75.05 85.45 74.5 84.05 74.05 83.65 73.85
L 82.5 72.9
Q 80.85 71.55 80.75 71.4 80.45 71 80.05 70.1
L 79.15 68.2
Q 78.15 66.15 77.9 65.4
L 77.45 64.15
Q 77.05 62.6 77.4 60.95 77.75 59.35 78.75 58.05 79.4 57.25 80.05 57.05 80.35 56.95 81.05 56.95
L 83.95 56.95
Q 85.15 57.05 85.55 57.25 85.95 57.4 86.75 57.8 87.00625 57.8541015625 87.2 57.85 87.6626953125 58.769140625 88.95 59.65 89.45 60 90.4 60.6 91.25 61.15 91.7 61.75 91.9 62.05 92.3 62.6 92.65 63.1 93.05 63.2 92.6 61.5 91.15 60.3 89.95 59.55 89.35 59.15 88.7072265625 58.741015625 88.3 58.3 88.0162109375 58.01171875 87.85 57.7 87.7966796875 57.609375 87.75 57.5 87.7796875 57.4603515625 87.8 57.35 87.94453125 57.301171875 88.1 57.2 88.2 57.158203125 88.3 57.1 88.6 56.95 89.25 56.5 90.8 55.55 94.05 54.85
L 99.85 53.55 99.35 56.5
Q 99.05 58.75 99 59.75 98.95 61.7 99.3 64.65
L 99.65 64.75 99.7 64.25 100.5 55.25
Q 100.6998046875 54.151171875 100.7 53.35
L 113.2 50.6
Q 115.6935546875 50.053515625 117.65 49.75 118.5578125 49.5951171875 119.35 49.5 120.4 49.4 122.55 49.2 123.406640625 49.0841796875 124.1 48.9
M 104.4 50.6
Q 104.593359375 50.7890625 105.05 50.85 105.2748046875 50.8875 105.5 50.9
L 100.45 51.95
Q 100.5505859375 51.69609375 100.65 51.35
L 104.4 50.6
M 100.15 51.45
Q 100.1794921875 51.8056640625 100.25 52
L 96.75 52.75
Q 93.45 53.45 91.9 54 89.3 54.85 87.6 56.25 87.4587890625 56.35078125 87.35 56.45 87.189453125 56.661328125 87.1 56.9
L 87.05 56.95
Q 87.0408203125 56.940234375 87 56.95 86.35078125 56.640625 85.9 56.45 86.155859375 55.966015625 86.55 55.5 87.8671875 54.2330078125 90.7 53.4 91.074609375 53.290234375 91.45 53.15
L 100.15 51.45
M 131.15 79.8
Q 131.1029296875 79.761328125 131.05 79.7 131.2970703125 79.685546875 131.6 79.55
L 131.6 80.15
Q 131.3744140625 79.9716796875 131.15 79.8
M 77.25 67.6
Q 77.25 67.4890625 77.25 67.4
L 77.35 67.6
Q 77.299609375 67.6142578125 77.25 67.6
M 75.45 65.6
L 75.65 66.3 75.7 67 75.9 67.55
Q 75.930078125 67.6705078125 75.95 67.85 75.871875 67.819921875 75.8 67.7 74.75 66.85 74.7 66.15 74.7 65.7 75.1 65 75.2193359375 64.761328125 75.45 64.35 75.5306640625 64.874609375 75.45 65.6
M 110.25 121.4
Q 109.6 119.05 107.6 114.65 106.031640625 111.1669921875 104.65 108.45 102.609375 104.4705078125 100.95 102.1 100.5 101.5 100.1 101.7 101.6068359375 103.768359375 103.5 107.35 104.8365234375 109.809375 106.35 113
L 108.95 118.55
Q 109.4 119.6 110.2 121.65 110.4 121.65 110.25 121.4
M 106.3 109.75
Q 106.426953125 110.01171875 106.55 110.3 107.274609375 111.939453125 108.2 114.8 109.3 118.25 110.05 119.8 108.82734375 115.084375 106.95 110.7 106.1693359375 108.8583984375 105.25 107.05 105.1 107 105.1 107.2 105.05 107.4 105.15 107.5
L 106.3 109.75
M 131.9 100.85
Q 134.65 100.9 136.3 101.55
L 136.35 101.4
Q 135.25 100.55 132.7 100.55
L 130.9 100.5 127.7 100.5
Q 127.25 100.5 127.35 100.75 127.5888671875 100.78984375 130.3 100.8 131.033203125 100.83984375 131.9 100.85
M 122.2 54.85
Q 122.1 55 122.3 55.3
L 122.6 55.75 123.45 56.9 123.5 56.95
Q 123.728125 57.588671875 123.75 58.45 123.75 58.5623046875 123.75 58.65 123.7998046875 60.044921875 123.65 61.5 123.4212890625 63.729296875 122.7 66.1 122.512890625 66.843359375 122.25 67.6 122.932421875 66.508203125 123.4 65.25 123.9775390625 63.7896484375 124.25 62.1 124.45 60.4 124.35 58 124.35 56.95 124.05 56.5 123.9 56.25 123.4 55.9 122.95 55.5 122.8 55.25 122.45 54.65 122.2 54.85
M 134.45 61.8
Q 133.6150390625 61.614453125 132.8 61.75 132.29609375 61.8400390625 131.8 62.05 131.7337890625 62.0751953125 131.65 62.1 131.7314453125 61.9314453125 131.6 61.8 130.85 61.8 130.65 62.75 130.6345703125 62.8271484375 130.6 63 130.5783203125 63.09375 130.55 63.2 130.5 63.35 130.5 64.4
L 130.5 64.9
Q 130.4828125 65.20703125 130.4 65.6
L 130.25 66.75
Q 130.198046875 67.1267578125 130.1 67.5 129.9201171875 68.6287109375 129.55 69.85
L 128.6 73.45
Q 127.95 75.85 127.6 76.65 127.5 77 127.2 77.7 126.95 78.35 127 78.8
L 127.3 78.75
Q 128.3 76.9 129 74.7
L 130.25 70.2 130.55 69.1
Q 130.85 68.15 130.85 67.95 131.0564453125 67.065234375 131.15 65.8 131.4623046875 66.008984375 131.75 66.05 132.55 66.2 134.3 66.1 134.8 65.7 135.35 65.55 136.2 65.3 137.95 65.45 138.35 65.45 138.5 65.35 138.8 65.15 138.7 64.85 138.6 64.6 138.05 64.6
L 136.55 64.6
Q 136.2505859375 64.6 136 64.6 135.415234375 64.6298828125 135.1 64.7 133.85 65.2 133.2 65.35 131.9 65.65 131.45 64.8 131.25 64.5 131.25 63.85 131.25 63.45 131.35 63.25 131.4 63.1 131.75 62.85 132.5 62.35 133.3 62.35 133.3896484375 62.35 133.5 62.35 133.7642578125 62.33515625 134.15 62.3 134.6 62.3 134.85 62.1 134.85 61.95 134.45 61.8
M 116.05 94.55
L 115.65 94.95
Q 115.25 95.5 114.5 96.2
L 113.3 97.3 113.25 97.35 112.8 97.95
Q 113.05 97.95 113.5 97.6 113.5216796875 97.584765625 113.55 97.55 114.545703125 96.851171875 116.6 94.65 116.45 94.35 116.05 94.55
M 110.6 97.25
Q 110.7 97.25 110.85 97.1
L 111.8 95.9 112.15 95.5
Q 112.4 95.3 112.35 95.1 112.2 95.05 112.1 95.25
L 111.65 95.75 110.85 96.7
Q 110.6 97.1 110.6 97.25
M 120.75 85.6
Q 120.619140625 85.3078125 120.5 85
L 120.15 85
Q 120.1 85.2 120.35 85.8
L 120.85 86.75
Q 120.8998046875 86.8330078125 120.95 86.9 121.633203125 88.0232421875 122.1 88.35
L 122.45 88.65 122.55 88.95
Q 122.65 89.15 122.8 89.1 122.8 88.65 122.15 87.8 121.30859375 86.7982421875 120.75 85.6
M 93.15 89.3
Q 93.6267578125 89.7052734375 94.2 90.25 96.0201171875 92.0607421875 98.8 95.45 99 95.3 98.75 95.05 95.8173828125 91.425 93.75 89.55 93.3171875 89.13359375 92.9 88.8 92.8 89.05 93.15 89.3
M 91.05 84.35
L 89.9 82.95 87.15 79.45
Q 87.05 80 87.7 80.85
L 91.5 85.7 96.65 92.3
Q 95.2 89.65 91.05 84.35
M 106.85 90.75
L 106.65 90.5
Q 106.3 90.6 106 90.95 105.65 91.4 105.45 91.6
L 104.4 92.55
Q 104 93.15 103.7 93.4
L 103.4 93.7
Q 103.25 93.95 103.3 94.15 103.55 94.3 103.9 93.85 105.3 92.2 106.85 90.75
M 98.7 68
Q 98.72265625 67.740625 98.7 67.65
L 98.55 67.75
Q 98.5443359375 67.790234375 98.55 67.8 98.25 69.87109375 98.25 70.95 98.25 72.65 98.05 73.1 97.85 73.5 97.85 73.65 97.75 74.1 98.1 74.1 98.1 74.05 98.4 72.55 98.45 72.35 98.45 71.2 98.45 70.1 98.6 68.95 98.68203125 68.3484375 98.7 68
M 83.1 70.35
Q 82.25 69.6 81.85 69.2 81.15 68.45 80.85 67.85 80.55 66.65 80.15 66.15
L 79.85 66.15
Q 79.8 67.3 80.65 68.5 81 69 82.65 70.8 84.25 72.3 85.35 72.35 85.25 72.05 84.5 71.7 84.15 71.5 83.1 70.35
M 83.7 58.9
Q 84.55 59.2 85.4 59.95 85.8 60.35 86.45 61.2
L 87.15 61.85
Q 87.95 62.45 88.25 62.8 88.6 63.15 89.15 64.05 89.25 64.25 89.85 64.95 89.75 64.95 88.75 64.65 88.1 64.35 87.6 64.65 87 65 87.1 66.25 87.1 67.05 87.25 67.45 87.5 67.95 88.05 68.5
L 88.6 69.05 89.35 69.5
Q 89.55 69.65 90.1 70.3 90.75 71 91.65 71.4
L 91.8 71.25
Q 91.25 71 90.7 70.3 89.9 69.35 89.75 69.2 88.85 68.55 88.5 68.15 87.45 67.1 87.85 65.65 88.25 65.45 88.9 65.65
L 90.95 67.05
Q 92 67.85 92.3 68.55 92.6 69.4 92.65 69.5 93.1 70.05 93.5 69.75 93.75 69.1 93.3 68.25 92.9 67.3 91.85 65.95
L 90.1 63.75
Q 89.45 62.85 88.75 62.15
L 86.2 59.65
Q 85.45 58.9 85.2 58.75 83.85 57.8 82.3 57.95 81.95 57.95 81.8 58.05 81.65 58.15 81.45 58.7
L 80.75 59.65
Q 80.45 60.1 80.45 61.25
L 80.5 63.3
Q 80.85 63.45 80.95 63 81.05 62.75 80.95 62.3 80.75 61.05 81.4 59.85 81.95 58.9 82.75 58.75 83.1 58.7 83.7 58.9
M 96.45 60.1
Q 96.15 60.2 96.15 60.65
L 95.8 64.7 95.65 66.8
Q 95.5 68.7 95.05 70.5 95.65 70.15 95.85 68.75 96.1 66.979296875 96.25 65.15 96.45 62.666796875 96.45 60.1
M 104.75 71.15
L 102 68.4
Q 100.83359375 66.9419921875 100.45 65.5 100.391796875 65.2337890625 100.35 64.95 100.35 64.3 99.95 64.25 99.94453125 64.4888671875 99.95 64.7 100.0736328125 66.67265625 101.5 68.5 102 69.2 104.65 71.85 105.95 73.2 108.7 76.4 111.2 79.4 112.75 80.9 114.0927734375 82.2427734375 115.35 83 116.246875 83.52109375 117.1 83.75 115.817578125 82.945703125 114.4 81.7 112.6283203125 80.1392578125 110.65 77.85 105.6 71.95 104.75 71.15
M 101.3 71.3
Q 101.3 71.9642578125 101.25 72.6 101.1560546875 74.908984375 100.65 77.05 100.4607421875 77.80703125 100.35 78.3 99.9142578125 77.6205078125 98.5 75.75 97.25 74.05 96.75 72.9
L 96.55 72.95
Q 97 74.2 98.6 76.5
L 99.7 78.1
Q 100.4 79.05 100.55 79.75
L 100.75 80.45
Q 100.85 80.7 101.2 81.1 101.3 81.35 101.2 82.25 101.1634765625 82.5060546875 101.15 82.85 101.1 83.462109375 101.1 84.35
L 100.9 85.55
Q 100.85 86.05 100.75 87.1
L 100.2 88.9
Q 99.9 90 99.85 90.6 99.79921875 90.8283203125 99.85 91 98.9994140625 90.1681640625 98.2 89.35 99.3525390625 91.1921875 100.65 92.8 101.9326171875 94.4455078125 103.35 95.85 105.4146484375 97.927734375 107.75 99.55 110.773828125 101.643359375 114.25 103.05 114.769921875 103.2552734375 115.3 103.45 114.762109375 103.1630859375 114.25 102.85 114.0478515625 102.7271484375 113.85 102.6 106.809375 97.5107421875 101.35 92.45 101.6658203125 92.3673828125 102 92.1 103.2 91.15 105.4 89.05 106.05 88.3 106.75 87.9
L 106.6 87.65 101.35 92.15 101.2 92.3
Q 100.9767578125 92.0888671875 100.7 91.85 100.3755859375 91.513671875 100 91.15
L 100.65 89.25 101.15 87.9
Q 101.3 87.45 101.65 85.2 101.9 83.2 101.85 82.6 101.8 81.8 101.55 81.05 101.1775390625 79.6533203125 100.55 78.6 100.5755859375 78.5357421875 100.6 78.45 101 77.15 101.3 74.35
L 101.4 73.25 101.5 72.55
Q 101.7 71.6 101.55 70.9 101.3 70.85 101.3 71.3
M 115.4 56.7
Q 115.033984375 56.9875 114.75 57.15 114.4908203125 57.3544921875 114.3 57.45 113.2 57.95 112.75 58.35 112.45 58.65 112.5 58.9
L 114.8 57.75
Q 115.153515625 57.55703125 115.7 57.2 116.025 57 116.4 56.75 117.05 56.55 117.15 56.25
L 116.85 56
Q 116.8 56.15 116.55 56.15 116.05 56.25 115.4 56.7
M 131.65 88.3
L 132.6 88.75
Q 134.9 89.85 136.1 90.15
L 136.3 90.15
Q 136.45 90.05 136.35 89.95
L 133.25 88.6
Q 132.1 88 131.3 87.85 131.25 88.1 131.65 88.3
M 117 81.9
Q 117.2 83.35 118.4 85.15 119.05 86.15 120.4 88.15 120.85 89.05 121.15 89.3 120.75 87.85 119.85 86.4 119.05 85.3 118.65 84.75 117.95 83.75 117.75 82.95 117.4 81.95 117 81.9
M 119.05 57.55
L 117.15 58.7
Q 116.25 59.4 115.85 59.8 116.35 59.9 116.65 59.6
L 117.35 59.05
Q 117.75 58.75 118.65 58.25 119.55 57.8 119.95 57.45
L 119.7 57.25
Q 119.6 57.25 119.05 57.55
M 116.25 54.3
Q 115.8759765625 54.3 115.15 54.45 115.1017578125 54.487109375 115.05 54.5 114.3 54.7 111.25 55.15 110.65 55.25 110.4 55.5 111.2 55.9 113.15 55.55
L 114.95 55.15 117.4 54.7
Q 117 54.3 116.25 54.3
M 86.05 43.1
Q 85.830859375 43.0373046875 85.6 43.3 85.480859375 43.4384765625 85.35 43.7 84.3 46.05 82.95 48.2 81.6 50.25 79.45 53.15
L 76.9 56.65
Q 82.2990234375 51.343359375 85.5 44.3 85.7955078125 43.7013671875 86.05 43.1
M 69 96.95
Q 69.5 96.7 69.95 95.6 71.35 92.2 72.5 89.1
L 72.15 89.1 69 96.95
M 70.95 69.4
Q 70.9 69.35 70.7 69.5
L 69.75 74.5 70 74.5 70.95 69.4
M 68.85 71.4
Q 68.65 72.1 68.7 72.45 69.45 70.6 69.85 68.9 70.7 65.65 70.95 63.05 71.05 62.5 71.25 62.4
L 71.1 62.15
Q 70.85 62.2 70.75 62.75 70 67.5 68.85 71.4
M 68.5 68.3
Q 68.25 68.05 68.1 68.65
L 66.25 77.2
Q 65.75 79.6 65.6 80.8
L 65.9 80.7
Q 67.65 74.25 68.5 68.3
M 78.15 51.45
Q 78.05 51.35 77.8 51.55 76 53.5 74.5 55.75 74.15 56.45 74.2 56.7 75.8 54.1 78.15 51.45
M 92 34.1
Q 92.75 31.7 93.4 28.8 93.15 28.7 92.9 28.95 92.75 29.2 92.75 29.45 92.35 31.1 90.95 35
L 89.55 38.65
Q 88.65 40.8 86.7 44.3 85.9865234375 45.5716796875 85.4 46.6 84.1673828125 48.865234375 83.65 49.9 83.3 50.7 83.65 50.95 84.15 49.65 84.75 48.7 85.0173828125 48.2416015625 85.4 47.6 86.0421875 46.621484375 87 45.2
L 89.65 40.1
Q 90.8 37.6 92 34.1
M 190.25 150.45
Q 190.25 149.75 190.05 149.15
L 189.95 149.2 189.6 153.85
Q 189.569140625 153.6916015625 189.5 153.5 189.0931640625 152.7484375 188.1 152.5 181.25 150.9 174.45 151.65 172.3 151.6 170.4 152.2 169.5 152.55 168.6 152.95
L 168.35 149.3 168.05 152.9
Q 167.9 152.9 167.85 152.95 167.8 153.05 167.8 153.2
L 167.75 160.5 168.15 160.5 168.25 159 168.55 153.75
Q 169.053515625 153.9396484375 169.55 154.1 172.280859375 154.9625 175.1 154.95 175.7740234375 154.991796875 176.45 154.95 176.5 154.9 176.6 154.9 176.6 154.85 176.65 154.8
L 174.3 154.25 169.35 153.2
Q 172.3 152.3 175.45 152.25 181.45 152.1 187.45 153.2 188.1 153.35 188.75 153.95 188.85 154.1 188.95 154.3 186.75 155.15 184.15 155.15 181.67890625 155.15 179.25 155.2 179.0248046875 155.195703125 178.8 155.2 178.65 155.25 178.55 155.3 178.9 155.3466796875 179.25 155.4 179.65 155.469921875 180.05 155.55 183.367578125 155.7771484375 186.7 155.55 187.0630859375 155.52734375 187.4 155.5 187.4470703125 155.5 187.5 155.5 188.6279296875 155.4658203125 189.4 154.6 189.4625 154.591796875 189.5 154.55
L 189.5 154.5
Q 189.54609375 154.4837890625 189.55 154.45
L 189.5 155.6 189.15 160.5 189.9 160.5
Q 190.40078125 155.4607421875 190.25 150.45
M 171.85 140.65
Q 170.8 140.15 169.9 140.2 173.15 142.1 177.4 142.6 182.7 143.55 188.05 143.05
L 190.25 142.45
Q 184.65 142.3 179.05 142.15 177.95 142 176.9 141.85 174.3 141.7 171.85 140.65
M 174.2 79.95
Q 173.35 79.25 172.95 78.95 172.1 78.35 170.7 77.9 169.05 77.4 168.25 77.1 165.35 76.1 163 74.15 160.55 72.15 160.45 72.1 158.95 71 157.55 70.95 156.55 70.9 154.75 71.5
L 143.85 75
Q 143.35 75.2 143.25 75.45 143.178515625 75.687890625 143.25 75.85 143.140234375 75.889453125 143.1 76.05 142.8626953125 76.490625 142.85 77 142.885546875 77.2421875 142.95 77.5 143.0923828125 78.069140625 143.4 78.45
L 142.5 79.25
Q 142.296484375 79.4294921875 142.1 79.6 141.4740234375 79.5001953125 140.8 79.65 140.25 79.75 139.95 80.05 139.7 80.35 139.6 81.15 139.3 84.5 139.95 85.95 140.1 86.35 140.8 87.4
L 142.25 89.4
Q 142.95 90.3 144.4 92 145.05 92.9 146 95.15 148.45 100.85 150.6 104 152.3455078125 106.5900390625 154.3 108.45 161.3951171875 114.4669921875 165.5 122.9 165.48828125 122.930859375 165.45 122.95 165.0705078125 123.1017578125 164.7 123.5 164.2169921875 123.8140625 163.9 124.25 161.45 128.05 164.75 132.65 164.80234375 132.8306640625 164.85 133 165.1 133.9 165.5 135.7 165.8927734375 137.227734375 166.7 137.4 166.713671875 137.4486328125 166.7 137.45 166.67265625 137.53203125 166.65 137.6 166.1 139 166 140.7 165.7 146.55 165.15 152.5 164.8376953125 156.52421875 164.65 160.5
L 166 160.5
Q 166.359375 157.3650390625 166.55 154.25 166.85 148.45 167.2 142.55 167.35 140.85 167.6 139.15 167.75 138.250390625 167.25 137.7 167.477734375 137.5568359375 167.65 137.35 168.75 136 170.45 135.75 174.490625 135.1955078125 178.5 135.4 179.5509765625 135.44609375 180.6 135.55 182.2900390625 135.6884765625 183.9 136 188.1685546875 136.908984375 192 139.15 190.3 140.35 188.3 140.25 183.35 140.15 178.4 140.15 178 140.15 177.6 140.1 177.238671875 140.054296875 176.85 140 173.316015625 139.44453125 170 137.9
L 169.9 137.4 170.15 136.45
Q 169.9 136.55 169.75 136.7 168.45 138.1 170.15 139.15 170.4 139.15 170.65 139.15 170.8 139.25 171 139.3 173.7265625 140.4595703125 176.55 140.9 178.2646484375 141.15 180 141.15 184.9 141.1 189.85 141.05 191.65 141 192.25 139.5 192.25 139.35 192.25 139.25 192.948828125 139.4337890625 193.2 140.05 192.9171875 141.0576171875 192.85 142.2 192.55 148.05 192 154 191.7466796875 157.266015625 191.6 160.5
L 193 160.5
Q 193.255078125 158.119140625 193.4 155.75 193.7 149.95 194.05 144.05 194.2 142.35 194.45 140.65 194.5818359375 139.8591796875 194.2 139.35 193.6640625 138.06484375 192 137.75 191.75 137.7 191.55 137.65 191.357421875 137.565234375 191.15 137.45 191.3048828125 137.0212890625 191.25 136.5 191.25 136.1 190.9 134.7
L 190.15 131.75 189.85 129.65
Q 189.8 129.4 189.8 128.05 189.9 126.95 189.65 125.9 189.4 124.4 188.45 122.7 188 121.8 187.55 121.4 187.1 121.05 186.2 120.8 184.85 120.45 184.75 120.4 183.95 120 183.55 119.8 182.8 119.45 182.25 119.5 181.9 119.5 181.75 119.7
L 181.7 119.7 179.5 112.2
Q 179.739453125 111.2556640625 179.85 110.15 180.05 106.6 180.15 104.85 180.3 102.4 180.75 99.9 181.5 95.8 181.55 94.9 181.8 92.05 180.8 90.1 180.05 88.85 179.85 88.1 179.7 87.5 179.75 85.8 179.85 84.35 179.45 83.6 179.05 82.7 177.7 82.05 176.2 81.4 175.5 80.95 175 80.65 174.2 79.95
M 174.95 82.4
Q 175.5 82.7 176.7 83.2 177.75 83.7 178.15 84.35 178.55 85.05 178.4 86.4 178.25 88.05 178.35 88.6 178.45 89.2 178.95 90 179.6 91.1 179.7 91.4 180.25 92.6 180.15 94.25 180.1 95.25 179.75 97.2 178.287890625 105.4244140625 178.4 113.55
L 178.45 115.1 178.8 114.35
Q 178.9453125 114.080859375 179.05 113.8 179.1962890625 114.4033203125 179.35 114.95
L 182.6 126.4
Q 182.5701171875 126.4396484375 182.55 126.5
L 182.65 126.85
Q 182.8 127.3 182.8 127.85
L 182.7 128.85
Q 182.75625 129.2162109375 182.85 129.45 181.8861328125 129.94765625 180.35 130.35 180.005859375 130.455078125 179.6 130.55
L 178.4 130.85 177.4 131.15
Q 175.2904296875 131.587890625 173.1 131.25 171.15 130.7 169.1 130.4 165.11796875 129.4931640625 164.8 126.25 164.953125 125.93984375 165.2 125.55 165.832421875 124.569921875 165.95 123.9 166.575 125.1658203125 167.1 126.5 166.602734375 125.0083984375 166 123.55 166.038671875 123.355078125 166 123.2 165.85 122.95 165.8 122.9
L 165.75 122.9
Q 163.4923828125 117.1625 160.1 111.75 161.85 113.95 163.75 116.05 165.769140625 118.2392578125 168.15 119.2 171.4119140625 120.541015625 175.35 119.65 173.1517578125 119.4626953125 171.2 118.9 163.32265625 116.659375 159.75 108.35
L 159.35 110.45 155 107.15
Q 153.670703125 105.81171875 152.45 104.15 149.7 100.5 147.3 94.4 146.85 93.15 146.45 92.45 146 91.65 144.85 90.3
L 142.55 87.55
Q 141.5 86.4 141.05 85.5 140.45 84.2 140.45 81.45 140.45 81 140.6 80.8 140.75 80.6 141.25 80.5
L 141.45 80.45
Q 141.2619140625 81.0294921875 141.55 81.75 141.85 82.4 142.45 82.9 143 83.3 143.8 83.55 144.6 83.75 145.1 83.55 145.55 83.35 146 82.8 146.1525390625 82.6583984375 146.3 82.5 146.4740234375 82.7740234375 146.8 83.1 147.1248046875 83.4123046875 147.35 83.7 148.15 84.6123046875 148.3 85.4 148.4 85.9 148.35 86.85 148.45 87.55 149.05 88.65 149.5822265625 89.7146484375 150.15 90.25 150.05 90.70390625 150.05 91.45
L 150.05 93.6 150.05 97.8
Q 150.05 98.5 150.25 98.75 150.5 99 151.05 99.1 151.85 99.35 152.4 99.3 152.9982421875 99.3 153.3 99
L 153.75 99.05
Q 153.898828125 98.8681640625 154.05 98.7 154.2369140625 98.541796875 154.4 98.4
L 154.45 98.45
Q 154.65 98.85 155.05 99.55 155.35 100.2 155.45 100.7 155.75 101.95 155.75 102 156.2 102.75 157.2 102.85 157.6619140625 102.92109375 158.35 102.8 158.5416015625 103.05 158.85 103.05 158.75 103.35 159.15 103.85 160.6 105.6 162.85 106.15 163.9 106.4 164.6 106.3 165.55 106.15 166 105.35 166.2 105.05 166.4 103.95 166.5701171875 103.43984375 166.65 103.05
L 168.65 105 168.8 105.1
Q 169.3 105.5 169.6 105.55
L 169.7 105.4 169.2 104.75 168.95 104.4 168.7 104.15
Q 168.35 103.95 168.2 103.85 167.6 103.2 167.25 102.85 166.99453125 102.6310546875 166.75 102.5 166.78203125 102.2970703125 166.75 102.1 166.8806640625 102.1 167 102.1 167.75 102.1 168.1 102
L 168.95 101.55
Q 171.08515625 102.25 173.25 102.25 173.8 102.25 174.05 102.15 174.4197265625 102.0021484375 174.55 101.75 174.5869140625 101.6912109375 174.6 101.6 174.1759765625 101.63984375 173.75 101.65 171.649609375 101.7205078125 169.65 101.1
L 170.05 100.65
Q 170.25 100.45 170.7 100.1 170.85 99.95 170.85 99.7 170.8853515625 99.5232421875 170.8 99.4 170.75859375 99.379296875 170.7 99.35 170.05 99.55 169.65 99.8
L 168.45 100.7 168.45 100.7
Q 167.75 100.45 167.45 100.65 167.4837890625 100.852734375 167.7 101 167.74296875 101.0423828125 167.8 101.05
L 167.45 101.15 166.3 101.2 166.2 101.15
Q 166.1400390625 101.15 166.05 101.2
L 165.55 101.25
Q 164.9 101.25 164.5 101.5
L 164.55 101.95
Q 164.9580078125 102.051953125 165.95 102.05 165.925 102.3375 165.85 102.45 165.7 102.7 165.35 103.1 165.2 103.4 165.15 104 165.05 104.5 164.5 104.85 164 105.15 163.4 105.05 162.6 105 161.4 104.1 160.408203125 103.3443359375 159.55 102.4 159.6166015625 102.2994140625 159.6 102.15 159.4828125 101.9857421875 159.2 101.85
L 159 101.6
Q 159.0619140625 101.54765625 159.1 101.5 159.35 101.2 159.35 100.55 159.35 99.85 159.45 99.55
L 159.85 98.85 160.9 96.1
Q 160.9392578125 96.0671875 161 96 161.13046875 96.4083984375 161.35 96.75 161.6 97.25 162.2 97.75 164.15 99.6 166.3 100.3 166.4 100 165.9 99.75 164.6 99.15 163.25 98.1
L 162.3 97.25
Q 162.019140625 96.8755859375 161.5 95.75 161.871484375 95.5982421875 162.4 95.4
L 164.65 94.8
Q 165.55 94.5 166.05 94.45
L 168.7 93.95 170.1 93.45
Q 171.5 92.9 172.45 91.8 172.3 91.45 171.85 91.55
L 170.05 92.45
Q 169.05 92.7 168.6 92.9
L 167.5 93.25 166.4 93.4
Q 165.55 93.45 164.65 93.8
L 163.8 94.2 162.85 94.4
Q 161.7 94.55 160.6 95.1 160.3 95.3 160.25 95.4 160.15 95.55 160.15 95.8
L 160 96.45 159.6 97.55
Q 159.4 98.3 159.1 98.75
L 158.8 99.35
Q 158.7400390625 99.5296875 158.7 99.8 158.4890625 99.63125 158.25 99.95 158.05 100.15 158.05 100.6
L 158.05 101.6
Q 157.2607421875 101.49765625 157 101.15 156.85 100.9 156.75 100.35 156.6 99.55 155.7 97.75 155.5638671875 97.49375 155.45 97.25
L 155.65 96.9
Q 155.75 96.6 155.55 96.45 155.359375 96.4818359375 155.15 96.6 154.830859375 95.768359375 154.8 95.15 154.75 94.1 155.3 92.85 155.388671875 92.6505859375 155.6 92.2 155.857421875 92.0619140625 156.1 91.75 156.35 91.55 157.2 90.4
L 159.45 87.35 161.75 91.5
Q 162 92 162.35 92.35 162.55 92.55 162.85 92.65 161.1794921875 89.7185546875 159.7 87
L 160.1 86.45
Q 160.35 86.1 160.5 86.05 160.55 86.016796875 160.6 86 162.026953125 89.309375 163.8 92.25 163.4 90.7 162.2 88.25 161.5119140625 86.89765625 161.05 85.95
L 171.5 85.85 171.5 85.8
Q 171.515234375 85.584765625 171.65 85.45 171.6 85.05 170.85 85.05
L 168.9 85.05 160.75 85.1
Q 160.7072265625 85.1 160.65 85.1 160.46484375 84.6513671875 160.35 84.35 160.12578125 83.70546875 159.95 83.35 159.866015625 83.0599609375 159.8 82.95 159.4 82.15 158.85 81.8 158.5 82.1 159 82.6 159.2859375 82.98125 159.55 83.5 159.8859375 84.1388671875 160.2 84.95 160.2373046875 85.0439453125 160.25 85.15 160.075 85.175 159.95 85.25 159.7 85.4 159.3 85.95
L 159.2 86.05
Q 158.734765625 85.2021484375 158.25 84.35 158.1673828125 84.123828125 158.05 83.9 157.9 83.75 157.75 84.05
L 157.85 84.45 157.9 84.6 158.95 86.45 157 89.4
Q 156.7544921875 89.8154296875 156.5 90.2 156.25 89.95 155.8 90.35 155.237109375 90.9318359375 154.85 91.6 154.8052734375 91.5078125 154.7 91.35 154.4650390625 91.72578125 154.55 92.2 154.1158203125 93.1109375 153.95 94.2 153.6408203125 95.938671875 154.1 97.5
L 153.95 97.6 153.7 97.8
Q 153.4 98.05 153.3 98.35 153.2525390625 98.4607421875 153.2 98.55
L 151.9 98
Q 151.6 97.9 151.45 97.7 151.3 97.55 151.3 97.1
L 151.3 92.05
Q 151.3 91.4060546875 151.35 91 151.6986328125 91.066796875 152.05 91.05 151.8037109375 90.73203125 151.55 90.4 151.811328125 89.988671875 152.4 89.4 153.95 87.85 156.4 83.65
L 157.4 81.75
Q 157.7 80.85 158 80.45 158.75 79.45 161.05 79.45
L 163.55 79.35
Q 164.15 79.35 164.25 79.05 163.95 78.8 163.25 78.8
L 161.8 78.7 160.1 78.65
Q 159.2109375 78.65 158.6 78.75 158.5798828125 78.7099609375 158.55 78.65 158.5 78.4 158.3 78.3 158.05 78.1 157.5 78.1 153.7 77.95 149.3 78.45 147.25 78.75 146.2 78.55 145.48984375 78.3818359375 145 78.05 144.7759765625 77.93671875 144.6 77.75 144.2453125 77.4458984375 144.05 77 143.9943359375 76.8333984375 143.95 76.65 143.887890625 76.33984375 143.8 76.15 144.04765625 76.17890625 144.6 76.1 146.2998046875 75.6193359375 147.75 75.2
L 147.85 75.55
Q 147.95 75.95 147.85 76.15
L 147.65 76.35
Q 147 76.85 146.5 76.95
L 146.5 77 146.5 77.1
Q 147 77.35 147.55 77.2 147.580078125 77.0794921875 147.7 76.95 147.780859375 76.8794921875 147.9 76.8 148.2 76.5 148.25 76.35
L 148.25 76
Q 148.25 75.35 148.2 75.25
L 148.1 75.1
Q 152.61796875 73.8158203125 154.8 73.15 155.9349609375 72.7888671875 156.8 72.65
L 156.85 75.15 157.15 75.1
Q 157.1818359375 75.363671875 157.25 75.5
L 157.4 75.5
Q 157.5 75.05 157.5 74.05
L 157.45 72.6
Q 157.8697265625 72.6310546875 158.2 72.7 159.1 72.9 160.1 73.65 160.4 73.85 161.7 75.05 164.6 77.65 168.3 78.85 171.3 79.8 171.95 80.2 172.4 80.5 173.45 81.3 174.35 82.1 174.95 82.4
M 184.5 123
Q 184 122.45 183.65 122.25 183.05 121.75 182.6 122.15 182.6802734375 122.3541015625 182.75 122.55 183.339453125 123.6521484375 184.45 124.25 185.05 124.6 185.2 124.8 185.7 125.35 185.5 126.3 185.4560546875 126.513671875 185.35 126.7 185.278515625 126.7 185.15 126.7
L 183.45 126.65
Q 183.5 126.45 183.35 126.3
L 183.3 126.25
Q 183.1556640625 125.0501953125 182.9 123.8
L 182.5 122.45 181.85 120.2
Q 182.401171875 120.454296875 183.55 121.05 184.7 121.65 185.4 121.85 186.5 122.2 186.65 122.35 187.05 122.65 187.5 123.7
L 188.15 125.5
Q 188.3 125.85 188.45 126.6
L 188.6 129.2
Q 188.6 130.2 188.65 130.35
L 188.85 131.1
Q 188.9 131.3 188.9 132.25 189 133.05 189.2 133.7
L 190.05 137
Q 186.990625 135.8146484375 183.65 135.05 182.9748046875 134.89921875 182.3 134.75 180.60625 134.46640625 178.9 134.3 176.0484375 134.083203125 173.15 134.3 171.7 134.25 170.5 134.6 169.45 134.85 168.55 135.4 167.8271484375 135.841796875 167.2 136.4 167.17265625 136.1783203125 167.1 135.9
L 164.4 128.8 164.4 128.8 164.45 128.9
Q 164.8 129.5 164.95 129.6
L 165.8 130.1 166.2 130.6
Q 166.45 130.85 166.8 130.7 166.8 130.628125 166.8 130.55 168.8953125 131.777734375 171.35 132.3 173.7791015625 132.8064453125 177 132.75
L 177.85 132.65 179.7 132.1 180.5 131.9
Q 182.75 131.25 183.95 130.5 184.85 130 185.7 129.05 186.1 128.55 186.45 127.9 186.7 127.2 186.6 125.4 186.56015625 125.0412109375 186.45 124.75 186.360546875 124.3005859375 186.15 124 185.9 123.7 185.4 123.45 184.7 123.15 184.5 123
M 155.15 83.2
L 154.25 84.65
Q 152.85 86.85 152.6 87.15
L 151.2 88.75
Q 150.9896484375 88.98515625 150.8 89.15 150.4212890625 88.4427734375 150.1 87.65 149.7 86.6 149.6 86.2 149.6 85.55 149.6 85.25 149.55 84.65 149.4 84.3 149.3 83.95 148.6 83.15
L 147.2 81.6
Q 147.1392578125 81.5392578125 147.05 81.5 147.1427734375 81.3970703125 147.2 81.3 148.15 80.7 148.35 80.05 148.3599609375 79.98984375 148.35 79.9 149.86015625 79.923828125 152.15 79.75
L 157.35 79.3
Q 157.075 79.589453125 156.8 80.1 156.65 80.5 156.3 81.25 156.1 81.7 155.15 83.2
M 144.2 79.2
Q 144.221875 79.1798828125 144.25 79.15 145.1416015625 79.696484375 146.6 79.85 146.7755859375 79.871875 146.95 79.9
L 146.45 80.35
Q 145.9 80.85 145.55 81.3 144.75 82.2 144.4 82.25 144 82.35 143.4 81.95 142.85 81.65 142.65 81.3 142.45 80.8 143.15 80.1 143.1744140625 80.0791015625 143.2 80.05
L 143.45 80
Q 143.39140625 79.970703125 143.3 79.95 143.663671875 79.659765625 144.2 79.2
M 160.85 97.15
L 160.8 97.25 160.65 97.3 161.3 97.85
Q 161.8 98.2 161.85 98.35
L 162 98.25 161.45 97.7
Q 161 97.4 160.85 97.15
M 168.75 119.5
L 168.45 119.6 173.4 122.55 173.7 122.45 168.75 119.5 Z"/>

<path fill="#60BCCC" stroke="none" d="
M 147.65 160.5
Q 144.6810546875 158.2359375 141.8 155.85 139.85 154.2 137.25 153.95 135.4646484375 153.558203125 134.6 152.1 132.67890625 151.31171875 130.95 150.55 133.2173828125 153.87265625 135.05 157.6 135.35 158.25 135.55 158.95 135.7880859375 159.7275390625 136 160.5
L 137.55 160.5 138.8 155.45 138.9 155.35 138.5 158.05
Q 138.2208984375 159.3166015625 137.9 160.5
L 139.25 160.5
Q 139.612109375 159.751171875 139.75 159.2 139.85 158.75 140.05 158.6 140.15 158.45 140.35 158.5 140.55 158.5 140.6 158.65 140.2810546875 159.606640625 139.9 160.5
L 147.65 160.5
M 81.3 131.35
Q 82.187109375 132.30546875 82.8 133.15 82.930859375 133.2076171875 83.1 133.3 85.85 134.85 88.7 137.55 90.5 139.2 93.6 142.65 101.3 151.15 104.7 155.7
L 106.5 158.1
Q 107.44609375 159.3615234375 108.25 160.5
L 124.7 160.5
Q 120.1087890625 155.933984375 113.75 150.9 103.3 143.1 101.55 141.6 101.55 141.85 101.8 141.85 102.75 143.25 108.8 149.8 114.85 156.45 115.15 156.85
L 115 156.85
Q 87.75 136.1 81.3 131.1
L 81.3 131.35
M 91 139.65
Q 91.35 139.6 91.85 140 100.45 146.75 107.9 154.3 109.3 155.7 109.7 156.4 100.65 147.15 91 139.65
M 62.9 109.15
Q 63.55 109.05 64.55 109.5 72.05 112.7 87.15 118.7 90.2650390625 120.009765625 93.1 121.3
L 93.75 121.3 93.75 118.75
Q 78.8826171875 111.188671875 66.05 106.45 64.15 105.75 63.15 105.8 61.4384765625 105.8 60.7 107.05 60.855078125 107.434765625 60.7 107.9 58.6 109.8 55.7 111.25 53.85 112.1 53.4 112.9 53.1 113.4 52.9 114.45 52.7 115.55 52.45 116 51.95 117.05 49.9 118.15 45.7 120.7 43.35 124.9 42.9 125.7 41.7 128.3 40.65 130.45 39.85 131.65 39.5 132.2 38.4 133.6 37.5 134.75 37.05 135.5 36.15 137.15 35.4 140.35 35.3298828125 140.6423828125 35.25 140.9 35.7029296875 140.4470703125 36.35 139.8 39.65 136.5 41.45 135.05 45.9 131.4 52.85 128.3 51.8 129.2 50.15 130.2 49.2 130.75 47.3 131.85 43.15 134.2 39.3 137.75
L 37.5 139.55
Q 35.9546875 141.0953125 34.85 142.35 34.360546875 144.3421875 33.95 145.3 33.8 145.7 32.9 147.45 32.25 148.75 32 149.65 31.8 150.35 31.75 151.4 31.7 152 31.65 153.2 31.6 155.1 31.15 158.9 31.08671875 159.7353515625 31.1 160.5
L 34.55 160.5
Q 35.284375 156.7431640625 38 150.75
L 43.9 137.4
Q 44.2 137.2 44.3 137.55 41.35 145.05 37.6 153.3 35.95 157 35.55 158.5 35.2056640625 159.808203125 34.85 160.5
L 50.45 160.5
Q 49.6150390625 158.346875 49.55 156.85 49.55 156.5 48.85 153.7 48.2 151.1 48.4 149.5
L 48.4 143.6
Q 48.4 136.05 50.9 134.45 51.85 133.8 55.25 132.6 59.5 131.15 62.75 129.65
L 62 129.65
Q 54.75 130.6 52.25 130.6
L 52.25 130.45
Q 51.3142578125 130.8197265625 50.55 131.3 50 131.65 49.75 131.35 51.166796875 130.5333984375 52.8 130 54.8498046875 128.5640625 58.15 127.2 62.0240234375 125.6048828125 64.4 125.6 60.3359375 125.35 59.75 125.35 52.8 125.35 49.35 126.3
L 48.15 126.3
Q 53.05 120.85 57 118.45 61.3 115.85 65.95 115.85 67.5 115.85 77.7 118.05 87.9 120.25 91.1 121.3
L 91.65 121.3
Q 83.2869140625 117.594921875 75.5 114.6 70.4 112.65 69.1 112.1 65.5 110.6 62.9 109.15
M 63.4 112.65
Q 63.55 112.5 63.8 112.5 64.2 112.6 63.95 112.95
L 63 113.5
Q 53.45 119.9 48.45 125.7
L 42.85 132.9
Q 42.95 132.2 43.65 131.1 50.4 120.75 63.4 112.65
M 47.45 124.1
Q 47.75 124.45 47.2 124.9 44.45 127.85 42.45 131.3 42.05 132.05 41.2 133.5 40.45 134.7 39.7 135.5 42.45 129.15 47.45 124.1
M 39.45 151
Q 39.45 151.55 39.1 152.25
L 35.35 160.2
Q 35.1 160.3 35.25 159.85
L 39.45 151
M 179.7 132.1
L 177.85 132.65 177 132.75
Q 173.7791015625 132.8064453125 171.35 132.3 168.8953125 131.777734375 166.8 130.55 166.8 130.628125 166.8 130.7 166.45 130.85 166.2 130.6
L 165.8 130.1 164.95 129.6
Q 164.8 129.5 164.45 128.9
L 164.4 128.8 164.4 128.8 167.1 135.9
Q 167.17265625 136.1783203125 167.2 136.4 167.8271484375 135.841796875 168.55 135.4 169.45 134.85 170.5 134.6 171.7 134.25 173.15 134.3 176.0484375 134.083203125 178.9 134.3 179.2880859375 133.2232421875 179.65 132.3 179.6689453125 132.207421875 179.7 132.1 Z"/>

<path fill="#A5DBDC" stroke="none" d="
M 77.7 118.05
Q 67.5 115.85 65.95 115.85 61.3 115.85 57 118.45 53.05 120.85 48.15 126.3
L 49.35 126.3
Q 52.8 125.35 59.75 125.35 60.3359375 125.35 64.4 125.6 62.0240234375 125.6048828125 58.15 127.2 54.8498046875 128.5640625 52.8 130 56.0333984375 128.95 60.1 129.05 60.1 129.3 59.65 129.3 56.2 129.5 54.95 129.75 53.4572265625 130.003515625 52.25 130.45
L 52.25 130.6
Q 54.75 130.6 62 129.65
L 62.75 129.65
Q 59.5 131.15 55.25 132.6 51.85 133.8 50.9 134.45 48.4 136.05 48.4 143.6
L 48.4 149.5
Q 48.2 151.1 48.85 153.7 49.55 156.5 49.55 156.85 49.6150390625 158.346875 50.45 160.5
L 107.1 160.5
Q 106.2302734375 159.459375 105.3 158.25 100.95 152.5 100.4 151.85
L 91.2 141.5
Q 88.85 138.8 86.9 137.1 85.833984375 136.15703125 83.7 134.7 83.221875 134.3919921875 82.7 134.05 82.15 133.6 82.35 133.25 82.4884765625 133.076953125 82.8 133.15 82.187109375 132.30546875 81.3 131.35
L 81.3 131.1
Q 87.75 136.1 115 156.85
L 115.15 156.85
Q 114.85 156.45 108.8 149.8 102.75 143.25 101.8 141.85 101.55 141.85 101.55 141.6 103.3 143.1 113.75 150.9 120.1087890625 155.933984375 124.7 160.5
L 134.7 160.5
Q 134.1314453125 158.87890625 133.35 157.35 131.2294921875 153.30625 128.7 149.5 128.6849609375 149.452734375 128.65 149.4 127.7 147.9 126.45 146.5 124.05 143.9 121.8 141.3 120.5 139.8 119.4 138.15 119.25 137.95 119.25 137.7 120.95 138.6 122.05 140.15 123 141.5 124.3 142.65 125.1533203125 143.4423828125 125.95 144.25
L 125 142.55
Q 125 142.5 125.2 142.5
L 126.6 144.95
Q 127.3931640625 145.79765625 128.1 146.65 129.6150390625 148.525 130.95 150.55 132.67890625 151.31171875 134.6 152.1 134.5033203125 151.8888671875 134.4 151.65 133.75 150.25 133.3 148.85 131.9 144.25 128 141.3 124.4 138.55 121.75 135 121.5494140625 134.728515625 121.3 134.4 119.7 132.25 118.45 131.15 118.203515625 130.9958984375 118.05 130.8 117.9419921875 131.05 117.75 131.05 117.55 131 117.45 130.75 117.25 130.4 117.3 129.5 117.35 128.65 117.1 128.25 116.6 127.75 116.4 127.4 114.846484375 126.7458984375 113.75 125.5 113.7427734375 125.5740234375 113.7 125.6
L 113.75 125.7 113.8 126.5
Q 113.8 127.6796875 113.7 128.4 113.721484375 128.5208984375 113.7 128.65 113.683984375 128.6982421875 113.65 128.75
L 113.65 128.8 113.6 128.8
Q 113.5443359375 128.9638671875 113.4 129 111.3 128.25 107.4 126.05 100.3728515625 122.1203125 93.75 118.75
L 93.75 121.3 93.1 121.3
Q 102.39140625 125.4771484375 109 129.45 100.0349609375 125.017578125 91.65 121.3
L 91.1 121.3
Q 87.9 120.25 77.7 118.05
M 98.4 125.9
Q 96.55 124.9 95.95 124.4 103 127.55 109.1 131.05 108.2 130.75 106.5 129.95
L 98.4 125.9
M 183.65 122.25
Q 184 122.45 184.5 123 184.7 123.15 185.4 123.45 185.9 123.7 186.15 124 186.360546875 124.3005859375 186.45 124.75 186.56015625 125.0412109375 186.6 125.4 186.7 127.2 186.45 127.9 186.1 128.55 185.7 129.05 184.85 130 183.95 130.5 182.75 131.25 180.5 131.9
L 179.7 132.1
Q 179.6689453125 132.207421875 179.65 132.3 179.2880859375 133.2232421875 178.9 134.3 180.60625 134.46640625 182.3 134.75 182.9748046875 134.89921875 183.65 135.05 186.990625 135.8146484375 190.05 137
L 189.2 133.7
Q 189 133.05 188.9 132.25 188.9 131.3 188.85 131.1
L 188.65 130.35
Q 188.6 130.2 188.6 129.2
L 188.45 126.6
Q 188.3 125.85 188.15 125.5
L 187.5 123.7
Q 187.05 122.65 186.65 122.35 186.5 122.2 185.4 121.85 184.7 121.65 183.55 121.05 182.401171875 120.454296875 181.85 120.2
L 182.5 122.45
Q 182.6474609375 122.49375 182.75 122.55 182.6802734375 122.3541015625 182.6 122.15 183.05 121.75 183.65 122.25 Z"/>

<path fill="#724947" stroke="none" d="
M 75.65 66.3
L 75.45 65.6
Q 75.5306640625 64.874609375 75.45 64.35 75.2193359375 64.761328125 75.1 65 74.7 65.7 74.7 66.15 74.75 66.85 75.8 67.7 75.871875 67.819921875 75.95 67.85 75.930078125 67.6705078125 75.9 67.55
L 75.7 67 75.65 66.3
M 87.05 56.95
L 87.1 56.9
Q 87.189453125 56.661328125 87.35 56.45 86.908203125 56.005078125 86.55 55.5 86.155859375 55.966015625 85.9 56.45 86.35078125 56.640625 87 56.95 87.0408203125 56.940234375 87.05 56.95 Z"/>

<path fill="#FFFFFF" stroke="none" d="
M 77.25 67.4
Q 77.25 67.4890625 77.25 67.6 77.299609375 67.6142578125 77.35 67.6
L 77.25 67.4
M 131.05 79.7
Q 131.1029296875 79.761328125 131.15 79.8 131.3744140625 79.9716796875 131.6 80.15
L 131.6 79.55
Q 131.2970703125 79.685546875 131.05 79.7 Z"/>

<path fill="#84665C" stroke="none" d="
M 100.25 52
Q 100.1794921875 51.8056640625 100.15 51.45
L 91.45 53.15
Q 91.074609375 53.290234375 90.7 53.4 87.8671875 54.2330078125 86.55 55.5 86.908203125 56.005078125 87.35 56.45 87.4587890625 56.35078125 87.6 56.25 89.3 54.85 91.9 54 93.45 53.45 96.75 52.75
L 100.25 52
M 105.05 50.85
Q 104.593359375 50.7890625 104.4 50.6
L 100.65 51.35
Q 100.5505859375 51.69609375 100.45 51.95
L 105.5 50.9
Q 105.2748046875 50.8875 105.05 50.85
M 128.1 47.15
Q 128.1642578125 46.9509765625 128.2 46.75
L 128.15 46.75
Q 128.141015625 46.9603515625 128.1 47.15
M 125.65 48.5
Q 125.465234375 48.5666015625 125.25 48.6 125.5890625 49.1640625 125.75 50.25
L 126.4 54.4
Q 126.5896484375 55.80390625 126.9 56.8 127.0294921875 57.12265625 127.15 57.4 127.95 59.05 129.35 59.45 129.9970703125 59.665625 130.65 59.45 129.9232421875 58.491015625 129.4 57.35 129.4 57.4740234375 129.4 57.5 129.45 57.7 129.8 58.45 130.05 59 130.1 59.35 129.1 59.45 128.7 58.2 128.55 57.85 128.5 57.25 128.4 56.45 128.35 56.25 128.25 55.65 127.85 54.45 127.35 52.8 127.3 50.55 127.3 49.35 127.45 46.55 127.6 46.15 127.65 46.1 127.726953125 46.023046875 127.95 46 127.6359375 45.883984375 127.3 45.8 126.35 45.6 125.9 45.85
L 125 46.45
Q 124.74453125 46.577734375 124.3 46.65
L 120.9 47.3 120.9 47.35
Q 120.8564453125 47.69765625 120.25 47.9 121.766796875 47.79765625 122.9 47.65 124.032421875 47.498046875 124.8 47.3 125.3 47.15 125.75 47.2 126.35 47.3 126.35 47.85 126.3 48.3 125.65 48.5 Z"/>

<path fill="#FAD7CC" stroke="none" d="
M 113.2 101.15
Q 113.3408203125 101.229296875 113.5 101.3 113.4412109375 101.2240234375 113.4 101.15
L 113.2 101.15
M 121.65 107.75
Q 121.7830078125 107.7548828125 121.9 107.7 119.8541015625 105.9109375 117.7 104.25 115.0552734375 102.24375 113.5 101.3 113.748828125 101.7974609375 114.25 102.8
L 114.25 102.85
Q 114.762109375 103.1630859375 115.3 103.45 114.769921875 103.2552734375 114.25 103.05 110.773828125 101.643359375 107.75 99.55 105.4146484375 97.927734375 103.35 95.85 109.1955078125 102.2072265625 116.5 107.05 117.6767578125 107.8345703125 119.15 108.75 119.3693359375 108.584375 119.65 108.4 118.99453125 107.9677734375 118.25 107.35 118.05 107.15 118.15 107 118.4 106.9 118.7 107.2 119.3908203125 107.76015625 120.05 108.2 120.141796875 108.1923828125 120.25 108.15 120.5083984375 108.0576171875 120.8 107.95 119.96796875 107.6486328125 119.65 107.45 119.05 107.15 118.05 106.35
L 116.85 105.45
Q 116.5 105.1 116.7 104.95 116.95 104.95 117 104.8 119.45 106.85 120.9 107.45 121.3193359375 107.619921875 121.65 107.75
M 100.7 91.85
Q 100.55 91.295703125 100.55 90.8 100.55 90.43828125 100.65 89.25
L 100 91.15
Q 100.3755859375 91.513671875 100.7 91.85
M 92.95 80.15
Q 92.7537109375 80.203515625 92.4 80.2 90.765234375 81.144921875 89.5 82 89.5 82.1322265625 89.9 82.95
L 91.05 84.35
Q 95.2 89.65 96.65 92.3
L 91.5 85.7
Q 91.9634765625 86.509765625 92.55 87.5 93.223046875 88.6115234375 93.75 89.55 95.8173828125 91.425 98.75 95.05 99 95.3 98.8 95.45 96.0201171875 92.0607421875 94.2 90.25 95.9919921875 93.347265625 96.35 94.35
L 96.35 94.6
Q 89.1 90.6 87.75 89.85 86.25 89.1 84.8 89.1 82.95 89.1 79.25 91.85 75.85 94.3 75.85 94.65 84.1521484375 109.3009765625 87.1 113.9 91.2994140625 115.91640625 95.85 118.3 98.1775390625 119.5046875 101.4 121.25 107.135546875 123.5544921875 107.8 123.75
L 107.8 122.05
Q 105.9 118.25 102.55 110.7 99.4 103.5 98.75 102.25
L 98.75 102
Q 99.1048828125 102.976171875 103.5 107.35 101.6068359375 103.768359375 100.1 101.7 100.5 101.5 100.95 102.1 102.609375 104.4705078125 104.65 108.45 104.66875 108.46953125 104.7 108.5 105.7134765625 109.487890625 106.55 110.3 106.426953125 110.01171875 106.3 109.75
L 105.15 107.5
Q 105.05 107.4 105.1 107.2 105.1 107 105.25 107.05 106.1693359375 108.8583984375 106.95 110.7 110.7033203125 114.374609375 110.9 114.65 111.8 114.55 112.05 113.75 112.1 113.5 112.1 112.05 112.1 111.2 109.65 108.15 106.3 103.95 104 99.6 101.95 95.2 100.65 93
L 100.65 92.8
Q 99.3525390625 91.1921875 98.2 89.35 98.9994140625 90.1681640625 99.85 91 99.79921875 90.8283203125 99.85 90.6 99.9 90 100.2 88.9
L 100.75 87.1
Q 100.85 86.05 100.9 85.55
L 101.1 84.35
Q 101.1 83.462109375 101.15 82.85 100.8029296875 80.9734375 98.55 76.85 97.1833984375 74.3619140625 96.15 72.7 96.3 74.15625 96.3 75 96.25 76.65 95.65 77.85 95.3 78.65 94.7 78.9
L 94.65 78.9
Q 94.2263671875 79.04609375 93.65 78.95 93.55 79.14296875 93.35 79.4 93.140234375 79.66953125 93.05 79.85 92.9701171875 80.0296875 92.95 80.15
M 85.55 57.25
Q 85.15 57.05 83.95 56.95
L 81.05 56.95
Q 80.35 56.95 80.05 57.05 79.4 57.25 78.75 58.05 77.75 59.35 77.4 60.95 77.05 62.6 77.45 64.15
L 77.9 65.4
Q 78.15 66.15 79.15 68.2
L 80.05 70.1
Q 80.45 71 80.75 71.4 80.85 71.55 82.5 72.9
L 83.65 73.85
Q 84.05 74.05 85.45 74.5 87.55 75.05 92.35 77.2 93.6 77.7 94.1 77.4 94.55 77.15 94.8 76.5 95.1 75.7 95.2 74.4
L 95.45 71.7
Q 95.3716796875 71.59921875 95.3 71.5 94.6 70.5 94.6 68.7 94.65 65.8 94.6 65.45 94.0923828125 61.4353515625 88.3 58.3 88.7072265625 58.741015625 89.35 59.15 89.95 59.55 91.15 60.3 92.6 61.5 93.05 63.2 92.65 63.1 92.3 62.6 91.9 62.05 91.7 61.75 91.25 61.15 90.4 60.6 89.45 60 88.95 59.65 87.6626953125 58.769140625 87.2 57.85 87.00625 57.8541015625 86.75 57.8 85.95 57.4 85.55 57.25
M 85.4 59.95
Q 84.55 59.2 83.7 58.9 83.1 58.7 82.75 58.75 81.95 58.9 81.4 59.85 80.75 61.05 80.95 62.3 81.05 62.75 80.95 63 80.85 63.45 80.5 63.3
L 80.45 61.25
Q 80.45 60.1 80.75 59.65
L 81.45 58.7
Q 81.65 58.15 81.8 58.05 81.95 57.95 82.3 57.95 83.85 57.8 85.2 58.75 85.45 58.9 86.2 59.65
L 88.75 62.15
Q 89.45 62.85 90.1 63.75
L 91.85 65.95
Q 92.9 67.3 93.3 68.25 93.75 69.1 93.5 69.75 93.1 70.05 92.65 69.5 92.6 69.4 92.3 68.55 92 67.85 90.95 67.05
L 88.9 65.65
Q 88.25 65.45 87.85 65.65 87.45 67.1 88.5 68.15 88.85 68.55 89.75 69.2 89.9 69.35 90.7 70.3 91.25 71 91.8 71.25
L 91.65 71.4
Q 90.75 71 90.1 70.3 89.55 69.65 89.35 69.5
L 88.6 69.05 88.05 68.5
Q 87.5 67.95 87.25 67.45 87.1 67.05 87.1 66.25 87 65 87.6 64.65 88.1 64.35 88.75 64.65 89.75 64.95 89.85 64.95 89.25 64.25 89.15 64.05 88.6 63.15 88.25 62.8 87.95 62.45 87.15 61.85
L 86.45 61.2
Q 85.8 60.35 85.4 59.95
M 81.85 69.2
Q 82.25 69.6 83.1 70.35 84.15 71.5 84.5 71.7 85.25 72.05 85.35 72.35 84.25 72.3 82.65 70.8 81 69 80.65 68.5 79.8 67.3 79.85 66.15
L 80.15 66.15
Q 80.55 66.65 80.85 67.85 81.15 68.45 81.85 69.2
M 115.05 54.5
Q 115.1017578125 54.487109375 115.15 54.45 115.1982421875 54.3154296875 115.25 54.15 116 52.05 116.4 50.5 116.492578125 50.2533203125 117.65 49.75 115.6935546875 50.053515625 113.2 50.6
L 100.7 53.35
Q 100.6998046875 54.151171875 100.5 55.25
L 99.7 64.25
Q 99.8103515625 64.4814453125 99.95 64.7 99.94453125 64.4888671875 99.95 64.25 100.35 64.3 100.35 64.95 100.391796875 65.2337890625 100.45 65.5 100.83359375 66.9419921875 102 68.4
L 104.75 71.15
Q 105.6 71.95 110.65 77.85 112.6283203125 80.1392578125 114.4 81.7 115.817578125 82.945703125 117.1 83.75 116.246875 83.52109375 115.35 83 116.62421875 84.7205078125 117.95 86.4 120.85 90.1 121.6 90.4
L 121.6 89.15
Q 121.2 88.45 121 87.25 120.973046875 87.0716796875 120.95 86.9 120.8998046875 86.8330078125 120.85 86.75
L 120.35 85.8
Q 120.1 85.2 120.15 85
L 120.5 85
Q 120.619140625 85.3078125 120.75 85.6
L 120.75 85.35
Q 120.75 86.3 125.8 90.85 125.8 90.35 125.2 87.3 124.55 84.15 124.35 83.7
L 124.35 83.45
Q 124.6501953125 83.7619140625 124.95 84.1 124.9982421875 83.5931640625 124.95 83.4 125.15 83.1 125.35 83.4 125.55 83.6 125.45 83.85
L 125.45 84.3
Q 125.45 84.4 125.85 84.9 126 85.1 126.25 85.6 126.5 86.1 126.7 86.3
L 127.25 86.7
Q 127.35 86.75 127.6 87.15
L 128.45 88.45
Q 129.3 89.95 129.25 90.75
L 129.25 90.8
Q 129.1521484375 91.3107421875 129.2 91.55
L 129.55 92.05 130 92.5
Q 130.1037109375 92.6037109375 130.3 92.7 130.4591796875 92.8037109375 130.7 92.9 132.15 93.6 133 94.3
L 133.4 94.55 133.85 94.6 136.45 94.5
Q 137.0931640625 94.5 137.4 94.3
L 136.8 91.05
Q 136.462109375 91.020703125 136.1 90.9 135.9 90.85 134.9 90.35 134.05 89.95 132.7 89.7 131.2 89.5 130.45 89.35 130.1 89.25 130.1 89.05
L 132.85 89.45
Q 133.95 89.6 134.75 89.95
L 136.1 90.55
Q 136.5287109375 90.6818359375 136.75 90.85
L 136.6 90.05
Q 136.9568359375 89.9310546875 137.25 90.15 137.3884765625 89.6982421875 137.65 89.25 138.4 88.35 138.55 87.8 138.9 86.55 137.75 85.5 137.3 85.05 135.65 84.2 132.95 82.9 130.35 80.8 130 80.55 129.85 80.2 129.65 79.8 129.9 79.55 130.199609375 79.212890625 130.75 79.5 130.7501953125 79.1998046875 131.15 78.8 133.05 77.1 135.35 76.1 136.9 75.45 137.4 74.85 137.2 74.2 136.85 71.85 136.65 70.45 136.55 68.95 136.55 68.7615234375 136.55 68.6 135.0625 67.5 134.75 67.5 133.55 67.5 131.7 69.55 130.8654296875 70.4244140625 130.15 71.45 130.2203125 70.873828125 130.25 70.2
L 129 74.7
Q 128.3 76.9 127.3 78.75
L 127 78.8
Q 126.95 78.35 127.2 77.7 127.5 77 127.6 76.65 127.95 75.85 128.6 73.45
L 129.55 69.85
Q 129.9201171875 68.6287109375 130.1 67.5 130.198046875 67.1267578125 130.25 66.75
L 130.4 65.6
Q 130.4828125 65.20703125 130.5 64.9
L 130.5 64.4
Q 130.5 63.35 130.55 63.2 130.5783203125 63.09375 130.6 63 130.6345703125 62.8271484375 130.65 62.75 130.85 61.8 131.6 61.8 131.7314453125 61.9314453125 131.65 62.1 131.7337890625 62.0751953125 131.8 62.05 132.29609375 61.8400390625 132.8 61.75 133.6150390625 61.614453125 134.45 61.8 134.85 61.95 134.85 62.1 134.6 62.3 134.15 62.3 133.7642578125 62.33515625 133.5 62.35 133.3896484375 62.35 133.3 62.35 132.5 62.35 131.75 62.85 131.4 63.1 131.35 63.25 131.25 63.45 131.25 63.85 131.25 64.5 131.45 64.8 131.9 65.65 133.2 65.35 133.85 65.2 135.1 64.7 135.415234375 64.6298828125 136 64.6 137.645703125 64.1 138.2 64.1 139.6 64.1 140.55 64.75 140.7205078125 64.857421875 140.85 64.95 140.9634765625 64.68125 140.9 64.3 140.85 63.1 140 61.85 139.55 61.15 138.3 59.8
L 133.1 54.7
Q 133.088671875 55.4236328125 133.15 56.2 133.2 56.75 133.35 57.9 133.35 58.85 133.05 59.45 132.603125 60.294140625 131.65 60.7
L 131.65 60.7
Q 130.8 61.05 129.8 60.95 127.8 60.8 126.5 59.15 126.48203125 59.12734375 126.45 59.1 125.5697265625 62.4681640625 123.4 65.25 122.932421875 66.508203125 122.25 67.6 122.512890625 66.843359375 122.7 66.1 123.4212890625 63.729296875 123.65 61.5 123.7998046875 60.044921875 123.75 58.65 123.75 58.5623046875 123.75 58.45 123.728125 57.588671875 123.5 56.95
L 123.45 56.9 122.6 55.75
Q 121.876953125 55.25 120.55 55.25 120.3 55.25 117.75 56.3 116.49296875 56.846484375 115.7 57.2 115.153515625 57.55703125 114.8 57.75
L 112.5 58.9
Q 112.45 58.65 112.75 58.35 113.2 57.95 114.3 57.45 114.4908203125 57.3544921875 114.75 57.15
L 114.75 56.8
Q 114.75 56.1119140625 114.95 55.15
L 113.15 55.55
Q 111.2 55.9 110.4 55.5 110.65 55.25 111.25 55.15 114.3 54.7 115.05 54.5
M 117.15 58.7
L 119.05 57.55
Q 119.6 57.25 119.7 57.25
L 119.95 57.45
Q 119.55 57.8 118.65 58.25 117.75 58.75 117.35 59.05
L 116.65 59.6
Q 116.35 59.9 115.85 59.8 116.25 59.4 117.15 58.7
M 118.4 85.15
Q 117.2 83.35 117 81.9 117.4 81.95 117.75 82.95 117.95 83.75 118.65 84.75 119.05 85.3 119.85 86.4 120.75 87.85 121.15 89.3 120.85 89.05 120.4 88.15 119.05 86.15 118.4 85.15
M 132.6 88.75
L 131.65 88.3
Q 131.25 88.1 131.3 87.85 132.1 88 133.25 88.6
L 136.35 89.95
Q 136.45 90.05 136.3 90.15
L 136.1 90.15
Q 134.9 89.85 132.6 88.75
M 124.1 39.6
Q 122.95 38.9 121.85 37.35 120.7 35.5 120.05 34.6 117.7 31.25 114.15 29.35 112.35 28.35 108.85 27.3 107.4134765625 26.873828125 105.95 26.45 105.7908203125 26.57265625 105.6 26.6 105.2 26.7 105 26.35 104.9771484375 26.2927734375 104.95 26.2 102.3080078125 25.5685546875 99.6 25.05 99.2435546875 24.9990234375 99 24.9
L 99.25 25.2
Q 100.55 26.7 101.5 28.25 102.3 29.7 102.6 30.95 102.8 31.6 103 33.1
L 103.2 34.5
Q 103.45 36.4 103.3 38.1 103.15 39.5 102.85 40.75
L 101.3 48.7
Q 101.237109375 48.9796875 101.15 49.25
L 124.85 44.65 125.65 44.3
Q 126.36328125 44.0962890625 127.3 44.25 127.21796875 43.978515625 127.2 43.6 127.2 42.3 127 41.9 126.7 41.15 125.8 40.55 124.65 39.95 124.1 39.6
M 148.3 85.4
Q 148.15 84.6123046875 147.35 83.7 147.4 83.9263671875 147.4 84.15 147.4 85.05 147.05 86.2 146.65 87.4 146.65 87.8 146.65 87.85 149.1 91.9 149.6171875 92.802734375 150.05 93.6
L 150.05 91.45
Q 150.05 90.70390625 150.15 90.25 149.5822265625 89.7146484375 149.05 88.65 148.45 87.55 148.35 86.85 148.4 85.9 148.3 85.4
M 147.85 75.55
L 147.75 75.2
Q 146.2998046875 75.6193359375 144.6 76.1 144.04765625 76.17890625 143.8 76.15 143.887890625 76.33984375 143.95 76.65 143.9943359375 76.8333984375 144.05 77
L 146.5 77 146.5 76.95
Q 147 76.85 147.65 76.35
L 147.85 76.15
Q 147.95 75.95 147.85 75.55
M 176.7 83.2
Q 175.5 82.7 174.95 82.4 174.35 82.1 173.45 81.3 172.4 80.5 171.95 80.2 171.3 79.8 168.3 78.85 164.6 77.65 161.7 75.05 160.4 73.85 160.1 73.65 159.1 72.9 158.2 72.7 157.8697265625 72.6310546875 157.45 72.6
L 157.5 74.05
Q 157.5 75.05 157.4 75.5
L 157.25 75.5
Q 157.1818359375 75.363671875 157.15 75.1
L 156.85 75.15 156.8 72.65
Q 155.9349609375 72.7888671875 154.8 73.15 152.61796875 73.8158203125 148.1 75.1
L 148.2 75.25
Q 148.25 75.35 148.25 76
L 148.25 76.35
Q 148.2 76.5 147.9 76.8 147.780859375 76.8794921875 147.7 76.95 151.034375 76.505859375 157.2 75.55 158.15 75.55 160.3 76.6 161.5 77.15 163.85 78.4
L 163.85 78.65
Q 162.7271484375 78.6814453125 161.8 78.7
L 163.25 78.8
Q 163.95 78.8 164.25 79.05 164.15 79.35 163.55 79.35
L 161.05 79.45
Q 158.75 79.45 158 80.45 157.7 80.85 157.4 81.75
L 156.4 83.65
Q 153.95 87.85 152.4 89.4 151.811328125 89.988671875 151.55 90.4 151.8037109375 90.73203125 152.05 91.05 151.6986328125 91.066796875 151.35 91 151.3 91.4060546875 151.3 92.05
L 151.3 97.1
Q 151.3 97.55 151.45 97.7 151.6 97.9 151.9 98
L 153.2 98.55
Q 153.2525390625 98.4607421875 153.3 98.35 153.4 98.05 153.7 97.8
L 153.95 97.6
Q 153.8595703125 96.8630859375 153.7 95.7 153.35 93.1 153.35 91.9 153.35 89.5 153.6 88.6 153.95 87.35 155.25 86.5 156.4828125 85.66484375 157.9 84.6
L 157.85 84.45 157.75 84.05
Q 157.9 83.75 158.05 83.9 158.1673828125 84.123828125 158.25 84.35 158.734765625 85.2021484375 159.2 86.05
L 159.3 85.95
Q 159.7 85.4 159.95 85.25 160.075 85.175 160.25 85.15 160.2373046875 85.0439453125 160.2 84.95 159.8859375 84.1388671875 159.55 83.5 159.2859375 82.98125 159 82.6 158.5 82.1 158.85 81.8 159.4 82.15 159.8 82.95 159.866015625 83.0599609375 159.95 83.35 160.4748046875 83.15 160.85 83.15 163.65 83.15 166.2 84.1 167.737109375 84.6685546875 168.9 85.05
L 170.85 85.05
Q 171.6 85.05 171.65 85.45 171.515234375 85.584765625 171.5 85.8
L 171.5 85.85 161.05 85.95
Q 161.5119140625 86.89765625 162.2 88.25 163.4 90.7 163.8 92.25 162.026953125 89.309375 160.6 86 160.55 86.016796875 160.5 86.05 160.35 86.1 160.1 86.45
L 159.7 87
Q 161.1794921875 89.7185546875 162.85 92.65 162.55 92.55 162.35 92.35 162 92 161.75 91.5
L 159.45 87.35 157.2 90.4
Q 156.35 91.55 156.1 91.75 155.857421875 92.0619140625 155.6 92.2 155.388671875 92.6505859375 155.3 92.85 154.75 94.1 154.8 95.15 154.830859375 95.768359375 155.15 96.6 155.359375 96.4818359375 155.55 96.45 155.75 96.6 155.65 96.9
L 155.45 97.25
Q 155.5638671875 97.49375 155.7 97.75 156.6 99.55 156.75 100.35 156.85 100.9 157 101.15 157.2607421875 101.49765625 158.05 101.6
L 158.05 100.6
Q 158.05 100.15 158.25 99.95 158.4890625 99.63125 158.7 99.8 158.7400390625 99.5296875 158.8 99.35
L 159.1 98.75
Q 159.4 98.3 159.6 97.55
L 160 96.45 160.15 95.8
Q 160.15 95.55 160.25 95.4 160.3 95.3 160.6 95.1 161.7 94.55 162.85 94.4
L 163.8 94.2 164.65 93.8
Q 165.55 93.45 166.4 93.4
L 167.5 93.25 168.6 92.9
Q 169.05 92.7 170.05 92.45
L 171.85 91.55
Q 172.3 91.45 172.45 91.8 171.5 92.9 170.1 93.45
L 168.7 93.95 166.05 94.45
Q 165.55 94.5 164.65 94.8
L 162.4 95.4
Q 161.871484375 95.5982421875 161.5 95.75 162.019140625 96.8755859375 162.3 97.25
L 163.25 98.1
Q 164.6 99.15 165.9 99.75 166.4 100 166.3 100.3 164.15 99.6 162.2 97.75 161.6 97.25 161.35 96.75 161.13046875 96.4083984375 161 96 160.9392578125 96.0671875 160.9 96.1
L 159.85 98.85 159.45 99.55
Q 159.35 99.85 159.35 100.55 159.35 101.2 159.1 101.5 159.0619140625 101.54765625 159 101.6
L 159.2 101.85
Q 159.4828125 101.9857421875 159.6 102.15 159.6166015625 102.2994140625 159.55 102.4 160.408203125 103.3443359375 161.4 104.1 162.6 105 163.4 105.05 164 105.15 164.5 104.85 165.05 104.5 165.15 104 165.2 103.4 165.35 103.1 165.7 102.7 165.85 102.45 165.925 102.3375 165.95 102.05 164.9580078125 102.051953125 164.55 101.95
L 164.5 101.5
Q 164.9 101.25 165.55 101.25
L 166.05 101.2
Q 166.1400390625 101.15 166.2 101.15
L 166.3 101.2 167.45 101.15 167.8 101.05
Q 167.74296875 101.0423828125 167.7 101 167.4837890625 100.852734375 167.45 100.65 167.75 100.45 168.45 100.7
L 168.45 100.7 169.65 99.8
Q 170.05 99.55 170.7 99.35 170.75859375 99.379296875 170.8 99.4 171.3498046875 99.0087890625 172 98.5 172 98.65 171.75 99.1 171.5 99.55 171.5 99.9 171.5 100.7 172.6 101.25 173.103515625 101.5119140625 173.75 101.65 174.1759765625 101.63984375 174.6 101.6 174.5869140625 101.6912109375 174.55 101.75 175.2111328125 101.83671875 176 101.8 171.3638671875 103.7521484375 169.2 104.75
L 169.7 105.4 169.6 105.55
Q 169.3 105.5 168.8 105.1
L 168.65 105
Q 168.50546875 105.07421875 168.35 105.15 165.3 106.65 165.3 108.1 165.3 109.75 168.25 113 171.35 116.4 174.6 118
L 174.6 118.5
Q 172.646484375 118.744140625 171.2 118.9 173.1517578125 119.4626953125 175.35 119.65 171.4119140625 120.541015625 168.15 119.2 167.7283203125 119.25 167.5 119.25 167.55 119.45 168.75 120.2 170.45 121.25 172.5 123.75 176.603125 128.7763671875 178.4 130.85
L 179.6 130.55
Q 180.005859375 130.455078125 180.35 130.35 181.8861328125 129.94765625 182.85 129.45 182.75625 129.2162109375 182.7 128.85
L 182.8 127.85
Q 182.8 127.3 182.65 126.85
L 182.55 126.5
Q 182.5701171875 126.4396484375 182.6 126.4
L 179.35 114.95
Q 179.1962890625 114.4033203125 179.05 113.8 178.9453125 114.080859375 178.8 114.35
L 178.45 115.1 178.4 113.55
Q 178.287890625 105.4244140625 179.75 97.2 180.1 95.25 180.15 94.25 180.25 92.6 179.7 91.4 179.6 91.1 178.95 90 178.45 89.2 178.35 88.6 178.25 88.05 178.4 86.4 178.55 85.05 178.15 84.35 177.75 83.7 176.7 83.2
M 168.45 119.6
L 168.75 119.5 173.7 122.45 173.4 122.55 168.45 119.6
M 160.8 97.25
L 160.85 97.15
Q 161 97.4 161.45 97.7
L 162 98.25 161.85 98.35
Q 161.8 98.2 161.3 97.85
L 160.65 97.3 160.8 97.25 Z"/>

<path fill="#F9B7A7" stroke="none" d="
M 67.8 94.55
Q 67.8333984375 95.02421875 67.8 95.45 68.6 93.75 68.75 93.5 69.67421875 92.3998046875 70 91.65 69.5349609375 92.24296875 67.8 94.55
M 131.15 65.8
Q 131.0564453125 67.065234375 130.85 67.95 130.85 68.15 130.55 69.1
L 130.25 70.2
Q 130.2203125 70.873828125 130.15 71.45 130.8654296875 70.4244140625 131.7 69.55 133.55 67.5 134.75 67.5 135.0625 67.5 136.55 68.6 136.60390625 68.1556640625 136.75 67.9 137 67.35 137.85 67
L 139.9 65.9
Q 140.5 65.6 140.7 65.3 140.809375 65.1541015625 140.85 64.95 140.7205078125 64.857421875 140.55 64.75 139.6 64.1 138.2 64.1 137.645703125 64.1 136 64.6 136.2505859375 64.6 136.55 64.6
L 138.05 64.6
Q 138.6 64.6 138.7 64.85 138.8 65.15 138.5 65.35 138.35 65.45 137.95 65.45 136.2 65.3 135.35 65.55 134.8 65.7 134.3 66.1 132.55 66.2 131.75 66.05 131.4623046875 66.008984375 131.15 65.8
M 100.65 92.8
L 100.65 93
Q 101.95 95.2 104 99.6 106.3 103.95 109.65 108.15 112.1 111.2 112.1 112.05 112.1 113.5 112.05 113.75 111.8 114.55 110.9 114.65 110.7033203125 114.374609375 106.95 110.7 108.82734375 115.084375 110.05 119.8 109.3 118.25 108.2 114.8 107.274609375 111.939453125 106.55 110.3 105.7134765625 109.487890625 104.7 108.5 104.66875 108.46953125 104.65 108.45 106.031640625 111.1669921875 107.6 114.65 109.6 119.05 110.25 121.4 110.4 121.65 110.2 121.65 109.4 119.6 108.95 118.55
L 106.35 113
Q 104.8365234375 109.809375 103.5 107.35 99.1048828125 102.976171875 98.75 102
L 98.75 102.25
Q 99.4 103.5 102.55 110.7 105.9 118.25 107.8 122.05
L 107.8 123.75
Q 107.135546875 123.5544921875 101.4 121.25 106.1439453125 123.7818359375 112.8 127.45 113.0177734375 127.5505859375 113.15 127.65
L 113.15 126.6
Q 113.15 125.95 113 125.65 112.85 125.35 112.85 125.2 113 124.9 113 124.7
L 113.15 124.7
Q 113.0853515625 124.481640625 113.25 124.35 113.4986328125 122.3591796875 115.3 119.85 116.9 117.65 117.3 116.9 118.25 115.15 118.3 113.6 118.2 112.3 118.1 111.6 118 110.45 118.35 109.75 118.6158203125 109.1919921875 119.15 108.75 117.6767578125 107.8345703125 116.5 107.05 109.1955078125 102.2072265625 103.35 95.85 101.9326171875 94.4455078125 100.65 92.8
M 90.9 80.1
L 89.45 79.8
Q 86.65 79.3 85.35 78.85 84 78.3 82.85 77.65 82.15 77.15 81.9 76.8
L 81.45 75.6
Q 81.25 74.95 80.75 74.3 80.2 73.5 80 73.1 79.667578125 72.5828125 79.55 72.1 79.4138671875 71.936328125 79.3 71.75 78.95 71.3 78.6 70.4
L 78.35 69.9
Q 78.5326171875 74.01171875 77.8 78
L 77.2 80.85
Q 76.4 83.75 74 89.25 72.35 93 71.3 94.45 70.95 94.9 70.7 94.95 70.6857421875 94.850390625 70.7 94.7 69.6337890625 96.9875 68.8 97.35
L 68.8 96.3
Q 69.4130859375 94.3138671875 69.7 93.15 69.1271484375 94.107421875 68.55 95.1 68.042578125 96.0244140625 67.6 96.8
L 67.55 97.55
Q 67.45 98.15 67.5 99.9 67.5330078125 100.8876953125 67.4 101.6
L 67.45 101.6
Q 67.8 101.8 67.75 102.15 67.7 102.3 67.3 102.6 66.85 102.9 66.55 103.7 66.1 104.7 65.9 104.95 65.88125 104.9875 65.85 105 66.5779296875 105.2380859375 67.4 105.55 73.7 107.9 78.55 110 82.619921875 111.7369140625 87.1 113.9 84.1521484375 109.3009765625 75.85 94.65 75.85 94.3 79.25 91.85 82.95 89.1 84.8 89.1 86.25 89.1 87.75 89.85 89.1 90.6 96.35 94.6
L 96.35 94.35
Q 95.9919921875 93.347265625 94.2 90.25 93.6267578125 89.7052734375 93.15 89.3 92.8 89.05 92.9 88.8 93.3171875 89.13359375 93.75 89.55 93.223046875 88.6115234375 92.55 87.5 91.9634765625 86.509765625 91.5 85.7
L 87.7 80.85
Q 87.05 80 87.15 79.45
L 89.9 82.95
Q 89.5 82.1322265625 89.5 82 90.765234375 81.144921875 92.4 80.2 91.8646484375 80.2287109375 90.9 80.1
M 124.35 49.2
Q 124.2251953125 49.0501953125 124.1 48.9 123.406640625 49.0841796875 122.55 49.2 120.4 49.4 119.35 49.5 118.5578125 49.5951171875 117.65 49.75 116.492578125 50.2533203125 116.4 50.5 116 52.05 115.25 54.15 115.1982421875 54.3154296875 115.15 54.45 115.8759765625 54.3 116.25 54.3 117 54.3 117.4 54.7
L 114.95 55.15
Q 114.75 56.1119140625 114.75 56.8
L 114.75 57.15
Q 115.033984375 56.9875 115.4 56.7 116.05 56.25 116.55 56.15 116.8 56.15 116.85 56
L 117.15 56.25
Q 117.05 56.55 116.4 56.75 116.025 57 115.7 57.2 116.49296875 56.846484375 117.75 56.3 120.3 55.25 120.55 55.25 121.876953125 55.25 122.6 55.75
L 122.3 55.3
Q 122.1 55 122.2 54.85 122.45 54.65 122.8 55.25 122.95 55.5 123.4 55.9 123.9 56.25 124.05 56.5 124.35 56.95 124.35 58 124.45 60.4 124.25 62.1 123.9775390625 63.7896484375 123.4 65.25 125.5697265625 62.4681640625 126.45 59.1 125.3453125 57.6431640625 125.05 54.05
L 124.7 50.7
Q 124.6443359375 50.765625 124.55 50.8 124.2677734375 50.9302734375 123.9 51.15 123.95 51.2841796875 123.95 51.45
L 123.9 53.95 123.7 54.35 123.35 54.7
Q 122.85 54.95 122.45 54.45 122.2 54.15 122.2 53.55
L 122.2 52.55 120.3 54.15
Q 119.35 55 119.1 55.15 118.85 55.3 118.65 55.25 118.5 55.2 118.5 54.85 118.55 54.1 119.6 53.25 121.2 51.8 123 50.6 123.9 50 124.4 49.9 124.512109375 49.883984375 124.6 49.85 124.5080078125 49.42109375 124.35 49.2
M 158.95 86.45
L 157.9 84.6
Q 156.4828125 85.66484375 155.25 86.5 153.95 87.35 153.6 88.6 153.35 89.5 153.35 91.9 153.35 93.1 153.7 95.7 153.8595703125 96.8630859375 153.95 97.6
L 154.1 97.5
Q 153.6408203125 95.938671875 153.95 94.2 154.1158203125 93.1109375 154.55 92.2 154.4650390625 91.72578125 154.7 91.35 154.8052734375 91.5078125 154.85 91.6 155.237109375 90.9318359375 155.8 90.35 156.25 89.95 156.5 90.2 156.7544921875 89.8154296875 157 89.4
L 158.95 86.45
M 165.75 122.9
L 165.8 122.9
Q 165.85 122.95 166 123.2 166.038671875 123.355078125 166 123.55 166.602734375 125.0083984375 167.1 126.5 166.575 125.1658203125 165.95 123.9 165.832421875 124.569921875 165.2 125.55 164.953125 125.93984375 164.8 126.25 165.11796875 129.4931640625 169.1 130.4 171.15 130.7 173.1 131.25 175.2904296875 131.587890625 177.4 131.15
L 178.4 130.85
Q 176.603125 128.7763671875 172.5 123.75 170.45 121.25 168.75 120.2 167.55 119.45 167.5 119.25 167.7283203125 119.25 168.15 119.2 165.769140625 118.2392578125 163.75 116.05 161.85 113.95 160.1 111.75 163.4923828125 117.1625 165.75 122.9
M 168.35 105.15
Q 168.50546875 105.07421875 168.65 105
L 166.65 103.05
Q 166.5701171875 103.43984375 166.4 103.95 166.2 105.05 166 105.35 165.55 106.15 164.6 106.3 163.9 106.4 162.85 106.15 160.6 105.6 159.15 103.85 158.75 103.35 158.85 103.05 158.5416015625 103.05 158.35 102.8 157.6619140625 102.92109375 157.2 102.85 156.2 102.75 155.75 102 155.75 101.95 155.45 100.7 155.35 100.2 155.05 99.55 154.65 98.85 154.45 98.45
L 154.4 98.4
Q 154.2369140625 98.541796875 154.05 98.7 153.898828125 98.8681640625 153.75 99.05
L 153.3 99
Q 152.9982421875 99.3 152.4 99.3 151.85 99.35 151.05 99.1 150.5 99 150.25 98.75 150.05 98.5 150.05 97.8
L 150.05 93.6
Q 149.6171875 92.802734375 149.1 91.9 146.65 87.85 146.65 87.8 146.65 87.4 147.05 86.2 147.4 85.05 147.4 84.15 147.4 83.9263671875 147.35 83.7 147.1248046875 83.4123046875 146.8 83.1 146.4740234375 82.7740234375 146.3 82.5 146.1525390625 82.6583984375 146 82.8 145.55 83.35 145.1 83.55 144.6 83.75 143.8 83.55 143 83.3 142.45 82.9 141.85 82.4 141.55 81.75 141.2619140625 81.0294921875 141.45 80.45
L 141.25 80.5
Q 140.75 80.6 140.6 80.8 140.45 81 140.45 81.45 140.45 84.2 141.05 85.5 141.5 86.4 142.55 87.55
L 144.85 90.3
Q 146 91.65 146.45 92.45 146.85 93.15 147.3 94.4 149.7 100.5 152.45 104.15 153.670703125 105.81171875 155 107.15
L 159.35 110.45 159.75 108.35
Q 163.32265625 116.659375 171.2 118.9 172.646484375 118.744140625 174.6 118.5
L 174.6 118
Q 171.35 116.4 168.25 113 165.3 109.75 165.3 108.1 165.3 106.65 168.35 105.15
M 174.05 102.15
Q 173.8 102.25 173.25 102.25 171.08515625 102.25 168.95 101.55
L 168.1 102
Q 167.75 102.1 167 102.1 166.8806640625 102.1 166.75 102.1 166.78203125 102.2970703125 166.75 102.5 166.99453125 102.6310546875 167.25 102.85 167.6 103.2 168.2 103.85 168.35 103.95 168.7 104.15
L 168.95 104.4 169.2 104.75
Q 171.3638671875 103.7521484375 176 101.8 175.2111328125 101.83671875 174.55 101.75 174.4197265625 102.0021484375 174.05 102.15
M 173.75 101.65
Q 173.103515625 101.5119140625 172.6 101.25 171.5 100.7 171.5 99.9 171.5 99.55 171.75 99.1 172 98.65 172 98.5 171.3498046875 99.0087890625 170.8 99.4 170.8853515625 99.5232421875 170.85 99.7 170.85 99.95 170.7 100.1 170.25 100.45 170.05 100.65
L 169.65 101.1
Q 171.649609375 101.7205078125 173.75 101.65
M 168.9 85.05
Q 167.737109375 84.6685546875 166.2 84.1 163.65 83.15 160.85 83.15 160.4748046875 83.15 159.95 83.35 160.12578125 83.70546875 160.35 84.35 160.46484375 84.6513671875 160.65 85.1 160.7072265625 85.1 160.75 85.1
L 168.9 85.05
M 163.85 78.65
L 163.85 78.4
Q 161.5 77.15 160.3 76.6 158.15 75.55 157.2 75.55 151.034375 76.505859375 147.7 76.95 147.580078125 77.0794921875 147.55 77.2 147 77.35 146.5 77.1
L 146.5 77 144.05 77
Q 144.2453125 77.4458984375 144.6 77.75 144.7759765625 77.93671875 145 78.05 145.48984375 78.3818359375 146.2 78.55 147.25 78.75 149.3 78.45 153.7 77.95 157.5 78.1 158.05 78.1 158.3 78.3 158.5 78.4 158.55 78.65 158.5798828125 78.7099609375 158.6 78.75 159.2109375 78.65 160.1 78.65
L 161.8 78.7
Q 162.7271484375 78.6814453125 163.85 78.65 Z"/>

<path fill="#C5BDAB" stroke="none" d="
M 100.6 78.45
Q 100.5755859375 78.5357421875 100.55 78.6 101.1775390625 79.6533203125 101.55 81.05 101.8 81.8 101.85 82.6 101.9 83.2 101.65 85.2 101.3 87.45 101.15 87.9
L 100.65 89.25
Q 100.55 90.43828125 100.55 90.8 100.55 91.295703125 100.7 91.85 100.9767578125 92.0888671875 101.2 92.3
L 101.35 92.15 106.6 87.65 106.75 87.9
Q 106.05 88.3 105.4 89.05 103.2 91.15 102 92.1 101.6658203125 92.3673828125 101.35 92.45 106.809375 97.5107421875 113.85 102.6 114.0478515625 102.7271484375 114.25 102.85
L 114.25 102.8
Q 113.748828125 101.7974609375 113.5 101.3 113.3408203125 101.229296875 113.2 101.15
L 113.4 101.15
Q 113.4412109375 101.2240234375 113.5 101.3 115.0552734375 102.24375 117.7 104.25 119.8541015625 105.9109375 121.9 107.7 123.051953125 107.53515625 124.7 107.4 125.55 107.2 126.75 106.7 127.4 106.45 128.75 105.85 129.4 105.55 131.95 104.55 133.95 103.75 135.15 103.1 136.24765625 102.4974609375 136.95 101.8 136.0759765625 101.75 134.75 101.75 132.25 101.75 131.75 101.85 130.8 102 127.9 103.25
L 127.9 103.05
Q 127.8 102.15 129.65 101.2 129.96640625 101.0259765625 130.3 100.8 127.5888671875 100.78984375 127.35 100.75 127.25 100.5 127.7 100.5
L 130.9 100.5
Q 131.4501953125 100.2361328125 132.1 99.9
L 130.65 99.9
Q 121.9 101.15 119.25 101.15 117.35 101.15 114.8 98.85 114.1271484375 98.153125 113.55 97.55 113.5216796875 97.584765625 113.5 97.6 113.05 97.95 112.8 97.95
L 113.25 97.35 113.3 97.3
Q 112.477734375 96.5017578125 111.8 95.9
L 110.85 97.1
Q 110.7 97.25 110.6 97.25 110.6 97.1 110.85 96.7
L 111.65 95.75
Q 111.0845703125 95.2041015625 110.65 94.85 108.8 93.3 108.5 90.25 108.25 87.65 105 86 102.5 84.75 102.15 78.8 101.934765625 75.4998046875 101.4 73.25
L 101.3 74.35
Q 101 77.15 100.6 78.45
M 106.65 90.5
L 106.85 90.75
Q 105.3 92.2 103.9 93.85 103.55 94.3 103.3 94.15 103.25 93.95 103.4 93.7
L 103.7 93.4
Q 104 93.15 104.4 92.55
L 105.45 91.6
Q 105.65 91.4 106 90.95 106.3 90.6 106.65 90.5
M 87.75 57.5
Q 87.7966796875 57.609375 87.85 57.7 88.0162109375 58.01171875 88.3 58.3 94.0923828125 61.4353515625 94.6 65.45 94.65 65.8 94.6 68.7 94.6 70.5 95.3 71.5 95.3716796875 71.59921875 95.45 71.7
L 95.5 71.1
Q 95.95 71.1 96.05 72 96.09921875 72.383203125 96.15 72.7 97.1833984375 74.3619140625 98.55 76.85 100.8029296875 80.9734375 101.15 82.85 101.1634765625 82.5060546875 101.2 82.25 101.3 81.35 101.2 81.1 100.85 80.7 100.75 80.45
L 100.55 79.75
Q 100.4 79.05 99.7 78.1
L 98.6 76.5
Q 97 74.2 96.55 72.95
L 96.75 72.9
Q 97.25 74.05 98.5 75.75 99.9142578125 77.6205078125 100.35 78.3 100.4607421875 77.80703125 100.65 77.05 101.1560546875 74.908984375 101.25 72.6 100.7408203125 70.6392578125 99.95 69.6 99.34921875 68.8169921875 98.7 68 98.68203125 68.3484375 98.6 68.95 98.45 70.1 98.45 71.2 98.45 72.35 98.4 72.55 98.1 74.05 98.1 74.1 97.75 74.1 97.85 73.65 97.85 73.5 98.05 73.1 98.25 72.65 98.25 70.95 98.25 69.87109375 98.55 67.8 97.46640625 66.519140625 96.25 65.15 96.1 66.979296875 95.85 68.75 95.65 70.15 95.05 70.5 95.5 68.7 95.65 66.8
L 95.8 64.7
Q 92.487109375 61.1150390625 88.15 57.25 88.127734375 57.23046875 88.1 57.2 87.94453125 57.301171875 87.8 57.35 87.7796875 57.4603515625 87.75 57.5
M 88.05 32.35
Q 87.573046875 33.604296875 86.25 35.75 84.3 38.95 82.05 41.8 78.75 45.9 74 50.35 69.2 54.85 68.05 54.85 67.65 54.85 67.55 54.65 67.3 54.2 67.3 52.45 67.3 51.65 67.75 49.4 68.15 47.15 68.15 46.25
L 67.95 46.45
Q 66.9 47.1 62.15 51.6 59.75 53.85 57.45 56.1
L 56.15 56.1 56.15 54.25
Q 56.3 53.05 57.05 45.8 57.421484375 41.971484375 57.7 39.7 57.6478515625 39.7568359375 57.6 39.8 57.25 40.15 56.45 40.5 55.5 41 55.2 41.2 53.35 42.5 53.05 46.65 52.35 54 51.95 62.6 51.85 64.95 52.05 66.1 52.35 67.5 53.25 69.3 53.9 70.6 55.3 73.15 56.5 75.45 56.95 77.15 57.4 79.1 57.8 79.65 58.2 80.2 59 80.75 59.45 81.05 60.4 81.6 60.755078125 81.82265625 61.05 82.05 61.1611328125 81.8365234375 61.4 81.7 61.9 81.6 62.25 82.4
L 62.95 83.85
Q 63.9876953125 85.1333984375 64.6 86.75
L 64.55 86.75
Q 64.701171875 86.915234375 64.8 87.05 65.9 88.4 66.05 88.7 66.3 89.15 66.6 90.05 66.8 90.35 67.2 90.95 67.55 91.5 67.65 91.9 67.8 92.35 67.8 93.4 67.837890625 94.006640625 67.8 94.55 69.5349609375 92.24296875 70 91.65 70.0640625 91.58984375 70.1 91.5 70.35 91 70.5 90.9 70.65 90.75 70.9 90.8 71.1 90.8 71.15 91 70.4232421875 92.0498046875 69.7 93.15 69.4130859375 94.3138671875 68.8 96.3
L 68.8 97.35
Q 69.6337890625 96.9875 70.7 94.7 70.749609375 94.344140625 71 93.7 71.560546875 92.4771484375 72.1 91.2 73.6712890625 87.5751953125 75.05 83.7 76.15 80.8 76.65 78.45 77.4 75 77.3 68.55
L 77.3 68.5
Q 76.8 69 76.5 69.1 75.9 69.25 75.3 68.75 75.1 68.6 74.45 67.8 74 67.25 73.95 67.1 73.8 66.75 73.8 66.3 73.85 65.25 74.65 64.2 75.1 63.55 76 62.3 76.051171875 62.1974609375 76.1 62.1 76.111328125 60.9095703125 76.15 60.6 76.35 59.35 77.85 57.45 78.85 56.15 79.55 55.9 79.95 55.8 80.8 55.8 83.4634765625 55.7205078125 85.05 56.15 85.1478515625 55.407421875 86 54.55 85.9900390625 54.45546875 85.95 54.35 85.4 52.7 85.4 48.95 85.4 48.2650390625 85.4 47.6 85.0173828125 48.2416015625 84.75 48.7 84.15 49.65 83.65 50.95 83.3 50.7 83.65 49.9 84.1673828125 48.865234375 85.4 46.6 85.458203125 45.3533203125 85.5 44.3 82.2990234375 51.343359375 76.9 56.65
L 79.45 53.15
Q 81.6 50.25 82.95 48.2 84.3 46.05 85.35 43.7 85.480859375 43.4384765625 85.6 43.3 85.7267578125 42.053125 85.9 41.1 86.0875 40.0685546875 88.05 32.35
M 77.8 51.55
Q 78.05 51.35 78.15 51.45 75.8 54.1 74.2 56.7 74.15 56.45 74.5 55.75 76 53.5 77.8 51.55
M 68.1 68.65
Q 68.25 68.05 68.5 68.3 67.65 74.25 65.9 80.7
L 65.6 80.8
Q 65.75 79.6 66.25 77.2
L 68.1 68.65
M 68.7 72.45
Q 68.65 72.1 68.85 71.4 70 67.5 70.75 62.75 70.85 62.2 71.1 62.15
L 71.25 62.4
Q 71.05 62.5 70.95 63.05 70.7 65.65 69.85 68.9 69.45 70.6 68.7 72.45
M 70.7 69.5
Q 70.9 69.35 70.95 69.4
L 70 74.5 69.75 74.5 70.7 69.5
M 69.95 95.6
Q 69.5 96.7 69 96.95
L 72.15 89.1 72.5 89.1
Q 71.35 92.2 69.95 95.6 Z"/>

<path fill="#E7DEC8" stroke="none" d="
M 101.25 72.6
Q 101.3 71.9642578125 101.3 71.3 101.3 70.85 101.55 70.9 101.7 71.6 101.5 72.55
L 101.4 73.25
Q 101.934765625 75.4998046875 102.15 78.8 102.5 84.75 105 86 108.25 87.65 108.5 90.25 108.8 93.3 110.65 94.85 111.0845703125 95.2041015625 111.65 95.75
L 112.1 95.25
Q 112.2 95.05 112.35 95.1 112.4 95.3 112.15 95.5
L 111.8 95.9
Q 112.477734375 96.5017578125 113.3 97.3
L 114.5 96.2
Q 115.25 95.5 115.65 94.95
L 116.05 94.55
Q 116.45 94.35 116.6 94.65 114.545703125 96.851171875 113.55 97.55 114.1271484375 98.153125 114.8 98.85 117.35 101.15 119.25 101.15 121.9 101.15 130.65 99.9
L 132.1 99.9
Q 131.4501953125 100.2361328125 130.9 100.5
L 132.7 100.55
Q 135.25 100.55 136.35 101.4
L 136.3 101.55
Q 134.65 100.9 131.9 100.85 131.033203125 100.83984375 130.3 100.8 129.96640625 101.0259765625 129.65 101.2 127.8 102.15 127.9 103.05
L 127.9 103.25
Q 130.8 102 131.75 101.85 132.25 101.75 134.75 101.75 136.0759765625 101.75 136.95 101.8 137.872265625 100.8607421875 138.1 99.75 138.3 98.95 138 97.3
L 137.5 94.75 137.5 94.8
Q 136.9 95.15 135.45 95.15
L 133.6 95.15 133.05 95.1 132.55 94.85 130.45 93.55
Q 129.85 93.35 129.55 93.15 128.55 92.55 128.55 91.45 128.6 90.95 128.6 90.65 128.6 90.2 128.4 90
L 128.05 89.6 127.95 89.15
Q 127.95 89.05 127.45 88.45 127.25 87.9 127.1 87.65 126.95 87.45 126.45 87.1 126 86.75 125.85 86.5 125.65 85.7 125.4 85.35
L 125.05 84.9
Q 124.9 84.65 124.95 84.15
L 124.95 84.1
Q 124.6501953125 83.7619140625 124.35 83.45
L 124.35 83.7
Q 124.55 84.15 125.2 87.3 125.8 90.35 125.8 90.85 120.75 86.3 120.75 85.35
L 120.75 85.6
Q 121.30859375 86.7982421875 122.15 87.8 122.8 88.65 122.8 89.1 122.65 89.15 122.55 88.95
L 122.45 88.65 122.1 88.35
Q 121.633203125 88.0232421875 120.95 86.9 120.973046875 87.0716796875 121 87.25 121.2 88.45 121.6 89.15
L 121.6 90.4
Q 120.85 90.1 117.95 86.4 116.62421875 84.7205078125 115.35 83 114.0927734375 82.2427734375 112.75 80.9 111.2 79.4 108.7 76.4 105.95 73.2 104.65 71.85 102 69.2 101.5 68.5 100.0736328125 66.67265625 99.95 64.7 99.8103515625 64.4814453125 99.7 64.25
L 99.65 64.75 99.3 64.65
Q 98.95 61.7 99 59.75 99.05 58.75 99.35 56.5
L 99.85 53.55 94.05 54.85
Q 90.8 55.55 89.25 56.5 88.6 56.95 88.3 57.1 88.2 57.158203125 88.1 57.2 88.127734375 57.23046875 88.15 57.25 92.487109375 61.1150390625 95.8 64.7
L 96.15 60.65
Q 96.15 60.2 96.45 60.1 96.45 62.666796875 96.25 65.15 97.46640625 66.519140625 98.55 67.8 98.5443359375 67.790234375 98.55 67.75
L 98.7 67.65
Q 98.72265625 67.740625 98.7 68 99.34921875 68.8169921875 99.95 69.6 100.7408203125 70.6392578125 101.25 72.6
M 105.45 17.1
Q 104.35 17.75 101.75 17.65
L 96.8 17.35
Q 94.4 17.25 93.2 17.3 90.92109375 17.4423828125 88.55 18.2
L 90.6 18.85
Q 93.4 19.75 94.4 20.9
L 86.7 19.2 85.4 19.1
Q 83.9 19 82.7 19.15 81.7 19.2 80.55 19.55 78.15 20.2 76.65 20.95 75.45 21.55 74 22.65 73.4095703125 23.1330078125 72.9 23.5 73.707421875 23.4876953125 74.5 23.5 75.3 23.65 75.15 24 75.1 24.2 74.65 24.3
L 71.3 24.8
Q 71.1275390625 24.930078125 70.95 24.85
L 69.25 25.1
Q 67.6 25.4 67.1 26.05 66.8 26.45 66.65 27.1 66.55 27.5 66.45 28.25 66.05 30.3 63.2 32.75 59.95 35.55 59.2 37 58.75 38 58.5 38.5 58.13828125 39.2685546875 57.7 39.7 57.421484375 41.971484375 57.05 45.8 56.3 53.05 56.15 54.25
L 56.15 56.1 57.45 56.1
Q 59.75 53.85 62.15 51.6 66.9 47.1 67.95 46.45
L 68.15 46.25
Q 68.15 47.15 67.75 49.4 67.3 51.65 67.3 52.45 67.3 54.2 67.55 54.65 67.65 54.85 68.05 54.85 69.2 54.85 74 50.35 78.75 45.9 82.05 41.8 84.3 38.95 86.25 35.75 87.573046875 33.604296875 88.05 32.35 86.0875 40.0685546875 85.9 41.1 85.7267578125 42.053125 85.6 43.3 85.830859375 43.0373046875 86.05 43.1 85.7955078125 43.7013671875 85.5 44.3 85.458203125 45.3533203125 85.4 46.6 85.9865234375 45.5716796875 86.7 44.3 88.65 40.8 89.55 38.65
L 90.95 35
Q 92.35 31.1 92.75 29.45 92.75 29.2 92.9 28.95 93.15 28.7 93.4 28.8 92.75 31.7 92 34.1 90.8 37.6 89.65 40.1
L 87 45.2
Q 86.0421875 46.621484375 85.4 47.6 85.4 48.2650390625 85.4 48.95 85.4 52.7 85.95 54.35 85.9900390625 54.45546875 86 54.55 86.0673828125 54.53046875 86.1 54.5 87.65 53.15 90.05 52.2 90.8240234375 51.9064453125 92 51.55
L 100.25 49.45
Q 100.2 48.0994140625 100.2 48.05 100.2 46.7 100.8 44.1
L 101.95 39.05
Q 102.2 37.65 102 35.35
L 101.8 33.55
Q 101.55 31.75 101 30.4 100.45 28.9 98.65 26.3
L 97.7 24.95
Q 97.25 24.2 96.75 23.85 96.3 23.5 96.25 23.3 96.25 23.1 96.45 22.95 96.65 22.8 96.85 22.85 97.15 22.9 97.55 23.3
L 98.2 24.05
Q 98.22734375 23.8751953125 98.35 23.7
L 102.1 24.4
Q 104.203515625 24.7505859375 105.85 25.05 107.4400390625 23.71328125 108.65 22.1 109.65 20.75 109.95 19.65 107.2 19.75 104.4 19.5 103.85 19.4 103.75 19.25 103.5 18.9 103.75 18.55 103.95 18.25 104.7 17.85 105.35 17.5 105.45 17.1 Z"/>

<path fill="#DAEAF1" stroke="none" d="
M 128.2 46.75
Q 128.1642578125 46.9509765625 128.1 47.15 127.98125 51.5595703125 128.65 53.9 128.85 54.65 129.25 56.1 129.3611328125 57.0630859375 129.4 57.35 129.9232421875 58.491015625 130.65 59.45 130.7470703125 59.4412109375 130.85 59.4 131.65 59.1 131.95 58.4 132.15 58 132.2 57.35 132.15 56.6 132.15 56.2 132.0970703125 54.9544921875 132.45 54.05 131.8125 53.5900390625 131.2 53.1 130.85 52.9 130.6 52.5 130.95 52.35 131.55 52.75
L 132.45 53.35
Q 132.1439453125 50.9173828125 131.3 49.35 130.4921875 47.6767578125 129.25 46.75
L 128.2 46.75
M 168.2 160.5
Q 168.241015625 159.772265625 168.25 159
L 168.15 160.5 168.2 160.5
M 179.25 155.4
L 179.25 155.55 180.05 155.55
Q 179.65 155.469921875 179.25 155.4
M 175.2 156.15
L 176.7 156.15 175.1 154.95
Q 172.280859375 154.9625 169.55 154.1 171.7529296875 154.9787109375 175.2 156.15
M 187.5 155.5
Q 187.4470703125 155.5 187.4 155.5 187.0630859375 155.52734375 186.7 155.55
L 187.35 155.55
Q 187.4208984375 155.52421875 187.5 155.5
M 189.5 154.55
Q 189.4625 154.591796875 189.4 154.6 189.4603515625 155.1265625 189.5 155.6
L 189.55 154.45
Q 189.54609375 154.4837890625 189.5 154.5
L 189.5 154.55
M 180.6 135.55
Q 179.5509765625 135.44609375 178.5 135.4 174.490625 135.1955078125 170.45 135.75 168.75 136 167.65 137.35 167.477734375 137.5568359375 167.25 137.7 167.75 138.250390625 167.6 139.15 167.35 140.85 167.2 142.55 166.85 148.45 166.55 154.25 166.359375 157.3650390625 166 160.5
L 167.75 160.5 167.8 153.2
Q 167.8 153.05 167.85 152.95 167.9 152.9 168.05 152.9
L 168.35 149.3 168.6 152.95
Q 169.5 152.55 170.4 152.2 172.3 151.6 174.45 151.65 181.25 150.9 188.1 152.5 189.0931640625 152.7484375 189.5 153.5 189.569140625 153.6916015625 189.6 153.85
L 189.95 149.2 190.05 149.15
Q 190.25 149.75 190.25 150.45 190.40078125 155.4607421875 189.9 160.5
L 191.6 160.5
Q 191.7466796875 157.266015625 192 154 192.55 148.05 192.85 142.2 192.9171875 141.0576171875 193.2 140.05 192.948828125 139.4337890625 192.25 139.25 192.25 139.35 192.25 139.5 191.65 141 189.85 141.05 184.9 141.1 180 141.15 178.2646484375 141.15 176.55 140.9 173.7265625 140.4595703125 171 139.3 170.8 139.25 170.65 139.15 170.4 139.15 170.15 139.15 168.45 138.1 169.75 136.7 169.9 136.55 170.15 136.45
L 169.9 137.4 170 137.9
Q 173.316015625 139.44453125 176.85 140 177.238671875 140.054296875 177.6 140.1 178 140.15 178.4 140.15 183.35 140.15 188.3 140.25 190.3 140.35 192 139.15 188.1685546875 136.908984375 183.9 136 182.2900390625 135.6884765625 180.6 135.55
M 169.9 140.2
Q 170.8 140.15 171.85 140.65 174.3 141.7 176.9 141.85 177.95 142 179.05 142.15 184.65 142.3 190.25 142.45
L 188.05 143.05
Q 182.7 143.55 177.4 142.6 173.15 142.1 169.9 140.2 Z"/>

<path fill="#B7D6E1" stroke="none" d="
M 187.5 155.5
Q 187.4208984375 155.52421875 187.35 155.55
L 186.7 155.55
Q 183.367578125 155.7771484375 180.05 155.55
L 179.25 155.55 179.25 155.4
Q 178.9 155.3466796875 178.55 155.3 178.65 155.25 178.8 155.2 179.0248046875 155.195703125 179.25 155.2
L 179.25 155
Q 179.35 154.95 179.65 154.7 179.85 154.6 179.85 154.4 181.85 154.1 183.3 153.8
L 180.1 153.8
Q 175.8 154.1 174.3 154.1
L 174.3 154.25 176.65 154.8
Q 176.6 154.85 176.6 154.9 176.5 154.9 176.45 154.95 175.7740234375 154.991796875 175.1 154.95
L 176.7 156.15 175.2 156.15
Q 171.7529296875 154.9787109375 169.55 154.1 169.053515625 153.9396484375 168.55 153.75
L 168.25 159
Q 168.241015625 159.772265625 168.2 160.5
L 189.15 160.5 189.5 155.6
Q 189.4603515625 155.1265625 189.4 154.6 188.6279296875 155.4658203125 187.5 155.5 Z"/>

<path fill="#F2FBFF" stroke="none" d="
M 188.95 154.3
Q 188.85 154.1 188.75 153.95 188.1 153.35 187.45 153.2 181.45 152.1 175.45 152.25 172.3 152.3 169.35 153.2
L 174.3 154.25 174.3 154.1
Q 175.8 154.1 180.1 153.8
L 183.3 153.8
Q 181.85 154.1 179.85 154.4 179.85 154.6 179.65 154.7 179.35 154.95 179.25 155
L 179.25 155.2
Q 181.67890625 155.15 184.15 155.15 186.75 155.15 188.95 154.3 Z"/>

<path fill="#EA4E01" stroke="none" d="
M 144.25 79.15
Q 144.221875 79.1798828125 144.2 79.2 143.663671875 79.659765625 143.3 79.95 143.39140625 79.970703125 143.45 80
L 143.2 80.05
Q 143.1744140625 80.0791015625 143.15 80.1 142.45 80.8 142.65 81.3 142.85 81.65 143.4 81.95 144 82.35 144.4 82.25 144.75 82.2 145.55 81.3 145.9 80.85 146.45 80.35
L 146.95 79.9
Q 146.7755859375 79.871875 146.6 79.85 145.1416015625 79.696484375 144.25 79.15 Z"/>

<path fill="#7FA1B3" stroke="none" d="
M 182.75 122.55
Q 182.6474609375 122.49375 182.5 122.45
L 182.9 123.8
Q 183.1556640625 125.0501953125 183.3 126.25
L 183.35 126.3
Q 183.5 126.45 183.45 126.65
L 185.15 126.7
Q 185.278515625 126.7 185.35 126.7 185.4560546875 126.513671875 185.5 126.3 185.7 125.35 185.2 124.8 185.05 124.6 184.45 124.25 183.339453125 123.6521484375 182.75 122.55 Z"/>
</g>
</defs>

<g transform="matrix( -1, 0, 0, 1, 226.3,21.05) ">
<g transform="matrix( 1, 0, 0, 1, 0,0) ">
<g transform="matrix( 1, 0, 0, 1, 0,0) ">
<use xlink:href="#flash0_ai_04_Fonte__Clip_Group__2_0_Layer3_0_FILL"/>
</g>

<mask id="Mask_Mask_1">
<g transform="matrix( 1, 0, 0, 1, 0,0) ">
<use xlink:href="#Mask_flash0_ai_04_Fonte__Clip_Group__2_0_2_MASK_0_FILL"/>
</g>
</mask>

<g mask="url(#Mask_Mask_1)"/>
</g>
</g>

<g transform="matrix( -1.170013427734375, 0, 0, 1.170013427734375, 248.2,2.65) ">
<use xlink:href="#Layer1_1_FILL"/>
</g>
</svg>
