<?xml version="1.0" encoding="UTF-8"?>
<svg xmlns="http://www.w3.org/2000/svg" xmlns:xlink="http://www.w3.org/1999/xlink" viewBox="0 0 888 500">
  <defs>
    <style>
      .cls-1 {
        fill: #aebd92;
      }

      .cls-2 {
        mix-blend-mode: multiply;
      }

      .cls-2, .cls-3 {
        fill: #e8cbb3;
      }

      .cls-4, .cls-5 {
        fill: none;
      }

      .cls-6 {
        fill: #edebd3;
      }

      .cls-7 {
        isolation: isolate;
      }

      .cls-5 {
        stroke: #cda45e;
        stroke-miterlimit: 10;
      }

      .cls-8 {
        clip-path: url(#clippath);
      }
    </style>
    <clipPath id="clippath">
      <rect class="cls-4" x="0" y="1.18" width="887.24" height="498.82"/>
    </clipPath>
  </defs>
  <g class="cls-7">
    <g id="_02_Sumario" data-name="02_Sumario">
      <g class="cls-8">
        <path class="cls-3" d="M815.64,37.92c-13.05,25.16-7.34,55.5-1.78,83.3,5.56,27.8,10.19,58.62-4.49,82.87-6.59,10.89-16.49,19.3-24.65,29.06-25.63,30.66-32.51,75.83-17.16,112.73,15.34,36.9,52.22,63.87,92.03,67.32,11.07.96,22.67.12,32.47-5.12,14.33-7.66,22.44-23.27,27.97-38.54,22.11-61.04,16.21-129.19-2.06-191.48-9.11-31.07-21.35-62.65-17.32-94.78,2.96-23.61,16.61-65.32-14.75-76.85-25.08-9.22-58.78,9.38-70.25,31.5Z"/>
        <path class="cls-2" d="M812.59,479.45c7.09,9.46,14.89,19.02,25.63,23.96,7.64,3.52,16.3,4.43,24.68,3.75,36.66-2.98,66.41-37.81,68.18-74.55.41-8.42-.48-17.08-4.06-24.71-14.51-30.93-73.74-48.61-103.83-31.28-35.23,20.29-31.47,74.96-10.6,102.82Z"/>
        <g>
          <path class="cls-6" d="M768.3,388.14c-.54.97-1.22,1.97-1.15,3.12.05.9.34,1.88,1.03,2.51.71.66,1.53.99,2.5,1.05,1.15.07,2.16-.6,3.13-1.13,2.33-1.26,2.72-4.55.89-6.39-1.82-1.84-5.12-1.48-6.4.84h0Z"/>
          <path class="cls-6" d="M774.08,363.04c.64-.39,1.27-.77,1.91-1.16-.61.24-1.22.49-1.82.73.16-.06.32-.1.48-.13-1.33,0-2.66-.01-3.99-.02.14.03.29.06.43.09,1.9.41,3.61.32,5.39-.4,1.78-.71,3.31-1.95,4.28-3.63.93-1.63,1.23-3.49,1-5.33-.22-1.82-.97-3.72-2.35-4.99-1.12-1.03-2.43-1.8-3.88-2.25-1.76-.55-3.73-.27-5.39.4-1.78.71-3.31,1.95-4.28,3.63-1.13,1.96-1.32,4.23-.87,6.42.03.14.06.29.09.43,0-1.33.01-2.66.02-3.99-.03.17-.07.33-.13.48.25-.61.5-1.21.75-1.82-.39.63-.78,1.27-1.18,1.9-.8,1.29-1,2.9-.82,4.36.18,1.49.79,3.05,1.93,4.09,2.23,2.06,5.73,2.83,8.44,1.18h0Z"/>
          <path class="cls-6" d="M747.26,362.73l-.85-.47c-.96-.53-1.93-.78-3.03-.51-1.15.29-2.08,1.22-2.38,2.36-.28,1.09-.04,2.08.48,3.03.16.29.31.57.47.86,1.21,2.23,4.36,2.61,6.12.86,1.76-1.75,1.41-4.9-.8-6.13h0Z"/>
          <path class="cls-6" d="M734.3,330.92c-4.14,4.11,2.23,10.55,6.38,6.44,4.14-4.11-2.23-10.55-6.38-6.44h0Z"/>
          <path class="cls-6" d="M736.13,388.89c-3.16,3.13,1.7,8.04,4.86,4.91,3.16-3.13-1.7-8.04-4.86-4.91h0Z"/>
          <path class="cls-6" d="M785.78,372.18c-2.68,2.66,1.45,6.83,4.13,4.17,2.68-2.66-1.45-6.83-4.13-4.17h0Z"/>
          <path class="cls-6" d="M757.03,375.23c-2.01,1.99,1.08,5.12,3.1,3.13,2.01-1.99-1.08-5.12-3.1-3.13h0Z"/>
          <path class="cls-6" d="M767.9,409.24c-.24.45-.47.91-.71,1.36-.4.77-.56,1.57-.46,2.43.1.83.44,1.69,1.07,2.28.51.47,1.11.82,1.77,1.03.95.3,2.07.07,2.93-.37.46-.23.91-.46,1.37-.7,2.57-1.31,2.91-4.98.97-6.94-1.94-1.96-5.62-1.65-6.95.91h0Z"/>
          <path class="cls-6" d="M746.01,390.84c-2.41,2.39,1.3,6.13,3.71,3.74,2.41-2.39-1.3-6.13-3.71-3.74h0Z"/>
          <path class="cls-6" d="M713.61,366.16c-.35.4-.7.8-1.04,1.21-.53.49-.9,1.07-1.11,1.74-.31.61-.46,1.26-.43,1.95,0,1.28.56,2.82,1.52,3.71,1,.92,2.3,1.6,3.69,1.55.44-.05.89-.11,1.33-.16.91-.24,1.71-.69,2.38-1.35.41-.34.81-.69,1.22-1.03.54-.5.92-1.09,1.14-1.78.32-.62.47-1.29.44-2,.03-.71-.11-1.38-.43-2-.21-.69-.59-1.29-1.12-1.79-1.02-.94-2.35-1.64-3.78-1.58-1.36.05-2.87.49-3.79,1.55h0Z"/>
          <path class="cls-6" d="M707.21,341c-3,2.97,1.62,7.64,4.62,4.66,3-2.97-1.62-7.64-4.62-4.66h0Z"/>
          <path class="cls-6" d="M722.31,302.8c-2.6,2.58,1.4,6.63,4.01,4.05,2.6-2.58-1.4-6.63-4.01-4.05h0Z"/>
          <path class="cls-6" d="M662.39,326.93c-.16.43-.31.87-.47,1.3-.24.93-.25,1.85-.01,2.78.25.96.72,1.79,1.42,2.49.7.7,1.53,1.18,2.48,1.44.93.24,1.85.25,2.78.01.43-.15.87-.3,1.3-.45,1.08-.28,2.01-.81,2.81-1.59.79-.79,1.33-1.72,1.62-2.79.56-2.1-.05-4.39-1.58-5.94-1.53-1.55-3.82-2.17-5.92-1.63-1.08.28-2.01.81-2.81,1.59-.79.79-1.33,1.72-1.62,2.79h0Z"/>
          <path class="cls-6" d="M681.08,376.09c-3.91,3.87,2.1,9.95,6.02,6.07,3.91-3.87-2.1-9.95-6.02-6.07h0Z"/>
          <path class="cls-6" d="M684.71,294.26c-3.12,3.09,1.68,7.94,4.8,4.84,3.12-3.09-1.68-7.94-4.8-4.84h0Z"/>
          <path class="cls-6" d="M691.11,317.86c-.26.55-.52,1.1-.77,1.65-.42.89-.42,2.03.36,2.75.79.73,1.79.82,2.75.38.55-.25,1.1-.51,1.65-.76.9-.41,1.53-1.58,1.5-2.55-.03-.78-.29-1.51-.85-2.08-.53-.53-1.32-.87-2.07-.87-.98,0-2.12.55-2.56,1.47h0Z"/>
          <path class="cls-6" d="M618.8,326.62c-.33.35-.67.7-1,1.05-1.1,1.15-1.8,2.69-1.8,4.3-.03.81.13,1.57.49,2.28.24.78.67,1.46,1.28,2.04,1.16,1.07,2.68,1.86,4.3,1.8,1.64-.06,3.1-.63,4.31-1.76.35-.33.7-.66,1.06-.99.62-.57,1.06-1.25,1.31-2.04.37-.71.54-1.47.51-2.29.03-.82-.13-1.58-.49-2.29-.24-.79-.67-1.47-1.29-2.05-1.17-1.08-2.69-1.88-4.33-1.81-1.6.06-3.21.59-4.34,1.78h0Z"/>
          <path class="cls-6" d="M661,355.84c-.75.74.4,1.91,1.15,1.16.75-.74-.4-1.91-1.15-1.16h0Z"/>
          <path class="cls-6" d="M630.2,282.02c-3.16,3.13,1.7,8.04,4.86,4.91,3.16-3.13-1.7-8.04-4.86-4.91h0Z"/>
          <path class="cls-6" d="M678.65,250.74c-2.6,2.58,1.4,6.63,4.01,4.05,2.6-2.58-1.4-6.63-4.01-4.05h0Z"/>
          <path class="cls-6" d="M764.81,309.71c.74.63,1.52,1.47,2.48,1.7,2,.47,3.75-1.27,3.3-3.27-.22-.97-1.05-1.75-1.68-2.49-.45-.54-1.36-.85-2.04-.86-.71,0-1.56.31-2.05.84-.51.55-.89,1.27-.86,2.04.03.73.26,1.56.84,2.05h0Z"/>
          <path class="cls-6" d="M645.41,385.53c-1.81,1.8.98,4.62,2.8,2.82,1.81-1.8-.98-4.62-2.8-2.82h0Z"/>
          <path class="cls-6" d="M788.35,398.82c-.75.95-1.68,1.86-1.67,3.16.01,1.41,1.15,2.56,2.56,2.59,1.3.02,2.22-.9,3.18-1.64.54-.42.85-1.39.86-2.04,0-.71-.31-1.56-.84-2.05-.55-.51-1.27-.89-2.04-.86-.71.03-1.59.25-2.05.84h0Z"/>
          <path class="cls-6" d="M803.95,377.16c-3.24,3.21,1.74,8.24,4.98,5.03,3.24-3.21-1.74-8.24-4.98-5.03h0Z"/>
          <path class="cls-6" d="M800.34,346.79c-2.92,2.89,1.57,7.44,4.5,4.54,2.92-2.89-1.57-7.44-4.5-4.54h0Z"/>
          <path class="cls-6" d="M591.04,304.51c-.33-.29-.66-.57-.99-.85-.07-.06-.14-.13-.22-.19-.57-.48-1.12-.81-1.88-.91-.95-.13-2.05.14-2.72.87-.6.65-.91,1.43-.95,2.3-.05.97.49,1.77,1.08,2.46.3.35.6.7.89,1.05.53.63,1.58.99,2.38,1,.83,0,1.82-.36,2.39-.98.59-.64,1.03-1.48,1-2.38-.03-.85-.3-1.8-.98-2.39h0Z"/>
          <path class="cls-6" d="M732.81,409.58c-2.17,2.15,1.17,5.53,3.34,3.37,2.17-2.15-1.17-5.53-3.34-3.37h0Z"/>
          <path class="cls-6" d="M752.55,426.82c-.63.63.34,1.61.97.98.63-.63-.34-1.61-.97-.98h0Z"/>
          <path class="cls-6" d="M745.67,408.1c-.21.63-.43,1.22-.5,1.89-.07.65.64,1.36,1.29,1.3.67-.06,1.26-.28,1.89-.49.76-.25,1.37-.77,1.58-1.56.2-.75-.02-1.57-.56-2.12-.55-.55-1.36-.78-2.11-.58-.8.21-1.32.81-1.58,1.56h0Z"/>
          <path class="cls-6" d="M708.73,406.67c-2.37,2.35,1.28,6.03,3.65,3.68,2.37-2.35-1.28-6.03-3.65-3.68h0Z"/>
        </g>
        <path class="cls-1" d="M779.22,278.81c.81,2.1,1.72,4.17,2.58,6.2,1.95,4.58,3.78,9.54,3.8,14.59.02,4.52-2.1,8.36-2.98,12.69-2.12,10.42-.16,20.43,2.89,30.3-2.5,5.76-5.68,11.57-8.05,17.25-1.55-5.92-3.69-11.73-6.54-17.1-.04-8.14,5.85-15.89,4.84-24.29-.95-7.52-7.56-12.34-14.54-13.31-6.7-.93-11.6-3.77-14.38-10.44-2.47-5.96-2.42-12.61-2.58-19.06-.16-6.45-.67-13.19-4.04-18.68s-10.5-9.21-16.44-6.7c-5.68,2.41-8.07,9.36-7.85,15.53.22,6.17,2.35,12.12,2.85,18.28.43,5.38-.4,10.82.23,16.18,2.81,23.66,30.62,27.2,45.78,40.55,4.55,6.67,8.25,13.95,11.5,22.1-1.99,5.52-2.93,10.89-1.4,15.94-8.39-8.67-17-17.11-26.05-25.11-.15-.35-.43-.65-.91-.8-.82-.72-1.63-1.44-2.45-2.15-16.34-14.08-34.59-25.72-54.37-33.9-.07-.18-.18-.34-.37-.46-8.59-5.38-15.09-11.69-20.52-18.68.82-9.11,9.7-17.19,8.57-25.98-.43-4.87-4.67-7.49-8.04-10.47-3.63-3.22-5.42-5.14-6.06-10.19-1.1-8.71,1.7-18.09-2.21-26.36-6.37-13.46-27.26-15.35-32.68-29.22-1.6-4.09-1.53-8.6-1.59-12.99-.06-4.39-.32-8.96-2.45-12.79-2.14-3.83-6.71-6.66-10.91-5.41-5.19,1.54-7.01,7.82-8.01,13.13-1.46,7.77-2.93,15.55-4.39,23.32-1.27,6.74-2.5,13.89-.03,20.28,2.22,5.73,7.11,9.96,12.04,13.63,4.93,3.67,10.19,7.14,13.75,12.15,3.35,4.71,3.71,9.28,2.93,14.75-.71,4.93-.34,9.98.92,14.94,4.29,16.91,19.22,19.82,34.02,22.86,4.26,5.15,9.07,9.73,14.34,13.45-6.21-2.12-12.56-3.92-19.03-5.32-7.79-1.69-15.66-2.73-23.57-3.26-3.39-2.67-6.13-6.02-10.1-7.79-6.35-3.41-9.23.27-15.16-.24-6.87-.75-11.86-7.94-18.29-9.82-9.25-2.99-11.95.89-18.92,5.32-15.18,9.12-37.46,8.02-53.75,2.84-4.97-1.58-9.83-3.67-15.01-4.24-5.18-.58-10.93.66-14.25,4.67-4.32,5.21-2.96,13.51,1.52,18.59,4.48,5.08,11.25,7.5,17.89,8.83,5.83,1.17,12.14,1.81,16.72,5.6,4.47,3.69,6.5,9.79,11.16,13.24,6.36,4.71,15.23,2.98,22.91,1.05,8.18-2.06,17.63-6.04,26.06-6.4,6.7-.29,11.88.51,18.33-2.76,5.98-3.04,10.62-7.92,15.28-12.62,2.96-2.98,11.6-13.48,16.17-13.11,8.52.69,17.01,1.92,25.44,3.86,28.04,6.42,53.01,21.22,75.06,39.32-11.69-2.39-23.96-2.32-35.43.79-2.32.63-4.69,1.45-7.08,2.4-7.99-1.95-17.25-1.39-24.19,1.56-9.03,3.83-13.03,13.44-21.27,17.84-7.53,4.02-17.82.66-25.22-1.94-8.97-3.15-19.12-6.5-27.62-2.23-5.14,2.59-8.61,7.53-11.87,12.28-5.12,7.47-10.24,14.94-15.36,22.41-2.07,3.02-4.23,6.48-3.51,10.06.82,4.09,5.29,6.6,9.46,6.62,4.17.02,8.09-1.85,11.83-3.69,3.74-1.84,7.63-3.74,11.8-3.8,4.98-.07,9.63,2.51,14.59,2.99,7.52.72,14.56-3.4,20.99-7.36,7.68-4.74,15.37-9.48,23.05-14.22,7.3-4.5,11.28-8.83,15.55-16,3.91-6.56,11.04-12.07,16.81-17.02,3.99-2.31,8.23-4.31,12.87-5.83,3.95-1.29,7.88-1.96,11.8-2.23-3.99,3.23-7.9,7.25-10.78,11.72-8.03,3.05-15.06,9.05-15.21,18.07-.07,4.43.41,9.2-1.93,12.96-3.27,5.25-11.39,7.38-12.04,13.53-.4,3.85,2.89,7.44,6.68,8.22,3.79.78,7.76-.75,10.78-3.18,3.01-2.43,5.24-5.68,7.41-8.88,3.38-4.97,6.8-10,8.94-15.62,1.78-4.67,2.6-9.64,2.53-14.62-.03-2.15.04-4.25.03-6.36,0-.37-.79-6.31-1.06-5.93,2.56-3.55,5.74-6.83,9.53-10.04,7.92.07,15.83,1.46,23.82,2.51,2.84,2.46,5.64,4.97,8.38,7.52,18.96,17.66,36.2,37.19,53.71,56.36-6.17-1.53-12.79-2.35-19.54-2.49-7.82-3.06-14.18-8.77-22.05-11.11-8.63-2.38-20.79,2.55-28.8,5.24-6.2,2.09-12.07,4.11-17.23,8.12-5.53,4.31-11.07,8.61-16.6,12.92-3.48,2.71-7.3,5.55-11.71,5.67-3.82.11-7.36-1.85-10.58-3.89-3.22-2.05-6.48-4.3-10.25-4.91-3.77-.61-8.23,1.03-9.44,4.65-1.75,5.2,3.88,10.26,3.56,15.74-.32,5.54-6.56,9.48-6.55,15.02,0,3.72,3.01,6.92,6.49,8.22,3.48,1.3,7.33,1.07,11.02.58,12.28-1.62,24.2-5.88,34.72-12.41,7.06-4.38,13.51-9.77,20.88-13.61,4.59-2.39,9.65-4.17,14.84-4.52,5.19-.35,8.85,1.55,13.74-.77,5.29-2.51,9.55-6.55,13.82-10.46,2.95-2.7,8.89-9.61,13.17-9.83,7.77-.4,15.6-.1,23.55,1.14,4.32,4.71,8.66,9.4,13.06,14.01,25.07,26.3,50.38,53.51,78.27,76.85,1.35,1.13,3.09-1.06,1.96-2.3-17.63-19.39-36.59-37.64-55.33-56.08-4.58-8.17-4.2-17.52-2.8-27.18,2.85-4.88,6.99-10.14,9.44-13.36,3.97-5.2,11.21-9.7,13.05-16.28,1.25-4.47-.61-10.88-2.42-14.94-1.65-3.72-3.88-7.24-4.8-11.21-2.03-8.81,2.7-18.31-.05-26.92-2-6.28-8.18-10.99-14.76-11.26-6.58-.27-13.12,3.92-15.63,10.02-2.7,6.57-.83,14.11,1.87,20.68,2.7,6.57,6.24,12.99,6.9,20.07.68,7.2-1.7,14.3-2.82,21.45-1.2,7.68.91,13.83,2.78,21.13.81,3.19,1.87,6.36,2.07,9.6.25,4.01-.19,7.84.7,11.84-7.06-6.99-14.06-14.04-20.91-21.2-13.33-13.93-26.2-28.38-39.48-42.41-6.58-13.56,1.09-26.62,6.8-39.17.62-1.38,1.26-2.82,1.88-4.31,1.77-1.04,3.95-.54,6.4-1.47,6.68-2.71,8.94-5.47,12.35-11.82,3.32-6.4,3.6-12.6,5.99-19.3,2.22-6.25,5.74-12.04,10.31-16.84,3.88-4.07,8.49-7.47,11.86-11.97,3.37-4.5,5.35-10.66,3.03-15.79-2.26-4.99-7.95-7.77-10.12-12.8-2.39-5.55.21-11.85.53-17.88.43-8.28-3.93-16.63-10.96-21.02-7.03-4.38-16.46-4.61-23.7-.57-7.24,4.04-11.99,12.18-11.95,20.47.02,4.39,1.28,8.79.57,13.13-.98,6-5.55,10.87-6.97,16.78-1.3,5.39.15,10.85,2.19,16.13Z"/>
        <path class="cls-2" d="M726.02,118.92c-6.33,4.74-12.73,9.97-16.04,17.15-2.36,5.11-2.97,10.91-2.51,16.52,2,24.54,25.31,44.45,49.9,45.64,5.64.27,11.43-.32,16.54-2.72,20.7-9.71,32.53-49.35,20.93-69.5-13.58-23.58-50.17-21.06-68.82-7.1Z"/>
        <line class="cls-5" x1="890" y1="469.76" y2="469.76"/>
      </g>
    </g>
  </g>
</svg>