<svg version="1.2" xmlns="http://www.w3.org/2000/svg" viewBox="0 0 196 300" width="196" height="300"><defs><linearGradient id="P" gradientUnits="userSpaceOnUse"/><linearGradient id="g1" x2="1" href="#P" gradientTransform="matrix(0,300.085,-196.082,0,97.69,1.754)"><stop stop-color="#d2bdd1"/><stop offset="1" stop-color="#e1c99b"/></linearGradient><linearGradient id="g2" x2="1" href="#P" gradientTransform="matrix(7.105,0,0,23.616,136.305,163.906)"><stop stop-color="#d2bdd1"/><stop offset="1" stop-color="#e1c99b"/></linearGradient></defs><style>.a{fill:url(#g1)}.b{fill:url(#g2)}.c{fill:#f67560}.d{fill:#3b3d35}.e{fill:#47b5c3}.f{fill:#c1817b}.g{fill:#fcd0c7}.h{fill:#94a26e}.i{fill:#b8be79}.j{fill:#e3b39b}.k{fill:#f8eae9}.l{fill:#fac496}.m{fill:#da9e8b}.n{fill:#ecdccf}</style><path class="a" d="m139.5 15.7q-0.9-2.4-3.8-5.2-4.9-4.8-11-8-3.3-1.6-5.8-2.1-3-0.6-8.7-0.2l-4.4 0.3q-4.4 0.3-6.8 0.7-3.7 0.7-6.3 2.3-1 0.7-1.3 1.4-0.4 0.1-0.8 0.5-5.7 5-9.9 11.8-1.7 2.7-4.5 8.4-0.9 1.9-1.2 2.5-1.3 3.9-0.1 10.3 2.2 11 7.8 20.4 0 0.2 0.1 0.4 0.1 0.3 0.7 0.8 0.3 0.4 0.6 0.7l1 1.2q0.8 0.8 1.5 1 0.3 0.3 0.7 0.5-0.7 3.2-1.4 4.9-0.9 2.6-2.5 4.3-1.2 1.4-3.1 2.5-1.3 0.8-3.6 1.8-13.4 5.8-28.1 9.1-4.8 1-6.4 1.5-3.5 1.1-5.8 2.8-3.3 2.5-6.5 8.5-2.3 4.3-5.4 11.8-3.8 9-5.2 11.9-3.7 7.9-12 23.3-6.6 13.7-7.3 24.5-0.3 6.3 1.6 10.3 0-0.6 0-1.3 1.4 3.9 5.4 6.9 2.9 2.1 8.9 4.5 9.6 3.8 19.5 6.5 4.4 1.3 8.9 2.3l4.7 1.2q0.8 0.2 1.5 0.3-0.1 0.4-0.1 0.9-0.2 2.9-0.1 6.8 0.1 2.3 0.2 6.8 0.2 6.8-0.1 15.4-0.4 10.1-1.1 20.3-0.2 2.1 0 4.1 0.1 1.3-0.1 2.6-0.8 6.9-0.9 13.8-0.1 11.7 1.8 23.5 0.3 1.1 0.5 2.2 0.4 1.3 1.1 2.6h41.6v-0.7q0.3-0.2 0.6-0.3 0.5 0 0.4-0.2 0.4 0.1 0.7 0.3 3.4-0.7 6.8-1.1 0.7 0.2 1.5 0.3 1.2 0.4 2.4 0.7 0.8 0.3 1.6 0.5 0.7 0 1.4 0.1 0 0.2 0 0.4h38.9q0.5-3.5 0.3-7.1-0.2-4.5-0.7-8.9-0.3-2.6-0.3-5.1-0.1-4-0.2-8-0.4-8.9-1.2-17.9-0.6-6.8-1.3-13.5-0.6-6.8-1.4-13.5-0.8-6.8-1.6-13.6-1.3-10-2.9-20-0.6-4-0.8-6-0.2-3.4 0.2-6 0.4-2.8 1.9-6.6 1.9-4.2 2.7-6.3 2.2-6 3.1-14.1 0.3-2.1 0.4-5 1.5 1.2 3.6 2.3 1.3 0.7 4.3 2.1l18.5 8.7q3.9 1.9 6 2.5 3 1 6.6 1.2 4.6 0.3 6.1-1.9 0.4-0.6 0.6-1.2 0.4-0.2 0.8-0.6 4.9-5.5 3.3-16.2-1.6-10.9-9.2-24.7-1.5-2.8-6.6-11.5-4.1-7.1-6.4-11.6-1.3-2.8-2.2-5 0.1-0.5 0.1-1.1 0-0.2-0.3-1.8-0.2-0.6-0.2-2.4-0.2-3.1-0.8-5-0.3-1.1-1.3-3.4-2.4-5.6-5.2-7.9-1.6-1.1-2.3-1.8-0.7-0.6-1.6-2-1-1.5-1.6-2-1.5-1.6-6.2-2.7-4.5-1.2-6-2.9-0.6-0.8-1.1-0.6-0.4 0.1-0.4 0.7-0.2-0.9-0.9-1.4 0.5-1.8 0.6-2.8 0.1-1.6-0.4-2.7-0.4-0.9-0.4-1.1 0-0.5 0.7-1.1 2.6-2.9 2.3-5-0.1-1.2-1.5-3.3-3.8-5.2-5-7.2-0.7-1.1-0.8-1.9-0.1-0.8 0.3-2.1 0.5-1.6 0.5-2 0.2-1.5-0.7-3.6-0.8-1.4-1.2-2.4 0.1-0.1 0.1-0.4 0-0.3 0.1-0.4 0.1-0.2 0.3-0.2 0.3 0 0.5-0.1 1-1.2 1.1-2.9 0.2-1.6-0.4-3.3zm1.5 48.5l0.2 0.1q0.3-0.5 0.8-0.8 0.4-0.2 1-0.5 0 0.3 0.1 0.7-1.1 0.1-1.8 0.9-0.1 0.1-0.2 0.4zm2.3 5q0.3-0.4 0.5-0.5l0.8 4.3q0.1 0.5 0.3 1.1 0 0.2 0 0.3 0.1 1.3 0.5 2.5 0.5 1.7 1.5 3.9-1.2-0.9-1.9-1.3-0.7-0.4-0.9-0.7-0.4-0.5-0.6-0.8-0.1-0.1-0.2-0.2-0.1-1.1-0.5-2.5-0.7-2.1-1.9-3.7l0.1-0.1 0.7-1q0.6-0.1 1-0.3zm-12.4 4.1q0.9 0.2 2.1 0.2 1.8 0.1 2.6-0.1 0.7-0.1 1.2-0.3 0 0.4 0.1 0.9 0.1 0.7 0.4 2l0.2 1q0.2 1.6 0.1 4.2 0 1.5 0.1 1.9 0.2 1 0.7 2l0.9 1.6q1.2 1.6 3.5 4 2.2 2.2 3.4 3.2 0.7 0.5 1.4 0.8-0.1 0.5 0.1 1.1 1 3.3 4.4 8.5 3.7 5.7 4.8 8.4 0.7 1.9 1.7 6 0.5 2.5 1 4.7-3.4-3.3-5.2-5.4-3.2-3.8-4.8-7.4-0.5-1.2-1.9-5-1.1-3.2-2.1-4.9-2-3.3-6.3-6.5-6-4.8-13.7-7.4-1.9-0.6-2.9-1-1.7-0.6-2.8-1.3-2.7-1.6-3.5-3.8 1-2 2-3.6 1.1-1.9 2.2-2.7 0.6-0.4 1.2-0.7 0.7-0.3 1.6-0.4 3.5-0.8 6.3-0.2zm12.5 78.7q-0.1 1.2-0.2 1.9-0.8 6.3-2.5 11-0.1 0.3-3.2 7.6-0.7 1.7-1.2 3.3 0.3-2.5 0.9-4.7 0.5-1.7 2-5.6 2.4-6.6 4.2-13.5z"/><path class="b" d="m143.3 154.1q0.1-0.8 0.2-2-1.8 6.9-4.2 13.6-1.5 3.8-2 5.5-0.6 2.2-0.9 4.7 0.5-1.6 1.2-3.2 3.1-7.4 3.2-7.7 1.7-4.6 2.5-10.9z"/><path class="c" d="m93.2 135.4q0 0.3 0 0.5 0 0.1 0 0.3 0 0.2 0 0.4 0 0.2 0 0.4 0 0.2 0 0.4 0 0.2 0 0.4 0 0.2 0 0.3 0 0.3 0 0.5 0 0.1 0 0.3 0 0.2 0 0.4-0.1 0.2-0.2 0.3 0 0.3 0 0.4 0 0.2-0.1 0.4-0.1 0.2-0.2 0.4-0.2 0-0.5 0v0.2q2.7 0.7 5 1.1-0.3-0.9-0.4-1.1 0-0.1 0-0.2 0-0.1-0.1-0.3 0-0.1 0-0.3 0-0.2 0-0.4-0.1-0.2-0.1-0.4 0-0.2 0-0.4 0-0.2 0-0.4 0-0.1 0-0.3 0-0.3 0-0.4 0-0.2 0-0.4 0-0.1 0-0.2-0.2-0.6-0.2-0.7-0.1-0.3-0.1-2.5 0-0.2 0-0.5-0.1 0-0.1 0l-2.9 0.4-0.1 0.2q0 0.1 0 0.1 0 0.2 0 0.4 0 0.2 0 0.4 0 0.2 0 0.3zm4.8 65.3q-0.1-0.5-0.5-1.1 0-0.4 0-0.5 0 0 0.1-0.1h-0.1q0 0.2-0.3 0.5-0.1 0.3-0.5 0.7-0.3 0.3-0.8 1.2l-0.7 0.8q0.2 0.2 0.5 0.3 0.4 0.2 1 0.1h0.5q0.4-0.1 1.2-0.3 0.2 0.2 0.1 0.6 0.4-0.3 0.6-0.5-0.3-0.4-0.7-0.7-0.3-0.4-0.4-0.5zm-2.1-26.7q-0.3-0.2-0.4-0.3-1 0.4-2.3 0.7-0.1 0.7 0 2.2 0.1 0.6 0.1 0.8 0.4 0 0.8 0 2.9 0.2 4.9 0.5 0.2 0 0.4 0.1-0.1-0.7-0.1-1.7 0-1 0.1-1.8l-2-0.1q-1.2-0.1-1.5-0.4zm1.6-10.2q-0.2 0.4-0.5 0.7-0.3 0.3-1.6 1.2-0.9 0.6-1.8 1.2 0.1 1.3-0.1 2.2 0 0.1 0 0.2 0-0.1 0.1-0.1 1.3-0.5 2.7 0.1 0.6 0.3 0.5 0.7-2.2 0.6-3.3 1.1-1.7 0.8-2 0.9-2.3 0.4-4.1-1.6-1.6-1.8-1.8-4.2 0-1.5-0.5-1.9-0.2 0.2-0.5 0.2-0.1 1-0.2 2.4 0.1 2.2 1.7 3.9 0.6 0.7 1.5 1.2v-0.1q0.1-0.1 0.4 0 0.2 0.1 0.3 0.3 0.1 0.1 0.1 0.2 0.6 0.3 1.4 0.4 2.1 0.2 5.1-0.9 2.2-0.9 3.1-0.2-0.5 0.6-1.1 1.1l1.5 0.1q0.7 0.1 1.2 0.1 0.1-0.1 0.1-0.2 0.3-0.6 0.6-0.5h0.2q0-0.1 0-0.1 0.3 0 0.4 0.2 0.3-0.3 0.5-1l0.4-0.8q0.3-0.8 0.6-1.2 0.2-0.1 0.3-0.1-0.5-0.7-1.2-0.7-0.4 0-0.8 0.1 0 0.7-0.1 0.9-0.3 0.7-0.7 0.8-0.3-0.4-0.4-0.9-0.2-0.5-0.2-1.3l0.1-4.3q-1 0.1-1.9-0.1z"/><path class="d" d="m131.6 23.5q-0.6-1.4-1.6-1.9-0.6-0.3-1.2-0.1-0.7 0.1-1.1 0.5 0.3 0.1 0.6 0.3v0.1q-0.1 0.1-0.2 0.4 0 0.2 0 0.4-0.2 0.1-0.3 0.4-0.1 0.1-0.1 0.3 0 0.2 0 0.4-0.2 0.2-0.4 0.3-0.1 0.2-0.2 0.4 0 0.2 0 0.4-0.2 0.2-0.3 0.4-0.1 0.2-0.1 0.4-0.2 0.2-0.3 0.4-0.2 0.2-0.4 0.4-0.2 0.1-0.4 0.3-0.2 0.2-0.5 0.5-0.4 0.1-0.9 0.3-0.7 0-1.5 0-0.1-0.1-0.3-0.3-0.1 0-0.3 0-0.7-0.2-1.4-0.4-0.3-0.1-0.5-0.2-3.9 0-7.7 0-0.3 0.1-0.6 0.2-0.4 0.2-0.9 0.4-0.3 0-0.6 0.2-0.2 0.1-0.4 0.2-0.3 0.1-0.6 0.3-0.2 0.2-0.4 0.4-0.1 0.1-0.3 0.2 0 0.1-0.1 0.1-0.3 0.2-0.6 0.3-0.2 0.2-0.4 0.4-0.3 0.2-0.5 0.4-0.2 0.2-0.4 0.3-0.2 0.2-0.4 0.4-0.1 0.2-0.4 0.4-0.1 0.2-0.3 0.4-0.2 0.2-0.4 0.3-0.2 0.2-0.4 0.5-0.2 0.2-0.4 0.3-0.1 0.2-0.2 0.3-0.2 0-0.3 0.1-0.3 0.1-0.6 0.2-0.2 0.2-0.3 0.3-0.4 0.1-0.8 0.3-0.1 0.1-0.3 0.2-0.3 0.2-0.7 0.3-0.2 0.1-0.3 0.2-0.3 0.2-0.7 0.3-0.2 0.1-0.3 0.2-0.3 0.2-0.7 0.3-0.2 0.1-0.4 0.4-0.2 0.2-0.3 0.4-0.2 0.1-0.4 0.3-0.1 0.2-0.1 0.4 0 0.2 0 0.4-0.3 0.2-0.4 0.4-0.1 0.2-0.1 0.4 0 0.1 0 0.4 0 0.1 0 0.3 0 0.2 0 0.4 0 0.2 0 0.3-0.1 0.3-0.2 0.5 0 0.1 0 0.3-0.1 0.2-0.2 0.4-0.1 0.2-0.3 0.4 0 0.2 0 0.4 0 0.2 0 0.4 0 0.2 0 0.4 0 0.1 0 0.4 0 0.1 0 0.3 0 0.2 0 0.4 0 0.2 0 0.3 0 0.3 0 0.4 0 0.2 0 0.4 0 0.2 0 0.4 0 0.2 0 0.4 0 0.2 0 0.4 0 0.2 0 0.4 0 0.2 0 0.3 0 0.2 0 0.4 0 0.1 0 0.4 0 0.2 0 0.4 0 0.1 0 0.4 0 0.1 0 0.3 0 0.2 0 0.4-0.1 0.2-0.2 0.4-0.2 0.2-0.2 0.4 0 0.2-0.1 0.4 0 0.2 0 0.4 0 0.1 0 0.3 0 0.3 0 0.4 0 0.2 0 0.4 0 0.1 0 0.3 0 0.2 0 0.5 0 0.1 0 0.3 0 0.2 0 0.4 0 0.2 0 0.4 0 0.2 0 0.4 0 0.2 0 0.3 0 0.2 0 0.5 0 0.1 0 0.3 0 0.2 0 0.4 0 0.2 0 0.3 0 0.3 0 0.4 0 0.2 0 0.4 0 0.2 0 0.4 0 0.2 0 0.4 0 0.2 0 0.4 0 0.2 0 0.3 0 0.2 0 0.5 0 0.2 0 0.3 0 0.2 0 0.4 0 0.2 0 0.4 0 0.2 0 0.3 0 0.2 0 0.4 0 0.2 0 0.4 0 0.2 0 0.4 0 0.2 0 0.4 0 0.1 0 0.4 0 0.2 0 0.3 0 0.2 0 0.4 0 0.2 0 0.4 0 0.2 0 0.4 0 0.2 0 0.4 0 0.2 0 0.3 0 0.2 0 0.4 0 0.2 0 0.4 0 0.2 0 0.4 0 0.2 0 0.4 0 0.2 0 0.4 0 0.1 0 0.3 0 0.2 0 0.4 0 0.2 0 0.4 0 0.2 0 0.4 0 0.2 0 0.4 0 0.2 0 0.3 0 0.2 0 0.4 0 0.2 0 0.3 0 0.3 0 0.5 0 0.2 0 0.3 0 0.3 0 0.4 0 0.2 0 0.4 0 0.2 0 0.4 0 0.2 0 0.4 0 0.2 0 0.3 0 0.3 0 0.5 0 0.2 0 0.3 0 0.2 0 0.4 0 0.2 0 0.4 0 0.2 0 0.4 0 0.1 0 0.3 0 0.2 0 0.4 0 0.2 0 0.4 0 0.2 0 0.4 0 0.2 0 0.4 0 0.2 0 0.4 0 0.2 0 0.3 0 0.2 0 0.4 0 0.2 0 0.4 0 0.1 0 0.4 0 0.1 0 0.3 0 0.2 0 0.5 0 0.1 0 0.3 0 0.2 0 0.4 0 0.2 0 0.4 0 0.2 0 0.4 0 0.1 0 0.3 0 0.2 0 0.5 0 0.1 0 0.3 0 0.2 0 0.3 0 0.3 0 0.5 0 0.1 0 0.3 0 0.2 0 0.4 0 0.2 0 0.4 0 0.2 0 0.4 0 0.2 0 0.4 0 0.2 0 0.3 0 0.3 0 0.5 0 0.1 0 0.3 0 0.2 0 0.4 0 0.1 0 0.3 0 0.3 0 0.4 0 0.2 0 0.4 0 0.2 0 0.4 0 0.2 0 0.4 0 0.2 0 0.4 0 0.1 0 0.3 0 0.3 0 0.4 0 0.2 0 0.4 0 0.2 0 0.4 0 0.2 0 0.4 0 0.1 0 0.4 0 0.1 0 0.3 0 0.2 0 0.4 0 0.2 0 0.4 0 0.2 0 0.4 0 0.1 0 0.4 0 0.2 0 0.4 0 0.1 0 0.3 0 0.2 0 0.4 0 0.2 0 0.4 0 0.2 0 0.4 0 0.1 0 0.3 0 0.2 0 0.4 0 0.2 0 0.4 0 0.2 0 0.4 0 0.2 0 0.4 0 0.1 0 0.2 0 0.1 0 0.1 0 0.2 0 0.4 0 0.2 0 0.4 0 0.2 0 0.4 0 0.2 0 0.4 0 0.2 0 0.4 0 0.2 0 0.3 0 0.2 0 0.4 0 0.2 0 0.4 0 0.2 0 0.4 0 0.2 0 0.3 0 0.2 0 0.4 0 0.3 0 0.4 0 0.2 0 0.4 0 0.2 0 0.4 0 0.2 0 0.4 0 0.2 0 0.3 0 0.3 0 0.4 0 0.2 0 0.4 0 0.2 0 0.4 0 0.1 0 0.4 0 0.1 0 0.3 0 0.2 0 0.4 0 0.2 0 0.4 0 0.2 0 0.3h0.1q0 0.2 0 0.4 0 0.1 0 0.3 0 0.2 0 0.4 0 0.2 0 0.4 0 0.2 0 0.4 0 0.1 0 0.4 0 0.1 0 0.4 0 0.1 0 0.3 0 0.2 0 0.4 0 0.2 0 0.3 0 0.3 0 0.5 0 0.1 0 0.3 0 0.2 0 0.4 0 0.2 0 0.4 0 0.2 0 0.4 0 0.2 0 0.3 0 0.3 0 0.5 0 0.1 0 0.3 0 0.2 0 0.4 0 0.1 0 0.4 0 0.2 0 0.3 0 0.2 0 0.4 0 0.2 0 0.4 0 0.2 0 0.4 0 0.2 0 0.4 0 0.2 0 0.4 0 0.2 0 0.3 0 0.3 0 0.4 0 0.2 0 0.4 0 0.2 0 0.4 0 0.2 0 0.4 0 0.1 0 0.3 0 0.2 0 0.4 0 0.2 0 0.4 0 0.2 0 0.4 0 0.2 0 0.4 0 0.2 0 0.4 0 0.1 0 0.4 0 0.1 0 0.3 0 0.2 0 0.4 0 0.2 0 0.3 0 0.2 0 0.4 0 0.2 0 0.4 0 0.2 0 0.4 0 0.2 0 0.4 0 0.2 0 0.4 0 0.2 0 0.4 0 0.2 0 0.3 0 0.2 0 0.4 0 0.2 0 0.4 0 0.2 0 0.4 0 0.2 0 0.4 0 0.2 0 0.3 0 0.2 0 0.4 0 0.2 0 0.4 0 0.2 0 0.4 0 0.2 0 0.3 0 0.3 0 0.4 0 0.2 0 0.4 0 0.3 0 0.4 0 0.2 0 0.4 0 0.2 0 0.4 0 0.2 0 0.4 0 0.1 0 0.3 0 0.2 0 0.4 0 0.2 0 0.4 0 0.2 0 0.4 0 0.1 0 0.3 0 0.3 0 0.5h-0.4q0.2 0.7 0.3 1.7-0.2-0.1-0.4-0.1h-2.7v0.1q-0.5 0.2-0.9 0.6 0-0.1-0.1-0.1 0 0.1 0 0.2-0.2 0-0.5 0.1-0.1 0.2-0.2 0.4 0 0.1 0 0.3 0 0.2 0 0.4 0 0.2 0 0.4 0 0.2 0 0.3 0 0.3 0 0.5 0 0.1 0 0.3 0 0.2 0 0.4 0 0.2 0 0.4 0 0.2 0 0.4 0 0.2 0 0.4 0 0.2 0 0.3 0 0.3 0 0.5 0 0.1 0 0.3 0 0.2 0 0.4 0 0.2 0 0.3 0.1 0.3 0.1 0.4 0 0.2 0 0.4 0.1 0.2 0.1 0.4 0.3 0 0.5 0 0.3 0 0.5 0 0.1-0.2 0.2-0.4 0.1-0.2 0.1-0.4 0-0.1 0-0.4 0.1-0.1 0.2-0.3 0-0.2 0-0.4 0-0.2 0-0.3 0-0.2 0-0.5 0-0.1 0-0.3 0-0.2 0-0.4 0-0.2 0-0.4 0-0.2 0-0.4 0-0.2 0-0.4 0-0.2 0-0.3 0-0.2 0-0.5 0-0.1 0-0.3 0-0.2 0-0.4 0-0.2 0-0.4 0 0 0-0.1l0.1-0.2 2.9-0.4q0 0 0.1 0 0 0.3 0 0.5 0 2.2 0.1 2.5 0 0.1 0.2 0.7 0 0.1 0 0.2 0 0.2 0 0.4 0 0.1 0 0.4 0 0.2 0 0.3 0 0.2 0 0.4 0 0.2 0 0.4 0 0.2 0.1 0.4 0 0.2 0 0.4 0 0.2 0 0.3 0.1 0.2 0.1 0.3 0 0.1 0 0.2 0.1 0.2 0.4 1.1-2.3-0.4-5-1.1-1.8-0.5-3.7-1.1-3-1.1-4.4-1.6-2.5-0.8-4.5-1.1-7.1-1.3-13.1 1.8-3.1 1.6-5.3 4.2-2.3 2.6-3.3 5.7-1 2.6-1.2 6.1-0.1 2.2 0.1 6.3l0.3 8.2q0 1 0.4 1.5 0.1 0.2 0.2 0.3l-0.2 10.6q0 3.8 0.2 5.2 0.2 1.4 0.8 2 0.7 0.6 2.2 0.7l2.2 0.1q2.4 0.1 3.5-0.4l1.7-1q1.1-0.4 1.6-0.7 0.5-0.2 1.2-0.9 1.5-1.3 2.1-1.9 1.2-1.6 1.9-2.3 0.9-1.3 2-2.4 1.8-1.8 3.8-3.2 0.4-0.3 0.7-0.5 0.5 2.7 0.6 5.3 0 0 0 0.2-1.4-0.2-2.6 0-2.3 0.3-4.1 1.4-2.1 1.1-3.1 2.9-0.7 1.4-0.9 3.4-0.2 1.2-0.2 3.5 0.1 2 0.2 3.2-1.3-1.1-2.8-1.5-2-0.4-2.9 0.7-0.2 0.2-0.6 0.8-0.3 0.6-0.6 0.8-0.4 0.3-1 0.4-0.7 0.1-1 0.1-1.3 0.2-2.4 1.2-1 0.9-1.5 2.2-0.8 2.1-0.3 5.3 0.1 0.7 0.3 2.1 0.3 1.3 0.3 2.1-0.1 0.8-0.4 2.3 0 1.3 0.4 2.2 0 0.1 0.3 0.8 0.2 0.4 0.3 0.7 0 0.5-0.4 1.1-0.6 0.9-0.6 1-0.3 0.8 0 1.9 0.4 1.7 0.4 1.9 0.1 1-0.5 2.8-0.6 1.8-0.4 2.8 0 0.2 0.2 1 0.2 0.8 0.2 1.1 0.1 0.8-0.6 2.4-0.6 1.5-0.5 2.4 0.1 0.7 0.4 2 0 0.4-0.2 1.1-0.2 0.3-0.4 1.1-0.3 1-0.1 2.8 0.2 2.3 0.2 3 0 0.8-0.3 2.2-0.1 1.4 0.3 2.2 0.1 0.3 0.7 1.1 0.5 0.7 0.6 1.1 0 0.4 0 1.1-0.1 0.7-0.1 1 0.1 0.9 1.1 2.1 1.3 1.4 1.5 1.9 0.4 0.7 0.7 2.8 0.2 1.7 0.9 2.4 0.6 0.7 2.5 1.3 0.8 0.5 1.7 1.6l1.4 1.9q1.2 1.3 3 2.1 1.6 0.7 3.4 0.6 1.8-0.2 3.4-1.3 0.6-0.4 1.1-1 1 0 1.8-1 0.6-0.8 0.6-2.3v-1.6q0.1-0.5 0.4-1.3 0.4-0.8 0.6-1.2 0.2-0.6 0.4-1.2 0.8 1 2.4 2.1 1.2 0.8 2 1.1 0.7 0.2 1.6 0.2 1.2 0 2.1-0.2l-1.1 1.3q-0.9 1.1-1.3 3.2-0.1 1-0.1 2-0.1 2.4 0.7 4.1 0.5 0.8 1.4 1.8l-0.8 2.7q-0.1 0.5-0.1 1.6v3.2q0 1.2 0.1 1.8l1.1 3.5q0.5 1 1.7 2.3 1.3 1.7 1.8 2.3 0.6 0.9 0.7 2v0.8q0.1 0.6 0.2 0.9 0.3 1 1.6 1.4 0.7 0.2 2.3 0.2 0.9 0 1.3-0.3 0.3-0.2 0.6-0.9 0.2-0.4 0.5-1.8 0.3-1.1 0.7-1.7 0.9-1.1 1.3-1.8 0.1-0.2 0.4-1.2l1.9-7.2q0.1-0.8 0.1-2.7 0-0.9-0.2-1.5l-0.4-0.8q-0.2-0.4-0.2-1.2 0-0.9 0.1-1.4 0.2-0.4 0.5-1.3 0.2-0.2 0.2-0.4 0.6 0.2 1.2 0.5 2.2 1.3 2.4 1.4 2.2 0.9 7 1.1 2 0 2.7-0.3 0.2-0.1 1.4-1.1 0.9-0.6 1.8-0.9 0.4-0.1 1.8-0.5 1-0.2 1.6-0.5 0.5-0.3 1.1-1 0.8-0.8 1.2-1.1 0.5-0.4 2-1.1 1.3-0.7 1.9-1.3 1.3-1.3 1.3-3.9 0.5-0.4 0.9-1.2 1.4-3.4 2-7.9 0.2-2.9 0.3-8.2 0.1-2.6 0-3.9-0.2-2.1-0.8-3.7-1-2.2-1.2-3.3-0.2-2.1-0.3-3.2 0-0.5-0.8-3.8-0.5-2.4-0.2-3.9 0.1-0.2 0.6-1.7 0.3-1 0.3-1.8-0.1-0.7-0.7-1.9-0.6-1.5-0.8-2.1-0.1-0.6 0-1.5 0.1-1 0.1-1.5 0.1-0.9 0-2.9 0-1.9 0.1-2.9 0.1-0.6 0.8-3.7 0.5-2.3 0.3-3.8-0.1-1-0.9-2.9-0.9-1.9-1.1-3-0.1-0.7-0.1-2.6 0-1.6-0.3-2.6-0.5-1.3-1.6-2.4 0.9-0.6 1.7-1.6 2.5-2.8 3.7-6.5 0.3-1 0.5-2.1 0.1-1.2 0-2.8v-7q0-1.5-0.2-2.3-0.1-0.5-0.5-1.4-1.9-4.4-5.1-6.4-1.9-0.9-3.1-0.4-0.7-2.1-2.1-3.7-1.5-2.1-3.2-2.5-0.6-0.1-1.2-0.2 0.3-0.3 0.8-0.7l0.9-1.1q0.7-0.7 0.8-1.1 0.1-0.2 0.1-0.2 0.6-1.1-0.1-2.5-0.5-0.9-1.9-1.9-5.2-3.3-11.2-3.1-1.5 0.1-4.4 0.6-0.6 0-1.1 0.1 0-0.2 0-0.4 0-0.2 0-0.4 0-0.1 0-0.3 0-0.3 0-0.4 0-0.2 0-0.4 0.1-0.1 0.2-0.3 0-0.2 0-0.5 0-0.1 0-0.3 0-0.2 0-0.4 0-0.2 0-0.4 0-0.2 0-0.4 0-0.1 0-0.4 0-0.1 0-0.4 0-0.1 0-0.4 0-0.1 0-0.3 0-0.2 0-0.3 0-0.3 0-0.4 0-0.2 0-0.4 0-0.2 0-0.4 0-0.2 0-0.4 0-0.2 0-0.4 0-0.2 0-0.3 0-0.3 0-0.5 0-0.1 0-0.3 0-0.2 0-0.4 0-0.2 0-0.4 0-0.2 0-0.3 0-0.2 0-0.4 0-0.2 0-0.4 0-0.2 0-0.4 0-0.2 0-0.4 0-0.2 0-0.4 0-0.2 0-0.3 0-0.3 0-0.4 0-0.2 0-0.4 0-0.2 0-0.4 0-0.2 0-0.4 0-0.2 0-0.3 0-0.2 0-0.4 0-0.2 0-0.4 0-0.2 0-0.4 0-0.1 0-0.4 0-0.2 0-0.4 0-0.1 0-0.3 0-0.2 0-0.4 0-0.2 0-0.4 0-0.2 0-0.4 0-0.2 0-0.4 0-0.2 0-0.3 0-0.2 0-0.4 0-0.2 0-0.4 0-0.2 0-0.4 0-0.2 0-0.4 0-0.2 0-0.3 0-0.2 0-0.4 0-0.2 0-0.4 0-0.2 0-0.4 0-0.2 0-0.4 0-0.2 0-0.4 0-0.2 0-0.3 0-0.2 0-0.4 0-0.2 0-0.4 0-0.2 0-0.3 0-0.2 0-0.4 0-0.3 0-0.4 0-0.2 0-0.4 0-0.2 0-0.4 0-0.2 0-0.4 0-0.2 0-0.4 0-0.2 0-0.3 0-0.2 0-0.4 0-0.2 0-0.4 0-0.2 0-0.4 0-0.1 0-0.3 0-0.2 0-0.4 0-0.2 0-0.4 0-0.2 0-0.4 0-0.2 0-0.4 0-0.2 0-0.4 0-0.1 0-0.4 0-0.1 0-0.4 0-0.1 0-0.3 0-0.2 0-0.3 0-0.3 0-0.5 0-0.1 0-0.3 0-0.2 0-0.4 0-0.2 0-0.4 0-0.2 0-0.4 0-0.2 0-0.4 0-0.2 0-0.3 0-0.2 0-0.5 0-0.1 0-0.3 0-0.2 0-0.4 0-0.1 0-0.3 0-0.3 0-0.4 0-0.2 0-0.4 0-0.2 0-0.4v-0.1h-0.2q0 0 0-0.1 0-0.2 0-0.3 0-0.2 0-0.4 0-0.2 0-0.4 0-0.2 0-0.3 0-0.2 0-0.4 0-0.2 0-0.4 0-0.2 0-0.4 0-0.2 0-0.4 0-0.1 0-0.4 0-0.2 0-0.4 0-0.1 0-0.3 0-0.2 0-0.4 0-0.2 0-0.4 0-0.2 0-0.4 0-0.2 0-0.3 0-0.2 0-0.4 0-0.2 0-0.4 0-0.2 0-0.4 0-0.2 0-0.4 0-0.2 0-0.4 0-0.1 0-0.3 0-0.2 0-0.5 0-0.1 0-0.3 0-0.2 0-0.4 0-0.2 0-0.4 0-0.2 0-0.3 0-0.2 0-0.4 0-0.2 0-0.4 0-0.2 0-0.4 0-0.2 0-0.3 0-0.3 0-0.4 0-0.2 0-0.4 0-0.2 0-0.4 0-0.2 0-0.4 0-0.2 0-0.4 0-0.2 0-0.4 0-0.2 0-0.3 0-0.2 0-0.4 0-0.2 0-0.4 0-0.2 0-0.4 0-0.1 0-0.3 0-0.3 0-0.4 0-0.2 0-0.4 0-0.2 0-0.4 0-0.2 0-0.4 0-0.2 0-0.4 0-0.2 0-0.4 0-0.1 0-0.3 0-0.2 0-0.4 0-0.2 0-0.4 0-0.1 0-0.3 0-0.2 0-0.5 0-0.1 0-0.3 0-0.2 0-0.4 0-0.2 0-0.4 0-0.2 0-0.4 0-0.1 0-0.3 0-0.2 0-0.5 0-0.1 0-0.3 0-0.2 0-0.3 0-0.3 0-0.5 0-0.2 0-0.3 0-0.2 0-0.4 0-0.2 0-0.4 0-0.2 0-0.4 0-0.2 0-0.4 0-0.2 0-0.3 0-0.3 0-0.5 0-0.1 0-0.3 0-0.2 0-0.4 0-0.1 0-0.3 0-0.3 0-0.4 0-0.2 0-0.4 0-0.2 0-0.4 0-0.2 0-0.4 0-0.2 0-0.4 0-0.1 0-0.4 0-0.2 0-0.3 0-0.2 0-0.4 0-0.2 0-0.4 0-0.2 0-0.4 0-0.1 0-0.4 0-0.1 0-0.3 0-0.2 0-0.4 0-0.2 0-0.4 0-0.2 0-0.4 0-0.1 0-0.4 0-0.2 0-0.4 0-0.1 0-0.3 0-0.2 0-0.4 0-0.2 0-0.4 0-0.2 0-0.4 0-0.1 0-0.3 0-0.2 0-0.4 0-0.2 0-0.4 0-0.2 0-0.3 0-0.3 0-0.5 0-0.2 0-0.3-0.1-0.3-0.1-0.4h0.5l0.2-0.3q0.3 0.3 0.5 0.4 0.4 0.5 0.6 0.8 0.4 0.5 0.8 0.5 0.4 0.1 0.6 0 0.2 0.1 0.4 0.1 9.2 1.3 14 1.5 3 0.1 4.7-0.5 2.7-1.1 3.2-3.4 0.1-0.3 0.1-1.5 0.1-1 0.3-1.6 0.2-0.4 0.7-0.9 0.7-0.8 0.7-0.9 1.2-1.6 0.7-3.6-0.3-1.2-0.2-1.6 0.6-0.6 0.7-1 0.4-0.6 0.3-1.9-0.1-1.5 0.2-2.1 0.3-0.4 1.2-0.8 0.9-0.4 1.1-0.7 1.3-1.2-0.2-4.1-1.6-3.3-5.2-9.8 0.3-1.1 1.1-3 0.8-2.1 1.1-3 0.8-3.3-0.7-6.2zm-2.3-0.4q0.7 0.5 1.1 1.2 0.9 1.7 0.7 3.5-0.1 0.3-0.2 0.9-0.4-1.2-0.2-1.7-0.2 0-0.4-0.2-0.8-0.2-1.7 0.3-0.7 0.6-0.8 1.5 0 0.7-0.1 1l-0.3 0.3q-0.3 0.6-0.5 1.5-0.1 0.6 0.3 0.6l0.9-1q0.5-0.5 0.6-0.9-0.1-0.9 0.1-1.2 0.2-0.3 0.2-0.5 0.2-0.2 0.3-0.8l0.7 0.2q0 0.6 0.2 1.1 0.2 0.3 0.5 0.4-0.4 0.9-1 2.2-1.2 2.3-1.2 3.7 0 0.1 0 0.2 0 1.1 0.7 2.5 0.5 1.5 2.9 5.2 2 3.2 2.5 5.3-1.1 0.2-1.9 1-0.4 0.4-0.6 0.8-0.3 0.6-0.4 1.2-0.1 0.3-0.2 1.2 0 0.8-0.1 1.2-0.1 0.3-0.4 0.9 0 0.1-0.1 0.1-0.3 0.5-0.4 0.9-0.1 0.6 0.1 2 0.2 1.3-0.1 2-0.1 0.4-0.7 0.8-0.6 0.6-0.7 0.8-0.3 0.4-0.5 1-0.1 0.5-0.2 1.2-0.1 1.6-0.3 2.2-0.6 1.7-2.8 2.3-1.6 0.5-3.8 0.3-2.4-0.3-7.4-0.9-3.8-0.3-6.6 0.5-0.8-1.4-2.4-2-0.3-2.9-1.6-5.8 1.5-1.2 1.9-3.2 0-0.6 0-0.9 0.1-0.7 0.3-1 0.5-1.2 2.3-1.8 3.1-1.3 9.2-1.5 3.4-0.1 5.4 0.5 2.9 0.7 4.2 3 0-0.3 0-0.5 0.1 0.1 0.1 0.2 0.4 1.2 0.4 1.7 0 0.5-0.3 1.1-0.5 0.8-0.8 1.4-0.1 0-1.7 1.5-0.7 0.6-0.9 1.3-0.2 0.6 0.3 1.8 1.2 0 3.2-0.5 0.7-0.2 0.9-0.4 0.2-0.3 0.2-0.4 0-0.3-0.1-0.5-1.7 0.1-2.9 0.4-0.2 0.1-0.4 0.1l0.1-0.2 1.1-1.2q1-1 1.2-1.3 0.9-1.2 1-2.7 0.1-1.5-0.6-2.8-0.4-0.7-1-0.9 0 0.2-0.1 0.3-0.3-0.8-1.3-1.6-2.3-1.5-6.7-1.4-4.9 0-9.8 1-3.6 0.8-4.2 2.7-0.1 0.4-0.2 1.4-0.1 0.9-0.3 1.4-0.2 0.3-0.6 0.8-0.6 0.6-0.8 0.9-0.8 1.3 0.1 3.6 0.3 0.6 0.9 1.7 0.3 1 0.4 1.7 0 0-0.1 0v-0.1l-0.4 0.1h-0.1q0 0-0.1 0-0.1 0.1-0.2 0.1v0.1q0-0.1 0-0.1 0.1-0.1 0.1-0.2-0.1-0.1-0.2-0.1-0.3 0-0.8 0-0.4 0.1-1.7 0.2-1.1 0-1.8 0.3l0.3 0.3h2.6q0.6 0 0.9-0.1h0.1q0 0.1-0.1 0.3 0 0.1 0 0.3 0 0.2 0 0.4 0 0.2-0.1 0.4 0 0.2 0 0.3 0 0.3 0 0.5 0 0.2 0 0.3 0 0.2 0 0.4 0 0.2 0 0.4 0 0.2 0 0.4 0 0.2 0 0.4 0 0.2 0 0.4 0 0.2 0 0.3 0 0.2 0 0.4 0 0.2 0 0.4 0 0.2 0 0.3 0 0.3 0 0.4 0 0.2 0 0.4 0 0.3 0 0.4 0 0.2 0 0.4 0 0.2 0 0.4 0 0.2 0 0.4 0 0.2 0 0.3 0 0.2 0 0.4 0 0.2 0 0.4 0 0.2 0 0.4 0 0.1 0 0.3 0 0.2 0 0.5 0 0.1 0 0.3 0 0.2 0 0.4 0 0.2 0 0.4 0 0.2 0 0.4 0 0.2 0 0.4 0 0.1 0 0.3 0 0.3 0 0.4 0 0.2 0 0.4 0 0.2 0 0.3 0 0.2 0 0.5 0 0.1 0 0.3 0 0.2 0 0.4 0 0.2 0 0.4 0 0.2 0 0.4 0 0.2 0 0.3 0 0.3 0 0.5 0 0.1 0 0.3 0 0.2 0 0.4 0 0.1 0 0.3 0 0.3 0 0.4 0 0.2 0 0.4 0 0.2 0 0.4 0 0.2 0 0.4 0 0.2 0 0.4 0 0.2 0 0.3 0 0.3 0 0.5 0 0.2 0 0.3 0 0.2 0 0.4 0 0.2 0 0.4 0 0.2 0 0.4 0 0.1 0 0.3 0 0.2 0 0.4 0 0.2 0 0.4 0 0.2 0 0.4 0 0.1 0 0.4 0 0.2 0 0.4 0 0.1 0 0.3 0 0.2 0 0.4 0 0.2 0 0.4 0 0.2 0 0.4 0 0.1 0 0.3 0 0.2 0 0.4 0 0.2 0 0.4 0 0.2 0 0.4 0 0.2 0 0.4 0 0.2 0 0.4 0 0.1 0 0.3 0 0.2 0 0.4 0 0.2 0 0.4v0.1q0 0.1 0 0.3 0 0.2 0 0.4 0 0.2 0 0.3 0 0.2 0 0.4 0 0.2 0 0.4 0 0.2 0 0.4 0 0.2 0 0.3 0 0.3 0 0.4 0 0.2 0 0.4 0 0.2 0 0.4 0 0.2 0 0.4 0 0.2 0 0.4 0 0.2 0 0.4 0 0.2 0 0.3 0 0.2 0 0.4 0 0.2 0 0.4 0 0.2 0 0.4 0 0.1 0 0.4 0 0.2 0 0.3 0 0.2 0 0.4 0 0.2 0 0.4 0 0.2 0 0.4 0 0.2 0 0.4 0 0.2 0 0.4 0 0 0 0.1h0.1q0 0.2 0 0.4 0 0.1 0 0.3 0 0.2 0 0.4 0 0.2 0 0.4 0 0.2 0 0.4 0 0.1 0 0.4 0 0.1 0 0.4 0 0.1 0 0.3 0 0.2 0 0.4 0 0.2 0 0.3 0 0.3 0 0.5 0 0.1 0 0.3 0 0.2 0 0.4 0 0.2 0 0.4 0 0.2 0 0.4 0 0.2 0 0.3 0 0.3 0 0.5 0 0.1 0 0.3 0 0.2 0 0.4 0 0.1 0 0.4 0 0.2 0 0.3 0 0.2 0 0.4 0 0.2 0 0.4 0 0.2 0 0.4 0 0.2 0 0.4 0 0.2 0 0.4 0 0.2 0 0.3 0 0.3 0 0.4 0 0.2 0 0.4 0 0.2 0 0.4 0 0.2 0 0.4 0 0.1 0 0.3 0 0.2 0 0.4 0 0.2 0 0.4 0 0.2 0 0.4 0 0.2 0 0.4 0 0.2 0 0.4 0 0.1 0 0.4 0 0.1 0 0.3 0 0.2 0 0.4 0 0.2 0 0.3 0 0.2 0 0.4 0 0.2 0 0.4 0 0.2 0 0.4 0 0.2 0 0.4 0 0.2 0 0.4 0 0.2 0 0.4 0 0.2 0 0.3 0 0.2 0 0.4 0 0.2 0 0.4 0 0.2 0 0.4 0 0.2 0 0.4 0 0.2 0 0.3 0 0.2 0 0.4 0 0.2 0 0.4 0 0.2 0 0.4 0 0.2 0 0.3 0 0.3 0 0.4 0 0.2 0 0.4 0 0.3 0 0.4 0 0.2 0 0.4 0 0.2 0 0.4 0 0.2 0 0.4 0 0.1 0 0.3 0 0.2 0 0.4 0 0.2 0 0.4 0 0.2 0 0.4 0 0.1 0 0.3 0 0.3 0 0.5 0 0.1 0 0.3 0 0.2 0 0.4 0 0.2 0 0.4 0 0.2 0 0.4 0 0.1 0 0.4 0 0.1 0 0.3 0 0.2 0 0.4 0 0.2 0 0.4 0 0.2 0 0.3 0 0.2 0 0.5 0 0.1 0 0.3 0 0.2 0 0.4 0 0.2 0 0.4 0 0.2 0 0.4 0 0.2 0 0.3 0 0.3 0 0.5 0 0.1 0 0.3 0 0.2 0 0.4 0 0.1 0 0.4 0 0.2 0 0.3 0 0.2 0 0.4 0 0.2 0 0.4 0 0.2 0 0.4 0.1 0.2 0.2 0.4 0 0.2 0 0.3 0 0.3 0 0.4 0 0.3 0 0.4 0 0.2 0 0.4 0 0.1 0 0.4-1 0.1-1.8 0.1-1.2 0.1-2.5 0-0.2-0.9-0.3-1.4-0.1-0.3-0.1-0.5 0.1-0.1 0.1-0.3 0-0.1 0-0.4 0.1-0.1 0.1-0.3 0-0.2 0-0.4 0-0.2 0-0.3 0-0.2 0-0.5 0-0.1 0-0.3 0-0.2 0-0.4 0-0.2 0-0.4 0-0.2 0-0.4 0-0.2 0-0.4 0-0.2 0-0.3 0.1-0.2 0.2-0.5 0-0.1 0-0.3 0-0.2 0-0.4 0-0.2 0-0.4 0-0.2 0-0.3 0-0.2 0-0.4 0-0.2 0-0.4 0-0.2 0-0.4 0-0.2 0-0.3 0-0.3 0-0.4 0-0.3 0-0.4 0-0.3 0-0.4 0-0.2 0-0.4 0-0.2 0-0.4 0-0.2 0-0.3 0-0.2 0-0.4 0-0.2 0-0.4 0-0.2 0-0.4 0-0.2 0-0.4 0-0.1 0-0.4 0-0.2 0-0.3 0-0.2 0-0.4 0-0.2 0-0.4 0-0.2 0-0.4 0-0.2 0-0.4 0-0.2 0-0.3 0-0.2 0-0.4 0-0.2 0-0.4 0-0.2 0-0.4 0-0.2 0-0.4 0-0.1 0-0.4 0-0.1 0-0.3 0-0.2 0-0.5 0-0.1 0-0.3 0-0.2 0-0.4 0-0.2 0-0.4 0-0.2 0-0.4 0-0.1 0-0.3 0-0.2 0-0.3 0-0.3 0-0.5 0-0.2 0-0.3 0-0.2 0-0.4 0-0.2 0-0.4 0-0.2 0-0.4 0-0.2 0-0.4 0-0.2 0-0.4 0-0.2 0-0.4 0-0.2 0-0.3 0-0.2 0-0.4 0-0.2 0-0.4 0-0.2 0-0.4 0-0.1 0-0.3 0-0.3 0-0.4 0-0.2 0-0.4 0-0.2 0-0.4 0-0.2 0-0.4 0-0.2 0-0.4 0-0.1 0-0.3 0-0.3 0-0.4 0-0.2 0-0.4 0-0.1 0-0.3 0-0.2 0-0.5 0-0.1 0-0.3 0-0.2 0-0.4 0-0.2 0-0.4 0-0.2 0-0.4 0-0.2 0-0.4 0-0.1 0-0.3 0-0.2 0-0.5 0-0.1 0-0.3 0-0.2 0-0.3 0-0.3 0-0.5 0-0.1 0-0.3 0-0.2 0-0.4 0-0.2 0-0.4 0-0.2 0-0.4 0-0.2 0-0.3 0-0.3 0-0.5 0-0.2 0-0.3 0-0.2 0-0.4 0-0.2 0-0.4 0-0.1 0-0.2h-0.2q0 0 0-0.1 0-0.2 0-0.3 0-0.2 0-0.4 0-0.2 0-0.4 0-0.2 0-0.3 0-0.2 0-0.4 0-0.2 0-0.4 0-0.2 0-0.4 0-0.2 0-0.4 0-0.1 0-0.4 0-0.2 0-0.4 0-0.1 0-0.3 0-0.2 0-0.4 0-0.2 0-0.4 0-0.2 0-0.4 0-0.2 0-0.3 0-0.2 0-0.4 0-0.2 0-0.4 0-0.2 0-0.4 0-0.2 0-0.4 0-0.2 0-0.4 0-0.1 0-0.3 0-0.2 0-0.5 0-0.1 0-0.3 0-0.2 0-0.4 0-0.2 0-0.4 0-0.2 0-0.3 0-0.2 0-0.4 0-0.2 0-0.4 0-0.2 0-0.4 0-0.2 0-0.3 0-0.3 0-0.4 0-0.2 0-0.4 0-0.2 0-0.4 0-0.2 0-0.4 0-0.2 0-0.4 0-0.2 0-0.4 0-0.2 0-0.3 0-0.2 0-0.4 0-0.2 0-0.4 0-0.2 0-0.4 0-0.1 0-0.3 0-0.3 0-0.4 0-0.2 0-0.4 0-0.2 0-0.4 0-0.2 0-0.4 0-0.2 0-0.4 0-0.2 0-0.4 0-0.1 0-0.3 0-0.2 0-0.4 0-0.2 0-0.4 0-0.1 0-0.3 0-0.2 0-0.5 0-0.1 0-0.3 0-0.2 0-0.4 0-0.2 0-0.4 0-0.2 0-0.4 0-0.1 0-0.3 0-0.2 0-0.5 0-0.1 0-0.3 0-0.2 0-0.3 0-0.3 0-0.5 0-0.2 0-0.3 0-0.2 0-0.4 0-0.2 0-0.4 0-0.2 0-0.4 0-0.2 0-0.4 0-0.2 0-0.3 0-0.3 0-0.5 0-0.1 0-0.3 0-0.2 0-0.4 0-0.1 0-0.3 0-0.3 0-0.4 0-0.2 0-0.4 0-0.2 0-0.4 0-0.2 0-0.4 0-0.2 0-0.4 0-0.1 0-0.4 0-0.2 0-0.3 0-0.2 0-0.4 0-0.2 0-0.4 0-0.2 0-0.4 0-0.1 0-0.4 0-0.1 0-0.3 0-0.2 0-0.4 0-0.2 0-0.4 0-0.2 0-0.4 0-0.1 0-0.4 0-0.2 0-0.4 0-0.1 0-0.3 0-0.2 0-0.4 0-0.2 0-0.4 0-0.2 0-0.4 0-0.1 0-0.3 0-0.2 0-0.4 0-0.2 0-0.4 0-0.2 0-0.3 0-0.3 0-0.5 0-0.2 0-0.3 0-0.3 0-0.4 0-0.2 0-0.4 0-0.2 0-0.4 0-0.2 0-0.4 0-0.2 0-0.4 0-0.2 0-0.3 0-0.2 0-0.4 0-0.2 0-0.4 0-0.2 0-0.4 0-0.2 0-0.3 0-0.2 0-0.4 0-0.3 0-0.4 0-0.2 0-0.4 0-0.2 0-0.4 0-0.2 0-0.4 0-0.2 0-0.4 0-0.1 0-0.3 0-0.2 0-0.4 0-0.2 0-0.4 0-0.1 0-0.4 0-0.1 0-0.4 0-0.1 0-0.3 0-0.2 0-0.4 0-0.2 0-0.4 0-0.2 0-0.4 0-0.2 0-0.4 0-0.1 0-0.3 0-0.2 0-0.4 0-0.2 0-0.4 0-0.2 0-0.3 0-0.3 0-0.5 0-0.1 0-0.3 0-0.2 0-0.4 0-0.2 0-0.4 0-0.2 0-0.4 0-0.2 0-0.4 0-0.2 0-0.4 0-0.1 0-0.4 0-0.1 0-0.3 0-0.2 0-0.3 0-0.3 0-0.4 0-0.3 0-0.4 0-0.2 0-0.4 0-0.2 0-0.4 0.1-0.2 0.2-0.4 0.1-0.2 0.3-0.4 0-0.1 0-0.4 0-0.2 0-0.3 0-0.2 0-0.4 0-0.2 0-0.4 0-0.2 0-0.4 0-0.1 0-0.4 0-0.1 0-0.3 0-0.2 0-0.4 0-0.2 0-0.4 0-0.2 0-0.4 0-0.2 0-0.4 0-0.2 0-0.4 0-0.1 0-0.3 0-0.2 0-0.4 0-0.2 0-0.4 0-0.1 0-0.3 0-0.2 0-0.5 0-0.1 0-0.3 0-0.2 0-0.4 0-0.2 0-0.3 0.1-0.3 0.3-0.5 0.1-0.2 0.2-0.3 0-0.2 0-0.4 0-0.2 0-0.4 0-0.2 0-0.4 0-0.2 0-0.3 0-0.2-0.1-0.4 0-0.3 0-0.4 0.1-0.2 0.3-0.4 0.1-0.2 0.2-0.4 0-0.2 0.2-0.4 0.1-0.2 0.3-0.3 0.1-0.2 0.3-0.4 0.2-0.3 0.4-0.4 0.1-0.1 0.2-0.3 0.4-0.1 0.9-0.2 0.1-0.1 0.3-0.3 0.5-0.1 1.1-0.2 0.3-0.3 0.6-0.4 0.3-0.2 0.7-0.4 0.2-0.2 0.3-0.4 0.3-0.2 0.5-0.3 0.3-0.2 0.5-0.4 0.3-0.2 0.5-0.4 0.3-0.2 0.6-0.4 0.2-0.2 0.3-0.4 0.2-0.1 0.4-0.3 0.3-0.3 0.5-0.5 0.1-0.1 0.3-0.3 0.2-0.2 0.5-0.4 0.1-0.1 0.1-0.3 0.5-0.1 0.9-0.2 0.1-0.2 0.3-0.4 0.1-0.2 0.3-0.3 0.3-0.3 0.6-0.5 0.6-0.1 1.2-0.3 0.1-0.2 0.3-0.3 3.6 0.1 7.3 0.1 0.1 0.2 0.2 0.3 0.7 0.1 1.3 0.2 0.2 0.2 0.2 0.3 0.3 0 0.6 0 0.6 0.6 1 0.9l-0.2 0.4q0.7 0.2 1.8 1.3 0.6 0.8 1.2 1.3 0.3 0.2 0.6 0.2 0 0-0.1-0.1 0.3 0.1 0.5-0.1 0-0.4-0.3-0.8-0.1 0-0.1 0-0.2-0.3-0.7-0.7-0.1-0.2-0.3-0.5-0.2-0.2-0.3-0.5-0.3-0.4-1-0.8 0 0-0.2 0-0.3-0.4-0.8-0.7 0.9-0.1 1.7-0.2 0.4-0.1 0.6-0.3 0.3-0.2 0.6-0.4 0.2-0.2 0.4-0.4 0.1-0.2 0.2-0.4 0.2-0.2 0.4-0.4 0-0.1 0-0.4 0.3-0.1 0.4-0.3 0.1-0.2 0.2-0.4 0.2-0.2 0.4-0.3 0-0.3 0-0.4 0.1-0.3 0.2-0.4 0.2-0.2 0.3-0.4 0-0.2 0-0.4 0-0.2 0-0.4 0.1-0.2 0.3-0.3 0.1-0.3 0.2-0.5 0-0.2 0-0.3 0-0.1 0-0.2zm-25 42.8h0.5l-0.2 0.2q-0.2-0.1-0.3-0.2zm-37.7 75.4q2.9-1.7 6.1-2.3 4.7-0.8 12.8 2 3.8 1.3 6.7 2.1 4.1 1 6.3 1.1 0.2 0 0.5 0-0.5 0.2-1.2 1-0.6 0.7-1.7 2.1-1 1.3-1.5 2.2-0.6 1-0.6 1.7 0.3 0.2 0.7 0 0.2-0.3 0.4-0.7 0.2-0.5 0.5-1-0.4 1-0.7 2.3h0.2q0.6-0.5 1.1-1.3 0.4-1.1 0.6-1.6 0.5-1.1 1.9-2.9l1.4-1.7q-0.4-0.2-1.1 0.6l-0.2 0.1q0.2-0.4 0.4-0.8 2-0.1 5.8-0.6 4.2-0.6 6.4-0.4 3.2 0.2 6.3 1.6 2.5 1.2 4.4 3-0.6 0.4-1.7 1.6-1.3 1.4-2.8 2.4-1.6 0-2.4 0-1.5 0-2.4 0.1-0.3 0.1-0.5 0.1 0 0 0.2-0.1 1.1-0.5 1.7-0.8 0.2-0.1 1.8-1.4 1-0.8 1.8-0.9l0.5-0.1q0.3-0.2 0.2-0.4-1.2-0.3-2.5 0.4l-2.1 1.5q-0.6 0.3-3 1.5-0.7 0.3-1 0.6-0.4 0.4-0.1 0.9-0.4 0.3-0.8 0.6-0.3-0.2-0.6-0.2-1.1 0-1.6 0-0.7 0.1-2.7-0.1-1.8-0.2-2.8 0l-3 0.4q-5 0.2-8.8 2.4-0.9 0.5-3.1 2.1-4.4 3.2-7.1 4.1-0.7 0.3-0.9 0.5-0.3 0.2-0.3 0.4-0.6-0.3-1.2-0.6-3.9-1.7-7.8-1-2 0.3-3 1.2-1.6 1.5-1.6 5.2 0 1.6 0.5 2.4 0.8 1.6 3.8 1.6 0.3 0 0.6 0-0.3 0.5-0.5 1.3-1.4 4.3-3.7 6.4-0.3 0.4-1.4 1.2-0.9 0.8-1.3 1.3-0.7 0.7-1.6 2.6-0.5 1.1-0.5 1.8 0 0.4 0.3 1.1-0.3-0.1-0.4-0.2-0.3-0.2-0.7-1-0.3-1-0.4-1.7-0.1-0.8-0.1-2.6l-0.1-9.2q0-1.6-0.1-2.8l-0.4-9q-0.2-5.4 0.2-8 0.6-4.5 2.6-7.4 1.8-2.7 5.3-4.7zm46.7 12.4q1.6-0.3 4.5-0.3 2.5 0 3.4 0.5 0.8 0.5 1.6 1.4 2.3 2.8 3.2 6.5 0.6 2.4 0.6 5.5 0 1.9-0.2 3.2-0.1 0.8-0.4 2.4l-1 6.2q-0.6 2.5-0.9 3.5-0.1 0.2-0.2 0.5 0 0-0.3 0-0.2 0-0.4 0.4-0.4 0.8-1.3 2.4-0.7 1.6-1.4 2.4-1 1.2-2.7 2.5-4.1 3.3-8.7 5.5-2.1 1-3.6 1.1-1.3 0.1-3.5-0.5-2.2-0.6-3.3-1-2-0.5-3.4-0.6-2.4-0.2-3-0.4-2-0.7-3.3-2.9-0.6-1-1-1.4-0.5-0.9-1-1.4-0.7-0.5-1.6-0.6-0.6-0.1-0.9 0.2-0.4 0-0.6 0.3 0.1 0.2 0.6 0.3 0.2 0.1 0.7 0.2 1 0.4 1.8 2.1 1.9 4 4.5 4.8 0.3 0.2 2.5 0.5 1.5 0.2 3.5 0.8 0.3 0.1 0.8 0.2l-0.5 0.2-0.3 0.4q0 0.1 0 0.2-0.7-0.4-1.7 0.8-0.9 0.9-1.7 1.6-2 1.6-4.3 1.9-1.7 0.1-2.1 0.2-0.5 0.1-1.8 0.9-1.1 0.8-1.1 1.5-0.5-0.1-0.9-0.4-0.7-0.4-1-0.7-0.4-0.2-1.3-0.5-0.5-1.5-1.3-3.7l-1.9-6q0.4-2.1 1.9-3.8 1.7-1.5 3.7-1.9-0.1-0.2-0.2-0.2-0.6-0.4-1.4-0.4-0.8 0-1.5 0.4-0.1 0-0.3 0.1-1 0.6-2.4 2.8-0.8 1.2-1 1.9-0.3 1.3 0.3 3.1 0.4 0.9 1.2 2.8 0.4 1.3 1.1 3.9 0 0.2 0.1 0.4-0.1-0.1-0.1-0.2-0.9-0.4-2.1-2-1.1-1.5-2.1-2-0.7-0.2-1.4-0.1-0.3 0.1-0.5 0.2-0.2-0.3-0.3-0.8-0.8-3.3-0.7-6.6 0.2-2.9 1.2-4.4 1.1-1.9 3.4-2.9 2-0.7 4.5-0.7 1.8 0.1 4.5 0.8 1.4 0.4 4.4 1.1 3.2 0.8 5.2 0.4 3-0.8 5.3-4 1.2-1.9 2.7-6.1 1.3-3.5 1.3-5.3 0.2-4.2-3.1-7.8 0.5-0.2 0.9-0.5 1.2-0.8 3.2-3.2 0.1 0.3 0.3 0.4 0.5-0.6 1.5-2.1 0.7-1.4 1.4-2 1.4-1.5 3.9-2zm-53.4 52.2q-0.6-2 0.6-4 1.2-2 3.3-2.4 1.5-0.2 2-0.7 0.2-0.2 0.3-0.9 0.2-0.6 0.4-0.8 0.5-0.8 1.6-0.6 1 0.2 1.9 1 0.4 0.4 1.4 1.5 0.2 0.1 0.4 0.3 0.7 1.8 2 2.4 0.1-0.7 0-1.6 1.5 0.3 2.6 1.6 0.1 0.1 1.2 1.9 0.6 1.1 1.4 1.5 0.6 0.3 2.1 0.6 0.2 0.4 0.5 0.6 0.6 0.5 0.9 0.2 0 0 0.1 0.1 0.9 0.6 1.4 0.7 0.9 0.3 2.8 0.2 1.1 0.1 3.1 0.9 2 0.6 3-0.6 0.5 0 1 0.4 0.4 0.2 0.9 0.7 0.5 0.2 1.1 0.2 0.7-0.2 0.7-0.7 0-0.1 0-0.1 0.3 0 0.7-0.2 0.6-0.5 0.9-0.7 0.3-0.1 1.1-0.4 0.9-0.3 1.1-0.3 0.1 0 0.8 0.2 0.8 0.3 1.6 0.1 0.9-0.2 1.5-0.8 0.6-0.8 0.9-1.1 0.6-0.4 1.5-0.4 1.5 0 1.6 0 1.4-0.3 2.9-2 0.9-0.9 1.3-1.3 0.7-0.8 1.4-1.1 0.4-0.2 0.6-0.3 0.3-0.2 0.4-0.5 0.2-0.3 0.2-0.8 0.1-0.8 0.1-0.9 0.1-0.6 0.8-1.4 0.9-0.7 1.3-1.2 0.8-1.2 1.3-1.9 0.3-0.3 0.5-0.6 0.6-0.4 1.1-0.8 1.9-1.7 3-3.8l0.4-0.1q0.3-0.3 0.5-0.8 0.3 0.2 0.7 0.4 0.7 0.3 1.2 0.6-0.3 0.4-0.1 0.8 0.9 0.5 2.1 0.4 1.7 1.2 2 3 0.1 0.7 0 1.9-0.2 1.5-0.2 2 0.1 1.1 1 2.9 0.9 2.1 1 3.1 0.3 1.5-0.3 4.1-0.9 3.2-1 4.1 0 0.9 0.2 3.1 0.1 1.9 0 2.9 0 0.6-0.2 1.5-0.2 0.8 0 1.4 0.2 0.4 0.5 1 0.5 0.7 0.6 1 0.5 1.1 0 2.8-0.7 2.6-0.7 3.1-0.1 0.9 0.3 2.2 0.2 0.7 0.6 2.3 0.2 0.9 0.4 3.2 0.1 2.2 0.5 3.4 0.2 0.7 0.7 2 0.6 1.2 0.8 1.9 0.4 1.7 0.3 4.8 0 3.7-0.1 5.5-0.4 4.6-1.7 9-0.1-0.2-0.2-0.4-0.2 0-0.4 0.2-0.2 0.2-0.2 0.4-0.1 0.4-0.3 2.9-0.1 1.7-0.8 2.6-0.6 0.6-1.9 1.2-1.7 0.7-2.1 1.1-0.4 0.3-1 0.9-0.5 0.6-0.9 0.8-0.7 0.5-2.3 0.8-1.6 0.5-2.3 0.9-1.4 1.2-2.4 1.6-0.8 0.3-1.9 0.2-4.5-0.3-8.3-2.2-1.8-1-2.7-1.1-1.1-0.1-2.5 0.6-0.7 0.3-0.9 0.7-0.5 0.5-0.1 1 1.5 0.1 2.6-0.4-0.3 0.8-0.4 2.3 0 1.9 0.2 2.8l0.2 1.8q0.2 1.2-0.1 2.5l-1.7 6q-0.6 1.8-1.1 2.7l-0.9 1.4q0 0.1-0.5 1.7-0.3 1-0.7 1.5-1.7 0.2-2.1-0.4-0.3-0.4-0.3-1.1 0.1-0.8 0.1-1.1-0.1-0.8-1-1.9-1.4-1.7-2.1-2.6-1.2-1.5-1.8-2.8-0.5-0.8-0.6-1.6-0.4-1.6-0.4-3.5 0-1.5 0.2-2.3 0.1-1 0.3-1.9l0.2-0.5q0.6 0.4 1.1 0.2 0-0.9-0.7-2l0.1-0.4q-0.2-0.3-0.5-0.3-0.7-1.1-0.8-1.3l-0.6-2q-0.4-1.9 0.5-4.1 0.6-1.5 2.3-3.3 1-1.2 1.9-1.6 0.6-0.3 2.1-0.6 2.2-0.4 3.2-0.3 1.4 0 3.5 0.9 2.9 1 5.4 2.2 1.7 0.6 2.5 0.6 0.1 0 0.1-0.1 1.6-0.6 3.2-0.1 1.5 0.4 1.8 0.3 0.5-0.1 0.9-0.6 0 0 0.5-1 0.6-0.8 1.3-1 0.4-0.2 1.5-0.3 1.1 0 1.6-0.2 0.6-0.4 1.4-1.5 0.3-0.2 0.6-1.1 0.6-2.3 0.6-3.2 0-0.6-0.2-1.7-0.1-1-0.1-1.6 0-0.3 0.3-2.5 0.2-1.5-0.1-2.4-0.1-0.5-0.8-1.7-0.6-0.9-0.6-1.6-0.1-0.4 0-1.7 0.1-1-0.1-1.6-0.2-0.6-0.7-1.2-0.7-0.6-1-1-1.3-1.6-0.6-3.5l0.2-0.6q0.1-0.4 0.1-0.7 0.2-0.9 0.2-2.8v-3.5q0.1-1.2 0-2.2l-0.3-1.2q-0.3-1.3-0.8-2.5 0.1-0.3 0-0.5l-0.2-0.7q0.1-0.7 0-1-0.3-0.3-0.5-0.5 0-0.2 0.2-0.6 0.2-0.4 0.3-0.6 0.2-0.4 0-1-0.2-0.7-0.4-1.2-0.5-1.3-0.1-3.2 0.1-0.2 0.2-0.4 0.5-0.7 0.8-1.1 1.6-1.6 2.3-2.3 4.2-4.4 3.8-12.3-1.3 1.5-2.6 5.6-1.3 4-2.8 5.5-0.3 0.2-1.3 1-0.9 0.7-1.2 1.1-0.1 0.1-0.8 1.2-0.4 0.7-0.8 1.1-0.6 0.5-1.8 0.8-1.4 0.4-1.8 0.6-0.7 0.4-1.9 1.6-1.1 1.1-1.9 1.4-0.7 0.4-2 0.4-1.7 0.1-2.1 0.2-0.8 0.2-2.5 1.2-1.6 0.8-2.6 1-0.7 0.2-2.6 0.1-1.8-0.1-2.7 0.2-0.4 0.3-1.5 0.9-0.8 0.6-1.4 0.8-1.3 0.3-3.1-0.5-2.5-1.2-3-1.2-0.7-0.2-2-0.2-1.3 0-1.9-0.1-1.6-0.2-3.9-1.6-2.7-1.7-3.8-2.1-1-0.2-1.6-0.4-0.9-0.2-1.4-0.6-0.7-0.5-2.1-2.4-1.2-1.8-2.3-2.1-1-0.2-1.6-0.3-0.9-0.3-1.1-0.8-0.6 0.9 0.4 1.8 0.5 0.5 1.7 1.1 0.9 0.7 2.1 2.4 1.3 1.6 2.2 2.2 0.5 0.4 1.3 0.6-0.2 0.4 0 1 0.3 0.8 0.3 1.1 0.2 0.6-0.2 1.6-0.4 1.3-0.4 1.7-0.1 0.6 0.2 1.7 0.3 1.2 0.4 1.7 0 0.3 0 1.9-0.1 0.8 0 1.2-0.8 0.9-1.2 2-0.5 1.9 0.4 3.5l1 1.7q0.3 1-0.2 2.4-0.2 1.1-1 3.2-0.5 1.8-0.2 3.1 0.5 2.5 3.6 4.7 0.1 0 0.2 0.1 0.1 0 0.1 0-0.1 0.1-0.2 0.2-0.4 0.5-0.8 0.9-1.7 2-1.5 3.5l0.7 0.1q0.3-0.4 0.6-0.8 2.6-3.4 6.1-5.8 1.7-1.1 2.9-1.1 2 0.1 3.6 2.8 0.4 0.7 1.2 2.1 0.7 1.2 1.5 1.8 1 0.8 2.3 0.8 1.4 0 1.9-1-2.5 0-4.7-3.6-1.2-2-1.8-2.6-1.1-1.4-2.4-1.8-2.8-1-6.7 2.1-0.7 0.5-1.2 1.1-0.3-0.3-0.5-0.5-1.6-1.2-1.8-1.4-0.9-0.8-1.2-1.8-0.5-1.3 0.5-3.9 1-2.9 0.8-4.1-0.1-0.7-1.1-2.6-0.7-1.6-0.4-2.6 0.2-1.3 1.7-2 0.8-0.4 2.7-0.7-0.7-0.9-1.8-1-1 0-1.8 0.3 0.1-1.1 0.1-2.7 0-1-0.3-1.7-0.2-0.7-0.2-0.9-0.1-0.3 0.2-1.1 0-0.1 0.1-0.2 0 0.2 0 0.5 0.2 0.5 0.1 0.7l0.7 0.1q0-1.3 0.6-1.9 0.2-0.1 0.8-0.3 1.6-0.5 2.2-0.5h0.4q1.7 0.9 2.9 1.1 0.5 0.1 1.6 0.1 1 0.1 1.5 0.1 0.8 0.1 4.4 1.4 2.6 0.9 4.2 0.3 0.6-0.2 1.6-0.7 1.1-0.6 1.6-0.7 0.9-0.3 2.7-0.3 1 0.1 1.7 0-0.3 0.2-0.5 0.4-0.6 0.4-1.6 1.4-0.9 0.8-2.6 1.3-2.1 0.6-3.7 0.4-1.2-0.1-3.5-1.2l-3.8-1.9q-0.1 0.5 0.7 1.1 3 2.5 6.4 3.1 3.9 0.6 6.9-1.4 1.9-1.3 2.9-3.3 0.7-0.2 1.6-0.7 1.2-0.6 1.8-0.9 0.7-0.2 2.7-0.6 1.2-0.1 2.1-0.4-0.1 0.2-0.2 0.5l-0.9 1.8q-0.5 1.1-0.6 1.7l-0.2 1.4q0 0.2-0.1 0.4 0-0.3-0.2-0.4-0.1 0-0.3 0-0.2 0-0.3 0-0.1 0.1-0.1 0.3-0.1 0.5-0.7 1.1l-1 1-0.8 0.5q-0.6 0.5-1.5 1.3l0.1 0.4q0.3-0.1 0.6-0.1l-0.9 0.5q-0.4 0.4-0.9 1.3l-0.8 0.9q-0.3 0.4-0.2 1.6l0.8 0.2q0.1-0.2 0.1-0.5 0-0.4 0.1-0.6 0-0.2 0.3-0.6l1.8-1.7 0.4-0.6q0.4-0.4 0.4-0.8 0.1-0.2 0.7-0.5 1.4-0.8 2.2-2.4v-0.2q0 0.4 0.1 1 0 0.3 0 1.9-0.1 1.2 0.1 2h1q0.3-0.7 0.3-2-0.1-1.4 0.1-2l0.6-2.7q0.2-1 0.9-2.7 0.6-1.3 1.4-1.7 0.2 0 0.6-0.2 0.3-0.1 0.4-0.3 1.9 0.5 3.2 2 1.4 1.4 2.1 3.4l0.6 2.7q0.4 3 0 5.4l-0.2 1.3q-0.1 0.6-0.5 1.8-0.3 1-1.2 2.8-0.5 1-1.4 2.5-0.7 1.1-1.2 1.6-0.8 0.7-1.1 1-0.5 0.7-0.2 1.4 0.6 0.2 1.4-0.3 2.9 0.4 3.9 1.6 0.2 0.1 0.7 1.3l1.1 1.7h0.5q0.2-0.3 0.1-0.8-0.1-0.6-0.2-0.8l-0.2-0.8q-0.2-0.4-0.6-1-1-1.2-1.9-1.6-0.6-0.3-2.4-0.4 1-0.9 1.8-2 0.6-0.9 1.7-2.7 0.3 1 0.9 1.9 0.2 0.4 0.8 1 0.3 0.6 0.4 1.1 0.2 0.6 0 1.5-0.1 1 0 1.5 0.1 0.4 0.5 1.1 0.5 0.8 0.6 1.1 0.4 0.9 0.3 2.3-0.1 0.8-0.3 2.3 0 1.3 0 2.6 0.1 1.5 0.1 2.9l-0.9 1.1q-0.4 0.5-0.6 0.7-0.4 0.3-1.1 0.3-1 0-1.3 0.1-0.6 0.3-1.5 1.2-1 1.1-1.7 1.4-0.3 0.2-1.8 0.2-1.2-0.2-1.9 0.3-0.4 0.1-0.6 0.5-0.2-0.4-0.8-0.6l-3-1.5q-1.6-0.8-2.3-1-0.2-0.1-0.4-0.2 0.1 0 0.2-0.1 1-0.3 1.9-0.8 0.7-0.5 1.8-1.3 1.2-0.9 1.7-1.2 1.1-0.7 1.4-1.1 0.8-0.9 0.3-1.7-0.4 0-0.7 0.3-0.1 0.2-0.5 0.7-0.3 0.4-0.9 0.8-0.3 0.2-1 0.6-0.3 0.2-1 0.8-0.7 0.5-1.1 0.8-0.6 0.4-2.2 0.8-1.2 0.4-1.8 0.8-0.2-0.1-0.5-0.2-1.6-0.4-1.7-0.4-1.8-0.4-4.3 0.2-3 0.6-4.5 2 0 0-0.1-0.1-0.2-0.3-1.3 0-1.4 0.3-2.7 0-2.8-0.6-4.7-3.3-0.4-0.4-0.6-0.5 0-0.6-0.2-1.2-0.1-0.5-0.4-0.8 0.1-0.3 0.2-0.5 0.9 1.9 3 3 2.2 1.2 4.8 0.7 0.1 0 0.3-0.1 0.1-0.2 0-0.2-2.4-0.4-3.2-0.6-1.7-0.5-2.8-1.4-0.6-0.5-1.2-1.4-0.2-0.4-0.4-0.5-0.1-0.2-0.3-0.2 0.2-0.6 0.3-0.9-0.1-1.4 0.1-2.1 0.3-0.5 0.2-0.7 0-0.4-0.4-0.5-0.5-0.2-0.8 0-0.7 0.4-0.7 1.4l-0.1 1.6q-0.1 0.4-0.5 1.5-0.3 0.2-0.3 0.6h-0.1q-0.1 0.4-0.4 0.5l-0.7 0.3q-0.4 0.3-0.1 1.3 1.2 0.1 2-0.4 0.5 1.2 0.2 2.5-0.1 0.1-0.6 1.2-0.6 1.2-0.8 1.9 0 0.4 0 1.5 0 0.9-0.2 1.5 0 0.2-0.5 1.1-0.9-0.2-2.2 0.7-0.4 0.2-1.2 0.9-0.7 0.5-1.3 0.7-2.3 0.6-4.6-2-1.2-1.4-1.8-2.1-1-1.2-1.9-1.8-0.7-0.3-1-0.5-0.6-0.2-1-0.5-0.8-0.8-1.1-2.8-0.3-2.3-1-3.1-0.2-0.2-0.9-0.8-0.6-0.6-0.8-0.9-0.3-0.7-0.2-2 0.1-1.4-0.1-2-0.2-0.4-0.7-0.9-0.5-0.6-0.6-0.9-0.5-0.9 0-2.6 0.5-1.9 0.4-2.6-0.5-1.6-0.5-2.4 0.1-0.5 0.5-1.3 0.1-0.2 0.2-0.4 0 0.1 0 0.2l0.7 0.1q-0.1-0.3 0.2-0.6l0.4-0.4q0.5-0.7 0.8-0.8-0.4-0.6-1-0.3l-0.7 0.7q0-0.5-0.2-1.3-0.4-1-0.4-1.5 0-0.8 0.9-2.5 0.8-1.5 0.6-2.4 0-0.4-0.4-1.2-0.4-0.7-0.4-1.3-0.1-0.6 0.4-1.7 0.5-1.2 0.5-1.7 0.1-0.6-0.3-1.8-0.4-1.3-0.4-1.9 0.1-0.5 0.6-1.6 0.6-1 0.7-1.6 0.1-0.8-0.7-2.1-0.6-1.6-0.8-2.3 0-0.6 0.4-2 0.4-1.5 0.4-2.2-0.1-0.6-0.4-1.4-0.4-1.1-0.5-1.4zm69.6-45.4q1.8 1.2 2.8 2.8 0.4 0.6 0.9 1.8 0.6 1.3 0.8 2.1 0.2 0.8 0.2 2.4l-0.1 4.8q0 2-0.1 2.8-0.1 0.9-0.6 2.5l-1 2.5q-1.7 3.6-4.4 5-0.5-0.3-1.2-0.6 0-0.1 0-0.2v-0.4l-0.4-0.4q-0.1 0-0.1-0.1 0.4-0.4 0.9-1l1.9-2.2q1.4-1.5 1.7-2.6 0.2-0.5 0.4-1.3 0.2-1.5-0.3-2.5-0.4-0.1-0.4 0.6 0 0.4-0.4 1.7l-0.1 0.3q-0.5-0.6-0.9-1.3-0.4-0.7-0.5-0.8-0.1-0.6-0.2-0.8-0.2-0.4-0.6-0.6-0.2-0.1-0.4-0.1l0.6-3.8q0.4-3.3 0.3-6.1 0.3 0.3 0.8 0.8 0.3 0.4 0.5 1.5l0.7 1.3q0.2 0.3 0.4 1.8 0.3-0.1 0.5-0.7 0.1-0.8-0.5-2.6-0.4-1.1-0.8-1.8l-1-1.6q-0.4-0.8-0.6-1.1-0.1-0.1-0.2-0.1-0.2-1.7-0.7-3.1 1.8 0.9 2.1 1.1zm-25.6-5.6q0.2 0 1.8 0.1 1 0.1 1.6 0 0.2 0 0.5 0-0.8 0.9-1.2 2.1-0.9 0.2-2.1 1.4-3.2 3.3-6.1 3.8-1.1 0.1-1.6 0.3-0.9 0.1-1.3 0.6 0.1 0.1 0.2 0.1-0.9 0.4-2 1.2-3.3 2.4-4.8 4.1-0.3 0.3-0.5 0.6-0.2-0.2-0.3-0.4 0.3-0.4 0.5-0.9l0.9-2q0.6-1.7 0.3-2.5-0.1-0.4-0.4-0.8-0.6-0.5-2.1-0.4l-0.4 0.1q-0.1 0.1-0.2 0.3l-0.1 0.3q0 0.1-0.3 0.5-0.6-0.6-1.5-0.3-0.9 0.3-1.1 1.1-0.6 0.6-0.7 1.9 0 1.2 0.2 2.2-0.2-0.2-0.3-0.4-1.5-2.4-3.8-3.8l-0.1-0.4q1.4 0 3.4-1.2 2.7-1.6 5.3-3.6 2-1.4 2.9-1.8 1-0.6 2.5-1 1.2-0.3 2-0.4-0.1 0-0.1 0.1 0 0.7 0.1 0.9 0 0 0.3 0.6 0.3 0.4 0.2 0.8 0.4 0.1 0.7 0.6 0.3 0.2 0.6 0.9 1.1 1.7 2.9 1.5l-1.7-1.4-0.8-0.8-0.4-0.8-0.7-0.8q-0.4-0.6-0.7-1.7 0.4-0.1 0.6-0.1l5.9-0.5q1.2-0.1 1.9-0.1zm-7 9.6q0.3-0.3 0.6-0.7 0.8 0.1 1.8 0.1v4.3q0 0.8 0.1 1.3 0.1 0.5 0.4 0.9 0.4-0.1 0.7-0.8 0.1-0.2 0.1-0.9 0-0.1 0-0.2l-0.1-4.8q0.3-0.1 0.6-0.2 0.6 1.2 1.6 3.2 1.1 2.2 1.1 3.8-0.1 1.5-1.1 4.1l-1.3 2.8q0 0.3-0.1 0.4-0.1-0.1-0.2-0.1-0.3 0-0.6 0.2 0.2-0.7 0.1-1.8 0-0.8 0.1-1.4 0-0.1 0-0.2 0 0 0-0.1 0 0 0.1 0 0.4 0 0.6-0.2 0.4-0.2 0.9-1 0.8-1.4 1.1-2.9 0.2-0.8-0.2-1.1-0.2-0.1-0.6 0-0.1 0.1-0.3 0.2-0.3 0.4-0.6 1.2l-0.3 0.7q-0.2 0.8-0.5 1.1-0.2-0.2-0.5-0.2 0 0 0 0.1h-0.2q-0.3-0.1-0.6 0.5 0 0.1 0 0.2-0.6 0-1.3-0.1l-1.4-0.1q0.6-0.5 1-1.1-0.9-0.7-3.1 0.2-3 1.1-5 0.9-0.8-0.1-1.5-0.4 0-0.1-0.1-0.2 0-0.2-0.3-0.3-0.2-0.1-0.4 0v0.1q-0.9-0.5-1.5-1.2-1.6-1.7-1.7-3.9 0.2-1.4 0.2-2.4 0.3 0 0.5-0.2 0.5 0.4 0.5 1.9 0.2 2.4 1.8 4.2 1.8 2 4.1 1.6 0.3-0.1 2.1-0.9 1-0.5 3.2-1.1 0.2-0.4-0.5-0.7-1.4-0.6-2.7-0.1 0 0 0 0 0 0 0-0.1 0.1-0.9 0-2.2 0.9-0.6 1.8-1.2 1.3-0.9 1.6-1.2zm-1.5 9.2q0.1 0.1 0.4 0.3 0.3 0.2 1.5 0.4l2 0.1q-0.1 0.8-0.1 1.8 0 1 0.1 1.7-0.2-0.1-0.4-0.1-2-0.3-4.9-0.5-0.4 0-0.7 0-0.1-0.2-0.2-0.8-0.1-1.5 0-2.2 1.3-0.3 2.3-0.7zm0.2 9.6q1.5-0.1 2.9-0.6-0.7 0.5-1.4 0.9-1.8 1-4.5 0.7-1.5-0.2-4.6-1.1-0.2 0-0.3 0-1.3-0.4-2.5-0.6 0-0.3 0-0.4 0-0.2 0-0.4 0-0.2 0-0.4 0-0.1 0-0.4 0-0.1 0-0.4 0-0.1 0-0.3 0-0.2 0-0.4 0-0.2 0-0.4 0-0.2 0-0.4 0-0.1 0-0.4 0-0.2 0-0.4 0-0.1 0-0.3 0-0.2 0-0.3 0-0.3 0-0.5-0.1-0.1-0.2-0.3 0-0.2 0-0.4 0-0.2 0-0.4 0-0.2 0-0.4 0-0.2 0-0.4 0-0.2 0-0.4 0-0.2 0-0.4 0-0.1 0-0.3 0-0.2 0-0.4 0-0.2 0-0.3 0-0.3 0-0.4 0-0.2 0-0.4 0-0.3 0-0.4 0.9 1 2.1 1.6-0.1 1.1 0.5 2.3 0.9 2.1 3.2 2.8 0.7 0.3 3 0.4 2.5 0.1 5.1 0.5-0.8 0.8-2.2 1.2-2 0.6-3.8-0.3-1.2-0.7-1.8-0.9-0.5-0.3-2.4-0.3-1.2 0.1-1.4 0.7-0.2 0.3 0 1.1 0.2 0.9 0 1.3l0.4 0.1h0.3q0.3-0.7 0.2-1.4 0.8-0.5 1.8 0 0.3 0 1.7 0.8 1.9 1.1 3.9 1.1zm32.4-5.2l0.6 1.1q0.3 0.3 0.6 0.5-0.4 0.8-1.3 2.1-0.9 1.1-1.5 1.7-0.7 0.5-0.9 0.8 0-0.1-0.1-0.1 0.7-2 1.2-3.9l0.5-3.5q0 0.1 0.1 0.2 0.1 0.4 0.8 1.1zm-40.2-14.7q0.3-0.1 0.6 0.1 0.3 0.2 0.3 0.4 0.1 0.3-0.1 0.7l-0.5 1.4q-0.1 0.5-0.6 1.4 0 0.1 0 0.2-0.1-0.1-0.2-0.3-0.2-0.6-0.3-1.4 0-0.1 0-0.1 0.1-0.2 0.2-0.3v-0.7q0.1-0.4 0.6-1.4zm-4.7 6q0.2-0.2 0.3-0.4 0.2 1.3 0.9 2.3 0 0 0.1 0.1 0 0.1 0 0.1 0 0.2 0 0.4 0 0.2 0 0.4 0 0.1 0 0.4 0 0.2 0 0.4 0 0.1 0 0.4 0 0.1 0 0.3 0 0.2 0 0.4 0 0.2 0 0.3 0 0.2 0 0.4 0 0.2 0 0.4 0 0.2 0 0.4 0 0.2 0 0.4 0 0.2 0 0.4-0.1 0.2-0.1 0.4 0 0.2 0 0.3 0 0.2 0 0.5 0 0.1 0 0.3 0 0.2 0 0.3 0 0.2 0 0.4 0 0.3 0 0.4 0 0.2 0 0.4 0 0.2 0 0.4 0 0.2 0 0.4 0 0.2 0 0.3 0 0.3 0 0.4 0 0.3 0 0.4 0 0.2 0 0.4 0 0.2 0 0.4 0 0.1 0 0.2-0.5-0.1-0.9-0.2 0.4-3.4 0-6.8-0.5-3.8-2.4-5.4-2.4-1.9-7.1-0.5-3.1 0.9-4.2 0.9-1.1 0-2.1-0.5-1-0.5-1.3-1.5-0.5-0.9-0.1-2 0.4-1 1.2-1.7 1.4-1.2 3.8-1.3 3.1-0.1 6 1.5 2.9 1.6 4.4 4.3 0.5 0 1.5 0.2zm-4.6 1.5q1.8 0.5 2.6 3.7-0.5 0-1.2 0.3-2.9 1.7-5.1 4.3l-1.2 1.7q-2.3 3.2-4.2 4.7-0.8 0.7-2.3 1.3-2.4 1.1-5.1 1.2v-0.1q-0.5-0.8-0.6-1.1-0.1-0.5 0.2-1 0.8-1.5 1.9-2.8 0.5-0.5 1.6-1.5 1.1-1 1.6-1.5 3.2-3.3 3.4-7.9 2.9-0.1 5.9-1 1.9-0.4 2.5-0.3zm13.7-1.6q0.1 0.3 0.2 0.5-0.7 0.3-1.2 0.5-0.7 0.1-1.3-0.2 1-1.1 2.3-2.1 0 0.7 0 1.3zm-3.7 5.1q0.9 0.1 2.1 0.1 0.5 0 1 0v1.7q-0.2 0.6-0.1 1.1-0.4-0.1-0.8-0.2-1.1-0.5-1.9-1.6-0.3-0.6-0.4-1.1 0 0 0.1 0zm-0.2 31.5q-1-0.5-1.6-0.5-0.4 0.1-0.7 0.2 0.1-0.1 0.2-0.1 1.5-0.8 3-1.1 0.8-0.2 2.4-0.3 1.3-0.2 2.1-0.8 0.3-0.1 0.8-0.5 0.1 0.2 0.4 0.4 0.6 0.4 0.7 0.4l0.9 0.1q0.9 0 1 0 0.6-0.1 0.9-0.6 0.1 0 0.1-0.2 0.1-0.4-0.1-0.6-0.8 0.2-1.2 0.3h-0.5q-0.6 0.1-1-0.1-0.3-0.1-0.5-0.3l0.7-0.8q0.5-0.9 0.8-1.2 0.4-0.4 0.5-0.7 0.3-0.3 0.3-0.5h0.1q-0.1 0.1-0.1 0.1 0 0.1 0 0.5 0.4 0.6 0.5 1.1v0.5q0.1 0.1 0.4 0.5 0.4 0.3 0.7 0.7 0.4 0.4 0.5 0.7 0.8 0.2 1.6 0 0 0 0-0.1 0.6-0.1 1.2-0.2 0-0.3 0.2-0.5 0.7 0.2 1.5 0.1 0.7-0.1 2-0.6 0.3-0.1 2.4-0.4 1.1-0.2 1.8-0.5 0 0-0.2 0.1-1.1 1.4-1.8 1.7-0.5 0.1-1.2 0.1-1.2 0.1-1.3 0.1-1 0.1-1.9 0.8-0.8 0.6-1.2 1.5-0.4 0.2-1.1 0-1-0.2-1.2-0.2-1.4-0.1-3.6 1.6l-0.4 1.1q-0.1-0.1-0.2-0.2-1.4-1.5-3.5-1.4-1.9 0.4-2.8 0.2-0.5 0-1.6-0.4zm-12.7 13.1q-0.3 0.1-0.9 0.7-0.3 0.3-0.5 0.5 0.2-1.6-0.7-3.1 0.3 0 0.6 0.1 0.8 0.3 2.9 1.5zm46.9-18.2l-1.6-1.3q-0.1-0.1-1-0.2l1-1.5q1-1.6 1.2-2.6-1.4 0.8-2.6 2.5-0.4 0.6-2 3.1-2.5 4.2-5.2 4.7-1.7 2.8-4.7 4-0.6 0.2-1.9 0.6-1.2 0.4-1.9 0.6-2.2 0.9-2.9 2.5 0.7 0.5 1.6-0.1 0.9-0.8 1.4-1.2 0.6-0.3 1.9-0.4 1.5-0.1 2-0.3 0.9-0.3 2-1.3 1.1-1.3 1.6-1.8 0.7-0.6 2-1.3 1.4-0.8 2-1.3 0.8-0.6 1.6-1.7 0.3 0.1 1 0.5 0.5 0.4 1.1 0.4 0-0.3-0.2-0.5-0.1 0-0.4-0.2l-0.9-0.5q-0.1-0.1-0.3-0.2 0.4-0.5 0.8-1.3l1.4-2 0.4 0.1q0.8 0.3 0.8 0.3 0.3 0.1 0.9 0.5 0.6 0.3 0.9-0.1zm-8.3 15.3q-0.2 0-0.5 0 0.3-0.3 0.5-0.5 0.6-0.4 2.6-1.2 1.2-0.5 1.8-1 0.1 0.8-0.1 1.8-0.1 1.2 0.4 1.5-0.4 0.6-0.4 1.9-0.8-0.8-1.5-1.4-1.5-0.9-2.8-1.1zm-3.9-17q-0.6 0.3-1.9 0.6l-4.6 1.1q-0.7 0.2-1.1 0-0.4-0.2-0.9-1.2-0.3-0.6-0.6-0.8 4 1 6.8 0.4 1.3-0.3 3.1-1.3-0.5 0.9-0.8 1.2zm-11-0.8q0.7 0.1 1.5 0.4-0.4 0.2-0.1 1.2 0.4 1.2 1 1.8-0.2 0.1-0.3 0.1h-0.2q-0.1 0.1-0.3 0.3l-0.1 0.3q-0.1 0-0.1-0.1l-1.3-1.2q-0.5-0.6-0.6-0.8l-0.3-0.9q-0.1-0.3-0.3-0.3 0-0.1 0.2-0.2 0.3-0.4 0.9-0.6zm-2.3-37.5l0.2-0.2q-0.1-0.8-1.1-1.6-1.2-0.7-1.4-1.4-0.2-0.5-0.3-0.8-0.2-0.3-0.4-0.4-0.3-0.1-0.5 0.2 0 0.2 0.3 0.9l0.4 0.9q0.4 0.6 1.3 1.2 1.2 0.8 1.5 1.2zm13.7 97.6q-0.3-0.3-0.4-0.6h-0.5q-0.3 0.5 0.3 1.3 1 1.3 1.9 1.6 0.8 0.3 1.8 0.2l0.4-0.1q0.1-0.2 0-0.3-1.4-0.3-2-0.7l-0.6-0.4-0.4-0.4q-0.3-0.4-0.5-0.6zm8.8-9.5q-0.7 0.6-0.8 1.1-0.1 0.5-0.1 1.4v0.1q-0.1-0.3-0.1-0.5-0.2-0.8-1.3-1.6-1.4-1.1-3.4-1.1-1.9 0-3.4 1-0.6 0.5-1.9 1.7-1.1 1-2.1 1.1-0.7 0.1-1.8-0.3-1.1-0.4-1.8-0.7-1.5-0.4-4.2-0.1-1.8 0.1-2 1.1 4.1-0.3 6 0.4 0.3 0 1.2 0.5 0.8 0.3 1.3 0.4 2.1 0.7 3.9-0.7 0.4-0.3 1.1-1.1 0.8-0.7 1.2-1.1 0.8-0.6 1.9-0.8 1.1-0.1 2.1 0.3 2.2 0.7 2.7 3 0.1-0.1 0.1-0.1 0 0.4 0 0.8v2.4q0 0.8 0.2 1.2 0.2 0.6 0.7 0.7 0.2-1.2 0.3-2.5 0-1.6 0.1-2.5l0.2-1.3q0.4-2.1 1.2-2.8-0.1-0.5-0.6-0.4-0.3 0.1-0.7 0.4zm-34.1-22.3q-0.3-0.2-0.4-0.1 0.5 1.2 1.1 1.8l0.7 0.8q1.4 1.2 2.4 1.6l0.9 0.2h0.2q-1 0.7-2 1.2-1.3 0.7-2.3 0.3-0.6-0.3-1-1-0.5-0.8-0.8-1.2-0.5-0.7-1.4-1.1-0.8-0.3-1.7-0.2l-0.3 0.4q1.6 0.3 2.6 1.7 0.3 0.5 1 1.8 0.6 0.8 1.9 1 1 0.2 2.1-0.2 1.3-0.4 3.7-2.4 1.6-1.5 2.8-1.2 0.7 0.1 1.7 0.9 2.1 1.8 2.9 3.3 0.2 0.3 0.9 2.9 0.4 1.3 1.1 2.9 0.5 0.9 0.9 1.2 0.5 0.4 1.5 0.5 2.2 0.3 4.6 0.2 0.3-0.4 2.1-1.7 1.1-0.7 1.7-1.7 1.3-1.6 2.1-4 1.4-3.6 0.3-6l-0.4 0.2q0.1 1.2-0.8 4-0.9 2.2-1.3 2.9l-0.6 1.1q-0.4 0.9-0.5 1-0.2 0.5-0.8 0.8-0.3 0.2-1 0.6-0.3 0.2-0.9 0.7-0.5 0.3-0.9 0.5-0.4 0.2-1.1 0.2-1.7 0.1-2.8-0.5-1-0.7-1.5-2.3-0.4-1.8-0.7-2.7-0.9-3.7-4.3-5.6-2.6-1.5-4.5-0.5-0.4 0.2-1.9 1.6 0 0.1-0.1 0.1-1.2-0.5-3-2zm-6.1 5.4h-0.5q-0.2 0.6 0.1 1.8l1 1.9q0.1 0.3 0.2 0.6l0.1 0.6 0.3 0.6 0.3 0.8q0 0.1 0 0.1-0.1 0-0.1 0.2-0.3 0.2-0.8 0.9-0.6 0.7-2 1.6-0.7 0.3-1.1 0.8-0.6 0.4-0.6 1.2l1.2 0.1q-0.2-0.5 0.5-1.1l1.8-1.2q0.5-0.3 1.2-1.2 0.3-0.4 0.6-0.6 0 0 0.1 0 0 0.6 0.8 1.3 0.6 0.4 2 0.6 2.9 0.5 4.3 0.3 0.7-0.2 2-0.6 0.2-0.1 0.4-0.2 0.1 0.3 0.3 0.6l0.6 0.8q0.1 0.2 0.8 1l1.7 1.7q0.3 0.3 0.4 0.4 0.5 0.2 1.4 0.4v-0.2q1.4 1.1 3.8 2 4.1 1.5 7.1 1.2 2-0.1 3.6-1 1.6-0.9 2.6-2.5 0.2-0.5 0.2-1 0-0.6-0.4-0.8-1.5 2.1-3.9 3.2-2.5 1.1-5 0.7-1.5-0.2-4.7-1.5-2.8-1.4-3.8-2.6-0.5-0.7-1.2-2.6-0.6-1.6-1.1-2.2 0.2-0.7 0.4-1.1 0.4-0.3 0.4-0.6-0.1-0.3-0.5-0.3-0.4-0.1-0.7 0.2-0.4 0.3-0.7 1-0.5 0.8-0.8 1.1-0.4 0.4-1.3 0.9-3 1.2-6.1 0.3-1.5-0.4-1.8-1.2h-0.4q0 0 0 0l-0.3-0.3q-0.1-0.3-0.2-0.8l-0.8-2.4-0.6-1q-0.5-0.9-0.8-1.9zm13 8.7q-0.2-0.3-0.6-0.5 0.7-0.4 1.1-0.9 1 3 2.2 4.7-0.8-0.8-1.6-1.7-0.3-0.3-0.7-0.9-0.2-0.5-0.4-0.7zm17.4-10q0.2-0.5 0-0.7h-0.4q0 0-0.2 0.2-0.2 0-0.4 0.8-0.1 0.1-0.6 1.1-0.6 1-0.8 1.8-0.2 0.7 0.2 0.9 0.6-0.3 1-1.3zm-10.7 51q-0.2-0.1-0.5 0.1 0.8 0.9 1.4 0.9h0.2q0.1 0 0.3-0.2-0.7-0.2-1.2-0.7zm-22.6-18.2q-0.2-0.3-0.4-0.5-0.4-0.2-0.7-0.2-0.2 0-0.2 0.1-0.1 0.2 0.1 0.5 0.4 0.6 0.9 0.8 0.4 0.3 1.5 0.3h0.2v-0.2q0-0.3-0.6-0.5-0.7-0.3-0.8-0.3zm-14.5-16.2l0.3-0.5q0.3-0.2 0.2-0.6-0.3 0-0.5 0.2l-0.5 0.6-0.4 0.9 0.4 0.1q0.3-0.5 0.5-0.7zm8.7-1.3q0.3-0.2 0.1-0.3l-2.5-0.3-0.3-0.2q-0.2 0-0.5-0.1-0.5 0-0.6-0.1v0.2h-0.2v0.3l1 0.2v0.3h2.7zm0.3-5.6q0.2 0.1 0.8 0.1l0.1-0.8q-0.1-0.3-0.4-0.5-0.3-0.6-1.3-1-1-0.4-1.8-0.5v0.1q-0.9 0.3-0.9 1.3 0.8 0.1 1.1-0.2 0.1 0 1.1 0.4 0.7 0.2 1 0.7zm57.3 16.4l-0.3 0.2q0 0.8-0.9 1.9-1.2 1.3-1.4 1.9-0.6 0.2-1.7 1.3-1 1.1-1.7 1.3-1.4 0.1-2 0.3-0.8 0.2-1.9 1.2l-1.6 1.3q1 0.2 2.1-0.4 0.6-0.3 1.8-1.3 1.5 0.5 3.1-0.5 0.3-0.2 0.8-0.8 0.6-0.5 1-0.7 0.6-0.4 0.7-0.5 0.3-0.3 0.7-1 1.1-1.7 1.2-1.9 0.6-1.2 0.1-2.3zm-15.6-59.1q0.3-0.4 0.4-1 0-0.1 0.1-0.1-0.1 0.4-0.2 1.2 0 0.3-0.5 0.8 0.1-0.5 0.2-0.9zm-44.7 35l0.3 0.4q0.6 0.3 1.4 0.3l1.3 0.1q0.5 0 0.6-0.3-0.2-0.3-1.1-0.5-1.1 0-1.3-0.1-1-0.3-1.2-0.2-0.1 0.1 0 0.3zm-2.9-19.8q-0.2 0.3-0.1 0.5 0.1 0.3 0.5 0.8 0.1 0.4 0 1 0 0.7 0.1 1 0.1 0.3 0.5 0.9 0 0.4-0.5 1.1-0.1 0.3-0.3 1.4-0.1 0.5-0.4 1.6-0.5 1-0.5 1.5-0.1 0.5 0 2.4 0.1 1.5-0.3 2.3-0.3 0.7-1.2 1.6-0.9 1.5-0.4 3.9l0.2 1.1q0.1 0.5 0.1 1.8v4.3q-0.3-2.4-0.5-5.7-0.3 1.7-0.4 3.4-0.1 2.8 0.8 7.1 0.7 4.1 1.6 6.2 0.6 1.5 1.7 3.3 2.4 4.4 4.7 5.6l-4-6.7q-1-1.6-1.3-2.4-0.3-0.8-1.1-3.1-0.8-3.1-1.1-4.4-0.1-0.4-0.1-0.9 0.1 0.3 0.4 0.8 0.2 0.5 0.5 1.4 0.4 0.8 1 0.9 0.3-0.4-0.3-1.8-0.8-1.3-0.8-3.4 0-2.6 0-3.9 0-1.5-0.2-2.8-0.3-1.2-0.4-1.8-0.2-0.9 0.1-1.6 0.2-0.4 0.7-1.1 0.6-0.7 0.8-1.1 0.4-0.8 0.3-2.1 0-2 0-2.3 0-0.6 0.4-1.5 0.4-1 0.5-1.6 0.3-0.9 0.4-1.7l0.1-1.7q-0.1-1.8-1.3-4.5-0.1 0-0.2 0.2zm7.3 12q-0.8-0.7-2.4-1.2-0.4-0.1-0.9-0.1-0.2 0.3-0.2 0.5 0 0.2 0.4 0.4l0.7 0.5q1.1 0.5 1.3 0.5 0.5 0 0.7-0.1 0.4-0.2 0.4-0.5zm-8.2-7.2q0.2 0 0.4-0.1l0.1-0.3-1.3-0.3v0.1q-0.5 0-1.3 0.5l-0.1 0.2v0.4q0.2 0 0.8 0h0.2q0.6-0.4 1.2-0.5zm0.5-15q0.1-0.3 0.2-0.4h0.3l1.1-0.1q0.2 0 0.4 0l0.4 0.1q0.2 0.1 1.1 0.1l0.4-0.1q0.3-0.1 0.1-0.3-0.3-0.1-0.9-0.2-0.8-0.3-1-0.4-0.8-0.2-1.9-0.1-1.3 0.6-1.4 2.1 0.3 0.2 0.6-0.2 0.3-0.1 0.6-0.5zm25.9 13.2q-0.3-0.5-0.7-0.3-0.1 0.2-0.1 0.6v1 0.2q0 0.1 0.1 0.2l0.7 0.4 0.2-0.1q-0.2-0.8-0.1-1.2 0-0.7-0.1-0.8zm-7.3-7.5l-0.3 0.3-0.2 0.5q-0.2 0.3-0.2 1.2 0 0.1 0 0.1-1.1-0.9-2-1.3-0.8-0.5-3.2-1.1-1-0.2-1.8-0.5 0.2-0.1 0.2-0.3v-0.4q0.1-0.2 0.4-0.6 0.3-0.2 0.4-0.5 0.1-0.4 0-0.7-0.5 0-1.1 0.6-0.3 0.3-0.3 0.6-0.1 0.2 0 0.6 0 0.1-0.3 0.4-0.3-0.1-0.7-0.4-1.1-0.8-2.7-3.5-1.5-2.7-2.9-3.5-1.4-0.8-3.1-0.5 0.4 0.6 1.2 0.9 0.6 0.1 1.5 0.5 1.1 0.6 2 2.3l0.3 0.9q-0.8-0.3-1.7-0.2v0.2q-0.8 0.1-1.4 0.8-0.7 0.6-0.9 1.5 0 0.5 0.3 0.6 0.3 0 0.6-0.3l0.4-0.7q0.7-1.3 2.2-1.3l0.5-0.1q0.1-0.1 0.2-0.1 0.4 0.9 0.8 1.4 0.7 1 2.3 2.3-0.1 0-0.1 0-1.2 0.9-2 2.2-0.2 0.5-0.2 0.7 0.1 0 0.4 0.1 0.2 0.1 0.3 0l0.3-0.3q0.9-1.4 1.4-1.8l0.5-0.3q0.1-0.1 0.2-0.1 0.1 0 0.1 0.1 0 0.1 0 0.2h0.4q0.2 0.1 0.5 0.2 0.4 0.1 1.8 0.5 1.4 0.4 1.9 0.5 1.1 0.5 1.6 0.9 0.2 0.1 2.4 2 0.9 0.8 2.2 1.6-0.4 1.1-0.4 1.7 0.1 0.7 0.5 1 0.4-0.3 0.5-0.9 0-0.9 0.2-1l0.1-0.3q0.3 0.1 0.5 0.2 0.2 0 1.4 0l8.8-0.4q0.5 0 0.6-0.3 0.2-0.4-0.5-0.6-1-0.3-3-0.3h-5q-1.1 0.1-1.4 0.1-1 0-2.3-0.8-0.4-0.3-2-1.7 0-0.1 0-0.2 0.1-0.7 0.1-1.1l0.4-1q0-0.1 0-0.3l-0.1-0.1q-0.3-0.5-0.6-0.2zm-2.8 4.2q0 0.1-0.5 0.2l-1.6 1.7q-0.3 0.4-0.2 0.6 0.7 0 0.7-0.1l0.3-0.2q1.1-0.9 1.7-2zm49.1 0.1l-0.6 0.4-0.7 0.2-0.2 0.2q-0.1-1.7-0.2-3.3-0.2-0.2-0.3 0-0.2 0.2-0.2 0.4v7.9q0 3.7 0.6 5.3 0.2 0.5 0.6 1.4 0.3 0.8 0.3 1.4 0 0.9-0.6 2.7-0.2 1.1 0.3 2.2 0.2 0.5 0.8 1.6 0.4 0.9 0.4 1.6-0.1 0.5-0.4 1.6-0.2 0.4-0.3 1.9 0 1.7 0 2.9l-0.2-1.3q-0.2-1.5-0.1-2.1 0.5-1.2 0.6-1.8 0.1-1.2-1.1-3.2-1.2-2.1-1.2-3.2 0.1-0.4 0.4-1.2 0.3-0.7 0.3-1.1 0.1-0.7-0.5-2.1-1-2.9-1.5-6.1-0.2-2.4-0.2-4.7 0.1 0.2 0.3 0.2 0.3-0.6-0.3-1.1 0 0 0 0 0-2.1 0.2-4.1 0.3-1.7 0.3-2.1 0.1-1.3-0.2-2.2l-0.4 0.1q-0.5 2.9-0.7 5.2 0 1-0.1 2.8-0.4-0.1-0.7-0.2-1-0.2-1.1-0.2-0.1 0.1 0 0.4l0.4 0.2q0.8 0.3 1.4 0.4 0 0.6 0 1.3 0 1.4 0.1 2.6-0.5-0.1-1.3-0.1l-0.3-0.1-0.5-0.2q-0.2-0.1-0.9 0-0.1 0.2 0 0.4l0.3 0.3q0.1 0.2 0.3 0.3h0.3 2.1q0.1 1.1 0.2 1.9 0.2 2.7 1 4.9 0.5 1.1 0.6 1.8-0.1-0.2-0.2-0.3-0.1-0.2-0.6-0.5l-0.6-0.3q-0.8-0.1-1.2-0.3l-0.6-0.2q-0.4-0.1-0.7 0.1-0.2 0.6 0.5 1l1.2 0.3q0.6 0.2 1.2 0.4 0.7 0.4 1 0.2-0.1 0.5-0.4 1.5-0.4 1.7 0.1 3.2-0.2-0.1-0.8-0.2l-1.9-0.1q0 0.1-0.1 0.1-0.2 0-0.3 0.3v0.5l2.4 0.3q0.9 0.1 1.3 0.4 0 0 0.1 0.1 0.2 0.3 0.7 1 0.3 0.6 0.4 1.1 0 0.3-0.2 1.4-0.3 1.5-0.1 3.7-0.3-0.1-0.7-0.1-1 0.1-1.5 0v0.1l-0.3 0.2v0.3q0.3 0 1.4 0.1 0.7 0.1 1.2 0.1 0 0.2 0 0.4l0.7 3.6q0.1 0.5 0.2 0.8h-0.1l-0.3 0.1q-0.5 0.2-1.3 0.3h-0.6l-0.5 0.1q-0.3 0.1-0.4 0.4 0.1 0.2 0.3 0.3 0.2 0.1 0.6 0.1h1.7q0.5 0 0.8-0.3 0 0.5 0 0.6 0.3 1.3 0.2 2.3-0.1 0.8-0.5 2.8-0.4 1.7-0.3 2.7l0.7-0.2q1.2-2.9 1.3-5.9 0-1.8-0.5-4.6 0.1 0.3 0.2 0.6 0.7-0.5 0.4-2.3-0.2-1.1-0.2-3.2 0-1.7 0.1-2.6 0.4-1.5 0.5-2.3 0.2-1.1-0.3-1.9l-0.9-1.6q-0.5-0.9-0.4-1.6 0-0.3 0.1-0.8l0.3-0.8q0.3-1.1-0.3-2.8-0.7-1.7-1-2.7-0.5-1.7-0.3-5.8 0.1-1.3 0-2.6l0.6 0.1 0.2-0.1 0.2-0.3 0.8-0.3q0.2-0.1 0.2-0.3l-0.1-0.4q-0.2-0.3-0.4-0.3zm-68.8 12.8q-0.1 0.2 0 0.8l0.8 0.1q0-0.2 0.1-0.3l0.3-0.4 0.1-0.3q0.3-0.4 1-0.8l-0.7-0.5q-0.3 0.2-0.9 0.5-0.1 0.2-0.4 0.6zm60-44.6l-0.2 0.4q0 0.1-0.4 0.4-0.4 0.3-0.6 1.2l-0.6 0.6q-0.1 0.1-0.5 0.7-0.4 1.1-0.6 1.6 0.4 0 0.6-0.5l1.9-2.3q0.2-0.7 0.3-0.7 0.2-0.5 0.3-0.8 0.3-0.4 0.2-0.7-0.2-0.1-0.4 0.1zm-25.1 11.8q-0.3 0.4-0.3 0.6l2.1 0.4q2.6 1 5.6 1.3 2.6 0.2 4.1-0.8l-0.1-0.4q-3.2 0.9-7.3-0.3-1.3-0.4-2-0.6-1.2-0.3-2.1-0.2zm-21.8-50.4q1-0.1 0.9-0.7-3.2 0-6.1 1.7-2.7 1.5-4.8 4.1-1.4 1.9-2 3.4-0.7 2-0.3 4.3 0.3-0.2 0.4-1.1 0.1-1.4 0.5-2.6 1.4-3.9 6.6-7.1 2.8-1.7 4.8-2zm1.4 0.4v0.2q0.4 0 1.3-0.2 0.8 0 1.2-0.2l1.3-0.6-0.3-0.3q-0.3 0.1-1.1 0.2-0.9 0.1-1.2 0.3-0.8 0.5-1.2 0.6zm32.6-77.5q0.2 0.2 1 0.5l2.5 0.5q1.5 0.4 2.7 0.5 0.6 0 0.6 0.4l2.1-0.2q0.2-0.7 1-0.6 0-0.3-0.5-0.4l-0.6 0.1q-0.9 0.2-2.2-0.2l-7.8-1.8q0.3 0.9 1.2 1.2zm22.1-15.1q0.7 0 1.2-0.4 0.1-0.1 0.2-0.3-2.3-1.6-5-2.1l-2.6-0.4q-0.7 0-1.2-0.1 0.1-0.1 0.3-0.1 2.4-1.1 3.5-2.9-0.6-0.4-1.7 0.4-1.7 1.2-5.5 2-1.8 0.3-2.5 0.4-1.5 0.2-2.5-0.1-0.8-0.1-2.1-0.6-1.3-0.5-1.9-0.7-0.5-0.1-3.2-0.2-1.9-0.1-2.9-0.8-0.8-0.4-1-0.5-0.5-0.3-0.8 0-0.5 0.3-0.3 0.9 0.1 0.7 0.5 1.1 1.1 0.8 3.2 1-0.4 0.3-0.9 0.6-0.9 0.7-2.7 2.1-0.8 0.6-0.9 0.9-0.5 0.6-0.2 1.2 1.4-0.8 2.1-1.4l1.4-1.1q1-0.7 3.8-2 0.1-0.1 0.2-0.1 1.2 0 1.6 0.1 0.6 0.1 2 0.8 1 0.4 1.6 0.5-3.5 0.1-5.2 0.8-1.6 0.5-5.1 2.9-1 0.8-1.3 1.3-0.1 0.4-0.3 1.1-0.3 1.2-0.8 1.9-0.2 0.4-0.8 1.3-0.3 0.7-0.3 2.6 0.2 2.1 0.8 3 0.2 0.3 0.8 0.7 0.5 0.5 0.8 0.9h0.1 0.2l-0.9-2.7q-0.4-0.9-0.5-1.6 0-1.3 0.5-2.1 0.6-0.9 0.8-1.4 0.3-0.5 0.7-1.5 0.3-1.1 0.6-1.5 0.6-1.1 2.5-2.2 2.5-1.4 3.6-1.7 1.2-0.3 2.9-0.4 5.1-0.4 10 0.1 1.4 0.2 2.1 0.5 0.5 0.2 1.7 1.2l3.2 2.8h0.8l0.4-0.1q-0.2-0.4-0.7-0.8l-1.6-1.6q-2.1-1.9-3.5-2.6-0.6-0.3-1.3-0.4-0.1 0-0.5-0.1 2.2-0.1 2.8 0.1 0.6 0 2.6 1 0.9 0.3 1.2 0.3zm-10.5-1.8h-2.7q0.8-0.1 1.6-0.3 1.3-0.2 2.4-0.6 0.2 0.2 0.5 0.5 0.5 0.4 1.2 0.4 0 0.2 0.1 0.3-1.2-0.2-3.1-0.3zm2.4-13.5q0.4 0.8 0.7 1.1 0.5 0.8 0.4 1.7 0 1.1-0.7 1.5-0.4 0.3-1.5 0.4-9.8 0.6-18.7 0.1-0.1 0.1-0.2 0.4 0 0.3 0.2 0.5 0.2 0.2 1 0.3 4 0.6 9.3 0.6 2.9-0.2 9.4-0.7 1.1-0.1 1.6-0.4 0.8-0.6 0.8-2.3 0-1.6-0.4-2.6-0.7-1.5-2.1-1.6-0.1 0.5 0.2 1zm-7.5 0.3q-0.8-0.6-2.2 0-4.5 1.3-6.5 2.1-1.3 0.7-1.2 1.5 3.9-1.5 7.7-2.5 0.7-0.2 0.9-0.5 0.8 0.1 1.3-0.6z"/><path class="e" d="m100.9 198.7q-0.9-0.3-1.6-0.4-0.6 0.2-0.9 0.5-0.1 0.2-0.2 0.3 0.2 0 0.3 0.3l0.3 0.9q0.1 0.1 0.6 0.8l1.3 1.2q0 0.1 0.1 0.1l0.1-0.3q0.2-0.2 0.3-0.3l0.2-0.1q0.1 0 0.3 0-0.6-0.6-1-1.8-0.3-1 0.2-1.2zm-12.5-35.2q-0.3-0.2-0.6-0.1-0.5 1-0.6 1.4v0.7q-0.1 0.1-0.2 0.3 0 0 0 0.1 0.1 0.8 0.3 1.4 0.1 0.2 0.2 0.3 0-0.1 0-0.2 0.5-0.9 0.6-1.4l0.5-1.4q0.2-0.4 0.1-0.7 0-0.2-0.3-0.4zm8.3 17.6q1.4-0.4 2.2-1.2-2.6-0.4-5.1-0.5-2.3-0.1-3-0.4-2.3-0.7-3.2-2.8-0.6-1.2-0.5-2.3-1.2-0.6-2.1-1.6 0 0.1 0 0.4 0 0.2 0 0.4 0 0.1 0 0.4 0 0.1 0 0.3 0 0.2 0 0.4 0 0.2 0 0.3 0 0.2 0 0.4 0 0.2 0 0.4 0 0.2 0 0.4 0 0.2 0 0.4 0 0.2 0 0.4 0 0.2 0 0.4 0.1 0.2 0.2 0.3 0 0.2 0 0.5 0 0.1 0 0.3 0 0.2 0 0.3 0 0.2 0 0.4 0 0.3 0 0.4 0 0.2 0 0.4 0 0.2 0 0.4 0 0.2 0 0.4 0 0.2 0 0.3 0 0.3 0 0.4 0 0.3 0 0.4 0 0.2 0 0.4 0 0.2 0 0.4 0 0.1 0 0.4 1.2 0.2 2.5 0.6 0-0.3 0-0.4l-0.4-0.1q0.2-0.4 0-1.3-0.2-0.8 0-1.1 0.2-0.6 1.4-0.7 1.9 0 2.4 0.3 0.6 0.2 1.8 0.9 1.8 0.9 3.8 0.3z"/><path class="f" d="m108.4 199.7q1.3-0.3 1.9-0.6 0.4-0.3 0.9-1.2-1.8 1-3.2 1.3-2.8 0.6-6.8-0.4 0.3 0.2 0.6 0.8 0.5 1 0.9 1.2 0.4 0.2 1.1 0zm-27.3-25.2q-0.7-3.1-2.6-3.6-0.6-0.1-2.5 0.3-3 0.8-5.9 0.9-0.2 4.6-3.4 8-0.5 0.4-1.6 1.5-1.1 0.9-1.6 1.5-1.1 1.2-1.8 2.7-0.3 0.6-0.3 1 0.1 0.4 0.6 1.2 2.8 0 5.2-1.1 1.4-0.7 2.2-1.4 1.9-1.4 4.2-4.7l1.3-1.6q2.1-2.6 5-4.3 0.7-0.4 1.2-0.4zm24.6-19.5q-1.6-0.2-1.8-0.2-0.7 0-1.9 0.1l-5.9 0.5q-0.2 0-0.6 0.1 0.3 1.2 0.8 1.7l0.6 0.9 0.4 0.8 0.8 0.8 1.7 1.4q-1.7 0.1-2.9-1.6-0.3-0.6-0.6-0.9-0.3-0.4-0.7-0.5 0.1-0.4-0.2-0.8-0.3-0.6-0.3-0.7-0.1-0.1-0.1-0.8 0-0.1 0.1-0.1-0.7 0.1-2 0.4-1.5 0.4-2.5 0.9-0.9 0.4-2.8 1.8-2.7 2-5.4 3.6-2 1.2-3.3 1.3v0.3q2.3 1.5 3.8 3.8 0.2 0.2 0.3 0.4-0.2-1-0.1-2.1 0-1.3 0.6-1.9 0.2-0.8 1.1-1.1 0.9-0.4 1.5 0.3 0.3-0.4 0.3-0.6l0.1-0.3q0.1-0.2 0.2-0.2l0.4-0.2q1.6-0.1 2.1 0.5 0.3 0.4 0.5 0.8 0.2 0.8-0.4 2.5l-0.9 2q-0.2 0.5-0.5 0.8 0.2 0.2 0.3 0.4 0.2-0.3 0.5-0.6 1.6-1.7 4.8-4 1.1-0.8 2-1.3-0.1 0-0.2 0 0.5-0.5 1.3-0.7 0.5-0.2 1.6-0.3 2.9-0.4 6.1-3.7 1.2-1.3 2.1-1.5 0.5-1.1 1.3-2.1-0.4 0-0.6 0.1-0.6 0.1-1.6 0zm-8.5 5.5l-0.2 0.2q-0.2-0.3-1.5-1.2-0.9-0.6-1.2-1.1l-0.5-0.9q-0.2-0.7-0.2-1 0.1-0.2 0.4-0.1 0.3 0 0.4 0.3 0.2 0.3 0.3 0.9 0.2 0.6 1.4 1.4 1.1 0.8 1.1 1.5z"/><path class="g" d="m113.7 216.1q0.3 0 0.5 0 1.3 0.2 2.8 1.1 0.8 0.6 1.5 1.4 0-1.3 0.4-1.9-0.5-0.3-0.3-1.5 0.1-1 0-1.8-0.6 0.5-1.8 1-1.9 0.8-2.6 1.2-0.1 0.2-0.5 0.5zm-39 3.6q0.6-0.6 0.9-0.7l1.4-0.3q-2.1-1.2-2.9-1.5-0.3-0.1-0.6-0.1 0.9 1.5 0.7 3.1 0.2-0.2 0.5-0.5zm1.6 0.5q-0.6 0.2-0.8 0.3-0.6 0.6-0.6 1.9l-0.7-0.1q0.1-0.2-0.1-0.7 0-0.3 0-0.5-0.1 0.1-0.1 0.2-0.3 0.8-0.2 1.1 0 0.2 0.2 0.9 0.3 0.7 0.3 1.7 0 1.6-0.1 2.7 0.8-0.3 1.8-0.3 1.1 0.1 1.8 1-1.9 0.3-2.7 0.7-1.5 0.7-1.7 2-0.3 1 0.4 2.6 1 1.9 1.1 2.6 0.2 1.2-0.8 4.1-1 2.6-0.5 3.9 0.3 1 1.2 1.8 0.2 0.2 1.8 1.4 0.2 0.2 0.5 0.5 0.5-0.6 1.2-1.1 3.9-3.1 6.7-2.1 1.3 0.4 2.4 1.8 0.6 0.6 1.8 2.6 2.2 3.6 4.7 3.6-0.5 1-1.9 1-1.3 0-2.3-0.8-0.8-0.6-1.5-1.8-0.8-1.4-1.2-2.1-1.6-2.7-3.6-2.8-1.2 0-2.9 1.1-3.5 2.4-6.1 5.8 0.1 2.3 1.8 2.3 0.6 0 1.7-0.5 1-0.6 1.6-0.6 0.5 0 0.9 0.4h0.1q0-0.4 0.3-0.6 0.4-1.1 0.5-1.5l0.1-1.6q0-1 0.7-1.4 0.3-0.2 0.8 0 0.4 0.1 0.4 0.5 0.1 0.2-0.2 0.7-0.2 0.7-0.1 2.1-0.1 0.3-0.3 0.9 0.2 0 0.3 0.2 0.2 0.1 0.4 0.5 0.6 0.9 1.2 1.4 1.1 0.9 2.8 1.4 0.8 0.2 3.2 0.6 0.1 0 0 0.2-0.2 0.1-0.3 0.1-2.6 0.5-4.8-0.7-2.1-1.1-3-3-0.1 0.2-0.2 0.5 0.3 0.3 0.4 0.8 0.2 0.6 0.2 1.2 0.2 0.1 0.6 0.5 1.9 2.7 4.7 3.3 1.3 0.3 2.7 0 1.1-0.3 1.3 0 0.1 0.1 0.1 0.1 1.5-1.4 4.5-2 2.5-0.6 4.3-0.2 0.1 0 1.7 0.4 0.3 0.1 0.5 0.2 0.6-0.4 1.8-0.8 1.6-0.4 2.2-0.8 0.4-0.3 1.1-0.8 0.7-0.6 1-0.8 0.7-0.4 1-0.6 0.6-0.4 0.9-0.8 0.4-0.5 0.5-0.7 0.3-0.3 0.7-0.3 0.5 0.8-0.3 1.7-0.3 0.4-1.4 1.1-0.5 0.3-1.7 1.2-1.1 0.8-1.8 1.3-0.9 0.5-1.9 0.8-0.1 0.1-0.2 0.1 0.2 0.1 0.4 0.2 0.7 0.2 2.3 1l3 1.5q0.6 0.2 0.8 0.6 0.2-0.4 0.6-0.5 0.7-0.5 1.9-0.3 1.5 0 1.8-0.2 0.7-0.3 1.7-1.4 0.9-0.9 1.5-1.2 0.3-0.1 1.3-0.1 0.7 0 1.1-0.3 0.2-0.2 0.6-0.7l0.9-1.1q0-1.4-0.1-2.9 0-1.3 0-2.6 0.2-1.5 0.3-2.3 0.1-1.4-0.3-2.3-0.1-0.3-0.6-1.1-0.4-0.7-0.5-1.1-0.1-0.5 0-1.5 0.2-0.9 0-1.5-0.1-0.5-0.4-1.1-0.6-0.6-0.8-1-0.6-0.9-0.9-1.9-1.1 1.8-1.7 2.7-0.8 1.1-1.8 2 1.8 0.1 2.4 0.4 0.9 0.4 1.9 1.6 0.4 0.6 0.6 1l0.2 0.8q0.1 0.2 0.2 0.8 0.1 0.5-0.1 0.8h-0.5l-1.1-1.7q-0.5-1.2-0.7-1.3-1-1.2-3.9-1.6-0.8 0.5-1.4 0.3-0.3-0.7 0.2-1.4 0.3-0.3 1.1-1 0.5-0.5 1.2-1.6 0.9-1.5 1.4-2.5 0.9-1.8 1.2-2.8 0.4-1.2 0.5-1.8l0.2-1.3q0.4-2.4 0-5.4l-0.6-2.7q-0.7-2-2.1-3.4-1.3-1.5-3.2-2-0.1 0.2-0.4 0.3-0.4 0.2-0.6 0.2-0.8 0.4-1.4 1.7-0.7 1.7-0.9 2.7l-0.6 2.7q-0.2 0.6-0.1 2 0 1.3-0.3 2h-1q-0.2-0.8-0.1-2 0-1.6 0-1.9-0.1-0.6-0.1-1v0.2q-0.8 1.6-2.2 2.4-0.6 0.3-0.7 0.5 0 0.4-0.4 0.8l-0.4 0.6-1.8 1.7q-0.3 0.4-0.3 0.6-0.1 0.2-0.1 0.6 0 0.3-0.1 0.5l-0.8-0.2q-0.1-1.2 0.2-1.6l0.8-0.9q0.5-0.9 0.9-1.3l0.9-0.5q-0.3 0-0.6 0.1l-0.1-0.4q0.9-0.8 1.5-1.3l0.8-0.5 1-1q0.6-0.6 0.7-1.1 0-0.2 0.1-0.3 0.1 0 0.3 0 0.2 0 0.3 0 0.2 0.1 0.2 0.4 0.1-0.2 0.1-0.4l0.2-1.4q0.1-0.6 0.6-1.7l0.9-1.8q0.1-0.3 0.2-0.5-0.9 0.3-2.1 0.4-2 0.4-2.7 0.6-0.6 0.3-1.8 0.9-0.9 0.5-1.6 0.7-1 2-2.9 3.3-3 2-6.9 1.4-3.4-0.6-6.4-3.1-0.8-0.6-0.7-1.1l3.8 1.9q2.3 1.1 3.5 1.2 1.6 0.2 3.7-0.4 1.7-0.5 2.6-1.3 1-1 1.6-1.4 0.2-0.2 0.5-0.4-0.7 0.1-1.7 0-1.8 0-2.7 0.3-0.5 0.1-1.6 0.7-1 0.5-1.6 0.7-1.6 0.6-4.2-0.3-3.6-1.3-4.4-1.4-0.5 0-1.5-0.1-1.1 0-1.6-0.1-1.2-0.2-2.9-1.1h-0.4q-0.6 0-2.2 0.5zm8.7 6.3q0.1-0.1 0.4 0.1l2.2 2q1.8 1.5 3 2 0.1-0.1 0.1-0.1 1.5-1.4 2-1.6 1.9-1 4.4 0.5 3.4 1.9 4.3 5.6 0.3 0.8 0.7 2.7 0.5 1.6 1.5 2.3 1.1 0.6 2.8 0.5 0.7 0 1.1-0.2 0.4-0.2 0.9-0.5 0.7-0.5 1-0.7 0.6-0.4 1-0.6 0.5-0.3 0.8-0.8 0-0.1 0.4-1.1l0.6-1q0.4-0.7 1.3-2.9 0.9-2.8 0.9-4l0.3-0.2q1.1 2.4-0.3 6-0.8 2.4-2.1 4-0.6 1-1.7 1.7-1.8 1.3-2.1 1.7-2.4 0.1-4.6-0.2-0.9-0.1-1.4-0.5-0.5-0.3-1-1.2-0.7-1.6-1.1-2.9-0.7-2.6-0.9-2.9-0.8-1.5-2.9-3.3-1-0.8-1.7-0.9-1.2-0.3-2.8 1.2-2.4 2-3.6 2.4-1.2 0.4-2.2 0.2-1.2-0.2-1.9-1-0.7-1.3-1-1.8-1-1.4-2.6-1.7l0.3-0.4q0.9-0.1 1.7 0.2 0.9 0.4 1.4 1.1 0.3 0.4 0.8 1.2 0.4 0.7 1 1 1 0.4 2.3-0.3 1-0.5 2-1.2h-0.2l-0.9-0.2q-1-0.4-2.4-1.6l-0.7-0.8q-0.6-0.6-1.1-1.8zm-6.1 5.6h0.4q0.3 0.9 0.9 1.9l0.6 1 0.7 2.4q0.1 0.5 0.2 0.8l0.3 0.2q0 0.1 0 0.1l0.4-0.1q0.3 0.8 1.8 1.3 3.1 0.9 6.1-0.4 1-0.5 1.4-0.9 0.2-0.2 0.7-1 0.3-0.8 0.8-1 0.3-0.3 0.6-0.3 0.5 0.1 0.5 0.4 0 0.3-0.3 0.6-0.3 0.3-0.5 1 0.5 0.7 1.1 2.3 0.7 1.8 1.3 2.6 0.9 1.1 3.7 2.5 3.2 1.4 4.7 1.6 2.5 0.4 5-0.7 2.4-1.1 3.9-3.2 0.4 0.2 0.4 0.7 0 0.6-0.2 1.1-0.9 1.5-2.6 2.5-1.6 0.8-3.5 1-3.1 0.3-7.2-1.2-2.4-0.9-3.7-2l-0.1 0.1q-0.9-0.1-1.3-0.4-0.2-0.1-0.5-0.4l-1.7-1.7q-0.7-0.7-0.8-1l-0.6-0.7q-0.2-0.3-0.3-0.6-0.2 0-0.4 0.1-1.3 0.5-2 0.6-1.4 0.3-4.3-0.2-1.3-0.2-2-0.7-0.8-0.6-0.8-1.3 0 0-0.1 0-0.2 0.3-0.5 0.7-0.8 0.8-1.2 1.2l-1.9 1.2q-0.7 0.6-0.5 1l-1.1-0.1q0-0.7 0.5-1.2 0.4-0.4 1.1-0.8 1.4-0.9 2.1-1.6 0.4-0.6 0.7-0.9 0.1-0.1 0.1-0.1 0-0.1 0-0.2l-0.2-0.8-0.3-0.5-0.1-0.6q-0.2-0.3-0.3-0.6l-0.9-2q-0.4-1.1-0.1-1.7zm30.9-2.1q0.1 0.2 0 0.8l-1.3 2.7q-0.4 1.1-1 1.3-0.4-0.2-0.2-0.9 0.2-0.7 0.9-1.7 0.4-1 0.5-1.2 0.2-0.7 0.4-0.8 0.2-0.1 0.2-0.2zm8.9 20q0.2-0.5 0.8-1.1 0.4-0.3 0.8-0.4 0.4-0.1 0.5 0.4-0.8 0.7-1.2 2.8l-0.2 1.3q0 0.9 0 2.5-0.2 1.3-0.3 2.5-0.6-0.1-0.8-0.8-0.1-0.3-0.1-1.1v-2.4q-0.1-0.4 0-0.8-0.1 0-0.1 0.1-0.6-2.3-2.7-3-1-0.4-2.1-0.3-1.1 0.1-2 0.8-0.4 0.4-1.2 1.1-0.6 0.8-1 1.1-1.9 1.4-4 0.7-0.5-0.1-1.2-0.4-0.9-0.5-1.2-0.5-1.9-0.7-6.1-0.4 0.2-1 2-1.1 2.7-0.3 4.2 0.1 0.7 0.3 1.8 0.7 1.2 0.4 1.9 0.3 1-0.1 2.1-1.1 1.3-1.2 1.9-1.7 1.5-1 3.4-1 2 0 3.4 1.1 1 0.8 1.3 1.6 0 0.2 0 0.5v-0.1q0-0.9 0.1-1.4zm-8.3 7.8q0 0.3 0.3 0.6 0.2 0.2 0.5 0.6l0.5 0.4 0.5 0.4q0.6 0.4 2.1 0.7 0.1 0.1-0.1 0.3l-0.3 0.1q-1.1 0.1-1.8-0.2-1-0.3-2-1.6-0.5-0.8-0.3-1.3zm7.5-104.4q-2.9 0-4.5 0.3-2.5 0.5-3.9 2-0.7 0.6-1.4 2-1 1.5-1.6 2.1-0.1-0.1-0.2-0.4-2 2.4-3.2 3.2-0.4 0.3-0.9 0.5 3.3 3.6 3.1 7.8 0 1.8-1.3 5.3-1.5 4.2-2.8 6.1-2.2 3.2-5.3 4-1.9 0.4-5.1-0.4-3-0.7-4.4-1.1-2.7-0.7-4.5-0.8-2.5 0-4.5 0.7-2.3 1-3.4 2.9-1 1.5-1.2 4.4-0.1 3.3 0.7 6.6 0.1 0.5 0.3 0.8 0.2-0.1 0.5-0.2 0.7-0.1 1.4 0.1 1 0.5 2.1 2 1.2 1.6 2 2 0.1 0.1 0.2 0.2-0.1-0.2-0.1-0.4-0.7-2.6-1.1-3.9-0.8-1.9-1.2-2.8-0.7-1.8-0.3-3.1 0.2-0.7 1-1.9 1.4-2.2 2.4-2.8 0.2-0.1 0.3-0.1 0.7-0.4 1.5-0.4 0.8 0 1.4 0.4h0.3q0 0 0.4 0.3 0.3-0.3 0.9-0.2 0.9 0.1 1.6 0.6 0.5 0.5 1 1.4 0.4 0.4 1 1.4 1.3 2.2 3.3 2.9 0.6 0.2 3 0.4 1.4 0.1 3.4 0.6 1.1 0.4 3.3 1 2.2 0.6 3.5 0.5 1.5-0.1 3.5-1.1 4.7-2.2 8.8-5.5 1.7-1.3 2.6-2.5 0.8-0.8 1.5-2.4 0.9-1.6 1.3-2.4 0.2-0.4 0.4-0.4 0.2 0 0.3 0 0.1-0.3 0.2-0.5 0.3-1 0.9-3.5l1-6.2q0.3-1.6 0.4-2.4 0.2-1.3 0.2-3.2 0-3.1-0.7-5.5-0.8-3.7-3.1-6.5-0.8-0.9-1.6-1.4-0.9-0.5-3.4-0.5zm-22.2 39.9q-0.1-0.2 0.2-0.6 0.9 0 2.1 0.2 0.7 0.2 2 0.6 4.1 1.2 7.3 0.3l0.1 0.4q-1.5 1-4.1 0.8-3-0.3-5.6-1.3zm25.2-12l0.1-0.4q0.2-0.2 0.4-0.2 0.1 0.4-0.1 0.8-0.2 0.3-0.4 0.7 0 0.1-0.3 0.7l-1.8 2.4q-0.3 0.4-0.6 0.5 0.1-0.5 0.6-1.6 0.3-0.6 0.5-0.8l0.5-0.6q0.3-0.9 0.6-1.2 0.4-0.2 0.5-0.3zm9.9-152.1q-0.3-0.1-0.5-0.4-0.2-0.5-0.2-1.1l-0.7-0.2q-0.1 0.6-0.3 0.9 0 0.1-0.2 0.4-0.2 0.4-0.1 1.2-0.1 0.4-0.6 1l-0.9 0.9q-0.2 0.6-0.5 1.1 0 0 0.1 0.1 0.3 0.3 0.3 0.8-0.2 0.1-0.5 0 0.1 0.1 0.1 0.1-0.3 0-0.6-0.2-0.6-0.4-1.2-1.2-1.1-1.2-1.8-1.3l0.2-0.5q-0.4-0.3-1-0.8-0.2 0-0.6 0 0-0.2-0.1-0.3-0.7-0.2-1.4-0.2-0.1-0.2-0.2-0.3-3.7-0.1-7.3-0.1-0.1 0.1-0.3 0.2-0.6 0.2-1.2 0.4-0.3 0.2-0.6 0.4-0.1 0.2-0.3 0.4-0.2 0.1-0.3 0.3-0.4 0.1-0.8 0.3-0.1 0.2-0.2 0.3-0.3 0.1-0.5 0.3-0.1 0.2-0.3 0.4-0.2 0.2-0.5 0.4-0.1 0.2-0.4 0.4-0.1 0.2-0.3 0.3-0.2 0.2-0.6 0.5-0.2 0.1-0.4 0.3-0.3 0.2-0.5 0.4-0.3 0.1-0.6 0.3-0.1 0.3-0.3 0.4-0.4 0.2-0.7 0.4-0.3 0.2-0.6 0.4-0.6 0.1-1.1 0.2-0.2 0.2-0.3 0.3-0.5 0.1-0.9 0.3-0.1 0.1-0.2 0.2-0.2 0.2-0.4 0.4-0.2 0.2-0.3 0.4-0.2 0.2-0.3 0.4-0.2 0.1-0.2 0.3-0.1 0.3-0.2 0.4-0.2 0.2-0.3 0.4 0 0.2 0 0.4 0.1 0.2 0.1 0.4 0 0.1 0 0.4 0 0.1 0 0.3 0 0.2 0 0.4 0 0.2 0 0.4-0.1 0.2-0.2 0.4-0.1 0.1-0.3 0.4 0 0.2 0 0.4 0 0.1 0 0.3 0 0.2 0 0.4 0 0.2 0 0.4 0 0.2 0 0.4 0 0.1 0 0.3 0 0.2 0 0.4 0 0.2 0 0.4 0 0.2 0 0.4 0 0.2 0 0.4 0 0.2 0 0.3 0 0.2 0 0.4 0 0.2 0 0.4 0 0.2 0 0.4 0 0.2 0 0.4 0 0.2 0 0.3 0 0.2 0 0.4 0 0.2 0 0.4 0 0.2 0 0.4 0 0.2 0 0.4-0.1 0.2-0.3 0.3-0.1 0.2-0.2 0.4 0 0.3 0 0.4 0 0.2 0 0.4 0 0.2 0 0.4 0 0.2 0 0.4 0 0.2 0 0.3 0 0.2 0 0.4 0 0.2 0 0.4 0 0.2 0 0.4 0 0.1 0 0.4 0 0.1 0 0.3 0 0.2 0 0.4 0 0.2 0 0.4 0 0.2 0 0.4 0 0.2 0 0.4 0 0.2 0 0.4 0 0.1 0 0.4 0 0.1 0 0.3 0 0.2 0 0.4 0 0.2 0 0.3 0 0.2 0 0.5 0 0.1 0 0.3 0 0.2 0 0.4 0 0.2 0 0.4 0 0.2 0 0.4 0 0.2 0 0.4 0 0.1 0 0.3 0 0.2 0 0.5 0 0.1 0 0.2 0 0.3 0 0.4 0 0.2 0 0.4 0 0.3 0 0.4 0 0.2 0 0.4 0 0.2 0 0.4 0 0.2 0 0.4 0 0.2 0 0.3 0 0.3 0 0.4 0 0.3 0 0.4 0 0.2 0 0.4 0 0.2 0 0.4 0 0.2 0 0.4 0 0.1 0 0.3 0 0.2 0 0.4 0 0.2 0 0.4 0 0.2 0 0.4 0 0.2 0 0.4 0 0.1 0 0.4 0 0.2 0 0.3 0 0.2 0 0.4 0 0.2 0 0.4 0 0.2 0 0.4 0 0.1 0 0.3 0 0.2 0 0.4 0 0.2 0 0.4 0 0.2 0 0.4 0 0.2 0 0.4 0 0.2 0 0.4 0 0.1 0 0.3 0 0.2 0 0.4 0 0.2 0 0.4 0 0.2 0 0.4 0 0.2 0 0.3 0 0.2 0 0.4 0 0.2 0 0.4 0 0.2 0 0.4 0 0.2 0 0.3 0 0.3 0 0.5 0 0.2 0 0.3 0 0.2 0 0.4 0 0.2 0 0.4 0 0.2 0 0.4 0 0.2 0 0.4 0 0.2 0 0.4 0 0.1 0 0.3 0 0.2 0 0.4 0 0.2 0 0.4 0 0.2 0 0.4 0 0.1 0 0.3 0 0.2 0 0.4 0 0.2 0 0.4 0 0.2 0 0.4 0 0.2 0 0.4 0 0.2 0 0.4 0 0.2 0 0.4 0 0.1 0 0.3 0 0.2 0 0.4 0 0.2 0 0.4 0 0.1 0 0.3 0 0.2 0 0.5 0 0.1 0 0.3 0 0.2 0 0.4 0 0.2 0 0.4 0 0.2 0 0.4 0 0.1 0 0.4 0 0.1 0 0.3 0 0.2 0 0.4 0 0.2 0 0.3 0 0.3 0 0.4 0 0.3 0 0.4 0 0.2 0 0.4 0 0.2 0 0.4 0 0.2 0 0.4 0 0.2 0 0.4 0 0.2 0 0.3 0 0.3 0 0.5 0 0.2 0 0.3 0 0.2 0 0.4 0 0.1 0 0.4 0 0.2 0 0.3 0 0.2 0 0.4 0 0.2 0 0.4 0 0.2 0 0.4 0 0.2 0 0.4 0 0.2 0 0.4 0 0.1 0 0.3 0 0.3 0 0.4 0 0.2 0 0.4 0 0.1 0 0.4 0 0.1 0 0.3v0.1q0 0.1 0 0.3 0 0.2 0 0.4 0 0.2 0 0.4 0 0.2 0 0.4 0 0.2 0 0.4 0 0.2 0 0.4 0 0.1 0 0.4 0 0.1 0 0.3 0 0.2 0 0.4 0 0.2 0 0.3 0 0.2 0 0.4 0 0.2 0 0.4 0 0.2 0 0.4 0 0.2 0 0.4 0 0.2 0 0.4 0 0.2 0 0.4 0 0.2 0 0.3 0 0.2 0 0.4 0 0.2 0 0.4 0 0.2 0 0.4 0 0.2 0 0.3 0 0.3 0 0.4 0 0.2 0 0.4 0 0.2 0 0.4 0 0 0 0.1h0.2q0 0.1 0 0.1 0 0.2 0 0.4 0 0.2 0 0.4 0 0.2 0 0.4 0 0.2 0 0.4 0 0.2 0 0.4 0 0.1 0 0.3 0 0.3 0 0.4 0 0.2 0 0.4 0 0.2 0 0.4 0 0.2 0 0.4 0 0.2 0 0.3 0 0.2 0 0.4 0 0.2 0 0.4 0 0.2 0 0.4 0 0.1 0 0.4 0 0.1 0 0.3 0 0.2 0 0.5 0 0.1 0 0.3 0 0.2 0 0.4 0 0.2 0 0.4 0 0.2 0 0.4 0 0.1 0 0.3 0 0.2 0 0.4 0 0.2 0 0.4 0 0.2 0 0.3 0 0.2 0 0.5 0 0.2 0 0.3 0 0.2 0 0.4 0 0.2 0 0.4 0 0.2 0 0.4 0 0.2 0 0.4 0 0.2 0 0.3 0 0.3 0 0.4 0 0.2 0 0.4 0 0.2 0 0.4 0 0.1 0 0.3 0 0.3 0 0.4 0 0.2 0 0.4 0 0.2 0 0.4 0 0.2 0 0.4 0 0.2 0 0.4 0 0.1 0 0.4 0 0.2 0 0.3 0 0.2 0 0.4 0 0.2 0 0.3 0 0.3 0 0.5 0 0.1 0 0.3 0 0.2 0 0.4 0 0.2 0 0.4 0 0.2 0 0.4 0 0.2 0 0.4 0 0.1 0 0.4 0 0.1 0 0.4 0 0.1 0 0.3 0 0.2 0 0.4 0 0.2 0 0.4 0 0.2 0 0.3 0 0.2 0 0.4 0 0.2 0 0.4 0 0.2 0 0.4 0 0.2 0 0.3 0 0.3 0 0.5 0 0.2 0 0.3 0 0.2 0 0.4 0 0.2 0 0.4 0 0.2 0 0.4 0 0.1 0 0.3 0 0.2 0 0.4 0 0.2 0 0.4 0 0.2 0 0.4 0 0.2 0 0.4 0 0.2 0 0.4 0 0.2 0 0.3 0 0.2 0 0.4 0 0.3 0 0.4 0 0.2 0 0.4 0 0.2 0 0.4 0 0.1 0 0.4 0 0.1 0 0.3 0 0.2 0 0.4-0.1 0.2-0.2 0.4 0 0.2 0 0.4 0 0.1 0 0.4 0 0.1 0 0.4 0 0.1 0 0.3 0 0.2 0 0.4 0 0.2 0 0.4 0 0.2 0 0.4 0 0.1 0 0.3 0 0.2 0 0.4 0 0.2-0.1 0.4 0 0.2 0 0.4 0 0.1 0 0.3 0 0.2 0 0.5 0.1 0.4 0.3 1.3 1.3 0.1 2.5 0 0.8 0 1.8-0.1 0-0.2 0-0.4 0-0.2 0-0.3 0-0.2 0-0.4 0-0.2 0-0.4 0-0.2 0-0.4-0.1-0.2-0.1-0.4 0-0.2 0-0.4 0-0.2 0-0.3 0-0.2 0-0.4 0-0.2 0-0.4 0-0.2 0-0.4 0-0.2 0-0.4 0-0.2 0-0.3 0-0.2 0-0.4 0-0.2 0-0.4 0-0.2 0-0.4 0-0.1 0-0.4 0-0.2 0-0.3 0-0.2 0-0.4 0-0.2 0-0.4 0-0.2 0-0.4 0-0.2 0-0.4 0-0.2 0-0.4 0-0.2 0-0.3 0-0.2 0-0.4 0-0.2 0-0.4 0-0.2 0-0.4 0-0.1 0-0.4 0-0.1 0-0.3 0-0.2 0-0.4 0-0.2 0-0.4 0-0.2 0-0.4 0-0.1 0-0.4 0-0.2 0-0.4 0-0.1 0-0.3 0-0.2 0-0.3 0-0.3 0-0.5 0-0.2 0-0.3 0-0.2 0-0.4 0-0.2 0-0.4 0-0.2 0-0.4 0-0.2 0-0.4 0-0.2 0-0.4 0-0.2 0-0.4 0-0.1 0-0.3 0-0.2 0-0.4 0-0.2 0-0.4 0-0.2 0-0.3 0-0.2 0-0.4 0-0.3 0-0.4 0-0.2 0-0.4 0-0.2 0-0.4 0-0.2 0-0.4 0-0.2 0-0.3 0-0.3 0-0.4 0-0.3 0-0.4 0-0.2 0-0.4 0-0.1 0-0.4 0-0.1 0-0.4 0-0.1 0-0.3 0-0.2 0-0.4 0-0.2 0-0.4 0-0.2 0-0.4 0-0.2 0-0.4 0-0.1 0-0.3 0-0.3 0-0.4 0-0.2 0-0.4 0-0.2 0-0.4 0-0.1 0-0.4 0-0.1 0-0.3 0-0.2 0-0.4 0-0.2 0-0.4 0-0.2 0-0.4 0-0.2 0-0.4 0-0.2 0-0.4 0-0.1 0-0.3 0-0.2 0-0.4 0-0.2 0-0.4 0-0.2 0-0.4 0-0.2 0-0.3 0-0.2 0-0.4 0-0.2 0-0.4 0-0.2 0-0.4 0-0.2 0-0.3 0-0.3 0-0.5 0-0.2 0-0.3 0-0.2 0-0.4 0-0.2 0-0.4 0-0.2 0-0.4 0-0.2 0-0.4 0-0.1 0-0.3 0-0.2 0-0.4 0-0.2 0-0.4 0-0.2 0-0.4 0-0.2 0-0.4 0-0.1 0-0.4 0-0.1 0-0.3 0-0.2 0-0.3h-0.2q0-0.1 0-0.2 0-0.2 0-0.4 0-0.2 0-0.4 0-0.2 0-0.4 0-0.1 0-0.4 0-0.1 0-0.3 0-0.2 0-0.4 0-0.2 0-0.4 0-0.2 0-0.4 0-0.2 0-0.4 0-0.2 0-0.4 0-0.1 0-0.3 0-0.2 0-0.3 0-0.3 0-0.5 0-0.2 0-0.3 0-0.3 0-0.4 0-0.2 0-0.4 0-0.2 0-0.4 0-0.2 0-0.4 0-0.2 0-0.4 0-0.2 0-0.4 0-0.2 0-0.3 0-0.2 0-0.4 0-0.2 0-0.4 0-0.1 0-0.3 0-0.2 0-0.4 0-0.3 0-0.4 0-0.2 0-0.4 0-0.2 0-0.4 0-0.2 0-0.4 0-0.2 0-0.4 0-0.1 0-0.3 0-0.3 0-0.4 0-0.2 0-0.4 0-0.1 0-0.4 0-0.1 0-0.4 0-0.1 0-0.4 0-0.1 0-0.3 0-0.2 0-0.4 0-0.2 0-0.4 0-0.2 0-0.4 0-0.1 0-0.4 0-0.2 0-0.4 0-0.1 0-0.3 0-0.2 0-0.3 0-0.3 0-0.5 0-0.1 0-0.3 0-0.2 0-0.4 0-0.2 0-0.4 0-0.2 0-0.4 0-0.2 0-0.3 0-0.3 0-0.5 0-0.2 0-0.3 0-0.2 0-0.4 0-0.2 0-0.4 0-0.2 0-0.3 0-0.3 0-0.4 0-0.2 0-0.4 0-0.2 0-0.4 0-0.2 0-0.4 0-0.2 0-0.4 0-0.2 0-0.4 0-0.2 0-0.3 0-0.2 0-0.4 0-0.2 0-0.4 0-0.2 0-0.4 0-0.2 0-0.3 0-0.2 0-0.4 0-0.2 0-0.4 0-0.2 0-0.4 0-0.2 0-0.4 0-0.2 0-0.4 0-0.1 0-0.4 0-0.1 0-0.3 0-0.2 0-0.4 0-0.2 0-0.4 0-0.2 0-0.4 0-0.1 0-0.4 0-0.1 0-0.3 0-0.2 0-0.4 0-0.2 0-0.4 0-0.2 0-0.4 0-0.2 0-0.3 0-0.2 0-0.4 0-0.2 0-0.4 0-0.2 0-0.4 0-0.2 0-0.4 0-0.2 0-0.4 0-0.2 0-0.4 0-0.1 0-0.3 0-0.2 0-0.4 0-0.2 0-0.3 0-0.3 0-0.4 0-0.2 0-0.4 0-0.3 0-0.4 0-0.2 0-0.4 0-0.2 0-0.4 0-0.2 0-0.4 0.1-0.2 0.2-0.3 0-0.2 0-0.4 0-0.2 0-0.4 0-0.1 0-0.2-0.3 0.1-1 0.1h-2.6l-0.3-0.4q0.7-0.3 1.8-0.3 1.3 0 1.7-0.2 0.5 0 0.8 0-0.3-0.4-0.4-0.8h-0.2q-0.2-0.3-0.7-0.8-0.7-0.5-0.8-0.7-0.7-0.9-0.8-3.1 0-1.8 0.3-2.6 0.5-0.8 0.8-1.3 0.5-0.7 0.8-1.9 0.1-0.7 0.3-1 0.3-0.5 1.3-1.3 3.4-2.4 5-3 1.7-0.7 5.3-0.7-0.7-0.2-1.7-0.6-1.4-0.6-2-0.7-0.3-0.1-1.6-0.2-0.1 0.1-0.2 0.1-2.8 1.4-3.7 2l-1.5 1.2q-0.6 0.5-2.1 1.3-0.2-0.5 0.2-1.2 0.2-0.2 1-0.8 1.7-1.5 2.6-2.1 0.5-0.4 0.9-0.6-2.1-0.2-3.1-1.1-0.5-0.4-0.6-1-0.2-0.7 0.3-0.9 0.4-0.3 0.9 0 0.1 0 0.9 0.4 1 0.7 2.9 0.8 2.7 0.2 3.2 0.3 0.6 0.1 2 0.7 1.3 0.5 2 0.6 1.1 0.2 2.5 0 0.8-0.1 2.5-0.4 3.8-0.8 5.5-1.9 1.2-0.9 1.7-0.4-1.1 1.7-3.5 2.8-0.1 0.1-0.3 0.2 0.5 0 1.2 0.1l2.6 0.3q2.7 0.5 5.1 2.2-0.2 0.1-0.3 0.3 0.5 0.3 0.8 0.4 0.2-0.3 0.6-0.7 0.8-0.9 1.9-1.1-0.5-2.1-2.5-5.3-2.4-3.7-2.9-5.1-0.7-1.5-0.7-2.6 0-0.1 0-0.2 0-1.3 1.2-3.7 0.6-1.2 1-2.2zm-8 6.7q-0.3-0.4-0.6-1.1-0.3-0.6-0.3-1 1.4 0.1 2.1 1.5 0.5 1.1 0.5 2.7 0 1.6-0.9 2.3-0.4 0.3-1.6 0.4-6.5 0.5-9.4 0.6-5.2 0.1-9.3-0.6-0.7-0.1-1-0.3-0.2-0.2-0.2-0.4 0.1-0.4 0.3-0.5 8.9 0.6 18.6 0 1.2-0.2 1.5-0.4 0.8-0.5 0.8-1.5 0-0.9-0.5-1.7zm-10.4-0.9q1.5-0.5 2.2 0.1-0.4 0.6-1.3 0.5-0.1 0.4-0.9 0.6-3.8 1-7.7 2.5-0.1-0.9 1.2-1.5 2-0.9 6.5-2.2z"/><path class="h" d="m83.4 169q-0.1 0.2-0.3 0.4-1-0.2-1.5-0.2-1.5-2.7-4.4-4.3-2.9-1.6-6-1.5-2.4 0.1-3.8 1.3-0.8 0.7-1.2 1.7-0.4 1.1 0.1 2 0.3 1 1.3 1.5 1 0.5 2.1 0.5 1.1 0 4.2-0.9 4.7-1.4 7.1 0.5 1.9 1.6 2.4 5.4 0.4 3.4 0 6.8 0.4 0.1 0.9 0.2 0-0.1 0-0.2 0-0.2 0-0.4 0-0.2 0-0.4 0-0.1 0-0.4 0-0.1 0-0.4 0-0.1 0-0.3 0-0.2 0-0.4 0-0.2 0-0.4 0-0.2 0-0.4 0-0.1 0-0.4 0-0.2 0-0.4 0-0.1 0-0.3 0-0.2 0-0.3 0-0.3 0-0.5 0-0.1 0-0.3 0-0.2 0.1-0.4 0-0.2 0-0.4 0-0.2 0-0.4 0-0.2 0-0.4 0-0.2 0-0.4 0-0.2 0-0.4 0-0.1 0-0.3 0-0.2 0-0.4 0-0.2 0-0.3 0-0.3 0-0.4 0-0.2 0-0.4 0-0.3 0-0.4 0-0.2 0-0.4 0-0.2 0-0.4 0 0 0-0.1-0.1-0.1-0.1-0.1-0.7-1-0.9-2.3zm-11-4.6l0.7 0.3 0.3 0.2q0.1 0.2 0.1 0.3 0 0.3-0.1 0.3v0.1q-0.5 0.3-0.9 0.2l-0.8-0.1-1.4 0.2-0.9 0.4q-0.5 0.1-0.9 0.1-0.2 0-0.3-0.1-0.1-0.1-0.1-0.5 0-0.3 0.1-0.3l0.6-0.6 0.3-0.2 1.8-0.3 0.1-0.1h0.9z"/><path class="i" d="m73.1 164.7l-0.7-0.3-0.5-0.1h-0.9l-0.1 0.1-1.8 0.3-0.3 0.2-0.6 0.6q-0.1 0-0.1 0.3 0 0.4 0.1 0.5 0.1 0.1 0.3 0.1 0.4 0 0.9-0.1l0.9-0.4 1.4-0.2 0.8 0.1q0.4 0.1 0.9-0.2v-0.1q0.1 0 0.1-0.3 0-0.1-0.1-0.3z"/><path class="j" d="m132.3 163.3q-1-1.6-2.8-2.8-0.3-0.2-2.1-1.1 0.5 1.4 0.7 3.1 0.1 0 0.2 0.1 0.2 0.3 0.6 1.1l1 1.6q0.4 0.7 0.8 1.8 0.6 1.8 0.5 2.6-0.2 0.6-0.5 0.7-0.2-1.5-0.4-1.8l-0.7-1.3q-0.2-1.1-0.5-1.5-0.5-0.5-0.8-0.8 0.1 2.8-0.3 6.1l-0.6 3.8q0.2 0 0.4 0.1 0.4 0.2 0.6 0.6 0.1 0.2 0.2 0.8 0.1 0.1 0.5 0.8 0.4 0.7 0.9 1.3l0.1-0.3q0.4-1.3 0.4-1.7 0-0.7 0.4-0.6 0.5 1 0.3 2.5-0.2 0.8-0.4 1.3-0.3 1.1-1.7 2.6l-1.9 2.2q-0.5 0.6-0.9 1 0 0.1 0.1 0.1l0.4 0.4v0.4q0 0.1 0 0.2 0.7 0.3 1.2 0.6 2.7-1.4 4.4-5l1-2.5q0.5-1.6 0.6-2.5 0.1-0.8 0.1-2.8l0.1-4.8q0-1.6-0.2-2.4-0.2-0.8-0.8-2.1-0.5-1.2-0.9-1.8z"/><path class="k" d="m60.5 201.9q-1.2 2-0.6 4 0.1 0.3 0.5 1.4 0.3 0.8 0.4 1.4 0 0.7-0.4 2.2-0.4 1.4-0.4 2 0.2 0.7 0.8 2.3 0.8 1.3 0.7 2.1-0.1 0.6-0.7 1.6-0.5 1.1-0.6 1.6 0 0.6 0.4 1.9 0.4 1.2 0.3 1.8 0 0.5-0.5 1.7-0.5 1.1-0.4 1.7 0 0.6 0.4 1.3 0.4 0.8 0.4 1.2 0.2 0.9-0.6 2.4-0.9 1.7-0.9 2.5 0 0.5 0.4 1.5 0.2 0.8 0.2 1.3l0.7-0.7q0.6-0.3 1 0.3-0.3 0.1-0.8 0.8l-0.4 0.4q-0.3 0.3-0.2 0.6l-0.7-0.1q0-0.1 0-0.2-0.1 0.2-0.2 0.4-0.4 0.8-0.5 1.3 0 0.8 0.5 2.4 0.1 0.7-0.4 2.6-0.5 1.7 0 2.6 0.1 0.3 0.6 0.9 0.5 0.5 0.7 0.9 0.2 0.6 0.1 2-0.1 1.3 0.2 2 0.2 0.3 0.8 0.9 0.7 0.6 0.9 0.8 0.7 0.8 1 3.1 0.3 2 1.1 2.8 0.4 0.3 1 0.5 0.3 0.2 1 0.5 0.9 0.6 1.9 1.8 0.6 0.7 1.8 2.1 2.3 2.6 4.6 2 0.6-0.2 1.3-0.7 0.8-0.7 1.2-0.9 1.3-0.9 2.2-0.7 0.5-0.9 0.5-1.1 0.2-0.6 0.2-1.5 0-1.1 0-1.5 0.2-0.7 0.8-1.9 0.5-1.1 0.6-1.2 0.3-1.3-0.2-2.5-0.8 0.5-2 0.4-0.3-1 0.1-1.3l0.7-0.3q0.3-0.1 0.4-0.5-0.4-0.4-0.9-0.4-0.6 0-1.6 0.6-1.1 0.5-1.7 0.5-1.7 0-1.8-2.3-0.3 0.4-0.6 0.8l-0.7-0.1q-0.2-1.5 1.5-3.5 0.4-0.4 0.8-0.9 0-0.1 0.1-0.2-0.1-0.1-0.2-0.1-3.1-2.2-3.6-4.7-0.3-1.3 0.2-3.1 0.8-2.1 1-3.2 0.5-1.4 0.2-2.4l-1-1.7q-0.9-1.6-0.4-3.5 0.4-1.1 1.2-2-0.1-0.4 0-1.2 0-1.6 0-1.9-0.1-0.5-0.4-1.7-0.3-1.1-0.2-1.7 0-0.4 0.4-1.7 0.4-1 0.2-1.6 0-0.3-0.3-1.1-0.2-0.6 0-1-0.8-0.2-1.3-0.6-0.9-0.6-2.2-2.2-1.2-1.7-2.1-2.4-1.2-0.6-1.7-1.1-1-0.9-0.4-1.8 0.2 0.5 1.1 0.8 0.6 0.1 1.6 0.3 1.1 0.3 2.3 2.1 1.4 1.9 2.1 2.4 0.5 0.4 1.4 0.6 0.6 0.2 1.6 0.4 1.1 0.4 3.8 2.1 2.3 1.4 3.9 1.6 0.6 0.1 1.9 0.1 1.3 0 2 0.2 0.5 0 3 1.2 1.8 0.8 3.1 0.5 0.6-0.2 1.4-0.8 1.1-0.6 1.5-0.9 0.9-0.3 2.7-0.2 1.9 0.1 2.6-0.1 1-0.2 2.6-1 1.7-1 2.5-1.2 0.4-0.1 2.1-0.2 1.3 0 2-0.4 0.8-0.3 1.9-1.4 1.2-1.2 1.9-1.6 0.4-0.2 1.8-0.6 1.2-0.3 1.8-0.8 0.4-0.4 0.8-1.1 0.7-1.1 0.8-1.2 0.3-0.4 1.2-1.1 1-0.8 1.3-1 1.5-1.5 2.8-5.5 1.3-4.1 2.6-5.6 0.4 7.9-3.8 12.3-0.7 0.7-2.3 2.3-0.3 0.4-0.8 1.1-0.1 0.2-0.2 0.4-0.4 1.9 0.1 3.2 0.2 0.5 0.4 1.2 0.2 0.6 0 1-0.1 0.2-0.3 0.6-0.2 0.4-0.2 0.6 0.2 0.2 0.5 0.5 0.1 0.3 0 1l0.2 0.7q0.1 0.2 0 0.5 0.5 1.2 0.8 2.5l0.3 1.2q0.1 1 0 2.2v3.5q0 1.9-0.2 2.8 0 0.3-0.1 0.7l-0.2 0.6q-0.7 1.9 0.6 3.5 0.3 0.4 1 1 0.5 0.6 0.7 1.2 0.2 0.6 0.1 1.6-0.1 1.3 0 1.7 0 0.7 0.6 1.6 0.7 1.2 0.8 1.7 0.3 0.9 0.1 2.4-0.3 2.2-0.3 2.5 0 0.6 0.1 1.6 0.2 1.1 0.2 1.7 0 0.9-0.6 3.2-0.3 0.9-0.6 1.1-0.8 1.1-1.4 1.5-0.5 0.2-1.6 0.2-1.1 0.1-1.5 0.3-0.7 0.2-1.3 1-0.5 1-0.5 1-0.4 0.5-0.9 0.6-0.3 0.1-1.8-0.3-1.6-0.5-3.2 0.1 0 0.1-0.1 0.1-0.8 0-2.5-0.6-2.5-1.2-5.4-2.2-2.1-0.9-3.5-0.9-1-0.1-3.2 0.3-1.5 0.3-2.1 0.6-0.9 0.4-1.9 1.6-1.7 1.8-2.3 3.3-0.9 2.2-0.5 4.1l0.6 2q0.1 0.2 0.8 1.3 0.3 0 0.5 0.3l-0.1 0.4q0.7 1.1 0.7 2-0.5 0.2-1.1-0.2l-0.2 0.5q-0.2 0.9-0.3 1.9-0.2 0.8-0.2 2.3 0 1.9 0.4 3.5 0.1 0.8 0.6 1.6 0.6 1.3 1.8 2.8 0.7 0.9 2.1 2.6 0.9 1.1 1 1.9 0 0.3-0.1 1.1 0 0.7 0.3 1.1 0.4 0.6 2.1 0.4 0.4-0.5 0.7-1.5 0.5-1.6 0.5-1.7l0.9-1.4q0.5-0.9 1.1-2.7l1.7-6q0.3-1.3 0.1-2.5l-0.2-1.8q-0.2-0.9-0.2-2.8 0.1-1.5 0.4-2.3-1.1 0.5-2.6 0.4-0.4-0.5 0.1-1 0.2-0.4 0.9-0.7 1.4-0.7 2.5-0.6 0.9 0.1 2.7 1.1 3.8 1.9 8.3 2.2 1.1 0.1 1.9-0.2 1-0.4 2.4-1.6 0.7-0.4 2.3-0.9 1.6-0.3 2.3-0.8 0.4-0.2 0.9-0.8 0.6-0.6 1-0.9 0.4-0.4 2.1-1.1 1.3-0.6 1.9-1.2 0.7-0.9 0.8-2.6 0.2-2.5 0.3-2.9 0-0.2 0.2-0.4 0.2-0.2 0.4-0.2 0.1 0.2 0.2 0.4 1.3-4.4 1.7-9 0.1-1.8 0.1-5.5 0.1-3.1-0.3-4.8-0.2-0.7-0.8-1.9-0.5-1.3-0.7-2-0.4-1.2-0.5-3.4-0.2-2.3-0.4-3.2-0.4-1.6-0.6-2.3-0.4-1.3-0.3-2.2 0-0.5 0.7-3.1 0.5-1.7 0-2.8-0.1-0.3-0.6-1-0.3-0.6-0.5-1-0.2-0.6 0-1.4 0.2-0.9 0.2-1.5 0.1-1 0-2.9-0.2-2.2-0.2-3.1 0.1-0.9 1-4.1 0.6-2.6 0.3-4.1-0.1-1-1-3.1-0.9-1.8-1-2.9 0-0.5 0.2-2 0.1-1.2 0-1.9-0.3-1.8-2-3-1.2 0.1-2.1-0.4-0.2-0.4 0.1-0.8-0.5-0.3-1.2-0.6-0.4-0.2-0.7-0.4-0.2 0.5-0.5 0.8l-0.4 0.1q-1.1 2.1-3 3.8-0.5 0.4-1.1 0.8-0.2 0.3-0.5 0.6-0.5 0.7-1.3 1.9-0.4 0.5-1.3 1.2-0.7 0.8-0.8 1.4 0 0.1-0.1 0.9 0 0.5-0.2 0.8-0.1 0.3-0.4 0.5-0.2 0.1-0.6 0.3-0.7 0.3-1.4 1.1-0.4 0.4-1.3 1.3-1.5 1.7-2.9 2-0.1 0-1.6 0-0.9 0-1.5 0.4-0.3 0.3-0.9 1.1-0.6 0.6-1.5 0.8-0.8 0.2-1.6-0.1-0.7-0.2-0.8-0.2-0.2 0-1.1 0.3-0.8 0.3-1.1 0.4-0.3 0.2-0.9 0.7-0.4 0.2-0.7 0.2 0 0 0 0.1 0 0.5-0.7 0.7-0.6 0-1.1-0.2-0.5-0.5-0.9-0.7-0.5-0.4-1-0.4-1 1.2-3 0.6-2-0.8-3.1-0.9-1.9 0.1-2.8-0.2-0.5-0.1-1.4-0.7-0.1-0.1-0.1-0.1-0.3 0.3-0.9-0.2-0.3-0.2-0.5-0.6-1.5-0.3-2.1-0.6-0.8-0.4-1.4-1.5-1.1-1.8-1.2-1.9-1.1-1.3-2.6-1.6 0.1 0.9 0 1.6-1.3-0.6-2-2.4-0.2-0.2-0.4-0.3-1-1.1-1.4-1.5-0.9-0.8-1.9-1-1.1-0.2-1.6 0.6-0.2 0.2-0.4 0.8-0.1 0.7-0.3 0.9-0.5 0.5-2 0.7-2.1 0.4-3.3 2.4zm0.4 24.4q-0.1-0.5 0-0.8l0.3-0.2q0.3-0.5 0.4-0.6 0.6-0.3 1-0.5l0.6 0.4q-0.7 0.4-1 0.9l-0.1 0.3-0.3 0.3q-0.1 0.2-0.1 0.4zm68.2-13.2l0.6-0.4q0.3-0.1 0.5 0.3v0.4q0 0.2-0.2 0.3l-0.8 0.3-0.2 0.2-0.2 0.1-0.6-0.1q0.1 1.3 0 2.6-0.1 4.1 0.3 5.9 0.4 0.9 1 2.7 0.6 1.6 0.3 2.8l-0.3 0.7q-0.1 0.5-0.1 0.8 0 0.7 0.4 1.7l0.9 1.5q0.5 0.9 0.3 1.9 0 0.8-0.5 2.4-0.1 0.8-0.1 2.6 0 2.1 0.2 3.1 0.3 1.8-0.4 2.3-0.1-0.2-0.2-0.5 0.5 2.7 0.5 4.6 0 3-1.3 5.9l-0.7 0.2q-0.1-1.1 0.4-2.7 0.3-2.1 0.4-2.8 0.1-1-0.1-2.4 0 0-0.1-0.6-0.3 0.3-0.8 0.4h-1.7q-0.3 0-0.6-0.1-0.2-0.2-0.3-0.4 0.1-0.2 0.4-0.3l0.5-0.2h0.6q0.9-0.1 1.3-0.2l0.4-0.2v0.1q-0.1-0.4-0.2-0.8l-0.7-3.7q0-0.2 0-0.4-0.5 0-1.2 0-1.1-0.1-1.4-0.1v-0.4l0.3-0.1v-0.1q0.6 0 1.5 0 0.4 0 0.7 0-0.2-2.2 0.1-3.6 0.2-1.2 0.2-1.4-0.1-0.6-0.4-1.1-0.5-0.7-0.7-1.1 0 0 0-0.1-0.5-0.2-1.4-0.4l-2.4-0.2v-0.5q0.1-0.3 0.3-0.3 0.1 0 0.1-0.1l1.9 0.1q0.6 0 0.9 0.2-0.5-1.6-0.2-3.2 0.3-1.1 0.4-1.5-0.3 0.1-1-0.2-0.6-0.3-1.2-0.5l-1.2-0.2q-0.7-0.4-0.5-1 0.3-0.2 0.7-0.2l0.6 0.3q0.4 0.1 1.2 0.2l0.7 0.4q0.4 0.3 0.5 0.5 0.1 0.1 0.2 0.2-0.1-0.6-0.6-1.8-0.8-2.1-1-4.9-0.1-0.8-0.2-1.8h-2.1l-0.2-0.1q-0.3-0.1-0.4-0.3l-0.3-0.3q-0.1-0.1 0-0.4 0.7-0.1 0.9 0l0.5 0.3h0.3q0.8 0 1.3 0.2-0.1-1.2-0.1-2.6 0-0.8 0-1.3-0.6-0.1-1.4-0.5l-0.3-0.2q-0.2-0.2-0.1-0.3 0.1 0 1.1 0.2 0.3 0.1 0.7 0.1 0.1-1.7 0.1-2.7 0.2-2.3 0.7-5.2l0.4-0.1q0.3 0.9 0.3 2.1 0 0.5-0.3 2.1-0.3 2.1-0.3 4.1 0 0 0 0.1 0.6 0.4 0.3 1.1-0.2 0-0.3-0.3 0 2.4 0.3 4.7 0.4 3.2 1.4 6.1 0.6 1.4 0.5 2.1 0 0.4-0.3 1.2-0.3 0.7-0.3 1.2-0.1 1.1 1.1 3.1 1.3 2 1.1 3.3-0.1 0.5-0.6 1.8 0 0.6 0.1 2l0.2 1.3q0-1.1 0-2.8 0.2-1.5 0.3-2 0.3-1.1 0.4-1.6 0.1-0.6-0.4-1.5-0.6-1.1-0.8-1.7-0.5-1.1-0.3-2.1 0.6-1.9 0.6-2.8 0-0.6-0.3-1.4-0.4-0.8-0.6-1.3-0.5-1.6-0.5-5.3v-7.9q0-0.2 0.1-0.4 0.1-0.2 0.3-0.1 0.1 1.7 0.2 3.3l0.2-0.1zm-46-4.4l0.3-0.2q0.4-0.4 0.7 0.1l0.1 0.1q0 0.2-0.1 0.3l-0.3 1q-0.1 0.4-0.2 1.1 0 0.1 0 0.2 1.6 1.4 2.1 1.7 1.3 0.8 2.3 0.8 0.2 0 1.4 0l4.9-0.1q2 0 3 0.3 0.7 0.2 0.5 0.6 0 0.3-0.5 0.3l-8.9 0.4q-1.1 0-1.3 0-0.3 0-0.5-0.2l-0.2 0.3q-0.1 0.2-0.2 1-0.1 0.6-0.4 0.9-0.4-0.3-0.5-1 0-0.6 0.4-1.7-1.3-0.8-2.3-1.6-2.1-1.9-2.4-2-0.5-0.4-1.5-0.9-0.6-0.1-1.9-0.5-1.4-0.3-1.9-0.5-0.2-0.1-0.5-0.2h-0.3q0-0.1 0-0.2-0.1 0-0.1-0.1-0.1 0.1-0.2 0.1l-0.5 0.3q-0.5 0.4-1.4 1.9l-0.3 0.2q-0.1 0.1-0.4 0-0.2 0-0.3 0-0.1-0.3 0.1-0.8 0.8-1.3 2.1-2.2 0 0 0 0-1.6-1.2-2.3-2.3-0.3-0.5-0.7-1.3l-0.1-0.1q0 0-0.1 0.1l-0.6 0.1q-1.4 0-2.2 1.3l-0.3 0.7q-0.3 0.3-0.7 0.3-0.3-0.1-0.2-0.6 0.2-0.9 0.8-1.5 0.6-0.6 1.5-0.8v-0.2q0.9-0.1 1.7 0.2l-0.4-0.9q-0.8-1.7-1.9-2.3-0.9-0.3-1.5-0.5-0.9-0.3-1.2-0.8 1.7-0.3 3 0.5 1.4 0.7 3 3.4 1.5 2.7 2.7 3.5 0.3 0.3 0.7 0.5 0.2-0.4 0.2-0.5 0-0.4 0-0.6 0.1-0.2 0.4-0.6 0.6-0.6 1-0.6 0.2 0.3 0.1 0.7-0.2 0.3-0.5 0.5-0.3 0.4-0.3 0.6l-0.1 0.5q0 0.1-0.1 0.3 0.7 0.2 1.8 0.5 2.3 0.5 3.2 1 0.9 0.4 2 1.4 0-0.1 0-0.2 0-0.9 0.1-1.2zm-3 4q0.5 0 0.6-0.2l0.3 0.3q-0.6 1.1-1.6 2l-0.3 0.2q-0.1 0.1-0.7 0.1-0.2-0.3 0.2-0.7zm9.9 2.9q0.4-0.2 0.8 0.3 0 0.1 0 0.7 0 0.5 0.1 1.2l-0.2 0.2-0.6-0.4q-0.2-0.1-0.2-0.2v-0.3-1q0-0.3 0.1-0.5zm-25-13.3q0 0-0.2 0.3-0.3 0.4-0.5 0.6-0.3 0.3-0.7 0.2 0.2-1.5 1.4-2.1 1.2-0.1 1.9 0.1 0.2 0 1 0.3 0.6 0.2 1 0.2 0.1 0.2-0.1 0.4h-0.4q-0.9 0-1.2 0l-0.4-0.1q-0.2-0.1-0.4 0h-1zm0.1 11.1q-0.1-0.2 0-0.5 0.1-0.2 0.3-0.2 1.2 2.7 1.3 4.5l-0.1 1.7q-0.1 0.8-0.4 1.7-0.2 0.6-0.5 1.6-0.4 0.9-0.4 1.5-0.1 0.3 0 2.2 0.1 1.4-0.3 2.2-0.2 0.4-0.8 1.1-0.6 0.7-0.8 1.1-0.2 0.7-0.1 1.6 0.1 0.6 0.5 1.7 0.2 1.3 0.1 2.9 0 1.3 0 3.8 0.1 2.1 0.9 3.5 0.6 1.4 0.3 1.8-0.6-0.1-1-0.9-0.3-1-0.5-1.4-0.3-0.5-0.5-0.9 0.1 0.5 0.2 1 0.3 1.3 1 4.3 0.8 2.4 1.1 3.1 0.4 0.9 1.4 2.5l3.9 6.7q-2.3-1.3-4.6-5.6-1.1-1.8-1.7-3.3-0.9-2.1-1.6-6.2-0.9-4.3-0.8-7.1 0-1.8 0.4-3.4 0.1 3.2 0.4 5.7l0.1-4.4q0-1.2-0.1-1.8l-0.2-1q-0.6-2.4 0.4-3.9 0.8-1 1.2-1.6 0.4-0.8 0.3-2.3-0.2-1.9-0.1-2.4 0.1-0.5 0.5-1.5 0.4-1.1 0.5-1.6 0.1-1.1 0.3-1.4 0.5-0.7 0.5-1.1-0.4-0.7-0.5-0.9-0.1-0.3-0.1-1.1 0.1-0.5-0.1-0.9-0.3-0.5-0.4-0.8zm5 10.3q1.6 0.5 2.4 1.2 0 0.2-0.5 0.5-0.2 0.1-0.6 0.1-0.2-0.1-1.3-0.6l-0.7-0.4q-0.4-0.2-0.4-0.4 0-0.2 0.2-0.5 0.5 0 0.9 0.1zm-5.5-6.1q-0.1 0.1-0.3 0.1-0.7 0.1-1.3 0.4l-0.2 0.1q-0.5-0.1-0.8-0.1v-0.4l0.2-0.1q0.8-0.5 1.2-0.5v-0.1l1.3 0.2zm3.7 15.5l-0.2-0.3q-0.2-0.3 0-0.4 0.2 0 1.1 0.2 0.2 0.1 1.4 0.2 0.9 0.1 1 0.5 0 0.2-0.5 0.2l-1.4-0.1q-0.7 0-1.4-0.3zm52.6-33.6l1.6 1.3q-0.4 0.3-0.9 0-0.6-0.3-0.9-0.4 0-0.1-0.8-0.3l-0.4-0.2-1.4 2.1q-0.4 0.7-0.8 1.3 0.1 0 0.3 0.2l0.8 0.4q0.4 0.2 0.5 0.3 0.1 0.2 0.1 0.4-0.5 0.1-1.1-0.3-0.6-0.4-0.9-0.6-0.9 1.2-1.6 1.7-0.6 0.5-2 1.3-1.4 0.8-2 1.4-0.6 0.5-1.7 1.7-1.1 1-1.9 1.3-0.5 0.2-2.1 0.3-1.2 0.1-1.8 0.5-0.6 0.3-1.4 1.1-1 0.7-1.6 0.1 0.7-1.6 2.9-2.5 0.6-0.2 1.9-0.5 1.3-0.4 1.9-0.7 2.9-1.2 4.7-3.9 2.7-0.6 5.2-4.8 1.5-2.5 2-3.1 1.2-1.6 2.6-2.4-0.2 0.9-1.3 2.6l-0.9 1.5q0.9 0.1 1 0.2zm7.1 57.5l0.4-0.1q0.5 1-0.2 2.2 0 0.3-1.1 1.9-0.4 0.8-0.8 1 0 0.1-0.7 0.5-0.3 0.3-0.9 0.8-0.6 0.6-0.9 0.8-1.6 0.9-3.1 0.5-1.1 0.9-1.8 1.3-1 0.5-2 0.3l1.5-1.2q1.1-1.1 2-1.2 0.6-0.2 1.9-0.4 0.8-0.2 1.8-1.3 1-1.1 1.7-1.3 0.2-0.5 1.3-1.9 1-1.1 0.9-1.9zm-56.2-16.5q-0.6 0-0.8-0.1l-0.3-0.5q-0.3-0.4-0.9-0.6-1.1-0.4-1.2-0.5-0.3 0.4-1.1 0.2 0-0.9 0.9-1.2v-0.1q0.9 0 1.9 0.5 0.9 0.4 1.3 1 0.2 0.2 0.3 0.5zm-1 5.2q0.2 0.2-0.1 0.3l-0.4 0.1-2.7-0.1v-0.3l-0.9-0.2v-0.3h0.1v-0.1q0.2 0 0.7 0 0.3 0.1 0.5 0.2l0.3 0.1zm-8.5 1.2l-0.4 0.5q-0.2 0.2-0.5 0.6l-0.3-0.1 0.4-0.9 0.5-0.5q0.2-0.2 0.4-0.2 0.1 0.3-0.1 0.6zm13.8 16.2q0.1 0.1 0.4 0.4 0 0.1 0.8 0.4 0.6 0.2 0.6 0.5l-0.1 0.2h-0.2q-1-0.1-1.4-0.3-0.6-0.2-1-0.9-0.2-0.2-0.1-0.4 0.1-0.1 0.3-0.1 0.3 0 0.7 0.2zm22.5 18.8q0.3-0.2 0.5-0.1l0.2 0.1q0.4 0.5 1.2 0.7-0.2 0.2-0.3 0.2h-0.2q-0.7 0-1.4-0.9zm9.4-228.7q-1.9 0.6-2.3 1.8-0.2 0.3-0.3 1 0 0.3-0.1 0.9-0.3 2-1.8 3.2 1.2 2.9 1.5 5.8 1.6 0.6 2.5 2 2.7-0.8 6.6-0.5 4.9 0.6 7.4 0.9 2.2 0.2 3.8-0.3 2.1-0.6 2.8-2.3 0.1-0.6 0.3-2.2 0-0.7 0.2-1.2-0.1 0-0.1 0-0.1 0-0.3 0.1 0 0.1-0.2 0.4-0.2 0.2-1 0.5-1.9 0.4-3.1 0.4-0.6-1.2-0.4-1.8 0.2-0.7 1-1.3 1.6-1.5 1.6-1.5 0.4-0.6 0.8-1.4 0.4-0.6 0.4-1.1 0-0.5-0.4-1.7 0-0.1-0.1-0.2 0 0.2 0 0.5-1.4-2.3-4.3-3-1.9-0.5-5.4-0.5-6 0.2-9.1 1.5zm1 12.5q-0.8-0.3-1-0.4-0.9-0.4-1.2-1.3l7.8 1.8q1.3 0.4 2.2 0.2l0.6-0.1q0.5 0.1 0.5 0.4-0.8-0.1-1.1 0.7l-2 0.1q-0.1-0.4-0.6-0.4-1.2-0.1-2.7-0.5z"/><path class="l" d="m84.1 188.5h-0.3q0.1 0 0.2 0.2-2 0.4-3.7 1.9-1.5 1.7-1.9 3.8l1.9 6q0.8 2.2 1.3 3.7 0.9 0.3 1.3 0.5 0.3 0.3 1 0.7 0.4 0.3 0.9 0.4 0-0.7 1.1-1.5 1.3-0.8 1.8-0.9 0.4-0.1 2.1-0.2 2.3-0.3 4.3-1.9 0.8-0.7 1.7-1.6 1-1.2 1.7-0.8 0-0.1 0-0.2l0.3-0.4 0.5-0.2q-0.5-0.1-0.8-0.2-2-0.6-3.5-0.8-2.2-0.3-2.5-0.5-2.6-0.8-4.5-4.8-0.8-1.7-1.8-2.1-0.5-0.1-0.7-0.2-0.5-0.1-0.6-0.3 0.2-0.3 0.6-0.3-0.4-0.3-0.4-0.3z"/><path class="m" d="m72.7 139q-3.2 0.6-6.1 2.3-3.5 2-5.3 4.7-2 2.9-2.6 7.4-0.4 2.6-0.2 8l0.4 9q0.1 1.2 0.1 2.8l0.1 9.2q0 1.8 0.1 2.6 0.1 0.7 0.4 1.7 0.4 0.8 0.7 1 0.1 0.1 0.4 0.2-0.3-0.7-0.3-1.1 0-0.7 0.5-1.8 0.9-1.9 1.6-2.6 0.4-0.5 1.3-1.3 1.1-0.8 1.4-1.2 2.3-2.1 3.7-6.4 0.2-0.8 0.5-1.3-0.3 0-0.6 0-3 0-3.8-1.6-0.5-0.8-0.5-2.4 0-3.7 1.6-5.2 1-0.9 3-1.2 3.9-0.7 7.8 1 0.6 0.3 1.2 0.6 0-0.2 0.3-0.4 0.2-0.2 0.9-0.5 2.7-0.9 7.1-4.1 2.2-1.6 3.1-2.1 3.8-2.2 8.8-2.4l3-0.4q1-0.2 2.8 0 2 0.2 2.7 0.1 0.5 0 1.6 0 0.3 0 0.6 0.2 0.4-0.3 0.8-0.6-0.3-0.5 0.1-0.9 0.3-0.3 1-0.6 2.4-1.2 3-1.5l2.1-1.5q1.3-0.7 2.5-0.4 0.1 0.2-0.2 0.4l-0.5 0.1q-0.8 0.1-1.8 0.9-1.6 1.3-1.8 1.4-0.6 0.3-1.7 0.8-0.2 0.1-0.2 0.1 0.2 0 0.5-0.1 0.9-0.1 2.4-0.1 0.8 0 2.4 0 1.5-1 2.8-2.4 1.1-1.2 1.7-1.6-1.9-1.8-4.4-3-3.1-1.4-6.3-1.6-2.2-0.2-6.4 0.4-3.8 0.5-5.8 0.6-0.2 0.4-0.4 0.8l0.2-0.1q0.7-0.8 1.1-0.6l-1.4 1.7q-1.4 1.8-1.9 2.9-0.2 0.5-0.6 1.6-0.5 0.8-1.1 1.3h-0.2q0.3-1.3 0.7-2.3-0.3 0.5-0.5 1-0.2 0.4-0.4 0.7-0.4 0.2-0.7 0 0-0.7 0.6-1.7 0.5-0.9 1.5-2.2 1.1-1.4 1.7-2.1 0.7-0.8 1.2-1-0.3 0-0.5 0-2.2-0.1-6.3-1.1-2.9-0.8-6.7-2.1-8.1-2.8-12.8-2zm2.8 4l-0.1-0.3q0.4-0.1 1.2-0.6 0.3-0.1 1.2-0.3 0.8-0.1 1.2-0.2l0.2 0.4-1.3 0.5q-0.3 0.2-1.2 0.3-0.9 0.1-1.2 0.2zm-0.6-1.4q0.1 0.6-0.9 0.7-1.9 0.3-4.8 2-5.2 3.3-6.6 7.2-0.4 1.1-0.5 2.5 0 1-0.3 1.1-0.5-2.3 0.3-4.3 0.5-1.5 1.9-3.3 2.1-2.6 4.9-4.2 2.9-1.6 6-1.7zm56-86.8q0.1 0 0.1-0.1-0.2-0.2-0.3-0.4h-0.7l-3.3-2.8q-1.2-1-1.7-1.2-0.6-0.3-2.1-0.5-4.9-0.5-10-0.1-1.7 0.1-2.9 0.4-1.1 0.3-3.6 1.8-1.8 1-2.5 2.1-0.3 0.5-0.6 1.5-0.3 1.1-0.6 1.5-0.2 0.5-0.9 1.5-0.5 0.8-0.4 2 0 0.7 0.5 1.7l0.9 2.6h-0.3q0.2 0.4 0.5 0.8 0.1 0 0.2 0.1 0 0.1-0.1 0.2 0.1 0 0.2-0.1 0.1 0 0.1 0h0.1l0.4-0.1v0.1q0.1 0 0.1 0-0.1-0.7-0.4-1.7-0.6-1.1-0.9-1.7-0.9-2.3-0.1-3.6 0.2-0.3 0.8-0.9 0.4-0.5 0.6-0.8 0.2-0.5 0.3-1.4 0.1-1 0.2-1.4 0.6-1.9 4.2-2.7 4.9-1 9.8-1 4.4-0.1 6.7 1.4 1 0.8 1.3 1.6 0.1-0.1 0.1-0.3 0.6 0.2 1 0.9 0.7 1.3 0.6 2.8-0.1 1.5-1 2.7-0.2 0.3-1.2 1.3l-1.1 1.2q0.2 0 0.3 0.1 1.2-0.3 2.9-0.4 0.1 0.2 0.1 0.5 0.2-0.1 0.3-0.1 0.1 0 0.1 0 0.2-0.6 0.5-1 0.1-0.2 0.7-0.8 0.6-0.4 0.7-0.8 0.3-0.7 0.1-2-0.2-1.4-0.1-2 0.1-0.4 0.4-0.9z"/><path class="n" d="m131.3 49.8q-0.5 0.3-1.2 0.3-0.2 0-1.2-0.3-2-0.9-2.6-1-0.6-0.1-2.7-0.1 0.3 0.1 0.5 0.1 0.6 0.2 1.2 0.4 1.5 0.7 3.5 2.7l1.6 1.5q0.5 0.4 0.7 0.8l-0.4 0.1q0.1 0.2 0.3 0.4 0.3-0.6 0.4-0.9 0.1-0.4 0.1-1.2 0.1-0.9 0.2-1.2 0.1-0.6 0.4-1.2-0.3-0.1-0.8-0.4zm-0.9-25.5q-0.4-0.7-1.1-1.2 0 0.1 0 0.2 0 0.1 0 0.3-0.1 0.2-0.2 0.5-0.2 0.1-0.3 0.3 0 0.2 0 0.4 0 0.2 0 0.4-0.1 0.2-0.3 0.4-0.1 0.1-0.2 0.4 0 0.1 0 0.4-0.2 0.1-0.4 0.3-0.1 0.2-0.2 0.4-0.1 0.2-0.4 0.3 0 0.3 0 0.4-0.2 0.2-0.4 0.4-0.1 0.2-0.2 0.4-0.2 0.2-0.4 0.4-0.3 0.2-0.6 0.4-0.2 0.2-0.6 0.3-0.8 0.1-1.7 0.2 0.5 0.3 0.8 0.7 0.2 0 0.2 0 0.7 0.4 1 0.8 0.1 0.3 0.3 0.5 0.5 0.6 1 1.1 0.3-0.4 0.5-1-0.4 0-0.3-0.6 0.2-0.9 0.5-1.5l0.3-0.3q0.1-0.3 0.1-1 0.1-0.9 0.8-1.5 0.9-0.5 1.7-0.3 0.2 0.2 0.4 0.2-0.2 0.5 0.2 1.7 0.1-0.6 0.2-0.9 0.2-1.8-0.7-3.5z"/></svg>