
<svg xmlns="http://www.w3.org/2000/svg" version="1.1" xmlns:xlink="http://www.w3.org/1999/xlink" preserveAspectRatio="none" x="0px" y="0px" width="210px" height="200px" viewBox="0 0 210 200">
<defs>
<g id="flash0_ai_04_Fonte__Clip_Group__0_Layer3_0_FILL">
<path fill="#E1C99B" stroke="none" d="
M 125.85 276.75
Q 125.2 276.1 124.35 276.1 123.45 276.1 122.8 276.75 122.15 277.35 122.15 278.25 122.15 279.15 122.8 279.8 123.45 280.4 124.35 280.4 125.2 280.4 125.85 279.8 126.5 279.15 126.5 278.25 126.5 277.35 125.85 276.75
M 81.9 246.3
Q 82 247 82.55 247.4 83.1 247.8 83.8 247.7 93.8 246.35 104.65 255.15 112.9 261.9 118.75 271.55 119.25 272.35 120.15 272.35 120.6 272.35 121 272.1 121.6 271.75 121.75 271.05 121.95 270.4 121.55 269.8 115.3 259.45 106.3 252.3 94.45 242.9 83.3 244.45 82.65 244.55 82.25 245.1 81.85 245.6 81.9 246.3
M 261.25 182.9
Q 261.9 183.5 262.8 183.5 263.65 183.5 264.3 182.9 264.95 182.25 264.95 181.35 264.95 180.45 264.3 179.85 263.65 179.2 262.8 179.2 261.9 179.2 261.25 179.85 260.6 180.45 260.6 181.35 260.6 182.25 261.25 182.9
M 267.55 133
Q 270.35 138.55 271.55 145.2 273.2 154.05 272.55 161.5 271.75 170.4 267.7 173.65 267.15 174.05 267.1 174.75 267 175.45 267.45 176 267.9 176.6 268.75 176.6 269.35 176.6 269.75 176.25 275.45 171.7 276 159.9 276.3 152.9 274.85 144.6 273.5 137.35 270.4 131.35 265.95 122.65 258.6 118.2 258.05 117.85 257.35 118 256.7 118.15 256.35 118.75 256 119.35 256.15 120 256.3 120.65 256.9 121 263.55 125.1 267.55 133
M 206.45 97.5
Q 195 87.4 181.5 64 173.2 49.5 170.75 45.65 164.4 35.5 158.25 28.7 144.7 13.75 125.3 6.15 105.8 -1.5 85.7 0.35 65.6 2.2 47.85 13.2 30.1 24.15 19.5 41.35 10.6 55.85 6.45 75.3 3.1 91.15 2.65 111.9 2.55 115.75 3 148.65 3.25 170.9 1.65 185.3 -0.25 202.85 0.1 209.25 0.8 222.6 7.95 229.9 14.8 236.95 26.8 237.8 36.35 238.45 48.45 235.15 68.1 229.8 69.45 229.55 81.5 227.15 90.4 229.65 98.95 232.05 107.75 239.85 110.15 241.9 122.35 254.65 138.6 271.5 156.4 271.15 175.6 270.75 185.55 249.6 185.95 248.8 192.6 232.1 196.8 221.55 201.35 215.6 206.85 208.3 217.35 201.45 223.45 197.45 236.05 190.15 237.2 189.45 241.25 186.65 260.15 173 261.55 157.1 262.4 147.15 256.3 137.2 251.05 128.55 241.7 121.4 237 117.85 223.85 109.75 212.35 102.65 206.45 97.5 Z"/>
</g>

<g id="Mask_flash0_ai_04_Fonte__Clip_Group__0_2_MASK_0_FILL">
<path fill="#FFFFFF" stroke="none" d="
M 125.85 276.75
Q 125.2 276.1 124.35 276.1 123.45 276.1 122.8 276.75 122.15 277.35 122.15 278.25 122.15 279.15 122.8 279.8 123.45 280.4 124.35 280.4 125.2 280.4 125.85 279.8 126.5 279.15 126.5 278.25 126.5 277.35 125.85 276.75
M 81.9 246.3
Q 82 247 82.55 247.4 83.1 247.8 83.8 247.7 93.8 246.35 104.65 255.15 112.9 261.9 118.75 271.55 119.25 272.35 120.15 272.35 120.6 272.35 121 272.1 121.6 271.75 121.75 271.05 121.95 270.4 121.55 269.8 115.3 259.45 106.3 252.3 94.45 242.9 83.3 244.45 82.65 244.55 82.25 245.1 81.85 245.6 81.9 246.3
M 261.25 182.9
Q 261.9 183.5 262.8 183.5 263.65 183.5 264.3 182.9 264.95 182.25 264.95 181.35 264.95 180.45 264.3 179.85 263.65 179.2 262.8 179.2 261.9 179.2 261.25 179.85 260.6 180.45 260.6 181.35 260.6 182.25 261.25 182.9
M 267.55 133
Q 270.35 138.55 271.55 145.2 273.2 154.05 272.55 161.5 271.75 170.4 267.7 173.65 267.15 174.05 267.1 174.75 267 175.45 267.45 176 267.9 176.6 268.75 176.6 269.35 176.6 269.75 176.25 275.45 171.7 276 159.9 276.3 152.9 274.85 144.6 273.5 137.35 270.4 131.35 265.95 122.65 258.6 118.2 258.05 117.85 257.35 118 256.7 118.15 256.35 118.75 256 119.35 256.15 120 256.3 120.65 256.9 121 263.55 125.1 267.55 133
M 206.45 97.5
Q 195 87.4 181.5 64 173.2 49.5 170.75 45.65 164.4 35.5 158.25 28.7 144.7 13.75 125.3 6.15 105.8 -1.5 85.7 0.35 65.6 2.2 47.85 13.2 30.1 24.15 19.5 41.35 10.6 55.85 6.45 75.3 3.1 91.15 2.65 111.9 2.55 115.75 3 148.65 3.25 170.9 1.65 185.3 -0.25 202.85 0.1 209.25 0.8 222.6 7.95 229.9 14.8 236.95 26.8 237.8 36.35 238.45 48.45 235.15 68.1 229.8 69.45 229.55 81.5 227.15 90.4 229.65 98.95 232.05 107.75 239.85 110.15 241.9 122.35 254.65 138.6 271.5 156.4 271.15 175.6 270.75 185.55 249.6 185.95 248.8 192.6 232.1 196.8 221.55 201.35 215.6 206.85 208.3 217.35 201.45 223.45 197.45 236.05 190.15 237.2 189.45 241.25 186.65 260.15 173 261.55 157.1 262.4 147.15 256.3 137.2 251.05 128.55 241.7 121.4 237 117.85 223.85 109.75 212.35 102.65 206.45 97.5 Z"/>
</g>

<g id="Layer1_1_FILL">
<path fill="#47B5C3" stroke="none" d="
M 37.95 195.15
Q 37.6 196 37.45 197.3
L 36.9 199.9
Q 95 199.95 153 200 153.05 199.95 153.05 199.9 152.95 199.4 152.95 198.8 152.9 196.5 152.85 196.15 152.75 195.4 152.4 194.4 151.9 193.25 151.7 192.65 151.2 190.95 150.8 186.95 150.55 183.3 149.85 181.45 149.4 180.45 148.6 179.05 148.55 179 148.55 178.95 147.4 179.95 146.65 180.45 143.6 182.25 142.2 183.3
L 141 184.15
Q 140.05 184.55 139.6 184.85 139.15 185.05 138.65 185.5 138.05 186.1 137.75 186.35 137.55 186.55 135.85 187.5 134.6 188.25 132.25 189.75 130.95 190.65 130 191.3 129.95 191.4 129.85 191.55 129.2 192.55 128.65 193.3 127.45 194.75 126.2 195.45 124.9 196.1 123.1 196.3 122.35 196.35 121.25 196.35 110.4 197.95 103.05 198.3 91.85 198.85 82.8 197.15 76.85 196.1 69.55 193.7 57.05 189.35 45.65 182.25 45.05 181.85 44.8 181.25 44.7 181 44.6 180.85
L 44.55 180.75
Q 44.15 180.55 43.8 180.65 43.45 181.15 43.6 181.95 43.7 182.45 43.85 183.4 44.1 185.4 42.8 187.65 42.4 188.45 41.6 189.55 40.7 190.75 40.3 191.35
L 38.75 193.7
Q 38 194.95 37.95 195.15 Z"/>

<path fill="#7B5A53" stroke="none" d="
M 70.3 42.25
Q 70.35 42.85 70.55 43.35 70.7 43.85 71.35 44.75 73.2 47.05 74.9 48.15 75.45 48.4 75.5 48.7 76.6 48.35 77.35 47.7 77.55 47.45 77.9 47.2 75.7 46.45 73.95 45.4 71.7 44.1 70.3 42.25
M 68.65 33.95
Q 68.65 34.8 68.75 35.6 68.95 37.3 69.25 38.05 70.45 41.9 74.5 44.55 76.1 45.55 78.65 46.55 79.95 45.3 82.3 43.05 79.35 42.9 73.45 38.4 70.2 36 68.65 33.95
M 74.15 2.8
Q 74.35 1.75 74.95 0 71.7 0 68.3 0 67.95 1.7 67.05 3.65 65.2 8 64.85 9.6 64.85 9.7 64.8 9.85 64.6 11.35 64.65 13.75 64.65 16.8 64.55 17.85 64.35 20.5 62.7 25.25 62.15 26.65 61.7 27.8 60.95 29.45 60.3 30.7 60.1 31.2 60.05 31.45 60.05 31.65 59.35 34.9 59.25 35.65 59.15 36.5 59.3 36.3 59.45 36.35 59.9 36.4 59.65 37.2 59.4 38.15 58.85 39.85 58.7 41.7 58.7 43.75 58.7 43.85 59.95 48.85 60.8 51.45 61.95 53.55 64.8 56.5 68.85 58.05 69.25 58.15 69.65 58.3 72.6 59.15 75.6 59.25 71.95 58.45 69.4 56.25 68.05 55.1 67 53.55 66.75 53.2 66.5 52.8 65.85 52.25 65.3 51.6 64.7 50.9 64.25 50.15 62.65 47.35 62.4 43.4 62.25 40.4 63.3 34.6 63.3 34.3 63.5 34.15 63.6 34.1 63.7 34.2 63.9 34.25 63.8 34.35
L 63.2 40.05
Q 63.05 42.45 63.15 44.15 63.25 45.3 63.45 46.4 63.5 45.4 63.8 45.2 63.8 45.45 64.2 45.45 64.55 45.8 65.85 47.6 67.8 49.2 72 49.2 73.9 49.2 75.3 48.8 72.65 47.95 70.5 44.7 69.85 43.85 69.65 42.95 69.5 42.4 69.6 41.35 68.9 40.3 68.55 39.15 68.2 38.1 67.9 36.05 67.65 34.15 67.65 32.45 67.65 26.4 70.15 21.6 70.35 21.35 70.5 21.15 70.8 20.7 71.1 20.4 71.6 20.65 71.15 21.3 71 21.65 70.85 22.1 71.25 23.1 72 24.3 73.3 26.55 74.6 27.8 74.3 27.25 74 26.75 73.1 25.6 72.65 24.85 71 21.45 71 15.85 71 11.25 72 8.75 72.35 7.85 73.9 4.95 73.9 4.9 73.9 4.85
L 74.15 2.8
M 140.25 0.5
L 140.25 0.1
Q 136.1 0.1 131.95 0.1 130.55 0.1 129.1 0.1 129.2 0.3 129.4 0.55
L 129.95 1.8 130.8 4.6
Q 131.1 3.55 132.2 2.6 132.65 2.15 133.2 2 133.35 1.9 133.55 1.85 134.5 1.65 134.95 2.25 135.05 2.35 135.3 3.05
L 135.85 5.1
Q 136.1 6.65 136.2 8.75 136.3 9.5 136.3 10.2 136.3 17.2 132.8 23.95 130.65 28.2 128.45 30.4
L 128.45 30.7
Q 130.4 30.45 133.5 29 134.9 26.75 136.65 23.7 137.2 23 137.5 23.3
L 134.5 28.55
Q 136.55 27.4 137.4 26.65 136.9 27.75 136.7 30.4 136.6 32 136.2 33.3 136.2 34.55 135.7 35.4
L 133.85 38 131.15 40.75
Q 133.05 40.7 134.75 39.6 136.15 38.7 137.55 36.8 138.85 35 139.65 34.45 139.65 35.55 138.75 36.9 138.45 37.45 138.1 37.85 139.05 37.6 140.55 37.35 141.85 37.2 142.35 37.55 142.6 37.75 142.85 38.2 143.1 38.8 143.3 39 143.9 39.6 145.05 39.5 145.3 39.5 146.9 39.1 148.15 38.7 149.45 38.65 150 38.65 150.35 38.7 150.2 38.45 150.05 38.25 149.7 38 149.15 37.9 148.55 37.85 148.2 37.75 147.65 37.55 146.9 37 146.2 36.6 145.65 36.1 144.65 34.95 144.4 32.85 144.45 30.5 144.45 29.35 144.45 28.05 144.2 27.3 143.9 26.65 143.85 26.3 143.9 25.3 143.75 24.85 143.65 24.15 142.7 23.5 142.55 26.25 142.2 27.75
L 141.8 27.65
Q 141.7 25.2 141.65 22.75 141.3 22.45 141.25 22.2 141.15 21.9 141.4 21.55 141.45 21.5 141.55 21.45 141.4 15.7 141.45 9.8 141.55 5.05 140.85 2.6 140.25 0.8 140.25 0.5 Z"/>

<path fill="#6D584F" stroke="none" d="
M 58.85 39.85
Q 58.6 40.35 58.4 41 57.7 43.3 57.75 45 57.75 48.3 60.1 51.45 60.9 52.55 61.95 53.55 60.8 51.45 59.95 48.85 58.7 43.85 58.7 43.75 58.7 41.7 58.85 39.85
M 59.35 34.9
Q 60.05 31.65 60.05 31.45 60.1 31.2 60.3 30.7 59.75 31.6 59.3 32.25 58.5 33.25 57.05 34.6
L 54.7 36.8
Q 51.95 39.65 51.75 42.4 51.75 42.5 51.75 42.6
L 54.45 41.25
Q 56.25 40.4 57.3 40.5 57.95 38.95 58.95 36.8 59.05 36.6 59.15 36.5 59.25 35.65 59.35 34.9 Z"/>

<path fill="#3B3D35" stroke="none" d="
M 72.45 16.65
Q 72.7 16.2 72.55 15.95 72.1 15.8 71.9 16.45 71.35 17.8 71.35 19.8 71.35 20.65 71.6 21.4
L 71.9 22.5
Q 72.4 23.8 74 26.75 74.3 27.25 74.6 27.8 74.6 27.85 74.65 27.95 75.75 29.75 76.3 30.4 77.7 32.05 79.75 32.9 79.75 32.55 79 32.05 77.7 31.3 76.8 30.15 76.4 29.75 75.55 28.2 73.5 24.8 72.65 22.7
L 72.25 21.45
Q 72.25 21.4 72.1 19.95 72.1 17.7 72.45 16.65
M 75.65 0
Q 75.25 0 74.95 0 74.35 1.75 74.15 2.8
L 73.9 4.85
Q 73.9 4.9 73.9 4.95 73.65 8.65 73.75 14.3 73.75 17.9 74.15 19.7 74.55 22 75.65 23.95
L 76 23.8
Q 74.75 21.25 74.5 17.65 74.45 16.6 74.45 11.3 74.45 7 74.45 6.8 74.5 4.9 74.75 3.4 74.85 2.85 74.95 2.3 75.15 1.5 75.65 0
M 83.15 48.25
Q 82.9 47.9 82.35 47.75 80.3 47.15 78.65 46.55 76.1 45.55 74.5 44.55 70.45 41.9 69.25 38.05 68.95 37.3 68.75 35.6 68.65 34.8 68.65 33.95 68.35 27.75 70.85 22.1 71 21.65 71.15 21.3 71.6 20.65 71.1 20.4 70.8 20.7 70.5 21.15 70.35 21.35 70.15 21.6 67.65 26.4 67.65 32.45 67.65 34.15 67.9 36.05 68.2 38.1 68.55 39.15 68.9 40.3 69.6 41.35 69.5 42.4 69.65 42.95 69.85 43.85 70.5 44.7 72.65 47.95 75.3 48.8 75.35 48.85 75.5 48.85 75.5 48.8 75.5 48.7 75.45 48.4 74.9 48.15 73.2 47.05 71.35 44.75 70.7 43.85 70.55 43.35 70.35 42.85 70.3 42.25 71.7 44.1 73.95 45.4 75.7 46.45 77.9 47.2 79.75 47.8 81.95 48.2 82.6 48.4 83.15 48.25
M 98.15 41.55
Q 97.95 41.95 98.6 42.45 101.5 44.85 103.75 45.65 106.95 46.8 109.65 45.5 110.8 44.85 112 43.5 113.1 42.25 114.3 40.55 113.45 40.9 112.2 41.85 111.8 42.15 111.35 42.6 110.1 43.75 109.1 44.25 108.65 44.45 108.35 44.55 106.35 45.35 103.55 44.2 102.05 43.5 99.3 41.6 98.4 41.05 98.15 41.55
M 97.65 38.1
Q 97.9 38.35 98.35 38.45 100.2 38.7 101.9 39.15
L 101.9 39.35
Q 103.1 39.55 104.15 40.1 105.45 40.65 107.25 40.75 108.5 40.5 108.6 39.25 109.35 39.1 109.95 38.85 110.9 38.35 111.65 38.65 112.75 38.85 113.55 38.4 113.9 38.15 114.2 37.85 113.95 37.7 113.7 37.65 113.05 37.4 112.4 37.35 111.45 37.2 110.35 37.6 108.25 38.1 106.3 38.05 102.9 37.65 99.35 37.5 98.6 37.3 97.8 37.7 97.65 37.75 97.55 37.85 97.55 37.95 97.65 38.1
M 100.7 27.5
Q 100.45 27.95 100.3 28.45 99.85 28.85 99.2 29.45 97.65 31.15 97 32 96.35 33 96 33.95 95.8 34.3 95.75 34.7 95.7 34.85 95.65 35.05 96.1 35.05 96.45 34.25 96.45 34.15 96.5 34.05 96.7 33.35 97.6 32.3 98.9 30.75 100.05 29.7 99.95 31.05 100.75 31.75 101.15 32.05 101.75 32.2 102.15 32.3 102.9 32.4 103.65 32.55 105.05 32.9 106.25 33.15 107.05 33.05 107.85 32.95 108.8 32.55 108.95 32.5 109.15 32.4 110.7 31.65 111.25 30.9 112.2 29.6 111.35 26.55 111.25 26.55 111.25 26.6 110.6 26.8 110.6 27.9 110.6 28.1 110.6 28.35 110.6 28.55 110.6 28.75 110.55 29.4 110.5 29.6 110.35 29.9 109.9 30.3 109.65 30.45 109.3 30.7 107.5 31.7 106.55 31.75 105.75 31.8 104.6 31.45
L 102.45 30.9
Q 101.6 30.65 101.4 30.3 101.25 30.1 101.25 29.8 101.25 29.3 101.45 28.75 101.6 28.2 101.65 27.8
L 101.85 27.6 101.7 27.45
Q 101.65 27.25 101.6 27.15 101.25 26.75 100.7 27.5
M 88.55 14.05
L 87.75 14.65
Q 89.172265625 16.4646484375 91.25 17.8 91.3087890625 17.82421875 91.35 17.85 91.95 18.35 92.6 18.6 96.071484375 18.990625 98.5 16.8 98.8998046875 16.48984375 99.25 16.1 100.15 15.2 100.15 14.2 99.85 14.2 99.6 14.25 97.15 15.95 94.05 16.1 90.85 16.45 88.55 14.05
M 101.45 9.7
Q 101.4 9.6 101.25 9.5 100.9 9.25 100.1 9.25
L 97.15 9.3
Q 94.15 9.45 91.75 9.4 91.15 9.4 90.85 9.35
L 89.3 9.1 88.3 9.1
Q 86.15 9.1 84.85 9.55 84.45 9.75 84.15 10
L 84.15 10.05
Q 83.85 10.5 84.05 10.85 84.3 10.95 84.7 10.75 84.9 10.65 85.3 10.35 85.7744140625 10.16015625 86.55 10.15 86.606640625 10.15 86.65 10.15 88.9 10.25 89.95 10.6
L 90.45 10.75 90.7 10.8 97.45 10.95 100.15 10.55 100.75 10.5
Q 101.45 10.35 101.5 9.9 101.5 9.8 101.45 9.7
M 109.85 10.25
Q 109.5 10.6 109.2 11.25 109.1 11.45 108.65 13.05 107.6 17.9 107.8 21.45 107.85 22.55 108.05 23.55
L 108.2 23.85
Q 108.45 24 108.45 23.75 108.4 22.2 108.5 20.6 108.65 17.1 109.6 13.2 110.05 11.25 110.9 10.55 110.8 10.2 110.5 10.15 110.2 10.1 109.85 10.25
M 121.7 16.3
Q 123.2 15.75 124 14.25
L 124 14.1 124 13.4
Q 123.5 13.65 122.9 13.85 121.9 14.4 120.85 14.65 118.7 15.3 116.55 15 115.5 14.85 114.65 14.4 113 13.45 112.3 14.6
L 112.65 15.75 114.4 16.05
Q 116.1 17.7 118.45 17.6 119.05 17.55 119.6 17.4 119.9 17.25 120.2 17.05 120.9 16.5 121.7 16.3
M 126.5 8.75
Q 126.05 7.9 125.2 7.2 124.2 6.3 122.85 6.05 121.6 5.8 119.85 6.1 119.65 6.15 116.85 6.9 116.45 7 116.05 7.1 114.5 7.5 113.25 7.45 112.6 7.4 112 7.25 111.5 7.05 111.2 7.15 110.9 7.3 110.9 7.7 110.9 7.85 110.95 7.95 110.95 8.15 111.15 8.35 111.6 8.7 112.45 8.7 114.7 8.9 116.1 8.7 117.3 8.5 119.7 7.7 121.9 7.15 123.35 7.65 123.75 7.85 125.05 8.6 125.8 9.1 126.4 9.3 126.55 9.3 126.8 9.35 126.75 9.25 126.75 9.2 126.6 8.95 126.5 8.75
M 135.85 5.1
L 135.3 3.05
Q 135.05 2.35 134.95 2.25 134.5 1.65 133.55 1.85 133.35 1.9 133.2 2 132.65 2.15 132.2 2.6 131.1 3.55 130.8 4.6
L 129.95 1.8 129.4 0.55
Q 129.2 0.3 129.1 0.1 128.5 0.1 127.9 0.1 128.8 1.4 129.2 2.95
L 129.55 4.2
Q 129.9 5.35 130.35 6.2 130.6 6.7 130.9 6.55 130.95 6.25 131 5.95 131.2 5.75 131.45 4.85 132.1 3.25 133.8 2.95
L 133.85 2.95
Q 134.05 3.2 134.2 3.65 134.25 3.95 134.4 4.35
L 134.7 6.2
Q 134.75 6.7 134.85 7.15 134.8 7.15 134.75 7.1 133.95 7.7 133.35 9.4
L 132.65 11.4
Q 132.45 12.25 132.2 14.25 132.15 14.75 132.1 15.3 131.95 15.35 131.75 15.4 131.25 15.55 131.1 15.9
L 131.25 16.05 131.25 16.1
Q 131.1 16.3 131.2 16.65 131.2 17.55 130.8 19.35 130.4 20.85 129.95 22.35
L 129.9 22.35 129.35 22.7
Q 129 23.1 129.15 23.4 129.2 23.6 129.55 23.7 128.45 27.1 127 29.7 126.8 30.05 126.5 30.45
L 124.85 32.95
Q 123.9 34.4 123.4 35.45 123.5 35.7 123.85 35.6 124 35.55 124.25 35.25 126.15 32.7 127.1 31.3 127.15 31.2 127.2 31.1 129 28.1 130.45 23.55 131.35 23.05 132.2 22.25 132.75 21.7 133.5 20.7
L 134.55 19
Q 135 18.15 135.45 16.35 135.6 15.7 135.8 15.1
L 135.85 15.1 135.85 14.95
Q 136.05 13.95 136.1 13.35 136.2 12.25 136.2 10.05 136.2 9.4 136.2 8.75 136.1 6.65 135.85 5.1
M 134.8 8.05
Q 134.85 8.15 134.9 8.25 134.95 10 134.75 12.2 134.6 13.65 134.4 14.85 133.6 14.9 132.85 15.15 132.85 14.9 132.85 14.75 133.05 12.5 133.45 11.4 133.9 10.05 134.1 9.45 134.5 8.3 134.8 8.05
M 134.25 15.35
Q 133.9 16.8 133.45 17.8 133.05 18.6 132.55 19.5 132.55 17.9 132.8 15.7 133.55 15.5 134.25 15.35
M 175.8 59.7
Q 174.6 56.1 173.75 54.4 172.5 51.5 170.9 49.55 170.15 48.55 168.65 47.25 165.7 44.65 161.75 43.35 158.2 42.15 154.6 42.25 154.6 42.2 154.65 42.15 154.6 41.9 154.3 41.65
L 152.1 39.9 151.95 39.25
Q 151.45 37.15 150.3 36.7 150.05 36.6 149.5 36.55 148.9 36.45 148.7 36.4 148.35 36.3 147.65 35.75 146.9 35.15 146.6 34.8 146.25 34.3 146 33.3 145.75 32.2 145.75 31.55 145.8 30 145.85 29.15 145.95 27.7 145.55 26.8
L 145.1 25.65
Q 145.15 24.85 145.05 24.35 144.85 23.6 143.9 22.9 143.1 22.4 142.7 22.05 142.7 21.65 142.7 21.25
L 142.75 8.45
Q 142.75 6.4 142.65 5.35 142.5 4.05 142.2 2.55
L 141.65 0.1
Q 140.95 0.1 140.25 0.1
L 140.25 0.5
Q 140.25 0.8 140.85 2.6 141.55 5.05 141.45 9.8 141.4 15.7 141.55 21.45 141.45 21.5 141.4 21.55 141.15 21.9 141.25 22.2 141.3 22.45 141.65 22.75 141.7 25.2 141.8 27.65
L 142.2 27.75
Q 142.55 26.25 142.7 23.5 143.65 24.15 143.75 24.85 143.9 25.3 143.85 26.3 143.9 26.65 144.2 27.3 144.45 28.05 144.45 29.35 144.45 30.5 144.4 32.85 144.65 34.95 145.65 36.1 146.2 36.6 146.9 37 147.65 37.55 148.2 37.75 148.55 37.85 149.15 37.9 149.7 38 150.05 38.25 150.2 38.45 150.35 38.7 150 38.65 149.45 38.65 148.15 38.7 146.9 39.1 145.3 39.5 145.05 39.5 143.9 39.6 143.3 39 143.1 38.8 142.85 38.2 142.6 37.75 142.35 37.55 141.85 37.2 140.55 37.35 139.05 37.6 138.1 37.85 138.45 37.45 138.75 36.9 139.65 35.55 139.65 34.45 138.85 35 137.55 36.8 136.15 38.7 134.75 39.6 133.05 40.7 131.15 40.75
L 133.85 38 135.7 35.4
Q 136.2 34.55 136.2 33.3 135.6 33.7 135.05 34.6 133.4 36.85 132 38.25 130.7 39.85 128.9 41.6 127 43.5 125.95 43.95 125.05 44.3 124.15 44.2 123.25 44.05 122.55 43.5 123.4 42.15 124.05 40.8 129.55 36.55 134.3 28.75
L 134.5 28.55 137.5 23.3
Q 137.2 23 136.65 23.7 134.9 26.75 133.5 29 132.25 31 131.25 32.35 129.05 35.35 126.8 37.65 125.65 38.9 124.55 39.9 126.75 35.2 127.9 30.05 127.4 31.3 126.85 32.5 125.9 34.45 124.9 36.45 124.8 36.6 124.7 36.85 124 38 123.35 39.2 117.35 49.35 106.6 49.45 103.4 49.5 101 48.15 91.3 42.15 85.75 31.7
L 86.9 34.7
Q 86.1 33.6 85.1 32.65 85 32.35 84.95 31.95 84.65 29.65 84.4 28.45 84 26.4 82.6 21.7 82.55 21.55 82.5 21.4 82 19.4 81.5 17.4 79.2 8.45 81.25 0 79.5 0 77.8 0 74.5 9.1 76.45 19.15 76.75 20.35 77.1 21.15
L 77.4 8.1 78.95 7.35 79.2 9.55 79.6 7.35 79.75 7.25
Q 79.6 14.3 81.55 21.2 81.55 21.3 81.6 21.4 83 26.15 83.35 27.4 83.75 29.1 84.4 32.15 84.3 32.05 84.25 32.05 83.85 31.95 83.7 32.3 83.6 32.7 84.1 33.1
L 84.7 33.65
Q 84.75 34 84.8 34.3 85.8 38.25 87.45 40.7 87.75 40.55 87.5 40.1 86.25 37.35 85.45 34.4 86.1 35 86.65 35.65 86.6 35.65 86.55 35.7 86.15 35.85 86.45 36.45 86.55 36.55 87.1 36.95 88.15 37.7 88.9 39.35 89.15 39.9 89.95 42.25 90.25 43.05 90.5 43.7 90.45 43.7 90.4 43.7 90.7 44.45 91.1 45.25 91.15 45.5 91.2 45.65 91.6 47.1 91.65 49.5 91.8 52.35 91.45 55 91.35 55.7 91.1 56.35 90.45 57.85 89.7 59.1
L 87.75 61.4 88.85 58.95
Q 88.95 58.55 89.1 58.05 89.65 56.25 89.75 55.5 89.85 54.35 89.65 52.65 89.25 49.75 89.25 49.7 89.2 48.95 89.2 46.95 89.2 45.2 89.05 44.2
L 88.7 44.2
Q 88.35 48.25 88.95 52.55
L 89.1 54.6
Q 89.1 55.4 88.7 56.85 88.35 58.1 88.05 58.95
L 85.95 62.7 86.65 59
Q 86.7 57.85 86.5 56.55 86.4 55.85 86.35 55.1 86.25 53 84.9 51.3
L 85.15 50.35 84.1 50.35 83.95 51.1
Q 83.35 51.65 82.7 52.1 80 54.2 76.9 54.95 73.4 55.7 69.8 54.95 69.65 54.95 69.5 54.9
L 66.55 52.55 66.55 52.65
Q 64.25 49.85 63.45 46.4 63.25 45.3 63.15 44.15 63.05 42.45 63.2 40.05
L 63.8 34.35
Q 63.9 34.25 63.7 34.2 63.6 34.1 63.5 34.15 63.3 34.3 63.3 34.6 62.25 40.4 62.4 43.4 62.65 47.35 64.25 50.15 64.7 50.9 65.3 51.6 65.85 52.25 66.5 52.8 66.75 53.2 67 53.55 68.05 55.1 69.4 56.25 71.95 58.45 75.6 59.25 72.6 59.15 69.65 58.3 69.25 58.15 68.85 58.05 64.8 56.5 61.95 53.55 60.9 52.55 60.1 51.45 57.75 48.3 57.75 45 57.7 43.3 58.4 41 58.6 40.35 58.85 39.85 59.4 38.15 59.65 37.2 59.9 36.4 59.45 36.35 59.3 36.3 59.15 36.5 59.05 36.6 58.95 36.8 57.95 38.95 57.3 40.5 56.25 40.4 54.45 41.25
L 51.75 42.6
Q 51.75 42.5 51.75 42.4 51.95 39.65 54.7 36.8
L 57.05 34.6
Q 58.5 33.25 59.3 32.25 59.75 31.6 60.3 30.7 60.95 29.45 61.7 27.8 62.15 26.65 62.7 25.25 64.35 20.5 64.55 17.85 64.65 16.8 64.65 13.75 64.6 11.35 64.8 9.85 64.85 9.7 64.85 9.6 65.2 8 67.05 3.65 67.95 1.7 68.3 0 67.75 0 67.15 0 66.55 1.65 65.55 3.7 63.65 7.65 63.35 9.9 63.25 10.7 63.25 11.9 63.25 12.45 63.25 13.15 63.3 15.4 63.25 16.35 63.1 19.8 60.9 25.4 59.45 29.4 58.25 31.1 57.35 32.25 55.65 33.95 53.65 35.85 53 36.65 51.6 38.2 51 40.1 50.55 41.65 50.9 43
L 50.35 43.3
Q 42.7 47.2 39.25 50.2 33.5 54.95 32.15 60.9 32 61.5 31.45 65.2 30.3 73.95 25.8 79.25 24.85 80.35 24.4 81 23.6 81.95 23.4 82.8 23.2 83.7 23.3 84.95 23.3 85 23.3 85.05
L 23.45 88.15
Q 23.45 89.1 24 89.1 24.35 89.1 24.45 88.85 24.55 88.9 24.65 89 24.45 89.25 24.25 89.6 24.05 90.1 23.8 90.55 23.25 92.05 22.7 93.55 18.1 106.2 14.35 119.2 9.35 136.6 13.3 154.15 13.35 154.15 13.4 154.2 14.1 155.65 16.7 156.95
L 27.85 162.65
Q 38.55 168.1 45.75 171.3
L 45.75 171.6
Q 45.8 172.5 44.8 173.85 43.65 175.3 43.45 176.1 43.4 176.3 43.45 177.55 43.45 178.45 43.1 178.9
L 42.5 179.45
Q 42.1 180.05 42.1 181 42.1 181.4 42.3 182.8 42.4 184 42.3 184.7 42.25 185.25 41.8 186.2 41.2 187.55 39.15 190.35 37.2 193 36.55 194.6 36.25 195.5 35.8 197.55 35.45 198.9 35.35 199.9 36.15 199.9 36.9 199.9
L 37.45 197.3
Q 37.6 196 37.95 195.15 38 194.95 38.75 193.7
L 40.3 191.35
Q 40.7 190.75 41.6 189.55 42.4 188.45 42.8 187.65 44.1 185.4 43.85 183.4 43.7 182.45 43.6 181.95 43.45 181.15 43.8 180.65 44.15 180.55 44.55 180.75
L 44.6 180.85
Q 44.7 181 44.8 181.25 45.05 181.85 45.65 182.25 57.05 189.35 69.55 193.7 76.85 196.1 82.8 197.15 91.85 198.85 103.05 198.3 110.4 197.95 121.25 196.35 122.35 196.35 123.1 196.3 124.9 196.1 126.2 195.45 127.45 194.75 128.65 193.3 129.2 192.55 129.85 191.55 129.95 191.4 130 191.3 130.95 190.65 132.25 189.75 134.6 188.25 135.85 187.5 137.55 186.55 137.75 186.35 138.05 186.1 138.65 185.5 139.15 185.05 139.6 184.85 140.05 184.55 141 184.15
L 142.2 183.3
Q 143.6 182.25 146.65 180.45 147.4 179.95 148.55 178.95 148.55 179 148.6 179.05 149.4 180.45 149.85 181.45 150.55 183.3 150.8 186.95 151.2 190.95 151.7 192.65 151.9 193.25 152.4 194.4 152.75 195.4 152.85 196.15 152.9 196.5 152.95 198.8 152.95 199.4 153.05 199.9 153.05 199.95 153 200 153.5 200 154 200
L 154.3 199.3
Q 154.8 198.25 154.8 197.6 154.65 197.6 154.45 197.9 154.2 198.25 154 198.55 154.15 196.55 153.7 194.6 153.2 193 153 192.1 152.65 190.75 152.25 186.05 151.9 182.25 150.85 180.15 150.1 178.9 149.5 177.9 149.7 177.65 149.45 177.5 149.35 177.4 149.2 177.4 149 177.1 148.85 176.8 147.65 174.9 147.55 173.35 147.55 172.4 147.85 171.9 148.3 171.3 148.4 170.95 148.65 170.4 148 169.15 147.15 167.45 147.35 165.6 147.6 163.45 147.55 163.1 147.4 161.95 146 160.55 159.95 158.3 173.55 154.6 177.05 153.7 179.7 152.85 183.25 151.55 186.6 149.65 187.4 149.25 188.15 148.85 194.1 145.9 196.6 141.5 199.6 136.2 197.8 128.75 196.7 124.3 196.05 119.95 194 106.35 188.05 94.05 187.15 92.1 186.1 90.2 185.95 89.95 185.8 89.6 185.85 89.55 185.9 89.45 185.8 89.4 185.7 89.4 186.1 88.85 186.25 88.6 186.4 88.15 186.4 87.3
L 186.4 85.35
Q 186.4 84.5 186.25 84.15 186.1 83.85 185.6 83.45 185.1 82.95 184.95 82.7 184.6 81.75 184.3 81.3
L 183.9 80.55
Q 183.6 80.1 183.25 78.65
L 182.4 75.25
Q 182.4 75.2 182.1 73.45 182 72.4 181.65 71.8 181.5 71.45 181.2 71.4 181.3 67.15 180.45 64.85 179.6 62.75 178.15 62.8 177.45 62.8 177.05 63.4 176.45 61.55 175.8 59.7
M 178.5 63.9
Q 179.6 65.4 179.9 67.7 180.15 69.15 180.15 71.8
L 180.25 79.45
Q 180.45 79.65 180.7 79.35 180.9 79.1 180.9 78.8
L 181.05 74.6 181.1 75.15
Q 181.1 75.85 181.25 76.45
L 181.6 77.35 182.1 80.3
Q 182.3 81.05 183.1 82.3 183.65 83.55 183.85 83.75 184.1 84.05 184.7 84.6 185.05 85.3 185.05 86.4 185.05 88.05 184.7 88.65
L 184.6 88.8
Q 184.3 88.9 184 89.05 183.45 89.4 183.55 89.6
L 182.1 90.75
Q 181.2 91.4 179.95 91.9 174.35 94.5 168.75 95.75 167.65 95.95 166.65 96.15 166.2896484375 96.2181640625 165.95 96.25
L 165 96.4
Q 164.378515625 96.5263671875 164 96.55 161.4 96.75 157.75 96 157 92.4 155.9 90.7 155.35 89.95 155.1 89.5 154.65 88.8 154.6 88.2 154.6 87.8 154.55 87.7
L 155.5 86.6
Q 156.25 85.6 156 84.8 155.7 85 155.3 85.55 154.8 86.25 154.7 86.35 153.8 87 153.45 87.45
L 153.05 88.05
Q 153.2 87.4 153.45 86.55
L 154.05 84.8 154.1 84.55 156.25 79.95
Q 158.3 76.1 159.15 74.85 160.15 73.3 160.25 72.65 160.1 72.55 159.8 72.8 156.6 76.8 154.25 81.35
L 152.35 86.9 152.15 87.35
Q 151.9 88.1 151.85 88.75
L 151.65 89.15
Q 151.5 89.6 151.6 89.65 150.8 91.4 150.05 94.05 148.85 98.05 148.25 99.5
L 147.05 102.25
Q 145.85 105.55 146.2 112.45 146.55 119.5 145.35 122.7 145.15 123.35 144.1 125.45 142.5 129.15 141.4 132.4 141.35 132.55 141.3 132.7 140.4 135.3 140.3 137.1 140.15 138.45 140.35 141.2 140.4 141.7 140.6 141.9 136.35 142.95 131.3 143.8 131.1 143.85 130.9 143.9
L 129.75 143.9
Q 131 143.4 132.05 142.75 131.75 142.3 130.95 142.6 128.45 143.2 125.15 143.3 123.05 143.4 119.3 143.25 117.6 143.25 116.45 143 114.75 142.55 113.95 142.3 112.1 142.05 111.2 141.85 109.05 141 107.85 140.95 106.65 140.95 106.05 140.85 105 140.45 104.4 140.35 104.1 140.35 103.4 140.4 102.75 140.45 102.45 140.4 102.5 140.4 102.6 140.35
L 107.3 138.85
Q 106.5 138.4 104.95 138.75 103.7 138.95 101.6 139.45 99.2 140 98.2 140.2 97.3 140.35 93.4 140.75 90.4 141.15 88.6 141.7 86.25 142.6400390625 84.9 142.95
L 84.65 143
Q 84.49296875 143.0552734375 84.3 143.05 82.95 143.2 81.55 143.3 77.65 143.5 73.85 142.5 71.3953125 141.785546875 67.95 140.35 65.75 139.5 65.2 138.55 64.9 138.05 64.7 138 64.25 137.8 64.05 138.4 63.95 138.9 64.2 139.2 64.65 140.25 66.55 141.1 69.15 142.45 72.35 143.5 72.411328125 143.523046875 72.45 143.55
L 75.6 144.45 73.4 145.55 73.3 145 72.9 144.75 72.45 145.8
Q 72.55 146.95 72.1 147.85 70.65 151 73.5 152.55
L 71.15 152.35 68.4 151.7 64.9 150.4
Q 62 149.35 60.95 148.15 60.5 147.6 60.25 147.35 59.95 147.1 59.75 147.25 59.5 147.35 59.6 147.95 59.95 149.1 61.2 149.85 62 150.4 63.6 151
L 65.9 151.95 71.25 153.45
Q 70.95 153.45 70.65 153.45
L 63.95 153.6
Q 63.25 153.6 63.4 154.05 68.55 154.35 71.05 154.15 71.4861328125 154.1064453125 71.85 154.05
L 73.35 153.95 73.45 155.3 74.75 156.3 73.95 157.1
Q 73.6314453125 157.6609375 73.4 158.5 72.75 160.7 73.5 161.75 74.15 162.45 74.2 162.65 74.3 163 74.05 163.55 73.8 164.2 73.8 164.45 73.8 164.65 73.85 164.85 70.1 163.85 65.8 161.9 63.25 160.6 61.7 159.6 60.35 158.65 57.75 156.5
L 51.95 151.65 52.05 151.25
Q 52.55 150 53 149.6 53.3 149.35 54.35 149 55.05 148.8 55.2 148.4 55.35 148.15 55.25 147.55 55.1 145.95 55.5 144.25 56.4 143.85 56.6 143.45 56.75 143.2 56.75 142.55 56.65 140.5 56.75 139.85
L 57.25 137.75
Q 58.85 137.45 59.85 136.2 59.75 135.9 59.45 135.8 59.2 135.75 58.95 135.85 58.5 136.1 58.25 136.25 58.2 136.1 57.95 135.35 57.75 134.9 57.75 134.15 57.8 133.8 58.2 132.6 58.6 133.2 58.8 133.7
L 59.4 133.7
Q 59.5 132.7 58.65 131.2 57.75 129.35 57.6 128.7 57.3 127.75 57.65 126.1 57.95 124.25 57.9 123.55 57.5 121.65 57.3 120.8 57.2 120.05 57.1 118.15 57.05 116.35 56.8 115.4
L 56.35 113.8
Q 56.25 112.45 56.2 111.85 56.2 111.15 56 110 55.9 109.25 55.75 108.35
L 55.4 106.1
Q 55.25 103.5 55.25 103.45 55.15 102.45 54.6 100.85 54.35 99.85 54.15 98.9 54.05 98.45 53.95 98.05 53.7 96.65 53.45 95.25 53.45 95.2 53.45 95.15 53.4 94.85 53.35 94.75 53.25 94.65 53.1 94.65 52.8 94.65 52.7 95.1 52.4 95.85 52.55 96.95 52.65 97.6 52.95 98.85
L 53.25 101.1 53.25 101.25 53.95 103.75
Q 54 104.2 54 105 54 105.4 54 105.9 54.05 107 54.4 109.2 54.8 111.35 54.8 112.4 54.8 114.1 54.85 114.45
L 55.3 115.75
Q 55.55 116.5 55.65 118.3 55.65 120.15 55.8 121.05 55.95 121.75 56.3 123.25 56.45 124.1 56.1 126.4 55.8 128.45 56.25 129.5 56.5 130.3 57.4 131.55 57.3 131.6 57.25 131.8 57.2 132 57.15 132.35
L 56.85 132.95
Q 56.7 133.45 56.7 134 56.7 135.25 56.95 135.75 57.1 136.1 57.5 136.6
L 56.75 136.8
Q 56.05 137 55.85 137.5 55.75 137.75 55.7 138.3
L 55.5 138.95
Q 55.3 139.45 55.4 140.15
L 55.4 142.15
Q 55.4 142.6 55.3 142.75 55.2 142.9 54.95 142.95 54.6 143.05 54.5 143.15 54.2 143.35 54.1 144 53.95 145.45 54 146.65 54.1 147.1 53.95 147.35 53.75 147.7 53.25 147.9 51.8 148.5 51.55 148.85 51.2 149.35 51.1 150.15 50.95 150.45 50.9 150.75
L 45.6 146.25
Q 42.5 143.5 40.6 142.25 40.05 141.9 39.55 141.55 37.2 140.1 35.05 139.35
L 34.65 139.3 38.95 130.35
Q 39 130.25 39.05 130.2 40.4 123.45 42.8 117.1 45.15 110.7 48.45 104.65
L 49.7 104.55 51.5 100.85 51.7 99.8 51.9 99.4
Q 52.05 98.95 51.95 98.35 51.95 97.05 52 96.75
L 52.65 93.95
Q 52.7 93.8 52.85 93.4 52.9 93.15 53.1 92.75 54.35 89.45 53.9 86.25 53.9 85.75 53.65 85.65 54.6 82.25 55 80.4
L 55.25 78.9 55.3 72.3
Q 55.3 71.65 55 71.65 54.6 71.65 54.6 72.3
L 54.6 76.35
Q 54.6 78.4 54.55 78.8
L 54.3 80.25
Q 54.1 81.2 53.5 83.45 53.35 77.15 51.95 71 51.55 69.1 50.95 67.25 50.65 70.1 50.9 73 51 74.35 51.3 75.75 50.85 74.8 50.4 73.95 49.2 71.8 47.4 70.3 47.1 70.5 47 70.8 46.9 71.15 46.8 71.5 45.65 75.3 46.65 79.15
L 48.8 83.7
Q 48.9 83.25 48.75 82.95 46.5 77.7 47.5 72.2 47.6 71.65 47.7 71.2 48.2 72.25 48.75 73.3 51.65 79.7 52.7 86.5 52 88.95 51.75 90.55 51.75 91 51.95 91
L 52.2 90.85 50.75 96.15
Q 50.65 96.85 50.65 98.15
L 50.15 100.6 48.85 103.15 48.1 102.9 46.7 101.15
Q 46.5 101 46.25 100.9 45.25 100.3 43.75 98.8 41.95 97.2 41.2 96.65 39.95 95.65 37.1 94.15
L 25.25 87.9
Q 24.85 87.7 24.55 87.7 24.55 86.2 24.55 85.35 24.55 85.3 24.55 85.25 24.65 83.5 25.2 82.4 25.45 82 26.85 80.3 31.45 75 32.95 65.2 33.45 61.85 33.75 60.65 35.15 55.45 40.35 50.95 43.45 48.4 50.35 44.6
L 57.2 40.8
Q 57 41.35 56.85 41.8 56 44.7 56.5 47 56.9 49.65 59.5 52.9 61.6 55.7 64.55 57.5 64.7 57.55 64.85 57.65 65.55 58.1 66.2 58.4 67.35 58.95 68.55 59.4 74.15 61.25 79.85 59.7 80.4 59.5 81.05 59.3
L 80.6 59 81.25 58.6
Q 75.95 59 71.15 56.3 72.55 56.7 73.9 56.55 76.05 56.35 78.15 55.9 81.85 54.95 84.25 52.2 84.55 52.75 84.7 53.3 85.45 56.2 85.35 59.3 85.35 59.4 85.35 59.5 85.3 59.85 85.25 60.2 85 64.35 81.6 67.05 80.2 68.1 78.45 68.7 80.05 69.15 81.55 68.55 81.9 68.4 82.25 68.3
L 87.5 64.7
Q 87.6 65 87.85 65.25 95.2 72.85 106 72.05 109.25 72.1 111.4 71.6 113.65 71.2 117.85 69.25
L 121 67.75
Q 122.3 67.15 123.65 66.5 123.75 66.45 123.85 66.4 131.55 62.05 133.05 54.25 133.2 53.75 133.25 53.3 133.7 50.15 133.2 46.45 133.15 45.9 133.15 44.9 133.15 43.85 132.85 43.25 132.35 42.25 132.2 41.75 133.2 41.6 134.1 41.2 134.25 41.4 134.45 41.65 136.05 44.3 136.05 49.45 136.05 53.6 135.4 56.2
L 134.3 59.55
Q 131.95 65.75 129.95 68.85 130.9 68.45 131.95 66.65 133.9 63.25 135.25 59.3 136.45 55.95 136.65 53.6 136.8 52.5 136.8 51.4 136.9 48.25 136.65 46.35 136.35 43.55 135.2 41.55 135 41.15 134.8 41 134.8 40.95 134.75 40.95 134.7 40.9 134.65 40.9 135 40.7 135.35 40.5 136 40.1 136.6 39.55 136.7 39.55 136.85 39.55
L 137.7 39.25
Q 138.15 39 138.95 38.9 140.4 38.55 141.35 38.65
L 142.45 40.15
Q 142.85 40.65 143.25 40.7 143.6 40.7 143.6 40.9 145.2 41 146 40.9
L 148.75 40.25
Q 149.65 40.05 150.1 40.15 150.45 40.2 150.85 40.5 150.85 40.6 150.9 40.65 151.15 40.95 151.45 41.15 151.6 41.2 151.8 41.2 152.4 41.6 153.1 41.95
L 153.75 42.25
Q 153.35 42.3 153.2 42.55 153.1 42.7 153.2 42.9
L 153.2 42.95
Q 153.25 43.2 153.45 43.25 153.7 43.4 154.25 43.4 159.25 43.35 163.75 45.8 168.35 48.3 171.05 52.45 172.85 55.3 174.7 61.2 177.2 68.8 177.55 72.85 177.75 75.2 178.2 76.05 178.35 76.35 178.6 76.85 178.75 75.55 179.15 74.45
L 179.4 74.45
Q 179.2 73.7 179.05 72.55 178.75 69.25 177.35 64.5 177.7 63.8 178.5 63.9
M 178.7 95.05
L 177.15 96.65
Q 176.35 97.45 172.6 101.3 170.7970703125 103.201171875 169.5 104.65
L 168.4 106.55 169.65 105.3
Q 174.1306640625 100.56484375 177.9 96.75 180.55 94 182.6 92.25 184 91.45 184.7 90.75 184.85 90.6 185 90.45 185.15 90.85 185.35 91.45 186.4 93.1 187.3 94.85 188.65 97.55 189.6 100.4 195.35 118.7 196.95 137.75 196.85 137.9 196.75 138.05 194.95 141.25 192.45 143.75 190.15 145.9 187.35 147.55 183.1 149.95 178.3 151.7 174.85 152.85 168.7 154.25 149.7 158.75 139.25 159.95 132.9 160.7 131.95 160.9 128.9 161.4 126.55 162.35 126.5 162.2 126.4 162.1 125.85 161.5 124.5 162 121.2 162.9 117.85 163.1 118.8 162.45 118.65 161.65 116.75 162.35 113.95 162.75 110.6 163.1 109 163.3 103.2 163.95 94.8 166.65 92.35 167.5 90.95 167.7 90.1 167.85 87.45 167.95 84.55 167.95 82.7 167.6 80.05 167.1 75.95 164.9 75.55 164.75 75.35 164.35 75.3 164.25 75.6 163.45 75.65 163.3 75.7 163.15 75.95 163.25 76.3 163.35 82.45 165.3 89 165.75 88.8 165.45 87.95 165.2 84 164.55 82.05 164.1 78.55 163.5 76.15 162.55
L 75.7 162.35
Q 75.65 162.1 75.55 161.9 74.9 161.15 74.7 160.75 74.2404296875 159.747265625 74.9 158.05
L 75.35 157 79.3 158.85 85.8 162.5
Q 86.25 162.9 87.15 163.6 87.95 164.2 88.65 164.35 88.65 164.1 88.3 163.85 87.65 163.5 86.6 162.55
L 86.15 162.15
Q 85.5408203125 161.60859375 85.1 161.3
L 79.5 158
Q 77.85 157.05 76.25 156.05 76.15 155.95 76.1 155.8
L 75.7 155.05 74.35 154.3 76.05 153.7 81 154.8
Q 84.45 155.85 87.7 155.7 87.9 155.6 88.15 155.5
L 78.25 153.1
Q 75.5 152.45 73.45 150.5 72.95 150.05 72.6 149.5
L 73.45 146.45
Q 73.65 146.3 73.85 146.2 78.3 144.3 83.2 144.75
L 83.2 144.95
Q 83.2 146.05 84.8 146.8 86.4 147.6 88.6 147.55 89.1646484375 147.53203125 89.75 147.45 93.15 147 93.85 147 95.35 147 95.6 147 96.55 146.9 97.15 146.5
L 97.35 146.45
Q 97.7 146.4 98.05 146.35 99.2 146.05 99.85 145.8
L 99.8 145.55 99 145.6
Q 98.35 145.6 97.25 145.95
L 96.4 146.25
Q 94.45 145.55 91.55 145.95 89.6 146.25 88.65 146.3 88.2677734375 146.3357421875 87.9 146.35 86.2 146.6 84.75 145.95
L 84.25 144.65 86.15 144.15
Q 87.2794921875 143.828515625 88.9 143.2 90.65 142.65 93.65 142.25 97.3 141.85 98.4 141.6 99.5 141.35 100.85 140.9 100.95 141.35 101.6 141.35 104.5 141.75 107.85 142.55 109.9 142.95 114.05 144 115.85 144.4 116.65 144.5 118 144.65 119.4 144.65
L 121.7 144.7
Q 125.15 144.75 127.1 144.5 127.8 144.4 128.45 144.3 128.4 144.45 128.55 144.65 130.9 144.95 134.45 144.8 134.4 144.7 134.45 144.6 134.55 144.45 134.55 144.4 135.75 144.2 137.1 143.95 141.75 143 145.45 141.85 150.85 140.25 155.2 138.1 158.25 136.6 160.75 134.9 161.35 134.45 161.85 134.15 164.3 132.45 164.45 132.35 165.65 131.6 168.7 130.45 170.15 129.9 171.25 129.35
L 172.45 130.15
Q 175 131.8 176.8 132.4 179.35 133.25 181.55 132.8 181.5 132.5 180.85 132.4 175.85 132.15 172.05 128.95 172.5 128.7 172.9 128.45 172.25 128.3 171.4 128.35 171.4 128 171.25 127.55
L 170.1 123.8 168.2 117.6
Q 168 116.95 167.8 116.4 167.734765625 116.233984375 167.65 116.05
L 164.65 108.8
Q 165.2 108.3 165.75 107.8 167.75 106.05 169.2 103.75 170.354296875 102.445703125 171.3 101.5 171.8 101 174.45 98.6
L 178.7 95.05
M 165.9 115.7
Q 165.99140625 115.8779296875 166.05 116.05
L 169.35 126.15
Q 169.85 127.7 170.45 128.5 169.35 128.75 168 129.25 165.7 130.2 163.9 131.2 161.9 132.6 160.9 133.2 160.55 133.5 160.2 133.75 157.05 135.75 153.5 137.45 150.35 138.9 146.75 140.1 144.15 140.9 141.25 141.75 141.3 141.55 141.4 141.3 141.5 140.6 141.5 139.6 141.5 138.2 141.5 138 141.65 136.35 142.55 133.95 142.7 133.5 142.85 133.05 144.2 129.05 145.3 126.5 147.1 122.65 147.45 120.9 147.7 119.55 147.7 116.6
L 147.6 109.2
Q 147.6 106.3 147.85 104.95 148 104.3 149 101.65 151.4 95.85 152.8 89.65 152.8 89.6 152.85 89.55 153.05 89.4 153.3 89.2 153.4 89.1 153.55 88.95 153.7 89.35 153.95 89.9 154.2 90.35 154.75 91.3 155.7 92.7 155.95 94.6 156.2 95.9 156.25 96.05 156.45 96.85 156.9 97.2 157.25 97.55 157.9 97.6 158.15 97.65 158.5 97.65 158.5 97.75 158.55 97.85
L 159.35 99.15
Q 161.05 102.3 162.05 105.55 163.65 110.75 165.9 115.7
M 131.1 41.8
Q 131.15 42.15 131.6 43.3 132.05 44.35 131.95 45.5 131.95 45.85 131.85 46.55 131.85 46.65 131.85 46.7 131.9 47 131.9 47.3 132.2 50.6 131.5 53.8 131.05 55.95 130.15 58.05
L 131.95 55.15
Q 131.55 56.05 131.2 57 131.15 57.1 131.1 57.15 129.2 61.05 126 63.6 123.35 65.65 119.85 66.8
L 116 68.5
Q 112.4 70 109.85 70.35 109.1 70.45 107.85 70.6 96.2 71.05 90 65.5
L 90.15 65.35
Q 89.35 64.2 88.5 63.05
L 91.3 59.4
Q 93.5 55.4 92.9 50.5 92.9 49.85 92.9 49.35 93.65 51 94.35 52.45
L 96.8 57.6
Q 99.35 62.75 100.25 64.2 100.75 65.1 101.4 65.35 100 63.45 98.55 60.4 96.95 56.85 96.15 55.1 94.65 52.3 93.95 50.85 93.4 49.65 92.85 48.45 92.7 46.4 92.3 45.1 95.05 49 98.8 52.55 100 53.6 101.25 54.4 109.65 59.2 116.45 51.8 116.95 51.2 117.45 50.65 115.8 54.05 114.8 55.7 113.5 57.9 110.5 61.9 111 61.65 111.8 60.75 113.75 58.65 115.25 56.2 116.55 54.15 118.6 49.8 118.75 49.55 118.85 49.3 119.1 48.85 119.3 48.45 120.8 46.45 122.1 44.35 122.35 44.65 122.7 44.75
L 124.4 45.3
Q 124.6 45.35 124.85 45.4 125.75 45.45 126.7 44.9 127.2 44.6 128.55 43.45
L 130.3 41.65
Q 130.4 41.7 130.65 41.75 130.85 41.75 131.1 41.8
M 78.25 2.1
L 78.85 2.9 78.9 6.7 77.2 7.45 77.45 3.8 78.25 2.1
M 24.95 91.4
Q 25.55 90.35 25.75 89.55
L 35.95 95.25
Q 40.25 97.55 42.1 99.3 42.55 99.7 43.4 100.6 44.25 101.45 44.9 101.85 45.15 102 45.4 102.2
L 47.25 103.95
Q 47 104.3 46.8 104.7 43.9 110 41.7 115.75 39.05 122.65 37.5 130.2 37.15 131 36.55 132.05 35.5 133.95 34.6 136.05 33.9 137.35 33.35 138.75 33 139.35 33.15 139.7 33.2 140 33.4 140.2 33.65 140.4 33.85 140.3 34.05 140.25 34.25 140.05 34.3 140.15 34.4 140.25 34.6 140.5 35.3 140.8 36 141.1 36.6 141.4 38.6 142.4 40.25 143.55 41.35 144.4 43.3 146.35 47.75 150.35 50.85 152.9 53.3 154.85 58.25 158.75 60.25 160.4 61.4 161.15 62.9 162.15 65.25 163.3 71.35 166.3 76.05 166.65
L 78.55 167.75
Q 81 168.75 81.75 168.9 82.85 169.3 85.9 169.4 89.75 169.5 91.7 169.05 93 168.8 95.8 167.95 100.05 166.65 103.35 165.85 106.35 165.1 108.4 164.85 109.95 164.7 112.95 164.4 115.1 164.2 116.65 163.6 116.65 163.7 116.7 163.8 116.8 163.95 117.2 164.05 120.05 164.4 125.55 163.15 125.85 163.6 125.85 164.45 125.85 164.95 125.8 165.9
L 125.8 165.95
Q 125.6 166 125.3 166.1 124.6 166.55 124.25 166.75 122.85 167.5 120.2 167.85 118.8 168.1 117.45 168.25 114.15 168.55 110.8 168.35 110.4 168.25 110.2 168.45 110.05 168.6 110.1 168.85 110.1 169.1 110.3 169.3
L 110.35 169.35
Q 110.5 169.45 111.1 169.55 116.6 170 122.05 168.9 124.05 168.5 124.85 168.05 125.7 167.5 126.15 166.85 126.4 167.1 126.7 166.9 127.25 165 126.85 163 126.85 162.95 126.85 162.9 127.55 162.8 128.35 162.75 128.25 162.8 128.2 162.95 128.05 163.15 128.2 163.3 129.55 163.4 129.8 163.95 130.15 164.5 129.6 165.65 128.05 168.8 126.95 170.5 125.25 173 123.35 174.6 123.25 174.7 123.2 174.75 122.3 175.4 122.25 175.45 121.7 176.05 121.65 176.6 122.7 176.6 124.05 175.65 124.3 175.5 124.55 175.35 127.35 175.45 128.65 174.85 129.8 174.25 131.2 172.35 132.75 170.3 133.65 169.7 134.95 168.65 136.5 168.65 136.8 168.65 137.2 168.7 137.55 168.75 137.8 168.7 138.05 168.6 138.15 168.35 137.75 167.9 137.15 167.65 136.6 167.45 135.95 167.45 134.7 167.35 133.55 167.95 132.05 168.8 130.45 171.1 130.3 171.3 130.15 171.55 129.2 173 128.55 173.5 127.85 174.05 126.55 174.25 126.05 174.3 125.65 174.45 126 174.05 126.35 173.65 127.25 172.65 128.1 171.4 129.2 169.6 130.8 166.15 131.25 165.2 131.3 164.5 131.3 163.55 130.45 162.95
L 142.2 164.4
Q 141.9 164.65 140.95 165.6
L 138.3 168.9
Q 138.3 168.8 138.3 168.75
L 137.95 168.75 137.9 168.8
Q 136.65 170.25 135.95 171.75
L 135.95 171.8 133.05 175.4
Q 134.15 174.35 135.2 173.3
L 134.4 174.45
Q 133.95 174.95 133.25 176.2
L 131.45 180.1
Q 131.2 180.85 130.75 181.15 130.35 181.35 129.85 181.45 128.5 181.75 127.35 182 120.6 183.5 119.55 183.7 118.95 183.8 119.05 184.15 119.1 184.3 119.4 184.4 119.95 184.6 121.25 184.5 121.7 184.4 122.2 184.35
L 129.75 182.8
Q 131.1 182.6 131.7 182.15 132.45 181.6 133.05 179.9 133.3 179.4 133.5 179 133.6 178.7 133.7 178.45 133.95 178.55 134.2 178.6 134.5 178.65 134.8 178.65 134.95 178.8 135 179.15 134.9 179.1 134.75 179.15 135 180.15 135 180.75 135 180.9 135 180.95 134.9 181.65 134 183.2
L 133.5 184.4
Q 133.05 185.7 132.7 186.35 132.25 187.1 130.9 188.3 130.05 189.05 129.6 189.25 128.95 189.55 127.5 189.55
L 124.9 189.65 116.85 189.9
Q 116.3 189.9 116.1 190.05 116 190.1 115.95 190.2 115.9 190.25 115.85 190.35 115.8 190.55 115.9 190.7 123.05 191.1 127.8 191 128 191 128.15 191 128.1 191.1 128.05 191.15 127.5 191.75 127.8 192.05 127.85 192.1 128 192.15 127.5 192.65 127.05 193.05 126.1 193.75 125.25 194.2 125.2 194.1 125.1 194.05 122.45 194.45 120 194.85 113.1 194.6 109.75 193.7 108.85 193.4 106.45 192.55 104.35 191.85 103.05 191.55 101.3 191.25 100.4 191.1 98.75 190.8 97.7 190.4 97.3 190.3 95.75 189.5 94.55 188.9 93.9 188.4 93.9 188.1 93.6 187.8 93.1 187.4 92.45 187.25 87.8 186.35 81.6 183.8 74.6 180.65 71 179.2 67.75 177.8 61.65 175.75 55 173.4 52.2 172.35 45.55 169.75 33.45 163.65
L 18 156
Q 15.2 154.5 13.8 153.35 13.5 147.9 13.7 142.4 14 135.05 15.2 127.65 18 110.8 23.75 94.6 24.35 93 24.95 91.4
M 74.55 153
L 75.35 153.45
Q 74.8 153.2 74.4 152.95
L 74.55 153
M 46.7 171.75
Q 46.9 171.9 47.25 172.05
L 75.8 184.95
Q 78.45 186.1 80.95 187.1 76.8 186.75 73.9 186.5 63.4 185.5 56.3 183 55.35 182.75 55.2 183.15 60.8 185.35 68.25 186.45 72.8 187.1 81.7 187.75 82.2 187.8 82.65 187.8 85.05 188.85 87.4 189.75 83.85 190.3 80.1 190.4 76.9 190.4 75.55 190.95 82.05 191.45 88.4 190.2 98.7 194.2 106.7 196.5 104.3 196.65 102.05 196.75 89.4 197.3 79.15 194.85 75.05 193.95 69.65 192 59.2 188.3 49.5 182.9 49.6 182.85 49.7 182.75 49.2 182.25 48.1 181.75 46.85 181.15 46.45 180.9 45.65 180.3 45.25 180.1 44.85 179.85 44.4 179.8 44.5 179.65 44.7 179.45 44.95 179 44.85 178.05 44.7 176.85 44.7 176.65 44.8 176 45.35 175.05 46.25 173.7 46.35 173.45 46.7 172.55 46.7 171.75
M 142.25 164.4
L 145.6 164.85
Q 145.95 164.85 146.2 164.85 146.1 165.2 145.95 165.8 145.65 166.85 145.75 167.45 145.8 167.8 146.5 168.95 146.9 169.9 146.8 170.5 146.75 170.8 146.45 171.4 145.5 173.6 147.1 176.65 147.3 177 148 178.05 147.6 178.35 147.15 178.75 146 179.65 145.45 179.95 143.6 180.85 142.7 181.35 141.15 182.5 140.35 182.95 138.9 183.7 138.3 184.15 137.05 185.35 136.25 185.85 134.85 186.55 134.15 186.9 133.95 187.05 133.8 187.25 134.05 186.65 134.25 185.85
L 134.55 185.1
Q 134.9 184 135.05 183.7 135.5 182.65 135.75 182.2 136.15 182.25 136.35 181.65 136.45 181.35 136.25 180.75
L 136 179.9
Q 136.05 179 135.95 178.55
L 135.6 177.9 135.35 177.6
Q 135.2 177.5 134.8 177.5
L 134.1 177.55
Q 134.75 176.25 135.25 175.45
L 136.15 174.15
Q 136.45 173.7 136.85 172.75 137.05 172.55 137.15 172.35 137.5 171.95 137.9 171.45
L 141.45 167.7
Q 141.9 167.15 141.95 167.05 141.55 167.15 140.8 167.8 139.1 169.55 137.6 171.15 137.8 170.7 137.9 170.25 137.95 170.2 138 170.15 140.25 167.4 142.25 164.4
M 116.1 172.85
L 115.6 173.15
Q 115.95 173.45 116.25 174.35 116.55 174.7 117.05 175.2 117.6 175.9 117.6 177.75 117.6 178.55 117.45 178.95 117.4 179.25 117.1 179.8 115.75 182.15 114.1 184.35 113.75 184.8 113.45 185.15 110.3 189.35 109.7 190.35 109.4 190.85 109.45 191.2
L 109.9 191.2
Q 113.25 187 115.45 184.05 116.85 182 117.75 180.55 118.1 180 118.2 179.7 118.45 179.1 118.45 177.8 118.35 176.2 118.1 175.65
L 116.1 172.85
M 25.55 140.5
L 29.4 140.55
Q 30.8 140.55 31.45 140.45 32.5 140.25 32.85 139.6
L 32.55 139.35
Q 29.15 139.95 26.15 140.1 25.55 140.1 25.55 140.5
M 97.85 148.3
L 97.55 148 96.4 149.25
Q 93.2 152.75 92.3 154.5 91.85 155.4 91.5 155.75
L 90.9 156.35
Q 90.4 157 90.65 158.05 91 158.95 91.15 159.4 91.25 159.65 91.25 159.7
L 91.45 160.85
Q 91.5 161.05 91.85 162.1 92.4 163.45 92.8 164 93.15 164.45 93.6 164.75 93.85 164.95 94.15 165.1
L 94.3 164.95
Q 93.9 164.45 93.6 163.95 93.15 163.35 92.95 162.8 92.85 162.65 92.8 162.45 92.5 161.8 92.3 160.65 92.15 159.95 92 159.45 91.8 158.55 91.65 158.2 91.4 157.55 91.4 157.4 91.4 157.1 92 156.2 92.65 155.45 93.55 153.6 93.75 153.3 94.75 152.05
L 97.85 148.3
M 143.75 100.35
Q 144.5 99.55 144.45 99.05 139.3 103.45 134.95 108.65 134.1 109.6 133.35 110.55 134.15 110.45 135.1 109.2 135.3 108.9 135.55 108.65 139.45 104.05 143.75 100.35
M 144.9 91.55
Q 144.65 91.6 144.5 91.95 142.25 96.5 140.7 98.55 140.35 99.15 139.95 99.7 138.4 101.8 136.4 103.7 135.75 104.55 135.9 105 139.3 102.2 142.25 97.55 143.85 94.95 145.3 91.75 145.3 91.6 145.15 91.55 145 91.45 144.9 91.55
M 116.55 86.9
Q 116.55 86.55 116 86.9
L 104.2 96.45 94.2 104.45
Q 93.45 105.1 93.15 105.55 100.75 100.15 107.95 94.25 112.3 90.65 116.55 86.9
M 118.8 86
Q 118.45 85.8 118.05 86.35 117 87.45 116.05 88.55 110.8 94.05 106 98.5
L 106.1 98.6 106.25 98.55 108.35 96.6
Q 113.15 92 114.55 90.65
L 118.6 86.35
Q 118.8 86.15 118.8 86
M 86.15 89.15
Q 85.95 88.75 85.75 88.35 84.15 85.5 81.75 81.75 81.15 80.9 80.55 79.9 75 71.6 74.55 70.8 72.5 67.5 69.5 62.15 69.05 61.1 68.95 60.8 68.95 60.35 68.85 60.05 68.75 59.65 68.45 59.7 68.4 59.7 68.35 59.7 68.1 59.75 68 60.15 67.9 60.7 68.1 61.4 68.2 61.9 68.5 62.45 71.3 67.9 75.5 74.35 76.55 76.05 78.2 78.45 80.3 81.55 83.3 85.9 84.45 87.6 85.3 88.7 85.7 89.15 86 89.5 86.3 89.6 86.15 89.15
M 116.25 73.95
L 116.2 73.95
Q 117.224609375 73.175390625 117.95 72.45
L 118.7 71.9
Q 119.1 71.75 119.05 71.55 118.6 71.55 118 72.15 116.85 73.3 115.45 74.2 109.9 75.65 104.1 75.6 100.25 75.55 96.5 74.7
L 95.4 74.55
Q 92.9 74.05 91.4 72.05 90.05 70.2 88.1 69.15
L 92.55 73.75 91.75 74
Q 91.5 74.15 91.3 74.35
L 92 74.6
Q 92.45 75.5 93.1 75.85 94.5 76.4 96.25 77.15 96.3 77.15 96.3 77.2 99.1 79.6 102.4 82.05 102.8 82.4 103.05 82.25 103 82 102.55 81.65 100.2 79.75 97.8 77.75 98 77.8 98.2 77.9 102 79.4 106.2 79.1 110.75 79.05 114.85 77.2 115.75 76.7 116.65 76.2 119.7 74.35 121.25 72.25 120.9 72.25 120.65 72.35 119.4 72.85 118.05 73.4 118.7 72.8 119.6 72.05
L 124.45 67.35 122.45 68.85 119.1 72.15
Q 118.95 72.25 118.9 72.35 118.1 73.05 117.3 73.65 116.8 73.8 116.25 73.95
M 163.15 94.85
Q 163.3 95.15 163.75 95.05 167 94.4 170.1 93.5 173.8 92.45 177.3 90.9 179.95 89.65 181 88.85 181.7 88.25 183.2 87 183.65 86.65 183.55 86.35 183.15 86.45 182.4 86.95 179.95 88.65 178.05 89.55 176.15 90.5 174.25 91.2 172.5 91.8 170.8 92.4 167.35 93.4 163.75 94.2 163.5 94.2 163.25 94.35 163 94.65 163.15 94.85
M 138.8 110.35
Q 138.55 110.35 138.25 110.65
L 136.1 112.8
Q 135.75 113.25 135.75 113.5
L 135.9 113.5 138.8 110.35
M 68.25 75.4
Q 68.6 76.05 69.4 76.6 74.9 81.45 79.4 86.25 78.85 85 77 83.1 73.2 79.25 69.4 76.1 68.7 75.45 68.25 75.4 Z"/>

<path fill="#767062" stroke="none" d="
M 74.95 2.3
Q 74.85 2.85 74.75 3.4 75.6 1.9 76.6 0 76.1 0 75.65 0 75.15 1.5 74.95 2.3 Z"/>

<path fill="#6A3F3F" stroke="none" d="
M 81.6 21.4
Q 81.55 21.3 81.55 21.2 79.6 14.3 79.75 7.25
L 79.6 7.35 79.2 9.55 78.95 7.35 77.4 8.1 77.1 21.15
Q 76.75 20.35 76.45 19.15 74.5 9.1 77.8 0 77.2 0 76.6 0 75.6 1.9 74.75 3.4 74.5 4.9 74.45 6.8 74.45 7 74.45 11.3 74.45 16.6 74.5 17.65 74.75 21.25 76 23.8
L 75.65 23.95
Q 74.55 22 74.15 19.7 73.75 17.9 73.75 14.3 73.65 8.65 73.9 4.95 72.35 7.85 72 8.75 71 11.25 71 15.85 71 21.45 72.65 24.85 73.1 25.6 74 26.75 72.4 23.8 71.9 22.5
L 71.6 21.4
Q 71.35 20.65 71.35 19.8 71.35 17.8 71.9 16.45 72.1 15.8 72.55 15.95 72.7 16.2 72.45 16.65 72.1 17.7 72.1 19.95 72.25 21.4 72.25 21.45
L 72.65 22.7
Q 73.5 24.8 75.55 28.2 76.4 29.75 76.8 30.15 77.7 31.3 79 32.05 79.75 32.55 79.75 32.9 77.7 32.05 76.3 30.4 75.75 29.75 74.65 27.95 74.6 27.85 74.6 27.8 73.3 26.55 72 24.3 71.25 23.1 70.85 22.1 68.35 27.75 68.65 33.95 70.2 36 73.45 38.4 79.35 42.9 82.3 43.05 79.95 45.3 78.65 46.55 80.3 47.15 82.35 47.75 82.9 47.9 83.15 48.25 82.6 48.4 81.95 48.2 79.75 47.8 77.9 47.2 77.55 47.45 77.35 47.7 76.6 48.35 75.5 48.7 75.5 48.8 75.5 48.85 75.35 48.85 75.3 48.8 73.9 49.2 72 49.2 67.8 49.2 65.85 47.6 64.55 45.8 64.2 45.45 63.8 45.45 63.8 45.2 63.5 45.4 63.45 46.4 64.25 49.85 66.55 52.65
L 66.55 52.55 69.5 54.9
Q 69.65 54.95 69.8 54.95 73.4 55.7 76.9 54.95 80 54.2 82.7 52.1 83.35 51.65 83.95 51.1
L 84.1 50.35 85.15 50.35 84.9 51.3
Q 86.25 53 86.35 55.1 86.4 55.85 86.5 56.55 86.7 57.85 86.65 59
L 85.95 62.7 88.05 58.95
Q 88.35 58.1 88.7 56.85 89.1 55.4 89.1 54.6
L 88.95 52.55
Q 88.35 48.25 88.7 44.2
L 89.05 44.2
Q 89.2 45.2 89.2 46.95 89.2 48.95 89.25 49.7 89.25 49.75 89.65 52.65 89.85 54.35 89.75 55.5 89.65 56.25 89.1 58.05 88.95 58.55 88.85 58.95
L 87.75 61.4 89.7 59.1
Q 90.45 57.85 91.1 56.35 91.35 55.7 91.45 55 91.8 52.35 91.65 49.5 91.6 47.1 91.2 45.65 91.15 45.5 91.1 45.25 90.7 44.45 90.4 43.7 90.45 43.7 90.5 43.7 90.25 43.05 89.95 42.25 89.15 39.9 88.9 39.35 88.15 37.7 87.1 36.95 86.55 36.55 86.45 36.45 86.15 35.85 86.55 35.7 86.6 35.65 86.65 35.65 86.1 35 85.45 34.4 86.25 37.35 87.5 40.1 87.75 40.55 87.45 40.7 85.8 38.25 84.8 34.3 84.75 34 84.7 33.65
L 84.1 33.1
Q 83.6 32.7 83.7 32.3 83.85 31.95 84.25 32.05 84.3 32.05 84.4 32.15 83.75 29.1 83.35 27.4 83 26.15 81.6 21.4
M 135.05 34.6
Q 135.6 33.7 136.2 33.3 136.6 32 136.7 30.4 136.9 27.75 137.4 26.65 136.55 27.4 134.5 28.55
L 134.3 28.75
Q 129.55 36.55 124.05 40.8 123.4 42.15 122.55 43.5 123.25 44.05 124.15 44.2 125.05 44.3 125.95 43.95 127 43.5 128.9 41.6 130.7 39.85 132 38.25 133.4 36.85 135.05 34.6
M 136.2 8.75
Q 136.2 9.4 136.2 10.05 136.2 12.25 136.1 13.35 136.05 13.95 135.85 14.95
L 135.85 15.1 135.8 15.1
Q 135.6 15.7 135.45 16.35 135 18.15 134.55 19
L 133.5 20.7
Q 132.75 21.7 132.2 22.25 131.35 23.05 130.45 23.55 129 28.1 127.2 31.1 127.15 31.2 127.1 31.3 127 31.85 126.85 32.5 127.4 31.3 127.9 30.05 126.75 35.2 124.55 39.9 125.65 38.9 126.8 37.65 129.05 35.35 131.25 32.35 132.25 31 133.5 29 130.4 30.45 128.45 30.7
L 128.45 30.4
Q 130.65 28.2 132.8 23.95 136.3 17.2 136.3 10.2 136.3 9.5 136.2 8.75
M 78.85 2.9
L 78.25 2.1 77.45 3.8 77.2 7.45 78.9 6.7 78.85 2.9 Z"/>

<path fill="#FCD0C7" stroke="none" d="
M 134.4 4.35
Q 134.25 3.95 134.2 3.65 134.05 3.2 133.85 2.95
L 133.8 2.95
Q 132.1 3.25 131.45 4.85 131.2 5.75 131 5.95 130.95 6.25 130.9 6.55 130.6 6.7 130.35 6.2 129.9 5.35 129.55 4.2
L 129.2 2.95
Q 128.8 1.4 127.9 0.1 104.55 0.1 81.25 0 79.2 8.45 81.5 17.4 82 19.4 82.5 21.4 82.55 21.55 82.6 21.7 84 26.4 84.4 28.45 84.65 29.65 84.95 31.95 85 32.35 85.1 32.65 86.1 33.6 86.9 34.7
L 85.75 31.7
Q 91.3 42.15 101 48.15 103.4 49.5 106.6 49.45 117.35 49.35 123.35 39.2 124 38 124.7 36.85 124.8 36.6 124.9 36.45 125.9 34.45 126.85 32.5 127 31.85 127.1 31.3 126.15 32.7 124.25 35.25 124 35.55 123.85 35.6 123.5 35.7 123.4 35.45 123.9 34.4 124.85 32.95
L 126.5 30.45
Q 126.8 30.05 127 29.7 128.45 27.1 129.55 23.7 129.2 23.6 129.15 23.4 129 23.1 129.35 22.7
L 129.9 22.35 129.95 22.35
Q 130.4 20.85 130.8 19.35 131.2 17.55 131.2 16.65 131.1 16.3 131.25 16.1
L 131.25 16.05 131.1 15.9
Q 131.25 15.55 131.75 15.4 131.95 15.35 132.1 15.3 132.15 14.75 132.2 14.25 132.45 12.25 132.65 11.4
L 133.35 9.4
Q 133.95 7.7 134.75 7.1 134.8 7.15 134.85 7.15 134.75 6.7 134.7 6.2
L 134.4 4.35
M 126.4 9.3
L 126.05 10.7
Q 125.6 12.75 124 14.1
L 124 14.25
Q 123.2 15.75 121.7 16.3 120.9 16.5 120.2 17.05 119.9 17.25 119.6 17.4 119.05 17.55 118.45 17.6 116 18.8 114.55 18.8 111 18.3 110.5 18.3 110.15 18.3 108.9 20 108.65 20.25 108.5 20.6 108.4 22.2 108.45 23.75 108.45 24 108.2 23.85
L 108.05 23.55
Q 107.85 22.55 107.8 21.45 107.2 22.2 106.9 22.4 106.55 21.4 106.55 20.05 106.55 19.15 108.25 10.35 108.35 9.65 109.65 8.7 110.35 8.2 110.95 7.95 110.9 7.85 110.9 7.7 110.9 7.3 111.2 7.15 111.5 7.05 112 7.25 112.6 7.4 113.25 7.45 114.5 7.5 116.05 7.1 116.45 7 116.85 6.9 119.65 6.15 119.85 6.1 121.6 5.8 122.85 6.05 124.2 6.3 125.2 7.2 126.05 7.9 126.5 8.75 126.6 8.95 126.75 9.2 126.75 9.25 126.8 9.35 126.55 9.3 126.4 9.3
M 101.25 9.5
Q 101.4 9.6 101.45 9.7 101.5 9.8 101.5 9.9 101.45 10.35 100.75 10.5
L 100.15 10.55
Q 100.585546875 11.2212890625 101.15 12.35 102.35 14.8 102.35 15.5 102.35 16.1 100.75 20.1
L 100.65 20.2
Q 100.45 19.6 100.45 18.6
L 100.65 16.15
Q 100.65 15.6 100.55 15.5
L 100.05 15.5
Q 99.7375 16.298828125 98.5 16.8 96.071484375 18.990625 92.6 18.6 91.95 18.35 91.35 17.85 91.3087890625 17.82421875 91.25 17.8 91.037109375 17.8 90.8 17.8 89.35 17.8 86.4 16.1 83.45 14.4 83.45 13.65
L 84.65 11.8
Q 85.2244140625 11.11796875 85.8 10.65 86.8736328125 10.608203125 89.85 10.75 90.1359375 10.75 90.45 10.75
L 89.95 10.6
Q 88.9 10.25 86.65 10.15 86.606640625 10.15 86.55 10.15 85.7744140625 10.16015625 85.3 10.35 84.9 10.65 84.7 10.75 84.3 10.95 84.05 10.85 83.85 10.5 84.15 10.05
L 84.15 10
Q 84.45 9.75 84.85 9.55 86.15 9.1 88.3 9.1
L 89.3 9.1 90.85 9.35
Q 91.15 9.4 91.75 9.4 94.15 9.45 97.15 9.3
L 100.1 9.25
Q 100.9 9.25 101.25 9.5
M 100.3 28.45
Q 100.45 27.95 100.7 27.5 101.25 26.75 101.6 27.15 101.65 27.25 101.7 27.45
L 101.85 27.6 101.65 27.8
Q 101.6 28.2 101.45 28.75 101.25 29.3 101.25 29.8 101.25 30.1 101.4 30.3 101.6 30.65 102.45 30.9
L 104.6 31.45
Q 105.75 31.8 106.55 31.75 107.5 31.7 109.3 30.7 109.65 30.45 109.9 30.3 110.35 29.9 110.5 29.6 110.55 29.4 110.6 28.75 110.6 28.55 110.6 28.35 110.6 28.1 110.6 27.9 110.6 26.8 111.25 26.6 111.25 26.55 111.35 26.55 112.2 29.6 111.25 30.9 110.7 31.65 109.15 32.4 108.95 32.5 108.8 32.55 108.65 32.65 108.6 32.75 107.05 34.9 104.35 34.9 103.1 34.9 100.75 34.15
L 98.7 33.35
Q 97.75 33.55 96.65 34.1 96.55 34.15 96.45 34.25 96.1 35.05 95.65 35.05 95.7 34.85 95.75 34.7 95.8 34.3 96 33.95 96.35 33 97 32 97.65 31.15 99.2 29.45 99.85 28.85 100.3 28.45
M 97.5 37.7
L 97.5 37.65
Q 100.05 35.6 104.45 35.6 105.1 35.6 109.6 36.4 112.25 36.85 113.8 37.05 113.8 37 113.9 37.05 113.75 37.35 113.7 37.65 113.95 37.7 114.2 37.85 113.9 38.15 113.55 38.4 113.25 40.05 112.8 40.9 112.5 41.45 112.2 41.85 113.45 40.9 114.3 40.55 113.1 42.25 112 43.5 110.8 44.85 109.65 45.5 106.95 46.8 103.75 45.65 101.5 44.85 98.6 42.45 97.95 41.95 98.15 41.55 98.4 41.05 99.3 41.6 102.05 43.5 103.55 44.2 106.35 45.35 108.35 44.55 108.65 44.45 109.1 44.25 108.25 44.5 107.35 44.5 104.4 44.5 101.1 42.5 97.65 40.35 97.5 37.7
M 118.65 35.3
L 118.85 35.5
Q 118.55 35.8 118.5 36
L 118.5 36.2 118.3 36.35
Q 117.75 36.55 117.45 36.7
L 117.05 37
Q 116.85 37.2 116.6 37 116.55 36.8 116.7 36.55
L 117.1 36.3
Q 117.35 36.15 117.85 35.7 118.3 35.35 118.65 35.3
M 97.1 12.2
L 96.25 12.15
Q 91.05 12.55 90.4 12.55
L 90.4 13.2
Q 91.6 14.65 93.25 14.65 94.2 14.65 95.8 14.05 97.25 13.5 98.05 12.95 97.57421875 12.50703125 97.1 12.2
M 122.65 11.1
Q 123.2 10.5 122.65 10 122.35 9.7 121.7 9.9 121.35 9.95 118.65 10.7 116.85 11.15 115.6 11.1
L 114.9 11.15
Q 114.5 11.35 114.5 11.7 114.5 11.95 114.9 12.25 115.5 12.55 116.85 12.75 117.9 12.85 118.4 12.8 119.1 12.75 120.45 12.25
L 121.65 11.75
Q 122.3 11.5 122.65 11.1
M 121.25 184.5
Q 119.9 185.05 119.3 185.4 121.4 185.3 125.15 185.4 127.3 185.45 128.65 184.95 129.5 184.55 135 180.75 135 180.15 134.75 179.15 134.9 179.1 135 179.15 134.95 178.8 134.8 178.65 134.5 178.65 134.2 178.6 133.95 178.55 133.7 178.45 133.6 178.7 133.5 179 133.3 179.4 133.05 179.9 132.45 181.6 131.7 182.15 131.1 182.6 129.75 182.8
L 122.2 184.35
Q 121.7 184.4 121.25 184.5
M 15.2 127.65
Q 14 135.05 13.7 142.4 15.1 147.9 16.05 149.15 16.95 150.25 18.9 151.1 20.2 151.65 24.15 153.25 38.05 159.5 53.65 164.85 60.8 167.35 85.8 178.35 101.8 185.4 109.65 185.4 110.05 185.4 113.25 184.55 113.65 184.45 114.1 184.35 115.75 182.15 117.1 179.8 117.4 179.25 117.45 178.95 117.6 178.55 117.6 177.75 117.6 175.9 117.05 175.2 116.55 174.7 116.25 174.35 115.95 173.45 115.6 173.15
L 116.1 172.85 118.1 175.65
Q 118.35 176.2 118.45 177.8 118.45 179.1 118.2 179.7 118.1 180 117.75 180.55 116.85 182 115.45 184.05 118.6 183.2 121.25 182.65 123.65 182.15 124 181.1 124.55 179.45 125.35 178.9 126.8 177.95 130.2 176 133.25 173.65 136.5 168.65 134.95 168.65 133.65 169.7 132.75 170.3 131.2 172.35 129.8 174.25 128.65 174.85 127.35 175.45 124.55 175.35 124.3 175.5 124.05 175.65 122.7 176.6 121.65 176.6 121.7 176.05 122.25 175.45 122.3 175.4 123.2 174.75 123.6 173.8 124.35 172.5 125.05 171.15 125.05 170.15
L 125.05 169.4
Q 121.1 169.4 118.7 170.65 117.9 171.1 117.75 171.15 117.5 171.2 117.5 170.75 117.59375 170.703125 117.85 170.7 116.933984375 170.6890625 113.65 170.15 110.35 169.65 109.7 169.65
L 109.7 169.4
Q 109.95 169.35 110.35 169.35
L 110.3 169.3
Q 110.1 169.1 110.1 168.85 110.05 168.6 110.2 168.45 110.4 168.25 110.8 168.35 114.15 168.55 117.45 168.25 118.8 168.1 120.2 167.85 122.85 167.5 124.25 166.75 124.6 166.55 125.3 166.1 125.6 166 125.8 165.95
L 125.8 165.9
Q 125.85 164.95 125.85 164.45 125.85 163.6 125.55 163.15 120.05 164.4 117.2 164.05 116.8 163.95 116.7 163.8 116.65 163.7 116.65 163.6 115.1 164.2 112.95 164.4 109.95 164.7 108.4 164.85 106.35 165.1 103.35 165.85 100.05 166.65 95.8 167.95 93 168.8 91.7 169.05 89.75 169.5 85.9 169.4 82.85 169.3 81.75 168.9 81 168.75 78.55 167.75
L 76.05 166.65
Q 71.35 166.3 65.25 163.3 62.9 162.15 61.4 161.15 60.25 160.4 58.25 158.75 53.3 154.85 50.85 152.9 47.75 150.35 43.3 146.35 41.35 144.4 40.25 143.55 38.6 142.4 36.6 141.4 35.8 141.35 34.9 141.3 25.5 140.55 23.45 140.6
L 23.45 139.55
Q 24.7 139.3 28.7 137.75 31.4 136.8 34.6 136.05 35.5 133.95 36.55 132.05 37.15 131 37.5 130.2 39.05 122.65 41.7 115.75 39.2 112.1 36.4 108.5 31.3 102.1 23.75 94.6 18 110.8 15.2 127.65
M 131.9 47.3
Q 131.45 47.85 130.9 48.2 129.95 48.8 127.1 49.95 125.2 50.75 122.4 51.05 121.1 51.2 120.5 52.8 119.3 55.75 115.2 61.4 111.55 66.5 110.85 66.95
L 110.85 67.15
Q 112.15 65.85 117.55 63.1 119.35 62.2 121.25 61.25 121.75 60.9 122.2 60.55 122.6 60.25 122.7 60.45 122.5 60.6 122.3 60.75 122.9 60.5 123.5 60.15 124.7 59.45 128.55 55.9 130.2 54.4 131.5 53.8 132.2 50.6 131.9 47.3
M 118.4 62.4
L 117.05 63.2
Q 116.7 63.45 116.3 63.45 117.15 62.7 118.55 62 126.9 57.1 131.55 52.95 131.55 53.25 131.15 53.55 128.6 55.9 125 58.3 122.75 59.8 118.4 62.4
M 168.35 115.75
L 168.05 116.1
Q 167.9341796875 116.253125 167.8 116.4 168 116.95 168.2 117.6
L 170.1 123.8
Q 180.15 130.25 184.3 132.3 187.1 133.7 189.15 133.75 184.9 133.75 181.05 135.1 177.05 136.5 174.3 136.5 171.9 136.5 163.55 134.5 162.7 134.3 161.85 134.15 161.35 134.45 160.75 134.9 158.25 136.6 155.2 138.1 150.85 140.25 145.45 141.85 141.75 143 137.1 143.95 135.75 144.2 134.55 144.4 134.55 144.45 134.45 144.6 134.4 144.7 134.45 144.8 130.9 144.95 128.55 144.65 128.4 144.45 128.45 144.3 127.8 144.4 127.1 144.5 125.15 144.75 121.7 144.7
L 119.4 144.65
Q 118 144.65 116.65 144.5 115.85 144.4 114.05 144 109.9 142.95 107.85 142.55 104.5 141.75 101.6 141.35 100.95 141.35 100.85 140.9 99.5 141.35 98.4 141.6 97.3 141.85 93.65 142.25 90.65 142.65 88.9 143.2 87.2794921875 143.828515625 86.15 144.15
L 84.25 144.65 84.75 145.95
Q 86.2 146.6 87.9 146.35 88.2677734375 146.3357421875 88.65 146.3 89.6 146.25 91.55 145.95 94.45 145.55 96.4 146.25
L 97.25 145.95
Q 98.35 145.6 99 145.6
L 99.8 145.55 99.85 145.8
Q 99.2 146.05 98.05 146.35 94.75 147.8 93.55 148.25 91.7751953125 148.94453125 89.25 149.1 88.85 149.15 88.4 149.25 82.65 150.25 83.15 145
L 73.05 148.8
Q 73.55 149.5 74.1 150.2 75.7 152.15 78.25 153.1
L 88.15 155.5
Q 87.9 155.6 87.7 155.7 84.45 155.85 81 154.8
L 79.5 158 85.1 161.3
Q 85.5408203125 161.60859375 86.15 162.15
L 86.6 162.55
Q 87.65 163.5 88.3 163.85 88.65 164.1 88.65 164.35 87.95 164.2 87.15 163.6 86.25 162.9 85.8 162.5
L 79.3 158.85
Q 79.4 160.15 80.5 160.85 80.95 161.15 81.4 161.5 82.6849609375 162.2658203125 84.7 163.2 87.7 164.55 93.6 166.95
L 93.6 164.75
Q 93.15 164.45 92.8 164 92.4 163.45 91.85 162.1 91.5 161.05 91.45 160.85
L 91.25 159.7
Q 91.25 159.65 91.15 159.4 91 158.95 90.65 158.05 90.4 157 90.9 156.35
L 91.5 155.75
Q 91.85 155.4 92.3 154.5 93.2 152.75 96.4 149.25
L 97.55 148 97.85 148.3 94.75 152.05
Q 93.75 153.3 93.55 153.6 92.65 155.45 92 156.2 91.4 157.1 91.4 157.4 91.4 157.55 91.65 158.2 91.8 158.55 92 159.45 94.55 159.55 101.45 160.05 110.5 160.05 135.75 155.65 138.05 155.25 170.55 149.15 172.55 148.8 178.55 147.95 184.55 146.9 189.45 145 191 144.4 192.45 143.75 194.95 141.25 196.75 138.05 196.85 137.9 196.95 137.75 195.35 118.7 189.6 100.4 188.65 97.55 187.3 94.85 183.9 98.4 179.4 103.5 172.0796875 111.7005859375 168.35 115.75 Z"/>

<path fill="#1D3237" stroke="none" d="
M 118.85 35.5
L 118.65 35.3
Q 118.3 35.35 117.85 35.7 117.35 36.15 117.1 36.3
L 116.7 36.55
Q 116.55 36.8 116.6 37 116.85 37.2 117.05 37
L 117.45 36.7
Q 117.75 36.55 118.3 36.35
L 118.5 36.2 118.5 36
Q 118.55 35.8 118.85 35.5
M 117.6 63.65
Q 116.2 64.6 115.9 64.85 119.45 62.95 122.3 60.75 122.5 60.6 122.7 60.45 122.6 60.25 122.2 60.55 121.75 60.9 121.25 61.25 119.5 62.55 117.6 63.65
M 117.05 63.2
L 118.4 62.4
Q 122.75 59.8 125 58.3 128.6 55.9 131.15 53.55 131.55 53.25 131.55 52.95 126.9 57.1 118.55 62 117.15 62.7 116.3 63.45 116.7 63.45 117.05 63.2
M 95.5 60.25
Q 95.25 59.75 94.95 59.95 97.1 64.1 100.7 67.3 96.9 63 95.5 60.25
M 175.25 132.3
Q 175.05 132.05 174.9 132.2 174.55 132.2 174.65 132.45 178.25 134.05 182 134.75
L 182.15 134.55
Q 181.75 134.25 180.25 133.9 177.6 133.25 175.25 132.3
M 64.4 120.7
L 64.2 120.15
Q 64 119.85 63.7 120.05 63.8 121 64.2 121.95 64.55 122.8 65.25 123.75 66.15 125 68.2 126.55 71.7 129.5 74.45 131.05 76.1 131.95 77.8 132.75 80.7 133.95 83.75 134.7 83.8 134.4 83.35 134.2 77.5 132.2 73.75 129.85 71.05 128.3 67.9 125.45 64.75 122.85 64.4 120.7
M 32.65 88.15
Q 32.75 88.3 33 88.4
L 41 92.8
Q 41.05 92.55 40.6 92.3 36.8 90.2 33.8 88.6 33.2 88.25 32.55 87.95 32.55 88.05 32.65 88.15
M 28.65 86.15
Q 27.8 85.65 27.4 85.55 27.35 85.8 27.75 86.15 28.3 86.5 28.85 86.8 33.75 89.95 36.75 91.4 38.15 92.05 41.1 93.35 42.4 94.15 44.95 95.95 45.1 95.95 45.05 95.8 45.05 95.65 44.95 95.55 43.2 94 40.3 92.55 36.9 91 35.3 90.2 33.6 89.25 30.8 87.5 29.8 86.85 28.65 86.15
M 88.75 73.55
Q 88.4 73.2 88.15 73.4 91.3 76.45 95.2 79.35 95.65 79.75 95.95 79.5 92.45 77.15 88.75 73.55
M 162 81.15
Q 165 77.75 168.3 70.75
L 162 81.15
M 169.2 62.15
L 167.2 66.4 165.65 69.65
Q 164.9 70.95 163.35 73.4
L 158.4 81
Q 158.75 80.95 159.1 80.3 160.75 78.1 163.75 73.5 165.3 71.2 165.9 69.95 166.9 68.2 168 65.4 168.55 63.9 169.2 62.15
M 80.6 135.8
L 80.55 135.6 75.3 134.45
Q 75.3 134.6 75.15 134.6
L 75.15 134.85
Q 77.5 135.4 80.1 135.9 80.4 136.05 80.6 135.8 Z"/>

<path fill="#F0B28C" stroke="none" d="
M 113.9 37.05
Q 113.8 37 113.8 37.05 113.05 37.15 112.4 37.35 113.05 37.4 113.7 37.65 113.75 37.35 113.9 37.05 Z"/>

<path fill="#E3715A" stroke="none" d="
M 97.8 37.7
L 97.5 37.7
Q 97.65 40.35 101.1 42.5 104.4 44.5 107.35 44.5 108.25 44.5 109.1 44.25 110.1 43.75 111.35 42.6 111.8 42.15 112.2 41.85 112.5 41.45 112.8 40.9 113.25 40.05 113.55 38.4 112.75 38.85 111.65 38.65 110.9 38.35 109.95 38.85 109.35 39.1 108.6 39.25 108.5 40.5 107.25 40.75 105.45 40.65 104.15 40.1 103.1 39.55 101.9 39.35
L 101.9 39.15
Q 100.2 38.7 98.35 38.45 97.9 38.35 97.65 38.1 97.55 37.95 97.55 37.85 97.65 37.75 97.8 37.7 Z"/>

<path fill="#BB6351" stroke="none" d="
M 97.5 37.65
L 97.5 37.7 97.8 37.7
Q 98.6 37.3 99.35 37.5 102.9 37.65 106.3 38.05 108.25 38.1 110.35 37.6 111.45 37.2 112.4 37.35 113.05 37.15 113.8 37.05 112.25 36.85 109.6 36.4 105.1 35.6 104.45 35.6 100.05 35.6 97.5 37.65 Z"/>

<path fill="#FEACA0" stroke="none" d="
M 96.65 34.1
Q 97.75 33.55 98.7 33.35
L 100.75 34.15
Q 103.1 34.9 104.35 34.9 107.05 34.9 108.6 32.75 108.65 32.65 108.8 32.55 107.85 32.95 107.05 33.05 106.25 33.15 105.05 32.9 103.65 32.55 102.9 32.4 102.15 32.3 101.75 32.2 101.15 32.05 100.75 31.75 99.95 31.05 100.05 29.7 98.9 30.75 97.6 32.3 96.7 33.35 96.5 34.05 96.45 34.15 96.45 34.25 96.55 34.15 96.65 34.1
M 100.15 10.55
L 97.45 10.95 90.7 10.8 90.45 10.75
Q 90.1359375 10.75 89.85 10.75 86.8736328125 10.608203125 85.8 10.65 85.2244140625 11.11796875 84.65 11.8
L 83.45 13.65
Q 83.45 14.4 86.4 16.1 89.35 17.8 90.8 17.8 91.037109375 17.8 91.25 17.8 89.172265625 16.4646484375 87.75 14.65
L 88.55 14.05
Q 90.85 16.45 94.05 16.1 97.15 15.95 99.6 14.25 99.85 14.2 100.15 14.2 100.15 15.2 99.25 16.1 98.8998046875 16.48984375 98.5 16.8 99.7375 16.298828125 100.05 15.5
L 100.55 15.5
Q 100.65 15.6 100.65 16.15
L 100.45 18.6
Q 100.45 19.6 100.65 20.2
L 100.75 20.1
Q 102.35 16.1 102.35 15.5 102.35 14.8 101.15 12.35 100.585546875 11.2212890625 100.15 10.55
M 96.25 12.15
L 97.1 12.2
Q 97.57421875 12.50703125 98.05 12.95 97.25 13.5 95.8 14.05 94.2 14.65 93.25 14.65 91.6 14.65 90.4 13.2
L 90.4 12.55
Q 91.05 12.55 96.25 12.15
M 126.05 10.7
L 126.4 9.3
Q 125.8 9.1 125.05 8.6 123.75 7.85 123.35 7.65 121.9 7.15 119.7 7.7 117.3 8.5 116.1 8.7 114.7 8.9 112.45 8.7 111.6 8.7 111.15 8.35 110.95 8.15 110.95 7.95 110.35 8.2 109.65 8.7 108.35 9.65 108.25 10.35 106.55 19.15 106.55 20.05 106.55 21.4 106.9 22.4 107.2 22.2 107.8 21.45 107.6 17.9 108.65 13.05 109.1 11.45 109.2 11.25 109.5 10.6 109.85 10.25 110.2 10.1 110.5 10.15 110.8 10.2 110.9 10.55 110.05 11.25 109.6 13.2 108.65 17.1 108.5 20.6 108.65 20.25 108.9 20 110.15 18.3 110.5 18.3 111 18.3 114.55 18.8 116 18.8 118.45 17.6 116.1 17.7 114.4 16.05
L 112.65 15.75 112.3 14.6
Q 113 13.45 114.65 14.4 115.5 14.85 116.55 15 118.7 15.3 120.85 14.65 121.9 14.4 122.9 13.85 123.5 13.65 124 13.4
L 124 14.1
Q 125.6 12.75 126.05 10.7
M 122.65 10
Q 123.2 10.5 122.65 11.1 122.3 11.5 121.65 11.75
L 120.45 12.25
Q 119.1 12.75 118.4 12.8 117.9 12.85 116.85 12.75 115.5 12.55 114.9 12.25 114.5 11.95 114.5 11.7 114.5 11.35 114.9 11.15
L 115.6 11.1
Q 116.85 11.15 118.65 10.7 121.35 9.95 121.7 9.9 122.35 9.7 122.65 10
M 133.45 17.8
Q 133.9 16.8 134.25 15.35 133.55 15.5 132.8 15.7 132.55 17.9 132.55 19.5 133.05 18.6 133.45 17.8
M 134.9 8.25
Q 134.85 8.15 134.8 8.05 134.5 8.3 134.1 9.45 133.9 10.05 133.45 11.4 133.05 12.5 132.85 14.75 132.85 14.9 132.85 15.15 133.6 14.9 134.4 14.85 134.6 13.65 134.75 12.2 134.95 10 134.9 8.25
M 111.1 169.55
Q 110.5 169.45 110.35 169.35 109.95 169.35 109.7 169.4
L 109.7 169.65
Q 110.35 169.65 113.65 170.15 116.933984375 170.6890625 117.85 170.7 117.59375 170.703125 117.5 170.75 117.5 171.2 117.75 171.15 117.9 171.1 118.7 170.65 121.1 169.4 125.05 169.4
L 125.05 170.15
Q 125.05 171.15 124.35 172.5 123.6 173.8 123.2 174.75 123.25 174.7 123.35 174.6 125.25 173 126.95 170.5 128.05 168.8 129.6 165.65 130.15 164.5 129.8 163.95 129.55 163.4 128.2 163.3 128.05 163.15 128.2 162.95 128.25 162.8 128.35 162.75 127.55 162.8 126.85 162.9 126.85 162.95 126.85 163 127.25 165 126.7 166.9 126.4 167.1 126.15 166.85 125.7 167.5 124.85 168.05 124.05 168.5 122.05 168.9 116.6 170 111.1 169.55
M 18.9 151.1
Q 16.95 150.25 16.05 149.15 15.1 147.9 13.7 142.4 13.5 147.9 13.8 153.35 15.2 154.5 18 156
L 33.45 163.65
Q 45.55 169.75 52.2 172.35 55 173.4 61.65 175.75 67.75 177.8 71 179.2 74.6 180.65 81.6 183.8 87.8 186.35 92.45 187.25 93.1 187.4 93.6 187.8 93.9 188.1 93.9 188.4 94.55 188.9 95.75 189.5 97.3 190.3 97.7 190.4 98.75 190.8 100.4 191.1 101.3 191.25 103.05 191.55 104.35 191.85 106.45 192.55 108.85 193.4 109.75 193.7 113.1 194.6 120 194.85 122.45 194.45 125.1 194.05 125.2 194.1 125.25 194.2 126.1 193.75 127.05 193.05 127.5 192.65 128 192.15 127.85 192.1 127.8 192.05 127.5 191.75 128.05 191.15 128.1 191.1 128.15 191 128 191 127.8 191 123.05 191.1 115.9 190.7 115.8 190.55 115.85 190.35 115.9 190.25 115.95 190.2 116 190.1 116.1 190.05 116.3 189.9 116.85 189.9
L 124.9 189.65
Q 127.1 189.45 129.6 189.25 130.05 189.05 130.9 188.3 132.25 187.1 132.7 186.35 133.05 185.7 133.5 184.4
L 134 183.2
Q 134.9 181.65 135 180.95 135 180.9 135 180.75 129.5 184.55 128.65 184.95 127.3 185.45 125.15 185.4 121.4 185.3 119.3 185.4 119.9 185.05 121.25 184.5 119.95 184.6 119.4 184.4 119.1 184.3 119.05 184.15 118.95 183.8 119.55 183.7 120.6 183.5 127.35 182 128.5 181.75 129.85 181.45 130.35 181.35 130.75 181.15 131.2 180.85 131.45 180.1
L 133.25 176.2
Q 133.95 174.95 134.4 174.45
L 135.2 173.3
Q 134.15 174.35 133.05 175.4
L 135.95 171.8 135.95 171.75
Q 136.65 170.25 137.9 168.8 137.85 168.75 137.8 168.7 137.55 168.75 137.2 168.7 136.8 168.65 136.5 168.65 133.25 173.65 130.2 176 126.8 177.95 125.35 178.9 124.55 179.45 124 181.1 123.65 182.15 121.25 182.65 118.6 183.2 115.45 184.05 113.25 187 109.9 191.2
L 109.45 191.2
Q 109.4 190.85 109.7 190.35 110.3 189.35 113.45 185.15 113.75 184.8 114.1 184.35 113.65 184.45 113.25 184.55 110.05 185.4 109.65 185.4 101.8 185.4 85.8 178.35 60.8 167.35 53.65 164.85 38.05 159.5 24.15 153.25 20.2 151.65 18.9 151.1
M 28.7 137.75
Q 24.7 139.3 23.45 139.55
L 23.45 140.6
Q 25.5 140.55 34.9 141.3 35.8 141.35 36.6 141.4 36 141.1 35.3 140.8 34.6 140.5 34.4 140.25 34.3 140.15 34.25 140.05 34.05 140.25 33.85 140.3 33.65 140.4 33.4 140.2 33.2 140 33.15 139.7 33 139.35 33.35 138.75 33.9 137.35 34.6 136.05 31.4 136.8 28.7 137.75
M 29.4 140.55
L 25.55 140.5
Q 25.55 140.1 26.15 140.1 29.15 139.95 32.55 139.35
L 32.85 139.6
Q 32.5 140.25 31.45 140.45 30.8 140.55 29.4 140.55
M 25.75 89.55
Q 25.55 90.35 24.95 91.4 24.35 93 23.75 94.6 31.3 102.1 36.4 108.5 39.2 112.1 41.7 115.75 43.9 110 46.8 104.7 47 104.3 47.25 103.95
L 45.4 102.2
Q 45.15 102 44.9 101.85 44.25 101.45 43.4 100.6 42.55 99.7 42.1 99.3 40.25 97.55 35.95 95.25
L 25.75 89.55
M 131.6 43.3
Q 131.15 42.15 131.1 41.8 130.85 41.75 130.65 41.75 130.4 41.7 130.3 41.65
L 128.55 43.45
Q 127.2 44.6 126.7 44.9 125.75 45.45 124.85 45.4 124.6 45.35 124.4 45.3
L 122.7 44.75
Q 122.35 44.65 122.1 44.35 120.8 46.45 119.3 48.45 119.1 48.85 118.85 49.3 118.75 49.55 118.6 49.8 116.55 54.15 115.25 56.2 113.75 58.65 111.8 60.75 111 61.65 110.5 61.9 113.5 57.9 114.8 55.7 115.8 54.05 117.45 50.65 116.95 51.2 116.45 51.8 109.65 59.2 101.25 54.4 100 53.6 98.8 52.55 95.05 49 92.3 45.1 92.7 46.4 92.85 48.45 93.4 49.65 93.95 50.85 94.65 52.3 96.15 55.1 96.95 56.85 98.55 60.4 100 63.45 101.4 65.35 100.75 65.1 100.25 64.2 99.35 62.75 96.8 57.6
L 94.35 52.45
Q 93.65 51 92.9 49.35 92.9 49.85 92.9 50.5 93.5 55.4 91.3 59.4
L 88.5 63.05
Q 89.35 64.2 90.15 65.35
L 90 65.5
Q 96.2 71.05 107.85 70.6 109.1 70.45 109.85 70.35 112.4 70 116 68.5
L 119.85 66.8
Q 123.35 65.65 126 63.6 126.05 63.45 126.15 63.35 127.55 61.4 131.2 57 131.55 56.05 131.95 55.15
L 130.15 58.05
Q 131.05 55.95 131.5 53.8 130.2 54.4 128.55 55.9 124.7 59.45 123.5 60.15 122.9 60.5 122.3 60.75 119.45 62.95 115.9 64.85 116.2 64.6 117.6 63.65 119.5 62.55 121.25 61.25 119.35 62.2 117.55 63.1 112.15 65.85 110.85 67.15
L 110.85 66.95
Q 111.55 66.5 115.2 61.4 119.3 55.75 120.5 52.8 121.1 51.2 122.4 51.05 125.2 50.75 127.1 49.95 129.95 48.8 130.9 48.2 131.45 47.85 131.9 47.3 131.9 47 131.85 46.7 131.85 46.65 131.85 46.55 131.95 45.85 131.95 45.5 132.05 44.35 131.6 43.3
M 94.95 59.95
Q 95.25 59.75 95.5 60.25 96.9 63 100.7 67.3 97.1 64.1 94.95 59.95
M 84.8 146.8
Q 83.2 146.05 83.2 144.95
L 83.15 145
Q 82.65 150.25 88.4 149.25 88.85 149.15 89.25 149.1 91.7751953125 148.94453125 93.55 148.25 94.75 147.8 98.05 146.35 97.7 146.4 97.35 146.45
L 97.15 146.5
Q 96.55 146.9 95.6 147 95.35 147 93.85 147 93.15 147 89.75 147.45 89.1646484375 147.53203125 88.6 147.55 86.4 147.6 84.8 146.8
M 76.1 155.8
Q 76.15 155.95 76.25 156.05 77.85 157.05 79.5 158
L 81 154.8 76.05 153.7 74.35 154.3 75.7 155.05 76.1 155.8
M 73.85 146.2
Q 73.65 146.3 73.45 146.45
L 72.6 149.5
Q 72.95 150.05 73.45 150.5 75.5 152.45 78.25 153.1 75.7 152.15 74.1 150.2 73.55 149.5 73.05 148.8
L 83.15 145 83.2 144.75
Q 78.3 144.3 73.85 146.2
M 192.45 143.75
Q 191 144.4 189.45 145 184.55 146.9 178.55 147.95 172.55 148.8 170.55 149.15 138.05 155.25 135.75 155.65 110.5 160.05 101.45 160.05 94.55 159.55 92 159.45 92.15 159.95 92.3 160.65 92.5 161.8 92.8 162.45 93.1 162.8 93.6 163.2
L 93.6 163.95
Q 93.9 164.45 94.3 164.95
L 94.15 165.1
Q 93.85 164.95 93.6 164.75
L 93.6 166.95
Q 87.7 164.55 84.7 163.2 82.6849609375 162.2658203125 81.4 161.5 80.95 161.15 80.5 160.85 79.4 160.15 79.3 158.85
L 75.35 157 74.9 158.05
Q 74.2404296875 159.747265625 74.7 160.75 74.9 161.15 75.55 161.9 75.65 162.1 75.7 162.35
L 76.15 162.55
Q 78.55 163.5 82.05 164.1 84 164.55 87.95 165.2 88.8 165.45 89 165.75 82.45 165.3 76.3 163.35 75.95 163.25 75.7 163.15 75.65 163.3 75.6 163.45 75.3 164.25 75.35 164.35 75.55 164.75 75.95 164.9 80.05 167.1 82.7 167.6 84.55 167.95 87.45 167.95 90.1 167.85 90.95 167.7 92.35 167.5 94.8 166.65 103.2 163.95 109 163.3 110.6 163.1 113.95 162.75 116.75 162.35 118.65 161.65 118.8 162.45 117.85 163.1 121.2 162.9 124.5 162 125.85 161.5 126.4 162.1 126.5 162.2 126.55 162.35 128.9 161.4 131.95 160.9 132.9 160.7 139.25 159.95 149.7 158.75 168.7 154.25 174.85 152.85 178.3 151.7 183.1 149.95 187.35 147.55 190.15 145.9 192.45 143.75
M 176.8 132.4
Q 175 131.8 172.45 130.15
L 171.25 129.35
Q 170.15 129.9 168.7 130.45 165.65 131.6 164.45 132.35 164.3 132.45 161.85 134.15 162.7 134.3 163.55 134.5 171.9 136.5 174.3 136.5 177.05 136.5 181.05 135.1 184.9 133.75 189.15 133.75 187.1 133.7 184.3 132.3 180.15 130.25 170.1 123.8
L 171.25 127.55
Q 171.4 128 171.4 128.35 172.25 128.3 172.9 128.45 172.5 128.7 172.05 128.95 175.85 132.15 180.85 132.4 181.5 132.5 181.55 132.8 179.35 133.25 176.8 132.4
M 174.9 132.2
Q 175.05 132.05 175.25 132.3 177.6 133.25 180.25 133.9 181.75 134.25 182.15 134.55
L 182 134.75
Q 178.25 134.05 174.65 132.45 174.55 132.2 174.9 132.2
M 177.15 96.65
L 178.7 95.05 174.45 98.6
Q 171.8 101 171.3 101.5 170.354296875 102.445703125 169.2 103.75 167.75 106.05 165.75 107.8 165.2 108.3 164.65 108.8
L 167.65 116.05
Q 167.734765625 116.233984375 167.8 116.4 167.9341796875 116.253125 168.05 116.1
L 168.35 115.75
Q 172.0796875 111.7005859375 179.4 103.5 183.9 98.4 187.3 94.85 186.4 93.1 185.35 91.45 185.15 90.85 185 90.45 184.85 90.6 184.7 90.75 184 91.45 182.6 92.25 180.55 94 177.9 96.75 174.1306640625 100.56484375 169.65 105.3
L 168.4 106.55 169.5 104.65
Q 170.7970703125 103.201171875 172.6 101.3 176.35 97.45 177.15 96.65 Z"/>

<path fill="#82B4FF" stroke="none" d="
M 145.6 164.85
L 142.25 164.4
Q 140.25 167.4 138 170.15 137.95 170.2 137.9 170.25 137.8 170.7 137.6 171.15 139.1 169.55 140.8 167.8 141.55 167.15 141.95 167.05 141.9 167.15 141.45 167.7
L 137.9 171.45
Q 137.5 171.95 137.15 172.35 137.05 172.55 136.85 172.75 136.45 173.7 136.15 174.15
L 135.25 175.45
Q 134.75 176.25 134.1 177.55
L 134.8 177.5
Q 135.2 177.5 135.35 177.6
L 135.6 177.9 135.95 178.55
Q 136.05 179 136 179.9
L 136.25 180.75
Q 136.45 181.35 136.35 181.65 136.15 182.25 135.75 182.2 135.5 182.65 135.05 183.7 134.9 184 134.55 185.1
L 134.25 185.85
Q 134.05 186.65 133.8 187.25 133.95 187.05 134.15 186.9 134.85 186.55 136.25 185.85 137.05 185.35 138.3 184.15 138.9 183.7 140.35 182.95 141.15 182.5 142.7 181.35 143.6 180.85 145.45 179.95 146 179.65 147.15 178.75 147.6 178.35 148 178.05 147.3 177 147.1 176.65 145.5 173.6 146.45 171.4 146.75 170.8 146.8 170.5 146.9 169.9 146.5 168.95 145.8 167.8 145.75 167.45 145.65 166.85 145.95 165.8 146.1 165.2 146.2 164.85 145.95 164.85 145.6 164.85
M 47.25 172.05
Q 46.9 171.9 46.7 171.75 46.7 172.55 46.35 173.45 46.25 173.7 45.35 175.05 44.8 176 44.7 176.65 44.7 176.85 44.85 178.05 44.95 179 44.7 179.45 44.5 179.65 44.4 179.8 44.85 179.85 45.25 180.1 45.65 180.3 46.45 180.9 46.85 181.15 48.1 181.75 49.2 182.25 49.7 182.75 49.6 182.85 49.5 182.9 59.2 188.3 69.65 192 75.05 193.95 79.15 194.85 89.4 197.3 102.05 196.75 104.3 196.65 106.7 196.5 98.7 194.2 88.4 190.2 82.05 191.45 75.55 190.95 76.9 190.4 80.1 190.4 83.85 190.3 87.4 189.75 85.05 188.85 82.65 187.8 82.2 187.8 81.7 187.75 72.8 187.1 68.25 186.45 60.8 185.35 55.2 183.15 55.35 182.75 56.3 183 63.4 185.5 73.9 186.5 76.8 186.75 80.95 187.1 78.45 186.1 75.8 184.95
L 47.25 172.05
M 131.3 164.5
Q 131.25 165.2 130.8 166.15 129.2 169.6 128.1 171.4 127.25 172.65 126.35 173.65 126 174.05 125.65 174.45 126.05 174.3 126.55 174.25 127.85 174.05 128.55 173.5 129.2 173 130.15 171.55 130.3 171.3 130.45 171.1 132.05 168.8 133.55 167.95 134.7 167.35 135.95 167.45 136.6 167.45 137.15 167.65 137.75 167.9 138.15 168.35 138.05 168.6 137.8 168.7 137.85 168.75 137.9 168.8
L 137.95 168.75 138.3 168.75
Q 138.3 168.8 138.3 168.9
L 140.95 165.6
Q 141.9 164.65 142.2 164.4
L 130.45 162.95
Q 131.3 163.55 131.3 164.5
M 56.2 111.85
Q 56.25 112.45 56.35 113.8
L 56.8 115.4
Q 57.05 116.35 57.1 118.15 57.2 120.05 57.3 120.8 57.5 121.65 57.9 123.55 57.95 124.25 57.65 126.1 57.3 127.75 57.6 128.7 57.75 129.35 58.65 131.2 59.5 132.7 59.4 133.7
L 58.8 133.7
Q 58.6 133.2 58.2 132.6 57.8 133.8 57.75 134.15 57.75 134.9 57.95 135.35 58.2 136.1 58.25 136.25 58.5 136.1 58.95 135.85 59.2 135.75 59.45 135.8 59.75 135.9 59.85 136.2 58.85 137.45 57.25 137.75
L 56.75 139.85
Q 56.65 140.5 56.75 142.55 56.75 143.2 56.6 143.45 56.4 143.85 55.5 144.25 55.1 145.95 55.25 147.55 55.35 148.15 55.2 148.4 55.05 148.8 54.35 149 53.3 149.35 53 149.6 52.55 150 52.05 151.25
L 51.95 151.65 57.75 156.5
Q 60.35 158.65 61.7 159.6 63.25 160.6 65.8 161.9 70.1 163.85 73.85 164.85 73.8 164.65 73.8 164.45 73.8 164.2 74.05 163.55 74.3 163 74.2 162.65 74.15 162.45 73.5 161.75 72.75 160.7 73.4 158.5 73.6314453125 157.6609375 73.95 157.1
L 74.75 156.3 73.45 155.3 73.35 153.95 71.85 154.05
Q 71.4861328125 154.1064453125 71.05 154.15 68.55 154.35 63.4 154.05 63.25 153.6 63.95 153.6
L 70.65 153.45
Q 70.95 153.45 71.25 153.45
L 65.9 151.95 63.6 151
Q 62 150.4 61.2 149.85 59.95 149.1 59.6 147.95 59.5 147.35 59.75 147.25 59.95 147.1 60.25 147.35 60.5 147.6 60.95 148.15 62 149.35 64.9 150.4
L 68.4 151.7 71.15 152.35 73.5 152.55
Q 70.65 151 72.1 147.85 72.55 146.95 72.45 145.8
L 70.8 145.3
Q 62.6736328125 142.5578125 61.35 138.45 62.2 138.1 69.7 135.9 76.5 133.85 77.8 132.75 76.1 131.95 74.45 131.05 71.7 129.5 68.2 126.55 66.15 125 65.25 123.75 64.55 122.8 64.2 121.95 61.6 119 59.35 115.65 57.35 112.65 56 110 56.2 111.15 56.2 111.85
M 54.6 72.3
Q 54.6 71.65 55 71.65 55.3 71.65 55.3 72.3
L 55.25 78.9 55 80.4
Q 54.6 82.25 53.65 85.65 53.9 85.75 53.9 86.25 54.35 89.45 53.1 92.75 52.9 93.15 52.85 93.4
L 52.85 93.45
Q 53.1 94.15 53.35 94.75 53.4 94.85 53.45 95.15 54.2 97.05 54.3 97.65 54.4 97.45 54.55 97.3 55.35 96.6 57.55 95.05 61.8 91.55 61.8 85.3 61.55 80.9 60.55 76.4 58.6 67.45 55.05 65.5 54.35 66.15 52.45 70.05 52.15 70.6 51.95 71 53.35 77.15 53.5 83.45 54.1 81.2 54.3 80.25
L 54.55 78.8
Q 54.6 78.4 54.6 76.35
L 54.6 72.3
M 24.55 87.7
Q 24.85 87.7 25.25 87.9
L 37.1 94.15
Q 39.95 95.65 41.2 96.65 41.95 97.2 43.75 98.8 45.25 100.3 46.25 100.9 46.5 101 46.7 101.15
L 48.1 102.9 48.85 103.15 50.15 100.6 50.65 98.15
Q 50.65 96.85 50.75 96.15
L 52.2 90.85 51.95 91
Q 51.75 91 51.75 90.55 52 88.95 52.7 86.5 51.65 79.7 48.75 73.3 48.05 72.7 47.5 72.2 46.5 77.7 48.75 82.95 48.9 83.25 48.8 83.7
L 46.65 79.15
Q 45.65 75.3 46.8 71.5 44.9 69.7 44.2 68.2
L 44.2 68.65
Q 42.9 74.9 42.55 85.45 42.5 88.2 41.95 89.1 41.35 90.25 39.45 90.25 37.85 90.25 37.05 89.9 35.8 89.3 33.8 88.6 36.8 90.2 40.6 92.3 41.05 92.55 41 92.8
L 33 88.4
Q 32.75 88.3 32.65 88.15 31.75 87.85 30.8 87.5 33.6 89.25 35.3 90.2 36.9 91 40.3 92.55 43.2 94 44.95 95.55 45.05 95.65 45.05 95.8 45.1 95.95 44.95 95.95 42.4 94.15 41.1 93.35 38.15 92.05 36.75 91.4 33.75 89.95 28.85 86.8 26.9 86.15 24.55 85.35 24.55 86.2 24.55 87.7
M 150.05 94.05
Q 150.8 91.4 151.6 89.65 151.5 89.6 151.65 89.15
L 151.85 88.75
Q 151.9 88.1 152.15 87.35
L 152.35 86.9
Q 149.05 90.9 146.05 93.9 144.5 95.4 142.25 97.55 139.3 102.2 135.9 105 135.75 104.55 136.4 103.7 138.4 101.8 139.95 99.7 138.45 101.05 136.7 102.7 131.3 107.7 130.8 108.3 132.55 108.55 134.95 108.65 139.3 103.45 144.45 99.05 144.5 99.55 143.75 100.35 139.45 104.05 135.55 108.65 137.1 108.7 138.85 108.7 138.85 109.2 139.3 111.55 139.75 114 139.75 114.6 139.75 116.65 136.8 118.45 132.4 120.65 129.4 122.25 130.8 127.05 141.05 132.2 141.25 132.3 141.4 132.4 142.5 129.15 144.1 125.45 145.15 123.35 145.35 122.7 146.55 119.5 146.2 112.45 145.85 105.55 147.05 102.25
L 148.25 99.5
Q 148.85 98.05 150.05 94.05
M 141.35 38.65
Q 140.4 38.55 138.95 38.9 138.15 39 137.7 39.25
L 136.85 39.55
Q 136.7 39.55 136.6 39.55 136 40.1 135.35 40.5 135 40.7 134.65 40.9 134.7 40.9 134.75 40.95 134.8 40.95 134.8 41 135 41.15 135.2 41.55 136.35 43.55 136.65 46.35 136.9 48.25 136.8 51.4 136.8 52.5 136.65 53.6 136.45 55.95 135.25 59.3 133.9 63.25 131.95 66.65 130.9 68.45 129.95 68.85 131.95 65.75 134.3 59.55
L 135.4 56.2
Q 136.05 53.6 136.05 49.45 136.05 44.3 134.45 41.65 134.25 41.4 134.1 41.2 133.2 41.6 132.2 41.75 132.35 42.25 132.85 43.25 133.15 43.85 133.15 44.9 133.15 45.9 133.2 46.45 133.7 50.15 133.25 53.3 133.2 53.75 133.05 54.25 131.55 62.05 123.85 66.4 123.75 66.45 123.65 66.5 122.3 67.15 121 67.75
L 117.85 69.25
Q 113.65 71.2 111.4 71.6 109.25 72.1 106 72.05 95.2 72.85 87.85 65.25 87.6 65 87.5 64.7
L 82.25 68.3
Q 81.9 68.4 81.55 68.55 80.05 69.15 78.45 68.7 80.2 68.1 81.6 67.05 85 64.35 85.25 60.2 85.3 59.85 85.35 59.5 85.35 59.4 85.35 59.3 85.45 56.2 84.7 53.3 84.55 52.75 84.25 52.2 81.85 54.95 78.15 55.9 76.05 56.35 73.9 56.55 72.55 56.7 71.15 56.3 75.95 59 81.25 58.6
L 80.6 59 81.05 59.3
Q 80.4 59.5 79.85 59.7 74.15 61.25 68.55 59.4 68.5 59.5 68.45 59.7 68.75 59.65 68.85 60.05 68.95 60.35 68.95 60.8 69.05 61.1 69.5 62.15 72.5 67.5 74.55 70.8 75 71.6 80.55 79.9 81.15 80.9 81.75 81.75 84.15 85.5 85.75 88.35 85.95 88.75 86.15 89.15 86.3 89.6 86 89.5 85.7 89.15 85.3 88.7 84.3 89.4 82.8 90.1 80.25 91.2 78.9 91.2
L 78.9 91.6 83 91.6
Q 86.2 91.75 92.6 89 95.7 87.7 98.6 86.3 98.7 86 98.75 85.75
L 98.75 86.2
Q 98.65 86.25 98.6 86.3 97.6 88.75 92 94.7 85.75 101.5 85.2 103.3
L 89.75 103.3
Q 97.85 99.9 104.2 96.45
L 116 86.9
Q 116.55 86.55 116.55 86.9 112.3 90.65 107.95 94.25 112.6 91.4 116.05 88.55 117 87.45 118.05 86.35 118.45 85.8 118.8 86 119.5 85.25 120.1 84.55 122.6 81.75 124.9 77.8 127 74.15 128.05 73.1 129.2 73.95 129.7 75.05 130.2 76.2 130.8 76.7 136.3 70.75 138.05 65.85 139.25 62.4 139.25 56.4 139.25 54.9 138.6 52.65 137.9 50.35 137.9 49.65
L 137.9 49.25
Q 138.35 49.05 141.65 47.9 145.25 46.65 152.4 43.35 152.75 43.2 153.2 42.95
L 153.2 42.9
Q 153.1 42.7 153.2 42.55 153.35 42.3 153.75 42.25
L 153.1 41.95
Q 152.4 41.6 151.8 41.2 151.6 41.2 151.45 41.15 151.15 40.95 150.9 40.65 150.85 40.6 150.85 40.5 150.45 40.2 150.1 40.15 149.65 40.05 148.75 40.25
L 146 40.9
Q 145.2 41 143.6 40.9 143.6 40.7 143.25 40.7 142.85 40.65 142.45 40.15
L 141.35 38.65
M 116.2 73.95
L 116.25 73.95
Q 116.8 73.8 117.3 73.65 118.1 73.05 118.9 72.35 118.95 72.25 119.1 72.15
L 122.45 68.85 124.45 67.35 119.6 72.05
Q 118.7 72.8 118.05 73.4 119.4 72.85 120.65 72.35 120.9 72.25 121.25 72.25 119.7 74.35 116.65 76.2 115.75 76.7 114.85 77.2 110.75 79.05 106.2 79.1 102 79.4 98.2 77.9 98 77.8 97.8 77.75 100.2 79.75 102.55 81.65 103 82 103.05 82.25 102.8 82.4 102.4 82.05 99.1 79.6 96.3 77.2 96.3 77.15 96.25 77.15 94.5 76.4 93.1 75.85 92.45 75.5 92 74.6
L 91.3 74.35
Q 91.5 74.15 91.75 74
L 92.55 73.75 88.1 69.15
Q 90.05 70.2 91.4 72.05 92.9 74.05 95.4 74.55
L 96.5 74.7
Q 100.25 75.55 104.1 75.6 109.9 75.65 115.45 74.2 116.85 73.3 118 72.15 118.6 71.55 119.05 71.55 119.1 71.75 118.7 71.9
L 117.95 72.45
Q 117.224609375 73.175390625 116.2 73.95
M 88.15 73.4
Q 88.4 73.2 88.75 73.55 92.45 77.15 95.95 79.5 95.65 79.75 95.2 79.35 91.3 76.45 88.15 73.4
M 168 65.4
Q 166.9 68.2 165.9 69.95 165.3 71.2 163.75 73.5 160.75 78.1 159.1 80.3 158.75 80.95 158.4 81
L 163.35 73.4
Q 164.9 70.95 165.65 69.65
L 167.2 66.4
Q 165.2 68.9 162.6 72.8 158.1 79.6 154.05 84.8
L 153.45 86.55
Q 153.2 87.4 153.05 88.05
L 153.45 87.45
Q 153.8 87 154.7 86.35 154.8 86.25 155.3 85.55 155.7 85 156 84.8 156.25 85.6 155.5 86.6
L 154.55 87.7
Q 154.6 87.8 154.6 88.2 154.65 88.8 155.1 89.5 155.35 89.95 155.9 90.7 157 92.4 157.75 96 161.4 96.75 164 96.55 164.378515625 96.5263671875 165 96.4
L 165.95 96.25
Q 166.2896484375 96.2181640625 166.65 96.15 167.65 95.95 168.75 95.75 169.4 94.75 170.1 93.5 167 94.4 163.75 95.05 163.3 95.15 163.15 94.85 163 94.65 163.25 94.35 163.5 94.2 163.75 94.2 167.35 93.4 170.8 92.4 172.05 90.15 173.55 87.1
L 173.95 86.65
Q 173.6 86.8 170.8 88.85 168 90.85 167.65 91.2 167.65 89.75 170.4 80.35 173.1 70.95 173.1 67.25 173.1 66.3 172.85 64.5 172.5 62.5 172.2 61.9 170.7 62.2 168 65.4
M 168.3 70.75
Q 165 77.75 162 81.15
L 168.3 70.75 Z"/>

<path fill="#FFFFFF" stroke="none" d="
M 75.35 153.45
L 74.55 153 74.4 152.95
Q 74.8 153.2 75.35 153.45 Z"/>

<path fill="#FFDAAD" stroke="none" d="
M 127.5 189.55
Q 128.95 189.55 129.6 189.25 127.1 189.45 124.9 189.65
L 127.5 189.55
M 131.1 57.15
Q 131.15 57.1 131.2 57 127.55 61.4 126.15 63.35 126.05 63.45 126 63.6 129.2 61.05 131.1 57.15
M 93.6 163.95
L 93.6 163.2
Q 93.1 162.8 92.8 162.45 92.85 162.65 92.95 162.8 93.15 163.35 93.6 163.95
M 83.2 144.95
L 83.2 144.75 83.15 145 83.2 144.95 Z"/>

<path fill="#F0FFFC" stroke="none" d="
M 47.5 72.2
Q 48.05 72.7 48.75 73.3 48.2 72.25 47.7 71.2 47.6 71.65 47.5 72.2
M 98.6 86.3
Q 98.65 86.25 98.75 86.2
L 98.75 85.75
Q 98.7 86 98.6 86.3 Z"/>

<path fill="#B2D1FF" stroke="none" d="
M 167.2 66.4
L 169.2 62.15
Q 168.55 63.9 168 65.4 170.7 62.2 172.2 61.9 172.5 62.5 172.85 64.5 173.1 66.3 173.1 67.25 173.1 70.95 170.4 80.35 167.65 89.75 167.65 91.2 168 90.85 170.8 88.85 173.6 86.8 173.95 86.65
L 173.55 87.1
Q 172.05 90.15 170.8 92.4 172.5 91.8 174.25 91.2 176.15 90.5 178.05 89.55 179.95 88.65 182.4 86.95 183.15 86.45 183.55 86.35 183.65 86.65 183.2 87 181.7 88.25 181 88.85 179.95 89.65 177.3 90.9 173.8 92.45 170.1 93.5 169.4 94.75 168.75 95.75 174.35 94.5 179.95 91.9 181.2 91.4 182.1 90.75
L 183.55 89.6
Q 183.45 89.4 184 89.05 184.3 88.9 184.6 88.8
L 184.7 88.65
Q 185.05 88.05 185.05 86.4 185.05 85.3 184.7 84.6 184.1 84.05 183.85 83.75 183.65 83.55 183.1 82.3 182.3 81.05 182.1 80.3
L 181.6 77.35 181.25 76.45
Q 181.1 75.85 181.1 75.15
L 181.05 74.6 180.9 78.8
Q 180.9 79.1 180.7 79.35 180.45 79.65 180.25 79.45
L 180.15 71.8
Q 180.15 69.15 179.9 67.7 179.6 65.4 178.5 63.9 177.7 63.8 177.35 64.5 178.75 69.25 179.05 72.55 179.2 73.7 179.4 74.45
L 179.15 74.45
Q 178.75 75.55 178.6 76.85 178.35 76.35 178.2 76.05 177.75 75.2 177.55 72.85 177.2 68.8 174.7 61.2 172.85 55.3 171.05 52.45 168.35 48.3 163.75 45.8 159.25 43.35 154.25 43.4 153.7 43.4 153.45 43.25 153.25 43.2 153.2 42.95 152.75 43.2 152.4 43.35 145.25 46.65 141.65 47.9 138.35 49.05 137.9 49.25
L 137.9 49.65
Q 137.9 50.35 138.6 52.65 139.25 54.9 139.25 56.4 139.25 62.4 138.05 65.85 136.3 70.75 130.8 76.7 130.2 76.2 129.7 75.05 129.2 73.95 128.05 73.1 127 74.15 124.9 77.8 122.6 81.75 120.1 84.55 119.5 85.25 118.8 86 118.8 86.15 118.6 86.35
L 114.55 90.65
Q 113.15 92 108.35 96.6
L 106.25 98.55 106.1 98.6 106 98.5
Q 110.8 94.05 116.05 88.55 112.6 91.4 107.95 94.25 100.75 100.15 93.15 105.55 93.45 105.1 94.2 104.45
L 104.2 96.45
Q 97.85 99.9 89.75 103.3
L 85.2 103.3
Q 85.75 101.5 92 94.7 97.6 88.75 98.6 86.3 95.7 87.7 92.6 89 86.2 91.75 83 91.6
L 78.9 91.6 78.9 91.2
Q 80.25 91.2 82.8 90.1 84.3 89.4 85.3 88.7 84.45 87.6 83.3 85.9 80.3 81.55 78.2 78.45 76.55 76.05 75.5 74.35 71.3 67.9 68.5 62.45 68.2 61.9 68.1 61.4 67.9 60.7 68 60.15 68.1 59.75 68.35 59.7 68.4 59.7 68.45 59.7 68.5 59.5 68.55 59.4 67.35 58.95 66.2 58.4 65.55 58.1 64.85 57.65 64.7 57.55 64.55 57.5 61.6 55.7 59.5 52.9 56.9 49.65 56.5 47 56 44.7 56.85 41.8 57 41.35 57.2 40.8
L 50.35 44.6
Q 43.45 48.4 40.35 50.95 35.15 55.45 33.75 60.65 33.45 61.85 32.95 65.2 31.45 75 26.85 80.3 25.45 82 25.2 82.4 24.65 83.5 24.55 85.25 24.55 85.3 24.55 85.35 26.9 86.15 28.85 86.8 28.3 86.5 27.75 86.15 27.35 85.8 27.4 85.55 27.8 85.65 28.65 86.15 29.8 86.85 30.8 87.5 31.75 87.85 32.65 88.15 32.55 88.05 32.55 87.95 33.2 88.25 33.8 88.6 35.8 89.3 37.05 89.9 37.85 90.25 39.45 90.25 41.35 90.25 41.95 89.1 42.5 88.2 42.55 85.45 42.9 74.9 44.2 68.65
L 44.2 68.2
Q 44.9 69.7 46.8 71.5 46.9 71.15 47 70.8 47.1 70.5 47.4 70.3 49.2 71.8 50.4 73.95 50.85 74.8 51.3 75.75 51 74.35 50.9 73 50.65 70.1 50.95 67.25 51.55 69.1 51.95 71 52.15 70.6 52.45 70.05 54.35 66.15 55.05 65.5 58.6 67.45 60.55 76.4 61.55 80.9 61.8 85.3 61.8 91.55 57.55 95.05 55.35 96.6 54.55 97.3 54.4 97.45 54.3 97.65 54.3 97.7 54.3 97.75 54.3 98.25 54.15 98.9 54.35 99.85 54.6 100.85 55.15 102.45 55.25 103.45 55.25 103.5 55.4 106.1
L 55.75 108.35
Q 55.9 109.25 56 110 57.35 112.65 59.35 115.65 61.6 119 64.2 121.95 63.8 121 63.7 120.05 64 119.85 64.2 120.15
L 64.4 120.7
Q 64.75 122.85 67.9 125.45 71.05 128.3 73.75 129.85 77.5 132.2 83.35 134.2 83.8 134.4 83.75 134.7 80.7 133.95 77.8 132.75 76.5 133.85 69.7 135.9 62.2 138.1 61.35 138.45 62.6736328125 142.5578125 70.8 145.3
L 72.45 145.8 72.9 144.75 73.3 145 73.4 145.55 75.6 144.45 72.45 143.55
Q 72.411328125 143.523046875 72.35 143.5 69.15 142.45 66.55 141.1 64.65 140.25 64.2 139.2 63.95 138.9 64.05 138.4 64.25 137.8 64.7 138 64.9 138.05 65.2 138.55 65.75 139.5 67.95 140.35 71.3953125 141.785546875 73.85 142.5 77.65 143.5 81.55 143.3 82.95 143.2 84.3 143.05 84.49296875 143.0552734375 84.65 143
L 84.9 142.95
Q 86.25 142.6400390625 88.6 141.7 90.4 141.15 93.4 140.75 97.3 140.35 98.2 140.2 99.2 140 101.6 139.45 103.7 138.95 104.95 138.75 106.5 138.4 107.3 138.85
L 102.6 140.35
Q 102.5 140.4 102.45 140.4 102.75 140.45 103.4 140.4 104.1 140.35 104.4 140.35 105 140.45 106.05 140.85 106.65 140.95 107.85 140.95 109.05 141 111.2 141.85 112.1 142.05 113.95 142.3 114.75 142.55 116.45 143 117.6 143.25 119.3 143.25 123.05 143.4 125.15 143.3 128.45 143.2 130.95 142.6 131.75 142.3 132.05 142.75 131 143.4 129.75 143.9
L 130.9 143.9
Q 131.1 143.85 131.3 143.8 136.35 142.95 140.6 141.9 140.4 141.7 140.35 141.2 140.15 138.45 140.3 137.1 140.4 135.3 141.3 132.7 141.35 132.55 141.4 132.4 141.25 132.3 141.05 132.2 130.8 127.05 129.4 122.25 132.4 120.65 136.8 118.45 139.75 116.65 139.75 114.6 139.75 114 139.3 111.55 138.85 109.2 138.85 108.7 137.1 108.7 135.55 108.65 135.3 108.9 135.1 109.2 134.15 110.45 133.35 110.55 134.1 109.6 134.95 108.65 132.55 108.55 130.8 108.3 131.3 107.7 136.7 102.7 138.45 101.05 139.95 99.7 140.35 99.15 140.7 98.55 142.25 96.5 144.5 91.95 144.65 91.6 144.9 91.55 145 91.45 145.15 91.55 145.3 91.6 145.3 91.75 143.85 94.95 142.25 97.55 144.5 95.4 146.05 93.9 149.05 90.9 152.35 86.9
L 154.25 81.35
Q 156.6 76.8 159.8 72.8 160.1 72.55 160.25 72.65 160.15 73.3 159.15 74.85 158.3 76.1 156.25 79.95
L 154.1 84.55 154.05 84.8
Q 158.1 79.6 162.6 72.8 165.2 68.9 167.2 66.4
M 69.4 76.6
Q 68.6 76.05 68.25 75.4 68.7 75.45 69.4 76.1 73.2 79.25 77 83.1 78.85 85 79.4 86.25 74.9 81.45 69.4 76.6
M 80.55 135.6
L 80.6 135.8
Q 80.4 136.05 80.1 135.9 77.5 135.4 75.15 134.85
L 75.15 134.6
Q 75.3 134.6 75.3 134.45
L 80.55 135.6
M 138.25 110.65
Q 138.55 110.35 138.8 110.35
L 135.9 113.5 135.75 113.5
Q 135.75 113.25 136.1 112.8
L 138.25 110.65 Z"/>
</g>

<g id="Layer1_2_FILL">
<path fill="#F24321" fill-opacity="0.4980392156862745" stroke="none" d="
M 64.75 139.15
Q 47.25 156.65 47.25 181.35 47.25 206 64.75 223.45 82.25 241 106.9 241 131.6 241 149.05 223.45 166.55 206 166.55 181.35 166.55 156.65 149.05 139.15 131.6 121.7 106.9 121.7 82.25 121.7 64.75 139.15
M 57.6 181.35
Q 57.6 160.9 72 146.45 86.5 132 107 132 127.4 132 141.85 146.45 156.3 160.9 156.3 181.35 156.3 201.8 141.85 216.25 127.4 230.7 107 230.7 86.5 230.7 72 216.25 57.6 201.8 57.6 181.35
M 75.1 149.5
Q 61.95 162.7 61.95 181.3 61.95 199.95 75.1 213.1 88.3 226.3 106.95 226.3 125.55 226.3 138.7 213.1 151.9 199.95 151.9 181.3 151.9 162.7 138.7 149.5 125.55 136.35 106.95 136.35 88.3 136.35 75.1 149.5 Z"/>
</g>
</defs>

<g transform="matrix( -0.6728973388671875, -0.0920867919921875, -0.0920867919921875, 0.6728973388671875, 205.4,25.15) ">
<g transform="matrix( 1, 0, 0, 1, -0.05,0) ">
<g transform="matrix( 1, 0, 0, 1, 0,0) ">
<use xlink:href="#flash0_ai_04_Fonte__Clip_Group__0_Layer3_0_FILL"/>
</g>

<mask id="Mask_Mask_1">
<g transform="matrix( 1, 0, 0, 1, 0,0) ">
<use xlink:href="#Mask_flash0_ai_04_Fonte__Clip_Group__0_2_MASK_0_FILL"/>
</g>
</mask>

<g mask="url(#Mask_Mask_1)"/>
</g>
</g>

<g transform="matrix( 1, 0, 0, 1, 0,0) ">
<use xlink:href="#Layer1_1_FILL"/>
</g>

<g transform="matrix( 0.7208709716796875, 0, 0, 0.7208709716796875, 21.2,11) ">
<use xlink:href="#Layer1_2_FILL"/>
</g>
</svg>
