<svg xmlns="http://www.w3.org/2000/svg" width="127.315" height="181.167" viewBox="0 0 127.315 181.167">
  <g id="Atualização_em_Fitoterapia_-_Aspectos_Clínicos_-_Telas-20" data-name="Atualização em Fitoterapia - Aspectos Clínicos - Telas-20" transform="translate(-0.93 -3.83)">
    <g id="Grupo_7833" data-name="Grupo 7833" transform="translate(27.617 130.066)">
      <path id="Caminho_10206" data-name="Caminho 10206" d="M28.6,100.53a4.838,4.838,0,0,1-.33,1.812,4.166,4.166,0,0,1-.934,1.414,4.121,4.121,0,0,1-1.442.92,5.153,5.153,0,0,1-1.881.33H20.57V96.04h3.446a5.154,5.154,0,0,1,1.881.33,4.165,4.165,0,0,1,2.375,2.348,4.817,4.817,0,0,1,.33,1.8Zm-1.909,0a4.012,4.012,0,0,0-.179-1.263,2.664,2.664,0,0,0-.535-.947,2.473,2.473,0,0,0-.838-.6,2.938,2.938,0,0,0-1.126-.206H22.437v6.055h1.579a2.889,2.889,0,0,0,1.126-.206,2.192,2.192,0,0,0,.838-.6,2.611,2.611,0,0,0,.535-.961,4.1,4.1,0,0,0,.179-1.277Z" transform="translate(-20.57 -95.944)" fill="#cda45e"/>
      <path id="Caminho_10207" data-name="Caminho 10207" d="M36.216,100.556a4.962,4.962,0,0,1-.33,1.826,4.342,4.342,0,0,1-.934,1.455,4.215,4.215,0,0,1-1.442.961,5.326,5.326,0,0,1-3.762,0,4.41,4.41,0,0,1-1.455-.961,4.343,4.343,0,0,1-.934-1.455,5.225,5.225,0,0,1,0-3.652,4.342,4.342,0,0,1,.934-1.455,4.273,4.273,0,0,1,1.455-.961,5.326,5.326,0,0,1,3.762,0,4.215,4.215,0,0,1,1.442.961,4.343,4.343,0,0,1,.934,1.455,4.941,4.941,0,0,1,.33,1.812Zm-1.895,0a4.012,4.012,0,0,0-.179-1.263,2.664,2.664,0,0,0-.535-.947,2.352,2.352,0,0,0-.851-.6,3.18,3.18,0,0,0-2.252,0,2.352,2.352,0,0,0-.851.6,2.664,2.664,0,0,0-.535.947,4,4,0,0,0-.192,1.263,3.645,3.645,0,0,0,.192,1.263,2.664,2.664,0,0,0,.535.947,2.318,2.318,0,0,0,.851.59,3.18,3.18,0,0,0,2.252,0,2.493,2.493,0,0,0,.851-.59,2.664,2.664,0,0,0,.535-.947A4.012,4.012,0,0,0,34.321,100.556Z" transform="translate(-18.16 -95.97)" fill="#cda45e"/>
      <path id="Caminho_10208" data-name="Caminho 10208" d="M46.861,96.05l-2.774,8.966H42.412l-1.84-5.863c-.027-.082-.055-.178-.082-.275s-.055-.206-.082-.316c-.027.11-.055.22-.082.316s-.055.192-.082.275l-1.854,5.863H36.714L33.94,96.05h1.552a.716.716,0,0,1,.4.11.546.546,0,0,1,.22.3l1.387,5.053c.027.137.069.288.1.453a5.075,5.075,0,0,1,.1.522c.041-.178.069-.357.11-.522a3.54,3.54,0,0,1,.137-.453l1.62-5.053a.519.519,0,0,1,.22-.275.654.654,0,0,1,.4-.124h.549a.717.717,0,0,1,.4.11.565.565,0,0,1,.22.288l1.606,5.053a3.86,3.86,0,0,1,.137.426q.062.227.124.494c.027-.178.069-.343.1-.494s.069-.3.1-.426l1.387-5.053a.518.518,0,0,1,.206-.288.654.654,0,0,1,.4-.124h1.455Z" transform="translate(-15.582 -95.94)" fill="#cda45e"/>
      <path id="Caminho_10209" data-name="Caminho 10209" d="M51.759,96.05v8.966H50.8a.992.992,0,0,1-.371-.069.681.681,0,0,1-.288-.247l-4.463-5.685c0,.137.027.288.027.426v5.575H44.07V96.05h1.181a.487.487,0,0,1,.151.041.379.379,0,0,1,.124.1,1.652,1.652,0,0,1,.137.151l4.5,5.712-.041-.453a4.111,4.111,0,0,1,0-.412V96.064h1.634Z" transform="translate(-11.803 -95.94)" fill="#cda45e"/>
      <path id="Caminho_10210" data-name="Caminho 10210" d="M56.368,103.506v1.51H51.04V96.05h1.854v7.456h3.46Z" transform="translate(-9.202 -95.94)" fill="#cda45e"/>
      <path id="Caminho_10211" data-name="Caminho 10211" d="M64.346,100.556a4.962,4.962,0,0,1-.33,1.826,4.342,4.342,0,0,1-.934,1.455,4.215,4.215,0,0,1-1.442.961,5.326,5.326,0,0,1-3.762,0,4.41,4.41,0,0,1-1.455-.961,4.343,4.343,0,0,1-.934-1.455,5.225,5.225,0,0,1,0-3.652,4.342,4.342,0,0,1,.934-1.455,4.273,4.273,0,0,1,1.455-.961,5.326,5.326,0,0,1,3.762,0,4.215,4.215,0,0,1,1.442.961,4.343,4.343,0,0,1,.934,1.455,4.941,4.941,0,0,1,.33,1.812Zm-1.895,0a4.012,4.012,0,0,0-.179-1.263,2.664,2.664,0,0,0-.535-.947,2.352,2.352,0,0,0-.851-.6,3.18,3.18,0,0,0-2.252,0,2.351,2.351,0,0,0-.851.6,2.664,2.664,0,0,0-.535.947,4,4,0,0,0-.192,1.263,3.645,3.645,0,0,0,.192,1.263,2.664,2.664,0,0,0,.535.947,2.318,2.318,0,0,0,.851.59,3.18,3.18,0,0,0,2.252,0,2.493,2.493,0,0,0,.851-.59,2.663,2.663,0,0,0,.535-.947A4.012,4.012,0,0,0,62.451,100.556Z" transform="translate(-7.665 -95.97)" fill="#cda45e"/>
      <path id="Caminho_10212" data-name="Caminho 10212" d="M70.768,105.016H69.326a.716.716,0,0,1-.4-.11.737.737,0,0,1-.22-.288l-.6-1.716h-3.57l-.6,1.716a.672.672,0,0,1-.22.275.614.614,0,0,1-.384.124H61.87l3.5-8.966h1.895l3.5,8.966Zm-3.117-3.405-.975-2.746a5.286,5.286,0,0,1-.178-.508,5.878,5.878,0,0,1-.178-.632c-.055.233-.124.439-.178.645s-.124.371-.178.508L65,101.611h2.664Z" transform="translate(-5.162 -95.94)" fill="#cda45e"/>
      <path id="Caminho_10213" data-name="Caminho 10213" d="M76.993,100.53a4.838,4.838,0,0,1-.33,1.812,4.166,4.166,0,0,1-.934,1.414,4.121,4.121,0,0,1-1.442.92,5.153,5.153,0,0,1-1.881.33H68.96V96.04h3.446a5.153,5.153,0,0,1,1.881.33,4.165,4.165,0,0,1,2.375,2.348,4.817,4.817,0,0,1,.33,1.8Zm-1.909,0a4.012,4.012,0,0,0-.178-1.263,2.664,2.664,0,0,0-.536-.947,2.473,2.473,0,0,0-.838-.6,2.938,2.938,0,0,0-1.126-.206H70.827v6.055h1.579a2.889,2.889,0,0,0,1.126-.206,2.192,2.192,0,0,0,.838-.6,2.611,2.611,0,0,0,.536-.961,4.1,4.1,0,0,0,.178-1.277Z" transform="translate(-2.517 -95.944)" fill="#cda45e"/>
    </g>
    <line id="Linha_39" data-name="Linha 39" x2="72.746" transform="translate(28.222 147.778)" fill="none" stroke="#cda45e" stroke-miterlimit="10" stroke-width="2"/>
    <path id="Caminho_10214" data-name="Caminho 10214" d="M55.8,40.64A20.945,20.945,0,0,0,34.9,60.234a13.218,13.218,0,0,0-12.4,13.2A13.4,13.4,0,0,0,35.723,86.652h6a1.373,1.373,0,1,0,0-2.746h-6a10.477,10.477,0,1,1,0-20.953H37.6V61.579a18.2,18.2,0,0,1,35.988-3.831l.233,1.085h2.06a12.536,12.536,0,0,1,0,25.072H71.931a1.373,1.373,0,0,0,0,2.746h3.954A15.276,15.276,0,0,0,76.023,56.1,20.953,20.953,0,0,0,55.811,40.654Zm2,52.685,8.733-8.733A1.369,1.369,0,0,0,64.6,82.656l-6.4,6.4V66.275a1.373,1.373,0,0,0-2.746,0V89.055l-6.4-6.4a1.369,1.369,0,0,0-1.936,1.936l8.733,8.733a1.367,1.367,0,0,0,1.936,0Z" transform="translate(7.767 13.453)" fill="#cda45e" fill-rule="evenodd"/>
    <g id="Grupo_7834" data-name="Grupo 7834" transform="translate(1.68 4.58)">
      <rect id="Retângulo_729" data-name="Retângulo 729" width="125.815" height="179.667" rx="45.82" fill="none" stroke="#cda45e" stroke-miterlimit="10" stroke-width="1.5"/>
      <rect id="Retângulo_730" data-name="Retângulo 730" width="105.205" height="159.044" rx="38.31" transform="translate(10.312 10.298)" fill="none" stroke="#cda45e" stroke-miterlimit="10" stroke-width="1.5"/>
    </g>
  </g>
</svg>
