<?xml version="1.0" encoding="UTF-8"?>
<svg id="Camada_1" data-name="Camada 1" xmlns="http://www.w3.org/2000/svg" viewBox="0 0 404.67 188.27">
  <defs>
    <style>
      .cls-1 {
        fill: #95a36e;
      }

      .cls-2 {
        fill: #e57c7c;
      }

      .cls-3 {
        fill: #fff;
      }

      .cls-4 {
        fill: #4d5732;
      }

      .cls-5 {
        fill: #cfa75f;
      }

      .cls-6 {
        fill: none;
        stroke: #68714b;
        stroke-miterlimit: 10;
        stroke-width: .74px;
      }

      .cls-7 {
        fill: #68714b;
      }
    </style>
  </defs>
  <path class="cls-7" d="M16.34,15.5h127.56v30H16.34V15.5ZM143.9,15.5h93.5v30h-93.5V15.5ZM237.4,15.5h29.41v30h-29.41V15.5ZM266.8,15.5h120.13v30h-120.13V15.5Z"/>
  <rect class="cls-1" x="16.34" y="45.5" width="127.56" height="25.51"/>
  <rect class="cls-5" x="16.34" y="71.01" width="127.56" height="25.51"/>
  <path class="cls-2" d="M16.34,96.53h127.56v25.51H16.34v-25.51ZM16.34,122.04h127.56v25.51H16.34v-25.51ZM16.34,147.55h127.56v25.51H16.34v-25.51Z"/>
  <path class="cls-6" d="M16.34,15.5h127.56M143.9,15.5h93.5M143.9,45.13V15.87M237.4,15.5h29.41M237.4,45.13V15.87M266.8,15.5h120.13M266.8,45.13V15.87M143.9,70.65v-24.78M237.4,70.65v-24.78M266.8,70.65v-24.78M16.34,71.01h127.56M143.9,71.01h93.5M143.9,96.16v-24.78M237.4,71.01h29.41M237.4,96.16v-24.78M266.8,71.01h120.13M266.8,96.16v-24.78M16.34,96.53h127.56M143.9,96.53h93.5M143.9,121.67v-24.78M237.4,96.53h29.41M237.4,121.67v-24.78M266.8,96.53h120.13M266.8,121.67v-24.78M16.34,122.04h127.56M143.9,122.04h93.5M143.9,147.18v-24.78M237.4,122.04h29.41M237.4,147.18v-24.78M266.8,122.04h120.13M266.8,147.18v-24.78M16.34,147.55h127.56M143.9,147.55h93.5M143.9,172.69v-24.78M237.4,147.55h29.41M237.4,172.69v-24.78M266.8,147.55h120.13M266.8,172.69v-24.78M16.34,173.06h127.56M143.9,173.06h93.5M237.4,173.06h29.41M266.8,173.06h120.13M16.34,45.5h127.56M143.9,45.5h93.5M237.4,45.5h29.41M266.8,45.5h120.13"/>
  <g>
    <path class="cls-3" d="M42.34,32.89c.08,0,.14.03.2.09l.55.59c-.3.37-.67.66-1.11.86-.44.2-.97.3-1.59.3-.55,0-1.05-.09-1.49-.28s-.82-.45-1.13-.79-.55-.74-.72-1.2c-.17-.47-.25-.98-.25-1.53s.09-1.07.27-1.54c.18-.46.43-.86.75-1.2.32-.34.71-.6,1.16-.78s.95-.28,1.49-.28,1.02.09,1.44.27c.42.18.78.41,1.07.7l-.46.64s-.06.08-.11.11c-.04.03-.1.05-.18.05-.05,0-.1-.01-.16-.04-.06-.03-.12-.07-.18-.11-.07-.04-.14-.09-.23-.14-.09-.05-.19-.1-.3-.14s-.24-.08-.39-.11c-.15-.03-.32-.04-.52-.04-.33,0-.64.06-.91.18-.28.12-.51.29-.71.51-.2.22-.35.5-.46.82s-.16.69-.16,1.11.06.79.18,1.12c.12.33.28.6.48.82.2.22.44.39.71.51.27.12.57.18.89.18.19,0,.36-.01.51-.03.15-.02.29-.05.42-.1.13-.04.25-.1.37-.17.12-.07.23-.16.34-.26.03-.03.07-.06.11-.07.04-.02.08-.03.12-.03Z"/>
    <path class="cls-3" d="M45.12,27v7.65h-1.27v-7.65h1.27Z"/>
    <path class="cls-3" d="M46.27,30.1c.61-.56,1.34-.83,2.19-.83.31,0,.58.05.83.15s.45.24.62.42.3.4.38.65.13.52.13.82v3.33h-.58c-.12,0-.21-.02-.28-.05-.07-.04-.12-.11-.15-.22l-.11-.38c-.13.12-.26.23-.39.32s-.26.17-.4.23c-.14.06-.28.11-.44.14-.16.03-.33.05-.52.05-.22,0-.43-.03-.62-.09-.19-.06-.35-.15-.49-.27s-.24-.27-.32-.45c-.08-.18-.11-.39-.11-.62,0-.13.02-.27.07-.4.04-.13.12-.26.22-.38s.23-.23.39-.34.36-.2.59-.28c.23-.08.51-.14.82-.19s.67-.08,1.07-.09v-.31c0-.35-.08-.61-.23-.78s-.37-.25-.65-.25c-.21,0-.38.02-.51.07-.14.05-.25.1-.36.16s-.2.11-.28.16c-.08.05-.18.07-.28.07-.09,0-.16-.02-.23-.07-.06-.05-.11-.1-.15-.16l-.23-.41ZM49.18,32.39c-.37.02-.68.05-.93.1s-.45.11-.6.18c-.15.07-.26.16-.32.25-.06.1-.1.2-.1.31,0,.22.07.38.2.48.13.1.3.14.52.14.26,0,.49-.05.68-.14.19-.09.38-.24.56-.43v-.89Z"/>
    <path class="cls-3" d="M54.84,30.4c-.03.06-.07.09-.11.12-.04.02-.09.03-.14.03-.06,0-.13-.02-.2-.05s-.15-.07-.24-.12-.2-.08-.32-.12c-.12-.03-.26-.05-.42-.05-.25,0-.45.05-.59.16-.14.11-.21.25-.21.42,0,.11.04.21.11.29s.17.15.29.2c.12.06.26.11.41.16s.31.1.47.15c.16.05.32.12.47.19s.29.16.41.27c.12.11.22.24.29.39s.11.33.11.54c0,.25-.05.49-.14.7s-.23.4-.4.56-.4.28-.66.37c-.26.09-.56.13-.91.13-.18,0-.36-.02-.53-.05-.17-.03-.34-.08-.5-.14-.16-.06-.31-.13-.44-.21-.14-.08-.25-.16-.36-.26l.29-.48c.04-.06.08-.1.13-.13.05-.03.12-.05.2-.05s.15.02.22.07c.07.04.15.09.24.14.09.05.2.1.33.14.13.04.28.07.48.07.15,0,.28-.02.39-.05.11-.04.2-.08.27-.14.07-.06.12-.13.15-.2.03-.08.05-.16.05-.24,0-.12-.04-.22-.11-.3-.07-.08-.17-.15-.29-.21-.12-.06-.26-.11-.42-.16-.16-.05-.32-.1-.48-.15-.16-.06-.32-.12-.48-.19s-.29-.17-.42-.28c-.12-.11-.22-.25-.29-.42s-.11-.36-.11-.6c0-.22.04-.42.13-.62.09-.2.21-.37.38-.51.17-.15.37-.26.62-.35.25-.09.54-.13.86-.13.36,0,.69.06.99.18s.55.28.75.47l-.29.46Z"/>
    <path class="cls-3" d="M59.36,30.4c-.03.06-.07.09-.11.12-.04.02-.09.03-.14.03-.06,0-.13-.02-.2-.05s-.15-.07-.24-.12-.2-.08-.32-.12c-.12-.03-.26-.05-.42-.05-.25,0-.45.05-.59.16-.14.11-.21.25-.21.42,0,.11.04.21.11.29s.17.15.29.2c.12.06.26.11.41.16s.31.1.47.15c.16.05.32.12.47.19s.29.16.41.27c.12.11.22.24.29.39s.11.33.11.54c0,.25-.05.49-.14.7s-.23.4-.4.56-.4.28-.66.37c-.26.09-.56.13-.91.13-.18,0-.36-.02-.53-.05-.17-.03-.34-.08-.5-.14-.16-.06-.31-.13-.44-.21-.14-.08-.25-.16-.36-.26l.29-.48c.04-.06.08-.1.13-.13.05-.03.12-.05.2-.05s.15.02.22.07c.07.04.15.09.24.14.09.05.2.1.33.14.13.04.28.07.48.07.15,0,.28-.02.39-.05.11-.04.2-.08.27-.14.07-.06.12-.13.15-.2.03-.08.05-.16.05-.24,0-.12-.04-.22-.11-.3-.07-.08-.17-.15-.29-.21-.12-.06-.26-.11-.42-.16-.16-.05-.32-.1-.48-.15-.16-.06-.32-.12-.48-.19s-.29-.17-.42-.28c-.12-.11-.22-.25-.29-.42s-.11-.36-.11-.6c0-.22.04-.42.13-.62.09-.2.21-.37.38-.51.17-.15.37-.26.62-.35.25-.09.54-.13.86-.13.36,0,.69.06.99.18s.55.28.75.47l-.29.46Z"/>
    <path class="cls-3" d="M62.15,27.83c0,.11-.02.21-.07.31-.04.1-.1.18-.18.25-.07.07-.16.13-.26.17-.1.04-.21.06-.32.06s-.21-.02-.31-.06-.18-.1-.25-.17-.13-.16-.17-.25c-.04-.1-.06-.2-.06-.31s.02-.22.06-.32c.04-.1.1-.19.17-.26.07-.07.16-.13.25-.17.1-.04.2-.06.31-.06s.22.02.32.06c.1.04.19.1.26.17.07.07.13.16.18.26.04.1.07.21.07.32ZM61.98,29.37v5.28h-1.28v-5.28h1.28Z"/>
    <path class="cls-3" d="M63.65,34.65v-4.32l-.46-.07c-.1-.02-.18-.06-.24-.11-.06-.05-.09-.12-.09-.21v-.52h.79v-.17c0-.32.05-.62.16-.9.11-.28.27-.52.48-.72.22-.2.49-.36.82-.48s.72-.17,1.17-.17c.14,0,.29,0,.44.02.15.02.28.04.39.07l-.04.66c0,.08-.05.13-.13.14-.08.02-.18.02-.29.02-.33,0-.61.03-.84.09-.22.06-.41.15-.54.26-.14.12-.24.26-.3.43-.06.17-.09.38-.09.6v.13h3.27v5.23h-1.27v-4.33h-1.96v4.33h-1.27Z"/>
  </g>
  <g>
    <path class="cls-3" d="M73.24,30.48s-.07.09-.11.11c-.04.03-.09.04-.16.04-.06,0-.13-.02-.19-.06-.06-.04-.14-.08-.22-.13-.09-.05-.19-.09-.31-.13-.12-.04-.26-.06-.44-.06-.22,0-.42.04-.59.12s-.31.2-.42.35c-.11.15-.19.33-.25.55-.05.21-.08.46-.08.73s.03.53.09.75c.06.22.15.4.26.55.11.15.25.26.41.34s.34.12.55.12.37-.02.49-.07c.13-.05.23-.1.32-.16.09-.06.16-.11.22-.16s.13-.07.21-.07c.1,0,.18.04.23.12l.37.46c-.14.16-.29.3-.46.41-.17.11-.34.2-.51.27s-.36.11-.55.14c-.19.03-.37.04-.56.04-.33,0-.63-.06-.92-.18s-.54-.3-.76-.53c-.22-.23-.39-.52-.51-.86-.13-.34-.19-.72-.19-1.16,0-.39.06-.75.17-1.08.11-.33.28-.62.49-.86.22-.24.48-.43.8-.57.32-.14.69-.21,1.1-.21s.74.06,1.04.19c.3.13.56.31.8.55l-.33.46Z"/>
    <path class="cls-3" d="M74.3,30.1c.61-.56,1.34-.83,2.19-.83.31,0,.58.05.83.15s.45.24.62.42.3.4.38.65.13.52.13.82v3.33h-.58c-.12,0-.21-.02-.28-.05-.07-.04-.12-.11-.15-.22l-.11-.38c-.13.12-.26.23-.39.32s-.26.17-.4.23c-.14.06-.28.11-.44.14-.16.03-.33.05-.52.05-.22,0-.43-.03-.62-.09-.19-.06-.35-.15-.49-.27s-.24-.27-.32-.45c-.08-.18-.11-.39-.11-.62,0-.13.02-.27.07-.4.04-.13.12-.26.22-.38s.23-.23.39-.34.36-.2.59-.28c.23-.08.51-.14.82-.19s.67-.08,1.07-.09v-.31c0-.35-.08-.61-.23-.78s-.37-.25-.65-.25c-.21,0-.38.02-.51.07-.14.05-.25.1-.36.16s-.2.11-.28.16c-.08.05-.18.07-.28.07-.09,0-.16-.02-.23-.07-.06-.05-.11-.1-.15-.16l-.23-.41ZM77.22,32.39c-.37.02-.68.05-.93.1s-.45.11-.6.18c-.15.07-.26.16-.32.25-.06.1-.1.2-.1.31,0,.22.07.38.2.48.13.1.3.14.52.14.26,0,.49-.05.68-.14.19-.09.38-.24.56-.43v-.89Z"/>
    <path class="cls-3" d="M83.83,33.86c-.23.27-.5.48-.79.6s-.6.21-.91.24l-.07.26c.32.08.55.18.68.31s.19.28.19.46c0,.12-.03.22-.09.31-.06.09-.15.17-.26.24-.11.07-.24.11-.4.15-.15.03-.32.05-.51.05-.14,0-.27,0-.4-.03-.12-.02-.24-.05-.36-.08l.11-.4c.02-.08.07-.12.15-.12.05,0,.1.01.16.04.06.03.14.04.25.04s.2-.02.25-.06c.06-.04.08-.1.08-.16,0-.1-.06-.17-.19-.21s-.31-.08-.57-.12l.23-.67c-.29-.04-.56-.13-.8-.27-.25-.14-.46-.32-.64-.55s-.32-.5-.43-.82c-.1-.32-.16-.67-.16-1.07s.06-.75.17-1.08c.11-.33.28-.62.49-.86.22-.24.48-.43.8-.57.32-.14.69-.21,1.1-.21s.74.06,1.04.19c.3.13.56.31.8.55l-.33.46s-.07.09-.11.11c-.04.03-.09.04-.16.04-.06,0-.13-.02-.19-.06-.06-.04-.14-.08-.22-.13-.09-.05-.19-.09-.31-.13-.12-.04-.26-.06-.44-.06-.22,0-.42.04-.59.12s-.31.2-.42.35c-.11.15-.19.33-.25.55-.05.21-.08.46-.08.73s.03.53.09.75c.06.22.15.4.26.55.11.15.25.26.41.34s.34.12.55.12.37-.02.49-.07c.13-.05.23-.1.32-.16.09-.06.16-.11.22-.16s.13-.07.21-.07c.1,0,.18.04.23.12l.37.46Z"/>
    <path class="cls-3" d="M84.52,30.1c.61-.56,1.34-.83,2.19-.83.31,0,.58.05.83.15s.45.24.62.42.3.4.38.65.13.52.13.82v3.33h-.58c-.12,0-.21-.02-.28-.05-.07-.04-.12-.11-.15-.22l-.11-.38c-.13.12-.26.23-.39.32s-.26.17-.4.23c-.14.06-.28.11-.44.14-.16.03-.33.05-.52.05-.22,0-.43-.03-.62-.09-.19-.06-.35-.15-.49-.27s-.24-.27-.32-.45c-.08-.18-.11-.39-.11-.62,0-.13.02-.27.07-.4.04-.13.12-.26.22-.38s.23-.23.39-.34.36-.2.59-.28c.23-.08.51-.14.82-.19s.67-.08,1.07-.09v-.31c0-.35-.08-.61-.23-.78s-.37-.25-.65-.25c-.21,0-.38.02-.51.07-.14.05-.25.1-.36.16s-.2.11-.28.16c-.08.05-.18.07-.28.07-.09,0-.16-.02-.23-.07-.06-.05-.11-.1-.15-.16l-.23-.41ZM87.14,27.65c.1,0,.18-.03.24-.08.06-.06.09-.16.09-.31h.77c0,.19-.03.37-.08.52s-.13.29-.22.4c-.09.11-.2.2-.33.26-.13.06-.27.09-.42.09-.12,0-.24-.02-.34-.07-.11-.04-.21-.09-.3-.14-.09-.05-.18-.1-.26-.14s-.16-.07-.22-.07c-.1,0-.18.03-.23.09-.06.06-.08.16-.08.31h-.79c0-.19.03-.37.08-.52.05-.16.13-.29.22-.4s.21-.2.34-.26c.13-.06.27-.09.42-.09.12,0,.24.02.35.07.11.04.21.09.3.14.09.05.18.1.26.14.08.04.15.07.22.07ZM87.43,32.39c-.37.02-.68.05-.93.1s-.45.11-.6.18c-.15.07-.26.16-.32.25-.06.1-.1.2-.1.31,0,.22.07.38.2.48.13.1.3.14.52.14.26,0,.49-.05.68-.14.19-.09.38-.24.56-.43v-.89Z"/>
    <path class="cls-3" d="M92.21,29.28c.39,0,.75.06,1.07.19.32.13.59.31.82.54.23.23.4.52.53.85s.19.71.19,1.13-.06.8-.19,1.13c-.12.34-.3.62-.53.86-.23.24-.5.42-.82.55-.32.13-.68.19-1.07.19s-.75-.06-1.08-.19-.6-.31-.83-.55c-.23-.24-.4-.52-.53-.86-.13-.34-.19-.71-.19-1.13s.06-.79.19-1.13c.12-.34.3-.62.53-.85s.5-.41.83-.54c.32-.13.68-.19,1.08-.19ZM92.21,33.75c.44,0,.76-.15.98-.44s.32-.73.32-1.3-.11-1-.32-1.3-.54-.45-.98-.45-.78.15-.99.45-.32.73-.32,1.3.11,1,.32,1.29c.21.3.54.44.99.44Z"/>
    <path class="cls-3" d="M102.89,27v7.65h-.78c-.17,0-.27-.08-.32-.23l-.11-.51c-.21.24-.46.44-.73.59-.28.15-.6.23-.96.23-.29,0-.55-.06-.79-.18-.24-.12-.45-.29-.62-.52-.17-.23-.31-.51-.4-.85-.09-.34-.14-.72-.14-1.15,0-.39.05-.75.16-1.09.11-.34.26-.63.46-.87.2-.25.44-.44.72-.58.28-.14.59-.21.94-.21.29,0,.55.05.76.14.21.09.4.22.56.38v-2.78h1.27ZM101.62,30.72c-.14-.17-.3-.3-.47-.37-.17-.07-.35-.11-.55-.11s-.37.04-.52.11c-.15.07-.29.18-.4.33-.11.15-.19.33-.25.56s-.09.49-.09.79.02.57.07.78.12.39.21.52c.09.14.21.23.34.29.13.06.28.09.45.09.26,0,.49-.05.67-.16.19-.11.36-.27.52-.47v-2.37Z"/>
    <path class="cls-3" d="M104.03,30.1c.61-.56,1.34-.83,2.19-.83.31,0,.58.05.83.15s.45.24.62.42.3.4.38.65.13.52.13.82v3.33h-.58c-.12,0-.21-.02-.28-.05-.07-.04-.12-.11-.15-.22l-.11-.38c-.13.12-.26.23-.39.32s-.26.17-.4.23c-.14.06-.28.11-.44.14-.16.03-.33.05-.52.05-.22,0-.43-.03-.62-.09-.19-.06-.35-.15-.49-.27s-.24-.27-.32-.45c-.08-.18-.11-.39-.11-.62,0-.13.02-.27.07-.4.04-.13.12-.26.22-.38s.23-.23.39-.34.36-.2.59-.28c.23-.08.51-.14.82-.19s.67-.08,1.07-.09v-.31c0-.35-.08-.61-.23-.78s-.37-.25-.65-.25c-.21,0-.38.02-.51.07-.14.05-.25.1-.36.16s-.2.11-.28.16c-.08.05-.18.07-.28.07-.09,0-.16-.02-.23-.07-.06-.05-.11-.1-.15-.16l-.23-.41ZM106.94,32.39c-.37.02-.68.05-.93.1s-.45.11-.6.18c-.15.07-.26.16-.32.25-.06.1-.1.2-.1.31,0,.22.07.38.2.48.13.1.3.14.52.14.26,0,.49-.05.68-.14.19-.09.38-.24.56-.43v-.89Z"/>
  </g>
  <g>
    <path class="cls-3" d="M114.42,27.21c.5,0,.93.06,1.29.17.36.12.66.28.9.49.24.21.41.46.53.75.11.29.17.61.17.96s-.06.69-.18.99c-.12.3-.3.56-.54.77-.24.22-.54.38-.9.5s-.78.18-1.27.18h-1.03v2.62h-1.38v-7.44h2.42ZM114.42,30.95c.25,0,.48-.03.66-.1s.35-.15.47-.27c.13-.12.22-.26.28-.43.06-.17.09-.36.09-.57s-.03-.38-.09-.54c-.06-.16-.15-.3-.28-.41-.12-.11-.28-.2-.47-.26-.19-.06-.41-.09-.67-.09h-1.03v2.67h1.03Z"/>
    <path class="cls-3" d="M124.22,34.65h-1.07c-.12,0-.22-.03-.29-.09-.08-.06-.13-.13-.17-.22l-.56-1.52h-3.08l-.56,1.52c-.03.08-.08.15-.16.22-.08.06-.18.1-.29.1h-1.08l2.93-7.44h1.41l2.92,7.44ZM121.78,31.84l-.91-2.47c-.04-.11-.09-.24-.14-.39-.05-.15-.1-.31-.14-.49-.04.17-.09.34-.14.49-.05.15-.09.29-.14.4l-.9,2.46h2.37Z"/>
  </g>
  <g>
    <path class="cls-3" d="M156.46,27.21c.5,0,.93.06,1.29.17.36.12.66.28.9.49.24.21.41.46.53.75.11.29.17.61.17.96s-.06.69-.18.99c-.12.3-.3.56-.54.77-.24.22-.54.38-.9.5s-.78.18-1.27.18h-1.03v2.62h-1.38v-7.44h2.42ZM156.46,30.95c.25,0,.48-.03.66-.1s.35-.15.47-.27c.13-.12.22-.26.28-.43.06-.17.09-.36.09-.57s-.03-.38-.09-.54c-.06-.16-.15-.3-.28-.41-.12-.11-.28-.2-.47-.26-.19-.06-.41-.09-.67-.09h-1.03v2.67h1.03Z"/>
    <path class="cls-3" d="M161.41,30.28c.16-.32.36-.56.59-.74.23-.18.49-.27.8-.27.24,0,.44.05.59.16l-.08.95c-.02.06-.04.11-.07.13-.03.03-.08.04-.13.04-.05,0-.13,0-.23-.03s-.2-.03-.3-.03c-.14,0-.27.02-.38.06-.11.04-.21.1-.3.18s-.16.17-.23.28c-.07.11-.13.24-.19.38v3.25h-1.27v-5.28h.75c.13,0,.22.02.27.07.05.05.09.13.1.25l.08.6Z"/>
    <path class="cls-3" d="M165.03,32.17c.02.27.07.51.14.7.08.2.17.36.3.49.12.13.27.23.44.29.17.06.36.09.56.09s.38-.02.53-.07.28-.1.39-.16c.11-.06.21-.11.29-.16.08-.05.17-.07.24-.07.11,0,.19.04.24.12l.37.46c-.14.16-.3.3-.47.41-.17.11-.36.2-.55.27s-.38.11-.58.14c-.2.03-.39.04-.57.04-.37,0-.71-.06-1.02-.18-.32-.12-.59-.3-.82-.54-.23-.24-.42-.53-.55-.89s-.2-.76-.2-1.22c0-.36.06-.7.18-1.02.12-.32.28-.59.5-.83s.48-.42.8-.56c.31-.14.67-.21,1.06-.21.33,0,.64.05.92.16s.52.26.73.47c.2.2.36.45.48.75.11.3.17.64.17,1.02,0,.19-.02.32-.06.39s-.12.1-.24.1h-3.27ZM167.45,31.4c0-.16-.02-.32-.07-.47-.05-.15-.12-.27-.21-.38-.09-.11-.21-.2-.35-.26-.14-.06-.31-.09-.5-.09-.37,0-.66.1-.87.31-.21.21-.35.51-.4.89h2.4Z"/>
    <path class="cls-3" d="M172.76,30.4c-.03.06-.07.09-.11.12-.04.02-.09.03-.14.03-.06,0-.13-.02-.2-.05s-.15-.07-.24-.12-.2-.08-.32-.12c-.12-.03-.26-.05-.42-.05-.25,0-.45.05-.59.16-.14.11-.21.25-.21.42,0,.11.04.21.11.29s.17.15.29.2c.12.06.26.11.41.16s.31.1.47.15c.16.05.32.12.47.19s.29.16.41.27c.12.11.22.24.29.39s.11.33.11.54c0,.25-.05.49-.14.7s-.23.4-.4.56-.4.28-.66.37c-.26.09-.56.13-.91.13-.18,0-.36-.02-.53-.05-.17-.03-.34-.08-.5-.14-.16-.06-.31-.13-.44-.21-.14-.08-.25-.16-.36-.26l.29-.48c.04-.06.08-.1.13-.13.05-.03.12-.05.2-.05s.15.02.22.07c.07.04.15.09.24.14.09.05.2.1.33.14.13.04.28.07.48.07.15,0,.28-.02.39-.05.11-.04.2-.08.27-.14.07-.06.12-.13.15-.2.03-.08.05-.16.05-.24,0-.12-.04-.22-.11-.3-.07-.08-.17-.15-.29-.21-.12-.06-.26-.11-.42-.16-.16-.05-.32-.1-.48-.15-.16-.06-.32-.12-.48-.19s-.29-.17-.42-.28c-.12-.11-.22-.25-.29-.42s-.11-.36-.11-.6c0-.22.04-.42.13-.62.09-.2.21-.37.38-.51.17-.15.37-.26.62-.35.25-.09.54-.13.86-.13.36,0,.69.06.99.18s.55.28.75.47l-.29.46Z"/>
    <path class="cls-3" d="M177.29,30.4c-.03.06-.07.09-.11.12-.04.02-.09.03-.14.03-.06,0-.13-.02-.2-.05s-.15-.07-.24-.12-.2-.08-.32-.12c-.12-.03-.26-.05-.42-.05-.25,0-.45.05-.59.16-.14.11-.21.25-.21.42,0,.11.04.21.11.29s.17.15.29.2c.12.06.26.11.41.16s.31.1.47.15c.16.05.32.12.47.19s.29.16.41.27c.12.11.22.24.29.39s.11.33.11.54c0,.25-.05.49-.14.7s-.23.4-.4.56-.4.28-.66.37c-.26.09-.56.13-.91.13-.18,0-.36-.02-.53-.05-.17-.03-.34-.08-.5-.14-.16-.06-.31-.13-.44-.21-.14-.08-.25-.16-.36-.26l.29-.48c.04-.06.08-.1.13-.13.05-.03.12-.05.2-.05s.15.02.22.07c.07.04.15.09.24.14.09.05.2.1.33.14.13.04.28.07.48.07.15,0,.28-.02.39-.05.11-.04.2-.08.27-.14.07-.06.12-.13.15-.2.03-.08.05-.16.05-.24,0-.12-.04-.22-.11-.3-.07-.08-.17-.15-.29-.21-.12-.06-.26-.11-.42-.16-.16-.05-.32-.1-.48-.15-.16-.06-.32-.12-.48-.19s-.29-.17-.42-.28c-.12-.11-.22-.25-.29-.42s-.11-.36-.11-.6c0-.22.04-.42.13-.62.09-.2.21-.37.38-.51.17-.15.37-.26.62-.35.25-.09.54-.13.86-.13.36,0,.69.06.99.18s.55.28.75.47l-.29.46Z"/>
    <path class="cls-3" d="M178.46,30.1c.61-.56,1.34-.83,2.19-.83.31,0,.58.05.83.15s.45.24.62.42.3.4.38.65.13.52.13.82v3.33h-.58c-.12,0-.21-.02-.28-.05-.07-.04-.12-.11-.15-.22l-.11-.38c-.13.12-.26.23-.39.32s-.26.17-.4.23c-.14.06-.28.11-.44.14-.16.03-.33.05-.52.05-.22,0-.43-.03-.62-.09-.19-.06-.35-.15-.49-.27s-.24-.27-.32-.45c-.08-.18-.11-.39-.11-.62,0-.13.02-.27.07-.4.04-.13.12-.26.22-.38s.23-.23.39-.34.36-.2.59-.28c.23-.08.51-.14.82-.19s.67-.08,1.07-.09v-.31c0-.35-.08-.61-.23-.78s-.37-.25-.65-.25c-.21,0-.38.02-.51.07-.14.05-.25.1-.36.16s-.2.11-.28.16c-.08.05-.18.07-.28.07-.09,0-.16-.02-.23-.07-.06-.05-.11-.1-.15-.16l-.23-.41ZM181.09,27.65c.1,0,.18-.03.24-.08.06-.06.09-.16.09-.31h.77c0,.19-.03.37-.08.52s-.13.29-.22.4c-.09.11-.2.2-.33.26-.13.06-.27.09-.42.09-.12,0-.24-.02-.34-.07-.11-.04-.21-.09-.3-.14-.09-.05-.18-.1-.26-.14s-.16-.07-.22-.07c-.1,0-.18.03-.23.09-.06.06-.08.16-.08.31h-.79c0-.19.03-.37.08-.52.05-.16.13-.29.22-.4s.21-.2.34-.26c.13-.06.27-.09.42-.09.12,0,.24.02.35.07.11.04.21.09.3.14.09.05.18.1.26.14.08.04.15.07.22.07ZM181.38,32.39c-.37.02-.68.05-.93.1s-.45.11-.6.18c-.15.07-.26.16-.32.25-.06.1-.1.2-.1.31,0,.22.07.38.2.48.13.1.3.14.52.14.26,0,.49-.05.68-.14.19-.09.38-.24.56-.43v-.89Z"/>
    <path class="cls-3" d="M186.15,29.28c.39,0,.75.06,1.07.19.32.13.59.31.82.54.23.23.4.52.53.85s.19.71.19,1.13-.06.8-.19,1.13c-.12.34-.3.62-.53.86-.23.24-.5.42-.82.55-.32.13-.68.19-1.07.19s-.75-.06-1.08-.19-.6-.31-.83-.55c-.23-.24-.4-.52-.53-.86-.13-.34-.19-.71-.19-1.13s.06-.79.19-1.13c.12-.34.3-.62.53-.85s.5-.41.83-.54c.32-.13.68-.19,1.08-.19ZM186.15,33.75c.44,0,.76-.15.98-.44s.32-.73.32-1.3-.11-1-.32-1.3-.54-.45-.98-.45-.78.15-.99.45-.32.73-.32,1.3.11,1,.32,1.29c.21.3.54.44.99.44Z"/>
    <path class="cls-3" d="M195.44,30.4c-.03.06-.07.09-.11.12-.04.02-.09.03-.14.03-.06,0-.13-.02-.2-.05s-.15-.07-.24-.12-.2-.08-.32-.12c-.12-.03-.26-.05-.42-.05-.25,0-.45.05-.59.16-.14.11-.21.25-.21.42,0,.11.04.21.11.29s.17.15.29.2c.12.06.26.11.41.16s.31.1.47.15c.16.05.32.12.47.19s.29.16.41.27c.12.11.22.24.29.39s.11.33.11.54c0,.25-.05.49-.14.7s-.23.4-.4.56-.4.28-.66.37c-.26.09-.56.13-.91.13-.18,0-.36-.02-.53-.05-.17-.03-.34-.08-.5-.14-.16-.06-.31-.13-.44-.21-.14-.08-.25-.16-.36-.26l.29-.48c.04-.06.08-.1.13-.13.05-.03.12-.05.2-.05s.15.02.22.07c.07.04.15.09.24.14.09.05.2.1.33.14.13.04.28.07.48.07.15,0,.28-.02.39-.05.11-.04.2-.08.27-.14.07-.06.12-.13.15-.2.03-.08.05-.16.05-.24,0-.12-.04-.22-.11-.3-.07-.08-.17-.15-.29-.21-.12-.06-.26-.11-.42-.16-.16-.05-.32-.1-.48-.15-.16-.06-.32-.12-.48-.19s-.29-.17-.42-.28c-.12-.11-.22-.25-.29-.42s-.11-.36-.11-.6c0-.22.04-.42.13-.62.09-.2.21-.37.38-.51.17-.15.37-.26.62-.35.25-.09.54-.13.86-.13.36,0,.69.06.99.18s.55.28.75.47l-.29.46Z"/>
    <path class="cls-3" d="M198.24,27.83c0,.11-.02.21-.07.31-.04.1-.1.18-.18.25-.07.07-.16.13-.26.17-.1.04-.21.06-.32.06s-.21-.02-.31-.06-.18-.1-.25-.17-.13-.16-.17-.25c-.04-.1-.06-.2-.06-.31s.02-.22.06-.32c.04-.1.1-.19.17-.26.07-.07.16-.13.25-.17.1-.04.2-.06.31-.06s.22.02.32.06c.1.04.19.1.26.17.07.07.13.16.18.26.04.1.07.21.07.32ZM198.06,29.37v5.28h-1.28v-5.28h1.28Z"/>
    <path class="cls-3" d="M202.58,30.4c-.03.06-.07.09-.11.12-.04.02-.09.03-.14.03-.06,0-.13-.02-.2-.05s-.15-.07-.24-.12c-.09-.04-.2-.08-.32-.12-.12-.03-.26-.05-.42-.05-.25,0-.45.05-.59.16-.14.11-.21.25-.21.42,0,.11.04.21.11.29s.17.15.29.2c.12.06.26.11.41.16s.31.1.47.15c.16.05.32.12.47.19s.29.16.41.27.22.24.29.39.11.33.11.54c0,.25-.05.49-.14.7-.09.21-.23.4-.4.56s-.4.28-.66.37c-.26.09-.56.13-.91.13-.18,0-.36-.02-.53-.05-.17-.03-.34-.08-.5-.14-.16-.06-.31-.13-.44-.21-.14-.08-.25-.16-.36-.26l.29-.48c.04-.06.08-.1.13-.13.05-.03.12-.05.2-.05s.15.02.22.07c.07.04.15.09.24.14.09.05.2.1.33.14.13.04.28.07.48.07.15,0,.28-.02.39-.05.11-.04.2-.08.27-.14.07-.06.12-.13.15-.2.03-.08.05-.16.05-.24,0-.12-.04-.22-.11-.3-.07-.08-.17-.15-.29-.21-.12-.06-.26-.11-.42-.16-.16-.05-.32-.1-.48-.15-.16-.06-.32-.12-.48-.19s-.29-.17-.42-.28c-.12-.11-.22-.25-.29-.42s-.11-.36-.11-.6c0-.22.04-.42.13-.62.09-.2.21-.37.38-.51.17-.15.37-.26.62-.35.25-.09.54-.13.86-.13.36,0,.69.06.99.18s.55.28.75.47l-.29.46Z"/>
    <path class="cls-3" d="M205.64,34.73c-.46,0-.81-.13-1.06-.39-.25-.26-.37-.62-.37-1.07v-2.95h-.54c-.07,0-.13-.02-.17-.07-.05-.04-.07-.11-.07-.2v-.5l.85-.14.27-1.44c.02-.07.05-.12.1-.16.05-.04.11-.06.19-.06h.66v1.66h1.41v.91h-1.41v2.86c0,.16.04.29.12.39.08.09.19.14.33.14.08,0,.14,0,.2-.03.05-.02.1-.04.14-.06.04-.02.08-.04.11-.06.03-.02.06-.03.09-.03.04,0,.07,0,.09.03.02.02.05.05.08.08l.38.62c-.19.15-.4.27-.64.35-.24.08-.49.12-.75.12Z"/>
    <path class="cls-3" d="M210.04,29.28c.39,0,.75.06,1.07.19.32.13.59.31.82.54.23.23.4.52.53.85.12.34.18.71.18,1.13s-.06.8-.18,1.13c-.12.34-.3.62-.53.86-.23.24-.5.42-.82.55-.32.13-.68.19-1.07.19s-.75-.06-1.08-.19c-.32-.13-.6-.31-.83-.55-.23-.24-.41-.52-.53-.86-.12-.34-.19-.71-.19-1.13s.06-.79.19-1.13.3-.62.53-.85c.23-.23.5-.41.83-.54.32-.13.68-.19,1.08-.19ZM210.04,33.75c.44,0,.76-.15.97-.44s.32-.73.32-1.3-.11-1-.32-1.3-.54-.45-.97-.45-.78.15-.99.45c-.21.3-.32.73-.32,1.3s.11,1,.32,1.29c.21.3.54.44.99.44ZM211.82,27.12l-1.27,1.34c-.07.07-.13.12-.19.14-.06.03-.14.04-.23.04h-.76l.73-1.25c.05-.09.11-.16.18-.2s.17-.07.31-.07h1.24Z"/>
    <path class="cls-3" d="M214.91,27v7.65h-1.27v-7.65h1.27Z"/>
    <path class="cls-3" d="M217.67,27.83c0,.11-.02.21-.07.31-.04.1-.1.18-.18.25-.07.07-.16.13-.26.17s-.21.06-.32.06-.21-.02-.31-.06-.18-.1-.25-.17c-.07-.07-.13-.16-.17-.25-.04-.1-.06-.2-.06-.31s.02-.22.06-.32c.04-.1.1-.19.17-.26.07-.07.16-.13.25-.17.1-.04.2-.06.31-.06s.22.02.32.06c.1.04.19.1.26.17.07.07.13.16.18.26.04.1.07.21.07.32ZM217.49,29.37v5.28h-1.28v-5.28h1.28Z"/>
    <path class="cls-3" d="M222.57,30.48s-.07.09-.11.11c-.04.03-.09.04-.16.04s-.13-.02-.19-.06c-.06-.04-.14-.08-.22-.13-.09-.05-.19-.09-.31-.13-.12-.04-.26-.06-.44-.06-.22,0-.42.04-.59.12s-.31.2-.42.35-.2.33-.25.55c-.05.21-.08.46-.08.73s.03.53.09.75c.06.22.15.4.26.55.11.15.25.26.41.34s.34.12.54.12.37-.02.49-.07c.12-.05.23-.1.32-.16s.16-.11.22-.16.13-.07.21-.07c.1,0,.18.04.23.12l.37.46c-.14.16-.29.3-.46.41-.16.11-.33.2-.51.27s-.36.11-.54.14c-.19.03-.37.04-.56.04-.33,0-.63-.06-.92-.18s-.54-.3-.76-.53c-.22-.23-.39-.52-.51-.86s-.19-.72-.19-1.16c0-.39.06-.75.17-1.08s.28-.62.49-.86c.22-.24.48-.43.8-.57.32-.14.69-.21,1.1-.21s.74.06,1.04.19c.3.13.56.31.8.55l-.33.46Z"/>
    <path class="cls-3" d="M223.63,30.1c.61-.56,1.34-.83,2.19-.83.31,0,.58.05.83.15.24.1.45.24.62.42s.3.4.38.65c.09.25.13.52.13.82v3.33h-.58c-.12,0-.21-.02-.28-.05-.06-.04-.12-.11-.15-.22l-.11-.38c-.13.12-.26.23-.39.32s-.26.17-.4.23c-.14.06-.28.11-.44.14-.16.03-.33.05-.52.05-.22,0-.43-.03-.62-.09s-.35-.15-.49-.27c-.14-.12-.24-.27-.32-.45-.08-.18-.11-.39-.11-.62,0-.13.02-.27.07-.4.04-.13.12-.26.22-.38.1-.12.23-.23.39-.34.16-.11.36-.2.59-.28.24-.08.51-.14.82-.19.31-.05.67-.08,1.07-.09v-.31c0-.35-.08-.61-.23-.78-.15-.17-.37-.25-.65-.25-.21,0-.38.02-.51.07-.14.05-.25.1-.36.16s-.2.11-.28.16-.18.07-.28.07c-.09,0-.17-.02-.23-.07s-.11-.1-.15-.16l-.23-.41ZM226.54,32.39c-.37.02-.68.05-.93.1s-.45.11-.6.18c-.15.07-.26.16-.32.25-.07.1-.1.2-.1.31,0,.22.07.38.2.48.13.1.3.14.52.14.26,0,.49-.05.68-.14.19-.09.38-.24.56-.43v-.89Z"/>
  </g>
  <g>
    <path class="cls-3" d="M287.88,31.85v2.51h-1.74v-7.5h2.64c.53,0,.98.06,1.36.19.38.13.69.3.94.52.25.22.43.48.54.78s.17.62.17.97c0,.37-.06.72-.18,1.03s-.3.58-.55.8c-.25.22-.56.4-.94.52-.38.12-.83.19-1.35.19h-.91ZM287.88,30.54h.91c.45,0,.78-.11.98-.32.2-.22.3-.52.3-.91,0-.17-.03-.33-.08-.47-.05-.14-.13-.26-.23-.36-.1-.1-.24-.18-.4-.23-.16-.05-.35-.08-.57-.08h-.91v2.38Z"/>
    <path class="cls-3" d="M292.5,34.36v-5.34h.95c.08,0,.14,0,.2.02.05.01.1.04.13.06.04.03.06.07.08.12.02.05.04.11.05.17l.08.45c.17-.29.36-.52.57-.68.21-.17.46-.25.74-.25.24,0,.44.06.59.17l-.1,1.17c-.02.08-.04.13-.08.15-.04.03-.09.04-.16.04-.03,0-.06,0-.11,0-.04,0-.09,0-.14-.01-.05,0-.1-.01-.15-.02-.05,0-.1,0-.14,0-.23,0-.42.06-.56.19-.14.13-.26.3-.35.52v3.24h-1.59Z"/>
    <path class="cls-3" d="M298.78,28.94c.35,0,.68.05.97.16s.54.27.76.48c.21.21.38.47.49.77s.18.65.18,1.03c0,.12,0,.22-.02.29,0,.08-.03.14-.06.18s-.06.08-.11.09-.11.03-.18.03h-3.08c.05.45.19.77.41.97s.5.3.85.3c.19,0,.34-.02.48-.07s.25-.09.36-.15c.1-.05.2-.1.29-.15.09-.04.18-.07.28-.07.13,0,.22.05.29.14l.46.57c-.16.19-.34.34-.53.46s-.39.21-.59.28c-.2.07-.4.11-.6.14-.2.03-.39.04-.57.04-.37,0-.72-.06-1.05-.18-.33-.12-.61-.3-.86-.54s-.44-.54-.58-.9c-.14-.36-.21-.77-.21-1.24,0-.36.06-.69.18-1.01.12-.32.3-.6.53-.84.23-.24.5-.43.83-.57s.69-.21,1.1-.21ZM298.81,30.04c-.3,0-.54.09-.71.26-.17.17-.28.42-.34.75h1.99c0-.13-.02-.25-.05-.37-.03-.12-.09-.23-.16-.32-.07-.09-.17-.17-.29-.23-.12-.06-.27-.09-.44-.09Z"/>
    <path class="cls-3" d="M305.36,30.19c-.04.07-.08.11-.13.14-.05.03-.11.04-.18.04s-.15-.02-.23-.05-.16-.07-.24-.11-.19-.07-.3-.11-.24-.05-.38-.05c-.2,0-.36.04-.46.12-.11.08-.16.18-.16.32,0,.1.04.18.11.25.07.07.16.12.28.17.12.05.25.1.4.14s.3.09.45.15c.15.06.31.12.45.19s.28.16.4.27c.12.11.21.24.28.39.07.15.11.34.11.56,0,.26-.05.51-.14.73-.1.22-.24.42-.43.58-.19.16-.42.29-.71.38-.28.09-.6.13-.96.13-.18,0-.36-.02-.54-.05s-.36-.08-.53-.14c-.17-.06-.33-.13-.47-.21-.14-.08-.27-.17-.37-.26l.37-.59c.04-.07.09-.12.16-.16s.14-.06.24-.06c.09,0,.18.02.25.06.07.04.15.09.24.13.09.05.19.09.3.13.11.04.26.06.43.06.12,0,.23-.01.31-.04.09-.03.15-.06.21-.11.05-.04.09-.09.11-.15.02-.06.04-.11.04-.17,0-.11-.04-.19-.11-.26-.07-.07-.17-.13-.28-.18-.12-.05-.25-.1-.4-.14s-.3-.09-.46-.15c-.15-.05-.31-.12-.46-.2-.15-.08-.28-.18-.4-.29s-.21-.26-.28-.43c-.07-.17-.11-.38-.11-.62,0-.23.04-.44.13-.65.09-.2.22-.38.39-.54s.39-.28.66-.37c.26-.09.57-.14.93-.14.19,0,.38.02.56.05.18.03.35.08.51.14.16.06.3.13.43.22.13.08.25.18.34.28l-.36.56Z"/>
    <path class="cls-3" d="M309.95,30.19c-.04.07-.08.11-.13.14-.05.03-.11.04-.18.04s-.15-.02-.23-.05-.16-.07-.24-.11-.19-.07-.3-.11-.24-.05-.38-.05c-.2,0-.36.04-.46.12-.11.08-.16.18-.16.32,0,.1.04.18.11.25.07.07.16.12.28.17.12.05.25.1.4.14s.3.09.45.15c.15.06.31.12.45.19s.28.16.4.27c.12.11.21.24.28.39.07.15.11.34.11.56,0,.26-.05.51-.14.73-.1.22-.24.42-.43.58-.19.16-.42.29-.71.38-.28.09-.6.13-.96.13-.18,0-.36-.02-.54-.05s-.36-.08-.53-.14c-.17-.06-.33-.13-.47-.21-.14-.08-.27-.17-.37-.26l.37-.59c.04-.07.09-.12.16-.16s.14-.06.24-.06c.09,0,.18.02.25.06.07.04.15.09.24.13.09.05.19.09.3.13.11.04.26.06.43.06.12,0,.23-.01.31-.04.09-.03.15-.06.21-.11.05-.04.09-.09.11-.15.02-.06.04-.11.04-.17,0-.11-.04-.19-.11-.26-.07-.07-.17-.13-.28-.18-.12-.05-.25-.1-.4-.14s-.3-.09-.46-.15c-.15-.05-.31-.12-.46-.2-.15-.08-.28-.18-.4-.29s-.21-.26-.28-.43c-.07-.17-.11-.38-.11-.62,0-.23.04-.44.13-.65.09-.2.22-.38.39-.54s.39-.28.66-.37c.26-.09.57-.14.93-.14.19,0,.38.02.56.05.18.03.35.08.51.14.16.06.3.13.43.22.13.08.25.18.34.28l-.36.56Z"/>
    <path class="cls-3" d="M314.72,34.36c-.15,0-.27-.02-.34-.06-.08-.04-.14-.13-.19-.26l-.11-.29c-.13.11-.26.21-.39.3-.12.09-.25.16-.38.22s-.27.1-.42.13c-.15.03-.31.04-.5.04-.24,0-.46-.03-.66-.1-.2-.06-.37-.16-.51-.28-.14-.12-.25-.28-.32-.46-.08-.18-.11-.4-.11-.64,0-.19.05-.38.14-.58.1-.2.26-.38.5-.54.24-.16.56-.3.96-.41s.91-.17,1.52-.19v-.23c0-.31-.06-.54-.19-.68-.13-.14-.31-.21-.55-.21-.19,0-.34.02-.46.06s-.23.09-.32.14c-.09.05-.19.1-.28.14-.09.04-.2.06-.32.06-.11,0-.2-.03-.28-.08-.08-.05-.14-.12-.19-.2l-.29-.5c.32-.28.68-.5,1.07-.64.39-.14.81-.21,1.26-.21.32,0,.61.05.87.16s.48.25.66.44c.18.19.32.41.41.67.1.26.14.54.14.84v3.33h-.73ZM313.76,27.22c.08,0,.15-.02.2-.06.05-.04.08-.13.08-.28h.97c0,.22-.03.41-.09.58-.06.17-.14.32-.25.44s-.23.22-.38.28c-.14.07-.3.1-.47.1-.13,0-.25-.02-.35-.06-.11-.04-.21-.08-.31-.13-.09-.05-.18-.09-.26-.13s-.15-.06-.2-.06c-.08,0-.15.02-.2.07-.05.05-.07.14-.07.28h-.98c0-.22.03-.41.09-.58.06-.17.15-.32.25-.44s.23-.22.38-.29c.14-.07.3-.1.46-.1.13,0,.25.02.36.06s.21.08.31.13c.09.05.18.09.25.13s.14.06.2.06ZM312.88,33.38c.21,0,.39-.04.54-.11.15-.07.31-.19.47-.35v-.74c-.32.01-.58.04-.79.08-.21.04-.37.09-.49.15-.12.06-.2.13-.25.21-.05.08-.07.16-.07.26,0,.18.05.31.15.38s.25.11.44.11Z"/>
    <path class="cls-3" d="M318.92,28.94c.4,0,.77.06,1.11.19.33.13.62.31.86.55.24.24.42.52.56.86.13.34.2.72.2,1.14s-.07.81-.2,1.15c-.13.34-.32.63-.56.87-.24.24-.52.42-.86.55-.33.13-.7.19-1.11.19s-.78-.06-1.11-.19c-.33-.13-.62-.31-.86-.55-.24-.24-.43-.53-.56-.87-.13-.34-.2-.72-.2-1.15s.07-.8.2-1.14c.13-.34.32-.62.56-.86.24-.24.53-.42.86-.55.33-.13.71-.19,1.11-.19ZM318.92,33.26c.37,0,.64-.13.81-.39.17-.26.26-.65.26-1.18s-.09-.92-.26-1.18c-.17-.26-.44-.39-.81-.39s-.65.13-.83.39c-.17.26-.26.65-.26,1.18s.09.92.26,1.18c.17.26.45.39.83.39Z"/>
    <path class="cls-3" d="M328.66,34.36c-.2,0-.33-.09-.39-.27l-.12-.41c-.11.11-.22.22-.33.31-.12.09-.24.17-.38.24s-.28.12-.44.15c-.16.04-.32.05-.51.05-.28,0-.53-.06-.77-.19-.24-.12-.44-.3-.61-.54-.17-.23-.31-.52-.4-.86s-.15-.72-.15-1.16c0-.4.06-.77.17-1.11s.26-.64.47-.89c.2-.25.44-.44.72-.58.28-.14.59-.21.93-.21.27,0,.51.04.7.12s.36.19.52.32v-2.7h1.59v7.7h-.99ZM327.05,33.21c.12,0,.22-.01.32-.03.09-.02.18-.05.26-.1.08-.04.15-.09.22-.15.07-.06.14-.13.21-.22v-2.26c-.12-.13-.25-.23-.39-.28s-.29-.08-.44-.08-.28.03-.41.09c-.12.06-.23.15-.32.28-.09.13-.16.3-.21.5-.05.21-.08.45-.08.75s.02.52.06.71c.04.19.1.35.17.47.07.12.16.2.26.25.1.05.22.08.34.08Z"/>
    <path class="cls-3" d="M332.53,27.56c0,.13-.03.25-.08.36s-.12.21-.21.29c-.09.08-.19.15-.31.2-.12.05-.24.07-.38.07s-.25-.02-.37-.07c-.11-.05-.21-.12-.3-.2-.09-.08-.16-.18-.21-.29s-.08-.23-.08-.36.03-.25.08-.37c.05-.11.12-.21.21-.3.09-.09.19-.15.3-.2.11-.05.23-.07.37-.07s.26.02.38.07c.12.05.22.12.31.2.09.09.16.19.21.3.05.11.08.23.08.37ZM332.36,29.02v5.34h-1.59v-5.34h1.59Z"/>
    <path class="cls-3" d="M337.06,34.36c-.15,0-.27-.02-.34-.06-.08-.04-.14-.13-.19-.26l-.11-.29c-.13.11-.26.21-.39.3-.12.09-.25.16-.38.22s-.27.1-.42.13c-.15.03-.31.04-.5.04-.24,0-.46-.03-.66-.1-.2-.06-.37-.16-.51-.28-.14-.12-.25-.28-.32-.46-.08-.18-.11-.4-.11-.64,0-.19.05-.38.14-.58.1-.2.26-.38.5-.54.24-.16.56-.3.96-.41s.91-.17,1.52-.19v-.23c0-.31-.06-.54-.19-.68-.13-.14-.31-.21-.55-.21-.19,0-.34.02-.46.06s-.23.09-.32.14c-.09.05-.19.1-.28.14-.09.04-.2.06-.32.06-.11,0-.2-.03-.28-.08-.08-.05-.14-.12-.19-.2l-.29-.5c.32-.28.68-.5,1.07-.64.39-.14.81-.21,1.26-.21.32,0,.61.05.87.16s.48.25.66.44c.18.19.32.41.41.67.1.26.14.54.14.84v3.33h-.73ZM335.22,33.38c.21,0,.39-.04.54-.11.15-.07.31-.19.47-.35v-.74c-.32.01-.58.04-.79.08-.21.04-.37.09-.49.15-.12.06-.2.13-.25.21-.05.08-.07.16-.07.26,0,.18.05.31.15.38s.25.11.44.11Z"/>
    <path class="cls-3" d="M342.2,30.19c-.04.07-.08.11-.13.14-.05.03-.11.04-.18.04s-.15-.02-.23-.05-.16-.07-.24-.11-.19-.07-.3-.11-.24-.05-.38-.05c-.2,0-.36.04-.46.12-.11.08-.16.18-.16.32,0,.1.04.18.11.25.07.07.16.12.28.17.12.05.25.1.4.14s.3.09.45.15c.15.06.31.12.45.19s.28.16.4.27c.12.11.21.24.28.39.07.15.11.34.11.56,0,.26-.05.51-.14.73-.1.22-.24.42-.43.58-.19.16-.42.29-.71.38-.28.09-.6.13-.96.13-.18,0-.36-.02-.54-.05s-.36-.08-.53-.14c-.17-.06-.33-.13-.47-.21-.14-.08-.27-.17-.37-.26l.37-.59c.04-.07.09-.12.16-.16s.14-.06.24-.06c.09,0,.18.02.25.06.07.04.15.09.24.13.09.05.19.09.3.13.11.04.26.06.43.06.12,0,.23-.01.31-.04.09-.03.15-.06.21-.11.05-.04.09-.09.11-.15.02-.06.04-.11.04-.17,0-.11-.04-.19-.11-.26-.07-.07-.17-.13-.28-.18-.12-.05-.25-.1-.4-.14s-.3-.09-.46-.15c-.15-.05-.31-.12-.46-.2-.15-.08-.28-.18-.4-.29s-.21-.26-.28-.43c-.07-.17-.11-.38-.11-.62,0-.23.04-.44.13-.65.09-.2.22-.38.39-.54s.39-.28.66-.37c.26-.09.57-.14.93-.14.19,0,.38.02.56.05.18.03.35.08.51.14.16.06.3.13.43.22.13.08.25.18.34.28l-.36.56Z"/>
    <path class="cls-3" d="M345.3,34.44c-.25,0-.48-.04-.67-.11-.19-.07-.36-.18-.49-.31-.13-.14-.23-.3-.3-.49-.07-.19-.1-.41-.1-.64v-2.76h-.45c-.08,0-.15-.03-.21-.08-.06-.05-.09-.13-.09-.23v-.62l.85-.16.31-1.3c.04-.16.16-.25.35-.25h.83v1.56h1.32v1.09h-1.32v2.65c0,.12.03.23.09.31.06.08.15.12.26.12.06,0,.11,0,.15-.02.04-.01.07-.03.1-.04s.06-.03.08-.04c.03-.01.06-.02.09-.02.05,0,.09.01.12.03.03.02.06.06.09.11l.48.76c-.21.15-.44.27-.7.35-.26.08-.52.12-.8.12Z"/>
    <path class="cls-3" d="M349.8,28.94c.4,0,.77.06,1.11.19.33.13.62.31.86.55.24.24.42.52.56.86.13.34.2.72.2,1.14s-.07.81-.2,1.15c-.13.34-.32.63-.56.87-.24.24-.52.42-.86.55-.33.13-.7.19-1.11.19s-.78-.06-1.11-.19c-.33-.13-.62-.31-.86-.55-.24-.24-.43-.53-.56-.87-.13-.34-.2-.72-.2-1.15s.07-.8.2-1.14c.13-.34.32-.62.56-.86.24-.24.53-.42.86-.55.33-.13.71-.19,1.11-.19ZM349.8,33.26c.37,0,.64-.13.81-.39.17-.26.26-.65.26-1.18s-.09-.92-.26-1.18c-.17-.26-.44-.39-.81-.39s-.65.13-.83.39c-.17.26-.26.65-.26,1.18s.09.92.26,1.18c.17.26.45.39.83.39ZM351.84,26.78l-1.34,1.35c-.08.08-.15.13-.23.17s-.17.05-.29.05h-.96l.7-1.26c.06-.1.13-.18.21-.23.08-.05.2-.08.36-.08h1.54Z"/>
    <path class="cls-3" d="M354.91,26.65v7.7h-1.59v-7.7h1.59Z"/>
    <path class="cls-3" d="M357.79,27.56c0,.13-.03.25-.08.36s-.12.21-.21.29c-.09.08-.19.15-.31.2-.12.05-.24.07-.38.07s-.25-.02-.37-.07c-.11-.05-.21-.12-.3-.2-.09-.08-.16-.18-.21-.29s-.08-.23-.08-.36.03-.25.08-.37c.05-.11.12-.21.21-.3.09-.09.19-.15.3-.2.11-.05.23-.07.37-.07s.26.02.38.07c.12.05.22.12.31.2.09.09.16.19.21.3.05.11.08.23.08.37ZM357.62,29.02v5.34h-1.59v-5.34h1.59Z"/>
    <path class="cls-3" d="M362.66,30.29c-.05.06-.09.1-.14.14-.04.03-.11.05-.19.05s-.15-.02-.21-.06c-.06-.04-.13-.08-.21-.13s-.17-.09-.28-.13-.24-.06-.4-.06c-.2,0-.36.04-.51.11-.14.07-.26.18-.35.31-.09.13-.16.3-.21.49-.04.19-.07.41-.07.66,0,.51.1.9.3,1.18s.47.41.82.41c.19,0,.33-.02.44-.07.11-.05.2-.1.27-.15.08-.06.15-.11.21-.16.06-.05.14-.07.24-.07.13,0,.22.05.29.14l.46.57c-.17.19-.34.34-.52.46s-.37.21-.56.28-.38.11-.57.14c-.19.03-.38.04-.56.04-.33,0-.64-.06-.93-.19s-.56-.3-.78-.54-.4-.52-.53-.87c-.13-.34-.2-.73-.2-1.17,0-.38.06-.74.17-1.08s.29-.62.51-.87.5-.44.83-.58.71-.21,1.15-.21.79.07,1.1.2c.32.13.6.33.85.59l-.42.56Z"/>
  </g>
  <path class="cls-3" d="M367.11,34.36c-.15,0-.27-.02-.34-.06-.08-.04-.14-.13-.19-.26l-.11-.29c-.13.11-.26.21-.39.3-.12.09-.25.16-.38.22s-.27.1-.42.13c-.15.03-.31.04-.5.04-.24,0-.46-.03-.66-.1-.2-.06-.37-.16-.51-.28-.14-.12-.25-.28-.32-.46-.08-.18-.11-.4-.11-.64,0-.19.05-.38.14-.58.1-.2.26-.38.5-.54.24-.16.56-.3.96-.41s.91-.17,1.52-.19v-.23c0-.31-.06-.54-.19-.68-.13-.14-.31-.21-.55-.21-.19,0-.34.02-.46.06s-.23.09-.32.14c-.09.05-.19.1-.28.14-.09.04-.2.06-.32.06-.11,0-.2-.03-.28-.08-.08-.05-.14-.12-.19-.2l-.29-.5c.32-.28.68-.5,1.07-.64.39-.14.81-.21,1.26-.21.32,0,.61.05.87.16s.48.25.66.44c.18.19.32.41.41.67.1.26.14.54.14.84v3.33h-.73ZM365.28,33.38c.21,0,.39-.04.54-.11.15-.07.31-.19.47-.35v-.74c-.32.01-.58.04-.79.08-.21.04-.37.09-.49.15-.12.06-.2.13-.25.21-.05.08-.07.16-.07.26,0,.18.05.31.15.38s.25.11.44.11Z"/>
  <g>
    <path class="cls-4" d="M21.21,59.64v2.76h-.99v-7.37h2.18c.47,0,.87.05,1.22.16.34.11.63.26.86.46.23.2.4.44.51.72.11.28.17.6.17.94s-.06.66-.18.94-.3.53-.53.74-.52.37-.86.48c-.34.12-.74.17-1.18.17h-1.18ZM21.21,58.85h1.18c.28,0,.54-.04.75-.11.22-.08.4-.18.55-.32.15-.14.26-.3.34-.49.08-.19.11-.4.11-.62,0-.47-.15-.84-.44-1.1s-.73-.4-1.32-.4h-1.18v3.04Z"/>
    <path class="cls-4" d="M31.88,62.4h-.77c-.09,0-.16-.02-.22-.07-.06-.04-.1-.1-.12-.17l-.69-1.78h-3.31l-.69,1.78c-.02.06-.06.12-.12.16-.06.05-.13.07-.22.07h-.77l2.95-7.37h1.01l2.95,7.37ZM27.04,59.66h2.75l-1.16-3c-.04-.09-.07-.19-.11-.31-.04-.12-.07-.24-.11-.38-.03.13-.07.26-.11.38-.04.12-.07.22-.11.31l-1.16,2.99Z"/>
  </g>
  <g>
    <path class="cls-4" d="M34.92,62.4v-5.21h.55c.13,0,.21.06.24.19l.07.57c.23-.25.48-.45.76-.61s.61-.23.97-.23c.28,0,.54.05.75.14.22.09.4.23.54.4.15.17.26.38.33.62.08.24.11.51.11.81v3.32h-.92v-3.32c0-.39-.09-.7-.27-.92-.18-.22-.45-.33-.82-.33-.27,0-.53.06-.76.2s-.45.31-.65.53v3.84h-.92Z"/>
    <path class="cls-4" d="M42.86,57.1c.38,0,.72.06,1.03.19.31.13.57.31.78.54s.38.52.5.85c.11.33.17.7.17,1.11s-.06.78-.17,1.11c-.12.33-.28.61-.5.84s-.48.41-.78.54c-.31.12-.65.19-1.03.19s-.73-.06-1.04-.19c-.31-.12-.57-.3-.78-.54-.22-.23-.38-.51-.5-.84-.11-.33-.17-.7-.17-1.11s.06-.78.17-1.11.28-.61.5-.85c.22-.23.48-.41.78-.54.31-.13.65-.19,1.04-.19ZM42.86,61.75c.51,0,.9-.17,1.15-.52s.38-.83.38-1.44-.13-1.1-.38-1.45c-.25-.35-.64-.52-1.15-.52-.26,0-.49.04-.68.13-.19.09-.35.22-.48.39-.13.17-.22.37-.29.62-.06.25-.1.52-.1.83,0,.62.13,1.1.38,1.44.26.34.64.52,1.17.52Z"/>
    <path class="cls-4" d="M46.5,62.4v-5.21h.52c.1,0,.17.02.21.06s.06.1.08.2l.06.79c.16-.36.37-.64.61-.84.24-.2.54-.3.88-.3.11,0,.21.01.32.04.1.02.19.06.27.11l-.07.68c-.02.09-.07.13-.15.13-.05,0-.12-.01-.21-.03-.09-.02-.2-.03-.31-.03-.16,0-.31.02-.44.07s-.25.12-.35.22c-.1.09-.19.21-.27.35-.08.14-.15.29-.22.47v3.29h-.92Z"/>
    <path class="cls-4" d="M50.25,62.4v-5.21h.55c.13,0,.21.06.24.19l.07.54c.19-.24.41-.43.65-.58s.52-.23.83-.23c.35,0,.63.1.85.29s.37.46.47.79c.08-.19.17-.35.29-.49.12-.14.25-.25.4-.34.15-.09.3-.15.47-.2s.34-.06.51-.06c.27,0,.52.04.73.13.21.09.4.22.54.38.15.17.26.38.34.62s.12.53.12.84v3.32h-.92v-3.32c0-.41-.09-.72-.27-.93-.18-.21-.44-.32-.77-.32-.15,0-.29.03-.43.08-.14.05-.25.13-.36.23s-.18.23-.24.39-.09.34-.09.54v3.32h-.92v-3.32c0-.42-.08-.73-.25-.94-.17-.21-.41-.31-.74-.31-.23,0-.44.06-.63.18s-.37.29-.53.5v3.88h-.92Z"/>
    <path class="cls-4" d="M62.02,62.4c-.09,0-.16-.01-.21-.04-.05-.03-.09-.09-.11-.17l-.1-.49c-.14.12-.27.23-.4.33-.13.1-.27.18-.41.25-.14.07-.29.12-.46.15-.16.04-.34.05-.54.05s-.39-.03-.57-.08c-.18-.06-.33-.14-.47-.25-.13-.11-.24-.26-.31-.43-.08-.17-.12-.38-.12-.61,0-.21.06-.4.17-.59.11-.19.3-.36.55-.51s.58-.27.99-.36c.41-.09.91-.15,1.5-.16v-.41c0-.4-.09-.71-.26-.92s-.43-.31-.77-.31c-.23,0-.42.03-.57.08-.15.06-.28.12-.4.19-.11.07-.21.13-.29.19s-.16.08-.24.08c-.06,0-.11-.02-.16-.05-.04-.03-.08-.07-.11-.12l-.16-.29c.29-.28.6-.49.93-.62.33-.14.7-.21,1.11-.21.29,0,.55.05.78.14.23.1.42.23.57.4.15.17.27.38.35.62.08.24.12.51.12.8v3.33h-.41ZM60.06,61.83c.16,0,.31-.02.44-.05.13-.03.26-.08.38-.14s.23-.13.34-.22c.11-.09.21-.19.32-.3v-1.08c-.42.01-.78.05-1.08.1s-.54.12-.73.21c-.19.09-.32.19-.41.3s-.13.25-.13.39.02.26.07.35c.04.1.11.18.18.24.08.06.17.11.27.14s.22.04.34.04Z"/>
    <path class="cls-4" d="M64.77,54.82v7.58h-.92v-7.58h.92Z"/>
  </g>
  <g>
    <path class="cls-4" d="M178.23,58.74l3.98-2.06v.65c0,.06-.01.11-.04.15-.03.04-.08.08-.14.12l-2.31,1.17c-.07.04-.14.07-.22.1s-.16.05-.24.07c.09.02.17.04.24.07s.15.06.22.09l2.31,1.17c.07.03.12.07.14.12.03.04.04.09.04.15v.66l-3.98-2.07v-.38Z"/>
    <path class="cls-4" d="M187.29,61.7h1.58v-5.03c0-.14,0-.3.02-.46l-1.31,1.13s-.09.06-.13.07c-.04,0-.09,0-.12,0s-.07-.02-.11-.04c-.03-.02-.06-.04-.07-.07l-.29-.4,2.2-1.9h.75v6.69h1.45v.7h-3.95v-.7Z"/>
    <path class="cls-4" d="M195.01,54.94c.31,0,.6.05.88.14.27.09.51.23.7.4.2.18.35.39.47.65s.17.54.17.86c0,.27-.04.53-.12.76-.08.23-.19.46-.33.67-.14.21-.3.42-.49.62-.18.2-.38.41-.58.61l-1.94,1.99c.14-.04.28-.07.42-.09s.28-.03.41-.03h2.47c.1,0,.18.03.24.09.06.06.09.13.09.23v.56h-4.92v-.31c0-.06.01-.13.04-.2.03-.07.07-.13.13-.19l2.36-2.37c.2-.2.37-.39.54-.57.16-.18.3-.37.41-.55.11-.19.2-.37.26-.56.06-.19.09-.39.09-.61s-.03-.41-.1-.57c-.07-.16-.16-.3-.28-.4-.12-.11-.26-.19-.42-.24-.16-.05-.33-.08-.52-.08s-.36.03-.52.08c-.16.05-.3.13-.42.23-.12.1-.22.21-.31.35-.08.13-.14.28-.18.44-.04.12-.1.2-.17.24s-.17.05-.3.03l-.48-.08c.05-.34.14-.63.28-.89.14-.26.31-.48.52-.65s.45-.31.72-.4c.27-.09.56-.14.88-.14Z"/>
    <path class="cls-4" d="M203.6,58.71c0,.64-.07,1.2-.21,1.67-.14.47-.33.86-.57,1.17-.24.31-.53.54-.85.69-.33.15-.68.23-1.05.23s-.73-.08-1.05-.23-.61-.38-.85-.69c-.24-.31-.43-.7-.57-1.17-.14-.47-.21-1.03-.21-1.67s.07-1.2.21-1.68c.14-.47.33-.86.57-1.18.24-.31.52-.54.85-.69s.67-.23,1.05-.23.72.08,1.05.23c.33.15.61.38.85.69s.43.7.57,1.18c.14.47.21,1.03.21,1.68ZM202.65,58.71c0-.56-.05-1.04-.14-1.42-.1-.38-.22-.69-.38-.92-.16-.23-.34-.4-.55-.5s-.43-.15-.65-.15-.44.05-.65.15c-.21.1-.39.27-.55.5-.16.23-.28.54-.38.92-.09.38-.14.85-.14,1.42s.05,1.03.14,1.41c.09.38.22.69.38.92.16.23.34.4.55.5.21.1.43.15.65.15s.44-.05.65-.15.39-.27.55-.5c.16-.23.29-.54.38-.92.09-.38.14-.85.14-1.41Z"/>
  </g>
  <g>
    <path class="cls-4" d="M252.24,57.1c.31,0,.6.05.87.16s.5.26.69.45.35.44.46.73c.11.29.17.62.17.99,0,.14-.02.24-.05.29-.03.05-.09.07-.17.07h-3.48c0,.33.05.62.13.86.08.24.2.45.34.61.14.16.32.28.51.37s.42.12.67.12c.23,0,.43-.03.59-.08.17-.05.31-.11.43-.17s.22-.12.3-.17c.08-.05.15-.08.21-.08.08,0,.13.03.17.09l.26.33c-.11.14-.25.26-.41.36-.16.1-.33.18-.51.25-.18.07-.37.11-.56.15-.19.03-.38.05-.57.05-.36,0-.69-.06-1-.18-.3-.12-.57-.3-.79-.53-.22-.23-.39-.53-.52-.87-.12-.35-.19-.74-.19-1.19,0-.36.06-.7.17-1.02.11-.32.27-.59.48-.82s.46-.41.77-.55c.3-.13.64-.2,1.02-.2ZM252.26,57.78c-.44,0-.79.13-1.04.38s-.41.61-.47,1.06h2.85c0-.21-.03-.41-.09-.58-.06-.18-.15-.33-.26-.46s-.25-.23-.42-.3c-.17-.07-.35-.11-.56-.11Z"/>
    <path class="cls-4" d="M317.42,58.74l3.98-2.06v.65c0,.06-.01.11-.04.15-.03.04-.08.08-.14.12l-2.31,1.17c-.07.04-.14.07-.22.1s-.16.05-.24.07c.08.02.17.04.24.07s.15.06.22.09l2.31,1.17c.07.03.12.07.14.12s.04.09.04.15v.66l-3.98-2.07v-.38Z"/>
  </g>
  <g>
    <path class="cls-4" d="M328.18,62.48c-.37,0-.7-.05-1.01-.15s-.57-.24-.79-.42c-.22-.18-.39-.4-.51-.66-.12-.26-.18-.55-.18-.87,0-.47.12-.86.37-1.17.25-.31.6-.53,1.06-.66-.39-.14-.68-.36-.88-.65-.2-.29-.3-.63-.3-1.03,0-.27.05-.52.16-.76s.26-.44.45-.62c.2-.17.43-.31.7-.41.27-.1.58-.15.91-.15s.64.05.91.15c.27.1.51.24.71.41.2.18.35.38.45.62.11.24.16.49.16.76,0,.4-.1.74-.3,1.03-.2.29-.49.5-.87.65.46.13.81.35,1.06.66.25.31.37.7.37,1.17,0,.32-.06.61-.18.87-.12.26-.29.48-.51.66-.22.18-.48.32-.79.42-.3.1-.64.15-1.01.15ZM328.18,61.75c.24,0,.46-.03.65-.1s.35-.16.48-.28c.13-.12.23-.27.3-.44.07-.17.11-.36.11-.56,0-.25-.04-.47-.13-.65s-.2-.33-.34-.44-.31-.2-.49-.25-.38-.08-.58-.08-.4.03-.58.08c-.18.05-.35.14-.49.25s-.25.26-.34.44c-.08.18-.13.4-.13.65,0,.21.04.39.11.56.07.17.17.32.3.44.13.12.29.22.48.28.19.07.41.1.65.1ZM328.18,58.21c.24,0,.44-.04.61-.11.17-.07.31-.17.41-.29.11-.12.18-.26.23-.42.05-.16.07-.32.07-.49s-.03-.33-.08-.48c-.06-.15-.14-.28-.25-.4s-.25-.2-.42-.27c-.17-.06-.36-.1-.58-.1s-.41.03-.58.1c-.17.07-.31.15-.42.27s-.2.25-.25.4c-.06.15-.08.31-.08.48s.02.33.07.49.12.3.23.42c.11.12.24.22.41.29.17.07.38.11.62.11Z"/>
    <path class="cls-4" d="M336.83,58.71c0,.64-.07,1.2-.21,1.67-.14.47-.33.86-.57,1.17-.24.31-.52.54-.85.69-.33.15-.68.23-1.05.23s-.73-.08-1.05-.23-.61-.38-.85-.69c-.24-.31-.43-.7-.57-1.17-.14-.47-.21-1.03-.21-1.67s.07-1.2.21-1.68c.14-.47.33-.86.57-1.18s.52-.54.85-.69.67-.23,1.05-.23.72.08,1.05.23c.33.15.61.38.85.69s.43.7.57,1.18c.14.47.21,1.03.21,1.68ZM335.88,58.71c0-.56-.05-1.04-.14-1.42-.09-.38-.22-.69-.38-.92-.16-.23-.34-.4-.55-.5-.21-.1-.43-.15-.65-.15s-.44.05-.65.15c-.21.1-.39.27-.55.5-.16.23-.28.54-.38.92-.09.38-.14.85-.14,1.42s.05,1.03.14,1.41c.09.38.22.69.38.92.16.23.34.4.55.5.21.1.43.15.65.15s.44-.05.65-.15c.21-.1.39-.27.55-.5.16-.23.29-.54.38-.92.09-.38.14-.85.14-1.41Z"/>
  </g>
  <g>
    <path class="cls-4" d="M21.21,85.16v2.76h-.99v-7.37h2.18c.47,0,.87.05,1.22.16.34.11.63.26.86.46.23.2.4.44.51.72.11.28.17.6.17.94s-.06.66-.18.94-.3.53-.53.74-.52.37-.86.48c-.34.12-.74.17-1.18.17h-1.18ZM21.21,84.37h1.18c.28,0,.54-.04.75-.11.22-.08.4-.18.55-.32.15-.14.26-.3.34-.49.08-.19.11-.4.11-.62,0-.47-.15-.84-.44-1.1s-.73-.4-1.32-.4h-1.18v3.04Z"/>
    <path class="cls-4" d="M26.09,87.92v-5.21h.52c.1,0,.17.02.21.06s.06.1.08.2l.06.79c.16-.36.37-.64.61-.84.24-.2.54-.3.88-.3.11,0,.21.01.32.04.1.02.19.06.27.11l-.07.68c-.02.09-.07.13-.15.13-.05,0-.12-.01-.21-.03-.09-.02-.2-.03-.31-.03-.16,0-.31.02-.44.07s-.25.12-.35.22c-.1.09-.19.21-.27.35-.08.14-.15.29-.22.47v3.29h-.92Z"/>
  </g>
  <g>
    <path class="cls-4" d="M31.75,82.62c.31,0,.6.05.87.16s.5.26.69.45.35.44.46.73c.11.29.16.62.16.99,0,.14-.02.24-.05.29-.03.05-.09.07-.17.07h-3.48c0,.33.05.62.13.86s.2.45.34.61c.14.16.32.28.51.37s.42.12.67.12c.23,0,.43-.03.59-.08s.31-.11.43-.17.22-.12.3-.17.15-.08.21-.08c.08,0,.13.03.17.09l.26.33c-.11.14-.25.26-.41.36-.16.1-.33.18-.51.25-.18.07-.37.11-.56.15-.19.03-.38.05-.57.05-.36,0-.69-.06-1-.18-.3-.12-.57-.3-.79-.53s-.39-.53-.52-.87c-.12-.35-.19-.74-.19-1.19,0-.36.06-.7.17-1.02.11-.32.27-.59.48-.82.21-.23.46-.41.77-.55.3-.13.64-.2,1.02-.2ZM31.77,83.3c-.44,0-.79.13-1.04.38-.25.26-.41.61-.47,1.06h2.85c0-.21-.03-.41-.09-.58s-.15-.33-.26-.46-.25-.23-.42-.3-.35-.11-.56-.11ZM33.27,80.46l-1.2,1.33c-.05.05-.1.09-.14.11s-.11.03-.18.03h-.55l.76-1.25c.05-.08.1-.14.16-.17.06-.04.14-.05.25-.05h.9Z"/>
    <path class="cls-4" d="M34.97,84.45h2.54v.78h-2.54v-.78Z"/>
    <path class="cls-4" d="M38.87,87.92v-7.58h.92v3.07c.22-.24.47-.43.74-.57.27-.14.58-.21.94-.21.28,0,.54.05.75.14.22.09.4.23.54.4.15.17.26.38.33.62.08.24.11.51.11.81v3.32h-.92v-3.32c0-.39-.09-.7-.27-.92-.18-.22-.45-.33-.82-.33-.27,0-.53.06-.76.2s-.45.31-.65.53v3.84h-.92Z"/>
    <path class="cls-4" d="M45.78,81.07c0,.09-.02.17-.05.25-.04.08-.08.15-.14.21s-.13.11-.21.14c-.08.03-.17.05-.25.05s-.17-.02-.25-.05c-.08-.03-.15-.08-.2-.14-.06-.06-.1-.13-.14-.21s-.05-.16-.05-.25.02-.17.05-.25.08-.15.14-.21c.06-.06.13-.11.2-.14s.16-.05.25-.05.17.02.25.05.15.08.21.14.11.13.14.21c.04.08.05.17.05.25ZM45.58,82.71v5.21h-.92v-5.21h.92Z"/>
    <path class="cls-4" d="M47.09,89.68v-6.98h.55c.13,0,.21.06.24.19l.08.62c.22-.27.48-.49.77-.65.29-.16.62-.25.99-.25.3,0,.57.06.82.17.24.12.45.29.62.51s.3.5.4.84c.09.33.14.71.14,1.15,0,.38-.05.74-.15,1.07-.1.33-.25.62-.45.86s-.43.43-.71.57c-.28.14-.59.21-.94.21-.32,0-.59-.05-.82-.16s-.43-.26-.6-.45v2.3h-.92ZM49.41,83.36c-.3,0-.56.07-.78.21-.23.14-.43.33-.62.58v2.52c.16.23.35.39.55.48s.42.14.67.14c.49,0,.86-.17,1.12-.52.26-.35.39-.84.39-1.48,0-.34-.03-.63-.09-.88-.06-.24-.15-.44-.26-.6-.11-.16-.25-.27-.42-.34s-.35-.11-.56-.11Z"/>
    <path class="cls-4" d="M54.99,82.62c.31,0,.6.05.87.16s.5.26.69.45.35.44.46.73c.11.29.16.62.16.99,0,.14-.02.24-.05.29-.03.05-.09.07-.17.07h-3.48c0,.33.05.62.13.86s.2.45.34.61c.14.16.32.28.51.37s.42.12.67.12c.23,0,.43-.03.59-.08s.31-.11.43-.17.22-.12.3-.17.15-.08.21-.08c.08,0,.13.03.17.09l.26.33c-.11.14-.25.26-.41.36-.16.1-.33.18-.51.25-.18.07-.37.11-.56.15-.19.03-.38.05-.57.05-.36,0-.69-.06-1-.18-.3-.12-.57-.3-.79-.53s-.39-.53-.52-.87c-.12-.35-.19-.74-.19-1.19,0-.36.06-.7.17-1.02.11-.32.27-.59.48-.82.21-.23.46-.41.77-.55.3-.13.64-.2,1.02-.2ZM55.01,83.3c-.44,0-.79.13-1.04.38-.25.26-.41.61-.47,1.06h2.85c0-.21-.03-.41-.09-.58s-.15-.33-.26-.46-.25-.23-.42-.3-.35-.11-.56-.11Z"/>
    <path class="cls-4" d="M58.29,87.92v-5.21h.52c.1,0,.17.02.21.06s.06.1.08.2l.06.79c.16-.36.37-.64.61-.84.24-.2.54-.3.88-.3.11,0,.21.01.32.04.1.02.19.06.27.11l-.07.68c-.02.09-.07.13-.15.13-.05,0-.12-.01-.21-.03-.09-.02-.2-.03-.31-.03-.16,0-.31.02-.44.07s-.25.12-.35.22c-.1.09-.19.21-.27.35-.08.14-.15.29-.22.47v3.29h-.92Z"/>
    <path class="cls-4" d="M63.63,88c-.41,0-.73-.12-.95-.34-.22-.23-.33-.56-.33-.99v-3.19h-.63c-.05,0-.1-.02-.14-.05s-.06-.08-.06-.15v-.37l.85-.11.21-1.61c.01-.05.03-.09.07-.13.04-.03.08-.05.14-.05h.46v1.8h1.51v.66h-1.51v3.13c0,.22.05.38.16.49.11.11.24.16.41.16.1,0,.18-.01.25-.04s.13-.05.18-.08c.05-.03.1-.06.13-.08.04-.03.07-.04.1-.04.05,0,.09.03.13.09l.27.44c-.16.15-.35.26-.57.35-.22.08-.45.13-.69.13Z"/>
    <path class="cls-4" d="M67.86,82.62c.31,0,.6.05.87.16s.5.26.69.45.35.44.46.73c.11.29.16.62.16.99,0,.14-.02.24-.05.29-.03.05-.09.07-.17.07h-3.48c0,.33.05.62.13.86s.2.45.34.61c.14.16.32.28.51.37s.42.12.67.12c.23,0,.43-.03.59-.08s.31-.11.43-.17.22-.12.3-.17.15-.08.21-.08c.08,0,.13.03.17.09l.26.33c-.11.14-.25.26-.41.36-.16.1-.33.18-.51.25-.18.07-.37.11-.56.15-.19.03-.38.05-.57.05-.36,0-.69-.06-1-.18-.3-.12-.57-.3-.79-.53s-.39-.53-.52-.87c-.12-.35-.19-.74-.19-1.19,0-.36.06-.7.17-1.02.11-.32.27-.59.48-.82.21-.23.46-.41.77-.55.3-.13.64-.2,1.02-.2ZM67.88,83.3c-.44,0-.79.13-1.04.38-.25.26-.41.61-.47,1.06h2.85c0-.21-.03-.41-.09-.58s-.15-.33-.26-.46-.25-.23-.42-.3-.35-.11-.56-.11Z"/>
    <path class="cls-4" d="M71.15,87.92v-5.21h.55c.13,0,.21.06.24.19l.07.57c.23-.25.48-.45.76-.61s.61-.23.97-.23c.28,0,.54.05.75.14.22.09.4.23.54.4.15.17.26.38.33.62.08.24.11.51.11.81v3.32h-.92v-3.32c0-.39-.09-.7-.27-.92-.18-.22-.45-.33-.82-.33-.27,0-.53.06-.76.2s-.45.31-.65.53v3.84h-.92Z"/>
    <path class="cls-4" d="M79.93,83.57c-.04.08-.1.11-.19.11-.05,0-.11-.02-.18-.06-.06-.04-.14-.08-.24-.13-.09-.05-.21-.09-.34-.13s-.28-.06-.46-.06c-.15,0-.29.02-.42.06-.12.04-.23.09-.32.16-.09.07-.15.15-.2.24-.05.09-.07.19-.07.3,0,.13.04.25.12.33.08.09.18.17.31.23s.27.12.43.17.33.1.5.16c.17.06.34.12.5.19.16.07.31.15.43.26s.23.23.31.38c.08.15.12.33.12.54,0,.24-.04.46-.13.67-.09.2-.21.38-.38.53-.17.15-.37.27-.62.35-.24.09-.52.13-.84.13-.36,0-.69-.06-.99-.18s-.55-.27-.75-.46l.22-.35s.06-.08.1-.1c.04-.02.09-.04.14-.04.06,0,.13.02.2.07.07.05.15.1.25.16.1.06.22.11.36.16.14.05.32.07.52.07.18,0,.33-.02.47-.07.13-.05.25-.11.33-.19.09-.08.16-.17.2-.27.04-.1.06-.21.06-.33,0-.14-.04-.26-.12-.36s-.18-.17-.31-.24-.27-.13-.43-.18c-.16-.05-.33-.1-.5-.16s-.34-.12-.5-.19c-.16-.07-.31-.16-.43-.26-.13-.11-.23-.24-.31-.39-.08-.16-.12-.35-.12-.57,0-.2.04-.39.12-.57.08-.18.2-.34.36-.48.16-.14.35-.25.58-.33.23-.08.49-.12.79-.12.34,0,.65.05.92.16.27.11.51.26.71.45l-.21.33Z"/>
    <path class="cls-4" d="M84.66,87.92c-.09,0-.16-.01-.21-.04-.05-.03-.09-.09-.11-.17l-.1-.49c-.14.12-.27.23-.4.33-.13.1-.27.18-.41.25-.14.07-.29.12-.46.15-.16.04-.34.05-.54.05s-.39-.03-.57-.08c-.18-.06-.33-.14-.47-.25-.13-.11-.24-.26-.31-.43-.08-.17-.12-.38-.12-.61,0-.21.06-.4.17-.59.11-.19.3-.36.55-.51s.58-.27.99-.36c.41-.09.91-.15,1.5-.16v-.41c0-.4-.09-.71-.26-.92s-.43-.31-.77-.31c-.23,0-.42.03-.57.08-.15.06-.28.12-.4.19-.11.07-.21.13-.29.19s-.16.08-.24.08c-.06,0-.11-.02-.16-.05-.04-.03-.08-.07-.11-.12l-.16-.29c.29-.28.6-.49.93-.62.33-.14.7-.21,1.11-.21.29,0,.55.05.78.14.23.1.42.23.57.4.15.17.27.38.35.62.08.24.12.51.12.8v3.33h-.41ZM83.71,81.1c.12,0,.22-.04.29-.11.07-.07.1-.18.11-.33h.56c0,.16-.02.31-.06.45-.04.14-.1.25-.19.35s-.18.17-.29.22c-.11.05-.24.08-.37.08-.12,0-.23-.02-.34-.07s-.2-.1-.3-.16c-.09-.06-.18-.11-.26-.16s-.16-.07-.24-.07c-.25,0-.37.15-.38.45h-.57c0-.17.02-.31.07-.45.04-.14.11-.25.19-.35.08-.1.18-.17.29-.23.11-.05.24-.08.37-.08.12,0,.23.02.34.07.1.05.2.1.3.16.09.06.18.11.26.16s.16.07.24.07ZM82.7,87.36c.16,0,.31-.02.44-.05.13-.03.26-.08.38-.14s.23-.13.34-.22c.11-.09.21-.19.32-.3v-1.08c-.42.01-.78.05-1.08.1s-.54.12-.73.21c-.19.09-.32.19-.41.3s-.13.25-.13.39.02.26.07.35c.04.1.11.18.18.24.08.06.17.11.27.14s.22.04.34.04Z"/>
    <path class="cls-4" d="M88.66,82.62c.38,0,.72.06,1.03.19.31.13.57.31.78.54s.38.52.5.85c.11.33.17.7.17,1.11s-.06.78-.17,1.11c-.12.33-.28.61-.5.84s-.48.41-.78.54c-.31.12-.65.19-1.03.19s-.73-.06-1.04-.19c-.31-.12-.57-.3-.78-.54-.22-.23-.38-.51-.5-.84-.11-.33-.17-.7-.17-1.11s.06-.78.17-1.11.28-.61.5-.85c.22-.23.48-.41.78-.54.31-.13.65-.19,1.04-.19ZM88.66,87.28c.51,0,.9-.17,1.15-.52s.38-.83.38-1.44-.13-1.1-.38-1.45c-.25-.35-.64-.52-1.15-.52-.26,0-.49.04-.68.13-.19.09-.35.22-.48.39-.13.17-.22.37-.29.62-.06.25-.1.52-.1.83,0,.62.13,1.1.38,1.44.26.34.64.52,1.17.52Z"/>
  </g>
  <g>
    <path class="cls-4" d="M169.48,87.22h1.58v-5.03c0-.14,0-.3.02-.46l-1.31,1.13s-.09.06-.13.07c-.04,0-.09,0-.12,0s-.07-.02-.11-.04c-.03-.02-.06-.04-.07-.07l-.29-.4,2.2-1.9h.75v6.69h1.45v.7h-3.95v-.7Z"/>
    <path class="cls-4" d="M177.21,80.46c.31,0,.6.05.88.14.27.09.51.23.7.4.2.18.35.39.47.65s.17.54.17.86c0,.27-.04.53-.12.76-.08.23-.19.46-.33.67-.14.21-.3.42-.49.62-.18.2-.38.41-.58.61l-1.94,1.99c.14-.04.28-.07.42-.09s.28-.03.41-.03h2.47c.1,0,.18.03.24.09.06.06.09.13.09.23v.56h-4.92v-.31c0-.06.01-.13.04-.2.03-.07.07-.13.13-.19l2.36-2.37c.2-.2.37-.39.54-.57.16-.18.3-.37.41-.55.11-.19.2-.37.26-.56.06-.19.09-.39.09-.61s-.03-.41-.1-.57c-.07-.16-.16-.3-.28-.4-.12-.11-.26-.19-.42-.24-.16-.05-.33-.08-.52-.08s-.36.03-.52.08c-.16.05-.3.13-.42.23-.12.1-.22.21-.31.35-.08.13-.14.28-.18.44-.04.12-.1.2-.17.24s-.17.05-.3.03l-.48-.08c.05-.34.14-.63.28-.89.14-.26.31-.48.52-.65s.45-.31.72-.4c.27-.09.56-.14.88-.14Z"/>
    <path class="cls-4" d="M185.79,84.24c0,.64-.07,1.2-.21,1.67-.14.47-.33.86-.57,1.17-.24.31-.52.54-.85.69-.33.15-.68.23-1.05.23s-.73-.08-1.05-.23-.61-.38-.85-.69c-.24-.31-.43-.7-.57-1.17-.14-.47-.21-1.03-.21-1.67s.07-1.2.21-1.68c.14-.47.33-.86.57-1.18.24-.31.52-.54.85-.69s.67-.23,1.05-.23.72.08,1.05.23c.33.15.61.38.85.69.24.31.43.7.57,1.18.14.47.21,1.03.21,1.68ZM184.84,84.24c0-.56-.05-1.04-.14-1.42-.09-.38-.22-.69-.38-.92-.16-.23-.34-.4-.55-.5s-.43-.15-.65-.15-.44.05-.65.15c-.21.1-.39.27-.55.5-.16.23-.28.54-.38.92-.09.38-.14.85-.14,1.42s.05,1.03.14,1.41c.09.38.22.69.38.92.16.23.34.4.55.5.21.1.43.15.65.15s.44-.05.65-.15.39-.27.55-.5c.16-.23.29-.54.38-.92.09-.38.14-.85.14-1.41Z"/>
    <path class="cls-4" d="M189.38,84.45h2.54v.78h-2.54v-.78Z"/>
    <path class="cls-4" d="M196.48,87.22h1.58v-5.03c0-.14,0-.3.02-.46l-1.31,1.13s-.09.06-.13.07c-.04,0-.09,0-.12,0s-.07-.02-.11-.04c-.03-.02-.06-.04-.07-.07l-.29-.4,2.2-1.9h.75v6.69h1.45v.7h-3.95v-.7Z"/>
    <path class="cls-4" d="M204.24,80.46c.31,0,.6.04.86.13s.49.22.68.38c.19.16.34.36.45.6s.16.49.16.78c0,.23-.03.44-.09.62-.06.18-.15.34-.26.48-.11.14-.25.26-.4.35-.16.1-.33.17-.53.23.48.13.84.34,1.08.64s.36.67.36,1.12c0,.34-.06.65-.19.92s-.3.5-.53.69-.48.34-.78.44-.62.15-.96.15c-.39,0-.72-.05-1-.15-.28-.1-.51-.23-.71-.4-.19-.17-.35-.37-.47-.61-.12-.24-.23-.49-.31-.76l.4-.16c.1-.04.2-.06.3-.04s.17.08.21.17c.04.1.1.21.17.34.07.13.16.26.28.39.12.12.26.23.44.31.18.09.41.13.69.13.26,0,.48-.04.68-.13.19-.08.35-.19.48-.33s.23-.28.29-.45.1-.33.1-.49c0-.2-.03-.38-.08-.55-.05-.16-.15-.31-.29-.43-.14-.12-.33-.21-.58-.28-.25-.07-.56-.1-.95-.1v-.66c.32,0,.58-.04.81-.1.22-.06.4-.15.54-.27s.24-.25.3-.41c.06-.16.09-.33.09-.52,0-.21-.03-.4-.1-.56s-.16-.29-.28-.39c-.12-.1-.25-.18-.41-.23-.16-.05-.33-.08-.52-.08s-.36.03-.52.08c-.16.05-.3.13-.42.23-.12.1-.22.21-.3.35s-.14.28-.18.44c-.04.12-.1.2-.17.24-.07.04-.16.05-.29.03l-.48-.08c.05-.34.14-.63.28-.89.14-.26.31-.48.52-.65s.45-.31.73-.4c.27-.09.57-.14.88-.14Z"/>
    <path class="cls-4" d="M210.73,84.98c.08-.1.15-.19.21-.28.06-.09.13-.18.18-.27-.19.15-.4.27-.64.34s-.49.12-.75.12c-.28,0-.54-.05-.79-.14-.25-.09-.47-.23-.66-.41-.19-.18-.34-.4-.45-.66-.11-.26-.17-.56-.17-.9s.06-.62.18-.91c.12-.28.29-.53.5-.74.22-.21.47-.37.77-.49.3-.12.63-.18.98-.18s.67.06.96.17.54.28.74.49c.21.21.36.46.48.75.11.29.17.61.17.97,0,.21-.02.41-.06.6-.04.19-.1.38-.17.56-.07.18-.16.37-.27.55s-.23.36-.36.55l-1.8,2.59c-.04.07-.11.12-.19.16-.08.04-.18.06-.28.06h-.84l2.24-2.94ZM211.57,82.74c0-.23-.04-.44-.11-.62-.07-.19-.18-.35-.31-.48-.13-.13-.29-.23-.47-.3-.18-.07-.38-.11-.59-.11-.23,0-.43.04-.62.11-.19.07-.34.18-.48.31-.13.13-.24.29-.31.47-.07.18-.11.38-.11.6,0,.23.03.44.1.62.07.18.16.34.29.47.12.13.28.22.46.29.18.06.38.1.6.1.25,0,.46-.04.66-.12s.35-.19.48-.32c.13-.13.23-.29.3-.46.07-.17.1-.36.1-.55Z"/>
  </g>
  <g>
    <path class="cls-4" d="M244.37,82.62c.31,0,.6.05.87.16s.5.26.69.45.35.44.46.73c.11.29.17.62.17.99,0,.14-.02.24-.05.29-.03.05-.09.07-.17.07h-3.48c0,.33.05.62.13.86.08.24.2.45.34.61.14.16.32.28.51.37s.42.12.67.12c.23,0,.43-.03.59-.08.17-.05.31-.11.43-.17s.22-.12.3-.17c.08-.05.15-.08.21-.08.08,0,.13.03.17.09l.26.33c-.11.14-.25.26-.41.36-.16.1-.33.18-.51.25-.18.07-.37.11-.56.15-.19.03-.38.05-.57.05-.36,0-.69-.06-1-.18-.3-.12-.57-.3-.79-.53-.22-.23-.39-.53-.52-.87-.12-.35-.19-.74-.19-1.19,0-.36.06-.7.17-1.02.11-.32.27-.59.48-.82s.46-.41.77-.55c.3-.13.64-.2,1.02-.2ZM244.39,83.3c-.44,0-.79.13-1.04.38s-.41.61-.47,1.06h2.85c0-.21-.03-.41-.09-.58-.06-.18-.15-.33-.26-.46s-.25-.23-.42-.3c-.17-.07-.35-.11-.56-.11Z"/>
    <path class="cls-4" d="M248.17,88.03c-.04.12-.11.21-.21.27-.09.06-.19.09-.29.09h-.39l3.09-7.7c.04-.11.1-.19.19-.25.08-.06.18-.09.29-.09h.39l-3.08,7.69Z"/>
  </g>
  <g>
    <path class="cls-4" d="M254.04,82.62c.38,0,.72.06,1.03.19.31.13.57.31.78.54s.38.52.5.85c.12.33.17.7.17,1.11s-.06.78-.17,1.11c-.11.33-.28.61-.5.84s-.48.41-.78.54c-.3.12-.65.19-1.03.19s-.73-.06-1.04-.19-.57-.3-.79-.54c-.22-.23-.38-.51-.5-.84-.12-.33-.17-.7-.17-1.11s.06-.78.17-1.11.28-.61.5-.85c.22-.23.48-.41.79-.54.31-.13.65-.19,1.04-.19ZM254.04,87.28c.51,0,.9-.17,1.15-.52s.38-.83.38-1.44-.13-1.1-.38-1.45c-.25-.35-.64-.52-1.15-.52-.26,0-.49.04-.68.13-.19.09-.35.22-.48.39s-.22.37-.29.62c-.06.25-.09.52-.09.83,0,.62.13,1.1.38,1.44s.64.52,1.17.52Z"/>
    <path class="cls-4" d="M258.54,82.71v3.32c0,.39.09.7.27.92.18.22.46.32.83.32.27,0,.52-.06.76-.19.24-.13.45-.3.65-.53v-3.84h.92v5.21h-.55c-.13,0-.21-.06-.25-.19l-.07-.56c-.23.25-.48.45-.76.6-.28.15-.6.23-.97.23-.28,0-.54-.05-.75-.14s-.4-.23-.55-.4c-.15-.17-.26-.38-.33-.62-.07-.24-.11-.51-.11-.81v-3.32h.92Z"/>
  </g>
  <g>
    <path class="cls-4" d="M313.37,88c-.37,0-.7-.05-1.01-.15s-.57-.24-.79-.42c-.22-.18-.39-.4-.51-.66-.12-.26-.18-.55-.18-.87,0-.47.12-.86.37-1.17.25-.31.6-.53,1.06-.66-.39-.14-.68-.36-.88-.65-.2-.29-.3-.63-.3-1.03,0-.27.05-.52.16-.76s.26-.44.45-.62c.2-.17.43-.31.7-.41.27-.1.58-.15.91-.15s.64.05.91.15c.27.1.51.24.71.41.2.18.35.38.45.62.11.24.16.49.16.76,0,.4-.1.74-.3,1.03-.2.29-.49.5-.87.65.46.13.81.35,1.06.66.25.31.37.7.37,1.17,0,.32-.06.61-.18.87-.12.26-.29.48-.51.66-.22.18-.48.32-.79.42-.3.1-.64.15-1.01.15ZM313.37,87.27c.24,0,.46-.03.65-.1s.35-.16.48-.28c.13-.12.23-.27.3-.44.07-.17.11-.36.11-.56,0-.25-.04-.47-.13-.65s-.2-.33-.34-.44-.31-.2-.49-.25-.38-.08-.58-.08-.4.03-.58.08c-.18.05-.35.14-.49.25s-.25.26-.34.44c-.08.18-.13.4-.13.65,0,.21.04.39.11.56.07.17.17.32.3.44.13.12.29.22.48.28.19.07.41.1.65.1ZM313.37,83.73c.24,0,.44-.04.61-.11.17-.07.31-.17.41-.29.11-.12.18-.26.23-.42.05-.16.07-.32.07-.49s-.03-.33-.08-.48c-.06-.15-.14-.28-.25-.4s-.25-.2-.42-.27c-.17-.06-.36-.1-.58-.1s-.41.03-.58.1c-.17.07-.31.15-.42.27s-.2.25-.25.4c-.06.15-.08.31-.08.48s.02.33.07.49.12.3.23.42c.11.12.24.22.41.29.17.07.38.11.62.11Z"/>
    <path class="cls-4" d="M322.01,84.24c0,.64-.07,1.2-.21,1.67-.14.47-.33.86-.57,1.17-.24.31-.52.54-.85.69-.33.15-.68.23-1.05.23s-.73-.08-1.05-.23-.61-.38-.85-.69c-.24-.31-.43-.7-.57-1.17-.14-.47-.21-1.03-.21-1.67s.07-1.2.21-1.68c.14-.47.33-.86.57-1.18s.52-.54.85-.69.67-.23,1.05-.23.72.08,1.05.23c.33.15.61.38.85.69s.43.7.57,1.18c.14.47.21,1.03.21,1.68ZM321.06,84.24c0-.56-.05-1.04-.14-1.42-.09-.38-.22-.69-.38-.92-.16-.23-.34-.4-.55-.5-.21-.1-.43-.15-.65-.15s-.44.05-.65.15c-.21.1-.39.27-.55.5-.16.23-.28.54-.38.92-.09.38-.14.85-.14,1.42s.05,1.03.14,1.41c.09.38.22.69.38.92.16.23.34.4.55.5.21.1.43.15.65.15s.44-.05.65-.15c.21-.1.39-.27.55-.5.16-.23.29-.54.38-.92.09-.38.14-.85.14-1.41Z"/>
    <path class="cls-4" d="M325.6,84.45h2.54v.78h-2.54v-.78Z"/>
    <path class="cls-4" d="M334.4,88c-.37,0-.7-.05-1.01-.15s-.57-.24-.79-.42c-.22-.18-.39-.4-.51-.66-.12-.26-.18-.55-.18-.87,0-.47.12-.86.37-1.17.25-.31.6-.53,1.06-.66-.39-.14-.68-.36-.88-.65-.2-.29-.3-.63-.3-1.03,0-.27.05-.52.16-.76s.26-.44.45-.62c.2-.17.43-.31.7-.41.27-.1.58-.15.91-.15s.64.05.91.15c.27.1.51.24.71.41.2.18.35.38.45.62.11.24.16.49.16.76,0,.4-.1.74-.3,1.03-.2.29-.49.5-.87.65.46.13.81.35,1.06.66.25.31.37.7.37,1.17,0,.32-.06.61-.18.87-.12.26-.29.48-.51.66-.22.18-.48.32-.79.42-.3.1-.64.15-1.01.15ZM334.4,87.27c.24,0,.46-.03.65-.1s.35-.16.48-.28c.13-.12.23-.27.3-.44.07-.17.11-.36.11-.56,0-.25-.04-.47-.13-.65s-.2-.33-.34-.44-.31-.2-.49-.25-.38-.08-.58-.08-.4.03-.58.08c-.18.05-.35.14-.49.25s-.25.26-.34.44c-.08.18-.13.4-.13.65,0,.21.04.39.11.56.07.17.17.32.3.44.13.12.29.22.48.28.19.07.41.1.65.1ZM334.4,83.73c.24,0,.44-.04.61-.11.17-.07.31-.17.41-.29.11-.12.18-.26.23-.42.05-.16.07-.32.07-.49s-.03-.33-.08-.48c-.06-.15-.14-.28-.25-.4s-.25-.2-.42-.27c-.17-.06-.36-.1-.58-.1s-.41.03-.58.1c-.17.07-.31.15-.42.27s-.2.25-.25.4c-.06.15-.08.31-.08.48s.02.33.07.49.12.3.23.42c.11.12.24.22.41.29.17.07.38.11.62.11Z"/>
    <path class="cls-4" d="M340.98,84.98c.08-.1.15-.19.21-.28.06-.09.13-.18.18-.27-.19.15-.4.27-.64.34s-.49.12-.75.12c-.28,0-.54-.05-.79-.14-.25-.09-.47-.23-.66-.41-.19-.18-.34-.4-.45-.66-.11-.26-.17-.56-.17-.9s.06-.62.18-.91c.12-.28.29-.53.5-.74.22-.21.47-.37.77-.49.3-.12.63-.18.98-.18s.67.06.96.17.54.28.74.49c.21.21.36.46.48.75.11.29.17.61.17.97,0,.21-.02.41-.06.6-.04.19-.1.38-.17.56-.07.18-.16.37-.27.55s-.23.36-.36.55l-1.8,2.59c-.04.07-.11.12-.19.16-.08.04-.18.06-.28.06h-.84l2.24-2.94ZM341.83,82.74c0-.23-.04-.44-.11-.62-.07-.19-.18-.35-.31-.48-.13-.13-.29-.23-.47-.3-.18-.07-.38-.11-.59-.11-.23,0-.43.04-.62.11-.19.07-.34.18-.48.31-.13.13-.24.29-.31.47-.07.18-.11.38-.11.6,0,.23.03.44.1.62.07.18.16.34.29.47.12.13.28.22.46.29.18.06.38.1.6.1.25,0,.46-.04.66-.12s.35-.19.48-.32c.13-.13.23-.29.3-.46.07-.17.1-.36.1-.55Z"/>
  </g>
  <g>
    <path class="cls-4" d="M26.19,113.42h-1v-3.35h-3.98v3.35h-1v-7.37h1v3.29h3.98v-3.29h1v7.37Z"/>
    <path class="cls-4" d="M34.08,113.42h-.77c-.09,0-.16-.02-.22-.07-.06-.04-.1-.1-.12-.17l-.69-1.78h-3.31l-.69,1.78c-.02.06-.06.12-.12.16-.06.05-.13.07-.22.07h-.77l2.95-7.37h1.01l2.95,7.37ZM29.25,110.68h2.75l-1.16-3c-.04-.09-.07-.19-.11-.31-.04-.12-.07-.24-.11-.38-.03.13-.07.26-.11.38-.04.12-.07.22-.11.31l-1.16,2.99Z"/>
  </g>
  <g>
    <path class="cls-4" d="M41.85,106.05v.81h-3.54v2.45h2.87v.78h-2.87v2.52h3.55v.81h-4.55v-7.37h4.54Z"/>
    <path class="cls-4" d="M46.05,109.07c-.04.08-.1.11-.19.11-.05,0-.11-.02-.18-.06-.06-.04-.14-.08-.24-.13-.09-.05-.21-.09-.34-.13-.13-.04-.28-.06-.46-.06-.15,0-.29.02-.42.06-.12.04-.23.09-.32.16-.09.07-.15.15-.2.24-.05.09-.07.19-.07.3,0,.13.04.25.12.33.08.09.18.17.31.23.13.06.27.12.43.17s.33.1.5.16c.17.06.34.12.5.19s.31.15.43.26c.13.1.23.23.31.38.08.15.12.33.12.54,0,.24-.04.46-.13.67-.09.2-.21.38-.38.53s-.37.27-.62.35c-.24.09-.52.13-.84.13-.36,0-.69-.06-.99-.18s-.55-.27-.75-.46l.22-.35s.06-.08.1-.1c.04-.02.09-.04.14-.04.06,0,.13.02.2.07.07.05.15.1.25.16s.22.11.36.16c.14.05.32.07.52.07.18,0,.33-.02.47-.07s.25-.11.33-.19.16-.17.2-.27c.04-.1.06-.21.06-.33,0-.14-.04-.26-.12-.36-.08-.09-.18-.17-.31-.24-.13-.07-.27-.13-.43-.18-.16-.05-.33-.1-.5-.16s-.34-.12-.5-.19c-.16-.07-.31-.16-.43-.26-.13-.11-.23-.24-.31-.39s-.12-.35-.12-.57c0-.2.04-.39.12-.57.08-.18.2-.34.36-.48s.35-.25.58-.33c.23-.08.49-.12.79-.12.34,0,.65.05.92.16.27.11.51.26.71.45l-.21.33Z"/>
    <path class="cls-4" d="M49.05,113.5c-.41,0-.73-.12-.95-.34-.22-.23-.33-.56-.33-.99v-3.19h-.63c-.05,0-.1-.02-.14-.05-.04-.03-.06-.08-.06-.15v-.37l.85-.11.21-1.61c.01-.05.03-.09.07-.13.04-.03.08-.05.14-.05h.46v1.8h1.51v.66h-1.51v3.13c0,.22.05.38.16.49s.24.16.41.16c.1,0,.18-.01.25-.04.07-.03.13-.05.18-.08.05-.03.1-.06.13-.08s.07-.04.1-.04c.05,0,.09.03.13.09l.27.44c-.16.15-.35.26-.57.35-.22.08-.45.13-.69.13Z"/>
    <path class="cls-4" d="M54.43,113.42c-.09,0-.16-.01-.21-.04-.05-.03-.09-.09-.11-.17l-.1-.49c-.14.12-.27.23-.4.33-.13.1-.27.18-.41.25-.14.07-.29.12-.46.15-.16.04-.34.05-.54.05s-.39-.03-.57-.08c-.18-.06-.33-.14-.47-.25-.13-.11-.24-.26-.31-.43s-.12-.38-.12-.62c0-.21.06-.4.17-.59.11-.19.3-.36.55-.51s.58-.27.99-.36c.41-.09.91-.15,1.5-.16v-.41c0-.4-.09-.71-.26-.92-.17-.21-.43-.31-.77-.31-.23,0-.42.03-.57.08-.15.06-.28.12-.4.19-.11.07-.21.13-.29.19s-.16.08-.24.08c-.06,0-.11-.02-.16-.05-.04-.03-.08-.07-.11-.12l-.16-.29c.29-.28.6-.49.93-.62.33-.14.7-.21,1.11-.21.29,0,.55.05.78.14.23.1.42.23.57.4s.27.38.35.62c.08.24.12.51.12.8v3.33h-.41ZM52.46,112.86c.16,0,.31-.02.44-.05s.26-.08.38-.14c.12-.06.23-.13.34-.22.11-.09.21-.19.32-.3v-1.08c-.42.01-.78.05-1.08.1-.3.05-.54.12-.73.21s-.32.19-.41.3c-.08.12-.13.25-.13.39s.02.26.07.36c.04.1.11.18.18.24s.17.11.27.14.22.04.34.04ZM54.4,105.96l-1.2,1.33c-.05.05-.1.09-.14.11s-.11.03-.18.03h-.54l.76-1.25c.05-.08.1-.14.16-.17.06-.04.14-.05.25-.05h.9Z"/>
    <path class="cls-4" d="M58.03,108.12c.23,0,.44.02.63.07.2.05.37.12.54.22h1.42v.34c0,.11-.07.18-.22.22l-.59.08c.12.22.17.47.17.75,0,.25-.05.48-.15.69-.1.21-.23.38-.4.53s-.38.26-.62.34c-.24.08-.5.12-.78.12-.25,0-.48-.03-.69-.09-.11.07-.19.14-.25.22s-.08.16-.08.23c0,.12.05.22.15.28.1.06.23.11.4.14.17.03.35.04.56.05s.43.02.65.03.44.04.65.08c.21.04.4.1.56.19s.3.2.4.36c.1.15.15.35.15.59,0,.22-.06.44-.17.65s-.27.4-.48.56c-.21.16-.47.29-.77.39-.3.1-.65.15-1.03.15s-.71-.04-1-.11-.52-.18-.71-.3c-.19-.13-.33-.27-.42-.44s-.14-.34-.14-.52c0-.26.08-.47.24-.65.16-.18.38-.32.66-.43-.15-.07-.28-.16-.37-.28s-.13-.27-.13-.47c0-.08.01-.15.04-.23.03-.08.07-.16.13-.24.06-.08.13-.16.21-.23.08-.07.18-.14.29-.19-.26-.14-.46-.34-.6-.58s-.22-.52-.22-.83c0-.25.05-.48.15-.69.1-.21.23-.38.41-.53s.38-.26.62-.34c.24-.08.51-.12.79-.12ZM59.68,113.7c0-.13-.04-.23-.11-.31-.07-.08-.17-.14-.29-.19-.12-.04-.26-.08-.42-.09-.16-.02-.33-.03-.51-.04s-.36-.02-.55-.03c-.19,0-.36-.03-.54-.05-.19.09-.35.2-.47.33s-.18.29-.18.48c0,.12.03.23.09.33.06.1.15.19.28.26.12.07.28.13.47.17.19.04.41.06.66.06s.47-.02.66-.07c.2-.04.36-.11.5-.19.14-.08.24-.18.31-.29.07-.11.11-.24.11-.38ZM58.03,110.87c.19,0,.35-.03.49-.08.14-.05.26-.12.35-.22.1-.09.17-.2.22-.33.05-.13.07-.27.07-.42,0-.32-.1-.57-.29-.76s-.47-.28-.84-.28-.65.09-.85.28-.29.44-.29.76c0,.15.02.3.07.42.05.13.12.24.22.33s.21.17.35.22c.14.05.3.08.49.08Z"/>
    <path class="cls-4" d="M62.7,106.57c0,.09-.02.17-.05.25-.04.08-.08.15-.14.21-.06.06-.13.11-.21.14s-.17.05-.25.05-.17-.02-.25-.05-.15-.08-.2-.14c-.06-.06-.1-.13-.14-.21s-.05-.16-.05-.25.02-.17.05-.25c.03-.08.08-.15.14-.21.06-.06.13-.11.2-.14s.16-.05.25-.05.17.02.25.05.15.08.21.14c.06.06.11.13.14.21.04.08.05.17.05.25ZM62.51,108.21v5.21h-.92v-5.21h.92Z"/>
    <path class="cls-4" d="M66.19,108.13c.38,0,.72.06,1.03.19.31.13.57.31.78.54s.38.52.5.85c.11.33.17.7.17,1.11s-.06.78-.17,1.11c-.12.33-.28.61-.5.84s-.48.41-.78.54c-.31.12-.65.19-1.03.19s-.73-.06-1.04-.19c-.31-.12-.57-.3-.78-.54-.22-.23-.38-.51-.5-.84s-.17-.7-.17-1.11.06-.78.17-1.11.28-.61.5-.85c.22-.23.48-.41.78-.54.31-.13.65-.19,1.04-.19ZM66.19,112.78c.51,0,.9-.17,1.15-.52s.38-.83.38-1.44-.13-1.1-.38-1.45c-.25-.35-.64-.52-1.15-.52-.26,0-.49.04-.68.13-.19.09-.35.22-.48.39-.13.17-.22.37-.29.62-.06.25-.1.52-.1.83,0,.62.13,1.1.38,1.44.26.34.64.52,1.17.52Z"/>
    <path class="cls-4" d="M72.98,112.72h1.58v-5.03c0-.14,0-.3.02-.46l-1.31,1.13s-.09.06-.13.07c-.04,0-.09,0-.12,0s-.07-.02-.11-.04-.06-.04-.07-.07l-.29-.4,2.2-1.9h.75v6.69h1.45v.7h-3.95v-.7Z"/>
  </g>
  <g>
    <path class="cls-4" d="M169.48,112.72h1.58v-5.03c0-.14,0-.3.02-.46l-1.31,1.13s-.09.06-.13.07c-.04,0-.09,0-.12,0s-.07-.02-.11-.04-.06-.04-.07-.07l-.29-.4,2.2-1.9h.75v6.69h1.45v.7h-3.95v-.7Z"/>
    <path class="cls-4" d="M178.72,110.76h1.12v.53c0,.05-.02.1-.05.14s-.08.06-.15.06h-.92v1.94h-.8v-1.94h-3.27c-.07,0-.13-.02-.18-.06-.05-.04-.08-.09-.1-.15l-.09-.47,3.59-4.76h.85v4.71ZM177.92,107.72c0-.09,0-.19,0-.29,0-.1.02-.21.03-.32l-2.69,3.65h2.64v-3.04Z"/>
    <path class="cls-4" d="M185.79,109.74c0,.64-.07,1.2-.21,1.67-.14.47-.33.86-.57,1.17-.24.31-.52.54-.85.69-.33.15-.68.23-1.05.23s-.73-.08-1.05-.23c-.32-.15-.61-.38-.85-.69-.24-.31-.43-.7-.57-1.17s-.21-1.03-.21-1.67.07-1.2.21-1.68c.14-.47.33-.86.57-1.17.24-.31.52-.54.85-.69.32-.15.67-.23,1.05-.23s.72.08,1.05.23c.33.15.61.38.85.69.24.31.43.7.57,1.17.14.47.21,1.03.21,1.68ZM184.84,109.74c0-.56-.05-1.04-.14-1.42-.09-.38-.22-.69-.38-.92-.16-.23-.34-.4-.55-.5-.21-.1-.43-.15-.65-.15s-.44.05-.65.15c-.21.1-.39.27-.55.5s-.28.54-.38.92c-.09.38-.14.85-.14,1.42s.05,1.03.14,1.42c.09.38.22.69.38.92s.34.4.55.5c.21.1.43.15.65.15s.44-.05.65-.15c.21-.1.39-.27.55-.5.16-.23.29-.54.38-.92.09-.38.14-.85.14-1.42Z"/>
    <path class="cls-4" d="M189.38,109.95h2.54v.78h-2.54v-.78Z"/>
    <path class="cls-4" d="M196.48,112.72h1.58v-5.03c0-.14,0-.3.02-.46l-1.31,1.13s-.09.06-.13.07c-.04,0-.09,0-.12,0s-.07-.02-.11-.04-.06-.04-.07-.07l-.29-.4,2.2-1.9h.75v6.69h1.45v.7h-3.95v-.7Z"/>
    <path class="cls-4" d="M206.21,106.45c0,.13-.04.24-.12.32s-.22.13-.41.13h-2.31l-.34,1.93c.2-.04.38-.08.55-.1.17-.02.34-.03.51-.03.38,0,.72.06,1.02.17s.54.27.74.47c.2.2.35.43.45.7.1.27.15.57.15.89,0,.39-.07.74-.2,1.06s-.32.59-.56.81-.52.4-.84.52-.67.18-1.04.18c-.21,0-.42-.02-.62-.06-.2-.04-.39-.1-.56-.17-.17-.07-.33-.15-.48-.25s-.28-.19-.39-.29l.28-.39c.06-.09.14-.13.24-.13.07,0,.15.03.23.08.08.05.19.11.31.18s.27.12.44.18c.17.05.36.08.59.08.26,0,.49-.04.7-.12.21-.08.38-.2.53-.35.15-.15.26-.33.34-.55.08-.21.12-.45.12-.71,0-.23-.03-.44-.1-.62-.07-.18-.17-.34-.3-.47-.14-.13-.3-.23-.51-.3-.2-.07-.44-.11-.71-.11-.19,0-.38.02-.58.05-.2.03-.4.08-.61.15l-.58-.17.59-3.45h3.49v.4Z"/>
    <path class="cls-4" d="M210.73,110.48c.08-.1.15-.19.21-.28.06-.09.13-.18.18-.27-.19.15-.4.27-.64.34s-.49.12-.75.12c-.28,0-.54-.05-.79-.14s-.47-.23-.66-.41c-.19-.18-.34-.4-.45-.66-.11-.26-.17-.56-.17-.9,0-.32.06-.62.18-.91.12-.28.29-.53.5-.74.22-.21.47-.37.77-.49.3-.12.63-.18.98-.18s.67.06.96.17c.29.12.54.28.74.49.21.21.36.46.48.75.11.29.17.61.17.97,0,.21-.02.41-.06.6-.04.19-.1.38-.17.56-.07.18-.16.37-.27.54-.11.18-.23.37-.36.55l-1.8,2.59c-.04.07-.11.12-.19.16-.08.04-.18.06-.28.06h-.84l2.24-2.94ZM211.57,108.24c0-.23-.04-.44-.11-.62-.07-.19-.18-.35-.31-.48s-.29-.23-.47-.3c-.18-.07-.38-.11-.59-.11-.23,0-.43.04-.62.11-.19.07-.34.18-.48.31s-.24.29-.31.47c-.07.18-.11.38-.11.6,0,.23.03.44.1.62.07.18.16.34.29.46.12.13.28.22.46.29.18.06.38.1.6.1.25,0,.46-.04.66-.12.19-.08.35-.19.48-.32.13-.13.23-.29.3-.46.07-.17.1-.36.1-.54Z"/>
  </g>
  <g>
    <path class="cls-4" d="M244.37,108.13c.31,0,.6.05.87.16s.5.25.69.45.35.44.46.73c.11.29.17.62.17.99,0,.14-.02.24-.05.29-.03.05-.09.07-.17.07h-3.48c0,.33.05.62.13.86.08.24.2.45.34.61.14.16.32.28.51.37.2.08.42.12.67.12.23,0,.43-.03.59-.08.17-.05.31-.11.43-.17s.22-.12.3-.17c.08-.05.15-.08.21-.08.08,0,.13.03.17.09l.26.33c-.11.14-.25.26-.41.36-.16.1-.33.18-.51.25-.18.07-.37.11-.56.15-.19.03-.38.05-.57.05-.36,0-.69-.06-1-.18-.3-.12-.57-.3-.79-.54-.22-.23-.39-.53-.52-.87s-.19-.74-.19-1.19c0-.36.06-.7.17-1.02.11-.32.27-.59.48-.82s.46-.41.77-.54.64-.2,1.02-.2ZM244.39,108.8c-.44,0-.79.13-1.04.38-.25.25-.41.61-.47,1.06h2.85c0-.21-.03-.41-.09-.58-.06-.18-.15-.33-.26-.46-.12-.13-.25-.23-.42-.3-.17-.07-.35-.11-.56-.11Z"/>
    <path class="cls-4" d="M248.17,113.53c-.04.12-.11.21-.21.27-.09.06-.19.09-.29.09h-.39l3.09-7.7c.04-.11.1-.19.19-.25.08-.06.18-.09.29-.09h.39l-3.08,7.69Z"/>
  </g>
  <g>
    <path class="cls-4" d="M254.04,108.13c.38,0,.72.06,1.03.19.31.13.57.31.78.54s.38.52.5.85c.12.33.17.7.17,1.11s-.06.78-.17,1.11c-.11.33-.28.61-.5.84s-.48.41-.78.54c-.3.12-.65.19-1.03.19s-.73-.06-1.04-.19-.57-.3-.79-.54c-.22-.23-.38-.51-.5-.84s-.17-.7-.17-1.11.06-.78.17-1.11.28-.61.5-.85c.22-.23.48-.41.79-.54s.65-.19,1.04-.19ZM254.04,112.78c.51,0,.9-.17,1.15-.52s.38-.83.38-1.44-.13-1.1-.38-1.45c-.25-.35-.64-.52-1.15-.52-.26,0-.49.04-.68.13-.19.09-.35.22-.48.39s-.22.37-.29.62c-.06.25-.09.52-.09.83,0,.62.13,1.1.38,1.44s.64.52,1.17.52Z"/>
    <path class="cls-4" d="M258.54,108.21v3.32c0,.39.09.7.27.92.18.22.46.32.83.32.27,0,.52-.06.76-.19.24-.13.45-.3.65-.53v-3.84h.92v5.21h-.55c-.13,0-.21-.06-.25-.19l-.07-.56c-.23.25-.48.45-.76.6s-.6.23-.97.23c-.28,0-.54-.05-.75-.14-.22-.09-.4-.23-.55-.4-.15-.17-.26-.38-.33-.62-.07-.24-.11-.51-.11-.81v-3.32h.92Z"/>
  </g>
  <g>
    <path class="cls-4" d="M313.98,110.48c.08-.1.15-.19.21-.28.06-.09.13-.18.18-.27-.19.15-.4.27-.64.34s-.49.12-.75.12c-.28,0-.54-.05-.79-.14s-.47-.23-.66-.41c-.19-.18-.34-.4-.45-.66-.11-.26-.17-.56-.17-.9,0-.32.06-.62.18-.91.12-.28.29-.53.5-.74.22-.21.47-.37.77-.49.3-.12.63-.18.98-.18s.67.06.96.17c.29.12.54.28.74.49.21.21.36.46.48.75.11.29.17.61.17.97,0,.21-.02.41-.06.6-.04.19-.1.38-.17.56-.07.18-.16.37-.27.54-.11.18-.23.37-.36.55l-1.8,2.59c-.04.07-.11.12-.19.16-.08.04-.18.06-.28.06h-.84l2.24-2.94ZM314.83,108.24c0-.23-.04-.44-.11-.62-.07-.19-.18-.35-.31-.48s-.29-.23-.47-.3c-.18-.07-.38-.11-.59-.11-.23,0-.43.04-.62.11-.19.07-.34.18-.48.31s-.24.29-.31.47c-.07.18-.11.38-.11.6,0,.23.03.44.1.62.07.18.16.34.29.46.12.13.28.22.46.29.18.06.38.1.6.1.25,0,.46-.04.66-.12.19-.08.35-.19.48-.32.13-.13.23-.29.3-.46.07-.17.1-.36.1-.54Z"/>
    <path class="cls-4" d="M322.01,109.74c0,.64-.07,1.2-.21,1.67s-.33.86-.57,1.17c-.24.31-.52.54-.85.69-.33.15-.68.23-1.05.23s-.73-.08-1.05-.23c-.32-.15-.61-.38-.85-.69-.24-.31-.43-.7-.57-1.17-.14-.47-.21-1.03-.21-1.67s.07-1.2.21-1.68c.14-.47.33-.86.57-1.17s.52-.54.85-.69c.32-.15.67-.23,1.05-.23s.72.08,1.05.23c.33.15.61.38.85.69s.43.7.57,1.17c.14.47.21,1.03.21,1.68ZM321.06,109.74c0-.56-.05-1.04-.14-1.42-.09-.38-.22-.69-.38-.92s-.34-.4-.55-.5c-.21-.1-.43-.15-.65-.15s-.44.05-.65.15c-.21.1-.39.27-.55.5-.16.23-.28.54-.38.92-.09.38-.14.85-.14,1.42s.05,1.03.14,1.42c.09.38.22.69.38.92.16.23.34.4.55.5.21.1.43.15.65.15s.44-.05.65-.15c.21-.1.39-.27.55-.5s.29-.54.38-.92c.09-.38.14-.85.14-1.42Z"/>
    <path class="cls-4" d="M325.6,109.95h2.54v.78h-2.54v-.78Z"/>
    <path class="cls-4" d="M335.01,110.48c.08-.1.15-.19.21-.28.06-.09.13-.18.18-.27-.19.15-.4.27-.64.34s-.49.12-.75.12c-.28,0-.54-.05-.79-.14s-.47-.23-.66-.41c-.19-.18-.34-.4-.45-.66-.11-.26-.17-.56-.17-.9,0-.32.06-.62.18-.91.12-.28.29-.53.5-.74.22-.21.47-.37.77-.49.3-.12.63-.18.98-.18s.67.06.96.17c.29.12.54.28.74.49.21.21.36.46.48.75.11.29.17.61.17.97,0,.21-.02.41-.06.6-.04.19-.1.38-.17.56-.07.18-.16.37-.27.54-.11.18-.23.37-.36.55l-1.8,2.59c-.04.07-.11.12-.19.16-.08.04-.18.06-.28.06h-.84l2.24-2.94ZM335.86,108.24c0-.23-.04-.44-.11-.62-.07-.19-.18-.35-.31-.48s-.29-.23-.47-.3c-.18-.07-.38-.11-.59-.11-.23,0-.43.04-.62.11-.19.07-.34.18-.48.31s-.24.29-.31.47c-.07.18-.11.38-.11.6,0,.23.03.44.1.62.07.18.16.34.29.46.12.13.28.22.46.29.18.06.38.1.6.1.25,0,.46-.04.66-.12.19-.08.35-.19.48-.32.13-.13.23-.29.3-.46.07-.17.1-.36.1-.54Z"/>
    <path class="cls-4" d="M340.98,110.48c.08-.1.15-.19.21-.28.06-.09.13-.18.18-.27-.19.15-.4.27-.64.34s-.49.12-.75.12c-.28,0-.54-.05-.79-.14s-.47-.23-.66-.41c-.19-.18-.34-.4-.45-.66-.11-.26-.17-.56-.17-.9,0-.32.06-.62.18-.91.12-.28.29-.53.5-.74.22-.21.47-.37.77-.49.3-.12.63-.18.98-.18s.67.06.96.17c.29.12.54.28.74.49.21.21.36.46.48.75.11.29.17.61.17.97,0,.21-.02.41-.06.6-.04.19-.1.38-.17.56-.07.18-.16.37-.27.54-.11.18-.23.37-.36.55l-1.8,2.59c-.04.07-.11.12-.19.16-.08.04-.18.06-.28.06h-.84l2.24-2.94ZM341.83,108.24c0-.23-.04-.44-.11-.62-.07-.19-.18-.35-.31-.48s-.29-.23-.47-.3c-.18-.07-.38-.11-.59-.11-.23,0-.43.04-.62.11-.19.07-.34.18-.48.31s-.24.29-.31.47c-.07.18-.11.38-.11.6,0,.23.03.44.1.62.07.18.16.34.29.46.12.13.28.22.46.29.18.06.38.1.6.1.25,0,.46-.04.66-.12.19-.08.35-.19.48-.32.13-.13.23-.29.3-.46.07-.17.1-.36.1-.54Z"/>
  </g>
  <g>
    <path class="cls-4" d="M26.19,138.94h-1v-3.35h-3.98v3.35h-1v-7.37h1v3.29h3.98v-3.29h1v7.37Z"/>
    <path class="cls-4" d="M34.08,138.94h-.77c-.09,0-.16-.02-.22-.07-.06-.04-.1-.1-.12-.17l-.69-1.78h-3.31l-.69,1.78c-.02.06-.06.12-.12.16-.06.05-.13.07-.22.07h-.77l2.95-7.37h1.01l2.95,7.37ZM29.25,136.21h2.75l-1.16-3c-.04-.09-.07-.19-.11-.31-.04-.12-.07-.24-.11-.38-.03.13-.07.26-.11.38s-.07.22-.11.31l-1.16,2.99Z"/>
  </g>
  <g>
    <path class="cls-4" d="M41.85,131.57v.81h-3.54v2.45h2.87v.78h-2.87v2.52h3.55v.81h-4.55v-7.37h4.54Z"/>
    <path class="cls-4" d="M46.05,134.59c-.04.08-.1.11-.19.11-.05,0-.11-.02-.18-.06-.06-.04-.14-.08-.24-.13-.09-.05-.21-.09-.34-.13s-.28-.06-.46-.06c-.15,0-.29.02-.42.06-.12.04-.23.09-.32.16-.09.07-.15.15-.2.24-.05.09-.07.19-.07.3,0,.13.04.25.12.33.08.09.18.17.31.23.13.07.27.12.43.17s.33.1.5.16.34.12.5.19c.16.07.31.15.43.26s.23.23.31.38.12.33.12.54c0,.24-.04.46-.13.67-.09.2-.21.38-.38.53-.17.15-.37.27-.62.35-.24.08-.52.13-.84.13-.36,0-.69-.06-.99-.18-.29-.12-.55-.27-.75-.46l.22-.35s.06-.08.1-.1c.04-.02.09-.04.14-.04.06,0,.13.02.2.07.07.05.15.1.25.16s.22.11.36.16c.14.05.32.07.52.07.18,0,.33-.02.47-.07.13-.05.25-.11.33-.19.09-.08.16-.17.2-.27.04-.1.06-.21.06-.33,0-.14-.04-.26-.12-.36s-.18-.17-.31-.24c-.13-.07-.27-.12-.43-.17s-.33-.1-.5-.16c-.17-.05-.34-.12-.5-.19-.16-.07-.31-.16-.43-.26-.13-.11-.23-.24-.31-.39s-.12-.35-.12-.57c0-.2.04-.39.12-.57.08-.18.2-.34.36-.48s.35-.25.58-.33c.23-.08.49-.12.79-.12.34,0,.65.05.92.16.27.11.51.26.71.44l-.21.33Z"/>
    <path class="cls-4" d="M49.05,139.02c-.41,0-.73-.11-.95-.34-.22-.23-.33-.56-.33-.99v-3.19h-.63c-.05,0-.1-.02-.14-.05s-.06-.08-.06-.15v-.37l.85-.11.21-1.61c.01-.05.03-.09.07-.13.04-.03.08-.05.14-.05h.46v1.79h1.51v.66h-1.51v3.13c0,.22.05.38.16.49s.24.16.41.16c.1,0,.18-.01.25-.04.07-.03.13-.05.18-.08.05-.03.1-.06.13-.08.04-.03.07-.04.1-.04.05,0,.09.03.13.09l.27.44c-.16.15-.35.26-.57.35-.22.08-.45.13-.69.13Z"/>
    <path class="cls-4" d="M54.43,138.94c-.09,0-.16-.01-.21-.04s-.09-.09-.11-.17l-.1-.49c-.14.12-.27.23-.4.33-.13.1-.27.18-.41.25-.14.07-.29.12-.46.15-.16.04-.34.05-.54.05s-.39-.03-.57-.08c-.18-.06-.33-.14-.47-.25-.13-.11-.24-.26-.31-.43-.08-.17-.12-.38-.12-.62,0-.21.06-.4.17-.59.11-.19.3-.36.55-.51s.58-.27.99-.36c.41-.09.91-.15,1.5-.16v-.41c0-.4-.09-.71-.26-.92-.17-.21-.43-.31-.77-.31-.23,0-.42.03-.57.08-.15.06-.28.12-.4.19-.11.07-.21.13-.29.19s-.16.08-.24.08c-.06,0-.11-.02-.16-.05-.04-.03-.08-.07-.11-.12l-.16-.29c.29-.28.6-.49.93-.62.33-.14.7-.21,1.11-.21.29,0,.55.05.78.14.23.1.42.23.57.4.15.17.27.38.35.62.08.24.12.51.12.8v3.33h-.41ZM52.46,138.38c.16,0,.31-.02.44-.05.13-.03.26-.08.38-.14.12-.06.23-.13.34-.22.11-.09.21-.19.32-.3v-1.08c-.42.01-.78.05-1.08.1-.3.05-.54.12-.73.21s-.32.19-.41.3c-.08.12-.13.25-.13.39,0,.14.02.26.07.35.04.1.11.18.18.25s.17.11.27.14.22.04.34.04ZM54.4,131.49l-1.2,1.33c-.05.05-.1.09-.14.11-.05.02-.11.03-.18.03h-.54l.76-1.25c.05-.08.1-.14.16-.17s.14-.05.25-.05h.9Z"/>
    <path class="cls-4" d="M58.03,133.64c.23,0,.44.03.63.08.2.05.37.12.54.22h1.42v.34c0,.11-.07.19-.22.22l-.59.08c.12.22.17.47.17.75,0,.25-.05.48-.15.69-.1.21-.23.38-.4.53s-.38.26-.62.34c-.24.08-.5.12-.78.12-.25,0-.48-.03-.69-.09-.11.07-.19.14-.25.22s-.08.16-.08.23c0,.12.05.22.15.28.1.06.23.11.4.14.17.03.35.04.56.05s.43.02.65.03c.22.01.44.04.65.08.21.04.4.1.56.19s.3.2.4.35c.1.15.15.35.15.59,0,.22-.06.44-.17.65s-.27.4-.48.56c-.21.16-.47.29-.77.39-.3.1-.65.15-1.03.15s-.71-.04-1-.11-.52-.18-.71-.3c-.19-.13-.33-.27-.42-.44-.09-.17-.14-.34-.14-.52,0-.26.08-.47.24-.65.16-.18.38-.32.66-.43-.15-.07-.28-.16-.37-.28s-.13-.27-.13-.47c0-.08.01-.15.04-.23.03-.08.07-.16.13-.24.06-.08.13-.15.21-.23.08-.07.18-.13.29-.19-.26-.14-.46-.34-.6-.58-.14-.24-.22-.52-.22-.83,0-.25.05-.48.15-.69.1-.21.23-.38.41-.53.17-.15.38-.26.62-.34.24-.08.51-.12.79-.12ZM59.68,139.23c0-.13-.04-.23-.11-.31-.07-.08-.17-.14-.29-.19s-.26-.08-.42-.09c-.16-.02-.33-.03-.51-.04-.18-.01-.36-.02-.55-.03-.19,0-.36-.03-.54-.05-.19.09-.35.2-.47.33s-.18.29-.18.48c0,.12.03.23.09.33.06.1.15.19.28.26.12.07.28.13.47.17s.41.06.66.06.47-.02.66-.07c.2-.04.36-.11.5-.19.14-.08.24-.18.31-.29.07-.11.11-.24.11-.38ZM58.03,136.4c.19,0,.35-.03.49-.08s.26-.12.35-.22c.1-.09.17-.2.22-.33.05-.13.07-.27.07-.42,0-.32-.1-.57-.29-.76-.19-.19-.47-.28-.84-.28s-.65.09-.85.28c-.19.19-.29.44-.29.76,0,.15.02.3.07.42s.12.24.22.33.21.16.35.22.3.08.49.08Z"/>
    <path class="cls-4" d="M62.7,132.09c0,.09-.02.17-.05.25-.04.08-.08.15-.14.21s-.13.11-.21.14-.17.05-.25.05-.17-.02-.25-.05-.15-.08-.2-.14c-.06-.06-.1-.13-.14-.21s-.05-.16-.05-.25.02-.17.05-.25c.03-.08.08-.15.14-.21.06-.06.13-.11.2-.14s.16-.05.25-.05.17.02.25.05.15.08.21.14c.06.06.11.13.14.21.04.08.05.17.05.25ZM62.51,133.73v5.21h-.92v-5.21h.92Z"/>
    <path class="cls-4" d="M66.19,133.65c.38,0,.72.06,1.03.19.31.13.57.31.78.54s.38.52.5.85c.11.33.17.7.17,1.11s-.06.78-.17,1.11c-.12.33-.28.61-.5.84s-.48.41-.78.54c-.31.13-.65.19-1.03.19s-.73-.06-1.04-.19c-.31-.12-.57-.3-.78-.54-.22-.23-.38-.51-.5-.84s-.17-.7-.17-1.11.06-.78.17-1.11.28-.61.5-.85c.22-.23.48-.41.78-.54.31-.13.65-.19,1.04-.19ZM66.19,138.3c.51,0,.9-.17,1.15-.52s.38-.83.38-1.44-.13-1.1-.38-1.45c-.25-.35-.64-.52-1.15-.52-.26,0-.49.04-.68.13-.19.09-.35.22-.48.39-.13.17-.22.38-.29.62s-.1.52-.1.83c0,.62.13,1.1.38,1.44.26.34.64.52,1.17.52Z"/>
    <path class="cls-4" d="M74.73,131.49c.31,0,.6.05.88.14.27.09.51.23.7.4.2.18.35.39.47.65s.17.54.17.86c0,.27-.04.53-.12.76-.08.24-.19.46-.33.67s-.3.42-.49.62c-.18.2-.38.41-.58.61l-1.94,1.99c.14-.04.28-.07.42-.09s.28-.03.41-.03h2.47c.1,0,.18.03.24.09.06.06.09.13.09.23v.56h-4.92v-.31c0-.07.01-.13.04-.2.03-.07.07-.13.13-.19l2.36-2.37c.2-.2.37-.39.54-.57.16-.18.3-.37.41-.55.11-.19.2-.37.26-.56.06-.19.09-.39.09-.61s-.03-.41-.1-.57c-.07-.16-.16-.3-.28-.4-.12-.11-.26-.19-.42-.24-.16-.05-.33-.08-.52-.08s-.36.03-.52.08c-.16.06-.3.13-.42.23-.12.1-.22.21-.31.35-.08.13-.14.28-.18.44-.04.12-.1.2-.17.24-.07.04-.17.05-.3.03l-.48-.08c.05-.34.14-.63.28-.89.14-.26.31-.48.52-.65s.45-.31.72-.4c.27-.09.56-.14.88-.14Z"/>
  </g>
  <g>
    <path class="cls-4" d="M169.48,138.24h1.58v-5.03c0-.14,0-.3.02-.46l-1.31,1.13s-.09.06-.13.07c-.04,0-.09,0-.12,0s-.07-.02-.11-.04-.06-.04-.07-.07l-.29-.4,2.2-1.9h.75v6.69h1.45v.7h-3.95v-.7Z"/>
    <path class="cls-4" d="M176.6,134.33c-.07.08-.13.16-.19.24-.06.08-.12.16-.18.23.18-.12.37-.21.58-.28.21-.07.44-.1.69-.1.3,0,.58.05.84.15.26.1.49.24.69.43.2.19.35.42.47.69.12.27.17.58.17.93s-.06.66-.19.95c-.12.29-.3.55-.52.76s-.49.39-.8.51c-.31.12-.65.18-1.03.18s-.71-.06-1.01-.18c-.3-.12-.56-.29-.77-.5s-.37-.48-.49-.79-.17-.66-.17-1.04c0-.32.07-.67.21-1.03.14-.37.37-.76.68-1.17l1.87-2.52c.05-.06.11-.11.2-.16.08-.04.18-.06.29-.06h.81l-2.19,2.76ZM175.6,136.67c0,.24.03.45.1.65.07.2.17.36.3.5.13.14.29.25.48.33.19.08.41.12.65.12s.47-.04.67-.12c.2-.08.37-.19.51-.33.14-.14.25-.31.33-.5.08-.19.12-.4.12-.63,0-.24-.04-.46-.11-.65-.08-.19-.18-.36-.32-.49-.14-.14-.3-.24-.5-.31-.19-.07-.4-.11-.63-.11-.25,0-.47.04-.67.13-.2.08-.37.2-.51.34-.14.14-.25.31-.32.49-.07.19-.11.38-.11.58Z"/>
    <path class="cls-4" d="M185.79,135.26c0,.64-.07,1.2-.21,1.67-.14.47-.33.86-.57,1.17-.24.31-.52.54-.85.69-.33.15-.68.23-1.05.23s-.73-.08-1.05-.23c-.32-.15-.61-.38-.85-.69-.24-.31-.43-.7-.57-1.17s-.21-1.03-.21-1.67.07-1.2.21-1.68c.14-.47.33-.87.57-1.18.24-.31.52-.54.85-.69.32-.15.67-.23,1.05-.23s.72.08,1.05.23c.33.15.61.38.85.69.24.31.43.7.57,1.18.14.47.21,1.03.21,1.68ZM184.84,135.26c0-.56-.05-1.04-.14-1.42-.09-.38-.22-.69-.38-.92-.16-.23-.34-.4-.55-.5s-.43-.15-.65-.15-.44.05-.65.15c-.21.1-.39.27-.55.5s-.28.54-.38.92c-.09.38-.14.86-.14,1.42s.05,1.03.14,1.42c.09.38.22.69.38.92s.34.4.55.5c.21.1.43.15.65.15s.44-.05.65-.15c.21-.1.39-.27.55-.5.16-.23.29-.54.38-.92.09-.38.14-.85.14-1.42Z"/>
    <path class="cls-4" d="M189.38,135.47h2.54v.78h-2.54v-.78Z"/>
    <path class="cls-4" d="M196.48,138.24h1.58v-5.03c0-.14,0-.3.02-.46l-1.31,1.13s-.09.06-.13.07c-.04,0-.09,0-.12,0s-.07-.02-.11-.04-.06-.04-.07-.07l-.29-.4,2.2-1.9h.75v6.69h1.45v.7h-3.95v-.7Z"/>
    <path class="cls-4" d="M206.72,131.57v.41c0,.12-.01.21-.04.29s-.05.14-.07.19l-3.06,6.16c-.04.09-.11.17-.19.23-.08.06-.18.09-.31.09h-.66l3.1-6.08c.04-.09.09-.17.14-.24.05-.07.1-.14.16-.21h-3.85c-.06,0-.11-.02-.15-.07-.04-.05-.07-.1-.07-.16v-.62h5.01Z"/>
    <path class="cls-4" d="M210.73,136.01c.08-.1.15-.19.21-.28.06-.09.13-.18.18-.27-.19.15-.4.27-.64.34s-.49.12-.75.12c-.28,0-.54-.05-.79-.14s-.47-.23-.66-.41c-.19-.18-.34-.4-.45-.66-.11-.26-.17-.56-.17-.9,0-.32.06-.62.18-.91.12-.28.29-.53.5-.74s.47-.37.77-.49c.3-.12.63-.18.98-.18s.67.06.96.17c.29.12.54.28.74.49.21.21.36.46.48.75.11.29.17.61.17.97,0,.21-.02.41-.06.6-.04.19-.1.38-.17.56-.07.18-.16.37-.27.54s-.23.36-.36.55l-1.8,2.59c-.04.06-.11.12-.19.16-.08.04-.18.06-.28.06h-.84l2.24-2.94ZM211.57,133.76c0-.23-.04-.44-.11-.62-.07-.19-.18-.35-.31-.48s-.29-.23-.47-.3c-.18-.07-.38-.11-.59-.11-.23,0-.43.04-.62.11-.19.07-.34.18-.48.31-.13.13-.24.29-.31.47-.07.18-.11.38-.11.6,0,.23.03.44.1.62.07.18.16.34.29.47.12.13.28.22.46.29.18.07.38.1.6.1.25,0,.46-.04.66-.12.19-.08.35-.19.48-.32s.23-.29.3-.46c.07-.17.1-.36.1-.54Z"/>
  </g>
  <g>
    <path class="cls-4" d="M244.37,133.65c.31,0,.6.05.87.16.27.11.5.26.69.45s.35.44.46.73c.11.29.17.62.17.99,0,.14-.02.24-.05.29-.03.05-.09.07-.17.07h-3.48c0,.33.05.62.13.86.08.24.2.45.34.61.14.16.32.29.51.37.2.08.42.12.67.12.23,0,.43-.03.59-.08.17-.05.31-.11.43-.17s.22-.12.3-.17c.08-.05.15-.08.21-.08.08,0,.13.03.17.09l.26.33c-.11.14-.25.26-.41.36-.16.1-.33.18-.51.25-.18.06-.37.11-.56.15-.19.03-.38.05-.57.05-.36,0-.69-.06-1-.18-.3-.12-.57-.3-.79-.54-.22-.24-.39-.53-.52-.87s-.19-.74-.19-1.19c0-.36.06-.7.17-1.02.11-.32.27-.59.48-.82s.46-.41.77-.54c.3-.13.64-.2,1.02-.2ZM244.39,134.32c-.44,0-.79.13-1.04.38-.25.26-.41.61-.47,1.06h2.85c0-.21-.03-.41-.09-.58-.06-.18-.15-.33-.26-.46-.12-.13-.25-.23-.42-.3-.17-.07-.35-.11-.56-.11Z"/>
    <path class="cls-4" d="M248.17,139.05c-.04.12-.11.21-.21.27-.09.06-.19.09-.29.09h-.39l3.09-7.7c.04-.11.1-.19.19-.25s.18-.09.29-.09h.39l-3.08,7.69Z"/>
  </g>
  <g>
    <path class="cls-4" d="M254.04,133.65c.38,0,.72.06,1.03.19.31.13.57.31.78.54s.38.52.5.85c.12.33.17.7.17,1.11s-.06.78-.17,1.11c-.11.33-.28.61-.5.84s-.48.41-.78.54c-.3.13-.65.19-1.03.19s-.73-.06-1.04-.19c-.31-.12-.57-.3-.79-.54-.22-.23-.38-.51-.5-.84s-.17-.7-.17-1.11.06-.78.17-1.11.28-.61.5-.85c.22-.23.48-.41.79-.54s.65-.19,1.04-.19ZM254.04,138.3c.51,0,.9-.17,1.15-.52s.38-.83.38-1.44-.13-1.1-.38-1.45c-.25-.35-.64-.52-1.15-.52-.26,0-.49.04-.68.13-.19.09-.35.22-.48.39-.13.17-.22.38-.29.62s-.09.52-.09.83c0,.62.13,1.1.38,1.44s.64.52,1.17.52Z"/>
    <path class="cls-4" d="M258.54,133.73v3.32c0,.39.09.7.27.92.18.22.46.32.83.32.27,0,.52-.06.76-.19.24-.13.45-.3.65-.53v-3.84h.92v5.21h-.55c-.13,0-.21-.06-.25-.19l-.07-.56c-.23.25-.48.45-.76.6s-.6.23-.97.23c-.28,0-.54-.05-.75-.14-.22-.09-.4-.23-.55-.4-.15-.17-.26-.38-.33-.62-.07-.24-.11-.51-.11-.81v-3.32h.92Z"/>
  </g>
  <g>
    <path class="cls-4" d="M305.7,138.24h1.58v-5.03c0-.14,0-.3.01-.46l-1.31,1.13s-.09.06-.13.07-.09,0-.12,0c-.04,0-.07-.02-.11-.04-.03-.02-.06-.04-.07-.07l-.29-.4,2.2-1.9h.75v6.69h1.45v.7h-3.95v-.7Z"/>
    <path class="cls-4" d="M316.04,135.26c0,.64-.07,1.2-.21,1.67s-.33.86-.57,1.17-.52.54-.85.69c-.33.15-.68.23-1.05.23s-.73-.08-1.05-.23c-.32-.15-.61-.38-.85-.69s-.43-.7-.57-1.17c-.14-.47-.21-1.03-.21-1.67s.07-1.2.21-1.68c.14-.47.33-.87.57-1.18.24-.31.52-.54.85-.69.32-.15.67-.23,1.05-.23s.72.08,1.05.23c.33.15.61.38.85.69.24.31.43.7.57,1.18.14.47.21,1.03.21,1.68ZM315.09,135.26c0-.56-.05-1.04-.14-1.42-.09-.38-.22-.69-.38-.92s-.34-.4-.55-.5c-.21-.1-.43-.15-.65-.15s-.44.05-.65.15c-.21.1-.39.27-.55.5-.16.23-.28.54-.38.92-.09.38-.14.86-.14,1.42s.05,1.03.14,1.42c.09.38.22.69.38.92.16.23.34.4.55.5.21.1.43.15.65.15s.44-.05.65-.15c.21-.1.39-.27.55-.5s.29-.54.38-.92c.09-.38.14-.85.14-1.42Z"/>
    <path class="cls-4" d="M322.01,135.26c0,.64-.07,1.2-.21,1.67s-.33.86-.57,1.17-.52.54-.85.69c-.33.15-.68.23-1.05.23s-.73-.08-1.05-.23c-.32-.15-.61-.38-.85-.69s-.43-.7-.57-1.17c-.14-.47-.21-1.03-.21-1.67s.07-1.2.21-1.68c.14-.47.33-.87.57-1.18.24-.31.52-.54.85-.69.32-.15.67-.23,1.05-.23s.72.08,1.05.23c.33.15.61.38.85.69.24.31.43.7.57,1.18.14.47.21,1.03.21,1.68ZM321.06,135.26c0-.56-.05-1.04-.14-1.42-.09-.38-.22-.69-.38-.92s-.34-.4-.55-.5c-.21-.1-.43-.15-.65-.15s-.44.05-.65.15c-.21.1-.39.27-.55.5-.16.23-.28.54-.38.92-.09.38-.14.86-.14,1.42s.05,1.03.14,1.42c.09.38.22.69.38.92.16.23.34.4.55.5.21.1.43.15.65.15s.44-.05.65-.15c.21-.1.39-.27.55-.5s.29-.54.38-.92c.09-.38.14-.85.14-1.42Z"/>
    <path class="cls-4" d="M325.6,135.47h2.54v.78h-2.54v-.78Z"/>
    <path class="cls-4" d="M332.7,138.24h1.58v-5.03c0-.14,0-.3.01-.46l-1.31,1.13s-.09.06-.13.07-.09,0-.12,0c-.04,0-.07-.02-.11-.04-.03-.02-.06-.04-.07-.07l-.29-.4,2.2-1.9h.75v6.69h1.45v.7h-3.95v-.7Z"/>
    <path class="cls-4" d="M343.04,135.26c0,.64-.07,1.2-.21,1.67s-.33.86-.57,1.17-.52.54-.85.69c-.33.15-.68.23-1.05.23s-.73-.08-1.05-.23c-.32-.15-.61-.38-.85-.69s-.43-.7-.57-1.17c-.14-.47-.21-1.03-.21-1.67s.07-1.2.21-1.68c.14-.47.33-.87.57-1.18.24-.31.52-.54.85-.69.32-.15.67-.23,1.05-.23s.72.08,1.05.23c.33.15.61.38.85.69.24.31.43.7.57,1.18.14.47.21,1.03.21,1.68ZM342.09,135.26c0-.56-.05-1.04-.14-1.42-.09-.38-.22-.69-.38-.92s-.34-.4-.55-.5c-.21-.1-.43-.15-.65-.15s-.44.05-.65.15c-.21.1-.39.27-.55.5-.16.23-.28.54-.38.92-.09.38-.14.86-.14,1.42s.05,1.03.14,1.42c.09.38.22.69.38.92.16.23.34.4.55.5.21.1.43.15.65.15s.44-.05.65-.15c.21-.1.39-.27.55-.5s.29-.54.38-.92c.09-.38.14-.85.14-1.42Z"/>
    <path class="cls-4" d="M346.94,136.01c.08-.1.15-.19.21-.28.06-.09.13-.18.18-.27-.19.15-.4.27-.64.34s-.49.12-.75.12c-.28,0-.54-.05-.79-.14s-.47-.23-.66-.41c-.19-.18-.34-.4-.45-.66-.11-.26-.17-.56-.17-.9,0-.32.06-.62.18-.91.12-.28.29-.53.5-.74s.47-.37.77-.49c.3-.12.63-.18.98-.18s.67.06.96.17c.29.12.54.28.74.49.21.21.36.46.48.75.11.29.17.61.17.97,0,.21-.02.41-.06.6-.04.19-.1.38-.17.56-.07.18-.16.37-.27.54s-.23.36-.36.55l-1.8,2.59c-.04.06-.11.12-.19.16-.08.04-.18.06-.28.06h-.84l2.24-2.94ZM347.79,133.76c0-.23-.04-.44-.11-.62-.07-.19-.18-.35-.31-.48s-.29-.23-.47-.3c-.18-.07-.38-.11-.59-.11-.23,0-.43.04-.62.11-.19.07-.34.18-.48.31-.13.13-.24.29-.31.47-.07.18-.11.38-.11.6,0,.23.03.44.1.62.07.18.16.34.29.47.12.13.28.22.46.29.18.07.38.1.6.1.25,0,.46-.04.66-.12.19-.08.35-.19.48-.32s.23-.29.3-.46c.07-.17.1-.36.1-.54Z"/>
  </g>
  <g>
    <path class="cls-4" d="M26.19,164.45h-1v-3.35h-3.98v3.35h-1v-7.37h1v3.29h3.98v-3.29h1v7.37Z"/>
    <path class="cls-4" d="M34.08,164.45h-.77c-.09,0-.16-.02-.22-.07-.06-.04-.1-.1-.12-.17l-.69-1.78h-3.31l-.69,1.78c-.02.06-.06.12-.12.16-.06.05-.13.07-.22.07h-.77l2.95-7.37h1.01l2.95,7.37ZM29.25,161.71h2.75l-1.16-3c-.04-.09-.07-.19-.11-.31-.04-.12-.07-.24-.11-.38-.03.13-.07.26-.11.38s-.07.22-.11.31l-1.16,2.99Z"/>
  </g>
  <g>
    <path class="cls-4" d="M41.85,157.08v.81h-3.54v2.45h2.87v.78h-2.87v2.52h3.55v.81h-4.55v-7.37h4.54Z"/>
    <path class="cls-4" d="M46.05,160.1c-.04.08-.1.11-.19.11-.05,0-.11-.02-.18-.06-.06-.04-.14-.08-.24-.13-.09-.05-.21-.09-.34-.13s-.28-.06-.46-.06c-.15,0-.29.02-.42.06-.12.04-.23.09-.32.16-.09.07-.15.15-.2.24-.05.09-.07.19-.07.3,0,.13.04.25.12.33.08.09.18.17.31.23.13.07.27.12.43.17s.33.1.5.16.34.12.5.19c.16.07.31.15.43.26s.23.23.31.38.12.33.12.54c0,.24-.04.46-.13.67-.09.2-.21.38-.38.53-.17.15-.37.27-.62.35-.24.08-.52.13-.84.13-.36,0-.69-.06-.99-.18-.29-.12-.55-.27-.75-.46l.22-.35s.06-.08.1-.1c.04-.02.09-.04.14-.04.06,0,.13.02.2.07.07.05.15.1.25.16s.22.11.36.16c.14.05.32.07.52.07.18,0,.33-.02.47-.07.13-.05.25-.11.33-.19.09-.08.16-.17.2-.27.04-.1.06-.21.06-.33,0-.14-.04-.26-.12-.36s-.18-.17-.31-.24c-.13-.07-.27-.12-.43-.17s-.33-.1-.5-.16c-.17-.05-.34-.12-.5-.19-.16-.07-.31-.16-.43-.26-.13-.11-.23-.24-.31-.39s-.12-.35-.12-.57c0-.2.04-.39.12-.57.08-.18.2-.34.36-.48s.35-.25.58-.33c.23-.08.49-.12.79-.12.34,0,.65.05.92.16.27.11.51.26.71.44l-.21.33Z"/>
    <path class="cls-4" d="M49.05,164.53c-.41,0-.73-.11-.95-.34-.22-.23-.33-.56-.33-.99v-3.19h-.63c-.05,0-.1-.02-.14-.05s-.06-.08-.06-.15v-.37l.85-.11.21-1.61c.01-.05.03-.09.07-.13.04-.03.08-.05.14-.05h.46v1.79h1.51v.66h-1.51v3.13c0,.22.05.38.16.49s.24.16.41.16c.1,0,.18-.01.25-.04.07-.03.13-.05.18-.08.05-.03.1-.06.13-.08.04-.03.07-.04.1-.04.05,0,.09.03.13.09l.27.44c-.16.15-.35.26-.57.35-.22.08-.45.13-.69.13Z"/>
    <path class="cls-4" d="M54.43,164.45c-.09,0-.16-.01-.21-.04s-.09-.09-.11-.17l-.1-.49c-.14.12-.27.23-.4.33-.13.1-.27.18-.41.25-.14.07-.29.12-.46.15-.16.04-.34.05-.54.05s-.39-.03-.57-.08c-.18-.06-.33-.14-.47-.25-.13-.11-.24-.26-.31-.43-.08-.17-.12-.38-.12-.62,0-.21.06-.4.17-.59.11-.19.3-.36.55-.51s.58-.27.99-.36c.41-.09.91-.15,1.5-.16v-.41c0-.4-.09-.71-.26-.92-.17-.21-.43-.31-.77-.31-.23,0-.42.03-.57.08-.15.06-.28.12-.4.19-.11.07-.21.13-.29.19s-.16.08-.24.08c-.06,0-.11-.02-.16-.05-.04-.03-.08-.07-.11-.12l-.16-.29c.29-.28.6-.49.93-.62.33-.14.7-.21,1.11-.21.29,0,.55.05.78.14.23.1.42.23.57.4.15.17.27.38.35.62.08.24.12.51.12.8v3.33h-.41ZM52.46,163.89c.16,0,.31-.02.44-.05.13-.03.26-.08.38-.14.12-.06.23-.13.34-.22.11-.09.21-.19.32-.3v-1.08c-.42.01-.78.05-1.08.1-.3.05-.54.12-.73.21s-.32.19-.41.3c-.08.12-.13.25-.13.39,0,.14.02.26.07.35.04.1.11.18.18.25s.17.11.27.14.22.04.34.04ZM54.4,157l-1.2,1.33c-.05.05-.1.09-.14.11-.05.02-.11.03-.18.03h-.54l.76-1.25c.05-.08.1-.14.16-.17s.14-.05.25-.05h.9Z"/>
    <path class="cls-4" d="M58.03,159.15c.23,0,.44.03.63.08.2.05.37.12.54.22h1.42v.34c0,.11-.07.19-.22.22l-.59.08c.12.22.17.47.17.75,0,.25-.05.48-.15.69-.1.21-.23.38-.4.53s-.38.26-.62.34c-.24.08-.5.12-.78.12-.25,0-.48-.03-.69-.09-.11.07-.19.14-.25.22s-.08.16-.08.23c0,.12.05.22.15.28.1.06.23.11.4.14.17.03.35.04.56.05s.43.02.65.03c.22.01.44.04.65.08.21.04.4.1.56.19s.3.2.4.35c.1.15.15.35.15.59,0,.22-.06.44-.17.65s-.27.4-.48.56c-.21.16-.47.29-.77.39-.3.1-.65.15-1.03.15s-.71-.04-1-.11-.52-.18-.71-.3c-.19-.13-.33-.27-.42-.44-.09-.17-.14-.34-.14-.52,0-.26.08-.47.24-.65.16-.18.38-.32.66-.43-.15-.07-.28-.16-.37-.28s-.13-.27-.13-.47c0-.08.01-.15.04-.23.03-.08.07-.16.13-.24.06-.08.13-.15.21-.23.08-.07.18-.13.29-.19-.26-.14-.46-.34-.6-.58-.14-.24-.22-.52-.22-.83,0-.25.05-.48.15-.69.1-.21.23-.38.41-.53.17-.15.38-.26.62-.34.24-.08.51-.12.79-.12ZM59.68,164.73c0-.13-.04-.23-.11-.31-.07-.08-.17-.14-.29-.19s-.26-.08-.42-.09c-.16-.02-.33-.03-.51-.04-.18-.01-.36-.02-.55-.03-.19,0-.36-.03-.54-.05-.19.09-.35.2-.47.33s-.18.29-.18.48c0,.12.03.23.09.33.06.1.15.19.28.26.12.07.28.13.47.17s.41.06.66.06.47-.02.66-.07c.2-.04.36-.11.5-.19.14-.08.24-.18.31-.29.07-.11.11-.24.11-.38ZM58.03,161.9c.19,0,.35-.03.49-.08s.26-.12.35-.22c.1-.09.17-.2.22-.33.05-.13.07-.27.07-.42,0-.32-.1-.57-.29-.76-.19-.19-.47-.28-.84-.28s-.65.09-.85.28c-.19.19-.29.44-.29.76,0,.15.02.3.07.42s.12.24.22.33.21.16.35.22.3.08.49.08Z"/>
    <path class="cls-4" d="M62.7,157.6c0,.09-.02.17-.05.25-.04.08-.08.15-.14.21s-.13.11-.21.14-.17.05-.25.05-.17-.02-.25-.05-.15-.08-.2-.14c-.06-.06-.1-.13-.14-.21s-.05-.16-.05-.25.02-.17.05-.25c.03-.08.08-.15.14-.21.06-.06.13-.11.2-.14s.16-.05.25-.05.17.02.25.05.15.08.21.14c.06.06.11.13.14.21.04.08.05.17.05.25ZM62.51,159.24v5.21h-.92v-5.21h.92Z"/>
    <path class="cls-4" d="M66.19,159.16c.38,0,.72.06,1.03.19.31.13.57.31.78.54s.38.52.5.85c.11.33.17.7.17,1.11s-.06.78-.17,1.11c-.12.33-.28.61-.5.84s-.48.41-.78.54c-.31.13-.65.19-1.03.19s-.73-.06-1.04-.19c-.31-.12-.57-.3-.78-.54-.22-.23-.38-.51-.5-.84s-.17-.7-.17-1.11.06-.78.17-1.11.28-.61.5-.85c.22-.23.48-.41.78-.54.31-.13.65-.19,1.04-.19ZM66.19,163.81c.51,0,.9-.17,1.15-.52s.38-.83.38-1.44-.13-1.1-.38-1.45c-.25-.35-.64-.52-1.15-.52-.26,0-.49.04-.68.13-.19.09-.35.22-.48.39-.13.17-.22.38-.29.62s-.1.52-.1.83c0,.62.13,1.1.38,1.44.26.34.64.52,1.17.52Z"/>
  </g>
  <g>
    <path class="cls-4" d="M74.87,157c.31,0,.6.04.86.13s.49.22.68.38c.19.16.34.36.45.6s.16.49.16.78c0,.23-.03.44-.09.62s-.15.34-.26.48-.25.26-.4.35c-.16.1-.33.17-.53.23.48.13.84.34,1.08.64.24.3.36.67.36,1.12,0,.34-.06.64-.19.92-.13.27-.3.5-.53.69-.22.19-.48.34-.78.44-.3.1-.61.15-.95.15-.39,0-.73-.05-1-.15s-.51-.23-.71-.4c-.19-.17-.35-.38-.47-.61-.12-.23-.23-.49-.31-.76l.4-.17c.1-.04.2-.06.3-.04s.17.08.21.17c.04.1.1.21.17.34s.16.26.27.39c.12.12.27.23.45.31s.41.13.69.13c.26,0,.48-.04.68-.13.19-.08.35-.19.48-.33.13-.13.23-.28.29-.45.06-.17.1-.33.1-.49,0-.2-.03-.38-.08-.54-.05-.17-.15-.31-.29-.43s-.33-.21-.58-.28c-.25-.07-.56-.1-.94-.1v-.66c.32,0,.58-.04.81-.1s.4-.15.54-.27c.14-.11.24-.25.3-.41s.1-.33.1-.52c0-.21-.03-.4-.1-.56-.07-.16-.16-.29-.28-.39-.12-.1-.25-.18-.41-.23-.16-.05-.33-.08-.52-.08s-.36.03-.52.08c-.16.06-.3.13-.42.23-.12.1-.22.21-.31.35-.08.13-.14.28-.17.44-.04.12-.1.2-.17.24-.07.04-.16.05-.29.03l-.48-.08c.05-.34.14-.63.28-.89.14-.26.31-.48.52-.65s.45-.31.73-.4.57-.14.88-.14Z"/>
    <path class="cls-4" d="M182.4,160.38v.38l-3.98,1.95v-.63c0-.05.02-.11.05-.15.03-.05.09-.09.18-.13l2.27-1.08c.08-.03.15-.06.24-.09s.17-.05.26-.07c-.18-.04-.35-.09-.5-.15l-2.27-1.07c-.09-.04-.15-.08-.18-.13s-.05-.1-.05-.15v-.63l3.98,1.94ZM182.4,164.04h-3.98v-.7h3.98v.7Z"/>
  </g>
  <g>
    <path class="cls-4" d="M187.28,163.75h1.58v-5.03c0-.14,0-.3.02-.46l-1.31,1.13s-.09.06-.13.07c-.04,0-.09,0-.12,0s-.07-.02-.11-.04-.06-.04-.07-.07l-.29-.4,2.2-1.9h.75v6.69h1.45v.7h-3.95v-.7Z"/>
    <path class="cls-4" d="M194.95,164.53c-.37,0-.7-.05-1.01-.15s-.57-.24-.79-.42-.39-.4-.51-.66-.18-.55-.18-.87c0-.47.12-.86.37-1.17.25-.31.6-.53,1.06-.66-.39-.14-.68-.36-.88-.65-.2-.29-.3-.63-.3-1.03,0-.27.05-.52.16-.76.11-.24.26-.44.45-.62.2-.17.43-.31.7-.41.27-.1.58-.15.91-.15s.64.05.91.15.51.24.71.41.35.38.45.62c.11.24.16.49.16.76,0,.4-.1.74-.3,1.03-.2.29-.49.5-.87.65.46.13.81.35,1.06.66.25.31.37.7.37,1.17,0,.32-.06.61-.18.87-.12.26-.29.48-.51.66-.22.18-.48.32-.78.42-.31.1-.64.15-1.01.15ZM194.95,163.8c.24,0,.46-.03.65-.1.19-.07.35-.16.48-.28.13-.12.23-.27.3-.44s.11-.36.11-.56c0-.25-.04-.47-.13-.65-.08-.18-.2-.33-.34-.44-.14-.11-.31-.2-.49-.25-.19-.05-.38-.08-.58-.08s-.4.03-.58.08c-.19.05-.35.14-.49.25-.14.11-.26.26-.34.44-.08.18-.13.4-.13.65,0,.21.04.39.11.56s.17.32.3.44c.13.12.29.22.48.28.19.07.41.1.65.1ZM194.95,160.26c.24,0,.45-.04.62-.11.17-.07.31-.17.41-.29.11-.12.18-.26.23-.42.05-.16.07-.32.07-.49s-.03-.33-.08-.48c-.06-.15-.14-.28-.25-.4-.11-.11-.25-.2-.42-.27-.17-.07-.36-.1-.58-.1s-.41.03-.58.1-.31.15-.42.27c-.11.11-.2.25-.25.4-.06.15-.08.31-.08.48s.02.33.07.49c.05.16.12.3.23.42s.24.22.41.29c.17.07.38.11.61.11Z"/>
    <path class="cls-4" d="M203.59,160.77c0,.64-.07,1.2-.21,1.67s-.33.86-.57,1.17-.52.54-.85.69c-.33.15-.68.23-1.05.23s-.73-.08-1.05-.23c-.32-.15-.61-.38-.85-.69-.24-.31-.43-.7-.57-1.17s-.21-1.03-.21-1.67.07-1.2.21-1.68c.14-.47.33-.87.57-1.18.24-.31.52-.54.85-.69.32-.15.67-.23,1.05-.23s.72.08,1.05.23c.33.15.61.38.85.69.24.31.43.7.57,1.18.14.47.21,1.03.21,1.68ZM202.64,160.77c0-.56-.05-1.04-.14-1.42-.09-.38-.22-.69-.38-.92s-.34-.4-.55-.5c-.21-.1-.43-.15-.65-.15s-.44.05-.65.15c-.21.1-.39.27-.55.5s-.28.54-.38.92c-.09.38-.14.86-.14,1.42s.05,1.03.14,1.42c.09.38.22.69.38.92s.34.4.55.5c.21.1.43.15.65.15s.44-.05.65-.15c.21-.1.39-.27.55-.5s.29-.54.38-.92c.09-.38.14-.85.14-1.42Z"/>
  </g>
  <g>
    <path class="cls-4" d="M244.37,159.16c.31,0,.6.05.87.16.27.11.5.26.69.45s.35.44.46.73c.11.29.17.62.17.99,0,.14-.02.24-.05.29-.03.05-.09.07-.17.07h-3.48c0,.33.05.62.13.86.08.24.2.45.34.61.14.16.32.29.51.37.2.08.42.12.67.12.23,0,.43-.03.59-.08.17-.05.31-.11.43-.17s.22-.12.3-.17c.08-.05.15-.08.21-.08.08,0,.13.03.17.09l.26.33c-.11.14-.25.26-.41.36-.16.1-.33.18-.51.25-.18.06-.37.11-.56.15-.19.03-.38.05-.57.05-.36,0-.69-.06-1-.18-.3-.12-.57-.3-.79-.54-.22-.24-.39-.53-.52-.87s-.19-.74-.19-1.19c0-.36.06-.7.17-1.02.11-.32.27-.59.48-.82s.46-.41.77-.54c.3-.13.64-.2,1.02-.2ZM244.39,159.83c-.44,0-.79.13-1.04.38-.25.26-.41.61-.47,1.06h2.85c0-.21-.03-.41-.09-.58-.06-.18-.15-.33-.26-.46-.12-.13-.25-.23-.42-.3-.17-.07-.35-.11-.56-.11Z"/>
    <path class="cls-4" d="M248.17,164.56c-.04.12-.11.21-.21.27-.09.06-.19.09-.29.09h-.39l3.09-7.7c.04-.11.1-.19.19-.25s.18-.09.29-.09h.39l-3.08,7.69Z"/>
  </g>
  <g>
    <path class="cls-4" d="M254.04,159.16c.38,0,.72.06,1.03.19.31.13.57.31.78.54s.38.52.5.85c.12.33.17.7.17,1.11s-.06.78-.17,1.11c-.11.33-.28.61-.5.84s-.48.41-.78.54c-.3.13-.65.19-1.03.19s-.73-.06-1.04-.19c-.31-.12-.57-.3-.79-.54-.22-.23-.38-.51-.5-.84s-.17-.7-.17-1.11.06-.78.17-1.11.28-.61.5-.85c.22-.23.48-.41.79-.54s.65-.19,1.04-.19ZM254.04,163.81c.51,0,.9-.17,1.15-.52s.38-.83.38-1.44-.13-1.1-.38-1.45c-.25-.35-.64-.52-1.15-.52-.26,0-.49.04-.68.13-.19.09-.35.22-.48.39-.13.17-.22.38-.29.62s-.09.52-.09.83c0,.62.13,1.1.38,1.44s.64.52,1.17.52Z"/>
    <path class="cls-4" d="M258.54,159.24v3.32c0,.39.09.7.27.92.18.22.46.32.83.32.27,0,.52-.06.76-.19.24-.13.45-.3.65-.53v-3.84h.92v5.21h-.55c-.13,0-.21-.06-.25-.19l-.07-.56c-.23.25-.48.45-.76.6s-.6.23-.97.23c-.28,0-.54-.05-.75-.14-.22-.09-.4-.23-.55-.4-.15-.17-.26-.38-.33-.62-.07-.24-.11-.51-.11-.81v-3.32h.92Z"/>
  </g>
  <g>
    <path class="cls-4" d="M319.2,163.75h1.58v-5.03c0-.14,0-.3.01-.46l-1.31,1.13s-.09.06-.13.07-.09,0-.12,0c-.04,0-.07-.02-.11-.04-.03-.02-.06-.04-.07-.07l-.29-.4,2.2-1.9h.75v6.69h1.45v.7h-3.95v-.7Z"/>
    <path class="cls-4" d="M325.17,163.75h1.58v-5.03c0-.14,0-.3.01-.46l-1.31,1.13s-.09.06-.13.07-.09,0-.12,0c-.04,0-.07-.02-.11-.04-.03-.02-.06-.04-.07-.07l-.29-.4,2.2-1.9h.75v6.69h1.45v.7h-3.95v-.7Z"/>
    <path class="cls-4" d="M335.51,160.77c0,.64-.07,1.2-.21,1.67s-.33.86-.57,1.17-.52.54-.85.69c-.33.15-.68.23-1.05.23s-.73-.08-1.05-.23c-.32-.15-.61-.38-.85-.69s-.43-.7-.57-1.17c-.14-.47-.21-1.03-.21-1.67s.07-1.2.21-1.68c.14-.47.33-.87.57-1.18.24-.31.52-.54.85-.69.32-.15.67-.23,1.05-.23s.72.08,1.05.23c.33.15.61.38.85.69.24.31.43.7.57,1.18.14.47.21,1.03.21,1.68ZM334.56,160.77c0-.56-.05-1.04-.14-1.42-.09-.38-.22-.69-.38-.92s-.34-.4-.55-.5c-.21-.1-.43-.15-.65-.15s-.44.05-.65.15c-.21.1-.39.27-.55.5-.16.23-.28.54-.38.92-.09.38-.14.86-.14,1.42s.05,1.03.14,1.42c.09.38.22.69.38.92.16.23.34.4.55.5.21.1.43.15.65.15s.44-.05.65-.15c.21-.1.39-.27.55-.5s.29-.54.38-.92c.09-.38.14-.85.14-1.42Z"/>
  </g>
</svg>