
<svg xmlns="http://www.w3.org/2000/svg" version="1.1" xmlns:xlink="http://www.w3.org/1999/xlink" preserveAspectRatio="none" x="0px" y="0px" width="300px" height="215px" viewBox="0 0 300 215">
<defs>
<linearGradient id="Gradient_1" gradientUnits="userSpaceOnUse" x1="329.85" y1="113.88749999999999" x2="313.35" y2="94.3125" spreadMethod="pad">
<stop  offset="0%" stop-color="#930D0C"/>

<stop  offset="100%" stop-color="#F8EAE9"/>
</linearGradient>

<linearGradient id="Gradient_2" gradientUnits="userSpaceOnUse" x1="317.7" y1="197.3375" x2="329.3" y2="216.9625" spreadMethod="pad">
<stop  offset="0%" stop-color="#930D0C"/>

<stop  offset="100%" stop-color="#F03B1E"/>
</linearGradient>

<linearGradient id="Gradient_3" gradientUnits="userSpaceOnUse" x1="181.15" y1="101.3" x2="196.85" y2="101.3" spreadMethod="pad">
<stop  offset="0%" stop-color="#930D0C"/>

<stop  offset="100%" stop-color="#F03B1E"/>
</linearGradient>

<linearGradient id="Gradient_4" gradientUnits="userSpaceOnUse" x1="185.175" y1="199.76250000000002" x2="194.925" y2="211.0375" spreadMethod="pad">
<stop  offset="0%" stop-color="#930D0C"/>

<stop  offset="100%" stop-color="#F03B1E"/>
</linearGradient>

<linearGradient id="Gradient_5" gradientUnits="userSpaceOnUse" x1="49.55" y1="193.6875" x2="65.45" y2="215.91250000000002" spreadMethod="pad">
<stop  offset="0%" stop-color="#930D0C"/>

<stop  offset="100%" stop-color="#F03B1E"/>
</linearGradient>

<g id="Layer1_0_FILL">
<path fill="#E38171" stroke="none" d="
M 329.5 32.45
Q 329.8123046875 27.0595703125 330.1 23.5
L 311.9 23.5
Q 310.7302734375 31.7525390625 309.4 44.55 308.55 52.35 306.95 67.85 306.65 70.85 306.45 71.9 306.05 73.75 305.4 77.95 305.35 78.35 303.55 88.4 301.8 98.9 301.8 102.15 301.8 110.4 308.7 115.65 315.15 120.55 324.15 120.55 330.81171875 120.55 336.75 114.6 330.9431640625 119.1 322.75 119.1 314.45 119.1 308.6 114.5 302.75 109.9 302.75 103.4 302.75 96.9 308.6 92.3 314.45 87.7 322.75 87.7 331.05 87.7 336.9 92.3 337.0294921875 92.4017578125 337.15 92.5 342.75 97.0439453125 342.75 103.4 342.75 104.9037109375 342.4 106.3 343.2 104.1767578125 343.2 102.1 343.2 101 341 94.95 337.8 86.05 336.2 80.9 329.2 58.45 329.2 39.45 329.2 38.1 329.5 32.45
M 324.9 78.75
Q 325.5 79.35 325.7 79.45 325.95 79.6 326.5 79.7 327.35 80 328.4 81.05 329.2 81.75 329.5 82.35 329.95 83.35 329.4 84 329 84.45 327.95 84.55 326.9 84.6 325.1 84.3 323.05 83.95 322.25 83.95 321.1 83.9 318.2 84.3 315.65 84.65 314.2 84.45 313.45 84.35 313.15 84.05 312.6 83.6 312.75 82.75 312.85 81.95 313.45 81.35 314.8 79.8 318.45 78.6 320.7 77.85 321.75 77.8 323.7 77.7 324.9 78.75
M 333.3 88.7
Q 334 89.3 334.75 89.95 325.3 85.45 314.8 87.65 320.85 84.6 328.1 86.4 330.95 86.8 333.3 88.7 Z"/>

<path fill="#000000" stroke="none" d="
M 334.75 89.95
Q 334 89.3 333.3 88.7 330.95 86.8 328.1 86.4 320.85 84.6 314.8 87.65 325.3 85.45 334.75 89.95
M 330.3 23.5
L 330.1 23.5
Q 329.8123046875 27.0595703125 329.5 32.45 329.2 38.1 329.2 39.45 329.2 58.45 336.2 80.9 337.8 86.05 341 94.95 343.2 101 343.2 102.1 343.2 104.1767578125 342.4 106.3 342.75 104.9037109375 342.75 103.4 342.75 97.0439453125 337.15 92.5 337.0294921875 92.4017578125 336.9 92.3 331.05 87.7 322.75 87.7 314.45 87.7 308.6 92.3 302.75 96.9 302.75 103.4 302.75 109.9 308.6 114.5 314.45 119.1 322.75 119.1 330.9431640625 119.1 336.75 114.6 330.81171875 120.55 324.15 120.55 315.15 120.55 308.7 115.65 301.8 110.4 301.8 102.15 301.8 98.9 303.55 88.4 305.35 78.35 305.4 77.95 306.05 73.75 306.45 71.9 306.65 70.85 306.95 67.85 308.55 52.35 309.4 44.55 310.7302734375 31.7525390625 311.9 23.5
L 311.65 23.5
Q 310.6537109375 26.6662109375 310.2 27.45 310.1 27.95 307.65 48.65 304.05 79 301.65 92.45 300.15 100.75 300.15 100.9 300.15 108.9 305.45 115.1 311.7 122.4 322.35 122.4 330.75 122.4 337.8 116 344.7 109.75 344.7 102.7 344.7 96.2 342.5 90.75 339.35 84.4 337.6 79.85 330.5681640625 61.9771484375 330.3 23.5
M 336.1 93.2
Q 336.703515625 93.662109375 337.25 94.15 341.65 98.1025390625 341.65 103.45 341.65 109.45 336.1 113.7 330.55 117.95 322.7 117.95 314.85 117.95 309.3 113.7 303.75 109.45 303.75 103.45 303.75 97.45 309.3 93.2 314.85 88.95 322.7 88.95 330.55 88.95 336.1 93.2
M 336.8 96.7
Q 335.96640625 95.7900390625 334.85 94.95 331.463671875 92.401953125 327.15 91.55 325.0390625 91.15 322.7 91.15 315.6 91.15 310.55 94.95 305.5 98.75 305.5 104.15 305.5 109.55 310.55 113.35 313.5669921875 115.6203125 317.3 116.5 319.841796875 117.15 322.7 117.15 329.8 117.15 334.85 113.35 339.9 109.55 339.9 104.15 339.9 99.94375 336.8 96.7
M 327.15 94
Q 330.3228515625 94.776953125 332.85 96.65 334.3224609375 97.706640625 335.25 98.9 337.1 101.20703125 337.1 104.05 337.1 108.4 332.85 111.5 328.6 114.6 322.55 114.6 321.9419921875 114.6 321.35 114.55 316.0728515625 114.2884765625 312.25 111.5 308 108.4 308 104.05 308 99.7 312.25 96.65 315.4125 94.3060546875 319.55 93.7 321.001953125 93.5 322.55 93.5 325.002734375 93.5 327.15 94
M 327.3 92.8
Q 331.02734375 93.641015625 334 95.8 335.33125 96.7630859375 336.25 97.85 338.7 100.573828125 338.7 104.05 338.7 108.9 334 112.35 332.24765625 113.604296875 330.2 114.4 332.0537109375 113.6103515625 333.65 112.4 338.2 109 338.2 104.15 338.2 100.823046875 336.05 98.15 335.0787109375 96.9333984375 333.65 95.85 330.8271484375 93.740625 327.3 92.95 325.1294921875 92.45 322.7 92.45 321.7767578125 92.45 320.9 92.5 315.6435546875 92.9404296875 311.75 95.85 307.2 99.3 307.2 104.15 307.2 109 311.75 112.4 314.348046875 114.369921875 317.55 115.2 313.985546875 114.401171875 311.15 112.35 306.4 108.9 306.4 104.05 306.4 99.2 311.15 95.8 315.3435546875 92.7216796875 321.1 92.4 321.828125 92.35 322.55 92.35 325.05703125 92.35 327.3 92.8 Z"/>

<path fill="#F9E0A0" stroke="none" d="
M 337.25 94.15
Q 336.703515625 93.662109375 336.1 93.2 330.55 88.95 322.7 88.95 314.85 88.95 309.3 93.2 303.75 97.45 303.75 103.45 303.75 109.45 309.3 113.7 314.85 117.95 322.7 117.95 330.55 117.95 336.1 113.7 341.65 109.45 341.65 103.45 341.65 98.1025390625 337.25 94.15
M 334.85 94.95
Q 335.96640625 95.7900390625 336.8 96.7 339.9 99.94375 339.9 104.15 339.9 109.55 334.85 113.35 329.8 117.15 322.7 117.15 319.841796875 117.15 317.3 116.5 313.5669921875 115.6203125 310.55 113.35 305.5 109.55 305.5 104.15 305.5 98.75 310.55 94.95 315.6 91.15 322.7 91.15 325.0390625 91.15 327.15 91.55 331.463671875 92.401953125 334.85 94.95 Z"/>

<path fill="#FCD0C7" stroke="none" d="
M 334 95.8
Q 331.02734375 93.641015625 327.3 92.8 325.05703125 92.35 322.55 92.35 321.828125 92.35 321.1 92.4 315.3435546875 92.7216796875 311.15 95.8 306.4 99.2 306.4 104.05 306.4 108.9 311.15 112.35 313.985546875 114.401171875 317.55 115.2 314.348046875 114.369921875 311.75 112.4 307.2 109 307.2 104.15 307.2 99.3 311.75 95.85 315.6435546875 92.9404296875 320.9 92.5 321.7767578125 92.45 322.7 92.45 325.1294921875 92.45 327.3 92.95 330.8271484375 93.740625 333.65 95.85 335.0787109375 96.9333984375 336.05 98.15 338.2 100.823046875 338.2 104.15 338.2 109 333.65 112.4 332.0537109375 113.6103515625 330.2 114.4 332.24765625 113.604296875 334 112.35 338.7 108.9 338.7 104.05 338.7 100.573828125 336.25 97.85 335.33125 96.7630859375 334 95.8
M 317.9 96.55
L 317.85 97.1
Q 317.85 97.20703125 317.85 97.3 317.8927734375 97.621484375 318.05 97.7
L 318.25 97.8 318.75 97.8
Q 319 97.75 319.25 97.4
L 319.85 96.55 319.85 96.15
Q 319.85 95.45 319.75 95.3 319.65 95.1 319 95
L 319 95.1
Q 318.65 95.1 318.45 95.6
L 318.05 96.25 317.9 96.55
M 334.3 104.4
L 335.05 103.65
Q 335.5 103.1 335.45 102.75 335.4 102.35 334.7 102.05 333.55 101.7 332.6 101.9
L 331.5 102.15
Q 330.3 102.15 329.75 102.4 328.8 102.85 328.8 103.9 328.8 104.25 329 104.45 329.1 104.55 329.5 104.65
L 331.3 104.95
Q 332.8 105.15 333.5 104.85 333.9 104.7 334.3 104.4
M 319.75 110.75
Q 319.65 110.9 319.65 111.25 319.65 111.65 319.75 111.85
L 320.5 111.95
Q 320.6 111.75 320.9 111.45 321.15 111.15 321.05 110.8 320.9 110.6 320.6 110.5
L 320.2 110.45 320.2 110.55
Q 319.95 110.45 319.75 110.75
M 315.45 100.15
Q 315.386328125 100.1103515625 315.3 100.05 314.9705078125 99.9158203125 314.55 100 313.6 100.4 313 101.2
L 312.3 102.65 312.05 103.65
Q 311.95 104.25 312.2 104.55 312.3181640625 104.7271484375 312.55 104.8
L 312.55 104.85
Q 312.9380859375 105 313.55 105
L 314.05 105.05 314.35 105 314.7 104.75
Q 315.35 104.2 315.6 103.7
L 315.85 103.15 316.1 102.3
Q 316.25 101.5 315.95 100.8 315.65 100.3 315.45 100.15
M 329.6 98.05
Q 329.6 98.35 329.7 98.5
L 330.25 98.6 330.3 98.4 330.45 98.05 330.2 97.8 330.1 97.75 329.8 97.75 329.6 97.95 329.6 98.05 Z"/>

<path fill="#FEACA0" stroke="none" d="
M 330.35 100.65
Q 326.35 101.4 324.9 102.35 322.4 104.05 322.4 108.15 322.4 112.85 322.05 113.6 321.8267578125 114.1123046875 321.35 114.55 321.9419921875 114.6 322.55 114.6 328.6 114.6 332.85 111.5 337.1 108.4 337.1 104.05 337.1 101.20703125 335.25 98.9 333.86640625 99.9560546875 330.35 100.65
M 335.05 103.65
L 334.3 104.4
Q 333.9 104.7 333.5 104.85 332.8 105.15 331.3 104.95
L 329.5 104.65
Q 329.1 104.55 329 104.45 328.8 104.25 328.8 103.9 328.8 102.85 329.75 102.4 330.3 102.15 331.5 102.15
L 332.6 101.9
Q 333.55 101.7 334.7 102.05 335.4 102.35 335.45 102.75 335.5 103.1 335.05 103.65
M 315.3 100.05
Q 315.386328125 100.1103515625 315.45 100.15 315.65 100.3 315.95 100.8 316.25 101.5 316.1 102.3
L 315.85 103.15 315.6 103.7
Q 315.35 104.2 314.7 104.75
L 314.35 105 314.05 105.05 313.55 105
Q 312.9380859375 105 312.55 104.85 312.561328125 105.08828125 312.55 105.35 312.55 107.35 313.3 108.75 314.1 110.25 315.35 110.25 316.9 110.25 317.85 108.35 318.6 106.95 318.6 105.7 318.6 103.8 317.45 101.95 316.442578125 100.2857421875 315.3 100.05
M 325.8 97.4
Q 326.841015625 95.7689453125 327.15 94 325.002734375 93.5 322.55 93.5 321.001953125 93.5 319.55 93.7 319.5109375 93.7765625 319.45 93.85 318.4349609375 95.11875 318.05 96.25
L 318.45 95.6
Q 318.65 95.1 319 95.1
L 319 95
Q 319.65 95.1 319.75 95.3 319.85 95.45 319.85 96.15
L 319.85 96.55 319.25 97.4
Q 319 97.75 318.75 97.8
L 318.25 97.8 318.05 97.7
Q 317.8927734375 97.621484375 317.85 97.3 317.85 97.423828125 317.85 97.55 317.85 98.8 319 99.65 319.95 100.4 320.85 100.4 323.95 100.4 325.8 97.4 Z"/>

<path fill="url(#Gradient_1)" stroke="none" d="
M 327.15 94
Q 326.841015625 95.7689453125 325.8 97.4 323.95 100.4 320.85 100.4 319.95 100.4 319 99.65 317.85 98.8 317.85 97.55 317.85 97.423828125 317.85 97.3 317.85 97.20703125 317.85 97.1
L 317.9 96.55 318.05 96.25
Q 318.4349609375 95.11875 319.45 93.85 319.5109375 93.7765625 319.55 93.7 315.4125 94.3060546875 312.25 96.65 308 99.7 308 104.05 308 108.4 312.25 111.5 316.0728515625 114.2884765625 321.35 114.55 321.8267578125 114.1123046875 322.05 113.6 322.4 112.85 322.4 108.15 322.4 104.05 324.9 102.35 326.35 101.4 330.35 100.65 333.86640625 99.9560546875 335.25 98.9 334.3224609375 97.706640625 332.85 96.65 330.3228515625 94.776953125 327.15 94
M 329.7 98.5
Q 329.6 98.35 329.6 98.05
L 329.6 97.95 329.8 97.75 330.1 97.75 330.2 97.8 330.45 98.05 330.3 98.4 330.25 98.6 329.7 98.5
M 314.55 100
Q 314.9705078125 99.9158203125 315.3 100.05 316.442578125 100.2857421875 317.45 101.95 318.6 103.8 318.6 105.7 318.6 106.95 317.85 108.35 316.9 110.25 315.35 110.25 314.1 110.25 313.3 108.75 312.55 107.35 312.55 105.35 312.55 105.07734375 312.55 104.8 312.3181640625 104.7271484375 312.2 104.55 311.95 104.25 312.05 103.65
L 312.3 102.65 313 101.2
Q 313.6 100.4 314.55 100
M 319.65 111.25
Q 319.65 110.9 319.75 110.75 319.95 110.45 320.2 110.55
L 320.2 110.45 320.6 110.5
Q 320.9 110.6 321.05 110.8 321.15 111.15 320.9 111.45 320.6 111.75 320.5 111.95
L 319.75 111.85
Q 319.65 111.65 319.65 111.25 Z"/>
</g>

<g id="Layer1_0_MEMBER_0_FILL">
<path fill="#FCD0C7" stroke="none" d="
M 325.7 79.45
Q 325.5 79.35 324.9 78.75 323.7 77.7 321.75 77.8 320.7 77.85 318.45 78.6 314.8 79.8 313.45 81.35 312.85 81.95 312.75 82.75 312.6 83.6 313.15 84.05 313.45 84.35 314.2 84.45 315.65 84.65 318.2 84.3 321.1 83.9 322.25 83.95 323.05 83.95 325.1 84.3 326.9 84.6 327.95 84.55 329 84.45 329.4 84 329.95 83.35 329.5 82.35 329.2 81.75 328.4 81.05 327.35 80 326.5 79.7 325.95 79.6 325.7 79.45 Z"/>
</g>

<g id="Layer1_1_FILL">
<path fill="#000000" stroke="none" d="
M 345.55 229.85
Q 355.1 220.35 355.1 206.85 355.1 193.35 345.55 183.8 336.05 174.3 322.55 174.3 309.05 174.3 299.5 183.8 290 193.35 290 206.85 290 220.35 299.5 229.85 309.05 239.4 322.55 239.4 336.05 239.4 345.55 229.85
M 353.15 206.85
Q 353.15 219.6 344.1 228.6 335.1 237.65 322.35 237.65 309.6 237.65 300.55 228.6 291.55 219.6 291.55 206.85 291.55 194.1 300.55 185.05 309.6 176.05 322.35 176.05 335.1 176.05 344.1 185.05 353.15 194.1 353.15 206.85
M 343.65 227.3
Q 352.15 218.8 352.15 206.8 352.15 194.8 343.65 186.3 335.15 177.8 323.1 177.8 311.05 177.8 302.55 186.3 294.05 194.8 294.05 206.8 294.05 218.8 302.55 227.3 311.05 235.8 323.1 235.8 335.15 235.8 343.65 227.3
M 350.9 206.9
Q 350.9 218.5 342.7 226.65 334.55 234.85 322.95 234.85 311.35 234.85 303.15 226.65 295 218.5 295 206.9 295 195.3 303.15 187.1 311.35 178.95 322.95 178.95 334.55 178.95 342.7 187.1 350.9 195.3 350.9 206.9
M 340.1 223.65
Q 346.95 216.75 346.95 207 346.95 197.25 340.1 190.4 333.2 183.5 323.45 183.5 313.7 183.5 306.85 190.4 299.95 197.25 299.95 207 299.95 216.75 306.85 223.65 313.7 230.5 323.45 230.5 333.2 230.5 340.1 223.65
M 345.75 207.05
Q 345.75 216.3 339.2 222.85 332.65 229.4 323.4 229.4 314.15 229.4 307.6 222.85 301.05 216.3 301.05 207.05 301.05 197.8 307.6 191.25 314.15 184.7 323.4 184.7 332.65 184.7 339.2 191.25 345.75 197.8 345.75 207.05
M 338.85 222.4
Q 345.15 216 345.15 207.15 345.15 198.2 338.85 191.95 332.55 185.65 323.65 185.65 314.7 185.65 308.45 191.95 302.15 198.2 302.15 207.15 302.15 216 308.45 222.4 314.7 228.65 323.65 228.65 332.55 228.65 338.85 222.4
M 344 207.2
Q 344 215.65 338.05 221.65 332.05 227.6 323.6 227.6 315.15 227.6 309.1 221.65 303.1 215.65 303.1 207.2 303.1 198.75 309.1 192.7 315.15 186.7 323.6 186.7 332.05 186.7 338.05 192.7 344 198.75 344 207.2 Z"/>

<path fill="#E38171" stroke="none" d="
M 344.1 228.6
Q 353.15 219.6 353.15 206.85 353.15 194.1 344.1 185.05 335.1 176.05 322.35 176.05 309.6 176.05 300.55 185.05 291.55 194.1 291.55 206.85 291.55 219.6 300.55 228.6 309.6 237.65 322.35 237.65 335.1 237.65 344.1 228.6
M 352.15 206.8
Q 352.15 218.8 343.65 227.3 335.15 235.8 323.1 235.8 311.05 235.8 302.55 227.3 294.05 218.8 294.05 206.8 294.05 194.8 302.55 186.3 311.05 177.8 323.1 177.8 335.15 177.8 343.65 186.3 352.15 194.8 352.15 206.8 Z"/>

<path fill="#F9E0A0" stroke="none" d="
M 342.7 226.65
Q 350.9 218.5 350.9 206.9 350.9 195.3 342.7 187.1 334.55 178.95 322.95 178.95 311.35 178.95 303.15 187.1 295 195.3 295 206.9 295 218.5 303.15 226.65 311.35 234.85 322.95 234.85 334.55 234.85 342.7 226.65
M 346.95 207
Q 346.95 216.75 340.1 223.65 333.2 230.5 323.45 230.5 313.7 230.5 306.85 223.65 299.95 216.75 299.95 207 299.95 197.25 306.85 190.4 313.7 183.5 323.45 183.5 333.2 183.5 340.1 190.4 346.95 197.25 346.95 207 Z"/>

<path fill="#FCD0C7" stroke="none" d="
M 339.2 222.85
Q 345.75 216.3 345.75 207.05 345.75 197.8 339.2 191.25 332.65 184.7 323.4 184.7 314.15 184.7 307.6 191.25 301.05 197.8 301.05 207.05 301.05 216.3 307.6 222.85 314.15 229.4 323.4 229.4 332.65 229.4 339.2 222.85
M 345.15 207.15
Q 345.15 216 338.85 222.4 332.55 228.65 323.65 228.65 314.7 228.65 308.45 222.4 302.15 216 302.15 207.15 302.15 198.2 308.45 191.95 314.7 185.65 323.65 185.65 332.55 185.65 338.85 191.95 345.15 198.2 345.15 207.15 Z"/>

<path fill="url(#Gradient_2)" stroke="none" d="
M 338.05 221.65
Q 344 215.65 344 207.2 344 198.75 338.05 192.7 332.05 186.7 323.6 186.7 315.15 186.7 309.1 192.7 303.1 198.75 303.1 207.2 303.1 215.65 309.1 221.65 315.15 227.6 323.6 227.6 332.05 227.6 338.05 221.65
M 340.75 206.4
L 340.5 207.05
Q 342.15 211.2 341.2 215.3 340.8 217 339.85 218.5 337.95 221.5 334.9 223.3 333.95 223.85 332.75 224.1
L 327.7 224.55 325.9 225.4 326.6 225.55
Q 324.3 226.65 322.1 224.9 320.35 223.5 320.05 221.1 319.5 216.2 321.65 211.8 323.35 208.35 326.6 206.7 328 206.05 329.35 205.25 330.1 204.75 331 204.5 336.05 203.15 340.3 205.9 340.55 206.1 340.75 206.4
M 311.55 193.7
Q 312.4 193.25 313.4 193.15 309.8 196.1 307.5 200.45 306.4 202.65 306.05 204.8 305.25 212.4 309.55 218.7 310.85 220.5 312.25 222.25 309.25 221.25 307.55 218.45 304.2 212.75 304.6 206.25 304.75 204.15 305.4 202.1 306.7 197.9 309.85 194.7 310.6 194.05 311.55 193.7
M 320.6 189.45
Q 319.9 190.1 319.3 190.25 319.15 190.3 318.35 190.55
L 316.2 191.45
Q 315.7 191.75 315.45 191.8 315.1 191.95 314.7 191.8 315.05 190.85 316.4 190.1
L 317.7 189.45
Q 318.5 189 319.2 188.95 320.15 188.85 320.6 189.45 Z"/>

<path fill="#FEACA0" stroke="none" d="
M 319.3 190.25
Q 319.9 190.1 320.6 189.45 320.15 188.85 319.2 188.95 318.5 189 317.7 189.45
L 316.4 190.1
Q 315.05 190.85 314.7 191.8 315.1 191.95 315.45 191.8 315.7 191.75 316.2 191.45
L 318.35 190.55
Q 319.15 190.3 319.3 190.25
M 313.4 193.15
Q 312.4 193.25 311.55 193.7 310.6 194.05 309.85 194.7 306.7 197.9 305.4 202.1 304.75 204.15 304.6 206.25 304.2 212.75 307.55 218.45 309.25 221.25 312.25 222.25 310.85 220.5 309.55 218.7 305.25 212.4 306.05 204.8 306.4 202.65 307.5 200.45 309.8 196.1 313.4 193.15 Z"/>

<path fill="#F03B1E" stroke="none" d="
M 340.5 207.05
L 340.75 206.4
Q 340.55 206.1 340.3 205.9 336.05 203.15 331 204.5 330.1 204.75 329.35 205.25 328 206.05 326.6 206.7 323.35 208.35 321.65 211.8 319.5 216.2 320.05 221.1 320.35 223.5 322.1 224.9 324.3 226.65 326.6 225.55
L 325.9 225.4 327.7 224.55 332.75 224.1
Q 333.95 223.85 334.9 223.3 337.95 221.5 339.85 218.5 340.8 217 341.2 215.3 342.15 211.2 340.5 207.05 Z"/>
</g>

<g id="Layer1_2_FILL">
<path fill="#E38171" stroke="none" d="
M 196.15 36.65
Q 196.15 35.3 196.45 29.65 196.65 26.2 196.85 23.5
L 178.45 23.5
Q 177.4640625 31.030859375 176.35 41.75 175.5 49.55 173.9 65.05 173.6 68.05 173.4 69.1 173 70.95 172.35 75.15 172.3 75.55 170.5 85.6 168.75 96.1 168.75 99.35 168.75 107.6 175.65 112.85 182.1 117.75 191.1 117.75 197.76171875 117.75 203.7 111.8 197.8931640625 116.3 189.7 116.3 181.4 116.3 175.55 111.7 169.7 107.1 169.7 100.6 169.7 94.1 175.55 89.5 181.4 84.9 189.7 84.9 198 84.9 203.85 89.5 209.7 94.1 209.7 100.6 209.7 102.1037109375 209.35 103.5 210.15 101.3767578125 210.15 99.3 210.15 98.2 207.95 92.15 204.75 83.25 203.15 78.1 196.15 55.65 196.15 36.65
M 195.05 83.6
Q 197.9 84 200.25 85.9 200.95 86.5 201.7 87.15 192.25 82.65 181.75 84.85 187.8 81.8 195.05 83.6 Z"/>

<path fill="#000000" stroke="none" d="
M 200.25 85.9
Q 197.9 84 195.05 83.6 187.8 81.8 181.75 84.85 192.25 82.65 201.7 87.15 200.95 86.5 200.25 85.9
M 197.25 23.5
L 196.85 23.5
Q 196.65 26.2 196.45 29.65 196.15 35.3 196.15 36.65 196.15 55.65 203.15 78.1 204.75 83.25 207.95 92.15 210.15 98.2 210.15 99.3 210.15 101.3767578125 209.35 103.5 209.7 102.1037109375 209.7 100.6 209.7 94.1 203.85 89.5 198 84.9 189.7 84.9 181.4 84.9 175.55 89.5 169.7 94.1 169.7 100.6 169.7 107.1 175.55 111.7 181.4 116.3 189.7 116.3 197.8931640625 116.3 203.7 111.8 197.76171875 117.75 191.1 117.75 182.1 117.75 175.65 112.85 168.75 107.6 168.75 99.35 168.75 96.1 170.5 85.6 172.3 75.55 172.35 75.15 173 70.95 173.4 69.1 173.6 68.05 173.9 65.05 175.5 49.55 176.35 41.75 177.4640625 31.030859375 178.45 23.5
L 177.65 23.5
Q 177.349609375 24.30546875 177.15 24.65 177.05 25.15 174.6 45.85 171 76.2 168.6 89.65 167.1 97.95 167.1 98.1 167.1 106.1 172.4 112.3 178.65 119.6 189.3 119.6 197.7 119.6 204.75 113.2 211.65 106.95 211.65 99.9 211.65 93.4 209.45 87.95 206.3 81.6 204.55 77.05 197.7763671875 59.8337890625 197.25 23.5
M 176.25 90.4
Q 181.8 86.15 189.65 86.15 197.5 86.15 203.05 90.4 208.6 94.65 208.6 100.65 208.6 106.65 203.05 110.9 197.5 115.15 189.65 115.15 181.8 115.15 176.25 110.9 170.7 106.65 170.7 100.65 170.7 94.65 176.25 90.4
M 182.2 94.05
Q 182.1876953125 93.9376953125 182.1 93.85
L 181.75 93.9
Q 181.25 94.5 181.15 95.3 181.1 95.7 181.05 96.45 181.05 96.55 180.75 97.25
L 180.05 98.6
Q 179.55 99.65 179 99.95 178.45 100.25 178.35 100.35 178.17578125 100.5939453125 178.2 101 178.0171875 101.0984375 177.95 101.3 177.85 101.55 178.1 101.9 178.6 102.6 179.45 102.85 179.65 103.25 179.85 104
L 180.35 104.85 180.65 105.7 181 106.3
Q 181.05 106.55 181 107.15 180.95 107.75 181.1 108
L 181.75 108.1
Q 181.8859375 108.1 182 108.05 182.1333984375 108.1 182.3 108.1
L 184.6 108.25
Q 185.05 108.25 185.25 108.35 185.55 108.4 185.95 108.7 186.75 109.25 187.55 109.55 187.5 109.9 187.9 110.1 188.15 110.2 188.65 110.2 189.126953125 110.2 189.3 110.05 189.3376953125 110.194140625 189.4 110.35 189.8 110.5 190.25 110.15 190.4 110.1 190.95 109.5 191.8 108.75 194.05 108.55
L 196.3 108.35
Q 196.55 108.35 196.65 108.25 196.85 108.1 196.75 107.8
L 196.4 107.5
Q 196.45 107.466015625 196.45 107.4
L 197.15 105.25
Q 197.35 104.8 198.05 104
L 200 101.5 199.85 101.35
Q 199.9490234375 101.37890625 200.05 101.35 200.55 101.2 200.55 100.75 200.5 100.45 200.2 100.25 199.8 100.05 199.6 99.9 199.2 99.6 198.9 98.95
L 196.8 94.65
Q 196.7 94.25 196.5 94.2 196.3 94.1 196.1 94.25 195.96171875 94.319140625 195.9 94.4
L 195.85 94.45
Q 194.95 94.5 193.6 94.15
L 192.45 93.8
Q 191.9 93.6 191.1 93.05 189.8 92.2 189.8 91.4 189.6830078125 91.5169921875 189.6 91.65 189.24921875 91.4880859375 188.9 91.75 188.8 91.8 188.35 92.4 187.5 93.55 186.05 94.1 184.65 94.6 183.25 94.25 182.65 94.05 182.3 94.05 182.2626953125 94.05625 182.2 94.05
M 182 96.9
Q 181.95 95.7 182.05 95.1 182.081640625 95.0048828125 182.1 94.9 182.43984375 95.053125 182.9 95.15 184.15 95.35 186.75 95.35 186.75 95.15 187.2 95.05 187.3 95.05 187.8 94.65
L 189.35 93
Q 189.406640625 92.962109375 189.45 92.9 189.71171875 93.45859375 190.45 94 191.25 94.55 191.4 94.6 191.65 94.7 192.45 94.95
L 194.75 95.5 194.85 95.7 196.05 95.75
Q 196.4466796875 96.7921875 197.2 98.55 198.0751953125 100.6408203125 199.2 101.15 198.5330078125 101.2669921875 198 101.8 197.6 102.2 197.2 103
L 196.4 104.45
Q 195.9 105.4 195.85 105.75
L 195.7 106.35
Q 195.5626953125 106.8013671875 195.5 107.1 195.0921875 107.025390625 194.65 107.05 194.65 107.3 194.2 107.3 191.05 107.5 189.85 108.85 189.5302734375 109.1697265625 189.4 109.5 189.3185546875 109.3140625 189.1 109.15 187.85 108 186.95 107.55 185.6 106.95 182.3 107.05 182.287890625 107.1103515625 182.25 107.15 182.2236328125 107.106640625 182.2 107.05 182.2 107 182.05 106.05 181.9 104.75 181 103.4
L 180.55 102.75
Q 179.8845703125 101.8943359375 179.1 101.35 179.376953125 101.109375 179.95 100.6 180.3 100.3 180.8 99.5 181.9 97.9 182 96.9
M 183.5 96.25
Q 183.4787109375 96.2642578125 183.45 96.25 183.2548828125 96.2537109375 183.05 96.4 183.2 96.55 183.1 96.75
L 182.9 97.05
Q 182.8 97.25 182.85 97.75
L 182.05 99.4
Q 181.6 100.2 181.35 100.45 180.85 100.85 180.75 100.95 180.603515625 101.096484375 180.5 101.25 180.4857421875 101.2642578125 180.45 101.3 180.3 101.8 180.75 102.35
L 181.55 103.15
Q 181.75 103.35 181.95 103.85
L 182.15 104.25
Q 182.65 105.35 182.85 106.25
L 183.85 106.35
Q 183.9451171875 106.159765625 183.9 105.9
L 186 106.1 187.4 106.7
Q 188.15 107 188.45 107.4
L 188.65 107.8
Q 189.0728515625 108.5515625 189.9 108.3
L 190 108.3
Q 190.55 107.95 190.55 107.4 191.15 107.4 191.35 106.95 192 106.8 192.5 106.85
L 192.6 106.65
Q 192.9 106.6 194.05 106.7 194.95 106.75 195.4 106.45 195.3 106.15 194.7 105.85 194.6767578125 105.837109375 194.65 105.8 194.8755859375 105.129296875 195.3 104.25 195.9 102.95 196.45 102.5 196.75 102.2 197.45 101.75 197.7361328125 101.4638671875 197.85 101.2 198.1 101.15 198.15 100.9 198.0185546875 100.7685546875 197.9 100.65 197.8 100.35 197.6 100.3 197.3125 99.953125 197.2 99.7
L 196.95 99.15 196.4 98.45
Q 196.3 98 196.25 97.8
L 196.1 97.3 196 97.1
Q 196.1140625 97.021484375 196.2 97
L 195.95 96.4
Q 195.833203125 96.3765625 195.65 96.4
L 195.5 96
Q 195.35 95.85 195.25 96.1
L 195.25 96.4
Q 195.25 96.434765625 195.25 96.5
L 194.6 96.7
Q 194.3 96.75 193.6 96.65 192.5 96.45 192.2 96.25 191.7 96.05 190.9 95.25 190.6119140625 94.980078125 190.35 94.75 190.5072265625 94.62265625 190.65 94.45 190.4 93.95 189.7 94.15 189.35 94.25 188.85 94.75 187.9 95.55 186.8 95.85 186.2 96 185.55 96
L 184 96.15
Q 183.65 96.15 183.5 96.25
M 183.95 97.05
Q 184.01640625 96.9337890625 184 96.8 184.70234375 96.9 185.85 96.9
L 187.1 96.85
Q 187.5 96.8 188.1 96.5 188.9916015625 96.1037109375 189.8 95.3 190.4439453125 96.1232421875 191.25 96.55
L 191.9 96.9
Q 192.75 97.35 193.5 97.4
L 193.5 97.65
Q 193.75 97.65 194.3 97.7 194.85 97.8 195.1 97.7 195.1681640625 97.6830078125 195.25 97.6
L 195.45 97.95
Q 195.55 98.15 195.55 98.6
L 195.8 99.2 196.4 100.2
Q 196.5 100.35 196.7 100.7 196.766796875 100.766796875 196.8 100.8
L 194.85 102.85
Q 194.5 103.35 194.1 104.55
L 193.9 105.35
Q 193.9 105.4462890625 193.9 105.5 193.365234375 105.3935546875 192.8 105.45 192.4 105.5 191 105.95 190.2 106.25 189.85 106.65
L 189.5 107.2 189.5 107.2 189.3 106.7
Q 189.15 106.45 188.75 106.3 188.3 106.1 188.05 106 187.15 105.4 186.65 105.25
L 185.85 105.15 184.15 105.1
Q 183.8056640625 105.1 183.6 105.15 183.5044921875 104.9318359375 183.45 104.85
L 183.15 104.4 183.15 103.95
Q 182.95 103.6 182.85 103.4
L 182.7 103
Q 182.55 102.75 182.3 102.55
L 181.2 101.5 181.15 101.45
Q 181.85859375 101.1927734375 182.4 100.55 182.65 100.25 183.05 99.45
L 183.6 98.2
Q 183.5 97.8 183.55 97.6
L 183.95 97.05 Z"/>

<path fill="#F9E0A0" stroke="none" d="
M 189.65 86.15
Q 181.8 86.15 176.25 90.4 170.7 94.65 170.7 100.65 170.7 106.65 176.25 110.9 181.8 115.15 189.65 115.15 197.5 115.15 203.05 110.9 208.6 106.65 208.6 100.65 208.6 94.65 203.05 90.4 197.5 86.15 189.65 86.15
M 182.1 93.85
Q 182.1876953125 93.9376953125 182.2 94.05 182.2626953125 94.05625 182.3 94.05 182.65 94.05 183.25 94.25 184.65 94.6 186.05 94.1 187.5 93.55 188.35 92.4 188.8 91.8 188.9 91.75 189.24921875 91.4880859375 189.6 91.65 189.6830078125 91.5169921875 189.8 91.4 189.8 92.2 191.1 93.05 191.9 93.6 192.45 93.8
L 193.6 94.15
Q 194.95 94.5 195.85 94.45
L 195.9 94.4
Q 195.96171875 94.319140625 196.1 94.25 196.3 94.1 196.5 94.2 196.7 94.25 196.8 94.65
L 198.9 98.95
Q 199.2 99.6 199.6 99.9 199.8 100.05 200.2 100.25 200.5 100.45 200.55 100.75 200.55 101.2 200.05 101.35 199.9490234375 101.37890625 199.85 101.35
L 200 101.5 198.05 104
Q 197.35 104.8 197.15 105.25
L 196.45 107.4
Q 196.45 107.466015625 196.4 107.5
L 196.75 107.8
Q 196.85 108.1 196.65 108.25 196.55 108.35 196.3 108.35
L 194.05 108.55
Q 191.8 108.75 190.95 109.5 190.4 110.1 190.25 110.15 189.8 110.5 189.4 110.35 189.3376953125 110.194140625 189.3 110.05 189.126953125 110.2 188.65 110.2 188.15 110.2 187.9 110.1 187.5 109.9 187.55 109.55 186.75 109.25 185.95 108.7 185.55 108.4 185.25 108.35 185.05 108.25 184.6 108.25
L 182.3 108.1
Q 182.1333984375 108.1 182 108.05 181.8859375 108.1 181.75 108.1
L 181.1 108
Q 180.95 107.75 181 107.15 181.05 106.55 181 106.3
L 180.65 105.7 180.35 104.85 179.85 104
Q 179.65 103.25 179.45 102.85 178.6 102.6 178.1 101.9 177.85 101.55 177.95 101.3 178.0171875 101.0984375 178.2 101 178.17578125 100.5939453125 178.35 100.35 178.45 100.25 179 99.95 179.55 99.65 180.05 98.6
L 180.75 97.25
Q 181.05 96.55 181.05 96.45 181.1 95.7 181.15 95.3 181.25 94.5 181.75 93.9
L 182.1 93.85 Z"/>

<path fill="#FCD0C7" stroke="none" d="
M 182.05 95.1
Q 181.95 95.7 182 96.9 181.9 97.9 180.8 99.5 180.3 100.3 179.95 100.6 179.376953125 101.109375 179.1 101.35 179.8845703125 101.8943359375 180.55 102.75
L 181 103.4
Q 181.9 104.75 182.05 106.05 182.2 107 182.2 107.05 182.2236328125 107.106640625 182.25 107.15 182.287890625 107.1103515625 182.3 107.05 185.6 106.95 186.95 107.55 187.85 108 189.1 109.15 189.3185546875 109.3140625 189.4 109.5 189.5302734375 109.1697265625 189.85 108.85 191.05 107.5 194.2 107.3 194.65 107.3 194.65 107.05 195.0921875 107.025390625 195.5 107.1 195.5626953125 106.8013671875 195.7 106.35
L 195.85 105.75
Q 195.9 105.4 196.4 104.45
L 197.2 103
Q 197.6 102.2 198 101.8 198.5330078125 101.2669921875 199.2 101.15 198.0751953125 100.6408203125 197.2 98.55 196.4466796875 96.7921875 196.05 95.75
L 194.85 95.7 194.75 95.5 192.45 94.95
Q 191.65 94.7 191.4 94.6 191.25 94.55 190.45 94 189.71171875 93.45859375 189.45 92.9 189.406640625 92.962109375 189.35 93
L 187.8 94.65
Q 187.3 95.05 187.2 95.05 186.75 95.15 186.75 95.35 184.15 95.35 182.9 95.15 182.43984375 95.053125 182.1 94.9 182.081640625 95.0048828125 182.05 95.1
M 183.45 96.25
Q 183.4787109375 96.2642578125 183.5 96.25 183.65 96.15 184 96.15
L 185.55 96
Q 186.2 96 186.8 95.85 187.9 95.55 188.85 94.75 189.35 94.25 189.7 94.15 190.4 93.95 190.65 94.45 190.5072265625 94.62265625 190.35 94.75 190.6119140625 94.980078125 190.9 95.25 191.7 96.05 192.2 96.25 192.5 96.45 193.6 96.65 194.3 96.75 194.6 96.7
L 195.25 96.5
Q 195.25 96.434765625 195.25 96.4
L 195.25 96.1
Q 195.35 95.85 195.5 96
L 195.65 96.4
Q 195.833203125 96.3765625 195.95 96.4
L 196.2 97
Q 196.1140625 97.021484375 196 97.1
L 196.1 97.3 196.25 97.8
Q 196.3 98 196.4 98.45
L 196.95 99.15 197.2 99.7
Q 197.3125 99.953125 197.6 100.3 197.8 100.35 197.9 100.65 198.0185546875 100.7685546875 198.15 100.9 198.1 101.15 197.85 101.2 197.7361328125 101.4638671875 197.45 101.75 196.75 102.2 196.45 102.5 195.9 102.95 195.3 104.25 194.8755859375 105.129296875 194.65 105.8 194.6767578125 105.837109375 194.7 105.85 195.3 106.15 195.4 106.45 194.95 106.75 194.05 106.7 192.9 106.6 192.6 106.65
L 192.5 106.85
Q 192 106.8 191.35 106.95 191.15 107.4 190.55 107.4 190.55 107.95 190 108.3
L 189.9 108.3
Q 189.0728515625 108.5515625 188.65 107.8
L 188.45 107.4
Q 188.15 107 187.4 106.7
L 186 106.1 183.9 105.9
Q 183.9451171875 106.159765625 183.85 106.35
L 182.85 106.25
Q 182.65 105.35 182.15 104.25
L 181.95 103.85
Q 181.75 103.35 181.55 103.15
L 180.75 102.35
Q 180.3 101.8 180.45 101.3 180.4857421875 101.2642578125 180.5 101.25 180.603515625 101.096484375 180.75 100.95 180.85 100.85 181.35 100.45 181.6 100.2 182.05 99.4
L 182.85 97.75
Q 182.8 97.25 182.9 97.05
L 183.1 96.75
Q 183.2 96.55 183.05 96.4 183.2548828125 96.2537109375 183.45 96.25 Z"/>

<path fill="url(#Gradient_3)" stroke="none" d="
M 184 96.8
Q 184.01640625 96.9337890625 183.95 97.05
L 183.55 97.6
Q 183.5 97.8 183.6 98.2
L 183.05 99.45
Q 182.65 100.25 182.4 100.55 181.85859375 101.1927734375 181.15 101.45
L 181.2 101.5 182.3 102.55
Q 182.55 102.75 182.7 103
L 182.85 103.4
Q 182.95 103.6 183.15 103.95
L 183.15 104.4 183.45 104.85
Q 183.5044921875 104.9318359375 183.6 105.15 183.8056640625 105.1 184.15 105.1
L 185.85 105.15 186.65 105.25
Q 187.15 105.4 188.05 106 188.3 106.1 188.75 106.3 189.15 106.45 189.3 106.7
L 189.5 107.2 189.5 107.2 189.85 106.65
Q 190.2 106.25 191 105.95 192.4 105.5 192.8 105.45 193.365234375 105.3935546875 193.9 105.5 193.9 105.4462890625 193.9 105.35
L 194.1 104.55
Q 194.5 103.35 194.85 102.85
L 196.8 100.8
Q 196.766796875 100.766796875 196.7 100.7 196.5 100.35 196.4 100.2
L 195.8 99.2 195.55 98.6
Q 195.55 98.15 195.45 97.95
L 195.25 97.6
Q 195.1681640625 97.6830078125 195.1 97.7 194.85 97.8 194.3 97.7 193.75 97.65 193.5 97.65
L 193.5 97.4
Q 192.75 97.35 191.9 96.9
L 191.25 96.55
Q 190.4439453125 96.1232421875 189.8 95.3 188.9916015625 96.1037109375 188.1 96.5 187.5 96.8 187.1 96.85
L 185.85 96.9
Q 184.70234375 96.9 184 96.8
M 186.65 97.8
Q 186.7 97.6 187 97.5
L 187.9 97.15 187.9 97.05
Q 188.45 97.15 188.7 97.7
L 188.75 97.85 188.65 98
Q 188.55 98.45 188.35 98.6 188.25 98.7 188 98.7
L 187.2 98.7
Q 186.85 98.7 186.75 98.6 186.6 98.45 186.6 98.1
L 186.65 97.8
M 193.2 101.4
Q 193.2 101.35 193.35 101.2
L 193.7 100.85 193.85 100.85 193.95 100.75 194.25 101 194.35 101.05 194.35 101.35 194.25 101.5 193.8 101.9 193.4 101.9 193.35 101.8
Q 193.15 101.6 193.2 101.4
M 185.2 99.5
L 185 100.25
Q 184.95 100.35 184.75 100.7
L 184.3 101.45
Q 184 101.7 183.35 101.6 183.2 101.1 183.25 100.7
L 183.3 100.45 183.45 100.3 183.65 99.85
Q 184.05 98.95 185.05 98.8 185.3 99.1 185.2 99.5 Z"/>

<path fill="#FEACA0" stroke="none" d="
M 185 100.25
L 185.2 99.5
Q 185.3 99.1 185.05 98.8 184.05 98.95 183.65 99.85
L 183.45 100.3 183.3 100.45 183.25 100.7
Q 183.2 101.1 183.35 101.6 184 101.7 184.3 101.45
L 184.75 100.7
Q 184.95 100.35 185 100.25
M 193.35 101.2
Q 193.2 101.35 193.2 101.4 193.15 101.6 193.35 101.8
L 193.4 101.9 193.8 101.9 194.25 101.5 194.35 101.35 194.35 101.05 194.25 101 193.95 100.75 193.85 100.85 193.7 100.85 193.35 101.2
M 187 97.5
Q 186.7 97.6 186.65 97.8
L 186.6 98.1
Q 186.6 98.45 186.75 98.6 186.85 98.7 187.2 98.7
L 188 98.7
Q 188.25 98.7 188.35 98.6 188.55 98.45 188.65 98
L 188.75 97.85 188.7 97.7
Q 188.45 97.15 187.9 97.05
L 187.9 97.15 187 97.5 Z"/>
</g>

<g id="Layer1_2_MEMBER_0_FILL">
<path fill="#FCD0C7" stroke="none" d="
M 327.95 84.55
Q 329 84.45 329.4 84 329.95 83.35 329.5 82.35 329.2 81.75 328.4 81.05 327.35 80 326.5 79.7 325.95 79.6 325.7 79.45 325.5 79.35 324.9 78.75 323.7 77.7 321.75 77.8 320.7 77.85 318.45 78.6 314.8 79.8 313.45 81.35 312.85 81.95 312.75 82.75 312.6 83.6 313.15 84.05 313.45 84.35 314.2 84.45 315.65 84.65 318.2 84.3 321.1 83.9 322.25 83.95 323.05 83.95 325.1 84.3 326.9 84.6 327.95 84.55 Z"/>
</g>

<g id="Layer1_3_FILL">
<path fill="#000000" stroke="none" d="
M 197.4 171.85
Q 194.9 171.25 190.85 172.4 185.7 173.9 184.2 174 183.5 174.05 180.9 173.95 178.9 173.85 177.7 174.15 174.85 174.8 172 177.9 170.4 179.7 167.25 183.4 166.45 184.2 164.8 185.65 163.35 186.95 162.6 188.1 161.05 190.4 160.5 195.6 159.95 201.15 158.75 203.35 158.3474609375 204.0880859375 158.2 204.65 157.45859375 205.39453125 157.1 206.55 156.7 207.85 156.95 209.3 157.35 211.3 159.3 214.35 161.5 217.75 161.95 219.2 162.05 219.5 162.5 221.8 162.85 223.4 163.35 224.3 164.55 226.55 167.95 228.1 168.9 228.55 170.8 229.3 172.4 230.05 173.45 230.8 174.3 231.45 176.15 233.45 177.8 235.2 179 235.95 181.95 237.7 186.45 237.15 187.65 237 190.25 236.5 192.7 236.05 194.05 235.9 196.35 235.7 200.2 236.05 201.65 236.15 202.25 235.9 203.45 235.4 204.05 233.15 204.1435546875 232.8693359375 204.15 232.65 205.3181640625 231.416015625 206 230.7 207.75 228.8 209.25 227.9 210.85 226.9 214.5 225.4 217.6 223.9 218.6 221.85 219.3 220.4 219.25 217.65 219.15 214.3 219.35 213.25 219.7 211.65 221.85 208 223.75 204.8 223.7 202.7 223.7 200.5 221.75 197.55 219 193.5 218.65 192.7 218.25 191.8 217.6 189.35 217 187.25 216.35 186.1 215.1 183.9 211.95 181.85 208.3 179.75 206.6 178.5 203.7 175.9 202.25 174.65 199.65 172.4 197.4 171.85
M 177.75 175.9
Q 178.95 175.6 180.9 175.8 183.5 176 184.1 176 185.75 175.95 188 175.3 189.25 174.9 191.8 174.1 196.65 172.65 199.5 174.55 200.95 175.45 203.1 178.2 204.45 179.55 209.3 182.35 213.35 184.7 214.7 187.1 215.35 188.2 215.95 190.45 216.6 192.85 217.1 193.85 217.25 194.15 220.15 198.5 222 201.3 221.8 203.45 221.65 204.95 220.3 207.1 218.65 209.75 218.3 210.6 217.8 212 217.65 216.8 217.55 220.65 216 222.35 215.25 223.2 213.9 223.85 213.85 223.9 211.45 224.9 205.45 227.45 201.7 232.8 200.953125 233.7802734375 201.45 234.3
L 201.45 234.35
Q 194.65 233.5 188.1 234.85 185.35 235.4 184.95 235.45 183.15 235.65 181.8 235.25 180 234.75 177.85 232.6 174.9 229.7 174.25 229.2 173.25 228.45 171.6 227.7 169.7 226.9 168.75 226.45 165.25 224.75 164.35 222.35 164.1 221.65 163.9 220.45 163.7 218.95 163.6 218.5 163.1 216.7 161.1 214.1 159.05 211.3 158.6 209.7 158.2 208.45 158.4 207.2 158.5470703125 206.40546875 158.9 205.75 159.037109375 205.62421875 159.15 205.45 159.3302734375 205.2076171875 159.55 205 159.85 204.7 159.9 204.5 159.923828125 204.3091796875 159.8 204.2 160.872265625 201.8939453125 161.4 198.2 162.3 191.95 163.6 189.7 164.55 188 166.7 185.95 170.1 182.75 170.25 182.55 172.45 179.85 173.65 178.6 175.7 176.4 177.75 175.9
M 177.5 178.05
Q 176.4 178.5 174.95 180.15 171.65 183.8 168 187.1 165.55 189.35 164.85 190.6 164.15 191.9 163.95 194 163.8 195.15 163.6 197.55 163.2 200.65 161.95 203.3 161.35 204.5 161.15 205.15 160.8 206.3 160.85 207.5 160.91171875 207.3970703125 160.95 207.3 160.6791015625 210.7078125 162.65 213.75 163.05 214.35 164.5 216.05 165.65 217.45 166.15 218.45 166.55 219.15 167.3 221.35 167.95 223.15 168.65 224.05 169.6 225.25 171.5 226.2 172.6 226.75 174.85 227.65 177.4 228.85 179 230.3 180.55 231.6 181.05 231.8 181.85 232.15 183.2 232.05
L 197.4 231.9
Q 199.1 231.8 199.7 231 199.7658203125 230.92109375 199.8 230.8 200.4259765625 230.6181640625 201.25 230 205.7 226.8 211.05 223.45 213.0833984375 222.19296875 214.1 221.1
L 214.75 221.1
Q 214.78203125 220.624609375 214.8 220.15 214.8794921875 219.587109375 214.95 219 215.6255859375 213.4173828125 217.95 208.05
L 219 205.35
Q 219.45 203.55 219.1 201.75 218.8 199.9 217.7 198.45 216.35 196.9 215.8 196.05 215 194.8 214.2 191.55 213.45 188.45 212.4 187.15 211.3 185.8 208.8 184.6 205.3 182.95 204.75 182.55 203.75 181.85 202.35 180.5 200.55 178.75 200.05 178.35 196.95 175.8 194.3 176.2 193.85 176.3 193.7 176.45 193.56640625 176.621875 193.5 176.75 191.435546875 176.8234375 188.1 177.3 183.55 178 181.25 177.85 180 177.75 179.35 177.75 178.25 177.75 177.5 178.05
M 177.9 179.25
Q 178.85 178.85 180.25 178.8 180.5 178.8 182.65 178.95 186.45 179.1 193.15 177.85 194.5208984375 177.673046875 194.8 176.95 196.8474609375 177.019921875 198.95 178.85 199.6 179.4 201 180.8 202.3 182.15 203.1 182.75 204.05 183.4 205.55 184.15 206.4 184.6 208.1 185.4 211.3 187.1 212.35 189.1 212.8 190 213.2 191.8 213.6 193.75 213.9 194.5 214.35 195.65 215.75 197.55 217.2 199.55 217.65 200.6 218.55 202.8 218 205.1 217.65 206.4 216.45 208.85 215.25 211.5 214.4 216.55 214.0443359375 218.328125 213.95 219.6 211.0345703125 222.192578125 205.2 225.85 201.5298828125 228.0521484375 199.9 230.05 199.8662109375 229.8330078125 199.7 229.7 198.25 230.5 197.15 230.7 196.6 230.8 195.8 230.75 194.9 230.7 194.45 230.65 193.45 230.6 190.2 230.85 189 230.95 186.6 230.95
L 182.95 230.95
Q 182.1 230.95 181.7 230.8 181.2 230.65 180.1 229.65 178.65 228.3 176.45 227.2 175.15 226.55 172.35 225.35 170.65 224.65 169.95 224 169 223.15 168.3 221.3 167.2 218.25 167.15 218.2 166.6 217.1 165.3 215.55 163.75 213.7 163.3 213 162.15 211.2 161.85 209 161.5634765625 207.19921875 161.85 205.5 161.892578125 205.379296875 161.95 205.25 163.15 202.55 163.4 201.8 164.15 199.8 164.35 198.2 164.35 198.05 164.55 195.25 164.65 193.45 165.05 192.4 165.7 190.85 167.85 188.7
L 175.25 181.3
Q 176.95 179.6 177.9 179.25
M 182.1 195.65
Q 181.25 196.15 179.35 197.05 178.2 197.65 177.95 198.3 177.7 198.85 177.8 200.05 177.95 202.8 177.3 204.8 176.95 206.05 176.9 206.35 176.85 207.35 177.65 208.65 178.1 209.35 179 210.8 179.4 211.7 179.65 212.8
L 180.3 215.15
Q 181.6 215.05 183.5 216.35 184.7 217.15 185.15 217.7 185.5 218.05 186.05 218.85 187 219.6 188.05 219.3 188.2 219.05 188.65 218.95 191.05 218.4 193.45 218.85 193.95 218.95 194.3 218.9 194.8 218.8 194.9 218.35 194.8189453125 218.2171875 194.7 218.1 195.4380859375 217.0181640625 197.2 215.6 198.4 214.6 199.15 214.3 199.55 214.15 200.4 213.9 201.1 213.6 201.4 213.15 201.8 212.6 201.7 211.15 201.651953125 209.323828125 202.55 205.9
L 202.75 205.9 202.75 205.3
Q 202.75 204.98984375 202.7 204.8
L 202.75 204.8
Q 203.05 204.35 202.8 203.75 202.7 203.5 202.15 202.85 201.65 202.15 201.25 201.25
L 200.85 200.4
Q 200.45 199.6 200.45 199.15
L 200.5 198.65
Q 200.55 198.35 200.45 198.15 200.15 197.85 200.1 197.65 200.1 197.25 200.05 197.05 199.95 196.65 199.25 196.4 197.75 195.8 196.35 194.95 195.35 194.35 194.75 193.65
L 194.15 192.9
Q 193.55 192.2 192.95 191.95 192.55 191.7 192.15 191.7 191.65 191.65 190.75 191.85 189.3 192.15 187 192.15 185.6 192.15 185.1 192.6 184.725390625 192.9064453125 184.6 193.35 184.490234375 193.439453125 184.35 193.65 183.65 194.75 182.1 195.65
M 185.15 193.65
Q 185.5662109375 193.2765625 186.6 193.2 187.9 193.1 190.45 193.1 191.15 193.2 191.5 192.95 192 192.7 192.15 192.8
L 192.35 193.05
Q 192.8 193.6 193.4 193.6 193.3111328125 193.86640625 193.7 194.3 193.4474609375 194.25 193.1 194.25
L 187.4 194.2
Q 186.55 194.1 186 194.35 185.55 194.55 184.8 195.55 183.1626953125 197.7330078125 180.8 199.2 180.8185546875 199.1353515625 180.8 199.05
L 180.25 198.95
Q 180.25 199.2 180.05 199.1 180.4 199.45 180.5 200.6 180.5 202.25 180.4 203.05 180.2 204.05 179.9 204.75 179.8 205.05 179.6 205.6 179.55 205.95 179.5 206.6
L 179.15 207.3
Q 179.05 207.8 179.25 208.05
L 179.4 208
Q 179.62265625 208.540625 179.95 209.25
L 181.05 211.5
Q 181.75 212.85 182.45 213.3 182.8 213.55 183.4 213.7 185 214.35 186.05 215.45 186.75 216 186.9 216.05 187.15 216.15 187.45 215.95 187.4861328125 215.9283203125 187.5 215.9
L 190.6 216.2 191.05 216.35
Q 191.9 216.65 193.3 216.75 193.474609375 216.575390625 193.5 216.3 193.71796875 216.1978515625 194.3 215.75 195.3 215.1 195.4 215 195.65 214.5 195.7 214.45 196 214.1 196.55 214
L 198.25 213.45
Q 198.308203125 213.4330078125 198.35 213.4 195.73671875 214.881640625 193.85 217.25 193.7173828125 217.4109375 193.6 217.55 193.1623046875 217.45 192.55 217.45 189.8 217.45 188.45 217.75 187.4 217.9 187.2 217.8 186.85 217.65 186.45 217.15 184.35 214.65 181.15 214.1
L 180.05 210.5
Q 179.95 210.25 178.45 207.8 177.85 206.9 177.9 206.25
L 178.45 204.35
Q 178.9 202.4 178.65 200.25 178.55 199.5 178.7 199.1 178.9 198.7 179.7 198.2
L 181.2 197.4
Q 183.8 195.85 184.7 194.9 185.390234375 194.209765625 185.15 193.65
M 185.7 196.2
Q 186.2 195.5 186.6 195.3 186.8 195.2 187.7 195.2
L 193.3 195.45
Q 194.998828125 198.0453125 197.85 199.05 197.8904296875 199.5609375 198.15 200.2 199 202.6 200.2 205.25 199.2 207.75 198.85 209 198.3876953125 210.65625 198.35 212.05
L 195.75 213
Q 195.05 213.3 194.85 213.6 194.7 213.75 194.5 214.2
L 193.85 214.7
Q 193.26171875 215.0677734375 192.9 215.55 192.7806640625 215.5326171875 192.65 215.5 190.55 215.15 190.05 215.1 189.5 215.05 188.55 215.15 187.9564453125 215.2064453125 187.55 215.2 187.490625 215.140625 187.4 215.05 186.05 213.7 185.35 213.35 184.3 212.95 183.75 212.75 182.8 212.4 182.4 211.85 182.05 211.5 181.75 210.5 181.40390625 209.6099609375 179.95 207.55 180.4275390625 206.7515625 180.15 205.8 180.35 205.7 180.45 205.35 180.55 204.95 180.6 204.75
L 180.85 204.1
Q 180.95 203.85 181.05 202.6 181.05 200.4482421875 180.85 199.3 181.2875 199.73671875 181.95 199.5 182.35 199.4 183 198.85 185.05 197.05 185.7 196.2
M 194.65 195.2
Q 194.637109375 195.1779296875 194.6 195.15 195.2025390625 195.6380859375 195.85 196.05
L 197.75 197.05
Q 198.55 197.4 198.8 197.6 199.3 198.1 199.45 199
L 199.6 200.3
Q 199.8 200.9 200.25 201.75
L 202.1 204.8 202.2 204.8
Q 202.25 204.9 202.1 205.4
L 202.1 205.5
Q 202.026953125 205.573046875 201.95 205.65 201.8 205.75 201.55 206.25 200.75 208.5 200.8 210.9 200.9 211.75 200.6 212.15 200.4 212.45 199.7 212.75 199.96015625 212.51953125 200.05 212.25 199.7732421875 211.8349609375 199.25 211.8 199.728515625 209.3513671875 200.75 206.9 201.2 205.8 201.2 205.35 201.1 204.75 200.9 204.25
L 199.5 200.55
Q 198.75 198.75 198.25 198 198.1919921875 198.046484375 198.15 198.1 198.0998046875 198.0498046875 198.05 198 197.85 197.8 196.9 197.3 195.45 196.5 194.65 195.2 Z"/>

<path fill="#E38171" stroke="none" d="
M 180.9 175.8
Q 178.95 175.6 177.75 175.9 175.7 176.4 173.65 178.6 172.45 179.85 170.25 182.55 170.1 182.75 166.7 185.95 164.55 188 163.6 189.7 162.3 191.95 161.4 198.2 160.872265625 201.8939453125 159.8 204.2 159.923828125 204.3091796875 159.9 204.5 159.85 204.7 159.55 205 159.3302734375 205.2076171875 159.15 205.45 159.037109375 205.62421875 158.9 205.75 158.5470703125 206.40546875 158.4 207.2 158.2 208.45 158.6 209.7 159.05 211.3 161.1 214.1 163.1 216.7 163.6 218.5 163.7 218.95 163.9 220.45 164.1 221.65 164.35 222.35 165.25 224.75 168.75 226.45 169.7 226.9 171.6 227.7 173.25 228.45 174.25 229.2 174.9 229.7 177.85 232.6 180 234.75 181.8 235.25 183.15 235.65 184.95 235.45 185.35 235.4 188.1 234.85 194.65 233.5 201.45 234.35
L 201.45 234.3
Q 200.953125 233.7802734375 201.7 232.8 205.45 227.45 211.45 224.9 213.85 223.9 213.9 223.85 215.25 223.2 216 222.35 217.55 220.65 217.65 216.8 217.8 212 218.3 210.6 218.65 209.75 220.3 207.1 221.65 204.95 221.8 203.45 222 201.3 220.15 198.5 217.25 194.15 217.1 193.85 216.6 192.85 215.95 190.45 215.35 188.2 214.7 187.1 213.35 184.7 209.3 182.35 204.45 179.55 203.1 178.2 200.95 175.45 199.5 174.55 196.65 172.65 191.8 174.1 189.25 174.9 188 175.3 185.75 175.95 184.1 176 183.5 176 180.9 175.8
M 174.95 180.15
Q 176.4 178.5 177.5 178.05 178.25 177.75 179.35 177.75 180 177.75 181.25 177.85 183.55 178 188.1 177.3 191.435546875 176.8234375 193.5 176.75 193.56640625 176.621875 193.7 176.45 193.85 176.3 194.3 176.2 196.95 175.8 200.05 178.35 200.55 178.75 202.35 180.5 203.75 181.85 204.75 182.55 205.3 182.95 208.8 184.6 211.3 185.8 212.4 187.15 213.45 188.45 214.2 191.55 215 194.8 215.8 196.05 216.35 196.9 217.7 198.45 218.8 199.9 219.1 201.75 219.45 203.55 219 205.35
L 217.95 208.05
Q 215.6255859375 213.4173828125 214.95 219 214.8794921875 219.587109375 214.8 220.15 214.78203125 220.624609375 214.75 221.1
L 214.1 221.1
Q 213.0833984375 222.19296875 211.05 223.45 205.7 226.8 201.25 230 200.4259765625 230.6181640625 199.8 230.8 199.7658203125 230.92109375 199.7 231 199.1 231.8 197.4 231.9
L 183.2 232.05
Q 181.85 232.15 181.05 231.8 180.55 231.6 179 230.3 177.4 228.85 174.85 227.65 172.6 226.75 171.5 226.2 169.6 225.25 168.65 224.05 167.95 223.15 167.3 221.35 166.55 219.15 166.15 218.45 165.65 217.45 164.5 216.05 163.05 214.35 162.65 213.75 160.6791015625 210.7078125 160.95 207.3 160.91171875 207.3970703125 160.85 207.5 160.8 206.3 161.15 205.15 161.35 204.5 161.95 203.3 163.2 200.65 163.6 197.55 163.8 195.15 163.95 194 164.15 191.9 164.85 190.6 165.55 189.35 168 187.1 171.65 183.8 174.95 180.15 Z"/>

<path fill="#F9E0A0" stroke="none" d="
M 180.25 178.8
Q 178.85 178.85 177.9 179.25 176.95 179.6 175.25 181.3
L 167.85 188.7
Q 165.7 190.85 165.05 192.4 164.65 193.45 164.55 195.25 164.35 198.05 164.35 198.2 164.15 199.8 163.4 201.8 163.15 202.55 161.95 205.25 161.892578125 205.379296875 161.85 205.5 161.5634765625 207.19921875 161.85 209 162.15 211.2 163.3 213 163.75 213.7 165.3 215.55 166.6 217.1 167.15 218.2 167.2 218.25 168.3 221.3 169 223.15 169.95 224 170.65 224.65 172.35 225.35 175.15 226.55 176.45 227.2 178.65 228.3 180.1 229.65 181.2 230.65 181.7 230.8 182.1 230.95 182.95 230.95
L 186.6 230.95
Q 189 230.95 190.2 230.85 193.45 230.6 194.45 230.65 194.9 230.7 195.8 230.75 196.6 230.8 197.15 230.7 198.25 230.5 199.7 229.7 199.8662109375 229.8330078125 199.9 230.05 201.5298828125 228.0521484375 205.2 225.85 211.0345703125 222.192578125 213.95 219.6 214.0443359375 218.328125 214.4 216.55 215.25 211.5 216.45 208.85 217.65 206.4 218 205.1 218.55 202.8 217.65 200.6 217.2 199.55 215.75 197.55 214.35 195.65 213.9 194.5 213.6 193.75 213.2 191.8 212.8 190 212.35 189.1 211.3 187.1 208.1 185.4 206.4 184.6 205.55 184.15 204.05 183.4 203.1 182.75 202.3 182.15 201 180.8 199.6 179.4 198.95 178.85 196.8474609375 177.019921875 194.8 176.95 194.5208984375 177.673046875 193.15 177.85 186.45 179.1 182.65 178.95 180.5 178.8 180.25 178.8
M 179.35 197.05
Q 181.25 196.15 182.1 195.65 183.65 194.75 184.35 193.65 184.490234375 193.439453125 184.6 193.35 184.725390625 192.9064453125 185.1 192.6 185.6 192.15 187 192.15 189.3 192.15 190.75 191.85 191.65 191.65 192.15 191.7 192.55 191.7 192.95 191.95 193.55 192.2 194.15 192.9
L 194.75 193.65
Q 195.35 194.35 196.35 194.95 197.75 195.8 199.25 196.4 199.95 196.65 200.05 197.05 200.1 197.25 200.1 197.65 200.15 197.85 200.45 198.15 200.55 198.35 200.5 198.65
L 200.45 199.15
Q 200.45 199.6 200.85 200.4
L 201.25 201.25
Q 201.65 202.15 202.15 202.85 202.7 203.5 202.8 203.75 203.05 204.35 202.75 204.8
L 202.7 204.8
Q 202.75 204.98984375 202.75 205.3
L 202.75 205.9 202.55 205.9
Q 201.651953125 209.323828125 201.7 211.15 201.8 212.6 201.4 213.15 201.1 213.6 200.4 213.9 199.55 214.15 199.15 214.3 198.4 214.6 197.2 215.6 195.4380859375 217.0181640625 194.7 218.1 194.8189453125 218.2171875 194.9 218.35 194.8 218.8 194.3 218.9 193.95 218.95 193.45 218.85 191.05 218.4 188.65 218.95 188.2 219.05 188.05 219.3 187 219.6 186.05 218.85 185.5 218.05 185.15 217.7 184.7 217.15 183.5 216.35 181.6 215.05 180.3 215.15
L 179.65 212.8
Q 179.4 211.7 179 210.8 178.1 209.35 177.65 208.65 176.85 207.35 176.9 206.35 176.95 206.05 177.3 204.8 177.95 202.8 177.8 200.05 177.7 198.85 177.95 198.3 178.2 197.65 179.35 197.05 Z"/>

<path fill="url(#Gradient_4)" stroke="none" d="
M 186.6 195.3
Q 186.2 195.5 185.7 196.2 185.05 197.05 183 198.85 182.35 199.4 181.95 199.5 181.2875 199.73671875 180.85 199.3 181.05 200.4482421875 181.05 202.6 180.95 203.85 180.85 204.1
L 180.6 204.75
Q 180.55 204.95 180.45 205.35 180.35 205.7 180.15 205.8 180.4275390625 206.7515625 179.95 207.55 181.40390625 209.6099609375 181.75 210.5 182.05 211.5 182.4 211.85 182.8 212.4 183.75 212.75 184.3 212.95 185.35 213.35 186.05 213.7 187.4 215.05 187.490625 215.140625 187.55 215.2 187.9564453125 215.2064453125 188.55 215.15 189.5 215.05 190.05 215.1 190.55 215.15 192.65 215.5 192.7806640625 215.5326171875 192.9 215.55 193.26171875 215.0677734375 193.85 214.7
L 194.5 214.2
Q 194.7 213.75 194.85 213.6 195.05 213.3 195.75 213
L 198.35 212.05
Q 198.3876953125 210.65625 198.85 209 199.2 207.75 200.2 205.25 199 202.6 198.15 200.2 197.8904296875 199.5609375 197.85 199.05 194.998828125 198.0453125 193.3 195.45
L 187.7 195.2
Q 186.8 195.2 186.6 195.3
M 185.55 197.85
Q 185.5 197.7 185.75 197.25 185.85 197 186 196.9
L 186.25 196.8 186.65 196.75 187 196.8 187.25 196.95 187.5 197.35
Q 187.6 197.65 187.55 197.8
L 187.45 198.05 187.45 198.3
Q 187.4 198.6 187.05 198.7 186.5 198.95 185.95 198.6
L 185.8 198.4 185.75 198.15 185.55 197.85
M 183.05 200.3
Q 183.2 200.3 183.3 200.5 183.6 201.2 183.6 202 183.7 203.1 183.45 204.15
L 182.95 206.15
Q 182.55 207.35 182.5 207.45 182.2 207.95 181.85 208.05 181.65 208.15 181.4 208 181.2 207.9 181.15 207.65
L 181.25 207.3 182.15 204.9 182.15 204.15 182.4 203.45
Q 182.55 203.05 182.5 202 182.45 201.05 182.7 200.55 182.8 200.2 183.05 200.3 Z"/>

<path fill="#FCD0C7" stroke="none" d="
M 183.3 200.5
Q 183.2 200.3 183.05 200.3 182.8 200.2 182.7 200.55 182.45 201.05 182.5 202 182.55 203.05 182.4 203.45
L 182.15 204.15 182.15 204.9 181.25 207.3 181.15 207.65
Q 181.2 207.9 181.4 208 181.65 208.15 181.85 208.05 182.2 207.95 182.5 207.45 182.55 207.35 182.95 206.15
L 183.45 204.15
Q 183.7 203.1 183.6 202 183.6 201.2 183.3 200.5
M 185.75 197.25
Q 185.5 197.7 185.55 197.85
L 185.75 198.15 185.8 198.4 185.95 198.6
Q 186.5 198.95 187.05 198.7 187.4 198.6 187.45 198.3
L 187.45 198.05 187.55 197.8
Q 187.6 197.65 187.5 197.35
L 187.25 196.95 187 196.8 186.65 196.75 186.25 196.8 186 196.9
Q 185.85 197 185.75 197.25
M 186.6 193.2
Q 185.5662109375 193.2765625 185.15 193.65 185.390234375 194.209765625 184.7 194.9 183.8 195.85 181.2 197.4
L 179.7 198.2
Q 178.9 198.7 178.7 199.1 178.55 199.5 178.65 200.25 178.9 202.4 178.45 204.35
L 177.9 206.25
Q 177.85 206.9 178.45 207.8 179.95 210.25 180.05 210.5
L 181.15 214.1
Q 184.35 214.65 186.45 217.15 186.85 217.65 187.2 217.8 187.4 217.9 188.45 217.75 189.8 217.45 192.55 217.45 193.1623046875 217.45 193.6 217.55 193.7173828125 217.4109375 193.85 217.25 195.73671875 214.881640625 198.35 213.4 198.308203125 213.4330078125 198.25 213.45
L 196.55 214
Q 196 214.1 195.7 214.45 195.65 214.5 195.4 215 195.3 215.1 194.3 215.75 193.71796875 216.1978515625 193.5 216.3 193.474609375 216.575390625 193.3 216.75 191.9 216.65 191.05 216.35
L 190.6 216.2 187.5 215.9
Q 187.4861328125 215.9283203125 187.45 215.95 187.15 216.15 186.9 216.05 186.75 216 186.05 215.45 185 214.35 183.4 213.7 182.8 213.55 182.45 213.3 181.75 212.85 181.05 211.5
L 179.95 209.25
Q 179.62265625 208.540625 179.4 208
L 179.25 208.05
Q 179.05 207.8 179.15 207.3
L 179.5 206.6
Q 179.55 205.95 179.6 205.6 179.8 205.05 179.9 204.75 180.2 204.05 180.4 203.05 180.5 202.25 180.5 200.6 180.4 199.45 180.05 199.1 180.25 199.2 180.25 198.95
L 180.8 199.05
Q 180.8185546875 199.1353515625 180.8 199.2 183.1626953125 197.7330078125 184.8 195.55 185.55 194.55 186 194.35 186.55 194.1 187.4 194.2
L 193.1 194.25
Q 193.4474609375 194.25 193.7 194.3 193.3111328125 193.86640625 193.4 193.6 192.8 193.6 192.35 193.05
L 192.15 192.8
Q 192 192.7 191.5 192.95 191.15 193.2 190.45 193.1 187.9 193.1 186.6 193.2 Z"/>
</g>

<g id="Layer1_4_FILL">
<path fill="#E38171" stroke="none" d="
M 63.55 36.65
Q 63.55 35.3 63.85 29.65 64.05 26.2 64.25 23.5
L 45.85 23.5
Q 44.8640625 31.030859375 43.75 41.75 42.9 49.55 41.3 65.05 41 68.05 40.8 69.1 40.4 70.95 39.75 75.15 39.7 75.55 37.9 85.6 36.15 96.1 36.15 99.35 36.15 107.6 43.05 112.85 49.5 117.75 58.5 117.75 65.16171875 117.75 71.1 111.8 65.2931640625 116.3 57.1 116.3 48.8 116.3 42.95 111.7 37.1 107.1 37.1 100.6 37.1 94.1 42.95 89.5 48.8 84.9 57.1 84.9 65.4 84.9 71.25 89.5 77.1 94.1 77.1 100.6 77.1 102.1037109375 76.75 103.5 77.55 101.3767578125 77.55 99.3 77.55 98.2 75.35 92.15 72.15 83.25 70.55 78.1 63.55 55.65 63.55 36.65
M 62.45 83.6
Q 65.3 84 67.65 85.9 68.35 86.5 69.1 87.15 59.65 82.65 49.15 84.85 55.2 81.8 62.45 83.6 Z"/>

<path fill="#000000" stroke="none" d="
M 67.65 85.9
Q 65.3 84 62.45 83.6 55.2 81.8 49.15 84.85 59.65 82.65 69.1 87.15 68.35 86.5 67.65 85.9
M 64.65 23.5
L 64.25 23.5
Q 64.05 26.2 63.85 29.65 63.55 35.3 63.55 36.65 63.55 55.65 70.55 78.1 72.15 83.25 75.35 92.15 77.55 98.2 77.55 99.3 77.55 101.3767578125 76.75 103.5 77.1 102.1037109375 77.1 100.6 77.1 94.1 71.25 89.5 65.4 84.9 57.1 84.9 48.8 84.9 42.95 89.5 37.1 94.1 37.1 100.6 37.1 107.1 42.95 111.7 48.8 116.3 57.1 116.3 65.2931640625 116.3 71.1 111.8 65.16171875 117.75 58.5 117.75 49.5 117.75 43.05 112.85 36.15 107.6 36.15 99.35 36.15 96.1 37.9 85.6 39.7 75.55 39.75 75.15 40.4 70.95 40.8 69.1 41 68.05 41.3 65.05 42.9 49.55 43.75 41.75 44.8640625 31.030859375 45.85 23.5
L 45.05 23.5
Q 44.749609375 24.30546875 44.55 24.65 44.45 25.15 42 45.85 38.4 76.2 36 89.65 34.5 97.95 34.5 98.1 34.5 106.1 39.8 112.3 46.05 119.6 56.7 119.6 65.1 119.6 72.15 113.2 79.05 106.95 79.05 99.9 79.05 93.4 76.85 87.95 73.7 81.6 71.95 77.05 65.1763671875 59.8337890625 64.65 23.5
M 43.65 90.4
Q 49.2 86.15 57.05 86.15 64.9 86.15 70.45 90.4 76 94.65 76 100.65 76 106.65 70.45 110.9 64.9 115.15 57.05 115.15 49.2 115.15 43.65 110.9 38.1 106.65 38.1 100.65 38.1 94.65 43.65 90.4
M 57.3 91.1
Q 51.7 91.1 47.75 94.25 43.8 97.4 43.8 101.85 43.8 106.3 47.75 109.45 51.7 112.55 57.3 112.55 62.9 112.55 66.85 109.45 70.8 106.3 70.8 101.85 70.8 97.4 66.85 94.25 62.9 91.1 57.3 91.1
M 55.15 92.1
Q 56.141796875 92 57.2 92 62.5 92 66.25 94.8 69.9 97.65 69.9 101.7 69.9 105.7 66.25 108.55 62.5 111.4 57.2 111.4 51.9 111.4 48.2 108.55 44.45 105.7 44.45 101.7 44.45 97.65 48.2 94.8 51.161328125 92.558984375 55.15 92.1
M 57.3 92.3
Q 56.5818359375 92.3 55.9 92.35 55.546484375 92.1990234375 55.15 92.1 55.112109375 92.2640625 55.1 92.45 51.5142578125 92.928515625 48.8 95.1 45.3 97.85 45.3 101.8 45.3 105.8 48.8 108.6 52.3 111.35 57.3 111.35 62.25 111.35 65.75 108.6 69.3 105.8 69.3 101.8 69.3 97.85 65.75 95.1 64.8939453125 94.415234375 63.95 93.9
L 63.85 93.4
Q 63.4330078125 93.3375 63.05 93.45 60.4689453125 92.3 57.3 92.3
M 57.7 94.3
Q 57.3841796875 93.562890625 56.85 93.05 57.04140625 93.05 57.2 93.05 59.9341796875 93.05 62.2 93.9 62.0962890625 94.0037109375 62 94.1 61.4 94.65 60.85 95.8 59.9 97.7 59.9 99.1 60 100.95 61.4 102.55 62.65 104 64.45 104.8 65.891796875 105.4408203125 67.35 105.5 66.5662109375 106.7150390625 65.2 107.75 61.9 110.3 57.2 110.3 52.5 110.3 49.2 107.75 48.1458984375 106.96328125 47.4 106.05 48.3640625 106.315625 49.05 106.35 50.5 106.4 51.35 105.65 52 105.1 52.45 103.85 53.05 102.3 53.35 101.85 53.85 101 55.45 99.75 57 98.55 57.5 97.65 58.4 96 57.7 94.3
M 56.9 96.75
Q 56.55 97.6 55.75 98.25 55.6 98.4 54.25 99.35 53.3 100.05 52.85 100.6 52.5 101.1 52.15 101.95 51.95 102.45 51.6 103.35 50.85 105.1 49.6 105.5 48.45 105.8 46.8 104.85 46.7359375 104.9140625 46.65 104.95 45.85 103.471875 45.85 101.7 45.85 98.1 49.2 95.6 51.851171875 93.5513671875 55.4 93.15 55.544140625 93.3666015625 55.75 93.6 56.8 94.7 56.9 94.95 57.3 95.75 56.9 96.75
M 61.95 95.85
Q 62.5 94.811328125 63.1 94.3 64.2236328125 94.8455078125 65.2 95.6 68.5 98.1 68.5 101.7 68.5 103.390625 67.75 104.85 64.5830078125 103.9103515625 63.2 102.85 62 101.95 61.4 100.7 60.75 99.35 61 98 61.2 97.1 61.95 95.85
M 61.2 107.1
Q 61.75 106.15 61.7 105.35 61.7 105.2 61.3 104.3 60.95 103.45 60.5 102.85 59.8 101.95 58.55 101.75 57.3 101.55 56.3 102.1 55.9 102.35 54.85 103.4 53 105.45 52.9 106.8 52.85 107.5 53.2 108.1 53.5 108.75 54.1 109.05 54.45 109.25 55.6 109.35 57.7 109.35 58.4 109.15 60.15 108.7 61.2 107.1
M 58.3 102.8
Q 58.85 102.8 59.05 102.95 59.3 103.1 59.6 103.6
L 60.45 105.15
Q 60.65 105.45 60.65 105.7 60.65 105.95 60.4 106.2 59.5 107.6 58.45 107.95 57.9 108.1 56.8 108.1
L 55.45 108.1
Q 54.6 108.2 54.15 107.8 53.7 107.35 53.9 106.65 54 106.15 54.5 105.55
L 55.55 104.05
Q 56.2 103.2 56.6 103 57.1 102.7 58.3 102.8 Z"/>

<path fill="#F9E0A0" stroke="none" d="
M 57.05 86.15
Q 49.2 86.15 43.65 90.4 38.1 94.65 38.1 100.65 38.1 106.65 43.65 110.9 49.2 115.15 57.05 115.15 64.9 115.15 70.45 110.9 76 106.65 76 100.65 76 94.65 70.45 90.4 64.9 86.15 57.05 86.15
M 47.75 94.25
Q 51.7 91.1 57.3 91.1 62.9 91.1 66.85 94.25 70.8 97.4 70.8 101.85 70.8 106.3 66.85 109.45 62.9 112.55 57.3 112.55 51.7 112.55 47.75 109.45 43.8 106.3 43.8 101.85 43.8 97.4 47.75 94.25 Z"/>

<path fill="#FEACA0" stroke="none" d="
M 63.1 94.3
Q 62.5 94.811328125 61.95 95.85 61.2 97.1 61 98 60.75 99.35 61.4 100.7 62 101.95 63.2 102.85 64.5830078125 103.9103515625 67.75 104.85 68.5 103.390625 68.5 101.7 68.5 98.1 65.2 95.6 64.2236328125 94.8455078125 63.1 94.3
M 62.8 96.9
L 62.85 96.4
Q 63.05 96.1 63.3 96.25 63.2 96.15 63.45 96.15
L 64.3 96.15 64.75 96.25
Q 65.05 96.45 65.3 97.15
L 66 97.8
Q 66.1 98 66.1 98.45 66.1 98.9 66 99.05 65.95 99.2 65.65 99.4 65.45 99.6 65.2 99.65 64.9 99.75 64.55 99.55
L 63.85 99.35
Q 63.35 99.2 63.1 98.95 62.9 98.7 62.8 97.95
L 62.8 96.9
M 66.65 101
L 66.4 101.1 65.75 101.15
Q 65.6 101.1 65.6 100.9
L 65.55 100.6 65.6 99.9 65.65 99.8 65.8 99.7
Q 66 99.6 66.1 99.65
L 66.25 99.8
Q 66.8 100.35 66.8 100.45
L 66.8 100.7
Q 66.8 100.95 66.65 101
M 55.75 98.25
Q 56.55 97.6 56.9 96.75 57.3 95.75 56.9 94.95 56.8 94.7 55.75 93.6 55.544140625 93.3666015625 55.4 93.15 51.851171875 93.5513671875 49.2 95.6 45.85 98.1 45.85 101.7 45.85 103.471875 46.65 104.95 46.7359375 104.9140625 46.8 104.85 48.45 105.8 49.6 105.5 50.85 105.1 51.6 103.35 51.95 102.45 52.15 101.95 52.5 101.1 52.85 100.6 53.3 100.05 54.25 99.35 55.6 98.4 55.75 98.25
M 49.2 98.65
L 49.3 98.15
Q 49.45 97.8 49.65 97.85
L 49.65 97.75
Q 50.2 97.75 50.5 98.15 50.15 98.3 50.1 98.65
L 50.05 99.1
Q 50 99.2 49.8 99.5 49.65 99.7 49.65 99.85
L 49.05 99.95
Q 48.75 99.5 48.9 99.15 49.15 98.85 49.2 98.65
M 50.25 96.6
Q 50.25 96.2 50.45 95.95
L 50.85 95.65
Q 51.55 95 51.95 94.8 52.5 94.55 53.75 94.85 54.5 95.05 54.8 95.45 55 95.65 55.1 95.95 55.4 97.25 54.55 97.75 54.3 97.9 53.7 98.05
L 53.35 98.2 52.9 98.25
Q 51.6 98.15 50.85 98.15 50.3 97.05 50.25 96.6
M 59.05 102.95
Q 58.85 102.8 58.3 102.8 57.1 102.7 56.6 103 56.2 103.2 55.55 104.05
L 54.5 105.55
Q 54 106.15 53.9 106.65 53.7 107.35 54.15 107.8 54.6 108.2 55.45 108.1
L 56.8 108.1
Q 57.9 108.1 58.45 107.95 59.5 107.6 60.4 106.2 60.65 105.95 60.65 105.7 60.65 105.45 60.45 105.15
L 59.6 103.6
Q 59.3 103.1 59.05 102.95
M 57.25 103.95
Q 57.4 103.75 57.8 103.75
L 58.65 103.8 58.9 103.85
Q 59.2 103.95 59.2 104.5 59.2 104.95 59.1 105.1
L 58.85 105.45 58.65 106.1 57.6 106.05 57.3 106 57.3 106.55 57 106.85 56.65 106.85 56.25 106.45 56.15 106.3 56.1 106 56.2 105.75
Q 56.3 105.65 56.45 105.7
L 56.45 105.6 57 105.7 57 105.7
Q 56.95 105.556640625 56.95 105.3 56.9 105.15 57 104.8
L 57.25 103.95 Z"/>

<path fill="#F8EAE9" stroke="none" d="
M 66.4 101.1
L 66.65 101
Q 66.8 100.95 66.8 100.7
L 66.8 100.45
Q 66.8 100.35 66.25 99.8
L 66.1 99.65
Q 66 99.6 65.8 99.7
L 65.65 99.8 65.6 99.9 65.55 100.6 65.6 100.9
Q 65.6 101.1 65.75 101.15
L 66.4 101.1
M 62.85 96.4
L 62.8 96.9 62.8 97.95
Q 62.9 98.7 63.1 98.95 63.35 99.2 63.85 99.35
L 64.55 99.55
Q 64.9 99.75 65.2 99.65 65.45 99.6 65.65 99.4 65.95 99.2 66 99.05 66.1 98.9 66.1 98.45 66.1 98 66 97.8
L 65.3 97.15
Q 65.05 96.45 64.75 96.25
L 64.3 96.15 63.45 96.15
Q 63.2 96.15 63.3 96.25 63.05 96.1 62.85 96.4
M 50.45 95.95
Q 50.25 96.2 50.25 96.6 50.3 97.05 50.85 98.15 51.6 98.15 52.9 98.25
L 53.35 98.2 53.7 98.05
Q 54.3 97.9 54.55 97.75 55.4 97.25 55.1 95.95 55 95.65 54.8 95.45 54.5 95.05 53.75 94.85 52.5 94.55 51.95 94.8 51.55 95 50.85 95.65
L 50.45 95.95
M 49.3 98.15
L 49.2 98.65
Q 49.15 98.85 48.9 99.15 48.75 99.5 49.05 99.95
L 49.65 99.85
Q 49.65 99.7 49.8 99.5 50 99.2 50.05 99.1
L 50.1 98.65
Q 50.15 98.3 50.5 98.15 50.2 97.75 49.65 97.75
L 49.65 97.85
Q 49.45 97.8 49.3 98.15
M 57.8 103.75
Q 57.4 103.75 57.25 103.95
L 57 104.8
Q 56.9 105.15 56.95 105.3 56.95 105.556640625 57 105.7
L 57 105.7 56.45 105.6 56.45 105.7
Q 56.3 105.65 56.2 105.75
L 56.1 106 56.15 106.3 56.25 106.45 56.65 106.85 57 106.85 57.3 106.55 57.3 106 57.6 106.05 58.65 106.1 58.85 105.45 59.1 105.1
Q 59.2 104.95 59.2 104.5 59.2 103.95 58.9 103.85
L 58.65 103.8 57.8 103.75 Z"/>

<path fill="#930D0C" stroke="none" d="
M 56.85 93.05
Q 57.3841796875 93.562890625 57.7 94.3 58.4 96 57.5 97.65 57 98.55 55.45 99.75 53.85 101 53.35 101.85 53.05 102.3 52.45 103.85 52 105.1 51.35 105.65 50.5 106.4 49.05 106.35 48.3640625 106.315625 47.4 106.05 48.1458984375 106.96328125 49.2 107.75 52.5 110.3 57.2 110.3 61.9 110.3 65.2 107.75 66.5662109375 106.7150390625 67.35 105.5 65.891796875 105.4408203125 64.45 104.8 62.65 104 61.4 102.55 60 100.95 59.9 99.1 59.9 97.7 60.85 95.8 61.4 94.65 62 94.1 62.0962890625 94.0037109375 62.2 93.9 59.9341796875 93.05 57.2 93.05 57.04140625 93.05 56.85 93.05
M 61.7 105.35
Q 61.75 106.15 61.2 107.1 60.15 108.7 58.4 109.15 57.7 109.35 55.6 109.35 54.45 109.25 54.1 109.05 53.5 108.75 53.2 108.1 52.85 107.5 52.9 106.8 53 105.45 54.85 103.4 55.9 102.35 56.3 102.1 57.3 101.55 58.55 101.75 59.8 101.95 60.5 102.85 60.95 103.45 61.3 104.3 61.7 105.2 61.7 105.35 Z"/>

<path fill="#FCD0C7" stroke="none" d="
M 55.9 92.35
Q 56.5818359375 92.3 57.3 92.3 60.4689453125 92.3 63.05 93.45 63.4330078125 93.3375 63.85 93.4
L 63.95 93.9
Q 64.8939453125 94.415234375 65.75 95.1 69.3 97.85 69.3 101.8 69.3 105.8 65.75 108.6 62.25 111.35 57.3 111.35 52.3 111.35 48.8 108.6 45.3 105.8 45.3 101.8 45.3 97.85 48.8 95.1 51.5142578125 92.928515625 55.1 92.45 55.112109375 92.2640625 55.15 92.1 51.161328125 92.558984375 48.2 94.8 44.45 97.65 44.45 101.7 44.45 105.7 48.2 108.55 51.9 111.4 57.2 111.4 62.5 111.4 66.25 108.55 69.9 105.7 69.9 101.7 69.9 97.65 66.25 94.8 62.5 92 57.2 92 56.141796875 92 55.15 92.1 55.546484375 92.1990234375 55.9 92.35 Z"/>
</g>

<g id="Layer1_4_MEMBER_0_FILL">
<path fill="#FCD0C7" stroke="none" d="
M 327.95 84.55
Q 329 84.45 329.4 84 329.95 83.35 329.5 82.35 329.2 81.75 328.4 81.05 327.35 80 326.5 79.7 325.95 79.6 325.7 79.45 325.5 79.35 324.9 78.75 323.7 77.7 321.75 77.8 320.7 77.85 318.45 78.6 314.8 79.8 313.45 81.35 312.85 81.95 312.75 82.75 312.6 83.6 313.15 84.05 313.45 84.35 314.2 84.45 315.65 84.65 318.2 84.3 321.1 83.9 322.25 83.95 323.05 83.95 325.1 84.3 326.9 84.6 327.95 84.55 Z"/>
</g>

<g id="Layer1_5_FILL">
<path fill="#000000" stroke="none" d="
M 79.85 182.5
Q 70.55 173.2 57.4 173.2 44.25 173.2 34.95 182.5 25.65 191.75 25.65 204.9 25.65 218.05 34.95 227.35 44.25 236.6 57.4 236.6 70.55 236.6 79.85 227.35 89.15 218.05 89.15 204.9 89.15 191.75 79.85 182.5
M 57.3 175.1
Q 69.75 175.1 78.55 183.9 87.35 192.65 87.35 205.1 87.35 217.55 78.55 226.35 69.75 235.1 57.3 235.1 44.85 235.1 36.05 226.35 27.25 217.55 27.25 205.1 27.25 192.65 36.05 183.9 44.85 175.1 57.3 175.1
M 77.8 184.55
Q 69.35 176.1 57.4 176.1 45.45 176.1 37 184.55 28.55 192.95 28.55 204.9 28.55 216.85 37 225.3 45.45 233.7 57.4 233.7 69.35 233.7 77.8 225.3 86.25 216.85 86.25 204.9 86.25 192.95 77.8 184.55
M 57.1 177.45
Q 68.5 177.45 76.6 185.55 84.65 193.6 84.65 205 84.65 216.4 76.6 224.5 68.5 232.55 57.1 232.55 45.7 232.55 37.65 224.5 29.55 216.4 29.55 205 29.55 193.6 37.65 185.55 45.7 177.45 57.1 177.45
M 57.4 186.75
Q 49.9 186.75 44.6 192.1 39.25 197.4 39.25 204.9 39.25 212.4 44.6 217.75 49.9 223.05 57.4 223.05 64.9 223.05 70.25 217.75 75.55 212.4 75.55 204.9 75.55 197.4 70.25 192.1 64.9 186.75 57.4 186.75
M 45.2 192.85
Q 50.2 187.85 57.25 187.85 64.3 187.85 69.3 192.85 74.3 197.85 74.3 204.95 74.3 212.05 69.3 217.05 64.3 222.05 57.25 222.05 50.2 222.05 45.2 217.05 40.2 212.05 40.2 204.95 40.2 197.85 45.2 192.85
M 57.4 188.95
Q 50.8 188.95 46.15 193.65 41.45 198.3 41.45 204.9 41.45 211.5 46.15 216.2 50.8 220.85 57.4 220.85 64 220.85 68.7 216.2 73.35 211.5 73.35 204.9 73.35 198.3 68.7 193.65 64 188.95 57.4 188.95
M 46.9 194.15
Q 51.3 189.7 57.55 189.7 63.8 189.7 68.25 194.15 72.65 198.55 72.65 204.8 72.65 211.05 68.25 215.5 63.8 219.9 57.55 219.9 51.3 219.9 46.9 215.5 42.45 211.05 42.45 204.8 42.45 198.55 46.9 194.15 Z"/>

<path fill="#E38171" stroke="none" d="
M 78.55 183.9
Q 69.75 175.1 57.3 175.1 44.85 175.1 36.05 183.9 27.25 192.65 27.25 205.1 27.25 217.55 36.05 226.35 44.85 235.1 57.3 235.1 69.75 235.1 78.55 226.35 87.35 217.55 87.35 205.1 87.35 192.65 78.55 183.9
M 57.4 176.1
Q 69.35 176.1 77.8 184.55 86.25 192.95 86.25 204.9 86.25 216.85 77.8 225.3 69.35 233.7 57.4 233.7 45.45 233.7 37 225.3 28.55 216.85 28.55 204.9 28.55 192.95 37 184.55 45.45 176.1 57.4 176.1 Z"/>

<path fill="#F9E0A0" stroke="none" d="
M 76.6 185.55
Q 68.5 177.45 57.1 177.45 45.7 177.45 37.65 185.55 29.55 193.6 29.55 205 29.55 216.4 37.65 224.5 45.7 232.55 57.1 232.55 68.5 232.55 76.6 224.5 84.65 216.4 84.65 205 84.65 193.6 76.6 185.55
M 44.6 192.1
Q 49.9 186.75 57.4 186.75 64.9 186.75 70.25 192.1 75.55 197.4 75.55 204.9 75.55 212.4 70.25 217.75 64.9 223.05 57.4 223.05 49.9 223.05 44.6 217.75 39.25 212.4 39.25 204.9 39.25 197.4 44.6 192.1 Z"/>

<path fill="#FCD0C7" stroke="none" d="
M 57.25 187.85
Q 50.2 187.85 45.2 192.85 40.2 197.85 40.2 204.95 40.2 212.05 45.2 217.05 50.2 222.05 57.25 222.05 64.3 222.05 69.3 217.05 74.3 212.05 74.3 204.95 74.3 197.85 69.3 192.85 64.3 187.85 57.25 187.85
M 46.15 193.65
Q 50.8 188.95 57.4 188.95 64 188.95 68.7 193.65 73.35 198.3 73.35 204.9 73.35 211.5 68.7 216.2 64 220.85 57.4 220.85 50.8 220.85 46.15 216.2 41.45 211.5 41.45 204.9 41.45 198.3 46.15 193.65
M 54.3 193.95
Q 54.4 193.6 54.3 192.45 53.6 192.15 52.3 192.25
L 52.3 192.35
Q 52.05 192.35 51.85 192.55
L 51.55 193
Q 51.4 193.5 51.45 193.9 51.55 194.45 51.9 194.65 52.15 194.8 52.65 194.8
L 53.1 194.85 53.55 194.8
Q 53.95 194.75 54.15 194.35
L 54.3 193.95
M 48.85 197.25
Q 49.65 196.35 49.75 195.95 49.85 195.55 49.7 195.15 49.55 194.75 49.15 194.65 48.65 194.5 47.9 195.2 44.45 198.5 43.65 203.25 42.8 208.7 45.55 213.25 45.85 213.75 46.3 214.05 46.8 214.35 47.15 214.05 47.15 213.45 46.65 212.55 44.9 208.85 45.5 204.6 46.1 200.3 48.85 197.25 Z"/>

<path fill="url(#Gradient_5)" stroke="none" d="
M 57.55 189.7
Q 51.3 189.7 46.9 194.15 42.45 198.55 42.45 204.8 42.45 211.05 46.9 215.5 51.3 219.9 57.55 219.9 63.8 219.9 68.25 215.5 72.65 211.05 72.65 204.8 72.65 198.55 68.25 194.15 63.8 189.7 57.55 189.7
M 49.75 195.95
Q 49.65 196.35 48.85 197.25 46.1 200.3 45.5 204.6 44.9 208.85 46.65 212.55 47.15 213.45 47.15 214.05 46.8 214.35 46.3 214.05 45.85 213.75 45.55 213.25 42.8 208.7 43.65 203.25 44.45 198.5 47.9 195.2 48.65 194.5 49.15 194.65 49.55 194.75 49.7 195.15 49.85 195.55 49.75 195.95
M 54.3 192.45
Q 54.4 193.6 54.3 193.95
L 54.15 194.35
Q 53.95 194.75 53.55 194.8
L 53.1 194.85 52.65 194.8
Q 52.15 194.8 51.9 194.65 51.55 194.45 51.45 193.9 51.4 193.5 51.55 193
L 51.85 192.55
Q 52.05 192.35 52.3 192.35
L 52.3 192.25
Q 53.6 192.15 54.3 192.45
M 68.15 205.55
Q 69.15 206.55 69.4 208.05 69.65 209.5 69.15 210.95 68.5 213.05 65.95 215.75 64.1 217.7 62.7 218.25 60.35 219.3 58.05 218.05 55.75 216.85 55.25 214.35 55 213.4 55.2 211.85 55.55 209.05 57.45 206.6 58.55 205.2 59.7 204.7 60.75 204.2 62.7 204.1 66.55 203.9 68.15 205.55 Z"/>

<path fill="#F03B1E" stroke="none" d="
M 69.4 208.05
Q 69.15 206.55 68.15 205.55 66.55 203.9 62.7 204.1 60.75 204.2 59.7 204.7 58.55 205.2 57.45 206.6 55.55 209.05 55.2 211.85 55 213.4 55.25 214.35 55.75 216.85 58.05 218.05 60.35 219.3 62.7 218.25 64.1 217.7 65.95 215.75 68.5 213.05 69.15 210.95 69.65 209.5 69.4 208.05 Z"/>
</g>

<g id="Layer0_0_FILL">
<path fill="#000000" stroke="none" d="
M 253.9 116
L 252.05 116 252.05 125 253.9 125 253.9 116
M 257.7 118.65
Q 256.95 118.65 256.25 118.9 255.55 119.15 255 119.65
L 255.35 120.2 255.55 120.45
Q 255.7 120.55 255.85 120.55 256.1 120.55 256.25 120.5
L 256.55 120.3 256.95 120.15
Q 257.15 120.1 257.5 120.1 257.9 120.1 258.1 120.3 258.35 120.55 258.35 121.1
L 258.35 121.4
Q 257.25 121.4 256.55 121.6 255.85 121.8 255.45 122.05 255.05 122.35 254.85 122.7 254.7 123.05 254.7 123.4 254.7 123.8 254.85 124.1 254.95 124.45 255.2 124.65 255.45 124.85 255.8 125 256.15 125.1 256.55 125.1
L 257.15 125.05 257.65 124.9 258.1 124.65 258.55 124.3 258.7 124.65
Q 258.75 124.85 258.9 124.95 259.05 125 259.3 125
L 260.15 125 260.15 121.1
Q 260.15 120.6 260 120.15 259.8 119.7 259.5 119.35 259.2 119 258.75 118.85 258.3 118.65 257.7 118.65
M 256.85 122.75
Q 257.05 122.65 257.4 122.55
L 258.35 122.45 258.35 123.35
Q 258.05 123.6 257.8 123.75 257.5 123.85 257.15 123.85 256.85 123.85 256.65 123.75 256.5 123.6 256.5 123.3 256.5 123.15 256.55 123 256.65 122.85 256.85 122.75
M 250.75 118.8
L 248.85 118.8 248.85 125 250.75 125 250.75 118.8
M 248.7 117.05
Q 248.7 117.3 248.75 117.5 248.85 117.7 249 117.85 249.15 118 249.35 118.05 249.55 118.15 249.8 118.15 250 118.15 250.25 118.05 250.45 118 250.6 117.85 250.75 117.7 250.85 117.5 250.9 117.3 250.9 117.05 250.9 116.85 250.85 116.65 250.75 116.45 250.6 116.3 250.45 116.15 250.25 116.05 250 116 249.8 116 249.55 116 249.35 116.05 249.15 116.15 249 116.3 248.85 116.45 248.75 116.65 248.7 116.85 248.7 117.05
M 277.8 119.65
L 278.15 120.2 278.35 120.45
Q 278.5 120.55 278.65 120.55 278.9 120.55 279.05 120.5
L 279.35 120.3 279.75 120.15
Q 279.95 120.1 280.3 120.1 280.7 120.1 280.9 120.3 281.15 120.55 281.15 121.1
L 281.15 121.4
Q 280.05 121.4 279.35 121.6 278.65 121.8 278.25 122.05 277.85 122.35 277.65 122.7 277.5 123.05 277.5 123.4 277.5 123.8 277.65 124.1 277.75 124.45 278 124.65 278.25 124.85 278.6 125 278.95 125.1 279.35 125.1
L 279.95 125.05 280.45 124.9 280.9 124.65 281.35 124.3 281.5 124.65
Q 281.55 124.85 281.7 124.95 281.85 125 282.1 125
L 282.95 125 282.95 121.1
Q 282.95 120.6 282.8 120.15 282.6 119.7 282.3 119.35 282 119 281.55 118.85 281.1 118.65 280.5 118.65 279.75 118.65 279.05 118.9 278.35 119.15 277.8 119.65
M 279.65 122.75
Q 279.85 122.65 280.2 122.55
L 281.15 122.45 281.15 123.35
Q 280.85 123.6 280.6 123.75 280.3 123.85 279.95 123.85 279.65 123.85 279.45 123.75 279.3 123.6 279.3 123.3 279.3 123.15 279.35 123 279.45 122.85 279.65 122.75
M 279.75 117.5
L 280 117.55 280.65 117.85
Q 280.85 117.9 281.05 117.9 281.35 117.9 281.6 117.8 281.85 117.7 282.05 117.5 282.25 117.25 282.35 116.95 282.45 116.65 282.45 116.3
L 281.3 116.3
Q 281.3 116.55 281.25 116.6 281.15 116.7 281 116.7
L 280.1 116.3
Q 279.9 116.25 279.7 116.25 279.4 116.25 279.15 116.35 278.9 116.45 278.7 116.7 278.5 116.9 278.4 117.2 278.3 117.5 278.3 117.9
L 279.45 117.9
Q 279.45 117.65 279.55 117.55 279.6 117.5 279.75 117.5
M 272.6 119.6
Q 272.2 120.05 272 120.6 271.8 121.2 271.8 121.85 271.8 122.55 272 123.1 272.15 123.65 272.5 124.05 272.8 124.45 273.25 124.7 273.65 124.95 274.15 125.05
L 273.85 125.85 274.5 126
Q 274.65 126.05 274.65 126.2
L 274.6 126.3
Q 274.55 126.35 274.4 126.35
L 274.15 126.35 274 126.3
Q 273.85 126.3 273.8 126.5
L 273.6 127.05 274.5 127.15 275.15 127.05
Q 275.45 127 275.7 126.9 275.9 126.75 276 126.6 276.1 126.45 276.1 126.2
L 276.05 125.95 275.9 125.7 275.6 125.45 275.15 125.3 275.2 125.05 276.25 124.8 276.75 124.45
Q 277 124.3 277.25 124.05
L 276.7 123.35
Q 276.6 123.2 276.35 123.2 276.2 123.2 276.1 123.3
L 275.55 123.65
Q 275.35 123.75 275 123.75 274.4 123.75 274.05 123.25 273.7 122.75 273.7 121.85 273.7 121.45 273.8 121.1 273.85 120.75 274.05 120.55 274.2 120.3 274.45 120.2 274.7 120.05 275.05 120.05 275.3 120.05 275.5 120.1
L 276.05 120.4
Q 276.2 120.5 276.3 120.5 276.45 120.5 276.55 120.4
L 276.7 120.25 277.2 119.6
Q 276.75 119.15 276.2 118.9 275.65 118.7 274.9 118.7 274.15 118.7 273.55 118.95 273 119.2 272.6 119.6
M 263.6 120.05
L 265.15 120.05 265.15 118.8 263.6 118.8 263.6 116.95 262.6 116.95
Q 262.3 116.95 262.2 117.25
L 261.85 118.8 260.85 118.95 260.85 119.7
Q 260.85 119.9 260.95 119.95 261.05 120.05 261.2 120.05
L 261.75 120.05 261.75 123.3
Q 261.75 123.7 261.85 124.05 261.95 124.35 262.2 124.6 262.45 124.85 262.75 124.95 263.1 125.1 263.55 125.1 264.05 125.1 264.5 124.95 264.95 124.8 265.3 124.55
L 264.65 123.55 264.5 123.5 264.3 123.6 264.15 123.65 264 123.65
Q 263.8 123.65 263.7 123.5 263.6 123.35 263.6 123.15
L 263.6 120.05
M 265.8 119.65
L 266.15 120.2 266.35 120.45
Q 266.5 120.55 266.65 120.55 266.9 120.55 267.05 120.5
L 267.35 120.3 267.75 120.15
Q 267.95 120.1 268.3 120.1 268.7 120.1 268.9 120.3 269.15 120.55 269.15 121.1
L 269.15 121.4
Q 268.05 121.4 267.35 121.6 266.65 121.8 266.25 122.05 265.85 122.35 265.65 122.7 265.5 123.05 265.5 123.4 265.5 123.8 265.65 124.1 265.75 124.45 266 124.65 266.25 124.85 266.6 125 266.95 125.1 267.35 125.1
L 267.95 125.05 268.45 124.9 268.9 124.65 269.35 124.3 269.5 124.65
Q 269.55 124.85 269.7 124.95 269.85 125 270.1 125
L 270.95 125 270.95 121.1
Q 270.95 120.6 270.8 120.15 270.6 119.7 270.3 119.35 270 119 269.55 118.85 269.1 118.65 268.5 118.65 267.75 118.65 267.05 118.9 266.35 119.15 265.8 119.65
M 267.65 122.75
Q 267.85 122.65 268.2 122.55
L 269.15 122.45 269.15 123.35
Q 268.85 123.6 268.6 123.75 268.3 123.85 267.95 123.85 267.65 123.85 267.45 123.75 267.3 123.6 267.3 123.3 267.3 123.15 267.35 123 267.45 122.85 267.65 122.75
M 288.3 118.9
Q 287.7 118.7 287 118.7 286.3 118.7 285.7 118.9 285.1 119.15 284.7 119.55 284.25 119.95 284.05 120.55 283.8 121.15 283.8 121.85 283.8 122.6 284.05 123.2 284.25 123.8 284.7 124.25 285.1 124.65 285.7 124.85 286.3 125.1 287 125.1 287.7 125.1 288.3 124.85 288.85 124.65 289.3 124.25 289.7 123.8 289.95 123.2 290.15 122.6 290.15 121.85 290.15 121.15 289.95 120.55 289.7 119.95 289.3 119.55 288.85 119.15 288.3 118.9
M 287 120.05
Q 287.65 120.05 287.95 120.5 288.25 120.95 288.25 121.9 288.25 122.8 287.95 123.25 287.65 123.7 287 123.7 286.35 123.7 286.05 123.25 285.75 122.8 285.75 121.9 285.75 120.95 286.05 120.5 286.35 120.05 287 120.05
M 221.45 116.25
Q 221.2 116.25 221 116.4 220.85 116.55 220.8 116.7
L 218.9 122.05 218.7 122.8 216.55 116.7
Q 216.45 116.5 216.3 116.4 216.15 116.25 215.9 116.25
L 214.25 116.25 217.75 125 219.6 125 223.1 116.25 221.45 116.25
M 242.4 119.6
Q 242.05 120 241.85 120.6 241.65 121.2 241.65 121.9 241.65 122.65 241.85 123.25 242 123.85 242.3 124.25 242.6 124.65 243.05 124.9 243.45 125.1 243.95 125.1
L 244.5 125.05 245.05 124.85 245.85 124.2 246 124.7
Q 246.1 125 246.45 125
L 247.6 125 247.6 116 245.75 116 245.75 119.15
Q 245.5 118.95 245.15 118.8 244.8 118.65 244.35 118.65 243.75 118.65 243.25 118.9 242.75 119.15 242.4 119.6
M 244.8 120.05
Q 245.05 120.05 245.3 120.1 245.55 120.2 245.75 120.45
L 245.75 123.1 245.5 123.35 244.95 123.65 244.6 123.65
Q 244.35 123.65 244.15 123.6 244 123.5 243.85 123.3 243.75 123.05 243.65 122.75 243.6 122.4 243.6 121.9 243.6 121.4 243.7 121.05 243.8 120.7 243.95 120.45 244.1 120.25 244.3 120.15 244.55 120.05 244.8 120.05
M 236.6 118.9
Q 236 119.15 235.6 119.55 235.15 119.95 234.95 120.55 234.7 121.15 234.7 121.85 234.7 122.6 234.95 123.2 235.15 123.8 235.6 124.25 236 124.65 236.6 124.85 237.2 125.1 237.9 125.1 238.6 125.1 239.2 124.85 239.75 124.65 240.2 124.25 240.6 123.8 240.85 123.2 241.05 122.6 241.05 121.85 241.05 121.15 240.85 120.55 240.6 119.95 240.2 119.55 239.75 119.15 239.2 118.9 238.6 118.7 237.9 118.7 237.2 118.7 236.6 118.9
M 236.95 120.5
Q 237.25 120.05 237.9 120.05 238.55 120.05 238.85 120.5 239.15 120.95 239.15 121.9 239.15 122.8 238.85 123.25 238.55 123.7 237.9 123.7 237.25 123.7 236.95 123.25 236.65 122.8 236.65 121.9 236.65 120.95 236.95 120.5
M 232.6 118.75
L 231.95 118.7
Q 231.35 118.7 230.9 118.85 230.4 119 230.1 119.25 229.8 119.55 229.65 119.9 229.5 120.25 229.5 120.65 229.5 121.05 229.6 121.4 229.75 121.7 229.95 121.9 230.15 122.1 230.4 122.2
L 231.95 122.8 232.3 123
Q 232.4 123.1 232.4 123.3
L 232.35 123.5 232.25 123.7 232 123.8 231.6 123.85
Q 231.3 123.85 231.1 123.75
L 230.75 123.6 230.5 123.45
Q 230.35 123.4 230.2 123.4 230 123.4 229.9 123.45
L 229.7 123.65 229.3 124.35 229.7 124.65 230.9 125.05 231.55 125.1
Q 232.15 125.1 232.65 124.95 233.15 124.8 233.45 124.5 233.8 124.2 233.95 123.85 234.15 123.45 234.15 123 234.15 122.6 234 122.35 233.9 122.05 233.7 121.85 233.5 121.7 233.25 121.55
L 231.7 121 231.4 120.8
Q 231.25 120.7 231.25 120.5 231.25 120.25 231.45 120.15 231.65 120 232 120
L 232.45 120.05 232.75 120.15 233.05 120.3 233.3 120.35 233.55 120.3 233.7 120.15 234.1 119.5 233.7 119.15 233.2 118.9 232.6 118.75
M 225.35 120.15
Q 225.55 120.1 225.9 120.1 226.3 120.1 226.5 120.3 226.75 120.55 226.75 121.1
L 226.75 121.4
Q 225.65 121.4 224.95 121.6 224.25 121.8 223.85 122.05 223.45 122.35 223.25 122.7 223.1 123.05 223.1 123.4 223.1 123.8 223.25 124.1 223.35 124.45 223.6 124.65 223.85 124.85 224.2 125 224.55 125.1 224.95 125.1
L 225.55 125.05 226.05 124.9 226.5 124.65 226.95 124.3 227.1 124.65
Q 227.15 124.85 227.3 124.95 227.45 125 227.7 125
L 228.55 125 228.55 121.1
Q 228.55 120.6 228.4 120.15 228.2 119.7 227.9 119.35 227.6 119 227.15 118.85 226.7 118.65 226.1 118.65 225.35 118.65 224.65 118.9 223.95 119.15 223.4 119.65
L 223.75 120.2 223.95 120.45
Q 224.1 120.55 224.25 120.55 224.5 120.55 224.65 120.5
L 224.95 120.3 225.35 120.15
M 224.95 123
Q 225.05 122.85 225.25 122.75 225.45 122.65 225.8 122.55
L 226.75 122.45 226.75 123.35
Q 226.45 123.6 226.2 123.75 225.9 123.85 225.55 123.85 225.25 123.85 225.05 123.75 224.9 123.6 224.9 123.3 224.9 123.15 224.95 123 Z"/>
</g>

<g id="Layer0_1_FILL">
<path fill="#000000" stroke="none" d="
M 116.15 118.65
Q 115.4 118.65 114.7 118.9 114 119.15 113.45 119.65
L 113.8 120.2 114 120.45
Q 114.15 120.55 114.3 120.55 114.55 120.55 114.7 120.5
L 115 120.3 115.4 120.15
Q 115.6 120.1 115.95 120.1 116.35 120.1 116.55 120.3 116.8 120.55 116.8 121.1
L 116.8 121.4
Q 115.7 121.4 115 121.6 114.3 121.8 113.9 122.05 113.5 122.35 113.3 122.7 113.15 123.05 113.15 123.4 113.15 123.8 113.3 124.1 113.4 124.45 113.65 124.65 113.9 124.85 114.25 125 114.6 125.1 115 125.1
L 115.6 125.05 116.1 124.9 116.55 124.65 117 124.3 117.15 124.65
Q 117.2 124.85 117.35 124.95 117.5 125 117.75 125
L 118.6 125 118.6 121.1
Q 118.6 120.6 118.45 120.15 118.25 119.7 117.95 119.35 117.65 119 117.2 118.85 116.75 118.65 116.15 118.65
M 115.3 122.75
Q 115.5 122.65 115.85 122.55
L 116.8 122.45 116.8 123.35
Q 116.5 123.6 116.25 123.75 115.95 123.85 115.6 123.85 115.3 123.85 115.1 123.75 114.95 123.6 114.95 123.3 114.95 123.15 115 123 115.1 122.85 115.3 122.75
M 111.05 116.4
Q 110.9 116.55 110.85 116.7
L 108.95 122.05 108.75 122.8 106.6 116.7
Q 106.5 116.5 106.35 116.4 106.2 116.25 105.95 116.25
L 104.3 116.25 107.8 125 109.65 125 113.15 116.25 111.5 116.25
Q 111.25 116.25 111.05 116.4
M 135.4 120.1
L 135.95 120.4
Q 136.1 120.5 136.2 120.5 136.35 120.5 136.45 120.4
L 136.6 120.25 137.1 119.6
Q 136.65 119.15 136.1 118.9 135.55 118.7 134.8 118.7 134.05 118.7 133.45 118.95 132.9 119.2 132.5 119.6 132.1 120.05 131.9 120.6 131.7 121.2 131.7 121.85 131.7 122.65 131.95 123.25 132.15 123.85 132.55 124.25 132.95 124.65 133.45 124.9 134 125.1 134.55 125.1
L 135.2 125.05
Q 135.55 125 135.9 124.9 136.2 124.75 136.55 124.55 136.85 124.35 137.15 124.05
L 136.6 123.35
Q 136.5 123.2 136.25 123.2 136.1 123.2 136 123.3
L 135.45 123.65
Q 135.25 123.75 134.9 123.75 134.3 123.75 133.95 123.25 133.6 122.75 133.6 121.85 133.6 121.45 133.7 121.1 133.75 120.75 133.95 120.55 134.1 120.3 134.35 120.2 134.6 120.05 134.95 120.05 135.2 120.05 135.4 120.1
M 122.65 118.75
L 122 118.7
Q 121.4 118.7 120.95 118.85 120.45 119 120.15 119.25 119.85 119.55 119.7 119.9 119.55 120.25 119.55 120.65 119.55 121.05 119.65 121.4 119.8 121.7 120 121.9 120.2 122.1 120.45 122.2
L 122 122.8 122.35 123
Q 122.45 123.1 122.45 123.3
L 122.4 123.5 122.3 123.7 122.05 123.8 121.65 123.85
Q 121.35 123.85 121.15 123.75
L 120.8 123.6 120.55 123.45
Q 120.4 123.4 120.25 123.4 120.05 123.4 119.95 123.45
L 119.75 123.65 119.35 124.35 119.75 124.65 120.95 125.05 121.6 125.1
Q 122.2 125.1 122.7 124.95 123.2 124.8 123.5 124.5 123.85 124.2 124 123.85 124.2 123.45 124.2 123 124.2 122.6 124.05 122.35 123.95 122.05 123.75 121.85 123.55 121.7 123.3 121.55
L 121.75 121 121.45 120.8
Q 121.3 120.7 121.3 120.5 121.3 120.25 121.5 120.15 121.7 120 122.05 120
L 122.5 120.05 122.8 120.15 123.1 120.3 123.35 120.35 123.6 120.3 123.75 120.15 124.15 119.5 123.75 119.15 123.25 118.9 122.65 118.75
M 125.65 119.55
Q 125.2 119.95 125 120.55 124.75 121.15 124.75 121.85 124.75 122.6 125 123.2 125.2 123.8 125.65 124.25 126.05 124.65 126.65 124.85 127.25 125.1 127.95 125.1 128.65 125.1 129.25 124.85 129.8 124.65 130.25 124.25 130.65 123.8 130.9 123.2 131.1 122.6 131.1 121.85 131.1 121.15 130.9 120.55 130.65 119.95 130.25 119.55 129.8 119.15 129.25 118.9 128.65 118.7 127.95 118.7 127.25 118.7 126.65 118.9 126.05 119.15 125.65 119.55
M 127 120.5
Q 127.3 120.05 127.95 120.05 128.6 120.05 128.9 120.5 129.2 120.95 129.2 121.9 129.2 122.8 128.9 123.25 128.6 123.7 127.95 123.7 127.3 123.7 127 123.25 126.7 122.8 126.7 121.9 126.7 120.95 127 120.5
M 159.15 116.95
L 158.15 116.95
Q 157.85 116.95 157.75 117.25
L 157.4 118.8 156.4 118.95 156.4 119.7
Q 156.4 119.9 156.5 119.95 156.6 120.05 156.75 120.05
L 157.3 120.05 157.3 123.3
Q 157.3 123.7 157.4 124.05 157.5 124.35 157.75 124.6 158 124.85 158.3 124.95 158.65 125.1 159.1 125.1 159.6 125.1 160.05 124.95 160.5 124.8 160.85 124.55
L 160.2 123.55 160.05 123.5 159.85 123.6 159.7 123.65 159.55 123.65
Q 159.35 123.65 159.25 123.5 159.15 123.35 159.15 123.15
L 159.15 120.05 160.7 120.05 160.7 118.8 159.15 118.8 159.15 116.95
M 151.5 119.9
Q 151.35 120.25 151.35 120.65 151.35 121.05 151.45 121.4 151.6 121.7 151.8 121.9 152 122.1 152.25 122.2
L 153.8 122.8 154.15 123
Q 154.25 123.1 154.25 123.3
L 154.2 123.5 154.1 123.7 153.85 123.8 153.45 123.85
Q 153.15 123.85 152.95 123.75
L 152.6 123.6 152.35 123.45
Q 152.2 123.4 152.05 123.4 151.85 123.4 151.75 123.45
L 151.55 123.65 151.15 124.35 151.55 124.65 152.75 125.05 153.4 125.1
Q 154 125.1 154.5 124.95 155 124.8 155.3 124.5 155.65 124.2 155.8 123.85 156 123.45 156 123 156 122.6 155.85 122.35 155.75 122.05 155.55 121.85 155.35 121.7 155.1 121.55
L 153.55 121 153.25 120.8
Q 153.1 120.7 153.1 120.5 153.1 120.25 153.3 120.15 153.5 120 153.85 120
L 154.3 120.05 154.6 120.15 154.9 120.3 155.15 120.35 155.4 120.3 155.55 120.15 155.95 119.5 155.55 119.15 155.05 118.9 154.45 118.75 153.8 118.7
Q 153.2 118.7 152.75 118.85 152.25 119 151.95 119.25 151.65 119.55 151.5 119.9
M 143.65 123.2
Q 143.85 122.6 143.85 121.85 143.85 121.15 143.65 120.55 143.4 119.95 143 119.55 142.55 119.15 142 118.9 141.4 118.7 140.7 118.7 140 118.7 139.4 118.9 138.8 119.15 138.4 119.55 137.95 119.95 137.75 120.55 137.5 121.15 137.5 121.85 137.5 122.6 137.75 123.2 137.95 123.8 138.4 124.25 138.8 124.65 139.4 124.85 140 125.1 140.7 125.1 141.4 125.1 142 124.85 142.55 124.65 143 124.25 143.4 123.8 143.65 123.2
M 140.7 120.05
Q 141.35 120.05 141.65 120.5 141.95 120.95 141.95 121.9 141.95 122.8 141.65 123.25 141.35 123.7 140.7 123.7 140.05 123.7 139.75 123.25 139.45 122.8 139.45 121.9 139.45 120.95 139.75 120.5 140.05 120.05 140.7 120.05
M 145.95 118.8
L 144.8 118.8 144.8 125 146.65 125 146.65 120.55
Q 146.9 120.35 147.15 120.2 147.45 120.1 147.75 120.1 148.15 120.1 148.35 120.35 148.55 120.6 148.55 121.05
L 148.55 125 150.4 125 150.4 121.05
Q 150.4 120.55 150.3 120.1 150.15 119.65 149.85 119.35 149.6 119.05 149.2 118.85 148.8 118.7 148.3 118.7
L 147.75 118.75 147.3 118.9 146.85 119.15 146.5 119.45 146.4 119.1
Q 146.3 118.8 145.95 118.8
M 176.45 120.3
L 176.85 120.15
Q 177.05 120.1 177.4 120.1 177.8 120.1 178 120.3 178.25 120.55 178.25 121.1
L 178.25 121.4
Q 177.15 121.4 176.45 121.6 175.75 121.8 175.35 122.05 174.95 122.35 174.75 122.7 174.6 123.05 174.6 123.4 174.6 123.8 174.75 124.1 174.85 124.45 175.1 124.65 175.35 124.85 175.7 125 176.05 125.1 176.45 125.1
L 177.05 125.05 177.55 124.9 178 124.65 178.45 124.3 178.6 124.65
Q 178.65 124.85 178.8 124.95 178.95 125 179.2 125
L 180.05 125 180.05 121.1
Q 180.05 120.6 179.9 120.15 179.7 119.7 179.4 119.35 179.1 119 178.65 118.85 178.2 118.65 177.6 118.65 176.85 118.65 176.15 118.9 175.45 119.15 174.9 119.65
L 175.25 120.2 175.45 120.45
Q 175.6 120.55 175.75 120.55 176 120.55 176.15 120.5
L 176.45 120.3
M 176.45 123
Q 176.55 122.85 176.75 122.75 176.95 122.65 177.3 122.55
L 178.25 122.45 178.25 123.35
Q 177.95 123.6 177.7 123.75 177.4 123.85 177.05 123.85 176.75 123.85 176.55 123.75 176.4 123.6 176.4 123.3 176.4 123.15 176.45 123
M 178.1 116.7
L 177.2 116.3
Q 177 116.25 176.8 116.25 176.5 116.25 176.25 116.35 176 116.45 175.8 116.7 175.6 116.9 175.5 117.2 175.4 117.5 175.4 117.9
L 176.55 117.9
Q 176.55 117.65 176.65 117.55 176.7 117.5 176.85 117.5
L 177.1 117.55 177.75 117.85
Q 177.95 117.9 178.15 117.9 178.45 117.9 178.7 117.8 178.95 117.7 179.15 117.5 179.35 117.25 179.45 116.95 179.55 116.65 179.55 116.3
L 178.4 116.3
Q 178.4 116.55 178.35 116.6 178.25 116.7 178.1 116.7
M 167.95 118.8
L 166.05 118.8 166.05 125 167.95 125 167.95 118.8
M 171.15 120.55
Q 171.3 120.3 171.55 120.2 171.8 120.05 172.15 120.05 172.4 120.05 172.6 120.1
L 173.15 120.4
Q 173.3 120.5 173.4 120.5 173.55 120.5 173.65 120.4
L 173.8 120.25 174.3 119.6
Q 173.85 119.15 173.3 118.9 172.75 118.7 172 118.7 171.25 118.7 170.65 118.95 170.1 119.2 169.7 119.6 169.3 120.05 169.1 120.6 168.9 121.2 168.9 121.85 168.9 122.55 169.1 123.1 169.25 123.65 169.6 124.05 169.9 124.45 170.35 124.7 170.75 124.95 171.25 125.05
L 170.95 125.85 171.6 126
Q 171.75 126.05 171.75 126.2
L 171.7 126.3
Q 171.65 126.35 171.5 126.35
L 171.25 126.35 171.1 126.3
Q 170.95 126.3 170.9 126.5
L 170.7 127.05 171.6 127.15 172.25 127.05
Q 172.55 127 172.8 126.9 173 126.75 173.1 126.6 173.2 126.45 173.2 126.2
L 173.15 125.95 173 125.7 172.7 125.45 172.25 125.3 172.3 125.05 173.35 124.8 173.85 124.45
Q 174.1 124.3 174.35 124.05
L 173.8 123.35
Q 173.7 123.2 173.45 123.2 173.3 123.2 173.2 123.3
L 172.65 123.65
Q 172.45 123.75 172.1 123.75 171.5 123.75 171.15 123.25 170.8 122.75 170.8 121.85 170.8 121.45 170.9 121.1 170.95 120.75 171.15 120.55
M 164.75 120.45
L 165 120.45 165.2 120.4
Q 165.3 120.35 165.3 120.2
L 165.45 118.85
Q 165.15 118.65 164.75 118.65 164.25 118.65 163.9 118.95 163.5 119.25 163.2 119.75
L 163.05 119 162.95 118.9 162.8 118.8 161.5 118.8 161.5 125 163.35 125 163.35 121.2
Q 163.5 120.85 163.75 120.6 164 120.4 164.4 120.4
L 164.55 120.4 164.75 120.45
M 167.8 116.3
Q 167.65 116.15 167.45 116.05 167.2 116 167 116 166.75 116 166.55 116.05 166.35 116.15 166.2 116.3 166.05 116.45 165.95 116.65 165.9 116.85 165.9 117.05 165.9 117.3 165.95 117.5 166.05 117.7 166.2 117.85 166.35 118 166.55 118.05 166.75 118.15 167 118.15 167.2 118.15 167.45 118.05 167.65 118 167.8 117.85 167.95 117.7 168.05 117.5 168.1 117.3 168.1 117.05 168.1 116.85 168.05 116.65 167.95 116.45 167.8 116.3
M 186.4 119.55
Q 185.95 119.15 185.4 118.9 184.8 118.7 184.1 118.7 183.4 118.7 182.8 118.9 182.2 119.15 181.8 119.55 181.35 119.95 181.15 120.55 180.9 121.15 180.9 121.85 180.9 122.6 181.15 123.2 181.35 123.8 181.8 124.25 182.2 124.65 182.8 124.85 183.4 125.1 184.1 125.1 184.8 125.1 185.4 124.85 185.95 124.65 186.4 124.25 186.8 123.8 187.05 123.2 187.25 122.6 187.25 121.85 187.25 121.15 187.05 120.55 186.8 119.95 186.4 119.55
M 183.15 120.5
Q 183.45 120.05 184.1 120.05 184.75 120.05 185.05 120.5 185.35 120.95 185.35 121.9 185.35 122.8 185.05 123.25 184.75 123.7 184.1 123.7 183.45 123.7 183.15 123.25 182.85 122.8 182.85 121.9 182.85 120.95 183.15 120.5 Z"/>
</g>

<g id="Layer0_2_FILL">
<path fill="#000000" stroke="none" d="
M 17.75 116.25
L 16.1 116.25
Q 15.85 116.25 15.65 116.4 15.5 116.55 15.45 116.7
L 13.55 122.05 13.35 122.8 11.2 116.7
Q 11.1 116.5 10.95 116.4 10.8 116.25 10.55 116.25
L 8.9 116.25 12.4 125 14.25 125 17.75 116.25
M 30.25 119.55
Q 29.8 119.95 29.6 120.55 29.35 121.15 29.35 121.85 29.35 122.6 29.6 123.2 29.8 123.8 30.25 124.25 30.65 124.65 31.25 124.85 31.85 125.1 32.55 125.1 33.25 125.1 33.85 124.85 34.4 124.65 34.85 124.25 35.25 123.8 35.5 123.2 35.7 122.6 35.7 121.85 35.7 121.15 35.5 120.55 35.25 119.95 34.85 119.55 34.4 119.15 33.85 118.9 33.25 118.7 32.55 118.7 31.85 118.7 31.25 118.9 30.65 119.15 30.25 119.55
M 31.6 120.5
Q 31.9 120.05 32.55 120.05 33.2 120.05 33.5 120.5 33.8 120.95 33.8 121.9 33.8 122.8 33.5 123.25 33.2 123.7 32.55 123.7 31.9 123.7 31.6 123.25 31.3 122.8 31.3 121.9 31.3 120.95 31.6 120.5
M 21.8 118.85
Q 21.35 118.65 20.75 118.65 20 118.65 19.3 118.9 18.6 119.15 18.05 119.65
L 18.4 120.2 18.6 120.45
Q 18.75 120.55 18.9 120.55 19.15 120.55 19.3 120.5
L 19.6 120.3 20 120.15
Q 20.2 120.1 20.55 120.1 20.95 120.1 21.15 120.3 21.4 120.55 21.4 121.1
L 21.4 121.4
Q 20.3 121.4 19.6 121.6 18.9 121.8 18.5 122.05 18.1 122.35 17.9 122.7 17.75 123.05 17.75 123.4 17.75 123.8 17.9 124.1 18 124.45 18.25 124.65 18.5 124.85 18.85 125 19.2 125.1 19.6 125.1
L 20.2 125.05 20.7 124.9 21.15 124.65 21.6 124.3 21.75 124.65
Q 21.8 124.85 21.95 124.95 22.1 125 22.35 125
L 23.2 125 23.2 121.1
Q 23.2 120.6 23.05 120.15 22.85 119.7 22.55 119.35 22.25 119 21.8 118.85
M 20.45 122.55
L 21.4 122.45 21.4 123.35
Q 21.1 123.6 20.85 123.75 20.55 123.85 20.2 123.85 19.9 123.85 19.7 123.75 19.55 123.6 19.55 123.3 19.55 123.15 19.6 123 19.7 122.85 19.9 122.75 20.1 122.65 20.45 122.55
M 24.3 119.9
Q 24.15 120.25 24.15 120.65 24.15 121.05 24.25 121.4 24.4 121.7 24.6 121.9 24.8 122.1 25.05 122.2
L 26.6 122.8 26.95 123
Q 27.05 123.1 27.05 123.3
L 27 123.5 26.9 123.7 26.65 123.8 26.25 123.85
Q 25.95 123.85 25.75 123.75
L 25.4 123.6 25.15 123.45
Q 25 123.4 24.85 123.4 24.65 123.4 24.55 123.45
L 24.35 123.65 23.95 124.35 24.35 124.65 25.55 125.05 26.2 125.1
Q 26.8 125.1 27.3 124.95 27.8 124.8 28.1 124.5 28.45 124.2 28.6 123.85 28.8 123.45 28.8 123 28.8 122.6 28.65 122.35 28.55 122.05 28.35 121.85 28.15 121.7 27.9 121.55
L 26.35 121 26.05 120.8
Q 25.9 120.7 25.9 120.5 25.9 120.25 26.1 120.15 26.3 120 26.65 120
L 27.1 120.05 27.4 120.15 27.7 120.3 27.95 120.35 28.2 120.3 28.35 120.15 28.75 119.5 28.35 119.15 27.85 118.9 27.25 118.75 26.6 118.7
Q 26 118.7 25.55 118.85 25.05 119 24.75 119.25 24.45 119.55 24.3 119.9
M 54.85 119.75
L 54.7 119 54.6 118.9 54.45 118.8 53.15 118.8 53.15 125 55 125 55 121.2
Q 55.15 120.85 55.4 120.6 55.65 120.4 56.05 120.4
L 56.2 120.4 56.4 120.45 56.65 120.45 56.85 120.4
Q 56.95 120.35 56.95 120.2
L 57.1 118.85
Q 56.8 118.65 56.4 118.65 55.9 118.65 55.55 118.95 55.15 119.25 54.85 119.75
M 50.35 118.9
Q 49.75 118.7 49.05 118.7 48.35 118.7 47.75 118.9 47.15 119.15 46.75 119.55 46.3 119.95 46.1 120.55 45.85 121.15 45.85 121.85 45.85 122.6 46.1 123.2 46.3 123.8 46.75 124.25 47.15 124.65 47.75 124.85 48.35 125.1 49.05 125.1 49.75 125.1 50.35 124.85 50.9 124.65 51.35 124.25 51.75 123.8 52 123.2 52.2 122.6 52.2 121.85 52.2 121.15 52 120.55 51.75 119.95 51.35 119.55 50.9 119.15 50.35 118.9
M 48.1 120.5
Q 48.4 120.05 49.05 120.05 49.7 120.05 50 120.5 50.3 120.95 50.3 121.9 50.3 122.8 50 123.25 49.7 123.7 49.05 123.7 48.4 123.7 48.1 123.25 47.8 122.8 47.8 121.9 47.8 120.95 48.1 120.5
M 44.9 120.1
Q 44.75 119.65 44.45 119.35 44.2 119.05 43.8 118.85 43.4 118.7 42.9 118.7
L 42.35 118.75 41.9 118.9 41.45 119.15 41.1 119.45 41 119.1
Q 40.9 118.8 40.55 118.8
L 39.4 118.8 39.4 125 41.25 125 41.25 120.55
Q 41.5 120.35 41.75 120.2 42.05 120.1 42.35 120.1 42.75 120.1 42.95 120.35 43.15 120.6 43.15 121.05
L 43.15 125 45 125 45 121.05
Q 45 120.55 44.9 120.1
M 75.95 116
L 74.1 116 74.1 125 75.95 125 75.95 116
M 69 120.5
L 69.3 120.3 69.7 120.15
Q 69.9 120.1 70.25 120.1 70.65 120.1 70.85 120.3 71.1 120.55 71.1 121.1
L 71.1 121.4
Q 70 121.4 69.3 121.6 68.6 121.8 68.2 122.05 67.8 122.35 67.6 122.7 67.45 123.05 67.45 123.4 67.45 123.8 67.6 124.1 67.7 124.45 67.95 124.65 68.2 124.85 68.55 125 68.9 125.1 69.3 125.1
L 69.9 125.05 70.4 124.9 70.85 124.65 71.3 124.3 71.45 124.65
Q 71.5 124.85 71.65 124.95 71.8 125 72.05 125
L 72.9 125 72.9 121.1
Q 72.9 120.6 72.75 120.15 72.55 119.7 72.25 119.35 71.95 119 71.5 118.85 71.05 118.65 70.45 118.65 69.7 118.65 69 118.9 68.3 119.15 67.75 119.65
L 68.1 120.2 68.3 120.45
Q 68.45 120.55 68.6 120.55 68.85 120.55 69 120.5
M 69.6 122.75
Q 69.8 122.65 70.15 122.55
L 71.1 122.45 71.1 123.35
Q 70.8 123.6 70.55 123.75 70.25 123.85 69.9 123.85 69.6 123.85 69.4 123.75 69.25 123.6 69.25 123.3 69.25 123.15 69.3 123 69.4 122.85 69.6 122.75
M 63.9 118.75
Q 63.6 118.8 63.35 118.95 63.1 119.05 62.85 119.25 62.65 119.45 62.5 119.75 62.3 119.25 61.95 118.95 61.55 118.7 61 118.7
L 60.5 118.75 60.1 118.9 59.7 119.15 59.4 119.45 59.3 119.1
Q 59.2 118.8 58.85 118.8
L 57.7 118.8 57.7 125 59.55 125 59.55 120.5
Q 59.75 120.3 59.95 120.2 60.2 120.1 60.45 120.1 60.85 120.1 61.05 120.3 61.25 120.5 61.25 121.05
L 61.25 125 63.15 125 63.15 121.05
Q 63.15 120.6 63.4 120.35 63.6 120.1 64 120.1 64.85 120.1 64.85 121.05
L 64.85 125 66.7 125 66.7 121.05
Q 66.7 120.5 66.55 120.05 66.4 119.6 66.15 119.3 65.85 119 65.45 118.85 65 118.7 64.5 118.7
L 63.9 118.75 Z"/>
</g>
</defs>

<g transform="matrix( 1, 0, 0, 1, -69.95,-20.5) ">
<use xlink:href="#Layer1_0_FILL"/>
</g>

<g transform="matrix( 1, 0, 0, 1, -69.95,-20.5) ">
<use xlink:href="#Layer1_0_MEMBER_0_FILL"/>
</g>

<g transform="matrix( 1, 0, 0, 1, -70.1,-28.5) ">
<use xlink:href="#Layer1_1_FILL"/>
</g>

<g transform="matrix( 1, 0, 0, 1, -44.35,-20.5) ">
<use xlink:href="#Layer1_2_FILL"/>
</g>

<g transform="matrix( 1, 0, 0, 1, -174.65,-23.15) ">
<use xlink:href="#Layer1_2_MEMBER_0_FILL"/>
</g>

<g transform="matrix( 1, 0, 0, 1, -45.25,-28.5) ">
<use xlink:href="#Layer1_3_FILL"/>
</g>

<g transform="matrix( 1, 0, 0, 1, -13.95,-20.5) ">
<use xlink:href="#Layer1_4_FILL"/>
</g>

<g transform="matrix( 1, 0, 0, 1, -277.6,-22.75) ">
<use xlink:href="#Layer1_4_MEMBER_0_FILL"/>
</g>

<g transform="matrix( 1, 0, 0, 1, -14.6,-28.5) ">
<use xlink:href="#Layer1_5_FILL"/>
</g>

<g transform="matrix( 1, 0, 0, 1, 0,0) ">
<use xlink:href="#Layer0_0_FILL"/>
</g>

<g transform="matrix( 1, 0, 0, 1, 0,0) ">
<use xlink:href="#Layer0_1_FILL"/>
</g>

<g transform="matrix( 1, 0, 0, 1, 0,0) ">
<use xlink:href="#Layer0_2_FILL"/>
</g>
</svg>
