
<svg xmlns="http://www.w3.org/2000/svg" version="1.1" xmlns:xlink="http://www.w3.org/1999/xlink" preserveAspectRatio="none" x="0px" y="0px" width="149px" height="152px" viewBox="0 0 149 152">
<defs>
<g id="Layer0_0_FILL">
<path fill="#B8BE79" stroke="none" d="
M 21.5 19.95
L 21.5 157.8 159.35 157.8 159.35 19.95 21.5 19.95 Z"/>
</g>

<g id="Layer0_1_FILL">
<path fill="#E1C99B" stroke="none" d="
M 21.5 111.85
L 21.5 148.6 159.35 148.6 159.35 111.85 21.5 111.85 Z"/>
</g>

<g id="Layer0_2_FILL">
<path fill="#E1C99B" stroke="none" d="
M 220.4 90.95
Q 219.1525390625 89.2404296875 218.05 89.1 217.8693359375 89.4044921875 217.65 89.65
L 217.65 105.35
Q 218.0265625 105.738671875 218.4 106.1 220.05 107.7 222.25 108.5 225.9859375 110.7111328125 228.65 110.15 229.1619140625 109.0236328125 229.1 107.8 228.221875 104.8365234375 228.45 103.1
L 227.15 100
Q 226.2255859375 98.4591796875 225.7 97.5
L 224.3 95.45
Q 223.75 94.7 223.75 94.15
L 223.8 94.15 222.75 92.65
Q 222.585546875 92.4197265625 222.45 92.2
L 222.45 93.75
Q 222.4 93.7 220.4 90.95
M 222 98.1
L 222.45 98.3
Q 223.5 98.9 224.4 99.65 225.3 100.35 225.55 101.15 225.65 101.5 225.65 102.25
L 225.65 104.8
Q 225.65 105.3 225.5 105.45 225.3 105.75 224.85 105.75 223.65 105.9 221.6 104.55
L 219.9 103.4
Q 218.2 102.35 218.15 101.2 218.15 99.9 219.85 99
L 221.35 98.25
Q 221.65 98.1 222 98.1
M 221.6 88.8
L 221.75 88.8
Q 222.15 90.9 223.35 92.65 223.75 93.25 224.65 94.35
L 226.25 97.2
Q 226.580078125 97.7853515625 226.85 98.3
L 227.8 99.7
Q 229.4 101.95 229.8 103.45
L 228.25 101.2
Q 228.4599609375 101.6970703125 228.65 102.2 228.7005859375 102.1015625 228.75 102
L 228.75 102.3
Q 229.65 103.25 230.45 104.35 231.15 105.1 232.8 105.45
L 232.8 100.55
Q 230.9 96 228.95 93.6 226.35 90.5 221.6 88.25 221.6 88.504296875 221.6 88.8
M 234.55 59.6
L 233.45 58.6
Q 232.3 57.7 231.2 57.15
L 228.35 55.8
Q 227.3 55.25 226.3 54.95 225.05 54.55 223.05 54.4
L 219.8 54.2
Q 219.65 53.95 220.1 53.95 221.85 53.9 223.55 53.95 225.6 54.05 226.75 54.45
L 229.65 55.75
Q 231.55 56.65 232.45 57.25 233.45 58 233.7 58.25 234.608203125 59.024609375 235.3 59.8 235.4416015625 59.92734375 235.55 60.05 235.9169921875 60.4517578125 236.2 60.85 236.0763671875 60.426171875 235.8 60.15 236.4873046875 60.435546875 237.6 60.9 235.1943359375 55.1740234375 226.25 53 221.9 52 217.85 54.15 218.7791015625 61.7869140625 222.7 65.9 224.0392578125 66.40703125 225.4 66.9 229.95 68.55 231.3 68.55 232.2328125 68.55 233 68.45 233.223046875 67.9501953125 233.35 67.4
L 233.45 67.2 233.65 67.1
Q 233.65 67.45 233.5 67.75
L 233.3 68.4
Q 234.9423828125 68.15625 235.6 67.4 235.6373046875 67.358203125 235.65 67.3
L 235.7 67.05 235.95 66.8 235.95 66.8
Q 236.1244140625 66.4453125 236.2 65.9 235.9830078125 65.0380859375 235.85 64.55 235.55 63.75 235.15 63.45 235.3 63.3 235.5 63.5 235.9 63.8 236.25 64.5
L 236.35 64.9
Q 236.45 64.2626953125 236.45 63.45 236.45 62.146484375 236.4 61.6 235.7529296875 60.676171875 234.55 59.6
M 230.85 62.7
Q 231 62.5 231.3 62.35 232.1 62.05 233 62.1 233.35 62.1 233.5 62.2 233.8 62.35 233.95 62.6 234.2 62.85 234.35 63.2 234.4 63.35 234.35 63.8 234.35 64.2 234.45 64.4 233.8 65.05 232.95 65.1 232.7 65.15 232.15 65.15
L 231.6 65.05 231.15 64.7
Q 230.9 64.45 230.85 64.2 230.85 63.7 230.8 63.4 230.8 62.8 230.85 62.7
M 309.25 20.1
Q 310.6166015625 19.7056640625 312.2 19.6
L 314.95 19.65 315.95 21.05
Q 319.6498046875 20.3974609375 321.5 18.65 323.6 16.6 323.6 12.55 323.6 10.4533203125 323.4 10.05
L 304.05 10.05
Q 303.6775390625 10.4412109375 303.4 10.95 302.85 12 302.9 13.15 303.05 15.45 305.75 17.6
L 308 19.2
Q 308.701953125 19.66796875 309.25 20.1
M 338.1 10.05
L 335.55 10.05 333.95 10.3
Q 333.68125 10.33359375 333.4 10.35 333.11171875 10.6869140625 333 11.05 333 11.1 333 14.7 333 17.8 334.8 20.85 336.8 24.3 339.45 24.3 340.35 24.3 340.8 23.75 341.0181640625 23.4447265625 341.2 22.75 341.120703125 23.1478515625 341.15 23.5 341.565234375 21.840234375 341.5 19.75 341.45 18.05 341.05 16.4
L 340.75 15.1
Q 340.65 14.7 340.7 14.55
L 340.7 14.5
Q 339.7484375 12.0830078125 338.1 10.05
M 293.75 88
Q 295.7 89.65 298.2 91.4 300.2 92.95 303.1 93.3 304.3 93.45 309.45 93.45 313.15 93.45 313.35 93.45 314.69453125 93.312109375 315.1 92.7 315.0685546875 92.6115234375 315 92.5 314.7099609375 92.6 314.1 92.6 312.8875 92.547265625 311.8 92.4
L 311.8 92.55 311.3 92.5 309.8 92.15
Q 308.9498046875 91.9990234375 308.2 91.8
L 307.2 91.55 307.2 91.5 304.9 90.9
Q 301.35 90.05 299.6 89.6 296.45 88.85 294.55 87.8 292.749609375 86.7294921875 292.05 86.5 292.7994140625 87.199609375 293.75 88
M 299.05 79.55
Q 298.6400390625 79.5517578125 298.2 79.55 294.1466796875 79.7798828125 290.35 81.95 289.95 82.595703125 289.95 83.4 289.95 84.2037109375 291.2 85.6 292.1673828125 85.9478515625 292.7 86.2 293.25 86.45 294.9 87.2 296.25 87.8 297.1 88.1
L 306.5 90.55
Q 311.35 91.75 313.7 91.95 314.43828125 91.95 314.85 92.15 313.83125 89.573046875 312.75 87.05 312.3759765625 86.21171875 311.9 85.45 311.6716796875 85.082421875 311.4 84.7 310.9013671875 84.0029296875 310.25 83.35 309.410546875 82.455078125 308.35 81.7
L 307.8 81.65
Q 303.304296875 79.5505859375 299.05 79.55
M 301.15 84.75
Q 300.8 84.95 300.3 84.95 296.55 85.1 292.6 84.15 292 83.95 291.8 83.75 291.55 83.5 291.55 83 291.65 82.55 291.8 82.4 292 82.15 292.4 81.9 293.05 81.6 295.2 81.6 296.65 81.6 297.05 81.7
L 299.95 82.5
Q 300.95 82.7 301.35 83.3 301.6 83.65 301.55 84.1 301.5 84.55 301.15 84.75
M 304.3 55.1
Q 304.253125 55.08828125 304.2 55.05 303.800390625 55 303.05 55 301.6697265625 54.9693359375 300.35 55.05 300.2884765625 55.06796875 300.2 55.05 299.4640625 55.179296875 298.75 55.3 298.100390625 55.4537109375 297.45 55.6 290.9890625 57.2564453125 286.4 62.15 286.2927734375 62.4802734375 286.2 62.55
L 286.2 65.4
Q 288.4 66 289.9 66 292.7 66 300.55 62.3 304.9263671875 60.2513671875 307.1 59 306.9998046875 57.9962890625 306.7 57.25
L 306.65 57.2 305.1 55.4
Q 304.72890625 55.2072265625 304.3 55.1
M 304.75 57.7
Q 304.74453125 58.15546875 304.45 58.45 304.008203125 58.3294921875 303.55 58.25 302.908203125 58.15 302.25 58.15 301.8322265625 58.1326171875 301.2 58.2 300.0751953125 58.3263671875 298.25 58.75
L 295.75 59.4
Q 295 59.55 294.8 59.5 294.15 59.3 294.15 58.85 294.1 58.5 294.55 58.05 296.8060546875 56.0021484375 300.3 55.8 301.826171875 55.7248046875 303.6 56
L 304 56.2
Q 304.1 56.3 304.05 56.4 304.05 56.55 303.95 56.6 304.5 56.75 304.7 57.4 304.739453125 57.5712890625 304.75 57.7
M 278.55 93.35
Q 272.15 92.8 267.65 94.75 263.1 96.7 263.1 100 263.1 100.4025390625 263.15 100.8 265.4935546875 102.958203125 271 104.5 274.69765625 105.5271484375 277.7 105.75 277.4291015625 105.7740234375 277.15 105.8 275.625390625 105.9693359375 274.6 106.05 274.9326171875 106.1203125 275.2 106.15 276.65 106.35 279.55 106.4 282.45 106.45 283.85 106.6 284.05 106.8 283.65 106.8 277.1306640625 107.271875 272.6 106.3 276.1080078125 107.4064453125 278.3 107.65 278.95 107.7 282.3 107.7 286.4 107.7 291.35 105.25 292.76953125 104.526953125 293.85 103.75 294 103.2501953125 294 102.7 294 99.4 289.5 96.65 284.95 93.9 278.55 93.35
M 281.1 98.55
Q 281.1 98.1 281.35 97.9
L 281.9 97.7
Q 285.15 97.35 288.55 98.6 290.25 99.2 290.5 100.25 290.6 100.7 290.45 100.95 290.35 101.25 289.8 101.5 288.15 102.2 284.9 100.9
L 282.15 99.75
Q 281.5 99.55 281.25 99.2 281.1 98.9 281.1 98.55
M 262.4 77.5
Q 261.15 78.85 261.35 80.05 261.35 80.15 261.5 80.75 261.6 81.2 261.6 82 261.640625 83.9275390625 261.6 85.45 261.5818359375 85.8337890625 261.55 86.2 263.3 82.291796875 263.3 79.15 263.3 77.6943359375 263.25 76.85 262.88125 77.01875 262.4 77.5
M 263.1 75.7
Q 262.89765625 75.1435546875 262.15 74.4 261.3033203125 74.400390625 260.45 74.5 259.2458984375 74.7185546875 258.05 75.25 255.103125 76.4013671875 252.45 78.2 252.6302734375 77.88359375 252.8 77.55 251.6712890625 78.60078125 250.6 79.7 249.041796875 81.316796875 247.65 83.1 247.5623046875 83.21171875 247.45 83.3 247.5623046875 83.2376953125 247.65 83.15 247.7248046875 83.0751953125 247.8 83
L 247.95 83.15
Q 247.7943359375 83.45 247.65 83.75 243.2484375 92.825390625 249.3 99.7 250.25 100.8 251.8 100.4 254.71484375 99.5548828125 257.1 97.95
L 257.1 95.7
Q 256.75 95.95 255.55 96.4 254.5556640625 96.768359375 254 96.85 256.873828125 94.658984375 259.9 89.45 260.4640625 88.4712890625 260.9 87.5
L 261.1 86.55
Q 261.0859375 85.9560546875 261.05 85.45 261.0640625 84.1671875 261.1 83.45 261.1 81.9 261.05 81.6 261.05 81.55 260.9 80.5 260.75 79.45 261 78.65 261.4900390625 76.934765625 263.2 76.5 263.1828125 75.886328125 263.1 75.7
M 257.2 78.6
Q 257.6 79.75 256.25 80.4 254.95 81.05 253.95 82.05 251.65 84.6 249.8 87.6 249.1 88.8 248.1 89.3 247.05 88.35 247.5 86.45 248.5 82.4 252.15 80 254.6 78.45 257.2 78.6
M 267.9 84.15
Q 268.521484375 83.174609375 269.05 81.55 269.3330078125 80.7009765625 269.55 79.95 268.43125 82.366015625 267.9 84.15
M 277.35 84.2
Q 277.1017578125 84.466015625 276.8 84.75 276.4033203125 85.1111328125 276 85.45 274.296484375 86.9568359375 272.75 88 274.981640625 86.8947265625 277.35 84.2
M 280.55 80
L 280.35 80.25
Q 280.0677734375 80.7060546875 279.85 81.05 280.216796875 80.540234375 280.55 80
M 270.55 70.8
Q 270.490234375 70.8390625 270.4 70.85 267.7912109375 72.6564453125 267.4 75.2 267.05 77.6 267.1 80.1 267.1 80.9 267.05 81.7 266.9099609375 83.2005859375 266.6 84.7 266.5228515625 85.0767578125 266.4 85.45 266.40546875 85.5369140625 266.35 85.6 266.8697265625 85.4685546875 267.3 85 267.6421875 82.7818359375 268.35 80.95
L 271.25 75.15
Q 271.9953125 73.845703125 272.9 72.75 274.198046875 71.156640625 275.8 70
L 278.2 68.85 275.05 71.35
Q 274.198046875 72.0986328125 273.4 73.05 272.6513671875 74.01328125 271.95 75.15 271.1 76.6 269.7 79.6 269.5193359375 80.58515625 269.3 81.85 268.5 86.4 268.5 86.7 268.5 87.75 268.5 88.55 268.6 88.85 269.6 88.85 270.0884765625 88.85 270.55 88.75 273.7998046875 86.6603515625 275.15 85.45 275.1970703125 85.39921875 275.25 85.35
L 278.55 82.05 279.75 80.25 280.75 79.1
Q 281.6 78.25 281.9 77.5 282.05 77.25 282.25 76.7 282.3125 76.5875 282.35 76.5 282.575 76.2125 282.8 76.1
L 282.45 76.9 282.45 77.25
Q 282.45 77.35 280.6 80.75 280.4330078125 81.0837890625 280.25 81.4 281.4986328125 79.5236328125 283.3 76.3 284.25 74.65 285 74.2 283.4 77.4 280.65 81.75 279.9416015625 82.844921875 279.25 83.7 278.75 85.1076171875 278.75 85.85 278.75 86.5654296875 278.9 87.1
L 279.85 86.25
Q 280.0912109375 85.960546875 280.45 85.45 280.9046875 84.90234375 281.5 84.1 283 81.9 283.4 81.15 284.0845703125 79.9328125 284.5 78.6 284.5345703125 78.56171875 284.55 78.5 284.589453125 78.4013671875 284.6 78.3 285.00390625 77.1982421875 285.2 76 285.45 74.7 285.3 73.6 285.2087890625 72.870703125 284.65 71.4 284.607421875 71.295703125 284.55 71.15 284.2751953125 70.3755859375 284.1 69.75
L 284 69.15 282.55 67.85 281.95 68.8 281.75 67.5
Q 281.7154296875 67.493359375 281.65 67.45 277.2712890625 66.6673828125 273.6 68.9 272.500390625 69.459765625 271.45 70.15
L 271.45 70.55 270.55 70.8
M 281.9 70.5
Q 282.1 70.7 282.2 71.15 282.35 72.2 281.85 73
L 281.3 73.85
Q 280.95 74.7 280.75 75.15 280.45 76 279.9 76.25 279.6 76.4 279.25 76.3 278.85 76.2 278.7 75.9 278.3 75.85 277.6 76.3 276.9 76.8 276.5 76.7 276 76.55 275.85 76 275.7 75.55 275.85 75.05 276.05 74.25 277.2 73 278.85 71.35 280.3 70.6 281.35 69.95 281.9 70.5
M 251.95 67.05
Q 250.9916015625 67.36953125 249.9 67.95
L 250.4 68.15 249.7 68.05
Q 249.049609375 68.43359375 248.35 68.9
L 248.3 68.85
Q 247.9658203125 69.1015625 247.65 69.3 240.306640625 74.67421875 243 81.7 244.712890625 81.465234375 246.8 80.9 245.1064453125 79.807421875 244.65 77.65 244.5 76.6 244.8 74.05
L 245.1 72.25 245.45 72.25 245.2 74.55
Q 245 76.85 245.25 77.8 245.55859375 79.033984375 247.15 80.8 248.03046875 80.570703125 248.95 80.25 249.0556640625 80.1564453125 249.15 80.05
L 253.1 77.15
Q 254.75703125 74.8044921875 257.2 73.55 259.609375 72.057421875 262.05 72.3 262.5 71.3783203125 262.5 70.4 262.5 67.9546875 260.2 66.55 259.377734375 66.3328125 258.45 66.35
L 257.55 65.9
Q 253.8736328125 66.3041015625 251.95 67.05
M 250.85 71.4
Q 249.95 71.65 249.65 71.55 249.35 71.45 249.15 71.2 248.95 70.95 249 70.65 249.05 70.55 249.45 70.15 251.85 68.35 253.25 68 255.1 67.5 257.75 68.2 258.75 68.4 258.85 68.95 259 69.6 258.3 70 257.8 70.25 257.05 70.25 253.95 70.45 250.85 71.4
M 265.7 44.1
L 265.2 48.05
Q 265.5271484375 48.1796875 265.85 48.3 266.33046875 48.505859375 266.55 48.7 270.3189453125 43.12265625 275.95 47.65 274.8822265625 46.135546875 274.8 44.2
L 274.6 44.2
Q 273.40625 39.64609375 274.8 37.5 274.7486328125 37.5 274.7 37.5 271.15 37.85 270.35 38.1 267.85 38.75 266.75 40.45 266 41.6 265.7 44.1
M 269.1 42.8
L 268.5 42.8
Q 268.5 43.3 268.3 43.4
L 268 43.45
Q 267.6 43.45 267.5 43.3
L 267.45 43 267.45 42.45 267.5 42.05 268.05 41.2
Q 268.25 41 268.45 41.05
L 268.45 40.95
Q 269.05 40.95 269.2 41.2 269.25 41.25 269.35 41.55 269.4 42.15 269.1 42.8
M 272.45 47.05
Q 270.75 46.1 269.25 47.25 266.8357421875 49.0884765625 265.8 51.55 265.973828125 53.44375 265.8 56.05 265.6056640625 58.4380859375 265.55 59.95 265.7240234375 60.59296875 265.95 61.2 266.15 61.8 266.35 62.45 266.890234375 64.2958984375 267.8 65.9 271.36015625 67.4 272.75 67.4 274.65 67.4 275.1 66.6 275.3 66.25 275.3 64.7 275.3 63.45 274.6 62.7 273.3859375 61.4392578125 272.55 59.9 274.6607421875 61.0296875 276.35 62.2
L 271.2 56.1
Q 269.3 53.5 268.65 52 268.3 51.2 268.35 50.45 268.65 49.4 268.7 48.85 268.7 48.45 268.8 48.3 268.85 48.2 269 48.15 269.15 48.1 269.25 48.15 269.3 48.25 269.3 48.6
L 269 49.6
Q 268.85 50.65 268.85 50.7 268.95 51.25 269.15 51.75 269.7 53.05 271.3 55.35
L 273.5 58.35
Q 273.96328125 58.955859375 274.8 59.95
L 276.65 62.4
Q 279.3779296875 64.41328125 281.05 66.65 281.4845703125 66.6404296875 281.9 66.65 282 63.85 282.05 61.1 282.1 57.4 280.2 54.4 277.794140625 49.9708984375 272.45 47.05
M 271.95 49.05
Q 272.25 48.75 272.6 48.8 273 48.85 273.25 49.3 273.35 49.45 273.6 50.05 274.1 51.05 274.8 51.6 275.25 52.05 275.3 52.15 275.55 52.5 275.45 52.95 275.3 53.4 274.95 53.6 274.6 53.8 273.7 53.8
L 272.9 53.75
Q 272.55 53.75 272.4 53.65 272.15 53.55 271.85 53.15 271.4 52.35 271.35 52.05
L 271.45 51.2
Q 271.4 50.2 271.55 49.7 271.65 49.3 271.95 49.05
M 266.2 49.3
Q 265.791796875 49.45 265.2 49.45
L 263.55 49.15
Q 263.3017578125 49.1013671875 263.05 49.05 251.708203125 50.134375 247.65 59.15 246.82421875 60.985546875 246.3 63.15 246.25703125 65.1666015625 247.65 66.45 247.88046875 66.6583984375 248.15 66.85 248.6 67.2 249.1 67.55
L 249.4 67.45 252.4 66.1
Q 252.5607421875 66.0341796875 252.7 65.95 257.0658203125 63.584765625 260.6 58.9 263.6 55 265.65 50 265.668359375 50.10546875 265.65 50.2 265.9375 49.7314453125 266.2 49.3
M 262.5 50.7
Q 262.9 50.7 263.1 50.9 263.7 51.35 263.15 52.2 262.9 52.75 262.5 53 262.25 53.2 261.75 53.3 260.55 53.7 259.95 53.8 259.15 53.9 258.75 54 258.05 54.1 257.6 54.35 256.4 54.45 256.2 53.9 256.05 53.45 256.4 53.1 256.6 52.8 257.05 52.6 260.35 50.65 262.5 50.7
M 253.75 54.4
Q 254.35 53.8 254.65 54.1 251.9 56.85 250.55 58.95 248.65 62.1 248.6 65 248.6 65.5 248.35 65.7 248.15 63.5 248.85 61.25 249.95 58.1 253.75 54.4
M 250 63.15
L 250.2 63.1 250.3 63.3 250.3 63.75 250.2 63.95 250.1 63.95 250 63.75 250 63.15
M 261.05 52.05
L 261.8 51.9 261.35 51.8 260.9 51.95 260.7 52.05 260.45 52.25 260.65 52.2 261.05 52.05
M 285.8 38.55
L 285.75 38.35
Q 283.7578125 37.264453125 281.2 36.85 280.8751953125 36.791796875 280.55 36.75 279.3185546875 36.605078125 277.95 36.6 276.05 36.6 275.05 38.2 274.2361328125 40.51328125 274.85 42.85 274.873828125 42.7078125 274.9 42.55
L 275.1 43.65
Q 275.2 43.95 275.35 44.3
L 275.2 44.25 275.4 45.25
Q 280.2265625 52.0845703125 286.65 51.3
L 288.15 51
Q 289.3583984375 50.7216796875 290.6 50.15
L 290.6 50.15
Q 290.7 49.95 290.95 49.95 290.99140625 49.941796875 291 49.95 291.0662109375 49.942578125 291.1 49.95 291.3451171875 49.8265625 291.6 49.7 291.930859375 49.517578125 292.25 49.3 291.2771484375 42.24296875 286.9 39.1 286.483984375 38.7818359375 286 38.5
L 285.8 38.55
M 284 42.55
Q 284.2130859375 42.4115234375 284.4 42.3 284.5865234375 42.1884765625 284.75 42.1 285.262109375 41.8193359375 285.65 41.7
L 285.8 41.9
Q 285.4150390625 42.048046875 284.95 42.35 284.7951171875 42.4498046875 284.6 42.55 284.4462890625 42.697265625 284.25 42.85 283.55 43.35 283.3 43.65
L 281.75 46.75
Q 281.6 46.4 281.9 45.7
L 282.65 44.25
Q 282.929296875 43.6517578125 283.05 43.4 283.018359375 43.4921875 282.95 43.55 282.25 44.15 282.05 44.45 281.9 44.7 281.75 45.3 281.6 45.85 281.45 46.1 281.4 46.25 281.25 46.55 281.1 46.85 281.15 47.05
L 281 47.05
Q 280.85 46.6 281.1 46.15 281.45 45.6 281.55 45.3
L 281.65 44.65
Q 281.9 43.95 283.1 43 283.5 42.5 283.75 42.55 283.6423828125 42.873046875 283.25 43.25
L 284 42.55
M 281.15 39.95
L 279.8 39.95
Q 277.95 39.6 277 39.5 276.45 39.4 276.35 39.25 276.25 39.1 276.25 38.7 276.3 38.25 276.4 38.05 276.7 37.6 277.65 37.6
L 278.9 37.65
Q 279.8 37.65 280.2 37.8
L 281.45 38.35
Q 281.85 38.75 281.95 39.55 281.9 39.95 281.15 39.95
M 285.15 33.3
Q 285.414453125 33.0576171875 285.6 32.85
L 285.5 32.1 280.9 28.6
Q 280.31328125 28.3009765625 279.8 28.15
L 277.2 28.05
Q 277.016015625 28.05 276.85 28.05 276.2482421875 28.0556640625 275.75 28.05 274.657421875 28.1435546875 274 28.3 272.75 28.7 271 29.9 270.2 30.35 269.95 30.95 269.8 31.25 269.8 32.05
L 269.8 34.2
Q 269.8 35.15 269.9 35.65 270.0517578125 36.333203125 270.5 37.05 272.528125 36.534765625 274.65 36.8 275.1013671875 36.8 275.2 37 276.6140625 35.4587890625 279.8 35.55 280.138671875 35.59609375 280.45 35.6 281.3740234375 35.7044921875 282.4 35.9 283.838671875 36.1548828125 285.15 36.7
L 285.05 36.5 285 34.2
Q 285 33.6 285.15 33.3
M 275.65 29.4
Q 276.8 29.5 277.3 29.7 277.85 29.9 277.9 30.25 278 30.6 277.6 31.2 276.25 31.2 275.6 31.35
L 274.95 31.5 274.2 31.55 272.5 31.45
Q 272.2 31.45 272.05 31.35 271.9 31.2 271.9 31 271.85 30.5 272.3 30 272.6 29.7 273.25 29.5 274.05 29.3 275.65 29.4
M 287.1 31.7
L 287.1 32.2 286.6 32.45 286.3 33.65 286.3 33.75 285.7 33.75 285.7 33.65 285.65 34.1 285.7 36.2 285.9 36.8
Q 285.9861328125 36.9720703125 286.05 37.15 287.2076171875 37.7623046875 288.25 38.6 288.69453125 39.0009765625 289.1 39.4 289.541015625 39.45 289.9 39.45 293.3576171875 39.45 295.3 35.05 292.9498046875 31.819921875 288.95 30.9 287.8 30.8 287.1 31.7
M 315.9 23.35
Q 315.3955078125 22.26875 314.85 21.25 314.6234375 20.8408203125 314.4 20.45
L 311.5 20.7
Q 303.6244140625 22.257421875 301.8 29.95 301.3 31.9 301.05 33.9
L 304.8 33
Q 306.9716796875 32.7404296875 309.25 32.95
L 310.05 31.6
Q 310.5697265625 31.112109375 311.1 30.75 313.3 29.45 315.95 29.65 316.55 29.7 317.15 29.75 317.4 26.45 315.9 23.35
M 307.45 24
L 308.6 23.3
Q 308.8 23.1 309.15 23 309.55 22.95 310.05 23.2 310.55 23.4 310.65 23.65 310.85 24 310.55 24.5 310.35 24.8 309.9 25.05 308.45 25.95 306.65 26.85
L 305.95 27.2
Q 305.15 27.4 304.85 26.95 304.55 26.6 304.75 26.15 304.85 25.85 305.25 25.45 305.65 25.1 307.45 24
M 313.3 21.65
Q 313.5 22.4 313 23.45 311.3 27.55 308.7 31.35 308.7 30.95 309.25 29.85 311.55 26 313.3 21.65
M 307.3 27.45
L 307.35 27.4
Q 308 27.4 308.1 27.45 308.3 27.5 308.45 27.75
L 308.45 27.95
Q 308.45 28.25 308.35 28.35
L 308.05 28.45 307.05 28.55
Q 306.95 28.6 306.75 28.5 306.65 28.4 306.65 28.1 306.65 27.85 306.75 27.8
L 306.95 27.6 307.05 27.45 307.3 27.45
M 309.7 71.1
Q 309.475 71.023828125 309.2 70.9 308.8 70.75 307.5 69.95 304.85 68.5 301.85 68.35 301.7783203125 68.2783203125 301.75 68.2
L 299.1 68.15
Q 298.6849609375 68.15 298.35 68
L 296.65 68.15
Q 293.5 68.3 287.9 70.6 286.6705078125 71.141015625 286.4 71.6 286.5419921875 72.00703125 286.65 72.4
L 286.35 72.4
Q 286.6353515625 73.5326171875 286.65 74.75 288.77578125 77.3267578125 292.5 78.6 292.75703125 78.6857421875 293 78.75 302.8228515625 76.4919921875 309.45 81.75 309 80.56328125 309 79.25 309 77.79296875 309.25 77.15
L 309.15 75.15
Q 309.15 73.8 309.2 73.55 309.4 72.5 310.25 71.65
L 309.9 71.3
Q 309.7833984375 71.1833984375 309.7 71.1
M 292.85 71.6
Q 292.8 71.45 292.95 71.4 293.15 71.3 293.3 71.35 294.4 71.55 296.35 71.55 298.6 71.55 299.4 71.65 300.95 71.8 303.6 72.5 305.85 73.05 307.05 73.75
L 303.6 73
Q 299.8 72.2 297.85 72.1 296.15 72.1 295.3 72.1 293.85 72 292.85 71.6
M 325.55 85.45
Q 326.9677734375 85.912109375 328.95 86.3 329.5810546875 86.440234375 330.1 86.55 330.4369140625 86.618359375 330.7 86.65 330.8431640625 86.61171875 330.95 86.55 331.0796875 86.4779296875 331.2 86.4 331.515234375 86.19921875 331.8 85.95 331.93515625 82.55625 331.05 79.95 328.662890625 72.9267578125 318.85 71.65 316.6 71.3 314.3 71.25 313.1580078125 71.41953125 312.35 71.75 310.75 72.45 310.35 73.7 310.15 74.3 310.1 75.2 310.1 75.7 310.15 76.65 310.15 77.1677734375 310.05 77.9 311.1150390625 79.131640625 313.5 82.05 314.7189453125 83.52578125 317 84.15 316.9921875 84.132421875 316.95 84.1 317.4 83.9 318.3 84.4 318.3330078125 84.41953125 318.35 84.45 318.5767578125 84.5626953125 318.75 84.65 319.5341796875 85.1111328125 320.2 85.45 321.95390625 86.3341796875 323.15 86.6 323.75 86.75 325.65 86.95 327.2 87.1 328.05 87.4 328.15 87.55 327.75 87.55 324.65 87.35 323.15 87 320.90546875 86.4388671875 319.05 85.45 318.18515625 84.989453125 317.4 84.4 316.549609375 84.3 316.15 84.3 315.3 84.3 315 84.6 315.3384765625 86.080859375 319.05 88.2 324.7056640625 89.79296875 330.1 87 329.8208984375 86.96015625 329.5 86.9 327.732421875 86.6474609375 326.25 86.25 325.969140625 86.1791015625 325.7 86.1 324.8541015625 85.8365234375 323.9 85.45 323.2984375 85.1912109375 322.6 84.85 320.7056640625 83.96953125 318.45 82.6 316 81.05 314.25 79.85 313.75 79.45 314 79.3 314.2 79.1 314.45 79.35 316.2 80.45 319.65 82.65 322.5240234375 84.3744140625 324.95 85.2 325.0451171875 85.2642578125 325.15 85.3 325.3572265625 85.3759765625 325.55 85.45
M 326.8 83.65
Q 325.4 83.6 324 82.85 322.35 82.05 321.3 80.9 320.8 80.45 320.65 80 320.45 79.3 321 79.05 321.35 78.85 322.1 79.15 325.2 80.5 328.7 81.1 329.95 81.35 329.95 82 329.95 82.35 329.55 82.75 328.5 83.65 326.8 83.65
M 315.5 69.8
Q 315.405859375 69.8927734375 315.3 69.95 315.51328125 69.944921875 315.7 69.95 315.607421875 69.8701171875 315.5 69.8
M 344.05 73.1
L 343.25 71.9
Q 341.7177734375 72.66796875 336.2 73.45 329.9 74.2 329.6 74.25 330.5 75.45 334 76.75 336.681640625 77.7658203125 338.25 77.95 338.3455078125 77.90390625 338.45 77.85 339.1158203125 77.52265625 339.7 77.15 342.2 75.85 343.55 73.75 343.8 73.4 344.05 73.1
M 331.55 62.2
Q 331.301171875 62.142578125 331.05 62.1 329.33203125 61.75 327.5 61.75 323.2779296875 61.6845703125 319.7 62.85 318.9115234375 63.1060546875 318.15 63.4 317.0900390625 63.85 316.1 64.4 316.053125 64.4263671875 316 64.45 314.4896484375 65.330859375 314.15 66.35 314.0765625 66.643359375 314.1 66.95 314.105078125 67.1765625 314.15 67.4 314.191796875 67.68515625 314.3 68
L 315 68
Q 328.7431640625 70.5919921875 334.65 71.6 337.3564453125 71.8189453125 340.3 71.9 340.781640625 71.9 340.85 72.15 341.8765625 72.0419921875 343.15 71.8
L 340.4 67.6
Q 339.495703125 66.668359375 338.3 65.75 337.7982421875 65.3501953125 337.3 65 336.1529296875 64.1712890625 335 63.55 333.266015625 62.616015625 331.55 62.2
M 326.6 63.2
Q 327.4 63.2 327.75 63.55 328.1 63.9 328 64.4 327.9 64.9 327.5 65.2 327.05 65.6 325.75 65.8
L 320.55 66.55
Q 319.1 66.65 318.85 66.65 317.85 66.65 317.8 66.05 317.8 65.55 318.55 65.25 322.8 63.2 326.6 63.2
M 324.6 55.6
L 324.5 55.25
Q 323.1 52.05 320.15 50.35 319.4654296875 49.9849609375 318.8 49.6 318.7611328125 49.562109375 318.7 49.5 317.715625 49.03359375 317.15 48.75
L 315.55 48.45
Q 315.6 48.8263671875 315.6 49.7 315.6 51.0962890625 315.1 52.25 315.375390625 52.3384765625 315.65 52.4 315.7978515625 52.48359375 315.95 52.55 316.524609375 52.782421875 317.1 53.05 317.387890625 53.1923828125 317.65 53.3 319.3890625 54.18828125 321.4 55.45 323.9 57.1 324.65 58.25
L 321.5 56.2
Q 318.8703125 54.509375 317.4 53.8 317.3380859375 53.742578125 317.25 53.7 317.0048828125 53.57734375 316.75 53.45 316.175 53.190625 315.6 52.95 315.4626953125 52.8962890625 315.3 52.85
L 314.85 52.7
Q 313.78203125 54.76015625 311 56 309.4236328125 56.4298828125 308.15 56.75 308.301953125 57.29296875 308.35 57.85 308.3818359375 58.0353515625 308.4 58.2 308.528125 58.9080078125 308.55 59.7 308.5873046875 59.906640625 308.6 60.1 312.03359375 62.2384765625 314.05 62.65 314.565625 62.753125 316.35 62.8 318.9185546875 61.475 322.1 60.9 324.279296875 60.4982421875 326.75 60.45 326.7234375 60.3796875 326.7 60.3
L 325.65 57.1 325.2 56.2 324.6 55.6
M 351.15 65.55
Q 350.828515625 65.2091796875 350.3 64.7 345.15 69.109375 345.15 76.3 345.75 81.9 350.75 84.45 352 85.05 353.25 85.65 355.703515625 83.9876953125 357.3 82.2
L 357.3 79.35 356.5 80.7
Q 356.2 81.35 355.85 81.4
L 355.8 81.25
Q 356.2 80.85 356.75 79.85 357.0580078125 79.3623046875 357.3 79
L 357.3 78.6 356.75 78.6
Q 356.59375 78.712109375 356.45 78.8 355.908984375 79.5775390625 355.05 80.5 354.8 80.8 354.55 80.95 354.55 80.3 354.9 79.9
L 355.05 79.7
Q 354.568359375 79.999609375 354.2 80.15 354.64140625 79.3712890625 355.9 77.6 357 75.75 357 74.15 357 72.3 355.65 70.4 354.5572265625 68.844921875 351.6 65.95 351.5 67.1470703125 351.5 67.6 351.5 69.45 352.4 73.45 353.25 77.25 353.1 79.3 352.85 77.85 352.35 75.6 351.65 72.75 351.5 71.95 350.74921875 68.2791015625 351.15 65.55
M 350.75 74.9
Q 351.1 76.15 351 77.65 350.9 79.15 351.4 80.6 351.8 81.9 351.35 83.1 349.9 82.95 349 81.6 348.3 80.5 348.25 78.95 348.2 76.6 348.85 74.25 348.9 73.95 349.1 73.7 350.35 73.4 350.75 74.9
M 324.3 42
Q 324.6505859375 42.27265625 325.65 43.25 325.486328125 40.0396484375 323.2 36.4 322.4564453125 35.24765625 320.15 32.45 320.155078125 32.42109375 320.1 32.4 318.390625 31.0912109375 316.2 31 313.7 30.95 311.55 32.05 311.2654296875 32.21640625 310.95 32.4 310.55 32.7 310.2 33.1
L 313.05 33.95 312.25 33.85
Q 307.6734375 33.544140625 303.35 34.8
L 300.5 35.8
Q 300.2244140625 35.9509765625 299.95 36.05 297.8357421875 37.2232421875 295.95 38.9 295.5658203125 39.655078125 295.05 40.3 294.113671875 41.632421875 293.75 42.15 293.6419921875 42.366015625 293.6 42.45 293.3583984375 43.0296875 293.05 44.25 293.06015625 44.3060546875 293.05 44.35 292.8697265625 44.9166015625 292.55 45.3 293.1365234375 47.7919921875 292.5 50.5 292.48359375 50.6642578125 292.45 50.8 292.433984375 50.61953125 292.4 50.45 292.366796875 49.9765625 292.3 49.5 292.123046875 49.771484375 291.9 50 291.7359375 50.2345703125 291.5 50.45 291.3482421875 50.644921875 291.15 50.8 291.15 50.860546875 291.15 50.9 290.85 53.4 292 55.5 292.1 55.7 292.25 55.9 294.0759765625 55.036328125 296 54.45 296.5658203125 54.3306640625 297.1 54.2 298.594921875 53.86484375 300.1 53.7 300.4517578125 53.676953125 300.75 53.65 302.0201171875 53.6041015625 303.35 53.65 303.6232421875 53.65 303.85 53.65 304.0408203125 53.6642578125 304.2 53.65 304.5166015625 53.70546875 304.75 53.75 305.041015625 53.6255859375 305.4 53.35 309.15 50.8 311.4 46.65 311.9 45.7 312.3 44.65 312.455078125 44.3556640625 312.55 44 312.6509765625 43.8185546875 312.7 43.6 313.4650390625 41.4166015625 313.6 39.05
L 313.2 34 314.35 34.7 314.7 39.9
Q 314.5564453125 41.980078125 313.9 43.85 315.749609375 44.27265625 318.05 44.9 320.2 45.45 322.5 45.45 323.8 45.45 325.05 45.45 325.5890625 45.2703125 325.65 44 325.33359375 43.66875 325 43.35 322.7 41.2 319.85 40.2 318.75 39.85 318.85 39.25 320.45 39.75 322.05 40.6 323.35 41.25 324.3 42
M 300.25 41.5
Q 300 41.05 300.65 40.4
L 302 39.05
Q 301.75 38.95 301.4 38.95
L 300.75 38.9
Q 299.9 38.9 299.8 38.2 299.8 37.8 300.55 37.35 304 35.4 307.2 35.65 308.4 35.75 308.55 36.5 308.6 36.95 308.1 37.45
L 307.1 37.95
Q 306.55 38.2 305.8 38.85 304.6 39.8 304.5 39.85 303.75 40.5 301.6 41.55 301.1 41.8 300.9 41.8 300.4 41.8 300.25 41.5
M 303.1 44.6
L 302.35 45.2
Q 302.46328125 45.16328125 302.5 45.2
L 302.4 45.4
Q 302.35 45.45 302.2 45.55
L 301.15 46.4 301.1 46.25
Q 301.1875 46.15 301.3 46.05
L 296.85 49.6
Q 297.21171875 49.2037109375 297.55 48.8 298.3736328125 47.9787109375 299.2 47.15 301.35546875 45.1197265625 303.75 43.3
L 306.45 41.1
Q 310.6 37.55 312.35 35.15 312.55 34.85 312.7 34.8 312.8 34.75 312.95 34.85 313.1 34.9 313.1 35 311.3 37.5 308.45 40.1 306.8 41.65 303.1 44.6
M 343.45 29.75
Q 343.25 29 342.95 28.3 339.4654296875 27.603125 336.2 28.65 333.4767578125 31.1462890625 332.55 33 331.65 34.75 331.65 37.8 331.65 41.4 333.95 43.2 334.8708984375 43.93125 336 44.25 339.6552734375 40.82890625 340.9 35.9 341 35.3 341.2 35.05 341.4 37.95 339 41.55 338.5642578125 42.1880859375 338.1 42.8
L 337.15 44.5
Q 337.627734375 44.55 338.15 44.55 338.944140625 44.55 339.7 44.45 346.176171875 39.54921875 343.45 29.75
M 338.45 32.3
L 338.15 32.25
Q 337.9 32.15 337.9 31.95
L 337.85 31.5
Q 337.85 31.25 337.95 31.15 338.05 31.05 338.4 30.95
L 338.45 30.9
Q 338.85 30.9 339 31 339.35 31.1 339.35 31.4 339.35 31.65 339.05 32.05
L 338.75 32.3 338.45 32.3
M 336.3 36
L 336.3 35.4
Q 336.3 35 336.45 34.9 336.6 34.75 337 34.75
L 338.15 34.75
Q 339.05 34.75 339.25 35.1 339.4 35.35 339.4 35.6 339.4 36.3 339.05 36.8 338.95 36.95 338.3 37.45
L 337.65 37.8
Q 337.05 37.95 336.4 37.8
L 336.15 37.75
Q 336.05 37.65 336.05 37.4 336.05 36.65 336.15 36.4
L 336.3 36
M 331.05 20.95
Q 331.2470703125 19.84296875 331.35 19.5
L 331.35 19.45
Q 331.2900390625 19.320703125 331.2 19.2 330.8 18.7 330.2 18.55 327.320703125 18.384765625 324.75 19.2 321.881640625 20.1115234375 319.4 22.25 318.35 23.1 317.5 24.15
L 317.55 29.4 321.1 32.2
Q 325.806640625 31.1341796875 328.5 28.05 327.77890625 28.81171875 327.2 29.05
L 327.75 28.35
Q 329.55 26.25 330.2 24.7 330.6 23.75 330.85 22.15 330.959765625 21.4751953125 331.05 20.95
M 327.15 20.05
Q 327.45 20 328.05 20.05
L 328.75 20.05
Q 329.2 20.05 329.4 20.3 329.65 20.6 329.45 21.6
L 329.25 22.1
Q 329.1 22.3 328.85 22.4 328.1 22.75 326.4 22.65
L 325.05 22.6
Q 324.7 22.6 324.55 22.4
L 324.5 22.05 324.55 21.5
Q 324.7 21.3 325.2 21.1
L 326.15 20.5
Q 326.7 20.1 327.15 20.05
M 345.5 21.75
Q 344.75 21.75 344.45 21.95
L 344.15 22.15
Q 344 22.25 343.7 22.25
L 342.7 22.4
Q 342.584765625 22.4 342.5 22.35 342.33515625 23.7408203125 341.95 24.95 342.378515625 25.3259765625 343.05 25.6 344.75 26.25 346.9 26.25 348.3353515625 26.25 349.1 25.75 348.2732421875 23.66640625 347.25 21.65
L 345.5 21.75 Z"/>

<path fill="#EDEBD3" stroke="none" d="
M 222.45 98.3
L 222 98.1
Q 221.65 98.1 221.35 98.25
L 219.85 99
Q 218.15 99.9 218.15 101.2 218.2 102.35 219.9 103.4
L 221.6 104.55
Q 223.65 105.9 224.85 105.75 225.3 105.75 225.5 105.45 225.65 105.3 225.65 104.8
L 225.65 102.25
Q 225.65 101.5 225.55 101.15 225.3 100.35 224.4 99.65 223.5 98.9 222.45 98.3
M 231.3 62.35
Q 231 62.5 230.85 62.7 230.8 62.8 230.8 63.4 230.85 63.7 230.85 64.2 230.9 64.45 231.15 64.7
L 231.6 65.05 232.15 65.15
Q 232.7 65.15 232.95 65.1 233.8 65.05 234.45 64.4 234.35 64.2 234.35 63.8 234.4 63.35 234.35 63.2 234.2 62.85 233.95 62.6 233.8 62.35 233.5 62.2 233.35 62.1 233 62.1 232.1 62.05 231.3 62.35
M 300.3 84.95
Q 300.8 84.95 301.15 84.75 301.5 84.55 301.55 84.1 301.6 83.65 301.35 83.3 300.95 82.7 299.95 82.5
L 297.05 81.7
Q 296.65 81.6 295.2 81.6 293.05 81.6 292.4 81.9 292 82.15 291.8 82.4 291.65 82.55 291.55 83 291.55 83.5 291.8 83.75 292 83.95 292.6 84.15 296.55 85.1 300.3 84.95
M 304.45 58.45
Q 304.74453125 58.15546875 304.75 57.7 304.739453125 57.5712890625 304.7 57.4 304.5 56.75 303.95 56.6 304.05 56.55 304.05 56.4 304.1 56.3 304 56.2
L 303.6 56
Q 301.826171875 55.7248046875 300.3 55.8 296.8060546875 56.0021484375 294.55 58.05 294.1 58.5 294.15 58.85 294.15 59.3 294.8 59.5 295 59.55 295.75 59.4
L 298.25 58.75
Q 300.0751953125 58.3263671875 301.2 58.2 301.8322265625 58.1326171875 302.25 58.15 302.908203125 58.15 303.55 58.25 304.008203125 58.3294921875 304.45 58.45
M 281.35 97.9
Q 281.1 98.1 281.1 98.55 281.1 98.9 281.25 99.2 281.5 99.55 282.15 99.75
L 284.9 100.9
Q 288.15 102.2 289.8 101.5 290.35 101.25 290.45 100.95 290.6 100.7 290.5 100.25 290.25 99.2 288.55 98.6 285.15 97.35 281.9 97.7
L 281.35 97.9
M 256.25 80.4
Q 257.6 79.75 257.2 78.6 254.6 78.45 252.15 80 248.5 82.4 247.5 86.45 247.05 88.35 248.1 89.3 249.1 88.8 249.8 87.6 251.65 84.6 253.95 82.05 254.95 81.05 256.25 80.4
M 282.2 71.15
Q 282.1 70.7 281.9 70.5 281.35 69.95 280.3 70.6 278.85 71.35 277.2 73 276.05 74.25 275.85 75.05 275.7 75.55 275.85 76 276 76.55 276.5 76.7 276.9 76.8 277.6 76.3 278.3 75.85 278.7 75.9 278.85 76.2 279.25 76.3 279.6 76.4 279.9 76.25 280.45 76 280.75 75.15 280.95 74.7 281.3 73.85
L 281.85 73
Q 282.35 72.2 282.2 71.15
M 249.65 71.55
Q 249.95 71.65 250.85 71.4 253.95 70.45 257.05 70.25 257.8 70.25 258.3 70 259 69.6 258.85 68.95 258.75 68.4 257.75 68.2 255.1 67.5 253.25 68 251.85 68.35 249.45 70.15 249.05 70.55 249 70.65 248.95 70.95 249.15 71.2 249.35 71.45 249.65 71.55
M 268.5 42.8
L 269.1 42.8
Q 269.4 42.15 269.35 41.55 269.25 41.25 269.2 41.2 269.05 40.95 268.45 40.95
L 268.45 41.05
Q 268.25 41 268.05 41.2
L 267.5 42.05 267.45 42.45 267.45 43 267.5 43.3
Q 267.6 43.45 268 43.45
L 268.3 43.4
Q 268.5 43.3 268.5 42.8
M 272.6 48.8
Q 272.25 48.75 271.95 49.05 271.65 49.3 271.55 49.7 271.4 50.2 271.45 51.2
L 271.35 52.05
Q 271.4 52.35 271.85 53.15 272.15 53.55 272.4 53.65 272.55 53.75 272.9 53.75
L 273.7 53.8
Q 274.6 53.8 274.95 53.6 275.3 53.4 275.45 52.95 275.55 52.5 275.3 52.15 275.25 52.05 274.8 51.6 274.1 51.05 273.6 50.05 273.35 49.45 273.25 49.3 273 48.85 272.6 48.8
M 263.1 50.9
Q 262.9 50.7 262.5 50.7 260.35 50.65 257.05 52.6 256.6 52.8 256.4 53.1 256.05 53.45 256.2 53.9 256.4 54.45 257.6 54.35 258.05 54.1 258.75 54 259.15 53.9 259.95 53.8 260.55 53.7 261.75 53.3 262.25 53.2 262.5 53 262.9 52.75 263.15 52.2 263.7 51.35 263.1 50.9
M 261.8 51.9
L 261.05 52.05 260.65 52.2 260.45 52.25 260.7 52.05 260.9 51.95 261.35 51.8 261.8 51.9
M 279.8 39.95
L 281.15 39.95
Q 281.9 39.95 281.95 39.55 281.85 38.75 281.45 38.35
L 280.2 37.8
Q 279.8 37.65 278.9 37.65
L 277.65 37.6
Q 276.7 37.6 276.4 38.05 276.3 38.25 276.25 38.7 276.25 39.1 276.35 39.25 276.45 39.4 277 39.5 277.95 39.6 279.8 39.95
M 277.3 29.7
Q 276.8 29.5 275.65 29.4 274.05 29.3 273.25 29.5 272.6 29.7 272.3 30 271.85 30.5 271.9 31 271.9 31.2 272.05 31.35 272.2 31.45 272.5 31.45
L 274.2 31.55 274.95 31.5 275.6 31.35
Q 276.25 31.2 277.6 31.2 278 30.6 277.9 30.25 277.85 29.9 277.3 29.7
M 307.35 27.4
L 307.3 27.45 307.05 27.45 306.95 27.6 306.75 27.8
Q 306.65 27.85 306.65 28.1 306.65 28.4 306.75 28.5 306.95 28.6 307.05 28.55
L 308.05 28.45 308.35 28.35
Q 308.45 28.25 308.45 27.95
L 308.45 27.75
Q 308.3 27.5 308.1 27.45 308 27.4 307.35 27.4
M 308.6 23.3
L 307.45 24
Q 305.65 25.1 305.25 25.45 304.85 25.85 304.75 26.15 304.55 26.6 304.85 26.95 305.15 27.4 305.95 27.2
L 306.65 26.85
Q 308.45 25.95 309.9 25.05 310.35 24.8 310.55 24.5 310.85 24 310.65 23.65 310.55 23.4 310.05 23.2 309.55 22.95 309.15 23 308.8 23.1 308.6 23.3
M 324 82.85
Q 325.4 83.6 326.8 83.65 328.5 83.65 329.55 82.75 329.95 82.35 329.95 82 329.95 81.35 328.7 81.1 325.2 80.5 322.1 79.15 321.35 78.85 321 79.05 320.45 79.3 320.65 80 320.8 80.45 321.3 80.9 322.35 82.05 324 82.85
M 327.75 63.55
Q 327.4 63.2 326.6 63.2 322.8 63.2 318.55 65.25 317.8 65.55 317.8 66.05 317.85 66.65 318.85 66.65 319.1 66.65 320.55 66.55
L 325.75 65.8
Q 327.05 65.6 327.5 65.2 327.9 64.9 328 64.4 328.1 63.9 327.75 63.55
M 351 77.65
Q 351.1 76.15 350.75 74.9 350.35 73.4 349.1 73.7 348.9 73.95 348.85 74.25 348.2 76.6 348.25 78.95 348.3 80.5 349 81.6 349.9 82.95 351.35 83.1 351.8 81.9 351.4 80.6 350.9 79.15 351 77.65
M 300.65 40.4
Q 300 41.05 300.25 41.5 300.4 41.8 300.9 41.8 301.1 41.8 301.6 41.55 303.75 40.5 304.5 39.85 304.6 39.8 305.8 38.85 306.55 38.2 307.1 37.95
L 308.1 37.45
Q 308.6 36.95 308.55 36.5 308.4 35.75 307.2 35.65 304 35.4 300.55 37.35 299.8 37.8 299.8 38.2 299.9 38.9 300.75 38.9
L 301.4 38.95
Q 301.75 38.95 302 39.05
L 300.65 40.4
M 336.3 35.4
L 336.3 36 336.15 36.4
Q 336.05 36.65 336.05 37.4 336.05 37.65 336.15 37.75
L 336.4 37.8
Q 337.05 37.95 337.65 37.8
L 338.3 37.45
Q 338.95 36.95 339.05 36.8 339.4 36.3 339.4 35.6 339.4 35.35 339.25 35.1 339.05 34.75 338.15 34.75
L 337 34.75
Q 336.6 34.75 336.45 34.9 336.3 35 336.3 35.4
M 338.15 32.25
L 338.45 32.3 338.75 32.3 339.05 32.05
Q 339.35 31.65 339.35 31.4 339.35 31.1 339 31 338.85 30.9 338.45 30.9
L 338.4 30.95
Q 338.05 31.05 337.95 31.15 337.85 31.25 337.85 31.5
L 337.9 31.95
Q 337.9 32.15 338.15 32.25
M 328.05 20.05
Q 327.45 20 327.15 20.05 326.7 20.1 326.15 20.5
L 325.2 21.1
Q 324.7 21.3 324.55 21.5
L 324.5 22.05 324.55 22.4
Q 324.7 22.6 325.05 22.6
L 326.4 22.65
Q 328.1 22.75 328.85 22.4 329.1 22.3 329.25 22.1
L 329.45 21.6
Q 329.65 20.6 329.4 20.3 329.2 20.05 328.75 20.05
L 328.05 20.05 Z"/>

<path fill="#3B3D35" stroke="none" d="
M 218.15 89
Q 219.4 87 221.7 87.5 235.25 90.2 233.15 105.6 233.1 106.1 232.85 106.55 231.251953125 109.6478515625 228.65 110.15 225.9859375 110.7111328125 222.25 108.5 220.05 107.7 218.4 106.1 218.0265625 105.738671875 217.65 105.35
L 217.65 107.1
Q 222.1470703125 111.111328125 228.05 111.25 229.5904296875 111.2705078125 231.2 111.05
L 231.35 110.45
Q 236.45 106.2 234.7 98.35 233.55 93.2 229.7 89.4 222.8056640625 82.7845703125 217.65 87.95
L 217.65 89.65
Q 217.8693359375 89.4044921875 218.05 89.1 218.1130859375 89.0560546875 218.15 89
M 221.85 91.15
Q 221.9671875 91.5013671875 222.45 92.2 222.585546875 92.4197265625 222.75 92.65
L 223.8 94.15 223.75 94.15
Q 223.75 94.7 224.3 95.45
L 225.7 97.5
Q 226.2255859375 98.4591796875 227.15 100
L 228.45 103.1 229.75 106.25
Q 229.9 106.1 229.8 105.6 229.2828125 103.8220703125 228.65 102.2 228.4599609375 101.6970703125 228.25 101.2
L 229.8 103.45
Q 229.4 101.95 227.8 99.7
L 226.85 98.3
Q 226.580078125 97.7853515625 226.25 97.2
L 224.65 94.35
Q 223.75 93.25 223.35 92.65 222.15 90.9 221.75 88.8
L 221.6 88.8 221.35 88.9
Q 221.55 90.45 221.85 91.15
M 238.4 70.1
Q 240.7484375 66.6466796875 239.7 63.9 239.1751953125 62.5384765625 238.6 61.3 232.01640625 47.8208984375 217.65 53.65
L 217.65 61.05
Q 218.1263671875 62.8380859375 218.9 64.3 221.226171875 68.7669921875 226.3 70.4 236.0546875 73.609765625 238.4 70.1
M 238.15 69.25
Q 237.6 70.15 236.6 70.65 227.4689453125 70.84140625 222.7 65.9 218.7791015625 61.7869140625 217.85 54.15 221.9 52 226.25 53 235.1943359375 55.1740234375 237.6 60.9 239.0970703125 64.41953125 238.15 69.25
M 235.7 67.05
L 235.65 67.3 235.6 68 235.45 68.5 235.45 68.95
Q 235.35 69.35 235.35 69.4
L 235.5 69.4 235.7 69 235.75 68.55 235.95 67.75
Q 236.046875 67.314453125 235.95 66.8
L 235.95 66.8 235.7 67.05
M 233.45 67.2
L 233.35 67.4
Q 233.223046875 67.9501953125 233 68.45 232.94609375 68.5580078125 232.9 68.65 232.8 68.95 232.85 69.1 233.1 69.05 233.2 68.7
L 233.3 68.4 233.5 67.75
Q 233.65 67.45 233.65 67.1
L 233.45 67.2
M 236.25 64.5
Q 235.9 63.8 235.5 63.5 235.3 63.3 235.15 63.45 235.55 63.75 235.85 64.55 235.9830078125 65.0380859375 236.2 65.9 236.2662109375 66.031640625 236.3 66.15
L 236.55 67.35
Q 236.75 68.5 236.65 70.05 236.75 70.15 236.9 70
L 236.95 69.75
Q 237.05 68.25 237 67.45
L 236.75 66.05 236.35 64.9 236.25 64.5
M 233.45 58.6
L 234.55 59.6
Q 235.7529296875 60.676171875 236.4 61.6 236.7666015625 62.123046875 236.95 62.6 237.2 63 237.4 62.95 237.1 62.2 236.45 61.15 236.3439453125 61.003515625 236.2 60.85 235.9169921875 60.4517578125 235.55 60.05 235.4416015625 59.92734375 235.3 59.8 234.608203125 59.024609375 233.7 58.25 233.45 58 232.45 57.25 231.55 56.65 229.65 55.75
L 226.75 54.45
Q 225.6 54.05 223.55 53.95 221.85 53.9 220.1 53.95 219.65 53.95 219.8 54.2
L 223.05 54.4
Q 225.05 54.55 226.3 54.95 227.3 55.25 228.35 55.8
L 231.2 57.15
Q 232.3 57.7 233.45 58.6
M 283.95 14.6
Q 284.95 17 287.45 20.65 290.65 25.25 292.25 26.8 292.5 27.05 292.65 27 288.55 22.05 285.05 16.05
L 284.25 14.5
Q 283.9 13.6 283.35 11.5
L 283 10.05 282.55 10.05
Q 282.582421875 10.123828125 282.6 10.2 283.25 12.95 283.95 14.6
M 292.2 22.85
Q 289.7 19.85 288.9 17.35 288.85 17.3 288.75 17.4 288.7 17.5 288.75 17.6 289.55 20.1 292.25 23.35 294.1 25.65 296.45 27.9 293.6 24.55 292.2 22.85
M 356.35 10.05
L 355.45 10.05
Q 355.877734375 10.5759765625 356.25 11.15 364.2 23.85 362.1 38.65 361.45 40.65 360.85 42.65 358.1986328125 51.0078125 352.55 56.05 353.3009765625 54.7953125 353.85 53.4 361 35 352.55 17.25 350.433984375 12.786328125 347.05 10.05
L 346.4 10.05
Q 347.09296875 10.755078125 347.6 11.6 351.0125 16.796875 353.05 22 359.7712890625 39.2994140625 351.5 56.95 346.2587890625 61.21171875 338.65 62.85 337.851171875 63.032421875 337.05 63.2 334.4796875 61.555859375 332.2 60.9 337.0138671875 60.148046875 342.25 57.9 353.9912109375 52.9025390625 353.45 39.1 353.4201171875 38.3109375 353.35 37.5 353.3013671875 36.5708984375 353.2 35.6 353.148828125 35.0384765625 353.05 34.45 353.130859375 34.3880859375 353.15 34.35 353.35 34.15 353.3 33.85 353.2 33.55 352.95 33.45
L 352.9 33.45
Q 352.2009765625 28.7607421875 350.55 24.45 347.6013671875 16.6177734375 341.6 10.05
L 339.65 10.05
Q 343.8658203125 15.0478515625 346.85 20.8
L 344.65 20.85 343.1 21.4
Q 342.7705078125 21.59765625 342.55 21.75 342.5869140625 21.358984375 342.6 20.95 342.6 19.15 342.25 16.7 342.15 15.8 341.85 15.45 341.35 14.85 341.35 14.75 341.3 14.45 341.2 14.35 340.92109375 14.1640625 340.7 14.5
L 340.7 14.55
Q 340.65 14.7 340.75 15.1
L 341.05 16.4
Q 341.45 18.05 341.5 19.75 341.565234375 21.840234375 341.15 23.5 340.9140625 24.3869140625 340.55 25.15 340.35 25.6 339.9 26.5 339.8482421875 26.6380859375 339.8 26.75 337.7853515625 26.7677734375 335.05 28.25 334.2787109375 28.703515625 333.45 29.25
L 334.3 26.7
Q 334.5732421875 25.558984375 334.55 24.35 334.5 21.55 332.95 19.25 332.28984375 18.291796875 331.4 17.75 330.4162109375 17.203125 329.15 17.15 329.2041015625 16.6388671875 329.15 15.8 328.8775390625 13.847265625 328.35 12.8 328.4912109375 12.7509765625 328.65 12.65 330.5 11.15 332.3 10.6 332.864453125 10.4671875 333.4 10.35 333.68125 10.33359375 333.95 10.3
L 335.55 10.05 331 10.05
Q 329.7658203125 10.6591796875 328.4 11.6 328.0689453125 11.8896484375 327.9 12.1 327.2994140625 11.372265625 326.05 10.35 325.8361328125 10.1947265625 325.6 10.05
L 323.45 10.05
Q 324.5216796875 10.673046875 325.45 11.45 326.75 12.5 327.25 13.45 327.65 14.15 328.05 15.65
L 328.45 17.2
Q 324.70390625 17.5291015625 321.65 19.2 319.1873046875 20.5724609375 317.2 22.85
L 315.95 21.05 314.95 19.65 312.2 19.6
Q 310.6166015625 19.7056640625 309.25 20.1 308.701953125 19.66796875 308 19.2
L 305.75 17.6
Q 303.05 15.45 302.9 13.15 302.85 12 303.4 10.95 303.6775390625 10.4412109375 304.05 10.05
L 302.5 10.05
Q 301.8 11.3798828125 301.8 13.35 301.7 14.9 302.25 15.95 302.65 16.7 303.65 17.6 304.6697265625 18.561328125 305.5 19.2 306.09921875 19.6578125 306.6 19.95 307.262109375 20.3546875 307.9 20.6 306.71640625 21.1181640625 305.7 21.9 303.0494140625 24.10546875 301.1 28.75 299.1505859375 33.392578125 299.7 34.6
L 298.95 35
Q 298.087890625 35.493359375 297.2 36.1 296.618359375 34.88828125 295.8 33.8 294.9822265625 32.6306640625 293.9 31.6 290.2 28.3 286.2 30.75
L 282.7 28.35
Q 277.4576171875 19.612890625 276.1 10.05
L 275.95 10.05
Q 276.3646484375 19.1541015625 280.3 27.05 279.748046875 26.95 278.8 26.95
L 276.4 26.95
Q 273.475390625 18.878515625 273.1 10.05
L 272.15 10.05
Q 271.3283203125 17.883984375 274.4 25.1 274.8044921875 26.0392578125 275.2 26.95 274.57109375 26.9880859375 274.2 27.05 271.95 27.45 269.5 29.7 269.1 29.95 268.95 30.35 268.85 30.6 268.85 31.1
L 268.9 35.8
Q 269.05 36.5 269.35 36.9 269.4759765625 37.1267578125 269.6 37.3 269.0349609375 37.48671875 268.45 37.75 266.55 38.65 265.75 39.9 265.4 40.4 265.05 41.4 263.9666015625 44.699609375 264.3 47.85 263.6861328125 47.731640625 263.05 47.65 256.85 47.8 251.85 51.65 249.3546875 53.6181640625 247.65 56.05 246.929296875 57.1208984375 246.35 58.25 244.873046875 61.1078125 244.75 63.15 245.3048828125 65.86328125 247.65 67.3 248.070703125 67.5794921875 248.55 67.8 248.31875 67.9427734375 248.1 68.05
L 247.95 68.15 247.95 68.15
Q 247.7986328125 68.2765625 247.65 68.35 243.62421875 71.1958984375 241.55 75.75 239.82265625 79.515234375 240.25 81.8 240.417578125 82.5447265625 240.75 83.1 241.6646484375 84.5763671875 243.9 85.1 244.2748046875 85.2103515625 244.65 85.25
L 245.65 85.4
Q 245.5275390625 85.720703125 245.45 86 245.337890625 86.605078125 245.4 87.15 243.9009765625 92.54609375 245.8 98.2 247.15 102.25 251.2 101.55 253.978515625 101.263671875 256.3 100.15 260.8982421875 97.9720703125 263.75 92.6 264.5654296875 91.0708984375 265.2 89.45
L 265.2 89.5
Q 265.85 90.7 266.15 91 266.8 91.75 268.1 92.2 269.6955078125 92.7982421875 271.35 92.7 268.920703125 93.16796875 266.85 94.15 262.6150390625 96.0708984375 262.05 99.15 262.0650390625 99.302734375 262.05 99.4 262 99.751171875 262 100.1 262 101.7939453125 263 103.35 262.9029296875 103.35 262.85 103.35 262.8 103.5 263.15 103.85 263.26953125 103.918359375 263.4 103.95 264.623046875 105.5537109375 266.85 107 271.7 110.05 278.55 110.65 285.4 111.25 290.25 109.05 295.1 106.75 295.1 103 295.1 102.9146484375 295.1 102.8 294.9896484375 99.18046875 290.25 96.2 285.4 93.05 278.55 92.45 275.5494140625 92.1873046875 272.9 92.45 273.4125 92.370703125 273.9 92.2 275 91.75 276.4 90.9 278.0833984375 89.8640625 279.6 88.45 279.8607421875 88.232421875 280.1 88 281.3048828125 86.8423828125 282.35 85.45 283.52421875 83.89609375 284.5 82.05 285.087109375 80.9619140625 285.5 79.95
L 286.45 80.65
Q 287.15234375 81.1251953125 287.9 81.35 286.445703125 83.207421875 286.6 85.45 286.769921875 87.4796875 288.25 89.8 288.33203125 89.913671875 288.4 90 292.3392578125 95.9630859375 301 97.45 309.784375 98.96171875 316.95 92.95
L 316.2 92.85
Q 315.95 91.75 315.8 90.7 315.55 89.3 314.9 88.25 314.6658203125 87.8513671875 314.4 87.45
L 316.7 88.85
Q 317.1 89.05 318 89.25
L 318.95 89.5
Q 321.3544921875 90.244921875 323.75 90.35 324.2501953125 90.35859375 324.75 90.35 328.45 90.25 331.5 87.9
L 331.95 87.85
Q 333.55 86.6 333.25 84.4 332.9517578125 82.29765625 332.35 80.5 335.0173828125 80.775390625 339 78.95 339.5138671875 78.69296875 339.95 78.45
L 343.9 74.95
Q 343.7755859375 75.759375 343.75 76.55 343.8109375 78.9345703125 345.05 81.15 346.15 83.1 348.6 85.15 350.398828125 86.6919921875 351.95 87.45 352.5552734375 87.7640625 353.1 87.95
L 355 86.85
Q 357.2 85.35 358.55 83.65 360.3 81.4 360.95 78.6 364.05 64.95 351.75 62.7 349.55 63.9 347.7 65.8 345.35 68.15 344.4 71.15
L 340.95 66.25
Q 340.13828125 65.429296875 339.1 64.65 347.488671875 62.7845703125 353.45 56.75 354.0943359375 57.0404296875 354.85 56.8 361.63671875 55.252734375 365.95 51
L 365.95 49.7
Q 362.295703125 52.5775390625 357.9 54.15
L 354.45 55.65
Q 366.0853515625 42.8220703125 364.15 25.85 363.0255859375 15.730078125 356.35 10.05
M 344.45 21.95
Q 344.75 21.75 345.5 21.75
L 347.25 21.65
Q 348.2732421875 23.66640625 349.1 25.75 350.582421875 29.291015625 351.6 33.1 351.7099609375 33.430859375 351.8 33.75
L 351.75 33.8
Q 350.617578125 34.2537109375 349.95 34.45 349.15 34.7 347.7 34.7 346 34.75 345.45 34.8 345.3994140625 34.8091796875 345.35 34.8 345.2435546875 33.5005859375 344.9 32.1 343.8333984375 27.7609375 341.1 26.95 341.206640625 26.793359375 341.3 26.6 341.675390625 25.8177734375 341.95 24.95 342.33515625 23.7408203125 342.5 22.35 342.584765625 22.4 342.7 22.4
L 343.7 22.25
Q 344 22.25 344.15 22.15
L 344.45 21.95
M 331.35 19.5
Q 331.2470703125 19.84296875 331.05 20.95 330.959765625 21.4751953125 330.85 22.15 330.6 23.75 330.2 24.7 329.55 26.25 327.75 28.35
L 327.2 29.05
Q 327.77890625 28.81171875 328.5 28.05 328.8671875 27.746484375 329.25 27.3 330.25 26 330.55 25.4 330.8318359375 24.8083984375 331.05 23.9 331.219140625 23.223046875 331.35 22.35 331.573046875 20.8845703125 331.75 20 333.3380859375 22.6732421875 332.95 25.95 332.85 26.9 332.65 27.5 332.552734375 27.752734375 332.45 28 331.89296875 29.580859375 331.05 30.9 329.0943359375 33.9876953125 325.6 35.7
L 321.1 32.2 317.55 29.4 317.5 24.15
Q 318.35 23.1 319.4 22.25 321.881640625 20.1115234375 324.75 19.2 327.320703125 18.384765625 330.2 18.55 330.8 18.7 331.2 19.2 331.2900390625 19.320703125 331.35 19.45
L 331.35 19.5
M 342.95 28.3
Q 343.25 29 343.45 29.75 346.176171875 39.54921875 339.7 44.45 337.79921875 45.9015625 335.05 46.9 334.5158203125 47.1177734375 333.95 47.3 333.815625 47.249609375 333.7 47.2 334.3271484375 46.70546875 334.9 46.15
L 334.75 46.4
Q 334.6 46.55 334.6 46.65 334.5 46.85 334.7 46.95
L 336 45.75
Q 336.9 44.85 337.05 44.65
L 337.15 44.5 338.1 42.8
Q 338.5642578125 42.1880859375 339 41.55 341.4 37.95 341.2 35.05 341 35.3 340.9 35.9 339.6552734375 40.82890625 336 44.25
L 336 44.3
Q 335.4759765625 44.78515625 335.05 45.15 334.3783203125 45.80234375 333.95 46.2 333.557421875 46.5755859375 333.2 46.9 331.9794921875 45.9783203125 331.05 44.7 329.682421875 42.8515625 329 40.3
L 327 36.65
Q 327.5 36.35 328 36.05 329.70703125 34.78359375 331.05 33.15 332.1462890625 31.7951171875 333 30.2 334.0123046875 29.5646484375 335.05 29.1 335.632421875 28.8708984375 336.2 28.65 339.4654296875 27.603125 342.95 28.3
M 332.2 48.25
Q 332.5103515625 48.0482421875 332.8 47.85 335.2931640625 48.9630859375 337.9 47.75 339.5078125 47.020703125 341.15 45.45 342.1208984375 44.5302734375 342.85 43.5 345.4833984375 40.0693359375 345.4 35.7
L 345.65 35.75 348.25 35.8
Q 349.5 35.9 350.35 35.65 350.45 35.6 351.6 35.2
L 351.95 35
Q 355.204296875 54.56484375 336.05 58.3 331.780078125 59.1716796875 327.65 59.15 327.4787109375 58.103125 327.25 57.6
L 326.9 56.85
Q 326.772265625 56.211328125 326.55 55.9
L 324.5 52.6
Q 325.2 52.6 325.9 52.65 327.26328125 52.7509765625 328.3 52.3
L 330.05 51 330.35 46.1
Q 330.6982421875 46.434375 331.05 46.7 331.80390625 47.3333984375 332.55 47.7 332.36484375 47.9890625 332.2 48.25
M 324.45 36.4
Q 325.1 37.1 325.7 37.95 329.9 43.6 328.95 50.6
L 326.1 51.3
Q 324.9689453125 51.52890625 323.8 51.7 323.65 51.5 323.5 51.35 321.4833984375 49.5478515625 319.05 48.25 318.63984375 48.0486328125 318.2 47.85 317.7341796875 47.6556640625 317.25 47.5
L 312.3 47.05 313.55 44.75
Q 313.6783203125 44.441796875 313.8 44.1 313.850390625 43.9900390625 313.9 43.85 314.5564453125 41.980078125 314.7 39.9
L 314.35 34.7 313.2 34 313.6 39.05
Q 313.4650390625 41.4166015625 312.7 43.6 312.6509765625 43.8185546875 312.55 44 312.455078125 44.3556640625 312.3 44.65 311.9 45.7 311.4 46.65 309.15 50.8 305.4 53.35 305.041015625 53.6255859375 304.75 53.75 304.5166015625 53.70546875 304.2 53.65 304.0408203125 53.6642578125 303.85 53.65 303.6232421875 53.65 303.35 53.65 302.0201171875 53.6041015625 300.75 53.65 300.4517578125 53.676953125 300.1 53.7 298.594921875 53.86484375 297.1 54.2 296.5658203125 54.3306640625 296 54.45 294.0759765625 55.036328125 292.25 55.9 292.1 55.7 292 55.5 290.85 53.4 291.15 50.9 291.15 50.860546875 291.15 50.8 291.3482421875 50.644921875 291.5 50.45 291.7359375 50.2345703125 291.9 50 292.123046875 49.771484375 292.3 49.5 292.366796875 49.9765625 292.4 50.45 292.433984375 50.61953125 292.45 50.8 292.48359375 50.6642578125 292.5 50.5 293.1365234375 47.7919921875 292.55 45.3 292.8697265625 44.9166015625 293.05 44.35 293.06015625 44.3060546875 293.05 44.25 293.3583984375 43.0296875 293.6 42.45 293.6419921875 42.366015625 293.75 42.15 294.113671875 41.632421875 295.05 40.3 295.5658203125 39.655078125 295.95 38.9 297.8357421875 37.2232421875 299.95 36.05 300.2244140625 35.9509765625 300.5 35.8
L 303.35 34.8
Q 307.6734375 33.544140625 312.25 33.85
L 313.05 33.95 310.2 33.1
Q 310.55 32.7 310.95 32.4 311.2654296875 32.21640625 311.55 32.05 313.7 30.95 316.2 31 318.390625 31.0912109375 320.1 32.4 320.155078125 32.42109375 320.15 32.45 320.3181640625 32.539453125 320.45 32.65 322.4875 34.4560546875 324.45 36.4
M 350.3 64.7
Q 351.234375 63.935546875 352.3 63.25 354.95 63.85 356.4 65.7 363.67734375 75.0166015625 357.3 82.2 355.703515625 83.9876953125 353.25 85.65 352 85.05 350.75 84.45 345.75 81.9 345.15 76.3 345.15 69.109375 350.3 64.7
M 324.5 55.25
L 324.6 55.6 325.2 56.2 325.65 57.1 326.7 60.3
Q 326.7234375 60.3796875 326.75 60.45 324.279296875 60.4982421875 322.1 60.9 318.9185546875 61.475 316.35 62.8 316.209375 62.8875 316.05 62.95 315.2109375 63.4158203125 314.45 63.95 314.39765625 63.9912109375 314.35 64 313.486328125 64.7302734375 313.25 65.25 313.1119140625 65.6640625 313.1 66.55 309.7283203125 66.141796875 306.75 65 306.6556640625 64.9685546875 306.55 64.95
L 307.85 62.95
Q 308.2220703125 62.2802734375 308.35 61.95 308.4244140625 61.8640625 308.45 61.8 308.5759765625 61.3796875 308.6 60.55 308.6 60.417578125 308.6 60.25 308.5978515625 60.1740234375 308.6 60.1 308.5873046875 59.906640625 308.55 59.7 308.528125 58.9080078125 308.4 58.2 308.3818359375 58.0353515625 308.35 57.85 308.301953125 57.29296875 308.15 56.75 307.6458984375 55.1619140625 306.05 54.25 309.95 51.85 312.05 47.8
L 315.55 48.45 317.15 48.75
Q 317.715625 49.03359375 318.7 49.5 318.7611328125 49.562109375 318.8 49.6 319.4654296875 49.9849609375 320.15 50.35 323.1 52.05 324.5 55.25
M 331.05 62.1
Q 331.301171875 62.142578125 331.55 62.2 333.266015625 62.616015625 335 63.55 336.1529296875 64.1712890625 337.3 65 337.7982421875 65.3501953125 338.3 65.75 339.495703125 66.668359375 340.4 67.6
L 343.15 71.8 343.25 71.9 344.05 73.1
Q 343.8 73.4 343.55 73.75 342.2 75.85 339.7 77.15 339.1158203125 77.52265625 338.45 77.85 338.3455078125 77.90390625 338.25 77.95 335.33515625 79.4052734375 332.15 79.55 332.0974609375 79.555859375 332.05 79.55 331.612890625 78.41640625 331.05 77.4 326.8642578125 69.8154296875 315.7 69.95 315.51328125 69.944921875 315.3 69.95 315.405859375 69.8927734375 315.5 69.8 315.5509765625 69.7359375 315.6 69.65 314.8 69.45 314.4 68.3 314.3400390625 68.146875 314.3 68 314.191796875 67.68515625 314.15 67.4 314.105078125 67.1765625 314.1 66.95 314.0765625 66.643359375 314.15 66.35 314.4896484375 65.330859375 316 64.45 316.053125 64.4263671875 316.1 64.4 317.0900390625 63.85 318.15 63.4 318.9115234375 63.1060546875 319.7 62.85 323.2779296875 61.6845703125 327.5 61.75 329.33203125 61.75 331.05 62.1
M 328.95 86.3
Q 326.9677734375 85.912109375 325.55 85.45 325.3572265625 85.3759765625 325.15 85.3 325.0451171875 85.2642578125 324.95 85.2 322.5240234375 84.3744140625 319.65 82.65 316.2 80.45 314.45 79.35 314.2 79.1 314 79.3 313.75 79.45 314.25 79.85 316 81.05 318.45 82.6 320.7056640625 83.96953125 322.6 84.85 323.2984375 85.1912109375 323.9 85.45 324.8541015625 85.8365234375 325.7 86.1 325.969140625 86.1791015625 326.25 86.25 327.732421875 86.6474609375 329.5 86.9 329.8208984375 86.96015625 330.1 87 324.7056640625 89.79296875 319.05 88.2 317.8443359375 87.85859375 316.6 87.3 316.45078125 87.2337890625 316.3 87.15
L 314.3 86
Q 313.65 85.65 313.35 85.9 313.18359375 85.6716796875 313 85.45 311.36875 83.2830078125 309.45 81.75 302.8228515625 76.4919921875 293 78.75 291.3521484375 79.1486328125 289.6 79.75 289.1064453125 80.1212890625 288.7 80.5 288.091796875 80.301953125 287.75 80.15 287 79.85 286.55 79.4
L 286.15 79.05 285.9 78.9
Q 286.5935546875 76.944140625 286.65 75.25 286.65625 75.0015625 286.65 74.75 286.6353515625 73.5326171875 286.35 72.4
L 286.65 72.4
Q 286.5419921875 72.00703125 286.4 71.6 286.6705078125 71.141015625 287.9 70.6 293.5 68.3 296.65 68.15
L 298.35 68
Q 298.6849609375 68.15 299.1 68.15
L 301.75 68.2
Q 301.7783203125 68.2783203125 301.85 68.35 304.85 68.5 307.5 69.95 308.8 70.75 309.2 70.9 309.475 71.023828125 309.7 71.1 309.7833984375 71.1833984375 309.9 71.3
L 310.25 71.65
Q 309.4 72.5 309.2 73.55 309.15 73.8 309.15 75.15
L 309.25 77.15 309.4 79.55 309.85 79.55
Q 309.9947265625 78.6337890625 310.05 77.9 310.15 77.1677734375 310.15 76.65 310.1 75.7 310.1 75.2 310.15 74.3 310.35 73.7 310.75 72.45 312.35 71.75 313.1580078125 71.41953125 314.3 71.25 316.6 71.3 318.85 71.65 328.662890625 72.9267578125 331.05 79.95 331.93515625 82.55625 331.8 85.95 331.515234375 86.19921875 331.2 86.4 331.0796875 86.4779296875 330.95 86.55 330.8431640625 86.61171875 330.7 86.65 330.4369140625 86.618359375 330.1 86.55 329.5810546875 86.440234375 328.95 86.3
M 314.85 21.25
Q 315.3955078125 22.26875 315.9 23.35 317.4 26.45 317.15 29.75 316.55 29.7 315.95 29.65 313.3 29.45 311.1 30.75 310.5697265625 31.112109375 310.05 31.6
L 309.25 32.95
Q 306.9716796875 32.7404296875 304.8 33
L 301.05 33.9
Q 301.3 31.9 301.8 29.95 303.6244140625 22.257421875 311.5 20.7
L 314.4 20.45
Q 314.6234375 20.8408203125 314.85 21.25
M 295.3 35.05
Q 295.9099609375 35.88984375 296.4 36.85 295.9 37.4 295.5 38 295.1 38.55 294.9 39.2 294.875390625 39.2736328125 294.85 39.35
L 293.55 41
Q 293.3435546875 41.32265625 293.2 41.55 292.737109375 42.262890625 292.7 42.3 292.55 42.7 292.4 43.5
L 292.4 43.5
Q 292.3181640625 43.93515625 292.25 44.25 291.91484375 43.3 291.4 42.4 290.57734375 40.9455078125 289.3 39.6 289.2087890625 39.5072265625 289.1 39.4 288.69453125 39.0009765625 288.25 38.6 287.2076171875 37.7623046875 286.05 37.15 285.9861328125 36.9720703125 285.9 36.8
L 285.7 36.2 285.65 34.1 285.7 33.65 285.7 33.75 286.3 33.75 286.3 33.65 286.6 32.45 287.1 32.2 287.1 31.7
Q 287.8 30.8 288.95 30.9 292.9498046875 31.819921875 295.3 35.05
M 285.6 32.85
Q 285.414453125 33.0576171875 285.15 33.3 285 33.6 285 34.2
L 285.05 36.5 285.15 36.7
Q 283.838671875 36.1548828125 282.4 35.9 281.3740234375 35.7044921875 280.45 35.6 280.138671875 35.59609375 279.8 35.55 276.6140625 35.4587890625 275.2 37 275.1013671875 36.8 274.65 36.8 272.528125 36.534765625 270.5 37.05 270.0517578125 36.333203125 269.9 35.65 269.8 35.15 269.8 34.2
L 269.8 32.05
Q 269.8 31.25 269.95 30.95 270.2 30.35 271 29.9 272.75 28.7 274 28.3 274.657421875 28.1435546875 275.75 28.05 276.2482421875 28.0556640625 276.85 28.05 277.016015625 28.05 277.2 28.05
L 279.8 28.15
Q 280.31328125 28.3009765625 280.9 28.6
L 285.5 32.1 285.6 32.85
M 285.75 38.35
L 285.8 38.55 286 38.5
Q 286.483984375 38.7818359375 286.9 39.1 291.2771484375 42.24296875 292.25 49.3 291.930859375 49.517578125 291.6 49.7 291.3451171875 49.8265625 291.1 49.95 291.0662109375 49.942578125 291 49.95 290.99140625 49.941796875 290.95 49.95 290.7 49.95 290.6 50.15
L 290.6 50.15
Q 289.3583984375 50.7216796875 288.15 51
L 286.65 51.3
Q 280.2265625 52.0845703125 275.4 45.25
L 275.2 44.25 275.35 44.3
Q 275.2 43.95 275.1 43.65
L 274.9 42.55
Q 274.873828125 42.7078125 274.85 42.85 274.2361328125 40.51328125 275.05 38.2 276.05 36.6 277.95 36.6 279.3185546875 36.605078125 280.55 36.75 280.8751953125 36.791796875 281.2 36.85 283.7578125 37.264453125 285.75 38.35
M 265.2 49.45
Q 265.791796875 49.45 266.2 49.3 265.9375 49.7314453125 265.65 50.2 265.279296875 50.990625 264.9 51.9
L 265.15 54.5
Q 265.262890625 52.9326171875 265.8 51.55 266.8357421875 49.0884765625 269.25 47.25 270.75 46.1 272.45 47.05 277.794140625 49.9708984375 280.2 54.4 282.1 57.4 282.05 61.1 282 63.85 281.9 66.65 281.4845703125 66.6404296875 281.05 66.65 279.344140625 66.6580078125 277.65 66.9 275.5 67.2 273.4 67.85 271.9396484375 68.562890625 270.55 69.6 268.9005859375 67.923046875 267.8 65.9 266.890234375 64.2958984375 266.35 62.45 266.15 61.8 265.95 61.2 265.7240234375 60.59296875 265.55 59.95 265.1076171875 58.4146484375 265 56.8
L 264.45 57.3 264.5 61
Q 263.65 61.95 262.55 63.05 260.8623046875 64.6111328125 258.85 65.15 255.76640625 64.8087890625 252.7 65.95 252.5607421875 66.0341796875 252.4 66.1
L 249.4 67.45 249.1 67.55
Q 248.6 67.2 248.15 66.85 247.88046875 66.6583984375 247.65 66.45 246.25703125 65.1666015625 246.3 63.15 246.82421875 60.985546875 247.65 59.15 251.708203125 50.134375 263.05 49.05 263.3017578125 49.1013671875 263.55 49.15
L 265.2 49.45
M 265.2 48.05
L 265.7 44.1
Q 266 41.6 266.75 40.45 267.85 38.75 270.35 38.1 271.15 37.85 274.7 37.5 274.7486328125 37.5 274.8 37.5 273.40625 39.64609375 274.6 44.2
L 274.8 44.2
Q 274.8822265625 46.135546875 275.95 47.65 270.3189453125 43.12265625 266.55 48.7 266.33046875 48.505859375 265.85 48.3 265.5271484375 48.1796875 265.2 48.05
M 281.1 53.75
Q 280.156640625 51.9970703125 278.8 50.45 278.505859375 50.1134765625 278.2 49.8 279.619921875 50.754296875 281.6 51.5 282.6697265625 51.909765625 283.65 52.15 283.65 52.2248046875 283.65 52.3
L 283.65 52.35
Q 283.75 54.65 283.15 56.85 283 57.5 282.75 58.1
L 281.1 53.75
M 266.05 65.15
Q 266.1810546875 65.490625 266.3 65.8 267.35 68.5 269.5 70.4
L 266.65 73.2
Q 266.15 71.45 265.7 69.7 265.35 68.5 264.45 67.75
L 260.75 65.55 264.8 62.05
Q 265.4310546875 63.564453125 266.05 65.15
M 264.75 73.15
Q 264.35 72.95 263.95 72.75 263.0119140625 72.41015625 262.05 72.3 259.609375 72.057421875 257.2 73.55 254.75703125 74.8044921875 253.1 77.15
L 249.15 80.05
Q 249.0556640625 80.1564453125 248.95 80.25 248.271484375 81.0658203125 247.65 81.95 246.6921875 83.2927734375 245.9 84.8
L 245.05 84.4
Q 244.080078125 83.8708984375 243.65 83.05 243.297265625 82.3640625 243 81.7 240.306640625 74.67421875 247.65 69.3 247.9658203125 69.1015625 248.3 68.85
L 248.35 68.9
Q 249.049609375 68.43359375 249.7 68.05
L 250.4 68.15 249.9 67.95
Q 250.9916015625 67.36953125 251.95 67.05 253.8736328125 66.3041015625 257.55 65.9
L 258.45 66.35
Q 259.377734375 66.3328125 260.2 66.55 261.8544921875 66.9873046875 263.2 68.3 263.55 68.65 263.7 69.15 264.35 71.1 264.75 73.15
M 270.4 70.85
Q 270.490234375 70.8390625 270.55 70.8
L 271.45 70.55 271.45 70.15
Q 272.500390625 69.459765625 273.6 68.9 277.2712890625 66.6673828125 281.65 67.45 281.7154296875 67.493359375 281.75 67.5
L 281.95 68.8 282.55 67.85 284 69.15 284.1 69.75
Q 284.2751953125 70.3755859375 284.55 71.15 284.607421875 71.295703125 284.65 71.4 285.2087890625 72.870703125 285.3 73.6 285.45 74.7 285.2 76 285.00390625 77.1982421875 284.6 78.3 284.589453125 78.4013671875 284.55 78.5 284.5345703125 78.56171875 284.5 78.6 284.0845703125 79.9328125 283.4 81.15 283 81.9 281.5 84.1 280.9046875 84.90234375 280.45 85.45 280.0912109375 85.960546875 279.85 86.25
L 278.9 87.1 278.1 87.85
Q 275.8 89.8 273.75 90.7 271.05 91.8 268.65 91.15 266.60859375 90.5181640625 265.4 88.9 266.0009765625 87.2931640625 266.35 85.6 266.40546875 85.5369140625 266.4 85.45 266.5228515625 85.0767578125 266.6 84.7 266.9099609375 83.2005859375 267.05 81.7 267.1 80.9 267.1 80.1 267.05 77.6 267.4 75.2 267.7912109375 72.6564453125 270.4 70.85
M 260.45 74.5
Q 261.3033203125 74.400390625 262.15 74.4 262.8677734375 74.45859375 263.6 74.6 264.55 74.8 265.1 75.7 266.7 78.4 266.2 81.55 266.202734375 81.6111328125 266.2 81.65 266.0548828125 83.60859375 265.6 85.45 265.5744140625 85.5509765625 265.55 85.65 265.0583984375 87.5109375 264.25 89.25 261.6298828125 94.948828125 257.1 97.95 254.71484375 99.5548828125 251.8 100.4 250.25 100.8 249.3 99.7 243.2484375 92.825390625 247.65 83.75 247.7943359375 83.45 247.95 83.15
L 247.8 83
Q 247.7248046875 83.0751953125 247.65 83.15 247.5623046875 83.2376953125 247.45 83.3 247.5623046875 83.21171875 247.65 83.1 249.041796875 81.316796875 250.6 79.7 251.6712890625 78.60078125 252.8 77.55 252.6302734375 77.88359375 252.45 78.2 255.103125 76.4013671875 258.05 75.25 259.2458984375 74.7185546875 260.45 74.5
M 267.65 94.75
Q 272.15 92.8 278.55 93.35 284.95 93.9 289.5 96.65 294 99.4 294 102.7 294 103.2501953125 293.85 103.75 293.2498046875 106.325 289.5 107.95 284.95 109.9 278.55 109.35 272.15 108.8 267.65 106.05 266.3701171875 105.2765625 265.45 104.45
L 267.1 105.05 269.05 105.35 271.2 105.95
Q 271.8896484375 106.1490234375 272.6 106.3 277.1306640625 107.271875 283.65 106.8 284.05 106.8 283.85 106.6 282.45 106.45 279.55 106.4 276.65 106.35 275.2 106.15 274.9326171875 106.1203125 274.6 106.05 272.8650390625 105.8162109375 269.8 105.05
L 264.7 103.7
Q 263.428125 102.324609375 263.15 100.8 263.1 100.4025390625 263.1 100 263.1 96.7 267.65 94.75
M 304.2 55.05
Q 304.253125 55.08828125 304.3 55.1 304.72890625 55.2072265625 305.1 55.4
L 306.65 57.2 306.7 57.25
Q 306.9998046875 57.9962890625 307.1 59 307.136328125 59.0787109375 307.15 59.15
L 307.15 59.2
Q 307.1849609375 59.53203125 307.2 59.8 307.19921875 59.891796875 307.2 59.95 307.2033203125 60.359765625 307.15 60.6 307.1134765625 60.9099609375 306.95 61.35 306.6671875 62.10625 306 63.25
L 303.5 67.1
Q 303.377734375 67.30390625 303.3 67.45 302.9037109375 67.4806640625 302.5 67.55 301.5265625 67.4841796875 300.35 67.45 300.54609375 67.3419921875 300.7 67.2 300.25 66.6 298.9 66.6 292.1 66.75 286.4 70.3 286.1556640625 70.45546875 285.95 70.6 285.6341796875 69.901171875 285.15 69.25
L 282.85 66.95
Q 283.3 66.2 283.8 65.5 285.023046875 63.6755859375 286.4 62.15 290.9890625 57.2564453125 297.45 55.6 298.100390625 55.4537109375 298.75 55.3 299.4640625 55.179296875 300.2 55.05 300.2884765625 55.06796875 300.35 55.05 301.6697265625 54.9693359375 303.05 55 303.800390625 55 304.2 55.05
M 311.15 67.55
Q 312.16640625 67.7708984375 313.15 67.7 313.2474609375 68.3333984375 313.35 68.65 313.36875 68.7720703125 313.4 68.85 313.7 69.65 314.3 69.95 314.3392578125 69.976171875 314.35 70 313.0544921875 70.12890625 312.15 70.45 311.6060546875 70.6478515625 311.1 70.95 311.15625 70.7859375 311.05 70.6 310.7 70.3 310.55 70.15
L 309.35 69.5
Q 307.1 68.2 306 67.85 305.392578125 67.6525390625 304.8 67.55 305.340234375 66.9005859375 306 65.75 308.5720703125 67.1341796875 311.15 67.55
M 290.55 51.35
L 290.8 55.55 291.55 56.3 289.65 57.75
Q 288.1 56.9 287 55.45 286.1 54.35 285.3 53.2 286.95 53.7 288.35 52.85 289.45 52.1 290.55 51.35
M 287.8 57.55
Q 288.3 58 288.9 58.45
L 283 64.95 284.45 53.45
Q 285.8 55.8 287.8 57.55
M 298.2 79.55
Q 298.6400390625 79.5517578125 299.05 79.55 303.304296875 79.5505859375 307.8 81.65
L 308.35 81.7
Q 309.410546875 82.455078125 310.25 83.35 310.9013671875 84.0029296875 311.4 84.7 311.6716796875 85.082421875 311.9 85.45 312.3759765625 86.21171875 312.75 87.05 313.83125 89.573046875 314.85 92.15 314.43828125 91.95 313.7 91.95 311.35 91.75 306.5 90.55
L 297.1 88.1
Q 296.25 87.8 294.9 87.2 293.25 86.45 292.7 86.2 292.1673828125 85.9478515625 291.2 85.6 290.9986328125 85.527734375 290.75 85.45 290.153515625 85.2404296875 289.4 85 289.474609375 85.2423828125 289.65 85.45 289.954296875 85.79921875 290.55 86.05
L 292.05 86.5 292.05 86.5
Q 292.749609375 86.7294921875 294.55 87.8 296.45 88.85 299.6 89.6 301.35 90.05 304.9 90.9
L 307.2 91.5 307.2 91.55 308.2 91.8
Q 308.9498046875 91.9990234375 309.8 92.15
L 311.3 92.5 311.8 92.55 311.8 92.4
Q 312.8875 92.547265625 314.1 92.6 314.7099609375 92.6 315 92.5 315.0685546875 92.6115234375 315.1 92.7 315.2552734375 93.08828125 315.4 93.45 314.1 94.6 312.6 95.15 296.3 100.35 287.85 85.95 287.696484375 85.6916015625 287.6 85.45 287.101953125 84.196484375 288.15 83.4 289.23984375 82.5931640625 290.35 81.95 294.1466796875 79.7798828125 298.2 79.55
M 263.2 76.5
Q 261.4900390625 76.934765625 261 78.65 260.75 79.45 260.9 80.5 261.05 81.55 261.05 81.6 261.1 81.9 261.1 83.45 261.0640625 84.1671875 261.05 85.45 261.0859375 85.9560546875 261.1 86.55
L 260.9 87.5 260.7 88.75 260.3 89.5
Q 258.4 92.65 256.1 95.25 255.65 95.8 255.65 96.1 255.95 96.3 256.15 95.85 258.641796875 93.120703125 260.3 90.45 260.0431640625 91.51171875 259.8 92.15 259.3 93.65 258.45 95 258.95 94.75 259.55 93.75 260.7 91.7 261.25 89.05 261.2765625 88.913671875 261.3 88.75 261.83125 87.7806640625 262.25 86.8
L 262.75 85.65
Q 262.7919921875 85.5494140625 262.8 85.45 264.2513671875 81.994140625 264.3 80.05 264.1 79.95 264 80.15 263.9 80.25 263.9 80.5 263.75 81.9 262.75 84.4 262.5142578125 84.9599609375 262.3 85.45 261.827734375 86.551171875 261.45 87.3 261.5228515625 86.7806640625 261.55 86.2 261.5818359375 85.8337890625 261.6 85.45 261.640625 83.9275390625 261.6 82 261.6 81.2 261.5 80.75 261.35 80.15 261.35 80.05 261.15 78.85 262.4 77.5 262.88125 77.01875 263.25 76.85 263.383203125 76.7759765625 263.5 76.75
L 263.3 76.5
Q 263.2642578125 76.5080078125 263.2 76.5
M 277.55 85.65
Q 277.65390625 85.553125 277.75 85.45 278.485546875 84.73359375 279.25 83.7 279.9416015625 82.844921875 280.65 81.75 283.4 77.4 285 74.2 284.25 74.65 283.3 76.3 281.4986328125 79.5236328125 280.25 81.4 280.21484375 81.5013671875 280.15 81.6 278.615234375 83.80390625 277.05 85.45 276.62578125 85.8955078125 276.2 86.3 276.85 86.35 277.55 85.65
M 282.45 76.9
L 282.8 76.1
Q 282.575 76.2125 282.35 76.5 282.3125 76.5875 282.25 76.7 282.05 77.25 281.9 77.5 281.6 78.25 280.75 79.1
L 279.75 80.25 278.55 82.05 275.25 85.35
Q 275.1970703125 85.39921875 275.15 85.45 273.7998046875 86.6603515625 270.55 88.75 270.371875 88.9060546875 270.15 89.05
L 269.35 89.5
Q 268.7 89.7 268.6 89.9 269.2 90.2 270.4 89.55
L 271.65 88.75
Q 272.1884765625 88.4177734375 272.75 88 274.296484375 86.9568359375 276 85.45 276.4033203125 85.1111328125 276.8 84.75 277.1017578125 84.466015625 277.35 84.2 278.6509765625 82.919140625 279.35 81.85 279.548046875 81.5388671875 279.85 81.05 280.0677734375 80.7060546875 280.35 80.25
L 280.55 80 281.4 79.05
Q 281.8 78.5 282.25 77.4
L 282.45 76.9
M 278.2 68.85
L 275.8 70
Q 274.198046875 71.156640625 272.9 72.75 271.9953125 73.845703125 271.25 75.15
L 268.35 80.95
Q 267.6421875 82.7818359375 267.3 85 267.2796875 85.2205078125 267.25 85.45 267.2248046875 85.673046875 267.2 85.9
L 267.55 85.9
Q 267.5779296875 85.6818359375 267.6 85.45 267.7296875 84.8521484375 267.9 84.15 268.43125 82.366015625 269.55 79.95 269.619921875 79.77109375 269.7 79.6 271.1 76.6 271.95 75.15 272.6513671875 74.01328125 273.4 73.05 274.198046875 72.0986328125 275.05 71.35
L 278.2 68.85
M 245.1 72.25
L 244.8 74.05
Q 244.5 76.6 244.65 77.65 245.1064453125 79.807421875 246.8 80.9 247.19140625 81.1212890625 247.6 81.3 247.362890625 81.051171875 247.15 80.8 245.55859375 79.033984375 245.25 77.8 245 76.85 245.2 74.55
L 245.45 72.25 245.1 72.25
M 268.8 48.3
Q 268.7 48.45 268.7 48.85 268.65 49.4 268.35 50.45 268.3 51.2 268.65 52 269.3 53.5 271.2 56.1
L 276.35 62.2 277.4 63.45 276.65 62.4 274.8 59.95
Q 273.96328125 58.955859375 273.5 58.35
L 271.3 55.35
Q 269.7 53.05 269.15 51.75 268.95 51.25 268.85 50.7 268.85 50.65 269 49.6
L 269.3 48.6
Q 269.3 48.25 269.25 48.15 269.15 48.1 269 48.15 268.85 48.2 268.8 48.3
M 250.2 63.1
L 250 63.15 250 63.75 250.1 63.95 250.2 63.95 250.3 63.75 250.3 63.3 250.2 63.1
M 254.65 54.1
Q 254.35 53.8 253.75 54.4 249.95 58.1 248.85 61.25 248.15 63.5 248.35 65.7 248.6 65.5 248.6 65 248.65 62.1 250.55 58.95 251.9 56.85 254.65 54.1
M 284.4 42.3
Q 284.2130859375 42.4115234375 284 42.55
L 283.25 43.25
Q 283.6423828125 42.873046875 283.75 42.55 283.5 42.5 283.1 43 281.9 43.95 281.65 44.65
L 281.55 45.3
Q 281.45 45.6 281.1 46.15 280.85 46.6 281 47.05
L 281.15 47.05
Q 281.1 46.85 281.25 46.55 281.4 46.25 281.45 46.1 281.6 45.85 281.75 45.3 281.9 44.7 282.05 44.45 282.25 44.15 282.95 43.55 283.018359375 43.4921875 283.05 43.4 282.929296875 43.6517578125 282.65 44.25
L 281.9 45.7
Q 281.6 46.4 281.75 46.75
L 283.3 43.65
Q 283.55 43.35 284.25 42.85 284.4462890625 42.697265625 284.6 42.55 284.7951171875 42.4498046875 284.95 42.35 285.4150390625 42.048046875 285.8 41.9
L 285.65 41.7
Q 285.262109375 41.8193359375 284.75 42.1 284.5865234375 42.1884765625 284.4 42.3
M 313 23.45
Q 313.5 22.4 313.3 21.65 311.55 26 309.25 29.85 308.7 30.95 308.7 31.35 311.3 27.55 313 23.45
M 292.95 71.4
Q 292.8 71.45 292.85 71.6 293.85 72 295.3 72.1 296.15 72.1 297.85 72.1 299.8 72.2 303.6 73
L 307.05 73.75
Q 305.85 73.05 303.6 72.5 300.95 71.8 299.4 71.65 298.6 71.55 296.35 71.55 294.4 71.55 293.3 71.35 293.15 71.3 292.95 71.4
M 328.05 87.4
Q 327.2 87.1 325.65 86.95 323.75 86.75 323.15 86.6 321.95390625 86.3341796875 320.2 85.45 319.5341796875 85.1111328125 318.75 84.65 318.5767578125 84.5626953125 318.35 84.45 318.3330078125 84.41953125 318.3 84.4 317.4 83.9 316.95 84.1 316.9921875 84.132421875 317 84.15 317.21640625 84.3009765625 317.4 84.4 318.18515625 84.989453125 319.05 85.45 320.90546875 86.4388671875 323.15 87 324.65 87.35 327.75 87.55 328.15 87.55 328.05 87.4
M 331.05 71.9
Q 331.663671875 71.97578125 332.3 72.05
L 334.85 72.3
Q 338 72.55 340.85 72.25 340.85 72.2064453125 340.85 72.15 340.781640625 71.9 340.3 71.9 337.3564453125 71.8189453125 334.65 71.6 332.7921875 71.4876953125 331.05 71.3 324.2916015625 70.557421875 319.1 69 318.9 68.9 318.7 68.95 318.45 69.05 318.55 69.25
L 318.75 69.4
Q 322.9783203125 70.8869140625 331.05 71.9
M 315.65 52.4
Q 315.375390625 52.3384765625 315.1 52.25 314.015234375 51.959375 312.9 51.8 312.05 51.55 311.2 51.6
L 314.85 52.7 315.3 52.85
Q 315.4626953125 52.8962890625 315.6 52.95 316.175 53.190625 316.75 53.45 317.0048828125 53.57734375 317.25 53.7 317.3380859375 53.742578125 317.4 53.8 318.8703125 54.509375 321.5 56.2
L 324.65 58.25
Q 323.9 57.1 321.4 55.45 319.3890625 54.18828125 317.65 53.3 317.387890625 53.1923828125 317.1 53.05 316.524609375 52.782421875 315.95 52.55 315.7978515625 52.48359375 315.65 52.4
M 357.3 79.35
L 357.5 79.05
Q 357.9 78.55 358 78.25 357.85 78.15 357.7 78.45 357.5296875 78.6689453125 357.3 79 357.0580078125 79.3623046875 356.75 79.85 356.2 80.85 355.8 81.25
L 355.85 81.4
Q 356.2 81.35 356.5 80.7
L 357.3 79.35
M 357.3 76.9
L 357.15 75.95 356.85 75.95
Q 357 77.15 355.8 78.85
L 355.05 79.7 354.9 79.9
Q 354.55 80.3 354.55 80.95 354.8 80.8 355.05 80.5 355.908984375 79.5775390625 356.45 78.8 356.75 78.38203125 356.95 78 357.25 77.3 357.3 76.9
M 351.6 65.95
Q 351.711328125 65.21953125 351.85 64.15 351.65 63.95 351.4 64.5 351.2673828125 65.0052734375 351.15 65.55 350.74921875 68.2791015625 351.5 71.95 351.65 72.75 352.35 75.6 352.85 77.85 353.1 79.3 353.25 77.25 352.4 73.45 351.5 69.45 351.5 67.6 351.5 67.1470703125 351.6 65.95
M 325.65 43.25
Q 324.6505859375 42.27265625 324.3 42 323.35 41.25 322.05 40.6 320.45 39.75 318.85 39.25 318.75 39.85 319.85 40.2 322.7 41.2 325 43.35 325.33359375 43.66875 325.65 44 327.4279296875 45.9076171875 328.45 48.25 328.6 47.1 327.85 45.9 327.4 45.1 326.25 43.85 325.9189453125 43.5189453125 325.65 43.25
M 302.35 45.2
L 303.1 44.6
Q 306.8 41.65 308.45 40.1 311.3 37.5 313.1 35 313.1 34.9 312.95 34.85 312.8 34.75 312.7 34.8 312.55 34.85 312.35 35.15 310.6 37.55 306.45 41.1
L 303.75 43.3
Q 301.35546875 45.1197265625 299.2 47.15 298.3736328125 47.9787109375 297.55 48.8 297.21171875 49.2037109375 296.85 49.6
L 301.3 46.05
Q 301.1875 46.15 301.1 46.25
L 301.15 46.4 302.2 45.55
Q 302.35 45.45 302.4 45.4
L 302.5 45.2
Q 302.46328125 45.16328125 302.35 45.2
M 329.25 28.85
Q 329.5 28.65 330 28.3 330.4 27.8 330.05 27.2
L 329.8 27.25
Q 329.8 27.75 329.45 28.1
L 328.95 28.45 328.55 28.95
Q 327.9 29.85 327.15 30.4 326.75 30.6 326.8 30.9 328.05 30.5 328.8 29.45
L 329.25 28.85
M 347.8 27.65
Q 347.8 27.15 347.7 26.9
L 347.55 26.95 347.55 30.55 347.7 30.55
Q 347.8 30.35 347.8 29.85
L 347.8 27.65 Z"/>

<path fill="#D69666" stroke="none" d="
M 222.45 92.2
Q 221.9671875 91.5013671875 221.85 91.15 221.55 90.45 221.35 88.9
L 221.6 88.8
Q 221.6 88.504296875 221.6 88.25 226.35 90.5 228.95 93.6 230.9 96 232.8 100.55
L 232.8 105.45
Q 231.15 105.1 230.45 104.35 229.65 103.25 228.75 102.3
L 228.75 102
Q 228.7005859375 102.1015625 228.65 102.2 229.2828125 103.8220703125 229.8 105.6 229.9 106.1 229.75 106.25
L 228.45 103.1
Q 228.221875 104.8365234375 229.1 107.8 229.1619140625 109.0236328125 228.65 110.15 231.251953125 109.6478515625 232.85 106.55 233.1 106.1 233.15 105.6 235.25 90.2 221.7 87.5 219.4 87 218.15 89 218.1130859375 89.0560546875 218.05 89.1 219.1525390625 89.2404296875 220.4 90.95 222.4 93.7 222.45 93.75
L 222.45 92.2
M 236.2 60.85
Q 236.3439453125 61.003515625 236.45 61.15 237.1 62.2 237.4 62.95 237.2 63 236.95 62.6 236.7666015625 62.123046875 236.4 61.6 236.45 62.146484375 236.45 63.45 236.45 64.2626953125 236.35 64.9
L 236.75 66.05 237 67.45
Q 237.05 68.25 236.95 69.75
L 236.9 70
Q 236.75 70.15 236.65 70.05 236.75 68.5 236.55 67.35
L 236.3 66.15
Q 236.2662109375 66.031640625 236.2 65.9 236.1244140625 66.4453125 235.95 66.8 236.046875 67.314453125 235.95 67.75
L 235.75 68.55 235.7 69 235.5 69.4 235.35 69.4
Q 235.35 69.35 235.45 68.95
L 235.45 68.5 235.6 68 235.65 67.3
Q 235.6373046875 67.358203125 235.6 67.4 234.9423828125 68.15625 233.3 68.4
L 233.2 68.7
Q 233.1 69.05 232.85 69.1 232.8 68.95 232.9 68.65 232.94609375 68.5580078125 233 68.45 232.2328125 68.55 231.3 68.55 229.95 68.55 225.4 66.9 224.0392578125 66.40703125 222.7 65.9 227.4689453125 70.84140625 236.6 70.65 237.6 70.15 238.15 69.25 239.0970703125 64.41953125 237.6 60.9 236.4873046875 60.435546875 235.8 60.15 236.0763671875 60.426171875 236.2 60.85
M 328.45 17.2
L 328.05 15.65
Q 327.65 14.15 327.25 13.45 326.75 12.5 325.45 11.45 324.5216796875 10.673046875 323.45 10.05
L 323.4 10.05
Q 323.6 10.4533203125 323.6 12.55 323.6 16.6 321.5 18.65 319.6498046875 20.3974609375 315.95 21.05
L 317.2 22.85
Q 319.1873046875 20.5724609375 321.65 19.2 324.70390625 17.5291015625 328.45 17.2
M 333.4 10.35
Q 332.864453125 10.4671875 332.3 10.6 330.5 11.15 328.65 12.65 328.4912109375 12.7509765625 328.35 12.8 328.8775390625 13.847265625 329.15 15.8 329.2041015625 16.6388671875 329.15 17.15 330.4162109375 17.203125 331.4 17.75 332.28984375 18.291796875 332.95 19.25 334.5 21.55 334.55 24.35 334.5732421875 25.558984375 334.3 26.7
L 333.45 29.25
Q 334.2787109375 28.703515625 335.05 28.25 337.7853515625 26.7677734375 339.8 26.75 339.8482421875 26.6380859375 339.9 26.5 340.35 25.6 340.55 25.15 340.9140625 24.3869140625 341.15 23.5 341.120703125 23.1478515625 341.2 22.75 341.0181640625 23.4447265625 340.8 23.75 340.35 24.3 339.45 24.3 336.8 24.3 334.8 20.85 333 17.8 333 14.7 333 11.1 333 11.05 333.11171875 10.6869140625 333.4 10.35
M 325.6 10.05
Q 325.8361328125 10.1947265625 326.05 10.35 327.2994140625 11.372265625 327.9 12.1 328.0689453125 11.8896484375 328.4 11.6 329.7658203125 10.6591796875 331 10.05
L 325.6 10.05
M 344.65 20.85
L 346.85 20.8
Q 343.8658203125 15.0478515625 339.65 10.05
L 338.1 10.05
Q 339.7484375 12.0830078125 340.7 14.5 340.92109375 14.1640625 341.2 14.35 341.3 14.45 341.35 14.75 341.35 14.85 341.85 15.45 342.15 15.8 342.25 16.7 342.6 19.15 342.6 20.95 342.5869140625 21.358984375 342.55 21.75 342.7705078125 21.59765625 343.1 21.4
L 344.65 20.85
M 288.15 83.4
Q 287.101953125 84.196484375 287.6 85.45 287.696484375 85.6916015625 287.85 85.95 296.3 100.35 312.6 95.15 314.1 94.6 315.4 93.45 315.2552734375 93.08828125 315.1 92.7 314.69453125 93.312109375 313.35 93.45 313.15 93.45 309.45 93.45 304.3 93.45 303.1 93.3 300.2 92.95 298.2 91.4 295.7 89.65 293.75 88 292.7994140625 87.199609375 292.05 86.5
L 292.05 86.5 290.55 86.05
Q 289.954296875 85.79921875 289.65 85.45 289.474609375 85.2423828125 289.4 85 290.153515625 85.2404296875 290.75 85.45 290.9986328125 85.527734375 291.2 85.6 289.95 84.2037109375 289.95 83.4 289.95 82.595703125 290.35 81.95 289.23984375 82.5931640625 288.15 83.4
M 290.8 55.55
L 290.55 51.35
Q 289.45 52.1 288.35 52.85 286.95 53.7 285.3 53.2 286.1 54.35 287 55.45 288.1 56.9 289.65 57.75
L 291.55 56.3 290.8 55.55
M 307.15 59.15
Q 307.136328125 59.0787109375 307.1 59 304.9263671875 60.2513671875 300.55 62.3 292.7 66 289.9 66 288.4 66 286.2 65.4
L 286.2 62.55
Q 286.2927734375 62.4802734375 286.4 62.15 285.023046875 63.6755859375 283.8 65.5 283.3 66.2 282.85 66.95
L 285.15 69.25
Q 285.6341796875 69.901171875 285.95 70.6 286.1556640625 70.45546875 286.4 70.3 292.1 66.75 298.9 66.6 300.25 66.6 300.7 67.2 300.54609375 67.3419921875 300.35 67.45 301.5265625 67.4841796875 302.5 67.55 302.9037109375 67.4806640625 303.3 67.45 303.377734375 67.30390625 303.5 67.1
L 306 63.25
Q 306.6671875 62.10625 306.95 61.35 307.1134765625 60.9099609375 307.15 60.6 307.2033203125 60.359765625 307.2 59.95 307.19921875 59.891796875 307.2 59.8 307.1849609375 59.53203125 307.15 59.2
L 307.15 59.15
M 277.15 105.8
Q 277.4291015625 105.7740234375 277.7 105.75 274.69765625 105.5271484375 271 104.5 265.4935546875 102.958203125 263.15 100.8 263.428125 102.324609375 264.7 103.7
L 269.8 105.05
Q 272.8650390625 105.8162109375 274.6 106.05 275.625390625 105.9693359375 277.15 105.8
M 289.5 107.95
Q 293.2498046875 106.325 293.85 103.75 292.76953125 104.526953125 291.35 105.25 286.4 107.7 282.3 107.7 278.95 107.7 278.3 107.65 276.1080078125 107.4064453125 272.6 106.3 271.8896484375 106.1490234375 271.2 105.95
L 269.05 105.35 267.1 105.05 265.45 104.45
Q 266.3701171875 105.2765625 267.65 106.05 272.15 108.8 278.55 109.35 284.95 109.9 289.5 107.95
M 262.15 74.4
Q 262.89765625 75.1435546875 263.1 75.7 263.1828125 75.886328125 263.2 76.5 263.2642578125 76.5080078125 263.3 76.5
L 263.5 76.75
Q 263.383203125 76.7759765625 263.25 76.85 263.3 77.6943359375 263.3 79.15 263.3 82.291796875 261.55 86.2 261.5228515625 86.7806640625 261.45 87.3 261.827734375 86.551171875 262.3 85.45 262.5142578125 84.9599609375 262.75 84.4 263.75 81.9 263.9 80.5 263.9 80.25 264 80.15 264.1 79.95 264.3 80.05 264.2513671875 81.994140625 262.8 85.45 262.7919921875 85.5494140625 262.75 85.65
L 262.25 86.8
Q 261.83125 87.7806640625 261.3 88.75 261.2765625 88.913671875 261.25 89.05 260.7 91.7 259.55 93.75 258.95 94.75 258.45 95 259.3 93.65 259.8 92.15 260.0431640625 91.51171875 260.3 90.45 258.641796875 93.120703125 256.15 95.85 255.95 96.3 255.65 96.1 255.65 95.8 256.1 95.25 258.4 92.65 260.3 89.5
L 260.7 88.75 260.9 87.5
Q 260.4640625 88.4712890625 259.9 89.45 256.873828125 94.658984375 254 96.85 254.5556640625 96.768359375 255.55 96.4 256.75 95.95 257.1 95.7
L 257.1 97.95
Q 261.6298828125 94.948828125 264.25 89.25 265.0583984375 87.5109375 265.55 85.65 265.5744140625 85.5509765625 265.6 85.45 266.0548828125 83.60859375 266.2 81.65 266.202734375 81.6111328125 266.2 81.55 266.7 78.4 265.1 75.7 264.55 74.8 263.6 74.6 262.8677734375 74.45859375 262.15 74.4
M 282.45 77.25
L 282.45 76.9 282.25 77.4
Q 281.8 78.5 281.4 79.05
L 280.55 80
Q 280.216796875 80.540234375 279.85 81.05 279.548046875 81.5388671875 279.35 81.85 278.6509765625 82.919140625 277.35 84.2 274.981640625 86.8947265625 272.75 88 272.1884765625 88.4177734375 271.65 88.75
L 270.4 89.55
Q 269.2 90.2 268.6 89.9 268.7 89.7 269.35 89.5
L 270.15 89.05
Q 270.371875 88.9060546875 270.55 88.75 270.0884765625 88.85 269.6 88.85 268.6 88.85 268.5 88.55 268.5 87.75 268.5 86.7 268.5 86.4 269.3 81.85 269.5193359375 80.58515625 269.7 79.6 269.619921875 79.77109375 269.55 79.95 269.3330078125 80.7009765625 269.05 81.55 268.521484375 83.174609375 267.9 84.15 267.7296875 84.8521484375 267.6 85.45 267.5779296875 85.6818359375 267.55 85.9
L 267.2 85.9
Q 267.2248046875 85.673046875 267.25 85.45 267.2796875 85.2205078125 267.3 85 266.8697265625 85.4685546875 266.35 85.6 266.0009765625 87.2931640625 265.4 88.9 266.60859375 90.5181640625 268.65 91.15 271.05 91.8 273.75 90.7 275.8 89.8 278.1 87.85
L 278.9 87.1
Q 278.75 86.5654296875 278.75 85.85 278.75 85.1076171875 279.25 83.7 278.485546875 84.73359375 277.75 85.45 277.65390625 85.553125 277.55 85.65 276.85 86.35 276.2 86.3 276.62578125 85.8955078125 277.05 85.45 278.615234375 83.80390625 280.15 81.6 280.21484375 81.5013671875 280.25 81.4 280.4330078125 81.0837890625 280.6 80.75 282.45 77.35 282.45 77.25
M 247.6 81.3
Q 247.19140625 81.1212890625 246.8 80.9 244.712890625 81.465234375 243 81.7 243.297265625 82.3640625 243.65 83.05 244.080078125 83.8708984375 245.05 84.4
L 245.9 84.8
Q 246.6921875 83.2927734375 247.65 81.95 248.271484375 81.0658203125 248.95 80.25 248.03046875 80.570703125 247.15 80.8 247.362890625 81.051171875 247.6 81.3
M 263.95 72.75
Q 264.35 72.95 264.75 73.15 264.35 71.1 263.7 69.15 263.55 68.65 263.2 68.3 261.8544921875 66.9873046875 260.2 66.55 262.5 67.9546875 262.5 70.4 262.5 71.3783203125 262.05 72.3 263.0119140625 72.41015625 263.95 72.75
M 278.8 50.45
Q 280.156640625 51.9970703125 281.1 53.75
L 282.75 58.1
Q 283 57.5 283.15 56.85 283.75 54.65 283.65 52.35
L 283.65 52.3
Q 283.65 52.2248046875 283.65 52.15 282.6697265625 51.909765625 281.6 51.5 279.619921875 50.754296875 278.2 49.8 278.505859375 50.1134765625 278.8 50.45
M 272.75 67.4
Q 271.36015625 67.4 267.8 65.9 268.9005859375 67.923046875 270.55 69.6 271.9396484375 68.562890625 273.4 67.85 275.5 67.2 277.65 66.9 279.344140625 66.6580078125 281.05 66.65 279.3779296875 64.41328125 276.65 62.4
L 277.4 63.45 276.35 62.2
Q 274.6607421875 61.0296875 272.55 59.9 273.3859375 61.4392578125 274.6 62.7 275.3 63.45 275.3 64.7 275.3 66.25 275.1 66.6 274.65 67.4 272.75 67.4
M 265.65 50.2
Q 265.668359375 50.10546875 265.65 50 263.6 55 260.6 58.9 257.0658203125 63.584765625 252.7 65.95 255.76640625 64.8087890625 258.85 65.15 260.8623046875 64.6111328125 262.55 63.05 263.65 61.95 264.5 61
L 264.45 57.3 265 56.8
Q 265.1076171875 58.4146484375 265.55 59.95 265.6056640625 58.4380859375 265.8 56.05 265.973828125 53.44375 265.8 51.55 265.262890625 52.9326171875 265.15 54.5
L 264.9 51.9
Q 265.279296875 50.990625 265.65 50.2
M 296.4 36.85
Q 295.9099609375 35.88984375 295.3 35.05 293.3576171875 39.45 289.9 39.45 289.541015625 39.45 289.1 39.4 289.2087890625 39.5072265625 289.3 39.6 290.57734375 40.9455078125 291.4 42.4 291.91484375 43.3 292.25 44.25 292.3181640625 43.93515625 292.4 43.5
L 292.4 43.5
Q 292.55 42.7 292.7 42.3 292.737109375 42.262890625 293.2 41.55 293.3435546875 41.32265625 293.55 41
L 294.85 39.35
Q 294.875390625 39.2736328125 294.9 39.2 295.1 38.55 295.5 38 295.9 37.4 296.4 36.85
M 316.15 84.3
Q 316.549609375 84.3 317.4 84.4 317.21640625 84.3009765625 317 84.15 314.7189453125 83.52578125 313.5 82.05 311.1150390625 79.131640625 310.05 77.9 309.9947265625 78.6337890625 309.85 79.55
L 309.4 79.55 309.25 77.15
Q 309 77.79296875 309 79.25 309 80.56328125 309.45 81.75 311.36875 83.2830078125 313 85.45 313.18359375 85.6716796875 313.35 85.9 313.65 85.65 314.3 86
L 316.3 87.15
Q 316.45078125 87.2337890625 316.6 87.3 317.8443359375 87.85859375 319.05 88.2 315.3384765625 86.080859375 315 84.6 315.3 84.3 316.15 84.3
M 289.6 79.75
Q 291.3521484375 79.1486328125 293 78.75 292.75703125 78.6857421875 292.5 78.6 288.77578125 77.3267578125 286.65 74.75 286.65625 75.0015625 286.65 75.25 286.5935546875 76.944140625 285.9 78.9
L 286.15 79.05 286.55 79.4
Q 287 79.85 287.75 80.15 288.091796875 80.301953125 288.7 80.5 289.1064453125 80.1212890625 289.6 79.75
M 332.3 72.05
Q 331.663671875 71.97578125 331.05 71.9 322.9783203125 70.8869140625 318.75 69.4
L 318.55 69.25
Q 318.45 69.05 318.7 68.95 318.9 68.9 319.1 69 324.2916015625 70.557421875 331.05 71.3 332.7921875 71.4876953125 334.65 71.6 328.7431640625 70.5919921875 315 68
L 314.3 68
Q 314.3400390625 68.146875 314.4 68.3 314.8 69.45 315.6 69.65 315.5509765625 69.7359375 315.5 69.8 315.607421875 69.8701171875 315.7 69.95 326.8642578125 69.8154296875 331.05 77.4 331.612890625 78.41640625 332.05 79.55 332.0974609375 79.555859375 332.15 79.55 335.33515625 79.4052734375 338.25 77.95 336.681640625 77.7658203125 334 76.75 330.5 75.45 329.6 74.25 329.9 74.2 336.2 73.45 341.7177734375 72.66796875 343.25 71.9
L 343.15 71.8
Q 341.8765625 72.0419921875 340.85 72.15 340.85 72.2064453125 340.85 72.25 338 72.55 334.85 72.3
L 332.3 72.05
M 308.6 60.1
Q 308.5978515625 60.1740234375 308.6 60.25 308.6 60.417578125 308.6 60.55 308.5759765625 61.3796875 308.45 61.8 308.4244140625 61.8640625 308.35 61.95 308.2220703125 62.2802734375 307.85 62.95
L 306.55 64.95
Q 306.6556640625 64.9685546875 306.75 65 309.7283203125 66.141796875 313.1 66.55 313.1119140625 65.6640625 313.25 65.25 313.486328125 64.7302734375 314.35 64 314.39765625 63.9912109375 314.45 63.95 315.2109375 63.4158203125 316.05 62.95 316.209375 62.8875 316.35 62.8 314.565625 62.753125 314.05 62.65 312.03359375 62.2384765625 308.6 60.1
M 315.55 48.45
L 312.05 47.8
Q 309.95 51.85 306.05 54.25 307.6458984375 55.1619140625 308.15 56.75 309.4236328125 56.4298828125 311 56 313.78203125 54.76015625 314.85 52.7
L 311.2 51.6
Q 312.05 51.55 312.9 51.8 314.015234375 51.959375 315.1 52.25 315.6 51.0962890625 315.6 49.7 315.6 48.8263671875 315.55 48.45
M 350.3 64.7
Q 350.828515625 65.2091796875 351.15 65.55 351.2673828125 65.0052734375 351.4 64.5 351.65 63.95 351.85 64.15 351.711328125 65.21953125 351.6 65.95 354.5572265625 68.844921875 355.65 70.4 357 72.3 357 74.15 357 75.75 355.9 77.6 354.64140625 79.3712890625 354.2 80.15 354.568359375 79.999609375 355.05 79.7
L 355.8 78.85
Q 357 77.15 356.85 75.95
L 357.15 75.95 357.3 76.9
Q 357.25 77.3 356.95 78 356.75 78.38203125 356.45 78.8 356.59375 78.712109375 356.75 78.6
L 357.3 78.6 357.3 79
Q 357.5296875 78.6689453125 357.7 78.45 357.85 78.15 358 78.25 357.9 78.55 357.5 79.05
L 357.3 79.35 357.3 82.2
Q 363.67734375 75.0166015625 356.4 65.7 354.95 63.85 352.3 63.25 351.234375 63.935546875 350.3 64.7
M 325.65 44
Q 325.5890625 45.2703125 325.05 45.45 323.8 45.45 322.5 45.45 320.2 45.45 318.05 44.9 315.749609375 44.27265625 313.9 43.85 313.850390625 43.9900390625 313.8 44.1 313.6783203125 44.441796875 313.55 44.75
L 312.3 47.05 317.25 47.5
Q 317.7341796875 47.6556640625 318.2 47.85 318.63984375 48.0486328125 319.05 48.25 321.4833984375 49.5478515625 323.5 51.35 323.65 51.5 323.8 51.7 324.9689453125 51.52890625 326.1 51.3
L 328.95 50.6
Q 329.9 43.6 325.7 37.95 325.1 37.1 324.45 36.4 322.4875 34.4560546875 320.45 32.65 320.3181640625 32.539453125 320.15 32.45 322.4564453125 35.24765625 323.2 36.4 325.486328125 40.0396484375 325.65 43.25 325.9189453125 43.5189453125 326.25 43.85 327.4 45.1 327.85 45.9 328.6 47.1 328.45 48.25 327.4279296875 45.9076171875 325.65 44
M 336.2 28.65
Q 335.632421875 28.8708984375 335.05 29.1 334.0123046875 29.5646484375 333 30.2 332.1462890625 31.7951171875 331.05 33.15 329.70703125 34.78359375 328 36.05 327.5 36.35 327 36.65
L 329 40.3
Q 329.682421875 42.8515625 331.05 44.7 331.9794921875 45.9783203125 333.2 46.9 333.557421875 46.5755859375 333.95 46.2 334.3783203125 45.80234375 335.05 45.15 335.4759765625 44.78515625 336 44.3
L 336 44.25
Q 334.8708984375 43.93125 333.95 43.2 331.65 41.4 331.65 37.8 331.65 34.75 332.55 33 333.4767578125 31.1462890625 336.2 28.65
M 331.35 22.35
Q 331.219140625 23.223046875 331.05 23.9 330.8318359375 24.8083984375 330.55 25.4 330.25 26 329.25 27.3 328.8671875 27.746484375 328.5 28.05 325.806640625 31.1341796875 321.1 32.2
L 325.6 35.7
Q 329.0943359375 33.9876953125 331.05 30.9 331.89296875 29.580859375 332.45 28 332.552734375 27.752734375 332.65 27.5 332.85 26.9 332.95 25.95 333.3380859375 22.6732421875 331.75 20 331.573046875 20.8845703125 331.35 22.35
M 330 28.3
Q 329.5 28.65 329.25 28.85
L 328.8 29.45
Q 328.05 30.5 326.8 30.9 326.75 30.6 327.15 30.4 327.9 29.85 328.55 28.95
L 328.95 28.45 329.45 28.1
Q 329.8 27.75 329.8 27.25
L 330.05 27.2
Q 330.4 27.8 330 28.3
M 341.3 26.6
Q 341.206640625 26.793359375 341.1 26.95 343.8333984375 27.7609375 344.9 32.1 345.2435546875 33.5005859375 345.35 34.8 345.3994140625 34.8091796875 345.45 34.8 346 34.75 347.7 34.7 349.15 34.7 349.95 34.45 350.617578125 34.2537109375 351.75 33.8
L 351.8 33.75
Q 351.7099609375 33.430859375 351.6 33.1 350.582421875 29.291015625 349.1 25.75 348.3353515625 26.25 346.9 26.25 344.75 26.25 343.05 25.6 342.378515625 25.3259765625 341.95 24.95 341.675390625 25.8177734375 341.3 26.6
M 347.7 26.9
Q 347.8 27.15 347.8 27.65
L 347.8 29.85
Q 347.8 30.35 347.7 30.55
L 347.55 30.55 347.55 26.95 347.7 26.9 Z"/>

<path fill="#ECDCCF" stroke="none" d="
M 275.95 10.05
L 273.1 10.05
Q 273.475390625 18.878515625 276.4 26.95
L 278.8 26.95
Q 279.748046875 26.95 280.3 27.05 276.3646484375 19.1541015625 275.95 10.05
M 347.6 11.6
Q 347.09296875 10.755078125 346.4 10.05
L 341.6 10.05
Q 347.6013671875 16.6177734375 350.55 24.45 352.2009765625 28.7607421875 352.9 33.45
L 352.95 33.45
Q 353.2 33.55 353.3 33.85 353.35 34.15 353.15 34.35 353.130859375 34.3880859375 353.05 34.45 353.148828125 35.0384765625 353.2 35.6 353.3013671875 36.5708984375 353.35 37.5 353.4201171875 38.3109375 353.45 39.1 353.9912109375 52.9025390625 342.25 57.9 337.0138671875 60.148046875 332.2 60.9 334.4796875 61.555859375 337.05 63.2 337.851171875 63.032421875 338.65 62.85 346.2587890625 61.21171875 351.5 56.95 359.7712890625 39.2994140625 353.05 22 351.0125 16.796875 347.6 11.6 Z"/>

<path fill="#D3C5BB" stroke="none" d="
M 305.7 21.9
Q 306.71640625 21.1181640625 307.9 20.6 307.262109375 20.3546875 306.6 19.95 306.09921875 19.6578125 305.5 19.2 304.6697265625 18.561328125 303.65 17.6 302.65 16.7 302.25 15.95 301.7 14.9 301.8 13.35 301.8 11.3798828125 302.5 10.05
L 283 10.05 283.35 11.5
Q 283.9 13.6 284.25 14.5
L 285.05 16.05
Q 288.55 22.05 292.65 27 292.5 27.05 292.25 26.8 290.65 25.25 287.45 20.65 284.95 17 283.95 14.6 283.25 12.95 282.6 10.2 282.582421875 10.123828125 282.55 10.05
L 276.1 10.05
Q 277.4576171875 19.612890625 282.7 28.35
L 286.2 30.75
Q 290.2 28.3 293.9 31.6 294.9822265625 32.6306640625 295.8 33.8 296.618359375 34.88828125 297.2 36.1 298.087890625 35.493359375 298.95 35
L 299.7 34.6
Q 299.1505859375 33.392578125 301.1 28.75 303.0494140625 24.10546875 305.7 21.9
M 288.9 17.35
Q 289.7 19.85 292.2 22.85 293.6 24.55 296.45 27.9 294.1 25.65 292.25 23.35 289.55 20.1 288.75 17.6 288.7 17.5 288.75 17.4 288.85 17.3 288.9 17.35
M 332.8 47.85
Q 332.5103515625 48.0482421875 332.2 48.25 332.36484375 47.9890625 332.55 47.7 331.80390625 47.3333984375 331.05 46.7 330.6982421875 46.434375 330.35 46.1
L 330.05 51 328.3 52.3
Q 327.26328125 52.7509765625 325.9 52.65 325.2 52.6 324.5 52.6
L 326.55 55.9
Q 326.772265625 56.211328125 326.9 56.85
L 327.25 57.6
Q 327.4787109375 58.103125 327.65 59.15 331.780078125 59.1716796875 336.05 58.3 355.204296875 54.56484375 351.95 35
L 351.6 35.2
Q 350.45 35.6 350.35 35.65 349.5 35.9 348.25 35.8
L 345.65 35.75 345.4 35.7
Q 345.4833984375 40.0693359375 342.85 43.5 342.1208984375 44.5302734375 341.15 45.45 339.5078125 47.020703125 337.9 47.75 335.2931640625 48.9630859375 332.8 47.85 Z"/>

<path fill="#EEEBE9" stroke="none" d="
M 356.35 10.05
Q 363.0255859375 15.730078125 364.15 25.85 366.0853515625 42.8220703125 354.45 55.65
L 357.9 54.15
Q 362.295703125 52.5775390625 365.95 49.7
L 365.95 10.05 356.35 10.05 Z"/>

<path fill="#F1F0EF" stroke="none" d="
M 356.25 11.15
Q 355.877734375 10.5759765625 355.45 10.05
L 347.05 10.05
Q 350.433984375 12.786328125 352.55 17.25 361 35 353.85 53.4 353.3009765625 54.7953125 352.55 56.05 358.1986328125 51.0078125 360.85 42.65 361.45 40.65 362.1 38.65 364.2 23.85 356.25 11.15 Z"/>

<path fill="#CDA45E" stroke="none" d="
M 333.7 47.2
Q 333.815625 47.249609375 333.95 47.3 334.5158203125 47.1177734375 335.05 46.9 337.79921875 45.9015625 339.7 44.45 338.944140625 44.55 338.15 44.55 337.627734375 44.55 337.15 44.5
L 337.05 44.65
Q 336.9 44.85 336 45.75
L 334.7 46.95
Q 334.5 46.85 334.6 46.65 334.6 46.55 334.75 46.4
L 334.9 46.15
Q 334.3271484375 46.70546875 333.7 47.2 Z"/>
</g>

<g id="Layer0_3_FILL">
<path fill="#3B3D35" stroke="none" d="
M 88.3 129.4
L 88.45 129.25 89.25 130.1 89.4 130.2 89.6 130.25 90.65 130.25 89.2 128.45 87.7 128.45 86.2 130.25 87.3 130.25 87.5 130.2 87.7 130.1 88.3 129.4
M 91.2 134.5
Q 91.25 134.4 91.25 134.05 91.25 133.3 91.05 132.75 90.85 132.2 90.45 131.85 90.05 131.45 89.55 131.25 89 131.05 88.4 131.05 87.65 131.05 87.05 131.3 86.5 131.55 86.05 132 85.65 132.45 85.45 133.05 85.25 133.65 85.25 134.3 85.25 135.2 85.5 135.85 85.7 136.5 86.15 136.95 86.6 137.4 87.2 137.6 87.8 137.85 88.45 137.85
L 89.2 137.8 89.9 137.6
Q 90.25 137.5 90.6 137.3 90.95 137.05 91.2 136.75
L 90.75 136.2
Q 90.65 136.05 90.45 136.05 90.3 136.05 90.15 136.15
L 89.3 136.55
Q 89 136.6 88.6 136.6 88.25 136.6 87.9 136.5 87.6 136.4 87.35 136.15 87.15 135.9 87 135.55 86.85 135.15 86.8 134.65
L 90.9 134.65
Q 91.1 134.65 91.2 134.5
M 89.05 132.3
Q 89.3 132.45 89.5 132.65 89.65 132.85 89.75 133.1 89.85 133.4 89.85 133.7
L 86.85 133.7
Q 86.95 132.95 87.35 132.6 87.75 132.2 88.45 132.2 88.8 132.2 89.05 132.3
M 65.55 132.05
L 65.8 132.6 66 132.8
Q 66.1 132.85 66.3 132.85 66.5 132.85 66.65 132.8
L 67.45 132.4
Q 67.7 132.3 68.05 132.3 68.6 132.3 68.9 132.6 69.15 132.9 69.15 133.6
L 69.15 133.95
Q 68.4 134 67.85 134.1 67.25 134.2 66.8 134.3 66.35 134.45 66.05 134.65 65.75 134.85 65.55 135.1 65.4 135.3 65.3 135.55 65.2 135.8 65.2 136.05 65.2 136.5 65.35 136.85 65.5 137.2 65.75 137.4 66 137.65 66.35 137.75 66.7 137.85 67.15 137.85
L 67.8 137.8 68.85 137.35 69.3 136.95 69.45 137.4
Q 69.55 137.6 69.65 137.7 69.75 137.75 70 137.75
L 70.7 137.75 70.7 133.6
Q 70.7 133 70.55 132.55 70.4 132.1 70.05 131.75 69.75 131.4 69.3 131.2 68.85 131.05 68.25 131.05 66.65 131.05 65.55 132.05
M 67.25 135.3
Q 67.55 135.15 68 135.05 68.5 134.95 69.15 134.95
L 69.15 136.05
Q 68.85 136.4 68.45 136.6 68.1 136.75 67.6 136.75 67.25 136.75 67 136.6 66.75 136.4 66.75 136 66.75 135.75 66.85 135.6 67 135.4 67.25 135.3
M 75.15 132.25
Q 75.45 132.25 75.7 132.35
L 76.55 132.75 76.75 132.7 76.9 132.55 77.35 131.95
Q 76.9 131.55 76.35 131.3 75.75 131.05 75.05 131.05 74.25 131.05 73.65 131.3 73.05 131.55 72.65 132 72.25 132.45 72.05 133.1 71.85 133.7 71.85 134.45 71.85 135.25 72.05 135.9 72.3 136.5 72.7 136.95 73.1 137.4 73.65 137.6 74.2 137.85 74.8 137.85
L 75.5 137.8
Q 75.85 137.75 76.2 137.6 76.5 137.5 76.8 137.3 77.15 137.05 77.4 136.75
L 76.95 136.2
Q 76.85 136.05 76.65 136.05 76.5 136.05 76.4 136.15
L 76.1 136.35 75.7 136.55
Q 75.45 136.65 75.1 136.65 74.7 136.65 74.4 136.5 74.1 136.35 73.9 136.05 73.7 135.8 73.55 135.4 73.45 134.95 73.45 134.45 73.45 133.95 73.55 133.55 73.65 133.15 73.85 132.85 74.1 132.55 74.4 132.4 74.7 132.25 75.15 132.25
M 79.9 128.2
L 78.35 128.2 78.35 137.75 79.9 137.75 79.9 133
Q 80.25 132.65 80.6 132.45 80.95 132.3 81.35 132.3 81.95 132.3 82.2 132.6 82.5 132.95 82.5 133.55
L 82.5 137.75 84.1 137.75 84.1 133.55
Q 84.1 133 83.95 132.55 83.8 132.1 83.5 131.75 83.25 131.4 82.8 131.25 82.4 131.05 81.85 131.05 81.25 131.05 80.75 131.3 80.3 131.5 79.9 131.85
L 79.9 128.2
M 60.3 128.6
Q 59.75 128.8 59.35 129.15 59 129.55 58.8 130.05 58.6 130.5 58.6 131 58.6 131.65 58.75 132.1 58.95 132.5 59.25 132.8 59.55 133.1 59.95 133.3
L 62.2 134.1
Q 62.5 134.25 62.65 134.5 62.85 134.7 62.85 135.1 62.85 135.75 62.45 136.1 62.05 136.45 61.3 136.45 60.85 136.45 60.5 136.3
L 59.9 136 59.45 135.7
Q 59.25 135.6 59.1 135.6
L 58.85 135.65 58.7 135.8 58.2 136.65
Q 58.45 136.9 58.8 137.15 59.15 137.35 59.55 137.5 59.95 137.7 60.4 137.75 60.8 137.85 61.25 137.85 62 137.85 62.65 137.6 63.2 137.4 63.65 137 64.05 136.55 64.25 136 64.5 135.45 64.5 134.85 64.5 134.25 64.3 133.85 64.1 133.45 63.8 133.15 63.5 132.9 63.15 132.7
L 60.85 131.85
Q 60.55 131.7 60.35 131.5 60.2 131.25 60.2 130.95 60.2 130.65 60.3 130.45 60.35 130.25 60.55 130.1 60.75 129.95 61 129.85 61.3 129.75 61.65 129.75 62.05 129.75 62.35 129.85
L 63.2 130.3
Q 63.35 130.4 63.5 130.4
L 63.7 130.35 63.9 130.15 64.3 129.35
Q 63.85 128.85 63.15 128.6 62.45 128.35 61.6 128.35 60.9 128.35 60.3 128.6 Z"/>
</g>
</defs>

<g transform="matrix( 1.07159423828125, 0, 0, 0.802642822265625, -22.05,-15.8) ">
<use xlink:href="#Layer0_0_FILL"/>
</g>

<g transform="matrix( 1.07159423828125, 0, 0, 1.07159423828125, -22.05,-6.75) ">
<use xlink:href="#Layer0_1_FILL"/>
</g>

<g transform="matrix( 1, 0, 0, 1, -217.2,-10.05) ">
<use xlink:href="#Layer0_2_FILL"/>
</g>

<g transform="matrix( 1, 0, 0, 1, 0,0) ">
<use xlink:href="#Layer0_3_FILL"/>
</g>
</svg>
