
<svg xmlns="http://www.w3.org/2000/svg" version="1.1" xmlns:xlink="http://www.w3.org/1999/xlink" preserveAspectRatio="none" x="0px" y="0px" width="150px" height="155px" viewBox="0 0 150 155">
<defs>
<g id="Layer0_0_MEMBER_0_FILL">
<path fill="#B8BE79" stroke="none" d="
M 21.5 19.95
L 21.5 157.8 159.35 157.8 159.35 19.95 21.5 19.95 Z"/>
</g>

<g id="Layer0_0_MEMBER_2_FILL">
<path fill="#E3B39B" stroke="none" d="
M 427.8 107.95
Q 428.82578125 107.866796875 430 107.8 429.8103515625 107.0732421875 429.55 106.65
L 429 106
Q 427 106.3 424.9 106.1 422.05 107.2 417.3 109.45 416.2 109.9 415.75 110.4 415.428515625 110.801953125 415.15 111.6 417.927734375 110.95546875 421.2 109.75 425.55 108.15 427.8 107.95
M 446.15 106.15
Q 447.3154296875 104.8314453125 451.3 104.45 455.6236328125 104.03359375 464.05 103.4
L 464.05 97.65
Q 461.4 98.9 459.6 99.45 457.4 100.15 454.55 100.55 451.9 101 444 101.7 437.35 102.3 433.5 103.15 430 104 425.95 105.65 426.7 105.6 427.15 105.5 428.55 105.15 428.95 105.15 429.4 105.15 429.65 105.35
L 430 105.75
Q 430.35 106.2 430.45 106.4 430.7158203125 106.7986328125 430.95 107.75 433.80625 107.6884765625 437.5 107.75 438.4 107.75 440.25 108.05 442.15 108.35 443.15 108.35 443.926171875 108.35 444.5 108.1
L 444.3 107.45
Q 444.1 106.65 444.2 105.55
L 444.25 105.2
Q 444.35 105 444.55 105.1 444.75 105.4 444.7 105.85 444.7 106.1 444.65 106.65 444.65 106.73984375 444.95 107.85 445.4609375 107.4900390625 445.75 106.9 445.6388671875 106.1640625 445.45 105.55 445.1 104 445.15 103.65
L 445.45 103.65
Q 445.916015625 104.95859375 446.15 106.15
M 444 79.3
L 443.95 79.35
Q 442.25 79.8 438.5 81.1 434.85 82.65 431.15 83.5 430.8 83.4 430.45 83.35 429.97734375 84.871875 429.85 86.3 432.70859375 84.3861328125 437.45 82.9 439.58359375 82.233203125 441.4 81.8 441.209375 81.7322265625 441 81.65
L 441.1 81.4
Q 441.4 81.55 441.9 81.6 442.0923828125 81.616015625 442.25 81.6 444.6556640625 81.15 446.45 81.15 446.95 81.15 450.05 81.55 451.4 81.65 453.35 82.2 453.6837890625 82.2 454.7 81.8 454.0521484375 80.1427734375 453.65 78.9 453.7 78.8 453.85 78.8 453.95 78.75 454.05 78.85 454.2 78.95 454.3 79.25
L 455.25 81.6
Q 455.5625 81.4970703125 455.9 81.35 455.626953125 80.6341796875 455.25 79.9 455.25 79.85 455.35 79.85 455.45 79.9 455.5 79.95 455.89375 80.5556640625 456.2 81.2 457.15859375 80.8130859375 458.4 80.25 461.2146484375 78.955859375 464.05 78.5
L 464.05 75.6 461.4 76.3
Q 455.6 78.05 452.3 78.2 449.45 78.25 448 78.4 446.5134765625 78.5486328125 444 79.3
M 383 78.7
Q 381.2 79.2 377.75 80.75 375.35 81.85 374.3 82.6 372.55 83.85 369.95 87.35 368.8 89 368.35 89.9 367.6 91.35 367.7 92.7 367.7 93.2 367.95 93.4 368.4 93.85 369.25 93.1 374.65 89 382.5 87.45 388.6 86.25 396.95 86.75 397.65 86.85 398 86.55 398.15 86.4 398.25 85.65 398.25 84.65 398.1 84.2 397.95 83.85 397.35 83.25
L 395.7 81.4
Q 395.15 80.85 392 78.35 391.6 78.05 391.3 78
L 390.55 78.15
Q 390 78.25 388.45 78.05 386 77.8 383 78.7
M 335.1 61.8
Q 334.85 61.75 334.3 61.75
L 332.75 61.8 332.1 62
Q 331.15 62.45 330.6 63.05
L 330.05 63.7 329.85 64.7 329.85 65.55
Q 329.85 66.2 329.95 66.5 330.1 67.1 330.75 67.65 331.35 68.25 331.75 68.4 332.05 68.55 332.7 68.65 333.9 68.75 334.5 68.75 335.1 68.8 335.85 68.65 336.2 68.55 337.05 68.15 337.65 67.8 337.8 67.6 337.85 67.5 338.25 66.75 338.55 66.25 338.6 65.95
L 338.6 65
Q 338.7 64.4 338.65 64.1 338.65 63.55 338.35 63.3 338.5 63.05 338.4 62.75 338.25 62.45 338 62.35 337.45 62.3 337.2 62.25
L 336.7 62.05
Q 336.15 62 335.9 61.95
L 335.1 61.8
M 337 64.15
L 337.4 64.15 337.45 64.25 337.45 64.5 337.4 64.7 337.2 64.5 337.05 64.4 337 64.35 337 64.15
M 407.05 22.4
L 406.4 22.75
Q 406.15 24.85 405.9 26.95 408.9 30.7 412.3 34.6 414.75 37.4 418.1 36.9 423.6 36 420 32.65 412.25 29.05 407.05 22.4
M 424.45 11.5
Q 424.05 10.85 423.75 10.25
L 416.4 10.25
Q 424.1 18.95 424.05 30.7 424.05 42.25 419.25 52.75 414.65 62.9 415.95 73.9 417.7197265625 73.7330078125 419.6 73.65 420.6 70.2 421 66.4 424.25 52.5 427.35 38.55 430.3 25.25 425.6 13.25 425.1 12.4 424.45 11.5
M 403.35 87.55
Q 403.15 87.5 402.75 87.7 401.25 88.35 400.7 89.85 400.4 90.65 400.4 92 400.3 92.6 400.5 92.9 400.8 93.45 401.25 93.25 401.45 93.05 402.4 91.7
L 402.95 90.7 403.3 89.65
Q 403.8 88.8 403.85 88.55 403.95 88.25 403.8 87.95 403.65 87.6 403.35 87.55 Z"/>

<path fill="#3B3D35" stroke="none" d="
M 444.65 106.65
Q 444.7 106.1 444.7 105.85 444.75 105.4 444.55 105.1 444.35 105 444.25 105.2
L 444.2 105.55
Q 444.1 106.65 444.3 107.45
L 444.5 108.1 444.6 108.4
Q 444.75 108.85 444.85 110.4 444.95 111.7 445.35 112.35
L 445.25 110.25
Q 445.25 108.65 445.05 108.1 445.009375 107.9630859375 444.95 107.85 444.65 106.73984375 444.65 106.65
M 449.95 120.05
L 455.35 120.05
Q 458.35 120.05 459.2 119.95 460.3 119.85 462.5 119.6 463.1 119.55 464.05 119.55
L 464.05 118.4
Q 462 118.35 459.8 118.55
L 457.6 118.8 446.45 118.9
Q 444.55 118.9 443.05 119.1 444.05 118.65 445.05 118.2 447 117.3 447.8 116.35 445.05 116.8 440.55 118.25 435.45 119.9 433.45 120.35 431.9 120.7 430.25 120.9
L 437.5 120.9
Q 438.75 120.55 440.05 120.15 440.15 120.25 440.4 120.25 441.2 120.35 443.35 120.15 444.1 120.05 446.6 120.05
L 449.4 120.05
Q 448.5 120.5 447.3 120.65 446.45 120.8 444.6 120.85
L 442.2 120.9 449.75 120.9
Q 449.8 120.85 449.8 120.8 450 120.4 449.95 120.05
M 446.4 110.3
Q 446.624609375 108.3755859375 446.15 106.15 445.916015625 104.95859375 445.45 103.65
L 445.15 103.65
Q 445.1 104 445.45 105.55 445.6388671875 106.1640625 445.75 106.9 446.0185546875 108.4919921875 445.95 110.65 445.95 111.2 446.2 111.3 446.4 110.9 446.4 110.3
M 460.05 105.35
Q 460.05 104.6 459.85 104.3
L 459.6 104.3
Q 459.6 105.6 459.9 106.35
L 460.15 107.1
Q 460.15 107.6 460.25 107.75
L 460.4 107.75
Q 460.55 106.8 460.3 106.1
L 460.05 105.35
M 388.05 10.65
Q 388 10.6 387.8 10.25
L 386.35 10.25
Q 386.55 10.6 386.75 11.05 386.85 11.2 387.35 11.7
L 391.65 15.75
Q 392.7 16.75 392.9 17 394.25 18.55 394.65 20.5 395.05 22.6 394.3 24.3 393.8 25.4 392.75 26.5 392.25 27 390.75 28.35 390 29 389.7 29.4 389.4 29.85 389.6 30.1 390.15 30.15 390.85 29.7 391.2 29.45 391.95 28.9
L 393.25 28.2
Q 393.9 27.7 394.65 26.6 395.55 25.15 395.75 24.65 396.25 23.35 396.15 21.75 396.15 19.4 395.25 17.8 394.55 16.4 392.25 14.35
L 389.45 11.9
Q 388.25 10.9 388.05 10.65
M 453.85 78.8
Q 453.7 78.8 453.65 78.9 454.0521484375 80.1427734375 454.7 81.8 454.967578125 82.427734375 455.25 83.1 456.25 85.45 456.45 86.05 456.95 87.6 457.15 89.05 457.65 87.55 456.5 84.75
L 455.25 81.6 454.3 79.25
Q 454.2 78.95 454.05 78.85 453.95 78.75 453.85 78.8
M 456.6 82.1
Q 456.42265625 81.6466796875 456.2 81.2 455.89375 80.5556640625 455.5 79.95 455.45 79.9 455.35 79.85 455.25 79.85 455.25 79.9 455.626953125 80.6341796875 455.9 81.35 456.3984375 82.424609375 456.7 83.45 457 84.65 457.25 85.2 457.8 86.1 457.85 86.4
L 457.9 87.45
Q 457.95 87.85 458.35 88.25 458.35 87.5 457.8 85.55
L 457.35 84.25
Q 457.1 83.3 456.6 82.1
M 441.4 84.05
Q 441.4 84.55 441.65 85.2
L 442.15 86.65 442.4 86.85 442.55 87.3
Q 442.65 87.6 442.85 87.6 442.9 87.35 442.7 86.95 442.35 86.1 441.85 84.45
L 441.7 84.15
Q 441.55 84 441.4 84.05
M 412.8 95.45
Q 412.05 94.9 411.7 94.9 411.55 95 411.8 95.25
L 414.85 97.5 415.45 98.05 416.05 98.35
Q 415.85 97.75 415.2 97.2
L 412.8 95.45
M 413 93.45
L 414.75 94.25
Q 415.15 94.5 415.95 94.95 416.65 95.4 417.2 95.5
L 417.3 95.4
Q 416.15 94.55 414.5 93.7 413.25 93.1 412.95 92.85 412.05 92.1 411.7 92.15 411.95 92.9 413 93.45
M 412.05 90.25
L 412.05 90.45 416.6 91.15 416.85 91.15
Q 417 91 416.95 90.95 414.45 90.3 412.05 90.25
M 423.95 78.55
L 423.9 78.75
Q 427.3 78.95 431.15 78.65
L 431.2 78.45
Q 430.45 78.4 429.7 78.45 427.8 78.55 423.95 78.55
M 411.9 79.15
Q 412.398046875 79.0451171875 413.15 78.95 413.819921875 78.8451171875 414.7 78.75 416.5333984375 78.562890625 418.25 78.4 425.669140625 77.759375 430.75 77.8 433.5814453125 77.8416015625 438.8 78.2 439.8544921875 78.26640625 441 78.35 441.05 77.6 439.8 77.5 428.894140625 76.1140625 417.7 77.5 413.54296875 78.007421875 409.35 78.9 409.1 78.95 408.95 79.1 408.75 79.3 408.8 79.45 409.45 79.55 410.35 79.45 410.9 79.4 411.9 79.15
M 401.25 58.65
L 401.1 58.65 400.35 60.6 400.2 60.8
Q 399.95 61.2 399.95 61.25 400.15 61.25 400.35 61.05
L 400.55 60.7
Q 401 59.85 401.25 58.65
M 343.8 63.3
Q 343.85 63.3 343.85 63.25 343.9 63.2 343.85 63.15
L 343 63.05 343 63.15 342 63.2 341.9 63.4 343.6 63.35 343.8 63.3
M 348.85 66.05
Q 349 65.9 348.85 65.9
L 341.5 65.5
Q 341.4 65.5 341.35 65.55 341.3 65.6 341.35 65.65 344.95 66.2 348.65 66.1
L 348.85 66.05
M 347.55 69.6
Q 346.75 69.4 345.55 68.85 344.1 68.15 343.55 67.95 343 67.75 342.7 67.9
L 347.5 69.9 347.55 69.6
M 389.55 70.25
Q 389.6373046875 70.290625 389.7 70.3 390.45 70.35 391.95 70.85
L 396.95 72.5
Q 397.15 72.6 397.35 72.55 397.55 72.5 397.5 72.35 396.1349609375 71.3986328125 393.45 70.25 392.9130859375 70.041796875 392.3 69.8 390.2 69.1 389.7 69 388 68.75 385.6 69.2 383 69.7 380.5 70.65 378.95 71.3 374.9 73.45 370.9 75.65 369.15 77 367.45 78.3 366.15 80.05 366.3951171875 80.26015625 366.75 80.2 366.9201171875 80.175 367.1 80.1
L 367.85 79.5
Q 369.55 77.85 374.05 75.25
L 376.9 73.7
Q 381.111328125 71.5279296875 385.8 70.6 386.4376953125 70.496484375 387.05 70.4 388.596484375 70.165625 389.55 70.25
M 364.4 61.35
Q 364.3673828125 61.35 364.3 61.35 364.078125 61.36640625 363.9 61.5 363.7 61.65 363.8 61.85 364.4466796875 61.778125 365.2 61.95 365.5263671875 62.0015625 365.85 62.1 366.25 62.2 367.9 62.75 372.15 64.2 377.75 64.05 379.8 63.95 380.75 63.7 381.8 63.4 383.85 62.7 384.95 62.4 387.2 62.3 390.9 62.15 394.65 62.15 395.75 62.15 396.3 62 397.65 61.65 399.15 59.5 400.0923828125 58.2076171875 400.55 57.2 400.980859375 56.34609375 401.05 55.7
L 398.25 59.25
Q 397.7 60 397.05 60.5 396.5259765625 60.8333984375 395.7 61 394.8728515625 61.1962890625 393.7 61.2
L 393.65 61.2
Q 392.2 61.2 391.1 61.2 391.75 60.95 392.45 60.5 393.1 60.1 394.4 59.3 394.5 59.2 394.75 59 394.95 58.8 394.8 58.6 394.05 58.9 392.8 59.75 391.5 60.6 390.8 60.9 390.5 61.05 390.35 61.2 389.8 61.2 389.35 61.25 390.45 60.85 391.95 59.9
L 396.2 56.85 396.05 56.55
Q 394.9 57 392.45 58.85 390.25 60.4 388.8 60.8 388.15 60.95 388 61.25 387.9 61.25 387.8 61.25 384.5 61.45 382.05 62.15 380.4 62.75 379.55 62.85 378.95 63 376.85 63.1 374 63.2 372.6 63 371.4 62.85 368.5 62.1 367.40390625 61.8048828125 366.5 61.6 365.2677734375 61.37890625 364.4 61.35
M 361.35 56.9
Q 361.45 57.05 361.7 57.05 362.6 57 364.3 56.1 365.3802734375 55.474609375 366.55 54.9 368.4388671875 54.0330078125 370.55 53.35
L 370.9 53.25 373.7 52.55
Q 376.25 52 377.2 52 378.5 52 381.25 52.8
L 384.4 54.1
Q 385.25 54.4 386.6 54.5 388.1 54.5 388.75 54.15 389.4 53.8 389.95 53.05 390.75 53.05 391.4 52.45
L 391.6 52.25 391.8 52.1 392.3 51.95 392.3 51.9
Q 392.5775390625 51.8107421875 392.9 51.35 393.2 50.9 393.45 50.75
L 393.3 50.55
Q 392.95 50.55 392.6 50.8 392.4 51 392.25 51.05
L 391.8 51.15
Q 391.4 51.2 390.95 51.65 391.45 50.7 391.85 49.95 391.25 50 390.55 50.9 389.0505859375 52.5615234375 387.75 52.95 387.44375 53.071484375 387.15 53.1 385.95 53.25 383.55 52.25 382.8095703125 51.928515625 382.1 51.65 379.243359375 50.609765625 377.15 50.65 376.35 50.65 374.75 50.95 367.6908203125 52.381640625 361.75 56.4 361.676171875 56.4478515625 361.6 56.5 361.3 56.7 361.35 56.9
M 355.85 56.3
L 355.8 56.25
Q 355.6958984375 56.16484375 355.5 56.2
L 355.45 56.2 355.15 56.4 355.05 56.55 355 56.75 355.05 58.1 355.5 58.15
Q 355.5 58.1 355.75 57.95 355.9 57.8 355.9 57.4
L 355.9 57.05 355.9 56.65 355.85 56.45 355.85 56.3
M 358.75 56.55
L 358.75 56.65 358.6 56.65 358.6 56.8 360.05 56.85 360.1 56.65 360 56.65 358.75 56.55
M 366.35 57.45
Q 366.25 57.65 366.6 57.9 369.5 59.25 373.2 60.35 374.1 60.65 374.65 60.65 373.7 60.05 371.8 59.45 369.7 58.85 368.95 58.45 368.1 58 367.7 57.8 366.95 57.5 366.35 57.45
M 376.5 57.75
Q 376.4 58 376.75 58.1
L 379.8 59.25 380.9 59.4 381.1 59.4
Q 381.25 59.35 381.15 59.25 379.05 58.6 376.75 57.65
L 376.5 57.75
M 376.95 60.1
L 377.05 60
Q 376.9 59.8 376.1 59.7 375.3 59.55 374.15 59.15 372.5 58.45 372.25 58.35
L 372.05 58.35
Q 371.8 58.35 371.95 58.5 374.7 59.6 375.6 59.85
L 376.95 60.1
M 400.95 48.45
Q 400.703515625 48.44453125 400.4 48.45 399.6673828125 48.481640625 398.75 48.75 397.35 49.05 396 49.6 395.45 49.85 395.3 50.05 394.9990234375 50.3884765625 395.1 50.65 395.16328125 50.76328125 395.25 50.85 395.55 51.15 396.05 50.95
L 396.75 50.5
Q 397.3 50.15 398.1 50
L 399.55 49.7
Q 399.978515625 49.601171875 400.35 49.6 400.5625 49.5830078125 400.75 49.6 401.45 49.7 401.8 50.25 402.3 50.9 402.45 50.9 403 50 402.55 49.35 402.35 49 401.9 48.75 401.4955078125 48.529296875 400.95 48.45
M 393.05 41.3
Q 392.915625 41.2271484375 392.8 41.15 392.3 40.75 391.95 41 391.8447265625 41.1404296875 391.85 41.3 391.9130859375 41.575390625 392.4 41.9
L 396.75 44.25
Q 398.4 45.25 398.95 45.8 400.05 46.75 400.1 48.1 400.45 48.35 400.55 47.9 400.6 47.85 400.6 47.35 400.586328125 47.2138671875 400.55 47.1 400.4728515625 46.30234375 400.3 46 399.85 45.05 398.75 44.4 397.8 43.7 395.8 42.75 393.9697265625 41.878515625 393.05 41.3
M 378.25 43.9
Q 379.6556640625 43.4451171875 381.05 43.6 381.3556640625 43.639453125 381.65 43.7 385.551171875 44.09375 388.75 42.75 390.034765625 42.245703125 391.2 41.45
L 390.6 41.2
Q 388.55 42.1 386.35 42.25 385.1 42 383.9 42.2 369.6 44.4 358.45 54.25 358.6548828125 54.201953125 358.85 54.15 359.31015625 54.026953125 359.75 53.85 361.3505859375 53.3189453125 362.75 52.35 364.1212890625 51.3853515625 365.5 50.45 371.5603515625 46.61640625 378.25 43.9
M 357.75 31.6
Q 356.9 30.8 354.9 30.1 354.5392578125 29.963671875 354.2 29.8 348.758984375 27.8166015625 345.8 27.3 344.7 27.1 344.05 27.4 347.437109375 28.1169921875 350.8 29.15 354.287109375 30.209765625 357.75 31.6
M 341.55 28.1
L 341.55 28.35 344.8 28.75 347.95 29.2 348.2 29.2
Q 348.4 29.1 348.3 28.95 347.85078125 28.8482421875 347.35 28.75 345.116015625 28.290625 342.5 28 341.75 28 341.55 28.1
M 382.55 33.45
Q 382.4 33.55 382.4 33.8 382.3671875 34.5552734375 382.4 35.15 382.4806640625 36.4283203125 382.85 37.1 383.05 37.55 383.6 38.35 383.75 38.65 384 39.2 384.2 39.65 384.5 39.85 385 40.1 385.1 40.2
L 385.35 40.6
Q 385.55 40.8 385.85 40.8 386.35 40.8 386.55 40.6 386.6046875 40.5453125 386.65 40.45 386.8318359375 40.2177734375 386.75 39.85 386.734375 39.7404296875 386.7 39.6 386.621875 39.3904296875 386.45 39.15 386.4064453125 39.1935546875 386.35 39.25 386.164453125 39.5298828125 386.25 40
L 386.05 39.95 385.85 39.95
Q 384.75 39.15 383.55 36.9 383.25 36.25 383.1 35.8
L 383.1 35.75
Q 383.0048828125 35.1431640625 383.1 34.05 383.1 33.7 383 33.55 382.8 33.2 382.55 33.45
M 376.9 33.1
Q 376.75 32.85 376.15 32.7 375.2 32.5 372.75 32.6 367.8529296875 32.786328125 364.1 32.05 362.9892578125 31.8271484375 361.95 31.5 359.9923828125 30.9466796875 358.4 30.05 357.55 29.6 357.1 29.1 356.3 28.2 356.2 26.65 356.15 26.05 356.5 24.05 356.75 22.55 357.25 21.6 358 20.2 358.1 19.85 358.1 19.7 358.1 19.6
L 358.2 19.45
Q 358.75 18.95 360.3 18.85
L 361.45 18.85
Q 361.95 18.85 363.05 19.05 362.7 18.45 362 18.3 361.4 18.15 360.75 18.15 359.15 18.15 358.5 18.5 357.85 18.8 357.5 19.3 357.2 19.4 357.05 19.65 355.9 21.15 355.35 23.1 355.1 24.05 354.9 26.05 354.8 27.45 355.05 28.35 355.406640625 29.498828125 356.3 30.4 356.361328125 30.43828125 356.4 30.45 356.613671875 30.6662109375 356.85 30.85 357.8 31.65 359.6 32.35
L 362 33.15
Q 363.8 33.65 364.5 33.8 365.9 34.05 368.85 34.05 374.1 34.15 376.9 33.1
M 377.6 24.4
Q 377.4271484375 24.2703125 377.2 24.15 375.36796875 23.098046875 371.3 23.55 367.05 23.95 364.95 25.2 363.15 26.3 363.5 27.75 363.7 28.7 364.75 29.05 365.6 29.35 366.65 28.9
L 365.05 28
Q 364.6 27.65 364.6 27.45 364.6 27.4 364.6 27.3 364.7 27.6 365 27.75 365.2 27.85 365.7 27.85
L 366.3 27.85 366.95 27.9
Q 368.1 27.9 368.5 27.7 369 27.45 369.75 26.55 370.4 26.05 370.45 25.95 370.55 25.7 370.55 25.15 370.55 25.1 370.55 25.05 371.25 24.95 372.4 24.75 373.65 24.6 374.5 24.7 376.9994140625 24.9884765625 377.8 26.65 377.869140625 26.73046875 377.9 26.8 378.7 26.5 378.5 25.6 378.44140625 25.3951171875 378.35 25.2 378.0951171875 24.7537109375 377.6 24.4
M 386.25 22.6
L 385.75 23.2 383.25 27.65
Q 382.75 28.4 382 29.1 381.55 29.5 381.1 29.7 380.65 29.9 379.95 29.9 378.93671875 30.019140625 378.15 29.85 377.62421875 29.7423828125 377.2 29.5 376.9 29.35 376.75 29.35 376.4 29.35 376.4 29.6
L 376.55 29.9
Q 377.4 30.75 378.75 30.9 379.7 31.1 381.25 30.9 381.8 30.9 382.05 30.75
L 382.5 30.4
Q 383.65 29.4 384.35 28.5 384.85 27.85 385.5 26.7 386.05 26.35 386.65 25.95
L 385.75 26.95
Q 386.5 27 387.8 26.15 388.15 26 388.4 25.65 388.7 25.15 388.7 24.35
L 388.7 22.8
Q 388.7 22.35 388.6 22.1 389.1 21.8 389.65 21.7 389.7703125 21.77734375 389.85 21.85 391.07578125 22.67734375 391.35 23.5 391.45 23.9 391.6 24.75 391.85 24.45 391.95 23.65 392.05 22.95 391.95 22.7 391.8974609375 22.51640625 391.7 22.25 391.5615234375 22.0615234375 391.3 21.8 390.8 21.05 390.45 20.8 389.65 20.3 388.4 20.65 387.4 21 386.95 21.6 386.65 21.9 386.25 22.6
M 385.25 13.65
L 384.9 12.7
Q 384.6 12 383.85 11.05
L 383.6 10.85
Q 383.6 11.15 383.95 11.95 384.35 12.75 384.6 13.85
L 385.05 15.25
Q 385.25 16.05 385.2 16.35 385.2 16.65 384.85 17.45 384.7 18 384.35 18.3 384.15 18.5 383.25 18.95
L 380.9 19.65
Q 380.85 19.65 379.6 19.8
L 376.6 19.8
Q 374.35 19.7 373.1 19.25 372.05 18.8 371.5 18.55 370.55 18.2 369.85 18.3 369.75 18.35 369.75 18.5 369.8 18.6 369.9 18.7
L 370.35 18.8
Q 370.9 18.85 371.7 19.4 372.4 19.8 373.1 20 374.15 20.4 376.4 20.6
L 379.8 20.7
Q 381.05 20.7 381.4 20.6 381.85 20.55 382.5 20.25
L 383.9 19.7
Q 384.7 19.4 384.95 19.2 385.55 18.75 385.8 17.65 386.2 16.2 385.95 15.35 385.45 14.25 385.25 13.65
M 407.5 34.95
Q 407.25 34.6 407.05 34.75 406.9 34.95 406.9 35.45 407 36.3 407.5 37.3 407.7 37.65 408.55 39.05 410.15 41.5 410.9 43
L 411.35 43.8
Q 411.45 44.05 412.05 44.85 413.4 46.6 414.35 48.35 414.45 48.45 414.5 48.55 412.9 46.8 411.5 45.5 411.2 45.3 411.1 45.4 413.05 47.2 413.85 48.2 414.35 48.9 414.75 49.1
L 414.85 48.95 414.8 48.9
Q 415.1 49.15 415.35 49.1
L 412.05 43.25
Q 409.95 39.5 408.45 37.35 407.7 36.05 407.6 35.5 407.6 35.1 407.5 34.95
M 427.55 14.1
Q 427 13.2 426.35 12.25 425.7 11.15 425.15 10.25
L 423.75 10.25
Q 424.05 10.85 424.45 11.5 425.1 12.4 425.6 13.25 430.3 25.25 427.35 38.55 424.25 52.5 421 66.4 420.6 70.2 419.6 73.65 417.7197265625 73.7330078125 415.95 73.9 411.43125 74.3232421875 407.85 75.3 406.2 75.7 404.95 76.25 403.35 77.05 403.2 78.2 403.1 79.15 404.15 80.15
L 404.15 80.2 404.3 80.4 404.4 80.5 404.55 80.5
Q 404.6 80.55 404.7 80.65 404.85 80.8 405 80.75 405.15 81.2 405.2 81.8 405.3 82.45 405.4 83.15 401.3 84.9 399.3 87.65 398.65 88.75 398.55 88.9 397.8 90.5 398 93.5 398 94 398.15 94.5 398.35 95.35 399.6 96.75
L 400.3 97.55
Q 399.4 97.8 398.35 98.45 397 99.25 396.3 99.6 382.7 108.15 363.05 108.8 355 109.05 345.65 107.95 344.1 107.75 342.45 107.55 342 107.4 341.5 107.3 341.05 107.15 340.9 107.3 335.3 106.45 328.4 105.15 324.999609375 104.56953125 323.15 104.75 322.894921875 104.8080078125 322.65 104.85 322.6306640625 104.858984375 322.55 104.85 322.51796875 104.8833984375 322.45 104.9 322.6181640625 104.9490234375 322.75 105 328.6294921875 106.68359375 334.85 107.85
L 329.15 108.7
Q 328.7 108.8 328.7 109.05 328.75 109.3 329.2 109.3 330.75 109.2 333.85 108.65 335.6 108.45 337.85 108.45 338.05 108.45 338.3 108.45 342.65 109.15 347.3 109.55 357 111.8 369.95 112.65 375.95 113 379.55 112.75 384.85 112.35 388.8 110.6 388.9 110.55 389 110.55 388.95 110.6 388.95 110.7 388.6 112.5 388.7 114.7 388.7 116.25 388.6 116.7
L 388.45 117.45
Q 388.35 118 388.35 119.05 388.3 119.55 388 120.55 387.95 120.7 387.95 120.9
L 389.25 120.9
Q 389.6 119.85 389.7 119.4
L 389.8 118.25
Q 389.9 117.4 389.95 116.95 390.05 116.25 390 114.05 389.95 112.25 390.2 111.2 390.6 109.95 390.7 109.35
L 390.85 107.9
Q 390.9 107.5 391.35 106.2 391.7 105.2 391.65 104.5
L 391.55 103.85
Q 396.3 101.65 401.15 98.65 401.2 98.6 401.25 98.6
L 403.5 101.15
Q 404.669921875 102.5767578125 405.5 104.2 406.14921875 105.44765625 406.6 106.8
L 406.65 106.75
Q 406.85 109.35 407.1 111.2 407.25 112.35 407.55 114.6 407.8 116.55 407.7 118 407.7 118.45 407.7 119.3 407.7 120 407.95 120.45 408.05 120.7 408.25 120.9
L 415.25 120.9
Q 413.6 120.85 412.1 120.75 410.2 120.65 409.55 119.85 409 119.2 409.1 117.3 409.15 115.7 408.45 110.6 407.9244140625 106.65859375 407.6 98.3 407.543359375 97.1224609375 407.5 95.85 407.15 86.2 406.3 81.1 406.1 80 405.7 79.6 405.4 79.35 404.95 79.35
L 404.9 79.35 404.85 79.3
Q 404.3 78.75 404.25 78.45 405.6 77.15 408.9 76.45 412.693359375 75.683203125 416.5 75.3 422.214453125 74.711328125 428 74.95 436.7 75.3 445.05 77.5 444.55 77.6 444 77.8 442.76953125 78.217578125 441.3 78.7 439.4640625 79.3873046875 437.25 80.2
L 430.05 82.7
Q 429.8 83.05 429.7 83.45 429.15078125 85.3130859375 428.9 86.95 427.6130859375 97.1142578125 439.15 98.75 440.15 98.7 441.25 98.55 442.8 98.35 444.95 97.75 446.1 97.45 448.35 96.9
L 448.3 99.75
Q 448.3 99.8 448.3 99.9 447.6 99.95 446.9 100 440.8 100.5 436.45 101.25
L 431.8 102.1
Q 429.6 102.6 428 103.15 426.6 103.7 423.45 105.15 420.5 106.45 418.8 107.05 416.95 107.75 416.3 108.05 414.95 108.75 414.35 109.7 413.943359375 110.47265625 413.8 111.85 413.809375 112.1955078125 413.8 112.55 413.6 115.4 414.2 117.05 415.2 119.55 417.7 120.9
L 422.6 120.9
Q 419.95 120.55 418.35 119.5 416.5 118.4 415.55 116.25 414.65 114.15 415.05 112 415.1087890625 111.784375 415.15 111.6 415.428515625 110.801953125 415.75 110.4 416.2 109.9 417.3 109.45 422.05 107.2 424.9 106.1 427 106.3 429 106
L 429.55 106.65
Q 429.8103515625 107.0732421875 430 107.8 430.1453125 108.2115234375 430.25 108.7
L 430.7 110.45
Q 431.15 112.25 431.15 112.8 431.15 113.6 430.8 113.95 430.6 114.15 430.2 114.3 429.75 114.45 429.5 114.55 428.8 115 428.45 115.2 428.05 115.45 426.95 115.8
L 425.2 116.4
Q 422.45 117.35 419.65 116.8 418.1 116.5 416.5 115.85 415.75 115.55 415.4 115.75 415.95 116.35 417 116.9 419.5 118.1 422.05 117.95
L 424.8 117.65 427.4 116.65
Q 429.9 115.7 431 115.05 431.55 114.65 431.7 114.45 431.9 114.15 431.9 113.45 431.9 112.2 431.75 110.9 431.45 109.65 431.3 109.05
L 431.05 108.05
Q 431.0158203125 107.912890625 430.95 107.75 430.7158203125 106.7986328125 430.45 106.4 430.35 106.2 430 105.75
L 429.65 105.35
Q 429.4 105.15 428.95 105.15 428.55 105.15 427.15 105.5 426.7 105.6 425.95 105.65 430 104 433.5 103.15 437.35 102.3 444 101.7 451.9 101 454.55 100.55 457.4 100.15 459.6 99.45 461.4 98.9 464.05 97.65
L 464.05 96.55
Q 458.7 98.8 449.3 99.8 449.3 99.55 449.3 99.35
L 449.3 96.65
Q 452.35 96 456.55 95.35 459.1 94.95 464.05 94.35
L 464.05 92.8
Q 459.1 93.5 456.45 93.85 451.5 94.55 448.2 95.4 445.75 96.1 444.55 96.4 442.4 97 440.85 97.25 440.45 97.3 440.1 97.4
L 435.55 97.45
Q 434.4 96.45 433.35 95.4 435.15 95.4 437.8 94.75 440.65 93.9 442.75 92.85 443.65 92.4 444.2 91.8 444.45 91.55 444.75 90.95
L 445.05 90.5
Q 445.3 90.05 445.35 89.8 445.45 89.5 445.45 88.95
L 445.4 85.35
Q 445.3 84.8 444.95 84.15 444.7 83.45 444.3 82.95 444.1 82.7 443.5 82.2
L 442.75 81.75
Q 442.580078125 81.68203125 442.25 81.6 442.0923828125 81.616015625 441.9 81.6 441.4 81.55 441.1 81.4
L 441 81.65
Q 441.209375 81.7322265625 441.4 81.8 442.4748046875 82.2673828125 442.9 82.65 443.3 82.95 443.75 83.65
L 444.3 84.9 444.55 85.75
Q 444.55 85.8 444.7 86.85 444.8 89.8 443.45 91.15 443.05 91.55 441.65 92.3 439.5 93.2 438.85 93.4
L 437.3 93.8
Q 434.85 94.6 433.6 94.7 433.1 94.7 432.75 94.75 429.403125 91.0568359375 429.85 86.3 429.97734375 84.871875 430.45 83.35 430.8 83.4 431.15 83.5 434.85 82.65 438.5 81.1 442.25 79.8 443.95 79.35
L 444 79.3
Q 446.5134765625 78.5486328125 448 78.4 449.45 78.25 452.3 78.2 455.6 78.05 461.4 76.3
L 464.05 75.6 464.05 74
Q 463.6 74.1 463.15 74.25 457.7 75.85 457.15 75.95 453.65 76.8 450.95 76.85 448.85 76.85 448 76.9 447.75 76.65 447.35 76.55 435.9 73.15 421.75 73.55 421.3 73.55 420.9 73.6 421 73.3 421.15 72.95 421.7 71.1 422.3 67.25 423 62.7 424.35 58.35 426.75 50.5 428.45 42.6 431.65 27.8 427.55 14.1
M 405.5 84.25
Q 405.9 88.9 406.15 96.5 406.227734375 99.1810546875 406.3 101.5 406.3666015625 102.16484375 406.4 102.8 406.25625 102.537890625 406.05 102.25 405.2541015625 100.937109375 403.8 99.4
L 402.7 98.15
Q 400.85 96 400 94.8 399.4 93.85 399.25 93.15 398.9 92.05 399.6 90 400.2 88.35 401 87.5
L 401.65 86.85
Q 401.8 86.65 402.1 86.2 402.3 86.05 402.85 85.85
L 403.75 85.1
Q 404.15 84.7 404.85 84.45 405.25 84.3 405.5 84.25 Z"/>

<path fill="#FFFFFF" stroke="none" d="
M 447.3 120.65
Q 448.5 120.5 449.4 120.05
L 446.6 120.05
Q 444.1 120.05 443.35 120.15 441.2 120.35 440.4 120.25 440.15 120.25 440.05 120.15 438.75 120.55 437.5 120.9
L 442.2 120.9 444.6 120.85
Q 446.45 120.8 447.3 120.65 Z"/>

<path fill="#DA9E8B" stroke="none" d="
M 446.15 106.15
Q 446.624609375 108.3755859375 446.4 110.3 446.4 110.9 446.2 111.3 445.95 111.2 445.95 110.65 446.0185546875 108.4919921875 445.75 106.9 445.4609375 107.4900390625 444.95 107.85 445.009375 107.9630859375 445.05 108.1 445.25 108.65 445.25 110.25
L 445.35 112.35
Q 444.95 111.7 444.85 110.4 444.75 108.85 444.6 108.4
L 444.5 108.1
Q 443.926171875 108.35 443.15 108.35 442.15 108.35 440.25 108.05 438.4 107.75 437.5 107.75 433.80625 107.6884765625 430.95 107.75 431.0158203125 107.912890625 431.05 108.05
L 431.3 109.05
Q 431.45 109.65 431.75 110.9 431.9 112.2 431.9 113.45 431.9 114.15 431.7 114.45 431.55 114.65 431 115.05 429.9 115.7 427.4 116.65
L 424.8 117.65 422.05 117.95
Q 419.5 118.1 417 116.9 415.95 116.35 415.4 115.75 415.75 115.55 416.5 115.85 418.1 116.5 419.65 116.8 422.45 117.35 425.2 116.4
L 426.95 115.8
Q 428.05 115.45 428.45 115.2 428.8 115 429.5 114.55 429.75 114.45 430.2 114.3 430.6 114.15 430.8 113.95 431.15 113.6 431.15 112.8 431.15 112.25 430.7 110.45
L 430.25 108.7
Q 430.1453125 108.2115234375 430 107.8 428.82578125 107.866796875 427.8 107.95 425.55 108.15 421.2 109.75 417.927734375 110.95546875 415.15 111.6 415.1087890625 111.784375 415.05 112 414.65 114.15 415.55 116.25 416.5 118.4 418.35 119.5 419.95 120.55 422.6 120.9
L 430.25 120.9
Q 431.9 120.7 433.45 120.35 435.45 119.9 440.55 118.25 445.05 116.8 447.8 116.35 447 117.3 445.05 118.2 444.05 118.65 443.05 119.1 444.55 118.9 446.45 118.9
L 457.6 118.8 459.8 118.55
Q 462 118.35 464.05 118.4
L 464.05 103.4
Q 455.6236328125 104.03359375 451.3 104.45 447.3154296875 104.8314453125 446.15 106.15
M 459.85 104.3
Q 460.05 104.6 460.05 105.35
L 460.3 106.1
Q 460.55 106.8 460.4 107.75
L 460.25 107.75
Q 460.15 107.6 460.15 107.1
L 459.9 106.35
Q 459.6 105.6 459.6 104.3
L 459.85 104.3
M 442.9 82.65
Q 442.4748046875 82.2673828125 441.4 81.8 439.58359375 82.233203125 437.45 82.9 432.70859375 84.3861328125 429.85 86.3 429.403125 91.0568359375 432.75 94.75 433.1 94.7 433.6 94.7 434.85 94.6 437.3 93.8
L 438.85 93.4
Q 439.5 93.2 441.65 92.3 443.05 91.55 443.45 91.15 444.8 89.8 444.7 86.85 444.55 85.8 444.55 85.75
L 444.3 84.9 443.75 83.65
Q 443.3 82.95 442.9 82.65
M 441.65 85.2
Q 441.4 84.55 441.4 84.05 441.55 84 441.7 84.15
L 441.85 84.45
Q 442.35 86.1 442.7 86.95 442.9 87.35 442.85 87.6 442.65 87.6 442.55 87.3
L 442.4 86.85 442.15 86.65 441.65 85.2
M 443.5 82.2
Q 444.1 82.7 444.3 82.95 444.7 83.45 444.95 84.15 445.3 84.8 445.4 85.35
L 445.45 88.95
Q 445.45 89.5 445.35 89.8 445.3 90.05 445.05 90.5
L 444.75 90.95
Q 444.45 91.55 444.2 91.8 443.65 92.4 442.75 92.85 440.65 93.9 437.8 94.75 435.15 95.4 433.35 95.4 434.4 96.45 435.55 97.45
L 440.1 97.4
Q 440.45 97.3 440.85 97.25 442.4 97 444.55 96.4 445.75 96.1 448.2 95.4 451.5 94.55 456.45 93.85 459.1 93.5 464.05 92.8
L 464.05 78.5
Q 461.2146484375 78.955859375 458.4 80.25 457.15859375 80.8130859375 456.2 81.2 456.42265625 81.6466796875 456.6 82.1 457.1 83.3 457.35 84.25
L 457.8 85.55
Q 458.35 87.5 458.35 88.25 457.95 87.85 457.9 87.45
L 457.85 86.4
Q 457.8 86.1 457.25 85.2 457 84.65 456.7 83.45 456.3984375 82.424609375 455.9 81.35 455.5625 81.4970703125 455.25 81.6
L 456.5 84.75
Q 457.65 87.55 457.15 89.05 456.95 87.6 456.45 86.05 456.25 85.45 455.25 83.1 454.967578125 82.427734375 454.7 81.8 453.6837890625 82.2 453.35 82.2 451.4 81.65 450.05 81.55 446.95 81.15 446.45 81.15 444.6556640625 81.15 442.25 81.6 442.580078125 81.68203125 442.75 81.75
L 443.5 82.2
M 424.05 30.7
Q 424.1 18.95 416.4 10.25
L 387.8 10.25
Q 388 10.6 388.05 10.65 388.25 10.9 389.45 11.9
L 392.25 14.35
Q 394.55 16.4 395.25 17.8 396.15 19.4 396.15 21.75 396.25 23.35 395.75 24.65 395.55 25.15 394.65 26.6 393.9 27.7 393.25 28.2
L 391.95 28.9
Q 391.2 29.45 390.85 29.7 390.15 30.15 389.6 30.1 389.4 29.85 389.7 29.4 390 29 390.75 28.35 392.25 27 392.75 26.5 393.8 25.4 394.3 24.3 395.05 22.6 394.65 20.5 394.25 18.55 392.9 17 392.7 16.75 391.65 15.75
L 387.35 11.7
Q 386.85 11.2 386.75 11.05 386.55 10.6 386.35 10.25
L 316.15 10.25 316.15 120.9 346.8 120.9
Q 339.998046875 117.8720703125 333.4 113.3 324.446875 106.0369140625 322.75 105 322.6181640625 104.9490234375 322.45 104.9 322.51796875 104.8833984375 322.55 104.85 322.6306640625 104.858984375 322.65 104.85 322.894921875 104.8080078125 323.15 104.75 324.999609375 104.56953125 328.4 105.15 335.3 106.45 340.9 107.3 341.05 107.15 341.5 107.3 342 107.4 342.45 107.55 344.1 107.75 345.65 107.95 355 109.05 363.05 108.8 382.7 108.15 396.3 99.6 397 99.25 398.35 98.45 399.4 97.8 400.3 97.55
L 399.6 96.75
Q 398.35 95.35 398.15 94.5 398 94 398 93.5 397.8 90.5 398.55 88.9 398.65 88.75 399.3 87.65 401.3 84.9 405.4 83.15 405.3 82.45 405.2 81.8 405.15 81.2 405 80.75 404.85 80.8 404.7 80.65 404.6 80.55 404.55 80.5
L 404.4 80.5 404.3 80.4 404.15 80.2 404.15 80.15
Q 403.1 79.15 403.2 78.2 403.35 77.05 404.95 76.25 406.2 75.7 407.85 75.3 411.43125 74.3232421875 415.95 73.9 414.65 62.9 419.25 52.75 424.05 42.25 424.05 30.7
M 406.4 22.75
L 407.05 22.4
Q 412.25 29.05 420 32.65 423.6 36 418.1 36.9 414.75 37.4 412.3 34.6 408.9 30.7 405.9 26.95 406.15 24.85 406.4 22.75
M 407.05 34.75
Q 407.25 34.6 407.5 34.95 407.6 35.1 407.6 35.5 407.7 36.05 408.45 37.35 409.95 39.5 412.05 43.25
L 415.35 49.1
Q 415.1 49.15 414.8 48.9
L 414.85 48.95 414.75 49.1
Q 414.35 48.9 413.85 48.2 413.05 47.2 411.1 45.4 411.2 45.3 411.5 45.5 412.9 46.8 414.5 48.55 414.45 48.45 414.35 48.35 413.4 46.6 412.05 44.85 411.45 44.05 411.35 43.8
L 410.9 43
Q 410.15 41.5 408.55 39.05 407.7 37.65 407.5 37.3 407 36.3 406.9 35.45 406.9 34.95 407.05 34.75
M 384.9 12.7
L 385.25 13.65
Q 385.45 14.25 385.95 15.35 386.2 16.2 385.8 17.65 385.55 18.75 384.95 19.2 384.7 19.4 383.9 19.7
L 382.5 20.25
Q 381.85 20.55 381.4 20.6 381.05 20.7 379.8 20.7
L 376.4 20.6
Q 374.15 20.4 373.1 20 372.4 19.8 371.7 19.4 370.9 18.85 370.35 18.8
L 369.9 18.7
Q 369.8 18.6 369.75 18.5 369.75 18.35 369.85 18.3 370.55 18.2 371.5 18.55 372.05 18.8 373.1 19.25 374.35 19.7 376.6 19.8
L 379.6 19.8
Q 380.85 19.65 380.9 19.65
L 383.25 18.95
Q 384.15 18.5 384.35 18.3 384.7 18 384.85 17.45 385.2 16.65 385.2 16.35 385.25 16.05 385.05 15.25
L 384.6 13.85
Q 384.35 12.75 383.95 11.95 383.6 11.15 383.6 10.85
L 383.85 11.05
Q 384.6 12 384.9 12.7
M 385.75 23.2
L 386.25 22.6
Q 386.65 21.9 386.95 21.6 387.4 21 388.4 20.65 389.65 20.3 390.45 20.8 390.8 21.05 391.3 21.8 391.5615234375 22.0615234375 391.7 22.25 392.4 22.786328125 392.4 23.9 392.4 25.3 388.5 28.5 384.55 31.75 384.55 35.3 384.55 36.95 385.05 37.6 385.34296875 38.0185546875 386.35 39.25 386.4064453125 39.1935546875 386.45 39.15 386.621875 39.3904296875 386.7 39.6 386.734375 39.7404296875 386.75 39.85 386.8318359375 40.2177734375 386.65 40.45 386.6046875 40.5453125 386.55 40.6 386.35 40.8 385.85 40.8 385.55 40.8 385.35 40.6
L 385.1 40.2
Q 385 40.1 384.5 39.85 384.2 39.65 384 39.2 383.75 38.65 383.6 38.35 383.05 37.55 382.85 37.1 382.4806640625 36.4283203125 382.4 35.15 381.463671875 34.6 380 34.6 378.3 34.6 373.25 35.25 371.65 35.45 367.75 35.55 364.95 35.65 363.75 35.65 361.3 35.65 356.4 33.7 351.45 31.75 342.85 31.75 337.25 31.75 336.75 32.15
L 336.55 32.15
Q 336.8 32 340.6 31.5 344.8 31 345.85 30.7
L 346.05 30.7
Q 345.35 30.5 342.05 29.9 338.65 29.25 338 29.25 338 29.05 337.6 29.05 338.1 29 341.9 28.95 344.2193359375 28.95 344.8 28.75
L 341.55 28.35 341.55 28.1
Q 341.75 28 342.5 28 345.116015625 28.290625 347.35 28.75 349.095703125 28.8775390625 350.8 29.15 347.437109375 28.1169921875 344.05 27.4 344.7 27.1 345.8 27.3 348.758984375 27.8166015625 354.2 29.8 354.89375 30.0044921875 355.6 30.2 355.91171875 30.286328125 356.2 30.35 356.3134765625 30.423046875 356.4 30.45 356.361328125 30.43828125 356.3 30.4 355.406640625 29.498828125 355.05 28.35 354.8 27.45 354.9 26.05 355.1 24.05 355.35 23.1 355.9 21.15 357.05 19.65 357.2 19.4 357.5 19.3 357.85 18.8 358.5 18.5 359.15 18.15 360.75 18.15 361.4 18.15 362 18.3 362.7 18.45 363.05 19.05 361.95 18.85 361.45 18.85
L 360.3 18.85
Q 358.75 18.95 358.2 19.45
L 358.1 19.6
Q 358.1 19.7 358.1 19.85 358 20.2 357.25 21.6 356.75 22.55 356.5 24.05 356.15 26.05 356.2 26.65 356.3 28.2 357.1 29.1 357.55 29.6 358.4 30.05 359.9923828125 30.9466796875 361.95 31.5 362.9892578125 31.8271484375 364.1 32.05 364.6521484375 31.9470703125 365.1 31.75 365.721484375 31.501953125 366.2 31.1 367.05 30.35 367.05 29.95 367.05 29.3095703125 366.3 27.85
L 365.7 27.85
Q 365.2 27.85 365 27.75 364.7 27.6 364.6 27.3 364.6 27.4 364.6 27.45 364.6 27.65 365.05 28
L 366.65 28.9
Q 365.6 29.35 364.75 29.05 363.7 28.7 363.5 27.75 363.15 26.3 364.95 25.2 367.05 23.95 371.3 23.55 375.36796875 23.098046875 377.2 24.15 377.4271484375 24.2703125 377.6 24.4 378.0951171875 24.7537109375 378.35 25.2 378.44140625 25.3951171875 378.5 25.6 378.7 26.5 377.9 26.8 377.869140625 26.73046875 377.8 26.65 377.55 27.483984375 377.55 28.4 377.55 29.3861328125 378.15 29.85 378.93671875 30.019140625 379.95 29.9 380.65 29.9 381.1 29.7 381.55 29.5 382 29.1 382.75 28.4 383.25 27.65
L 385.75 23.2
M 392.8 41.15
Q 392.915625 41.2271484375 393.05 41.3 393.9697265625 41.878515625 395.8 42.75 397.8 43.7 398.75 44.4 399.85 45.05 400.3 46 400.4728515625 46.30234375 400.55 47.1 400.8080078125 47.3396484375 401.05 47.6
L 401.05 48.3 401.05 48.45
Q 401.0052734375 48.460546875 400.95 48.45 401.4955078125 48.529296875 401.9 48.75 402.35 49 402.55 49.35 403 50 402.45 50.9 402.3 50.9 401.8 50.25 401.45 49.7 400.75 49.6 400.5625 49.5830078125 400.35 49.6 400.62578125 50.1265625 401.05 51 401.85 52.75 401.85 53.75 401.85 55.05 398.75 58.35 397.05703125 60.147265625 395.7 61 396.5259765625 60.8333984375 397.05 60.5 397.7 60 398.25 59.25
L 401.05 55.7
Q 400.980859375 56.34609375 400.55 57.2 400.9037109375 56.9361328125 401.25 56.65
L 401.25 58.3
Q 399.95 60.85 397.05 63.8 394.65 66.2 394.65 67.05 394.65 67.55 396.85 69.5 398.6384765625 71.1095703125 400.2 71.85 397.7642578125 70.8818359375 394 70.35 393.7263671875 70.310546875 393.45 70.25 396.1349609375 71.3986328125 397.5 72.35 397.55 72.5 397.35 72.55 397.15 72.6 396.95 72.5
L 391.95 70.85
Q 390.45 70.35 389.7 70.3 389.6373046875 70.290625 389.55 70.25 388.596484375 70.165625 387.05 70.4 386.4376953125 70.496484375 385.8 70.6 381.111328125 71.5279296875 376.9 73.7
L 374.05 75.25
Q 369.55 77.85 367.85 79.5
L 367.1 80.1
Q 366.9201171875 80.175 366.75 80.2 365.414453125 81.3240234375 363.95 82.6
L 363.95 80.75
Q 364.1 78.05 368.85 72.95 373.05 68.4 374.9 67.55 374.8 67.55 374.75 67.45
L 374.7 67.35
Q 374.35 66.6 370.1 64.55 367.036328125 63.065625 365.2 61.95 364.4466796875 61.778125 363.8 61.85 363.7 61.65 363.9 61.5 364.078125 61.36640625 364.3 61.35 364.3673828125 61.35 364.4 61.35 365.2677734375 61.37890625 366.5 61.6 366.426953125 61.58828125 366.35 61.55 358.8390625 57.8169921875 355.9 57.05
L 355.9 57.4
Q 355.9 57.8 355.75 57.95 355.5 58.1 355.5 58.15
L 355.05 58.1 355 56.75 355.05 56.55 355.15 56.4 355.45 56.2 355.5 56.2
Q 355.6958984375 56.16484375 355.8 56.25
L 355.85 56.3 355.85 56.45
Q 355.989453125 56.38359375 356.1 56.3 356.5771484375 56.0087890625 357.2 55.5 357.4154296875 55.3435546875 357.65 55.15 358.7142578125 54.495703125 359.75 53.85 359.31015625 54.026953125 358.85 54.15 358.6548828125 54.201953125 358.45 54.25 369.6 44.4 383.9 42.2 385.1 42 386.35 42.25 388.55 42.1 390.6 41.2
L 391.2 41.45
Q 390.034765625 42.245703125 388.75 42.75 389.1962890625 42.7150390625 389.5 42.65 389.8 42.55 390.9 41.85 391.4908203125 41.445703125 391.85 41.3 391.8447265625 41.1404296875 391.95 41 392.3 40.75 392.8 41.15
M 345.55 68.85
Q 346.75 69.4 347.55 69.6
L 347.5 69.9 342.7 67.9
Q 343 67.75 343.55 67.95 344.1 68.15 345.55 68.85
M 348.85 65.9
Q 349 65.9 348.85 66.05
L 348.65 66.1
Q 344.95 66.2 341.35 65.65 341.3 65.6 341.35 65.55 341.4 65.5 341.5 65.5
L 348.85 65.9
M 334.3 61.75
Q 334.85 61.75 335.1 61.8
L 335.9 61.95
Q 336.15 62 336.7 62.05
L 337.2 62.25
Q 337.45 62.3 338 62.35 338.25 62.45 338.4 62.75 338.5 63.05 338.35 63.3 338.65 63.55 338.65 64.1 338.7 64.4 338.6 65
L 338.6 65.95
Q 338.55 66.25 338.25 66.75 337.85 67.5 337.8 67.6 337.65 67.8 337.05 68.15 336.2 68.55 335.85 68.65 335.1 68.8 334.5 68.75 333.9 68.75 332.7 68.65 332.05 68.55 331.75 68.4 331.35 68.25 330.75 67.65 330.1 67.1 329.95 66.5 329.85 66.2 329.85 65.55
L 329.85 64.7 330.05 63.7 330.6 63.05
Q 331.15 62.45 332.1 62
L 332.75 61.8 334.3 61.75
M 343.85 63.25
Q 343.85 63.3 343.8 63.3
L 343.6 63.35 341.9 63.4 342 63.2 343 63.15 343 63.05 343.85 63.15
Q 343.9 63.2 343.85 63.25
M 401.1 58.65
L 401.25 58.65
Q 401 59.85 400.55 60.7
L 400.35 61.05
Q 400.15 61.25 399.95 61.25 399.95 61.2 400.2 60.8
L 400.35 60.6 401.1 58.65
M 377.75 80.75
Q 381.2 79.2 383 78.7 386 77.8 388.45 78.05 390 78.25 390.55 78.15
L 391.3 78
Q 391.6 78.05 392 78.35 395.15 80.85 395.7 81.4
L 397.35 83.25
Q 397.95 83.85 398.1 84.2 398.25 84.65 398.25 85.65 398.15 86.4 398 86.55 397.65 86.85 396.95 86.75 388.6 86.25 382.5 87.45 374.65 89 369.25 93.1 368.4 93.85 367.95 93.4 367.7 93.2 367.7 92.7 367.6 91.35 368.35 89.9 368.8 89 369.95 87.35 372.55 83.85 374.3 82.6 375.35 81.85 377.75 80.75
M 337.4 64.15
L 337 64.15 337 64.35 337.05 64.4 337.2 64.5 337.4 64.7 337.45 64.5 337.45 64.25 337.4 64.15
M 375.5 45.15
Q 377.45 44.15 380.4 43.7 380.7083984375 43.6546875 381.05 43.6 379.6556640625 43.4451171875 378.25 43.9 371.5603515625 46.61640625 365.5 50.45 371.0330078125 47.3396484375 375.5 45.15
M 383.1 35.75
L 383.1 35.8
Q 383.25 36.25 383.55 36.9 384.75 39.15 385.85 39.95
L 386.05 39.95
Q 384.691796875 38.68359375 383.55 36.4 383.35546875 36.0314453125 383.1 35.75
M 389.65 21.7
Q 389.1 21.8 388.6 22.1 389.2005859375 21.8841796875 389.85 21.85 389.7703125 21.77734375 389.65 21.7
M 406.15 96.5
Q 405.9 88.9 405.5 84.25 405.25 84.3 404.85 84.45 404.15 84.7 403.75 85.1
L 402.85 85.85
Q 402.3 86.05 402.1 86.2 401.8 86.65 401.65 86.85
L 401 87.5
Q 400.2 88.35 399.6 90 398.9 92.05 399.25 93.15 399.4 93.85 400 94.8 400.85 96 402.7 98.15
L 403.8 99.4
Q 405.2541015625 100.937109375 406.05 102.25 406.25625 102.537890625 406.4 102.8 406.3666015625 102.16484375 406.3 101.5 406.227734375 99.1810546875 406.15 96.5
M 402.75 87.7
Q 403.15 87.5 403.35 87.55 403.65 87.6 403.8 87.95 403.95 88.25 403.85 88.55 403.8 88.8 403.3 89.65
L 402.95 90.7 402.4 91.7
Q 401.45 93.05 401.25 93.25 400.8 93.45 400.5 92.9 400.3 92.6 400.4 92 400.4 90.65 400.7 89.85 401.25 88.35 402.75 87.7 Z"/>

<path fill="#C1817B" stroke="none" d="
M 388.95 110.7
Q 388.95 110.6 389 110.55 388.9 110.55 388.8 110.6 384.85 112.35 379.55 112.75 375.95 113 369.95 112.65 357 111.8 347.3 109.55 342.65 109.15 338.3 108.45 338.05 108.45 337.85 108.45 335.6 108.45 333.85 108.65 330.75 109.2 329.2 109.3 328.75 109.3 328.7 109.05 328.7 108.8 329.15 108.7
L 334.85 107.85
Q 328.6294921875 106.68359375 322.75 105 324.446875 106.0369140625 333.4 113.3 339.998046875 117.8720703125 346.8 120.9
L 387.95 120.9
Q 387.95 120.7 388 120.55 388.3 119.55 388.35 119.05 388.35 118 388.45 117.45
L 388.6 116.7
Q 388.7 116.25 388.7 114.7 388.6 112.5 388.95 110.7
M 464.05 94.35
Q 459.1 94.95 456.55 95.35 452.35 96 449.3 96.65
L 449.3 99.35
Q 449.3 99.55 449.3 99.8 458.7 98.8 464.05 96.55
L 464.05 94.35
M 363.95 80.75
L 363.95 82.6
Q 365.414453125 81.3240234375 366.75 80.2 366.3951171875 80.26015625 366.15 80.05 367.45 78.3 369.15 77 370.9 75.65 374.9 73.45 378.95 71.3 380.5 70.65 383 69.7 385.6 69.2 388 68.75 389.7 69 390.2 69.1 392.3 69.8 392.9130859375 70.041796875 393.45 70.25 393.7263671875 70.310546875 394 70.35 397.7642578125 70.8818359375 400.2 71.85 398.6384765625 71.1095703125 396.85 69.5 394.65 67.55 394.65 67.05 394.65 66.2 397.05 63.8 399.95 60.85 401.25 58.3
L 401.25 56.65
Q 400.9037109375 56.9361328125 400.55 57.2 400.0923828125 58.2076171875 399.15 59.5 397.65 61.65 396.3 62 395.75 62.15 394.65 62.15 390.9 62.15 387.2 62.3 384.95 62.4 383.85 62.7 381.8 63.4 380.75 63.7 379.8 63.95 377.75 64.05 372.15 64.2 367.9 62.75 366.25 62.2 365.85 62.1 365.5263671875 62.0015625 365.2 61.95 367.036328125 63.065625 370.1 64.55 374.35 66.6 374.7 67.35
L 374.75 67.45
Q 374.8 67.55 374.9 67.55 373.05 68.4 368.85 72.95 364.1 78.05 363.95 80.75
M 388.7 22.8
L 388.7 24.35
Q 388.7 25.15 388.4 25.65 388.15 26 387.8 26.15 386.5 27 385.75 26.95
L 386.65 25.95
Q 386.05 26.35 385.5 26.7 384.85 27.85 384.35 28.5 383.65 29.4 382.5 30.4
L 382.05 30.75
Q 381.8 30.9 381.25 30.9 379.7 31.1 378.75 30.9 377.4 30.75 376.55 29.9
L 376.4 29.6
Q 376.4 29.35 376.75 29.35 376.9 29.35 377.2 29.5 377.62421875 29.7423828125 378.15 29.85 377.55 29.3861328125 377.55 28.4 377.55 27.483984375 377.8 26.65 376.9994140625 24.9884765625 374.5 24.7 373.65 24.6 372.4 24.75 371.25 24.95 370.55 25.05 370.55 25.1 370.55 25.15 370.55 25.7 370.45 25.95 370.4 26.05 369.75 26.55 369 27.45 368.5 27.7 368.1 27.9 366.95 27.9
L 366.3 27.85
Q 367.05 29.3095703125 367.05 29.95 367.05 30.35 366.2 31.1 365.721484375 31.501953125 365.1 31.75 364.6521484375 31.9470703125 364.1 32.05 367.8529296875 32.786328125 372.75 32.6 375.2 32.5 376.15 32.7 376.75 32.85 376.9 33.1 374.1 34.15 368.85 34.05 365.9 34.05 364.5 33.8 363.8 33.65 362 33.15
L 359.6 32.35
Q 357.8 31.65 356.85 30.85 356.613671875 30.6662109375 356.4 30.45 356.3134765625 30.423046875 356.2 30.35 355.91171875 30.286328125 355.6 30.2 354.89375 30.0044921875 354.2 29.8 354.5392578125 29.963671875 354.9 30.1 356.9 30.8 357.75 31.6 354.287109375 30.209765625 350.8 29.15 349.095703125 28.8775390625 347.35 28.75 347.85078125 28.8482421875 348.3 28.95 348.4 29.1 348.2 29.2
L 347.95 29.2 344.8 28.75
Q 344.2193359375 28.95 341.9 28.95 338.1 29 337.6 29.05 338 29.05 338 29.25 338.65 29.25 342.05 29.9 345.35 30.5 346.05 30.7
L 345.85 30.7
Q 344.8 31 340.6 31.5 336.8 32 336.55 32.15
L 336.75 32.15
Q 337.25 31.75 342.85 31.75 351.45 31.75 356.4 33.7 361.3 35.65 363.75 35.65 364.95 35.65 367.75 35.55 371.65 35.45 373.25 35.25 378.3 34.6 380 34.6 381.463671875 34.6 382.4 35.15 382.3671875 34.5552734375 382.4 33.8 382.4 33.55 382.55 33.45 382.8 33.2 383 33.55 383.1 33.7 383.1 34.05 383.0048828125 35.1431640625 383.1 35.75 383.35546875 36.0314453125 383.55 36.4 384.691796875 38.68359375 386.05 39.95
L 386.25 40
Q 386.164453125 39.5298828125 386.35 39.25 385.34296875 38.0185546875 385.05 37.6 384.55 36.95 384.55 35.3 384.55 31.75 388.5 28.5 392.4 25.3 392.4 23.9 392.4 22.786328125 391.7 22.25 391.8974609375 22.51640625 391.95 22.7 392.05 22.95 391.95 23.65 391.85 24.45 391.6 24.75 391.45 23.9 391.35 23.5 391.07578125 22.67734375 389.85 21.85 389.2005859375 21.8841796875 388.6 22.1 388.7 22.35 388.7 22.8 Z"/>

<path fill="#F9E0A0" stroke="none" d="
M 413.15 78.95
Q 413.1 79.0193359375 413.1 79.1 413.1 79.2 413.75 79.75 414.35 80.3 414.35 80.75 413.5 81.25 410.8 82.25 409.5 82.7 409.5 83.85 409.5 84.25 410.8 85.75 412.05 87.2 412.05 88.95 412.05 90.15 411.85 90.8 411.6 91.65 410.7 92.75 409.5 94.3 408.1 97.2 407.836328125 97.75078125 407.6 98.3 407.9244140625 106.65859375 408.45 110.6 409.15 115.7 409.1 117.3 409 119.2 409.55 119.85 410.2 120.65 412.1 120.75 413.6 120.85 415.25 120.9
L 417.7 120.9
Q 415.2 119.55 414.2 117.05 413.6 115.4 413.8 112.55 413.809375 112.1955078125 413.8 111.85 413.943359375 110.47265625 414.35 109.7 414.95 108.75 416.3 108.05 416.95 107.75 418.8 107.05 420.5 106.45 423.45 105.15 426.6 103.7 428 103.15 429.6 102.6 431.8 102.1
L 436.45 101.25
Q 440.8 100.5 446.9 100 447.6 99.95 448.3 99.9 448.3 99.8 448.3 99.75
L 448.35 96.9
Q 446.1 97.45 444.95 97.75 442.8 98.35 441.25 98.55 440.15 98.7 439.15 98.75 427.6130859375 97.1142578125 428.9 86.95 429.15078125 85.3130859375 429.7 83.45 429.8 83.05 430.05 82.7
L 437.25 80.2
Q 439.4640625 79.3873046875 441.3 78.7 439.842578125 78.40234375 438.8 78.2 433.5814453125 77.8416015625 430.75 77.8 425.669140625 77.759375 418.25 78.4 416.5333984375 78.562890625 414.7 78.75 413.819921875 78.8451171875 413.15 78.95
M 423.9 78.75
L 423.95 78.55
Q 427.8 78.55 429.7 78.45 430.45 78.4 431.2 78.45
L 431.15 78.65
Q 427.3 78.95 423.9 78.75
M 412.05 90.45
L 412.05 90.25
Q 414.45 90.3 416.95 90.95 417 91 416.85 91.15
L 416.6 91.15 412.05 90.45
M 414.75 94.25
L 413 93.45
Q 411.95 92.9 411.7 92.15 412.05 92.1 412.95 92.85 413.25 93.1 414.5 93.7 416.15 94.55 417.3 95.4
L 417.2 95.5
Q 416.65 95.4 415.95 94.95 415.15 94.5 414.75 94.25
M 411.7 94.9
Q 412.05 94.9 412.8 95.45
L 415.2 97.2
Q 415.85 97.75 416.05 98.35
L 415.45 98.05 414.85 97.5 411.8 95.25
Q 411.55 95 411.7 94.9 Z"/>

<path fill="#FFF3CB" stroke="none" d="
M 413.15 78.95
Q 412.398046875 79.0451171875 411.9 79.15 410.9 79.4 410.35 79.45 409.45 79.55 408.8 79.45 408.75 79.3 408.95 79.1 409.1 78.95 409.35 78.9 413.54296875 78.007421875 417.7 77.5 428.894140625 76.1140625 439.8 77.5 441.05 77.6 441 78.35 439.8544921875 78.26640625 438.8 78.2 439.842578125 78.40234375 441.3 78.7 442.76953125 78.217578125 444 77.8 444.55 77.6 445.05 77.5 436.7 75.3 428 74.95 422.214453125 74.711328125 416.5 75.3 412.693359375 75.683203125 408.9 76.45 405.6 77.15 404.25 78.45 404.3 78.75 404.85 79.3
L 404.9 79.35 404.95 79.35
Q 405.4 79.35 405.7 79.6 406.1 80 406.3 81.1 407.15 86.2 407.5 95.85 407.543359375 97.1224609375 407.6 98.3 407.836328125 97.75078125 408.1 97.2 409.5 94.3 410.7 92.75 411.6 91.65 411.85 90.8 412.05 90.15 412.05 88.95 412.05 87.2 410.8 85.75 409.5 84.25 409.5 83.85 409.5 82.7 410.8 82.25 413.5 81.25 414.35 80.75 414.35 80.3 413.75 79.75 413.1 79.2 413.1 79.1 413.1 79.0193359375 413.15 78.95 Z"/>

<path fill="#E26E6E" stroke="none" d="
M 370.9 53.25
L 370.55 53.35
Q 368.4388671875 54.0330078125 366.55 54.9 367.5595703125 54.5544921875 368.7 54.1 369.8326171875 53.63984375 370.9 53.25
M 392.3 51.95
L 391.8 52.1 391.6 52.25
Q 391.944140625 52.1126953125 392.3 51.95
M 401.05 48.3
Q 400.6982421875 48.375390625 400.4 48.45 400.703515625 48.44453125 400.95 48.45 401.0052734375 48.460546875 401.05 48.45
L 401.05 48.3 Z"/>

<path fill="#CE8178" stroke="none" d="
M 358.75 56.65
L 358.75 56.55 356.1 56.3
Q 355.989453125 56.38359375 355.85 56.45
L 355.9 56.65 355.9 57.05
Q 358.8390625 57.8169921875 366.35 61.55 366.426953125 61.58828125 366.5 61.6 367.40390625 61.8048828125 368.5 62.1 371.4 62.85 372.6 63 374 63.2 376.85 63.1 378.95 63 379.55 62.85 380.4 62.75 382.05 62.15 384.5 61.45 387.8 61.25 387.9 61.25 388 61.25 388.15 60.95 388.8 60.8 390.25 60.4 392.45 58.85 394.9 57 396.05 56.55
L 396.2 56.85 391.95 59.9
Q 390.45 60.85 389.35 61.25 389.8 61.2 390.35 61.2 390.5 61.05 390.8 60.9 391.5 60.6 392.8 59.75 394.05 58.9 394.8 58.6 394.95 58.8 394.75 59 394.5 59.2 394.4 59.3 393.1 60.1 392.45 60.5 391.75 60.95 391.1 61.2 392.2 61.2 393.65 61.2
L 393.7 61.2
Q 394.8728515625 61.1962890625 395.7 61 397.05703125 60.147265625 398.75 58.35 401.85 55.05 401.85 53.75 401.85 52.75 401.05 51 400.62578125 50.1265625 400.35 49.6 399.978515625 49.601171875 399.55 49.7
L 398.1 50
Q 397.3 50.15 396.75 50.5
L 396.05 50.95
Q 395.55 51.15 395.25 50.85 395.16328125 50.76328125 395.1 50.65 393.524609375 51.416015625 392.3 51.9
L 392.3 51.95
Q 391.944140625 52.1126953125 391.6 52.25
L 391.4 52.45
Q 390.75 53.05 389.95 53.05 389.4 53.8 388.75 54.15 388.1 54.5 386.6 54.5 385.25 54.4 384.4 54.1
L 381.25 52.8
Q 378.5 52 377.2 52 376.25 52 373.7 52.55
L 370.9 53.25
Q 369.8326171875 53.63984375 368.7 54.1 367.5595703125 54.5544921875 366.55 54.9 365.3802734375 55.474609375 364.3 56.1 362.6 57 361.7 57.05 361.45 57.05 361.35 56.9 361.3 56.7 361.6 56.5 361.676171875 56.4478515625 361.75 56.4 360.809375 56.601171875 360.1 56.65
L 360.05 56.85 358.6 56.8 358.6 56.65 358.75 56.65
M 397.85 51.75
Q 398 51.7 398.65 51.7
L 399.3 51.7
Q 399.95 51.95 399.65 52.75 399.55 53.15 398.85 53.65 398.35 54 398.2 54.05
L 397.6 54.1 396.15 54.05
Q 395.75 54.05 395.65 53.9 395.55 53.8 395.55 53.4
L 395.65 52.95
Q 395.85 52.55 396.45 52.3
L 397.4 51.95
Q 397.7 51.75 397.85 51.75
M 375.05 53.3
Q 375.35 53.25 376.75 53.5
L 377.95 53.8
Q 378.2 53.95 378.6 54.35 378.9 54.65 378.85 54.9 378.85 55.25 378.35 55.35
L 377.6 55.25
Q 376.9 55.2 376.55 55.15 374.45 54.65 373.35 54.5 372.85 54.5 372.7 54.15 372.6 53.7 373.15 53.6
L 374 53.6 375.05 53.3
M 377.05 60
L 376.95 60.1 375.6 59.85
Q 374.7 59.6 371.95 58.5 371.8 58.35 372.05 58.35
L 372.25 58.35
Q 372.5 58.45 374.15 59.15 375.3 59.55 376.1 59.7 376.9 59.8 377.05 60
M 376.75 58.1
Q 376.4 58 376.5 57.75
L 376.75 57.65
Q 379.05 58.6 381.15 59.25 381.25 59.35 381.1 59.4
L 380.9 59.4 379.8 59.25 376.75 58.1
M 374.8 55.45
Q 374.8 55.7 374.65 55.75
L 374.3 55.85
Q 373.65 55.75 373.3 55.7
L 372.25 55.65 371.95 55.55 371.85 55.4
Q 371.75 55.25 371.9 55.1 371.95 55.05 372.3 54.85
L 373 54.6
Q 373.6 55 374.35 55.15 374.75 55.25 374.8 55.45
M 366.6 57.9
Q 366.25 57.65 366.35 57.45 366.95 57.5 367.7 57.8 368.1 58 368.95 58.45 369.7 58.85 371.8 59.45 373.7 60.05 374.65 60.65 374.1 60.65 373.2 60.35 369.5 59.25 366.6 57.9
M 372.3 56.2
L 372.2 56.4 372 56.45
Q 371.7 56.5 369.85 56.25
L 369.8 56
Q 369.8 55.85 369.95 55.85 370.1 55.85 370.1 55.8 371.6 55.9 372.3 56.2 Z"/>

<path fill="#CC9993" stroke="none" d="
M 372.2 56.4
L 372.3 56.2
Q 371.6 55.9 370.1 55.8 370.1 55.85 369.95 55.85 369.8 55.85 369.8 56
L 369.85 56.25
Q 371.7 56.5 372 56.45
L 372.2 56.4
M 374.65 55.75
Q 374.8 55.7 374.8 55.45 374.75 55.25 374.35 55.15 373.6 55 373 54.6
L 372.3 54.85
Q 371.95 55.05 371.9 55.1 371.75 55.25 371.85 55.4
L 371.95 55.55 372.25 55.65 373.3 55.7
Q 373.65 55.75 374.3 55.85
L 374.65 55.75
M 376.75 53.5
Q 375.35 53.25 375.05 53.3
L 374 53.6 373.15 53.6
Q 372.6 53.7 372.7 54.15 372.85 54.5 373.35 54.5 374.45 54.65 376.55 55.15 376.9 55.2 377.6 55.25
L 378.35 55.35
Q 378.85 55.25 378.85 54.9 378.9 54.65 378.6 54.35 378.2 53.95 377.95 53.8
L 376.75 53.5
M 398.65 51.7
Q 398 51.7 397.85 51.75 397.7 51.75 397.4 51.95
L 396.45 52.3
Q 395.85 52.55 395.65 52.95
L 395.55 53.4
Q 395.55 53.8 395.65 53.9 395.75 54.05 396.15 54.05
L 397.6 54.1 398.2 54.05
Q 398.35 54 398.85 53.65 399.55 53.15 399.65 52.75 399.95 51.95 399.3 51.7
L 398.65 51.7 Z"/>

<path fill="#B6817B" stroke="none" d="
M 380.4 43.7
Q 377.45 44.15 375.5 45.15 371.0330078125 47.3396484375 365.5 50.45 364.1212890625 51.3853515625 362.75 52.35 361.3505859375 53.3189453125 359.75 53.85 358.7142578125 54.495703125 357.65 55.15 357.4154296875 55.3435546875 357.2 55.5 356.5771484375 56.0087890625 356.1 56.3
L 358.75 56.55 360 56.65 360.1 56.65
Q 360.809375 56.601171875 361.75 56.4 367.6908203125 52.381640625 374.75 50.95 376.35 50.65 377.15 50.65 379.243359375 50.609765625 382.1 51.65 382.8095703125 51.928515625 383.55 52.25 385.95 53.25 387.15 53.1 387.44375 53.071484375 387.75 52.95 389.0505859375 52.5615234375 390.55 50.9 391.25 50 391.85 49.95 391.45 50.7 390.95 51.65 391.4 51.2 391.8 51.15
L 392.25 51.05
Q 392.4 51 392.6 50.8 392.95 50.55 393.3 50.55
L 393.45 50.75
Q 393.2 50.9 392.9 51.35 392.5775390625 51.8107421875 392.3 51.9 393.524609375 51.416015625 395.1 50.65 394.9990234375 50.3884765625 395.3 50.05 395.45 49.85 396 49.6 397.35 49.05 398.75 48.75 399.6673828125 48.481640625 400.4 48.45 400.6982421875 48.375390625 401.05 48.3
L 401.05 47.6
Q 400.8080078125 47.3396484375 400.55 47.1 400.586328125 47.2138671875 400.6 47.35 400.6 47.85 400.55 47.9 400.45 48.35 400.1 48.1 400.05 46.75 398.95 45.8 398.4 45.25 396.75 44.25
L 392.4 41.9
Q 391.9130859375 41.575390625 391.85 41.3 391.4908203125 41.445703125 390.9 41.85 389.8 42.55 389.5 42.65 389.1962890625 42.7150390625 388.75 42.75 385.551171875 44.09375 381.65 43.7 381.3556640625 43.639453125 381.05 43.6 380.7083984375 43.6546875 380.4 43.7 Z"/>
</g>

<path id="Layer0_0_MEMBER_1_1_STROKES" stroke="#E1C99B" stroke-width="2" stroke-linejoin="round" stroke-linecap="round" fill="none" d="
M 1.6392761230468764 115.25781555175782
L 149.35854187011716 115.25781555175782 149.35854187011716 154.63890380859374 1.6392761230468764 154.63890380859374 1.6392761230468764 115.25781555175782 Z"/>
</defs>

<g transform="matrix( 1.07159423828125, 0, 0, 0.802642822265625, -21.4,-13.65) ">
<use xlink:href="#Layer0_0_MEMBER_0_FILL"/>
</g>

<g transform="matrix( 1.07159423828125, 0, 0, 1.07159423828125, -21.4,-4.6) ">
<use xlink:href="#Layer0_0_MEMBER_1_1_STROKES" transform="matrix( 0.9331817626953125, 0, 0, 0.9331817626953125, 19.95,4.25) "/>
</g>

<g transform="matrix( 1, 0, 0, 1, -314.6,-7.9) ">
<use xlink:href="#Layer0_0_MEMBER_2_FILL"/>
</g>
</svg>
