
<svg xmlns="http://www.w3.org/2000/svg" version="1.1" xmlns:xlink="http://www.w3.org/1999/xlink" preserveAspectRatio="none" x="0px" y="0px" width="121px" height="122px" viewBox="0 0 121 122">
<defs>
<g id="Layer0_0_MEMBER_0_FILL">
<path fill="#B8BE79" stroke="none" d="
M 21.5 19.95
L 21.5 157.8 159.35 157.8 159.35 19.95 21.5 19.95 Z"/>
</g>

<g id="Layer0_0_MEMBER_1_FILL">
<path fill="#E1C99B" stroke="none" d="
M 21.5 111.85
L 21.5 148.6 159.35 148.6 159.35 111.85 21.5 111.85 Z"/>
</g>

<g id="Layer0_0_MEMBER_2_FILL">
<path fill="#3B3D35" stroke="none" d="
M 590.3 17.05
Q 590.55 16.9 590.8 16.8 592 16.3 592.3 15.1 592.25 14.9 592.2 14.75 591.95 13.9 590.95 13.65 586.05 12.35 581.15 12.25 580.2 12.25 579.4 12.85
L 575.8 13.65
Q 575 14.8 575.85 16.05 576.5 16.05 576.85 16.25 580.7 15.55 582.1 16.9
L 582.05 19.7
Q 582.05 19.85 582.05 19.95 582.05 20.05 582.05 20.15 582.05 20.25 582.05 20.35 582.05 20.5 582.05 20.6 582.05 20.7 582.05 20.8 582.05 20.9 582.05 21 582.05 21.15 582.05 21.25 582.05 21.35 582.05 21.45 582.05 21.55 582.05 21.65 582.05 21.8 582.05 21.9 582.05 22 582.05 22.1 582.05 22.2 582.05 22.3 582.05 22.45 582.05 22.55 582.05 22.65 582.05 22.75 582.05 22.85 582.05 23 582.05 23.1 582.05 23.2 582.05 23.3 582.05 23.4 582 23.45 581.95 23.5 581.75 23.55 581.6 23.65 581.5 23.65 581.4 23.7 581.25 23.75 581.15 23.75 580.6 23.85 580 23.9 579.8 24.05 579.65 24.15 579.55 24.25 579.4 24.35 579.3 24.45 579.2 24.55 579.1 24.7 579 24.8 578.9 24.9 578.75 25 578.75 25.1 578.75 25.2 578.75 25.35 578.75 25.45 578.75 25.55 578.75 25.65 578.75 25.75 578.75 25.85 578.75 26 578.75 26.1 578.75 26.2 578.75 26.3 578.75 26.4 578.75 26.5 578.75 26.65 578.7 26.75 578.7 26.85 578.7 26.95 578.7 27.05 578.7 27.2 578.7 27.3 578.7 27.4 578.7 27.5 578.7 27.6 578.7 27.7 578.7 27.85 578.7 27.95 578.7 28.05 578.7 28.15 578.7 28.25 578.7 28.35 578.7 28.5 578.7 28.6 578.7 28.7 578.7 28.8 578.7 28.9 578.7 29 578.7 29.15 578.7 29.25 578.7 29.35 578.7 29.45 578.7 29.55 578.7 29.65 578.7 29.8 578.7 29.9 578.7 30 578.7 30.1 578.7 30.2 578.7 30.35 578.7 30.45 578.7 30.55 578.7 30.65 578.7 30.75 578.7 30.85 578.7 31 578.7 31.1 578.7 31.2 578.7 31.3 578.7 31.4 578.7 31.5 578.7 31.65 578.7 31.75 578.7 31.85 578.7 31.95 578.7 32.05 578.7 32.15 578.7 32.3 578.7 32.4 578.7 32.5 578.7 32.6 578.7 32.7 578.7 32.85 578.7 32.95 578.7 33.05 578.7 33.15 578.7 33.25 578.7 33.35 578.7 33.5 578.7 33.6 578.7 33.7 578.75 33.8 578.75 33.9
L 578.5 33.75
Q 577.45 34.65 576.4 35.45 566.9 43.15 567.95 55.65 568 60.85 568 66.05 568 72 568 78 568 83.85 567.9 89.75 567.85 94.3 567.85 98.85 567.85 99.75 568.2 100.5
L 568.1 100.7
Q 568.05 101 568 101.3 566.5 108.95 573.65 112.15 579.95 114.9 586.6 114.5 593.25 114.9 599.55 112.15 607 108.8 605.1 100.7
L 605 100.5
Q 605.35 99.75 605.35 98.85 605.35 94.3 605.3 89.75 605.2 84.75 605.2 79.8 605.2 78.9 605.2 78 605.2 72 605.2 66.05 605.2 60.85 605.25 55.65 606.3 43.15 596.8 35.45 595.85 34.7 594.85 33.9 594.85 33.55 594.5 33.4 594.5 33.3 594.5 33.25 594.5 33.15 594.5 33.05 594.5 32.95 594.5 32.85 594.5 32.7 594.5 32.6 594.5 32.5 594.5 32.4 594.5 32.3 594.5 32.15 594.5 32.05 594.5 31.95 594.5 31.85 594.5 31.75 594.5 31.65 594.5 31.5 594.5 31.4 594.5 31.3 594.5 31.2 594.5 31.1 594.5 31 594.5 30.85 594.5 30.75 594.5 30.65 594.5 30.55 594.5 30.45 594.5 30.35 594.5 30.2 594.5 30.1 594.5 30 594.5 29.9 594.5 29.8 594.5 29.65 594.5 29.55 594.5 29.45 594.5 29.35 594.5 29.25 594.5 29.15 594.5 29 594.5 28.9 594.5 28.8 594.5 28.7 594.5 28.6 594.5 28.5 594.5 28.35 594.5 28.25 594.5 28.15 594.5 28.05 594.5 27.95 594.5 27.85 594.5 27.7 594.5 27.6 594.5 27.5 594.5 27.4 594.5 27.3 594.5 27.2 594.5 27.05 594.5 26.95 594.5 26.85 594.5 26.75 594.45 26.65 594.45 26.5 594.45 26.4 594.45 26.3 594.45 26.2 594.45 26.1 594.45 26 594.45 25.85 594.45 25.75 594.45 25.65 594.45 25.55 594.45 25.45 594.45 25.35 594.45 25.2 594.45 25.1 594.45 25 594.3 24.9 594.2 24.8 594.1 24.7 594 24.55 593.9 24.45 593.8 24.35 593.65 24.25 593.55 24.15 593.4 24.05 593.2 23.9 592.6 23.85 592.05 23.75 591.95 23.75 591.8 23.7 591.7 23.65 591.6 23.65 591.45 23.55 591.25 23.5 591.15 23.35 591.05 23.25 591 23.15 590.95 23.05 590.9 23 590.8 22.9 590.75 22.9 590.65 22.9 590.6 22.9 590.5 22.9 590.45 23 590.35 23.05 590.35 23 590.35 22.9 590.35 22.8 590.35 22.7 590.35 22.6 590.35 22.45 590.35 22.35 590.35 22.25 590.35 22.15 590.35 22.05 590.35 21.95 590.35 21.8 590.35 21.7 590.35 21.6 590.35 21.5 590.35 21.4 590.35 21.25 590.35 21.15 590.35 21.05 590.35 20.95 590.35 20.85 590.35 20.75 590.35 20.6 590.35 20.5 590.35 20.4 590.35 20.3 590.35 20.2 590.35 20.1 590.35 19.95 590.35 19.85 590.35 19.8 590.35 19.7
L 590.3 17.05
M 588.75 14.3
Q 589.9 14.35 590.75 14.75
L 590.5 15.15 589.9 15.45
Q 588.25 16.15 586.15 15.9 584.05 15.8 582.25 15.4 580 15.35 577.8 15.3 576.5 15.6 576.45 14.65 576.65 14.45 576.9 14.3 578.05 13.65 579.7 13.7
L 579.95 13.3
Q 584.35 13.8 588.75 14.3
M 589.25 19.7
Q 589.25 19.85 589.25 19.95 589.25 20.05 589.25 20.15 589.25 20.25 589.25 20.35 589.25 20.5 589.25 20.6 589.25 20.7 589.25 20.8 589.25 20.9 589.25 21 589.25 21.15 589.25 21.25 589.25 21.35 589.25 21.45 589.25 21.55 589.25 21.65 589.25 21.8 589.25 21.9 589.25 22 589.25 22.1 589.25 22.2 589.25 22.3 589.25 22.45 589.25 22.55 589.25 22.65 589.25 22.75 589.25 22.85 589.25 23 589.25 23.1 589.25 23.2 589.25 23.3 589.25 23.4 589.25 23.45 589.25 23.55
L 588.1 24.05
Q 588.05 24.1 587.15 24.2 584.5 24.35 582.95 23.95 583 23.9 583.05 23.85 583.1 23.75 583.1 23.65 583.1 23.5 583.1 23.4 583.1 23.3 583.1 23.2 583.1 23.1 583.1 23 583.1 22.85 583.1 22.75 583.1 22.65 583.1 22.55 583.1 22.45 583.1 22.3 583.1 22.2 583.1 22.1 583.1 22 583.1 21.9 583.1 21.8 583.1 21.65 583.1 21.55 583.1 21.45 583.1 21.35 583.1 21.25 583.1 21.15 583.1 21 583.1 20.9 583.1 20.8 583.1 20.7 583.1 20.6 583.1 20.5 583.1 20.35 583.1 20.25 583.1 20.15 583.1 20.05 583.1 19.95 583.1 19.85 583.1 19.7
L 583.05 16.9 589.35 17.35 589.25 19.7
M 590.3 24
Q 590.4 24.1 590.45 24.2 590.5 24.3 590.6 24.35
L 590.65 24.4
Q 590.8 24.45 590.95 24.5 591.2 24.55 591.45 24.65 591.65 24.7 591.8 24.8
L 591.8 24.85
Q 591.85 24.85 591.9 24.9 591.55 24.9 590.85 25.05 585.9 26.2 580.95 24.95 581.15 24.9 581.4 24.85
L 581.4 24.8
Q 581.55 24.7 581.75 24.65 582 24.55 582.25 24.5 582.35 24.45 582.45 24.45 584 25.1 587.55 25 588.6 24.9 588.85 24.8 589.25 24.65 589.65 24.35 589.85 24.25 590 24.15
L 590.05 24.15
Q 590.05 24.1 590.1 24.1 590.2 24 590.3 24
M 580 26.1
Q 580 26 580 25.85 580.05 25.75 580.05 25.65 580.15 25.55 580.2 25.45 580.25 25.35 580.3 25.3 585.5 27.05 590.95 25.95 592.2 25.7 592.9 25.2 592.95 25.35 593 25.45 593.05 25.55 593.15 25.65 593.15 25.75 593.2 25.85 593.2 26 593.2 26.1 593.2 26.2 593.2 26.3 593.2 26.4 593.2 26.5 593.2 26.65 593.2 26.75 593.15 26.85 593.15 26.95 593.15 27.05 593.15 27.2 593.15 27.3 593.15 27.4 593.15 27.5 593.15 27.6 593.15 27.7 593.15 27.85 593.15 27.95 593.15 28.05 593.15 28.15 593.15 28.25 593.15 28.35 593.15 28.5 593.15 28.6 593.15 28.7 593.15 28.8 593.15 28.9 593.15 29 593.15 29.15 593.15 29.25 593.15 29.35 593.15 29.45 593.15 29.55 593.15 29.65 593.15 29.8 593.15 29.9 593.15 30 593.15 30.1 593.15 30.2 593.15 30.35 593.15 30.45 593.15 30.55 593.15 30.65 593.15 30.75 593.15 30.85 593.15 31 593.15 31.1 593.15 31.2 593.15 31.3 593.15 31.4 593.15 31.5 593.15 31.65 593.15 31.75 593.15 31.85 593.15 31.95 593.15 32.05 593.15 32.15 593.15 32.3 593.15 32.4 593.15 32.5 593.15 32.6 593.15 32.7 593.15 32.85 593.15 32.95 593.15 33.05 593.15 33.15 593.15 33.25 593.15 33.35 593.15 33.5 593.15 33.6 593.15 33.7
L 593.15 33.75
Q 591 34.5 586.7 34.4 582.2 34.2 580.35 33.65 580.2 33.6 580.05 33.6 580.05 33.55 580.05 33.5 580.05 33.35 580.05 33.25 580.05 33.15 580.05 33.05 580.05 32.95 580.05 32.85 580.05 32.7 580.05 32.6 580.05 32.5 580.05 32.4 580.05 32.3 580.05 32.15 580.05 32.05 580.05 31.95 580.05 31.85 580.05 31.75 580.05 31.65 580.05 31.5 580.05 31.4 580.05 31.3 580.05 31.2 580.05 31.1 580.05 31 580.05 30.85 580.05 30.75 580.05 30.65 580.05 30.55 580.05 30.45 580.05 30.35 580.05 30.2 580.05 30.1 580.05 30 580.05 29.9 580.05 29.8 580.05 29.65 580.05 29.55 580.05 29.45 580.05 29.35 580.05 29.25 580.05 29.15 580.05 29 580.05 28.9 580.05 28.8 580.05 28.7 580.05 28.6 580.05 28.5 580.05 28.35 580.05 28.25 580.05 28.15 580.05 28.05 580.05 27.95 580.05 27.85 580.05 27.7 580.05 27.6 580.05 27.5 580.05 27.4 580.05 27.3 580.05 27.2 580.05 27.05 580.05 26.95 580.05 26.85 580 26.75 580 26.65 580 26.5 580 26.4 580 26.3 580 26.2 580 26.1
M 579.05 34.55
Q 579.35 34.55 579.65 34.55 579.75 34.45 579.85 34.35 581.2 35.3 583.65 35.55 585.4 35.7 590.5 35.7 593.2 35.6 594.25 34.85 594.45 34.7 594.6 34.55 605.95 42.5 603.85 55.65 603.85 57.4 603.85 59.1 603.85 65.1 603.85 71.05 603.85 76.7 603.85 82.35 603.85 82.65 603.85 83 603.9 89 603.8 94.95 603.75 97.15 603.95 99.4
L 603.85 99.45 603.75 100.55 604 100.95 603.55 107.05
Q 596.35 113.65 586.6 113.75 576.85 113.65 569.65 107.05
L 569.2 100.95 569.45 100.55 569.35 99.45 569.3 99.4
Q 569.45 97.15 569.4 94.95 569.3 89 569.35 83 569.35 77.05 569.35 71.05 569.35 65.1 569.35 59.1 569.35 57.4 569.35 55.65 567.25 42.3 578.9 34.35 579 34.45 579.05 34.55
M 592.9 100.85
Q 592 100.75 591.1 100.7 588.4 100.7 585.7 100.7 582.65 100.7 579.65 100.7
L 579.65 100.75
Q 579.55 100.8 579.5 100.85 579.5 100.95 579.5 101.05 582.35 101.05 585.15 101.1 588.15 101.1 591.1 101.1 591.95 101.1 592.8 101.05 592.85 101 592.9 100.95 592.9 100.9 592.9 100.85
M 591.45 102.05
Q 591.45 102 591.45 101.9 588.3 101.9 585.15 101.85
L 585.15 101.9
Q 585.05 101.9 585 101.9 585 102 585 102.05 588.2 102.1 591.35 102.15 591.4 102.1 591.45 102.05
M 601.3 56.8
L 599.25 55.9
Q 593.55 53.95 587.55 54 584.5 54.05 581.6 54.3 576.95 54.75 572.8 56.4
L 572.55 56.3
Q 572.45 56.3 572.4 56.3 572.3 56.3 572.25 56.3 572.15 56.35 572.1 56.5 572.1 56.55 572.1 56.65
L 571.95 57.4 571.9 98.35
Q 571.9 98.5 571.95 98.7 572.35 98.75 572.75 98.75 575.65 98.9 578.6 99.05 583.15 99.15 587.8 99.15 588.8 99.1 589.85 99.1 595.2 99 600.65 99 601.45 99 602.15 98.6
L 602.15 85 602.1 57.4 601.65 56.3
Q 601.55 56.3 601.5 56.3 601.4 56.4 601.35 56.55 601.3 56.6 601.3 56.7 601.3 56.75 601.3 56.8
M 598 56.9
Q 599.6 57.8 601.2 57.6
L 601.2 86.3 601.15 98 589.2 98 578.95 98 574.15 98 572.9 98 572.85 57.6
Q 573.9 57.6 575.1 57.25 577.3 56.6 579.2 55.7 580.95 54.95 582.95 55 588.1 54.55 593.45 55.2 595.75 55.7 598 56.9
M 571.8 57.25
Q 571.75 57.2 571.6 57.3 571.75 57.35 571.9 57.4 571.85 57.3 571.8 57.25 Z"/>

<path fill="#F9E0A0" stroke="none" d="
M 582.55 102.95
L 585.15 101.1
Q 582.35 101.05 579.5 101.05 579.5 100.95 579.5 100.85 579.55 100.8 579.65 100.75
L 579.65 100.7
Q 582.65 100.7 585.7 100.7
L 587.8 99.15
Q 583.15 99.15 578.6 99.05
L 578.6 102.95 582.55 102.95
M 579.65 34.55
Q 579.35 34.55 579.05 34.55 579 34.45 578.9 34.35 567.25 42.3 569.35 55.65 569.35 57.4 569.35 59.1 569.35 65.1 569.35 71.05 569.35 77.05 569.35 83 569.3 89 569.4 94.95 569.45 97.15 569.3 99.4
L 569.35 99.45 569.45 100.55 572.75 98.75
Q 572.35 98.75 571.95 98.7 571.9 98.5 571.9 98.35
L 571.95 57.4 572.1 56.65
Q 572.1 56.55 572.1 56.5 572.15 56.35 572.25 56.3 572.3 56.3 572.4 56.3 572.45 56.3 572.55 56.3
L 572.8 56.4
Q 576.95 54.75 581.6 54.3 584.5 54.05 587.55 54 593.55 53.95 599.25 55.9
L 601.3 56.8
Q 601.3 56.75 601.3 56.7 601.3 56.6 601.35 56.55 601.4 56.4 601.5 56.3 601.55 56.3 601.65 56.3
L 602.1 57.4 602.15 85 603.85 82.35
Q 603.85 76.7 603.85 71.05 603.85 65.1 603.85 59.1 603.85 57.4 603.85 55.65 605.95 42.5 594.6 34.55 594.45 34.7 594.25 34.85 593.2 35.6 590.5 35.7 585.4 35.7 583.65 35.55 581.2 35.3 579.85 34.35 579.75 34.45 579.65 34.55
M 576.9 48.6
Q 575.55 48.8 574.7 48.15 574.25 47.85 574.05 47.25 573.85 46.65 574.1 46.15 574.3 45.8 575 45.35 574.4 44.55 574.4 42.95 574.4 41.7 574.65 41.15 575.2 39.95 576.9 39.3 579.15 38.5 581.2 38.7 582.25 38.8 582.6 39.2 582.95 39.6 582.95 40.55 582.95 41.55 582.7 42.25 582.3 43.15 581.25 44.05 580.5 44.9 579.85 45.2 579.35 45.45 578.65 45.65 578.8 46.05 578.75 46.75 578.75 47.15 578.6 47.45 578.4 47.75 577.75 48.05 577.1 48.35 576.9 48.6
M 571.6 57.3
Q 571.75 57.2 571.8 57.25 571.85 57.3 571.9 57.4 571.75 57.35 571.6 57.3 Z"/>

<path fill="#FFCE41" stroke="none" d="
M 603.85 82.35
L 602.15 85 602.15 98.6
Q 601.45 99 600.65 99 595.2 99 589.85 99.1 588.8 99.1 587.8 99.15
L 585.7 100.7
Q 588.4 100.7 591.1 100.7 592 100.75 592.9 100.85 592.9 100.9 592.9 100.95 592.85 101 592.8 101.05 591.95 101.1 591.1 101.1 588.15 101.1 585.15 101.1
L 582.55 102.95 578.6 102.95 578.6 99.05
Q 575.65 98.9 572.75 98.75
L 569.45 100.55 569.2 100.95 569.65 107.05
Q 576.85 113.65 586.6 113.75 596.35 113.65 603.55 107.05
L 604 100.95 603.75 100.55 603.85 99.45 603.95 99.4
Q 603.75 97.15 603.8 94.95 603.9 89 603.85 83 603.85 82.65 603.85 82.35
M 591.45 101.9
Q 591.45 102 591.45 102.05 591.4 102.1 591.35 102.15 588.2 102.1 585 102.05 585 102 585 101.9 585.05 101.9 585.15 101.9
L 585.15 101.85
Q 588.3 101.9 591.45 101.9 Z"/>

<path fill="#94A26E" stroke="none" d="
M 601.2 86.3
L 589.2 98 601.15 98 601.2 86.3
M 578.95 98
L 579.7 94.9 574.15 98 578.95 98 Z"/>

<path fill="#B8BE79" stroke="none" d="
M 601.2 57.6
Q 599.6 57.8 598 56.9 595.75 55.7 593.45 55.2 588.1 54.55 582.95 55 580.95 54.95 579.2 55.7 577.3 56.6 575.1 57.25 573.9 57.6 572.85 57.6
L 572.9 98 574.15 98 579.7 94.9 578.95 98 589.2 98 601.2 86.3 601.2 57.6 Z"/>

<path fill="#FFF3CB" stroke="none" d="
M 574.7 48.15
Q 575.55 48.8 576.9 48.6 577.1 48.35 577.75 48.05 578.4 47.75 578.6 47.45 578.75 47.15 578.75 46.75 578.8 46.05 578.65 45.65 579.35 45.45 579.85 45.2 580.5 44.9 581.25 44.05 582.3 43.15 582.7 42.25 582.95 41.55 582.95 40.55 582.95 39.6 582.6 39.2 582.25 38.8 581.2 38.7 579.15 38.5 576.9 39.3 575.2 39.95 574.65 41.15 574.4 41.7 574.4 42.95 574.4 44.55 575 45.35 574.3 45.8 574.1 46.15 573.85 46.65 574.05 47.25 574.25 47.85 574.7 48.15 Z"/>

<path fill="#D3E7EE" stroke="none" d="
M 580 25.85
Q 580 26 580 26.1 580 26.2 580 26.3 580 26.4 580 26.5 580 26.65 580 26.75 580.05 26.85 580.05 26.95 580.05 27.05 580.05 27.2 580.05 27.3 580.05 27.4 580.05 27.5 580.05 27.6 580.05 27.7 580.05 27.85 580.05 27.95 580.05 28.05 580.05 28.15 580.05 28.25 580.05 28.35 580.05 28.5 580.05 28.6 580.05 28.7 580.05 28.8 580.05 28.9 580.05 29 580.05 29.15 580.05 29.25 580.05 29.35 580.05 29.45 580.05 29.55 580.05 29.65 580.05 29.8 580.05 29.9 580.05 30 580.05 30.1 580.05 30.2 580.05 30.35 580.05 30.45 580.05 30.55 580.05 30.65 580.05 30.75 580.05 30.85 580.05 31 580.05 31.1 580.05 31.2 580.05 31.3 580.05 31.4 580.05 31.5 580.05 31.65 580.05 31.75 580.05 31.85 580.05 31.95 580.05 32.05 580.05 32.15 580.05 32.3 580.05 32.4 580.05 32.5 580.05 32.6 580.05 32.7 580.05 32.85 580.05 32.95 580.05 33.05 580.05 33.15 580.05 33.25 580.05 33.35 580.05 33.5 580.05 33.55 580.05 33.6 580.2 33.6 580.35 33.65 582.2 34.2 586.7 34.4 591 34.5 593.15 33.75
L 593.15 33.7
Q 593.15 33.6 593.15 33.5 593.15 33.35 593.15 33.25 593.15 33.15 593.15 33.05 593.15 32.95 593.15 32.85 593.15 32.7 593.15 32.6 593.15 32.5 593.15 32.4 593.15 32.3 593.15 32.15 593.15 32.05 593.15 31.95 593.15 31.85 593.15 31.75 593.15 31.65 593.15 31.5 593.15 31.4 593.15 31.3 593.15 31.2 593.15 31.1 593.15 31 593.15 30.85 593.15 30.75 593.15 30.65 593.15 30.55 593.15 30.45 593.15 30.35 593.15 30.2 593.15 30.1 593.15 30 593.15 29.9 593.15 29.8 593.15 29.65 593.15 29.55 593.15 29.45 593.15 29.35 593.15 29.25 593.15 29.15 593.15 29 593.15 28.9 593.15 28.8 593.15 28.7 593.15 28.6 593.15 28.5 593.15 28.35 593.15 28.25 593.15 28.15 593.15 28.05 593.15 27.95 593.15 27.85 593.15 27.7 593.15 27.6 593.15 27.5 593.15 27.4 593.15 27.3 593.15 27.2 593.15 27.05 593.15 26.95 593.15 26.85 593.2 26.75 593.2 26.65 593.2 26.5 593.2 26.4 593.2 26.3 593.2 26.2 593.2 26.1 593.2 26 593.2 25.85 593.15 25.75 593.15 25.65 593.05 25.55 593 25.45 592.95 25.35 592.9 25.2 592.2 25.7 590.95 25.95 585.5 27.05 580.3 25.3 580.25 25.35 580.2 25.45 580.15 25.55 580.05 25.65 580.05 25.75 580 25.85
M 589.25 19.95
Q 589.25 19.85 589.25 19.7
L 589.35 17.35 583.05 16.9 583.1 19.7
Q 583.1 19.85 583.1 19.95 583.1 20.05 583.1 20.15 583.1 20.25 583.1 20.35 583.1 20.5 583.1 20.6 583.1 20.7 583.1 20.8 583.1 20.9 583.1 21 583.1 21.15 583.1 21.25 583.1 21.35 583.1 21.45 583.1 21.55 583.1 21.65 583.1 21.8 583.1 21.9 583.1 22 583.1 22.1 583.1 22.2 583.1 22.3 583.1 22.45 583.1 22.55 583.1 22.65 583.1 22.75 583.1 22.85 583.1 23 583.1 23.1 583.1 23.2 583.1 23.3 583.1 23.4 583.1 23.5 583.1 23.65 583.1 23.75 583.05 23.85 583 23.9 582.95 23.95 584.5 24.35 587.15 24.2 588.05 24.1 588.1 24.05
L 589.25 23.55
Q 589.25 23.45 589.25 23.4 589.25 23.3 589.25 23.2 589.25 23.1 589.25 23 589.25 22.85 589.25 22.75 589.25 22.65 589.25 22.55 589.25 22.45 589.25 22.3 589.25 22.2 589.25 22.1 589.25 22 589.25 21.9 589.25 21.8 589.25 21.65 589.25 21.55 589.25 21.45 589.25 21.35 589.25 21.25 589.25 21.15 589.25 21 589.25 20.9 589.25 20.8 589.25 20.7 589.25 20.6 589.25 20.5 589.25 20.35 589.25 20.25 589.25 20.15 589.25 20.05 589.25 19.95 Z"/>

<path fill="#FFFFFF" stroke="none" d="
M 590.45 24.2
Q 590.4 24.1 590.3 24 590.2 24 590.1 24.1 590.05 24.1 590.05 24.15
L 590 24.15
Q 589.85 24.25 589.65 24.35 589.25 24.65 588.85 24.8 588.6 24.9 587.55 25 584 25.1 582.45 24.45 582.35 24.45 582.25 24.5 582 24.55 581.75 24.65 581.55 24.7 581.4 24.8
L 581.4 24.85
Q 581.15 24.9 580.95 24.95 585.9 26.2 590.85 25.05 591.55 24.9 591.9 24.9 591.85 24.85 591.8 24.85
L 591.8 24.8
Q 591.65 24.7 591.45 24.65 591.2 24.55 590.95 24.5 590.8 24.45 590.65 24.4
L 590.6 24.35
Q 590.5 24.3 590.45 24.2
M 590.75 14.75
Q 589.9 14.35 588.75 14.3 584.35 13.8 579.95 13.3
L 579.7 13.7
Q 578.05 13.65 576.9 14.3 576.65 14.45 576.45 14.65 576.5 15.6 577.8 15.3 580 15.35 582.25 15.4 584.05 15.8 586.15 15.9 588.25 16.15 589.9 15.45
L 590.5 15.15 590.75 14.75 Z"/>
</g>

<g id="Layer0_0_MEMBER_3_FILL">
<path fill="#3B3D35" stroke="none" d="
M 49.85 104.65
L 48.45 104.65 48.45 112.25 52.9 112.25 52.9 111.1 49.85 111.1 49.85 104.65
M 55 106.95
Q 54.5 107.15 54.15 107.5 53.8 107.85 53.6 108.4 53.4 108.9 53.4 109.55 53.4 110.2 53.6 110.7 53.8 111.2 54.15 111.6 54.5 111.95 55 112.15 55.5 112.35 56.1 112.35 56.7 112.35 57.15 112.15 57.65 111.95 58 111.6 58.35 111.2 58.55 110.7 58.75 110.2 58.75 109.55 58.75 108.9 58.55 108.4 58.35 107.85 58 107.5 57.65 107.15 57.15 106.95 56.7 106.75 56.1 106.75 55.5 106.75 55 106.95
M 54.75 109.55
Q 54.75 108.7 55.05 108.2 55.4 107.75 56.1 107.75 56.75 107.75 57.1 108.2 57.4 108.7 57.4 109.55 57.4 110.45 57.1 110.9 56.75 111.35 56.1 111.35 55.4 111.35 55.05 110.85 54.75 110.4 54.75 109.55
M 64.6 107.6
L 65 108.2
Q 65.1 108.25 65.25 108.25 65.4 108.25 65.5 108.2
L 65.8 108 66.15 107.85
Q 66.4 107.8 66.7 107.8 67.15 107.8 67.35 108.05 67.6 108.3 67.6 108.85
L 67.6 109.15
Q 67 109.15 66.5 109.25 66 109.35 65.65 109.45 65.3 109.55 65.05 109.75 64.8 109.9 64.65 110.1 64.5 110.25 64.4 110.45 64.35 110.65 64.35 110.85 64.35 111.25 64.5 111.5 64.6 111.8 64.8 111.95 65 112.15 65.3 112.25 65.6 112.35 65.95 112.35
L 66.45 112.3 66.9 112.15 67.7 111.6 67.85 111.95
Q 67.9 112.15 68 112.2 68.1 112.25 68.25 112.25
L 68.85 112.25 68.85 108.85
Q 68.85 108.4 68.75 108 68.6 107.6 68.35 107.35 68.1 107.05 67.7 106.9 67.35 106.75 66.85 106.75 65.55 106.75 64.6 107.6
M 65.8 111.3
Q 65.6 111.15 65.6 110.8 65.6 110.65 65.7 110.5 65.8 110.35 66.05 110.25 66.25 110.1 66.65 110.05 67.05 109.95 67.6 109.95
L 67.6 110.85
Q 67.3 111.15 67 111.3 66.75 111.45 66.35 111.45 66 111.45 65.8 111.3
M 63.55 108
L 63.9 107.5
Q 63.55 107.15 63.1 106.95 62.65 106.75 62.05 106.75 61.4 106.75 60.9 107 60.4 107.2 60.1 107.55 59.75 107.95 59.55 108.45 59.4 108.95 59.4 109.55 59.4 110.15 59.55 110.65 59.7 111.1 60 111.45 60.3 111.8 60.65 112 61.05 112.25 61.5 112.3
L 61.25 113 61.85 113.1
Q 62.05 113.2 62.05 113.35 62.05 113.45 61.95 113.5 61.85 113.55 61.7 113.55
L 61.4 113.5 61.25 113.5
Q 61.15 113.5 61.1 113.6
L 61 114 61.35 114.1 61.75 114.15 62.3 114.05
Q 62.5 114 62.7 113.9 62.85 113.8 62.95 113.7 63.05 113.55 63.05 113.35 63.05 113.1 62.85 112.9 62.65 112.7 62.15 112.55
L 62.2 112.3
Q 62.7 112.25 63.15 112.05 63.6 111.85 63.95 111.45
L 63.6 110.95
Q 63.5 110.85 63.35 110.85 63.2 110.85 63.15 110.9
L 62.9 111.1 62.6 111.25
Q 62.4 111.35 62.05 111.35 61.75 111.35 61.5 111.2 61.25 111.1 61.1 110.85 60.9 110.65 60.85 110.3 60.75 109.95 60.75 109.55 60.75 109.15 60.8 108.8 60.9 108.45 61.05 108.25 61.25 108 61.5 107.9 61.75 107.75 62.1 107.75 62.35 107.75 62.55 107.8
L 63.1 108.1 63.3 108.15 63.45 108.1 63.55 108
M 67.1 105.05
L 66.5 104.75
Q 66.35 104.65 66.15 104.65 65.9 104.65 65.7 104.75 65.5 104.85 65.35 105.05 65.25 105.2 65.15 105.45 65.05 105.7 65.05 105.95
L 65.85 105.95
Q 65.85 105.75 65.95 105.65 66.05 105.55 66.2 105.55
L 67 105.95
Q 67.15 106 67.35 106 67.6 106 67.8 105.9 68 105.8 68.1 105.65 68.25 105.45 68.35 105.25 68.45 105 68.45 104.7
L 67.65 104.7
Q 67.65 104.95 67.55 105 67.45 105.1 67.3 105.1
L 67.1 105.05
M 74.35 107.5
Q 74 107.15 73.5 106.95 73.05 106.75 72.45 106.75 71.85 106.75 71.35 106.95 70.85 107.15 70.5 107.5 70.15 107.85 69.95 108.4 69.75 108.9 69.75 109.55 69.75 110.2 69.95 110.7 70.15 111.2 70.5 111.6 70.85 111.95 71.35 112.15 71.85 112.35 72.45 112.35 73.05 112.35 73.5 112.15 74 111.95 74.35 111.6 74.7 111.2 74.9 110.7 75.1 110.2 75.1 109.55 75.1 108.9 74.9 108.4 74.7 107.85 74.35 107.5
M 71.4 108.2
Q 71.75 107.75 72.45 107.75 73.1 107.75 73.45 108.2 73.75 108.7 73.75 109.55 73.75 110.45 73.45 110.9 73.1 111.35 72.45 111.35 71.75 111.35 71.4 110.85 71.1 110.4 71.1 109.55 71.1 108.7 71.4 108.2 Z"/>
</g>
</defs>

<g transform="matrix( 0.87713623046875, 0, 0, 0.656982421875, -18.8,-13.4) ">
<use xlink:href="#Layer0_0_MEMBER_0_FILL"/>
</g>

<g transform="matrix( 0.87713623046875, 0, 0, 0.87713623046875, -18.8,-8) ">
<use xlink:href="#Layer0_0_MEMBER_1_FILL"/>
</g>

<g transform="matrix( 0.81854248046875, 0, 0, 0.81854248046875, -422.7,-8.65) ">
<use xlink:href="#Layer0_0_MEMBER_2_FILL"/>
</g>

<g transform="matrix( 1, 0, 0, 1, -1,-2) ">
<use xlink:href="#Layer0_0_MEMBER_3_FILL"/>
</g>
</svg>
