
<svg xmlns="http://www.w3.org/2000/svg" version="1.1" xmlns:xlink="http://www.w3.org/1999/xlink" preserveAspectRatio="none" x="0px" y="0px" width="149px" height="152px" viewBox="0 0 149 152">
<defs>
<g id="Layer0_0_FILL">
<path fill="#B8BE79" stroke="none" d="
M 165.65 120.75
L 165.65 10.15 17.95 10.15 17.95 29.1
Q 17.8326171875 29.1337890625 17.8 29.15 17.644921875 29.26640625 17.55 29.45
L 17.55 31.5 17.75 32.2
Q 17.8232421875 32.4927734375 17.95 32.7
L 17.95 63.55
Q 17.750390625 63.8138671875 17.55 64.05
L 17.55 65.5
Q 17.747265625 65.40078125 17.95 65.25
L 17.95 120.75 165.65 120.75 Z"/>
</g>

<g id="Layer0_1_FILL">
<path fill="#E1C99B" stroke="none" d="
M 21.5 111.85
L 21.5 148.6 159.35 148.6 159.35 111.85 21.5 111.85 Z"/>
</g>

<g id="Layer0_2_FILL">
<path fill="#3B3D35" stroke="none" d="
M 90.75 27.25
Q 90.586328125 27.1126953125 90.25 27 90.2716796875 26.9908203125 90.3 26.95 91.95 24.55 89.6 23.05 86.8099609375 24.488671875 85.35 27.05 84.894140625 27.012109375 84.25 27.05
L 80 27.45
Q 71.05 28.4 67.2 29.35 65.2 29.85 61.85 31 59.95 31.75 59.25 32.2 58.5 32.75 57.8 33.45 56.4 34.85 56.15 35.85 55.95 36.4 56.05 37.65 56.15 38.65 56.4 39.05 56.6 39.3 57.05 39.7 57.2353515625 39.8298828125 57.35 39.95 57.330078125 40.1046875 57.3 40.3
L 57.1 41.65
Q 57 42.4 57 44 56.9587890625 47.2505859375 57.2 50.45
L 56.65 55.35 56.8 73.2
Q 54.714453125 73.8919921875 52.7 74.65 37.5 80.45 37.5 88.65 37.5 96.85 52.7 102.65 67.95 108.45 89.45 108.45 110.95 108.45 126.15 102.65 141.4 96.85 141.4 88.65 141.4 84.6185546875 137.7 81.15 141.805078125 76.7111328125 143.8 69.85 146.5 60.15 140 52.6 137.2 49.35 132.9 49.95 123.37890625 51.711328125 115.25 48.65
L 115.05 46.65
Q 115.05 46.55 115.05 46.4 115.05 46.3 115.05 46.2 115.05 46.05 115.05 45.95 115.05 45.85 115.05 45.7 115.05 45.6 115.05 45.5 115.05 45.35 115.05 45.25 115.05 45.15 115.05 45.05 115.05 44.9 115.05 44.8 115.05 44.7 115.05 44.55 115.05 44.45 115.05 44.35 115.05 44.2 115.05 44.1 115.05 44 115.05 43.9 115.05 43.75 115.05 43.65 115.05 43.55 115.05 43.4 115.05 43.3 115.05 43.2 115.05 43.05 115.05 42.95 115.05 42.85 115.05 42.7 115.05 42.6 115.05 42.5 115.05 42.4 115.05 42.25 115.05 42.15 115.05 42.05 115.05 41.9 115.05 41.8 115.05 41.7 115.05 41.55 115.05 41.45 115.05 41.35 115.05 41.25 115.05 41.1 115.05 41 115.05 40.9 115.05 40.75 115.05 40.65 115.05 40.55 115 40.4 115 40.3 115 40.2 115.198046875 39.96796875 115.6 39.7 116.05 39.3 116.25 39.05 116.5 38.65 116.6 37.65 116.7 36.4 116.5 35.85 116.25 34.85 114.85 33.45 114.15 32.75 113.4 32.2 112.7 31.75 110.8 31 107.45 29.85 105.45 29.35 101.6 28.4 92.65 27.45
L 90.75 27.25
M 88.65 24.5
Q 89.05 24.45 89.4 24.6 89.45 24.6 89.45 24.8
L 85.9 31.95
Q 85.9318359375 31.2705078125 86 30.6 86.0849609375 30.225390625 86.15 29.85 86.3677734375 28.940625 86.7 28.05 86.8861328125 27.5501953125 87.1 27.05 87.3994140625 26.448046875 87.75 25.85 88.15 25.15 88.65 24.5
M 95.1 29.05
Q 99.95 29.6 100.15 29.65 103.6 30.2 108.15 31.6 112.25 32.8 113.95 34.4 114.75 35.2 115.1 36.2 115.5 37.3 115.15 38.2 115.0158203125 38.5689453125 114.65 39.05 114.6447265625 39.05 114.6 39.05 114.5 39.1 114.4 39.2 114.3267578125 39.2365234375 114.25 39.25
L 114.25 39.2
Q 114.23046875 39.248828125 114.2 39.3 114.12734375 39.3484375 114.05 39.4 114.05 39.55 114 39.65 114 39.72890625 114 39.85 113.9259765625 40.0408203125 113.85 40.25
L 113.85 49.7 113.9 49.75 113.9 49.8
Q 113.9 49.9 113.9 50 113.95 50.15 114 50.25 114 50.35 114 50.5 114.1 50.6 114.2 50.7 114.5 50.7 114.75 50.7 114.7794921875 50.6705078125 114.8 50.6 114.9806640625 50.83203125 115.2 51.1 115.387109375 51.3337890625 115.55 51.5
L 115.45 50.65
Q 116.23046875 51.1783203125 117.25 51.4 125.55 51.6 133.85 51.65 137.3 51.65 139.1 54.45 147 66.65 137.15 78.6 130.158984375 87.11640625 118.9 87.75
L 117.85 87.5
Q 116.7955078125 87.2763671875 115.7 87.3
L 115.7 87 115 87.35
Q 114.744921875 87.3994140625 114.45 87.45 114.2 87.6 114.3 87.65 114.3248046875 87.658984375 114.35 87.65 114.3865234375 87.6833984375 114.4 87.7
L 113.7 88.05
Q 112.9060546875 90.1845703125 111.05 91.95 110.7744140625 92.2255859375 110.45 92.5 107.966015625 94.47421875 105.25 96 99.740625 99.1087890625 93.4 100.35 92.2 100.55 91.05 100.8
L 91.5 100.95
Q 76.85 102.25 64.6 94.15 63.35 93.35 62.15 92.5 61.8755859375 92.2255859375 61.6 91.95 59.55234375 89.9755859375 58.7 87.6
L 58.7 87.2
Q 59.1509765625 87.1341796875 59.55 87.1 59.618359375 87.101953125 59.65 87.1 59.225390625 86.8001953125 58.7 86.7
L 58.75 40.25
Q 58.7078125 40.028515625 58.6 39.8 58.6671875 39.4671875 58.5 39.3 58.45625 39.25625 58.4 39.2 58.2453125 39.1109375 58.05 39.15 57.6630859375 38.5912109375 57.5 38.2 57.15 37.3 57.55 36.2 57.9 35.2 58.7 34.4 60.4 32.8 64.5 31.6 69.05 30.2 72.5 29.65 72.7 29.6 77.55 29.05 80.9625 28.6669921875 83.95 28.05 84.4537109375 28.059765625 84.85 28.05 84.5103515625 28.928125 84.25 29.9 75.0619140625 30.1662109375 68.3 32.2 60.5 34.6 60.5 37.95 60.5 41.3 68.3 43.65 69.154296875 43.93515625 70.05 44.15 70 44.5322265625 70 45.15 70 45.3232421875 70 45.45 65.6833984375 44.4552734375 61.45 43
L 60.9 43.15
Q 61.35 43.75 62 44 66.1314453125 45.5859375 70.35 46.7 69.8740234375 46.901171875 69.65 47.2 69.4822265625 47.4349609375 69.35 47.75 68.84140625 47.739453125 68.3 47.75 66.85 47.75 65.55 48.25 64.3 48.8 63.15 49.4 59.9 51.15 59.55 54.8 59.4322265625 56.2736328125 60.2 57.25 60.2 57.3359375 60.2 57.4 60.2 57.5 60.2 57.65 60.15 57.75 60.15 57.85 60.15 58 60.15 58.1 60.15 58.2 60.15 58.3 60.15 58.45 60.15 58.55 60.15 58.65 60.15 58.8 60.15 58.9 60.15 59 60.15 59.15 60.15 59.25 60.1 59.35 60.05 59.45 60.05 59.6 60.05 59.7 60.05 59.8 60.05 59.95 60.05 60.05 60.05 60.15 60.05 60.3 60.05 60.4 60.05 60.5 60.05 60.65 60.05 60.75 60.05 60.85 60.05 60.95 60.05 61.1 60.05 61.2 60.05 61.3 60.05 61.45 60.05 61.55 60.05 61.65 60.05 61.8 60.05 61.9 60.05 62 60.05 62.15 60.05 62.25 60.05 62.35 60.05 62.45 60.05 62.6 60.05 62.7 60.05 62.8 60.05 62.95 60.05 63.05 60.05 63.15 60.05 63.3 60.05 63.4 60.05 63.5 60.05 63.6 60.05 63.75 60.05 63.85 60.05 63.95 60.05 64.1 60.05 64.2 60.05 64.3 60.05 64.45 60.05 64.55 60.05 64.65 60.05 64.8 60.05 64.9 60.05 65 60.05 65.1 60.05 65.25 60.05 65.35 60.05 65.45 60.05 65.6 60.05 65.7 60.05 65.8 60.05 65.95 60.05 66.05 60.05 66.15 60.05 66.3 60.05 66.4 60.05 66.5 60.05 66.6 60.05 66.75 60.05 66.85 60.05 66.95 60.05 67.1 60.05 67.2 60.05 67.3 60.05 67.45 60.05 67.55 60.05 67.65 60.05 67.75 60.05 67.9 60.05 68 60.05 68.1 60.05 68.25 60.05 68.35 60.05 68.45 60.05 68.6 60.05 68.7 60.05 68.8 60.05 68.95 60.05 69.05 60.05 69.15 60.05 69.25 60.05 69.4 60.05 69.5 60.05 69.6 60.05 69.75 60.05 69.85 60.05 69.95 60.05 70.1 60.05 70.2 60.05 70.3 60.05 70.4 60.05 70.55 60.05 70.65 60.05 70.75 60.05 70.9 60.05 71 60.05 71.1 60.05 71.25 60.05 71.35 60.05 71.45 60.05 71.6 60.05 71.7 60.05 71.8 60.05 71.9 60.05 72.05 60.05 72.15 60.05 72.25 60.05 72.4 60.05 72.5 60.05 72.6 60.05 72.75 60.05 72.85 60.05 72.95 60.05 73.1 60.05 73.2 60.05 73.3 60.05 73.4 60.05 73.55 60.05 73.65 60.05 73.75 60.05 73.9 60.05 74 60.05 74.1 60.05 74.25 60.05 74.35 60.05 74.45 60.05 74.55 60.05 74.7 60.1 74.8 60.15 74.9 60.15 75.05 60.15 75.15 60.15 75.25 60.15 75.4 60.15 75.5 60.15 75.6 60.15 75.653125 60.15 75.7 60.15 75.785546875 60.15 75.85 60.15 75.95 60.15 76.05 60.15 76.2 60.15 76.3 60.15 76.4 60.15 76.55 60.15 76.65 60.15 76.75 60.15 76.9 60.15 77 60.15 77.1 60.15 77.2 60.15 77.35 60.2 77.45 60.2 77.55 60.2 77.7 60.2 77.8 60.2 77.9 60.2 78.05 60.2 78.15 60.25 78.25 60.3 78.4 60.25 78.5 60.2 78.6 60.2 78.7 60.2 78.85 60.2 78.95 60.2 79.05 60.2 79.2 60.2 79.3 60.2 79.4 60.2 79.55 60.2 79.65 60.2 79.75 60.2 79.9 60.2 80 60.3 80.05 60.35 80.15 60.45 80.05 60.5 80 60.5 79.9 60.5 79.75 60.5 79.65 60.5 79.55 60.5 79.4 60.5 79.3 60.5 79.2 60.5 79.05 60.5 78.95 60.5 78.85 60.5 78.7 60.5 78.6 60.5 78.5 60.5 78.4 60.5 78.25 60.5 78.15 60.55 78.05 60.6 77.9 60.6 77.8 60.6 77.7 60.6 77.55 60.6 77.45 60.65 77.35 60.65 77.2 60.65 77.1 60.65 77 60.65 76.9 60.65 76.75 60.65 76.65 60.65 76.55 60.65 76.4 60.65 76.3 60.65 76.2 60.65 76.05 60.65 75.95 60.65 75.85 60.65 75.75 60.65 75.6 60.65 75.5 60.65 75.4 60.65 75.25 60.65 75.15 60.65 75.05 60.65 74.9 60.7 74.8 60.75 74.7 60.75 74.55 60.75 74.45 60.75 74.35 60.75 74.25 60.75 74.1 60.75 74 60.75 73.9 60.75 73.75 60.75 73.65 60.75 73.55 60.75 73.4 60.75 73.3 60.75 73.2 60.75 73.1 60.75 72.95 60.75 72.85 60.75 72.75 60.75 72.6 60.75 72.5 60.75 72.4 60.75 72.25 60.75 72.15 60.75 72.05 60.75 71.9 60.75 71.8 60.75 71.7 60.75 71.6 60.75 71.45 60.75 71.35 60.75 71.25 60.75 71.1 60.75 71 60.75 70.9 60.75 70.75 60.75 70.65 60.75 70.55 60.75 70.4 60.75 70.3 60.75 70.2 60.75 70.1 60.75 69.95 60.75 69.85 60.75 69.75 60.75 69.6 60.75 69.5 60.75 69.4 60.75 69.25 60.75 69.15 60.75 69.05 60.75 68.95 60.75 68.8 60.75 68.7 60.75 68.6 60.75 68.45 60.75 68.35 60.75 68.25 60.75 68.1 60.75 68 60.75 67.9 60.75 67.75 60.75 67.65 60.75 67.55 60.75 67.45 60.75 67.3 60.75 67.2 60.75 67.1 60.75 66.95 60.75 66.85 60.75 66.75 60.75 66.6 60.75 66.5 60.75 66.4 60.75 66.3 60.75 66.15 60.75 66.05 60.75 65.95 60.75 65.8 60.75 65.7 60.75 65.6 60.75 65.45 60.75 65.35 60.75 65.25 60.75 65.1 60.75 65 60.75 64.9 60.75 64.8 60.75 64.65 60.75 64.55 60.75 64.45 60.75 64.3 60.75 64.2 60.75 64.1 60.75 63.95 60.75 63.85 60.75 63.75 60.75 63.6 60.75 63.5 60.75 63.4 60.75 63.3 60.75 63.15 60.75 63.05 60.75 62.95 60.75 62.8 60.75 62.7 60.75 62.6 60.75 62.45 60.75 62.35 60.75 62.25 60.75 62.15 60.75 62 60.75 61.9 60.75 61.8 60.75 61.65 60.75 61.55 60.75 61.45 60.75 61.3 60.75 61.2 60.75 61.1 60.75 60.95 60.75 60.85 60.75 60.75 60.75 60.65 60.75 60.5 60.75 60.4 60.75 60.3 60.75 60.15 60.75 60.05 60.75 59.95 60.75 59.8 60.75 59.7 60.7 59.6 60.65 59.45 60.65 59.35 60.65 59.25 60.65 59.15 60.65 59 60.65 58.9 60.65 58.8 60.65 58.65 60.65 58.55 60.65 58.45 60.65 58.3 60.65 58.2 60.65 58.1 60.65 58 60.6 57.85 60.6 57.75625 60.6 57.65 61.053515625 58.0611328125 61.7 58.35 67.05 60.85 73 62.4 78.55 63.95 84.3 63.85 90.85 63.75 97.4 63.9 100.5 64 103.35 63.25 106.8 62.15 110.05 60.05 111.2830078125 59.2486328125 112 58.05 112 58.1798828125 112 58.25 112 58.35 112 58.5 112 58.6 112 58.7 112 58.8 112 58.95 112 59.05 112 59.15 112 59.3 112 59.4 112 59.5 112 59.65 112 59.75 112 59.85 112 59.95 112 60.1 112 60.2 112 60.3 112 60.45 112 60.55 112 60.65 112 60.8 112 60.9 112 61 112 61.15 112 61.25 112 61.35 112 61.45 112 61.6 112 61.7 112 61.8 112 61.95 112 62.05 112 62.15 112 62.3 112 62.4 112 62.5 112 62.65 112 62.75 112 62.85 112 62.95 112 63.1 112 63.2 112 63.3 112 63.45 112 63.55 112 63.65 112 63.8 112 63.9 112 64 112 64.1 112 64.25 112 64.35 112 64.45 112 64.6 112 64.7 112 64.8 112 64.95 112 65.05 112 65.15 112 65.3 112 65.4 112 65.5 112 65.6 112 65.75 112 65.85 112 65.95 112 66.1 112 66.2 112 66.3 112 66.45 112 66.55 112 66.65 112 66.75 112 66.9 112 67 112 67.1 112 67.25 112 67.35 112 67.45 112 67.6 112 67.7 112 67.8 112 67.95 112 68.05 112 68.15 112 68.25 112 68.4 112 68.5 112 68.6 112 68.75 112 68.85 112 68.95 112 69.1 112 69.2 112 69.3 112 69.45 112 69.55 112 69.65 112 69.75 112 69.9 112 70 112 70.1 112 70.25 112 70.35 112 70.45 112 70.6 112 70.7 112 70.8 112 70.9 112 71.05 112 71.15 112 71.25 112 71.4 112 71.5 112 71.6 112 71.75 112 71.85 112 71.95 112 72.1 112 72.2 112 72.3 112 72.4 112 72.55 112 72.65 112 72.75 112 72.9 112 73 112 73.1 112 73.25 112 73.35 112 73.45 112 73.55 112 73.7 112 73.8 112 73.9 112 74.05 112 74.15 112 74.25 112 74.4 112 74.5 112 74.6 112 74.75 112 74.85 112 74.95 112 75.05 112 75.2 112 75.3 112 75.4 112 75.55 112 75.65 112 75.75 112 75.9 112 76 112 76.1 112 76.25 112 76.35 112 76.45 112 76.55 112 76.7 112 76.8 112 76.9 112 77.05 112 77.15 112 77.25 112 77.4 112 77.5 112 77.6 112.05 77.7 112.05 77.85 112.05 77.95 112.05 78.05 112.05 78.2 112.05 78.3 112.05 78.4 112.05 78.55 112.05 78.65 112.05 78.75 112.05 78.9 112.05 79 112.05 79.1 112.05 79.2 112.05 79.35 112.05 79.45 112.05 79.55 112.05 79.7 112.05 79.8 112.05 79.9 112.05 80.05 112.05 80.15 112.05 80.25 112.05 80.4 112.071875 80.44375 112.1 80.5 112.121875 80.54375 112.15 80.6 112.15 80.7 112.15 80.85 112.15 80.95 112.15 81.05 112.15 81.2 112.15 81.3 112.15 81.4 112.15 81.55 112.15 81.65 112.15 81.75 112.15 81.85 112.15 82 112.15 82.1 112.15 82.2 112.2 82.35 112.25 82.45 112.25 82.55 112.25 82.7 112.2 82.8 112.15 82.9 112.15 83.05 112.15 83.15 112.15 83.25 112.15 83.35 112.15 83.5 112.15 83.6 112.2 83.7 112.25 83.85 112.3 83.8 112.4 83.75 112.4 83.65 112.45 83.55 112.45 83.4 112.45 83.3 112.45 83.2 112.45 83.05 112.45 82.95 112.45 82.85 112.45 82.7 112.45 82.6 112.45 82.5 112.45 82.35 112.45 82.25 112.45 82.15 112.5 82.05 112.55 81.9 112.55 81.8 112.55 81.7 112.55 81.55 112.55 81.45 112.55 81.35 112.55 81.2 112.55 81.1 112.55 81 112.55 80.85 112.55 80.75 112.55 80.65 112.55 80.55 112.55 80.4 112.6 80.3 112.6 80.2 112.6 80.05 112.6 79.95 112.6 79.85 112.6 79.7 112.6 79.6 112.6 79.5 112.6 79.4 112.6 79.25 112.6 79.15 112.6 79.05 112.6 78.9 112.6 78.8 112.6 78.7 112.6 78.55 112.6 78.45 112.6 78.35 112.6 78.2 112.6 78.1 112.6 78 112.6 77.9 112.6 77.75 112.6 77.65 112.6 77.55 112.65 77.4 112.7 77.3 112.7 77.2 112.7 77.05 112.7 76.95 112.7 76.85 112.7 76.75 112.7 76.6 112.7 76.5 112.7 76.4 112.7 76.25 112.7 76.15 112.7 76.05 112.7 75.9 112.7 75.8 112.7 75.7 112.7 75.55 112.7 75.45 112.7 75.35 112.7 75.25 112.7 75.1 112.7 75 112.7 74.9 112.7 74.75 112.7 74.65 112.7 74.55 112.7 74.4 112.7 74.3 112.7 74.2 112.7 74.05 112.7 73.95 112.7 73.85 112.7 73.75 112.7 73.6 112.7 73.5 112.7 73.4 112.7 73.25 112.7 73.15 112.7 73.05 112.7 72.9 112.7 72.8 112.7 72.7 112.7 72.6 112.7 72.45 112.7 72.35 112.7 72.25 112.7 72.1 112.7 72 112.7 71.9 112.7 71.75 112.7 71.65 112.7 71.55 112.7 71.4 112.7 71.3 112.7 71.2 112.7 71.1 112.7 70.95 112.7 70.85 112.7 70.75 112.7 70.6 112.7 70.5 112.7 70.4 112.7 70.25 112.7 70.15 112.7 70.05 112.7 69.9 112.7 69.8 112.7 69.7 112.7 69.6 112.7 69.45 112.7 69.35 112.7 69.25 112.7 69.1 112.7 69 112.7 68.9 112.7 68.75 112.7 68.65 112.7 68.55 112.7 68.45 112.7 68.3 112.7 68.2 112.7 68.1 112.7 67.95 112.7 67.85 112.7 67.75 112.7 67.6 112.7 67.5 112.7 67.4 112.7 67.25 112.7 67.15 112.7 67.05 112.7 66.95 112.7 66.8 112.7 66.7 112.7 66.6 112.7 66.45 112.7 66.35 112.7 66.25 112.7 66.1 112.7 66 112.7 65.9 112.7 65.8 112.7 65.65 112.7 65.55 112.7 65.45 112.7 65.3 112.7 65.2 112.7 65.1 112.7 64.95 112.7 64.85 112.7 64.75 112.7 64.6 112.7 64.5 112.7 64.4 112.7 64.3 112.7 64.15 112.7 64.05 112.7 63.95 112.7 63.8 112.7 63.7 112.7 63.6 112.7 63.45 112.7 63.35 112.7 63.25 112.7 63.1 112.7 63 112.7 62.9 112.7 62.8 112.7 62.65 112.7 62.55 112.7 62.45 112.7 62.3 112.7 62.2 112.7 62.1 112.7 61.95 112.7 61.85 112.7 61.75 112.7 61.65 112.7 61.5 112.7 61.4 112.7 61.3 112.7 61.15 112.7 61.05 112.7 60.95 112.7 60.8 112.7 60.7 112.7 60.6 112.7 60.45 112.7 60.35 112.7 60.25 112.7 60.15 112.7 60 112.7 59.9 112.7 59.8 112.7 59.65 112.7 59.55 112.7 59.45 112.7 59.3 112.7 59.2 112.7 59.1 112.7 59 112.7 58.85 112.7 58.75 112.7 58.65 112.7 58.5 112.7 58.4 112.7 58.3 112.7 58.15 112.7 58.05 112.7 57.95 112.7 57.8 112.7 57.7 112.7 57.6 112.7 57.5 112.7 57.35 112.7 57.25 112.65 57.15 112.6 57 112.6 56.9 112.6 56.8 112.6556640625 56.653125 112.7 56.5 113 55.35 112.5 54.25 112 53.25 111.35 52.35 109.05 49.1 105.2 48.95 103.2380859375 48.871484375 101.3 48.85 106.847265625 47.3541015625 111.3 43.35 103.19921875 47.1671875 94.5 47.75 94.4798828125 47.66953125 94.45 47.55 94.25 46.75 93.6 46.35 93.7966796875 46.087890625 93.9 45.8 100.7068359375 45.28671875 106 43.65 113.8 41.3 113.8 37.95 113.8 34.6 106 32.2 98.6740234375 29.9943359375 88.45 29.85 88.9564453125 29.016015625 89.45 28.2 92.1310546875 28.716796875 95.1 29.05
M 83.5 35.95
Q 83.2 36.4 83.05 36.6 82.45 37.1 82.4 37.15 82.25 37.4 82.25 38.15 82.15 38.75 81.7 39.8 81.6 40.15 81.45 41.05 81.4412109375 41.1203125 81.4 41.2 81.3943359375 41.0708984375 81.35 40.95
L 80 38.85
Q 79.15 37.55 78.7 37.2 77.7 36.4 76.8 36.75 76.3 36.95 76.1 37.45 75.85 38 76.15 38.4 74.45 38 73.9 38.7 73.55 39.15 73.75 40.3 72.4 40.6 71.8 41.1 70.8 42.1 71.3 43.05 70.8423828125 42.9583984375 70.5 43.25 69.639453125 43.0333984375 68.8 42.8 61.25 40.7 61.25 37.75 61.25 34.8 68.8 32.7 75.30859375 30.8896484375 84.1 30.6 83.691796875 32.8498046875 83.9 35.6
L 83.5 35.95
M 85.7 36.05
Q 85.740234375 36.012109375 85.75 35.95 86.721875 33.148828125 88.05 30.6 98.0337890625 30.706640625 105.2 32.7 112.75 34.8 112.75 37.75 112.75 40.7 105.2 42.8 100.3013671875 44.1626953125 94.1 44.6 94.0798828125 44.3466796875 94 44.05 93.65 42.7 92.5 42.2 92.45 41.95 92.55 40.9 92.65 40.15 92.3 39.75 91.8 39.2 90.5 39.65 89.8 39.85 89.4 39.65
L 88.9 39.2
Q 88.55 38.9 88 38.9 87.45 38.9 87 39.15 86.5384765625 39.4435546875 85.9 40.25 85.9376953125 40.1240234375 85.95 40.05 86.15 39.2 86.15 38.1 86.15 37.1 86 36.65 85.897265625 36.3212890625 85.7 36.05
M 87.25 40.2
Q 87.8 39.75 88.1 39.9 88.3359375 40.01796875 88.55 40.45
L 88.35 40.5
Q 88.45 40.75 88.25 40.9
L 87.9 41.2
Q 87.8 41.3 87.4 42.1 86.55 43.05 86.2 43.55 85.9978515625 43.88671875 85.85 44.05 85.832421875 44.032421875 85.8 44 85.470703125 43.670703125 85.1 43.4 85.1505859375 42.902734375 85.3 42.2 86.2154296875 41.1484375 87.25 40.2
M 90.05 40.85
Q 90.3 40.8 90.8 40.6 91.25 40.45 91.55 40.55 91.8 40.9 91.3 41.7 90.85 42.55 91.05 42.9 91.2 43.15 91.75 43.25 92.4 43.35 92.55 43.45 93.1568359375 43.79140625 93.05 44.7 93.00859375 45 92.9 45.35 92.824609375 45.6328125 92.75 45.85 92.5943359375 46.9443359375 93 47.35 93.1 47.5 93.4 47.8
L 93.4 47.85
Q 93.5634765625 48.4134765625 92.65 48.75 91.2962890625 49.227734375 89.95 49.15
L 89.9 49.1
Q 88.9 48.55 87.65 48.45 87.4599609375 48.45 87.3 48.45 87.094140625 48.4154296875 86.9 48.4 87.0095703125 48.1162109375 87.05 47.8 87.1 47.4923828125 87.1 47.15 87.1 46.580859375 86.95 46.05 87.001171875 46.0625 87 46.05 88.3216796875 45.4375 89.85 44.85 90.157421875 44.7544921875 90.45 44.65 91.2 44.3 91.4 44 90.1115234375 44.3419921875 88.85 44.85 87.88203125 45.3037109375 86.9 45.85 86.7771484375 45.3486328125 86.5 44.9 86.36328125 44.6408203125 86.15 44.4 86.46640625 44.1751953125 86.8 43.8
L 88.45 41.4
Q 88.75 41.1 88.8 40.95 88.8103515625 40.90859375 88.8 40.85 89.23359375 41.1765625 90.05 40.85
M 85.15 38
Q 85.15 39.05 85.05 39.55 85 40.15 84.7 41.35 84.6185546875 41.7732421875 84.55 42.15
L 84.05 42.9
Q 83.3927734375 42.7 82.65 42.7 82.3271484375 42.7 82 42.7 82.1955078125 42.194921875 82.35 41.4 82.8 39.25 83.3 37.75 84.1 37.25 84.5 36.5 85.05 36.7 85.15 38
M 81.05 42.8
Q 81.0205078125 42.9083984375 81 43 80.1724609375 43.3275390625 79.5 44 79.3892578125 44.1107421875 79.3 44.2 78.5982421875 43.6611328125 78.25 43.4 77.75 43 76.85 42.65 75.742578125 42.118359375 74.3 41.15 74.46875 40.98125 74.6 40.7 74.9 39.95 74.55 39.3 74.85 39.2 75.7 39.4 75.9591796875 39.469140625 76.15 39.45 76.26796875 39.633984375 76.5 39.75 77.1 40.1 78.3 41
L 80.1 42.3 80.2 42.2 78.8 40.9 76.7 39.4
Q 76.7564453125 39.3810546875 76.8 39.35 77.35 38.9 77.05 37.8 77.9 37.8 78.65 38.8 79 39.3 79.7 40.4 79.95 40.7 80.45 41.2 80.85 41.65 80.95 42.1 80.9953125 42.3263671875 81.05 42.8
M 85.1 44.85
Q 85.566796875 45.40390625 85.75 46.05 85.85 46.4478515625 85.85 46.9 85.85 47.3484375 85.75 47.75 85.530859375 48.519140625 84.9 49.1 84.4181640625 49.6318359375 83.8 49.85 83.2876953125 50.05 82.7 50.05 81.8611328125 50.05 81.15 49.65 80.803125 49.453125 80.45 49.1 79.6564453125 48.3064453125 79.55 47.2 79.55 47.049609375 79.55 46.9 79.55 46.28828125 79.75 45.75 79.98515625 45.16484375 80.45 44.65 81.4 43.75 82.7 43.75 84 43.75 84.9 44.65 85.0267578125 44.7767578125 85.1 44.85
M 86.5 49.4
L 86.55 49.4
Q 86.7158203125 49.5220703125 87 49.65 87.318359375 49.7958984375 87.65 49.9 88.5916015625 50.2580078125 89.55 50.35
L 92.35 52.25
Q 91.4 52.6 90.3 52.2 89.65 51.95 88.45 51.15
L 86.8 49.95 86.6 50.05
Q 86.574609375 50.0330078125 86.55 50 86.2814453125 49.8849609375 86.05 50 86.114453125 49.953515625 86.15 49.9 86.34921875 49.66171875 86.5 49.4
M 106.35 50
Q 108.35 50.45 109.8 52.1 110.5 52.9 111.1 53.75 112.8 56.3 110.35 58.3 108.3 60.05 105.95 61.05 101.05 63.15 95.55 62.75 89.45 62.7 83.4 62.7 81.1 62.7 78.8 62.6 75.55 62.25 72.45 61.35 66.95 59.75 61.9 57.55 61.022265625 57.1384765625 60.65 56.4 60.637109375 56.3240234375 60.6 56.25 60.6 56.15 60.6 56 60.55 55.9 60.5 55.8 60.467578125 55.8 60.4 55.8 60.3384765625 55.4513671875 60.35 55.05 60.5 51.9 63.4 50.2 64.35 49.65 65.4 49.4 67.2818359375 48.9509765625 69.2 48.8 69.1626953125 49.8251953125 69.65 50.35 70.1 50.85 71.15 50.95 72.1 51.05 73.9 50.55
L 76.75 49.8
Q 76.574609375 49.9603515625 76.4 50.1
L 72.9 52.85
Q 72.25 53.4 72.1 53.8 72.05 54.2 72.15 54.95 72.05 55.55 72.15 55.85 72.25 56.1 72.75 56.4 73.95 57.05 74.8 56.75 75.15 56.65 75.95 56 76.163671875 55.802734375 76.35 55.55 76.3 55.953515625 76.3 56.25 76.2 57.8 77.45 58.45 77.9 58.7 79.3 58.7 79.75 58.7 79.95 58.55 80.25 58.45 80.45 57.9 80.6 57.55 80.95 56
L 81.35 54 81.35 57.9
Q 81.35 58.3 81.45 58.5 81.6 58.75 82.3 58.85
L 84.1 58.95
Q 84.8 58.95 85.05 58.75 85.4 58.5 85.5 57.8 85.6 57.05 85.4 55.8 85.3068359375 55.318359375 85.25 54.95 85.318359375 55.160546875 85.4 55.4 86.05 57 87.05 57.5 87.85 57.85 89 57.65 89.5 57.65 89.7 57.35 89.8 57.25 89.7 56.5 89.8 55.35 89.6 54.85 89.5 54.65 88.75 53.9 88.1 52.55 87.6 52.1 86.8 51.45 86.75 51.3 86.7 51.15 86.7 50.65 86.7 50.5103515625 86.65 50.4
L 86.85 50.75
Q 87.45 51.35 88.3 51.95 89.4 52.85 90.25 53.15 90.95 53.4 93.05 53.4 93.55 53.4 93.8 53.2 94.35 52.8 94.05 52.1 93.8 51.65 93.2 51.2
L 91.6 50.25
Q 91.8025390625 50.241796875 92 50.2 92.64609375 50.07890625 93.1 49.85 94.1689453125 49.8349609375 95.2 49.8 100.75 49.45 106.35 50
M 86.2 50.75
Q 86.1 51.45 86.1 51.55 86.2 52.1 87.15 52.85 87.35 53.1 87.55 53.7 87.8 54.2 88.5 55 89.1 55.85 88.85 56.5 87.8 56.8 87 55.8 86.6 55.3 86.05 53.9 85.473828125 52.541796875 84.5 51.2 85.204296875 50.895703125 85.8 50.3 85.8912109375 50.2087890625 85.95 50.1 86.2958984375 50.2701171875 86.2 50.75
M 83.7 51.45
Q 83.7322265625 51.630859375 83.8 51.8
L 84.05 52.25
Q 84.0744140625 52.3169921875 84.1 52.4 84.25 53.1 84.05 54.45 84.05 54.85 84.3 56.1 84.45 57.1 84.35 57.7
L 82.55 57.7 82.4 51.75
Q 82.4 51.6677734375 82.4 51.6 82.521875 51.6 82.65 51.6 83.2 51.6 83.7 51.45
M 81.15 51.35
Q 81.067578125 51.6123046875 81 51.95 80.95 52.55 80.6 53.4
L 80.25 54.1 79.35 57.05
Q 79 57.5 78.45 57.3 78.15 57.25 77.55 56.85 77.5 56.15 77.75 55.3 78.1 54.35 78.75 53.35 79.4 52.5 79.55 52.25 79.7357421875 51.9482421875 79.8 51.65 80.11953125 51.269921875 80.3 50.9 80.701171875 51.18828125 81.15 51.35
M 112.8 92.5
Q 114.51328125 90.710546875 115.3 88.7 117.873046875 89.18828125 120.5 89 121.244921875 89.241015625 122.1 89.45
L 124.05 89.95 124.9 90.2
Q 126.35 90.7 126.8 91.45 127.1 91.95 127 92.3 126.95 92.55 126.7 92.8 126.35 93.05 126.2 93.2
L 125.55 94
Q 125.2 94.35 124 95 122.55 95.75 120.6 97.05
L 120.6 97.1 120.7 97.2
Q 120.8341796875 97.1576171875 120.95 97.1 121.897265625 96.7515625 123.4 95.85 123.85 95.65 124.7 95.3 125.45 94.95 125.9 94.6 126.2 94.35 126.7 93.75 126.95 93.5 127.5 93.05 127.85 92.55 127.85 92.1 127.95 91.65 127.7 91.25 127.45 90.5 126.75 90 126.3 89.65 125.6 89.5
L 122.8 88.75
Q 123.3349609375 88.7041015625 123.85 88.6 131.7109375 87.017578125 136.75 82.15 139.95 85.187109375 139.95 88.7 139.95 96.25 125.15 101.55 110.4 106.9 89.5 106.9 68.6 106.9 53.8 101.55 39.05 96.25 39.05 88.7 39.05 81.15 53.8 75.8 55.2978515625 75.294140625 56.8 74.8
L 56.95 86.95
Q 56.3837890625 87.1837890625 55.7 87.6 55.5830078125 87.668359375 55.45 87.7 54.623828125 88.24609375 54.15 88.65 54.0759765625 88.7240234375 54 88.8 53.3 89.35 52.8 90.35 52.25 91.55 52.5 92.35 52.75 93.25 54.15 94.25 55.85 95.55 57 95.7
L 54.2 93.2
Q 53.55 92.65 53.45 92.3 53.2 91.55 53.85 90.5 54.85 89.05 56.4 88.15 56.701953125 87.96484375 57 87.8 57.737890625 90.3009765625 59.8 92.5 71 102.4 85.9 102.4 101.1 102.45 112.8 92.5
M 70.3 48.7
Q 70.2966796875 48.6919921875 70.3 48.65 70.3 48.0228515625 71.1 47.75 71.3189453125 47.6931640625 71.6 47.65 71.9890625 47.590234375 73 47.55 74.0513671875 47.8052734375 75.1 47.85 76.659375 47.9421875 78.2 47.65 78.2609375 48.01015625 78.35 48.35 77.126953125 48.3216796875 75.35 48.85 75.137109375 48.9095703125 74.95 48.95 72.798828125 49.55859375 72.25 49.65 71.6 49.8 71 49.6 70.2984375 49.3193359375 70.3 48.7
M 72.1 42.3
Q 72.25 42 72.7 41.85 72.95 41.75 73.55 41.65 73.7666015625 41.5880859375 73.95 41.45 74.8232421875 42.248828125 75.35 42.6 75.75 42.85 76.7 43.2 77.6 43.55 78.05 43.85 78.738671875 44.308984375 79.15 44.4 79.084765625 44.4798828125 79 44.55 78.6521484375 45.061328125 78.45 45.6 78.405859375 45.7265625 78.35 45.8 77.976171875 45.694140625 77.1 45.45 76.5052734375 45.3330078125 75.7 45.15 74 44.8 73.05 44.25 72.519921875 43.9359375 72.1 43.75 72.141015625 43.7271484375 72.15 43.7 72.17109375 43.6578125 72.15 43.6 72.22890625 43.3943359375 72.15 43 72.05 42.55 72.1 42.3
M 73.55 44.95
Q 74.4396484375 45.3349609375 74.7 45.4 75.45 45.65 76.85 45.85
L 78.3 46
Q 78.258203125 46.3072265625 78.2 46.6 77.4625 46.6912109375 76.7 46.7 76.0205078125 46.553515625 74.95 46.5
L 73.85 46.5
Q 72.4203125 46.262890625 71 45.75
L 71.05 44.25
Q 71.507421875 44.2017578125 71.75 44.05
L 72.5 44.45
Q 73.128515625 44.7466796875 73.55 44.95
M 78.95 49.65
Q 79.2009765625 50.0009765625 79.5 50.3
L 79.5 50.3 79.35 50.5
Q 79.2185546875 50.4611328125 79.1 50.55 79.1396484375 50.616015625 79.15 50.65
L 78.7 51.15 77.85 51.8
Q 77.25 52.75 76.9 53.15 76.15 53.7 75.8 54.05 75.15 54.85 74.7 55.15 74.35 55.4 73.95 55.4 73.5 55.4 73.3 55.1 73 54.55 73.9 53.75 75.55 52.3 77.6 50.75
L 78.95 49.65
M 128.3 97.5
Q 127.4923828125 97.67265625 126.65 97.85 120.2423828125 99.2671875 113.8 101 105.5970703125 103.2125 97.25 103.95 85.6548828125 105.0267578125 73.8 103.25 73.05390625 103.127734375 72.3 103 59.6904296875 100.8166015625 47.55 96.75 46.0822265625 96.275390625 44.6 95.75 45.5599609375 96.156640625 46.5 96.55 47.1947265625 96.8146484375 47.85 97.05 50.548046875 98.0841796875 53.3 98.95 67.9 103.65 82.95 105 98.2 106.25 113.2 102.95 124.95 100.2 135.85 94.7
L 128.3 97.5
M 82.4 48.85
L 82.65 48.8 83.6 48.75
Q 84 48.65 84.1 48.5
L 83.95 48.25
Q 82.45 48.2 81.8 48.5 81.5 48.4 81.4 47.85
L 81.1 47.85
Q 81.1 48.6 81.25 48.8 81.35 49 81.65 49.05 81.95 49.1 82.15 49
L 82.4 48.85
M 110.5 84.1
Q 110.496484375 84.4275390625 110.45 84.75 110.3501953125 86.3328125 109.7 87.7 108.6201171875 89.9490234375 106.1 91.6 105.6072265625 91.9140625 105.1 92.2 104.9365234375 92.3390625 104.75 92.45 88.7328125 101.9375 72.2 95.25 69.487109375 94.142578125 66.75 92.6 64.3712890625 91.28203125 62.45 89.25 61.378515625 88.1390625 60.45 86.8 60.658984375 87.5697265625 60.95 88.25 62.338671875 91.3060546875 65.7 93.25 68.8896484375 95.0685546875 72.35 96.3 75.065234375 97.2833984375 77.95 97.9 81.89921875 99.038671875 85.75 99.25 95.33984375 99.745703125 104.45 94.55 105.0498046875 94.199609375 105.6 93.8 109.162890625 91.3435546875 110.85 87.45 111.428125 86.1359375 111.3 85.25 111.203125 84.63359375 110.7 84.25 110.6099609375 84.164453125 110.5 84.1
M 83.65 91
Q 84.8 90.95 88.2 90.9
L 94.75 90.9
Q 98.5 90.9 100.3 91.2 102.35 91.5 103.3 92.45 103.65 92.3 103.55 91.85 103.4951171875 91.685546875 103.35 91.5 103.3361328125 91.4763671875 103.3 91.4 103.2265625 91.3638671875 103.15 91.3 102.4322265625 90.7189453125 101.4 90.4 100.971875 90.244921875 100.45 90.15 99.4 89.95 97.4 89.95
L 82.7 89.95
Q 82.1 90 80.65 90.3 76.7 91.15 74.5 92.05 73.45 92.6 73.15 93 72.95 93.4 73 93.8 73.1 94.25 73.4 94.45
L 73.8 94.45
Q 73.9 94.3 73.8 94.05 73.6 93.75 73.6 93.65 73.6 93.35 74 93.25 76.4 92.1 79.1 91.55 81.05 91.15 83.65 91
M 78.15 74.2
Q 78.3 74.1 78.2 74 77.7 73.85 76.65 73.75
L 73.6 73.6
Q 73.6 73.8 73.5 73.7
L 73.5 73.85 77.9 74.25 78.15 74.2
M 61.35 69.05
Q 61.15 69.1 61.15 69.25 69.3 73.1 75.4 72.6 75.1 72.4 74.35 72.4 67.55 72.15 61.7 69.1 61.55 69 61.35 69.05
M 108.25 70.6
Q 110.5 69.5 111.4 68.4 105.25 72.15 98.15 73.2 97.3 73.45 97.3 73.8 102.95 73.05 108.25 70.6
M 102.15 74
L 101.85 73.7 98.25 74.55
Q 94.35 75.45 92.4 75.45
L 92.35 75.7
Q 94.5 76.05 98.7 75.05
L 101.8 74.35
Q 102.25 74.25 102.15 74
M 113.9 82.85
L 113.9 82.9
Q 113.95 82.92578125 114 82.9 113.9513671875 82.8875 113.9 82.85
M 116.2 54.75
Q 115.0830078125 54.6755859375 114.45 55.25 114.123828125 55.180859375 113.85 55.05
L 113.9 80.45 114.4 80.8
Q 114.4935546875 81.934375 115.7 82.3 116.8458984375 82.7201171875 118.05 82.8 120.5 83.05 122.85 82.6 139.65 80.2 139.05 63.35 138.9013671875 59.544921875 134.85 56.2 130.8455078125 52.8650390625 118.05 54.9 117.1009765625 54.9232421875 116.2 54.75
M 117.95 56.2
Q 118 56.192578125 118.05 56.15 125.75 53.9 132.8 56.55 137.9 58.6 137.5 64.25 136.84765625 72.9322265625 131.95 77.2 129.4029296875 75.8796875 126.15 74.65 121.3322265625 72.8052734375 115.85 71.55
L 116 56.25
Q 116.925 56.390625 117.95 56.2
M 116 80.4
Q 115.9220703125 80.04921875 115.75 79.75
L 115.8 73.1
Q 120.7771484375 74.2400390625 125.15 75.8 128.283984375 76.9455078125 130.75 78.15 126.018359375 81.4517578125 118.05 81.35 117.23828125 81.373828125 116.4 80.9 116.05 80.7 116 80.4 Z"/>

<path fill="#FFFFFF" stroke="none" d="
M 79.5 50.3
Q 79.2009765625 50.0009765625 78.95 49.65
L 77.6 50.75
Q 75.55 52.3 73.9 53.75 73 54.55 73.3 55.1 73.5 55.4 73.95 55.4 74.35 55.4 74.7 55.15 75.15 54.85 75.8 54.05 76.15 53.7 76.9 53.15 77.25 52.75 77.85 51.8
L 78.7 51.15 79.15 50.65
Q 79.1396484375 50.616015625 79.1 50.55 79.2185546875 50.4611328125 79.35 50.5
L 79.5 50.3 79.5 50.3
M 74.7 45.4
Q 74.4396484375 45.3349609375 73.55 44.95 73.128515625 44.7466796875 72.5 44.45
L 71.75 44.05
Q 71.507421875 44.2017578125 71.05 44.25
L 71 45.75
Q 72.4203125 46.262890625 73.85 46.5
L 74.95 46.5
Q 76.0205078125 46.553515625 76.7 46.7 77.4625 46.6912109375 78.2 46.6 78.258203125 46.3072265625 78.3 46
L 76.85 45.85
Q 75.45 45.65 74.7 45.4
M 72.7 41.85
Q 72.25 42 72.1 42.3 72.05 42.55 72.15 43 72.22890625 43.3943359375 72.15 43.6 72.17109375 43.6578125 72.15 43.7 72.141015625 43.7271484375 72.1 43.75 72.519921875 43.9359375 73.05 44.25 74 44.8 75.7 45.15 76.5052734375 45.3330078125 77.1 45.45 77.976171875 45.694140625 78.35 45.8 78.405859375 45.7265625 78.45 45.6 78.6521484375 45.061328125 79 44.55 79.084765625 44.4798828125 79.15 44.4 78.738671875 44.308984375 78.05 43.85 77.6 43.55 76.7 43.2 75.75 42.85 75.35 42.6 74.8232421875 42.248828125 73.95 41.45 73.7666015625 41.5880859375 73.55 41.65 72.95 41.75 72.7 41.85
M 70.3 48.65
Q 70.2966796875 48.6919921875 70.3 48.7 70.2984375 49.3193359375 71 49.6 71.6 49.8 72.25 49.65 72.798828125 49.55859375 74.95 48.95 75.137109375 48.9095703125 75.35 48.85 77.126953125 48.3216796875 78.35 48.35 78.2609375 48.01015625 78.2 47.65 76.659375 47.9421875 75.1 47.85 74.0513671875 47.8052734375 73 47.55 71.9890625 47.590234375 71.6 47.65 71.3189453125 47.6931640625 71.1 47.75 70.3 48.0228515625 70.3 48.65
M 81 51.95
Q 81.067578125 51.6123046875 81.15 51.35 80.701171875 51.18828125 80.3 50.9 80.11953125 51.269921875 79.8 51.65 79.7357421875 51.9482421875 79.55 52.25 79.4 52.5 78.75 53.35 78.1 54.35 77.75 55.3 77.5 56.15 77.55 56.85 78.15 57.25 78.45 57.3 79 57.5 79.35 57.05
L 80.25 54.1 80.6 53.4
Q 80.95 52.55 81 51.95
M 83.8 51.8
Q 83.7322265625 51.630859375 83.7 51.45 83.2 51.6 82.65 51.6 82.521875 51.6 82.4 51.6 82.4 51.6677734375 82.4 51.75
L 82.55 57.7 84.35 57.7
Q 84.45 57.1 84.3 56.1 84.05 54.85 84.05 54.45 84.25 53.1 84.1 52.4 84.0744140625 52.3169921875 84.05 52.25
L 83.8 51.8
M 86.1 51.55
Q 86.1 51.45 86.2 50.75 86.2958984375 50.2701171875 85.95 50.1 85.8912109375 50.2087890625 85.8 50.3 85.204296875 50.895703125 84.5 51.2 85.473828125 52.541796875 86.05 53.9 86.6 55.3 87 55.8 87.8 56.8 88.85 56.5 89.1 55.85 88.5 55 87.8 54.2 87.55 53.7 87.35 53.1 87.15 52.85 86.2 52.1 86.1 51.55
M 86.55 49.4
L 86.5 49.4
Q 86.34921875 49.66171875 86.15 49.9 86.114453125 49.953515625 86.05 50 86.2814453125 49.8849609375 86.55 50 86.574609375 50.0330078125 86.6 50.05
L 86.8 49.95 88.45 51.15
Q 89.65 51.95 90.3 52.2 91.4 52.6 92.35 52.25
L 89.55 50.35
Q 88.5916015625 50.2580078125 87.65 49.9 87.318359375 49.7958984375 87 49.65 86.7158203125 49.5220703125 86.55 49.4
M 81 43
Q 81.0205078125 42.9083984375 81.05 42.8 80.9953125 42.3263671875 80.95 42.1 80.85 41.65 80.45 41.2 79.95 40.7 79.7 40.4 79 39.3 78.65 38.8 77.9 37.8 77.05 37.8 77.35 38.9 76.8 39.35 76.7564453125 39.3810546875 76.7 39.4
L 78.8 40.9 80.2 42.2 80.1 42.3 78.3 41
Q 77.1 40.1 76.5 39.75 76.26796875 39.633984375 76.15 39.45 75.9591796875 39.469140625 75.7 39.4 74.85 39.2 74.55 39.3 74.9 39.95 74.6 40.7 74.46875 40.98125 74.3 41.15 75.742578125 42.118359375 76.85 42.65 77.75 43 78.25 43.4 78.5982421875 43.6611328125 79.3 44.2 79.3892578125 44.1107421875 79.5 44 80.1724609375 43.3275390625 81 43
M 85.05 39.55
Q 85.15 39.05 85.15 38 85.05 36.7 84.5 36.5 84.1 37.25 83.3 37.75 82.8 39.25 82.35 41.4 82.1955078125 42.194921875 82 42.7 82.3271484375 42.7 82.65 42.7 83.3927734375 42.7 84.05 42.9
L 84.55 42.15
Q 84.6185546875 41.7732421875 84.7 41.35 85 40.15 85.05 39.55
M 90.8 40.6
Q 90.3 40.8 90.05 40.85 89.23359375 41.1765625 88.8 40.85 88.8103515625 40.90859375 88.8 40.95 88.75 41.1 88.45 41.4
L 86.8 43.8
Q 86.46640625 44.1751953125 86.15 44.4 86.36328125 44.6408203125 86.5 44.9 86.7771484375 45.3486328125 86.9 45.85 87.88203125 45.3037109375 88.85 44.85 90.1115234375 44.3419921875 91.4 44 91.2 44.3 90.45 44.65 90.157421875 44.7544921875 89.85 44.85 88.3216796875 45.4375 87 46.05 87.001171875 46.0625 86.95 46.05 87.1 46.580859375 87.1 47.15 87.1 47.4923828125 87.05 47.8 87.0095703125 48.1162109375 86.9 48.4 87.094140625 48.4154296875 87.3 48.45 87.4599609375 48.45 87.65 48.45 88.9 48.55 89.9 49.1
L 89.95 49.15
Q 91.2962890625 49.227734375 92.65 48.75 93.5634765625 48.4134765625 93.4 47.85
L 93.4 47.8
Q 93.1 47.5 93 47.35 92.5943359375 46.9443359375 92.75 45.85 92.824609375 45.6328125 92.9 45.35 93.00859375 45 93.05 44.7 93.1568359375 43.79140625 92.55 43.45 92.4 43.35 91.75 43.25 91.2 43.15 91.05 42.9 90.85 42.55 91.3 41.7 91.8 40.9 91.55 40.55 91.25 40.45 90.8 40.6
M 88.1 39.9
Q 87.8 39.75 87.25 40.2 86.2154296875 41.1484375 85.3 42.2 85.1505859375 42.902734375 85.1 43.4 85.470703125 43.670703125 85.8 44 85.832421875 44.032421875 85.85 44.05 85.9978515625 43.88671875 86.2 43.55 86.55 43.05 87.4 42.1 87.8 41.3 87.9 41.2
L 88.25 40.9
Q 88.45 40.75 88.35 40.5
L 88.55 40.45
Q 88.3359375 40.01796875 88.1 39.9
M 72.35 96.3
Q 72.369140625 96.4216796875 72.4 96.55 72.934765625 96.7611328125 73.45 96.95 79.7103515625 99.3 83.85 99.3 84.80390625 99.3 85.75 99.25 81.89921875 99.038671875 77.95 97.9 75.065234375 97.2833984375 72.35 96.3
M 105.1 92.2
Q 105.6072265625 91.9140625 106.1 91.6 108.6201171875 89.9490234375 109.7 87.7 110.3501953125 86.3328125 110.45 84.75 108.5685546875 88.774609375 105.6 91.75 105.362109375 91.99921875 105.1 92.2
M 89.4 24.6
Q 89.05 24.45 88.65 24.5 88.15 25.15 87.75 25.85 87.3994140625 26.448046875 87.1 27.05 86.8861328125 27.5501953125 86.7 28.05 86.3677734375 28.940625 86.15 29.85 86.0849609375 30.225390625 86 30.6 85.9318359375 31.2705078125 85.9 31.95
L 89.45 24.8
Q 89.45 24.6 89.4 24.6 Z"/>

<path fill="#D3E7EE" stroke="none" d="
M 72.3 103
Q 73.05390625 103.127734375 73.8 103.25 85.6548828125 105.0267578125 97.25 103.95 94.38515625 104.15 91.55 104.15 82.0498046875 104.15 72.3 103
M 126.75 90
Q 127.45 90.5 127.7 91.25 127.95 91.65 127.85 92.1 127.85 92.55 127.5 93.05 126.95 93.5 126.7 93.75 126.2 94.35 125.9 94.6 125.45 94.95 124.7 95.3 123.85 95.65 123.4 95.85 121.897265625 96.7515625 120.95 97.1
L 122.3 97.1
Q 124.05 96.75 127.85 95.7 129.8 95.15 132.45 94.35
L 132.45 95.25
Q 130.0271484375 96.60078125 126.65 97.85 127.4923828125 97.67265625 128.3 97.5
L 135.85 94.7
Q 124.95 100.2 113.2 102.95 98.2 106.25 82.95 105 67.9 103.65 53.3 98.95 50.548046875 98.0841796875 47.85 97.05 47.1947265625 96.8146484375 46.5 96.55 45.5599609375 96.156640625 44.6 95.75 46.0822265625 96.275390625 47.55 96.75 49.2728515625 97.1 50.5 97.1 50.75 97.1 53.05 96.95 55.35 96.8 56.25 96.8
L 56.25 96.15
Q 56.2 96.1 54.35 94.45 54.244921875 94.3537109375 54.15 94.25 52.75 93.25 52.5 92.35 52.25 91.55 52.8 90.35 53.3 89.35 54 88.8 54.0759765625 88.7240234375 54.15 88.65 54.623828125 88.24609375 55.45 87.7 55.5830078125 87.668359375 55.7 87.6 56.3837890625 87.1837890625 56.95 86.95
L 56.8 74.8
Q 55.2978515625 75.294140625 53.8 75.8 39.05 81.15 39.05 88.7 39.05 96.25 53.8 101.55 68.6 106.9 89.5 106.9 110.4 106.9 125.15 101.55 139.95 96.25 139.95 88.7 139.95 85.187109375 136.75 82.15 131.7109375 87.017578125 123.85 88.6 123.3349609375 88.7041015625 122.8 88.75
L 125.6 89.5
Q 126.3 89.65 126.75 90
M 51.15 79.55
Q 52.2 79.45 52.35 80.15 52.45 80.65 51.3 81.35 50.65 81.75 49.9 82.6
L 48.4 84.25
Q 46.5 86.35 45.65 87.45 45.25 87.95 44.95 88.15 44.35 88.45 44 88.2 43.6 87.95 43.6 87.15 43.6 85.25 45.25 83.4 46.25 82.25 48.45 80.8 50.05 79.65 51.15 79.55
M 120.15 97.1
L 120.6 97.1 120.6 97.05
Q 122.55 95.75 124 95 125.2 94.35 125.55 94
L 126.2 93.2
Q 126.35 93.05 126.7 92.8 126.95 92.55 127 92.3 127.1 91.95 126.8 91.45 126.35 90.7 124.9 90.2
L 124.05 89.95
Q 126.3 91.091015625 126.3 92.35 126.3 93.35 124.35 94.35 121.5 95.8 120.15 97.1
M 94 33.75
Q 93.95 34.2 94.45 34.45 94.8 34.6 95.3 34.5 100.45 34.35 107.9 37.9 108.8 38.4 109.4 38.1 109.8 37.9 109.85 37.4 109.9 36.95 109.65 36.5 109.4 36.05 108.2 35.4 105.75 34.3 105.1 34.05 100.1 32.15 94.8 33.2 94.1 33.45 94 33.75
M 67.1 36.3
Q 67.75 36.4 68.05 36.3
L 70.95 35.15 70.85 34.9 70.1 34.8 70 34.9
Q 69.35 35.15 69 35.2
L 67.6 35.65
Q 67.25 35.8 67.15 35.85 67.05 35.95 67 36.1 67 36.25 67.1 36.3
M 100.15 29.65
Q 99.95 29.6 95.1 29.05 92.1310546875 28.716796875 89.45 28.2 88.9564453125 29.016015625 88.45 29.85 98.6740234375 29.9943359375 106 32.2 113.8 34.6 113.8 37.95 113.8 41.3 106 43.65 100.7068359375 45.28671875 93.9 45.8 93.7966796875 46.087890625 93.6 46.35 94.25 46.75 94.45 47.55 94.4798828125 47.66953125 94.5 47.75 103.19921875 47.1671875 111.3 43.35 106.847265625 47.3541015625 101.3 48.85 103.2380859375 48.871484375 105.2 48.95 109.05 49.1 111.35 52.35 112 53.25 112.5 54.25 113 55.35 112.7 56.5 112.6556640625 56.653125 112.6 56.8 112.6 56.9 112.6 57 112.65 57.15 112.7 57.25 112.7 57.35 112.7 57.5 112.7 57.6 112.7 57.7 112.7 57.8 112.7 57.95 112.7 58.05 112.7 58.15 112.7 58.3 112.7 58.4 112.7 58.5 112.7 58.65 112.7 58.75 112.7 58.85 112.7 59 112.7 59.1 112.7 59.2 112.7 59.3 112.7 59.45 112.7 59.55 112.7 59.65 112.7 59.8 112.7 59.9 112.7 60 112.7 60.15 112.7 60.25 112.7 60.35 112.7 60.45 112.7 60.6 112.7 60.7 112.7 60.8 112.7 60.95 112.7 61.05 112.7 61.15 112.7 61.3 112.7 61.4 112.7 61.5 112.7 61.65 112.7 61.75 112.7 61.85 112.7 61.95 112.7 62.1 112.7 62.2 112.7 62.3 112.7 62.45 112.7 62.55 112.7 62.65 112.7 62.8 112.7 62.9 112.7 63 112.7 63.1 112.7 63.25 112.7 63.35 112.7 63.45 112.7 63.6 112.7 63.7 112.7 63.8 112.7 63.95 112.7 64.05 112.7 64.15 112.7 64.3 112.7 64.4 112.7 64.5 112.7 64.6 112.7 64.75 112.7 64.85 112.7 64.95 112.7 65.1 112.7 65.2 112.7 65.3 112.7 65.45 112.7 65.55 112.7 65.65 112.7 65.8 112.7 65.9 112.7 66 112.7 66.1 112.7 66.25 112.7 66.35 112.7 66.45 112.7 66.6 112.7 66.7 112.7 66.8 112.7 66.95 112.7 67.05 112.7 67.15 112.7 67.25 112.7 67.4 112.7 67.5 112.7 67.6 112.7 67.75 112.7 67.85 112.7 67.95 112.7 68.1 112.7 68.2 112.7 68.3 112.7 68.45 112.7 68.55 112.7 68.65 112.7 68.75 112.7 68.9 112.7 69 112.7 69.1 112.7 69.25 112.7 69.35 112.7 69.45 112.7 69.6 112.7 69.7 112.7 69.8 112.7 69.9 112.7 70.05 112.7 70.15 112.7 70.25 112.7 70.4 112.7 70.5 112.7 70.6 112.7 70.75 112.7 70.85 112.7 70.95 112.7 71.1 112.7 71.2 112.7 71.3 112.7 71.4 112.7 71.55 112.7 71.65 112.7 71.75 112.7 71.9 112.7 72 112.7 72.1 112.7 72.25 112.7 72.35 112.7 72.45 112.7 72.6 112.7 72.7 112.7 72.8 112.7 72.9 112.7 73.05 112.7 73.15 112.7 73.25 112.7 73.4 112.7 73.5 112.7 73.6 112.7 73.75 112.7 73.85 112.7 73.95 112.7 74.05 112.7 74.2 112.7 74.3 112.7 74.4 112.7 74.55 112.7 74.65 112.7 74.75 112.7 74.9 112.7 75 112.7 75.1 112.7 75.25 112.7 75.35 112.7 75.45 112.7 75.55 112.7 75.7 112.7 75.8 112.7 75.9 112.7 76.05 112.7 76.15 112.7 76.25 112.7 76.4 112.7 76.5 112.7 76.6 112.7 76.75 112.7 76.85 112.7 76.95 112.7 77.05 112.7 77.2 112.7 77.3 112.65 77.4 112.6 77.55 112.6 77.65 112.6 77.75 112.6 77.9 112.6 78 112.6 78.1 112.6 78.2 112.6 78.35 112.6 78.45 112.6 78.55 112.6 78.7 112.6 78.8 112.6 78.9 112.6 79.05 112.6 79.15 112.6 79.25 112.6 79.4 112.6 79.5 112.6 79.6 112.6 79.7 112.6 79.85 112.6 79.95 112.6 80.05 112.6 80.2 112.6 80.3 112.55 80.4 112.55 80.55 112.55 80.65 112.55 80.75 112.55 80.85 112.55 81 112.55 81.1 112.55 81.2 112.55 81.35 112.55 81.45 112.55 81.55 112.55 81.7 112.55 81.8 112.55 81.9 112.5 82.05 112.45 82.15 112.45 82.25 112.45 82.35 112.45 82.5 112.45 82.6 112.45 82.7 112.45 82.85 112.45 82.95 112.45 83.05 112.45 83.2 112.45 83.3 112.45 83.4 112.45 83.55 112.4 83.65 112.4 83.75 112.3 83.8 112.25 83.85 112.2 83.7 112.15 83.6 112.15 83.5 112.15 83.35 112.15 83.25 112.15 83.15 112.15 83.05 112.15 82.9 112.2 82.8 112.25 82.7 112.25 82.55 112.25 82.45 112.2 82.35 112.15 82.2 112.15 82.1 112.15 82 112.15 81.85 112.15 81.75 112.15 81.65 112.15 81.55 112.15 81.4 112.15 81.3 112.15 81.2 112.15 81.05 112.15 80.95 112.15 80.85 112.15 80.7 112.15 80.6 112.121875 80.54375 112.1 80.5 111.3173828125 82.848828125 110.7 84.25 111.203125 84.63359375 111.3 85.25 111.428125 86.1359375 110.85 87.45 109.162890625 91.3435546875 105.6 93.8 105.0498046875 94.199609375 104.45 94.55 95.33984375 99.745703125 85.75 99.25 84.80390625 99.3 83.85 99.3 79.7103515625 99.3 73.45 96.95 72.934765625 96.7611328125 72.4 96.55 71.277734375 96.1095703125 70.1 95.6 61.3314453125 91.79140625 60.3 87.8 60.2 87.3142578125 60.2 86.8 60.2 85.55 60.35 85.2 60.65 84.45 61.8 84.5
L 61.8 81.45
Q 60.6 82.65 60.2 82.95 60.2 82.75 60.05 82.7
L 59.9 82.65 59.9 76.2 60.15 75.7
Q 60.15 75.653125 60.15 75.6 60.15 75.5 60.15 75.4 60.15 75.25 60.15 75.15 60.15 75.05 60.15 74.9 60.1 74.8 60.05 74.7 60.05 74.55 60.05 74.45 60.05 74.35 60.05 74.25 60.05 74.1 60.05 74 60.05 73.9 60.05 73.75 60.05 73.65 60.05 73.55 60.05 73.4 60.05 73.3 60.05 73.2 60.05 73.1 60.05 72.95 60.05 72.85 60.05 72.75 60.05 72.6 60.05 72.5 60.05 72.4 60.05 72.25 60.05 72.15 60.05 72.05 60.05 71.9 60.05 71.8 60.05 71.7 60.05 71.6 60.05 71.45 60.05 71.35 60.05 71.25 60.05 71.1 60.05 71 60.05 70.9 60.05 70.75 60.05 70.65 60.05 70.55 60.05 70.4 60.05 70.3 60.05 70.2 60.05 70.1 60.05 69.95 60.05 69.85 60.05 69.75 60.05 69.6 60.05 69.5 60.05 69.4 60.05 69.25 60.05 69.15 60.05 69.05 60.05 68.95 60.05 68.8 60.05 68.7 60.05 68.6 60.05 68.45 60.05 68.35 60.05 68.25 60.05 68.1 60.05 68 60.05 67.9 60.05 67.75 60.05 67.65 60.05 67.55 60.05 67.45 60.05 67.3 60.05 67.2 60.05 67.1 60.05 66.95 60.05 66.85 60.05 66.75 60.05 66.6 60.05 66.5 60.05 66.4 60.05 66.3 60.05 66.15 60.05 66.05 60.05 65.95 60.05 65.8 60.05 65.7 60.05 65.6 60.05 65.45 60.05 65.35 60.05 65.25 60.05 65.1 60.05 65 60.05 64.9 60.05 64.8 60.05 64.65 60.05 64.55 60.05 64.45 60.05 64.3 60.05 64.2 60.05 64.1 60.05 63.95 60.05 63.85 60.05 63.75 60.05 63.6 60.05 63.5 60.05 63.4 60.05 63.3 60.05 63.15 60.05 63.05 60.05 62.95 60.05 62.8 60.05 62.7 60.05 62.6 60.05 62.45 60.05 62.35 60.05 62.25 60.05 62.15 60.05 62 60.05 61.9 60.05 61.8 60.05 61.65 60.05 61.55 60.05 61.45 60.05 61.3 60.05 61.2 60.05 61.1 60.05 60.95 60.05 60.85 60.05 60.75 60.05 60.65 60.05 60.5 60.05 60.4 60.05 60.3 60.05 60.15 60.05 60.05 60.05 59.95 60.05 59.8 60.05 59.7 60.05 59.6 60.05 59.45 60.1 59.35 60.15 59.25 60.15 59.15 60.15 59 60.15 58.9 60.15 58.8 60.15 58.65 60.15 58.55 60.15 58.45 60.15 58.3 60.15 58.2 60.15 58.1 60.15 58 60.15 57.85 60.15 57.75 60.2 57.65 60.2 57.5 60.2 57.4 60.2 57.3359375 60.2 57.25 59.4322265625 56.2736328125 59.55 54.8 59.9 51.15 63.15 49.4 64.3 48.8 65.55 48.25 66.85 47.75 68.3 47.75 68.84140625 47.739453125 69.35 47.75 69.4822265625 47.4349609375 69.65 47.2 69.8740234375 46.901171875 70.35 46.7 66.1314453125 45.5859375 62 44 61.35 43.75 60.9 43.15
L 61.45 43
Q 65.6833984375 44.4552734375 70 45.45 70 45.3232421875 70 45.15 70 44.5322265625 70.05 44.15 69.154296875 43.93515625 68.3 43.65 60.5 41.3 60.5 37.95 60.5 34.6 68.3 32.2 75.0619140625 30.1662109375 84.25 29.9 84.5103515625 28.928125 84.85 28.05 84.4537109375 28.059765625 83.95 28.05 80.9625 28.6669921875 77.55 29.05 72.7 29.6 72.5 29.65 69.05 30.2 64.5 31.6 60.4 32.8 58.7 34.4 57.9 35.2 57.55 36.2 57.15 37.3 57.5 38.2 57.6630859375 38.5912109375 58.05 39.15 58.2453125 39.1109375 58.4 39.2 58.45625 39.25625 58.5 39.3 58.6671875 39.4671875 58.6 39.8 58.7078125 40.028515625 58.75 40.25
L 58.7 86.7
Q 59.225390625 86.8001953125 59.65 87.1 59.618359375 87.101953125 59.55 87.1 59.1509765625 87.1341796875 58.7 87.2
L 58.7 87.6
Q 59.55234375 89.9755859375 61.6 91.95 61.8755859375 92.2255859375 62.15 92.5 63.35 93.35 64.6 94.15 76.85 102.25 91.5 100.95
L 91.05 100.8
Q 92.2 100.55 93.4 100.35 99.740625 99.1087890625 105.25 96 107.966015625 94.47421875 110.45 92.5 110.7744140625 92.2255859375 111.05 91.95 112.9060546875 90.1845703125 113.7 88.05
L 114.4 87.7
Q 114.3865234375 87.6833984375 114.35 87.65 114.3248046875 87.658984375 114.3 87.65 114.2 87.6 114.45 87.45 114.744921875 87.3994140625 115 87.35
L 115.7 87 115.7 87.3
Q 116.7955078125 87.2763671875 117.85 87.5
L 118.9 87.75
Q 130.158984375 87.11640625 137.15 78.6 147 66.65 139.1 54.45 137.3 51.65 133.85 51.65 125.55 51.6 117.25 51.4 116.23046875 51.1783203125 115.45 50.65
L 115.55 51.5
Q 115.387109375 51.3337890625 115.2 51.1 114.9806640625 50.83203125 114.8 50.6 114.7794921875 50.6705078125 114.75 50.7 114.5 50.7 114.2 50.7 114.1 50.6 114 50.5 114 50.35 114 50.25 113.95 50.15 113.9 50 113.9 49.9 113.9 49.8
L 113.9 49.75 113.85 49.7 113.85 40.25
Q 113.9259765625 40.0408203125 114 39.85 114 39.72890625 114 39.65 114.05 39.55 114.05 39.4 114.12734375 39.3484375 114.2 39.3 114.23046875 39.248828125 114.25 39.2
L 114.25 39.25
Q 114.3267578125 39.2365234375 114.4 39.2 114.5 39.1 114.6 39.05 114.6447265625 39.05 114.65 39.05 115.0158203125 38.5689453125 115.15 38.2 115.5 37.3 115.1 36.2 114.75 35.2 113.95 34.4 112.25 32.8 108.15 31.6 103.6 30.2 100.15 29.65
M 114.45 55.25
Q 115.0830078125 54.6755859375 116.2 54.75 117.1009765625 54.9232421875 118.05 54.9 130.8455078125 52.8650390625 134.85 56.2 138.9013671875 59.544921875 139.05 63.35 139.65 80.2 122.85 82.6 120.5 83.05 118.05 82.8 116.8458984375 82.7201171875 115.7 82.3 114.4935546875 81.934375 114.4 80.8
L 113.9 80.45 113.85 55.05
Q 114.123828125 55.180859375 114.45 55.25
M 113.9 82.9
L 113.9 82.85
Q 113.9513671875 82.8875 114 82.9 113.95 82.92578125 113.9 82.9
M 137.45 54.8
Q 137.9 55.35 137.95 55.55 138.15 56.05 137.8 56.35 137.5 56.6 137 56.3
L 136.4 55.7
Q 135.7 55.1 135.5 54.85
L 134.9 53.95
Q 134.8 53.75 134.9 53.55 135.05 53.35 135.25 53.35
L 135.55 53.4
Q 135.75 53.3 135.75 53.2 136.7 53.75 137.1 54.35
L 137.45 54.8
M 115.75 79.75
Q 115.9220703125 80.04921875 116 80.4 116.05 80.7 116.4 80.9 117.23828125 81.373828125 118.05 81.35 126.018359375 81.4517578125 130.75 78.15 128.283984375 76.9455078125 125.15 75.8 120.7771484375 74.2400390625 115.8 73.1
L 115.75 79.75 Z"/>

<path fill="#F6FBFC" stroke="none" d="
M 52.35 80.15
Q 52.2 79.45 51.15 79.55 50.05 79.65 48.45 80.8 46.25 82.25 45.25 83.4 43.6 85.25 43.6 87.15 43.6 87.95 44 88.2 44.35 88.45 44.95 88.15 45.25 87.95 45.65 87.45 46.5 86.35 48.4 84.25
L 49.9 82.6
Q 50.65 81.75 51.3 81.35 52.45 80.65 52.35 80.15
M 137.95 55.55
Q 137.9 55.35 137.45 54.8
L 137.1 54.35
Q 136.7 53.75 135.75 53.2 135.75 53.3 135.55 53.4
L 135.25 53.35
Q 135.05 53.35 134.9 53.55 134.8 53.75 134.9 53.95
L 135.5 54.85
Q 135.7 55.1 136.4 55.7
L 137 56.3
Q 137.5 56.6 137.8 56.35 138.15 56.05 137.95 55.55 Z"/>

<path fill="#ABD1DC" stroke="none" d="
M 115.3 88.7
Q 114.51328125 90.710546875 112.8 92.5 101.1 102.45 85.9 102.4 71 102.4 59.8 92.5 57.737890625 90.3009765625 57 87.8 56.701953125 87.96484375 56.4 88.15 54.85 89.05 53.85 90.5 53.2 91.55 53.45 92.3 53.55 92.65 54.2 93.2
L 57 95.7
Q 55.85 95.55 54.15 94.25 54.244921875 94.3537109375 54.35 94.45 56.2 96.1 56.25 96.15
L 56.25 96.8
Q 55.35 96.8 53.05 96.95 50.75 97.1 50.5 97.1 49.2728515625 97.1 47.55 96.75 59.6904296875 100.8166015625 72.3 103 82.0498046875 104.15 91.55 104.15 94.38515625 104.15 97.25 103.95 105.5970703125 103.2125 113.8 101 120.2423828125 99.2671875 126.65 97.85 130.0271484375 96.60078125 132.45 95.25
L 132.45 94.35
Q 129.8 95.15 127.85 95.7 124.05 96.75 122.3 97.1
L 120.95 97.1
Q 120.8341796875 97.1576171875 120.7 97.2
L 120.6 97.1 120.15 97.1
Q 121.5 95.8 124.35 94.35 126.3 93.35 126.3 92.35 126.3 91.091015625 124.05 89.95
L 122.1 89.45
Q 121.244921875 89.241015625 120.5 89 117.873046875 89.18828125 115.3 88.7
M 85.75 35.95
Q 85.740234375 36.012109375 85.7 36.05 85.897265625 36.3212890625 86 36.65 86.15 37.1 86.15 38.1 86.15 39.2 85.95 40.05 85.9376953125 40.1240234375 85.9 40.25 86.5384765625 39.4435546875 87 39.15 87.45 38.9 88 38.9 88.55 38.9 88.9 39.2
L 89.4 39.65
Q 89.8 39.85 90.5 39.65 91.8 39.2 92.3 39.75 92.65 40.15 92.55 40.9 92.45 41.95 92.5 42.2 93.65 42.7 94 44.05 94.0798828125 44.3466796875 94.1 44.6 100.3013671875 44.1626953125 105.2 42.8 112.75 40.7 112.75 37.75 112.75 34.8 105.2 32.7 98.0337890625 30.706640625 88.05 30.6 86.721875 33.148828125 85.75 35.95
M 94.45 34.45
Q 93.95 34.2 94 33.75 94.1 33.45 94.8 33.2 100.1 32.15 105.1 34.05 105.75 34.3 108.2 35.4 109.4 36.05 109.65 36.5 109.9 36.95 109.85 37.4 109.8 37.9 109.4 38.1 108.8 38.4 107.9 37.9 100.45 34.35 95.3 34.5 94.8 34.6 94.45 34.45
M 83.05 36.6
Q 83.2 36.4 83.5 35.95
L 83.9 35.6
Q 83.691796875 32.8498046875 84.1 30.6 75.30859375 30.8896484375 68.8 32.7 61.25 34.8 61.25 37.75 61.25 40.7 68.8 42.8 69.639453125 43.0333984375 70.5 43.25 70.8423828125 42.9583984375 71.3 43.05 70.8 42.1 71.8 41.1 72.4 40.6 73.75 40.3 73.55 39.15 73.9 38.7 74.45 38 76.15 38.4 75.85 38 76.1 37.45 76.3 36.95 76.8 36.75 77.7 36.4 78.7 37.2 79.15 37.55 80 38.85
L 81.35 40.95
Q 81.3943359375 41.0708984375 81.4 41.2 81.4412109375 41.1203125 81.45 41.05 81.6 40.15 81.7 39.8 82.15 38.75 82.25 38.15 82.25 37.4 82.4 37.15 82.45 37.1 83.05 36.6
M 68.05 36.3
Q 67.75 36.4 67.1 36.3 67 36.25 67 36.1 67.05 35.95 67.15 35.85 67.25 35.8 67.6 35.65
L 69 35.2
Q 69.35 35.15 70 34.9
L 70.1 34.8 70.85 34.9 70.95 35.15 68.05 36.3 Z"/>

<path fill="#F4F2DA" stroke="none" d="
M 109.8 52.1
Q 108.35 50.45 106.35 50 100.75 49.45 95.2 49.8 94.1689453125 49.8349609375 93.1 49.85 92.64609375 50.07890625 92 50.2 91.8025390625 50.241796875 91.6 50.25
L 93.2 51.2
Q 93.8 51.65 94.05 52.1 94.35 52.8 93.8 53.2 93.55 53.4 93.05 53.4 90.95 53.4 90.25 53.15 89.4 52.85 88.3 51.95 87.45 51.35 86.85 50.75
L 86.65 50.4
Q 86.7 50.5103515625 86.7 50.65 86.7 51.15 86.75 51.3 86.8 51.45 87.6 52.1 88.1 52.55 88.75 53.9 89.5 54.65 89.6 54.85 89.8 55.35 89.7 56.5 89.8 57.25 89.7 57.35 89.5 57.65 89 57.65 87.85 57.85 87.05 57.5 86.05 57 85.4 55.4 85.318359375 55.160546875 85.25 54.95 85.3068359375 55.318359375 85.4 55.8 85.6 57.05 85.5 57.8 85.4 58.5 85.05 58.75 84.8 58.95 84.1 58.95
L 82.3 58.85
Q 81.6 58.75 81.45 58.5 81.35 58.3 81.35 57.9
L 81.35 54 80.95 56
Q 80.6 57.55 80.45 57.9 80.25 58.45 79.95 58.55 79.75 58.7 79.3 58.7 77.9 58.7 77.45 58.45 76.2 57.8 76.3 56.25 76.3 55.953515625 76.35 55.55 76.163671875 55.802734375 75.95 56 75.15 56.65 74.8 56.75 73.95 57.05 72.75 56.4 72.25 56.1 72.15 55.85 72.05 55.55 72.15 54.95 72.05 54.2 72.1 53.8 72.25 53.4 72.9 52.85
L 76.4 50.1
Q 76.574609375 49.9603515625 76.75 49.8
L 73.9 50.55
Q 72.1 51.05 71.15 50.95 70.1 50.85 69.65 50.35 69.1626953125 49.8251953125 69.2 48.8 67.2818359375 48.9509765625 65.4 49.4 64.35 49.65 63.4 50.2 60.5 51.9 60.35 55.05 60.3384765625 55.4513671875 60.4 55.8 60.467578125 55.8 60.5 55.8 60.55 55.9 60.6 56 60.6 56.15 60.6 56.25 60.637109375 56.3240234375 60.65 56.4 61.022265625 57.1384765625 61.9 57.55 66.95 59.75 72.45 61.35 75.55 62.25 78.8 62.6 81.1 62.7 83.4 62.7 89.45 62.7 95.55 62.75 101.05 63.15 105.95 61.05 108.3 60.05 110.35 58.3 112.8 56.3 111.1 53.75 110.5 52.9 109.8 52.1
M 101.15 90.2
Q 98.75 88.5 96.45 88.5 89.8 88.5 83.55 89.7 78.6 89.95 76.3 90.25 72.3 90.7 72.2 93.45 68.635546875 93.2859375 62.45 89.25 64.3712890625 91.28203125 66.75 92.6 69.487109375 94.142578125 72.2 95.25 72.2 95.087109375 72.2 94.95 72.2 93.8572265625 73.15 93 73.45 92.6 74.5 92.05 76.7 91.15 80.65 90.3 82.1 90 82.7 89.95
L 97.4 89.95
Q 99.4 89.95 100.45 90.15 100.971875 90.244921875 101.4 90.4 101.293359375 90.3005859375 101.15 90.2
M 93.35 79.8
L 99.45 80.75
Q 102.45 81.25 104.1 80.8 104.8 80.65 105.25 80.4 106.35 79.85 108.35 77.75 108.85 77.25 108.9 76.9 109.1 76.25 108.6 75.85 108.2 75.35 107.55 75.45 107.25 75.45 106.75 75.65 104.55 76.4 101.9 77.05 99.8 77.55 98.7 77.7 96.5 78 93.15 78 92.15 78 91.9 78.45 91.65 79 92.25 79.45 92.65 79.7 93.35 79.8 Z"/>

<path fill="#FCCE41" stroke="none" d="
M 85.75 46.05
Q 85.566796875 45.40390625 85.1 44.85 85.0267578125 44.7767578125 84.9 44.65 84 43.75 82.7 43.75 81.4 43.75 80.45 44.65 79.98515625 45.16484375 79.75 45.75 79.55 46.28828125 79.55 46.9 79.55 47.049609375 79.55 47.2 79.6564453125 48.3064453125 80.45 49.1 80.803125 49.453125 81.15 49.65 81.8611328125 50.05 82.7 50.05 83.2876953125 50.05 83.8 49.85 84.4181640625 49.6318359375 84.9 49.1 85.530859375 48.519140625 85.75 47.75 85.85 47.3484375 85.85 46.9 85.85 46.4478515625 85.75 46.05
M 82.65 48.8
L 82.4 48.85 82.15 49
Q 81.95 49.1 81.65 49.05 81.35 49 81.25 48.8 81.1 48.6 81.1 47.85
L 81.4 47.85
Q 81.5 48.4 81.8 48.5 82.45 48.2 83.95 48.25
L 84.1 48.5
Q 84 48.65 83.6 48.75
L 82.65 48.8 Z"/>

<path fill="#E5DBC5" stroke="none" d="
M 88.2 90.9
Q 84.8 90.95 83.65 91 81.05 91.15 79.1 91.55 76.4 92.1 74 93.25 73.6 93.35 73.6 93.65 73.6 93.75 73.8 94.05 73.9 94.3 73.8 94.45
L 73.4 94.45
Q 73.1 94.25 73 93.8 72.95 93.4 73.15 93 72.2 93.8572265625 72.2 94.95 72.2 95.087109375 72.2 95.25 88.7328125 101.9375 104.75 92.45 104.202734375 91.9375 103.35 91.5 103.4951171875 91.685546875 103.55 91.85 103.65 92.3 103.3 92.45 102.35 91.5 100.3 91.2 98.5 90.9 94.75 90.9
L 88.2 90.9 Z"/>

<path fill="#E6E4C6" stroke="none" d="
M 112 58.7
Q 112 58.6 112 58.5 112 58.35 112 58.25 112 58.1798828125 112 58.05 111.2830078125 59.2486328125 110.05 60.05 106.8 62.15 103.35 63.25 100.5 64 97.4 63.9 90.85 63.75 84.3 63.85 78.55 63.95 73 62.4 67.05 60.85 61.7 58.35 61.053515625 58.0611328125 60.6 57.65 60.6 57.75625 60.6 57.85 60.65 58 60.65 58.1 60.65 58.2 60.65 58.3 60.65 58.45 60.65 58.55 60.65 58.65 60.65 58.8 60.65 58.9 60.65 59 60.65 59.15 60.65 59.25 60.65 59.35 60.65 59.45 60.7 59.6 60.75 59.7 60.75 59.8 60.75 59.95 60.75 60.05 60.75 60.15 60.75 60.3 60.75 60.4 60.75 60.5 60.75 60.65 60.75 60.75 60.75 60.85 60.75 60.95 60.75 61.1 60.75 61.2 60.75 61.3 60.75 61.45 60.75 61.55 60.75 61.65 60.75 61.8 60.75 61.9 60.75 62 60.75 62.15 60.75 62.25 60.75 62.35 60.75 62.45 60.75 62.6 60.75 62.7 60.75 62.8 60.75 62.95 60.75 63.05 60.75 63.15 60.75 63.3 60.75 63.4 60.75 63.5 60.75 63.6 60.75 63.75 60.75 63.85 60.75 63.95 60.75 64.1 60.75 64.2 60.75 64.3 60.75 64.45 60.75 64.55 60.75 64.65 60.75 64.8 60.75 64.9 60.75 65 60.75 65.1 60.75 65.25 60.75 65.35 60.75 65.45 60.75 65.6 60.75 65.7 60.75 65.8 60.75 65.95 60.75 66.05 60.75 66.15 60.75 66.3 60.75 66.4 60.75 66.5 60.75 66.6 60.75 66.75 60.75 66.85 60.75 66.95 60.75 67.1 60.75 67.2 60.75 67.3 60.75 67.45 60.75 67.55 60.75 67.65 60.75 67.75 60.75 67.9 60.75 68 60.75 68.1 60.75 68.25 60.75 68.35 60.75 68.45 60.75 68.6 60.75 68.7 60.75 68.8 60.75 68.95 60.75 69.05 60.75 69.15 60.75 69.25 60.75 69.4 60.75 69.5 60.75 69.6 60.75 69.75 60.75 69.85 60.75 69.95 60.75 70.1 60.75 70.2 60.75 70.3 60.75 70.4 60.75 70.55 60.75 70.65 60.75 70.75 60.75 70.9 60.75 71 60.75 71.1 60.75 71.25 60.75 71.35 60.75 71.45 60.75 71.6 60.75 71.7 60.75 71.8 60.75 71.9 60.75 72.05 60.75 72.15 60.75 72.25 60.75 72.4 60.75 72.5 60.75 72.6 60.75 72.75 60.75 72.85 60.75 72.95 60.75 73.1 60.75 73.2 60.75 73.3 60.75 73.4 60.75 73.55 60.75 73.65 60.75 73.75 60.75 73.9 60.75 74 60.75 74.1 60.75 74.25 60.75 74.35 60.75 74.45 60.75 74.55 60.75 74.7 60.7 74.8 60.65 74.9 60.65 75.05 60.65 75.15 60.65 75.25 60.65 75.4 60.65 75.5 60.65 75.6 60.65 75.75 60.65 75.85 60.65 75.95 60.65 76.05 60.65 76.2 60.65 76.3 60.65 76.4 60.65 76.55 60.65 76.65 60.65 76.75 60.65 76.9 60.65 77 60.65 77.1 60.65 77.2 60.65 77.35 60.6 77.45 60.6 77.55 60.6 77.7 60.6 77.8 60.6 77.9 60.55 78.05 60.5 78.15 60.5 78.25 60.5 78.4 60.5 78.5 60.5 78.6 60.5 78.7 60.5 78.85 60.5 78.95 60.5 79.05 60.5 79.2 60.5 79.3 60.5 79.4 60.5 79.55 60.5 79.65 60.5 79.75 60.5 79.9 60.5 80 60.45 80.05 60.35 80.15 60.3 80.05 60.2 80 60.2 79.9 60.2 79.75 60.2 79.65 60.2 79.55 60.2 79.4 60.2 79.3 60.2 79.2 60.2 79.05 60.2 78.95 60.2 78.85 60.2 78.7 60.2 78.6 60.25 78.5 60.3 78.4 60.25 78.25 60.2 78.15 60.2 78.05 60.2 77.9 60.2 77.8 60.2 77.7 60.2 77.55 60.2 77.45 60.15 77.35 60.15 77.2 60.15 77.1 60.15 77 60.15 76.9 60.15 76.75 60.15 76.65 60.15 76.55 60.15 76.4 60.15 76.3 60.15 76.2 60.15 76.05 60.15 75.95 60.15 75.85 60.15 75.785546875 60.15 75.7
L 59.9 76.2 59.9 82.65 60.05 82.7
Q 60.2 82.75 60.2 82.95 60.6 82.65 61.8 81.45
L 61.8 84.5
Q 60.65 84.45 60.35 85.2 60.2 85.55 60.2 86.8 60.2 87.3142578125 60.3 87.8 61.3314453125 91.79140625 70.1 95.6 71.277734375 96.1095703125 72.4 96.55 72.369140625 96.4216796875 72.35 96.3 68.8896484375 95.0685546875 65.7 93.25 62.338671875 91.3060546875 60.95 88.25 60.658984375 87.5697265625 60.45 86.8 61.378515625 88.1390625 62.45 89.25 68.635546875 93.2859375 72.2 93.45 72.3 90.7 76.3 90.25 78.6 89.95 83.55 89.7 89.8 88.5 96.45 88.5 98.75 88.5 101.15 90.2 101.293359375 90.3005859375 101.4 90.4 102.4322265625 90.7189453125 103.15 91.3 103.2265625 91.3638671875 103.3 91.4 103.3361328125 91.4763671875 103.35 91.5 104.202734375 91.9375 104.75 92.45 104.9365234375 92.3390625 105.1 92.2 105.362109375 91.99921875 105.6 91.75 108.5685546875 88.774609375 110.45 84.75 110.496484375 84.4275390625 110.5 84.1 110.6099609375 84.164453125 110.7 84.25 111.3173828125 82.848828125 112.1 80.5 112.071875 80.44375 112.05 80.4 112.05 80.25 112.05 80.15 112.05 80.05 112.05 79.9 112.05 79.8 112.05 79.7 112.05 79.55 112.05 79.45 112.05 79.35 112.05 79.2 112.05 79.1 112.05 79 112.05 78.9 112.05 78.75 112.05 78.65 112.05 78.55 112.05 78.4 112.05 78.3 112.05 78.2 112.05 78.05 112.05 77.95 112.05 77.85 112.05 77.7 112 77.6 112 77.5 112 77.4 112 77.25 112 77.15 112 77.05 112 76.9 112 76.8 112 76.7 112 76.55 112 76.45 112 76.35 112 76.25 112 76.1 112 76 112 75.9 112 75.75 112 75.65 112 75.55 112 75.4 112 75.3 112 75.2 112 75.05 112 74.95 112 74.85 112 74.75 112 74.6 112 74.5 112 74.4 112 74.25 112 74.15 112 74.05 112 73.9 112 73.8 112 73.7 112 73.55 112 73.45 112 73.35 112 73.25 112 73.1 112 73 112 72.9 112 72.75 112 72.65 112 72.55 112 72.4 112 72.3 112 72.2 112 72.1 112 71.95 112 71.85 112 71.75 112 71.6 112 71.5 112 71.4 112 71.25 112 71.15 112 71.05 112 70.9 112 70.8 112 70.7 112 70.6 112 70.45 112 70.35 112 70.25 112 70.1 112 70 112 69.9 112 69.75 112 69.65 112 69.55 112 69.45 112 69.3 112 69.2 112 69.1 112 68.95 112 68.85 112 68.75 112 68.6 112 68.5 112 68.4 112 68.25 112 68.15 112 68.05 112 67.95 112 67.8 112 67.7 112 67.6 112 67.45 112 67.35 112 67.25 112 67.1 112 67 112 66.9 112 66.75 112 66.65 112 66.55 112 66.45 112 66.3 112 66.2 112 66.1 112 65.95 112 65.85 112 65.75 112 65.6 112 65.5 112 65.4 112 65.3 112 65.15 112 65.05 112 64.95 112 64.8 112 64.7 112 64.6 112 64.45 112 64.35 112 64.25 112 64.1 112 64 112 63.9 112 63.8 112 63.65 112 63.55 112 63.45 112 63.3 112 63.2 112 63.1 112 62.95 112 62.85 112 62.75 112 62.65 112 62.5 112 62.4 112 62.3 112 62.15 112 62.05 112 61.95 112 61.8 112 61.7 112 61.6 112 61.45 112 61.35 112 61.25 112 61.15 112 61 112 60.9 112 60.8 112 60.65 112 60.55 112 60.45 112 60.3 112 60.2 112 60.1 112 59.95 112 59.85 112 59.75 112 59.65 112 59.5 112 59.4 112 59.3 112 59.15 112 59.05 112 58.95 112 58.8 112 58.7
M 101.85 73.7
L 102.15 74
Q 102.25 74.25 101.8 74.35
L 98.7 75.05
Q 94.5 76.05 92.35 75.7
L 92.4 75.45
Q 94.35 75.45 98.25 74.55
L 101.85 73.7
M 111.4 68.4
Q 110.5 69.5 108.25 70.6 102.95 73.05 97.3 73.8 97.3 73.45 98.15 73.2 105.25 72.15 111.4 68.4
M 99.45 80.75
L 93.35 79.8
Q 92.65 79.7 92.25 79.45 91.65 79 91.9 78.45 92.15 78 93.15 78 96.5 78 98.7 77.7 99.8 77.55 101.9 77.05 104.55 76.4 106.75 75.65 107.25 75.45 107.55 75.45 108.2 75.35 108.6 75.85 109.1 76.25 108.9 76.9 108.85 77.25 108.35 77.75 106.35 79.85 105.25 80.4 104.8 80.65 104.1 80.8 102.45 81.25 99.45 80.75
M 61.15 69.25
Q 61.15 69.1 61.35 69.05 61.55 69 61.7 69.1 67.55 72.15 74.35 72.4 75.1 72.4 75.4 72.6 69.3 73.1 61.15 69.25
M 78.2 74
Q 78.3 74.1 78.15 74.2
L 77.9 74.25 73.5 73.85 73.5 73.7
Q 73.6 73.8 73.6 73.6
L 76.65 73.75
Q 77.7 73.85 78.2 74 Z"/>
</g>

<g id="Layer0_3_FILL">
<path fill="#3B3D35" stroke="none" d="
M 106 132.7
Q 106.1 132.75 106.3 132.75 106.5 132.75 106.65 132.7
L 107.45 132.3
Q 107.7 132.2 108.05 132.2 108.6 132.2 108.9 132.5 109.15 132.8 109.15 133.5
L 109.15 133.85
Q 108.4 133.9 107.85 134 107.25 134.1 106.8 134.2 106.35 134.35 106.05 134.55 105.75 134.75 105.55 135 105.4 135.2 105.3 135.45 105.2 135.7 105.2 135.95 105.2 136.4 105.35 136.75 105.5 137.1 105.75 137.3 106 137.55 106.35 137.65 106.7 137.75 107.15 137.75
L 107.8 137.7 108.85 137.25 109.3 136.85 109.45 137.3
Q 109.55 137.5 109.65 137.6 109.75 137.65 110 137.65
L 110.7 137.65 110.7 133.5
Q 110.7 132.9 110.55 132.45 110.4 132 110.05 131.65 109.75 131.3 109.3 131.1 108.85 130.95 108.25 130.95 106.65 130.95 105.55 131.95
L 105.8 132.5 106 132.7
M 107.25 135.2
Q 107.55 135.05 108 134.95 108.5 134.85 109.15 134.85
L 109.15 135.95
Q 108.85 136.3 108.45 136.5 108.1 136.65 107.65 136.65 107.25 136.65 107 136.5 106.75 136.3 106.75 135.9 106.75 135.65 106.85 135.5 107 135.3 107.25 135.2
M 113.75 128.1
L 112.15 128.1 112.15 137.65 113.75 137.65 113.75 128.1
M 87.5 131.05
L 85.9 131.05 85.9 137.65 87.5 137.65 87.5 131.05
M 86.65 128.1
Q 86.45 128.1 86.3 128.2
L 85.95 128.4 85.75 128.75
Q 85.65 128.9 85.65 129.15 85.65 129.35 85.75 129.5
L 85.95 129.85 86.3 130.05
Q 86.45 130.15 86.65 130.15 86.9 130.15 87.05 130.05
L 87.4 129.85 87.6 129.5
Q 87.7 129.35 87.7 129.15 87.7 128.9 87.6 128.75
L 87.4 128.4 87.05 128.2
Q 86.9 128.1 86.65 128.1
M 96.9 131.05
L 95.3 131.05 95.3 137.65 96.9 137.65 96.9 131.05
M 100.8 131.2
L 99.9 131.85 99.8 131.35
Q 99.7 131.05 99.4 131.05
L 98.45 131.05 98.45 137.65 100 137.65 100 132.9
Q 100.35 132.55 100.7 132.35 101.05 132.2 101.45 132.2 102.05 132.2 102.3 132.5 102.6 132.85 102.6 133.45
L 102.6 137.65 104.2 137.65 104.2 133.45
Q 104.2 132.9 104.05 132.45 103.9 132 103.6 131.65 103.35 131.3 102.9 131.15 102.5 130.95 101.95 130.95
L 101.35 131 100.8 131.2
M 93.8 132.45
L 94.25 131.85
Q 93.8 131.45 93.25 131.2 92.65 130.95 91.95 130.95 91.15 130.95 90.55 131.2 89.95 131.45 89.55 131.9 89.15 132.35 88.95 133 88.75 133.6 88.75 134.35 88.75 135.15 88.95 135.8 89.2 136.4 89.6 136.85 90 137.3 90.55 137.5 91.1 137.75 91.7 137.75
L 92.4 137.7
Q 92.75 137.65 93.1 137.5 93.4 137.4 93.7 137.2 94.05 136.95 94.3 136.65
L 93.85 136.1
Q 93.75 135.95 93.55 135.95 93.4 135.95 93.3 136.05
L 93 136.25 92.6 136.45
Q 92.35 136.55 92 136.55 91.6 136.55 91.3 136.4 91 136.25 90.8 135.95 90.6 135.7 90.45 135.3 90.35 134.85 90.35 134.35 90.35 133.85 90.45 133.45 90.55 133.05 90.75 132.75 91 132.45 91.3 132.3 91.6 132.15 92.05 132.15 92.35 132.15 92.6 132.25
L 93.45 132.65 93.65 132.6 93.8 132.45
M 96.8 128.4
L 96.45 128.2
Q 96.3 128.1 96.05 128.1 95.85 128.1 95.7 128.2
L 95.35 128.4 95.15 128.75
Q 95.05 128.9 95.05 129.15 95.05 129.35 95.15 129.5
L 95.35 129.85 95.7 130.05
Q 95.85 130.15 96.05 130.15 96.3 130.15 96.45 130.05
L 96.8 129.85 97 129.5
Q 97.1 129.35 97.1 129.15 97.1 128.9 97 128.75
L 96.8 128.4
M 64.25 130.95
L 63.7 131 63.25 131.2 62.8 131.5 62.45 131.85 62.35 131.35
Q 62.25 131.05 61.95 131.05
L 61 131.05 61 137.65 62.55 137.65 62.55 132.8
Q 62.85 132.55 63.15 132.35 63.45 132.2 63.75 132.2 64.3 132.2 64.55 132.5 64.8 132.8 64.8 133.45
L 64.8 137.65 66.4 137.65 66.4 133.45
Q 66.4 133.15 66.5 132.9 66.6 132.65 66.75 132.5 66.9 132.35 67.1 132.25 67.35 132.2 67.6 132.2 68.1 132.2 68.4 132.5 68.65 132.8 68.65 133.45
L 68.65 137.65 70.25 137.65 70.25 133.45
Q 70.25 132.85 70.1 132.4 69.95 131.95 69.65 131.6 69.35 131.3 68.95 131.1 68.5 130.95 67.95 130.95
L 67.35 131
Q 67.05 131.1 66.75 131.25 66.5 131.4 66.25 131.6 66 131.85 65.85 132.2 65.65 131.65 65.25 131.3 64.85 130.95 64.25 130.95
M 79.85 131.2
Q 79.35 131.45 78.95 131.9 78.6 132.4 78.4 133 78.2 133.65 78.2 134.35 78.2 135.2 78.35 135.8 78.55 136.45 78.85 136.85 79.2 137.3 79.65 137.5 80.1 137.75 80.65 137.75 81.3 137.75 81.85 137.45 82.35 137.2 82.75 136.75
L 82.9 137.35
Q 82.95 137.65 83.3 137.65
L 84.25 137.65 84.25 128.1 82.65 128.1 82.65 131.55
Q 82.35 131.3 82 131.1 81.6 130.95 81.05 130.95 80.4 130.95 79.85 131.2
M 80.25 132.7
Q 80.45 132.4 80.75 132.3 81.05 132.15 81.4 132.15 81.75 132.15 82.1 132.3 82.4 132.4 82.65 132.75
L 82.65 135.7
Q 82.35 136.05 82 136.3 81.65 136.5 81.2 136.5 80.85 136.5 80.6 136.4 80.35 136.25 80.2 136 80 135.75 79.95 135.35 79.85 134.95 79.85 134.35 79.85 133.8 79.95 133.4 80.05 132.95 80.25 132.7
M 75.65 131.15
Q 75.1 130.95 74.5 130.95 73.75 130.95 73.15 131.2 72.6 131.45 72.15 131.9 71.75 132.35 71.55 132.95 71.35 133.55 71.35 134.2 71.35 135.1 71.6 135.75 71.8 136.4 72.25 136.85 72.7 137.3 73.3 137.5 73.9 137.75 74.55 137.75
L 75.3 137.7 76 137.5
Q 76.35 137.4 76.7 137.2 77.05 136.95 77.3 136.65
L 76.85 136.1
Q 76.75 135.95 76.55 135.95 76.4 135.95 76.25 136.05
L 75.4 136.45
Q 75.1 136.5 74.7 136.5 74.35 136.5 74 136.4 73.7 136.3 73.45 136.05 73.25 135.8 73.1 135.45 72.95 135.05 72.9 134.55
L 77 134.55
Q 77.2 134.55 77.3 134.4 77.35 134.3 77.35 133.95 77.35 133.2 77.15 132.65 76.95 132.1 76.55 131.75 76.15 131.35 75.65 131.15
M 75.6 132.55
Q 75.75 132.75 75.85 133 75.95 133.3 75.95 133.6
L 72.95 133.6
Q 73.05 132.85 73.45 132.5 73.85 132.1 74.55 132.1 74.9 132.1 75.15 132.2 75.4 132.35 75.6 132.55
M 49.8 132.45
Q 49.65 132 49.35 131.65 49.1 131.3 48.65 131.15 48.25 130.95 47.7 130.95 47.1 130.95 46.6 131.2 46.15 131.4 45.75 131.75
L 45.75 128.1 44.2 128.1 44.2 137.65 45.75 137.65 45.75 132.9
Q 46.1 132.55 46.45 132.35 46.8 132.2 47.2 132.2 47.8 132.2 48.05 132.5 48.35 132.85 48.35 133.45
L 48.35 137.65 49.95 137.65 49.95 133.45
Q 49.95 132.9 49.8 132.45
M 43.15 129.45
Q 42.6 128.9 41.8 128.6 41 128.25 40 128.25 38.95 128.25 38.1 128.6 37.3 128.95 36.65 129.6 36.05 130.2 35.75 131.1 35.4 131.95 35.4 133 35.4 134.05 35.7 134.9 36 135.8 36.6 136.4 37.2 137.05 38 137.4 38.85 137.75 39.9 137.75 41.05 137.75 41.85 137.4 42.7 137 43.25 136.3
L 42.55 135.55
Q 42.45 135.45 42.3 135.45
L 42.15 135.5 42.05 135.6 41.6 135.9 41.15 136.1 40.65 136.25 40 136.3
Q 39.4 136.3 38.9 136.05 38.35 135.85 38 135.45 37.6 135 37.4 134.4 37.15 133.8 37.15 133 37.15 132.2 37.35 131.6 37.55 131 37.95 130.6 38.3 130.15 38.85 129.95 39.35 129.7 40 129.7
L 41.1 129.9 41.8 130.25 42 130.4 42.2 130.45 42.4 130.4 42.55 130.25 43.15 129.45
M 55 131.1
Q 54.55 130.95 53.95 130.95 52.35 130.95 51.25 131.95
L 51.5 132.5 51.7 132.7
Q 51.8 132.75 52 132.75 52.2 132.75 52.35 132.7
L 53.15 132.3
Q 53.4 132.2 53.75 132.2 54.3 132.2 54.6 132.5 54.85 132.8 54.85 133.5
L 54.85 133.85
Q 54.1 133.9 53.55 134 52.95 134.1 52.5 134.2 52.05 134.35 51.75 134.55 51.45 134.75 51.25 135 51.1 135.2 51 135.45 50.9 135.7 50.9 135.95 50.9 136.4 51.05 136.75 51.2 137.1 51.45 137.3 51.7 137.55 52.05 137.65 52.4 137.75 52.85 137.75
L 53.5 137.7 54.55 137.25 55 136.85 55.15 137.3
Q 55.25 137.5 55.35 137.6 55.45 137.65 55.7 137.65
L 56.4 137.65 56.4 133.5
Q 56.4 132.9 56.25 132.45 56.1 132 55.75 131.65 55.45 131.3 55 131.1
M 52.55 135.5
Q 52.7 135.3 52.95 135.2 53.25 135.05 53.7 134.95 54.2 134.85 54.85 134.85
L 54.85 135.95
Q 54.55 136.3 54.15 136.5 53.8 136.65 53.35 136.65 52.95 136.65 52.7 136.5 52.45 136.3 52.45 135.9 52.45 135.65 52.55 135.5
M 54.1 128.35
Q 54 128.45 53.9 128.6
L 53 130.15 53.95 130.15 54.2 130.1 54.45 129.95 56.05 128.25 54.5 128.25
Q 54.25 128.25 54.1 128.35 Z"/>
</g>
</defs>

<g transform="matrix( 1, 0, 0, 1, -17,-10.15) ">
<use xlink:href="#Layer0_0_FILL"/>
</g>

<g transform="matrix( 1.0716400146484375, 0, 0, 1.0716400146484375, -22.1,-6.85) ">
<use xlink:href="#Layer0_1_FILL"/>
</g>

<g transform="matrix( 1, 0, 0, 1, -17,-10.15) ">
<use xlink:href="#Layer0_2_FILL"/>
</g>

<g transform="matrix( 1, 0, 0, 1, 0,0) ">
<use xlink:href="#Layer0_3_FILL"/>
</g>
</svg>
