
<svg xmlns="http://www.w3.org/2000/svg" version="1.1" xmlns:xlink="http://www.w3.org/1999/xlink" preserveAspectRatio="none" x="0px" y="0px" width="150px" height="155px" viewBox="0 0 150 155">
<defs>
<g id="Layer0_0_MEMBER_0_FILL">
<path fill="#B8BE79" stroke="none" d="
M 21.5 19.95
L 21.5 157.8 159.35 157.8 159.35 19.95 21.5 19.95 Z"/>
</g>

<g id="Layer0_0_MEMBER_2_FILL">
<path fill="#FCD0C7" stroke="none" d="
M 516.25 67.65
L 516.25 82.4
Q 524.9 83.35 533.35 82.25
L 539.6 81.35
Q 542.99921875 80.916015625 548.3 80.8 544.5693359375 77.47578125 542.3 75.75 538.1 72.55 535.1 72.1 531.2 71.95 527.75 71.3 523.024609375 70.3697265625 516.25 67.65
M 596.75 66.9
Q 596 67.4 595.75 67.75 595.4158203125 68.3228515625 595.45 69.6 596.333984375 70.125390625 597.3 70.7
L 598.3 69.8
Q 598.7 69.5 598.7 69.15 598.7 69 598.45 68.55 598.25 68.2 598.4 68.05 597.55 67.45 596.75 66.9
M 593.3 64.75
L 593.25 64.75
Q 593.05 65.15 592.65 65.65
L 592.45 66.05 591.35 67
Q 591.25 66.8 591.45 66.4
L 591.95 66
Q 592.15 65.7 592.45 65.1 592.8 64.65 592.85 64.55 590.95 63.65 587.4 62.3 586.6 62.05 586 61.85 585.85 62 585.75 62.3 585.6 62.95 585.6 63 585.55 63.1 585.2 63.45
L 584.6 63.85 584.25 64
Q 584.5 63.5 585.3 62.7
L 585.8 61.8
Q 585.5 61.7 585.3 61.65
L 585.2 61.7
Q 584.5 62.75 584 63.05 584 62.8 584.25 62.55
L 585.05 61.55
Q 584.5 61.4 584.2 61.35 583.85 61.3 580.45 61.1 578.15 60.95 576.8 60.3
L 575.85 59.75
Q 575.25 59.45 575 59.25
L 573.7 58.5
Q 573.2 58.35 572.9 58.05
L 572.95 58.05
Q 572.85 57.95 572.8 57.85 572.55 57.6 572.8 57.3 573.05 57.1 573.45 57.3 573.6 57.35 573.75 57.45 575.6 56.3 577.8 56.75 578.6 56.9 580.2 57.55 581.75 58.15 582.6 58.3 583.95 58.5 585.15 57.8 585.8841796875 57.310546875 586.15 56.65 586.3193359375 56.2658203125 586.3 55.8 585 55.85 583.4 54.9
L 583.25 55.2 583.2 55.9 583.25 56.35
Q 583.4 56.65 584.05 56.75
L 584.65 56.9
Q 585.05 56.9 585.15 57.15 584 57.65 583 57.05
L 582.65 56.8
Q 582.55 56.65 582.55 56.2
L 582.6 55.2
Q 582.6 54.9927734375 582.65 54.75 582.684765625 54.707421875 582.7 54.65 582.7193359375 54.58203125 582.75 54.5 581.1 53.4 580.2 52.9 580.15 53.05 580.15 53.25 580.2169921875 53.5853515625 580.25 53.85 580.3865234375 54.5939453125 580.35 54.85 580.35 55.25 580.05 55.45 580.05 54.75 580 54.4
L 579.85 53.65
Q 579.75 53.25 579.8 52.7 579.25 52.45 578.6 52.25
L 579.55 55.2
Q 579.6353515625 55.6689453125 579.4 55.85 579.394140625 55.9205078125 579.35 55.95
L 579.3 55.9
Q 579.2 55.8732421875 579.2 55.65
L 579.2 55.3 578.95 54.75 578.85 54.25
Q 578.6626953125 53.819140625 578.5 53.45 577.5712890625 53.29609375 576.6 53.25 566.6 52.7 559.15 52.9 552.25 53.1 540.7 50.6 526.8830078125 47.3060546875 516.25 44.9
L 516.25 64.35
Q 516.3 64.35 516.4 64.35 520.4 64.25 523.85 64.9 526.85 65.55 527.45 65.6
L 529.95 65.7
Q 530.7 65.7 532.3 65.9 537.35 66.35 540.35 66.8 539.3 66.05 538.4 65.6 538.1 65.4 538.05 65.25 537.95 64.95 538.3 64.85 538.65 64.8 539 64.9 540.9 65.55 542.95 67.05 544.15 67.95 546.4 70 549 72.3 550.15 73.25 552.3 75 554.2 76 554.9 76.35 556.25 77 557.2 77.5 557.9 77.9 561.7 80.85 563.6 85.2 563.9 85.95 564.4 86.5 564.45 86.45 564.5 86.4 565.35 85.55 565.55 85.45
L 565.8 85.25 565.9 85.5
Q 565.75 85.55 565.65 85.8 565.5 86.15 565.4 86.2
L 565.15 86.35 565.05 86.7 564.8 86.95
Q 565.25 87.35 565.85 87.65 570.15 89.65 574.05 92.35 574.35 92.55 574.85 92.6
L 576.1 91.4
Q 576.05 90.95 575.4 90.6 572.5 89.1 569.85 87.1 569.05 86.4 568.55 85.5 568.1 84.6 567.9 83.55 567.75 83.35 567.6 83.15 567.2 82.65 567 82.15 566.9 81.9 566.9 81.65
L 564.75 78.4
Q 565.35 78.1 565.7 78.55 566.65 79.8 567.65 81.05 568.1 81.65 568.55 82.3 568.8 82.7 569.05 83.2
L 570.2 84.45
Q 570.6 84.85 571.3 85.2
L 574.35 87.1
Q 576.75 88.55 580.65 90.65
L 581.85 91.3
Q 581.75 90.9 581.8 90.55 582.15 90.55 582.25 90.2
L 582.4 89.95 582.65 89.85 583.25 89.75
Q 583.45 89.65 583.4 89.6
L 584.35 89.8
Q 583.9 89.45 583.35 89.15 579.85 87.05 577.05 84.4 575.6 83 575.05 81.85 574.55 80.4 574.2 79.7 573.15 78.35 572.8 77.5 572.65 77 572.5 76.8
L 572.1 76.1
Q 571.9 75.75 571.75 75.1 571.6 74.25 571.55 74.1 571.95 73.85 572.3 74.4 572.75 74.3 573.4 75.05
L 578.75 79.15
Q 580.2 80.05 583.05 81.3
L 584.9 82.1
Q 587.7 83.3 588.95 84.2 590.1 85.05 591.6 86.55 592.3 87.15 592.6 87.25 593.3 87.55 593.75 87.15 593.85 87.05 594.1 86.8 594 86.7 593.95 86.6 593.9 86.4 593.9 86.25
L 593.3 85.85 593 85.6 592.85 85.2
Q 592.65 84.7 592.15 84.45 592 84.55 592 84.7 591.7 84.7 591.6 85.05 591.65 85.65 591.45 85.85
L 591 85.75
Q 590.95 85.3 590.95 85.1 590.95 84.7 591.05 84.45
L 591.35 84.15 591.7 83.95
Q 591.8 83.85 591.8 83.8 592.5 83.8 592.9 84.05 591.75 82.55 590.4 81.5 589.95 81.15 587.65 79.7 584.25 77.65 580.4 74.45 578.5 72.85 577.65 71.65 577.05 70.75 576.85 70.05 576.7 69.5 576.8 69.05
L 576.75 69.05
Q 576.45 68.6 576.65 68.05 576.68984375 67.950390625 576.75 67.85 574.8787109375 67.476171875 571.45 66.6 572.15 66.6 572.15 66.25 572.7 66.25 577.05 65.75 581.45 65.2 582.55 65.2 587.6 65.2 589.4 66.25 590.566015625 66.8693359375 595.2 69.5 595.071484375 68.7849609375 595.2 68.1 595.3 67.7 595.45 67.5 595.55 67.3 595.95 67
L 596.45 66.7
Q 595.3 65.9 594.35 65.35 593.75 65.95 593.4 66.25
L 593.05 66.55
Q 592.95 66.85 592.75 66.85
L 592.65 66.75
Q 592.7 66.4 593.25 65.75
L 593.95 65.1
Q 593.6 64.9 593.3 64.75
M 573.1 68.05
L 572.25 67.95 572.3 67.7 572.4 67.6
Q 573.05 67.5 573.65 67.75
L 573.65 67.9 573.1 68.05
M 567.9 68.3
Q 568.7 68.75 570.55 68.95 571.1439453125 69.07734375 571.8 69.45 572.70703125 69.227734375 574 68.7 574.5701171875 69.050390625 574.85 69.65 571.65 71.4 570.8 71.4 567.2 71.4 560.95 67 553.85 61.95 550.95 61.1
L 551.7 61.1
Q 551.7583984375 61.075 551.8 61.05 551.95 61 552.15 61.05 552.302734375 61.0744140625 552.45 61.1 554.784375 61.4927734375 556.85 62.15 558.25 62.65 558.9 63.05
L 560.25 63.85 561.4 64.35
Q 561.6025390625 64.4681640625 561.85 64.65 562.3376953125 65.00390625 563 65.6 563.65 66.1 565.05 66.7 566.5 67.3 567.1 67.75
L 567.9 68.3
M 580 76.45
Q 580.45 75.7 581.1 75.5
L 581.3 75.7
Q 581.1 75.85 580.35 76.75 580.1 77.3 579.75 77.55 578.9 78.1 578.85 78.25 578.8 78.5 578.7 78.6 578.6 78.8 578.4 78.75 578.25 78.7 578.25 78.35 578.4 77.85 578.75 77.65 578.95 77.45 579.4 77.2
L 580 76.45
M 579.4 78.9
Q 579.3 78.75 579.5 78.55
L 579.75 78.3 579.95 78.15 580 78.35 579.95 78.45 579.8 78.6 579.65 78.8 579.4 78.9
M 586.75 81.95
L 586.6 81.8 587.25 81.1 587.3 80.95 587.55 80.7
Q 587.7 80.55 587.8 80.1
L 588.05 80.05
Q 588.25 80.15 588.25 80.35 588.25 80.5 588.05 80.7
L 587.6 81.5
Q 587.4 81.75 586.75 81.95
M 571.45 84.5
L 571.8 84.2
Q 572.65 83.75 573.35 83
L 574.4 82.1 574.65 82.3
Q 574.45 82.6 573.95 83.05 573.45 83.55 573.25 83.8
L 573 84.1 572.55 84.3
Q 571.95 84.85 571.55 84.85 571.3 84.75 571.45 84.5
M 571.6 84.35
L 571.3 84.45
Q 571.05 84.45 570.95 84.35
L 571.6 83.65
Q 572.2 82.9 573 82.45
L 573.2 82.65
Q 573.1 83 572.55 83.3
L 571.6 84.35
M 589.4 80.9
L 588.95 81.85 588.75 82 588.5 82.4
Q 588.2 82.7 587.95 82.75 587.85 82.6 588 82.45
L 588.4 81.8 588.65 81.55 588.75 81.2 589 80.8 589.15 80.8 589.2 80.7 589.4 80.9
M 565.55 60.5
Q 563.9 61.4 562.05 60.9
L 559.65 60
Q 558.1 59.35 555.75 58.8 554.35 58.45 554.35 57.7 554.45 57 555.2 56.9 555.55 56.85 556.45 57.05 559.2 57.85 561.8 58.2 564.55 58.6 565.55 59.15 566.15 59.55 566.1 59.95 566.05 60.2 565.55 60.5
M 556.8 72.55
Q 556.426953125 72.2703125 556.15 72 555.8833984375 71.6935546875 555.75 71.4 555.65 71.2 555.7 71 555.7 70.9 555.8 70.85 555.95 70.8 556 70.85 556.1740234375 71.0892578125 556.4 71.35 556.7697265625 71.6828125 557.25 72.05 558.35 72.9 558.6 73.1 558.925390625 73.37890625 559.65 74.3 559.740234375 74.3759765625 559.8 74.45 560.5 75.35 561.05 75.7 561.4 75.95 562.05 76.35 562.3115234375 76.51640625 562.45 76.7 562.6712890625 76.9140625 562.75 77.15 562.6 77.3 562.05 77.1 562.00859375 77.0767578125 561.95 77.05 561.526953125 77.2 560.5 77.2 558.5 77.2 557.3 74.3 557.0228515625 73.3498046875 556.8 72.55
M 584.1 90.35
Q 583.55 90.35 583.25 90.4 582.6 90.55 582.15 91 582.2 91.2 582.15 91.45
L 582.25 91.55
Q 583.2 91.7 584.25 91.9
L 584.7 92
Q 584.9 91.9 585.15 91.7 585.3 91.65 585.55 91.45 585.5 91.3 585.45 91.15 585.35 90.75 584.95 90.35
L 584.1 90.35
M 645.4 42.9
Q 645.3 43 645.15 43.15 644.8 43.45 644.5 43.6 644 44 643.55 44.35 643.6 44.4 643.6 44.45
L 643.6 45.05
Q 643.7 45.05 643.95 45.05 644.0427734375 45.05 644.1 45.05 644.1962890625 45.0267578125 644.25 45 644.5 44.95 644.65 44.7
L 645.95 44
Q 645.95 44.4208984375 645.65 44.7
L 646.6 44.7
Q 646.53125 44.423046875 646.35 44 645.9 43.1 645.4 42.9
M 645.3 39.65
Q 645.25 39.15 644.9 38.65 643.7 38.45 643.25 38.8 642.95 39.25 642.8 39.45 642.65 39.7 642.4 40.05
L 642.4 40.6
Q 642.8154296875 40.548046875 643.05 40.45 643.2779296875 40.4220703125 643.35 40.35
L 643.85 40.2
Q 643.855859375 40.2521484375 643.85 40.3
L 645.4 40.3
Q 645.3849609375 40.0111328125 645.3 39.65
M 626.15 45.35
Q 622.3349609375 47.678515625 621.15 48.35 619.1 49.55 617.75 49.85 617.636328125 49.8841796875 617.5 49.9 616.1552734375 50.27734375 615 50 614.9486328125 50.659765625 614.85 51.3 614.5201171875 54.483984375 613.65 57.55 612.95 60.15 612.85 61.1 612.75 62.1 612.65 64.2 612.45 65.8 611.35 68.3 610.6720703125 69.812109375 610.25 70.85 609.8935546875 71.82578125 609.75 72.4 609.35 74 609.3 76.15 609.3 76.45 609.35 79.95 609.436328125 82.105859375 609.35 84 611.31328125 83.9833984375 613.5 81.25 614.848828125 79.578515625 614.95 78.2 614.58515625 78.117578125 614.35 78
L 614.35 77.9 614.4 77.9 614.4 77.8 614.75 77.9 614.95 77.9
Q 614.96796875 77.687109375 614.9 77.45 614.8396484375 77.0912109375 614.65 76.75 614.5494140625 76.7341796875 614.45 76.7 614.2025390625 76.682421875 613.95 76.65 613.85 76.4 614.15 76.3
L 614.55 76.3
Q 614.79765625 76.34375 615.05 76.4 620.741796875 75.162890625 625.8 71.25 628.9 68.85 634.25 63.05 634.5453125 62.728515625 634.8 62.4
L 632.8 62.4 632.8 62.15 638.3 62.25
Q 639.2 61.1 639.75 59.95 639.85 59.8 640.35 58.5 640.7 57.6 641.05 57.1 641.65 56.25 643.5 55 644.4916015625 54.3666015625 645.1 53.8 645.63046875 53.3267578125 645.9 52.9
L 645.45 51.65
Q 644.05 51.4 642.5 51.9 642.5 51.95 642.55 52 642.8 52.2 643.15 52.2 643.65 52.3 644 52.15 644.35 51.9 644.45 51.95 644.45 52.05 644.15 52.6 643.7 52.7 642.35 52.6 642.15 52.3 642.1 52.15 642.1 52.1 642.1 52.05 641.95 52.1 641.8 52.2
L 641.65 52.55
Q 641.3 53.25 640.7 53.3 640.65 53 640.65 52.75 640.1 53 639.55 53.4 637.85 54.65 637 55.2 635.45 56.25 634.25 56.7 632.97109375 57.1712890625 631.6 57.2 630.9701171875 57.231640625 630.3 57.15 631.43359375 56.7470703125 632.5 56.25 637.8142578125 50.7359375 638.4 50.15 640.892578125 47.657421875 643.35 45.65 643.1 45.462109375 643.1 45.05 643.1 44.8 643.15 44.65 642.05 45.35 641.15 45.55
L 639.5 46.8
Q 639.3 47.05 638.95 47.75 638 49.4 636.7 50.55 635.594921875 51.5251953125 634 52.3 633.9361328125 52.3455078125 633.85 52.4 633.0765625 52.7712890625 632.2 53.1
L 633.9 51.8
Q 634.1037109375 51.644140625 634.3 51.5 635.1642578125 49.2361328125 637.45 46.75 641.2400390625 42.5919921875 642.55 41.05
L 642.05 41 642.05 40.35
Q 641.95 40.45 641.85 40.55 641.1 41.3 640.85 41.65 640.3 42.35 640.1 42.45 639.85 42.6 639.55 42.6 639.25 42.55 639.1 42.3 639.7 41.85 640.8 40.45
L 642.05 38.65
Q 642.75 37.8 643 37.7 643.45 37.5 644.15 37.5 644.6 37.5 645 37.6 644.95 37.25 645.05 36.8 645.15 36.5 645.2 36.3
L 645.15 35.5
Q 645.15 34.7 644.75 34.55
L 644.7 34.55
Q 644.25 34.44453125 644.25 34.3 642.55 34.15 641.8 34.6 641.5 34.8 641.15 35.3 640.95 35.8 640.8 36.15
L 641.1 36.25 641.05 36.45 641.55 36.45
Q 641.8 36.45 641.95 36.25
L 642 36.1 642.05 36.05 642.25 35.8 642.75 35.35 643.15 35.1
Q 643.238671875 35.2478515625 643.2 35.4 643.211328125 35.4978515625 643.15 35.6 643.1 35.7 642.75 36.05 642.55 36.4 642.4 36.55 642.2 36.8 642 36.9 641.75 37.05 641.35 37 640.9740234375 36.9625 640.75 36.95 640.662109375 36.95 640.6 36.95 640.55 36.75 640.6 36.65 640.5 36.8 640.45 36.9 640.366796875 37.0912109375 640.25 37.25 639.80859375 38.2080078125 639.1 39
L 638.4 39.65 637.6 40.1
Q 637 40.45 636.6 40.85
L 635.2 42.05
Q 634.8 42.3 634.45 42.75
L 633.9 43.4 633.2 43.95
Q 631.9 45.2 631.15 45.75
L 631.1 45.65
Q 631.0078125 45.769921875 630.9 45.85 627.9908203125 48.1490234375 623 50.25 624.155078125 49.3068359375 628.8 45.75 634 41.85 636.7 38.55
L 636.35 38.55
Q 633.2 41.55 627.3 44.8 626.73125 45.0943359375 626.15 45.35
M 634.3 46.7
Q 634.95 45.75 636.1 43.85 637.25 42.15 638.75 41.9
L 639 42.15
Q 638.05 42.6 637.25 43.6 636.7 44.25 635.95 45.3 635.2 46.55 634.8 47.1 633.25 49.3 631.5 49.75 633.5 47.85 634.3 46.7
M 638.05 61.35
Q 638.2 61.45 638.2 61.65 637.04765625 61.345703125 636.05 61.1 634.7671875 60.8412109375 633.75 60.7 633.65 60.6 633.8 60.5
L 634.05 60.45
Q 634.6509765625 60.520703125 636.25 60.9 636.950390625 61.044921875 637.8 61.25
L 638.05 61.35
M 626.1 52.2
Q 626.45 52.05 627.25 51.95
L 627.7 51.85 627.85 52.1
Q 626.65 52.75 624.65 53.4 623.3 53.8 621.95 53.85 621.4 53.85 621.4 53.5
L 623.75 53
Q 624.75 52.8 625.25 52.55
L 626.1 52.2
M 619.7 60
Q 620.2 59.55 621.25 59.25 622.6 58.85 622.9 58.7
L 624.15 58
Q 624.95 57.55 626.15 57.2
L 626.3 57.4
Q 623.55 58.85 622.8 59.15 621.25 59.85 619.75 60.2
L 619.7 60 Z"/>

<path fill="#FEACA0" stroke="none" d="
M 516.25 65.45
L 516.25 67.65
Q 523.024609375 70.3697265625 527.75 71.3 531.2 71.95 535.1 72.1 538.1 72.55 542.3 75.75 544.5693359375 77.47578125 548.3 80.8 550.3388671875 80.75 552.65 80.75 554.65 80.75 556.2 80.8
L 547.6 73.1 547.65 73.1
Q 546.7 72.25 545.65 71.25 544.1 69.8 542.75 68.7
L 528 67
Q 526 66.8 525 66.55
L 519.85 65.6
Q 519.25 65.5 518.05 65.5
L 516.25 65.45
M 595.45 69.6
Q 595.44765625 69.6865234375 595.45 69.75
L 595.3 69.75
Q 595.2640625 69.627734375 595.2 69.5 590.566015625 66.8693359375 589.4 66.25 587.6 65.2 582.55 65.2 581.45 65.2 577.05 65.75 572.7 66.25 572.15 66.25 572.15 66.6 571.45 66.6 574.8787109375 67.476171875 576.75 67.85 576.9396484375 67.490234375 577.3 67.25 578 66.8 579.35 66.8
L 581.65 66.7
Q 587.05 66.5 589.7 67.55
L 592.15 68.5 593.9 69.55
Q 594.7 70.05 596.5 70.75 596.75 70.85 597 71
L 597.3 70.7
Q 596.333984375 70.125390625 595.45 69.6
M 558.15 73.5
L 556.8 72.55
Q 557.0228515625 73.3498046875 557.3 74.3 558.5 77.2 560.5 77.2 561.526953125 77.2 561.95 77.05 560.434375 76.183203125 559.85 75.55 558.8 74.1 558.15 73.5
M 571.8 69.45
Q 571.92890625 69.52421875 572.05 69.6 572.55 70 572.4 70.3
L 569.45 69.7
Q 568.45 69.5 568 69.3 567.65 69.2 566.55 68.65
L 564.05 67.3
Q 562.3 66.3 561.7 65.8 561.2 65.3 560.9 65.1 560.1 64.75 559.75 64.55 558.75 63.85 558.2 63.5 557.7 63.15 555.9 62.5 553.55 61.75 551.7 61.35 551.575 61.225 551.7 61.1
L 550.95 61.1
Q 553.85 61.95 560.95 67 567.2 71.4 570.8 71.4 571.65 71.4 574.85 69.65 574.5701171875 69.050390625 574 68.7 572.70703125 69.227734375 571.8 69.45
M 614.9 77.45
Q 614.96796875 77.687109375 614.95 77.9
L 615.65 78.05
Q 616 78.15 616.05 78.4
L 616 78.45
Q 615.7123046875 78.4 615.45 78.35 615.19453125 78.287890625 614.95 78.2 614.848828125 79.578515625 613.5 81.25 611.31328125 83.9833984375 609.35 84 609.255078125 87.596875 608.6 90.25
L 608.65 90.2
Q 609.85 89.6 611 88.2 611.5 87.6 612.8 85.6 615.2 81.9 619.7 77.45 618.95 77.7 617.45 77.3 616.1841796875 76.9734375 614.65 76.75 614.8396484375 77.0912109375 614.9 77.45
M 634.8 62.4
Q 634.5453125 62.728515625 634.25 63.05 628.9 68.85 625.8 71.25 620.741796875 75.162890625 615.05 76.4 617.3525390625 76.808203125 619.7 77.35
L 619.7 77.45
Q 621.55 75.55 623.8 73.55 626.9 70.7 629.3 69.05 631.25 67.7 635.25 65.1 636.95 63.8 638.15 62.45
L 634.8 62.4
M 646.6 44.7
L 645.65 44.7
Q 645.61328125 44.7525390625 645.55 44.8 645.2 44.9 645.1 45.05
L 644.95 45.25
Q 644.85 45.35 644.6 45.55
L 644.35 45.75 643.55 45.75
Q 643.437109375 45.7123046875 643.35 45.65 640.892578125 47.657421875 638.4 50.15 637.8142578125 50.7359375 632.5 56.25 635.794921875 54.781640625 638.75 52.5 639.95 51.5 640.85 51.05 641 50.45 641.3 49.9 641.9 48.9 643.5 47.85 645.55 46.55 646.05 46.1 646.65 45.5 646.65 45 646.65 44.88125 646.6 44.7
M 645.25 40.95
Q 645.39375 40.6912109375 645.4 40.3
L 643.85 40.3
Q 643.876953125 40.6673828125 643.7 40.8
L 643.6 40.85 643.3 40.95 643.1 41.05 642.9 41.1 642.55 41.05
Q 641.2400390625 42.5919921875 637.45 46.75 635.1642578125 49.2361328125 634.3 51.5 635.68984375 50.416015625 636.35 49.8 637.6 48.6 638.25 47.35 638.7 46.55 638.85 46.4 639.15 46 639.85 45.55
L 643.7 43.1 643.8 42.95
Q 643.9 42.85 643.95 42.8 644.1 42.35 644.4 42 645.2 41.1 645.25 40.95 Z"/>

<path fill="#F8EAE9" stroke="none" d="
M 578.25 52.45
Q 578.25 52.3 578.2 52.15 576.6 51.75 574.45 51.8 570.55 52.05 568.6 51.9 567.15 51.8 564.9 51.35 561.65 50.7 561.2 50.65 558.85 50.25 555.45 50.15 551.55 50.1 549.6 50 541.75 49.7 532.15 47.65 526.55 46.45 516.25 43.7
L 516.25 44.9
Q 526.8830078125 47.3060546875 540.7 50.6 552.25 53.1 559.15 52.9 566.6 52.7 576.6 53.25 577.5712890625 53.29609375 578.5 53.45 578.3125 52.8564453125 578.25 52.45
M 562.05 60.9
Q 563.9 61.4 565.55 60.5 566.05 60.2 566.1 59.95 566.15 59.55 565.55 59.15 564.55 58.6 561.8 58.2 559.2 57.85 556.45 57.05 555.55 56.85 555.2 56.9 554.45 57 554.35 57.7 554.35 58.45 555.75 58.8 558.1 59.35 559.65 60
L 562.05 60.9
M 641.95 31
Q 641.3 31.35 640.85 32.05 640.6 32.4 640.3 32.95
L 640.4 33.05
Q 640.3 33.2 640.1 33.4 639.95 33.65 639.9 33.85 639.9 33.95 639.9 34.15 640 34.15 640.65 34.2 640.95 34.2 641.15 34.15 641.55 33.8 641.85 33.65 642.2 33.5 643.35 33.6 644.2 33.6 644.6 33.7 645.1 33.85 645.4 34.15 645.3 33 644.65 31.95 644.1 31.1 643.4 30.85 642.7 30.65 641.95 31
M 626.15 45.35
Q 626.73125 45.0943359375 627.3 44.8 633.2 41.55 636.35 38.55
L 636.7 38.55
Q 634 41.85 628.8 45.75 624.155078125 49.3068359375 623 50.25 627.9908203125 48.1490234375 630.9 45.85 631.0078125 45.769921875 631.1 45.65
L 631.05 45.5
Q 631.7 44.5 633.4 42.75 634.4 41.5 634.6 41.3
L 636.4 39.85
Q 636.95 39.45 638.05 38.65 638.95 37.9 639.35 37.1 639.65 36.6 640.05 35.55 640.2 35.25 640.6 34.8
L 639.45 34.7
Q 638.75 35.85 637.05 37.1 634.45 39.05 634.25 39.2 632.85 40.7 632.1 41.4 631 42.45 628.4 44.05 627.1923828125 44.774609375 626.15 45.35 Z"/>

<path fill="#3B3D35" stroke="none" d="
M 556.15 72
Q 556.426953125 72.2703125 556.8 72.55
L 558.15 73.5
Q 558.8 74.1 559.85 75.55 560.434375 76.183203125 561.95 77.05 562.00859375 77.0767578125 562.05 77.1 562.6 77.3 562.75 77.15 562.6712890625 76.9140625 562.45 76.7 562.3115234375 76.51640625 562.05 76.35 561.4 75.95 561.05 75.7 560.5 75.35 559.8 74.45 559.740234375 74.3759765625 559.65 74.3 558.925390625 73.37890625 558.6 73.1 558.35 72.9 557.25 72.05 556.7697265625 71.6828125 556.4 71.35 556.1740234375 71.0892578125 556 70.85 555.95 70.8 555.8 70.85 555.7 70.9 555.7 71 555.65 71.2 555.75 71.4 555.8833984375 71.6935546875 556.15 72
M 588.95 81.85
L 589.4 80.9 589.2 80.7 589.15 80.8 589 80.8 588.75 81.2 588.65 81.55 588.4 81.8 588 82.45
Q 587.85 82.6 587.95 82.75 588.2 82.7 588.5 82.4
L 588.75 82 588.95 81.85
M 571.3 84.45
L 571.6 84.35 572.55 83.3
Q 573.1 83 573.2 82.65
L 573 82.45
Q 572.2 82.9 571.6 83.65
L 570.95 84.35
Q 571.05 84.45 571.3 84.45
M 571.8 84.2
L 571.45 84.5
Q 571.3 84.75 571.55 84.85 571.95 84.85 572.55 84.3
L 573 84.1 573.25 83.8
Q 573.45 83.55 573.95 83.05 574.45 82.6 574.65 82.3
L 574.4 82.1 573.35 83
Q 572.65 83.75 571.8 84.2
M 586.6 81.8
L 586.75 81.95
Q 587.4 81.75 587.6 81.5
L 588.05 80.7
Q 588.25 80.5 588.25 80.35 588.25 80.15 588.05 80.05
L 587.8 80.1
Q 587.7 80.55 587.55 80.7
L 587.3 80.95 587.25 81.1 586.6 81.8
M 579.5 78.55
Q 579.3 78.75 579.4 78.9
L 579.65 78.8 579.8 78.6 579.95 78.45 580 78.35 579.95 78.15 579.75 78.3 579.5 78.55
M 581.1 75.5
Q 580.45 75.7 580 76.45
L 579.4 77.2
Q 578.95 77.45 578.75 77.65 578.4 77.85 578.25 78.35 578.25 78.7 578.4 78.75 578.6 78.8 578.7 78.6 578.8 78.5 578.85 78.25 578.9 78.1 579.75 77.55 580.1 77.3 580.35 76.75 581.1 75.85 581.3 75.7
L 581.1 75.5
M 570.55 68.95
Q 568.7 68.75 567.9 68.3
L 567.1 67.75
Q 566.5 67.3 565.05 66.7 563.65 66.1 563 65.6 562.3376953125 65.00390625 561.85 64.65 561.6025390625 64.4681640625 561.4 64.35
L 560.25 63.85 558.9 63.05
Q 558.25 62.65 556.85 62.15 554.784375 61.4927734375 552.45 61.1 552.302734375 61.0744140625 552.15 61.05 551.95 61 551.8 61.05 551.7583984375 61.075 551.7 61.1 551.575 61.225 551.7 61.35 553.55 61.75 555.9 62.5 557.7 63.15 558.2 63.5 558.75 63.85 559.75 64.55 560.1 64.75 560.9 65.1 561.2 65.3 561.7 65.8 562.3 66.3 564.05 67.3
L 566.55 68.65
Q 567.65 69.2 568 69.3 568.45 69.5 569.45 69.7
L 572.4 70.3
Q 572.55 70 572.05 69.6 571.92890625 69.52421875 571.8 69.45 571.1439453125 69.07734375 570.55 68.95
M 572.25 67.95
L 573.1 68.05 573.65 67.9 573.65 67.75
Q 573.05 67.5 572.4 67.6
L 572.3 67.7 572.25 67.95
M 610.75 47.1
Q 609.9 46.45 609.75 46.35 608.65 45.75 606.85 46.05 604.9 46.45 603.9 46.5 602.3 46.55 599.85 45.65 596.85 44.5 595.9 44.3 594.8 44.1 592.5 44.1 590.2 44.1 589.05 43.85 587.7 43.45 587.05 43.3 585.8 42.95 585 43 583.7 43.1 583.35 43.9 583.3 44 583.15 45.1 583.1 46.25 582.15 47.85 581.5 48.95 581.35 49.3 581.1 49.95 581.1 51.6 578.95 50.35 575.2 50.4 571 50.7 568.95 50.5 567.5 50.4 565.4 49.95
L 561.9 49.15
Q 559.1 48.65 554.85 48.55 550.1 48.55 547.7 48.4 541.4 48.05 531.3 45.8 520.6 43.4 516.25 42.65
L 516.25 43.7
Q 526.55 46.45 532.15 47.65 541.75 49.7 549.6 50 551.55 50.1 555.45 50.15 558.85 50.25 561.2 50.65 561.65 50.7 564.9 51.35 567.15 51.8 568.6 51.9 570.55 52.05 574.45 51.8 576.6 51.75 578.2 52.15 578.25 52.3 578.25 52.45 578.3125 52.8564453125 578.5 53.45 578.6626953125 53.819140625 578.85 54.25
L 578.95 54.75 579.2 55.3 579.2 55.65
Q 579.2 55.8732421875 579.3 55.9
L 579.35 55.95
Q 579.394140625 55.9205078125 579.4 55.85 579.6353515625 55.6689453125 579.55 55.2
L 578.6 52.25
Q 579.25 52.45 579.8 52.7 579.75 53.25 579.85 53.65
L 580 54.4
Q 580.05 54.75 580.05 55.45 580.35 55.25 580.35 54.85 580.3865234375 54.5939453125 580.25 53.85 580.2169921875 53.5853515625 580.15 53.25 580.15 53.05 580.2 52.9 581.1 53.4 582.75 54.5 582.7193359375 54.58203125 582.7 54.65 582.684765625 54.707421875 582.65 54.75 582.6 54.9927734375 582.6 55.2
L 582.55 56.2
Q 582.55 56.65 582.65 56.8
L 583 57.05
Q 584 57.65 585.15 57.15 585.05 56.9 584.65 56.9
L 584.05 56.75
Q 583.4 56.65 583.25 56.35
L 583.2 55.9 583.25 55.2 583.4 54.9
Q 585 55.85 586.3 55.8 586.3193359375 56.2658203125 586.15 56.65 585.8841796875 57.310546875 585.15 57.8 583.95 58.5 582.6 58.3 581.75 58.15 580.2 57.55 578.6 56.9 577.8 56.75 575.6 56.3 573.75 57.45 573.6 57.35 573.45 57.3 573.05 57.1 572.8 57.3 572.55 57.6 572.8 57.85 572.85 57.95 572.95 58.05
L 572.9 58.05
Q 573.2 58.35 573.7 58.5
L 575 59.25
Q 575.25 59.45 575.85 59.75
L 576.8 60.3
Q 578.15 60.95 580.45 61.1 583.85 61.3 584.2 61.35 584.5 61.4 585.05 61.55
L 584.25 62.55
Q 584 62.8 584 63.05 584.5 62.75 585.2 61.7
L 585.3 61.65
Q 585.5 61.7 585.8 61.8
L 585.3 62.7
Q 584.5 63.5 584.25 64
L 584.6 63.85 585.2 63.45
Q 585.55 63.1 585.6 63 585.6 62.95 585.75 62.3 585.85 62 586 61.85 586.6 62.05 587.4 62.3 590.95 63.65 592.85 64.55 592.8 64.65 592.45 65.1 592.15 65.7 591.95 66
L 591.45 66.4
Q 591.25 66.8 591.35 67
L 592.45 66.05 592.65 65.65
Q 593.05 65.15 593.25 64.75
L 593.3 64.75
Q 593.6 64.9 593.95 65.1
L 593.25 65.75
Q 592.7 66.4 592.65 66.75
L 592.75 66.85
Q 592.95 66.85 593.05 66.55
L 593.4 66.25
Q 593.75 65.95 594.35 65.35 595.3 65.9 596.45 66.7
L 595.95 67
Q 595.55 67.3 595.45 67.5 595.3 67.7 595.2 68.1 595.071484375 68.7849609375 595.2 69.5 595.2640625 69.627734375 595.3 69.75
L 595.45 69.75
Q 595.44765625 69.6865234375 595.45 69.6 595.4158203125 68.3228515625 595.75 67.75 596 67.4 596.75 66.9 597.55 67.45 598.4 68.05 598.25 68.2 598.45 68.55 598.7 69 598.7 69.15 598.7 69.5 598.3 69.8
L 597.3 70.7 597 71
Q 596.75 70.85 596.5 70.75 594.7 70.05 593.9 69.55
L 592.15 68.5 589.7 67.55
Q 587.05 66.5 581.65 66.7
L 579.35 66.8
Q 578 66.8 577.3 67.25 576.9396484375 67.490234375 576.75 67.85 576.68984375 67.950390625 576.65 68.05 576.45 68.6 576.75 69.05
L 576.8 69.05
Q 576.7 69.5 576.85 70.05 577.05 70.75 577.65 71.65 578.5 72.85 580.4 74.45 584.25 77.65 587.65 79.7 589.95 81.15 590.4 81.5 591.75 82.55 592.9 84.05 592.5 83.8 591.8 83.8 591.8 83.85 591.7 83.95
L 591.35 84.15 591.05 84.45
Q 590.95 84.7 590.95 85.1 590.95 85.3 591 85.75
L 591.45 85.85
Q 591.65 85.65 591.6 85.05 591.7 84.7 592 84.7 592 84.55 592.15 84.45 592.65 84.7 592.85 85.2
L 593 85.6 593.3 85.85 593.9 86.25
Q 593.9 86.4 593.95 86.6 594 86.7 594.1 86.8 593.85 87.05 593.75 87.15 593.3 87.55 592.6 87.25 592.3 87.15 591.6 86.55 590.1 85.05 588.95 84.2 587.7 83.3 584.9 82.1
L 583.05 81.3
Q 580.2 80.05 578.75 79.15
L 573.4 75.05
Q 572.75 74.3 572.3 74.4 571.95 73.85 571.55 74.1 571.6 74.25 571.75 75.1 571.9 75.75 572.1 76.1
L 572.5 76.8
Q 572.65 77 572.8 77.5 573.15 78.35 574.2 79.7 574.55 80.4 575.05 81.85 575.6 83 577.05 84.4 579.85 87.05 583.35 89.15 583.9 89.45 584.35 89.8
L 583.4 89.6
Q 583.45 89.65 583.25 89.75
L 582.65 89.85 582.4 89.95 582.25 90.2
Q 582.15 90.55 581.8 90.55 581.75 90.9 581.85 91.3
L 580.65 90.65
Q 576.75 88.55 574.35 87.1
L 571.3 85.2
Q 570.6 84.85 570.2 84.45
L 569.05 83.2
Q 568.8 82.7 568.55 82.3 568.1 81.65 567.65 81.05 566.65 79.8 565.7 78.55 565.35 78.1 564.75 78.4
L 566.9 81.65
Q 566.9 81.9 567 82.15 567.2 82.65 567.6 83.15 567.75 83.35 567.9 83.55 568.1 84.6 568.55 85.5 569.05 86.4 569.85 87.1 572.5 89.1 575.4 90.6 576.05 90.95 576.1 91.4
L 574.85 92.6
Q 574.35 92.55 574.05 92.35 570.15 89.65 565.85 87.65 565.25 87.35 564.8 86.95
L 565.05 86.7 565.15 86.35 565.4 86.2
Q 565.5 86.15 565.65 85.8 565.75 85.55 565.9 85.5
L 565.8 85.25 565.55 85.45
Q 565.35 85.55 564.5 86.4 564.45 86.45 564.4 86.5 563.9 85.95 563.6 85.2 561.7 80.85 557.9 77.9 557.2 77.5 556.25 77 554.9 76.35 554.2 76 552.3 75 550.15 73.25 549 72.3 546.4 70 544.15 67.95 542.95 67.05 540.9 65.55 539 64.9 538.65 64.8 538.3 64.85 537.95 64.95 538.05 65.25 538.1 65.4 538.4 65.6 539.3 66.05 540.35 66.8 537.35 66.35 532.3 65.9 530.7 65.7 529.95 65.7
L 527.45 65.6
Q 526.85 65.55 523.85 64.9 520.4 64.25 516.4 64.35 516.3 64.35 516.25 64.35
L 516.25 65.45 518.05 65.5
Q 519.25 65.5 519.85 65.6
L 525 66.55
Q 526 66.8 528 67
L 542.75 68.7
Q 544.1 69.8 545.65 71.25 546.7 72.25 547.65 73.1
L 547.6 73.1 556.2 80.8
Q 554.65 80.75 552.65 80.75 550.3388671875 80.75 548.3 80.8 542.99921875 80.916015625 539.6 81.35
L 533.35 82.25
Q 524.9 83.35 516.25 82.4
L 516.25 83.35
Q 516.75 83.45 517.35 83.55 524.5 84.55 531.7 83.85 533.55 83.7 537.5 83.15 541.3 82.6 543.3 82.45 545.9310546875 82.2287109375 549.85 82.2 553.9365234375 82.1474609375 559.4 82.3 559.7 82.3 559.95 82.25 561.25 84.05 562.15 86.15 562.65 87.3 563.65 87.9 566.9 90 570.3 91.95 571.1 92.5 571.8 93.2 572.8 94.1 574.1 94.35 576.25 94.35 577.15 92.15
L 577.6 91.95
Q 577.75 92 578 92.05 579.95 92.2 581.35 92.6
L 581.75 92.7
Q 582.45 93.15 582.9 93.25 583.55 93.4 584.75 93.4 585.6 93.55 586.8 93.65 588.4 93.85 591.5 94.55 597.05 95.8 598.1 96 601.9 96.75 604.8 96.85 605.55 96.85 605.75 96.75 606 96.7 606.2 96.55 606.2 96.5 606.25 96.5 606.95 96.25 607.3 95.35 607.4 95.05 607.65 93.65 607.7 93.35 608.35 91.25 608.4 91.25 608.55 91.3 610.3 91.75 612.15 88.9 616.15 82.8 621.45 77.6 622.1 76.95 625.35 73.95 627.65 71.85 629.25 70.65 630.35 69.85 632.45 68.5 634.75 67 635.75 66.3 639.55 63.55 640.9 60.6 641.95 58.3 642.1 58.05 642.75 57.1 644.65 55.9 646.5 54.55 646.9 53.5 647.0072265625 53.2705078125 647.05 53 647.1734375 52.474609375 647 51.85 646.8 50.95 646.05 50.6 645.6 50.4 644.6 50.4 643.4 50.35 642.55 50.5 643.05 49.8 643.95 49.2 644.8 48.6 646.45 47.5 647.35 46.7 647.6 45.9 647.7947265625 45.3158203125 647.7 44.7 647.6189453125 43.5771484375 646.65 42.35 646.4 42.05 646.15 41.9 646.5 41.25 646.55 40.65 646.562109375 40.4794921875 646.55 40.3 646.5390625 39.74296875 646.35 39.1 646.25 38.35 645.95 38 645.85 37.9 645.75 37.85 645.85 37.75 645.9 37.6 646.6 36.15 646.55 34.45 646.5375 34.0248046875 646.45 33.6 646.3 32.3998046875 645.7 31.35 645.1 30.3 644.25 29.85 642.95 29.15 641.4 29.95 640.2 30.6 639.35 32.05 638.6 33.55 638.15 34.2 637.6 35 636.55 35.8 635.3 36.75 634.65 37.2 631.8 39.85 630.25 41.05 629.1 41.95 627.6 42.85
L 619.6 47.75
Q 617 49.2 615.55 49.1
L 615.4 49.1
Q 615.4 49.05 615.4 49 615.2 48.8 614.8 48.7
L 614.25 48.65
Q 614.25 48.5 614.15 48.3 613.95 47.85 613.5 47.75 612.4 47.75 611.85 47.65 611.4 47.55 610.75 47.1
M 608.9 47.6
Q 609.65 47.85 610.85 48.8 611.7 49.2 613.25 49.2 613.55 49.2 613.75 49.15
L 613.95 49.35 614.1 49.35
Q 614.05 49.45 614.05 49.55
L 612.65 56
Q 611.75 59.9 611.55 61.85 611.45 63.5 611.3 64.3 611 65.75 609.85 68.15 609.4892578125 68.9150390625 609.2 69.55 608.5134765625 71.146484375 608.3 72 607.85 73.9 607.95 77.8 608 81.9 607.95 83.6 607.9478515625 83.6673828125 607.95 83.7 607.838671875 86.90078125 607.3 89.3 607.25 89.5 606.55 92.35
L 605.65 95.5
Q 602.85 95.45 598.05 94.5
L 586.3 92.3
Q 586.4 92.15 586.45 92.05 586.6 91.7 586.55 91.5 586.65 91.3 586.65 91.05 586.8 90.15 585.95 89.3 585.4 88.75 584.4 88.2 583.05 87.4 580.55 85.6 579.65 85 578.95 84.4 578.7 84.2 577.45 82.95 577 82.55 576.5 81.9 576.2 81.45 575.75 80.4 575.35 79.35 575 78.85 573.8 77.55 573.5 76.7 573.45 76.65 573.45 76.6 574 77.05 575 77.75 575.55 78.2 576.55 79.3 576.9 79.65 577.95 80.35 579.35 81.2 582.8 82.65 586 84.05 587.55 85.1
L 591.45 88.3
Q 592.6 89.1 593.75 88.75 594.35 88.6 594.75 88.05 595.1 87.5 595 86.9 594.95 86.8 594.95 86.7 594.95 86.65 594.95 86.55 595.3 85.4 594.8 84.15 594.8 84.1 594.75 84.05 595.3 84.1 595.85 83.85
L 599.35 81.7
Q 599.95 81.35 600.35 80.95 599.55 80.95 598.45 81.6
L 595.65 83.3 594.5 83.6
Q 594.2 83.1 593.7 82.6 593.2 82 592.05 80.95 590.6 79.8 588.3 78.3
L 585.5 76.5
Q 583 74.9 581.85 74 579.9 72.55 578.65 71.05 578.1 70.4 577.85 69.85 578 69.85 578.2 69.8 578.55 69.75 579.15 69.45 579.95 69.15 580.85 69 584.1 68.2 586.15 68.2 586.9 68.3 587.55 68.4
L 588.5 68.65 589.6 69.3
Q 590.15 69.55 591.35 69.85 591.85 70.05 592.55 70.6 593.4 71.2 594.95 71.75 596.55 72.25 597.55 71.8 597.55 71.75 597.55 71.7 597.6 71.65 597.65 71.65 598.0931640625 71.50625 598.45 71.3 599.6078125 70.7625 599.95 69.85 600.55 68.3 599.2 66.85 598.6 66.15 596.6 65 593.45 63.05 592.1 62.5
L 590.2 61.85
Q 586.75 60.35 584.9 60 583.95 59.85 581.15 59.75 578.75 59.7 577.4 59.25 576.65 59 575.45 58.3 575.95 58.2 576.65 58.05 577.5 57.95 578.6 58.3 579.25 58.5 580.5 59 583.05 59.85 584.8 59.35 585.95 59.1 586.7 58.3 587.122265625 57.877734375 587.35 57.4 587.599609375 56.903515625 587.65 56.35 587.85 55.35 587.15 54.75 586.85 54.45 586.25 54.3 585.55 54.15 585.2 54.05 585.033203125 54.0037109375 584.85 53.95 584.077734375 53.6517578125 583.1 53 582.6 52.65 582.2 52.35 582 50.6 582.25 49.95 582.45 49.5 583.05 48.7 584.4 46.75 584.3 44.4 585.2 44 586.6 44.35 587.4 44.5 589 45 590.05 45.25 591.95 45.25 594.1 45.25 594.95 45.4 596.05 45.6 599.8 47 602.75 48.15 604.65 47.9 605.4 47.85 606.8 47.5 608.1 47.25 608.9 47.6
M 621.15 48.35
Q 622.3349609375 47.678515625 626.15 45.35 627.1923828125 44.774609375 628.4 44.05 631 42.45 632.1 41.4 632.85 40.7 634.25 39.2 634.45 39.05 637.05 37.1 638.75 35.85 639.45 34.7
L 640.6 34.8
Q 640.2 35.25 640.05 35.55 639.65 36.6 639.35 37.1 638.95 37.9 638.05 38.65 636.95 39.45 636.4 39.85
L 634.6 41.3
Q 634.4 41.5 633.4 42.75 631.7 44.5 631.05 45.5
L 631.1 45.65 631.15 45.75
Q 631.9 45.2 633.2 43.95
L 633.9 43.4 634.45 42.75
Q 634.8 42.3 635.2 42.05
L 636.6 40.85
Q 637 40.45 637.6 40.1
L 638.4 39.65 639.1 39
Q 639.80859375 38.2080078125 640.25 37.25 640.366796875 37.0912109375 640.45 36.9 640.5 36.8 640.6 36.65 640.55 36.75 640.6 36.95 640.662109375 36.95 640.75 36.95 640.9740234375 36.9625 641.35 37 641.75 37.05 642 36.9 642.2 36.8 642.4 36.55 642.55 36.4 642.75 36.05 643.1 35.7 643.15 35.6 643.211328125 35.4978515625 643.2 35.4 643.238671875 35.2478515625 643.15 35.1
L 642.75 35.35 642.25 35.8 642.05 36.05 642 36.1 641.95 36.25
Q 641.8 36.45 641.55 36.45
L 641.05 36.45 641.1 36.25 640.8 36.15
Q 640.95 35.8 641.15 35.3 641.5 34.8 641.8 34.6 642.55 34.15 644.25 34.3 644.25 34.44453125 644.7 34.55
L 644.75 34.55
Q 645.15 34.7 645.15 35.5
L 645.2 36.3
Q 645.15 36.5 645.05 36.8 644.95 37.25 645 37.6 644.6 37.5 644.15 37.5 643.45 37.5 643 37.7 642.75 37.8 642.05 38.65
L 640.8 40.45
Q 639.7 41.85 639.1 42.3 639.25 42.55 639.55 42.6 639.85 42.6 640.1 42.45 640.3 42.35 640.85 41.65 641.1 41.3 641.85 40.55 641.95 40.45 642.05 40.35
L 642.05 41 642.55 41.05 642.9 41.1 643.1 41.05 643.3 40.95 643.6 40.85 643.7 40.8
Q 643.876953125 40.6673828125 643.85 40.3 643.855859375 40.2521484375 643.85 40.2
L 643.35 40.35
Q 643.2779296875 40.4220703125 643.05 40.45 642.8154296875 40.548046875 642.4 40.6
L 642.4 40.05
Q 642.65 39.7 642.8 39.45 642.95 39.25 643.25 38.8 643.7 38.45 644.9 38.65 645.25 39.15 645.3 39.65 645.3849609375 40.0111328125 645.4 40.3 645.39375 40.6912109375 645.25 40.95 645.2 41.1 644.4 42 644.1 42.35 643.95 42.8 643.9 42.85 643.8 42.95
L 643.7 43.1 639.85 45.55
Q 639.15 46 638.85 46.4 638.7 46.55 638.25 47.35 637.6 48.6 636.35 49.8 635.68984375 50.416015625 634.3 51.5 634.1037109375 51.644140625 633.9 51.8
L 632.2 53.1
Q 633.0765625 52.7712890625 633.85 52.4 633.9361328125 52.3455078125 634 52.3 635.594921875 51.5251953125 636.7 50.55 638 49.4 638.95 47.75 639.3 47.05 639.5 46.8
L 641.15 45.55
Q 642.05 45.35 643.15 44.65 643.1 44.8 643.1 45.05 643.1 45.462109375 643.35 45.65 643.437109375 45.7123046875 643.55 45.75
L 644.35 45.75 644.6 45.55
Q 644.85 45.35 644.95 45.25
L 645.1 45.05
Q 645.2 44.9 645.55 44.8 645.61328125 44.7525390625 645.65 44.7 645.95 44.4208984375 645.95 44
L 644.65 44.7
Q 644.5 44.95 644.25 45 644.1962890625 45.0267578125 644.1 45.05 644.0427734375 45.05 643.95 45.05 643.7 45.05 643.6 45.05
L 643.6 44.45
Q 643.6 44.4 643.55 44.35 644 44 644.5 43.6 644.8 43.45 645.15 43.15 645.3 43 645.4 42.9 645.9 43.1 646.35 44 646.53125 44.423046875 646.6 44.7 646.65 44.88125 646.65 45 646.65 45.5 646.05 46.1 645.55 46.55 643.5 47.85 641.9 48.9 641.3 49.9 641 50.45 640.85 51.05 639.95 51.5 638.75 52.5 635.794921875 54.781640625 632.5 56.25 631.43359375 56.7470703125 630.3 57.15 630.9701171875 57.231640625 631.6 57.2 632.97109375 57.1712890625 634.25 56.7 635.45 56.25 637 55.2 637.85 54.65 639.55 53.4 640.1 53 640.65 52.75 640.65 53 640.7 53.3 641.3 53.25 641.65 52.55
L 641.8 52.2
Q 641.95 52.1 642.1 52.05 642.1 52.1 642.1 52.15 642.15 52.3 642.35 52.6 643.7 52.7 644.15 52.6 644.45 52.05 644.45 51.95 644.35 51.9 644 52.15 643.65 52.3 643.15 52.2 642.8 52.2 642.55 52 642.5 51.95 642.5 51.9 644.05 51.4 645.45 51.65
L 645.9 52.9
Q 645.63046875 53.3267578125 645.1 53.8 644.4916015625 54.3666015625 643.5 55 641.65 56.25 641.05 57.1 640.7 57.6 640.35 58.5 639.85 59.8 639.75 59.95 639.2 61.1 638.3 62.25
L 632.8 62.15 632.8 62.4 634.8 62.4 638.15 62.45
Q 636.95 63.8 635.25 65.1 631.25 67.7 629.3 69.05 626.9 70.7 623.8 73.55 621.55 75.55 619.7 77.45 615.2 81.9 612.8 85.6 611.5 87.6 611 88.2 609.85 89.6 608.65 90.2
L 608.6 90.25
Q 609.255078125 87.596875 609.35 84 609.436328125 82.105859375 609.35 79.95 609.3 76.45 609.3 76.15 609.35 74 609.75 72.4 609.8935546875 71.82578125 610.25 70.85 610.6720703125 69.812109375 611.35 68.3 612.45 65.8 612.65 64.2 612.75 62.1 612.85 61.1 612.95 60.15 613.65 57.55 614.5201171875 54.483984375 614.85 51.3 614.9486328125 50.659765625 615 50 616.1552734375 50.27734375 617.5 49.9 617.636328125 49.8841796875 617.75 49.85 619.1 49.55 621.15 48.35
M 640.85 32.05
Q 641.3 31.35 641.95 31 642.7 30.65 643.4 30.85 644.1 31.1 644.65 31.95 645.3 33 645.4 34.15 645.1 33.85 644.6 33.7 644.2 33.6 643.35 33.6 642.2 33.5 641.85 33.65 641.55 33.8 641.15 34.15 640.95 34.2 640.65 34.2 640 34.15 639.9 34.15 639.9 33.95 639.9 33.85 639.95 33.65 640.1 33.4 640.3 33.2 640.4 33.05
L 640.3 32.95
Q 640.6 32.4 640.85 32.05
M 579.1 67.95
Q 579.2875 67.903125 579.55 67.9 579.2392578125 67.9107421875 579.05 68.1 579.1 68 579.1 67.95
M 580.25 67.95
Q 580.10703125 67.90234375 580 67.9 580.4052734375 67.9 580.85 67.9 580.55 67.95 580.25 67.95
M 577.6 68.75
Q 577.6 68.6 577.55 68.5 577.7 68.3 578 68.2 577.8 68.3 577.75 68.4 577.65 68.5 577.6 68.75
M 571.5 86.7
L 571.45 86.7
Q 571.35 86.65 571.3 86.6
L 571.5 86.7
M 583.25 90.4
Q 583.55 90.35 584.1 90.35
L 584.95 90.35
Q 585.35 90.75 585.45 91.15 585.5 91.3 585.55 91.45 585.3 91.65 585.15 91.7 584.9 91.9 584.7 92
L 584.25 91.9
Q 583.2 91.7 582.25 91.55
L 582.15 91.45
Q 582.2 91.2 582.15 91 582.6 90.55 583.25 90.4
M 593.65 85.2
L 593.35 84.6
Q 593.55 84.95 593.7 85.25
L 593.65 85.2
M 614.4 77.8
L 614.4 77.9 614.35 77.9 614.35 78
Q 614.58515625 78.117578125 614.95 78.2 615.19453125 78.287890625 615.45 78.35 615.7123046875 78.4 616 78.45
L 616.05 78.4
Q 616 78.15 615.65 78.05
L 614.95 77.9 614.75 77.9 614.4 77.8
M 619.7 77.45
L 619.7 77.35
Q 617.3525390625 76.808203125 615.05 76.4 614.79765625 76.34375 614.55 76.3
L 614.15 76.3
Q 613.85 76.4 613.95 76.65 614.2025390625 76.682421875 614.45 76.7 614.5494140625 76.7341796875 614.65 76.75 616.1841796875 76.9734375 617.45 77.3 618.95 77.7 619.7 77.45
M 621.25 59.25
Q 620.2 59.55 619.7 60
L 619.75 60.2
Q 621.25 59.85 622.8 59.15 623.55 58.85 626.3 57.4
L 626.15 57.2
Q 624.95 57.55 624.15 58
L 622.9 58.7
Q 622.6 58.85 621.25 59.25
M 627.25 51.95
Q 626.45 52.05 626.1 52.2
L 625.25 52.55
Q 624.75 52.8 623.75 53
L 621.4 53.5
Q 621.4 53.85 621.95 53.85 623.3 53.8 624.65 53.4 626.65 52.75 627.85 52.1
L 627.7 51.85 627.25 51.95
M 638.2 61.65
Q 638.2 61.45 638.05 61.35
L 637.8 61.25
Q 636.950390625 61.044921875 636.25 60.9 634.6509765625 60.520703125 634.05 60.45
L 633.8 60.5
Q 633.65 60.6 633.75 60.7 634.7671875 60.8412109375 636.05 61.1 637.04765625 61.345703125 638.2 61.65
M 636.1 43.85
Q 634.95 45.75 634.3 46.7 633.5 47.85 631.5 49.75 633.25 49.3 634.8 47.1 635.2 46.55 635.95 45.3 636.7 44.25 637.25 43.6 638.05 42.6 639 42.15
L 638.75 41.9
Q 637.25 42.15 636.1 43.85
M 597.25 93.8
Q 597.1 93.95 597.15 94.05 597.4 94.15 598 94.15
L 600.25 94.25
Q 600.65 94.25 600.8 94.1
L 600.7 93.9
Q 599.15 93.7 597.55 93.75
L 597.25 93.8
M 595.9 91.75
Q 596.7 91.9 597.35 92.2
L 598.25 92.6
Q 601.35 93.95 604.85 93.85 604.95 93.7 604.85 93.5
L 601.4 92.85
Q 599.7 92.4 599.2 92.15
L 596.65 91.15
Q 592.2 89.9 590.35 89.75
L 587.75 89.7 587.4 89.75
Q 587.2 89.85 587.3 90.05 590.1 90.05 592.7 90.8
L 595.9 91.75
M 599.1 83.3
Q 599.45 83.15 599.55 82.95 599.1 82.95 598.75 83.15
L 598.05 83.55
Q 597.8 83.65 597.8 83.8 598 83.85 598.2 83.75
L 599.1 83.3
M 605.15 50.15
Q 605.05 49.85 604.4 50.1 602.65 51.15 601.75 51.65
L 600.2 52.45 598.85 53.65
Q 598.75 53.75 597 54.95
L 595.3 56.25
Q 593.4345703125 57.8169921875 591.85 59.5 591.7208984375 59.6203125 591.6 59.75 591.1927734375 60.1984375 590.8 60.65 591.75 60.4 593.1 59.05 593.219921875 58.9365234375 593.35 58.8 596.0298828125 56.2974609375 597.85 55.1
L 600.05 53.4
Q 600.6 52.95 601.8 52.25
L 604.25 50.85
Q 604.95 50.4 605.15 50.15
M 603.05 54.3
Q 603.15 54.05 602.8 54.05 602.6 54.05 602.45 54.2 600.882421875 55.148828125 599.55 56.05 596.076171875 58.5162109375 594.3 60.8 595 60.55 596 59.55 598.427734375 57.2017578125 601.45 55.25 602.233984375 54.769140625 603.05 54.3 Z"/>

<path fill="#FFFFFF" stroke="none" d="
M 593.35 84.6
L 593.65 85.2 593.7 85.25
Q 593.55 84.95 593.35 84.6
M 571.45 86.7
L 571.5 86.7 571.3 86.6
Q 571.35 86.65 571.45 86.7
M 577.55 68.5
Q 577.6 68.6 577.6 68.75 577.65 68.5 577.75 68.4 577.8 68.3 578 68.2 577.7 68.3 577.55 68.5
M 580 67.9
Q 580.10703125 67.90234375 580.25 67.95 580.55 67.95 580.85 67.9 580.4052734375 67.9 580 67.9
M 579.55 67.9
Q 579.2875 67.903125 579.1 67.95 579.1 68 579.05 68.1 579.2392578125 67.9107421875 579.55 67.9 Z"/>

<path fill="#F9E0A0" stroke="none" d="
M 599.15 50.05
L 598.95 50.05
Q 594.65 51.15 590.85 52.15 587.6591796875 53.0181640625 584.85 53.95 585.033203125 54.0037109375 585.2 54.05 585.55 54.15 586.25 54.3 586.85 54.45 587.15 54.75 587.85 55.35 587.65 56.35 587.599609375 56.903515625 587.35 57.4 587.122265625 57.877734375 586.7 58.3 585.95 59.1 584.8 59.35 583.05 59.85 580.5 59 579.25 58.5 578.6 58.3 577.5 57.95 576.65 58.05 575.95 58.2 575.45 58.3 576.65 59 577.4 59.25 578.75 59.7 581.15 59.75 583.95 59.85 584.9 60 586.75 60.35 590.2 61.85
L 592.1 62.5
Q 593.45 63.05 596.6 65 598.6 66.15 599.2 66.85 600.55 68.3 599.95 69.85 599.6078125 70.7625 598.45 71.3 598.0931640625 71.50625 597.65 71.65 597.6 71.65 597.55 71.7 597.55 71.75 597.55 71.8 596.55 72.25 594.95 71.75 593.4 71.2 592.55 70.6 591.85 70.05 591.35 69.85 590.15 69.55 589.6 69.3
L 588.5 68.65 587.55 68.4
Q 586.9 68.3 586.15 68.2 584.1 68.2 580.85 69 579.95 69.15 579.15 69.45 578.55 69.75 578.2 69.8 578 69.85 577.85 69.85 578.1 70.4 578.65 71.05 579.9 72.55 581.85 74 583 74.9 585.5 76.5
L 588.3 78.3
Q 590.6 79.8 592.05 80.95 593.2 82 593.7 82.6 594.2 83.1 594.5 83.6
L 595.65 83.3 598.45 81.6
Q 599.55 80.95 600.35 80.95 599.95 81.35 599.35 81.7
L 595.85 83.85
Q 595.3 84.1 594.75 84.05 594.8 84.1 594.8 84.15 595.3 85.4 594.95 86.55 594.95 86.65 594.95 86.7 594.95 86.8 595 86.9 595.1 87.5 594.75 88.05 594.35 88.6 593.75 88.75 592.6 89.1 591.45 88.3
L 587.55 85.1
Q 586 84.05 582.8 82.65 579.35 81.2 577.95 80.35 576.9 79.65 576.55 79.3 575.55 78.2 575 77.75 574 77.05 573.45 76.6 573.45 76.65 573.5 76.7 573.8 77.55 575 78.85 575.35 79.35 575.75 80.4 576.2 81.45 576.5 81.9 577 82.55 577.45 82.95 578.7 84.2 578.95 84.4 579.65 85 580.55 85.6 583.05 87.4 584.4 88.2 585.4 88.75 585.95 89.3 586.8 90.15 586.65 91.05 586.65 91.3 586.55 91.5 586.6 91.7 586.45 92.05 586.4 92.15 586.3 92.3
L 598.05 94.5
Q 602.85 95.45 605.65 95.5
L 606.55 92.35
Q 607.25 89.5 607.3 89.3 607.838671875 86.90078125 607.95 83.7 607.9478515625 83.6673828125 607.95 83.6 608 81.9 607.95 77.8 607.85 73.9 608.3 72 608.5134765625 71.146484375 609.2 69.55 607.4556640625 67.45546875 605.55 65.5 600.7 61.05 600.45 60.6 600.65 60.55 602.85 59.7 605.15 58.9 605.85 58.85 605.65 58.7 605.65 58.5 603.65 57.2 602.95 56.7 601.7640625 55.909375 601.45 55.25 598.427734375 57.2017578125 596 59.55 595 60.55 594.3 60.8 596.076171875 58.5162109375 599.55 56.05 595.714453125 57.75859375 593.35 58.8 593.219921875 58.9365234375 593.1 59.05 591.75 60.4 590.8 60.65 591.1927734375 60.1984375 591.6 59.75 591.7208984375 59.6203125 591.85 59.5 590.4712890625 60.114453125 589.9 60.4 590.3 59.2 594.7 54.55 598.55 50.5 599.15 50.05
M 603.35 76.7
L 603.35 76.9
Q 600.5 77.65 597.25 79.1 594.15 80.5 594.15 80.95
L 593.75 80.95
Q 593.95 80.15 593.95 78.45 593.55 78.45 592.3 78.35 591.05 78.25 590.3 78.25
L 590.3 78.05 590.7 78.05
Q 592.35 77.95 597.55 76.55 600.261328125 75.830078125 601.85 75.25 601.4599609375 75.5685546875 600.95 75.9 598.8 77.15 598.35 77.5
L 598.55 77.5
Q 600.05 76.9 603.35 76.7
M 599.55 82.95
Q 599.45 83.15 599.1 83.3
L 598.2 83.75
Q 598 83.85 597.8 83.8 597.8 83.65 598.05 83.55
L 598.75 83.15
Q 599.1 82.95 599.55 82.95
M 597.35 92.2
Q 596.7 91.9 595.9 91.75
L 592.7 90.8
Q 590.1 90.05 587.3 90.05 587.2 89.85 587.4 89.75
L 587.75 89.7 590.35 89.75
Q 592.2 89.9 596.65 91.15
L 599.2 92.15
Q 599.7 92.4 601.4 92.85
L 604.85 93.5
Q 604.95 93.7 604.85 93.85 601.35 93.95 598.25 92.6
L 597.35 92.2
M 597.15 94.05
Q 597.1 93.95 597.25 93.8
L 597.55 93.75
Q 599.15 93.7 600.7 93.9
L 600.8 94.1
Q 600.65 94.25 600.25 94.25
L 598 94.15
Q 597.4 94.15 597.15 94.05 Z"/>

<path fill="#FFF3CB" stroke="none" d="
M 603.35 76.9
L 603.35 76.7
Q 600.05 76.9 598.55 77.5
L 598.35 77.5
Q 598.8 77.15 600.95 75.9 601.4599609375 75.5685546875 601.85 75.25 600.261328125 75.830078125 597.55 76.55 592.35 77.95 590.7 78.05
L 590.3 78.05 590.3 78.25
Q 591.05 78.25 592.3 78.35 593.55 78.45 593.95 78.45 593.95 80.15 593.75 80.95
L 594.15 80.95
Q 594.15 80.5 597.25 79.1 600.5 77.65 603.35 76.9
M 610.85 48.8
Q 609.65 47.85 608.9 47.6 608.1 47.25 606.8 47.5 605.4 47.85 604.65 47.9 602.75 48.15 599.8 47 596.05 45.6 594.95 45.4 594.1 45.25 591.95 45.25 590.05 45.25 589 45 587.4 44.5 586.6 44.35 585.2 44 584.3 44.4 584.4 46.75 583.05 48.7 582.45 49.5 582.25 49.95 582 50.6 582.2 52.35 582.6 52.65 583.1 53 584.077734375 53.6517578125 584.85 53.95 587.6591796875 53.0181640625 590.85 52.15 594.65 51.15 598.95 50.05
L 599.15 50.05
Q 598.55 50.5 594.7 54.55 590.3 59.2 589.9 60.4 590.4712890625 60.114453125 591.85 59.5 593.4345703125 57.8169921875 595.3 56.25
L 597 54.95
Q 598.75 53.75 598.85 53.65
L 600.2 52.45 601.75 51.65
Q 602.65 51.15 604.4 50.1 605.05 49.85 605.15 50.15 604.95 50.4 604.25 50.85
L 601.8 52.25
Q 600.6 52.95 600.05 53.4
L 597.85 55.1
Q 596.0298828125 56.2974609375 593.35 58.8 595.714453125 57.75859375 599.55 56.05 600.882421875 55.148828125 602.45 54.2 602.6 54.05 602.8 54.05 603.15 54.05 603.05 54.3 602.233984375 54.769140625 601.45 55.25 601.7640625 55.909375 602.95 56.7 603.65 57.2 605.65 58.5 605.65 58.7 605.85 58.85 605.15 58.9 602.85 59.7 600.65 60.55 600.45 60.6 600.7 61.05 605.55 65.5 607.4556640625 67.45546875 609.2 69.55 609.4892578125 68.9150390625 609.85 68.15 611 65.75 611.3 64.3 611.45 63.5 611.55 61.85 611.75 59.9 612.65 56
L 614.05 49.55
Q 614.05 49.45 614.1 49.35
L 613.95 49.35 613.75 49.15
Q 613.55 49.2 613.25 49.2 611.7 49.2 610.85 48.8 Z"/>
</g>

<path id="Layer0_0_MEMBER_1_1_STROKES" stroke="#E1C99B" stroke-width="2" stroke-linejoin="round" stroke-linecap="round" fill="none" d="
M 1.8392761230468757 115.25781555175782
L 149.55854187011718 115.25781555175782 149.55854187011718 154.63890380859374 1.8392761230468757 154.63890380859374 1.8392761230468757 115.25781555175782 Z"/>
</defs>

<g transform="matrix( 1.07159423828125, 0, 0, 0.802642822265625, -21.2,-13.65) ">
<use xlink:href="#Layer0_0_MEMBER_0_FILL"/>
</g>

<g transform="matrix( 1.07159423828125, 0, 0, 1.07159423828125, -21.2,-4.6) ">
<use xlink:href="#Layer0_0_MEMBER_1_1_STROKES" transform="matrix( 0.9331817626953125, 0, 0, 0.9331817626953125, 19.75,4.25) "/>
</g>

<g transform="matrix( 1, 0, 0, 1, -514.75,-7.9) ">
<use xlink:href="#Layer0_0_MEMBER_2_FILL"/>
</g>
</svg>
