
<svg xmlns="http://www.w3.org/2000/svg" version="1.1" xmlns:xlink="http://www.w3.org/1999/xlink" preserveAspectRatio="none" x="0px" y="0px" width="121px" height="122px" viewBox="0 0 121 122">
<defs>
<g id="Layer0_0_MEMBER_0_FILL">
<path fill="#B8BE79" stroke="none" d="
M 21.5 19.95
L 21.5 157.8 159.35 157.8 159.35 19.95 21.5 19.95 Z"/>
</g>

<g id="Layer0_0_MEMBER_1_FILL">
<path fill="#E1C99B" stroke="none" d="
M 21.5 111.85
L 21.5 148.6 159.35 148.6 159.35 111.85 21.5 111.85 Z"/>
</g>

<g id="Layer0_0_MEMBER_2_FILL">
<path fill="#3B3D35" stroke="none" d="
M 539.8 243
Q 537.25 245.15 536.75 246.7 536.5 247.35 536.4 249.2 536.4 250.05 536.55 250.4 536.7 250.7 537.5 251.25 539.25 252.4 542.85 254.5 543.9 255.15 544.85 255.8 546.6 257.05 547.85 258.15 549.4 259.55 549.85 259.9 550.9 260.7 552.15 261.25 552.2 261.3 552.3 261.4 554.4 262.9 556.25 263.8 559 265.15 560.85 264.95 561.35 264.95 561.6 264.75 561.85 264.55 562.05 263.95 562.2 263.4 562.2 262.65 563.5 262.35 564.1 261.55 564.6 260.85 564.25 260.45 564.2 260.4 564.1 260.35 564.35 259.45 564.2 258.45 564.05 257.95 563.85 257.4 563.4 256.2 562.05 254.45 559.95 251.8 558 250.8 557.8 250.65 555.55 249.75
L 553.1 248.8
Q 550.95 247.95 549.85 247.25 549.05 246.75 547.75 245.7 546.3 244.6 545.65 244.15 544.1 243.2 542.35 242.75 541.95 242.65 541.55 242.6 541.2 242.3 540.7 242.45 540.55 242.5 539.8 243
M 541.4 243.3
Q 541.45 243.45 541.6 243.55 541.9 243.75 542.6 243.95 544.2 244.45 546.5 246.4 549.05 248.55 550.3 249.1 551.05 249.45 552.6 250
L 553.2 250.35 549.5 250.7 549.4 250.9
Q 551 250.9 553 250.65 553.35 250.6 553.7 250.6
L 554.15 250.85 555 251.15
Q 553.9 251.1 552.45 251.1
L 550.45 251.1
Q 550 251.1 549.85 251.25
L 549.85 251.5
Q 552.95 251.6 556.05 251.5
L 556.7 251.75
Q 558.3 252.4 559.9 254.1 561.7 256 562.7 258.45 563.05 259.4 563.35 260.5 562.95 260.7 562.75 260.85 561.9 261.45 560.05 261.35 553.9 261.1 550.5 258.55 550.2 258.35 549.9 258.05 549.2 257.5 548.3 256.65 546.5 255.1 543.65 253.4 540.4 251.55 538.75 250.55 537.95 249.95 537.8 249.7 537.55 249.35 537.55 248.75 537.4 247.1 538.8 245.25 539.6 244.25 541 243.2 541.1 243.3 541.25 243.3
L 541.4 243.3
M 560.25 257.8
Q 559.75 257.65 558.6 257.55
L 556.8 257.4
Q 556.25 257.3 555.7 257.4
L 555.7 257.55
Q 555.95 257.6 556.2 257.65 557.9 257.9 559.9 257.9 560.2 257.9 560.25 257.8
M 577 192.9
Q 576.6 193 576.1 193.5 571.05 198.25 562.8 205.5
L 558.1 209.7
Q 551.25 215.65 548.1 219.4 547.85 219.7 547.7 219.95 547.15 220.7 547.05 221.2 546.95 221.8 547.2 222.3 547.5 222.8 547.95 222.95
L 546.6 224.15
Q 546.85 224.35 547.1 224.4 547 224.45 546.95 224.45
L 546.95 224.85
Q 548.5 225.25 551.25 227.6
L 552.75 228.8
Q 554.75 230.3 556.15 230.25 557 230.25 558.6 229.85 559.3 229.75 559.85 230.05 560.5 230.35 560.65 230.9 560.45 231.15 560 231.4 559.3 231.75 559.25 231.8 558.3 232.45 558.5 233.2 558.65 233.65 559.5 234.05 560.1 234.4 561.35 235.05 561.7 235.3 563.5 236.85 564.7 237.75 567.3 239.3 568.25 240.05 568.65 240.3 569.45 240.75 570.15 240.55 570.55 240.45 571.3 239.9 571.95 239.45 572.45 239.4 572.95 239.35 573.55 239.7 573.85 239.9 574.4 240.25
L 573.9 240.75
Q 573.35 241.3 573.15 241.65 572.9 242.25 573.1 242.75 573.25 243 573.65 243.3
L 578.35 246.6
Q 580.8 248.25 582.35 248.8 583.35 249.15 584 249 584.4 248.9 585.35 248.3 586.15 247.7 586.7 247.75 587.1 247.75 587.8 248.15 588.2 248.35 588.55 248.55
L 587.55 249.35
Q 586.9 250.1 587.15 250.8 587.35 251.3 588.4 251.7 590.6 252.6 593.35 254.65 594.95 255.8 598 258.15 598.7 258.65 599.05 258.4 599.1 258.35 599.2 258.3 599.2 258.6 599.45 258.65 599.7 258.75 600.15 258.4
L 601 257.7
Q 601.75 257.15 602.15 257.25 602.65 257.3 603.15 258 602.1 258.95 602.15 259.65 602.2 260.35 603.2 261.05 603.65 261.35 606.8 263.2 608.4 264.1 610.15 265.3
L 613.2 267.25
Q 614 267.75 614.5 267.65 614.6 267.55 614.7 267.5 615.95 266.55 617.45 266.55 618.15 266.5 619.6 266.5 620.5 266.25 621.25 265.35 621.55 264.95 622.45 263.55 623.2 262.35 625.1 260.15
L 629.65 254.85
Q 634.05 249.65 637.25 246.15
L 639.35 243.85
Q 641.65 241.25 645 236.8
L 647.5 233.55
Q 648.5 232.1 648.45 231.4 648.45 230.75 647.95 230.3 647.45 229.85 646.9 230.1 646.85 230.1 646.8 230.15 646.35 229.4 645.05 228.8 642.5 227.55 634.95 224.5 628.6 221.9 625.05 219.85 622.45 218.3 618.95 215.65 618.65 215.45 618.4 215.25 614.65 212.25 612.55 210.7 612.25 210.5 612 210.3 611.2 209.75 610.35 209.15 604.45 205.1 595.35 200.35 588.75 196.95 585.95 195 583.25 193 581.8 192.55 580.55 192.2 579.4 192.4 578.4 192.6 577.75 193.2 577.6 192.8 577 192.9
M 577.8 193.55
Q 579.55 193.35 580.45 193.55 581.65 193.75 583.05 194.55 583.6 194.85 585.35 196.1 588.95 198.6 595.95 202.3 603.55 206.35 606.65 208.35 607.35 208.8 608.3 209.45 609.3 210.2 610.7 211.2 612.75 212.7 615.55 214.85 616.25 215.4 616.9 215.9 621.5 219.35 624.55 221.1 627.65 222.9 635.65 226.3
L 646.65 230.85
Q 646.8 230.95 647.15 231.05 647.6 231.3 647.4 231.9 647.3 232.25 646.8 232.65 645.2 234.2 643.05 237.15 640.4 240.8 639.5 241.85 639.15 242.25 635.15 246.4 633.35 248.35 631.3 250.8
L 627.55 255.1
Q 622.55 260.95 620.7 263.6 619.85 264.7 619.5 264.9 618.8 265.3 617.45 265.3 616 265.4 615.4 265.75 614.95 266 614.7 266.55 614.65 266.7 614.65 266.8 614.4 266.4 613.85 266.05
L 613.05 265.65
Q 612.5 265.25 612.2 265.05 610.35 263.75 608.7 262.8 606.9 261.8 606 261.3 604.45 260.4 603.45 259.6 604.3 259.15 604.3 258.1 604.3 257.1 603.6 256.5 602.7 255.7 601.6 256
L 601.05 256.2
Q 600.2 256.6 599.55 257.45 599.4 257.55 599.3 257.7 599.3 257.65 599.25 257.55 599.15 257.3 598.65 256.9 593.9 252.75 588.35 250.25 588.8 249.7 589.25 249.3
L 589.25 249.1 589.5 248.7 590.15 248
Q 590.2 247.95 590.25 247.95
L 590.2 247.9
Q 590 247.7 589.75 247.75 589.6 247.6 589.45 247.5 587.85 246.4 586.75 246.3 585.75 246.25 584.85 246.8 583.75 247.5 583.7 247.5 583.1 247.65 582 247.1
L 576.1 243.5
Q 575.1 242.9 574.65 242.4 574.45 242.2 574.45 242.05 574.45 241.9 574.65 241.6
L 575.35 240.8
Q 575.7 240.95 576.15 241 576.25 240.55 575.9 240.05 576 239.85 576 239.75 576 239.15 575.55 239.15
L 575.3 239.4
Q 573.95 238.25 573 238.05 571.95 237.8 571 238.5 570.2 239.05 570.15 239.05 569.6 239.2 568.7 238.6
L 562.95 234.7
Q 561.3 233.5 560.1 233 560.3 232.65 561 232.15 561.7 231.65 561.9 231.25 562.15 230.65 561.75 230 561.35 229.45 560.7 229.05 559.25 228.3 557.6 228.6 556.1 229 555.8 228.95 555 228.9 553.65 227.85
L 550.65 225.55
Q 549.05 224.4 547.9 224.35
L 547.95 224.3
Q 548.45 224.05 549.05 223.45 549.45 222.95 549.35 222.7 549.3 222.45 548.9 222.3 548.35 222.1 548.25 222 547.6 221.35 548.65 220.45
L 549.5 219.6 555.4 213.8
Q 558.65 210.65 560.4 209.15
L 564.5 205.8
Q 568.6 202.45 577.4 194.2 577.75 193.75 577.8 193.55
M 555.65 217.4
Q 555.15 217.5 555 217.6 554.9 217.65 554.65 218.05 554.15 218.35 554 218.55 553.9 218.65 553.8 218.85 553.7 218.95 553.6 219.15 553.35 219.6 553.15 219.75 552.65 219.95 552.4 220.2
L 552.2 220.5
Q 551.85 220.95 551.95 221.2 552.7 221 553.55 220.25 554 219.8 554.9 218.85 555.05 218.7 555.25 218.6 555.55 218.3 555.85 218.25 556.15 218.2 556.55 218.35 556.7 218.4 556.9 218.5 557.95 218.85 559.05 219.4 559.75 219.75 559.95 219.95 560.3 220.3 560.75 221.1
L 562.4 222.45
Q 562.9 222.8 563.95 223.3 564.25 223.6 564.2 223.8 564.2 224.05 563.8 224.35 563.1 225.35 562.7 225.85
L 561.95 226.8 561 228.65 561.35 228.75
Q 562.1 228.1 562.55 227.5
L 564.95 224.6
Q 565.55 223.85 565.4 223.2 565.25 222.75 564.45 222.25
L 563.15 221.45
Q 561.95 220.65 561.55 220.1
L 560.8 219.2 558.95 218.25 558.3 218.05 557.8 217.85
Q 557.15 217.5 556.8 217.4 556.2 217.3 555.65 217.4
M 597.4 227.05
Q 599 225.95 602.05 222.7
L 609 215.1
Q 608.05 215.4 606.75 216.8
L 597.4 227.05
M 588.95 204.6
Q 588.8 204.7 588.7 204.85 588.6 204.8 588.55 204.8 588.4 204.8 588.1 205
L 585.35 207.1 584.75 207.65
Q 583.85 208.5 582.45 210.05 580.9 211.85 580.25 212.5
L 578.7 214.15
Q 578.55 214.3 578.5 214.45 578.15 214.8 578 214.9
L 577.2 215.5 575.75 217.55
Q 575.55 217.4 575.35 217.45 575.1 217.55 574.95 217.85 573.35 220.65 572.95 224.15 572.85 226 573.75 226.55 574.15 226.75 575 226.75
L 576.7 226.75
Q 578.35 226.75 579.15 226.6 579.9 226.45 581.05 225.85 582.95 224.85 584.15 223.65 585.15 222.7 586.7 220.7 587.35 219.9 587.85 219.3 588.7 218.25 589.2 217.7 589.7 217.2 590.2 216.75 590.9 216.1 591.7 215.45 593.8 213.55 595.75 211.45 596 211.15 596.3 210.85 597.85 209.2 597.6 208 597.4 207 595.9 206 594.1 204.8 592.7 204.1 592 203.65 591.35 203.6 590.35 203.5 588.95 204.6
M 591 204.9
Q 591.3 204.9 591.9 205.2 595.25 206.85 596.55 208.4 595.1 210.25 593.6 211.85 593.15 212.2 592.75 212.6 589.5 215.3 588.1 216.85 587.85 217.1 587.6 217.45 587 218.1 586.3 219.05 586.1 219.3 585.95 219.5 584.85 220.9 584.55 221.25 582.35 223.85 580.2 224.75 578.4 225.55 575.85 225.55 574.8 225.65 574.35 225.1 573.95 224.65 574.15 223.5 574.65 221.15 575.75 218.9 576.05 218.3 576 217.95 576 217.9 576 217.85 576.65 217.45 577.5 216.45
L 578.25 215.9 586.65 206.65 587.3 206.1
Q 587.6 205.9 588.2 205.7
L 588.25 205.7
Q 588.25 205.75 588.3 205.8
L 589.8 205.15
Q 590.6 204.85 591 204.9
M 588.45 210
Q 588 210.15 587.5 210.55 586.2 211.5 585.4 212.3 584.75 212.85 584.35 213.4 584.25 213.45 584.2 213.55
L 580.65 217.45
Q 579 219.2 577.5 221.05
L 576.65 222.25
Q 576.8 222.35 577.05 221.95
L 577.8 221.2
Q 578.15 220.85 578.9 220.1 579.05 219.9 579.25 219.75 579.55 219.35 580 218.85 580.55 218.2 583.6 214.9
L 586.35 212 587.95 210.75
Q 588.6 210.45 588.45 210
M 606.8 255.15
Q 607.05 255.05 607 254.8
L 608.6 253.35
Q 609.65 252.5 610.55 252.5 610.95 252.4 611.25 252.65
L 611.8 253.2
Q 612 253.4 613.15 253.9 613.5 254 614.1 254.4 616.15 255.55 618.75 256.7
L 620.15 257.3
Q 621.1 257.75 621.05 258.3 621 258.6 620.65 258.95 619.95 259.75 619.55 260.1 618.9 260.85 618.65 261.25 618.3 262.1 618.4 262.65 618.8 262.6 619.6 261.65 619.95 261.2 621.35 259.95 621.85 259.5 621.95 259.1 622.15 258.7 622.15 258.15 622.15 257.5 621.9 257.2 621.65 256.7 620.9 256.45 619.1 255.55 618.2 255.2 617.15 254.8 617.05 254.75 615.75 253.9 615.05 253.5 613.55 252.9 612.85 252.5
L 611.75 251.9
Q 611.1 251.5 610.6 251.45 609.7 251.4 608.55 252.15
L 606.9 253.65
Q 606.45 253.95 606.3 254.25 606.05 254.8 606.35 255.1 606.55 255.25 606.8 255.15
M 591.65 246
Q 591.85 246.25 592.3 246.15
L 592.9 245.7
Q 593.7 244.8 594.55 244.25 594.95 243.95 595.2 243.95 595.4 243.95 595.8 244.15 597.65 245.1 599.65 246.55 602.3 248.35 603.55 248.7 604.4 248.9 604.65 249.05 605.3 249.4 605.2 250 605.2 250.25 604.9 250.65
L 602.7 253.85 603.05 253.95
Q 604.1 253.3 605.65 251.25
L 606.15 250.4
Q 606.4 249.8 606.15 249.15 605.95 248.5 605.4 248.15 605.1 247.95 604 247.6 603.15 247.35 602.45 246.95 602.2 246.8 600.6 245.75 598.8 244.5 596.55 243.3 595.65 242.8 595.1 242.75 594.7 242.75 594.4 242.9
L 593.9 243.45 592.7 244.55
Q 592.15 245.15 591.65 246
M 593.45 223.65
L 593.35 223.45 592.65 223.4 592.65 223.45 592.55 223.45 592.4 223.55 592.1 223.65
Q 591.55 223.9 591.25 224.4 591.35 224.6 591.55 224.5
L 591.9 224.4 593.45 223.65
M 599.95 226.85
Q 600.65 226.35 602.35 224.75 603.8 223.4 604.8 222.85
L 604.75 222.6
Q 602.85 223.8 600 226.7 599.85 226.85 599.95 226.85
M 582.2 234.7
Q 581.75 234.7 581.5 234.9 581.2 235.05 580.95 235.4 579.95 236.8 579.55 237.2
L 579 237.8
Q 578.75 238.25 578.95 238.6
L 579.5 238.6
Q 580.5 237.3 581.7 236.25 582 235.95 582.05 235.75 582.45 235.6 583.1 235.8 583.45 235.9 584.15 236.1 584.4 236.2 584.95 236.35 585.1 236.4 585.55 236.85 586.15 237.4 587.35 237.9 588.9 238.55 589.25 238.75 589.85 239.05 590.95 239.7 591.35 239.9 591.4 240 591.6 240.3 591.3 240.95 590.95 241.55 590.6 241.9
L 589.85 242.5 588.05 245.1 588.15 245.3
Q 588.35 245.1 589 244.65 589.55 244.3 589.8 244 590.1 243.75 590.6 243.15 590.85 243 591.4 242.7 591.55 242.6 592.05 241.7 592.4 241.25 592.45 241.1 592.55 240.9 592.55 240.15 592.55 239.65 592.45 239.4 592.3 239 591.6 238.7
L 586.35 236.1 586 235.75 585.05 235.2
Q 583.8 234.6 582.2 234.7
M 579.35 233
L 577.75 235
Q 576.7 236.25 576.4 237.15 576.3 237.8 576.5 238
L 577.9 236.45
Q 579.5 234.65 580.15 233.8 580.85 233 580.8 232.45 580.8 231.7 579.55 230.85 577.6 229.6 576.95 229.3
L 575.6 228.65 574.4 227.8
Q 571.55 225.65 568.7 225.7 567.95 225.85 567.8 225.9
L 567.05 226.5 565.7 227.95
Q 564.9 228.75 564.9 229.4 564.95 229.55 565.15 229.55 565.3 229.5 565.4 229.4
L 565.75 228.9
Q 565.8 228.85 566.3 228.6 566.7 228.4 567.4 227.65 568.05 226.95 568.55 226.8 569.15 226.6 570.4 226.9 571.6 227.25 572.25 227.65 573 228.05 574.35 229.2 575.3 229.85 577.4 230.8 578 231.15 579.2 232.05 579.55 232.3 579.55 232.55 579.55 232.7 579.35 233
M 621.1 246.7
Q 621.55 246.05 621.6 245.85 621.45 245.85 621.2 246.1 620.1 247.35 619.75 248.45 619.6 248.8 619.65 249.15 619.9 249.1 620 248.6 620.15 247.85 621.1 246.7
M 624.05 237.35
Q 622.7 238.65 622.45 238.95 621.6 239.9 621.3 240.8 625.15 237.5 628.5 233.35 629 232.75 628.65 232.45
L 628.35 232.5
Q 625.1 236.35 624.05 237.35
M 607.8 237.9
Q 609.65 235.85 610.8 235.2
L 610.6 235
Q 610.1 235.05 609.15 235.9 606.3 238.65 605.25 240.3 604.85 240.85 604.25 242.05
L 604.65 242.15
Q 605.5 240.6 607.8 237.9
M 617.05 245.65
Q 616.55 246.35 616.4 246.75 616.2 247.2 616.1 248.6 616 251.65 616.75 252.95 617.2 253.6 617.7 253.85 618.1 254 618.9 254 621.15 253.95 623.4 253.3 625.7 252.6 626.75 252 628.6 251 631.35 247.75 634.05 244.4 637.1 239.9 638.7 237.5 639.65 236.55 640.85 235.25 641 234.95 641.4 234.25 641.5 233.25 641.6 232.1 641 231.5 640.5 230.95 639.2 230.85 637.65 230.7 637.2 230.45 636.7 230.15 635.85 229.15 635.05 228.2 634.45 227.95 633 227.45 631.6 228.75 630.45 229.75 630.3 231.1
L 632.2 229.65
Q 633 229.05 633.5 229.1 634.2 229.1 635.1 230.25 636.15 231.55 637.1 231.8
L 638.75 231.95
Q 639.8 232.05 640.1 232.7 640.45 233.35 640 234.05 639.75 234.45 639.1 235.1 638.15 236.1 636.55 238.3 631.7 245.15 630.1 247.1 627.9 249.85 625.85 251 624.85 251.5 623.25 251.95 621.1 252.55 619.35 252.75 618.65 252.75 618.5 252.7 617.95 252.55 617.7 251.85 617.45 251.3 617.35 249.25 617.25 247.85 617.35 247.45 617.45 247.05 618 246.1
L 618.95 244.65
Q 619.35 244.05 619.4 243.7 619.5 242.95 619 242.75
L 617.05 245.65
M 619.2 221.25
Q 618.55 221.45 617.85 222.15 616.35 223.6 615.05 225.4 616.45 224.75 617.4 224 617.75 223.7 618.45 223.1 619.1 222.6 619.65 222.5 620.35 222.4 622.1 223.15 623.75 223.8 624.25 224.3 624.75 224.8 624.9 225.55 625.05 226.3 624.8 226.95 624.5 227.75 623.15 228.9 620.4 231.3 618.55 233.8
L 616.8 236.2
Q 615.95 237.35 613.45 239.85 611.85 241.45 610.95 242.15 606.95 245.1 602.2 244.55 602.2 242.8 602.7 239.4
L 602.9 237.95
Q 602.9 238 602.95 238.1 603.15 237.95 603.25 237.25
L 603.5 236.55
Q 604.05 235.55 605.15 234.15
L 606.25 233
Q 607.1 232.1 608.55 231 609.05 230.6 609.15 230.35 609.55 230.25 610 229.8
L 610.75 229.05
Q 611 228.85 611.55 228.6 612.5 228.05 613.85 226.7 614.4 226.15 614.25 225.75 614.05 225.75 613.75 226.05 613.45 226.4 611.6 227.75
L 609.4 229.4
Q 608.55 230.1 607.5 230.75 606.9 231.25 606.8 231.35
L 606.35 231.9 605.7 232.4
Q 605.1 232.9 604.6 233.6 603.6 234.8 603.2 235.7 602.85 236.5 602.85 237.25 601.95 238.5 601.55 240.1 601.15 241.65 601.05 244.2 601.05 245 601.3 245.3 601.45 245.5 602.25 245.75 605.9 246.3 609.3 244.75 611.85 243.55 615.15 240.25 616.9 238.5 618.1 236.9
L 619.3 235.25
Q 621.55 232.2 623.55 230.5 624.8 229.4 624.95 229.25 625.7 228.5 625.9 227.75 626.05 227.25 626.05 226.15 626.05 224.65 625.6 223.85 625.15 223.15 624.05 222.6 623.2 222.15 621.4 221.45 620 220.95 619.2 221.25
M 612.4 216.4
Q 612.35 216.2 612.25 215.95 611.95 215.1 611.25 214.75 609.95 214.35 609.35 213.4 608.75 212.4 607.7 212 607.4 211.85 607.05 211.8 605.7 211.65 604.3 212.25 603.7 212.25 603.05 212.6 602.6 212.85 601.85 213.6 601.6 213.8 601.3 214.1
L 597.4 218.15 594.35 221.3
Q 593.95 221.8 594.05 222.1 594.2 222.4 594.7 222.3 595.05 222.15 595.25 221.85
L 601.85 214.6
Q 603.3 212.95 604.5 212.9 605.1 212.9 605.25 212.65
L 605.3 212.65
Q 605.35 212.65 605.45 212.65 606.9 212.65 607.7 213.65 608.3 214.4 609 215.1 609.85 215.9 610.9 216.6 611 216.65 611.1 216.7 611 217.1 610.75 217.4 608.15 220.9 605.15 224.05 602.25 227.05 600.05 230.45 599.55 231.05 599.05 231.65 597.15 233.95 594.15 234.5 591.2 235.1 588.3 234.55 587.5 231.2 589.25 228.05 589.6 227.35 589.15 226.75 589 226.7 588.95 226.75 588.1 227.35 587.7 228.35 587.35 229.15 587.15 229.95 586.7 232.1 586.8 234.55 586.85 235.2 587.35 235.6 590.55 236.5 593.85 235.9 595.25 235.9 596.7 235.15 600.2 233.2 602.3 229.8 602.7 229.15 603.2 228.6 604.95 226.95 606.55 225 607.5 223.95 608.75 222.95 610.95 221.2 612.05 218.85
L 612 218
Q 612.5 217.2 612.4 216.4
M 578.65 197.5
Q 578.15 197.5 577.75 197.7 577.25 198 577.3 198.5 579.65 198.45 581.75 199.6 582.55 200.1 582.8 200.5 583.25 201.25 582.8 201.85 582.2 202.25 581.95 202.5 581.75 202.65 581.25 203.5 580.95 203.95 580.35 204.5 579.4 205.3 579.3 205.4 579.05 205.65 577.7 207.25
L 576.2 208.85
Q 572.2 212.95 569.35 215 568.1 215.85 566.9 216.4 566.75 216.45 566.6 216.55 564.75 217.25 562.85 217.2 562.2 217.2 561.6 217.1 561.5 215.35 562.3 214 562.55 213.45 562.55 213.15 562.6 213.2 562.75 213.2 562.95 213.2 563 213.05 563.95 211.85 565.2 210.5
L 571.1 204.7
Q 571.7 204.35 572.05 204 572.2 203.85 573.3 202.65
L 576.85 199.9 576.7 199.7
Q 575.3 200.35 573.8 201.2 572.85 201.7 572.35 202.35
L 571.75 203.1 570 204.55 565.35 209.3
Q 563.9 210.85 562.9 212.1 562.5 212.55 562.5 212.95 562.45 212.75 562.3 212.7 561.15 213.35 560.7 214.9 560.5 215.6 560.5 217.65
L 560.5 217.7
Q 560.5 218.05 560.6 218.15 560.75 218.25 561.05 218.25
L 561.65 218.3
Q 564.75 218.4 566.25 218.05 568.1 217.55 570.45 215.85 571 215.45 571.6 214.95 575.3 211.95 578.15 208.75 580.15 206.35 581.15 205.55 582 204.8 582.15 204.65 582.45 204.35 582.9 203.65 583.2 203.3 583.85 202.65 584.3 202.05 584.35 201.25 584.35 200.45 583.95 199.8 583.45 199.05 582.1 198.3 580.8 197.6 580.05 197.5 579.6 197.4 578.65 197.5
M 572.95 209.95
Q 573.25 209.65 573.6 209.5
L 573.55 209.25 573.35 209.4
Q 572.8 209.9 572.5 210.15
L 572.6 210.25
Q 572.7 210.25 572.95 209.95
M 578.3 204.25
Q 578.1 203.9 577.45 204.4 572.3 208.55 568.7 213.25
L 570.15 212.15
Q 570.8 211.55 572.45 209.6 575 206.8 578.3 204.25 Z"/>

<path fill="#F9E0A0" stroke="none" d="
M 562.7 258.45
Q 560.2 258.35 557.65 257.95 556.75 257.75 556.2 257.65 555.95 257.6 555.7 257.55
L 555.05 257.4 554.55 257.4
Q 554.6 257.5 555.55 258.25 556.5 258.9 556.65 259.5
L 555.6 259.5
Q 552.75 259.15 549.9 258.05 550.2 258.35 550.5 258.55 553.9 261.1 560.05 261.35 561.9 261.45 562.75 260.85 562.95 260.7 563.35 260.5 563.05 259.4 562.7 258.45 Z"/>

<path fill="#FFF3CB" stroke="none" d="
M 541.6 243.55
Q 541.45 243.45 541.4 243.3
L 541.25 243.3
Q 541.1 243.3 541 243.2 539.6 244.25 538.8 245.25 537.4 247.1 537.55 248.75 537.55 249.35 537.8 249.7 537.95 249.95 538.75 250.55 540.4 251.55 543.65 253.4 546.5 255.1 548.3 256.65 549.2 257.5 549.9 258.05 552.75 259.15 555.6 259.5
L 556.65 259.5
Q 556.5 258.9 555.55 258.25 554.6 257.5 554.55 257.4
L 555.05 257.4 555.7 257.55 555.7 257.4
Q 556.25 257.3 556.8 257.4
L 558.6 257.55
Q 559.75 257.65 560.25 257.8 560.2 257.9 559.9 257.9 557.9 257.9 556.2 257.65 556.75 257.75 557.65 257.95 560.2 258.35 562.7 258.45 561.7 256 559.9 254.1 558.3 252.4 556.7 251.75
L 556.05 251.5
Q 552.95 251.6 549.85 251.5
L 549.85 251.25
Q 550 251.1 550.45 251.1
L 552.45 251.1
Q 553.9 251.1 555 251.15
L 554.15 250.85 553.7 250.6
Q 553.35 250.6 553 250.65 551 250.9 549.4 250.9
L 549.5 250.7 553.2 250.35 552.6 250
Q 551.05 249.45 550.3 249.1 549.05 248.55 546.5 246.4 544.2 244.45 542.6 243.95 541.9 243.75 541.6 243.55
M 559.05 253.95
Q 559.65 254.5 559.6 255.1 559.5 255.45 559.35 255.55 559.1 255.75 558.7 255.65 557.4 255.5 554.45 254.25 554.05 254 554 253.9
L 553.9 253.5 554 253.2
Q 554.15 252.9 554.6 253 556.15 253 557.85 253.4 558.75 253.75 559.05 253.95 Z"/>

<path fill="#FFFFFF" stroke="none" d="
M 559.6 255.1
Q 559.65 254.5 559.05 253.95 558.75 253.75 557.85 253.4 556.15 253 554.6 253 554.15 252.9 554 253.2
L 553.9 253.5 554 253.9
Q 554.05 254 554.45 254.25 557.4 255.5 558.7 255.65 559.1 255.75 559.35 255.55 559.5 255.45 559.6 255.1 Z"/>

<path fill="#D3E7EE" stroke="none" d="
M 590.2 216.75
Q 589.7 217.2 589.2 217.7 588.7 218.25 587.85 219.3 591.6 218.85 597.4 218.15
L 601.3 214.1
Q 601.6 213.8 601.85 213.6
L 590.2 216.75
M 581.5 220.65
L 577.85 222.7
Q 577.2 223.15 577.2 223.5 577.3 224.1 577.9 224.1 578.2 224.15 578.9 223.9
L 580.95 222.95
Q 581.4 222.75 581.95 222.3 582.55 221.8 582.65 221.35 582.7 221.05 582.5 220.75 582.35 220.5 582.05 220.45 581.8 220.45 581.5 220.65
M 598.25 229.45
Q 598.05 229.15 597.6 229.15
L 596.9 229.4
Q 594.7 230.55 591.95 230.85 591.3 231 591.2 231.05 590.75 231.25 590.85 231.65 590.9 231.9 591.25 232.35
L 591.4 232.8
Q 591.5 232.95 591.9 232.95
L 595 232.95
Q 595.8 232.75 596.8 231.95 597.2 231.7 597.45 231.4
L 598.2 230.15
Q 598.4 229.75 598.25 229.45
M 628.75 246.05
Q 630.05 244.5 631.05 242.95 631.55 242.15 631.6 241.65 631.6 240.7 630.9 240.55 630.6 241.1 629.55 241.95 627.3 243.65 623.1 247.45 622.4 247.95 622.15 248.55 621.8 249.4 622.3 249.9 622.65 250.25 623.25 250.25 624.1 250.2 625.1 249.45 626.85 248.25 628.75 246.05
M 609.75 233.85
Q 610.9 232.95 612.05 232.3 612.6 231.95 612.7 231.7 612.8 231 612 230.9 611.7 230.85 610.9 231.2
L 606.45 233.85
Q 605.45 234.55 605.2 235.05 605 235.45 605.05 235.9 605.15 236.4 605.5 236.6 606.2 236.95 607.25 236.1
L 609.75 233.85
M 616.9 215.9
Q 616.25 215.4 615.55 214.85 612.75 212.7 610.7 211.2
L 607.7 212
Q 608.75 212.4 609.35 213.4 609.95 214.35 611.25 214.75 611.95 215.1 612.25 215.95 612.35 216.2 612.4 216.4 614.55 216.15 616.9 215.9
M 577.75 197.7
Q 578.15 197.5 578.65 197.5 579.6 197.4 580.05 197.5 580.8 197.6 582.1 198.3 583.45 199.05 583.95 199.8 584.35 200.45 584.35 201.25 584.3 202.05 583.85 202.65 583.2 203.3 582.9 203.65 582.45 204.35 582.15 204.65 582 204.8 581.15 205.55 580.15 206.35 578.15 208.75 575.3 211.95 571.6 214.95 571 215.45 570.45 215.85 573 215.4 575.8 214.9 577.15 214.65 578.5 214.45 578.55 214.3 578.7 214.15
L 580.25 212.5
Q 580.9 211.85 582.45 210.05 583.85 208.5 584.75 207.65
L 585.35 207.1 588.1 205
Q 588.4 204.8 588.55 204.8 588.6 204.8 588.7 204.85 588.8 204.7 588.95 204.6 590.35 203.5 591.35 203.6 592 203.65 592.7 204.1 594.1 204.8 595.9 206 597.4 207 597.6 208 597.85 209.2 596.3 210.85 596 211.15 595.75 211.45 602.85 210.25 608.3 209.45 607.35 208.8 606.65 208.35 603.55 206.35 595.95 202.3 588.95 198.6 585.35 196.1 583.6 194.85 583.05 194.55 581.65 193.75 580.45 193.55 579.55 193.35 577.8 193.55 577.75 193.75 577.4 194.2 568.6 202.45 564.5 205.8
L 560.4 209.15
Q 558.65 210.65 555.4 213.8
L 549.5 219.6
Q 551.5 219.25 553.8 218.85 553.9 218.65 554 218.55 554.15 218.35 554.65 218.05 554.9 217.65 555 217.6 555.15 217.5 555.65 217.4 556.2 217.3 556.8 217.4 557.15 217.5 557.8 217.85
L 558.3 218.05
Q 559.35 217.85 560.5 217.65 560.5 215.6 560.7 214.9 561.15 213.35 562.3 212.7 562.45 212.75 562.5 212.95 562.5 212.55 562.9 212.1 563.9 210.85 565.35 209.3
L 570 204.55 571.75 203.1 572.35 202.35
Q 572.85 201.7 573.8 201.2 575.3 200.35 576.7 199.7
L 576.85 199.9 573.3 202.65
Q 572.2 203.85 572.05 204 571.7 204.35 571.1 204.7
L 565.2 210.5
Q 563.95 211.85 563 213.05 562.95 213.2 562.75 213.2 562.6 213.2 562.55 213.15 562.55 213.45 562.3 214 561.5 215.35 561.6 217.1 562.2 217.2 562.85 217.2 564.75 217.25 566.6 216.55 566.75 216.45 566.9 216.4 568.1 215.85 569.35 215 572.2 212.95 576.2 208.85
L 577.7 207.25
Q 579.05 205.65 579.3 205.4 579.4 205.3 580.35 204.5 580.95 203.95 581.25 203.5 581.75 202.65 581.95 202.5 582.2 202.25 582.8 201.85 583.25 201.25 582.8 200.5 582.55 200.1 581.75 199.6 579.65 198.45 577.3 198.5 577.25 198 577.75 197.7
M 577.45 204.4
Q 578.1 203.9 578.3 204.25 575 206.8 572.45 209.6 570.8 211.55 570.15 212.15
L 568.7 213.25
Q 572.3 208.55 577.45 204.4
M 573.6 209.5
Q 573.25 209.65 572.95 209.95 572.7 210.25 572.6 210.25
L 572.5 210.15
Q 572.8 209.9 573.35 209.4
L 573.55 209.25 573.6 209.5 Z"/>

<path fill="#ABD1DC" stroke="none" d="
M 591.9 205.2
Q 591.3 204.9 591 204.9 590.6 204.85 589.8 205.15
L 588.3 205.8
Q 588.25 205.75 588.25 205.7
L 588.2 205.7
Q 587.6 205.9 587.3 206.1
L 586.65 206.65 578.25 215.9 577.5 216.45
Q 576.65 217.45 576 217.85 576 217.9 576 217.95 576.05 218.3 575.75 218.9 574.65 221.15 574.15 223.5 573.95 224.65 574.35 225.1 574.8 225.65 575.85 225.55 578.4 225.55 580.2 224.75 582.35 223.85 584.55 221.25 584.85 220.9 585.95 219.5 586.1 219.3 586.3 219.05 587 218.1 587.6 217.45 587.85 217.1 588.1 216.85 589.5 215.3 592.75 212.6 593.15 212.2 593.6 211.85 595.1 210.25 596.55 208.4 595.25 206.85 591.9 205.2
M 587.5 210.55
Q 588 210.15 588.45 210 588.6 210.45 587.95 210.75
L 586.35 212 583.6 214.9
Q 580.55 218.2 580 218.85 579.55 219.35 579.25 219.75 579.05 219.9 578.9 220.1 578.15 220.85 577.8 221.2
L 577.05 221.95
Q 576.8 222.35 576.65 222.25
L 577.5 221.05
Q 579 219.2 580.65 217.45
L 584.2 213.55
Q 584.25 213.45 584.35 213.4 584.75 212.85 585.4 212.3 586.2 211.5 587.5 210.55
M 577.85 222.7
L 581.5 220.65
Q 581.8 220.45 582.05 220.45 582.35 220.5 582.5 220.75 582.7 221.05 582.65 221.35 582.55 221.8 581.95 222.3 581.4 222.75 580.95 222.95
L 578.9 223.9
Q 578.2 224.15 577.9 224.1 577.3 224.1 577.2 223.5 577.2 223.15 577.85 222.7
M 609 215.1
Q 608.3 214.4 607.7 213.65 606.9 212.65 605.45 212.65 605.35 212.65 605.3 212.65
L 605.25 212.65
Q 605.1 212.9 604.5 212.9 603.3 212.95 601.85 214.6
L 595.25 221.85
Q 595.05 222.15 594.7 222.3 594.2 222.4 594.05 222.1 593.95 221.8 594.35 221.3
L 597.4 218.15
Q 591.6 218.85 587.85 219.3 587.35 219.9 586.7 220.7 585.15 222.7 584.15 223.65 582.95 224.85 581.05 225.85 579.9 226.45 579.15 226.6 578.35 226.75 576.7 226.75
L 575 226.75
Q 574.15 226.75 573.75 226.55 572.85 226 572.95 224.15 573.35 220.65 574.95 217.85 575.1 217.55 575.35 217.45 575.55 217.4 575.75 217.55
L 577.2 215.5 578 214.9
Q 578.15 214.8 578.5 214.45 577.15 214.65 575.8 214.9 573 215.4 570.45 215.85 568.1 217.55 566.25 218.05 564.75 218.4 561.65 218.3
L 561.05 218.25
Q 560.75 218.25 560.6 218.15 560.5 218.05 560.5 217.7
L 560.5 217.65
Q 559.35 217.85 558.3 218.05
L 558.95 218.25 560.8 219.2 561.55 220.1
Q 561.95 220.65 563.15 221.45
L 564.45 222.25
Q 565.25 222.75 565.4 223.2 565.55 223.85 564.95 224.6
L 562.55 227.5
Q 562.1 228.1 561.35 228.75
L 561 228.65 561.95 226.8 562.7 225.85
Q 563.1 225.35 563.8 224.35 564.2 224.05 564.2 223.8 564.25 223.6 563.95 223.3 562.9 222.8 562.4 222.45
L 560.75 221.1
Q 560.3 220.3 559.95 219.95 559.75 219.75 559.05 219.4 557.95 218.85 556.9 218.5 556.7 218.4 556.55 218.35 556.15 218.2 555.85 218.25 555.55 218.3 555.25 218.6 555.05 218.7 554.9 218.85 554 219.8 553.55 220.25 552.7 221 551.95 221.2 551.85 220.95 552.2 220.5
L 552.4 220.2
Q 552.65 219.95 553.15 219.75 553.35 219.6 553.6 219.15 553.7 218.95 553.8 218.85 551.5 219.25 549.5 219.6
L 548.65 220.45
Q 547.6 221.35 548.25 222 548.35 222.1 548.9 222.3 549.3 222.45 549.35 222.7 549.45 222.95 549.05 223.45 548.45 224.05 547.95 224.3
L 547.9 224.35
Q 549.05 224.4 550.65 225.55
L 553.65 227.85
Q 555 228.9 555.8 228.95 556.1 229 557.6 228.6 559.25 228.3 560.7 229.05 561.35 229.45 561.75 230 562.15 230.65 561.9 231.25 561.7 231.65 561 232.15 560.3 232.65 560.1 233 561.3 233.5 562.95 234.7
L 568.7 238.6
Q 569.6 239.2 570.15 239.05 570.2 239.05 571 238.5 571.95 237.8 573 238.05 573.95 238.25 575.3 239.4
L 575.55 239.15
Q 576 239.15 576 239.75 576 239.85 575.9 240.05 576.25 240.55 576.15 241 575.7 240.95 575.35 240.8
L 574.65 241.6
Q 574.45 241.9 574.45 242.05 574.45 242.2 574.65 242.4 575.1 242.9 576.1 243.5
L 582 247.1
Q 583.1 247.65 583.7 247.5 583.75 247.5 584.85 246.8 585.75 246.25 586.75 246.3 587.85 246.4 589.45 247.5 589.6 247.6 589.75 247.75 590 247.7 590.2 247.9
L 590.25 247.95
Q 590.2 247.95 590.15 248
L 589.5 248.7 589.25 249.1 589.25 249.3
Q 588.8 249.7 588.35 250.25 593.9 252.75 598.65 256.9 599.15 257.3 599.25 257.55 599.3 257.65 599.3 257.7 599.4 257.55 599.55 257.45 600.2 256.6 601.05 256.2
L 601.6 256
Q 602.7 255.7 603.6 256.5 604.3 257.1 604.3 258.1 604.3 259.15 603.45 259.6 604.45 260.4 606 261.3 606.9 261.8 608.7 262.8 610.35 263.75 612.2 265.05 612.5 265.25 613.05 265.65
L 613.85 266.05
Q 614.4 266.4 614.65 266.8 614.65 266.7 614.7 266.55 614.95 266 615.4 265.75 616 265.4 617.45 265.3 618.8 265.3 619.5 264.9 619.85 264.7 620.7 263.6 622.55 260.95 627.55 255.1
L 631.3 250.8
Q 633.35 248.35 635.15 246.4 639.15 242.25 639.5 241.85 640.4 240.8 643.05 237.15 645.2 234.2 646.8 232.65 647.3 232.25 647.4 231.9 647.6 231.3 647.15 231.05 646.8 230.95 646.65 230.85
L 635.65 226.3
Q 627.65 222.9 624.55 221.1 621.5 219.35 616.9 215.9 614.55 216.15 612.4 216.4 612.5 217.2 612 218
L 612.05 218.85
Q 610.95 221.2 608.75 222.95 607.5 223.95 606.55 225 604.95 226.95 603.2 228.6 602.7 229.15 602.3 229.8 600.2 233.2 596.7 235.15 595.25 235.9 593.85 235.9 590.55 236.5 587.35 235.6 586.85 235.2 586.8 234.55 586.7 232.1 587.15 229.95 587.35 229.15 587.7 228.35 588.1 227.35 588.95 226.75 589 226.7 589.15 226.75 589.6 227.35 589.25 228.05 587.5 231.2 588.3 234.55 591.2 235.1 594.15 234.5 597.15 233.95 599.05 231.65 599.55 231.05 600.05 230.45 602.25 227.05 605.15 224.05 608.15 220.9 610.75 217.4 611 217.1 611.1 216.7 611 216.65 610.9 216.6 609.85 215.9 609 215.1
L 602.05 222.7
Q 599 225.95 597.4 227.05
L 606.75 216.8
Q 608.05 215.4 609 215.1
M 617.85 222.15
Q 618.55 221.45 619.2 221.25 620 220.95 621.4 221.45 623.2 222.15 624.05 222.6 625.15 223.15 625.6 223.85 626.05 224.65 626.05 226.15 626.05 227.25 625.9 227.75 625.7 228.5 624.95 229.25 624.8 229.4 623.55 230.5 621.55 232.2 619.3 235.25
L 618.1 236.9
Q 616.9 238.5 615.15 240.25 611.85 243.55 609.3 244.75 605.9 246.3 602.25 245.75 601.45 245.5 601.3 245.3 601.05 245 601.05 244.2 601.15 241.65 601.55 240.1 601.95 238.5 602.85 237.25 602.85 236.5 603.2 235.7 603.6 234.8 604.6 233.6 605.1 232.9 605.7 232.4
L 606.35 231.9 606.8 231.35
Q 606.9 231.25 607.5 230.75 608.55 230.1 609.4 229.4
L 611.6 227.75
Q 613.45 226.4 613.75 226.05 614.05 225.75 614.25 225.75 614.4 226.15 613.85 226.7 612.5 228.05 611.55 228.6 611 228.85 610.75 229.05
L 610 229.8
Q 609.55 230.25 609.15 230.35 609.05 230.6 608.55 231 607.1 232.1 606.25 233
L 605.15 234.15
Q 604.05 235.55 603.5 236.55
L 603.25 237.25
Q 603.15 237.95 602.95 238.1 602.9 238 602.9 237.95
L 602.7 239.4
Q 602.2 242.8 602.2 244.55 606.95 245.1 610.95 242.15 611.85 241.45 613.45 239.85 615.95 237.35 616.8 236.2
L 618.55 233.8
Q 620.4 231.3 623.15 228.9 624.5 227.75 624.8 226.95 625.05 226.3 624.9 225.55 624.75 224.8 624.25 224.3 623.75 223.8 622.1 223.15 620.35 222.4 619.65 222.5 619.1 222.6 618.45 223.1 617.75 223.7 617.4 224 616.45 224.75 615.05 225.4 616.35 223.6 617.85 222.15
M 612.05 232.3
Q 610.9 232.95 609.75 233.85
L 607.25 236.1
Q 606.2 236.95 605.5 236.6 605.15 236.4 605.05 235.9 605 235.45 605.2 235.05 605.45 234.55 606.45 233.85
L 610.9 231.2
Q 611.7 230.85 612 230.9 612.8 231 612.7 231.7 612.6 231.95 612.05 232.3
M 616.4 246.75
Q 616.55 246.35 617.05 245.65
L 619 242.75
Q 619.5 242.95 619.4 243.7 619.35 244.05 618.95 244.65
L 618 246.1
Q 617.45 247.05 617.35 247.45 617.25 247.85 617.35 249.25 617.45 251.3 617.7 251.85 617.95 252.55 618.5 252.7 618.65 252.75 619.35 252.75 621.1 252.55 623.25 251.95 624.85 251.5 625.85 251 627.9 249.85 630.1 247.1 631.7 245.15 636.55 238.3 638.15 236.1 639.1 235.1 639.75 234.45 640 234.05 640.45 233.35 640.1 232.7 639.8 232.05 638.75 231.95
L 637.1 231.8
Q 636.15 231.55 635.1 230.25 634.2 229.1 633.5 229.1 633 229.05 632.2 229.65
L 630.3 231.1
Q 630.45 229.75 631.6 228.75 633 227.45 634.45 227.95 635.05 228.2 635.85 229.15 636.7 230.15 637.2 230.45 637.65 230.7 639.2 230.85 640.5 230.95 641 231.5 641.6 232.1 641.5 233.25 641.4 234.25 641 234.95 640.85 235.25 639.65 236.55 638.7 237.5 637.1 239.9 634.05 244.4 631.35 247.75 628.6 251 626.75 252 625.7 252.6 623.4 253.3 621.15 253.95 618.9 254 618.1 254 617.7 253.85 617.2 253.6 616.75 252.95 616 251.65 616.1 248.6 616.2 247.2 616.4 246.75
M 610.8 235.2
Q 609.65 235.85 607.8 237.9 605.5 240.6 604.65 242.15
L 604.25 242.05
Q 604.85 240.85 605.25 240.3 606.3 238.65 609.15 235.9 610.1 235.05 610.6 235
L 610.8 235.2
M 622.45 238.95
Q 622.7 238.65 624.05 237.35 625.1 236.35 628.35 232.5
L 628.65 232.45
Q 629 232.75 628.5 233.35 625.15 237.5 621.3 240.8 621.6 239.9 622.45 238.95
M 621.6 245.85
Q 621.55 246.05 621.1 246.7 620.15 247.85 620 248.6 619.9 249.1 619.65 249.15 619.6 248.8 619.75 248.45 620.1 247.35 621.2 246.1 621.45 245.85 621.6 245.85
M 631.05 242.95
Q 630.05 244.5 628.75 246.05 626.85 248.25 625.1 249.45 624.1 250.2 623.25 250.25 622.65 250.25 622.3 249.9 621.8 249.4 622.15 248.55 622.4 247.95 623.1 247.45 627.3 243.65 629.55 241.95 630.6 241.1 630.9 240.55 631.6 240.7 631.6 241.65 631.55 242.15 631.05 242.95
M 577.75 235
L 579.35 233
Q 579.55 232.7 579.55 232.55 579.55 232.3 579.2 232.05 578 231.15 577.4 230.8 575.3 229.85 574.35 229.2 573 228.05 572.25 227.65 571.6 227.25 570.4 226.9 569.15 226.6 568.55 226.8 568.05 226.95 567.4 227.65 566.7 228.4 566.3 228.6 565.8 228.85 565.75 228.9
L 565.4 229.4
Q 565.3 229.5 565.15 229.55 564.95 229.55 564.9 229.4 564.9 228.75 565.7 227.95
L 567.05 226.5 567.8 225.9
Q 567.95 225.85 568.7 225.7 571.55 225.65 574.4 227.8
L 575.6 228.65 576.95 229.3
Q 577.6 229.6 579.55 230.85 580.8 231.7 580.8 232.45 580.85 233 580.15 233.8 579.5 234.65 577.9 236.45
L 576.5 238
Q 576.3 237.8 576.4 237.15 576.7 236.25 577.75 235
M 581.5 234.9
Q 581.75 234.7 582.2 234.7 583.8 234.6 585.05 235.2
L 586 235.75 586.35 236.1 591.6 238.7
Q 592.3 239 592.45 239.4 592.55 239.65 592.55 240.15 592.55 240.9 592.45 241.1 592.4 241.25 592.05 241.7 591.55 242.6 591.4 242.7 590.85 243 590.6 243.15 590.1 243.75 589.8 244 589.55 244.3 589 244.65 588.35 245.1 588.15 245.3
L 588.05 245.1 589.85 242.5 590.6 241.9
Q 590.95 241.55 591.3 240.95 591.6 240.3 591.4 240 591.35 239.9 590.95 239.7 589.85 239.05 589.25 238.75 588.9 238.55 587.35 237.9 586.15 237.4 585.55 236.85 585.1 236.4 584.95 236.35 584.4 236.2 584.15 236.1 583.45 235.9 583.1 235.8 582.45 235.6 582.05 235.75 582 235.95 581.7 236.25 580.5 237.3 579.5 238.6
L 578.95 238.6
Q 578.75 238.25 579 237.8
L 579.55 237.2
Q 579.95 236.8 580.95 235.4 581.2 235.05 581.5 234.9
M 602.35 224.75
Q 600.65 226.35 599.95 226.85 599.85 226.85 600 226.7 602.85 223.8 604.75 222.6
L 604.8 222.85
Q 603.8 223.4 602.35 224.75
M 597.6 229.15
Q 598.05 229.15 598.25 229.45 598.4 229.75 598.2 230.15
L 597.45 231.4
Q 597.2 231.7 596.8 231.95 595.8 232.75 595 232.95
L 591.9 232.95
Q 591.5 232.95 591.4 232.8
L 591.25 232.35
Q 590.9 231.9 590.85 231.65 590.75 231.25 591.2 231.05 591.3 231 591.95 230.85 594.7 230.55 596.9 229.4
L 597.6 229.15
M 593.35 223.45
L 593.45 223.65 591.9 224.4 591.55 224.5
Q 591.35 224.6 591.25 224.4 591.55 223.9 592.1 223.65
L 592.4 223.55 592.55 223.45 592.65 223.45 592.65 223.4 593.35 223.45
M 592.3 246.15
Q 591.85 246.25 591.65 246 592.15 245.15 592.7 244.55
L 593.9 243.45 594.4 242.9
Q 594.7 242.75 595.1 242.75 595.65 242.8 596.55 243.3 598.8 244.5 600.6 245.75 602.2 246.8 602.45 246.95 603.15 247.35 604 247.6 605.1 247.95 605.4 248.15 605.95 248.5 606.15 249.15 606.4 249.8 606.15 250.4
L 605.65 251.25
Q 604.1 253.3 603.05 253.95
L 602.7 253.85 604.9 250.65
Q 605.2 250.25 605.2 250 605.3 249.4 604.65 249.05 604.4 248.9 603.55 248.7 602.3 248.35 599.65 246.55 597.65 245.1 595.8 244.15 595.4 243.95 595.2 243.95 594.95 243.95 594.55 244.25 593.7 244.8 592.9 245.7
L 592.3 246.15
M 607 254.8
Q 607.05 255.05 606.8 255.15 606.55 255.25 606.35 255.1 606.05 254.8 606.3 254.25 606.45 253.95 606.9 253.65
L 608.55 252.15
Q 609.7 251.4 610.6 251.45 611.1 251.5 611.75 251.9
L 612.85 252.5
Q 613.55 252.9 615.05 253.5 615.75 253.9 617.05 254.75 617.15 254.8 618.2 255.2 619.1 255.55 620.9 256.45 621.65 256.7 621.9 257.2 622.15 257.5 622.15 258.15 622.15 258.7 621.95 259.1 621.85 259.5 621.35 259.95 619.95 261.2 619.6 261.65 618.8 262.6 618.4 262.65 618.3 262.1 618.65 261.25 618.9 260.85 619.55 260.1 619.95 259.75 620.65 258.95 621 258.6 621.05 258.3 621.1 257.75 620.15 257.3
L 618.75 256.7
Q 616.15 255.55 614.1 254.4 613.5 254 613.15 253.9 612 253.4 611.8 253.2
L 611.25 252.65
Q 610.95 252.4 610.55 252.5 609.65 252.5 608.6 253.35
L 607 254.8
M 607.7 212
L 610.7 211.2
Q 609.3 210.2 608.3 209.45 602.85 210.25 595.75 211.45 593.8 213.55 591.7 215.45 590.9 216.1 590.2 216.75
L 601.85 213.6
Q 602.6 212.85 603.05 212.6 603.7 212.25 604.3 212.25 605.7 211.65 607.05 211.8 607.4 211.85 607.7 212 Z"/>
</g>

<g id="Layer0_0_MEMBER_3_FILL">
<path fill="#3B3D35" stroke="none" d="
M 85.2 106.8
Q 84.6 106.8 84.1 107 83.6 107.2 83.25 107.55 82.9 107.9 82.7 108.45 82.5 108.95 82.5 109.6 82.5 110.25 82.7 110.75 82.9 111.25 83.25 111.65 83.6 112 84.1 112.2 84.6 112.4 85.2 112.4 85.8 112.4 86.25 112.2 86.75 112 87.1 111.65 87.45 111.25 87.65 110.75 87.85 110.25 87.85 109.6 87.85 108.95 87.65 108.45 87.45 107.9 87.1 107.55 86.75 107.2 86.25 107 85.8 106.8 85.2 106.8
M 84.15 108.25
Q 84.5 107.8 85.2 107.8 85.85 107.8 86.2 108.25 86.5 108.75 86.5 109.6 86.5 110.5 86.2 110.95 85.85 111.4 85.2 111.4 84.5 111.4 84.15 110.9 83.85 110.45 83.85 109.6 83.85 108.75 84.15 108.25
M 39.15 104.8
Q 38.55 104.6 37.9 104.6 37.3 104.6 36.85 104.8 36.35 105 36.05 105.3 35.75 105.6 35.55 106 35.4 106.35 35.4 106.8 35.4 107.3 35.55 107.65 35.7 108 35.95 108.25 36.2 108.5 36.5 108.65
L 38.35 109.3
Q 38.6 109.45 38.75 109.65 38.9 109.8 38.9 110.1 38.9 110.65 38.6 110.95 38.25 111.25 37.65 111.25 37.25 111.25 36.95 111.1
L 36.45 110.9 36.1 110.65
Q 35.95 110.55 35.8 110.55
L 35.65 110.6 35.5 110.7 35.1 111.4
Q 35.3 111.6 35.6 111.8 35.9 112 36.2 112.1 36.55 112.25 36.9 112.3 37.25 112.4 37.6 112.4 38.25 112.4 38.7 112.2 39.2 112 39.55 111.65 39.9 111.35 40.05 110.9 40.25 110.45 40.25 109.9 40.25 109.45 40.1 109.1 39.95 108.8 39.7 108.55 39.45 108.3 39.15 108.15
L 37.25 107.45
Q 37 107.35 36.85 107.15 36.75 107 36.75 106.7 36.75 106.5 36.8 106.35 36.85 106.15 37 106.05 37.15 105.9 37.4 105.85 37.6 105.75 37.9 105.75 38.25 105.75 38.45 105.85
L 38.9 106 39.2 106.2
Q 39.35 106.3 39.45 106.3
L 39.6 106.25 39.75 106.1 40.1 105.4
Q 39.7 105.05 39.15 104.8
M 42.5 106.9
L 41.2 106.9 41.2 110.35
Q 41.2 110.8 41.3 111.15 41.45 111.55 41.65 111.8 41.9 112.1 42.25 112.25 42.55 112.4 43 112.4 43.55 112.4 43.95 112.2 44.35 111.95 44.7 111.65
L 44.75 112.05
Q 44.85 112.3 45.1 112.3
L 45.9 112.3 45.9 106.9 44.6 106.9 44.6 110.8
Q 44.35 111.05 44.05 111.2 43.75 111.35 43.4 111.35 42.95 111.35 42.7 111.1 42.5 110.85 42.5 110.35
L 42.5 106.9
M 51.55 107.5
Q 51.3 107.15 50.9 107 50.55 106.8 50.1 106.8 49.55 106.8 49.15 107.05 48.7 107.25 48.4 107.65
L 48.25 107.15
Q 48.2 106.9 47.95 106.9
L 47.15 106.9 47.15 114.05 48.45 114.05 48.45 111.85
Q 48.7 112.1 49 112.25 49.35 112.4 49.8 112.4 50.3 112.4 50.75 112.15 51.2 111.95 51.5 111.6 51.8 111.2 51.95 110.7 52.1 110.15 52.1 109.55 52.1 108.9 51.95 108.4 51.8 107.85 51.55 107.5
M 50.75 109.55
Q 50.75 110.05 50.7 110.35 50.6 110.7 50.4 110.95 50.25 111.15 50 111.3 49.8 111.4 49.5 111.4 49.2 111.4 48.95 111.3 48.65 111.15 48.45 110.9
L 48.45 108.5
Q 48.7 108.15 49 108 49.25 107.85 49.65 107.85 49.95 107.85 50.15 107.9 50.35 108 50.45 108.2 50.6 108.45 50.7 108.75 50.75 109.1 50.75 109.55
M 54.4 107
Q 53.9 107.2 53.55 107.55 53.2 107.9 53 108.45 52.8 108.95 52.8 109.6 52.8 110.25 53 110.75 53.2 111.25 53.55 111.65 53.9 112 54.4 112.2 54.9 112.4 55.5 112.4 56.1 112.4 56.55 112.2 57.05 112 57.4 111.65 57.75 111.25 57.95 110.75 58.15 110.25 58.15 109.6 58.15 108.95 57.95 108.45 57.75 107.9 57.4 107.55 57.05 107.2 56.55 107 56.1 106.8 55.5 106.8 54.9 106.8 54.4 107
M 54.45 108.25
Q 54.8 107.8 55.5 107.8 56.15 107.8 56.5 108.25 56.8 108.75 56.8 109.6 56.8 110.5 56.5 110.95 56.15 111.4 55.5 111.4 54.8 111.4 54.45 110.9 54.15 110.45 54.15 109.6 54.15 108.75 54.45 108.25
M 80.2 106.9
L 80.2 112.3 81.5 112.3 81.5 106.9 80.2 106.9
M 69.45 107.9
L 69.45 106.95 68 106.95 68 105.25 67.3 105.25
Q 67.2 105.25 67.1 105.3 67.05 105.35 67 105.45
L 66.75 106.95 65.9 107.1 65.9 107.6
Q 65.9 107.75 65.95 107.8 66 107.9 66.15 107.9
L 66.7 107.9 66.7 110.9
Q 66.7 111.6 67.05 112 67.45 112.4 68.15 112.4 68.55 112.4 68.9 112.25 69.25 112.15 69.55 111.9
L 69.15 111.25 69.1 111.2 69 111.15 68.8 111.25 68.45 111.35
Q 68.25 111.35 68.1 111.2 68 111.05 68 110.8
L 68 107.9 69.45 107.9
M 61.35 107.8
L 61.9 108.05 62.15 108.1 62.25 108.05 62.4 107.95 62.7 107.5
Q 62.4 107.2 61.9 107 61.45 106.8 60.9 106.8 60.4 106.8 60 106.95 59.65 107.1 59.4 107.3 59.15 107.55 59 107.85 58.85 108.15 58.85 108.45 58.85 108.8 59 109.05 59.1 109.3 59.3 109.5 59.45 109.65 59.7 109.8
L 61.1 110.3
Q 61.3 110.4 61.4 110.5 61.5 110.65 61.5 110.8
L 61.45 111.05
Q 61.45 111.2 61.3 111.25
L 61.05 111.4
Q 60.9 111.45 60.65 111.45 60.35 111.45 60.15 111.4
L 59.8 111.25 59.6 111.1
Q 59.45 111.05 59.35 111.05
L 59.15 111.1 59 111.25 58.7 111.7 59.05 112 59.5 112.2 60.05 112.35 60.6 112.4
Q 61.1 112.4 61.5 112.25 61.9 112.1 62.2 111.9 62.45 111.65 62.6 111.3 62.75 111 62.75 110.6 62.75 110.25 62.65 110.05 62.5 109.8 62.3 109.65 62.15 109.45 61.9 109.35
L 60.5 108.85
Q 60.35 108.75 60.2 108.65 60.1 108.55 60.1 108.35 60.1 108.1 60.3 107.95 60.55 107.75 60.9 107.75
L 61.35 107.8
M 65.1 106.9
L 63.8 106.9 63.8 112.3 65.1 112.3 65.1 106.9
M 63.85 104.75
L 63.65 105
Q 63.6 105.15 63.6 105.35 63.6 105.5 63.65 105.65
L 63.85 105.9 64.1 106.1
Q 64.25 106.15 64.45 106.15 64.6 106.15 64.75 106.1
L 65 105.9 65.2 105.65
Q 65.25 105.5 65.25 105.35 65.25 105.15 65.2 105
L 65 104.75 64.75 104.55
Q 64.6 104.5 64.45 104.5 64.25 104.5 64.1 104.55
L 63.85 104.75
M 79.5 106.95
Q 79.25 106.8 78.9 106.8 78.4 106.8 78.05 107.1 77.7 107.35 77.45 107.85
L 77.4 107.25
Q 77.35 107.05 77.3 106.95 77.2 106.9 77 106.9
L 76.25 106.9 76.25 112.3 77.55 112.3 77.55 108.95 77.95 108.3
Q 78.1 108.2 78.25 108.1 78.45 108.05 78.65 108.05
L 78.95 108.1 79.2 108.1 79.35 108.05 79.4 107.95 79.5 106.95
M 74.55 107.55
Q 74.2 107.2 73.7 107 73.25 106.8 72.65 106.8 72.05 106.8 71.55 107 71.05 107.2 70.7 107.55 70.35 107.9 70.15 108.45 69.95 108.95 69.95 109.6 69.95 110.25 70.15 110.75 70.35 111.25 70.7 111.65 71.05 112 71.55 112.2 72.05 112.4 72.65 112.4 73.25 112.4 73.7 112.2 74.2 112 74.55 111.65 74.9 111.25 75.1 110.75 75.3 110.25 75.3 109.6 75.3 108.95 75.1 108.45 74.9 107.9 74.55 107.55
M 71.6 108.25
Q 71.95 107.8 72.65 107.8 73.3 107.8 73.65 108.25 73.95 108.75 73.95 109.6 73.95 110.5 73.65 110.95 73.3 111.4 72.65 111.4 71.95 111.4 71.6 110.9 71.3 110.45 71.3 109.6 71.3 108.75 71.6 108.25
M 74.45 104.6
L 73.2 104.6
Q 73 104.6 72.85 104.7 72.75 104.75 72.7 104.9
L 71.95 106.15 72.7 106.15 72.95 106.1 73.15 106 74.45 104.6
M 80.85 104.5
Q 80.65 104.5 80.5 104.55
L 80.25 104.75 80.05 105
Q 80 105.15 80 105.35 80 105.5 80.05 105.65
L 80.25 105.9 80.5 106.1
Q 80.65 106.15 80.85 106.15 81 106.15 81.15 106.1
L 81.4 105.9 81.6 105.65
Q 81.65 105.5 81.65 105.35 81.65 105.15 81.6 105
L 81.4 104.75 81.15 104.55
Q 81 104.5 80.85 104.5 Z"/>
</g>
</defs>

<g transform="matrix( 0.87713623046875, 0, 0, 0.656982421875, -18.8,-13.35) ">
<use xlink:href="#Layer0_0_MEMBER_0_FILL"/>
</g>

<g transform="matrix( 0.87713623046875, 0, 0, 0.87713623046875, -18.8,-8.05) ">
<use xlink:href="#Layer0_0_MEMBER_1_FILL"/>
</g>

<g transform="matrix( 0.81854248046875, 0, 0, 0.81854248046875, -422.7,-144.45) ">
<use xlink:href="#Layer0_0_MEMBER_2_FILL"/>
</g>

<g transform="matrix( 1, 0, 0, 1, -1,-2) ">
<use xlink:href="#Layer0_0_MEMBER_3_FILL"/>
</g>
</svg>
