
<svg xmlns="http://www.w3.org/2000/svg" version="1.1" xmlns:xlink="http://www.w3.org/1999/xlink" preserveAspectRatio="none" x="0px" y="0px" width="250px" height="236px" viewBox="0 0 250 236">
<defs>
<g id="Layer0_0_MEMBER_0_FILL">
<path fill="#CDA45E" stroke="none" d="
M 192.95 169.15
Q 218.9 143.25 218.9 106.6 218.9 69.95 192.95 44 167.05 18.1 130.4 18.1 93.75 18.1 67.8 44 41.9 69.95 41.9 106.6 41.9 143.25 67.8 169.15 93.75 195.1 130.4 195.1 167.05 195.1 192.95 169.15 Z"/>
</g>

<g id="Layer0_0_MEMBER_1_FILL">
<path fill="#DA9E8B" stroke="none" d="
M 126.7 214.25
Q 127.1 214.6 128 215.3 131.3 218.05 134.25 222.4
L 127.35 216.25
Q 127.6 216.6 127.85 217 128.45 217.75 129.05 218.8 130.65 221.5 131.25 222.3 131.65 222.8 132.3 223.45 133.25 223.1 134.15 222.7 135.5 222.1 136.85 221.5 131.4 217.75 127.5 214.3 125.55 212.55 124.05 211 124.7 212.25 125.45 213.05 125.9 213.6 126.7 214.25
M 138.25 172.7
Q 138.1 172.6 137.95 172.4 137.56328125 172.9478515625 137 173.7 136.7376953125 174.1201171875 136.4 174.6 135.85 175.35 135.1 176.35 134.2 177.55 134.05 177.75 133.7 178.2 133.05 179.05 132.9216796875 179.2150390625 132.8 179.3
L 132.45 179.35 132.45 179.35
Q 132.4 179.35 132.35 179.25
L 132.25 179.3
Q 132.0998046875 179.370703125 131.95 179.45 131.28515625 179.753125 130.75 180 131.05 180.2 131.4 180.4 132.45 181.05 133.05 181.5 133.25 181.55 133.45 181.6 133.85 181.75 134.5 181.75 135.6375 181.75 137.4 178.45 137.43046875 178.4365234375 137.45 178.4 138.6 176.1 139 174.85 138.8775390625 174.1560546875 138.95 173.35 139.0673828125 172.190625 139.6 170.8 139.6609375 170.5966796875 139.7 170.4 139.83125 170.1171875 139.95 169.85 139.6771484375 170.14765625 139.4 170.45 139.1271484375 170.7724609375 138.85 171.1 138.8 171.2 138.25 172.05 138.3 172.35 138.25 172.7
M 144.3 161.1
Q 144.25 161.1 144.25 161.15 144.05 161.2 143.85 161.25 143.15 161.4 140.85 161.95
L 129.65 164.3
Q 124.7 166.55 122.55 167.75 121.8 168.15 121.25 168.35
L 122.2 169.5
Q 123 170.5 123.7 171.4 123.7 171.3 123.85 171.2 123.95 171.05 124.2 171.05 126.05 170.85 127.25 170.45 127.6 170.35 130 169.3 131.7 168.55 132.85 168.45 133.35 168.4 133.45 168.7 132.4 168.95 128.8 170.45 125.95 171.65 124.05 171.6 123.9 171.6 123.85 171.55 124.4689453125 172.3439453125 125 173.05 126.0607421875 174.4484375 126.8 175.55 127.1365234375 175.999609375 127.4 176.4 128.35 177.8 128.9 178.4 129.4 178.95 130.15 179.55 130.25 179.5 130.35 179.5 130.75 179.35 131.55 179.1 131.95 179 132.3 178.95 132.3 178.9 132.3 178.85 132.4 178.65 132.6 178.4 132.95 178.05 133.4 177.4 133.2 177.25 133.05 177.05 132.8 176.7 132.75 176.1 132.7 175.7 132.75 175.3 132.75 174.8970703125 132.8 174.45 132.84296875 174.216015625 132.9 173.95 133.2 172.5 133.3 171.8 133.3232421875 171.6748046875 133.35 171.55 133.5638671875 170.412890625 133.7 170.05 133.95 169.1 134.6 168.65
L 134.8 168.85
Q 134.35 169.35 134.1 170.6
L 133.75 172.35
Q 133.5123046875 173.498828125 133.4 174.35 133.370703125 174.5921875 133.35 174.8 133.25 175.45 133.25 175.9 133.25 176.75 133.5 177.15
L 133.55 177.1
Q 134.1 176.1 134.4 175.75 134.55 175.5 134.95 175.05 135.35 174.6 135.5 174.45 135.5 174.4197265625 135.8 173.9 136.0140625 173.613671875 136.35 173.1 136.8 172.35 137.4 171.6
L 136.95 170.9 136.9 170.85
Q 136.25 169.85 136.05 169.35 135.95 168.95 135.85 168.15 135.7609375 167.223046875 135.8 166.3 135.938671875 164.6765625 136.55 163.1 136.85 163.4 136.8 163.9 136.8 164.15 136.6 164.8 136.4435546875 165.3318359375 136.4 166.2 136.4125 166.744921875 136.45 167.4 136.5 168.55 136.7 169.15 136.85 169.55 137.15 170 137.3357421875 170.278515625 137.65 170.75 137.675 170.810546875 137.7 170.85 137.75 170.9 137.8 171 137.9232421875 170.8521484375 138.05 170.7 138.435546875 170.22734375 138.85 169.7 139.75 168.75 140.15 168.45 140.3 168.3 140.55 168.15 140.95 167.85 141.65 167.4 142.35 167 142.9 166.75 143.7259765625 165.9240234375 144.35 165.35 143.765625 165.8609375 142.7 166.2 141.5 166.6 140.5 166.6 139.7017578125 166.2009765625 139.4 165.65 139.2 165.3359375 139.2 164.95 139.8 164.3 144.85 162.05 148.55 160.45 151.95 159.2 149 159.7 146.2 160.65 144.9 161.05 144.3 161.1
M 131.3 164.1
Q 131.4 164.15 131.5 164.25 131.6 164.4 132.2 165.4 132.651953125 166.1474609375 133.2 166.8 134.2474609375 168.001953125 135.65 168.85 135.6 169 135.45 169 135.3 169 135.15 168.95 133.95 168.3 132.85 167 132.804296875 166.9412109375 132.75 166.85 132.0845703125 165.9888671875 131.15 164.4 131.05 164.25 131.1 164.15 131.15 164.1 131.3 164.1
M 133.75 168.5
Q 133.85 168.75 133.65 169.25 133.1 170.5 132.9 171.3 132.87578125 171.4580078125 132.85 171.65 132.8 172.2173828125 132.8 173.05 132.8 173.9716796875 132.75 174.45 132.7615234375 174.633984375 132.75 174.75 132.75 174.85 132.65 174.95 132.6 175 132.55 175 132.5029296875 174.76484375 132.45 174.5 132.2537109375 173.108203125 132.45 171.7 132.67109375 170.419140625 133.25 169.15 133.5 168.65 133.75 168.5
M 103.1 165.65
Q 103.45 165.9 103.7 166 103.35 165.7 103 165.4 100.6 163.45 99.4 161.9 99.7 164 101.55 166.2 101.95 166.7 102.6 167.35 102.7 167.4 102.8 167.45 102.95 167.5 103 167.65 103.05 167.75 103.05 167.85 103.15 168 103.25 168.1 104.55 169.45 105.05 169.95 105.747265625 170.751953125 106.35 171.6 107.4857421875 173.226171875 108.3 175.05 108.4751953125 175.4294921875 108.7 176 108.92109375 176.4005859375 109.15 176.9 109.606640625 177.9048828125 110.05 178.55 110.106640625 178.639453125 110.15 178.7 110.5 179.25 111.55 180.35 112.5 181.35 112.9 182 113.1185546875 182.3498046875 113.35 182.8 113.6185546875 183.390234375 113.9 184.15 114.15 184.85 114.65 186.35 114.95 187.15 115.6 188.45 115.7193359375 188.7037109375 115.8 188.9 116.074609375 189.4640625 116.25 189.85 116.2857421875 189.169921875 116.25 188.85 116.2642578125 188.72109375 116.25 188.65 116.15 187.8 115 185.55 114.2583984375 184.093359375 113.7 182.7 113.229296875 181.5287109375 112.9 180.4 112.5654296875 179.3193359375 112.4 178.15 112.27578125 177.0392578125 112.3 175.85 112.308203125 175.57890625 112.3 175.35 112.325390625 174.1341796875 112.2 173.8
L 111.05 174.9
Q 111 174.55 111.25 174.1 111.4 173.85 111.8 173.4 110.65 172.45 110 171.7 109.70703125 171.3619140625 109.5 171.05 108.846484375 169.9408203125 109.35 169.05 109.25 169.05 109.2 169.05 109.05 169.25 108.8 169.55 108.35 170 108 170.25
L 107.95 170.05
Q 108.2 169.5 108.7 168.95 108.65 168.95 108.55 168.9 108.3 169.15 108.15 169.25 107.95 169.1 108.1 168.75 106.7 168.25 104.5 166.6 104.45 166.65 104.4 166.65 104.25 166.7 103.9 166.65 103.4 166.5 102.65 165.8 102.5 165.65 102.45 165.55 102.35 165.35 102.5 165.25 102.7 165.3 103.1 165.65
M 112 183.1
L 111.95 183.05
Q 111.51796875 182.3017578125 110.65 181 110.45 180.7 110.25 180.4 110.15 180.6 109.75 180.9 109.3 181.3 109.2 181.85 109.05 182.4 109.2 182.9 109.3009765625 183.1357421875 109.55 183.45 109.653125 183.6541015625 109.8 183.85 111.35 185.8 112.85 186.15 113.2 186.2 113.4 186.3 113.7 186.55 113.6 186.85 113.5 186.95 113.35 187.05 113.35 187.15 113.25 187.25 113.05 187.5 112.55 187.65 112.05 187.75 111.9 188 111.65 188.35 111.85 188.8 112.05 189.1 112.45 189.45 112.4931640625 189.485546875 112.5 189.5 113.3984375 190.23046875 113.95 190.6 114.0806640625 190.7205078125 114.2 190.8 115.1 191.45 115.95 191.75 115.6921875 191.0755859375 115.4 190.35 115.151171875 189.7390625 114.85 189.1 114.6708984375 188.6068359375 114.45 188.1 113 184.8 112 183.1
M 105.55 172.3
Q 105.5 172.6 105.4 173.1 105.3 173.9 105.4 174.35 105.5 174.6 105.95 175.5 106.3 176.05 106.5 176.2 106.5837890625 176.2837890625 106.7 176.35 106.8177734375 176.405859375 106.95 176.45 107.15 176.5 107.5 176.6 107.9 176.75 108.2 177 107.9978515625 176.6208984375 107.75 176.15 107.521875 175.719140625 107.25 175.2 106.3 173.45 105.55 172.3
M 131.95 153.7
L 132.1 153.85 130.65 155.85 130.65 155.9
Q 130.9078125 155.837109375 131.15 155.75 132.9830078125 155.343359375 134.95 154.95 132.5 154.05 131.05 153.05 130.85 153.5 130.75 153.75 130.4 154.75 130.4 155.65 130.65 155.25 130.95 154.95 131.35 154.45 131.4 154.35 131.55 154.05 131.65 153.95 131.8 153.75 131.95 153.7
M 119.4 157.3
Q 119.45 157.45 119.55 157.6 119.6349609375 157.6849609375 119.7 157.8 119.8134765625 157.9201171875 119.9 158.05 120 158.15 120.05 158.25 120.1 158.3 120.25 158.4 124.4 157.3 129.95 156.05 129.942578125 156.0201171875 129.9 156 129.9 155.805078125 129.9 155.55 129.9 154.7 130.15 153.8 130.45 153.2 130.6 152.75 130.3 152.5 130.05 152.25 128.75 153.4 127.65 154.1 125.5 155.4 122.95 155.4 122.1 155.4 120.85 154.85 119.8 154.4 119.35 154.3
L 119.3 156.2
Q 119.3 156.95 119.4 157.3
M 112.65 158.75
Q 112.4 158.75 111.7 158.65 111.95 158.8 112.2 159.05
L 113.8 160.3
Q 113.9 160.4 114.05 160.5
L 114.2 160.45
Q 114.05 160.35 113.9 160.25 114.0826171875 160.18671875 114.25 160.1 116.60703125 159.33671875 119.8 158.55 119.43203125 158.2126953125 119.2 157.9 119.1080078125 157.7240234375 119.05 157.55 119 157.55 119 157.5 118.65 157 118.2 156.35 117.95 156.65 117.65 156.95 115.75 158.75 112.95 158.75 112.7 158.75 112.65 158.75 Z"/>

<path fill="#3B3D35" stroke="none" d="
M 156.65 169.85
Q 156.7154296875 169.9978515625 156.75 170.15 157.2423828125 171.2080078125 157.7 172.25 159.194921875 175.7822265625 160.5 179.25 160.5 178.35 159.95 176.75 159.25 174.7 157.5 171
L 156.45 168.8
Q 156.4 168.65 156.25 168.6 156.15 168.55 156.1 168.65 156.35 169.15 156.55 169.65 156.6 169.75 156.65 169.85
M 133.65 169.25
Q 133.85 168.75 133.75 168.5 133.5 168.65 133.25 169.15 132.67109375 170.419140625 132.45 171.7 132.2537109375 173.108203125 132.45 174.5 132.5029296875 174.76484375 132.55 175 132.6 175 132.65 174.95 132.75 174.85 132.75 174.75 132.7615234375 174.633984375 132.75 174.45 132.8 173.9716796875 132.8 173.05 132.8 172.2173828125 132.85 171.65 132.87578125 171.4580078125 132.9 171.3 133.1 170.5 133.65 169.25
M 131.5 164.25
Q 131.4 164.15 131.3 164.1 131.15 164.1 131.1 164.15 131.05 164.25 131.15 164.4 132.0845703125 165.9888671875 132.75 166.85 132.804296875 166.9412109375 132.85 167 133.95 168.3 135.15 168.95 135.3 169 135.45 169 135.6 169 135.65 168.85 134.2474609375 168.001953125 133.2 166.8 132.651953125 166.1474609375 132.2 165.4 131.6 164.4 131.5 164.25
M 115.15 170
Q 114.806640625 170.393359375 114.4 170.8 113.55 171.7 111.8 173.4 111.4 173.85 111.25 174.1 111 174.55 111.05 174.9
L 112.2 173.8 118.05 168.05
Q 118.25 167.85 118.15 167.7 118.05 167.6 117.8 167.75 116.821875 168.4427734375 115.15 170
M 108.1 168.75
Q 107.95 169.1 108.15 169.25 108.3 169.15 108.55 168.9 108.75 168.75 108.95 168.5
L 113 164.1
Q 113.25 163.8 113.15 163.65 113.1 163.55 112.9 163.6 112.75 163.65 112.6 163.8 110.45 165.95 108.3 168.5 108.15 168.65 108.1 168.75
M 110.4 167.45
Q 109.5 168.15 109 168.65 108.85 168.8 108.7 168.95 108.2 169.5 107.95 170.05
L 108 170.25
Q 108.35 170 108.8 169.55 109.05 169.25 109.2 169.05 109.35 168.85 109.45 168.75 109.95 168.3 110.75 167.65
L 113.65 165.3
Q 112.35 165.85 110.4 167.45
M 106.2 157.05
Q 105.5 156.7 105.15 156.55 105.05 156.6 105 156.7 105.3 157.05 105.85 157.45 106.15 157.7 106.8 158.15
L 107.7 158.8
Q 107.95 158.95 108.45 159.3 108.7919921875 159.5279296875 109 159.75 109.051953125 159.8279296875 109.1 159.9 109.2134765625 160.0814453125 109.25 160.25 109.37265625 160.5041015625 109.4 160.75 109.45 161.2 109.15 161.55 109.05 161.65 108.8 161.75 108.7 161.85 108.45 161.95 107.85 162.25 107.2 163 106.85 163.4 106.15 164.25 105.9 164.5 105.4 165
L 104.8 165.5
Q 104.2 166.05 103.8 166 103.75 166 103.7 166 103.45 165.9 103.1 165.65 102.7 165.3 102.5 165.25 102.35 165.35 102.45 165.55 102.5 165.65 102.65 165.8 103.4 166.5 103.9 166.65 104.25 166.7 104.4 166.65 104.45 166.65 104.5 166.6 104.6 166.5 104.8 166.35
L 107.05 164.15
Q 107.45 163.75 107.5 163.65 107.95 163 108.05 162.95 108.25 162.75 108.85 162.5 109.4 162.25 109.6 162.05 110 161.65 110 160.95 109.969921875 160.589453125 109.85 160.25 109.7998046875 160.0494140625 109.7 159.85 109.651171875 159.742578125 109.6 159.65 109.362109375 159.231640625 109 158.95 108.85 158.85 108.45 158.65 108.1 158.45 107.95 158.3 107.45 157.85 107.15 157.6 106.75 157.3 106.2 157.05
M 167 147.85
Q 166.55 147.75 166.1 147.7
L 146.35 37.4
Q 146.4 37.25 146.4 37.05 146.45 34.8 145.35 32.85 145.2 32.5 145 32.2 144.85 31.9 144.65 31.65 144.4 31.35 144.2 31.1 143.9 30.9 143.65 30.7 143.7 30.7 143.8 30.65 143.8 30.6 143.85 30.65 143.8 30.5 143.7 30.4
L 141.8 29
Q 112.7 34.25 83.65 39.45
L 64.7 42.9
Q 55.6 44.7 46.65 46.85 45.25 47.2 44.25 48.05 42.95 49.25 42.15 50.7 42.05 50.95 41.95 51.2 41.8 51.55 41.55 51.9
L 41.65 52.4 41.5 53
Q 41.55 53.15 41.6 53.2 41.75 53.35 41.95 53.4 42 53.35 42.05 53.35
L 67.2 193.75
Q 67.15 193.95 67.15 194.1 67.15 196.8 68.5 199 68.7 199.3 68.95 199.6 69.1 199.8 69.4 200.05 69.65 200.25 69.8 200.5
L 69.1 200.7 72.4 202.05 105.8 196
Q 111.0478515625 195.04140625 116.3 194.1 116.57578125 194.049609375 116.8 194 116.983203125 194.4638671875 117.1 194.9 117.2431640625 195.229296875 117.35 195.55 117.75 196.65 118.55 199.35 118.9 200.4 119.15 201.3 119.5 202.4 119.8 203.15 120.45 205.1 121.8 208.25 121.9 208.45 122 208.7 122.65 210.2 123 211 123.65 212.3 124.3 213.2 124.7 213.7 125.3 214.3 125.25 214.4 125.25 214.5 125.25 214.65 125.5 214.95
L 126.1 215.7
Q 126.1 215.95 126.2 216.15
L 128.7 220.3
Q 130.15 222.75 131.1 223.85
L 131.15 223.9
Q 131.7 223.7 132.3 223.45 131.65 222.8 131.25 222.3 130.65 221.5 129.05 218.8 128.45 217.75 127.85 217 127.6 216.6 127.35 216.25
L 134.25 222.4
Q 131.3 218.05 128 215.3 127.1 214.6 126.7 214.25 125.9 213.6 125.45 213.05 124.7 212.25 124.05 211
L 124 210.95 124 210.9
Q 123.6 210.15 123.05 208.7 120.45 202.4 118.3 195.6 117.966796875 194.4724609375 117.75 193.8 117.598828125 193.220703125 117.55 193.05 117.3599609375 192.517578125 117.15 192 116.87890625 191.2318359375 116.6 190.55 116.5384765625 190.3962890625 116.4 190.15 116.3462890625 190.0232421875 116.25 189.85 116.074609375 189.4640625 115.8 188.9 115.7193359375 188.7037109375 115.6 188.45 114.95 187.15 114.65 186.35 114.15 184.85 113.9 184.15 113.6185546875 183.390234375 113.35 182.8 113.1185546875 182.3498046875 112.9 182 112.5 181.35 111.55 180.35 110.5 179.25 110.15 178.7 110.106640625 178.639453125 110.05 178.55 109.606640625 177.9048828125 109.15 176.9 108.92109375 176.4005859375 108.7 176 108.4751953125 175.4294921875 108.3 175.05 107.4857421875 173.226171875 106.35 171.6 105.747265625 170.751953125 105.05 169.95 104.55 169.45 103.25 168.1 103.15 168 103.05 167.85 103.05 167.75 103 167.65 102.95 167.5 102.8 167.45 102.7 167.4 102.6 167.35 101.95 166.7 101.55 166.2 99.7 164 99.4 161.9 99.4 161.75 99.4 161.65 99.390234375 161.5626953125 99.35 161.45 99.282421875 160.2224609375 99.75 159.1 100.3 157.8 101.35 157.2 101.6 157.05 101.75 156.85 102.25 156.6 102.8 156.45 104 156.15 105.2 156.3 106.65 156.5 108.25 157.45 108.7 157.75 109.35 158.15 110.04453125 158.64609375 110.95 159.4
L 111 159.4 113.15 161.1
Q 114.6 162.25 115.25 162.85 116.35 163.85 118.25 166.2
L 121.45 170.2
Q 122.813671875 171.8998046875 123.85 173.25 124.9833984375 174.692578125 125.75 175.75 126.08125 176.2107421875 126.35 176.6 127.6 178.45 128.05 178.95 128.5 179.45 129 179.9
L 128.95 179.95 128.95 179.95
Q 128.96484375 180.01484375 129 180.05 129.05 180.2 129.25 180.3 129.35 180.3 129.55 180.3 130.1 180.75 130.8 181.1 132.35 181.95 134.05 182.2 133.8 182 133.05 181.5 132.45 181.05 131.4 180.4 131.05 180.2 130.75 180 131.28515625 179.753125 131.95 179.45 132.0998046875 179.370703125 132.25 179.3
L 132.35 179.25
Q 132.4 179.35 132.45 179.35
L 132.45 179.35 132.8 179.3
Q 132.9216796875 179.2150390625 133.05 179.05 133.7 178.2 134.05 177.75 134.2 177.55 135.1 176.35 135.85 175.35 136.4 174.6 136.7376953125 174.1201171875 137 173.7 137.56328125 172.9478515625 137.95 172.4 138.1 172.6 138.25 172.7 138.3 172.35 138.25 172.05 138.8 171.2 138.85 171.1 139.1271484375 170.7724609375 139.4 170.45 139.6771484375 170.14765625 139.95 169.85 140.9 168.8 141.8 168.15 142.3 167.85 142.55 167.65 142.95 167.35 143.2 167.1 143.5 166.8 143.4 166.55 143.2 166.6 142.9 166.75 142.35 167 141.65 167.4 140.95 167.85 140.55 168.15 140.3 168.3 140.15 168.45 139.75 168.75 138.85 169.7 138.435546875 170.22734375 138.05 170.7 137.9232421875 170.8521484375 137.8 171 137.75 170.9 137.7 170.85 137.675 170.810546875 137.65 170.75 137.3357421875 170.278515625 137.15 170 136.85 169.55 136.7 169.15 136.5 168.55 136.45 167.4 136.4125 166.744921875 136.4 166.2 136.4435546875 165.3318359375 136.6 164.8 136.8 164.15 136.8 163.9 136.85 163.4 136.55 163.1 135.938671875 164.6765625 135.8 166.3 135.7609375 167.223046875 135.85 168.15 135.95 168.95 136.05 169.35 136.25 169.85 136.9 170.85
L 136.95 170.9 137.4 171.6
Q 136.8 172.35 136.35 173.1 136.0140625 173.613671875 135.8 173.9 135.5 174.4197265625 135.5 174.45 135.35 174.6 134.95 175.05 134.55 175.5 134.4 175.75 134.1 176.1 133.55 177.1
L 133.5 177.15
Q 133.25 176.75 133.25 175.9 133.25 175.45 133.35 174.8 133.370703125 174.5921875 133.4 174.35 133.5123046875 173.498828125 133.75 172.35
L 134.1 170.6
Q 134.35 169.35 134.8 168.85
L 134.6 168.65
Q 133.95 169.1 133.7 170.05 133.5638671875 170.412890625 133.35 171.55 133.3232421875 171.6748046875 133.3 171.8 133.2 172.5 132.9 173.95 132.84296875 174.216015625 132.8 174.45 132.75 174.8970703125 132.75 175.3 132.7 175.7 132.75 176.1 132.8 176.7 133.05 177.05 133.2 177.25 133.4 177.4 132.95 178.05 132.6 178.4 132.4 178.65 132.3 178.85 132.3 178.9 132.3 178.95 131.95 179 131.55 179.1 130.75 179.35 130.35 179.5 130.25 179.5 130.15 179.55 129.4 178.95 128.9 178.4 128.35 177.8 127.4 176.4 127.1365234375 175.999609375 126.8 175.55 126.0607421875 174.4484375 125 173.05 124.4689453125 172.3439453125 123.85 171.55 123.9 171.6 124.05 171.6 125.95 171.65 128.8 170.45 132.4 168.95 133.45 168.7 133.35 168.4 132.85 168.45 131.7 168.55 130 169.3 127.6 170.35 127.25 170.45 126.05 170.85 124.2 171.05 123.95 171.05 123.85 171.2 123.7 171.3 123.7 171.4 123 170.5 122.2 169.5
L 121.25 168.35
Q 121.8 168.15 122.55 167.75 124.7 166.55 129.65 164.3
L 140.85 161.95
Q 143.15 161.4 143.85 161.25 144.05 161.2 144.25 161.15 144.25 161.1 144.3 161.1 144.9 161.05 146.2 160.65 149 159.7 151.95 159.2
L 152 159.2
Q 152.2 159.15 152.45 159.1 152.45 159.25 152.55 159.4 152.65 159.5 152.9 159.6 153 159.65 153.25 159.75 153.5 159.9 154 160.3 154.2 160.45 155.25 160.9 156.25 161.25 158.2 162.5 158.75 162.9 158.95 163.05 159.4 163.4 159.6 163.75 159.65 163.8 159.7 163.9 159.9 164.25 160.1 164.9 160.3 165.4 160.45 165.95 161.35 169.2 161.5 172.65 161.55 173.35 161.95 173.35 162.05 173.35 162.15 173.2 162.25 173.1 162.3 172.95 162.3 172.9 162.25 172.4 162.2 172.15 162.2 171.7 162.25 171.2 162.25 170.95 162.3 170.05 162.1 169 162.05 168.6 161.9 167.9 161.95 167.95 162 167.95 162.5150390625 168.22734375 163.45 168.7 163.7197265625 168.8150390625 164 168.95 164.0990234375 169.00390625 164.2 169.05 164.25234375 169.0818359375 164.3 169.1 164.7015625 169.3630859375 165 169.6 165.41953125 169.92265625 165.7 170.25 166.35 171 166.6 172.25 166.8 173.2 166.75 174.55 166.7263671875 175.5658203125 166.45 177.65 166.378515625 178.637109375 166.2 179.8 166.2064453125 179.974609375 166.15 180.1 166.1119140625 180.6611328125 166.05 181.25 165.9369140625 182.0697265625 165.8 182.95 165.75546875 183.35859375 165.7 183.75 165.6259765625 184.18359375 165.55 184.6 165.0158203125 188.28359375 165.15 191.95 165.3 195.05 165.55 198.15 166.05 197.45 166.6 196.75 166.5109375 194.523828125 166.5 192.3 166.5052734375 189.3091796875 166.65 186.3 166.706640625 185.3275390625 166.75 184.3 166.807421875 184.3103515625 166.85 184.3
L 166.9 184.3
Q 168.2 183.85 169.2 183 170.5 181.85 171.35 180.45 171.45 180.2 171.55 179.9 171.75 179.6 171.95 179.3
L 171.85 178.75 172.05 178.15
Q 172 178.05 171.9 178 171.75 177.85 171.6 177.85 171.5 177.85 171.45 177.85
L 167.55 156.05
Q 167.5521484375 155.940625 167.5 155.8
L 167.35 154.95
Q 167.5171875 154.894921875 167.65 154.8 167.8234375 154.7009765625 168 154.6 168.8 154.15 169.7 154.05 170.25 153.95 170.45 153.85 170.75 153.6 170.8 153 170.8 152.2 170.35 150.75
L 169.7 148.75
Q 169.5 148.1 169.2 147.85 168.9 147.65 168.3 147.7 167.6 147.7 167 147.85
M 164.55 147.65
Q 163.4177734375 147.66953125 162.15 147.9 161.7326171875 147.99140625 161.15 148.15
L 160.25 143.05 141 35.85 140.25 35.95 140.2 35.65 127.5 37.9 127.35 37.05
Q 127.2 36.2 126.9 35.9 126.3 35.25 124.7 35.7 124.6 35.75 124.45 35.85 124.45 35.75 124.4 35.7 124.4 35.55 124.4 35.45 124.4 35.35 124.35 35.2 124.3 35.05 124.3 34.9 124.25 34.8 124.25 34.65 124.2 34.5 124.2 34.4 124.2 34.3 124.15 34.2 131.7 32.8 139.35 31.65 140.6 31.5 141.95 32.05 142.35 32.1 142.7 32.35 143.2 32.7 143.55 33.2 143.9 33.5 144.15 33.9 144.4 34.35 144.55 34.85 144.8 35.35 145 35.95 144.6 36.7 144.7 37.6 145.1 40.05 145.5 42.4 146 45.35 146.5 48.3 147.15 52.1 147.9 56 149.15 62.8 150.35 69.6 151.6 76.35 152.8 83.2 153.45 86.8 154.1 90.4 154.7 93.6 155.25 96.75 156.5 103.55 157.7 110.35 158.95 117.15 160.1 123.9 160.5 125.9 160.8 127.8 161.1 129.3 161.3 130.8 162 134.2 162.6 137.55 162.95 139.35 163.35 141.15 163.9380859375 144.3841796875 164.55 147.65
M 167.1 148.8
L 167.2 148.75
Q 167.25 148.65 167.25 148.6
L 168.65 148.6 169.8 153
Q 169.35 153.1 169 153.25 168.15 152.15 167.45 151.05 167.05 150.4 166.95 150 166.95 149.7 167 149.3 167 149 167.05 148.85
L 167.1 148.8
M 167.85 153.65
Q 167.501171875 153.8826171875 167.2 154.05 167.1287109375 154.105078125 167.05 154.15 166.9 154 166.7 153.85 166.15 153.35 165.9 153.1 165.65234375 152.8212890625 165.45 152.5 164.7 151.378515625 164.7 149.95 164.7 149.4671875 164.8 149.1 164.911328125 148.90859375 165.05 148.75 165.1 148.75 165.15 148.7 165.65 148.65 166 148.6 166.05 148.6 166.1 148.6
L 166.5 148.6 166.6 148.75
Q 166.5 149.75 166.6 150.2 166.7 150.6 167.15 151.3 167.8 152.3 168.2 152.8 168.4 153.1 168.65 153.35 168.2 153.5 167.85 153.65
M 164.25 149.4
Q 164.2 150.45 164.25 151.05 164.3 151.9 164.65 152.55 164.90859375 153.0671875 165.7 153.85 165.812109375 153.9689453125 165.95 154.1 166.2 154.35 166.45 154.5 166.35 154.5 166.3 154.55 166.06640625 154.6501953125 165.85 154.7 165.749609375 154.766796875 165.65 154.8 165 154.85 164.2 155.05 164.15 155.05 164.05 155.1 164.3 154.85 164.45 154.6 163.9 154.5 162.95 155.15 162.7412109375 155.3095703125 162.45 155.45 162.218359375 155.671484375 161.9 155.85 161.86796875 155.89765625 161.8 155.9 161.5595703125 156.1072265625 161.25 156.3 160.923828125 156.5208984375 160.55 156.75 159.6 157.35 159 157.45 158.65 157.55 158.15 157.5 157.55 157.5 157.25 157.5 156.25 157.45 154.65 157.75 152.4 158.1 150.65 158.5 148.85 158.85 147.55 159.25
L 145.35 159.95
Q 144.9 160.1 144.55 160.15 144.3 159.95 143.75 160.1
L 143.7 160.1
Q 143.25 160 142.95 159.7
L 142.9 159.65
Q 143.1 159.7 143.45 159.55 146.55 158.55 149.85 157.8 150.1 157.75 150.25 157.65 150.45 157.5 150.4 157.35
L 145.7 158.55
Q 143.7 159 142.85 159.6 142.75 159.45 142.75 159.3 142.75 159.1 143.1 158.9 143.85 158.55 144.6 158.3 144.6 158.4 144.7 158.5 145.4 158.1 147.05 157.7 150 157.15 151.15 157 151.9 156.9 153.35 156.8 156.2 156.5 159.05 155.8 159.9 155.6 160.45 155.3
L 160.45 155.35
Q 160.55 155.3 160.6 155.2 160.8251953125 155.0392578125 161 154.85 161.0787109375 154.7892578125 161.15 154.7
L 161.05 154.45
Q 160.9869140625 154.4919921875 160.9 154.5 160.8369140625 154.5919921875 160.75 154.65 160.75 154.3 160.7 153.95 160.6328125 153.435546875 160.6 152.7 160.55 151.7712890625 160.55 150.5 160.55 149.95 160.65 149.65 160.6755859375 149.6435546875 160.7 149.65 160.7458984375 149.63828125 160.8 149.6 161.10703125 149.546875 161.4 149.45 162.96484375 149.0927734375 164.3 148.85 164.25 149.05 164.25 149.4
M 162 156.85
Q 162.0375 156.825 162.05 156.8
L 164.1 168
Q 164.0525390625 167.9787109375 164 167.95
L 162 156.85
M 163.65 155.95
L 164.25 155.8
Q 165.133984375 155.9537109375 166 155.65 166.8048828125 160.1443359375 167.6 164.65 168.6 170.1 169.7 175.55 169.85 176.2 170 176.9 170.05 177.15 170.15 177.4 170.25 177.65 170.3 177.95 170.35 178.05 170.4 178.2 170.4 178.35 170.45 178.45 170.5 178.6 170.55 178.7
L 171 178.9 168.6 181.8
Q 167.8458984375 182.2609375 166.95 182.55 167.85 176.83125 167.85 174.7 167.95 171.45 166.65 169.8 166 168.95 164.8 168.35
L 162.65 156.4
Q 162.9357421875 156.175390625 163.15 156 163.35 155.85 163.5 155.7 163.5 155.85 163.65 155.95
M 162.55 167.35
Q 162.25 167.25 162 167.35 161.85 167.35 161.8 167.4 161.75 167.25 161.7 167.05
L 161.2 165.1
Q 160.9 163.75 160.45 163.15 160.05 162.55 158.8 161.85 156.85 160.7 156.15 160.35 155.15 159.85 154.65 159.65 153.9 159.3 153.35 159 155.4 158.7 157.55 158.6 158.45 158.6 158.9 158.5 159.55 158.35 160.3 157.95 160.7564453125 157.7216796875 161.4 157.25
L 163.25 167.65
Q 162.944140625 167.5076171875 162.55 167.35
M 140.4 36.95
L 140.5 36.95 160.55 148.3
Q 160.52109375 148.3380859375 160.45 148.35
L 140.4 36.95
M 123.25 35.8
Q 123.3 35.95 123.3 36.05 107.05 39 90.8 41.9 90.85 41.95 90.85 42 87.6 42.6 84.3 43.2
L 71.3 45.6 70.95 43.75 84 41.4
Q 103.5 37.9 123 34.4
L 123.05 34.45
Q 123.05 34.6 123.05 34.75 123.05 34.85 123.1 35 123.1 35.15 123.15 35.25 123.15 35.45 123.2 35.55 123.25 35.65 123.25 35.8
M 124.55 37.05
Q 124.65 37.05 124.8 37.05 125.75 36.85 125.95 36.95 126 37.5 126.35 39.2 126.65 40.55 126.6 41.4 126.4 43.05 124.9 44.3 123.65 45.4 121.75 46 121.05 46.2 118.3 46.7 118.15 46.75 117.95 46.8 117.9 46.8 117.85 46.8 116.95 46.9 116.1 47 101.05 49.7 85.95 52.35 78.9 53.9 71.8 54.3 71.7 54.2 71.65 54.15
L 71.15 52.65 70.8 52.35 70.4 50.8 70.05 50.6 69.45 47.65 69.8 47.25 84.6 44.85
Q 87.9 44.25 91.15 43.7 107.45 40.75 123.8 37.8 124 37.75 124.25 37.7 124.3 37.55 124.4 37.45 124.45 37.3 124.5 37.15
L 124.55 37.15
Q 124.55 37.1 124.55 37.05
M 127.8 39.45
L 127.75 39.2 139.8 37.05 159 143.8 159.85 148.5
Q 158.53125 148.90546875 156.7 149.5 155.4064453125 149.92109375 153.85 150.35 150.279296875 151.411328125 145.35 152.6 143.5970703125 150.6111328125 141.4 149.1 140.356640625 148.402734375 139.2 147.8 137.702734375 147.0513671875 136.5 146.8 136.355078125 146.773828125 136.2 146.75 135.25 146.6 134.1 146.7 133.35 146.8 132 147.05 123.7326171875 148.5919921875 115.7 150.55 111.4935546875 151.565234375 107.35 152.7 105.45 153.2 104.6 153.85 104.5 153.9 103.75 154.65 103.2 155.15 102.8 155.3 102.25 155.6 102.15 155.85 101.6515625 156.0494140625 101.2 156.35 101.001171875 156.5154296875 100.8 156.7 100.7 156.8 100.6 156.9 99.85 157.35 99.3 158.25 98.65 159.15 98.5 160.2 98.4 160.7 98.4 161.2 98.4056640625 161.41875 98.4 161.65 98.5845703125 163.385546875 99.65 165.25
L 96.45 166.7
Q 96.05 166.9 95.9 167.05 95.6 167.35 95.75 167.7 95.9 168 96.5 168.05 99.3 168.3 102.05 168.25 102.45 168.7 102.95 169.25 104.2 170.6 104.9 171.45 104.85 171.5 104.8 171.65 104.776953125 171.78046875 104.75 171.9 104.49609375 173.4076171875 104.45 174.1 104.45 174.65 104.6 175 104.75 175.3 105.25 175.8 105.25 175.85 105.6 176.5 105.61328125 176.5240234375 105.6 176.55 105.86328125 176.9580078125 106.1 177.1 106.3 177.2 106.6 177.3 107 177.4 107.15 177.45 107.3 177.5 107.6 177.7 107.9 177.9 108.05 177.95 108.3 178.1 108.55 178.05 108.65 178.05 108.75 178 109.016015625 178.455859375 109.15 178.75 109.2140625 178.8279296875 109.25 178.9 109.5 179.25 109.85 179.85 109.8 179.85 109.75 179.9 109.2 180.35 108.95 180.55 108.55 180.95 108.4 181.35 108.25 181.7 108.2 182.3 108.2 182.95 108.3 183.3 108.35390625 183.4796875 108.45 183.65 108.6296875 184.015625 108.95 184.4 109.8 185.55 111.05 186.4 111.55 186.8 112.05 186.95 111.5 187.2 111.25 187.5 110.9 187.9 110.85 188.4 110.8 188.95 111.05 189.45 111.1341796875 189.576171875 111.3 189.75
L 75.35 196.2 75.4 196.55 74.6 196.7 74.55 196.3 74.35 196.4 66.15 150.85 48.6 53.5 68.45 49.9 68.8 51.85 69.25 52.35 69.45 53.7 70.85 56.15 86.25 54
Q 101.3 51.3 116.4 48.6 117.4 48.4 118.4 48.15 118.55 48.1 118.75 48.05
L 118.85 48.05
Q 120.8 47.8 121.75 47.6 123.3 47.2 124.5 46.7 125.85 46 126.75 44.95 127.8 43.75 128 42.4 128.1 41.4 127.8 39.45
M 44.9 49.4
Q 45.9 48.8 47.1 48.4 48.85 47.75 50.75 47.4 57.9 46.1 65.05 44.85 67.3 44.45 69.65 44 69.65 44.15 69.7 44.25
L 69.95 46.15 68.3 46.7 68.05 47.3 68.25 48.6 46.85 52.45 64.4 150.2 72.95 197.65 73.7 197.5 73.8 197.85 112.55 190.85
Q 113.2958984375 191.4857421875 113.75 191.8 114.3564453125 192.169140625 114.9 192.4 114.3181640625 192.53828125 113.7 192.65 109.6 193.35 105.4 194.1 97.65 195.5 89.85 196.9 82.05 198.25 74.2 199.7 72.4 199.7 70.9 198.8 70.35 198.45 69.95 198.05 69.65 197.65 69.4 197.3 69.25 197.05 69.15 196.85 69 196.65 68.95 196.35 68.7 195.8 68.5 195.25 68.85 194.45 68.75 193.55 68.45 191.15 68.05 188.75 66.85 181.95 65.6 175.15 64.35 168.35 63.15 161.55 62 155.15 60.85 148.75 60.75 148.35 60.7 147.95 59.5 141.2 58.25 134.4 57 127.6 55.8 120.8 54.6 114 53.4 107.25 52.2 100.4 50.85 93.65 49.6 86.9 48.35 80.1 47.15 73.3 45.9 66.5 44.9 61.05 43.75 55.65 43.6 55 43.5 54.3 43.45 54 43.4 53.75 43.25 53.5 43.2 53.25 43.15 53.1 43.1 52.95 43.1 52.85 43.1 52.7 43 52.6 42.95 52.45
L 42.5 52.25 44.9 49.4
M 133.2 148.1
Q 135.15 147.8 136.25 147.95 137.45 148.15 138.95 149 139.3447265625 149.2072265625 139.7 149.4 141.27578125 150.336328125 142.6 151.5 143.85 152.55 144 152.65 144.15 152.75 144.25 152.9 140.2 153.8 135.3 154.9 135.1 154.9 134.95 154.95 132.9830078125 155.343359375 131.15 155.75 130.9078125 155.837109375 130.65 155.9
L 130.65 155.85 132.1 153.85 131.95 153.7
Q 131.8 153.75 131.65 153.95 131.55 154.05 131.4 154.35 131.35 154.45 130.95 154.95 130.65 155.25 130.4 155.65 130.4 154.75 130.75 153.75 130.85 153.5 131.05 153.05 131.35 152.4 131.8 151.4 131.9671875 151.0240234375 131.8 150.85 131.7912109375 150.824609375 131.75 150.8 131.68359375 150.8380859375 131.6 150.85 131.3525390625 151.094921875 131.15 151.5 131.05 151.65 130.75 152.35 130.7 152.5 130.6 152.75 130.45 153.2 130.15 153.8 129.9 154.7 129.9 155.55 129.9 155.805078125 129.9 156 129.942578125 156.0201171875 129.95 156.05 124.4 157.3 120.25 158.4 120.1 158.3 120.05 158.25 120 158.15 119.9 158.05 119.8134765625 157.9201171875 119.7 157.8 119.6349609375 157.6849609375 119.55 157.6 119.45 157.45 119.4 157.3 119.3 156.95 119.3 156.2
L 119.35 154.3 119.35 154
Q 119.35 153.39140625 119.2 153.1 119.21953125 153.0826171875 119.2 153.05 119.05 153 118.95 153.15
L 118.95 153.15
Q 118.9 153.3068359375 118.9 153.45
L 118.9 156.4
Q 118.9 156.55 118.9 156.7 118.75 156.45 118.55 156.15 118.5 156.1 118.45 156.05 118.4 156 118.4 155.95 118.2 155.85 118.15 155.95 118.05 156.1 118.2 156.3
L 118.2 156.35
Q 118.65 157 119 157.5 119 157.55 119.05 157.55 119.1080078125 157.7240234375 119.2 157.9 119.43203125 158.2126953125 119.8 158.55 116.60703125 159.33671875 114.25 160.1 114.0826171875 160.18671875 113.9 160.25 114.05 160.35 114.2 160.45 114.7 160.75 115.4 160.7 116.1 160.65 117.15 160.3 117.7927734375 160.0904296875 118.5 159.85 120.28828125 159.3404296875 122.45 158.8 122.3 159 122.2 159.2 122.15078125 159.323046875 122.1 159.55 122.1 159.819140625 122.1 160.2 122.1 160.65 122.1 161.5 122.1 162.25 122.25 162.75 122.45 163.4 122.95 163.85 123.45 164.3 124.05 164.25 124.45 164.25 124.6 164.05 124.45 163.8 124.05 163.65 123.55 163.45 123.4 163.35 123 163.05 122.85 162.4 122.75 161.95 122.75 161.25
L 122.75 160.05
Q 122.75 159.7 122.8 159.5 122.9 159.05 123.5 158.55 127.2 157.6 131.9 156.7 134.15859375 156.2640625 136.1 155.85 136.6123046875 155.7537109375 137.1 155.65 144.05 154.25 146.8 153.55 146.838671875 153.55 152.2 151.95 153.0861328125 151.7373046875 154.05 151.45 154.9294921875 151.1841796875 155.9 150.9 158.15 150.25 160.05 149.8 160 150.05 160 150.5 160 150.75 160.05 151.3 160.05 151.6 159.95 152.2 159.9 152.75 159.9 153.05 159.85 154 160.2 154.85 159.8 154.95 159.35 155.05 158.95 155.1 158.1 155.2
L 154.25 155.65
Q 150.7 156.1 148.75 156.55 148.25 156.65 147.05 157
L 145.4 157.45
Q 145.25 157.5 145.1 157.6 144.85 157.55 144.55 157.65 143.8 157.8 143.2 158.05 142.4 158.35 142.1 158.75 141.85 159.15 141.95 159.7 142.05 160.1 142.3 160.4 137.5 161.4 130.45 163
L 127.85 163.6
Q 121.5 164.95 118.95 165.45 117.25 163.35 116.25 162.35 115.65 161.85 114.05 160.5 113.9 160.4 113.8 160.3
L 112.2 159.05
Q 111.95 158.8 111.7 158.65 110.75 157.9 110.3 157.6 109.25 156.8 108.3 156.35 107.12578125 155.7361328125 106 155.5 105.0591796875 155.280078125 104.15 155.35 105.95 154.25 108.4 153.45 110.4 152.8 114.15 151.95 120.65 150.45 123.65 149.85 128.95 148.7 133.2 148.1
M 105.4 173.1
Q 105.5 172.6 105.55 172.3 106.3 173.45 107.25 175.2 107.521875 175.719140625 107.75 176.15 107.9978515625 176.6208984375 108.2 177 107.9 176.75 107.5 176.6 107.15 176.5 106.95 176.45 106.8177734375 176.405859375 106.7 176.35 106.5837890625 176.2837890625 106.5 176.2 106.3 176.05 105.95 175.5 105.5 174.6 105.4 174.35 105.3 173.9 105.4 173.1
M 99.1 166.9
Q 99.2 166.85 99.2 166.6 99.2 166.4 99.15 166.25 99.6 166 99.95 165.7 100.35 166.3 100.85 166.9 101 167.1 101.25 167.35
L 98.8 167.3
Q 97.85 167.3 97.4 167.15 97.65 167 98.75 166.45
L 98.75 166.8 98.85 167
Q 99.05 166.95 99.1 166.9
M 111.95 183.05
L 112 183.1
Q 113 184.8 114.45 188.1 114.6708984375 188.6068359375 114.85 189.1 115.151171875 189.7390625 115.4 190.35 115.6921875 191.0755859375 115.95 191.75 115.1 191.45 114.2 190.8 114.0806640625 190.7205078125 113.95 190.6 113.3984375 190.23046875 112.5 189.5 112.4931640625 189.485546875 112.45 189.45 112.05 189.1 111.85 188.8 111.65 188.35 111.9 188 112.05 187.75 112.55 187.65 113.05 187.5 113.25 187.25 113.35 187.15 113.35 187.05 113.5 186.95 113.6 186.85 113.7 186.55 113.4 186.3 113.2 186.2 112.85 186.15 111.35 185.8 109.8 183.85 109.653125 183.6541015625 109.55 183.45 109.3009765625 183.1357421875 109.2 182.9 109.05 182.4 109.2 181.85 109.3 181.3 109.75 180.9 110.15 180.6 110.25 180.4 110.45 180.7 110.65 181 111.51796875 182.3017578125 111.95 183.05 Z"/>

<path fill="#D4D4D4" stroke="none" d="
M 166.85 184.3
Q 166.807421875 184.3103515625 166.75 184.3 166.706640625 185.3275390625 166.65 186.3 166.7275390625 185.33984375 166.8 184.35 166.826953125 184.323046875 166.85 184.3
M 167.65 154.8
Q 167.5171875 154.894921875 167.35 154.95
L 167.5 155.8 167.4 155
Q 167.523828125 154.9009765625 167.65 154.8
M 99.2 166.6
Q 99.2 166.85 99.1 166.9 99.05 166.95 98.85 167
L 98.75 166.8 98.75 166.45
Q 97.65 167 97.4 167.15 97.85 167.3 98.8 167.3
L 101.25 167.35
Q 101 167.1 100.85 166.9 100.35 166.3 99.95 165.7 99.6 166 99.15 166.25 99.2 166.4 99.2 166.6
M 153.25 147.15
L 153.25 147 141.4 149.1
Q 143.5970703125 150.6111328125 145.35 152.6 150.279296875 151.411328125 153.85 150.35
L 153.25 147.15
M 76.9 176.9
L 77.75 181.55 105.6 176.55
Q 105.61328125 176.5240234375 105.6 176.5 105.25 175.85 105.25 175.8 104.75 175.3 104.6 175 104.45 174.65 104.45 174.1 104.49609375 173.4076171875 104.75 171.9
L 76.9 176.9
M 74.2 161.2
L 75.05 165.85 98.4 161.65
Q 98.4056640625 161.41875 98.4 161.2 98.4 160.7 98.5 160.2 98.65 159.15 99.3 158.25 99.85 157.35 100.6 156.9 100.7 156.8 100.8 156.7 101.001171875 156.5154296875 101.2 156.35
L 89.25 158.5 74.2 161.2
M 72.8 153.45
L 73.65 158.1 82.95 156.4 115.7 150.55
Q 123.7326171875 148.5919921875 132 147.05 133.35 146.8 134.1 146.7 135.25 146.6 136.2 146.75 136.355078125 146.773828125 136.5 146.8
L 152.7 143.9 151.85 139.25 73.55 153.3 72.8 153.45
M 71.4 145.75
L 72.25 150.4 151.3 136.2 150.45 131.55 71.4 145.75
M 68.65 130.3
L 69.5 134.95 148.55 120.75 147.7 116.1 68.65 130.3
M 70 138
L 70.85 142.65 149.9 128.45 149.05 123.8 70 138
M 65.8 118.1
L 66.65 122.75 145.7 108.55 144.85 103.9 65.8 118.1
M 64.4 110.4
L 65.25 115.05 144.3 100.85 143.45 96.2 64.4 110.4
M 140.15 77.65
L 139.3 73 60.25 87.2 61.1 91.85 140.15 77.65
M 142.95 93.1
L 142.1 88.45 63.05 102.65 63.9 107.3 142.95 93.1
M 141.55 85.45
L 140.7 80.8 61.65 95 62.5 99.65 141.55 85.45
M 136 55.8
L 135.15 51.15 56.1 65.35 56.95 70 136 55.8
M 124.8 37.05
Q 124.65 37.05 124.55 37.05 124.55 37.1 124.55 37.15
L 124.5 37.15
Q 124.45 37.3 124.4 37.45 124.3 37.55 124.25 37.7 124 37.75 123.8 37.8 107.45 40.75 91.15 43.7 87.9 44.25 84.6 44.85
L 69.8 47.25 69.45 47.65 70.05 50.6 70.4 50.8 70.8 52.35 71.15 52.65 71.65 54.15
Q 71.7 54.2 71.8 54.3 78.9 53.9 85.95 52.35 101.05 49.7 116.1 47 116.95 46.9 117.85 46.8 117.9 46.8 117.95 46.8 118.15 46.75 118.3 46.7 121.05 46.2 121.75 46 123.65 45.4 124.9 44.3 126.4 43.05 126.6 41.4 126.65 40.55 126.35 39.2 126 37.5 125.95 36.95 125.75 36.85 124.8 37.05
M 164.25 151.05
Q 164.2 150.45 164.25 149.4 164.25 149.05 164.3 148.85 162.96484375 149.0927734375 161.4 149.45 161.10703125 149.546875 160.8 149.6 160.7458984375 149.63828125 160.7 149.65 160.6755859375 149.6435546875 160.65 149.65 160.55 149.95 160.55 150.5 160.55 151.7712890625 160.6 152.7 160.6328125 153.435546875 160.7 153.95 160.75 154.3 160.75 154.65 160.8369140625 154.5919921875 160.9 154.5 160.9869140625 154.4919921875 161.05 154.45
L 161.15 154.7
Q 161.0787109375 154.7892578125 161 154.85 160.8251953125 155.0392578125 160.6 155.2 160.55 155.3 160.45 155.35
L 160.45 155.3
Q 159.9 155.6 159.05 155.8 156.2 156.5 153.35 156.8 151.9 156.9 151.15 157 150 157.15 147.05 157.7 145.4 158.1 144.7 158.5 144.6 158.4 144.6 158.3 143.85 158.55 143.1 158.9 142.75 159.1 142.75 159.3 142.75 159.45 142.85 159.6 143.7 159 145.7 158.55
L 150.4 157.35
Q 150.45 157.5 150.25 157.65 150.1 157.75 149.85 157.8 146.55 158.55 143.45 159.55 143.1 159.7 142.9 159.65
L 142.95 159.7
Q 143.25 160 143.7 160.1
L 143.75 160.1
Q 144.3 159.95 144.55 160.15 144.9 160.1 145.35 159.95
L 147.55 159.25
Q 148.85 158.85 150.65 158.5 152.4 158.1 154.65 157.75 156.25 157.45 157.25 157.5 157.55 157.5 158.15 157.5 158.65 157.55 159 157.45 159.6 157.35 160.55 156.75 160.923828125 156.5208984375 161.25 156.3 161.5595703125 156.1072265625 161.8 155.9 161.86796875 155.89765625 161.9 155.85 162.218359375 155.671484375 162.45 155.45 162.7412109375 155.3095703125 162.95 155.15 163.9 154.5 164.45 154.6 164.3 154.85 164.05 155.1 164.15 155.05 164.2 155.05 165 154.85 165.65 154.8 165.749609375 154.766796875 165.85 154.7 166.06640625 154.6501953125 166.3 154.55 166.35 154.5 166.45 154.5 166.2 154.35 165.95 154.1 165.812109375 153.9689453125 165.7 153.85 164.90859375 153.0671875 164.65 152.55 164.3 151.9 164.25 151.05
M 167.2 148.75
L 167.1 148.8 167.05 148.85
Q 167 149 167 149.3 166.95 149.7 166.95 150 167.05 150.4 167.45 151.05 168.15 152.15 169 153.25 169.35 153.1 169.8 153
L 168.65 148.6 167.25 148.6
Q 167.25 148.65 167.2 148.75 Z"/>

<path fill="#E3C5AB" stroke="none" d="
M 164.55 175.6
Q 163.95 176.2 162.6 178.5 161.6658203125 180.116796875 161.15 180.75 160.9765625 181.0375 160.85 181.15 160.85 181.0677734375 160.75 180.85 160.61953125 180.3896484375 160.15 179.35 159.25 177.35 158.95 176.5 158.375390625 174.8419921875 157.9 173.55 157.0896484375 171.1310546875 156.75 170.15 156.71875 170.10234375 156.7 170.05 156.65 169.95 156.65 169.85 156.6 169.75 156.55 169.65 156.35 169.15 156.1 168.65 156.15 168.55 156.25 168.6 156 167.85 156 167.65 156 167.567578125 156.05 167.45 156.2162109375 167.2734375 156.75 167.05 157.1751953125 166.882421875 157.85 166.7 159.45 166.3 160.45 165.95 160.3 165.4 160.1 164.9 159.9 164.25 159.7 163.9 159.65 163.8 159.6 163.75 159.4 163.4 158.95 163.05 158.75 162.9 158.2 162.5 156.25 161.25 155.25 160.9 154.2 160.45 154 160.3 153.5 159.9 153.25 159.75 153 159.65 152.9 159.6 152.65 159.5 152.55 159.4 152.45 159.25 152.45 159.1 152.2 159.15 152 159.2
L 151.95 159.2
Q 148.55 160.45 144.85 162.05 139.8 164.3 139.2 164.95 139.2 165.3359375 139.4 165.65 139.7017578125 166.2009765625 140.5 166.6 141.5 166.6 142.7 166.2 143.765625 165.8609375 144.35 165.35 143.7259765625 165.9240234375 142.9 166.75 143.2 166.6 143.4 166.55 143.5 166.8 143.2 167.1 142.95 167.35 142.55 167.65 142.3 167.85 141.8 168.15 140.9 168.8 139.95 169.85 139.83125 170.1171875 139.7 170.4 139.6609375 170.5966796875 139.6 170.8 139.0673828125 172.190625 138.95 173.35 138.8775390625 174.1560546875 139 174.85 138.6 176.1 137.45 178.4 137.43046875 178.4365234375 137.4 178.45 135.6375 181.75 134.5 181.75 133.85 181.75 133.45 181.6 133.25 181.55 133.05 181.5 133.8 182 134.05 182.2 132.35 181.95 130.8 181.1 130.1 180.75 129.55 180.3 129.35 180.3 129.25 180.3 129.05 180.2 129 180.05 128.96484375 180.01484375 128.95 179.95
L 128.95 179.95 129 179.9
Q 128.5 179.45 128.05 178.95 127.6 178.45 126.35 176.6 126.08125 176.2107421875 125.75 175.75 124.9833984375 174.692578125 123.85 173.25 122.813671875 171.8998046875 121.45 170.2
L 118.25 166.2
Q 116.35 163.85 115.25 162.85 114.6 162.25 113.15 161.1
L 111 159.4 110.95 159.4
Q 110.04453125 158.64609375 109.35 158.15 108.7 157.75 108.25 157.45 106.65 156.5 105.2 156.3 104 156.15 102.8 156.45 102.25 156.6 101.75 156.85 101.6 157.05 101.35 157.2 100.3 157.8 99.75 159.1 99.282421875 160.2224609375 99.35 161.45 99.390234375 161.5626953125 99.4 161.65 99.4 161.75 99.4 161.9 100.6 163.45 103 165.4 103.35 165.7 103.7 166 103.75 166 103.8 166 104.2 166.05 104.8 165.5
L 105.4 165
Q 105.9 164.5 106.15 164.25 106.85 163.4 107.2 163 107.85 162.25 108.45 161.95 108.7 161.85 108.8 161.75 109.05 161.65 109.15 161.55 109.45 161.2 109.4 160.75 109.37265625 160.5041015625 109.25 160.25 109.2134765625 160.0814453125 109.1 159.9 109.051953125 159.8279296875 109 159.75 108.7919921875 159.5279296875 108.45 159.3 107.95 158.95 107.7 158.8
L 106.8 158.15
Q 106.15 157.7 105.85 157.45 105.3 157.05 105 156.7 105.05 156.6 105.15 156.55 105.5 156.7 106.2 157.05 106.75 157.3 107.15 157.6 107.45 157.85 107.95 158.3 108.1 158.45 108.45 158.65 108.85 158.85 109 158.95 109.362109375 159.231640625 109.6 159.65 109.651171875 159.742578125 109.7 159.85 109.7998046875 160.0494140625 109.85 160.25 109.969921875 160.589453125 110 160.95 110 161.65 109.6 162.05 109.4 162.25 108.85 162.5 108.25 162.75 108.05 162.95 107.95 163 107.5 163.65 107.45 163.75 107.05 164.15
L 104.8 166.35
Q 104.6 166.5 104.5 166.6 106.7 168.25 108.1 168.75 108.15 168.65 108.3 168.5 110.45 165.95 112.6 163.8 112.75 163.65 112.9 163.6 113.1 163.55 113.15 163.65 113.25 163.8 113 164.1
L 108.95 168.5
Q 108.75 168.75 108.55 168.9 108.65 168.95 108.7 168.95 108.85 168.8 109 168.65 109.5 168.15 110.4 167.45 112.35 165.85 113.65 165.3
L 110.75 167.65
Q 109.95 168.3 109.45 168.75 109.35 168.85 109.2 169.05 109.25 169.05 109.35 169.05 108.846484375 169.9408203125 109.5 171.05 109.70703125 171.3619140625 110 171.7 110.65 172.45 111.8 173.4 113.55 171.7 114.4 170.8 114.806640625 170.393359375 115.15 170 116.821875 168.4427734375 117.8 167.75 118.05 167.6 118.15 167.7 118.25 167.85 118.05 168.05
L 112.2 173.8
Q 112.325390625 174.1341796875 112.3 175.35 112.308203125 175.57890625 112.3 175.85 112.27578125 177.0392578125 112.4 178.15 112.5654296875 179.3193359375 112.9 180.4 113.229296875 181.5287109375 113.7 182.7 114.2583984375 184.093359375 115 185.55 116.15 187.8 116.25 188.65 116.2642578125 188.72109375 116.25 188.85 116.2857421875 189.169921875 116.25 189.85 116.3462890625 190.0232421875 116.4 190.15 116.5384765625 190.3962890625 116.6 190.55 116.87890625 191.2318359375 117.15 192 117.3599609375 192.517578125 117.55 193.05 117.598828125 193.220703125 117.75 193.8 117.966796875 194.4724609375 118.3 195.6 120.45 202.4 123.05 208.7 123.6 210.15 124 210.9
L 124 210.95 124.05 211
Q 125.55 212.55 127.5 214.3 131.4 217.75 136.85 221.5 148.9 215.8 158.45 206.3 160.4 204.35 162.2 202.3 162.1 201.3 161.95 200.3 160.85 191.45 160.85 188.15 160.85 187 161.5 186 161.5271484375 185.9728515625 161.95 185.45 162.2853515625 185.051171875 162.9 184.3 163.1265625 184.0236328125 163.3 183.7 164.0119140625 182.73125 164.4 181.55 164.6296875 180.872265625 164.75 180.1 164.95 179.1013671875 164.95 177.95 164.95 177.3306640625 164.9 176.8 164.8830078125 175.7986328125 164.75 175.2 164.692578125 175.2 164.65 175.25 164.6212890625 175.31484375 164.6 175.4 164.55 175.5 164.55 175.6
M 125.2 194.75
Q 123.91484375 194.107421875 123 192.85 122.8861328125 192.6720703125 122.75 192.45 127.8453125 191.35546875 132.55 189.3 134.066796875 188.622265625 135.55 187.85
L 137.3 186.7
Q 137.519140625 187.5947265625 137.45 188.45 137.4408203125 189.4517578125 137.05 190.4 136.8705078125 190.852734375 136.6 191.3 136.15 192.05 135.65 192.8 136.25 192.4 136.7 191.85 137.3052734375 191.0287109375 137.85 190.25 137.9619140625 190.121875 138.05 190
L 138.5 190
Q 138.4642578125 190.0744140625 138.4 190.15 133.9791015625 199.2634765625 125.2 194.75
M 159.65 179.4
Q 159.55 179.1 159.7 179 160.0701171875 179.962109375 160.4 180.9 160.6328125 181.546484375 160.85 182.15 161.194921875 183.20234375 161.5 184.2 161.684765625 184.7806640625 161.85 185.35 161.65 185.35 161.6 185.05
L 159.65 179.4
M 136.25 147.95
Q 135.15 147.8 133.2 148.1 128.95 148.7 123.65 149.85 120.65 150.45 114.15 151.95 110.4 152.8 108.4 153.45 105.95 154.25 104.15 155.35 105.0591796875 155.280078125 106 155.5 107.12578125 155.7361328125 108.3 156.35 109.25 156.8 110.3 157.6 110.75 157.9 111.7 158.65 112.4 158.75 112.65 158.75 112.7 158.75 112.95 158.75 115.75 158.75 117.65 156.95 117.95 156.65 118.2 156.35
L 118.2 156.3
Q 118.05 156.1 118.15 155.95 118.2 155.85 118.4 155.95 118.4 156 118.45 156.05 118.5 156.1 118.55 156.15 118.75 156.45 118.9 156.7 118.9 156.55 118.9 156.4
L 118.9 153.45
Q 118.9 153.3068359375 118.95 153.15
L 118.95 153.15
Q 119.05 153 119.2 153.05 119.21953125 153.0826171875 119.2 153.1 119.35 153.39140625 119.35 154
L 119.35 154.3
Q 119.8 154.4 120.85 154.85 122.1 155.4 122.95 155.4 125.5 155.4 127.65 154.1 128.75 153.4 130.05 152.25 130.3 152.5 130.6 152.75 130.7 152.5 130.75 152.35 131.05 151.65 131.15 151.5 131.3525390625 151.094921875 131.6 150.85 131.68359375 150.8380859375 131.75 150.8 131.7912109375 150.824609375 131.8 150.85 131.9671875 151.0240234375 131.8 151.4 131.35 152.4 131.05 153.05 132.5 154.05 134.95 154.95 135.1 154.9 135.3 154.9 140.2 153.8 144.25 152.9 144.15 152.75 144 152.65 143.85 152.55 142.6 151.5 141.27578125 150.336328125 139.7 149.4 139.3447265625 149.2072265625 138.95 149 137.45 148.15 136.25 147.95 Z"/>

<path fill="#053336" stroke="none" d="
M 159.7 179
Q 159.55 179.1 159.65 179.4
L 161.6 185.05
Q 161.65 185.35 161.85 185.35 161.684765625 184.7806640625 161.5 184.2 161.194921875 183.20234375 160.85 182.15 160.6328125 181.546484375 160.4 180.9 160.0701171875 179.962109375 159.7 179 Z"/>

<path fill="#ECDCCF" stroke="none" d="
M 123 192.85
Q 123.91484375 194.107421875 125.2 194.75 133.9791015625 199.2634765625 138.4 190.15 138.4642578125 190.0744140625 138.5 190
L 138.05 190
Q 137.9619140625 190.121875 137.85 190.25 137.3052734375 191.0287109375 136.7 191.85 136.25 192.4 135.65 192.8 136.15 192.05 136.6 191.3 136.8705078125 190.852734375 137.05 190.4 137.4408203125 189.4517578125 137.45 188.45 137.519140625 187.5947265625 137.3 186.7
L 135.55 187.85
Q 134.066796875 188.622265625 132.55 189.3 127.8453125 191.35546875 122.75 192.45 122.8861328125 192.6720703125 123 192.85
M 164.3 169.1
Q 164.25234375 169.0818359375 164.2 169.05 164.0990234375 169.00390625 164 168.95 163.7197265625 168.8150390625 163.45 168.7 162.5150390625 168.22734375 162 167.95 161.95 167.95 161.9 167.9 162.05 168.6 162.1 169 162.3 170.05 162.25 170.95 162.25 171.2 162.2 171.7 162.2 172.15 162.25 172.4 162.3 172.9 162.3 172.95 162.25 173.1 162.15 173.2 162.05 173.35 161.95 173.35 161.55 173.35 161.5 172.65 161.35 169.2 160.45 165.95 159.45 166.3 157.85 166.7 157.1751953125 166.882421875 156.75 167.05 156.2162109375 167.2734375 156.05 167.45 156 167.567578125 156 167.65 156 167.85 156.25 168.6 156.4 168.65 156.45 168.8
L 157.5 171
Q 159.25 174.7 159.95 176.75 160.5 178.35 160.5 179.25 159.194921875 175.7822265625 157.7 172.25 157.2423828125 171.2080078125 156.75 170.15 156.7154296875 169.9978515625 156.65 169.85 156.65 169.95 156.7 170.05 156.71875 170.10234375 156.75 170.15 157.0896484375 171.1310546875 157.9 173.55 158.375390625 174.8419921875 158.95 176.5 159.25 177.35 160.15 179.35 160.61953125 180.3896484375 160.75 180.85 160.85 181.0677734375 160.85 181.15 160.9765625 181.0375 161.15 180.75 161.6658203125 180.116796875 162.6 178.5 163.95 176.2 164.55 175.6 164.55 175.5 164.6 175.4 164.6212890625 175.31484375 164.65 175.25 164.692578125 175.2 164.75 175.2 164.8830078125 175.7986328125 164.9 176.8 164.95 177.3306640625 164.95 177.95 164.95 179.1013671875 164.75 180.1 164.6296875 180.872265625 164.4 181.55 164.0119140625 182.73125 163.3 183.7 163.1265625 184.0236328125 162.9 184.3 162.2853515625 185.051171875 161.95 185.45 161.5271484375 185.9728515625 161.5 186 160.85 187 160.85 188.15 160.85 191.45 161.95 200.3 162.1 201.3 162.2 202.3 163.95 200.25 165.55 198.15 165.3 195.05 165.15 191.95 165.0158203125 188.28359375 165.55 184.6 165.6259765625 184.18359375 165.7 183.75 165.75546875 183.35859375 165.8 182.95 165.9369140625 182.0697265625 166.05 181.25 166.1119140625 180.6611328125 166.15 180.1 166.2064453125 179.974609375 166.2 179.8 166.378515625 178.637109375 166.45 177.65 166.7263671875 175.5658203125 166.75 174.55 166.8 173.2 166.6 172.25 166.35 171 165.7 170.25 165.41953125 169.92265625 165 169.6 164.7015625 169.3630859375 164.3 169.1 Z"/>

<path fill="#4275CD" stroke="none" d="
M 115.4 160.7
Q 114.7 160.75 114.2 160.45
L 114.05 160.5
Q 115.65 161.85 116.25 162.35 117.25 163.35 118.95 165.45 121.5 164.95 127.85 163.6
L 130.45 163
Q 137.5 161.4 142.3 160.4 142.05 160.1 141.95 159.7 141.85 159.15 142.1 158.75 142.4 158.35 143.2 158.05 143.8 157.8 144.55 157.65 144.85 157.55 145.1 157.6 145.25 157.5 145.4 157.45
L 147.05 157
Q 148.25 156.65 148.75 156.55 150.7 156.1 154.25 155.65
L 158.1 155.2
Q 158.95 155.1 159.35 155.05 159.8 154.95 160.2 154.85 159.85 154 159.9 153.05 159.9 152.75 159.95 152.2 160.05 151.6 160.05 151.3 160 150.75 160 150.5 160 150.05 160.05 149.8 158.15 150.25 155.9 150.9 154.9294921875 151.1841796875 154.05 151.45 153.0861328125 151.7373046875 152.2 151.95 146.838671875 153.55 146.8 153.55 144.05 154.25 137.1 155.65 136.6123046875 155.7537109375 136.1 155.85 134.15859375 156.2640625 131.9 156.7 127.2 157.6 123.5 158.55 122.9 159.05 122.8 159.5 122.75 159.7 122.75 160.05
L 122.75 161.25
Q 122.75 161.95 122.85 162.4 123 163.05 123.4 163.35 123.55 163.45 124.05 163.65 124.45 163.8 124.6 164.05 124.45 164.25 124.05 164.25 123.45 164.3 122.95 163.85 122.45 163.4 122.25 162.75 122.1 162.25 122.1 161.5 122.1 160.65 122.1 160.2 122.1 159.819140625 122.1 159.55 122.15078125 159.323046875 122.2 159.2 122.3 159 122.45 158.8 120.28828125 159.3404296875 118.5 159.85 117.7927734375 160.0904296875 117.15 160.3 116.1 160.65 115.4 160.7 Z"/>

<path fill="#D69686" stroke="none" d="
M 64.4 150.2
L 60.85 148.75
Q 62 155.15 63.15 161.55 64.35 168.35 65.6 175.15 66.85 181.95 68.05 188.75 68.45 191.15 68.75 193.55 68.85 194.45 68.5 195.25 68.7 195.8 68.95 196.35 69 196.65 69.15 196.85 69.25 197.05 69.4 197.3 69.65 197.65 69.95 198.05 70.35 198.45 70.9 198.8 72.4 199.7 74.2 199.7 82.05 198.25 89.85 196.9 97.65 195.5 105.4 194.1 109.6 193.35 113.7 192.65 114.3181640625 192.53828125 114.9 192.4 114.3564453125 192.169140625 113.75 191.8 113.2958984375 191.4857421875 112.55 190.85
L 73.8 197.85 73.7 197.5 72.95 197.65 64.4 150.2
M 164.25 155.8
L 163.65 155.95
Q 163.5 155.85 163.5 155.7 163.35 155.85 163.15 156 162.9357421875 156.175390625 162.65 156.4
L 164.8 168.35
Q 166 168.95 166.65 169.8 167.95 171.45 167.85 174.7 167.85 176.83125 166.95 182.55 167.8458984375 182.2609375 168.6 181.8
L 171 178.9 170.55 178.7
Q 170.5 178.6 170.45 178.45 170.4 178.35 170.4 178.2 170.35 178.05 170.3 177.95 170.25 177.65 170.15 177.4 170.05 177.15 170 176.9 169.85 176.2 169.7 175.55 168.6 170.1 167.6 164.65 166.8048828125 160.1443359375 166 155.65 165.133984375 155.9537109375 164.25 155.8
M 162.15 147.9
Q 163.4177734375 147.66953125 164.55 147.65 163.9380859375 144.3841796875 163.35 141.15
L 160.25 143.05 161.15 148.15
Q 161.7326171875 147.99140625 162.15 147.9 Z"/>

<path fill="#D6AF86" stroke="none" d="
M 47.1 48.4
Q 45.9 48.8 44.9 49.4
L 42.5 52.25 42.95 52.45
Q 43 52.6 43.1 52.7 43.1 52.85 43.1 52.95 43.15 53.1 43.2 53.25 43.25 53.5 43.4 53.75 43.45 54 43.5 54.3 43.6 55 43.75 55.65 44.9 61.05 45.9 66.5 47.15 73.3 48.35 80.1 49.6 86.9 50.85 93.65 52.2 100.4 53.4 107.25 54.6 114 55.8 120.8 57 127.6 58.25 134.4 59.5 141.2 60.7 147.95 60.75 148.35 60.85 148.75
L 64.4 150.2 46.85 52.45 68.25 48.6 68.05 47.3 68.3 46.7 69.95 46.15 69.7 44.25
Q 69.65 44.15 69.65 44 67.3 44.45 65.05 44.85 57.9 46.1 50.75 47.4 48.85 47.75 47.1 48.4
M 140.5 36.95
L 140.4 36.95 160.45 148.35
Q 160.52109375 148.3380859375 160.55 148.3
L 140.5 36.95
M 162.05 156.8
Q 162.0375 156.825 162 156.85
L 164 167.95
Q 164.0525390625 167.9787109375 164.1 168
L 162.05 156.8
M 163.35 141.15
Q 162.95 139.35 162.6 137.55 162 134.2 161.3 130.8 161.1 129.3 160.8 127.8 160.5 125.9 160.1 123.9 158.95 117.15 157.7 110.35 156.5 103.55 155.25 96.75 154.7 93.6 154.1 90.4 153.45 86.8 152.8 83.2 151.6 76.35 150.35 69.6 149.15 62.8 147.9 56 147.15 52.1 146.5 48.3 146 45.35 145.5 42.4 145.1 40.05 144.7 37.6 144.6 36.7 145 35.95 144.8 35.35 144.55 34.85 144.4 34.35 144.15 33.9 143.9 33.5 143.55 33.2 143.2 32.7 142.7 32.35 142.35 32.1 141.95 32.05 140.6 31.5 139.35 31.65 131.7 32.8 124.15 34.2 124.2 34.3 124.2 34.4 124.2 34.5 124.25 34.65 124.25 34.8 124.3 34.9 124.3 35.05 124.35 35.2 124.4 35.35 124.4 35.45 124.4 35.55 124.4 35.7 124.45 35.75 124.45 35.85 124.6 35.75 124.7 35.7 126.3 35.25 126.9 35.9 127.2 36.2 127.35 37.05
L 127.5 37.9 140.2 35.65 140.25 35.95 141 35.85 160.25 143.05 163.35 141.15 Z"/>

<path fill="#FFFFFF" stroke="none" d="
M 103.75 154.65
Q 104.5 153.9 104.6 153.85 105.45 153.2 107.35 152.7 111.4935546875 151.565234375 115.7 150.55
L 82.95 156.4 89.25 158.5 101.2 156.35
Q 101.6515625 156.0494140625 102.15 155.85 102.25 155.6 102.8 155.3 103.2 155.15 103.75 154.65
M 127.75 39.2
L 127.8 39.45
Q 128.1 41.4 128 42.4 127.8 43.75 126.75 44.95 125.85 46 124.5 46.7 123.3 47.2 121.75 47.6 120.8 47.8 118.85 48.05
L 118.75 48.05
Q 118.55 48.1 118.4 48.15 117.4 48.4 116.4 48.6 101.3 51.3 86.25 54
L 70.85 56.15 69.45 53.7 69.25 52.35 68.8 51.85 68.45 49.9 48.6 53.5 66.15 150.85 73.55 153.3 151.85 139.25 152.7 143.9 136.5 146.8
Q 137.702734375 147.0513671875 139.2 147.8 140.356640625 148.402734375 141.4 149.1
L 153.25 147 153.25 147.15
Q 155.77890625 145.75078125 158.25 144.25 158.6 144 159 143.8
L 139.8 37.05 127.75 39.2
M 135.15 51.15
L 136 55.8 56.95 70 56.1 65.35 135.15 51.15
M 136.5 58.55
L 137.35 63.25 58.35 77.45 57.5 72.8 136.5 58.55
M 140.7 80.8
L 141.55 85.45 62.5 99.65 61.65 95 140.7 80.8
M 142.1 88.45
L 142.95 93.1 63.9 107.3 63.05 102.65 142.1 88.45
M 139.3 73
L 140.15 77.65 61.1 91.85 60.25 87.2 139.3 73
M 65.25 115.05
L 64.4 110.4 143.45 96.2 144.3 100.85 65.25 115.05
M 66.65 122.75
L 65.8 118.1 144.85 103.9 145.7 108.55 66.65 122.75
M 70.85 142.65
L 70 138 149.05 123.8 149.9 128.45 70.85 142.65
M 69.5 134.95
L 68.65 130.3 147.7 116.1 148.55 120.75 69.5 134.95
M 72.25 150.4
L 71.4 145.75 150.45 131.55 151.3 136.2 72.25 150.4 Z"/>

<path fill="#FFFDF6" stroke="none" d="
M 158.25 144.25
Q 155.77890625 145.75078125 153.25 147.15
L 153.85 150.35
Q 155.4064453125 149.92109375 156.7 149.5 158.53125 148.90546875 159.85 148.5
L 159 143.8
Q 158.6 144 158.25 144.25
M 73.65 158.1
L 72.8 153.45 73.55 153.3 66.15 150.85 74.35 196.4 74.55 196.3 74.6 196.7 75.4 196.55 75.35 196.2 111.3 189.75
Q 111.1341796875 189.576171875 111.05 189.45 110.8 188.95 110.85 188.4 110.9 187.9 111.25 187.5 111.5 187.2 112.05 186.95 111.55 186.8 111.05 186.4 109.8 185.55 108.95 184.4 108.6296875 184.015625 108.45 183.65
L 79.15 188.95 78.3 184.3 109.15 178.75
Q 109.016015625 178.455859375 108.75 178 108.65 178.05 108.55 178.05 108.3 178.1 108.05 177.95 107.9 177.9 107.6 177.7 107.3 177.5 107.15 177.45 107 177.4 106.6 177.3 106.3 177.2 106.1 177.1 105.86328125 176.9580078125 105.6 176.55
L 77.75 181.55 76.9 176.9 104.75 171.9
Q 104.776953125 171.78046875 104.8 171.65 104.85 171.5 104.9 171.45 104.2 170.6 102.95 169.25 102.45 168.7 102.05 168.25 99.3 168.3 96.5 168.05 95.9 168 95.75 167.7 95.6 167.35 95.9 167.05 96.05 166.9 96.45 166.7
L 99.65 165.25
Q 98.5845703125 163.385546875 98.4 161.65
L 75.05 165.85 74.2 161.2 89.25 158.5 82.95 156.4 73.65 158.1
M 162 167.35
Q 162.25 167.25 162.55 167.35 162.944140625 167.5076171875 163.25 167.65
L 161.4 157.25
Q 160.7564453125 157.7216796875 160.3 157.95 159.55 158.35 158.9 158.5 158.45 158.6 157.55 158.6 155.4 158.7 153.35 159 153.9 159.3 154.65 159.65 155.15 159.85 156.15 160.35 156.85 160.7 158.8 161.85 160.05 162.55 160.45 163.15 160.9 163.75 161.2 165.1
L 161.7 167.05
Q 161.75 167.25 161.8 167.4 161.85 167.35 162 167.35 Z"/>

<path fill="#144162" stroke="none" d="
M 78.3 184.3
L 79.15 188.95 108.45 183.65
Q 108.35390625 183.4796875 108.3 183.3 108.2 182.95 108.2 182.3 108.25 181.7 108.4 181.35 108.55 180.95 108.95 180.55 109.2 180.35 109.75 179.9 109.8 179.85 109.85 179.85 109.5 179.25 109.25 178.9 109.2140625 178.8279296875 109.15 178.75
L 78.3 184.3
M 137.35 63.25
L 136.5 58.55 57.5 72.8 58.35 77.45 137.35 63.25 Z"/>

<path fill="#B1B1B1" stroke="none" d="
M 123.3 36.05
Q 123.3 35.95 123.25 35.8 123.25 35.65 123.2 35.55 123.15 35.45 123.15 35.25 123.1 35.15 123.1 35 123.05 34.85 123.05 34.75 123.05 34.6 123.05 34.45
L 123 34.4
Q 103.5 37.9 84 41.4
L 70.95 43.75 71.3 45.6 84.3 43.2
Q 87.6 42.6 90.85 42 90.85 41.95 90.8 41.9 107.05 39 123.3 36.05 Z"/>

<path fill="#94919F" stroke="none" d="
M 167.2 154.05
Q 167.501171875 153.8826171875 167.85 153.65 168.2 153.5 168.65 153.35 168.4 153.1 168.2 152.8 167.8 152.3 167.15 151.3 166.7 150.6 166.6 150.2 166.5 149.75 166.6 148.75
L 166.5 148.6 166.1 148.6
Q 166.05 148.6 166 148.6 165.65 148.65 165.15 148.7 165.1 148.75 165.05 148.75 164.911328125 148.90859375 164.8 149.1 164.7 149.4671875 164.7 149.95 164.7 151.378515625 165.45 152.5 165.65234375 152.8212890625 165.9 153.1 166.15 153.35 166.7 153.85 166.9 154 167.05 154.15 167.1287109375 154.105078125 167.2 154.05 Z"/>
</g>

<g id="Layer0_0_MEMBER_2_FILL">
<path fill="#98A354" stroke="none" d="
M 59.25 28.85
Q 54.6 26.9 49.5 26.9 44.4 26.9 39.8 28.85 35.3 30.75 31.85 34.2 28.35 37.7 26.45 42.15 24.5 46.8 24.5 51.9 24.5 57 26.45 61.65 28.35 66.1 31.85 69.55 35.3 73.05 39.8 74.95 44.45 76.9 49.5 76.9 54.6 76.9 59.25 74.95 63.75 73.05 67.2 69.55 70.65 66.1 72.55 61.65 74.5 57 74.5 51.9 74.5 46.8 72.55 42.15 70.65 37.7 67.2 34.2 63.75 30.75 59.25 28.85
M 62.75 40.7
Q 62.85 41.2 62.6 41.6 57.65 48.95 53.7 53.95 49.4 59.35 45.25 63.3 44.5 64 43.5 63.95 42.55 63.85 41.9 63.05 40.65 61.45 39 59.1 37.5 56.95 36.4 55.15 36.2 54.8 36.25 54.4 36.25 54 36.5 53.7 36.8 53.25 37.35 53.2 37.9 53.1 38.35 53.45 40 54.8 41.8 56.05 42.65 56.65 43.2 57 48.3 52.8 52 49.2 55.35 46 60.85 40.2 61.1 39.9 61.5 39.85 61.85 39.8 62.2 40 62.65 40.2 62.75 40.7 Z"/>

<path fill="#FFFFFF" stroke="none" d="
M 62.6 41.6
Q 62.85 41.2 62.75 40.7 62.65 40.2 62.2 40 61.85 39.8 61.5 39.85 61.1 39.9 60.85 40.2 55.35 46 52 49.2 48.3 52.8 43.2 57 42.65 56.65 41.8 56.05 40 54.8 38.35 53.45 37.9 53.1 37.35 53.2 36.8 53.25 36.5 53.7 36.25 54 36.25 54.4 36.2 54.8 36.4 55.15 37.5 56.95 39 59.1 40.65 61.45 41.9 63.05 42.55 63.85 43.5 63.95 44.5 64 45.25 63.3 49.4 59.35 53.7 53.95 57.65 48.95 62.6 41.6 Z"/>
</g>

<g id="Layer0_0_MEMBER_3_FILL">
<path fill="#BD0026" stroke="none" d="
M 198.8 59.85
Q 194.15 57.9 189.05 57.9 184 57.9 179.35 59.85 174.85 61.75 171.4 65.2 167.9 68.65 166 73.15 164.05 77.8 164.05 82.9 164.05 88 166 92.6 167.9 97.1 171.4 100.55 174.85 104.05 179.35 105.95 183.95 107.9 189.05 107.9 194.15 107.9 198.8 105.95 203.3 104.05 206.75 100.55 210.2 97.1 212.1 92.6 214.05 88 214.05 82.9 214.05 77.8 212.1 73.15 210.2 68.65 206.75 65.2 203.3 61.75 198.8 59.85
M 196.55 72.7
Q 197.1 72.15 197.9 72.15 198.65 72.15 199.25 72.7 199.8 73.25 199.8 74.05 199.8 74.85 199.25 75.4
L 191.75 82.9 199.25 90.4
Q 199.8 90.95 199.8 91.7 199.8 92.5 199.25 93.05 198.95 93.35 198.6 93.5 198.25 93.6 197.9 93.6 197.5 93.6 197.15 93.5 196.8 93.35 196.55 93.05
L 189.05 85.55 181.55 93.05
Q 181.3 93.35 180.95 93.5 180.6 93.6 180.25 93.6 179.85 93.6 179.5 93.5 179.15 93.35 178.9 93.05 178.35 92.5 178.35 91.7 178.35 90.95 178.9 90.4
L 186.35 82.9 178.9 75.4
Q 178.35 74.85 178.35 74.05 178.35 73.25 178.9 72.7 179.45 72.15 180.25 72.15 181 72.15 181.55 72.7
L 189.05 80.2 196.55 72.7 Z"/>

<path fill="#FFFFFF" stroke="none" d="
M 197.9 72.15
Q 197.1 72.15 196.55 72.7
L 189.05 80.2 181.55 72.7
Q 181 72.15 180.25 72.15 179.45 72.15 178.9 72.7 178.35 73.25 178.35 74.05 178.35 74.85 178.9 75.4
L 186.35 82.9 178.9 90.4
Q 178.35 90.95 178.35 91.7 178.35 92.5 178.9 93.05 179.15 93.35 179.5 93.5 179.85 93.6 180.25 93.6 180.6 93.6 180.95 93.5 181.3 93.35 181.55 93.05
L 189.05 85.55 196.55 93.05
Q 196.8 93.35 197.15 93.5 197.5 93.6 197.9 93.6 198.25 93.6 198.6 93.5 198.95 93.35 199.25 93.05 199.8 92.5 199.8 91.7 199.8 90.95 199.25 90.4
L 191.75 82.9 199.25 75.4
Q 199.8 74.85 199.8 74.05 199.8 73.25 199.25 72.7 198.65 72.15 197.9 72.15 Z"/>
</g>

<path id="Layer0_0_MEMBER_0_1_STROKES" stroke="#CDA45E" stroke-width="2" stroke-linejoin="round" stroke-linecap="round" fill="none" d="
M 218.9 106.6
Q 218.9 143.25 192.95 169.15 167.05 195.1 130.4 195.1 93.75 195.1 67.8 169.15 41.9 143.25 41.9 106.6 41.9 69.95 67.8 44 93.75 18.1 130.4 18.1 167.05 18.1 192.95 44 218.9 69.95 218.9 106.6 Z"/>
</defs>

<g transform="matrix( 1, 0, 0, 1, -1.25,3.5) ">
<use xlink:href="#Layer0_0_MEMBER_0_FILL"/>

<use xlink:href="#Layer0_0_MEMBER_0_1_STROKES"/>
</g>

<g transform="matrix( 1, 0, 0, 1, 24,-8.45) ">
<use xlink:href="#Layer0_0_MEMBER_1_FILL"/>
</g>

<g transform="matrix( 1, 0, 0, 1, 5.75,0) ">
<use xlink:href="#Layer0_0_MEMBER_2_FILL"/>
</g>

<g transform="matrix( 1, 0, 0, 1, 5.75,0) ">
<use xlink:href="#Layer0_0_MEMBER_3_FILL"/>
</g>
</svg>
