
<svg xmlns="http://www.w3.org/2000/svg" version="1.1" xmlns:xlink="http://www.w3.org/1999/xlink" preserveAspectRatio="none" x="0px" y="0px" width="150px" height="155px" viewBox="0 0 150 155">
<defs>
<g id="Layer0_0_FILL">
<path fill="#B8BE79" stroke="none" d="
M 21.5 19.95
L 21.5 157.8 159.35 157.8 159.35 19.95 21.5 19.95 Z"/>
</g>

<g id="Layer0_1_FILL">
<path fill="#E1C99B" stroke="none" d="
M 21.5 111.85
L 21.5 148.6 159.35 148.6 159.35 111.85 21.5 111.85 Z"/>
</g>

<g id="Layer0_2_FILL">
<path fill="#3B3D35" stroke="none" d="
M 581.1 189.45
Q 580.938671875 190.2 581.1 191.2
L 579.4 192 579.45 202.9
Q 579.75 203.2 580.15 203.45 580.8833984375 203.743359375 581.65 204
L 581.4 207.4
Q 579.5 209.75 577.45 211.95 574.6 215.1 573.15 217.8 573.05 217.9 573 218.15 573 218.3 573 218.55 572.85 221.4 572.85 224.2 572.8 230.15 572.8 236.15 572.8 242.1 572.8 248.1 572.8 250.3 572.7 252.65 572.55 255.7 574.3 258.15 574.6599609375 258.6541015625 575.15 259.1 575.3400390625 259.28203125 575.55 259.45 575.65 261.2 577.05 262.25 578.9 263.7 581.1 264.3 584.85 265.35 588.9 265.4 596.25 266 603.1 263.45 605.1 262.75 605.8 260.8 606.05 260.15 606.2 259.45 609.15 257.65 608.9 254.4 608.9 254.3 608.9 254.2 608.95 251.35 608.95 248.55 608.95 242.55 608.95 236.6 608.9 230.6 608.95 224.65 608.95 222.4 608.95 220.05 608.95 218.7 608.2 217.8 605.95 215.25 603.9 212.3 602.1 209.8 600.05 207.55 600.2 207.25 600.3 206.9 600.3337890625 206.808203125 600.35 206.7 600.7998046875 205.404296875 600.5 204.15 601.605859375 203.817578125 602.65 203.4 602.770703125 203.324609375 602.85 203.25 603.1404296875 203.0595703125 603.35 202.85
L 603.4 191.95 601.7 191.15
Q 601.855859375 190.183203125 601.65 189.45 601.5 189.05 601.2 188.9 590.85 182.8 581.1 189.45
M 582.8 189.45
Q 583.05 189.25 583.3 189.1 591.85 186.5 600.05 189.45 600.6767578125 190.1765625 600.7 191.45
L 600.8 191.5
Q 599.962109375 191.7126953125 598.45 192.4 596.85 193.1 595.95 193.25 595.5 193.35 594.55 193.35
L 590.75 193.35
Q 588.1 193.45 586.5 193.1
L 584.55 192.5
Q 584.2958984375 192.396484375 584.05 192.3 583.1341796875 191.8841796875 582.85 191.6 582.55 191.3 582.35 191.25 582.2294921875 191.209765625 582.1 191.25 582.1482421875 190.543359375 582.4 190 582.5509765625 190.3421875 582.9 190.65 583.4 191.15 584.55 191.45 588.05 192.4 595.35 192.4 596 192.4 596.3 192.2 596.9 191.9 596.65 191.4 593.6 191.7 589.3 191.45 586.25 191.25 584.5 190.7 583.25 190.2 582.9 189.55 582.8685546875 189.4962890625 582.8 189.45
M 580.6 193.9
L 580.6 192.55 581.9 191.6
Q 582.0376953125 191.9833984375 582.25 192.3 582.61953125 192.8669921875 583.3 193.3
L 583.35 193.3
Q 583.225390625 193.358203125 583.1 193.4 583.1 193.8 582.65 194.55 582.5 194.95 582.5 195.85 582.5 199.015625 582.6 201.15 582.5958984375 201.234375 582.6 201.3 582.037890625 201.1337890625 581.7 201.1 581.6 201.55 582.3 201.95 582.46640625 202.0498046875 582.65 202.15 582.666796875 202.601953125 582.7 203 582.95 203 582.95 202.6 582.966796875 202.4546875 582.95 202.3 583.7228515625 202.64765625 584.6 202.85
L 592.1 203.5
Q 592.6013671875 203.5 593 203.5 593 203.582421875 593 203.65 593.05 203.75 593.1 203.85 593.15 203.85 593.2 203.85 593.3 203.75 593.35 203.65 593.35 203.580859375 593.35 203.5 594.06015625 203.4580078125 594.35 203.4
L 595.5 203.2 596.6 203.15
Q 597.398828125 203.064453125 598.1 202.8 598.627734375 202.6576171875 599.1 202.4
L 599.15 202.35
Q 600.2578125 201.8486328125 600.55 201.8 601 201.7 600.95 201.55 600.4861328125 201.4505859375 599.55 201.6 599.05703125 201.6650390625 598.45 201.8 598.273828125 201.8462890625 598.1 201.9 597.017578125 202.166015625 596 202.3 595.4455078125 202.4337890625 594.9 202.5 594.245703125 202.5595703125 593.5 202.55
L 593.5 202.55
Q 593.5 202.45 593.5 202.35 593.5 202.2 593.5 202.1 593.5 202 593.5 201.9 593.5 201.8 593.5 201.7 593.5 201.55 593.5 201.45 593.5 201.35 593.5 201.25 593.5 201.15 593.5 201.05 593.5 200.9 593.5 200.8 593.5 200.7 593.5 200.6 593.5 200.5 593.5 200.4 593.55 200.25 593.6 200.15 593.6 200.05 593.6 199.95 593.6 199.85 593.6 199.7 593.6 199.6 593.6 199.5 593.6 199.4 593.6 199.3 593.6 199.2 593.6 199.05 593.6 198.95 593.6 198.85 593.6 198.75 593.6 198.65 593.6 198.55 593.6 198.4 593.6 198.3 593.6 198.2 593.6 198.1 593.6 198 593.6 197.9 593.6 197.75 593.6 197.65 593.6 197.55 593.6 197.45 593.6 197.35 593.6 197.25 593.6 197.1 593.6 197 593.6 196.9 593.6 196.8 593.6 196.7 593.6 196.55 593.6 196.45 593.6 196.35 593.6 196.25 593.6 196.15 593.6 196.05 593.6 195.9 593.6 195.8 593.6 195.7 593.6 195.6 593.6 195.5 593.6 195.4 593.6 195.25 593.6 195.15 593.6 195.05 593.6 194.95 593.55 194.85 593.5 194.75 593.446875 194.696875 593.35 194.65
L 594.6 194.65
Q 595.1984375 194.65 595.5 194.6
L 595.55 194.6
Q 596.3416015625 194.56953125 597.15 194.3 596.9853515625 194.517578125 596.95 194.8 596.9 195.2 597.15 195.5 597.4 195.65 597.45 195.8 597.55 196 597.4 196.45 597.4 196.65 597.65 197.15 597.8 197.5 597.8 198.6 597.7 200.25 598 201.7 598.05234375 201.726171875 598.1 201.7 598.326171875 201.7453125 598.45 201.25 598.563671875 200.4162109375 598.6 198.95 598.6 198.4822265625 598.6 197.95 598.6 197.1 598.45 196.75 598.4 196.6 598.2 196.15
L 598.1 195.45
Q 598.0041015625 194.9703125 597.4 194.25 597.7421875 194.1556640625 598.1 194 598.170703125 193.983984375 598.25 193.95
L 599.65 193.3 600.15 192.95
Q 600.805078125 192.4353515625 600.9 191.6
L 602.2 192.5 602.25 201.8
Q 601.9 202.6 601.2 202.8 600.4234375 203.0189453125 599.65 203.2
L 599.3 203.2 599.2 203.3
Q 594.8201171875 204.3099609375 590.35 204.3 586.4453125 204.101953125 582.55 203.1 582.0830078125 202.9861328125 581.6 202.85 580.9 202.65 580.55 201.85
L 580.55 199.9 580.6 193.9
M 586.35 194.4
Q 586.7037109375 194.487890625 586.95 194.55 586.882421875 194.594921875 586.8 194.65 586.7 194.75 586.65 194.85 586.6 195 586.55 195.1 586.55 195.2 586.55 195.3 586.55 195.4 586.55 195.5 586.55 195.65 586.55 195.75 586.55 195.85 586.55 195.95 586.55 196.05 586.55 196.2 586.55 196.3 586.55 196.4 586.55 196.5 586.55 196.6 586.55 196.7 586.55 196.85 586.55 196.95 586.55 197.05 586.55 197.15 586.55 197.25 586.55 197.35 586.55 197.5 586.55 197.6 586.55 197.7 586.55 197.8 586.55 197.9 586.55 198 586.55 198.15 586.55 198.25 586.55 198.35 586.55 198.45 586.55 198.55 586.55 198.65 586.55 198.8 586.55 198.9 586.55 199 586.55 199.1 586.55 199.2 586.55 199.35 586.55 199.45 586.5 199.55 586.5 199.65 586.45 199.75 586.4 199.85 586.4 200 586.35 200.1 586.25 200.2 586.2 200.3 586.2 200.4 586.2 200.5 586.2 200.65 586.2 200.75 586.2 200.85 586.2 200.95 586.2 201.05 586.2 201.15 586.25 201.3 586.25 201.4 586.25 201.5 586.25 201.6 586.25 201.7 586.25 201.8 586.25 201.95 586.25 202.05 586.3 202.15 586.35 202.25
L 586.35 202.25
Q 586.298828125 202.25703125 586.25 202.25 584.5 202.05 583.2 201.55 583.125 201.519921875 583.05 201.5 583.0578125 201.40859375 583.05 201.3 583.225390625 199.293359375 583.15 197.1 583.05 195.95 583.25 195.2 583.4 194.65 583.4 194.35 583.4 194 583.45 193.9 583.55 193.85 583.9 193.7 583.9587890625 193.683203125 584 193.65 584.626171875 193.936328125 585.45 194.15 585.9591796875 194.2955078125 586.35 194.4
M 587.2 195.65
Q 587.2 195.55 587.2 195.45 587.2 195.35 587.2 195.25 587.3 195.15 587.45 195 587.5 194.9 587.55 194.8 587.6625 194.725 587.75 194.65
L 589.55 194.65 592.35 194.65
Q 592.35 194.696875 592.35 194.75 592.45 194.85 592.5 194.95 592.55 195.05 592.65 195.15 592.7 195.25 592.7 195.4 592.75 195.5 592.8 195.6 592.8 195.7 592.8 195.8 592.8 195.9 592.8 196.05 592.8 196.15 592.8 196.25 592.8 196.35 592.8 196.45 592.8 196.55 592.8 196.7 592.8 196.8 592.8 196.9 592.8 197 592.8 197.1 592.8 197.25 592.8 197.35 592.8 197.45 592.8 197.55 592.8 197.65 592.8 197.75 592.8 197.9 592.8 198 592.8 198.1 592.8 198.2 592.8 198.3 592.8 198.4 592.8 198.55 592.8 198.65 592.8 198.75 592.8 198.85 592.8 198.95 592.8 199.05 592.8 199.2 592.8 199.3 592.8 199.4 592.8 199.5 592.8 199.6 592.8 199.7 592.8 199.85 592.8 199.95 592.8 200.05 592.8 200.15 592.8 200.25 592.8 200.4 592.8 200.5 592.85 200.6 592.85 200.7 592.85 200.8 592.85 200.9 592.85 201.05 592.85 201.15 592.85 201.25 592.85 201.35 592.85 201.45 592.85 201.55 592.85 201.7 592.85 201.8 592.85 201.9 592.85 202 592.85 202.1 592.85 202.2 592.85 202.35 592.85 202.45 592.85 202.55
L 592.85 202.6
Q 591.67109375 202.61171875 590.25 202.55 589.87578125 202.526171875 589.45 202.5 587.6841796875 202.41796875 586.65 202.3 586.6724609375 202.255078125 586.7 202.2 586.7 202.1 586.7 201.95 586.75 201.85 586.8 201.75 586.8 201.65 586.8 201.55 586.8 201.45 586.8 201.3 586.8 201.2 586.8 201.1 586.8 201 586.85 200.9 586.85 200.75 586.85 200.65 586.85 200.55 586.85 200.45 586.9 200.35 587 200.25 587.05 200.1 587.05 200 587.1 199.9 587.15 199.8 587.2 199.7 587.2 199.6 587.2 199.45 587.2 199.35 587.2 199.25 587.2 199.15 587.2 199.05 587.2 198.95 587.2 198.8 587.2 198.7 587.2 198.6 587.2 198.5 587.2 198.4 587.2 198.3 587.2 198.15 587.2 198.05 587.2 197.95 587.2 197.85 587.2 197.75 587.2 197.6 587.2 197.5 587.2 197.4 587.2 197.3 587.2 197.2 587.2 197.1 587.2 196.95 587.2 196.85 587.2 196.75 587.2 196.65 587.2 196.55 587.2 196.45 587.2 196.3 587.2 196.2 587.2 196.1 587.2 196 587.2 195.9 587.2 195.8 587.2 195.65
M 607.55 235
L 607.65 234.45 607.7 255.4
Q 607.5048828125 256.088671875 607.2 256.65 607.2 256.601953125 607.2 256.55 607.2 256.45 607.2 256.35 607.25 256.25 607.25 256.15 607.25 256.05 607.25 255.9 607.25 255.8 607.25 255.7 607.25 255.6 607.25 255.5 607.25 255.4 607.25 255.25 607.25 255.15 607.25 255.05 607.25 254.95 607.25 254.85 607.25 254.75 607.25 254.6 607.25 254.5 607.25 254.4 607.25 254.3 607.25 254.2 607.25 254.05 607.25 253.95 607.25 253.85 607.25 253.75 607.25 253.65 607.25 253.55 607.25 253.4 607.25 253.3 607.25 253.2 607.25 253.1 607.25 253 607.25 252.9 607.25 252.75 607.25 252.65 607.25 252.55 607.25 252.45 607.25 252.35 607.25 252.25 607.25 252.1 607.25 252 607.25 251.9 607.25 251.8 607.25 251.7 607.25 251.6 607.25 251.45 607.25 251.35 607.25 251.25 607.25 251.15 607.25 251.05 607.25 250.9 607.25 250.8 607.25 250.7 607.25 250.6 607.25 250.5 607.25 250.4 607.25 250.25 607.25 250.15 607.25 250.05 607.25 249.95 607.25 249.85 607.25 249.75 607.25 249.6 607.25 249.5 607.2 249.4 607.2 249.3 607.2 249.2 607.2 249.1 607.2 248.95 607.25 248.85 607.25 248.75 607.25 248.65 607.2 248.55 607.2 248.45 607.2 248.3 607.2 248.2 607.2 248.1 607.2 248 607.2 247.9 607.2 247.75 607.2 247.65 607.2 247.55 607.2 247.45 607.2 247.35 607.2 247.25 607.2 247.1 607.2 247 607.2 246.9 607.2 246.8 607.2 246.7 607.2 246.6 607.2 246.45 607.2 246.35 607.2 246.25 607.2 246.15 607.2 246.05 607.2 245.95 607.2 245.8 607.2 245.7 607.2 245.6 607.2 245.5 607.2 245.4 607.2 245.3 607.2 245.15 607.2 245.05 607.2 244.95 607.2 244.85 607.2 244.75 607.2 244.6 607.2 244.5 607.2 244.4 607.2 244.3 607.2 244.2 607.2 244.1 607.2 243.95 607.2 243.85 607.2 243.75 607.2 243.65 607.2 243.55 607.2 243.45 607.2 243.3 607.2 243.2 607.2 243.1 607.2 243 607.2 242.9 607.2 242.8 607.2 242.65 607.2 242.55 607.2 242.45 607.2 242.35 607.2 242.25 607.2 242.15 607.2 242 607.2 241.9 607.2 241.8 607.2 241.7 607.2 241.6 607.2 241.45 607.2 241.35 607.2 241.25 607.2 241.15 607.2 241.05 607.2 240.95 607.2 240.8 607.2 240.7 607.2 240.6 607.2 240.5 607.2 240.4 607.2 240.3 607.2 240.15 607.2 240.05 607.2 239.95 607.2 239.85 607.2 239.75 607.2 239.65 607.2 239.5 607.2 239.4 607.2 239.3 607.2 239.2 607.2 239.1 607.2 239 607.2 238.85 607.2 238.75 607.2 238.65 607.2 238.55 607.15 238.45 607.15 238.3 607.15 238.2 607.15 238.1 607.05 238 607 237.9 606.9 237.9 606.85 237.9 606.75 237.9 606.7 237.9 606.65 237.95 606.6 237.95 606.6 238.05 606.6 238.1 606.6 238.2 606.55 238.3 606.55 238.45 606.55 238.55 606.55 238.65 606.55 238.75 606.55 238.85 606.55 239 606.55 239.1 606.55 239.2 606.55 239.3 606.55 239.4 606.55 239.5 606.55 239.65 606.55 239.75 606.55 239.85 606.55 239.95 606.55 240.05 606.55 240.15 606.55 240.3 606.55 240.4 606.55 240.5 606.55 240.6 606.55 240.7 606.55 240.8 606.55 240.95 606.55 241.05 606.55 241.15 606.55 241.25 606.55 241.35 606.55 241.45 606.55 241.6 606.55 241.7 606.55 241.8 606.55 241.9 606.55 242 606.55 242.15 606.55 242.25 606.55 242.35 606.55 242.45 606.55 242.55 606.55 242.65 606.55 242.8 606.55 242.9 606.55 243 606.55 243.1 606.55 243.2 606.55 243.3 606.55 243.45 606.55 243.55 606.55 243.65 606.55 243.75 606.55 243.85 606.55 243.95 606.55 244.1 606.55 244.2 606.55 244.3 606.55 244.4 606.55 244.5 606.55 244.6 606.55 244.75 606.55 244.85 606.55 244.95 606.55 245.05 606.55 245.15 606.55 245.3 606.55 245.4 606.55 245.5 606.55 245.6 606.55 245.7 606.55 245.8 606.55 245.95 606.55 246.05 606.55 246.15 606.55 246.25 606.55 246.35 606.55 246.45 606.55 246.6 606.55 246.7 606.55 246.8 606.55 246.8470703125 606.55 246.9 606.55 246.95 606.55 247 606.55 247.1 606.55 247.25 606.55 247.35 606.55 247.45 606.55 247.55 606.55 247.65 606.55 247.75 606.55 247.9 606.55 248 606.55 248.1 606.55 248.2 606.55 248.3 606.55 248.45 606.55 248.55 606.5 248.65 606.5 248.75 606.5 248.85 606.5 248.95 606.5 249.1 606.55 249.2 606.5 249.3 606.5 249.4 606.5 249.5 606.5 249.6 606.5 249.75 606.5 249.85 606.5 249.95 606.5 250.05 606.5 250.15 606.5 250.25 606.5 250.4 606.5 250.5 606.5 250.6 606.5 250.7 606.5 250.8 606.5 250.9 606.5 251.05 606.5 251.15 606.5 251.25 606.5 251.35 606.5 251.45 606.5 251.6 606.5 251.7 606.5 251.8 606.5 251.9 606.5 252 606.5 252.1 606.5 252.25 606.5 252.35 606.5 252.45 606.5 252.55 606.5 252.65 606.5 252.75 606.5 252.9 606.5 253 606.5 253.1 606.5 253.2 606.5 253.3 606.5 253.4 606.5 253.55 606.5 253.65 606.5 253.75 606.5 253.85 606.5 253.95 606.5 254.05 606.5 254.2 606.5 254.3 606.5 254.4 606.5 254.5 606.5 254.6 606.5 254.75 606.5 254.85 606.5 254.95 606.5 255.05 606.5 255.15 606.5 255.25 606.5 255.4 606.5 255.5 606.5 255.6 606.5 255.7 606.5 255.8 606.5 255.9 606.5 256.05 606.5 256.15 606.5 256.25 606.5 256.35 606.5 256.45 606.55 256.55 606.55 256.7 606.55 256.8 606.55 256.9 606.55 257 606.6 257.1 606.7 257.2 606.7705078125 257.2 606.85 257.2 605.7998046875 258.592578125 603.85 258.95 603.4 259.15 603.05 259.4 602.6 259.7 602.25 260.1
L 605 259.95
Q 603.95 262.15 601.4 262.7 600.05 262.95 598.7 263.3 596.8 263.75 595.3 263.65 593.8 263.45 592.5 263.8 590.2 264.45 587.95 263.75 586.8 263.45 586.55 263.8 583.6603515625 263.734375 580.9 262.85 579.490234375 262.3865234375 578.1 261.7 577.1 261.15 576.75 259.95
L 579.4 260.2
Q 579.22890625 259.5841796875 578.6 259.2 578.2947265625 259.060546875 577.9 258.95 576.19296875 258.53125 575.15 257.35 574.5736328125 256.7541015625 574.2 255.9 574.1 255.65 574.05 255.4
L 574.05 232.45 574.1 218.75 583.05 207.5 582.65 206.85 582.8 204.3
Q 583.02734375 204.3943359375 583.25 204.45 583.880859375 204.63125 584.5 204.8 586.3791015625 205.2486328125 588.25 205.5 588.651953125 205.7 589.25 205.7 589.9466796875 205.719921875 590.65 205.7 592.0857421875 205.791796875 593.55 205.75 594.3044921875 205.75 594.7 205.4 596.8576171875 205.128515625 598.95 204.55
L 599.1 206.85 598.7 207.5 598.8 207.65 607.65 218.65 607.65 232.65
Q 607.266796875 232.5193359375 607.05 233.3 606.821484375 233.8224609375 606.2 234.45
L 606.25 233.95
Q 606.25 232 605.7 231 604.9 229.55 603.1 228.95 601.7 228.5 599.7 228.6 597.0552734375 228.7416015625 591.6 230.1 591.2798828125 230.2140625 590.95 230.3 586.616015625 231.4505859375 583.75 231.75 582.9220703125 231.83828125 582.2 231.85 579.55 231.85 578.55 232.3 577.5724609375 232.8294921875 576.7 234 576.4486328125 233.92109375 576.2 233.7 575.75 233.25 575.8 232.75
L 575.8 232.25
Q 575.55 231.85 575.35 232.15 575 232.95 574.8 234.15 574.3 236.2 574.9 237.25 574.9986328125 237.3923828125 575.15 237.55 575.6896484375 238.086328125 576.9 238.75 577.4595703125 239.0255859375 577.95 239.25 578.1359375 239.3478515625 578.3 239.4 580.506640625 240.4419921875 581.7 240.75 582.396875 240.955859375 583.25 241.1 583.70078125 241.203125 584.15 241.25 585.7689453125 241.4947265625 587.85 241.6 589.4708984375 241.684765625 590.95 241.7 595.566015625 241.7685546875 598.75 241.2 602.05 240.6 604.1 239.3 605.4623046875 238.4578125 606.3 237.4 607.1966796875 236.312109375 607.55 235
M 578.35 234.7
Q 578.6 234.8 579.5 234.3 580.1 233.95 581.5 234.05 582.5474609375 234.08671875 583.55 234.05 585.3607421875 234.058203125 587.1 233.9 588.8 233.65 589.15 233.55 589.85 233.35 591.1 232.75 591.3072265625 232.653515625 591.5 232.55 594.1572265625 231.3572265625 596.2 230.8 597.8 230.4 598.7 230.35 599.4568359375 230.3197265625 600.6 230.5 601.403125 230.66328125 602.35 230.9 602.8 231 602.95 230.8 600.9 230 599.8 229.8 599.2958984375 229.70546875 598.7 229.7 599.35 229.6310546875 599.9 229.6 601.55 229.5 602.55 229.8 604 230.25 604.7 231.2 605.3 232.1 605.5 234.05
L 605.6 235.1
Q 605.5541015625 235.150390625 605.5 235.2 604.15 236.4 603.8 237.05 604.835546875 236.6357421875 605.65 235.85
L 605.75 236.5
Q 604.469140625 238.180078125 602 239.25 599.9 240.1 596.55 240.45 593.676171875 240.7486328125 591 240.75 590.0873046875 240.7380859375 589.2 240.7
L 586.25 240.5
Q 586.1533203125 240.49453125 586.05 240.5 584.5423828125 240.3978515625 583.3 240.2 583.182421875 240.1736328125 583.05 240.15 581.9 239.9 579.05 238.8 578.229296875 238.4283203125 577.55 238.1 576.13671875 237.383203125 575.55 236.9 575.38359375 236.539453125 575.3 236.15 575.1302734375 235.1978515625 575.6 234.15 576.0384765625 234.4240234375 576.45 234.35 576.41328125 234.4486328125 576.35 234.55 576.1 234.9 576.35 235 576.7 234.8 577.2 234.2 577.75 233.65 578.05 233.4 578.8 232.9 579.95 232.75 580.4 232.7 582.05 232.7 582.83671875 232.71640625 583.7 232.65 585.4662109375 232.5369140625 587.55 232.1 588.37734375 231.9345703125 591.6 231.15 592.2728515625 230.9900390625 593.05 230.8 594.29609375 230.4884765625 595.4 230.25 593.5177734375 230.7740234375 591.55 231.6 591.141015625 231.7958984375 590.7 232
L 589.05 232.75
Q 588.25 233 587.1 233.1 585.423828125 233.31328125 583.6 233.4 582.491015625 233.45 581.3 233.45 579.95 233.45 579.55 233.6 578.7912109375 233.799609375 578.45 234.35 578.400390625 234.52890625 578.35 234.7
M 606.4 235.45
Q 606.39453125 235.6314453125 606.25 235.8 606.210546875 235.867578125 606.15 235.9
L 606.2 235.35
Q 606.299609375 235.2232421875 606.4 235.1 606.452734375 235.223046875 606.45 235.35 606.4486328125 235.407421875 606.4 235.45
M 595.35 260.65
Q 593.95 260.95 591.8 260.95 587.1 261.05 584.75 260.85 585 261.25 585.8 261.35 592.65 262.25 599.3 260.35 598.55 260 597.35 260.2 596 260.55 595.35 260.65
M 594.5 261.85
L 593.4 262.15 593.05 262.3
Q 592.95 262.45 593 262.65
L 598.25 261.45
Q 598.35 261.45 598.45 261.35 598.55 261.25 598.5 261.2 597 261.2 594.5 261.85
M 574.75 238.05
Q 574.75 238.1 574.75 238.2 574.75 238.3 574.75 238.4 574.75 238.5 574.75 238.6 574.7 238.7 574.7 238.85 574.7 238.95 574.7 239.05 574.7 239.15 574.7 239.25 574.7 239.35 574.7 239.5 574.7 239.6 574.7 239.7 574.7 239.8 574.7 239.9 574.7 240.05 574.7 240.15 574.7 240.25 574.7 240.35 574.7 240.45 574.7 240.55 574.65 240.7 574.6 240.8 574.6 240.9 574.6 241 574.6 241.1 574.6 241.2 574.6 241.35 574.6 241.45 574.6 241.55 574.6 241.65 574.6 241.75 574.6 241.85 574.6 242 574.6 242.1 574.6 242.2 574.6 242.3 574.6 242.4 574.6 242.5 574.6 242.65 574.6 242.75 574.6 242.85 574.6 242.95 574.6 243.05 574.6 243.2 574.6 243.3 574.6 243.4 574.6 243.5 574.6 243.6 574.6 243.7 574.6 243.85 574.6 243.95 574.6 244.05 574.6 244.15 574.6 244.25 574.6 244.35 574.6 244.5 574.6 244.6 574.6 244.7 574.6 244.8 574.6 244.9 574.6 245 574.6 245.15 574.6 245.25 574.6 245.35 574.6 245.45 574.6 245.55 574.6 245.65 574.6 245.8 574.6 245.9 574.6 246 574.6 246.1 574.6 246.2 574.6 246.35 574.6 246.45 574.6 246.55 574.6 246.65 574.6 246.75 574.6 246.85 574.6 247 574.6 247.1 574.6 247.2 574.6 247.3 574.6 247.4 574.6 247.5 574.6 247.65 574.6 247.75 574.6 247.85 574.6 247.95 574.6 248.0220703125 574.6 248.1
L 574.6 248.15
Q 574.6 248.3 574.6 248.4 574.6 248.5 574.6 248.6 574.6 248.7 574.6 248.8 574.6 248.95 574.6 249.05 574.6 249.15 574.6 249.25 574.6 249.35 574.6 249.5 574.6 249.6 574.6 249.7 574.6 249.8 574.6 249.9 574.6 250 574.6 250.15 574.6 250.25 574.6 250.35 574.6 250.45 574.6 250.55 574.6 250.65 574.6 250.8 574.6 250.9 574.6 251 574.6 251.1 574.6 251.2 574.6 251.3 574.6 251.45 574.6 251.55 574.6 251.65 574.6 251.75 574.6 251.85 574.6 251.95 574.6 252.1 574.6 252.2 574.6 252.3 574.6 252.4 574.6 252.5 574.6 252.65 574.6 252.75 574.6 252.85 574.6 252.95 574.6 253.05 574.6 253.15 574.6 253.3 574.6 253.4 574.6 253.5 574.6 253.6 574.6 253.7 574.6 253.8 574.6 253.95 574.6 254.05 574.6 254.15 574.6 254.25 574.6 254.35 574.6 254.45 574.6 254.6 574.6 254.7 574.6 254.8 574.6 254.9 574.6 255 574.6 255.1 574.6 255.25 574.6 255.35 574.6 255.45 574.6 255.55 574.6 255.65 574.6 255.8 574.6 255.9 574.6 256 574.6 256.1 574.6 256.2 574.65 256.3 574.7 256.45 574.7 256.55 574.75 256.65 574.8 256.75 574.85 256.85 574.9 256.85 574.95 256.85 575.05 256.75 575.1 256.65 575.125 256.6 575.15 256.55 575.175 256.5 575.2 256.45 575.25 256.3 575.25 256.2 575.25 256.1 575.25 256 575.25 255.9 575.25 255.8 575.25 255.65 575.25 255.55 575.25 255.45 575.25 255.35 575.25 255.25 575.25 255.1 575.25 255 575.25 254.9 575.25 254.8 575.25 254.7 575.25 254.6 575.25 254.45 575.25 254.35 575.25 254.25 575.25 254.15 575.25 254.05 575.25 253.95 575.25 253.8 575.25 253.7 575.25 253.6 575.25 253.5 575.25 253.4 575.25 253.3 575.25 253.15 575.25 253.05 575.25 252.95 575.25 252.85 575.25 252.75 575.25 252.65 575.25 252.5 575.25 252.4 575.25 252.3 575.25 252.2 575.25 252.1 575.25 251.95 575.25 251.85 575.25 251.75 575.25 251.65 575.25 251.55 575.25 251.45 575.25 251.3 575.25 251.2 575.25 251.1 575.25 251 575.25 250.9 575.25 250.8 575.25 250.7126953125 575.25 250.65 575.25 250.591796875 575.25 250.55 575.25 250.45 575.25 250.35 575.25 250.25 575.25 250.15 575.25 250 575.25 249.9 575.25 249.8 575.25 249.7 575.25 249.6 575.25 249.5 575.25 249.35 575.25 249.25 575.25 249.15 575.25 249.05 575.25 248.95 575.25 248.8 575.25 248.7 575.25 248.6 575.25 248.5 575.25 248.4 575.25 248.3 575.25 248.15 575.25 248.05 575.25 247.95 575.25 247.85 575.25 247.75 575.25 247.65 575.25 247.5 575.25 247.4 575.25 247.3 575.25 247.2 575.25 247.1 575.25 247 575.25 246.85 575.25 246.75 575.25 246.65 575.25 246.55 575.25 246.45 575.25 246.35 575.25 246.2 575.25 246.1 575.25 246 575.25 245.9 575.25 245.8 575.25 245.65 575.25 245.55 575.25 245.45 575.25 245.35 575.25 245.25 575.25 245.15 575.25 245 575.25 244.9 575.25 244.8 575.25 244.7 575.25 244.6 575.25 244.5 575.25 244.35 575.25 244.25 575.25 244.15 575.25 244.05 575.25 243.95 575.25 243.85 575.25 243.7 575.25 243.6 575.25 243.5 575.25 243.4 575.25 243.3 575.25 243.2 575.25 243.05 575.25 242.95 575.25 242.85 575.25 242.75 575.25 242.65 575.25 242.5 575.25 242.4 575.25 242.3 575.25 242.2 575.25 242.1 575.25 242 575.25 241.85 575.25 241.75 575.25 241.65 575.25 241.55 575.25 241.45 575.25 241.35 575.25 241.2 575.25 241.1 575.25 241 575.25 240.9 575.2 240.8 575.2 240.7 575.2 240.55 575.2 240.45 575.2 240.35 575.2 240.25 575.2 240.15 575.2 240.05 575.2 239.9 575.2 239.8 575.2 239.7 575.2 239.6 575.2 239.5 575.2 239.35 575.2 239.25 575.2 239.15 575.2 239.05 575.2 238.95 575.2 238.85 575.175 238.775 575.15 238.7 575.125 238.65 575.1 238.6 575.1 238.5 575.1 238.4 575.1 238.3 575.1 238.2 575.1 238.05 575.05 237.95 574.95 237.95 574.9 237.95 574.85 237.95 574.75 237.95 574.75 238 574.75 238.05
M 607.35 220.8
Q 607.2 220.45 606.65 220.8 604.978125 222.1048828125 603.95 222.8 602.0130859375 223.691796875 600.85 224.15 598.1 225.15 595.75 225.5 594.3 225.7 591.3 225.7 587.5322265625 225.6171875 584.75 225.05 584.1830078125 224.9375 583.65 224.8 579.65 223.85 576.25 221.2 576.05 221.05 575.8 221.1 575.6482421875 221.1251953125 575.55 221.2 575.4494140625 221.251171875 575.4 221.35
L 575.45 221.4 576.25 222.05
Q 579.6818359375 224.9017578125 584.1 225.9 584.246875 225.966796875 584.4 226 585.05 226.15 587.75 226.5 589.5869140625 226.6716796875 591.3 226.7 594.5763671875 226.725390625 597.4 226.2 597.8408203125 226.10859375 598.25 226 597.6138671875 226.32109375 596.9 226.65
L 594.55 227.8
Q 597.6716796875 226.9462890625 600.8 225.25 603.8884765625 224.1662109375 606.2 222.35 606.35 222.2 606.35 222.15 606.4 221.95 606.15 221.95 606.0123046875 221.9224609375 605.9 221.95 606.6275390625 221.392578125 607.35 220.8
M 588.05 208.85
Q 588.857421875 209.0333984375 589.5 209.15 590.6537109375 209.38671875 591.35 209.45 592.231640625 209.541796875 593.1 209.5
L 593.55 209.5 593.7 209.55 593.95 209.5 593.95 209.4
Q 594.0921875 209.4068359375 594.2 209.35 595.149609375 209.2435546875 596.05 208.95 596.0671875 208.8986328125 596.05 208.85 596.0900390625 208.6328125 595.8 208.55 595.75 208.5 595.3 208.5 591.848828125 208.7203125 589.8 208.5 589.0947265625 208.46953125 588.55 208.35 587.6 208.1 587.15 208.05 586.35 208 585.8 208.35
L 588.05 208.85
M 600.75 193.2
Q 600.7 193.25 600.7 193.3 600.6 193.3 600.55 193.3 600.45 193.35 600.4 193.4 600.3 193.55 600.25 193.65 600.15 193.75 600.1 193.85 600.15 193.95 600.15 194.1 600.3 194.2 600.4 194.3 600.45 194.4 600.45 194.5 600.45 194.6 600.45 194.75 600.45 194.85 600.45 194.95 600.45 195.05 600.45 195.15 600.45 195.25 600.45 195.4 600.45 195.5 600.45 195.6 600.45 195.7 600.45 195.8 600.45 195.9 600.45 196.05 600.45 196.15 600.45 196.25 600.45 196.35 600.45 196.45 600.45 196.55 600.45 196.7 600.45 196.8 600.45 196.9 600.45 197 600.45 197.1 600.45 197.25 600.45 197.35 600.45 197.45 600.45 197.55 600.45 197.65 600.45 197.75 600.45 197.9 600.45 198 600.45 198.1 600.45 198.2 600.45 198.3 600.45 198.4 600.45 198.55 600.45 198.65 600.45 198.75 600.45 198.85 600.45 198.95 600.45 199.05 600.45 199.2 600.45 199.3 600.45 199.4 600.45 199.5 600.45 199.6 600.45 199.7 600.45 199.85 600.45 199.95 600.45 200.05 600.45 200.15 600.5 200.25 600.55 200.4 600.65 200.45 600.75 200.5 600.85 200.45 600.95 200.4 601 200.25 601.05 200.15 601.1 200.05 601.1 199.95 601.1 199.85 601.1 199.7 601.1 199.6 601.1 199.5 601.1 199.4 601.1 199.3 601.1 199.2 601.1 199.05 601.1 198.95 601.1 198.85 601.1 198.75 601.1 198.65 601.1 198.55 601.1 198.4 601.1 198.3 601.1 198.2 601.1 198.1 601.1 198 601.1 197.9 601.1 197.75 601.1 197.65 601.1 197.55 601.1 197.45 601.1 197.35 601.1 197.25 601.1 197.1 601.1 197 601.1 196.9 601.1 196.8 601.1 196.7 601.1 196.55 601.1 196.45 601.1 196.35 601.1 196.25 601.1 196.15 601.1 196.05 601.1 195.9 601.1 195.8 601.1 195.7 601.1 195.6 601.1 195.5 601.1 195.4 601.1 195.25 601.1 195.15 601.1 195.05 601.1 194.95 601.1 194.85 601.1 194.75 601.1 194.6 601.1 194.5 601.1 194.4 601.1 194.3 601.1 194.2 601.1 194.1 601.1 193.95 601.1 193.85 601.1 193.75 601.05 193.65 601.05 193.55 601.05 193.4 600.9 193.3 600.75 193.2 Z"/>

<path fill="#B78B58" stroke="none" d="
M 596.35 233.8
L 596.35 233.2
Q 594.35 234.2 592.65 234.85 592.3369140625 234.980078125 592 235.1 591.6701171875 235.18046875 591.3 235.25 591.274609375 236.0486328125 591.2 236.8 592.6146484375 236.5896484375 593.8 236.1 596.05 235.15 596.35 233.8
M 591.6 231.3
Q 591.5896484375 231.4541015625 591.55 231.6 593.5177734375 230.7740234375 595.4 230.25 594.29609375 230.4884765625 593.05 230.8 592.2728515625 230.9900390625 591.6 231.15
L 591.6 231.3
M 586.65 240.35
Q 586.3625 240.40234375 586.05 240.5 586.1533203125 240.49453125 586.25 240.5
L 589.2 240.7
Q 590.0873046875 240.7380859375 591 240.75 593.676171875 240.7486328125 596.55 240.45 599.9 240.1 602 239.25 604.469140625 238.180078125 605.75 236.5
L 605.65 235.85
Q 604.835546875 236.6357421875 603.8 237.05 604.15 236.4 605.5 235.2 605.5541015625 235.150390625 605.6 235.1
L 605.5 234.05
Q 605.3 232.1 604.7 231.2 604 230.25 602.55 229.8 601.55 229.5 599.9 229.6 599.35 229.6310546875 598.7 229.7 599.2958984375 229.70546875 599.8 229.8 600.9 230 602.95 230.8 602.8 231 602.35 230.9 601.403125 230.66328125 600.6 230.5 601.5599609375 230.79453125 602.45 231.25 604.45 232.25 604.45 233.15 604.45 233.75 602.8 234.55 601.1 235.3 599.45 235.55 598.9 235.6 598.05 235.95 597.05 236.35 596.35 236.6 595.8 236.75 595.55 237.35 595.3 237.85 595.4 238.05 598.75 236.65 600.45 236.65 600.95 236.65 601.45 236.95 601.9 237.2 602.4 237.2 602.45 237.2 603.4 236.95
L 603.5 236.95
Q 602.7 237.8 599.6 238.8 596.15 239.85 593.55 239.75 592.675390625 239.7119140625 591.05 239.8 590.5365234375 239.8521484375 589.95 239.9 587.8 240.15 586.65 240.35
M 583.35 236.8
Q 583.38359375 236.4494140625 583.45 235.35 582.41015625 235.5275390625 581.4 236.05 579.9 236.85 579.9 237.9
L 579.9 238.35
Q 579.95 238.35 580.65 237.95 581.4 237.45 581.95 237.25 582.63515625 236.938671875 583.35 236.8
M 582.05 232.7
Q 580.4 232.7 579.95 232.75 578.8 232.9 578.05 233.4 577.75 233.65 577.2 234.2 576.7 234.8 576.35 235 576.1 234.9 576.35 234.55 576.41328125 234.4486328125 576.45 234.35 576.0384765625 234.4240234375 575.6 234.15 575.1302734375 235.1978515625 575.3 236.15 575.38359375 236.539453125 575.55 236.9 576.13671875 237.383203125 577.55 238.1 577.4 237.159375 577.4 236.35 577.4 235.0099609375 578.45 234.35 578.7912109375 233.799609375 579.55 233.6 579.95 233.45 581.3 233.45 582.491015625 233.45 583.6 233.4 583.66171875 233.045703125 583.7 232.65 582.83671875 232.71640625 582.05 232.7 Z"/>

<path fill="#9D7040" stroke="none" d="
M 600.6 230.5
Q 599.4568359375 230.3197265625 598.7 230.35 597.8 230.4 596.2 230.8 594.1572265625 231.3572265625 591.5 232.55 591.4103515625 233.9326171875 591.3 235.25 591.6701171875 235.18046875 592 235.1 592.3369140625 234.980078125 592.65 234.85 594.35 234.2 596.35 233.2
L 596.35 233.8
Q 596.05 235.15 593.8 236.1 592.6146484375 236.5896484375 591.2 236.8 591.131640625 238.3720703125 591.05 239.8 592.675390625 239.7119140625 593.55 239.75 596.15 239.85 599.6 238.8 602.7 237.8 603.5 236.95
L 603.4 236.95
Q 602.45 237.2 602.4 237.2 601.9 237.2 601.45 236.95 600.95 236.65 600.45 236.65 598.75 236.65 595.4 238.05 595.3 237.85 595.55 237.35 595.8 236.75 596.35 236.6 597.05 236.35 598.05 235.95 598.9 235.6 599.45 235.55 601.1 235.3 602.8 234.55 604.45 233.75 604.45 233.15 604.45 232.25 602.45 231.25 601.5599609375 230.79453125 600.6 230.5
M 584.4 235.3
Q 583.9298828125 235.3 583.45 235.35 583.38359375 236.4494140625 583.35 236.8 583.7974609375 236.75 584.25 236.75 584.75 236.75 585.85 236.9 586.95 237.05 588.45 237.05 589.928125 237.05 591.2 236.8 591.274609375 236.0486328125 591.3 235.25 589.748046875 235.55 588.4 235.55 587.6 235.55 586.25 235.45 584.85 235.3 584.4 235.3
M 583.7 232.65
Q 583.66171875 233.045703125 583.6 233.4 585.423828125 233.31328125 587.1 233.1 588.25 233 589.05 232.75
L 590.7 232
Q 591.141015625 231.7958984375 591.55 231.6 591.5896484375 231.4541015625 591.6 231.3
L 591.6 231.15
Q 588.37734375 231.9345703125 587.55 232.1 585.4662109375 232.5369140625 583.7 232.65
M 579.5 234.3
Q 578.6 234.8 578.35 234.7 578.400390625 234.52890625 578.45 234.35 577.4 235.0099609375 577.4 236.35 577.4 237.159375 577.55 238.1 578.229296875 238.4283203125 579.05 238.8 581.9 239.9 583.05 240.15 583.182421875 240.1736328125 583.3 240.2 583.419921875 238.1201171875 583.35 237 583.35 236.9580078125 583.35 236.8 582.63515625 236.938671875 581.95 237.25 581.4 237.45 580.65 237.95 579.95 238.35 579.9 238.35
L 579.9 237.9
Q 579.9 236.85 581.4 236.05 582.41015625 235.5275390625 583.45 235.35 583.5134765625 234.8154296875 583.55 234.05 582.5474609375 234.08671875 581.5 234.05 580.1 233.95 579.5 234.3
M 584.9 246.35
L 585.1 246.65
Q 588.9 249.3 593.55 249.45 601.75 248.75 602.9 242.15
L 602.4 241.9
Q 596.72421875 243.6923828125 590.8 244.25 590.7486328125 245.3458984375 590.7 246.35
L 584.9 246.35
M 580.5 245.65
Q 580.4 245.8 580.4 246.7
L 580.4 247.75
Q 580.45 247.9 580.8 248.4
L 582.35 250.15
Q 583.3 251.1 583.65 251.25 584.3 251.55 585.85 251.45 586.5 251.3 586.55 251.3 586.95 251.05 586.9 250.7 587.3 250.55 587.6 250.25 587.2 249.55 586.15 248.9 584.6 247.9 584.45 247.8 584.15 247.55 583.25 246.6 582.55 245.85 582 245.55 581.6 245.3 581.15 245.3 580.7 245.3 580.5 245.65 Z"/>

<path fill="#8E5336" stroke="none" d="
M 584.25 236.75
Q 583.7974609375 236.75 583.35 236.8 583.35 236.9580078125 583.35 237 583.419921875 238.1201171875 583.3 240.2 584.5423828125 240.3978515625 586.05 240.5 586.3625 240.40234375 586.65 240.35 587.8 240.15 589.95 239.9 590.5365234375 239.8521484375 591.05 239.8 591.131640625 238.3720703125 591.2 236.8 589.928125 237.05 588.45 237.05 586.95 237.05 585.85 236.9 584.75 236.75 584.25 236.75
M 587.1 233.9
Q 585.3607421875 234.058203125 583.55 234.05 583.5134765625 234.8154296875 583.45 235.35 583.9298828125 235.3 584.4 235.3 584.85 235.3 586.25 235.45 587.6 235.55 588.4 235.55 589.748046875 235.55 591.3 235.25 591.4103515625 233.9326171875 591.5 232.55 591.3072265625 232.653515625 591.1 232.75 589.85 233.35 589.15 233.55 588.8 233.65 587.1 233.9
M 575.15 238.7
Q 575.175 238.775 575.2 238.85 575.2 238.95 575.2 239.05 575.2 239.15 575.2 239.25 575.2 239.35 575.2 239.5 575.2 239.6 575.2 239.7 575.2 239.8 575.2 239.9 575.2 240.05 575.2 240.15 575.2 240.25 575.2 240.35 575.2 240.45 575.2 240.55 575.2 240.7 575.2 240.8 575.25 240.9 575.25 241 575.25 241.1 575.25 241.2 575.25 241.35 575.25 241.45 575.25 241.55 575.25 241.65 575.25 241.75 575.25 241.85 575.25 242 575.25 242.1 575.25 242.2 575.25 242.3 575.25 242.4 575.25 242.5 575.25 242.65 575.25 242.75 575.25 242.85 575.25 242.95 575.25 243.05 575.25 243.2 575.25 243.3 575.25 243.4 575.25 243.5 575.25 243.6 575.25 243.7 575.25 243.85 575.25 243.95 575.25 244.05 575.25 244.15 575.25 244.25 575.25 244.35 575.25 244.5 575.25 244.6 575.25 244.7 575.25 244.8 575.25 244.9 575.25 245 575.25 245.15 575.25 245.25 575.25 245.35 575.25 245.45 575.25 245.55 575.25 245.65 575.25 245.8 575.25 245.9 575.25 246 575.25 246.1 575.25 246.2 575.25 246.35 575.25 246.45 575.25 246.55 575.25 246.65 575.25 246.75 575.25 246.85 575.25 247 575.25 247.1 575.25 247.2 575.25 247.3 575.25 247.4 575.25 247.5 575.25 247.65 575.25 247.75 575.25 247.85 575.25 247.95 575.25 248.05 575.25 248.15 575.25 248.3 575.25 248.4 575.25 248.5 575.25 248.6 575.25 248.7 575.25 248.8 575.25 248.95 575.25 249.05 575.25 249.15 575.25 249.25 575.25 249.35 575.25 249.5 575.25 249.6 575.25 249.7 575.25 249.8 575.25 249.9 575.25 250 575.25 250.15 575.25 250.25 575.25 250.35 575.25 250.45 575.25 250.55 575.25 250.591796875 575.25 250.65 575.25 250.7126953125 575.25 250.8 575.25 250.9 575.25 251 575.25 251.1 575.25 251.2 575.25 251.3 575.25 251.45 575.25 251.55 575.25 251.65 575.25 251.75 575.25 251.85 575.25 251.95 575.25 252.1 575.25 252.2 575.25 252.3 575.25 252.4 575.25 252.5 575.25 252.65 575.25 252.75 575.25 252.85 575.25 252.95 575.25 253.05 575.25 253.15 575.25 253.3 575.25 253.4 575.25 253.5 575.25 253.6 575.25 253.7 575.25 253.8 575.25 253.95 575.25 254.05 575.25 254.15 575.25 254.25 575.25 254.35 575.25 254.45 575.25 254.6 575.25 254.7 575.25 254.8 575.25 254.9 575.25 255 575.25 255.1 575.25 255.25 575.25 255.35 575.25 255.45 575.25 255.55 575.25 255.65 575.25 255.8 575.25 255.9 575.25 256 575.25 256.1 575.25 256.2 575.25 256.3 575.2 256.45 575.175 256.5 575.15 256.55
L 575.15 257.35
Q 576.19296875 258.53125 577.9 258.95 578.2947265625 259.060546875 578.6 259.2 579.22890625 259.5841796875 579.4 260.2
L 576.75 259.95
Q 577.1 261.15 578.1 261.7 579.490234375 262.3865234375 580.9 262.85 583.6603515625 263.734375 586.55 263.8 586.8 263.45 587.95 263.75 590.2 264.45 592.5 263.8 593.8 263.45 595.3 263.65 596.8 263.75 598.7 263.3 600.05 262.95 601.4 262.7 603.95 262.15 605 259.95
L 602.25 260.1
Q 602.6 259.7 603.05 259.4 603.4 259.15 603.85 258.95 605.7998046875 258.592578125 606.85 257.2 606.7705078125 257.2 606.7 257.2 606.6 257.1 606.55 257 606.55 256.9 606.55 256.8 606.55 256.7 606.55 256.55 606.5 256.45 606.5 256.35 606.5 256.25 606.5 256.15 606.5 256.05 606.5 255.9 606.5 255.8 606.5 255.7 606.5 255.6 606.5 255.5 606.5 255.4 606.5 255.25 606.5 255.15 606.5 255.05 606.5 254.95 606.5 254.85 606.5 254.75 606.5 254.6 606.5 254.5 606.5 254.4 606.5 254.3 606.5 254.2 606.5 254.05 606.5 253.95 606.5 253.85 606.5 253.75 606.5 253.65 606.5 253.55 606.5 253.4 606.5 253.3 606.5 253.2 606.5 253.1 606.5 253 606.5 252.9 606.5 252.75 606.5 252.65 606.5 252.55 606.5 252.45 606.5 252.35 606.5 252.25 606.5 252.1 606.5 252 606.5 251.9 606.5 251.8 606.5 251.7 606.5 251.6 606.5 251.45 606.5 251.35 606.5 251.25 606.5 251.15 606.5 251.05 606.5 250.9 606.5 250.8 606.5 250.7 606.5 250.6 606.5 250.5 606.5 250.4 606.5 250.25 606.5 250.15 606.5 250.05 606.5 249.95 606.5 249.85 606.5 249.75 606.5 249.6 606.5 249.5 606.5 249.4 606.5 249.3 606.55 249.2 606.5 249.1 606.5 248.95 606.5 248.85 606.5 248.75 606.5 248.65 606.55 248.55 606.55 248.45 606.55 248.3 606.55 248.2 606.55 248.1 606.55 248 606.55 247.9 606.55 247.75 606.55 247.65 606.55 247.55 606.55 247.45 606.55 247.35 606.55 247.25 606.55 247.1 606.55 247 606.55 246.95 606.55 246.9 606.55 246.8470703125 606.55 246.8 606.55 246.7 606.55 246.6 606.55 246.45 606.55 246.35 606.55 246.25 606.55 246.15 606.55 246.05 606.55 245.95 606.55 245.8 606.55 245.7 606.55 245.6 606.55 245.5 606.4927734375 243.8099609375 606.35 240.1 606.2865234375 238.4923828125 606.3 237.4 605.4623046875 238.4578125 604.1 239.3 602.05 240.6 598.75 241.2 595.566015625 241.7685546875 590.95 241.7 590.872265625 243.0326171875 590.8 244.25 596.72421875 243.6923828125 602.4 241.9
L 602.9 242.15
Q 601.75 248.75 593.55 249.45 588.9 249.3 585.1 246.65
L 584.9 246.35 584.4 246.35
Q 583.15 245.2 583.2 242.15 583.237890625 241.6126953125 583.25 241.1 582.396875 240.955859375 581.7 240.75 580.506640625 240.4419921875 578.3 239.4
L 578.25 239.45
Q 578.096875 239.45 577.95 239.25 577.4595703125 239.0255859375 576.9 238.75 575.6896484375 238.086328125 575.15 237.55
L 575.15 238.7
M 580.4 246.7
Q 580.4 245.8 580.5 245.65 580.7 245.3 581.15 245.3 581.6 245.3 582 245.55 582.55 245.85 583.25 246.6 584.15 247.55 584.45 247.8 584.6 247.9 586.15 248.9 587.2 249.55 587.6 250.25 587.3 250.55 586.9 250.7 586.95 251.05 586.55 251.3 586.5 251.3 585.85 251.45 584.3 251.55 583.65 251.25 583.3 251.1 582.35 250.15
L 580.8 248.4
Q 580.45 247.9 580.4 247.75
L 580.4 246.7
M 593.4 262.15
L 594.5 261.85
Q 597 261.2 598.5 261.2 598.55 261.25 598.45 261.35 598.35 261.45 598.25 261.45
L 593 262.65
Q 592.95 262.45 593.05 262.3
L 593.4 262.15
M 591.8 260.95
Q 593.95 260.95 595.35 260.65 596 260.55 597.35 260.2 598.55 260 599.3 260.35 592.65 262.25 585.8 261.35 585 261.25 584.75 260.85 587.1 261.05 591.8 260.95 Z"/>

<path fill="#915A3C" stroke="none" d="
M 584.35 245.35
L 584.9 246.35 590.7 246.35
Q 590.7486328125 245.3458984375 590.8 244.25 587.8091796875 244.566796875 584.75 244.55
L 584.35 245.35 Z"/>

<path fill="#A96042" stroke="none" d="
M 578.25 239.45
L 578.3 239.4
Q 578.1359375 239.3478515625 577.95 239.25 578.096875 239.45 578.25 239.45 Z"/>

<path fill="#734B32" stroke="none" d="
M 584.15 241.25
Q 583.70078125 241.203125 583.25 241.1 583.237890625 241.6126953125 583.2 242.15 583.15 245.2 584.4 246.35
L 584.9 246.35 584.35 245.35 584.75 244.55
Q 587.8091796875 244.566796875 590.8 244.25 590.872265625 243.0326171875 590.95 241.7 589.4708984375 241.684765625 587.85 241.6 585.7689453125 241.4947265625 584.15 241.25 Z"/>

<path fill="#B8764D" stroke="none" d="
M 583.8 231.55
Q 583.7912109375 231.6501953125 583.75 231.75 586.616015625 231.4505859375 590.95 230.3 591.2798828125 230.2140625 591.6 230.1
L 591.6 229.05
Q 585.45 228.55 583.05 227.3 584.05 228.3 583.8 231.55
M 591.35 209.45
Q 590.6537109375 209.38671875 589.5 209.15 588.6951171875 211.159375 587.5 217.3 586.516015625 222.4087890625 584.75 225.05 587.5322265625 225.6171875 591.3 225.7
L 591.3 225.6
Q 590.95 225 590.65 221.8 590.4 219.15 590.4 217.75 590.4 213.95 590.55 212.85 591 209.95 592.65 209.7 593.1029296875 209.62890625 593.55 209.5
L 593.1 209.5
Q 592.231640625 209.541796875 591.35 209.45
M 599.1 206.85
L 598.95 204.55
Q 596.8576171875 205.128515625 594.7 205.4 594.3044921875 205.75 593.55 205.75 592.0857421875 205.791796875 590.65 205.7 589.9466796875 205.719921875 589.25 205.7 588.651953125 205.7 588.25 205.5 586.3791015625 205.2486328125 584.5 204.8 583.880859375 204.63125 583.25 204.45 583.02734375 204.3943359375 582.8 204.3
L 582.65 206.85 583.05 207.5 574.1 218.75 574.05 232.45
Q 574.230859375 227.95625 574.5 224.75 574.62734375 223.1861328125 575.45 221.4
L 575.4 221.35
Q 575.4494140625 221.251171875 575.55 221.2 577.00546875 218.1212890625 580.45 214.4 585.9 208.5 585.9 207.95 585.9 207.4904296875 585.75 207 588.15 208.1 589.85 208.5
L 589.8 208.5
Q 591.848828125 208.7203125 595.3 208.5 595.75 208.5 595.8 208.55 596.0900390625 208.6328125 596.05 208.85 597.5013671875 208.3615234375 598.8 207.65
L 598.7 207.5 599.1 206.85 Z"/>

<path fill="#D28C69" stroke="none" d="
M 589.8 208.5
L 589.85 208.5
Q 588.15 208.1 585.75 207 585.9 207.4904296875 585.9 207.95 585.9 208.5 580.45 214.4 577.00546875 218.1212890625 575.55 221.2 575.6482421875 221.1251953125 575.8 221.1 576.05 221.05 576.25 221.2 579.65 223.85 583.65 224.8 584.1830078125 224.9375 584.75 225.05 586.516015625 222.4087890625 587.5 217.3 588.6951171875 211.159375 589.5 209.15 588.857421875 209.0333984375 588.05 208.85
L 585.8 208.35
Q 586.35 208 587.15 208.05 587.6 208.1 588.55 208.35 589.0947265625 208.46953125 589.8 208.5
M 585.55 209.7
Q 586.1 209.25 586 208.9 586.2 208.85 586.4 209.1 586.6 209.3 586.6 209.55 586.55 209.9 586.15 210.4
L 585.05 212.2
Q 584.25 213.75 583.05 217.05 581.85 220 580.1 221.3 579.7 221.65 579.25 221.7 578.7 221.8 578.45 221.3
L 577.85 221.55
Q 578 220.8 578.6 219.9 578.7 219.8 579.75 218.45 582.05 215.65 583.65 212.55 584.7 210.35 585.55 209.7
M 607.65 232.65
L 607.65 218.65 598.8 207.65
Q 597.5013671875 208.3615234375 596.05 208.85 596.0671875 208.8986328125 596.05 208.95 595.149609375 209.2435546875 594.2 209.35 594.0921875 209.4068359375 593.95 209.4
L 593.95 209.5 593.7 209.55 593.55 209.5
Q 593.1029296875 209.62890625 592.65 209.7 591 209.95 590.55 212.85 590.4 213.95 590.4 217.75 590.4 219.15 590.65 221.8 590.95 225 591.3 225.6
L 591.3 225.7
Q 594.3 225.7 595.75 225.5 598.1 225.15 600.85 224.15 602.0130859375 223.691796875 603.95 222.8 604.978125 222.1048828125 606.65 220.8 607.2 220.45 607.35 220.8 606.6275390625 221.392578125 605.9 221.95 606.0123046875 221.9224609375 606.15 221.95 606.4 221.95 606.35 222.15 606.35 222.2 606.2 222.35 603.8884765625 224.1662109375 600.8 225.25 597.6716796875 226.9462890625 594.55 227.8
L 596.9 226.65
Q 597.6138671875 226.32109375 598.25 226 597.8408203125 226.10859375 597.4 226.2 594.5763671875 226.725390625 591.3 226.7 589.5869140625 226.6716796875 587.75 226.5 585.05 226.15 584.4 226 584.246875 225.966796875 584.1 225.9 579.6818359375 224.9017578125 576.25 222.05
L 575.45 221.4
Q 574.62734375 223.1861328125 574.5 224.75 574.230859375 227.95625 574.05 232.45
L 574.05 255.4
Q 574.1 255.65 574.2 255.9 574.5736328125 256.7541015625 575.15 257.35
L 575.15 256.55
Q 575.125 256.6 575.1 256.65 575.05 256.75 574.95 256.85 574.9 256.85 574.85 256.85 574.8 256.75 574.75 256.65 574.7 256.55 574.7 256.45 574.65 256.3 574.6 256.2 574.6 256.1 574.6 256 574.6 255.9 574.6 255.8 574.6 255.65 574.6 255.55 574.6 255.45 574.6 255.35 574.6 255.25 574.6 255.1 574.6 255 574.6 254.9 574.6 254.8 574.6 254.7 574.6 254.6 574.6 254.45 574.6 254.35 574.6 254.25 574.6 254.15 574.6 254.05 574.6 253.95 574.6 253.8 574.6 253.7 574.6 253.6 574.6 253.5 574.6 253.4 574.6 253.3 574.6 253.15 574.6 253.05 574.6 252.95 574.6 252.85 574.6 252.75 574.6 252.65 574.6 252.5 574.6 252.4 574.6 252.3 574.6 252.2 574.6 252.1 574.6 251.95 574.6 251.85 574.6 251.75 574.6 251.65 574.6 251.55 574.6 251.45 574.6 251.3 574.6 251.2 574.6 251.1 574.6 251 574.6 250.9 574.6 250.8 574.6 250.65 574.6 250.55 574.6 250.45 574.6 250.35 574.6 250.25 574.6 250.15 574.6 250 574.6 249.9 574.6 249.8 574.6 249.7 574.6 249.6 574.6 249.5 574.6 249.35 574.6 249.25 574.6 249.15 574.6 249.05 574.6 248.95 574.6 248.8 574.6 248.7 574.6 248.6 574.6 248.5 574.6 248.4 574.6 248.3 574.6 248.15
L 574.6 248.1
Q 574.6 248.0220703125 574.6 247.95 574.6 247.85 574.6 247.75 574.6 247.65 574.6 247.5 574.6 247.4 574.6 247.3 574.6 247.2 574.6 247.1 574.6 247 574.6 246.85 574.6 246.75 574.6 246.65 574.6 246.55 574.6 246.45 574.6 246.35 574.6 246.2 574.6 246.1 574.6 246 574.6 245.9 574.6 245.8 574.6 245.65 574.6 245.55 574.6 245.45 574.6 245.35 574.6 245.25 574.6 245.15 574.6 245 574.6 244.9 574.6 244.8 574.6 244.7 574.6 244.6 574.6 244.5 574.6 244.35 574.6 244.25 574.6 244.15 574.6 244.05 574.6 243.95 574.6 243.85 574.6 243.7 574.6 243.6 574.6 243.5 574.6 243.4 574.6 243.3 574.6 243.2 574.6 243.05 574.6 242.95 574.6 242.85 574.6 242.75 574.6 242.65 574.6 242.5 574.6 242.4 574.6 242.3 574.6 242.2 574.6 242.1 574.6 242 574.6 241.85 574.6 241.75 574.6 241.65 574.6 241.55 574.6 241.45 574.6 241.35 574.6 241.2 574.6 241.1 574.6 241 574.6 240.9 574.6 240.8 574.65 240.7 574.7 240.55 574.7 240.45 574.7 240.35 574.7 240.25 574.7 240.15 574.7 240.05 574.7 239.9 574.7 239.8 574.7 239.7 574.7 239.6 574.7 239.5 574.7 239.35 574.7 239.25 574.7 239.15 574.7 239.05 574.7 238.95 574.7 238.85 574.7 238.7 574.75 238.6 574.75 238.5 574.75 238.4 574.75 238.3 574.75 238.2 574.75 238.1 574.75 238.05 574.75 238 574.75 237.95 574.85 237.95 574.9 237.95 574.95 237.95 575.05 237.95 575.1 238.05 575.1 238.2 575.1 238.3 575.1 238.4 575.1 238.5 575.1 238.6 575.125 238.65 575.15 238.7
L 575.15 237.55
Q 574.9986328125 237.3923828125 574.9 237.25 574.3 236.2 574.8 234.15 575 232.95 575.35 232.15 575.55 231.85 575.8 232.25
L 575.8 232.75
Q 575.75 233.25 576.2 233.7 576.4486328125 233.92109375 576.7 234 577.5724609375 232.8294921875 578.55 232.3 579.55 231.85 582.2 231.85 582.9220703125 231.83828125 583.75 231.75 583.7912109375 231.6501953125 583.8 231.55 584.05 228.3 583.05 227.3 585.45 228.55 591.6 229.05
L 591.6 230.1
Q 597.0552734375 228.7416015625 599.7 228.6 601.7 228.5 603.1 228.95 604.9 229.55 605.7 231 606.25 232 606.25 233.95
L 606.2 234.45
Q 606.821484375 233.8224609375 607.05 233.3 607.266796875 232.5193359375 607.65 232.65
M 596.2 218.25
L 595.45 216
Q 595.35 215.55 595.4 214.55 595.45 213.55 595.3 213.1
L 595 212.45
Q 594.85 212.05 594.85 211.75 594.85 210.75 596.55 210.1 597.2 209.9 597.55 210.05 597.85 210.25 597.85 211.15 597.85 212.8 598.5 215.6 598.95 217.4 599.25 218.15 599.65 218.9 600.5 220.35 601.15 221.85 600.45 222.8 599 222.9 597.4 220.45 596.5 219.05 596.2 218.25
M 607.65 234.45
L 607.55 235
Q 607.1966796875 236.312109375 606.3 237.4 606.2865234375 238.4923828125 606.35 240.1 606.4927734375 243.8099609375 606.55 245.5 606.55 245.4 606.55 245.3 606.55 245.15 606.55 245.05 606.55 244.95 606.55 244.85 606.55 244.75 606.55 244.6 606.55 244.5 606.55 244.4 606.55 244.3 606.55 244.2 606.55 244.1 606.55 243.95 606.55 243.85 606.55 243.75 606.55 243.65 606.55 243.55 606.55 243.45 606.55 243.3 606.55 243.2 606.55 243.1 606.55 243 606.55 242.9 606.55 242.8 606.55 242.65 606.55 242.55 606.55 242.45 606.55 242.35 606.55 242.25 606.55 242.15 606.55 242 606.55 241.9 606.55 241.8 606.55 241.7 606.55 241.6 606.55 241.45 606.55 241.35 606.55 241.25 606.55 241.15 606.55 241.05 606.55 240.95 606.55 240.8 606.55 240.7 606.55 240.6 606.55 240.5 606.55 240.4 606.55 240.3 606.55 240.15 606.55 240.05 606.55 239.95 606.55 239.85 606.55 239.75 606.55 239.65 606.55 239.5 606.55 239.4 606.55 239.3 606.55 239.2 606.55 239.1 606.55 239 606.55 238.85 606.55 238.75 606.55 238.65 606.55 238.55 606.55 238.45 606.55 238.3 606.6 238.2 606.6 238.1 606.6 238.05 606.6 237.95 606.65 237.95 606.7 237.9 606.75 237.9 606.85 237.9 606.9 237.9 607 237.9 607.05 238 607.15 238.1 607.15 238.2 607.15 238.3 607.15 238.45 607.2 238.55 607.2 238.65 607.2 238.75 607.2 238.85 607.2 239 607.2 239.1 607.2 239.2 607.2 239.3 607.2 239.4 607.2 239.5 607.2 239.65 607.2 239.75 607.2 239.85 607.2 239.95 607.2 240.05 607.2 240.15 607.2 240.3 607.2 240.4 607.2 240.5 607.2 240.6 607.2 240.7 607.2 240.8 607.2 240.95 607.2 241.05 607.2 241.15 607.2 241.25 607.2 241.35 607.2 241.45 607.2 241.6 607.2 241.7 607.2 241.8 607.2 241.9 607.2 242 607.2 242.15 607.2 242.25 607.2 242.35 607.2 242.45 607.2 242.55 607.2 242.65 607.2 242.8 607.2 242.9 607.2 243 607.2 243.1 607.2 243.2 607.2 243.3 607.2 243.45 607.2 243.55 607.2 243.65 607.2 243.75 607.2 243.85 607.2 243.95 607.2 244.1 607.2 244.2 607.2 244.3 607.2 244.4 607.2 244.5 607.2 244.6 607.2 244.75 607.2 244.85 607.2 244.95 607.2 245.05 607.2 245.15 607.2 245.3 607.2 245.4 607.2 245.5 607.2 245.6 607.2 245.7 607.2 245.8 607.2 245.95 607.2 246.05 607.2 246.15 607.2 246.25 607.2 246.35 607.2 246.45 607.2 246.6 607.2 246.7 607.2 246.8 607.2 246.9 607.2 247 607.2 247.1 607.2 247.25 607.2 247.35 607.2 247.45 607.2 247.55 607.2 247.65 607.2 247.75 607.2 247.9 607.2 248 607.2 248.1 607.2 248.2 607.2 248.3 607.2 248.45 607.2 248.55 607.25 248.65 607.25 248.75 607.25 248.85 607.2 248.95 607.2 249.1 607.2 249.2 607.2 249.3 607.2 249.4 607.25 249.5 607.25 249.6 607.25 249.75 607.25 249.85 607.25 249.95 607.25 250.05 607.25 250.15 607.25 250.25 607.25 250.4 607.25 250.5 607.25 250.6 607.25 250.7 607.25 250.8 607.25 250.9 607.25 251.05 607.25 251.15 607.25 251.25 607.25 251.35 607.25 251.45 607.25 251.6 607.25 251.7 607.25 251.8 607.25 251.9 607.25 252 607.25 252.1 607.25 252.25 607.25 252.35 607.25 252.45 607.25 252.55 607.25 252.65 607.25 252.75 607.25 252.9 607.25 253 607.25 253.1 607.25 253.2 607.25 253.3 607.25 253.4 607.25 253.55 607.25 253.65 607.25 253.75 607.25 253.85 607.25 253.95 607.25 254.05 607.25 254.2 607.25 254.3 607.25 254.4 607.25 254.5 607.25 254.6 607.25 254.75 607.25 254.85 607.25 254.95 607.25 255.05 607.25 255.15 607.25 255.25 607.25 255.4 607.25 255.5 607.25 255.6 607.25 255.7 607.25 255.8 607.25 255.9 607.25 256.05 607.25 256.15 607.25 256.25 607.2 256.35 607.2 256.45 607.2 256.55 607.2 256.601953125 607.2 256.65 607.5048828125 256.088671875 607.7 255.4
L 607.65 234.45 Z"/>

<path fill="#D6A16E" stroke="none" d="
M 586 208.9
Q 586.1 209.25 585.55 209.7 584.7 210.35 583.65 212.55 582.05 215.65 579.75 218.45 578.7 219.8 578.6 219.9 578 220.8 577.85 221.55
L 578.45 221.3
Q 578.7 221.8 579.25 221.7 579.7 221.65 580.1 221.3 581.85 220 583.05 217.05 584.25 213.75 585.05 212.2
L 586.15 210.4
Q 586.55 209.9 586.6 209.55 586.6 209.3 586.4 209.1 586.2 208.85 586 208.9
M 595.45 216
L 596.2 218.25
Q 596.5 219.05 597.4 220.45 599 222.9 600.45 222.8 601.15 221.85 600.5 220.35 599.65 218.9 599.25 218.15 598.95 217.4 598.5 215.6 597.85 212.8 597.85 211.15 597.85 210.25 597.55 210.05 597.2 209.9 596.55 210.1 594.85 210.75 594.85 211.75 594.85 212.05 595 212.45
L 595.3 213.1
Q 595.45 213.55 595.4 214.55 595.35 215.55 595.45 216 Z"/>

<path fill="#328B92" stroke="none" d="
M 592.35 194.75
Q 592.35 194.696875 592.35 194.65
L 589.55 194.65
Q 590.1404296875 195.801953125 590.25 198.35 590.3287109375 200.1998046875 590.25 202.55 591.67109375 202.61171875 592.85 202.6
L 592.85 202.55
Q 592.85 202.45 592.85 202.35 592.85 202.2 592.85 202.1 592.85 202 592.85 201.9 592.85 201.8 592.85 201.7 592.85 201.55 592.85 201.45 592.85 201.35 592.85 201.25 592.85 201.15 592.85 201.05 592.85 200.9 592.85 200.8 592.85 200.7 592.85 200.6 592.8 200.5 592.8 200.4 592.8 200.25 592.8 200.15 592.8 200.05 592.8 199.95 592.8 199.85 592.8 199.7 592.8 199.6 592.8 199.5 592.8 199.4 592.8 199.3 592.8 199.2 592.8 199.05 592.8 198.95 592.8 198.85 592.8 198.75 592.8 198.65 592.8 198.55 592.8 198.4 592.8 198.3 592.8 198.2 592.8 198.1 592.8 198 592.8 197.9 592.8 197.75 592.8 197.65 592.8 197.55 592.8 197.45 592.8 197.35 592.8 197.25 592.8 197.1 592.8 197 592.8 196.9 592.8 196.8 592.8 196.7 592.8 196.55 592.8 196.45 592.8 196.35 592.8 196.25 592.8 196.15 592.8 196.05 592.8 195.9 592.8 195.8 592.8 195.7 592.8 195.6 592.75 195.5 592.7 195.4 592.7 195.25 592.65 195.15 592.55 195.05 592.5 194.95 592.45 194.85 592.35 194.75
M 586.95 194.55
Q 586.7037109375 194.487890625 586.35 194.4 585.448828125 195.1537109375 584.65 196.7 583.1 199.6 583.95 201.6 583.474609375 201.457421875 583.05 201.3 583.0578125 201.40859375 583.05 201.5 583.125 201.519921875 583.2 201.55 584.5 202.05 586.25 202.25 586.298828125 202.25703125 586.35 202.25
L 586.35 202.25
Q 586.3 202.15 586.25 202.05 586.25 201.95 586.25 201.8 586.25 201.7 586.25 201.6 586.25 201.5 586.25 201.4 586.25 201.3 586.2 201.15 586.2 201.05 586.2 200.95 586.2 200.85 586.2 200.75 586.2 200.65 586.2 200.5 586.2 200.4 586.2 200.3 586.25 200.2 586.35 200.1 586.4 200 586.4 199.85 586.45 199.75 586.5 199.65 586.5 199.55 586.55 199.45 586.55 199.35 586.55 199.2 586.55 199.1 586.55 199 586.55 198.9 586.55 198.8 586.55 198.65 586.55 198.55 586.55 198.45 586.55 198.35 586.55 198.25 586.55 198.15 586.55 198 586.55 197.9 586.55 197.8 586.55 197.7 586.55 197.6 586.55 197.5 586.55 197.35 586.55 197.25 586.55 197.15 586.55 197.05 586.55 196.95 586.55 196.85 586.55 196.7 586.55 196.6 586.55 196.5 586.55 196.4 586.55 196.3 586.55 196.2 586.55 196.05 586.55 195.95 586.55 195.85 586.55 195.75 586.55 195.65 586.55 195.5 586.55 195.4 586.55 195.3 586.55 195.2 586.55 195.1 586.6 195 586.65 194.85 586.7 194.75 586.8 194.65 586.882421875 194.594921875 586.95 194.55
M 596.95 194.8
Q 596.9853515625 194.517578125 597.15 194.3 596.3416015625 194.56953125 595.55 194.6
L 595.5 194.6 595.5 195.75
Q 596.2 197 596.35 197.8 596.4 198.1 596.4 199.65 596.4 201.357421875 596 202.3 597.017578125 202.166015625 598.1 201.9
L 598.1 201.7
Q 598.05234375 201.726171875 598 201.7 597.7 200.25 597.8 198.6 597.8 197.5 597.65 197.15 597.4 196.65 597.4 196.45 597.55 196 597.45 195.8 597.4 195.65 597.15 195.5 596.9 195.2 596.95 194.8
M 581.6 192.3
Q 580.94140625 192.9115234375 580.6 193.9
L 580.55 199.9
Q 581.0365234375 200.54375 582.6 201.15 582.5 199.015625 582.5 195.85 582.5 194.95 582.65 194.55 583.1 193.8 583.1 193.4 583.225390625 193.358203125 583.35 193.3
L 583.3 193.3
Q 582.61953125 192.8669921875 582.25 192.3
L 581.6 192.3 Z"/>

<path fill="#47B5C3" stroke="none" d="
M 587.2 195.45
Q 587.2 195.55 587.2 195.65 587.2 195.8 587.2 195.9 587.2 196 587.2 196.1 587.2 196.2 587.2 196.3 587.2 196.45 587.2 196.55 587.2 196.65 587.2 196.75 587.2 196.85 587.2 196.95 587.2 197.1 587.2 197.2 587.2 197.3 587.2 197.4 587.2 197.5 587.2 197.6 587.2 197.75 587.2 197.85 587.2 197.95 587.2 198.05 587.2 198.15 587.2 198.3 587.2 198.4 587.2 198.5 587.2 198.6 587.2 198.7 587.2 198.8 587.2 198.95 587.2 199.05 587.2 199.15 587.2 199.25 587.2 199.35 587.2 199.45 587.2 199.6 587.2 199.7 587.15 199.8 587.1 199.9 587.05 200 587.05 200.1 587 200.25 586.9 200.35 586.85 200.45 586.85 200.55 586.85 200.65 586.85 200.75 586.85 200.9 586.8 201 586.8 201.1 586.8 201.2 586.8 201.3 586.8 201.45 586.8 201.55 586.8 201.65 586.8 201.75 586.75 201.85 586.7 201.95 586.7 202.1 586.7 202.2 586.6724609375 202.255078125 586.65 202.3 587.6841796875 202.41796875 589.45 202.5 589.87578125 202.526171875 590.25 202.55 590.3287109375 200.1998046875 590.25 198.35 590.1404296875 195.801953125 589.55 194.65
L 587.75 194.65
Q 587.6625 194.725 587.55 194.8 587.5 194.9 587.45 195 587.3 195.15 587.2 195.25 587.2 195.35 587.2 195.45
M 586.35 194.4
Q 585.9591796875 194.2955078125 585.45 194.15 584.626171875 193.936328125 584 193.65 583.9587890625 193.683203125 583.9 193.7 583.55 193.85 583.45 193.9 583.4 194 583.4 194.35 583.4 194.65 583.25 195.2 583.05 195.95 583.15 197.1 583.225390625 199.293359375 583.05 201.3 583.474609375 201.457421875 583.95 201.6 583.1 199.6 584.65 196.7 585.448828125 195.1537109375 586.35 194.4
M 598.1 194
Q 597.7421875 194.1556640625 597.4 194.25 598.0041015625 194.9703125 598.1 195.45
L 598.2 196.15
Q 598.4 196.6 598.45 196.75 598.6 197.1 598.6 197.95 598.6 198.4822265625 598.6 198.95 598.563671875 200.4162109375 598.45 201.25 598.326171875 201.7453125 598.1 201.7
L 598.1 201.9
Q 598.273828125 201.8462890625 598.45 201.8 599.05703125 201.6650390625 599.55 201.6 600.4861328125 201.4505859375 600.95 201.55 601 201.7 600.55 201.8 600.2578125 201.8486328125 599.15 202.35
L 599.1 202.4
Q 598.627734375 202.6576171875 598.1 202.8 597.398828125 203.064453125 596.6 203.15
L 595.5 203.2 594.35 203.4
Q 594.06015625 203.4580078125 593.35 203.5 593.35 203.580859375 593.35 203.65 593.3 203.75 593.2 203.85 593.15 203.85 593.1 203.85 593.05 203.75 593 203.65 593 203.582421875 593 203.5 592.6013671875 203.5 592.1 203.5
L 584.6 202.85
Q 583.7228515625 202.64765625 582.95 202.3 582.966796875 202.4546875 582.95 202.6 582.95 203 582.7 203 582.666796875 202.601953125 582.65 202.15 582.46640625 202.0498046875 582.3 201.95 581.6 201.55 581.7 201.1 582.037890625 201.1337890625 582.6 201.3 582.5958984375 201.234375 582.6 201.15 581.0365234375 200.54375 580.55 199.9
L 580.55 201.85
Q 580.9 202.65 581.6 202.85 582.0830078125 202.9861328125 582.55 203.1 586.4453125 204.101953125 590.35 204.3 594.8201171875 204.3099609375 599.2 203.3
L 599.3 203.2 599.65 203.2
Q 600.4234375 203.0189453125 601.2 202.8 601.9 202.6 602.25 201.8
L 602.2 192.5 600.9 191.6
Q 600.805078125 192.4353515625 600.15 192.95
L 599.65 193.3 598.25 193.95
Q 598.170703125 193.983984375 598.1 194
M 600.7 193.3
Q 600.7 193.25 600.75 193.2 600.9 193.3 601.05 193.4 601.05 193.55 601.05 193.65 601.1 193.75 601.1 193.85 601.1 193.95 601.1 194.1 601.1 194.2 601.1 194.3 601.1 194.4 601.1 194.5 601.1 194.6 601.1 194.75 601.1 194.85 601.1 194.95 601.1 195.05 601.1 195.15 601.1 195.25 601.1 195.4 601.1 195.5 601.1 195.6 601.1 195.7 601.1 195.8 601.1 195.9 601.1 196.05 601.1 196.15 601.1 196.25 601.1 196.35 601.1 196.45 601.1 196.55 601.1 196.7 601.1 196.8 601.1 196.9 601.1 197 601.1 197.1 601.1 197.25 601.1 197.35 601.1 197.45 601.1 197.55 601.1 197.65 601.1 197.75 601.1 197.9 601.1 198 601.1 198.1 601.1 198.2 601.1 198.3 601.1 198.4 601.1 198.55 601.1 198.65 601.1 198.75 601.1 198.85 601.1 198.95 601.1 199.05 601.1 199.2 601.1 199.3 601.1 199.4 601.1 199.5 601.1 199.6 601.1 199.7 601.1 199.85 601.1 199.95 601.1 200.05 601.05 200.15 601 200.25 600.95 200.4 600.85 200.45 600.75 200.5 600.65 200.45 600.55 200.4 600.5 200.25 600.45 200.15 600.45 200.05 600.45 199.95 600.45 199.85 600.45 199.7 600.45 199.6 600.45 199.5 600.45 199.4 600.45 199.3 600.45 199.2 600.45 199.05 600.45 198.95 600.45 198.85 600.45 198.75 600.45 198.65 600.45 198.55 600.45 198.4 600.45 198.3 600.45 198.2 600.45 198.1 600.45 198 600.45 197.9 600.45 197.75 600.45 197.65 600.45 197.55 600.45 197.45 600.45 197.35 600.45 197.25 600.45 197.1 600.45 197 600.45 196.9 600.45 196.8 600.45 196.7 600.45 196.55 600.45 196.45 600.45 196.35 600.45 196.25 600.45 196.15 600.45 196.05 600.45 195.9 600.45 195.8 600.45 195.7 600.45 195.6 600.45 195.5 600.45 195.4 600.45 195.25 600.45 195.15 600.45 195.05 600.45 194.95 600.45 194.85 600.45 194.75 600.45 194.6 600.45 194.5 600.45 194.4 600.4 194.3 600.3 194.2 600.15 194.1 600.15 193.95 600.1 193.85 600.15 193.75 600.25 193.65 600.3 193.55 600.4 193.4 600.45 193.35 600.55 193.3 600.6 193.3 600.7 193.3
M 593.35 194.65
Q 593.446875 194.696875 593.5 194.75 593.55 194.85 593.6 194.95 593.6 195.05 593.6 195.15 593.6 195.25 593.6 195.4 593.6 195.5 593.6 195.6 593.6 195.7 593.6 195.8 593.6 195.9 593.6 196.05 593.6 196.15 593.6 196.25 593.6 196.35 593.6 196.45 593.6 196.55 593.6 196.7 593.6 196.8 593.6 196.9 593.6 197 593.6 197.1 593.6 197.25 593.6 197.35 593.6 197.45 593.6 197.55 593.6 197.65 593.6 197.75 593.6 197.9 593.6 198 593.6 198.1 593.6 198.2 593.6 198.3 593.6 198.4 593.6 198.55 593.6 198.65 593.6 198.75 593.6 198.85 593.6 198.95 593.6 199.05 593.6 199.2 593.6 199.3 593.6 199.4 593.6 199.5 593.6 199.6 593.6 199.7 593.6 199.85 593.6 199.95 593.6 200.05 593.6 200.15 593.55 200.25 593.5 200.4 593.5 200.5 593.5 200.6 593.5 200.7 593.5 200.8 593.5 200.9 593.5 201.05 593.5 201.15 593.5 201.25 593.5 201.35 593.5 201.45 593.5 201.55 593.5 201.7 593.5 201.8 593.5 201.9 593.5 202 593.5 202.1 593.5 202.2 593.5 202.35 593.5 202.45 593.5 202.55
L 593.5 202.55
Q 594.245703125 202.5595703125 594.9 202.5 595.4455078125 202.4337890625 596 202.3 596.4 201.357421875 596.4 199.65 596.4 198.1 596.35 197.8 596.2 197 595.5 195.75
L 595.5 194.6
Q 595.1984375 194.65 594.6 194.65
L 593.35 194.65
M 580.6 192.55
L 580.6 193.9
Q 580.94140625 192.9115234375 581.6 192.3
L 582.25 192.3
Q 582.0376953125 191.9833984375 581.9 191.6
L 580.6 192.55
M 583.3 189.1
Q 583.05 189.25 582.8 189.45 582.8685546875 189.4962890625 582.9 189.55 583.25 190.2 584.5 190.7 586.25 191.25 589.3 191.45 593.6 191.7 596.65 191.4 596.9 191.9 596.3 192.2 596 192.4 595.35 192.4 588.05 192.4 584.55 191.45 583.4 191.15 582.9 190.65 582.5509765625 190.3421875 582.4 190 582.1482421875 190.543359375 582.1 191.25 582.2294921875 191.209765625 582.35 191.25 582.55 191.3 582.85 191.6 583.1341796875 191.8841796875 584.05 192.3 584.2958984375 192.396484375 584.55 192.5
L 586.5 193.1
Q 588.1 193.45 590.75 193.35
L 594.55 193.35
Q 595.5 193.35 595.95 193.25 596.85 193.1 598.45 192.4 599.962109375 191.7126953125 600.8 191.5
L 600.7 191.45
Q 600.6767578125 190.1765625 600.05 189.45 591.85 186.5 583.3 189.1 Z"/>
</g>

<g id="Layer0_2_MEMBER_0_FILL">
<path fill="#3B3D35" stroke="none" d="
M 649.45 227.35
Q 649.55 226.5 649.2 225.7 648 222.85 644.85 223.85 643.15 224.5 641.5 225.7 634.4 230.55 627.35 235.4 626.45 236.05 625.55 236.65 620.65 240.05 615.8 243.4 607.6685546875 249.937890625 601.25 258.4
L 599 258.95
Q 596.155859375 259.626953125 590.3 260.65 589.348046875 260.8171875 588.45 261 586.1 261.6 583.85 262.4 578.3 264.05 574.25 268 572.7337890625 269.4671875 572.25 271.7 572.25 272.55 572.4 273.4 572.55 274.2 573.1 274.45 587.65 281 600.85 271.7 602.0359375 270.649609375 602.75 269.4 604.8150390625 265.7392578125 605.35 261.55
L 605.45 260.45
Q 607.35 258.55 609.3 256.75 612.442578125 253.89140625 615.8 251.35 617.2 250.35 618.6 249.35 622.95 246.25 627.35 243.7 632.2 240.9 637.1 238.2 642.05 235.6 646.55 232.25 648.05 231.15 648.9 229.45 649.35 228.45 649.45 227.35
M 627.35 242.1
Q 625.85 242.95 624.35 243.75 619.95 246.2 615.8 249.1 609.105859375 254.158984375 603.85 261
L 604.05 261.75
Q 603.35 264.05 602.65 266.3 601.5478515625 269.7384765625 598.6 271.7 588.15 277.7 575.95 275.1 572.9 274.55 573.75 271.7 573.9408203125 271.1048828125 574.2 270.55 574.15 270.9478515625 574.15 271.55
L 574.25 273.3
Q 574.5595703125 273.4326171875 574.85 273.2 574.920703125 273.320703125 575 273.4 576 274.2 576.55 274.45 577.85 275.2 579.8 275.35 584.5 275.85 589.6 274.3 593.9 273 598.65 270.3 599.9 269.65 600.55 268.9 601.4 267.65 600.7 266.65 600.5 266.4 600.3 266.45 600.2427734375 266.45 600.2 266.5 599.9685546875 265.940625 599.5 265.55 599.05 265.1 598.25 264.75
L 596.65 263.95
Q 595.7 263.5 595.05 263.3 594.05 263.2 593.6 263.15 587.9837890625 263.06484375 585.05 263.35 585.241015625 263.2951171875 585.4 263.25 590.55 261.8 595.65 261 596.213671875 260.90390625 596.8 260.8 597.977734375 260.536328125 599 260.2
L 601.25 259.6
Q 602.75 258 604.25 256.4 609.6716796875 250.530859375 615.8 245.55 629.15 235.65 642.95 226.35 643.65 225.9 644.4 225.5 644.9 225.25 645.45 225.05 645.85 225 646.3 225 646.6 225.05 646.95 225.1 647.9 225.5 648.25 226.45 648.2 227.25 647.35 227.8 641.85 231.2 636.4 234.65 635.9 234.95 635.45 235.3 635.25 235.4 635.1 235.5 634.55 236 634 236.5 633.45 236.95 633.15 237.45
L 648.1 228.1
Q 647.35 229.8 645.75 230.9 643.3 232.8 640.65 234.35 634 238.25 627.35 242.1
M 594.4 264.2
Q 594.8 264.25 596.2 264.85 598.830078125 266.07734375 599.75 267.35
L 599.45 268.1
Q 599.1 268.6 598 269.2 593.25 271.9 588.8 273.15 583.7 274.65 578.9 274.15
L 577.75 273.95 576.7 273.5
Q 575.65 272.9 574.9 272.75 574.810546875 272.7798828125 574.8 272.85 574.4580078125 272.126171875 574.75 271.25 575 270.5 575.7 269.5 576.5 268.5 578.4 266.7
L 579.35 265.9
Q 580.2 265.4 580.9 265.2 584.05 264.1 590.3 264.1
L 594.4 264.2
M 590.75 270.85
Q 590.65 270.8 590.1 270.95 584.15 272.85 577.85 271.6 577.25 271.5 577.15 271.8 578.45 272.4 581.45 272.5 584.7 272.55 586.3 272.35 588.95 272 590.75 270.85 Z"/>

<path fill="#B9716B" stroke="none" d="
M 596.2 264.85
Q 594.8 264.25 594.4 264.2
L 590.3 264.1
Q 584.05 264.1 580.9 265.2 580.2 265.4 579.35 265.9
L 578.4 266.7
Q 576.5 268.5 575.7 269.5 575 270.5 574.75 271.25 574.4580078125 272.126171875 574.8 272.85 574.810546875 272.7798828125 574.9 272.75 575.65 272.9 576.7 273.5
L 577.75 273.95 578.9 274.15
Q 583.7 274.65 588.8 273.15 593.25 271.9 598 269.2 599.1 268.6 599.45 268.1
L 599.75 267.35
Q 598.830078125 266.07734375 596.2 264.85
M 588.2 266.6
L 587.8 267.05 587.65 267.05 587 267 586.85 267 586.7 266.85 586.5 266.55
Q 586.45 266.4 586.55 266.1
L 586.85 266.05 586.85 265.95
Q 587.25 266 588.1 266.1 588.3 266.2 588.3 266.25 588.45 266.4 588.2 266.6
M 590.1 270.95
Q 590.65 270.8 590.75 270.85 588.95 272 586.3 272.35 584.7 272.55 581.45 272.5 578.45 272.4 577.15 271.8 577.25 271.5 577.85 271.6 584.15 272.85 590.1 270.95
M 584.85 265.75
Q 585.15 265.75 585.3 265.85 585.5 266.05 585.5 266.4
L 585.3 267
Q 585.6 267.1 585.35 267.35
L 585.05 267.5
Q 584.8 267.6 584.45 268 584.05 268.4 583.8 268.5
L 583.15 268.55 581.65 268.5
Q 580.95 268.5 580.75 268.25 580.5 268 580.6 267.45
L 580.65 266.85 580.85 266.4 581.2 265.9
Q 581.35 265.8 581.8 265.8
L 584.85 265.75 Z"/>

<path fill="#D28C69" stroke="none" d="
M 585.3 265.85
Q 585.15 265.75 584.85 265.75
L 581.8 265.8
Q 581.35 265.8 581.2 265.9
L 580.85 266.4 580.65 266.85 580.6 267.45
Q 580.5 268 580.75 268.25 580.95 268.5 581.65 268.5
L 583.15 268.55 583.8 268.5
Q 584.05 268.4 584.45 268 584.8 267.6 585.05 267.5
L 585.35 267.35
Q 585.6 267.1 585.3 267
L 585.5 266.4
Q 585.5 266.05 585.3 265.85
M 587.8 267.05
L 588.2 266.6
Q 588.45 266.4 588.3 266.25 588.3 266.2 588.1 266.1 587.25 266 586.85 265.95
L 586.85 266.05 586.55 266.1
Q 586.45 266.4 586.5 266.55
L 586.7 266.85 586.85 267 587 267 587.65 267.05 587.8 267.05 Z"/>

<path fill="#D4D4D4" stroke="none" d="
M 624.35 243.75
Q 625.85 242.95 627.35 242.1 634 238.25 640.65 234.35 643.3 232.8 645.75 230.9 647.35 229.8 648.1 228.1
L 633.15 237.45
Q 633.45 236.95 634 236.5 634.55 236 635.1 235.5 635.25 235.4 635.45 235.3 635.9 234.95 636.4 234.65 641.85 231.2 647.35 227.8 648.2 227.25 648.25 226.45 647.9 225.5 646.95 225.1 646.6 225.05 646.3 225 645.85 225 645.45 225.05 644.9 225.25 644.4 225.5 643.65 225.9 642.95 226.35 629.15 235.65 615.8 245.55 609.6716796875 250.530859375 604.25 256.4 602.75 258 601.25 259.6
L 599 260.2
Q 597.977734375 260.536328125 596.8 260.8 596.213671875 260.90390625 595.65 261 590.55 261.8 585.4 263.25 585.241015625 263.2951171875 585.05 263.35 587.9837890625 263.06484375 593.6 263.15 594.05 263.2 595.05 263.3 595.7 263.5 596.65 263.95
L 598.25 264.75
Q 599.05 265.1 599.5 265.55 599.9685546875 265.940625 600.2 266.5 600.2427734375 266.45 600.3 266.45 600.5 266.4 600.7 266.65 601.4 267.65 600.55 268.9 599.9 269.65 598.65 270.3 593.9 273 589.6 274.3 584.5 275.85 579.8 275.35 577.85 275.2 576.55 274.45 576 274.2 575 273.4 574.920703125 273.320703125 574.85 273.2 574.5595703125 273.4326171875 574.25 273.3
L 574.15 271.55
Q 574.15 270.9478515625 574.2 270.55 573.9408203125 271.1048828125 573.75 271.7 572.9 274.55 575.95 275.1 588.15 277.7 598.6 271.7 601.5478515625 269.7384765625 602.65 266.3 603.35 264.05 604.05 261.75
L 603.85 261
Q 609.105859375 254.158984375 615.8 249.1 619.95 246.2 624.35 243.75
M 644.65 226.55
Q 644.9 226.55 645.35 226.55 645.75 226.55 645.95 226.35 646.15 226.35 646.25 226.55 646.4 226.7 646.35 226.9 646.3 227.15 645.9 227.55
L 645.15 228.15
Q 644.25 228.85 643.75 229.05
L 642.75 229.35
Q 641.45 229.8 641 229.6 640.75 228.95 641.35 228.5 641.45 228.4 641.95 228.3
L 644 226.85 644.65 226.55
M 600 262
Q 600.7 262 601.05 262.1 601.35 262.75 601.05 263.35
L 600.75 263.5
Q 600.8 263.7 600.65 263.95
L 600.4 264.35
Q 599.95 264.5 599.6 264.3
L 599.3 263.45 597.85 263.05 597.55 262.9
Q 597.4 262.7 597.6 262.4 597.8 262.1 598.05 262.05
L 598.6 262 600 262 Z"/>

<path fill="#F2F2F2" stroke="none" d="
M 601.05 262.1
Q 600.7 262 600 262
L 598.6 262 598.05 262.05
Q 597.8 262.1 597.6 262.4 597.4 262.7 597.55 262.9
L 597.85 263.05 599.3 263.45 599.6 264.3
Q 599.95 264.5 600.4 264.35
L 600.65 263.95
Q 600.8 263.7 600.75 263.5
L 601.05 263.35
Q 601.35 262.75 601.05 262.1
M 645.35 226.55
Q 644.9 226.55 644.65 226.55
L 644 226.85 641.95 228.3
Q 641.45 228.4 641.35 228.5 640.75 228.95 641 229.6 641.45 229.8 642.75 229.35
L 643.75 229.05
Q 644.25 228.85 645.15 228.15
L 645.9 227.55
Q 646.3 227.15 646.35 226.9 646.4 226.7 646.25 226.55 646.15 226.35 645.95 226.35 645.75 226.55 645.35 226.55 Z"/>
</g>

<g id="Layer0_3_FILL">
<path fill="#3B3D35" stroke="none" d="
M 106.9 133.95
Q 106.6 134.2 106.4 134.6 106.25 134.95 106.25 135.35 106.25 135.8 106.4 136.1 106.55 136.4 106.75 136.65 107 136.85 107.3 137
L 109 137.6
Q 109.25 137.7 109.35 137.85 109.5 138 109.5 138.25
L 109.45 138.55
Q 109.4 138.7 109.25 138.8
L 108.9 138.95
Q 108.7 139.05 108.45 139.05 108.05 139.05 107.85 138.95
L 107.45 138.8 107.1 138.6
Q 107 138.5 106.85 138.5
L 106.6 138.55 106.05 139.35 106.5 139.65 107.05 139.9 107.7 140.1 108.35 140.15
Q 109 140.15 109.5 140 110 139.8 110.3 139.55 110.65 139.25 110.8 138.85 111 138.45 111 137.95 111 137.55 110.85 137.3 110.7 137 110.5 136.8 110.25 136.6 109.95 136.45
L 108.25 135.85
Q 108.05 135.75 107.9 135.6 107.75 135.45 107.75 135.25 107.75 134.9 108.05 134.7 108.3 134.5 108.75 134.5
L 109.7 134.7 110.25 134.95 110.4 134.9 110.55 134.75 110.9 134.15
Q 110.55 133.8 110 133.6 109.45 133.35 108.75 133.35 108.15 133.35 107.65 133.5 107.2 133.7 106.9 133.95
M 115.05 133.35
Q 114.3 133.35 113.7 133.6 113.1 133.85 112.65 134.25 112.25 134.7 112 135.35 111.8 135.95 111.8 136.75 111.8 137.55 112 138.15 112.25 138.8 112.65 139.25 113.1 139.65 113.7 139.9 114.3 140.15 115.05 140.15 115.8 140.15 116.4 139.9 117 139.65 117.4 139.25 117.85 138.8 118.05 138.15 118.3 137.55 118.3 136.75 118.3 135.95 118.05 135.35 117.85 134.7 117.4 134.25 117 133.85 116.4 133.6 115.8 133.35 115.05 133.35
M 115.05 134.55
Q 115.9 134.55 116.25 135.15 116.65 135.7 116.65 136.75 116.65 137.8 116.25 138.35 115.9 138.95 115.05 138.95 114.2 138.95 113.8 138.35 113.4 137.8 113.4 136.75 113.4 135.7 113.8 135.15 114.2 134.55 115.05 134.55
M 85.1 134.3
Q 84.75 134.8 84.55 135.4 84.35 136.05 84.35 136.75 84.35 137.6 84.5 138.2 84.7 138.85 85 139.25 85.35 139.7 85.8 139.9 86.25 140.15 86.8 140.15 87.45 140.15 87.95 139.9 88.45 139.65 88.8 139.2
L 88.8 142.2 90.4 142.2 90.4 133.45 89.45 133.45
Q 89.15 133.45 89.05 133.75
L 88.95 134.1
Q 88.65 133.75 88.2 133.55 87.8 133.35 87.2 133.35 86.55 133.35 86 133.6 85.5 133.85 85.1 134.3
M 86.9 134.7
Q 87.2 134.55 87.55 134.55 87.9 134.55 88.25 134.7 88.55 134.8 88.8 135.15
L 88.8 138.1
Q 88.5 138.45 88.15 138.7 87.8 138.9 87.35 138.9 87 138.9 86.75 138.8 86.5 138.65 86.35 138.4 86.15 138.15 86.1 137.75 86 137.35 86 136.75 86 136.2 86.1 135.8 86.2 135.35 86.4 135.1 86.6 134.8 86.9 134.7
M 100.75 133.6
Q 100.15 133.85 99.7 134.25 99.3 134.7 99.05 135.35 98.85 135.95 98.85 136.75 98.85 137.55 99.05 138.15 99.3 138.8 99.7 139.25 100.15 139.65 100.75 139.9 101.35 140.15 102.1 140.15 102.85 140.15 103.45 139.9 104.05 139.65 104.45 139.25 104.9 138.8 105.1 138.15 105.35 137.55 105.35 136.75 105.35 135.95 105.1 135.35 104.9 134.7 104.45 134.25 104.05 133.85 103.45 133.6 102.85 133.35 102.1 133.35 101.35 133.35 100.75 133.6
M 100.85 138.35
Q 100.45 137.8 100.45 136.75 100.45 135.7 100.85 135.15 101.25 134.55 102.1 134.55 102.95 134.55 103.3 135.15 103.7 135.7 103.7 136.75 103.7 137.8 103.3 138.35 102.95 138.95 102.1 138.95 101.25 138.95 100.85 138.35
M 93.45 133.45
L 91.85 133.45 91.85 137.65
Q 91.85 138.2 92 138.65 92.15 139.1 92.45 139.45 92.75 139.8 93.15 139.95 93.55 140.15 94.1 140.15 94.75 140.15 95.25 139.9 95.75 139.65 96.15 139.25
L 96.25 139.75
Q 96.35 140.05 96.65 140.05
L 97.6 140.05 97.6 133.45 96.05 133.45 96.05 138.2
Q 95.7 138.55 95.35 138.75 95 138.9 94.6 138.9 94 138.9 93.75 138.6 93.45 138.25 93.45 137.65
L 93.45 133.45
M 34.9 132.15
L 39.05 132.15 39.05 130.75 33.2 130.75 33.2 140.05 39.05 140.05 39.05 138.65 34.9 138.65 34.9 136.05 38.15 136.05 38.15 134.7 34.9 134.7 34.9 132.15
M 65 131.45
L 64.15 131.45
Q 64.05 131.45 63.95 131.5 63.85 131.55 63.8 131.7
L 63.5 133.5 62.4 133.7 62.4 134.3
Q 62.4 134.45 62.5 134.55 62.6 134.65 62.75 134.65
L 63.4 134.65 63.4 138.35
Q 63.4 139.2 63.85 139.65 64.3 140.15 65.2 140.15 65.65 140.15 66.1 140 66.55 139.85 66.9 139.55
L 66.45 138.8 66.35 138.7 66.2 138.65 65.8 138.85 65.55 138.9
Q 65.3 138.9 65.15 138.7 65 138.5 65 138.2
L 65 134.65 66.75 134.65 66.75 133.5 65 133.5 65 131.45
M 79.15 135.1
L 79.95 134.7
Q 80.2 134.6 80.55 134.6 81.1 134.6 81.4 134.9 81.65 135.2 81.65 135.9
L 81.65 136.25
Q 80.9 136.3 80.35 136.4 79.75 136.5 79.3 136.6 78.85 136.75 78.55 136.95 78.25 137.15 78.05 137.4 77.9 137.6 77.8 137.85 77.7 138.1 77.7 138.35 77.7 138.8 77.85 139.15 78 139.5 78.25 139.7 78.5 139.95 78.85 140.05 79.2 140.15 79.65 140.15
L 80.3 140.1 81.35 139.65 81.8 139.25 81.95 139.7
Q 82.05 139.9 82.15 140 82.25 140.05 82.5 140.05
L 83.2 140.05 83.2 135.9
Q 83.2 135.3 83.05 134.85 82.9 134.4 82.55 134.05 82.25 133.7 81.8 133.5 81.35 133.35 80.75 133.35 79.15 133.35 78.05 134.35
L 78.3 134.9 78.5 135.1
Q 78.6 135.15 78.8 135.15 79 135.15 79.15 135.1
M 79.35 137.9
Q 79.5 137.7 79.75 137.6 80.05 137.45 80.5 137.35 81 137.25 81.65 137.25
L 81.65 138.35
Q 81.35 138.7 80.95 138.9 80.6 139.05 80.1 139.05 79.75 139.05 79.5 138.9 79.25 138.7 79.25 138.3 79.25 138.05 79.35 137.9
M 73.65 135.35
Q 73.45 134.7 73 134.25 72.6 133.85 72 133.6 71.4 133.35 70.65 133.35 69.9 133.35 69.3 133.6 68.7 133.85 68.25 134.25 67.85 134.7 67.6 135.35 67.4 135.95 67.4 136.75 67.4 137.55 67.6 138.15 67.85 138.8 68.25 139.25 68.7 139.65 69.3 139.9 69.9 140.15 70.65 140.15 71.4 140.15 72 139.9 72.6 139.65 73 139.25 73.45 138.8 73.65 138.15 73.9 137.55 73.9 136.75 73.9 135.95 73.65 135.35
M 69.4 135.15
Q 69.8 134.55 70.65 134.55 71.5 134.55 71.85 135.15 72.25 135.7 72.25 136.75 72.25 137.8 71.85 138.35 71.5 138.95 70.65 138.95 69.8 138.95 69.4 138.35 69 137.8 69 136.75 69 135.7 69.4 135.15
M 44.55 133.45
Q 44.35 133.45 44.2 133.7
L 43.1 135.45 42.9 135.85 41.5 133.65 41.35 133.5 41.1 133.45 39.6 133.45 41.75 136.65 39.5 140.05 40.9 140.05
Q 41.05 140.05 41.15 139.95
L 41.35 139.75 42.6 137.85 42.65 137.65 42.75 137.45 44.15 139.75 44.3 139.95
Q 44.4 140.05 44.6 140.05
L 46.1 140.05 43.85 136.6 46.05 133.45 44.55 133.45
M 56.6 134.9
L 56.8 135.1
Q 56.9 135.15 57.1 135.15 57.3 135.15 57.45 135.1
L 58.25 134.7
Q 58.5 134.6 58.85 134.6 59.4 134.6 59.7 134.9 59.95 135.2 59.95 135.9
L 59.95 136.25
Q 59.2 136.3 58.65 136.4 58.05 136.5 57.6 136.6 57.15 136.75 56.85 136.95 56.55 137.15 56.35 137.4 56.2 137.6 56.1 137.85 56 138.1 56 138.35 56 138.8 56.15 139.15 56.3 139.5 56.55 139.7 56.8 139.95 57.15 140.05 57.5 140.15 57.95 140.15
L 58.6 140.1 59.65 139.65 60.1 139.25 60.25 139.7
Q 60.35 139.9 60.45 140 60.55 140.05 60.8 140.05
L 61.5 140.05 61.5 135.9
Q 61.5 135.3 61.35 134.85 61.2 134.4 60.85 134.05 60.55 133.7 60.1 133.5 59.65 133.35 59.05 133.35 57.45 133.35 56.35 134.35
L 56.6 134.9
M 59.95 137.25
L 59.95 138.35
Q 59.65 138.7 59.25 138.9 58.9 139.05 58.4 139.05 58.05 139.05 57.8 138.9 57.55 138.7 57.55 138.3 57.55 138.05 57.65 137.9 57.8 137.7 58.05 137.6 58.35 137.45 58.8 137.35 59.3 137.25 59.95 137.25
M 50.7 134.65
L 50.7 133.5 48.95 133.5 48.95 131.45 48.1 131.45
Q 48 131.45 47.9 131.5 47.8 131.55 47.75 131.7
L 47.45 133.5 46.35 133.7 46.35 134.3
Q 46.35 134.45 46.45 134.55 46.55 134.65 46.7 134.65
L 47.35 134.65 47.35 138.35
Q 47.35 139.2 47.8 139.65 48.25 140.15 49.15 140.15 49.6 140.15 50.05 140 50.5 139.85 50.85 139.55
L 50.4 138.8 50.3 138.7 50.15 138.65 49.75 138.85 49.5 138.9
Q 49.25 138.9 49.1 138.7 48.95 138.5 48.95 138.2
L 48.95 134.65 50.7 134.65
M 52.65 133.45
L 51.75 133.45 51.75 140.05 53.3 140.05 53.3 136 53.55 135.5 53.85 135.15
Q 54 135 54.2 134.95 54.4 134.85 54.7 134.85
L 55.35 134.95 55.5 134.9 55.6 134.7 55.7 133.55
Q 55.45 133.35 54.95 133.35 54.4 133.35 53.95 133.65 53.55 134 53.25 134.6
L 53.15 133.85
Q 53.1 133.65 53 133.55 52.9 133.45 52.65 133.45 Z"/>
</g>
</defs>

<g transform="matrix( 1.07159423828125, 0, 0, 0.802642822265625, -21.4,-13.2) ">
<use xlink:href="#Layer0_0_FILL"/>
</g>

<g transform="matrix( 1.07159423828125, 0, 0, 1.07159423828125, -21.4,-5) ">
<use xlink:href="#Layer0_1_FILL"/>
</g>

<g transform="matrix( 1, 0, 0, 1, -519.6,-172.55) ">
<use xlink:href="#Layer0_2_FILL"/>
</g>

<g transform="matrix( 1, 0, 0, 1, -519.6,-172.55) ">
<use xlink:href="#Layer0_2_MEMBER_0_FILL"/>
</g>

<g transform="matrix( 1, 0, 0, 1, 0,0) ">
<use xlink:href="#Layer0_3_FILL"/>
</g>
</svg>
