
<svg xmlns="http://www.w3.org/2000/svg" version="1.1" xmlns:xlink="http://www.w3.org/1999/xlink" preserveAspectRatio="none" x="0px" y="0px" width="150px" height="155px" viewBox="0 0 150 155">
<defs>
<g id="Layer0_0_MEMBER_0_FILL">
<path fill="#B8BE79" stroke="none" d="
M 165.65 120.75
L 165.65 10.15 17.95 10.15 17.95 29.1
Q 17.8326171875 29.1337890625 17.8 29.15 17.644921875 29.26640625 17.55 29.45
L 17.55 31.5 17.75 32.2
Q 17.8232421875 32.4927734375 17.95 32.7
L 17.95 63.55
Q 17.750390625 63.8138671875 17.55 64.05
L 17.55 65.5
Q 17.747265625 65.40078125 17.95 65.25
L 17.95 120.75 165.65 120.75 Z"/>
</g>

<g id="Layer0_0_MEMBER_1_FILL">
<path fill="#D6AF86" stroke="none" d="
M 128.25 42.55
Q 128.35 42 128.55 41.9 128.6 41.9 128.65 41.9
L 124.35 40.55
Q 119.95 42.2 116 44.5 115.95 44.55 115.9 44.55
L 115.9 49.4 115.9 49.45
Q 117.58203125 48.6197265625 119.85 47.45 124.4669921875 45.1673828125 128.2 43.45
L 128.25 42.55
M 165.4 85.3
Q 165.45 85.4 165.65 86 165.75 86.45 165.95 86.65 166.3 87.1 167.2 87.3 167.6 87.45 168.4 87.6 168.3 87.25 168.2 86.9
L 167.95 86.15 167.85 85.55
Q 167.8853515625 85.3736328125 167.9 85.2 167.3294921875 85.0177734375 164.2 82.75 160.4 79.95 158.7 78.2 159.4 77.75 161.15 76.8 162.6 75.95 162.6 75.35 151.3 70.55 144.6 67.9 133.86796875 63.672265625 118.35 58.6 118.54609375 59.323046875 118.7 59.6 119.25 60.35 120.35 61 122.75 62.55 128.85 65.1
L 134.35 67.45
Q 137.25 68.65 139.4 69.45 139.85 69.6 145.35 71.1 151.1 72.75 156.6 75.35 156.75 75.3 156.95 75.5
L 157 75.55
Q 158.25 76.2 159.55 76.85 158.55 77 157.3 76.85 157.35 78 157.45 78.3 157.75 79.35 158.95 80.1 159.1 80.2 161 81.2 162.55 82.15 164.75 84.55 165.25 85 165.4 85.3
M 177.85 81.7
Q 178.1 82.1697265625 178.1 82.85 178.15 82.8 178.2 82.8 178.35 82.8 178.7 83.05
L 180.55 84.55
Q 181.6 85.3 182.1 85.95 182.6 86.65 182.85 87.45 183.2 88.85 183.35 89.05 183.65 89.2 184.3 89.2 184.5 89.15 184.7 89.2 184.202734375 88.386328125 183.9 87.15 182.8259765625 85.3099609375 182.05 84.45 180.85390625 83.099609375 177.85 81.7
M 173.2 84.15
Q 172.8712890625 84.1087890625 172.4 84 171.1 83.7 170.7 83.7 170 83.7 169.05 84.5 168.7486328125 84.751171875 168.5 84.9 168.6 84.9953125 168.6 85.1 168.3 85.2 168.45 85.45
L 168.65 85.85
Q 168.75 86.1 168.8 86.55 168.8 86.6 169 87.05 169.1 87.35 169.25 87.85 169.8 88.15 170.65 88.65 171.95 89.35 172.8 88.95 173.5181640625 86.5958984375 173.2 84.15
M 176.85 81.25
Q 176.4318359375 81.0458984375 175.95 80.85 175.812890625 84.003125 174.35 84.25 174.35 84.4958984375 174.35 84.75
L 174.4 87.95
Q 174.4 88.8 174.3 89.25 174.45 89.15 174.6 89.15 175 89.15 175.8 89.25 176.5 89.1 176.75 88.4 177 87.85 177 87.05 177.2400390625 84.16953125 176.85 81.25
M 185.9 73.9
Q 185.95 74 186.05 74.2
L 186.45 75.1
Q 186.7 76.15 186.25 76.95 187.3 76.65 188.45 76.35 190 74.95 191.65 73.75 193.9 72 194.6 71 194.65 69.7 194.75 68.3 194.65 68.1 194.6 67.85
L 194.5 67.2
Q 194.4 66.95 193.95 66.45
L 193.1 65.35
Q 192.5 64.7 192.55 64.4 192.7 64.1 193.1 64.5 194.25 65.4 194.85 66.75 195 64.45 195.3 62.05 195.636328125 62.7732421875 195.8 63.75 196.316015625 62.2654296875 197.1 60.65 195.45 60.95 191.6 60.95 191.45 65.45 190.55 67.45 189.55 69.45 187.1 70.2 185.3 70.75 180.25 71.15 176.05703125 71.4513671875 173.05 71.7 174.7162109375 72.3533203125 175.7 72.55 176.3 72.7 177.6 72.95 178.65 73.25 179.2 73.85 179.5 74.05 179.9 74.45 180.2 74.65 180.6 74.75 181.35 74.95 182.4 74.55 183 74.35 184.2 73.75 184.75 73.45 185.2 73.5 185.65 73.6 185.9 73.9
M 249.95 78.3
L 249.85 78.45
Q 247.8 76.15 246.75 75 245.3 73.4 242.1 70.7 240.0404296875 68.930078125 238.7 67.65 235.1767578125 65.540234375 232.55 65.45 232.8 65.466015625 232.8 65.75 233.55 66.05 235.7 67.3 238.25 68.8 238.55 69.3
L 238.25 69.3
Q 224.05 61.3 219.45 58.1 219.9 57.7 222.4 55.65 224.7 53.6 225.15 52.65 220.15 47.85 219.75 45.95 218.85 48.5 216.5 50.65 215.4884765625 51.5662109375 214.4 52.2 214.5814453125 53.5478515625 214.65 54.2 214.65 54.35 214.7 54.5 214.75 54.45 214.85 54.35 215.85 53.6 216.9 51.65 218.05 49.55 218.8 48.85 219.65 48 219.75 47.7 220 47.5 220.2 47.8 220.35 48 220.25 48.3 220.15 48.8 219.6 49.7
L 217.3 53.3
Q 217.7 53 218.35 52.6 218.75 52.35 219.3 51.6 219.85 50.75 220.25 50.75 220.25 51.05 219.9 51.5 219.55 52.2 218.95 52.75 218.35 53.35 217.3 53.8 217.05 53.95 216.85 53.95
L 216.8 53.95
Q 216 55.1 215.35 55.5 216 56.25 216.55 57.1 218.2 60.05 219.85 62.95 220.1 63.05 220.25 63.3 221.2 64.25 222.95 65.15 224 65.75 226 66.7 226.95 67.15 229.45 68.9
L 234.55 72.45
Q 239.75 76.1 242.15 78.1 246.2 81.45 248.65 84.9 249.05 85.5 249.05 85.85 249.05 86.15 248.85 86.35 248.6 86.6 248.35 86.5 248.25 86.4 248.15 86.3 247.95 87.25 247.95 89.05 247.9 89.45 247.75 90.25 247.6 90.95 247.65 91.45 247.65 92.1 247.85 93.5 247.85 93.75 247.8 94.15 247.8 94.6 247.95 94.8 248.15 95.2 248.75 95.4 249.090234375 95.541796875 249.45 95.65 248.45 93.80703125 248.45 91.35 248.45 89.35 251.2 86.15 253.95 82.9 253.95 82.5 253.95 80.65 246.15 73.45 242.623828125 70.2125 239.65 68.25 240.8064453125 69.26796875 242.8 70.95 245.4 73.15 246.8 74.7 247.85 75.9 249.95 78.3
M 149.25 74
Q 148.35 73.65 147.05 73.25 145.4 73.3 143.2 73.6 139.4 74 138 74.05
L 138 73.6
Q 141.2 72.8 144.7 72.55 144.55 72.55 144.45 72.5 140.85 71.65 139.5 71.15 137.9 70.6 134.7 69.25
L 127.7 66.25
Q 125.95 65.5 124.45 64.8 124.35 68.15 124.8 71.2 125.3 73.9 126.2 75.1 126.75 75.35 127.5 75.7 133.55 78.25 142.35 78.95 142.6275390625 78.976171875 142.9 79 145.5130859375 79.2208984375 149.9 79.4 154.4 79.55 156.8 79.75 156.45 79.05 156.45 78.15
L 156.45 76.7
Q 155.4 76.5 154.35 76.15 150.95 74.65 149.25 74
M 139.95 71.9
Q 138.25 71.6 137.35 71.55 137.35 71.3 137.5 71.15
L 139.45 71.3
Q 140.4 71.5 141.4 71.9
L 141.4 72.05
Q 141.3 72.1 140.6 71.95
L 139.95 71.9
M 162.65 42.95
Q 162.65 42.7 162.65 42.55 160.5 43.1 157.95 42.8 156.8 42.7 155.8 42.35 155.05 42 153.7 41.2
L 147.7 42.95
Q 145.05 43.75 143.25 44 140.95 44.3 138.15 43.95 137.45 43.85 136.55 43.7 135.65 44.1 135.1 44.2 134.55 44.4 133.3 44.5 131.9 44.6 131.15 44.6 130.5 44.65 129.15 44.6
L 129.25 45.9
Q 129.358203125 46.7921875 129.4 47.5 131.7724609375 48.04609375 134.8 48.9 137.9 49.8 138.6 49.8 141.2 49.8 145.75 46.95 150.25 44.1 151.35 44.1 152.45 44.1 155.95 44.9 159.5 45.65 160.35 45.65 157.45 48.4 151.2 52.3 150.191796875 52.912890625 148.65 53.8 149.1705078125 53.6544921875 149.75 53.5 154.5 52.35 154.9 52.2 156.9 51.65 158.2 50.65
L 161.45 46.7
Q 161.5 46.65 162.3 45.45 162.3 45.2 162.3 44.85 162.3 44.05 162.35 43.9
L 162.6 43.45
Q 162.75 43.25 162.65 42.95 Z"/>

<path fill="#FFAC5A" stroke="none" d="
M 129.4 34.7
Q 128.8 34.5 127.6 34.3 124.85 33.7 120.3 31.15 119.35 30.6 118.6 30.35 117.75 30.15 116.55 30.15 116.2 30.15 115.9 30.2
L 115.9 38.55 116.2 38.45
Q 118.5 37.8 120.9 38.15 122 38.3 124.25 38.9
L 126.15 39.4
Q 127.4 39.7 127.95 39.95
L 129.3 40.65
Q 130 40.95 130.4 41.1 130.65 40.95 130.7 40.75 130.75 40.65 130.75 40.1 130.65 38.7 130.7 37.95 130.95 36.5 130.7 35.85 130.35 35.15 129.4 34.7
M 168 22.65
Q 167.85 22.2 167.25 21.35
L 159.5 10.05 115.9 10.05 115.9 29
Q 117.85 28.8 119.1 29.1 119.55 29.2 121.4 30.1
L 123.95 31.35
Q 125.6 32.2 126.45 32.5 127.5 32.75 129.5 33.15 129.7 32.7 130.3 32.25 130.8 31.8 130.9 31.55 131.05 31.15 130.35 30.25 129.6 29.15 129.7 28
L 130 26.3 130.05 22
Q 130.05 21.25 129.95 20.9
L 129.75 20.2
Q 129.7 20 129.85 18.55 130 17.5 129.6 15.35
L 128.85 11.55
Q 128.75 10.75 129.15 10.7 129.65 10.65 129.75 11.3
L 130.55 13.95
Q 130.95 15.25 130.95 15.5 131.1 16.2 131.05 17.6 131.05 19 131.15 19.7
L 131.45 20.75 131.5 25.3
Q 131.5 26.4 131.4 26.9 131.35 27.25 131.15 28 131.15 28.6 131.75 29.8 132.3 30.9 132.2 31.5 132.2 31.65 132.15 31.8 132.6 32 133.2 32.5
L 137.25 35.05 137.1 35.25
Q 134.1 33.65 133.1 33 132.4 32.5 131.95 32.25 131.55 32.8 130.65 33.45 130.6 33.5 130.55 33.55 131.85 34.25 132.15 35.45 132.35 36.2 132.15 37.45 131.95 38.85 132.05 39.45 132.05 39.55 132.2 40.25 132.3 40.7 132.25 40.95 132.1 41.7 131.35 41.95 131.2 42.1 130.9 42.15 130.5 42.3 130.2 42.2 130.15 42.2 130.1 42.2 129.85 42.2 129.6 42.2 129.1 42.2 129.05 42 128.95 41.95 128.85 41.95 128.95 42 129 42.15
L 129.1 43.6
Q 130.3 43.5 130.85 43.5 133.05 43.35 134.25 43.2 133.7 43.1 133.1 42.95 132.5 42.85 132.55 42.5 132.55 42.1 133.1 42.1 134.5 42 136.75 42.4 139.45 42.8 140.4 42.85 142.35 42.9 144.8 42.3 145.9 42 149.05 41.05 155.45 38.95 159.9 38.05 160.35 37.95 160.7 38.05 160.55 37.95 160.55 37.9 160.55 37.6 160.85 37.5 161 37.4 161.3 37.4
L 162.55 37.4 164.85 37.85
Q 165.15 37.9 165.25 38.15 165.2 37.9 165.25 37.75 165.4 37.1 165.45 36.75
L 165.5 35.45
Q 165.55 34.4 166.05 33.15 166.2 32.65 167.1 30.95 167.55 30.25 167.85 29.3 168.35 27.9 168.25 24.45 168.25 23.35 168 22.65
M 164.5 36.8
Q 164.4 36.9 164.1 36.7 163.2 35.85 161.7 35.15 159.95 34.35 159.1 33.85 155.95 32.05 154.45 31.15 151.15 29.6 149.5 28.8 146.6 27.35 144.9 26 145.1 25.55 145.55 25.8 145.9 25.85 146.25 26.1 147.85 27.15 150.95 28.6 154.5 30.15 155.75 30.9 157 31.55 159.35 33.05 160.25 33.6 162.15 34.7 163.75 35.65 164.5 36.8
M 152.85 18.85
Q 152.95 18.55 153.35 18.95 157.55 23 160.55 26.8 160.85 27 161.1 27.2 161.4 27.5 161.2 27.65
L 147.4 17.85
Q 143.3 14.95 141.15 13.7 140.45 13.2 140.3 12.8 140.75 12.5 141.5 13.05
L 150.2 19.05
Q 156.65 23.6 159.9 26.25 158.75 25.05 156.95 22.95 154.5 20.1 152.85 18.85
M 137.2 38.05
Q 137.3 37.95 137.45 37.95 145.25 37.55 152.45 38.4 152.25 38.75 151.65 38.65
L 137.15 38.3
Q 137.1 38.25 137.2 38.05
M 135.45 40.15
Q 134.85 40.15 134.95 39.8 135.55 39.6 136.65 39.7 141.2 40.05 146.95 40.75 146.95 41.05 146.45 41.05 144.8 41.1 141.5 40.8
L 135.45 40.15
M 142.15 36.5
Q 141.85 36.5 141.85 36.3 142.3 36.15 143.25 36.25 146.9 36.55 150.5 36.55 150.9 36.55 150.9 36.75 146.7 36.95 142.15 36.5
M 150.95 31.2
Q 151.25 31.2 151.5 31.4 155.85 34.05 160.7 35.7 162.2 36.3 162.65 36.75 158 36.2 151 32.15 150.45 31.75 150.55 31.4 150.6 31.15 150.95 31.2
M 165.4 39.1
Q 165.45 38.9 165.5 38.7 165.4 38.75 165.35 38.8 165.25 38.6 165.25 38.3 164.35 38.65 162.5 38.45
L 161.2 38.3
Q 160.95 38.25 160.85 38.2 160.85 38.25 160.9 38.3 160.25 39.3 158 39.9
L 155.2 40.75
Q 155.5 40.85 155.8 40.95 159.6 42.45 163.3 40.9 165.05 40.15 165.4 39.1 Z"/>

<path fill="#3B3D35" stroke="none" d="
M 235.15 120.55
Q 235.25 120.8 235.3 121.05
L 235.95 121.05
Q 235.9 121 235.9 120.95
L 235.45 119.7
Q 235.3 119.2 235.05 117.6
L 234.8 117.6
Q 234.75 118.9 235.15 120.55
M 174.5 78.45
Q 175.1 77.65 174.7 77.4
L 172 79.55
Q 170.95 80.35 170.45 80.55 169.8 80.8 168.75 80.9 165.95 81.2 164.4 81.25 164.15 81.5 164.4 81.6 166.45 81.8 168.75 81.65 170 81.55 170.8 81.2 171.55 80.9 172.4 80.2 173.85 79.05 174.5 78.45
M 151.5 31.4
Q 151.25 31.2 150.95 31.2 150.6 31.15 150.55 31.4 150.45 31.75 151 32.15 158 36.2 162.65 36.75 162.2 36.3 160.7 35.7 155.85 34.05 151.5 31.4
M 141.85 36.3
Q 141.85 36.5 142.15 36.5 146.7 36.95 150.9 36.75 150.9 36.55 150.5 36.55 146.9 36.55 143.25 36.25 142.3 36.15 141.85 36.3
M 134.95 39.8
Q 134.85 40.15 135.45 40.15
L 141.5 40.8
Q 144.8 41.1 146.45 41.05 146.95 41.05 146.95 40.75 141.2 40.05 136.65 39.7 135.55 39.6 134.95 39.8
M 137.45 37.95
Q 137.3 37.95 137.2 38.05 137.1 38.25 137.15 38.3
L 151.65 38.65
Q 152.25 38.75 152.45 38.4 145.25 37.55 137.45 37.95
M 153.35 18.95
Q 152.95 18.55 152.85 18.85 154.5 20.1 156.95 22.95 158.75 25.05 159.9 26.25 156.65 23.6 150.2 19.05
L 141.5 13.05
Q 140.75 12.5 140.3 12.8 140.45 13.2 141.15 13.7 143.3 14.95 147.4 17.85
L 161.2 27.65
Q 161.4 27.5 161.1 27.2 160.85 27 160.55 26.8 157.55 23 153.35 18.95
M 164.1 36.7
Q 164.4 36.9 164.5 36.8 163.75 35.65 162.15 34.7 160.25 33.6 159.35 33.05 157 31.55 155.75 30.9 154.5 30.15 150.95 28.6 147.85 27.15 146.25 26.1 145.9 25.85 145.55 25.8 145.1 25.55 144.9 26 146.6 27.35 149.5 28.8 151.15 29.6 154.45 31.15 155.95 32.05 159.1 33.85 159.95 34.35 161.7 35.15 163.2 35.85 164.1 36.7
M 216.65 91.3
Q 216.8 91.25 217 91.05 216.85 90.7 216.45 90.8 216.15 91.1 216.35 91.6 216.4 91.7 216.8 92.25 220.95 96.85 222.95 98.95
L 224.3 100.25
Q 225.05 101 226.65 102.4 227.25 103.05 228.4 104.45 228.6 104.7 229.9 105.85
L 231.65 107.55
Q 231.4 107.1 230.7 106.25 230.05 105.5 226.75 101.95
L 216.65 91.3
M 202.85 55
L 202.75 55 202.75 55.15 204.4 55.6
Q 204.5 55.7 204.65 55.6
L 204.4 55.35 204.1 55.2 202.85 54.9 202.85 55
M 199.7 51.4
Q 199.4 51.7 199.7 52.25 199.9 52.55 200.55 52.9 202.4 53.85 207.6 55.85 208.4 56.1 208.7 55.95 207.75 55.3 206.3 54.65 204.65 54 203.75 53.65
L 201.25 52.5
Q 200.5 52.15 200.25 51.75 199.9 51.25 199.7 51.4
M 249.85 78.45
L 249.95 78.3
Q 247.85 75.9 246.8 74.7 245.4 73.15 242.8 70.95 240.8064453125 69.26796875 239.65 68.25 239.008203125 67.6892578125 238.65 67.35
L 237.5 66.2
Q 237.45 66.2 237.45 66.3 237.45 66.4 237.5 66.45 237.998828125 66.9845703125 238.7 67.65 240.0404296875 68.930078125 242.1 70.7 245.3 73.4 246.75 75 247.8 76.15 249.85 78.45
M 260.45 80.4
Q 260.7 80.95 261.55 81.55
L 263.35 83.5
Q 263.1 83 262.9 82.55
L 263.65 83.05 263.65 81.85
Q 262.6 81.2 261.8 80.45 261.15 79.4 260.3 78.3 255 72.35 250.95 65.75 241.75 50.8 231.15 36.8 230.15 34.85 229.35 33.75 228.3 32.3 226.4 30.9 225.25 30.05 222.85 28.6 218.25 25.85 215.4 25.9 212.55 25.95 208.7 28.45 203.3 32 197.6 37.5 197.35 37.75 197.25 38.15 195 38.4 192.8 39.4 190.55 40.5 188.1 42.4 186.65 43.5 183.85 45.95
L 182.7 47
Q 182.5 46.7 182.25 46.4 181.85 46.1 181.6 46.05
L 180.95 46
Q 180.2 46 179.35 46.4
L 178.5 46.9
Q 177.5 45.75 175.8 44.65
L 174.25 43.6
Q 171.45 42 168.05 41.9 166.5 41.9 165.6 42.45 165.2 42.65 164.45 43.25
L 163.4 44.15 163.55 43.8
Q 163.6 43.75 163.45 42.95
L 163.45 42.35
Q 163.9 42.15 164.3 41.95 165.65 41.35 166.2 40.4 166.8 39.25 166.5 37.05
L 166.5 37 166.7 35.55
Q 166.95 34.4 167.6 33.15 167.9 32.6 168.45 31.5 169 30.55 169.2 29.85 169.8 28 169.7 24.6 169.6 22.65 169.35 22 169.05 21.25 168.35 20.3
L 161.65 10.95
Q 161.3 10.45 161 10.05
L 159.5 10.05 167.25 21.35
Q 167.85 22.2 168 22.65 168.25 23.35 168.25 24.45 168.35 27.9 167.85 29.3 167.55 30.25 167.1 30.95 166.2 32.65 166.05 33.15 165.55 34.4 165.5 35.45
L 165.45 36.75
Q 165.4 37.1 165.25 37.75 165.2 37.9 165.25 38.15 165.15 37.9 164.85 37.85
L 162.55 37.4 161.3 37.4
Q 161 37.4 160.85 37.5 160.55 37.6 160.55 37.9 160.55 37.95 160.7 38.05 160.35 37.95 159.9 38.05 155.45 38.95 149.05 41.05 145.9 42 144.8 42.3 142.35 42.9 140.4 42.85 139.45 42.8 136.75 42.4 134.5 42 133.1 42.1 132.55 42.1 132.55 42.5 132.5 42.85 133.1 42.95 133.7 43.1 134.25 43.2 133.05 43.35 130.85 43.5 130.3 43.5 129.1 43.6
L 129 42.15
Q 128.95 42 128.85 41.95 128.95 41.95 129.05 42 129.1 42.2 129.6 42.2 129.85 42.2 130.1 42.2 130.15 42.2 130.2 42.2 130.5 42.3 130.9 42.15 131.2 42.1 131.35 41.95 132.1 41.7 132.25 40.95 132.3 40.7 132.2 40.25 132.05 39.55 132.05 39.45 131.95 38.85 132.15 37.45 132.35 36.2 132.15 35.45 131.85 34.25 130.55 33.55 130.6 33.5 130.65 33.45 131.55 32.8 131.95 32.25 132.4 32.5 133.1 33 134.1 33.65 137.1 35.25
L 137.25 35.05 133.2 32.5
Q 132.6 32 132.15 31.8 132.2 31.65 132.2 31.5 132.3 30.9 131.75 29.8 131.15 28.6 131.15 28 131.35 27.25 131.4 26.9 131.5 26.4 131.5 25.3
L 131.45 20.75 131.15 19.7
Q 131.05 19 131.05 17.6 131.1 16.2 130.95 15.5 130.95 15.25 130.55 13.95
L 129.75 11.3
Q 129.65 10.65 129.15 10.7 128.75 10.75 128.85 11.55
L 129.6 15.35
Q 130 17.5 129.85 18.55 129.7 20 129.75 20.2
L 129.95 20.9
Q 130.05 21.25 130.05 22
L 130 26.3 129.7 28
Q 129.6 29.15 130.35 30.25 131.05 31.15 130.9 31.55 130.8 31.8 130.3 32.25 129.7 32.7 129.5 33.15 127.5 32.75 126.45 32.5 125.6 32.2 123.95 31.35
L 121.4 30.1
Q 119.55 29.2 119.1 29.1 117.85 28.8 115.9 29
L 115.9 30.2
Q 116.2 30.15 116.55 30.15 117.75 30.15 118.6 30.35 119.35 30.6 120.3 31.15 124.85 33.7 127.6 34.3 128.8 34.5 129.4 34.7 130.35 35.15 130.7 35.85 130.95 36.5 130.7 37.95 130.65 38.7 130.75 40.1 130.75 40.65 130.7 40.75 130.65 40.95 130.4 41.1 130 40.95 129.3 40.65
L 127.95 39.95
Q 127.4 39.7 126.15 39.4
L 124.25 38.9
Q 122 38.3 120.9 38.15 118.5 37.8 116.2 38.45
L 115.9 38.55 115.9 44.55
Q 115.95 44.55 116 44.5 119.95 42.2 124.35 40.55
L 128.65 41.9
Q 128.6 41.9 128.55 41.9 128.35 42 128.25 42.55
L 128.2 43.45 128.2 43.95
Q 128.2 45.8 128.25 46.15 128.2931640625 46.5818359375 128.4 47.3 128.4294921875 47.42734375 128.45 47.55 128.5 48.25 128.6 48.6
L 128.55 48.6
Q 127.6 48.7 127.2 49.25 129.15 49.3 132.3 51.5
L 139 56.3
Q 141.3 58.15 142.25 58.85 142.3 59 142.35 59.15 142.45 59.2 142.6 59.15 142.7 59.25 142.75 59.3 144.3 60.3 145.6 60.95 150.5 63.6 160 66.9 160 66.95 160 67 162.35 68.35 163.65 68.8 165 69.4 165.15 69.45
L 166 70.1 173 73.15
Q 174.3 73.65 175.95 74 177.75 74.35 178.3 74.85
L 178.8 75.4
Q 179.9 76.4 181.7 76.05 181.85 76 184.5 74.95 184.9 74.85 185.2 74.75 185.2 74.85 185.25 75
L 185.45 75.65
Q 185.6 76.2 184.9 76.8 184.45 77.25 183.9 77.65 182.8 77.95 181.85 78.25 181.6 78.35 181.55 78.45
L 180.1 78.6 176.85 75.8
Q 176.5 76.75 177.5 77.9 178.1 78.65 180.25 80.45 182.1 82 182.75 83.25 182.75 83.3 182.8 83.35 182.7 83.35 182.65 83.35 182.75 83.45 182.85 83.55 183.2 84.45 183.85 86.9 183.8787109375 87.034375 183.9 87.15 184.202734375 88.386328125 184.7 89.2 184.5 89.15 184.3 89.2 183.65 89.2 183.35 89.05 183.2 88.85 182.85 87.45 182.6 86.65 182.1 85.95 181.6 85.3 180.55 84.55
L 178.7 83.05
Q 178.35 82.8 178.2 82.8 178.15 82.8 178.1 82.85 178.1 82.1697265625 177.85 81.7 177.79765625 81.534375 177.7 81.4 177.25 81 176.85 81 176.866015625 81.121484375 176.85 81.25 177.2400390625 84.16953125 177 87.05 177 87.85 176.75 88.4 176.5 89.1 175.8 89.25 175 89.15 174.6 89.15 174.45 89.15 174.3 89.25 174.4 88.8 174.4 87.95
L 174.35 84.75
Q 174.35 84.4958984375 174.35 84.25 174.30390625 83.5345703125 174.15 83.15 173.8 82.25 173 82.1 172.9 82.3 173 82.95 173.14140625 83.5662109375 173.2 84.15 173.5181640625 86.5958984375 172.8 88.95 171.95 89.35 170.65 88.65 169.8 88.15 169.25 87.85 169.1 87.35 169 87.05 168.8 86.6 168.8 86.55 168.75 86.1 168.65 85.85
L 168.45 85.45
Q 168.3 85.2 168.6 85.1 168.6 84.9953125 168.5 84.9 168.469140625 84.84765625 168.35 84.8
L 167.95 84.8
Q 167.95 84.96171875 167.9 85.2 167.8853515625 85.3736328125 167.85 85.55
L 167.95 86.15 168.2 86.9
Q 168.3 87.25 168.4 87.6 167.6 87.45 167.2 87.3 166.3 87.1 165.95 86.65 165.75 86.45 165.65 86 165.45 85.4 165.4 85.3 165.25 85 164.75 84.55 162.55 82.15 161 81.2 159.1 80.2 158.95 80.1 157.75 79.35 157.45 78.3 157.35 78 157.3 76.85 158.55 77 159.55 76.85 158.25 76.2 157 75.55
L 156.95 75.5
Q 156.75 75.3 156.6 75.35 151.1 72.75 145.35 71.1 139.85 69.6 139.4 69.45 137.25 68.65 134.35 67.45
L 128.85 65.1
Q 122.75 62.55 120.35 61 119.25 60.35 118.7 59.6 118.54609375 59.323046875 118.35 58.6 118.2345703125 58.134375 118.1 57.5 117.4552734375 53.23515625 115.9 49.45
L 115.9 49.4 115.9 53.95
Q 116.4419921875 56.0193359375 116.85 58.1
L 116.85 58.15
Q 117.05 59.45 117.4 60.2 117.8 60.95 119.3 62.05 120.95 63.15 123.6 64.4 123.55 64.5 123.55 64.65 123.4 66.05 123.4 67.45 123.35 67.45 123.3 67.45 120.1 68.15 118.1 70.65 117.25 71.8 117.15 73.15 117 75.45 118.85 76.95 121.75 79.25 125.4 80.1 125.6 80.15 125.85 80.2 126.3 82.3 126.85 84.4 126.85 84.5 126.85 84.6 126.9 84.65 126.9 84.7 127.4498046875 86.7109375 128.05 88.7 131.460546875 99.3302734375 137.15 109.15 137.05 109.3 137.05 109.45 136.95 109.9 137.2 110.3 137.65 110.8 138.65 111.25 143.15 113.1 147.9 114.35 159.23125 116.9537109375 170.85 117.15 171.2498046875 117.1947265625 171.65 117.2
L 171.7 117.2
Q 187.4 117.4 201.05 110.05 202.2 109.4 202.75 108.75 202.85 108.65 202.9 108.55
L 203.15 108.55
Q 204 106.05 204.95 103.6 205.6 101.75 206 99.85 206.85 96.1 207.4 92.25 218.85 103.7 230.05 115.6 230.9 116.9 231.15 118.25 231.3 118.95 231.3 121.05
L 232.8 121.05
Q 232.8 120.3 232.7 119.5 232.45 116.8 231.15 114.65 226.3 108.15 220.15 103.1 209.55 94.25 201.25 83.2 199.2 80.4 197.3 77.5 196.55 76.4 196.25 75.4 196.2 75.25 196.1 75.05 196.05 74.95 196.05 74.9 195.55 72.85 195.9 68.65 196.1654296875 65.696875 195.8 63.75 195.636328125 62.7732421875 195.3 62.05 195 64.45 194.85 66.75 194.25 65.4 193.1 64.5 192.7 64.1 192.55 64.4 192.5 64.7 193.1 65.35
L 193.95 66.45
Q 194.4 66.95 194.5 67.2
L 194.6 67.85
Q 194.65 68.1 194.75 68.3 194.65 69.7 194.6 71 193.9 72 191.65 73.75 190 74.95 188.45 76.35 187.3 76.65 186.25 76.95 186.7 76.15 186.45 75.1
L 186.05 74.2
Q 185.95 74 185.9 73.9 185.65 73.6 185.2 73.5 184.75 73.45 184.2 73.75 183 74.35 182.4 74.55 181.35 74.95 180.6 74.75 180.2 74.65 179.9 74.45 179.5 74.05 179.2 73.85 178.65 73.25 177.6 72.95 176.3 72.7 175.7 72.55 174.7162109375 72.3533203125 173.05 71.7 172.600390625 71.55234375 172.1 71.35 169.25 70.3 167.1 69.3 165.15 68.3 164.1 67.9 163.55 67.7 162.1 67.25 162.25 67.15 162.3 66.95 162.35 66.85 162.35 66.75 166.95 63.15 174.6 56.05 176.7921875 54.051171875 178.65 52.35 184.11875 47.4748046875 187.05 45.1 191.45 41.45 194.55 40.3 199.4 38.45 203.25 40.5 204.3 41.1 205.65 42.3 206.4 43 207.9 44.4 208.8 45.2 210.55 46.75 212 48.15 212.45 49.55 212.6 50 212.85 52.1 212.9109375 52.5265625 213 52.95 213.4328125 55.3037109375 214.45 57.55 214.55 57.1 214.6 56.55 214.65 56.65 214.75 56.8 215.1 57.35 215.65 58.2 222.45 69.6 229.45 84.4 236.5 99.2 240.25 103.4 243.9 107.6 244.1 108.15 244.25 108.7 246.35 111.4 248.3 113.7 249.9 115.1 251.3 116.35 253.75 118.1 257.05 120.35 257.7 120.85 257.85 120.95 258 121.05
L 260.25 121.05
Q 258.75 119.85 256.5 118.3 252.95 115.75 251.4 114.4 249.05 112.45 245.15 107.8
L 244.85 107.45
Q 239.8 100.75 232.7 86.95 227.4 76.8 221.15 65.45 223.1 66.65 226.3 68.5 227.75 69.4 229.95 70.95
L 234.8 74.4
Q 241.65 79.2 244.55 82.3 244.75 82.5 246.45 84.45 246.8 84.85 247.15 85.25 247.1 85.3 247.1 85.4
L 246.9 86.65
Q 246.55 88.55 246.45 91.45
L 246.3 94.6
Q 246.3 95.4 246.6 95.75 246.6 95.8 247.25 96.25 249.55 97.4 250.65 97.65 250.834375 97.6888671875 251 97.7 251.8232421875 97.85 252.75 97.85
L 257.55 98.1
Q 258.6 98.1 258.8 98.05 259.55 97.9 260.75 97.1 261.55 96.8 262.65 96.6 263.15 96.5 263.65 96.45
L 263.65 94.95
Q 263.55 94.95 263.45 94.95 261.2 95.2 259.55 96.05 258.75 96.5 258.5 96.55 258.15 96.65 257.35 96.65 254.5 96.65 253 96.5 251.0130859375 96.2162109375 249.45 95.65 249.090234375 95.541796875 248.75 95.4 248.15 95.2 247.95 94.8 247.8 94.6 247.8 94.15 247.85 93.75 247.85 93.5 247.65 92.1 247.65 91.45 247.6 90.95 247.75 90.25 247.9 89.45 247.95 89.05 247.95 87.25 248.15 86.3 248.25 86.4 248.35 86.5 248.6 86.6 248.85 86.35 249.05 86.15 249.05 85.85 249.05 85.5 248.65 84.9 246.2 81.45 242.15 78.1 239.75 76.1 234.55 72.45
L 229.45 68.9
Q 226.95 67.15 226 66.7 224 65.75 222.95 65.15 221.2 64.25 220.25 63.3 220.1 63.05 219.85 62.95 218.2 60.05 216.55 57.1 216 56.25 215.35 55.5 216 55.1 216.8 53.95
L 216.85 53.95
Q 217.05 53.95 217.3 53.8 218.35 53.35 218.95 52.75 219.55 52.2 219.9 51.5 220.25 51.05 220.25 50.75 219.85 50.75 219.3 51.6 218.75 52.35 218.35 52.6 217.7 53 217.3 53.3
L 219.6 49.7
Q 220.15 48.8 220.25 48.3 220.35 48 220.2 47.8 220 47.5 219.75 47.7 219.65 48 218.8 48.85 218.05 49.55 216.9 51.65 215.85 53.6 214.85 54.35 214.75 54.45 214.7 54.5 214.65 54.35 214.65 54.2 214.5814453125 53.5478515625 214.4 52.2 214.344140625 51.6025390625 214.25 50.85 213.95 48.9 213.5 47.95 213.05 47.1 211.3 45.45
L 207.65 42.1
Q 204.95 39.75 203.55 39.05 201.4 37.9 198.75 38 200.4 36.7 203.4 34.2 207.1 31.05 209.55 29.55 213.4 27.3 216.35 27.55 218.75 27.8 222.75 30.25 224.9 31.6 225.9 32.35 227.5 33.6 228.45 35 229 35.8 229.7 37.25
L 229.9 37.7
Q 235.05 43.4 241.55 54.7 248.05 66.05 259.75 79.55
L 260.45 80.4
M 165.5 38.7
Q 165.45 38.9 165.4 39.1 165.05 40.15 163.3 40.9 159.6 42.45 155.8 40.95 155.5 40.85 155.2 40.75
L 158 39.9
Q 160.25 39.3 160.9 38.3 160.85 38.25 160.85 38.2 160.95 38.25 161.2 38.3
L 162.5 38.45
Q 164.35 38.65 165.25 38.3 165.25 38.6 165.35 38.8 165.4 38.75 165.5 38.7
M 162.65 42.55
Q 162.65 42.7 162.65 42.95 162.75 43.25 162.6 43.45
L 162.35 43.9
Q 162.3 44.05 162.3 44.85 162.3 45.2 162.3 45.45 161.5 46.65 161.45 46.7
L 158.2 50.65
Q 156.9 51.65 154.9 52.2 154.5 52.35 149.75 53.5 149.1705078125 53.6544921875 148.65 53.8 147.2166015625 54.2158203125 146.4 54.55 144.55 55.25 143.45 56.1 142.75 56.6 142.45 57.2 142.35 57.15 142.3 57.1
L 131.8 49.65
Q 130.45 48.85 129.45 48.65 129.45 48.1447265625 129.4 47.5 129.358203125 46.7921875 129.25 45.9
L 129.15 44.6
Q 130.5 44.65 131.15 44.6 131.9 44.6 133.3 44.5 134.55 44.4 135.1 44.2 135.65 44.1 136.55 43.7 137.45 43.85 138.15 43.95 140.95 44.3 143.25 44 145.05 43.75 147.7 42.95
L 153.7 41.2
Q 155.05 42 155.8 42.35 156.8 42.7 157.95 42.8 160.5 43.1 162.65 42.55
M 163.45 47.35
L 163.4 46.5 163.5 46.3
Q 165.45 43.7 167 43.35 167.85 43.15 169.2 43.35 171.2 43.55 172.4 43.95 173.1 44.25 174.45 45.1 176.15 46.1 176.9 46.75 178.15 47.8 178.7 49 178.8 49.3 179 49.35 179.2 49.4 179.35 49.2 179.55 48.95 179.5 48.7 179.4 48.2 179.1 47.7 179.25 47.65 179.4 47.6 180.7 47.05 180.85 47 181.35 47 181.4 47.05
L 181.7 47.25
Q 181.85 47.4 182.25 47.4
L 177.4 51.7 166.1 61.85
Q 166.05 61.6 165.8 61.35 165.55 61.1 164.9 60.95 163.5 60.75 162 61.35 160.85 62 160.2 62.25 158.9 62.9 157.05 63.15 156.05 63.25 154.2 63.25
L 152.05 62.4
Q 150.3 61.75 149.4 61.35 147.3 60.4 145.65 59.35 145.2 59.1 144 58.25 146.65 58.5 147.5 58.5 148.35 58.5 150 58.35
L 164.2 58.7
Q 166.35 58.7 167.2 58.3 165.95 57.9 165 57.75 163.45 57.45 160.3 57.35
L 155.2 57.25
Q 151.6 57.15 149.8 57.25 148.25 57.35 146.7 57.55
L 143.55 57.85
Q 143.5 57.85 143.45 57.9 143.4 57.85 143.35 57.8 143.95 57 145.4 56.3 148.35 55 151.95 54.2
L 153.55 53.9
Q 154.128515625 53.7623046875 154.95 53.45 155.6470703125 53.181640625 156.5 52.8
L 156.35 52.9
Q 157.3 53.2 158.4 52.15 158.45 52.15 158.45 52.1
L 159.5 51.55
Q 159.95 51.35 161.2 51
L 163.3 50.4
Q 163.6 50.35 164.15 50.25 164.45 50.2 165.15 50.2
L 166.6 50.15 167.15 50.2 167.7 50.4 169.2 51.05
Q 170 51.4 170.95 51.65 171.75 51.9 172.55 51.95
L 174.5 52.3
Q 174.65 52.2 174.45 52
L 174.2 51.8
Q 170.45 50.8 168.7 49.9 167.95 49.5 167.5 49.4 167.461328125 49.3935546875 167.4 49.4 167.109765625 49.35 166.5 49.35
L 164.55 49.35
Q 164 49.35 163.7 49.4 163.55 49.45 162.65 49.7 161.55 50 161 50.15 160.5 50.25 160.15 50.4 160.7 49.8 161.3 49.1
L 162.85 47.2
Q 163.1 47.4 163.45 47.35
M 165.45 61.7
L 165.6 62.3 161.75 65.75
Q 161.6 65.9 161.5 66.05 161.5 66 161.45 66
L 156.35 64.05
Q 157.85 64 158.85 63.65 159.5 63.45 160.4 62.95 161 62.7 162 62.15 164.1 61.3 165.45 61.7
M 180.55 79.05
Q 181.05 79.1 181.75 79.25 182.85 79.4 183.55 79.15 184 79.05 184.55 78.65
L 194.85 76.15 194.9 76.15
Q 195 76.15 195.1 76.1 195.55 77.4 196.65 78.95 197.15 79.85 197.7 80.7 196.3 81 194.85 81.3 189.55 82.3 184.3 83.1 184.1 82.5 183.85 82.15 183.5 81.65 182.4 80.65
L 180.55 79.05
M 169.7 89.8
Q 169.9 89.9 170.1 90.05 170.9 90.55 172.45 90.45 173.25 90.45 173.55 90.25 173.75 90.15 173.9 90 173.95 89.95 174 89.95
L 174.05 90
Q 174.2 90.1 174.75 90.25 175.05 90.25 175.75 90.3 176.3 90.3 176.65 90.15 176.75 90.1 176.9 90.05 177.3 90.05 177.75 90.05 180.15 90.05 182.4 89.9 183.05 90.55 184.75 90.35 185.2 90.35 185.4 90.05 185.4181640625 90.0138671875 185.4 89.95 185.4681640625 89.9138671875 185.5 89.85 185.55 89.7 185.6 89.5 188.7 89 191.3 88.05 194.5 86.95 199.85 84 202.2 87.2 205.05 89.95 206.15 91.1 207.35 92.2
L 206.85 91.9
Q 205.5 97.1 203.75 102.15 203.2 103.9 202.7 105.8
L 202.55 107.05
Q 201.9 107.7 201.05 108.35 196.65 111.35 191.5 112.6 184.89375 114.4935546875 178 115.3 176.7072265625 115.4390625 175.4 115.55 161.45 116.1 147.9 112.65 146.1 112.2 144.15 111.7 140.3 110.7 138.25 109.4
L 129.15 86.8 129 86.35 127.8 83.9 128.1 83.35
Q 128.5 82.65 129.25 82.25 129.8 81.9 129.95 81.6 138.45 85.05 151.4 87.4 154.3640625 87.947265625 157.2 88.35 163.74921875 89.382421875 169.7 89.8
M 118.65 74
Q 118.4 73.05 118.9 72.2 120.35 69.3 123.4 68.1 123.45 70.7 124 73.25 124.1 73.65 124.2 73.95 124.05 73.9 123.95 73.8 123.7 73.6 123.4 73.6 123.1 73.5 123.05 73.8 123.95 75.15 126.5 76.45 128.95 77.65 131.7 78.5 135.75 79.7 140.95 80.3 142.444921875 80.440234375 144.6 80.55 147.1162109375 80.716796875 150.5 80.85
L 157.8 81.15
Q 158 81.15 158.15 81.15 158.55 81.35 159 81.6 161.2 82.8 162.65 84.4 162 84.35 161.4 84.35 156.9 83.9 152.4 83.55 150.11171875 83.303125 147.85 83 145.123828125 82.6185546875 142.45 82.15 136.9 81.2 131.25 80 126.1 78.9 121.3 76.95 119.3 76.15 118.65 74
M 147.05 73.25
Q 148.35 73.65 149.25 74 150.95 74.65 154.35 76.15 155.4 76.5 156.45 76.7
L 156.45 78.15
Q 156.45 79.05 156.8 79.75 154.4 79.55 149.9 79.4 145.5130859375 79.2208984375 142.9 79 142.6275390625 78.976171875 142.35 78.95 133.55 78.25 127.5 75.7 126.75 75.35 126.2 75.1 125.3 73.9 124.8 71.2 124.35 68.15 124.45 64.8 125.95 65.5 127.7 66.25
L 134.7 69.25
Q 137.9 70.6 139.5 71.15 140.85 71.65 144.45 72.5 144.55 72.55 144.7 72.55 141.2 72.8 138 73.6
L 138 74.05
Q 139.4 74 143.2 73.6 145.4 73.3 147.05 73.25
M 125.9 80.25
Q 126.1 80.3 126.25 80.35 126.25 80.4 126.25 80.5 126.2 80.65 126.2 80.85
L 125.9 80.25
M 128.25 80.85
L 127.8 80.8
Q 127.6 80.75 127.45 80.65 127.85 80.75 128.25 80.85
M 137.35 71.55
Q 138.25 71.6 139.95 71.9
L 140.6 71.95
Q 141.3 72.1 141.4 72.05
L 141.4 71.9
Q 140.4 71.5 139.45 71.3
L 137.5 71.15
Q 137.35 71.3 137.35 71.55
M 197.1 107
Q 194.75 107.6 192.45 108.2 190.5314453125 108.7380859375 188.6 109.2 175.6599609375 112.4341796875 162.3 113 166.8 113.6 171.3 113.2 179.0044921875 112.7404296875 185.9 110.95 191.7947265625 109.457421875 197.1 107
M 197.65 105.9
Q 198.4 105.6 199.1 105.3
L 191.7 107.05 188.75 107.8
Q 189.9689453125 107.6630859375 191.2 107.45 194.4189453125 106.9166015625 197.65 105.9
M 174.6 53.45
L 174.9 53.4
Q 175.1 53.3 175 53.15
L 168.95 52.3 168.8 52.3 167.95 52.25
Q 167.9 52.35 168 52.45 168.1 52.55 168.25 52.55
L 169.4 52.7 174.6 53.45
M 166.25 57.15
Q 166.75 57.15 167.05 57.05 166.6 56.65 165.5 56.55 163.25 56.35 160.8 55.7
L 160.45 55.85 160.5 56.1
Q 163.6 56.9 166.25 57.15 Z"/>

<path fill="#E3C5AB" stroke="none" d="
M 166 70.1
L 165.15 69.45
Q 165 69.4 163.65 68.8 162.35 68.35 160 67 160 66.95 160 66.9 150.5 63.6 145.6 60.95 144.3 60.3 142.75 59.3 142.7 59.25 142.6 59.15 142.45 59.2 142.35 59.15 142.3 59 142.25 58.85 141.3 58.15 139 56.3
L 132.3 51.5
Q 129.15 49.3 127.2 49.25 127.6 48.7 128.55 48.6
L 128.6 48.6
Q 128.5 48.25 128.45 47.55 128.4294921875 47.42734375 128.4 47.3 128.2931640625 46.5818359375 128.25 46.15 128.2 45.8 128.2 43.95
L 128.2 43.45
Q 124.4669921875 45.1673828125 119.85 47.45 117.58203125 48.6197265625 115.9 49.45 117.4552734375 53.23515625 118.1 57.5 118.2345703125 58.134375 118.35 58.6 133.86796875 63.672265625 144.6 67.9 151.3 70.55 162.6 75.35 162.6 75.95 161.15 76.8 159.4 77.75 158.7 78.2 160.4 79.95 164.2 82.75 167.3294921875 85.0177734375 167.9 85.2 167.95 84.96171875 167.95 84.8
L 168.35 84.8
Q 168.469140625 84.84765625 168.5 84.9 168.7486328125 84.751171875 169.05 84.5 170 83.7 170.7 83.7 171.1 83.7 172.4 84 172.8712890625 84.1087890625 173.2 84.15 173.14140625 83.5662109375 173 82.95 172.9 82.3 173 82.1 173.8 82.25 174.15 83.15 174.30390625 83.5345703125 174.35 84.25 175.812890625 84.003125 175.95 80.85 176.4318359375 81.0458984375 176.85 81.25 176.866015625 81.121484375 176.85 81 177.25 81 177.7 81.4 177.79765625 81.534375 177.85 81.7 180.85390625 83.099609375 182.05 84.45 182.8259765625 85.3099609375 183.9 87.15 183.8787109375 87.034375 183.85 86.9 183.2 84.45 182.85 83.55 182.75 83.45 182.65 83.35 182.7 83.35 182.8 83.35 182.75 83.3 182.75 83.25 182.1 82 180.25 80.45 178.1 78.65 177.5 77.9 176.5 76.75 176.85 75.8
L 180.1 78.6 181.55 78.45
Q 181.6 78.35 181.85 78.25 182.8 77.95 183.9 77.65 184.45 77.25 184.9 76.8 185.6 76.2 185.45 75.65
L 185.25 75
Q 185.2 74.85 185.2 74.75 184.9 74.85 184.5 74.95 181.85 76 181.7 76.05 179.9 76.4 178.8 75.4
L 178.3 74.85
Q 177.75 74.35 175.95 74 174.3 73.65 173 73.15
L 166 70.1
M 174.7 77.4
Q 175.1 77.65 174.5 78.45 173.85 79.05 172.4 80.2 171.55 80.9 170.8 81.2 170 81.55 168.75 81.65 166.45 81.8 164.4 81.6 164.15 81.5 164.4 81.25 165.95 81.2 168.75 80.9 169.8 80.8 170.45 80.55 170.95 80.35 172 79.55
L 174.7 77.4
M 210.55 46.75
Q 208.8 45.2 207.9 44.4 206.4 43 205.65 42.3 204.3 41.1 203.25 40.5 199.4 38.45 194.55 40.3 191.45 41.45 187.05 45.1 184.11875 47.4748046875 178.65 52.35 176.7921875 54.051171875 174.6 56.05 166.95 63.15 162.35 66.75 162.35 66.85 162.3 66.95 162.25 67.15 162.1 67.25 163.55 67.7 164.1 67.9 165.15 68.3 167.1 69.3 169.25 70.3 172.1 71.35 172.600390625 71.55234375 173.05 71.7 176.05703125 71.4513671875 180.25 71.15 185.3 70.75 187.1 70.2 189.55 69.45 190.55 67.45 191.45 65.45 191.6 60.95 195.45 60.95 197.1 60.65 196.316015625 62.2654296875 195.8 63.75 196.1654296875 65.696875 195.9 68.65 195.55 72.85 196.05 74.9 196.05 74.95 196.1 75.05 196.2 75.25 196.25 75.4 196.55 76.4 197.3 77.5 199.2 80.4 201.25 83.2 209.55 94.25 220.15 103.1 226.3 108.15 231.15 114.65 232.45 116.8 232.7 119.5 232.8 120.3 232.8 121.05
L 235.3 121.05
Q 235.25 120.8 235.15 120.55 234.75 118.9 234.8 117.6
L 235.05 117.6
Q 235.3 119.2 235.45 119.7
L 235.9 120.95
Q 235.9 121 235.95 121.05
L 258 121.05
Q 257.85 120.95 257.7 120.85 257.05 120.35 253.75 118.1 251.3 116.35 249.9 115.1 248.3 113.7 246.35 111.4 244.25 108.7 244.1 108.15 243.9 107.6 240.25 103.4 236.5 99.2 229.45 84.4 222.45 69.6 215.65 58.2 215.1 57.35 214.75 56.8 214.65 56.65 214.6 56.55 214.55 57.1 214.45 57.55 213.4328125 55.3037109375 213 52.95 212.9109375 52.5265625 212.85 52.1 212.6 50 212.45 49.55 212 48.15 210.55 46.75
M 199.7 52.25
Q 199.4 51.7 199.7 51.4 199.9 51.25 200.25 51.75 200.5 52.15 201.25 52.5
L 203.75 53.65
Q 204.65 54 206.3 54.65 207.75 55.3 208.7 55.95 208.4 56.1 207.6 55.85 202.4 53.85 200.55 52.9 199.9 52.55 199.7 52.25
M 202.75 55
L 202.85 55 202.85 54.9 204.1 55.2 204.4 55.35 204.65 55.6
Q 204.5 55.7 204.4 55.6
L 202.75 55.15 202.75 55
M 217 91.05
Q 216.8 91.25 216.65 91.3
L 226.75 101.95
Q 230.05 105.5 230.7 106.25 231.4 107.1 231.65 107.55
L 229.9 105.85
Q 228.6 104.7 228.4 104.45 227.25 103.05 226.65 102.4 225.05 101 224.3 100.25
L 222.95 98.95
Q 220.95 96.85 216.8 92.25 216.4 91.7 216.35 91.6 216.15 91.1 216.45 90.8 216.85 90.7 217 91.05
M 129.4 47.5
Q 129.45 48.1447265625 129.45 48.65 130.45 48.85 131.8 49.65
L 142.3 57.1
Q 142.35 57.15 142.45 57.2 142.75 56.6 143.45 56.1 144.55 55.25 146.4 54.55 147.2166015625 54.2158203125 148.65 53.8 150.191796875 52.912890625 151.2 52.3 157.45 48.4 160.35 45.65 159.5 45.65 155.95 44.9 152.45 44.1 151.35 44.1 150.25 44.1 145.75 46.95 141.2 49.8 138.6 49.8 137.9 49.8 134.8 48.9 131.7724609375 48.04609375 129.4 47.5
M 261.55 81.55
Q 260.7 80.95 260.45 80.4
L 259.75 79.55
Q 248.05 66.05 241.55 54.7 235.05 43.4 229.9 37.7
L 229.7 37.25
Q 229 35.8 228.45 35 227.5 33.6 225.9 32.35 224.9 31.6 222.75 30.25 218.75 27.8 216.35 27.55 213.4 27.3 209.55 29.55 207.1 31.05 203.4 34.2 200.4 36.7 198.75 38 201.4 37.9 203.55 39.05 204.95 39.75 207.65 42.1
L 211.3 45.45
Q 213.05 47.1 213.5 47.95 213.95 48.9 214.25 50.85 214.344140625 51.6025390625 214.4 52.2 215.4884765625 51.5662109375 216.5 50.65 218.85 48.5 219.75 45.95 220.15 47.85 225.15 52.65 224.7 53.6 222.4 55.65 219.9 57.7 219.45 58.1 224.05 61.3 238.25 69.3
L 238.55 69.3
Q 238.25 68.8 235.7 67.3 233.55 66.05 232.8 65.75 232.8 65.466015625 232.55 65.45 235.1767578125 65.540234375 238.7 67.65 237.998828125 66.9845703125 237.5 66.45 237.45 66.4 237.45 66.3 237.45 66.2 237.5 66.2
L 238.65 67.35
Q 239.008203125 67.6892578125 239.65 68.25 242.623828125 70.2125 246.15 73.45 253.95 80.65 253.95 82.5 253.95 82.9 251.2 86.15 248.45 89.35 248.45 91.35 248.45 93.80703125 249.45 95.65 251.0130859375 96.2162109375 253 96.5 254.5 96.65 257.35 96.65 258.15 96.65 258.5 96.55 258.75 96.5 259.55 96.05 261.2 95.2 263.45 94.95 263.55 94.95 263.65 94.95
L 263.65 83.05 262.9 82.55
Q 263.1 83 263.35 83.5
L 261.55 81.55 Z"/>

<path fill="#FFFFFF" stroke="none" d="
M 127.8 80.8
L 128.25 80.85
Q 127.85 80.75 127.45 80.65 127.6 80.75 127.8 80.8
M 126.25 80.35
Q 126.1 80.3 125.9 80.25
L 126.2 80.85
Q 126.2 80.65 126.25 80.5 126.25 80.4 126.25 80.35 Z"/>

<path fill="#47B5C3" stroke="none" d="
M 159 81.6
Q 158.55 81.35 158.15 81.15 158 81.15 157.8 81.15
L 150.5 80.85
Q 147.1162109375 80.716796875 144.6 80.55 145.57734375 81.34765625 146.9 82.3 147.3794921875 82.6509765625 147.85 83 150.11171875 83.303125 152.4 83.55 156.9 83.9 161.4 84.35 162 84.35 162.65 84.4 161.2 82.8 159 81.6
M 191.1 93.8
Q 185.2 97.1 183.5 97.1 175.85 97.1 153.55 91.7 131.3 86.25 130.95 86.25 129.6275390625 86.25 129.15 86.8
L 138.25 109.4
Q 140.3 110.7 144.15 111.7 146.1 112.2 147.9 112.65 161.45 116.1 175.4 115.55 176.7072265625 115.4390625 178 115.3 180.9890625 114.0099609375 184.35 111.95 185.1208984375 111.47421875 185.9 110.95 179.0044921875 112.7404296875 171.3 113.2 166.8 113.6 162.3 113 175.6599609375 112.4341796875 188.6 109.2 189.8697265625 108.3697265625 191.2 107.45 189.9689453125 107.6630859375 188.75 107.8
L 191.7 107.05
Q 192.4548828125 106.5779296875 193.2 106.05 196.5 104.35 200.15 100.45 203.45 96.85 203.45 95.65 203.45 95.25 201.2 93 198.6 90.45 196.75 90.45 194.05 92.1 191.1 93.8 Z"/>

<path fill="#95D7D6" stroke="none" d="
M 118.9 72.2
Q 118.4 73.05 118.65 74 119.3 76.15 121.3 76.95 126.1 78.9 131.25 80 136.9 81.2 142.45 82.15 145.123828125 82.6185546875 147.85 83 147.3794921875 82.6509765625 146.9 82.3 145.57734375 81.34765625 144.6 80.55 142.444921875 80.440234375 140.95 80.3 135.75 79.7 131.7 78.5 128.95 77.65 126.5 76.45 123.95 75.15 123.05 73.8 123.1 73.5 123.4 73.6 123.7 73.6 123.95 73.8 124.05 73.9 124.2 73.95 124.1 73.65 124 73.25 123.45 70.7 123.4 68.1 120.35 69.3 118.9 72.2
M 181.75 79.25
Q 181.05 79.1 180.55 79.05
L 182.4 80.65
Q 183.5 81.65 183.85 82.15 184.1 82.5 184.3 83.1 189.55 82.3 194.85 81.3 196.3 81 197.7 80.7 197.15 79.85 196.65 78.95 195.55 77.4 195.1 76.1 195 76.15 194.9 76.15
L 194.85 76.15 184.55 78.65
Q 184 79.05 183.55 79.15 182.85 79.4 181.75 79.25 Z"/>

<path fill="#328B92" stroke="none" d="
M 170.1 90.05
Q 169.9 89.9 169.7 89.8 163.74921875 89.382421875 157.2 88.35 154.3640625 87.947265625 151.4 87.4 138.45 85.05 129.95 81.6 129.8 81.9 129.25 82.25 128.5 82.65 128.1 83.35
L 127.8 83.9 129 86.35 129.15 86.8
Q 129.6275390625 86.25 130.95 86.25 131.3 86.25 153.55 91.7 175.85 97.1 183.5 97.1 185.2 97.1 191.1 93.8 194.05 92.1 196.75 90.45 198.6 90.45 201.2 93 203.45 95.25 203.45 95.65 203.45 96.85 200.15 100.45 196.5 104.35 193.2 106.05 192.4548828125 106.5779296875 191.7 107.05
L 199.1 105.3
Q 198.4 105.6 197.65 105.9 194.4189453125 106.9166015625 191.2 107.45 189.8697265625 108.3697265625 188.6 109.2 190.5314453125 108.7380859375 192.45 108.2 194.75 107.6 197.1 107 191.7947265625 109.457421875 185.9 110.95 185.1208984375 111.47421875 184.35 111.95 180.9890625 114.0099609375 178 115.3 184.89375 114.4935546875 191.5 112.6 196.65 111.35 201.05 108.35 201.9 107.7 202.55 107.05
L 202.7 105.8
Q 203.2 103.9 203.75 102.15 205.5 97.1 206.85 91.9
L 207.35 92.2
Q 206.15 91.1 205.05 89.95 202.2 87.2 199.85 84 194.5 86.95 191.3 88.05 188.7 89 185.6 89.5 185.55 89.7 185.5 89.85 185.4681640625 89.9138671875 185.4 89.95 185.4181640625 90.0138671875 185.4 90.05 185.2 90.35 184.75 90.35 183.05 90.55 182.4 89.9 180.15 90.05 177.75 90.05 177.3 90.05 176.9 90.05 176.75 90.1 176.65 90.15 176.3 90.3 175.75 90.3 175.05 90.25 174.75 90.25 174.2 90.1 174.05 90
L 174 89.95
Q 173.95 89.95 173.9 90 173.75 90.15 173.55 90.25 173.25 90.45 172.45 90.45 170.9 90.55 170.1 90.05 Z"/>

<path fill="#FEACA0" stroke="none" d="
M 165.6 62.3
L 165.45 61.7
Q 164.1 61.3 162 62.15 161 62.7 160.4 62.95 159.5 63.45 158.85 63.65 157.85 64 156.35 64.05
L 161.45 66
Q 161.5 66 161.5 66.05 161.6 65.9 161.75 65.75
L 165.6 62.3 Z"/>

<path fill="#F8EAE9" stroke="none" d="
M 168.25 52.55
Q 168.1 52.55 168 52.45 167.9 52.35 167.95 52.25
L 168.8 52.3 168.95 52.3
Q 168.640625 51.9748046875 168.35 51.55 167.9388671875 50.9658203125 167.7 50.4
L 167.15 50.2 166.6 50.15 165.15 50.2
Q 164.45 50.2 164.15 50.25 163.6 50.35 163.3 50.4
L 161.2 51
Q 159.95 51.35 159.5 51.55
L 158.45 52.1
Q 158.45 52.15 158.4 52.15 157.3 53.2 156.35 52.9
L 156.5 52.8
Q 155.6470703125 53.181640625 154.95 53.45 157.986328125 53.36171875 161.9 53.3 170.2 53.3 171.2 53.85
L 171.9 53.85
Q 170.45078125 53.5923828125 169.4 52.7
L 168.25 52.55
M 163.4 46.5
L 163.45 47.35
Q 163.1 47.4 162.85 47.2
L 161.3 49.1
Q 160.7 49.8 160.15 50.4 160.5 50.25 161 50.15 161.55 50 162.65 49.7 163.55 49.45 163.7 49.4 164 49.35 164.55 49.35
L 166.5 49.35
Q 167.109765625 49.35 167.4 49.4 167.4 49.241796875 167.4 49.1 167.4 47.7 169.65 47.7 172.25 47.7 175.4 50.35 176.31328125 51.0984375 177.4 51.7
L 182.25 47.4
Q 181.85 47.4 181.7 47.25
L 181.4 47.05
Q 181.35 47 180.85 47 180.7 47.05 179.4 47.6 179.25 47.65 179.1 47.7 179.4 48.2 179.5 48.7 179.55 48.95 179.35 49.2 179.2 49.4 179 49.35 178.8 49.3 178.7 49 178.15 47.8 176.9 46.75 176.15 46.1 174.45 45.1 173.1 44.25 172.4 43.95 171.2 43.55 169.2 43.35 167.85 43.15 167 43.35 165.45 43.7 163.5 46.3
L 163.4 46.5 Z"/>

<path fill="#FCD0C7" stroke="none" d="
M 167.4 49.1
Q 167.4 49.241796875 167.4 49.4 167.461328125 49.3935546875 167.5 49.4 167.95 49.5 168.7 49.9 170.45 50.8 174.2 51.8
L 174.45 52
Q 174.65 52.2 174.5 52.3
L 172.55 51.95
Q 171.75 51.9 170.95 51.65 170 51.4 169.2 51.05
L 167.7 50.4
Q 167.9388671875 50.9658203125 168.35 51.55 168.640625 51.9748046875 168.95 52.3
L 175 53.15
Q 175.1 53.3 174.9 53.4
L 174.6 53.45 169.4 52.7
Q 170.45078125 53.5923828125 171.9 53.85
L 171.2 53.85
Q 170.2 53.3 161.9 53.3 157.986328125 53.36171875 154.95 53.45 154.128515625 53.7623046875 153.55 53.9
L 151.95 54.2
Q 148.35 55 145.4 56.3 143.95 57 143.35 57.8 143.4 57.85 143.45 57.9 143.5 57.85 143.55 57.85
L 146.7 57.55
Q 148.25 57.35 149.8 57.25 151.6 57.15 155.2 57.25
L 160.3 57.35
Q 163.45 57.45 165 57.75 165.95 57.9 167.2 58.3 166.35 58.7 164.2 58.7
L 150 58.35
Q 148.35 58.5 147.5 58.5 146.65 58.5 144 58.25 145.2 59.1 145.65 59.35 147.3 60.4 149.4 61.35 150.3 61.75 152.05 62.4
L 154.2 63.25
Q 156.05 63.25 157.05 63.15 158.9 62.9 160.2 62.25 160.85 62 162 61.35 163.5 60.75 164.9 60.95 165.55 61.1 165.8 61.35 166.05 61.6 166.1 61.85
L 177.4 51.7
Q 176.31328125 51.0984375 175.4 50.35 172.25 47.7 169.65 47.7 167.4 47.7 167.4 49.1
M 167.05 57.05
Q 166.75 57.15 166.25 57.15 163.6 56.9 160.5 56.1
L 160.45 55.85 160.8 55.7
Q 163.25 56.35 165.5 56.55 166.6 56.65 167.05 57.05 Z"/>
</g>

<path id="Layer0_0_MEMBER_2_1_STROKES" stroke="#E1C99B" stroke-width="2" stroke-linejoin="round" stroke-linecap="round" fill="none" d="
M 1.840260314941407 115.36293563842773
L 149.56583633422852 115.36293563842773 149.56583633422852 154.7457061767578 1.840260314941407 154.7457061767578 1.840260314941407 115.36293563842773 Z"/>
</defs>

<g transform="matrix( 1, 0, 0, 1, -16.1,-7.8) ">
<use xlink:href="#Layer0_0_MEMBER_0_FILL"/>
</g>

<g transform="matrix( 1, 0, 0, 1, -114.25,-7.8) ">
<use xlink:href="#Layer0_0_MEMBER_1_FILL"/>
</g>

<g transform="matrix( 1.0716400146484375, 0, 0, 1.0716400146484375, -21.2,-4.5) ">
<use xlink:href="#Layer0_0_MEMBER_2_1_STROKES" transform="matrix( 0.933135986328125, 0, 0, 0.933135986328125, 19.75,4.15) "/>
</g>
</svg>
