
<svg xmlns="http://www.w3.org/2000/svg" version="1.1" xmlns:xlink="http://www.w3.org/1999/xlink" preserveAspectRatio="none" x="0px" y="0px" width="150px" height="155px" viewBox="0 0 150 155">
<defs>
<g id="Layer0_0_FILL">
<path fill="#B8BE79" stroke="none" d="
M 21.5 19.95
L 21.5 157.8 159.35 157.8 159.35 19.95 21.5 19.95 Z"/>
</g>

<g id="Layer0_1_FILL">
<path fill="#E1C99B" stroke="none" d="
M 21.5 111.85
L 21.5 148.6 159.35 148.6 159.35 111.85 21.5 111.85 Z"/>
</g>

<g id="Layer0_2_FILL">
<path fill="#3B3D35" stroke="none" d="
M 175.05 181
Q 168.65 182.5 164.3 187.8 161.55 191.2 161.05 195.7 160.85390625 197.4205078125 161.05 199.05 161.3 200.15 161.6 201.2 161.6564453125 201.4203125 161.7 201.6 161.7568359375 201.7943359375 161.8 201.95 161.7072265625 202.0123046875 161.6 202.1 161.3 202.4 161.1 203.05 160.955078125 203.4849609375 160.85 204.2 159.7828125 208.22734375 161.7 211.45
L 164.4 214.9 166.9 223.15 164.3 224.55
Q 163.174609375 225.225390625 162.05 226 149.05 235 148.65 250.1 148.25 265.95 161.45 274.55 162.105859375 274.9552734375 162.8 275.35 164.05 276 165.3 276.7 165.5 276.8 165.7 276.9 165.85 276.9 166.05 276.95 166.2 276.95 166.35 276.95 166.45 276.95 166.55 276.9 168.65 279.05 171.35 280.1 171.8 280.3 172.3 280.45 174.45 280.6 176.6 280.25 178.6 280.2 180.2 279.05 183.15 279.6 186.1 279.1 191.85 278.1 196.65 274.8 196.901953125 274.658984375 197.15 274.5 203.82734375 270.219140625 208.05 260.75 209.61796875 257.2171875 210.85 252.95
L 214.45 251.8
Q 216.15 251.35 216.95 250.65 217.6537109375 250.0275390625 217.85 249.35 218.2 249.4166015625 218.4 249.05 218.5 248.9 218.4 248.3
L 217.9 246.3
Q 217.5611328125 244.8427734375 217.05 244 217.4275390625 243.9880859375 217.8 243.95 219.15 244.1 220.55 244 228.146875 242.644921875 232.1 238.75 237.331640625 233.680859375 236.25 224.2 236.83671875 222.7484375 237.15 221.1 237.9 217.3 237.4 213.45 236.969921875 210.6548828125 234.9 208.8 234.7390625 207.9673828125 234.45 207.1 232.5 201.4 227.2 198.2 219.45 193.5 210.65 195.75 205.7091796875 196.9080078125 202 200.3 201.9650390625 199.9439453125 201.9 199.5
L 201.55 197.9
Q 200.9318359375 195.3453125 199.15 193.4 199.0259765625 192.8779296875 198.85 192.35 198.040234375 189.9830078125 196.65 188.05 194.6990234375 185.32109375 191.6 183.45 183.85 178.75 175.05 181
M 162.35 197.95
Q 162.35 197.587109375 162.35 197.2 162.35 190.7 167.5 186.1 172.7 181.5 180.05 181.5 187.4 181.5 192.55 186.1 195.1146484375 188.357421875 196.4 191.05
L 196.35 194
Q 196.35 195.15 196.15 195.7 196 196.15 195.5 196.95 194.1208984375 199.110546875 193.1 201.35 193.034765625 201.55234375 192.95 201.75 193.65 201.5 194.5 200.25
L 195.95 198.05
Q 196.8 196.65 197 195.95 197.25 195.1 197.15 193.75
L 197.1 192.85
Q 197.75 194.92578125 197.75 197.2 197.75 199.5212890625 197.1 201.6 195.901953125 205.3427734375 192.55 208.3 187.4 212.9 180.05 212.9 176.8939453125 212.9 174.15 212.05 173.4 211.7 172.65 211.4 168.7375 209.7544921875 166 206.65 165.2439453125 205.7982421875 164.55 204.8 164.3556640625 204.523046875 164.15 204.2 164.0998046875 204.12890625 164.05 204.05 164.181640625 204.144921875 164.3 204.25
L 167.15 205.95 168.5 206.8
Q 177.4310546875 211.077734375 186.35 206.05 186.7521484375 205.8044921875 187.15 205.5 188.1 204.8 187.7 204.2 187.1931640625 204.676953125 186.35 205.1 184.15 206.4 181.9 206.9 175.4462890625 208.6771484375 169.85 206.6 166.46796875 205.35390625 163.4 202.7
L 162.35 197.95
M 199.55 196.35
Q 199.89921875 197.089453125 200.1 197.8
L 200.5 199.35
Q 200.7380859375 200.30234375 201.1 201.2 200.4802734375 201.84296875 199.9 202.55 199.8384765625 202.6259765625 199.75 202.7 197.4263671875 205.6853515625 196.75 209.5 196.7033203125 209.9703125 196.65 210.45 196.45 212.15 196.65 213.85 196.72421875 214.1619140625 196.8 214.45 196.616796875 214.5943359375 196.35 214.95 195.3 216.3 193.65 217.1 193.45 217.2 191.6 217.95 191.3494140625 218.054296875 191.1 218.15 190.25390625 218.56484375 189.7 219 190.283984375 219.2919921875 191.15 219.1 191.670703125 218.995703125 192.25 218.75
L 193.75 218.1
Q 195.715234375 217.096484375 197 215.3 197.047265625 215.3884765625 197.05 215.45
L 197.05 215.5
Q 197.05 215.6 197.05 215.75 197 215.85 197 215.95 197 216.05 197 216.15 197 216.25 197 216.4 197 216.5 197 216.6 197 216.7 197 216.8 197 216.9 197 217.05 197 217.15 197 217.25 197 217.35 197 217.45 197 217.55 197 217.7 196.95 217.8 196.9 217.9 196.9 218 196.9 218.1 196.9 218.25 196.9 218.35 196.9 218.45 196.9 218.55 196.9 218.65 196.9 218.75 196.9 218.9 196.9 219 196.9 219.1 196.9 219.2 196.9 219.3 196.9 219.4 196.9 219.55 196.9 219.65 196.9 219.75 196.9 219.85 196.9 219.95 196.9 220.05 196.9 220.2 196.9 220.3 196.9 220.4 196.9 220.5 196.9 220.6 196.9 220.7 196.9 220.85 196.9 220.95 196.9 221.05 196.9 221.15 196.9 221.25 196.9 221.4 196.9 221.5 196.9 221.6 196.9 221.7 196.9 221.8 196.9 221.9 196.9 222.05 196.9 222.15 196.9 222.25 196.9 222.35 196.9 222.45 196.9 222.55 196.9 222.7 196.9 222.8 196.9 222.9 196.9 223 196.9 223.1 196.9 223.2 196.9 223.35 196.9 223.45 196.9 223.55 196.9 223.62265625 196.9 223.7 196.240234375 223.237109375 195.8 222.95 193.6 221.55 191.7 220.85 191.493359375 220.775390625 191.25 220.7 188.43984375 219.7681640625 184.55 219.65
L 181.45 219.65 181.65 218.95
Q 179.9 218.8 178.2 218.75 172.4900390625 218.5966796875 168.8 216.4
L 168.45 216.1 165.2 213.2
Q 162.592578125 209.740625 162.1 204.05 162.195703125 203.659765625 162.25 203.25 162.423046875 203.6587890625 162.6 204 163.3 205.3 164.1 206.55 164.6767578125 207.4599609375 165.3 208.25 169.7021484375 213.7236328125 177.2 214.2 187.19609375 215.3171875 194.8 208.1 195.7 206.75 196.45 205.4 197.05 204.3 197.65 203.25 198.1380859375 202.4310546875 198.5 201.6 199.6234375 199.044921875 199.55 196.35
M 157.55 239.2
Q 156 240.25 155.6 242.05 155.137109375 244.019921875 154.9 245.9 153.2818359375 259.63125 164.5 268.35 164.6775390625 268.6775390625 164.85 268.85 165.2302734375 269.1162109375 165.85 269.3 178.190234375 277.3650390625 192.25 268.45 192.9177734375 267.873046875 193.65 267.1 196.9 263.8 198.65 261.7 200.18515625 259.8400390625 201.3 258.05 202.1357421875 256.808203125 202.75 255.6 202.7814453125 255.537109375 202.8 255.45
L 204.65 254.9 209.2 253.45
Q 208.42890625 256.366015625 207.25 259.05 205.9611328125 261.9822265625 204.2 264.65 201.15 269.215625 197.2 272.2 190.45 277.4 181.8 277.9 183.5888671875 276.9666015625 184.65 275.4 184.9556640625 274.95 185.2 274.45 183.8125 275.2650390625 182.4 275.95 179.7083984375 277.3203125 176.9 278.3 172.45 280 168.6 277 167.95 276.45 167.3 276 165.6 275 163.75 274.15 163.0751953125 273.8408203125 162.4 273.45 152.15 267.35 150.25 255.45 147.75 240 159.95 229.2 162.3515625 227.097265625 164.95 225.5
L 167.75 224
Q 169.0287109375 223.41328125 170.35 222.9 170.9564453125 222.6994140625 171.55 222.5
L 171.9 222.4
Q 172.251171875 222.2916015625 172.6 222.2 173.85 221.9 175.15 221.6 179.1 221.25 183.05 220.95 184.287109375 221.0029296875 185.55 221.1 187.891015625 221.321875 189.85 221.9 190.608203125 222.12890625 191.4 222.45 193.3439453125 223.229296875 195.45 224.55 196.2330078125 225.0501953125 197.3 225.8 198.685546875 226.7875 200.55 228.2 202.5 229.7 203.55 230.85 204.75 232.25 206.2 235.1 208.65 239.95 208.5 243 208.48125 243.421484375 208.5 243.75 206.406640625 244.378515625 204.4 244.95 204.303515625 239.4021484375 201.2 234.65
L 199.45 232.3
Q 197.75 230.3 196.7 229.55 195.1 228.35 191.85 227.3 191.7529296875 227.2708984375 191.65 227.25 190.030859375 226.75703125 188.85 226.45 184.6 225.65 180.45 225.75 175.9087890625 225.38125 172.3 226.65 171.9955078125 226.7578125 171.7 226.85 170.5224609375 227.3482421875 169.45 228 167.0380859375 229.4595703125 165.15 231.85 165.85 231.2 166.65 230.65 169.2482421875 228.9908203125 172 227.95 179.9462890625 225.0681640625 189.15 227.55 190.8392578125 227.955078125 192.5 228.5 194.8 229.3 195.8 230 196.75 230.65 198.55 232.8 201.6 236.55 202.5 239.2 202.75 240.15 203.2 242.4
L 203.6 245.15
Q 202.3927734375 245.534375 201.2 245.85 200.966796875 245.301171875 200.3 244.35 200.2291015625 244.25859375 200.15 244.15 198.45 241.9 197.55 241.2 196.2 240.15 195.9 239.8 195.6 239.4 195.25 238.4 194.95 237.45 194.6 237.05 193.6 235.95 190.85 236.15 187.8 236.35 186.15 236.4 184.6 236.5 183.85 236.35 182.75 235.9 182.15 235.8 181.4 235.65 180.8 235.7 178.9 235.8 177.35 236.85 176.95 237.1 176.1 237.65 175.3 238.1 174.35 238.25 173.8357421875 238.378515625 173.2 238.4 171.15078125 237.9294921875 169.2 239.1 167.3 240.2 166.75 242.4
L 166.45 243.6
Q 166.2 244.25 165.4 245.25
L 163.5 247.6
Q 162.05 249.35 161.7 250.5 161.5 251.2 161.5 252.75 161.52109375 253.2751953125 161.55 254 161.6759765625 255.00859375 161.85 256.4
L 162.6 261.9
Q 162.6310546875 262.0546875 162.65 262.25
L 162.75 262.7
Q 162.9462890625 263.3724609375 163.2 264.4 163.429296875 265.179296875 163.7 266.15 163.6509765625 266.097265625 163.6 266.05 155.9939453125 258.70625 155.75 249.45 155.6390625 244.58828125 157.55 239.2
M 232.75 207.75
L 232.75 207.65
Q 232.764453125 207.69921875 232.75 207.75
L 232.75 207.75
M 228.2 200.85
Q 230.7 203.1 232.05 205.85
L 231.95 208.75
Q 231.95 208.9208984375 231.95 209.05 231.9203125 209.981640625 231.75 210.45 231.6 210.9 231.1 211.7 229.6 214.05 228.55 216.5 229.25 216.25 230.1 215
L 231.55 212.8
Q 232.4 211.4 232.6 210.7 232.85 209.85 232.75 208.5
L 232.75 208.15
Q 232.84140625 208.255078125 232.9 208.3 233.35 210.073046875 233.35 211.95 233.35 214.5896484375 232.5 216.9 231.25859375 220.31796875 228.2 223.05 223 227.65 215.65 227.65 210.65 227.65 206.65 225.5 202.3 223 199.65 218.8 200.9 219.7 202.25 220.55 212.1 226.35 221.95 220.85 222.35 220.55 222.75 220.25 223.475390625 219.7154296875 223.4 219.25 223.39453125 219.091796875 223.3 218.95 222.8 219.45 221.95 219.9 219.75 221.15 217.5 221.65 207.15 224.5 199 217.45
L 198 212.75
Q 197.95 212.35 197.95 211.95 197.95 206.485546875 201.6 202.35
L 201.65 202.4
Q 201.7017578125 202.3201171875 201.75 202.2 202.3927734375 201.519921875 203.15 200.85 208.3 196.25 215.65 196.25 223 196.25 228.2 200.85
M 235.85 213.45
Q 235.9 213.7 235.9 214 236.1 216.5 236.25 219 236.35 220.9 235.65 222.65 234.3916015625 225.817578125 232.05 228.15 231.6833984375 228.512890625 231.3 228.85 227.01328125 232.5521484375 221.4 233.65 222.1716796875 234.0306640625 222.5 234.15 223 234.372265625 223.25 234.5 225.2798828125 233.9970703125 227.25 233.15 229.35 232.35 231.1 230.95 231.416796875 230.704296875 231.7 230.45 233.831640625 228.6583984375 235.15 226.4 234.9373046875 228.817578125 234.7 231.25 234.5 233.35 233.1 234.9 232.5357421875 235.5076171875 231.95 236.05 224.5607421875 243.291015625 215.45 242.7 214.7712890625 242.45 213.85 242.45 213.6681640625 242.4578125 213.45 242.45 211.5953125 242.18671875 209.65 241.55 209.6546875 240.93203125 209.6 240.4 209.4 238.25 208.05 235.35 206.65 232.4 205.4 230.85 203.7 228.7 199.6 225.65 198.5271484375 224.860546875 197.7 224.25
L 197.7 224.25
Q 197.7 224.15 197.7 224.05 197.7 223.95 197.7 223.85 197.7 223.75 197.7 223.6 197.7 223.5 197.7 223.4 197.7 223.3 197.7 223.2 197.7 223.1 197.7 222.95 197.7 222.85 197.7 222.75 197.7 222.65 197.7 222.55 197.7 222.45 197.7 222.3 197.7 222.2 197.7 222.1 197.7 222 197.7 221.9 197.7 221.75 197.7 221.65 197.7 221.55 197.7 221.45 197.7 221.35 197.7 221.25 197.7 221.1 197.7 221 197.7 220.9 197.7 220.8 197.7 220.7 197.7 220.6 197.7 220.45 197.7 220.35 197.7 220.25 197.7 220.15 197.7 220.05 197.7 219.95 197.7 219.8 197.7 219.7 197.7 219.6 197.7 219.5 197.7 219.4 197.7 219.3 197.7 219.15 197.7 219.05 197.7 218.95 197.7 218.85 197.7 218.75 197.7 218.6 197.7 218.5 197.7 218.4 197.7 218.3 197.7 218.2 197.7 218.1 197.7 217.95 197.65 217.85 197.65 217.75 197.65 217.65 197.65 217.55 197.65 217.50234375 197.65 217.45 198.8396484375 220.8515625 201.35 223.65 204.6 227.3 209.45 228.4 221.55 231.25 230.4 222.85 231.3 221.5 232.05 220.15 232.6177734375 219.1091796875 233.15 218.1 233.2177734375 218.0564453125 233.25 218 235.16484375 214.7880859375 235.15 211.35 235.618359375 212.3576171875 235.85 213.45
M 211.4 242.9
Q 211.2146484375 242.98046875 211 243.05 210.268359375 243.2603515625 209.55 243.45 209.635546875 242.603125 209.65 241.85 209.7724609375 241.9572265625 209.9 242.05 210.640625 242.547265625 211.4 242.9
M 214.05 244
Q 215.3 244 215.9 244.85 216.2 245.25 216.4 246.55 216.4904296875 247.03203125 216.6 247.55 216.730859375 247.9224609375 216.85 248.3 216.9791015625 248.5419921875 217.05 248.7 216.55 249.1 209.6 251.55 207.0615234375 252.447265625 204.95 253.15 202.2244140625 254.0923828125 200.2 254.7 196.4416015625 255.9681640625 192.9 257.2 188.55 258.7 186.2 260.05 184.2 261.2 181.5 263.45 180.8640625 263.91640625 180.95 264.35
L 180.5 264.55
Q 179.55 264.95 179.2 265.05 178.25 265.3 176.75 265.1 176.15 265 176 264.9 175.85 264.8 175.35 263.95 174.9 263.2 174.1 262.8 173.05 262.3 173 262.2 172.9 262.05 172.65 261.35
L 172.1 258.65 172 257.7
Q 172.55 256.25 172.4 255.55 172.15 254.75 172.15 254.65 172.2 254.4 172.5 254 173.0103515625 253.5361328125 174 252.9 174.0705078125 252.8505859375 174.15 252.8
L 175.95 251.75
Q 176.15 251.65 176.6 251.65 177.5 251.65 178.4 251.95
L 179.4 252.25
Q 179.6345703125 252.328125 179.95 252.4 179.5984375 252.5076171875 179.55 252.75 179.35 253.2 179.9 253.3 180.2 253.45 180.65 253.25 181.4861328125 253.0439453125 182.4 252.8 182.4681640625 252.8 182.5 252.8 183.1 252.8 183.4 252.55 187.65 251.45 212 244.4 213.3 244 214.05 244
M 168.4 217.85
L 169.75 218.7
Q 173.39453125 220.2732421875 177.85 219.9
L 170.05 221.8
Q 170.009765625 221.812109375 169.95 221.8
L 169.95 221.8
Q 169.5037109375 221.99453125 169.05 222.15
L 167.75 222.75 165.5 216 168.4 217.85
M 167.5 243
Q 167.9 241.35 169.3 240.2 170.7 239 172.4 238.85
L 172.4 238.85 172.4 238.9
Q 174.291796875 239.1556640625 176.1 238.45 176.3 238.4 178.2 237.4 179.5 236.7 180.4 236.6 181.1 236.45 181.75 236.6
L 183.45 237.15
Q 184.55 237.45 186.35 237.35
L 191.65 237.1
Q 192.7 237.1 193.15 237.3 193.9 237.65 194.35 238.95 194.95 240.5 195.3 240.9 195.8 241.45 197.05 242.15 197.4 242.45 198.2 243.45
L 199.45 245.3 199.75 245.75
Q 199.9314453125 245.9919921875 200.05 246.2 191.30078125 248.7888671875 184.4 250.9 183.038671875 251.3083984375 182 251.65 181.3265625 251.600390625 180.45 251.35 178.3 250.7 178.2 250.7 177.55 250.5 176.6 250.5
L 175.55 250.65
Q 175.15 250.75 174.6 251.15 173.9 251.6 173.6 251.7 172.75 252 172.65 252.05 172.4 252.25 172 252.8 171.953515625 252.846484375 171.9 252.9 171.64765625 253.1337890625 171.2 253.5 170.9 253.95 171 254.8 171.1 256.3 171 257.8 171 258.9 171.05 259.1
L 171.3 260.5 171.35 261.65
Q 171.45 262.4 171.9 262.85 172.25 263.25 173.25 263.8 174.15 264.35 174.4 265
L 174.7 265.85
Q 174.85 266.05 175.4 266.15 178 266.8 179.9 266.25 180.2216796875 266.16640625 180.5 266.05 180.719921875 266.15 181.15 266.15
L 183.45 266.2
Q 186.25 266.2 187.35 265.7 188.6 265.2 188.45 264.3 188.3 263.7 186.85 263.25 186 263 185.3 262.55 185.107421875 262.43671875 184.95 262.35 187.692578125 260.594921875 192.15 259 194.423828125 258.147265625 198.75 256.75
L 201.65 255.85
Q 201.1841796875 256.5048828125 200.1 258.05 199.604296875 258.796484375 198.95 259.75 197.35 262.05 193.9 265.45 192.050390625 267.365625 190.65 268.45 180.95 274.5 170.4 270.15 169.7083984375 269.858984375 169.05 269.55 168.3435546875 268.9205078125 167.35 268.6 167.2123046875 268.573828125 167.05 268.55 166.1822265625 268.043359375 165.35 267.5 165.0669921875 267.0091796875 164.85 266.25
L 163.6 261.45
Q 163.45 260.8 162.95 257.55
L 162.65 254.9
Q 162.25 251.95 162.8 250.55 162.8248046875 250.4865234375 162.85 250.4 163.234765625 249.544140625 164.35 248.15
L 166.45 245.55
Q 166.95 244.95 167.1 244.6 167.25 244.25 167.5 243
M 186.35 244.6
Q 185.95 244.9 186.2 245.25 187.3 245.1 189.15 243.75 190.5 243.1 191.95 243.35 191.85 243.55 192 243.85 192.1 244.05 192.35 244.15 192.4828125 244.187890625 192.65 244.15 192.9658203125 244.1361328125 193.4 243.95 194.5 243.45 195.2 242.75 195.4 242.6 195.5 242.35 195.5 242.05 195.3 242 194.4265625 243.0322265625 193.15 243.4 192.8103515625 243.4984375 192.45 243.55 192.516015625 243.21953125 192.4 242.95 192.384765625 242.8517578125 192.3 242.75 191.472265625 242.6318359375 190.8 242.65 189.76640625 242.666796875 189.1 243 188.75 243.15 188.05 243.65 187.45 244.15 187 244.3 186.8 244.4 186.35 244.6
M 170.55 268.05
Q 171.5 267.95 172 267.75
L 172.7 267.35
Q 172.9 267.3 173.05 267.05 173.15 266.8 173 266.65 172.9 266.55 172.6 266.55 172.4 266.65 171.75 267 171.7 267.05 170.75 267.3
L 169.35 267.65 169.05 267.75
Q 168.95 267.9 169.05 268.3 169.5 268.15 170.55 268.05
M 176.4 249.55
Q 176.65 249.4 176.6 249.3 176 249.25 175.25 248.95 174.4 248.6 173.95 248.4 172.15 247.7 171.25 248.55
L 170.85 248.85
Q 170.55 249 170.1 248.65 169.7 248.2 169.45 248.1 169.1 247.9 168.25 248 168.15 248.35 168.25 248.65
L 169.2 248.65
Q 169.7 249.5 170.5 249.7 170.95 249.8 171.35 249.55 171.75 249.35 171.9 248.95 172.65 248.75 174.15 249.35 175.7 249.85 176.4 249.55
M 178.3 248.75
L 177.9 248.45 177.8 248.35 177.45 248.3 177.5 248.65 178.2 249
Q 178.5 249.2 178.7 249.15 178.6 249 178.55 248.9
L 178.3 248.75
M 186.35 243.75
L 185.9 243.95 185.5 244.25
Q 185.35 244.4 184.5 244.75 183.85 245.05 183.6 245.4
L 183.7 245.6
Q 185.4 245.1 185.95 244.55 186.5 244.05 186.6 243.95
L 186.35 243.75
M 184.75 256.65
Q 184.1 256.45 183.3 256.9
L 182 257.6
Q 181.75 257.7 181 257.95 180.35 258.15 180 258.35 179.75 258.6 179.8 258.75 179.95 258.85 180.2 258.75 180.35 258.7 180.6 258.55 181.3 258.35 181.7 258.2 182.15 258.1 183.2 257.55 184.1 257.05 184.65 257
L 184.75 256.65
M 182.9 259.1
Q 183.75 258.75 185.35 257.85
L 185.2 257.65
Q 184.6 257.75 183.55 258.3 182.45 258.85 181.95 259
L 181.45 259.2
Q 181.2 259.35 181.2 259.6 181.9 259.65 182.9 259.1
M 211.85 245
Q 211.774609375 246.0189453125 211.95 246.55 212.0142578125 246.765234375 212.1 246.9
L 212.6 247.45 213.35 248.1 215.15 249.1 215.25 248.8
Q 215.05 248.5 214.55 248.2
L 213.75 247.75 213.15 247.2
Q 212.9076171875 246.9576171875 212.7 246.75 212.4154296875 246.326953125 212.35 246 212.45 245.2 212.2 244.9 211.95 244.9 211.85 245
M 206.95 230.9
L 206.45 231.8
Q 208.80390625 233.4048828125 211.4 234.25 211.0830078125 233.534375 211 232.8 208.9267578125 232.101171875 206.95 230.9
M 220.7 235
Q 220.4501953125 234.816796875 220.15 234.65 219.2833984375 234.2166015625 218.75 233.9 216.63046875 234.0359375 214.6 233.7 214.991015625 234.16875 215.6 234.75 215.840234375 234.9787109375 216.05 235.2 216.0982421875 235.19609375 216.15 235.2 218.4599609375 235.300390625 220.7 235
M 223.5 217.55
Q 224.1 218.15 224.55 218.2 224.45 219.05 224.6 219.7 224.7759765625 220.4916015625 225.3 220.85 225.3716796875 220.9078125 225.45 220.95
L 225.6 220.85 225.3 220.2 225.2 220 225.1 219.6
Q 225.05 219.45 225.1 218.7 225.15 218.15 224.95 217.85 224.8 217.55 224.35 217.35
L 222.2 216.05
Q 221.8 215.85 221.65 216.05 221.55 216.25 221.95 216.5 222.7 216.9 223.5 217.55
M 224.9 216.5
L 224.15 216.2
Q 224.05 216 223.95 216 223.75 216 223.75 216.15
L 223.75 216.45 224.6 216.85 225.05 217.15 225.25 217.4 225.75 217.6
Q 225.75 217.9419921875 225.85 218.2 225.88671875 218.3734375 225.95 218.5
L 226.15 218.5
Q 226.1544921875 218.4662109375 226.15 218.4 226.2431640625 217.7341796875 226.1 217.4
L 225.65 216.95 224.9 216.5
M 217.15 204.35
Q 212.3 205 203.15 207.5 202.15 207.7 201.75 208.15 208.75 206.65 217.15 204.35
M 218 207.3
Q 218.85 207.1 219.05 206.7
L 212.25 208.75 212.35 208.95 218 207.3
M 215.85 205.6
Q 216.95 205.3 217.35 204.95
L 206.35 207.6
Q 205.9 207.7 205.95 208
L 215.85 205.6
M 173.65 277.3
Q 176.5 277.55 178.25 276.1 177.7 276.05 176.9 276.2 175.75 276.45 175.55 276.45 174.4 276.55 172.6 276.2 171 275.9 170.4 275.55 169.6 275.05 169.2 274.85 168.5 274.45 167.95 274.6 167.75 274.9 168.2 275.25 170.6 277.05 173.65 277.3
M 160.35 236.1
Q 160.3 236.35 160.3 236.6 160.25 237.35 160.8 237 161.45 235.7 162.1 234.4
L 160.35 236.1
M 190.9 202.55
L 190.7 202.6 190.6 202.7 190.45 202.9 190.4 203.1 190.45 203.5
Q 190.75 203.45 190.8 203.35
L 191.05 203 191.1 202.85 191.1 202.75 190.9 202.55
M 182.6 197.9
L 183 197.95
Q 183.8 197.65 185.45 197.05 186.95 196.5 187.85 195.95
L 187.85 195.7 183.3 197.5
Q 182.8 197.7 182.6 197.9
M 178.95 196
L 172.2 197.95
Q 172.1 198 172.05 198.1 172 198.2 172.05 198.25
L 184.05 194.8
Q 182.4 195 178.95 196
M 180.7 194.7
Q 178 195.1 172.7 196.4
L 165.65 198.15
Q 165.15 198.25 165.1 198.5 174.9 196.35 180.7 194.7 Z"/>

<path fill="#D28C69" stroke="none" d="
M 193.15 243.4
Q 193.1716796875 243.3515625 193.2 243.3 192.8146484375 243.1072265625 192.4 242.95 192.516015625 243.21953125 192.45 243.55 192.8103515625 243.4984375 193.15 243.4
M 170.55 247.35
Q 168.75 246.75 167.8 246.75 165.35 246.75 163.35 249.65 163.0822265625 250.03671875 162.85 250.4 162.8248046875 250.4865234375 162.8 250.55 162.25 251.95 162.65 254.9
L 162.95 257.55
Q 163.45 260.8 163.6 261.45
L 164.85 266.25
Q 165.0669921875 267.0091796875 165.35 267.5 166.1822265625 268.043359375 167.05 268.55 167.2123046875 268.573828125 167.35 268.6 168.3435546875 268.9205078125 169.05 269.55 169.7083984375 269.858984375 170.4 270.15 180.95 274.5 190.65 268.45 192.050390625 267.365625 193.9 265.45 197.35 262.05 198.95 259.75 199.604296875 258.796484375 200.1 258.05 201.1841796875 256.5048828125 201.65 255.85
L 198.75 256.75
Q 194.423828125 258.147265625 192.15 259 187.692578125 260.594921875 184.95 262.35 185.107421875 262.43671875 185.3 262.55 186 263 186.85 263.25 188.3 263.7 188.45 264.3 188.6 265.2 187.35 265.7 186.25 266.2 183.45 266.2
L 181.15 266.15
Q 180.719921875 266.15 180.5 266.05 180.2216796875 266.16640625 179.9 266.25 178 266.8 175.4 266.15 174.85 266.05 174.7 265.85
L 174.4 265
Q 174.15 264.35 173.25 263.8 172.25 263.25 171.9 262.85 171.45 262.4 171.35 261.65
L 171.3 260.5 171.05 259.1
Q 171 258.9 171 257.8 171.1 256.3 171 254.8 170.9 253.95 171.2 253.5 171.64765625 253.1337890625 171.9 252.9 171.953515625 252.846484375 172 252.8 172.4 252.25 172.65 252.05 172.75 252 173.6 251.7 173.9 251.6 174.6 251.15 175.15 250.75 175.55 250.65
L 176.6 250.5
Q 177.55 250.5 178.2 250.7 178.3 250.7 180.45 251.35 181.3265625 251.600390625 182 251.65 183.038671875 251.3083984375 184.4 250.9 191.30078125 248.7888671875 200.05 246.2 199.9314453125 245.9919921875 199.75 245.75
L 199.45 245.3
Q 198.7470703125 245.9 197.8 245.9 196.9 245.9 195 245.45 193.1 245 192 245 192.3462890625 244.6271484375 192.65 244.15 192.4828125 244.187890625 192.35 244.15 192.1 244.05 192 243.85 191.85 243.55 191.95 243.35 190.5 243.1 189.15 243.75 187.3 245.1 186.2 245.25 185.95 244.9 186.35 244.6 186.8 244.4 187 244.3 187.45 244.15 188.05 243.65 188.75 243.15 189.1 243 189.76640625 242.666796875 190.8 242.65
L 190.8 241.8
Q 191.6 241.3 191.85 240.95 192 240.75 192 240.4 192 239.6 191.1 238.95 190.3 238.35 189.4 238.35 188 238.35 186.1 240.75 183.95 243.45 182.7 243.9 181.85 244.2 181.25 245.7 180.6 247.2 180.15 247.35 179.4 247.65 177.85 247.75 176 247.85 175.5 247.95 175.5 247.5 176.2 246.3 177.15 244.85 177.5 244.2
L 177.5 242.7 176.9 242.7
Q 174.95 243.05 173.5 243.6 170.85 244.6 170.55 247.35
M 185.9 243.95
L 186.35 243.75 186.6 243.95
Q 186.5 244.05 185.95 244.55 185.4 245.1 183.7 245.6
L 183.6 245.4
Q 183.85 245.05 184.5 244.75 185.35 244.4 185.5 244.25
L 185.9 243.95
M 177.9 248.45
L 178.3 248.75 178.55 248.9
Q 178.6 249 178.7 249.15 178.5 249.2 178.2 249
L 177.5 248.65 177.45 248.3 177.8 248.35 177.9 248.45
M 176.6 249.3
Q 176.65 249.4 176.4 249.55 175.7 249.85 174.15 249.35 172.65 248.75 171.9 248.95 171.75 249.35 171.35 249.55 170.95 249.8 170.5 249.7 169.7 249.5 169.2 248.65
L 168.25 248.65
Q 168.15 248.35 168.25 248 169.1 247.9 169.45 248.1 169.7 248.2 170.1 248.65 170.55 249 170.85 248.85
L 171.25 248.55
Q 172.15 247.7 173.95 248.4 174.4 248.6 175.25 248.95 176 249.25 176.6 249.3
M 168.8 260.95
L 168.8 261.25 168.7 261.55 167.5 261.5 167.4 261.3 167.45 261.2 167.55 261.05 168.25 260.85 168.3 260.55 168.4 260.5
Q 168.65 260.35 168.75 260.65
L 168.8 260.95
M 170.25 265
Q 170.05 265.15 169.95 265.65 167.85 265.75 166.85 265.45
L 166.55 265.25
Q 166.2 264.9 166.6 264.5 166.8 264.25 167.25 264.15 168.2 263.85 170.1 263.75
L 170.45 263.8
Q 170.6 263.85 170.7 264.1 170.85 264.35 170.95 264.4 171 264.6 170.7 264.8
L 170.25 265
M 172 267.75
Q 171.5 267.95 170.55 268.05 169.5 268.15 169.05 268.3 168.95 267.9 169.05 267.75
L 169.35 267.65 170.75 267.3
Q 171.7 267.05 171.75 267 172.4 266.65 172.6 266.55 172.9 266.55 173 266.65 173.15 266.8 173.05 267.05 172.9 267.3 172.7 267.35
L 172 267.75 Z"/>

<path fill="#D6A16E" stroke="none" d="
M 169.95 265.65
Q 170.05 265.15 170.25 265
L 170.7 264.8
Q 171 264.6 170.95 264.4 170.85 264.35 170.7 264.1 170.6 263.85 170.45 263.8
L 170.1 263.75
Q 168.2 263.85 167.25 264.15 166.8 264.25 166.6 264.5 166.2 264.9 166.55 265.25
L 166.85 265.45
Q 167.85 265.75 169.95 265.65
M 168.8 261.25
L 168.8 260.95 168.75 260.65
Q 168.65 260.35 168.4 260.5
L 168.3 260.55 168.25 260.85 167.55 261.05 167.45 261.2 167.4 261.3 167.5 261.5 168.7 261.55 168.8 261.25
M 169.3 240.2
Q 167.9 241.35 167.5 243 167.25 244.25 167.1 244.6 166.95 244.95 166.45 245.55
L 164.35 248.15
Q 163.234765625 249.544140625 162.85 250.4 163.0822265625 250.03671875 163.35 249.65 165.35 246.75 167.8 246.75 168.75 246.75 170.55 247.35 170.85 244.6 173.5 243.6 174.95 243.05 176.9 242.7
L 177.5 242.7 177.5 244.2
Q 177.15 244.85 176.2 246.3 175.5 247.5 175.5 247.95 176 247.85 177.85 247.75 179.4 247.65 180.15 247.35 180.6 247.2 181.25 245.7 181.85 244.2 182.7 243.9 183.95 243.45 186.1 240.75 188 238.35 189.4 238.35 190.3 238.35 191.1 238.95 192 239.6 192 240.4 192 240.75 191.85 240.95 191.6 241.3 190.8 241.8
L 190.8 242.65
Q 191.472265625 242.6318359375 192.3 242.75 192.384765625 242.8517578125 192.4 242.95 192.8146484375 243.1072265625 193.2 243.3 193.1716796875 243.3515625 193.15 243.4 194.4265625 243.0322265625 195.3 242 195.5 242.05 195.5 242.35 195.4 242.6 195.2 242.75 194.5 243.45 193.4 243.95 192.9658203125 244.1361328125 192.65 244.15 192.3462890625 244.6271484375 192 245 193.1 245 195 245.45 196.9 245.9 197.8 245.9 198.7470703125 245.9 199.45 245.3
L 198.2 243.45
Q 197.4 242.45 197.05 242.15 195.8 241.45 195.3 240.9 194.95 240.5 194.35 238.95 193.9 237.65 193.15 237.3 192.7 237.1 191.65 237.1
L 186.35 237.35
Q 184.55 237.45 183.45 237.15
L 181.75 236.6
Q 181.1 236.45 180.4 236.6 179.5 236.7 178.2 237.4 176.3 238.4 176.1 238.45 174.291796875 239.1556640625 172.4 238.9
L 172.4 238.85 172.4 238.85
Q 170.7 239 169.3 240.2 Z"/>

<path fill="#D3E7EE" stroke="none" d="
M 169.95 221.8
Q 168.8396484375 218.962890625 168.4 217.85
L 165.5 216 167.75 222.75 169.05 222.15
Q 169.5037109375 221.99453125 169.95 221.8
M 211.95 246.55
Q 211.774609375 246.0189453125 211.85 245 211.95 244.9 212.2 244.9 212.45 245.2 212.35 246 212.4154296875 246.326953125 212.7 246.75 213.591796875 246.919921875 214.65 247.15 215.67890625 247.3763671875 216.6 247.55 216.4904296875 247.03203125 216.4 246.55 216.2 245.25 215.9 244.85 215.3 244 214.05 244 213.3 244 212 244.4 187.65 251.45 183.4 252.55 183.1 252.8 182.5 252.8 182.4681640625 252.8 182.4 252.8 181.4861328125 253.0439453125 180.65 253.25 180.2 253.45 179.9 253.3 179.35 253.2 179.55 252.75 179.5984375 252.5076171875 179.95 252.4 179.6345703125 252.328125 179.4 252.25
L 178.4 251.95
Q 177.5 251.65 176.6 251.65 176.15 251.65 175.95 251.75
L 174.15 252.8
Q 174.0705078125 252.8505859375 174 252.9
L 175.2 252.9
Q 175.8 253.1 176.9 253.1 176.9 253.7 176.6 254.85 177.5 255.15 179.55 255.15
L 179.85 255.15
Q 177.45 256.95 176.9 257.25
L 176.9 257.75
Q 179.15 256.95 192.7 251.35 205.9 246.15 209.35 246.15 209.81015625 246.15 211.95 246.55
M 234.7 231.25
Q 234.9373046875 228.817578125 235.15 226.4 233.831640625 228.6583984375 231.7 230.45 231.65 231.285546875 231.65 232.15 231.65 232.2 231.95 235.9 231.9556640625 235.983984375 231.95 236.05 232.5357421875 235.5076171875 233.1 234.9 234.5 233.35 234.7 231.25
M 235.9 214
Q 235.9 213.7 235.85 213.45 235.618359375 212.3576171875 235.15 211.35 235.16484375 214.7880859375 233.25 218 233.2177734375 218.0564453125 233.15 218.1 233.2697265625 218.2994140625 233.35 218.5 234 220.05 234 221.25 234 222.15 232.85 225.35 232.3330078125 226.7068359375 232.05 228.15 234.3916015625 225.817578125 235.65 222.65 236.35 220.9 236.25 219 236.1 216.5 235.9 214
M 155.6 242.05
Q 156 240.25 157.55 239.2 155.6390625 244.58828125 155.75 249.45 156.34453125 250.922265625 157.2 251.7
L 157.5 251.7
Q 157.2 246.9 157.2 246.15 157.2 240 167.8 234.95 174.7 231.65 179.55 230.85 178.35 229.45 175.25 228.6 173.5708984375 228.1390625 172 227.95 169.2482421875 228.9908203125 166.65 230.65 165.85 231.2 165.15 231.85 167.0380859375 229.4595703125 169.45 228 170.5224609375 227.3482421875 171.7 226.85 171.9955078125 226.7578125 172.3 226.65 175.9087890625 225.38125 180.45 225.75 184.6 225.65 188.85 226.45 190.030859375 226.75703125 191.65 227.25 191.7529296875 227.2708984375 191.85 227.3 195.1 228.35 196.7 229.55 197.75 230.3 199.45 232.3
L 201.2 234.65
Q 204.303515625 239.4021484375 204.4 244.95 206.406640625 244.378515625 208.5 243.75 208.48125 243.421484375 208.5 243 208.65 239.95 206.2 235.1 204.75 232.25 203.55 230.85 202.5 229.7 200.55 228.2 198.685546875 226.7875 197.3 225.8 196.2330078125 225.0501953125 195.45 224.55 193.3439453125 223.229296875 191.4 222.45 190.608203125 222.12890625 189.85 221.9 187.891015625 221.321875 185.55 221.1 184.287109375 221.0029296875 183.05 220.95 179.1 221.25 175.15 221.6 173.85 221.9 172.6 222.2 172.251171875 222.2916015625 171.9 222.4
L 171.55 222.5
Q 170.9564453125 222.6994140625 170.35 222.9 169.0287109375 223.41328125 167.75 224
L 164.95 225.5
Q 162.3515625 227.097265625 159.95 229.2 147.75 240 150.25 255.45 152.15 267.35 162.4 273.45 163.0751953125 273.8408203125 163.75 274.15 165.6 275 167.3 276 167.95 276.45 168.6 277 172.45 280 176.9 278.3 179.7083984375 277.3203125 182.4 275.95 183.8125 275.2650390625 185.2 274.45 184.9556640625 274.95 184.65 275.4 191.5580078125 273.2140625 197.5 267.1 201.7537109375 262.696484375 203.6 258.15 203.4158203125 258.1091796875 203.25 258.05
L 201.3 258.05
Q 200.18515625 259.8400390625 198.65 261.7 196.9 263.8 193.65 267.1 192.9177734375 267.873046875 192.25 268.45 178.190234375 277.3650390625 165.85 269.3 165.2302734375 269.1162109375 164.85 268.85 164.6775390625 268.6775390625 164.5 268.35 153.2818359375 259.63125 154.9 245.9 155.137109375 244.019921875 155.6 242.05
M 160.3 236.6
Q 160.3 236.35 160.35 236.1
L 162.1 234.4
Q 161.45 235.7 160.8 237 160.25 237.35 160.3 236.6
M 178.25 276.1
Q 176.5 277.55 173.65 277.3 170.6 277.05 168.2 275.25 167.75 274.9 167.95 274.6 168.5 274.45 169.2 274.85 169.6 275.05 170.4 275.55 171 275.9 172.6 276.2 174.4 276.55 175.55 276.45 175.75 276.45 176.9 276.2 177.7 276.05 178.25 276.1
M 162.25 203.25
Q 162.195703125 203.659765625 162.1 204.05 162.592578125 209.740625 165.2 213.2
L 168.45 216.1
Q 168.4880859375 216.0818359375 168.5 216.05 168.8 215.3 168.8 214.9 168.8 213.7 166.95 212.65 165.05 211.55 165.05 209.8 165.05 209.15078125 165.3 208.25 164.6767578125 207.4599609375 164.1 206.55 163.3 205.3 162.6 204 162.423046875 203.6587890625 162.25 203.25
M 200.1 197.8
Q 199.89921875 197.089453125 199.55 196.35 199.6234375 199.044921875 198.5 201.6
L 198.9 201.6
Q 199.05 201.75 199.7 202.4 199.7529296875 202.4529296875 199.75 202.7 199.8384765625 202.6259765625 199.9 202.55 200.4802734375 201.84296875 201.1 201.2 200.7380859375 200.30234375 200.5 199.35
L 200.1 197.8 Z"/>

<path fill="#DA9E8B" stroke="none" d="
M 168.4 217.85
Q 168.8396484375 218.962890625 169.95 221.8
L 169.95 221.8
Q 170.009765625 221.812109375 170.05 221.8
L 177.85 219.9
Q 173.39453125 220.2732421875 169.75 218.7
L 168.4 217.85
M 233.35 218.5
Q 233.2697265625 218.2994140625 233.15 218.1 232.6177734375 219.1091796875 232.05 220.15 231.3 221.5 230.4 222.85 221.55 231.25 209.45 228.4 204.6 227.3 201.35 223.65 198.8396484375 220.8515625 197.65 217.45 197.65 217.50234375 197.65 217.55 197.65 217.65 197.65 217.75 197.65 217.85 197.7 217.95 197.7 218.1 197.7 218.2 197.7 218.3 197.7 218.4 197.7 218.5 197.7 218.6 197.7 218.75 197.7 218.85 197.7 218.95 197.7 219.05 197.7 219.15 197.7 219.3 197.7 219.4 197.7 219.5 197.7 219.6 197.7 219.7 197.7 219.8 197.7 219.95 197.7 220.05 197.7 220.15 197.7 220.25 197.7 220.35 197.7 220.45 197.7 220.6 197.7 220.7 197.7 220.8 197.7 220.9 197.7 221 197.7 221.1 197.7 221.25 197.7 221.35 197.7 221.45 197.7 221.55 197.7 221.65 197.7 221.75 197.7 221.9 197.7 222 197.7 222.1 197.7 222.2 197.7 222.3 197.7 222.45 197.7 222.55 197.7 222.65 197.7 222.75 197.7 222.85 197.7 222.95 197.7 223.1 197.7 223.2 197.7 223.3 197.7 223.4 197.7 223.5 197.7 223.6 197.7 223.75 197.7 223.85 197.7 223.95 197.7 224.05 197.7 224.15 197.7 224.25
L 197.7 224.25
Q 198.5271484375 224.860546875 199.6 225.65 203.7 228.7 205.4 230.85 206.65 232.4 208.05 235.35 209.4 238.25 209.6 240.4 209.6546875 240.93203125 209.65 241.55 211.5953125 242.18671875 213.45 242.45 213.6681640625 242.4578125 213.85 242.45 214.7712890625 242.45 215.45 242.7 224.5607421875 243.291015625 231.95 236.05 231.9556640625 235.983984375 231.95 235.9 231.65 232.2 231.65 232.15 231.65 231.285546875 231.7 230.45 231.416796875 230.704296875 231.1 230.95 229.35 232.35 227.25 233.15 225.2798828125 233.9970703125 223.25 234.5 223 234.372265625 222.5 234.15 222.1716796875 234.0306640625 221.4 233.65 227.01328125 232.5521484375 231.3 228.85 231.6833984375 228.512890625 232.05 228.15 232.3330078125 226.7068359375 232.85 225.35 234 222.15 234 221.25 234 220.05 233.35 218.5
M 220.15 234.65
Q 220.4501953125 234.816796875 220.7 235 218.4599609375 235.300390625 216.15 235.2 216.0982421875 235.19609375 216.05 235.2 215.840234375 234.9787109375 215.6 234.75 214.991015625 234.16875 214.6 233.7 216.63046875 234.0359375 218.75 233.9 219.2833984375 234.2166015625 220.15 234.65
M 213.1 230.7
Q 216.75 229.9 220.25 229.85 223.2 229.75 224.05 229.5 225.45 229.05 225.95 229.35 225.7 230.85 223.65 231.6 221.6 232.45 218.35 232.45
L 215.75 232.4
Q 213.55 232.3 212.75 231.5 212.5 231.3 212.55 231.1 212.55 230.8 213.1 230.7
M 206.45 231.8
L 206.95 230.9
Q 208.9267578125 232.101171875 211 232.8 211.0830078125 233.534375 211.4 234.25 208.80390625 233.4048828125 206.45 231.8
M 214.85 239.95
Q 214.5 239.85 214.45 239.7 214.25 239.35 214.95 239.1 215.85 238.85 218.4 238.85 221.15 238.75 223.45 237.9 225.45 237.15 227.1 235.8
L 227.45 236.1
Q 227.15 236.9 225.9 238.15 225.3 238.85 224.75 239.15 224.15 239.5 223.05 239.7 218 240.75 214.85 239.95
M 199.75 202.7
Q 199.7529296875 202.4529296875 199.7 202.4 199.05 201.75 198.9 201.6
L 198.5 201.6
Q 198.1380859375 202.4310546875 197.65 203.25 197.05 204.3 196.45 205.4 195.7 206.75 194.8 208.1 187.19609375 215.3171875 177.2 214.2 169.7021484375 213.7236328125 165.3 208.25 165.05 209.15078125 165.05 209.8 165.05 211.55 166.95 212.65 168.8 213.7 168.8 214.9 168.8 215.3 168.5 216.05 168.4880859375 216.0818359375 168.45 216.1
L 168.8 216.4
Q 172.4900390625 218.5966796875 178.2 218.75 179.9 218.8 181.65 218.95
L 181.45 219.65 184.55 219.65
Q 188.43984375 219.7681640625 191.25 220.7
L 191.15 219.1
Q 190.283984375 219.2919921875 189.7 219 190.25390625 218.56484375 191.1 218.15
L 191.1 217.8
Q 191.1 215.7 192.85 213.8 195 211.95 195.75 211.1 196.1109375 210.7201171875 196.75 209.5 197.4263671875 205.6853515625 199.75 202.7
M 185.1 215.6
L 185.5 215.65
Q 185.9 215.85 185.65 216.3 185.4 216.65 185 216.65
L 185.3 216.9 184.7 217.5
Q 179.75 217.7 177.05 217.1 176.7 217 176.65 216.85 176.45 216.4 177.2 216.15 177.2 215.85 177.3 215.75
L 185.1 215.6 Z"/>

<path fill="#ABD1DC" stroke="none" d="
M 212.6 247.45
L 212.1 246.9
Q 212.0142578125 246.765234375 211.95 246.55 209.81015625 246.15 209.35 246.15 205.9 246.15 192.7 251.35 179.15 256.95 176.9 257.75
L 176.9 257.25
Q 177.45 256.95 179.85 255.15
L 179.55 255.15
Q 177.5 255.15 176.6 254.85 176.9 253.7 176.9 253.1 175.8 253.1 175.2 252.9
L 174 252.9
Q 173.0103515625 253.5361328125 172.5 254 172.2 254.4 172.15 254.65 172.15 254.75 172.4 255.55 172.55 256.25 172 257.7
L 172.1 258.65 172.65 261.35
Q 172.9 262.05 173 262.2 173.05 262.3 174.1 262.8 174.9 263.2 175.35 263.95 175.85 264.8 176 264.9 176.15 265 176.75 265.1 178.25 265.3 179.2 265.05 179.55 264.95 180.5 264.55
L 180.95 264.35
Q 180.8640625 263.91640625 181.5 263.45 184.2 261.2 186.2 260.05 188.55 258.7 192.9 257.2 196.4416015625 255.9681640625 200.2 254.7 202.2244140625 254.0923828125 204.95 253.15 207.0615234375 252.447265625 209.6 251.55 216.55 249.1 217.05 248.7 216.9791015625 248.5419921875 216.85 248.3 216.730859375 247.9224609375 216.6 247.55 215.67890625 247.3763671875 214.65 247.15 213.591796875 246.919921875 212.7 246.75 212.9076171875 246.9576171875 213.15 247.2
L 213.75 247.75 214.55 248.2
Q 215.05 248.5 215.25 248.8
L 215.15 249.1 213.35 248.1 212.6 247.45
M 185.35 257.85
Q 183.75 258.75 182.9 259.1 181.9 259.65 181.2 259.6 181.2 259.35 181.45 259.2
L 181.95 259
Q 182.45 258.85 183.55 258.3 184.6 257.75 185.2 257.65
L 185.35 257.85
M 183.3 256.9
Q 184.1 256.45 184.75 256.65
L 184.65 257
Q 184.1 257.05 183.2 257.55 182.15 258.1 181.7 258.2 181.3 258.35 180.6 258.55 180.35 258.7 180.2 258.75 179.95 258.85 179.8 258.75 179.75 258.6 180 258.35 180.35 258.15 181 257.95 181.75 257.7 182 257.6
L 183.3 256.9
M 204.65 254.9
L 202.8 255.45
Q 202.7814453125 255.537109375 202.75 255.6 202.1357421875 256.808203125 201.3 258.05
L 203.25 258.05
Q 203.4158203125 258.1091796875 203.6 258.15 204.2873046875 256.5361328125 204.65 254.9
M 184.65 275.4
Q 183.5888671875 276.9666015625 181.8 277.9 190.45 277.4 197.2 272.2 201.15 269.215625 204.2 264.65 205.9611328125 261.9822265625 207.25 259.05 207.1208984375 258.9130859375 207 258.8 206.45 258.3 205.35 258.3 204.2818359375 258.3 203.6 258.15 201.7537109375 262.696484375 197.5 267.1 191.5580078125 273.2140625 184.65 275.4
M 157.2 251.7
Q 156.34453125 250.922265625 155.75 249.45 155.9939453125 258.70625 163.6 266.05 163.6509765625 266.097265625 163.7 266.15 163.429296875 265.179296875 163.2 264.4 162.9462890625 263.3724609375 162.75 262.7
L 162.65 262.25
Q 162.6310546875 262.0546875 162.6 261.9
L 161.85 256.4
Q 161.6759765625 255.00859375 161.55 254 161.52109375 253.2751953125 161.5 252.75 161.5 251.2 161.7 250.5 162.05 249.35 163.5 247.6
L 165.4 245.25
Q 166.2 244.25 166.45 243.6
L 166.75 242.4
Q 167.3 240.2 169.2 239.1 171.15078125 237.9294921875 173.2 238.4 173.8357421875 238.378515625 174.35 238.25 175.3 238.1 176.1 237.65 176.95 237.1 177.35 236.85 178.9 235.8 180.8 235.7 181.4 235.65 182.15 235.8 182.75 235.9 183.85 236.35 184.6 236.5 186.15 236.4 187.8 236.35 190.85 236.15 193.6 235.95 194.6 237.05 194.95 237.45 195.25 238.4 195.6 239.4 195.9 239.8 196.2 240.15 197.55 241.2 198.45 241.9 200.15 244.15 200.2291015625 244.25859375 200.3 244.35 200.966796875 245.301171875 201.2 245.85 202.3927734375 245.534375 203.6 245.15
L 203.2 242.4
Q 202.75 240.15 202.5 239.2 201.6 236.55 198.55 232.8 196.75 230.65 195.8 230 194.8 229.3 192.5 228.5 190.8392578125 227.955078125 189.15 227.55 179.9462890625 225.0681640625 172 227.95 173.5708984375 228.1390625 175.25 228.6 178.35 229.45 179.55 230.85 174.7 231.65 167.8 234.95 157.2 240 157.2 246.15 157.2 246.9 157.5 251.7
L 157.2 251.7 Z"/>

<path fill="#E3B39B" stroke="none" d="
M 214.45 239.7
Q 214.5 239.85 214.85 239.95 218 240.75 223.05 239.7 224.15 239.5 224.75 239.15 225.3 238.85 225.9 238.15 227.15 236.9 227.45 236.1
L 227.1 235.8
Q 225.45 237.15 223.45 237.9 221.15 238.75 218.4 238.85 215.85 238.85 214.95 239.1 214.25 239.35 214.45 239.7
M 220.25 229.85
Q 216.75 229.9 213.1 230.7 212.55 230.8 212.55 231.1 212.5 231.3 212.75 231.5 213.55 232.3 215.75 232.4
L 218.35 232.45
Q 221.6 232.45 223.65 231.6 225.7 230.85 225.95 229.35 225.45 229.05 224.05 229.5 223.2 229.75 220.25 229.85
M 185.5 215.65
L 185.1 215.6 177.3 215.75
Q 177.2 215.85 177.2 216.15 176.45 216.4 176.65 216.85 176.7 217 177.05 217.1 179.75 217.7 184.7 217.5
L 185.3 216.9 185 216.65
Q 185.4 216.65 185.65 216.3 185.9 215.85 185.5 215.65 Z"/>

<path fill="#D6AF86" stroke="none" d="
M 232.75 208.15
L 232.75 208.5
Q 232.85 209.85 232.6 210.7 232.4 211.4 231.55 212.8
L 230.1 215
Q 229.25 216.25 228.55 216.5 229.6 214.05 231.1 211.7 231.6 210.9 231.75 210.45 231.9203125 209.981640625 231.95 209.05 231.305078125 211.1720703125 230.2 213.1 227.8 217.3 227.6 220.1
L 227.6 219.8
Q 227.1 219.4 226.65 218.9 226.47734375 218.6697265625 226.15 218.4 226.1544921875 218.4662109375 226.15 218.5
L 225.95 218.5
Q 225.88671875 218.3734375 225.85 218.2 225.728515625 218.1685546875 225.6 218.1 225.6 218.4 225.3 218.4
L 225.3 220.2 225.6 220.85 225.45 220.95
Q 225.3716796875 220.9078125 225.3 220.85
L 225.3 221.85 225 221.85
Q 225 221.2 224.6 220.05 224.15 218.85 224.15 218.7 223.7521484375 218.9892578125 223.4 219.25 223.475390625 219.7154296875 222.75 220.25 222.35 220.55 221.95 220.85 212.1 226.35 202.25 220.55 200.9 219.7 199.65 218.8 202.3 223 206.65 225.5 210.65 227.65 215.65 227.65 223 227.65 228.2 223.05 231.25859375 220.31796875 232.5 216.9 233.35 214.5896484375 233.35 211.95 233.35 210.073046875 232.9 208.3 232.84140625 208.255078125 232.75 208.15
M 197.15 193.75
Q 197.25 195.1 197 195.95 196.8 196.65 195.95 198.05
L 194.5 200.25
Q 193.65 201.5 192.95 201.75 193.034765625 201.55234375 193.1 201.35 192.6 201.808984375 192 202.2 192.35 202.6 192.75 202.75 192.9 202.8 192.9 203.15 190.15 205.65 189.4 205.65 188.65 205.65 188.4 204.8 188.15 203.9 187.65 203.9 186.7 203.9 183.65 205.5 180.55 207.05 176.05 207.05 172.5193359375 207.05 169.85 206.6 175.4462890625 208.6771484375 181.9 206.9 184.15 206.4 186.35 205.1 187.1931640625 204.676953125 187.7 204.2 188.1 204.8 187.15 205.5 186.7521484375 205.8044921875 186.35 206.05 177.4310546875 211.077734375 168.5 206.8
L 167.15 205.95
Q 165.6640625 205.5064453125 164.55 204.8 165.2439453125 205.7982421875 166 206.65 168.7375 209.7544921875 172.65 211.4 173.4 211.7 174.15 212.05 176.8939453125 212.9 180.05 212.9 187.4 212.9 192.55 208.3 195.901953125 205.3427734375 197.1 201.6 197.75 199.5212890625 197.75 197.2 197.75 194.92578125 197.1 192.85
L 197.15 193.75 Z"/>

<path fill="#E3C5AB" stroke="none" d="
M 232.05 205.85
Q 230.7 203.1 228.2 200.85 223 196.25 215.65 196.25 208.3 196.25 203.15 200.85 202.3927734375 201.519921875 201.75 202.2 201.7017578125 202.3201171875 201.65 202.4
L 201.6 202.35
Q 197.95 206.485546875 197.95 211.95 197.95 212.35 198 212.75
L 199 217.45
Q 207.15 224.5 217.5 221.65 219.75 221.15 221.95 219.9 222.8 219.45 223.3 218.95 223.39453125 219.091796875 223.4 219.25 223.7521484375 218.9892578125 224.15 218.7 224.15 218.85 224.6 220.05 225 221.2 225 221.85
L 225.3 221.85 225.3 220.85
Q 224.7759765625 220.4916015625 224.6 219.7 224.45 219.05 224.55 218.2 224.1 218.15 223.5 217.55 222.7 216.9 221.95 216.5 221.55 216.25 221.65 216.05 221.8 215.85 222.2 216.05
L 224.35 217.35
Q 224.8 217.55 224.95 217.85 225.15 218.15 225.1 218.7 225.05 219.45 225.1 219.6
L 225.2 220 225.3 220.2 225.3 218.4
Q 225.6 218.4 225.6 218.1 225.728515625 218.1685546875 225.85 218.2 225.75 217.9419921875 225.75 217.6
L 225.25 217.4 225.05 217.15 224.6 216.85 223.75 216.45 223.75 216.15
Q 223.75 216 223.95 216 224.05 216 224.15 216.2
L 224.9 216.5 225.65 216.95 226.1 217.4
Q 226.2431640625 217.7341796875 226.15 218.4 226.47734375 218.6697265625 226.65 218.9 227.1 219.4 227.6 219.8
L 227.6 220.1
Q 227.8 217.3 230.2 213.1 231.305078125 211.1720703125 231.95 209.05 231.95 208.9208984375 231.95 208.75
L 232.05 205.85
M 217.35 204.95
Q 216.95 205.3 215.85 205.6
L 205.95 208
Q 205.9 207.7 206.35 207.6
L 217.35 204.95
M 219.05 206.7
Q 218.85 207.1 218 207.3
L 212.35 208.95 212.25 208.75 219.05 206.7
M 203.15 207.5
Q 212.3 205 217.15 204.35 208.75 206.65 201.75 208.15 202.15 207.7 203.15 207.5
M 164.15 204.2
Q 164.3556640625 204.523046875 164.55 204.8 165.6640625 205.5064453125 167.15 205.95
L 164.3 204.25
Q 164.181640625 204.144921875 164.05 204.05 164.0998046875 204.12890625 164.15 204.2
M 162.35 197.2
Q 162.35 197.587109375 162.35 197.95
L 163.4 202.7
Q 166.46796875 205.35390625 169.85 206.6 172.5193359375 207.05 176.05 207.05 180.55 207.05 183.65 205.5 186.7 203.9 187.65 203.9 188.15 203.9 188.4 204.8 188.65 205.65 189.4 205.65 190.15 205.65 192.9 203.15 192.9 202.8 192.75 202.75 192.35 202.6 192 202.2 192.6 201.808984375 193.1 201.35 194.1208984375 199.110546875 195.5 196.95 196 196.15 196.15 195.7 196.35 195.15 196.35 194
L 196.4 191.05
Q 195.1146484375 188.357421875 192.55 186.1 187.4 181.5 180.05 181.5 172.7 181.5 167.5 186.1 162.35 190.7 162.35 197.2
M 172.7 196.4
Q 178 195.1 180.7 194.7 174.9 196.35 165.1 198.5 165.15 198.25 165.65 198.15
L 172.7 196.4
M 172.2 197.95
L 178.95 196
Q 182.4 195 184.05 194.8
L 172.05 198.25
Q 172 198.2 172.05 198.1 172.1 198 172.2 197.95
M 183 197.95
L 182.6 197.9
Q 182.8 197.7 183.3 197.5
L 187.85 195.7 187.85 195.95
Q 186.95 196.5 185.45 197.05 183.8 197.65 183 197.95
M 190.7 202.6
L 190.9 202.55 191.1 202.75 191.1 202.85 191.05 203 190.8 203.35
Q 190.75 203.45 190.45 203.5
L 190.4 203.1 190.45 202.9 190.6 202.7 190.7 202.6 Z"/>

<path fill="#7097A8" stroke="none" d="
M 203.6 258.15
Q 204.2818359375 258.3 205.35 258.3 206.45 258.3 207 258.8 207.1208984375 258.9130859375 207.25 259.05 208.42890625 256.366015625 209.2 253.45
L 204.65 254.9
Q 204.2873046875 256.5361328125 203.6 258.15 Z"/>

<path fill="#C1817B" stroke="none" d="
M 191.25 220.7
Q 191.493359375 220.775390625 191.7 220.85 193.6 221.55 195.8 222.95 196.240234375 223.237109375 196.9 223.7 196.9 223.62265625 196.9 223.55 196.9 223.45 196.9 223.35 196.9 223.2 196.9 223.1 196.9 223 196.9 222.9 196.9 222.8 196.9 222.7 196.9 222.55 196.9 222.45 196.9 222.35 196.9 222.25 196.9 222.15 196.9 222.05 196.9 221.9 196.9 221.8 196.9 221.7 196.9 221.6 196.9 221.5 196.9 221.4 196.9 221.25 196.9 221.15 196.9 221.05 196.9 220.95 196.9 220.85 196.9 220.7 196.9 220.6 196.9 220.5 196.9 220.4 196.9 220.3 196.9 220.2 196.9 220.05 196.9 219.95 196.9 219.85 196.9 219.75 196.9 219.65 196.9 219.55 196.9 219.4 196.9 219.3 196.9 219.2 196.9 219.1 196.9 219 196.9 218.9 196.9 218.75 196.9 218.65 196.9 218.55 196.9 218.45 196.9 218.35 196.9 218.25 196.9 218.1 196.9 218 196.9 217.9 196.95 217.8 197 217.7 197 217.55 197 217.45 197 217.35 197 217.25 197 217.15 197 217.05 197 216.9 197 216.8 197 216.7 197 216.6 197 216.5 197 216.4 197 216.25 197 216.15 197 216.05 197 215.95 197 215.85 197.05 215.75 197.05 215.6 197.05 215.5
L 197.05 215.45
Q 197.047265625 215.3884765625 197 215.3 195.715234375 217.096484375 193.75 218.1
L 192.25 218.75
Q 191.670703125 218.995703125 191.15 219.1
L 191.25 220.7
M 191.1 217.8
L 191.1 218.15
Q 191.3494140625 218.054296875 191.6 217.95 193.45 217.2 193.65 217.1 195.3 216.3 196.35 214.95 196.616796875 214.5943359375 196.8 214.45 196.72421875 214.1619140625 196.65 213.85 196.45 212.15 196.65 210.45 196.7033203125 209.9703125 196.75 209.5 196.1109375 210.7201171875 195.75 211.1 195 211.95 192.85 213.8 191.1 215.7 191.1 217.8 Z"/>
</g>

<g id="Layer0_3_FILL">
<path fill="#3B3D35" stroke="none" d="
M 120.85 139.75
L 119.3 139.75 119.3 144.5
Q 118.95 144.85 118.6 145.05 118.25 145.2 117.85 145.2 117.25 145.2 117 144.9 116.7 144.55 116.7 143.95
L 116.7 139.75 115.1 139.75 115.1 143.95
Q 115.1 144.5 115.25 144.95 115.4 145.4 115.7 145.75 116 146.1 116.4 146.25 116.8 146.45 117.35 146.45 118 146.45 118.5 146.2 119 145.95 119.4 145.55
L 119.5 146.05
Q 119.6 146.35 119.9 146.35
L 120.85 146.35 120.85 139.75
M 110.2 140.95
L 110.85 140.95 110.85 144.65
Q 110.85 145.5 111.3 145.95 111.75 146.45 112.65 146.45 113.1 146.45 113.55 146.3 114 146.15 114.35 145.85
L 113.9 145.1 113.8 145 113.65 144.95 113.25 145.15 113 145.2
Q 112.75 145.2 112.6 145 112.45 144.8 112.45 144.5
L 112.45 140.95 114.2 140.95 114.2 139.8 112.45 139.8 112.45 137.75 111.6 137.75
Q 111.5 137.75 111.4 137.8 111.3 137.85 111.25 138
L 110.95 139.8 109.85 140 109.85 140.6
Q 109.85 140.75 109.95 140.85 110.05 140.95 110.2 140.95
M 107.15 141.2
Q 107.4 141.5 107.4 142.2
L 107.4 142.55
Q 106.65 142.6 106.1 142.7 105.5 142.8 105.05 142.9 104.6 143.05 104.3 143.25 104 143.45 103.8 143.7 103.65 143.9 103.55 144.15 103.45 144.4 103.45 144.65 103.45 145.1 103.6 145.45 103.75 145.8 104 146 104.25 146.25 104.6 146.35 104.95 146.45 105.4 146.45
L 106.05 146.4 107.1 145.95 107.55 145.55 107.7 146
Q 107.8 146.2 107.9 146.3 108 146.35 108.25 146.35
L 108.95 146.35 108.95 142.2
Q 108.95 141.6 108.8 141.15 108.65 140.7 108.3 140.35 108 140 107.55 139.8 107.1 139.65 106.5 139.65 104.9 139.65 103.8 140.65
L 104.05 141.2 104.25 141.4
Q 104.35 141.45 104.55 141.45 104.75 141.45 104.9 141.4
L 105.7 141
Q 105.95 140.9 106.3 140.9 106.85 140.9 107.15 141.2
M 105.5 143.9
Q 105.8 143.75 106.25 143.65 106.75 143.55 107.4 143.55
L 107.4 144.65
Q 107.1 145 106.7 145.2 106.35 145.35 105.85 145.35 105.5 145.35 105.25 145.2 105 145 105 144.6 105 144.35 105.1 144.2 105.25 144 105.5 143.9
M 111.4 133.05
L 111.4 128.85
Q 111.4 128.3 111.25 127.85 111.1 127.4 110.8 127.05 110.55 126.7 110.1 126.55 109.7 126.35 109.15 126.35
L 108.55 126.4 108 126.6 107.1 127.25 107 126.75
Q 106.9 126.45 106.6 126.45
L 105.65 126.45 105.65 133.05 107.2 133.05 107.2 128.3
Q 107.55 127.95 107.9 127.75 108.25 127.6 108.65 127.6 109.25 127.6 109.5 127.9 109.8 128.25 109.8 128.85
L 109.8 133.05 111.4 133.05
M 118.1 127.25
Q 117.7 126.85 117.1 126.6 116.5 126.35 115.75 126.35 115 126.35 114.4 126.6 113.8 126.85 113.35 127.25 112.95 127.7 112.7 128.35 112.5 128.95 112.5 129.75 112.5 130.55 112.7 131.15 112.95 131.8 113.35 132.25 113.8 132.65 114.4 132.9 115 133.15 115.75 133.15 116.5 133.15 117.1 132.9 117.7 132.65 118.1 132.25 118.55 131.8 118.75 131.15 119 130.55 119 129.75 119 128.95 118.75 128.35 118.55 127.7 118.1 127.25
M 116.95 128.15
Q 117.35 128.7 117.35 129.75 117.35 130.8 116.95 131.35 116.6 131.95 115.75 131.95 114.9 131.95 114.5 131.35 114.1 130.8 114.1 129.75 114.1 128.7 114.5 128.15 114.9 127.55 115.75 127.55 116.6 127.55 116.95 128.15
M 100.8 136.8
L 100.8 146.35 102.4 146.35 102.4 136.8 100.8 136.8
M 97.7 139.9
Q 97.1 139.65 96.35 139.65 95.6 139.65 95 139.9 94.4 140.15 93.95 140.55 93.55 141 93.3 141.65 93.1 142.25 93.1 143.05 93.1 143.85 93.3 144.45 93.55 145.1 93.95 145.55 94.4 145.95 95 146.2 95.6 146.45 96.35 146.45 97.1 146.45 97.7 146.2 98.3 145.95 98.7 145.55 99.15 145.1 99.35 144.45 99.6 143.85 99.6 143.05 99.6 142.25 99.35 141.65 99.15 141 98.7 140.55 98.3 140.15 97.7 139.9
M 96.35 140.85
Q 97.2 140.85 97.55 141.45 97.95 142 97.95 143.05 97.95 144.1 97.55 144.65 97.2 145.25 96.35 145.25 95.5 145.25 95.1 144.65 94.7 144.1 94.7 143.05 94.7 142 95.1 141.45 95.5 140.85 96.35 140.85
M 90.4 139.9
Q 89.8 139.65 89.05 139.65 88.3 139.65 87.7 139.9 87.1 140.15 86.65 140.55 86.25 141 86 141.65 85.8 142.25 85.8 143.05 85.8 143.85 86 144.45 86.25 145.1 86.65 145.55 87.1 145.95 87.7 146.2 88.3 146.45 89.05 146.45 89.8 146.45 90.4 146.2 91 145.95 91.4 145.55 91.85 145.1 92.05 144.45 92.3 143.85 92.3 143.05 92.3 142.25 92.05 141.65 91.85 141 91.4 140.55 91 140.15 90.4 139.9
M 87.8 141.45
Q 88.2 140.85 89.05 140.85 89.9 140.85 90.25 141.45 90.65 142 90.65 143.05 90.65 144.1 90.25 144.65 89.9 145.25 89.05 145.25 88.2 145.25 87.8 144.65 87.4 144.1 87.4 143.05 87.4 142 87.8 141.45
M 92.95 128.05
Q 92.75 127.5 92.35 127.15 91.95 126.75 91.45 126.55 90.9 126.35 90.3 126.35 89.55 126.35 88.95 126.6 88.4 126.85 87.95 127.3 87.55 127.75 87.35 128.35 87.15 128.95 87.15 129.6 87.15 130.5 87.4 131.15 87.6 131.8 88.05 132.25 88.5 132.7 89.1 132.9 89.7 133.15 90.35 133.15
L 91.1 133.1 91.8 132.9
Q 92.15 132.8 92.5 132.6 92.85 132.35 93.1 132.05
L 92.65 131.5
Q 92.55 131.35 92.35 131.35 92.2 131.35 92.05 131.45
L 91.2 131.85
Q 90.9 131.9 90.5 131.9 90.15 131.9 89.8 131.8 89.5 131.7 89.25 131.45 89.05 131.2 88.9 130.85 88.75 130.45 88.7 129.95
L 92.8 129.95
Q 93 129.95 93.1 129.8 93.15 129.7 93.15 129.35 93.15 128.6 92.95 128.05
M 91.65 128.4
Q 91.75 128.7 91.75 129
L 88.75 129
Q 88.85 128.25 89.25 127.9 89.65 127.5 90.35 127.5 90.7 127.5 90.95 127.6 91.2 127.75 91.4 127.95 91.55 128.15 91.65 128.4
M 100.1 128.1
L 100.9 127.7
Q 101.15 127.6 101.5 127.6 102.05 127.6 102.35 127.9 102.6 128.2 102.6 128.9
L 102.6 129.25
Q 101.85 129.3 101.3 129.4 100.7 129.5 100.25 129.6 99.8 129.75 99.5 129.95 99.2 130.15 99 130.4 98.85 130.6 98.75 130.85 98.65 131.1 98.65 131.35 98.65 131.8 98.8 132.15 98.95 132.5 99.2 132.7 99.45 132.95 99.8 133.05 100.15 133.15 100.6 133.15
L 101.25 133.1 102.3 132.65 102.75 132.25 102.9 132.7
Q 103 132.9 103.1 133 103.2 133.05 103.45 133.05
L 104.15 133.05 104.15 128.9
Q 104.15 128.3 104 127.85 103.85 127.4 103.5 127.05 103.2 126.7 102.75 126.5 102.3 126.35 101.7 126.35 100.1 126.35 99 127.35
L 99.25 127.9 99.45 128.1
Q 99.55 128.15 99.75 128.15 99.95 128.15 100.1 128.1
M 101.05 132.05
Q 100.7 132.05 100.45 131.9 100.2 131.7 100.2 131.3 100.2 131.05 100.3 130.9 100.45 130.7 100.7 130.6 101 130.45 101.45 130.35 101.95 130.25 102.6 130.25
L 102.6 131.35
Q 102.3 131.7 101.9 131.9 101.55 132.05 101.05 132.05
M 96.4 126.5
L 96.4 124.45 95.55 124.45
Q 95.45 124.45 95.35 124.5 95.25 124.55 95.2 124.7
L 94.9 126.5 93.8 126.7 93.8 127.3
Q 93.8 127.45 93.9 127.55 94 127.65 94.15 127.65
L 94.8 127.65 94.8 131.35
Q 94.8 132.2 95.25 132.65 95.7 133.15 96.6 133.15 97.05 133.15 97.5 133 97.95 132.85 98.3 132.55
L 97.85 131.8 97.75 131.7 97.6 131.65 97.2 131.85 96.95 131.9
Q 96.7 131.9 96.55 131.7 96.4 131.5 96.4 131.2
L 96.4 127.65 98.15 127.65 98.15 126.5 96.4 126.5
M 118 123.65
L 116.45 123.65
Q 116.15 123.65 116.05 123.75 115.9 123.85 115.8 124
L 114.9 125.55 115.85 125.55 116.15 125.5 116.4 125.35 118 123.65
M 121.8 133.05
L 121.8 123.5 120.2 123.5 120.2 133.05 121.8 133.05
M 135.55 139.2
Q 135.35 138.45 135 137.7 134.65 137 134.2 136.25
L 133.35 136.8 133.3 136.9 133.25 137.1 133.35 137.3
Q 133.95 138.45 134.25 139.7 134.6 141 134.6 142.3 134.6 143.65 134.25 144.9 133.95 146.2 133.35 147.35
L 133.25 147.55 133.3 147.75 133.35 147.85 134.2 148.4
Q 134.65 147.65 135 146.9 135.35 146.15 135.55 145.4 135.75 144.65 135.85 143.9 135.95 143.1 135.95 142.3 135.95 141.5 135.85 140.75 135.75 139.95 135.55 139.2
M 123.85 140.15
Q 123.8 139.95 123.7 139.85 123.6 139.75 123.35 139.75
L 122.45 139.75 122.45 146.35 124 146.35 124 142.3 124.25 141.8 124.55 141.45
Q 124.7 141.3 124.9 141.25 125.1 141.15 125.4 141.15
L 126.05 141.25 126.2 141.2 126.3 141 126.4 139.85
Q 126.15 139.65 125.65 139.65 125.1 139.65 124.65 139.95 124.25 140.3 123.95 140.9
L 123.85 140.15
M 128.2 141.4
L 129 141
Q 129.25 140.9 129.6 140.9 130.15 140.9 130.45 141.2 130.7 141.5 130.7 142.2
L 130.7 142.55
Q 129.95 142.6 129.4 142.7 128.8 142.8 128.35 142.9 127.9 143.05 127.6 143.25 127.3 143.45 127.1 143.7 126.95 143.9 126.85 144.15 126.75 144.4 126.75 144.65 126.75 145.1 126.9 145.45 127.05 145.8 127.3 146 127.55 146.25 127.9 146.35 128.25 146.45 128.7 146.45
L 129.35 146.4 130.4 145.95 130.85 145.55 131 146
Q 131.1 146.2 131.2 146.3 131.3 146.35 131.55 146.35
L 132.25 146.35 132.25 142.2
Q 132.25 141.6 132.1 141.15 131.95 140.7 131.6 140.35 131.3 140 130.85 139.8 130.4 139.65 129.8 139.65 128.2 139.65 127.1 140.65
L 127.35 141.2 127.55 141.4
Q 127.65 141.45 127.85 141.45 128.05 141.45 128.2 141.4
M 130.7 143.55
L 130.7 144.65
Q 130.4 145 130 145.2 129.65 145.35 129.15 145.35 128.8 145.35 128.55 145.2 128.3 145 128.3 144.6 128.3 144.35 128.4 144.2 128.55 144 128.8 143.9 129.1 143.75 129.55 143.65 130.05 143.55 130.7 143.55
M 125 126.45
L 123.4 126.45 123.4 133.05 125 133.05 125 126.45
M 130.75 126.6
Q 130.15 126.35 129.45 126.35 128.65 126.35 128.05 126.6 127.45 126.85 127.05 127.3 126.65 127.75 126.45 128.4 126.25 129 126.25 129.75 126.25 130.55 126.45 131.2 126.7 131.8 127.1 132.25 127.5 132.7 128.05 132.9 128.6 133.15 129.2 133.15
L 129.9 133.1
Q 130.25 133.05 130.6 132.9 130.9 132.8 131.2 132.6 131.55 132.35 131.8 132.05
L 131.35 131.5
Q 131.25 131.35 131.05 131.35 130.9 131.35 130.8 131.45
L 130.5 131.65 130.1 131.85
Q 129.85 131.95 129.5 131.95 129.1 131.95 128.8 131.8 128.5 131.65 128.3 131.35 128.1 131.1 127.95 130.7 127.85 130.25 127.85 129.75 127.85 129.25 127.95 128.85 128.05 128.45 128.25 128.15 128.5 127.85 128.8 127.7 129.1 127.55 129.55 127.55 129.85 127.55 130.1 127.65
L 130.95 128.05 131.15 128 131.3 127.85 131.75 127.25
Q 131.3 126.85 130.75 126.6
M 138 127.25
Q 137.6 126.85 137 126.6 136.4 126.35 135.65 126.35 134.9 126.35 134.3 126.6 133.7 126.85 133.25 127.25 132.85 127.7 132.6 128.35 132.4 128.95 132.4 129.75 132.4 130.55 132.6 131.15 132.85 131.8 133.25 132.25 133.7 132.65 134.3 132.9 134.9 133.15 135.65 133.15 136.4 133.15 137 132.9 137.6 132.65 138 132.25 138.45 131.8 138.65 131.15 138.9 130.55 138.9 129.75 138.9 128.95 138.65 128.35 138.45 127.7 138 127.25
M 136.85 128.15
Q 137.25 128.7 137.25 129.75 137.25 130.8 136.85 131.35 136.5 131.95 135.65 131.95 134.8 131.95 134.4 131.35 134 130.8 134 129.75 134 128.7 134.4 128.15 134.8 127.55 135.65 127.55 136.5 127.55 136.85 128.15
M 124.55 123.6
Q 124.4 123.5 124.15 123.5 123.95 123.5 123.8 123.6
L 123.45 123.8 123.25 124.15
Q 123.15 124.3 123.15 124.55 123.15 124.75 123.25 124.9
L 123.45 125.25 123.8 125.45
Q 123.95 125.55 124.15 125.55 124.4 125.55 124.55 125.45
L 124.9 125.25 125.1 124.9
Q 125.2 124.75 125.2 124.55 125.2 124.3 125.1 124.15
L 124.9 123.8 124.55 123.6
M 36 140.95
L 37.75 140.95 37.75 139.8 36 139.8 36 137.75 35.15 137.75
Q 35.05 137.75 34.95 137.8 34.85 137.85 34.8 138
L 34.5 139.8 33.4 140 33.4 140.6
Q 33.4 140.75 33.5 140.85 33.6 140.95 33.75 140.95
L 34.4 140.95 34.4 144.65
Q 34.4 145.5 34.85 145.95 35.3 146.45 36.2 146.45 36.65 146.45 37.1 146.3 37.55 146.15 37.9 145.85
L 37.45 145.1 37.35 145 37.2 144.95 36.8 145.15 36.55 145.2
Q 36.3 145.2 36.15 145 36 144.8 36 144.5
L 36 140.95
M 25.2 139.75
L 23.6 139.75 23.6 146.35 25.2 146.35 25.2 139.75
M 25.3 137.45
L 25.1 137.1 24.75 136.9
Q 24.6 136.8 24.35 136.8 24.15 136.8 24 136.9
L 23.65 137.1 23.45 137.45
Q 23.35 137.6 23.35 137.85 23.35 138.05 23.45 138.2
L 23.65 138.55 24 138.75
Q 24.15 138.85 24.35 138.85 24.6 138.85 24.75 138.75
L 25.1 138.55 25.3 138.2
Q 25.4 138.05 25.4 137.85 25.4 137.6 25.3 137.45
M 27.7 139.75
L 26.75 139.75 26.75 146.35 28.3 146.35 28.3 141.6
Q 28.65 141.25 29 141.05 29.35 140.9 29.75 140.9 30.35 140.9 30.6 141.2 30.9 141.55 30.9 142.15
L 30.9 146.35 32.5 146.35 32.5 142.15
Q 32.5 141.6 32.35 141.15 32.2 140.7 31.9 140.35 31.65 140 31.2 139.85 30.8 139.65 30.25 139.65
L 29.65 139.7 29.1 139.9 28.2 140.55 28.1 140.05
Q 28 139.75 27.7 139.75
M 20.85 126.5
L 20.6 126.45 19.1 126.45 21.25 129.65 19 133.05 20.4 133.05
Q 20.55 133.05 20.65 132.95
L 20.85 132.75 22.1 130.85 22.15 130.65 22.25 130.45 23.65 132.75 23.8 132.95
Q 23.9 133.05 24.1 133.05
L 25.6 133.05 23.35 129.6 25.55 126.45 24.05 126.45
Q 23.85 126.45 23.7 126.7
L 22.6 128.45 22.4 128.85 21 126.65 20.85 126.5
M 28.45 126.5
L 28.45 124.45 27.6 124.45
Q 27.5 124.45 27.4 124.5 27.3 124.55 27.25 124.7
L 26.95 126.5 25.85 126.7 25.85 127.3
Q 25.85 127.45 25.95 127.55 26.05 127.65 26.2 127.65
L 26.85 127.65 26.85 131.35
Q 26.85 132.2 27.3 132.65 27.75 133.15 28.65 133.15 29.1 133.15 29.55 133 30 132.85 30.35 132.55
L 29.9 131.8 29.8 131.7 29.65 131.65 29.25 131.85 29 131.9
Q 28.75 131.9 28.6 131.7 28.45 131.5 28.45 131.2
L 28.45 127.65 30.2 127.65 30.2 126.5 28.45 126.5
M 34.4 126.35
Q 33.85 126.35 33.4 126.65 33 127 32.7 127.6
L 32.6 126.85
Q 32.55 126.65 32.45 126.55 32.35 126.45 32.1 126.45
L 31.2 126.45 31.2 133.05 32.75 133.05 32.75 129 33 128.5 33.3 128.15
Q 33.45 128 33.65 127.95 33.85 127.85 34.15 127.85
L 34.8 127.95 34.95 127.9 35.05 127.7 35.15 126.55
Q 34.9 126.35 34.4 126.35
M 17.6 137.3
L 17.65 137.1 17.65 136.9 17.45 136.7 16.75 136.25
Q 16.25 137 15.95 137.7 15.6 138.45 15.4 139.2 15.15 139.95 15.05 140.75 14.95 141.5 14.95 142.3 14.95 143.1 15.05 143.9 15.15 144.65 15.4 145.4 15.6 146.15 15.95 146.9 16.25 147.65 16.75 148.4
L 17.45 147.95 17.65 147.75 17.65 147.55 17.6 147.35
Q 17 146.2 16.65 144.9 16.35 143.65 16.35 142.3 16.35 141 16.65 139.7 17 138.45 17.6 137.3
M 19.75 137.8
Q 19.65 137.85 19.6 138
L 19.3 139.8 18.2 140 18.2 140.6
Q 18.2 140.75 18.3 140.85 18.4 140.95 18.55 140.95
L 19.2 140.95 19.2 144.65
Q 19.2 145.5 19.65 145.95 20.1 146.45 21 146.45 21.45 146.45 21.9 146.3 22.35 146.15 22.7 145.85
L 22.25 145.1 22.15 145 22 144.95 21.6 145.15 21.35 145.2
Q 21.1 145.2 20.95 145 20.8 144.8 20.8 144.5
L 20.8 140.95 22.55 140.95 22.55 139.8 20.8 139.8 20.8 137.75 19.95 137.75
Q 19.85 137.75 19.75 137.8
M 18.5 125.15
L 18.5 123.75 12.65 123.75 12.65 133.05 18.5 133.05 18.5 131.65 14.35 131.65 14.35 129.05 17.6 129.05 17.6 127.7 14.35 127.7 14.35 125.15 18.5 125.15
M 80.4 140.6
Q 80 141.05 79.8 141.7 79.6 142.3 79.6 143.05 79.6 143.85 79.8 144.5 80.05 145.1 80.45 145.55 80.85 146 81.4 146.2 81.95 146.45 82.55 146.45
L 83.25 146.4
Q 83.6 146.35 83.95 146.2 84.25 146.1 84.55 145.9 84.9 145.65 85.15 145.35
L 84.7 144.8
Q 84.6 144.65 84.4 144.65 84.25 144.65 84.15 144.75
L 83.85 144.95 83.45 145.15
Q 83.2 145.25 82.85 145.25 82.45 145.25 82.15 145.1 81.85 144.95 81.65 144.65 81.45 144.4 81.3 144 81.2 143.55 81.2 143.05 81.2 142.55 81.3 142.15 81.4 141.75 81.6 141.45 81.85 141.15 82.15 141 82.45 140.85 82.9 140.85 83.2 140.85 83.45 140.95
L 84.3 141.35 84.5 141.3 84.65 141.15 85.1 140.55
Q 84.65 140.15 84.1 139.9 83.5 139.65 82.8 139.65 82 139.65 81.4 139.9 80.8 140.15 80.4 140.6
M 78.4 136.8
L 76.8 136.8 76.8 146.35 78.4 146.35 78.4 136.8
M 70.15 140.65
L 70.4 141.2 70.6 141.4
Q 70.7 141.45 70.9 141.45 71.1 141.45 71.25 141.4
L 72.05 141
Q 72.3 140.9 72.65 140.9 73.2 140.9 73.5 141.2 73.75 141.5 73.75 142.2
L 73.75 142.55
Q 73 142.6 72.45 142.7 71.85 142.8 71.4 142.9 70.95 143.05 70.65 143.25 70.35 143.45 70.15 143.7 70 143.9 69.9 144.15 69.8 144.4 69.8 144.65 69.8 145.1 69.95 145.45 70.1 145.8 70.35 146 70.6 146.25 70.95 146.35 71.3 146.45 71.75 146.45
L 72.4 146.4 73.45 145.95 73.9 145.55 74.05 146
Q 74.15 146.2 74.25 146.3 74.35 146.35 74.6 146.35
L 75.3 146.35 75.3 142.2
Q 75.3 141.6 75.15 141.15 75 140.7 74.65 140.35 74.35 140 73.9 139.8 73.45 139.65 72.85 139.65 71.25 139.65 70.15 140.65
M 73.75 143.55
L 73.75 144.65
Q 73.45 145 73.05 145.2 72.7 145.35 72.2 145.35 71.85 145.35 71.6 145.2 71.35 145 71.35 144.6 71.35 144.35 71.45 144.2 71.6 144 71.85 143.9 72.15 143.75 72.6 143.65 73.1 143.55 73.75 143.55
M 66.55 126.45
L 64.95 126.45 64.95 133.05 66.55 133.05 66.55 126.45
M 80.7 127.25
Q 80.3 127.7 80.05 128.35 79.85 128.95 79.85 129.75 79.85 130.55 80.05 131.15 80.3 131.8 80.7 132.25 81.15 132.65 81.75 132.9 82.35 133.15 83.1 133.15 83.85 133.15 84.45 132.9 85.05 132.65 85.45 132.25 85.9 131.8 86.1 131.15 86.35 130.55 86.35 129.75 86.35 128.95 86.1 128.35 85.9 127.7 85.45 127.25 85.05 126.85 84.45 126.6 83.85 126.35 83.1 126.35 82.35 126.35 81.75 126.6 81.15 126.85 80.7 127.25
M 84.3 128.15
Q 84.7 128.7 84.7 129.75 84.7 130.8 84.3 131.35 83.95 131.95 83.1 131.95 82.25 131.95 81.85 131.35 81.45 130.8 81.45 129.75 81.45 128.7 81.85 128.15 82.25 127.55 83.1 127.55 83.95 127.55 84.3 128.15
M 79.35 126.55
Q 79.1 126.35 78.6 126.35 78.05 126.35 77.6 126.65 77.2 127 76.9 127.6
L 76.8 126.85
Q 76.75 126.65 76.65 126.55 76.55 126.45 76.3 126.45
L 75.4 126.45 75.4 133.05 76.95 133.05 76.95 129 77.2 128.5 77.5 128.15
Q 77.65 128 77.85 127.95 78.05 127.85 78.35 127.85
L 79 127.95 79.15 127.9 79.25 127.7 79.35 126.55
M 60 142.9
Q 60 143.8 60.25 144.45 60.45 145.1 60.9 145.55 61.35 146 61.95 146.2 62.55 146.45 63.2 146.45
L 63.95 146.4 64.65 146.2
Q 65 146.1 65.35 145.9 65.7 145.65 65.95 145.35
L 65.5 144.8
Q 65.4 144.65 65.2 144.65 65.05 144.65 64.9 144.75
L 64.05 145.15
Q 63.75 145.2 63.35 145.2 63 145.2 62.65 145.1 62.35 145 62.1 144.75 61.9 144.5 61.75 144.15 61.6 143.75 61.55 143.25
L 65.65 143.25
Q 65.85 143.25 65.95 143.1 66 143 66 142.65 66 141.9 65.8 141.35 65.6 140.8 65.2 140.45 64.8 140.05 64.3 139.85 63.75 139.65 63.15 139.65 62.4 139.65 61.8 139.9 61.25 140.15 60.8 140.6 60.4 141.05 60.2 141.65 60 142.25 60 142.9
M 62.1 141.2
Q 62.5 140.8 63.2 140.8 63.55 140.8 63.8 140.9 64.05 141.05 64.25 141.25 64.4 141.45 64.5 141.7 64.6 142 64.6 142.3
L 61.6 142.3
Q 61.7 141.55 62.1 141.2
M 50.25 144.65
Q 50.25 145.1 50.4 145.45 50.55 145.8 50.8 146 51.05 146.25 51.4 146.35 51.75 146.45 52.2 146.45
L 52.85 146.4 53.9 145.95 54.35 145.55 54.5 146
Q 54.6 146.2 54.7 146.3 54.8 146.35 55.05 146.35
L 55.75 146.35 55.75 142.2
Q 55.75 141.6 55.6 141.15 55.45 140.7 55.1 140.35 54.8 140 54.35 139.8 53.9 139.65 53.3 139.65 51.7 139.65 50.6 140.65
L 50.85 141.2 51.05 141.4
Q 51.15 141.45 51.35 141.45 51.55 141.45 51.7 141.4
L 52.5 141
Q 52.75 140.9 53.1 140.9 53.65 140.9 53.95 141.2 54.2 141.5 54.2 142.2
L 54.2 142.55
Q 53.45 142.6 52.9 142.7 52.3 142.8 51.85 142.9 51.4 143.05 51.1 143.25 50.8 143.45 50.6 143.7 50.45 143.9 50.35 144.15 50.25 144.4 50.25 144.65
M 54.2 143.55
L 54.2 144.65
Q 53.9 145 53.5 145.2 53.15 145.35 52.65 145.35 52.3 145.35 52.05 145.2 51.8 145 51.8 144.6 51.8 144.35 51.9 144.2 52.05 144 52.3 143.9 52.6 143.75 53.05 143.65 53.55 143.55 54.2 143.55
M 44.4 139.75
L 42.85 139.75 42.85 144.5
Q 42.5 144.85 42.15 145.05 41.8 145.2 41.4 145.2 40.8 145.2 40.55 144.9 40.25 144.55 40.25 143.95
L 40.25 139.75 38.65 139.75 38.65 143.95
Q 38.65 144.5 38.8 144.95 38.95 145.4 39.25 145.75 39.55 146.1 39.95 146.25 40.35 146.45 40.9 146.45 41.55 146.45 42.05 146.2 42.55 145.95 42.95 145.55
L 43.05 146.05
Q 43.15 146.35 43.45 146.35
L 44.4 146.35 44.4 139.75
M 47.5 140.9
L 47.4 140.15
Q 47.35 139.95 47.25 139.85 47.15 139.75 46.9 139.75
L 46 139.75 46 146.35 47.55 146.35 47.55 142.3 47.8 141.8 48.1 141.45
Q 48.25 141.3 48.45 141.25 48.65 141.15 48.95 141.15
L 49.6 141.25 49.75 141.2 49.85 141 49.95 139.85
Q 49.7 139.65 49.2 139.65 48.65 139.65 48.2 139.95 47.8 140.3 47.5 140.9
M 41 128.9
Q 41 128.3 40.85 127.85 40.7 127.4 40.35 127.05 40.05 126.7 39.6 126.5 39.15 126.35 38.55 126.35 36.95 126.35 35.85 127.35
L 36.1 127.9 36.3 128.1
Q 36.4 128.15 36.6 128.15 36.8 128.15 36.95 128.1
L 37.75 127.7
Q 38 127.6 38.35 127.6 38.9 127.6 39.2 127.9 39.45 128.2 39.45 128.9
L 39.45 129.25
Q 38.7 129.3 38.15 129.4 37.55 129.5 37.1 129.6 36.65 129.75 36.35 129.95 36.05 130.15 35.85 130.4 35.7 130.6 35.6 130.85 35.5 131.1 35.5 131.35 35.5 131.8 35.65 132.15 35.8 132.5 36.05 132.7 36.3 132.95 36.65 133.05 37 133.15 37.45 133.15
L 38.1 133.1 39.15 132.65 39.6 132.25 39.75 132.7
Q 39.85 132.9 39.95 133 40.05 133.05 40.3 133.05
L 41 133.05 41 128.9
M 39.45 130.25
L 39.45 131.35
Q 39.15 131.7 38.75 131.9 38.4 132.05 37.9 132.05 37.55 132.05 37.3 131.9 37.05 131.7 37.05 131.3 37.05 131.05 37.15 130.9 37.3 130.7 37.55 130.6 37.85 130.45 38.3 130.35 38.8 130.25 39.45 130.25
M 46.2 127.65
L 46.2 126.5 44.45 126.5 44.45 124.45 43.6 124.45
Q 43.5 124.45 43.4 124.5 43.3 124.55 43.25 124.7
L 42.95 126.5 41.85 126.7 41.85 127.3
Q 41.85 127.45 41.95 127.55 42.05 127.65 42.2 127.65
L 42.85 127.65 42.85 131.35
Q 42.85 132.2 43.3 132.65 43.75 133.15 44.65 133.15 45.1 133.15 45.55 133 46 132.85 46.35 132.55
L 45.9 131.8 45.8 131.7 45.65 131.65 45.25 131.85 45 131.9
Q 44.75 131.9 44.6 131.7 44.45 131.5 44.45 131.2
L 44.45 127.65 46.2 127.65
M 53.15 128.35
Q 52.95 127.7 52.5 127.25 52.1 126.85 51.5 126.6 50.9 126.35 50.15 126.35 49.4 126.35 48.8 126.6 48.2 126.85 47.75 127.25 47.35 127.7 47.1 128.35 46.9 128.95 46.9 129.75 46.9 130.55 47.1 131.15 47.35 131.8 47.75 132.25 48.2 132.65 48.8 132.9 49.4 133.15 50.15 133.15 50.9 133.15 51.5 132.9 52.1 132.65 52.5 132.25 52.95 131.8 53.15 131.15 53.4 130.55 53.4 129.75 53.4 128.95 53.15 128.35
M 51.35 128.15
Q 51.75 128.7 51.75 129.75 51.75 130.8 51.35 131.35 51 131.95 50.15 131.95 49.3 131.95 48.9 131.35 48.5 130.8 48.5 129.75 48.5 128.7 48.9 128.15 49.3 127.55 50.15 127.55 51 127.55 51.35 128.15
M 59.25 123.5
L 57.7 123.5 57.7 133.05 59.25 133.05 59.25 128.3
Q 59.6 127.95 59.95 127.75 60.3 127.6 60.7 127.6 61.3 127.6 61.55 127.9 61.85 128.25 61.85 128.85
L 61.85 133.05 63.45 133.05 63.45 128.85
Q 63.45 128.3 63.3 127.85 63.15 127.4 62.85 127.05 62.6 126.7 62.15 126.55 61.75 126.35 61.2 126.35 60.6 126.35 60.1 126.6 59.65 126.8 59.25 127.15
L 59.25 123.5
M 73.85 123.5
L 72.25 123.5 72.25 126.95
Q 71.95 126.7 71.6 126.5 71.2 126.35 70.65 126.35 70 126.35 69.45 126.6 68.95 126.85 68.55 127.3 68.2 127.8 68 128.4 67.8 129.05 67.8 129.75 67.8 130.6 67.95 131.2 68.15 131.85 68.45 132.25 68.8 132.7 69.25 132.9 69.7 133.15 70.25 133.15 70.9 133.15 71.45 132.85 71.95 132.6 72.35 132.15
L 72.5 132.75
Q 72.55 133.05 72.9 133.05
L 73.85 133.05 73.85 123.5
M 71.7 127.7
Q 72 127.8 72.25 128.15
L 72.25 131.1
Q 71.95 131.45 71.6 131.7 71.25 131.9 70.8 131.9 70.45 131.9 70.2 131.8 69.95 131.65 69.8 131.4 69.6 131.15 69.55 130.75 69.45 130.35 69.45 129.75 69.45 129.2 69.55 128.8 69.65 128.35 69.85 128.1 70.05 127.8 70.35 127.7 70.65 127.55 71 127.55 71.35 127.55 71.7 127.7
M 66.1 123.6
Q 65.95 123.5 65.7 123.5 65.5 123.5 65.35 123.6
L 65 123.8 64.8 124.15
Q 64.7 124.3 64.7 124.55 64.7 124.75 64.8 124.9
L 65 125.25 65.35 125.45
Q 65.5 125.55 65.7 125.55 65.95 125.55 66.1 125.45
L 66.45 125.25 66.65 124.9
Q 66.75 124.75 66.75 124.55 66.75 124.3 66.65 124.15
L 66.45 123.8 66.1 123.6 Z"/>
</g>
</defs>

<g transform="matrix( 1.07159423828125, 0, 0, 0.802642822265625, -21.4,-13.2) ">
<use xlink:href="#Layer0_0_FILL"/>
</g>

<g transform="matrix( 1.07159423828125, 0, 0, 1.07159423828125, -21.4,-5) ">
<use xlink:href="#Layer0_1_FILL"/>
</g>

<g transform="matrix( 1, 0, 0, 1, -117,-172.55) ">
<use xlink:href="#Layer0_2_FILL"/>
</g>

<g transform="matrix( 1, 0, 0, 1, 0,0) ">
<use xlink:href="#Layer0_3_FILL"/>
</g>
</svg>
