<?xml version="1.0" encoding="UTF-8"?>
<svg id="Camada_1" data-name="Camada 1" xmlns="http://www.w3.org/2000/svg" xmlns:xlink="http://www.w3.org/1999/xlink" viewBox="0 0 888 60.42">
  <defs>
    <style>
      .cls-1 {
        fill: #fff;
      }

      .cls-2 {
        fill: #cda45e;
      }

      .cls-3, .cls-4 {
        fill: none;
      }

      .cls-5 {
        clip-path: url(#clippath-1);
      }

      .cls-6 {
        isolation: isolate;
      }

      .cls-4 {
        stroke: #cda45e;
        stroke-miterlimit: 10;
      }

      .cls-7 {
        fill: #94a26e;
      }

      .cls-8 {
        clip-path: url(#clippath-2);
      }

      .cls-9 {
        clip-path: url(#clippath);
      }

      .cls-10 {
        fill: #b8be79;
      }
    </style>
    <clipPath id="clippath">
      <rect class="cls-3" x="-2.49" y="-439.59" width="896.26" height="95.41"/>
    </clipPath>
    <clipPath id="clippath-1">
      <rect class="cls-3" x="0" y="1.42" width="888" height="59"/>
    </clipPath>
    <clipPath id="clippath-2">
      <rect class="cls-3" x="0" y="-439.58" width="888" height="500"/>
    </clipPath>
  </defs>
  <g class="cls-9">
    <rect class="cls-3" x="5.76" y="-439.59" width="888" height="500"/>
    <rect class="cls-1" x="5.76" y="-439.59" width="888" height="500"/>
    <g id="Atualização_em_Fitoterapia_-_Aspectos_Clínicos_-_Telas-03" data-name="Atualização em Fitoterapia - Aspectos Clínicos - Telas-03">
      <g id="Grupo_7802" data-name="Grupo 7802">
        <g id="Grupo_7801" data-name="Grupo 7801">
          <path id="Caminho_10057" data-name="Caminho 10057" class="cls-10" d="M742.36,29.29c2.17,2.1,4.98,3.4,7.98,3.7,3.23.16,6.36-1.13,8.54-3.52"/>
          <path id="Caminho_10058" data-name="Caminho 10058" class="cls-10" d="M776.61,29.1c-2.17-2.1-4.98-3.4-7.98-3.7-3.23-.16-6.36,1.13-8.54,3.52"/>
          <path id="Caminho_10059" data-name="Caminho 10059" class="cls-10" d="M777.83,29.29c2.17,2.1,4.98,3.4,7.98,3.7,3.23.16,6.36-1.13,8.54-3.52"/>
          <path id="Caminho_10060" data-name="Caminho 10060" class="cls-10" d="M812.08,29.1c-2.17-2.1-4.98-3.4-7.98-3.7-3.23-.16-6.36,1.13-8.54,3.52"/>
          <path id="Caminho_10061" data-name="Caminho 10061" class="cls-10" d="M813.3,29.29c2.17,2.1,4.98,3.4,7.98,3.7,3.23.16,6.36-1.13,8.54-3.52"/>
          <path id="Caminho_10062" data-name="Caminho 10062" class="cls-10" d="M847.55,29.1c-2.17-2.1-4.98-3.4-7.98-3.7-3.23-.16-6.36,1.13-8.54,3.52"/>
          <path id="Caminho_10063" data-name="Caminho 10063" class="cls-10" d="M848.77,29.29c2.17,2.1,4.98,3.4,7.98,3.7,3.23.16,6.36-1.13,8.54-3.52"/>
          <path id="Caminho_10064" data-name="Caminho 10064" class="cls-10" d="M883.02,29.1c-2.17-2.1-4.98-3.4-7.98-3.7-3.23-.16-6.36,1.13-8.54,3.52"/>
        </g>
        <path id="Caminho_10065" data-name="Caminho 10065" class="cls-2" d="M5.76,29.2h107.87c5.51,0,9.98,4.47,9.98,9.98h0c0,5.51-4.47,9.98-9.98,9.98H5.76v-19.95h0Z"/>
        <line id="Linha_31" data-name="Linha 31" class="cls-4" x1="5.76" y1="29.2" x2="893.76" y2="29.2"/>
      </g>
      <g id="Grupo_7810" data-name="Grupo 7810">
        <path id="Caminho_10117" data-name="Caminho 10117" class="cls-7" d="M30.37,60.41h6.23c1.65-1.82,3.03-3.87,4.09-6.08-2.61.5-5.08,1.53-7.26,3.04-1.18.84-2.21,1.86-3.06,3.03h0Z"/>
        <path id="Caminho_10118" data-name="Caminho 10118" class="cls-7" d="M51.19,56.38c1.78-2.13,2.7-4.84,3.58-7.48-3.69.05-7.13,2.18-9.49,5.01-1.56,1.96-2.82,4.15-3.71,6.49h4.48c1.88-1.12,3.6-2.47,5.13-4.03h0Z"/>
        <path id="Caminho_10119" data-name="Caminho 10119" class="cls-7" d="M12.52,60.41h5.1c1.21-5.63-.19-11.5-3.81-15.97-2.82,4.17-4.24,9.65-2.3,14.29.24.61.58,1.18,1.01,1.68Z"/>
        <path id="Caminho_10120" data-name="Caminho 10120" class="cls-7" d="M12.99,21.98c.19,3.41,3.22,5.92,6.2,7.59,1.25.81,2.68,1.29,4.16,1.41,1.17.01,2.74.61,3.91.35,1.82,1.51,3.49,3.2,4.98,5.04.39,3.05.23,6.15-.48,9.15-1.49,3.2-2.8,6.47-3.93,9.81-.04.13-.08.26-.13.38.27-2.27.03-4.57-.69-6.74-.06-.94-.37-5.21-1.4-6.67-1.26-1.57-2.78-2.91-4.5-3.95-.99-.68-1.98-1.37-2.97-2.05,1.54,2.32.84,5.58,2.27,7.97,1.56,2.29,3.84,3.99,6.48,4.84.81,2.44.98,5.05.5,7.58-.4,1.24-.78,2.48-1.16,3.73h.17c.18-.6.35-1.2.54-1.79.07-.24.15-.47.22-.7.01,0,.02-.02.03-.04.1-.34.21-.68.33-1.02,0,0,0-.02.01-.03v-.02c2.09-5.94,6.81-10.57,11.29-14.84,1.23-1.17,2.49-2.31,3.77-3.41,3.98.05,8.02-2.18,11.02-4.79,2.97-2.76,5.43-6.01,7.28-9.61-2.92-.42-5.6,1.34-8.2,2.74-8.75,4.7-10.11,10.77-10.26,11.57-1.38,1.18-2.72,2.4-4.03,3.66-3.83,3.67-7.8,7.6-10.12,12.41,1.07-3.02,2.25-5.98,3.59-8.89.01-.01.02-.02.02-.04v-.02c1.04-2.25,2.16-4.47,3.38-6.66,2.19-3.92,4.6-7.71,7.11-11.44.39.15.81.18,1.21.09,1.94-.3,4.22-3.82,5.24-5.29,2.11-3.04,3.84-6.34,5.15-9.8-4.81,1.86-8.71,5.52-10.88,10.2-.7,1.5-1.91,3.98-.86,4.72-2.02,3.01-3.98,6.06-5.82,9.19-1.57,2.68-3.02,5.41-4.35,8.2,1.39-6.59-.36-13.02-2.06-19.43,1.12-1.46,1.68-5.37,1.57-7.19-.18-1.83-.59-3.63-1.21-5.36-.78-2.47-1.57-4.93-2.38-7.38-2.87,2-3.53,5.78-3.67,9.28-.17,4.28,4.43,9.37,5.47,10.45,1.05,3.57,1.84,7.21,2.38,10.89-1.43-1.74-3.02-3.34-4.74-4.78l.11-.03s-1.06-8.43-14.56-9.26v-.02Z"/>
      </g>
    </g>
  </g>
  <g class="cls-5">
    <g class="cls-8">
      <g id="Slide_-" data-name="Slide -">
        <rect class="cls-1" x="0" y="-439.58" width="888" height="500"/>
        <g id="Atualização_em_Fitoterapia_-_Aspectos_Clínicos_-_Telas-03-2" data-name="Atualização em Fitoterapia - Aspectos Clínicos - Telas-03">
          <g id="Grupo_7802-2" data-name="Grupo 7802">
            <g id="Grupo_7801-2" data-name="Grupo 7801">
              <path id="Caminho_10057-2" data-name="Caminho 10057" class="cls-10" d="M736.6,29.3c2.17,2.1,4.98,3.4,7.98,3.7,3.23.16,6.36-1.13,8.54-3.52"/>
              <path id="Caminho_10058-2" data-name="Caminho 10058" class="cls-10" d="M770.85,29.11c-2.17-2.1-4.98-3.4-7.98-3.7-3.23-.16-6.36,1.13-8.54,3.52"/>
              <path id="Caminho_10059-2" data-name="Caminho 10059" class="cls-10" d="M772.07,29.3c2.17,2.1,4.98,3.4,7.98,3.7,3.23.16,6.36-1.13,8.54-3.52"/>
              <path id="Caminho_10060-2" data-name="Caminho 10060" class="cls-10" d="M806.32,29.11c-2.17-2.1-4.98-3.4-7.98-3.7-3.23-.16-6.36,1.13-8.54,3.52"/>
              <path id="Caminho_10061-2" data-name="Caminho 10061" class="cls-10" d="M807.54,29.3c2.17,2.1,4.98,3.4,7.98,3.7,3.23.16,6.36-1.13,8.54-3.52"/>
              <path id="Caminho_10062-2" data-name="Caminho 10062" class="cls-10" d="M841.79,29.11c-2.17-2.1-4.98-3.4-7.98-3.7-3.23-.16-6.36,1.13-8.54,3.52"/>
              <path id="Caminho_10063-2" data-name="Caminho 10063" class="cls-10" d="M843.01,29.3c2.17,2.1,4.98,3.4,7.98,3.7,3.23.16,6.36-1.13,8.54-3.52"/>
              <path id="Caminho_10064-2" data-name="Caminho 10064" class="cls-10" d="M877.26,29.11c-2.17-2.1-4.98-3.4-7.98-3.7-3.23-.16-6.36,1.13-8.54,3.52"/>
            </g>
            <path id="Caminho_10065-2" data-name="Caminho 10065" class="cls-2" d="M0,29.21h107.87c5.51,0,9.98,4.47,9.98,9.98h0c0,5.51-4.47,9.98-9.98,9.98H0v-19.95H0Z"/>
            <line id="Linha_31-2" data-name="Linha 31" class="cls-4" x1="0" y1="29.21" x2="888" y2="29.21"/>
          </g>
          <g id="Grupo_7810-2" data-name="Grupo 7810">
            <path id="Caminho_10117-2" data-name="Caminho 10117" class="cls-7" d="M24.61,60.42h6.23c1.65-1.82,3.03-3.87,4.09-6.08-2.61.5-5.08,1.53-7.26,3.04-1.18.84-2.21,1.86-3.06,3.03h0Z"/>
            <path id="Caminho_10118-2" data-name="Caminho 10118" class="cls-7" d="M45.43,56.39c1.78-2.13,2.7-4.84,3.58-7.48-3.69.05-7.13,2.18-9.49,5.01-1.56,1.96-2.82,4.15-3.71,6.49h4.48c1.88-1.12,3.6-2.47,5.13-4.03h0Z"/>
            <path id="Caminho_10119-2" data-name="Caminho 10119" class="cls-7" d="M6.76,60.42h5.1c1.21-5.63-.19-11.5-3.81-15.97-2.82,4.17-4.24,9.65-2.3,14.29.24.61.58,1.18,1.01,1.68Z"/>
            <path id="Caminho_10120-2" data-name="Caminho 10120" class="cls-7" d="M7.23,21.99c.19,3.41,3.22,5.92,6.2,7.59,1.25.81,2.68,1.29,4.16,1.41,1.17.01,2.74.61,3.91.35,1.82,1.51,3.49,3.2,4.98,5.04.39,3.05.23,6.15-.48,9.15-1.49,3.2-2.8,6.47-3.93,9.81-.04.13-.08.26-.13.38.27-2.27.03-4.57-.69-6.74-.06-.94-.37-5.21-1.4-6.67-1.26-1.57-2.78-2.91-4.5-3.95-.99-.68-1.98-1.37-2.97-2.05,1.54,2.32.84,5.58,2.27,7.97,1.56,2.29,3.84,3.99,6.48,4.84.81,2.44.98,5.05.5,7.58-.4,1.24-.78,2.48-1.16,3.73h.17c.18-.6.35-1.2.54-1.79.07-.24.15-.47.22-.7.01,0,.02-.02.03-.04.1-.34.21-.68.33-1.02,0,0,0-.02.01-.03v-.02c2.09-5.94,6.81-10.57,11.29-14.84,1.23-1.17,2.49-2.31,3.77-3.41,3.98.05,8.02-2.18,11.02-4.79,2.97-2.76,5.43-6.01,7.28-9.61-2.92-.42-5.6,1.34-8.2,2.74-8.75,4.7-10.11,10.77-10.26,11.57-1.38,1.18-2.72,2.4-4.03,3.66-3.83,3.67-7.8,7.6-10.12,12.41,1.07-3.02,2.25-5.98,3.59-8.89.01-.01.02-.02.02-.04v-.02c1.04-2.25,2.16-4.47,3.38-6.66,2.19-3.92,4.6-7.71,7.11-11.44.39.15.81.18,1.21.09,1.94-.3,4.22-3.82,5.24-5.29,2.11-3.04,3.84-6.34,5.15-9.8-4.81,1.86-8.71,5.52-10.88,10.2-.7,1.5-1.91,3.98-.86,4.72-2.02,3.01-3.98,6.06-5.82,9.19-1.57,2.68-3.02,5.41-4.35,8.2,1.39-6.59-.36-13.02-2.06-19.43,1.12-1.46,1.68-5.37,1.57-7.19-.18-1.83-.59-3.63-1.21-5.36-.78-2.47-1.57-4.93-2.38-7.38-2.87,2-3.53,5.78-3.67,9.28-.17,4.28,4.43,9.37,5.47,10.45,1.05,3.57,1.84,7.21,2.38,10.89-1.43-1.74-3.02-3.34-4.74-4.78l.11-.03s-1.06-8.43-14.56-9.26v-.02Z"/>
          </g>
        </g>
        <g id="AULA_2" data-name="AULA 2" class="cls-6">
          <g class="cls-6">
            <path class="cls-1" d="M71.67,42.29h-1.04c-.12,0-.21-.03-.29-.09-.07-.06-.13-.13-.17-.22l-.54-1.48h-3l-.54,1.48c-.03.08-.08.15-.16.21-.08.06-.17.09-.28.09h-1.05l2.84-7.23h1.37l2.84,7.23ZM69.29,39.56l-.88-2.4c-.04-.11-.09-.23-.14-.38-.05-.15-.09-.31-.14-.48-.04.17-.09.33-.14.48s-.09.28-.13.39l-.88,2.39h2.3Z"/>
            <path class="cls-1" d="M75.15,41.21c.26,0,.49-.04.7-.13s.38-.21.52-.37c.14-.16.25-.35.32-.57.08-.22.11-.47.11-.75v-4.33h1.34v4.33c0,.43-.07.83-.21,1.19-.14.36-.34.68-.59.94-.26.27-.57.47-.94.62-.37.15-.79.22-1.25.22s-.88-.07-1.26-.22c-.37-.15-.68-.35-.94-.62-.26-.26-.46-.58-.6-.94-.14-.37-.21-.76-.21-1.19v-4.33h1.34v4.33c0,.28.04.53.11.75.08.22.18.41.33.57.14.16.32.28.52.37s.44.13.7.13Z"/>
            <path class="cls-1" d="M83.9,41.18v1.11h-4.24v-7.23h1.34v6.12h2.89Z"/>
            <path class="cls-1" d="M91.05,42.29h-1.04c-.12,0-.21-.03-.29-.09-.07-.06-.13-.13-.17-.22l-.54-1.48h-3l-.54,1.48c-.03.08-.08.15-.16.21-.08.06-.17.09-.28.09h-1.05l2.84-7.23h1.37l2.84,7.23ZM88.68,39.56l-.88-2.4c-.04-.11-.09-.23-.14-.38-.05-.15-.09-.31-.14-.48-.04.17-.09.33-.14.48s-.09.28-.13.39l-.88,2.39h2.3Z"/>
            <path class="cls-1" d="M98,41.14c.13,0,.24.04.32.11.08.07.12.17.12.3v.74h-4.96v-.41c0-.08.02-.17.05-.26.04-.09.09-.17.17-.25l2.19-2.2c.18-.19.35-.37.49-.54.14-.17.27-.34.36-.5.1-.17.17-.34.22-.51.05-.17.08-.35.08-.54,0-.17-.03-.33-.08-.46-.05-.13-.12-.24-.21-.33-.09-.09-.2-.16-.33-.2-.13-.04-.27-.07-.43-.07-.15,0-.28.02-.41.06-.12.04-.24.1-.33.17s-.18.16-.25.26c-.07.1-.12.21-.15.33-.06.15-.13.26-.22.31s-.22.06-.39.04l-.65-.12c.05-.35.15-.65.29-.91.14-.26.32-.48.54-.65s.46-.31.74-.4c.28-.09.58-.13.9-.13s.64.05.92.15c.28.1.51.24.71.42.2.18.35.4.46.65.11.25.16.54.16.84,0,.27-.04.51-.12.74s-.18.44-.31.65c-.13.21-.29.41-.46.6-.18.19-.36.39-.55.59l-1.63,1.67c.16-.05.31-.08.47-.11.16-.03.3-.04.44-.04h1.86Z"/>
          </g>
        </g>
        <g id="Aula_2_-_Formas_farmacêuticas_e_prescrição_em_fitoterapia" data-name="Aula 2 - Formas farmacêuticas e prescrição em fitoterapia" class="cls-6">
          <g class="cls-6">
            <path class="cls-7" d="M133,42.42h-1.04c-.12,0-.21-.03-.29-.09-.07-.06-.13-.13-.17-.22l-.54-1.48h-3l-.54,1.48c-.03.08-.08.15-.16.21-.08.06-.17.09-.28.09h-1.05l2.85-7.23h1.37l2.84,7.23ZM130.63,39.69l-.88-2.4c-.04-.11-.09-.23-.14-.38-.05-.15-.09-.31-.14-.48-.04.17-.09.33-.13.48s-.09.28-.13.39l-.88,2.39h2.3Z"/>
            <path class="cls-7" d="M137.86,37.29v5.13h-.75c-.16,0-.27-.08-.31-.22l-.08-.41c-.21.21-.44.39-.7.52-.25.13-.55.2-.89.2-.28,0-.53-.05-.74-.14-.21-.09-.4-.23-.54-.4-.15-.17-.26-.38-.33-.62-.07-.24-.11-.5-.11-.79v-3.26h1.24v3.26c0,.31.07.56.22.73.14.17.36.26.65.26.21,0,.41-.05.6-.14s.36-.23.53-.39v-3.71h1.23Z"/>
            <path class="cls-7" d="M140.33,34.99v7.43h-1.23v-7.43h1.23Z"/>
            <path class="cls-7" d="M141.45,38.01c.59-.54,1.3-.81,2.13-.81.3,0,.57.05.8.15.24.1.44.23.6.41.16.18.29.38.37.63s.13.51.13.8v3.24h-.56c-.12,0-.21-.02-.27-.05-.06-.04-.11-.11-.15-.21l-.11-.37c-.13.12-.26.22-.38.31-.12.09-.25.16-.38.22-.13.06-.28.11-.43.14-.15.03-.32.05-.5.05-.22,0-.42-.03-.6-.09-.18-.06-.34-.15-.47-.26-.13-.12-.24-.26-.31-.44-.07-.17-.11-.38-.11-.6,0-.13.02-.26.06-.39.04-.13.11-.25.21-.37.1-.12.23-.23.38-.33.16-.1.35-.19.58-.27.23-.08.49-.14.8-.19.3-.05.65-.08,1.04-.09v-.3c0-.34-.07-.6-.22-.76s-.36-.25-.63-.25c-.2,0-.37.02-.5.07-.13.05-.25.1-.35.16-.1.06-.19.11-.27.16-.08.05-.17.07-.27.07-.09,0-.16-.02-.22-.07-.06-.04-.11-.1-.14-.16l-.22-.4ZM144.27,40.23c-.36.02-.66.05-.9.09s-.44.1-.58.17c-.15.07-.25.15-.32.25-.06.09-.09.19-.09.3,0,.22.06.37.19.46.13.09.3.14.5.14.25,0,.47-.05.66-.14.18-.09.37-.23.54-.42v-.87Z"/>
            <path class="cls-7" d="M153.36,41.27c.13,0,.24.04.32.11.08.07.12.17.12.3v.74h-4.96v-.41c0-.08.02-.17.05-.26.03-.09.09-.17.17-.25l2.2-2.2c.18-.19.35-.37.49-.54.15-.17.27-.34.36-.5.1-.17.17-.34.22-.51.05-.17.08-.35.08-.54,0-.17-.03-.33-.08-.46-.05-.13-.12-.24-.21-.33s-.2-.16-.33-.2c-.13-.04-.27-.07-.43-.07-.15,0-.28.02-.41.06-.12.04-.24.1-.33.17s-.18.16-.25.26c-.07.1-.12.21-.15.33-.06.15-.13.26-.22.31s-.22.06-.39.04l-.65-.12c.05-.35.15-.65.29-.91.14-.26.32-.48.54-.65s.46-.31.74-.4c.28-.09.58-.13.9-.13s.64.05.92.15c.28.1.51.24.71.42s.35.4.46.65c.11.25.17.54.17.84,0,.27-.04.51-.12.74-.08.23-.18.44-.32.65-.13.21-.29.41-.46.6-.18.19-.36.39-.56.59l-1.63,1.67c.16-.05.31-.08.47-.11.16-.03.3-.04.44-.04h1.85Z"/>
            <path class="cls-7" d="M157.26,38.89h2.59v1.03h-2.59v-1.03Z"/>
            <path class="cls-7" d="M165,36.26v2.14h2.71v1.07h-2.71v2.95h-1.35v-7.23h4.56v1.07h-3.21Z"/>
            <path class="cls-7" d="M170.94,37.21c.38,0,.73.06,1.04.18.31.12.58.3.8.53s.39.5.51.83c.12.33.18.69.18,1.09s-.06.77-.18,1.1c-.12.33-.29.6-.51.83-.22.23-.49.41-.8.53-.31.12-.66.19-1.04.19s-.73-.06-1.04-.19c-.31-.12-.58-.3-.8-.53-.22-.23-.39-.51-.51-.83-.12-.33-.18-.69-.18-1.1s.06-.77.18-1.09c.12-.33.29-.6.51-.83s.49-.4.8-.53c.31-.12.66-.18,1.04-.18ZM170.94,41.55c.43,0,.74-.14.95-.43.21-.29.31-.71.31-1.26s-.1-.97-.31-1.26-.52-.43-.95-.43-.75.15-.96.44c-.21.29-.31.71-.31,1.26s.1.97.31,1.26c.21.29.53.43.96.43Z"/>
            <path class="cls-7" d="M175.58,38.18c.16-.31.35-.55.57-.72.22-.17.48-.26.78-.26.24,0,.43.05.57.15l-.08.93c-.02.06-.04.1-.07.13-.03.03-.07.04-.13.04-.05,0-.12,0-.22-.02-.1-.02-.19-.03-.29-.03-.14,0-.26.02-.37.06s-.2.1-.29.17c-.08.08-.16.17-.23.27-.06.11-.12.23-.18.37v3.16h-1.24v-5.13h.72c.13,0,.21.02.27.07.05.04.08.13.1.24l.08.58Z"/>
            <path class="cls-7" d="M178.14,42.42v-5.13h.76c.16,0,.26.08.31.22l.08.38c.09-.1.18-.19.28-.27.1-.08.2-.16.32-.21.11-.06.23-.11.36-.14.13-.04.27-.05.42-.05.32,0,.59.09.8.26.21.17.36.41.47.7.08-.17.18-.32.3-.44s.25-.22.39-.3c.14-.08.3-.13.46-.17.16-.04.32-.05.49-.05.28,0,.54.04.75.13s.41.21.55.38c.15.17.26.37.34.61s.12.51.12.83v3.26h-1.23v-3.26c0-.33-.07-.57-.21-.74-.14-.17-.35-.25-.63-.25-.13,0-.24.02-.35.07-.11.04-.2.11-.28.19-.08.08-.15.18-.19.31-.05.12-.07.27-.07.43v3.26h-1.24v-3.26c0-.34-.07-.59-.21-.75-.14-.16-.34-.24-.61-.24-.18,0-.35.04-.5.13-.16.09-.3.21-.43.36v3.75h-1.24Z"/>
            <path class="cls-7" d="M186.4,38.01c.59-.54,1.3-.81,2.13-.81.3,0,.57.05.8.15.24.1.44.23.6.41.16.18.29.38.37.63s.13.51.13.8v3.24h-.56c-.12,0-.21-.02-.27-.05-.06-.04-.11-.11-.15-.21l-.11-.37c-.13.12-.26.22-.38.31-.12.09-.25.16-.38.22-.13.06-.28.11-.43.14-.15.03-.32.05-.5.05-.22,0-.42-.03-.6-.09-.18-.06-.34-.15-.47-.26-.13-.12-.24-.26-.31-.44-.07-.17-.11-.38-.11-.6,0-.13.02-.26.06-.39.04-.13.11-.25.21-.37.1-.12.23-.23.38-.33.16-.1.35-.19.58-.27.23-.08.49-.14.8-.19.3-.05.65-.08,1.04-.09v-.3c0-.34-.07-.6-.22-.76s-.36-.25-.63-.25c-.2,0-.37.02-.5.07-.13.05-.25.1-.35.16-.1.06-.19.11-.27.16-.08.05-.17.07-.27.07-.09,0-.16-.02-.22-.07-.06-.04-.11-.1-.14-.16l-.22-.4ZM189.23,40.23c-.36.02-.66.05-.9.09s-.44.1-.58.17c-.15.07-.25.15-.32.25-.06.09-.09.19-.09.3,0,.22.06.37.19.46.13.09.3.14.5.14.25,0,.47-.05.66-.14.18-.09.37-.23.54-.42v-.87Z"/>
            <path class="cls-7" d="M194.72,38.29c-.03.05-.07.09-.11.11-.04.02-.08.03-.14.03-.06,0-.12-.02-.19-.05s-.15-.07-.24-.11-.19-.08-.31-.11-.25-.05-.41-.05c-.24,0-.43.05-.57.15-.14.1-.21.24-.21.41,0,.11.04.2.11.28s.17.14.29.2.25.11.4.15c.15.04.3.09.46.15.16.05.31.11.46.18.15.07.28.16.4.26.12.1.21.23.29.38.07.15.11.32.11.53,0,.25-.04.47-.13.68-.09.21-.22.39-.39.54-.17.15-.39.27-.64.35-.26.08-.55.13-.88.13-.18,0-.35-.02-.52-.05-.17-.03-.33-.08-.49-.13-.15-.06-.3-.12-.43-.2-.13-.08-.25-.16-.35-.25l.29-.47c.04-.06.08-.1.13-.13.05-.03.11-.04.19-.04s.15.02.22.07.15.09.24.14c.09.05.2.1.32.14.12.04.28.06.46.06.15,0,.27-.02.38-.05.1-.03.19-.08.26-.14s.12-.12.15-.2c.03-.07.05-.15.05-.23,0-.12-.04-.22-.11-.29-.07-.08-.17-.14-.29-.2-.12-.06-.25-.11-.4-.15-.15-.04-.31-.09-.46-.15-.16-.05-.31-.12-.47-.19-.15-.07-.29-.16-.4-.27-.12-.11-.21-.25-.29-.41-.07-.16-.11-.35-.11-.58,0-.21.04-.41.12-.6.08-.19.21-.36.37-.5s.36-.25.61-.34c.24-.09.52-.13.84-.13.35,0,.67.06.96.17.29.12.53.27.73.46l-.28.45Z"/>
            <path class="cls-7" d="M198.78,42.42v-4.2l-.45-.07c-.1-.02-.17-.05-.23-.1-.06-.05-.09-.12-.09-.21v-.5h.77v-.38c0-.29.04-.56.13-.79.09-.23.21-.43.38-.59.17-.16.37-.29.6-.38.24-.09.5-.13.8-.13.24,0,.46.03.66.1l-.02.62s-.02.08-.04.11-.05.05-.09.06c-.04.02-.08.03-.13.03-.05,0-.1,0-.16,0-.15,0-.28.02-.39.05-.12.03-.21.09-.29.17-.08.08-.14.18-.18.31-.04.13-.06.29-.06.48v.34h1.33v.88h-1.29v4.21h-1.23Z"/>
            <path class="cls-7" d="M201.87,38.01c.59-.54,1.3-.81,2.13-.81.3,0,.57.05.8.15.24.1.44.23.6.41.16.18.29.38.37.63s.13.51.13.8v3.24h-.56c-.12,0-.21-.02-.27-.05-.06-.04-.11-.11-.15-.21l-.11-.37c-.13.12-.26.22-.38.31-.12.09-.25.16-.38.22-.13.06-.28.11-.43.14-.15.03-.32.05-.5.05-.22,0-.42-.03-.6-.09-.18-.06-.34-.15-.47-.26-.13-.12-.24-.26-.31-.44-.07-.17-.11-.38-.11-.6,0-.13.02-.26.06-.39.04-.13.11-.25.21-.37.1-.12.23-.23.38-.33.16-.1.35-.19.58-.27.23-.08.49-.14.8-.19.3-.05.65-.08,1.04-.09v-.3c0-.34-.07-.6-.22-.76s-.36-.25-.63-.25c-.2,0-.37.02-.5.07-.13.05-.25.1-.35.16-.1.06-.19.11-.27.16-.08.05-.17.07-.27.07-.09,0-.16-.02-.22-.07-.06-.04-.11-.1-.14-.16l-.22-.4ZM204.7,40.23c-.36.02-.66.05-.9.09s-.44.1-.58.17c-.15.07-.25.15-.32.25-.06.09-.09.19-.09.3,0,.22.06.37.19.46.13.09.3.14.5.14.25,0,.47-.05.66-.14.18-.09.37-.23.54-.42v-.87Z"/>
            <path class="cls-7" d="M208.23,38.18c.16-.31.35-.55.57-.72.22-.17.48-.26.78-.26.24,0,.43.05.57.15l-.08.93c-.02.06-.04.1-.07.13-.03.03-.07.04-.13.04-.05,0-.12,0-.22-.02-.1-.02-.19-.03-.29-.03-.14,0-.26.02-.37.06s-.2.1-.29.17c-.08.08-.16.17-.23.27-.06.11-.12.23-.18.37v3.16h-1.24v-5.13h.72c.13,0,.21.02.27.07.05.04.08.13.1.24l.08.58Z"/>
            <path class="cls-7" d="M210.79,42.42v-5.13h.76c.16,0,.26.08.31.22l.08.38c.09-.1.18-.19.28-.27.1-.08.2-.16.32-.21.11-.06.23-.11.36-.14.13-.04.27-.05.42-.05.32,0,.59.09.8.26.21.17.36.41.47.7.08-.17.18-.32.3-.44s.25-.22.39-.3c.14-.08.3-.13.46-.17.16-.04.32-.05.49-.05.28,0,.54.04.75.13s.41.21.55.38c.15.17.26.37.34.61s.12.51.12.83v3.26h-1.23v-3.26c0-.33-.07-.57-.21-.74-.14-.17-.35-.25-.63-.25-.13,0-.24.02-.35.07-.11.04-.2.11-.28.19-.08.08-.15.18-.19.31-.05.12-.07.27-.07.43v3.26h-1.24v-3.26c0-.34-.07-.59-.21-.75-.14-.16-.34-.24-.61-.24-.18,0-.35.04-.5.13-.16.09-.3.21-.43.36v3.75h-1.24Z"/>
            <path class="cls-7" d="M219.05,38.01c.59-.54,1.3-.81,2.13-.81.3,0,.57.05.8.15.24.1.44.23.6.41.16.18.29.38.37.63s.13.51.13.8v3.24h-.56c-.12,0-.21-.02-.27-.05-.06-.04-.11-.11-.15-.21l-.11-.37c-.13.12-.26.22-.38.31-.12.09-.25.16-.38.22-.13.06-.28.11-.43.14-.15.03-.32.05-.5.05-.22,0-.42-.03-.6-.09-.18-.06-.34-.15-.47-.26-.13-.12-.24-.26-.31-.44-.07-.17-.11-.38-.11-.6,0-.13.02-.26.06-.39.04-.13.11-.25.21-.37.1-.12.23-.23.38-.33.16-.1.35-.19.58-.27.23-.08.49-.14.8-.19.3-.05.65-.08,1.04-.09v-.3c0-.34-.07-.6-.22-.76s-.36-.25-.63-.25c-.2,0-.37.02-.5.07-.13.05-.25.1-.35.16-.1.06-.19.11-.27.16-.08.05-.17.07-.27.07-.09,0-.16-.02-.22-.07-.06-.04-.11-.1-.14-.16l-.22-.4ZM221.88,40.23c-.36.02-.66.05-.9.09s-.44.1-.58.17c-.15.07-.25.15-.32.25-.06.09-.09.19-.09.3,0,.22.06.37.19.46.13.09.3.14.5.14.25,0,.47-.05.66-.14.18-.09.37-.23.54-.42v-.87Z"/>
            <path class="cls-7" d="M227.92,38.38s-.07.08-.11.11c-.04.03-.09.04-.15.04s-.12-.02-.19-.06c-.06-.04-.13-.08-.21-.13-.08-.05-.18-.09-.3-.13-.12-.04-.26-.06-.43-.06-.22,0-.41.04-.57.12s-.3.19-.41.34c-.11.15-.19.32-.24.53-.05.21-.08.44-.08.71s.03.52.09.73c.06.21.14.39.25.54.11.15.24.25.4.33.16.08.33.11.53.11s.36-.02.48-.07c.12-.05.22-.1.31-.16s.16-.11.22-.16c.06-.05.13-.07.21-.07.1,0,.17.04.23.12l.35.45c-.14.16-.29.29-.45.4-.16.11-.33.19-.5.26s-.35.11-.53.14c-.18.03-.36.04-.54.04-.32,0-.62-.06-.9-.18-.28-.12-.52-.29-.73-.52s-.38-.5-.5-.83c-.12-.33-.18-.7-.18-1.12,0-.38.05-.73.16-1.05.11-.32.27-.6.48-.83.21-.24.47-.42.78-.55.31-.13.67-.2,1.07-.2s.72.06,1.01.18c.29.12.55.3.78.53l-.33.45Z"/>
            <path class="cls-7" d="M229.92,40.01c.02.26.07.49.14.68s.17.35.29.47.26.22.43.28.35.09.55.09.37-.02.52-.07c.15-.05.27-.1.38-.16.11-.06.2-.11.29-.15.08-.05.16-.07.24-.07.1,0,.18.04.23.12l.36.45c-.14.16-.29.29-.46.4-.17.11-.35.19-.53.26-.18.07-.37.11-.56.14-.19.03-.38.04-.56.04-.36,0-.69-.06-1-.18s-.57-.29-.8-.53c-.23-.23-.41-.52-.54-.86s-.2-.74-.2-1.19c0-.35.06-.68.17-.99.11-.31.28-.58.49-.81.21-.23.47-.41.78-.54.3-.13.65-.2,1.03-.2.32,0,.62.05.9.16s.51.25.71.45c.2.2.35.44.46.73.11.29.17.62.17.99,0,.19-.02.31-.06.38-.04.07-.12.1-.23.1h-3.17ZM232.91,36.58h-.82s-.09,0-.14-.03c-.05-.02-.1-.05-.14-.1l-.49-.52s-.07-.07-.1-.12c-.04.05-.07.09-.11.12l-.5.52s-.08.08-.13.09c-.05.02-.1.03-.15.03h-.85l1.14-1.39h1.16l1.14,1.39ZM232.28,39.27c0-.16-.02-.31-.07-.45s-.11-.27-.2-.37c-.09-.11-.2-.19-.34-.25s-.3-.09-.48-.09c-.36,0-.64.1-.84.31-.21.2-.34.49-.39.86h2.33Z"/>
            <path class="cls-7" d="M238.73,37.29v5.13h-.75c-.16,0-.27-.08-.31-.22l-.08-.41c-.21.21-.44.39-.69.52-.25.13-.55.2-.9.2-.28,0-.53-.05-.74-.14s-.4-.23-.54-.4c-.15-.17-.26-.38-.33-.62s-.11-.5-.11-.79v-3.26h1.23v3.26c0,.31.07.56.22.73.15.17.36.26.65.26.21,0,.41-.05.6-.14.19-.09.36-.23.53-.39v-3.71h1.24Z"/>
            <path class="cls-7" d="M245.13,42.42h-1.24v-4.21h-2.38v2.78c0,.16.04.29.12.38s.19.13.32.13c.08,0,.14,0,.19-.03.05-.02.1-.04.13-.06.04-.02.07-.04.1-.06.03-.02.06-.03.09-.03.04,0,.07,0,.09.03s.05.05.08.08l.37.6c-.18.15-.39.26-.62.34-.23.08-.48.12-.73.12-.45,0-.79-.13-1.03-.38-.24-.25-.36-.6-.36-1.04v-2.87h-.52c-.07,0-.12-.02-.17-.06-.05-.04-.07-.11-.07-.2v-.49l.83-.14.26-1.4c.02-.07.05-.12.09-.15.05-.04.11-.06.18-.06h.64v1.62h3.62v5.08ZM245.34,35.78c0,.11-.02.21-.07.3-.04.1-.1.18-.17.25-.07.07-.16.13-.26.17-.1.04-.2.06-.31.06s-.21-.02-.3-.06c-.09-.04-.17-.1-.25-.17-.07-.07-.13-.15-.17-.25-.04-.09-.06-.2-.06-.3s.02-.21.06-.31c.04-.1.1-.18.17-.25.07-.07.15-.13.25-.17.09-.04.19-.06.3-.06s.21.02.31.06c.1.04.18.1.26.17s.13.15.17.25c.04.09.07.2.07.31Z"/>
            <path class="cls-7" d="M250.06,38.38s-.07.08-.11.11c-.04.03-.09.04-.15.04-.06,0-.12-.02-.18-.06-.06-.04-.13-.08-.21-.13-.08-.05-.18-.09-.3-.13-.12-.04-.26-.06-.43-.06-.22,0-.41.04-.57.12-.16.08-.3.19-.41.34-.11.15-.19.32-.24.53-.05.21-.08.44-.08.71s.03.52.09.73c.06.21.14.39.25.54.11.15.24.25.4.33.16.08.33.11.53.11s.36-.02.48-.07c.12-.05.22-.1.31-.16.08-.06.16-.11.22-.16.06-.05.13-.07.21-.07.1,0,.17.04.22.12l.36.45c-.14.16-.29.29-.45.4s-.33.19-.5.26c-.17.07-.35.11-.53.14-.18.03-.36.04-.54.04-.32,0-.62-.06-.89-.18-.28-.12-.53-.29-.74-.52s-.38-.5-.5-.83c-.12-.33-.18-.7-.18-1.12,0-.38.05-.73.16-1.05.11-.32.27-.6.48-.83.21-.24.47-.42.78-.55.31-.13.67-.2,1.07-.2s.72.06,1.01.18c.29.12.55.3.78.53l-.32.45Z"/>
            <path class="cls-7" d="M251.09,38.01c.59-.54,1.3-.81,2.13-.81.3,0,.57.05.8.15.24.1.44.23.6.41.16.18.29.38.37.63s.13.51.13.8v3.24h-.56c-.12,0-.21-.02-.27-.05-.06-.04-.11-.11-.15-.21l-.11-.37c-.13.12-.26.22-.38.31-.12.09-.25.16-.38.22-.13.06-.28.11-.43.14-.15.03-.32.05-.5.05-.22,0-.42-.03-.6-.09-.18-.06-.34-.15-.47-.26-.13-.12-.24-.26-.31-.44-.07-.17-.11-.38-.11-.6,0-.13.02-.26.06-.39.04-.13.11-.25.21-.37.1-.12.23-.23.38-.33.16-.1.35-.19.58-.27.23-.08.49-.14.8-.19.3-.05.65-.08,1.04-.09v-.3c0-.34-.07-.6-.22-.76s-.36-.25-.63-.25c-.2,0-.37.02-.5.07-.13.05-.25.1-.35.16-.1.06-.19.11-.27.16-.08.05-.17.07-.27.07-.09,0-.16-.02-.22-.07-.06-.04-.11-.1-.14-.16l-.22-.4ZM253.92,40.23c-.36.02-.66.05-.9.09s-.44.1-.58.17c-.15.07-.25.15-.32.25-.06.09-.09.19-.09.3,0,.22.06.37.19.46.13.09.3.14.5.14.25,0,.47-.05.66-.14.18-.09.37-.23.54-.42v-.87Z"/>
            <path class="cls-7" d="M259.41,38.29c-.03.05-.07.09-.11.11-.04.02-.08.03-.14.03-.06,0-.12-.02-.19-.05s-.15-.07-.24-.11-.19-.08-.31-.11-.25-.05-.41-.05c-.24,0-.43.05-.57.15-.14.1-.21.24-.21.41,0,.11.04.2.11.28s.17.14.29.2.25.11.4.15c.15.04.3.09.46.15.16.05.31.11.46.18.15.07.28.16.4.26.12.1.21.23.29.38.07.15.11.32.11.53,0,.25-.04.47-.13.68-.09.21-.22.39-.39.54-.17.15-.39.27-.64.35-.26.08-.55.13-.88.13-.18,0-.35-.02-.52-.05-.17-.03-.33-.08-.49-.13-.15-.06-.3-.12-.43-.2-.13-.08-.25-.16-.35-.25l.29-.47c.04-.06.08-.1.13-.13.05-.03.11-.04.19-.04s.15.02.22.07.15.09.24.14c.09.05.2.1.32.14.12.04.28.06.46.06.15,0,.27-.02.38-.05.1-.03.19-.08.26-.14s.12-.12.15-.2c.03-.07.05-.15.05-.23,0-.12-.04-.22-.11-.29-.07-.08-.17-.14-.29-.2-.12-.06-.25-.11-.4-.15-.15-.04-.31-.09-.46-.15-.16-.05-.31-.12-.47-.19-.15-.07-.29-.16-.4-.27-.12-.11-.21-.25-.29-.41-.07-.16-.11-.35-.11-.58,0-.21.04-.41.12-.6.08-.19.21-.36.37-.5s.36-.25.61-.34c.24-.09.52-.13.84-.13.35,0,.67.06.96.17.29.12.53.27.73.46l-.28.45Z"/>
            <path class="cls-7" d="M264.06,40.01c.02.26.07.49.14.68.07.19.17.35.29.47.12.12.26.22.43.28s.35.09.55.09.37-.02.52-.07c.14-.05.27-.1.38-.16.11-.06.2-.11.29-.15.08-.05.16-.07.24-.07.1,0,.18.04.23.12l.35.45c-.14.16-.29.29-.46.4s-.35.19-.53.26c-.19.07-.37.11-.57.14-.19.03-.38.04-.56.04-.36,0-.69-.06-1-.18s-.57-.29-.8-.53c-.23-.23-.41-.52-.54-.86s-.19-.74-.19-1.19c0-.35.06-.68.17-.99.11-.31.28-.58.49-.81.21-.23.47-.41.78-.54.3-.13.65-.2,1.03-.2.32,0,.62.05.89.16s.51.25.71.45c.2.2.35.44.46.73.11.29.17.62.17.99,0,.19-.02.31-.06.38-.04.07-.12.1-.23.1h-3.17ZM266.41,39.27c0-.16-.02-.31-.07-.45s-.11-.27-.2-.37c-.09-.11-.2-.19-.34-.25-.14-.06-.3-.09-.48-.09-.36,0-.64.1-.84.31-.21.2-.34.49-.39.86h2.33Z"/>
            <path class="cls-7" d="M272.05,37.99c.21-.24.45-.43.71-.58s.58-.22.94-.22c.28,0,.54.06.77.17.23.12.43.29.6.51.17.22.3.5.39.82s.14.7.14,1.12c0,.38-.05.74-.16,1.07-.1.33-.25.61-.44.85-.19.24-.42.43-.69.56-.27.14-.58.2-.91.2-.29,0-.53-.04-.73-.13-.2-.09-.39-.21-.54-.37v2.1h-1.24v-6.8h.75c.16,0,.26.08.32.22l.1.48ZM272.11,41.09c.14.17.29.29.46.36.17.07.34.1.54.1s.36-.04.51-.1c.15-.07.28-.18.38-.32.11-.14.19-.32.24-.54.06-.22.08-.48.08-.77s-.02-.55-.07-.76c-.05-.21-.12-.38-.21-.51s-.2-.22-.33-.29c-.13-.06-.27-.09-.44-.09-.26,0-.47.05-.65.16-.18.11-.35.26-.51.46v2.3Z"/>
            <path class="cls-7" d="M277.72,38.18c.16-.31.35-.55.57-.72.22-.17.48-.26.78-.26.24,0,.43.05.57.15l-.08.93c-.02.06-.04.1-.07.13-.03.03-.07.04-.13.04-.05,0-.12,0-.22-.02s-.19-.03-.29-.03c-.14,0-.26.02-.36.06-.11.04-.2.1-.29.17-.08.08-.16.17-.22.27-.07.11-.13.23-.18.37v3.16h-1.24v-5.13h.73c.13,0,.21.02.26.07s.08.13.1.24l.07.58Z"/>
            <path class="cls-7" d="M281.09,40.01c.02.26.07.49.14.68.07.19.17.35.29.47.12.12.26.22.43.28s.35.09.55.09.37-.02.52-.07c.14-.05.27-.1.38-.16.11-.06.2-.11.29-.15.08-.05.16-.07.24-.07.1,0,.18.04.23.12l.35.45c-.14.16-.29.29-.46.4s-.35.19-.53.26c-.19.07-.37.11-.57.14-.19.03-.38.04-.56.04-.36,0-.69-.06-1-.18s-.57-.29-.8-.53c-.23-.23-.41-.52-.54-.86s-.19-.74-.19-1.19c0-.35.06-.68.17-.99.11-.31.28-.58.49-.81.21-.23.47-.41.78-.54.3-.13.65-.2,1.03-.2.32,0,.62.05.89.16s.51.25.71.45c.2.2.35.44.46.73.11.29.17.62.17.99,0,.19-.02.31-.06.38-.04.07-.12.1-.23.1h-3.17ZM283.45,39.27c0-.16-.02-.31-.07-.45s-.11-.27-.2-.37c-.09-.11-.2-.19-.34-.25-.14-.06-.3-.09-.48-.09-.36,0-.64.1-.84.31-.21.2-.34.49-.39.86h2.33Z"/>
            <path class="cls-7" d="M288.61,38.29c-.03.05-.07.09-.11.11s-.08.03-.14.03c-.06,0-.12-.02-.19-.05-.07-.03-.15-.07-.24-.11s-.19-.08-.31-.11c-.11-.03-.25-.05-.41-.05-.24,0-.43.05-.57.15-.14.1-.21.24-.21.41,0,.11.04.2.11.28.07.08.17.14.28.2s.25.11.4.15c.15.04.3.09.46.15.16.05.31.11.46.18.15.07.28.16.4.26.12.1.21.23.28.38.07.15.11.32.11.53,0,.25-.04.47-.13.68-.09.21-.22.39-.39.54-.17.15-.39.27-.64.35s-.55.13-.88.13c-.18,0-.35-.02-.52-.05-.17-.03-.33-.08-.48-.13s-.3-.12-.43-.2c-.13-.08-.25-.16-.35-.25l.28-.47c.04-.06.08-.1.13-.13.05-.03.11-.04.19-.04s.15.02.22.07.15.09.24.14.2.1.32.14c.12.04.28.06.46.06.15,0,.27-.02.38-.05.11-.03.19-.08.26-.14s.12-.12.15-.2c.03-.07.05-.15.05-.23,0-.12-.04-.22-.11-.29-.07-.08-.17-.14-.29-.2s-.25-.11-.41-.15-.31-.09-.46-.15c-.16-.05-.31-.12-.46-.19-.15-.07-.29-.16-.41-.27-.12-.11-.21-.25-.29-.41-.07-.16-.11-.35-.11-.58,0-.21.04-.41.12-.6.08-.19.21-.36.37-.5.16-.14.36-.25.6-.34.24-.09.52-.13.84-.13.35,0,.67.06.96.17.29.12.53.27.72.46l-.28.45Z"/>
            <path class="cls-7" d="M293.55,38.38s-.07.08-.11.11c-.04.03-.09.04-.15.04s-.12-.02-.19-.06c-.06-.04-.13-.08-.21-.13-.08-.05-.18-.09-.3-.13-.12-.04-.26-.06-.43-.06-.22,0-.41.04-.57.12s-.3.19-.41.34c-.11.15-.19.32-.24.53-.05.21-.08.44-.08.71s.03.52.09.73c.06.21.14.39.25.54.11.15.24.25.4.33.16.08.33.11.53.11s.36-.02.48-.07c.12-.05.22-.1.31-.16s.16-.11.22-.16c.06-.05.13-.07.21-.07.1,0,.17.04.23.12l.35.45c-.14.16-.29.29-.45.4-.16.11-.33.19-.5.26s-.35.11-.53.14c-.18.03-.36.04-.54.04-.32,0-.62-.06-.9-.18-.28-.12-.52-.29-.73-.52s-.38-.5-.5-.83c-.12-.33-.18-.7-.18-1.12,0-.38.05-.73.16-1.05.11-.32.27-.6.48-.83.21-.24.47-.42.78-.55.31-.13.67-.2,1.07-.2s.72.06,1.01.18c.29.12.55.3.78.53l-.33.45Z"/>
            <path class="cls-7" d="M295.86,38.18c.16-.31.35-.55.57-.72.22-.17.48-.26.78-.26.24,0,.43.05.57.15l-.08.93c-.02.06-.04.1-.07.13-.03.03-.07.04-.13.04-.05,0-.12,0-.22-.02s-.19-.03-.29-.03c-.14,0-.26.02-.36.06-.11.04-.2.1-.29.17-.08.08-.16.17-.22.27-.07.11-.13.23-.18.37v3.16h-1.24v-5.13h.73c.13,0,.21.02.26.07s.08.13.1.24l.07.58Z"/>
            <path class="cls-7" d="M299.88,35.8c0,.11-.02.21-.07.3-.04.09-.1.17-.17.25-.07.07-.16.13-.25.17-.1.04-.2.06-.31.06s-.21-.02-.3-.06c-.1-.04-.18-.1-.25-.17-.07-.07-.13-.15-.17-.25-.04-.09-.06-.19-.06-.3s.02-.21.06-.31c.04-.1.1-.18.17-.25s.15-.13.25-.17c.09-.04.2-.06.3-.06s.21.02.31.06.18.1.25.17c.07.07.13.15.17.25s.07.2.07.31ZM299.71,37.29v5.13h-1.24v-5.13h1.24Z"/>
            <path class="cls-7" d="M305.02,41.66c-.23.27-.48.46-.77.59s-.58.2-.88.23l-.06.25c.31.07.53.17.66.3s.19.27.19.45c0,.11-.03.21-.09.31-.06.09-.14.17-.25.23-.11.06-.24.11-.39.15-.15.03-.31.05-.49.05-.14,0-.26,0-.38-.03-.12-.02-.24-.05-.35-.08l.11-.38c.02-.08.07-.12.15-.12.05,0,.1.01.15.04.06.03.14.04.25.04s.19-.02.25-.06c.05-.04.08-.09.08-.15,0-.1-.06-.17-.18-.21-.12-.04-.31-.08-.56-.12l.22-.66c-.28-.04-.54-.13-.78-.26-.24-.13-.45-.31-.62-.53s-.32-.49-.42-.79c-.1-.31-.15-.65-.15-1.04s.05-.73.16-1.05c.11-.32.27-.6.48-.83.21-.24.47-.42.78-.55.31-.13.67-.2,1.07-.2s.72.06,1.01.18c.29.12.55.3.78.53l-.33.45s-.07.08-.11.11c-.04.03-.09.04-.15.04s-.12-.02-.19-.06c-.06-.04-.13-.08-.21-.13-.08-.05-.18-.09-.3-.13-.12-.04-.26-.06-.43-.06-.22,0-.41.04-.57.12s-.3.19-.41.34c-.11.15-.19.32-.24.53-.05.21-.08.44-.08.71s.03.52.09.73c.06.21.14.39.25.54.11.15.24.25.4.33.16.08.33.11.53.11s.36-.02.48-.07c.12-.05.22-.1.31-.16s.16-.11.22-.16c.06-.05.13-.07.21-.07.1,0,.17.04.23.12l.35.45Z"/>
            <path class="cls-7" d="M305.68,38.01c.59-.54,1.3-.81,2.13-.81.3,0,.57.05.8.15.24.1.44.23.6.41.16.18.29.38.37.63s.13.51.13.8v3.24h-.56c-.12,0-.21-.02-.27-.05-.06-.04-.11-.11-.15-.21l-.11-.37c-.13.12-.26.22-.38.31-.12.09-.25.16-.38.22-.13.06-.28.11-.43.14-.15.03-.32.05-.5.05-.22,0-.42-.03-.6-.09-.18-.06-.34-.15-.47-.26-.13-.12-.24-.26-.31-.44-.07-.17-.11-.38-.11-.6,0-.13.02-.26.06-.39.04-.13.11-.25.21-.37.1-.12.23-.23.38-.33.16-.1.35-.19.58-.27.23-.08.49-.14.8-.19.3-.05.65-.08,1.04-.09v-.3c0-.34-.07-.6-.22-.76s-.36-.25-.63-.25c-.2,0-.37.02-.5.07-.13.05-.25.1-.35.16-.1.06-.19.11-.27.16-.08.05-.17.07-.27.07-.09,0-.16-.02-.22-.07-.06-.04-.11-.1-.14-.16l-.22-.4ZM308.23,35.63c.1,0,.18-.03.23-.08.06-.05.08-.15.08-.3h.75c0,.19-.03.36-.08.51-.05.15-.12.28-.21.39-.09.11-.2.19-.32.25s-.26.09-.41.09c-.12,0-.23-.02-.33-.06s-.2-.09-.29-.14c-.09-.05-.17-.1-.25-.14-.08-.04-.15-.06-.22-.06-.1,0-.17.03-.23.09-.06.06-.08.16-.08.3h-.76c0-.19.03-.36.08-.51.05-.15.12-.28.22-.39.09-.11.2-.19.33-.25.12-.06.26-.09.41-.09.12,0,.23.02.34.07.11.04.2.09.29.14.09.05.17.1.25.14.08.04.15.07.21.07ZM308.51,40.23c-.36.02-.66.05-.9.09s-.44.1-.58.17c-.15.07-.25.15-.32.25-.06.09-.09.19-.09.3,0,.22.06.37.19.46.13.09.3.14.5.14.25,0,.47-.05.66-.14.18-.09.37-.23.54-.42v-.87Z"/>
            <path class="cls-7" d="M313.14,37.21c.38,0,.73.06,1.04.18.31.12.58.3.8.53s.39.5.51.83c.12.33.18.69.18,1.09s-.06.77-.18,1.1c-.12.33-.29.6-.51.83-.22.23-.49.41-.8.53-.31.12-.66.19-1.04.19s-.73-.06-1.04-.19c-.31-.12-.58-.3-.8-.53-.22-.23-.39-.51-.51-.83-.12-.33-.18-.69-.18-1.1s.06-.77.18-1.09c.12-.33.29-.6.51-.83s.49-.4.8-.53c.31-.12.66-.18,1.04-.18ZM313.14,41.55c.43,0,.74-.14.95-.43.21-.29.31-.71.31-1.26s-.1-.97-.31-1.26-.52-.43-.95-.43-.75.15-.96.44c-.21.29-.31.71-.31,1.26s.1.97.31,1.26c.21.29.53.43.96.43Z"/>
            <path class="cls-7" d="M320,40.01c.02.26.07.49.14.68.07.19.17.35.29.47.12.12.26.22.43.28s.35.09.55.09.37-.02.52-.07c.14-.05.27-.1.38-.16.11-.06.2-.11.29-.15.08-.05.16-.07.24-.07.1,0,.18.04.23.12l.35.45c-.14.16-.29.29-.46.4s-.35.19-.53.26c-.19.07-.37.11-.57.14-.19.03-.38.04-.56.04-.36,0-.69-.06-1-.18s-.57-.29-.8-.53c-.23-.23-.41-.52-.54-.86s-.19-.74-.19-1.19c0-.35.06-.68.17-.99.11-.31.28-.58.49-.81.21-.23.47-.41.78-.54.3-.13.65-.2,1.03-.2.32,0,.62.05.89.16s.51.25.71.45c.2.2.35.44.46.73.11.29.17.62.17.99,0,.19-.02.31-.06.38-.04.07-.12.1-.23.1h-3.17ZM322.35,39.27c0-.16-.02-.31-.07-.45s-.11-.27-.2-.37c-.09-.11-.2-.19-.34-.25-.14-.06-.3-.09-.48-.09-.36,0-.64.1-.84.31-.21.2-.34.49-.39.86h2.33Z"/>
            <path class="cls-7" d="M324.39,42.42v-5.13h.76c.16,0,.26.08.31.22l.08.38c.09-.1.18-.19.28-.27.1-.08.2-.16.32-.21.11-.06.23-.11.36-.14.13-.04.27-.05.42-.05.32,0,.59.09.8.26.21.17.36.41.47.7.08-.17.18-.32.3-.44s.25-.22.39-.3c.14-.08.3-.13.46-.17.16-.04.32-.05.49-.05.28,0,.54.04.75.13s.41.21.55.38c.15.17.26.37.34.61s.12.51.12.83v3.26h-1.23v-3.26c0-.33-.07-.57-.21-.74-.14-.17-.35-.25-.63-.25-.13,0-.24.02-.35.07-.11.04-.2.11-.28.19-.08.08-.15.18-.19.31-.05.12-.07.27-.07.43v3.26h-1.24v-3.26c0-.34-.07-.59-.21-.75-.14-.16-.34-.24-.61-.24-.18,0-.35.04-.5.13-.16.09-.3.21-.43.36v3.75h-1.24Z"/>
            <path class="cls-7" d="M335.56,42.42v-4.2l-.45-.07c-.1-.02-.17-.05-.23-.1-.06-.05-.09-.12-.09-.21v-.5h.77v-.17c0-.31.05-.6.15-.87.1-.27.26-.5.47-.7.21-.2.48-.35.8-.46.32-.11.7-.17,1.14-.17.14,0,.28,0,.43.02.14.02.27.04.38.07l-.04.64c0,.08-.05.12-.12.14-.08.01-.17.02-.28.02-.32,0-.59.03-.81.08-.22.06-.4.14-.53.25-.13.11-.23.25-.29.42-.06.17-.09.36-.09.59v.12h3.18v5.08h-1.24v-4.21h-1.91v4.21h-1.23Z"/>
            <path class="cls-7" d="M342.91,42.5c-.45,0-.79-.13-1.03-.38-.24-.25-.36-.6-.36-1.04v-2.87h-.53c-.07,0-.12-.02-.17-.06-.05-.04-.07-.11-.07-.2v-.49l.83-.13.26-1.4c.02-.07.05-.12.1-.15.05-.04.11-.06.18-.06h.64v1.62h1.37v.88h-1.37v2.78c0,.16.04.29.12.38.08.09.19.13.32.13.08,0,.14,0,.19-.03s.1-.04.13-.06.07-.04.1-.06.06-.03.09-.03c.04,0,.07,0,.09.03.02.02.05.05.07.08l.37.6c-.18.15-.39.26-.62.34-.23.08-.47.12-.72.12Z"/>
            <path class="cls-7" d="M347.15,37.21c.38,0,.73.06,1.04.18.31.12.58.3.8.53s.39.5.51.83c.12.33.18.69.18,1.09s-.06.77-.18,1.1c-.12.33-.29.6-.51.83-.22.23-.49.41-.8.53-.31.12-.66.19-1.04.19s-.73-.06-1.04-.19c-.31-.12-.58-.3-.8-.53-.22-.23-.39-.51-.52-.83-.12-.33-.18-.69-.18-1.1s.06-.77.18-1.09c.12-.33.29-.6.52-.83.22-.23.49-.4.8-.53.31-.12.66-.18,1.04-.18ZM347.15,41.55c.43,0,.74-.14.95-.43.21-.29.31-.71.31-1.26s-.1-.97-.31-1.26-.52-.43-.95-.43-.75.15-.96.44c-.21.29-.31.71-.31,1.26s.1.97.31,1.26c.21.29.53.43.96.43Z"/>
            <path class="cls-7" d="M352.23,42.5c-.45,0-.79-.13-1.03-.38-.24-.25-.36-.6-.36-1.04v-2.87h-.52c-.07,0-.12-.02-.17-.06-.05-.04-.07-.11-.07-.2v-.49l.83-.13.26-1.4c.02-.07.05-.12.09-.15.05-.04.11-.06.18-.06h.64v1.62h1.37v.88h-1.37v2.78c0,.16.04.29.12.38.08.09.19.13.32.13.08,0,.14,0,.19-.03s.1-.04.13-.06.07-.04.1-.06.06-.03.09-.03c.04,0,.07,0,.09.03s.05.05.08.08l.37.6c-.18.15-.39.26-.62.34-.23.08-.47.12-.72.12Z"/>
            <path class="cls-7" d="M355.15,40.01c.02.26.07.49.14.68s.17.35.29.47.26.22.43.28c.16.06.35.09.55.09s.37-.02.52-.07c.15-.05.27-.1.38-.16.11-.06.2-.11.29-.15s.16-.07.24-.07c.1,0,.18.04.23.12l.35.45c-.14.16-.29.29-.46.4s-.35.19-.53.26-.37.11-.57.14c-.19.03-.38.04-.56.04-.36,0-.69-.06-1-.18s-.57-.29-.8-.53c-.23-.23-.4-.52-.53-.86-.13-.34-.2-.74-.2-1.19,0-.35.06-.68.17-.99.11-.31.28-.58.49-.81.21-.23.47-.41.78-.54.3-.13.65-.2,1.03-.2.32,0,.62.05.9.16.27.1.51.25.7.45.2.2.35.44.46.73.11.29.17.62.17.99,0,.19-.02.31-.06.38-.04.07-.12.1-.23.1h-3.18ZM357.51,39.27c0-.16-.02-.31-.07-.45s-.11-.27-.2-.37c-.09-.11-.2-.19-.34-.25-.14-.06-.3-.09-.48-.09-.36,0-.64.1-.84.31-.21.2-.34.49-.39.86h2.33Z"/>
            <path class="cls-7" d="M360.71,38.18c.16-.31.35-.55.57-.72.22-.17.48-.26.78-.26.24,0,.43.05.57.15l-.08.93c-.02.06-.04.1-.07.13-.03.03-.07.04-.13.04-.05,0-.12,0-.22-.02s-.19-.03-.29-.03c-.14,0-.26.02-.37.06s-.2.1-.29.17c-.08.08-.16.17-.23.27-.06.11-.13.23-.18.37v3.16h-1.23v-5.13h.72c.13,0,.21.02.26.07.05.04.08.13.1.24l.08.58Z"/>
            <path class="cls-7" d="M363.09,38.01c.59-.54,1.3-.81,2.13-.81.3,0,.57.05.8.15.24.1.44.23.6.41.16.18.29.38.37.63s.13.51.13.8v3.24h-.56c-.12,0-.21-.02-.27-.05-.06-.04-.11-.11-.15-.21l-.11-.37c-.13.12-.26.22-.38.31-.12.09-.25.16-.38.22-.13.06-.28.11-.43.14-.15.03-.32.05-.5.05-.22,0-.42-.03-.6-.09-.18-.06-.34-.15-.47-.26-.13-.12-.24-.26-.31-.44-.07-.17-.11-.38-.11-.6,0-.13.02-.26.06-.39.04-.13.11-.25.21-.37.1-.12.23-.23.38-.33.16-.1.35-.19.58-.27.23-.08.49-.14.8-.19.3-.05.65-.08,1.04-.09v-.3c0-.34-.07-.6-.22-.76-.15-.17-.36-.25-.63-.25-.2,0-.37.02-.5.07s-.25.1-.35.16c-.1.06-.19.11-.27.16-.08.05-.17.07-.27.07-.09,0-.16-.02-.22-.07-.06-.04-.11-.1-.15-.16l-.22-.4ZM365.92,40.23c-.36.02-.66.05-.9.09s-.44.1-.58.17c-.15.07-.25.15-.32.25-.06.09-.09.19-.09.3,0,.22.06.37.19.46.13.09.3.14.5.14.25,0,.47-.05.66-.14.19-.09.37-.23.54-.42v-.87Z"/>
            <path class="cls-7" d="M369.45,37.99c.21-.24.45-.43.71-.58s.58-.22.94-.22c.28,0,.54.06.77.17.23.12.43.29.6.51.17.22.3.5.39.82s.14.7.14,1.12c0,.38-.05.74-.16,1.07-.1.33-.25.61-.44.85-.19.24-.42.43-.7.56-.27.14-.58.2-.91.2-.29,0-.53-.04-.74-.13-.2-.09-.38-.21-.54-.37v2.1h-1.23v-6.8h.75c.16,0,.26.08.31.22l.1.48ZM369.52,41.09c.14.17.29.29.46.36.17.07.34.1.54.1s.36-.04.5-.1c.15-.07.28-.18.38-.32.1-.14.19-.32.24-.54.06-.22.08-.48.08-.77s-.02-.55-.07-.76c-.05-.21-.12-.38-.21-.51-.09-.13-.2-.22-.33-.29-.13-.06-.27-.09-.44-.09-.26,0-.47.05-.65.16-.18.11-.35.26-.51.46v2.3Z"/>
            <path class="cls-7" d="M375.41,35.8c0,.11-.02.21-.06.3-.04.09-.1.17-.17.25-.07.07-.16.13-.25.17-.1.04-.2.06-.31.06s-.21-.02-.3-.06c-.09-.04-.18-.1-.25-.17s-.13-.15-.17-.25c-.04-.09-.06-.19-.06-.3s.02-.21.06-.31c.04-.1.1-.18.17-.25.07-.07.15-.13.25-.17.1-.04.2-.06.3-.06s.21.02.31.06.18.1.25.17c.07.07.13.15.17.25.04.1.06.2.06.31ZM375.24,37.29v5.13h-1.24v-5.13h1.24Z"/>
            <path class="cls-7" d="M376.38,38.01c.59-.54,1.3-.81,2.13-.81.3,0,.57.05.8.15.24.1.44.23.6.41.16.18.29.38.37.63s.13.51.13.8v3.24h-.56c-.12,0-.21-.02-.27-.05-.06-.04-.11-.11-.15-.21l-.11-.37c-.13.12-.26.22-.38.31-.12.09-.25.16-.38.22-.13.06-.28.11-.43.14-.15.03-.32.05-.5.05-.22,0-.42-.03-.6-.09-.18-.06-.34-.15-.47-.26-.13-.12-.24-.26-.31-.44-.07-.17-.11-.38-.11-.6,0-.13.02-.26.06-.39.04-.13.11-.25.21-.37.1-.12.23-.23.38-.33.16-.1.35-.19.58-.27.23-.08.49-.14.8-.19.3-.05.65-.08,1.04-.09v-.3c0-.34-.07-.6-.22-.76-.15-.17-.36-.25-.63-.25-.2,0-.37.02-.5.07s-.25.1-.35.16c-.1.06-.19.11-.27.16-.08.05-.17.07-.27.07-.09,0-.16-.02-.22-.07-.06-.04-.11-.1-.15-.16l-.22-.4ZM379.21,40.23c-.36.02-.66.05-.9.09s-.44.1-.58.17c-.15.07-.25.15-.32.25-.06.09-.09.19-.09.3,0,.22.06.37.19.46.13.09.3.14.5.14.25,0,.47-.05.66-.14.19-.09.37-.23.54-.42v-.87Z"/>
          </g>
        </g>
      </g>
    </g>
  </g>
</svg>