
<svg xmlns="http://www.w3.org/2000/svg" version="1.1" xmlns:xlink="http://www.w3.org/1999/xlink" preserveAspectRatio="none" x="0px" y="0px" width="290px" height="250px" viewBox="0 0 290 250">
<defs>
<g id="Layer0_0_FILL">
<path fill="#E3C5AB" stroke="none" d="
M 297.8 303.9
Q 297.2 305.4 296.3 307.4 295.6 309.3 295.4 311.25
L 297.8 311.25 297.8 303.9
M 45.15 305.15
Q 45.05 304.6 45.05 304.05 40.85 302.45 35.4 300.35 25.85 296.7 20.5 294.95
L 20.5 311.25 45.9 311.25
Q 45.9 311.15 45.9 311.05 45.95 308.75 45.75 307.55
L 45.15 305.15
M 290.15 124.85
Q 289.95 124.95 289.75 125.05 288.4 125.75 286.35 126.8 278.4 137 273.2 143.9 268.25 150.45 265.7 154.05 257.85 165.1 256.15 174.65 257.7 178.1 259.7 181.4 260.5 182.75 261.15 184.1
L 261.2 184.1
Q 261.9 184.35 264.25 184.35 267.05 184.35 271.05 181.3 274.15 178.95 276.75 175.85
L 277.25 175.85
Q 277 176.35 276.45 177.4 277.75 176.35 278.85 175.7 278.35 176.65 276.55 178.1 275.95 178.6 275.35 179.15 275.3 179.2 275.25 179.25 274.6 180.3 274.1 181.4 278.45 177.65 283.6 174.85 285.6 173.75 286.95 174.1 280.3 177.1 274.45 181.55 274.1 181.85 273.8 182 273.55 182.65 273.3 183.3 271.25 189.55 271.25 205.3 271.25 219.6 271.7 226.7 272.35 228 273.2 229.65 274.1 231.55 276.75 238.5 280.55 248.55 285.35 258.95 286.75 262.05 289.65 268.25 294.85 280.2 297.8 292.55
L 297.8 162.85 297.1 161.45
Q 296.65 160.5 295.95 158.5
L 295.2 156.45
Q 293.8 152.35 292.85 148.55
L 290.75 138.2
Q 290.35 136.4 290.15 134.8 289.95 132.5 290 130.2 290 127.55 290.15 124.85
M 50.65 147.3
Q 45.2 143.3 41.85 141.75 37.75 139.85 33.5 139.85 31.6 139.85 29.4 143 29.5 146.2 29.6 149.75 28.5 168.8 24.9 187.5 24.2 191.15 23.85 194.9 24.65 194.9 25.2 195.1 25.9 195.3 27.1 196 27.7 196.3 28.95 196.75 29.55 197 30.5 197.45
L 31.65 197.05
Q 38.4 194.75 42.25 195.3 44.05 195.55 47.2 196.8 50.55 198.1 52.1 198.4 53.25 198.6 56.3 198.85 58.95 199.05 60.45 199.5 61.4 199.8 62.55 200.35 62 193.95 62 193.05 62 189.25 65.25 185.5 68.5 181.75 68.5 175.6 68.5 172.05 67.45 168.55 66.3 164.7 65.25 157.85 58.85 153.3 50.65 147.3
M 57.6 184.55
L 57.4 184.75 49.3 180.95
Q 49.3 180.55 49.9 180.8 54.1 182.65 57.6 184.55
M 42.25 179.9
Q 42.45 179.75 42.75 179.75 44.25 179.7 46.2 180.4 49.3 181.5 54.8 185.35 55.25 185.7 55.3 185.95 53.9 185.4 52.05 184.3 50 183.05 48.95 182.45 44.95 180.25 42.1 180.25 42.05 180.05 42.25 179.9 Z"/>

<path fill="#3B3D35" stroke="none" d="
M 176.95 274.65
Q 178.3 274.25 180.8 272.75 199.65 261.8 218.2 257.85 220.5 257.35 222.75 256.95 225.15 256.5 229.95 255.7 233.8 254.9 236.45 253.75 220.8 254.85 205.75 259.95 200.55 261.7 195.6 263.85 186.15 267.9 177.5 273.5 176.5 274.15 176.95 274.65
M 177.8 280.95
Q 177.8 281.35 178.3 281.35 178.6 281.35 178.95 281.1
L 191.55 273.2
Q 192.15 272.9 192.2 272.45 192 272.55 191.8 272.65 188.65 274.1 185.65 275.8 181.55 278.15 177.8 280.95
M 197.95 266.3
Q 198.75 266.5 200.1 265.8 202.9 264.4 204.35 263.85 205.9 263.25 208.35 262.5 210.45 261.9 213.2 261.2 220.3 259.5 223.9 258.8 230.15 257.6 240.6 256.5
L 242 256.3
Q 239.9 255.9 235.1 256.4
L 230.45 256.95
Q 225.65 257.55 223.25 258
L 216.05 259.8
Q 212.85 260.55 211.4 260.95 210.55 261.15 210.3 261.2 203.75 262.95 197.95 266.3
M 228.2 207.75
L 228.15 207.65 228 207.45
Q 225.65 208 222.15 208.35
L 213 209.45
Q 210.7 209.75 209.6 210 208.45 210.25 206.65 210.8
L 201.5 212.45
Q 200.85 212.65 200.9 213 201.6 213 203.45 212.45 207 211.3 211.6 210.55 214.35 210.1 220 209.5 221.7 209.35 222.95 209.2 223.65 209.1 224.2 209 226.5 208.55 228.2 207.75
M 234.3 291
Q 235.15 290.9 235 290.35 217.9 294.1 206.65 301.65 205.95 302.1 206.15 302.6 206.75 302.35 208.2 301.35 210.9 299.6 215.2 297.55 224.35 293.35 234.3 291
M 256.5 293.25
L 263.1 293.2
Q 264.55 293.2 265.25 293.3 265.7 293.35 267.05 293.65 268.15 293.85 268.8 293.9 268.95 293.9 270.7 293.8 271.85 293.75 272.55 294 272.95 294.15 273 294.1 273.4 294 273.2 293.7 267.95 292.6 262.8 292.4 260.95 292.3 257.3 292.3 254.45 292.3 251.6 292.45 246.05 292.85 237.65 295.05 237.2 295.15 237.2 295.4 237.15 295.9 238 295.75 245.9 293.75 251.15 293.4 251.2 293.4 256.5 293.25
M 249.3 291
Q 249.95 290.85 249.8 290.6 244.95 290.5 240.7 291.3 236.55 292.05 229.6 294.35 223.95 296.3 222.1 297.1 218.8 298.6 218.6 298.7 216.55 299.5 214.9 299.6 214.85 299.7 214.9 299.85 214.95 300 215.1 300.05 215.2 300.1 215.65 300.1 217.55 299.7 222.15 297.9 237.4 291.75 249.3 291
M 217 211.45
L 216.9 211.75
Q 217.35 211.85 218.35 211.65
L 222 210.95 221.8 210.7
Q 219.4 210.95 217 211.45
M 247.8 257.8
Q 246.8 257.75 244.7 257.85
L 241.2 258.1
Q 232.6 258.85 223.8 261 223.8 261.35 224.35 261.2
L 231.05 259.95
Q 235.15 259.25 236.25 259.1
L 240.05 258.75
Q 242.65 258.6 247.5 258.1 248 258 247.8 257.8
M 160.2 289.55
Q 160.5 290.7 161.4 292.1
L 162.85 294.25
Q 165.2 297.85 168.45 304.65 169.95 307.75 170.6 309.45 170.95 310.35 171.2 311.25
L 172.5 311.25
Q 172.3 310.3 171.95 309.3 171.45 307.8 170.15 305 167.75 299.8 166.1 296.9 164.65 294.25 163.3 292.45 162 290.5 161.8 290 161.75 289.8 161.7 289.65 161.85 289.9 162.55 289.8 164.05 289.45 165.7 288.45 166.45 287.95 168.5 286.45 170.9 284.65 173.45 283
L 176.4 281
Q 182.55 276.95 185.45 275.3 185.6 275.2 185.8 275.1 187.45 274.15 191.15 272.3
L 194.25 270.7
Q 190.85 270.95 185.9 273.45 183.05 274.9 177.65 278.4
L 171.8 282.2
Q 171 282.75 168.5 284.8
L 161.6 289.45
Q 161.4 288.95 161.3 288.85 161.05 288.6 160.75 288.6 160.4 288.55 160.2 288.8 160 289.05 160.2 289.55
M 132 277.9
Q 133.9 278.4 137.65 279.3 140.95 280.15 143.25 280.95 145.9 281.9 150.4 283.95 155.35 286.25 157.45 287.05
L 161.15 288.35
Q 161.35 288 160.8 287.8
L 153.25 284.2
Q 144.95 280.35 141 279.2 138.25 278.4 132.3 277.25 131.5 277.15 131.55 277.6 131.6 277.8 132 277.9
M 130.3 271.2
Q 129.85 271.2 129.85 271.6
L 131.95 272.65
Q 135 274.05 140.45 276.5 142.1 277.25 143.95 278.05 146.15 279.15 150.45 281.35 152.95 282.65 157.2 284.45 156.85 284.1 155.95 283.6 151.1 280.7 142.95 276.85 138.45 274.7 132.95 272.25
L 130.9 271.35
Q 130.6 271.2 130.3 271.2
M 98.05 264.55
Q 96.95 264.1 95.6 263.55 93.05 262.5 89.7 260.95 85.6 259.05 80.25 256.5 60.75 247.05 47.55 240.5 40.05 236.75 34.55 233.9 31.75 232.5 30.2 232.5 30.15 232.5 30.05 232.55 29.65 232.6 29.3 232.9 28.9 233.3 29.2 233.6 30.35 233.65 31.7 234.05 33.3 234.55 35.15 235.55 37.05 236.55 40.75 238.85 42.35 239.75 45.15 240.9 48.5 242.35 49.55 242.85 52.35 244.25 57.75 247.35 61.2 249.1 68.45 252.1 69 252.35 69.8 252.75 72.05 253.9 76 256 80.85 258.6 83.65 259.85 86.25 260.95 89.85 262.15 92.3 262.95 95.2 263.8 96.55 264.15 98.05 264.55
M 114.7 258.8
L 112.85 259.8
Q 112.7 259.9 110.65 261.25 109.35 262.1 108.4 262.5
L 106.45 263.4 104 265.1
Q 102.7 265.85 101.85 266.45
L 94.1 271.35
Q 92.25 272.55 91.6 273.2 92.3 273.35 93.55 272.5 96.9 270.35 99.2 269.15 100.85 268.3 101.15 268.05 102.9 266.6 103.9 266
L 105.55 265.1 106.65 264.3
Q 106.9 264.1 107.95 263.65 109.7 262.85 112.4 261.1 112.45 261.05 112.55 261
L 115.85 258.7
Q 115.55 258.4 114.7 258.8
M 67.4 271.1
Q 68.8 270.5 69.4 269.9 63.55 272.3 55.05 276.25 54 276.85 53.8 277.2
L 67.4 271.1
M 33.05 277.45
Q 35.2 277.3 38.6 276.55 50.9 273.95 61.9 270.1 66.2 268.6 70.3 266.9 70.75 266.75 70.95 266.55 71.1 266.3 70.95 266.05 69.9 266.45 68.9 266.8 51.25 273.25 38 275.9 35.2 276.45 33 276.6 30.3 276.8 28.45 276.45 28.15 276.4 27.85 276.5 27.55 276.6 27.6 276.85 30 277.65 33.05 277.45
M 106.7 265.65
Q 109.5 263.8 109.6 263.75 111.25 263 112 262.55 113.3 261.8 113.8 260.85
L 103.65 267.05
Q 104.95 266.8 106.7 265.65
M 150 275.3
Q 149.75 274.75 148.7 274.35 145.7 273.1 142 271.15 141.45 270.8 141.25 271.15 145.2 273.3 150 275.3
M 47.05 208
Q 47.85 208.75 49.65 210.05 53.2 212.65 56.15 214.75 62.25 219 65.8 221.1 69.45 223.25 75.55 226.2 82.9 229.9 87.25 231.85 83.55 229.35 77 226.05 68.75 221.85 66.55 220.6 62.85 218.5 58.25 215.35 57.8 215 57.35 214.7 51.4 210.45 48.4 208.35 47.55 207.7 47.05 208
M 92.65 232.75
Q 91 231.55 89.2 230.4 85.25 227.85 80.35 225.3 75.95 223.05 67.25 219.15 66.85 219 66.75 219.05 66.4 219.15 66.45 219.45 77.55 224.2 88.2 230.3 89.7 231.2 91.25 232.1 92.3 232.7 92.65 232.75
M 95.55 222.5
Q 94.6 222.15 93.65 221.9
L 102.8 226.3
Q 107.3 228.55 110.15 228.5 110.4 226.65 109.7 224.9 109.9 226.45 109.7 228 107.4 227.8 104.4 226.45 101.1 224.8 99.4 224 97.55 223.15 95.55 222.5
M 48.6 80.9
Q 48.6 80.6 48.5 80.45 48.4 80.35 48.3 80.35 48.15 80.35 48.1 80.45 48.3 80.7 48.4 81.35 48.5 82 48.65 82.25
L 49.2 82.9
Q 49.55 83.5 49.7 83.55 49.85 83.35 49.75 83.1 49.75 83.05 49.55 82.75 49.4 82.5 49.1 82.1 48.75 81.65 48.6 80.9
M 51.9 82.9
L 51.45 82 50.9 80.85
Q 50.4 79.95 49.6 79.05 49.45 79.2 49.25 79.15 49.5 80.1 50 80.65
L 50.4 81.15 50.6 81.65
Q 50.7 81.95 50.8 82.25 51 82.7 51.25 83.1 51.55 83.7 52 83.75 52.3 83.65 52.2 83.3 52.15 83.15 51.9 82.9
M 55.6 70.45
Q 55.1 71 54.5 71.95
L 53.2 74.1 53.5 74.35
Q 54.3 74.05 55.15 72.95 56.2 71.35 56.35 71.2 56.6 70.9 57.15 70.45
L 55.6 70.45
M 25 71.75
L 24.3 72.6
Q 23.8 73.4 23.7 73.85 23.6 74.25 23.6 75.05
L 23.55 78.7
Q 23.35 79.15 22.9 79.6 21.7 80.8 20.5 81.7
L 20.5 84.05 20.55 84
Q 21.2 83.35 22.4 82.4 23.75 81.35 24.2 80.9 24.65 80.5 24.9 80.05 25.15 79.55 25.15 78.45
L 25.05 75.9
Q 25.05 75.05 25.15 74.6 25.3 73.9 26.1 72.8
L 27 71.6
Q 27.05 71.5 27.15 71.4 27.45 71 28 70.45
L 26.2 70.45
Q 25.5 71.15 25 71.75
M 273.8 182
Q 274.1 181.85 274.45 181.55 280.3 177.1 286.95 174.1 285.6 173.75 283.6 174.85 278.45 177.65 274.1 181.4 273.65 181.75 273.25 182.1 273.5 182.15 273.8 182
M 275.35 179.15
Q 275.95 178.6 276.55 178.1 278.35 176.65 278.85 175.7 277.75 176.35 276.45 177.4 274.55 178.85 272.25 181 268.9 184.4 266.45 187.35 267.15 187.6 267.9 186.6 270.8 183 275.35 179.15
M 296.05 109.55
Q 296.75 109.3 296.6 108.85 293.35 109.9 289.7 111.45 287.5 112.35 285.15 113.45 281.45 115.2 274.15 119.05
L 266.65 123.05
Q 266.2 123.3 266.1 123.45 265.85 123.8 266.15 124.1
L 269.5 122.35
Q 281.1 116.45 288.75 112.9 293 110.85 296.05 109.55
M 238.95 89
Q 241.15 93.65 241.35 94.25 242.35 96.9 242.65 100.5 242.8 102.45 242.8 106.95 242.75 114.65 242.6 118.5 242.3 124.9 241.55 130 241.2 132.6 240.3 137.7 239.55 142.25 239.5 145.45 239.5 146.5 239.45 148.6 239.4 150.4 239.15 151.65 238.8 153.15 237.75 155.45 236.45 158.35 236.15 159.2 235.95 159.75 235.8 160.3 235.75 159.7 235.75 159 235.7 156.55 235.7 156.25 235.5 150.45 230.95 139.45 226.45 128.5 226.3 122.6 226.2 120.25 227.15 119.1 226.85 118.7 226.25 118.8 225.7 118.85 225.4 119.3 224.95 119.85 224.95 121.2 224.95 127.5 226.7 133.6 226.95 134.4 231 144.95 233.6 151.75 233.8 156.5 233.8 156.8 233.85 159.55 233.85 161.35 234.05 162.55 234.3 164.05 235.15 166 235.25 166.3 236.7 169.3 239.65 175.3 241.5 182.15 242.95 187.5 243.85 194.35 244.2 197.25 244.65 201.85 244.85 204.05 245.1 206.65 245.3 208 244.95 208.7 244.85 207.45 244.1 206.85 243.65 209.3 243.2 210.65 242.5 212.65 241.25 213.9 240.25 214.95 237.35 216.3 227.35 220.85 217.2 224.55 212.2 226.3 209.85 227.55 205.9 229.6 203.8 232.4 203.65 232.6 203.6 232.9 203.55 232.95 203.55 233.05 203.5 233.45 203.75 233.55 204.4 233.25 205.2 232.6 205.85 232.05 206.3 231.7 206.45 231.55 206.55 231.45 208.6 229.65 211.8 228.3 213.55 227.5 217.6 226.15 219.85 225.35 222.1 224.55 229.15 221.9 236 218.85 237.6 218.1 239.2 217.35 239.55 217.2 239.9 217.05 239.9 217.3 240.2 217.65
L 242.95 220.75
Q 244.25 222.15 244.6 223 244.95 224 244.95 225.1 244.85 226.45 244.55 227.3 244.4 227.8 243.9 228.85 243.45 229.8 243.3 230.35 242.8 232.05 243.3 233.95 243.75 235.75 245 237.2 245.35 237.6 246.1 238.35 246.7 239 247 239.6 247.1 239.85 247.55 241.3 247.9 242.3 248.35 242.8 248.95 243.45 250.6 243.75 252.4 244.1 253 244.5 253.7 245 254.65 246.75
L 257.6 252.9
Q 254.95 251.85 252.55 251.15 252.8 251.35 253.05 251.55 251.2 250.9 248.25 250.5
L 207.65 244.95
Q 205.3 244.65 204.1 244.6 202.1 244.45 200.5 244.65 199.55 244.75 197.5 245.25 195.55 245.75 194.45 245.85 192.55 246.1 190.1 245.75 188.8 245.6 185.8 244.95 182 244.2 176.3 243.4 171.8 242.75 166.1 242.05 165.35 241.45 163.55 241.55 163.1 241.6 162.65 241.65 159.5 241.25 157.75 241.25 154.95 241.25 152.85 242 151.55 242.45 149.1 243.95 146.65 245.35 145.3 245.85 142.2 246.85 135.3 245.9 131.7 245.4 129.1 245.55 128.55 245.55 128.05 245.6 128.1 238.8 128 234.5 134.85 234.55 138.4 234.4 144.6 234.15 149.5 233.3 152.95 232.65 155.4 231.85 155.4 231.9 155.5 232 157.3 231.95 160.5 232.65 164 233.35 165.45 233.45 166.05 233.5 168.15 233.55 169.8 233.6 170.8 233.75 172 233.95 174.45 234.55 174.9 234.65 177.05 234.75 179 234.8 182.9 235.2
L 188.95 235.9
Q 190.7 236.15 190.95 236.15 192.15 236.15 192.7 235.4 190.7 234.1 185.95 233.7
L 174.75 232.85
Q 171.95 232.2 170.5 232 169.3 231.85 167.2 231.8 164.8 231.75 163.9 231.65 161.35 231.25 160.1 231.05 158.85 230.85 157.8 230.85 159.35 230.1 161.75 228.75
L 168.45 225
Q 172.4 222.75 175 221.95 175.25 221.9 182.2 220.7 186.5 219.95 188.65 218.05 188.95 217.8 189.2 217.55 189.85 217.25 190.55 216.9 192.55 215.8 193.55 215.25 196.05 213.85 199.3 212.5 205.35 209.95 211.85 208.6 213.55 208.3 214.2 207.8
L 214 207.5
Q 212 207.55 208.8 208.5 205.35 209.45 203.35 210.1 197.2 212.1 190.2 216.15 190.3 215.95 190.4 215.7 190.85 214.5 190.75 211.9 190.75 210.65 190.3 210.15 189.65 209.5 188.2 209.6 185.45 209.65 182.5 210 186.55 208.5 191.75 206.9 193.95 206.15 194.45 205.9 195.25 205.5 196.75 204.4 198.3 203.2 198.85 202.7 199.95 201.65 200.45 200.6 201.25 198.95 201.2 195.85 201.15 195.25 201.1 194.6 201.1 193.8 200.9 193.35 202.45 192.7 202.9 191.15 203 190.85 203.05 190.55 203.15 190 203.15 189.35 203.1 188.1 203.1 187.5 203.1 187.25 203.1 187 203.1 186.1 203 185.9 202.85 185.4 202.15 184.8 201.2 183.85 199.8 182.95 199.8 182.85 199.8 182.75 199.75 182.55 199.65 182.35 199.6 182.3 199.2 181.8 199.15 181.7 199.1 181.65 198.7 181.05 198.4 179.25 198.15 177.65 197.45 177.05 196.75 176.5 195.45 176.4 192.85 176.2 188.6 176.95 185.05 177.55 183.15 177.8 183.1 177.55 182.75 177.35 180.55 176.15 177.55 175.25 175.75 174.7 172.05 173.85 171.75 173.75 171.5 173.8 171.15 174 171.3 174.3 177.35 175.4 182.9 177.8 182.2 177.85 181.75 177.9 178.1 177.9 176.3 177.95 173.1 178 171 178.75 168.65 179.9 167.35 180.3 165.3 180.95 161.65 180.55 160.2 180.4 159.05 180.3
L 163.7 175.45
Q 166.45 172.5 167.35 170.75 167.75 169.85 167.9 169.05 167.95 167.9 168 167.3
L 168 165.15
Q 167.95 164.45 167.7 163.9 170.7 163.45 173.7 162.55 175.7 161.95 176.45 161.1 174.75 161.25 170.5 162.25 168.4 162.7 166.8 162.95 165.9 162.45 164.15 162.45
L 162.6 162.45
Q 160.6 162.45 159.65 163.05 159.2 163.4 158.5 164.3
L 155.05 169.1
Q 153.6 170.85 152.95 171.45 152.4 171.9 150.75 172.9 148.2 174.35 145.45 175.65 145 175.6 144.3 175.75 143.3 175.9 140.7 175.85 138.4 175.75 137.1 176.15 135.05 176.75 132.9 179.1 131.75 180.4 129.55 183.05 128.3 184.3 126.7 185.5
L 122.35 189.05
Q 120.45 190.65 120.1 191.7 119.95 192.1 119.85 194.05 119.65 198 116.25 202.1 115.7 202.75 115.6 203.15 115.5 203.55 115.6 203.8 113.1 202.85 110.75 203.15 110.15 203.25 107.2 204.15 103.1 205.35 97.35 205.1 90.65 204.55 87.3 204.3 83.9 204.05 81.6 204.45 80.2 204.75 78.95 205.4 78.9 205.35 78.9 205.3 77.8 200.6 78.85 195.75
L 79.9 192.15
Q 80.65 189.75 82.7 181.55
L 84.65 173.8
Q 85.5 170.35 85.95 167.85 86.3 165.8 86.55 163.55
L 87.1 159.05
Q 88.35 149.2 88.25 143.7 88.2 141.45 87.95 139.35 87.85 138.25 87.4 137.85 86.95 137.45 85.9 137.45 84.95 137.45 84.6 137.7 84.3 137.9 84.2 138.25 84.1 138.6 84.3 138.85 84.65 139.05 85.4 138.8 86.2 138.6 86.5 138.75 87.05 139.05 87.05 140.25 86.9 147.8 85.85 155.2 85.5 157.75 84.75 162.8 84.45 165.9 84.2 167.4 83.95 168.95 83.15 171.95
L 83.1 172.3
Q 83.05 172.2 83.05 172.15 82.45 167.6 81.25 163.2 80.45 160.25 80.05 158.75 79.3 155.75 78.85 152.05 78.15 147.05 77.9 140.7 77.25 124.8 77 122.45
L 75.2 108.65
Q 74.85 105.55 74.3 103.6 73.75 101.95 73.5 101.15 73.1 99.75 73.15 98.65 73.15 97.15 74.1 94.85 75.2 92.1 75.35 91.1 75.6 88.75 74.4 87.4 73.7 86.65 72.65 86.45 71.55 86.3 70.8 86.9 70.05 87.5 70.15 88.65 70.25 89.8 71.15 90.15 70.9 89.25 71.1 88.5 71.3 87.65 72 87.45 72.65 87.3 73.25 87.9 73.8 88.45 73.95 89.2 74.35 91.05 73 94.45 71.55 98.05 71.7 99.8 71.8 100.65 72.3 102.05 72.9 103.7 73.05 104.25 73.55 106.15 73.5 110 73.55 110.6 74.5 115.4 74.85 117.05 75.1 119.05 74.85 118.55 74.5 118.05 72.55 115.15 68.4 110.4
L 64.45 105.8
Q 63.8 105 63.5 105.55 63.35 105.75 63.7 106.2 68.7 111.85 72.95 118 75 120.85 75.4 122.65 75.45 122.7 75.5 122.75 75.8 126.4 75.9 130.95 76 138.2 76.2 142.35 75.85 142.2 75.3 142.15 72 141.9 68.85 141.35 68.3 140.95 67.95 140.75 66.5 140.05 65.9 139.5 65.5 139.2 64.75 138.25 64.1 137.4 63.6 137.05 63.5 137.25 63.3 137.15 64.1 139 66.25 140.35 66.75 140.7 67.4 141.05 65.2 140.6 63.05 140.05 62.1 139.35 60.6 138.05
L 57.95 135.9
Q 57.3 135.4 56.85 135.55 59.1 137.8 61.7 139.65 56.5 138.1 51.55 135.75 47.7 133.8 45.8 132.85 42.2 131.1 36.5 128.65 28.3 125.2 27.1 124.65 26.5 124.35 26.15 124.4 25.9 124.45 25.7 124.65 25.55 124.85 25.6 125.05 25.65 125.3 26.15 125.6
L 27.65 126.35
Q 27.65 126.45 27.65 126.6 27.4 126.75 27.4 127.35
L 27.55 132.95
Q 25.55 131.15 23.55 129.7 23.55 128.7 23.5 127.75
L 24.15 127.65
Q 24.25 127.35 24.25 126.6 24.25 126.5 24.25 126.4
L 24.45 126.55
Q 24.8 125.95 24.6 125.35 24.65 125.25 24.65 125.15 24.6 125 24.4 124.85 24.2 124.6 23.95 124.3 22.75 123.1 22.4 122.35 22.25 122 22.2 121.65 22.55 121 22.65 119.9 22.7 119.55 22.75 119.3 23.25 118.5 24.7 117.05 32.65 109.2 38.1 99.4 41.65 107.15 46.55 113.25 48.05 115.15 49.4 115.55 42.7 108 38.65 98.95 38.55 98.75 38.5 98.65 40 95.9 40.85 94.85 40.9 95.75 41.35 96.75 41.65 97.5 42.55 99.1 48.4 109 48.5 109.15 52.05 114.8 55.6 118.3 55.8 118.6 56.05 118.45 52.65 114.3 49.1 108.6 46.95 105.2 42.95 98.2 41.85 96.3 41.7 95.15 41.6 94.55 41.5 94.4 41.45 94.3 41.35 94.25 42.85 92.6 45.6 91.25 46.05 91.05 46.45 90.9 46.45 91.05 46.55 91.2 47.55 90.55 48.95 91.3 49.5 91.55 50.9 92.85 52.4 94.25 55.6 96.65
L 61.15 100.75
Q 60.4 98.85 58.1 97.05 55.35 95.15 54.1 94.1 52.3 92.5 51.35 91.7 49.75 90.4 48.3 90 49.8 89.25 50.75 88.75 54.2 86.95 59.8 82.1 62.15 80.05 62.85 78.65 63.3 77.85 63.35 76.95 63.35 76.65 63.35 76.4 63.25 75.15 62.5 74.3 60.95 72.75 57.05 73.6 53.1 74.45 50.4 75.4 48.3 76.05 47 76.8 46.45 77.1 43.3 79.35 37.55 83.65 33.25 85 33.35 84.55 33.25 83.85 32.95 81.85 31.75 76.75 30.8 72.95 30.55 70.45
L 29.35 70.45
Q 29.75 76.2 32.8 85.15 32.75 85.15 32.7 85.15 31.5 85.5 31.6 86.1 31.65 86.3 31.75 86.4 32 86.8 32.95 86.55 36.55 85.8 41.75 82.45 46 79.7 48.4 78.4 49.5 77.75 50.2 77.45 53.3 76.15 58.05 75.25 59.3 75 60.15 75.1 61.45 75.4 61.75 76.4 61.95 77.05 61.4 77.9 61.25 78.1 61.1 78.3 60.25 78.6 59.6 78.75 59.3 78.8 59.1 78.8 56.9 79.05 55.5 77.95
L 55.4 76.45 56.15 76.25
Q 55.95 75.95 55.6 75.9 55.25 75.8 54.95 76 54.55 77.9 55.15 78.7 55.65 79.3 56.85 79.5 57.2 79.55 57.55 79.6 58.75 79.7 59.9 79.5 54.2 84.85 50.35 86.95 48.7 87.85 45.15 89.4 42.1 90.9 40.45 92.6 39.4 93.65 38.4 95.3 38.3 95.45 36.65 98.3 31.5 107.45 24.05 115.15 22.4 116.8 21.6 117.9
L 20.5 118.8 20.5 123 20.7 122.85
Q 20.75 123.1 20.9 123.3 21.3 124 22.6 125
L 23.15 125.45 23.15 126
Q 22.95 125.65 22.65 125.85 22.45 126 22.45 126.4 22.25 128.3 22.25 129.25 22.15 129.9 22.35 130.35 22.5 130.8 23.3 131.4
L 26.55 133.95
Q 27.1 134.35 27.55 134.5
L 27.9 150.65
Q 28.35 156.75 26.8 162.75 22.75 178.65 23.2 194.9 22.75 194.9 22.25 194.95 21.3 195.05 20.5 195.2
L 20.5 196.75 22.15 196.55
Q 23.25 196.35 24 196.5 24.9 196.65 26.05 197.25
L 28.2 198.2 27.8 198.3
Q 28.5 198.6 29.4 198.7
L 32.05 199.85
Q 32.9 200.15 35 200.8 36.9 201.4 37.9 201.8 38.7 202.1 40.2 202.7 41.55 203.2 42.6 203.25 42.6 202.9 41.9 202.45 38.65 200.65 36.3 199.8 33.4 198.8 32.5 198.45 32.5 198.4 32.55 198.4 34.15 198 37.45 197.1 40.9 196.55 46.6 198.5 53.25 200.75 55.75 200.9 56.65 201 58.45 201 60.05 201.05 61.1 201.45 61.7 201.65 62.7 202.35 63.5 202.9 64.55 203.7 66.25 205 69.3 206.85 71.7 208.3 74 209.7 73.8 209.95 73.65 210.25 74.2 210.8 75.05 210.3 82.2 214.55 88.75 218.05 88.25 217.05 86.25 215.7
L 76.35 209.2
Q 78.85 206.9 82.1 206.3 83.85 205.95 87.95 206.15
L 97.55 206.75
Q 103.15 207.15 106.15 206.45 106.35 206.4 108.55 205.75 109.95 205.3 110.95 205.2 113.95 204.85 116.85 206.6 119 207.85 120.6 209.9 121 210.4 121.35 210.95 122.3 212.45 123 214.35 123.45 215.45 123.8 216.7 124.4 218.8 125.15 222.85 126.1 227.9 126.2 231 126.3 233.55 126.2 238.65 126.25 240.6 126.4 244.55 126.4 245.25 126.4 245.9 125.85 246.05 125.4 246.2
L 126.35 246.35
Q 126.2 248.4 125.65 250 125.6 250.1 125.55 250.25 124.75 252.4 122.45 255.25 121.35 256.6 120.6 257.6 119.9 258.45 119.45 259.1 119 259.65 118.8 260 118.9 259.95 119.05 259.95 117.5 263.2 113.55 269.05
L 108.1 277.15
Q 105.7 280.75 103.7 281.8 102.4 282.55 99.45 283.05 88.7 284.85 77.4 286 83.2 282.2 88.15 277.4 85.2 278.9 83.5 279.95 82.7 280.5 80.8 281.9 79.1 283.2 78.1 283.8 76.5 284.8 73.1 286.5 70.1 288 69.15 288.2 67.9 288.5 66.1 288.4 64.05 288.2 63 288.1 59.4 287.8 53.6 288.8 46.4 290 44.2 290.1 39.8 290.35 33.35 289.35 26.15 288.1 22.55 287.65 21.45 287.5 20.5 287.5
L 20.5 289.3 31.2 291
Q 38.5 292.2 42.15 292.15 45.2 292.1 50.1 291.4
L 50.15 291.4
Q 49.65 292.5 48.75 293.75 47.15 295.95 46.5 297.1 45.75 298.55 45.3 300 45.45 299.85 46 299.55 45.4 300.75 45.15 302.1 45 303.05 45.05 304.05 45.05 304.6 45.15 305.15
L 45.75 307.55
Q 45.95 308.75 45.9 311.05 45.9 311.15 45.9 311.25
L 47.7 311.25
Q 47.7 309.65 47.5 308
L 46.9 303.5
Q 46.8 300.75 47.9 299.15 48.35 298.45 49.3 297.65 50.35 296.75 50.8 296.25 51.15 295.9 51.25 295.45 51.35 294.95 50.95 294.85 50.7 294.8 50.4 295 49.45 295.45 48.7 296.1
L 50.05 294
Q 50.75 293 50.95 292.45 51.15 292 51.35 291.25 56.45 290.5 58.05 290.35 61.6 290.05 65.55 290.3 68.45 290.5 69.65 290.2 70.7 289.95 72.25 289.05 73.35 288.45 74.45 287.8 75.5 287.85 76.85 287.75 77.05 287.75 79.3 287.55
L 97.55 285.4
Q 102.45 284.8 104.7 283.5 107.05 282.1 110.05 277.8 114.05 272 118.8 264.5 120 262.65 120.55 261.35 122.9 262.35 125.65 263.75 130.85 266.4 140.95 272.25 144.45 274.2 145.75 275.1 148.5 276.9 149.6 277.2 146.85 275.1 144.45 273.65
L 120.85 260.6
Q 121.15 259.6 121.15 258.75 121.55 258.45 121.9 258.15 122.85 257.3 124.45 255.45 125.8 253.85 126.65 252.55 126.7 252.6 126.8 252.65 128.1 253.3 129.95 253.05 131.1 252.9 133.2 252.2
L 148.35 246.8
Q 153.45 245 156.7 244.05 158.5 243.5 160.4 243.1 160.9 243.15 161.4 243.2 166.9 243.8 172.3 244.55 176.4 245.15 180.45 245.8 183.9 246.35 187.3 247 191.5 247.8 194.25 247.7 195.35 247.65 196.2 247.45 196.85 247.3 198.5 246.75 198.85 246.65 199.15 246.55 199.8 246.6 200.55 246.6 201.9 246.65 204.65 246.65 205.7 246.7 207.6 246.85 212.7 247.9 222.75 249.15
L 228.15 249.85
Q 229.35 250.15 231 250.6 234.9 251.55 241.15 252.2 242.35 252.3 243.4 252.45 250.35 253.1 251.4 253.25 250.9 252.9 250.35 252.65
L 252.15 252.85
Q 252.85 252.95 253.45 252.75 253.9 252.6 254 252.3 255 253 256.15 253.75 256.6 254.1 257.05 254.3 256.9 254.45 256.95 254.7 257 254.95 257.3 255.15 258.3 255.9 260.4 257.25 261.2 257.8 261.8 258.4 262.25 258.85 262.55 259.35 262.7 259.6 262.85 259.85 263.2 260.6 263.65 262.1 264.15 263.45 266.4 265.7 267.3 266.55 268.1 267.15 268.05 267.3 268.1 267.45 268.2 267.65 268.4 267.85 268.3 267.8 268.25 267.75 264.5 265 263.75 264.3 263.3 263.85 263 264 262.6 264.1 262.7 264.6 262.75 265.05 263.1 265.4 264.2 266.5 267.4 268.95 268.95 270.15 270.45 271.55 270.45 271.6 270.5 271.7 270.65 271.85 270.9 271.95 272.95 273.85 274.9 276.05 279.3 281 285.35 290.3 291.85 300.25 294.45 306.25 294.55 306.45 294.65 306.65 294.15 307.8 294 308.3 293.5 309.8 293.55 311.25
L 295.4 311.25
Q 295.6 309.3 296.3 307.4 297.2 305.4 297.8 303.9
L 297.8 292.55
Q 294.85 280.2 289.65 268.25 286.75 262.05 285.35 258.95 280.55 248.55 276.75 238.5 274.1 231.55 273.2 229.65 272.35 228 271.7 226.7 270.6 224.55 270 223.2 268.55 219.9 266.25 211.9 264.55 205.55 264.25 204 263 197.7 263 191.7 263.45 192.4 263.9 193.15 263.3 188.55 261.15 184.1 260.5 182.75 259.7 181.4 257.7 178.1 256.15 174.65 250.7 163 249.65 150 256 144.15 263.75 139.7 266.9 137.9 267.95 137.2 268.95 136.5 271.7 134.2 272.35 133.65 273 133.15 273.85 132.75 274.8 132.3
L 279.55 130.05
Q 283.55 128.15 286.35 126.8 288.4 125.75 289.75 125.05 289.95 124.95 290.15 124.85 290 127.55 290 130.2 289.95 132.5 290.15 134.8 290.35 136.4 290.75 138.2
L 292.85 148.55
Q 293.8 152.35 295.2 156.45
L 295.95 158.5
Q 296.65 160.5 297.1 161.45
L 297.8 162.85 297.8 157.8
Q 295.8 152.3 295.1 149.9 294.45 147.5 293.45 142.7
L 291.8 134.85
Q 291.55 133.15 291.5 130.5 291.65 130.5 291.9 130.5 293.55 129.1 295.5 127.95
L 297 127.05
Q 297.4 126.8 297.8 126.4
L 297.8 124.2 296.4 125.6
Q 295.65 126.3 294.05 127.25 292.4 128.3 291.7 128.9 291.55 129 291.45 129.15 291.45 128.2 291.45 127.4 291.65 127.35 291.85 127.3 293.15 126.85 294.85 125.15 296.4 123.6 297.8 121.9
L 297.8 120.65 297.5 120.95
Q 297.25 121.3 296.95 121.3 296.75 121.2 296.55 121.15 297.2 120.75 297.8 120.35
L 297.8 118.85
Q 294.1 120.9 288.95 123.5 286.1 124.85 282.85 126.4
L 277.75 128.85 268.35 133.35
Q 264.15 135.35 262 136.2 258.5 137.55 256.75 138.3 253.8 139.65 251.95 141.15 250.15 142.65 249.65 142.9 249.2 143.05 248.75 143.25 247.25 143.65 246.4 142.4 246.05 141.95 245.9 141.25 245.85 141 245.65 139.25 245.25 136.25 243.5 133.95 243.25 133.6 243 133.5 243.05 133.35 243.05 133.2 244.05 127 244.3 123.85 244.65 119.8 244.55 113.2
L 244.5 101.7
Q 244.4 97.2 243.85 95.35 243.4 93.7 240.65 88.9 238.45 84.95 238.45 82.25 238.25 82.05 237.9 82.15 237.6 82.2 237.4 82.45 237.15 82.8 237.25 83.6 237.45 85.85 238.95 89
M 241.4 146.85
Q 241.55 142.75 242.7 135.3 242.8 135.4 242.9 135.55 243.6 136.4 243.85 137.75 243.95 138.05 244.2 140.2 244.5 142.55 245.45 143.7
L 248.15 144.9
Q 248.1 147.6 248.3 150.3 248.05 150.65 248.1 150.95
L 248.35 151
Q 248.7 154.85 249.6 158.7 251.85 168.3 255.7 177.4 256.7 179.75 257.85 182.1 259.85 186.3 262.25 190.4 261.35 191.95 261.4 194.95 261.75 205.95 267.45 221.2 269.45 226.35 271.8 232.05
L 277 244.6
Q 279.5 250.85 281.85 256 283.3 259.2 286.35 265.55 289 271.25 290.5 275.25 292.9 281.55 295.9 293.45 297.2 298.15 296.75 300.85 296.5 302.3 295.6 304.5 293.65 299.7 289.4 293.05
L 287.05 289.4
Q 280.2 278.7 274.6 273.2 273.05 271.6 271.25 270.1
L 270.25 268.2
Q 270.45 268.25 270.6 268.25 270.9 267.75 270.15 267.1 268.25 265.4 267.35 264.5 265.7 262.95 265.1 261.5 264.65 260.1 264.35 259.4 264.3 259.25 264.25 259.15 264.2 259.05 264.15 258.95 263.4 257.5 261.8 256.3 260.8 255.55 258.75 254.55 259.55 252.7 258.95 251.1 258.85 250.85 257.95 249.15 256.8 246.45 256.1 245.2 254.85 242.85 252.95 242.3 251.55 242.05 250.85 241.9 249.55 241.55 249.25 240.6 249.2 239.9 249.1 239.55 249 238.9 248.1 237.9 247 236.65 246 235.2 244.8 233.4 244.75 232.3 244.7 231.5 245.15 230.35 245.7 229.15 245.9 228.5 246.35 227.05 246.35 224.5 246.45 222.75 245.85 221.8 245.6 221.35 244.95 220.85 244 220.15 243.9 220.05 243.55 219.75 242.4 218.25 241.5 217.1 240.7 216.7 240.65 216.65 240.6 216.65 242.5 215.6 243.35 214.45 244.1 213.35 244.7 210.8 245.05 210.65 245.4 210.45 246.3 209.95 246.7 209 247.2 207.85 247 205.05
L 246.35 198.75
Q 246.3 198.3 246.25 197.85 245.5 191.2 244.8 187.75 244.2 184.85 242.5 179.15 240.85 173.3 239.4 170.25 238.05 167.5 237.4 166.1 237.1 165.45 236.85 164.85 237.4 161.6 238.65 158.45 239.45 156.55 239.85 155.6 240.6 153.9 240.9 152.7 241.2 151.5 241.3 149.8 241.35 147.85 241.4 146.85
M 164.7 166.4
Q 165.4 165.5 165.35 164.55 165.1 164.6 164.75 165.2 164.15 166.15 162.2 167.4 161.55 167.85 161.5 167.9
L 160.9 168 158.6 168.05
Q 158.7 167.75 158.5 167.55
L 158.8 167.15
Q 159.65 166.05 159.8 165.75 160.25 164.95 160.45 164.75 161 164.25 162.4 164.25
L 164.55 164.25
Q 165.25 164.25 165.55 164.4 166.25 164.7 166.35 166.25 166.35 166.3 166.35 166.35 166.35 167.85 166.15 168.6 165.95 169.45 165.45 170.35 164.5 172.05 161.45 175.1 158.7 177.95 157.2 180.1 156.8 180.1 156.5 180.05 155.3 179.95 154.3 179.9 152.65 179.75 151.35 179.8 149.75 179.9 149.45 180.6 151.4 181 153.35 181.3 153.6 181.3 153.85 181.35 158.65 182.1 163.6 182.4 166.5 182.7 168.2 182.1 169.1 181.75 170.85 180.8 172.9 179.85 176.1 179.75 177.9 179.7 181.6 179.75 183.7 179.65 188.25 178.85 190 178.55 191.4 178.4 191.25 178.5 191.15 178.55 190.9 178.75 190.6 179.25 189.75 180.65 189.9 182.2 189.9 182.5 190.1 182.65 190.2 182.75 190.45 182.75 192.2 182.9 193.45 182.8 193.9 182.75 194.3 182.65 194.45 182.65 194.55 182.55 194.65 182.45 194.6 182.35
L 194.55 182.35
Q 192.85 182 190.8 181.85 190.85 181.7 190.8 181.4 190.75 181.05 190.75 180.9
L 191 180.5 191.2 179.75
Q 191.45 179.15 192.6 178.55 192.65 178.4 192.6 178.25 193.9 178.1 194.9 178.1 195.7 178.1 196 178.3 196.45 178.6 196.65 179.3 196.65 179.5 196.8 180.6 196.85 181.15 197.05 181.65 197.1 181.75 197.15 181.85 196.75 181.9 196.5 182.1
L 192.4 184.35 187.1 186.2
Q 184.85 187 183.85 187.25 181.95 187.8 180.45 187.85 180.25 187.85 180.05 187.9 178.4 188 178.2 188.05 177.45 188.2 176.65 188.6
L 171.3 190.9
Q 169.25 191.8 168 192.05 167.2 192.15 167.2 192.65 168.2 192.9 170.05 192.3 170.25 192.25 170.45 192.15
L 175.75 190.05
Q 177.75 189.25 178.7 189.15
L 180.65 189.1
Q 181.55 189.05 183.35 188.65 189.5 187.15 195.2 183.7
L 195.2 183.6
Q 195.5 183.4 195.6 183.35 196.65 182.65 197.4 182.35 197.55 182.65 197.75 182.9 197.95 183.1 198.15 183.25 198.1 183.25 198.05 183.25
L 197.5 183.5
Q 197.1 183.8 196.75 184.1 195.7 184.85 195.2 185.35 194 186.5 193.6 187.75 193.1 189.25 194 189.85 194.25 190.05 195.25 190.15
L 197.95 190.2
Q 198.05 190.2 198.15 190.1 198.25 190 198.2 189.95 197.2 189.2 196.1 189.2 195.3 189.2 195.15 189.15 194.6 189.05 194.45 188.6 194.4 188.3 194.55 187.95
L 195 187.05
Q 195.2 186.7 195.5 186.4 195.5 186.35 195.55 186.3 196.4 185.3 197.65 184.45 198.15 184.05 198.55 184.2 198.65 184.05 198.7 183.9
L 200.4 185.5
Q 201.1 186.2 201.35 186.65 201.4 186.75 201.45 186.85 201.55 187.1 201.65 188.1 201.7 189.05 201.6 189.8 201.5 190.4 201.3 190.8 201.25 190.9 200.4 192.05 200.3 192.2 200.2 192.35 200.15 192.45 200.1 192.55 199.9 192.5 199.75 192.45 199.05 192.25 197.95 192.5 195.7 192.95 192.3 194.35 192.2 194.4 192.1 194.45 190.4 195.1 189.2 195.6 189.15 195.45 189.15 195.35 189.05 195.1 188.9 194.75 189 194.65 188.9 194.3
L 188 191.55
Q 187.8 191.45 187.7 191.65
L 187.75 191.95 188.3 193.6
Q 188.25 193.55 188.25 193.5 187.4 192 187.15 191.3 187 190.55 186.9 190.2 186.75 189.55 186.5 189.15
L 186.05 189.15 186.65 191.75
Q 186.75 192.05 187.25 193.05
L 188.4 195.1
Q 188.55 195.35 188.75 195.5 188.8 195.6 188.95 195.7 187.3 196.35 186.75 196.5
L 182.1 198
Q 179.1 199.2 173.7 203 173.6 203.3 173.9 203.5
L 176.05 202.45 179.75 200.55
Q 181.15 199.85 181.9 199.6 182.45 199.4 184.8 198.8 187.25 198.2 191.55 196.55 194.15 195.55 195.95 194.95 195.8 195.15 195.55 195.3 195.05 195.55 194.8 195.7 193.25 196.5 193.1 198.35 193.05 198.4 193.05 198.5 193.05 199.05 193.15 199.25 193.45 199.8 194.35 199.9 195.7 200.15 197.45 199.9 197.95 199.8 197.8 199.55 196.3 199.2 195.25 199.2 194.35 199.2 194.05 198.75 193.9 198.5 194.1 198.05 194.1 197.95 194.15 197.85 194.6 196.75 195.65 196.05
L 196.35 195.55
Q 196.7 195.1 196.5 194.8 197.55 194.4 198.3 194.2 198.9 194 199.2 194.2 199.6 194.45 199.6 195.15 199.65 195.8 199.65 196.35 199.65 198.1 199.25 199.1 198.75 200.35 197.25 201.65 195.25 203.5 193.25 204.45 191.9 205.15 189.85 205.75 183.4 207.9 180.35 209 175.1 210.95 171.15 213 168.8 214.25 168.35 215.6 169.4 215.65 170.85 215.05
L 170.9 215.05
Q 171.15 214.9 171.4 214.85 171.4 214.8 171.45 214.8 171.7 214.65 172 214.5
L 175.4 212.85
Q 177 212.1 179 211.3 179.05 211.35 179.1 211.4
L 187.75 211.3
Q 188.6 211.3 188.9 211.55 189.35 211.85 189.35 212.7 189.4 214.2 188.45 215.6 188.05 216.2 187.55 216.65 187.45 216.55 187.35 216.45 186.75 215.85 186.2 215.65
L 185.8 215.55
Q 185.65 215.4 185.6 215.25 185.55 215.1 185.55 214.95 185.55 214.55 186.05 213.85 186.4 213.25 186.8 212.95 187.1 212.65 187.4 212.55 188.25 212.3 188.35 212 187.85 211.55 187.1 211.65
L 186.75 211.9
Q 186.5 212.1 186.1 212.45 185.85 212.65 185.5 213 184.95 213.55 184.75 214.15 184.7 214.35 184.7 215.25 184.7 215.65 184.8 215.85 184.8 215.9 184.85 215.95 185 216.1 185.4 216.25 186.25 216.65 187.25 216.9 186.75 217.35 186.1 217.7 184.4 218.6 181.65 219.05 179.2 219.3 177.7 219.6 177.3 219.65 176.95 219.7 175.05 220.05 172.8 220.95 170.05 222 166.8 223.8 158.75 228.35 157 229.1 151.7 231.35 144.75 232.15 139.8 232.7 131.9 232.6 130.15 232.6 129.45 232.65 128.6 232.75 127.95 232.95 127.95 232.3 127.9 231.7 127.9 231.25 127.85 230.8 127.4 223.5 126.05 217.75 125.35 215 124.5 212.85 123.45 210.35 122.15 208.65 121.95 208.4 121.75 208.15 121.55 207.9 121.35 207.7 121.85 207.95 122.55 207.65 122.9 207.5 123.7 206.9 124.3 206.45 125.25 205.95 126.55 205.25 126.85 205.05 128.25 204.2 129.3 203 128.9 202.95 128.35 203.3
L 121.25 207.6
Q 119.5 205.75 117.3 204.6 116.95 204.4 116.6 204.25 117 204.1 117.5 203.55 121.35 199.1 121.55 194.55 121.65 192.85 121.8 192.5 122.1 191.7 123.35 190.55 123.95 190.05 127.25 187.4 129.65 185.45 130.95 184.05 132.9 181.7 133.9 180.55 135.75 178.25 137.35 177.6 138.6 177.1 142 177.1 142.15 177.1 142.3 177.1 142.05 177.25 142.1 177.45 143.1 178.05 145.3 177.1
L 148.7 175.55
Q 152.6 173.85 154.25 172.4 155.1 171.65 156.6 169.85
L 158.1 168.05
Q 158.05 168.3 158.1 168.65 160.8 168.75 162.15 168.7 162.2 168.2 163.1 167.65 164.2 166.95 164.7 166.4
M 73.9 143.7
Q 74.65 143.7 75.4 143.65 75.95 143.65 76.25 143.5 76.3 145.6 76.4 146.65 76.6 148.85 76.95 151.25 77.4 154.5 78.2 158.2 78.9 161.7 80.55 168.15 80.7 168.85 80.9 169.6
L 82.35 175.2 77.7 193
Q 76.5 197.4 76.45 199.75 76.35 202.8 77.4 205.5 77.5 205.8 77.7 206.05 77.35 206.25 77 206.5 75.9 207.3 75.05 208.35
L 66.85 202.95
Q 70.25 194.5 70.5 185.45 70.85 173.85 71.65 162.3 72 155.8 72.55 149.35 72.6 148.75 72.65 148.2 73.15 145.75 73.9 143.7
M 29.4 143
Q 29.3 140.35 29.15 137.9 30.75 136.6 31.85 136.25 32.75 135.95 36.6 135.95 42.75 135.95 48.15 138.4 63.45 145.3 71.65 148.95 70.85 155.2 70.5 161.5 70.15 168.15 70.2 174.9 70.25 183.6 68.2 191.75 66.85 197 65.8 202.25 64.05 201.05 62.55 200.35 61.4 199.8 60.45 199.5 58.95 199.05 56.3 198.85 53.25 198.6 52.1 198.4 50.55 198.1 47.2 196.8 44.05 195.55 42.25 195.3 38.4 194.75 31.65 197.05
L 30.5 197.45
Q 29.55 197 28.95 196.75 27.7 196.3 27.1 196 25.9 195.3 25.2 195.1 24.65 194.9 23.85 194.9 24.2 191.15 24.9 187.5 28.5 168.8 29.6 149.75 29.5 146.2 29.4 143
M 152.3 244.25
Q 153.05 243.8 153.65 243.6 154.45 243.3 155.5 243.15 154.7 243.4 153.35 243.85
L 152.3 244.25
M 42.75 179.75
Q 42.45 179.75 42.25 179.9 42.05 180.05 42.1 180.25 44.95 180.25 48.95 182.45 50 183.05 52.05 184.3 53.9 185.4 55.3 185.95 55.25 185.7 54.8 185.35 49.3 181.5 46.2 180.4 44.25 179.7 42.75 179.75
M 57.4 184.75
L 57.6 184.55
Q 54.1 182.65 49.9 180.8 49.3 180.55 49.3 180.95
L 57.4 184.75
M 190.2 199.45
Q 190.15 199.3 190 199.2 189.8 199.15 189.7 199.25
L 189.7 199.3
Q 189.7 200.75 189.75 201.05 189.85 201.65 190.35 202.75
L 190.5 203.4
Q 190.5 204.1 190.55 204.2 190.65 204.5 191 204.95 191.35 204.95 191.25 204.5
L 191.05 203.95 191 203.3
Q 191 203.15 190.75 202.4
L 190.45 201.55
Q 190.1 200.5 190.15 200.1 190.25 199.7 190.2 199.45
M 165.05 197.75
Q 163.35 196.2 162.5 195.4 161.15 194.1 158.9 191.05 156.65 188 155.3 186.65 154.75 186.1 154.35 186.2 154.45 186.8 155.5 188.1 156.6 189.3 158.7 192.4 160.6 195.2 161.95 196.55
L 164.35 198.8
Q 165.7 200.4 166.1 202.5 166.55 204.6 165.85 207.3 165.55 208.45 164.3 211.95 162.75 216.1 162.4 219.1 162.35 219.55 162.45 219.8 162.5 219.95 162.65 220 162.8 219.55 162.95 219.15 164.15 215.15 165.7 211.55 166.4 209.95 166.65 209.1 167.25 207.2 167.35 204.25 167.45 201.85 166.95 200.5 166.45 199.2 165.05 197.75
M 182.5 180.1
Q 182.45 180 182.3 179.95 182.15 179.95 182.1 180.05 182.35 180.8 182.4 181.6
L 182.55 183.3
Q 182.65 183.95 183.1 184.35
L 183.3 184.15
Q 183.1 183.9 182.85 182.85
L 182.75 181.75
Q 183.2 182.65 183.7 183.45 184.1 184.15 184.1 184.45
L 184.1 185.05
Q 184.1 185.4 184.3 185.55 184.5 185.4 184.5 185 184.5 184.15 184.4 183.9
L 183.8 183
Q 183.3 181.9 183 181.4
L 182.75 181.15
Q 182.7 181.1 182.65 181.1
L 182.6 180.55
Q 182.6 180.2 182.5 180.1
M 277.45 96.35
L 275.5 97.9
Q 270 102.25 267.3 105.1 266.95 105.4 266.85 105.75 267.3 105.95 267.95 105.3 269.5 103.5 272.65 101
L 279.05 95.9 285 91.15
Q 286.35 90.1 286.8 89.25 283.55 91.45 277.7 96.15
L 277.45 96.35
M 229.4 239.25
L 229.3 238.95
Q 227.3 239.5 225.5 239.65
L 225.1 239.7
Q 224.9 239.9 224.9 240.05 227.2 240.15 229.4 239.25
M 206.5 241.35
Q 204.35 240.45 203.2 240.05 201.85 239.6 200.35 239.3 196.1 238.3 193.85 238.7 193.3 238.8 193.1 239.1 193.5 239.7 195.05 239.6 197.45 239.5 201.75 241.2
L 204.45 242.2
Q 207.85 243.35 213.55 244 216.4 244.3 222.3 244.6 222.5 244.6 222.4 244.4 220.95 243.65 217.7 243.25
L 210.35 242.2
Q 207.75 241.8 206.5 241.35
M 212.3 237.25
Q 211.95 237.5 212.3 237.85 212.55 238.05 212.9 238.05 218.25 238.95 224 238.85 226.4 238.75 227.6 238.5 229.1 238.25 230.85 237.45 229.6 237.05 226.3 237.4 219.25 238.3 212.3 237.25
M 222.05 226.65
L 220.65 227.3
Q 219.6 227.6 219.25 228 219.9 228.1 220.8 227.8 221.3 227.6 222.3 227.25 222.85 227.15 224 227.15
L 237.5 227.2
Q 237.3 227.1 237.7 226.95
L 238.7 226.8
Q 238.65 226.7 238.75 226.6 238.9 226.5 239.05 226.5 239.1 226.5 239.2 226.5 240.25 226.3 240.9 225.8 241.45 225.45 241.55 225.1 241.6 224.85 241.5 224.15 241.25 223.45 240.9 223.55 241 223.95 240.75 224.35 240.5 224.75 240.1 224.95 239.9 225.05 238.4 225.45
L 236.75 225.95
Q 236.3 226.05 235.3 226.05
L 225.15 226.25
Q 223.2 226.25 222.05 226.65
M 210.6 203.65
Q 210.75 203.3 210.2 203.2 206.7 202.15 202.75 200.2 202.15 199.95 202 199.95 201.55 199.95 201.45 200.4 201.4 200.7 202 201.05
L 203.9 202.05
Q 207.1 203.5 210.6 203.65
M 249.3 246.2
Q 249.75 246.2 249.8 246 249.85 245.7 249.35 245.55
L 242.2 244.2 240.9 244.15
Q 236.9 244.25 234.3 243.7
L 232.6 243.35
Q 231.95 243.2 229.5 243.1 227.2 243.1 226.4 243.8
L 226.4 244.1 231.9 244
Q 231.85 244.45 232.55 244.45
L 249.3 246.2
M 247.05 246.9
Q 247.6 246.9 247.6 246.6
L 241.15 246.5 239.7 246.6 239.7 246.8 247.05 246.9
M 145.5 151.95
Q 146.65 150.8 146.95 150.05 141.7 155.4 136.5 159.2 135.8 159.8 135.8 160.2 140.25 156.85 145.5 151.95
M 145.5 146.2
Q 148.2 143.45 149.65 140.9
L 135 155.15
Q 125.5 164.35 115.6 172.55 116.4 172.65 117.65 171.7 126.1 164.9 134.8 156.5 138.6 152.7 140.55 150.85 144.6 147.1 145.5 146.2
M 105.1 182.25
Q 105.35 182.35 105.6 182.3 106.1 182.2 106.7 181.35 107 180.95 107.65 180.25 108.45 179.35 109.85 177.95
L 124.8 163.5
Q 128.6 159.7 129.8 158.05 125.7 161.75 121.75 165.4 115.35 171.4 109.45 177.3 106.45 180.3 105.1 182.25
M 102.4 137.25
L 103 137.45
Q 103.5 143.4 102.25 150.35 101.25 155.75 98.9 162.95 96.55 169.7 94.75 173.15 93.85 175 91.9 178.7 91.25 180.15 90.4 182.5
L 89.05 186.35
Q 87.6 190.3 85.05 195 83.6 197.7 80.3 203.25 86.85 195.6 90.4 186.3 92.5 180.5 92.65 180.2 93.35 178.55 94.85 175.75 96.55 172.6 97.15 171.25 97.85 169.7 99.7 164.35 100.85 160.9 101.7 158.15 102.65 154.75 103.1 152.35 103.6 149.6 103.85 145.95 104.05 142.55 104 138.35 104 137.3 103.65 136.9 103.3 136.55 102.75 136.55 102.15 136.55 101.75 136.9 101.25 137.25 100.55 138.6 101.65 138.3 102.4 137.25
M 142.95 118.55
Q 147.85 117.2 152 116.5 152.7 116.3 152.8 116 149.7 116.4 146.05 117.2 140.65 118.45 134.05 120.65 132.05 121.35 129.9 122.1 121.05 125.3 116.05 128.25 115.15 128.85 114.85 129.3 115.45 129.5 116.6 128.75 120.15 126.3 127.05 123.75 129.6 122.8 132 121.95 137.85 119.9 142.95 118.55
M 153 118.05
Q 146.35 120.2 141.8 121.9 141.75 122.2 142.25 122.05
L 151.85 118.8
Q 152.8 118.5 153 118.05
M 68.4 131.5
Q 68 130.9 66.3 130.35 63.75 129.4 62.5 128.95 62.2 128.8 61.85 128.8 61.4 128.9 61.5 129.25 61.5 129.5 61.95 129.7
L 63.3 130.3
Q 65.8 131.3 68.4 131.5
M 43.3 118.7
L 45.05 120.1
Q 46.6 121.35 49.3 122.7 51.9 124.15 52.25 124.35
L 54.55 125.8
Q 57.2 127.4 60.4 127.4 59.95 127.1 56.55 125.25 54.45 124.2 52.5 122.85 50.6 121.55 50.05 121.3 48.15 120.55 47.25 120 46.75 119.65 45.95 118.95 45.05 118.15 44.65 117.9 43.35 116.95 41 116.05 36.6 114.4 31.6 113.45 30.55 113.35 30.2 113.55 30.9 114.25 32.2 114.7 32.65 114.85 34.5 115.25 36.95 115.85 41.55 117.85 42.75 118.35 43.3 118.7
M 101.25 91.55
Q 97.85 93.1 93.3 95.75 88.95 98.35 86.75 99.65 87.2 99.85 88.05 99.4
L 96.2 94.8
Q 99.8 92.7 101.25 91.55
M 93.3 96.55
Q 92.45 97 92.5 97.55
L 104.2 91.35
Q 105.8 90.55 106.45 89.9 99.4 92.95 93.3 96.55
M 87.25 87.6
Q 86.65 87.1 85.85 87 85.2 86.9 84.75 87.05 84.35 87.05 84.4 87.35
L 86.8 88.15
Q 86.65 88.7 86.75 89.05 82.25 90.95 76.9 92.15 76.75 92.5 76.9 92.8 77.85 92.85 80.3 92.2
L 85.5 90.7
Q 86.5 90.4 86.9 90.15 87.7 89.65 87.75 88.95 87.85 88.2 87.25 87.6
M 283.9 111.7
Q 285.55 110.8 287.05 109.75 278.85 113.45 269.7 118.25 258.35 124.25 252.75 129.2 251.4 130.35 250.9 131.3 250.7 131.7 250.7 132.15 250.75 132.6 251.1 132.75
L 251.5 132.55
Q 251.55 131.3 253.3 129.75 258.75 125 268.1 120 273.35 117.2 283.9 111.7
M 205.9 194.85
Q 205.25 194.6 204.75 194.45 203.95 194.15 203.5 194.05 202.65 193.8 202.55 194.4 202.55 194.8 203.15 195 203.2 195 203.25 195.05 206.95 196.55 214.8 198.75
L 222.65 200.95
Q 225.05 201.55 226.95 201.55
L 227.2 201.5
Q 227.35 201.35 227.2 201.3 225.45 201.15 223.1 200.3 220.45 199.25 219.1 198.75 217.05 198 212.5 196.85 208.15 195.7 205.9 194.85
M 208.1 171.15
L 208.35 171.35 217.15 148.35
Q 216.9 148.25 216.65 148.75
L 208.1 171.15
M 215.3 164.75
Q 214.8 164.9 214.4 165.75
L 209.75 175.25
Q 209.35 176.15 209.4 176.65 212.3 171 215.3 164.75
M 190.45 118.2
Q 194.7 112.05 198.4 107.5 199.55 106.1 200.6 104.85 199.95 104.45 199.05 105.45 197.3 107.3 195.45 109.6 192.65 112.9 189.7 117.1 189.35 117.55 181.25 129.5 174.85 138.9 166.3 150.1 160.7 157.45 150.6 170.1 151.95 169.75 153.65 167.7 168.55 150.45 181.05 132.1 184.2 127.5 190.45 118.2
M 246.95 73.6
Q 247.2 73 247.25 72.65 247.25 72.4 247.1 72.2 246.9 72 246.65 72.05 246.4 72.2 246.3 72.6 245.7 74.15 245.9 75.15 245.95 75.3 246.45 76.6 246.8 77.45 247 78.7 247.15 79.45 247.35 80.9 247.75 82.8 248.45 84.35 248.75 85 249.3 86.2 249.8 87.25 249.9 88.1 250.25 90.05 248.9 93.2 247.3 96.9 247.2 98.35 247.1 99.4 247.2 101.6 247.1 103.05 246 106.1 244.9 108.95 244.9 110.55 245.25 110.3 245.8 109.3 247 107 247.9 104.9 248.6 103.2 248.7 102.3 248.75 101.75 248.7 100.8 248.65 99.75 248.65 99.35 248.75 98 249.85 95.5 251 92.95 251.4 91.2 252 88.75 251.4 86.8 251.15 85.85 250.35 84.3 249.45 82.55 249.2 81.85 248.9 81 248.5 78.9 248.1 77 247.65 76 246.75 74.35 246.95 73.6
M 257.5 94.5
L 256.25 98.05
Q 255.25 100.95 254.85 102.45 254.8 102.7 254.7 103.05 254.4 104.2 254 106.15 252.75 111.6 250.25 121.25
L 249.75 123.15
Q 250.2 123 250.4 122.15
L 253.9 109.2
Q 254.4 107.45 254.55 106.35
L 254.95 103.8
Q 255.05 103.35 255.2 102.75 255.45 101.85 255.85 100.6
L 258.05 93.95
Q 257.7 93.95 257.5 94.5
M 259.4 77.95
Q 259.25 78.3 259.15 78.65 256.25 86.45 253.55 97.95 251.1 108.35 249.6 116.6 250.45 114.55 251.2 110.9 252.05 107.2 252.8 104.15 254.15 98.1 255.05 94.6 255.2 93.9 255.35 93.3 257 86.35 258.6 81.4 259.35 79.05 260.05 77.15 259.6 77.2 259.4 77.95 Z"/>

<path fill="#7097A8" stroke="none" d="
M 177.35 283.25
L 177.35 283.75
Q 180.4 282.1 183.4 280.6 184.3 279 185 277.45 181.1 280.3 177.35 283.25 Z"/>

<path fill="#D3E7EE" stroke="none" d="
M 266.4 265.7
Q 264.15 263.45 263.65 262.1 263.2 260.6 262.85 259.85 262.7 259.6 262.55 259.35 259.1 259.25 256.7 259.2 245.7 259.05 236.85 260.5 215.85 263.95 183.4 280.6 181.95 283.1 179.95 285.85 176.85 290.05 176.85 294.25 176.85 299.4 180.7 305.2 182.7 308.2 185.55 311.25
L 293.55 311.25
Q 293.5 309.8 294 308.3 294.15 307.8 294.65 306.65 294.55 306.45 294.45 306.25 291.85 300.25 285.35 290.3 279.3 281 274.9 276.05 272.95 273.85 270.9 271.95 270.65 271.85 270.5 271.7 270.45 271.6 270.45 271.55 268.95 270.15 267.4 268.95 264.2 266.5 263.1 265.4 262.75 265.05 262.7 264.6 262.6 264.1 263 264 263.3 263.85 263.75 264.3 264.5 265 268.25 267.75 268.3 267.8 268.4 267.85 268.2 267.65 268.1 267.45 268.05 267.3 268.1 267.15 267.3 266.55 266.4 265.7
M 249.8 290.6
Q 249.95 290.85 249.3 291 237.4 291.75 222.15 297.9 217.55 299.7 215.65 300.1 215.2 300.1 215.1 300.05 214.95 300 214.9 299.85 214.85 299.7 214.9 299.6 216.55 299.5 218.6 298.7 218.8 298.6 222.1 297.1 223.95 296.3 229.6 294.35 236.55 292.05 240.7 291.3 244.95 290.5 249.8 290.6
M 263.1 293.2
L 256.5 293.25
Q 251.2 293.4 251.15 293.4 245.9 293.75 238 295.75 237.15 295.9 237.2 295.4 237.2 295.15 237.65 295.05 246.05 292.85 251.6 292.45 254.45 292.3 257.3 292.3 260.95 292.3 262.8 292.4 267.95 292.6 273.2 293.7 273.4 294 273 294.1 272.95 294.15 272.55 294 271.85 293.75 270.7 293.8 268.95 293.9 268.8 293.9 268.15 293.85 267.05 293.65 265.7 293.35 265.25 293.3 264.55 293.2 263.1 293.2
M 235 290.35
Q 235.15 290.9 234.3 291 224.35 293.35 215.2 297.55 210.9 299.6 208.2 301.35 206.75 302.35 206.15 302.6 205.95 302.1 206.65 301.65 217.9 294.1 235 290.35
M 126.9 261.25
Q 126.9 261.75 126.4 261.75 126.9 262.25 142.95 268.9 158.65 275.35 160.85 278.25
L 161.1 278.3
Q 161.35 278.45 161.35 278.75 155.95 278.5 142.95 276.85 151.1 280.7 155.95 283.6 156.85 284.1 157.2 284.45 152.95 282.65 150.45 281.35 146.15 279.15 143.95 278.05 142.1 277.25 140.45 276.5 137.8 276.15 134.85 275.75
L 128.4 275.75
Q 128.4 276.25 127.9 276.25 128.75 277.6 134.85 280.15 137.9 281.45 141.25 282.7 141.464453125 282.74296875 141.7 282.75
L 141.35 282.75
Q 141.3 282.75 141.25 282.7 127.55 281.95 106.4 292.3 98.55 296.15 92.5 300.25 86.9 304 86.9 305 86.9 305.4 90.3 307.9 92.55 309.55 95.25 311.25
L 171.2 311.25
Q 170.95 310.35 170.6 309.45 169.95 307.75 168.45 304.65 165.2 297.85 162.85 294.25
L 161.4 292.1
Q 160.5 290.7 160.2 289.55 160 289.05 160.2 288.8 160.4 288.55 160.75 288.6 161.05 288.6 161.3 288.85 161.4 288.95 161.6 289.45
L 168.5 284.8
Q 171 282.75 171.8 282.2
L 177.65 278.4
Q 183.05 274.9 185.9 273.45 190.85 270.95 194.25 270.7
L 191.15 272.3
Q 187.45 274.15 185.8 275.1 185.75 275.5 185.65 275.8 188.65 274.1 191.8 272.65 194.25 270.95 196.75 269.35 202.9 265.45 208.35 262.5 205.9 263.25 204.35 263.85 202.9 264.4 200.1 265.8 198.75 266.5 197.95 266.3 203.75 262.95 210.3 261.2 210.55 261.15 211.4 260.95 214.95 259.15 218.2 257.85 199.65 261.8 180.8 272.75 178.3 274.25 176.95 274.65 176.5 274.15 177.5 273.5 186.15 267.9 195.6 263.85 177.6 269.1 176.85 269.25
L 176.85 268.75
Q 182.25 262.95 196.45 256.35 209.45 250.3 213.8 250.3
L 213.8 249.8
Q 210.6 249.9 200.75 248.6 197.25 248.15 194.25 247.7 191.5 247.8 187.3 247 183.9 246.35 180.45 245.8 176.4 245.15 172.3 244.55 163.4 247.25 151.35 251.65 137 256.9 126.9 261.25
M 137.65 279.3
Q 133.9 278.4 132 277.9 131.6 277.8 131.55 277.6 131.5 277.15 132.3 277.25 138.25 278.4 141 279.2 144.95 280.35 153.25 284.2
L 160.8 287.8
Q 161.35 288 161.15 288.35
L 157.45 287.05
Q 155.35 286.25 150.4 283.95 145.9 281.9 143.25 280.95 140.95 280.15 137.65 279.3 Z"/>

<path fill="#B2D1FF" stroke="none" d="
M 244.65 201.85
Q 244 202.85 243.2 203.7 240.7 206.25 229.3 212.3
L 229.3 211.8
Q 230.2 211.1 231.55 209.3 233.65 206.5 233.8 206.3
L 233.3 206.3
Q 230.8 206.9 228.15 207.65
L 228.2 207.75
Q 226.5 208.55 224.2 209 223.65 209.1 222.95 209.2 218.05 210.7 212.75 212.6 198.55 217.7 191.9 222.55 193.45 222.8 195.3 223.05
L 203.3 224.3
Q 202.75 225.2 198.25 229.05 194.3 232.4 194.3 233.8
L 194.3 234.8
Q 194.75 234.8 195.95 235.05 197.15 235.3 197.8 235.3 198.1 235.3 203.6 232.9 203.65 232.6 203.8 232.4 205.9 229.6 209.85 227.55 212.2 226.3 217.2 224.55 227.35 220.85 237.35 216.3 240.25 214.95 241.25 213.9 242.5 212.65 243.2 210.65 243.65 209.3 244.1 206.85 244.85 207.45 244.95 208.7 245.3 208 245.1 206.65 244.85 204.05 244.65 201.85
M 216.9 211.75
L 217 211.45
Q 219.4 210.95 221.8 210.7
L 222 210.95 218.35 211.65
Q 217.35 211.85 216.9 211.75
M 36 78.9
L 36 78.4
Q 36.5 77.35 40.3 71.5 40.65 70.95 41 70.45
L 30.55 70.45
Q 30.8 72.95 31.75 76.75 32.95 81.85 33.25 83.85 33.35 84.55 33.25 85 37.55 83.65 43.3 79.35 46.45 77.1 47 76.8 48.3 76.05 50.4 75.4 51.9 73.05 53.55 70.45
L 49.1 70.45
Q 47.75 71.25 46.15 72.25 37.1 77.8 36 78.9
M 91.9 88.9
L 91.9 89.9
Q 123.65 74.15 131.7 70.45
L 104.75 70.45
Q 101.95 73.2 98.95 77.85 95.9 82.6 91.9 88.9
M 100 70.45
L 89.8 70.45
Q 85.3 74.5 84.9 74.9 84.9 75.15 84.65 75.65 84.4 76.15 84.4 76.4 94.05 72.7 100 70.45
M 203.1 187
Q 203.1 187.25 203.1 187.5 203.1 188.1 203.15 189.35 203.15 190 203.05 190.55 214.8 196.45 229.8 201.3
L 236.3 201.3
Q 236.05 201.15 231 197.45 227.8 195.15 226.3 195.3
L 226.3 194.8
Q 227.7 194.8 230.2 194.3 232.7 193.8 233.3 193.8 232.8 192.5 230.55 191.3
L 226.8 191.3
Q 219.9 190.7 210.75 188.75 205.95 187.65 203.1 187
M 152 116.5
Q 147.85 117.2 142.95 118.55 140.8 119.4 138.7 120.3 131.85 123.2 126.45 125.5 121.9 128.45 118.85 130.55 108.35 137.9 105.3 142.7 104.45 144 103.85 145.95 103.6 149.6 103.1 152.35 102.65 154.75 101.7 158.15 100.65 164.05 98.85 169.55 100.2 167 101.6 163.45 103.5 158.5 104 157.5 106.8 151.6 112.4 150.85
L 112.4 151.35
Q 111.4 152.1 110.4 153.35 111 153.05 114.65 151.95 118.15 150.85 118.4 150.85 118.05 152.6 109.75 166.8 98.95 185.1 95.9 190.8
L 96.4 190.3
Q 99.1 188.7 105.6 182.3 105.35 182.35 105.1 182.25 106.45 180.3 109.45 177.3 115.35 171.4 121.75 165.4 122.6 164.45 123.5 163.5 144.8 140.4 156.85 124.85 156.55 124.85 156.4 125.1
L 156.35 125.35
Q 153.55 127.25 150.5 129.1 144.4 132.7 141.85 132.85 142.65 131.2 155.3 119.5 164.75 110.75 168.1 107.95 156.65 112.7 146.05 117.2 149.7 116.4 152.8 116 152.7 116.3 152 116.5
M 141.8 121.9
Q 146.35 120.2 153 118.05 152.8 118.5 151.85 118.8
L 142.25 122.05
Q 141.75 122.2 141.8 121.9
M 176.4 134.05
Q 182.5 123.75 187.35 116.1 182.25 120.15 174.9 126.2 155.05 142.4 150.35 146.35 151.4 146.35 154.9 144.15 158 142.2 158.85 141.35
L 159.35 141.35 159.35 144.35
Q 156.1 153.8 151.6 162.15 148.35 168.1 148.35 170.1
L 148.35 172.35
Q 164.8 152.6 176.4 134.05
M 188.35 143.35
Q 187.6 144.35 182.6 146.65 181.9 146.95 181.3 147.25 179.45 148.65 177.9 149.9 166.7 158.6 166.35 158.85 173.95 156.4 182.1 153.1 184.25 152.2 186 151.45 184.3 151.85 182.85 151.85 182.6 150.7 185 147.85 188.2 144.05 188.35 143.85
L 188.35 143.35
M 258.6 81.4
Q 258.15 83.5 257.55 85.7 256.5 89.5 255.05 94.6 254.15 98.1 252.8 104.15 253.5 103.7 254.7 103.05 254.8 102.7 254.85 102.45 255.25 100.95 256.25 98.05
L 257.5 94.5
Q 257.7 93.95 258.05 93.95
L 255.85 100.6
Q 255.45 101.85 255.2 102.75 259.5 100.2 269.1 94.55 279.95 88.3 283.55 86.5 284.15 85.9 284.75 85.4
L 284.75 85.9
Q 284.3 86.1 283.55 86.5 281.9 88 280.15 90.35 277.45 94 277.25 95.9
L 277.25 96.4
Q 277.3 96.4 277.45 96.35
L 277.7 96.15
Q 283.55 91.45 286.8 89.25 286.35 90.1 285 91.15
L 279.05 95.9
Q 279.15 95.9 279.25 95.9 279.7 95.9 282.75 97.85 285.85 99.85 286.75 99.9 282 103.05 276.1 107.5 270.15 112 268.25 113.9
L 267.75 113.9
Q 270.1 114.15 280.8 110.75 291.3 107.4 293.25 105.9 291.7 108.35 289.7 111.45 293.35 109.9 296.6 108.85 296.75 109.3 296.05 109.55 293 110.85 288.75 112.9 284.3 119.5 277.75 128.85
L 282.85 126.4
Q 286.1 124.85 288.95 123.5 294.1 120.9 297.8 118.85
L 297.8 70.45 260.05 70.45
Q 259.9 74.3 259.15 78.65 259.25 78.3 259.4 77.95 259.6 77.2 260.05 77.15 259.35 79.05 258.6 81.4 Z"/>

<path fill="#E3B39B" stroke="none" d="
M 20.5 289.3
L 20.5 294.95
Q 25.85 296.7 35.4 300.35 40.85 302.45 45.05 304.05 45 303.05 45.15 302.1 45.4 300.75 46 299.55 45.45 299.85 45.3 300 45.75 298.55 46.5 297.1 47.15 295.95 48.75 293.75 49.65 292.5 50.15 291.4
L 50.1 291.4
Q 45.2 292.1 42.15 292.15 38.5 292.2 31.2 291
L 20.5 289.3
M 261.2 184.1
L 261.15 184.1
Q 263.3 188.55 263.9 193.15 263.45 192.4 263 191.7 263 197.7 264.25 204 264.55 205.55 266.25 211.9 268.55 219.9 270 223.2 270.6 224.55 271.7 226.7 271.25 219.6 271.25 205.3 271.25 189.55 273.3 183.3 273.55 182.65 273.8 182 273.5 182.15 273.25 182.1 273.65 181.75 274.1 181.4 274.6 180.3 275.25 179.25 275.3 179.2 275.35 179.15 270.8 183 267.9 186.6 267.15 187.6 266.45 187.35 268.9 184.4 272.25 181 274.55 178.85 276.45 177.4 277 176.35 277.25 175.85
L 276.75 175.85
Q 274.15 178.95 271.05 181.3 267.05 184.35 264.25 184.35 261.9 184.35 261.2 184.1
M 279.55 130.05
L 274.8 132.3
Q 273.85 132.75 273 133.15 272.35 133.65 271.7 134.2 268.95 136.5 267.95 137.2 266.9 137.9 263.75 139.7 256 144.15 249.65 150 250.7 163 256.15 174.65 257.85 165.1 265.7 154.05 268.25 150.45 273.2 143.9 278.4 137 286.35 126.8 283.55 128.15 279.55 130.05
M 41.85 141.75
Q 45.2 143.3 50.65 147.3 58.85 153.3 65.25 157.85 66.3 164.7 67.45 168.55 68.5 172.05 68.5 175.6 68.5 181.75 65.25 185.5 62 189.25 62 193.05 62 193.95 62.55 200.35 64.05 201.05 65.8 202.25 66.85 197 68.2 191.75 70.25 183.6 70.2 174.9 70.15 168.15 70.5 161.5 70.85 155.2 71.65 148.95 63.45 145.3 48.15 138.4 42.75 135.95 36.6 135.95 32.75 135.95 31.85 136.25 30.75 136.6 29.15 137.9 29.3 140.35 29.4 143 31.6 139.85 33.5 139.85 37.75 139.85 41.85 141.75 Z"/>

<path fill="#ABD1DC" stroke="none" d="
M 161.7 289.65
Q 161.75 289.8 161.8 290 162 290.5 163.3 292.45 164.65 294.25 166.1 296.9 167.75 299.8 170.15 305 171.45 307.8 171.95 309.3 172.3 310.3 172.5 311.25
L 185.55 311.25
Q 182.7 308.2 180.7 305.2 176.85 299.4 176.85 294.25 176.85 290.05 179.95 285.85 181.95 283.1 183.4 280.6 180.4 282.1 177.35 283.75
L 177.35 283.25
Q 181.1 280.3 185 277.45 184.3 279 183.4 280.6 215.85 263.95 236.85 260.5 245.7 259.05 256.7 259.2 259.1 259.25 262.55 259.35 262.25 258.85 261.8 258.4 261.2 257.8 260.4 257.25 258.3 255.9 257.3 255.15 257 254.95 256.95 254.7 256.9 254.45 257.05 254.3 256.6 254.1 256.15 253.75 255 253 254 252.3 253.9 252.6 253.45 252.75 252.85 252.95 252.15 252.85
L 250.35 252.65
Q 250.9 252.9 251.4 253.25 250.35 253.1 243.4 252.45 242.35 252.3 241.15 252.2 234.9 251.55 231 250.6 229.35 250.15 228.15 249.85
L 222.75 249.15
Q 212.7 247.9 207.6 246.85 205.7 246.7 204.65 246.65 201.9 246.65 200.55 246.6 199.8 246.6 199.15 246.55 198.85 246.65 198.5 246.75 196.85 247.3 196.2 247.45 195.35 247.65 194.25 247.7 197.25 248.15 200.75 248.6 210.6 249.9 213.8 249.8
L 213.8 250.3
Q 209.45 250.3 196.45 256.35 182.25 262.95 176.85 268.75
L 176.85 269.25
Q 177.6 269.1 195.6 263.85 200.55 261.7 205.75 259.95 220.8 254.85 236.45 253.75 233.8 254.9 229.95 255.7 225.15 256.5 222.75 256.95 220.5 257.35 218.2 257.85 214.95 259.15 211.4 260.95 212.85 260.55 216.05 259.8
L 223.25 258
Q 225.65 257.55 230.45 256.95
L 235.1 256.4
Q 239.9 255.9 242 256.3
L 240.6 256.5
Q 230.15 257.6 223.9 258.8 220.3 259.5 213.2 261.2 210.45 261.9 208.35 262.5 202.9 265.45 196.75 269.35 194.25 270.95 191.8 272.65 192 272.55 192.2 272.45 192.15 272.9 191.55 273.2
L 178.95 281.1
Q 178.6 281.35 178.3 281.35 177.8 281.35 177.8 280.95 181.55 278.15 185.65 275.8 185.75 275.5 185.8 275.1 185.6 275.2 185.45 275.3 182.55 276.95 176.4 281
L 173.45 283
Q 170.9 284.65 168.5 286.45 166.45 287.95 165.7 288.45 164.05 289.45 162.55 289.8 161.85 289.9 161.7 289.65
M 244.7 257.85
Q 246.8 257.75 247.8 257.8 248 258 247.5 258.1 242.65 258.6 240.05 258.75
L 236.25 259.1
Q 235.15 259.25 231.05 259.95
L 224.35 261.2
Q 223.8 261.35 223.8 261 232.6 258.85 241.2 258.1
L 244.7 257.85
M 141.7 282.75
Q 141.464453125 282.74296875 141.25 282.7 141.3 282.75 141.35 282.75
L 141.7 282.75
M 160.4 243.1
Q 158.5 243.5 156.7 244.05 153.45 245 148.35 246.8
L 133.2 252.2
Q 131.1 252.9 129.95 253.05 128.1 253.3 126.8 252.65 126.7 252.6 126.65 252.55 125.8 253.85 124.45 255.45 122.85 257.3 121.9 258.15 121.55 258.45 121.15 258.75 121.15 259.6 120.85 260.6
L 144.45 273.65
Q 146.85 275.1 149.6 277.2 148.5 276.9 145.75 275.1 144.45 274.2 140.95 272.25 130.85 266.4 125.65 263.75 122.9 262.35 120.55 261.35 120 262.65 118.8 264.5 114.05 272 110.05 277.8 107.05 282.1 104.7 283.5 102.45 284.8 97.55 285.4
L 79.3 287.55
Q 77.05 287.75 76.85 287.75 75.5 287.85 74.45 287.8 73.35 288.45 72.25 289.05 70.7 289.95 69.65 290.2 68.45 290.5 65.55 290.3 61.6 290.05 58.05 290.35 56.45 290.5 51.35 291.25 51.15 292 50.95 292.45 50.75 293 50.05 294
L 48.7 296.1
Q 49.45 295.45 50.4 295 50.7 294.8 50.95 294.85 51.35 294.95 51.25 295.45 51.15 295.9 50.8 296.25 50.35 296.75 49.3 297.65 48.35 298.45 47.9 299.15 46.8 300.75 46.9 303.5
L 47.5 308
Q 47.7 309.65 47.7 311.25
L 95.25 311.25
Q 92.55 309.55 90.3 307.9 86.9 305.4 86.9 305 86.9 304 92.5 300.25 98.55 296.15 106.4 292.3 127.55 281.95 141.25 282.7 137.9 281.45 134.85 280.15 128.75 277.6 127.9 276.25 128.4 276.25 128.4 275.75
L 134.85 275.75
Q 137.8 276.15 140.45 276.5 135 274.05 131.95 272.65
L 129.85 271.6
Q 129.85 271.2 130.3 271.2 130.6 271.2 130.9 271.35
L 132.95 272.25
Q 138.45 274.7 142.95 276.85 155.95 278.5 161.35 278.75 161.35 278.45 161.1 278.3
L 160.85 278.25
Q 158.65 275.35 142.95 268.9 126.9 262.25 126.4 261.75 126.9 261.75 126.9 261.25 137 256.9 151.35 251.65 163.4 247.25 172.3 244.55 166.9 243.8 161.4 243.2 160.9 243.15 160.4 243.1
M 148.7 274.35
Q 149.75 274.75 150 275.3 145.2 273.3 141.25 271.15 141.45 270.8 142 271.15 145.7 273.1 148.7 274.35 Z"/>

<path fill="#FFFFFF" stroke="none" d="
M 89.85 262.15
Q 89.95 263.85 89.4 266.25
L 89.4 266.75
Q 92.3 265.25 95.2 263.8 92.3 262.95 89.85 262.15
M 72.25 266.35
L 72.9 266.25 72.4 266.25
Q 72.3 266.3 72.25 266.35
M 70.3 266.9
Q 66.2 268.6 61.9 270.1 70.1 267.5 72.25 266.35
L 70.95 266.55
Q 70.75 266.75 70.3 266.9
M 36 268.75
L 35.5 268.75
Q 40.5 269.75 43.5 269.75 42.7 271.05 38.25 273.55 35.95 274.8 33 276.25
L 33 276.6
Q 35.2 276.45 38 275.9 51.25 273.25 68.9 266.8
L 58.5 268.25 58 268.25
Q 61 265.2 63.3 262.45 57.6 264.35 50.45 266.2 38.45 269.3 36 268.75
M 22.15 196.55
L 20.5 196.75 20.5 240.85
Q 25.6 243.15 32.4 246.3 45.25 252.25 46.5 252.25
L 47 252.25
Q 46.15 250.7 39.2 242.55 34.35 236.9 31.7 234.05 30.35 233.65 29.2 233.6 28.9 233.3 29.3 232.9 29.65 232.6 30.05 232.55 30.15 232.5 30.2 232.5 31.75 232.5 34.55 233.9 40.05 236.75 47.55 240.5 60.75 247.05 80.25 256.5 85.6 259.05 89.7 260.95 93.05 262.5 95.6 263.55 104.8 258.8 113.4 254.25
L 114.4 254.25 114.4 256.75
Q 113.6 257.5 113.1 259 112.95 259.45 112.85 259.8
L 114.7 258.8
Q 115.55 258.4 115.85 258.7
L 112.55 261
Q 112.45 261.05 112.4 261.1
L 112.4 261.25
Q 118.4 256.95 121.95 253.7 124 251.8 125.65 250 126.2 248.4 126.35 246.35
L 125.4 246.2
Q 125.85 246.05 126.4 245.9 126.4 245.25 126.4 244.55 126.25 240.6 126.2 238.65 126.3 233.55 126.2 231 126.1 227.9 125.15 222.85 124.4 218.8 123.8 216.7 123.45 215.45 123 214.35 122.3 212.45 121.35 210.95 121 210.4 120.6 209.9 119 207.85 116.85 206.6 113.95 204.85 110.95 205.2 109.95 205.3 108.55 205.75 106.35 206.4 106.15 206.45 103.15 207.15 97.55 206.75
L 87.95 206.15
Q 83.85 205.95 82.1 206.3 78.85 206.9 76.35 209.2
L 86.25 215.7
Q 88.25 217.05 88.75 218.05 82.2 214.55 75.05 210.3 74.2 210.8 73.65 210.25 73.8 209.95 74 209.7 71.7 208.3 69.3 206.85 66.25 205 64.55 203.7 63.5 202.9 62.7 202.35 61.7 201.65 61.1 201.45 60.05 201.05 58.45 201 56.65 201 55.75 200.9 53.25 200.75 46.6 198.5 40.9 196.55 37.45 197.1 34.15 198 32.55 198.4 32.5 198.4 32.5 198.45 33.4 198.8 36.3 199.8 38.65 200.65 41.9 202.45 42.6 202.9 42.6 203.25 41.55 203.2 40.2 202.7 38.7 202.1 37.9 201.8 36.9 201.4 35 200.8 32.9 200.15 32.05 199.85
L 29.4 198.7
Q 28.5 198.6 27.8 198.3
L 28.2 198.2 26.05 197.25
Q 24.9 196.65 24 196.5 23.25 196.35 22.15 196.55
M 93.65 221.9
Q 94.6 222.15 95.55 222.5 97.55 223.15 99.4 224 101.1 224.8 104.4 226.45 107.4 227.8 109.7 228 109.9 226.45 109.7 224.9 110.4 226.65 110.15 228.5 107.3 228.55 102.8 226.3
L 93.65 221.9
M 89.2 230.4
Q 91 231.55 92.65 232.75 92.3 232.7 91.25 232.1 89.7 231.2 88.2 230.3 88.05 230.3 87.9 230.3 92.1 234.3 92.45 234.65 95.75 237.95 96.65 239.65 56.6 217.9 51.05 213.3 51.65 213.4 56.15 214.75 53.2 212.65 49.65 210.05 47.85 208.75 47.05 208 47.55 207.7 48.4 208.35 51.4 210.45 57.35 214.7 57.8 215 58.25 215.35 65.35 217.4 79.35 221.55 91.5 225.1 99.2 227.05 102.6 231.4 102.9 232.3
L 98.4 232.3
Q 92.15 230.7 89.2 230.4
M 296.4 125.6
L 297.8 124.2 297.8 121.9
Q 296.4 123.6 294.85 125.15 293.15 126.85 291.85 127.3 291.65 127.35 291.45 127.4 291.45 128.2 291.45 129.15 291.55 129 291.7 128.9 292.4 128.3 294.05 127.25 295.65 126.3 296.4 125.6
M 297.5 120.95
L 297.8 120.65 297.8 120.35
Q 297.2 120.75 296.55 121.15 296.75 121.2 296.95 121.3 297.25 121.3 297.5 120.95
M 153.65 243.6
Q 153.05 243.8 152.3 244.25
L 153.35 243.85
Q 154.7 243.4 155.5 243.15 154.45 243.3 153.65 243.6 Z"/>

<path fill="#E4F5FB" stroke="none" d="
M 112.85 259.8
Q 112.95 259.45 113.1 259 113.6 257.5 114.4 256.75
L 114.4 254.25 113.4 254.25
Q 104.8 258.8 95.6 263.55 96.95 264.1 98.05 264.55 96.55 264.15 95.2 263.8 92.3 265.25 89.4 266.75
L 89.4 266.25
Q 89.95 263.85 89.85 262.15 86.25 260.95 83.65 259.85 80.85 258.6 76 256 72.05 253.9 69.8 252.75 69 252.35 68.45 252.1 61.2 249.1 57.75 247.35 52.35 244.25 49.55 242.85 48.5 242.35 45.15 240.9 42.35 239.75 40.75 238.85 37.05 236.55 35.15 235.55 33.3 234.55 31.7 234.05 34.35 236.9 39.2 242.55 46.15 250.7 47 252.25
L 46.5 252.25
Q 45.25 252.25 32.4 246.3 25.6 243.15 20.5 240.85
L 20.5 287.5
Q 21.45 287.5 22.55 287.65 26.15 288.1 33.35 289.35 39.8 290.35 44.2 290.1 46.4 290 53.6 288.8 59.4 287.8 63 288.1 64.05 288.2 66.1 288.4 67.9 288.5 69.15 288.2 70.1 288 73.1 286.5 76.5 284.8 78.1 283.8 79.1 283.2 80.8 281.9 82.7 280.5 83.5 279.95 85.2 278.9 88.15 277.4 83.2 282.2 77.4 286 88.7 284.85 99.45 283.05 102.4 282.55 103.7 281.8 105.7 280.75 108.1 277.15
L 113.55 269.05
Q 117.5 263.2 119.05 259.95 118.9 259.95 118.8 260 119 259.65 119.45 259.1 119.9 258.45 120.6 257.6 121.35 256.6 122.45 255.25 124.75 252.4 125.55 250.25 125.6 250.1 125.65 250 124 251.8 121.95 253.7 118.4 256.95 112.4 261.25
L 112.4 261.1
Q 109.7 262.85 107.95 263.65 106.9 264.1 106.65 264.3
L 105.55 265.1 103.9 266
Q 102.9 266.6 101.15 268.05 100.85 268.3 99.2 269.15 96.9 270.35 93.55 272.5 92.3 273.35 91.6 273.2 92.25 272.55 94.1 271.35
L 101.85 266.45
Q 102.7 265.85 104 265.1
L 106.45 263.4 108.4 262.5
Q 109.35 262.1 110.65 261.25 112.7 259.9 112.85 259.8
M 109.6 263.75
Q 109.5 263.8 106.7 265.65 104.95 266.8 103.65 267.05
L 113.8 260.85
Q 113.3 261.8 112 262.55 111.25 263 109.6 263.75
M 35.5 268.75
L 36 268.75
Q 38.45 269.3 50.45 266.2 57.6 264.35 63.3 262.45 61 265.2 58 268.25
L 58.5 268.25 68.9 266.8
Q 69.9 266.45 70.95 266.05 71.1 266.3 70.95 266.55
L 72.25 266.35
Q 72.3 266.3 72.4 266.25
L 72.9 266.25 72.25 266.35
Q 70.1 267.5 61.9 270.1 50.9 273.95 38.6 276.55 35.2 277.3 33.05 277.45 30 277.65 27.6 276.85 27.55 276.6 27.85 276.5 28.15 276.4 28.45 276.45 30.3 276.8 33 276.6
L 33 276.25
Q 35.95 274.8 38.25 273.55 42.7 271.05 43.5 269.75 40.5 269.75 35.5 268.75
M 69.4 269.9
Q 68.8 270.5 67.4 271.1
L 53.8 277.2
Q 54 276.85 55.05 276.25 63.55 272.3 69.4 269.9
M 96.65 239.65
Q 95.75 237.95 92.45 234.65 92.1 234.3 87.9 230.3 88.05 230.3 88.2 230.3 77.55 224.2 66.45 219.45 66.4 219.15 66.75 219.05 66.85 219 67.25 219.15 75.95 223.05 80.35 225.3 85.25 227.85 89.2 230.4 92.15 230.7 98.4 232.3
L 102.9 232.3
Q 102.6 231.4 99.2 227.05 91.5 225.1 79.35 221.55 65.35 217.4 58.25 215.35 62.85 218.5 66.55 220.6 68.75 221.85 77 226.05 83.55 229.35 87.25 231.85 82.9 229.9 75.55 226.2 69.45 223.25 65.8 221.1 62.25 219 56.15 214.75 51.65 213.4 51.05 213.3 56.6 217.9 96.65 239.65 Z"/>

<path fill="#EDEBD3" stroke="none" d="
M 20.9 123.3
Q 20.75 123.1 20.7 122.85
L 20.5 123 20.5 195.2
Q 21.3 195.05 22.25 194.95 22.75 194.9 23.2 194.9 22.75 178.65 26.8 162.75 28.35 156.75 27.9 150.65
L 27.55 134.5
Q 27.1 134.35 26.55 133.95
L 23.3 131.4
Q 22.5 130.8 22.35 130.35 22.15 129.9 22.25 129.25 22.25 128.3 22.45 126.4 22.45 126 22.65 125.85 22.95 125.65 23.15 126
L 23.15 125.45 22.6 125
Q 21.3 124 20.9 123.3
M 24.3 72.6
L 25 71.75
Q 25.5 71.15 26.2 70.45
L 20.5 70.45 20.5 81.7
Q 21.7 80.8 22.9 79.6 23.35 79.15 23.55 78.7
L 23.6 75.05
Q 23.6 74.25 23.7 73.85 23.8 73.4 24.3 72.6
M 297.8 126.4
Q 297.4 126.8 297 127.05
L 295.5 127.95
Q 293.55 129.1 291.9 130.5 291.65 130.5 291.5 130.5 291.55 133.15 291.8 134.85
L 293.45 142.7
Q 294.45 147.5 295.1 149.9 295.8 152.3 297.8 157.8
L 297.8 126.4
M 75.4 143.65
Q 74.65 143.7 73.9 143.7 73.15 145.75 72.65 148.2 72.6 148.75 72.55 149.35 72 155.8 71.65 162.3 70.85 173.85 70.5 185.45 70.25 194.5 66.85 202.95
L 75.05 208.35
Q 75.9 207.3 77 206.5 77.35 206.25 77.7 206.05 77.5 205.8 77.4 205.5 76.35 202.8 76.45 199.75 76.5 197.4 77.7 193
L 82.35 175.2 80.9 169.6
Q 80.7 168.85 80.55 168.15 78.9 161.7 78.2 158.2 77.4 154.5 76.95 151.25 76.6 148.85 76.4 146.65 76.3 145.6 76.25 143.5 75.95 143.65 75.4 143.65
M 242.7 135.3
Q 241.55 142.75 241.4 146.85 241.35 147.85 241.3 149.8 241.2 151.5 240.9 152.7 240.6 153.9 239.85 155.6 239.45 156.55 238.65 158.45 237.4 161.6 236.85 164.85 237.1 165.45 237.4 166.1 238.05 167.5 239.4 170.25 240.85 173.3 242.5 179.15 244.2 184.85 244.8 187.75 245.5 191.2 246.25 197.85 246.3 198.3 246.35 198.75
L 247 205.05
Q 247.2 207.85 246.7 209 246.3 209.95 245.4 210.45 245.05 210.65 244.7 210.8 244.1 213.35 243.35 214.45 242.5 215.6 240.6 216.65 240.65 216.65 240.7 216.7 241.5 217.1 242.4 218.25 243.55 219.75 243.9 220.05 244 220.15 244.95 220.85 245.6 221.35 245.85 221.8 246.45 222.75 246.35 224.5 246.35 227.05 245.9 228.5 245.7 229.15 245.15 230.35 244.7 231.5 244.75 232.3 244.8 233.4 246 235.2 247 236.65 248.1 237.9 249 238.9 249.1 239.55 249.2 239.9 249.25 240.6 249.55 241.55 250.85 241.9 251.55 242.05 252.95 242.3 254.85 242.85 256.1 245.2 256.8 246.45 257.95 249.15 258.85 250.85 258.95 251.1 259.55 252.7 258.75 254.55 260.8 255.55 261.8 256.3 263.4 257.5 264.15 258.95 264.2 259.05 264.25 259.15 264.3 259.25 264.35 259.4 264.65 260.1 265.1 261.5 265.7 262.95 267.35 264.5 268.25 265.4 270.15 267.1 270.9 267.75 270.6 268.25 270.45 268.25 270.25 268.2
L 271.25 270.1
Q 273.05 271.6 274.6 273.2 280.2 278.7 287.05 289.4
L 289.4 293.05
Q 293.65 299.7 295.6 304.5 296.5 302.3 296.75 300.85 297.2 298.15 295.9 293.45 292.9 281.55 290.5 275.25 289 271.25 286.35 265.55 283.3 259.2 281.85 256 279.5 250.85 277 244.6
L 271.8 232.05
Q 269.45 226.35 267.45 221.2 261.75 205.95 261.4 194.95 261.35 191.95 262.25 190.4 259.85 186.3 257.85 182.1 256.7 179.75 255.7 177.4 251.85 168.3 249.6 158.7 248.7 154.85 248.35 151
L 248.1 150.95
Q 248.05 150.65 248.3 150.3 248.1 147.6 248.15 144.9
L 245.45 143.7
Q 244.5 142.55 244.2 140.2 243.95 138.05 243.85 137.75 243.6 136.4 242.9 135.55 242.8 135.4 242.7 135.3 Z"/>

<path fill="#C1817B" stroke="none" d="
M 36.65 98.3
Q 38.3 95.45 38.4 95.3 39.4 93.65 40.45 92.6 42.1 90.9 45.15 89.4 48.7 87.85 50.35 86.95 54.2 84.85 59.9 79.5 58.75 79.7 57.55 79.6 57.4 79.65 57.3 79.7 53.8 81.05 51.45 82
L 51.9 82.9
Q 52.15 83.15 52.2 83.3 52.3 83.65 52 83.75 51.55 83.7 51.25 83.1 51 82.7 50.8 82.25 50.1 82.5 49.55 82.75 49.75 83.05 49.75 83.1 49.85 83.35 49.7 83.55 49.55 83.5 49.2 82.9 49.05 82.95 48.95 83 45.6 84.4 43.15 86.25 39.25 89.1 37.5 92.9 35.05 98.2 25.65 106.85 23.05 109.25 20.5 111.35
L 20.5 118.8 21.6 117.9
Q 22.4 116.8 24.05 115.15 31.5 107.45 36.65 98.3
M 29.35 70.45
L 28 70.45
Q 27.45 71 27.15 71.4 26.5 73.55 26.5 75.15 26.5 77.5 28.5 81.9 30.5 86.35 31.75 86.4 31.65 86.3 31.6 86.1 31.5 85.5 32.7 85.15 32.75 85.15 32.8 85.15 29.75 76.2 29.35 70.45
M 188.9 211.55
Q 188.6 211.3 187.75 211.3
L 179.1 211.4
Q 179.05 211.35 179 211.3 177 212.1 175.4 212.85
L 172 214.5
Q 171.7 214.65 171.45 214.8
L 171.55 214.8
Q 171.446875 214.803125 171.4 214.85 171.15 214.9 170.9 215.05 171.3 215.8 174.65 215.75 179.55 215.65 186.1 212.45 186.5 212.1 186.75 211.9
L 187.1 211.65
Q 187.85 211.55 188.35 212 188.25 212.3 187.4 212.55 187.1 212.65 186.8 212.95 186.55 214.1 185.6 215.25 185.65 215.4 185.8 215.55
L 186.2 215.65
Q 186.75 215.85 187.35 216.45 187.45 216.55 187.55 216.65 188.05 216.2 188.45 215.6 189.4 214.2 189.35 212.7 189.35 211.85 188.9 211.55
M 127.95 232.95
Q 128.6 232.75 129.45 232.65 130.15 232.6 131.9 232.6 139.8 232.7 144.75 232.15 151.7 231.35 157 229.1 158.75 228.35 166.8 223.8 170.05 222 172.8 220.95 169.6 221.65 163.85 222.8 163.35 221.8 163.35 218.3 163.15 218.7 162.95 219.15 162.8 219.55 162.65 220 162.5 219.95 162.45 219.8 160.2 222.7 154.5 225.1 148.55 227.6 142.35 228.3 139.95 228.6 131.8 230.1 129.65 230.5 127.85 230.8 127.9 231.25 127.9 231.7 127.95 232.3 127.95 232.95
M 135.85 202.3
L 135.85 201.8
Q 132.4 202.65 129.55 203.9 126.2 205.35 122.15 208.65 123.45 210.35 124.5 212.85 124.85 212.45 125.25 212.05 135.7 202.45 135.85 202.3
M 194.8 195.7
Q 195.05 195.55 195.55 195.3 195.8 195.15 195.95 194.95 194.15 195.55 191.55 196.55 187.25 198.2 184.8 198.8 182.45 199.4 181.9 199.6 181.15 199.85 179.75 200.55
L 176.05 202.45
Q 175.35 202.95 174.65 203.55 177.85 202.6 189.7 199.3
L 189.7 199.25
Q 189.8 199.15 190 199.2 191.1 198.9 192.25 198.55 192.65 198.45 193.1 198.35 193.25 196.5 194.8 195.7
M 170.45 192.15
Q 170.25 192.25 170.05 192.3
L 172.85 192.3
Q 177.15 190.9 186.2 187.95 192.05 185.95 196.75 184.1 197.1 183.8 197.5 183.5
L 198.05 183.25
Q 198.1 183.25 198.15 183.25 197.95 183.1 197.75 182.9 197.55 182.65 197.4 182.35 196.65 182.65 195.6 183.35 195.5 183.4 195.2 183.6
L 195.2 183.7
Q 189.5 187.15 183.35 188.65 181.55 189.05 180.65 189.1
L 178.7 189.15
Q 177.75 189.25 175.75 190.05
L 170.45 192.15
M 166.35 166.35
L 165.85 166.35
Q 163.55 167.9 159.9 172.8 156.35 177.55 154.3 179.9 155.3 179.95 156.5 180.05 156.8 180.1 157.2 180.1 158.7 177.95 161.45 175.1 164.5 172.05 165.45 170.35 165.95 169.45 166.15 168.6 166.35 167.85 166.35 166.35 Z"/>

<path fill="#82B4FF" stroke="none" d="
M 36 78.4
L 36 78.9
Q 37.1 77.8 46.15 72.25 47.75 71.25 49.1 70.45
L 41 70.45
Q 40.65 70.95 40.3 71.5 36.5 77.35 36 78.4
M 283.55 86.5
Q 284.3 86.1 284.75 85.9
L 284.75 85.4
Q 284.15 85.9 283.55 86.5
M 253.55 97.95
Q 256.25 86.45 259.15 78.65 259.9 74.3 260.05 70.45
L 131.7 70.45
Q 123.65 74.15 91.9 89.9
L 91.9 88.9
Q 95.9 82.6 98.95 77.85 101.95 73.2 104.75 70.45
L 100 70.45
Q 94.05 72.7 84.4 76.4 84.4 76.15 84.65 75.65 84.9 75.15 84.9 74.9 85.3 74.5 89.8 70.45
L 57.15 70.45
Q 56.6 70.9 56.35 71.2 56.2 71.35 55.15 72.95 54.3 74.05 53.5 74.35
L 53.2 74.1 54.5 71.95
Q 55.1 71 55.6 70.45
L 53.55 70.45
Q 51.9 73.05 50.4 75.4 53.1 74.45 57.05 73.6 60.95 72.75 62.5 74.3 63.25 75.15 63.35 76.4 63.35 76.65 63.35 76.95 63.3 77.85 62.85 78.65 62.15 80.05 59.8 82.1 54.2 86.95 50.75 88.75 49.8 89.25 48.3 90 49.75 90.4 51.35 91.7 52.3 92.5 54.1 94.1 55.35 95.15 58.1 97.05 60.4 98.85 61.15 100.75
L 55.6 96.65
Q 52.4 94.25 50.9 92.85 49.5 91.55 48.95 91.3 47.55 90.55 46.55 91.2 46.45 91.05 46.45 90.9 46.05 91.05 45.6 91.25 42.85 92.6 41.35 94.25 41.45 94.3 41.5 94.4 41.6 94.55 41.7 95.15 41.85 96.3 42.95 98.2 46.95 105.2 49.1 108.6 52.65 114.3 56.05 118.45 55.8 118.6 55.6 118.3 52.05 114.8 48.5 109.15 48.4 109 42.55 99.1 41.65 97.5 41.35 96.75 40.9 95.75 40.85 94.85 40 95.9 38.5 98.65 38.55 98.75 38.65 98.95 42.7 108 49.4 115.55 48.05 115.15 46.55 113.25 41.65 107.15 38.1 99.4 32.65 109.2 24.7 117.05 23.25 118.5 22.75 119.3 22.7 119.55 22.65 119.9 22.55 121 22.2 121.65 22.25 122 22.4 122.35 22.75 123.1 23.95 124.3 24.2 124.6 24.4 124.85 24.6 125 24.65 125.15 24.65 125.25 24.6 125.35 24.8 125.95 24.45 126.55
L 24.25 126.4
Q 24.25 126.5 24.25 126.6 24.25 127.35 24.15 127.65
L 23.5 127.75
Q 23.55 128.7 23.55 129.7 25.55 131.15 27.55 132.95
L 27.4 127.35
Q 27.4 126.75 27.65 126.6 27.65 126.45 27.65 126.35
L 26.15 125.6
Q 25.65 125.3 25.6 125.05 25.55 124.85 25.7 124.65 25.9 124.45 26.15 124.4 26.5 124.35 27.1 124.65 28.3 125.2 36.5 128.65 42.2 131.1 45.8 132.85 47.7 133.8 51.55 135.75 56.5 138.1 61.7 139.65 59.1 137.8 56.85 135.55 57.3 135.4 57.95 135.9
L 60.6 138.05
Q 62.1 139.35 63.05 140.05 65.2 140.6 67.4 141.05 66.75 140.7 66.25 140.35 64.1 139 63.3 137.15 63.5 137.25 63.6 137.05 64.1 137.4 64.75 138.25 65.5 139.2 65.9 139.5 66.5 140.05 67.95 140.75 68.3 140.95 68.85 141.35 72 141.9 75.3 142.15 75.85 142.2 76.2 142.35 76 138.2 75.9 130.95 75.8 126.4 75.5 122.75 75.45 122.7 75.4 122.65 75 120.85 72.95 118 68.7 111.85 63.7 106.2 63.35 105.75 63.5 105.55 63.8 105 64.45 105.8
L 68.4 110.4
Q 72.55 115.15 74.5 118.05 74.85 118.55 75.1 119.05 74.85 117.05 74.5 115.4 73.55 110.6 73.5 110 73.55 106.15 73.05 104.25 72.9 103.7 72.3 102.05 71.8 100.65 71.7 99.8 71.55 98.05 73 94.45 74.35 91.05 73.95 89.2 73.8 88.45 73.25 87.9 72.65 87.3 72 87.45 71.3 87.65 71.1 88.5 70.9 89.25 71.15 90.15 70.25 89.8 70.15 88.65 70.05 87.5 70.8 86.9 71.55 86.3 72.65 86.45 73.7 86.65 74.4 87.4 75.6 88.75 75.35 91.1 75.2 92.1 74.1 94.85 73.15 97.15 73.15 98.65 73.1 99.75 73.5 101.15 73.75 101.95 74.3 103.6 74.85 105.55 75.2 108.65
L 77 122.45
Q 77.25 124.8 77.9 140.7 78.15 147.05 78.85 152.05 79.3 155.75 80.05 158.75 80.45 160.25 81.25 163.2 82.45 167.6 83.05 172.15 83.05 172.2 83.1 172.3
L 83.15 171.95
Q 83.95 168.95 84.2 167.4 84.45 165.9 84.75 162.8 85.5 157.75 85.85 155.2 86.9 147.8 87.05 140.25 87.05 139.05 86.5 138.75 86.2 138.6 85.4 138.8 84.65 139.05 84.3 138.85 84.1 138.6 84.2 138.25 84.3 137.9 84.6 137.7 84.95 137.45 85.9 137.45 86.95 137.45 87.4 137.85 87.85 138.25 87.95 139.35 88.2 141.45 88.25 143.7 88.35 149.2 87.1 159.05
L 86.55 163.55
Q 86.3 165.8 85.95 167.85 85.5 170.35 84.65 173.8
L 82.7 181.55
Q 80.65 189.75 79.9 192.15
L 78.85 195.75
Q 77.8 200.6 78.9 205.3 78.9 205.35 78.95 205.4 80.2 204.75 81.6 204.45 83.9 204.05 87.3 204.3 90.65 204.55 97.35 205.1 103.1 205.35 107.2 204.15 110.15 203.25 110.75 203.15 113.1 202.85 115.6 203.8 115.5 203.55 115.6 203.15 115.7 202.75 116.25 202.1 119.65 198 119.85 194.05 119.95 192.1 120.1 191.7 120.45 190.65 122.35 189.05
L 126.7 185.5
Q 128.3 184.3 129.55 183.05 131.75 180.4 132.9 179.1 135.05 176.75 137.1 176.15 138.4 175.75 140.7 175.85 143.3 175.9 144.3 175.75 145 175.6 145.45 175.65 148.2 174.35 150.75 172.9 152.4 171.9 152.95 171.45 153.6 170.85 155.05 169.1
L 158.5 164.3
Q 159.2 163.4 159.65 163.05 160.6 162.45 162.6 162.45
L 164.15 162.45
Q 165.9 162.45 166.8 162.95 168.4 162.7 170.5 162.25 174.75 161.25 176.45 161.1 175.7 161.95 173.7 162.55 170.7 163.45 167.7 163.9 167.95 164.45 168 165.15
L 168 167.3
Q 167.95 167.9 167.9 169.05 167.75 169.85 167.35 170.75 166.45 172.5 163.7 175.45
L 159.05 180.3
Q 160.2 180.4 161.65 180.55 165.3 180.95 167.35 180.3 168.65 179.9 171 178.75 173.1 178 176.3 177.95 178.1 177.9 181.75 177.9 182.2 177.85 182.9 177.8 177.35 175.4 171.3 174.3 171.15 174 171.5 173.8 171.75 173.75 172.05 173.85 175.75 174.7 177.55 175.25 180.55 176.15 182.75 177.35 183.1 177.55 183.15 177.8 185.05 177.55 188.6 176.95 192.85 176.2 195.45 176.4 196.75 176.5 197.45 177.05 198.15 177.65 198.4 179.25 198.7 181.05 199.1 181.65 199.15 181.7 199.2 181.8 199.6 182.3 199.65 182.35 199.75 182.55 199.8 182.75 199.8 182.85 199.8 182.95 201.2 183.85 202.15 184.8 202.85 185.4 203 185.9 203.1 186.1 203.1 187 205.95 187.65 210.75 188.75 219.9 190.7 226.8 191.3
L 230.55 191.3
Q 232.8 192.5 233.3 193.8 232.7 193.8 230.2 194.3 227.7 194.8 226.3 194.8
L 226.3 195.3
Q 227.8 195.15 231 197.45 236.05 201.15 236.3 201.3
L 229.8 201.3
Q 214.8 196.45 203.05 190.55 203 190.85 202.9 191.15 202.45 192.7 200.9 193.35 201.1 193.8 201.1 194.6 201.15 195.25 201.2 195.85 201.25 198.95 200.45 200.6 199.95 201.65 198.85 202.7 198.3 203.2 196.75 204.4 195.25 205.5 194.45 205.9 193.95 206.15 191.75 206.9 186.55 208.5 182.5 210 185.45 209.65 188.2 209.6 189.65 209.5 190.3 210.15 190.75 210.65 190.75 211.9 190.85 214.5 190.4 215.7 190.3 215.95 190.2 216.15 197.2 212.1 203.35 210.1 205.35 209.45 208.8 208.5 212 207.55 214 207.5
L 214.2 207.8
Q 213.55 208.3 211.85 208.6 205.35 209.95 199.3 212.5 196.05 213.85 193.55 215.25 192.55 215.8 190.55 216.9 189.85 217.25 189.2 217.55 188.95 217.8 188.65 218.05 186.5 219.95 182.2 220.7 175.25 221.9 175 221.95 172.4 222.75 168.45 225
L 161.75 228.75
Q 159.35 230.1 157.8 230.85 158.85 230.85 160.1 231.05 161.35 231.25 163.9 231.65 164.8 231.75 167.2 231.8 169.3 231.85 170.5 232 171.95 232.2 174.75 232.85
L 185.95 233.7
Q 190.7 234.1 192.7 235.4 192.15 236.15 190.95 236.15 190.7 236.15 188.95 235.9
L 182.9 235.2
Q 179 234.8 177.05 234.75 174.9 234.65 174.45 234.55 172 233.95 170.8 233.75 169.8 233.6 168.15 233.55 166.05 233.5 165.45 233.45 164 233.35 160.5 232.65 157.3 231.95 155.5 232 155.4 231.9 155.4 231.85 152.95 232.65 149.5 233.3 144.6 234.15 138.4 234.4 134.85 234.55 128 234.5 128.1 238.8 128.05 245.6 128.55 245.55 129.1 245.55 131.7 245.4 135.3 245.9 142.2 246.85 145.3 245.85 146.65 245.35 149.1 243.95 151.55 242.45 152.85 242 154.95 241.25 157.75 241.25 159.5 241.25 162.65 241.65 163.1 241.6 163.55 241.55 165.35 241.45 166.1 242.05 171.8 242.75 176.3 243.4 182 244.2 185.8 244.95 188.8 245.6 190.1 245.75 192.55 246.1 194.45 245.85 195.55 245.75 197.5 245.25 199.55 244.75 200.5 244.65 202.1 244.45 204.1 244.6 205.3 244.65 207.65 244.95
L 248.25 250.5
Q 251.2 250.9 253.05 251.55 252.8 251.35 252.55 251.15 254.95 251.85 257.6 252.9
L 254.65 246.75
Q 253.7 245 253 244.5 252.4 244.1 250.6 243.75 248.95 243.45 248.35 242.8 247.9 242.3 247.55 241.3 247.1 239.85 247 239.6 246.7 239 246.1 238.35 245.35 237.6 245 237.2 243.75 235.75 243.3 233.95 242.8 232.05 243.3 230.35 243.45 229.8 243.9 228.85 244.4 227.8 244.55 227.3 244.85 226.45 244.95 225.1 244.95 224 244.6 223 244.25 222.15 242.95 220.75
L 240.2 217.65
Q 239.9 217.3 239.9 217.05 239.55 217.2 239.2 217.35 237.6 218.1 236 218.85 229.15 221.9 222.1 224.55 219.85 225.35 217.6 226.15 213.55 227.5 211.8 228.3 208.6 229.65 206.55 231.45 206.45 231.55 206.3 231.7 205.85 232.05 205.2 232.6 204.4 233.25 203.75 233.55 203.5 233.45 203.55 233.05 203.55 232.95 203.6 232.9 198.1 235.3 197.8 235.3 197.15 235.3 195.95 235.05 194.75 234.8 194.3 234.8
L 194.3 233.8
Q 194.3 232.4 198.25 229.05 202.75 225.2 203.3 224.3
L 195.3 223.05
Q 193.45 222.8 191.9 222.55 198.55 217.7 212.75 212.6 218.05 210.7 222.95 209.2 221.7 209.35 220 209.5 214.35 210.1 211.6 210.55 207 211.3 203.45 212.45 201.6 213 200.9 213 200.85 212.65 201.5 212.45
L 206.65 210.8
Q 208.45 210.25 209.6 210 210.7 209.75 213 209.45
L 222.15 208.35
Q 225.65 208 228 207.45
L 228.15 207.65
Q 230.8 206.9 233.3 206.3
L 233.8 206.3
Q 233.65 206.5 231.55 209.3 230.2 211.1 229.3 211.8
L 229.3 212.3
Q 240.7 206.25 243.2 203.7 244 202.85 244.65 201.85 244.2 197.25 243.85 194.35 242.95 187.5 241.5 182.15 239.65 175.3 236.7 169.3 235.25 166.3 235.15 166 234.3 164.05 234.05 162.55 233.85 161.35 233.85 159.55 233.8 156.8 233.8 156.5 233.6 151.75 231 144.95 226.95 134.4 226.7 133.6 224.95 127.5 224.95 121.2 224.95 119.85 225.4 119.3 225.7 118.85 226.25 118.8 226.85 118.7 227.15 119.1 226.2 120.25 226.3 122.6 226.45 128.5 230.95 139.45 235.5 150.45 235.7 156.25 235.7 156.55 235.75 159 235.75 159.7 235.8 160.3 235.95 159.75 236.15 159.2 236.45 158.35 237.75 155.45 238.8 153.15 239.15 151.65 239.4 150.4 239.45 148.6 239.5 146.5 239.5 145.45 239.55 142.25 240.3 137.7 241.2 132.6 241.55 130 242.3 124.9 242.6 118.5 242.75 114.65 242.8 106.95 242.8 102.45 242.65 100.5 242.35 96.9 241.35 94.25 241.15 93.65 238.95 89 237.45 85.85 237.25 83.6 237.15 82.8 237.4 82.45 237.6 82.2 237.9 82.15 238.25 82.05 238.45 82.25 238.45 84.95 240.65 88.9 243.4 93.7 243.85 95.35 244.4 97.2 244.5 101.7
L 244.55 113.2
Q 244.65 119.8 244.3 123.85 244.05 127 243.05 133.2 243.05 133.35 243 133.5 243.25 133.6 243.5 133.95 245.25 136.25 245.65 139.25 245.85 141 245.9 141.25 246.05 141.95 246.4 142.4 247.25 143.65 248.75 143.25 249.2 143.05 249.65 142.9 250.15 142.65 251.95 141.15 253.8 139.65 256.75 138.3 258.5 137.55 262 136.2 264.15 135.35 268.35 133.35
L 277.75 128.85
Q 284.3 119.5 288.75 112.9 281.1 116.45 269.5 122.35
L 266.15 124.1
Q 265.85 123.8 266.1 123.45 266.2 123.3 266.65 123.05
L 274.15 119.05
Q 281.45 115.2 285.15 113.45 287.5 112.35 289.7 111.45 291.7 108.35 293.25 105.9 291.3 107.4 280.8 110.75 270.1 114.15 267.75 113.9
L 268.25 113.9
Q 270.15 112 276.1 107.5 282 103.05 286.75 99.9 285.85 99.85 282.75 97.85 279.7 95.9 279.25 95.9 279.15 95.9 279.05 95.9
L 272.65 101
Q 269.5 103.5 267.95 105.3 267.3 105.95 266.85 105.75 266.95 105.4 267.3 105.1 270 102.25 275.5 97.9
L 277.45 96.35
Q 277.3 96.4 277.25 96.4
L 277.25 95.9
Q 277.45 94 280.15 90.35 281.9 88 283.55 86.5 279.95 88.3 269.1 94.55 259.5 100.2 255.2 102.75 255.05 103.35 254.95 103.8
L 254.55 106.35
Q 254.4 107.45 253.9 109.2
L 250.4 122.15
Q 250.2 123 249.75 123.15
L 250.25 121.25
Q 252.75 111.6 254 106.15 254.4 104.2 254.7 103.05 253.5 103.7 252.8 104.15 252.05 107.2 251.2 110.9 250.45 114.55 249.6 116.6 251.1 108.35 253.55 97.95
M 247.25 72.65
Q 247.2 73 246.95 73.6 246.75 74.35 247.65 76 248.1 77 248.5 78.9 248.9 81 249.2 81.85 249.45 82.55 250.35 84.3 251.15 85.85 251.4 86.8 252 88.75 251.4 91.2 251 92.95 249.85 95.5 248.75 98 248.65 99.35 248.65 99.75 248.7 100.8 248.75 101.75 248.7 102.3 248.6 103.2 247.9 104.9 247 107 245.8 109.3 245.25 110.3 244.9 110.55 244.9 108.95 246 106.1 247.1 103.05 247.2 101.6 247.1 99.4 247.2 98.35 247.3 96.9 248.9 93.2 250.25 90.05 249.9 88.1 249.8 87.25 249.3 86.2 248.75 85 248.45 84.35 247.75 82.8 247.35 80.9 247.15 79.45 247 78.7 246.8 77.45 246.45 76.6 245.95 75.3 245.9 75.15 245.7 74.15 246.3 72.6 246.4 72.2 246.65 72.05 246.9 72 247.1 72.2 247.25 72.4 247.25 72.65
M 198.4 107.5
Q 194.7 112.05 190.45 118.2 184.2 127.5 181.05 132.1 168.55 150.45 153.65 167.7 151.95 169.75 150.6 170.1 160.7 157.45 166.3 150.1 174.85 138.9 181.25 129.5 189.35 117.55 189.7 117.1 192.65 112.9 195.45 109.6 197.3 107.3 199.05 105.45 199.95 104.45 200.6 104.85 199.55 106.1 198.4 107.5
M 182.6 146.65
Q 187.6 144.35 188.35 143.35
L 188.35 143.85
Q 188.2 144.05 185 147.85 182.6 150.7 182.85 151.85 184.3 151.85 186 151.45 184.25 152.2 182.1 153.1 173.95 156.4 166.35 158.85 166.7 158.6 177.9 149.9 179.45 148.65 181.3 147.25 181.9 146.95 182.6 146.65
M 187.35 116.1
Q 182.5 123.75 176.4 134.05 164.8 152.6 148.35 172.35
L 148.35 170.1
Q 148.35 168.1 151.6 162.15 156.1 153.8 159.35 144.35
L 159.35 141.35 158.85 141.35
Q 158 142.2 154.9 144.15 151.4 146.35 150.35 146.35 155.05 142.4 174.9 126.2 182.25 120.15 187.35 116.1
M 214.4 165.75
Q 214.8 164.9 215.3 164.75 212.3 171 209.4 176.65 209.35 176.15 209.75 175.25
L 214.4 165.75
M 208.35 171.35
L 208.1 171.15 216.65 148.75
Q 216.9 148.25 217.15 148.35
L 208.35 171.35
M 204.75 194.45
Q 205.25 194.6 205.9 194.85 208.15 195.7 212.5 196.85 217.05 198 219.1 198.75 220.45 199.25 223.1 200.3 225.45 201.15 227.2 201.3 227.35 201.35 227.2 201.5
L 226.95 201.55
Q 225.05 201.55 222.65 200.95
L 214.8 198.75
Q 206.95 196.55 203.25 195.05 203.2 195 203.15 195 202.55 194.8 202.55 194.4 202.65 193.8 203.5 194.05 203.95 194.15 204.75 194.45
M 287.05 109.75
Q 285.55 110.8 283.9 111.7 273.35 117.2 268.1 120 258.75 125 253.3 129.75 251.55 131.3 251.5 132.55
L 251.1 132.75
Q 250.75 132.6 250.7 132.15 250.7 131.7 250.9 131.3 251.4 130.35 252.75 129.2 258.35 124.25 269.7 118.25 278.85 113.45 287.05 109.75
M 85.85 87
Q 86.65 87.1 87.25 87.6 87.85 88.2 87.75 88.95 87.7 89.65 86.9 90.15 86.5 90.4 85.5 90.7
L 80.3 92.2
Q 77.85 92.85 76.9 92.8 76.75 92.5 76.9 92.15 82.25 90.95 86.75 89.05 86.65 88.7 86.8 88.15
L 84.4 87.35
Q 84.35 87.05 84.75 87.05 85.2 86.9 85.85 87
M 92.5 97.55
Q 92.45 97 93.3 96.55 99.4 92.95 106.45 89.9 105.8 90.55 104.2 91.35
L 92.5 97.55
M 93.3 95.75
Q 97.85 93.1 101.25 91.55 99.8 92.7 96.2 94.8
L 88.05 99.4
Q 87.2 99.85 86.75 99.65 88.95 98.35 93.3 95.75
M 45.05 120.1
L 43.3 118.7
Q 42.75 118.35 41.55 117.85 36.95 115.85 34.5 115.25 32.65 114.85 32.2 114.7 30.9 114.25 30.2 113.55 30.55 113.35 31.6 113.45 36.6 114.4 41 116.05 43.35 116.95 44.65 117.9 45.05 118.15 45.95 118.95 46.75 119.65 47.25 120 48.15 120.55 50.05 121.3 50.6 121.55 52.5 122.85 54.45 124.2 56.55 125.25 59.95 127.1 60.4 127.4 57.2 127.4 54.55 125.8
L 52.25 124.35
Q 51.9 124.15 49.3 122.7 46.6 121.35 45.05 120.1
M 66.3 130.35
Q 68 130.9 68.4 131.5 65.8 131.3 63.3 130.3
L 61.95 129.7
Q 61.5 129.5 61.5 129.25 61.4 128.9 61.85 128.8 62.2 128.8 62.5 128.95 63.75 129.4 66.3 130.35
M 129.9 122.1
Q 132.05 121.35 134.05 120.65 140.65 118.45 146.05 117.2 156.65 112.7 168.1 107.95 164.75 110.75 155.3 119.5 142.65 131.2 141.85 132.85 144.4 132.7 150.5 129.1 153.55 127.25 156.35 125.35
L 156.4 125.1
Q 156.55 124.85 156.85 124.85 144.8 140.4 123.5 163.5 122.6 164.45 121.75 165.4 125.7 161.75 129.8 158.05 128.6 159.7 124.8 163.5
L 109.85 177.95
Q 108.45 179.35 107.65 180.25 107 180.95 106.7 181.35 106.1 182.2 105.6 182.3 99.1 188.7 96.4 190.3
L 95.9 190.8
Q 98.95 185.1 109.75 166.8 118.05 152.6 118.4 150.85 118.15 150.85 114.65 151.95 111 153.05 110.4 153.35 111.4 152.1 112.4 151.35
L 112.4 150.85
Q 106.8 151.6 104 157.5 103.5 158.5 101.6 163.45 100.2 167 98.85 169.55 100.65 164.05 101.7 158.15 100.85 160.9 99.7 164.35 97.85 169.7 97.15 171.25 96.55 172.6 94.85 175.75 93.35 178.55 92.65 180.2 92.5 180.5 90.4 186.3 86.85 195.6 80.3 203.25 83.6 197.7 85.05 195 87.6 190.3 89.05 186.35
L 90.4 182.5
Q 91.25 180.15 91.9 178.7 93.85 175 94.75 173.15 96.55 169.7 98.9 162.95 101.25 155.75 102.25 150.35 103.5 143.4 103 137.45
L 102.4 137.25
Q 101.65 138.3 100.55 138.6 101.25 137.25 101.75 136.9 102.15 136.55 102.75 136.55 103.3 136.55 103.65 136.9 104 137.3 104 138.35 104.05 142.55 103.85 145.95 104.45 144 105.3 142.7 108.35 137.9 118.85 130.55 121.9 128.45 126.45 125.5 131.85 123.2 138.7 120.3 140.8 119.4 142.95 118.55 137.85 119.9 132 121.95 129.6 122.8 127.05 123.75 120.15 126.3 116.6 128.75 115.45 129.5 114.85 129.3 115.15 128.85 116.05 128.25 121.05 125.3 129.9 122.1
M 149.65 140.9
Q 148.2 143.45 145.5 146.2 144.6 147.1 140.55 150.85 138.6 152.7 134.8 156.5 126.1 164.9 117.65 171.7 116.4 172.65 115.6 172.55 125.5 164.35 135 155.15
L 149.65 140.9
M 146.95 150.05
Q 146.65 150.8 145.5 151.95 140.25 156.85 135.8 160.2 135.8 159.8 136.5 159.2 141.7 155.4 146.95 150.05
M 247.6 246.6
Q 247.6 246.9 247.05 246.9
L 239.7 246.8 239.7 246.6 241.15 246.5 247.6 246.6
M 249.8 246
Q 249.75 246.2 249.3 246.2
L 232.55 244.45
Q 231.85 244.45 231.9 244
L 226.4 244.1 226.4 243.8
Q 227.2 243.1 229.5 243.1 231.95 243.2 232.6 243.35
L 234.3 243.7
Q 236.9 244.25 240.9 244.15
L 242.2 244.2 249.35 245.55
Q 249.85 245.7 249.8 246
M 210.2 203.2
Q 210.75 203.3 210.6 203.65 207.1 203.5 203.9 202.05
L 202 201.05
Q 201.4 200.7 201.45 200.4 201.55 199.95 202 199.95 202.15 199.95 202.75 200.2 206.7 202.15 210.2 203.2
M 220.65 227.3
L 222.05 226.65
Q 223.2 226.25 225.15 226.25
L 235.3 226.05
Q 236.3 226.05 236.75 225.95
L 238.4 225.45
Q 239.9 225.05 240.1 224.95 240.5 224.75 240.75 224.35 241 223.95 240.9 223.55 241.25 223.45 241.5 224.15 241.6 224.85 241.55 225.1 241.45 225.45 240.9 225.8 240.25 226.3 239.2 226.5 239.1 226.5 239.05 226.5 238.9 226.5 238.75 226.6 238.65 226.7 238.7 226.8
L 237.7 226.95
Q 237.3 227.1 237.5 227.2
L 224 227.15
Q 222.85 227.15 222.3 227.25 221.3 227.6 220.8 227.8 219.9 228.1 219.25 228 219.6 227.6 220.65 227.3
M 212.3 237.85
Q 211.95 237.5 212.3 237.25 219.25 238.3 226.3 237.4 229.6 237.05 230.85 237.45 229.1 238.25 227.6 238.5 226.4 238.75 224 238.85 218.25 238.95 212.9 238.05 212.55 238.05 212.3 237.85
M 203.2 240.05
Q 204.35 240.45 206.5 241.35 207.75 241.8 210.35 242.2
L 217.7 243.25
Q 220.95 243.65 222.4 244.4 222.5 244.6 222.3 244.6 216.4 244.3 213.55 244 207.85 243.35 204.45 242.2
L 201.75 241.2
Q 197.45 239.5 195.05 239.6 193.5 239.7 193.1 239.1 193.3 238.8 193.85 238.7 196.1 238.3 200.35 239.3 201.85 239.6 203.2 240.05
M 229.3 238.95
L 229.4 239.25
Q 227.2 240.15 224.9 240.05 224.9 239.9 225.1 239.7
L 225.5 239.65
Q 227.3 239.5 229.3 238.95
M 257.55 85.7
Q 258.15 83.5 258.6 81.4 257 86.35 255.35 93.3 255.2 93.9 255.05 94.6 256.5 89.5 257.55 85.7 Z"/>

<path fill="#DA9E8B" stroke="none" d="
M 27 71.6
L 26.1 72.8
Q 25.3 73.9 25.15 74.6 25.05 75.05 25.05 75.9
L 25.15 78.45
Q 25.15 79.55 24.9 80.05 24.65 80.5 24.2 80.9 23.75 81.35 22.4 82.4 21.2 83.35 20.55 84
L 20.5 84.05 20.5 111.35
Q 23.05 109.25 25.65 106.85 35.05 98.2 37.5 92.9 39.25 89.1 43.15 86.25 45.6 84.4 48.95 83 49.05 82.95 49.2 82.9
L 48.65 82.25
Q 48.5 82 48.4 81.35 48.3 80.7 48.1 80.45 48.15 80.35 48.3 80.35 48.4 80.35 48.5 80.45 48.6 80.6 48.6 80.9 48.75 81.65 49.1 82.1 49.4 82.5 49.55 82.75 50.1 82.5 50.8 82.25 50.7 81.95 50.6 81.65
L 50.4 81.15 50 80.65
Q 49.5 80.1 49.25 79.15 49.45 79.2 49.6 79.05 50.4 79.95 50.9 80.85
L 51.45 82
Q 53.8 81.05 57.3 79.7 57.4 79.65 57.55 79.6 57.2 79.55 56.85 79.5 55.65 79.3 55.15 78.7 54.55 77.9 54.95 76 55.25 75.8 55.6 75.9 55.95 75.95 56.15 76.25
L 55.4 76.45 55.5 77.95
Q 56.9 79.05 59.1 78.8 59.3 78.8 59.6 78.75 60.25 78.6 61.1 78.3 61.25 78.1 61.4 77.9 61.95 77.05 61.75 76.4 61.45 75.4 60.15 75.1 59.3 75 58.05 75.25 53.3 76.15 50.2 77.45 49.5 77.75 48.4 78.4 46 79.7 41.75 82.45 36.55 85.8 32.95 86.55 32 86.8 31.75 86.4 30.5 86.35 28.5 81.9 26.5 77.5 26.5 75.15 26.5 73.55 27.15 71.4 27.05 71.5 27 71.6
M 171.4 214.85
Q 171.446875 214.803125 171.55 214.8
L 171.45 214.8
Q 171.4 214.8 171.4 214.85
M 185.55 214.95
Q 185.55 215.1 185.6 215.25 186.55 214.1 186.8 212.95 186.4 213.25 186.05 213.85 185.55 214.55 185.55 214.95
M 165.35 164.55
Q 165.4 165.5 164.7 166.4 164.2 166.95 163.1 167.65 162.2 168.2 162.15 168.7 160.8 168.75 158.1 168.65 158.05 168.3 158.1 168.05
L 156.6 169.85
Q 155.1 171.65 154.25 172.4 152.6 173.85 148.7 175.55
L 145.3 177.1
Q 143.1 178.05 142.1 177.45 142.05 177.25 142.3 177.1 142.15 177.1 142 177.1 138.6 177.1 137.35 177.6 135.75 178.25 133.9 180.55 132.9 181.7 130.95 184.05 129.65 185.45 127.25 187.4 123.95 190.05 123.35 190.55 122.1 191.7 121.8 192.5 121.65 192.85 121.55 194.55 121.35 199.1 117.5 203.55 117 204.1 116.6 204.25 116.95 204.4 117.3 204.6 119.5 205.75 121.25 207.6
L 128.35 203.3
Q 128.9 202.95 129.3 203 128.25 204.2 126.85 205.05 126.55 205.25 125.25 205.95 124.3 206.45 123.7 206.9 122.9 207.5 122.55 207.65 121.85 207.95 121.35 207.7 121.55 207.9 121.75 208.15 121.95 208.4 122.15 208.65 126.2 205.35 129.55 203.9 132.4 202.65 135.85 201.8
L 135.85 202.3
Q 135.7 202.45 125.25 212.05 124.85 212.45 124.5 212.85 125.35 215 126.05 217.75 127.4 223.5 127.85 230.8 129.65 230.5 131.8 230.1 139.95 228.6 142.35 228.3 148.55 227.6 154.5 225.1 160.2 222.7 162.45 219.8 162.35 219.55 162.4 219.1 162.75 216.1 164.3 211.95 165.55 208.45 165.85 207.3 166.55 204.6 166.1 202.5 165.7 200.4 164.35 198.8
L 161.95 196.55
Q 160.6 195.2 158.7 192.4 156.6 189.3 155.5 188.1 154.45 186.8 154.35 186.2 154.75 186.1 155.3 186.65 156.65 188 158.9 191.05 161.15 194.1 162.5 195.4 163.35 196.2 165.05 197.75 166.45 199.2 166.95 200.5 167.45 201.85 167.35 204.25 167.25 207.2 166.65 209.1 166.4 209.95 165.7 211.55 164.15 215.15 162.95 219.15 163.15 218.7 163.35 218.3 163.35 221.8 163.85 222.8 169.6 221.65 172.8 220.95 175.05 220.05 176.95 219.7 177.3 219.65 177.7 219.6 179.2 219.3 181.65 219.05 184.4 218.6 186.1 217.7 186.75 217.35 187.25 216.9 186.25 216.65 185.4 216.25 185 216.1 184.85 215.95 184.8 215.9 184.8 215.85 184.7 215.65 184.7 215.25 184.7 214.35 184.75 214.15 184.95 213.55 185.5 213 185.85 212.65 186.1 212.45 179.55 215.65 174.65 215.75 171.3 215.8 170.9 215.05
L 170.85 215.05
Q 169.4 215.65 168.35 215.6 168.8 214.25 171.15 213 175.1 210.95 180.35 209 183.4 207.9 189.85 205.75 191.9 205.15 193.25 204.45 195.25 203.5 197.25 201.65 198.75 200.35 199.25 199.1 199.65 198.1 199.65 196.35 199.65 195.8 199.6 195.15 199.6 194.45 199.2 194.2 198.9 194 198.3 194.2 197.55 194.4 196.5 194.8 196.7 195.1 196.35 195.55
L 195.65 196.05
Q 194.6 196.75 194.15 197.85 194.1 197.95 194.1 198.05 193.9 198.5 194.05 198.75 194.35 199.2 195.25 199.2 196.3 199.2 197.8 199.55 197.95 199.8 197.45 199.9 195.7 200.15 194.35 199.9 193.45 199.8 193.15 199.25 193.05 199.05 193.05 198.5 193.05 198.4 193.1 198.35 192.65 198.45 192.25 198.55 191.1 198.9 190 199.2 190.15 199.3 190.2 199.45 190.25 199.7 190.15 200.1 190.1 200.5 190.45 201.55
L 190.75 202.4
Q 191 203.15 191 203.3
L 191.05 203.95 191.25 204.5
Q 191.35 204.95 191 204.95 190.65 204.5 190.55 204.2 190.5 204.1 190.5 203.4
L 190.35 202.75
Q 189.85 201.65 189.75 201.05 189.7 200.75 189.7 199.3 177.85 202.6 174.65 203.55 175.35 202.95 176.05 202.45
L 173.9 203.5
Q 173.6 203.3 173.7 203 179.1 199.2 182.1 198
L 186.75 196.5
Q 187.3 196.35 188.95 195.7 188.8 195.6 188.75 195.5 188.55 195.35 188.4 195.1
L 187.25 193.05
Q 186.75 192.05 186.65 191.75
L 186.05 189.15 186.5 189.15
Q 186.75 189.55 186.9 190.2 187 190.55 187.15 191.3 187.4 192 188.25 193.5 188.25 193.55 188.3 193.6
L 187.75 191.95 187.7 191.65
Q 187.8 191.45 188 191.55
L 188.9 194.3
Q 189 194.65 188.9 194.75 189.05 195.1 189.15 195.35 189.15 195.45 189.2 195.6 190.4 195.1 192.1 194.45 192.2 194.4 192.3 194.35 195.7 192.95 197.95 192.5 199.05 192.25 199.75 192.45 199.9 192.5 200.1 192.55 200.15 192.45 200.2 192.35 200.3 192.2 200.4 192.05 201.25 190.9 201.3 190.8 201.5 190.4 201.6 189.8 201.7 189.05 201.65 188.1 201.55 187.1 201.45 186.85 201.4 186.75 201.35 186.65 201.1 186.2 200.4 185.5
L 198.7 183.9
Q 198.65 184.05 198.55 184.2 198.15 184.05 197.65 184.45 196.4 185.3 195.55 186.3 195.5 186.35 195.5 186.4 195.2 186.7 195 187.05
L 194.55 187.95
Q 194.4 188.3 194.45 188.6 194.6 189.05 195.15 189.15 195.3 189.2 196.1 189.2 197.2 189.2 198.2 189.95 198.25 190 198.15 190.1 198.05 190.2 197.95 190.2
L 195.25 190.15
Q 194.25 190.05 194 189.85 193.1 189.25 193.6 187.75 194 186.5 195.2 185.35 195.7 184.85 196.75 184.1 192.05 185.95 186.2 187.95 177.15 190.9 172.85 192.3
L 170.05 192.3
Q 168.2 192.9 167.2 192.65 167.2 192.15 168 192.05 169.25 191.8 171.3 190.9
L 176.65 188.6
Q 177.45 188.2 178.2 188.05 178.4 188 180.05 187.9 180.25 187.85 180.45 187.85 181.95 187.8 183.85 187.25 184.85 187 187.1 186.2
L 192.4 184.35 196.5 182.1
Q 196.75 181.9 197.15 181.85 197.1 181.75 197.05 181.65 196.85 181.15 196.8 180.6 196.65 179.5 196.65 179.3 196.45 178.6 196 178.3 195.7 178.1 194.9 178.1 193.9 178.1 192.6 178.25 192.65 178.4 192.6 178.55 191.45 179.15 191.2 179.75
L 191 180.5 190.75 180.9
Q 190.75 181.05 190.8 181.4 190.85 181.7 190.8 181.85 192.85 182 194.55 182.35
L 194.6 182.35
Q 194.65 182.45 194.55 182.55 194.45 182.65 194.3 182.65 193.9 182.75 193.45 182.8 192.2 182.9 190.45 182.75 190.2 182.75 190.1 182.65 189.9 182.5 189.9 182.2 189.75 180.65 190.6 179.25 190.9 178.75 191.15 178.55 191.25 178.5 191.4 178.4 190 178.55 188.25 178.85 183.7 179.65 181.6 179.75 177.9 179.7 176.1 179.75 172.9 179.85 170.85 180.8 169.1 181.75 168.2 182.1 166.5 182.7 163.6 182.4 158.65 182.1 153.85 181.35 153.6 181.3 153.35 181.3 151.4 181 149.45 180.6 149.75 179.9 151.35 179.8 152.65 179.75 154.3 179.9 156.35 177.55 159.9 172.8 163.55 167.9 165.85 166.35
L 166.35 166.35
Q 166.35 166.3 166.35 166.25 166.25 164.7 165.55 164.4 165.25 164.25 164.55 164.25
L 162.4 164.25
Q 161 164.25 160.45 164.75 160.25 164.95 159.8 165.75 159.65 166.05 158.8 167.15
L 158.5 167.55
Q 158.7 167.75 158.6 168.05
L 160.9 168 161.5 167.9
Q 161.55 167.85 162.2 167.4 164.15 166.15 164.75 165.2 165.1 164.6 165.35 164.55
M 182.3 179.95
Q 182.45 180 182.5 180.1 182.6 180.2 182.6 180.55
L 182.65 181.1
Q 182.7 181.1 182.75 181.15
L 183 181.4
Q 183.3 181.9 183.8 183
L 184.4 183.9
Q 184.5 184.15 184.5 185 184.5 185.4 184.3 185.55 184.1 185.4 184.1 185.05
L 184.1 184.45
Q 184.1 184.15 183.7 183.45 183.2 182.65 182.75 181.75
L 182.85 182.85
Q 183.1 183.9 183.3 184.15
L 183.1 184.35
Q 182.65 183.95 182.55 183.3
L 182.4 181.6
Q 182.35 180.8 182.1 180.05 182.15 179.95 182.3 179.95 Z"/>
</g>
</defs>

<g transform="matrix( 1.02685546875, 0, 0, 1.02685546875, -18.4,-70.95) ">
<use xlink:href="#Layer0_0_FILL"/>
</g>
</svg>
