
<svg xmlns="http://www.w3.org/2000/svg" version="1.1" xmlns:xlink="http://www.w3.org/1999/xlink" preserveAspectRatio="none" x="0px" y="0px" width="149px" height="152px" viewBox="0 0 149 152">
<defs>
<g id="Layer0_0_FILL">
<path fill="#B8BE79" stroke="none" d="
M 21.5 19.95
L 21.5 157.8 159.35 157.8 159.35 19.95 21.5 19.95 Z"/>
</g>

<g id="Layer0_1_FILL">
<path fill="#E1C99B" stroke="none" d="
M 21.5 111.85
L 21.5 148.6 159.35 148.6 159.35 111.85 21.5 111.85 Z"/>
</g>

<g id="Layer0_2_FILL">
<path fill="#3B3D35" stroke="none" d="
M 270.45 269.55
Q 276.05 269.05 281.25 266.7 283.0423828125 265.9923828125 284.45 264.85 284.5650390625 264.770703125 284.65 264.7 288.3 261.75 288.35 257.85 288.55 255.3 286.95 253.35 276.55 241.2 260.85 243.95 247.6 246.2 246.75 257.85 247.46328125 259.95 248.6 261.65 248.7875 261.903515625 248.95 262.1 250.6806640625 264.45078125 253.3 266.05 256.3 267.95 259.8 269 265.1 270.35 270.45 269.55
M 282.75 264.5
Q 281.212109375 265.55546875 279.4 266.15 273.75 268 267.8 268.15 261.95 268.6 256.7 266.25 254.5412109375 265.2859375 252.75 263.9 250.2505859375 261.9798828125 248.45 259.25 248 258.55 247.8 257.85 247.8 256.2 248.55 254.9 253.55 246.05 264.25 245.45 281.05 243.9 287 257.85 287 258.2 286.95 258.6 286.7 261 285 262.7 283.9591796875 263.741015625 282.75 264.5
M 272.8 260
Q 269.6779296875 260.173828125 266.55 260.05 260.882421875 259.8177734375 255.2 258.6
L 252.55 257.95
Q 254.2986328125 258.741796875 256.1 259.35 262.4466796875 261.5830078125 269.35 261.7 275.1619140625 261.8529296875 280.35 259.95 281.958984375 259.3763671875 283.5 258.6 282.6 258.75 281.75 258.9 277.28203125 259.7599609375 272.8 260
M 290 192.35
L 290 192.5 293.9 192.6 293.95 192.35 290.75 192.3 290 192.35
M 287.75 193.5
Q 287.35 193.5 287.4 193.7 290.65 194.6 292.6 195.5 293.2 195.75 293.4 195.65 292.85 195.15 291.6 194.75 289 193.85 287.75 193.5
M 287.55 195.25
Q 287.55 195.45 287.9 195.7
L 288.8 196.35
Q 288.9 196.3 288.75 196.05
L 287.7 194.95 287.1 194.55 286.7 194.2
Q 286.5 194 286.25 194.1 286.3 194.35 286.75 194.8 287.25 195.2 287.55 195.25
M 278.35 195.5
Q 278.05 196.3 278.4 196.7 278.65 196.95 279.25 197.05 279.85 197.25 281 197.85 282.1 198.35 283.85 198.7
L 286.45 199.3
Q 290.25 199.95 293.25 200.1 294.9 200.25 296.3 200.2 296 200.25 295.65 200.35
L 293.05 201
Q 295.15 200.95 298.8 199.95 300.4 199.7 302.1 198.85 302.35 198.75 302.55 198.65 304.6 197.75 305.6 196.7 305.1 196.7 304.2 197.3 303.65 197.6 302.95 197.95 302.95 197.8 302.9 197.65 299.85 199.1 296.35 199.35 294.85 199.45 291.85 199.25 287.25 198.8 283.15 197.85 280.7 197.25 279.45 196.5 279.05 196.3 278.85 195.95 278.75 195.6 278.7 195.55 278.45 195.3 278.35 195.5
M 248.45 177.45
Q 248.45 176.7 248.6 176.35
L 247.55 176.35
Q 247.45 176.7 247.45 177.1 247.3 180.2 247.4 184.05 247.4 184.3814453125 247.35 184.65 247.27578125 185.753515625 246.8 186.15 246.65 186.25 245.5 186.65 244.9 186.85 244.85 187.25 244.8 187.85 245.75 187.95 246.55 188 247.3 187.45 248 186.9 248.35 186.05 248.75 184.95 248.65 182.65
L 248.45 177.45
M 272.3 182.1
Q 271.75 182.1 271.55 182.35 274.3 182.5 277.6 181.65 279.85 181.1 283.5 179.75 284.1 179.5 283.85 179.2 278.5 181.65 272.3 182.1
M 278.95 182.35
L 278.75 182.05
Q 274.45 183.35 269.9 183.5 269.6 183.5 269.6 183.65 271.65 183.85 274.3 183.4 275.75 183.2 278.95 182.35
M 333.8 214.8
Q 333.75 214.7 333.7 214.6 333.1 213.9 332.25 213.25 328.4 210.05 321.4 208.2 319.3 207.6 317.7 207.4 316.75 207.3 313.75 207.4 309.5 207.6 307.45 208.2 305.2 208.85 302.65 210.3 301.05 211.3 298.3 213.3 298.05 213.5 297.95 213.65 297.8 213.6 297.7 213.55 297.7 213.6 297.7 213.65 297.6 213.65 297.5 213.65 297.4 213.7 297.35 213.75 297.35 213.85 297.35 213.95 297.35 214.05 297.35 214.15 297.3 214.25 297.25 214.35 297.25 214.45 297.25 214.6 297.25 214.7 297.25 214.8 297.25 214.9 297.25 215 297.25 215.1 297.25 215.2 297.25 215.35 297.25 215.45 297.25 215.55 297.25 215.65 297.25 215.75 297.25 215.85 297.25 215.95 297.25 216.1 297.25 216.2 297.25 216.3 297.25 216.4 297.25 216.5 297.25 216.6 297.25 216.7 297.25 216.85 297.25 216.95 297.25 217.05 297.2 217.15 297.2 217.25 297.2 217.35 297.2 217.5 297.2 217.6 297.2 217.7 297.2 217.8 297.2 217.9 297.2 218 297.2 218.1 297.2 218.2 297.2 218.3 297.2 218.4 297.2 218.5 297.2 218.6 297.2 218.7 297.2 218.8 297.2 218.95 297.2 219.05 297.2 219.15 297.2 219.25 297.2 219.35 297.2 219.45 297.2 219.55 297.2 219.7 297.2 219.8 297.2 219.9
L 297.2 219.95
Q 296.85 220.25 297.15 220.8 297.65 221.9 299.5 223.4 299.55 223.4 299.55 223.45 302.4 225.55 305.5 226.9 303.75 226.9 302.4 227 301.5 227.1 301.1 227.45 300.85 227.65 300.8 227.95
L 300.75 227.9
Q 297.15 226.25 295.1 225.75
L 297.95 227.2
Q 299.5 228 300.8 228.65 300.8 228.7 300.85 228.75 300.868359375 228.7744140625 300.9 228.8 301.0673828125 228.9744140625 301.55 229.15 301.85 229.25 302.2 229.35 304.3 230.3 305.7 230.75 309.6 231.9 314.55 231.95 317.7 231.95 323.55 231.35 324.35 231.3 325.05 231.25 324.3 231.4 323.6 231.55 324.2 231.6 325.05 231.55 324.5 231.8 324.45 231.85 325.3 231.75 327.15 231.25
L 330.9 230.1 330.9 230.05
Q 333.75 229.1 334.75 228.55 335.2 228.2 335.25 228.05 335.3 227.85 335.1 227.7 334.9 227.55 334.8 227.7 334.65 228.15 333.95 228.35 332.65 228.85 331.35 229.3 331.2779296875 229.2671875 331.2 229.25 330.64921875 229.115625 329.65 229.55 329.05 229.8 328.15 230.05 328.4 229.9 328.7 229.75 329.55 229.3 329.75 228.95 330.1 228.15 329.35 227.6 328.85 227.15 328 227
L 327.95 227
Q 333.35 224.95 334.35 219.2
L 334.35 218.7
Q 334.2 218.5 334.05 218.45
L 334.05 218.4
Q 334.05 218.3 334.05 218.2 334.05 218.1 334.05 218 334.05 217.9 334.05 217.8 334.05 217.7 334.05 217.6 334.05 217.5 334.05 217.35 334.05 217.25 334.05 217.15 334.05 217.05 334 216.95 334 216.85 334 216.7 334 216.6 334 216.5 334 216.4 334 216.3 334 216.2 334 216.1 334 215.95 334 215.85 333.95 215.75 333.95 215.65 333.95 215.55 333.95 215.45 333.95 215.35 333.95 215.2 333.9 215.1 333.85 215 333.8 214.9 333.8 214.8
M 332.05 215.05
Q 332.45 215.45 332.75 215.85
L 332.8 215.75 332.8 215.8
Q 332.8 215.9 332.8 216 332.8 216.1 332.8 216.2 332.8 216.35 332.8 216.45 332.8 216.55 332.8 216.65 332.75 216.75 332.7 216.85 332.7 217 332.7 217.1 332.7 217.2 332.7 217.3 332.7 217.4 332.7 217.5 332.7 217.6 332.7 217.75 332.7 217.85 332.7 217.95 332.7 218.05 332.7 218.15
L 332.7 218.2
Q 332.85 219.95 331.8 221.5 329.9 224.4 326.35 225.75 312.05 231.1 300.05 222.05 299 221.2 298.05 220.25 298.15 220.15 298.2 220.05 298.25 219.95 298.3 219.8 298.3 219.7 298.3 219.6 298.3 219.5 298.3 219.4 298.3 219.3 298.3 219.2 298.3 219.05 298.3 218.95 298.3 218.85 298.3 218.75 298.3 218.65 298.3 218.55 298.3 218.45 298.3 218.3 298.3 218.2 298.3 218.15 298.3 218.05 298.3 217.95 298.3 217.85 298.3 217.75 298.3 217.6 298.3 217.5 298.3 217.4 298.3 217.3 298.25 217.2 298.2 217.1 298.2 217 298.2 216.85 298.2 216.75 298.2 216.65 298.2 216.55 298.2 216.45 298.2 216.35 298.2 216.2 298.2 216.1 298.2 216 298.2 215.9 298.2 215.8 298.2 215.7 298.2 215.6 298.2 215.45 298.2 215.35 298.2 215.25 298.2 215.15 298.2 215.05 298.2 214.95 298.2 214.85 298.2 214.75 298.5 214.25 300.05 213.35
L 302.35 211.9
Q 307.9 208.55 314.95 208.8 321.3 208.95 327.6 212.1 330.7 213.65 332.05 215.05
M 325.45 230.45
Q 325.6 230.45 325.8 230.45 325.2 230.55 324.5 230.6 324.2 230.6 323.95 230.65 324.2 230.55 324.4 230.45
L 325.45 230.45
M 314.1 212.15
L 314.1 212.25
Q 314.7 212.65 316.25 212.85
L 316.3 212.65
Q 315.95 212.45 315.25 212.3 314.4 212.15 314.15 212.05
L 314.1 212.15
M 311.55 212.7
L 311.45 212.9 315.65 214.55 316.3 214.9 316.55 215.15
Q 316.85 215.25 316.9 215.1 316.8 214.65 315.9 214.25
L 311.55 212.7
M 329.1 217.2
L 329.2 216.6
Q 328.9 216.6 328.65 216.6 316.25 218.55 304.2 216.15
L 301.55 215.45
Q 312.6 219.7 324.4 217.9 317.6 219.1 310.95 219.1 320.3 220.5 329.1 217.2
M 365.9 238
L 365.9 234.95
Q 358.85 235.75 344.05 237.9 328.05 240.2 318.2 240.55 313.7 240.7 310.3 240.5 306.05 240.25 302.55 239.55 298.6 238.8 295.75 237.25 293.45 236.05 289.4 232.8
L 277.1 222.75
Q 272.9 219.35 269.5 216.8
L 226.7 181
Q 225.55 179.95 224.55 179.15 222.6 177.55 221.55 176.35
L 220 176.35 220 176.4
Q 220.55 177.35 222.25 178.75 223.7 179.95 225.35 181.45
L 247.9 200.65
Q 241.55 197.25 233.35 197.65 221.3 198.25 218.25 207.5
L 218.25 211.9
Q 218.6447265625 213.0419921875 219.2 214.05 220.6369140625 216.725390625 223.15 218.7 225.9 220.95 229.25 222.45 230.65 222.95 232.05 223.35 229.05 226.75 228.65 232.1 229.7580078125 235.3626953125 232 237.7 233.4048828125 239.18515625 235.25 240.3 238.2 242.2 241.7 243.25 247 244.55 252.35 243.8 257.95 243.3 263.15 240.95 265.05 240.15 266.55 238.95
L 266.55 238.9
Q 270.2501953125 235.98828125 270.3 232.1 270.5 229.55 268.85 227.6 263.6 221.45 257 219.1 258.65 217.25 258.95 214.8 259.5 212.35 258.05 210.2 257.3 209.05 256.45 207.95 266.8 217.25 276.15 225.8 285.9 234.7 293.15 240.4 300.4 246.1 318.3 244.55 336.15 243 343.95 241.7 354.8 239.85 365.9 238
M 257.45 215.4
Q 257.05 217.35 255.7 218.7 252.9642578125 217.918359375 250 217.75 246.531640625 217.5517578125 242.75 218.2 236.85 219.15 233.4 222.1 229.75 221.3 226.55 219.3 223.541015625 217.5318359375 221.4 214.9 220.11796875 213.2859375 219.15 211.35 218.8 210.6 218.65 209.85 218.85 208.25 219.8 207.05 225.85 198.9 236.55 199.6 253.4 200.1 257.6 214.65 257.55 215 257.45 215.4
M 254.1 219.95
Q 254.9 220.05 255.75 220.3 264.85 222.55 268.9 232.1 268.9 232.45 268.85 232.85 268.6 235.25 266.9 236.95 265.9453125 237.9048828125 264.85 238.65 263.246875 239.7677734375 261.35 240.4 255.65 242.25 249.7 242.4 243.85 242.85 238.6 240.5 236.8833984375 239.7333984375 235.4 238.7 232.416796875 236.6333984375 230.35 233.5 229.9 232.8 229.7 232.1 229.7 230.45 230.45 229.15 232.2 226.05 234.75 223.9 235.65 223.15 236.6 222.55 240.6 220 246.15 219.7 250.5 219.3 254.1 219.95
M 259.1 233.85
Q 254.19375 234.4421875 249.25 234.3 243.1826171875 234.13046875 237.1 232.85
L 235.95 232.55 234.45 232.2
Q 242.4 235.75 251.25 235.95 257.58671875 236.116796875 263.2 233.85 264.311328125 233.3984375 265.4 232.85 264.5 233 263.65 233.15 261.3837890625 233.5775390625 259.1 233.85
M 254 214.95
Q 253.15 215 252.3 215.05 238.8 215.95 225.95 211.55
L 223.35 210.55
Q 223.8654296875 210.8626953125 224.35 211.15 231.4548828125 215.1859375 239.65 216.35 246.4357421875 217.3904296875 252.7 215.4 253.34765625 215.1927734375 254 214.95
M 365.9 231.3
L 365.9 230.2
Q 361.2 231.1 358.45 231.5 351.7 232.75 346.75 233.2 342.4 233.5 340.2 233.75 336.35 234.1 333.75 234.85 332.85 235.05 333 235.6 333.1 235.75 333.5 235.95 334.6 236.6 334.85 237.8
L 335.55 237.8
Q 335.2 236.65 334.35 235.65 337.1 234.9 341.05 234.55 343.35 234.35 347.9 234.1 352.95 233.7 359.2 232.6 361.75 232.15 365.9 231.3
M 365.9 211.75
L 365.9 210.8
Q 358.75 210.85 351.8 209.5
L 349.15 208.8
Q 357.35 211.9 365.9 211.75
M 365.9 212.85
L 365.9 212.1
Q 362.15 212.45 358.55 212.45 362.25 213 365.9 212.85
M 365.9 200.8
Q 365.6 200.8 365.3 200.75 364.35 200.65 361.35 200.75 357.1 200.9 355.05 201.5 352.8 202.15 350.25 203.65 348.65 204.65 345.9 206.6 345.65 206.8 345.55 206.95 345.4 206.9 345.3 206.85 345.3 206.9 345.3 206.95 345.2 206.95 345.1 206.95 345 207 344.95 207.05 344.95 207.2 344.95 207.3 344.95 207.4 344.95 207.5 344.9 207.6 344.85 207.7 344.85 207.8 344.85 207.95 344.85 208.05 344.85 208.15 344.85 208.25 344.85 208.35 344.85 208.45 344.85 208.55 344.85 208.7 344.85 208.8 344.85 208.9 344.85 209 344.85 209.1 344.85 209.2 344.85 209.3 344.85 209.45 344.85 209.5 344.85 209.6 344.85 209.7 344.85 209.8 344.85 209.9 344.85 210 344.85 210.15 344.85 210.25 344.85 210.35 344.8 210.45 344.8 210.55 344.8 210.65 344.8 210.8 344.8 210.9 344.8 211 344.8 211.1 344.8 211.2 344.8 211.3 344.8 211.4 344.8 211.55 344.8 211.65 344.8 211.75 344.8 211.85 344.8 211.95 344.8 212.05 344.8 212.15 344.8 212.3 344.8 212.4 344.8 212.5 344.8 212.6 344.8 212.7 344.8 212.8 344.8 212.9 344.8 213.05 344.8 213.15 344.8 213.25
L 344.8 213.3
Q 344.5 213.6 344.75 214.1 345.25 215.2 347.1 216.75 347.15 216.75 347.15 216.8 350 218.85 353.15 220.2 351.35 220.2 350 220.35 349.1 220.45 348.7 220.8 348.4 221.05 348.35 221.4 348.25 221.8 348.45 222.1 348.6 222.3 349.15 222.5 351.35 223.1 353.8 223.4 355.25 223.6 357.55 223.65 358.35 223.8 359.75 223.9 362.4 224.1 365.9 224.25
L 365.9 221
Q 356.2 221.8 347.65 215.35 346.6 214.5 345.65 213.6 345.75 213.5 345.8 213.4 345.85 213.3 345.9 213.15 345.9 213.05 345.9 212.95 345.9 212.85 345.9 212.75 345.9 212.65 345.9 212.55 345.9 212.4 345.9 212.3 345.9 212.2 345.9 212.1 345.9 212 345.9 211.9 345.9 211.8 345.9 211.65 345.9 211.55 345.9 211.45 345.9 211.35 345.9 211.25 345.9 211.15 345.9 211.05 345.9 210.9 345.9 210.8 345.9 210.7 345.9 210.6 345.85 210.5 345.8 210.4 345.8 210.3 345.8 210.15 345.8 210.05 345.8 209.95 345.8 209.85 345.8 209.75 345.8 209.65 345.8 209.5 345.8 209.45 345.8 209.35 345.8 209.25 345.8 209.15 345.8 209.05 345.8 208.95 345.8 208.8 345.8 208.7 345.8 208.6 345.8 208.5 345.8 208.4 345.8 208.3 345.8 208.2 345.8 208.1 346.1 207.6 347.65 206.65
L 349.95 205.2
Q 355.5 201.85 362.55 202.1 364.25 202.15 365.9 202.4
L 365.9 200.8
M 333.35 187.15
Q 333.15 187.35 333.15 187.75
L 341.15 188.5
Q 347.5 189 350.2 189.7
L 352.2 190.3
Q 357.2 191.6 362 191.55 362.5 191.55 362.5 191.25 359.2 190.95 355.7 190.25 352 189.35 350.1 188.9 346.8 188.15 344.5 188
L 341.35 187.85
Q 338.15 187.75 333.35 187.15
M 324.65 185.6
Q 324.7 185.35 324.25 185.25 321 184.75 317.85 183.8 322.75 184.9 327.85 185.4 327.6 185 326.9 184.9 310.9 182.2 299.75 176.85 299.25 176.6 298.85 176.35
L 297.65 176.35
Q 298.35 176.9 299.5 177.45 301.1 178.3 304.5 179.65 308.8 181.4 313.25 182.7 313.4 182.8 313.7 182.9 317.2 184.15 319.05 184.65 322.15 185.5 324.65 185.6
M 327.9 177.2
L 328.5 177.95 330.6 182
Q 331.2 183.3 331.25 183.65
L 331.25 183.75
Q 331.2943359375 184.0689453125 331.4 184.95 331.25 185.05 330.45 186.4 330.2998046875 186.700390625 329.95 187.1 329.71953125 187.410546875 329.4 187.75 328.65 188.55 328.35 189.05 328.3 189.15 328.25 189.3 323.6 189.9 319.8 191.6 319.6 191.55 319.25 191.55 314.9046875 191.55 308.3 190 307.9431640625 189.896875 307.55 189.8 305.1 189.15 304 188.7 303.5 188.45 301.8 187.5 301.265234375 187.1603515625 300.75 186.8 297.3361328125 184.5671875 295.85 182.95 293.35 180.25 292.4 176.65 292.35 176.5 292.35 176.35
L 291.2 176.35
Q 291.8 179 292.4 180.4 293.45 182.75 295.85 184.85 295.9 184.9 296 185 295.7 184.95 295.35 184.95 294.65 184.95 294.05 184.95 293.8 184.8 293.3 184.8 290.9669921875 184.6986328125 288.75 184.75 286.5953125 184.7775390625 284.55 184.95 284.65 184.8 284.75 184.65 285.1 183.95 285.5 182.4
L 285.85 180.85
Q 286.25 179.15 286.3 178.3 286.3 177.65 286.05 177.25 285.8 176.95 285.3 176.7
L 284.65 176.35 282.15 176.35
Q 282.3 176.45 282.5 176.55 283.45 176.95 284.2 177.45 284.6 177.7 284.8 177.95 285.25 178.5 284.95 179.4 284.8 179.9 284.35 180.85 284.2 181.3 284.05 182.4 283.9 183.4 283.7 183.9 283.35 184.65 283.45 185.05
L 283.4 185.05
Q 281.95 185.2 280.6 185.5 279.85 185.65 279.15 185.95 278.7 185.75 277.9 186
L 273.15 187.35 267.6 187.35
Q 260.4 186.9 254 183.6 254.05 183.45 253.95 183.2 253.3 181.45 253.2 179.95 253.05 178.95 253.05 177.95 253.05 177.7 253.1 177.45 253.2 177.6 253.3 177.75 253.6 178.05 254.3 178.35 256.45 179.2 258.4 179.75 260.15 180.25 264.85 181.1
L 267.2 181.45
Q 268.6 181.6 270.3 181.5 270.7 181.5 270.5 181.3 266.05 180.95 260.9 179.9
L 254.7 178
Q 253.8 177.55 253.55 177.25
L 253.3 176.9 253.3 176.85
Q 253.4 176.6 253.7 176.35
L 252 176.35
Q 251.9 176.6 251.9 177.1
L 251.95 180.6 252.4 183
Q 252.5 183.4 252.65 183.55 252.75 183.65 252.95 183.75 253 183.85 253.15 184.05 253.9 184.9 255.6 185.75 256.5 186.2 257.35 186.55 256.15 186.6 254.95 186.75 253.9 186.85 253.15 187.1 252.6 187.3 252.4 187.55 252 187.9 252.25 188.3 252.35 188.5 252.75 188.7
L 254 189.05
Q 255.85 189.5 257.6 189.85 257.3 189.8 257 189.75
L 256.95 190
Q 259.8 190.55 263.5 190.7
L 263.8 190.7 263.85 190.65 270.55 190.9
Q 270.6 190.9 270.65 190.9 270.05 191.5 269.8 192.1 269.7498046875 192.2005859375 269.7 192.3 269.6748046875 192.42578125 269.65 192.55 269.3138671875 192.475390625 268.95 192.4 268.4138671875 192.3126953125 267.85 192.25 264.3 192.1 262.5 192.05 258.7 191.8 255.3 190.95 255.05 190.85 254.75 190.95 254.45 191 254.5 191.25 256.21875 191.685546875 257.95 192 263.6365234375 193.0412109375 269.6 192.85 269.45 193.65 269.45 194.95
L 269.5 198.95
Q 269.5 200.9 269.25 201.85 268.85 203.55 267.5 204.2 267 204.5181640625 267 204.75
L 267 204.8
Q 267.05 205.05 267.55 205.05 268.4 205 269.1 204.4 269.8 203.85 270.1 203 270.55 201.95 270.55 199.65
L 270.55 196.2
Q 270.65 193.3 271.25 192.25 271.3201171875 192.133203125 271.4 192 271.8947265625 191.351953125 272.95 190.55 276.95 187.65 282.6 186.65 285.215625 186.1830078125 288.6 186.05 290.6611328125 186.024609375 293 186.1 293.6 186.1 293.9 185.95 293.95 185.9 294.05 185.9 295.51328125 185.948828125 297 185.95 297.062109375 185.95 297.1 185.95
L 297.1 185.95
Q 298.4158203125 187.0107421875 300.4 188.35 301.65 189.25 302.35 189.6 303.75 190.4 306.6 191.15 308.1931640625 191.5578125 309.65 191.85 309.65 191.903125 309.65 191.95 309.65 192.3 310.05 192.6 310.65 193.1 310.7 193.55 310.8 193.8 310.75 194.4
L 310.95 194.9
Q 311.15 195.4 311.05 196.15 310.95 197 311.25 197.3 311.3607421875 197.388671875 311.45 197.4 311.2849609375 197.6150390625 311.1 197.8 310.25 198.75 310.05 199.35 309.8 200 309.9 201
L 309.95 203.15
Q 310 203.35 310.1 203.8 310.15 203.85 310.2 203.9 309.075 203.9767578125 307.95 204.1 306.875 204.2544921875 305.8 204.45 300.75 205.3 297.6 207.25 297.3 207.45 297 207.65 292.2 207.65 289.15 207.35 284.35 206.85 280.8 205.25 277.45 203.85 276.8 201.55
L 276.15 198.65
Q 276.05 198.15 276.05 197.05
L 276.05 194.55
Q 276.05 193.75 276.25 193.4 276.45 193 277.4 192.55 280.2 191.35 283.9 190.5 286.35 190 290.7 189.4 291.4 189.5 292.4 189.55 292.446484375 189.554296875 292.5 189.55 292.748046875 189.5724609375 293.1 189.55 293.5455078125 189.6 294.15 189.6 297.95 189.85 303.1 192.35 304.7 193.15 305.5 193.45 306.75 193.9 307.1 194.25 307.6384765625 194.74375 307.8 195.6 307.8345703125 195.69765625 307.85 195.8 307.9 196.3 307.85 197.55 307.8068359375 199.4482421875 307.95 201.35 307.97265625 201.6482421875 308 201.95 308.1 202.75 308 203.1 307.97734375 203.1908203125 307.95 203.25 307.7375 203.9056640625 307.25 203.95 307.5826171875 204.11640625 307.95 204.05 308.02421875 204.0251953125 308.1 204 308.5 203.8 308.75 203.4 309 202.95 309.1 201.65
L 309.2 196.5
Q 309.3 194.95 308.85 194.1 308.4 193.2 307.2 192.55 305.75 192.05 305.1 191.75
L 302.45 190.45
Q 301.45 190 298.85 189.2 296.7 188.6 296.05 188.55 295.2 188.45 293.55 188.55
L 290.55 188.7
Q 290.4703125 188.68828125 290.4 188.65 287.351171875 188.287890625 281.8 189.7 278.25 190.55 276.3 191.55 275.35 192.05 275 192.55 274.75 193.1 274.75 194.4
L 274.7 197.8
Q 274.7 199.15 274.95 199.8
L 275.25 200.55
Q 275.35 200.95 275.35 201.9 275.5 202.85 276.25 203.8 277.55 205.25 280.35 206.55 278.75 206.45 277.1 206.7 276.65 206.7 276.25 206.9 275.8 207.2 275.85 207.6 275.85 208 276.35 208.3 276.4 208.35 277.2 208.6
L 278.15 209.1 279.5 209.45
Q 283.2 210.2 285.05 210.4
L 292.35 211
Q 293.6 211 294.5 210.95 294.38828125 211.3966796875 294.3 211.9 294.2755859375 212.1083984375 294.25 212.3 291.6 212.2 289.6 212.1 289.57890625 211.973828125 289.45 211.85 289.2978515625 211.7580078125 288.95 211.7 288.1 211.55 286.4 211.45
L 282.6 211.3
Q 280.6298828125 210.92109375 278.9 210.35 278.3708984375 210.19375 277.85 210 276.8 209.65 273.05 207.9 272.8 207.75 272.65 207.85 272.5 207.95 272.65 208.15 272.75 208.3 272.95 208.4 274.1453125 209.021484375 275.3 209.55 276.5974609375 210.1064453125 277.85 210.55 279.15 211.05 280.3 211.4 280.25 211.45 280.3 211.55 280.8 211.6 281.3 211.65 282 211.85 282.7 211.95 283.75 212.15 285.95 212.35 289.4 212.7 290.85 212.8 292.65 212.85 294.2 212.75 294.15 212.9 294.15 213.1 293.95 214.95 294.1 217.1 294.3 219.25 294.1 220.3 293.75 222.3 292.25 222.75
L 291.35 223.05
Q 290.7279296875 223.337109375 290.9 223.8
L 290.95 223.85
Q 292.1 224.05 293.2 223.25 294.25 222.55 294.75 221.35 295.4 219.8 295.2 216.45 295.05 214.05 295.35 212.6 295.55 212.6 295.75 212.55 295.85 212.3 295.45 212.3 295.484765625 212.0216796875 295.55 211.8 295.604296875 211.6912109375 295.65 211.6 296.9 208.45 302.25 206.8 303.791796875 206.347265625 305.35 206 308.8423828125 205.3220703125 312.55 205.2 314.12734375 205.182421875 315.75 205.25 322.4 205.55 329.25 207.7 333 208.9 334.35 210.6 335.2 211.6 335.95 214.25 336.85 217.75 336.65 219.55 336.55 220.65 336.05 222.8 335.9 224.4 336.5 225.8 336.8921875 226.53203125 337.45 227 337.955859375 227.4353515625 338.6 227.65 338.666796875 227.5544921875 338.7 227.45 338.8640625 227.0068359375 338.5 226.4 337.9 225.5 337.7 225.05 337.644140625 224.917578125 337.6 224.75 337.355859375 223.8349609375 337.7 222.2 338.45 217.65 337.6 214.15 336.45 209.75 333.15 207.65 336.5 207.75 338.35 207.45 340.45 207.1 342.15 206.3 342.1 206.6 342.15 206.9
L 342.25 210.4
Q 342.35 215.05 342.15 216.9 342.05 218.4 341.1 218.6
L 340.4 218.65
Q 340 218.75 340.1 219.15 340.1431640625 219.3224609375 340.35 219.4 340.40859375 219.4361328125 340.45 219.45 341.85 219.8 342.65 219 343.15 218.35 343.25 217.25 343.85 212.9 343.4 208.55 343.2 206.4 343.7 205.55 343.8 205.35 343.95 205.2 344.25 204.95 344.55 204.7 344.6 204.65 344.65 204.6 344.85 204.4 345.1 204.25 349.2 201.5 354.1 200.25 357.65 199.25 362.05 198.95 363.65 198.85 365.9 198.8
L 365.9 197.4
Q 356.7 197.35 349.75 200.15 349.75 200.05 349.75 200
L 349.75 196.25 349.3 196.2
Q 349.4 194.8 349 193.45 348.9 193 348.6 192.75 348.3 192.5 348.05 192.3
L 349.85 192.75 348.95 192.55
Q 348.85 192.8 349.1 193.1 349.6 193.7 350.5 193.9
L 352.15 194.3
Q 352.65 194.45 354.15 195.15 355 195.5 358.45 196.55
L 359.1 196.7 364.35 196.75 365.5 196.6
Q 365.7 196.55 365.9 196.45
L 365.9 193.2
Q 364.65 193.7 363.35 193.65
L 356.9 192.8
Q 355.4 192.6 352.45 191.95
L 348.45 191.1
Q 346.75 190.8 345.35 190.75 343.9 190.05 342.25 189.85 337.6 188.7 331.95 188.95 330.95 189 330 189.1 330 189.05 330.05 189 330.35 188.65 331 188.15 331.41640625 187.73359375 331.8 186.7 331.86640625 186.6359375 331.9 186.55
L 332.4 185.75
Q 332.65 185.2 332.65 184
L 332.65 183.95
Q 332.548828125 182.896875 332.45 182.65
L 331 179.55
Q 330.1 177.9 329.5 177.15 329.15 176.7 328.8 176.35
L 326.65 176.35
Q 327.5 176.8 327.9 177.2
M 333.4 190.35
Q 337.4 190.25 341.1 191.15
L 347.55 193.6 348.35 197.7 348.75 197.95 348.75 199.5 348.8 200.6
Q 347.3 201.15 345.95 201.95 344 203.15 343.15 204 342.9 204.25 342.75 204.5 342.3 204.65 341.4 205 339.4 205.8 336.65 206.2 335.2 206.4 331.7 206.6 331.45 206.6 331.3 206.65 330.1 206.2 328.5 205.75 323.897265625 204.4923828125 319.45 204 316.7462890625 203.7357421875 314.1 203.75 313.2091796875 203.740625 312.3 203.75 311.55390625 203.7970703125 310.8 203.85 311.1 203.25 311 202.1 310.9 200.7 311.1 200.15 311.234375 199.7806640625 311.7 199.15 311.9716796875 198.8611328125 312.3 198.5 315.3 195.6 316.9 194.65 318 193.9 320.1 193.05 326.6 190.45 333.4 190.35
M 311.85 192.9
Q 311.7466796875 192.5126953125 311.5 192.2 314.689453125 192.791796875 317.25 192.85 315.45 193.85 313.95 195.15 313.1275390625 195.8626953125 312.35 196.6 312.35 196.52421875 312.35 196.45 312.45 195.25 312.25 194.45
L 311.85 192.9
M 342 196.25
Q 342.5111328125 196.120703125 342.9 196
L 344.25 195.5 341.9 195.85 336.85 196.65
Q 331.25 197.6 328.95 198.4
L 338.3 196.9
Q 340.60546875 196.570703125 342 196.25
M 335.7 196.05
L 338 195.6 341.3 195.05
Q 343.35 194.7 345.5 193.8 344.7 193.6 343.5 193.8 339.3 194.45 333.95 195.55
L 316.7 198.9
Q 316.1 199 316.25 199.3 317.85 199.2 321 198.7 322.4099609375 198.48671875 323.8 198.25 325.48984375 197.9796875 327.15 197.7 331.5146484375 196.9341796875 335.7 196.05
M 338.8 197.75
Q 338.55 197.7 337.7 197.8
L 333.75 198.75
Q 333.4 198.75 333.5 198.95 333.7 199.05 334.2 198.95
L 338.6 198
Q 338.9 197.9 338.8 197.75 Z"/>

<path fill="#7B4636" stroke="none" d="
M 253.05 258.75
L 252.75 258.75
Q 252.9318359375 258.79296875 253.1 258.8 253.0818359375 258.7880859375 253.05 258.75
M 267.4 260.05
Q 266.9720703125 260.05 266.55 260.05 269.6779296875 260.173828125 272.8 260 269.64453125 260.027734375 267.4 260.05
M 259.1 233.85
L 256.05 233.85
Q 252.337890625 234.1908203125 249.25 234.3 254.19375 234.4421875 259.1 233.85
M 225.75 204.6
Q 225.55 204.6 225.45 204.8
L 225.9 204.7 226.6 204.35 226.25 204.35 226.1 204.45 225.75 204.6 Z"/>

<path fill="#964444" stroke="none" d="
M 282.15 259.95
Q 281.2345703125 259.9546875 280.35 259.95 275.1619140625 261.8529296875 269.35 261.7 262.4466796875 261.5830078125 256.1 259.35 254.4986328125 259.1349609375 253.1 258.8 253.363671875 259.1517578125 253.8 259.85 254.4 260.7 255.15 261.5
L 255.15 263.9 252.75 263.9
Q 254.5412109375 265.2859375 256.7 266.25 261.95 268.6 267.8 268.15 273.75 268 279.4 266.15 281.212109375 265.55546875 282.75 264.5 277.690625 263.6 277.65 263.6
L 277.65 262.1
Q 278.05 261.95 279.9 261.25 281.65 260.5 282.15 259.95
M 263.05 238.3
Q 260.45 237.7 260.6 236.3 261.1 235.8 262.3 235.05 263.05 234.55 263.3 233.85
L 263.2 233.85
Q 257.58671875 236.116796875 251.25 235.95 242.4 235.75 234.45 232.2
L 235.95 232.55
Q 234.8853515625 232.197265625 233.85 231.75
L 233.85 232.05
Q 234.1 232.35 234.75 234.35 235.65 236.4 237.2 237.2
L 237.2 238.7 235.4 238.7
Q 236.8833984375 239.7333984375 238.6 240.5 243.85 242.85 249.7 242.4 255.65 242.25 261.35 240.4 263.246875 239.7677734375 264.85 238.65 263.796875 238.46015625 263.05 238.3
M 255.15 215.3
L 254.85 215.3
Q 253.7544921875 215.36171875 252.7 215.4 246.4357421875 217.3904296875 239.65 216.35 231.4548828125 215.1859375 224.35 211.15 221.9099609375 210.2939453125 219.3 209.25
L 219.3 210.15
Q 220 210.85 222.1 212.7 223.95 214.45 224.15 215.6
L 222.9 215.6
Q 222.7353515625 215.4353515625 221.4 214.9 223.541015625 217.5318359375 226.55 219.3 229.75 221.3 233.4 222.1 236.85 219.15 242.75 218.2 246.531640625 217.5517578125 250 217.75 250.6708984375 217.2060546875 255.15 215.3
M 329.4 187.75
Q 329.71953125 187.410546875 329.95 187.1 328.59140625 187.35 327.25 187.35 324.85 187.35 319.2 186.15 314.1 185.1 311.9 184.35
L 311.9 184.65
Q 312.05 184.75 313.4 185.55 314.7 186.35 315 186.75
L 310.1 186.75
Q 300.7 186.4 293.7 176.35
L 292.35 176.35
Q 292.35 176.5 292.4 176.65 293.35 180.25 295.85 182.95 297.3361328125 184.5671875 300.75 186.8 301.265234375 187.1603515625 301.8 187.5 303.5 188.45 304 188.7 305.1 189.15 307.55 189.8 307.9431640625 189.896875 308.3 190 314.9046875 191.55 319.25 191.55 319.6 191.55 319.8 191.6 323.6 189.9 328.25 189.3 328.3 189.15 328.35 189.05 328.65 188.55 329.4 187.75
M 339.15 195.6
Q 338.618359375 195.6 338 195.6
L 335.7 196.05
Q 331.5146484375 196.9341796875 327.15 197.7 325.1826171875 198.26171875 323.8 198.85 322.1 199.6 321.35 200.4 322.1 200.75 322.5 200.85 322.55 200.9 322.55 202.1 322.55 202.95 321.65 203.45 320.8697265625 203.9181640625 319.45 204 323.897265625 204.4923828125 328.5 205.75 330.1 206.2 331.3 206.65 331.45 206.6 331.7 206.6 335.2 206.4 336.65 206.2 339.4 205.8 341.4 205 342.3 204.65 342.75 204.5 342.9 204.25 343.15 204 344 203.15 345.95 201.95 347.3 201.15 348.8 200.6
L 348.75 199.5
Q 347.4837890625 199.8 345.45 199.8 343.8 199.8 340.8 199.2 340.5 198.25 340.9 198 341.15 197.8 342 197.4
L 342 196.25
Q 340.60546875 196.570703125 338.3 196.9
L 328.95 198.4
Q 331.25 197.6 336.85 196.65
L 341.9 195.85
Q 341.533203125 195.7439453125 341.05 195.7 340.25 195.6 339.15 195.6
M 337.7 197.8
Q 338.55 197.7 338.8 197.75 338.9 197.9 338.6 198
L 334.2 198.95
Q 333.7 199.05 333.5 198.95 333.4 198.75 333.75 198.75
L 337.7 197.8 Z"/>

<path fill="#AC5757" stroke="none" d="
M 266.55 260.05
Q 266.9720703125 260.05 267.4 260.05 269.64453125 260.027734375 272.8 260 277.28203125 259.7599609375 281.75 258.9 282.6 258.75 283.5 258.6 281.958984375 259.3763671875 280.35 259.95 281.2345703125 259.9546875 282.15 259.95 281.65 260.5 279.9 261.25 278.05 261.95 277.65 262.1
L 277.65 263.6
Q 277.690625 263.6 282.75 264.5 283.9591796875 263.741015625 285 262.7 286.7 261 286.95 258.6 287 258.2 287 257.85 281.05 243.9 264.25 245.45 253.55 246.05 248.55 254.9 247.8 256.2 247.8 257.85 248 258.55 248.45 259.25 250.2505859375 261.9798828125 252.75 263.9
L 255.15 263.9 255.15 261.5
Q 254.4 260.7 253.8 259.85 253.363671875 259.1517578125 253.1 258.8 252.9318359375 258.79296875 252.75 258.75
L 253.05 258.75
Q 253.0818359375 258.7880859375 253.1 258.8 254.4986328125 259.1349609375 256.1 259.35 254.2986328125 258.741796875 252.55 257.95
L 255.2 258.6
Q 260.882421875 259.8177734375 266.55 260.05
M 273.8 247.8
Q 276 248.4 276.95 249.05 278.6 250.15 278.9 251.8 279 252.6 278.6 252.95 278.15 253.4 277.45 253.2 277 253.1 276.3 252.7 275.2 252.05 273.6 251.55
L 270.85 250.5
Q 269.75 250.05 269.4 249.75 269.1 249.45 268.7 248.65 268.6 248.15 268.6 248.05 268.65 247.6 269.3 247.5 270.95 247.05 273.8 247.8
M 255.75 220.3
Q 254.9 220.05 254.1 219.95 250.5 219.3 246.15 219.7 240.6 220 236.6 222.55 235.65 223.15 234.75 223.9 232.2 226.05 230.45 229.15 229.7 230.45 229.7 232.1 229.9 232.8 230.35 233.5 232.416796875 236.6333984375 235.4 238.7
L 237.2 238.7 237.2 237.2
Q 235.65 236.4 234.75 234.35 234.1 232.35 233.85 232.05
L 233.85 231.75
Q 234.8853515625 232.197265625 235.95 232.55
L 237.1 232.85
Q 243.1826171875 234.13046875 249.25 234.3 252.337890625 234.1908203125 256.05 233.85
L 259.1 233.85
Q 261.3837890625 233.5775390625 263.65 233.15 264.5 233 265.4 232.85 264.311328125 233.3984375 263.2 233.85
L 263.3 233.85
Q 263.05 234.55 262.3 235.05 261.1 235.8 260.6 236.3 260.45 237.7 263.05 238.3 263.796875 238.46015625 264.85 238.65 265.9453125 237.9048828125 266.9 236.95 268.6 235.25 268.85 232.85 268.9 232.45 268.9 232.1 264.85 222.55 255.75 220.3
M 255.45 222.5
Q 257.1 222.05 257.15 222.05 257.75 222 259.25 222.95 260 223.4 261.5 224.2 262.75 225.2 262.75 226.35 262.75 226.95 262.4 227.15 262.15 227.3 261.6 227.3 261.15 227.4 260.75 227.25 260.6 227.2 259.85 226.7 259.1 226.15 257.3 225.45 255.55 224.75 254.75 224.2 254.05 223.7 254.15 223.2 254.3 222.75 255.45 222.5
M 255.7 218.7
Q 257.05 217.35 257.45 215.4 257.55 215 257.6 214.65 253.4 200.1 236.55 199.6 225.85 198.9 219.8 207.05 218.85 208.25 218.65 209.85 218.8 210.6 219.15 211.35 220.11796875 213.2859375 221.4 214.9 222.7353515625 215.4353515625 222.9 215.6
L 224.15 215.6
Q 223.95 214.45 222.1 212.7 220 210.85 219.3 210.15
L 219.3 209.25
Q 221.9099609375 210.2939453125 224.35 211.15 223.8654296875 210.8626953125 223.35 210.55
L 225.95 211.55
Q 238.8 215.95 252.3 215.05 253.15 215 254 214.95 253.34765625 215.1927734375 252.7 215.4 253.7544921875 215.36171875 254.85 215.3
L 255.15 215.3
Q 250.6708984375 217.2060546875 250 217.75 252.9642578125 217.918359375 255.7 218.7
M 249 213.8
Q 248.35 213.8 248.15 213.65 247.9 213.4 247.9 212.85
L 248.05 212.25
Q 248.25 212 249.05 212 249.5 212 250.1 211.8 250.45 211.7 251.15 211.45
L 253.05 211.3
Q 253.65 211.3 254 211.6 254.45 212.05 254.2 212.55
L 253.15 213.4
Q 252.25 214.05 251.55 214.15 251.1 214.2 250.3 214 249.4 213.8 249 213.8
M 231.75 202.25
Q 232.35 202.35 232.75 202.6 233.3 202.95 233.2 203.5 233.15 204.1 232.35 204.3 232.15 204.35 231.15 204.35 229.8 204.4 227.9 205.45 226.05 206.45 225.35 206.55 224.75 206.7 224.05 206.6 223.75 206.6 223.45 206.45 223.15 206.25 223.15 205.65 223.15 204.6 224 203.85 224.8 203.15 225.75 202.85 228.65 201.7 231.75 202.25
M 338 195.6
Q 338.618359375 195.6 339.15 195.6 340.25 195.6 341.05 195.7 341.533203125 195.7439453125 341.9 195.85
L 344.25 195.5 342.9 196
Q 342.5111328125 196.120703125 342 196.25
L 342 197.4
Q 341.15 197.8 340.9 198 340.5 198.25 340.8 199.2 343.8 199.8 345.45 199.8 347.4837890625 199.8 348.75 199.5
L 348.75 197.95 348.35 197.7 347.55 193.6 341.1 191.15
Q 337.4 190.25 333.4 190.35 326.6 190.45 320.1 193.05 318 193.9 316.9 194.65 315.3 195.6 312.3 198.5 311.9716796875 198.8611328125 311.7 199.15 311.234375 199.7806640625 311.1 200.15 310.9 200.7 311 202.1 311.1 203.25 310.8 203.85 311.55390625 203.7970703125 312.3 203.75 313.2091796875 203.740625 314.1 203.75 316.7462890625 203.7357421875 319.45 204 320.8697265625 203.9181640625 321.65 203.45 322.55 202.95 322.55 202.1 322.55 200.9 322.5 200.85 322.1 200.75 321.35 200.4 322.1 199.6 323.8 198.85 325.1826171875 198.26171875 327.15 197.7 325.48984375 197.9796875 323.8 198.25 322.4099609375 198.48671875 321 198.7 317.85 199.2 316.25 199.3 316.1 199 316.7 198.9
L 333.95 195.55
Q 339.3 194.45 343.5 193.8 344.7 193.6 345.5 193.8 343.35 194.7 341.3 195.05
L 338 195.6
M 329.2 191.7
Q 329.75 191.6 330.85 191.6
L 333.25 191.6
Q 334.4 191.6 334.6 192.2 334.75 192.7 334.3 193.05 334.15 193.25 333.45 193.45 332.15 193.8 330.3 193.85 328.2 193.8 327.1 193.8 326.8 193.5 326.85 193.1 326.9 192.7 327.35 192.45 328.15 191.85 329.2 191.7
M 324.3 193.85
Q 324.45 194 324.35 194.3
L 324.15 194.7 324 194.85
Q 323.8 195 323.55 194.9 323.1 194.9 323.05 194.65
L 323 194.35 323.05 194.2 323.1 194.1 323.3 193.95
Q 323.6 193.75 323.75 193.8
L 323.8 193.7
Q 323.95 193.75 324.3 193.85
M 328.5 177.95
L 327.9 177.2
Q 327.5 176.8 326.65 176.35
L 298.85 176.35
Q 299.25 176.6 299.75 176.85 310.9 182.2 326.9 184.9 327.6 185 327.85 185.4 322.75 184.9 317.85 183.8 321 184.75 324.25 185.25 324.7 185.35 324.65 185.6 322.15 185.5 319.05 184.65 317.2 184.15 313.7 182.9 313.4 182.8 313.25 182.7 308.8 181.4 304.5 179.65 301.1 178.3 299.5 177.45 298.35 176.9 297.65 176.35
L 293.7 176.35
Q 300.7 186.4 310.1 186.75
L 315 186.75
Q 314.7 186.35 313.4 185.55 312.05 184.75 311.9 184.65
L 311.9 184.35
Q 314.1 185.1 319.2 186.15 324.85 187.35 327.25 187.35 328.59140625 187.35 329.95 187.1 330.2998046875 186.700390625 330.45 186.4 331.25 185.05 331.4 184.95 331.2943359375 184.0689453125 331.25 183.75
L 331.25 183.65
Q 331.2 183.3 330.6 182
L 328.5 177.95
M 327.3 180.05
Q 327.95 180.4 328 180.9 328.1 181.3 327.85 181.7 327.6 182.05 327.2 182.2 326.6 182.5 325.6 182.4 324.25 182.4 323.6 182.25
L 320.55 181
Q 319.95 180.8 319.65 180.5 319.25 180.1 319.4 179.6 319.65 179 320.65 179.1 321.8 179.1 323.15 179.35
L 326.2 179.8
Q 326.95 179.9 327.3 180.05 Z"/>

<path fill="#E2703C" stroke="none" d="
M 276.95 249.05
Q 276 248.4 273.8 247.8 270.95 247.05 269.3 247.5 268.65 247.6 268.6 248.05 268.6 248.15 268.7 248.65 269.1 249.45 269.4 249.75 269.75 250.05 270.85 250.5
L 273.6 251.55
Q 275.2 252.05 276.3 252.7 277 253.1 277.45 253.2 278.15 253.4 278.6 252.95 279 252.6 278.9 251.8 278.6 250.15 276.95 249.05
M 257.15 222.05
Q 257.1 222.05 255.45 222.5 254.3 222.75 254.15 223.2 254.05 223.7 254.75 224.2 255.55 224.75 257.3 225.45 259.1 226.15 259.85 226.7 260.6 227.2 260.75 227.25 261.15 227.4 261.6 227.3 262.15 227.3 262.4 227.15 262.75 226.95 262.75 226.35 262.75 225.2 261.5 224.2 260 223.4 259.25 222.95 257.75 222 257.15 222.05
M 232.75 202.6
Q 232.35 202.35 231.75 202.25 228.65 201.7 225.75 202.85 224.8 203.15 224 203.85 223.15 204.6 223.15 205.65 223.15 206.25 223.45 206.45 223.75 206.6 224.05 206.6 224.75 206.7 225.35 206.55 226.05 206.45 227.9 205.45 229.8 204.4 231.15 204.35 232.15 204.35 232.35 204.3 233.15 204.1 233.2 203.5 233.3 202.95 232.75 202.6
M 225.45 204.8
Q 225.55 204.6 225.75 204.6
L 226.1 204.45 226.25 204.35 226.6 204.35 225.9 204.7 225.45 204.8
M 248.15 213.65
Q 248.35 213.8 249 213.8 249.4 213.8 250.3 214 251.1 214.2 251.55 214.15 252.25 214.05 253.15 213.4
L 254.2 212.55
Q 254.45 212.05 254 211.6 253.65 211.3 253.05 211.3
L 251.15 211.45
Q 250.45 211.7 250.1 211.8 249.5 212 249.05 212 248.25 212 248.05 212.25
L 247.9 212.85
Q 247.9 213.4 248.15 213.65
M 324.35 194.3
Q 324.45 194 324.3 193.85 323.95 193.75 323.8 193.7
L 323.75 193.8
Q 323.6 193.75 323.3 193.95
L 323.1 194.1 323.05 194.2 323 194.35 323.05 194.65
Q 323.1 194.9 323.55 194.9 323.8 195 324 194.85
L 324.15 194.7 324.35 194.3
M 330.85 191.6
Q 329.75 191.6 329.2 191.7 328.15 191.85 327.35 192.45 326.9 192.7 326.85 193.1 326.8 193.5 327.1 193.8 328.2 193.8 330.3 193.85 332.15 193.8 333.45 193.45 334.15 193.25 334.3 193.05 334.75 192.7 334.6 192.2 334.4 191.6 333.25 191.6
L 330.85 191.6
M 328 180.9
Q 327.95 180.4 327.3 180.05 326.95 179.9 326.2 179.8
L 323.15 179.35
Q 321.8 179.1 320.65 179.1 319.65 179 319.4 179.6 319.25 180.1 319.65 180.5 319.95 180.8 320.55 181
L 323.6 182.25
Q 324.25 182.4 325.6 182.4 326.6 182.5 327.2 182.2 327.6 182.05 327.85 181.7 328.1 181.3 328 180.9 Z"/>

<path fill="#D3E7EE" stroke="none" d="
M 308 201.95
Q 307.97265625 201.6482421875 307.95 201.35
L 307.95 203.25
Q 307.97734375 203.1908203125 308 203.1 308.1 202.75 308 201.95
M 286.05 177.25
Q 286.3 177.65 286.3 178.3 286.25 179.15 285.85 180.85
L 285.5 182.4
Q 285.1 183.95 284.75 184.65 284.65 184.8 284.55 184.95 286.5953125 184.7775390625 288.75 184.75 289.2 180.449609375 289.2 179.8 289.2 177.2322265625 289.05 176.35
L 284.65 176.35 285.3 176.7
Q 285.8 176.95 286.05 177.25
M 271.25 192.25
Q 270.65 193.3 270.55 196.2
L 270.55 199.65
Q 270.55 201.95 270.1 203 269.8 203.85 269.1 204.4 268.4 205 267.55 205.05 267.05 205.05 267 204.8
L 267 204.75
Q 266.842578125 204.7689453125 266.7 204.75 266.7 205.05 266.4 205.05 266.65 205.2 268.7 205.85 270.7 206.5 271.2 206.55
L 271.2 206.85
Q 269.7 207.15 269.1 207.15 268.8 207.15 268.5 207.45 271.6302734375 208.6048828125 275.3 209.55 274.1453125 209.021484375 272.95 208.4 272.75 208.3 272.65 208.15 272.5 207.95 272.65 207.85 272.8 207.75 273.05 207.9 276.8 209.65 277.85 210 278.3708984375 210.19375 278.9 210.35 280.6298828125 210.92109375 282.6 211.3
L 286.4 211.45
Q 288.1 211.55 288.95 211.7 289.2978515625 211.7580078125 289.45 211.85 289.57890625 211.973828125 289.6 212.1 291.6 212.2 294.25 212.3 294.2755859375 212.1083984375 294.3 211.9 294.38828125 211.3966796875 294.5 210.95 293.6 211 292.35 211
L 285.05 210.4
Q 283.2 210.2 279.5 209.45
L 278.15 209.1 277.2 208.6
Q 276.4 208.35 276.35 208.3 275.85 208 275.85 207.6 275.8 207.2 276.25 206.9 276.65 206.7 277.1 206.7 278.75 206.45 280.35 206.55 277.55 205.25 276.25 203.8 275.5 202.85 275.35 201.9 275.35 200.95 275.25 200.55
L 274.95 199.8
Q 274.7 199.15 274.7 197.8
L 274.75 194.4
Q 274.75 193.1 275 192.55 275.35 192.05 276.3 191.55 278.25 190.55 281.8 189.7 287.351171875 188.287890625 290.4 188.65 290.4703125 188.68828125 290.55 188.7
L 293.55 188.55
Q 295.2 188.45 296.05 188.55 296.7 188.6 298.85 189.2 301.45 190 302.45 190.45
L 305.1 191.75
Q 305.75 192.05 307.2 192.55 308.4 193.2 308.85 194.1 309.3 194.95 309.2 196.5
L 309.1 201.65
Q 309 202.95 308.75 203.4 308.5 203.8 308.1 204 308.02421875 204.0251953125 307.95 204.05
L 307.95 204.1
Q 309.075 203.9767578125 310.2 203.9 310.15 203.85 310.1 203.8 310 203.35 309.95 203.15
L 309.9 201
Q 309.8 200 310.05 199.35 310.25 198.75 311.1 197.8 311.2849609375 197.6150390625 311.45 197.4 311.3607421875 197.388671875 311.25 197.3 310.95 197 311.05 196.15 311.15 195.4 310.95 194.9
L 310.75 194.4
Q 310.8 193.8 310.7 193.55 310.65 193.1 310.05 192.6 309.65 192.3 309.65 191.95 309.65 191.903125 309.65 191.85 308.1931640625 191.5578125 306.6 191.15 303.75 190.4 302.35 189.6 301.65 189.25 300.4 188.35 298.4158203125 187.0107421875 297.1 185.95
L 297.1 185.95
Q 297.062109375 185.95 297 185.95 295.51328125 185.948828125 294.05 185.9 293.95 185.9 293.9 185.95 293.6 186.1 293 186.1 290.6611328125 186.024609375 288.6 186.05 285.215625 186.1830078125 282.6 186.65 276.95 187.65 272.95 190.55 271.8947265625 191.351953125 271.4 192 271.3201171875 192.133203125 271.25 192.25
M 248.6 176.35
Q 248.45 176.7 248.45 177.45
L 248.65 182.65
Q 248.75 184.95 248.35 186.05 248 186.9 247.3 187.45 246.55 188 245.75 187.95 244.8 187.85 244.85 187.25 244.9 186.85 245.5 186.65 246.65 186.25 246.8 186.15 247.27578125 185.753515625 247.35 184.65 246.6 185.4 245.55 186 244.45 186.65 243.6 187.65 244.25 188.05 248.2 188.7 252.25 189.4 252.45 189.5
L 252.75 189.5
Q 249.65 189.8 248.75 190.1
L 248.75 190.4
Q 253.8123046875 191.4556640625 257.95 192 256.21875 191.685546875 254.5 191.25 254.45 191 254.75 190.95 255.05 190.85 255.3 190.95 258.7 191.8 262.5 192.05 264.3 192.1 267.85 192.25 268.4138671875 192.3126953125 268.95 192.4 269.3138671875 192.475390625 269.65 192.55 269.6748046875 192.42578125 269.7 192.3 269.7498046875 192.2005859375 269.8 192.1 270.05 191.5 270.65 190.9 270.6 190.9 270.55 190.9
L 263.85 190.65 263.8 190.7 263.5 190.7
Q 259.8 190.55 256.95 190
L 257 189.75
Q 257.3 189.8 257.6 189.85 255.85 189.5 254 189.05
L 252.75 188.7
Q 252.35 188.5 252.25 188.3 252 187.9 252.4 187.55 252.6 187.3 253.15 187.1 253.9 186.85 254.95 186.75 256.15 186.6 257.35 186.55 256.5 186.2 255.6 185.75 253.9 184.9 253.15 184.05 253 183.85 252.95 183.75 252.75 183.65 252.65 183.55 252.5 183.4 252.4 183
L 251.95 180.6 251.9 177.1
Q 251.9 176.6 252 176.35
L 248.6 176.35
M 337.6 224.75
Q 337.644140625 224.917578125 337.7 225.05 337.9 225.5 338.5 226.4 338.8640625 227.0068359375 338.7 227.45
L 339.6 227.45
Q 339.05 226.95 338.05 225.4 337.81640625 225.055859375 337.6 224.75
M 333.7 214.6
Q 333.75 214.7 333.8 214.8 333.8 214.9 333.85 215 333.9 215.1 333.95 215.2 333.95 215.35 333.95 215.45 333.95 215.55 333.95 215.65 333.95 215.75 334 215.85 334 215.95 334 216.1 334 216.2 334 216.3 334 216.4 334 216.5 334 216.6 334 216.7 334 216.85 334 216.95 334.05 217.05 334.05 217.15 334.05 217.25 334.05 217.35 334.05 217.5 334.05 217.6 334.05 217.7 334.05 217.8 334.05 217.9 334.05 218 334.05 218.1 334.05 218.2 334.05 218.3 334.05 218.4
L 334.05 218.45
Q 334.2 218.5 334.35 218.7
L 334.35 219.2
Q 333.35 224.95 327.95 227
L 328 227
Q 328.85 227.15 329.35 227.6 330.1 228.15 329.75 228.95 329.55 229.3 328.7 229.75 328.4 229.9 328.15 230.05 329.05 229.8 329.65 229.55 330.64921875 229.115625 331.2 229.25 331.2982421875 229.19921875 331.4 229.15 336.2 226.85 336.85 226.85 337.136328125 226.85 337.45 227 336.8921875 226.53203125 336.5 225.8 335.9 224.4 336.05 222.8 336.55 220.65 336.65 219.55 336.85 217.75 335.95 214.25 335.2 211.6 334.35 210.6 333 208.9 329.25 207.7 322.4 205.55 315.75 205.25 314.12734375 205.182421875 312.55 205.2 308.8423828125 205.3220703125 305.35 206 303.791796875 206.347265625 302.25 206.8 296.9 208.45 295.65 211.6 295.604296875 211.6912109375 295.55 211.8 295.484765625 212.0216796875 295.45 212.3 295.85 212.3 295.75 212.55 295.55 212.6 295.35 212.6 295.05 214.05 295.2 216.45 295.4 219.8 294.75 221.35 294.25 222.55 293.2 223.25 292.1 224.05 290.95 223.85
L 290.9 223.8
Q 290.648046875 223.989453125 290.4 224.15 295.819921875 227.10625 300.9 228.8 300.868359375 228.7744140625 300.85 228.75 300.8 228.7 300.8 228.65 299.5 228 297.95 227.2
L 295.1 225.75
Q 297.15 226.25 300.75 227.9
L 300.8 227.95
Q 300.85 227.65 301.1 227.45 301.5 227.1 302.4 227 303.75 226.9 305.5 226.9 302.4 225.55 299.55 223.45 299.55 223.4 299.5 223.4 297.65 221.9 297.15 220.8 296.85 220.25 297.2 219.95
L 297.2 219.9
Q 297.2 219.8 297.2 219.7 297.2 219.55 297.2 219.45 297.2 219.35 297.2 219.25 297.2 219.15 297.2 219.05 297.2 218.95 297.2 218.8 297.2 218.7 297.2 218.6 297.2 218.5 297.2 218.4 297.2 218.3 297.2 218.2 297.2 218.1 297.2 218 297.2 217.9 297.2 217.8 297.2 217.7 297.2 217.6 297.2 217.5 297.2 217.35 297.2 217.25 297.2 217.15 297.25 217.05 297.25 216.95 297.25 216.85 297.25 216.7 297.25 216.6 297.25 216.5 297.25 216.4 297.25 216.3 297.25 216.2 297.25 216.1 297.25 215.95 297.25 215.85 297.25 215.75 297.25 215.65 297.25 215.55 297.25 215.45 297.25 215.35 297.25 215.2 297.25 215.1 297.25 215 297.25 214.9 297.25 214.8 297.25 214.7 297.25 214.6 297.25 214.45 297.25 214.35 297.3 214.25 297.35 214.15 297.35 214.05 297.35 213.95 297.35 213.85 297.35 213.75 297.4 213.7 297.5 213.65 297.6 213.65 297.7 213.65 297.7 213.6 297.7 213.55 297.8 213.6 297.95 213.65 298.05 213.5 298.3 213.3 301.05 211.3 302.65 210.3 305.2 208.85 307.45 208.2 309.5 207.6 313.75 207.4 316.75 207.3 317.7 207.4 319.3 207.6 321.4 208.2 328.4 210.05 332.25 213.25 333.1 213.9 333.7 214.6
M 365.9 200.8
L 365.9 198.8
Q 363.65 198.85 362.05 198.95 357.65 199.25 354.1 200.25 349.2 201.5 345.1 204.25 344.85 204.4 344.65 204.6 344.6 204.65 344.55 204.7 344.25 204.95 343.95 205.2 343.8 205.35 343.7 205.55 343.2 206.4 343.4 208.55 343.85 212.9 343.25 217.25 343.15 218.35 342.65 219 341.85 219.8 340.45 219.45 340.40859375 219.4361328125 340.35 219.4 340.1341796875 219.5185546875 339.9 219.6 340.55 220.8 349.65 223.25 358.55 225.65 361.6 225.65 363.6044921875 225.65 365.9 225.15
L 365.9 224.25
Q 362.4 224.1 359.75 223.9 358.35 223.8 357.55 223.65 355.25 223.6 353.8 223.4 351.35 223.1 349.15 222.5 348.6 222.3 348.45 222.1 348.25 221.8 348.35 221.4 348.4 221.05 348.7 220.8 349.1 220.45 350 220.35 351.35 220.2 353.15 220.2 350 218.85 347.15 216.8 347.15 216.75 347.1 216.75 345.25 215.2 344.75 214.1 344.5 213.6 344.8 213.3
L 344.8 213.25
Q 344.8 213.15 344.8 213.05 344.8 212.9 344.8 212.8 344.8 212.7 344.8 212.6 344.8 212.5 344.8 212.4 344.8 212.3 344.8 212.15 344.8 212.05 344.8 211.95 344.8 211.85 344.8 211.75 344.8 211.65 344.8 211.55 344.8 211.4 344.8 211.3 344.8 211.2 344.8 211.1 344.8 211 344.8 210.9 344.8 210.8 344.8 210.65 344.8 210.55 344.8 210.45 344.85 210.35 344.85 210.25 344.85 210.15 344.85 210 344.85 209.9 344.85 209.8 344.85 209.7 344.85 209.6 344.85 209.5 344.85 209.45 344.85 209.3 344.85 209.2 344.85 209.1 344.85 209 344.85 208.9 344.85 208.8 344.85 208.7 344.85 208.55 344.85 208.45 344.85 208.35 344.85 208.25 344.85 208.15 344.85 208.05 344.85 207.95 344.85 207.8 344.85 207.7 344.9 207.6 344.95 207.5 344.95 207.4 344.95 207.3 344.95 207.2 344.95 207.05 345 207 345.1 206.95 345.2 206.95 345.3 206.95 345.3 206.9 345.3 206.85 345.4 206.9 345.55 206.95 345.65 206.8 345.9 206.6 348.65 204.65 350.25 203.65 352.8 202.15 355.05 201.5 357.1 200.9 361.35 200.75 364.35 200.65 365.3 200.75 365.6 200.8 365.9 200.8
M 331 179.55
L 332.45 182.65
Q 332.548828125 182.896875 332.65 183.95 335.2759765625 184.33046875 340.1 184.85 350.15 185.95 350.85 186.15 350.3 186.5 348.55 187.1 346.9 187.65 346.85 187.65
L 346.85 188
Q 349.85 188.7 354 189.5 359.05 190.45 360.2 190.4 360.5 189.8 360.5 187.65
L 365.9 187.65 365.9 176.35 328.8 176.35
Q 329.15 176.7 329.5 177.15 330.1 177.9 331 179.55 Z"/>

<path fill="#ABD1DC" stroke="none" d="
M 294.05 184.95
Q 294.65 184.95 295.35 184.95 295.7 184.95 296 185 295.9 184.9 295.85 184.85 293.45 182.75 292.4 180.4 291.8 179 291.2 176.35
L 289.05 176.35
Q 289.2 177.2322265625 289.2 179.8 289.2 180.449609375 288.75 184.75 290.9669921875 184.6986328125 293.3 184.8 293.8 184.8 294.05 184.95
M 365.9 234.95
L 365.9 231.3
Q 361.75 232.15 359.2 232.6 352.95 233.7 347.9 234.1 343.35 234.35 341.05 234.55 337.1 234.9 334.35 235.65 335.2 236.65 335.55 237.8
L 334.85 237.8
Q 334.6 236.6 333.5 235.95 333.1 235.75 333 235.6 332.85 235.05 333.75 234.85 336.35 234.1 340.2 233.75 342.4 233.5 346.75 233.2 351.7 232.75 358.45 231.5 361.2 231.1 365.9 230.2
L 365.9 225.15
Q 363.6044921875 225.65 361.6 225.65 358.55 225.65 349.65 223.25 340.55 220.8 339.9 219.6 340.1341796875 219.5185546875 340.35 219.4 340.1431640625 219.3224609375 340.1 219.15 340 218.75 340.4 218.65
L 341.1 218.6
Q 342.05 218.4 342.15 216.9 342.35 215.05 342.25 210.4
L 342.15 206.9
Q 342.1 206.6 342.15 206.3 340.45 207.1 338.35 207.45 336.5 207.75 333.15 207.65 336.45 209.75 337.6 214.15 338.45 217.65 337.7 222.2 337.355859375 223.8349609375 337.6 224.75 337.81640625 225.055859375 338.05 225.4 339.05 226.95 339.6 227.45
L 338.7 227.45
Q 338.666796875 227.5544921875 338.6 227.65 337.955859375 227.4353515625 337.45 227 337.136328125 226.85 336.85 226.85 336.2 226.85 331.4 229.15 331.2982421875 229.19921875 331.2 229.25 331.2779296875 229.2671875 331.35 229.3 332.65 228.85 333.95 228.35 334.65 228.15 334.8 227.7 334.9 227.55 335.1 227.7 335.3 227.85 335.25 228.05 335.2 228.2 334.75 228.55 333.75 229.1 330.9 230.05
L 330.9 230.1 327.15 231.25
Q 325.3 231.75 324.45 231.85 324.5 231.8 325.05 231.55 324.2 231.6 323.6 231.55 324.3 231.4 325.05 231.25 324.35 231.3 323.55 231.35 317.7 231.95 314.55 231.95 309.6 231.9 305.7 230.75 304.3 230.3 302.2 229.35 301.85 229.25 301.55 229.15 301.0673828125 228.9744140625 300.9 228.8 295.819921875 227.10625 290.4 224.15 290.648046875 223.989453125 290.9 223.8 290.7279296875 223.337109375 291.35 223.05
L 292.25 222.75
Q 293.75 222.3 294.1 220.3 294.3 219.25 294.1 217.1 293.95 214.95 294.15 213.1 294.15 212.9 294.2 212.75 292.65 212.85 290.85 212.8 289.4 212.7 285.95 212.35 283.75 212.15 282.7 211.95 282 211.85 281.3 211.65 280.8 211.6 280.3 211.55 280.25 211.45 280.3 211.4 279.15 211.05 277.85 210.55 276.5974609375 210.1064453125 275.3 209.55 271.6302734375 208.6048828125 268.5 207.45 268.8 207.15 269.1 207.15 269.7 207.15 271.2 206.85
L 271.2 206.55
Q 270.7 206.5 268.7 205.85 266.65 205.2 266.4 205.05 266.7 205.05 266.7 204.75 266.842578125 204.7689453125 267 204.75 267 204.5181640625 267.5 204.2 268.85 203.55 269.25 201.85 269.5 200.9 269.5 198.95
L 269.45 194.95
Q 269.45 193.65 269.6 192.85 263.6365234375 193.0412109375 257.95 192 253.8123046875 191.4556640625 248.75 190.4
L 248.75 190.1
Q 249.65 189.8 252.75 189.5
L 252.45 189.5
Q 252.25 189.4 248.2 188.7 244.25 188.05 243.6 187.65 244.45 186.65 245.55 186 246.6 185.4 247.35 184.65 247.4 184.3814453125 247.4 184.05 247.3 180.2 247.45 177.1 247.45 176.7 247.55 176.35
L 221.55 176.35
Q 222.6 177.55 224.55 179.15 225.55 179.95 226.7 181
L 269.5 216.8
Q 272.9 219.35 277.1 222.75
L 289.4 232.8
Q 293.45 236.05 295.75 237.25 298.6 238.8 302.55 239.55 306.05 240.25 310.3 240.5 313.7 240.7 318.2 240.55 328.05 240.2 344.05 237.9 358.85 235.75 365.9 234.95
M 332.65 183.95
L 332.65 184
Q 332.65 185.2 332.4 185.75
L 331.9 186.55
Q 331.86640625 186.6359375 331.8 186.7 331.41640625 187.73359375 331 188.15 330.35 188.65 330.05 189 330 189.05 330 189.1 330.95 189 331.95 188.95 337.6 188.7 342.25 189.85 343.9 190.05 345.35 190.75 346.75 190.8 348.45 191.1
L 352.45 191.95
Q 355.4 192.6 356.9 192.8
L 363.35 193.65
Q 364.65 193.7 365.9 193.2
L 365.9 187.65 360.5 187.65
Q 360.5 189.8 360.2 190.4 359.05 190.45 354 189.5 349.85 188.7 346.85 188
L 346.85 187.65
Q 346.9 187.65 348.55 187.1 350.3 186.5 350.85 186.15 350.15 185.95 340.1 184.85 335.2759765625 184.33046875 332.65 183.95
M 333.15 187.75
Q 333.15 187.35 333.35 187.15 338.15 187.75 341.35 187.85
L 344.5 188
Q 346.8 188.15 350.1 188.9 352 189.35 355.7 190.25 359.2 190.95 362.5 191.25 362.5 191.55 362 191.55 357.2 191.6 352.2 190.3
L 350.2 189.7
Q 347.5 189 341.15 188.5
L 333.15 187.75 Z"/>

<path fill="#C09595" stroke="none" d="
M 277.4 192.55
Q 276.45 193 276.25 193.4 276.05 193.75 276.05 194.55
L 276.05 197.05
Q 276.05 198.15 276.15 198.65
L 276.8 201.55
Q 277.45 203.85 280.8 205.25 284.35 206.85 289.15 207.35 292.2 207.65 297 207.65 297.3 207.45 297.6 207.25 300.75 205.3 305.8 204.45 306.875 204.2544921875 307.95 204.1
L 307.95 204.05
Q 307.5826171875 204.11640625 307.25 203.95 307.7375 203.9056640625 307.95 203.25
L 307.95 201.35
Q 307.8068359375 199.4482421875 307.85 197.55 307.9 196.3 307.85 195.8 307.8345703125 195.69765625 307.8 195.6 307.6384765625 194.74375 307.1 194.25 306.75 193.9 305.5 193.45 304.7 193.15 303.1 192.35 297.95 189.85 294.15 189.6 293.5455078125 189.6 293.1 189.55 292.748046875 189.5724609375 292.5 189.55 292.446484375 189.554296875 292.4 189.55 291.4 189.5 290.7 189.4 286.35 190 283.9 190.5 280.2 191.35 277.4 192.55
M 278.4 196.7
Q 278.05 196.3 278.35 195.5 278.45 195.3 278.7 195.55 278.75 195.6 278.85 195.95 279.05 196.3 279.45 196.5 280.7 197.25 283.15 197.85 287.25 198.8 291.85 199.25 294.85 199.45 296.35 199.35 299.85 199.1 302.9 197.65 302.95 197.8 302.95 197.95 303.65 197.6 304.2 197.3 305.1 196.7 305.6 196.7 304.6 197.75 302.55 198.65 302.35 198.75 302.1 198.85 300.4 199.7 298.8 199.95 295.15 200.95 293.05 201
L 295.65 200.35
Q 296 200.25 296.3 200.2 294.9 200.25 293.25 200.1 290.25 199.95 286.45 199.3
L 283.85 198.7
Q 282.1 198.35 281 197.85 279.85 197.25 279.25 197.05 278.65 196.95 278.4 196.7
M 280.55 192.75
Q 280.8 192.5 281.65 192.15
L 283.45 191.55
Q 285.1 191.1 285.55 191.05 286.5 190.95 288.35 191 289.2 191 289.35 191.05 290 191.35 289.85 191.85 289.8 192.05 289.4 192.35 285.6 194.75 281.1 194.05 280.75 194.05 280.5 193.85 280.05 193.4 280.55 192.75
M 287.9 195.7
Q 287.55 195.45 287.55 195.25 287.25 195.2 286.75 194.8 286.3 194.35 286.25 194.1 286.5 194 286.7 194.2
L 287.1 194.55 287.7 194.95 288.75 196.05
Q 288.9 196.3 288.8 196.35
L 287.9 195.7
M 287.4 193.7
Q 287.35 193.5 287.75 193.5 289 193.85 291.6 194.75 292.85 195.15 293.4 195.65 293.2 195.75 292.6 195.5 290.65 194.6 287.4 193.7
M 290 192.5
L 290 192.35 290.75 192.3 293.95 192.35 293.9 192.6 290 192.5
M 254.3 178.35
Q 253.6 178.05 253.3 177.75 253.2 177.6 253.1 177.45 253.05 177.7 253.05 177.95 253.05 178.95 253.2 179.95 253.3 181.45 253.95 183.2 254.05 183.45 254 183.6 260.4 186.9 267.6 187.35
L 273.15 187.35 277.9 186
Q 278.7 185.75 279.15 185.95 279.85 185.65 280.6 185.5 281.95 185.2 283.4 185.05
L 283.45 185.05
Q 283.35 184.65 283.7 183.9 283.9 183.4 284.05 182.4 284.2 181.3 284.35 180.85 284.8 179.9 284.95 179.4 285.25 178.5 284.8 177.95 284.6 177.7 284.2 177.45 283.45 176.95 282.5 176.55 282.3 176.45 282.15 176.35
L 253.7 176.35
Q 253.4 176.6 253.3 176.85
L 253.3 176.9 253.55 177.25
Q 253.8 177.55 254.7 178
L 260.9 179.9
Q 266.05 180.95 270.5 181.3 270.7 181.5 270.3 181.5 268.6 181.6 267.2 181.45
L 264.85 181.1
Q 260.15 180.25 258.4 179.75 256.45 179.2 254.3 178.35
M 279.5 177.6
Q 280.55 177.6 280.75 178.1 281 178.6 280.55 178.95 280.3 179.25 279.8 179.45
L 278.25 179.85
Q 276.95 179.95 276.35 179.85
L 274.4 179.6
Q 273.3 179.5 273.1 179 272.85 178.55 273.4 178.1 273.7 177.85 274.3 177.75 275.15 177.6 276.8 177.6
L 279.5 177.6
M 278.75 182.05
L 278.95 182.35
Q 275.75 183.2 274.3 183.4 271.65 183.85 269.6 183.65 269.6 183.5 269.9 183.5 274.45 183.35 278.75 182.05
M 271.55 182.35
Q 271.75 182.1 272.3 182.1 278.5 181.65 283.85 179.2 284.1 179.5 283.5 179.75 279.85 181.1 277.6 181.65 274.3 182.5 271.55 182.35
M 332.75 215.85
Q 332.45 215.45 332.05 215.05 330.7 213.65 327.6 212.1 321.3 208.95 314.95 208.8 307.9 208.55 302.35 211.9
L 300.05 213.35
Q 298.5 214.25 298.2 214.75 298.2 214.85 298.2 214.95 298.2 215.05 298.2 215.15 298.2 215.25 298.2 215.35 298.2 215.45 298.2 215.6 298.2 215.7 298.2 215.8 298.2 215.9 298.2 216 298.2 216.1 298.2 216.2 298.2 216.35 298.2 216.45 298.2 216.55 298.2 216.65 298.2 216.75 298.2 216.85 298.2 217 298.2 217.1 298.25 217.2 298.3 217.3 298.3 217.4 298.3 217.5 298.3 217.6 298.3 217.75 298.3 217.85 298.3 217.95 298.3 218.05 298.3 218.15 298.3 218.2 298.3 218.3 298.3 218.45 298.3 218.55 298.3 218.65 298.3 218.75 298.3 218.85 298.3 218.95 298.3 219.05 298.3 219.2 298.3 219.3 298.3 219.4 298.3 219.5 298.3 219.6 298.3 219.7 298.3 219.8 298.25 219.95 298.2 220.05 298.15 220.15 298.05 220.25 299 221.2 300.05 222.05 312.05 231.1 326.35 225.75 329.9 224.4 331.8 221.5 332.85 219.95 332.7 218.2
L 332.7 218.15
Q 332.7 218.05 332.7 217.95 332.7 217.85 332.7 217.75 332.7 217.6 332.7 217.5 332.7 217.4 332.7 217.3 332.7 217.2 332.7 217.1 332.7 217 332.7 216.85 332.75 216.75 332.8 216.65 332.8 216.55 332.8 216.45 332.8 216.35 332.8 216.2 332.8 216.1 332.8 216 332.8 215.9 332.8 215.8
L 332.8 215.75 332.75 215.85
M 329.2 216.6
L 329.1 217.2
Q 320.3 220.5 310.95 219.1 317.6 219.1 324.4 217.9 312.6 219.7 301.55 215.45
L 304.2 216.15
Q 316.25 218.55 328.65 216.6 328.9 216.6 329.2 216.6
M 309.35 210.2
L 312.15 210.2
Q 312.7 210.2 312.9 210.4 313.3 210.65 313.2 211.2 313.1 211.95 312.45 212.2 312.2 212.35 311.8 212.4
L 311.1 212.5 309.45 213.1
Q 308.6 213.35 306.5 213.25 305.95 213.25 305.75 213 305.6 212.8 305.6 212.35 305.6 211.9 305.7 211.7 305.9 211.35 306.45 211.15
L 308.15 210.5 309.35 210.2
M 311.45 212.9
L 311.55 212.7 315.9 214.25
Q 316.8 214.65 316.9 215.1 316.85 215.25 316.55 215.15
L 316.3 214.9 315.65 214.55 311.45 212.9
M 314.1 212.25
L 314.1 212.15 314.15 212.05
Q 314.4 212.15 315.25 212.3 315.95 212.45 316.3 212.65
L 316.25 212.85
Q 314.7 212.65 314.1 212.25
M 365.9 212.1
L 365.9 211.75
Q 357.35 211.9 349.15 208.8
L 351.8 209.5
Q 358.75 210.85 365.9 210.8
L 365.9 202.4
Q 364.25 202.15 362.55 202.1 355.5 201.85 349.95 205.2
L 347.65 206.65
Q 346.1 207.6 345.8 208.1 345.8 208.2 345.8 208.3 345.8 208.4 345.8 208.5 345.8 208.6 345.8 208.7 345.8 208.8 345.8 208.95 345.8 209.05 345.8 209.15 345.8 209.25 345.8 209.35 345.8 209.45 345.8 209.5 345.8 209.65 345.8 209.75 345.8 209.85 345.8 209.95 345.8 210.05 345.8 210.15 345.8 210.3 345.8 210.4 345.85 210.5 345.9 210.6 345.9 210.7 345.9 210.8 345.9 210.9 345.9 211.05 345.9 211.15 345.9 211.25 345.9 211.35 345.9 211.45 345.9 211.55 345.9 211.65 345.9 211.8 345.9 211.9 345.9 212 345.9 212.1 345.9 212.2 345.9 212.3 345.9 212.4 345.9 212.55 345.9 212.65 345.9 212.75 345.9 212.85 345.9 212.95 345.9 213.05 345.9 213.15 345.85 213.3 345.8 213.4 345.75 213.5 345.65 213.6 346.6 214.5 347.65 215.35 356.2 221.8 365.9 221
L 365.9 212.85
Q 362.25 213 358.55 212.45 362.15 212.45 365.9 212.1
M 360.35 205.35
Q 360.25 205.9 359.65 206.25 359.25 206.55 358.25 206.95 356.15 207.75 354.65 207.95 352.55 208.2 351.1 207.1
L 350.75 206.7
Q 350.35 205.95 351.1 205.4 351.55 205.05 352.45 204.85 356.25 203.85 358.75 203.95 359.45 203.95 359.95 204.3 360.45 204.65 360.35 205.35 Z"/>

<path fill="#DBBABA" stroke="none" d="
M 281.65 192.15
Q 280.8 192.5 280.55 192.75 280.05 193.4 280.5 193.85 280.75 194.05 281.1 194.05 285.6 194.75 289.4 192.35 289.8 192.05 289.85 191.85 290 191.35 289.35 191.05 289.2 191 288.35 191 286.5 190.95 285.55 191.05 285.1 191.1 283.45 191.55
L 281.65 192.15
M 280.75 178.1
Q 280.55 177.6 279.5 177.6
L 276.8 177.6
Q 275.15 177.6 274.3 177.75 273.7 177.85 273.4 178.1 272.85 178.55 273.1 179 273.3 179.5 274.4 179.6
L 276.35 179.85
Q 276.95 179.95 278.25 179.85
L 279.8 179.45
Q 280.3 179.25 280.55 178.95 281 178.6 280.75 178.1
M 312.15 210.2
L 309.35 210.2 308.15 210.5 306.45 211.15
Q 305.9 211.35 305.7 211.7 305.6 211.9 305.6 212.35 305.6 212.8 305.75 213 305.95 213.25 306.5 213.25 308.6 213.35 309.45 213.1
L 311.1 212.5 311.8 212.4
Q 312.2 212.35 312.45 212.2 313.1 211.95 313.2 211.2 313.3 210.65 312.9 210.4 312.7 210.2 312.15 210.2
M 359.65 206.25
Q 360.25 205.9 360.35 205.35 360.45 204.65 359.95 204.3 359.45 203.95 358.75 203.95 356.25 203.85 352.45 204.85 351.55 205.05 351.1 205.4 350.35 205.95 350.75 206.7
L 351.1 207.1
Q 352.55 208.2 354.65 207.95 356.15 207.75 358.25 206.95 359.25 206.55 359.65 206.25 Z"/>

<path fill="#FFFFFF" stroke="none" d="
M 325.8 230.45
Q 325.6 230.45 325.45 230.45
L 324.4 230.45
Q 324.2 230.55 323.95 230.65 324.2 230.6 324.5 230.6 325.2 230.55 325.8 230.45 Z"/>

<path fill="#7097A8" stroke="none" d="
M 349.1 193.1
Q 348.85 192.8 348.95 192.55
L 349.85 192.75 348.05 192.3
Q 348.3 192.5 348.6 192.75 348.9 193 349 193.45 349.4 194.8 349.3 196.2
L 349.75 196.25 349.75 200
Q 349.75 200.05 349.75 200.15 356.7 197.35 365.9 197.4
L 365.9 196.45
Q 365.7 196.55 365.5 196.6
L 364.35 196.75 359.1 196.7 358.45 196.55
Q 355 195.5 354.15 195.15 352.65 194.45 352.15 194.3
L 350.5 193.9
Q 349.6 193.7 349.1 193.1
M 311.5 192.2
Q 311.7466796875 192.5126953125 311.85 192.9
L 312.25 194.45
Q 312.45 195.25 312.35 196.45 312.35 196.52421875 312.35 196.6 313.1275390625 195.8626953125 313.95 195.15 315.45 193.85 317.25 192.85 314.689453125 192.791796875 311.5 192.2 Z"/>
</g>

<g id="Layer0_3_FILL">
<path fill="#3B3D35" stroke="none" d="
M 91.55 133.4
Q 91.55 132.8 91.4 132.35 91.25 131.9 90.9 131.55 90.6 131.2 90.15 131 89.7 130.85 89.1 130.85 87.5 130.85 86.4 131.85
L 86.65 132.4 86.85 132.6
Q 86.95 132.65 87.15 132.65 87.35 132.65 87.5 132.6
L 88.3 132.2
Q 88.55 132.1 88.9 132.1 89.45 132.1 89.75 132.4 90 132.7 90 133.4
L 90 133.75
Q 89.25 133.8 88.7 133.9 88.1 134 87.65 134.1 87.2 134.25 86.9 134.45 86.6 134.65 86.4 134.9 86.25 135.1 86.15 135.35 86.05 135.6 86.05 135.85 86.05 136.3 86.2 136.65 86.35 137 86.6 137.2 86.85 137.45 87.2 137.55 87.55 137.65 88 137.65
L 88.65 137.6 89.7 137.15 90.15 136.75 90.3 137.2
Q 90.4 137.4 90.5 137.5 90.6 137.55 90.85 137.55
L 91.55 137.55 91.55 133.4
M 87.7 135.4
Q 87.85 135.2 88.1 135.1 88.4 134.95 88.85 134.85 89.35 134.75 90 134.75
L 90 135.85
Q 89.7 136.2 89.3 136.4 88.95 136.55 88.45 136.55 88.1 136.55 87.85 136.4 87.6 136.2 87.6 135.8 87.6 135.55 87.7 135.4
M 94.55 132.2
Q 94.8 132 95.25 132
L 96.2 132.2 96.75 132.45 96.9 132.4 97.05 132.25 97.4 131.65
Q 97.05 131.3 96.5 131.1 95.95 130.85 95.25 130.85 94.65 130.85 94.15 131 93.7 131.2 93.4 131.45 93.1 131.7 92.9 132.1 92.75 132.45 92.75 132.85 92.75 133.3 92.9 133.6 93.05 133.9 93.25 134.15 93.5 134.35 93.8 134.5
L 95.5 135.1
Q 95.75 135.2 95.85 135.35 96 135.5 96 135.75
L 95.95 136.05
Q 95.9 136.2 95.75 136.3
L 95.4 136.45
Q 95.2 136.55 94.95 136.55 94.55 136.55 94.35 136.45
L 93.95 136.3 93.6 136.1
Q 93.5 136 93.35 136
L 93.1 136.05 92.55 136.85 93 137.15 93.55 137.4 94.2 137.6 94.85 137.65
Q 95.5 137.65 96 137.5 96.5 137.3 96.8 137.05 97.15 136.75 97.3 136.35 97.5 135.95 97.5 135.45 97.5 135.05 97.35 134.8 97.2 134.5 97 134.3 96.75 134.1 96.45 133.95
L 94.75 133.35
Q 94.55 133.25 94.4 133.1 94.25 132.95 94.25 132.75 94.25 132.4 94.55 132.2
M 65.65 131.05
Q 65.4 130.85 64.9 130.85 64.35 130.85 63.9 131.15 63.5 131.5 63.2 132.1
L 63.1 131.35
Q 63.05 131.15 62.95 131.05 62.85 130.95 62.6 130.95
L 61.7 130.95 61.7 137.55 63.25 137.55 63.25 133.5 63.5 133 63.8 132.65
Q 63.95 132.5 64.15 132.45 64.35 132.35 64.65 132.35
L 65.3 132.45 65.45 132.4 65.55 132.2 65.65 131.05
M 69.6 128.15
Q 69.35 128.15 69.2 128.25 69.1 128.35 69 128.5
L 68.1 130.05 69.05 130.05 69.3 130 69.55 129.85 71.15 128.15 69.6 128.15
M 80.15 131.8
Q 79.75 132.25 79.55 132.85 79.35 133.45 79.35 134.1 79.35 135 79.6 135.65 79.8 136.3 80.25 136.75 80.7 137.2 81.3 137.4 81.9 137.65 82.55 137.65
L 83.3 137.6 84 137.4
Q 84.35 137.3 84.7 137.1 85.05 136.85 85.3 136.55
L 84.85 136
Q 84.75 135.85 84.55 135.85 84.4 135.85 84.25 135.95
L 83.4 136.35
Q 83.1 136.4 82.7 136.4 82.35 136.4 82 136.3 81.7 136.2 81.45 135.95 81.25 135.7 81.1 135.35 80.95 134.95 80.9 134.45
L 85 134.45
Q 85.2 134.45 85.3 134.3 85.35 134.2 85.35 133.85 85.35 133.1 85.15 132.55 84.95 132 84.55 131.65 84.15 131.25 83.65 131.05 83.1 130.85 82.5 130.85 81.75 130.85 81.15 131.1 80.6 131.35 80.15 131.8
M 83.6 132.45
Q 83.75 132.65 83.85 132.9 83.95 133.2 83.95 133.5
L 80.95 133.5
Q 81.05 132.75 81.45 132.4 81.85 132 82.55 132 82.9 132 83.15 132.1 83.4 132.25 83.6 132.45
M 71.5 133.4
Q 71.5 132.8 71.35 132.35 71.2 131.9 70.85 131.55 70.55 131.2 70.1 131 69.65 130.85 69.05 130.85 67.45 130.85 66.35 131.85
L 66.6 132.4 66.8 132.6
Q 66.9 132.65 67.1 132.65 67.3 132.65 67.45 132.6
L 68.25 132.2
Q 68.5 132.1 68.85 132.1 69.4 132.1 69.7 132.4 69.95 132.7 69.95 133.4
L 69.95 133.75
Q 69.2 133.8 68.65 133.9 68.05 134 67.6 134.1 67.15 134.25 66.85 134.45 66.55 134.65 66.35 134.9 66.2 135.1 66.1 135.35 66 135.6 66 135.85 66 136.3 66.15 136.65 66.3 137 66.55 137.2 66.8 137.45 67.15 137.55 67.5 137.65 67.95 137.65
L 68.6 137.6 69.65 137.15 70.1 136.75 70.25 137.2
Q 70.35 137.4 70.45 137.5 70.55 137.55 70.8 137.55
L 71.5 137.55 71.5 133.4
M 67.65 135.4
Q 67.8 135.2 68.05 135.1 68.35 134.95 68.8 134.85 69.3 134.75 69.95 134.75
L 69.95 135.85
Q 69.65 136.2 69.25 136.4 68.9 136.55 68.4 136.55 68.05 136.55 67.8 136.4 67.55 136.2 67.55 135.8 67.55 135.55 67.65 135.4
M 75.35 130.85
Q 74.8 130.85 74.3 131 73.8 131.15 73.45 131.4 73.1 131.7 72.9 132.1 72.75 132.5 72.75 132.95 72.75 133.6 73 134.05 73.3 134.5 73.8 134.75
L 73.4 135 73.15 135.3 73 135.6 72.95 135.9
Q 72.95 136.25 73.1 136.5 73.25 136.7 73.5 136.85 73 137.05 72.75 137.35 72.45 137.65 72.45 138.15 72.45 138.45 72.65 138.8 72.85 139.1 73.2 139.35 73.55 139.6 74.1 139.75 74.65 139.85 75.4 139.85 76.15 139.85 76.75 139.65 77.35 139.5 77.75 139.15 78.15 138.85 78.4 138.4 78.6 138 78.6 137.6 78.6 137.1 78.4 136.8 78.25 136.5 77.95 136.35 77.65 136.15 77.25 136.1
L 76.45 135.95 75 135.9
Q 74.65 135.85 74.5 135.75 74.3 135.65 74.3 135.45 74.3 135.2 74.6 135.05
L 75 135.1 75.35 135.1
Q 75.9 135.1 76.35 134.95 76.85 134.8 77.2 134.55 77.55 134.25 77.75 133.85 77.95 133.45 77.95 132.95 77.95 132.55 77.8 132.25
L 78.4 132.1
Q 78.7 132.05 78.7 131.75
L 78.7 131.2 76.8 131.2
Q 76.5 131 76.15 130.95 75.75 130.85 75.35 130.85
M 74.45 132.25
Q 74.75 131.95 75.35 131.95 75.95 131.95 76.2 132.25 76.5 132.5 76.5 133 76.5 133.25 76.45 133.45 76.35 133.65 76.2 133.8 76.1 133.95 75.85 134 75.65 134.1 75.35 134.1 75.05 134.1 74.85 134 74.6 133.95 74.45 133.8 74.3 133.65 74.25 133.45 74.2 133.25 74.2 133 74.2 132.5 74.45 132.25
M 76.75 138.5
Q 76.55 138.6 76.2 138.65 75.9 138.75 75.45 138.75
L 74.7 138.7
Q 74.4 138.6 74.2 138.5 74 138.4 73.95 138.25 73.85 138.1 73.85 137.9 73.85 137.65 74 137.45 74.2 137.25 74.45 137.1
L 76.25 137.25 76.7 137.35
Q 76.9 137.4 77 137.55 77.15 137.65 77.15 137.85 77.15 138.05 77.05 138.2 76.95 138.35 76.75 138.5
M 59.15 129.55
Q 58.55 128.95 57.65 128.6 56.8 128.25 55.75 128.25
L 52.2 128.25 52.2 137.55 55.75 137.55
Q 56.8 137.55 57.65 137.2 58.55 136.85 59.15 136.25 59.75 135.65 60.1 134.8 60.45 133.9 60.45 132.9 60.45 131.9 60.1 131.05 59.75 130.15 59.15 129.55
M 55.75 129.65
Q 56.4 129.65 56.95 129.85 57.5 130.1 57.9 130.5 58.25 130.9 58.45 131.55 58.65 132.15 58.65 132.9 58.65 133.65 58.45 134.25 58.25 134.9 57.9 135.3 57.5 135.7 56.95 135.95 56.4 136.2 55.75 136.2
L 53.9 136.2 53.9 129.65 55.75 129.65 Z"/>
</g>
</defs>

<g transform="matrix( 1.07159423828125, 0, 0, 0.802642822265625, -22.3,-16) ">
<use xlink:href="#Layer0_0_FILL"/>
</g>

<g transform="matrix( 1.07159423828125, 0, 0, 1.07159423828125, -22.3,-6.95) ">
<use xlink:href="#Layer0_1_FILL"/>
</g>

<g transform="matrix( 1, 0, 0, 1, -217.45,-176.25) ">
<use xlink:href="#Layer0_2_FILL"/>
</g>

<g transform="matrix( 1, 0, 0, 1, 0,0) ">
<use xlink:href="#Layer0_3_FILL"/>
</g>
</svg>
