
<svg xmlns="http://www.w3.org/2000/svg" version="1.1" xmlns:xlink="http://www.w3.org/1999/xlink" preserveAspectRatio="none" x="0px" y="0px" width="121px" height="122px" viewBox="0 0 121 122">
<defs>
<g id="Layer0_0_MEMBER_0_FILL">
<path fill="#B8BE79" stroke="none" d="
M 21.5 19.95
L 21.5 157.8 159.35 157.8 159.35 19.95 21.5 19.95 Z"/>
</g>

<g id="Layer0_0_MEMBER_1_FILL">
<path fill="#E1C99B" stroke="none" d="
M 21.5 111.85
L 21.5 148.6 159.35 148.6 159.35 111.85 21.5 111.85 Z"/>
</g>

<g id="Layer0_0_MEMBER_2_FILL">
<path fill="#3B3D35" stroke="none" d="
M 339 193
Q 336.4 194.1 335.3 195.8 334.65 196.8 334.6 198.05 334.6 198.4 334.65 198.75 334.8 199.6 335.3 200.2 335.25 199.15 335.7 198.15
L 333.8 214.7
Q 333.2 220.55 333.15 222.2
L 333.1 226.1
Q 333.05 228.45 332.85 230 332.55 232.3 331.55 236.85 330.75 241.4 331 250.5 331 250.9 331.05 251.3 331.15 259.85 330.45 264.1 330.1 266.35 330.05 266.85 329.9 268.45 330.25 269.6 330.8 271.45 332.9 273.35 335.4 275.5 337.6 276.25 339.25 276.9 341.4 277.1 342.7 277.25 345.3 277.3 353.05 277.6 368.55 278.3 381.95 278.55 391.55 276.6 397.65 275.35 398.95 275.2 401.6 274.85 406.95 274.75 408.8 274.65 411.5 274.3 413 274.15 416.05 273.75 426.2 272.65 438.25 273.3 441 273.5 442.55 273.35 444.9 273.1 446.45 272 447.4 271.25 447.75 270.1 447.75 270 447.8 269.9 448.25 269.5 448.65 269 449.35 268.1 449.8 267.05 449.95 266.6 450.1 266.15 450.65 264.1 450.35 259.85
L 447.9 225.35
Q 447.7 221.75 447.25 219.45 446.1 215.6 445.7 213.65 445.2 211.5 444.9 207.1
L 444.4 200.4
Q 444.1 195.7 442.55 193.8 441.4 192.35 439.55 192.1 438.9 192 438.35 192.1 437.65 192.05 436.85 192.05 432.1 192.2 429.75 192.2 426.5 192.2 421.7 191.8 416.35 191.25 413.65 191.05 407.5 190.55 399.1 190.75 389.4 191.05 384.5 191.2 370.95 191.6 351.95 191.4 347.55 191.35 345.35 191.55 341.7 191.85 339 193
M 335.8 197.85
Q 336.1 197.15 336.6 196.5 337.9 194.9 339.85 194.05 342.4 192.95 347.85 192.95 354.2 192.95 366.9 193 378.25 193 385.95 192.75 389.4 192.65 396.3 192.4 402.35 192.25 406.7 192.35 408.05 192.4 423.6 193.4 432.4 193.95 438.6 193.6 438.45 193.4 438.4 193.2 439.65 193.35 440.45 193.85 442.6 195.15 442.9 199.85
L 443.7 209.05
Q 444 213.1 444.5 215.1 444.7 215.9 445.3 217.8 445.9 219.5 446.1 220.45 446.6 222.75 446.7 226.65 447.2 238.25 448 247.8 448.35 252.05 448.8 255.9 449.25 260.05 449.2 262.1 449.1 263.8 448.75 265.25 448.3 266.65 447.6 267.8 447.45 268.05 447.3 268.3 447.25 268.3 447.2 268.25 447.15 268.4 447.15 268.6 446.85 269 446.7 269.25 446.5 269.6 446.4 269.95 446.1 270.25 445.8 270.5 444.8 271.4 443.4 271.75 441.8 272.2 438 272 426.1 271.2 416 272.3 409.9 273.1 406.85 273.3 405.6 273.4 403.05 273.55 400.5 273.65 399.25 273.75 396.25 274.05 390.25 275.25 384.25 276.45 381.2 276.7 377.65 277 370.6 276.8 358.05 276.35 345.2 275.75 341.15 275.55 338.9 274.95 338.65 274.9 338.45 274.8 342.6 275.1 345.05 274.75 345.9 274.65 347.6 274.4
L 350.35 274.35
Q 351.7 274.25 354.1 273.85 354.75 273.7 355.5 273.55 356 273.5 358.1 273.45 359.7 273.4 360.7 273.2 361.05 273.1 361 272.9 358.75 272.8 355.5 272.95
L 352.85 273.2 348.8 273.6
Q 343.75 274.15 340.5 274.2 338.85 274.2 337.35 274.05 336.8 274 336.35 273.95 335 273.2 333.85 272.1 331.6 269.85 331.4 267.1 331.3 265.8 331.95 262.6 332.55 259.35 332.5 254.95 332.45 253.45 332.45 252.15 332.3 249.05 332.25 247.2 332.05 241.4 332.85 237.65 333.85 233.75 334.15 231.8 334.4 230.25 334.45 228.05 334.45 225.55 334.45 224.3 334.5 221.7 335.6 210.85 335.9 207.65 336 204.9 336.15 200.85 335.8 197.85
M 363.4 274.1
Q 361.55 274.25 360.65 274.4 360.3 274.4 360.25 274.65 361.8 274.75 364.25 274.25 364.4 274.25 364.5 274.2 367.75 273.55 368.75 273.45 368.6 273.3 368.3 273.25 368 273.2 367.6 273.25 364.8 273.95 363.4 274.1
M 363.15 267.6
Q 362.05 267.65 360.35 267.9 357.2 268.2 351.9 269 344.5 270.2 340.8 271.25 340.65 271.25 340.65 271.5 345 270.35 353.9 269.05
L 357.45 268.5
Q 358.55 268.35 359.5 268.25 361.85 267.95 362.8 267.9 363.25 267.8 363.15 267.6
M 344.7 265.55
Q 346.0052734375 264.7974609375 347.4 264.1 347.95 263.75 347.85 263.45 347.7 263.05 347.1 263.3 340.65 265.35 335.2 269.15 336.85 268.7 339.9 267.05 342.95 265.35 344.55 264.9 343.65 265.65 342 266.55 341.6 266.75 341.4 267 341.25 267.25 341.25 267.45 341.25 267.65 341.45 267.75 341.55 267.85 341.9 267.85 342.9 267.75 343.7 267.15
L 341.9 267.4
Q 343.15 266.5 344.5 265.7 344.6 265.6375 344.7 265.55
M 338.85 207
Q 338.65 207.7 338.5 208.4 338.2 209.55 337.95 210.75 337.7 211.75 337.5 212.8 335.85 220.85 335.65 229.35 335.65 230.15 335.65 235.3 335.65 238.9 335.55 241.2 335.5 242.35 335.15 245.9
L 335.15 245.95
Q 334.85 248.9 334.8 250.7 334.75 253.15 334.85 258.1 334.85 262.45 334.05 265.3 334.75 264.85 335.05 263.3 335.55 260.85 335.55 257.15 335.55 252.95 335.6 250.85 335.7 249.15 336 245.7 336.15 244.4 336.25 243.4 336.35 241.65 336.4 240.55 336.5 238.85 336.45 236.15 336.45 232.75 336.45 231.75 336.45 220.25 338.85 209 339 208.15 339.2 207.35 339.25 207.05 339.3 206.8 339.35 206.65 339.1 206.75 338.9 206.8 338.85 207
M 380 232.05
L 379.7 233.75
Q 379.7 235.9 379.8 238.05 380 243.15 380.75 248.2 380.85 248.95 381 249.7 381.4 251.9 383.25 253.5 382.4 254.5 382.8 256.1 383.2 257.55 384.6 257.85 388 258.75 391.45 258.3 392.6 258.2 393.1 257.15 394 255.25 394.1 253.45 394.8 253 395.35 252.45 396.75 251.05 397.15 248.9 397.5 247 397.65 245.1 397.8 242.65 397.6 240.1 397.4 237.2 397.35 234.25 397.35 231.8 395.35 231.45 394.1 231.1 393.55 231.9 393.55 232.05 393.5 232.05 392.4 232.05 391.25 231.85 390.7 231.8 390.15 231.75 387.2 231.55 384.25 232.5 383.55 232.8 383.65 232.1
L 380.95 231.55 380 232.05
M 381.2 233.85
L 381.25 232.75 382.35 232.5 383.1 233 382.75 234.2
Q 383 234.2 383.25 234.2 383.95 233.95 384.6 233.7 386.25 233.15 388 233 390.1 232.8 392.3 233.25 393.35 233.45 394.35 233.65
L 394.75 233.1
Q 394.7 233 394.6 232.9 394.55 232.8 394.55 232.7 394.55 232.65 394.6 232.55
L 395.2 232.75
Q 395.4 233.15 395.5 233.5 396 235 395.95 236.6 395.9 237.55 396 238.45 396.4 241.9 396.25 245.35 396.2 246.5 396.05 247.65 395.7 250.95 393.35 252.6 392.95 252.85 392.55 253.05
L 392.95 253.75 384.55 253.8
Q 384.5 253.25 384.25 252.75 383.45 251.2 382.6 249.85 382.35 249.4 382.3 248.85 382.25 248.4 382.2 247.95 381.7 244.45 381.5 240.9 381.4 239 381.3 237.05 381.25 235.45 381.2 233.85
M 392.95 254.3
L 392.3 256.55
Q 390.5 257.55 388.35 257.15 385.65 257.3 383.95 255.55
L 384.35 254.45 392.95 254.3
M 394.3 244.7
Q 394.3 244.9 394.35 245.65 394.35 246.1 394.35 246.8 394.35 249.6 393.35 250.75
L 392.65 251.35
Q 393 251.85 393.75 251.2 394.4 250.5 394.75 249.55 395.05 248.7 394.95 247.25
L 394.95 245.55 394.95 244.55
Q 394.95 243.25 394.65 242.65 394.3 243.5 394.3 244.7
M 382.35 236.4
Q 382.15 237.1 382.15 238.4
L 382.15 244.95
Q 382.15 246.85 382.45 247.75 382.45 247.8 382.5 247.85 383.15 249.35 384.5 249.5 383.55 248.8 383.1 247.75 383.05 247.6 383 247.45 382.8 246.8 382.8 245.4
L 382.75 239.05
Q 382.75 237.2 383.2 236.4 383.85 235.15 386.35 234.25 386.15 234.2 386 234.2 385 234 384 234.5 382.85 235.05 382.4 236.2 382.35 236.3 382.35 236.4
M 398 209.4
Q 397.6 207.2 395.75 205.6 396.6 204.6 396.2 203 395.8 201.55 394.4 201.25 391 200.35 387.55 200.8 386.4 200.9 385.9 201.95 385 203.85 384.9 205.65 384.2 206.1 383.65 206.65 382.25 208.05 381.85 210.2 381.6 211.6 381.45 213.1 381.15 215.95 381.4 219 381.6 221.9 381.65 224.85 381.65 227.3 383.65 227.65 384.9 228 385.45 227.2 385.45 227.05 385.5 227.05 386.6 227.05 387.75 227.25 391.25 227.7 394.75 226.6 395.45 226.3 395.35 227
L 398.05 227.55 399 227.05 399.3 225.35
Q 399.35 220.95 398.95 216.6 398.8 215.05 398.6 213.5 398.55 213.2 398.55 212.9 398.3 211.15 398 209.4
M 396.4 209.25
Q 396.65 209.7 396.7 210.25 396.95 211.85 397.1 213.5 397.1 213.6 397.15 213.75 397.3 215.3 397.4 216.9 397.45 217.55 397.5 218.2 397.7 221.7 397.8 225.25
L 397.75 226.35 396.65 226.6 395.9 226.1 396.25 224.9
Q 396 224.9 395.75 224.9 395.05 225.15 394.4 225.4 390.7 226.65 386.7 225.85 385.65 225.65 384.65 225.45
L 384.25 226
Q 384.3 226.1 384.4 226.2 384.45 226.3 384.45 226.4 384.45 226.45 384.4 226.55
L 383.8 226.35
Q 383.6 225.95 383.5 225.6 383 224.1 383.05 222.5 383.1 221.55 383 220.65 382.55 216.85 382.8 213 382.85 212.25 382.95 211.45 383.3 208.15 385.65 206.5 386.05 206.25 386.45 206.05
L 386.05 205.35 394.45 205.3
Q 394.5 205.85 394.75 206.35 395.55 207.9 396.4 209.25
M 386.7 202.55
Q 388.5 201.55 390.65 201.95 393.35 201.8 395.05 203.55
L 394.65 204.65 386.05 204.8 386.7 202.55
M 396.85 213.5
Q 396.8 212.1 396.55 211.35 395.9 209.75 394.5 209.6 395.6 210.4 396 211.65 396.2 212.25 396.2 213.5 396.2 213.6 396.2 213.7
L 396.2 214.25 396.25 217.15 396.25 220.05
Q 396.25 221.9 395.8 222.7 395.15 223.95 392.65 224.85 393.8 225.2 395 224.6 396.15 224.05 396.6 222.9 396.85 222.2 396.85 220.7
L 396.85 214.15
Q 396.85 214 396.85 213.9 396.85 213.7 396.85 213.5
M 386.35 207.75
Q 386 207.25 385.25 207.9 384.6 208.6 384.25 209.55 383.95 210.4 384.05 211.85
L 384.05 214.55
Q 384.05 215.85 384.35 216.45 384.7 215.6 384.7 214.4 384.7 214.15 384.7 213 384.65 212.7 384.65 212.3 384.65 209.5 385.65 208.35
L 386.35 207.75
M 426.95 260.8
Q 425.45 260.95 423.95 261.1 409.95 262.4 392.65 262.7 382.75 262.9 362.7 262.8 360.5 262.75 358.2 262.75 354.65 262.75 352.85 263.05 352.15 263.15 351.55 263.35 349.5 263.9 348.1 265.1 351.75 264.25 356.65 264.15 357.15 264.15 357.95 264.15 359.85 264.15 363.3 264.2 364.25 264.25 365.3 264.25 369.2 264.35 374.9 264.35 375 264.35 375.15 264.35 381.5 264.3 390.15 264.15 390.35 264.15 390.55 264.15 402.6 263.95 408.9 263.5 419.05 262.75 426.95 260.8
M 407.4 269.15
Q 410.85 268.6 413.25 268.4 416.35 268.15 422.55 268 428.05 267.7 431.65 266.6
L 423.05 266.95
Q 415.95 267.25 412.35 267.6 409.65 267.85 404.85 268.6 399.55 269.45 397.35 269.7 396.4 269.8 384.8 270.85 377.55 271.45 372.85 272.6 372.6 272.65 372.35 272.7
L 390.05 271.2
Q 398.55 270.45 401.5 270 402.1 269.9 402.9 269.85 404.7 269.55 407.4 269.15
M 440.75 267.9
Q 441.3 267.9 441.55 267.65 437.75 267.6 428.1 268.15
L 408.2 269.5
Q 408.2 269.75 408.65 269.75 410.85 269.9 416.25 269.6
L 440.75 267.9
M 412.1 231.9
Q 412.1 232.05 412.05 232.05 410.95 232.05 409.8 231.85 406.3 231.4 402.8 232.5 402.1 232.8 402.2 232.1
L 399.5 231.55 398.55 232.05 398.25 233.75
Q 398.2 239.3 398.85 244.85 399.15 247.3 399.55 249.7 399.95 251.9 401.8 253.5 400.95 254.5 401.35 256.1 401.75 257.55 403.15 257.85 406.55 258.75 410 258.3 411.15 258.2 411.65 257.15 412.55 255.25 412.65 253.45 413.35 253 413.9 252.45 415.3 251.05 415.7 248.9 416.3 245.75 416.25 242.5 416.25 241.3 416.15 240.1 415.95 237.2 415.9 234.25 415.9 231.8 413.9 231.45 412.65 231.1 412.1 231.9
M 413.1 232.7
Q 413.1 232.65 413.15 232.55
L 413.75 232.75
Q 413.95 233.15 414.05 233.5 414.55 235 414.5 236.6 414.45 237.55 414.55 238.45 414.8 240.5 414.85 242.6 414.9 245.1 414.6 247.65 414.25 250.95 411.9 252.6 411.5 252.85 411.1 253.05
L 411.5 253.75 403.1 253.8
Q 403.05 253.25 402.8 252.75 402 251.2 401.15 249.85 400.9 249.4 400.85 248.85 400.55 246.75 400.35 244.6 400.15 242.75 400.05 240.9 399.85 237.4 399.75 233.85
L 399.8 232.75 400.9 232.5 401.65 233 401.3 234.2
Q 401.55 234.2 401.8 234.2 402.5 233.95 403.15 233.7 406.85 232.45 410.85 233.25 411.9 233.45 412.9 233.65
L 413.3 233.1
Q 413.25 233 413.15 232.9 413.1 232.8 413.1 232.7
M 411.5 254.3
L 410.85 256.55
Q 409.05 257.55 406.9 257.15 404.2 257.3 402.5 255.55
L 402.9 254.45 411.5 254.3
M 404.9 234.25
Q 403.75 233.9 402.55 234.5 401.4 235.05 400.95 236.2 400.7 236.9 400.7 238.4
L 400.7 244.55 400.7 244.95
Q 400.7 246.85 401 247.75 401.65 249.35 403.05 249.5 401.95 248.7 401.55 247.45 401.35 246.8 401.35 245.4
L 401.35 244.45 401.3 239.05
Q 401.3 237.2 401.75 236.4 402.4 235.15 404.9 234.25
M 413.5 244.55
Q 413.5 243.35 413.25 242.75 413.25 242.7 413.2 242.65 413.2 242.7 413.15 242.75 412.85 243.6 412.85 244.7 412.85 245 412.9 246.8 412.9 249.6 411.9 250.75
L 411.2 251.35
Q 411.55 251.85 412.3 251.2 412.95 250.5 413.3 249.55 413.6 248.7 413.5 247.25
L 413.5 244.55
M 419.15 232.05
L 418.85 233.75
Q 418.8 238 419.2 242.3 419.5 246 420.15 249.7 420.55 251.9 422.4 253.5 421.55 254.5 421.95 256.1 422.35 257.55 423.75 257.85 427.15 258.75 430.6 258.3 431.75 258.2 432.25 257.15 433 255.55 433.2 254.05 433.25 253.75 433.25 253.45 433.95 253 434.5 252.45 435.1 251.85 435.55 251.05 436.1 250.1 436.3 248.9 436.75 246.4 436.85 243.75 436.9 242 436.75 240.2 436.75 240.15 436.75 240.1 436.55 237.2 436.5 234.25 436.5 232.55 435.55 231.85 435.1 231.55 434.5 231.45 433.25 231.1 432.7 231.9 432.7 232.05 432.65 232.05 431.55 232.05 430.4 231.85 426.9 231.4 423.4 232.5 422.7 232.8 422.8 232.1
L 420.1 231.55 419.15 232.05
M 422.4 234.2
Q 423.1 233.95 423.75 233.7 427.45 232.45 431.45 233.25 432.5 233.45 433.5 233.65
L 433.9 233.1
Q 433.85 233 433.75 232.9 433.7 232.8 433.7 232.7 433.7 232.65 433.75 232.55
L 434.35 232.75
Q 434.55 233.15 434.65 233.5 435.15 235 435.1 236.6 435.05 237.55 435.15 238.45 435.3 239.55 435.35 240.65 435.5 242.6 435.45 244.55 435.35 246.1 435.2 247.65 434.85 250.95 432.5 252.6 432.1 252.85 431.7 253.05
L 432.1 253.75 423.7 253.8
Q 423.65 253.25 423.4 252.75 422.6 251.2 421.75 249.85 421.5 249.4 421.45 248.85 421 245.55 420.75 242.2 420.7 241.55 420.65 240.9 420.45 237.4 420.35 233.85
L 420.4 232.75 421.5 232.5 422.25 233 421.9 234.2
Q 422.15 234.2 422.4 234.2
M 432.1 254.3
L 431.45 256.55
Q 429.65 257.55 427.5 257.15 424.8 257.3 423.1 255.55
L 423.5 254.45 432.1 254.3
M 434.1 244.55
Q 434.1 243.25 433.8 242.65 433.45 243.5 433.45 244.7 433.45 244.9 433.5 245.65 433.5 246.1 433.5 246.8 433.5 249.6 432.5 250.75
L 431.8 251.35
Q 432.15 251.85 432.9 251.2 433.55 250.5 433.9 249.55 434.2 248.7 434.1 247.25
L 434.1 244.55
M 421.55 236.2
Q 421.3 236.9 421.3 238.4
L 421.3 242.15 421.3 244.95
Q 421.3 246.85 421.6 247.75 422.25 249.35 423.65 249.5 422.55 248.7 422.15 247.45 421.95 246.8 421.95 245.4
L 421.95 242.1 421.9 239.05
Q 421.9 237.2 422.35 236.4 423 235.15 425.5 234.25 424.35 233.9 423.15 234.5 422 235.05 421.55 236.2
M 414.7 203
Q 414.3 201.55 412.9 201.25 409.5 200.35 406.05 200.8 404.9 200.9 404.4 201.95 403.5 203.85 403.4 205.65 402.7 206.1 402.15 206.65 400.75 208.05 400.35 210.2 400.2 211.1 400.1 212 400 212.75 399.95 213.5 399.8 214.95 399.8 216.4 399.8 217.7 399.9 219 400.1 221.9 400.15 224.85 400.15 225.7 400.4 226.35 400.85 227.4 402.15 227.65 403.4 228 403.95 227.2 403.95 227.05 404 227.05 405.1 227.05 406.25 227.25 409.75 227.7 413.25 226.6 413.95 226.3 413.85 227
L 416.55 227.55 417.5 227.05 417.8 225.35
Q 417.85 221.05 417.45 216.75 417.25 214.75 417 212.75 417 212.65 417 212.55 416.75 211 416.5 209.4 416.1 207.2 414.25 205.6 414.95 204.75 414.8 203.55 414.75 203.25 414.7 203
M 405.2 202.55
Q 407 201.55 409.15 201.95 411.85 201.8 413.55 203.55
L 413.15 204.65 404.55 204.8 405.2 202.55
M 413.25 206.35
Q 414.05 207.9 414.9 209.25 415.15 209.7 415.2 210.25 415.4 211.55 415.55 212.9 415.8 215.25 415.95 217.65 416 217.9 416 218.2 416.2 221.7 416.3 225.25
L 416.25 226.35 415.15 226.6 414.4 226.1 414.75 224.9
Q 414.5 224.9 414.25 224.9 413.55 225.15 412.9 225.4 409.2 226.65 405.2 225.85 404.15 225.65 403.15 225.45
L 402.75 226
Q 402.8 226.1 402.9 226.2 402.95 226.3 402.95 226.4 402.95 226.45 402.9 226.55
L 402.3 226.35
Q 402.1 225.95 402 225.6 402 225.55 402 225.5 401.5 224.05 401.55 222.5 401.6 221.55 401.5 220.65 401.25 218.4 401.25 216.1 401.2 214.8 401.3 213.5 401.35 212.45 401.45 211.45 401.45 211.3 401.5 211.2 401.9 208.1 404.15 206.5 404.55 206.25 404.95 206.05
L 404.55 205.35 411.7 205.3 412.95 205.3
Q 413 205.85 413.25 206.35
M 403.35 210.1
Q 403.6 209 404.15 208.35
L 404.85 207.75
Q 404.5 207.25 403.75 207.9 403.1 208.6 402.75 209.55 402.6 210 402.55 210.6 402.5 211.15 402.55 211.85
L 402.55 214.55
Q 402.55 215.3 402.65 215.8 402.7 216.2 402.85 216.45 403 216.1 403.1 215.7 403.2 215.1 403.2 214.4 403.2 214.2 403.2 213.45 403.15 213 403.15 212.3 403.15 211.05 403.35 210.1
M 414.7 212.95
Q 414.7 213 414.7 213.05 414.7 213.35 414.7 213.7
L 414.75 218.35 414.75 220.05
Q 414.75 221.9 414.3 222.7 413.65 223.95 411.15 224.85 412.3 225.2 413.5 224.6 414.65 224.05 415.1 222.9 415.35 222.2 415.35 220.7
L 415.35 218 415.35 214.15
Q 415.35 213.45 415.3 212.95
L 415.3 212.9
Q 415.25 211.9 415.05 211.35 414.4 209.75 413 209.6 414.1 210.4 414.5 211.65 414.65 212.1 414.7 212.95
M 433.35 205.6
Q 434.2 204.6 433.8 203 433.4 201.55 432 201.25 428.6 200.35 425.15 200.8 424 200.9 423.5 201.95 422.6 203.85 422.5 205.65 421.8 206.1 421.25 206.65 419.85 208.05 419.45 210.2 419.25 211.15 419.15 212.15 419.1 212.35 419.1 212.6 418.9 214.2 418.9 215.9 418.9 217.4 419 219 419.2 221.9 419.25 224.85 419.25 227.3 421.25 227.65 422.5 228 423.05 227.2 423.05 227.05 423.1 227.05 424.2 227.05 425.35 227.25 428.85 227.7 432.35 226.6 433.05 226.3 432.95 227
L 435.65 227.55 436.6 227.05 436.9 225.35
Q 436.95 218.15 435.85 210.95 435.75 210.2 435.6 209.4 435.2 207.2 433.35 205.6
M 432.65 203.55
L 432.25 204.65 423.65 204.8 424.3 202.55
Q 426.1 201.55 428.25 201.95 430.95 201.8 432.65 203.55
M 434 209.25
Q 434.25 209.7 434.3 210.25 434.35 210.65 434.45 211.1 434.9 214.65 435.1 218.2 435.3 221.7 435.4 225.25
L 435.35 226.35 434.25 226.6 433.5 226.1 433.85 224.9
Q 433.6 224.9 433.35 224.9 432.65 225.15 432 225.4 428.3 226.65 424.3 225.85 423.25 225.65 422.25 225.45
L 421.85 226
Q 421.9 226.1 422 226.2 422.05 226.3 422.05 226.4 422.05 226.45 422 226.55
L 421.4 226.35
Q 421.2 225.95 421.1 225.6 420.6 224.1 420.65 222.5 420.7 221.55 420.6 220.65 420.25 217.85 420.35 215.05 420.35 213.75 420.45 212.45 420.45 212.15 420.5 211.9 420.55 211.65 420.55 211.45 420.9 208.15 423.25 206.5 423.65 206.25 424.05 206.05
L 423.65 205.35 432.05 205.3
Q 432.1 205.85 432.35 206.35 433.15 207.9 434 209.25
M 422.85 207.9
Q 422.2 208.6 421.85 209.55 421.55 210.35 421.65 211.7 421.65 211.75 421.65 211.85
L 421.65 214.25 421.65 214.55
Q 421.65 215.85 421.95 216.45 422.3 215.6 422.3 214.4 422.3 214.25 422.3 213.85 422.3 213.3 422.25 212.3 422.25 211.9 422.3 211.6 422.4 209.35 423.25 208.35
L 423.95 207.75
Q 423.6 207.25 422.85 207.9
M 434.45 220.7
L 434.45 214.15
Q 434.45 212.25 434.15 211.35 434.1 211.25 434.05 211.15 433.4 209.75 432.1 209.6 433 210.25 433.45 211.2 433.55 211.4 433.6 211.65 433.8 212.3 433.8 213.7
L 433.85 220.05
Q 433.85 221.9 433.4 222.7 432.75 223.95 430.25 224.85 431.4 225.2 432.6 224.6 433.75 224.05 434.2 222.9 434.45 222.2 434.45 220.7
M 429.7 197.45
Q 428.2 197.05 427.45 197.2 428.4 198.3 429.9 198.65 431.45 198.95 432.75 198.4 433.9 197.85 434.35 197.95 434.75 198 435.25 198.45 435.9 198.95 436.15 199.05 436.5 199.2 437.55 199.2 438.4 199.15 438.75 199.5 439.2 199.9 439.2 201.1 439.2 206.4 441 218.05 442.75 229 442.45 235 442.4 236.2 442.25 238.6 442.2 239.8 442.3 240.8 442.35 241.55 442.5 242.2 442.6 242.65 442.8 243.45 442.95 243.85 443.1 244.4 443.55 245.85 443.7 246.6 444.05 248.15 444.1 250.8 444.2 254.05 444.3 255 444.35 255.25 444.65 257.4 444.85 258.85 444.8 259.8 444.75 262.2 443.1 266.1 442.85 266.65 442.6 267.25 443.65 266.7 444.4 265.75 444.9 265.15 445.25 264.35 446.1 262.55 446.2 260.35 446.25 258.8 445.9 256.3 445.5 253.2 445.45 252.25 445.4 250.3 445.35 249.35 445.3 247.6 445.1 246.45 445.05 246.05 444.9 245.55 444.75 244.95 444.5 244.1 444.05 242.5 443.9 241.75 443.8 240.95 443.75 240.05 443.65 239.4 443.65 238.7 443.7 236.65 443.7 235.6 443.95 227.8 441.9 215.6 441 210.2 440.85 208.7 440.3 204.85 440.35 201.8 440.35 198.7 438.9 198.2 438.55 198.05 437.85 198.05 437.15 198.05 436.8 197.95 436.4 197.85 435.55 197.25 434.75 196.75 434.25 196.75 433.75 196.7 433.1 197.1 432.2 197.65 431.95 197.7 431.2 197.9 429.7 197.45
M 361 265.75
Q 361.1 265.65 361 265.6
L 352.8 266.8
Q 347.35 267.7 338.2 270.35 337.8 270.5 337.95 270.7 339.5 270.45 341.65 269.85
L 344 269.15
Q 347.25 268.2 352.35 267.3
L 360.8 265.85
Q 360.9 265.85 361 265.75
M 343.35 231.55
L 342.4 232.05 342.1 233.75
Q 342.05 241.75 343.4 249.7 343.8 251.9 345.65 253.5 344.8 254.5 345.2 256.1 345.6 257.55 347 257.85 350.4 258.75 353.85 258.3 355 258.2 355.5 257.15 356.4 255.25 356.5 253.45 357.2 253 357.75 252.45 359.15 251.05 359.55 248.9 360.35 244.65 360 240.1 359.8 237.2 359.75 234.25 359.75 231.8 357.75 231.45 356.5 231.1 355.95 231.9 355.95 232.05 355.9 232.05 354.8 232.05 353.65 231.85 350.15 231.4 346.65 232.5 345.95 232.8 346.05 232.1
L 343.35 231.55
M 343.6 233.85
L 343.65 232.75 344.75 232.5 345.5 233 345.15 234.2
Q 345.4 234.2 345.65 234.2 346.35 233.95 347 233.7 350.7 232.45 354.7 233.25 355.75 233.45 356.75 233.65
L 357.15 233.1
Q 357.1 233 357 232.9 356.95 232.8 356.95 232.7 356.95 232.65 357 232.55
L 357.6 232.75
Q 357.8 233.15 357.9 233.5 358.4 235 358.35 236.6 358.3 237.55 358.4 238.45 358.95 243.05 358.45 247.65 358.1 250.95 355.75 252.6 355.35 252.85 354.95 253.05
L 355.35 253.75 346.95 253.8
Q 346.9 253.25 346.65 252.75 345.85 251.2 345 249.85 344.75 249.4 344.7 248.85 344.15 244.9 343.9 240.9 343.7 237.4 343.6 233.85
M 355.35 254.3
L 354.7 256.55
Q 352.9 257.55 350.75 257.15 348.05 257.3 346.35 255.55
L 346.75 254.45 355.35 254.3
M 357.35 244.55
Q 357.35 243.25 357.05 242.65 356.7 243.5 356.7 244.7 356.7 245 356.75 246.8 356.75 249.6 355.75 250.75
L 355.05 251.35
Q 355.4 251.85 356.15 251.2 356.8 250.5 357.15 249.55 357.45 248.7 357.35 247.25
L 357.35 244.55
M 348.75 234.25
Q 347.6 233.9 346.4 234.5 345.25 235.05 344.8 236.2 344.55 236.9 344.55 238.4
L 344.55 244.95
Q 344.55 246.85 344.85 247.75 345.5 249.35 346.9 249.5 345.8 248.7 345.4 247.45 345.2 246.8 345.2 245.4
L 345.15 239.05
Q 345.15 237.2 345.6 236.4 346.25 235.15 348.75 234.25
M 357.05 203
Q 356.65 201.55 355.25 201.25 351.85 200.35 348.4 200.8 347.25 200.9 346.75 201.95 345.85 203.85 345.75 205.65 345.05 206.1 344.5 206.65 343.9 207.25 343.45 208.05 342.9 209 342.7 210.2 342.55 210.95 342.45 211.7 341.95 215.25 342.25 219 342.45 221.9 342.5 224.85 342.5 226.55 343.45 227.25 343.9 227.55 344.5 227.65 345.75 228 346.3 227.2 346.3 227.05 346.35 227.05 347.45 227.05 348.6 227.25 352.1 227.7 355.6 226.6 356.3 226.3 356.2 227
L 358.9 227.55 359.85 227.05 360.15 225.35
Q 360.2 221.35 359.85 217.35 359.5 213.35 358.85 209.4 358.45 207.2 356.6 205.6 357.45 204.6 357.05 203
M 355.9 203.55
L 355.5 204.65 346.9 204.8 347.55 202.55
Q 349.35 201.55 351.5 201.95 354.2 201.8 355.9 203.55
M 357.25 209.25
Q 357.5 209.7 357.55 210.25 358 213.65 358.3 217.1 358.3 217.65 358.35 218.2 358.55 221.7 358.65 225.25
L 358.6 226.35 357.5 226.6 356.75 226.1 357.1 224.9
Q 356.85 224.9 356.6 224.9 355.9 225.15 355.25 225.4 351.55 226.65 347.55 225.85 346.5 225.65 345.5 225.45
L 345.1 226
Q 345.15 226.1 345.25 226.2 345.3 226.3 345.3 226.4 345.3 226.45 345.25 226.55
L 344.65 226.35
Q 344.45 225.95 344.35 225.6 343.85 224.1 343.9 222.5 343.95 221.55 343.85 220.65 343.3 216.05 343.8 211.45 343.85 210.85 344 210.3 344.6 207.85 346.5 206.5 346.9 206.25 347.3 206.05
L 346.9 205.35 355.3 205.3
Q 355.35 205.85 355.6 206.35 356.4 207.9 357.25 209.25
M 356.85 211.65
Q 357.05 212.3 357.05 213.7
L 357.1 220.05
Q 357.1 221.9 356.65 222.7 356 223.95 353.5 224.85 354.65 225.2 355.85 224.6 357 224.05 357.45 222.9 357.7 222.2 357.7 220.7
L 357.7 214.15
Q 357.7 212.25 357.4 211.35 356.75 209.75 355.35 209.6 356.45 210.4 356.85 211.65
M 346.5 208.35
L 347.2 207.75
Q 346.85 207.25 346.1 207.9 345.45 208.6 345.1 209.55 345.05 209.7 345 209.9 344.8 210.65 344.9 211.85
L 344.9 214.55
Q 344.9 215.85 345.2 216.45 345.55 215.6 345.55 214.4 345.55 214.1 345.5 212.3 345.5 211.45 345.6 210.75 345.8 209.15 346.5 208.35
M 376.85 231.45
Q 375.6 231.1 375.05 231.9 375.05 232.05 375 232.05 373.9 232.05 372.75 231.85 369.25 231.4 365.75 232.5 365.05 232.8 365.15 232.1
L 362.45 231.55 361.5 232.05 361.2 233.75
Q 361.15 241.75 362.5 249.7 362.55 249.95 362.6 250.2 362.85 251.05 363.3 251.8 363.85 252.7 364.75 253.5 363.9 254.5 364.3 256.1 364.7 257.55 366.1 257.85 369.5 258.75 372.95 258.3 374.1 258.2 374.6 257.15 375.5 255.25 375.6 253.45 376.3 253 376.85 252.45 378.25 251.05 378.65 248.9 378.7 248.75 378.7 248.6 379.45 244.5 379.1 240.1 379.05 239.35 379 238.55 378.9 236.4 378.85 234.25 378.85 231.8 376.85 231.45
M 376.7 232.75
Q 376.9 233.15 377 233.5 377.5 235 377.45 236.6 377.4 237.55 377.5 238.45 377.55 238.95 377.6 239.5 378 243.55 377.55 247.65 377.5 248.3 377.35 248.9 376.75 251.25 374.85 252.6 374.45 252.85 374.05 253.05
L 374.45 253.75 366.05 253.8
Q 366 253.25 365.75 252.75 365.4 252.05 365.05 251.45 364.55 250.6 364.1 249.85 363.95 249.6 363.9 249.3 363.8 249.1 363.8 248.85 363.25 244.9 363 240.9 362.8 237.4 362.7 233.85
L 362.75 232.75 363.85 232.5 364.6 233 364.25 234.2
Q 364.5 234.2 364.75 234.2 365.45 233.95 366.1 233.7 369.8 232.45 373.8 233.25 374.85 233.45 375.85 233.65
L 376.25 233.1
Q 376.2 233 376.1 232.9 376.05 232.8 376.05 232.7 376.05 232.65 376.1 232.55
L 376.7 232.75
M 365.45 255.55
L 365.85 254.45 374.45 254.3 373.8 256.55
Q 372 257.55 369.85 257.15 367.15 257.3 365.45 255.55
M 375.8 244.7
Q 375.8 245 375.85 246.8 375.85 248.25 375.6 249.25 375.35 250.2 374.85 250.75
L 374.15 251.35
Q 374.5 251.85 375.25 251.2 375.9 250.5 376.25 249.55 376.35 249.35 376.4 249.1 376.5 248.3 376.45 247.25
L 376.45 244.55
Q 376.45 243.25 376.15 242.65 375.8 243.5 375.8 244.7
M 367.85 234.25
Q 366.7 233.9 365.5 234.5 364.35 235.05 363.9 236.2 363.65 236.9 363.65 238.4
L 363.65 244.95
Q 363.65 246.85 363.95 247.75 364.2 248.4 364.6 248.8 365.15 249.4 366 249.5 365.4 249.05 365 248.5 364.7 248 364.5 247.45 364.3 246.8 364.3 245.4
L 364.25 239.05
Q 364.25 237.2 364.7 236.4 365.35 235.15 367.85 234.25
M 377.65 203
Q 377.25 201.55 375.85 201.25 372.45 200.35 369 200.8 367.85 200.9 367.35 201.95 366.45 203.85 366.35 205.65 365.65 206.1 365.1 206.65 363.7 208.05 363.3 210.2 362.65 213.75 362.8 217.5 362.8 218.25 362.85 219 363.05 221.9 363.1 224.85 363.1 227.3 365.1 227.65 366.35 228 366.9 227.2 366.9 227.05 366.95 227.05 368.05 227.05 369.2 227.25 372.7 227.7 376.2 226.6 376.9 226.3 376.8 227
L 379.5 227.55 380.45 227.05 380.75 225.35
Q 380.8 219.25 380.05 213.2 379.75 211.3 379.45 209.4 379.05 207.2 377.2 205.6 378.05 204.6 377.65 203
M 375.9 205.3
Q 375.95 205.85 376.2 206.35 377 207.9 377.85 209.25 378.1 209.7 378.15 210.25 378.35 211.8 378.55 213.35 378.8 215.75 378.95 218.2 379.15 221.7 379.25 225.25
L 379.2 226.35 378.1 226.6 377.35 226.1 377.7 224.9
Q 377.45 224.9 377.2 224.9 376.5 225.15 375.85 225.4 372.15 226.65 368.15 225.85 367.1 225.65 366.1 225.45
L 365.7 226
Q 365.75 226.1 365.85 226.2 365.9 226.3 365.9 226.4 365.9 226.45 365.85 226.55
L 365.25 226.35
Q 365.05 225.95 364.95 225.6 364.45 224.1 364.5 222.5 364.55 221.55 364.45 220.65 364.25 219 364.2 217.35 364.1 214.4 364.4 211.45 364.75 208.15 367.1 206.5 367.5 206.25 367.9 206.05
L 367.5 205.35 375.9 205.3
M 376.5 203.55
L 376.1 204.65 367.5 204.8 368.15 202.55
Q 369.95 201.55 372.1 201.95 374.8 201.8 376.5 203.55
M 378.3 213.4
Q 378.25 212.05 378 211.35 377.35 209.75 375.95 209.6 377.05 210.4 377.45 211.65 377.65 212.25 377.65 213.5 377.65 213.6 377.65 213.7
L 377.7 220.05
Q 377.7 221.9 377.25 222.7 376.6 223.95 374.1 224.85 375.25 225.2 376.45 224.6 377.6 224.05 378.05 222.9 378.3 222.2 378.3 220.7
L 378.3 214.15
Q 378.3 213.75 378.3 213.4
M 367.1 208.35
L 367.8 207.75
Q 367.45 207.25 366.7 207.9 366.05 208.6 365.7 209.55 365.4 210.4 365.5 211.85
L 365.5 214.55
Q 365.5 215.85 365.8 216.45 366.15 215.6 366.15 214.4 366.15 214.1 366.1 212.3 366.1 209.5 367.1 208.35
M 387.1 195.6
Q 390.5 195.9 399.25 195.9 406.95 195.9 411.35 196.45 413.5 196.75 417.8 197.45 421.5 197.9 424.2 197.4 424.7 197.3 424.85 197.1 421.45 197.05 415.5 196.25 408.9 195.35 406.1 195.2
L 390.15 195.15
Q 387.9 195.25 387.1 195.6
M 340.4 197.3
Q 340.95 196.95 342.25 196.85 346.05 196.7 361.7 196.8 373.6 196.9 381 195.95 380.8 195.45 379.8 195.45 348.8 195.45 342.55 195.5 340.55 195.5 339.7 196.2 338.65 197.15 338.75 199.3 338.75 200.1 339.15 200.5 339.4 200.7 339.75 200.65 340.1 200.6 340.15 200.3 339.5 199.7 339.6 198.75 339.65 197.8 340.4 197.3 Z"/>

<path fill="#7097A8" stroke="none" d="
M 336.55 242.6
Q 336.4 243 336.25 243.4 336.15 244.4 336 245.7 335.7 249.15 335.6 250.85 335.55 252.95 335.55 257.15 335.55 260.85 335.05 263.3 334.75 264.85 334.05 265.3 334.85 262.45 334.85 258.1 334.75 253.15 334.8 250.7 334.85 248.9 335.15 245.95
L 335.15 245.9
Q 332.8 251.4 332.45 252.15 332.45 253.45 332.5 254.95 332.55 259.35 331.95 262.6 331.3 265.8 331.4 267.1 331.6 269.85 333.85 272.1 335 273.2 336.35 273.95 336.8 274 337.35 274.05 338.85 274.2 340.5 274.2 343.75 274.15 348.8 273.6
L 352.85 273.2
Q 350.45 272.1 349.5 271.75 356 269.65 359.5 268.25 358.55 268.35 357.45 268.5
L 353.9 269.05
Q 345 270.35 340.65 271.5 340.65 271.25 340.8 271.25 344.5 270.2 351.9 269 357.2 268.2 360.35 267.9 362.2 267.1 362.9 266.55
L 360.55 266.55
Q 352.55 268.5 348.65 269.35 341.85 270.8 338.1 270.8
L 335.45 270.8
Q 335.65 270.79609375 335.65 270.55 338.95 268.7 341.25 267.45 341.25 267.25 341.4 267 341.6 266.75 342 266.55 343.65 265.65 344.55 264.9 342.95 265.35 339.9 267.05 336.85 268.7 335.2 269.15 340.65 265.35 347.1 263.3 347.7 263.05 347.85 263.45 347.95 263.75 347.4 264.1 346.0052734375 264.7974609375 344.7 265.55 344.9875 265.4125 345.25 265.3 349.3 263.3 351.05 263.3
L 351.55 263.35
Q 352.15 263.15 352.85 263.05 354.65 262.75 358.2 262.75 360.5 262.75 362.7 262.8 365.35 262.05 369.25 261
L 369 261
Q 348.6 259.9 342 259.3 337.65 258.95 337.05 255.25 337 248.6 336.8 242.6
L 336.55 242.6
M 442.35 266.35
Q 438.65 267.5 436.65 267.5 434.5 267.5 410.8 269.15 407.55 269.4 402.9 269.85 402.1 269.9 401.5 270 398.55 270.45 390.05 271.2
L 372.35 272.7
Q 372.6 272.65 372.85 272.6 372.1 272.7 371.35 272.8 369.35 273.1 368.3 273.25 368.6 273.3 368.75 273.45 367.75 273.55 364.5 274.2 364.4 274.25 364.25 274.25 363.9 274.35 363.5 274.5 360.55 275.5 358.8 275.5 357.35 275.5 354.6 274.1 354.35 273.95 354.1 273.85 351.7 274.25 350.35 274.35
L 347.6 274.4
Q 345.9 274.65 345.05 274.75 342.6 275.1 338.45 274.8 338.65 274.9 338.9 274.95 341.15 275.55 345.2 275.75 358.05 276.35 370.6 276.8 377.65 277 381.2 276.7 384.25 276.45 390.25 275.25 396.25 274.05 399.25 273.75 400.5 273.65 403.05 273.55 405.6 273.4 406.85 273.3 409.9 273.1 416 272.3 426.1 271.2 438 272 441.8 272.2 443.4 271.75 444.8 271.4 445.8 270.5 446.1 270.25 446.4 269.95 446.5 269.6 446.7 269.25 446.85 269 447.15 268.6 447.15 268.4 447.2 268.25 447.25 268.3 447.3 268.3 447.45 268.05 447.6 267.8 448.3 266.65 448.75 265.25 448.55 265.15 448.4 265.15 446.7 265.15 444.4 265.75 443.65 266.7 442.6 267.25 442.85 266.65 443.1 266.1 442.75 266.2 442.35 266.35
M 441.55 267.65
Q 441.3 267.9 440.75 267.9
L 416.25 269.6
Q 410.85 269.9 408.65 269.75 408.2 269.75 408.2 269.5
L 428.1 268.15
Q 437.75 267.6 441.55 267.65 Z"/>

<path fill="#ABD1DC" stroke="none" d="
M 336.35 204.4
Q 336.15 204.65 336 204.9 335.9 207.65 335.6 210.85 334.5 221.7 334.45 224.3 334.45 225.55 334.45 228.05 334.4 230.25 334.15 231.8 333.85 233.75 332.85 237.65 332.05 241.4 332.25 247.2 332.3 249.05 332.45 252.15 332.8 251.4 335.15 245.9 335.5 242.35 335.55 241.2 335.65 238.9 335.65 235.3 335.65 230.15 335.65 229.35 335.85 220.85 337.5 212.8 337.7 211.75 337.95 210.75 337.8 210.95 337.7 211.15 337.25 211.9 337.05 212.1
L 337.05 210.75
Q 337.6 208.55 338.05 206.5 338.9 202.6 338.9 200.6 338.4 201.45 336.35 204.4
M 444.9 245.55
Q 445.05 246.05 445.1 246.45 445.3 247.6 445.35 249.35 445.4 250.3 445.45 252.25 445.5 253.2 445.9 256.3 446.25 258.8 446.2 260.35 446.1 262.55 445.25 264.35 444.9 265.15 444.4 265.75 446.7 265.15 448.4 265.15 448.55 265.15 448.75 265.25 449.1 263.8 449.2 262.1 449.25 260.05 448.8 255.9 448.35 252.05 448 247.8 447.05 247 445.9 246.25 445.35 245.85 444.9 245.55
M 418.9 215.9
Q 418.9 214.2 419.1 212.6 419.1 212.35 419.15 212.15 418.15 212.3 417 212.55 417 212.65 417 212.75 417.25 214.75 417.45 216.75 418.2 216.3 418.9 215.9
M 403.65 197.3
Q 388.45 196.6 381.8 196.6 375.85 196.6 362.4 197.35 349.05 198.05 346.25 198.5 344 198.8 340.75 205 340.35 205.8 340.05 206.5 339.35 207.95 338.85 209 336.45 220.25 336.45 231.75 336.45 232.75 336.45 236.15 336.5 238.85 336.4 240.55 336.35 241.65 336.25 243.4 336.4 243 336.55 242.6
L 336.8 242.6
Q 337 248.6 337.05 255.25 337.65 258.95 342 259.3 348.6 259.9 369 261
L 369.25 261
Q 365.35 262.05 362.7 262.8 382.75 262.9 392.65 262.7 409.95 262.4 423.95 261.1 425.45 260.95 426.95 260.8 419.05 262.75 408.9 263.5 402.6 263.95 390.55 264.15 390.35 264.15 390.15 264.15 381.5 264.3 375.15 264.35 375 264.35 374.9 264.35 369.2 264.35 365.3 264.25 364.25 264.25 363.3 264.2 359.85 264.15 357.95 264.15 357.15 264.15 356.65 264.15 351.75 264.25 348.1 265.1 349.5 263.9 351.55 263.35
L 351.05 263.3
Q 349.3 263.3 345.25 265.3 344.9875 265.4125 344.7 265.55 344.6 265.6375 344.5 265.7 343.15 266.5 341.9 267.4
L 343.7 267.15
Q 342.9 267.75 341.9 267.85 341.55 267.85 341.45 267.75 341.25 267.65 341.25 267.45 338.95 268.7 335.65 270.55 335.65 270.79609375 335.45 270.8
L 338.1 270.8
Q 341.85 270.8 348.65 269.35 352.55 268.5 360.55 266.55
L 362.9 266.55
Q 362.2 267.1 360.35 267.9 362.05 267.65 363.15 267.6 363.25 267.8 362.8 267.9 361.85 267.95 359.5 268.25 356 269.65 349.5 271.75 350.45 272.1 352.85 273.2
L 355.5 272.95
Q 358.75 272.8 361 272.9 361.05 273.1 360.7 273.2 359.7 273.4 358.1 273.45 356 273.5 355.5 273.55 354.75 273.7 354.1 273.85 354.35 273.95 354.6 274.1 357.35 275.5 358.8 275.5 360.55 275.5 363.5 274.5 363.9 274.35 364.25 274.25 361.8 274.75 360.25 274.65 360.3 274.4 360.65 274.4 361.55 274.25 363.4 274.1 364.8 273.95 367.6 273.25 368 273.2 368.3 273.25 369.35 273.1 371.35 272.8 372.1 272.7 372.85 272.6 377.55 271.45 384.8 270.85 396.4 269.8 397.35 269.7 399.55 269.45 404.85 268.6 409.65 267.85 412.35 267.6 415.95 267.25 423.05 266.95
L 431.65 266.6
Q 428.05 267.7 422.55 268 416.35 268.15 413.25 268.4 410.85 268.6 407.4 269.15 404.7 269.55 402.9 269.85 407.55 269.4 410.8 269.15 434.5 267.5 436.65 267.5 438.65 267.5 442.35 266.35 442.75 266.2 443.1 266.1 444.75 262.2 444.8 259.8 444.85 258.85 444.65 257.4 444.35 255.25 444.3 255 444.2 254.05 444.1 250.8 444.05 248.15 443.7 246.6 443.55 245.85 443.1 244.4 442.95 243.85 442.8 243.45 442.05 242.2 441.65 241.15
L 441.6 241.1
Q 441 239.55 440.65 237.5 438.9 238.25 438 239.15 437.35 239.85 436.75 240.2 436.9 242 436.85 243.75 436.75 246.4 436.3 248.9 436.1 250.1 435.55 251.05 435.1 251.85 434.5 252.45 433.95 253 433.25 253.45 433.25 253.75 433.2 254.05 433 255.55 432.25 257.15 431.75 258.2 430.6 258.3 427.15 258.75 423.75 257.85 422.35 257.55 421.95 256.1 421.55 254.5 422.4 253.5 420.55 251.9 420.15 249.7 419.5 246 419.2 242.3 418.2 242.35 417.15 242.4 416.7 242.45 416.25 242.5 416.3 245.75 415.7 248.9 415.3 251.05 413.9 252.45 413.35 253 412.65 253.45 412.55 255.25 411.65 257.15 411.15 258.2 410 258.3 406.55 258.75 403.15 257.85 401.75 257.55 401.35 256.1 400.95 254.5 401.8 253.5 399.95 251.9 399.55 249.7 399.15 247.3 398.85 244.85 398.25 244.95 397.65 245.1 397.5 247 397.15 248.9 396.75 251.05 395.35 252.45 394.8 253 394.1 253.45 394 255.25 393.1 257.15 392.6 258.2 391.45 258.3 388 258.75 384.6 257.85 383.2 257.55 382.8 256.1 382.4 254.5 383.25 253.5 381.4 251.9 381 249.7 380.85 248.95 380.75 248.2 380 243.15 379.8 238.05 379.7 235.9 379.7 233.75
L 380 232.05 380.95 231.55 383.65 232.1
Q 383.55 232.8 384.25 232.5 387.2 231.55 390.15 231.75 392.5 230.45 394.8 229.25 397.6 227.8 400.4 226.35 400.15 225.7 400.15 224.85 400.1 221.9 399.9 219 399.8 217.7 399.8 216.4 399.35 216.5 398.95 216.6 399.35 220.95 399.3 225.35
L 399 227.05 398.05 227.55 395.35 227
Q 395.45 226.3 394.75 226.6 391.25 227.7 387.75 227.25 386.6 227.05 385.5 227.05 385.45 227.05 385.45 227.2 384.9 228 383.65 227.65 381.65 227.3 381.65 224.85 381.6 221.9 381.4 219 381.15 215.95 381.45 213.1 381.6 211.6 381.85 210.2 382.25 208.05 383.65 206.65 384.2 206.1 384.9 205.65 385 203.85 385.9 201.95 386.4 200.9 387.55 200.8 391 200.35 394.4 201.25 395.8 201.55 396.2 203 396.6 204.6 395.75 205.6 397.6 207.2 398 209.4 398.3 211.15 398.55 212.9 399.25 212.45 400.1 212 400.2 211.1 400.35 210.2 400.75 208.05 402.15 206.65 402.7 206.1 403.4 205.65 403.5 203.85 404.4 201.95 404.9 200.9 406.05 200.8 409.5 200.35 412.9 201.25 414.3 201.55 414.7 203 414.75 203.25 414.8 203.55 419.05 201.1 424 198.25 423.85 198.25 423.8 198.15
L 423.75 198
Q 418.85 198 403.65 197.3
M 375.85 201.25
Q 377.25 201.55 377.65 203 378.05 204.6 377.2 205.6 379.05 207.2 379.45 209.4 379.75 211.3 380.05 213.2 380.8 219.25 380.75 225.35
L 380.45 227.05 379.5 227.55 376.8 227
Q 376.9 226.3 376.2 226.6 372.7 227.7 369.2 227.25 368.05 227.05 366.95 227.05 366.9 227.05 366.9 227.2 366.35 228 365.1 227.65 363.1 227.3 363.1 224.85 363.05 221.9 362.85 219 362.8 218.25 362.8 217.5 362.65 213.75 363.3 210.2 363.7 208.05 365.1 206.65 365.65 206.1 366.35 205.65 366.45 203.85 367.35 201.95 367.85 200.9 369 200.8 372.45 200.35 375.85 201.25
M 375.05 231.9
Q 375.6 231.1 376.85 231.45 378.85 231.8 378.85 234.25 378.9 236.4 379 238.55 379.05 239.35 379.1 240.1 379.45 244.5 378.7 248.6 378.7 248.75 378.65 248.9 378.25 251.05 376.85 252.45 376.3 253 375.6 253.45 375.5 255.25 374.6 257.15 374.1 258.2 372.95 258.3 369.5 258.75 366.1 257.85 364.7 257.55 364.3 256.1 363.9 254.5 364.75 253.5 363.85 252.7 363.3 251.8 361.05 252.25 358.9 252.75 359.1 252.5 359.6 252.25 360.7 251.55 362.6 250.2 362.55 249.95 362.5 249.7 361.15 241.75 361.2 233.75
L 361.5 232.05 362.45 231.55 365.15 232.1
Q 365.05 232.8 365.75 232.5 369.25 231.4 372.75 231.85 373.9 232.05 375 232.05 375.05 232.05 375.05 231.9
M 355.25 201.25
Q 356.65 201.55 357.05 203 357.45 204.6 356.6 205.6 358.45 207.2 358.85 209.4 359.5 213.35 359.85 217.35 360.2 221.35 360.15 225.35
L 359.85 227.05 358.9 227.55 356.2 227
Q 356.3 226.3 355.6 226.6 352.1 227.7 348.6 227.25 347.45 227.05 346.35 227.05 346.3 227.05 346.3 227.2 345.75 228 344.5 227.65 343.9 227.55 343.45 227.25 342.5 226.55 342.5 224.85 342.45 221.9 342.25 219 341.95 215.25 342.45 211.7 342.55 210.95 342.7 210.2 342.9 209 343.45 208.05 343.9 207.25 344.5 206.65 345.05 206.1 345.75 205.65 345.85 203.85 346.75 201.95 347.25 200.9 348.4 200.8 351.85 200.35 355.25 201.25
M 342.4 232.05
L 343.35 231.55 346.05 232.1
Q 345.95 232.8 346.65 232.5 350.15 231.4 353.65 231.85 354.8 232.05 355.9 232.05 355.95 232.05 355.95 231.9 356.5 231.1 357.75 231.45 359.75 231.8 359.75 234.25 359.8 237.2 360 240.1 360.35 244.65 359.55 248.9 359.15 251.05 357.75 252.45 357.2 253 356.5 253.45 356.4 255.25 355.5 257.15 355 258.2 353.85 258.3 350.4 258.75 347 257.85 345.6 257.55 345.2 256.1 344.8 254.5 345.65 253.5 343.8 251.9 343.4 249.7 342.05 241.75 342.1 233.75
L 342.4 232.05
M 361 265.6
Q 361.1 265.65 361 265.75 360.9 265.85 360.8 265.85
L 352.35 267.3
Q 347.25 268.2 344 269.15
L 341.65 269.85
Q 339.5 270.45 337.95 270.7 337.8 270.5 338.2 270.35 347.35 267.7 352.8 266.8
L 361 265.6 Z"/>

<path fill="#F6F5F1" stroke="none" d="
M 392.3 256.55
L 392.95 254.3 384.35 254.45 383.95 255.55
Q 385.65 257.3 388.35 257.15 390.5 257.55 392.3 256.55
M 381.25 232.75
L 381.2 233.85
Q 381.25 235.45 381.3 237.05 381.4 239 381.5 240.9 381.7 244.45 382.2 247.95 382.25 248.4 382.3 248.85 382.35 249.4 382.6 249.85 383.45 251.2 384.25 252.75 384.5 253.25 384.55 253.8
L 392.95 253.75 392.55 253.05
Q 392.95 252.85 393.35 252.6 395.7 250.95 396.05 247.65 396.2 246.5 396.25 245.35 395.6 245.45 394.95 245.55
L 394.95 247.25
Q 395.05 248.7 394.75 249.55 394.4 250.5 393.75 251.2 393 251.85 392.65 251.35
L 393.35 250.75
Q 394.35 249.6 394.35 246.8 394.35 246.1 394.35 245.65 390.85 246.25 387 247 385.05 247.35 383.1 247.75 383.55 248.8 384.5 249.5 383.15 249.35 382.5 247.85 382.45 247.8 382.45 247.75 382.15 246.85 382.15 244.95
L 382.15 238.4
Q 382.15 237.1 382.35 236.4 382.35 236.3 382.4 236.2 382.85 235.05 384 234.5 385 234 386 234.2 387 233.55 388 233 386.25 233.15 384.6 233.7 383.95 233.95 383.25 234.2 383 234.2 382.75 234.2
L 383.1 233 382.35 232.5 381.25 232.75
M 390.65 201.95
Q 388.5 201.55 386.7 202.55
L 386.05 204.8 394.65 204.65 395.05 203.55
Q 393.35 201.8 390.65 201.95
M 396.7 210.25
Q 396.65 209.7 396.4 209.25 395.55 207.9 394.75 206.35 394.5 205.85 394.45 205.3
L 386.05 205.35 386.45 206.05
Q 386.05 206.25 385.65 206.5 383.3 208.15 382.95 211.45 382.85 212.25 382.8 213 382.55 216.85 383 220.65 383.1 221.55 383.05 222.5 383 224.1 383.5 225.6 383.6 225.95 383.8 226.35
L 384.4 226.55
Q 384.45 226.45 384.45 226.4 384.45 226.3 384.4 226.2 384.3 226.1 384.25 226
L 384.65 225.45
Q 385.65 225.65 386.7 225.85 390.7 226.65 394.4 225.4 395.05 225.15 395.75 224.9 396 224.9 396.25 224.9
L 395.9 226.1 396.65 226.6 397.75 226.35 397.8 225.25
Q 397.7 221.7 397.5 218.2 397.45 217.55 397.4 216.9 397.3 215.3 397.15 213.75 397.1 213.6 397.1 213.5 396.95 211.85 396.7 210.25
M 386.1 209.05
Q 386.2 208.8 386.6 208.5 388.3 207.25 390.3 207.5 390.8 207.6 391 207.9 391.2 208.25 390.7 208.75 390.1 209.3 389.2 209.55 388.35 209.9 387.25 210.05 387.25 210.4 386.9 210.55 386.55 210.7 386.3 210.45 386.2 210.35 386.05 209.7 386.05 209.15 386.1 209.05
M 385.25 207.9
Q 386 207.25 386.35 207.75
L 385.65 208.35
Q 384.65 209.5 384.65 212.3 384.65 212.7 384.7 213 384.7 214.15 384.7 214.4 384.7 215.6 384.35 216.45 384.05 215.85 384.05 214.55
L 384.05 211.85
Q 383.95 210.4 384.25 209.55 384.6 208.6 385.25 207.9
M 389.9 218.25
L 389.9 218
Q 390.55 217.55 396.2 214.25
L 396.2 213.7
Q 396.2 213.6 396.2 213.5 396.2 212.25 396 211.65 395.6 210.4 394.5 209.6 395.9 209.75 396.55 211.35 396.8 212.1 396.85 213.5 396.85 213.7 396.85 213.9 396.85 214 396.85 214.15
L 396.85 220.7
Q 396.85 222.2 396.6 222.9 396.15 224.05 395 224.6 393.8 225.2 392.65 224.85 395.15 223.95 395.8 222.7 396.25 221.9 396.25 220.05
L 396.25 217.15
Q 392.45 217.9 389.9 218.25
M 410.85 256.55
L 411.5 254.3 402.9 254.45 402.5 255.55
Q 404.2 257.3 406.9 257.15 409.05 257.55 410.85 256.55
M 414.85 242.6
Q 414.05 242.65 413.25 242.75 413.5 243.35 413.5 244.55
L 413.5 247.25
Q 413.6 248.7 413.3 249.55 412.95 250.5 412.3 251.2 411.55 251.85 411.2 251.35
L 411.9 250.75
Q 412.9 249.6 412.9 246.8 412.85 245 412.85 244.7 412.85 243.6 413.15 242.75 408.35 243.3 401.35 244.45
L 401.35 245.4
Q 401.35 246.8 401.55 247.45 401.95 248.7 403.05 249.5 401.65 249.35 401 247.75 400.7 246.85 400.7 244.95
L 400.7 244.55
Q 400.5 244.6 400.35 244.6 400.55 246.75 400.85 248.85 400.9 249.4 401.15 249.85 402 251.2 402.8 252.75 403.05 253.25 403.1 253.8
L 411.5 253.75 411.1 253.05
Q 411.5 252.85 411.9 252.6 414.25 250.95 414.6 247.65 414.9 245.1 414.85 242.6
M 410.2 247.65
Q 410.5 247.65 411.1 247.85 411.65 247.95 411.8 248.15 412.05 248.35 411.95 248.85 411.8 249.2 411.55 249.45 410.8 250.2 410.05 250.55 409.25 251 408.55 251.05 407.35 251.25 406.1 250.6 405.6 250.35 405.45 250 405.2 249.5 405.5 249.1 405.7 248.95 406.45 248.85 407.4 248.8 409.1 248 409.7 247.65 410.2 247.65
M 431.45 256.55
L 432.1 254.3 423.5 254.45 423.1 255.55
Q 424.8 257.3 427.5 257.15 429.65 257.55 431.45 256.55
M 421.3 244.95
L 421.3 242.15
Q 421 242.15 420.75 242.2 421 245.55 421.45 248.85 421.5 249.4 421.75 249.85 422.6 251.2 423.4 252.75 423.65 253.25 423.7 253.8
L 432.1 253.75 431.7 253.05
Q 432.1 252.85 432.5 252.6 434.85 250.95 435.2 247.65 435.35 246.1 435.45 244.55 435.5 242.6 435.35 240.65 432.05 241.35 421.95 242.1
L 421.95 245.4
Q 421.95 246.8 422.15 247.45 422.55 248.7 423.65 249.5 422.25 249.35 421.6 247.75 421.3 246.85 421.3 244.95
M 433.8 242.65
Q 434.1 243.25 434.1 244.55
L 434.1 247.25
Q 434.2 248.7 433.9 249.55 433.55 250.5 432.9 251.2 432.15 251.85 431.8 251.35
L 432.5 250.75
Q 433.5 249.6 433.5 246.8 433.5 246.1 433.5 245.65 433.45 244.9 433.45 244.7 433.45 243.5 433.8 242.65
M 432.65 248.85
Q 432.65 249.25 432.35 249.75 431.3 251.15 429.25 251.5
L 429.2 251.5
Q 427.7 251.75 425.6 251.3 424.95 251.2 424.7 250.9 424.5 250.6 424.65 250.25 424.8 249.9 425.1 249.75 425.35 249.55 426.4 249.45 428.1 249.35 429 248.85 429.15 248.75 429.3 248.7 430.05 248.15 430.45 248.25 430.75 248.3 431.3 248.45 431.55 248.45 432 248.2 432.55 248.2 432.65 248.85
M 415.3 212.95
Q 415.35 213.45 415.35 214.15
L 415.35 218
Q 415.65 217.8 415.9 217.65
L 415.95 217.65
Q 415.8 215.25 415.55 212.9
L 415.5 212.9
Q 415.4 212.9 415.3 212.95
M 414.75 218.35
L 414.7 213.7
Q 414.7 213.35 414.7 213.05 412.85 213.45 410.75 213.95 406.6 214.9 403.1 215.7 403 216.1 402.85 216.45 402.7 216.2 402.65 215.8 402.55 215.3 402.55 214.55
L 402.55 211.85
Q 402.5 211.15 402.55 210.6 402.6 210 402.75 209.55 403.1 208.6 403.75 207.9 404.5 207.25 404.85 207.75
L 404.15 208.35
Q 403.6 209 403.35 210.1 407 208 411.7 205.3
L 404.55 205.35 404.95 206.05
Q 404.55 206.25 404.15 206.5 401.9 208.1 401.5 211.2 401.45 211.3 401.45 211.45 401.35 212.45 401.3 213.5 401.2 214.8 401.25 216.1 401.25 218.4 401.5 220.65 401.6 221.55 401.55 222.5 401.5 224.05 402 225.5 408.25 222.1 414.75 218.35
M 409.15 201.95
Q 407 201.55 405.2 202.55
L 404.55 204.8 413.15 204.65 413.55 203.55
Q 411.85 201.8 409.15 201.95
M 422.3 211.6
Q 422.25 211.9 422.25 212.3 422.3 213.3 422.3 213.85 424.15 212.7 425.2 212 426 211.4 426.3 211.15 424.9 211.15 422.3 211.6
M 421.65 211.85
Q 421.65 211.75 421.65 211.7 421.1 211.75 420.5 211.9 420.45 212.15 420.45 212.45 420.35 213.75 420.35 215.05 421.05 214.6 421.65 214.25
L 421.65 211.85
M 432.25 204.65
L 432.65 203.55
Q 430.95 201.8 428.25 201.95 426.1 201.55 424.3 202.55
L 423.65 204.8 432.25 204.65
M 354.7 256.55
L 355.35 254.3 346.75 254.45 346.35 255.55
Q 348.05 257.3 350.75 257.15 352.9 257.55 354.7 256.55
M 343.65 232.75
L 343.6 233.85
Q 343.7 237.4 343.9 240.9 344.15 244.9 344.7 248.85 344.75 249.4 345 249.85 345.85 251.2 346.65 252.75 346.9 253.25 346.95 253.8
L 355.35 253.75 354.95 253.05
Q 355.35 252.85 355.75 252.6 358.1 250.95 358.45 247.65 358.95 243.05 358.4 238.45 358.3 237.55 358.35 236.6 358.4 235 357.9 233.5 357.8 233.15 357.6 232.75
L 357 232.55
Q 356.95 232.65 356.95 232.7 356.95 232.8 357 232.9 357.1 233 357.15 233.1
L 356.75 233.65
Q 355.75 233.45 354.7 233.25 350.7 232.45 347 233.7 346.35 233.95 345.65 234.2 345.4 234.2 345.15 234.2
L 345.5 233 344.75 232.5 343.65 232.75
M 346.4 234.5
Q 347.6 233.9 348.75 234.25 346.25 235.15 345.6 236.4 345.15 237.2 345.15 239.05
L 345.2 245.4
Q 345.2 246.8 345.4 247.45 345.8 248.7 346.9 249.5 345.5 249.35 344.85 247.75 344.55 246.85 344.55 244.95
L 344.55 238.4
Q 344.55 236.9 344.8 236.2 345.25 235.05 346.4 234.5
M 349.9 234.95
Q 350.15 234.75 350.7 234.75 351.35 234.75 352.65 235.1 352.9 235.15 353.45 235.15 353.95 235.15 354.2 235.3 354.5 235.5 355 236.05
L 355.65 236.7
Q 355.85 236.95 355.8 237.4 355.8 237.65 355.75 238.15 355.85 238.9 355.6 239.15 355.45 239.25 355.05 239.25
L 354.15 239.25
Q 353.75 239.25 353.6 239.15 353.35 239.05 353.25 238.65 353.1 238.2 353 237.95 352.85 237.35 351.9 236.85
L 350.35 236.35
Q 349.7 236 349.6 235.7 349.55 235.35 349.9 234.95
M 357.05 242.65
Q 357.35 243.25 357.35 244.55
L 357.35 247.25
Q 357.45 248.7 357.15 249.55 356.8 250.5 356.15 251.2 355.4 251.85 355.05 251.35
L 355.75 250.75
Q 356.75 249.6 356.75 246.8 356.7 245 356.7 244.7 356.7 243.5 357.05 242.65
M 357.55 210.25
Q 357.5 209.7 357.25 209.25 356.4 207.9 355.6 206.35 355.35 205.85 355.3 205.3
L 346.9 205.35 347.3 206.05
Q 346.9 206.25 346.5 206.5 344.6 207.85 344 210.3 343.85 210.85 343.8 211.45 343.3 216.05 343.85 220.65 343.95 221.55 343.9 222.5 343.85 224.1 344.35 225.6 344.45 225.95 344.65 226.35
L 345.25 226.55
Q 345.3 226.45 345.3 226.4 345.3 226.3 345.25 226.2 345.15 226.1 345.1 226
L 345.5 225.45
Q 346.5 225.65 347.55 225.85 351.55 226.65 355.25 225.4 355.9 225.15 356.6 224.9 356.85 224.9 357.1 224.9
L 356.75 226.1 357.5 226.6 358.6 226.35 358.65 225.25
Q 358.55 221.7 358.35 218.2 358.3 217.65 358.3 217.1 358 213.65 357.55 210.25
M 347.2 207.75
L 346.5 208.35
Q 345.8 209.15 345.6 210.75 345.5 211.45 345.5 212.3 345.55 214.1 345.55 214.4 345.55 215.6 345.2 216.45 344.9 215.85 344.9 214.55
L 344.9 211.85
Q 344.8 210.65 345 209.9 345.05 209.7 345.1 209.55 345.45 208.6 346.1 207.9 346.85 207.25 347.2 207.75
M 349.25 221.8
Q 349.55 221.35 350.65 221.35 352.8 221.35 353.85 220.8 354.3 220.45 354.7 220.3 355.15 220.2 355.55 220.3 356.3 220.45 356.55 221.2 356.7 222.05 355.7 222.75 354.6 223.5 352.45 223.5
L 351.05 223.5
Q 350.05 223.4 349.6 223.1 349.3 222.85 349.2 222.5 349.05 222.1 349.25 221.8
M 357.05 213.7
Q 357.05 212.3 356.85 211.65 356.45 210.4 355.35 209.6 356.75 209.75 357.4 211.35 357.7 212.25 357.7 214.15
L 357.7 220.7
Q 357.7 222.2 357.45 222.9 357 224.05 355.85 224.6 354.65 225.2 353.5 224.85 356 223.95 356.65 222.7 357.1 221.9 357.1 220.05
L 357.05 213.7
M 355.5 204.65
L 355.9 203.55
Q 354.2 201.8 351.5 201.95 349.35 201.55 347.55 202.55
L 346.9 204.8 355.5 204.65
M 365.85 254.45
L 365.45 255.55
Q 367.15 257.3 369.85 257.15 372 257.55 373.8 256.55
L 374.45 254.3 365.85 254.45
M 376.4 249.1
Q 376.35 249.35 376.25 249.55 375.9 250.5 375.25 251.2 374.5 251.85 374.15 251.35
L 374.85 250.75
Q 375.35 250.2 375.6 249.25 370.2 250.3 365.05 251.45 365.4 252.05 365.75 252.75 366 253.25 366.05 253.8
L 374.45 253.75 374.05 253.05
Q 374.45 252.85 374.85 252.6 376.75 251.25 377.35 248.9 376.85 248.95 376.4 249.1
M 377 233.5
Q 376.9 233.15 376.7 232.75
L 376.1 232.55
Q 376.05 232.65 376.05 232.7 376.05 232.8 376.1 232.9 376.2 233 376.25 233.1
L 375.85 233.65
Q 374.85 233.45 373.8 233.25 369.8 232.45 366.1 233.7 365.45 233.95 364.75 234.2 364.5 234.2 364.25 234.2
L 364.6 233 363.85 232.5 362.75 232.75 362.7 233.85
Q 362.8 237.4 363 240.9 363.25 244.9 363.8 248.85 363.8 249.1 363.9 249.3 364.2 249.05 364.6 248.8 364.2 248.4 363.95 247.75 363.65 246.85 363.65 244.95
L 363.65 238.4
Q 363.65 236.9 363.9 236.2 364.35 235.05 365.5 234.5 366.7 233.9 367.85 234.25 365.35 235.15 364.7 236.4 364.25 237.2 364.25 239.05
L 364.3 245.4
Q 364.3 246.8 364.5 247.45 364.7 248 365 248.5 368.35 246.05 373.35 242.4 375.5 240.9 377.6 239.5 377.55 238.95 377.5 238.45 377.4 237.55 377.45 236.6 377.5 235 377 233.5
M 370.05 235.85
Q 370.3 236.25 369.7 236.75 368.25 237.35 367.75 237.9
L 367.1 238.65
Q 366.7 239.15 366.35 239.2 365.75 239.4 365.5 238.9 365.4 238.75 365.4 238.35 365.5 237.3 365.7 237 365.9 236.55 366.65 236.15 367.95 235.4 368.55 235.4 369.1 235.4 369.55 235.55 369.95 235.65 370.05 235.85
M 376.1 204.65
L 376.5 203.55
Q 374.8 201.8 372.1 201.95 369.95 201.55 368.15 202.55
L 367.5 204.8 376.1 204.65
M 376.2 206.35
Q 375.95 205.85 375.9 205.3
L 367.5 205.35 367.9 206.05
Q 367.5 206.25 367.1 206.5 364.75 208.15 364.4 211.45 364.1 214.4 364.2 217.35 364.25 219 364.45 220.65 364.55 221.55 364.5 222.5 364.45 224.1 364.95 225.6 365.05 225.95 365.25 226.35
L 365.85 226.55
Q 365.9 226.45 365.9 226.4 365.9 226.3 365.85 226.2 365.75 226.1 365.7 226
L 366.1 225.45
Q 367.1 225.65 368.15 225.85 372.15 226.65 375.85 225.4 376.5 225.15 377.2 224.9 377.45 224.9 377.7 224.9
L 377.35 226.1 378.1 226.6 379.2 226.35 379.25 225.25
Q 379.15 221.7 378.95 218.2 378.8 215.75 378.55 213.35 378.35 211.8 378.15 210.25 378.1 209.7 377.85 209.25 377 207.9 376.2 206.35
M 367.8 207.75
L 367.1 208.35
Q 366.1 209.5 366.1 212.3 366.15 214.1 366.15 214.4 366.15 215.6 365.8 216.45 365.5 215.85 365.5 214.55
L 365.5 211.85
Q 365.4 210.4 365.7 209.55 366.05 208.6 366.7 207.9 367.45 207.25 367.8 207.75
M 367.95 222
Q 368.1 221.65 368.85 221.55
L 369.85 221.55
Q 370 221.15 370.85 221.15 372.2 221.15 373.25 220.65 373.6 220.5 374.3 220.15 374.95 219.8 375.45 219.75 376 219.65 376.3 219.95 376.7 220.35 376.5 220.85 376.4 221.25 375.95 221.65 374.95 222.75 373.85 223.15 373.2 223.35 371.85 223.35 369.8 223.35 369.4 223.3 368.65 223.3 368.3 223 367.7 222.6 367.95 222
M 378 211.35
Q 378.25 212.05 378.3 213.4 378.3 213.75 378.3 214.15
L 378.3 220.7
Q 378.3 222.2 378.05 222.9 377.6 224.05 376.45 224.6 375.25 225.2 374.1 224.85 376.6 223.95 377.25 222.7 377.7 221.9 377.7 220.05
L 377.65 213.7
Q 377.65 213.6 377.65 213.5 377.65 212.25 377.45 211.65 377.05 210.4 375.95 209.6 377.35 209.75 378 211.35 Z"/>

<path fill="#FFFFFF" stroke="none" d="
M 383.2 236.4
Q 382.75 237.2 382.75 239.05
L 382.8 245.4
Q 382.8 246.8 383 247.45 383.05 247.6 383.1 247.75 385.05 247.35 387 247 390.85 246.25 394.35 245.65 394.3 244.9 394.3 244.7 394.3 243.5 394.65 242.65 394.95 243.25 394.95 244.55
L 394.95 245.55
Q 395.6 245.45 396.25 245.35 396.4 241.9 396 238.45 395.9 237.55 395.95 236.6 396 235 395.5 233.5 395.4 233.15 395.2 232.75
L 394.6 232.55
Q 394.55 232.65 394.55 232.7 394.55 232.8 394.6 232.9 394.7 233 394.75 233.1
L 394.35 233.65
Q 393.35 233.45 392.3 233.25 390.1 232.8 388 233 387 233.55 386 234.2 386.15 234.2 386.35 234.25 383.85 235.15 383.2 236.4
M 389.9 218
L 389.9 218.25
Q 392.45 217.9 396.25 217.15
L 396.2 214.25
Q 390.55 217.55 389.9 218
M 386.6 208.5
Q 386.2 208.8 386.1 209.05 386.05 209.15 386.05 209.7 386.2 210.35 386.3 210.45 386.55 210.7 386.9 210.55 387.25 210.4 387.25 210.05 388.35 209.9 389.2 209.55 390.1 209.3 390.7 208.75 391.2 208.25 391 207.9 390.8 207.6 390.3 207.5 388.3 207.25 386.6 208.5
M 411.1 247.85
Q 410.5 247.65 410.2 247.65 409.7 247.65 409.1 248 407.4 248.8 406.45 248.85 405.7 248.95 405.5 249.1 405.2 249.5 405.45 250 405.6 250.35 406.1 250.6 407.35 251.25 408.55 251.05 409.25 251 410.05 250.55 410.8 250.2 411.55 249.45 411.8 249.2 411.95 248.85 412.05 248.35 411.8 248.15 411.65 247.95 411.1 247.85
M 413.15 232.55
Q 413.1 232.65 413.1 232.7 413.1 232.8 413.15 232.9 413.25 233 413.3 233.1
L 412.9 233.65
Q 411.9 233.45 410.85 233.25 406.85 232.45 403.15 233.7 402.5 233.95 401.8 234.2 401.55 234.2 401.3 234.2
L 401.65 233 400.9 232.5 399.8 232.75 399.75 233.85
Q 399.85 237.4 400.05 240.9 400.15 242.75 400.35 244.6 400.5 244.6 400.7 244.55
L 400.7 238.4
Q 400.7 236.9 400.95 236.2 401.4 235.05 402.55 234.5 403.75 233.9 404.9 234.25 402.4 235.15 401.75 236.4 401.3 237.2 401.3 239.05
L 401.35 244.45
Q 408.35 243.3 413.15 242.75 413.2 242.7 413.2 242.65 413.25 242.7 413.25 242.75 414.05 242.65 414.85 242.6 414.8 240.5 414.55 238.45 414.45 237.55 414.5 236.6 414.55 235 414.05 233.5 413.95 233.15 413.75 232.75
L 413.15 232.55
M 432.35 249.75
Q 432.65 249.25 432.65 248.85 432.55 248.2 432 248.2 431.55 248.45 431.3 248.45 430.75 248.3 430.45 248.25 430.05 248.15 429.3 248.7 429.15 248.75 429 248.85 428.1 249.35 426.4 249.45 425.35 249.55 425.1 249.75 424.8 249.9 424.65 250.25 424.5 250.6 424.7 250.9 424.95 251.2 425.6 251.3 427.7 251.75 429.2 251.5
L 429.25 251.5
Q 431.3 251.15 432.35 249.75
M 423.75 233.7
Q 423.1 233.95 422.4 234.2 422.15 234.2 421.9 234.2
L 422.25 233 421.5 232.5 420.4 232.75 420.35 233.85
Q 420.45 237.4 420.65 240.9 420.7 241.55 420.75 242.2 421 242.15 421.3 242.15
L 421.3 238.4
Q 421.3 236.9 421.55 236.2 422 235.05 423.15 234.5 424.35 233.9 425.5 234.25 423 235.15 422.35 236.4 421.9 237.2 421.9 239.05
L 421.95 242.1
Q 432.05 241.35 435.35 240.65 435.3 239.55 435.15 238.45 435.05 237.55 435.1 236.6 435.15 235 434.65 233.5 434.55 233.15 434.35 232.75
L 433.75 232.55
Q 433.7 232.65 433.7 232.7 433.7 232.8 433.75 232.9 433.85 233 433.9 233.1
L 433.5 233.65
Q 432.5 233.45 431.45 233.25 427.45 232.45 423.75 233.7
M 414.3 222.7
Q 414.75 221.9 414.75 220.05
L 414.75 218.35
Q 408.25 222.1 402 225.5 402 225.55 402 225.6 402.1 225.95 402.3 226.35
L 402.9 226.55
Q 402.95 226.45 402.95 226.4 402.95 226.3 402.9 226.2 402.8 226.1 402.75 226
L 403.15 225.45
Q 404.15 225.65 405.2 225.85 409.2 226.65 412.9 225.4 413.55 225.15 414.25 224.9 414.5 224.9 414.75 224.9
L 414.4 226.1 415.15 226.6 416.25 226.35 416.3 225.25
Q 416.2 221.7 416 218.2 416 217.9 415.95 217.65
L 415.9 217.65
Q 415.65 217.8 415.35 218
L 415.35 220.7
Q 415.35 222.2 415.1 222.9 414.65 224.05 413.5 224.6 412.3 225.2 411.15 224.85 413.65 223.95 414.3 222.7
M 414.9 209.25
Q 414.05 207.9 413.25 206.35 413 205.85 412.95 205.3
L 411.7 205.3
Q 407 208 403.35 210.1 403.15 211.05 403.15 212.3 403.15 213 403.2 213.45 403.2 214.2 403.2 214.4 403.2 215.1 403.1 215.7 406.6 214.9 410.75 213.95 412.85 213.45 414.7 213.05 414.7 213 414.7 212.95 414.65 212.1 414.5 211.65 414.1 210.4 413 209.6 414.4 209.75 415.05 211.35 415.25 211.9 415.3 212.9
L 415.3 212.95
Q 415.4 212.9 415.5 212.9
L 415.55 212.9
Q 415.4 211.55 415.2 210.25 415.15 209.7 414.9 209.25
M 434.3 210.25
Q 434.25 209.7 434 209.25 433.15 207.9 432.35 206.35 432.1 205.85 432.05 205.3
L 423.65 205.35 424.05 206.05
Q 423.65 206.25 423.25 206.5 420.9 208.15 420.55 211.45 420.55 211.65 420.5 211.9 421.1 211.75 421.65 211.7 421.55 210.35 421.85 209.55 422.2 208.6 422.85 207.9 423.6 207.25 423.95 207.75
L 423.25 208.35
Q 422.4 209.35 422.3 211.6 424.9 211.15 426.3 211.15 426 211.4 425.2 212 424.15 212.7 422.3 213.85 422.3 214.25 422.3 214.4 422.3 215.6 421.95 216.45 421.65 215.85 421.65 214.55
L 421.65 214.25
Q 421.05 214.6 420.35 215.05 420.25 217.85 420.6 220.65 420.7 221.55 420.65 222.5 420.6 224.1 421.1 225.6 421.2 225.95 421.4 226.35
L 422 226.55
Q 422.05 226.45 422.05 226.4 422.05 226.3 422 226.2 421.9 226.1 421.85 226
L 422.25 225.45
Q 423.25 225.65 424.3 225.85 428.3 226.65 432 225.4 432.65 225.15 433.35 224.9 433.6 224.9 433.85 224.9
L 433.5 226.1 434.25 226.6 435.35 226.35 435.4 225.25
Q 435.3 221.7 435.1 218.2 434.9 214.65 434.45 211.1 434.35 210.65 434.3 210.25
M 434.45 214.15
L 434.45 220.7
Q 434.45 222.2 434.2 222.9 433.75 224.05 432.6 224.6 431.4 225.2 430.25 224.85 432.75 223.95 433.4 222.7 433.85 221.9 433.85 220.05
L 433.8 213.7
Q 433.8 212.3 433.6 211.65 433.55 211.4 433.45 211.2 433 210.25 432.1 209.6 433.4 209.75 434.05 211.15 434.1 211.25 434.15 211.35 434.45 212.25 434.45 214.15
M 350.7 234.75
Q 350.15 234.75 349.9 234.95 349.55 235.35 349.6 235.7 349.7 236 350.35 236.35
L 351.9 236.85
Q 352.85 237.35 353 237.95 353.1 238.2 353.25 238.65 353.35 239.05 353.6 239.15 353.75 239.25 354.15 239.25
L 355.05 239.25
Q 355.45 239.25 355.6 239.15 355.85 238.9 355.75 238.15 355.8 237.65 355.8 237.4 355.85 236.95 355.65 236.7
L 355 236.05
Q 354.5 235.5 354.2 235.3 353.95 235.15 353.45 235.15 352.9 235.15 352.65 235.1 351.35 234.75 350.7 234.75
M 350.65 221.35
Q 349.55 221.35 349.25 221.8 349.05 222.1 349.2 222.5 349.3 222.85 349.6 223.1 350.05 223.4 351.05 223.5
L 352.45 223.5
Q 354.6 223.5 355.7 222.75 356.7 222.05 356.55 221.2 356.3 220.45 355.55 220.3 355.15 220.2 354.7 220.3 354.3 220.45 353.85 220.8 352.8 221.35 350.65 221.35
M 375.85 246.8
Q 375.8 245 375.8 244.7 375.8 243.5 376.15 242.65 376.45 243.25 376.45 244.55
L 376.45 247.25
Q 376.5 248.3 376.4 249.1 376.85 248.95 377.35 248.9 377.5 248.3 377.55 247.65 378 243.55 377.6 239.5 375.5 240.9 373.35 242.4 368.35 246.05 365 248.5 365.4 249.05 366 249.5 365.15 249.4 364.6 248.8 364.2 249.05 363.9 249.3 363.95 249.6 364.1 249.85 364.55 250.6 365.05 251.45 370.2 250.3 375.6 249.25 375.85 248.25 375.85 246.8
M 369.7 236.75
Q 370.3 236.25 370.05 235.85 369.95 235.65 369.55 235.55 369.1 235.4 368.55 235.4 367.95 235.4 366.65 236.15 365.9 236.55 365.7 237 365.5 237.3 365.4 238.35 365.4 238.75 365.5 238.9 365.75 239.4 366.35 239.2 366.7 239.15 367.1 238.65
L 367.75 237.9
Q 368.25 237.35 369.7 236.75
M 368.85 221.55
Q 368.1 221.65 367.95 222 367.7 222.6 368.3 223 368.65 223.3 369.4 223.3 369.8 223.35 371.85 223.35 373.2 223.35 373.85 223.15 374.95 222.75 375.95 221.65 376.4 221.25 376.5 220.85 376.7 220.35 376.3 219.95 376 219.65 375.45 219.75 374.95 219.8 374.3 220.15 373.6 220.5 373.25 220.65 372.2 221.15 370.85 221.15 370 221.15 369.85 221.55
L 368.85 221.55 Z"/>

<path fill="#D3E7EE" stroke="none" d="
M 399.95 213.5
Q 400 212.75 400.1 212 399.25 212.45 398.55 212.9 398.55 213.2 398.6 213.5 398.8 215.05 398.95 216.6 399.35 216.5 399.8 216.4 399.8 214.95 399.95 213.5
M 362.6 250.2
Q 360.7 251.55 359.6 252.25 359.1 252.5 358.9 252.75 361.05 252.25 363.3 251.8 362.85 251.05 362.6 250.2
M 336.6 196.5
Q 336.1 197.15 335.8 197.85 336.15 200.85 336 204.9 336.15 204.65 336.35 204.4 338.4 201.45 338.9 200.6 338.9 202.6 338.05 206.5 337.6 208.55 337.05 210.75
L 337.05 212.1
Q 337.25 211.9 337.7 211.15 337.8 210.95 337.95 210.75 338.2 209.55 338.5 208.4 338.65 207.7 338.85 207 338.9 206.8 339.1 206.75 339.35 206.65 339.3 206.8 339.25 207.05 339.2 207.35 339 208.15 338.85 209 339.35 207.95 340.05 206.5 340.35 205.8 340.75 205 344 198.8 346.25 198.5 349.05 198.05 362.4 197.35 375.85 196.6 381.8 196.6 388.45 196.6 403.65 197.3 418.85 198 423.75 198
L 423.8 198.15
Q 423.85 198.25 424 198.25 419.05 201.1 414.8 203.55 414.95 204.75 414.25 205.6 416.1 207.2 416.5 209.4 416.75 211 417 212.55 418.15 212.3 419.15 212.15 419.25 211.15 419.45 210.2 419.85 208.05 421.25 206.65 421.8 206.1 422.5 205.65 422.6 203.85 423.5 201.95 424 200.9 425.15 200.8 428.6 200.35 432 201.25 433.4 201.55 433.8 203 434.2 204.6 433.35 205.6 435.2 207.2 435.6 209.4 435.75 210.2 435.85 210.95 436.95 218.15 436.9 225.35
L 436.6 227.05 435.65 227.55 432.95 227
Q 433.05 226.3 432.35 226.6 428.85 227.7 425.35 227.25 424.2 227.05 423.1 227.05 423.05 227.05 423.05 227.2 422.5 228 421.25 227.65 419.25 227.3 419.25 224.85 419.2 221.9 419 219 418.9 217.4 418.9 215.9 418.2 216.3 417.45 216.75 417.85 221.05 417.8 225.35
L 417.5 227.05 416.55 227.55 413.85 227
Q 413.95 226.3 413.25 226.6 409.75 227.7 406.25 227.25 405.1 227.05 404 227.05 403.95 227.05 403.95 227.2 403.4 228 402.15 227.65 400.85 227.4 400.4 226.35 397.6 227.8 394.8 229.25 392.5 230.45 390.15 231.75 390.7 231.8 391.25 231.85 392.4 232.05 393.5 232.05 393.55 232.05 393.55 231.9 394.1 231.1 395.35 231.45 397.35 231.8 397.35 234.25 397.4 237.2 397.6 240.1 397.8 242.65 397.65 245.1 398.25 244.95 398.85 244.85 398.2 239.3 398.25 233.75
L 398.55 232.05 399.5 231.55 402.2 232.1
Q 402.1 232.8 402.8 232.5 406.3 231.4 409.8 231.85 410.95 232.05 412.05 232.05 412.1 232.05 412.1 231.9 412.65 231.1 413.9 231.45 415.9 231.8 415.9 234.25 415.95 237.2 416.15 240.1 416.25 241.3 416.25 242.5 416.7 242.45 417.15 242.4 418.2 242.35 419.2 242.3 418.8 238 418.85 233.75
L 419.15 232.05 420.1 231.55 422.8 232.1
Q 422.7 232.8 423.4 232.5 426.9 231.4 430.4 231.85 431.55 232.05 432.65 232.05 432.7 232.05 432.7 231.9 433.25 231.1 434.5 231.45 435.1 231.55 435.55 231.85 436.5 232.55 436.5 234.25 436.55 237.2 436.75 240.1 436.75 240.15 436.75 240.2 437.35 239.85 438 239.15 438.9 238.25 440.65 237.5 441 239.55 441.6 241.1
L 441.65 241.15
Q 442.05 242.2 442.8 243.45 442.6 242.65 442.5 242.2 442.35 241.55 442.3 240.8 442.2 239.8 442.25 238.6 442.4 236.2 442.45 235 442.75 229 441 218.05 439.2 206.4 439.2 201.1 439.2 199.9 438.75 199.5 438.4 199.15 437.55 199.2 436.5 199.2 436.15 199.05 435.9 198.95 435.25 198.45 434.75 198 434.35 197.95 433.9 197.85 432.75 198.4 431.45 198.95 429.9 198.65 428.4 198.3 427.45 197.2 428.2 197.05 429.7 197.45 431.2 197.9 431.95 197.7 432.2 197.65 433.1 197.1 433.75 196.7 434.25 196.75 434.75 196.75 435.55 197.25 436.4 197.85 436.8 197.95 437.15 198.05 437.85 198.05 438.55 198.05 438.9 198.2 440.35 198.7 440.35 201.8 440.3 204.85 440.85 208.7 441 210.2 441.9 215.6 443.95 227.8 443.7 235.6 443.7 236.65 443.65 238.7 443.65 239.4 443.75 240.05 443.8 240.95 443.9 241.75 444.05 242.5 444.5 244.1 444.75 244.95 444.9 245.55 445.35 245.85 445.9 246.25 447.05 247 448 247.8 447.2 238.25 446.7 226.65 446.6 222.75 446.1 220.45 445.9 219.5 445.3 217.8 444.7 215.9 444.5 215.1 444 213.1 443.7 209.05
L 442.9 199.85
Q 442.6 195.15 440.45 193.85 439.65 193.35 438.4 193.2 438.45 193.4 438.6 193.6 432.4 193.95 423.6 193.4 408.05 192.4 406.7 192.35 402.35 192.25 396.3 192.4 389.4 192.65 385.95 192.75 378.25 193 366.9 193 354.2 192.95 347.85 192.95 342.4 192.95 339.85 194.05 337.9 194.9 336.6 196.5
M 342.25 196.85
Q 340.95 196.95 340.4 197.3 339.65 197.8 339.6 198.75 339.5 199.7 340.15 200.3 340.1 200.6 339.75 200.65 339.4 200.7 339.15 200.5 338.75 200.1 338.75 199.3 338.65 197.15 339.7 196.2 340.55 195.5 342.55 195.5 348.8 195.45 379.8 195.45 380.8 195.45 381 195.95 373.6 196.9 361.7 196.8 346.05 196.7 342.25 196.85
M 399.25 195.9
Q 390.5 195.9 387.1 195.6 387.9 195.25 390.15 195.15
L 406.1 195.2
Q 408.9 195.35 415.5 196.25 421.45 197.05 424.85 197.1 424.7 197.3 424.2 197.4 421.5 197.9 417.8 197.45 413.5 196.75 411.35 196.45 406.95 195.9 399.25 195.9 Z"/>
</g>

<g id="Layer0_0_MEMBER_3_FILL">
<path fill="#3B3D35" stroke="none" d="
M 60.15 106.9
Q 60 106.9 59.9 106.95 59.8 107.05 59.8 107.15
L 58.55 110.5 58.45 111 58.35 110.5 57.15 107.15
Q 57.1 107.05 57 106.95 56.9 106.9 56.75 106.9
L 55.7 106.9 57.85 112.3 59 112.3 61.15 106.9 60.15 106.9
M 52.05 102.5
L 51.9 102.55 51.8 102.6 51.7 102.7 50.6 104.15 51.75 104.15 53.7 102.5 52.05 102.5
M 52.55 104.75
Q 52.05 104.6 51.45 104.6 50.6 104.6 49.9 104.9 49.15 105.2 48.65 105.7 48.15 106.25 47.85 106.95 47.6 107.65 47.6 108.5 47.6 109.35 47.85 110.05 48.15 110.75 48.65 111.3 49.15 111.8 49.9 112.1 50.6 112.4 51.45 112.4 52.3 112.4 53.05 112.1 53.75 111.8 54.25 111.3 54.75 110.75 55.05 110.05 55.3 109.35 55.3 108.5 55.3 107.95 55.2 107.45 55.05 106.9 54.8 106.5 54.6 106.05 54.25 105.7 53.9 105.35 53.5 105.1 53.05 104.85 52.55 104.75
M 53.2 106.55
Q 53.5 106.85 53.7 107.35 53.85 107.85 53.85 108.5 53.85 109.1 53.7 109.6 53.5 110.1 53.2 110.45 52.9 110.8 52.45 111 52 111.15 51.45 111.15 50.9 111.15 50.45 111 50 110.8 49.7 110.45 49.4 110.1 49.2 109.6 49.05 109.1 49.05 108.5 49.05 107.85 49.2 107.35 49.4 106.85 49.7 106.55 50 106.2 50.45 106 50.9 105.8 51.45 105.8 52 105.8 52.45 106 52.9 106.2 53.2 106.55
M 63.1 106.9
L 61.8 106.9 61.8 110.35
Q 61.8 110.8 61.9 111.15 62.05 111.55 62.25 111.8 62.5 112.1 62.85 112.25 63.15 112.4 63.6 112.4 64.15 112.4 64.55 112.2 64.95 111.95 65.3 111.65
L 65.35 112.05
Q 65.45 112.3 65.7 112.3
L 66.5 112.3 66.5 106.9 65.2 106.9 65.2 110.8
Q 64.95 111.05 64.65 111.2 64.35 111.35 64 111.35 63.55 111.35 63.3 111.1 63.1 110.85 63.1 110.35
L 63.1 106.9
M 69.05 104.5
L 67.75 104.5 67.75 112.3 69.05 112.3 69.05 104.5
M 74.65 107.55
Q 74.3 107.2 73.8 107 73.35 106.8 72.75 106.8 72.15 106.8 71.65 107 71.15 107.2 70.8 107.55 70.45 107.9 70.25 108.45 70.05 108.95 70.05 109.6 70.05 110.25 70.25 110.75 70.45 111.25 70.8 111.65 71.15 112 71.65 112.2 72.15 112.4 72.75 112.4 73.35 112.4 73.8 112.2 74.3 112 74.65 111.65 75 111.25 75.2 110.75 75.4 110.25 75.4 109.6 75.4 108.95 75.2 108.45 75 107.9 74.65 107.55
M 71.7 108.25
Q 72.05 107.8 72.75 107.8 73.4 107.8 73.75 108.25 74.05 108.75 74.05 109.6 74.05 110.5 73.75 110.95 73.4 111.4 72.75 111.4 72.05 111.4 71.7 110.9 71.4 110.45 71.4 109.6 71.4 108.75 71.7 108.25 Z"/>
</g>
</defs>

<g transform="matrix( 0.87713623046875, 0, 0, 0.656982421875, -18.8,-13.65) ">
<use xlink:href="#Layer0_0_MEMBER_0_FILL"/>
</g>

<g transform="matrix( 0.87713623046875, 0, 0, 0.87713623046875, -18.8,-8.35) ">
<use xlink:href="#Layer0_0_MEMBER_1_FILL"/>
</g>

<g transform="matrix( 0.81854248046875, 0, 0, 0.81854248046875, -258.8,-144.75) ">
<use xlink:href="#Layer0_0_MEMBER_2_FILL"/>
</g>

<g transform="matrix( 1, 0, 0, 1, -1,-2.3) ">
<use xlink:href="#Layer0_0_MEMBER_3_FILL"/>
</g>
</svg>
