
<svg xmlns="http://www.w3.org/2000/svg" version="1.1" xmlns:xlink="http://www.w3.org/1999/xlink" preserveAspectRatio="none" x="0px" y="0px" width="121px" height="122px" viewBox="0 0 121 122">
<defs>
<g id="Layer0_0_MEMBER_0_FILL">
<path fill="#B8BE79" stroke="none" d="
M 165.65 120.75
L 165.65 10.15 17.95 10.15 17.95 29.15
Q 17.85 29.15 17.8 29.15 17.65 29.25 17.55 29.5
L 17.55 31.55 17.75 32.2
Q 17.8 32.5 17.95 32.75
L 17.95 63.6
Q 17.75 63.8 17.55 64.05
L 17.55 65.55
Q 17.75 65.4 17.95 65.3
L 17.95 120.75 165.65 120.75 Z"/>
</g>

<g id="Layer0_0_MEMBER_1_FILL">
<path fill="#E1C99B" stroke="none" d="
M 21.5 111.85
L 21.5 148.6 159.35 148.6 159.35 111.85 21.5 111.85 Z"/>
</g>

<g id="Layer0_0_MEMBER_2_FILL">
<path fill="#3B3D35" stroke="none" d="
M 182.1 194.7
Q 181.95 194.8 181.8 194.9 181.55 195.05 181.3 195.15 181.15 195.25 181 195.35 180.95 195.45 180.85 195.55 180.75 195.7 180.65 195.8 180.65 195.9 180.65 196 180.65 196.1 180.65 196.2 180.6 196.35 180.6 196.45 180.45 196.55 180.35 196.65 180.35 196.75 180.35 196.85 180.3 197 180.3 197.1 180.2 197.2 180.15 197.3 180.05 197.4 179.9 197.5 179.9 197.65 179.9 197.75 179.9 197.85 179.9 197.95 179.9 198.05 179.9 198.2 179.9 198.3 179.9 198.4 179.9 198.5 179.9 198.6 179.9 198.7 179.9 198.85 179.9 198.95 179.9 199.05 179.9 199.15 179.9 199.25 179.9 199.35 179.9 199.5 179.9 199.6 179.9 199.7 179.9 199.8 179.9 199.9 179.9 200 179.9 200.15 179.9 200.25 179.9 200.35 179.9 200.45 179.9 200.55 179.9 200.65 179.9 200.8 179.9 200.9 179.9 201 179.9 201.1 179.9 201.2 179.9 201.35 179.9 201.45 179.9 201.55 179.9 201.65 179.9 201.75 179.9 201.85 179.9 202 179.9 202.1 179.9 202.2 179.9 202.3 179.9 202.4 179.9 202.5 179.9 202.65 179.9 202.75 179.9 202.85 179.9 202.95 179.9 203.05 179.9 203.15 179.9 203.3 179.9 203.4 179.9 203.5 179.9 203.6 179.9 203.7 179.9 203.8 179.9 203.95 179.9 204.05 179.9 204.15 179.9 204.25 179.9 204.35 179.9 204.5 179.9 204.6 179.9 204.7 179.9 204.8 179.9 204.9 179.9 205 179.9 205.15 179.9 205.25 179.9 205.35 179.9 205.45 179.9 205.55 179.9 205.65 179.9 205.8 179.95 205.9 180 206 180.05 206.1 180.05 206.2 180.15 206.3 180.2 206.45 180.5 206.45 180.8 206.5
L 180.8 206.45
Q 180.85 206.35 180.85 206.3 181.3 206.45 181.8 206.5
L 181.8 206.85
Q 181.6 207 180.9 207 180.35 207.05 180.15 207.3 179.95 207.55 179.95 208.05 179.95 208.85 180.05 209.05 180.3 209.7 180.85 209.6
L 180.8 211.75
Q 180.25 212.1 179.1 212.95 178.05 213.75 177.4 214.1 177.25 214.2 174.9 215.15 172.8 216.05 171.1 217.6 170.25 218.35 169.85 219.1 169.5 219.55 169.35 220.25 169.2 220.65 169.1 221.35 168.75 222.85 169.1 224.05 169.35 224.85 169.8 225.35
L 169.8 225.4
Q 169.75 225.5 169.7 225.6 169.7 225.75 169.7 225.85 169.7 225.95 169.7 226.05 169.7 226.15 169.7 226.25 169.7 226.4 169.65 226.5 169.65 226.6 169.65 226.7 169.65 226.8 169.65 226.95 169.65 227.05 169.65 227.15 169.65 227.25 169.65 227.35 169.65 227.45 169.65 227.6 169.6 227.7 169.55 227.8 169.55 227.9 169.55 228 169.55 228.1 169.55 228.25 169.55 228.35 169.55 228.45 169.55 228.55 169.55 228.65 169.55 228.75 169.55 228.9 169.55 229 169.55 229.1 169.55 229.2 169.55 229.3 169.55 229.4 169.55 229.55 169.55 229.65 169.55 229.75 169.55 229.85 169.55 229.95 169.55 230.1 169.55 230.2 169.55 230.3 169.55 230.4 169.55 230.5 169.55 230.6 169.55 230.75 169.55 230.85 169.55 230.95 169.55 231.05 169.55 231.15 169.55 231.25 169.55 231.4 169.55 231.5 169.55 231.6 169.55 231.7 169.55 231.8 169.55 231.9 169.55 232.05 169.55 232.15 169.55 232.25 169.5 232.35 169.5 232.45 169.5 232.55 169.5 232.7 169.5 232.8 169.5 232.9 169.5 233 169.5 233.1 169.5 233.25 169.5 233.35 169.5 233.45 169.5 233.55 169.5 233.65 169.5 233.75 169.5 233.9 169.5 234 169.5 234.1 169.5 234.2 169.5 234.3 169.5 234.4 169.5 234.55 169.5 234.65 169.5 234.75 169.5 234.85 169.5 234.95 169.5 235.05 169.5 235.2 169.5 235.3 169.5 235.4 169.5 235.5 169.5 235.6 169.5 235.7 169.5 235.85 169.5 235.95 169.5 236.05 169.5 236.15 169.5 236.25 169.5 236.4 169.5 236.5 169.5 236.6 169.5 236.7 169.5 236.8 169.5 236.9 169.5 237.05 169.5 237.15 169.5 237.25 169.5 237.35 169.5 237.45 169.5 237.55 169.5 237.7 169.5 237.8 169.5 237.9 169.5 238 169.5 238.1 169.5 238.2 169.5 238.35 169.5 238.45 169.5 238.55 169.5 238.65 169.5 238.75 169.5 238.85 169.5 239 169.5 239.1 169.5 239.2 169.5 239.3 169.5 239.4 169.5 239.55 169.5 239.65 169.5 239.75 169.5 239.85 169.5 239.95 169.5 240.05 169.5 240.2 169.5 240.3 169.5 240.4 169.5 240.5 169.5 240.6 169.5 240.7 169.5 240.85 169.5 240.95 169.5 241.05 169.5 241.15 169.5 241.25 169.5 241.35 169.5 241.5 169.5 241.6 169.5 241.7 169.5 241.8 169.5 241.9 169.5 242 169.5 242.15 169.5 242.25 169.5 242.35 169.5 242.45 169.5 242.55 169.5 242.7 169.5 242.8 169.5 242.9 169.5 243 169.5 243.1 169.5 243.2 169.5 243.35 169.5 243.45 169.5 243.55 169.5 243.65 169.5 243.75 169.5 243.85 169.5 244 169.5 244.1 169.5 244.2 169.5 244.3 169.5 244.4 169.5 244.5 169.5 244.65 169.5 244.75 169.5 244.85 169.5 244.95 169.5 245.05 169.5 245.2 169.5 245.3 169.5 245.4 169.5 245.5 169.5 245.6 169.5 245.7 169.5 245.85 169.5 245.95 169.5 246.05 169.5 246.15 169.5 246.25 169.5 246.35 169.5 246.5 169.5 246.6 169.5 246.7 169.5 246.8 169.5 246.9 169.5 247 169.5 247.15 169.5 247.25 169.5 247.35 169.5 247.45 169.5 247.55 169.5 247.65 169.5 247.8 169.5 247.9 169.5 248 169.5 248.1 169.5 248.2 169.5 248.35 169.5 248.45 169.5 248.55 169.5 248.65 169.5 248.75 169.5 248.85 169.5 249 169.5 249.1 169.5 249.2 169.5 249.3 169.5 249.4 169.5 249.5 169.5 249.65 169.5 249.75 169.5 249.85 169.5 249.95 169.5 250.05 169.5 250.15 169.5 250.3 169.5 250.4 169.5 250.5 169.5 250.6 169.5 250.7 169.5 250.8 169.5 250.95 169.5 251.05 169.5 251.15 169.5 251.25 169.5 251.35 169.5 251.5 169.5 251.6 169.5 251.7 169.5 251.8 169.5 251.9 169.5 252 169.5 252.15 169.5 252.25 169.5 252.35 169.5 252.45 169.5 252.55 169.5 252.65 169.5 252.8 169.5 252.9 169.5 253 169.5 253.1 169.5 253.2 169.5 253.3 169.5 253.45 169.5 253.55 169.5 253.65 169.5 253.75 169.5 253.85 169.5 253.95 169.5 254.1 169.5 254.2 169.5 254.3 169.5 254.4 169.5 254.5 169.5 254.65 169.5 254.75 169.5 254.85 169.5 254.95 169.5 255.05 169.5 255.15 169.5 255.3 169.5 255.4 169.5 255.5 169.5 255.6 169.5 255.7 169.5 255.8 169.5 255.95 169.5 256.05 169.5 256.15 169.5 256.25 169.5 256.35 169.5 256.45 169.5 256.6 169.5 256.7 169.5 256.8 169.5 256.9 169.5 257 169.5 257.1 169.5 257.25 169.5 257.35 169.5 257.45 169.5 257.55 169.5 257.65 169.5 257.8 169.5 257.9 169.5 258 169.5 258.1 169.5 258.2 169.5 258.3 169.5 258.45 169.5 258.55 169.5 258.65 169.5 258.75 169.5 258.85 169.5 258.95 169.5 259.1 169.5 259.2 169.5 259.3 169.5 259.4 169.5 259.5 169.5 259.6 169.5 259.75 169.5 259.85 169.5 259.95 169.5 260.05 169.5 260.15 169.5 260.25 169.5 260.4 169.5 260.5 169.5 260.6 169.5 260.7 169.5 260.8 169.5 260.95 169.5 261.05 169.5 261.15 169.5 261.25 169.5 261.35 169.5 261.45 169.5 261.6 169.5 261.7 169.5 261.8 169.5 261.9 169.5 262 169.5 262.1 169.5 262.25 169.5 262.35 169.5 262.45 169.5 262.55 169.5 262.65 169.5 262.75 169.5 262.9 169.5 263 169.5 263.1 169.5 263.2 169.5 263.3 169.5 263.4 169.5 263.55 169.5 263.65 169.5 263.75 169.5 263.85 169.5 263.95 169.5 264.1 169.5 264.2 169.5 264.3 169.5 264.4 169.5 264.5 169.5 264.6 169.5 264.75 169.5 264.85 169.5 264.95 169.5 265.05 169.5 265.15 169.5 265.25 169.5 265.4 169.5 265.5 169.5 265.6 169.5 265.7 169.5 265.8 169.5 265.9 169.5 266.05 169.5 266.15 169.5 266.25 169.5 266.35 169.5 266.45
L 169.8 274.5 170.25 274.7
Q 172.05 278.05 175.3 279.85 177.45 280.65 179.7 281.3 191.5 285.15 202.25 279.2 204.75 277.5 206.25 274.7
L 206.7 274.5 207 266.45
Q 207 266.35 207 266.25 207 266.15 207 266.05 207 265.9 207 265.8 207 265.7 207 265.6 207 265.5 207 265.4 207 265.25 207 265.15 207 265.05 207 264.95 207 264.85 207 264.75 207 264.6 207 264.5 207 264.4 207 264.3 207 264.2 207 264.1 207 263.95 207 263.85 207 263.75 207 263.65 207 263.55 207 263.4 207 263.3 207 263.2 207 263.1 207 263 207 262.9 207 262.75 207 262.65 207 262.55 207 262.45 207 262.35 207 262.25 207 262.1 207 262 207 261.9 207 261.8 207 261.7 207 261.6 207 261.45 207 261.35 207 261.25 207 261.15 207 261.05 207 260.95 207 260.8 207 260.7 207 260.6 207 260.5 207 260.4 207 260.25 207 260.15 207 260.05 207 259.95 207 259.85 207 259.75 207 259.6 207 259.5 207 259.4 207 259.3 207 259.2 207 259.1 207 258.95 207 258.85 207 258.75 207 258.65 207 258.55 207 258.45 207 258.3 207 258.2 207 258.1 207 258 207 257.9 207 257.8 207 257.65 207 257.55 207 257.45 207 257.35 207 257.25 207 257.1 207 257 207 256.9 207 256.8 207 256.7 207 256.6 207 256.45 207 256.35 207 256.25 207 256.15 207 256.05 207 255.95 207 255.8 207 255.7 207 255.6 207 255.5 207 255.4 207 255.3 207 255.15 207 255.05 207 254.95 207 254.85 207 254.75 207 254.65 207 254.5 207 254.4 207 254.3 207 254.2 207 254.1 207 253.95 207 253.85 207 253.75 207 253.65 207 253.55 207 253.45 207 253.3 207 253.2 207 253.1 207 253 207 252.9 207 252.8 207 252.65 207 252.55 207 252.45 207 252.35 207 252.25 207 252.15 207 252 207 251.9 207 251.8 207 251.7 207 251.6 207 251.5 207 251.35 207 251.25 207 251.15 207 251.05 207 250.95 207 250.8 207 250.7 207 250.6 207 250.5 207 250.4 207 250.3 207 250.15 207 250.05 207 249.95 207 249.85 207 249.75 207 249.65 207 249.5 207 249.4 207 249.3 207 249.2 207 249.1 207 249 207 248.85 207 248.75 207 248.65 207 248.55 207 248.45 207 248.35 207 248.2 207 248.1 207 248 207 247.9 207 247.8 207 247.65 207 247.55 207 247.45 207 247.35 207 247.25 207 247.15 207 247 207 246.9 207 246.8 207 246.7 207 246.6 207 246.5 207 246.35 207 246.25 207 246.15 207 246.05 207 245.95 207 245.85 207 245.7 207 245.6 207 245.5 207 245.4 207 245.3 207 245.2 207 245.05 207 244.95 207 244.85 207 244.75 207 244.65 207 244.5 207 244.4 207 244.3 207 244.2 207 244.1 207 244 207 243.85 207 243.75 207 243.65 207 243.55 207 243.45 207 243.35 207 243.2 207 243.1 207 243 207 242.9 207 242.8 207 242.7 207 242.55 207 242.45 207 242.35 207 242.25 207 242.15 207 242 207 241.9 207 241.8 207 241.7 207 241.6 207 241.5 207 241.35 207 241.25 207 241.15 207 241.05 207 240.95 207 240.85 207 240.7 207 240.6 207 240.5 207 240.4 207 240.3 207 240.2 207 240.05 207 239.95 207 239.85 207 239.75 207 239.65 207 239.55 207 239.4 207 239.3 207 239.2 207 239.1 207 239 207 238.85 207 238.75 207 238.65 207 238.55 207 238.45 207 238.35 207 238.2 207 238.1 207 238 207 237.9 207 237.8 207 237.7 207 237.55 207 237.45 207 237.35 207 237.25 207 237.15 207 237.05 207 236.9 207 236.8 207 236.7 207 236.6 207 236.5 207 236.4 207 236.25 207 236.15 207 236.05 207 235.95 207 235.85 207 235.7 207 235.6 207 235.5 207 235.4 207 235.3 207 235.2 207 235.05 207 234.95 207 234.85 207 234.75 207 234.65 207 234.55 207 234.4 207 234.3 207 234.2 207 234.1 207 234 207 233.9 207 233.75 207 233.65 207 233.55 207 233.45 207 233.35 207 233.25 207 233.1 207 233 207 232.9 207 232.8 207 232.7 207 232.55 207 232.45 207 232.35 206.95 232.25 206.95 232.15 206.95 232.05 206.95 231.9 206.95 231.8 206.95 231.7 206.95 231.6 206.95 231.5 206.95 231.4 206.95 231.25 206.95 231.15 206.95 231.05 206.95 230.95 206.95 230.85 206.95 230.75 206.95 230.6 206.95 230.5 206.95 230.4 206.95 230.3 206.95 230.2 206.95 230.1 206.95 229.95 206.95 229.85 206.95 229.75 206.95 229.65 206.95 229.55 206.95 229.4 206.95 229.3 206.95 229.2 206.95 229.1 206.95 229 206.95 228.9 206.95 228.75 206.95 228.65 206.95 228.55 206.95 228.45 206.95 228.35 206.95 228.25 206.95 228.1 206.95 228 206.95 227.9 206.95 227.8 206.9 227.7 206.85 227.6 206.85 227.45 206.85 227.35 206.85 227.25 206.85 227.15 206.85 227.05 206.85 226.95 206.85 226.8 206.85 226.7 206.85 226.6 206.85 226.5 206.8 226.4 206.8 226.25 206.8 226.15 206.8 226.05 206.8 225.95 206.8 225.85 206.8 225.75 206.8 225.6 206.75 225.5 206.7 225.4
L 206.7 225.35
Q 207.15 224.85 207.4 224.05 207.75 222.85 207.4 221.35 207.3 220.65 207.15 220.25 207 219.55 206.65 219.1 206.25 218.35 205.4 217.6 203.7 216.05 201.6 215.15 199.25 214.2 199.1 214.1 198.45 213.75 197.4 212.95 196.25 212.1 195.7 211.75
L 195.65 209.6
Q 196.2 209.7 196.45 209.05 196.55 208.85 196.55 208.05 196.55 207.55 196.35 207.3 196.15 207.05 195.6 207 194.9 207 194.7 206.85
L 194.7 206.5
Q 195.2 206.45 195.65 206.3 195.65 206.35 195.7 206.45
L 195.7 206.5
Q 196 206.45 196.3 206.45 196.35 206.3 196.45 206.2 196.45 206.1 196.5 206 196.55 205.9 196.6 205.8 196.6 205.65 196.6 205.55 196.6 205.45 196.6 205.35 196.6 205.25 196.6 205.15 196.6 205 196.6 204.9 196.6 204.8 196.6 204.7 196.6 204.6 196.6 204.5 196.6 204.35 196.6 204.25 196.6 204.15 196.6 204.05 196.6 203.95 196.6 203.8 196.6 203.7 196.6 203.6 196.6 203.5 196.6 203.4 196.6 203.3 196.6 203.15 196.6 203.05 196.6 202.95 196.6 202.85 196.6 202.75 196.6 202.65 196.6 202.5 196.6 202.4 196.6 202.3 196.6 202.2 196.6 202.1 196.6 202 196.6 201.85 196.6 201.75 196.6 201.65 196.6 201.55 196.6 201.45 196.6 201.35 196.6 201.2 196.6 201.1 196.6 201 196.6 200.9 196.6 200.8 196.6 200.65 196.6 200.55 196.6 200.45 196.6 200.35 196.6 200.25 196.6 200.15 196.6 200 196.6 199.9 196.6 199.8 196.6 199.7 196.6 199.6 196.6 199.5 196.6 199.35 196.6 199.25 196.6 199.15 196.6 199.05 196.6 198.95 196.6 198.85 196.6 198.7 196.6 198.6 196.6 198.5 196.6 198.45 196.65 198.4 196.7 198.4 196.65 198.35 196.6 198.35 196.6 198.25 196.6 198.2 196.6 198.05 196.6 197.95 196.6 197.85 196.6 197.75 196.6 197.65 196.6 197.5 196.45 197.4 196.35 197.3 196.3 197.2 196.2 197.1 196.2 197 196.15 196.85 196.15 196.75 196.15 196.65 196.05 196.55 195.9 196.45 195.9 196.35 195.85 196.2 195.85 196.1 195.85 196 195.85 195.9 195.85 195.8 195.75 195.7 195.65 195.55 195.55 195.45 195.5 195.35 195.35 195.25 195.2 195.15 194.95 195.05 194.7 194.9 194.55 194.8 194.4 194.7 194.25 194.6 194.1 194.5 194.1 194.35 194.1 194.25 194.1 194.15 194.1 194.05 194.1 193.95 194.1 193.85 194 193.7 193.9 193.6 193.8 193.5 193.75 193.4 193.65 193.3 193.55 193.2 193.45 193.1 193.3 193.05 193.2 193 193.1 192.95 192.9 192.95 192.75 192.95 192.7 192.95 192.65 192.95 192.85 192.1 192.85 190.75
L 192.75 188
Q 193.8 188.15 195.8 187.75
L 198.4 187.05
Q 199.9 186.6 200.35 186.4 200.9 186.2 201.05 185.9 201.25 185.55 201.25 185.1 201.25 183.85 200.15 183.15 199.6 182.85 198.35 182.65 195.8 182.35 193.6 182.4
L 191.5 182.45
Q 189.5 182.55 188.4 182.65
L 183.95 183
Q 182.75 183.1 182.35 183.6 182.15 183.85 182.05 184.85 182.05 186 182.35 186.45 182.55 186.75 183.35 187.2 183.6 187.3 183.8 187.4 183.75 187.55 183.75 187.75
L 183.65 190.75
Q 183.65 192.1 183.85 192.95 183.8 192.95 183.75 192.95 183.6 192.95 183.4 192.95 183.3 193 183.2 193.05 183.05 193.1 182.95 193.2 182.85 193.3 182.75 193.4 182.7 193.5 182.6 193.6 182.5 193.7 182.4 193.85 182.4 193.95 182.4 194.05 182.4 194.15 182.4 194.25 182.4 194.35 182.4 194.5 182.25 194.6 182.1 194.7
M 181.9 196.3
Q 181.95 196.2 182 196.1 182.3 196 182.6 195.95 182.6 195.9 182.6 195.85 182.7 195.8 182.75 195.7 182.95 195.65 183.1 195.55 183.2 195.55 183.25 195.5 183.3 195.4 183.35 195.35 183.35 195.25 183.4 195.15 183.4 195.05 183.4 194.9 183.35 194.8 183.35 194.7 183.35 194.6 183.35 194.5 183.45 194.35 183.55 194.25 183.6 194.15 183.7 194.05 183.8 193.95 183.9 193.85 184.05 193.7 184.2 193.6 184.55 193.55 184.7 193.15 184.8 193 184.9 192.3
L 184.9 188.9
Q 184.8 188.55 184.95 188.25
L 185.15 187.8
Q 185.15 187.65 185.1 187.55 185.4 187.4 185.35 187.1 185.35 186.8 184.85 186.6 184.5 186.45 184.25 186.35
L 184.5 186.3
Q 185.95 186.3 186.3 186.2
L 187 186.05 187.55 186 192.6 186 191.7 186.55
Q 191.4 186.75 191.35 186.9 191.15 187.2 191.5 187.3
L 191.55 187.3
Q 191.35 187.55 191.35 187.8
L 191.55 188.25
Q 191.7 188.55 191.6 188.9
L 191.6 192.3
Q 191.7 193 191.8 193.15 191.95 193.55 192.3 193.6 192.45 193.7 192.6 193.85 192.7 193.95 192.8 194.05 192.9 194.15 192.95 194.25 193.05 194.35 193.15 194.5 193.15 194.6 193.15 194.7 193.15 194.8 193.1 194.9 193.1 195.05 193.1 195.15 193.15 195.25 193.15 195.35 193.2 195.4 193.25 195.5 193.3 195.55 193.4 195.55 193.55 195.65 193.75 195.7 193.8 195.8 193.9 195.85 193.9 195.9 193.9 195.95 194.2 196 194.5 196.1 194.55 196.2 194.6 196.3 194.65 196.4 194.7 196.5 194.75 196.6 194.75 196.75 194.75 196.85 194.75 196.95 194.8 197.05 194.85 197.15 194.85 197.25 194.9 197.4 195 197.5 195.05 197.6
L 195.05 197.65
Q 194.6 197.45 194 197.3
L 191.1 196.75
Q 185.95 195.95 181.2 198.05 181.25 197.9 181.35 197.8 181.4 197.7 181.45 197.6 181.5 197.5 181.6 197.4 181.65 197.25 181.65 197.15 181.7 197.05 181.75 196.95 181.75 196.85 181.75 196.75 181.75 196.6 181.8 196.5 181.85 196.4 181.9 196.3
M 195.95 183.75
L 196.65 183.95
Q 197.2 184.1 198.45 184.1 199.7 184.3 199.75 185.15
L 198.95 185.4
Q 198.65 185.3 198.2 185.3
L 188 185.3
Q 186.65 185.35 184.05 185.65 183.7 185.7 183.45 185.8 183.2 185.5 183.15 185.05 183.15 184.6 183.45 184.35 183.55 184.3 184.25 184.15
L 195.95 183.75
M 203.45 218
Q 204.8 218.9 205.25 219.6 205.55 220.05 205.95 221.05 206.25 221.75 206.3 222.2 206.55 223.8 205.3 224.8 205.1 224.95 204.75 225.2 204.4 225.45 204.3 225.7 204.85 226.25 205.7 225.95 205.8 225.95 205.85 225.9 205.85 225.95 205.85 226 205.85 226.1 205.85 226.2 205.8 226.3 205.75 226.4 205.75 226.55 205.75 226.65 205.75 226.75 205.75 226.85 205.75 226.95 205.75 227.05 205.75 227.2 205.75 227.3 205.75 227.4 205.75 227.5 205.75 227.6 205.75 227.7 205.75 227.85 205.7 227.95 205.7 228.05 205.7 228.15 205.7 228.25 205.7 228.35 205.7 228.5 205.7 228.6 205.7 228.7 205.7 228.8 205.7 228.9 205.7 229.05 205.7 229.15 205.7 229.25 205.7 229.35 205.7 229.45 205.7 229.55 205.7 229.7 205.7 229.8 205.7 229.9 205.7 230 205.7 230.1 205.7 230.2 205.7 230.35 205.7 230.45 205.7 230.55 205.7 230.65 205.7 230.75 205.7 230.85 205.7 231 205.7 231.1 205.7 231.2 205.7 231.3 205.7 231.4 205.7 231.5 205.7 231.65 205.7 231.75 205.7 231.85 205.7 231.95 205.7 232.05 205.7 232.2 205.7 232.3 205.65 232.4 205.65 232.5 205.65 232.6 205.65 232.7 205.65 232.85 205.65 232.95 205.65 233.05 205.65 233.15 205.65 233.25 205.65 233.35 205.65 233.5 205.65 233.6 205.65 233.7 205.65 233.8 205.65 233.9 205.65 234 205.65 234.15 205.65 234.25 205.65 234.35 205.65 234.45 205.65 234.55 205.65 234.65 205.65 234.8 205.65 234.9 205.65 235 205.65 235.1 205.65 235.2 205.65 235.35 205.65 235.45 205.65 235.55 205.65 235.65 205.65 235.75 205.65 235.85 205.65 236 205.65 236.1 205.65 236.2 205.65 236.3 205.65 236.4 205.65 236.5 205.65 236.65 205.65 236.75 205.65 236.85 205.65 236.95 205.65 237.05 205.65 237.15 205.65 237.3 205.65 237.4 205.65 237.5 205.65 237.6 205.65 237.7 205.65 237.8 205.65 237.95 205.65 238.05 205.65 238.15 205.65 238.25 205.65 238.35 205.65 238.5 205.65 238.6 205.65 238.7 205.65 238.8 205.65 238.9 205.65 239 205.65 239.15 205.65 239.25 205.65 239.35 205.65 239.45 205.65 239.55 205.65 239.65 205.65 239.8 205.65 239.9 205.65 240 205.65 240.1 205.65 240.2 205.65 240.3 205.65 240.45 205.65 240.55 205.65 240.65 205.65 240.75 205.65 240.85 205.65 240.95 205.65 241.1 205.65 241.2 205.65 241.3 205.65 241.4 205.65 241.5 205.65 241.65 205.65 241.75 205.65 241.85 205.65 241.95 205.65 242.05 205.65 242.15 205.65 242.3 205.65 242.4 205.65 242.5 205.65 242.6 205.65 242.7 205.65 242.8 205.65 242.95 205.65 243.05 205.65 243.15 205.65 243.25 205.65 243.35 205.65 243.45 205.65 243.6 205.65 243.7 205.65 243.8 205.65 243.9 205.65 244 205.65 244.1 205.65 244.25 205.65 244.35 205.65 244.45 205.65 244.55 205.65 244.65 205.65 244.8 205.65 244.9 205.65 245 205.65 245.1 205.65 245.2 205.65 245.3 205.65 245.45 205.65 245.55 205.65 245.65 205.65 245.75 205.65 245.85 205.65 245.95 205.65 246.1 205.65 246.2 205.65 246.3 205.65 246.4 205.65 246.5 205.65 246.6 205.65 246.75 205.65 246.85 205.65 246.95 205.65 247.05 205.65 247.15 205.65 247.3 205.65 247.4 205.65 247.5 205.65 247.6 205.65 247.7 205.65 247.8 205.65 247.95 205.65 248.05 205.65 248.15 205.65 248.25 205.65 248.35 205.65 248.45 205.65 248.6 205.65 248.7 205.65 248.8 205.65 248.9 205.65 249 205.65 249.1 205.65 249.25 205.65 249.35 205.65 249.45 205.65 249.55 205.65 249.65 205.65 249.75 205.65 249.9 205.65 250 205.65 250.1 205.65 250.2 205.65 250.3 205.65 250.45 205.65 250.55 205.65 250.65 205.65 250.75 205.65 250.85 205.65 250.95 205.65 251.1 205.65 251.2 205.65 251.3 205.65 251.4 205.65 251.5 205.65 251.6 205.65 251.75 205.65 251.85 205.65 251.95 205.65 252.05 205.65 252.15 205.65 252.25 205.65 252.4 205.65 252.5 205.65 252.6 205.65 252.7 205.65 252.8 205.65 252.9 205.65 253.05 205.65 253.15 205.65 253.25 205.65 253.35 205.65 253.45 205.65 253.6 205.65 253.7 205.65 253.8 205.65 253.9 205.65 254 205.65 254.1 205.65 254.25 205.65 254.35 205.65 254.45 205.65 254.55 205.65 254.65 205.65 254.75 205.65 254.9 205.65 255 205.65 255.1 205.65 255.2 205.65 255.3 205.65 255.4 205.65 255.55 205.65 255.65 205.65 255.75 205.65 255.85 205.65 255.95 205.65 256.05 205.65 256.2 205.65 256.3 205.65 256.4 205.65 256.5 205.65 256.6 205.65 256.75 205.65 256.85 205.65 256.95 205.65 257.05 205.65 257.15 205.65 257.25 205.65 257.4 205.65 257.5 205.65 257.6 205.65 257.7 205.65 257.8 205.65 257.9 205.65 258.05 205.65 258.15 205.65 258.25 205.65 258.35 205.65 258.45 205.65 258.55 205.65 258.7 205.65 258.8 205.65 258.9 205.65 259 205.65 259.1 205.65 259.2 205.65 259.35 205.65 259.45 205.65 259.55 205.65 259.65 205.65 259.75 205.65 259.9 205.65 260 205.65 260.1 205.65 260.2 205.65 260.3 205.65 260.4 205.65 260.55 205.65 260.65 205.65 260.75 205.65 260.85 205.65 260.95 205.65 261.05 205.65 261.2 205.65 261.3 205.65 261.4 205.65 261.5 205.65 261.6 205.65 261.7 205.65 261.85 205.65 261.95 205.65 262.05 205.65 262.15 205.65 262.25 205.65 262.35 205.65 262.5 205.65 262.6 205.65 262.7 205.65 262.8 205.65 262.9 205.65 263.05 205.65 263.15 205.65 263.25 205.65 263.35 205.65 263.45 205.65 263.55 205.65 263.7 205.65 263.8 205.65 263.9 205.65 264 205.65 264.1 205.65 264.2 205.65 264.35 205.65 264.45 205.65 264.55 205.65 264.65 205.65 264.75 205.65 264.85 205.65 265 205.65 265.1 205.65 265.2 205.65 265.3 205.65 265.4 205.65 265.5 205.65 265.65 205.65 265.75 205.65 265.85 205.65 265.95 205.65 266.05 205.65 266.2 205.65 266.3 205.65 266.4
L 205.75 273.8
Q 202.6 277.3 199.45 279.2 199 279.5 198.55 279.7 187.65 283.75 177.1 279.2 173.9 277.3 170.75 273.8
L 170.85 266.4
Q 170.85 266.3 170.85 266.2 170.85 266.05 170.85 265.95 170.85 265.85 170.85 265.75 170.85 265.65 170.85 265.5 170.85 265.4 170.85 265.3 170.85 265.2 170.85 265.1 170.85 265 170.85 264.85 170.85 264.75 170.85 264.65 170.85 264.55 170.85 264.45 170.85 264.35 170.85 264.2 170.85 264.1 170.85 264 170.85 263.9 170.85 263.8 170.85 263.7 170.85 263.55 170.85 263.45 170.85 263.35 170.85 263.25 170.85 263.15 170.85 263.05 170.85 262.9 170.85 262.8 170.85 262.7 170.85 262.6 170.85 262.5 170.85 262.35 170.85 262.25 170.85 262.15 170.85 262.05 170.85 261.95 170.85 261.85 170.85 261.7 170.85 261.6 170.85 261.5 170.85 261.4 170.85 261.3 170.85 261.2 170.85 261.05 170.85 260.95 170.85 260.85 170.85 260.75 170.85 260.65 170.85 260.55 170.85 260.4 170.85 260.3 170.85 260.2 170.85 260.1 170.85 260 170.85 259.9 170.85 259.75 170.85 259.65 170.85 259.55 170.85 259.45 170.85 259.35 170.85 259.2 170.85 259.1 170.85 259 170.85 258.9 170.85 258.8 170.85 258.7 170.85 258.55 170.85 258.45 170.85 258.35 170.85 258.25 170.85 258.15 170.85 258.05 170.85 257.9 170.85 257.8 170.85 257.7 170.85 257.6 170.85 257.5 170.85 257.4 170.85 257.25 170.85 257.15 170.85 257.05 170.85 256.95 170.85 256.85 170.85 256.75 170.85 256.6 170.85 256.5 170.85 256.4 170.85 256.3 170.85 256.2 170.85 256.05 170.85 255.95 170.85 255.85 170.85 255.75 170.85 255.65 170.85 255.55 170.85 255.4 170.85 255.3 170.85 255.2 170.85 255.1 170.85 255 170.85 254.9 170.85 254.75 170.85 254.65 170.85 254.55 170.85 254.45 170.85 254.35 170.85 254.25 170.85 254.1 170.85 254 170.85 253.9 170.85 253.8 170.85 253.7 170.85 253.6 170.85 253.45 170.85 253.35 170.85 253.25 170.85 253.15 170.85 253.05 170.85 252.9 170.85 252.8 170.85 252.7 170.85 252.6 170.85 252.5 170.85 252.4 170.85 252.25 170.85 252.15 170.85 252.05 170.85 251.95 170.85 251.85 170.85 251.75 170.85 251.6 170.85 251.5 170.85 251.4 170.85 251.3 170.85 251.2 170.85 251.1 170.85 250.95 170.85 250.85 170.85 250.75 170.85 250.65 170.85 250.55 170.85 250.45 170.85 250.3 170.85 250.2 170.85 250.1 170.85 250 170.85 249.9 170.85 249.75 170.85 249.65 170.85 249.55 170.85 249.45 170.85 249.35 170.85 249.25 170.85 249.1 170.85 249 170.85 248.9 170.85 248.8 170.85 248.7 170.85 248.6 170.85 248.45 170.85 248.35 170.85 248.25 170.85 248.15 170.85 248.05 170.85 247.95 170.85 247.8 170.85 247.7 170.85 247.6 170.85 247.5 170.85 247.4 170.85 247.3 170.85 247.15 170.85 247.05 170.85 246.95 170.85 246.85 170.85 246.75 170.85 246.6 170.85 246.5 170.85 246.4 170.85 246.3 170.85 246.2 170.85 246.1 170.85 245.95 170.85 245.85 170.85 245.75 170.85 245.65 170.85 245.55 170.85 245.45 170.85 245.3 170.85 245.2 170.85 245.1 170.85 245 170.85 244.9 170.85 244.8 170.85 244.65 170.85 244.55 170.85 244.45 170.85 244.35 170.85 244.25 170.85 244.1 170.85 244 170.85 243.9 170.85 243.8 170.85 243.7 170.85 243.6 170.85 243.45 170.85 243.35 170.85 243.25 170.85 243.15 170.85 243.05 170.85 242.95 170.85 242.8 170.85 242.7 170.85 242.6 170.85 242.5 170.85 242.4 170.85 242.3 170.85 242.15 170.85 242.05 170.85 241.95 170.85 241.85 170.85 241.75 170.85 241.65 170.85 241.5 170.85 241.4 170.85 241.3 170.85 241.2 170.85 241.1 170.85 240.95 170.85 240.85 170.85 240.75 170.85 240.65 170.85 240.55 170.85 240.45 170.85 240.3 170.85 240.2 170.85 240.1 170.85 240 170.85 239.9 170.85 239.8 170.85 239.65 170.85 239.55 170.85 239.45 170.85 239.35 170.85 239.25 170.85 239.15 170.85 239 170.85 238.9 170.85 238.8 170.85 238.7 170.85 238.6 170.85 238.5 170.85 238.35 170.85 238.25 170.85 238.15 170.85 238.05 170.85 237.95 170.85 237.8 170.85 237.7 170.85 237.6 170.85 237.5 170.85 237.4 170.85 237.3 170.85 237.15 170.85 237.05 170.85 236.95 170.85 236.85 170.85 236.75 170.85 236.65 170.85 236.5 170.85 236.4 170.85 236.3 170.85 236.2 170.85 236.1 170.85 236 170.85 235.85 170.85 235.75 170.85 235.65 170.85 235.55 170.85 235.45 170.85 235.35 170.85 235.2 170.85 235.1 170.85 235 170.85 234.9 170.85 234.8 170.85 234.65 170.85 234.55 170.85 234.45 170.85 234.35 170.85 234.25 170.85 234.15 170.85 234 170.85 233.9 170.85 233.8 170.85 233.7 170.85 233.6 170.85 233.5 170.85 233.35 170.85 233.25 170.85 233.15 170.85 233.05 170.85 232.95 170.85 232.85 170.85 232.7 170.85 232.6 170.85 232.5 170.85 232.4 170.8 232.3 170.8 232.2 170.8 232.05 170.8 231.95 170.8 231.85 170.8 231.75 170.8 231.65 170.8 231.5 170.8 231.4 170.8 231.3 170.8 231.2 170.8 231.1 170.8 231 170.8 230.85 170.8 230.75 170.8 230.65 170.8 230.55 170.8 230.45 170.8 230.35 170.8 230.2 170.8 230.1 170.8 230 170.8 229.9 170.8 229.8 170.8 229.7 170.8 229.55 170.8 229.45 170.8 229.35 170.8 229.25 170.8 229.15 170.8 229.05 170.8 228.9 170.8 228.8 170.8 228.7 170.8 228.6 170.8 228.5 170.8 228.35 170.8 228.25 170.8 228.15 170.8 228.05 170.8 227.95 170.75 227.85 170.75 227.7 170.75 227.6 170.75 227.5 170.75 227.4 170.75 227.3 170.75 227.2 170.75 227.05 170.75 226.95 170.75 226.85 170.75 226.75 170.75 226.65 170.75 226.55 170.75 226.4 170.7 226.3 170.65 226.2 170.65 226.1 170.65 226 170.65 225.95 170.65 225.9 170.7 225.95 170.8 225.95 171.65 226.25 172.2 225.7 172.1 225.45 171.75 225.2 171.4 224.95 171.2 224.8 169.95 223.8 170.2 222.2 170.25 221.75 170.55 221.05 170.95 220.05 171.25 219.6 171.7 218.9 173.05 218
L 175.3 216.45 176.75 215.9
Q 178.35 215.35 181.1 213.2 181.75 212.75 181.9 212.35 182 212.05 182 211.45
L 181.95 209.3
Q 181.85 208.75 181.7 208.65 181.45 208.6 181.3 208.55 181.1 208.45 181.1 208.3
L 182.5 208.15 182.55 208.15
Q 187.75 208.2 192.95 208.25 193.25 208.2 193.55 208.15
L 193.6 208.1
Q 193.75 208.05 193.85 208.05 193.9 208.1 193.95 208.15
L 195.4 208.3
Q 195.4 208.45 195.2 208.55 195.05 208.6 194.8 208.65 194.65 208.75 194.55 209.3
L 194.5 211.45
Q 194.5 212.05 194.6 212.35 194.75 212.75 195.4 213.2 198.15 215.35 199.75 215.9
L 201.2 216.45 203.45 218
M 195.35 199.1
Q 195.35 199.25 195.35 199.35 195.35 199.45 195.35 199.55 195.35 199.65 195.35 199.75 195.35 199.9 195.35 200 195.35 200.1 195.35 200.2 195.35 200.3 195.35 200.4 195.35 200.55 195.35 200.65 195.35 200.75 195.35 200.85 195.35 200.95 195.35 201.05 195.35 201.2 195.35 201.3 195.35 201.4 195.35 201.5 195.35 201.6 195.35 201.7 195.35 201.85 195.35 201.95 195.35 202.05 195.35 202.15 195.35 202.25 195.35 202.4 195.35 202.5 195.35 202.6 195.35 202.7 195.35 202.8 195.35 202.9 195.35 203.05 195.35 203.15 195.35 203.25 195.35 203.35 195.35 203.45 195.35 203.55 195.35 203.7 195.35 203.8 195.35 203.9 195.35 204 195.35 204.1 195.35 204.2 195.35 204.35 195.35 204.45 195.35 204.55 195.35 204.65 195.35 204.75 195.35 204.85 195.35 205 195.35 205.1 195.35 205.2 195.35 205.3 195.35 205.4 194.9 205.3 194.6 205.3 194.15 205.2 193.9 205.4 193.8 205.45 193.75 205.65 188.2 205.6 182.75 205.55 182.7 205.45 182.6 205.4 182.35 205.2 181.9 205.3 181.6 205.3 181.15 205.4 181.15 205.3 181.15 205.2 181.15 205.1 181.15 205 181.15 204.85 181.15 204.75 181.15 204.65 181.15 204.55 181.15 204.45 181.15 204.35 181.15 204.2 181.15 204.1 181.15 204 181.15 203.9 181.15 203.8 181.15 203.7 181.15 203.55 181.15 203.45 181.15 203.35 181.15 203.25 181.15 203.15 181.15 203.05 181.15 202.9 181.15 202.8 181.15 202.7 181.15 202.6 181.15 202.5 181.15 202.4 181.15 202.25 181.15 202.15 181.15 202.05 181.15 201.95 181.15 201.85 181.15 201.7 181.15 201.6 181.15 201.5 181.15 201.4 181.15 201.3 181.15 201.2 181.15 201.05 181.15 200.95 181.15 200.85 181.15 200.75 181.15 200.65 181.15 200.55 181.15 200.4 181.15 200.3 181.15 200.2 181.15 200.1 181.15 200 181.15 199.9 181.15 199.75 181.15 199.65 181.15 199.55 181.15 199.45 181.15 199.35 181.15 199.25 181.15 199.1 181.15 199 181.15 198.9 181.15 198.8 181.15 198.7
L 181.15 198.65
Q 181.75 198.6 182.65 198.3 187.55 196.7 192.5 197.9 193.2 198.05 194.6 198.4 195 198.45 195.35 198.5 195.35 198.6 195.35 198.7 195.35 198.8 195.35 198.9 195.35 199 195.35 199.1
M 193.6 206.05
Q 193.55 206.2 193.55 206.35 193.55 207.2 193.75 207.7 193.65 207.7 193.6 207.65 193.45 207.65 193.3 207.6 193.15 207.55 192.95 207.5 187.9 207.5 182.85 207.5 182.95 207.05 182.95 206.35 182.95 206.25 182.95 206.15 188.25 206.1 193.6 206.05
M 174.9 226
Q 175.1 226.5 175.9 226.7 179.15 227.5 182 227.65 182.55 227.65 182.6 227.95 187.5 228.15 190 228.15 194.8 228.1 199.45 227.25 201.7 226.95 202.45 225.85
L 202.15 225.6
Q 198.05 226.7 191.65 227.05 186.15 227.3 182.25 227 180.5 226.85 177.25 226.35
L 174.9 226
M 172.5 220.85
Q 172.2 221.2 172.35 221.75 172.5 222.25 172.95 222.55 173.55 222.95 174.5 223.05 175.1 223.15 176.2 223.2 177.8 223.3 180.95 224.05 182.4 224.3 185.4 224.4
L 191.4 224.5
Q 195.9 224.6 199.15 223.95
L 200.5 223.6
Q 201.35 223.45 202.1 223.1 203.5 222.55 204.35 221.4 203.45 221.3 201.95 222 197.85 223.65 190.45 223.55 187.05 223.55 183.75 223.4 182.05 223.4 180.4 223.1 179.35 222.9 178.8 222.8 177.5 222.55 176.3 222.5 174.6 222.5 174.05 222.35 172.7 221.85 172.5 220.85
M 190.1 213.85
Q 190.25 213.75 190.15 213.65
L 187.25 213.6 186.5 213.65 186.5 213.8 189.85 213.9 190.1 213.85
M 189.5 213.25
L 189.85 213.2 190.3 212.85 190.85 212.8
Q 191.3 212.7 191.15 212.45
L 184.7 212.5
Q 184.4 212.5 184.25 212.6 184 212.7 184 212.95 184.1 213.15 184.55 213.15
L 189.5 213.25
M 203.55 234.35
Q 203.5 233.8 203.3 233.25 203 233 202.55 233.2 195.1 234.5 187.4 234.3 182.15 234.2 176.95 233.9 175.15 233.55 173.35 233.25
L 172.6 233.3
Q 172.15 234.2 172.15 235.45 172.05 245.95 171.95 256.35 171.9 260.8 171.9 265.25 171.9 267.2 171.95 269.15 171.95 269.75 172.15 270.65
L 172.9 270.45
Q 176.2 272.85 180.3 273.8 181.7 274.3 183.2 274.6 185.9 274.8 188.7 274.65 190.85 274.55 192.75 274.55 198.4 273.7 203 270.4
L 203.75 270.6
Q 204.15 269.95 204.1 269.1 203.95 267.15 203.95 265.2 203.95 260.75 203.9 256.3 203.85 250.3 203.8 244.35 203.75 239.35 203.55 234.35
M 172.75 233.75
Q 177 234.9 181.55 235.1 181.9 235.3 182.25 235.5 187.5 235.5 192.6 235.6 193.65 235.8 194.6 235.2
L 194.15 235.05
Q 198.75 234.95 203.15 233.7
L 202.95 269.95
Q 201.65 270.45 200.4 270.95 199.55 271.35 198.65 271.65 192.8 274.15 186.7 273.75 185.45 273.7 184.3 273.35 181.65 273.1 179.15 272.2 175.9 271.25 172.95 270
L 172.75 233.75
M 185.95 192.3
Q 185.95 192.35 185.95 192.4 185.85 192.4 185.7 192.4 185.65 192.4 185.55 192.45 185.55 192.55 185.5 192.6 185.6 192.7 185.7 192.8 187.7 192.85 189.7 192.9 189.8 192.85 189.9 192.8 190.05 192.8 190.2 192.75 190.2 192.65 190.2 192.6 190.05 192.5 189.9 192.4 187.95 192.35 185.95 192.3 Z"/>

<path fill="#7097A8" stroke="none" d="
M 193.55 206.35
Q 193.55 206.2 193.6 206.05 188.25 206.1 182.95 206.15 182.95 206.25 182.95 206.35 182.95 207.05 182.85 207.5 187.9 207.5 192.95 207.5 193.15 207.55 193.3 207.6 193.45 207.65 193.6 207.65 193.65 207.7 193.75 207.7 193.55 207.2 193.55 206.35 Z"/>

<path fill="#E5F6FB" stroke="none" d="
M 195.35 199.35
Q 195.35 199.25 195.35 199.1 195.35 199 195.35 198.9 195.35 198.8 195.35 198.7 195.35 198.6 195.35 198.5 195 198.45 194.6 198.4 193.2 198.05 192.5 197.9 187.55 196.7 182.65 198.3 181.75 198.6 181.15 198.65
L 181.15 198.7
Q 181.15 198.8 181.15 198.9 181.15 199 181.15 199.1 181.15 199.25 181.15 199.35 181.15 199.45 181.15 199.55 181.15 199.65 181.15 199.75 181.15 199.9 181.15 200 181.15 200.1 181.15 200.2 181.15 200.3 181.15 200.4 181.15 200.55 181.15 200.65 181.15 200.75 181.15 200.85 181.15 200.95 181.15 201.05 181.15 201.2 181.15 201.3 181.15 201.4 181.15 201.5 181.15 201.6 181.15 201.7 181.15 201.85 181.15 201.95 181.15 202.05 181.15 202.15 181.15 202.25 181.15 202.4 181.15 202.5 181.15 202.6 181.15 202.7 181.15 202.8 181.15 202.9 181.15 203.05 181.15 203.15 181.15 203.25 181.15 203.35 181.15 203.45 181.15 203.55 181.15 203.7 181.15 203.8 181.15 203.9 181.15 204 181.15 204.1 181.15 204.2 181.15 204.35 181.15 204.45 181.15 204.55 181.15 204.65 181.15 204.75 181.15 204.85 181.15 205 181.15 205.1 181.15 205.2 181.15 205.3 181.15 205.4 181.6 205.3 181.9 205.3 182.35 205.2 182.6 205.4 182.7 205.45 182.75 205.55 188.2 205.6 193.75 205.65 193.8 205.45 193.9 205.4 194.15 205.2 194.6 205.3 194.9 205.3 195.35 205.4 195.35 205.3 195.35 205.2 195.35 205.1 195.35 205 195.35 204.85 195.35 204.75 195.35 204.65 195.35 204.55 195.35 204.45 195.35 204.35 195.35 204.2 195.35 204.1 195.35 204 195.35 203.9 195.35 203.8 195.35 203.7 195.35 203.55 195.35 203.45 195.35 203.35 195.35 203.25 195.35 203.15 195.35 203.05 195.35 202.9 195.35 202.8 195.35 202.7 195.35 202.6 195.35 202.5 195.35 202.4 195.35 202.25 195.35 202.15 195.35 202.05 195.35 201.95 195.35 201.85 195.35 201.7 195.35 201.6 195.35 201.5 195.35 201.4 195.35 201.3 195.35 201.2 195.35 201.05 195.35 200.95 195.35 200.85 195.35 200.75 195.35 200.65 195.35 200.55 195.35 200.4 195.35 200.3 195.35 200.2 195.35 200.1 195.35 200 195.35 199.9 195.35 199.75 195.35 199.65 195.35 199.55 195.35 199.45 195.35 199.35
M 182 196.1
Q 181.95 196.2 181.9 196.3 181.85 196.4 181.8 196.5 181.75 196.6 181.75 196.75 181.75 196.85 181.75 196.95 181.7 197.05 181.65 197.15 181.65 197.25 181.6 197.4 181.5 197.5 181.45 197.6 181.4 197.7 181.35 197.8 181.25 197.9 181.2 198.05 185.95 195.95 191.1 196.75
L 194 197.3
Q 194.6 197.45 195.05 197.65
L 195.05 197.6
Q 195 197.5 194.9 197.4 194.85 197.25 194.85 197.15 194.8 197.05 194.75 196.95 194.75 196.85 194.75 196.75 194.75 196.6 194.7 196.5 194.65 196.4 194.6 196.3 194.55 196.2 194.5 196.1 194.2 196 193.9 195.95 193.9 195.9 193.9 195.85 193.8 195.8 193.75 195.7 193.55 195.65 193.4 195.55 193.3 195.55 193.25 195.5 193.2 195.4 193.15 195.35 193.15 195.25 193.1 195.15 193.1 195.05 193.1 194.9 193.15 194.8 193.15 194.7 193.15 194.6 193.15 194.5 193.05 194.35 192.95 194.25 192.9 194.15 192.8 194.05 192.7 193.95 192.6 193.85 192.45 193.7 192.3 193.6 191.95 193.55 191.8 193.15 191.7 193 191.6 192.3
L 191.6 188.9
Q 191.7 188.55 191.55 188.25
L 191.35 187.8
Q 191.35 187.55 191.55 187.3
L 191.5 187.3
Q 191.15 187.2 191.35 186.9 191.4 186.75 191.7 186.55
L 192.6 186 187.55 186 187 186.05 186.3 186.2
Q 185.95 186.3 184.5 186.3
L 184.25 186.35
Q 184.5 186.45 184.85 186.6 185.35 186.8 185.35 187.1 185.4 187.4 185.1 187.55 185.15 187.65 185.15 187.8
L 184.95 188.25
Q 184.8 188.55 184.9 188.9
L 184.9 192.3
Q 184.8 193 184.7 193.15 184.55 193.55 184.2 193.6 184.05 193.7 183.9 193.85 183.8 193.95 183.7 194.05 183.6 194.15 183.55 194.25 183.45 194.35 183.35 194.5 183.35 194.6 183.35 194.7 183.35 194.8 183.4 194.9 183.4 195.05 183.4 195.15 183.35 195.25 183.35 195.35 183.3 195.4 183.25 195.5 183.2 195.55 183.1 195.55 182.95 195.65 182.75 195.7 182.7 195.8 182.6 195.85 182.6 195.9 182.6 195.95 182.3 196 182 196.1
M 185.95 192.4
Q 185.95 192.35 185.95 192.3 187.95 192.35 189.9 192.4 190.05 192.5 190.2 192.6 190.2 192.65 190.2 192.75 190.05 192.8 189.9 192.8 189.8 192.85 189.7 192.9 187.7 192.85 185.7 192.8 185.6 192.7 185.5 192.6 185.55 192.55 185.55 192.45 185.65 192.4 185.7 192.4 185.85 192.4 185.95 192.4 Z"/>

<path fill="#ABD1DC" stroke="none" d="
M 205.25 219.6
Q 204.8 218.9 203.45 218
L 201.2 216.45 199.75 215.9
Q 198.15 215.35 195.4 213.2 194.75 212.75 194.6 212.35 194.5 212.05 194.5 211.45
L 194.55 209.3
Q 194.65 208.75 194.8 208.65 195.05 208.6 195.2 208.55 195.4 208.45 195.4 208.3
L 193.95 208.15
Q 193.9 208.1 193.85 208.05 193.75 208.05 193.6 208.1
L 193.55 208.15
Q 193.25 208.2 192.95 208.25 187.75 208.2 182.55 208.15
L 182.5 208.15 181.1 208.3
Q 181.1 208.45 181.3 208.55 181.45 208.6 181.7 208.65 181.85 208.75 181.95 209.3
L 182 211.45
Q 182 212.05 181.9 212.35 181.75 212.75 181.1 213.2 178.35 215.35 176.75 215.9
L 175.3 216.45 173.05 218
Q 171.7 218.9 171.25 219.6 170.95 220.05 170.55 221.05 170.25 221.75 170.2 222.2 169.95 223.8 171.2 224.8 171.4 224.95 171.75 225.2 172.1 225.45 172.2 225.7 171.65 226.25 170.8 225.95 170.7 225.95 170.65 225.9 170.65 225.95 170.65 226 170.65 226.1 170.65 226.2 170.7 226.3 170.75 226.4 170.75 226.55 170.75 226.65 170.75 226.75 170.75 226.85 170.75 226.95 170.75 227.05 170.75 227.2 170.75 227.3 170.75 227.4 170.75 227.5 170.75 227.6 170.75 227.7 170.75 227.85 170.8 227.95 170.8 228.05 170.8 228.15 170.8 228.25 170.8 228.35 170.8 228.5 170.8 228.6 170.8 228.7 170.8 228.8 170.8 228.9 170.8 229.05 170.8 229.15 170.8 229.25 170.8 229.35 170.8 229.45 170.8 229.55 170.8 229.7 170.8 229.8 170.8 229.9 170.8 230 170.8 230.1 170.8 230.2 170.8 230.35 170.8 230.45 170.8 230.55 170.8 230.65 170.8 230.75 170.8 230.85 170.8 231 170.8 231.1 170.8 231.2 170.8 231.3 170.8 231.4 170.8 231.5 170.8 231.65 170.8 231.75 170.8 231.85 170.8 231.95 170.8 232.05 170.8 232.2 170.8 232.3 170.85 232.4 170.85 232.5 170.85 232.6 170.85 232.7 170.85 232.85 170.85 232.95 170.85 233.05 170.85 233.15 170.85 233.25 170.85 233.35 170.85 233.5 170.85 233.6 170.85 233.7 170.85 233.8 170.85 233.9 170.85 234 170.85 234.15 170.85 234.25 170.85 234.35 170.85 234.45 170.85 234.55 170.85 234.65 170.85 234.8 170.85 234.9 170.85 235 170.85 235.1 170.85 235.2 170.85 235.35 170.85 235.45 170.85 235.55 170.85 235.65 170.85 235.75 170.85 235.85 170.85 236 170.85 236.1 170.85 236.2 170.85 236.3 170.85 236.4 170.85 236.5 170.85 236.65 170.85 236.75 170.85 236.85 170.85 236.95 170.85 237.05 170.85 237.15 170.85 237.3 170.85 237.4 170.85 237.5 170.85 237.6 170.85 237.7 170.85 237.8 170.85 237.95 170.85 238.05 170.85 238.15 170.85 238.25 170.85 238.35 170.85 238.5 170.85 238.6 170.85 238.7 170.85 238.8 170.85 238.9 170.85 239 170.85 239.15 170.85 239.25 170.85 239.35 170.85 239.45 170.85 239.55 170.85 239.65 170.85 239.8 170.85 239.9 170.85 240 170.85 240.1 170.85 240.2 170.85 240.3 170.85 240.45 170.85 240.55 170.85 240.65 170.85 240.75 170.85 240.85 170.85 240.95 170.85 241.1 170.85 241.2 170.85 241.3 170.85 241.4 170.85 241.5 170.85 241.65 170.85 241.75 170.85 241.85 170.85 241.95 170.85 242.05 170.85 242.15 170.85 242.3 170.85 242.4 170.85 242.5 170.85 242.6 170.85 242.7 170.85 242.8 170.85 242.95 170.85 243.05 170.85 243.15 170.85 243.25 170.85 243.35 170.85 243.45 170.85 243.6 170.85 243.7 170.85 243.8 170.85 243.9 170.85 244 170.85 244.1 170.85 244.25 170.85 244.35 170.85 244.45 170.85 244.55 170.85 244.65 170.85 244.8 170.85 244.9 170.85 245 170.85 245.1 170.85 245.2 170.85 245.3 170.85 245.45 170.85 245.55 170.85 245.65 170.85 245.75 170.85 245.85 170.85 245.95 170.85 246.1 170.85 246.2 170.85 246.3 170.85 246.4 170.85 246.5 170.85 246.6 170.85 246.75 170.85 246.85 170.85 246.95 170.85 247.05 170.85 247.15 170.85 247.3 170.85 247.4 170.85 247.5 170.85 247.6 170.85 247.7 170.85 247.8 170.85 247.95 170.85 248.05 170.85 248.15 170.85 248.25 170.85 248.35 170.85 248.45 170.85 248.6 170.85 248.7 170.85 248.8 170.85 248.9 170.85 249 170.85 249.1 170.85 249.25 170.85 249.35 170.85 249.45 170.85 249.55 170.85 249.65 170.85 249.75 170.85 249.9 170.85 250 170.85 250.1 170.85 250.2 170.85 250.3 170.85 250.45 170.85 250.55 170.85 250.65 170.85 250.75 170.85 250.85 170.85 250.95 170.85 251.1 170.85 251.2 170.85 251.3 170.85 251.4 170.85 251.5 170.85 251.6 170.85 251.75 170.85 251.85 170.85 251.95 170.85 252.05 170.85 252.15 170.85 252.25 170.85 252.4 170.85 252.5 170.85 252.6 170.85 252.7 170.85 252.8 170.85 252.9 170.85 253.05 170.85 253.15 170.85 253.25 170.85 253.35 170.85 253.45 170.85 253.6 170.85 253.7 170.85 253.8 170.85 253.9 170.85 254 170.85 254.1 170.85 254.25 170.85 254.35 170.85 254.45 170.85 254.55 170.85 254.65 170.85 254.75 170.85 254.9 170.85 255 170.85 255.1 170.85 255.2 170.85 255.3 170.85 255.4 170.85 255.55 170.85 255.65 170.85 255.75 170.85 255.85 170.85 255.95 170.85 256.05 170.85 256.2 170.85 256.3 170.85 256.4 170.85 256.5 170.85 256.6 170.85 256.75 170.85 256.85 170.85 256.95 170.85 257.05 170.85 257.15 170.85 257.25 170.85 257.4 170.85 257.5 170.85 257.6 170.85 257.7 170.85 257.8 170.85 257.9 170.85 258.05 170.85 258.15 170.85 258.25 170.85 258.35 170.85 258.45 170.85 258.55 170.85 258.7 170.85 258.8 170.85 258.9 170.85 259 170.85 259.1 170.85 259.2 170.85 259.35 170.85 259.45 170.85 259.55 170.85 259.65 170.85 259.75 170.85 259.9 170.85 260 170.85 260.1 170.85 260.2 170.85 260.3 170.85 260.4 170.85 260.55 170.85 260.65 170.85 260.75 170.85 260.85 170.85 260.95 170.85 261.05 170.85 261.2 170.85 261.3 170.85 261.4 170.85 261.5 170.85 261.6 170.85 261.7 170.85 261.85 170.85 261.95 170.85 262.05 170.85 262.15 170.85 262.25 170.85 262.35 170.85 262.5 170.85 262.6 170.85 262.7 170.85 262.8 170.85 262.9 170.85 263.05 170.85 263.15 170.85 263.25 170.85 263.35 170.85 263.45 170.85 263.55 170.85 263.7 170.85 263.8 170.85 263.9 170.85 264 170.85 264.1 170.85 264.2 170.85 264.35 170.85 264.45 170.85 264.55 170.85 264.65 170.85 264.75 170.85 264.85 170.85 265 170.85 265.1 170.85 265.2 170.85 265.3 170.85 265.4 170.85 265.5 170.85 265.65 170.85 265.75 170.85 265.85 170.85 265.95 170.85 266.05 170.85 266.2 170.85 266.3 170.85 266.4
L 170.75 273.8
Q 173.9 277.3 177.1 279.2 187.65 283.75 198.55 279.7 199 279.5 199.45 279.2 202.6 277.3 205.75 273.8
L 205.65 266.4
Q 205.65 266.3 205.65 266.2 205.65 266.05 205.65 265.95 205.65 265.85 205.65 265.75 205.65 265.65 205.65 265.5 205.65 265.4 205.65 265.3 205.65 265.2 205.65 265.1 205.65 265 205.65 264.85 205.65 264.75 205.65 264.65 205.65 264.55 205.65 264.45 205.65 264.35 205.65 264.2 205.65 264.1 205.65 264 205.65 263.9 205.65 263.8 205.65 263.7 205.65 263.55 205.65 263.45 205.65 263.35 205.65 263.25 205.65 263.15 205.65 263.05 205.65 262.9 205.65 262.8 205.65 262.7 205.65 262.6 205.65 262.5 205.65 262.35 205.65 262.25 205.65 262.15 205.65 262.05 205.65 261.95 205.65 261.85 205.65 261.7 205.65 261.6 205.65 261.5 205.65 261.4 205.65 261.3 205.65 261.2 205.65 261.05 205.65 260.95 205.65 260.85 205.65 260.75 205.65 260.65 205.65 260.55 205.65 260.4 205.65 260.3 205.65 260.2 205.65 260.1 205.65 260 205.65 259.9 205.65 259.75 205.65 259.65 205.65 259.55 205.65 259.45 205.65 259.35 205.65 259.2 205.65 259.1 205.65 259 205.65 258.9 205.65 258.8 205.65 258.7 205.65 258.55 205.65 258.45 205.65 258.35 205.65 258.25 205.65 258.15 205.65 258.05 205.65 257.9 205.65 257.8 205.65 257.7 205.65 257.6 205.65 257.5 205.65 257.4 205.65 257.25 205.65 257.15 205.65 257.05 205.65 256.95 205.65 256.85 205.65 256.75 205.65 256.6 205.65 256.5 205.65 256.4 205.65 256.3 205.65 256.2 205.65 256.05 205.65 255.95 205.65 255.85 205.65 255.75 205.65 255.65 205.65 255.55 205.65 255.4 205.65 255.3 205.65 255.2 205.65 255.1 205.65 255 205.65 254.9 205.65 254.75 205.65 254.65 205.65 254.55 205.65 254.45 205.65 254.35 205.65 254.25 205.65 254.1 205.65 254 205.65 253.9 205.65 253.8 205.65 253.7 205.65 253.6 205.65 253.45 205.65 253.35 205.65 253.25 205.65 253.15 205.65 253.05 205.65 252.9 205.65 252.8 205.65 252.7 205.65 252.6 205.65 252.5 205.65 252.4 205.65 252.25 205.65 252.15 205.65 252.05 205.65 251.95 205.65 251.85 205.65 251.75 205.65 251.6 205.65 251.5 205.65 251.4 205.65 251.3 205.65 251.2 205.65 251.1 205.65 250.95 205.65 250.85 205.65 250.75 205.65 250.65 205.65 250.55 205.65 250.45 205.65 250.3 205.65 250.2 205.65 250.1 205.65 250 205.65 249.9 205.65 249.75 205.65 249.65 205.65 249.55 205.65 249.45 205.65 249.35 205.65 249.25 205.65 249.1 205.65 249 205.65 248.9 205.65 248.8 205.65 248.7 205.65 248.6 205.65 248.45 205.65 248.35 205.65 248.25 205.65 248.15 205.65 248.05 205.65 247.95 205.65 247.8 205.65 247.7 205.65 247.6 205.65 247.5 205.65 247.4 205.65 247.3 205.65 247.15 205.65 247.05 205.65 246.95 205.65 246.85 205.65 246.75 205.65 246.6 205.65 246.5 205.65 246.4 205.65 246.3 205.65 246.2 205.65 246.1 205.65 245.95 205.65 245.85 205.65 245.75 205.65 245.65 205.65 245.55 205.65 245.45 205.65 245.3 205.65 245.2 205.65 245.1 205.65 245 205.65 244.9 205.65 244.8 205.65 244.65 205.65 244.55 205.65 244.45 205.65 244.35 205.65 244.25 205.65 244.1 205.65 244 205.65 243.9 205.65 243.8 205.65 243.7 205.65 243.6 205.65 243.45 205.65 243.35 205.65 243.25 205.65 243.15 205.65 243.05 205.65 242.95 205.65 242.8 205.65 242.7 205.65 242.6 205.65 242.5 205.65 242.4 205.65 242.3 205.65 242.15 205.65 242.05 205.65 241.95 205.65 241.85 205.65 241.75 205.65 241.65 205.65 241.5 205.65 241.4 205.65 241.3 205.65 241.2 205.65 241.1 205.65 240.95 205.65 240.85 205.65 240.75 205.65 240.65 205.65 240.55 205.65 240.45 205.65 240.3 205.65 240.2 205.65 240.1 205.65 240 205.65 239.9 205.65 239.8 205.65 239.65 205.65 239.55 205.65 239.45 205.65 239.35 205.65 239.25 205.65 239.15 205.65 239 205.65 238.9 205.65 238.8 205.65 238.7 205.65 238.6 205.65 238.5 205.65 238.35 205.65 238.25 205.65 238.15 205.65 238.05 205.65 237.95 205.65 237.8 205.65 237.7 205.65 237.6 205.65 237.5 205.65 237.4 205.65 237.3 205.65 237.15 205.65 237.05 205.65 236.95 205.65 236.85 205.65 236.75 205.65 236.65 205.65 236.5 205.65 236.4 205.65 236.3 205.65 236.2 205.65 236.1 205.65 236 205.65 235.85 205.65 235.75 205.65 235.65 205.65 235.55 205.65 235.45 205.65 235.35 205.65 235.2 205.65 235.1 205.65 235 205.65 234.9 205.65 234.8 205.65 234.65 205.65 234.55 205.65 234.45 205.65 234.35 205.65 234.25 205.65 234.15 205.65 234 205.65 233.9 205.65 233.8 205.65 233.7 205.65 233.6 205.65 233.5 205.65 233.35 205.65 233.25 205.65 233.15 205.65 233.05 205.65 232.95 205.65 232.85 205.65 232.7 205.65 232.6 205.65 232.5 205.65 232.4 205.7 232.3 205.7 232.2 205.7 232.05 205.7 231.95 205.7 231.85 205.7 231.75 205.7 231.65 205.7 231.5 205.7 231.4 205.7 231.3 205.7 231.2 205.7 231.1 205.7 231 205.7 230.85 205.7 230.75 205.7 230.65 205.7 230.55 205.7 230.45 205.7 230.35 205.7 230.2 205.7 230.1 205.7 230 205.7 229.9 205.7 229.8 205.7 229.7 205.7 229.55 205.7 229.45 205.7 229.35 205.7 229.25 205.7 229.15 205.7 229.05 205.7 228.9 205.7 228.8 205.7 228.7 205.7 228.6 205.7 228.5 205.7 228.35 205.7 228.25 205.7 228.15 205.7 228.05 205.7 227.95 205.75 227.85 205.75 227.7 205.75 227.6 205.75 227.5 205.75 227.4 205.75 227.3 205.75 227.2 205.75 227.05 205.75 226.95 205.75 226.85 205.75 226.75 205.75 226.65 205.75 226.55 205.75 226.4 205.8 226.3 205.85 226.2 205.85 226.1 205.85 226 205.85 225.95 205.85 225.9 205.8 225.95 205.7 225.95 204.85 226.25 204.3 225.7 204.4 225.45 204.75 225.2 205.1 224.95 205.3 224.8 206.55 223.8 206.3 222.2 206.25 221.75 205.95 221.05 205.55 220.05 205.25 219.6
M 202.55 218.8
Q 203 219.25 202.5 219.75 202.1 220.15 201.5 220.15
L 200.2 220.15
Q 199.65 220.05 199.4 219.65 199.1 219.15 199.4 218.75 199.65 218.4 200.4 218.3 201.25 218.2 201.65 218.3
L 202.2 218.55
Q 202.5 218.65 202.55 218.8
M 204 230.9
Q 203.85 231.3 203.35 231.55
L 202.8 231.65 200.75 232.25 199.3 232.4 193.55 232.4 190.7 231.6
Q 190.2 231.4 190.1 231.2 189.95 230.8 190.4 230.5 190.65 230.35 191.2 230.35
L 201.7 229.4
Q 202.2 229.4 202.3 229.45 202.7 229.55 202.6 229.9
L 203.4 229.9
Q 203.95 230 204 230.35 204.1 230.55 204 230.9
M 203.3 233.25
Q 203.5 233.8 203.55 234.35 203.75 239.35 203.8 244.35 203.85 250.3 203.9 256.3 203.95 260.75 203.95 265.2 203.95 267.15 204.1 269.1 204.15 269.95 203.75 270.6
L 203 270.4
Q 198.4 273.7 192.75 274.55 190.85 274.55 188.7 274.65 185.9 274.8 183.2 274.6 181.7 274.3 180.3 273.8 176.2 272.85 172.9 270.45
L 172.15 270.65
Q 171.95 269.75 171.95 269.15 171.9 267.2 171.9 265.25 171.9 260.8 171.95 256.35 172.05 245.95 172.15 235.45 172.15 234.2 172.6 233.3
L 173.35 233.25
Q 175.15 233.55 176.95 233.9 182.15 234.2 187.4 234.3 195.1 234.5 202.55 233.2 203 233 203.3 233.25
M 189.85 213.2
L 189.5 213.25 184.55 213.15
Q 184.1 213.15 184 212.95 184 212.7 184.25 212.6 184.4 212.5 184.7 212.5
L 191.15 212.45
Q 191.3 212.7 190.85 212.8
L 190.3 212.85 189.85 213.2
M 190.15 213.65
Q 190.25 213.75 190.1 213.85
L 189.85 213.9 186.5 213.8 186.5 213.65 187.25 213.6 190.15 213.65
M 182.95 217.8
Q 183.6 218.35 183.05 219.2 182.85 219.55 181.9 220.2 180.5 221.05 180 221.2 177.7 222.2 175.55 221.25
L 174 220.5
Q 173.5 220.35 173.25 220.1 173 219.8 173.05 219.35 173.1 218.9 173.4 218.6 173.8 218.2 174.8 217.9 177.5 217.15 178.55 217.1 179.55 217.05 182.2 217.5
L 182.95 217.8
M 172.35 221.75
Q 172.2 221.2 172.5 220.85 172.7 221.85 174.05 222.35 174.6 222.5 176.3 222.5 177.5 222.55 178.8 222.8 179.35 222.9 180.4 223.1 182.05 223.4 183.75 223.4 187.05 223.55 190.45 223.55 197.85 223.65 201.95 222 203.45 221.3 204.35 221.4 203.5 222.55 202.1 223.1 201.35 223.45 200.5 223.6
L 199.15 223.95
Q 195.9 224.6 191.4 224.5
L 185.4 224.4
Q 182.4 224.3 180.95 224.05 177.8 223.3 176.2 223.2 175.1 223.15 174.5 223.05 173.55 222.95 172.95 222.55 172.5 222.25 172.35 221.75
M 175.9 226.7
Q 175.1 226.5 174.9 226
L 177.25 226.35
Q 180.5 226.85 182.25 227 186.15 227.3 191.65 227.05 198.05 226.7 202.15 225.6
L 202.45 225.85
Q 201.7 226.95 199.45 227.25 194.8 228.1 190 228.15 187.5 228.15 182.6 227.95 182.55 227.65 182 227.65 179.15 227.5 175.9 226.7 Z"/>

<path fill="#D3E7EE" stroke="none" d="
M 183.05 219.2
Q 183.6 218.35 182.95 217.8
L 182.2 217.5
Q 179.55 217.05 178.55 217.1 177.5 217.15 174.8 217.9 173.8 218.2 173.4 218.6 173.1 218.9 173.05 219.35 173 219.8 173.25 220.1 173.5 220.35 174 220.5
L 175.55 221.25
Q 177.7 222.2 180 221.2 180.5 221.05 181.9 220.2 182.85 219.55 183.05 219.2
M 203.35 231.55
Q 203.85 231.3 204 230.9 204.1 230.55 204 230.35 203.95 230 203.4 229.9
L 202.6 229.9
Q 202.7 229.55 202.3 229.45 202.2 229.4 201.7 229.4
L 191.2 230.35
Q 190.65 230.35 190.4 230.5 189.95 230.8 190.1 231.2 190.2 231.4 190.7 231.6
L 193.55 232.4 199.3 232.4 200.75 232.25 202.8 231.65 203.35 231.55
M 202.5 219.75
Q 203 219.25 202.55 218.8 202.5 218.65 202.2 218.55
L 201.65 218.3
Q 201.25 218.2 200.4 218.3 199.65 218.4 199.4 218.75 199.1 219.15 199.4 219.65 199.65 220.05 200.2 220.15
L 201.5 220.15
Q 202.1 220.15 202.5 219.75 Z"/>

<path fill="#B8BE79" stroke="none" d="
M 181.55 235.1
Q 177 234.9 172.75 233.75
L 172.95 270
Q 175.9 271.25 179.15 272.2 181.65 273.1 184.3 273.35 185.45 273.7 186.7 273.75 192.8 274.15 198.65 271.65 199.55 271.35 200.4 270.95 201.65 270.45 202.95 269.95
L 203.15 233.7
Q 198.75 234.95 194.15 235.05
L 194.6 235.2
Q 193.65 235.8 192.6 235.6 187.5 235.5 182.25 235.5 181.9 235.3 181.55 235.1
M 174.8 238.75
Q 174.3 238.15 174.35 237.5 174.35 237.15 174.55 236.95
L 174.8 236.7
Q 175.15 236.4 175.85 236.5
L 178.05 236.8
Q 179.25 237 181.7 237.1 188.5 237.4 192.25 236.8 192.6 236.7 192.9 236.8 193.3 236.9 193.3 237.25 193.3 237.45 192.85 237.8 191.7 238.4 189.9 238.85
L 186.8 239.75
Q 184.7 240.35 183.65 240.45
L 177.5 240.4
Q 175.75 240.15 174.8 238.75 Z"/>

<path fill="#D7D185" stroke="none" d="
M 174.35 237.5
Q 174.3 238.15 174.8 238.75 175.75 240.15 177.5 240.4
L 183.65 240.45
Q 184.7 240.35 186.8 239.75
L 189.9 238.85
Q 191.7 238.4 192.85 237.8 193.3 237.45 193.3 237.25 193.3 236.9 192.9 236.8 192.6 236.7 192.25 236.8 188.5 237.4 181.7 237.1 179.25 237 178.05 236.8
L 175.85 236.5
Q 175.15 236.4 174.8 236.7
L 174.55 236.95
Q 174.35 237.15 174.35 237.5 Z"/>

<path fill="#FFFFFF" stroke="none" d="
M 196.65 183.95
L 195.95 183.75 184.25 184.15
Q 183.55 184.3 183.45 184.35 183.15 184.6 183.15 185.05 183.2 185.5 183.45 185.8 183.7 185.7 184.05 185.65 186.65 185.35 188 185.3
L 198.2 185.3
Q 198.65 185.3 198.95 185.4
L 199.75 185.15
Q 199.7 184.3 198.45 184.1 197.2 184.1 196.65 183.95 Z"/>
</g>

<g id="Layer0_0_MEMBER_3_FILL">
<path fill="#3B3D35" stroke="none" d="
M 60.75 111.6
L 60.75 108.55 58.25 108.55 58.25 109.35
Q 58.25 109.45 58.3 109.5 58.4 109.6 58.55 109.6
L 59.5 109.6 59.5 111
Q 59.15 111.15 58.85 111.2 58.5 111.3 58.1 111.3 57.5 111.3 57 111.1 56.55 110.95 56.2 110.6 55.85 110.2 55.7 109.7 55.5 109.2 55.5 108.55 55.5 107.95 55.65 107.45 55.85 106.95 56.15 106.6 56.5 106.25 56.95 106.05 57.4 105.85 57.95 105.85
L 58.55 105.9 59.45 106.2 59.8 106.4
Q 59.95 106.5 60.1 106.5 60.25 106.45 60.35 106.3
L 60.75 105.65 60.25 105.25
Q 59.95 105.05 59.6 104.95 59.25 104.8 58.85 104.75 58.45 104.65 58 104.65 57.1 104.65 56.35 104.95 55.65 105.25 55.1 105.75 54.6 106.25 54.3 106.95 54.05 107.7 54.05 108.55 54.05 109.4 54.35 110.1 54.6 110.8 55.15 111.35 55.7 111.85 56.45 112.15 57.2 112.45 58.15 112.45 58.9 112.45 59.55 112.25 60.2 112.05 60.75 111.6
M 65.2 107.05
Q 64.75 106.85 64.25 106.85 63.65 106.85 63.15 107.1 62.65 107.3 62.35 107.65 62 108 61.8 108.5 61.65 109 61.65 109.55 61.65 110.25 61.85 110.8 62.05 111.3 62.4 111.7 62.75 112.05 63.25 112.25 63.75 112.45 64.3 112.45
L 64.9 112.4 65.5 112.25
Q 65.8 112.15 66.05 111.95 66.3 111.8 66.55 111.55
L 66.15 111.05
Q 66.1 110.95 65.9 110.95 65.8 110.95 65.65 111
L 65.35 111.2 64.95 111.35
Q 64.75 111.4 64.4 111.4 64.1 111.4 63.85 111.35 63.6 111.25 63.4 111.05 63.2 110.85 63.1 110.55 63 110.25 62.95 109.8
L 66.3 109.8
Q 66.45 109.8 66.55 109.7 66.6 109.6 66.6 109.3 66.6 108.75 66.4 108.25 66.25 107.8 65.95 107.5 65.6 107.2 65.2 107.05
M 63.4 108.1
Q 63.7 107.8 64.25 107.8 64.55 107.8 64.75 107.9 65 108 65.15 108.15 65.3 108.35 65.35 108.55 65.4 108.8 65.4 109.05
L 62.95 109.05
Q 63.05 108.45 63.4 108.1
M 68.85 104.55
L 67.55 104.55 67.55 112.35 68.85 112.35 68.85 104.55 Z"/>
</g>
</defs>

<g transform="matrix( 0.81854248046875, 0, 0, 0.81854248046875, -14.45,-8.65) ">
<use xlink:href="#Layer0_0_MEMBER_0_FILL"/>
</g>

<g transform="matrix( 0.87713623046875, 0, 0, 0.87713623046875, -18.6,-8) ">
<use xlink:href="#Layer0_0_MEMBER_1_FILL"/>
</g>

<g transform="matrix( 0.81854248046875, 0, 0, 0.81854248046875, -94.75,-144.4) ">
<use xlink:href="#Layer0_0_MEMBER_2_FILL"/>
</g>

<g transform="matrix( 1, 0, 0, 1, -1,-2) ">
<use xlink:href="#Layer0_0_MEMBER_3_FILL"/>
</g>
</svg>
