
<svg xmlns="http://www.w3.org/2000/svg" version="1.1" xmlns:xlink="http://www.w3.org/1999/xlink" preserveAspectRatio="none" x="0px" y="0px" width="149px" height="152px" viewBox="0 0 149 152">
<defs>
<g id="Layer0_0_MEMBER_0_FILL">
<path fill="#B8BE79" stroke="none" d="
M 21.5 19.95
L 21.5 157.8 159.35 157.8 159.35 19.95 21.5 19.95 Z"/>
</g>

<g id="Layer0_0_MEMBER_1_FILL">
<path fill="#E1C99B" stroke="none" d="
M 21.5 111.85
L 21.5 148.6 159.35 148.6 159.35 111.85 21.5 111.85 Z"/>
</g>

<g id="Layer0_0_MEMBER_2_FILL">
<path fill="#3B3D35" stroke="none" d="
M 381.25 186.5
Q 381.079296875 187.4580078125 380.7 188.45
L 378.7 190.15
Q 378.35 193.2 378.55 196.2 378.6958984375 198.2427734375 379.15 200 378.7845703125 200.0322265625 378.25 200.05 377.1 200.05 376.8 200.75 376.6 201.1 376.6 201.65 376.6 202 376.6 202.65 376.55 204.15 375 205.6 374.734375 205.8435546875 374.5 206.05 372.5779296875 207.833203125 372.4 208.1 371 210.1 371.15 213.75 371.15 213.9 371.15 214.1 371.2 214.9 371.5 217.25 371.7 219.05 371.75 220.15 371.75 220.3 371.75 220.4 371.75 220.9 371.7 222.35 371.65859375 223.548046875 371.9 232.7 371.98046875 234.6650390625 372.05 236.95 372.35 250.1 372.6 259.15 372.7287109375 266.9205078125 372.75 268.45 372.79296875 268.715234375 372.8 268.8 372.85 269.35 372.85 269.75 372.85 270.6 372.9 272.3 373 273.75 373.3 274.75 374.05 277 376.9 279.1 377.4 279.45 377.95 279.8 384.2 283.9 391.2 283.7 396.169921875 283.8064453125 400.75 281.8 402.6375 280.974609375 404.45 279.8 404.95 279.45 405.45 279.1 408.3 277 409.05 274.75 409.4 273.75 409.45 272.3 409.5 270.6 409.55 269.75 409.55 269.35 409.6 268.8 409.65 268.2 409.8 259.15 410 250.1 410.35 236.95 410.7 223.8 410.65 222.35 410.65 220.9 410.65 220.4 410.65 220.3 410.65 220.15 410.65 219.05 410.9 217.25 411.15 214.9 411.2 214.1 411.2 213.9 411.2 213.75 411.4 210.1 409.95 208.1 409.75 207.8 407.4 205.6 407.351953125 205.5548828125 407.3 205.5 405.846875 204.103515625 405.75 202.65 405.75 202 405.75 201.65 405.75 201.1 405.6 200.75 405.25 200.05 404.1 200.05 403.9478515625 200.044921875 403.8 200.05 403.7703125 199.9994140625 403.75 199.95 404.2060546875 198.21640625 404.35 196.2 404.5203125 193.64453125 404.3 191.05 404.5470703125 191.05 404.8 191.05 404.85 191 404.9 190.95 404.9 190.9 404.9 190.8 404.5830078125 190.78671875 404.25 190.75 404.2357421875 190.4609375 404.2 190.15
L 402.2 188.45
Q 401.820703125 187.4580078125 401.6 186.5 401.75 183.4 398.75 182.8 393.35 182.1 387.75 182 382.35 181.6 381.25 186.5
M 380.05 190.65
L 380.05 190.35 380.75 189.95
Q 381.01328125 190.0052734375 381.25 190.1 382.3 190.1 383.3 190.15 388.65 190.2 394 190.25 397.85 190.25 401.7 190.25 401.75 190.15 401.75 190.1 401.85 190 401.9 189.85
L 402.85 190.35 402.85 190.65
Q 402.699609375 190.6630859375 402.55 190.65 400.8 190.65 399 190.6 392.25078125 190.6 385.5 190.6 385.4375 190.525 385.4 190.45 385.3 190.45 385.25 190.45 385.2 190.45 385.1 190.45
L 385.05 190.5
Q 385.05 190.5587890625 385.05 190.6 383.5390625 190.6 382 190.6 381.975 190.525 381.9 190.45 381.85 190.45 381.75 190.45 381.65 190.5 381.55 190.5 381.55 190.553125 381.55 190.6
L 381.5 190.6 381.5 190.65
Q 380.7580078125 190.65 380.05 190.65
M 381.5 191.15
L 381.55 191.15
Q 381.65 191.3 381.7 191.4 381.65 191.5 381.65 191.6 381.6 191.7 381.55 191.8 381.55 191.95 381.55 192.05 381.55 192.15 381.55 192.25 381.55 192.35 381.55 192.45 381.55 192.6 381.55 192.7 381.55 192.8 381.55 192.9 381.55 193 381.55 193.15 381.55 193.25 381.55 193.35 381.55 193.45 381.55 193.55 381.55 193.65 381.55 193.8 381.55 193.9 381.55 194 381.55 194.1 381.55 194.2 381.55 194.3 381.55 194.45 381.55 194.55 381.55 194.65 381.55 194.75 381.55 194.85 381.55 194.95 381.55 195.1 381.55 195.2 381.55 195.3 381.55 195.4 381.55 195.5 381.55 195.6 381.55 195.75 381.55 195.85 381.55 195.95 381.55 196.05 381.55 196.15 381.55 196.3 381.55 196.4 381.55 196.5 381.55 196.6 381.55 196.7 381.55 196.8 381.55 196.95 381.55 197.05 381.55 197.15 381.55 197.25 381.55 197.35 381.55 197.45 381.55 197.6 381.55 197.7 381.55 197.8 381.55 197.9 381.6 198 381.65 198.1 381.8 198.15 382 198.2 382 198.1 382 198.05 382.05 197.95 382.05 197.85 382.05 197.7 382.05 197.6 382.05 197.5 382.05 197.4 382.05 197.3 382.05 197.2 382.05 197.05 382.05 196.95 382.05 196.85 382.05 196.75 382.05 196.65 382.05 196.55 382.05 196.4 382.05 196.3 382.05 196.2 382.05 196.1 382.05 196 382.05 195.9 382.05 195.75 382.05 195.65 382.05 195.55 382.05 195.45 382.05 195.35 382.05 195.25 382.05 195.1 382.05 195 382.05 194.9 382.05 194.8 382.05 194.7 382.05 194.55 382.05 194.45 382.05 194.35 382.05 194.25 382.05 194.15 382.05 194.05 382.05 193.9 382.05 193.8 382.05 193.7 382.05 193.6 382.05 193.5 382.05 193.4 382.05 193.25 382.05 193.15 382.05 193.05 382.05 192.95 382.05 192.85 382.05 192.75 382.05 192.6 382.05 192.5 382.05 192.4 382.05 192.3 382.05 192.2 382.05 192.1 382.05 191.95 382.05 191.85 382.05 191.75 382.1 191.65 382.15 191.55 382.15 191.4 382.15 191.3 382.1125 191.225 382.05 191.15 382.5130859375 191.15 382.95 191.15 382.95 191.3 382.95 191.4 382.95 191.5 382.95 191.6 382.95 191.7 382.95 191.8 382.95 191.95 382.95 192.05 382.95 192.15 382.95 192.25 382.95 192.35 382.95 192.45 382.95 192.6 382.95 192.7 382.95 192.8 382.95 192.9 382.95 193 382.95 193.15 382.95 193.25 382.95 193.35 382.95 193.45 382.95 193.55 382.95 193.65 382.95 193.8 382.95 193.9 382.95 194 382.95 194.1 382.95 194.2 382.95 194.3 382.95 194.45 382.95 194.55 382.95 194.65 382.95 194.75 382.95 194.85 382.95 194.95 382.95 195.1 382.95 195.2 382.95 195.3 382.95 195.4 382.95 195.5 382.95 195.6 382.95 195.75 382.95 195.85 382.95 195.95 382.95 196.05 382.95 196.15 382.95 196.3 382.95 196.4 382.95 196.5 382.95 196.6 382.95 196.7 382.95 196.8 382.95 196.95 382.95 197.05 382.95 197.15 382.95 197.25 382.95 197.35 382.95 197.45 382.95 197.6 382.95 197.7 382.95 197.8 383 197.9 383.05 198 383.1 198.1 383.15 198.1 383.2 198.1 383.3 198 383.35 197.9 383.4 197.8 383.45 197.7 383.45 197.6 383.45 197.45 383.45 197.35 383.45 197.25 383.45 197.15 383.45 197.05 383.45 196.95 383.45 196.8 383.45 196.7 383.45 196.6 383.45 196.5 383.45 196.4 383.45 196.3 383.45 196.15 383.45 196.05 383.45 195.95 383.45 195.85 383.45 195.75 383.45 195.6 383.45 195.5 383.45 195.4 383.45 195.3 383.45 195.2 383.45 195.1 383.45 194.95 383.45 194.85 383.45 194.75 383.45 194.65 383.45 194.55 383.45 194.45 383.45 194.3 383.45 194.2 383.45 194.1 383.45 194 383.45 193.9 383.45 193.8 383.45 193.65 383.45 193.55 383.45 193.45 383.45 193.35 383.45 193.25 383.45 193.15 383.45 193 383.45 192.9 383.45 192.8 383.45 192.7 383.45 192.6 383.45 192.45 383.45 192.35 383.45 192.25 383.45 192.15 383.45 192.05 383.5 191.95 383.5 191.8 383.65 191.7 383.8 191.6 383.75 191.5 383.65 191.4 383.6 191.3 383.6 191.15 384.3251953125 191.15 385.05 191.15 385.05 191.225 385.05 191.3 385.05 191.4 385.05 191.55 385.05 191.65 385.05 191.75 385.05 191.85 385.05 191.95 385.05 192.1 385.05 192.2 385.05 192.3 385.05 192.4 385.05 192.5 385.05 192.6 385.05 192.75 385.05 192.85 385.05 192.95 385.05 193.05 385.05 193.15 385.05 193.25 385.05 193.4 385.05 193.5 385.05 193.6 385.05 193.7 385.05 193.8 385.05 193.9 385.05 194.05 385.05 194.15 385.05 194.25 385.05 194.35 385.05 194.45 385.05 194.55 385.05 194.7 385.05 194.8 385.05 194.9 385.05 195 385.05 195.1 385.05 195.25 385.05 195.35 385.05 195.45 385.05 195.55 385.05 195.65 385.05 195.75 385.05 195.9 385.05 196 385.05 196.1 385.05 196.2 385.1 196.3 385.1 196.4 385.1 196.55 385.1 196.65 385.1 196.75 385.1 196.85 385.1 196.95 385.1 197.05 385.1 197.2 385.1 197.3 385.1 197.4 385.1 197.5 385.1 197.6 385.2 197.7 385.25 197.75 385.3 197.7 385.4 197.6 385.4 197.5 385.4 197.4 385.4 197.3 385.4 197.2 385.45 197.05 385.45 196.95 385.45 196.85 385.45 196.75 385.45 196.65 385.45 196.55 385.45 196.4 385.45 196.3 385.5 196.2 385.55 196.1 385.55 196 385.55 195.9 385.55 195.75 385.55 195.65 385.55 195.55 385.55 195.45 385.55 195.35 385.55 195.25 385.55 195.1 385.55 195 385.55 194.9 385.55 194.8 385.55 194.7 385.55 194.55 385.55 194.45 385.55 194.35 385.55 194.25 385.55 194.15 385.55 194.05 385.55 193.9 385.55 193.8 385.55 193.7 385.55 193.6 385.55 193.5 385.55 193.4 385.55 193.25 385.55 193.15 385.55 193.05 385.55 192.95 385.55 192.85 385.55 192.75 385.55 192.6 385.55 192.5 385.55 192.4 385.55 192.3 385.55 192.2 385.55 192.1 385.55 191.95 385.55 191.85 385.55 191.75 385.55 191.65 385.55 191.55 385.55 191.4 385.55 191.3 385.55 191.225 385.55 191.15 392.2755859375 191.15 399 191.15 400.31328125 191.15 401.6 191.1
L 401.6 191.15
Q 401.6 191.3 401.6 191.4 401.6 191.5 401.55 191.6 401.55 191.7 401.55 191.8 401.55 191.95 401.55 192.05 401.55 192.15 401.55 192.25 401.55 192.35 401.55 192.45 401.55 192.6 401.55 192.7 401.55 192.8 401.55 192.9 401.55 193 401.55 193.15 401.55 193.25 401.55 193.35 401.55 193.45 401.55 193.55 401.55 193.65 401.55 193.8 401.55 193.9 401.55 194 401.55 194.1 401.55 194.2 401.55 194.3 401.55 194.45 401.55 194.55 401.55 194.65 401.55 194.75 401.55 194.85 401.6 194.95 401.6 195.1 401.6 195.2 401.6 195.3 401.6 195.4 401.6 195.5 401.6 195.6 401.6 195.75 401.6 195.85 401.6 195.95 401.6 196.05 401.6 196.15 401.6 196.3 401.6 196.4 401.6 196.5 401.6 196.6 401.6 196.7 401.6 196.8 401.6 196.95 401.6 197.05 401.65 197.15 401.7 197.25 401.7 197.35 401.7 197.45 401.65 197.6 401.6 197.7 401.6 197.8 401.6 197.9 401.65 198 401.7 198.1 401.75 198.1 401.85 198.1 401.85 198 401.9 197.9 401.9 197.8 401.9 197.7 401.9 197.6 401.9 197.45 401.9 197.35 401.9 197.25 401.95 197.15 402 197.05 402 196.95 402 196.8 402 196.7 402 196.6 402 196.5 402 196.4 402 196.3 402 196.15 402 196.05 402 195.95 402 195.85 402 195.75 402 195.6 402 195.5 402 195.4 402 195.3 402 195.2 402 195.1 402 194.95 402 194.85 402 194.75 402.05 194.65 402.05 194.55 402.05 194.45 402.05 194.3 402.05 194.2 402.05 194.1 402.05 194 402.05 193.9 402.05 193.8 402.05 193.65 402.05 193.55 402.05 193.45 402.05 193.35 402.05 193.25 402.05 193.15 402.05 193 402.05 192.9 402.05 192.8 402.05 192.7 402.05 192.6 402.05 192.45 402.05 192.35 402.05 192.25 402.05 192.15 402.05 192.05 402.05 191.95 402.05 191.8 402 191.7 402 191.6 402 191.5 402 191.4 402 191.3 402 191.15
L 402 191.1
Q 402.27578125 191.1078125 402.55 191.1 402.700390625 191.0935546875 402.85 191.1
L 402.85 199.7
Q 400.87109375 199.7 398.85 199.7 398.85 199.75 398.85 199.8 393.75 199.8 388.65 199.8 386.35 199.8 384.1 199.85 382.55 199.9 381.05 199.95 380.634375 199.95 380.2 199.95 380.1724609375 199.904296875 380.1 199.85
L 380.05 199.85 380.05 191.05
Q 380.775 191.1119140625 381.5 191.15
M 381.85 189.2
Q 382.025390625 188.698046875 382.15 188.2 382.3333984375 187.32890625 382.45 186.5 383 183.7 385.9 183.5 390.25 182.95 394.65 183.25 399.15 182.7 400.4 186.5 400.5666015625 187.32890625 400.75 188.2 400.85625 188.625 401 189.05 397.5966796875 189.05 394.25 189.05 394.25 189.1 394.25 189.15 388.85 189.15 383.5 189.15 382.696484375 189.1865234375 381.85 189.2
M 405.6 205.55
Q 405.894140625 205.976171875 406.25 206.35 407.55 207.6 408.15 208.25 409.2 209.35 409.65 210.45 410.15 211.75 410 213.75 409.95 213.95 409.95 214.2 409.8 215.45 409.4 218.05 409.35 218.95 409.4 220.15 409.4 220.85 409.45 221.6 408.75 238.45 409.05 255.35 409.15 261.3 408.4 267.35 408.35 268 408.35 268.45 408.35 268.6 408.3 268.8 408.3 269.65 408.35 271.1 408.3 272.65 407.95 273.7 407.2 276 404.8 277.8 403.35 278.95 401.55 279.8 399.45 280.8 396.85 281.45 396.364453125 281.565625 395.8 281.65 393.9291015625 282.042578125 391.2 282.35 387.65 281.95 385.5 281.45 382.95 280.8 380.8 279.8 379 278.95 377.55 277.8 375.15 276 374.4 273.7 374.128125 272.884375 374.05 271.75 374.05 271.4458984375 374.05 271.1 374.05 269.65 374.05 268.8 374.05 268.6 374.05 268.45 374.05 268 374 267.35 373.2 261.3 373.3 255.35 373.6 238.45 372.9 221.6 372.95 220.85 373 220.15 373.05 218.95 372.95 218.05 372.7689453125 216.7056640625 372.6 215.7 372.4966796875 214.8037109375 372.4 214.2 372.4 213.95 372.35 213.75 372.25 211.75 372.75 210.45 373.15 209.35 374.25 208.25 374.8 207.6 376.1 206.35 376.240625 206.20234375 376.35 206.05 377.16328125 205.1171875 377.55 204 378.05 202.5 377.6 201.3 378.514453125 200.8779296875 379.4 200.75 379.489453125 200.78984375 379.55 200.8 379.75 200.85 379.95 200.85 380.4 200.9 380.85 200.95 382.35 201 383.9 201 386.25 201.05 388.65 201.1 393.75 201.15 398.85 201.15 401.05 201.15 403.2 201.15 403.4 201.15 403.55 201.1 403.65 201 403.7 200.95
L 403.7 200.9
Q 404.243359375 201.0568359375 404.75 201.3 404.3 202.5 404.8 204 405.08984375 204.8373046875 405.6 205.55
M 373.95 210.55
Q 374.3689453125 210.6505859375 374.8 210.75 383.3470703125 212.68828125 392.45 212.45
L 382.3 213.6
Q 395.85 214.1 408.45 210.2 405.15 210 401.6 210.4 388.246875 212.33515625 374.85 210.65 374.3984375 210.6099609375 373.95 210.55
M 402.05 204.65
L 402.1 204.4
Q 400.9 204.15 398.4 204.15
L 384.7 204.15
Q 381.65 204.15 380.2 204.55
L 380.2 204.95
Q 380.9 204.8 382.35 204.8
L 398.75 204.85
Q 400.95 204.85 402.05 204.65
M 401.05 273.25
Q 400.8 273.25 400.45 273.7
L 398.1 276.8
Q 397.65 277.35 397.65 277.6
L 397.9 277.45
Q 399.55 275.45 401.05 273.25
M 402.75 270.65
Q 404.25 269.15 404.5 268.55 402.5 270.1 398.65 274.3
L 396.55 276.6
Q 396.25 276.9 396.3 277.1 397.65 276.05 399.6 273.95 401.85 271.45 402.75 270.65
M 402.75 268.55
Q 401.15 269.95 400.15 271.1 398.55 272.95 397.75 274.45 398.4 274 400.05 272 400.7 271.2 402.85 268.9
L 405.95 265.8 402.75 268.55
M 399.1 216.9
L 398.95 216.65
Q 398.7 216.75 397.85 216.75 397.3 216.7 396.45 216.8 395.1 216.9 395.05 216.9
L 392.9 216.95
Q 385.25 216.95 381.4 217.05 381.3 217.05 381.15 217.15 381.05 217.25 381.1 217.3 385.2 217.55 393.45 217.55 394.9 217.55 395.6 217.45 396.75 217.2 397 217.2
L 398.05 217.15
Q 398.7 217.1 399.1 216.9
M 407.3 230.85
Q 407.25 230.75 407.25 230.65 407.05 230.55 406.85 230.5
L 406.85 230.55
Q 406.75 230.55 406.65 230.55 406.6 230.65 406.5 230.7 406.5 230.8 406.5 230.95
L 406.45 231 406 230.8
Q 391.1763671875 234.505859375 376.4 230.6 376.4 230.5166015625 376.4 230.4 376.3 230.3 376.25 230.2 376.05 230.15 375.9 230.05 375.9 230.1 375.9 230.15 375.75 230.15 375.65 230.15 375.6 230.15 375.6 230.2 375.5 230.3 375.45 230.35 375.45 230.45 375.45 230.55 375.4 230.65 375.35 230.8 375.35 230.9 375.35 231 375.35 231.1 375.35 231.2 375.35 231.35 375.35 231.45 375.35 231.55 375.35 231.65 375.35 231.75 375.35 231.85 375.35 232 375.3 232.1 375.3 232.2 375.3 232.3 375.3 232.4 375.3 232.5 375.3 232.65 375.3 232.75 375.3 232.85 375.3 232.95 375.3 233.05 375.3 233.15 375.3 233.3 375.3 233.4 375.3 233.5 375.3 233.6 375.3 233.7 375.3 233.8 375.3 233.95 375.3 234.05 375.3 234.15 375.3 234.25 375.3 234.35 375.3 234.5 375.3 234.6 375.3 234.7 375.3 234.8 375.3 234.9 375.3 235 375.3 235.15 375.3 235.25 375.3 235.35 375.3 235.45 375.3 235.55 375.3 235.65 375.3 235.8 375.3 235.9 375.3 236 375.3 236.1 375.3 236.2 375.25 236.3 375.2 236.45 375.2 236.55 375.2 236.65 375.2 236.75 375.2 236.85 375.2 236.95 375.2 237.1 375.2 237.2 375.2 237.3 375.2 237.4 375.2 237.5 375.2 237.65 375.2 237.75 375.2 237.85 375.2 237.95 375.2 238.05 375.2 238.15 375.2 238.3 375.2 238.4 375.2 238.5 375.2 238.6 375.2 238.7 375.2 238.8 375.2 238.95 375.2 239.05 375.2 239.15 375.2 239.25 375.2 239.35 375.2 239.45 375.2 239.6 375.2 239.7 375.2 239.8 375.2 239.9 375.2 240 375.2 240.1 375.2 240.25 375.2 240.35 375.2 240.45 375.2 240.55 375.2 240.65 375.2 240.8 375.2 240.9 375.2 241 375.2 241.1 375.2 241.2 375.2 241.3 375.2 241.45 375.2 241.55 375.2 241.65 375.2 241.75 375.2 241.85 375.2 241.95 375.2 242.1 375.2 242.2 375.2 242.3 375.2 242.4 375.2 242.5 375.2 242.6 375.2 242.75 375.2 242.85 375.2 242.95 375.2 243.05 375.2 243.15 375.2 243.25 375.2 243.4 375.2 243.5 375.2 243.6 375.2 243.7 375.2 243.8 375.2 243.95 375.2 244.05 375.2 244.15 375.2 244.25 375.2 244.35 375.2 244.45 375.2 244.6 375.2 244.7 375.2 244.8 375.2 244.9 375.2 245 375.2 245.1 375.2 245.25 375.2 245.35 375.2 245.45 375.2 245.55 375.2 245.65 375.2 245.75 375.2 245.9 375.2 246 375.2 246.1 375.2 246.2 375.2 246.3 375.2 246.45 375.2 246.55 375.2 246.65 375.2 246.75 375.2 246.85 375.2 246.95 375.2 247.1 375.2 247.2 375.2 247.3 375.2 247.4 375.2 247.5 375.2 247.6 375.2 247.75 375.2 247.85 375.2 247.95 375.2 248.05 375.2 248.15 375.2 248.25 375.2 248.4 375.2 248.5 375.2 248.6 375.2 248.7 375.2 248.8 375.2 248.9 375.2 249.05 375.2 249.15 375.2 249.25 375.2 249.35 375.2 249.45 375.2 249.6 375.2 249.7 375.2 249.8 375.2 249.9 375.2 250 375.2 250.1 375.2 250.25 375.2 250.35 375.2 250.45 375.2 250.55 375.2 250.65 375.2 250.75 375.2 250.9 375.2 251 375.2 251.1 375.2 251.2 375.2 251.3 375.2 251.4 375.2 251.55 375.2 251.65 375.2 251.75 375.2 251.85 375.2 251.95 375.2 252.05 375.2 252.2 375.2 252.3 375.2 252.4 375.2 252.5 375.2 252.6 375.2 252.75 375.2 252.85 375.2 252.95 375.2 253.05 375.2 253.15 375.2 253.25 375.2 253.4 375.2 253.5 375.2 253.6 375.2 253.7 375.2 253.8 375.2 253.9 375.2 254.05 375.2 254.15 375.2 254.25 375.2 254.35 375.2 254.45 375.2 254.55 375.2 254.7 375.2 254.8 375.2 254.9 375.2 255 375.2 255.1 375.2 255.2 375.2 255.35 375.2 255.45 375.2 255.55 375.2 255.65 375.2 255.75 375.2 255.9 375.2 256 375.2 256.1 375.2 256.2 375.2 256.3 375.2 256.4 375.2 256.55 375.2 256.65 375.2 256.75 375.2 256.85 375.2 256.95 375.2 257.05 375.2 257.2 375.2 257.3 375.2 257.4 375.2 257.5 375.2 257.6 375.2 257.7 375.2 257.85 375.2 257.95 375.2 258.05 375.2 258.15 375.2 258.25 375.2 258.35 375.2 258.5 375.2 258.6 375.2 258.7 375.2 258.8 375.2 258.9 375.2 259.05 375.2 259.15 375.2 259.25 375.2 259.35 375.2 259.45 375.2 259.55 375.2 259.7 375.25 259.8 375.3 259.9 375.4 260 375.5 260.1 375.7 260.2 375.9 260.25 376.05 260.2 376.25 260.2 376.25 260.1595703125 376.25 260.1 377.5537109375 261.395703125 380 262.25 395.5 267.75 406.9 260.15
L 406.7 260.05
Q 406.921484375 260.1 407.15 260.1 407.2 260.05 407.25 259.95 407.35 259.85 407.45 259.75 407.5 259.65 407.5 259.55 407.55 259.4 407.6 259.3 407.6 259.2 407.6 259.1 407.6 259 407.6 258.9 407.6 258.75 407.6 258.65 407.6 258.55 407.6 258.45 407.6 258.35 407.6 258.25 407.6 258.1 407.6 258 407.6 257.9 407.6 257.8 407.6 257.7 407.6 257.6 407.6 257.45 407.6 257.35 407.6 257.25 407.6 257.15 407.6 257.05 407.6 256.95 407.6 256.8 407.6 256.7 407.6 256.6 407.6 256.5 407.6 256.4 407.6 256.25 407.6 256.15 407.6 256.05 407.6 255.95 407.6 255.85 407.6 255.75 407.6 255.6 407.6 255.5 407.6 255.4 407.6 255.3 407.6 255.2 407.6 255.1 407.6 254.95 407.6 254.85 407.6 254.75 407.6 254.65 407.6 254.55 407.6 254.45 407.6 254.3 407.6 254.2 407.6 254.1 407.6 254 407.6 253.9 407.6 253.8 407.6 253.65 407.6 253.55 407.6 253.45 407.6 253.35 407.6 253.25 407.6 253.1 407.6 253 407.6 252.9 407.6 252.8 407.6 252.7 407.6 252.6 407.6 252.45 407.6 252.35 407.6 252.25 407.6 252.15 407.6 252.05 407.6 251.95 407.6 251.8 407.6 251.7 407.6 251.6 407.6 251.5 407.6 251.4 407.6 251.3 407.6 251.15 407.6 251.05 407.6 250.95 407.6 250.85 407.6 250.75 407.6 250.65 407.6 250.5 407.6 250.4 407.6 250.3 407.6 250.2 407.6 250.1 407.6 249.95 407.6 249.85 407.6 249.75 407.6 249.65 407.6 249.55 407.6 249.45 407.6 249.3 407.6 249.2 407.6 249.1 407.6 249 407.6 248.9 407.6 248.8 407.6 248.65 407.6 248.55 407.6 248.45 407.6 248.35 407.6 248.25 407.6 248.15 407.6 248 407.6 247.9 407.6 247.8 407.6 247.7 407.6 247.6 407.6 247.5 407.6 247.35 407.6 247.25 407.6 247.15 407.6 247.05 407.6 246.95 407.6 246.8 407.6 246.7 407.6 246.6 407.6 246.5 407.6 246.4 407.6 246.3 407.6 246.15 407.6 246.05 407.6 245.95 407.6 245.85 407.6 245.75 407.6 245.65 407.6 245.5 407.6 245.4 407.6 245.3 407.6 245.2 407.6 245.1 407.6 245 407.6 244.85 407.6 244.75 407.6 244.65 407.6 244.55 407.6 244.45 407.6 244.35 407.6 244.2 407.6 244.1 407.6 244 407.6 243.9 407.6 243.8 407.6 243.65 407.6 243.55 407.6 243.45 407.6 243.35 407.6 243.25 407.6 243.15 407.6 243 407.6 242.9 407.6 242.8 407.6 242.7 407.6 242.6 407.6 242.5 407.6 242.35 407.6 242.25 407.6 242.15 407.6 242.05 407.6 241.95 407.6 241.85 407.6 241.7 407.6 241.6 407.6 241.5 407.6 241.4 407.6 241.3 407.6 241.15 407.6 241.05 407.6 240.95 407.6 240.85 407.6 240.75 407.6 240.65 407.6 240.5 407.6 240.4 407.6 240.3 407.6 240.2 407.6 240.1 407.6 240 407.6 239.85 407.6 239.75 407.6 239.65 407.6 239.55 407.6 239.45 407.6 239.35 407.6 239.2 407.6 239.1 407.6 239 407.6 238.9 407.6 238.8 407.6 238.7 407.6 238.55 407.6 238.45 407.55 238.35 407.5 238.25 407.5 238.15 407.5 238 407.5 237.9 407.5 237.8 407.5 237.7 407.5 237.6 407.5 237.5 407.5 237.35 407.5 237.25 407.5 237.15 407.5 237.05 407.5 236.95 407.5 236.85 407.5 236.7 407.5 236.6 407.5 236.5 407.5 236.4 407.5 236.3 407.5 236.2 407.5 236.05 407.5 235.95 407.5 235.85 407.5 235.75 407.5 235.65 407.5 235.55 407.5 235.4 407.5 235.3 407.5 235.2 407.5 235.1 407.5 235 407.5 234.85 407.5 234.75 407.5 234.65 407.5 234.55 407.5 234.45 407.5 234.35 407.5 234.2 407.5 234.1 407.5 234 407.5 233.9 407.5 233.8 407.5 233.7 407.5 233.55 407.5 233.45 407.5 233.35 407.5 233.25 407.5 233.15 407.5 233.05 407.5 232.9 407.5 232.8 407.5 232.7 407.45 232.6 407.45 232.5 407.45 232.4 407.45 232.25 407.45 232.15 407.45 232.05 407.45 231.95 407.4 231.85 407.4 231.7 407.4 231.6 407.4 231.5 407.4 231.4 407.4 231.3 407.35 231.2 407.3 231.05 407.3 230.95 407.3 230.85
M 406.35 231.8
Q 406.35 231.9 406.35 232 406.35 232.1 406.35 232.25 406.35 232.35 406.35 232.45 406.35 232.55 406.35 232.65 406.35 232.75 406.3 232.9 406.3 233 406.3 233.1 406.3 233.2 406.3 233.3 406.3 233.45 406.3 233.55 406.3 233.65 406.3 233.75 406.3 233.85 406.3 233.95 406.3 234.1 406.3 234.2 406.3 234.3 406.3 234.4 406.3 234.5 406.3 234.6 406.3 234.75 406.3 234.85 406.3 234.95 406.3 235.05 406.3 235.15 406.3 235.25 406.3 235.4 406.3 235.5 406.3 235.6 406.3 235.7 406.3 235.8 406.3 235.9 406.3 236.05 406.3 236.15 406.3 236.25 406.3 236.35 406.3 236.45 406.3 236.6 406.3 236.7 406.3 236.8 406.3 236.9 406.3 237 406.3 237.1 406.3 237.25 406.3 237.35 406.3 237.45 406.3 237.55 406.3 237.65 406.3 237.75 406.3 237.9 406.3 238 406.3 238.1 406.25 238.2 406.2 238.3 406.2 238.4 406.2 238.55 406.2 238.65 406.2 238.75 406.2 238.85 406.2 238.95 406.2 239.05 406.2 239.2 406.2 239.3 406.2 239.4 406.2 239.5 406.2 239.6 406.2 239.75 406.2 239.85 406.2 239.95 406.2 240.05 406.2 240.15 406.2 240.25 406.2 240.4 406.2 240.5 406.2 240.6 406.2 240.7 406.2 240.8 406.2 240.9 406.2 241.05 406.2 241.15 406.2 241.25 406.2 241.35 406.2 241.45 406.2 241.55 406.2 241.7 406.2 241.8 406.2 241.9 406.2 242 406.2 242.1 406.2 242.2 406.2 242.35 406.2 242.45 406.2 242.55 406.2 242.65 406.2 242.75 406.2 242.9 406.2 243 406.2 243.1 406.2 243.2 406.2 243.3 406.2 243.4 406.2 243.55 406.2 243.65 406.2 243.75 406.2 243.85 406.2 243.95 406.2 244.05 406.2 244.2 406.2 244.3 406.2 244.4 406.2 244.5 406.2 244.6 406.2 244.7 406.2 244.85 406.2 244.95 406.2 245.05 406.2 245.15 406.2 245.25 406.2 245.4 406.2 245.5 406.2 245.6 406.2 245.7 406.2 245.8 406.2 245.9 406.2 246.05 406.2 246.15 406.2 246.25 406.2 246.35 406.2 246.45 406.2 246.55 406.2 246.7 406.2 246.8 406.2 246.9 406.2 247 406.2 247.1 406.2 247.2 406.2 247.35 406.2 247.45 406.2 247.55 406.2 247.65 406.2 247.75 406.2 247.85 406.2 248 406.2 248.1 406.2 248.2 406.2 248.3 406.2 248.4 406.2 248.55 406.2 248.65 406.2 248.75 406.2 248.85 406.2 248.95 406.2 249.05 406.2 249.2 406.2 249.3 406.2 249.4 406.2 249.5 406.2 249.6 406.2 249.7 406.2 249.85 406.2 249.95 406.2 250.05 406.2 250.15 406.2 250.25 406.2 250.35 406.2 250.5 406.2 250.6 406.2 250.7 406.2 250.8 406.2 250.9 406.2 251 406.2 251.15 406.2 251.25 406.2 251.35 406.2 251.45 406.2 251.55 406.2 251.7 406.2 251.8 406.2 251.9 406.2 252 406.2 252.1 406.2 252.2 406.2 252.35 406.2 252.45 406.2 252.55 406.2 252.65 406.2 252.75 406.2 252.85 406.2 253 406.2 253.1 406.2 253.2 406.2 253.3 406.2 253.4 406.2 253.5 406.2 253.65 406.2 253.75 406.2 253.85 406.2 253.95 406.2 254.05 406.2 254.15 406.2 254.3 406.2 254.4 406.2 254.5 406.2 254.6 406.2 254.7 406.2 254.85 406.2 254.95 406.2 255.05 406.2 255.15 406.2 255.25 406.2 255.35 406.2 255.5 406.2 255.6 406.2 255.7 406.2 255.8 406.2 255.9 406.2 256 406.2 256.15 406.2 256.25 406.2 256.35 406.2 256.45 406.2 256.55 406.2 256.65 406.2 256.8 406.2 256.9 406.2 257 406.2 257.1 406.2 257.2 406.2 257.3 406.2 257.45 406.2 257.55 406.2 257.65 406.2 257.75 406.2 257.85 406.2 258 406.2 258.1 406.2 258.2 406.2 258.3 406.2 258.4 406.2 258.5 406.2 258.65 406.2 258.75 406.2 258.85 406.2 258.95 406.2 259.05 406.2 259.15 406.2 259.3 406.2 259.4 406.2 259.5 406.2 259.6 406.3 259.7 406.35 259.8 406.4158203125 259.898828125 406.5 259.95
L 406 259.75
Q 391.6060546875 265.8080078125 376.6 259.75 376.6 259.65 376.6 259.55 376.6 259.4 376.6 259.3 376.6 259.2 376.6 259.1 376.6 259 376.6 258.9 376.6 258.75 376.6 258.65 376.6 258.55 376.6 258.45 376.6 258.35 376.6 258.25 376.6 258.1 376.6 258 376.6 257.9 376.6 257.8 376.6 257.7 376.6 257.6 376.6 257.45 376.6 257.35 376.6 257.25 376.6 257.15 376.6 257.05 376.6 256.95 376.6 256.8 376.6 256.7 376.6 256.6 376.6 256.5 376.6 256.4 376.6 256.25 376.6 256.15 376.6 256.05 376.6 255.95 376.6 255.85 376.6 255.75 376.6 255.6 376.6 255.5 376.6 255.4 376.6 255.3 376.6 255.2 376.6 255.1 376.6 254.95 376.6 254.85 376.6 254.75 376.6 254.65 376.6 254.55 376.6 254.45 376.6 254.3 376.6 254.2 376.6 254.1 376.6 254 376.6 253.9 376.6 253.8 376.6 253.65 376.6 253.55 376.6 253.45 376.6 253.35 376.6 253.25 376.6 253.1 376.6 253 376.6 252.9 376.6 252.8 376.6 252.7 376.6 252.6 376.6 252.45 376.6 252.35 376.6 252.25 376.6 252.15 376.6 252.05 376.6 251.95 376.6 251.8 376.6 251.7 376.6 251.6 376.6 251.5 376.6 251.4 376.6 251.3 376.6 251.15 376.6 251.05 376.6 250.95 376.6 250.85 376.6 250.75 376.6 250.65 376.6 250.5 376.6 250.4 376.6 250.3 376.6 250.2 376.6 250.1 376.6 249.95 376.6 249.85 376.6 249.75 376.6 249.65 376.6 249.55 376.6 249.45 376.6 249.3 376.6 249.2 376.6 249.1 376.6 249 376.6 248.9 376.6 248.8 376.6 248.65 376.6 248.55 376.6 248.45 376.6 248.35 376.6 248.25 376.6 248.15 376.6 248 376.6 247.9 376.6 247.8 376.6 247.7 376.6 247.6 376.6 247.5 376.6 247.35 376.6 247.25 376.6 247.15 376.6 247.05 376.6 246.95 376.6 246.8 376.6 246.7 376.6 246.6 376.6 246.5 376.6 246.4 376.6 246.3 376.6 246.15 376.6 246.05 376.6 245.95 376.6 245.85 376.6 245.75 376.6 245.65 376.6 245.5 376.6 245.4 376.6 245.3 376.6 245.2 376.6 245.1 376.6 245 376.6 244.85 376.6 244.75 376.6 244.65 376.6 244.55 376.6 244.45 376.6 244.35 376.6 244.2 376.6 244.1 376.6 244 376.6 243.9 376.6 243.8 376.6 243.65 376.6 243.55 376.6 243.45 376.6 243.35 376.6 243.25 376.6 243.15 376.6 243 376.6 242.9 376.6 242.8 376.6 242.7 376.6 242.6 376.6 242.5 376.6 242.35 376.6 242.25 376.6 242.15 376.6 242.05 376.6 241.95 376.6 241.85 376.6 241.7 376.6 241.6 376.6 241.5 376.6 241.4 376.6 241.3 376.6 241.15 376.6 241.05 376.6 240.95 376.6 240.85 376.6 240.75 376.6 240.65 376.6 240.5 376.6 240.4 376.6 240.3 376.6 240.2 376.6 240.1 376.6 240 376.6 239.85 376.6 239.75 376.6 239.65 376.6 239.55 376.6 239.45 376.6 239.35 376.6 239.2 376.6 239.1 376.6 239 376.6 238.9 376.6 238.8 376.6 238.7 376.6 238.55 376.6 238.45 376.6 238.35 376.6 238.25 376.6 238.15 376.6 238 376.6 237.9 376.6 237.8 376.6 237.7 376.6 237.6 376.6 237.5 376.6 237.35 376.6 237.25 376.6 237.15 376.6 237.05 376.6 236.95 376.6 236.85 376.6 236.7 376.55 236.6 376.55 236.5 376.55 236.4 376.55 236.3 376.55 236.2 376.55 236.05 376.55 235.95 376.55 235.85 376.55 235.75 376.55 235.65 376.55 235.55 376.55 235.4 376.55 235.3 376.55 235.2 376.55 235.1 376.55 235 376.55 234.85 376.55 234.75 376.55 234.65 376.55 234.55 376.55 234.45 376.55 234.35 376.55 234.2 376.55 234.1 376.55 234 376.55 233.9 376.55 233.8 376.55 233.7 376.55 233.55 376.55 233.45 376.55 233.35 376.55 233.25 376.55 233.15 376.55 233.05 376.55 232.9 376.55 232.8 376.55 232.7 376.55 232.6 376.55 232.5 376.55 232.4 376.5 232.25 376.45 232.15 376.45 232.05 376.45 231.95 376.45 231.85 376.45 231.7 376.45 231.6 376.45 231.5 376.45 231.4 376.45 231.3 376.45 231.2328125 376.45 231.15 378.5525390625 232.5529296875 385.05 233.9 393.065625 235.5720703125 406.45 231.35 406.45 231.45 406.45 231.6 406.4 231.7 406.35 231.8
M 405.05 235.6
L 405.55 234.9 404.65 234.05
Q 404.55 234.1 404.45 234.15 391.6 238.4 378.3 234.35 378.1 234.5 378.1 234.7 377.5 246.7 378 258.7 391.6 265.2 404.95 258.65
L 405.05 235.6
M 397.75 236.55
Q 401.1 236.3 404.4 235.7
L 404.25 258.05
Q 393.4 262.1 382.1 259.5 380.4 258.95 378.8 258.2
L 378.8 235.4
Q 388.15 238 397.75 236.55
M 400.45 191.3
Q 400.4 191.3 400.3 191.3 400.25 191.3 400.15 191.3 400.15 191.35 400.15 191.4 400.15 191.45 400.15 191.55 400.15 191.65 400.15 191.75 400.15 191.85 400.15 191.95 400.15 192.1 400.15 192.2 400.15 192.3 400.15 192.4 400.15 192.5 400.1 192.6 400.1 192.75 400.1 192.85 400.1 192.95 400.1 193.05 400.1 193.15 400.1 193.25 400.1 193.4 400.1 193.5 400.1 193.6 400.1 193.7 400.1 193.8 400.1 193.9 400.1 194.05 400.1 194.15 400.1 194.25 400.1 194.35 400.1 194.45 400.1 194.55 400.1 194.7 400.1 194.8 400.1 194.9 400.1 195 400.1 195.1 400.1 195.25 400.1 195.35 400.1 195.45 400.1 195.55 400.1 195.65 400.1 195.75 400.1 195.9 400.1 196 400.1 196.1 400.1 196.2 400.1 196.3 400.1 196.4 400.1 196.55 400.1 196.65 400.1 196.75 400.1 196.85 400.1 196.95 400.1 197.05 400.1 197.2 400.1 197.3 400.1 197.4 400.15 197.5 400.15 197.6 400.15 197.7 400.15 197.85 400.15 197.95 400.15 198.05 400.15 198.15 400.15 198.25 400.2 198.4 400.25 198.5 400.3 198.5 400.4 198.5 400.4 198.4 400.45 198.25 400.5 198.15 400.55 198.05 400.55 197.95 400.55 197.85 400.55 197.7 400.55 197.6 400.55 197.5 400.55 197.4 400.55 197.3 400.6 197.2 400.6 197.05 400.6 196.95 400.6 196.85 400.6 196.75 400.6 196.65 400.6 196.55 400.6 196.4 400.6 196.3 400.6 196.2 400.6 196.1 400.6 196 400.6 195.9 400.6 195.75 400.6 195.65 400.6 195.55 400.6 195.45 400.6 195.35 400.6 195.25 400.6 195.1 400.6 195 400.6 194.9 400.6 194.8 400.6 194.7 400.6 194.55 400.6 194.45 400.6 194.35 400.6 194.25 400.6 194.15 400.6 194.05 400.6 193.9 400.6 193.8 400.6 193.7 400.6 193.6 400.6 193.5 400.6 193.4 400.6 193.25 400.6 193.15 400.6 193.05 400.6 192.95 400.6 192.85 400.6 192.75 400.6 192.6 400.55 192.5 400.55 192.4 400.65 192.3 400.75 192.2 400.8 192.1 400.8 191.95 400.75 191.85 400.7 191.75 400.6 191.65 400.55 191.55 400.5 191.4 400.45 191.3 Z"/>

<path fill="#A39469" stroke="none" d="
M 374.4 273.7
Q 375.15 276 377.55 277.8 379 278.95 380.8 279.8 382.95 280.8 385.5 281.45 387.65 281.95 391.2 282.35 393.9291015625 282.042578125 395.8 281.65 379.7873046875 280.778515625 375 273.4 374.50234375 272.64375 374.05 271.75 374.128125 272.884375 374.4 273.7
M 403.7 200.9
L 403.7 200.95
Q 403.65 201 403.55 201.1 403.4 201.15 403.2 201.15 401.05 201.15 398.85 201.15 393.75 201.15 388.65 201.1 386.25 201.05 383.9 201 382.35 201 380.85 200.95 380.4 200.9 379.95 200.85 379.75 200.85 379.55 200.8 379.489453125 200.78984375 379.4 200.75 378.514453125 200.8779296875 377.6 201.3 378.05 202.5 377.55 204 377.16328125 205.1171875 376.35 206.05 376.240625 206.20234375 376.1 206.35 374.8 207.6 374.25 208.25 373.15 209.35 372.75 210.45 372.25 211.75 372.35 213.75 372.4 213.95 372.4 214.2 372.4966796875 214.8037109375 372.6 215.7 372.9638671875 214.459765625 373.5 213.25 373.9662109375 212.2203125 374.8 210.75 374.3689453125 210.6505859375 373.95 210.55 374.3984375 210.6099609375 374.85 210.65 375.8935546875 208.776171875 377.5 206.15 379.3025390625 206.39140625 382.1 206.9 387.05 207.75 389.55 207.75 392.25 207.75 398.8 206.65 403.6890625 205.7849609375 405.6 205.55 405.08984375 204.8373046875 404.8 204 404.3 202.5 404.75 201.3 404.243359375 201.0568359375 403.7 200.9
M 402.1 204.4
L 402.05 204.65
Q 400.95 204.85 398.75 204.85
L 382.35 204.8
Q 380.9 204.8 380.2 204.95
L 380.2 204.55
Q 381.65 204.15 384.7 204.15
L 398.4 204.15
Q 400.9 204.15 402.1 204.4
M 402.55 226.6
Q 402.7 226.5 403.6 226 404.25 225.6 404.55 225.3 405 224.85 405.05 224.25 405.1 223.55 404.65 223.2 404.2 222.9 403.1 223.1 398.55 224.05 394.2 223.95 393.15 223.95 392.85 224.4 392.5 225.1 393.2 225.7 393.6 225.95 394.55 226.25
L 396.4 227.1
Q 397.65 227.6 400.35 227.5
L 401.45 227.35
Q 401.6 227.25 402.55 226.6 Z"/>

<path fill="#767061" stroke="none" d="
M 406.25 206.35
Q 405.894140625 205.976171875 405.6 205.55 403.6890625 205.7849609375 398.8 206.65 392.25 207.75 389.55 207.75 387.05 207.75 382.1 206.9 379.3025390625 206.39140625 377.5 206.15 375.8935546875 208.776171875 374.85 210.65 388.246875 212.33515625 401.6 210.4 405.15 210 408.45 210.2 395.85 214.1 382.3 213.6
L 392.45 212.45
Q 383.3470703125 212.68828125 374.8 210.75 373.9662109375 212.2203125 373.5 213.25 372.9638671875 214.459765625 372.6 215.7 372.7689453125 216.7056640625 372.95 218.05 373.05 218.95 373 220.15 372.95 220.85 372.9 221.6 373.6 238.45 373.3 255.35 373.2 261.3 374 267.35 374.05 268 374.05 268.45 374.05 268.6 374.05 268.8 374.05 269.65 374.05 271.1 374.05 271.4458984375 374.05 271.75 374.50234375 272.64375 375 273.4 379.7873046875 280.778515625 395.8 281.65 396.364453125 281.565625 396.85 281.45 399.45 280.8 401.55 279.8 403.35 278.95 404.8 277.8 407.2 276 407.95 273.7 408.3 272.65 408.35 271.1 408.3 269.65 408.3 268.8 408.35 268.6 408.35 268.45 408.35 268 408.4 267.35 409.15 261.3 409.05 255.35 408.75 238.45 409.45 221.6 409.4 220.85 409.4 220.15 409.35 218.95 409.4 218.05 409.8 215.45 409.95 214.2 409.95 213.95 410 213.75 410.15 211.75 409.65 210.45 409.2 209.35 408.15 208.25 407.55 207.6 406.25 206.35
M 407.25 230.65
Q 407.25 230.75 407.3 230.85 407.3 230.95 407.3 231.05 407.35 231.2 407.4 231.3 407.4 231.4 407.4 231.5 407.4 231.6 407.4 231.7 407.4 231.85 407.45 231.95 407.45 232.05 407.45 232.15 407.45 232.25 407.45 232.4 407.45 232.5 407.45 232.6 407.5 232.7 407.5 232.8 407.5 232.9 407.5 233.05 407.5 233.15 407.5 233.25 407.5 233.35 407.5 233.45 407.5 233.55 407.5 233.7 407.5 233.8 407.5 233.9 407.5 234 407.5 234.1 407.5 234.2 407.5 234.35 407.5 234.45 407.5 234.55 407.5 234.65 407.5 234.75 407.5 234.85 407.5 235 407.5 235.1 407.5 235.2 407.5 235.3 407.5 235.4 407.5 235.55 407.5 235.65 407.5 235.75 407.5 235.85 407.5 235.95 407.5 236.05 407.5 236.2 407.5 236.3 407.5 236.4 407.5 236.5 407.5 236.6 407.5 236.7 407.5 236.85 407.5 236.95 407.5 237.05 407.5 237.15 407.5 237.25 407.5 237.35 407.5 237.5 407.5 237.6 407.5 237.7 407.5 237.8 407.5 237.9 407.5 238 407.5 238.15 407.5 238.25 407.55 238.35 407.6 238.45 407.6 238.55 407.6 238.7 407.6 238.8 407.6 238.9 407.6 239 407.6 239.1 407.6 239.2 407.6 239.35 407.6 239.45 407.6 239.55 407.6 239.65 407.6 239.75 407.6 239.85 407.6 240 407.6 240.1 407.6 240.2 407.6 240.3 407.6 240.4 407.6 240.5 407.6 240.65 407.6 240.75 407.6 240.85 407.6 240.95 407.6 241.05 407.6 241.15 407.6 241.3 407.6 241.4 407.6 241.5 407.6 241.6 407.6 241.7 407.6 241.85 407.6 241.95 407.6 242.05 407.6 242.15 407.6 242.25 407.6 242.35 407.6 242.5 407.6 242.6 407.6 242.7 407.6 242.8 407.6 242.9 407.6 243 407.6 243.15 407.6 243.25 407.6 243.35 407.6 243.45 407.6 243.55 407.6 243.65 407.6 243.8 407.6 243.9 407.6 244 407.6 244.1 407.6 244.2 407.6 244.35 407.6 244.45 407.6 244.55 407.6 244.65 407.6 244.75 407.6 244.85 407.6 245 407.6 245.1 407.6 245.2 407.6 245.3 407.6 245.4 407.6 245.5 407.6 245.65 407.6 245.75 407.6 245.85 407.6 245.95 407.6 246.05 407.6 246.15 407.6 246.3 407.6 246.4 407.6 246.5 407.6 246.6 407.6 246.7 407.6 246.8 407.6 246.95 407.6 247.05 407.6 247.15 407.6 247.25 407.6 247.35 407.6 247.5 407.6 247.6 407.6 247.7 407.6 247.8 407.6 247.9 407.6 248 407.6 248.15 407.6 248.25 407.6 248.35 407.6 248.45 407.6 248.55 407.6 248.65 407.6 248.8 407.6 248.9 407.6 249 407.6 249.1 407.6 249.2 407.6 249.3 407.6 249.45 407.6 249.55 407.6 249.65 407.6 249.75 407.6 249.85 407.6 249.95 407.6 250.1 407.6 250.2 407.6 250.3 407.6 250.4 407.6 250.5 407.6 250.65 407.6 250.75 407.6 250.85 407.6 250.95 407.6 251.05 407.6 251.15 407.6 251.3 407.6 251.4 407.6 251.5 407.6 251.6 407.6 251.7 407.6 251.8 407.6 251.95 407.6 252.05 407.6 252.15 407.6 252.25 407.6 252.35 407.6 252.45 407.6 252.6 407.6 252.7 407.6 252.8 407.6 252.9 407.6 253 407.6 253.1 407.6 253.25 407.6 253.35 407.6 253.45 407.6 253.55 407.6 253.65 407.6 253.8 407.6 253.9 407.6 254 407.6 254.1 407.6 254.2 407.6 254.3 407.6 254.45 407.6 254.55 407.6 254.65 407.6 254.75 407.6 254.85 407.6 254.95 407.6 255.1 407.6 255.2 407.6 255.3 407.6 255.4 407.6 255.5 407.6 255.6 407.6 255.75 407.6 255.85 407.6 255.95 407.6 256.05 407.6 256.15 407.6 256.25 407.6 256.4 407.6 256.5 407.6 256.6 407.6 256.7 407.6 256.8 407.6 256.95 407.6 257.05 407.6 257.15 407.6 257.25 407.6 257.35 407.6 257.45 407.6 257.6 407.6 257.7 407.6 257.8 407.6 257.9 407.6 258 407.6 258.1 407.6 258.25 407.6 258.35 407.6 258.45 407.6 258.55 407.6 258.65 407.6 258.75 407.6 258.9 407.6 259 407.6 259.1 407.6 259.2 407.6 259.3 407.55 259.4 407.5 259.55 407.5 259.65 407.45 259.75 407.35 259.85 407.25 259.95 407.2 260.05 407.15 260.1 406.921484375 260.1 406.7 260.05
L 406.9 260.15
Q 395.5 267.75 380 262.25 377.5537109375 261.395703125 376.25 260.1 376.25 260.1595703125 376.25 260.2 376.05 260.2 375.9 260.25 375.7 260.2 375.5 260.1 375.4 260 375.3 259.9 375.25 259.8 375.2 259.7 375.2 259.55 375.2 259.45 375.2 259.35 375.2 259.25 375.2 259.15 375.2 259.05 375.2 258.9 375.2 258.8 375.2 258.7 375.2 258.6 375.2 258.5 375.2 258.35 375.2 258.25 375.2 258.15 375.2 258.05 375.2 257.95 375.2 257.85 375.2 257.7 375.2 257.6 375.2 257.5 375.2 257.4 375.2 257.3 375.2 257.2 375.2 257.05 375.2 256.95 375.2 256.85 375.2 256.75 375.2 256.65 375.2 256.55 375.2 256.4 375.2 256.3 375.2 256.2 375.2 256.1 375.2 256 375.2 255.9 375.2 255.75 375.2 255.65 375.2 255.55 375.2 255.45 375.2 255.35 375.2 255.2 375.2 255.1 375.2 255 375.2 254.9 375.2 254.8 375.2 254.7 375.2 254.55 375.2 254.45 375.2 254.35 375.2 254.25 375.2 254.15 375.2 254.05 375.2 253.9 375.2 253.8 375.2 253.7 375.2 253.6 375.2 253.5 375.2 253.4 375.2 253.25 375.2 253.15 375.2 253.05 375.2 252.95 375.2 252.85 375.2 252.75 375.2 252.6 375.2 252.5 375.2 252.4 375.2 252.3 375.2 252.2 375.2 252.05 375.2 251.95 375.2 251.85 375.2 251.75 375.2 251.65 375.2 251.55 375.2 251.4 375.2 251.3 375.2 251.2 375.2 251.1 375.2 251 375.2 250.9 375.2 250.75 375.2 250.65 375.2 250.55 375.2 250.45 375.2 250.35 375.2 250.25 375.2 250.1 375.2 250 375.2 249.9 375.2 249.8 375.2 249.7 375.2 249.6 375.2 249.45 375.2 249.35 375.2 249.25 375.2 249.15 375.2 249.05 375.2 248.9 375.2 248.8 375.2 248.7 375.2 248.6 375.2 248.5 375.2 248.4 375.2 248.25 375.2 248.15 375.2 248.05 375.2 247.95 375.2 247.85 375.2 247.75 375.2 247.6 375.2 247.5 375.2 247.4 375.2 247.3 375.2 247.2 375.2 247.1 375.2 246.95 375.2 246.85 375.2 246.75 375.2 246.65 375.2 246.55 375.2 246.45 375.2 246.3 375.2 246.2 375.2 246.1 375.2 246 375.2 245.9 375.2 245.75 375.2 245.65 375.2 245.55 375.2 245.45 375.2 245.35 375.2 245.25 375.2 245.1 375.2 245 375.2 244.9 375.2 244.8 375.2 244.7 375.2 244.6 375.2 244.45 375.2 244.35 375.2 244.25 375.2 244.15 375.2 244.05 375.2 243.95 375.2 243.8 375.2 243.7 375.2 243.6 375.2 243.5 375.2 243.4 375.2 243.25 375.2 243.15 375.2 243.05 375.2 242.95 375.2 242.85 375.2 242.75 375.2 242.6 375.2 242.5 375.2 242.4 375.2 242.3 375.2 242.2 375.2 242.1 375.2 241.95 375.2 241.85 375.2 241.75 375.2 241.65 375.2 241.55 375.2 241.45 375.2 241.3 375.2 241.2 375.2 241.1 375.2 241 375.2 240.9 375.2 240.8 375.2 240.65 375.2 240.55 375.2 240.45 375.2 240.35 375.2 240.25 375.2 240.1 375.2 240 375.2 239.9 375.2 239.8 375.2 239.7 375.2 239.6 375.2 239.45 375.2 239.35 375.2 239.25 375.2 239.15 375.2 239.05 375.2 238.95 375.2 238.8 375.2 238.7 375.2 238.6 375.2 238.5 375.2 238.4 375.2 238.3 375.2 238.15 375.2 238.05 375.2 237.95 375.2 237.85 375.2 237.75 375.2 237.65 375.2 237.5 375.2 237.4 375.2 237.3 375.2 237.2 375.2 237.1 375.2 236.95 375.2 236.85 375.2 236.75 375.2 236.65 375.2 236.55 375.2 236.45 375.25 236.3 375.3 236.2 375.3 236.1 375.3 236 375.3 235.9 375.3 235.8 375.3 235.65 375.3 235.55 375.3 235.45 375.3 235.35 375.3 235.25 375.3 235.15 375.3 235 375.3 234.9 375.3 234.8 375.3 234.7 375.3 234.6 375.3 234.5 375.3 234.35 375.3 234.25 375.3 234.15 375.3 234.05 375.3 233.95 375.3 233.8 375.3 233.7 375.3 233.6 375.3 233.5 375.3 233.4 375.3 233.3 375.3 233.15 375.3 233.05 375.3 232.95 375.3 232.85 375.3 232.75 375.3 232.65 375.3 232.5 375.3 232.4 375.3 232.3 375.3 232.2 375.3 232.1 375.35 232 375.35 231.85 375.35 231.75 375.35 231.65 375.35 231.55 375.35 231.45 375.35 231.35 375.35 231.2 375.35 231.1 375.35 231 375.35 230.9 375.35 230.8 375.4 230.65 375.45 230.55 375.45 230.45 375.45 230.35 375.5 230.3 375.6 230.2 375.6 230.15 375.65 230.15 375.75 230.15 375.9 230.15 375.9 230.1 375.9 230.05 376.05 230.15 376.25 230.2 376.3 230.3 376.4 230.4 376.4 230.5166015625 376.4 230.6 391.1763671875 234.505859375 406 230.8
L 406.45 231 406.5 230.95
Q 406.5 230.8 406.5 230.7 406.6 230.65 406.65 230.55 406.75 230.55 406.85 230.55
L 406.85 230.5
Q 407.05 230.55 407.25 230.65
M 398.95 216.65
L 399.1 216.9
Q 398.7 217.1 398.05 217.15
L 397 217.2
Q 396.75 217.2 395.6 217.45 394.9 217.55 393.45 217.55 385.2 217.55 381.1 217.3 381.05 217.25 381.15 217.15 381.3 217.05 381.4 217.05 385.25 216.95 392.9 216.95
L 395.05 216.9
Q 395.1 216.9 396.45 216.8 397.3 216.7 397.85 216.75 398.7 216.75 398.95 216.65
M 403.6 226
Q 402.7 226.5 402.55 226.6 401.6 227.25 401.45 227.35
L 400.35 227.5
Q 397.65 227.6 396.4 227.1
L 394.55 226.25
Q 393.6 225.95 393.2 225.7 392.5 225.1 392.85 224.4 393.15 223.95 394.2 223.95 398.55 224.05 403.1 223.1 404.2 222.9 404.65 223.2 405.1 223.55 405.05 224.25 405 224.85 404.55 225.3 404.25 225.6 403.6 226
M 400.15 271.1
Q 401.15 269.95 402.75 268.55
L 405.95 265.8 402.85 268.9
Q 400.7 271.2 400.05 272 398.4 274 397.75 274.45 398.55 272.95 400.15 271.1
M 404.5 268.55
Q 404.25 269.15 402.75 270.65 401.85 271.45 399.6 273.95 397.65 276.05 396.3 277.1 396.25 276.9 396.55 276.6
L 398.65 274.3
Q 402.5 270.1 404.5 268.55
M 400.45 273.7
Q 400.8 273.25 401.05 273.25 399.55 275.45 397.9 277.45
L 397.65 277.6
Q 397.65 277.35 398.1 276.8
L 400.45 273.7 Z"/>

<path fill="#FFFFFF" stroke="none" d="
M 406.35 232
Q 406.35 231.9 406.35 231.8 406.4 231.7 406.45 231.6 406.45 231.45 406.45 231.35 393.065625 235.5720703125 385.05 233.9 378.5525390625 232.5529296875 376.45 231.15 376.45 231.2328125 376.45 231.3 376.45 231.4 376.45 231.5 376.45 231.6 376.45 231.7 376.45 231.85 376.45 231.95 376.45 232.05 376.45 232.15 376.5 232.25 376.55 232.4 376.55 232.5 376.55 232.6 376.55 232.7 376.55 232.8 376.55 232.9 376.55 233.05 376.55 233.15 376.55 233.25 376.55 233.35 376.55 233.45 376.55 233.55 376.55 233.7 376.55 233.8 376.55 233.9 376.55 234 376.55 234.1 376.55 234.2 376.55 234.35 376.55 234.45 376.55 234.55 376.55 234.65 376.55 234.75 376.55 234.85 376.55 235 376.55 235.1 376.55 235.2 376.55 235.3 376.55 235.4 376.55 235.55 376.55 235.65 376.55 235.75 376.55 235.85 376.55 235.95 376.55 236.05 376.55 236.2 376.55 236.3 376.55 236.4 376.55 236.5 376.55 236.6 376.6 236.7 376.6 236.85 376.6 236.95 376.6 237.05 376.6 237.15 376.6 237.25 376.6 237.35 376.6 237.5 376.6 237.6 376.6 237.7 376.6 237.8 376.6 237.9 376.6 238 376.6 238.15 376.6 238.25 376.6 238.35 376.6 238.45 376.6 238.55 376.6 238.7 376.6 238.8 376.6 238.9 376.6 239 376.6 239.1 376.6 239.2 376.6 239.35 376.6 239.45 376.6 239.55 376.6 239.65 376.6 239.75 376.6 239.85 376.6 240 376.6 240.1 376.6 240.2 376.6 240.3 376.6 240.4 376.6 240.5 376.6 240.65 376.6 240.75 376.6 240.85 376.6 240.95 376.6 241.05 376.6 241.15 376.6 241.3 376.6 241.4 376.6 241.5 376.6 241.6 376.6 241.7 376.6 241.85 376.6 241.95 376.6 242.05 376.6 242.15 376.6 242.25 376.6 242.35 376.6 242.5 376.6 242.6 376.6 242.7 376.6 242.8 376.6 242.9 376.6 243 376.6 243.15 376.6 243.25 376.6 243.35 376.6 243.45 376.6 243.55 376.6 243.65 376.6 243.8 376.6 243.9 376.6 244 376.6 244.1 376.6 244.2 376.6 244.35 376.6 244.45 376.6 244.55 376.6 244.65 376.6 244.75 376.6 244.85 376.6 245 376.6 245.1 376.6 245.2 376.6 245.3 376.6 245.4 376.6 245.5 376.6 245.65 376.6 245.75 376.6 245.85 376.6 245.95 376.6 246.05 376.6 246.15 376.6 246.3 376.6 246.4 376.6 246.5 376.6 246.6 376.6 246.7 376.6 246.8 376.6 246.95 376.6 247.05 376.6 247.15 376.6 247.25 376.6 247.35 376.6 247.5 376.6 247.6 376.6 247.7 376.6 247.8 376.6 247.9 376.6 248 376.6 248.15 376.6 248.25 376.6 248.35 376.6 248.45 376.6 248.55 376.6 248.65 376.6 248.8 376.6 248.9 376.6 249 376.6 249.1 376.6 249.2 376.6 249.3 376.6 249.45 376.6 249.55 376.6 249.65 376.6 249.75 376.6 249.85 376.6 249.95 376.6 250.1 376.6 250.2 376.6 250.3 376.6 250.4 376.6 250.5 376.6 250.65 376.6 250.75 376.6 250.85 376.6 250.95 376.6 251.05 376.6 251.15 376.6 251.3 376.6 251.4 376.6 251.5 376.6 251.6 376.6 251.7 376.6 251.8 376.6 251.95 376.6 252.05 376.6 252.15 376.6 252.25 376.6 252.35 376.6 252.45 376.6 252.6 376.6 252.7 376.6 252.8 376.6 252.9 376.6 253 376.6 253.1 376.6 253.25 376.6 253.35 376.6 253.45 376.6 253.55 376.6 253.65 376.6 253.8 376.6 253.9 376.6 254 376.6 254.1 376.6 254.2 376.6 254.3 376.6 254.45 376.6 254.55 376.6 254.65 376.6 254.75 376.6 254.85 376.6 254.95 376.6 255.1 376.6 255.2 376.6 255.3 376.6 255.4 376.6 255.5 376.6 255.6 376.6 255.75 376.6 255.85 376.6 255.95 376.6 256.05 376.6 256.15 376.6 256.25 376.6 256.4 376.6 256.5 376.6 256.6 376.6 256.7 376.6 256.8 376.6 256.95 376.6 257.05 376.6 257.15 376.6 257.25 376.6 257.35 376.6 257.45 376.6 257.6 376.6 257.7 376.6 257.8 376.6 257.9 376.6 258 376.6 258.1 376.6 258.25 376.6 258.35 376.6 258.45 376.6 258.55 376.6 258.65 376.6 258.75 376.6 258.9 376.6 259 376.6 259.1 376.6 259.2 376.6 259.3 376.6 259.4 376.6 259.55 376.6 259.65 376.6 259.75 391.6060546875 265.8080078125 406 259.75
L 406.5 259.95
Q 406.4158203125 259.898828125 406.35 259.8 406.3 259.7 406.2 259.6 406.2 259.5 406.2 259.4 406.2 259.3 406.2 259.15 406.2 259.05 406.2 258.95 406.2 258.85 406.2 258.75 406.2 258.65 406.2 258.5 406.2 258.4 406.2 258.3 406.2 258.2 406.2 258.1 406.2 258 406.2 257.85 406.2 257.75 406.2 257.65 406.2 257.55 406.2 257.45 406.2 257.3 406.2 257.2 406.2 257.1 406.2 257 406.2 256.9 406.2 256.8 406.2 256.65 406.2 256.55 406.2 256.45 406.2 256.35 406.2 256.25 406.2 256.15 406.2 256 406.2 255.9 406.2 255.8 406.2 255.7 406.2 255.6 406.2 255.5 406.2 255.35 406.2 255.25 406.2 255.15 406.2 255.05 406.2 254.95 406.2 254.85 406.2 254.7 406.2 254.6 406.2 254.5 406.2 254.4 406.2 254.3 406.2 254.15 406.2 254.05 406.2 253.95 406.2 253.85 406.2 253.75 406.2 253.65 406.2 253.5 406.2 253.4 406.2 253.3 406.2 253.2 406.2 253.1 406.2 253 406.2 252.85 406.2 252.75 406.2 252.65 406.2 252.55 406.2 252.45 406.2 252.35 406.2 252.2 406.2 252.1 406.2 252 406.2 251.9 406.2 251.8 406.2 251.7 406.2 251.55 406.2 251.45 406.2 251.35 406.2 251.25 406.2 251.15 406.2 251 406.2 250.9 406.2 250.8 406.2 250.7 406.2 250.6 406.2 250.5 406.2 250.35 406.2 250.25 406.2 250.15 406.2 250.05 406.2 249.95 406.2 249.85 406.2 249.7 406.2 249.6 406.2 249.5 406.2 249.4 406.2 249.3 406.2 249.2 406.2 249.05 406.2 248.95 406.2 248.85 406.2 248.75 406.2 248.65 406.2 248.55 406.2 248.4 406.2 248.3 406.2 248.2 406.2 248.1 406.2 248 406.2 247.85 406.2 247.75 406.2 247.65 406.2 247.55 406.2 247.45 406.2 247.35 406.2 247.2 406.2 247.1 406.2 247 406.2 246.9 406.2 246.8 406.2 246.7 406.2 246.55 406.2 246.45 406.2 246.35 406.2 246.25 406.2 246.15 406.2 246.05 406.2 245.9 406.2 245.8 406.2 245.7 406.2 245.6 406.2 245.5 406.2 245.4 406.2 245.25 406.2 245.15 406.2 245.05 406.2 244.95 406.2 244.85 406.2 244.7 406.2 244.6 406.2 244.5 406.2 244.4 406.2 244.3 406.2 244.2 406.2 244.05 406.2 243.95 406.2 243.85 406.2 243.75 406.2 243.65 406.2 243.55 406.2 243.4 406.2 243.3 406.2 243.2 406.2 243.1 406.2 243 406.2 242.9 406.2 242.75 406.2 242.65 406.2 242.55 406.2 242.45 406.2 242.35 406.2 242.2 406.2 242.1 406.2 242 406.2 241.9 406.2 241.8 406.2 241.7 406.2 241.55 406.2 241.45 406.2 241.35 406.2 241.25 406.2 241.15 406.2 241.05 406.2 240.9 406.2 240.8 406.2 240.7 406.2 240.6 406.2 240.5 406.2 240.4 406.2 240.25 406.2 240.15 406.2 240.05 406.2 239.95 406.2 239.85 406.2 239.75 406.2 239.6 406.2 239.5 406.2 239.4 406.2 239.3 406.2 239.2 406.2 239.05 406.2 238.95 406.2 238.85 406.2 238.75 406.2 238.65 406.2 238.55 406.2 238.4 406.2 238.3 406.25 238.2 406.3 238.1 406.3 238 406.3 237.9 406.3 237.75 406.3 237.65 406.3 237.55 406.3 237.45 406.3 237.35 406.3 237.25 406.3 237.1 406.3 237 406.3 236.9 406.3 236.8 406.3 236.7 406.3 236.6 406.3 236.45 406.3 236.35 406.3 236.25 406.3 236.15 406.3 236.05 406.3 235.9 406.3 235.8 406.3 235.7 406.3 235.6 406.3 235.5 406.3 235.4 406.3 235.25 406.3 235.15 406.3 235.05 406.3 234.95 406.3 234.85 406.3 234.75 406.3 234.6 406.3 234.5 406.3 234.4 406.3 234.3 406.3 234.2 406.3 234.1 406.3 233.95 406.3 233.85 406.3 233.75 406.3 233.65 406.3 233.55 406.3 233.45 406.3 233.3 406.3 233.2 406.3 233.1 406.3 233 406.3 232.9 406.35 232.75 406.35 232.65 406.35 232.55 406.35 232.45 406.35 232.35 406.35 232.25 406.35 232.1 406.35 232
M 405.55 234.9
L 405.05 235.6 404.95 258.65
Q 391.6 265.2 378 258.7 377.5 246.7 378.1 234.7 378.1 234.5 378.3 234.35 391.6 238.4 404.45 234.15 404.55 234.1 404.65 234.05
L 405.55 234.9 Z"/>

<path fill="#94A26E" stroke="none" d="
M 404.4 235.7
Q 401.1 236.3 397.75 236.55 388.15 238 378.8 235.4
L 378.8 258.2
Q 380.4 258.95 382.1 259.5 393.4 262.1 404.25 258.05
L 404.4 235.7 Z"/>

<path fill="#E3C5AB" stroke="none" d="
M 382.15 188.2
Q 382.025390625 188.698046875 381.85 189.2 382.696484375 189.1865234375 383.5 189.15 388.85 189.15 394.25 189.15 394.25 189.1 394.25 189.05 397.5966796875 189.05 401 189.05 400.85625 188.625 400.75 188.2 400.5666015625 187.32890625 400.4 186.5 399.15 182.7 394.65 183.25 390.25 182.95 385.9 183.5 383 183.7 382.45 186.5 382.3333984375 187.32890625 382.15 188.2
M 383.9 185.45
Q 384.2 185.05 384.6 185.15
L 384.6 185.05
Q 385.1 185.1 386.05 185.1 386.3 185.2 386.45 185.4 386.5 185.5 386.5 186 386.5 186.65 386.45 186.75 386.4 187.1 386.05 187.25 385.3 187.85 384.2 187.6
L 383.9 187.4
Q 383.8 187.3 383.8 186.95
L 383.8 186.2
Q 383.8 185.65 383.9 185.45
M 381.55 191.15
L 381.5 191.15
Q 380.775 191.1119140625 380.05 191.05
L 380.05 199.85 380.1 199.85
Q 380.1724609375 199.904296875 380.2 199.95 380.634375 199.95 381.05 199.95 382.55 199.9 384.1 199.85 386.35 199.8 388.65 199.8 393.75 199.8 398.85 199.8 398.85 199.75 398.85 199.7 400.87109375 199.7 402.85 199.7
L 402.85 191.1
Q 402.700390625 191.0935546875 402.55 191.1 402.27578125 191.1078125 402 191.1
L 402 191.15
Q 402 191.3 402 191.4 402 191.5 402 191.6 402 191.7 402.05 191.8 402.05 191.95 402.05 192.05 402.05 192.15 402.05 192.25 402.05 192.35 402.05 192.45 402.05 192.6 402.05 192.7 402.05 192.8 402.05 192.9 402.05 193 402.05 193.15 402.05 193.25 402.05 193.35 402.05 193.45 402.05 193.55 402.05 193.65 402.05 193.8 402.05 193.9 402.05 194 402.05 194.1 402.05 194.2 402.05 194.3 402.05 194.45 402.05 194.55 402.05 194.65 402 194.75 402 194.85 402 194.95 402 195.1 402 195.2 402 195.3 402 195.4 402 195.5 402 195.6 402 195.75 402 195.85 402 195.95 402 196.05 402 196.15 402 196.3 402 196.4 402 196.5 402 196.6 402 196.7 402 196.8 402 196.95 402 197.05 401.95 197.15 401.9 197.25 401.9 197.35 401.9 197.45 401.9 197.6 401.9 197.7 401.9 197.8 401.9 197.9 401.85 198 401.85 198.1 401.75 198.1 401.7 198.1 401.65 198 401.6 197.9 401.6 197.8 401.6 197.7 401.65 197.6 401.7 197.45 401.7 197.35 401.7 197.25 401.65 197.15 401.6 197.05 401.6 196.95 401.6 196.8 401.6 196.7 401.6 196.6 401.6 196.5 401.6 196.4 401.6 196.3 401.6 196.15 401.6 196.05 401.6 195.95 401.6 195.85 401.6 195.75 401.6 195.6 401.6 195.5 401.6 195.4 401.6 195.3 401.6 195.2 401.6 195.1 401.6 194.95 401.55 194.85 401.55 194.75 401.55 194.65 401.55 194.55 401.55 194.45 401.55 194.3 401.55 194.2 401.55 194.1 401.55 194 401.55 193.9 401.55 193.8 401.55 193.65 401.55 193.55 401.55 193.45 401.55 193.35 401.55 193.25 401.55 193.15 401.55 193 401.55 192.9 401.55 192.8 401.55 192.7 401.55 192.6 401.55 192.45 401.55 192.35 401.55 192.25 401.55 192.15 401.55 192.05 401.55 191.95 401.55 191.8 401.55 191.7 401.55 191.6 401.6 191.5 401.6 191.4 401.6 191.3 401.6 191.15
L 401.6 191.1
Q 400.31328125 191.15 399 191.15 392.2755859375 191.15 385.55 191.15 385.55 191.225 385.55 191.3 385.55 191.4 385.55 191.55 385.55 191.65 385.55 191.75 385.55 191.85 385.55 191.95 385.55 192.1 385.55 192.2 385.55 192.3 385.55 192.4 385.55 192.5 385.55 192.6 385.55 192.75 385.55 192.85 385.55 192.95 385.55 193.05 385.55 193.15 385.55 193.25 385.55 193.4 385.55 193.5 385.55 193.6 385.55 193.7 385.55 193.8 385.55 193.9 385.55 194.05 385.55 194.15 385.55 194.25 385.55 194.35 385.55 194.45 385.55 194.55 385.55 194.7 385.55 194.8 385.55 194.9 385.55 195 385.55 195.1 385.55 195.25 385.55 195.35 385.55 195.45 385.55 195.55 385.55 195.65 385.55 195.75 385.55 195.9 385.55 196 385.55 196.1 385.5 196.2 385.45 196.3 385.45 196.4 385.45 196.55 385.45 196.65 385.45 196.75 385.45 196.85 385.45 196.95 385.45 197.05 385.4 197.2 385.4 197.3 385.4 197.4 385.4 197.5 385.4 197.6 385.3 197.7 385.25 197.75 385.2 197.7 385.1 197.6 385.1 197.5 385.1 197.4 385.1 197.3 385.1 197.2 385.1 197.05 385.1 196.95 385.1 196.85 385.1 196.75 385.1 196.65 385.1 196.55 385.1 196.4 385.1 196.3 385.05 196.2 385.05 196.1 385.05 196 385.05 195.9 385.05 195.75 385.05 195.65 385.05 195.55 385.05 195.45 385.05 195.35 385.05 195.25 385.05 195.1 385.05 195 385.05 194.9 385.05 194.8 385.05 194.7 385.05 194.55 385.05 194.45 385.05 194.35 385.05 194.25 385.05 194.15 385.05 194.05 385.05 193.9 385.05 193.8 385.05 193.7 385.05 193.6 385.05 193.5 385.05 193.4 385.05 193.25 385.05 193.15 385.05 193.05 385.05 192.95 385.05 192.85 385.05 192.75 385.05 192.6 385.05 192.5 385.05 192.4 385.05 192.3 385.05 192.2 385.05 192.1 385.05 191.95 385.05 191.85 385.05 191.75 385.05 191.65 385.05 191.55 385.05 191.4 385.05 191.3 385.05 191.225 385.05 191.15 384.3251953125 191.15 383.6 191.15 383.6 191.3 383.65 191.4 383.75 191.5 383.8 191.6 383.65 191.7 383.5 191.8 383.5 191.95 383.45 192.05 383.45 192.15 383.45 192.25 383.45 192.35 383.45 192.45 383.45 192.6 383.45 192.7 383.45 192.8 383.45 192.9 383.45 193 383.45 193.15 383.45 193.25 383.45 193.35 383.45 193.45 383.45 193.55 383.45 193.65 383.45 193.8 383.45 193.9 383.45 194 383.45 194.1 383.45 194.2 383.45 194.3 383.45 194.45 383.45 194.55 383.45 194.65 383.45 194.75 383.45 194.85 383.45 194.95 383.45 195.1 383.45 195.2 383.45 195.3 383.45 195.4 383.45 195.5 383.45 195.6 383.45 195.75 383.45 195.85 383.45 195.95 383.45 196.05 383.45 196.15 383.45 196.3 383.45 196.4 383.45 196.5 383.45 196.6 383.45 196.7 383.45 196.8 383.45 196.95 383.45 197.05 383.45 197.15 383.45 197.25 383.45 197.35 383.45 197.45 383.45 197.6 383.45 197.7 383.4 197.8 383.35 197.9 383.3 198 383.2 198.1 383.15 198.1 383.1 198.1 383.05 198 383 197.9 382.95 197.8 382.95 197.7 382.95 197.6 382.95 197.45 382.95 197.35 382.95 197.25 382.95 197.15 382.95 197.05 382.95 196.95 382.95 196.8 382.95 196.7 382.95 196.6 382.95 196.5 382.95 196.4 382.95 196.3 382.95 196.15 382.95 196.05 382.95 195.95 382.95 195.85 382.95 195.75 382.95 195.6 382.95 195.5 382.95 195.4 382.95 195.3 382.95 195.2 382.95 195.1 382.95 194.95 382.95 194.85 382.95 194.75 382.95 194.65 382.95 194.55 382.95 194.45 382.95 194.3 382.95 194.2 382.95 194.1 382.95 194 382.95 193.9 382.95 193.8 382.95 193.65 382.95 193.55 382.95 193.45 382.95 193.35 382.95 193.25 382.95 193.15 382.95 193 382.95 192.9 382.95 192.8 382.95 192.7 382.95 192.6 382.95 192.45 382.95 192.35 382.95 192.25 382.95 192.15 382.95 192.05 382.95 191.95 382.95 191.8 382.95 191.7 382.95 191.6 382.95 191.5 382.95 191.4 382.95 191.3 382.95 191.15 382.5130859375 191.15 382.05 191.15 382.1125 191.225 382.15 191.3 382.15 191.4 382.15 191.55 382.1 191.65 382.05 191.75 382.05 191.85 382.05 191.95 382.05 192.1 382.05 192.2 382.05 192.3 382.05 192.4 382.05 192.5 382.05 192.6 382.05 192.75 382.05 192.85 382.05 192.95 382.05 193.05 382.05 193.15 382.05 193.25 382.05 193.4 382.05 193.5 382.05 193.6 382.05 193.7 382.05 193.8 382.05 193.9 382.05 194.05 382.05 194.15 382.05 194.25 382.05 194.35 382.05 194.45 382.05 194.55 382.05 194.7 382.05 194.8 382.05 194.9 382.05 195 382.05 195.1 382.05 195.25 382.05 195.35 382.05 195.45 382.05 195.55 382.05 195.65 382.05 195.75 382.05 195.9 382.05 196 382.05 196.1 382.05 196.2 382.05 196.3 382.05 196.4 382.05 196.55 382.05 196.65 382.05 196.75 382.05 196.85 382.05 196.95 382.05 197.05 382.05 197.2 382.05 197.3 382.05 197.4 382.05 197.5 382.05 197.6 382.05 197.7 382.05 197.85 382.05 197.95 382 198.05 382 198.1 382 198.2 381.8 198.15 381.65 198.1 381.6 198 381.55 197.9 381.55 197.8 381.55 197.7 381.55 197.6 381.55 197.45 381.55 197.35 381.55 197.25 381.55 197.15 381.55 197.05 381.55 196.95 381.55 196.8 381.55 196.7 381.55 196.6 381.55 196.5 381.55 196.4 381.55 196.3 381.55 196.15 381.55 196.05 381.55 195.95 381.55 195.85 381.55 195.75 381.55 195.6 381.55 195.5 381.55 195.4 381.55 195.3 381.55 195.2 381.55 195.1 381.55 194.95 381.55 194.85 381.55 194.75 381.55 194.65 381.55 194.55 381.55 194.45 381.55 194.3 381.55 194.2 381.55 194.1 381.55 194 381.55 193.9 381.55 193.8 381.55 193.65 381.55 193.55 381.55 193.45 381.55 193.35 381.55 193.25 381.55 193.15 381.55 193 381.55 192.9 381.55 192.8 381.55 192.7 381.55 192.6 381.55 192.45 381.55 192.35 381.55 192.25 381.55 192.15 381.55 192.05 381.55 191.95 381.55 191.8 381.6 191.7 381.65 191.6 381.65 191.5 381.7 191.4 381.65 191.3 381.55 191.15
M 400.3 191.3
Q 400.4 191.3 400.45 191.3 400.5 191.4 400.55 191.55 400.6 191.65 400.7 191.75 400.75 191.85 400.8 191.95 400.8 192.1 400.75 192.2 400.65 192.3 400.55 192.4 400.55 192.5 400.6 192.6 400.6 192.75 400.6 192.85 400.6 192.95 400.6 193.05 400.6 193.15 400.6 193.25 400.6 193.4 400.6 193.5 400.6 193.6 400.6 193.7 400.6 193.8 400.6 193.9 400.6 194.05 400.6 194.15 400.6 194.25 400.6 194.35 400.6 194.45 400.6 194.55 400.6 194.7 400.6 194.8 400.6 194.9 400.6 195 400.6 195.1 400.6 195.25 400.6 195.35 400.6 195.45 400.6 195.55 400.6 195.65 400.6 195.75 400.6 195.9 400.6 196 400.6 196.1 400.6 196.2 400.6 196.3 400.6 196.4 400.6 196.55 400.6 196.65 400.6 196.75 400.6 196.85 400.6 196.95 400.6 197.05 400.6 197.2 400.55 197.3 400.55 197.4 400.55 197.5 400.55 197.6 400.55 197.7 400.55 197.85 400.55 197.95 400.55 198.05 400.5 198.15 400.45 198.25 400.4 198.4 400.4 198.5 400.3 198.5 400.25 198.5 400.2 198.4 400.15 198.25 400.15 198.15 400.15 198.05 400.15 197.95 400.15 197.85 400.15 197.7 400.15 197.6 400.15 197.5 400.1 197.4 400.1 197.3 400.1 197.2 400.1 197.05 400.1 196.95 400.1 196.85 400.1 196.75 400.1 196.65 400.1 196.55 400.1 196.4 400.1 196.3 400.1 196.2 400.1 196.1 400.1 196 400.1 195.9 400.1 195.75 400.1 195.65 400.1 195.55 400.1 195.45 400.1 195.35 400.1 195.25 400.1 195.1 400.1 195 400.1 194.9 400.1 194.8 400.1 194.7 400.1 194.55 400.1 194.45 400.1 194.35 400.1 194.25 400.1 194.15 400.1 194.05 400.1 193.9 400.1 193.8 400.1 193.7 400.1 193.6 400.1 193.5 400.1 193.4 400.1 193.25 400.1 193.15 400.1 193.05 400.1 192.95 400.1 192.85 400.1 192.75 400.1 192.6 400.15 192.5 400.15 192.4 400.15 192.3 400.15 192.2 400.15 192.1 400.15 191.95 400.15 191.85 400.15 191.75 400.15 191.65 400.15 191.55 400.15 191.45 400.15 191.4 400.15 191.35 400.15 191.3 400.25 191.3 400.3 191.3 Z"/>

<path fill="#ECDCCF" stroke="none" d="
M 384.6 185.15
Q 384.2 185.05 383.9 185.45 383.8 185.65 383.8 186.2
L 383.8 186.95
Q 383.8 187.3 383.9 187.4
L 384.2 187.6
Q 385.3 187.85 386.05 187.25 386.4 187.1 386.45 186.75 386.5 186.65 386.5 186 386.5 185.5 386.45 185.4 386.3 185.2 386.05 185.1 385.1 185.1 384.6 185.05
L 384.6 185.15
M 380.05 190.35
L 380.05 190.65
Q 380.7580078125 190.65 381.5 190.65
L 381.5 190.6 381.55 190.6
Q 381.55 190.553125 381.55 190.5 381.65 190.5 381.75 190.45 381.85 190.45 381.9 190.45 381.975 190.525 382 190.6 383.5390625 190.6 385.05 190.6 385.05 190.5587890625 385.05 190.5
L 385.1 190.45
Q 385.2 190.45 385.25 190.45 385.3 190.45 385.4 190.45 385.4375 190.525 385.5 190.6 392.25078125 190.6 399 190.6 400.8 190.65 402.55 190.65 402.699609375 190.6630859375 402.85 190.65
L 402.85 190.35 401.9 189.85
Q 401.85 190 401.75 190.1 401.75 190.15 401.7 190.25 397.85 190.25 394 190.25 388.65 190.2 383.3 190.15 382.3 190.1 381.25 190.1 381.01328125 190.0052734375 380.75 189.95
L 380.05 190.35 Z"/>
</g>

<g id="Layer0_0_MEMBER_3_FILL">
<path fill="#3B3D35" stroke="none" d="
M 407.35 307.55
Q 407.15 308.15 407.15 308.9 407.15 309.7 407.35 310.35 407.6 310.95 408 311.4 408.4 311.85 408.95 312.05 409.5 312.3 410.1 312.3
L 410.8 312.25
Q 411.15 312.2 411.5 312.05 411.8 311.95 412.1 311.75 412.45 311.5 412.7 311.2
L 412.25 310.65
Q 412.15 310.5 411.95 310.5 411.8 310.5 411.7 310.6
L 411.4 310.8 411 311
Q 410.75 311.1 410.4 311.1 410 311.1 409.7 310.95 409.4 310.8 409.2 310.5 409 310.25 408.85 309.85 408.75 309.4 408.75 308.9 408.75 308.4 408.85 308 408.95 307.6 409.15 307.3 409.4 307 409.7 306.85 410 306.7 410.45 306.7 410.75 306.7 411 306.8
L 411.85 307.2 412.05 307.15 412.2 307 412.65 306.4
Q 412.2 306 411.65 305.75 411.05 305.5 410.35 305.5 409.55 305.5 408.95 305.75 408.35 306 407.95 306.45 407.55 306.9 407.35 307.55
M 416.55 305.5
Q 415.8 305.5 415.2 305.75 414.6 306 414.15 306.4 413.75 306.85 413.5 307.5 413.3 308.1 413.3 308.9 413.3 309.7 413.5 310.3 413.75 310.95 414.15 311.4 414.6 311.8 415.2 312.05 415.8 312.3 416.55 312.3 417.3 312.3 417.9 312.05 418.5 311.8 418.9 311.4 419.35 310.95 419.55 310.3 419.8 309.7 419.8 308.9 419.8 308.1 419.55 307.5 419.35 306.85 418.9 306.4 418.5 306 417.9 305.75 417.3 305.5 416.55 305.5
M 415.3 307.3
Q 415.7 306.7 416.55 306.7 417.4 306.7 417.75 307.3 418.15 307.85 418.15 308.9 418.15 309.95 417.75 310.5 417.4 311.1 416.55 311.1 415.7 311.1 415.3 310.5 414.9 309.95 414.9 308.9 414.9 307.85 415.3 307.3
M 417.25 302.8
Q 416.95 302.8 416.85 302.9 416.7 303 416.6 303.15
L 415.7 304.7 416.65 304.7 416.95 304.65 417.2 304.5 418.8 302.8 417.25 302.8
M 422.6 302.65
L 421 302.65 421 312.2 422.6 312.2 422.6 302.65
M 425.8 312.2
L 425.8 305.6 424.2 305.6 424.2 312.2 425.8 312.2
M 430.25 305.5
Q 429.45 305.5 428.85 305.75 428.25 306 427.85 306.45 427.45 306.9 427.25 307.55 427.05 308.15 427.05 308.9 427.05 309.7 427.25 310.35 427.5 310.95 427.9 311.4 428.3 311.85 428.85 312.05 429.4 312.3 430 312.3
L 430.7 312.25
Q 431.05 312.2 431.4 312.05 431.7 311.95 432 311.75 432.35 311.5 432.6 311.2
L 432.15 310.65
Q 432.05 310.5 431.85 310.5 431.7 310.5 431.6 310.6
L 431.3 310.8 430.9 311
Q 430.65 311.1 430.3 311.1 429.9 311.1 429.6 310.95 429.3 310.8 429.1 310.5 428.9 310.25 428.75 309.85 428.65 309.4 428.65 308.9 428.65 308.4 428.75 308 428.85 307.6 429.05 307.3 429.3 307 429.6 306.85 429.9 306.7 430.35 306.7 430.65 306.7 430.9 306.8
L 431.75 307.2 431.95 307.15 432.1 307 432.55 306.4
Q 432.1 306 431.55 305.75 430.95 305.5 430.25 305.5
M 425.7 302.95
L 425.35 302.75
Q 425.2 302.65 424.95 302.65 424.75 302.65 424.6 302.75
L 424.25 302.95 424.05 303.3
Q 423.95 303.45 423.95 303.7 423.95 303.9 424.05 304.05
L 424.25 304.4 424.6 304.6
Q 424.75 304.7 424.95 304.7 425.2 304.7 425.35 304.6
L 425.7 304.4 425.9 304.05
Q 426 303.9 426 303.7 426 303.45 425.9 303.3
L 425.7 302.95
M 439.7 308.9
Q 439.7 308.1 439.45 307.5 439.25 306.85 438.8 306.4 438.4 306 437.8 305.75 437.2 305.5 436.45 305.5 435.7 305.5 435.1 305.75 434.5 306 434.05 306.4 433.65 306.85 433.4 307.5 433.2 308.1 433.2 308.9 433.2 309.7 433.4 310.3 433.65 310.95 434.05 311.4 434.5 311.8 435.1 312.05 435.7 312.3 436.45 312.3 437.2 312.3 437.8 312.05 438.4 311.8 438.8 311.4 439.25 310.95 439.45 310.3 439.7 309.7 439.7 308.9
M 436.45 306.7
Q 437.3 306.7 437.65 307.3 438.05 307.85 438.05 308.9 438.05 309.95 437.65 310.5 437.3 311.1 436.45 311.1 435.6 311.1 435.2 310.5 434.8 309.95 434.8 308.9 434.8 307.85 435.2 307.3 435.6 306.7 436.45 306.7
M 355.15 304.3
L 355.15 302.9 349.3 302.9 349.3 312.2 355.15 312.2 355.15 310.8 351 310.8 351 308.2 354.25 308.2 354.25 306.85 351 306.85 351 304.3 355.15 304.3
M 355.8 305.6
L 357.95 308.8 355.7 312.2 357.1 312.2
Q 357.25 312.2 357.35 312.1
L 357.55 311.9 358.8 310 358.85 309.8 358.95 309.6 360.35 311.9 360.5 312.1
Q 360.6 312.2 360.8 312.2
L 362.3 312.2 360.05 308.75 362.25 305.6 360.75 305.6
Q 360.55 305.6 360.4 305.85
L 359.3 307.6 359.1 308 357.7 305.8 357.55 305.65 357.3 305.6 355.8 305.6
M 365.15 305.65
L 365.15 303.6 364.3 303.6
Q 364.2 303.6 364.1 303.65 364 303.7 363.95 303.85
L 363.65 305.65 362.55 305.85 362.55 306.45
Q 362.55 306.6 362.65 306.7 362.75 306.8 362.9 306.8
L 363.55 306.8 363.55 310.5
Q 363.55 311.35 364 311.8 364.45 312.3 365.35 312.3 365.8 312.3 366.25 312.15 366.7 312 367.05 311.7
L 366.6 310.95 366.5 310.85 366.35 310.8 365.95 311 365.7 311.05
Q 365.45 311.05 365.3 310.85 365.15 310.65 365.15 310.35
L 365.15 306.8 366.9 306.8 366.9 305.65 365.15 305.65
M 369.4 306.75
L 369.3 306
Q 369.25 305.8 369.15 305.7 369.05 305.6 368.8 305.6
L 367.9 305.6 367.9 312.2 369.45 312.2 369.45 308.15 369.7 307.65 370 307.3
Q 370.15 307.15 370.35 307.1 370.55 307 370.85 307
L 371.5 307.1 371.65 307.05 371.75 306.85 371.85 305.7
Q 371.6 305.5 371.1 305.5 370.55 305.5 370.1 305.8 369.7 306.15 369.4 306.75
M 376.3 305.65
Q 375.85 305.5 375.25 305.5 373.65 305.5 372.55 306.5
L 372.8 307.05 373 307.25
Q 373.1 307.3 373.3 307.3 373.5 307.3 373.65 307.25
L 374.45 306.85
Q 374.7 306.75 375.05 306.75 375.6 306.75 375.9 307.05 376.15 307.35 376.15 308.05
L 376.15 308.4
Q 375.4 308.45 374.85 308.55 374.25 308.65 373.8 308.75 373.35 308.9 373.05 309.1 372.75 309.3 372.55 309.55 372.4 309.75 372.3 310 372.2 310.25 372.2 310.5 372.2 310.95 372.35 311.3 372.5 311.65 372.75 311.85 373 312.1 373.35 312.2 373.7 312.3 374.15 312.3
L 374.8 312.25 375.85 311.8 376.3 311.4 376.45 311.85
Q 376.55 312.05 376.65 312.15 376.75 312.2 377 312.2
L 377.7 312.2 377.7 308.05
Q 377.7 307.45 377.55 307 377.4 306.55 377.05 306.2 376.75 305.85 376.3 305.65
M 373.85 310.05
Q 374 309.85 374.25 309.75 374.55 309.6 375 309.5 375.5 309.4 376.15 309.4
L 376.15 310.5
Q 375.85 310.85 375.45 311.05 375.1 311.2 374.6 311.2 374.25 311.2 374 311.05 373.75 310.85 373.75 310.45 373.75 310.2 373.85 310.05
M 379.65 305.65
L 378.55 305.85 378.55 306.45
Q 378.55 306.6 378.65 306.7 378.75 306.8 378.9 306.8
L 379.55 306.8 379.55 310.5
Q 379.55 311.35 380 311.8 380.45 312.3 381.35 312.3 381.8 312.3 382.25 312.15 382.7 312 383.05 311.7
L 382.6 310.95 382.5 310.85 382.35 310.8 381.95 311 381.7 311.05
Q 381.45 311.05 381.3 310.85 381.15 310.65 381.15 310.35
L 381.15 306.8 382.9 306.8 382.9 305.65 381.15 305.65 381.15 303.6 380.3 303.6
Q 380.2 303.6 380.1 303.65 380 303.7 379.95 303.85
L 379.65 305.65
M 404.35 305.6
L 404.35 312.2 405.95 312.2 405.95 305.6 404.35 305.6
M 386.85 305.5
Q 386.1 305.5 385.5 305.75 384.9 306 384.45 306.4 384.05 306.85 383.8 307.5 383.6 308.1 383.6 308.9 383.6 309.7 383.8 310.3 384.05 310.95 384.45 311.4 384.9 311.8 385.5 312.05 386.1 312.3 386.85 312.3 387.6 312.3 388.2 312.05 388.8 311.8 389.2 311.4 389.65 310.95 389.85 310.3 390.1 309.7 390.1 308.9 390.1 308.1 389.85 307.5 389.65 306.85 389.2 306.4 388.8 306 388.2 305.75 387.6 305.5 386.85 305.5
M 385.2 308.9
Q 385.2 307.85 385.6 307.3 386 306.7 386.85 306.7 387.7 306.7 388.05 307.3 388.45 307.85 388.45 308.9 388.45 309.95 388.05 310.5 387.7 311.1 386.85 311.1 386 311.1 385.6 310.5 385.2 309.95 385.2 308.9
M 398.25 305.85
Q 397.95 305.65 397.6 305.6 397.2 305.5 396.8 305.5 396.25 305.5 395.75 305.65 395.25 305.8 394.9 306.05 394.55 306.35 394.35 306.75 394.2 307.15 394.2 307.6 394.2 308.25 394.45 308.7 394.75 309.15 395.25 309.4
L 394.85 309.65 394.6 309.95 394.45 310.25 394.4 310.55
Q 394.4 310.9 394.55 311.15 394.7 311.35 394.95 311.5 394.45 311.7 394.2 312 393.9 312.3 393.9 312.8 393.9 313.1 394.1 313.45 394.3 313.75 394.65 314 395 314.25 395.55 314.4 396.1 314.5 396.85 314.5 397.6 314.5 398.2 314.3 398.8 314.15 399.2 313.8 399.6 313.5 399.85 313.05 400.05 312.65 400.05 312.25 400.05 311.75 399.85 311.45 399.7 311.15 399.4 311 399.1 310.8 398.7 310.75
L 397.9 310.6 396.45 310.55
Q 396.1 310.5 395.95 310.4 395.75 310.3 395.75 310.1 395.75 309.85 396.05 309.7
L 396.45 309.75 396.8 309.75
Q 397.35 309.75 397.8 309.6 398.3 309.45 398.65 309.2 399 308.9 399.2 308.5 399.4 308.1 399.4 307.6 399.4 307.2 399.25 306.9
L 399.85 306.75
Q 400.15 306.7 400.15 306.4
L 400.15 305.85 398.25 305.85
M 396.3 308.65
Q 396.05 308.6 395.9 308.45 395.75 308.3 395.7 308.1 395.65 307.9 395.65 307.65 395.65 307.15 395.9 306.9 396.2 306.6 396.8 306.6 397.4 306.6 397.65 306.9 397.95 307.15 397.95 307.65 397.95 307.9 397.9 308.1 397.8 308.3 397.65 308.45 397.55 308.6 397.3 308.65 397.1 308.75 396.8 308.75 396.5 308.75 396.3 308.65
M 397.7 311.9
L 398.15 312
Q 398.35 312.05 398.45 312.2 398.6 312.3 398.6 312.5 398.6 312.7 398.5 312.85 398.4 313 398.2 313.15 398 313.25 397.65 313.3 397.35 313.4 396.9 313.4
L 396.15 313.35
Q 395.85 313.25 395.65 313.15 395.45 313.05 395.4 312.9 395.3 312.75 395.3 312.55 395.3 312.3 395.45 312.1 395.65 311.9 395.9 311.75
L 397.7 311.9
M 404.75 302.75
L 404.4 302.95 404.2 303.3
Q 404.1 303.45 404.1 303.7 404.1 303.9 404.2 304.05
L 404.4 304.4 404.75 304.6
Q 404.9 304.7 405.1 304.7 405.35 304.7 405.5 304.6
L 405.85 304.4 406.05 304.05
Q 406.15 303.9 406.15 303.7 406.15 303.45 406.05 303.3
L 405.85 302.95 405.5 302.75
Q 405.35 302.65 405.1 302.65 404.9 302.65 404.75 302.75
M 402.75 302.65
L 401.15 302.65 401.15 312.2 402.75 312.2 402.75 302.65 Z"/>
</g>
</defs>

<g transform="matrix( 1.07159423828125, 0, 0, 0.802642822265625, -22.4,-15.7) ">
<use xlink:href="#Layer0_0_MEMBER_0_FILL"/>
</g>

<g transform="matrix( 1.07159423828125, 0, 0, 1.07159423828125, -22.4,-7.5) ">
<use xlink:href="#Layer0_0_MEMBER_1_FILL"/>
</g>

<g transform="matrix( 1, 0, 0, 1, -319.7,-175.05) ">
<use xlink:href="#Layer0_0_MEMBER_2_FILL"/>
</g>

<g transform="matrix( 1, 0, 0, 1, -319.7,-175.05) ">
<use xlink:href="#Layer0_0_MEMBER_3_FILL"/>
</g>
</svg>
