
<svg xmlns="http://www.w3.org/2000/svg" version="1.1" xmlns:xlink="http://www.w3.org/1999/xlink" preserveAspectRatio="none" x="0px" y="0px" width="149px" height="152px" viewBox="0 0 149 152">
<defs>
<g id="Layer0_0_FILL">
<path fill="#B8BE79" stroke="none" d="
M 21.5 19.95
L 21.5 157.8 159.35 157.8 159.35 19.95 21.5 19.95 Z"/>
</g>

<g id="Layer0_1_FILL">
<path fill="#E1C99B" stroke="none" d="
M 21.5 111.85
L 21.5 148.6 159.35 148.6 159.35 111.85 21.5 111.85 Z"/>
</g>

<g id="Layer0_2_MEMBER_0_FILL">
<path fill="#3B3D35" stroke="none" d="
M 486.1 66
Q 486.1 66.05 486.1 66.1 486.4 65.05 486.1 66
M 495.25 65.3
Q 493.35 65.2 491.25 65.55 489.85 65.8 488.95 66.8 488.4 67.45 487.85 68.05 486.9708984375 68.883984375 486.55 69.85
L 486.55 75.7 486.1 76.1 486.2 80.7
Q 486.2 81.8171875 486.2 82.95 486.1845703125 84.7640625 486.15 86.55 486.109375 86.6076171875 486.05 86.65 486.1119140625 86.693359375 486.15 86.7 486.18203125 90.744140625 486.25 94.75 486.3 96.45 486.25 98.2 486 103.5 490.4 106.15 492.4 107.4 494.8 107.1 497.85 107.25 499.6 105
L 501.4 101.35 501.9 101.05
Q 501.9 98.85 501.9 96.75 501.85 90.85 501.85 84.95 501.8 78.8 501.6 72.65 501.55 70.05 499.7 67.9 497.95 65.9 495.25 65.3
M 487.2 71.05
L 487.95 69.85
Q 487.969140625 69.8 488 69.75 489.4 67.65 491.8 66.9 494.9 66.05 497.35 67.7 499.5 69.25 500.05 71.7 500.85 75.1 500.75 78.65 500.680859375 82.7330078125 500.65 86.8 500.0208984375 86.8927734375 499.1 87.05 493.1439453125 88.0923828125 487.3 86.6 487.398828125 83.6607421875 487.45 80.7
L 487.2 71.05
M 489.8 88
Q 491.15 88.2 493.95 88.2
L 498.7 88.1
Q 499.9009765625 88.0546875 500.65 87.75 500.65 89.1091796875 500.65 90.45 500.65 94.75 500.55 99.05 500.55 100.4 500.55 101.85 499.85 102.65 499.25 103.5 498.5 104.6 497.45 105.1 495.45 106.2 493.25 105.8 489.4 105 487.9 101.15 487.05 96.85 487.2 92.45 487.26484375 89.8962890625 487.3 87.35 488.4134765625 87.8150390625 489.8 88
M 499.85 100.05
L 496.3 103.85 493.85 104.6
Q 494.15 104.65 494.5 104.65 498.85 104.65 499.85 100.05
M 491.9 85.95
Q 491.7 86.35 492.15 86.6 492.35 86.7 492.85 86.7
L 496.15 86.8
Q 496.95 86.8 497.35 86.65
L 497.4 86.45
Q 497 86.2 496.1 86.2
L 493.1 86.15 492.7 86.1
Q 492.3 85.8 492.05 85.85 492.15 85.95 491.9 85.95 Z"/>

<path fill="#F3F6F8" stroke="none" d="
M 493.95 88.2
Q 491.15 88.2 489.8 88 488.4134765625 87.8150390625 487.3 87.35 487.26484375 89.8962890625 487.2 92.45 487.05 96.85 487.9 101.15 489.4 105 493.25 105.8 495.45 106.2 497.45 105.1 498.5 104.6 499.25 103.5 499.85 102.65 500.55 101.85 500.55 100.4 500.55 99.05 500.65 94.75 500.65 90.45 500.65 89.1091796875 500.65 87.75 499.9009765625 88.0546875 498.7 88.1
L 493.95 88.2
M 495.6 98.6
Q 496.4 98.25 497.1 98.65 497.9 99.1 497.9 99.9 497.9 100.5 497.4 101.1 496.45 102.35 495 102.75 493.95 103.05 493.4 102.6
L 492.8 101.85
Q 492.4 101.35 492.3 101.05 492.25 100.7 492.55 100.4 492.8 100.1 493.2 100 493.7 99.85 494.7 99.75 494.65 99 495.6 98.6
M 496.3 103.85
L 499.85 100.05
Q 498.85 104.65 494.5 104.65 494.15 104.65 493.85 104.6
L 496.3 103.85 Z"/>

<path fill="#FFFFFF" stroke="none" d="
M 497.1 98.65
Q 496.4 98.25 495.6 98.6 494.65 99 494.7 99.75 493.7 99.85 493.2 100 492.8 100.1 492.55 100.4 492.25 100.7 492.3 101.05 492.4 101.35 492.8 101.85
L 493.4 102.6
Q 493.95 103.05 495 102.75 496.45 102.35 497.4 101.1 497.9 100.5 497.9 99.9 497.9 99.1 497.1 98.65 Z"/>

<path fill="#387B5C" stroke="none" d="
M 487.95 69.85
L 487.2 71.05 487.45 80.7
Q 487.398828125 83.6607421875 487.3 86.6 493.1439453125 88.0923828125 499.1 87.05 500.0208984375 86.8927734375 500.65 86.8 500.680859375 82.7330078125 500.75 78.65 500.85 75.1 500.05 71.7 499.5 69.25 497.35 67.7 494.9 66.05 491.8 66.9 489.4 67.65 488 69.75 487.969140625 69.8 487.95 69.85
M 489.45 70
Q 489.6 69.7 489.95 69.4 490.3 69 491 68.5 491.45 68.15 491.85 68.15 492.2 68.2 492.85 68.6 492.95 68.65 493.4 68.65 493.8 68.65 493.95 68.8 494.2 68.95 494.2 69.25 494.3 69.7 494.2 69.85 494.05 70.15 493.4 70.35 491.8 70.9 490.65 72.05 490.15 72.55 489.8 72.55 489.25 72.45 489.15 71.75
L 489.3 70.7
Q 489.45 70.05 489.45 70
M 497.4 68.4
Q 497.55 68.6 497.55 69.05
L 497.55 69.4 497.35 69.7 496.9 69.75 496.75 69.75 496.6 69.65
Q 496.35 69.4 496.35 69.05 496.35 68.7 496.5 68.45 496.7 68.15 497 68.25
L 497 68.2 497.4 68.4
M 492.15 86.6
Q 491.7 86.35 491.9 85.95 492.15 85.95 492.05 85.85 492.3 85.8 492.7 86.1
L 493.1 86.15 496.1 86.2
Q 497 86.2 497.4 86.45
L 497.35 86.65
Q 496.95 86.8 496.15 86.8
L 492.85 86.7
Q 492.35 86.7 492.15 86.6 Z"/>

<path fill="#94A26E" stroke="none" d="
M 497.55 69.05
Q 497.55 68.6 497.4 68.4
L 497 68.2 497 68.25
Q 496.7 68.15 496.5 68.45 496.35 68.7 496.35 69.05 496.35 69.4 496.6 69.65
L 496.75 69.75 496.9 69.75 497.35 69.7 497.55 69.4 497.55 69.05
M 489.95 69.4
Q 489.6 69.7 489.45 70 489.45 70.05 489.3 70.7
L 489.15 71.75
Q 489.25 72.45 489.8 72.55 490.15 72.55 490.65 72.05 491.8 70.9 493.4 70.35 494.05 70.15 494.2 69.85 494.3 69.7 494.2 69.25 494.2 68.95 493.95 68.8 493.8 68.65 493.4 68.65 492.95 68.65 492.85 68.6 492.2 68.2 491.85 68.15 491.45 68.15 491 68.5 490.3 69 489.95 69.4 Z"/>
</g>

<g id="Layer0_2_MEMBER_1_FILL">
<path fill="#3B3D35" stroke="none" d="
M 486.1 66
Q 486.1 66.05 486.1 66.1 486.4 65.05 486.1 66
M 495.25 65.3
Q 493.35 65.2 491.25 65.55 489.85 65.8 488.95 66.8 488.4 67.45 487.85 68.05 486.95 68.9 486.55 69.85
L 486.55 75.7 486.1 76.1 486.2 80.7
Q 486.2 81.8 486.2 82.95 486.2 84.75 486.2 86.6 486.1 86.6 486.05 86.65 486.1 86.7 486.2 86.75 486.2 90.75 486.25 94.75 486.3 96.45 486.25 98.2 486 103.5 490.4 106.15 492.4 107.4 494.8 107.1 497.85 107.25 499.6 105
L 501.4 101.35 501.9 101.05
Q 501.9 98.85 501.9 96.75 501.85 90.85 501.85 84.95 501.8 78.8 501.6 72.65 501.55 70.05 499.7 67.9 497.95 65.9 495.25 65.3
M 487.2 71.05
L 487.95 69.85
Q 487.95 69.8 488 69.75 489.4 67.65 491.8 66.9 494.9 66.05 497.35 67.7 499.5 69.25 500.05 71.7 500.85 75.1 500.75 78.65 500.7 82.75 500.65 86.85 500 86.9 499.1 87.05 493.15 88.1 487.35 86.65 487.4 83.65 487.45 80.7
L 487.2 71.05
M 489.8 88
Q 491.15 88.2 493.95 88.2
L 498.7 88.1
Q 499.9 88.05 500.65 87.8 500.65 89.1 500.65 90.45 500.65 94.75 500.55 99.05 500.55 100.4 500.55 101.85 499.85 102.65 499.25 103.5 498.5 104.6 497.45 105.1 495.45 106.2 493.25 105.8 489.4 105 487.9 101.15 487.05 96.85 487.2 92.45 487.25 89.9 487.3 87.35 488.4 87.8 489.8 88
M 499.85 100.05
L 496.3 103.85 493.85 104.6
Q 494.15 104.65 494.5 104.65 498.85 104.65 499.85 100.05
M 491.9 85.95
Q 491.7 86.35 492.15 86.6 492.35 86.7 492.85 86.7
L 496.15 86.8
Q 496.95 86.8 497.35 86.65
L 497.4 86.45
Q 497 86.2 496.1 86.2
L 493.1 86.15 492.7 86.1
Q 492.3 85.8 492.05 85.85 492.15 85.95 491.9 85.95 Z"/>

<path fill="#F3F6F8" stroke="none" d="
M 493.95 88.2
Q 491.15 88.2 489.8 88 488.4 87.8 487.3 87.35 487.25 89.9 487.2 92.45 487.05 96.85 487.9 101.15 489.4 105 493.25 105.8 495.45 106.2 497.45 105.1 498.5 104.6 499.25 103.5 499.85 102.65 500.55 101.85 500.55 100.4 500.55 99.05 500.65 94.75 500.65 90.45 500.65 89.1 500.65 87.8 499.9 88.05 498.7 88.1
L 493.95 88.2
M 495.6 98.6
Q 496.4 98.25 497.1 98.65 497.9 99.1 497.9 99.9 497.9 100.5 497.4 101.1 496.45 102.35 495 102.75 493.95 103.05 493.4 102.6
L 492.8 101.85
Q 492.4 101.35 492.3 101.05 492.25 100.7 492.55 100.4 492.8 100.1 493.2 100 493.7 99.85 494.7 99.75 494.65 99 495.6 98.6
M 496.3 103.85
L 499.85 100.05
Q 498.85 104.65 494.5 104.65 494.15 104.65 493.85 104.6
L 496.3 103.85 Z"/>

<path fill="#FFFFFF" stroke="none" d="
M 497.1 98.65
Q 496.4 98.25 495.6 98.6 494.65 99 494.7 99.75 493.7 99.85 493.2 100 492.8 100.1 492.55 100.4 492.25 100.7 492.3 101.05 492.4 101.35 492.8 101.85
L 493.4 102.6
Q 493.95 103.05 495 102.75 496.45 102.35 497.4 101.1 497.9 100.5 497.9 99.9 497.9 99.1 497.1 98.65 Z"/>

<path fill="#387B5C" stroke="none" d="
M 487.95 69.85
L 487.2 71.05 487.45 80.7
Q 487.4 83.65 487.35 86.65 493.15 88.1 499.1 87.05 500 86.9 500.65 86.85 500.7 82.75 500.75 78.65 500.85 75.1 500.05 71.7 499.5 69.25 497.35 67.7 494.9 66.05 491.8 66.9 489.4 67.65 488 69.75 487.95 69.8 487.95 69.85
M 489.15 71.75
L 489.3 70.7
Q 489.45 70.05 489.45 70 489.6 69.7 489.95 69.4 490.3 69 491 68.5 491.45 68.15 491.85 68.15 492.2 68.2 492.85 68.6 492.95 68.65 493.4 68.65 493.8 68.65 493.95 68.8 494.2 68.95 494.2 69.25 494.3 69.7 494.2 69.85 494.05 70.15 493.4 70.35 491.8 70.9 490.65 72.05 490.15 72.55 489.8 72.55 489.25 72.45 489.15 71.75
M 497.4 68.4
Q 497.55 68.6 497.55 69.05
L 497.55 69.4 497.35 69.7 496.9 69.75 496.75 69.75 496.6 69.65
Q 496.35 69.4 496.35 69.05 496.35 68.7 496.5 68.45 496.7 68.15 497 68.25
L 497 68.2 497.4 68.4
M 492.15 86.6
Q 491.7 86.35 491.9 85.95 492.15 85.95 492.05 85.85 492.3 85.8 492.7 86.1
L 493.1 86.15 496.1 86.2
Q 497 86.2 497.4 86.45
L 497.35 86.65
Q 496.95 86.8 496.15 86.8
L 492.85 86.7
Q 492.35 86.7 492.15 86.6 Z"/>

<path fill="#94A26E" stroke="none" d="
M 497.55 69.05
Q 497.55 68.6 497.4 68.4
L 497 68.2 497 68.25
Q 496.7 68.15 496.5 68.45 496.35 68.7 496.35 69.05 496.35 69.4 496.6 69.65
L 496.75 69.75 496.9 69.75 497.35 69.7 497.55 69.4 497.55 69.05
M 489.3 70.7
L 489.15 71.75
Q 489.25 72.45 489.8 72.55 490.15 72.55 490.65 72.05 491.8 70.9 493.4 70.35 494.05 70.15 494.2 69.85 494.3 69.7 494.2 69.25 494.2 68.95 493.95 68.8 493.8 68.65 493.4 68.65 492.95 68.65 492.85 68.6 492.2 68.2 491.85 68.15 491.45 68.15 491 68.5 490.3 69 489.95 69.4 489.6 69.7 489.45 70 489.45 70.05 489.3 70.7 Z"/>
</g>

<g id="Layer0_2_MEMBER_2_FILL">
<path fill="#3B3D35" stroke="none" d="
M 486.1 66
Q 486.1 66.05 486.1 66.1 486.4 65.05 486.1 66
M 495.25 65.3
Q 493.35 65.2 491.25 65.55 489.85 65.8 488.95 66.8 488.4 67.45 487.85 68.05 486.95 68.9 486.55 69.85
L 486.55 75.7 486.1 76.1 486.2 80.7
Q 486.2 81.8 486.2 82.95 486.2 84.75 486.2 86.6 486.1 86.6 486.05 86.65 486.1 86.7 486.2 86.75 486.2 90.75 486.25 94.75 486.3 96.45 486.25 98.2 486 103.5 490.4 106.15 492.4 107.4 494.8 107.1 497.85 107.25 499.6 105
L 501.4 101.35 501.9 101.05
Q 501.9 98.85 501.9 96.75 501.85 90.85 501.85 84.95 501.8 78.8 501.6 72.65 501.55 70.05 499.7 67.9 497.95 65.9 495.25 65.3
M 487.2 71.05
L 487.95 69.85
Q 487.95 69.8 488 69.75 489.4 67.65 491.8 66.9 494.9 66.05 497.35 67.7 499.5 69.25 500.05 71.7 500.85 75.1 500.75 78.65 500.7 82.75 500.65 86.85 500 86.9 499.1 87.05 493.15 88.1 487.35 86.65 487.4 83.65 487.45 80.7
L 487.2 71.05
M 489.8 88
Q 491.15 88.2 493.95 88.2
L 498.7 88.1
Q 499.9 88.05 500.65 87.8 500.65 89.1 500.65 90.45 500.65 94.75 500.55 99.05 500.55 100.4 500.55 101.85 499.85 102.65 499.25 103.5 498.5 104.6 497.45 105.1 495.45 106.2 493.25 105.8 489.4 105 487.9 101.15 487.05 96.85 487.2 92.45 487.25 89.9 487.3 87.35 488.4 87.8 489.8 88
M 499.85 100.05
L 496.3 103.85 493.85 104.6
Q 494.15 104.65 494.5 104.65 498.85 104.65 499.85 100.05
M 491.9 85.95
Q 491.7 86.35 492.15 86.6 492.35 86.7 492.85 86.7
L 496.15 86.8
Q 496.95 86.8 497.35 86.65
L 497.4 86.45
Q 497 86.2 496.1 86.2
L 493.1 86.15 492.7 86.1
Q 492.3 85.8 492.05 85.85 492.15 85.95 491.9 85.95 Z"/>

<path fill="#F3F6F8" stroke="none" d="
M 493.95 88.2
Q 491.15 88.2 489.8 88 488.4 87.8 487.3 87.35 487.25 89.9 487.2 92.45 487.05 96.85 487.9 101.15 489.4 105 493.25 105.8 495.45 106.2 497.45 105.1 498.5 104.6 499.25 103.5 499.85 102.65 500.55 101.85 500.55 100.4 500.55 99.05 500.65 94.75 500.65 90.45 500.65 89.1 500.65 87.8 499.9 88.05 498.7 88.1
L 493.95 88.2
M 495.6 98.6
Q 496.4 98.25 497.1 98.65 497.9 99.1 497.9 99.9 497.9 100.5 497.4 101.1 496.45 102.35 495 102.75 493.95 103.05 493.4 102.6
L 492.8 101.85
Q 492.4 101.35 492.3 101.05 492.25 100.7 492.55 100.4 492.8 100.1 493.2 100 493.7 99.85 494.7 99.75 494.65 99 495.6 98.6
M 496.3 103.85
L 499.85 100.05
Q 498.85 104.65 494.5 104.65 494.15 104.65 493.85 104.6
L 496.3 103.85 Z"/>

<path fill="#FFFFFF" stroke="none" d="
M 497.1 98.65
Q 496.4 98.25 495.6 98.6 494.65 99 494.7 99.75 493.7 99.85 493.2 100 492.8 100.1 492.55 100.4 492.25 100.7 492.3 101.05 492.4 101.35 492.8 101.85
L 493.4 102.6
Q 493.95 103.05 495 102.75 496.45 102.35 497.4 101.1 497.9 100.5 497.9 99.9 497.9 99.1 497.1 98.65 Z"/>

<path fill="#387B5C" stroke="none" d="
M 487.95 69.85
L 487.2 71.05 487.45 80.7
Q 487.4 83.65 487.35 86.65 493.15 88.1 499.1 87.05 500 86.9 500.65 86.85 500.7 82.75 500.75 78.65 500.85 75.1 500.05 71.7 499.5 69.25 497.35 67.7 494.9 66.05 491.8 66.9 489.4 67.65 488 69.75 487.95 69.8 487.95 69.85
M 489.15 71.75
L 489.3 70.7
Q 489.45 70.05 489.45 70 489.6 69.7 489.95 69.4 490.3 69 491 68.5 491.45 68.15 491.85 68.15 492.2 68.2 492.85 68.6 492.95 68.65 493.4 68.65 493.8 68.65 493.95 68.8 494.2 68.95 494.2 69.25 494.3 69.7 494.2 69.85 494.05 70.15 493.4 70.35 491.8 70.9 490.65 72.05 490.15 72.55 489.8 72.55 489.25 72.45 489.15 71.75
M 497.4 68.4
Q 497.55 68.6 497.55 69.05
L 497.55 69.4 497.35 69.7 496.9 69.75 496.75 69.75 496.6 69.65
Q 496.35 69.4 496.35 69.05 496.35 68.7 496.5 68.45 496.7 68.15 497 68.25
L 497 68.2 497.4 68.4
M 492.15 86.6
Q 491.7 86.35 491.9 85.95 492.15 85.95 492.05 85.85 492.3 85.8 492.7 86.1
L 493.1 86.15 496.1 86.2
Q 497 86.2 497.4 86.45
L 497.35 86.65
Q 496.95 86.8 496.15 86.8
L 492.85 86.7
Q 492.35 86.7 492.15 86.6 Z"/>

<path fill="#94A26E" stroke="none" d="
M 497.55 69.05
Q 497.55 68.6 497.4 68.4
L 497 68.2 497 68.25
Q 496.7 68.15 496.5 68.45 496.35 68.7 496.35 69.05 496.35 69.4 496.6 69.65
L 496.75 69.75 496.9 69.75 497.35 69.7 497.55 69.4 497.55 69.05
M 489.3 70.7
L 489.15 71.75
Q 489.25 72.45 489.8 72.55 490.15 72.55 490.65 72.05 491.8 70.9 493.4 70.35 494.05 70.15 494.2 69.85 494.3 69.7 494.2 69.25 494.2 68.95 493.95 68.8 493.8 68.65 493.4 68.65 492.95 68.65 492.85 68.6 492.2 68.2 491.85 68.15 491.45 68.15 491 68.5 490.3 69 489.95 69.4 489.6 69.7 489.45 70 489.45 70.05 489.3 70.7 Z"/>
</g>

<g id="Layer0_2_MEMBER_3_FILL">
<path fill="#3B3D35" stroke="none" d="
M 486.1 66
Q 486.1 66.05 486.1 66.1 486.4 65.05 486.1 66
M 495.25 65.3
Q 493.35 65.2 491.25 65.55 489.85 65.8 488.95 66.8 488.4 67.45 487.85 68.05 486.95 68.9 486.55 69.85
L 486.55 75.7 486.1 76.1 486.2 80.7
Q 486.2 81.8 486.2 82.95 486.2 84.75 486.2 86.6 486.1 86.6 486.05 86.65 486.1 86.7 486.2 86.75 486.2 90.75 486.25 94.75 486.3 96.45 486.25 98.2 486 103.5 490.4 106.15 492.4 107.4 494.8 107.1 497.85 107.25 499.6 105
L 501.4 101.35 501.9 101.05
Q 501.9 98.85 501.9 96.75 501.85 90.85 501.85 84.95 501.8 78.8 501.6 72.65 501.55 70.05 499.7 67.9 497.95 65.9 495.25 65.3
M 487.2 71.05
L 487.95 69.85
Q 487.95 69.8 488 69.75 489.4 67.65 491.8 66.9 494.9 66.05 497.35 67.7 499.5 69.25 500.05 71.7 500.85 75.1 500.75 78.65 500.7 82.75 500.65 86.85 500 86.9 499.1 87.05 493.15 88.1 487.35 86.65 487.4 83.65 487.45 80.7
L 487.2 71.05
M 489.8 88
Q 491.15 88.2 493.95 88.2
L 498.7 88.1
Q 499.9 88.05 500.65 87.8 500.65 89.1 500.65 90.45 500.65 94.75 500.55 99.05 500.55 100.4 500.55 101.85 499.85 102.65 499.25 103.5 498.5 104.6 497.45 105.1 495.45 106.2 493.25 105.8 489.4 105 487.9 101.15 487.05 96.85 487.2 92.45 487.25 89.9 487.3 87.35 488.4 87.8 489.8 88
M 499.85 100.05
L 496.3 103.85 493.85 104.6
Q 494.15 104.65 494.5 104.65 498.85 104.65 499.85 100.05
M 491.9 85.95
Q 491.7 86.35 492.15 86.6 492.35 86.7 492.85 86.7
L 496.15 86.8
Q 496.95 86.8 497.35 86.65
L 497.4 86.45
Q 497 86.2 496.1 86.2
L 493.1 86.15 492.7 86.1
Q 492.3 85.8 492.05 85.85 492.15 85.95 491.9 85.95 Z"/>

<path fill="#F3F6F8" stroke="none" d="
M 493.95 88.2
Q 491.15 88.2 489.8 88 488.4 87.8 487.3 87.35 487.25 89.9 487.2 92.45 487.05 96.85 487.9 101.15 489.4 105 493.25 105.8 495.45 106.2 497.45 105.1 498.5 104.6 499.25 103.5 499.85 102.65 500.55 101.85 500.55 100.4 500.55 99.05 500.65 94.75 500.65 90.45 500.65 89.1 500.65 87.8 499.9 88.05 498.7 88.1
L 493.95 88.2
M 495.6 98.6
Q 496.4 98.25 497.1 98.65 497.9 99.1 497.9 99.9 497.9 100.5 497.4 101.1 496.45 102.35 495 102.75 493.95 103.05 493.4 102.6
L 492.8 101.85
Q 492.4 101.35 492.3 101.05 492.25 100.7 492.55 100.4 492.8 100.1 493.2 100 493.7 99.85 494.7 99.75 494.65 99 495.6 98.6
M 496.3 103.85
L 499.85 100.05
Q 498.85 104.65 494.5 104.65 494.15 104.65 493.85 104.6
L 496.3 103.85 Z"/>

<path fill="#FFFFFF" stroke="none" d="
M 497.1 98.65
Q 496.4 98.25 495.6 98.6 494.65 99 494.7 99.75 493.7 99.85 493.2 100 492.8 100.1 492.55 100.4 492.25 100.7 492.3 101.05 492.4 101.35 492.8 101.85
L 493.4 102.6
Q 493.95 103.05 495 102.75 496.45 102.35 497.4 101.1 497.9 100.5 497.9 99.9 497.9 99.1 497.1 98.65 Z"/>

<path fill="#387B5C" stroke="none" d="
M 487.95 69.85
L 487.2 71.05 487.45 80.7
Q 487.4 83.65 487.35 86.65 493.15 88.1 499.1 87.05 500 86.9 500.65 86.85 500.7 82.75 500.75 78.65 500.85 75.1 500.05 71.7 499.5 69.25 497.35 67.7 494.9 66.05 491.8 66.9 489.4 67.65 488 69.75 487.95 69.8 487.95 69.85
M 489.15 71.75
L 489.3 70.7
Q 489.45 70.05 489.45 70 489.6 69.7 489.95 69.4 490.3 69 491 68.5 491.45 68.15 491.85 68.15 492.2 68.2 492.85 68.6 492.95 68.65 493.4 68.65 493.8 68.65 493.95 68.8 494.2 68.95 494.2 69.25 494.3 69.7 494.2 69.85 494.05 70.15 493.4 70.35 491.8 70.9 490.65 72.05 490.15 72.55 489.8 72.55 489.25 72.45 489.15 71.75
M 497.4 68.4
Q 497.55 68.6 497.55 69.05
L 497.55 69.4 497.35 69.7 496.9 69.75 496.75 69.75 496.6 69.65
Q 496.35 69.4 496.35 69.05 496.35 68.7 496.5 68.45 496.7 68.15 497 68.25
L 497 68.2 497.4 68.4
M 492.15 86.6
Q 491.7 86.35 491.9 85.95 492.15 85.95 492.05 85.85 492.3 85.8 492.7 86.1
L 493.1 86.15 496.1 86.2
Q 497 86.2 497.4 86.45
L 497.35 86.65
Q 496.95 86.8 496.15 86.8
L 492.85 86.7
Q 492.35 86.7 492.15 86.6 Z"/>

<path fill="#94A26E" stroke="none" d="
M 497.55 69.05
Q 497.55 68.6 497.4 68.4
L 497 68.2 497 68.25
Q 496.7 68.15 496.5 68.45 496.35 68.7 496.35 69.05 496.35 69.4 496.6 69.65
L 496.75 69.75 496.9 69.75 497.35 69.7 497.55 69.4 497.55 69.05
M 489.3 70.7
L 489.15 71.75
Q 489.25 72.45 489.8 72.55 490.15 72.55 490.65 72.05 491.8 70.9 493.4 70.35 494.05 70.15 494.2 69.85 494.3 69.7 494.2 69.25 494.2 68.95 493.95 68.8 493.8 68.65 493.4 68.65 492.95 68.65 492.85 68.6 492.2 68.2 491.85 68.15 491.45 68.15 491 68.5 490.3 69 489.95 69.4 489.6 69.7 489.45 70 489.45 70.05 489.3 70.7 Z"/>
</g>

<g id="Layer0_2_MEMBER_4_FILL">
<path fill="#3B3D35" stroke="none" d="
M 486.1 66
Q 486.1 66.05 486.1 66.1 486.4 65.05 486.1 66
M 495.25 65.3
Q 493.35 65.2 491.25 65.55 489.85 65.8 488.95 66.8 488.4 67.45 487.85 68.05 486.95 68.9 486.55 69.85
L 486.55 75.7 486.1 76.1 486.2 80.7
Q 486.2 81.8 486.2 82.95 486.2 84.75 486.2 86.6 486.1 86.6 486.05 86.65 486.1 86.7 486.2 86.75 486.2 90.75 486.25 94.75 486.3 96.45 486.25 98.2 486 103.5 490.4 106.15 492.4 107.4 494.8 107.1 497.85 107.25 499.6 105
L 501.4 101.35 501.9 101.05
Q 501.9 98.85 501.9 96.75 501.85 90.85 501.85 84.95 501.8 78.8 501.6 72.65 501.55 70.05 499.7 67.9 497.95 65.9 495.25 65.3
M 487.2 71.05
L 487.95 69.85
Q 487.95 69.8 488 69.75 489.4 67.65 491.8 66.9 494.9 66.05 497.35 67.7 499.5 69.25 500.05 71.7 500.85 75.1 500.75 78.65 500.7 82.75 500.65 86.85 500 86.9 499.1 87.05 493.15 88.1 487.35 86.65 487.4 83.65 487.45 80.7
L 487.2 71.05
M 489.8 88
Q 491.15 88.2 493.95 88.2
L 498.7 88.1
Q 499.9 88.05 500.65 87.8 500.65 89.1 500.65 90.45 500.65 94.75 500.55 99.05 500.55 100.4 500.55 101.85 499.85 102.65 499.25 103.5 498.5 104.6 497.45 105.1 495.45 106.2 493.25 105.8 489.4 105 487.9 101.15 487.05 96.85 487.2 92.45 487.25 89.9 487.3 87.35 488.4 87.8 489.8 88
M 499.85 100.05
L 496.3 103.85 493.85 104.6
Q 494.15 104.65 494.5 104.65 498.85 104.65 499.85 100.05
M 491.9 85.95
Q 491.7 86.35 492.15 86.6 492.35 86.7 492.85 86.7
L 496.15 86.8
Q 496.95 86.8 497.35 86.65
L 497.4 86.45
Q 497 86.2 496.1 86.2
L 493.1 86.15 492.7 86.1
Q 492.3 85.8 492.05 85.85 492.15 85.95 491.9 85.95 Z"/>

<path fill="#F3F6F8" stroke="none" d="
M 493.95 88.2
Q 491.15 88.2 489.8 88 488.4 87.8 487.3 87.35 487.25 89.9 487.2 92.45 487.05 96.85 487.9 101.15 489.4 105 493.25 105.8 495.45 106.2 497.45 105.1 498.5 104.6 499.25 103.5 499.85 102.65 500.55 101.85 500.55 100.4 500.55 99.05 500.65 94.75 500.65 90.45 500.65 89.1 500.65 87.8 499.9 88.05 498.7 88.1
L 493.95 88.2
M 495.6 98.6
Q 496.4 98.25 497.1 98.65 497.9 99.1 497.9 99.9 497.9 100.5 497.4 101.1 496.45 102.35 495 102.75 493.95 103.05 493.4 102.6
L 492.8 101.85
Q 492.4 101.35 492.3 101.05 492.25 100.7 492.55 100.4 492.8 100.1 493.2 100 493.7 99.85 494.7 99.75 494.65 99 495.6 98.6
M 496.3 103.85
L 499.85 100.05
Q 498.85 104.65 494.5 104.65 494.15 104.65 493.85 104.6
L 496.3 103.85 Z"/>

<path fill="#FFFFFF" stroke="none" d="
M 497.1 98.65
Q 496.4 98.25 495.6 98.6 494.65 99 494.7 99.75 493.7 99.85 493.2 100 492.8 100.1 492.55 100.4 492.25 100.7 492.3 101.05 492.4 101.35 492.8 101.85
L 493.4 102.6
Q 493.95 103.05 495 102.75 496.45 102.35 497.4 101.1 497.9 100.5 497.9 99.9 497.9 99.1 497.1 98.65 Z"/>

<path fill="#387B5C" stroke="none" d="
M 487.95 69.85
L 487.2 71.05 487.45 80.7
Q 487.4 83.65 487.35 86.65 493.15 88.1 499.1 87.05 500 86.9 500.65 86.85 500.7 82.75 500.75 78.65 500.85 75.1 500.05 71.7 499.5 69.25 497.35 67.7 494.9 66.05 491.8 66.9 489.4 67.65 488 69.75 487.95 69.8 487.95 69.85
M 489.15 71.75
L 489.3 70.7
Q 489.45 70.05 489.45 70 489.6 69.7 489.95 69.4 490.3 69 491 68.5 491.45 68.15 491.85 68.15 492.2 68.2 492.85 68.6 492.95 68.65 493.4 68.65 493.8 68.65 493.95 68.8 494.2 68.95 494.2 69.25 494.3 69.7 494.2 69.85 494.05 70.15 493.4 70.35 491.8 70.9 490.65 72.05 490.15 72.55 489.8 72.55 489.25 72.45 489.15 71.75
M 497.4 68.4
Q 497.55 68.6 497.55 69.05
L 497.55 69.4 497.35 69.7 496.9 69.75 496.75 69.75 496.6 69.65
Q 496.35 69.4 496.35 69.05 496.35 68.7 496.5 68.45 496.7 68.15 497 68.25
L 497 68.2 497.4 68.4
M 492.15 86.6
Q 491.7 86.35 491.9 85.95 492.15 85.95 492.05 85.85 492.3 85.8 492.7 86.1
L 493.1 86.15 496.1 86.2
Q 497 86.2 497.4 86.45
L 497.35 86.65
Q 496.95 86.8 496.15 86.8
L 492.85 86.7
Q 492.35 86.7 492.15 86.6 Z"/>

<path fill="#94A26E" stroke="none" d="
M 497.55 69.05
Q 497.55 68.6 497.4 68.4
L 497 68.2 497 68.25
Q 496.7 68.15 496.5 68.45 496.35 68.7 496.35 69.05 496.35 69.4 496.6 69.65
L 496.75 69.75 496.9 69.75 497.35 69.7 497.55 69.4 497.55 69.05
M 489.3 70.7
L 489.15 71.75
Q 489.25 72.45 489.8 72.55 490.15 72.55 490.65 72.05 491.8 70.9 493.4 70.35 494.05 70.15 494.2 69.85 494.3 69.7 494.2 69.25 494.2 68.95 493.95 68.8 493.8 68.65 493.4 68.65 492.95 68.65 492.85 68.6 492.2 68.2 491.85 68.15 491.45 68.15 491 68.5 490.3 69 489.95 69.4 489.6 69.7 489.45 70 489.45 70.05 489.3 70.7 Z"/>
</g>

<g id="Layer0_2_MEMBER_5_FILL">
<path fill="#3B3D35" stroke="none" d="
M 486.1 66
Q 486.1 66.05 486.1 66.1 486.4 65.05 486.1 66
M 495.25 65.3
Q 493.35 65.2 491.25 65.55 489.85 65.8 488.95 66.8 488.4 67.45 487.85 68.05 486.95 68.9 486.55 69.85
L 486.55 75.7 486.1 76.1 486.2 80.7
Q 486.2 81.8 486.2 82.95 486.2 84.75 486.2 86.6 486.1 86.6 486.05 86.65 486.1 86.7 486.2 86.75 486.2 90.75 486.25 94.75 486.3 96.45 486.25 98.2 486 103.5 490.4 106.15 492.4 107.4 494.8 107.1 497.85 107.25 499.6 105
L 501.4 101.35 501.9 101.05
Q 501.9 98.85 501.9 96.75 501.85 90.85 501.85 84.95 501.8 78.8 501.6 72.65 501.55 70.05 499.7 67.9 497.95 65.9 495.25 65.3
M 487.2 71.05
L 487.95 69.85
Q 487.95 69.8 488 69.75 489.4 67.65 491.8 66.9 494.9 66.05 497.35 67.7 499.5 69.25 500.05 71.7 500.85 75.1 500.75 78.65 500.7 82.75 500.65 86.85 500 86.9 499.1 87.05 493.15 88.1 487.35 86.65 487.4 83.65 487.45 80.7
L 487.2 71.05
M 489.8 88
Q 491.15 88.2 493.95 88.2
L 498.7 88.1
Q 499.9 88.05 500.65 87.8 500.65 89.1 500.65 90.45 500.65 94.75 500.55 99.05 500.55 100.4 500.55 101.85 499.85 102.65 499.25 103.5 498.5 104.6 497.45 105.1 495.45 106.2 493.25 105.8 489.4 105 487.9 101.15 487.05 96.85 487.2 92.45 487.25 89.9 487.3 87.35 488.4 87.8 489.8 88
M 499.85 100.05
L 496.3 103.85 493.85 104.6
Q 494.15 104.65 494.5 104.65 498.85 104.65 499.85 100.05
M 491.9 85.95
Q 491.7 86.35 492.15 86.6 492.35 86.7 492.85 86.7
L 496.15 86.8
Q 496.95 86.8 497.35 86.65
L 497.4 86.45
Q 497 86.2 496.1 86.2
L 493.1 86.15 492.7 86.1
Q 492.3 85.8 492.05 85.85 492.15 85.95 491.9 85.95 Z"/>

<path fill="#F3F6F8" stroke="none" d="
M 493.95 88.2
Q 491.15 88.2 489.8 88 488.4 87.8 487.3 87.35 487.25 89.9 487.2 92.45 487.05 96.85 487.9 101.15 489.4 105 493.25 105.8 495.45 106.2 497.45 105.1 498.5 104.6 499.25 103.5 499.85 102.65 500.55 101.85 500.55 100.4 500.55 99.05 500.65 94.75 500.65 90.45 500.65 89.1 500.65 87.8 499.9 88.05 498.7 88.1
L 493.95 88.2
M 495.6 98.6
Q 496.4 98.25 497.1 98.65 497.9 99.1 497.9 99.9 497.9 100.5 497.4 101.1 496.45 102.35 495 102.75 493.95 103.05 493.4 102.6
L 492.8 101.85
Q 492.4 101.35 492.3 101.05 492.25 100.7 492.55 100.4 492.8 100.1 493.2 100 493.7 99.85 494.7 99.75 494.65 99 495.6 98.6
M 496.3 103.85
L 499.85 100.05
Q 498.85 104.65 494.5 104.65 494.15 104.65 493.85 104.6
L 496.3 103.85 Z"/>

<path fill="#FFFFFF" stroke="none" d="
M 497.1 98.65
Q 496.4 98.25 495.6 98.6 494.65 99 494.7 99.75 493.7 99.85 493.2 100 492.8 100.1 492.55 100.4 492.25 100.7 492.3 101.05 492.4 101.35 492.8 101.85
L 493.4 102.6
Q 493.95 103.05 495 102.75 496.45 102.35 497.4 101.1 497.9 100.5 497.9 99.9 497.9 99.1 497.1 98.65 Z"/>

<path fill="#387B5C" stroke="none" d="
M 487.95 69.85
L 487.2 71.05 487.45 80.7
Q 487.4 83.65 487.35 86.65 493.15 88.1 499.1 87.05 500 86.9 500.65 86.85 500.7 82.75 500.75 78.65 500.85 75.1 500.05 71.7 499.5 69.25 497.35 67.7 494.9 66.05 491.8 66.9 489.4 67.65 488 69.75 487.95 69.8 487.95 69.85
M 489.15 71.75
L 489.3 70.7
Q 489.45 70.05 489.45 70 489.6 69.7 489.95 69.4 490.3 69 491 68.5 491.45 68.15 491.85 68.15 492.2 68.2 492.85 68.6 492.95 68.65 493.4 68.65 493.8 68.65 493.95 68.8 494.2 68.95 494.2 69.25 494.3 69.7 494.2 69.85 494.05 70.15 493.4 70.35 491.8 70.9 490.65 72.05 490.15 72.55 489.8 72.55 489.25 72.45 489.15 71.75
M 497.4 68.4
Q 497.55 68.6 497.55 69.05
L 497.55 69.4 497.35 69.7 496.9 69.75 496.75 69.75 496.6 69.65
Q 496.35 69.4 496.35 69.05 496.35 68.7 496.5 68.45 496.7 68.15 497 68.25
L 497 68.2 497.4 68.4
M 492.15 86.6
Q 491.7 86.35 491.9 85.95 492.15 85.95 492.05 85.85 492.3 85.8 492.7 86.1
L 493.1 86.15 496.1 86.2
Q 497 86.2 497.4 86.45
L 497.35 86.65
Q 496.95 86.8 496.15 86.8
L 492.85 86.7
Q 492.35 86.7 492.15 86.6 Z"/>

<path fill="#94A26E" stroke="none" d="
M 497.55 69.05
Q 497.55 68.6 497.4 68.4
L 497 68.2 497 68.25
Q 496.7 68.15 496.5 68.45 496.35 68.7 496.35 69.05 496.35 69.4 496.6 69.65
L 496.75 69.75 496.9 69.75 497.35 69.7 497.55 69.4 497.55 69.05
M 489.3 70.7
L 489.15 71.75
Q 489.25 72.45 489.8 72.55 490.15 72.55 490.65 72.05 491.8 70.9 493.4 70.35 494.05 70.15 494.2 69.85 494.3 69.7 494.2 69.25 494.2 68.95 493.95 68.8 493.8 68.65 493.4 68.65 492.95 68.65 492.85 68.6 492.2 68.2 491.85 68.15 491.45 68.15 491 68.5 490.3 69 489.95 69.4 489.6 69.7 489.45 70 489.45 70.05 489.3 70.7 Z"/>
</g>

<g id="Layer0_2_MEMBER_6_FILL">
<path fill="#3B3D35" stroke="none" d="
M 486.1 66
Q 486.1 66.05 486.1 66.1 486.4 65.05 486.1 66
M 495.25 65.3
Q 493.35 65.2 491.25 65.55 489.85 65.8 488.95 66.8 488.4 67.45 487.85 68.05 486.95 68.9 486.55 69.85
L 486.55 75.7 486.1 76.1 486.2 80.7
Q 486.2 81.8 486.2 82.95 486.2 84.75 486.2 86.6 486.1 86.6 486.05 86.65 486.1 86.7 486.2 86.75 486.2 90.75 486.25 94.75 486.3 96.45 486.25 98.2 486 103.5 490.4 106.15 492.4 107.4 494.8 107.1 497.85 107.25 499.6 105
L 501.4 101.35 501.9 101.05
Q 501.9 98.85 501.9 96.75 501.85 90.85 501.85 84.95 501.8 78.8 501.6 72.65 501.55 70.05 499.7 67.9 497.95 65.9 495.25 65.3
M 487.2 71.05
L 487.95 69.85
Q 487.95 69.8 488 69.75 489.4 67.65 491.8 66.9 494.9 66.05 497.35 67.7 499.5 69.25 500.05 71.7 500.85 75.1 500.75 78.65 500.7 82.75 500.65 86.85 500 86.9 499.1 87.05 493.15 88.1 487.35 86.65 487.4 83.65 487.45 80.7
L 487.2 71.05
M 489.8 88
Q 491.15 88.2 493.95 88.2
L 498.7 88.1
Q 499.9 88.05 500.65 87.8 500.65 89.1 500.65 90.45 500.65 94.75 500.55 99.05 500.55 100.4 500.55 101.85 499.85 102.65 499.25 103.5 498.5 104.6 497.45 105.1 495.45 106.2 493.25 105.8 489.4 105 487.9 101.15 487.05 96.85 487.2 92.45 487.25 89.9 487.3 87.35 488.4 87.8 489.8 88
M 499.85 100.05
L 496.3 103.85 493.85 104.6
Q 494.15 104.65 494.5 104.65 498.85 104.65 499.85 100.05
M 491.9 85.95
Q 491.7 86.35 492.15 86.6 492.35 86.7 492.85 86.7
L 496.15 86.8
Q 496.95 86.8 497.35 86.65
L 497.4 86.45
Q 497 86.2 496.1 86.2
L 493.1 86.15 492.7 86.1
Q 492.3 85.8 492.05 85.85 492.15 85.95 491.9 85.95 Z"/>

<path fill="#F3F6F8" stroke="none" d="
M 493.95 88.2
Q 491.15 88.2 489.8 88 488.4 87.8 487.3 87.35 487.25 89.9 487.2 92.45 487.05 96.85 487.9 101.15 489.4 105 493.25 105.8 495.45 106.2 497.45 105.1 498.5 104.6 499.25 103.5 499.85 102.65 500.55 101.85 500.55 100.4 500.55 99.05 500.65 94.75 500.65 90.45 500.65 89.1 500.65 87.8 499.9 88.05 498.7 88.1
L 493.95 88.2
M 495.6 98.6
Q 496.4 98.25 497.1 98.65 497.9 99.1 497.9 99.9 497.9 100.5 497.4 101.1 496.45 102.35 495 102.75 493.95 103.05 493.4 102.6
L 492.8 101.85
Q 492.4 101.35 492.3 101.05 492.25 100.7 492.55 100.4 492.8 100.1 493.2 100 493.7 99.85 494.7 99.75 494.65 99 495.6 98.6
M 496.3 103.85
L 499.85 100.05
Q 498.85 104.65 494.5 104.65 494.15 104.65 493.85 104.6
L 496.3 103.85 Z"/>

<path fill="#FFFFFF" stroke="none" d="
M 497.1 98.65
Q 496.4 98.25 495.6 98.6 494.65 99 494.7 99.75 493.7 99.85 493.2 100 492.8 100.1 492.55 100.4 492.25 100.7 492.3 101.05 492.4 101.35 492.8 101.85
L 493.4 102.6
Q 493.95 103.05 495 102.75 496.45 102.35 497.4 101.1 497.9 100.5 497.9 99.9 497.9 99.1 497.1 98.65 Z"/>

<path fill="#387B5C" stroke="none" d="
M 487.95 69.85
L 487.2 71.05 487.45 80.7
Q 487.4 83.65 487.35 86.65 493.15 88.1 499.1 87.05 500 86.9 500.65 86.85 500.7 82.75 500.75 78.65 500.85 75.1 500.05 71.7 499.5 69.25 497.35 67.7 494.9 66.05 491.8 66.9 489.4 67.65 488 69.75 487.95 69.8 487.95 69.85
M 489.15 71.75
L 489.3 70.7
Q 489.45 70.05 489.45 70 489.6 69.7 489.95 69.4 490.3 69 491 68.5 491.45 68.15 491.85 68.15 492.2 68.2 492.85 68.6 492.95 68.65 493.4 68.65 493.8 68.65 493.95 68.8 494.2 68.95 494.2 69.25 494.3 69.7 494.2 69.85 494.05 70.15 493.4 70.35 491.8 70.9 490.65 72.05 490.15 72.55 489.8 72.55 489.25 72.45 489.15 71.75
M 497.4 68.4
Q 497.55 68.6 497.55 69.05
L 497.55 69.4 497.35 69.7 496.9 69.75 496.75 69.75 496.6 69.65
Q 496.35 69.4 496.35 69.05 496.35 68.7 496.5 68.45 496.7 68.15 497 68.25
L 497 68.2 497.4 68.4
M 492.15 86.6
Q 491.7 86.35 491.9 85.95 492.15 85.95 492.05 85.85 492.3 85.8 492.7 86.1
L 493.1 86.15 496.1 86.2
Q 497 86.2 497.4 86.45
L 497.35 86.65
Q 496.95 86.8 496.15 86.8
L 492.85 86.7
Q 492.35 86.7 492.15 86.6 Z"/>

<path fill="#94A26E" stroke="none" d="
M 497.55 69.05
Q 497.55 68.6 497.4 68.4
L 497 68.2 497 68.25
Q 496.7 68.15 496.5 68.45 496.35 68.7 496.35 69.05 496.35 69.4 496.6 69.65
L 496.75 69.75 496.9 69.75 497.35 69.7 497.55 69.4 497.55 69.05
M 489.3 70.7
L 489.15 71.75
Q 489.25 72.45 489.8 72.55 490.15 72.55 490.65 72.05 491.8 70.9 493.4 70.35 494.05 70.15 494.2 69.85 494.3 69.7 494.2 69.25 494.2 68.95 493.95 68.8 493.8 68.65 493.4 68.65 492.95 68.65 492.85 68.6 492.2 68.2 491.85 68.15 491.45 68.15 491 68.5 490.3 69 489.95 69.4 489.6 69.7 489.45 70 489.45 70.05 489.3 70.7 Z"/>
</g>

<g id="Layer0_3_FILL">
<path fill="#3B3D35" stroke="none" d="
M 89.7 128
L 88.1 128 88.1 137.55 89.7 137.55 89.7 128
M 94.9 131
Q 94.45 130.85 93.85 130.85 92.25 130.85 91.15 131.85
L 91.4 132.4 91.6 132.6
Q 91.7 132.65 91.9 132.65 92.1 132.65 92.25 132.6
L 93.05 132.2
Q 93.3 132.1 93.65 132.1 94.2 132.1 94.5 132.4 94.75 132.7 94.75 133.4
L 94.75 133.75
Q 94 133.8 93.45 133.9 92.85 134 92.4 134.1 91.95 134.25 91.65 134.45 91.35 134.65 91.15 134.9 91 135.1 90.9 135.35 90.8 135.6 90.8 135.85 90.8 136.3 90.95 136.65 91.1 137 91.35 137.2 91.6 137.45 91.95 137.55 92.3 137.65 92.75 137.65
L 93.4 137.6 94.45 137.15 94.9 136.75 95.05 137.2
Q 95.15 137.4 95.25 137.5 95.35 137.55 95.6 137.55
L 96.3 137.55 96.3 133.4
Q 96.3 132.8 96.15 132.35 96 131.9 95.65 131.55 95.35 131.2 94.9 131
M 92.85 135.1
Q 93.15 134.95 93.6 134.85 94.1 134.75 94.75 134.75
L 94.75 135.85
Q 94.45 136.2 94.05 136.4 93.7 136.55 93.2 136.55 92.85 136.55 92.6 136.4 92.35 136.2 92.35 135.8 92.35 135.55 92.45 135.4 92.6 135.2 92.85 135.1
M 63.85 132.1
Q 64.4 132.1 64.7 132.4 64.95 132.7 64.95 133.4
L 64.95 133.75
Q 64.2 133.8 63.65 133.9 63.05 134 62.6 134.1 62.15 134.25 61.85 134.45 61.55 134.65 61.35 134.9 61.2 135.1 61.1 135.35 61 135.6 61 135.85 61 136.3 61.15 136.65 61.3 137 61.55 137.2 61.8 137.45 62.15 137.55 62.5 137.65 62.95 137.65
L 63.6 137.6 64.65 137.15 65.1 136.75 65.25 137.2
Q 65.35 137.4 65.45 137.5 65.55 137.55 65.8 137.55
L 66.5 137.55 66.5 133.4
Q 66.5 132.8 66.35 132.35 66.2 131.9 65.85 131.55 65.55 131.2 65.1 131 64.65 130.85 64.05 130.85 62.45 130.85 61.35 131.85
L 61.6 132.4 61.8 132.6
Q 61.9 132.65 62.1 132.65 62.3 132.65 62.45 132.6
L 63.25 132.2
Q 63.5 132.1 63.85 132.1
M 62.65 135.4
Q 62.8 135.2 63.05 135.1 63.35 134.95 63.8 134.85 64.3 134.75 64.95 134.75
L 64.95 135.85
Q 64.65 136.2 64.25 136.4 63.9 136.55 63.4 136.55 63.05 136.55 62.8 136.4 62.55 136.2 62.55 135.8 62.55 135.55 62.65 135.4
M 64.6 128.15
Q 64.35 128.15 64.2 128.25 64.1 128.35 64 128.5
L 63.1 130.05 64.05 130.05 64.3 130 64.55 129.85 66.15 128.15 64.6 128.15
M 80.8 130.95
L 80.8 135.15
Q 80.8 135.7 80.95 136.15 81.1 136.6 81.4 136.95 81.7 137.3 82.1 137.45 82.5 137.65 83.05 137.65 83.7 137.65 84.2 137.4 84.7 137.15 85.1 136.75
L 85.2 137.25
Q 85.3 137.55 85.6 137.55
L 86.55 137.55 86.55 130.95 85 130.95 85 135.7
Q 84.65 136.05 84.3 136.25 83.95 136.4 83.55 136.4 82.95 136.4 82.7 136.1 82.4 135.75 82.4 135.15
L 82.4 130.95 80.8 130.95
M 72.55 131.05
Q 72.1 130.85 71.55 130.85 70.85 130.85 70.35 131.1 69.85 131.4 69.45 131.85
L 69.3 131.25
Q 69.2 130.95 68.9 130.95
L 67.95 130.95 67.95 139.7 69.5 139.7 69.5 137
Q 69.85 137.3 70.2 137.45 70.6 137.65 71.15 137.65 71.8 137.65 72.35 137.4 72.85 137.1 73.25 136.65 73.6 136.2 73.8 135.55 74 134.95 74 134.2 74 133.4 73.8 132.75 73.65 132.15 73.35 131.7 73 131.3 72.55 131.05
M 71.6 132.2
Q 71.85 132.3 72 132.55 72.2 132.8 72.25 133.2 72.35 133.6 72.35 134.2 72.35 134.8 72.25 135.2 72.15 135.6 71.95 135.9 71.75 136.15 71.45 136.3 71.15 136.45 70.8 136.45 70.45 136.45 70.1 136.3 69.8 136.15 69.5 135.85
L 69.5 132.9
Q 69.85 132.5 70.2 132.3 70.55 132.1 71 132.1 71.35 132.1 71.6 132.2
M 75.1 132.1
Q 74.95 132.45 74.95 132.85 74.95 133.3 75.1 133.6 75.25 133.9 75.45 134.15 75.7 134.35 76 134.5
L 77.7 135.1
Q 77.95 135.2 78.05 135.35 78.2 135.5 78.2 135.75
L 78.15 136.05
Q 78.1 136.2 77.95 136.3
L 77.6 136.45
Q 77.4 136.55 77.15 136.55 76.75 136.55 76.55 136.45
L 76.15 136.3 75.8 136.1
Q 75.7 136 75.55 136
L 75.3 136.05 74.75 136.85 75.2 137.15 75.75 137.4 76.4 137.6 77.05 137.65
Q 77.7 137.65 78.2 137.5 78.7 137.3 79 137.05 79.35 136.75 79.5 136.35 79.7 135.95 79.7 135.45 79.7 135.05 79.55 134.8 79.4 134.5 79.2 134.3 78.95 134.1 78.65 133.95
L 76.95 133.35
Q 76.75 133.25 76.6 133.1 76.45 132.95 76.45 132.75 76.45 132.4 76.75 132.2 77 132 77.45 132
L 78.4 132.2 78.95 132.45 79.1 132.4 79.25 132.25 79.6 131.65
Q 79.25 131.3 78.7 131.1 78.15 130.85 77.45 130.85 76.85 130.85 76.35 131 75.9 131.2 75.6 131.45 75.3 131.7 75.1 132.1
M 57.3 129.6
L 58.4 129.8 59.3 130.3 59.5 130.35 59.7 130.3 59.85 130.15 60.45 129.35
Q 59.9 128.8 59.1 128.5 58.3 128.15 57.3 128.15 56.25 128.15 55.4 128.5 54.6 128.85 53.95 129.5 53.35 130.1 53.05 131 52.7 131.85 52.7 132.9 52.7 133.95 53 134.8 53.3 135.7 53.9 136.3 54.5 136.95 55.3 137.3 56.15 137.65 57.2 137.65 58.35 137.65 59.15 137.3 60 136.9 60.55 136.2
L 59.85 135.45
Q 59.75 135.35 59.6 135.35
L 59.45 135.4 59.35 135.5 58.9 135.8 58.45 136 57.95 136.15 57.3 136.2
Q 56.7 136.2 56.2 135.95 55.65 135.75 55.3 135.35 54.9 134.9 54.7 134.3 54.45 133.7 54.45 132.9 54.45 132.15 54.65 131.5 54.85 130.9 55.25 130.5 55.6 130.05 56.15 129.85 56.65 129.6 57.3 129.6 Z"/>
</g>
</defs>

<g transform="matrix( 1.07159423828125, 0, 0, 0.802642822265625, -22.3,-16) ">
<use xlink:href="#Layer0_0_FILL"/>
</g>

<g transform="matrix( 1.07159423828125, 0, 0, 1.07159423828125, -22.3,-6.95) ">
<use xlink:href="#Layer0_1_FILL"/>
</g>

<g transform="matrix( 1, 0, 0, 1, -417.7,-6.95) ">
<use xlink:href="#Layer0_2_MEMBER_0_FILL"/>
</g>

<g transform="matrix( -0.64337158203125, 0.7655029296875, -0.7655029296875, -0.64337158203125, 430.4,-246.75) ">
<use xlink:href="#Layer0_2_MEMBER_1_FILL"/>
</g>

<g transform="matrix( 0.64337158203125, -0.7655029296875, 0.7655029296875, 0.64337158203125, -334.65,380.75) ">
<use xlink:href="#Layer0_2_MEMBER_2_FILL"/>
</g>

<g transform="matrix( -0.87030029296875, 0.492401123046875, -0.492401123046875, -0.87030029296875, 531.75,-124.85) ">
<use xlink:href="#Layer0_2_MEMBER_3_FILL"/>
</g>

<g transform="matrix( 0.87030029296875, -0.492401123046875, 0.492401123046875, 0.87030029296875, -403.8,197.4) ">
<use xlink:href="#Layer0_2_MEMBER_4_FILL"/>
</g>

<g transform="matrix( -0.9918060302734375, -0.12701416015625, 0.12701416015625, -0.9918060302734375, 571.8,196.55) ">
<use xlink:href="#Layer0_2_MEMBER_5_FILL"/>
</g>

<g transform="matrix( 0.64337158203125, 0.7655029296875, 0.7655029296875, -0.64337158203125, -284.45,-245.6) ">
<use xlink:href="#Layer0_2_MEMBER_6_FILL"/>
</g>

<g transform="matrix( 1, 0, 0, 1, 0,0) ">
<use xlink:href="#Layer0_3_FILL"/>
</g>
</svg>
