
<svg xmlns="http://www.w3.org/2000/svg" version="1.1" xmlns:xlink="http://www.w3.org/1999/xlink" preserveAspectRatio="none" x="0px" y="0px" width="149px" height="152px" viewBox="0 0 149 152">
<defs>
<g id="Layer0_0_MEMBER_0_FILL">
<path fill="#B8BE79" stroke="none" d="
M 21.5 19.95
L 21.5 157.8 159.35 157.8 159.35 19.95 21.5 19.95 Z"/>
</g>

<g id="Layer0_0_MEMBER_1_FILL">
<path fill="#E1C99B" stroke="none" d="
M 21.5 111.85
L 21.5 148.6 159.35 148.6 159.35 111.85 21.5 111.85 Z"/>
</g>

<g id="Layer0_0_MEMBER_2_FILL">
<path fill="#3B3D35" stroke="none" d="
M 334.75 48.9
Q 334.55 48.35 333.4 48.45 329.7017578125 48.9783203125 326.35 50.4 326.311328125 50.4095703125 326.25 50.4
L 325.6 50.65 325.35 50.8
Q 324.7875 51.092578125 324.2 51.4 323.7 51.6 323.75 51.9
L 323.75 51.9
Q 323.699609375 51.966796875 323.65 52
L 323.2 52.35
Q 323.148828125 52.1494140625 323.1 51.95 322.85 50.95 322.45 50.45 322.0837890625 49.97109375 321.65 49.8 321.4041015625 48.2806640625 320.95 46.75 316.5 31.9 302.65 24.5 301.6732421875 23.976171875 300.9 23.7 299.8021484375 23.2802734375 298.6 23.05 284.3 22.45 273.6 32 260.35 43.9 261.75 61.3 262.2802734375 66.937890625 264.7 72.25
L 263.65 73.05
Q 262.45 73.9 262.15 74.3 261.45 75.2 261 75.55 260.25 76.1 258.65 76.1 256.8 76.15 256.15 76.35 255.8283203125 76.4736328125 255.45 76.65
L 255.45 76.65
Q 254.7 75.75 254 75.5 253.6 75.35 253 75.45
L 251.9 75.45
Q 250.4 75.65 250.1 76.5 249.9 76.85 250 77.45
L 250 78.1
Q 250 78.32890625 250 78.5 249.41640625 78.5263671875 248.65 78.8 246.6 79.5 246.3 79.55 246.05 79.6 244.6 79.65 243.6 79.7 243.05 80 242.55 80.25 241.75 81.1 241 81.95 240.45 82.2 239.2 82.55 238.6 82.8 238.15 83.05 237.2 84 236.95 84.4 236.95 84.5 236.932421875 84.605859375 236.95 84.7 236.1083984375 84.7947265625 235.3 85.05 233.95 85.55 233.2 85.7 232.15 85.95 229.4 85.85 229.25 86.3 230.1 86.4 230.5419921875 86.458984375 230.9 86.5 232.00390625 86.9611328125 233.3 86.85 234.3 86.75 234.2 87.25 234.2 87.35 234 87.65 233.5 88.25 233.9 89.05 234.3 89.85 235.05 89.85 234.75 90.4 234.85 91.15 234 91.4 233.9 92.4 233.85 92.8 234.2 94
L 227.45 94.95
Q 226.45 95.2 226.25 95.35 226 95.6 225.9 95.95 225.85 96.3 226.05 96.5 226.15 96.6 226.75 96.85 229.1 97.4 231.1 98.85 231.4396484375 99.08515625 231.7 99.25 232.465234375 99.776171875 232.65 99.85 233.15 100.05 234.5 100.05 235.7 100.05 236.3 100.35 236.75 100.6 237.4 101.3 238.1 102.1 238.4 102.3 239.15 102.9 240.9 103.1 246.25 103.8 249.85 103 250.85 102.8 252.8 102.35 253.3 102.3 254.3 102.2 255.15 102.05 255.55 101.6 255.7 101.45 255.95 101.05 256.2 100.7 256.5 100.65 256.9 100.55 257.5 100.95 258.45 101.8 258.75 101.95 259.65 102.5 260.35 102.15 261.25 101.7 261.05 100.4 262.45 100.05 263.7 100 263.7994140625 99.950390625 263.8 99.85 264.01015625 100.0583984375 264.3 100.3 264.65 100.55 265.35 101.05 265.9 101.45 266.2 101.9 266.45 102.25 266.9 102.95 267.5 103.6 269 103.6 272.5 103.7 273.85 103.45 275.35 103.2 277.35 102.3 278.27109375 101.9033203125 279.3 101.35 279.2798828125 101.707421875 279.3 102.15 279.35 103.35 279.25 103.85 279.15 104.5 279.25 104.75 279.4 105 279.75 105.2 280.4 105.65 281.75 106.05 283.2 106.55 283.8 106.85 284 106.95 285.05 107.6 285.75 108.05 286.25 108.2 287.1 108.45 288.9 108.35 290 108.35 292.2 108.4 294.1 108.35 295.35 107.8 296.3 107.4 297.65 106.25 298.76484375 105.2244140625 299.05 104.55 300.0427734375 105.028515625 300.6 105.5 300.7 105.6 301.45 106.3 302 106.8 302.4 107.05 303.25 107.45 304.85 107.45 306.45 107.45 306.95 107.3 307.45 107.2 308.6 106.7 309.5205078125 106.2908203125 310.25 105.9 311.9 105.25 313.25 104.1 314.8 102.7 314.65 100.5 314.6 99.35 314.9 99.9 317.7 102.55 321 101.1 321.908203125 100.696484375 322.75 100.1 322.8396484375 100.090234375 322.9 100.05 323.6904296875 99.54453125 324.45 98.9
L 328.5 98.8
Q 329.870703125 98.7533203125 331.25 98.6 333.85 98.3 334.5 98.3 336.4 98.2 337.75 98.7 338.02890625 98.79296875 338.4 98.95 339.1923828125 99.29453125 340.4 99.95 342.4 100.9 344.75 101 346.6 101 347.4 100.3 347.8 99.95 348.25 99.25 348.75 98.45 349 98.2 349.4 97.8 350.3 97.05 350.8 96.45 350.8 95.65 350.85 94.8 350.4 94.2 350.05 93.8 349.4 93.35 348.6 92.9 348.25 92.65 347.65 92.2 346.8 91.25 345.85 90.15 345.45 89.8 343.95 88.4 341.95 88 340.25 87.6 340.2 87.55 339.9197265625 87.38984375 339.55 87.05 339.486328125 86.8814453125 339.45 86.7 339.3302734375 86.6701171875 339.2 86.7 339.1443359375 86.64609375 339.05 86.55 340.38671875 86.5134765625 341.75 85.9 347.6 83.35 353.85 82.6
L 353.7 81.45
Q 353 79.95 351.85 78.9 346.85 74.4 341.75 70.1 340.45 68.95 339.05 68 338.7791015625 67.8296875 338.5 67.65 343.9501953125 62.6052734375 349.3 57.45 349.7 57.1 349.45 56.35 349.25 55.65 348.45 55.45 343.65 55.1 339.2 55.05 335.278125 54.982421875 331.35 55.6 332.357421875 54.420703125 332.75 53.6 332.9 53.3 333.45 51.8 333.85 50.65 334.3 50.05 334.9 49.25 334.75 48.9
M 330.55 51.7
Q 330.9 51.25 330.85 51.05 329.6 51.7 327.3 53.9
L 323.9 57.25
Q 323.919921875 57.0091796875 323.9 56.75 323.6974609375 54.68515625 323.3 52.8 323.451953125 52.8 323.65 52.8 324 52.85 324.15 52.75
L 324.6 52.5
Q 324.7 52.4 325.2 52.15
L 325.9 51.6
Q 329.4041015625 50.383203125 332.95 49.75 331.4 53.45 330.3 54.95 329.9056640625 55.489453125 329.7 55.9 328.692578125 56.137109375 327.65 56.4 325.8 57.3 324 58.25 323.9744140625 58.2626953125 323.95 58.25 323.950390625 58.241015625 323.95 58.2 324.045703125 58.104296875 324.15 58 327.45 54.45 330.55 51.7
M 327.15 57.95
Q 328.8 57.35 330.6 57.25 339.45 55.9 348.25 56.9 342.8150390625 61.9431640625 337.45 67.05 336.478515625 66.5447265625 335.45 66.1 333.8 65.3 332 65 327.552734375 64.1484375 323 64.8
L 323.9 59.35
Q 323.91171875 59.1974609375 323.9 59.05 325.5353515625 58.5779296875 327.15 57.95
M 324.15 65.5
Q 326.5 65.5 328.7 65.65 335.15 66.3 340.2 70.5 346.45 75.65 351.95 81.4 347.65 81.85 343.6 83.7 341.7 84.55 339.6 84.95 338.2671875 85.0474609375 337.15 85.45 336.4509765625 85.160546875 335.5 84.85 334.4 84.5 333.85 83.95 333.4 83.55 333 82.8 332.35 81.65 332.25 81.5 331.326171875 80.09921875 329.7 79.4 328.613671875 78.94140625 327.2 78.8 326.9001953125 78.77265625 326.35 78.75 326.11953125 78.4998046875 325.7 78.2
L 323.2 76.35 323 76.25
Q 322.85 76.25 322.8 76.35
L 326 78.7
Q 325.71484375 78.7140625 325.35 78.7 324.15 78.65 323.5 78.55 321.65 77.95 320.7 77.75 319.969921875 77.5552734375 318.4 77.55 318.3927734375 77.55 318.35 77.55 317.5439453125 77.5708984375 316.75 77.6 317.1748046875 77.1759765625 317.6 76.6 317.6794921875 76.6302734375 317.75 76.6 320.0337890625 76.766796875 322.35 76.35 324.75 75.85 325.2 75.8
L 329.6 75.8
Q 329.8564453125 76.1025390625 330.1 76.4 331.8943359375 78.3060546875 334.5 80.1 336.4 81.45 340.2 83.55 341.3 84.1 341.75 83.95 335.55 80.75 330.5 76.2 330.2630859375 75.9630859375 330.05 75.85 329.98125 75.8208984375 329.9 75.8
L 336.15 75.8
Q 340 75.9 342.6 75.65 343 75.65 342.9 75.4 338.1494140625 74.7666015625 329.85 74.8 333.795703125 73.257421875 336.7 70.4 336.95 70.15 336.85 69.95 336.6 69.95 336.05 70.4 333.55 72.7 330.65 74.05 330.067578125 74.355078125 329.7 74.6 329.5943359375 74.7123046875 329.5 74.8 328.7873046875 74.7923828125 328.05 74.8 325.9 74.8 324.85 74.95 324.15 75.05 321.65 75.55 319.7 76 318.45 75.95 318.2732421875 75.9107421875 318.1 75.9 318.5001953125 75.3697265625 318.9 74.75 321.9 70.1 322.65 67.1
L 322.95 65.2
Q 323.5376953125 65.3919921875 324.15 65.5
M 328.8 83.05
Q 328.35 83.3 327 83.4
L 325.25 83.65 324.95 83.7
Q 324.4 83.3 323.5 83.35 322.4 83.5 321.85 83.55 321.805078125 83.552734375 321.75 83.55 320.1673828125 83.621484375 319 82.6
L 317.65 81.55
Q 317.05 81.25 315.95 81.25 314.5 81.3 314.15 81.25 312.982421875 81.0890625 311.3 79.65 311.5181640625 79.5505859375 311.65 79.4 311.7953125 79.4232421875 311.95 79.4 312.5541015625 79.3255859375 313.1 79.25 313.072265625 79.3099609375 313.05 79.35 314.0259765625 79.8611328125 315.2 79 316.2166015625 78.9419921875 316.95 78.9 318.4607421875 78.83125 319.4 78.9 319.87109375 78.9373046875 320.2 79 321.35 79.15 323.5 79.75 324.8 80 327.5 80.1 328.349609375 80.2212890625 329 80.45 330.2966796875 80.9701171875 330.95 81.95 331.17265625 82.26171875 331.45 82.95 331.2921875 82.87109375 331.15 82.8 330.15 82.3 329.5 82.6 329.05 82.9 328.8 83.05
M 324.55 84.6
Q 325.053515625 84.596484375 325.15 84.5 325.403515625 84.309765625 325.25 84.05
L 325.75 84.05 327.85 84
Q 328.45 84 328.7 83.9 329.05 83.75 329.55 83.3 330.1 83 331 83.4 331.477734375 83.6150390625 331.8 83.7 332.001953125 84.092578125 332.15 84.3 332.6173828125 84.9677734375 333.6 85.5 333.2892578125 85.65859375 333.05 85.85
L 332.55 87.15
Q 332.15 88.05 331.8 88.3 331.55 88.45 330.85 88.65 330.25 88.8 330 89.05 329.7 89.4 329.6 90.35 329.6 90.75 329.45 91.2
L 329.3 91.35
Q 329.4318359375 90.287109375 328.85 89.75
L 328.3 89.25
Q 328.2 89.1 328.2 88.7 328.2 88.2 328.2 88.15 328.2 87.45 327.15 86.3 326.65 85.8 326.25 85.8 326.2 86.25 326.7 86.75 327.35 87.4 327.4 87.55 327.6 87.95 327.6 88.7 327.5 89.55 327.6 89.85
L 328.35 90.05
Q 328.65 90.6 328.65 91.2
L 328.5 91.8 328.45 92
Q 328.4052734375 92.23515625 328.35 92.45 328.378125 92.5884765625 328.35 92.7
L 328.25 92.85
Q 328.3091796875 92.9091796875 328.35 92.95 328.383984375 93.5416015625 328.55 94.15
L 329.7 94.1 329.75 93.85 329.05 93.65
Q 328.999609375 93.3732421875 329.05 92.85 329.164453125 92.8017578125 329.3 92.7 329.95 92.05 330.1 91.75 330.2 91.55 330.25 90.65 330.3 89.95 330.6 89.65 330.8 89.4 331.35 89.25 332 89.05 332.2 88.9 332.65 88.6 332.9 87.7 333.25 86.55 333.4 86.3 333.584375 85.93125 333.9 85.65 334.2869140625 85.84375 334.7 86 337.05 86.85 337.65 87.3
L 338.5 88.1
Q 339.05 88.6 339.5 88.85 339.7083984375 88.954296875 339.95 89.05 340.0763671875 89.0724609375 340.15 89.1
L 340.4 89.4
Q 340.75 89.9 340.7 90.15 340.65 90.5 340.15 90.75 339.9755859375 90.837109375 339.85 90.9 339.4375 91.1125 339.4 91.15 338.891796875 91.5658203125 338.95 92.35 338.9423828125 92.431640625 338.95 92.5 338.95 92.9 339.05 93.65 339.05 94.3 338.8 94.7 338.25 95.3 338.05 95.6 337.7546875 95.9490234375 337.75 96.2 337.7685546875 96.46484375 338 96.65
L 338.05 96.65 338.75 96.7 339.9 92.1
Q 340 91.8 340.45 91.5 341 91.1 341.15 90.95 341.6841796875 90.225 341.2 89.3 342.055078125 89.4158203125 342.35 89.5 343.65 89.9 345.35 91.8 347.15 93.9 348.2 94.4 349.5 95.05 349.55 95.65 349.55 96.05 349.15 96.45 348.6 96.85 348.35 97.05 348 97.35 347.55 98 347.05 98.7 346.75 98.95 345.85 99.8 344.4 99.8 343.05 99.8 341.15 98.9 339.2748046875 98.0154296875 338.45 97.65 338.1462890625 97.5439453125 338 97.5 336.35 96.95 333.25 97.05
L 326.5 97.4 327.3 96.6 327 95.65
Q 326.5 96.1 326 96.55 324.9740234375 97.3099609375 323.9 97.95 323.265234375 98.3978515625 322.6 98.75 321.5111328125 99.413671875 320.4 99.95 318.15 100.9 316.35 99.25 315.0896484375 98.0330078125 313.65 97.05 313.3 96.9 313 96.75 309.000390625 95.3857421875 305.25 93.45
L 305.2 93.35
Q 305.1404296875 93.36953125 305.05 93.4 302.8576171875 92.251953125 300.7 90.9 299.0119140625 89.93671875 297.2 89.15 296.8029296875 88.98203125 296.5 88.85 297.3 88.85 297.45 88.8
L 298.05 88.45
Q 298.95 87.85 300 87.7
L 300.95 86.7
Q 301.3 86.35 301.5 86.3 301.65 85.7 302.45 84.8
L 302.8 84.35
Q 303.05 83.95 303.15 83.35
L 304.15 78.2
Q 304.384765625 76.1814453125 304.3 74.8 304.644140625 74.830078125 305.05 74.8 305.75 75 306.5 76.05 308.8 79 309.75 79.95
L 310.5 80.6
Q 312.7 82.6 314.8 82.55 316.4 82.45 316.8 82.6 317.2 82.7 318.1 83.6 318.75546875 84.166015625 319.5 84.45 320.0640625 84.639453125 320.65 84.7 321.210546875 84.786328125 322.25 84.65 322.42109375 84.670703125 322.6 84.65 323.9 84.55 324.55 84.6
L 324.55 84.6
M 298.6 24.45
Q 299.0408203125 24.5423828125 299.45 24.65 300.6767578125 24.993359375 302.25 25.85
L 302.45 26.1
Q 314.5 34 313.35 49.3 312.4345703125 61.72265625 305.7 70.7 304.653515625 72.073828125 303.45 73.35 303.3013671875 73.2265625 303.1 73 302.765234375 72.553515625 302.55 72.35 302.942578125 71.8447265625 303.35 71.35 303.5142578125 71.144921875 303.65 70.95 310.5630859375 62.1349609375 311.2 52.5 311.6705078125 51.85859375 312.35 50.75
L 312.25 50.55
Q 312.1 50.5 311.9 50.7 311.5544921875 51.1794921875 311.25 51.6 311.285546875 50.3830078125 311.2 49.1
L 312.05 48.1 311.85 47.9
Q 311.6 48 311.45 48.2
L 311.2 48.5
Q 311.1353515625 47.7875 311.05 47.05 311.6408203125 46.1724609375 312 45.05
L 311.85 44.85
Q 311.65 44.85 311.55 45.05
L 311.45 45.45
Q 311.35 45.8 311.05 46.2
L 310.95 46.35
Q 310.923046875 46.2044921875 310.9 46.05 310.7724609375 45.218359375 310.6 44.35 310.7880859375 44.113671875 311.15 43.7 311.5 43.3 312.05 42.4
L 311.85 42.2
Q 311.6 42.2 311.35 42.45
L 311.05 42.95
Q 310.95 43.2 310.55 43.6 310.498828125 43.651171875 310.45 43.7 309.7947265625 40.787109375 308.6 37.8 307.3728515625 34.854296875 306.3 33.05 304.75 30.5 302.8 29 299.3 26.35 294.15 26.45 291.0896484375 26.45 286.9 27.65 282.5 28.8 278.95 31.6 270.89375 38.0072265625 267.7 45.7 266.57421875 48.5244140625 266.05 51.5 265.8166015625 52.40234375 265.75 53.8
L 265.45 55.55
Q 264.65 58.1 264.75 62.05 264.75 62.8 264.9 63.4 264.9859375 63.7009765625 265.3 64.1 265.303125 64.3583984375 265.4 64.5 265.4705078125 64.7212890625 265.55 64.9 265.4638671875 65.1625 265.55 65.55 265.55 65.73828125 265.7 66.55 265.8009765625 67.0419921875 265.95 67.75
L 266.35 69.4
Q 266.405078125 69.619921875 266.45 69.8 266.6462890625 70.3236328125 266.9 70.65
L 265.4 71.75
Q 263.6162109375 66.6607421875 263.05 61.3 262.05 48 270.2 37.6 281 23.7 298.6 24.45
M 295.15 27.45
Q 300.55 27.8 303.65 31.1 305 32.6 306.6 36.1 306.9912109375 36.976953125 307.35 37.8 308.16015625 40.6744140625 308.6 43.5 307.940234375 43.1755859375 307.15 43 305.8 42.9 305.15 42.75 303.65 42.15 302.9 41.9 301.15 41.25 299.2 41.45 297.25 41.7 295.7 42.8 294.35 43.8 293.9 43.95 293.3 44.2 291.9 44.1 290.5 44 289.85 44.2 289.15 44.45 287.75 45.75 287.15 46.3 285.95 47.1
L 281.9 50
Q 280.3759765625 51.0443359375 279.25 51.65 280.0091796875 49.72265625 280.5 48.7 280.85 48 282.25 45.55
L 285.1 40.9 286.65 39.15
Q 289.55 36.05 291.25 35.1
L 290.95 34.8
Q 286.05 38 283.25 43
L 281.25 46.25
Q 280.3478515625 47.76953125 278.95 51.85 278.26953125 52.2349609375 277.75 52.45 276.1 53 275.6 53.25 273.9 54.15 272.85 56 272.1 57.25 271.9 57.55 271.301171875 58.287109375 270.6 58.45 270.558984375 58.48828125 270.5 58.5 269.65 58.5 269.2 58.65 268.5 58.9 268.05 60.15 267.5 61.7 267.15 62.1 267.0037109375 62.2828125 266.7 62.5 266.5421875 58.592578125 267.25 54.7 268.117578125 49.784375 270 45.6 274.9439453125 34.5849609375 286.9 28.6 291.5927734375 27.269921875 295.15 27.45
M 288.15 47.25
Q 288.4 47.05 288.95 46.4 289.45 45.8 289.8 45.6 290.55 45.15 292.05 45.2 293.75 45.3 294.35 45.1 294.85 44.95 295.5 44.5
L 296.6 43.75
Q 299.1 42.05 302 42.95 302.4 43.05 303.55 43.55 304.55 43.95 305.2 44.05 305.65 44.15 306.5 44.2 307.3 44.3 307.75 44.55 308.18671875 44.78828125 308.85 45.4 309.1515625 48.259375 309.05 51.05
L 309 51.15
Q 308.55 51.7 308.5 52.05 308.7544921875 51.9990234375 309 51.75 308.5609375 61.565234375 303.35 70.85 302.9578125 71.6037109375 302.5 72.3 302.4849609375 72.2763671875 302.45 72.25 301.65 71.75 300.1 72.35 298.5 73.15 297.45 74.35 297.6564453125 74.388671875 297.9 74.35 297.7794921875 74.417578125 297.65 74.5 295 76 294.15 78.05
L 293.95 78.8
Q 293.787109375 78.830859375 293.6 78.95
L 291.35 79.85 291.2 79.9
Q 289.8 80.4 289.15 80.75 288 81.35 287.75 82 287.5 82.45 287.5 83.45 287.4591796875 84.0623046875 287.5 84.5 287.644921875 85.2154296875 288 85.6 288.45 86.1 289.25 86.2 289.3822265625 86.2330078125 289.5 86.25
L 289.6 86.3
Q 289.5427734375 86.3345703125 289.45 86.35 288.4 86.5 287.9 86.6 287 86.75 286.4 87 284.7 87.7 284.4 89.2 284.35 89.85 284.45 91.1 284.45 91.305078125 284.4 91.6 284.364453125 91.612890625 284.3 91.6 283.6 91.45 282.15 91.45 278.55 91.4 276.75 91.5 270.65 91.9 265.55 95.15 265.36328125 95.2744140625 265.2 95.4 264.0064453125 96.262109375 263.7 97.05 263.45 97.75 263.45 98.7 263.45 98.9794921875 263.5 99.2 263.2611328125 99.15 262.85 99.15
L 261.75 99.2
Q 260.8 99.3 260.55 99.5 260.05 99.85 259.85 101.1
L 258.85 100.35
Q 256.8 98.95 255.75 99.55 255.6 99.65 254.95 100.3 254.25 100.9 252.35 101.2 245.45 102.4 241.7 101.8 240.15 101.65 239.05 100.95 238.9 100.85 237.75 99.8 236.95 99.15 236.3 98.95 235.85 98.8 234.95 98.85 234 98.85 233.6 98.75 233.5650390625 98.74296875 233.5 98.7 233.030078125 98.6115234375 232.1 98.1
L 228.85 96.2
Q 231.1 95.6 233.05 95.55 234.5 95.45 234.95 94.95 235.55 94.25 235.05 92.6 235.6 92.85 235.85 92.05 235.85 91.3 236 90.95 236.4 90.3 236.45 89.95 236.5 89.15 235 88.55 235.05 88.25 235.55 87.75 236 87.25 235.9 86.9 235.85 86.35 234.95 86.25 234.779296875 86.2173828125 234.6 86.2 235.2072265625 86.0650390625 235.95 85.9 238.1 85.45 239.45 85.7 240.55 85.85 240.6 85.85 241.15 85.8 241.75 85.25 242.05 84.95 242.05 84.7 241.95 84.25 241.3 84.35 240.8 84.65 240.5 84.7 240.25 84.8 239.4 84.7 238.8705078125 84.63984375 238.35 84.6 238.6052734375 84.4193359375 238.9 84.1 239.3 83.8 240.15 83.55 241.1 83.35 241.45 83.1 241.8 82.85 242.3 82.15 242.8 81.45 243.15 81.2 243.8 80.75 245.3 80.8 246.9 80.8 247.55 80.55 247.7 80.5 248.85 79.85 249.55 79.4 250.1 79.45
L 250.9 79.55
Q 251.2091796875 79.55 251.35 79.4 251.7568359375 79.4298828125 252.1 79.25 252.0302734375 79.41171875 252.05 79.55 252.05 80.1 252.75 80.1 253.15 80.05 253.65 79.65
L 256.15 77.8
Q 256.55 77.5 256.65 77.5
L 257.2 77.4
Q 257.85 77.4 259.15 77.4 260.3 77.35 261 77 261.75 76.65 262.7 75.7
L 263.65 74.8
Q 265 73.45 265.95 72.9 267.45 72.15 267.75 71.55 268 71 267.85 70.2 267.8119140625 70.0859375 267.55 69.35 267.495703125 69.1373046875 267.4 68.85
L 266.45 65.05
Q 266.35 64.75 266.2 64.65 266.070703125 64.5853515625 265.95 64.55 265.9826171875 64.5462890625 266 64.5 266.05 64.1 266.1 63.95 266.198046875 63.6560546875 266.55 63.5 266.65 63.75 266.7 63.75 266.8 63.75 266.75 63.45 266.98515625 63.409375 267.35 63.3 268.05 63 268.5 61.6 268.95 60.15 269.55 59.8 269.8666015625 59.62734375 270.4 59.55 270.8484375 59.5 271.4 59.5 272.25 59.25 273.1 57.75 274.6 55.3 275.65 54.6 276.25 54.2 277.4 53.8 278.9 53.35 279.3 53.15 280.65 52.6 282.75 50.85 284.95 49 286.15 48.4 287.9 47.45 288.15 47.25
M 306.55 28.5
Q 315.4775390625 34.812890625 319.25 45.55 322.55 54.9 319.7 64.9 322.630859375 58.184765625 321.9 51.4 322.2712890625 52.423046875 322.35 53.55
L 322.65 55.9
Q 322.8744140625 57.24609375 322.7 58.95 322.53203125 59.371875 322.55 59.75
L 322.55 59.75 321.55 65.95
Q 321.15 67.8 320.1 69.9 319.5 71.1 318 73.55 316.3 76.25 315.05 77.4 314.7595703125 77.6490234375 314.5 77.85 313.5216796875 78.0166015625 312.6 78.2 312.7068359375 78.070703125 312.8 77.9
L 314.1 76.1
Q 316.05 73.5 317.25 70.45 316.65 70.15 316.2 71.2 315.1 73.3 313.05 76.05 311.5728515625 77.9703125 310.6 78.95 310.5572265625 78.9072265625 310.5 78.85 308.1 76.2 307.35 75.25 306.25 73.95 305.55 73.75 305.4240234375 73.7185546875 305.1 73.7 306.827734375 71.89921875 308.2 69.85 311.7373046875 64.7568359375 313.3 58.35 317.9154296875 39.684375 306.55 28.5
M 265.65 64.7
L 265.65 64.75
Q 265.65546875 64.7671875 265.65 64.8 265.65 64.7673828125 265.65 64.7
M 253.8 76.5
Q 254.494921875 76.760546875 254.7 77.2
L 252.55 78.85
Q 252.426953125 78.9283203125 252.3 79 252.1583984375 78.7951171875 251.75 78.55 251.2 78.2 251.05 77.95 250.85 77.7 250.9 77.35 250.95 76.95 251.2 76.75 251.45 76.5 252.4 76.4 253.35 76.4 253.8 76.5
M 264.5 98.2
Q 264.533203125 98.1251953125 264.55 98.05 264.728125 97.301953125 265.6 96.55 265.93984375 96.2875 266.4 96 267.95 95 270.4 94.05
L 272.55 93.35
Q 274.65 92.75 277.6 92.55 279.11484375 92.4634765625 281.85 92.35 280.619921875 93.453515625 278.45 94.95 277.45 95.65 276.7 96.05
L 274.6 96.95
Q 273.25 97.75 273.15 97.8 271.95 98 271.4 98.2
L 270.4 98.55 267.65 98.75
Q 266.55 98.75 266.3 98.65
L 265.45 98.3
Q 265.36328125 98.285546875 265.25 98.25 264.9314453125 98.2541015625 264.7 98.4 264.6533203125 98.4359375 264.6 98.5 266.05 99.55 269.8 99.45 270.4 99.45 270.7 99.35
L 271.75 99.05
Q 272.35 98.85 273.6 98.6 273.85 98.5 274.95 97.75 275.35 97.55 276.45 97.15 277.4 96.85 277.9 96.5
L 278.5 96 279.7 95.2
Q 280.8 94.45 281.05 94.25 282.1044921875 93.3984375 282.75 92.35 284.65234375 92.252734375 285.3 93 285.8 93.6 285.6 94.5 285.45 95.2 284.85 95.8 284.25 96.5 283.05 97.25
L 279.3 99.7
Q 278.1 100.5 277.7 100.65 276.35 101.05 275.7 101.35
L 274.4 102
Q 273.9 102.2 272.85 102.3 270.9 102.45 269.35 102.4 268.2 102.4 267.7 102 267.6 101.9 267.1 101.3 266.5 100.45 265.1 99.35 264.75 99.05 264.6 98.75 264.475 98.541796875 264.5 98.2
M 301.4 72.95
Q 301.85 73.05 302.3 73.7 302.85 74.45 303.15 74.6 303.3900390625 74.730859375 303.75 74.75
L 303.6 77.1
Q 303.5 78 303.4 78.15
L 303.15 78.8
Q 303.1 79.05 303.1 79.6
L 302.85 80.15
Q 302.75 80.5 302.85 81.25
L 302.55 81.85
Q 302.45 82.1 302.45 82.6 302.4 83.3 301.6 84.5 300.3 86.15 299.8 86.55 299.25 86.95 298.3 87.45 297.55 87.9 296.95 88.05
L 295.5 88.15
Q 295.28046875 88.136328125 295.05 88.1 294.601171875 87.7515625 294.3 87.35 294.05 86.95 293.85 86.3 293.7 85.75 293.8 85.05 293.83359375 84.6798828125 293.95 83.9 294.051953125 83.52421875 294.15 83.05
L 294.8 80.3
Q 295.1 78.8 295.4 78.2 295.85 77.3 296.8 76.25 297.35 75.65 298.4 74.5 298.3236328125 74.36640625 298.2 74.3 298.7541015625 74.226953125 299.45 73.85 300.9 73.05 301.4 72.95
M 291.2 81.15
Q 291.8283203125 80.9041015625 292.4 80.55 292.923828125 80.262890625 293.4 79.9
L 293.7 79.65 293.1 81.75
Q 290.96484375 83.0310546875 288.6 84.15 290.8193359375 83.4466796875 292.85 82.5
L 292.85 82.55
Q 292.684375 83.3228515625 292.6 84.3 292.5638671875 84.879296875 292.55 85.5 291.9537109375 85.7513671875 291.35 85.9 291.30234375 85.9060546875 291.25 85.9 291.179296875 85.867578125 291.1 85.85
L 290.45 85.8 289.9 85.45 289.8 85.4 289.8 85.4
Q 289.35 85.15 289.15 84.95 289.096875 84.9021484375 289.05 84.85 288.7677734375 84.558203125 288.6 84.15 288.5779296875 83.9953125 288.55 83.8 288.45 83.15 288.8 82.6 289.15 82.1 289.85 81.7 290.1 81.6 291.2 81.15
M 290.75 87.1
L 292 86.8
Q 292.3099609375 86.7154296875 292.55 86.6 292.5962890625 87.2041015625 292.7 87.55 292.9 88.1 293.45 88.65 294.05 89.25 296.45 90.4 298.57109375 91.313671875 300.4 92.35 300.95 92.65 301.45 92.9 302.77578125 93.2861328125 304 93.75 301.514453125 94.765234375 300.65 96 299.75 97.3 300 99.05 300.15 100.65 301.25 101.9 302.85 103.8 306 104.4 307.25078125 104.6017578125 310 104.55 309.5474609375 104.822265625 309 105 308.6404296875 105.211328125 308.3 105.35 306.3 106.15 304.55 106.1 303.85 106.1 303.35 105.85 303 105.7 301.95 104.75 301.023046875 103.95546875 298.95 103.05
L 298.95 103.05 298.9 103.05
Q 298.665625 102.95625 298.4 102.85 296.9 102.2 296.65 101.4 296.6 101.15 296.7 100.2
L 296.95 98.8
Q 297.05 98.2 297.2 97.95 297.4 97.65 297.85 97.1 298.1 96.75 298.2 95.85 298.1072265625 95.6642578125 298 95.6 297.973828125 95.5896484375 297.95 95.55 297.75 95.25 297.15 94.95
L 297 94.85
Q 297.1884765625 94.5615234375 297.4 94.35 297.75 93.9 298.55 93.15
L 298.35 92.95
Q 297.95 93 297.55 93.5 296.95 94.1 296.75 94.45 296.6732421875 94.5650390625 296.6 94.65
L 295.15 93.95
Q 295.2701171875 92.89140625 295.15 92.05 295.15 91.6 295.2 91.5
L 295.4 91.2
Q 295.4 90.9 295.2 90.85 295.15 90.95 294.95 90.95 294.7 91.3 294.7 92.15
L 294.7 93.7
Q 293.7083984375 93.2896484375 293.15 93.15 292.9 93.1 291.65 93.1
L 287.65 93.15 287.45 93.15
Q 286.9 93.15 286.7 93.25 286.4951171875 93.3638671875 286.4 93.5 286.2806640625 92.941015625 286.1 92.7 285.82265625 92.271484375 285.35 92 285.4 91.84921875 285.4 91.65 285.45 90.6 285.45 90.1 285.55 89.2 285.95 88.75 286.35 88.25 287.8 87.8
L 290.75 87.1
M 286.5 94
Q 286.7083984375 94.15 287.1 94.15
L 291.5 94.25 292.85 94.4
Q 293.4 94.5 294.5 95.1
L 297 96.3
Q 297.1009765625 96.360546875 297.2 96.4 296.5671875 97.2099609375 296.3 97.7 296.05 98.1 295.85 99.1
L 295.65 99.95
Q 295.3701171875 101.3490234375 295.55 102.1 292.8453125 103.3603515625 290 103.55 286.85 103.75 284.15 102.55 282.2 101.65 281.65 100.4 281.554296875 100.112890625 281.35 100.1 283.150390625 98.9595703125 285.2 97.4 286.3 96.6 286.5 95.9 286.7 95.45 286.6 94.4 286.5671875 94.187109375 286.5 94
M 300.6 97.95
Q 300.75 96.35 302.35 95.2 303.211328125 94.584765625 304.65 94 309.069921875 95.85546875 312.6 98.95 312.76328125 99.0970703125 312.9 99.25 313.35 99.7 313.45 100.2 313.65 101.65 312.65 102.65 312.3345703125 102.9759765625 312 103.25 312.0109375 103.0861328125 312 102.9 311.4 103.15 311.15 103.7 308.35 103.85 306.65 103.6 304.2 103.25 302.65 102 301.65 101.2 301.15 100.15 300.55 98.9 300.6 97.95
M 295.9 102.85
Q 296.2791015625 103.1974609375 296.7 103.45 296.9974609375 103.6359375 297.95 104.05 297.8146484375 104.2853515625 297.35 104.75
L 296.4 105.7
Q 295.45 106.45 294.2 106.75 293.1 107.05 291.7 107.1 291.05 107.15 289.15 107.15 287.1 107.05 286.35 106.7
L 285.4 106.25
Q 283.35 105.1 281.15 104.5 280.45 104.3 280.3 104.05 280.15 103.8 280.25 103.25 280.3384765625 102.0548828125 280.15 100.85 280.72265625 100.5126953125 281.3 100.1 280.959765625 100.715234375 281.4 101.4 281.6 101.75 282.4 102.3 285.4 104.2 289.1 104.35 292.75 104.5 295.9 102.9
L 295.9 102.85
M 299.3 65.95
Q 300.5 64.5 302.3 64.2 302.15 63.95 301.7 64.05 299.95 64.35 298.8 65.6 298.4 66.05 298.15 66.25 297.8 66.6 297.45 66.75 296.4 66.9 295.85 67.1 294.9634765625 67.366015625 294.05 68.9 293.919140625 69.084375 293.8 69.3
L 293.05 70.7
Q 293.5 70.85 293.9 70.5 294.3 70.2 294.45 69.7 294.7 69.1 294.8 68.8 294.96875 68.4626953125 295.15 68.25 295.25234375 68.13125 295.35 68.05 295.605859375 67.8306640625 296.1 67.7 296.321484375 67.676953125 296.55 67.65 297.55 67.5 297.9 67.35 298.0978515625 67.2369140625 298.3 67.05 298.476171875 66.923828125 298.65 66.75 298.9 66.5 299.3 65.95
M 268.15 89.05
Q 267.3 89.05 267.15 89.55 268.4279296875 89.6251953125 269.6 89.65 272.407421875 89.73984375 274.75 89.6 275.7 89.5 276.1 89.35 276.4595703125 89.1822265625 276.7 88.95 276.9458984375 88.7123046875 277.05 88.4 275.3 89 272.65 89.05 269.65 89 268.15 89.05
M 282.25 82
Q 282.15 82.15 282.2 82.2 282.75 82.45 283.25 82.1 283.273046875 82.076953125 283.35 82 283.41484375 81.8890625 283.55 81.7
L 283.8 81.25
Q 284.1 80.65 284.35 80.4 284.75 80.05 285.6 80.05 285.85 80.05 286.25 80 286.65 80 286.9 79.9
L 286.85 79.75 284.65 79.6
Q 284.8 79.75 284.5 79.75 284.401171875 79.7994140625 284.3 79.85 284.001171875 80.0857421875 283.7 80.5 283.35 81.2 283.1 81.45 282.7 81.85 282.45 81.9
L 282.25 82
M 258.1 95.7
Q 257.7 95.85 257.65 95.9 257.6 96.15 257.5 96.25 257.2 96.45 257.1 96.6
L 257.05 96.95 257.05 97.8
Q 257.05 98.35 257.2 98.6
L 259.25 98.65 260 98.6
Q 260.5 98.45 260.75 97.95
L 260.9 97.45
Q 261 96.85 260.95 96.45 260.85 95.85 260.4 95.7 260.2 95.6 259.75 95.6 259.2 95.6 258.1 95.7
M 259.95 96.35
L 260.2 96.8
Q 260.05 96.95 259.95 97.25
L 259.9 97.4
Q 259.8 97.65 259.3 97.65
L 257.8 97.75
Q 257.7 96.9 258.45 96.65 258.7 96.65 258.8 96.55
L 259.05 96.35 259.95 96.35
M 250.65 97.6
Q 251.7 97.7 252.3 97.35
L 252.65 97.1
Q 252.9 96.95 252.85 96.75
L 252.4 96.75 252.15 96.85
Q 251.05 97.1 250.55 97.4
L 250.65 97.6
M 247.15 95.35
Q 247.0830078125 95.3609375 247 95.35 245.4 95.25 244.95 95.55
L 244.3 96.25
Q 244.2548828125 96.2951171875 244.2 96.35 243.62109375 96.861328125 242.65 97 242.4775390625 97.0287109375 241.85 97.05 241.401171875 97.0787109375 240.7 97.1 240.35 97.1 240.35 97.25 240.634765625 97.294921875 240.9 97.3 242.384765625 97.5275390625 243.15 97.4 244.68046875 97.175 245.2 96 245.255078125 95.8896484375 245.3 95.75
L 245.8 95.8 247.7 96.05
Q 249.7 96.35 250.65 95.6
L 250.55 95.15
Q 248.9720703125 95.5802734375 247.15 95.35
M 268.05 85.55
L 268 85.3 267.7 85.3 267.7 85.95
Q 267.85 86.05 268.2 86.1
L 268.3 86.2 268.45 86.3
Q 268.8 86.5 269.35 86.4 269.25 86.05 269.1 85.95
L 268.95 85.9
Q 268.35 85.6 268.05 85.55
M 256.8 85.65
Q 257 85.65 257.95 85.55 258.6 85.5 259.05 85.4 260 85.1 260.05 85.1 260.65 85 261.05 85.2
L 261.8 85.8
Q 261.9765625 85.9177734375 262.2 85.95 262.3203125 85.9896484375 262.4 86 262.7634765625 86.0458984375 263.2 86
L 265.55 85.9 267.5 85.85
Q 266.75 84.95 264.95 85.25 262.9 85.5 262.25 85.15 261.55 84.6 261.15 84.45 260.7 84.3 259.8 84.5
L 257.25 85.05
Q 254.75 85.55 253.55 85.95
L 252.9 86.15
Q 253.1201171875 86.205078125 253.35 86.2 254.0166015625 86.294921875 254.85 86.15 255.2517578125 86.0572265625 255.9 85.9 256.3037109375 85.78359375 256.8 85.65
M 279.75 63.35
Q 279.819140625 63.2263671875 279.8 63.15 279.7 62.9 279.35 62.9 279.15 62.85 278.85 63.05 278.45 63.4 278.35 63.85
L 276.5 64.15
Q 276.3 64.15 276.1 64.2 276 64.25 275.9 64.3 275.5 64.5 275.35 64.9 275.2 65.35 275.4 65.7 275.65 65.8 276.15 65.45 277.05 64.95 277.6 64.9 277.85 64.9 278.3 64.85 278.75 64.85 279 64.65 279.1 64.55 279.5 63.9 279.71640625 63.5599609375 279.75 63.35
M 283 59.6
Q 281.85 59.6 281.1 60.35 280.65 60.8 280.6 61.25 280.40390625 61.9951171875 280.65 62.6 280.7029296875 62.78828125 280.8 62.95
L 281.35 62.9
Q 281.5 62.65 281.5 62.1 281.4888671875 61.9775390625 281.5 61.85 281.49453125 61.4943359375 281.65 61.3 281.85 61 282.35 60.9
L 283.85 60.6
Q 284.35 60.6 284.6 60.5 285 60.3 284.9 59.95 285.25 59.95 285.6 59.5 286 59 286.25 58.9 286.45 58.85 286.95 58.8 287.1 58.75 287.45 58.15 287.85 57.55 289.15 56.95 290.5 56.35 290.9 55.85 291.3 55.4 291.85 54.3
L 292.4 53.55
Q 292.55 53.3 292.8 52.75 293 52.5 293.5 52.2
L 295.5 51 295.6 50.95 295.9 50.7
Q 296 50.5 295.8 50.4 295.2 50.2 294.25 50.7 292.05 51.85 291.5 52.9
L 291.15 53.5 291.1 53.6 290.7 54 290.35 54.55
Q 290 55.15 289.2 55.6 288.4 55.95 288.05 56.15 287.35 56.5 287.05 56.95 286.65 57.65 286.35 57.85
L 285.65 58.2
Q 285.35 58.35 284.8 58.9 284.6212890625 59.0787109375 284.45 59.2 284.15703125 59.4357421875 283.9 59.5 283.3 59.55 283 59.6
M 292.45 72.2
L 292.3 72.2 292.2 72.25 291.85 72.8 291.7 73.15
Q 291.6 73.4 291.7 73.55 292.25 73.4 292.5 72.8
L 292.7 72.4
Q 292.6 72.2 292.45 72.2
M 252.9 94.1
L 253 94.2 254.15 94.25 254.2 94.05
Q 253.7 94 253.4 93.9
L 252.85 93.7 252.65 93.75 252.7 93.95 252.75 94 252.9 94.1
M 276.45 73.8
Q 276.8 74.2 278.2 73.85 278.9 73.65 279.9 73.6 280.45 73.6 281.6 73.6 282.25 73.6 282.5 73.4 282.9 73.15 283.35 72.25 284 71.5 286.1 71.5 288.2 71.5 288.8 70.65 287.25 71 285.4 71 283.95 71.1 283.65 71.3 283.4 71.5 283.05 71.95 282.65 72.45 282.4 72.6 282.05 72.85 280.8 72.95 277.6 72.95 276.45 73.8
M 270.85 73.5
Q 270.05 73.75 269.4 74.1
L 268.4 74.6
Q 267.5 74.7 267.1 74.8 266.75 74.8 266.85 75.05 267.55 75.45 268.75 75.05 269.35 74.85 270.55 74.3 271.75 74.05 272.05 73.85 273.1 74.35 274.2 73.95 274.2626953125 73.9185546875 274.3 73.85 274.4490234375 74.056640625 274.7 74.2 275.05 74.05 275.45 74.15
L 276.15 74.5
Q 276.55 74.65 277.5 74.45 277.65 74.45 277.65 74.4 277.75 74.3 277.7 74.25 277 74.2 276.3 73.8
L 275.85 73.6 275.4 73.55
Q 275.15 73.6 274.6 73.6 274.372265625 73.6 274.2 73.7
L 271.95 73.25
Q 271.55 73.2 270.85 73.5
M 273.3 66.75
L 273.15 66.8 273.1 66.8 273 66.9 272.8 67.3 272.85 67.7 273.2 67.75 273.25 67.55 273.55 67.05 273.55 66.95 273.5 66.9 273.45 66.8 273.4 66.75 273.3 66.75
M 307.65 48.35
Q 307.35 48.4 306.75 48.7
L 305.05 49.55
Q 304.1 50 303.55 50.35 301.9 51.45 301.8 51.5 301.5 51.6 300.35 51.85 299.45 52.05 299 52.25 298.2 52.6 297.35 53.35 296.65 53.95 296.35 54.35
L 295.6 55.85
Q 295.45 56.25 295.15 56.65
L 294.6 57.2 294.45 57.55 294.15 58.45
Q 294.1 58.6 294.2 58.75 294.3 58.9 294.45 58.85 294.6 58.85 294.7 58.65
L 295.05 58.1 295.25 57.6
Q 295.3193359375 57.4615234375 295.5 57.25 295.5923828125 57.1576171875 295.7 57.05 296.05 56.7 296.1 56.5
L 296.25 55.95 296.6 55.45
Q 297.35 54.35 297.55 54.15 297.65 54.05 298.55 53.4
L 299.4 52.95 300.6 52.65
Q 301.95 52.45 302.7 51.9 303.15 51.55 303.95 50.8 304.35 50.55 305.25 50.2 305.95 49.8 306.05 49.75
L 306.75 49.5 307.75 48.9
Q 308.35 48.5 308.9 48.55 309 48.25 308.5 48.25 308.15 48.2 307.65 48.35
M 318 89.3
Q 318.162109375 89.0146484375 318.4 88.65 318.7712890625 88.08046875 318.9 87.65 319.026171875 87.2029296875 318.9 86.9 318.65 87.65 317.65 88.85 316.8 90.1 317.35 91.05 317.55 91.4 318.1 91.8 318.75 92.2 318.95 92.45 319.35 92.9 319.5 93.65
L 319.8 94.6 319.8 94.65
Q 319.9099609375 95.005078125 320.1 95.1
L 320.55 95.2
Q 321.05 95.45 320.95 96.3 320.95 96.4521484375 320.95 96.55 320.998046875 97.28203125 321.25 97.45 321.383984375 97.33515625 321.45 97.15 321.6 96.8630859375 321.6 96.4 321.7 95.55 321.5 95.05 321.2 94.25 320.45 94.35 320.374609375 92.91875 319.5 91.95 319.2201171875 91.621484375 318.85 91.35 318 90.8 317.85 90.35 317.7134765625 89.9744140625 318 89.3
M 310.4 92.45
Q 310.6 92.3 311.4 92.2 312.6 92.05 313.5 91.15 313.7 90.95 314.45 89.95
L 315.85 87.85 316.25 87.1
Q 316.35 86.6 316.15 86.35
L 314.35 89
Q 313.35 90.55 312.55 91.05 311.5 91.7 309.95 91.7 309.7 92.65 308.7 93 307.75 93.35 307.7 93.65 309.3 93.55 309.9 92.95
L 310.4 92.45
M 303.35 88.55
L 303.7 88.6 305.95 86.85
Q 306.7 86.2 306.85 85.7 306.5 85.85 306.05 86.25 305.15 87.1 303.75 88.05 303.4 88.3 303.35 88.55
M 300.55 88.9
Q 300.1 88.9 300.2 89.15 300.85 89.55 302.1 88.9
L 304 87.8
Q 304.8 87.25 304.95 87.05 305.35 86.5 305.9 85.3 306.2 84.9 306.2 84.8 306.2 84.4 305.9 84.4 305.8 84.75 305.25 85.25 304.85 86.05 304.65 86.4 304.3 86.9 303.45 87.35
L 301.55 88.5
Q 301.05 88.85 300.55 88.9
M 343.95 98.3
Q 343.65 98.4 343.7 98.6 344.45 98.9 344.85 98.75 345.2 98.6 345.3 98.15 345.05 97.6 344.85 97.4
L 344.3 97.05 343.25 96.75 342.15 96.8
Q 341.5 96.8 341.4 96.85 340.9 97.05 341.05 97.45 341.2 97.65 341.55 97.55
L 342.25 97.45
Q 343.3 97.35 344.1 97.8 344.3 97.9 344.3 98.1 344.25 98.3 343.95 98.3
M 328.05 68.1
Q 327.7 68.6 325.5 71.65
L 323.75 74.3
Q 323.55 74.6 323.6 74.8 324.5 73.7 326.1 71.3 327.65 68.9 328.55 67.8 328.3 67.75 328.05 68.1
M 331.1 57.65
L 330.25 58.45
Q 328.95 59.65 328.55 60.25 327.9 61.25 327.65 62.35 328.1 62.15 328.4 61.45 329.5 59.4 331.25 58.1 331.75 57.6 331.75 57.4 331.55 57.3 331.1 57.65
M 345.85 57.65
Q 345.85 57.4 345.65 57.25
L 343.15 57.7
Q 340.6 58.15 338.75 58.65 337.3 59.05 335.1 59.9 332.15 61.05 331.45 61.3 329.054296875 62.152734375 328.45 62.4 328.01875 62.4296875 327.6 62.45 327.6 62.662109375 327.75 62.75
L 326.7 63.4
Q 326.3 63.7 326.2 63.9 327.0716796875 63.7166015625 328.55 62.9 333.609375 62.9474609375 339.9 62.8 340.45 62.8 340.5 62.55 335.2337890625 62.235546875 330.25 62.35 330.621484375 62.2623046875 331.05 62.15 331.85 61.95 334.25 60.9 334.8 60.65 337.35 59.8 340.65 58.7 342.35 58.3
L 345.85 57.65 Z"/>

<path fill="#E3C5AB" stroke="none" d="
M 296.7 103.45
Q 296.2791015625 103.1974609375 295.9 102.85
L 295.9 102.9
Q 292.75 104.5 289.1 104.35 285.4 104.2 282.4 102.3 281.6 101.75 281.4 101.4 280.959765625 100.715234375 281.3 100.1 280.72265625 100.5126953125 280.15 100.85 280.3384765625 102.0548828125 280.25 103.25 280.15 103.8 280.3 104.05 280.45 104.3 281.15 104.5 283.35 105.1 285.4 106.25
L 286.35 106.7
Q 287.1 107.05 289.15 107.15 291.05 107.15 291.7 107.1 293.1 107.05 294.2 106.75 295.45 106.45 296.4 105.7
L 297.35 104.75
Q 297.8146484375 104.2853515625 297.95 104.05 296.9974609375 103.6359375 296.7 103.45
M 292 86.8
L 290.75 87.1
Q 289.666015625 89.54921875 287.65 93.15
L 291.65 93.1
Q 292.9 93.1 293.15 93.15 293.7083984375 93.2896484375 294.7 93.7
L 294.7 92.15
Q 294.7 91.3 294.95 90.95 295.15 90.95 295.2 90.85 295.4 90.9 295.4 91.2
L 295.2 91.5
Q 295.15 91.6 295.15 92.05 295.2701171875 92.89140625 295.15 93.95
L 296.6 94.65
Q 296.6732421875 94.5650390625 296.75 94.45 296.95 94.1 297.55 93.5 297.95 93 298.35 92.95
L 298.55 93.15
Q 297.75 93.9 297.4 94.35 297.1884765625 94.5615234375 297 94.85
L 297.15 94.95
Q 297.75 95.25 297.95 95.55 297.973828125 95.5896484375 298 95.6 298.1072265625 95.6642578125 298.2 95.85 298.1 96.75 297.85 97.1 297.4 97.65 297.2 97.95 297.05 98.2 296.95 98.8
L 296.7 100.2
Q 296.6 101.15 296.65 101.4 296.9 102.2 298.4 102.85 298.665625 102.95625 298.9 103.05
L 298.95 103.05 298.95 103.05
Q 301.023046875 103.95546875 301.95 104.75 303 105.7 303.35 105.85 303.85 106.1 304.55 106.1 306.3 106.15 308.3 105.35 308.6404296875 105.211328125 309 105 309.5474609375 104.822265625 310 104.55 307.25078125 104.6017578125 306 104.4 302.85 103.8 301.25 101.9 300.15 100.65 300 99.05 299.75 97.3 300.65 96 301.514453125 94.765234375 304 93.75 302.77578125 93.2861328125 301.45 92.9 300.95 92.65 300.4 92.35 298.57109375 91.313671875 296.45 90.4 294.05 89.25 293.45 88.65 292.9 88.1 292.7 87.55 292.5962890625 87.2041015625 292.55 86.6 292.3099609375 86.7154296875 292 86.8
M 264.5 98.2
Q 264.475 98.541796875 264.6 98.75 264.75 99.05 265.1 99.35 266.5 100.45 267.1 101.3 267.6 101.9 267.7 102 268.2 102.4 269.35 102.4 270.9 102.45 272.85 102.3 273.9 102.2 274.4 102
L 275.7 101.35
Q 276.35 101.05 277.7 100.65 278.1 100.5 279.3 99.7
L 283.05 97.25
Q 284.25 96.5 284.85 95.8 285.45 95.2 285.6 94.5 285.8 93.6 285.3 93 284.65234375 92.252734375 282.75 92.35 282.1044921875 93.3984375 281.05 94.25 280.8 94.45 279.7 95.2
L 278.5 96 277.9 96.5
Q 277.4 96.85 276.45 97.15 275.35 97.55 274.95 97.75 273.85 98.5 273.6 98.6 272.35 98.85 271.75 99.05
L 270.7 99.35
Q 270.4 99.45 269.8 99.45 266.05 99.55 264.6 98.5 264.6533203125 98.4359375 264.7 98.4 264.6197265625 98.30390625 264.5 98.2
M 318 89.7
Q 318 89.502734375 318 89.3 317.7134765625 89.9744140625 317.85 90.35 318 90.8 318.85 91.35 319.2201171875 91.621484375 319.5 91.95 319.27578125 91.450390625 318.6 91 318 90.6 318 89.7
M 303.15 83.35
Q 303.05 83.95 302.8 84.35
L 302.45 84.8
Q 301.65 85.7 301.5 86.3 301.3 86.35 300.95 86.7
L 300 87.7
Q 298.95 87.85 298.05 88.45
L 297.45 88.8
Q 297.3 88.85 296.5 88.85 296.8029296875 88.98203125 297.2 89.15 299.0119140625 89.93671875 300.7 90.9 302.8576171875 92.251953125 305.05 93.4 305.1404296875 93.36953125 305.2 93.35
L 305.25 93.45
Q 309.000390625 95.3857421875 313 96.75 313.3 96.9 313.65 97.05 315.0896484375 98.0330078125 316.35 99.25 318.15 100.9 320.4 99.95 321.5111328125 99.413671875 322.6 98.75 322.2990234375 98.0921875 321.6 97.3 321.5318359375 97.2259765625 321.45 97.15 321.383984375 97.33515625 321.25 97.45 320.998046875 97.28203125 320.95 96.55 320.95 96.4521484375 320.95 96.3 321.05 95.45 320.55 95.2
L 320.1 95.1
Q 319.9099609375 95.005078125 319.8 94.65
L 319.8 94.6 319.5 93.65
Q 319.35 92.9 318.95 92.45 318.75 92.2 318.1 91.8 317.55 91.4 317.35 91.05 316.8 90.1 317.65 88.85 318.65 87.65 318.9 86.9 319.026171875 87.2029296875 318.9 87.65 319.55 86.905859375 319.55 85.6 319.55 84.839453125 319.5 84.45 318.75546875 84.166015625 318.1 83.6 317.2 82.7 316.8 82.6 316.4 82.45 314.8 82.55 312.7 82.6 310.5 80.6
L 309.75 79.95
Q 308.8 79 306.5 76.05 305.75 75 305.05 74.8 304.644140625 74.830078125 304.3 74.8 304.384765625 76.1814453125 304.15 78.2
L 303.15 83.35
M 300.2 89.15
Q 300.1 88.9 300.55 88.9 301.05 88.85 301.55 88.5
L 303.45 87.35
Q 304.3 86.9 304.65 86.4 304.85 86.05 305.25 85.25 305.8 84.75 305.9 84.4 306.2 84.4 306.2 84.8 306.2 84.9 305.9 85.3 305.35 86.5 304.95 87.05 304.8 87.25 304 87.8
L 302.1 88.9
Q 300.85 89.55 300.2 89.15
M 303.7 88.6
L 303.35 88.55
Q 303.4 88.3 303.75 88.05 305.15 87.1 306.05 86.25 306.5 85.85 306.85 85.7 306.7 86.2 305.95 86.85
L 303.7 88.6
M 311.4 92.2
Q 310.6 92.3 310.4 92.45
L 309.9 92.95
Q 309.3 93.55 307.7 93.65 307.75 93.35 308.7 93 309.7 92.65 309.95 91.7 311.5 91.7 312.55 91.05 313.35 90.55 314.35 89
L 316.15 86.35
Q 316.35 86.6 316.25 87.1
L 315.85 87.85 314.45 89.95
Q 313.7 90.95 313.5 91.15 312.6 92.05 311.4 92.2
M 333.9 85.65
Q 333.584375 85.93125 333.4 86.3 333.25 86.55 332.9 87.7 332.65 88.6 332.2 88.9 332 89.05 331.35 89.25 330.8 89.4 330.6 89.65 330.3 89.95 330.25 90.65 330.2 91.55 330.1 91.75 329.95 92.05 329.3 92.7 329.164453125 92.8017578125 329.05 92.85 328.999609375 93.3732421875 329.05 93.65
L 329.75 93.85 329.7 94.1 328.55 94.15
Q 328.383984375 93.5416015625 328.35 92.95 328.3091796875 92.9091796875 328.25 92.85
L 328.35 92.7
Q 328.378125 92.5884765625 328.35 92.45 328.146484375 93.096484375 327.4 93.3 325.95 93.75 325.1 95.25 324.7 95.9 323.95 97.9 323.934765625 97.9419921875 323.9 97.95 324.9740234375 97.3099609375 326 96.55 326.5 96.1 327 95.65
L 327.3 96.6 326.5 97.4 333.25 97.05
Q 336.35 96.95 338 97.5 338.1462890625 97.5439453125 338.45 97.65 338.399609375 97.167578125 338.05 96.65
L 338 96.65
Q 337.7685546875 96.46484375 337.75 96.2 337.7546875 95.9490234375 338.05 95.6 338.25 95.3 338.8 94.7 339.05 94.3 339.05 93.65 338.95 92.9 338.95 92.5 338.9423828125 92.431640625 338.95 92.35 338.891796875 91.5658203125 339.4 91.15 339.4375 91.1125 339.85 90.9 339.9755859375 90.837109375 340.15 90.75 340.65 90.5 340.7 90.15 340.75 89.9 340.4 89.4
L 340.15 89.1
Q 340.0763671875 89.0724609375 339.95 89.05 339.7083984375 88.954296875 339.5 88.85 339.05 88.6 338.5 88.1
L 337.65 87.3
Q 337.05 86.85 334.7 86 334.2869140625 85.84375 333.9 85.65
M 324.55 84.6
L 324.55 84.6
Q 323.9 84.55 322.6 84.65 322.42109375 84.670703125 322.25 84.65 323.106640625 86.558203125 323.5 87.05
L 324.05 87.05
Q 324.0166015625 85.680859375 324.55 84.6
M 325.75 84.05
Q 325.75 84.30625 325.75 84.6 325.7 86.4 325.9 87.3 326.15 88.55 327.4 89.9 328.5 91.15 328.5 91.8
L 328.65 91.2
Q 328.65 90.6 328.35 90.05
L 327.6 89.85
Q 327.5 89.55 327.6 88.7 327.6 87.95 327.4 87.55 327.35 87.4 326.7 86.75 326.2 86.25 326.25 85.8 326.65 85.8 327.15 86.3 328.2 87.45 328.2 88.15 328.2 88.2 328.2 88.7 328.2 89.1 328.3 89.25
L 328.85 89.75
Q 329.4318359375 90.287109375 329.3 91.35
L 329.45 91.2
Q 329.6 90.75 329.6 90.35 329.7 89.4 330 89.05 330.25 88.8 330.85 88.65 331.55 88.45 331.8 88.3 332.15 88.05 332.55 87.15
L 333.05 85.85
Q 333.2892578125 85.65859375 333.6 85.5 332.6173828125 84.9677734375 332.15 84.3 332.001953125 84.092578125 331.8 83.7 331.477734375 83.6150390625 331 83.4 330.1 83 329.55 83.3 329.05 83.75 328.7 83.9 328.45 84 327.85 84
L 325.75 84.05
M 316.95 78.9
Q 316.2166015625 78.9419921875 315.2 79 314.0259765625 79.8611328125 313.05 79.35 313.072265625 79.3099609375 313.1 79.25 312.5541015625 79.3255859375 311.95 79.4 311.7953125 79.4232421875 311.65 79.4 311.5181640625 79.5505859375 311.3 79.65 312.982421875 81.0890625 314.15 81.25 314.5 81.3 315.95 81.25 317.05 81.25 317.65 81.55
L 319 82.6
Q 320.1673828125 83.621484375 321.75 83.55 321.5193359375 82.994921875 321.25 82.35 320.4017578125 80.380078125 319.4 78.9 318.4607421875 78.83125 316.95 78.9
M 329 80.45
Q 328.5765625 81.030078125 327.95 81.5 326.3859375 82.6646484375 325.7 83.2 325.400390625 83.4830078125 325.3 83.6 325.2755859375 83.626171875 325.25 83.65
L 327 83.4
Q 328.35 83.3 328.8 83.05 329.05 82.9 329.5 82.6 330.15 82.3 331.15 82.8 331.2921875 82.87109375 331.45 82.95 331.17265625 82.26171875 330.95 81.95 330.2966796875 80.9701171875 329 80.45 Z"/>

<path fill="#FAAB5A" stroke="none" d="
M 302.35 95.2
Q 300.75 96.35 300.6 97.95 300.55 98.9 301.15 100.15 301.65 101.2 302.65 102 304.2 103.25 306.65 103.6 308.35 103.85 311.15 103.7 311.4 103.15 312 102.9 312.0109375 103.0861328125 312 103.25 312.3345703125 102.9759765625 312.65 102.65 313.65 101.65 313.45 100.2 313.35 99.7 312.9 99.25 312.76328125 99.0970703125 312.6 98.95 309.069921875 95.85546875 304.65 94 303.211328125 94.584765625 302.35 95.2
M 287.1 94.15
Q 286.7083984375 94.15 286.5 94 286.5671875 94.187109375 286.6 94.4 286.7 95.45 286.5 95.9 286.3 96.6 285.2 97.4 283.150390625 98.9595703125 281.35 100.1 281.554296875 100.112890625 281.65 100.4 282.2 101.65 284.15 102.55 286.85 103.75 290 103.55 292.8453125 103.3603515625 295.55 102.1 295.3701171875 101.3490234375 295.65 99.95
L 295.85 99.1
Q 296.05 98.1 296.3 97.7 296.5671875 97.2099609375 297.2 96.4 297.1009765625 96.360546875 297 96.3
L 294.5 95.1
Q 293.4 94.5 292.85 94.4
L 291.5 94.25 287.1 94.15
M 302.3 73.7
Q 301.85 73.05 301.4 72.95 300.9 73.05 299.45 73.85 298.7541015625 74.226953125 298.2 74.3 298.3236328125 74.36640625 298.4 74.5 297.35 75.65 296.8 76.25 295.85 77.3 295.4 78.2 295.1 78.8 294.8 80.3
L 294.15 83.05
Q 294.051953125 83.52421875 293.95 83.9 293.83359375 84.6798828125 293.8 85.05 293.7 85.75 293.85 86.3 294.05 86.95 294.3 87.35 294.601171875 87.7515625 295.05 88.1 295.28046875 88.136328125 295.5 88.15
L 296.95 88.05
Q 297.55 87.9 298.3 87.45 299.25 86.95 299.8 86.55 300.3 86.15 301.6 84.5 302.4 83.3 302.45 82.6 302.45 82.1 302.55 81.85
L 302.85 81.25
Q 302.75 80.5 302.85 80.15
L 303.1 79.6
Q 303.1 79.05 303.15 78.8
L 303.4 78.15
Q 303.5 78 303.6 77.1
L 303.75 74.75
Q 303.3900390625 74.730859375 303.15 74.6 302.85 74.45 302.3 73.7
M 264.55 98.05
Q 264.533203125 98.1251953125 264.5 98.2 264.6197265625 98.30390625 264.7 98.4 264.9314453125 98.2541015625 265.25 98.25 265.36328125 98.285546875 265.45 98.3
L 266.3 98.65
Q 266.55 98.75 267.65 98.75
L 270.4 98.55 271.4 98.2
Q 271.95 98 273.15 97.8 273.25 97.75 274.6 96.95
L 276.7 96.05
Q 277.45 95.65 278.45 94.95 280.619921875 93.453515625 281.85 92.35 279.11484375 92.4634765625 277.6 92.55 274.65 92.75 272.55 93.35
L 270.4 94.05
Q 267.95 95 266.4 96 265.93984375 96.2875 265.6 96.55 264.728125 97.301953125 264.55 98.05
M 254.7 77.2
Q 254.494921875 76.760546875 253.8 76.5 253.35 76.4 252.4 76.4 251.45 76.5 251.2 76.75 250.95 76.95 250.9 77.35 250.85 77.7 251.05 77.95 251.2 78.2 251.75 78.55 252.1583984375 78.7951171875 252.3 79 252.426953125 78.9283203125 252.55 78.85
L 254.7 77.2
M 291.1 53.6
L 291.15 53.5
Q 288.8337890625 55.244921875 286.2 57.6 285.2828125 58.4494140625 284.45 59.2 284.6212890625 59.0787109375 284.8 58.9 285.35 58.35 285.65 58.2
L 286.35 57.85
Q 286.65 57.65 287.05 56.95 287.35 56.5 288.05 56.15 288.4 55.95 289.2 55.6 290 55.15 290.35 54.55
L 290.7 54 291.1 53.6
M 245.8 95.8
L 245.3 95.75
Q 245.255078125 95.8896484375 245.2 96 245.4912109375 95.92421875 245.8 95.8
M 260.2 96.8
L 259.95 96.35 259.05 96.35 258.8 96.55
Q 258.7 96.65 258.45 96.65 257.7 96.9 257.8 97.75
L 259.3 97.65
Q 259.8 97.65 259.9 97.4
L 259.95 97.25
Q 260.05 96.95 260.2 96.8
M 277.75 59.4
L 277.15 59.4
Q 274.35 63.4 272.75 65.2 270.076953125 68.1330078125 267.55 69.35 267.8119140625 70.0859375 267.85 70.2 268 71 267.75 71.55 267.45 72.15 265.95 72.9 265 73.45 263.65 74.8
L 262.7 75.7
Q 261.75 76.65 261 77 260.3 77.35 259.15 77.4 257.85 77.4 257.2 77.4
L 256.65 77.5
Q 256.55 77.5 256.15 77.8
L 253.65 79.65
Q 253.15 80.05 252.75 80.1 252.05 80.1 252.05 79.55 252.0302734375 79.41171875 252.1 79.25 251.7568359375 79.4298828125 251.35 79.4 251.2091796875 79.55 250.9 79.55
L 250.1 79.45
Q 249.55 79.4 248.85 79.85 247.7 80.5 247.55 80.55 246.9 80.8 245.3 80.8 243.8 80.75 243.15 81.2 242.8 81.45 242.3 82.15 241.8 82.85 241.45 83.1 241.1 83.35 240.15 83.55 239.3 83.8 238.9 84.1 238.6052734375 84.4193359375 238.35 84.6 238.8705078125 84.63984375 239.4 84.7 240.25 84.8 240.5 84.7 240.8 84.65 241.3 84.35 241.95 84.25 242.05 84.7 242.05 84.95 241.75 85.25 241.15 85.8 240.6 85.85 240.55 85.85 239.45 85.7 238.1 85.45 235.95 85.9 235.2072265625 86.0650390625 234.6 86.2 234.779296875 86.2173828125 234.95 86.25 235.85 86.35 235.9 86.9 236 87.25 235.55 87.75 235.05 88.25 235 88.55 236.5 89.15 236.45 89.95 236.4 90.3 236 90.95 235.85 91.3 235.85 92.05 235.6 92.85 235.05 92.6 235.55 94.25 234.95 94.95 234.5 95.45 233.05 95.55 231.1 95.6 228.85 96.2
L 232.1 98.1
Q 233.030078125 98.6115234375 233.5 98.7 235.4177734375 98.3244140625 239.8 97.6 240.1146484375 97.550390625 240.9 97.3 240.634765625 97.294921875 240.35 97.25 240.35 97.1 240.7 97.1 241.401171875 97.0787109375 241.85 97.05 242.4775390625 97.0287109375 242.65 97 243.62109375 96.861328125 244.2 96.35 244.2548828125 96.2951171875 244.3 96.25
L 244.95 95.55
Q 245.4 95.25 247 95.35 247.0830078125 95.3609375 247.15 95.35 250.9640625 94.15 251.75 94.15 252.55 94.15 254.45 95.2 256.3 96.25 256.5 96.25 257.35 96.25 258.6 94.85 259.85 93.4 260.8 93.4 262.35 93.4 263.75 94.15 264.7337890625 94.6818359375 265.2 95.4 265.36328125 95.2744140625 265.55 95.15 270.65 91.9 276.75 91.5 278.55 91.4 282.15 91.45 283.6 91.45 284.3 91.6 284.364453125 91.612890625 284.4 91.6 284.45 91.305078125 284.45 91.1 284.35 89.85 284.4 89.2 284.7 87.7 286.4 87 287 86.75 287.9 86.6 288.4 86.5 289.45 86.35 289.5427734375 86.3345703125 289.6 86.3
L 289.5 86.25
Q 289.3822265625 86.2330078125 289.25 86.2 288.45 86.1 288 85.6 287.644921875 85.2154296875 287.5 84.5 286.8322265625 84.4 286.55 84.4 286.5 84.4 283.9 85.1 281.35 85.75 280.35 85.75 280.85 86.7 281.1 86.8
L 281.1 87.85
Q 279.743359375 88.476171875 276.7 88.95 276.4595703125 89.1822265625 276.1 89.35 275.7 89.5 274.75 89.6 272.407421875 89.73984375 269.6 89.65 267.9263671875 89.75 266.5 89.75 264.55 89.5 264 89.5
L 264 89.15
Q 272.75 87.75 273.5 86.55
L 270.35 86.55
Q 268.7 87 266.85 86.45 266.025 86.1 265.55 85.9
L 263.2 86
Q 262.7634765625 86.0458984375 262.4 86 262.3203125 85.9896484375 262.2 85.95 261.9765625 85.9177734375 261.8 85.8
L 261.05 85.2
Q 260.65 85 260.05 85.1 260 85.1 259.05 85.4 258.6 85.5 257.95 85.55 257 85.65 256.8 85.65 256.3037109375 85.78359375 255.9 85.9 255.2517578125 86.0572265625 254.85 86.15 254.0166015625 86.294921875 253.35 86.2 252.8736328125 86.3080078125 252.35 86.4 249.05 87 248.5 87.3
L 247.4 87.3 247.4 87.05
Q 248.5 86.1 252 85.75 255.55 85.4 256.35 84.75 258.75 82.8 261.3 82.4 261.95 82.3 266 82.3 268.05 82.3 271.75 83.65 275.5 85 276.15 85 276.9 85 279.5 84.35 282.15 83.65 282.5 83.35 282.8013671875 83.07890625 283.35 82 283.273046875 82.076953125 283.25 82.1 282.75 82.45 282.2 82.2 282.15 82.15 282.25 82
L 282.45 81.9
Q 282.7 81.85 283.1 81.45 283.35 81.2 283.7 80.5 284.001171875 80.0857421875 284.3 79.85 285.1009765625 78.35 287.05 78.35 288.2 78.35 289.8 79.05 290.6087890625 79.3966796875 291.35 79.85
L 293.6 78.95
Q 293.787109375 78.830859375 293.95 78.8
L 294.15 78.05
Q 295 76 297.65 74.5 297.7794921875 74.417578125 297.9 74.35 297.6564453125 74.388671875 297.45 74.35 298.5 73.15 300.1 72.35 301.65 71.75 302.45 72.25 302.4849609375 72.2763671875 302.5 72.3 302.9578125 71.6037109375 303.35 70.85 302.857421875 70.7353515625 302.65 70.45 302.4 70.15 302.5 69.15 301.9 69.15 300.2 68.1 298.6640625 67.1513671875 298.3 67.05 298.0978515625 67.2369140625 297.9 67.35 297.55 67.5 296.55 67.65 296.321484375 67.676953125 296.1 67.7 295.605859375 67.8306640625 295.35 68.05 295.25234375 68.13125 295.15 68.25 294.96875 68.4626953125 294.8 68.8 294.7 69.1 294.45 69.7 294.3 70.2 293.9 70.5 293.5 70.85 293.05 70.7
L 293.8 69.3
Q 293.919140625 69.084375 294.05 68.9 292.98203125 69.4927734375 292.5 69.75
L 292.75 69.4
Q 293.35 68.8 297.2 63.9 300.25 60 300.9 60 302 60 303.5 60.5
L 303.5 60.25
Q 303.2 60.05 302.7 59.35 302.4 58.9 302.25 58.6 301.95 59 301.85 59.1 301.8 59.15 301.55 59.15 301.45 59.15 297.85 57.05 296.5064453125 57.05 295.5 57.25 295.3193359375 57.4615234375 295.25 57.6
L 295.05 58.1 294.7 58.65
Q 294.6 58.85 294.45 58.85 294.3 58.9 294.2 58.75 294.1 58.6 294.15 58.45
L 294.45 57.55
Q 293.7427734375 57.8388671875 293.3 58.3 291.85 60.75 290.35 63.1 290.35 62.95 290.2 62.9
L 290.05 62.85 290.05 60.75
Q 290.15 60.35 290.45 58.3 290.65 56.85 291.15 56.25 291.65 55.65 294.25 55.2 296.4 54.85 296.4 53.65 296.4 53.3 296.1 52.35 295.8298828125 51.4623046875 295.5 51
L 293.5 52.2
Q 293 52.5 292.8 52.75 292.55 53.3 292.4 53.55
L 291.85 54.3
Q 291.3 55.4 290.9 55.85 290.5 56.35 289.15 56.95 287.85 57.55 287.45 58.15 287.1 58.75 286.95 58.8 286.45 58.85 286.25 58.9 286 59 285.6 59.5 285.25 59.95 284.9 59.95 285 60.3 284.6 60.5 284.35 60.6 283.85 60.6
L 282.35 60.9
Q 281.85 61 281.65 61.3 281.49453125 61.4943359375 281.5 61.85 281.4888671875 61.9775390625 281.5 62.1 281.5 62.65 281.35 62.9
L 280.8 62.95
Q 280.7029296875 62.78828125 280.65 62.6 280.178515625 63.0111328125 279.75 63.35 279.71640625 63.5599609375 279.5 63.9 279.1 64.55 279 64.65 278.75 64.85 278.3 64.85 277.85 64.9 277.6 64.9 277.05 64.95 276.15 65.45 275.65 65.8 275.4 65.7 275.2 65.35 275.35 64.9 275.5 64.5 275.9 64.3 276 64.25 276.1 64.2
L 276.1 63.35
Q 276.3 63.2 276.85 62.05 277.4 60.85 277.75 60.5
L 277.75 59.4
M 273.15 66.8
L 273.3 66.75 273.4 66.75 273.45 66.8 273.5 66.9 273.55 66.95 273.55 67.05 273.25 67.55 273.2 67.75 272.85 67.7 272.8 67.3 273 66.9 273.1 66.8 273.15 66.8
M 269.4 74.1
Q 270.05 73.75 270.85 73.5 271.55 73.2 271.95 73.25
L 274.2 73.7
Q 274.372265625 73.6 274.6 73.6 275.15 73.6 275.4 73.55
L 275.85 73.6 276.3 73.8
Q 277 74.2 277.7 74.25 277.75 74.3 277.65 74.4 277.65 74.45 277.5 74.45 276.55 74.65 276.15 74.5
L 275.45 74.15
Q 275.05 74.05 274.7 74.2 274.4490234375 74.056640625 274.3 73.85 274.2626953125 73.9185546875 274.2 73.95 273.1 74.35 272.05 73.85 271.75 74.05 270.55 74.3 269.35 74.85 268.75 75.05 267.55 75.45 266.85 75.05 266.75 74.8 267.1 74.8 267.5 74.7 268.4 74.6
L 269.4 74.1
M 278.2 73.85
Q 276.8 74.2 276.45 73.8 277.6 72.95 280.8 72.95 282.05 72.85 282.4 72.6 282.65 72.45 283.05 71.95 283.4 71.5 283.65 71.3 283.95 71.1 285.4 71 287.25 71 288.8 70.65 288.2 71.5 286.1 71.5 284 71.5 283.35 72.25 282.9 73.15 282.5 73.4 282.25 73.6 281.6 73.6 280.45 73.6 279.9 73.6 278.9 73.65 278.2 73.85
M 253 94.2
L 252.9 94.1 252.75 94 252.7 93.95 252.65 93.75 252.85 93.7 253.4 93.9
Q 253.7 94 254.2 94.05
L 254.15 94.25 253 94.2
M 292.3 72.2
L 292.45 72.2
Q 292.6 72.2 292.7 72.4
L 292.5 72.8
Q 292.25 73.4 291.7 73.55 291.6 73.4 291.7 73.15
L 291.85 72.8 292.2 72.25 292.3 72.2 Z"/>

<path fill="#F8EAE9" stroke="none" d="
M 285.4 91.65
Q 285.4 91.84921875 285.35 92 285.82265625 92.271484375 286.1 92.7 286.2806640625 92.941015625 286.4 93.5 286.4951171875 93.3638671875 286.7 93.25 286.9 93.15 287.45 93.15
L 287.65 93.15
Q 289.666015625 89.54921875 290.75 87.1
L 287.8 87.8
Q 286.35 88.25 285.95 88.75 285.55 89.2 285.45 90.1 285.45 90.6 285.4 91.65
M 341.15 90.95
Q 341 91.1 340.45 91.5 340 91.8 339.9 92.1
L 338.75 96.7 338.05 96.65
Q 338.399609375 97.167578125 338.45 97.65 339.2748046875 98.0154296875 341.15 98.9 343.05 99.8 344.4 99.8 345.85 99.8 346.75 98.95 347.05 98.7 347.55 98 348 97.35 348.35 97.05 348.6 96.85 349.15 96.45 349.55 96.05 349.55 95.65 349.5 95.05 348.2 94.4 347.15 93.9 345.35 91.8 343.65 89.9 342.35 89.5 342.055078125 89.4158203125 341.2 89.3 341.6841796875 90.225 341.15 90.95
M 343.7 98.6
Q 343.65 98.4 343.95 98.3 344.25 98.3 344.3 98.1 344.3 97.9 344.1 97.8 343.3 97.35 342.25 97.45
L 341.55 97.55
Q 341.2 97.65 341.05 97.45 340.9 97.05 341.4 96.85 341.5 96.8 342.15 96.8
L 343.25 96.75 344.3 97.05 344.85 97.4
Q 345.05 97.6 345.3 98.15 345.2 98.6 344.85 98.75 344.45 98.9 343.7 98.6
M 325.75 84.6
Q 325.75 84.30625 325.75 84.05
L 325.25 84.05
Q 325.403515625 84.309765625 325.15 84.5 325.053515625 84.596484375 324.55 84.6 324.0166015625 85.680859375 324.05 87.05
L 323.5 87.05
Q 323.106640625 86.558203125 322.25 84.65 321.210546875 84.786328125 320.65 84.7 320.0640625 84.639453125 319.5 84.45 319.55 84.839453125 319.55 85.6 319.55 86.905859375 318.9 87.65 318.7712890625 88.08046875 318.4 88.65 318.162109375 89.0146484375 318 89.3 318 89.502734375 318 89.7 318 90.6 318.6 91 319.27578125 91.450390625 319.5 91.95 320.374609375 92.91875 320.45 94.35 321.2 94.25 321.5 95.05 321.7 95.55 321.6 96.4 321.6 96.8630859375 321.45 97.15 321.5318359375 97.2259765625 321.6 97.3 322.2990234375 98.0921875 322.6 98.75 323.265234375 98.3978515625 323.9 97.95 323.934765625 97.9419921875 323.95 97.9 324.7 95.9 325.1 95.25 325.95 93.75 327.4 93.3 328.146484375 93.096484375 328.35 92.45 328.4052734375 92.23515625 328.45 92
L 328.5 91.8
Q 328.5 91.15 327.4 89.9 326.15 88.55 325.9 87.3 325.7 86.4 325.75 84.6
M 327.95 81.5
Q 328.5765625 81.030078125 329 80.45 328.349609375 80.2212890625 327.5 80.1 324.8 80 323.5 79.75 321.35 79.15 320.2 79 319.87109375 78.9373046875 319.4 78.9 320.4017578125 80.380078125 321.25 82.35 321.5193359375 82.994921875 321.75 83.55 321.805078125 83.552734375 321.85 83.55 322.4 83.5 323.5 83.35 324.4 83.3 324.95 83.7
L 325.25 83.65
Q 325.2755859375 83.626171875 325.3 83.6 325.400390625 83.4830078125 325.7 83.2 326.3859375 82.6646484375 327.95 81.5 Z"/>

<path fill="#767061" stroke="none" d="
M 292.85 82.55
L 292.85 82.5
Q 290.8193359375 83.4466796875 288.6 84.15 288.7677734375 84.558203125 289.05 84.85 289.096875 84.9021484375 289.15 84.95 289.35 85.15 289.8 85.4
L 289.8 85.4 289.9 85.45 290.45 85.8 291.1 85.85
Q 291.179296875 85.867578125 291.25 85.9 291.30234375 85.9060546875 291.35 85.9 291.9537109375 85.7513671875 292.55 85.5 292.5638671875 84.879296875 292.6 84.3 292.684375 83.3228515625 292.85 82.55
M 319.25 45.55
Q 315.4775390625 34.812890625 306.55 28.5 317.9154296875 39.684375 313.3 58.35 311.7373046875 64.7568359375 308.2 69.85 306.827734375 71.89921875 305.1 73.7 305.4240234375 73.7185546875 305.55 73.75 306.25 73.95 307.35 75.25 308.1 76.2 310.5 78.85 310.5572265625 78.9072265625 310.6 78.95 311.5728515625 77.9703125 313.05 76.05 315.1 73.3 316.2 71.2 316.65 70.15 317.25 70.45 316.05 73.5 314.1 76.1
L 312.8 77.9
Q 312.7068359375 78.070703125 312.6 78.2 313.5216796875 78.0166015625 314.5 77.85 314.7595703125 77.6490234375 315.05 77.4 316.3 76.25 318 73.55 319.5 71.1 320.1 69.9 321.15 67.8 321.55 65.95
L 322.55 59.75 322.55 59.75
Q 322.53203125 59.371875 322.7 58.95 322.8744140625 57.24609375 322.65 55.9
L 322.35 53.55
Q 322.2712890625 52.423046875 321.9 51.4 322.630859375 58.184765625 319.7 64.9 322.55 54.9 319.25 45.55 Z"/>

<path fill="#A39469" stroke="none" d="
M 292.4 80.55
Q 291.8283203125 80.9041015625 291.2 81.15 290.1 81.6 289.85 81.7 289.15 82.1 288.8 82.6 288.45 83.15 288.55 83.8 288.5779296875 83.9953125 288.6 84.15 290.96484375 83.0310546875 293.1 81.75
L 293.7 79.65 293.4 79.9
Q 292.923828125 80.262890625 292.4 80.55
M 299.45 24.65
Q 299.0408203125 24.5423828125 298.6 24.45 281 23.7 270.2 37.6 262.05 48 263.05 61.3 263.6162109375 66.6607421875 265.4 71.75
L 266.9 70.65
Q 266.6462890625 70.3236328125 266.45 69.8 266.405078125 69.619921875 266.35 69.4
L 265.95 67.75
Q 265.8009765625 67.0419921875 265.7 66.55 265.55 65.73828125 265.55 65.55 265.4638671875 65.1625 265.55 64.9 265.4705078125 64.7212890625 265.4 64.5 265.303125 64.3583984375 265.3 64.1 264.9859375 63.7009765625 264.9 63.4 264.75 62.8 264.75 62.05 264.65 58.1 265.45 55.55
L 265.75 53.8
Q 265.8166015625 52.40234375 266.05 51.5 266.57421875 48.5244140625 267.7 45.7 270.89375 38.0072265625 278.95 31.6 282.5 28.8 286.9 27.65 291.0896484375 26.45 294.15 26.45 299.3 26.35 302.8 29 304.75 30.5 306.3 33.05 307.3728515625 34.854296875 308.6 37.8 309.7947265625 40.787109375 310.45 43.7 310.498828125 43.651171875 310.55 43.6 310.95 43.2 311.05 42.95
L 311.35 42.45
Q 311.6 42.2 311.85 42.2
L 312.05 42.4
Q 311.5 43.3 311.15 43.7 310.7880859375 44.113671875 310.6 44.35 310.7724609375 45.218359375 310.9 46.05 310.923046875 46.2044921875 310.95 46.35
L 311.05 46.2
Q 311.35 45.8 311.45 45.45
L 311.55 45.05
Q 311.65 44.85 311.85 44.85
L 312 45.05
Q 311.6408203125 46.1724609375 311.05 47.05 311.1353515625 47.7875 311.2 48.5
L 311.45 48.2
Q 311.6 48 311.85 47.9
L 312.05 48.1 311.2 49.1
Q 311.285546875 50.3830078125 311.25 51.6 311.5544921875 51.1794921875 311.9 50.7 312.1 50.5 312.25 50.55
L 312.35 50.75
Q 311.6705078125 51.85859375 311.2 52.5 310.5630859375 62.1349609375 303.65 70.95 303.5142578125 71.144921875 303.35 71.35 302.942578125 71.8447265625 302.55 72.35 302.765234375 72.553515625 303.1 73 303.3013671875 73.2265625 303.45 73.35 304.653515625 72.073828125 305.7 70.7 312.4345703125 61.72265625 313.35 49.3 314.5 34 302.45 26.1
L 302.25 25.85
Q 300.6767578125 24.993359375 299.45 24.65 Z"/>

<path fill="#F89342" stroke="none" d="
M 245.2 96
Q 244.68046875 97.175 243.15 97.4 242.384765625 97.5275390625 240.9 97.3 240.1146484375 97.550390625 239.8 97.6 235.4177734375 98.3244140625 233.5 98.7 233.5650390625 98.74296875 233.6 98.75 234 98.85 234.95 98.85 235.85 98.8 236.3 98.95 236.95 99.15 237.75 99.8 238.9 100.85 239.05 100.95 240.15 101.65 241.7 101.8 245.45 102.4 252.35 101.2 254.25 100.9 254.95 100.3 255.6 99.65 255.75 99.55 256.8 98.95 258.85 100.35
L 259.85 101.1
Q 260.05 99.85 260.55 99.5 260.8 99.3 261.75 99.2
L 262.85 99.15
Q 263.2611328125 99.15 263.5 99.2 263.45 98.9794921875 263.45 98.7 263.45 97.75 263.7 97.05 264.0064453125 96.262109375 265.2 95.4 264.7337890625 94.6818359375 263.75 94.15 262.35 93.4 260.8 93.4 259.85 93.4 258.6 94.85 257.35 96.25 256.5 96.25 256.3 96.25 254.45 95.2 252.55 94.15 251.75 94.15 250.9640625 94.15 247.15 95.35 248.9720703125 95.5802734375 250.55 95.15
L 250.65 95.6
Q 249.7 96.35 247.7 96.05
L 245.8 95.8
Q 245.4912109375 95.92421875 245.2 96
M 252.3 97.35
Q 251.7 97.7 250.65 97.6
L 250.55 97.4
Q 251.05 97.1 252.15 96.85
L 252.4 96.75 252.85 96.75
Q 252.9 96.95 252.65 97.1
L 252.3 97.35
M 257.65 95.9
Q 257.7 95.85 258.1 95.7 259.2 95.6 259.75 95.6 260.2 95.6 260.4 95.7 260.85 95.85 260.95 96.45 261 96.85 260.9 97.45
L 260.75 97.95
Q 260.5 98.45 260 98.6
L 259.25 98.65 257.2 98.6
Q 257.05 98.35 257.05 97.8
L 257.05 96.95 257.1 96.6
Q 257.2 96.45 257.5 96.25 257.6 96.15 257.65 95.9
M 253.55 85.95
Q 254.75 85.55 257.25 85.05
L 259.8 84.5
Q 260.7 84.3 261.15 84.45 261.55 84.6 262.25 85.15 262.9 85.5 264.95 85.25 266.75 84.95 267.5 85.85
L 265.55 85.9
Q 266.025 86.1 266.85 86.45 268.7 87 270.35 86.55
L 273.5 86.55
Q 272.75 87.75 264 89.15
L 264 89.5
Q 264.55 89.5 266.5 89.75 267.9263671875 89.75 269.6 89.65 268.4279296875 89.6251953125 267.15 89.55 267.3 89.05 268.15 89.05 269.65 89 272.65 89.05 275.3 89 277.05 88.4 276.9458984375 88.7123046875 276.7 88.95 279.743359375 88.476171875 281.1 87.85
L 281.1 86.8
Q 280.85 86.7 280.35 85.75 281.35 85.75 283.9 85.1 286.5 84.4 286.55 84.4 286.8322265625 84.4 287.5 84.5 287.4591796875 84.0623046875 287.5 83.45 287.5 82.45 287.75 82 288 81.35 289.15 80.75 289.8 80.4 291.2 79.9
L 291.35 79.85
Q 290.6087890625 79.3966796875 289.8 79.05 288.2 78.35 287.05 78.35 285.1009765625 78.35 284.3 79.85 284.401171875 79.7994140625 284.5 79.75 284.8 79.75 284.65 79.6
L 286.85 79.75 286.9 79.9
Q 286.65 80 286.25 80 285.85 80.05 285.6 80.05 284.75 80.05 284.35 80.4 284.1 80.65 283.8 81.25
L 283.55 81.7
Q 283.41484375 81.8890625 283.35 82 282.8013671875 83.07890625 282.5 83.35 282.15 83.65 279.5 84.35 276.9 85 276.15 85 275.5 85 271.75 83.65 268.05 82.3 266 82.3 261.95 82.3 261.3 82.4 258.75 82.8 256.35 84.75 255.55 85.4 252 85.75 248.5 86.1 247.4 87.05
L 247.4 87.3 248.5 87.3
Q 249.05 87 252.35 86.4 252.8736328125 86.3080078125 253.35 86.2 253.1201171875 86.205078125 252.9 86.15
L 253.55 85.95
M 268 85.3
L 268.05 85.55
Q 268.35 85.6 268.95 85.9
L 269.1 85.95
Q 269.25 86.05 269.35 86.4 268.8 86.5 268.45 86.3
L 268.3 86.2 268.2 86.1
Q 267.85 86.05 267.7 85.95
L 267.7 85.3 268 85.3
M 288.95 46.4
Q 288.4 47.05 288.15 47.25 287.9 47.45 286.15 48.4 284.95 49 282.75 50.85 280.65 52.6 279.3 53.15 278.9 53.35 277.4 53.8 276.25 54.2 275.65 54.6 274.6 55.3 273.1 57.75 272.25 59.25 271.4 59.5 270.8484375 59.5 270.4 59.55 269.8666015625 59.62734375 269.55 59.8 268.95 60.15 268.5 61.6 268.05 63 267.35 63.3 266.98515625 63.409375 266.75 63.45 266.8 63.75 266.7 63.75 266.65 63.75 266.55 63.5 266.198046875 63.6560546875 266.1 63.95 266.05 64.1 266 64.5 265.9826171875 64.5462890625 265.95 64.55 266.070703125 64.5853515625 266.2 64.65 266.35 64.75 266.45 65.05
L 267.4 68.85
Q 267.495703125 69.1373046875 267.55 69.35 270.076953125 68.1330078125 272.75 65.2 274.35 63.4 277.15 59.4
L 277.75 59.4 277.75 60.5
Q 277.4 60.85 276.85 62.05 276.3 63.2 276.1 63.35
L 276.1 64.2
Q 276.3 64.15 276.5 64.15
L 278.35 63.85
Q 278.45 63.4 278.85 63.05 279.15 62.85 279.35 62.9 279.7 62.9 279.8 63.15 279.819140625 63.2263671875 279.75 63.35 280.178515625 63.0111328125 280.65 62.6 280.40390625 61.9951171875 280.6 61.25 280.65 60.8 281.1 60.35 281.85 59.6 283 59.6 283.3 59.55 283.9 59.5 284.15703125 59.4357421875 284.45 59.2 285.2828125 58.4494140625 286.2 57.6 288.8337890625 55.244921875 291.15 53.5
L 291.5 52.9
Q 292.05 51.85 294.25 50.7 295.2 50.2 295.8 50.4 296 50.5 295.9 50.7
L 295.6 50.95 295.5 51
Q 295.8298828125 51.4623046875 296.1 52.35 296.4 53.3 296.4 53.65 296.4 54.85 294.25 55.2 291.65 55.65 291.15 56.25 290.65 56.85 290.45 58.3 290.15 60.35 290.05 60.75
L 290.05 62.85 290.2 62.9
Q 290.35 62.95 290.35 63.1 291.85 60.75 293.3 58.3 293.7427734375 57.8388671875 294.45 57.55
L 294.6 57.2 295.15 56.65
Q 295.45 56.25 295.6 55.85
L 296.35 54.35
Q 296.65 53.95 297.35 53.35 298.2 52.6 299 52.25 299.45 52.05 300.35 51.85 301.5 51.6 301.8 51.5 301.9 51.45 303.55 50.35 304.1 50 305.05 49.55
L 306.75 48.7
Q 307.35 48.4 307.65 48.35 308.15 48.2 308.5 48.25 309 48.25 308.9 48.55 308.35 48.5 307.75 48.9
L 306.75 49.5 306.05 49.75
Q 305.95 49.8 305.25 50.2 304.35 50.55 303.95 50.8 303.15 51.55 302.7 51.9 301.95 52.45 300.6 52.65
L 299.4 52.95 298.55 53.4
Q 297.65 54.05 297.55 54.15 297.35 54.35 296.6 55.45
L 296.25 55.95 296.1 56.5
Q 296.05 56.7 295.7 57.05 295.5923828125 57.1576171875 295.5 57.25 296.5064453125 57.05 297.85 57.05 301.45 59.15 301.55 59.15 301.8 59.15 301.85 59.1 301.95 59 302.25 58.6 302.4 58.9 302.7 59.35 303.2 60.05 303.5 60.25
L 303.5 60.5
Q 302 60 300.9 60 300.25 60 297.2 63.9 293.35 68.8 292.75 69.4
L 292.5 69.75
Q 292.98203125 69.4927734375 294.05 68.9 294.9634765625 67.366015625 295.85 67.1 296.4 66.9 297.45 66.75 297.8 66.6 298.15 66.25 298.4 66.05 298.8 65.6 299.95 64.35 301.7 64.05 302.15 63.95 302.3 64.2 300.5 64.5 299.3 65.95 298.9 66.5 298.65 66.75 298.476171875 66.923828125 298.3 67.05 298.6640625 67.1513671875 300.2 68.1 301.9 69.15 302.5 69.15 302.4 70.15 302.65 70.45 302.857421875 70.7353515625 303.35 70.85 308.5609375 61.565234375 309 51.75 308.7544921875 51.9990234375 308.5 52.05 308.55 51.7 309 51.15
L 309.05 51.05
Q 309.1515625 48.259375 308.85 45.4 308.18671875 44.78828125 307.75 44.55 307.3 44.3 306.5 44.2 305.65 44.15 305.2 44.05 304.55 43.95 303.55 43.55 302.4 43.05 302 42.95 299.1 42.05 296.6 43.75
L 295.5 44.5
Q 294.85 44.95 294.35 45.1 293.75 45.3 292.05 45.2 290.55 45.15 289.8 45.6 289.45 45.8 288.95 46.4 Z"/>

<path fill="#665845" stroke="none" d="
M 303.65 31.1
Q 300.55 27.8 295.15 27.45 291.5927734375 27.269921875 286.9 28.6 274.9439453125 34.5849609375 270 45.6 268.117578125 49.784375 267.25 54.7 266.5421875 58.592578125 266.7 62.5 267.0037109375 62.2828125 267.15 62.1 267.5 61.7 268.05 60.15 268.5 58.9 269.2 58.65 269.65 58.5 270.5 58.5 270.558984375 58.48828125 270.6 58.45 271.301171875 58.287109375 271.9 57.55 272.1 57.25 272.85 56 273.9 54.15 275.6 53.25 276.1 53 277.75 52.45 278.26953125 52.2349609375 278.95 51.85 280.3478515625 47.76953125 281.25 46.25
L 283.25 43
Q 286.05 38 290.95 34.8
L 291.25 35.1
Q 289.55 36.05 286.65 39.15
L 285.1 40.9 282.25 45.55
Q 280.85 48 280.5 48.7 280.0091796875 49.72265625 279.25 51.65 280.3759765625 51.0443359375 281.9 50
L 285.95 47.1
Q 287.15 46.3 287.75 45.75 289.15 44.45 289.85 44.2 290.5 44 291.9 44.1 293.3 44.2 293.9 43.95 294.35 43.8 295.7 42.8 297.25 41.7 299.2 41.45 301.15 41.25 302.9 41.9 303.65 42.15 305.15 42.75 305.8 42.9 307.15 43 307.940234375 43.1755859375 308.6 43.5 308.16015625 40.6744140625 307.35 37.8 306.9912109375 36.976953125 306.6 36.1 305 32.6 303.65 31.1 Z"/>

<path fill="#D7D185" stroke="none" d="
M 328.7 65.65
Q 326.5 65.5 324.15 65.5 323.5376953125 65.3919921875 322.95 65.2
L 322.65 67.1
Q 321.9 70.1 318.9 74.75 318.5001953125 75.3697265625 318.1 75.9 318.2732421875 75.9107421875 318.45 75.95 319.7 76 321.65 75.55 324.15 75.05 324.85 74.95 325.9 74.8 328.05 74.8 328.7873046875 74.7923828125 329.5 74.8 329.5943359375 74.7123046875 329.7 74.6 330.067578125 74.355078125 330.65 74.05 333.55 72.7 336.05 70.4 336.6 69.95 336.85 69.95 336.95 70.15 336.7 70.4 333.795703125 73.257421875 329.85 74.8 338.1494140625 74.7666015625 342.9 75.4 343 75.65 342.6 75.65 340 75.9 336.15 75.8
L 329.9 75.8
Q 329.98125 75.8208984375 330.05 75.85 330.2630859375 75.9630859375 330.5 76.2 335.55 80.75 341.75 83.95 341.3 84.1 340.2 83.55 336.4 81.45 334.5 80.1 331.8943359375 78.3060546875 330.1 76.4 329.8564453125 76.1025390625 329.6 75.8
L 325.2 75.8
Q 324.75 75.85 322.35 76.35 320.0337890625 76.766796875 317.75 76.6 317.6794921875 76.6302734375 317.6 76.6 317.1748046875 77.1759765625 316.75 77.6 317.5439453125 77.5708984375 318.35 77.55 318.3927734375 77.55 318.4 77.55 319.969921875 77.5552734375 320.7 77.75 321.65 77.95 323.5 78.55 324.15 78.65 325.35 78.7 325.71484375 78.7140625 326 78.7
L 322.8 76.35
Q 322.85 76.25 323 76.25
L 323.2 76.35 325.7 78.2
Q 326.11953125 78.4998046875 326.35 78.75 326.9001953125 78.77265625 327.2 78.8 328.613671875 78.94140625 329.7 79.4 331.326171875 80.09921875 332.25 81.5 332.35 81.65 333 82.8 333.4 83.55 333.85 83.95 334.4 84.5 335.5 84.85 336.4509765625 85.160546875 337.15 85.45 338.2671875 85.0474609375 339.6 84.95 341.7 84.55 343.6 83.7 347.65 81.85 351.95 81.4 346.45 75.65 340.2 70.5 335.15 66.3 328.7 65.65
M 325.5 71.65
Q 327.7 68.6 328.05 68.1 328.3 67.75 328.55 67.8 327.65 68.9 326.1 71.3 324.5 73.7 323.6 74.8 323.55 74.6 323.75 74.3
L 325.5 71.65
M 330.6 57.25
Q 328.8 57.35 327.15 57.95 325.5353515625 58.5779296875 323.9 59.05 323.91171875 59.1974609375 323.9 59.35
L 323 64.8
Q 327.552734375 64.1484375 332 65 333.8 65.3 335.45 66.1 336.478515625 66.5447265625 337.45 67.05 342.8150390625 61.9431640625 348.25 56.9 339.45 55.9 330.6 57.25
M 345.65 57.25
Q 345.85 57.4 345.85 57.65
L 342.35 58.3
Q 340.65 58.7 337.35 59.8 334.8 60.65 334.25 60.9 331.85 61.95 331.05 62.15 330.621484375 62.2623046875 330.25 62.35 335.2337890625 62.235546875 340.5 62.55 340.45 62.8 339.9 62.8 333.609375 62.9474609375 328.55 62.9 327.0716796875 63.7166015625 326.2 63.9 326.3 63.7 326.7 63.4
L 327.75 62.75
Q 327.6 62.662109375 327.6 62.45 328.01875 62.4296875 328.45 62.4 329.054296875 62.152734375 331.45 61.3 332.15 61.05 335.1 59.9 337.3 59.05 338.75 58.65 340.6 58.15 343.15 57.7
L 345.65 57.25
M 330.25 58.45
L 331.1 57.65
Q 331.55 57.3 331.75 57.4 331.75 57.6 331.25 58.1 329.5 59.4 328.4 61.45 328.1 62.15 327.65 62.35 327.9 61.25 328.55 60.25 328.95 59.65 330.25 58.45
M 330.85 51.05
Q 330.9 51.25 330.55 51.7 327.45 54.45 324.15 58 324.045703125 58.104296875 323.95 58.2 323.950390625 58.241015625 323.95 58.25 323.9744140625 58.2626953125 324 58.25 325.8 57.3 327.65 56.4 328.692578125 56.137109375 329.7 55.9 329.9056640625 55.489453125 330.3 54.95 331.4 53.45 332.95 49.75 329.4041015625 50.383203125 325.9 51.6
L 325.2 52.15
Q 324.7 52.4 324.6 52.5
L 324.15 52.75
Q 324 52.85 323.65 52.8 323.451953125 52.8 323.3 52.8 323.6974609375 54.68515625 323.9 56.75 323.919921875 57.0091796875 323.9 57.25
L 327.3 53.9
Q 329.6 51.7 330.85 51.05 Z"/>
</g>

<g id="Layer0_0_MEMBER_3_FILL">
<path fill="#3B3D35" stroke="none" d="
M 273.65 147.5
L 273.9 148.05 274.1 148.25
Q 274.2 148.3 274.4 148.3 274.6 148.3 274.75 148.25
L 275.55 147.85
Q 275.8 147.75 276.15 147.75 276.7 147.75 277 148.05 277.25 148.35 277.25 149.05
L 277.25 149.4
Q 276.5 149.45 275.95 149.55 275.35 149.65 274.9 149.75 274.45 149.9 274.15 150.1 273.85 150.3 273.65 150.55 273.5 150.75 273.4 151 273.3 151.25 273.3 151.5 273.3 151.95 273.45 152.3 273.6 152.65 273.85 152.85 274.1 153.1 274.45 153.2 274.8 153.3 275.25 153.3
L 275.9 153.25 276.95 152.8 277.4 152.4 277.55 152.85
Q 277.65 153.05 277.75 153.15 277.85 153.2 278.1 153.2
L 278.8 153.2 278.8 149.05
Q 278.8 148.45 278.65 148 278.5 147.55 278.15 147.2 277.85 146.85 277.4 146.65 276.95 146.5 276.35 146.5 274.75 146.5 273.65 147.5
M 276.1 150.5
Q 276.6 150.4 277.25 150.4
L 277.25 151.5
Q 276.95 151.85 276.55 152.05 276.2 152.2 275.7 152.2 275.35 152.2 275.1 152.05 274.85 151.85 274.85 151.45 274.85 151.2 274.95 151.05 275.1 150.85 275.35 150.75 275.65 150.6 276.1 150.5
M 268.05 146.6
L 266.45 146.6 266.45 150.8
Q 266.45 151.35 266.6 151.8 266.75 152.25 267.05 152.6 267.35 152.95 267.75 153.1 268.15 153.3 268.7 153.3 269.35 153.3 269.85 153.05 270.35 152.8 270.75 152.4
L 270.85 152.9
Q 270.95 153.2 271.25 153.2
L 272.2 153.2 272.2 146.6 270.65 146.6 270.65 151.35
Q 270.3 151.7 269.95 151.9 269.6 152.05 269.2 152.05 268.6 152.05 268.35 151.75 268.05 151.4 268.05 150.8
L 268.05 146.6
M 266.95 133.2
Q 266.2 133.2 265.6 133.45 265 133.7 264.55 134.1 264.15 134.55 263.9 135.2 263.7 135.8 263.7 136.6 263.7 137.4 263.9 138 264.15 138.65 264.55 139.1 265 139.5 265.6 139.75 266.2 140 266.95 140 267.7 140 268.3 139.75 268.9 139.5 269.3 139.1 269.75 138.65 269.95 138 270.2 137.4 270.2 136.6 270.2 135.8 269.95 135.2 269.75 134.55 269.3 134.1 268.9 133.7 268.3 133.45 267.7 133.2 266.95 133.2
M 265.7 135
Q 266.1 134.4 266.95 134.4 267.8 134.4 268.15 135 268.55 135.55 268.55 136.6 268.55 137.65 268.15 138.2 267.8 138.8 266.95 138.8 266.1 138.8 265.7 138.2 265.3 137.65 265.3 136.6 265.3 135.55 265.7 135
M 273.6 134.35
L 274.55 134.55 275.1 134.8 275.25 134.75 275.4 134.6 275.75 134
Q 275.4 133.65 274.85 133.45 274.3 133.2 273.6 133.2 273 133.2 272.5 133.35 272.05 133.55 271.75 133.8 271.45 134.05 271.25 134.45 271.1 134.8 271.1 135.2 271.1 135.65 271.25 135.95 271.4 136.25 271.6 136.5 271.85 136.7 272.15 136.85
L 273.85 137.45
Q 274.1 137.55 274.2 137.7 274.35 137.85 274.35 138.1
L 274.3 138.4
Q 274.25 138.55 274.1 138.65
L 273.75 138.8
Q 273.55 138.9 273.3 138.9 272.9 138.9 272.7 138.8
L 272.3 138.65 271.95 138.45
Q 271.85 138.35 271.7 138.35
L 271.45 138.4 270.9 139.2 271.35 139.5 271.9 139.75 272.55 139.95 273.2 140
Q 273.85 140 274.35 139.85 274.85 139.65 275.15 139.4 275.5 139.1 275.65 138.7 275.85 138.3 275.85 137.8 275.85 137.4 275.7 137.15 275.55 136.85 275.35 136.65 275.1 136.45 274.8 136.3
L 273.1 135.7
Q 272.9 135.6 272.75 135.45 272.6 135.3 272.6 135.1 272.6 134.75 272.9 134.55 273.15 134.35 273.6 134.35
M 262.8 146.7
Q 262.4 146.5 261.8 146.5 261.15 146.5 260.6 146.75 260.1 147 259.7 147.45 259.35 147.95 259.15 148.55 258.95 149.2 258.95 149.9 258.95 150.75 259.1 151.35 259.3 152 259.6 152.4 259.95 152.85 260.4 153.05 260.85 153.3 261.4 153.3 262.05 153.3 262.55 153.05 263.05 152.8 263.4 152.35
L 263.4 155.35 265 155.35 265 146.6 264.05 146.6
Q 263.75 146.6 263.65 146.9
L 263.55 147.25
Q 263.25 146.9 262.8 146.7
M 261 148.25
Q 261.2 147.95 261.5 147.85 261.8 147.7 262.15 147.7 262.5 147.7 262.85 147.85 263.15 147.95 263.4 148.3
L 263.4 151.25
Q 263.1 151.6 262.75 151.85 262.4 152.05 261.95 152.05 261.6 152.05 261.35 151.95 261.1 151.8 260.95 151.55 260.75 151.3 260.7 150.9 260.6 150.5 260.6 149.9 260.6 149.35 260.7 148.95 260.8 148.5 261 148.25
M 252.1 146.5
Q 251.35 146.5 250.75 146.75 250.2 147 249.75 147.45 249.35 147.9 249.15 148.5 248.95 149.1 248.95 149.75 248.95 150.65 249.2 151.3 249.4 151.95 249.85 152.4 250.3 152.85 250.9 153.05 251.5 153.3 252.15 153.3
L 252.9 153.25 253.6 153.05
Q 253.95 152.95 254.3 152.75 254.65 152.5 254.9 152.2
L 254.45 151.65
Q 254.35 151.5 254.15 151.5 254 151.5 253.85 151.6
L 253 152
Q 252.7 152.05 252.3 152.05 251.95 152.05 251.6 151.95 251.3 151.85 251.05 151.6 250.85 151.35 250.7 151 250.55 150.6 250.5 150.1
L 254.6 150.1
Q 254.8 150.1 254.9 149.95 254.95 149.85 254.95 149.5 254.95 148.75 254.75 148.2 254.55 147.65 254.15 147.3 253.75 146.9 253.25 146.7 252.7 146.5 252.1 146.5
M 251.05 148.05
Q 251.45 147.65 252.15 147.65 252.5 147.65 252.75 147.75 253 147.9 253.2 148.1 253.35 148.3 253.45 148.55 253.55 148.85 253.55 149.15
L 250.55 149.15
Q 250.65 148.4 251.05 148.05
M 249.55 134.45
L 249.45 133.7
Q 249.4 133.5 249.3 133.4 249.2 133.3 248.95 133.3
L 248.05 133.3 248.05 139.9 249.6 139.9 249.6 135.85 249.85 135.35 250.15 135
Q 250.3 134.85 250.5 134.8 250.7 134.7 251 134.7
L 251.65 134.8 251.8 134.75 251.9 134.55 252 133.4
Q 251.75 133.2 251.25 133.2 250.7 133.2 250.25 133.5 249.85 133.85 249.55 134.45
M 260.45 131.3
Q 260.35 131.3 260.25 131.35 260.15 131.4 260.1 131.55
L 259.8 133.35 258.7 133.55 258.7 134.15
Q 258.7 134.3 258.8 134.4 258.9 134.5 259.05 134.5
L 259.7 134.5 259.7 138.2
Q 259.7 139.05 260.15 139.5 260.6 140 261.5 140 261.95 140 262.4 139.85 262.85 139.7 263.2 139.4
L 262.75 138.65 262.65 138.55 262.5 138.5 262.1 138.7 261.85 138.75
Q 261.6 138.75 261.45 138.55 261.3 138.35 261.3 138.05
L 261.3 134.5 263.05 134.5 263.05 133.35 261.3 133.35 261.3 131.3 260.45 131.3
M 253.4 135
Q 253.6 135 253.75 134.95
L 254.55 134.55
Q 254.8 134.45 255.15 134.45 255.7 134.45 256 134.75 256.25 135.05 256.25 135.75
L 256.25 136.1
Q 255.5 136.15 254.95 136.25 254.35 136.35 253.9 136.45 253.45 136.6 253.15 136.8 252.85 137 252.65 137.25 252.5 137.45 252.4 137.7 252.3 137.95 252.3 138.2 252.3 138.65 252.45 139 252.6 139.35 252.85 139.55 253.1 139.8 253.45 139.9 253.8 140 254.25 140
L 254.9 139.95 255.95 139.5 256.4 139.1 256.55 139.55
Q 256.65 139.75 256.75 139.85 256.85 139.9 257.1 139.9
L 257.8 139.9 257.8 135.75
Q 257.8 135.15 257.65 134.7 257.5 134.25 257.15 133.9 256.85 133.55 256.4 133.35 255.95 133.2 255.35 133.2 253.75 133.2 252.65 134.2
L 252.9 134.75 253.1 134.95
Q 253.2 135 253.4 135
M 256.25 137.1
L 256.25 138.2
Q 255.95 138.55 255.55 138.75 255.2 138.9 254.7 138.9 254.35 138.9 254.1 138.75 253.85 138.55 253.85 138.15 253.85 137.9 253.95 137.75 254.1 137.55 254.35 137.45 254.65 137.3 255.1 137.2 255.6 137.1 256.25 137.1
M 317.25 146.75
Q 316.75 147 316.35 147.45 316 147.95 315.8 148.55 315.6 149.2 315.6 149.9 315.6 150.75 315.75 151.35 315.95 152 316.25 152.4 316.6 152.85 317.05 153.05 317.5 153.3 318.05 153.3 318.7 153.3 319.25 153 319.75 152.75 320.15 152.3
L 320.3 152.9
Q 320.35 153.2 320.7 153.2
L 321.65 153.2 321.65 143.65 320.05 143.65 320.05 147.1
Q 319.75 146.85 319.4 146.65 319 146.5 318.45 146.5 317.8 146.5 317.25 146.75
M 317.65 148.25
Q 317.85 147.95 318.15 147.85 318.45 147.7 318.8 147.7 319.15 147.7 319.5 147.85 319.8 147.95 320.05 148.3
L 320.05 151.25
Q 319.75 151.6 319.4 151.85 319.05 152.05 318.6 152.05 318.25 152.05 318 151.95 317.75 151.8 317.6 151.55 317.4 151.3 317.35 150.9 317.25 150.5 317.25 149.9 317.25 149.35 317.35 148.95 317.45 148.5 317.65 148.25
M 309.35 147.5
L 309.6 148.05 309.8 148.25
Q 309.9 148.3 310.1 148.3 310.3 148.3 310.45 148.25
L 311.25 147.85
Q 311.5 147.75 311.85 147.75 312.4 147.75 312.7 148.05 312.95 148.35 312.95 149.05
L 312.95 149.4
Q 312.2 149.45 311.65 149.55 311.05 149.65 310.6 149.75 310.15 149.9 309.85 150.1 309.55 150.3 309.35 150.55 309.2 150.75 309.1 151 309 151.25 309 151.5 309 151.95 309.15 152.3 309.3 152.65 309.55 152.85 309.8 153.1 310.15 153.2 310.5 153.3 310.95 153.3
L 311.6 153.25 312.65 152.8 313.1 152.4 313.25 152.85
Q 313.35 153.05 313.45 153.15 313.55 153.2 313.8 153.2
L 314.5 153.2 314.5 149.05
Q 314.5 148.45 314.35 148 314.2 147.55 313.85 147.2 313.55 146.85 313.1 146.65 312.65 146.5 312.05 146.5 310.45 146.5 309.35 147.5
M 311.8 150.5
Q 312.3 150.4 312.95 150.4
L 312.95 151.5
Q 312.65 151.85 312.25 152.05 311.9 152.2 311.4 152.2 311.05 152.2 310.8 152.05 310.55 151.85 310.55 151.45 310.55 151.2 310.65 151.05 310.8 150.85 311.05 150.75 311.35 150.6 311.8 150.5
M 306.15 146.5
Q 305.35 146.5 304.75 146.75 304.15 147 303.75 147.45 303.35 147.9 303.15 148.55 302.95 149.15 302.95 149.9 302.95 150.7 303.15 151.35 303.4 151.95 303.8 152.4 304.2 152.85 304.75 153.05 305.3 153.3 305.9 153.3
L 306.6 153.25
Q 306.95 153.2 307.3 153.05 307.6 152.95 307.9 152.75 308.25 152.5 308.5 152.2
L 308.05 151.65
Q 307.95 151.5 307.75 151.5 307.6 151.5 307.5 151.6
L 307.2 151.8 306.8 152
Q 306.55 152.1 306.2 152.1 305.8 152.1 305.5 151.95 305.2 151.8 305 151.5 304.8 151.25 304.65 150.85 304.55 150.4 304.55 149.9 304.55 149.4 304.65 149 304.75 148.6 304.95 148.3 305.2 148 305.5 147.85 305.8 147.7 306.25 147.7 306.55 147.7 306.8 147.8
L 307.65 148.2 307.85 148.15 308 148 308.45 147.4
Q 308 147 307.45 146.75 306.85 146.5 306.15 146.5
M 307.5 133.45
Q 306.9 133.7 306.45 134.1 306.05 134.55 305.8 135.2 305.6 135.8 305.6 136.6 305.6 137.4 305.8 138 306.05 138.65 306.45 139.1 306.9 139.5 307.5 139.75 308.1 140 308.85 140 309.6 140 310.2 139.75 310.8 139.5 311.2 139.1 311.65 138.65 311.85 138 312.1 137.4 312.1 136.6 312.1 135.8 311.85 135.2 311.65 134.55 311.2 134.1 310.8 133.7 310.2 133.45 309.6 133.2 308.85 133.2 308.1 133.2 307.5 133.45
M 308.85 134.4
Q 309.7 134.4 310.05 135 310.45 135.55 310.45 136.6 310.45 137.65 310.05 138.2 309.7 138.8 308.85 138.8 308 138.8 307.6 138.2 307.2 137.65 307.2 136.6 307.2 135.55 307.6 135 308 134.4 308.85 134.4
M 322.15 133.3
L 320.55 133.3 320.55 139.9 322.15 139.9 322.15 133.3
M 322.35 131.4
Q 322.35 131.15 322.25 131
L 322.05 130.65 321.7 130.45
Q 321.55 130.35 321.3 130.35 321.1 130.35 320.95 130.45
L 320.6 130.65 320.4 131
Q 320.3 131.15 320.3 131.4 320.3 131.6 320.4 131.75
L 320.6 132.1 320.95 132.3
Q 321.1 132.4 321.3 132.4 321.55 132.4 321.7 132.3
L 322.05 132.1 322.25 131.75
Q 322.35 131.6 322.35 131.4
M 314.75 134.1
L 314.65 133.6
Q 314.55 133.3 314.25 133.3
L 313.3 133.3 313.3 139.9 314.85 139.9 314.85 135.15
Q 315.2 134.8 315.55 134.6 315.9 134.45 316.3 134.45 316.9 134.45 317.15 134.75 317.45 135.1 317.45 135.7
L 317.45 139.9 319.05 139.9 319.05 135.7
Q 319.05 135.15 318.9 134.7 318.75 134.25 318.45 133.9 318.2 133.55 317.75 133.4 317.35 133.2 316.8 133.2
L 316.2 133.25 315.65 133.45 314.75 134.1
M 293.95 146.6
L 292.35 146.6 292.35 153.2 293.95 153.2 293.95 146.6
M 301.75 146.6
L 300.15 146.6 300.15 153.2 301.75 153.2 301.75 146.6
M 301.95 144.7
Q 301.95 144.45 301.85 144.3
L 301.65 143.95 301.3 143.75
Q 301.15 143.65 300.9 143.65 300.7 143.65 300.55 143.75
L 300.2 143.95 300 144.3
Q 299.9 144.45 299.9 144.7 299.9 144.9 300 145.05
L 300.2 145.4 300.55 145.6
Q 300.7 145.7 300.9 145.7 301.15 145.7 301.3 145.6
L 301.65 145.4 301.85 145.05
Q 301.95 144.9 301.95 144.7
M 297.4 143.9
Q 296.9 144.1 296.6 144.4 296.3 144.7 296.1 145.15 295.95 145.6 295.95 146.15
L 295.95 146.65 294.95 146.65 294.95 147.3
Q 294.95 147.5 295.1 147.6 295.2 147.65 295.4 147.7
L 295.95 147.8 295.95 153.2 297.55 153.2 297.55 147.8 299.2 147.8 299.2 146.65 297.5 146.65 297.5 146.2
Q 297.5 145.85 297.55 145.6 297.65 145.35 297.8 145.2 297.95 145.05 298.15 145
L 298.7 144.95 298.9 144.95 299.05 144.9 299.2 144.8 299.25 144.65 299.25 143.85
Q 298.85 143.75 298.4 143.75 297.85 143.75 297.4 143.9
M 292.2 145.05
L 292.4 145.4 292.75 145.6
Q 292.9 145.7 293.1 145.7 293.35 145.7 293.5 145.6
L 293.85 145.4 294.05 145.05
Q 294.15 144.9 294.15 144.7 294.15 144.45 294.05 144.3
L 293.85 143.95 293.5 143.75
Q 293.35 143.65 293.1 143.65 292.9 143.65 292.75 143.75
L 292.4 143.95 292.2 144.3
Q 292.1 144.45 292.1 144.7 292.1 144.9 292.2 145.05
M 284.75 146.7
Q 284.35 146.5 283.8 146.5
L 283.2 146.55 282.65 146.75 281.75 147.4 281.65 146.9
Q 281.55 146.6 281.25 146.6
L 280.3 146.6 280.3 153.2 281.85 153.2 281.85 148.45
Q 282.2 148.1 282.55 147.9 282.9 147.75 283.3 147.75 283.9 147.75 284.15 148.05 284.45 148.4 284.45 149
L 284.45 153.2 286.05 153.2 286.05 149
Q 286.05 148.45 285.9 148 285.75 147.55 285.45 147.2 285.2 146.85 284.75 146.7
M 288.45 144.65
Q 288.35 144.7 288.3 144.85
L 288 146.65 286.9 146.85 286.9 147.45
Q 286.9 147.6 287 147.7 287.1 147.8 287.25 147.8
L 287.9 147.8 287.9 151.5
Q 287.9 152.35 288.35 152.8 288.8 153.3 289.7 153.3 290.15 153.3 290.6 153.15 291.05 153 291.4 152.7
L 290.95 151.95 290.85 151.85 290.7 151.8 290.3 152 290.05 152.05
Q 289.8 152.05 289.65 151.85 289.5 151.65 289.5 151.35
L 289.5 147.8 291.25 147.8 291.25 146.65 289.5 146.65 289.5 144.6 288.65 144.6
Q 288.55 144.6 288.45 144.65
M 287.25 134.2
L 287.5 134.75 287.7 134.95
Q 287.8 135 288 135 288.2 135 288.35 134.95
L 289.15 134.55
Q 289.4 134.45 289.75 134.45 290.3 134.45 290.6 134.75 290.85 135.05 290.85 135.75
L 290.85 136.1
Q 290.1 136.15 289.55 136.25 288.95 136.35 288.5 136.45 288.05 136.6 287.75 136.8 287.45 137 287.25 137.25 287.1 137.45 287 137.7 286.9 137.95 286.9 138.2 286.9 138.65 287.05 139 287.2 139.35 287.45 139.55 287.7 139.8 288.05 139.9 288.4 140 288.85 140
L 289.5 139.95 290.55 139.5 291 139.1 291.15 139.55
Q 291.25 139.75 291.35 139.85 291.45 139.9 291.7 139.9
L 292.4 139.9 292.4 135.75
Q 292.4 135.15 292.25 134.7 292.1 134.25 291.75 133.9 291.45 133.55 291 133.35 290.55 133.2 289.95 133.2 288.35 133.2 287.25 134.2
M 290.15 138.75
Q 289.8 138.9 289.3 138.9 288.95 138.9 288.7 138.75 288.45 138.55 288.45 138.15 288.45 137.9 288.55 137.75 288.7 137.55 288.95 137.45 289.25 137.3 289.7 137.2 290.2 137.1 290.85 137.1
L 290.85 138.2
Q 290.55 138.55 290.15 138.75
M 285.95 135.1
Q 285.8 134.5 285.5 134.05 285.15 133.65 284.7 133.4 284.25 133.2 283.7 133.2 283 133.2 282.5 133.45 282 133.75 281.6 134.2
L 281.45 133.6
Q 281.35 133.3 281.05 133.3
L 280.1 133.3 280.1 142.05 281.65 142.05 281.65 139.35
Q 282 139.65 282.35 139.8 282.75 140 283.3 140 283.95 140 284.5 139.75 285 139.45 285.4 139 285.75 138.55 285.95 137.9 286.15 137.3 286.15 136.55 286.15 135.75 285.95 135.1
M 283.75 134.55
Q 284 134.65 284.15 134.9 284.35 135.15 284.4 135.55 284.5 135.95 284.5 136.55 284.5 137.15 284.4 137.55 284.3 137.95 284.1 138.25 283.9 138.5 283.6 138.65 283.3 138.8 282.95 138.8 282.6 138.8 282.25 138.65 281.95 138.5 281.65 138.2
L 281.65 135.25
Q 282 134.85 282.35 134.65 282.7 134.45 283.15 134.45 283.5 134.45 283.75 134.55
M 302.6 133.7
Q 302.55 133.5 302.45 133.4 302.35 133.3 302.1 133.3
L 301.2 133.3 301.2 139.9 302.75 139.9 302.75 135.85 303 135.35 303.3 135
Q 303.45 134.85 303.65 134.8 303.85 134.7 304.15 134.7
L 304.8 134.8 304.95 134.75 305.05 134.55 305.15 133.4
Q 304.9 133.2 304.4 133.2 303.85 133.2 303.4 133.5 303 133.85 302.7 134.45
L 302.6 133.7
M 294.3 134.15
Q 293.95 134.65 293.75 135.25 293.55 135.9 293.55 136.6 293.55 137.45 293.7 138.05 293.9 138.7 294.2 139.1 294.55 139.55 295 139.75 295.45 140 296 140 296.65 140 297.2 139.7 297.7 139.45 298.1 139
L 298.25 139.6
Q 298.3 139.9 298.65 139.9
L 299.6 139.9 299.6 130.35 298 130.35 298 133.8
Q 297.7 133.55 297.35 133.35 296.95 133.2 296.4 133.2 295.75 133.2 295.2 133.45 294.7 133.7 294.3 134.15
M 295.3 135.65
Q 295.4 135.2 295.6 134.95 295.8 134.65 296.1 134.55 296.4 134.4 296.75 134.4 297.1 134.4 297.45 134.55 297.75 134.65 298 135
L 298 137.95
Q 297.7 138.3 297.35 138.55 297 138.75 296.55 138.75 296.2 138.75 295.95 138.65 295.7 138.5 295.55 138.25 295.35 138 295.3 137.6 295.2 137.2 295.2 136.6 295.2 136.05 295.3 135.65
M 242.65 134.15
Q 242.65 134.3 242.75 134.4 242.85 134.5 243 134.5
L 243.65 134.5 243.65 138.2
Q 243.65 139.05 244.1 139.5 244.55 140 245.45 140 245.9 140 246.35 139.85 246.8 139.7 247.15 139.4
L 246.7 138.65 246.6 138.55 246.45 138.5 246.05 138.7 245.8 138.75
Q 245.55 138.75 245.4 138.55 245.25 138.35 245.25 138.05
L 245.25 134.5 247 134.5 247 133.35 245.25 133.35 245.25 131.3 244.4 131.3
Q 244.3 131.3 244.2 131.35 244.1 131.4 244.05 131.55
L 243.75 133.35 242.65 133.55 242.65 134.15
M 237.8 133.5
L 237.65 133.35 237.4 133.3 235.9 133.3 238.05 136.5 235.8 139.9 237.2 139.9
Q 237.35 139.9 237.45 139.8
L 237.65 139.6 238.9 137.7 238.95 137.5 239.05 137.3 240.45 139.6 240.6 139.8
Q 240.7 139.9 240.9 139.9
L 242.4 139.9 240.15 136.45 242.35 133.3 240.85 133.3
Q 240.65 133.3 240.5 133.55
L 239.4 135.3 239.2 135.7 237.8 133.5
M 234.35 135.9
L 234.35 134.55 231.1 134.55 231.1 132 235.25 132 235.25 130.6 229.4 130.6 229.4 139.9 235.25 139.9 235.25 138.5 231.1 138.5 231.1 135.9 234.35 135.9
M 354.75 134.6
L 355.1 134
Q 354.75 133.65 354.2 133.45 353.65 133.2 352.95 133.2 352.35 133.2 351.85 133.35 351.4 133.55 351.1 133.8 350.8 134.05 350.6 134.45 350.45 134.8 350.45 135.2 350.45 135.65 350.6 135.95 350.75 136.25 350.95 136.5 351.2 136.7 351.5 136.85
L 353.2 137.45
Q 353.45 137.55 353.55 137.7 353.7 137.85 353.7 138.1
L 353.65 138.4
Q 353.6 138.55 353.45 138.65
L 353.1 138.8
Q 352.9 138.9 352.65 138.9 352.25 138.9 352.05 138.8
L 351.65 138.65 351.3 138.45
Q 351.2 138.35 351.05 138.35
L 350.8 138.4 350.25 139.2 350.7 139.5 351.25 139.75 351.9 139.95 352.55 140
Q 353.2 140 353.7 139.85 354.2 139.65 354.5 139.4 354.85 139.1 355 138.7 355.2 138.3 355.2 137.8 355.2 137.4 355.05 137.15 354.9 136.85 354.7 136.65 354.45 136.45 354.15 136.3
L 352.45 135.7
Q 352.25 135.6 352.1 135.45 351.95 135.3 351.95 135.1 351.95 134.75 352.25 134.55 352.5 134.35 352.95 134.35
L 353.9 134.55 354.45 134.8 354.6 134.75 354.75 134.6
M 334.05 146.75
Q 333.5 146.5 332.8 146.5 332.2 146.5 331.7 146.65 331.25 146.85 330.95 147.1 330.65 147.35 330.45 147.75 330.3 148.1 330.3 148.5 330.3 148.95 330.45 149.25 330.6 149.55 330.8 149.8 331.05 150 331.35 150.15
L 333.05 150.75
Q 333.3 150.85 333.4 151 333.55 151.15 333.55 151.4
L 333.5 151.7
Q 333.45 151.85 333.3 151.95
L 332.95 152.1
Q 332.75 152.2 332.5 152.2 332.1 152.2 331.9 152.1
L 331.5 151.95 331.15 151.75
Q 331.05 151.65 330.9 151.65
L 330.65 151.7 330.1 152.5 330.55 152.8 331.1 153.05 331.75 153.25 332.4 153.3
Q 333.05 153.3 333.55 153.15 334.05 152.95 334.35 152.7 334.7 152.4 334.85 152 335.05 151.6 335.05 151.1 335.05 150.7 334.9 150.45 334.75 150.15 334.55 149.95 334.3 149.75 334 149.6
L 332.3 149
Q 332.1 148.9 331.95 148.75 331.8 148.6 331.8 148.4 331.8 148.05 332.1 147.85 332.35 147.65 332.8 147.65
L 333.75 147.85 334.3 148.1 334.45 148.05 334.6 147.9 334.95 147.3
Q 334.6 146.95 334.05 146.75
M 328.5 147.4
Q 328.1 147 327.5 146.75 326.9 146.5 326.15 146.5 325.4 146.5 324.8 146.75 324.2 147 323.75 147.4 323.35 147.85 323.1 148.5 322.9 149.1 322.9 149.9 322.9 150.7 323.1 151.3 323.35 151.95 323.75 152.4 324.2 152.8 324.8 153.05 325.4 153.3 326.15 153.3 326.9 153.3 327.5 153.05 328.1 152.8 328.5 152.4 328.95 151.95 329.15 151.3 329.4 150.7 329.4 149.9 329.4 149.1 329.15 148.5 328.95 147.85 328.5 147.4
M 324.9 148.3
Q 325.3 147.7 326.15 147.7 327 147.7 327.35 148.3 327.75 148.85 327.75 149.9 327.75 150.95 327.35 151.5 327 152.1 326.15 152.1 325.3 152.1 324.9 151.5 324.5 150.95 324.5 149.9 324.5 148.85 324.9 148.3
M 328.45 133.95
L 328.45 133.3 323.45 133.3 323.45 134.5 326.65 134.5 323.5 138.7 323.35 139 323.3 139.25 323.3 139.9 328.35 139.9 328.35 138.7 325.15 138.7 328.25 134.55 328.4 134.3 328.45 133.95
M 343.9 134.1
Q 343.5 134.55 343.25 135.2 343.05 135.8 343.05 136.6 343.05 137.4 343.25 138 343.5 138.65 343.9 139.1 344.35 139.5 344.95 139.75 345.55 140 346.3 140 347.05 140 347.65 139.75 348.25 139.5 348.65 139.1 349.1 138.65 349.3 138 349.55 137.4 349.55 136.6 349.55 135.8 349.3 135.2 349.1 134.55 348.65 134.1 348.25 133.7 347.65 133.45 347.05 133.2 346.3 133.2 345.55 133.2 344.95 133.45 344.35 133.7 343.9 134.1
M 345.05 135
Q 345.45 134.4 346.3 134.4 347.15 134.4 347.5 135 347.9 135.55 347.9 136.6 347.9 137.65 347.5 138.2 347.15 138.8 346.3 138.8 345.45 138.8 345.05 138.2 344.65 137.65 344.65 136.6 344.65 135.55 345.05 135
M 338.6 133.2
Q 337.95 133.2 337.4 133.45 336.9 133.7 336.5 134.15 336.15 134.65 335.95 135.25 335.75 135.9 335.75 136.6 335.75 137.45 335.9 138.05 336.1 138.7 336.4 139.1 336.75 139.55 337.2 139.75 337.65 140 338.2 140 338.85 140 339.4 139.7 339.9 139.45 340.3 139
L 340.45 139.6
Q 340.5 139.9 340.85 139.9
L 341.8 139.9 341.8 130.35 340.2 130.35 340.2 133.8
Q 339.9 133.55 339.55 133.35 339.15 133.2 338.6 133.2
M 338.3 134.55
Q 338.6 134.4 338.95 134.4 339.3 134.4 339.65 134.55 339.95 134.65 340.2 135
L 340.2 137.95
Q 339.9 138.3 339.55 138.55 339.2 138.75 338.75 138.75 338.4 138.75 338.15 138.65 337.9 138.5 337.75 138.25 337.55 138 337.5 137.6 337.4 137.2 337.4 136.6 337.4 136.05 337.5 135.65 337.6 135.2 337.8 134.95 338 134.65 338.3 134.55
M 334.65 135.75
Q 334.65 135.15 334.5 134.7 334.35 134.25 334 133.9 333.7 133.55 333.25 133.35 332.8 133.2 332.2 133.2 330.6 133.2 329.5 134.2
L 329.75 134.75 329.95 134.95
Q 330.05 135 330.25 135 330.45 135 330.6 134.95
L 331.4 134.55
Q 331.65 134.45 332 134.45 332.55 134.45 332.85 134.75 333.1 135.05 333.1 135.75
L 333.1 136.1
Q 332.35 136.15 331.8 136.25 331.2 136.35 330.75 136.45 330.3 136.6 330 136.8 329.7 137 329.5 137.25 329.35 137.45 329.25 137.7 329.15 137.95 329.15 138.2 329.15 138.65 329.3 139 329.45 139.35 329.7 139.55 329.95 139.8 330.3 139.9 330.65 140 331.1 140
L 331.75 139.95 332.8 139.5 333.25 139.1 333.4 139.55
Q 333.5 139.75 333.6 139.85 333.7 139.9 333.95 139.9
L 334.65 139.9 334.65 135.75
M 333.1 138.2
Q 332.8 138.55 332.4 138.75 332.05 138.9 331.55 138.9 331.2 138.9 330.95 138.75 330.7 138.55 330.7 138.15 330.7 137.9 330.8 137.75 330.95 137.55 331.2 137.45 331.5 137.3 331.95 137.2 332.45 137.1 333.1 137.1
L 333.1 138.2 Z"/>
</g>
</defs>

<g transform="matrix( 1.07159423828125, 0, 0, 0.802642822265625, -22.4,-15.4) ">
<use xlink:href="#Layer0_0_MEMBER_0_FILL"/>
</g>

<g transform="matrix( 1.07159423828125, 0, 0, 1.07159423828125, -22.4,-7.8) ">
<use xlink:href="#Layer0_0_MEMBER_1_FILL"/>
</g>

<g transform="matrix( 1, 0, 0, 1, -217.55,-9.65) ">
<use xlink:href="#Layer0_0_MEMBER_2_FILL"/>
</g>

<g transform="matrix( 1, 0, 0, 1, -217.55,-9.65) ">
<use xlink:href="#Layer0_0_MEMBER_3_FILL"/>
</g>
</svg>
