
<svg xmlns="http://www.w3.org/2000/svg" version="1.1" xmlns:xlink="http://www.w3.org/1999/xlink" preserveAspectRatio="none" x="0px" y="0px" width="149px" height="152px" viewBox="0 0 149 152">
<defs>
<g id="Layer0_0_FILL">
<path fill="#B8BE79" stroke="none" d="
M 165.65 120.75
L 165.65 10.15 17.95 10.15 17.95 29.1
Q 17.8326171875 29.1337890625 17.8 29.15 17.644921875 29.26640625 17.55 29.45
L 17.55 31.5 17.75 32.2
Q 17.8232421875 32.4927734375 17.95 32.7
L 17.95 63.55
Q 17.750390625 63.8138671875 17.55 64.05
L 17.55 65.5
Q 17.747265625 65.40078125 17.95 65.25
L 17.95 120.75 165.65 120.75 Z"/>
</g>

<g id="Layer0_1_FILL">
<path fill="#E1C99B" stroke="none" d="
M 21.5 111.85
L 21.5 148.6 159.35 148.6 159.35 111.85 21.5 111.85 Z"/>
</g>

<g id="Layer0_2_FILL">
<path fill="#3B3D35" stroke="none" d="
M 116.95 193.05
Q 114.05 193.1 109 194.75
L 95.15 199.05
Q 94.87578125 199.05 94.55 199.05 93.25 199.2 93 199.25 92.5 199.45 91.6 200.15
L 91.55 200.15 78.55 204.2
Q 77.09296875 204.1951171875 76.25 204.55 75.7224609375 204.784375 75.15 205.3
L 60.55 209.85
Q 58.246484375 209.006640625 56.55 210.8 56.3634765625 211.0025390625 56.2 211.2
L 55.1 211.55
Q 49 213.4 46.6 213.95 45.260546875 214.2767578125 43.15 214.7 42.0734375 214.5 40.95 214.5
L 37.9 214.85
Q 37.173046875 215.375 36.7 216 35.5732421875 216.234765625 34.85 216.4 28.45 217.85 25.8 220.8 25 221.7 24.85 222.75 24.801171875 223.0556640625 24.8 223.3
L 24.8 223.3
Q 24.25 224.75 26.2 226.75 36.6 238.1 51.2 251.55 54.9 254.9 57.35 255.9 59.7 256.8 63.65 256.8 66.096484375 256.7451171875 68.25 256.4
L 67.1 257.5
Q 67.1 257.65 67.05 257.8 66.7 259.15 66.55 261.05 66.3 265.05 69.1 267.8 69.85 268.5 70.85 268.85 73.1 269.55 75.5 269.25 76.25 269.15 76.95 268.9 79.391796875 268.1353515625 81.65 267
L 85.65 264.65
Q 85.7 265.2 85.75 265.75 86.15 268.55 88.6 269.75 89.604296875 270.254296875 90.75 270.55 92.15 270.95 95.05 271.05 97.85 271.15 99.15 270.7 100.45 270.25 101.85 269.1 104.4 267.15 105.65 266.2 107.346875 264.880078125 108.7 263.95 108.728125 265.1015625 109 265.6 109.3095703125 266.0865234375 109.85 266.5 111.6703125 268.082421875 113.95 268.65 114.526953125 268.8140625 115.1 268.9 121 269.65 126.55 267.75 129.2 266.75 131.8 265.8 132.4263671875 265.5873046875 133.05 265.4 134.3 264.95 135.65 264.7 142.15 262.95 142.45 256.25 142.4791015625 256.223828125 142.45 256.15 142.5552734375 255.1375 142.45 254.05 142.15 251.45 140.4 249.95 139.05 248.75 137.1 248.75 131.55 248.7 126.1 250.05 123.80546875 250.567578125 122.15 251.1 122.2310546875 250.91640625 122.3 250.7 122.75 249.45 122.75 246.4 122.75 244.78984375 122.45 243.85 122.3474609375 243.5046875 122.2 243.25 121.65 242.35 119.8 241.55 119.5150390625 241.4431640625 119.2 241.3 141.59453125 235.295703125 153.45 230.45 156.8 229.05 158 227.65 158.95 226.55 159.1 225.15 159.1400390625 224.5685546875 159 224.05 159.0353515625 224.0052734375 159.05 223.95 159.2 223 158.9 222.05 158.4 220.5 156.7 219 154.95 217.35 151.9 215.35 147.3 212.35 146.85 212 145.35 210.95 135.75 202.4 129.05 196.45 123.7 194.4 120.3 193.05 116.95 193.05
M 111.2 197.65
Q 110.95 197.4 110.7 197.4 110.25 197.4 110.35 197.75
L 112.65 199.75
Q 113.458984375 200.5291015625 114.15 201.05 113.8650390625 201.623046875 113.55 202.4 113.45 202.55 112.8 203.5 112.7072265625 203.6443359375 112.6 203.75 112.1865234375 203.5365234375 111.8 203.4 111.64140625 203.1818359375 111.5 202.95 110.65 201.5 110.55 201.4 110.294140625 201.0587890625 110 200.8 109.6513671875 200.493359375 109.25 200.35 109.5 200.75 110.35 202.3 110.7126953125 202.99765625 111.05 203.5 110.8 203.85 111.4 204.35 111.7498046875 204.61640625 112.05 204.85 111.95 205.3861328125 111.95 206.05
L 112.45 205.15
Q 112.5818359375 205.237890625 112.7 205.3 113.2345703125 205.754296875 113.85 206.15 113.977734375 206.2287109375 114.1 206.3 114.6966796875 206.7021484375 115.25 207.05 116.75 208.05 117.7 208.25 118.4 208.4 120.35 208.3 121.3568359375 208.2408203125 122 207.95 122.772265625 207.803125 123.15 207.35 122.926953125 207.448046875 122.65 207.5
L 122.7 207.5
Q 122.7 207.3431640625 122.6 207.2 122.47578125 207.0603515625 122.2 206.95 121.95 206.9 121.4 207 120.0779296875 207.23828125 118.8 207.05 117.8267578125 206.90546875 116.85 206.5 116.2267578125 206.2375 115.6 205.85 115.35 205.7 113.75 204.5 113.412890625 204.2546875 113.1 204.05
L 114.6 201.45
Q 114.6220703125 201.4080078125 114.65 201.35 114.8525390625 201.496484375 115.05 201.6 115.85 202.05 117.85 202.7 121.95 203.9 123.95 202.8 124.7 202.45 124.3 202.05 123.45 202.65 122.1 202.65 121.25 202.65 119.65 202.35 117.8 201.9 117.05 201.65 116.1173828125 201.3169921875 115.05 200.65 115.371875 200.20546875 115.7 199.85 116.9 198.7 120.15 198.3 120.15 198.2255859375 120.1 198.15 121.6998046875 199.1408203125 122.6 199.55 124.35 200.3 124.65 201.1 124.75 201.45 124.75 202.15
L 124.8 204.3
Q 124.8 205.1 124.7 205.5 124.5728515625 205.9240234375 124 206.7 123.9140625 206.8478515625 123.8 207 123.15 207.85 123.05 208.45
L 124.6 207.45
Q 125.7 206.55 125.9 205.9 125.9681640625 205.7181640625 126 205.45 126.05 205.113671875 126.05 204.65
L 126.1 201.3
Q 126.1 200.5 126 200.3 125.8 199.95 125.3 199.5 124.7 199 123.75 198.5
L 121.85 197.6 120 196.4
Q 119.5 196.1 117.6 195 117.0408203125 194.6869140625 116.55 194.45 116.807421875 194.45 117.05 194.45 120.1 194.5 123.2 195.8 128.7 197.95 135.85 204.5 144.75 212.6 147.75 214.55 148.85 215.3 151.1 216.65 153.1 217.9 154.3 218.9 157.023046875 221.13828125 157.8 223.7 157.73046875 224 157.7 224.35 157.55 225.8 157.4 226.15 157 227.05 155.05 228.05 141.7626953125 233.9943359375 116.65 240.6 115.515625 240.362890625 113.5 240.1
L 111.05 239.8
Q 102.45 238.85 94.35 240.05 92.35 240.35 91.5 241 89.7 242.3 89.7 245.9 89.7212890625 246.1779296875 89.75 246.4 89.70390625 246.384765625 89.65 246.35 89.3109375 246.1306640625 89 245.95 83.85 244.45 79.1 247.55 76.65 249.15 74.45 251 72.2787109375 252.9572265625 70.1 254.8 69.8943359375 254.8666015625 69.7 254.9 67.4 255.3 62.75 255.3 59.45 255.3 57.95 254.7 56.5 254.15 54 252 39.4212890625 239.07890625 25.5 224.05 25.7494140625 221.785546875 29 220 31.4 218.7 34.8 217.75 35.1830078125 217.65 35.95 217.45 35.916015625 217.7474609375 35.9 218.05 35.85 219.95 36.3 221.7
L 36.5 221.55
Q 36.6640625 222.022265625 37 222.55 37.6 223.5 38.2 224.1 38.4560546875 224.3916015625 38.7 224.65 38.6962890625 224.7087890625 38.7 224.75 38.7171875 224.72421875 38.7 224.7 40.5462890625 226.6576171875 41.9 227.4 42.2 227.6 42.2 227.7
L 43.5 228.05
Q 43.65 228.2 43.6 228.2
L 45.55 228.35 45.6 228.55 48.05 228.65 48.1 228.45
Q 49.05 228.4 50.35 227.75
L 51.4 227.3
Q 51.9669921875 227.05703125 52.35 226.75
L 52.55 228.6 53 227.95 53.25 226.85 53.55 226.45 53.5 221.7 52.9 221.05
Q 52.75 220.2 52.2 219.6 51.5 219 50.9 218.3 48.75 217.05 46.6 215.9 45.98359375 215.5861328125 45.35 215.35 50.389453125 214.1787109375 55.25 212.85 54.72734375 214.46328125 55.55 216.2 55.7 216.15 55.75 216.05 55.98125 215.5875 56.05 215.1
L 56 217.6 56.05 218.05
Q 56.1 218.15 56.5 218.4
L 57.35 219.1
Q 57.3966796875 219.1466796875 57.45 219.2 57.35 219.3162109375 57.35 219.45 57.4 219.55 57.8 219.85 58.6 220.2 59.7 221.6 60.3 222.15 61.75 222.9 62.5 223.55 62.7 223.6
L 63.35 223.7 65.1 223.7
Q 66.2 223.7 66.3 223.15 66.265625 223.0728515625 66.2 223 66.876953125 222.95625 67.55 222.85 68.6880859375 222.712109375 69.5 222.45 70.1779296875 222.662109375 70.9 221.8 71.1115234375 221.704296875 71.35 221.55 72.05 221.1 71.95 220.7 71.787890625 220.7884765625 71.6 220.85 71.6421875 220.83125 71.65 220.8 71.8 220.45 71.8 219.65
L 71.8 215.8
Q 71.8 215.1 71.65 214.8 71.45 214.4 70.6 214.1 67.790234375 213.041796875 65.3 211.9 63.9296875 211.32734375 62.6 210.75
L 73.6 207.25
Q 73.4984375 207.5203125 73.4 207.75
L 73.05 208.65
Q 72.65 210.15 73.15 211.5
L 73.25 211.5
Q 73.237109375 211.6392578125 73.2 211.8 73.1 212.45 73.15 212.75 73.3 213.35 73.85 213.9 74.35 214.4 75.65 215.3
L 77.8 216.6
Q 78.15 216.85 78.9 217.2
L 79.1 217.25
Q 79.19140625 217.317578125 79.25 217.35
L 80.7 218.05
Q 81.85 218.45 83.35 218.45 84.5 218.5 85.9 218.35
L 86.1 217.85
Q 85.8814453125 217.7189453125 85.6 217.6 86.564453125 217.55 87.05 217.35 87.95 217 89.35 215.7
L 89.6 215.45 89.7 217.65
Q 90.2 217.8 90.55 217.25 90.75 216.85 90.75 216.3
L 90.9 213.65
Q 91 211.75 90.45 210.85 90.15 210.4 89.5 209.95 89.45 209.9 87.05 208.5 85.55 207.75 83.9 206.6
L 81.15 204.9 90.8 201.85
Q 90.7419921875 202.0953125 90.7 202.6
L 90.4 203.05
Q 90.15 203.4 90.4 203.55 90.15 203.8 89.95 204.55
L 89.55 206.2
Q 89.75 206.4 90.05 206.35 90.35 206.3 90.5 206.1 90.7326171875 205.8673828125 90.9 205.2
L 90.9 206.3 90.95 206.95 91.35 207.45 93.1 209.2
Q 93.0111328125 209.41484375 93.15 209.6
L 96.5 212.15
Q 97.8 213.05 98.55 213.25 98.65 213.25 99.95 213.4
L 102.9 213.4
Q 103.4 213.4 103.6 213.3 104 213 103.85 212.7 103.829296875 212.5966796875 103.75 212.5
L 104.75 212.05
Q 105.0796875 211.8244140625 105.3 211.55 105.3263671875 211.7904296875 105.35 212.05 105.25 212.25 104.8 212.75 104.45 213.1 104.5 213.4 105.35 213.5 106 212.85 106.25 212.55 106.45 212 106.7 211.35 106.8 211.15 107.25 210.5 107.3 210.25 107.4 210.05 107.4 208.75 107.5 206.75 107.35 205.8 107.25 205.3 107.05 204.95 106.85 204.7 106 204.25 103.1 202.9 100.7 201.25 99.076953125 200.0421875 98.1 199.55
L 109.05 196.1
Q 109.31640625 196.0177734375 109.55 195.95 109.3474609375 196.319921875 109.3 196.7
L 108.25 200.25
Q 108.05 200.2 107.85 200.3 107.65 200.45 107.6 200.65 107.5 201.2 108.1 201.3 108.55 201.35 108.9 201 109.03671875 200.86328125 109.25 200.35 109.2779296875 200.303125 109.3 200.25
L 110.1 198
Q 110.75 196.4 111.2 195.95 111.75 195.4 112.55 195.25 112.9 195.15 113.6 195.15
L 114.45 195.2
Q 115.3 195.35 116.15 195.8 117.3 196.35 119.4 197.7 119.673828125 197.8759765625 119.9 198.05 119.802734375 198.0130859375 119.6 198.05 116.2 198.35 114.95 199.8 114.765234375 200.01328125 114.55 200.3 114.28984375 200.11953125 114 199.9 113.95 199.9 111.2 197.65
M 104.85 205.25
Q 105.45 205.5 105.75 205.85 106.2 206.35 106.2 207.55 106.279296875 209.1361328125 105.95 210 105.9474609375 209.9474609375 105.9 209.9 105.4 211 103.8 211.75
L 103.05 212 99.05 212.05
Q 98.4 211.9 97.65 211.5 97.294140625 211.2796875 96.95 211
L 94.45 209.25
Q 94.378125 209.2080078125 94.3 209.15
L 95.25 206.45
Q 95.334375 206.1484375 95.4 205.85 96.77890625 206.75234375 98.3 207.5 99.4 208.1 100.4 208.3 102.35 208.7 104 207.6 103.55 207.4 102.85 207.55 102.05 207.75 101.65 207.8 100.3 207.95 98.15 206.8 96.849609375 206.094140625 95.65 205.35 95.8783203125 204.8962890625 96.15 204.6 96.55 204.1 97.4 203.75
L 98.55 203.3
Q 99.7 202.95 100.7 202.9 102.7201171875 204.218359375 104.85 205.25
M 97.25 200.6
Q 97.85 200.85 98.7 201.5 99.5310546875 202.1197265625 100.35 202.7 99.586328125 202.5669921875 98.15 202.95 96.3 203.45 95.6 204.35 95.39296875 204.6087890625 95.15 205.05 93.428515625 203.92265625 91.9 202.7 92.05 203.35 93.05 204.15 93.9591796875 204.901171875 94.95 205.55 94.8841796875 205.7974609375 94.8 206.05
L 94.35 207.3
Q 93.9822265625 208.4443359375 94.15 209.1 93.90546875 208.9681640625 93.7 208.9 93.6330078125 208.812109375 93.55 208.7
L 93.1 208.1
Q 92.65 207.8 92.4 207.6 92.25 207.5 91.8 206.95
L 91.45 206.35
Q 91.4 206.2 91.4 205.35 91.4 204.7005859375 91.3 204.05 91.450390625 203.648828125 91.55 203.35
L 92.05 202.15
Q 92.2310546875 201.6673828125 92.45 201.3 92.4375 200.34921875 95.55 200.35 96.5515625 200.3671875 97.25 200.6
M 82.85 207.5
L 82.85 207.5
Q 82.5466796875 207.5626953125 82.15 207.7
L 80.55 208.25
Q 79.75 208.55 79.4 208.8 79.1 208.95 78.55 209.4 78.15 209.6 78.05 209.75 77.9 209.95 77.8 210.5 77.7689453125 210.624609375 77.7 210.75 76.246875 209.791015625 74.4 208.3 74.59375 207.9365234375 74.85 207.6 75.2234375 207.0521484375 75.6 206.65 76.4056640625 205.3068359375 79.1 205.55 79.92578125 205.745703125 81 206.35
L 82.85 207.5
M 83.35 207.9
Q 83.561328125 208.09375 83.85 208.3 83.95 208.4 85 208.9
L 86 209.65
Q 86.6 210.05 88 210.65 89.2 211.4 89.45 212.25 89.55 212.5 89.55 213.45
L 89.6 214.65
Q 89.328515625 214.822265625 89.05 215.05 88.75 215.3 88.15 215.85 87.35 216.55 86.25 216.8 85.65 216.9 84.5 216.9
L 80.8 216.75
Q 80.2765625 216.551953125 79.7 216.25 77.35 214.9 76.1 214.35 75.7162109375 214.1369140625 75.45 214.25 73.9482421875 213.3935546875 73.7 212.5 73.6 212.25 73.6 211.65 73.5935546875 211.5724609375 73.55 211.5
L 73.65 211.5
Q 73.75 211.25 73.9 209.85 73.99609375 209.081640625 74.35 208.35 74.4326171875 208.922265625 75.15 209.55 76.30078125 210.55078125 77.5 211.35 77.390234375 211.7638671875 77.2 212.25 76.9 213.4 77.35 214.05
L 78.05 211.7
Q 79.043359375 212.346484375 80.05 212.85 80.85 213.25 81.6 213.45 81.95 213.55 83.65 213.65 85.2 213.65 85.95 213.55 87.2 213.3 87.95 212.65 88.4 212.2 88.05 212.05 87.05 212.9 84.35 213 82.7 213 81.9 212.85 80.34765625 212.558984375 78.25 211.15 78.6517578125 210.296484375 78.7 210.2 79.05 209.75 79.95 209.25 81.5142578125 208.511328125 83.35 207.9
M 90.95 244
Q 90.9611328125 243.9630859375 90.95 243.9 91.3712890625 242.663671875 92.1 242.05 93.05 241.3 95.1 241.2 101.0888671875 240.672265625 106.3 240.85
L 106.05 241.35 105.75 242.2
Q 105.7076171875 242.4125 105.6 243.55 105.57265625 243.7669921875 105.55 244 105.55 244.6150390625 105.6 245 105.6146484375 245.24140625 105.65 245.4 105.95 246.25 106.5 246.5
L 106.7 246.4
Q 106.2734375 245.8958984375 106.25 244.85 106.2275390625 244.54765625 106.25 244.2
L 106.3 243
Q 106.3353515625 242.7171875 106.6 241.9 106.5599609375 242.426171875 106.55 243.3 106.55 243.5140625 106.55 243.75 106.55 244.05 106.45 244.6 106.4275390625 244.7013671875 106.4 244.8 106.3724609375 245.12890625 106.45 245.4 106.6 245.55 106.6 245.5
L 106.75 244.75 106.75 244.7
Q 106.8533203125 244.387109375 106.9 244.2 107.0373046875 243.833984375 107 243.15 107.004296875 243.113671875 107 243.05 107 242.2 107.05 241.85 107.15 241.35 107.35 241.2
L 107.05 241.05
Q 106.928515625 241.0904296875 106.85 241.15 106.9259765625 240.998046875 106.95 240.9 110.2884765625 241.043359375 113.25 241.45 114.9412109375 241.7201171875 116.5 242.05 117.0287109375 242.1751953125 117.55 242.3 120.5 243.05 121.15 244.55 120.874609375 244.7453125 120.7 244.85 120.2 245.25 119.2 245.6 116.4 246.6 113.65 246.9 112.4095703125 246.988671875 112 247.55 111.9841796875 247.6201171875 111.95 247.7 116.15 247.8 120.1 246.25 120.8 245.95 121.1 245.7 121.2236328125 245.53828125 121.35 245.4 121.4 245.9048828125 121.4 246.6 121.35 248.4 121.15 249.3 120.8 250.75 119.95 251.6 119.6951171875 251.8548828125 119.5 252.05 118.2619140625 252.50234375 117.45 252.8 115.979296875 253.317578125 114.75 253.6 114.4658203125 253.6919921875 114.2 253.75 114.0890625 253.611328125 113.85 253.6 113.9201171875 253.47890625 113.95 253.3 114.25 250.3 112.95 248.8 112.442578125 248.165625 111.25 247.6 111.0388671875 247.5001953125 110.8 247.4 109.85 246.9 108.75 246.65 108.45 246.6 106.95 246.6 104.55 246.7 103.9 246.85 103.5509765625 246.9146484375 103.2 247 100.76328125 246.9064453125 99.15 246.8 98.7615234375 246.8171875 98.4 246.8 97.745703125 246.7650390625 97.1 246.7 96.245703125 246.6068359375 95.45 246.45 93.6634765625 246.106640625 92.35 245.45 91.4541015625 245.001953125 91.25 244.4 91.2603515625 244.367578125 91.25 244.3 91.1384765625 243.9283203125 91 243.95 90.9748046875 243.980078125 90.95 244
M 90.8 244.55
Q 90.8048828125 244.945703125 91.1 245.3 91.45 245.75 92.15 246 93.140625 246.4599609375 94.3 246.75 95.705859375 247.1595703125 97.35 247.35 99.2416015625 247.5728515625 101.45 247.55 101.411328125 247.5744140625 101.35 247.6 98.7138671875 248.7236328125 95.05 251.95
L 94.6 251.85 93.85 251.55 93.4 251.5 93.05 251.35
Q 92.819921875 251.2185546875 92.4 251.1 92.3740234375 250.6083984375 92.3 250.1 92.201953125 249.4384765625 92.05 248.9 91.90390625 248.40703125 91.7 248.05 91.57265625 247.8716796875 91.35 247.65 91.32578125 247.6234375 91.25 247.55 91.21171875 247.3580078125 90.95 246.9 90.45 246.15 90.75 244.75 90.76875 244.6607421875 90.8 244.55
M 83.05 247.25
Q 86.05 246.1 88.85 247.35 89.2513671875 247.6259765625 89.65 247.95 89.755859375 248.0453125 89.85 248.15 90.2240234375 248.4953125 90.5 248.85 90.630859375 249.0640625 90.7 249.3 91.073828125 250.178125 91.15 251.55
L 91.4 254.8
Q 91.4 254.8376953125 91.4 254.85 91.4115234375 255.0716796875 91.45 255.2
L 88.9 257.6
Q 87.05 259.2 86.45 261.7 86.4017578125 261.869140625 86.35 262.05 86.35 262.243359375 86.35 262.45
L 80.55 266.1
Q 80.0287109375 266.4234375 79.5 266.7 77.25 267.9 74.6 267.9 73.5 267.9 72.6 267.5 68 265.85 67.9 261.1
L 67.9 261.05
Q 68.026953125 261.376953125 68.3 261.65 68.7 262.1 69.5 262.55 72.15 263.95 74.35 263.9 75.9 263.85 77.75 263.05 78.8 262.55 80.85 261.25
L 84.25 259.05
Q 84.270703125 260.5353515625 84.1 262.1 84 262.7 84.2 263 84.8615234375 260.80859375 84.9 258.65
L 86.1 257.9
Q 87.4 257.1 87.75 256.9 88.9 256.4 89.45 256.1 89.9759765625 255.778515625 90.3 255.4 90.5837890625 255.1408203125 90.75 254.85
L 86.6 256.65 85.25 257.4
Q 85.074609375 257.50234375 84.9 257.6 84.873828125 256.6173828125 84.5 256.15 84.3 255.85 83.35 255.3 80.7583984375 253.95234375 78.85 253.3 78.010546875 253.0390625 77.3 252.9 77.05 252.85 76.8 252.95 76.5 253.05 76.55 253.3 77.25546875 253.4548828125 77.95 253.65 81.2609375 254.6560546875 84.2 256.85 84.2451171875 257.4126953125 84.25 258 82.910546875 258.8140625 81.45 259.8 78.9 261.45 78.15 261.9 76.15 262.9 74.5 263.05 73.65 263.15 72.95 263 72.0771484375 262.9029296875 70.35 262.25 70.304296875 262.22109375 70.25 262.2 69.05 261.6 68.65 261.05 68.528515625 260.833984375 68.4 260.65 68.1578125 260.344921875 67.9 260.3 68.1041015625 257.861328125 69.95 256.15 70.1060546875 256.0205078125 70.25 255.9 70.5373046875 255.591796875 70.85 255.3 71.3107421875 254.8486328125 71.8 254.4 73.8640625 252.505078125 76.3 250.8 79.45 248.55 83.05 247.25
M 119.4 253.35
Q 119.95078125 253.319140625 120.4 253.05 121.333984375 252.7482421875 122.35 252.45 122.5669921875 252.6056640625 123 252.75 123.8 253.15 124.6 253.95 126.25 255.6 126.65 257.35 126.844140625 258.0294921875 126.95 259.5 124.0734375 260.4009765625 121.15 261.2 119.5 261.7 118.2 261.85 117.4 261.95 116.5 261.85 114.35 261.75 112.8 261.25 112.4734375 261.13046875 112.15 261 110.889453125 260.4009765625 110.1 259.45 110.137109375 259.3455078125 110.15 259.2 110.164453125 259.10078125 110.15 258.95 110.3708984375 257.6185546875 110.85 256.9 111.35 256.25 112.3 255.55 112.95078125 255.1025390625 113.35 254.8 114.789453125 254.8529296875 116.55 254.35 116.6392578125 254.30546875 119.4 253.35
M 112.85 254
Q 112.2 254.1 112.25 254.45 109.892578125 255.9314453125 109.15 257.5 109.0287109375 257.77734375 108.95 258.05 108.75 258.7 108.75 260.15
L 108.7 262.45
Q 107.1798828125 263.3775390625 103.35 266.25 101.55 267.65 100 268.65 99.1 269.2 98.4 269.45 97.95 269.6 96.45 269.7 92.8734375 269.8572265625 90.6 269.2 87 267.75 86.65 263.9
L 87.1 263.8
Q 87.1 263.55 87.15 263.3 87.1623046875 263.1779296875 87.15 263.05 87.4208984375 263.2958984375 87.8 263.5 89.05 264.4 90.1 264.7
L 91 264.95
Q 91.85 265.15 93.55 265.25 95.8 265.35 96.9 265.15 97.95 264.95 99.85 264.15
L 100.7 263.75
Q 101.6 263.4 102.55 262.85 103.55 262.25 104.8 261.15
L 105.65 260.5
Q 106.95 259.35 107.2 258.9 107.04921875 258.957421875 106.9 259 105.941796875 259.45078125 104.7 260.35 102.8 261.75 102.3 262.05
L 100.6 262.85
Q 99.5 263.4 98.7 263.65 95.85 264.65 93.05 264.45 91.7654296875 264.396484375 90.65 264.1 89.0251953125 263.628515625 87.8 262.6 87.5646484375 262.4111328125 87.35 262.2 87.358984375 262.133984375 87.35 262.05 87.39375 261.9591796875 87.4 261.85 88.0326171875 259.8697265625 89.7 258.45
L 92.8 255.55
Q 93.6416015625 254.750390625 94.4 254.05 96.907421875 254.26328125 99.65 254.9 100.85 255.15 101.75 255.55 102.7 256 103.9 256.85
L 106.3 258.5
Q 106.7 258.2 106.1 257.7
L 105.25 256.95
Q 101.1 253.75 95.9 253.75 95.0525390625 253.75 94.5 253.95 97.33359375 251.4208984375 99.15 250.3 103 247.8 106.9 247.85 108.85 247.85 110.35 248.7 112.1 249.55 112.7 251.35 112.9728515625 252.2140625 112.9 254
L 112.85 254
M 110.05 262.9
Q 110.222265625 262.6666015625 110.15 262.45 110.1345703125 262.342578125 110.05 262.25
L 110.05 261.1
Q 110.05 260.6154296875 110.05 260.15 110.71640625 260.9498046875 111.3 261.3 111.85 261.7 113.15 262 115.55 262.65 117.15 262.7 119.15 262.75 122.85 261.65
L 126.95 260.45 127.05 262.3
Q 127.3 261.9 127.4 261 127.435546875 260.658984375 127.45 260.3
L 128.95 259.9
Q 132.0779296875 258.96171875 135 257.55 135.8041015625 257.1751953125 136.6 256.75 136.85 256.65 136.9 256.5 137.05 256.25 136.85 256.1 132.24375 257.84609375 127.5 259.3 127.5205078125 258.0083984375 127.3 257 126.8 254.8 125.4 253.55 124.621875 252.869140625 123.3 252.2 124.475 251.8880859375 125.75 251.6 129.65 250.9 133.6 250.2 135.65 249.85 137.7 250.2 139.65 250.65 140.4 252.45 141.1390625 254.2978515625 141.2 256.2 141.158203125 256.3212890625 141.05 256.8 140.8884765625 257.504296875 140.55 259 140.0666015625 261.532421875 132.5 264.1 127.1666015625 266.207421875 121.55 267.45 117.294921875 268.403125 113.6 266.9 111.8958984375 266.177734375 110.3 264.9 110.275390625 264.863671875 110.25 264.8 110.1 264.45 110.1 263.75
L 110.05 262.9
M 92.45 252.35
L 92.6 252.45 92.9 252.55 93.5 252.6 93.75 252.65 93.95 252.75 94.1 252.8
Q 94.0119140625 252.895703125 93.9 253
L 92.4 254.35
Q 92.503515625 253.3380859375 92.45 252.35
M 69.45 215.3
Q 69.95 215.5 70.2 215.75 70.45 216.15 70.45 216.75 70.55 219.25 70.25 220.4 70.1048828125 221.0380859375 69.85 221.6 69.1783203125 221.8728515625 68.45 222.05 67.25 222.3 64.8 222.4 63.6794921875 222.4 62.9 222.25 62.1576171875 221.973046875 61.35 221.4
L 59.5 219.95
Q 59.3517578125 219.7845703125 59.3 219.75
L 58.85 219.4
Q 58.7087890625 219.2990234375 58.55 219.2
L 58.2 218.95
Q 57.7 218.45 57.4 218.2 56.95 217.75 56.5 217.65 56.6 216.1 56.35 214.6
L 56.15 214.6
Q 56.2275390625 214.25625 56.35 213.95 56.6 213.1 57.15 212.45 57.2173828125 212.36015625 57.3 212.25 57.9203125 212.10625 58.55 211.9
L 58.6 211.95
Q 61.758984375 211.4537109375 64.65 213.2 63.57265625 213.1 62.5 213.1 62 213.1 61.8 213.2 61.5 213.35 61.05 213.9 60.9 214.05 60.45 214.25 60.2 214.45 60.05 214.75 59.7466796875 215.1796875 59.55 215.55 59.06796875 215.1654296875 58.55 214.7 57.45 213.8 57.55 212.9
L 57.2 212.9
Q 56.9 213.4 57.25 214.1 57.4 214.35 58.05 215 58.763671875 215.6421875 59.3 216.1 59.315234375 216.1837890625 59.3 216.25 59.05 217.15 59.2 218.35
L 59.55 218.35
Q 59.55 217.4484375 59.85 216.55 60.1578125 216.7791015625 60.4 216.95 61.75 217.9 63 218.2 64.4 218.55 67.3 218.15
L 67.6 217.65
Q 67.5810546875 217.6193359375 67.5 217.55 64.808984375 218.0412109375 63.45 217.75 62.0359375 217.4599609375 60.1 215.95 60.1431640625 215.8638671875 60.2 215.75 60.45 215.25 60.6 215.1
L 62.2 213.7 64.95 213.45
Q 65.017578125 213.45 65.05 213.45 65.184375 213.5205078125 65.3 213.6 67.4966796875 214.60234375 69.45 215.3
M 43.1 218.4
Q 41.4 218.5 40.55 219.4 40.25 219.65 39.75 220.45
L 39.6 220.95
Q 38.6287109375 220.066796875 37.5 218.8 37.2892578125 218.5509765625 37.1 218.4 37.198828125 217.686328125 37.5 217.1 37.7587890625 217.0544921875 38 217 37.9751953125 216.8490234375 38 216.75 38.05 216.5 38.45 216.1 38.490234375 216.0498046875 38.5 216 38.636328125 215.924609375 38.75 215.85 41.8 215.45 44.65 216.6 45.6 217.05 46.75 217.6 48.95 218.55 50.6 220.2 50.95 220.55 51.15 221 51.55 221.75 52.1 222.55
L 52.1 224.1 52.5 225.8 52.25 226.15
Q 52.2294921875 226.192578125 52.2 226.2 51.65 226.3 50.85 226.65 49.8 227.15 49.6 227.2
L 48.25 227.6
Q 46.65 227.85 46.25 227.85 46 227.5 45.05 227.5 43.2 227.5 40.65 225.55 39.7505859375 224.7943359375 39 224.05 39.3375 223.3013671875 39.75 221.85 40.8966796875 222.891015625 42.05 223.55 45.25 225.35 48.85 225.05 50.15 224.95 50.2 224.15 45.55 225.1 41.65 222.6 40.869921875 222.118359375 39.9 221.25 40.4958984375 219.6826171875 41.65 219.15 42.05 218.95 42.7 218.85 44.1 218.65 45.9 218.65
L 45.95 218.4
Q 44.05 218.3 43.1 218.4
M 36.65 221.5
L 36.8 221.45
Q 36.99453125 220.234375 37.05 218.9 38.2318359375 220.446484375 39.4 221.55
L 38.95 223.2
Q 38.8498046875 223.533984375 38.8 223.8 38.64140625 223.6572265625 38.5 223.5
L 37.2 221.8
Q 36.96953125 221.492578125 36.65 221.5
M 118.15 267.25
Q 118.4 267.45 118.9 267.25 120.05 266.85 121.75 265.95 124.1 264.65 124.55 264.45
L 124.55 264.2
Q 124.05 264.35 122.9 264.95 120.15 266.45 118.15 267.25
M 120.7 265.6
L 120.5 265.35 116.55 267.05
Q 116.25 267.15 116.1 267.35 116.3 267.35 117.15 267.1
L 120.7 265.6
M 55.1 245.1
Q 54.55 245 54.5 245.3 54.4 245.5 54.85 245.85 55.5 246.25 56.3 247.3 57.2 248.5 57.6 248.85 59.1 250.05 62.45 250.35 64.65 250.65 65.75 250.15 66.05 250 66.2 249.8 66.4 249.5 66.2 249.25 63.55 249.55 60.75 249 59.35 248.7 58.8 248.3 58.3 247.95 57.05 246.5 56 245.35 55.1 245.1
M 41.75 238.55
Q 41.55 238.35 40.65 237.35 40.05 236.6 38.65 235.4 37.45 234.3 36.95 233.7 36.05 232.7 35.55 232.7 36.45 233.9 37.05 234.5
L 41.1 238.6
Q 41.55 239.05 43.05 240.2
L 45.7 242.55
Q 46.6 243.35 47 243.8 47.7 244.55 47.8 244.65 48.25 245.1 48.75 245.15 47.8 243.95 47.25 243.35
L 46.7 242.8 41.75 238.55
M 41.2 229.4
Q 41.9 229.85 42.95 230.2 46.3 231.25 48.9 230.35 49.8 230.1 49.55 229.55 49.4 229.15 48.4 229.35 47.15 229.75 45.2 229.55 42.95 229.3 41.65 228.35 41.15 228 39.95 226.9 38.9 225.9 38.15 225.55 37.9 225.4 37.6 225.45 37.3 225.5 37.3 225.75 38.2 226.15 39.35 227.5 40.6 229 41.2 229.4
M 54.65 233.25
Q 53.75 233.55 53.4 233.9 53 234.3 52.7 235.5
L 52.35 237.25
Q 52.05 238.65 52.05 239.35 52.05 239.8 52.15 240.75 52.15 241.6 51.9 242.1 51.65 242.6 51.9 242.65 52.639453125 242.3625 52.85 241.3 52.9822265625 241.5822265625 53.25 241.85 53.5 242.1 54 242.5
L 54.25 242.95
Q 54.35 243.15 54.85 243.5
L 56.1 244.4
Q 57.65 245.6 59 246.5 59.7 247.35 60.75 247.65 61.4 247.9 62.8 248 64.4 248.05 64.9 248.05 66.1 248 67 247.7 67.8 247.45 69.45 246.3 70.1 245.85 70.35 245.4 70.7 244.8 70.6 243.45
L 70.5 242.25
Q 70.520703125 242.3890625 70.55 242.55
L 71.2 245.9
Q 71.4 247.05 71.9 247.55 72.45 248 72.95 247.8 72.45 246.9 72.15 244.65
L 71.75 241.7
Q 71.75 241.15 71.55 240.7 71.4 240.2 70.1 239.05 69.55 238.5 68.8 237.45 67.9 236.2 67.55 235.8 66.95 235.1 64.7 233.4 63.6 232.6 62.95 232.4 62.3 232.25 61.55 232.25 58.1 232.25 54.65 233.25
M 54.15 234.8
Q 54.45 234.5 55 234.4 57.7 233.6 60.5 233.5 61.85 233.5 62.7 233.75 63.65 234.1 65 235.25 66.3 236.35 66.65 236.9 67.25 237.8 67.3 237.85
L 67.8 238.35 68.3 239.2
Q 68.55 239.6 69.2 240.15 69.85 240.75 70.1 241.05
L 69.95 243.8 69.8 244.7
Q 69.6 245.25 68.65 245.9 68.05 246.35 67.3 246.65 66.1 247.1 64.35 247.2 62 247.4 60.7 246.75 60.1 246.4 59.45 245.85
L 54.6 242.25
Q 54 241.75 53.6 241.2 53.3 240.8 53.15 240.4 53.05 240.1 53.05 239.45 53.0333984375 239.234375 53 239.05 53.04921875 238.8279296875 53.1 238.65
L 53.5 237.5
Q 53.6 236.5 53.6 236 53.7 235.15 54.15 234.8
M 57.55 239.7
Q 57.6259765625 239.56640625 57.7 239.45 57.85 239.15 58.55 238.45 59.35 237.65 59.85 237.4 60.55 236.95 62.25 236.65
L 65.35 236.1
Q 65.15 235.7 64.45 235.8 62.7 235.9 61.15 236.25 59.9 236.55 59.5 236.8 58.8 237.15 57.95 238.1 57.2947265625 238.7962890625 57 239.35 55.1779296875 238.1595703125 54.6 237.1 54.25 236.5 54.1 236.4 53.85 237.25 54.5 238.05 54.85 238.5 55.75 239.2 56.3263671875 239.615625 56.8 239.95 56.7443359375 240.74140625 57.15 241.35 57.2376953125 240.758203125 57.35 240.3 58.3923828125 241.0166015625 59.1 241.4 61 242.5 62.75 242.75 64.45 242.95 66.15 242.5
L 63.75 242.2
Q 62.3 242 61.35 241.75 59.9654296875 241.2884765625 57.55 239.7
M 83.75 227.5
L 82.7 226.3
Q 81.6 225.4 79.3 225.7 76.75 226.1 74.85 227 73.05 227.85 72.15 228.7 71.6 229.25 71.5 229.6 71.3 230.1 71.4 230.8
L 71.55 234.95
Q 71.4947265625 234.9732421875 71.45 235 71.4939453125 235.068359375 71.55 235.1
L 71.55 235.45
Q 71.6916015625 235.5349609375 71.8 235.5 72.1302734375 235.891796875 72.5 236.2 72.859375 236.559375 73.3 236.85
L 73.3 236.9
Q 75.65 239.4 78.25 241.4 79.4 242.3 80.2 242.5 81 242.75 82.3 242.75
L 83.9 242.75
Q 84.75 242.75 85.15 242.6 85.381640625 242.5130859375 85.55 242.4 86.31875 242.2923828125 87.3 242 89.1462890625 241.370703125 90.05 240.8
L 90.05 240.85
Q 90.16015625 240.7765625 90.25 240.65 90.301953125 240.63671875 90.35 240.6 90.85 240.2 90.95 239.9 91.2 239.4 90.85 239.05 90.7 239 90.7 239.35 90.7 239.4859375 90.6 239.6 90.65 239.4162109375 90.65 239.2 90.8 237.05 90.8 234.8 90.9 233.95 90.6 233.3 90.35 232.8 89.8 232.35 89.3 231.9 86.65 230.05 84.7 228.65 83.75 227.5
M 81.6 227.05
Q 82 227.25 82.5 228.05 83.186328125 229.04140625 84.45 230.05 82.8779296875 229.730078125 80.75 230.4 79.35 230.85 78.05 231.6 76.75 232.3 76.3 233.1 76.232421875 233.23515625 76.15 233.35
L 72.45 230.5
Q 72.654296875 229.819140625 73 229.35 76.55 227.05 80.7 226.95 81.25 226.85 81.6 227.05
M 84.75 230.35
Q 85.0322265625 230.5525390625 85.3 230.75 86.35 231.55 88.45 233.1 89.25 233.8 89.45 234.25 89.7 234.85 89.6 236.1 89.6 238.415625 89.9 240.2 88.7720703125 241.0484375 86.6 241.7 86.2080078125 241.8015625 85.85 241.85 85.8705078125 241.74296875 85.85 241.6
L 82.55 241.65
Q 81.4 241.65 80.8 241.5 80.15 241.3 78.95 240.5 78.3140625 240.066796875 77.75 239.65
L 77.8 239.65
Q 76.1 238.1 74.4 237.05 73.1 236.25 72.6 235.65
L 72.15 235.2
Q 72.2 235.094140625 72.2 234.95 72.4 234.15 72.3 232.1 72.3 231.6140625 72.35 231.2
L 75.95 234
Q 75.889453125 234.1794921875 75.85 234.35 75.65 235.65 75.85 236.9
L 76.35 234.6
Q 76.380859375 234.4763671875 76.4 234.35
L 76.65 234.55
Q 78.35 235.85 79.1 236.2 80.5 236.85 82.45 237.2 85.9 237.7 87.25 236.1 85.25 236.8 83.1 236.65 80.9 236.45 79.05 235.4 78.028515625 234.8427734375 76.6 233.7 76.6853515625 233.5630859375 76.75 233.45 77.1 232.85 78.05 232.3 81.1966796875 230.468359375 84.75 230.35
M 94 231.9
Q 93.6 231.9 93.6 232.2 93.6 232.35 93.85 232.6
L 97.7 235.9
Q 98.65 236.75 99.4 237.05 99.9 237.25 101.4 237.35
L 104.1 237.4
Q 104.9 237.4 105.25 237.25 105.9 237.1 106 236.4 104.5 236.25 103 236.25 101.1 236.35 100.35 236.1 99.35 235.8 97.75 234.4 96.25 233.15 94.55 232.1 94.15 231.9 94 231.9
M 103 221.9
Q 102 221.4 101.55 221.05 100.8 220.35 100.35 220.05 99.75 219.75 98.75 219.85 97.25 219.9 94.8 220.75 93.35 221.25 92.15 221.8 91.6 222.1 91.4 222.4 91.2 222.75 91.2 223.55
L 91.3 227.95
Q 91.3 229.05 91.1 229.6 91.25 229.8 91.55 229.75 91.85 229.7 92 229.45 92.0513671875 229.3857421875 92.1 229.3 92.18359375 229.392578125 92.3 229.5 93.8 231.1 95.45 232.5 96.3 233.2 97.3 233.6 98.85 234.15 100.5 235.1 101.45 235.25 102.4 235.4 105.7833984375 235.90546875 108.4 234.25 108.29921875 234.7318359375 108.25 235.1 108.65 235.15 109.2 234.4
L 109.8 233.35
Q 110.3 232.45 110.45 231.95 110.55 231.5 110.55 230.55
L 110.55 228.35
Q 110.55 227.25 110.25 226.8 110.1 226.55 109.35 226 106.5 224.2 105.15 223.55
L 104.05 222.9
Q 103.4 222.15 103 221.9
M 94.35 222.2
L 95.9 221.85
Q 96.35 221.75 97.2 221.35 98.4 220.95 99.1 221.2 99.45 221.3 100.4 221.9
L 102.3 223.25
Q 105.3 225.3 106.55 225.95 107.7 226.55 108.15 226.9 109 227.5 109.25 228.25 109.5 228.85 109.4 229.5 109.4 230.4 109.25 231.3 109.15 231.75 108.7 233.2 108.67109375 233.294921875 108.65 233.35 106.280859375 234.7 103.5 234.7 96.8 234 92.65 228.65 92.4447265625 228.3677734375 92.2 228.3
L 92.2 225.8
Q 92.325 225.95 92.5 226.1
L 94.8 227.95
Q 95.75 228.9 96.05 229.05
L 96.4 229.25
Q 96.4130859375 230.132421875 96 231 96.6384765625 230.5744140625 96.75 229.45
L 97 229.6 97.7 230.3
Q 98.25 230.85 99.5 231.25 100.25 231.45 101.1 231.45 102 231.45 103.2 231.15 103.9 231 105.3 230.65 107 230.35 107.65 229.85
L 107.5 229.7 104.4 230.3
Q 102.3 230.7 101.3 230.7 99.55 230.6 98.65 229.95 97.75 229.1 97.25 228.8
L 96.8 228.55
Q 96.802734375 228.5017578125 96.8 228.45 96.8 227.35 97.05 226.9 97.4 226.45 98.15 226.1 100.25 225.1 101.35 224.8 102.45 224.5 103.4 224.35 102.4 223.9 100.95 224.25 99.35 224.9 98.6 225.2 96.85 225.95 96.5 226.6 96.3 227.05 96.3 227.7 96.329296875 227.9337890625 96.35 228.3 95.5 227.4 95.05 227
L 93.95 226.2
Q 93.5 225.7 93.2 225.5 92.65 225.1 92.6 225
L 92.6 224.2
Q 92.65 223.95 92.5 223.8 92.3763671875 223.6763671875 92.2 223.7 92.261328125 223.3232421875 92.4 223.15
L 92.95 222.8
Q 93.65 222.4 94.35 222.2
M 123.15 231.55
Q 125.4 231.45 126.45 230.4 126.05 230.3 124.15 230.45 119.05 230.85 114.85 227.75 113.4 226.65 112.8 226.45 113.1 227.85 114.3 228.8 114.8 229.25 116.2 229.9 117.8 230.65 119.05 231.05 121.25 231.6 123.15 231.55
M 128 222.1
Q 128 221 127.75 220.5 127.5 220.15 126.8 219.65
L 121.45 216.3
Q 120.35 215.65 119.8 215.5 119.3 215.35 117.8 215.35 115.65 215.4 114.45 215.6 112.65 215.9 111.4 216.75 110.7 217.3 110.45 217.8
L 110.25 218.75 110.15 220.1
Q 110.15 220.7 109.95 221.25 109.65 222.15 108.6 222.4 107.6 222.5 107.35 222.8 108.2 223.4 109.3 223.15 109.8900390625 223.0025390625 110.3 222.6 110.3287109375 223.6482421875 110.75 224.25
L 111.6 225.05 114.75 227.35
Q 116 228.2 116.55 228.4 116.8 228.65 117.35 228.9
L 118.25 229.25
Q 119.15 229.75 119.4 229.85 119.7 229.95 120.4 229.95
L 122.75 229.95
Q 123.9 229.95 124.5 229.85 124.85 229.75 124.8 229.55
L 125.75 229.45 127.8 228.15
Q 127.9009765625 228.0939453125 128 228 128.1125 228.1625 128.25 228.3 128.7 229.3 127.45 230.75 128.2 231.15 128.9 230.55 129.4 230.05 129.5 229.2 129.65 227.95 128.95 226.95 128.4 226.25 128.25 225.85 128 225.35 128 224.15
L 128 222.1
M 123.55 219.25
Q 125.45 220.45 125.9 220.8 126.45 221.15 126.6 221.5 126.9 221.95 126.8 222.8
L 126.8 224.95
Q 126.8 226.55 127.25 227.2 127.3423828125 227.3232421875 127.45 227.45 126.4482421875 228.1298828125 124.7 228.7 124 229 123.55 229.05 123 229.2 121.9 229.2
L 120.7 229.2
Q 119.6 229.1 118.1 228.25 116.25 227.3 112.85 225 111.05 223.75 110.9 222.75 110.9248046875 222.13203125 110.85 221.7 111.0201171875 221.249609375 111.1 220.45
L 111.2 219.5
Q 111.6263671875 220.21640625 112.75 221.05
L 114.6 222.4 114.5 222.85
Q 114.5 222.9 114.15 223.95 113.95 224.6 114.05 225.05 114.88125 223.9744140625 115.05 222.75 117.198046875 224.347265625 118.45 224.95 120.15 225.7 122.1 225.85 123.3 225.95 124.1 225.6 125.2 225.15 125.45 224.15 123.2 225.85 119.65 224.55 117.901171875 223.9416015625 115.15 222.05 115.2095703125 221.9107421875 115.25 221.85 115.5 221.5 116.15 221.2 117.95 220.2 119.35 219.85 120.65 219.55 123.3 219.55 123.4 219.25 123 219.25 119.15 218.6 115.8 220.65 115.05 221.15 114.8 221.65
L 114.75 221.75
Q 114.08671875 221.3025390625 113.35 220.75
L 111.25 219.2 111.4 218.05
Q 112.55 217.4 113.65 217.05 114.7 216.75 117 216.65 118.4 216.55 119.3 216.8 119.95 217 120.95 217.65
L 123.55 219.25
M 146 216.2
Q 145.55 215.15 144.15 214.2
L 141.05 212.45
Q 140.75 212.25 139.55 211.3
L 136.25 209.3
Q 135.05 208.65 134.65 208.5 133.05 208 130.8 208.45 129.4 208.75 129 209.45 128.8 209.8 128.7 210.6 128.5 213 127.2 215.35 126.9 215.9 126.55 216.1 126.2 216.2 126.15 216.4 126 216.65 126.4 216.85 126.9 217.15 127.5 216.65 127.7671875 216.4208984375 128 215.95 127.944921875 217.016015625 129.1 218 129.2111328125 218.0939453125 129.35 218.2 129.1712890625 218.1142578125 129 218.05
L 128.5 217.95
Q 128.15 218.05 128.25 218.3 128.25 218.4 128.45 218.6
L 132.25 221.5 132.85 222.05 134.05 222.75
Q 135.15 223.4 136.3 224.35
L 136.95 224.75 137.5 224.8 140.8 224.85
Q 142.1 224.85 142.7 224.75 143.15 224.75 143.5 224.5 143.95 224.1 143.6 223.75 143.4 223.5 142.7 223.6 142.05 223.7 140.7 223.7
L 138.7 223.6
Q 138.6208984375 223.4755859375 138.45 223.3 139.140234375 223.3458984375 139.6 223.3 140.35 223.25 141.65 222.85 144.15 222.05 145.1 221.05
L 145.1 221
Q 145.0330078125 221.386328125 144.9 221.8 144.85 222.3 145 223.3 145 224.4 144.55 225.3 145.35 225.55 145.85 224.5 146 224.15 146.1 222.8
L 146.4 220.65
Q 146.5 219.7 146.3 217.7 146.2 216.65 146 216.2
M 144.85 218.25
Q 144.9 218.75 145.25 219.65 145.2685546875 219.78984375 145.25 219.95 144.92890625 220.685546875 143.9 221.2 141.1474609375 222.79140625 138 222.95 137.765234375 222.7904296875 137.5 222.65 136.5 222.2 136 221.9 135.3 221.55 134.25 220.7 132.95 219.7 132.55 219.4 132.141796875 219.1845703125 131.75 218.95 131.853515625 218.751953125 131.9 218.45 131.95 217.65 132.05 217.4 132.121484375 217.2212890625 132.35 216.85 132.4126953125 216.8814453125 132.45 216.9 133 217.2 134.15 217.8 135.05 218.45 135.2 218.5
L 135.6 218.65 135.85 218.9 136.4 219.25
Q 139.1 220.5 140.5 220.6 141.1 220.65 142.3 220.55 142.8 220.55 143 220.45
L 143.95 219.7
Q 144.7 219.05 144.65 218.5 144 218.85 143.5 219.25 143.1 219.65 142.9 219.75 142.7 219.85 142.35 219.85 140.75 220 139.25 219.55 138.6 219.4 138 219.1
L 132.75 216.1
Q 132.91953125 215.79375 132.95 215.55 134 214.15 137.05 213.35 138.550390625 213.020703125 139.35 212.95
L 143.55 215.65
Q 144.7 216.5 144.85 217.15 144.9 217.5 144.85 218.25
M 134 209.65
Q 134.15 209.7 135.1 210.25
L 138.95 212.7
Q 136.958203125 212.6685546875 134.3 213.85 133.5 214.25 133.25 214.45 132.83125 214.78515625 132.2 215.75
L 131.4 215.3
Q 130.1 214.45 129.85 213.75
L 129.65 213.35
Q 129.55 213.1 129.3 213.2 129.2 214.15 129.4 214.45 129.45 214.55 129.8 214.9
L 131.2 216
Q 131.5859375 216.2939453125 131.85 216.5 131.54140625 217.1771484375 131.5 217.55 131.425 218.0380859375 131.5 218.8 130.484765625 218.2470703125 129.9 217.8 128.4 216.55 128.45 215.2
L 128.4 215.2
Q 129.5591796875 212.994921875 129.65 211.45 129.65 210.45 129.9 210.15 130.15 209.8 131.15 209.6 133.2 209.4 134 209.65
M 131 219.2
Q 131.2115234375 219.3029296875 131.4 219.4 132.0224609375 219.7931640625 132.95 220.55
L 132.5 220.25
Q 131.601171875 219.5962890625 131 219.2
M 137.15 223.25
Q 137.315625 223.2638671875 137.45 223.25 138.040625 223.4765625 138.6 223.6
L 137.85 223.6
Q 137.7 223.55 137.15 223.25 Z"/>

<path fill="#DDCBBB" stroke="none" d="
M 36.8 221.45
L 36.65 221.5
Q 36.96953125 221.492578125 37.2 221.8
L 38.5 223.5
Q 38.64140625 223.6572265625 38.8 223.8 38.8498046875 223.533984375 38.95 223.2
L 39.4 221.55
Q 38.2318359375 220.446484375 37.05 218.9 36.99453125 220.234375 36.8 221.45
M 40.55 219.4
Q 41.4 218.5 43.1 218.4 44.05 218.3 45.95 218.4
L 45.9 218.65
Q 44.1 218.65 42.7 218.85 42.05 218.95 41.65 219.15 40.4958984375 219.6826171875 39.9 221.25 40.869921875 222.118359375 41.65 222.6 45.55 225.1 50.2 224.15 50.15 224.95 48.85 225.05 45.25 225.35 42.05 223.55 40.8966796875 222.891015625 39.75 221.85 39.3375 223.3013671875 39 224.05 39.7505859375 224.7943359375 40.65 225.55 43.2 227.5 45.05 227.5 46 227.5 46.25 227.85 46.65 227.85 48.25 227.6
L 49.6 227.2
Q 49.8 227.15 50.85 226.65 51.65 226.3 52.2 226.2 52.2294921875 226.192578125 52.25 226.15
L 52.5 225.8 52.1 224.1 52.1 222.55
Q 51.55 221.75 51.15 221 50.95 220.55 50.6 220.2 48.95 218.55 46.75 217.6 45.6 217.05 44.65 216.6 41.8 215.45 38.75 215.85 38.636328125 215.924609375 38.5 216 38.490234375 216.0498046875 38.45 216.1 38.05 216.5 38 216.75 37.9751953125 216.8490234375 38 217 37.7587890625 217.0544921875 37.5 217.1 37.198828125 217.686328125 37.1 218.4 37.2892578125 218.5509765625 37.5 218.8 38.6287109375 220.066796875 39.6 220.95
L 39.75 220.45
Q 40.25 219.65 40.55 219.4
M 45.45 222.25
L 45.5 221.8 45.85 221.6
Q 46.95 221.3 49.3 221.1
L 49.6 221.15
Q 49.75 221.25 49.75 221.4 49.7 221.55 49.55 221.65 49.75 222.45 49.5 222.7 49.35 222.85 48.9 222.95 48.05 223.2 47.95 223.2
L 47.5 223.25 45.8 223.15
Q 45.5 223.05 45.4 222.75 45.45 222.4 45.45 222.25
M 46.2 222.4
L 46.45 222.4
Q 46.2 222.3 46.15 222.3
L 46.2 222.4
M 47.35 222.4
Q 47.85 222.4 48.05 222.3 47.6873046875 222.3806640625 47 222.4
L 47.35 222.4
M 69.15 216.1
Q 69.35 216.25 69.25 216.5
L 69.15 216.95 69.2 217.45
Q 69.2 217.8 69.05 217.85
L 68.7 217.9 68.2 217.85 67.95 217.85
Q 67.81171875 217.8154296875 67.6 217.65
L 67.3 218.15
Q 64.4 218.55 63 218.2 61.75 217.9 60.4 216.95 60.1578125 216.7791015625 59.85 216.55 59.55 217.4484375 59.55 218.35
L 59.2 218.35
Q 59.05 217.15 59.3 216.25 59.315234375 216.1837890625 59.3 216.1 58.763671875 215.6421875 58.05 215 57.4 214.35 57.25 214.1 56.9 213.4 57.2 212.9
L 57.55 212.9
Q 57.45 213.8 58.55 214.7 59.06796875 215.1654296875 59.55 215.55 59.7466796875 215.1796875 60.05 214.75 60.2 214.45 60.45 214.25 60.9 214.05 61.05 213.9 61.5 213.35 61.8 213.2 62 213.1 62.5 213.1 63.57265625 213.1 64.65 213.2 61.758984375 211.4537109375 58.6 211.95
L 58.55 211.9
Q 57.9203125 212.10625 57.3 212.25 57.2173828125 212.36015625 57.15 212.45 56.6 213.1 56.35 213.95 56.2275390625 214.25625 56.15 214.6
L 56.35 214.6
Q 56.6 216.1 56.5 217.65 56.95 217.75 57.4 218.2 57.7 218.45 58.2 218.95
L 58.55 219.2
Q 58.7087890625 219.2990234375 58.85 219.4
L 59.3 219.75
Q 59.3517578125 219.7845703125 59.5 219.95
L 61.35 221.4
Q 62.1576171875 221.973046875 62.9 222.25 63.6794921875 222.4 64.8 222.4 67.25 222.3 68.45 222.05 69.1783203125 221.8728515625 69.85 221.6 70.1048828125 221.0380859375 70.25 220.4 70.55 219.25 70.45 216.75 70.45 216.15 70.2 215.75 69.95 215.5 69.45 215.3 67.4966796875 214.60234375 65.3 213.6 65.184375 213.5205078125 65.05 213.45 65.017578125 213.45 64.95 213.45
L 62.2 213.7 60.6 215.1
Q 60.45 215.25 60.2 215.75 60.1431640625 215.8638671875 60.1 215.95 62.0359375 217.4599609375 63.45 217.75 64.808984375 218.0412109375 67.5 217.55 67.4931640625 217.5431640625 67.45 217.5
L 66.5 216.7
Q 65.95 216.5 65.85 216.2 65.75 215.8 66.1 215.65 66.35 215.55 66.65 215.65
L 68.8 215.95
Q 69.1 215.95 69.15 216.1
M 83.85 208.3
Q 83.561328125 208.09375 83.35 207.9 81.5142578125 208.511328125 79.95 209.25 79.05 209.75 78.7 210.2 78.6517578125 210.296484375 78.25 211.15 80.34765625 212.558984375 81.9 212.85 82.7 213 84.35 213 87.05 212.9 88.05 212.05 88.4 212.2 87.95 212.65 87.2 213.3 85.95 213.55 85.2 213.65 83.65 213.65 81.95 213.55 81.6 213.45 80.85 213.25 80.05 212.85 79.043359375 212.346484375 78.05 211.7
L 77.35 214.05
Q 76.9 213.4 77.2 212.25 77.390234375 211.7638671875 77.5 211.35 76.30078125 210.55078125 75.15 209.55 74.4326171875 208.922265625 74.35 208.35 73.99609375 209.081640625 73.9 209.85 73.75 211.25 73.65 211.5
L 73.55 211.5
Q 73.5935546875 211.5724609375 73.6 211.65 73.6 212.25 73.7 212.5 73.9482421875 213.3935546875 75.45 214.25 75.7162109375 214.1369140625 76.1 214.35 77.35 214.9 79.7 216.25 80.2765625 216.551953125 80.8 216.75
L 84.5 216.9
Q 85.65 216.9 86.25 216.8 87.35 216.55 88.15 215.85 88.75 215.3 89.05 215.05 89.328515625 214.822265625 89.6 214.65
L 89.55 213.45
Q 89.55 212.5 89.45 212.25 89.2 211.4 88 210.65 86.6 210.05 86 209.65
L 85 208.9
Q 83.95 208.4 83.85 208.3
M 86.65 211.35
Q 86.65 211.6 86.3 211.75
L 85.8 211.8 83.45 211.8
Q 82.55 211.8 82.1 211.7 81.7 211.6 81.55 211.45 81.25 211.15 81.4 210.9 81.5 210.6 82.15 210.5 84.6 210.3 86 210.7
L 86.45 210.9
Q 86.75 211.1 86.65 211.35
M 82.85 207.5
L 82.85 207.5 81 206.35
Q 79.92578125 205.745703125 79.1 205.55 76.4056640625 205.3068359375 75.6 206.65 75.2234375 207.0521484375 74.85 207.6 74.59375 207.9365234375 74.4 208.3 76.246875 209.791015625 77.7 210.75 77.7689453125 210.624609375 77.8 210.5 77.9 209.95 78.05 209.75 78.15 209.6 78.55 209.4 79.1 208.95 79.4 208.8 79.75 208.55 80.55 208.25
L 82.15 207.7
Q 82.5466796875 207.5626953125 82.85 207.5
M 98.7 201.5
Q 97.85 200.85 97.25 200.6 96.5515625 200.3671875 95.55 200.35 92.4375 200.34921875 92.45 201.3 92.2310546875 201.6673828125 92.05 202.15
L 91.55 203.35
Q 91.450390625 203.648828125 91.3 204.05 91.4 204.7005859375 91.4 205.35 91.4 206.2 91.45 206.35
L 91.8 206.95
Q 92.25 207.5 92.4 207.6 92.65 207.8 93.1 208.1
L 93.55 208.7
Q 93.6330078125 208.812109375 93.7 208.9 93.90546875 208.9681640625 94.15 209.1 93.9822265625 208.4443359375 94.35 207.3
L 94.8 206.05
Q 94.8841796875 205.7974609375 94.95 205.55 93.9591796875 204.901171875 93.05 204.15 92.05 203.35 91.9 202.7 93.428515625 203.92265625 95.15 205.05 95.39296875 204.6087890625 95.6 204.35 96.3 203.45 98.15 202.95 99.586328125 202.5669921875 100.35 202.7 99.5310546875 202.1197265625 98.7 201.5
M 105.75 205.85
Q 105.45 205.5 104.85 205.25 102.7201171875 204.218359375 100.7 202.9 99.7 202.95 98.55 203.3
L 97.4 203.75
Q 96.55 204.1 96.15 204.6 95.8783203125 204.8962890625 95.65 205.35 96.849609375 206.094140625 98.15 206.8 100.3 207.95 101.65 207.8 102.05 207.75 102.85 207.55 103.55 207.4 104 207.6 102.35 208.7 100.4 208.3 99.4 208.1 98.3 207.5 96.77890625 206.75234375 95.4 205.85 95.334375 206.1484375 95.25 206.45
L 94.3 209.15
Q 94.378125 209.2080078125 94.45 209.25
L 96.95 211
Q 97.294140625 211.2796875 97.65 211.5 98.4 211.9 99.05 212.05
L 103.05 212 103.8 211.75
Q 105.4 211 105.9 209.9 105.9474609375 209.9474609375 105.95 210 106.279296875 209.1361328125 106.2 207.55 106.2 206.35 105.75 205.85
M 104.65 205.9
L 104.5 205.95
Q 104.65 206.4 104.15 206.7
L 103.7 206.9 101.5 206.9
Q 101.25 206.9 101.15 206.8
L 101.1 206.55
Q 101 206.05 101.25 205.85
L 101.6 205.75
Q 103.15 205.4 104.25 205.45
L 104.6 205.55
Q 104.8 205.75 104.65 205.9
M 124.75 202.15
Q 124.75 201.45 124.65 201.1 124.35 200.3 122.6 199.55 121.6998046875 199.1408203125 120.1 198.15 120.15 198.2255859375 120.15 198.3 116.9 198.7 115.7 199.85 115.371875 200.20546875 115.05 200.65 116.1173828125 201.3169921875 117.05 201.65 117.8 201.9 119.65 202.35 121.25 202.65 122.1 202.65 123.45 202.65 124.3 202.05 124.7 202.45 123.95 202.8 121.95 203.9 117.85 202.7 115.85 202.05 115.05 201.6 114.8525390625 201.496484375 114.65 201.35 114.6220703125 201.4080078125 114.6 201.45
L 113.1 204.05
Q 113.412890625 204.2546875 113.75 204.5 115.35 205.7 115.6 205.85 116.2267578125 206.2375 116.85 206.5 117.8267578125 206.90546875 118.8 207.05 120.0779296875 207.23828125 121.4 207 121.95 206.9 122.2 206.95 122.47578125 207.0603515625 122.6 207.2 123.3015625 207.0552734375 124 206.7 124.5728515625 205.9240234375 124.7 205.5 124.8 205.1 124.8 204.3
L 124.75 202.15
M 122.35 200.4
Q 122.85 200.4 123.05 200.55 123.15 200.65 123.25 201 123.45 201.5 123.15 201.75
L 122.8 201.8 120.7 201.8
Q 120 201.8 119.15 201.65 118.95 201.65 118.8 201.5 118.65 201.35 118.7 201.15 118.75 200.9 118.95 200.8 119.2 200.6 119.7 200.6
L 122.35 200.4
M 55 234.4
Q 54.45 234.5 54.15 234.8 53.7 235.15 53.6 236 53.6 236.5 53.5 237.5
L 53.1 238.65
Q 53.04921875 238.8279296875 53 239.05 53.0333984375 239.234375 53.05 239.45 53.05 240.1 53.15 240.4 53.3 240.8 53.6 241.2 54 241.75 54.6 242.25
L 59.45 245.85
Q 60.1 246.4 60.7 246.75 62 247.4 64.35 247.2 66.1 247.1 67.3 246.65 68.05 246.35 68.65 245.9 69.6 245.25 69.8 244.7
L 69.95 243.8 70.1 241.05
Q 69.85 240.75 69.2 240.15 68.55 239.6 68.3 239.2
L 67.8 238.35 67.3 237.85
Q 67.25 237.8 66.65 236.9 66.3 236.35 65 235.25 63.65 234.1 62.7 233.75 61.85 233.5 60.5 233.5 57.7 233.6 55 234.4
M 57.7 239.45
Q 57.6259765625 239.56640625 57.55 239.7 59.9654296875 241.2884765625 61.35 241.75 62.3 242 63.75 242.2
L 66.15 242.5
Q 64.45 242.95 62.75 242.75 61 242.5 59.1 241.4 58.3923828125 241.0166015625 57.35 240.3 57.2376953125 240.758203125 57.15 241.35 56.7443359375 240.74140625 56.8 239.95 56.3263671875 239.615625 55.75 239.2 54.85 238.5 54.5 238.05 53.85 237.25 54.1 236.4 54.25 236.5 54.6 237.1 55.1779296875 238.1595703125 57 239.35 57.2947265625 238.7962890625 57.95 238.1 58.8 237.15 59.5 236.8 59.9 236.55 61.15 236.25 62.7 235.9 64.45 235.8 65.15 235.7 65.35 236.1
L 62.25 236.65
Q 60.55 236.95 59.85 237.4 59.35 237.65 58.55 238.45 57.85 239.15 57.7 239.45
M 67.1 239.8
Q 67.3 240.1 67.15 240.45 67 240.85 66.1 240.85
L 64.55 240.8
Q 63.95 240.8 63.3 240.55
L 62.95 240.35 62.9 239.95
Q 62.9 239.55 63.05 239.4 63.15 239.35 63.6 239.35
L 64.5 239.2 65.15 239.2
Q 66.15 239.2 66.55 239.35 66.95 239.5 67.1 239.8
M 85.3 230.75
Q 85.0322265625 230.5525390625 84.75 230.35 81.1966796875 230.468359375 78.05 232.3 77.1 232.85 76.75 233.45 76.6853515625 233.5630859375 76.6 233.7 78.028515625 234.8427734375 79.05 235.4 80.9 236.45 83.1 236.65 85.25 236.8 87.25 236.1 85.9 237.7 82.45 237.2 80.5 236.85 79.1 236.2 78.35 235.85 76.65 234.55
L 76.4 234.35
Q 76.380859375 234.4763671875 76.35 234.6
L 75.85 236.9
Q 75.65 235.65 75.85 234.35 75.889453125 234.1794921875 75.95 234
L 72.35 231.2
Q 72.3 231.6140625 72.3 232.1 72.4 234.15 72.2 234.95 72.2 235.094140625 72.15 235.2
L 72.6 235.65
Q 73.1 236.25 74.4 237.05 76.1 238.1 77.8 239.65
L 77.75 239.65
Q 78.3140625 240.066796875 78.95 240.5 80.15 241.3 80.8 241.5 81.4 241.65 82.55 241.65
L 85.85 241.6
Q 85.8705078125 241.74296875 85.85 241.85 86.2080078125 241.8015625 86.6 241.7 88.7720703125 241.0484375 89.9 240.2 89.6 238.415625 89.6 236.1 89.7 234.85 89.45 234.25 89.25 233.8 88.45 233.1 86.35 231.55 85.3 230.75
M 81.5 234.1
Q 81.7 234.1 82 234.15 82.25 234.1 82.85 233.75 83.2 233.6 83.8 233.6
L 85.55 233.6
Q 86.05 233.7 86.05 234.1 86.05 234.4 85.5 234.75
L 84.55 235.2
Q 83.55 235.55 81.4 235.35
L 81.05 235.2
Q 80.95 235.1 80.95 234.8 80.95 234.35 81.1 234.2 81.2 234.1 81.5 234.1
M 85.6 240.65
Q 85.05 240.95 84.1 240.85 82.35 240.7 80.95 240.2
L 80.75 240.1
Q 80.7 240.05 80.7 239.9 80.75 239.8 80.85 239.75 81 239.6 81.3 239.7 81.7 239.7 83.05 239.9 84.15 240.05 84.8 240 86.05 239.9 86.4 239.95 85.95 240.45 85.6 240.65
M 82.5 228.05
Q 82 227.25 81.6 227.05 81.25 226.85 80.7 226.95 76.55 227.05 73 229.35 72.654296875 229.819140625 72.45 230.5
L 76.15 233.35
Q 76.232421875 233.23515625 76.3 233.1 76.75 232.3 78.05 231.6 79.35 230.85 80.75 230.4 82.8779296875 229.730078125 84.45 230.05 83.186328125 229.04140625 82.5 228.05
M 95.9 221.85
L 94.35 222.2
Q 93.65 222.4 92.95 222.8
L 92.4 223.15
Q 92.261328125 223.3232421875 92.2 223.7 92.3763671875 223.6763671875 92.5 223.8 92.65 223.95 92.6 224.2
L 92.6 225
Q 92.65 225.1 93.2 225.5 93.5 225.7 93.95 226.2
L 95.05 227
Q 95.5 227.4 96.35 228.3 96.329296875 227.9337890625 96.3 227.7 96.3 227.05 96.5 226.6 96.85 225.95 98.6 225.2 99.35 224.9 100.95 224.25 102.4 223.9 103.4 224.35 102.45 224.5 101.35 224.8 100.25 225.1 98.15 226.1 97.4 226.45 97.05 226.9 96.8 227.35 96.8 228.45 96.802734375 228.5017578125 96.8 228.55
L 97.25 228.8
Q 97.75 229.1 98.65 229.95 99.55 230.6 101.3 230.7 102.3 230.7 104.4 230.3
L 107.5 229.7 107.65 229.85
Q 107 230.35 105.3 230.65 103.9 231 103.2 231.15 102 231.45 101.1 231.45 100.25 231.45 99.5 231.25 98.25 230.85 97.7 230.3
L 97 229.6 96.75 229.45
Q 96.6384765625 230.5744140625 96 231 96.4130859375 230.132421875 96.4 229.25
L 96.05 229.05
Q 95.75 228.9 94.8 227.95
L 92.5 226.1
Q 92.325 225.95 92.2 225.8
L 92.2 228.3
Q 92.4447265625 228.3677734375 92.65 228.65 96.8 234 103.5 234.7 106.280859375 234.7 108.65 233.35 108.67109375 233.294921875 108.7 233.2 109.15 231.75 109.25 231.3 109.4 230.4 109.4 229.5 109.5 228.85 109.25 228.25 109 227.5 108.15 226.9 107.7 226.55 106.55 225.95 105.3 225.3 102.3 223.25
L 100.4 221.9
Q 99.45 221.3 99.1 221.2 98.4 220.95 97.2 221.35 96.35 221.75 95.9 221.85
M 100.95 228.35
Q 100.95 228.1 101.1 227.85 101.25 227.6 101.55 227.6 101.85 227.5 102.5 227.5 102.75 227.45 103.25 227.2 103.55 227.1 104.1 227.1
L 105.15 227.1
Q 105.55 227.1 105.7 227.2 106.1 227.45 105.85 228 105.6 228.4 105.2 228.55 104.45 228.9 102.8 228.9
L 101.6 228.9
Q 101.25 228.9 101.1 228.75
L 100.95 228.35
M 102.8 234.2
L 101.8 233.8
Q 101.55 233.7 101.55 233.55 101.55 233.3 101.95 233.3 102.2 233.3 103.1 233.55 103.8 233.7 104.2 233.65 104.5 233.65 105.15 233.4 105.75 233.2 106.1 233.25 106.3 233.25 106.3 233.45
L 105.2 234.1
Q 104.9 234.25 104.8 234.25
L 104.4 234.3
Q 103.35 234.3 102.8 234.2
M 125.9 220.8
Q 125.45 220.45 123.55 219.25
L 120.95 217.65
Q 119.95 217 119.3 216.8 118.4 216.55 117 216.65 114.7 216.75 113.65 217.05 112.55 217.4 111.4 218.05
L 111.25 219.2 113.35 220.75
Q 114.08671875 221.3025390625 114.75 221.75
L 114.8 221.65
Q 115.05 221.15 115.8 220.65 119.15 218.6 123 219.25 123.4 219.25 123.3 219.55 120.65 219.55 119.35 219.85 117.95 220.2 116.15 221.2 115.5 221.5 115.25 221.85 115.2095703125 221.9107421875 115.15 222.05 117.901171875 223.9416015625 119.65 224.55 123.2 225.85 125.45 224.15 125.2 225.15 124.1 225.6 123.3 225.95 122.1 225.85 120.15 225.7 118.45 224.95 117.198046875 224.347265625 115.05 222.75 114.88125 223.9744140625 114.05 225.05 113.95 224.6 114.15 223.95 114.5 222.9 114.5 222.85
L 114.6 222.4 112.75 221.05
Q 111.6263671875 220.21640625 111.2 219.5
L 111.1 220.45
Q 111.0201171875 221.249609375 110.85 221.7 110.9248046875 222.13203125 110.9 222.75 111.05 223.75 112.85 225 116.25 227.3 118.1 228.25 119.6 229.1 120.7 229.2
L 121.9 229.2
Q 123 229.2 123.55 229.05 124 229 124.7 228.7 126.4482421875 228.1298828125 127.45 227.45 127.3423828125 227.3232421875 127.25 227.2 126.8 226.55 126.8 224.95
L 126.8 222.8
Q 126.9 221.95 126.6 221.5 126.45 221.15 125.9 220.8
M 123.9 222
Q 124.55 222 124.7 222.4 124.75 222.7 124.45 223 123.65 223.8 122.8 223.95 121.8 224.15 120.35 223.15 119.85 222.85 119.85 222.55 119.85 222.2 120.25 222 120.45 221.9 120.95 221.9
L 123.9 222
M 122.7 227.8
L 123.75 227.65
Q 124 227.6 124.65 227.3 125.15 227.1 125.5 227.05 125.8 227.05 125.95 227.2 124.95 227.85 123.95 228.15 122.6 228.5 120.8 228.15 120.6 228.15 120.5 228.05 120.4 227.85 120.55 227.75 121.45 227.9 122.7 227.8
M 135.1 210.25
Q 134.15 209.7 134 209.65 133.2 209.4 131.15 209.6 130.15 209.8 129.9 210.15 129.65 210.45 129.65 211.45 129.5591796875 212.994921875 128.4 215.2
L 128.45 215.2
Q 128.4 216.55 129.9 217.8 130.484765625 218.2470703125 131.5 218.8 131.425 218.0380859375 131.5 217.55 131.54140625 217.1771484375 131.85 216.5 131.5859375 216.2939453125 131.2 216
L 129.8 214.9
Q 129.45 214.55 129.4 214.45 129.2 214.15 129.3 213.2 129.55 213.1 129.65 213.35
L 129.85 213.75
Q 130.1 214.45 131.4 215.3
L 132.2 215.75
Q 132.83125 214.78515625 133.25 214.45 133.5 214.25 134.3 213.85 136.958203125 212.6685546875 138.95 212.7
L 135.1 210.25
M 145.25 219.65
Q 144.9 218.75 144.85 218.25 144.9 217.5 144.85 217.15 144.7 216.5 143.55 215.65
L 139.35 212.95
Q 138.550390625 213.020703125 137.05 213.35 134 214.15 132.95 215.55 132.91953125 215.79375 132.75 216.1
L 138 219.1
Q 138.6 219.4 139.25 219.55 140.75 220 142.35 219.85 142.7 219.85 142.9 219.75 143.1 219.65 143.5 219.25 144 218.85 144.65 218.5 144.7 219.05 143.95 219.7
L 143 220.45
Q 142.8 220.55 142.3 220.55 141.1 220.65 140.5 220.6 139.1 220.5 136.4 219.25
L 135.85 218.9 135.6 218.65 135.2 218.5
Q 135.05 218.45 134.15 217.8 133 217.2 132.45 216.9 132.4126953125 216.8814453125 132.35 216.85 132.121484375 217.2212890625 132.05 217.4 131.95 217.65 131.9 218.45 131.853515625 218.751953125 131.75 218.95 132.141796875 219.1845703125 132.55 219.4 132.95 219.7 134.25 220.7 135.3 221.55 136 221.9 136.5 222.2 137.5 222.65 137.765234375 222.7904296875 138 222.95 141.1474609375 222.79140625 143.9 221.2 144.92890625 220.685546875 145.25 219.95 145.2685546875 219.78984375 145.25 219.65
M 141.75 216.8
Q 142.1 216.7 142.35 216.85 142.7 216.95 142.7 217.3 142.7 217.5 142.4 217.8 142.05 218.15 141.8 218.2
L 141.4 218.25
Q 139.45 218.25 138.9 218.15
L 138.2 217.95
Q 137.85 217.75 137.75 217.35
L 137.85 217.05
Q 137.9 217.05 138.25 216.9
L 141.75 216.8
M 110.7 197.4
Q 110.95 197.4 111.2 197.65 113.95 199.9 114 199.9 114.28984375 200.11953125 114.55 200.3 114.765234375 200.01328125 114.95 199.8 116.2 198.35 119.6 198.05 119.802734375 198.0130859375 119.9 198.05 119.673828125 197.8759765625 119.4 197.7 117.3 196.35 116.15 195.8 115.3 195.35 114.45 195.2
L 113.6 195.15
Q 112.9 195.15 112.55 195.25 111.75 195.4 111.2 195.95 110.75 196.4 110.1 198
L 109.3 200.25
Q 109.2779296875 200.303125 109.25 200.35 109.6513671875 200.493359375 110 200.8 110.294140625 201.0587890625 110.55 201.4 110.65 201.5 111.5 202.95 111.64140625 203.1818359375 111.8 203.4 112.1865234375 203.5365234375 112.6 203.75 112.7072265625 203.6443359375 112.8 203.5 113.45 202.55 113.55 202.4 113.8650390625 201.623046875 114.15 201.05 113.458984375 200.5291015625 112.65 199.75
L 110.35 197.75
Q 110.25 197.4 110.7 197.4 Z"/>

<path fill="#F9E6D5" stroke="none" d="
M 45.5 221.8
L 45.45 222.25
Q 45.45 222.4 45.4 222.75 45.5 223.05 45.8 223.15
L 47.5 223.25 47.95 223.2
Q 48.05 223.2 48.9 222.95 49.35 222.85 49.5 222.7 49.75 222.45 49.55 221.65 49.7 221.55 49.75 221.4 49.75 221.25 49.6 221.15
L 49.3 221.1
Q 46.95 221.3 45.85 221.6
L 45.5 221.8
M 48.05 222.3
Q 47.85 222.4 47.35 222.4
L 47 222.4
Q 47.6873046875 222.3806640625 48.05 222.3
M 46.45 222.4
L 46.2 222.4 46.15 222.3
Q 46.2 222.3 46.45 222.4
M 69.25 216.5
Q 69.35 216.25 69.15 216.1 69.1 215.95 68.8 215.95
L 66.65 215.65
Q 66.35 215.55 66.1 215.65 65.75 215.8 65.85 216.2 65.95 216.5 66.5 216.7
L 67.45 217.5
Q 67.4931640625 217.5431640625 67.5 217.55 67.5810546875 217.6193359375 67.6 217.65 67.81171875 217.8154296875 67.95 217.85
L 68.2 217.85 68.7 217.9 69.05 217.85
Q 69.2 217.8 69.2 217.45
L 69.15 216.95 69.25 216.5
M 86.3 211.75
Q 86.65 211.6 86.65 211.35 86.75 211.1 86.45 210.9
L 86 210.7
Q 84.6 210.3 82.15 210.5 81.5 210.6 81.4 210.9 81.25 211.15 81.55 211.45 81.7 211.6 82.1 211.7 82.55 211.8 83.45 211.8
L 85.8 211.8 86.3 211.75
M 104.5 205.95
L 104.65 205.9
Q 104.8 205.75 104.6 205.55
L 104.25 205.45
Q 103.15 205.4 101.6 205.75
L 101.25 205.85
Q 101 206.05 101.1 206.55
L 101.15 206.8
Q 101.25 206.9 101.5 206.9
L 103.7 206.9 104.15 206.7
Q 104.65 206.4 104.5 205.95
M 123.05 200.55
Q 122.85 200.4 122.35 200.4
L 119.7 200.6
Q 119.2 200.6 118.95 200.8 118.75 200.9 118.7 201.15 118.65 201.35 118.8 201.5 118.95 201.65 119.15 201.65 120 201.8 120.7 201.8
L 122.8 201.8 123.15 201.75
Q 123.45 201.5 123.25 201 123.15 200.65 123.05 200.55
M 67.15 240.45
Q 67.3 240.1 67.1 239.8 66.95 239.5 66.55 239.35 66.15 239.2 65.15 239.2
L 64.5 239.2 63.6 239.35
Q 63.15 239.35 63.05 239.4 62.9 239.55 62.9 239.95
L 62.95 240.35 63.3 240.55
Q 63.95 240.8 64.55 240.8
L 66.1 240.85
Q 67 240.85 67.15 240.45
M 84.1 240.85
Q 85.05 240.95 85.6 240.65 85.95 240.45 86.4 239.95 86.05 239.9 84.8 240 84.15 240.05 83.05 239.9 81.7 239.7 81.3 239.7 81 239.6 80.85 239.75 80.75 239.8 80.7 239.9 80.7 240.05 80.75 240.1
L 80.95 240.2
Q 82.35 240.7 84.1 240.85
M 82 234.15
Q 81.7 234.1 81.5 234.1 81.2 234.1 81.1 234.2 80.95 234.35 80.95 234.8 80.95 235.1 81.05 235.2
L 81.4 235.35
Q 83.55 235.55 84.55 235.2
L 85.5 234.75
Q 86.05 234.4 86.05 234.1 86.05 233.7 85.55 233.6
L 83.8 233.6
Q 83.2 233.6 82.85 233.75 82.25 234.1 82 234.15
M 101.8 233.8
L 102.8 234.2
Q 103.35 234.3 104.4 234.3
L 104.8 234.25
Q 104.9 234.25 105.2 234.1
L 106.3 233.45
Q 106.3 233.25 106.1 233.25 105.75 233.2 105.15 233.4 104.5 233.65 104.2 233.65 103.8 233.7 103.1 233.55 102.2 233.3 101.95 233.3 101.55 233.3 101.55 233.55 101.55 233.7 101.8 233.8
M 101.1 227.85
Q 100.95 228.1 100.95 228.35
L 101.1 228.75
Q 101.25 228.9 101.6 228.9
L 102.8 228.9
Q 104.45 228.9 105.2 228.55 105.6 228.4 105.85 228 106.1 227.45 105.7 227.2 105.55 227.1 105.15 227.1
L 104.1 227.1
Q 103.55 227.1 103.25 227.2 102.75 227.45 102.5 227.5 101.85 227.5 101.55 227.6 101.25 227.6 101.1 227.85
M 123.75 227.65
L 122.7 227.8
Q 121.45 227.9 120.55 227.75 120.4 227.85 120.5 228.05 120.6 228.15 120.8 228.15 122.6 228.5 123.95 228.15 124.95 227.85 125.95 227.2 125.8 227.05 125.5 227.05 125.15 227.1 124.65 227.3 124 227.6 123.75 227.65
M 124.7 222.4
Q 124.55 222 123.9 222
L 120.95 221.9
Q 120.45 221.9 120.25 222 119.85 222.2 119.85 222.55 119.85 222.85 120.35 223.15 121.8 224.15 122.8 223.95 123.65 223.8 124.45 223 124.75 222.7 124.7 222.4
M 142.35 216.85
Q 142.1 216.7 141.75 216.8
L 138.25 216.9
Q 137.9 217.05 137.85 217.05
L 137.75 217.35
Q 137.85 217.75 138.2 217.95
L 138.9 218.15
Q 139.45 218.25 141.4 218.25
L 141.8 218.2
Q 142.05 218.15 142.4 217.8 142.7 217.5 142.7 217.3 142.7 216.95 142.35 216.85 Z"/>

<path fill="#E3C5AB" stroke="none" d="
M 140.4 252.45
Q 139.65 250.65 137.7 250.2 135.65 249.85 133.6 250.2 129.65 250.9 125.75 251.6 124.475 251.8880859375 123.3 252.2 124.621875 252.869140625 125.4 253.55 126.8 254.8 127.3 257 127.5205078125 258.0083984375 127.5 259.3 132.24375 257.84609375 136.85 256.1 137.05 256.25 136.9 256.5 136.85 256.65 136.6 256.75 135.8041015625 257.1751953125 135 257.55 136.13359375 257.12578125 136.9 256.75
L 136.9 257.25
Q 136.55 257.75 136.55 258.75 139.0666015625 257.6501953125 141.05 256.8 141.158203125 256.3212890625 141.2 256.2 141.1390625 254.2978515625 140.4 252.45
M 138.6 252.75
Q 138.6 253.15 138.35 253.4 138.05 253.8 137.2 254.1 136.15 254.35 135.25 254.2 134.9 254.1 134.9 254.05
L 134.75 253.45
Q 134.65 252.7 133.4 252.5
L 131.5 252.05
Q 131.15 251.95 131 251.75 130.9 251.4 131.25 251.25 131.5 251.1 131.8 251.1 135.5 251 137.7 251.7 138.2 251.9 138.4 252.1 138.6 252.35 138.6 252.75
M 112.25 254.45
Q 112.2 254.1 112.85 254
L 112.9 254
Q 112.9728515625 252.2140625 112.7 251.35 112.1 249.55 110.35 248.7 108.85 247.85 106.9 247.85 103 247.8 99.15 250.3 97.33359375 251.4208984375 94.5 253.95 95.0525390625 253.75 95.9 253.75 101.1 253.75 105.25 256.95
L 106.1 257.7
Q 106.7 258.2 106.3 258.5
L 103.9 256.85
Q 102.7 256 101.75 255.55 100.85 255.15 99.65 254.9 96.907421875 254.26328125 94.4 254.05 93.6416015625 254.750390625 92.8 255.55
L 89.7 258.45
Q 88.0326171875 259.8697265625 87.4 261.85 87.39375 261.9591796875 87.35 262.05 87.358984375 262.133984375 87.35 262.2 87.5646484375 262.4111328125 87.8 262.6 89.0251953125 263.628515625 90.65 264.1 91.7654296875 264.396484375 93.05 264.45 95.85 264.65 98.7 263.65 99.5 263.4 100.6 262.85
L 102.3 262.05
Q 102.8 261.75 104.7 260.35 105.941796875 259.45078125 106.9 259 108.048828125 258.2568359375 109.15 257.5 109.892578125 255.9314453125 112.25 254.45
M 108.4 250.45
Q 108.25 250.85 107.35 250.75 104.25 250.25 101.35 250.85
L 100.6 250.9
Q 100.15 250.8 100.15 250.35 100.15 250.05 100.65 249.75 102.75 248.6 105.15 248.9 105.65 248.95 107.65 249.55 108.15 249.8 108.2 249.85 108.5 250.15 108.4 250.45
M 90.25 261.8
L 89.85 261.45
Q 89.5 260.8 89.9 260.3 90.5 260.25 91.65 260.35
L 92.9 260.55
Q 93.75 260.7 94.5 260.7 94.75 260.75 95.25 260.8
L 95.65 260.9 97.5 260.95
Q 98.4 260.95 98.8 261.1
L 99.2 261.3
Q 99.5 261.7 99.15 262.15 98.9 262.5 98.4 262.65 97.85 262.85 96.75 263.05
L 95.5 263.15
Q 93.6 263.15 91.7 262.55
L 91.2 262.35 90.25 261.8
M 97.9 261.8
L 97.5 261.8 97.45 261.85 97.85 261.85 97.9 261.8
M 120.4 253.05
Q 119.95078125 253.319140625 119.4 253.35 116.6392578125 254.30546875 116.55 254.35 114.789453125 254.8529296875 113.35 254.8 112.95078125 255.1025390625 112.3 255.55 111.35 256.25 110.85 256.9 110.3708984375 257.6185546875 110.15 258.95 110.164453125 259.10078125 110.15 259.2 110.137109375 259.3455078125 110.1 259.45 110.889453125 260.4009765625 112.15 261 112.4734375 261.13046875 112.8 261.25 114.35 261.75 116.5 261.85 117.4 261.95 118.2 261.85 119.5 261.7 121.15 261.2 124.0734375 260.4009765625 126.95 259.5 126.844140625 258.0294921875 126.65 257.35 126.25 255.6 124.6 253.95 123.8 253.15 123 252.75 122.5669921875 252.6056640625 122.35 252.45 121.333984375 252.7482421875 120.4 253.05
M 113.05 258.6
Q 112.2 257.95 112.25 257.4 112.25 257.05 112.5 256.9 112.8 256.75 113.4 257.05 114.45 257.55 116.3 257.8 117.05 257.9 117.1 258.35 117.2 258.75 116.7 258.95 116.05 259.35 115 259.25 114.3 259.25 114 259.1 113.65 259 113.05 258.6
M 88.85 247.35
Q 86.05 246.1 83.05 247.25 79.45 248.55 76.3 250.8 73.8640625 252.505078125 71.8 254.4 71.3107421875 254.8486328125 70.85 255.3 70.5373046875 255.591796875 70.25 255.9 70.1060546875 256.0205078125 69.95 256.15 68.1041015625 257.861328125 67.9 260.3 68.1578125 260.344921875 68.4 260.65 68.528515625 260.833984375 68.65 261.05 69.05 261.6 70.25 262.2 70.304296875 262.22109375 70.35 262.25 72.0771484375 262.9029296875 72.95 263 73.65 263.15 74.5 263.05 76.15 262.9 78.15 261.9 78.9 261.45 81.45 259.8 82.910546875 258.8140625 84.25 258 84.2451171875 257.4126953125 84.2 256.85 81.2609375 254.6560546875 77.95 253.65 77.25546875 253.4548828125 76.55 253.3 76.5 253.05 76.8 252.95 77.05 252.85 77.3 252.9 78.010546875 253.0390625 78.85 253.3 80.7583984375 253.95234375 83.35 255.3 84.3 255.85 84.5 256.15 84.873828125 256.6173828125 84.9 257.6 85.074609375 257.50234375 85.25 257.4
L 86.6 256.65 90.75 254.85
Q 90.5837890625 255.1408203125 90.3 255.4 90.9361328125 255.1078125 91.4 254.85 91.4 254.8376953125 91.4 254.8
L 91.15 251.55
Q 91.073828125 250.178125 90.7 249.3 90.630859375 249.0640625 90.5 248.85 90.2240234375 248.4953125 89.85 248.15 89.755859375 248.0453125 89.65 247.95 89.2513671875 247.6259765625 88.85 247.35
M 86.55 248.2
L 88.75 249.05
Q 89.35 249.3 89.65 249.6 90.1 250.15 89.8 250.5 89.55 251 88.95 250.9 88.3 250.65 88 250.55 86.85 250 85.15 249.75 85 249.75 82.15 249.45 81.6 249.35 81.55 249.05 81.55 248.9 81.75 248.7 82.25 248.15 83.3 248.05 83.9 248 85.05 248.1
L 86.55 248.2
M 77.1 258.65
Q 77.75 258.55 77.95 258.9 78.3 259.45 77.45 259.95 76 260.85 72.8 260.75 71.95 260.75 71.35 260.55 70.9 260.4 70.1 259.8 69.7 259.4 69.65 259.25 69.55 258.75 69.85 258.6 70.1 258.55 70.4 258.65 71.75 259 73.7 258.9 74.85 258.85 77.1 258.65
M 90.95 243.9
Q 90.9611328125 243.9630859375 90.95 244 90.9748046875 243.980078125 91 243.95 91.1384765625 243.9283203125 91.25 244.3 91.2603515625 244.367578125 91.25 244.4 91.4541015625 245.001953125 92.35 245.45 93.6634765625 246.106640625 95.45 246.45 96.245703125 246.6068359375 97.1 246.7 97.745703125 246.7650390625 98.4 246.8 98.7615234375 246.8171875 99.15 246.8 100.76328125 246.9064453125 103.2 247 103.5509765625 246.9146484375 103.9 246.85 104.55 246.7 106.95 246.6 108.45 246.6 108.75 246.65 109.85 246.9 110.8 247.4 111.0388671875 247.5001953125 111.25 247.6 111.6466796875 247.5791015625 112 247.55 112.4095703125 246.988671875 113.65 246.9 116.4 246.6 119.2 245.6 120.2 245.25 120.7 244.85 120.874609375 244.7453125 121.15 244.55 120.5 243.05 117.55 242.3 117.0287109375 242.1751953125 116.5 242.05 114.9412109375 241.7201171875 113.25 241.45 110.2884765625 241.043359375 106.95 240.9 106.9259765625 240.998046875 106.85 241.15 106.928515625 241.0904296875 107.05 241.05
L 107.35 241.2
Q 107.15 241.35 107.05 241.85 107 242.2 107 243.05 107.004296875 243.113671875 107 243.15 107.0373046875 243.833984375 106.9 244.2 106.8533203125 244.387109375 106.75 244.7
L 106.75 244.75 106.6 245.5
Q 106.6 245.55 106.45 245.4 106.3724609375 245.12890625 106.4 244.8 106.4275390625 244.7013671875 106.45 244.6 106.55 244.05 106.55 243.75 106.55 243.5140625 106.55 243.3 106.5599609375 242.426171875 106.6 241.9 106.3353515625 242.7171875 106.3 243
L 106.25 244.2
Q 106.2275390625 244.54765625 106.25 244.85 106.2734375 245.8958984375 106.7 246.4
L 106.5 246.5
Q 105.95 246.25 105.65 245.4 105.6146484375 245.24140625 105.6 245 105.55 244.6150390625 105.55 244 105.57265625 243.7669921875 105.6 243.55 105.7076171875 242.4125 105.75 242.2
L 106.05 241.35 106.3 240.85
Q 101.0888671875 240.672265625 95.1 241.2 93.05 241.3 92.1 242.05 91.3712890625 242.663671875 90.95 243.9
M 94.4 243
Q 95 243.3 95 243.85 95.85 244.3 97.1 244.4
L 97.5 244.5
Q 97.7 244.6 97.7 244.85 97.6 245.1 97.3 245.1 95.35 245.5 93.75 244.3 93.7 244.45 93.45 244.45 93.2 244.45 93.1 244.3 92.85 244.05 92.85 243.55
L 92.95 243.2
Q 93.15 243 93.3 243 93.95 242.8 94.4 243
M 114.15 242.8
Q 114.1201171875 242.730859375 114.1 242.65 114 242.35 114.4 242.25 114.5 242.25 114.95 242.45 115.45 242.7 116.55 242.7 117.45 242.85 117.95 243.35 118.45 243.85 118.45 244.35 118.45 244.55 118.25 244.7
L 117.95 244.75 117 244.75
Q 116.55 244.75 116.5 244.55 116.5361328125 244.297265625 116.5 244.15 116.104296875 243.9177734375 115.55 243.8 115.055078125 243.7 114.6 243.7 114.3533203125 243.7 114.2 243.65 114.1908203125 243.65 114.15 243.65 113.9 243.65 113.8 243.55 113.7 243.5 113.7 243.3 113.6 243.05 113.85 242.95
L 114.05 242.85
Q 114.1140625 242.8287109375 114.15 242.8
M 117.35 244
L 117.5 244 117.4 243.95
Q 117.3951171875 243.9826171875 117.35 244 Z"/>

<path fill="#ECDCCF" stroke="none" d="
M 138.35 253.4
Q 138.6 253.15 138.6 252.75 138.6 252.35 138.4 252.1 138.2 251.9 137.7 251.7 135.5 251 131.8 251.1 131.5 251.1 131.25 251.25 130.9 251.4 131 251.75 131.15 251.95 131.5 252.05
L 133.4 252.5
Q 134.65 252.7 134.75 253.45
L 134.9 254.05
Q 134.9 254.1 135.25 254.2 136.15 254.35 137.2 254.1 138.05 253.8 138.35 253.4
M 89.85 261.45
L 90.25 261.8 91.2 262.35 91.7 262.55
Q 93.6 263.15 95.5 263.15
L 96.75 263.05
Q 97.85 262.85 98.4 262.65 98.9 262.5 99.15 262.15 99.5 261.7 99.2 261.3
L 98.8 261.1
Q 98.4 260.95 97.5 260.95
L 95.65 260.9 95.25 260.8
Q 94.75 260.75 94.5 260.7 93.75 260.7 92.9 260.55
L 91.65 260.35
Q 90.5 260.25 89.9 260.3 89.5 260.8 89.85 261.45
M 97.5 261.8
L 97.9 261.8 97.85 261.85 97.45 261.85 97.5 261.8
M 107.35 250.75
Q 108.25 250.85 108.4 250.45 108.5 250.15 108.2 249.85 108.15 249.8 107.65 249.55 105.65 248.95 105.15 248.9 102.75 248.6 100.65 249.75 100.15 250.05 100.15 250.35 100.15 250.8 100.6 250.9
L 101.35 250.85
Q 104.25 250.25 107.35 250.75
M 112.25 257.4
Q 112.2 257.95 113.05 258.6 113.65 259 114 259.1 114.3 259.25 115 259.25 116.05 259.35 116.7 258.95 117.2 258.75 117.1 258.35 117.05 257.9 116.3 257.8 114.45 257.55 113.4 257.05 112.8 256.75 112.5 256.9 112.25 257.05 112.25 257.4
M 77.95 258.9
Q 77.75 258.55 77.1 258.65 74.85 258.85 73.7 258.9 71.75 259 70.4 258.65 70.1 258.55 69.85 258.6 69.55 258.75 69.65 259.25 69.7 259.4 70.1 259.8 70.9 260.4 71.35 260.55 71.95 260.75 72.8 260.75 76 260.85 77.45 259.95 78.3 259.45 77.95 258.9
M 88.75 249.05
L 86.55 248.2 85.05 248.1
Q 83.9 248 83.3 248.05 82.25 248.15 81.75 248.7 81.55 248.9 81.55 249.05 81.6 249.35 82.15 249.45 85 249.75 85.15 249.75 86.85 250 88 250.55 88.3 250.65 88.95 250.9 89.55 251 89.8 250.5 90.1 250.15 89.65 249.6 89.35 249.3 88.75 249.05
M 114.1 242.65
Q 114.1201171875 242.730859375 114.15 242.8 114.1140625 242.8287109375 114.05 242.85
L 113.85 242.95
Q 113.6 243.05 113.7 243.3 113.7 243.5 113.8 243.55 113.9 243.65 114.15 243.65 114.1908203125 243.65 114.2 243.65 114.3533203125 243.7 114.6 243.7 115.055078125 243.7 115.55 243.8 116.104296875 243.9177734375 116.5 244.15 116.5361328125 244.297265625 116.5 244.55 116.55 244.75 117 244.75
L 117.95 244.75 118.25 244.7
Q 118.45 244.55 118.45 244.35 118.45 243.85 117.95 243.35 117.45 242.85 116.55 242.7 115.45 242.7 114.95 242.45 114.5 242.25 114.4 242.25 114 242.35 114.1 242.65
M 117.5 244
L 117.35 244
Q 117.3951171875 243.9826171875 117.4 243.95
L 117.5 244
M 95 243.85
Q 95 243.3 94.4 243 93.95 242.8 93.3 243 93.15 243 92.95 243.2
L 92.85 243.55
Q 92.85 244.05 93.1 244.3 93.2 244.45 93.45 244.45 93.7 244.45 93.75 244.3 95.35 245.5 97.3 245.1 97.6 245.1 97.7 244.85 97.7 244.6 97.5 244.5
L 97.1 244.4
Q 95.85 244.3 95 243.85 Z"/>

<path fill="#D6AF86" stroke="none" d="
M 110.15 262.45
Q 110.222265625 262.6666015625 110.05 262.9
L 110.1 263.75
Q 110.1 264.45 110.25 264.8 110.275390625 264.863671875 110.3 264.9 111.8958984375 266.177734375 113.6 266.9 117.294921875 268.403125 121.55 267.45 127.1666015625 266.207421875 132.5 264.1 140.0666015625 261.532421875 140.55 259 140.8884765625 257.504296875 141.05 256.8 139.0666015625 257.6501953125 136.55 258.75 136.55 257.75 136.9 257.25
L 136.9 256.75
Q 136.13359375 257.12578125 135 257.55 132.0779296875 258.96171875 128.95 259.9
L 127.45 260.3
Q 127.435546875 260.658984375 127.4 261 127.3 261.9 127.05 262.3
L 126.95 260.45 122.85 261.65
Q 119.15 262.75 117.15 262.7 115.55 262.65 113.15 262 111.85 261.7 111.3 261.3 110.71640625 260.9498046875 110.05 260.15 110.05 260.6154296875 110.05 261.1
L 110.05 262.25
Q 110.1345703125 262.342578125 110.15 262.45
M 120.5 265.35
L 120.7 265.6 117.15 267.1
Q 116.3 267.35 116.1 267.35 116.25 267.15 116.55 267.05
L 120.5 265.35
M 118.9 267.25
Q 118.4 267.45 118.15 267.25 120.15 266.45 122.9 264.95 124.05 264.35 124.55 264.2
L 124.55 264.45
Q 124.1 264.65 121.75 265.95 120.05 266.85 118.9 267.25
M 106.9 259
Q 107.04921875 258.957421875 107.2 258.9 106.95 259.35 105.65 260.5
L 104.8 261.15
Q 103.55 262.25 102.55 262.85 101.6 263.4 100.7 263.75
L 99.85 264.15
Q 97.95 264.95 96.9 265.15 95.8 265.35 93.55 265.25 91.85 265.15 91 264.95
L 90.1 264.7
Q 89.05 264.4 87.8 263.5 87.4208984375 263.2958984375 87.15 263.05 87.1623046875 263.1779296875 87.15 263.3 87.1 263.55 87.1 263.8
L 86.65 263.9
Q 87 267.75 90.6 269.2 92.8734375 269.8572265625 96.45 269.7 97.95 269.6 98.4 269.45 99.1 269.2 100 268.65 101.55 267.65 103.35 266.25 107.1798828125 263.3775390625 108.7 262.45
L 108.75 260.15
Q 108.75 258.7 108.95 258.05 109.0287109375 257.77734375 109.15 257.5 108.048828125 258.2568359375 106.9 259
M 91.45 255.2
Q 91.4115234375 255.0716796875 91.4 254.85 90.9361328125 255.1078125 90.3 255.4 89.9759765625 255.778515625 89.45 256.1 88.9 256.4 87.75 256.9 87.4 257.1 86.1 257.9
L 84.9 258.65
Q 84.8615234375 260.80859375 84.2 263 84 262.7 84.1 262.1 84.270703125 260.5353515625 84.25 259.05
L 80.85 261.25
Q 78.8 262.55 77.75 263.05 75.9 263.85 74.35 263.9 72.15 263.95 69.5 262.55 68.7 262.1 68.3 261.65 68.026953125 261.376953125 67.9 261.05
L 67.9 261.1
Q 68 265.85 72.6 267.5 73.5 267.9 74.6 267.9 77.25 267.9 79.5 266.7 80.0287109375 266.4234375 80.55 266.1
L 86.35 262.45
Q 86.35 262.243359375 86.35 262.05 86.4017578125 261.869140625 86.45 261.7 87.05 259.2 88.9 257.6
L 91.45 255.2
M 91.1 245.3
Q 90.8048828125 244.945703125 90.8 244.55 90.76875 244.6607421875 90.75 244.75 90.45 246.15 90.95 246.9 91.21171875 247.3580078125 91.25 247.55 91.32578125 247.6234375 91.35 247.65 91.57265625 247.8716796875 91.7 248.05 91.90390625 248.40703125 92.05 248.9 92.201953125 249.4384765625 92.3 250.1 92.3740234375 250.6083984375 92.4 251.1 92.819921875 251.2185546875 93.05 251.35
L 93.4 251.5 93.85 251.55 94.6 251.85 95.05 251.95
Q 98.7138671875 248.7236328125 101.35 247.6 101.411328125 247.5744140625 101.45 247.55 99.2416015625 247.5728515625 97.35 247.35 95.705859375 247.1595703125 94.3 246.75 93.140625 246.4599609375 92.15 246 91.45 245.75 91.1 245.3
M 121.4 246.6
Q 121.4 245.9048828125 121.35 245.4 121.2236328125 245.53828125 121.1 245.7 120.8 245.95 120.1 246.25 116.15 247.8 111.95 247.7 111.9841796875 247.6201171875 112 247.55 111.6466796875 247.5791015625 111.25 247.6 112.442578125 248.165625 112.95 248.8 114.25 250.3 113.95 253.3 113.9201171875 253.47890625 113.85 253.6 114.0890625 253.611328125 114.2 253.75 114.4658203125 253.6919921875 114.75 253.6 115.979296875 253.317578125 117.45 252.8 118.2619140625 252.50234375 119.5 252.05 119.6951171875 251.8548828125 119.95 251.6 120.8 250.75 121.15 249.3 121.35 248.4 121.4 246.6 Z"/>

<path fill="#D4D4D4" stroke="none" d="
M 109.55 195.95
Q 109.31640625 196.0177734375 109.05 196.1
L 98.1 199.55
Q 99.076953125 200.0421875 100.7 201.25 103.1 202.9 106 204.25 106.85 204.7 107.05 204.95 107.25 205.3 107.35 205.8 107.5 206.75 107.4 208.75 107.4 210.05 107.3 210.25 107.25 210.5 106.8 211.15 106.7 211.35 106.45 212 106.25 212.55 106 212.85 105.35 213.5 104.5 213.4 104.45 213.1 104.8 212.75 105.25 212.25 105.35 212.05 105.3263671875 211.7904296875 105.3 211.55 105.0796875 211.8244140625 104.75 212.05
L 103.75 212.5
Q 103.829296875 212.5966796875 103.85 212.7 104 213 103.6 213.3 103.4 213.4 102.9 213.4
L 99.95 213.4
Q 98.65 213.25 98.55 213.25 97.8 213.05 96.5 212.15
L 93.15 209.6
Q 93.0111328125 209.41484375 93.1 209.2
L 91.35 207.45 90.95 206.95 90.9 206.3 90.9 205.2
Q 90.7326171875 205.8673828125 90.5 206.1 90.35 206.3 90.05 206.35 89.75 206.4 89.55 206.2
L 89.95 204.55
Q 90.15 203.8 90.4 203.55 90.15 203.4 90.4 203.05
L 90.7 202.6
Q 90.7419921875 202.0953125 90.8 201.85
L 81.15 204.9 83.9 206.6
Q 85.55 207.75 87.05 208.5 89.45 209.9 89.5 209.95 90.15 210.4 90.45 210.85 91 211.75 90.9 213.65
L 90.75 216.3
Q 90.75 216.85 90.55 217.25 90.2 217.8 89.7 217.65
L 89.6 215.45 89.35 215.7
Q 87.95 217 87.05 217.35 86.564453125 217.55 85.6 217.6 85.8814453125 217.7189453125 86.1 217.85
L 85.9 218.35
Q 84.5 218.5 83.35 218.45 81.85 218.45 80.7 218.05
L 79.25 217.35
Q 79.19140625 217.317578125 79.1 217.25
L 78.9 217.2
Q 78.15 216.85 77.8 216.6
L 75.65 215.3
Q 74.35 214.4 73.85 213.9 73.3 213.35 73.15 212.75 73.1 212.45 73.2 211.8 73.237109375 211.6392578125 73.25 211.5
L 73.15 211.5
Q 72.65 210.15 73.05 208.65
L 73.4 207.75
Q 73.4984375 207.5203125 73.6 207.25
L 62.6 210.75
Q 63.9296875 211.32734375 65.3 211.9 67.790234375 213.041796875 70.6 214.1 71.45 214.4 71.65 214.8 71.8 215.1 71.8 215.8
L 71.8 219.65
Q 71.8 220.45 71.65 220.8 71.6421875 220.83125 71.6 220.85 71.787890625 220.7884765625 71.95 220.7 72.05 221.1 71.35 221.55 71.1115234375 221.704296875 70.9 221.8 70.1779296875 222.662109375 69.5 222.45 68.6880859375 222.712109375 67.55 222.85 66.876953125 222.95625 66.2 223 66.265625 223.0728515625 66.3 223.15 66.2 223.7 65.1 223.7
L 63.35 223.7 62.7 223.6
Q 62.5 223.55 61.75 222.9 60.3 222.15 59.7 221.6 58.6 220.2 57.8 219.85 57.4 219.55 57.35 219.45 57.35 219.3162109375 57.45 219.2 57.3966796875 219.1466796875 57.35 219.1
L 56.5 218.4
Q 56.1 218.15 56.05 218.05
L 56 217.6 56.05 215.1
Q 55.98125 215.5875 55.75 216.05 55.7 216.15 55.55 216.2 54.72734375 214.46328125 55.25 212.85 50.389453125 214.1787109375 45.35 215.35 45.98359375 215.5861328125 46.6 215.9 48.75 217.05 50.9 218.3 51.5 219 52.2 219.6 52.75 220.2 52.9 221.05
L 53.5 221.7 53.55 226.45 53.25 226.85 53 227.95 52.55 228.6 52.35 226.75
Q 51.9669921875 227.05703125 51.4 227.3
L 50.35 227.75
Q 49.05 228.4 48.1 228.45
L 48.05 228.65 45.6 228.55 45.55 228.35 43.6 228.2
Q 43.65 228.2 43.5 228.05
L 42.2 227.7
Q 42.2 227.6 41.9 227.4 40.5462890625 226.6576171875 38.7 224.7 38.7171875 224.72421875 38.7 224.75 38.6962890625 224.7087890625 38.7 224.65 38.4560546875 224.3916015625 38.2 224.1 37.6 223.5 37 222.55 36.6640625 222.022265625 36.5 221.55
L 36.3 221.7
Q 35.85 219.95 35.9 218.05 35.916015625 217.7474609375 35.95 217.45 35.1830078125 217.65 34.8 217.75 31.4 218.7 29 220 25.7494140625 221.785546875 25.5 224.05 39.4212890625 239.07890625 54 252 56.5 254.15 57.95 254.7 59.45 255.3 62.75 255.3 67.4 255.3 69.7 254.9 69.8943359375 254.8666015625 70.1 254.8 72.2787109375 252.9572265625 74.45 251 76.65 249.15 79.1 247.55 83.85 244.45 89 245.95 89.3109375 246.1306640625 89.65 246.35 89.70390625 246.384765625 89.75 246.4 89.7212890625 246.1779296875 89.7 245.9 89.7 242.3 91.5 241 92.35 240.35 94.35 240.05 102.45 238.85 111.05 239.8
L 113.5 240.1
Q 115.515625 240.362890625 116.65 240.6 141.7626953125 233.9943359375 155.05 228.05 157 227.05 157.4 226.15 157.55 225.8 157.7 224.35 157.73046875 224 157.8 223.7 157.023046875 221.13828125 154.3 218.9 153.1 217.9 151.1 216.65 148.85 215.3 147.75 214.55 144.75 212.6 135.85 204.5 128.7 197.95 123.2 195.8 120.1 194.5 117.05 194.45 116.807421875 194.45 116.55 194.45 117.0408203125 194.6869140625 117.6 195 119.5 196.1 120 196.4
L 121.85 197.6 123.75 198.5
Q 124.7 199 125.3 199.5 125.8 199.95 126 200.3 126.1 200.5 126.1 201.3
L 126.05 204.65
Q 126.05 205.113671875 126 205.45 125.9681640625 205.7181640625 125.9 205.9 125.7 206.55 124.6 207.45
L 123.05 208.45
Q 123.15 207.85 123.8 207 123.9140625 206.8478515625 124 206.7 123.3015625 207.0552734375 122.6 207.2 122.7 207.3431640625 122.7 207.5
L 122.65 207.5
Q 122.926953125 207.448046875 123.15 207.35 122.772265625 207.803125 122 207.95 121.3568359375 208.2408203125 120.35 208.3 118.4 208.4 117.7 208.25 116.75 208.05 115.25 207.05 114.6966796875 206.7021484375 114.1 206.3 113.977734375 206.2287109375 113.85 206.15 113.2345703125 205.754296875 112.7 205.3 112.5818359375 205.237890625 112.45 205.15
L 111.95 206.05
Q 111.95 205.3861328125 112.05 204.85 111.7498046875 204.61640625 111.4 204.35 110.8 203.85 111.05 203.5 110.7126953125 202.99765625 110.35 202.3 109.5 200.75 109.25 200.35 109.03671875 200.86328125 108.9 201 108.55 201.35 108.1 201.3 107.5 201.2 107.6 200.65 107.65 200.45 107.85 200.3 108.05 200.2 108.25 200.25
L 109.3 196.7
Q 109.3474609375 196.319921875 109.55 195.95
M 144.15 214.2
Q 145.55 215.15 146 216.2 146.2 216.65 146.3 217.7 146.5 219.7 146.4 220.65
L 146.1 222.8
Q 146 224.15 145.85 224.5 145.35 225.55 144.55 225.3 145 224.4 145 223.3 144.85 222.3 144.9 221.8 145.0330078125 221.386328125 145.1 221
L 145.1 221.05
Q 144.15 222.05 141.65 222.85 140.35 223.25 139.6 223.3 139.140234375 223.3458984375 138.45 223.3 138.6208984375 223.4755859375 138.7 223.6
L 140.7 223.7
Q 142.05 223.7 142.7 223.6 143.4 223.5 143.6 223.75 143.95 224.1 143.5 224.5 143.15 224.75 142.7 224.75 142.1 224.85 140.8 224.85
L 137.5 224.8 136.95 224.75 136.3 224.35
Q 135.15 223.4 134.05 222.75
L 132.85 222.05 132.25 221.5 128.45 218.6
Q 128.25 218.4 128.25 218.3 128.15 218.05 128.5 217.95
L 129 218.05
Q 129.1712890625 218.1142578125 129.35 218.2 129.2111328125 218.0939453125 129.1 218 127.944921875 217.016015625 128 215.95 127.7671875 216.4208984375 127.5 216.65 126.9 217.15 126.4 216.85 126 216.65 126.15 216.4 126.2 216.2 126.55 216.1 126.9 215.9 127.2 215.35 128.5 213 128.7 210.6 128.8 209.8 129 209.45 129.4 208.75 130.8 208.45 133.05 208 134.65 208.5 135.05 208.65 136.25 209.3
L 139.55 211.3
Q 140.75 212.25 141.05 212.45
L 144.15 214.2
M 127.75 220.5
Q 128 221 128 222.1
L 128 224.15
Q 128 225.35 128.25 225.85 128.4 226.25 128.95 226.95 129.65 227.95 129.5 229.2 129.4 230.05 128.9 230.55 128.2 231.15 127.45 230.75 128.7 229.3 128.25 228.3 128.1125 228.1625 128 228 127.9009765625 228.0939453125 127.8 228.15
L 125.75 229.45 124.8 229.55
Q 124.85 229.75 124.5 229.85 123.9 229.95 122.75 229.95
L 120.4 229.95
Q 119.7 229.95 119.4 229.85 119.15 229.75 118.25 229.25
L 117.35 228.9
Q 116.8 228.65 116.55 228.4 116 228.2 114.75 227.35
L 111.6 225.05 110.75 224.25
Q 110.3287109375 223.6482421875 110.3 222.6 109.8900390625 223.0025390625 109.3 223.15 108.2 223.4 107.35 222.8 107.6 222.5 108.6 222.4 109.65 222.15 109.95 221.25 110.15 220.7 110.15 220.1
L 110.25 218.75 110.45 217.8
Q 110.7 217.3 111.4 216.75 112.65 215.9 114.45 215.6 115.65 215.4 117.8 215.35 119.3 215.35 119.8 215.5 120.35 215.65 121.45 216.3
L 126.8 219.65
Q 127.5 220.15 127.75 220.5
M 126.45 230.4
Q 125.4 231.45 123.15 231.55 121.25 231.6 119.05 231.05 117.8 230.65 116.2 229.9 114.8 229.25 114.3 228.8 113.1 227.85 112.8 226.45 113.4 226.65 114.85 227.75 119.05 230.85 124.15 230.45 126.05 230.3 126.45 230.4
M 101.55 221.05
Q 102 221.4 103 221.9 103.4 222.15 104.05 222.9
L 105.15 223.55
Q 106.5 224.2 109.35 226 110.1 226.55 110.25 226.8 110.55 227.25 110.55 228.35
L 110.55 230.55
Q 110.55 231.5 110.45 231.95 110.3 232.45 109.8 233.35
L 109.2 234.4
Q 108.65 235.15 108.25 235.1 108.29921875 234.7318359375 108.4 234.25 105.7833984375 235.90546875 102.4 235.4 101.45 235.25 100.5 235.1 98.85 234.15 97.3 233.6 96.3 233.2 95.45 232.5 93.8 231.1 92.3 229.5 92.18359375 229.392578125 92.1 229.3 92.0513671875 229.3857421875 92 229.45 91.85 229.7 91.55 229.75 91.25 229.8 91.1 229.6 91.3 229.05 91.3 227.95
L 91.2 223.55
Q 91.2 222.75 91.4 222.4 91.6 222.1 92.15 221.8 93.35 221.25 94.8 220.75 97.25 219.9 98.75 219.85 99.75 219.75 100.35 220.05 100.8 220.35 101.55 221.05
M 93.6 232.2
Q 93.6 231.9 94 231.9 94.15 231.9 94.55 232.1 96.25 233.15 97.75 234.4 99.35 235.8 100.35 236.1 101.1 236.35 103 236.25 104.5 236.25 106 236.4 105.9 237.1 105.25 237.25 104.9 237.4 104.1 237.4
L 101.4 237.35
Q 99.9 237.25 99.4 237.05 98.65 236.75 97.7 235.9
L 93.85 232.6
Q 93.6 232.35 93.6 232.2
M 82.7 226.3
L 83.75 227.5
Q 84.7 228.65 86.65 230.05 89.3 231.9 89.8 232.35 90.35 232.8 90.6 233.3 90.9 233.95 90.8 234.8 90.8 237.05 90.65 239.2 90.65 239.4162109375 90.6 239.6 90.7 239.4859375 90.7 239.35 90.7 239 90.85 239.05 91.2 239.4 90.95 239.9 90.85 240.2 90.35 240.6 90.301953125 240.63671875 90.25 240.65 90.16015625 240.7765625 90.05 240.85
L 90.05 240.8
Q 89.1462890625 241.370703125 87.3 242 86.31875 242.2923828125 85.55 242.4 85.381640625 242.5130859375 85.15 242.6 84.75 242.75 83.9 242.75
L 82.3 242.75
Q 81 242.75 80.2 242.5 79.4 242.3 78.25 241.4 75.65 239.4 73.3 236.9
L 73.3 236.85
Q 72.859375 236.559375 72.5 236.2 72.1302734375 235.891796875 71.8 235.5 71.6916015625 235.5349609375 71.55 235.45
L 71.55 235.1
Q 71.4939453125 235.068359375 71.45 235 71.4947265625 234.9732421875 71.55 234.95
L 71.4 230.8
Q 71.3 230.1 71.5 229.6 71.6 229.25 72.15 228.7 73.05 227.85 74.85 227 76.75 226.1 79.3 225.7 81.6 225.4 82.7 226.3
M 53.4 233.9
Q 53.75 233.55 54.65 233.25 58.1 232.25 61.55 232.25 62.3 232.25 62.95 232.4 63.6 232.6 64.7 233.4 66.95 235.1 67.55 235.8 67.9 236.2 68.8 237.45 69.55 238.5 70.1 239.05 71.4 240.2 71.55 240.7 71.75 241.15 71.75 241.7
L 72.15 244.65
Q 72.45 246.9 72.95 247.8 72.45 248 71.9 247.55 71.4 247.05 71.2 245.9
L 70.55 242.55
Q 70.520703125 242.3890625 70.5 242.25
L 70.6 243.45
Q 70.7 244.8 70.35 245.4 70.1 245.85 69.45 246.3 67.8 247.45 67 247.7 66.1 248 64.9 248.05 64.4 248.05 62.8 248 61.4 247.9 60.75 247.65 59.7 247.35 59 246.5 57.65 245.6 56.1 244.4
L 54.85 243.5
Q 54.35 243.15 54.25 242.95
L 54 242.5
Q 53.5 242.1 53.25 241.85 52.9822265625 241.5822265625 52.85 241.3 52.639453125 242.3625 51.9 242.65 51.65 242.6 51.9 242.1 52.15 241.6 52.15 240.75 52.05 239.8 52.05 239.35 52.05 238.65 52.35 237.25
L 52.7 235.5
Q 53 234.3 53.4 233.9
M 42.95 230.2
Q 41.9 229.85 41.2 229.4 40.6 229 39.35 227.5 38.2 226.15 37.3 225.75 37.3 225.5 37.6 225.45 37.9 225.4 38.15 225.55 38.9 225.9 39.95 226.9 41.15 228 41.65 228.35 42.95 229.3 45.2 229.55 47.15 229.75 48.4 229.35 49.4 229.15 49.55 229.55 49.8 230.1 48.9 230.35 46.3 231.25 42.95 230.2
M 40.65 237.35
Q 41.55 238.35 41.75 238.55
L 46.7 242.8 47.25 243.35
Q 47.8 243.95 48.75 245.15 48.25 245.1 47.8 244.65 47.7 244.55 47 243.8 46.6 243.35 45.7 242.55
L 43.05 240.2
Q 41.55 239.05 41.1 238.6
L 37.05 234.5
Q 36.45 233.9 35.55 232.7 36.05 232.7 36.95 233.7 37.45 234.3 38.65 235.4 40.05 236.6 40.65 237.35
M 54.5 245.3
Q 54.55 245 55.1 245.1 56 245.35 57.05 246.5 58.3 247.95 58.8 248.3 59.35 248.7 60.75 249 63.55 249.55 66.2 249.25 66.4 249.5 66.2 249.8 66.05 250 65.75 250.15 64.65 250.65 62.45 250.35 59.1 250.05 57.6 248.85 57.2 248.5 56.3 247.3 55.5 246.25 54.85 245.85 54.4 245.5 54.5 245.3 Z"/>
</g>

<g id="Layer0_3_FILL">
<path fill="#3B3D35" stroke="none" d="
M 105.35 131.2
Q 104.8 131.45 104.35 131.9 103.95 132.35 103.75 132.95 103.55 133.55 103.55 134.2 103.55 135.1 103.8 135.75 104 136.4 104.45 136.85 104.9 137.3 105.5 137.5 106.1 137.75 106.75 137.75
L 107.5 137.7 108.2 137.5
Q 108.55 137.4 108.9 137.2 109.25 136.95 109.5 136.65
L 109.05 136.1
Q 108.95 135.95 108.75 135.95 108.6 135.95 108.45 136.05
L 107.6 136.45
Q 107.3 136.5 106.9 136.5 106.55 136.5 106.2 136.4 105.9 136.3 105.65 136.05 105.45 135.8 105.3 135.45 105.15 135.05 105.1 134.55
L 109.2 134.55
Q 109.4 134.55 109.5 134.4 109.55 134.3 109.55 133.95 109.55 133.2 109.35 132.65 109.15 132.1 108.75 131.75 108.35 131.35 107.85 131.15 107.3 130.95 106.7 130.95 105.95 130.95 105.35 131.2
M 105.15 133.6
Q 105.25 132.85 105.65 132.5 106.05 132.1 106.75 132.1 107.1 132.1 107.35 132.2 107.6 132.35 107.8 132.55 107.95 132.75 108.05 133 108.15 133.3 108.15 133.6
L 105.15 133.6
M 114.8 132.35
L 115.15 131.75
Q 114.8 131.4 114.25 131.2 113.7 130.95 113 130.95 112.4 130.95 111.9 131.1 111.45 131.3 111.15 131.55 110.85 131.8 110.65 132.2 110.5 132.55 110.5 132.95 110.5 133.4 110.65 133.7 110.8 134 111 134.25 111.25 134.45 111.55 134.6
L 113.25 135.2
Q 113.5 135.3 113.6 135.45 113.75 135.6 113.75 135.85
L 113.7 136.15
Q 113.65 136.3 113.5 136.4
L 113.15 136.55
Q 112.95 136.65 112.7 136.65 112.3 136.65 112.1 136.55
L 111.7 136.4 111.4 136.2
Q 111.25 136.1 111.1 136.1
L 110.85 136.15 110.3 136.95 110.75 137.25 111.3 137.5 111.95 137.7 112.6 137.75
Q 113.25 137.75 113.75 137.6 114.25 137.4 114.55 137.15 114.9 136.85 115.05 136.45 115.25 136.05 115.25 135.55 115.25 135.15 115.1 134.9 114.95 134.6 114.75 134.4 114.5 134.2 114.2 134.05
L 112.5 133.45
Q 112.3 133.35 112.15 133.2 112 133.05 112 132.85 112 132.5 112.3 132.3 112.55 132.1 113 132.1
L 113.55 132.15 114.5 132.55 114.65 132.5 114.8 132.35
M 118.4 129.05
L 117.55 129.05
Q 117.45 129.05 117.35 129.1 117.25 129.15 117.2 129.3
L 116.9 131.1 115.8 131.3 115.8 131.9
Q 115.8 132.05 115.9 132.15 116 132.25 116.15 132.25
L 116.8 132.25 116.8 135.95
Q 116.8 136.8 117.25 137.25 117.7 137.75 118.6 137.75 119.05 137.75 119.5 137.6 119.95 137.45 120.3 137.15
L 119.85 136.4 119.75 136.3 119.6 136.25 119.2 136.45 118.95 136.5
Q 118.7 136.5 118.55 136.3 118.4 136.1 118.4 135.8
L 118.4 132.25 120.15 132.25 120.15 131.1 118.4 131.1 118.4 129.05
M 89.15 132.55
L 89.3 132.5 89.4 132.3 89.5 131.15
Q 89.25 130.95 88.75 130.95 88.2 130.95 87.75 131.25 87.35 131.6 87.05 132.2
L 86.95 131.45
Q 86.9 131.25 86.8 131.15 86.7 131.05 86.45 131.05
L 85.55 131.05 85.55 137.65 87.1 137.65 87.1 133.6 87.35 133.1 87.65 132.75
Q 87.8 132.6 88 132.55 88.2 132.45 88.5 132.45
L 89.15 132.55
M 99.9 135.5
L 99.75 136.05 99.65 135.5 98.2 131.35
Q 98.15 131.2 98 131.15 97.9 131.05 97.7 131.05
L 96.4 131.05 99 137.65 100.45 137.65 103.1 131.05 101.85 131.05
Q 101.65 131.05 101.55 131.15 101.45 131.2 101.4 131.35
L 99.9 135.5
M 95.15 131.75
Q 94.75 131.35 94.25 131.15 93.7 130.95 93.1 130.95 92.35 130.95 91.75 131.2 91.2 131.45 90.75 131.9 90.35 132.35 90.15 132.95 89.95 133.55 89.95 134.2 89.95 135.1 90.2 135.75 90.4 136.4 90.85 136.85 91.3 137.3 91.9 137.5 92.5 137.75 93.15 137.75
L 93.9 137.7 94.6 137.5
Q 94.95 137.4 95.3 137.2 95.65 136.95 95.9 136.65
L 95.45 136.1
Q 95.35 135.95 95.15 135.95 95 135.95 94.85 136.05
L 94 136.45
Q 93.7 136.5 93.3 136.5 92.95 136.5 92.6 136.4 92.3 136.3 92.05 136.05 91.85 135.8 91.7 135.45 91.55 135.05 91.5 134.55
L 95.6 134.55
Q 95.8 134.55 95.9 134.4 95.95 134.3 95.95 133.95 95.95 133.2 95.75 132.65 95.55 132.1 95.15 131.75
M 93.75 132.2
Q 94 132.35 94.2 132.55 94.35 132.75 94.45 133 94.55 133.3 94.55 133.6
L 91.55 133.6
Q 91.65 132.85 92.05 132.5 92.45 132.1 93.15 132.1 93.5 132.1 93.75 132.2
M 122.8 137.65
L 122.8 131.05 121.2 131.05 121.2 137.65 122.8 137.65
M 123 129.15
Q 123 128.9 122.9 128.75
L 122.7 128.4 122.35 128.2
Q 122.2 128.1 121.95 128.1 121.75 128.1 121.6 128.2
L 121.25 128.4 121.05 128.75
Q 120.95 128.9 120.95 129.15 120.95 129.35 121.05 129.5
L 121.25 129.85 121.6 130.05
Q 121.75 130.15 121.95 130.15 122.2 130.15 122.35 130.05
L 122.7 129.85 122.9 129.5
Q 123 129.35 123 129.15
M 130.1 128.1
L 128.5 128.1 128.5 131.55
Q 128.2 131.3 127.85 131.1 127.45 130.95 126.9 130.95 126.25 130.95 125.7 131.2 125.2 131.45 124.8 131.9 124.45 132.4 124.25 133 124.05 133.65 124.05 134.35 124.05 135.2 124.2 135.8 124.4 136.45 124.7 136.85 125.05 137.3 125.5 137.5 125.95 137.75 126.5 137.75 127.15 137.75 127.7 137.45 128.2 137.2 128.6 136.75
L 128.75 137.35
Q 128.8 137.65 129.15 137.65
L 130.1 137.65 130.1 128.1
M 126.05 136
Q 125.85 135.75 125.8 135.35 125.7 134.95 125.7 134.35 125.7 133.8 125.8 133.4 125.9 132.95 126.1 132.7 126.3 132.4 126.6 132.3 126.9 132.15 127.25 132.15 127.6 132.15 127.95 132.3 128.25 132.4 128.5 132.75
L 128.5 135.7
Q 128.2 136.05 127.85 136.3 127.5 136.5 127.05 136.5 126.7 136.5 126.45 136.4 126.2 136.25 126.05 136
M 135.9 131.2
Q 135.3 130.95 134.55 130.95 133.8 130.95 133.2 131.2 132.6 131.45 132.15 131.85 131.75 132.3 131.5 132.95 131.3 133.55 131.3 134.35 131.3 135.15 131.5 135.75 131.75 136.4 132.15 136.85 132.6 137.25 133.2 137.5 133.8 137.75 134.55 137.75 135.3 137.75 135.9 137.5 136.5 137.25 136.9 136.85 137.35 136.4 137.55 135.75 137.8 135.15 137.8 134.35 137.8 133.55 137.55 132.95 137.35 132.3 136.9 131.85 136.5 131.45 135.9 131.2
M 134.55 132.15
Q 135.4 132.15 135.75 132.75 136.15 133.3 136.15 134.35 136.15 135.4 135.75 135.95 135.4 136.55 134.55 136.55 133.7 136.55 133.3 135.95 132.9 135.4 132.9 134.35 132.9 133.3 133.3 132.75 133.7 132.15 134.55 132.15
M 24.8 131.2
Q 24.2 130.95 23.45 130.95 22.7 130.95 22.1 131.2 21.5 131.45 21.05 131.85 20.65 132.3 20.4 132.95 20.2 133.55 20.2 134.35 20.2 135.15 20.4 135.75 20.65 136.4 21.05 136.85 21.5 137.25 22.1 137.5 22.7 137.75 23.45 137.75 24.2 137.75 24.8 137.5 25.4 137.25 25.8 136.85 26.25 136.4 26.45 135.75 26.7 135.15 26.7 134.35 26.7 133.55 26.45 132.95 26.25 132.3 25.8 131.85 25.4 131.45 24.8 131.2
M 23.45 132.15
Q 24.3 132.15 24.65 132.75 25.05 133.3 25.05 134.35 25.05 135.4 24.65 135.95 24.3 136.55 23.45 136.55 22.6 136.55 22.2 135.95 21.8 135.4 21.8 134.35 21.8 133.3 22.2 132.75 22.6 132.15 23.45 132.15
M 33.65 131.25
Q 33.4 131.4 33.15 131.6 32.9 131.85 32.75 132.2 32.55 131.65 32.15 131.3 31.75 130.95 31.15 130.95
L 30.6 131 30.15 131.2 29.7 131.5 29.35 131.85 29.25 131.35
Q 29.15 131.05 28.85 131.05
L 27.9 131.05 27.9 137.65 29.45 137.65 29.45 132.8
Q 29.75 132.55 30.05 132.35 30.35 132.2 30.65 132.2 31.2 132.2 31.45 132.5 31.7 132.8 31.7 133.45
L 31.7 137.65 33.3 137.65 33.3 133.45
Q 33.3 133.15 33.4 132.9 33.5 132.65 33.65 132.5 33.8 132.35 34 132.25 34.25 132.2 34.5 132.2 35 132.2 35.3 132.5 35.55 132.8 35.55 133.45
L 35.55 137.65 37.15 137.65 37.15 133.45
Q 37.15 132.85 37 132.4 36.85 131.95 36.55 131.6 36.25 131.3 35.85 131.1 35.4 130.95 34.85 130.95
L 34.25 131
Q 33.95 131.1 33.65 131.25
M 18.2 128.6
Q 17.4 128.25 16.4 128.25 15.35 128.25 14.5 128.6 13.7 128.95 13.05 129.6 12.45 130.2 12.15 131.1 11.8 131.95 11.8 133 11.8 134.05 12.1 134.9 12.4 135.8 13 136.4 13.6 137.05 14.4 137.4 15.25 137.75 16.3 137.75 17.45 137.75 18.25 137.4 19.1 137 19.65 136.3
L 18.95 135.55
Q 18.85 135.45 18.7 135.45
L 18.55 135.5 18.45 135.6 18 135.9 17.55 136.1 17.05 136.25 16.4 136.3
Q 15.8 136.3 15.3 136.05 14.75 135.85 14.4 135.45 14 135 13.8 134.4 13.55 133.8 13.55 133 13.55 132.2 13.75 131.6 13.95 131 14.35 130.6 14.7 130.15 15.25 129.95 15.75 129.7 16.4 129.7
L 17.5 129.9 18.2 130.25 18.4 130.4 18.6 130.45 18.8 130.4 18.95 130.25 19.55 129.45
Q 19 128.9 18.2 128.6
M 66.25 131.05
L 64.65 131.05 64.65 137.65 66.25 137.65 66.25 131.05
M 66.45 129.15
Q 66.45 128.9 66.35 128.75
L 66.15 128.4 65.8 128.2
Q 65.65 128.1 65.4 128.1 65.2 128.1 65.05 128.2
L 64.7 128.4 64.5 128.75
Q 64.4 128.9 64.4 129.15 64.4 129.35 64.5 129.5
L 64.7 129.85 65.05 130.05
Q 65.2 130.15 65.4 130.15 65.65 130.15 65.8 130.05
L 66.15 129.85 66.35 129.5
Q 66.45 129.35 66.45 129.15
M 74.75 134.35
Q 74.75 135.15 74.95 135.75 75.2 136.4 75.6 136.85 76.05 137.25 76.65 137.5 77.25 137.75 78 137.75 78.75 137.75 79.35 137.5 79.95 137.25 80.35 136.85 80.8 136.4 81 135.75 81.25 135.15 81.25 134.35 81.25 133.55 81 132.95 80.8 132.3 80.35 131.85 79.95 131.45 79.35 131.2 78.75 130.95 78 130.95 77.25 130.95 76.65 131.2 76.05 131.45 75.6 131.85 75.2 132.3 74.95 132.95 74.75 133.55 74.75 134.35
M 76.75 132.75
Q 77.15 132.15 78 132.15 78.85 132.15 79.2 132.75 79.6 133.3 79.6 134.35 79.6 135.4 79.2 135.95 78.85 136.55 78 136.55 77.15 136.55 76.75 135.95 76.35 135.4 76.35 134.35 76.35 133.3 76.75 132.75
M 73.5 128.1
L 71.9 128.1 71.9 131.55
Q 71.6 131.3 71.25 131.1 70.85 130.95 70.3 130.95 69.65 130.95 69.1 131.2 68.6 131.45 68.2 131.9 67.85 132.4 67.65 133 67.45 133.65 67.45 134.35 67.45 135.2 67.6 135.8 67.8 136.45 68.1 136.85 68.45 137.3 68.9 137.5 69.35 137.75 69.9 137.75 70.55 137.75 71.1 137.45 71.6 137.2 72 136.75
L 72.15 137.35
Q 72.2 137.65 72.55 137.65
L 73.5 137.65 73.5 128.1
M 71.9 132.75
L 71.9 135.7
Q 71.6 136.05 71.25 136.3 70.9 136.5 70.45 136.5 70.1 136.5 69.85 136.4 69.6 136.25 69.45 136 69.25 135.75 69.2 135.35 69.1 134.95 69.1 134.35 69.1 133.8 69.2 133.4 69.3 132.95 69.5 132.7 69.7 132.4 70 132.3 70.3 132.15 70.65 132.15 71 132.15 71.35 132.3 71.65 132.4 71.9 132.75
M 49.1 130.95
Q 48.55 130.95 48.1 131.25 47.7 131.6 47.4 132.2
L 47.3 131.45
Q 47.25 131.25 47.15 131.15 47.05 131.05 46.8 131.05
L 45.9 131.05 45.9 137.65 47.45 137.65 47.45 133.6 47.7 133.1 48 132.75
Q 48.15 132.6 48.35 132.55 48.55 132.45 48.85 132.45
L 49.5 132.55 49.65 132.5 49.75 132.3 49.85 131.15
Q 49.6 130.95 49.1 130.95
M 44.45 132.85
Q 44.3 132.25 44 131.8 43.65 131.4 43.2 131.15 42.75 130.95 42.2 130.95 41.5 130.95 41 131.2 40.5 131.5 40.1 131.95
L 39.95 131.35
Q 39.85 131.05 39.55 131.05
L 38.6 131.05 38.6 139.8 40.15 139.8 40.15 137.1
Q 40.5 137.4 40.85 137.55 41.25 137.75 41.8 137.75 42.45 137.75 43 137.5 43.5 137.2 43.9 136.75 44.25 136.3 44.45 135.65 44.65 135.05 44.65 134.3 44.65 133.5 44.45 132.85
M 42.25 132.3
Q 42.5 132.4 42.65 132.65 42.85 132.9 42.9 133.3 43 133.7 43 134.3 43 134.85 42.9 135.3 42.8 135.7 42.6 136 42.4 136.25 42.1 136.4 41.8 136.55 41.45 136.55 41.1 136.55 40.75 136.4 40.45 136.25 40.15 135.95
L 40.15 133
Q 40.5 132.6 40.85 132.4 41.2 132.2 41.65 132.2 42 132.2 42.25 132.3
M 52.3 131.05
L 50.7 131.05 50.7 137.65 52.3 137.65 52.3 131.05
M 55.65 131.5
L 55.3 131.85 55.2 131.35
Q 55.1 131.05 54.8 131.05
L 53.85 131.05 53.85 137.65 55.4 137.65 55.4 132.8
Q 55.7 132.55 56 132.35 56.3 132.2 56.6 132.2 57.15 132.2 57.4 132.5 57.65 132.8 57.65 133.45
L 57.65 137.65 59.25 137.65 59.25 133.45
Q 59.25 133.15 59.35 132.9 59.45 132.65 59.6 132.5 59.75 132.35 59.95 132.25 60.2 132.2 60.45 132.2 60.95 132.2 61.25 132.5 61.5 132.8 61.5 133.45
L 61.5 137.65 63.1 137.65 63.1 133.45
Q 63.1 132.85 62.95 132.4 62.8 131.95 62.5 131.6 62.2 131.3 61.8 131.1 61.35 130.95 60.8 130.95
L 60.2 131
Q 59.9 131.1 59.6 131.25 59.35 131.4 59.1 131.6 58.85 131.85 58.7 132.2 58.5 131.65 58.1 131.3 57.7 130.95 57.1 130.95
L 56.55 131 56.1 131.2 55.65 131.5
M 52.5 129.15
Q 52.5 128.9 52.4 128.75
L 52.2 128.4 51.85 128.2
Q 51.7 128.1 51.45 128.1 51.25 128.1 51.1 128.2
L 50.75 128.4 50.55 128.75
Q 50.45 128.9 50.45 129.15 50.45 129.35 50.55 129.5
L 50.75 129.85 51.1 130.05
Q 51.25 130.15 51.45 130.15 51.7 130.15 51.85 130.05
L 52.2 129.85 52.4 129.5
Q 52.5 129.35 52.5 129.15 Z"/>
</g>
</defs>

<g transform="matrix( 1, 0, 0, 1, -17,-10.15) ">
<use xlink:href="#Layer0_0_FILL"/>
</g>

<g transform="matrix( 1.0716400146484375, 0, 0, 1.0716400146484375, -22.1,-6.85) ">
<use xlink:href="#Layer0_1_FILL"/>
</g>

<g transform="matrix( 1, 0, 0, 1, -17,-176.15) ">
<use xlink:href="#Layer0_2_FILL"/>
</g>

<g transform="matrix( 1, 0, 0, 1, 0,0) ">
<use xlink:href="#Layer0_3_FILL"/>
</g>
</svg>
