
<svg xmlns="http://www.w3.org/2000/svg" version="1.1" xmlns:xlink="http://www.w3.org/1999/xlink" preserveAspectRatio="none" x="0px" y="0px" width="149px" height="152px" viewBox="0 0 149 152">
<defs>
<g id="Layer0_0_FILL">
<path fill="#B8BE79" stroke="none" d="
M 21.5 19.95
L 21.5 157.8 159.35 157.8 159.35 19.95 21.5 19.95 Z"/>
</g>

<g id="Layer0_1_FILL">
<path fill="#E1C99B" stroke="none" d="
M 21.5 111.85
L 21.5 148.6 159.35 148.6 159.35 111.85 21.5 111.85 Z"/>
</g>

<g id="Layer0_2_FILL">
<path fill="#3B3D35" stroke="none" d="
M 696.35 186.1
Q 696.3 186.15 696.2 186.2 696.15 186.2 696.05 186.2
L 696.05 186.25
Q 695.9 186.25 695.7 186.25 695.5 186.3 695.3 186.3 695.15 186.4 695 186.45 694.95 186.55 694.85 186.7 694.7 186.75 694.5 186.8 694.35 186.9 694.2 186.95 694.1 187.05 694 187.2 693.8 187.3 693.65 187.4 693.5 187.5 693.35 187.6 693.25 187.7 693.15 187.8 693.05 187.95 693 188.05 693 188.15 693 188.25 693 188.35 693 188.45 693 188.55 693 188.7 693.05 188.8 693.05 188.9 693.05 189 693.05 189.1 693.05 189.2 693.05 189.3 693.05 189.45 693.05 189.55 693.05 189.65 693.05 189.75 693.05 189.85 693.05 189.95 693.05 190.1 693.05 190.2 693.05 190.3 693.05 190.4 693.05 190.5 693.05 190.6 693.05 190.7 693.05 190.85 693.05 190.95 693.05 191.05 693.05 191.15 693.05 191.25 693.05 191.35 693.05 191.45 693.05 191.6 693.05 191.7 693.05 191.8 693.05 191.9 693.05 191.9931640625 693.05 192.05
L 693.05 192.1
Q 693.05 192.2 693.05 192.35 693.05 192.45 693.05 192.55 693.05 192.65 693.05 192.75 693.05 192.85 693.05 192.95 693.05 193.1 693.05 193.2 693.05 193.3 693.05 193.4 693.05 193.5 693.05 193.6 693.05 193.7 693.05 193.85 693.05 193.95 693.05 194.05 693.05 194.15 693.05 194.25 693.05 194.35 693.05 194.45 693.05 194.6 693.05 194.7 693.05 194.8 693.05 194.9 693.05 195 693.05 195.1 693.05 195.25 693.05 195.35 693.05 195.45 693.05 195.55 693.05 195.65 693.05 195.75 693.05 195.85 693.05 196 693.05 196.1 693.05 196.2 693.05 196.3 693.05 196.4 693.05 196.5 693.05 196.6 693.05 196.75 693.05 196.85 693.05 196.95 693.05 197.05 693.05 197.15 693.05 197.25 693.05 197.35 693.05 197.5 693.05 197.55 693.05 197.6 692.95 197.7 692.85 197.75 692.7 197.85 692.55 198 692.5 198.1 692.4 198.2 692.3 198.3 692.15 198.4 692.05 198.5 691.9 198.6 691.8 198.75 691.7 198.85 691.6 198.95 691.5 199.05 691.35 199.15 691.2 199.25 691.1 199.35 691 199.5 691 199.6 691 199.7 691 199.8 691 199.9 691 200 691 200.15 691 200.25 691 200.35 691 200.45 691 200.55 691 200.65 691 200.75 691 200.9 691 201 691 201.1 691 201.2 691 201.3 691 201.4 691 201.5 691 201.65 691.15 201.75 691.3 201.85 691.45 201.95 691.65 202.05 691.85 202.15 692.05 202.25 692.25 202.4 692.4 202.5 692.8 202.6 693.15 202.7 693.2 202.8 693.2 202.9 693.2 203 693.2 203.15 693.2 203.25 693.2 203.35 693.2 203.45 693.2 203.55 693.2 203.65 693.2 203.75 693.2 203.9 693.2 204 693.2 204.1 693.2 204.2 693.2 204.3 693.2 204.4 693.2 204.5 693.2 204.65 693.25 204.75 693.3 204.85 693.4 204.95 693.5 205.05 693.75 205.15 694 205.2 694.05 205.3 694.15 205.35 694.35 205.4 694.55 205.5 694.65 205.55 694.7 205.55 694.8 205.65 694.95 205.7 695.05 205.8 695.2 205.9 695.2 206.05 695.2 206.15 695.3 206.25 695.35 206.35 695.45 206.45 695.5 206.55 695.5 206.65 695.5 206.8 695.5 206.9 695.5 207 695.5 207.1 695.5 207.2 695.5 207.3 695.5 207.4 695.5 207.55 695.5 207.65 695.5 207.75 695.5 207.85 695.5 207.95 695.5 208.05 695.5 208.15 695.5 208.3 695.5 208.4 695.5 208.5 695.5 208.6 695.5 208.7 695.5 208.8 695.5 208.9 695.5 209.05 695.5 209.15 695.5 209.25 695.5 209.35 695.45 209.45 695.35 209.55 695.3 209.7 695.2 209.8 695.2 209.9 695.2 210 695.2 210.1 695.2 210.2 695.15 210.3 695.05 210.45 694.95 210.55 694.85 210.65 694.75 210.75 694.65 210.85 694.5 210.95 694.35 211.05 694.3 211.1 694.3 211.15 693.4 211.9 692.6 212.75 682.75 223.05 682.85 237.45 682.85 237.55 682.85 237.7 682.85 237.8 682.85 237.9 682.85 238 682.85 238.1 682.85 238.2 682.85 238.3 682.85 238.45 682.85 238.55 682.85 238.65 682.85 238.75 682.85 238.85 682.85 238.95 682.85 239.1 682.85 239.2 682.85 239.3 682.85 239.4 682.85 239.5 682.85 239.6 682.85 239.7 682.85 239.85 682.85 239.95 682.85 240.05 682.85 240.15 682.85 240.25 682.85 240.35 682.85 240.45 682.85 240.6 682.85 240.7 682.85 240.8 682.85 240.9 682.85 241 682.85 241.1 682.85 241.2 682.85 241.35 682.85 241.45 682.85 241.55 682.85 241.65 682.85 241.75 682.85 241.85 682.85 241.95 682.85 242 682.85 242.05 682.85 242.15 682.85 242.2 682.85 242.3 682.85 242.4 682.85 242.5 682.85 242.6 682.85 242.7 682.85 242.85 682.85 242.95 682.85 243.05 682.85 243.15 682.85 243.25 682.85 243.35 682.85 243.45 682.85 243.6 682.85 243.7 682.85 243.8 682.85 243.9 682.85 244 682.85 244.1 682.85 244.25 682.85 244.35 682.85 244.45 682.85 244.55 682.85 244.65 682.85 244.75 682.85 244.85 682.85 245 682.85 245.1 682.85 245.2 682.85 245.3 682.85 245.4 682.85 245.5 682.85 245.6 682.85 245.75 682.85 245.85 682.85 245.95 682.85 246.05 682.85 246.15 682.85 246.25 682.85 246.35 682.85 246.5 682.85 246.6 682.85 246.7 682.85 246.8 682.85 246.9 682.85 247 682.85 247.1 682.85 247.25 682.85 247.35 682.85 247.45 682.85 247.55 682.85 247.65 682.85 247.75 682.85 247.85 682.85 248 682.85 248.1 682.85 248.2 682.85 248.3 682.85 248.4 682.85 248.5 682.85 248.65 682.85 248.75 682.85 248.85 682.85 248.95 682.85 249.05 682.85 249.15 682.85 249.25 682.85 249.4 682.85 249.5 682.85 249.6 682.85 249.7 682.85 249.8 682.85 249.9 682.85 250 682.85 250.15 682.85 250.25 682.85 250.35 682.85 250.45 682.85 250.55 682.85 250.65 682.85 250.75 682.85 250.9 682.85 251 682.85 251.1 682.85 251.2 682.85 251.3 682.85 251.4 682.85 251.5 682.85 251.65 682.85 251.75 682.85 251.85 682.85 251.95 682.85 252.05 682.85 252.15 682.85 252.25 682.85 252.4 682.85 252.5 682.85 252.6 682.85 252.7 682.85 252.8 682.85 252.9 682.85 253 682.85 253.15 682.85 253.25 682.85 253.35 682.85 253.45 682.85 253.55 682.85 253.65 682.85 253.8 682.85 253.9 682.85 254 682.85 254.1 682.85 254.2 682.85 254.3 682.85 254.4 682.85 254.55 682.85 254.65 682.85 254.75 682.85 254.85 682.85 254.95 682.85 255.05 682.85 255.15 682.85 255.3 682.85 255.4 682.85 255.5
L 682.85 255.55
Q 682.85 255.621484375 682.85 255.7 682.85 255.8 682.85 255.9 682.85 256.05 682.85 256.15 682.85 256.25 682.85 256.35 682.85 256.45 682.85 256.55 682.85 256.65 682.85 256.8 682.85 256.9 682.85 257 682.85 257.1 682.85 257.2 682.85 257.3 682.85 257.4 682.85 257.55 682.85 257.65 682.85 257.75 682.85 257.85 682.85 257.95 682.85 258.05 682.85 258.15 682.85 258.3 682.85 258.4 682.85 258.5 682.85 258.6 682.85 258.7 682.85 258.8 682.85 258.95 682.85 259.05 682.85 259.15 682.85 259.25 682.85 259.35 682.85 259.45 682.85 259.55 682.85 259.7 682.85 259.8 682.85 259.9 682.85 260 682.85 260.1 682.85 260.2 682.85 260.3 682.85 260.45 682.85 260.55 682.85 260.65 682.85 260.75 682.85 260.85 682.85 260.95 682.85 261.05 682.85 261.2 682.85 261.3 682.85 261.4 682.85 261.5 682.85 261.6 682.85 261.7 682.85 261.8 682.85 261.95 682.85 262.05 682.85 262.15 682.85 262.25 682.85 262.35 682.85 262.45 682.85 262.55 682.85 262.7 682.85 262.8 682.85 262.9 682.85 263 682.85 263.1 682.85 263.2 682.85 263.35 682.85 263.45 682.85 263.55 682.85 263.65 682.85 263.75 682.85 263.85 682.85 263.95 682.85 264.1 682.85 264.2 682.85 264.3 682.85 264.4 682.85 264.5 682.85 264.6 682.85 264.7 682.85 264.85 682.85 264.95 682.85 265.05 682.85 265.15 682.85 265.25 682.85 265.35 682.85 265.45 682.85 265.6 682.85 265.7 682.85 265.8 682.85 265.9 682.85 266 682.85 266.1 682.85 266.2 682.85 266.35 682.85 266.45 682.85 266.55 682.85 266.65 682.85 266.75 682.85 266.85 682.85 266.95 682.85 267.1 682.85 267.2 682.85 267.3 682.85 267.4 682.85 267.5 682.85 267.6 682.85 267.7 682.85 267.85 682.85 267.95 682.85 268.05 682.85 268.15 682.85 268.25 682.85 268.35 682.85 268.5 682.85 268.6 682.85 268.7 682.85 268.8 682.85 268.9 682.85 269 682.85 269.1 682.85 269.25 682.85 269.35 682.9 269.45 682.9 269.55 682.9 269.65
L 682.9 269.7 683.25 272.8 684.9 276
Q 686.5234375 277.75859375 688.65 278.4 689.5771484375 278.7078125 690.6 278.75 690.699609375 278.7943359375 690.8 278.8 695.39453125 278.9875 700 279.05 704.92578125 279.125390625 709.85 279.05 712.7015625 279.0296875 715.55 278.95 716.65 278.5 717.25 278.3 719.85 277.85 721.55 276
L 723.2 272.6 723.6 266.75
Q 723.6 266.7 723.6 266.65 723.6 266.55 723.6 266.45 723.6 266.35 723.6 266.2 723.6 266.1 723.6 266 723.6 265.9 723.6 265.8 723.6 265.7 723.6 265.6 723.6 265.45 723.6 265.35 723.6 265.25 723.6 265.15 723.6 265.05 723.6 264.95 723.6 264.85 723.6 264.7 723.6 264.6 723.6 264.5 723.6 264.4 723.6 264.3 723.6 264.2 723.6 264.1 723.6 263.95 723.6 263.85 723.6 263.75 723.6 263.65 723.6 263.55 723.6 263.45 723.6 263.35 723.6 263.2 723.6 263.1 723.6 263 723.6 262.9 723.6 262.8 723.6 262.7 723.6 262.55 723.6 262.45 723.6 262.35 723.6 262.25 723.6 262.15 723.6 262.05 723.6 261.95 723.6 261.8 723.6 261.7 723.6 261.6 723.6 261.5 723.6 261.4 723.6 261.3 723.6 261.2 723.6 261.05 723.6 260.95 723.6 260.85 723.6 260.75 723.6 260.65 723.6 260.55 723.6 260.45 723.6 260.3 723.6 260.2 723.6 260.1 723.6 260 723.6 259.9 723.6 259.8 723.6 259.7 723.6 259.55 723.6 259.45 723.6 259.35 723.6 259.25 723.6 259.15 723.6 259.05 723.6 258.95 723.6 258.8 723.6 258.7 723.6 258.6 723.6 258.5 723.6 258.4 723.6 258.3 723.6 258.15 723.6 258.05 723.6 257.95 723.6 257.85 723.6 257.75 723.6 257.65 723.6 257.55 723.6 257.4 723.6 257.3 723.6 257.2 723.6 257.1 723.6 257 723.6 256.9 723.6 256.8 723.6 256.65 723.6 256.55 723.6 256.45 723.6 256.35 723.6 256.25 723.6 256.15 723.6 256.05 723.6 255.9 723.6 255.8 723.6 255.7 723.6 255.6 723.6 255.5 723.6 255.4 723.6 255.3 723.6 255.15 723.6 255.05 723.6 254.95 723.6 254.85 723.6 254.75 723.6 254.65 723.6 254.55 723.6 254.4 723.6 254.3 723.6 254.2 723.6 254.1 723.6 254 723.6 253.9 723.6 253.8 723.6 253.65 723.6 253.55 723.6 253.45 723.6 253.35 723.6 253.25 723.6 253.15 723.6 253 723.6 252.9 723.6 252.8 723.6 252.7 723.6 252.6 723.6 252.5 723.6 252.4 723.6 252.25 723.6 252.15 723.6 252.05 723.6 251.95 723.6 251.85 723.6 251.75 723.6 251.65 723.6 251.5 723.6 251.4 723.6 251.3 723.6 251.2 723.6 251.1 723.6 251 723.6 250.9 723.6 250.75 723.6 250.65 723.6 250.55 723.6 250.45 723.6 250.35 723.6 250.25 723.6 250.15 723.6 250 723.6 249.9 723.6 249.8 723.6 249.7 723.6 249.6 723.6 249.5 723.6 249.4 723.6 249.25 723.6 249.15 723.6 249.05 723.6 248.95 723.6 248.85 723.6 248.75 723.6 248.65 723.6 248.5 723.6 248.4 723.6 248.3 723.6 248.2 723.6 248.1 723.6 248 723.6 247.85 723.6 247.75 723.6 247.65 723.6 247.55 723.6 247.45 723.6 247.35 723.6 247.25 723.6 247.1 723.6 247 723.6 246.9 723.6 246.8 723.6 246.7 723.6 246.647265625 723.6 246.6 723.6 246.547265625 723.6 246.5 723.6 246.35 723.6 246.25 723.6 246.15 723.6 246.05 723.6 245.95 723.6 245.85 723.6 245.75 723.6 245.6 723.6 245.5 723.6 245.4 723.6 245.3 723.6 245.2 723.6 245.1 723.6 245 723.6 244.85 723.6 244.75 723.6 244.65 723.6 244.55 723.6 244.45 723.6 244.35 723.6 244.25 723.6 244.1 723.6 244 723.6 243.9 723.6 243.8 723.6 243.7 723.6 243.6 723.6 243.45 723.6 243.35 723.6 243.25 723.6 243.15 723.6 243.05 723.6 242.95 723.6 242.85 723.6 242.7 723.6 242.6 723.6 242.5 723.6 242.4 723.6 242.3 723.6 242.2 723.6 242.15 723.6 242.05 723.6 242 723.6 241.95 723.6 241.85 723.6 241.75 723.6 241.65 723.6 241.55 723.6 241.45 723.6 241.35 723.6 241.2 723.6 241.1 723.6 241 723.6 240.9 723.6 240.8 723.6 240.7 723.6 240.6 723.6 240.45 723.6 240.35 723.6 240.25 723.6 240.15 723.6 240.05 723.6 239.95 723.6 239.85 723.6 239.7 723.6 239.6 723.6 239.5 723.6 239.4 723.6 239.3 723.6 239.2 723.6 239.1 723.6 238.95 723.6 238.85 723.6 238.75 723.6 238.65 723.6 238.55 723.6 238.45 723.6 238.3 723.6 238.2 723.6 238.1 723.6 238 723.6 237.9 723.6 237.8 723.6 237.7 723.6 237.55 723.6 237.45 723.7 223.05 713.85 212.75 713.05 211.9 712.15 211.15 712.15 211.1 712.1 211.05 711.95 210.95 711.8 210.85 711.7 210.75 711.6 210.65 711.5 210.55 711.4 210.45 711.3 210.3 711.25 210.2 711.25 210.1 711.25 210 711.25 209.9 711.25 209.8 711.15 209.7 711.1 209.55 711 209.45 710.95 209.35 710.95 209.25 710.95 209.15 710.95 209.05 710.95 208.9 710.95 208.8 710.95 208.7 710.95 208.6 710.95 208.5 710.95 208.4 710.95 208.3 710.95 208.15 710.95 208.05 710.95 207.95 710.95 207.85 710.95 207.75 710.95 207.65 710.95 207.55 710.95 207.4 710.95 207.3 710.95 207.2 710.95 207.1 710.95 207 710.95 206.9 710.95 206.8 710.95 206.65 710.95 206.55 711 206.45 711.1 206.35 711.15 206.25 711.25 206.15 711.25 206.05 711.25 205.9 711.4 205.8 711.5 205.7 711.65 205.65 711.75 205.55 711.8 205.55 711.9 205.5 712.1 205.4 712.3 205.35 712.4 205.3 712.45 205.2 712.7 205.15 712.95 205.05 713.05 204.95 713.15 204.85 713.2 204.75 713.25 204.65 713.25 204.5 713.25 204.4 713.25 204.3 713.25 204.2 713.25 204.1 713.25 204 713.25 203.9 713.25 203.75 713.25 203.65 713.25 203.55 713.25 203.45 713.25 203.35 713.25 203.25 713.25 203.15 713.25 203 713.25 202.9 713.25 202.8 713.3 202.7 713.65 202.6 714.05 202.5 714.2 202.4 714.4 202.25 714.6 202.15 714.8 202.05 715 201.95 715.15 201.85 715.3 201.75 715.45 201.65 715.45 201.5 715.45 201.4 715.45 201.3 715.45 201.2 715.45 201.1 715.45 201 715.45 200.9 715.45 200.75 715.45 200.65 715.45 200.55 715.45 200.45 715.45 200.35 715.45 200.25 715.45 200.15 715.45 200 715.45 199.9 715.45 199.8 715.45 199.7 715.45 199.6 715.45 199.5 715.35 199.35 715.25 199.25 715.1 199.15 714.95 199.05 714.85 198.95 714.75 198.85 714.65 198.75 714.55 198.6 714.4 198.5 714.3 198.4 714.15 198.3 714.05 198.2 713.95 198.1 713.9 198 713.75 197.85 713.6 197.75 713.5 197.7 713.4 197.6 713.4 197.55 713.4 197.5 713.4 197.35 713.4 197.25 713.4 197.15 713.4 197.05 713.4 196.95 713.4 196.85 713.4 196.75 713.4 196.6 713.4 196.5 713.4 196.4 713.4 196.3 713.4 196.2 713.4 196.1 713.4 196 713.4 195.85 713.4 195.75 713.4 195.65 713.4 195.55 713.4 195.45 713.4 195.35 713.4 195.25 713.4 195.1 713.4 195 713.4 194.9 713.4 194.8 713.4 194.7 713.4 194.6 713.4 194.45 713.4 194.35 713.4 194.25 713.4 194.15 713.4 194.05 713.4 193.95 713.4 193.85 713.4 193.7 713.4 193.6 713.4 193.5 713.4 193.4 713.4 193.3 713.4 193.2
L 713.4 193.15
Q 713.4 193.0625 713.4 192.95 713.4 192.85 713.4 192.75 713.4 192.65 713.4 192.55 713.4 192.45 713.4 192.35 713.4 192.2 713.4 192.1 713.4 192 713.4 191.9 713.4 191.8 713.4 191.7 713.4 191.6 713.4 191.45 713.4 191.35 713.4 191.25 713.4 191.15 713.4 191.05 713.4 190.95 713.4 190.85 713.4 190.7 713.4 190.6 713.4 190.5 713.4 190.4 713.4 190.3 713.4 190.2 713.4 190.1 713.4 189.95 713.4 189.85 713.4 189.75 713.4 189.65 713.4 189.55 713.4 189.45 713.4 189.3 713.4 189.2 713.4 189.1 713.4 189 713.4 188.9 713.4 188.8 713.45 188.7 713.45 188.55 713.45 188.45 713.45 188.35 713.45 188.25 713.45 188.15 713.45 188.05 713.4 187.95 713.3 187.8 713.2 187.7 713.1 187.6 712.95 187.5 712.8 187.4 712.65 187.3 712.45 187.2 712.35 187.05 712.25 186.95 712.1 186.9 711.95 186.8 711.75 186.75 711.6 186.7 711.5 186.55 711.45 186.45 711.3 186.4 711.15 186.3 710.95 186.3 710.75 186.25 710.55 186.25 710.4 186.25
L 710.4 186.2
Q 710.3 186.2 710.25 186.2 710.15 186.15 710.1 186.1 710 186.1 709.9 186.1
L 709.9 186.05
Q 708.35 186.05 706.85 186.05 705.05 186.05 703.25 186.1 701.4 186.05 699.6 186.05 698.1 186.05 696.55 186.05
L 696.55 186.1
Q 696.45 186.1 696.35 186.1
M 696.15 187.05
Q 696.35 187 696.6 186.95 698.25 187 699.85 187.05 701.5 187 703.25 187 704.95 187 706.6 187.05 708.2 187 709.85 186.95 710.1 187 710.3 187.05 710.5 187.15 710.75 187.25 710.85 187.35 710.95 187.45 711.15 187.55 711.3 187.7 711.45 187.8 711.6 187.9 711.65 188 711.75 188.1 711.9 188.2 712 188.3 712.1 188.45 712.15 188.55 712.15 188.65 712.15 188.75 712.15 188.85 712.15 188.95 712.15 189.05 712.15 189.2 712.15 189.3 712.15 189.4 712.15 189.5 712.15 189.6 712.15 189.7 712.15 189.8 712.15 189.95 712.15 190.05 712.15 190.15 712.15 190.25 712.15 190.35 712.15 190.45 712.15 190.6 712.15 190.7 712.15 190.8 712.15 190.9 712.15 191 712.15 191.1 712.15 191.2 712.15 191.35 712.15 191.45 712.15 191.55 712.15 191.65 712.15 191.75 712.15 191.85 712.15 191.95 712.15 192.1 712.15 192.2 712.15 192.3 712.15 192.4 712.15 192.5 712.15 192.6 712.15 192.7 712.15 192.85 712.15 192.95 712.15 193.05 712.15 193.15 712.15 193.25 712.15 193.35 712.15 193.45 712.15 193.6 712.15 193.7 712.15 193.8 712.15 193.9 712.15 194 712.15 194.1 712.15 194.2 712.15 194.35 712.15 194.45 712.15 194.55 712.15 194.65 712.15 194.75 712.15 194.85 712.15 195 712.15 195.1 712.15 195.2 712.15 195.3 712.15 195.4 712.15 195.5 712.15 195.6 712.15 195.75 712.15 195.85 712.15 195.95 712.15 196.05 712.15 196.15 712.15 196.25 712.15 196.35 712.15 196.5 712.15 196.6 712.15 196.7 712.15 196.8 712.15 196.9 712.15 197 712.15 197.1 712.15 197.25 712.15 197.35 712.15 197.45 712.15 197.55 712.15 197.65 712.15 197.75 712.15 197.85 712.15 198 712.15 198.1 712.15 198.2 712.25 198.3 712.3 198.4 712.4 198.5 712.5 198.55 712.7 198.55 712.95 198.55 713 198.65 713.1 198.75 713.2 198.85 713.3 199 713.4 199.1 713.45 199.2 713.5 199.25 713.5 199.35 713.65 199.4 713.8 199.5 713.85 199.6 713.9 199.7 714 199.8 714.1 199.9 714.25 200 714.4 200.15 714.4 200.25 714.4 200.35 714.4 200.45 714.4 200.55 714.4 200.65 714.4 200.75 714.3 200.9 714.15 201 714 201.05 713.8 201.15 713.65 201.2 713.45 201.25 713.2 201.35 712.95 201.4 712.75 201.5 712.6 201.55 710.1 201.55 707.6 201.55 707.6 201.6 707.6 201.65 703.15 201.65 698.7 201.65 696.45 201.65 694.15 201.7
L 694.1 201.7
Q 693.95 201.65 693.85 201.55 693.7 201.5 693.5 201.4 693.25 201.35 693 201.25 692.8 201.2 692.65 201.15 692.45 201.05 692.3 201 692.15 200.9 692.05 200.75 692.05 200.65 692.05 200.55 692.05 200.45 692.05 200.35 692.05 200.25 692.05 200.15 692.2 200 692.35 199.9 692.45 199.8 692.55 199.7 692.6 199.6 692.65 199.5 692.8 199.4 692.95 199.35 692.95 199.25 693 199.2 693.05 199.1 693.15 199 693.25 198.85 693.35 198.75 693.45 198.65 693.5 198.55 693.75 198.55 693.95 198.55 694.05 198.5 694.15 198.4 694.2 198.3 694.3 198.2 694.3 198.1 694.3 198 694.3 197.85 694.3 197.75 694.3 197.65 694.3 197.55 694.3 197.45 694.3 197.35 694.3 197.25 694.3 197.1 694.3 197 694.3 196.9 694.3 196.8 694.3 196.7 694.3 196.6 694.3 196.5 694.3 196.35 694.3 196.25 694.3 196.15 694.3 196.05 694.3 195.95 694.3 195.85 694.3 195.75 694.3 195.6 694.3 195.5 694.3 195.4 694.3 195.3 694.3 195.2 694.3 195.1 694.3 195 694.3 194.85 694.3 194.75 694.3 194.65 694.3 194.55 694.3 194.45 694.3 194.35 694.3 194.2 694.3 194.1 694.3 194 694.3 193.9 694.3 193.8 694.3 193.7 694.3 193.6 694.3 193.45 694.3 193.35 694.3 193.25 694.3 193.15 694.3 193.05 694.3 192.95 694.3 192.85 694.3 192.8146484375 694.3 192.75 694.3 192.6765625 694.3 192.6 694.3 192.5 694.3 192.4 694.3 192.3 694.3 192.2 694.3 192.1 694.3 191.95 694.3 191.85 694.3 191.75 694.3 191.65 694.3 191.55 694.3 191.45 694.3 191.35 694.3 191.2 694.3 191.1 694.3 191 694.3 190.9 694.3 190.8 694.3 190.7 694.3 190.6 694.3 190.45 694.3 190.35 694.3 190.25 694.3 190.15 694.3 190.05 694.3 189.95 694.3 189.8 694.3 189.7 694.3 189.6 694.3 189.5 694.3 189.4 694.3 189.35 694.3 189.25 695.35 189.25 696.45 189.3 696.45 189.45 696.45 189.55 696.45 189.65 696.45 189.75 696.45 189.85 696.45 189.95 696.45 190.1 696.45 190.2 696.45 190.3 696.45 190.4 696.45 190.5 696.45 190.6 696.45 190.7 696.45 190.85 696.45 190.95 696.45 191.05 696.45 191.15 696.45 191.25 696.45 191.35 696.45 191.45 696.45 191.6 696.45 191.7 696.45 191.8 696.45 191.9 696.45 192 696.45 192.1 696.45 192.2 696.45 192.35 696.45 192.45 696.45 192.55 696.45 192.65 696.45 192.75 696.45 192.85 696.45 192.95 696.45 193.1 696.45 193.2 696.45 193.3 696.45 193.4 696.45 193.5 696.45 193.6 696.45 193.7 696.45 193.85 696.45 193.95 696.45 194.05 696.45 194.15 696.45 194.25 696.45 194.35 696.45 194.45 696.45 194.6 696.45 194.7 696.45 194.8 696.45 194.9 696.45 195 696.45 195.1 696.45 195.25 696.45 195.35 696.45 195.45 696.45 195.55 696.45 195.65 696.45 195.75 696.45 195.85 696.45 196 696.45 196.1 696.45 196.2 696.45 196.3 696.45 196.4 696.45 196.5 696.5 196.6 696.7 196.65 696.85 196.7 696.85 196.65 696.85 196.6 696.85 196.55 696.85 196.5 696.9 196.35 696.95 196.25 696.95 196.15 696.95 196.05 696.95 195.95 696.95 195.85 696.95 195.75 696.95 195.6 696.95 195.5 696.95 195.4 696.95 195.3 696.95 195.2 696.95 195.1 696.95 195 696.95 194.85 696.95 194.75 696.95 194.65 696.95 194.55 696.95 194.45 696.95 194.35 696.95 194.2 696.95 194.1
L 696.95 194.05
Q 696.95 193.97421875 696.95 193.9 696.95 193.8 696.95 193.7 696.95 193.6 696.95 193.45 696.95 193.35 696.95 193.25 696.95 193.15 696.95 193.05 696.95 192.95 696.95 192.85 696.95 192.7 696.95 192.6 696.95 192.5 696.95 192.4 696.95 192.3 696.95 192.2 696.95 192.1 696.95 191.95 696.95 191.85 696.95 191.75 696.95 191.65 696.95 191.55 696.95 191.45 696.95 191.35 696.95 191.2 696.95 191.1 696.95 191 696.95 190.9 696.95 190.8 696.95 190.7 696.95 190.6 696.95 190.45 696.95 190.35 696.95 190.25 696.95 190.15 696.95 190.05 696.95 189.95 696.95 189.8 696.95 189.7 696.95 189.6 696.95 189.5 696.95 189.4 696.95 189.35 696.95 189.3 697.75 189.3 698.6 189.3 698.5 189.35 698.45 189.45 698.45 189.55 698.45 189.7 698.6 189.8 698.7 189.9 698.7 190 698.7 190.1 698.7 190.2 698.7 190.35 698.7 190.45 698.7 190.55 698.7 190.65 698.7 190.75 698.7 190.85 698.7 190.95 698.7 191.1 698.7 191.2 698.7 191.3 698.7 191.4 698.7 191.5 698.7 191.6 698.7 191.7 698.7 191.85 698.7 191.95 698.7 192.05 698.7 192.15 698.7 192.25 698.7 192.35 698.7 192.45 698.7 192.6 698.7 192.7 698.7 192.8 698.7 192.9 698.7 193 698.7 193.1 698.7 193.2 698.7 193.35 698.7 193.45 698.7 193.55 698.7 193.65 698.7 193.75 698.7 193.85 698.7 193.95 698.7 194.1 698.7 194.2 698.7 194.3 698.7 194.4 698.7 194.492578125 698.7 194.55
L 698.7 194.6
Q 698.7 194.7 698.7 194.85 698.7 194.95 698.7 195.05 698.7 195.15 698.7 195.25 698.7 195.35 698.7 195.5 698.7 195.6 698.7 195.7 698.7 195.8 698.7 195.9 698.7 196 698.7 196.1 698.7 196.25 698.7 196.35 698.7 196.45 698.7 196.55 698.75 196.65 698.8 196.75 698.8 196.85 698.8 197 698.85 197.05 698.95 197.1 699 197.1 699.1 197.05 699.1 196.95 699.15 196.85 699.15 196.75 699.15 196.6 699.2 196.5 699.2 196.4 699.2 196.3 699.2 196.2 699.2 196.1 699.2 196 699.2 195.85 699.2 195.75 699.2 195.65 699.2 195.55 699.2 195.45 699.2 195.35 699.2 195.25 699.2 195.1 699.2 195 699.2 194.9 699.2 194.8 699.2 194.7
L 699.2 194.65
Q 699.2 194.5802734375 699.2 194.45 699.2 194.35 699.2 194.25 699.2 194.15 699.2 194.05 699.2 193.95 699.2 193.85 699.2 193.7 699.2 193.6 699.2 193.5 699.2 193.4 699.2 193.3 699.2 193.2 699.2 193.1 699.2 192.95 699.2 192.85 699.2 192.75 699.2 192.65 699.2 192.55 699.2 192.45 699.2 192.35 699.2 192.2 699.2 192.1 699.2 192 699.2 191.9 699.2 191.8 699.2 191.7 699.2 191.6 699.2 191.45 699.2 191.35 699.2 191.25 699.2 191.15 699.2 191.05 699.2 190.95 699.2 190.85 699.2 190.7 699.2 190.6 699.2 190.5 699.2 190.4 699.2 190.3 699.2 190.2 699.2 190.1 699.2 189.95 699.2 189.85 699.2 189.75 699.2 189.65 699.2 189.55 699.2 189.45 699.2 189.3 703.65 189.3 708.15 189.3 708.45 189.3 708.75 189.25 708.75 189.2 708.8 189.2 708.8 189.1 708.8 189.05 708.5 188.95 708.15 188.9 703.55 188.9 698.95 188.9 696.7 188.9 694.45 188.9
L 694.45 188.95
Q 694.35 189 694.3 189.05 694.3 189 694.3 188.95 694.3 188.85 694.3 188.75 694.3 188.65 694.3 188.55 694.35 188.45 694.45 188.3 694.55 188.2 694.7 188.1 694.8 188 694.85 187.9 695 187.8 695.15 187.7 695.3 187.55 695.5 187.45 695.6 187.35 695.7 187.25 695.95 187.15 696.15 187.05
M 712 203.9
Q 711.85 204 711.65 204.15 711.5 204.25 711.3 204.35 711.15 204.4 711 204.5
L 710.95 204.55
Q 710.75 204.65 710.6 204.7 710.4974609375 204.768359375 710.4 204.8 710.3474609375 204.868359375 710.3 204.9 710.2 205.05 710.1 205.15 710.07265625 205.2046875 710.05 205.25 710.02265625 205.3046875 710 205.35 710 205.45 709.95 205.55 709.9 205.65 709.8 205.8 709.75 205.9 709.75 206 709.75 206.1 709.75 206.2 709.75 206.3 709.75 206.4 709.75 206.55 709.75 206.65 709.75 206.75 709.75 206.85 709.75 206.95 709.75 207.05 709.75 207.15 709.75 207.3 709.75 207.4 709.75 207.5 709.75 207.6 709.75 207.7 709.75 207.8 709.75 207.9 709.75 208.05 709.75 208.15 709.75 208.25 709.75 208.35 709.75 208.45 709.75 208.55 709.75 208.65 709.75 208.8 709.75 208.9 709.75 209 709.75 209.1 709.75 209.2 709.75 209.3 709.75 209.4 709.75 209.55 709.75 209.65 709.75 209.75 709.75 209.85 709.75 209.95 709.75 210.05 709.75 210.2 709.8 210.3 709.9 210.4 710 210.5 710 210.6 710 210.7 710 210.8 710 210.95 710.05 211.05 710.1 211.15 720.25 221.05 722.05 235.2 722.15 236.05 722.25 236.95 715.5708984375 236.95 708.9 236.95 705.6615234375 236.95 702.4 236.95 696.509375 236.95 690.6 236.95 689.625 236.95 688.65 236.95 686.449609375 236.95 684.25 236.95 684.3 236.05 684.4 235.2 686.2 221.05 696.35 211.15 696.4 211.05 696.45 210.95 696.45 210.8 696.45 210.7 696.45 210.6 696.45 210.5 696.55 210.4 696.65 210.3 696.7 210.2 696.7 210.05 696.7 209.95 696.7 209.85 696.7 209.75 696.7 209.65 696.7 209.55 696.7 209.4 696.7 209.3 696.7 209.2 696.7 209.1 696.7 209 696.7 208.9 696.7 208.8 696.7 208.65 696.7 208.55 696.7 208.45 696.7 208.35 696.7 208.25 696.7 208.15 696.7 208.05 696.7 207.9 696.7 207.8 696.7 207.7 696.7 207.6 696.7 207.5 696.7 207.4 696.7 207.3 696.7 207.15 696.7 207.05 696.7 206.95 696.7 206.85 696.7 206.75 696.7 206.65 696.7 206.55 696.7 206.4 696.7 206.3 696.7 206.2 696.7 206.1 696.7 206 696.7 205.9 696.65 205.8 696.55 205.65 696.5 205.55 696.45 205.45 696.45 205.35 696.4 205.25 696.35 205.15 696.25 205.05 696.15 204.9 696 204.8 695.85 204.7 695.7 204.65 695.5 204.55
L 695.45 204.5
Q 695.3 204.4 695.15 204.35 694.95 204.25 694.8 204.15 694.6 204 694.45 203.9 694.45 203.8 694.45 203.7
L 694.45 203.65
Q 694.45 203.5890625 694.45 203.5 694.45 203.4 694.45 203.25 694.45 203.15 694.45 203.05 694.45 202.95 694.45 202.85 694.45 202.8 694.45 202.7 696.55 202.75 698.7 202.75 703.15 202.8 707.6 202.85 709.8 202.8 712 202.8
L 712 202.85
Q 712 202.95 712 203.05 712 203.15 712 203.25 712 203.4 712 203.5 712 203.6 712 203.7 712 203.8 712 203.9
M 690.6 237.75
Q 696.3953125 237.77421875 702.2 237.75 705.526171875 237.7833984375 708.85 237.8 715.546875 237.8 722.25 237.8 722.25 237.95 722.25 238.05 722.25 238.15 722.25 238.25 722.25 238.35 722.25 238.45 722.25 238.55 722.25 238.7 722.25 238.8 722.25 238.9 722.25 239 722.25 239.1 722.25 239.2 722.25 239.35 722.25 239.45 722.25 239.55 722.25 239.65 722.25 239.75 722.25 239.85 722.25 239.95 722.25 240.1 722.25 240.2 722.25 240.3 722.25 240.4 722.25 240.5 722.25 240.6 722.25 240.7 722.25 240.85 722.25 240.95 722.25 241.05 722.25 241.15 722.25 241.25 722.25 241.35 722.25 241.45 722.25 241.6 722.25 241.7 722.25 241.8 722.25 241.9 722.25 242 722.25 242.05
L 722.25 242.1
Q 722.25 242.2 722.25 242.35 722.25 242.45 722.25 242.55 722.25 242.65 722.25 242.75 722.25 242.85 722.25 242.95 722.25 243.1 722.25 243.2 722.25 243.3 722.25 243.4 722.25 243.5 722.25 243.6 722.25 243.75 722.25 243.85 722.25 243.95 722.25 244.05 722.25 244.15 722.25 244.25 722.25 244.35 722.25 244.5 722.25 244.6 722.25 244.7 722.25 244.8 722.25 244.9 722.25 245 722.25 245.1 722.25 245.25 722.25 245.35 722.25 245.45 722.25 245.55 722.25 245.65 722.25 245.75 722.25 245.85 722.25 246 722.25 246.1 722.25 246.2 722.25 246.3 722.25 246.4 722.25 246.5 722.25 246.6 722.25 246.75 722.25 246.85 722.25 246.95 722.25 247.05 722.25 247.1115234375 722.25 247.15 722.25 247.2115234375 722.25 247.25 722.25 247.35 722.25 247.5 722.25 247.6 722.25 247.7 722.25 247.8 722.25 247.9 722.25 248 722.25 248.1 722.25 248.25 722.25 248.35 722.25 248.45 722.25 248.55 722.25 248.65 722.25 248.75 722.25 248.9 722.25 249 722.25 249.1 722.25 249.2 722.25 249.3 722.25 249.4 722.25 249.5 722.25 249.65 722.25 249.75 722.25 249.85 722.25 249.95 722.25 250.05 722.25 250.15 722.25 250.25 722.25 250.4 722.25 250.5 722.25 250.6 722.25 250.7 722.25 250.8 722.25 250.9 722.25 251 722.25 251.15 722.25 251.25 722.25 251.35 722.25 251.45 722.25 251.55 722.25 251.65 722.25 251.75 722.25 251.9 722.25 252 722.25 252.1 722.25 252.2 722.25 252.3 722.25 252.4 722.25 252.5 722.25 252.65 722.25 252.75 722.25 252.85 722.25 252.95 722.25 253.05 722.25 253.15 722.25 253.25 722.25 253.4 722.25 253.5 722.25 253.6 722.25 253.7 722.25 253.8 722.25 253.9 722.25 254.05 722.25 254.15 722.25 254.25 722.25 254.35 722.25 254.45 722.25 254.55 722.25 254.65 722.25 254.8 722.25 254.9 722.25 255 722.25 255.1 722.25 255.2 722.25 255.3 722.25 255.4 722.25 255.55 722.25 255.65 722.25 255.75 722.25 255.85 722.25 255.95 722.25 256.05 722.25 256.15 722.25 256.3 722.25 256.4 722.25 256.5 722.25 256.6 722.25 256.7 722.25 256.8 722.25 256.9 722.25 257.05 722.25 257.15 722.25 257.25 722.25 257.35 722.25 257.45 722.25 257.55 722.25 257.65 722.25 257.8 722.25 257.9 722.25 258 722.25 258.1 722.25 258.2 722.25 258.3 722.25 258.45 722.25 258.55 722.25 258.65 722.25 258.75 722.25 258.85 722.25 258.95 722.25 259.05 722.25 259.2 722.25 259.3 722.25 259.4 722.25 259.5 722.25 259.6 722.25 259.7 722.25 259.8 722.25 259.95 722.25 260.05 722.25 260.15 722.25 260.25 722.25 260.35 722.25 260.45 722.25 260.55 722.25 260.65 722.25 260.7 714.960546875 260.7 707.65 260.7 703.7232421875 260.7 699.75 260.7 695.1869140625 260.7 690.6 260.7 689.6248046875 260.7 688.65 260.7 686.5498046875 260.7 684.45 260.7 684.45 260.75 684.45 260.8 684.35 260.8 684.2 260.85
L 684.2 260.8
Q 684.2 260.7 684.2 260.55 684.2 260.45 684.2 260.35 684.2 260.25 684.2 260.15 684.2 260.05 684.2 259.95 684.2 259.8 684.2 259.7 684.2 259.6 684.2 259.5 684.2 259.4 684.2 259.3 684.2 259.2 684.2 259.05 684.2 258.95 684.2 258.85 684.2 258.75 684.2 258.65 684.2 258.55 684.2 258.45 684.2 258.3 684.2 258.2 684.2 258.1 684.2 258 684.2 257.9 684.2 257.8 684.2 257.65 684.2 257.55 684.2 257.45 684.2 257.35 684.2 257.25 684.2 257.15 684.2 257.05 684.2 256.9 684.2 256.8 684.2 256.7 684.2 256.6 684.2 256.5 684.2 256.4 684.2 256.3 684.2 256.15 684.2 256.05 684.2 255.95 684.2 255.85 684.2 255.75 684.2 255.65 684.2 255.55 684.2 255.4 684.2 255.3 684.2 255.2 684.2 255.1 684.2 255 684.2 254.9 684.2 254.8 684.2 254.65 684.2 254.55 684.2 254.45 684.2 254.35 684.2 254.25 684.2 254.15 684.2 254.05 684.2 253.9 684.2 253.8 684.2 253.7 684.2 253.6 684.2 253.5 684.2 253.4 684.2 253.25 684.2 253.15 684.2 253.05 684.2 252.95 684.2 252.85 684.2 252.75 684.2 252.65 684.2 252.5 684.2 252.4 684.2 252.3 684.2 252.2 684.2 252.1 684.2 252 684.2 251.9 684.2 251.75 684.2 251.65 684.2 251.55 684.2 251.45 684.2 251.35 684.2 251.25 684.2 251.15 684.2 251 684.2 250.9 684.2 250.8 684.2 250.7 684.2 250.6 684.2 250.5 684.2 250.4 684.2 250.25 684.2 250.15 684.2 250.05 684.2 249.95 684.2 249.85 684.2 249.75 684.2 249.65 684.2 249.5 684.2 249.4 684.2 249.3 684.2 249.2 684.2 249.1 684.2 249 684.2 248.9 684.2 248.75 684.2 248.65 684.2 248.55 684.2 248.45 684.2 248.35 684.2 248.25 684.2 248.1 684.2 248 684.2 247.9 684.2 247.8 684.2 247.7 684.2 247.6 684.2 247.5 684.2 247.35 684.2 247.25 684.2 247.15 684.2 247.05 684.2 246.95 684.2 246.85 684.2 246.75 684.2 246.6 684.2 246.5 684.2 246.4 684.2 246.3 684.2 246.2 684.2 246.1 684.2 246 684.2 245.85 684.2 245.75 684.2 245.65 684.2 245.55 684.2 245.45 684.2 245.35 684.2 245.25 684.2 245.1 684.2 245 684.2 244.9 684.2 244.8 684.2 244.7 684.2 244.6 684.2 244.5 684.2 244.35 684.2 244.25 684.2 244.15 684.2 244.05 684.2 243.95 684.2 243.85 684.2 243.75 684.2 243.6 684.2 243.5 684.2 243.4 684.2 243.3 684.2 243.2 684.2 243.1 684.2 242.95 684.2 242.85 684.2 242.75 684.2 242.65 684.2 242.55 684.2 242.45 684.2 242.35 684.2 242.2 684.2 242.1
L 684.2 242.05
Q 684.2 242 684.2 241.9 684.2 241.8 684.2 241.7 684.2 241.6 684.2 241.45 684.2 241.35 684.2 241.25 684.2 241.15 684.2 241.05 684.2 240.95 684.2 240.85 684.2 240.7 684.2 240.6 684.2 240.5 684.2 240.4 684.2 240.3 684.2 240.2 684.2 240.1 684.2 239.95 684.2 239.85 684.2 239.75 684.2 239.65 684.2 239.55 684.2 239.45 684.2 239.35 684.2 239.2 684.2 239.1 684.2 239 684.2 238.9 684.2 238.8 684.2 238.7 684.2 238.55 684.2 238.45 684.2 238.35 684.2 238.25 684.2 238.15 684.2 238.05 684.2 237.95 684.2 237.8
L 684.2 237.75
Q 686.42421875 237.755859375 688.65 237.75 689.625 237.753515625 690.6 237.75
M 684.2 261.65
Q 684.2 261.6 684.2 261.5 686.4251953125 261.505859375 688.65 261.5 689.6251953125 261.50390625 690.6 261.5 695.0384765625 261.5220703125 699.45 261.5 703.629296875 261.5341796875 707.75 261.55 715.01875 261.55 722.25 261.55 722.25 261.6 722.25 261.65 722.25 261.75 722.25 261.85 722.25 261.95 722.25 262.05 722.25 262.2 722.25 262.3 722.25 262.4 722.25 262.5 722.25 262.6 722.25 262.7 722.25 262.8 722.25 262.95 722.25 263.05 722.25 263.15 722.25 263.25 722.25 263.35 722.25 263.45 722.25 263.6 722.25 263.7 722.25 263.8 722.25 263.9 722.25 264 722.25 264.1 722.25 264.2 722.25 264.35 722.25 264.45 722.25 264.55 722.25 264.65 722.25 264.75 722.25 264.85 722.25 264.95 722.25 265.1 722.25 265.2 722.25 265.3 722.25 265.4 722.25 265.5 722.25 265.6 722.25 265.7 722.25 265.85 722.25 265.95 722.25 266.05 722.25 266.15 722.25 266.25 722.25 266.35 722.25 266.45 722.25 266.6 722.25 266.7 722.25 266.8
L 722.45 270.45 722.05 272.35
Q 721 273.85 720.05 275.35 719.9 275.6 719.7 275.75 717.9 277.25 715.45 277.45 712.6431640625 277.601953125 709.8 277.7 704.8712890625 277.844921875 699.9 277.8 695.654296875 277.7765625 691.4 277.6 690.991796875 277.541796875 690.6 277.45 689.568359375 277.2607421875 688.65 276.9 688.421484375 276.8416015625 688.2 276.75 686.85 276.15 686.1 275 685.25 273.7 684.4 272.35
L 684 270.45 684.15 269.65 684.15 269.6
Q 684.15 269.5 684.15 269.35 684.15 269.25 684.2 269.15 684.2 269.05 684.2 268.95 684.2 268.85 684.2 268.75 684.2 268.6 684.2 268.5 684.2 268.4 684.2 268.3 684.2 268.2 684.2 268.1 684.2 267.95 684.2 267.85 684.2 267.75 684.2 267.65 684.2 267.55 684.2 267.45 684.2 267.35 684.2 267.2 684.2 267.1 684.2 267 684.2 266.9 684.2 266.8 684.2 266.7 684.2 266.6 684.2 266.45 684.2 266.35 684.2 266.25 684.2 266.15 684.2 266.05 684.2 265.95 684.2 265.85 684.2 265.7 684.2 265.6 684.2 265.5 684.2 265.4 684.2 265.3 684.2 265.2 684.2 265.1 684.2 264.95 684.2 264.85 684.2 264.75 684.2 264.65 684.2 264.55 684.2 264.45 684.2 264.35 684.2 264.2 684.2 264.1 684.2 264 684.2 263.9 684.2 263.8 684.2 263.7 684.2 263.6 684.2 263.45 684.2 263.35 684.2 263.25 684.2 263.15 684.2 263.05 684.2 262.95 684.2 262.8 684.2 262.7 684.2 262.6 684.2 262.5 684.2 262.4 684.2 262.3 684.2 262.2 684.2 262.05 684.2 261.95 684.2 261.85 684.2 261.75 684.2 261.65
M 699.55 275.6
Q 700.5390625 275.640234375 701.5 275.65 705.6095703125 275.65 709.75 275.65 711.54453125 275.65 713.35 275.65 713.45 275.65 713.6 275.6 713.65 275.55 713.7 275.5 713.7 275.45 713.75 275.35 713.75 275.25 713.75 275.15 713.7 275.05 713.7 274.95 713.5 274.85 713.35 274.8 711.5203125 274.8 709.7 274.8 705.585546875 274.8 701.5 274.8
L 701.5 274.85
Q 700.48125 274.85 699.45 274.85 695.63125 274.85 691.8 274.85 691.7 274.9 691.65 274.95 691.6 275 691.5 275.1 691.5 275.2 691.5 275.3 691.6 275.4 691.65 275.5 695.629296875 275.58046875 699.55 275.6
M 699.8 204.9
Q 699.8423828125 204.9 699.85 204.9 704.1423828125 204.9 708.4 204.9 708.5 204.9 708.6 204.85 708.65 204.8 708.65 204.7 708.7 204.6 708.75 204.5 708.65 204.4 708.5 204.25 704.15 204.25 699.8 204.2
L 699.8 204.25
Q 698.983203125 204.2814453125 698.15 204.3 697.683203125 204.3314453125 697.2 204.35 697.15 204.45 697.05 204.55 697.15 204.65 697.2 204.8 698.5 204.85 699.8 204.9
M 709.25 211.95
L 709.4 211.65
Q 709.3 211.3 708.65 211.3
L 707.1 211.3 702.65 211.3 698.8 211.3
Q 698.3 211.3 698.1 211.45 697.75 211.85 697.55 212.05 697 212.4 696.75 212.6 696.55 212.75 696.5 213.05 696.45 213.3 696.65 213.45 697.05 213.5 698.35 213 698.581640625 212.9228515625 698.9 212.85 699.6095703125 212.75 700.75 212.75 704.3912109375 212.75 706.8 212.4 708.24140625 212.243359375 709.25 211.95
M 703.45 206.2
Q 703.45 206.3 703.45 206.4 704.05 206.45 704.65 206.5 705.2 206.45 705.75 206.4
L 705.75 206.35
Q 705.75 206.3 705.75 206.2 705.2 206.15 704.65 206.05 704.1 206.05 703.6 206.05 703.6 206.1 703.6 206.15 703.5 206.15 703.45 206.2
M 700.2 190.2
Q 700.15 190.2 700.1 190.2 700 190.2 699.95 190.2
L 699.95 190.25
Q 699.95 190.35 699.95 190.4 699.95 190.5 699.95 190.6 699.95 190.7 699.95 190.85 699.95 190.95 699.95 191.05 699.95 191.15 699.95 191.25 699.95 191.35 699.95 191.45 699.95 191.6 699.95 191.7 699.95 191.8 699.95 191.9 699.95 192 699.95 192.1 699.95 192.2 699.95 192.35 699.95 192.45 699.95 192.55 699.95 192.65 699.95 192.75 699.95 192.85 699.95 192.95 699.95 193.1 699.95 193.2 699.95 193.3 699.95 193.4 699.95 193.5 699.95 193.6 699.95 193.7 699.95 193.85 699.95 193.95 699.95 194.05 699.95 194.15 699.95 194.25 699.95 194.35 699.95 194.45 699.95 194.6 699.95 194.7 699.95 194.7427734375 699.95 194.75 699.95 194.8427734375 699.95 194.9 699.95 195 699.95 195.1 699.95 195.25 699.95 195.35 699.95 195.45 699.95 195.55 699.95 195.65 699.95 195.75 699.95 195.85 699.95 196 699.95 196.1 699.95 196.2 699.95 196.3 699.95 196.4 699.95 196.5 699.95 196.6 699.95 196.75 699.95 196.85 699.95 196.95 699.95 197.05 699.95 197.15 699.95 197.25 699.95 197.35 699.95 197.5 699.95 197.6 699.95 197.7 699.95 197.8 699.95 197.9
L 699.95 197.95
Q 697.45 197.9 694.95 197.9 694.95 197.95 694.95 198 694.85 198 694.8 198 694.75 198 694.7 198.05 694.7 198.1 694.7 198.2 694.75 198.3 694.8 198.4 700.55 198.4 706.3 198.4 706.4 198.3 706.5 198.2 706.35 198.1 706.25 198 703.2 197.95 700.2 197.95
L 700.2 197.9
Q 700.2 197.8 700.2 197.7 700.2 197.6 700.2 197.5 700.25 197.35 700.3 197.25 700.3 197.15 700.3 197.05 700.3 196.95 700.3 196.85 700.3 196.75 700.3 196.6 700.3 196.5 700.3 196.4 700.3 196.3 700.3 196.2 700.3 196.1 700.3 196 700.3 195.85 700.3 195.75 700.3 195.65 700.3 195.55 700.3 195.45 700.3 195.35 700.3 195.25 700.3 195.1 700.3 195 700.3 194.9 700.3 194.8669921875 700.3 194.8 700.3 194.7669921875 700.3 194.7 700.3 194.6 700.3 194.45 700.3 194.35 700.3 194.25 700.3 194.15 700.3 194.05 700.3 193.95 700.3 193.85 700.3 193.7 700.3 193.6 700.3 193.5 700.3 193.4 700.3 193.3 700.3 193.2 700.3 193.1 700.3 192.95 700.3 192.85 700.3 192.75 700.3 192.65 700.3 192.55 700.3 192.45 700.3 192.35 700.3 192.2 700.3 192.1 700.3 192 700.3 191.9 700.3 191.8 700.3 191.7 700.3 191.6 700.3 191.45 700.3 191.35 700.3 191.25 700.3 191.15 700.3 191.05 700.3 190.95 700.3 190.85 700.3 190.7 700.3 190.6 700.3 190.5 700.3 190.4 700.25 190.3 700.2 190.2 Z"/>

<path fill="#8E5336" stroke="none" d="
M 699.85 277.4
Q 699.8779296875 277.6095703125 699.9 277.8 704.8712890625 277.844921875 709.8 277.7 709.791015625 276.641015625 709.75 275.65 705.6095703125 275.65 701.5 275.65 700.5390625 275.640234375 699.55 275.6 699.68125 276.33125 699.85 277.4
M 708.65 266.45
Q 708.1123046875 264.06875 707.75 261.55 703.629296875 261.5341796875 699.45 261.5 699.0169921875 262.7162109375 698.4 263.95 698.4 264.1 699.25 266.7 700.1 269.45 700.1 270.4 700.1 271.45 699.75 272.65 699.4 273.9 699.4 274.3 699.4 274.3935546875 699.45 274.85 700.48125 274.85 701.5 274.85
L 701.5 274.8
Q 705.585546875 274.8 709.7 274.8 709.394140625 269.6396484375 708.65 266.45
M 690.6 261.5
Q 689.6251953125 261.50390625 688.65 261.5
L 688.65 276.9
Q 689.568359375 277.2607421875 690.6 277.45
L 690.6 261.5
M 706.8 212.4
Q 704.3912109375 212.75 700.75 212.75 699.6095703125 212.75 698.9 212.85 702.0302734375 215.7134765625 702.8 221.15 703.05 223.05 703.05 230.35 703.05 235.15 702.45 236.9 702.4416015625 236.924609375 702.4 236.95 705.6615234375 236.95 708.9 236.95 708.9 233.35 707.45 228.05 706 222.75 706 219.25 706 215.820703125 706.8 212.4
M 692.5 220.3
Q 694.41015625 217.24375 695.3 215.25 691.2236328125 218.0513671875 690.15 220.15 689.45 221.45 688.65 224.6
L 688.65 236.95
Q 689.625 236.95 690.6 236.95
L 690.6 227.3
Q 690.85 223 692.5 220.3
M 711.65 204.15
Q 711.85 204 712 203.9 712 203.8 712 203.7 712 203.6 712 203.5 712 203.4 712 203.25 712 203.15 712 203.05 712 202.95 712 202.85
L 712 202.8
Q 709.8 202.8 707.6 202.85 703.15 202.8 698.7 202.75 696.55 202.75 694.45 202.7 694.45 202.8 694.45 202.85 694.45 202.95 694.45 203.05 694.45 203.15 694.45 203.25 694.45 203.4 694.45 203.5 694.45 203.5890625 694.45 203.65 696.584375 203.889453125 698.15 204.3 698.983203125 204.2814453125 699.8 204.25
L 699.8 204.2
Q 704.15 204.25 708.5 204.25 708.65 204.4 708.75 204.5 708.7 204.6 708.65 204.7 708.65 204.8 708.6 204.85 708.5 204.9 708.4 204.9 704.1423828125 204.9 699.85 204.9 700.2109375 205.04296875 700.5 205.2 703.3 206.75 703.3 210 703.3 210.836328125 702.65 211.3
L 707.1 211.3
Q 708.2142578125 207.6111328125 710.05 205.25 710.07265625 205.2046875 710.1 205.15 710.2 205.05 710.3 204.9 710.3474609375 204.868359375 710.4 204.8 710.4974609375 204.768359375 710.6 204.7 710.75 204.65 710.95 204.55
L 711 204.5
Q 711.15 204.4 711.3 204.35 711.5 204.25 711.65 204.15
M 703.45 206.4
Q 703.45 206.3 703.45 206.2 703.5 206.15 703.6 206.15 703.6 206.1 703.6 206.05 704.1 206.05 704.65 206.05 705.2 206.15 705.75 206.2 705.75 206.3 705.75 206.35
L 705.75 206.4
Q 705.2 206.45 704.65 206.5 704.05 206.45 703.45 206.4 Z"/>

<path fill="#9D713F" stroke="none" d="
M 700.1 270.4
Q 700.1 269.45 699.25 266.7 698.4 264.1 698.4 263.95 699.0169921875 262.7162109375 699.45 261.5 695.0384765625 261.5220703125 690.6 261.5
L 690.6 277.45
Q 690.991796875 277.541796875 691.4 277.6 695.654296875 277.7765625 699.9 277.8 699.8779296875 277.6095703125 699.85 277.4 699.68125 276.33125 699.55 275.6 695.629296875 275.58046875 691.65 275.5 691.6 275.4 691.5 275.3 691.5 275.2 691.5 275.1 691.6 275 691.65 274.95 691.7 274.9 691.8 274.85 695.63125 274.85 699.45 274.85 699.4 274.3935546875 699.4 274.3 699.4 273.9 699.75 272.65 700.1 271.45 700.1 270.4
M 722.25 262.95
Q 722.25 262.8 722.25 262.7 722.25 262.6 722.25 262.5 722.25 262.4 722.25 262.3 722.25 262.2 722.25 262.05 722.25 261.95 722.25 261.85 722.25 261.75 722.25 261.65 722.25 261.6 722.25 261.55 715.01875 261.55 707.75 261.55 708.1123046875 264.06875 708.65 266.45 709.394140625 269.6396484375 709.7 274.8 711.5203125 274.8 713.35 274.8 713.5 274.85 713.7 274.95 713.7 275.05 713.75 275.15 713.75 275.25 713.75 275.35 713.7 275.45 713.7 275.5 713.65 275.55 713.6 275.6 713.45 275.65 713.35 275.65 711.54453125 275.65 709.75 275.65 709.791015625 276.641015625 709.8 277.7 712.6431640625 277.601953125 715.45 277.45 717.9 277.25 719.7 275.75 719.9 275.6 720.05 275.35 721 273.85 722.05 272.35
L 722.45 270.45 722.25 266.8
Q 722.25 266.7 722.25 266.6 722.25 266.45 722.25 266.35 722.25 266.25 722.25 266.15 722.25 266.05 722.25 265.95 722.25 265.85 722.25 265.7 722.25 265.6 722.25 265.5 722.25 265.4 722.25 265.3 722.25 265.2 722.25 265.1 722.25 264.95 722.25 264.85 722.25 264.75 722.25 264.65 722.25 264.55 722.25 264.45 722.25 264.35 722.25 264.2 722.25 264.1 722.25 264 722.25 263.9 722.25 263.8 722.25 263.7 722.25 263.6 722.25 263.45 722.25 263.35 722.25 263.25 722.25 263.15 722.25 263.05 722.25 262.95
M 714.3 271.8
Q 714.4 271.7 715 271.2
L 718.3 268.95
Q 719.4 268.2 720 268.55 720.55 268.85 720.45 269.6 720.35 270.1 719.95 270.65 719.3 271.5 718.7 272 717.1 273.3 715.6 273.45 715.05 273.55 714.65 273.35 714.15 273.2 714.05 272.7 713.9 272.3 714.3 271.8
M 684.2 261.5
Q 684.2 261.6 684.2 261.65 684.2 261.75 684.2 261.85 684.2 261.95 684.2 262.05 684.2 262.2 684.2 262.3 684.2 262.4 684.2 262.5 684.2 262.6 684.2 262.7 684.2 262.8 684.2 262.95 684.2 263.05 684.2 263.15 684.2 263.25 684.2 263.35 684.2 263.45 684.2 263.6 684.2 263.7 684.2 263.8 684.2 263.9 684.2 264 684.2 264.1 684.2 264.2 684.2 264.35 684.2 264.45 684.2 264.55 684.2 264.65 684.2 264.75 684.2 264.85 684.2 264.95 684.2 265.1 684.2 265.2 684.2 265.3 684.2 265.4 684.2 265.5 684.2 265.6 684.2 265.7 684.2 265.85 684.2 265.95 684.2 266.05 684.2 266.15 684.2 266.25 684.2 266.35 684.2 266.45 684.2 266.6 684.2 266.7 684.2 266.8 684.2 266.9 684.2 267 684.2 267.1 684.2 267.2 684.2 267.35 684.2 267.45 684.2 267.55 684.2 267.65 684.2 267.75 684.2 267.85 684.2 267.95 684.2 268.1 684.2 268.2 684.2 268.3 684.2 268.4 684.2 268.5 684.2 268.6 684.2 268.75 684.2 268.85 684.2 268.95 684.2 269.05 684.2 269.15 684.15 269.25 684.15 269.35 684.15 269.5 684.15 269.6
L 684.15 269.65 684 270.45 684.4 272.35
Q 685.25 273.7 686.1 275 686.85 276.15 688.2 276.75 688.421484375 276.8416015625 688.65 276.9
L 688.65 261.5
Q 686.4251953125 261.505859375 684.2 261.5
M 703.3 210
Q 703.3 206.75 700.5 205.2 700.2109375 205.04296875 699.85 204.9 699.8423828125 204.9 699.8 204.9 698.5 204.85 697.2 204.8 697.15 204.65 697.05 204.55 697.15 204.45 697.2 204.35 697.683203125 204.3314453125 698.15 204.3 696.584375 203.889453125 694.45 203.65
L 694.45 203.7
Q 694.45 203.8 694.45 203.9 694.6 204 694.8 204.15 694.95 204.25 695.15 204.35 695.3 204.4 695.45 204.5
L 695.5 204.55
Q 695.7 204.65 695.85 204.7 696 204.8 696.15 204.9 696.25 205.05 696.35 205.15 696.4 205.25 696.45 205.35 696.45 205.45 696.5 205.55 696.55 205.65 696.65 205.8 696.7 205.9 696.7 206 696.7 206.1 696.7 206.2 696.7 206.3 696.7 206.4 696.7 206.55 696.7 206.65 696.7 206.75 696.7 206.85 696.7 206.95 696.7 207.05 696.7 207.15 696.7 207.3 696.7 207.4 696.7 207.5 696.7 207.6 696.7 207.7 696.7 207.8 696.7 207.9 696.7 208.05 696.7 208.15 696.7 208.25 696.7 208.35 696.7 208.45 696.7 208.55 696.7 208.65 696.7 208.8 696.7 208.9 696.7 209 696.7 209.1 696.7 209.2 696.7 209.3 696.7 209.4 696.7 209.55 696.7 209.65 696.7 209.75 696.7 209.85 696.7 209.95 696.7 210.05 696.7 210.2 696.65 210.3 696.55 210.4 696.45 210.5 696.45 210.6 696.45 210.7 696.45 210.8 696.45 210.95 696.4 211.05 696.35 211.15 686.2 221.05 684.4 235.2 684.3 236.05 684.25 236.95 686.449609375 236.95 688.65 236.95
L 688.65 224.6
Q 689.45 221.45 690.15 220.15 691.2236328125 218.0513671875 695.3 215.25 694.41015625 217.24375 692.5 220.3 690.85 223 690.6 227.3
L 690.6 236.95
Q 696.509375 236.95 702.4 236.95 702.4416015625 236.924609375 702.45 236.9 703.05 235.15 703.05 230.35 703.05 223.05 702.8 221.15 702.0302734375 215.7134765625 698.9 212.85 698.581640625 212.9228515625 698.35 213 697.05 213.5 696.65 213.45 696.45 213.3 696.5 213.05 696.55 212.75 696.75 212.6 697 212.4 697.55 212.05 697.75 211.85 698.1 211.45 698.3 211.3 698.8 211.3
L 702.65 211.3
Q 703.3 210.836328125 703.3 210
M 709.95 205.55
Q 710 205.45 710 205.35 710.02265625 205.3046875 710.05 205.25 708.2142578125 207.6111328125 707.1 211.3
L 708.65 211.3
Q 709.3 211.3 709.4 211.65
L 709.25 211.95
Q 708.24140625 212.243359375 706.8 212.4 706 215.820703125 706 219.25 706 222.75 707.45 228.05 708.9 233.35 708.9 236.95 715.5708984375 236.95 722.25 236.95 722.15 236.05 722.05 235.2 720.25 221.05 710.1 211.15 710.05 211.05 710 210.95 710 210.8 710 210.7 710 210.6 710 210.5 709.9 210.4 709.8 210.3 709.75 210.2 709.75 210.05 709.75 209.95 709.75 209.85 709.75 209.75 709.75 209.65 709.75 209.55 709.75 209.4 709.75 209.3 709.75 209.2 709.75 209.1 709.75 209 709.75 208.9 709.75 208.8 709.75 208.65 709.75 208.55 709.75 208.45 709.75 208.35 709.75 208.25 709.75 208.15 709.75 208.05 709.75 207.9 709.75 207.8 709.75 207.7 709.75 207.6 709.75 207.5 709.75 207.4 709.75 207.3 709.75 207.15 709.75 207.05 709.75 206.95 709.75 206.85 709.75 206.75 709.75 206.65 709.75 206.55 709.75 206.4 709.75 206.3 709.75 206.2 709.75 206.1 709.75 206 709.75 205.9 709.8 205.8 709.9 205.65 709.95 205.55
M 709.9 222.35
Q 709.6 221.75 709.7 220.75 709.7 220.1 709.9 219.85 710.2 219.55 710.95 219.65 713.55 219.85 714.7 221.05 714.95 221.35 715.4 222 715.8 222.65 716.1 222.95 716.65 223.5 716.7 223.7
L 716.7 224.6
Q 716.65 225 716.7 225.8 716.7 226.5 716.35 226.85 715.7 227.5 714.35 226.9 713.4 226.35 712.3 225.25 711.15 223.9 710.55 223.25 710 222.6 709.9 222.35
M 718.1 229.75
Q 718.25 229.9 718.25 230.1 718.35 230.7 718.25 231
L 718.15 231.2 717.9 231.3
Q 717.75 231.35 717.4 231.25 717.1 231.05 717.1 230.85
L 716.95 230.25 717.05 230.05 717.05 229.85
Q 717.15 229.65 717.3 229.65
L 717.5 229.55
Q 718 229.55 718.1 229.75 Z"/>

<path fill="#B78B58" stroke="none" d="
M 715 271.2
Q 714.4 271.7 714.3 271.8 713.9 272.3 714.05 272.7 714.15 273.2 714.65 273.35 715.05 273.55 715.6 273.45 717.1 273.3 718.7 272 719.3 271.5 719.95 270.65 720.35 270.1 720.45 269.6 720.55 268.85 720 268.55 719.4 268.2 718.3 268.95
L 715 271.2
M 718.25 230.1
Q 718.25 229.9 718.1 229.75 718 229.55 717.5 229.55
L 717.3 229.65
Q 717.15 229.65 717.05 229.85
L 717.05 230.05 716.95 230.25 717.1 230.85
Q 717.1 231.05 717.4 231.25 717.75 231.35 717.9 231.3
L 718.15 231.2 718.25 231
Q 718.35 230.7 718.25 230.1
M 709.7 220.75
Q 709.6 221.75 709.9 222.35 710 222.6 710.55 223.25 711.15 223.9 712.3 225.25 713.4 226.35 714.35 226.9 715.7 227.5 716.35 226.85 716.7 226.5 716.7 225.8 716.65 225 716.7 224.6
L 716.7 223.7
Q 716.65 223.5 716.1 222.95 715.8 222.65 715.4 222 714.95 221.35 714.7 221.05 713.55 219.85 710.95 219.65 710.2 219.55 709.9 219.85 709.7 220.1 709.7 220.75 Z"/>

<path fill="#CDA45E" stroke="none" d="
M 722.25 247.25
Q 722.25 247.2115234375 722.25 247.15
L 704.75 253.75 704.75 253.25 711.35 246.85 684.2 255
Q 684.2 255.1 684.2 255.2 684.2 255.3 684.2 255.4 684.2 255.55 684.2 255.65 684.2 255.75 684.2 255.85 684.2 255.95 684.2 256.05 684.2 256.15 684.2 256.3 684.2 256.4 684.2 256.5 684.2 256.6 684.2 256.7 684.2 256.8 684.2 256.9 684.2 257.05 684.2 257.15 684.2 257.25 684.2 257.35 684.2 257.45 684.2 257.55 684.2 257.65 684.2 257.8 684.2 257.9 684.2 258 684.2 258.1 684.2 258.2 684.2 258.3 684.2 258.45 684.2 258.55 684.2 258.65 684.2 258.75 684.2 258.85 684.2 258.95 684.2 259.05 684.2 259.2 684.2 259.3 684.2 259.4 684.2 259.5 684.2 259.6 684.2 259.7 684.2 259.8 684.2 259.95 684.2 260.05 684.2 260.15 684.2 260.25 684.2 260.35 684.2 260.45 684.2 260.55 684.2 260.7 684.2 260.8
L 684.2 260.85
Q 684.35 260.8 684.45 260.8 684.45 260.75 684.45 260.7 686.5498046875 260.7 688.65 260.7 689.6248046875 260.7 690.6 260.7 695.1869140625 260.7 699.75 260.7 703.7232421875 260.7 707.65 260.7 714.960546875 260.7 722.25 260.7 722.25 260.65 722.25 260.55 722.25 260.45 722.25 260.35 722.25 260.25 722.25 260.15 722.25 260.05 722.25 259.95 722.25 259.8 722.25 259.7 722.25 259.6 722.25 259.5 722.25 259.4 722.25 259.3 722.25 259.2 722.25 259.05 722.25 258.95 722.25 258.85 722.25 258.75 722.25 258.65 722.25 258.55 722.25 258.45 722.25 258.3 722.25 258.2 722.25 258.1 722.25 258 722.25 257.9 722.25 257.8 722.25 257.65 722.25 257.55 722.25 257.45 722.25 257.35 722.25 257.25 722.25 257.15 722.25 257.05 722.25 256.9 722.25 256.8 722.25 256.7 722.25 256.6 722.25 256.5 722.25 256.4 722.25 256.3 722.25 256.15 722.25 256.05 722.25 255.95 722.25 255.85 722.25 255.75 722.25 255.65 722.25 255.55 722.25 255.4 722.25 255.3 722.25 255.2 722.25 255.1 722.25 255 722.25 254.9 722.25 254.8 722.25 254.65 722.25 254.55 722.25 254.45 722.25 254.35 722.25 254.25 722.25 254.15 722.25 254.05 722.25 253.9 722.25 253.8 722.25 253.7 722.25 253.6 722.25 253.5 722.25 253.4 722.25 253.25 722.25 253.15 722.25 253.05 722.25 252.95 722.25 252.85 722.25 252.75 722.25 252.65 722.25 252.5 722.25 252.4 722.25 252.3 722.25 252.2 722.25 252.1 722.25 252 722.25 251.9 722.25 251.75 722.25 251.65 722.25 251.55 722.25 251.45 722.25 251.35 722.25 251.25 722.25 251.15 722.25 251 722.25 250.9 722.25 250.8 722.25 250.7 722.25 250.6 722.25 250.5 722.25 250.4 722.25 250.25 722.25 250.15 722.25 250.05 722.25 249.95 722.25 249.85 722.25 249.75 722.25 249.65 722.25 249.5 722.25 249.4 722.25 249.3 722.25 249.2 722.25 249.1 722.25 249 722.25 248.9 722.25 248.75 722.25 248.65 722.25 248.55 722.25 248.45 722.25 248.35 722.25 248.25 722.25 248.1 722.25 248 722.25 247.9 722.25 247.8 722.25 247.7 722.25 247.6 722.25 247.5 722.25 247.35 722.25 247.25 Z"/>

<path fill="#E1C99B" stroke="none" d="
M 702.2 237.75
Q 696.3953125 237.77421875 690.6 237.75 689.625 237.753515625 688.65 237.75 686.42421875 237.755859375 684.2 237.75
L 684.2 237.8
Q 684.2 237.95 684.2 238.05 684.2 238.15 684.2 238.25 684.2 238.35 684.2 238.45 684.2 238.55 684.2 238.7 684.2 238.8 684.2 238.9 684.2 239 684.2 239.1 684.2 239.2 684.2 239.35 684.2 239.45 684.2 239.55 684.2 239.65 684.2 239.75 684.2 239.85 684.2 239.95 684.2 240.1 684.2 240.2 684.2 240.3 684.2 240.4 684.2 240.5 684.2 240.6 684.2 240.7 684.2 240.85 684.2 240.95 684.2 241.05 684.2 241.15 684.2 241.25 684.2 241.35 684.2 241.45 684.2 241.6 684.2 241.7 684.2 241.8 684.2 241.9 684.2 242 684.2 242.05
L 684.2 242.1
Q 684.2 242.2 684.2 242.35 684.2 242.45 684.2 242.55 684.2 242.65 684.2 242.75 684.2 242.85 684.2 242.95 684.2 243.1 684.2 243.2 684.2 243.3 684.2 243.4 684.2 243.5 684.2 243.6 684.2 243.75 684.2 243.85 684.2 243.95 684.2 244.05 684.2 244.15 684.2 244.25 684.2 244.35 684.2 244.5 684.2 244.6 684.2 244.7 684.2 244.8 684.2 244.9 684.2 245 684.2 245.1 684.2 245.25 684.2 245.35 684.2 245.45 684.2 245.55 684.2 245.65 684.2 245.75 684.2 245.85 684.2 246 684.2 246.1 684.2 246.2 684.2 246.3 684.2 246.4 684.2 246.5 684.2 246.6 684.2 246.75 684.2 246.85 684.2 246.95 684.2 247.05 684.2 247.15 684.2 247.25 684.2 247.35 684.2 247.5 684.2 247.6 684.2 247.7 684.2 247.8 684.2 247.9 684.2 248 684.2 248.1 684.2 248.25 684.2 248.35 684.2 248.45 684.2 248.55 684.2 248.65 684.2 248.75 684.2 248.9 684.2 249 684.2 249.1 684.2 249.2 684.2 249.3 684.2 249.4 684.2 249.5 684.2 249.65 684.2 249.75 684.2 249.85 684.2 249.95 684.2 250.05 684.2 250.15 684.2 250.25 684.2 250.4 684.2 250.5 684.2 250.6 684.2 250.7 684.2 250.8 684.2 250.9 684.2 251 684.2 251.15 684.2 251.25 684.2 251.35 684.2 251.45 684.2 251.55 684.2 251.65 684.2 251.75 684.2 251.9 684.2 252 684.2 252.1 684.2 252.2 684.2 252.3 684.2 252.4 684.2 252.5 684.2 252.65 684.2 252.75 684.2 252.85 684.2 252.95 684.2 253.05 684.2 253.15 684.2 253.25 684.2 253.4 684.2 253.5 684.2 253.6 684.2 253.7 684.2 253.8 684.2 253.9 684.2 254.05 684.2 254.15 684.2 254.25 684.2 254.35 684.2 254.45 684.2 254.55 684.2 254.65 684.2 254.8 684.2 254.9 684.2 255
L 711.35 246.85 704.75 253.25 704.75 253.75 722.25 247.15
Q 722.25 247.1115234375 722.25 247.05 722.25 246.95 722.25 246.85 722.25 246.75 722.25 246.6 722.25 246.5 722.25 246.4 722.25 246.3 722.25 246.2 722.25 246.1 722.25 246 722.25 245.85 722.25 245.75 722.25 245.65 722.25 245.55 722.25 245.45 722.25 245.35 722.25 245.25 722.25 245.1 722.25 245 722.25 244.9 722.25 244.8 722.25 244.7 722.25 244.6 722.25 244.5 722.25 244.35 722.25 244.25 722.25 244.15 722.25 244.05 722.25 243.95 722.25 243.85 722.25 243.75 722.25 243.6 722.25 243.5 722.25 243.4 722.25 243.3 722.25 243.2 722.25 243.1 722.25 242.95 722.25 242.85 722.25 242.75 722.25 242.65 722.25 242.55 722.25 242.45 722.25 242.35 722.25 242.2 722.25 242.1
L 722.25 242.05
Q 722.25 242 722.25 241.9 722.25 241.8 722.25 241.7 722.25 241.6 722.25 241.45 722.25 241.35 722.25 241.25 722.25 241.15 722.25 241.05 722.25 240.95 722.25 240.85 722.25 240.7 722.25 240.6 722.25 240.5 722.25 240.4 722.25 240.3 722.25 240.2 722.25 240.1 722.25 239.95 722.25 239.85 722.25 239.75 722.25 239.65 722.25 239.55 722.25 239.45 722.25 239.35 722.25 239.2 722.25 239.1 722.25 239 722.25 238.9 722.25 238.8 722.25 238.7 722.25 238.55 722.25 238.45 722.25 238.35 722.25 238.25 722.25 238.15 722.25 238.05 722.25 237.95 722.25 237.8 715.546875 237.8 708.85 237.8 705.526171875 237.7833984375 702.2 237.75 Z"/>

<path fill="#BCB7B3" stroke="none" d="
M 696.95 194.05
L 696.95 194.1
Q 696.95 194.2 696.95 194.35 696.95 194.45 696.95 194.55 696.95 194.65 696.95 194.75 696.95 194.85 696.95 195 696.95 195.1 696.95 195.2 696.95 195.3 696.95 195.4 696.95 195.5 696.95 195.6 696.95 195.75 696.95 195.85 696.95 195.95 696.95 196.05 696.95 196.15 696.95 196.25 696.9 196.35 696.85 196.5 696.85 196.55 696.85 196.6 696.85 196.65 696.85 196.7 696.7 196.65 696.5 196.6 696.45 196.5 696.45 196.4 696.45 196.3 696.45 196.2 696.45 196.1 696.45 196 696.45 195.85 696.45 195.75 696.45 195.65 696.45 195.55 696.45 195.45 696.45 195.35 696.45 195.25 696.45 195.1 696.45 195 696.45 194.9 696.45 194.8 696.45 194.7 696.45 194.6 696.45 194.45 696.45 194.35 696.45 194.25 696.45 194.15 696.45 194.05 696.45 193.95 696.45 193.85 695.4732421875 193.4212890625 694.3 192.75 694.3 192.8146484375 694.3 192.85 694.3 192.95 694.3 193.05 694.3 193.15 694.3 193.25 694.3 193.35 694.3 193.45 694.3 193.6 694.3 193.7 694.3 193.8 694.3 193.9 694.3 194 694.3 194.1 694.3 194.2 694.3 194.35 694.3 194.45 694.3 194.55 694.3 194.65 694.3 194.75 694.3 194.85 694.3 195 694.3 195.1 694.3 195.2 694.3 195.3 694.3 195.4 694.3 195.5 694.3 195.6 694.3 195.75 694.3 195.85 694.3 195.95 694.3 196.05 694.3 196.15 694.3 196.25 694.3 196.35 694.3 196.5 694.3 196.6 694.3 196.7 694.3 196.8 694.3 196.9 694.3 197 694.3 197.1 694.3 197.25 694.3 197.35 694.3 197.45 694.3 197.55 694.3 197.65 694.3 197.75 694.3 197.85 694.3 198 694.3 198.1 694.3 198.2 694.2 198.3 694.15 198.4 694.05 198.5 693.95 198.55 693.75 198.55 693.5 198.55 693.45 198.65 693.35 198.75 693.25 198.85 693.15 199 693.05 199.1 693 199.2 692.95 199.25 692.95 199.35 692.8 199.4 692.65 199.5 692.6 199.6 692.55 199.7 692.45 199.8 692.35 199.9 692.2 200 692.05 200.15 692.05 200.25 692.05 200.35 692.05 200.45 692.05 200.55 692.05 200.65 692.05 200.75 692.15 200.9 692.3 201 692.45 201.05 692.65 201.15 692.8 201.2 693 201.25 693.25 201.35 693.5 201.4 693.7 201.5 693.85 201.55 693.95 201.65 694.1 201.7
L 694.15 201.7
Q 696.45 201.65 698.7 201.65 703.15 201.65 707.6 201.65 707.6 201.6 707.6 201.55 710.1 201.55 712.6 201.55 712.75 201.5 712.95 201.4 713.2 201.35 713.45 201.25 713.65 201.2 713.8 201.15 714 201.05 714.15 201 714.3 200.9 714.4 200.75 714.4 200.65 714.4 200.55 714.4 200.45 714.4 200.35 714.4 200.25 714.4 200.15 714.25 200 714.1 199.9 714 199.8 713.9 199.7 713.85 199.6 713.8 199.5 713.65 199.4 713.5 199.35 713.5 199.25 713.45 199.2 713.4 199.1 713.3 199 713.2 198.85 713.1 198.75 713 198.65 712.95 198.55 712.7 198.55 712.5 198.55 712.4 198.5 712.3 198.4 712.25 198.3 712.15 198.2 712.15 198.1 712.15 198 712.15 197.85 712.15 197.75 712.15 197.65 712.15 197.55 712.15 197.45 712.15 197.35 712.15 197.25 712.15 197.1 712.15 197 712.15 196.9 712.15 196.8 712.15 196.7 712.15 196.6 712.15 196.5 712.15 196.35 712.15 196.25 712.15 196.15 712.15 196.05 712.15 195.95 712.15 195.85 712.15 195.75 712.15 195.6 712.15 195.5 712.15 195.4 712.15 195.3 712.15 195.2 712.15 195.1 712.15 195 712.15 194.85 712.15 194.75 712.15 194.65 712.15 194.55 712.15 194.45 712.15 194.35 712.15 194.2 712.15 194.1 712.15 194 712.15 193.9 712.15 193.8 712.15 193.7 712.15 193.6 712.15 193.45 711.6130859375 193.57109375 711.05 193.7 705.3 195.05 704.75 195.05 702.149609375 195.05 700.3 194.8 700.3 194.8669921875 700.3 194.9 700.3 195 700.3 195.1 700.3 195.25 700.3 195.35 700.3 195.45 700.3 195.55 700.3 195.65 700.3 195.75 700.3 195.85 700.3 196 700.3 196.1 700.3 196.2 700.3 196.3 700.3 196.4 700.3 196.5 700.3 196.6 700.3 196.75 700.3 196.85 700.3 196.95 700.3 197.05 700.3 197.15 700.3 197.25 700.25 197.35 700.2 197.5 700.2 197.6 700.2 197.7 700.2 197.8 700.2 197.9
L 700.2 197.95
Q 703.2 197.95 706.25 198 706.35 198.1 706.5 198.2 706.4 198.3 706.3 198.4 700.55 198.4 694.8 198.4 694.75 198.3 694.7 198.2 694.7 198.1 694.7 198.05 694.75 198 694.8 198 694.85 198 694.95 198 694.95 197.95 694.95 197.9 697.45 197.9 699.95 197.95
L 699.95 197.9
Q 699.95 197.8 699.95 197.7 699.95 197.6 699.95 197.5 699.95 197.35 699.95 197.25 699.95 197.15 699.95 197.05 699.95 196.95 699.95 196.85 699.95 196.75 699.95 196.6 699.95 196.5 699.95 196.4 699.95 196.3 699.95 196.2 699.95 196.1 699.95 196 699.95 195.85 699.95 195.75 699.95 195.65 699.95 195.55 699.95 195.45 699.95 195.35 699.95 195.25 699.95 195.1 699.95 195 699.95 194.9 699.95 194.8427734375 699.95 194.75 699.5564453125 194.737890625 699.2 194.65
L 699.2 194.7
Q 699.2 194.8 699.2 194.9 699.2 195 699.2 195.1 699.2 195.25 699.2 195.35 699.2 195.45 699.2 195.55 699.2 195.65 699.2 195.75 699.2 195.85 699.2 196 699.2 196.1 699.2 196.2 699.2 196.3 699.2 196.4 699.2 196.5 699.15 196.6 699.15 196.75 699.15 196.85 699.1 196.95 699.1 197.05 699 197.1 698.95 197.1 698.85 197.05 698.8 197 698.8 196.85 698.8 196.75 698.75 196.65 698.7 196.55 698.7 196.45 698.7 196.35 698.7 196.25 698.7 196.1 698.7 196 698.7 195.9 698.7 195.8 698.7 195.7 698.7 195.6 698.7 195.5 698.7 195.35 698.7 195.25 698.7 195.15 698.7 195.05 698.7 194.95 698.7 194.85 698.7 194.7 698.7 194.6
L 698.7 194.55
Q 698.29765625 194.500390625 697.95 194.4 697.482421875 194.259765625 696.95 194.05 Z"/>

<path fill="#CECDCB" stroke="none" d="
M 698.45 189.45
Q 698.5 189.35 698.6 189.3 697.75 189.3 696.95 189.3 696.95 189.35 696.95 189.4 696.95 189.5 696.95 189.6 696.95 189.7 696.95 189.8 696.95 189.95 696.95 190.05 696.95 190.15 696.95 190.25 696.95 190.35 696.95 190.45 696.95 190.6 696.95 190.7 696.95 190.8 696.95 190.9 696.95 191 696.95 191.1 696.95 191.2 696.95 191.35 696.95 191.45 696.95 191.55 696.95 191.65 696.95 191.75 696.95 191.85 696.95 191.95 696.95 192.1 696.95 192.2 696.95 192.3 696.95 192.4 696.95 192.5 696.95 192.6 696.95 192.7 696.95 192.85 696.95 192.95 696.95 193.05 696.95 193.15 696.95 193.25 696.95 193.35 696.95 193.45 696.95 193.6 696.95 193.7 696.95 193.8 696.95 193.9 696.95 193.97421875 696.95 194.05 697.482421875 194.259765625 697.95 194.4 698.29765625 194.500390625 698.7 194.55 698.7 194.492578125 698.7 194.4 698.7 194.3 698.7 194.2 698.7 194.1 698.7 193.95 698.7 193.85 698.7 193.75 698.7 193.65 698.7 193.55 698.7 193.45 698.7 193.35 698.7 193.2 698.7 193.1 698.7 193 698.7 192.9 698.7 192.8 698.7 192.7 698.7 192.6 698.7 192.45 698.7 192.35 698.7 192.25 698.7 192.15 698.7 192.05 698.7 191.95 698.7 191.85 698.7 191.7 698.7 191.6 698.7 191.5 698.7 191.4 698.7 191.3 698.7 191.2 698.7 191.1 698.7 190.95 698.7 190.85 698.7 190.75 698.7 190.65 698.7 190.55 698.7 190.45 698.7 190.35 698.7 190.2 698.7 190.1 698.7 190 698.7 189.9 698.6 189.8 698.45 189.7 698.45 189.55 698.45 189.45
M 694.3 189.25
Q 694.3 189.35 694.3 189.4 694.3 189.5 694.3 189.6 694.3 189.7 694.3 189.8 694.3 189.95 694.3 190.05 694.3 190.15 694.3 190.25 694.3 190.35 694.3 190.45 694.3 190.6 694.3 190.7 694.3 190.8 694.3 190.9 694.3 191 694.3 191.1 694.3 191.2 694.3 191.35 694.3 191.45 694.3 191.55 694.3 191.65 694.3 191.75 694.3 191.85 694.3 191.95 694.3 192.1 694.3 192.2 694.3 192.3 694.3 192.4 694.3 192.5 694.3 192.6 694.3 192.6765625 694.3 192.75 695.4732421875 193.4212890625 696.45 193.85 696.45 193.7 696.45 193.6 696.45 193.5 696.45 193.4 696.45 193.3 696.45 193.2 696.45 193.1 696.45 192.95 696.45 192.85 696.45 192.75 696.45 192.65 696.45 192.55 696.45 192.45 696.45 192.35 696.45 192.2 696.45 192.1 696.45 192 696.45 191.9 696.45 191.8 696.45 191.7 696.45 191.6 696.45 191.45 696.45 191.35 696.45 191.25 696.45 191.15 696.45 191.05 696.45 190.95 696.45 190.85 696.45 190.7 696.45 190.6 696.45 190.5 696.45 190.4 696.45 190.3 696.45 190.2 696.45 190.1 696.45 189.95 696.45 189.85 696.45 189.75 696.45 189.65 696.45 189.55 696.45 189.45 696.45 189.3 695.35 189.25 694.3 189.25
M 696.6 186.95
Q 696.35 187 696.15 187.05 695.95 187.15 695.7 187.25 695.6 187.35 695.5 187.45 695.3 187.55 695.15 187.7 695 187.8 694.85 187.9 694.8 188 694.7 188.1 694.55 188.2 694.45 188.3 694.35 188.45 694.3 188.55 694.3 188.65 694.3 188.75 694.3 188.85 694.3 188.95 694.3 189 694.3 189.05 694.35 189 694.45 188.95
L 694.45 188.9
Q 696.7 188.9 698.95 188.9 703.55 188.9 708.15 188.9 708.5 188.95 708.8 189.05 708.8 189.1 708.8 189.2 708.75 189.2 708.75 189.25 708.45 189.3 708.15 189.3 703.65 189.3 699.2 189.3 699.2 189.45 699.2 189.55 699.2 189.65 699.2 189.75 699.2 189.85 699.2 189.95 699.2 190.1 699.2 190.2 699.2 190.3 699.2 190.4 699.2 190.5 699.2 190.6 699.2 190.7 699.2 190.85 699.2 190.95 699.2 191.05 699.2 191.15 699.2 191.25 699.2 191.35 699.2 191.45 699.2 191.6 699.2 191.7 699.2 191.8 699.2 191.9 699.2 192 699.2 192.1 699.2 192.2 699.2 192.35 699.2 192.45 699.2 192.55 699.2 192.65 699.2 192.75 699.2 192.85 699.2 192.95 699.2 193.1 699.2 193.2 699.2 193.3 699.2 193.4 699.2 193.5 699.2 193.6 699.2 193.7 699.2 193.85 699.2 193.95 699.2 194.05 699.2 194.15 699.2 194.25 699.2 194.35 699.2 194.45 699.2 194.5802734375 699.2 194.65 699.5564453125 194.737890625 699.95 194.75 699.95 194.7427734375 699.95 194.7 699.95 194.6 699.95 194.45 699.95 194.35 699.95 194.25 699.95 194.15 699.95 194.05 699.95 193.95 699.95 193.85 699.95 193.7 699.95 193.6 699.95 193.5 699.95 193.4 699.95 193.3 699.95 193.2 699.95 193.1 699.95 192.95 699.95 192.85 699.95 192.75 699.95 192.65 699.95 192.55 699.95 192.45 699.95 192.35 699.95 192.2 699.95 192.1 699.95 192 699.95 191.9 699.95 191.8 699.95 191.7 699.95 191.6 699.95 191.45 699.95 191.35 699.95 191.25 699.95 191.15 699.95 191.05 699.95 190.95 699.95 190.85 699.95 190.7 699.95 190.6 699.95 190.5 699.95 190.4 699.95 190.35 699.95 190.25
L 699.95 190.2
Q 700 190.2 700.1 190.2 700.15 190.2 700.2 190.2 700.25 190.3 700.3 190.4 700.3 190.5 700.3 190.6 700.3 190.7 700.3 190.85 700.3 190.95 700.3 191.05 700.3 191.15 700.3 191.25 700.3 191.35 700.3 191.45 700.3 191.6 700.3 191.7 700.3 191.8 700.3 191.9 700.3 192 700.3 192.1 700.3 192.2 700.3 192.35 700.3 192.45 700.3 192.55 700.3 192.65 700.3 192.75 700.3 192.85 700.3 192.95 700.3 193.1 700.3 193.2 700.3 193.3 700.3 193.4 700.3 193.5 700.3 193.6 700.3 193.7 700.3 193.85 700.3 193.95 700.3 194.05 700.3 194.15 700.3 194.25 700.3 194.35 700.3 194.45 700.3 194.6 700.3 194.7 700.3 194.7669921875 700.3 194.8 702.149609375 195.05 704.75 195.05 705.3 195.05 711.05 193.7 711.6130859375 193.57109375 712.15 193.45 712.15 193.35 712.15 193.25 712.15 193.15 712.15 193.05 712.15 192.95 712.15 192.85 712.15 192.7 712.15 192.6 712.15 192.5 712.15 192.4 712.15 192.3 712.15 192.2 712.15 192.1 712.15 191.95 712.15 191.85 712.15 191.75 712.15 191.65 712.15 191.55 712.15 191.45 712.15 191.35 712.15 191.2 712.15 191.1 712.15 191 712.15 190.9 712.15 190.8 712.15 190.7 712.15 190.6 712.15 190.45 712.15 190.35 712.15 190.25 712.15 190.15 712.15 190.05 712.15 189.95 712.15 189.8 712.15 189.7 712.15 189.6 712.15 189.5 712.15 189.4 712.15 189.3 712.15 189.2 712.15 189.05 712.15 188.95 712.15 188.85 712.15 188.75 712.15 188.65 712.15 188.55 712.1 188.45 712 188.3 711.9 188.2 711.75 188.1 711.65 188 711.6 187.9 711.45 187.8 711.3 187.7 711.15 187.55 710.95 187.45 710.85 187.35 710.75 187.25 710.5 187.15 710.3 187.05 710.1 187 709.85 186.95 708.2 187 706.6 187.05 704.95 187 703.25 187 701.5 187 699.85 187.05 698.25 187 696.6 186.95 Z"/>
</g>

<g id="Layer0_3_FILL">
<path fill="#3B3D35" stroke="none" d="
M 691 237.3
Q 690.4 236.6 689.8 235.95 688.26640625 234.2884765625 687.05 232.35 686.4095703125 231.305078125 685.85 230.15
L 685.85 230.05
Q 686.2 229.95 686.55 229.9 686.8 229.75 687.05 229.65 688.7 229.35 688.6 227.7 688.65 226.35 688.2 225.2 687.6 223.8 687.4 223.05 687.25 222.4 687.3 221.3 687.35 219.85 687.35 219.55 687.25 217.55 686.15 216.9 686.15 216.8 686.15 216.7 686.1 216.6 686.1 216.5 686 216.4 685.85 216.35 685.75 216.3 685.65 216.25 683.85 216.25 682 216.25
L 682 216.2
Q 681.35 216.2 680.65 216.2 678.2 216.2 675.7 216.2 675.05 216.2 674.35 216.2
L 674.35 216.25
Q 672.5 216.25 670.7 216.25 670.6 216.3 670.5 216.35 670.35 216.4 670.25 216.5 670.25 216.6 670.2 216.7 670.2 216.8 670.2 216.9 669.1 217.55 669 219.55 669 219.85 669.05 221.3 669.1 222.4 668.95 223.05 668.75 223.8 668.15 225.2 667.65 226.55 667.8 228.1 667.9 228.8 668.15 229.1 668.35 229.3 669.3 229.65 669.35 229.7 669.4 229.7
L 670.5 230.15
Q 670.150390625 230.8326171875 669.75 231.5 668.9671875 232.866015625 668 234.2 667.7 234.5 667.5 234.9 667.15 235.6 666.45 236.1 665.6 236.75 664.95 237.7 663.7 239.35 662.9 241.1
L 662.6 241.5 662.55 272.65 662.85 275.5
Q 663.4 276.25 663.9 277.05 664.2 277.5 664.45 277.85 665.6 279.25 667.2 280.35
L 688.85 280.55
Q 691.9 278.6 693.6 275.4
L 693.45 273.5 693.8 272.65 693.75 241.5 693.45 241.1
Q 693.3 240.5 692.95 240 692.05 238.55 691 237.3
M 690 238.5
Q 691.5 240.25 692.4 242.3 692.45 246.8 692.4 251.3 692.35 256.45 692.4 261.6 692.45 266.15 692.2 270.65 692.15 271.7 692.45 272.65
L 692.5 274.7 688.15 279.2 681.45 279.2 677.05 279.2 668.2 279.2 665.75 276.85
Q 665.45 276.6 665.2 276.4 665.05 276.3 664.9 276.25 664.8 276.1 664.7 276.05 664.65 275.9 664.6 275.8 664.35 275.1 664.05 274.6 663.85 274.25 663.75 273.85 663.8 273.85 663.85 273.85 666.45 273.9 669.05 273.9 669.8888671875 273.9 670.7 273.9 676.500390625 273.9 682.3 273.9 683.49921875 273.9 684.7 273.9 684.8 273.85 684.95 273.8
L 686.05 273.85
Q 686.05 273.75 686.05 273.7 686.05 273.6 686.05 273.5 686.05 273.4 686.05 273.25 686.05 273.15 686.05 273.05 686.05 272.95 686.05 272.85 686.05 272.75 686.05 272.65 686.05 272.5 686.05 272.4 686.05 272.3 686.05 272.2 686.05 272.1 686.05 272 686.05 271.9 686.05 271.75 686.05 271.65 686.05 271.55 686.05 271.45 686.05 271.35 686.05 271.25 686.05 271.15 686.05 271 686.05 270.9 686.05 270.8 686.05 270.7 686.05 270.6 686.05 270.5 686.05 270.4 686.05 270.25 686.05 270.15 686.05 270.05 686.05 269.95 686.05 269.85 686.05 269.75 686.05 269.65 686.05 269.5 686.05 269.4 686.05 269.3 686.05 269.2 686.05 269.1 686.05 269 686.05 268.9 686.05 268.75 686.05 268.65 686.05 268.55 686.05 268.45 686.05 268.35 686.05 268.25 686.05 268.1 686.05 268 686.05 267.9 686.05 267.8 686.05 267.7 686.05 267.6 686.05 267.5 686.05 267.35 686.05 267.25 686.05 267.15 686.05 267.05 686.05 266.95 686.05 266.85 686.05 266.75 686.05 266.6 686.05 266.5 686.05 266.4 686.05 266.3 686.05 266.2 686.05 266.1 686.05 266 686.05 265.85 686.05 265.75 686.05 265.65 686.05 265.55 686.05 265.45 686.05 265.35 686.05 265.25 686.05 265.1 686.05 265 686.05 264.9 686.05 264.8 686.05 264.7 686.05 264.6 686.05 264.5 686.05 264.35 686.05 264.25 686.05 264.15 686.05 264.05 686.05 263.95 686.05 263.85 686.05 263.75 686.05 263.6 686.05 263.5 686.05 263.4 686.05 263.3 686.05 263.2 686.05 263.1 686.05 262.95 686.05 262.85 686.05 262.75 686.05 262.65 686.05 262.55 686.05 262.45 686.05 262.35 686.05 262.2 686.05 262.1 686.05 262 686.05 261.9 686.05 261.8 686.05 261.7 686.05 261.6 686.05 261.45 686.05 261.35 686.05 261.25 686.05 261.15 686.05 261.05 686.05 260.95 686.05 260.85 686.05 260.7 686.05 260.6 686.05 260.5 686.05 260.4 686.05 260.3 686.05 260.2 686.05 260.1 686.05 259.95 686.05 259.85 686.05 259.75 686.05 259.65 686.05 259.55 686.05 259.45 686.05 259.35 686.05 259.2 686.05 259.1 686.05 259 686.05 258.9 686.05 258.8 686.05 258.7 686.05 258.55 686.05 258.45 686.05 258.35 686.05 258.25 686.05 258.15 686.05 258.05 686.05 257.95 686.05 257.8 686.05 257.7 686.05 257.6 686.05 257.5 686.05 257.4 686.05 257.3 686.05 257.2 686.05 257.05 686.05 256.95 686.05 256.85 686.05 256.75 686.05 256.65 686.05 256.55 686.05 256.45 686.05 256.3 686.05 256.2 686.05 256.1 686.05 256 686.05 255.9 686.05 255.8 686.05 255.7 686.05 255.55 686.05 255.45 686.05 255.35 686.05 255.25 686.05 255.15 686.05 255.05 686.05 254.95 686.05 254.8 686.05 254.7 686.05 254.6 686.05 254.5 686.05 254.4 686.05 254.3 686.05 254.2 686.05 254.05 686.05 253.95 686.05 253.85 686.05 253.75 686.05 253.65 686.05 253.55 686.05 253.4 686.05 253.3 686.05 253.2 686.05 253.1 686.05 253 686.05 252.9 686.05 252.8 686.05 252.65 686.05 252.55 686.05 252.45 686.05 252.35 686.05 252.25 686.05 252.15 686.05 252.05 686.05 251.9 686.05 251.8 686.05 251.7 686.05 251.6 686.05 251.5 686.05 251.4 686.05 251.3 686.05 251.15 686.05 251.05 686.05 250.95 686.05 250.85 686.05 250.75 686.05 250.65 686.05 250.55 686 250.4 686 250.3 686 250.2 686 250.1 686 250 686 249.9 686 249.8 686 249.65 686 249.55 686 249.45 686 249.35 686 249.25 686 249.15 686 249.05 685.95 248.9 685.9 248.8 685.8 248.7 685.7 248.6
L 685.6 248.6
Q 685.6 248.55 685.6 248.5 685.45 248.4 685.3 248.3 685.05 248.25 684.85 248.15 684.03125 248.15 683.2 248.15 682.9001953125 248.15 682.6 248.15 679.7568359375 248.15 676.9 248.15 670.6671875 248.15 664.4 248.15 664.4 248.2 664.4 248.25 664.15 248.25 663.9 248.25 663.9 245.3 663.95 242.3 664.3 241.1 665.15 240.05 665.55 239.6 666.1 238.95 667.5 237.15 669.05 235.25 670.1 234 670.95 232.5 671.1466796875 232.191015625 671.25 231.85 671.35625 231.641015625 671.4 231.4 671.5 231.4 671.55 231.45 671.6 231.45 671.65 231.5 678.35 231.5 685.15 231.5 685.386328125 232.4453125 685.9 233.3 686.1751953125 233.7439453125 686.5 234.15 688.2 236.45 690 238.5
M 670.25 221.95
Q 670.15 220.85 670.1 220.3 670 218.25 671.05 217.4 672.65 217.4 674.35 217.5 676.25 217.45 678.2 217.45 680.1 217.45 682 217.5 683.7 217.4 685.3 217.4 686.35 218.25 686.25 220.3 686.2 220.85 686.1 221.95 686.05 222.95 686.2 223.6 686.3 224.1 686.85 225.35 687.3 226.4 687.35 227.05 687.4 227.4 687.35 227.7
L 686.9 228.4 686.05 228.8
Q 685.9 228.75 685.8 228.7 683.3 228.7 680.85 228.7 680.85 228.75 680.85 228.8 677.45 228.8 674.05 228.8 672.55 228.8 671.05 228.85 670.9 228.9 670.75 228.9 670.6 228.8 670.35 228.7 670 228.6 669.8 228.5 669.45 228.4 669.3 228.2 668.9 227.8 669 227.05 669.05 226.4 669.5 225.35 669.75 224.8 669.9 224.4 672.55 224.45 675.2 224.5 675.65 224.45 676.15 224.4 676.9 224.4 677.7 224.35 677.75 224.3 677.8 224.25 677.8 224.2 677.8 224.15 676.95 224.05 676.15 224 675.65 223.95 675.2 223.9 672.65 223.9 670.1 223.9 670.1 223.75 670.15 223.6 670.3 222.95 670.25 221.95
M 685.2 249.55
Q 685.2 249.65 685.2 249.75 685.2 249.85 685.2 249.95 685.2 250.05 685.2 250.15 685.15 250.3 685.1 250.4 685.1 250.5 685.1 250.6 685.1 250.7 685.1 250.8 685.1 250.9 685.1 251.05 685.1 251.15 685.1 251.25 685.1 251.35 685.1 251.45 685.1 251.55 685.1 251.65 685.1 251.8 685.1 251.9 685.1 252 685.1 252.1 685.1 252.2 685.1 252.3 685.1 252.4 685.1 252.55 685.1 252.65 685.1 252.75 685.1 252.85 685.1 252.95 685.1 253.05 685.1 253.15 685.1 253.3 685.1 253.4 685.1 253.5 685.1 253.6 685.1 253.7 685.1 253.8 685.1 253.9 685.1 254.05 685.1 254.15 685.1 254.25 685.1 254.35 685.1 254.45 685.1 254.55 685.1 254.7 685.1 254.8 685.1 254.9 685.1 255 685.1 255.1 685.1 255.2 685.1 255.3 685.1 255.45 685.1 255.55 685.1 255.65 685.1 255.75 685.1 255.85 685.1 255.95 685.1 256.05 685.1 256.2 685.1 256.3 685.1 256.4 685.1 256.5 685.1 256.6 685.1 256.7 685.1 256.8 685.1 256.95 685.1 257.05 685.1 257.15 685.1 257.25 685.1 257.35 685.1 257.45 685.1 257.55 685.1 257.7 685.1 257.8 685.1 257.9 685.1 258 685.1 258.1 685.1 258.2 685.1 258.3 685.1 258.45 685.1 258.55 685.1 258.65 685.1 258.75 685.1 258.85 685.1 258.95 685.1 259.1 685.1 259.2 685.1 259.3 685.1 259.4 685.1 259.5 685.1 259.6 685.1 259.7 685.1 259.85 685.1 259.95 685.1 260.05 685.1 260.15 685.1 260.25 685.1 260.35 685.1 260.45 685.1 260.6 685.1 260.7 685.1 260.8 685.1 260.9 685.1 261 685.1 261.1 685.1 261.2 685.1 261.35 685.1 261.45 685.1 261.55 685.1 261.65 685.1 261.75 685.1 261.85 685.1 261.95 685.1 262.1 685.1 262.2 685.1 262.3 685.1 262.4 685.1 262.5 685.1 262.6 685.1 262.7 685.1 262.85 685.1 262.95 685.1 263.05 685.1 263.15 685.1 263.25 685.1 263.35 685.1 263.45 685.1 263.6 685.1 263.7 685.1 263.8 685.1 263.9 685.1 264 685.1 264.1 685.1 264.25 685.1 264.35 685.1 264.45 685.1 264.55 685.1 264.65 685.1 264.75 685.1 264.85 685.1 265 685.1 265.1 685.1 265.2 685.1 265.3 685.1 265.4 685.1 265.5 685.1 265.6 685.1 265.75 685.1 265.85 685.1 265.95 685.1 266.05 685.1 266.15 685.1 266.25 685.1 266.35 685.1 266.5 685.1 266.6 685.1 266.7 685.1 266.8 685.1 266.9 685.1 267 685.1 267.1 685.1 267.25 685.1 267.35 685.1 267.45 685.1 267.55 685.1 267.65 685.1 267.75 685.1 267.85 685.1 268 685.1 268.1 685.1 268.2 685.1 268.3 685.1 268.4 685.1 268.5 685.1 268.65 685.1 268.75 685.1 268.85 685.1 268.95 685.1 269.05 685.1 269.15 685.1 269.25 685.1 269.4 685.1 269.5 685.1 269.6 685.1 269.7 685.1 269.8 685.1 269.9 685.1 270 685.1 270.15 685.1 270.25 685.1 270.35 685.1 270.45 685.1 270.55 685.1 270.65 685.1 270.75 685.1 270.9 685.1 271 685.1 271.1 685.1 271.2 685.1 271.3 685.1 271.4 685.1 271.5 685.1 271.65 685.1 271.75 685.1 271.85 685.1 271.95 685.1 272.05 685.1 272.15 685.1 272.25 685.1 272.4 685.1 272.5 685.1 272.6 685.1 272.7 685.1 272.8 685.1 272.9 685.1 272.95 685.1 273.05 683.7650390625 273.05 682.4 273.05 678.8546875 273.05 675.3 273.05 672.1681640625 273.05 669.05 273.05 669.05 273.1 669.05 273.15 666.45 273.15 663.85 273.15
L 664 273.05 664.15 272.65
Q 664.15 272.5 664.15 272.35 664.05 270.55 663.95 268.7 663.8794921875 266.9041015625 663.85 265.05 663.88515625 264.3189453125 663.9 263.55 663.95 257.95 663.9 252.4 663.9 250.7 663.9 248.95 664.15 249 664.4 249.05 670.63984375 249.05 676.85 249.05 679.0509765625 249.05 681.25 249.05 682.1384765625 249.05 683 249.05 683.932421875 249.05 684.85 249.05 685 249 685.2 249 685.2 249.05 685.2 249.1 685.2 249.2 685.2 249.3 685.2 249.4 685.2 249.55
M 670.7 218.4
Q 670.7 218.45 670.7 218.5
L 670.65 218.5
Q 670.6 218.55 670.55 218.6 674.6 218.65 678.65 218.7 678.65 218.65 678.7 218.6 678.7 218.55 678.7 218.5 674.7 218.45 670.7 218.4
M 682.95 274.65
Q 682.625 274.65 682.3 274.65 680.825 274.65 679.35 274.65 678.05 274.65 676.7 274.7 676.65 274.75 676.65 274.8 676.65 274.85 676.65 274.9 678 275 679.35 275.05 680.825 275.091015625 682.3 275.1 682.625 275.141015625 682.95 275.15 684.8 275.15 686.7 275.15 689.3 275.1 691.85 275.05 691.95 275 692 274.9 692 274.8 691.95 274.7 689.35 274.65 686.7 274.55 684.8 274.55 682.95 274.55 682.95 274.6 682.95 274.65
M 691.8 241.55
Q 691.7 241.2 690.95 241.2 689.6 241.3 687.45 241.85 686.5375 242.073828125 685.85 242.25 684.5072265625 242.5515625 683.95 242.65 682.8 242.85 681.3 242.9 681 242.95 678.65 243
L 673.4 243
Q 672.25 243 671.7 242.9
L 671.35 242.8 670.25 242.55
Q 669.75 242.45 668.5 242.4 667.3 242.35 666.7 242.15 665.4 241.8 665.4 241.75 664.65 241.65 664.2 241.95
L 664.35 242.35
Q 664.9 242.2 665.65 242.4 666.05 242.55 666.9 242.85 667.4 242.95 668.55 243.05 669.65 243.1 670.2 243.25
L 671.2 243.65
Q 671.78046875 243.766015625 672.35 243.8 672.53046875 243.8 672.7 243.8
L 679.45 243.85
Q 682.2 243.85 682.75 243.8 683.4818359375 243.7138671875 686.15 243.15 686.5705078125 243.097265625 687.05 243 690.5 242.15 691.8 241.55 Z"/>

<path fill="#FAC496" stroke="none" d="
M 668.4 257.6
Q 669.75 256.9 677.5 251.6 679.6669921875 250.1158203125 681.25 249.05 679.0509765625 249.05 676.85 249.05 670.63984375 249.05 664.4 249.05 664.15 249 663.9 248.95 663.9 250.7 663.9 252.4 663.95 257.95 663.9 263.55 663.88515625 264.3189453125 663.85 265.05 677.0669921875 254.8330078125 678.65 253.25 669.55 257.15 668.4 257.6 Z"/>

<path fill="#FFAC5A" stroke="none" d="
M 685.2 249.75
Q 685.2 249.65 685.2 249.55 685.2 249.4 685.2 249.3 685.2 249.2 685.2 249.1 685.2 249.05 685.2 249 685 249 684.85 249.05 683.932421875 249.05 683 249.05 682.1384765625 249.05 681.25 249.05 679.6669921875 250.1158203125 677.5 251.6 669.75 256.9 668.4 257.6 669.55 257.15 678.65 253.25 677.0669921875 254.8330078125 663.85 265.05 663.8794921875 266.9041015625 663.95 268.7 664.05 270.55 664.15 272.35 664.15 272.5 664.15 272.65
L 664 273.05 663.85 273.15
Q 666.45 273.15 669.05 273.15 669.05 273.1 669.05 273.05 672.1681640625 273.05 675.3 273.05 678.8546875 273.05 682.4 273.05 683.7650390625 273.05 685.1 273.05 685.1 272.95 685.1 272.9 685.1 272.8 685.1 272.7 685.1 272.6 685.1 272.5 685.1 272.4 685.1 272.25 685.1 272.15 685.1 272.05 685.1 271.95 685.1 271.85 685.1 271.75 685.1 271.65 685.1 271.5 685.1 271.4 685.1 271.3 685.1 271.2 685.1 271.1 685.1 271 685.1 270.9 685.1 270.75 685.1 270.65 685.1 270.55 685.1 270.45 685.1 270.35 685.1 270.25 685.1 270.15 685.1 270 685.1 269.9 685.1 269.8 685.1 269.7 685.1 269.6 685.1 269.5 685.1 269.4 685.1 269.25 685.1 269.15 685.1 269.05 685.1 268.95 685.1 268.85 685.1 268.75 685.1 268.65 685.1 268.5 685.1 268.4 685.1 268.3 685.1 268.2 685.1 268.1 685.1 268 685.1 267.85 685.1 267.75 685.1 267.65 685.1 267.55 685.1 267.45 685.1 267.35 685.1 267.25 685.1 267.1 685.1 267 685.1 266.9 685.1 266.8 685.1 266.7 685.1 266.6 685.1 266.5 685.1 266.35 685.1 266.25 685.1 266.15 685.1 266.05 685.1 265.95 685.1 265.85 685.1 265.75 685.1 265.6 685.1 265.5 685.1 265.4 685.1 265.3 685.1 265.2 685.1 265.1 685.1 265 685.1 264.85 685.1 264.75 685.1 264.65 685.1 264.55 685.1 264.45 685.1 264.35 685.1 264.25 685.1 264.1 685.1 264 685.1 263.9 685.1 263.8 685.1 263.7 685.1 263.6 685.1 263.45 685.1 263.35 685.1 263.25 685.1 263.15 685.1 263.05 685.1 262.95 685.1 262.85 685.1 262.7 685.1 262.6 685.1 262.5 685.1 262.4 685.1 262.3 685.1 262.2 685.1 262.1 685.1 261.95 685.1 261.85 685.1 261.75 685.1 261.65 685.1 261.55 685.1 261.45 685.1 261.35 685.1 261.2 685.1 261.1 685.1 261 685.1 260.9 685.1 260.8 685.1 260.7 685.1 260.6 685.1 260.45 685.1 260.35 685.1 260.25 685.1 260.15 685.1 260.05 685.1 259.95 685.1 259.85 685.1 259.7 685.1 259.6 685.1 259.5 685.1 259.4 685.1 259.3 685.1 259.2 685.1 259.1 685.1 258.95 685.1 258.85 685.1 258.75 685.1 258.65 685.1 258.55 685.1 258.45 685.1 258.3 685.1 258.2 685.1 258.1 685.1 258 685.1 257.9 685.1 257.8 685.1 257.7 685.1 257.55 685.1 257.45 685.1 257.35 685.1 257.25 685.1 257.15 685.1 257.05 685.1 256.95 685.1 256.8 685.1 256.7 685.1 256.6 685.1 256.5 685.1 256.4 685.1 256.3 685.1 256.2 685.1 256.05 685.1 255.95 685.1 255.85 685.1 255.75 685.1 255.65 685.1 255.55 685.1 255.45 685.1 255.3 685.1 255.2 685.1 255.1 685.1 255 685.1 254.9 685.1 254.8 685.1 254.7 685.1 254.55 685.1 254.45 685.1 254.35 685.1 254.25 685.1 254.15 685.1 254.05 685.1 253.9 685.1 253.8 685.1 253.7 685.1 253.6 685.1 253.5 685.1 253.4 685.1 253.3 685.1 253.15 685.1 253.05 685.1 252.95 685.1 252.85 685.1 252.75 685.1 252.65 685.1 252.55 685.1 252.4 685.1 252.3 685.1 252.2 685.1 252.1 685.1 252 685.1 251.9 685.1 251.8 685.1 251.65 685.1 251.55 685.1 251.45 685.1 251.35 685.1 251.25 685.1 251.15 685.1 251.05 685.1 250.9 685.1 250.8 685.1 250.7 685.1 250.6 685.1 250.5 685.1 250.4 685.15 250.3 685.2 250.15 685.2 250.05 685.2 249.95 685.2 249.85 685.2 249.75 Z"/>

<path fill="#DBDBDB" stroke="none" d="
M 670.1 220.3
Q 670.15 220.85 670.25 221.95 670.3 222.95 670.15 223.6 670.1 223.75 670.1 223.9 672.65 223.9 675.2 223.9 675.65 223.95 676.15 224 676.95 224.05 677.8 224.15 677.8 224.2 677.8 224.25 677.75 224.3 677.7 224.35 676.9 224.4 676.15 224.4 675.65 224.45 675.2 224.5 672.55 224.45 669.9 224.4 669.75 224.8 669.5 225.35 669.05 226.4 669 227.05 668.9 227.8 669.3 228.2 669.45 228.4 669.8 228.5 670 228.6 670.35 228.7 670.6 228.8 670.75 228.9 670.9 228.9 671.05 228.85 672.55 228.8 674.05 228.8 677.45 228.8 680.85 228.8 680.85 228.75 680.85 228.7 683.3 228.7 685.8 228.7 685.9 228.75 686.05 228.8
L 686.9 228.4 687.35 227.7
Q 687.4 227.4 687.35 227.05 687.3 226.4 686.85 225.35 686.3 224.1 686.2 223.6 686.05 222.95 686.1 221.95 686.2 220.85 686.25 220.3 686.35 218.25 685.3 217.4 683.7 217.4 682 217.5 680.1 217.45 678.2 217.45 676.25 217.45 674.35 217.5 672.65 217.4 671.05 217.4 670 218.25 670.1 220.3
M 670.7 218.5
Q 670.7 218.45 670.7 218.4 674.7 218.45 678.7 218.5 678.7 218.55 678.7 218.6 678.65 218.65 678.65 218.7 674.6 218.65 670.55 218.6 670.6 218.55 670.65 218.5
L 670.7 218.5 Z"/>

<path fill="#665945" stroke="none" d="
M 682.3 275.15
L 682.3 275.1
Q 680.825 275.091015625 679.35 275.05 678 275 676.65 274.9 676.65 274.85 676.65 274.8 676.65 274.75 676.7 274.7 678.05 274.65 679.35 274.65 680.825 274.65 682.3 274.65
L 682.3 273.9
Q 676.500390625 273.9 670.7 273.9 670.0474609375 274 669.6 274 669.6 274.25 669.35 274.25 672.25 275.4 674.8 277.25 676.145703125 278.21875 677.05 279.2
L 681.45 279.2
Q 681.5265625 279.0771484375 681.6 278.95 683.55 275.95 685.5 275.4 683.25 275.15 682.3 275.15
M 672.7 243.8
Q 672.53046875 243.8 672.35 243.8 673.3861328125 244.0349609375 674.8 244.2 677.09609375 244.981640625 676.9 248.15 679.7568359375 248.15 682.6 248.15 682.9001953125 248.15 683.2 248.15 683.258984375 247.906640625 683.3 247.65 684.1873046875 244.5806640625 686.15 243.15 683.4818359375 243.7138671875 682.75 243.8 682.2 243.85 679.45 243.85
L 672.7 243.8
M 684.8 234.3
Q 685.2541015625 233.87734375 685.9 233.3 685.386328125 232.4453125 685.15 231.5 678.35 231.5 671.65 231.5 671.6 231.45 671.55 231.45 671.5 231.4 671.4 231.4 671.35625 231.641015625 671.25 231.85 672.7880859375 232.502734375 674.1 234.1 676.25 236.7 676.25 239.75 676.25 242.05 675.05 242.35 673.1666015625 242.4318359375 671.35 242.8
L 671.7 242.9
Q 672.25 243 673.4 243
L 678.65 243
Q 681 242.95 681.3 242.9 682.8 242.85 683.95 242.65 684.5072265625 242.5515625 685.85 242.25 684.748046875 241.9484375 683.95 241.35 682.3 240.15 682.3 237.9 682.3 236.6 684.8 234.3 Z"/>

<path fill="#767062" stroke="none" d="
M 663.85 273.85
Q 663.8 273.85 663.75 273.85 663.85 274.25 664.05 274.6 664.35 275.1 664.6 275.8 664.65 275.9 664.7 276.05 664.8 276.1 664.9 276.25 665.05 276.3 665.2 276.4 665.45 276.6 665.75 276.85
L 668.2 279.2 677.05 279.2
Q 676.145703125 278.21875 674.8 277.25 672.25 275.4 669.35 274.25 669.6 274.25 669.6 274 670.0474609375 274 670.7 273.9 669.8888671875 273.9 669.05 273.9 666.45 273.9 663.85 273.85
M 666.1 238.95
Q 665.55 239.6 665.15 240.05 664.3 241.1 663.95 242.3 663.9 245.3 663.9 248.25 664.15 248.25 664.4 248.25 664.4 248.2 664.4 248.15 670.6671875 248.15 676.9 248.15 677.09609375 244.981640625 674.8 244.2 673.3861328125 244.0349609375 672.35 243.8 671.78046875 243.766015625 671.2 243.65
L 670.2 243.25
Q 669.65 243.1 668.55 243.05 667.4 242.95 666.9 242.85 666.05 242.55 665.65 242.4 664.9 242.2 664.35 242.35
L 664.2 241.95
Q 664.65 241.65 665.4 241.75 665.4 241.8 666.7 242.15 667.3 242.35 668.5 242.4 669.75 242.45 670.25 242.55
L 671.35 242.8
Q 673.1666015625 242.4318359375 675.05 242.35 676.25 242.05 676.25 239.75 676.25 236.7 674.1 234.1 672.7880859375 232.502734375 671.25 231.85 671.1466796875 232.191015625 670.95 232.5 670.1 234 669.05 235.25 667.5 237.15 666.1 238.95
M 667.75 238.6
Q 667.8919921875 238.42265625 668.2 238.15 668.22890625 238.131640625 668.25 238.1
L 668.55 237.75
Q 668.6923828125 237.6521484375 668.8 237.55 668.88125 237.491796875 668.95 237.4 669.0515625 237.34921875 669.25 237.3 669.5263671875 237.1748046875 669.7 237.15 669.9244140625 237.15 670.15 237.2
L 670.3 237.2 670.5 237.35
Q 670.64921875 237.4119140625 670.8 237.5 671.1 237.6 671.15 237.75
L 671.1 238
Q 671.15 238.2080078125 671.15 238.55
L 670.95 239.55 670.7 240 668.25 240.15
Q 667.75 240.15 667.6 239.95 667.4 239 667.75 238.6
M 671.4 236.3
L 671.6 236.1 671.85 236 671.85 235.95
Q 672.15 236.05 672.35 236.4 672.45 236.8 672.2 237.05
L 672.1 237.2 671.7 237.2 671.5 237.05 671.4 237 671.4 236.3
M 690.95 241.2
Q 691.7 241.2 691.8 241.55 690.5 242.15 687.05 243 686.5705078125 243.097265625 686.15 243.15 684.1873046875 244.5806640625 683.3 247.65 683.258984375 247.906640625 683.2 248.15 684.03125 248.15 684.85 248.15 685.05 248.25 685.3 248.3 685.45 248.4 685.6 248.5 685.6 248.55 685.6 248.6
L 685.7 248.6
Q 685.8 248.7 685.9 248.8 685.95 248.9 686 249.05 686 249.15 686 249.25 686 249.35 686 249.45 686 249.55 686 249.65 686 249.8 686 249.9 686 250 686 250.1 686 250.2 686 250.3 686 250.4 686.05 250.55 686.05 250.65 686.05 250.75 686.05 250.85 686.05 250.95 686.05 251.05 686.05 251.15 686.05 251.3 686.05 251.4 686.05 251.5 686.05 251.6 686.05 251.7 686.05 251.8 686.05 251.9 686.05 252.05 686.05 252.15 686.05 252.25 686.05 252.35 686.05 252.45 686.05 252.55 686.05 252.65 686.05 252.8 686.05 252.9 686.05 253 686.05 253.1 686.05 253.2 686.05 253.3 686.05 253.4 686.05 253.55 686.05 253.65 686.05 253.75 686.05 253.85 686.05 253.95 686.05 254.05 686.05 254.2 686.05 254.3 686.05 254.4 686.05 254.5 686.05 254.6 686.05 254.7 686.05 254.8 686.05 254.95 686.05 255.05 686.05 255.15 686.05 255.25 686.05 255.35 686.05 255.45 686.05 255.55 686.05 255.7 686.05 255.8 686.05 255.9 686.05 256 686.05 256.1 686.05 256.2 686.05 256.3 686.05 256.45 686.05 256.55 686.05 256.65 686.05 256.75 686.05 256.85 686.05 256.95 686.05 257.05 686.05 257.2 686.05 257.3 686.05 257.4 686.05 257.5 686.05 257.6 686.05 257.7 686.05 257.8 686.05 257.95 686.05 258.05 686.05 258.15 686.05 258.25 686.05 258.35 686.05 258.45 686.05 258.55 686.05 258.7 686.05 258.8 686.05 258.9 686.05 259 686.05 259.1 686.05 259.2 686.05 259.35 686.05 259.45 686.05 259.55 686.05 259.65 686.05 259.75 686.05 259.85 686.05 259.95 686.05 260.1 686.05 260.2 686.05 260.3 686.05 260.4 686.05 260.5 686.05 260.6 686.05 260.7 686.05 260.85 686.05 260.95 686.05 261.05 686.05 261.15 686.05 261.25 686.05 261.35 686.05 261.45 686.05 261.6 686.05 261.7 686.05 261.8 686.05 261.9 686.05 262 686.05 262.1 686.05 262.2 686.05 262.35 686.05 262.45 686.05 262.55 686.05 262.65 686.05 262.75 686.05 262.85 686.05 262.95 686.05 263.1 686.05 263.2 686.05 263.3 686.05 263.4 686.05 263.5 686.05 263.6 686.05 263.75 686.05 263.85 686.05 263.95 686.05 264.05 686.05 264.15 686.05 264.25 686.05 264.35 686.05 264.5 686.05 264.6 686.05 264.7 686.05 264.8 686.05 264.9 686.05 265 686.05 265.1 686.05 265.25 686.05 265.35 686.05 265.45 686.05 265.55 686.05 265.65 686.05 265.75 686.05 265.85 686.05 266 686.05 266.1 686.05 266.2 686.05 266.3 686.05 266.4 686.05 266.5 686.05 266.6 686.05 266.75 686.05 266.85 686.05 266.95 686.05 267.05 686.05 267.15 686.05 267.25 686.05 267.35 686.05 267.5 686.05 267.6 686.05 267.7 686.05 267.8 686.05 267.9 686.05 268 686.05 268.1 686.05 268.25 686.05 268.35 686.05 268.45 686.05 268.55 686.05 268.65 686.05 268.75 686.05 268.9 686.05 269 686.05 269.1 686.05 269.2 686.05 269.3 686.05 269.4 686.05 269.5 686.05 269.65 686.05 269.75 686.05 269.85 686.05 269.95 686.05 270.05 686.05 270.15 686.05 270.25 686.05 270.4 686.05 270.5 686.05 270.6 686.05 270.7 686.05 270.8 686.05 270.9 686.05 271 686.05 271.15 686.05 271.25 686.05 271.35 686.05 271.45 686.05 271.55 686.05 271.65 686.05 271.75 686.05 271.9 686.05 272 686.05 272.1 686.05 272.2 686.05 272.3 686.05 272.4 686.05 272.5 686.05 272.65 686.05 272.75 686.05 272.85 686.05 272.95 686.05 273.05 686.05 273.15 686.05 273.25 686.05 273.4 686.05 273.5 686.05 273.6 686.05 273.7 686.05 273.75 686.05 273.85
L 684.95 273.8
Q 684.8 273.85 684.7 273.9 683.49921875 273.9 682.3 273.9
L 682.3 274.65
Q 682.625 274.65 682.95 274.65 682.95 274.6 682.95 274.55 684.8 274.55 686.7 274.55 689.35 274.65 691.95 274.7 692 274.8 692 274.9 691.95 275 691.85 275.05 689.3 275.1 686.7 275.15 684.8 275.15 682.95 275.15 682.625 275.141015625 682.3 275.1
L 682.3 275.15
Q 683.25 275.15 685.5 275.4 683.55 275.95 681.6 278.95 681.5265625 279.0771484375 681.45 279.2
L 688.15 279.2 692.5 274.7 692.45 272.65
Q 692.15 271.7 692.2 270.65 692.45 266.15 692.4 261.6 692.35 256.45 692.4 251.3 692.45 246.8 692.4 242.3 691.5 240.25 690 238.5 688.2 236.45 686.5 234.15 686.1751953125 233.7439453125 685.9 233.3 685.2541015625 233.87734375 684.8 234.3 682.3 236.6 682.3 237.9 682.3 240.15 683.95 241.35 684.748046875 241.9484375 685.85 242.25 686.5375 242.073828125 687.45 241.85 689.6 241.3 690.95 241.2 Z"/>

<path fill="#A39469" stroke="none" d="
M 671.6 236.1
L 671.4 236.3 671.4 237 671.5 237.05 671.7 237.2 672.1 237.2 672.2 237.05
Q 672.45 236.8 672.35 236.4 672.15 236.05 671.85 235.95
L 671.85 236 671.6 236.1
M 668.2 238.15
Q 667.8919921875 238.42265625 667.75 238.6 667.4 239 667.6 239.95 667.75 240.15 668.25 240.15
L 670.7 240 670.95 239.55 671.15 238.55
Q 671.15 238.2080078125 671.1 238
L 671.15 237.75
Q 671.1 237.6 670.8 237.5 670.64921875 237.4119140625 670.5 237.35
L 670.3 237.2 670.15 237.2
Q 669.9244140625 237.15 669.7 237.15 669.5263671875 237.1748046875 669.25 237.3 669.0515625 237.34921875 668.95 237.4 668.88125 237.491796875 668.8 237.55 668.6923828125 237.6521484375 668.55 237.75
L 668.25 238.1
Q 668.22890625 238.131640625 668.2 238.15 Z"/>
</g>

<g id="Layer0_4_FILL">
<path fill="#3B3D35" stroke="none" d="
M 106.85 130.95
L 105.25 130.95 105.25 137.55 106.85 137.55 106.85 130.95
M 103.65 128
L 102.05 128 102.05 137.55 103.65 137.55 103.65 128
M 107.05 129.05
Q 107.05 128.8 106.95 128.65
L 106.75 128.3 106.4 128.1
Q 106.25 128 106 128 105.8 128 105.65 128.1
L 105.3 128.3 105.1 128.65
Q 105 128.8 105 129.05 105 129.25 105.1 129.4
L 105.3 129.75 105.65 129.95
Q 105.8 130.05 106 130.05 106.25 130.05 106.4 129.95
L 106.75 129.75 106.95 129.4
Q 107.05 129.25 107.05 129.05
M 112.2 132.15
L 112.2 131 110.45 131 110.45 128.95 109.6 128.95
Q 109.5 128.95 109.4 129 109.3 129.05 109.25 129.2
L 108.95 131 107.85 131.2 107.85 131.8
Q 107.85 131.95 107.95 132.05 108.05 132.15 108.2 132.15
L 108.85 132.15 108.85 135.85
Q 108.85 136.7 109.3 137.15 109.75 137.65 110.65 137.65 111.1 137.65 111.55 137.5 112 137.35 112.35 137.05
L 111.9 136.3 111.8 136.2 111.65 136.15 111.25 136.35 111 136.4
Q 110.75 136.4 110.6 136.2 110.45 136 110.45 135.7
L 110.45 132.15 112.2 132.15
M 116.1 130.85
Q 115.35 130.85 114.75 131.1 114.15 131.35 113.7 131.75 113.3 132.2 113.05 132.85 112.85 133.45 112.85 134.25 112.85 135.05 113.05 135.65 113.3 136.3 113.7 136.75 114.15 137.15 114.75 137.4 115.35 137.65 116.1 137.65 116.85 137.65 117.45 137.4 118.05 137.15 118.45 136.75 118.9 136.3 119.1 135.65 119.35 135.05 119.35 134.25 119.35 133.45 119.1 132.85 118.9 132.2 118.45 131.75 118.05 131.35 117.45 131.1 116.85 130.85 116.1 130.85
M 114.85 132.65
Q 115.25 132.05 116.1 132.05 116.95 132.05 117.3 132.65 117.7 133.2 117.7 134.25 117.7 135.3 117.3 135.85 116.95 136.45 116.1 136.45 115.25 136.45 114.85 135.85 114.45 135.3 114.45 134.25 114.45 133.2 114.85 132.65
M 94.85 134.1
Q 94.85 135 95.1 135.65 95.3 136.3 95.75 136.75 96.2 137.2 96.8 137.4 97.4 137.65 98.05 137.65
L 98.8 137.6 99.5 137.4
Q 99.85 137.3 100.2 137.1 100.55 136.85 100.8 136.55
L 100.35 136
Q 100.25 135.85 100.05 135.85 99.9 135.85 99.75 135.95
L 98.9 136.35
Q 98.6 136.4 98.2 136.4 97.85 136.4 97.5 136.3 97.2 136.2 96.95 135.95 96.75 135.7 96.6 135.35 96.45 134.95 96.4 134.45
L 100.5 134.45
Q 100.7 134.45 100.8 134.3 100.85 134.2 100.85 133.85 100.85 133.1 100.65 132.55 100.45 132 100.05 131.65 99.65 131.25 99.15 131.05 98.6 130.85 98 130.85 97.25 130.85 96.65 131.1 96.1 131.35 95.65 131.8 95.25 132.25 95.05 132.85 94.85 133.45 94.85 134.1
M 99.1 132.45
Q 99.25 132.65 99.35 132.9 99.45 133.2 99.45 133.5
L 96.45 133.5
Q 96.55 132.75 96.95 132.4 97.35 132 98.05 132 98.4 132 98.65 132.1 98.9 132.25 99.1 132.45
M 91.9 132.4
Q 92.15 132.7 92.15 133.35
L 92.15 137.55 93.75 137.55 93.75 133.35
Q 93.75 132.75 93.6 132.3 93.45 131.85 93.15 131.5 92.85 131.2 92.45 131 92 130.85 91.45 130.85
L 90.85 130.9
Q 90.55 131 90.25 131.15 90 131.3 89.75 131.5 89.5 131.75 89.35 132.1 89.15 131.55 88.75 131.2 88.35 130.85 87.75 130.85
L 87.2 130.9 86.75 131.1 86.3 131.4 85.95 131.75 85.85 131.25
Q 85.75 130.95 85.45 130.95
L 84.5 130.95 84.5 137.55 86.05 137.55 86.05 132.7
Q 86.35 132.45 86.65 132.25 86.95 132.1 87.25 132.1 87.8 132.1 88.05 132.4 88.3 132.7 88.3 133.35
L 88.3 137.55 89.9 137.55 89.9 133.35
Q 89.9 133.05 90 132.8 90.1 132.55 90.25 132.4 90.4 132.25 90.6 132.15 90.85 132.1 91.1 132.1 91.6 132.1 91.9 132.4
M 37.8 128.25
L 36.15 128.25 35.95 128.3 35.8 128.5 33.85 131.55 33.7 131.85 31.55 128.45 31.4 128.3 31.15 128.25 29.45 128.25 32.4 132.75 29.3 137.55 30.95 137.55
Q 31.1 137.55 31.2 137.45
L 31.35 137.25 33.45 133.95 33.55 133.7 35.7 137.25 35.9 137.45
Q 36 137.55 36.15 137.55
L 37.9 137.55 34.8 132.7 37.8 128.25
M 65 131.8
Q 64.6 132.25 64.4 132.85 64.2 133.45 64.2 134.1 64.2 135 64.45 135.65 64.65 136.3 65.1 136.75 65.55 137.2 66.15 137.4 66.75 137.65 67.4 137.65
L 68.15 137.6 68.85 137.4
Q 69.2 137.3 69.55 137.1 69.9 136.85 70.15 136.55
L 69.7 136
Q 69.6 135.85 69.4 135.85 69.25 135.85 69.1 135.95
L 68.25 136.35
Q 67.95 136.4 67.55 136.4 67.2 136.4 66.85 136.3 66.55 136.2 66.3 135.95 66.1 135.7 65.95 135.35 65.8 134.95 65.75 134.45
L 69.85 134.45
Q 70.05 134.45 70.15 134.3 70.2 134.2 70.2 133.85 70.2 133.1 70 132.55 69.8 132 69.4 131.65 69 131.25 68.5 131.05 67.95 130.85 67.35 130.85 66.6 130.85 66 131.1 65.45 131.35 65 131.8
M 68.45 132.45
Q 68.6 132.65 68.7 132.9 68.8 133.2 68.8 133.5
L 65.8 133.5
Q 65.9 132.75 66.3 132.4 66.7 132 67.4 132 67.75 132 68 132.1 68.25 132.25 68.45 132.45
M 75.9 135.35
Q 75.75 134.95 75.7 134.45
L 79.8 134.45
Q 80 134.45 80.1 134.3 80.15 134.2 80.15 133.85 80.15 133.1 79.95 132.55 79.75 132 79.35 131.65 78.95 131.25 78.45 131.05 77.9 130.85 77.3 130.85 76.55 130.85 75.95 131.1 75.4 131.35 74.95 131.8 74.55 132.25 74.35 132.85 74.15 133.45 74.15 134.1 74.15 135 74.4 135.65 74.6 136.3 75.05 136.75 75.5 137.2 76.1 137.4 76.7 137.65 77.35 137.65
L 78.1 137.6 78.8 137.4
Q 79.15 137.3 79.5 137.1 79.85 136.85 80.1 136.55
L 79.65 136
Q 79.55 135.85 79.35 135.85 79.2 135.85 79.05 135.95
L 78.2 136.35
Q 77.9 136.4 77.5 136.4 77.15 136.4 76.8 136.3 76.5 136.2 76.25 135.95 76.05 135.7 75.9 135.35
M 77.95 132.1
Q 78.2 132.25 78.4 132.45 78.55 132.65 78.65 132.9 78.75 133.2 78.75 133.5
L 75.75 133.5
Q 75.85 132.75 76.25 132.4 76.65 132 77.35 132 77.7 132 77.95 132.1
M 48.1 132.35
L 48.75 132.45 48.9 132.4 49 132.2 49.1 131.05
Q 48.85 130.85 48.35 130.85 47.8 130.85 47.35 131.15 46.95 131.5 46.65 132.1
L 46.55 131.35
Q 46.5 131.15 46.4 131.05 46.3 130.95 46.05 130.95
L 45.15 130.95 45.15 137.55 46.7 137.55 46.7 133.5 46.95 133 47.25 132.65
Q 47.4 132.5 47.6 132.45 47.8 132.35 48.1 132.35
M 42.25 131
Q 41.8 130.85 41.2 130.85 39.6 130.85 38.5 131.85
L 38.75 132.4 38.95 132.6
Q 39.05 132.65 39.25 132.65 39.45 132.65 39.6 132.6
L 40.4 132.2
Q 40.65 132.1 41 132.1 41.55 132.1 41.85 132.4 42.1 132.7 42.1 133.4
L 42.1 133.75
Q 41.35 133.8 40.8 133.9 40.2 134 39.75 134.1 39.3 134.25 39 134.45 38.7 134.65 38.5 134.9 38.35 135.1 38.25 135.35 38.15 135.6 38.15 135.85 38.15 136.3 38.3 136.65 38.45 137 38.7 137.2 38.95 137.45 39.3 137.55 39.65 137.65 40.1 137.65
L 40.75 137.6 41.8 137.15 42.25 136.75 42.4 137.2
Q 42.5 137.4 42.6 137.5 42.7 137.55 42.95 137.55
L 43.65 137.55 43.65 133.4
Q 43.65 132.8 43.5 132.35 43.35 131.9 43 131.55 42.7 131.2 42.25 131
M 42.1 134.75
L 42.1 135.85
Q 41.8 136.2 41.4 136.4 41.05 136.55 40.55 136.55 40.2 136.55 39.95 136.4 39.7 136.2 39.7 135.8 39.7 135.55 39.8 135.4 39.95 135.2 40.2 135.1 40.5 134.95 40.95 134.85 41.45 134.75 42.1 134.75
M 59.65 131.1
Q 59.15 131.4 58.75 131.85
L 58.6 131.25
Q 58.5 130.95 58.2 130.95
L 57.25 130.95 57.25 139.7 58.8 139.7 58.8 137
Q 59.15 137.3 59.5 137.45 59.9 137.65 60.45 137.65 61.1 137.65 61.65 137.4 62.15 137.1 62.55 136.65 62.9 136.2 63.1 135.55 63.3 134.95 63.3 134.2 63.3 133.4 63.1 132.75 62.95 132.15 62.65 131.7 62.3 131.3 61.85 131.05 61.4 130.85 60.85 130.85 60.15 130.85 59.65 131.1
M 58.8 132.9
Q 59.15 132.5 59.5 132.3 59.85 132.1 60.3 132.1 60.65 132.1 60.9 132.2 61.15 132.3 61.3 132.55 61.5 132.8 61.55 133.2 61.65 133.6 61.65 134.2 61.65 134.8 61.55 135.2 61.45 135.6 61.25 135.9 61.05 136.15 60.75 136.3 60.45 136.45 60.1 136.45 59.75 136.45 59.4 136.3 59.1 136.15 58.8 135.85
L 58.8 132.9
M 55.15 131.75
Q 54.75 131.35 54.15 131.1 53.55 130.85 52.8 130.85 52.05 130.85 51.45 131.1 50.85 131.35 50.4 131.75 50 132.2 49.75 132.85 49.55 133.45 49.55 134.25 49.55 135.05 49.75 135.65 50 136.3 50.4 136.75 50.85 137.15 51.45 137.4 52.05 137.65 52.8 137.65 53.55 137.65 54.15 137.4 54.75 137.15 55.15 136.75 55.6 136.3 55.8 135.65 56.05 135.05 56.05 134.25 56.05 133.45 55.8 132.85 55.6 132.2 55.15 131.75
M 51.55 132.65
Q 51.95 132.05 52.8 132.05 53.65 132.05 54 132.65 54.4 133.2 54.4 134.25 54.4 135.3 54 135.85 53.65 136.45 52.8 136.45 51.95 136.45 51.55 135.85 51.15 135.3 51.15 134.25 51.15 133.2 51.55 132.65 Z"/>
</g>
</defs>

<g transform="matrix( 1.07159423828125, 0, 0, 0.802642822265625, -22.3,-16) ">
<use xlink:href="#Layer0_0_FILL"/>
</g>

<g transform="matrix( 1.07159423828125, 0, 0, 1.07159423828125, -22.3,-6.95) ">
<use xlink:href="#Layer0_1_FILL"/>
</g>

<g transform="matrix( 1, 0, 0, 1, -617.95,-176.25) ">
<use xlink:href="#Layer0_2_FILL"/>
</g>

<g transform="matrix( 1, 0, 0, 1, -617.95,-176.25) ">
<use xlink:href="#Layer0_3_FILL"/>
</g>

<g transform="matrix( 1, 0, 0, 1, 0,0) ">
<use xlink:href="#Layer0_4_FILL"/>
</g>
</svg>
