
<svg xmlns="http://www.w3.org/2000/svg" version="1.1" xmlns:xlink="http://www.w3.org/1999/xlink" preserveAspectRatio="none" x="0px" y="0px" width="149px" height="152px" viewBox="0 0 149 152">
<defs>
<g id="Layer0_0_MEMBER_0_FILL">
<path fill="#B8BE79" stroke="none" d="
M 21.5 19.95
L 21.5 157.8 159.35 157.8 159.35 19.95 21.5 19.95 Z"/>
</g>

<g id="Layer0_0_MEMBER_1_FILL">
<path fill="#E1C99B" stroke="none" d="
M 21.5 111.85
L 21.5 148.6 159.35 148.6 159.35 111.85 21.5 111.85 Z"/>
</g>

<g id="Layer0_0_MEMBER_2_FILL">
<path fill="#3B3D35" stroke="none" d="
M 690.85 17.95
Q 690.2884765625 17.95 689.7 17.95 689.241796875 17.95 688.8 17.95 685.57734375 18.0705078125 683.2 18.95 680.55 19.95 680.55 21.4 680.55 22.0431640625 681.05 22.6 681.0380859375 22.673828125 681 22.75 681 22.85 681 23 681 23.1 681 23.2 681 23.3 681 23.4 681 23.5 681 23.65 681 23.75 680.95 23.85 680.95 23.95 680.95 24.05 680.95 24.15 680.95 24.3 680.95 24.4 680.95 24.5 680.95 24.6 680.95 24.7 680.95 24.85 680.95 24.95 680.95 25.05 680.95 25.15 680.95 25.25 680.95 25.35 680.9 25.5 680.85 25.6 680.85 25.7 680.85 25.8 680.85 25.9 680.85 26 680.85 26.15 680.85 26.25 680.85 26.35 680.85 26.45 680.85 26.55 680.85 26.65 680.85 26.8 680.85 26.9 680.85 27 680.85 27.1 680.85 27.2 680.85 27.3 680.85 27.45 680.85 27.55 680.85 27.65 680.85 27.75 680.85 27.85 680.8 28 680.8 28.1 680.8 28.2 680.8 28.3 680.8 28.4 680.8 28.5 680.8 28.65 680.8 28.75 680.8 28.85 680.8 28.95 680.8 29.05 680.8 29.15 680.8 29.3 680.8 29.4 680.8 29.5 680.8 29.6 680.8 29.7 680.8 29.8 680.8 29.95 680.8 30.05 680.8 30.15 680.8 30.25 680.8 30.35 680.8 30.45 680.8 30.6 680.8 30.7 680.8 30.8 680.8 30.9 680.8 31 680.8 31.15 680.8 31.25 680.8 31.35 680.8 31.45 680.8 31.55 680.8 31.65 680.8 31.8 680.8 31.9 680.8 32 680.8 32.1 680.8 32.2 680.8 32.3 680.8 32.45 680.8 32.55 680.8 32.65 680.8 32.75 680.8 32.85 680.8 32.95 680.8 33.1 680.8 33.2 680.8 33.3 680.8 33.4 680.8 33.5 680.8 33.6 680.8 33.75 680.8 33.85 680.8 33.95 680.8 34.05 680.8 34.15 680.8 34.3 680.8 34.4 680.8 34.5 680.8 34.6 680.8 34.7 680.8 34.8 680.8 34.95 680.8 35.05 680.8 35.15 680.8 35.25 680.8 35.35 680.8 35.45 680.8 35.6 680.8 35.7 680.8 35.8 680.8 35.9 680.8 36 680.8 36.1 680.8 36.25 680.8 36.35 680.8 36.45 680.8 36.55 680.8 36.65 680.8 36.75 680.8 36.9 680.75 37 680.75 37.1 680.75 37.2 680.75 37.3 680.75 37.45 680.75 37.55 680.75 37.65 680.75 37.75 680.75 37.85 680.75 37.95 680.75 38.1 680.75 38.2 680.75 38.3 680.75 38.4 680.75 38.5 680.75 38.6 680.75 38.75 680.75 38.85 680.75 38.95 680.75 39.05 680.75 39.15 680.75 39.25 680.8 39.4 680.85 39.5 680.95 39.6 680.95 39.7 680.85 39.95 680.65 40.35 680.45 40.75 680.25 41.15 677.3 50 674.35 58.85
L 674.3 58.8
Q 669.5580078125 72.933984375 664.75 87.1
L 664.75 87.1
Q 663.25 87 662 87.85 661.25 87.15 660.45 87 659.3 86.7 658.45 87.75 657.95 88.35 657.6 89.05
L 655.9 88.9
Q 655.6 88.5 655.3 88.25 654.85 87.9 654.3 87.9 653.6 87.65 652.9 87.65 652.15 87.65 651.45 87.7
L 650.25 88.7
Q 648.85 88.7 647.45 88.7 647.05 88.9 646.65 89.1 646.25 89.4 645.9 89.7
L 645.9 91.25 644.6 91.55 643.65 92.65 641.7 91.65 639.4 93.25 639.4 94.2
Q 638.6826171875 94.353125 637.55 95.05 637.4748046875 95.1037109375 637.4 95.15 637.2857421875 95.161328125 637.15 95.2 635.6 95.55 634.7 96.25 633.45 97.25 633.65 98.6 633.75 99.55 634.95 100.55 636.6 102 636.8 102.25 637.15 102.7 637.5 103.4 637.7 103.85 638.05 104.7 639.6 107.95 643.5 109.9 643.644921875 109.967578125 643.8 110 643.8716796875 110.066796875 643.95 110.1 646.822265625 111.351171875 650.9 112 655.2177734375 112.753125 658.9 112.8 662.5375 112.8724609375 665.55 112.25 669.3 111.5 672.45 109.65 675.85 107.7 677.85 104.8 678.4994140625 103.86484375 678.85 103 684.140234375 103.0453125 689.35 103.05 688.901953125 103.45390625 688.65 104 688.35 104.7 688.5 105.35 688.65 106.5 690.4 107.6
L 696.65 112.1
Q 698.25 113.15 698.95 113.45 699.95 113.8 701.6 113.9 705.5 114.3 707.4 114.1 709.85 113.9 714.55 112.4
L 718.05 111.25
Q 720.35 110.55 721.35 109.9 723.35 108.5 725.45 104.35 726.55 102.05 726.8 101.4 727.05 100.95 727 100.6 726.9 100 726.45 100.05 726.3251953125 100.05 726.2 100.1 725.8189453125 99.3345703125 724.45 98.6
L 721 97
Q 719.4 96.4 718.55 96.25 718.1 96.15 715.9 96.05 713.82421875 96.05 712.3 96.1 712.483203125 95.84765625 712.65 95.5
L 713.25 94.4
Q 714.591015625 92.053125 714.45 90.6 714.5130859375 90.5369140625 714.6 90.45 714.6 90.3 714.65 90.15 714.65 89.85 714.65 89.55 709.45 74.15 704.3 58.8
L 704.25 58.85
Q 701.3 50 698.35 41.15 698.15 40.75 697.95 40.35 697.75859375 39.9669921875 697.6 39.65 697.662109375 39.587890625 697.75 39.5 697.8 39.4 697.85 39.25 697.85 39.15 697.85 39.05 697.85 38.95 697.85 38.85 697.85 38.75 697.85 38.6 697.85 38.5 697.85 38.4 697.85 38.3 697.85 38.2 697.85 38.1 697.85 37.95 697.85 37.85 697.85 37.75 697.85 37.65 697.85 37.55 697.85 37.45 697.85 37.3 697.85 37.2 697.85 37.1 697.85 37 697.8 36.9 697.8 36.75 697.8 36.65 697.8 36.55 697.8 36.45 697.8 36.35 697.8 36.25 697.8 36.1 697.8 36 697.8 35.9 697.8 35.8 697.8 35.7 697.8 35.6 697.8 35.45 697.8 35.35 697.8 35.25 697.8 35.15 697.8 35.05 697.8 34.95 697.8 34.8 697.8 34.7 697.8 34.6 697.8 34.5 697.8 34.4 697.8 34.3 697.8 34.15 697.8 34.05 697.8 33.95 697.8 33.85 697.8 33.75 697.8 33.6 697.8 33.5 697.8 33.4 697.8 33.3 697.8 33.2 697.8 33.1 697.8 32.95 697.8 32.85 697.8 32.75 697.8 32.65 697.8 32.55 697.8 32.45 697.8 32.3 697.8 32.2 697.8 32.1 697.8 32 697.8 31.9 697.8 31.8 697.8 31.65 697.8 31.55 697.8 31.45 697.8 31.35 697.8 31.25 697.8 31.15 697.8 31 697.8 30.9 697.8 30.8 697.8 30.7 697.8 30.6 697.8 30.45 697.8 30.35 697.8 30.25 697.8 30.15 697.8 30.05 697.8 29.95 697.8 29.8 697.8 29.7 697.8 29.6 697.8 29.5 697.8 29.4 697.8 29.3 697.8 29.15 697.8 29.05 697.8 28.95 697.8 28.85 697.8 28.75 697.8 28.65 697.8 28.5 697.8 28.4 697.8 28.3 697.8 28.2 697.8 28.1 697.8 28 697.75 27.85 697.75 27.75 697.75 27.65 697.75 27.55 697.75 27.45 697.75 27.3 697.75 27.2 697.75 27.1 697.75 27 697.75 26.9 697.75 26.8 697.75 26.65 697.75 26.55 697.75 26.45 697.75 26.35 697.75 26.25 697.75 26.15 697.75 26 697.75 25.9 697.75 25.8 697.75 25.7 697.75 25.6 697.7 25.5 697.65 25.35 697.65 25.25 697.65 25.15 697.65 25.05 697.65 24.95 697.65 24.85 697.65 24.7 697.65 24.6 697.65 24.5 697.65 24.4 697.65 24.3 697.65 24.15 697.65 24.05 697.65 23.95 697.65 23.85 697.6 23.75 697.6 23.65 697.6 23.5 697.6 23.4 697.6 23.3 697.6 23.2
L 697.6 23.15
Q 698.85 22.391015625 698.85 21.4 698.85 19.95 696.15 18.95 693.9142578125 18.1048828125 690.85 17.95
M 696.5 21.45
Q 696.5 21.273046875 696.4 21.1 696.13671875 20.37890625 694.55 19.85 694.16796875 19.712890625 693.75 19.6 694.51953125 19.7263671875 695.2 19.9 697.55 20.5 697.55 21.35 697.55 22.052734375 695.95 22.55 695.668359375 22.6662109375 695.35 22.75 695.743359375 22.5544921875 696 22.35 696.5 21.929296875 696.5 21.45
M 693.85 20.4
Q 695.55 20.85 695.55 21.45 695.55 22.05 693.85 22.5 692.15 22.95 689.75 22.95 687.35 22.95 685.65 22.5 683.95 22.05 683.95 21.45 683.95 20.85 685.65 20.4 687.35 19.95 689.75 19.95 692.15 19.95 693.85 20.4
M 696.8 23.6
Q 696.8 23.6470703125 696.8 23.7 696.75 23.8 696.7 23.9 696.7 24.05 696.7 24.15 696.7 24.25 696.7 24.35 696.7 24.45 696.7 24.55 696.7 24.7 696.7 24.8 696.7 24.9 696.7 25 696.7 25.1 696.7 25.2 696.7 25.35 696.65 25.45 696.65 25.55 696.65 25.65 696.65 25.75 696.65 25.9 696.65 26 696.65 26.1 696.65 26.2 696.65 26.3 696.65 26.4 696.65 26.55 696.65 26.65 696.65 26.75 696.65 26.85 696.65 26.95 696.65 27.05 696.65 27.2 696.65 27.3 696.65 27.4 696.65 27.5 696.65 27.6 696.6 27.7 696.55 27.85 696.55 27.95 696.55 28.05 696.55 28.15 696.55 28.25 696.55 28.35 696.55 28.5 696.55 28.6 696.55 28.7 696.55 28.8 696.55 28.9 696.55 29.05 696.55 29.15 696.55 29.25 696.55 29.35 696.55 29.45 696.55 29.55 696.55 29.7 696.55 29.8 696.55 29.9 696.55 30 696.55 30.1 696.55 30.2 696.55 30.35 696.55 30.45 696.55 30.55 696.55 30.65 696.55 30.75 696.55 30.85 696.55 31 696.55 31.1 696.55 31.2 696.55 31.3 696.55 31.4 696.55 31.5 696.55 31.65 696.55 31.75 696.55 31.85 696.55 31.95 696.55 32.05 696.55 32.2 696.55 32.3 696.55 32.4 696.55 32.5 696.55 32.6 696.55 32.7 696.55 32.85 696.55 32.95 696.55 33.05 696.55 33.15 696.55 33.25 696.55 33.35 696.55 33.5 696.55 33.6 696.55 33.7 696.55 33.8 696.55 33.9 696.55 34 696.55 34.15 696.55 34.25 696.55 34.35 696.55 34.45 696.55 34.55 696.55 34.65 696.55 34.8 696.55 34.9 696.55 35 696.55 35.1 696.55 35.2 696.55 35.35 696.55 35.45 696.55 35.55 696.55 35.65 696.55 35.75 696.55 35.85 696.55 36 696.55 36.1 696.55 36.2 696.55 36.3 696.55 36.4 696.55 36.5 696.55 36.65 696.55 36.75 696.55 36.85 696.5 36.95 696.5 37.05 696.5 37.15 696.5 37.3 696.5 37.4 696.5 37.5 696.5 37.6 696.5 37.7 696.5 37.8 696.5 37.95 696.5 38.05 696.5 38.15 696.5 38.25 696.5 38.35 696.5 38.5 696.5 38.6 696.5 38.7 696.5 38.8 696.5 38.9 696.5 39 696.5 39.15 696.5 39.25 696.5 39.35 696.55 39.45 696.65 39.55 696.6884765625 39.626953125 696.75 39.7 696.730859375 39.769140625 696.7 39.8 696.75 40.1 696.8 40.4 696.95 41 697.15 41.55 700.05 50.4 702.95 59.25 708.0728515625 74.519140625 713.25 89.85 713.15 89.9916015625 713.15 90.2
L 713.15 90.9
Q 713.15 91.45 712.65 92.35 711.75 94.15 710.95 95.25 710.4515625 95.8197265625 710.45 96.2 710.2455078125 96.2298828125 710.05 96.25 709.4203125 96.3400390625 708.8 96.45 711.5978515625 93.263671875 712.65 91.2 712.947265625 90.6478515625 712.7 90.45 712.6765625 90.403125 712.65 90.35 712.65 90.3 712.6 90.2 712.55 90.1 712.5 89.95 712.5 89.85 712.45 89.75 712.4 89.65 712.4 89.55 712.35 89.5 712.3 89.35 712.25 89.25 712.25 89.15 712.2 89.05 712.15 88.95 712.15 88.85 712.1 88.7 712.05 88.65 712 88.55 712 88.45 711.95 88.35 711.9 88.25 711.85 88.1 711.85 88 711.8 87.9 711.75 87.85 711.75 87.75 711.7 87.6 711.65 87.5 711.6 87.4 711.6 87.3 711.55 87.2 711.5 87.1 711.45 87 711.45 86.9 711.4 86.8 711.35 86.7 711.35 86.6 711.3 86.5 711.25 86.35 711.2 86.25 711.2 86.2 711.15 86.1 711.1 86 711.1 85.9 711.05 85.75 711 85.65 710.95 85.55 710.95 85.45 710.9 85.4 710.85 85.3 710.8 85.15 710.8 85.05 710.75 84.95 710.7 84.85 710.7 84.75 710.65 84.6 710.6 84.55 710.55 84.45 710.55 84.35 710.5 84.25 710.45 84.15 710.4 84 710.4 83.9 710.35 83.8 710.3 83.75 710.3 83.65 710.25 83.55 710.2 83.4 710.15 83.3 710.15 83.2 710.1 83.1 710.05 83 710.05 82.95 710 82.8 709.95 82.7 709.9 82.6 709.9 82.5 709.85 82.4 709.8 82.3 709.75 82.15 709.75 82.1 709.7 82 709.65 81.9 709.65 81.8 709.6 81.65 709.55 81.55 709.5 81.45 709.5 81.35 709.45 81.3 709.4 81.2 709.35 81.05 709.35 80.95 709.3 80.85 709.25 80.75 709.25 80.65 709.2 80.55 709.15 80.45 709.1 80.35 709.1 80.25 709.05 80.15 709 80.05 709 79.95 708.95 79.8 708.9 79.7 708.85 79.65 708.85 79.55 708.8 79.45 708.75 79.35 708.7 79.2 708.7 79.1 708.65 79 708.6 78.9 708.6 78.8 708.55 78.7 708.5 78.6 708.45 78.5 708.45 78.4 708.4 78.3 708.35 78.2 708.3 78.05 708.3 78 708.25 77.9 708.2 77.8 708.2 77.7 708.15 77.6 708.1 77.45 708.05 77.35 708.05 77.25 708 77.15 707.95 77.1 707.95 77 707.9 76.85 707.85 76.75 707.8 76.65 707.8 76.55 707.75 76.45 707.7 76.35 707.65 76.25 707.65 76.15 707.6 76.05 707.55 75.95 707.55 75.85 707.5 75.7 707.45 75.6 707.4 75.55 707.4 75.45 707.35 75.35 707.3 75.25 707.25 75.1 707.25 75 707.2 74.9 707.15 74.8 707.15 74.7 707.1 74.65 707.05 74.5 707 74.4 707 74.3 706.95 74.2 706.9 74.1 706.9 74 706.85 73.9 706.8 73.8 706.75 73.7 706.75 73.6 706.7 73.5 706.65 73.4 706.6 73.25 706.6 73.15 706.55 73.05 706.5 73 706.5 72.9 706.45 72.75 706.4 72.65 706.35 72.55 706.35 72.45 706.3 72.35 706.25 72.25 706.2 72.15 706.2 72.05 706.15 71.95 706.1 71.85 706.1 71.75 706.05 71.65 706 71.5 705.95 71.4 705.95 71.35 705.9 71.25 705.85 71.15 705.85 71.05 705.8 70.9 705.75 70.8 705.7 70.7 705.7 70.6 705.65 70.55 705.6 70.4 705.55 70.3 705.55 70.2 705.5 70.1 705.45 70 705.45 69.9 705.4 69.75 705.35 69.7 705.3 69.6 705.3 69.5 705.25 69.4 705.2 69.3 705.15 69.15 705.15 69.05 705.1 68.95 705.05 68.9 705.05 68.8 705 68.7 704.95 68.55 704.9 68.45 704.9 68.35 704.85 68.25 704.8 68.15 704.8 68.1 704.75 67.95 704.7 67.85 704.65 67.75 704.65 67.65 704.6 67.55 704.55 67.4 704.5 67.3 704.5 67.25 704.45 67.15 704.4 67.05 704.4 66.95 704.35 66.8 704.3 66.7 704.25 66.6 704.25 66.5 704.2 66.45 704.15 66.35 704.1 66.2 704.1 66.1 704.05 66 704 65.9 704 65.8 703.95 65.7 703.9 65.6 703.85 65.5 703.85 65.4 703.8 65.3 703.75 65.2 703.75 65.1 703.7 64.95 703.65 64.85 703.6 64.8 703.6 64.7 703.55 64.6 703.5 64.45 703.45 64.35 703.45 64.25 703.4 64.15 703.35 64.05 703.35 64 703.3 63.85 703.25 63.75 703.2 63.65 703.2 63.55 703.15 63.45 703.1 63.35 703.05 63.2 703.05 63.15 703 63.05 702.95 62.95 702.95 62.85 702.9 62.75 702.85 62.6 702.8 62.5 702.8 62.4 702.75 62.35 702.7 62.25 702.7 62.15 702.65 62 702.6 61.9 702.55 61.8 702.55 61.7 702.5 61.6 702.45 61.5 702.4 61.4 702.4 61.3 702.35 61.2 702.3 61.1 702.3 61 702.25 60.85 702.2 60.75 702.15 60.7 702.15 60.6 702.1 60.5 702 60.45 701.95 60.3 701.9 60.2 701.8 60.15 701.75 60.05 701.75 60 701.7 59.9 701.7 59.85 701.6 59.8 701.55 59.75 701.5228515625 59.7771484375 701.45 59.8 701.04140625 59.545703125 700.65 59.35 700.4458984375 59.2927734375 700.25 59.25 691.6912109375 56.9279296875 682.95 58.1 682.4916015625 58.1705078125 682.05 58.25 682.4287109375 57.531640625 682.8 56.95 682.2966796875 57.5251953125 681.8 58.25 681.76484375 58.2892578125 681.7 58.3 680.9361328125 58.4146484375 680.15 58.5 680.2353515625 58.3916015625 680.3 58.25 682.7 52.8 684.25 48.2 684.75 46.6 684.7 45.8 684.7 45.65 684.6 45.5 684.45 45.4 684.4 45.5 684.35 46.15 683.8 48.05 682.3 52.55 680.35 56.9 679.9560546875 57.8193359375 679.6 58.6 678.9154296875 58.7685546875 678.3 59.1 677.85546875 59.2587890625 677.45 59.45 677.2189453125 59.60390625 677 59.75
L 677.05 60.7
Q 677.030859375 60.7384765625 677 60.8 676.95 60.95 676.85 61 676.8 61.1 676.8 61.2 676.75 61.25 676.7 61.35 676.65 61.5 676.65 61.6 676.6 61.7 676.55 61.8 676.55 61.9 676.5 62 676.45 62.1 676.4 62.2 676.4 62.3 676.35 62.4 676.3 62.5 676.25 62.65 676.25 62.75 676.2 62.85 676.15 62.9 676.15 63 676.1 63.1 676.05 63.25 676 63.35 676 63.45 675.95 63.55 675.9 63.65 675.9 63.7 675.85 63.85 675.8 63.95 675.75 64.05 675.75 64.15 675.7 64.25 675.65 64.35 675.6 64.5 675.6 64.55 675.55 64.65 675.5 64.75 675.5 64.85 675.45 64.95 675.4 65.1 675.35 65.2 675.35 65.3 675.3 65.35 675.25 65.45 675.2 65.6 675.2 65.7 675.15 65.8 675.1 65.9 675.1 66 675.05 66.1 675 66.2 674.95 66.3 674.95 66.4 674.9 66.5 674.85 66.6 674.85 66.7 674.8 66.85 674.75 66.95 674.7 67 674.7 67.1 674.65 67.2 674.6 67.3 674.55 67.45 674.55 67.55 674.5 67.65 674.45 67.75 674.45 67.8 674.4 67.9 674.35 68.05 674.3 68.15 674.3 68.25 674.25 68.35 674.2 68.45 674.15 68.6 674.15 68.65 674.1 68.75 674.05 68.85 674.05 68.95 674 69.05 673.95 69.2 673.9 69.3 673.9 69.4 673.85 69.45 673.8 69.55 673.8 69.65 673.75 69.8 673.7 69.9 673.65 70 673.65 70.1 673.6 70.2 673.55 70.25 673.5 70.4 673.5 70.5 673.45 70.6 673.4 70.7 673.4 70.8 673.35 70.9 673.3 71.05 673.25 71.1 673.25 71.2 673.2 71.3 673.15 71.4 673.1 71.55 673.1 71.65 673.05 71.75 673 71.85 673 71.9 672.95 72 672.9 72.15 672.85 72.25 672.85 72.35 672.8 72.45 672.75 72.55 672.75 72.65 672.7 72.75 672.65 72.85 672.6 72.95 672.6 73.05 672.55 73.15 672.5 73.25 672.45 73.4 672.45 73.5 672.4 73.55 672.35 73.65 672.35 73.75 672.3 73.9 672.25 74 672.2 74.1 672.2 74.2 672.15 74.3 672.1 74.4 672.05 74.5 672.05 74.6 672 74.7 671.95 74.8 671.95 74.9 671.9 75 671.85 75.15 671.8 75.2 671.8 75.3 671.75 75.4 671.7 75.5 671.7 75.6 671.65 75.75 671.6 75.85 671.55 75.95 671.55 76.05 671.5 76.1 671.45 76.2 671.4 76.35 671.4 76.45 671.35 76.55 671.3 76.65 671.3 76.75 671.25 76.85 671.2 76.95 671.15 77.05 671.15 77.15 671.1 77.25 671.05 77.35 671 77.5 671 77.6 670.95 77.65 670.9 77.75 670.9 77.85 670.85 77.95 670.8 78.1 670.75 78.2 670.75 78.3 670.7 78.4 670.65 78.5 670.65 78.55 670.6 78.7 670.55 78.8 670.5 78.9 670.5 79 670.45 79.1 670.4 79.2 670.35 79.3 670.35 79.4 670.3 79.5 670.25 79.6 670.25 79.7 670.2 79.85 670.15 79.95 670.1 80.05 670.1 80.15 670.05 80.2 670 80.3 669.95 80.45 669.95 80.55 669.9 80.65 669.85 80.75 669.85 80.85 669.8 80.95 669.75 81.05 669.7 81.15 669.7 81.25 669.65 81.35 669.6 81.45 669.6 81.55 669.55 81.7 669.5 81.8 669.45 81.85 669.45 81.95 669.4 82.05 669.35 82.15 669.3 82.3 669.3 82.4 669.25 82.5 669.2 82.6 669.2 82.65 669.15 82.8 669.1 82.9 669.05 83 669.05 83.1 669 83.2 668.95 83.3 668.9 83.45 668.9 83.5 668.85 83.6 668.8 83.7 668.8 83.8 668.75 83.9 668.7 84.05 668.65 84.15 668.65 84.25 668.6 84.3 668.55 84.4 668.55 84.5 668.5 84.65 668.45 84.75 668.4 84.85 668.4 84.95 668.35 85.05 668.3 85.1 668.25 85.25 668.25 85.35 668.2 85.45 668.15 85.55 668.15 85.65 668.1 85.8 668.05 85.9 668 85.95 668 86.05 667.95 86.15 667.9 86.25 667.85 86.4 667.85 86.5 667.8 86.6 667.75 86.7 667.75 86.75 667.7 86.85 667.65 87 667.6 87.1 667.6 87.2 667.55 87.3 667.5 87.4 667.5 87.5 667.45 87.6 667.4 87.7 667.35 87.8 667.35 87.9 667.3 88 667.25 88.1 667.2 88.25
L 667.2 88.3
Q 666.748828125 87.7259765625 666.15 87.4 670.952734375 73.29609375 675.65 59.25 678.55 50.4 681.45 41.55 681.65 41 681.8 40.4 681.85 40.1 681.9 39.8
L 681.85 39.75
Q 681.9 39.65 681.95 39.55 682.05 39.45 682.1 39.35 682.1 39.25 682.1 39.15 682.1 39 682.1 38.9 682.1 38.8 682.1 38.7 682.1 38.6 682.1 38.5 682.1 38.35 682.1 38.25 682.1 38.15 682.1 38.05 682.1 37.95 682.1 37.8 682.1 37.7 682.1 37.6 682.1 37.5 682.1 37.4 682.1 37.3 682.1 37.15 682.1 37.05 682.1 36.95 682.05 36.85 682.05 36.75 682.05 36.65 682.05 36.5 682.05 36.4 682.05 36.3 682.05 36.2 682.05 36.1 682.05 36 682.05 35.85 682.05 35.75 682.05 35.65 682.05 35.55 682.05 35.45 682.05 35.35 682.05 35.2 682.05 35.1 682.05 35 682.05 34.9 682.05 34.8 682.05 34.65 682.05 34.55 682.05 34.45 682.05 34.35 682.05 34.25 682.05 34.15 682.05 34 682.05 33.9 682.05 33.8 682.05 33.7 682.05 33.6 682.05 33.5 682.05 33.35 682.05 33.25 682.05 33.15 682.05 33.05 682.05 32.95 682.05 32.85 682.05 32.7 682.05 32.6 682.05 32.5 682.05 32.4 682.05 32.3 682.05 32.2 682.05 32.05 682.05 31.95 682.05 31.85 682.05 31.75 682.05 31.65 682.05 31.5 682.05 31.4 682.05 31.3 682.05 31.2 682.05 31.1 682.05 31 682.05 30.85 682.05 30.75 682.05 30.65 682.05 30.55 682.05 30.45 682.05 30.35 682.05 30.2 682.05 30.1 682.05 30 682.05 29.9 682.05 29.8 682.05 29.7 682.05 29.55 682.05 29.45 682.05 29.35 682.05 29.25 682.05 29.15 682.05 29.05 682.05 28.9 682.05 28.8 682.05 28.7 682.05 28.6 682.05 28.5 682.05 28.35 682.05 28.25 682.05 28.15 682.05 28.05 682.05 27.95 682.05 27.85 682 27.7 681.95 27.6 681.95 27.5 681.95 27.4 681.95 27.3 681.95 27.2 681.95 27.05 681.95 26.95 681.95 26.85 681.95 26.75 681.95 26.65 681.95 26.55 681.95 26.4 681.95 26.3 681.95 26.2 681.95 26.1 681.95 26 681.95 25.9 681.95 25.75 681.95 25.65 681.95 25.55 681.95 25.45 681.9 25.35 681.9 25.2 681.9 25.1 681.9 25 681.9 24.9 681.9 24.8 681.9 24.7 681.9 24.55 681.9 24.45 681.9 24.35 681.9 24.25 681.9 24.15 681.9 24.05 681.9 23.9 681.85 23.8 681.8 23.7 681.8 23.65 681.8 23.6 681.8 23.55 681.8 23.5 681.8 23.4 681.8 23.25 681.8 23.2115234375 681.8 23.15 682.37890625 23.5337890625 683.2 23.85 683.3142578125 23.8833984375 683.4 23.9 685.6998046875 24.733203125 688.8 24.8 689.241796875 24.85 689.7 24.85 690.2884765625 24.85 690.85 24.8 693.5435546875 24.7107421875 695.6 24.05 695.9015625 23.95234375 696.15 23.85 696.50859375 23.725390625 696.8 23.6
M 685.05 23.05
Q 684.3970703125 22.9525390625 683.8 22.8 681.45 22.2 681.45 21.35 681.45 20.5 683.8 19.9 685.141015625 19.5576171875 686.8 19.4 685.9169921875 19.574609375 685.15 19.85 683.2 20.5 683.2 21.45 683.2 22.3775390625 685.05 23.05
M 678.85 61.5
Q 679.2169921875 60.643359375 679.75 59.45 680.5345703125 59.3072265625 681.3 59.15 680.707421875 60.352734375 680.15 61.85 679.506640625 61.701953125 678.85 61.5
M 679.2 59.6
Q 678.7501953125 60.65078125 678.4 61.4 678.0529296875 61.312890625 677.65 61.2 677.7 61.1384765625 677.7 61.05 677.6822265625 60.9966796875 677.65 60.95
L 677.7 60.65 677.7 60.6 678.2 59.95 679.2 59.6
M 677.15 63
Q 677.2 62.85 677.25 62.75 677.3 62.65 677.3 62.55 677.35 62.45 677.4 62.35 677.4291015625 62.2919921875 677.45 62.2 677.716796875 62.37109375 677.95 62.5 677.704296875 63.2021484375 677.6 63.5 677.05 65.1 676.3 67.9
L 675.1 72.2
Q 675.45 71.95 675.75 71.1
L 677.15 66.5
Q 677.6 64.85 678.2 63.15 678.27578125 62.937890625 678.35 62.65 679.0396484375 62.9625 679.7 63.15 678.0955078125 68.2580078125 677.3 69.7 676.95 70.4 677.15 70.7 677.95 69.05 679.75 63.7 679.8384765625 63.448828125 679.9 63.2 680.773046875 63.425390625 681.65 63.5 684.2552734375 63.529296875 686.8 63.8 688.6466796875 63.9890625 690.45 64.3 697.0845703125 65.09609375 700.9 61.65 701.1271484375 61.4513671875 701.35 61.2 701.4 61.36015625 701.4 61.45 701.45 61.55 701.5 61.65 701.5 61.75 701.55 61.85 701.6 61.95 701.65 62.05 701.65 62.15 701.7 62.25 701.75 62.35 701.8 62.5 701.8 62.6 701.85 62.7 701.9 62.75 701.9 62.85 701.95 62.95 702 63.1 702.05 63.2 702.05 63.3 702.1 63.4 702.15 63.5 702.15 63.55 702.2 63.7 702.25 63.8 702.3 63.9 702.3 64 702.35 64.1 702.4 64.2 702.45 64.35 702.45 64.4 702.5 64.5 702.55 64.6 702.55 64.7 702.6 64.8 702.65 64.95 702.7 65.05 702.7 65.15 702.75 65.2 702.8 65.3 702.85 65.45 702.85 65.55 702.9 65.65 702.95 65.75 702.95 65.85 703 65.95 703.05 66.05 703.1 66.15 703.1 66.25 703.15 66.35 703.2 66.45 703.2 66.55 703.25 66.7 703.3 66.8 703.35 66.85 703.35 66.95 703.4 67.05 703.45 67.15 703.5 67.3 703.5 67.4 703.55 67.5 703.6 67.6 703.6 67.65 703.65 67.75 703.7 67.9 703.75 68 703.75 68.1 703.8 68.2 703.85 68.3 703.9 68.45 703.9 68.5 703.95 68.6 704 68.7 704 68.8 704.05 68.9 704.1 69.05 704.15 69.15 704.15 69.25 704.2 69.3 704.25 69.4 704.25 69.5 704.3 69.65 704.35 69.75 704.4 69.85 704.4 69.95 704.45 70.05 704.5 70.1 704.55 70.25 704.55 70.35 704.6 70.45 704.65 70.55 704.65 70.65 704.7 70.75 704.75 70.9 704.8 70.95 704.8 71.05 704.85 71.15 704.9 71.25 704.95 71.4 704.95 71.5 705 71.6 705.05 71.7 705.05 71.75 705.1 71.85 705.15 72 705.2 72.1 705.2 72.2 705.25 72.3 705.3 72.4 705.3 72.5 705.35 72.6 705.4 72.7 705.45 72.8 705.45 72.9 705.5 73 705.55 73.1 705.6 73.25 705.6 73.35 705.65 73.4 705.7 73.5 705.7 73.6 705.75 73.75 705.8 73.85 705.85 73.95 705.85 74.05 705.9 74.15 705.95 74.25 706 74.35 706 74.45 706.05 74.55 706.1 74.65 706.1 74.75 706.15 74.85 706.2 75 706.25 75.05 706.25 75.15 706.3 75.25 706.35 75.35 706.35 75.45 706.4 75.6 706.45 75.7 706.5 75.8 706.5 75.9 706.55 75.95 706.6 76.05 706.65 76.2 706.65 76.3 706.7 76.4 706.75 76.5 706.75 76.6 706.8 76.7 706.85 76.8 706.9 76.9 706.9 77 706.95 77.1 707 77.2 707.05 77.35 707.05 77.45 707.1 77.5 707.15 77.6 707.15 77.7 707.2 77.8 707.25 77.95 707.3 78.05 707.3 78.15 707.35 78.25 707.4 78.35 707.4 78.4 707.45 78.55 707.5 78.65 707.55 78.75 707.55 78.85 707.6 78.95 707.65 79.05 707.7 79.15 707.7 79.25 707.75 79.35 707.8 79.45 707.8 79.55 707.85 79.7 707.9 79.8 707.95 79.9 707.95 80 708 80.05 708.05 80.15 708.1 80.3 708.1 80.4 708.15 80.5 708.2 80.6 708.2 80.7 708.25 80.8 708.3 80.9 708.35 81 708.35 81.1 708.4 81.2 708.45 81.3 708.45 81.4 708.5 81.55 708.55 81.65 708.6 81.7 708.6 81.8 708.65 81.9 708.7 82 708.75 82.15 708.75 82.25 708.8 82.35 708.85 82.45 708.85 82.5 708.9 82.65 708.95 82.75 709 82.85 709 82.95 709.05 83.05 709.1 83.15 709.15 83.3 709.15 83.35 709.2 83.45 709.25 83.55 709.25 83.65 709.3 83.75 709.35 83.9 709.4 84 709.4 84.1 709.45 84.15 709.5 84.25 709.5 84.35 709.55 84.5 709.6 84.6 709.65 84.7 709.65 84.8 709.7 84.9 709.75 84.95 709.8 85.1 709.8 85.2 709.85 85.3 709.9 85.4 709.9 85.5 709.95 85.65 710 85.75 710.05 85.8 710.05 85.9 710.1 86 710.15 86.1 710.2 86.25 710.2 86.35 710.25 86.45 710.3 86.55 710.3 86.6 710.35 86.7 710.4 86.85 710.45 86.95 710.45 87.05 710.5 87.15 710.55 87.25 710.55 87.35 710.6 87.45 710.65 87.55 710.7 87.65 710.7 87.75 710.75 87.85 710.8 87.95 710.85 88.1 710.85 88.2 710.9 88.25 710.95 88.35 710.95 88.45 711 88.6 711.05 88.7 711.1 88.8 711.1 88.9 711.15 89 711.2 89.05 711.25 89.2 711.25 89.3 711.3 89.4 711.35 89.5 711.35 89.6 711.4 89.7 711.45 89.85 711.5 89.9 711.5 90 711.55 90.1 711.6 90.2 711.6 90.3 711.65 90.45 711.7 90.55 711.75 90.65 711.75 90.7 711.8 90.8 711.85 90.9 711.9 91.05 711.9 91.15 711.916015625 91.1818359375 711.9 91.2
L 708.7 95.15
Q 708.0203125 96.0150390625 707.35 96.7 707.0337890625 96.776953125 706.7 96.85 703.2681640625 97.6056640625 699.8 98.65 698.85390625 98.933203125 697.85 99.25 693.565625 99.25 689.25 99.25
L 689.25 99.3
Q 685.71796875 99.3 682.15 99.3 682.217578125 99.1529296875 682.25 98.95 682.3 98.6236328125 682.3 98.15 682.3 96.4 681.95 95.6 681.5353515625 94.6953125 680.35 93.9 679.9677734375 93.6837890625 679.5 93.45 678.4330078125 92.9060546875 677.45 92.65 676.133984375 92.3173828125 675 92.55 674.954296875 92.5576171875 674.9 92.55
L 673.05 91.75 671.8 89.8 671.75 89.75 671.75 89.7 667.95 89.75
Q 667.908203125 89.562109375 667.85 89.4 667.85 89.3 667.9 89.2 667.95 89.1 668 88.95 668 88.85 668.05 88.75 668.1 88.7 668.1 88.6 668.15 88.45 668.2 88.35 668.25 88.25 668.25 88.15 668.3 88.05 668.35 87.95 668.4 87.85 668.4 87.75 668.45 87.65 668.5 87.55 668.5 87.45 668.55 87.35 668.6 87.2 668.65 87.1 668.65 87.05 668.7 86.95 668.75 86.85 668.75 86.75 668.8 86.6 668.85 86.5 668.9 86.4 668.9 86.3 668.95 86.25 669 86.15 669.05 86 669.05 85.9 669.1 85.8 669.15 85.7 669.15 85.6 669.2 85.45 669.25 85.4 669.3 85.3 669.3 85.2 669.35 85.1 669.4 85 669.45 84.85 669.45 84.75 669.5 84.65 669.55 84.6 669.55 84.5 669.6 84.4 669.65 84.25 669.7 84.15 669.7 84.05 669.75 83.95 669.8 83.85 669.8 83.8 669.85 83.65 669.9 83.55 669.95 83.45 669.95 83.35 670 83.25 670.05 83.15 670.1 83 670.1 82.95 670.15 82.85 670.2 82.75 670.2 82.65 670.25 82.5 670.3 82.4 670.35 82.3 670.35 82.2 670.4 82.15 670.45 82.05 670.5 81.9 670.5 81.8 670.55 81.7 670.6 81.6 670.6 81.5 670.65 81.4 670.7 81.3 670.75 81.2 670.75 81.1 670.8 81 670.85 80.9 670.85 80.8 670.9 80.65 670.95 80.55 671 80.5 671 80.4 671.05 80.3 671.1 80.2 671.15 80.05 671.15 79.95 671.2 79.85 671.25 79.75 671.25 79.65 671.3 79.55 671.35 79.45 671.4 79.35 671.4 79.25 671.45 79.15 671.5 79.05 671.55 78.9 671.55 78.85 671.6 78.75 671.65 78.65 671.65 78.55 671.7 78.45 671.75 78.3 671.8 78.2 671.8 78.1 671.85 78 671.9 77.95 671.9 77.85 671.95 77.7 672 77.6 672.05 77.5 672.05 77.4 672.1 77.3 672.15 77.2 672.2 77.1 672.2 77 672.25 76.9 672.3 76.8 672.3 76.7 672.35 76.55 672.4 76.45 672.45 76.4 672.45 76.3 672.5 76.2 672.55 76.1 672.6 75.95 672.6 75.85 672.65 75.75 672.7 75.65 672.7 75.55 672.75 75.5 672.8 75.35 672.85 75.25 672.85 75.15 672.9 75.05 672.95 74.95 672.95 74.85 673 74.75 673.05 74.65 673.1 74.55 673.1 74.45 673.15 74.35 673.2 74.25 673.25 74.1 673.25 74 673.3 73.9 673.35 73.85 673.35 73.75 673.4 73.6 673.45 73.5 673.5 73.4 673.5 73.3 673.55 73.2 673.6 73.1 673.65 73 673.65 72.9 673.7 72.8 673.75 72.7 673.75 72.6 673.8 72.5 673.85 72.35 673.9 72.25 673.9 72.2 673.95 72.1 674 72 674 71.9 674.05 71.75 674.1 71.65 674.15 71.55 674.15 71.45 674.2 71.4 674.25 71.25 674.3 71.15 674.3 71.05 674.35 70.95 674.4 70.85 674.4 70.75 674.45 70.6 674.5 70.55 674.55 70.45 674.55 70.35 674.6 70.25 674.65 70.15 674.7 70 674.7 69.9 674.75 69.8 674.8 69.75 674.8 69.65 674.85 69.55 674.9 69.4 674.95 69.3 674.95 69.2 675 69.1 675.05 69 675.05 68.95 675.1 68.8 675.15 68.7 675.2 68.6 675.2 68.5 675.25 68.4 675.3 68.25 675.35 68.15 675.35 68.1 675.4 68 675.45 67.9 675.45 67.8 675.5 67.65 675.55 67.55 675.6 67.45 675.6 67.35 675.65 67.3 675.7 67.2 675.75 67.05 675.75 66.95 675.8 66.85 675.85 66.75 675.85 66.65 675.9 66.55 675.95 66.45 676 66.35 676 66.25 676.05 66.15 676.1 66.05 676.1 65.95 676.15 65.8 676.2 65.7 676.25 65.65 676.25 65.55 676.3 65.45 676.35 65.3 676.4 65.2 676.4 65.1 676.45 65 676.5 64.9 676.5 64.85 676.55 64.7 676.6 64.6 676.65 64.5 676.65 64.4 676.7 64.3 676.75 64.2 676.8 64.05 676.8 64 676.85 63.9 676.9 63.8 676.9 63.7 676.95 63.6 677 63.45 677.05 63.35 677.05 63.25 677.1 63.2 677.15 63.1 677.15 63
M 680.4 61.9
Q 681.0115234375 60.358984375 681.6 59.1 691.094140625 57.6763671875 700.35 60.25
L 700.6 61.15
Q 700.1 61.5 699.6 61.65 694.028515625 63.0119140625 688.6 62.9 684.456640625 62.8271484375 680.4 61.9
M 654.55 89.5
L 654.35 89.4
Q 653.95 89.5 653.85 89.9
L 653.85 90.2 653.4 91.25
Q 653.3724609375 91.3599609375 653.35 91.45 653.1380859375 91.2626953125 652.8 91.15 652.6 91.05 651.65 90.95
L 650.5 90.9
Q 649.7 90.9 649.45 91.05 649.15 91.2 648.8 92.05 648.55 92.95 648.55 93.1 648.4654296875 93.649609375 648.65 94.1 648.522265625 94.16640625 648.4 94.25 648.1705078125 94.393359375 648 94.55 647.9857421875 94.499609375 647.95 94.45 647.55 93.85 647.1 93.8 646.8 93.75 646.2 93.95 645.5703125 94.201953125 645.15 94.45
L 645.1 94.4 645.05 94.2
Q 645 94.05 644.55 93.7 644.401171875 93.4765625 644.25 93.35 645.415625 92.4748046875 646.85 92
L 646.9 92.05
Q 646.95 92.3 647.25 92.4
L 647.65 92.7
Q 648.05 92.85 648.1 92.8
L 648.2 92.55
Q 648.1 92.35 647.7 92.15
L 647.4 91.85
Q 647.499609375 91.824609375 647.6 91.8
L 647.1 91.45 646.75 90.55
Q 647.4 90.3 648.1 90.05 649.7 89.5 650.9 90.7
L 651.95 89 654.7 89.45 654.55 89.5
M 654.05 91.1
Q 654.2734375 90.9212890625 654.3 90.55
L 658.15 90.3 659.35 91.45 660.15 91.35 658.9 89.05 660 88.15 662.25 89.55
Q 662.1791015625 89.683203125 662.15 89.8
L 662.1 90.45 661.9 91
Q 661.8654296875 91.086328125 661.85 91.25 661.784375 91.25 661.75 91.25 661.65 91.35 661.6 91.4 661.5 91.5 661.35 91.65 661.35 91.75 661.3 91.85 661.3 91.95 661.3 92.05 661.2 92.15 661.1 92.3 661.05 92.4 661 92.5 661 92.6 661 92.7 660.8 92.5 660.45 92.3
L 659.5 91.75
Q 659.15 91.55 658.35 91.35 657.9 91.2 657.4 91.2 656.761328125 91.28515625 656.45 91.85 656.2416015625 91.8 655.8 91.8 655.3 91.75 654.7 91.9 654.25625 92.038671875 653.75 92.35 653.7689453125 92.037890625 653.65 91.8 653.6318359375 91.7671875 653.6 91.7 653.6302734375 91.7197265625 653.65 91.7
L 654.05 91.1
M 653.25 92.65
Q 653.25 92.6955078125 653.25 92.75 653.1232421875 92.8404296875 653 92.95 652.508203125 93.3662109375 652.25 93.5 651.996875 93.5 651.65 93.5 650.080859375 93.5681640625 649.15 93.9 649.15 93.8517578125 649.15 93.8
L 649.25 93.15 649.45 92.65
Q 649.6 92.15 649.6 92.1 649.8 91.8 650.45 91.7 651.5 91.6 652 91.65 652.4 91.65 652.55 91.75 652.7 91.8 653.05 92.15 653.25 92.45 653.25 92.65
M 657.1 92.35
Q 657.1771484375 92.2115234375 657.3 92.15 657.6 91.9 658.3 92.1
L 659.3 92.45 660.55 93.3
Q 660.8 93.6 660.7 94 660.805859375 94.105859375 660.9 94.1 660.8087890625 94.1607421875 660.75 94.2
L 660.3 94.55
Q 659.8 94.8 659.55 95 659.15 95.25 659 95.8 658.905078125 96.1166015625 658.95 96.4 658.3275390625 96.2703125 657.45 96.35 656.65 96.35 656.25 96.45 655.65 96.6 654.5 97.45 654.12265625 97.71953125 653.8 97.9 653.7203125 97.902734375 653.65 97.9 653.64375 97.874609375 653.65 97.85 654.15 96.2 655.6 95.6 655.9 95.5 656.05 95.3 656.6 94.9 658 94.85 659.35 94.8 659.9 94.45 658.783984375 93.9849609375 657.65 94 657.7912109375 93.6587890625 657.65 93.2 657.513671875 92.8818359375 657.1 92.35
M 655.1 92.7
Q 655.4 92.55 656 92.55 656.18046875 92.7728515625 656.3 92.95
L 656.3 94
Q 656.3 94.1587890625 656.3 94.25 655.0978515625 94.626171875 654.2 95.4 654.17421875 95.3603515625 654.15 95.3 653.6435546875 94.2509765625 653.05 93.8 653.1291015625 93.7865234375 653.2 93.7 653.3599609375 93.6216796875 653.6 93.45
L 653.65 93.4
Q 654 93.15 654.25 93.05
L 654.8 92.85 655.1 92.7
M 651.6 94.4
Q 652.4 94.4 652.75 94.75 652.9 94.9 653.1 95.45 653.3 95.95 653.5 96.15 653.4529296875 96.227734375 653.4 96.3 653 97 652.95 97.1 652.860546875 97.5173828125 652.85 97.85 650.6890625 97.749609375 648.5 97.45 648.873046875 96.302734375 648.35 95.2 648.925 94.78125 649.65 94.6 650.3 94.4 651.6 94.4
M 655.55 97.95
Q 655.8568359375 97.7625 656.2 97.55 656.85 97.3 658.2 97.3 658.6 97.3 658.8 97.4 659.0625 97.4875 659.45 97.85 657.5041015625 97.958984375 655.55 97.95
M 665.7 88.75
Q 666.2990234375 89.055859375 666.75 89.55 667.1201171875 89.998046875 667.4 90.6
L 671.3 91 672.85 93.1
Q 673.65 93.1 674.25 93.65 674.9 94.1 675.35 94.8 674.8 94.9 674.3 95 674.1900390625 95.03515625 674.05 95.05 674.03515625 95.001171875 673.95 94.95
L 673.8 94.75 673.65 94.2
Q 673.45 93.9 672.85 93.9
L 670.8 93.8
Q 670.873046875 93.873046875 670.75 93.9 670.54609375 93.108984375 669.4 92.2 668.9 91.85 668.7 91.75 668.25 91.5 667.15 91.5 667.1107421875 91.4953125 667.05 91.5 666.2884765625 91.423046875 666.05 91.9
L 665.7 92.9
Q 665.669140625 92.97734375 665.65 93.05 665.65 93.0052734375 665.65 92.95 665.65 92.85 665.65 92.7 665.7 92.6 665.7 92.5 665.6 92.4 665.5 92.3 665.4 92.15 665.3 92.05 665.2 91.95 665.15 91.85 665.05 91.75 664.9 91.65 664.7 91.55 664.5 91.5 664.4 91.4 664.25 91.35 664.191015625 91.344921875 664.1 91.35 663.389453125 91.2763671875 662.6 91.2
L 662.75 91.05
Q 662.85 90.9 662.8 90.55 662.8 90.2 662.85 90.05 662.9 89.75 663.4 89.45
L 664.8 88.5
Q 665.2919921875 88.5759765625 665.7 88.75
M 663.9 91.9
Q 663.95 92 664 92.05 664.159765625 92.1138671875 664.3 92.15 664.409765625 92.18203125 664.5 92.2 664.5 92.25 664.55 92.3 664.6 92.35 664.65 92.45 664.7 92.55 664.8 92.65 664.9 92.75 665.05 92.85 665.1 92.95 665.15 93.1 665.15 93.2 665.15 93.3 665.15 93.4 665.15 93.5 665.15 93.6 665.15 93.75 665.15 93.85 665.15 93.95 665.15 94 665.15 94.05 665.15 94.1 665.15 94.15 665.15 94.25 665.15 94.4 665.05 94.5 665 94.6 664.95625 94.6875 664.9 94.75
L 664.9 94.8
Q 665.175 94.8392578125 665.4 94.85
L 664.7 95.55
Q 664.6943359375 95.511328125 664.65 95.45 664.198828125 94.90703125 663.7 94.6 663.25 94.3 662.7 94.15 662.521484375 94.10546875 661.55 94.1 661.6125 94.0251953125 661.65 93.95 661.65 93.85 661.65 93.75 661.65 93.6 661.65 93.5 661.65 93.4 661.65 93.3 661.65 93.2 661.65 93.1 661.65 92.95 661.65 92.85 661.75 92.75 661.8 92.65 661.9 92.55 661.95 92.45 661.95 92.311328125 661.95 92.2 662.0162109375 92.2208984375 662.1 92.2 662.229296875 92.1138671875 662.3 92 663.13125 91.9453125 663.9 91.9
M 666.6 92.35
Q 666.6990234375 92.334765625 666.8 92.3 667.9380859375 92.165234375 668.4 92.35 668.75 92.5 669.05 92.8 670.087890625 93.640234375 670.25 94.25
L 669.5 95.4 669.5 95.4
Q 668.4 94.6 667.5 94.4 667.26875 94.344921875 667.05 94.3 666.2677734375 94.296484375 665.55 94.75 665.55 94.7208984375 665.55 94.65 665.6 94.55 665.65 94.45 665.65 94.35 665.65 94.25 665.65 94.15 665.65 94 665.65 93.9 665.65 93.8 665.65 93.7228515625 665.65 93.65 665.6931640625 93.8830078125 665.8 94.15 666.15 94.3 666.25 93.85
L 666.35 93.25
Q 666.5 92.95 666.55 92.8 666.7 92.55 666.6 92.35
M 662.75 89
Q 662.6310546875 89.0951171875 662.5 89.2
L 662.6 88.8
Q 662.896484375 88.7208984375 663.2 88.65 662.9595703125 88.8203125 662.75 89
M 661.3 95
Q 662.15 94.75 662.8 95.1
L 663.2 95.35
Q 663.6 95.65 664 96.2
L 664 96.25 663.4 96.85
Q 663.774609375 96.9748046875 664.15 96.8 664.224609375 96.791796875 664.3 96.75
L 664.35 96.7 664.7 97.15
Q 665.1 97.05 665.2 96.6 665.2 96.4255859375 665.05 96.1 665.3322265625 95.9416015625 665.55 95.8 665.784765625 95.6736328125 665.95 95.55 666.8716796875 95.1337890625 667.6 95.2
L 667.65 95.25 668.45 95.9
Q 669 96.35 669.35 96.35
L 669.35 96.35
Q 668.5544921875 96.5609375 667.75 96.7 667.5986328125 96.8 667.4 96.8 666.2236328125 97.035546875 665.05 97.2 664.5056640625 97.3111328125 663.95 97.35 662.3537109375 97.6123046875 660.75 97.75 660.68125 97.6515625 660.6 97.55 659.9935546875 96.8568359375 659.4 96.55
L 659.55 96.2
Q 659.7 95.75 660.45 95.45
L 661.3 95
M 663.4 98.9
Q 663.966015625 98.87265625 664.5 98.8 670.5994140625 97.961328125 676.75 95.8
L 676.1 93.65
Q 677.3630859375 93.960546875 678.55 94.5 681.1 95.85 681.05 97.65 681.05 98.466015625 680.4 99.3 680.1525390625 99.66953125 679.75 100.05 679.5673828125 100.2208984375 679.35 100.4 679.22578125 100.5025390625 679.1 100.6 678.1892578125 101.3607421875 678.1 101.45 677.96640625 101.5740234375 677.85 101.7 677.3427734375 102.23359375 677.1 102.8 677.2462890625 102.808203125 677.4 102.8 677.3232421875 102.8931640625 677.25 103 676.9962890625 103.3154296875 676.7 103.75 674.7 106.6 671.3 108.5 668.15 110.2 664.35 110.85 661.1421875 111.433203125 657.3 111.2 657.2103515625 111.20703125 657.1 111.2 653.95 110.95 649.85 110.15 646.5845703125 109.52578125 644.55 108.65 644.8470703125 108.2376953125 645.3 107.75
L 648.75 104
Q 648.85625 103.89375 648.9 103.8 650.815234375 103.9599609375 652.7 104 655.0142578125 104.168359375 656.45 104.2
L 656.65 104.25
Q 656.8005859375 104.244921875 656.95 104.25 657.109765625 104.2646484375 657.25 104.25
L 658.25 104.3 658.8 104.35
Q 660.231640625 104.3326171875 661.6 104.05 662.172265625 103.92734375 662.7 103.75 662.909765625 103.710546875 663.1 103.65 664.1 103.35 664.25 102.85 663.928515625 102.8041015625 663.05 102.8 662.624609375 102.81015625 662.05 102.8 661.27109375 102.853515625 660.25 102.9 659.9591796875 102.91171875 659.6 102.9 657.180078125 102.9650390625 652.85 102.7 646.45 102.2 643.2 101.75
L 640.85 101.4
Q 639.8107421875 101.2166015625 639 101.05
L 637.6 100.65
Q 637.475 100.602734375 637.35 100.55 637.2341796875 100.505859375 637.1 100.45 636.5904296875 99.9833984375 635.85 99.4 635.4919921875 99.0896484375 635.25 98.8 640.6021484375 100.4302734375 643.4 100.85 646.3 101.3 650.85 101.5 656.15 101.8 658.8 101.9 659.7068359375 101.962890625 660.55 102 661.4638671875 102.0525390625 662.3 102.05 662.8318359375 102.0939453125 663.3 102.1 664.187890625 102.1150390625 664.95 102.1 672.420703125 102.1 677.25 99.7 677.5330078125 99.569921875 677.75 99.4 678.7728515625 98.893359375 679.65 98.25 680.5 97.7 680.15 97.15 674.85 100.65 666.45 101.1 665.180078125 101.14296875 663.65 101.1 663.161328125 101.122265625 662.65 101.1 661.0509765625 101.0861328125 659.2 101 654.4 100.7 652 100.6 648.6 100.45 646.9 100.35 643.9 100.15 641.8 99.75 637.35 98.6 635.05 98.3
L 635 98.3
Q 634.9701171875 97.775390625 635.4 97.25 636.13359375 96.37890625 637.1 96.15 637.14375 96.3876953125 637.2 96.5 637.4 96.9 637.75 96.85
L 638.3 96.05 638.55 95.85 638.55 96.25
Q 650.883984375 100.4048828125 663.4 98.9
M 671.1 94.7
L 671.5 94.65 673.1 94.6
Q 672.9630859375 95.044921875 673.15 95.35 671.6666015625 95.8009765625 670.15 96.15 670.154296875 96.1380859375 670.15 96.1 670.0689453125 95.8974609375 669.7 95.55 669.9857421875 95.6888671875 670.25 95.5 670.3482421875 95.4345703125 670.5 95.3 670.5376953125 95.2462890625 670.55 95.2 670.6091796875 95.1490234375 670.65 95.1 670.9 94.8 671.1 94.7
M 704.8 98.85
Q 705.479296875 98.692578125 706.1 98.55 706.618359375 98.4310546875 707.1 98.3 709.4474609375 97.816015625 710.9 97.65 712.35 97.5 715.25 97.5 716.85 97.5 717.6 97.6 719.2474609375 97.80078125 721.8 99.05 720.2328125 100.501171875 718.15 100.65
L 716.65 100.75
Q 716.15 100.85 715.45 101.1 714.45 101.5 714.25 101.55 713.4 101.85 712.15 101.95 710.85 102.15 710.25 102.15 709.85 102.15 708.7 102.05 707.7 101.95 707.1 102 706.7 102.05 705.6 102.4 705.015234375 102.5625 704.55 102.65 704.31015625 102.682421875 704.1 102.7 702.8990234375 102.5712890625 702.25 102.7 701.6 102.7 700 102.95 698.55 103.2 697.75 103.15
L 696.35 102.9 694.3 102.85
Q 694.6 102.25 694.7 101.95 694.7208984375 101.8041015625 694.7 101.7 694.8439453125 101.6501953125 694.95 101.6 696.0234375 101.186328125 697.65 100.75 698.8494140625 100.4091796875 699.95 100.1 701.66640625 99.6396484375 703.2 99.25 703.2607421875 99.234765625 703.3 99.2 704.0951171875 99.0259765625 704.8 98.85
M 725.65 100.75
L 725.65 100.8
Q 725.3876953125 100.7015625 725 100.75 724.85 100.75 723.85 101.2 720.7 102.85 717.9 103.4
L 706.95 105.55
Q 698.95 106.55 691.35 105.3 690.4751953125 105.1703125 689.9 105.2 689.8263671875 105.0580078125 689.8 104.9 689.75 104.2 690.9 103.35 691.1224609375 103.1986328125 691.3 103.05 691.55234375 102.8474609375 691.7 102.65 691.819140625 102.7126953125 691.95 102.75 692.55 102.85 692.85 102.65
L 693.25 102.3
Q 693.3080078125 102.2828125 693.35 102.25 693.24140625 102.568359375 693.2 102.9 693.1845703125 102.97734375 693.15 103.05 693.146484375 103.446484375 693.4 103.7 693.6 103.9 694.25 104
L 698.55 104.4
Q 699.7 104.4 700.05 104.3 700.25 104.3 701.1 103.9
L 701.8 103.5
Q 702.9056640625 103.62890625 703.95 103.65 705.0716796875 103.6734375 706.15 103.6 706.65 103.15 707.65 103.15 708.15 103.15 709.25 103.35 710.75 103.5 713.75 103.1 714.65 103 715.05 102.85
L 716.1 102.4
Q 717 102.05 719 102.05 720.05 101.9 721.6 101.05 722.810546875 100.4015625 723.05 99.7 723.1181640625 99.7328125 723.15 99.75 724.6759765625 100.5130859375 725.65 100.75
M 725.1 101.8
L 724.65 102.6
Q 720.6716796875 104.5328125 715.9 106.4 715.3 106.6 715.25 107 716.55 106.9 718.25 106.25 719.25 105.85 721.2 105.05 723.128125 104.3943359375 723.8 104.1
L 723.1 105.35
Q 722.15 107.15 721.5 107.75 720.4 108.8 717.7 109.7
L 712.35 111.4
Q 709.75 112.2 708.8 112.35 706.65 112.7 702.85 112.4 699.55 112.2 698.15 111.3 698.1 111.25 696.15 109.6 695.3 108.9 693.4 107.8 691.48125 106.717578125 690.6 106 690.9140625 106.1001953125 691.25 106.15 697.7 107.15 704 106.85 706.2 106.7 708.35 106.4
L 716.45 104.75
Q 718.4 104.4 719.85 103.95 722.5294921875 103.23828125 725.1 101.8
M 690.85 101.6
Q 690.85 101.65 690.85 101.7 685.27890625 101.7 679.65 101.7 680.1298828125 101.3623046875 680.75 100.85 681.345703125 100.3837890625 681.65 100.05 685.4681640625 100.059765625 689.25 100.1 692.304296875 100.1 695.35 100.1 693.4974609375 100.7595703125 692.45 101.6 691.6591796875 101.6 690.85 101.6
M 640.45 94.1
Q 640.85 93.45 641.4 92.85
L 643.25 93.65 643.7 93.7 643.7 93.75 644.05 94.1
Q 644.45 94.35 644.5 94.5
L 644.6 94.8
Q 644.6142578125 94.8712890625 644.65 94.95 644.416796875 95.283203125 644.25 95.45 643.95 95.8 643.65 95.9
L 643.3 96.05
Q 643.1 96.15 643.2 96.35 643.75 96.5 644.3 96.15
L 645.25 95.45
Q 645.45 95.45 645.5 95.3 646.20625 94.88515625 647.1 94.8 647.75 96 647.85 96.8 647.905859375 97.1541015625 647.95 97.4 643.876953125 96.83125 639.8 95.7 639.9197265625 95.293359375 640.05 94.9 640.1271484375 94.8416015625 640.15 94.75 640.311328125 94.62890625 640.25 94.45 640.3599609375 94.2689453125 640.45 94.1
M 639.5 95.55
L 639.1 95.45 639.45 95.25 639.45 95.2 639.5 95.55
M 704.1 110.7
Q 704.55 110.35 705.7 109.1
L 705.6 108.85
Q 705.35 108.9 705.05 109.2 704.15 110.25 703.75 110.5
L 703.1 111 702.75 111.45 702.3 111.7
Q 702.05 111.95 702.2 112.15 702.35 112 702.7 111.9 703.05 111.75 703.15 111.65
L 703.45 111.3
Q 703.55 111.15 704.1 110.7
M 701.7 110.1
Q 702.15 109.7 703 108.95
L 702.7 108.7 701.35 109.65
Q 701.15 109.8 700.25 110.7 700 110.95 699.95 111.15 699.85 111.45 699.95 111.6
L 700.7 111.05 701.7 110.1
M 712.05 98.55
Q 711.4 98.45 711.1 98.6
L 710.4 99
Q 710.25 99.05 709.5 99.05 708.95 99.05 708.05 99.45
L 706.2 100.2
Q 706.3 100.35 706.7 100.35 707.65 100.25 708.1 100.1
L 708.65 99.85
Q 709.3 99.65 710.75 99.75 711.2 99.05 712.45 99.25 713.85 99.45 714.35 99.25 714.6 99.15 714.55 98.95
L 712.05 98.55
M 683.3 95.1
Q 683.4 95.45 684.05 95.45 690.2708984375 95.7109375 694.15 95.45 694.7671875 95.401953125 695.3 95.35
L 701.05 94.4
Q 703.85 93.75 704.65 93.45 705.7 93.1 707.3 92.35 709.05 91.55 709.6 90.65 709.85 90.3 709.7 89.9 707.05 91.65 703.45 92.7 702.0083984375 93.15390625 700.15 93.5 699.8498046875 93.595703125 699.5 93.65 698.20078125 93.9275390625 696.7 94.15 695.556640625 94.2806640625 694.7 94.35 692.9712890625 94.55 692.5 94.55
L 684.5 94.7
Q 683.6 94.7 683.3 95.1
M 700.95 77.15
Q 700.85 77.35 700.85 77.5 701.05 79.35 701.85 82.7
L 703.45 89.45
Q 703.5 88.15 702.95 86.1
L 701.8 81.5
Q 701.1 78.6 701.15 77.1 701.05 77 700.95 77.15
M 703 79.05
L 702.8 79.1 704.8 86.4
Q 704.85 86.55 704.95 86.65 705.1 86.75 705.15 86.65
L 703 79.05
M 695.4 39.45
Q 695.8 39.25 695.7 39 694.153515625 39.491015625 692.85 39.8 691.62734375 40.0953125 690.6 40.2 690.5353515625 40.23984375 690.45 40.25 688.629296875 40.4357421875 686.5 40.1 685.8076171875 40.0169921875 685.05 39.85 684.876953125 39.919140625 684.9 40.05 684.90390625 40.123046875 684.95 40.2 685.05 40.35 685.35 40.45 686.191796875 40.7505859375 687.75 40.9 687.78125 40.9533203125 687.8 41 689.9 41.15 692 41.15 692.211328125 41.15 692.4 41.15 692.8486328125 41.121875 693.1 41.05 693.3 41 693.75 40.85
L 694.05 40.8
Q 694.2 40.8 694.2 40.6 694.1404296875 40.580078125 694.05 40.55 693.8876953125 40.5375 693.6 40.5 693.8263671875 40.4263671875 694.05 40.3 694.6453125 39.9689453125 695.4 39.45 Z"/>

<path fill="#FFFFFF" stroke="none" d="
M 639.1 95.45
L 639.5 95.55 639.45 95.2 639.45 95.25 639.1 95.45
M 662.5 89.2
Q 662.6310546875 89.0951171875 662.75 89 662.9595703125 88.8203125 663.2 88.65 662.896484375 88.7208984375 662.6 88.8
L 662.5 89.2 Z"/>

<path fill="#915A3C" stroke="none" d="
M 641.4 92.85
Q 640.85 93.45 640.45 94.1 640.3599609375 94.2689453125 640.25 94.45 640.311328125 94.62890625 640.15 94.75 640.1271484375 94.8416015625 640.05 94.9 639.9197265625 95.293359375 639.8 95.7 643.876953125 96.83125 647.95 97.4 647.905859375 97.1541015625 647.85 96.8 647.75 96 647.1 94.8 646.20625 94.88515625 645.5 95.3 645.45 95.45 645.25 95.45
L 644.3 96.15
Q 643.75 96.5 643.2 96.35 643.1 96.15 643.3 96.05
L 643.65 95.9
Q 643.95 95.8 644.25 95.45 644.416796875 95.283203125 644.65 94.95 644.6142578125 94.8712890625 644.6 94.8
L 644.5 94.5
Q 644.45 94.35 644.05 94.1
L 643.7 93.75 643.7 93.7 643.25 93.65 641.4 92.85
M 671.5 94.65
L 671.1 94.7
Q 670.9 94.8 670.65 95.1 670.6091796875 95.1490234375 670.55 95.2 670.5376953125 95.2462890625 670.5 95.3 670.3482421875 95.4345703125 670.25 95.5 669.9857421875 95.6888671875 669.7 95.55 670.0689453125 95.8974609375 670.15 96.1 670.154296875 96.1380859375 670.15 96.15 671.6666015625 95.8009765625 673.15 95.35 672.9630859375 95.044921875 673.1 94.6
L 671.5 94.65
M 662.8 95.1
Q 662.15 94.75 661.3 95
L 660.45 95.45
Q 659.7 95.75 659.55 96.2
L 659.4 96.55
Q 659.9935546875 96.8568359375 660.6 97.55 660.68125 97.6515625 660.75 97.75 662.3537109375 97.6123046875 663.95 97.35 664.5056640625 97.3111328125 665.05 97.2 666.2236328125 97.035546875 667.4 96.8 667.5986328125 96.8 667.75 96.7 668.5544921875 96.5609375 669.35 96.35
L 669.35 96.35
Q 669 96.35 668.45 95.9
L 667.65 95.25 667.6 95.2
Q 666.8716796875 95.1337890625 665.95 95.55 665.784765625 95.6736328125 665.55 95.8 665.3322265625 95.9416015625 665.05 96.1 665.2 96.4255859375 665.2 96.6 665.1 97.05 664.7 97.15
L 664.35 96.7 664.3 96.75
Q 664.224609375 96.791796875 664.15 96.8 663.774609375 96.9748046875 663.4 96.85
L 664 96.25 664 96.2
Q 663.6 95.65 663.2 95.35
L 662.8 95.1
M 666.8 92.3
Q 666.6990234375 92.334765625 666.6 92.35 666.7 92.55 666.55 92.8 666.5 92.95 666.35 93.25
L 666.25 93.85
Q 666.15 94.3 665.8 94.15 665.6931640625 93.8830078125 665.65 93.65 665.65 93.7228515625 665.65 93.8 665.65 93.9 665.65 94 665.65 94.15 665.65 94.25 665.65 94.35 665.65 94.45 665.6 94.55 665.55 94.65 665.55 94.7208984375 665.55 94.75 666.2677734375 94.296484375 667.05 94.3 667.26875 94.344921875 667.5 94.4 668.4 94.6 669.5 95.4
L 669.5 95.4 670.25 94.25
Q 670.087890625 93.640234375 669.05 92.8 668.75 92.5 668.4 92.35 667.9380859375 92.165234375 666.8 92.3
M 664 92.05
Q 663.95 92 663.9 91.9 663.13125 91.9453125 662.3 92 662.229296875 92.1138671875 662.1 92.2 662.0162109375 92.2208984375 661.95 92.2 661.95 92.311328125 661.95 92.45 661.9 92.55 661.8 92.65 661.75 92.75 661.65 92.85 661.65 92.95 661.65 93.1 661.65 93.2 661.65 93.3 661.65 93.4 661.65 93.5 661.65 93.6 661.65 93.75 661.65 93.85 661.65 93.95 661.6125 94.0251953125 661.55 94.1 662.521484375 94.10546875 662.7 94.15 663.25 94.3 663.7 94.6 664.198828125 94.90703125 664.65 95.45 664.6943359375 95.511328125 664.7 95.55
L 665.4 94.85
Q 665.175 94.8392578125 664.9 94.8
L 664.9 94.75
Q 664.95625 94.6875 665 94.6 665.05 94.5 665.15 94.4 665.15 94.25 665.15 94.15 665.15 94.1 665.15 94.05 665.15 94 665.15 93.95 665.15 93.85 665.15 93.75 665.15 93.6 665.15 93.5 665.15 93.4 665.15 93.3 665.15 93.2 665.15 93.1 665.1 92.95 665.05 92.85 664.9 92.75 664.8 92.65 664.7 92.55 664.65 92.45 664.6 92.35 664.55 92.3 664.5 92.25 664.5 92.2 664.409765625 92.18203125 664.3 92.15 664.159765625 92.1138671875 664 92.05
M 666.75 89.55
Q 666.2990234375 89.055859375 665.7 88.75 665.2919921875 88.5759765625 664.8 88.5
L 663.4 89.45
Q 662.9 89.75 662.85 90.05 662.8 90.2 662.8 90.55 662.85 90.9 662.75 91.05
L 662.6 91.2
Q 663.389453125 91.2763671875 664.1 91.35 664.191015625 91.344921875 664.25 91.35 664.4 91.4 664.5 91.5 664.7 91.55 664.9 91.65 665.05 91.75 665.15 91.85 665.2 91.95 665.3 92.05 665.4 92.15 665.5 92.3 665.6 92.4 665.7 92.5 665.7 92.6 665.65 92.7 665.65 92.85 665.65 92.95 665.65 93.0052734375 665.65 93.05 665.669140625 92.97734375 665.7 92.9
L 666.05 91.9
Q 666.2884765625 91.423046875 667.05 91.5 667.1107421875 91.4953125 667.15 91.5 668.25 91.5 668.7 91.75 668.9 91.85 669.4 92.2 670.54609375 93.108984375 670.75 93.9 670.873046875 93.873046875 670.8 93.8
L 672.85 93.9
Q 673.45 93.9 673.65 94.2
L 673.8 94.75 673.95 94.95
Q 674.03515625 95.001171875 674.05 95.05 674.1900390625 95.03515625 674.3 95 674.8 94.9 675.35 94.8 674.9 94.1 674.25 93.65 673.65 93.1 672.85 93.1
L 671.3 91 667.4 90.6
Q 667.1201171875 89.998046875 666.75 89.55
M 656.2 97.55
Q 655.8568359375 97.7625 655.55 97.95 657.5041015625 97.958984375 659.45 97.85 659.0625 97.4875 658.8 97.4 658.6 97.3 658.2 97.3 656.85 97.3 656.2 97.55
M 652.75 94.75
Q 652.4 94.4 651.6 94.4 650.3 94.4 649.65 94.6 648.925 94.78125 648.35 95.2 648.873046875 96.302734375 648.5 97.45 650.6890625 97.749609375 652.85 97.85 652.860546875 97.5173828125 652.95 97.1 653 97 653.4 96.3 653.4529296875 96.227734375 653.5 96.15 653.3 95.95 653.1 95.45 652.9 94.9 652.75 94.75
M 656 92.55
Q 655.4 92.55 655.1 92.7
L 654.8 92.85 654.25 93.05
Q 654 93.15 653.65 93.4
L 653.6 93.45
Q 653.3599609375 93.6216796875 653.2 93.7 653.1291015625 93.7865234375 653.05 93.8 653.6435546875 94.2509765625 654.15 95.3 654.17421875 95.3603515625 654.2 95.4 655.0978515625 94.626171875 656.3 94.25 656.3 94.1587890625 656.3 94
L 656.3 92.95
Q 656.18046875 92.7728515625 656 92.55
M 657.3 92.15
Q 657.1771484375 92.2115234375 657.1 92.35 657.513671875 92.8818359375 657.65 93.2 657.7912109375 93.6587890625 657.65 94 658.783984375 93.9849609375 659.9 94.45 659.35 94.8 658 94.85 656.6 94.9 656.05 95.3 655.9 95.5 655.6 95.6 654.15 96.2 653.65 97.85 653.64375 97.874609375 653.65 97.9 653.7203125 97.902734375 653.8 97.9 654.12265625 97.71953125 654.5 97.45 655.65 96.6 656.25 96.45 656.65 96.35 657.45 96.35 658.3275390625 96.2703125 658.95 96.4 658.905078125 96.1166015625 659 95.8 659.15 95.25 659.55 95 659.8 94.8 660.3 94.55
L 660.75 94.2
Q 660.8087890625 94.1607421875 660.9 94.1 660.805859375 94.105859375 660.7 94 660.8 93.6 660.55 93.3
L 659.3 92.45 658.3 92.1
Q 657.6 91.9 657.3 92.15
M 653.25 92.75
Q 653.25 92.6955078125 653.25 92.65 653.25 92.45 653.05 92.15 652.7 91.8 652.55 91.75 652.4 91.65 652 91.65 651.5 91.6 650.45 91.7 649.8 91.8 649.6 92.1 649.6 92.15 649.45 92.65
L 649.25 93.15 649.15 93.8
Q 649.15 93.8517578125 649.15 93.9 650.080859375 93.5681640625 651.65 93.5 651.996875 93.5 652.25 93.5 652.508203125 93.3662109375 653 92.95 653.1232421875 92.8404296875 653.25 92.75
M 654.3 90.55
Q 654.2734375 90.9212890625 654.05 91.1
L 653.65 91.7
Q 653.6302734375 91.7197265625 653.6 91.7 653.6318359375 91.7671875 653.65 91.8 653.7689453125 92.037890625 653.75 92.35 654.25625 92.038671875 654.7 91.9 655.3 91.75 655.8 91.8 656.2416015625 91.8 656.45 91.85 656.761328125 91.28515625 657.4 91.2 657.9 91.2 658.35 91.35 659.15 91.55 659.5 91.75
L 660.45 92.3
Q 660.8 92.5 661 92.7 661 92.6 661 92.5 661.05 92.4 661.1 92.3 661.2 92.15 661.3 92.05 661.3 91.95 661.3 91.85 661.35 91.75 661.35 91.65 661.5 91.5 661.6 91.4 661.65 91.35 661.75 91.25 661.784375 91.25 661.85 91.25 661.8654296875 91.086328125 661.9 91
L 662.1 90.45 662.15 89.8
Q 662.1791015625 89.683203125 662.25 89.55
L 660 88.15 658.9 89.05 660.15 91.35 659.35 91.45 658.15 90.3 654.3 90.55
M 654.35 89.4
L 654.55 89.5 654.7 89.45 651.95 89 650.9 90.7
Q 649.7 89.5 648.1 90.05 647.4 90.3 646.75 90.55
L 647.1 91.45 647.6 91.8
Q 647.499609375 91.824609375 647.4 91.85
L 647.7 92.15
Q 648.1 92.35 648.2 92.55
L 648.1 92.8
Q 648.05 92.85 647.65 92.7
L 647.25 92.4
Q 646.95 92.3 646.9 92.05
L 646.85 92
Q 645.415625 92.4748046875 644.25 93.35 644.401171875 93.4765625 644.55 93.7 645 94.05 645.05 94.2
L 645.1 94.4 645.15 94.45
Q 645.5703125 94.201953125 646.2 93.95 646.8 93.75 647.1 93.8 647.55 93.85 647.95 94.45 647.9857421875 94.499609375 648 94.55 648.1705078125 94.393359375 648.4 94.25 648.522265625 94.16640625 648.65 94.1 648.4654296875 93.649609375 648.55 93.1 648.55 92.95 648.8 92.05 649.15 91.2 649.45 91.05 649.7 90.9 650.5 90.9
L 651.65 90.95
Q 652.6 91.05 652.8 91.15 653.1380859375 91.2626953125 653.35 91.45 653.3724609375 91.3599609375 653.4 91.25
L 653.85 90.2 653.85 89.9
Q 653.95 89.5 654.35 89.4 Z"/>

<path fill="#D3E7EE" stroke="none" d="
M 690.85 101.7
Q 690.85 101.65 690.85 101.6 691.6591796875 101.6 692.45 101.6 693.4974609375 100.7595703125 695.35 100.1 692.304296875 100.1 689.25 100.1 685.4681640625 100.059765625 681.65 100.05 681.345703125 100.3837890625 680.75 100.85 680.1298828125 101.3623046875 679.65 101.7 685.27890625 101.7 690.85 101.7
M 683.8 22.8
Q 684.3970703125 22.9525390625 685.05 23.05 683.2 22.3775390625 683.2 21.45 683.2 20.5 685.15 19.85 685.9169921875 19.574609375 686.8 19.4 685.141015625 19.5576171875 683.8 19.9 681.45 20.5 681.45 21.35 681.45 22.2 683.8 22.8
M 681.8 23.6
Q 681.8 23.65 681.8 23.7 681.85 23.8 681.9 23.9 681.9 24.05 681.9 24.15 681.9 24.25 681.9 24.35 681.9 24.45 681.9 24.55 681.9 24.7 681.9 24.8 681.9 24.9 681.9 25 681.9 25.1 681.9 25.2 681.9 25.35 681.95 25.45 681.95 25.55 681.95 25.65 681.95 25.75 681.95 25.9 681.95 26 681.95 26.1 681.95 26.2 681.95 26.3 681.95 26.4 681.95 26.55 681.95 26.65 681.95 26.75 681.95 26.85 681.95 26.95 681.95 27.05 681.95 27.2 681.95 27.3 681.95 27.4 681.95 27.5 681.95 27.6 682 27.7 682.05 27.85 682.05 27.95 682.05 28.05 682.05 28.15 682.05 28.25 682.05 28.35 682.05 28.5 682.05 28.6 682.05 28.7 682.05 28.8 682.05 28.9 682.05 29.05 682.05 29.15 682.05 29.25 682.05 29.35 682.05 29.45 682.05 29.55 682.05 29.7 682.05 29.8 682.05 29.9 682.05 30 682.05 30.1 682.05 30.2 682.05 30.35 682.05 30.45 682.05 30.55 682.05 30.65 682.05 30.75 682.05 30.85 682.05 31 682.05 31.1 682.05 31.2 682.05 31.3 682.05 31.4 682.05 31.5 682.05 31.65 682.05 31.75 682.05 31.85 682.05 31.95 682.05 32.05 682.05 32.2 682.05 32.3 682.05 32.4 682.05 32.5 682.05 32.6 682.05 32.7 682.05 32.85 682.05 32.95 682.05 33.05 682.05 33.15 682.05 33.25 682.05 33.35 682.05 33.5 682.05 33.6 682.05 33.7 682.05 33.8 682.05 33.9 682.05 34 682.05 34.15 682.05 34.25 682.05 34.35 682.05 34.45 682.05 34.55 682.05 34.65 682.05 34.8 682.05 34.9 682.05 35 682.05 35.1 682.05 35.2 682.05 35.35 682.05 35.45 682.05 35.55 682.05 35.65 682.05 35.75 682.05 35.85 682.05 36 682.05 36.1 682.05 36.2 682.05 36.3 682.05 36.4 682.05 36.5 682.05 36.65 682.05 36.75 682.05 36.85 682.1 36.95 682.1 37.05 682.1 37.15 682.1 37.3 682.1 37.4 682.1 37.5 682.1 37.6 682.1 37.7 682.1 37.8 682.1 37.95 682.1 38.05 682.1 38.15 682.1 38.25 682.1 38.35 682.1 38.5 682.1 38.6 682.1 38.7 682.1 38.8 682.1 38.9 682.1 39 682.1 39.15 682.1 39.25 682.1 39.35 682.05 39.45 681.95 39.55 681.9 39.65 681.85 39.75
L 681.9 39.8
Q 681.85 40.1 681.8 40.4 681.65 41 681.45 41.55 678.55 50.4 675.65 59.25 670.952734375 73.29609375 666.15 87.4 666.748828125 87.7259765625 667.2 88.3
L 667.2 88.25
Q 667.25 88.1 667.3 88 667.35 87.9 667.35 87.8 667.4 87.7 667.45 87.6 667.5 87.5 667.5 87.4 667.55 87.3 667.6 87.2 667.6 87.1 667.65 87 667.7 86.85 667.75 86.75 667.75 86.7 667.8 86.6 667.85 86.5 667.85 86.4 667.9 86.25 667.95 86.15 668 86.05 668 85.95 668.05 85.9 668.1 85.8 668.15 85.65 668.15 85.55 668.2 85.45 668.25 85.35 668.25 85.25 668.3 85.1 668.35 85.05 668.4 84.95 668.4 84.85 668.45 84.75 668.5 84.65 668.55 84.5 668.55 84.4 668.6 84.3 668.65 84.25 668.65 84.15 668.7 84.05 668.75 83.9 668.8 83.8 668.8 83.7 668.85 83.6 668.9 83.5 668.9 83.45 668.95 83.3 669 83.2 669.05 83.1 669.05 83 669.1 82.9 669.15 82.8 669.2 82.65 669.2 82.6 669.25 82.5 669.3 82.4 669.3 82.3 669.35 82.15 669.4 82.05 669.45 81.95 669.45 81.85 669.5 81.8 669.55 81.7 669.6 81.55 669.6 81.45 669.65 81.35 669.7 81.25 669.7 81.15 669.75 81.05 669.8 80.95 669.85 80.85 669.85 80.75 669.9 80.65 669.95 80.55 669.95 80.45 670 80.3 670.05 80.2 670.1 80.15 670.1 80.05 670.15 79.95 670.2 79.85 670.25 79.7 670.25 79.6 670.3 79.5 670.35 79.4 670.35 79.3 670.4 79.2 670.45 79.1 670.5 79 670.5 78.9 670.55 78.8 670.6 78.7 670.65 78.55 670.65 78.5 670.7 78.4 670.75 78.3 670.75 78.2 670.8 78.1 670.85 77.95 670.9 77.85 670.9 77.75 670.95 77.65 671 77.6 671 77.5 671.05 77.35 671.1 77.25 671.15 77.15 671.15 77.05 671.2 76.95 671.25 76.85 671.3 76.75 671.3 76.65 671.35 76.55 671.4 76.45 671.4 76.35 671.45 76.2 671.5 76.1 671.55 76.05 671.55 75.95 671.6 75.85 671.65 75.75 671.7 75.6 671.7 75.5 671.75 75.4 671.8 75.3 671.8 75.2 671.85 75.15 671.9 75 671.95 74.9 671.95 74.8 672 74.7 672.05 74.6 672.05 74.5 672.1 74.4 672.15 74.3 672.2 74.2 672.2 74.1 672.25 74 672.3 73.9 672.35 73.75 672.35 73.65 672.4 73.55 672.45 73.5 672.45 73.4 672.5 73.25 672.55 73.15 672.6 73.05 672.6 72.95 672.65 72.85 672.7 72.75 672.75 72.65 672.75 72.55 672.8 72.45 672.85 72.35 672.85 72.25 672.9 72.15 672.95 72 673 71.9 673 71.85 673.05 71.75 673.1 71.65 673.1 71.55 673.15 71.4 673.2 71.3 673.25 71.2 673.25 71.1 673.3 71.05 673.35 70.9 673.4 70.8 673.4 70.7 673.45 70.6 673.5 70.5 673.5 70.4 673.55 70.25 673.6 70.2 673.65 70.1 673.65 70 673.7 69.9 673.75 69.8 673.8 69.65 673.8 69.55 673.85 69.45 673.9 69.4 673.9 69.3 673.95 69.2 674 69.05 674.05 68.95 674.05 68.85 674.1 68.75 674.15 68.65 674.15 68.6 674.2 68.45 674.25 68.35 674.3 68.25 674.3 68.15 674.35 68.05 674.4 67.9 674.45 67.8 674.45 67.75 674.5 67.65 674.55 67.55 674.55 67.45 674.6 67.3 674.65 67.2 674.7 67.1 674.7 67 674.75 66.95 674.8 66.85 674.85 66.7 674.85 66.6 674.9 66.5 674.95 66.4 674.95 66.3 675 66.2 675.05 66.1 675.1 66 675.1 65.9 675.15 65.8 675.2 65.7 675.2 65.6 675.25 65.45 675.3 65.35 675.35 65.3 675.35 65.2 675.4 65.1 675.45 64.95 675.5 64.85 675.5 64.75 675.55 64.65 675.6 64.55 675.6 64.5 675.65 64.35 675.7 64.25 675.75 64.15 675.75 64.05 675.8 63.95 675.85 63.85 675.9 63.7 675.9 63.65 675.95 63.55 676 63.45 676 63.35 676.05 63.25 676.1 63.1 676.15 63 676.15 62.9 676.2 62.85 676.25 62.75 676.25 62.65 676.3 62.5 676.35 62.4 676.4 62.3 676.4 62.2 676.45 62.1 676.5 62 676.55 61.9 676.55 61.8 676.6 61.7 676.65 61.6 676.65 61.5 676.7 61.35 676.75 61.25 676.8 61.2 676.8 61.1 676.85 61 676.95 60.95 677 60.8 677.030859375 60.7384765625 677.05 60.7
L 677 59.75
Q 677.2189453125 59.60390625 677.45 59.45 678.821484375 56.1216796875 680.2 52.9 682.3482421875 47.822265625 684.35 40 684.3990234375 40.0275390625 684.45 40 684.419921875 39.9509765625 684.4 39.85 683.859765625 38.4919921875 683.7 36.6 683.928515625 28.188671875 683.4 23.9 683.3142578125 23.8833984375 683.2 23.85 682.37890625 23.5337890625 681.8 23.15 681.8 23.2115234375 681.8 23.25 681.8 23.4 681.8 23.5 681.8 23.55 681.8 23.6
M 690.45 40.25
Q 690.5353515625 40.23984375 690.6 40.2 688.4228515625 40.1974609375 686.5 40.1 688.629296875 40.4357421875 690.45 40.25
M 690.3 41.8
L 689.5 41.9
Q 688.9 42 688 41.95 686.95 41.9 686.45 41.9 685.75 41.9 685.5 42.25 685.25 42.7 685.65 43.1 685.9 43.4 686.45 43.6 687.15 43.9 687.55 43.95 687.9 44 688.6 44
L 690 44
Q 690.85 44 691.35 43.75 691.65 43.55 691.8 43.2 691.95 42.85 691.8 42.55 691.7 42.35 691.3 42.15 690.8 41.8 690.3 41.8
M 696.8 23.7
Q 696.8 23.6470703125 696.8 23.6 696.50859375 23.725390625 696.15 23.85 695.9015625 23.95234375 695.6 24.05 694.97421875 27.16171875 694.15 33.25 693.5865234375 37.310546875 692.85 39.8 694.153515625 39.491015625 695.7 39 695.8 39.25 695.4 39.45 694.6453125 39.9689453125 694.05 40.3 693.8263671875 40.4263671875 693.6 40.5 693.8876953125 40.5375 694.05 40.55 694.1404296875 40.580078125 694.2 40.6 694.2 40.8 694.05 40.8
L 694.05 41.7
Q 693.6 42.35 693.5 43.6 693.45 44.05 693.45 45.75 693.45 48.35 693.75 49.8
L 693.95 49.95
Q 694.15 50.1 694.35 50.1 694.35 49.8 694.6 49.1 694.85 48.35 694.85 48.05 695.15 48.05 695.15 47.75 698.378125 52.98046875 700.25 59.25 700.4458984375 59.2927734375 700.65 59.35 701.04140625 59.545703125 701.45 59.8 701.5228515625 59.7771484375 701.55 59.75 701.6 59.8 701.7 59.85 701.7 59.9 701.75 60 701.75 60.05 701.8 60.15 701.9 60.2 701.95 60.3 702 60.45 702.1 60.5 702.15 60.6 702.15 60.7 702.2 60.75 702.25 60.85 702.3 61 702.3 61.1 702.35 61.2 702.4 61.3 702.4 61.4 702.45 61.5 702.5 61.6 702.55 61.7 702.55 61.8 702.6 61.9 702.65 62 702.7 62.15 702.7 62.25 702.75 62.35 702.8 62.4 702.8 62.5 702.85 62.6 702.9 62.75 702.95 62.85 702.95 62.95 703 63.05 703.05 63.15 703.05 63.2 703.1 63.35 703.15 63.45 703.2 63.55 703.2 63.65 703.25 63.75 703.3 63.85 703.35 64 703.35 64.05 703.4 64.15 703.45 64.25 703.45 64.35 703.5 64.45 703.55 64.6 703.6 64.7 703.6 64.8 703.65 64.85 703.7 64.95 703.75 65.1 703.75 65.2 703.8 65.3 703.85 65.4 703.85 65.5 703.9 65.6 703.95 65.7 704 65.8 704 65.9 704.05 66 704.1 66.1 704.1 66.2 704.15 66.35 704.2 66.45 704.25 66.5 704.25 66.6 704.3 66.7 704.35 66.8 704.4 66.95 704.4 67.05 704.45 67.15 704.5 67.25 704.5 67.3 704.55 67.4 704.6 67.55 704.65 67.65 704.65 67.75 704.7 67.85 704.75 67.95 704.8 68.1 704.8 68.15 704.85 68.25 704.9 68.35 704.9 68.45 704.95 68.55 705 68.7 705.05 68.8 705.05 68.9 705.1 68.95 705.15 69.05 705.15 69.15 705.2 69.3 705.25 69.4 705.3 69.5 705.3 69.6 705.35 69.7 705.4 69.75 705.45 69.9 705.45 70 705.5 70.1 705.55 70.2 705.55 70.3 705.6 70.4 705.65 70.55 705.7 70.6 705.7 70.7 705.75 70.8 705.8 70.9 705.85 71.05 705.85 71.15 705.9 71.25 705.95 71.35 705.95 71.4 706 71.5 706.05 71.65 706.1 71.75 706.1 71.85 706.15 71.95 706.2 72.05 706.2 72.15 706.25 72.25 706.3 72.35 706.35 72.45 706.35 72.55 706.4 72.65 706.45 72.75 706.5 72.9 706.5 73 706.55 73.05 706.6 73.15 706.6 73.25 706.65 73.4 706.7 73.5 706.75 73.6 706.75 73.7 706.8 73.8 706.85 73.9 706.9 74 706.9 74.1 706.95 74.2 707 74.3 707 74.4 707.05 74.5 707.1 74.65 707.15 74.7 707.15 74.8 707.2 74.9 707.25 75 707.25 75.1 707.3 75.25 707.35 75.35 707.4 75.45 707.4 75.55 707.45 75.6 707.5 75.7 707.55 75.85 707.55 75.95 707.6 76.05 707.65 76.15 707.65 76.25 707.7 76.35 707.75 76.45 707.8 76.55 707.8 76.65 707.85 76.75 707.9 76.85 707.95 77 707.95 77.1 708 77.15 708.05 77.25 708.05 77.35 708.1 77.45 708.15 77.6 708.2 77.7 708.2 77.8 708.25 77.9 708.3 78 708.3 78.05 708.35 78.2 708.4 78.3 708.45 78.4 708.45 78.5 708.5 78.6 708.55 78.7 708.6 78.8 708.6 78.9 708.65 79 708.7 79.1 708.7 79.2 708.75 79.35 708.8 79.45 708.85 79.55 708.85 79.65 708.9 79.7 708.95 79.8 709 79.95 709 80.05 709.05 80.15 709.1 80.25 709.1 80.35 709.15 80.45 709.2 80.55 709.25 80.65 709.25 80.75 709.3 80.85 709.35 80.95 709.35 81.05 709.4 81.2 709.45 81.3 709.5 81.35 709.5 81.45 709.55 81.55 709.6 81.65 709.65 81.8 709.65 81.9 709.7 82 709.75 82.1 709.75 82.15 709.8 82.3 709.85 82.4 709.9 82.5 709.9 82.6 709.95 82.7 710 82.8 710.05 82.95 710.05 83 710.1 83.1 710.15 83.2 710.15 83.3 710.2 83.4 710.25 83.55 710.3 83.65 710.3 83.75 710.35 83.8 710.4 83.9 710.4 84 710.45 84.15 710.5 84.25 710.55 84.35 710.55 84.45 710.6 84.55 710.65 84.6 710.7 84.75 710.7 84.85 710.75 84.95 710.8 85.05 710.8 85.15 710.85 85.3 710.9 85.4 710.95 85.45 710.95 85.55 711 85.65 711.05 85.75 711.1 85.9 711.1 86 711.15 86.1 711.2 86.2 711.2 86.25 711.25 86.35 711.3 86.5 711.35 86.6 711.35 86.7 711.4 86.8 711.45 86.9 711.45 87 711.5 87.1 711.55 87.2 711.6 87.3 711.6 87.4 711.65 87.5 711.7 87.6 711.75 87.75 711.75 87.85 711.8 87.9 711.85 88 711.85 88.1 711.9 88.25 711.95 88.35 712 88.45 712 88.55 712.05 88.65 712.1 88.7 712.15 88.85 712.15 88.95 712.2 89.05 712.25 89.15 712.25 89.25 712.3 89.35 712.35 89.5 712.4 89.55 712.4 89.65 712.45 89.75 712.5 89.85 712.5 89.95 712.55 90.1 712.6 90.2 712.65 90.3 712.65 90.35 712.6765625 90.403125 712.7 90.45 712.947265625 90.6478515625 712.65 91.2 711.5978515625 93.263671875 708.8 96.45 709.4203125 96.3400390625 710.05 96.25 710.2455078125 96.2298828125 710.45 96.2 710.4515625 95.8197265625 710.95 95.25 711.75 94.15 712.65 92.35 713.15 91.45 713.15 90.9
L 713.15 90.2
Q 713.15 89.9916015625 713.25 89.85 708.0728515625 74.519140625 702.95 59.25 700.05 50.4 697.15 41.55 696.95 41 696.8 40.4 696.75 40.1 696.7 39.8 696.730859375 39.769140625 696.75 39.7 696.6884765625 39.626953125 696.65 39.55 696.55 39.45 696.5 39.35 696.5 39.25 696.5 39.15 696.5 39 696.5 38.9 696.5 38.8 696.5 38.7 696.5 38.6 696.5 38.5 696.5 38.35 696.5 38.25 696.5 38.15 696.5 38.05 696.5 37.95 696.5 37.8 696.5 37.7 696.5 37.6 696.5 37.5 696.5 37.4 696.5 37.3 696.5 37.15 696.5 37.05 696.5 36.95 696.55 36.85 696.55 36.75 696.55 36.65 696.55 36.5 696.55 36.4 696.55 36.3 696.55 36.2 696.55 36.1 696.55 36 696.55 35.85 696.55 35.75 696.55 35.65 696.55 35.55 696.55 35.45 696.55 35.35 696.55 35.2 696.55 35.1 696.55 35 696.55 34.9 696.55 34.8 696.55 34.65 696.55 34.55 696.55 34.45 696.55 34.35 696.55 34.25 696.55 34.15 696.55 34 696.55 33.9 696.55 33.8 696.55 33.7 696.55 33.6 696.55 33.5 696.55 33.35 696.55 33.25 696.55 33.15 696.55 33.05 696.55 32.95 696.55 32.85 696.55 32.7 696.55 32.6 696.55 32.5 696.55 32.4 696.55 32.3 696.55 32.2 696.55 32.05 696.55 31.95 696.55 31.85 696.55 31.75 696.55 31.65 696.55 31.5 696.55 31.4 696.55 31.3 696.55 31.2 696.55 31.1 696.55 31 696.55 30.85 696.55 30.75 696.55 30.65 696.55 30.55 696.55 30.45 696.55 30.35 696.55 30.2 696.55 30.1 696.55 30 696.55 29.9 696.55 29.8 696.55 29.7 696.55 29.55 696.55 29.45 696.55 29.35 696.55 29.25 696.55 29.15 696.55 29.05 696.55 28.9 696.55 28.8 696.55 28.7 696.55 28.6 696.55 28.5 696.55 28.35 696.55 28.25 696.55 28.15 696.55 28.05 696.55 27.95 696.55 27.85 696.6 27.7 696.65 27.6 696.65 27.5 696.65 27.4 696.65 27.3 696.65 27.2 696.65 27.05 696.65 26.95 696.65 26.85 696.65 26.75 696.65 26.65 696.65 26.55 696.65 26.4 696.65 26.3 696.65 26.2 696.65 26.1 696.65 26 696.65 25.9 696.65 25.75 696.65 25.65 696.65 25.55 696.65 25.45 696.7 25.35 696.7 25.2 696.7 25.1 696.7 25 696.7 24.9 696.7 24.8 696.7 24.7 696.7 24.55 696.7 24.45 696.7 24.35 696.7 24.25 696.7 24.15 696.7 24.05 696.7 23.9 696.75 23.8 696.8 23.7 Z"/>

<path fill="#7097A8" stroke="none" d="
M 724.65 102.6
L 725.1 101.8
Q 722.5294921875 103.23828125 719.85 103.95 718.4 104.4 716.45 104.75
L 708.35 106.4
Q 706.2 106.7 704 106.85 697.7 107.15 691.25 106.15 690.9140625 106.1001953125 690.6 106 691.48125 106.717578125 693.4 107.8 695.3 108.9 696.15 109.6 698.1 111.25 698.15 111.3 699.55 112.2 702.85 112.4 706.65 112.7 708.8 112.35 709.75 112.2 712.35 111.4
L 717.7 109.7
Q 720.4 108.8 721.5 107.75 722.15 107.15 723.1 105.35
L 723.8 104.1
Q 723.128125 104.3943359375 721.2 105.05 719.25 105.85 718.25 106.25 716.55 106.9 715.25 107 715.3 106.6 715.9 106.4 720.6716796875 104.5328125 724.65 102.6
M 703 108.95
Q 702.15 109.7 701.7 110.1
L 700.7 111.05 699.95 111.6
Q 699.85 111.45 699.95 111.15 700 110.95 700.25 110.7 701.15 109.8 701.35 109.65
L 702.7 108.7 703 108.95
M 705.7 109.1
Q 704.55 110.35 704.1 110.7 703.55 111.15 703.45 111.3
L 703.15 111.65
Q 703.05 111.75 702.7 111.9 702.35 112 702.2 112.15 702.05 111.95 702.3 111.7
L 702.75 111.45 703.1 111 703.75 110.5
Q 704.15 110.25 705.05 109.2 705.35 108.9 705.6 108.85
L 705.7 109.1 Z"/>

<path fill="#ABD1DC" stroke="none" d="
M 725.65 100.8
L 725.65 100.75
Q 724.6759765625 100.5130859375 723.15 99.75 723.1181640625 99.7328125 723.05 99.7 722.810546875 100.4015625 721.6 101.05 720.05 101.9 719 102.05 717 102.05 716.1 102.4
L 715.05 102.85
Q 714.65 103 713.75 103.1 710.75 103.5 709.25 103.35 708.15 103.15 707.65 103.15 706.65 103.15 706.15 103.6 705.0716796875 103.6734375 703.95 103.65 702.9056640625 103.62890625 701.8 103.5
L 701.1 103.9
Q 700.25 104.3 700.05 104.3 699.7 104.4 698.55 104.4
L 694.25 104
Q 693.6 103.9 693.4 103.7 693.146484375 103.446484375 693.15 103.05 693.1845703125 102.97734375 693.2 102.9 693.24140625 102.568359375 693.35 102.25 693.3080078125 102.2828125 693.25 102.3
L 692.85 102.65
Q 692.55 102.85 691.95 102.75 691.819140625 102.7126953125 691.7 102.65 691.55234375 102.8474609375 691.3 103.05 691.1224609375 103.1986328125 690.9 103.35 689.75 104.2 689.8 104.9 689.8263671875 105.0580078125 689.9 105.2 690.4751953125 105.1703125 691.35 105.3 698.95 106.55 706.95 105.55
L 717.9 103.4
Q 720.7 102.85 723.85 101.2 724.85 100.75 725 100.75 725.3876953125 100.7015625 725.65 100.8
M 690.85 24.8
Q 690.2884765625 24.85 689.7 24.85 689.241796875 24.85 688.8 24.8 685.6998046875 24.733203125 683.4 23.9 683.928515625 28.188671875 683.7 36.6 683.859765625 38.4919921875 684.4 39.85 684.419921875 39.9509765625 684.45 40 684.3990234375 40.0275390625 684.35 40 682.3482421875 47.822265625 680.2 52.9 678.821484375 56.1216796875 677.45 59.45 677.85546875 59.2587890625 678.3 59.1 678.9154296875 58.7685546875 679.6 58.6 679.9560546875 57.8193359375 680.35 56.9 682.3 52.55 683.8 48.05 684.35 46.15 684.4 45.5 684.45 45.4 684.6 45.5 684.7 45.65 684.7 45.8 684.75 46.6 684.25 48.2 682.7 52.8 680.3 58.25 680.2353515625 58.3916015625 680.15 58.5 680.9361328125 58.4146484375 681.7 58.3 681.76484375 58.2892578125 681.8 58.25 682.2966796875 57.5251953125 682.8 56.95 682.4287109375 57.531640625 682.05 58.25 682.4916015625 58.1705078125 682.95 58.1 691.6912109375 56.9279296875 700.25 59.25 698.378125 52.98046875 695.15 47.75 695.15 48.05 694.85 48.05 694.85 48.35 694.6 49.1 694.35 49.8 694.35 50.1 694.15 50.1 693.95 49.95
L 693.75 49.8
Q 693.45 48.35 693.45 45.75 693.45 44.05 693.5 43.6 693.6 42.35 694.05 41.7
L 694.05 40.8 693.75 40.85
Q 693.3 41 693.1 41.05 692.8486328125 41.121875 692.4 41.15 692.211328125 41.15 692 41.15 689.9 41.15 687.8 41 687.78125 40.9533203125 687.75 40.9 686.191796875 40.7505859375 685.35 40.45 685.05 40.35 684.95 40.2 684.90390625 40.123046875 684.9 40.05 684.876953125 39.919140625 685.05 39.85 685.8076171875 40.0169921875 686.5 40.1 688.4228515625 40.1974609375 690.6 40.2 691.62734375 40.0953125 692.85 39.8 693.5865234375 37.310546875 694.15 33.25 694.97421875 27.16171875 695.6 24.05 693.5435546875 24.7107421875 690.85 24.8
M 689.5 41.9
L 690.3 41.8
Q 690.8 41.8 691.3 42.15 691.7 42.35 691.8 42.55 691.95 42.85 691.8 43.2 691.65 43.55 691.35 43.75 690.85 44 690 44
L 688.6 44
Q 687.9 44 687.55 43.95 687.15 43.9 686.45 43.6 685.9 43.4 685.65 43.1 685.25 42.7 685.5 42.25 685.75 41.9 686.45 41.9 686.95 41.9 688 41.95 688.9 42 689.5 41.9
M 695.55 21.45
Q 695.55 20.85 693.85 20.4 692.15 19.95 689.75 19.95 687.35 19.95 685.65 20.4 683.95 20.85 683.95 21.45 683.95 22.05 685.65 22.5 687.35 22.95 689.75 22.95 692.15 22.95 693.85 22.5 695.55 22.05 695.55 21.45 Z"/>

<path fill="#E3C5AB" stroke="none" d="
M 706.1 98.55
Q 705.479296875 98.692578125 704.8 98.85 704.0951171875 99.0259765625 703.3 99.2 703.2607421875 99.234765625 703.2 99.25 701.66640625 99.6396484375 699.95 100.1 698.8494140625 100.4091796875 697.65 100.75 696.0234375 101.186328125 694.95 101.6 694.8439453125 101.6501953125 694.7 101.7 694.7208984375 101.8041015625 694.7 101.95 694.6 102.25 694.3 102.85
L 696.35 102.9 697.75 103.15
Q 698.55 103.2 700 102.95 701.6 102.7 702.25 102.7 702.8990234375 102.5712890625 704.1 102.7 704.31015625 102.682421875 704.55 102.65 705.015234375 102.5625 705.6 102.4 706.7 102.05 707.1 102 707.7 101.95 708.7 102.05 709.85 102.15 710.25 102.15 710.85 102.15 712.15 101.95 713.4 101.85 714.25 101.55 714.45 101.5 715.45 101.1 716.15 100.85 716.65 100.75
L 718.15 100.65
Q 720.2328125 100.501171875 721.8 99.05 719.2474609375 97.80078125 717.6 97.6 716.85 97.5 715.25 97.5 712.35 97.5 710.9 97.65 709.4474609375 97.816015625 707.1 98.3 706.618359375 98.4310546875 706.1 98.55
M 711.1 98.6
Q 711.4 98.45 712.05 98.55
L 714.55 98.95
Q 714.6 99.15 714.35 99.25 713.85 99.45 712.45 99.25 711.2 99.05 710.75 99.75 709.3 99.65 708.65 99.85
L 708.1 100.1
Q 707.65 100.25 706.7 100.35 706.3 100.35 706.2 100.2
L 708.05 99.45
Q 708.95 99.05 709.5 99.05 710.25 99.05 710.4 99
L 711.1 98.6 Z"/>

<path fill="#94919F" stroke="none" d="
M 656.65 104.25
L 656.45 104.2
Q 655.0142578125 104.168359375 652.7 104 650.815234375 103.9599609375 648.9 103.8 648.85625 103.89375 648.75 104
L 645.3 107.75
Q 644.8470703125 108.2376953125 644.55 108.65 646.5845703125 109.52578125 649.85 110.15 653.95 110.95 657.1 111.2 657.2103515625 111.20703125 657.3 111.2 654.9 108.71796875 654.9 108.15 654.9 107.76796875 658.25 104.3
L 657.25 104.25 656.65 104.25 Z"/>

<path fill="#CECDCB" stroke="none" d="
M 657.25 104.25
Q 657.109765625 104.2646484375 656.95 104.25 656.8005859375 104.244921875 656.65 104.25
L 657.25 104.25
M 664.5 98.8
Q 663.966015625 98.87265625 663.4 98.9 650.883984375 100.4048828125 638.55 96.25
L 638.55 95.85 638.3 96.05 637.75 96.85
Q 637.4 96.9 637.2 96.5 637.14375 96.3876953125 637.1 96.15 636.13359375 96.37890625 635.4 97.25 634.9701171875 97.775390625 635 98.3
L 635.05 98.3
Q 637.35 98.6 641.8 99.75 643.9 100.15 646.9 100.35 648.6 100.45 652 100.6 654.4 100.7 659.2 101 661.0509765625 101.0861328125 662.65 101.1 663.161328125 101.122265625 663.65 101.1 665.180078125 101.14296875 666.45 101.1 674.85 100.65 680.15 97.15 680.5 97.7 679.65 98.25 678.7728515625 98.893359375 677.75 99.4 677.5330078125 99.569921875 677.25 99.7 672.420703125 102.1 664.95 102.1 664.187890625 102.1150390625 663.3 102.1 662.8318359375 102.0939453125 662.3 102.05 661.4638671875 102.0525390625 660.55 102 659.7068359375 101.962890625 658.8 101.9 656.15 101.8 650.85 101.5 646.3 101.3 643.4 100.85 640.6021484375 100.4302734375 635.25 98.8 635.4919921875 99.0896484375 635.85 99.4 636.5904296875 99.9833984375 637.1 100.45 637.2341796875 100.505859375 637.35 100.55 637.475 100.602734375 637.6 100.65
L 639 101.05
Q 639.8107421875 101.2166015625 640.85 101.4
L 643.2 101.75
Q 646.45 102.2 652.85 102.7 657.180078125 102.9650390625 659.6 102.9 659.9591796875 102.91171875 660.25 102.9 661.27109375 102.853515625 662.05 102.8 662.624609375 102.81015625 663.05 102.8 663.928515625 102.8041015625 664.25 102.85 664.1 103.35 663.1 103.65 662.909765625 103.710546875 662.7 103.75 662.172265625 103.92734375 661.6 104.05 660.231640625 104.3326171875 658.8 104.35 668.35 106.25 676.95 101.75 678.05 101.15 679.1 100.6 679.22578125 100.5025390625 679.35 100.4 679.5673828125 100.2208984375 679.75 100.05 680.1525390625 99.66953125 680.4 99.3 681.05 98.466015625 681.05 97.65 681.1 95.85 678.55 94.5 677.3630859375 93.960546875 676.1 93.65
L 676.75 95.8
Q 670.5994140625 97.961328125 664.5 98.8 Z"/>

<path fill="#BCB7B3" stroke="none" d="
M 671.3 108.5
Q 674.7 106.6 676.7 103.75 676.9962890625 103.3154296875 677.25 103 677.3232421875 102.8931640625 677.4 102.8 677.2462890625 102.808203125 677.1 102.8 677.3427734375 102.23359375 677.85 101.7 677.96640625 101.5740234375 678.1 101.45 678.1892578125 101.3607421875 679.1 100.6 678.05 101.15 676.95 101.75 668.35 106.25 658.8 104.35
L 658.25 104.3
Q 654.9 107.76796875 654.9 108.15 654.9 108.71796875 657.3 111.2 661.1421875 111.433203125 664.35 110.85 668.15 110.2 671.3 108.5 Z"/>

<path fill="#B78B58" stroke="none" d="
M 681.6 59.1
Q 681.0115234375 60.358984375 680.4 61.9 684.456640625 62.8271484375 688.6 62.9 694.028515625 63.0119140625 699.6 61.65 700.1 61.5 700.6 61.15
L 700.35 60.25
Q 691.094140625 57.6763671875 681.6 59.1
M 685.4 91.25
Q 685.55 92 686.9 92
L 692.35 92.05
Q 695.15 92.05 696.5 91.75 698.8 91.25 700.05 89.65 700.45 89.15 700.3 88.7 700.1 88.25 699.25 88.15 697.4 87.9 694.1 88.5 690.5 89.1 688.9 89.05 687.05 89.05 686.55 89.4 686.2 89.65 685.7 90.35 685.35 90.9 685.4 91.25
M 683.45 91.05
Q 683.8 90.9 683.85 90.6 683.35 90.1 683 89.95 682.85 89.85 682.45 89.85
L 682.35 89.9
Q 682.05 89.8 681.95 90.15 681.9 90.25 681.9 90.7 681.9 90.95 682 91
L 682.2 91.15
Q 682.45 91.4 682.5 91.4 682.65 91.5 683.05 91.5 683.1 91.3 683.45 91.05
M 678.4 61.4
Q 678.7501953125 60.65078125 679.2 59.6
L 678.2 59.95 677.7 60.6 677.7 60.65 677.65 60.95
Q 677.6822265625 60.9966796875 677.7 61.05 677.7 61.1384765625 677.65 61.2 678.0529296875 61.312890625 678.4 61.4
M 679.75 59.45
Q 679.2169921875 60.643359375 678.85 61.5 679.506640625 61.701953125 680.15 61.85 680.707421875 60.352734375 681.3 59.15 680.5345703125 59.3072265625 679.75 59.45 Z"/>

<path fill="#8E5336" stroke="none" d="
M 680.35 93.9
Q 681.5353515625 94.6953125 681.95 95.6 682.3 96.4 682.3 98.15 682.3 98.6236328125 682.25 98.95 682.217578125 99.1529296875 682.15 99.3 685.71796875 99.3 689.25 99.3
L 689.25 99.25
Q 693.565625 99.25 697.85 99.25 698.85390625 98.933203125 699.8 98.65 698.8244140625 98.4455078125 697.65 98.2 691.65 97 691.1 96.15 691.664453125 96.15 694.15 95.45 690.2708984375 95.7109375 684.05 95.45 683.4 95.45 683.3 95.1 683.6 94.7 684.5 94.7
L 692.5 94.55
Q 692.9712890625 94.55 694.7 94.35 693.30390625 94.4 688.95 94.4 683.1044921875 94.4 680.35 93.9
M 677.25 62.75
Q 677.2 62.85 677.15 63 677.15 63.1 677.1 63.2 677.05 63.25 677.05 63.35 677 63.45 676.95 63.6 676.9 63.7 676.9 63.8 676.85 63.9 676.8 64 676.8 64.05 676.75 64.2 676.7 64.3 676.65 64.4 676.65 64.5 676.6 64.6 676.55 64.7 676.5 64.85 676.5 64.9 676.45 65 676.4 65.1 676.4 65.2 676.35 65.3 676.3 65.45 676.25 65.55 676.25 65.65 676.2 65.7 676.15 65.8 676.1 65.95 676.1 66.05 676.05 66.15 676 66.25 676 66.35 675.95 66.45 675.9 66.55 675.85 66.65 675.85 66.75 675.8 66.85 675.75 66.95 675.75 67.05 675.7 67.2 675.65 67.3 675.6 67.35 675.6 67.45 675.55 67.55 675.5 67.65 675.45 67.8 675.45 67.9 675.4 68 675.35 68.1 675.35 68.15 675.3 68.25 675.25 68.4 675.2 68.5 675.2 68.6 675.15 68.7 675.1 68.8 675.05 68.95 675.05 69 675 69.1 674.95 69.2 674.95 69.3 674.9 69.4 674.85 69.55 674.8 69.65 674.8 69.75 674.75 69.8 674.7 69.9 674.7 70 674.65 70.15 674.6 70.25 674.55 70.35 674.55 70.45 674.5 70.55 674.45 70.6 674.4 70.75 674.4 70.85 674.35 70.95 674.3 71.05 674.3 71.15 674.25 71.25 674.2 71.4 674.15 71.45 674.15 71.55 674.1 71.65 674.05 71.75 674 71.9 674 72 673.95 72.1 673.9 72.2 673.9 72.25 673.85 72.35 673.8 72.5 673.75 72.6 673.75 72.7 673.7 72.8 673.65 72.9 673.65 73 673.6 73.1 673.55 73.2 673.5 73.3 673.5 73.4 673.45 73.5 673.4 73.6 673.35 73.75 673.35 73.85 673.3 73.9 673.25 74 673.25 74.1 673.2 74.25 673.15 74.35 673.1 74.45 673.1 74.55 673.05 74.65 673 74.75 672.95 74.85 672.95 74.95 672.9 75.05 672.85 75.15 672.85 75.25 672.8 75.35 672.75 75.5 672.7 75.55 672.7 75.65 672.65 75.75 672.6 75.85 672.6 75.95 672.55 76.1 672.5 76.2 672.45 76.3 672.45 76.4 672.4 76.45 672.35 76.55 672.3 76.7 672.3 76.8 672.25 76.9 672.2 77 672.2 77.1 672.15 77.2 672.1 77.3 672.05 77.4 672.05 77.5 672 77.6 671.95 77.7 671.9 77.85 671.9 77.95 671.85 78 671.8 78.1 671.8 78.2 671.75 78.3 671.7 78.45 671.65 78.55 671.65 78.65 671.6 78.75 671.55 78.85 671.55 78.9 671.5 79.05 671.45 79.15 671.4 79.25 671.4 79.35 671.35 79.45 671.3 79.55 671.25 79.65 671.25 79.75 671.2 79.85 671.15 79.95 671.15 80.05 671.1 80.2 671.05 80.3 671 80.4 671 80.5 670.95 80.55 670.9 80.65 670.85 80.8 670.85 80.9 670.8 81 670.75 81.1 670.75 81.2 670.7 81.3 670.65 81.4 670.6 81.5 670.6 81.6 670.55 81.7 670.5 81.8 670.5 81.9 670.45 82.05 670.4 82.15 670.35 82.2 670.35 82.3 670.3 82.4 670.25 82.5 670.2 82.65 670.2 82.75 670.15 82.85 670.1 82.95 670.1 83 670.05 83.15 670 83.25 669.95 83.35 669.95 83.45 669.9 83.55 669.85 83.65 669.8 83.8 669.8 83.85 669.75 83.95 669.7 84.05 669.7 84.15 669.65 84.25 669.6 84.4 669.55 84.5 669.55 84.6 669.5 84.65 669.45 84.75 669.45 84.85 669.4 85 669.35 85.1 669.3 85.2 669.3 85.3 669.25 85.4 669.2 85.45 669.15 85.6 669.15 85.7 669.1 85.8 669.05 85.9 669.05 86 669 86.15 668.95 86.25 668.9 86.3 668.9 86.4 668.85 86.5 668.8 86.6 668.75 86.75 668.75 86.85 668.7 86.95 668.65 87.05 668.65 87.1 668.6 87.2 668.55 87.35 668.5 87.45 668.5 87.55 668.45 87.65 668.4 87.75 668.4 87.85 668.35 87.95 668.3 88.05 668.25 88.15 668.25 88.25 668.2 88.35 668.15 88.45 668.1 88.6 668.1 88.7 668.05 88.75 668 88.85 668 88.95 667.95 89.1 667.9 89.2 667.85 89.3 667.85 89.4 667.908203125 89.562109375 667.95 89.75
L 671.75 89.7 671.75 89.75
Q 672.8083984375 88.226953125 673.05 84.7 673.35 79.75 673.85 77.85 675.9154296875 69.5880859375 686.8 63.8 684.2552734375 63.529296875 681.65 63.5 680.773046875 63.425390625 679.9 63.2 679.8384765625 63.448828125 679.75 63.7 677.95 69.05 677.15 70.7 676.95 70.4 677.3 69.7 678.0955078125 68.2580078125 679.7 63.15 679.0396484375 62.9625 678.35 62.65 678.27578125 62.937890625 678.2 63.15 677.6 64.85 677.15 66.5
L 675.75 71.1
Q 675.45 71.95 675.1 72.2
L 676.3 67.9
Q 677.05 65.1 677.6 63.5 677.704296875 63.2021484375 677.95 62.5 677.716796875 62.37109375 677.45 62.2 677.4291015625 62.2919921875 677.4 62.35 677.35 62.45 677.3 62.55 677.3 62.65 677.25 62.75 Z"/>

<path fill="#9D7040" stroke="none" d="
M 673.85 77.85
Q 673.35 79.75 673.05 84.7 672.8083984375 88.226953125 671.75 89.75
L 671.8 89.8 673.05 91.75 674.9 92.55
Q 674.954296875 92.5576171875 675 92.55 676.133984375 92.3173828125 677.45 92.65 678.4330078125 92.9060546875 679.5 93.45 679.9677734375 93.6837890625 680.35 93.9 683.1044921875 94.4 688.95 94.4 693.30390625 94.4 694.7 94.35 695.556640625 94.2806640625 696.7 94.15 698.20078125 93.9275390625 699.5 93.65 699.8498046875 93.595703125 700.15 93.5 702.0083984375 93.15390625 703.45 92.7 707.05 91.65 709.7 89.9 709.85 90.3 709.6 90.65 709.05 91.55 707.3 92.35 705.7 93.1 704.65 93.45 703.85 93.75 701.05 94.4
L 695.3 95.35
Q 694.7671875 95.401953125 694.15 95.45 691.664453125 96.15 691.1 96.15 691.65 97 697.65 98.2 698.8244140625 98.4455078125 699.8 98.65 703.2681640625 97.6056640625 706.7 96.85 707.0337890625 96.776953125 707.35 96.7 708.0203125 96.0150390625 708.7 95.15
L 711.9 91.2
Q 711.916015625 91.1818359375 711.9 91.15 711.9 91.05 711.85 90.9 711.8 90.8 711.75 90.7 711.75 90.65 711.7 90.55 711.65 90.45 711.6 90.3 711.6 90.2 711.55 90.1 711.5 90 711.5 89.9 711.45 89.85 711.4 89.7 711.35 89.6 711.35 89.5 711.3 89.4 711.25 89.3 711.25 89.2 711.2 89.05 711.15 89 711.1 88.9 711.1 88.8 711.05 88.7 711 88.6 710.95 88.45 710.95 88.35 710.9 88.25 710.85 88.2 710.85 88.1 710.8 87.95 710.75 87.85 710.7 87.75 710.7 87.65 710.65 87.55 710.6 87.45 710.55 87.35 710.55 87.25 710.5 87.15 710.45 87.05 710.45 86.95 710.4 86.85 710.35 86.7 710.3 86.6 710.3 86.55 710.25 86.45 710.2 86.35 710.2 86.25 710.15 86.1 710.1 86 710.05 85.9 710.05 85.8 710 85.75 709.95 85.65 709.9 85.5 709.9 85.4 709.85 85.3 709.8 85.2 709.8 85.1 709.75 84.95 709.7 84.9 709.65 84.8 709.65 84.7 709.6 84.6 709.55 84.5 709.5 84.35 709.5 84.25 709.45 84.15 709.4 84.1 709.4 84 709.35 83.9 709.3 83.75 709.25 83.65 709.25 83.55 709.2 83.45 709.15 83.35 709.15 83.3 709.1 83.15 709.05 83.05 709 82.95 709 82.85 708.95 82.75 708.9 82.65 708.85 82.5 708.85 82.45 708.8 82.35 708.75 82.25 708.75 82.15 708.7 82 708.65 81.9 708.6 81.8 708.6 81.7 708.55 81.65 708.5 81.55 708.45 81.4 708.45 81.3 708.4 81.2 708.35 81.1 708.35 81 708.3 80.9 708.25 80.8 708.2 80.7 708.2 80.6 708.15 80.5 708.1 80.4 708.1 80.3 708.05 80.15 708 80.05 707.95 80 707.95 79.9 707.9 79.8 707.85 79.7 707.8 79.55 707.8 79.45 707.75 79.35 707.7 79.25 707.7 79.15 707.65 79.05 707.6 78.95 707.55 78.85 707.55 78.75 707.5 78.65 707.45 78.55 707.4 78.4 707.4 78.35 707.35 78.25 707.3 78.15 707.3 78.05 707.25 77.95 707.2 77.8 707.15 77.7 707.15 77.6 707.1 77.5 707.05 77.45 707.05 77.35 707 77.2 706.95 77.1 706.9 77 706.9 76.9 706.85 76.8 706.8 76.7 706.75 76.6 706.75 76.5 706.7 76.4 706.65 76.3 706.65 76.2 706.6 76.05 706.55 75.95 706.5 75.9 706.5 75.8 706.45 75.7 706.4 75.6 706.35 75.45 706.35 75.35 706.3 75.25 706.25 75.15 706.25 75.05 706.2 75 706.15 74.85 706.1 74.75 706.1 74.65 706.05 74.55 706 74.45 706 74.35 705.95 74.25 705.9 74.15 705.85 74.05 705.85 73.95 705.8 73.85 705.75 73.75 705.7 73.6 705.7 73.5 705.65 73.4 705.6 73.35 705.6 73.25 705.55 73.1 705.5 73 705.45 72.9 705.45 72.8 705.4 72.7 705.35 72.6 705.3 72.5 705.3 72.4 705.25 72.3 705.2 72.2 705.2 72.1 705.15 72 705.1 71.85 705.05 71.75 705.05 71.7 705 71.6 704.95 71.5 704.95 71.4 704.9 71.25 704.85 71.15 704.8 71.05 704.8 70.95 704.75 70.9 704.7 70.75 704.65 70.65 704.65 70.55 704.6 70.45 704.55 70.35 704.55 70.25 704.5 70.1 704.45 70.05 704.4 69.95 704.4 69.85 704.35 69.75 704.3 69.65 704.25 69.5 704.25 69.4 704.2 69.3 704.15 69.25 704.15 69.15 704.1 69.05 704.05 68.9 704 68.8 704 68.7 703.95 68.6 703.9 68.5 703.9 68.45 703.85 68.3 703.8 68.2 703.75 68.1 703.75 68 703.7 67.9 703.65 67.75 703.6 67.65 703.6 67.6 703.55 67.5 703.5 67.4 703.5 67.3 703.45 67.15 703.4 67.05 703.35 66.95 703.35 66.85 703.3 66.8 703.25 66.7 703.2 66.55 703.2 66.45 703.15 66.35 703.1 66.25 703.1 66.15 703.05 66.05 703 65.95 702.95 65.85 702.95 65.75 702.9 65.65 702.85 65.55 702.85 65.45 702.8 65.3 702.75 65.2 702.7 65.15 702.7 65.05 702.65 64.95 702.6 64.8 702.55 64.7 702.55 64.6 702.5 64.5 702.45 64.4 702.45 64.35 702.4 64.2 702.35 64.1 702.3 64 702.3 63.9 702.25 63.8 702.2 63.7 702.15 63.55 702.15 63.5 702.1 63.4 702.05 63.3 702.05 63.2 702 63.1 701.95 62.95 701.9 62.85 701.9 62.75 701.85 62.7 701.8 62.6 701.8 62.5 701.75 62.35 701.7 62.25 701.65 62.15 701.65 62.05 701.6 61.95 701.55 61.85 701.5 61.75 701.5 61.65 701.45 61.55 701.4 61.45 701.4 61.36015625 701.35 61.2 701.1271484375 61.4513671875 700.9 61.65 697.0845703125 65.09609375 690.45 64.3 688.6466796875 63.9890625 686.8 63.8 675.9154296875 69.5880859375 673.85 77.85
M 683.85 90.6
Q 683.8 90.9 683.45 91.05 683.1 91.3 683.05 91.5 682.65 91.5 682.5 91.4 682.45 91.4 682.2 91.15
L 682 91
Q 681.9 90.95 681.9 90.7 681.9 90.25 681.95 90.15 682.05 89.8 682.35 89.9
L 682.45 89.85
Q 682.85 89.85 683 89.95 683.35 90.1 683.85 90.6
M 686.9 92
Q 685.55 92 685.4 91.25 685.35 90.9 685.7 90.35 686.2 89.65 686.55 89.4 687.05 89.05 688.9 89.05 690.5 89.1 694.1 88.5 697.4 87.9 699.25 88.15 700.1 88.25 700.3 88.7 700.45 89.15 700.05 89.65 698.8 91.25 696.5 91.75 695.15 92.05 692.35 92.05
L 686.9 92
M 702.8 79.1
L 703 79.05 705.15 86.65
Q 705.1 86.75 704.95 86.65 704.85 86.55 704.8 86.4
L 702.8 79.1
M 700.85 77.5
Q 700.85 77.35 700.95 77.15 701.05 77 701.15 77.1 701.1 78.6 701.8 81.5
L 702.95 86.1
Q 703.5 88.15 703.45 89.45
L 701.85 82.7
Q 701.05 79.35 700.85 77.5 Z"/>
</g>

<g id="Layer0_0_MEMBER_3_FILL">
<path fill="#3B3D35" stroke="none" d="
M 685.25 138.85
Q 685.15 138.9 685.1 139.05
L 684.8 140.85 683.7 141.05 683.7 141.65
Q 683.7 141.8 683.8 141.9 683.9 142 684.05 142
L 684.7 142 684.7 145.7
Q 684.7 146.55 685.15 147 685.6 147.5 686.5 147.5 686.95 147.5 687.4 147.35 687.85 147.2 688.2 146.9
L 687.75 146.15 687.65 146.05 687.5 146 687.1 146.2 686.85 146.25
Q 686.6 146.25 686.45 146.05 686.3 145.85 686.3 145.55
L 686.3 142 688.05 142 688.05 140.85 686.3 140.85 686.3 138.8 685.45 138.8
Q 685.35 138.8 685.25 138.85
M 677.7 141.7
L 677.95 142.25 678.15 142.45
Q 678.25 142.5 678.45 142.5 678.65 142.5 678.8 142.45
L 679.6 142.05
Q 679.85 141.95 680.2 141.95 680.75 141.95 681.05 142.25 681.3 142.55 681.3 143.25
L 681.3 143.6
Q 680.55 143.65 680 143.75 679.4 143.85 678.95 143.95 678.5 144.1 678.2 144.3 677.9 144.5 677.7 144.75 677.55 144.95 677.45 145.2 677.35 145.45 677.35 145.7 677.35 146.15 677.5 146.5 677.65 146.85 677.9 147.05 678.15 147.3 678.5 147.4 678.85 147.5 679.3 147.5
L 679.95 147.45 681 147 681.45 146.6 681.6 147.05
Q 681.7 147.25 681.8 147.35 681.9 147.4 682.15 147.4
L 682.85 147.4 682.85 143.25
Q 682.85 142.65 682.7 142.2 682.55 141.75 682.2 141.4 681.9 141.05 681.45 140.85 681 140.7 680.4 140.7 678.8 140.7 677.7 141.7
M 679.4 144.95
Q 679.7 144.8 680.15 144.7 680.65 144.6 681.3 144.6
L 681.3 145.7
Q 681 146.05 680.6 146.25 680.25 146.4 679.75 146.4 679.4 146.4 679.15 146.25 678.9 146.05 678.9 145.65 678.9 145.4 679 145.25 679.15 145.05 679.4 144.95
M 674.55 141.95
L 674.45 141.2
Q 674.4 141 674.3 140.9 674.2 140.8 673.95 140.8
L 673.05 140.8 673.05 147.4 674.6 147.4 674.6 143.35 674.85 142.85 675.15 142.5
Q 675.3 142.35 675.5 142.3 675.7 142.2 676 142.2
L 676.65 142.3 676.8 142.25 676.9 142.05 677 140.9
Q 676.75 140.7 676.25 140.7 675.7 140.7 675.25 141 674.85 141.35 674.55 141.95
M 667.4 140.8
L 665.9 140.8
Q 665.7 140.8 665.55 141.05
L 664.45 142.8 664.25 143.2 662.85 141 662.7 140.85 662.45 140.8 660.95 140.8 663.1 144 660.85 147.4 662.25 147.4
Q 662.4 147.4 662.5 147.3
L 662.7 147.1 663.95 145.2 664 145 664.1 144.8 665.5 147.1 665.65 147.3
Q 665.75 147.4 665.95 147.4
L 667.45 147.4 665.2 143.95 667.4 140.8
M 667.7 141.05
L 667.7 141.65
Q 667.7 141.8 667.8 141.9 667.9 142 668.05 142
L 668.7 142 668.7 145.7
Q 668.7 146.55 669.15 147 669.6 147.5 670.5 147.5 670.95 147.5 671.4 147.35 671.85 147.2 672.2 146.9
L 671.75 146.15 671.65 146.05 671.5 146 671.1 146.2 670.85 146.25
Q 670.6 146.25 670.45 146.05 670.3 145.85 670.3 145.55
L 670.3 142 672.05 142 672.05 140.85 670.3 140.85 670.3 138.8 669.45 138.8
Q 669.35 138.8 669.25 138.85 669.15 138.9 669.1 139.05
L 668.8 140.85 667.7 141.05
M 654.45 138.1
L 654.45 147.4 660.3 147.4 660.3 146 656.15 146 656.15 143.4 659.4 143.4 659.4 142.05 656.15 142.05 656.15 139.5 660.3 139.5 660.3 138.1 654.45 138.1
M 727.95 140.7
Q 727.2 140.7 726.6 140.95 726 141.2 725.55 141.6 725.15 142.05 724.9 142.7 724.7 143.3 724.7 144.1 724.7 144.9 724.9 145.5 725.15 146.15 725.55 146.6 726 147 726.6 147.25 727.2 147.5 727.95 147.5 728.7 147.5 729.3 147.25 729.9 147 730.3 146.6 730.75 146.15 730.95 145.5 731.2 144.9 731.2 144.1 731.2 143.3 730.95 142.7 730.75 142.05 730.3 141.6 729.9 141.2 729.3 140.95 728.7 140.7 727.95 140.7
M 726.7 145.7
Q 726.3 145.15 726.3 144.1 726.3 143.05 726.7 142.5 727.1 141.9 727.95 141.9 728.8 141.9 729.15 142.5 729.55 143.05 729.55 144.1 729.55 145.15 729.15 145.7 728.8 146.3 727.95 146.3 727.1 146.3 726.7 145.7
M 717.6 142.75
Q 717.4 143.4 717.4 144.1 717.4 144.95 717.55 145.55 717.75 146.2 718.05 146.6 718.4 147.05 718.85 147.25 719.3 147.5 719.85 147.5 720.5 147.5 721.05 147.2 721.55 146.95 721.95 146.5
L 722.1 147.1
Q 722.15 147.4 722.5 147.4
L 723.45 147.4 723.45 137.85 721.85 137.85 721.85 141.3
Q 721.55 141.05 721.2 140.85 720.8 140.7 720.25 140.7 719.6 140.7 719.05 140.95 718.55 141.2 718.15 141.65 717.8 142.15 717.6 142.75
M 720.6 141.9
Q 720.95 141.9 721.3 142.05 721.6 142.15 721.85 142.5
L 721.85 145.45
Q 721.55 145.8 721.2 146.05 720.85 146.25 720.4 146.25 720.05 146.25 719.8 146.15 719.55 146 719.4 145.75 719.2 145.5 719.15 145.1 719.05 144.7 719.05 144.1 719.05 143.55 719.15 143.15 719.25 142.7 719.45 142.45 719.65 142.15 719.95 142.05 720.25 141.9 720.6 141.9
M 716.2 140.8
L 714.6 140.8 714.6 147.4 716.2 147.4 716.2 140.8
M 716.3 138.5
L 716.1 138.15 715.75 137.95
Q 715.6 137.85 715.35 137.85 715.15 137.85 715 137.95
L 714.65 138.15 714.45 138.5
Q 714.35 138.65 714.35 138.9 714.35 139.1 714.45 139.25
L 714.65 139.6 715 139.8
Q 715.15 139.9 715.35 139.9 715.6 139.9 715.75 139.8
L 716.1 139.6 716.3 139.25
Q 716.4 139.1 716.4 138.9 716.4 138.65 716.3 138.5
M 707.2 145
Q 707.2 145.55 707.35 146 707.5 146.45 707.8 146.8 708.1 147.15 708.5 147.3 708.9 147.5 709.45 147.5 710.1 147.5 710.6 147.25 711.1 147 711.5 146.6
L 711.6 147.1
Q 711.7 147.4 712 147.4
L 712.95 147.4 712.95 140.8 711.4 140.8 711.4 145.55
Q 711.05 145.9 710.7 146.1 710.35 146.25 709.95 146.25 709.35 146.25 709.1 145.95 708.8 145.6 708.8 145
L 708.8 140.8 707.2 140.8 707.2 145
M 702.75 139.15
L 702.95 139.15 703.1 139.1 703.25 139 703.3 138.85 703.3 138.05
Q 702.9 137.95 702.45 137.95 701.9 137.95 701.45 138.1 700.95 138.3 700.65 138.6 700.35 138.9 700.15 139.35 700 139.8 700 140.35
L 700 140.85 699 140.85 699 141.5
Q 699 141.7 699.15 141.8 699.25 141.85 699.45 141.9
L 700 142 700 147.4 701.6 147.4 701.6 142 703.25 142 703.25 140.85 701.55 140.85 701.55 140.4
Q 701.55 140.05 701.6 139.8 701.7 139.55 701.85 139.4 702 139.25 702.2 139.2
L 702.75 139.15
M 705.75 137.85
L 704.15 137.85 704.15 147.4 705.75 147.4 705.75 137.85
M 692 140.7
Q 691.25 140.7 690.65 140.95 690.05 141.2 689.6 141.6 689.2 142.05 688.95 142.7 688.75 143.3 688.75 144.1 688.75 144.9 688.95 145.5 689.2 146.15 689.6 146.6 690.05 147 690.65 147.25 691.25 147.5 692 147.5 692.75 147.5 693.35 147.25 693.95 147 694.35 146.6 694.8 146.15 695 145.5 695.25 144.9 695.25 144.1 695.25 143.3 695 142.7 694.8 142.05 694.35 141.6 693.95 141.2 693.35 140.95 692.75 140.7 692 140.7
M 690.35 144.1
Q 690.35 143.05 690.75 142.5 691.15 141.9 692 141.9 692.85 141.9 693.2 142.5 693.6 143.05 693.6 144.1 693.6 145.15 693.2 145.7 692.85 146.3 692 146.3 691.15 146.3 690.75 145.7 690.35 145.15 690.35 144.1 Z"/>
</g>
</defs>

<g transform="matrix( 1.07159423828125, 0, 0, 0.802642822265625, -22.4,-15.85) ">
<use xlink:href="#Layer0_0_MEMBER_0_FILL"/>
</g>

<g transform="matrix( 1.07159423828125, 0, 0, 1.07159423828125, -22.4,-7.35) ">
<use xlink:href="#Layer0_0_MEMBER_1_FILL"/>
</g>

<g transform="matrix( 1, 0, 0, 1, -607.25,-10.1) ">
<use xlink:href="#Layer0_0_MEMBER_2_FILL"/>
</g>

<g transform="matrix( 1, 0, 0, 1, -618.05,-10.1) ">
<use xlink:href="#Layer0_0_MEMBER_3_FILL"/>
</g>
</svg>
