
<svg xmlns="http://www.w3.org/2000/svg" version="1.1" xmlns:xlink="http://www.w3.org/1999/xlink" preserveAspectRatio="none" x="0px" y="0px" width="121px" height="122px" viewBox="0 0 121 122">
<defs>
<g id="Layer0_0_MEMBER_0_FILL">
<path fill="#B8BE79" stroke="none" d="
M 21.5 19.95
L 21.5 157.8 159.35 157.8 159.35 19.95 21.5 19.95 Z"/>
</g>

<g id="Layer0_0_MEMBER_1_FILL">
<path fill="#E1C99B" stroke="none" d="
M 256.25 131.3
L 256.25 99.05 135.35 99.05 135.35 131.3 256.25 131.3 Z"/>
</g>

<g id="Layer0_0_MEMBER_2_FILL">
<path fill="#95D7D6" stroke="none" d="
M 443.35 79.85
L 443.35 79.8
Q 435.05 69.5 425.3 60.65 415.95 52.1 405.15 45.35
L 404.1 44.75
Q 403.55 44.4 402.95 44.05
L 401.5 43.2
Q 399.9 42.35 398.3 41.55 397.85 41.35 397.45 41.2 397.15 41.75 397.15 42.45 397.1 43.3 397.7 44.4 406.35 55.3 417 64.55 424.7 71.25 433.5 76.3 435.7 77.45 437.95 78.6 440.6 79.5 443.35 79.85
M 406.05 75.45
Q 405.7 75.15 405.1 75.1 393.85 79.7 381.75 80.05 365.5 80.5 354.5 70 353.8 69.3 353.2 68.45 352.95 68.4 352.75 68.4 352.7 68.25 352.6 68.15 352.55 68.05 352.45 67.95 352.45 67.9 352.45 67.8 352.3 67.9 352.15 68 352.15 68.15 352.15 68.25 352.1 68.35 352.05 68.45
L 352.05 68.5
Q 352.5 68.85 352.85 69.2 352.8 69.5 352.8 69.85 352.8 74.8 361.65 78.3 370.5 81.8 383 81.8 395.5 81.8 404.35 78.3 405.7 77.75 406.85 77.2 406.6 75.9 406.05 75.45 Z"/>

<path fill="#3B3D35" stroke="none" d="
M 414.9 77.7
Q 414.9 77.65 414.9 77.6 424.5 85.15 435.85 89.05 436.2 89.1 436.55 89.15 437.85 89.25 438.4 88.9 438.7 88.7 438.85 88.35
L 442.95 83.75
Q 444.2 82.25 444.8 80.8 444.95 80.4 444.9 80 444.9 79.95 444.9 79.9 443.25 77 441.05 74.35 431.95 63.5 420.85 54.35 410.6 45.9 398.55 40.7 397.9 40.75 397.45 41.2 397.85 41.35 398.3 41.55 399.9 42.35 401.5 43.2
L 402.95 44.05
Q 403.55 44.4 404.1 44.75
L 405.15 45.35
Q 415.95 52.1 425.3 60.65 435.05 69.5 443.35 79.8
L 443.35 79.85
Q 440.6 79.5 437.95 78.6 435.7 77.45 433.5 76.3 424.7 71.25 417 64.55 406.35 55.3 397.7 44.4 397.1 43.3 397.15 42.45 397.15 41.75 397.45 41.2 397.55 41.05 397.65 40.9 397.6 40.9 397.55 40.9 397.7 40.55 397.55 40.35 397.35 40.05 396.95 40.25
L 396.5 40.7 390.9 48.55 390.9 48.6
Q 387.65 48.3 384.15 48.3 371.05 48.3 361.8 52.15 352.5 55.95 352.5 61.35 352.5 61.75 352.55 62.1
L 352.55 62.15
Q 352.55 62.2 352.55 62.3 352.55 62.4 352.55 62.5 352.55 62.6 352.55 62.75 352.55 62.85 352.55 62.95 352.55 63.05 352.55 63.15 352.5 63.25 352.45 63.4 352.45 63.5 352.45 63.6 352.45 63.7 352.45 63.8 352.45 63.95 352.45 64.05 352.45 64.15 352.45 64.25 352.45 64.35 352.45 64.45 352.45 64.6 352.45 64.7 352.45 64.8 352.45 64.9 352.45 65 352.45 65.1 352.45 65.25 352.45 65.35 352.45 65.45 352.45 65.55 352.45 65.65 352.45 65.75 352.45 65.9 352.45 66 352.45 66.1 352.45 66.2 352.45 66.3 352.45 66.4 352.35 66.55 352.25 66.65 352.15 66.75 352.05 66.85 351.85 66.95 351.65 67.1 351.5 67.2 351.3 67.3 351.25 67.4 351.25 67.5 351.1 67.6 351 67.75 350.95 67.85 350.85 67.95 350.85 68.05 350.85 68.15 350.85 68.25 350.85 68.4 350.85 68.5 350.85 68.6 350.85 68.7 350.85 68.8 350.85 68.9 350.85 69.05 350.85 69.15 350.85 69.25 350.85 69.35 350.85 69.45 350.85 69.55 350.8 69.7 350.8 69.8 350.8 69.9 350.8 70 350.8 70.1 350.8 70.25 350.8 70.35 350.8 70.45 350.8 70.55 350.8 70.65 350.8 70.75 350.8 70.9 350.8 71 350.8 71.1 350.8 71.2 350.8 71.3 350.8 71.4 350.8 71.55 350.8 71.65 350.8 71.75 350.8 71.85 350.8 71.95 350.8 72.05 350.8 72.2 350.8 72.3 350.8 72.4 350.8 72.5 350.8 72.6 350.8 72.7 350.8 72.85 350.8 72.95 350.8 73.05 350.8 73.15 350.8 73.25 350.8 73.4 350.8 73.5 350.8 73.6 350.8 73.7 350.8 73.8 350.8 73.9 350.8 74.05 350.8 74.15 350.8 74.25 350.8 74.35 350.8 74.45 350.8 74.55 350.8 74.7 350.8 74.8 350.8 74.9 350.8 75 350.8 75.1 350.8 75.2 350.8 75.35 350.75 75.45 350.7 75.55 350.7 75.65 350.7 75.75 350.7 75.85 350.7 76 350.7 76.1 350.7 76.2 350.7 76.3 350.7 76.4 350.7 76.55 350.7 76.65 350.7 76.75 350.7 76.85 350.7 76.95 350.7 77.05 350.7 77.2 350.7 77.3 350.7 77.4 350.7 77.5 350.7 77.6 350.7 77.7 350.7 77.85 350.7 77.95 350.7 78.05 350.7 78.15 350.7 78.25 350.7 78.35 350.7 78.5 350.7 78.6 350.7 78.7 350.7 78.8 350.7 78.9 350.7 79 350.7 79.15 350.7 79.25 350.7 79.35 350.7 79.45 350.7 79.55 350.7 79.7 350.7 79.8 350.7 79.9 350.7 80 350.7 80.1 350.7 80.2 350.7 80.35 350.7 80.45 350.7 80.55 350.7 80.65 350.7 80.75 350.7 80.85 350.7 81 350.7 81.1 350.7 81.2 350.7 81.3 350.7 81.4 350.7 81.5 350.7 81.65 350.7 81.75 350.7 81.85 350.7 81.95 350.7 82.05 350.7 82.15 350.7 82.3 350.7 82.4 350.7 82.5 350.7 82.6 350.7 82.7 350.7 82.85 350.7 82.95 350.7 83.05 350.7 83.15 350.7 83.25 350.7 83.35 350.7 83.5 350.7 83.6 350.7 83.7 350.7 83.8 350.7 83.9 350.7 84 350.7 84.15 350.7 84.25 350.7 84.35 350.7 84.45 350.7 84.55 350.7 84.65 350.7 84.8 350.7 84.9 350.7 85 350.7 85.1 350.7 85.2 350.7 85.35 350.7 85.45 350.7 85.55 350.7 85.65 350.7 85.75 350.7 85.85 350.7 86 350.7 86.1 350.7 86.2 350.7 86.3 350.7 86.4 350.7 86.5 350.7 86.65 350.7 86.75 350.7 86.85 350.7 86.95 350.7 87.05 350.7 87.15 350.7 87.3 350.7 87.4 350.7 87.5 350.7 87.6 350.7 87.7 350.7 87.8 350.7 87.95 350.7 88.05 350.7 88.15 350.7 88.25 350.7 88.35 350.7 88.5 350.7 88.6 350.7 88.7 350.7 88.8 350.7 88.9 350.7 89 350.7 89.15 350.7 89.25 350.7 89.35 350.7 89.45 350.7 89.55 350.7 89.65 350.75 89.8 350.8 89.9 350.85 90 350.85 90.1 351 90.2 351.1 90.3 351.25 90.35 351.45 90.4 352.4 92.5 354.1 94 364.85 103.35 378.85 104.05 390.05 104.45 401.1 102.2 413.05 99.95 414.95 89.3
L 414.95 89.25
Q 414.95 89.15 414.95 89 414.95 88.9 414.95 88.8 414.95 88.7 414.95 88.6 414.95 88.5 414.95 88.35 414.95 88.25 414.95 88.15 414.95 88.05 414.95 87.95 414.95 87.8 414.95 87.7 414.95 87.6 414.95 87.5 414.95 87.4 414.95 87.3 414.95 87.15 414.95 87.05 414.95 86.95 414.95 86.85 414.95 86.75 414.95 86.65 414.95 86.55 414.95 86.5 414.95 86.45 414.95 86.4 414.95 86.3 414.95 86.2 414.95 86.1 414.95 86 414.95 85.85 414.95 85.75 414.95 85.65 414.95 85.55 414.95 85.45 414.95 85.35 414.95 85.2 414.95 85.1 414.95 85 414.95 84.9 414.95 84.8 414.95 84.65 414.95 84.55 414.95 84.45 414.95 84.35 414.95 84.25 414.95 84.15 414.95 84 414.95 83.9 414.95 83.8 414.95 83.7 414.95 83.6 414.95 83.5 414.95 83.35 414.95 83.25 414.95 83.15 414.95 83.05 414.95 82.95 414.95 82.85 414.95 82.7 414.95 82.6 414.95 82.5 414.95 82.4 414.95 82.3 414.95 82.15 414.95 82.05 414.95 81.95 414.95 81.85 414.95 81.75 414.95 81.65 414.95 81.5 414.95 81.4 414.95 81.3 414.95 81.2 414.95 81.1 414.95 81 414.95 80.85 414.95 80.75 414.95 80.65 414.95 80.55 414.95 80.45 414.95 80.35 414.95 80.2 414.95 80.1 414.95 80 414.95 79.9 414.95 79.8 414.95 79.7 414.95 79.55 414.95 79.45 414.95 79.35 414.95 79.25 414.95 79.15 414.95 79 414.95 78.9 414.95 78.8 414.9 78.7 414.9 78.6 414.9 78.5 414.9 78.35 414.9 78.25 414.9 78.15 414.9 78.05 414.9 77.95 414.9 77.85 414.9 77.7
M 405.8 69.4
Q 405.7 69.45 405.55 69.5 404.35 69.95 403.05 70.35 395 72.85 384.2 72.85 371.7 72.85 362.85 69.5 361.35 68.9 360.1 68.3
L 360.15 68.3
Q 360.35 67.95 360.4 67.3 360.5 66.6 360.6 66.3 360.8 65.85 361.2 65.45 361.85 64.65 363.05 63.75 362.75 63.45 362.3 63.45 361.6 63.95 360.8 64.85
L 359.8 66.2 359.7 66.85
Q 359.8 67.6 360 68.25 356.85 66.65 355.35 64.85 356.85 64.2 357.7 62.9 358.4 61.95 358.45 61.85 358.95 61.3 359.5 61.25 359.8 61.2 361.2 61.85 362.2 62.3 363.3 62.25 363.85 62.2 365.95 61.6 368.55 60.85 373.35 60.55
L 379.5 60.1
Q 389.35 59.65 398.9 62.15 402.2 65.85 405.8 69.4
M 405.6 72.3
Q 406 73 406.35 73.6 405.15 74.05 403.95 74.55 403.05 74.9 402.2 75.2 385.8 81 368.45 76.85 359.7 74.75 353.45 68.45 353.5 68.4 353.55 68.3 353.6 68.2 353.7 68.1 353.75 68 353.85 67.85 353.85 67.75 353.85 67.65 353.85 67.55 353.85 67.45 353.85 67.35 353.85 67.2 353.85 67.1 353.85 67 353.85 66.9 353.85 66.8 353.85 66.7 353.85 66.55 353.85 66.45 353.85 66.35 353.85 66.25 353.85 66.15 353.85 66.05 353.85 65.9 353.85 65.8 353.85 65.7 353.85 65.6 353.85 65.5 353.85 65.35 353.85 65.3 356.05 68.25 361.8 70.6 371.05 74.4 384.15 74.4 394.85 74.4 403 71.9 404.15 71.5 405.3 71.1 405.25 71.15 405.25 71.2 405.25 71.7 405.6 72.3
M 411.55 60
Q 413.25 61.35 414.9 63.1 425.25 73.8 438.65 79.8 439.3 80 439.95 80.2 442.1 80.85 443.55 80.6 442.65 82.15 441 83.9 438.8 86.15 437.7 87.3 437.45 87.6 437.3 87.9 436.8 87.9 436.2 87.75 433.55 86.85 431.1 85.55 417.85 78.9 407.3 68.45 405.15 66.25 402.85 64.3 402.85 64.15 402.55 63.95 401.4 62.85 400.8 62.35
L 400.65 62.25
Q 400.65 62.2 400.65 62.15 400.65 61.9 400.5 61.65 400.3 61.4 399.65 61.2 399.4 61.1 399.15 61.05 398.65 60.65 398.2 60.1 395.6 57.6 393.45 54.5
L 392.55 53.15
Q 392.25 52.65 392.05 52.35 391.9 51.75 391.9 51.15 391.8 49.95 391.95 48.7 392.05 48.6 392.15 48.45 394.45 45.6 396.5 42.55 396.45 43.7 397.15 45.1 403.55 53.35 411.55 60
M 408.1 76.5
L 408.1 76.55
Q 407.5 76.85 406.85 77.2 405.7 77.75 404.35 78.3 395.5 81.8 383 81.8 370.5 81.8 361.65 78.3 352.8 74.8 352.8 69.85 352.8 69.5 352.85 69.2 352.5 68.85 352.05 68.5
L 352.05 68.45
Q 352.1 68.35 352.15 68.25 352.15 68.15 352.15 68 352.3 67.9 352.45 67.8 352.45 67.9 352.45 67.95 352.55 68.05 352.6 68.15 352.7 68.25 352.75 68.4 352.95 68.4 353.2 68.45 353.8 69.3 354.5 70 365.5 80.5 381.75 80.05 393.85 79.7 405.1 75.1 405.95 74.7 406.8 74.35 407.2 75.05 407.55 75.55 408 76.05 408.1 76.5
M 405.35 79.45
Q 406.2 79.1 407 78.7 407.75 78.3 408.5 77.9 408.55 78.25 408.75 78.5
L 409.5 79.25 411.95 81.2
Q 412.85 81.95 413.6 82.3
L 413.6 82.35
Q 413.6 82.45 413.6 82.55 413.6 82.7 413.6 82.8 413.6 82.9 413.6 83 413.6 83.1 413.6 83.2 413.6 83.35 413.6 83.45 413.6 83.55 413.6 83.65 413.6 83.75 413.6 83.9 413.6 84 413.6 84.1 413.6 84.2 413.6 84.3 413.6 84.4 413.6 84.55 413.6 84.65 413.6 84.75 413.6 84.85 413.6 84.95 413.6 85.05 413.6 85.2 413.6 85.3 413.6 85.4 413.6 85.5 413.6 85.6 413.6 85.7 413.6 85.8
L 413.6 85.85
Q 413.6 85.95 413.6 86.05 413.6 86.15 413.6 86.25 413.6 86.4 413.6 86.5 413.6 86.6 413.6 86.7 413.6 86.8 413.6 86.9 413.6 87.05 413.6 87.15 413.6 87.25 413.6 87.35 413.6 87.45 413.6 87.55 413.6 87.7 413.6 87.8 413.6 87.9 413.6 88 413.6 88.1 413.6 88.2 413.6 88.35 413.6 88.45 413.6 88.55 413.6 88.65 413.6 88.75 413.6 88.85 413.6 88.9 413.6 88.95 412.95 95.55 406.35 98.2 392.9 103.55 378.25 102.25 362.75 101.2 352 89.85 352.05 89.8 352.05 89.75 352.05 89.65 352.1 89.55 352.1 89.4 352.1 89.3 352.1 89.2 352.1 89.1 352.1 89 352.1 88.85 352.1 88.75 352.1 88.65 352.1 88.55 352.1 88.45 352.1 88.35 352.1 88.2 352.1 88.1 352.1 88 352.1 87.9 352.1 87.8 352.1 87.7 352.1 87.55 352.1 87.45 352.1 87.35 352.1 87.25 352.1 87.15 352.1 87.05 352.1 86.9 352.1 86.8 352.1 86.7 352.1 86.6 352.1 86.5 352.1 86.4 352.1 86.25 352.1 86.15 352.1 86.05 352.1 85.95 352.1 85.85 352.1 85.7 352.1 85.6 352.1 85.5 352.1 85.4 352.1 85.3 352.1 85.2 352.1 85.05 352.1 84.95 352.1 84.85 352.1 84.75 352.1 84.65 352.1 84.55 352.1 84.4 352.1 84.3 352.1 84.2 352.1 84.1 352.1 84 352.1 83.9 352.1 83.75 352.1 83.65 352.1 83.55 352.1 83.45 352.1 83.35 352.1 83.2 352.1 83.1 352.1 83 352.1 82.9 352.1 82.8 352.1 82.7 352.1 82.55 352.1 82.45 352.1 82.35 352.1 82.25 352.1 82.15 352.1 82.05 352.1 81.9 352.1 81.8 352.1 81.7 352.1 81.6 352.1 81.5 352.1 81.4 352.1 81.25 352.1 81.15 352.1 81.05 352.1 80.95 352.1 80.85 352.1 80.75 352.1 80.6 352.1 80.5 352.1 80.4 352.1 80.3 352.1 80.2 352.1 80.05 352.1 79.95 352.1 79.85 352.1 79.75 352.1 79.65 352.1 79.55 352.1 79.4 352.1 79.3 352.1 79.2 352.1 79.1 352.1 79 352.1 78.9 352.1 78.75 352.1 78.65 352.1 78.55 352.1 78.45 352.1 78.35 352.1 78.25 352.1 78.1 352.1 78 352.1 77.9 352.1 77.8 352.1 77.7 352.1 77.6 352.1 77.45 352.1 77.35 352.1 77.25 352.1 77.15 352.1 77.05 352.1 76.9 352.1 76.8 352.1 76.7 352.1 76.6 352.1 76.5 352.1 76.4 352.1 76.25 352.1 76.15 352.1 76.05 352.1 75.95 352.1 75.85 352.1 75.75 352.1 75.6 352.05 75.5 352.05 75.4 352.05 75.3 352.05 75.2 352.05 75.1 352.05 74.95 352.05 74.85 352.05 74.75 352.05 74.65 352.05 74.55 352.05 74.45 352.05 74.3 352.05 74.2 352.05 74.1 352.05 74 352.05 73.9 352.05 73.75 352.05 73.65 352.05 73.55 352.05 73.45 352.05 73.35 352.05 73.25 352.05 73.1 352.05 73
L 352.05 72.95
Q 353.95 76.6 360.6 79.45 369.85 83.4 382.95 83.4 396.05 83.4 405.35 79.45
M 358 60.45
Q 357.75 60.7 357.55 61.15 357.25 61.75 357.15 61.9 356.9 62.35 355.75 63.45 355.25 63.95 355 64.4 354.95 64.35 354.95 64.3 354 62.85 354 61.3 354 56.55 362.85 53.15 371.7 49.75 384.2 49.75 387.4 49.75 390.4 50 390.25 50.5 390.35 51 390.35 51.05 390.35 51.15 387.55 51 384.75 50.9 384.55 50.9 384.35 50.85 369.35 49.25 357.4 57.75 358.4 57.7 359.3 57.2 362.2 55.7 365.2 54.55 366.2 54.2 367.2 53.85 373.5 51.8 380.3 51.4 385.25 51.1 390.5 51.7 390.65 52.1 390.95 52.45 391.15 52.7 391.35 53
L 391.75 53.75
Q 392.3 54.75 393.45 56.1 395.5 58.7 397.25 60.5 388 58 378.35 59 373.15 59.55 372.5 59.55 370.2 59.5 369.05 59.5 367.1 59.6 365.75 60.15 364.9 60.6 364.5 60.8 363.75 61.15 363.2 61.2 362.65 61.2 361.9 60.9 361.05 60.55 360.6 60.35 358.85 59.75 358 60.45
M 432.9 83.15
Q 433.85 83.8 434.25 83.7 433.15 82.8 430.9 82 428.25 81.05 427.4 80.55 426.3 79.95 426 79.95 427.8 81.15 429.55 81.8 432.3 82.75 432.9 83.15
M 435.4 82.8
Q 436.35 83.15 436.6 83.15 433.3 81.4 429.65 80.1 429.6 80.25 429.45 80.25
L 435.4 82.8
M 408.25 64.95
Q 407.6 64.2 407.1 64.2 411 69.4 416.6 72.65 417.1 72.95 417.55 73.05 412.2 69.55 408.25 64.95
M 411.7 66.85
L 411.5 66.9
Q 413.15 68.85 414.95 70.05
L 415.05 69.9
Q 413.15 68.5 411.85 67
L 411.7 66.85
M 399.7 68.45
L 398.3 68.65 396.55 68.7 396.1 68.8
Q 395.9 69.05 396.05 69.2
L 399.25 69.25
Q 399.3 69.1 399.6 68.9 399.85 68.65 399.7 68.45
M 392.95 67.5
Q 391.6 68.25 390.6 67.95 389.7 67.6 389.45 66.7
L 386.6 66.75
Q 386.25 66.85 386.3 67
L 389.1 67.2
Q 389.15 68.2 390.6 68.6 392.5 69.1 393.8 67.9 395.15 68.05 396.2 68 396.35 67.75 396.15 67.65
L 394.1 67.3 393.55 67.3
Q 393.35 67.3 392.95 67.5
M 394.1 63.55
L 394.05 63.9
Q 395 64.05 395.9 63.55
L 395.85 63.3 395.25 63.25 395.25 63.3
Q 394.8 63.3 394.35 63.45
L 394.1 63.55 Z"/>

<path fill="#328B92" stroke="none" d="
M 390.35 51.15
Q 390.35 51.05 390.35 51 389.85 50.95 389.55 50.95 388.3 50.85 384.45 50.85 384.4 50.85 384.35 50.85 384.55 50.9 384.75 50.9 387.55 51 390.35 51.15
M 357.55 61.15
Q 357.75 60.7 358 60.45 358.85 59.75 360.6 60.35 361.05 60.55 361.9 60.9 362.65 61.2 363.2 61.2 363.75 61.15 364.5 60.8 364.9 60.6 365.75 60.15 367.1 59.6 369.05 59.5 370.2 59.5 372.5 59.55 373.15 59.55 378.35 59 388 58 397.25 60.5 395.5 58.7 393.45 56.1 392.3 54.75 391.75 53.75
L 391.35 53
Q 391.15 52.7 390.95 52.45 390.65 52.1 390.5 51.7 385.25 51.1 380.3 51.4 373.5 51.8 367.2 53.85 366.2 54.2 365.2 54.55 363.05 55.6 359.8 58.2 355.35 61.8 354.95 64.3 354.95 64.35 355 64.4 355.25 63.95 355.75 63.45 356.9 62.35 357.15 61.9 357.25 61.75 357.55 61.15
M 408.75 78.5
Q 408.55 78.25 408.5 77.9 407.75 78.3 407 78.7 407.6 83.1 410.75 84.5 412.35 85.2 413.6 85.8 413.6 85.7 413.6 85.6 413.6 85.5 413.6 85.4 413.6 85.3 413.6 85.2 413.6 85.05 413.6 84.95 413.6 84.85 413.6 84.75 413.6 84.65 413.6 84.55 413.6 84.4 413.6 84.3 413.6 84.2 413.6 84.1 413.6 84 413.6 83.9 413.6 83.75 413.6 83.65 413.6 83.55 413.6 83.45 413.6 83.35 413.6 83.2 413.6 83.1 413.6 83 413.6 82.9 413.6 82.8 413.6 82.7 413.6 82.55 413.6 82.45 413.6 82.35
L 413.6 82.3
Q 412.85 81.95 411.95 81.2
L 409.5 79.25 408.75 78.5
M 406.35 73.6
Q 406 73 405.6 72.3 405.25 71.7 405.25 71.2 405.25 71.15 405.3 71.1 404.15 71.5 403 71.9 403 72.2 402.95 72.45 402.75 73.95 402.2 75.2 403.05 74.9 403.95 74.55 405.15 74.05 406.35 73.6 Z"/>

<path fill="#47B5C3" stroke="none" d="
M 359.3 57.2
Q 358.4 57.7 357.4 57.75 369.35 49.25 384.35 50.85 384.4 50.85 384.45 50.85 388.3 50.85 389.55 50.95 389.85 50.95 390.35 51 390.25 50.5 390.4 50 387.4 49.75 384.2 49.75 371.7 49.75 362.85 53.15 354 56.55 354 61.3 354 62.85 354.95 64.3 355.35 61.8 359.8 58.2 363.05 55.6 365.2 54.55 362.2 55.7 359.3 57.2
M 407 78.7
Q 406.2 79.1 405.35 79.45 396.05 83.4 382.95 83.4 369.85 83.4 360.6 79.45 353.95 76.6 352.05 72.95
L 352.05 73
Q 352.05 73.1 352.05 73.25 352.05 73.35 352.05 73.45 352.05 73.55 352.05 73.65 352.05 73.75 352.05 73.9 352.05 74 352.05 74.1 352.05 74.2 352.05 74.3 352.05 74.45 352.05 74.55 352.05 74.65 352.05 74.75 352.05 74.85 352.05 74.95 352.05 75.1 352.05 75.2 352.05 75.3 352.05 75.4 352.05 75.5 352.1 75.6 352.1 75.75 352.1 75.85 352.1 75.95 352.1 76.05 352.1 76.15 352.1 76.25 352.1 76.4 352.1 76.5 352.1 76.6 352.1 76.7 352.1 76.8 352.1 76.9 352.1 77.05 352.1 77.15 352.1 77.25 352.1 77.35 352.1 77.45 352.1 77.6 352.1 77.7 352.1 77.8 352.1 77.9 352.1 78 352.1 78.1 352.1 78.25 352.1 78.35 352.1 78.45 352.1 78.55 352.1 78.65 352.1 78.75 352.1 78.9 352.1 79 352.1 79.1 352.1 79.2 352.1 79.3 352.1 79.4 352.1 79.55 352.1 79.65 352.1 79.75 352.1 79.85 352.1 79.95 352.1 80.05 352.1 80.2 352.1 80.3 352.1 80.4 352.1 80.5 352.1 80.6 352.1 80.75 352.1 80.85 352.1 80.95 352.1 81.05 352.1 81.15 352.1 81.25 352.1 81.4 352.1 81.5 352.1 81.6 352.1 81.7 352.1 81.8 352.1 81.9 352.1 82.05 352.1 82.15 352.1 82.25 352.1 82.35 352.1 82.45 352.1 82.55 352.1 82.7 352.1 82.8 352.1 82.9 352.1 83 352.1 83.1 352.1 83.2 352.1 83.35 352.1 83.45 352.1 83.55 352.1 83.65 352.1 83.75 352.1 83.9 352.1 84 352.1 84.1 352.1 84.2 352.1 84.3 352.1 84.4 352.1 84.55 352.1 84.65 352.1 84.75 352.1 84.85 352.1 84.95 352.1 85.05 352.1 85.2 352.1 85.3 352.1 85.4 352.1 85.5 352.1 85.6 352.1 85.7 352.1 85.85 352.1 85.95 352.1 86.05 352.1 86.15 352.1 86.25 352.1 86.4 352.1 86.5 352.1 86.6 352.1 86.7 352.1 86.8 352.1 86.9 352.1 87.05 352.1 87.15 352.1 87.25 352.1 87.35 352.1 87.45 352.1 87.55 352.1 87.7 352.1 87.8 352.1 87.9 352.1 88 352.1 88.1 352.1 88.2 352.1 88.35 352.1 88.45 352.1 88.55 352.1 88.65 352.1 88.75 352.1 88.85 352.1 89 352.1 89.1 352.1 89.2 352.1 89.3 352.1 89.4 352.1 89.55 352.05 89.65 352.05 89.75 352.05 89.8 352 89.85 362.75 101.2 378.25 102.25 392.9 103.55 406.35 98.2 412.95 95.55 413.6 88.95 413.6 88.9 413.6 88.85 413.6 88.75 413.6 88.65 413.6 88.55 413.6 88.45 413.6 88.35 413.6 88.2 413.6 88.1 413.6 88 413.6 87.9 413.6 87.8 413.6 87.7 413.6 87.55 413.6 87.45 413.6 87.35 413.6 87.25 413.6 87.15 413.6 87.05 413.6 86.9 413.6 86.8 413.6 86.7 413.6 86.6 413.6 86.5 413.6 86.4 413.6 86.25 413.6 86.15 413.6 86.05 413.6 85.95 413.6 85.85
L 413.6 85.8
Q 412.35 85.2 410.75 84.5 407.6 83.1 407 78.7
M 408.1 76.55
L 408.1 76.5
Q 408 76.05 407.55 75.55 407.2 75.05 406.8 74.35 405.95 74.7 405.1 75.1 405.7 75.15 406.05 75.45 406.6 75.9 406.85 77.2 407.5 76.85 408.1 76.55
M 414.9 63.1
Q 413.25 61.35 411.55 60 403.55 53.35 397.15 45.1 396.45 43.7 396.5 42.55 394.45 45.6 392.15 48.45 392.05 48.6 391.95 48.7 391.8 49.95 391.9 51.15 391.9 51.75 392.05 52.35 392.25 52.65 392.55 53.15
L 393.45 54.5
Q 395.6 57.6 398.2 60.1 398.65 60.65 399.15 61.05 399.4 61.1 399.65 61.2 400.3 61.4 400.5 61.65 400.65 61.9 400.65 62.15 400.65 62.2 400.65 62.25
L 400.8 62.35
Q 401.4 62.85 402.55 63.95 402.85 64.15 402.85 64.3 405.15 66.25 407.3 68.45 417.85 78.9 431.1 85.55 433.55 86.85 436.2 87.75 436.8 87.9 437.3 87.9 437.45 87.6 437.7 87.3 438.8 86.15 441 83.9 442.65 82.15 443.55 80.6 442.1 80.85 439.95 80.2 439.3 80 438.65 79.8 425.25 73.8 414.9 63.1
M 411.5 66.9
L 411.7 66.85 411.85 67
Q 413.15 68.5 415.05 69.9
L 414.95 70.05
Q 413.15 68.85 411.5 66.9
M 407.1 64.2
Q 407.6 64.2 408.25 64.95 412.2 69.55 417.55 73.05 417.1 72.95 416.6 72.65 411 69.4 407.1 64.2
M 436.6 83.15
Q 436.35 83.15 435.4 82.8
L 429.45 80.25
Q 429.6 80.25 429.65 80.1 433.3 81.4 436.6 83.15
M 434.25 83.7
Q 433.85 83.8 432.9 83.15 432.3 82.75 429.55 81.8 427.8 81.15 426 79.95 426.3 79.95 427.4 80.55 428.25 81.05 430.9 82 433.15 82.8 434.25 83.7
M 353.85 66.15
Q 353.85 66.25 353.85 66.35 353.85 66.45 353.85 66.55 353.85 66.7 353.85 66.8 353.85 66.9 353.85 67 353.85 67.1 353.85 67.2 353.85 67.35 353.85 67.45 353.85 67.55 353.85 67.65 353.85 67.75 353.85 67.85 353.75 68 353.7 68.1 353.6 68.2 353.55 68.3 353.5 68.4 353.45 68.45 359.7 74.75 368.45 76.85 385.8 81 402.2 75.2 402.75 73.95 402.95 72.45 403 72.2 403 71.9 394.85 74.4 384.15 74.4 371.05 74.4 361.8 70.6 356.05 68.25 353.85 65.3 353.85 65.35 353.85 65.5 353.85 65.6 353.85 65.7 353.85 65.8 353.85 65.9 353.85 66.05 353.85 66.15 Z"/>

<path fill="#F9E0A0" stroke="none" d="
M 405.55 69.5
Q 405.7 69.45 405.8 69.4 402.2 65.85 398.9 62.15 389.35 59.65 379.5 60.1
L 373.35 60.55
Q 368.55 60.85 365.95 61.6 363.85 62.2 363.3 62.25 362.2 62.3 361.2 61.85 359.8 61.2 359.5 61.25 358.95 61.3 358.45 61.85 358.4 61.95 357.7 62.9 356.85 64.2 355.35 64.85 356.85 66.65 360 68.25 359.8 67.6 359.7 66.85
L 359.8 66.2 360.8 64.85
Q 361.6 63.95 362.3 63.45 362.75 63.45 363.05 63.75 361.85 64.65 361.2 65.45 360.8 65.85 360.6 66.3 360.5 66.6 360.4 67.3 360.35 67.95 360.15 68.3
L 360.1 68.3
Q 361.35 68.9 362.85 69.5 371.7 72.85 384.2 72.85 395 72.85 403.05 70.35 404.35 69.95 405.55 69.5
M 360.8 63.3
L 360.6 63.5 360.35 63.55
Q 359.9 63.55 359.5 63.4
L 359.3 63.6 359 63.6 358.65 63.5
Q 358.4 63.4 358.4 62.85 358.4 62.5 358.5 62.35 358.55 62.25 359.25 62.15
L 359.65 62.05
Q 360.1 62 360.5 62.15 360.8 62.25 360.85 62.45
L 360.9 62.8 360.8 63.3
M 364.4 66.5
Q 364.3 66.55 364.25 66.65 363.6 67.5 363.1 67.45 362.9 67.65 362.85 67.85 362.7 68.2 362.55 68.35 362.25 68.55 361.95 68.25 361.65 67.95 361.65 67.6 361.65 66.75 362.8 65.85 363.2 65.2 364.2 64.6 366.65 63.05 369.6 62.6 370.8 62.4 371.95 62.45 372.6 62.3 373.35 62.2 375.15 62 375.45 62.9 375.4 62.9 375.35 62.95 375.2 63.45 374.15 63.45 373.9 63.45 373.65 63.45 372.1 63.85 369.35 64.55 366.25 65.35 364.4 66.5
M 394.05 63.9
L 394.1 63.55 394.35 63.45
Q 394.8 63.3 395.25 63.3
L 395.25 63.25 395.85 63.3 395.9 63.55
Q 395 64.05 394.05 63.9
M 390.6 67.95
Q 391.6 68.25 392.95 67.5 393.35 67.3 393.55 67.3
L 394.1 67.3 396.15 67.65
Q 396.35 67.75 396.2 68 395.15 68.05 393.8 67.9 392.5 69.1 390.6 68.6 389.15 68.2 389.1 67.2
L 386.3 67
Q 386.25 66.85 386.6 66.75
L 389.45 66.7
Q 389.7 67.6 390.6 67.95
M 386.15 68
Q 386.4 68.05 388.3 68.05 389.2 68.05 389.55 68.45 389.85 68.8 389.75 69.5 389.65 70.05 389.4 70.15 389.25 70.25 388.9 70.25
L 385.35 70.35
Q 384.85 70.35 384.6 70.25 384.25 70.1 383.85 69.5 383.4 68.85 383.5 68.35 383.55 68 383.95 67.8 384.3 67.6 384.7 67.65 385.2 67.65 386.15 68
M 398.3 68.65
L 399.7 68.45
Q 399.85 68.65 399.6 68.9 399.3 69.1 399.25 69.25
L 396.05 69.2
Q 395.9 69.05 396.1 68.8
L 396.55 68.7 398.3 68.65
M 373.4 65.75
Q 373.4 66.05 373.2 66.2 371.25 66.3 370.55 66.55 369.55 66.9 368.55 67.8 367.7 68.45 367.25 68.35 367.25 68.2 367.15 67.85 367.05 67.5 367.1 67.3 367.15 67.2 367.65 66.8 368.3 66.4 369.55 65.5 370.45 65.1 372.5 65.1 373.1 65.2 373.2 65.3 373.4 65.45 373.4 65.75 Z"/>

<path fill="#FFF3CB" stroke="none" d="
M 373.2 66.2
Q 373.4 66.05 373.4 65.75 373.4 65.45 373.2 65.3 373.1 65.2 372.5 65.1 370.45 65.1 369.55 65.5 368.3 66.4 367.65 66.8 367.15 67.2 367.1 67.3 367.05 67.5 367.15 67.85 367.25 68.2 367.25 68.35 367.7 68.45 368.55 67.8 369.55 66.9 370.55 66.55 371.25 66.3 373.2 66.2
M 388.3 68.05
Q 386.4 68.05 386.15 68 385.2 67.65 384.7 67.65 384.3 67.6 383.95 67.8 383.55 68 383.5 68.35 383.4 68.85 383.85 69.5 384.25 70.1 384.6 70.25 384.85 70.35 385.35 70.35
L 388.9 70.25
Q 389.25 70.25 389.4 70.15 389.65 70.05 389.75 69.5 389.85 68.8 389.55 68.45 389.2 68.05 388.3 68.05
M 364.25 66.65
Q 364.3 66.55 364.4 66.5 366.25 65.35 369.35 64.55 372.1 63.85 373.65 63.45 373.9 63.45 374.15 63.45 375.2 63.45 375.35 62.95 375.4 62.9 375.45 62.9 375.15 62 373.35 62.2 372.6 62.3 371.95 62.45 370.8 62.4 369.6 62.6 366.65 63.05 364.2 64.6 363.2 65.2 362.8 65.85 361.65 66.75 361.65 67.6 361.65 67.95 361.95 68.25 362.25 68.55 362.55 68.35 362.7 68.2 362.85 67.85 362.9 67.65 363.1 67.45 363.6 67.5 364.25 66.65
M 360.6 63.5
L 360.8 63.3 360.9 62.8 360.85 62.45
Q 360.8 62.25 360.5 62.15 360.1 62 359.65 62.05
L 359.25 62.15
Q 358.55 62.25 358.5 62.35 358.4 62.5 358.4 62.85 358.4 63.4 358.65 63.5
L 359 63.6 359.3 63.6 359.5 63.4
Q 359.9 63.55 360.35 63.55
L 360.6 63.5 Z"/>
</g>

<g id="Layer0_0_MEMBER_3_FILL">
<path fill="#3B3D35" stroke="none" d="
M 52.05 106.35
L 52.25 106.3 52.35 106.2 52.85 105.55
Q 52.4 105.1 51.75 104.85 51.1 104.55 50.25 104.55 49.45 104.55 48.75 104.85 48.05 105.15 47.55 105.65 47.05 106.15 46.8 106.85 46.5 107.6 46.5 108.45 46.5 109.3 46.75 110 47 110.7 47.5 111.25 48 111.75 48.65 112.05 49.35 112.35 50.2 112.35 51.1 112.35 51.8 112.05 52.45 111.75 52.95 111.15
L 52.4 110.55
Q 52.3 110.45 52.15 110.45
L 51.95 110.55 51.6 110.85 50.8 111.1 50.25 111.15
Q 49.8 111.15 49.35 110.95 48.95 110.75 48.65 110.45 48.3 110.1 48.15 109.6 47.95 109.1 47.95 108.45 47.95 107.8 48.1 107.3 48.3 106.8 48.6 106.45 48.9 106.1 49.3 105.95 49.75 105.75 50.25 105.75
L 50.8 105.8 51.2 105.9 51.75 106.2 51.9 106.3 52.05 106.35
M 54.45 106.85
L 53.7 106.85 53.7 112.25 55 112.25 55 108.9 55.4 108.25
Q 55.55 108.15 55.7 108.05 55.9 108 56.1 108
L 56.4 108.05 56.65 108.05 56.8 108 56.85 107.9 56.95 106.9
Q 56.7 106.75 56.35 106.75 55.85 106.75 55.5 107.05 55.15 107.3 54.9 107.8
L 54.85 107.2
Q 54.8 107 54.75 106.9 54.65 106.85 54.45 106.85
M 61.6 107.4
Q 61.25 107.1 60.85 106.95 60.4 106.75 59.9 106.75 59.3 106.75 58.8 107 58.3 107.2 58 107.55 57.65 107.9 57.45 108.4 57.3 108.9 57.3 109.45 57.3 110.15 57.5 110.7 57.7 111.2 58.05 111.6 58.4 111.95 58.9 112.15 59.4 112.35 59.95 112.35
L 60.55 112.3 61.15 112.15
Q 61.45 112.05 61.7 111.85 61.95 111.7 62.2 111.45
L 61.8 110.95
Q 61.75 110.85 61.55 110.85 61.45 110.85 61.3 110.9
L 61 111.1 60.6 111.25
Q 60.4 111.3 60.05 111.3 59.75 111.3 59.5 111.25 59.25 111.15 59.05 110.95 58.85 110.75 58.75 110.45 58.65 110.15 58.6 109.7
L 61.95 109.7
Q 62.1 109.7 62.2 109.6 62.25 109.5 62.25 109.2 62.25 108.65 62.05 108.15 61.9 107.7 61.6 107.4
M 61 108.45
Q 61.05 108.7 61.05 108.95
L 58.6 108.95
Q 58.7 108.35 59.05 108 59.35 107.7 59.9 107.7 60.2 107.7 60.4 107.8 60.65 107.9 60.8 108.05 60.95 108.25 61 108.45
M 64.95 107.9
Q 65.2 107.8 65.45 107.8 65.9 107.8 66.1 108.05 66.35 108.25 66.35 108.8
L 66.35 112.25 67.65 112.25 67.65 108.8
Q 67.65 108.55 67.7 108.35 67.8 108.15 67.9 108.05 68.05 107.9 68.2 107.85 68.4 107.8 68.6 107.8 69.05 107.8 69.25 108.05 69.5 108.3 69.5 108.8
L 69.5 112.25 70.8 112.25 70.8 108.8
Q 70.8 108.3 70.65 107.95 70.55 107.55 70.3 107.3 70.05 107.05 69.7 106.9 69.35 106.75 68.9 106.75
L 68.4 106.8
Q 68.15 106.9 67.9 107 67.7 107.15 67.5 107.3 67.3 107.5 67.2 107.8 67 107.3 66.7 107.05 66.35 106.75 65.85 106.75
L 65.4 106.8 65.05 106.95 64.7 107.2 64.4 107.5 64.3 107.1
Q 64.25 106.85 64 106.85
L 63.2 106.85 63.2 112.25 64.5 112.25 64.5 108.3
Q 64.7 108.05 64.95 107.9
M 75.2 106.95
Q 74.75 106.75 74.25 106.75 73.65 106.75 73.15 107 72.65 107.2 72.35 107.55 72 107.9 71.8 108.4 71.65 108.9 71.65 109.45 71.65 110.15 71.85 110.7 72.05 111.2 72.4 111.6 72.75 111.95 73.25 112.15 73.75 112.35 74.3 112.35
L 74.9 112.3 75.5 112.15
Q 75.8 112.05 76.05 111.85 76.3 111.7 76.55 111.45
L 76.15 110.95
Q 76.1 110.85 75.9 110.85 75.8 110.85 75.65 110.9
L 75.35 111.1 74.95 111.25
Q 74.75 111.3 74.4 111.3 74.1 111.3 73.85 111.25 73.6 111.15 73.4 110.95 73.2 110.75 73.1 110.45 73 110.15 72.95 109.7
L 76.3 109.7
Q 76.45 109.7 76.55 109.6 76.6 109.5 76.6 109.2 76.6 108.65 76.4 108.15 76.25 107.7 75.95 107.4 75.6 107.1 75.2 106.95
M 74.75 107.8
Q 75 107.9 75.15 108.05 75.3 108.25 75.35 108.45 75.4 108.7 75.4 108.95
L 72.95 108.95
Q 73.05 108.35 73.4 108 73.7 107.7 74.25 107.7 74.55 107.7 74.75 107.8 Z"/>
</g>
</defs>

<g transform="matrix( 0.87713623046875, 0, 0, 0.656982421875, -18.8,-13.4) ">
<use xlink:href="#Layer0_0_MEMBER_0_FILL"/>
</g>

<g transform="matrix( 1, 0, 0, 1, -135.3,-8.95) ">
<use xlink:href="#Layer0_0_MEMBER_1_FILL"/>
</g>

<g transform="matrix( 0.81854248046875, 0, 0, 0.81854248046875, -258.75,-8.65) ">
<use xlink:href="#Layer0_0_MEMBER_2_FILL"/>
</g>

<g transform="matrix( 1, 0, 0, 1, -1,-2) ">
<use xlink:href="#Layer0_0_MEMBER_3_FILL"/>
</g>
</svg>
