
<svg xmlns="http://www.w3.org/2000/svg" version="1.1" xmlns:xlink="http://www.w3.org/1999/xlink" preserveAspectRatio="none" x="0px" y="0px" width="150px" height="155px" viewBox="0 0 150 155">
<defs>
<g id="Layer0_0_MEMBER_0_FILL">
<path fill="#B8BE79" stroke="none" d="
M 21.5 19.95
L 21.5 157.8 159.35 157.8 159.35 19.95 21.5 19.95 Z"/>
</g>

<g id="Layer0_0_MEMBER_2_FILL">
<path fill="#DA9E8B" stroke="none" d="
M 530.9 248.8
L 530.9 250
Q 531.4646484375 250.214453125 531.9 250.35 533.246875 250.7572265625 536.8 251.65 535.2708984375 250.9560546875 533.55 250.15 531.95 249.4 530.9 248.8
M 414.35 268.4
Q 413.685546875 268.0400390625 413.05 267.5
L 413.05 287.65 529.35 287.65
Q 531.6978515625 284.2716796875 534.85 280.25 542.5 270.5 542.5 268.4 542.5 266.85 534.7 258.45 532.669140625 256.3240234375 531.05 254.6
L 531.05 254.95
Q 531.05 258.05 531.4 259.95 531.5 260.55 531.75 261.7 531.95 262.75 531.9 263.5 531.85 264.4 531.35 265.5 531.2 265.85 530.4 267.4 528.15 271.4 526.25 273.05 524.8 274.25 523.15 274.7 522.3 274.95 521.5 274.95 521.3 275.3 520.95 275.55 520.8880859375 275.6015625 520.8 275.65 520.2005859375 276.05 518.9 276.05 516.275390625 276.075 512.35 275.8 510.50390625 275.659765625 508.35 275.45 505.9462890625 275.21953125 503.15 274.9 499.647265625 274.4923828125 496.5 274.1
L 482.4 274.1 482.4 277.5
Q 482.75 277.5 483 277.85 483.45 278.5 483.55 278.6
L 483.55 282.7 483 282.7
Q 479.923046875 277.4443359375 475.35 274.2 475.4912109375 274.3705078125 475.65 274.55 476.75 275.8 479.1 278.75
L 479.95 280
Q 480.2 280.6 480.3 280.75 480.5 281.05 481.05 281.6 481.55 282.2 482.1 283.8 481.9 283.85 481.7 283.6
L 481.6 283.1
Q 481.5 282.7 481.1 282.25 480.65 281.75 480.4 281.5 479.9 281 479.2 279.8 478.1 278.1 475.4 275 474.56328125 274.04375 473.95 273.25 466.9021484375 268.95 456.6 268.95 455.25 268.95 424.85 270.1 417.35 270.1 414.35 268.4
M 501.4 178.8
Q 501.9 178.4 502.25 178.45 502.8 178.55 502.8 179.75 502.6 183.05 501 184.25 500.35 184.75 499.1 185 498.931640625 185.028125 498.75 185.05 500.2388671875 186.1595703125 500.9 186.75 503.35 188.9 503.55 190.55 499.5 192.15 487.4 199.1 475.6 205.9 474.4 207.1
L 474.4 208.85
Q 476.4296875 208.85 477.6 209.1 476.7044921875 208.63046875 476.25 208.3 476 208.05 476 207.9 476 207.55 476.45 207.55 476.7 207.6 477 207.85 477.65 208.3 480.05 209.55
L 487.85 213.45
Q 490.05 214.65 490.75 215.2 491 215.3 490.95 215.5
L 481 210.9
Q 479.4212890625 210.121484375 478.3 209.5 466.415625 212 461.3 213.9 456.998828125 215.5109375 452.25 217.9
L 447.65 221.9 452.9 220.8
Q 453.8 220.65 454.95 220.45 459.75 219.65 462.25 219.35 466.35 218.9 469.65 219 472.1 219.1 479.8 220.2 486.1 221.1 489.95 220.8 491.75 220.65 495.45 219.95 499.05 219.3 501 219.15 507 218.65 513.85 221 519.15 222.8 525.75 226.7 528.1 228.2 528.8 229.1 529.9 230.4 530.3 232.55 530.5310546875 233.7513671875 530.6 236 530.5962890625 236.20625 530.6 236.4
L 530.9 247.4
Q 531.45 247.85 532.5 248.35 537.7771484375 250.8556640625 543.05 252.9
L 550 252.9 550 251.2
Q 547.4 249.3 546.2 248.35 544.2 246.75 544.2 245.15 544.2 244.25 545.85 243.1 547.05 242.3 552.2 239.25 553.95 238.1 553.95 227.4
L 553.95 227.3
Q 553.1337890625 229.7556640625 552.65 232.1
L 552.4 232.1
Q 552.05 230.95 552.4 229.1 552.9255859375 226.647265625 553.95 224.05
L 553.95 216.25
Q 549.6 218 545.6 220.1 537.65 224.2 535.6 227.75
L 535.6 227.15
Q 539.6 223.4 544 213.4 547.65 204.05 547.65 203.95 547.65 203.4 535.1 190.95 522.5 178.5 522.5 176.25 522.5 175.5412109375 522.5 175.25
L 496.6 175.25
Q 496.55 175.45 496.55 175.7 496.6 176.6 496.8 177.2 497.3 178.45 498.75 179 500.2 179.5 501.4 178.8
M 483.2 213.8
L 483.2 213.6
Q 483.35 213.6 483.4 213.45
L 492.25 216.95
Q 492.2 217.2 491.7 217.05 486.65 215.3 483.2 213.8
M 537.7 219.6
L 542 210.05
Q 542.75 208.7 543.4 209.15
L 536.85 223.1
Q 536.5 223.8 536.15 223.7 536.65 222 537.7 219.6 Z"/>

<path fill="#B9716B" stroke="none" d="
M 559.95 217.7
L 557.4 220.7
Q 556.8 221.3 556.4 221.9 555.5 223.2 554.55 225.65 554.2302734375 226.4939453125 553.95 227.3
L 553.95 227.4
Q 553.95 238.1 552.2 239.25 547.05 242.3 545.85 243.1 544.2 244.25 544.2 245.15 544.2 246.75 546.2 248.35 547.4 249.3 550 251.2
L 550 252.9 543.05 252.9
Q 544.7271484375 253.5482421875 546.4 254.15 548 254.75 548.55 255.35 548.7 255.5 549.4 256.45 549.95 257.35 550.85 258.25 551.6 258.95 553.2 260.2 554.3 261.1 555.2 262.2 550.95 260.8 548.25 257.25 547.65 256.4 547.2 256.1 546.75 255.7 545.55 255.3 542.3431640625 254.1658203125 536.8 251.65 533.246875 250.7572265625 531.9 250.35 531.4646484375 250.214453125 530.9 250
L 531.05 254.6
Q 532.669140625 256.3240234375 534.7 258.45 542.5 266.85 542.5 268.4 542.5 270.5 534.85 280.25 531.6978515625 284.2716796875 529.35 287.65
L 560.8 287.65 560.8 216.35
Q 560.5732421875 216.7650390625 559.95 217.7
M 472.75 270.4
Q 472.8 270.5 472.85 270.7 473.3154296875 271.863671875 475.35 274.2 479.923046875 277.4443359375 483 282.7
L 483.55 282.7 483.55 278.6
Q 483.45 278.5 483 277.85 482.75 277.5 482.4 277.5
L 482.4 274.1 496.5 274.1
Q 483.3921875 272.4701171875 476.3 271.1 475 270.85 472.75 270.4
M 477.55 274.55
Q 477.7 274.55 477.8 274.65 479.45 276.4 482.6 280.8 483.2 281.7 483.35 282.2
L 480.6 278.4
Q 478.5 275.6 477.4 274.6 477.4 274.5 477.55 274.55
M 442 265.4
Q 441.85 265.75 441.7 265.9 441.45 266.4 440.8 266.65 440.5 266.7 439.95 266.7 439.35 266.7 438.8 266.55 438.7 266.55 438.6 266.5 437.75 267 436.15 267.15 430.9 267.45 425.6 267.3 423.6 267.2 422.65 266.85 422.25 266.7 420.75 265.8 420.45 265.65 420.2 265.55 415.85 264.35 414.5 260.4 414 259 413.8 257.55 413.4177734375 258.3224609375 413.05 259.1
L 413.05 267.5
Q 413.685546875 268.0400390625 414.35 268.4 417.35 270.1 424.85 270.1 455.25 268.95 456.6 268.95 466.9021484375 268.95 473.95 273.25 473.0609375 272.141796875 472.7 271.45 472.4 270.95 472.15 270.3 469.5 269.75 465.65 268.95 458.9 267.55 454.95 266.9 449 265.85 442 265.4
M 522.5 175.25
Q 522.5 175.5412109375 522.5 176.25 522.5 178.5 535.1 190.95 547.65 203.4 547.65 203.95 547.65 204.05 544 213.4 539.6 223.4 535.6 227.15
L 535.6 227.75
Q 537.65 224.2 545.6 220.1 549.6 218 553.95 216.25
L 553.95 224.05
Q 554.094921875 223.7158203125 554.25 223.35 555.2 221.3 556.05 220.2 556.8 219.35 558.35 217.85 558.35 217.8 558.4 217.8 559.2 216.9 560.2 215.25
L 560.8 214.25 560.8 202.85
Q 559.8029296875 202.982421875 558.65 202.55 558.5 202.5 558.35 202.4 557.5 202 555.85 200.8
L 541.2 189.95
Q 538.2 187.75 536.75 186.55 534.5 184.55 532.7 182.4 532.55 182.3 532.4 182.2 531.35 181.6 531.05 180.85 530.9 180.5 530.9 180 530.65 179.65 530.4 179.3 530.2 179 530.25 178.85 530.35 178.6 530.65 178.75 530.8 178.8 530.95 178.9 530.9755859375 178.6818359375 531 178.5 531.037109375 177.973046875 531 177.75 530.6 177.45 529.85 177.35 528.75 177.15 528.6 177.1 527.25 176.7 527 175.25
L 522.5 175.25 Z"/>

<path fill="#3B3D35" stroke="none" d="
M 560.2 215.25
Q 559.2 216.9 558.4 217.8 558.35 217.8 558.35 217.85 556.8 219.35 556.05 220.2 555.2 221.3 554.25 223.35 554.094921875 223.7158203125 553.95 224.05 552.9255859375 226.647265625 552.4 229.1 552.05 230.95 552.4 232.1
L 552.65 232.1
Q 553.1337890625 229.7556640625 553.95 227.3 554.2302734375 226.4939453125 554.55 225.65 555.5 223.2 556.4 221.9 556.8 221.3 557.4 220.7
L 559.95 217.7
Q 560.5732421875 216.7650390625 560.8 216.35
L 560.8 214.25 560.2 215.25
M 477.8 274.65
Q 477.7 274.55 477.55 274.55 477.4 274.5 477.4 274.6 478.5 275.6 480.6 278.4
L 483.35 282.2
Q 483.2 281.7 482.6 280.8 479.45 276.4 477.8 274.65
M 480.05 209.55
Q 477.65 208.3 477 207.85 476.7 207.6 476.45 207.55 476 207.55 476 207.9 476 208.05 476.25 208.3 476.7044921875 208.63046875 477.6 209.1 477.93046875 209.315234375 478.3 209.5 479.4212890625 210.121484375 481 210.9
L 490.95 215.5
Q 491 215.3 490.75 215.2 490.05 214.65 487.85 213.45
L 480.05 209.55
M 550.9 183.15
Q 551.040234375 183.12578125 551.15 183.1
L 552.4 182.8
Q 552.8 182.7 552.85 182.45 552.45 182.45 551.85 182.65 551.1 182.85 550.85 182.9 549.8478515625 183.0728515625 549.5 183.15 549.330859375 183.1845703125 549.3 183.2
L 549.3 183.4
Q 550.170703125 183.312890625 550.9 183.15
M 543.9 181.3
Q 543.3 181.3 543.45 181.65 545.2041015625 182.0548828125 547.55 181.3 548.68125 180.9681640625 549.95 180.35 550.95 179.85 551.4 179.35 550.55 179.45 549.3 179.95 548.3509765625 180.36875 547.8 180.55 547.3767578125 180.755859375 547.2 180.8 546.15 181.1 543.9 181.3
M 545.85 181.95
Q 545.4 182.05 545.3 182.15 545 182.35 545.2 182.65 546.2001953125 182.4978515625 547.55 182.1 549.3044921875 181.6478515625 551.65 180.8 552.95 180.4 553.5 179.9 552.1 180.05 549.7 180.85 548.462109375 181.2626953125 547.55 181.5 546.47265625 181.8416015625 545.85 181.95
M 539.85 182.1
Q 539.25 182.6 538.95 182.85 536.5 182.5 534.6 181.9 533.25 181.55 532.55 180.9 532.4 180.7 532.3 180.55 532.1 180.25 532 179.9 531.9080078125 179.623828125 531.95 178.5 531.94609375 178.4033203125 531.95 178.3 532 177.35 531.6 176.95 531.2 176.5 530.05 176.5 528.8 176.45 528.35 176.15 527.85 175.85 527.75 175.25
L 527 175.25
Q 527.25 176.7 528.6 177.1 528.75 177.15 529.85 177.35 530.6 177.45 531 177.75 531.037109375 177.973046875 531 178.5 530.9755859375 178.6818359375 530.95 178.9 530.8 178.8 530.65 178.75 530.35 178.6 530.25 178.85 530.2 179 530.4 179.3 530.65 179.65 530.9 180 530.9 180.5 531.05 180.85 531.35 181.6 532.4 182.2 532.55 182.3 532.7 182.4 534.5 184.55 536.75 186.55 538.2 187.75 541.2 189.95
L 555.85 200.8
Q 557.5 202 558.35 202.4 558.5 202.5 558.65 202.55 559.8029296875 202.982421875 560.8 202.85
L 560.8 194.6
Q 560.7009765625 194.6298828125 560.6 194.65 559.65 194.95 559.15 195.05 558.75 195.15 558.35 195.15 556.2 195.25 554.6 193.65 553.65 192.7 553.35 192.55 552.95 192.35 552.05 192.25 550.35 191.95 549 191.1 549.2 191 549.35 190.85 550.1 190.8 550.5 190.4 550.8 189.95 550.55 189.7
L 550.4 189.7
Q 550.45 189.6 550.5 189.5 550.85 188.9 550.45 188.75 550.25 188.6 549.8 188.95
L 549.05 189.65
Q 548.4 189.6 547.55 189.3 545.6 188.6 545.15 187.55 544.95 186.9 544.75 186.6 544.35 186.1 543.4 186 542.35 186.05 541.85 185.9 540.9 185.7 540.8 184.95 540.8 184.5 540.7 184.3 540.6 184.05 540.15 184.05 540.1 184.05 539.5 184.2 538.6 184.55 537.45 184.55 539.35 184.15 540.1 182.35
L 539.85 182.1
M 500.95 181.9
L 501 181.65
Q 497.3 181.85 495.2 180.85 493.8 180.1 493.05 179.9 493 180.2 493.3 180.3 494.95 181.45 497 181.9 499 182.3 500.95 181.9
M 502.25 178.45
Q 501.9 178.4 501.4 178.8 500.2 179.5 498.75 179 497.3 178.45 496.8 177.2 496.6 176.6 496.55 175.7 496.55 175.45 496.6 175.25
L 495.65 175.25
Q 495.6 176.2 495.75 177.15 496.05 179 497.05 179.75 497.8 180.3 499.2 180.35 501.2 180.4 501.5 180.45 501.4 180.85 501.15 181.7 500.95 182.4 500.6 182.8 499.8 183.9 497.35 183.9 497.2712890625 183.9 497.2 183.9 494.8646484375 183.86796875 493.8 182.9 493.4 182.5 493.15 182.55 492.7 182.65 492.9 183.3 493.1 183.85 493.8 184.3 495.4 185.3 497.6 185.2 496.1 187.15 494.05 189 493.6 188.85 493 188.85 492.1 188.85 491.65 188.8 490 188.7 489.4 187.7 489.15 186.9 489 186.5 488.4 185.3 485.8 184.55
L 485.55 183
Q 485.5 182.85 485.5 182.75 487.05 182.2 488.45 181 487.65 181.05 486.45 181.45 484.95 181.9 484.45 182 483.9 182.1 482.05 182.1 479 182 477.75 181.05 477.55 180.9 477.4 180.75 477.65 180.8 477.9 180.9 478.9 181.15 480.95 181.05 482.65 181.05 483.6 180.65 484.05 180.5 484.95 180.1 485.15 180.05 485.5 180 485.85 179.9 486 179.7
L 485.85 179.5
Q 485.65 179.55 484.55 179.55 483.35 179.75 482.75 179.8
L 480.5 179.8
Q 478.95 179.8 478.65 179.75
L 475.9 179
Q 475.5 178.85 474.95 178.5
L 472.75 177.15
Q 474.45 177.3 475.95 176.15 476.15 176 476.8 175.25
L 475.1 175.25
Q 474.55 175.6 473.9 175.7 473.55 175.8 472.8 175.8 472.45 175.75 471.75 175.75
L 471.3 175.8
Q 470.9 175.95 470.8 176.35 470.75 176.65 470.9 177.05 471.25 177.85 472.2 178.35 472.7 178.7 473.85 179.3 475.35 180.25 475.5 180.3 475.75 180.4 476.25 180.5 476.3 181.25 477.1 181.85 478.65 183.1 481.95 183.2 483.4 183.3 484.6 183
L 484.65 183 484.65 183.05
Q 484.55 184.8 485.3 185.45 485.6 185.7 486.3 185.95 487 186.2 487.25 186.4 487.6 186.7 487.85 187.45 488.2 188.4 488.35 188.65 488.9 189.45 490.1 189.8 490.8 190 492.2 190 492.65 190 492.95 189.95 491.85 190.85 490.65 191.7 487.65 193.85 481.75 197.05 473.55 201.45 470.6 203.15 464.4 206.7 459.85 209.95 457.8 211.45 452.9 215.4 448.35 218.6 443.85 221.85
L 444.4 222.15
Q 444.253515625 222.254296875 444.1 222.35 443.99140625 222.4287109375 443.85 222.5 441.9056640625 223.9544921875 440 225.55 439.5 225.7 438.9 226.05 438.519140625 226.2927734375 438.15 226.5 435.2236328125 228.415625 433.4 229.75 432.45 230.4 432.7 231.05
L 432.75 231.05
Q 421.1 238.85 413.9 250.85 413.8259765625 250.9794921875 413.75 251.1 413.64453125 251.3294921875 413.55 251.55 413.298046875 252.153125 413.05 252.75
L 413.05 259.1
Q 413.4177734375 258.3224609375 413.8 257.55 414 259 414.5 260.4 415.85 264.35 420.2 265.55 420.45 265.65 420.75 265.8 422.25 266.7 422.65 266.85 423.6 267.2 425.6 267.3 430.9 267.45 436.15 267.15 437.75 267 438.6 266.5 438.7 266.55 438.8 266.55 439.35 266.7 439.95 266.7 440.5 266.7 440.8 266.65 441.45 266.4 441.7 265.9 441.85 265.75 442 265.4 449 265.85 454.95 266.9 458.9 267.55 465.65 268.95 469.5 269.75 472.15 270.3 472.4 270.95 472.7 271.45 473.0609375 272.141796875 473.95 273.25 474.56328125 274.04375 475.4 275 478.1 278.1 479.2 279.8 479.9 281 480.4 281.5 480.65 281.75 481.1 282.25 481.5 282.7 481.6 283.1
L 481.7 283.6
Q 481.9 283.85 482.1 283.8 481.55 282.2 481.05 281.6 480.5 281.05 480.3 280.75 480.2 280.6 479.95 280
L 479.1 278.75
Q 476.75 275.8 475.65 274.55 475.4912109375 274.3705078125 475.35 274.2 473.3154296875 271.863671875 472.85 270.7 472.8 270.5 472.75 270.4 475 270.85 476.3 271.1 483.3921875 272.4701171875 496.5 274.1 499.647265625 274.4923828125 503.15 274.9 505.9462890625 275.21953125 508.35 275.45 510.50390625 275.659765625 512.35 275.8 516.275390625 276.075 518.9 276.05 520.2005859375 276.05 520.8 275.65 520.8880859375 275.6015625 520.95 275.55 521.3 275.3 521.5 274.95 522.3 274.95 523.15 274.7 524.8 274.25 526.25 273.05 528.15 271.4 530.4 267.4 531.2 265.85 531.35 265.5 531.85 264.4 531.9 263.5 531.95 262.75 531.75 261.7 531.5 260.55 531.4 259.95 531.05 258.05 531.05 254.95
L 531.05 254.6 530.9 250 530.9 248.8
Q 531.95 249.4 533.55 250.15 535.2708984375 250.9560546875 536.8 251.65 542.3431640625 254.1658203125 545.55 255.3 546.75 255.7 547.2 256.1 547.65 256.4 548.25 257.25 550.95 260.8 555.2 262.2 554.3 261.1 553.2 260.2 551.6 258.95 550.85 258.25 549.95 257.35 549.4 256.45 548.7 255.5 548.55 255.35 548 254.75 546.4 254.15 544.7271484375 253.5482421875 543.05 252.9 537.7771484375 250.8556640625 532.5 248.35 531.45 247.85 530.9 247.4
L 530.6 236.4
Q 530.5962890625 236.20625 530.6 236 530.5310546875 233.7513671875 530.3 232.55 529.9 230.4 528.8 229.1 528.1 228.2 525.75 226.7 519.15 222.8 513.85 221 507 218.65 501 219.15 499.05 219.3 495.45 219.95 491.75 220.65 489.95 220.8 486.1 221.1 479.8 220.2 472.1 219.1 469.65 219 466.35 218.9 462.25 219.35 459.75 219.65 454.95 220.45 453.8 220.65 452.9 220.8
L 447.65 221.9 452.25 217.9 453.8 216.55
Q 460.8 211.05 465 208.3 468.8 205.8 474.55 202.65 477.8 200.85 484.3 197.35 488.95 194.8 491.75 192.75 495.65 189.9 498 186.7 498.45 186.15 498.5 185.5 498.5 185.3 498.5 185.1 498.631640625 185.078125 498.75 185.05 498.931640625 185.028125 499.1 185 500.35 184.75 501 184.25 502.6 183.05 502.8 179.75 502.8 178.55 502.25 178.45
M 478.35 221.4
Q 480.2376953125 221.700390625 481.85 221.9 485.9796875 222.40703125 488.55 222.3 490.6123046875 222.2123046875 495.15 221.45 495.814453125 221.3662109375 496.5 221.25 501.55 220.4 504.45 220.5 509.05 220.65 514.45 222.75 517.8 224 523.85 227.2 525.55 228.1 526.3 228.65 527.55 229.6 528.2 230.7 529.0017578125 232.067578125 529.1 235.15 529.1443359375 235.3568359375 529.15 235.55
L 529.45 246.95
Q 529.35 247.05 529.3 247.15 529.1 247.5 529.5 247.9
L 529.65 254.65
Q 529.75 258.6 530.1 260.5 530.55 262.65 530.45 263.45 530.4 264.4 529.5 266.2 527.85 269.45 525.5 271.6 523.7 273.25 521.75 274.05 521.75 273.6 521.6 273.05 521.3 272.05 520.2 270.75 520 271.25 520.35 272.45 520.7 273.6 520.4 274.1 519.95 274.85 518.35 274.75 510.85 274.4 497.75 272.8 482.1 270.9 474.5 269.4 471.4 268.8 465.9 267.6 459.85 266.25 457.3 265.75 452.4 264.8 449.1 264.6 445.3 264.4 442.1 265.05 442.1 264.9 442.15 264.7
L 442.4 263.3
Q 442.4 262.6 442.45 262.45
L 442.7 261.8
Q 442.7 261.2 442.75 261.05 443.1 260.5 443.25 260.2 443.3 259.65 443.4 259.4 443.45 259.15 443.75 258.75
L 444.1 258.1 445.55 253.65
Q 445.85 252.95 446.1 252.6 446.123828125 252.5443359375 446.15 252.5 446.2419921875 252.2341796875 446.2 252.15 446.1 251.85 445.85 252 445.7 252.05 445.5 252.25 445.2 252.65 444.85 253.35 444.4 254.35 444.35 254.5 443.95 255.1 443.85 255.45 443.7 255.95 443.7 256 443.653515625 256.1396484375 443.55 256.3
L 443.55 256.35
Q 443.5 256.45 443.5 256.8 443.4 257.2 442.9 257.75
L 442.75 258.45
Q 442.65 258.6 442.4 258.85 442.3 259 442.3 259.35 442.25 259.55 442 259.95 441.75 260.3 441.7 260.55 441.65 260.75 441.6 261.2
L 441.4 261.6
Q 441.35 261.75 441.35 262.4
L 441.25 263.35 441 264.45
Q 440.8 265.15 440.6 265.3 440.25 265.65 439.25 265.6 438.4 265.55 438 265.8
L 428.6 266
Q 427 266.05 426.2 266 424.85 265.95 423.85 265.6 423.1 265.35 422.05 264.85 420.95 264.25 420.35 263.95 420.25 263.9 420.2 263.9 419.4 263.5 418.7 263 414.574609375 260.181640625 415.15 255.8 415.324609375 254.8529296875 415.7 253.8
L 415.4 253.4
Q 415.5 252.85 415.65 252.3 415.85 251.55 416.1 250.85 424.15 238.15 436 229.2 438.65 229.2 442.3 228.3 448.8 226.65 449.55 226.5 452.144921875 226.075390625 457.2 226.15 457.5369140625 226.1443359375 457.85 226.15 462.15 226.15 464.55 226.75 465.55 227 467.5 227.75 468.1939453125 228.0056640625 468.75 228.2 469.765234375 228.54140625 470.4 228.7 471.64921875 229.00546875 473.65 229.1 475.2595703125 229.166796875 477.35 229.1 482 228.95 484.25 229.5 485.3 229.75 487.3 230.55 489.35 231.3 490.35 231.55 492.4 232.1 496.7 232.1
L 503.4 232.05
Q 504.7216796875 233.0578125 506.2 233.95 509.2501953125 235.8599609375 513 237.4 515.2576171875 238.340625 518.4 239.35 518.5982421875 239.434765625 518.8 239.5 518.75 244.05 518.5 248.5
L 517.75 257.3
Q 517.65 259.15 517.8 260.55 517.85 261.1 517.8 261.45
L 516.7 261.35 510.45 260.7
Q 503.8 260.05 501.6 259.65
L 472.85 254.9
Q 465.05 253.7 461 253.4 459.9615234375 253.3134765625 458.95 253.25 453.573828125 252.95234375 449.15 253.5 457.35 253.75 465.35 254.85 468.2 255.25 475.9 256.5 482.5 257.55 486.4 258 488.35234375 258.2384765625 489.8 258.4 493.1884765625 258.8447265625 493.75 258.95
L 499.95 260.3
Q 502.4919921875 260.8158203125 506.15 261.25 507.2220703125 261.378515625 508.4 261.5 508.652734375 261.5251953125 508.9 261.55
L 516.05 262.3
Q 516.8 262.4 517.35 262.3 517.8 262.25 518.1 262.05 518.4 261.85 518.55 261.5
L 518.35 261.5
Q 518.4 261.25 518.4 261
L 519.15 250.5
Q 519.55 245.15 519.6 239.75 521.65 240.4 524 241.05 522.85 240.3 521.15 239.65 520.3 239.35 519.6 239.1 519.6 239 519.6 238.95 519.7 237.15 519.5 235.9 519.35 234.75 518.9 234.15 518.2 232.95 516.35 232.6 515.85 232.5 513.25 232.5 510.15 232.6 507.35 232.15 507.8 232.9 509.45 233.1 510.0083984375 233.159375 510.5 233.2 512.227734375 233.35 513.6 233.35 515.3 233.35 516.1 233.5 517.6 233.85 518.2 234.8 518.30703125 234.9529296875 518.4 235.15 518.6111328125 235.6517578125 518.75 236.45 518.9 237.5 518.85 238.85 518.6134765625 238.7486328125 518.4 238.65 518.297265625 238.632421875 518.2 238.6 512.2138671875 236.5279296875 507.5 233.75 506.10234375 232.9453125 504.8 232.05
L 505.95 232.05
Q 506.35 232.05 506.7 231.75 507.1 231.45 506.8 231.2
L 503.6 231.2
Q 501.85 229.9 500.3 228.45 500.1 228.4 499.95 228.6 499.8 228.8 499.85 229.05 500 229.4 500.4 229.65 501.65 230.65 502.3 231.2
L 496.15 231.2
Q 492.55 231.2 490.55 230.7 489.55 230.45 487.85 229.7 486 228.95 485.2 228.7 482.75 228 477.8 228.15 472.7 228.3 470.4 227.7 469.35 227.45 467.55 226.75 465.65 226.05 464.75 225.8 462.3 225.15 457.8 225.15 454.3669921875 225.076953125 451.95 225.25 451.09140625 225.3421875 450.35 225.45 447.65 225.8 443.75 226.9
L 436.65 228.75
Q 436.75 228.65 436.9 228.55
L 437.75 228.05 439.35 226.85
Q 439.97890625 226.4498046875 440.5 226.15 440.907421875 225.9212890625 441.25 225.75 441.3 225.65 441.25 225.55 443.1412109375 224.33671875 445.1 223.2 445.8982421875 222.74375 446.7 222.3
L 446.6 223.15
Q 446.5751953125 223.1748046875 446.55 223.2 445.8515625 223.9365234375 445.9 225 445.9 225.137109375 445.95 225.3
L 446 225.35
Q 446.0537109375 225.328125 446.1 225.3 447.3580078125 224.740234375 447.55 223.3 447.5583984375 223.24921875 447.55 223.2 447.6169921875 222.9576171875 447.7 222.75
L 460.3 221
Q 465.5 220.3 468.15 220.3 471.4 220.3 478.35 221.4
M 436.75 254.3
Q 437.7 254.25 437.75 254.2 438.35 254.1 438.6 253.75 438.0466796875 253.6392578125 437.4 253.6 436.380859375 253.5421875 435.15 253.7 434.75 253.75 431.65 254.35 429.4 254.8 427.05 254.95 426.15 255.05 425.75 255.2
L 424.65 255.75 423.8 255.85
Q 419.45 256.05 417.1 255.45 416.25 255.25 416.15 254.75
L 416.1 254.25
Q 416.05 254.15 415.95 254.1 415.8 254.05 415.75 254.1 415.45 254.85 415.7 255.35 415.85 255.6 416.3 255.8 416.9587890625 256.1388671875 417.9 256.35 419.4615234375 256.7 421.8 256.7
L 424 256.7
Q 424.55 256.7 424.8 256.65
L 425.75 256.3
Q 426.5 256 428.1 255.8 429.699609375 255.6265625 430.9 255.45 432.7896484375 255.2150390625 433.65 255 435.85 254.35 436.75 254.3
M 508.65 236.85
Q 512 239 516.05 240.55 516.5 240.7 516.4 240.4 513.2 239.2 509.85 237.3 509.05 236.85 508.65 236.85
M 489.35 238.9
L 489.55 239.1 504.75 247.55
Q 507.9 249.1 515 251.55 515 251.3 514.55 251.05 511.3 249.7 509.65 249 506.7 247.8 504.8 246.8 502.75 245.8 497.4 242.7 492.8 240 489.9 238.75 489.75 238.65 489.55 238.7 489.3 238.75 489.35 238.9
M 491.6 247.35
Q 488.85 246.1 487.75 245.3 486.1 244 485.25 243.45 486.75 245.4 490 246.85
L 492.75 248.05
Q 494.4 248.8 495.4 249.4 496.5 250.1 497.2 249.9
L 491.6 247.35
M 468.25 239.4
Q 469.45 241.65 472.4 243.8 474 244.95 477.6 246.85 480.7 248.45 490.05 253.15
L 496.7 256.45
Q 497.8 256.95 498.4 257 490.75 252.75 482.45 248.7 477.4 246.2 475.3 245 471.45 242.65 469.1 240.05 468.65 239.5 468.25 239.4
M 461.8 240.5
Q 460.35 239.75 459.95 239.65 459.9 239.85 460.25 240.1 461.2 240.65 463.05 241.75 464.65 242.7 465.7 243.6 466.25 244 467.25 244.9 469.1 246.5 472.7 248.85
L 474.9 250.35
Q 475.2 250.5 475.25 250.35
L 470.05 246.55
Q 468.05 245.05 467.15 244.25 466.1 243.35 465.6 242.95 464.4 242 461.8 240.5
M 448.7 244
Q 448.45 243.55 447.5 243.25 443.95 242.05 440.65 240.5 438.85 239.65 437.9 239.95 438 240.2 438.65 240.3 439.45 240.4 441.05 241.15 443.8 242.5 448.7 244
M 495.15 268.15
L 495.2 267.95
Q 494.6 267.65 493.35 267.4 492.1 267.1 491.5 266.85
L 491.3 267
Q 491.5 267.15 492.2 267.4
L 495.15 268.15
M 453.65 257.95
Q 453.6 259 453.8 259.65 454 260.35 454.55 261.15 455.25 262.2 456.05 263.1 455.75 261.85 455 260.9 454.4 260.05 454.2 259.6 454 259 454 257.9 454.05 256.65 453.95 256.2
L 453.65 256.2
Q 453.7 256.5 453.65 257.95
M 483.75 264.45
Q 483.6 264.7 483.35 264.7 487.9 268.5 493.9 269.2 493.15 268.85 491.9 268.45 490.1 267.9 489.9 267.85 486.6 266.8 483.75 264.45
M 444.25 261.45
Q 443.9 262.45 443.75 262.65
L 443.4 263.25
Q 443.05 263.95 443 264
L 443.15 264.15
Q 443.9 263.5 444.35 262.5
L 444.8 261.3
Q 445.55 259.45 446.75 258.15
L 446.55 257.95
Q 446.2 258.1 445.7 258.7 444.75 260.05 444.25 261.45
M 542 210.05
L 537.7 219.6
Q 536.65 222 536.15 223.7 536.5 223.8 536.85 223.1
L 543.4 209.15
Q 542.75 208.7 542 210.05
M 483.2 213.6
L 483.2 213.8
Q 486.65 215.3 491.7 217.05 492.2 217.2 492.25 216.95
L 483.4 213.45
Q 483.35 213.6 483.2 213.6 Z"/>

<path fill="#767062" stroke="none" d="
M 539.8 180.25
Q 544.85 180.25 545.4 180.15 546.5 180 549.3 178.5 548.7689453125 179.5619140625 547.8 180.55 548.3509765625 180.36875 549.3 179.95 550.55 179.45 551.4 179.35 550.95 179.85 549.95 180.35 548.68125 180.9681640625 547.55 181.3
L 547.55 181.5
Q 548.462109375 181.2626953125 549.7 180.85 552.1 180.05 553.5 179.9 552.95 180.4 551.65 180.8 549.3044921875 181.6478515625 547.55 182.1
L 547.55 183.15 549.5 183.15
Q 549.8478515625 183.0728515625 550.85 182.9 551.1 182.85 551.85 182.65 552.45 182.45 552.85 182.45 552.8 182.7 552.4 182.8
L 551.15 183.1
Q 551.040234375 183.12578125 550.9 183.15
L 553.3 183.15
Q 556.190234375 182.228515625 560.8 179.7
L 560.8 175.25 527.75 175.25
Q 527.85 175.85 528.35 176.15 528.8 176.45 530.05 176.5 531.2 176.5 531.6 176.95 532 177.35 531.95 178.3 531.94609375 178.4033203125 531.95 178.5
L 532.15 178.5
Q 535.3 180.25 539.8 180.25
M 497.2 183.9
Q 497.2712890625 183.9 497.35 183.9 499.8 183.9 500.6 182.8 500.95 182.4 501.15 181.7 501.4 180.85 501.5 180.45 501.2 180.4 499.2 180.35 497.8 180.3 497.05 179.75 496.05 179 495.75 177.15 495.6 176.2 495.65 175.25
L 476.8 175.25
Q 476.15 176 475.95 176.15 474.45 177.3 472.75 177.15
L 474.95 178.5
Q 475.5 178.85 475.9 179
L 478.65 179.75
Q 478.95 179.8 480.5 179.8
L 482.75 179.8
Q 483.35 179.75 484.55 179.55 485.65 179.55 485.85 179.5
L 486 179.7
Q 485.85 179.9 485.5 180 485.15 180.05 484.95 180.1 484.05 180.5 483.6 180.65 482.65 181.05 480.95 181.05 478.9 181.15 477.9 180.9 477.65 180.8 477.4 180.75 477.55 180.9 477.75 181.05 479 182 482.05 182.1 483.9 182.1 484.45 182 484.95 181.9 486.45 181.45 487.65 181.05 488.45 181 487.05 182.2 485.5 182.75 485.5 182.85 485.55 183
L 485.8 184.55
Q 488.4 185.3 489 186.5 489.15 186.9 489.4 187.7 490 188.7 491.65 188.8 492.1 188.85 493 188.85 493.6 188.85 494.05 189 496.1 187.15 497.6 185.2 495.4 185.3 493.8 184.3 493.1 183.85 492.9 183.3 492.7 182.65 493.15 182.55 493.4 182.5 493.8 182.9 494.8646484375 183.86796875 497.2 183.9
M 501 181.65
L 500.95 181.9
Q 499 182.3 497 181.9 494.95 181.45 493.3 180.3 493 180.2 493.05 179.9 493.8 180.1 495.2 180.85 497.3 181.85 501 181.65 Z"/>

<path fill="#665945" stroke="none" d="
M 538.95 182.85
Q 539.25 182.6 539.85 182.1
L 540.1 182.35
Q 539.35 184.15 537.45 184.55 538.6 184.55 539.5 184.2 540.1 184.05 540.15 184.05 540.6 184.05 540.7 184.3 540.8 184.5 540.8 184.95 540.9 185.7 541.85 185.9 542.35 186.05 543.4 186 544.35 186.1 544.75 186.6 544.95 186.9 545.15 187.55 545.6 188.6 547.55 189.3 548.4 189.6 549.05 189.65
L 549.8 188.95
Q 550.25 188.6 550.45 188.75 550.85 188.9 550.5 189.5 550.45 189.6 550.4 189.7
L 550.55 189.7
Q 550.8 189.95 550.5 190.4 550.1 190.8 549.35 190.85 549.2 191 549 191.1 550.35 191.95 552.05 192.25 552.95 192.35 553.35 192.55 553.65 192.7 554.6 193.65 556.2 195.25 558.35 195.15 558.75 195.15 559.15 195.05 559.65 194.95 560.6 194.65 560.7009765625 194.6298828125 560.8 194.6
L 560.8 179.7
Q 556.190234375 182.228515625 553.3 183.15
L 550.9 183.15
Q 550.170703125 183.312890625 549.3 183.4
L 549.3 183.2
Q 549.330859375 183.1845703125 549.5 183.15
L 547.55 183.15 547.55 182.1
Q 546.2001953125 182.4978515625 545.2 182.65 545 182.35 545.3 182.15 545.4 182.05 545.85 181.95 546.47265625 181.8416015625 547.55 181.5
L 547.55 181.3
Q 545.2041015625 182.0548828125 543.45 181.65 543.3 181.3 543.9 181.3 546.15 181.1 547.2 180.8 547.3767578125 180.755859375 547.8 180.55 548.7689453125 179.5619140625 549.3 178.5 546.5 180 545.4 180.15 544.85 180.25 539.8 180.25 535.3 180.25 532.15 178.5
L 531.95 178.5
Q 531.9080078125 179.623828125 532 179.9 532.1 180.25 532.3 180.55 532.4 180.7 532.55 180.9 533.25 181.55 534.6 181.9 536.5 182.5 538.95 182.85 Z"/>

<path fill="#E3B39B" stroke="none" d="
M 498.5 185.1
Q 498.5 185.3 498.5 185.5 498.45 186.15 498 186.7 495.65 189.9 491.75 192.75 488.95 194.8 484.3 197.35 477.8 200.85 474.55 202.65 468.8 205.8 465 208.3 460.8 211.05 453.8 216.55
L 452.25 217.9
Q 456.998828125 215.5109375 461.3 213.9 466.415625 212 478.3 209.5 477.93046875 209.315234375 477.6 209.1 476.4296875 208.85 474.4 208.85
L 474.4 207.1
Q 475.6 205.9 487.4 199.1 499.5 192.15 503.55 190.55 503.35 188.9 500.9 186.75 500.2388671875 186.1595703125 498.75 185.05 498.631640625 185.078125 498.5 185.1 Z"/>

<path fill="#ECDCCF" stroke="none" d="
M 518.8 239.5
Q 518.5982421875 239.434765625 518.4 239.35
L 518.4 245.5
Q 517.45 248.15 517.2 253.15 517.0029296875 255.9091796875 516.7 261.35
L 517.8 261.45
Q 517.85 261.1 517.8 260.55 517.65 259.15 517.75 257.3
L 518.5 248.5
Q 518.75 244.05 518.8 239.5
M 518.75 236.45
Q 518.6111328125 235.6517578125 518.4 235.15
L 518.4 238.65
Q 518.6134765625 238.7486328125 518.85 238.85 518.9 237.5 518.75 236.45
M 437.75 254.2
Q 437.7 254.25 436.75 254.3 435.85 254.35 433.65 255 432.7896484375 255.2150390625 430.9 255.45 429.699609375 255.6265625 428.1 255.8 426.5 256 425.75 256.3
L 424.8 256.65
Q 424.55 256.7 424 256.7
L 421.8 256.7
Q 419.4615234375 256.7 417.9 256.35
L 415.35 256.35
Q 415.266796875 256.0830078125 415.15 255.8 414.574609375 260.181640625 418.7 263 419.4 263.5 420.2 263.9 420.25 263.9 420.35 263.95 420.95 264.25 422.05 264.85 423.1 265.35 423.85 265.6 424.85 265.95 426.2 266 427 266.05 428.6 266
L 438 265.8
Q 438.4 265.55 439.25 265.6 440.25 265.65 440.6 265.3 440.8 265.15 441 264.45
L 441.25 263.35 441.35 262.4
Q 441.35 261.75 441.4 261.6
L 441.6 261.2
Q 441.65 260.75 441.7 260.55 441.75 260.3 442 259.95 442.25 259.55 442.3 259.35 442.3 259 442.4 258.85 442.65 258.6 442.75 258.45
L 442.9 257.75
Q 443.4 257.2 443.5 256.8 443.5 256.45 443.55 256.35
L 443.55 256.3
Q 443.6212890625 255.802734375 443.7 255.2 443.95 252.95 443.95 251.8 440.308984375 252.7984375 437.4 253.6 438.0466796875 253.6392578125 438.6 253.75 438.35 254.1 437.75 254.2
M 484.25 229.5
Q 482 228.95 477.35 229.1 475.2595703125 229.166796875 473.65 229.1 474.728125 229.29296875 475.85 229.5 500.5 234.05 505.5 234.05 505.7244140625 234.05 506.2 233.95 504.7216796875 233.0578125 503.4 232.05
L 496.7 232.1
Q 492.4 232.1 490.35 231.55 489.35 231.3 487.3 230.55 485.3 229.75 484.25 229.5
M 457.8 225.15
Q 462.3 225.15 464.75 225.8 465.65 226.05 467.55 226.75 469.35 227.45 470.4 227.7 472.7 228.3 477.8 228.15 482.75 228 485.2 228.7 486 228.95 487.85 229.7 489.55 230.45 490.55 230.7 492.55 231.2 496.15 231.2
L 502.3 231.2
Q 501.65 230.65 500.4 229.65 500 229.4 499.85 229.05 499.8 228.8 499.95 228.6 500.1 228.4 500.3 228.45 501.85 229.9 503.6 231.2
L 506.8 231.2
Q 507.1 231.45 506.7 231.75 506.35 232.05 505.95 232.05
L 504.8 232.05
Q 506.10234375 232.9453125 507.5 233.75 508.1873046875 233.663671875 509.05 233.5 509.8837890625 233.3275390625 510.5 233.2 510.0083984375 233.159375 509.45 233.1 507.8 232.9 507.35 232.15 510.15 232.6 513.25 232.5 515.85 232.5 516.35 232.6 518.2 232.95 518.9 234.15 519.35 234.75 519.5 235.9 519.7 237.15 519.6 238.95 519.6 239 519.6 239.1 520.3 239.35 521.15 239.65 522.85 240.3 524 241.05 521.65 240.4 519.6 239.75 519.55 245.15 519.15 250.5
L 518.4 261
Q 518.4 261.25 518.35 261.5
L 518.55 261.5
Q 518.4 261.85 518.1 262.05 517.8 262.25 517.35 262.3 516.8 262.4 516.05 262.3
L 508.9 261.55
Q 508.652734375 261.5251953125 508.4 261.5 507.2220703125 261.378515625 506.15 261.25 502.4919921875 260.8158203125 499.95 260.3
L 493.75 258.95
Q 493.1884765625 258.8447265625 489.8 258.4 488.35234375 258.2384765625 486.4 258 482.5 257.55 475.9 256.5 468.2 255.25 465.35 254.85 457.35 253.75 449.15 253.5 453.573828125 252.95234375 458.95 253.25 450.17890625 251.8 450 251.8 447.462890625 251.8 446.15 252.5 446.123828125 252.5443359375 446.1 252.6 445.85 252.95 445.55 253.65
L 444.1 258.1 443.75 258.75
Q 443.45 259.15 443.4 259.4 443.3 259.65 443.25 260.2 443.1 260.5 442.75 261.05 442.7 261.2 442.7 261.8
L 442.45 262.45
Q 442.4 262.6 442.4 263.3
L 442.15 264.7
Q 442.1 264.9 442.1 265.05 445.3 264.4 449.1 264.6 452.4 264.8 457.3 265.75 459.85 266.25 465.9 267.6 471.4 268.8 474.5 269.4 482.1 270.9 497.75 272.8 510.85 274.4 518.35 274.75 519.95 274.85 520.4 274.1 520.7 273.6 520.35 272.45 520 271.25 520.2 270.75 521.3 272.05 521.6 273.05 521.75 273.6 521.75 274.05 523.7 273.25 525.5 271.6 527.85 269.45 529.5 266.2 530.4 264.4 530.45 263.45 530.55 262.65 530.1 260.5 529.75 258.6 529.65 254.65
L 529.5 247.9
Q 529.1 247.5 529.3 247.15 529.35 247.05 529.45 246.95
L 529.15 235.55
Q 529.1443359375 235.3568359375 529.1 235.15 516.8251953125 227.9892578125 512.45 225.75 504.9390625 221.95078125 495.15 221.45 490.6123046875 222.2123046875 488.55 222.3 485.9796875 222.40703125 481.85 221.9 479.0787109375 222.346484375 477.7 223.2
L 447.55 223.2
Q 447.5583984375 223.24921875 447.55 223.3 447.3580078125 224.740234375 446.1 225.3 446.0537109375 225.328125 446 225.35
L 445.95 225.3
Q 445.9 225.137109375 445.9 225 445.8515625 223.9365234375 446.55 223.2 446.5751953125 223.1748046875 446.6 223.15
L 446.7 222.3
Q 445.8982421875 222.74375 445.1 223.2 443.1412109375 224.33671875 441.25 225.55 441.3 225.65 441.25 225.75 440.907421875 225.9212890625 440.5 226.15 439.97890625 226.4498046875 439.35 226.85
L 437.75 228.05 436.9 228.55
Q 436.75 228.65 436.65 228.75
L 443.75 226.9
Q 447.65 225.8 450.35 225.45 451.09140625 225.3421875 451.95 225.25 454.3669921875 225.076953125 457.8 225.15
M 443.75 262.65
Q 443.9 262.45 444.25 261.45 444.75 260.05 445.7 258.7 446.2 258.1 446.55 257.95
L 446.75 258.15
Q 445.55 259.45 444.8 261.3
L 444.35 262.5
Q 443.9 263.5 443.15 264.15
L 443 264
Q 443.05 263.95 443.4 263.25
L 443.75 262.65
M 485.8 262.45
Q 485.45 262 485.6 261.35 485.75 260.7 486.3 260.65 486.5 260.65 487.45 261.1 488.4 261.65 490.7 262.05 500.65 263.9 509.2 266.05 512.85 267 514.05 268.4 508.65 268.05 499.3 265.95
L 487.75 263.4
Q 486.3 263.1 485.8 262.45
M 483.35 264.7
Q 483.6 264.7 483.75 264.45 486.6 266.8 489.9 267.85 490.1 267.9 491.9 268.45 493.15 268.85 493.9 269.2 487.9 268.5 483.35 264.7
M 453.8 259.65
Q 453.6 259 453.65 257.95 453.7 256.5 453.65 256.2
L 453.95 256.2
Q 454.05 256.65 454 257.9 454 259 454.2 259.6 454.4 260.05 455 260.9 455.75 261.85 456.05 263.1 455.25 262.2 454.55 261.15 454 260.35 453.8 259.65
M 511.1 270.55
Q 508.75 270.7 506.7 270.5 504.05 270.25 500.6 269.55 499.25 269.35 499.15 268.6 499.1 268.25 499.35 267.95 499.6 267.65 500 267.55 500.6 267.35 501.45 267.65 506.05 268.6 510.15 268.6 512 268.65 512.55 268.75 513.85 268.95 514.65 269.6 513.5 270.45 511.1 270.55
M 495.2 267.95
L 495.15 268.15 492.2 267.4
Q 491.5 267.15 491.3 267
L 491.5 266.85
Q 492.1 267.1 493.35 267.4 494.6 267.65 495.2 267.95
M 457.85 226.15
Q 457.5369140625 226.1443359375 457.2 226.15 461.7234375 226.9203125 468.75 228.2 468.1939453125 228.0056640625 467.5 227.75 465.55 227 464.55 226.75 462.15 226.15 457.85 226.15 Z"/>

<path fill="#F8EAE9" stroke="none" d="
M 509.05 233.5
Q 508.1873046875 233.663671875 507.5 233.75 512.2138671875 236.5279296875 518.2 238.6 518.297265625 238.632421875 518.4 238.65
L 518.4 235.15
Q 518.30703125 234.9529296875 518.2 234.8 517.6 233.85 516.1 233.5 515.3 233.35 513.6 233.35 512.227734375 233.35 510.5 233.2 509.8837890625 233.3275390625 509.05 233.5
M 529.1 235.15
Q 529.0017578125 232.067578125 528.2 230.7 527.55 229.6 526.3 228.65 525.55 228.1 523.85 227.2 517.8 224 514.45 222.75 509.05 220.65 504.45 220.5 501.55 220.4 496.5 221.25 495.814453125 221.3662109375 495.15 221.45 504.9390625 221.95078125 512.45 225.75 516.8251953125 227.9892578125 529.1 235.15
M 457.2 226.15
Q 452.144921875 226.075390625 449.55 226.5 448.8 226.65 442.3 228.3 438.65 229.2 436 229.2 424.15 238.15 416.1 250.85 415.85 251.55 415.65 252.3 415.5 252.85 415.4 253.4
L 415.7 253.8
Q 415.324609375 254.8529296875 415.15 255.8 415.266796875 256.0830078125 415.35 256.35
L 417.9 256.35
Q 416.9587890625 256.1388671875 416.3 255.8 415.85 255.6 415.7 255.35 415.45 254.85 415.75 254.1 415.8 254.05 415.95 254.1 416.05 254.15 416.1 254.25
L 416.15 254.75
Q 416.25 255.25 417.1 255.45 419.45 256.05 423.8 255.85
L 424.65 255.75 425.75 255.2
Q 426.15 255.05 427.05 254.95 429.4 254.8 431.65 254.35 434.75 253.75 435.15 253.7 436.380859375 253.5421875 437.4 253.6 440.308984375 252.7984375 443.95 251.8 443.95 252.95 443.7 255.2 443.6212890625 255.802734375 443.55 256.3 443.653515625 256.1396484375 443.7 256 443.7 255.95 443.85 255.45 443.95 255.1 444.35 254.5 444.4 254.35 444.85 253.35 445.2 252.65 445.5 252.25 445.7 252.05 445.85 252 446.1 251.85 446.2 252.15 446.2419921875 252.2341796875 446.15 252.5 447.462890625 251.8 450 251.8 450.17890625 251.8 458.95 253.25 459.9615234375 253.3134765625 461 253.4 465.05 253.7 472.85 254.9
L 501.6 259.65
Q 503.8 260.05 510.45 260.7
L 516.7 261.35
Q 517.0029296875 255.9091796875 517.2 253.15 517.45 248.15 518.4 245.5
L 518.4 239.35
Q 515.2576171875 238.340625 513 237.4 509.2501953125 235.8599609375 506.2 233.95 505.7244140625 234.05 505.5 234.05 500.5 234.05 475.85 229.5 474.728125 229.29296875 473.65 229.1 471.64921875 229.00546875 470.4 228.7 469.765234375 228.54140625 468.75 228.2 461.7234375 226.9203125 457.2 226.15
M 447.5 243.25
Q 448.45 243.55 448.7 244 443.8 242.5 441.05 241.15 439.45 240.4 438.65 240.3 438 240.2 437.9 239.95 438.85 239.65 440.65 240.5 443.95 242.05 447.5 243.25
M 459.95 239.65
Q 460.35 239.75 461.8 240.5 464.4 242 465.6 242.95 466.1 243.35 467.15 244.25 468.05 245.05 470.05 246.55
L 475.25 250.35
Q 475.2 250.5 474.9 250.35
L 472.7 248.85
Q 469.1 246.5 467.25 244.9 466.25 244 465.7 243.6 464.65 242.7 463.05 241.75 461.2 240.65 460.25 240.1 459.9 239.85 459.95 239.65
M 472.4 243.8
Q 469.45 241.65 468.25 239.4 468.65 239.5 469.1 240.05 471.45 242.65 475.3 245 477.4 246.2 482.45 248.7 490.75 252.75 498.4 257 497.8 256.95 496.7 256.45
L 490.05 253.15
Q 480.7 248.45 477.6 246.85 474 244.95 472.4 243.8
M 487.75 245.3
Q 488.85 246.1 491.6 247.35
L 497.2 249.9
Q 496.5 250.1 495.4 249.4 494.4 248.8 492.75 248.05
L 490 246.85
Q 486.75 245.4 485.25 243.45 486.1 244 487.75 245.3
M 489.55 239.1
L 489.35 238.9
Q 489.3 238.75 489.55 238.7 489.75 238.65 489.9 238.75 492.8 240 497.4 242.7 502.75 245.8 504.8 246.8 506.7 247.8 509.65 249 511.3 249.7 514.55 251.05 515 251.3 515 251.55 507.9 249.1 504.75 247.55
L 489.55 239.1
M 516.05 240.55
Q 512 239 508.65 236.85 509.05 236.85 509.85 237.3 513.2 239.2 516.4 240.4 516.5 240.7 516.05 240.55
M 506.7 270.5
Q 508.75 270.7 511.1 270.55 513.5 270.45 514.65 269.6 513.85 268.95 512.55 268.75 512 268.65 510.15 268.6 506.05 268.6 501.45 267.65 500.6 267.35 500 267.55 499.6 267.65 499.35 267.95 499.1 268.25 499.15 268.6 499.25 269.35 500.6 269.55 504.05 270.25 506.7 270.5
M 485.6 261.35
Q 485.45 262 485.8 262.45 486.3 263.1 487.75 263.4
L 499.3 265.95
Q 508.65 268.05 514.05 268.4 512.85 267 509.2 266.05 500.65 263.9 490.7 262.05 488.4 261.65 487.45 261.1 486.5 260.65 486.3 260.65 485.75 260.7 485.6 261.35
M 481.85 221.9
Q 480.2376953125 221.700390625 478.35 221.4 471.4 220.3 468.15 220.3 465.5 220.3 460.3 221
L 447.7 222.75
Q 447.6169921875 222.9576171875 447.55 223.2
L 477.7 223.2
Q 479.0787109375 222.346484375 481.85 221.9 Z"/>
</g>

<path id="Layer0_0_MEMBER_1_1_STROKES" stroke="#E1C99B" stroke-width="2" stroke-linejoin="round" stroke-linecap="round" fill="none" d="
M 1.6392761230468764 115.75781555175782
L 149.35854187011716 115.75781555175782 149.35854187011716 155.13890380859374 1.6392761230468764 155.13890380859374 1.6392761230468764 115.75781555175782 Z"/>
</defs>

<g transform="matrix( 1.07159423828125, 0, 0, 0.802642822265625, -21.4,-13.15) ">
<use xlink:href="#Layer0_0_MEMBER_0_FILL"/>
</g>

<g transform="matrix( 1.07159423828125, 0, 0, 1.07159423828125, -21.4,-4.1) ">
<use xlink:href="#Layer0_0_MEMBER_1_1_STROKES" transform="matrix( 0.9331817626953125, 0, 0, 0.9331817626953125, 19.95,3.8) "/>
</g>

<g transform="matrix( 1, 0, 0, 1, -411.4,-173.4) ">
<use xlink:href="#Layer0_0_MEMBER_2_FILL"/>
</g>
</svg>
