
<svg xmlns="http://www.w3.org/2000/svg" version="1.1" xmlns:xlink="http://www.w3.org/1999/xlink" preserveAspectRatio="none" x="0px" y="0px" width="121px" height="122px" viewBox="0 0 121 122">
<defs>
<g id="Layer0_0_MEMBER_0_FILL">
<path fill="#B8BE79" stroke="none" d="
M 165.65 120.75
L 165.65 10.15 17.95 10.15 17.95 29.15
Q 17.85 29.15 17.8 29.15 17.65 29.25 17.55 29.5
L 17.55 31.55 17.75 32.2
Q 17.8 32.5 17.95 32.75
L 17.95 63.6
Q 17.75 63.8 17.55 64.05
L 17.55 65.55
Q 17.75 65.4 17.95 65.3
L 17.95 120.75 165.65 120.75 Z"/>
</g>

<g id="Layer0_0_MEMBER_1_FILL">
<path fill="#E1C99B" stroke="none" d="
M 21.5 111.85
L 21.5 148.6 159.35 148.6 159.35 111.85 21.5 111.85 Z"/>
</g>

<g id="Layer0_0_MEMBER_2_FILL">
<path fill="#EDEBD3" stroke="none" d="
M 208.2 110.95
Q 205.85 108.8 203.6 108.55
L 201.75 108.4
Q 200.6 108.2 200.35 107.25
L 200.25 106.4
Q 200.1 105.3 198.55 104.6 197.3 104.05 197 103.45 196.95 103.35 196.95 103.2 196.9 102.95 196.95 102.65 197.05 101.85 197.05 101.75 197.05 101.5 197 101.3
L 196.95 101.3
Q 196.85 100.9 196.35 100.3 195.95 99.9 195.8 99.7 195.7 99.65 195.65 99.65 194.9 99.55 194.6 99.4 194.55 99.35 194.45 99.35 193.2 99.05 192.4 99 192.3 99 192.25 99 191.65 99 191.3 99.1 190.95 99.15 190.2 99.65 189.95 99.8 189.65 100 188.3 101.05 187.85 101.75 187.85 101.8 187.8 101.9
L 188.25 103.55
Q 188.95 103.45 189.55 103.45 189.9 103.55 189.95 103.65 190.05 103.8 189.85 104 189.7 104.2 189.45 104.2
L 188.1 104.5
Q 187.35 104.75 186.95 105.15 186.55 105.55 186.45 106.1 186.35 106.5 186.45 107.25 186.55 108.3 186.4 108.65 186.25 109 185.65 109.55 184.7 110.35 184.5 110.7 184.2 111.05 184.05 111.6 183.6 112.4 183.6 113.15 183.65 114 185.2 115.35 186.5 116.35 187.35 116.6 188.15 116.7 188.3 116.85 188.85 117.25 188.65 118 188.55 118.45 188.15 119.2 187.85 119.8 188 120.5
L 188.2 120.85 217 120.85
Q 216.85 119.7 216.85 119.1 216.85 117.85 216.7 117.25 216.6 116.75 216.05 115.8 214.65 113.15 213.6 112.3 212.7 111.65 211.6 111.5 210.9 111.4 210.35 111.55 210.45 111.8 210.6 112.1 211.35 113.85 211.65 115.25 211.75 115.85 211.65 116.1 211.55 116.75 211 116.65
L 208.9 111.75
Q 208.8 111.6 208.2 110.95
M 209 117.55
L 208.45 116.75
Q 208.15 116.3 207.8 116.1 207.35 115.9 206.5 115.9 206.05 115.85 205.65 115.85 205.65 116.65 205.4 117.65
L 205.1 117.7
Q 205.5 115.2 203.55 113 202.9 112.25 202.15 111.95 201.65 111.8 200.95 111.8
L 199.7 111.8
Q 199.05 111.75 198.45 111.45 197.85 111 197.8 110.45
L 198.15 110.45
Q 198.4 111.05 199.6 111.05 201.45 111.1 201.65 111.2 202.8 111.35 203.5 111.85 204 112.25 204.9 113.7 205.35 114.4 205.45 114.6 205.6 114.95 205.65 115.35
L 207.3 115.3
Q 208.15 115.45 208.25 115.5 208.5 115.6 208.95 116.15 209.45 116.85 209.75 117.45 210.15 118.5 209.85 118.95
L 209.7 118.95
Q 209.6 118.55 209 117.55
M 203.55 117
Q 203.8 117.1 204.3 117.2
L 204.75 117.65
Q 205.05 117.85 205.1 118.05 205.15 118.3 204.95 118.6
L 204.55 119.3 204.35 119.4 203.8 119.5
Q 203.45 119.5 203.3 119.35 203.1 119.15 203.1 118.55 203.1 117.7 203.2 117.25
L 203.55 117.15 203.55 117
M 194.6 109
L 194.9 109
Q 195 110.7 194.85 111.55
L 194.65 112.15
Q 194.55 112.3 194 112.75
L 190.9 114.85
Q 189.95 115.35 189.9 115.95
L 189.4 116.1 189.35 115.85
Q 189.65 114.5 191.95 113.2
L 193.5 112.2
Q 194.05 111.9 194.2 111.65
L 194.35 111.05 194.55 110.7
Q 194.65 110.45 194.6 109.9 194.55 109.25 194.6 109
M 192.35 106.9
Q 191.7 107.25 191.4 107.45
L 190.8 107.7 188.75 107.75
Q 190.1 107.9 190.15 107.9 190.6 108 190.75 108.25 190.5 108.5 190.7 108.8 190.85 109.3 190.8 109.4 190.8 109.45 190.65 109.7 190.55 109.85 190.6 109.95 189.65 110 187.95 110.3 187.65 109.95 187.75 109.15 187.75 108.75 187.85 108.55 188.05 108.3 188.15 108.15 188.45 107.85 188.7 107.9
L 188.7 107.75
Q 188.35 107.75 188.25 107.6 188.1 107.45 188.1 107 188.2 106.35 188.4 106.15
L 188.8 105.8 189.3 105.55
Q 191.7 105.35 193.05 105.75 192.9 106.45 192.35 106.9
M 202 113.7
Q 202.25 113.85 202.25 114.45
L 202.25 115.75
Q 202.25 116.1 202.15 116.25 201.9 116.65 201.15 116.55
L 200.8 116.5 200.5 116.3 199.1 116.05 198.75 115.75
Q 198.3 115.2 198.3 114.95 198.25 114.55 198.65 114.05 198.9 113.7 199.15 113.65 199.35 113.65 199.25 113.55
L 201.6 113.65 202 113.7 Z"/>

<path fill="#FFFFFF" stroke="none" d="
M 202.25 114.45
Q 202.25 113.85 202 113.7
L 201.6 113.65 199.25 113.55
Q 199.35 113.65 199.15 113.65 198.9 113.7 198.65 114.05 198.25 114.55 198.3 114.95 198.3 115.2 198.75 115.75
L 199.1 116.05 200.5 116.3 200.8 116.5 201.15 116.55
Q 201.9 116.65 202.15 116.25 202.25 116.1 202.25 115.75
L 202.25 114.45
M 191.4 107.45
Q 191.7 107.25 192.35 106.9 192.9 106.45 193.05 105.75 191.7 105.35 189.3 105.55
L 188.8 105.8 188.4 106.15
Q 188.2 106.35 188.1 107 188.1 107.45 188.25 107.6 188.35 107.75 188.7 107.75
L 188.7 107.9
Q 188.45 107.85 188.15 108.15 188.05 108.3 187.85 108.55 187.75 108.75 187.75 109.15 187.65 109.95 187.95 110.3 189.65 110 190.6 109.95 190.55 109.85 190.65 109.7 190.8 109.45 190.8 109.4 190.85 109.3 190.7 108.8 190.5 108.5 190.75 108.25 190.6 108 190.15 107.9 190.1 107.9 188.75 107.75
L 190.8 107.7 191.4 107.45
M 204.3 117.2
Q 203.8 117.1 203.55 117
L 203.55 117.15 203.2 117.25
Q 203.1 117.7 203.1 118.55 203.1 119.15 203.3 119.35 203.45 119.5 203.8 119.5
L 204.35 119.4 204.55 119.3 204.95 118.6
Q 205.15 118.3 205.1 118.05 205.05 117.85 204.75 117.65
L 204.3 117.2
M 195.4 99.2
Q 195.45 99.15 195.55 99.2 195.45 99.05 195.45 98.85
L 195.4 99.2
M 206.1 82.7
Q 206.05 82.75 205.95 82.85 205.9 82.95 205.85 83.05 205.85 83.2 205.85 83.35 205.75 83.45 205.7 83.55 205.6 83.65 205.55 83.75 205.55 83.85 205.55 83.95 205.55 84.1 205.55 84.2 205.45 84.3 205.4 84.4 205.35 84.5 205.25 84.6 205.25 84.7 205.25 84.85 205.2 85 205.2 85.1 205.1 85.2 205.05 85.3 205.05 85.4 205.05 85.5 205.05 85.65 205.05 85.75 205.05 85.85 205.05 85.95 204.95 86.05 204.9 86.15 204.9 86.2 204.85 86.25 204.8 86.3 204.75 86.4 204.75 86.5 204.75 86.6 204.7 86.75 204.6 86.85 204.55 86.95 204.45 87.05 204.55 87.1 204.65 87.15 205.6 86.95 206.55 87 206.75 87 206.95 87.05 207.15 87.05 207.35 87.1 211.1 88.2 214.6 89.8 219.3 91.9 223.45 94.95 225.35 96.35 227.15 97.9 227.55 98.25 227.8 98.8
L 227.35 99.85 228.25 99.7 229.65 96.65
Q 227.8 89 219.1 85.3 215.5 83.9 211.7 83.05 210 82.7 208.25 82.65
L 207.25 82.65
Q 206.55 82.7 206.1 82.7
M 192.75 98.35
Q 192.8 98.45 193 98.45
L 193.05 98.45
Q 192.95 98.4 192.9 98.35
L 192.75 98.35
M 201.05 87.95
Q 201 88.45 200.95 88.9 201.05 89.55 201.35 89.9 201.7 90.4 202.8 90.55 202.95 90.45 203.2 90.45
L 205.2 90.1 206.15 90.05
Q 206.35 90.1 206.5 90.2
L 206.55 87.7
Q 206.05 87.65 205.5 87.65 205.35 87.65 205.25 87.65 205.2 87.75 205.2 87.8 205.1 87.85 205.05 87.95 205 87.95 204.95 88 204.85 88.05 204.7 88.05 204.6 88.1 204.55 88.15 204.15 88.1 203.85 88.05 203.7 87.95 203.55 87.85 203.45 87.75 203.35 87.65 203.35 87.55 203.35 87.45 203.35 87.3 203.35 87.2
L 201.05 87.15
Q 201.05 87.55 201.05 87.95
M 178 87.6
Q 178 90.5 179.45 91.7 180.55 92.6 183 92.6 183.3 92.6 183.65 92.6 189.75 87.55 198.2 89.95 193.6 89.8 189.9 91.15
L 190.9 91.15
Q 189.55 93 189.35 93.45 189 94.2 189 96.15 189 97.5 189.8 98.95 191.65 97.7 193.35 97.55 194.1 97.55 194.65 97.75 195.25 98.1 195.4 98.55 195.4 98.4 195.4 98.2 195.4 97.1 195.55 96.55
L 196.1 94.7 196.3 94.45
Q 196.45 94.3 196.7 94.45 196.9 94.55 196.95 94.75 197.05 95 196.8 95.7 196.45 96.8 196.4 97.85 196.4 98.25 196.45 98.55 196.6 98.35 196.95 98.15 200.1 96.5 202.25 94.35 203.25 93.45 203 92.75 202.9 92.5 202.65 92.25
L 202.1 91.7
Q 201.9 91.4 201.95 91.1
L 201.85 91.1 201.8 90.95
Q 201.4 90.9 200.65 90.6
L 200.25 90.35
Q 200 89.95 200.05 89.6 200.05 89.3 200.2 88.9 200.5 88.15 200.45 87.8
L 200.45 87.7
Q 198.35 82.55 196.4 77.35
L 192.9 77.5
Q 186.6 77.95 183.65 78.85 183.15 79 182.7 79.2 181.65 80.7 179.6 83 178 84.85 178 87.6
M 175 20.45
Q 175.8 19.75 176.95 19.35 177.2 19.55 176.7 20.05 175.65 20.9 174.15 22.4 174 22.6 173.85 22.75 173.55 23.65 173.4 24.7 173.15 26.35 173.15 32.35 173.15 38.85 175.35 49.2 177.6 48.25 179.15 48.3 180.15 48.3 180.7 48.7 181.15 48.95 181.55 49.65 182.15 50.75 182.6 52.4 182.7 52.65 183.35 55.25 183.85 57.55 184.6 59.35
L 188.9 68.8 188.6 69.25
Q 188.35 69 188.2 68.8 188 69.1 187.6 69.35 187.25 69.5 186.4 69.6 184.1 69.95 182.25 70.4 181.7 70.55 181.1 70.8 182 74 183.15 77.95
L 183.4 77.85
Q 189.65 76 196.25 76.85 193.05 68.25 190.3 59.5 186.05 46.15 182.15 32.8 180.75 28.15 179.25 23.5 178.05 19.05 177.7 15.65 175 17.6 172.4 19.6 173.5 19.5 174.05 19.3 174.8 19.05 177 17.75 175.5 18.9 174.6 20.75 174.8 20.55 175 20.45
M 177.05 20.45
L 177.45 19.85
Q 177.2 21 176.25 23.05 176 23.6 175.7 25.15 175.4 26.5 175.1 27.25 174.85 27.25 174.95 26.9
L 175.1 26.55
Q 175.35 26.1 175.45 25.25 175.9 22.9 177.05 20.45
M 173.75 30.35
Q 173.75 30.25 173.9 30.5
L 175.1 43.6
Q 174.75 43.6 174.6 42.8 174.6 42.5 173.9 36.6 173.5 32.85 173.75 30.35 Z"/>

<path fill="#3B3D35" stroke="none" d="
M 194.9 109
L 194.6 109
Q 194.55 109.25 194.6 109.9 194.65 110.45 194.55 110.7
L 194.35 111.05 194.2 111.65
Q 194.05 111.9 193.5 112.2
L 191.95 113.2
Q 189.65 114.5 189.35 115.85
L 189.4 116.1 189.9 115.95
Q 189.95 115.35 190.9 114.85
L 194 112.75
Q 194.55 112.3 194.65 112.15
L 194.85 111.55
Q 195 110.7 194.9 109
M 208.45 116.75
L 209 117.55
Q 209.6 118.55 209.7 118.95
L 209.85 118.95
Q 210.15 118.5 209.75 117.45 209.45 116.85 208.95 116.15 208.5 115.6 208.25 115.5 208.15 115.45 207.3 115.3
L 205.65 115.35
Q 205.6 114.95 205.45 114.6 205.35 114.4 204.9 113.7 204 112.25 203.5 111.85 202.8 111.35 201.65 111.2 201.45 111.1 199.6 111.05 198.4 111.05 198.15 110.45
L 197.8 110.45
Q 197.85 111 198.45 111.45 199.05 111.75 199.7 111.8
L 200.95 111.8
Q 201.65 111.8 202.15 111.95 202.9 112.25 203.55 113 205.5 115.2 205.1 117.7
L 205.4 117.65
Q 205.65 116.65 205.65 115.85 206.05 115.85 206.5 115.9 207.35 115.9 207.8 116.1 208.15 116.3 208.45 116.75
M 169.7 19.65
Q 169.65 19.65 169.6 19.7 157.85 29.35 152 35.1 150.1 37 149.9 38.35 149.8 39.35 150.55 40.2 150.9 40.65 151.35 40.8 151.4 41.2 151.8 41.7 152.25 42.4 152.6 43.6 152.8 44.25 153.2 45.6 153.7 47.05 155.5 50.4 156.9 53.2 157.8 55.2 158.25 56.15 160.6 61.75 160.5 62 160.55 62.25
L 160.7 62.05
Q 160.9 62.55 161.1 63.05
L 163.2 68.35
Q 164.3 71.1 165.15 73.45 166.65 77.4 167.95 81.65 168.8 84.5 169.95 87.4 170.7 89.3 172.35 90.1 172.45 90.8 172.85 91.35 174.3 93.85 175.7 96.15 176.05 96.8 176.35 97.6 177 99.45 178.1 101.25 179.2 103.05 181.2 103.4 184.35 104 187.15 102.85
L 187.5 103.7 187.45 103.7
Q 186.6 103.95 186.5 104.05
L 185.6 105.35
Q 185.45 105.65 185.45 106.4 185.45 107.75 185.2 108.15 185.1 108.35 184.2 108.95 182.25 110.45 182.35 113.5 182.45 114.35 182.55 114.5 182.75 115.05 183.3 115.55 184.8 117.2 186.9 117.95
L 186.8 120.25
Q 186.8 120.6 186.85 120.85
L 188.2 120.85 188 120.5
Q 187.85 119.8 188.15 119.2 188.55 118.45 188.65 118 188.85 117.25 188.3 116.85 188.15 116.7 187.35 116.6 186.5 116.35 185.2 115.35 183.65 114 183.6 113.15 183.6 112.4 184.05 111.6 184.2 111.05 184.5 110.7 184.7 110.35 185.65 109.55 186.25 109 186.4 108.65 186.55 108.3 186.45 107.25 186.35 106.5 186.45 106.1 186.55 105.55 186.95 105.15 187.35 104.75 188.1 104.5
L 189.45 104.2
Q 189.7 104.2 189.85 104 190.05 103.8 189.95 103.65 189.9 103.55 189.55 103.45 188.95 103.45 188.25 103.55
L 187.8 101.9
Q 187.85 101.8 187.85 101.75 188.3 101.05 189.65 100 189.95 99.8 190.2 99.65 190.95 99.15 191.3 99.1 191.65 99 192.25 99 192.3 99 192.4 99 193.2 99.05 194.45 99.35 194.55 99.35 194.6 99.4 194.9 99.55 195.65 99.65 195.7 99.65 195.8 99.7 195.95 99.9 196.35 100.3 196.85 100.9 196.95 101.3
L 197 101.3
Q 197.05 101.5 197.05 101.75 197.05 101.85 196.95 102.65 196.9 102.95 196.95 103.2 196.95 103.35 197 103.45 197.3 104.05 198.55 104.6 200.1 105.3 200.25 106.4
L 200.35 107.25
Q 200.6 108.2 201.75 108.4
L 203.6 108.55
Q 205.85 108.8 208.2 110.95 208.8 111.6 208.9 111.75
L 211 116.65
Q 211.55 116.75 211.65 116.1 211.75 115.85 211.65 115.25 211.35 113.85 210.6 112.1 210.45 111.8 210.35 111.55 210.9 111.4 211.6 111.5 212.7 111.65 213.6 112.3 214.65 113.15 216.05 115.8 216.6 116.75 216.7 117.25 216.85 117.85 216.85 119.1 216.85 119.7 217 120.85
L 218.35 120.85 218.35 120.55
Q 218.35 120.15 218.1 120.1
L 217.95 120.15
Q 218.2 118.45 218 117.4 217.85 115.95 216.6 113.9 215.7 112.3 214.65 111.45 212.6 109.75 210 110.4 209.85 110.45 209.75 110.5 209.3 110.05 208.4 109.25 206.05 107.4 204.35 107.3 202.9 107.35 202.15 107.15 201.8 107.05 201.7 106.9 201.6 106.75 201.6 106.4 201.55 105.45 200.9 104.7 200.25 103.9 199.35 103.7 198.45 103.5 198.2 103.25 198 103.05 197.95 102.75 197.85 102.45 197.85 102.05 197.85 101.1 197.7 100.8 197.65 100.7 197.6 100.55 197.55 100.45 197.55 100.35
L 197.55 100.3 197.65 100.15
Q 197.65 99.9 197.4 99.9 197.3 99.75 197.1 99.6 196.95 99.45 196.9 99.35 197.1 99.35 197.55 99.15 200.6 97.75 202.9 95.65 203.9 94.8 204.15 93.95 204.45 93.05 204 92.2 203.8 91.7 203.45 91.3
L 204.55 91.35
Q 204.9 91.4 205.25 91.35 205.3 91.35 205.35 91.35 205.7 92.7 206.85 93.6 207.2 93.95 208.45 94.7 210.4 95.95 212.45 97.1 219.2 100.95 226.95 101.3 227.05 101.3 227.15 101.3 227.55 101.3 227.85 101.3 228.8 101.15 229.3 100.75 229.55 100.45 229.75 100.1 230 99.9 230.05 99.75 230.1 99.7 230.2 99.3
L 230.55 98.3 230.7 97.25 230.9 96.7
Q 231 96.35 230.9 96.25
L 230.9 96.2
Q 231 95.8 231 95.3 230.95 94.85 230.75 94.5 223.55 83.05 209.15 81.5 209 81.5 208.9 81.5 207.2 81.55 206.3 81.8 206.2 81.65 206.1 81.55 205.95 81.55 205.9 81.55 205.85 81.55 205.75 81.55 205.7 81.65 205.6 81.7 205.6 81.8 205.6 81.9 205.45 82.05 205.35 82.15 205.25 82.25 205.2 82.35 205.1 82.45 205.05 82.55 205 82.65 204.95 82.8 204.9 82.9 204.85 83 204.75 83.1 204.7 83.25 204.65 83.35 204.6 83.45 204.6 83.6 204.6 83.7 204.6 83.8 204.55 83.9 204.45 84 204.35 84.1 204.35 84.2 204.35 84.35 204.2 84.45 204.15 84.55 204.05 84.65 204 84.75 204 84.85 204 85 204 85.15 204 85.25 203.9 85.35 203.85 85.45 203.75 85.55 203.65 85.65 203.65 85.75 203.65 85.9 203.55 86 203.4 86.1 203.4 86.2 203.35 86.3 203.3 86.3 203.2 86.3
L 201.05 86.3
Q 200.9 82.15 199.15 78.35 193.05 65.2 189.3 51.25 185.55 37.2 180.7 23.5 179.65 19.7 179.25 16.8 178.9 14.6 177.85 14.3 177.2 14.1 175.9 14.85 173.7 16.3 169.7 19.65
M 177.7 15.65
Q 178.05 19.05 179.25 23.5 180.75 28.15 182.15 32.8 186.05 46.15 190.3 59.5 193.05 68.25 196.25 76.85 189.65 76 183.4 77.85
L 183.15 77.95 181.7 78.45
Q 179.95 79.2 178.3 80.3 175.65 82.2 174.5 83.9
L 173.8 85.1
Q 172.9 86.6 173.05 87.65 173.1 88 173.3 88.2 173.55 88.5 173.8 88.35 173.5 87.9 173.5 87.3 173.55 86.95 174.1 86
L 174.95 84.8
Q 175.7 83.7 175.9 83.45
L 177 82.45
Q 179.6 80.35 182.7 79.2 183.15 79 183.65 78.85 186.6 77.95 192.9 77.5
L 196.4 77.35
Q 198.35 82.55 200.45 87.7
L 200.45 87.8
Q 200.5 88.15 200.2 88.9 200.05 89.3 200.05 89.6 200 89.95 200.25 90.35
L 200.65 90.6
Q 201.4 90.9 201.8 90.95
L 201.85 91.1 201.95 91.1
Q 201.9 91.4 202.1 91.7
L 202.65 92.25
Q 202.9 92.5 203 92.75 203.25 93.45 202.25 94.35 200.1 96.5 196.95 98.15 196.6 98.35 196.45 98.55 196.4 98.25 196.4 97.85 196.45 96.8 196.8 95.7 197.05 95 196.95 94.75 196.9 94.55 196.7 94.45 196.45 94.3 196.3 94.45
L 196.1 94.7 195.55 96.55
Q 195.4 97.1 195.4 98.2 195.4 98.4 195.4 98.55 195.25 98.1 194.65 97.75 194.1 97.55 193.35 97.55 191.65 97.7 189.8 98.95 188.85 99.6 187.85 100.55
L 187.5 101.05
Q 187.3 100.9 187.2 100.8 186.85 100.5 186.5 100.3 186.05 100 185.6 99.85 185.5 99.8 185.4 99.8 185.3 99.8 185.25 99.8 185.15 99.85 185.1 99.95 185.05 100.05 185.05 100.15 184.95 100.35 185.15 100.45 185.25 100.6 185.5 100.75 185.7 100.9 185.95 101.1
L 185.35 102.05
Q 183.75 102.05 181.85 102 180.25 101.9 179.45 100.6 178.95 99.65 178.5 98.8 176.4 95.1 174 91.55 173.3 90.55 173.9 90 173.9 89.75 173.85 89.7 172.75 88.95 171.95 87.65 170.6 85.4 169.85 82.75 169.75 82.4 169.7 82.1 170.15 80.85 171.1 78.85 172.6 75.85 174 74.75 174.35 74.45 175.2 73.9 178.55 71.8 181.1 70.8 181.7 70.55 182.25 70.4 184.1 69.95 186.4 69.6 187.25 69.5 187.6 69.35 188 69.1 188.2 68.8 188.35 69 188.6 69.25
L 188.9 68.8 184.6 59.35
Q 183.85 57.55 183.35 55.25 182.7 52.65 182.6 52.4 182.15 50.75 181.55 49.65 181.15 48.95 180.7 48.7 180.15 48.3 179.15 48.3 177.6 48.25 175.35 49.2 174.2 49.65 172.8 50.4 170.45 51.7 168.75 52.95 166 55.05 161.55 60.3
L 160.3 57.35
Q 159.2 54.75 155.65 47.2
L 152.35 40.35
Q 152.4 40 151.95 40 151.9 40 151.85 40
L 150.9 38.1
Q 161 28.25 172.4 19.6 175 17.6 177.7 15.65
M 182.8 57
Q 183.2 58.35 184 60.1
L 185.2 62.8
Q 185.65 64.25 186.85 66.5 187.3 67.5 187.75 68.2
L 187.7 68.2 184.2 68.9
Q 182.2 69.4 181.35 69.65 181.1 69.75 180.85 69.85 179.1 70.5 175.95 72.25 174.3 73.2 173.3 74 171.75 75.35 170.45 78.05
L 169.3 80.85
Q 167.95 76.4 166.2 72 164.95 68.75 163.4 64.95
L 161.8 60.95 165.6 57.05
Q 166.85 55.75 168.25 54.55 169.65 53.45 173.2 51.35 174.5 50.65 175.6 50.2 177.65 49.3 179 49.3 179.75 49.3 180.1 49.55 180.5 49.75 180.85 50.55 181.45 51.75 182 53.45
L 182.8 57
M 200.95 88.9
Q 201 88.45 201.05 87.95 201.05 87.55 201.05 87.15
L 203.35 87.2
Q 203.35 87.3 203.35 87.45 203.35 87.55 203.35 87.65 203.45 87.75 203.55 87.85 203.7 87.95 203.85 88.05 204.15 88.1 204.55 88.15 204.6 88.1 204.7 88.05 204.85 88.05 204.95 88 205 87.95 205.05 87.95 205.1 87.85 205.2 87.8 205.2 87.75 205.25 87.65 205.35 87.65 205.5 87.65 206.05 87.65 206.55 87.7
L 206.5 90.2
Q 206.35 90.1 206.15 90.05
L 205.2 90.1 203.2 90.45
Q 202.95 90.45 202.8 90.55 201.7 90.4 201.35 89.9 201.05 89.55 200.95 88.9
M 193 98.45
Q 192.8 98.45 192.75 98.35
L 192.9 98.35
Q 192.95 98.4 193.05 98.45
L 193 98.45
M 205.95 82.85
Q 206.05 82.75 206.1 82.7 206.55 82.7 207.25 82.65
L 208.25 82.65
Q 210 82.7 211.7 83.05 215.5 83.9 219.1 85.3 227.8 89 229.65 96.65
L 228.25 99.7 227.35 99.85 227.8 98.8
Q 227.55 98.25 227.15 97.9 225.35 96.35 223.45 94.95 219.3 91.9 214.6 89.8 211.1 88.2 207.35 87.1 207.15 87.05 206.95 87.05 206.75 87 206.55 87 205.6 86.95 204.65 87.15 204.55 87.1 204.45 87.05 204.55 86.95 204.6 86.85 204.7 86.75 204.75 86.6 204.75 86.5 204.75 86.4 204.8 86.3 204.85 86.25 204.9 86.2 204.9 86.15 204.95 86.05 205.05 85.95 205.05 85.85 205.05 85.75 205.05 85.65 205.05 85.5 205.05 85.4 205.05 85.3 205.1 85.2 205.2 85.1 205.2 85 205.25 84.85 205.25 84.7 205.25 84.6 205.35 84.5 205.4 84.4 205.45 84.3 205.55 84.2 205.55 84.1 205.55 83.95 205.55 83.85 205.55 83.75 205.6 83.65 205.7 83.55 205.75 83.45 205.85 83.35 205.85 83.2 205.85 83.05 205.9 82.95 205.95 82.85
M 208.85 90.85
Q 209.3 90.75 209.8 90.45 210.8 91.75 213.3 93 215.75 94.25 219.65 95.9 222.25 96.95 223.45 96.95 218.8 94.95 213.05 92.15 211.3 91.25 210.75 90.6 210.45 90.25 210.2 89.95 210.4 89.65 210.55 89.3 210.75 89 210.7 88.8 213.45 89.7 216.1 90.85 224.1 94.2 226.35 99.75 226.2 99.8 226.1 99.85 216.05 98.5 207.8 92.65 207.5 92.5 207.35 92.35 206.9 92.05 206.45 91.3 207.55 91.3 208.85 90.85
M 195.55 99.2
Q 195.45 99.15 195.4 99.2
L 195.45 98.85
Q 195.45 99.05 195.55 99.2
M 198.2 89.95
Q 189.75 87.55 183.65 92.6 182.85 93.2 182.1 94
L 183.1 93.7
Q 182.6 94.15 182.05 94.55 179.05 97.05 180 99.4 183.8 93.3 189.9 91.15 193.6 89.8 198.2 89.95
M 176.95 19.35
Q 175.8 19.75 175 20.45 174.8 20.55 174.6 20.75 174.05 21.15 173.35 21.85 171.6 23.75 170.6 24.55 169.9 25.2 168.7 26.05
L 158.05 34.7
Q 156.75 36 156.25 36.35 155.5 36.8 155.1 37.1 154.7 37.75 154.4 38 154.15 38.25 153.2 38.75 152.5 39.15 152.25 39.65 152.4 39.85 152.75 39.7 152.95 39.6 153.3 39.3 153.55 39.15 154.05 39 154.55 38.8 154.75 38.65 154.85 38.6 155.55 37.8 155.85 37.45 156.45 37.05 156.75 36.85 158.35 35.5 160.55 33.65 161.65 32.8
L 167.25 28.4
Q 168.75 27.25 171.8 24.85 172.2 24.5 173.85 22.75 174 22.6 174.15 22.4 175.65 20.9 176.7 20.05 177.2 19.55 176.95 19.35
M 173.9 30.5
Q 173.75 30.25 173.75 30.35 173.5 32.85 173.9 36.6 174.6 42.5 174.6 42.8 174.75 43.6 175.1 43.6
L 173.9 30.5
M 177.45 19.85
L 177.05 20.45
Q 175.9 22.9 175.45 25.25 175.35 26.1 175.1 26.55
L 174.95 26.9
Q 174.85 27.25 175.1 27.25 175.4 26.5 175.7 25.15 176 23.6 176.25 23.05 177.2 21 177.45 19.85 Z"/>

<path fill="#7097A8" stroke="none" d="
M 209.8 90.45
Q 209.3 90.75 208.85 90.85 207.55 91.3 206.45 91.3 206.9 92.05 207.35 92.35 207.5 92.5 207.8 92.65 216.05 98.5 226.1 99.85 226.2 99.8 226.35 99.75 224.1 94.2 216.1 90.85 213.45 89.7 210.7 88.8 210.75 89 210.55 89.3 210.4 89.65 210.2 89.95 210.45 90.25 210.75 90.6 211.3 91.25 213.05 92.15 218.8 94.95 223.45 96.95 222.25 96.95 219.65 95.9 215.75 94.25 213.3 93 210.8 91.75 209.8 90.45 Z"/>

<path fill="#387B5C" stroke="none" d="
M 184 60.1
Q 183.2 58.35 182.8 57
L 182 53.45
Q 181.45 51.75 180.85 50.55 180.5 49.75 180.1 49.55 179.75 49.3 179 49.3 177.65 49.3 175.6 50.2 174.5 50.65 173.2 51.35 169.65 53.45 168.25 54.55 166.85 55.75 165.6 57.05
L 161.8 60.95 163.4 64.95
Q 164.95 68.75 166.2 72 167.95 76.4 169.3 80.85
L 170.45 78.05
Q 171.75 75.35 173.3 74 174.3 73.2 175.95 72.25 179.1 70.5 180.85 69.85 181.1 69.75 181.35 69.65 182.2 69.4 184.2 68.9
L 187.7 68.2 187.75 68.2
Q 187.3 67.5 186.85 66.5 185.65 64.25 185.2 62.8
L 184 60.1 Z"/>

<path fill="#D3E7EE" stroke="none" d="
M 181.1 70.8
Q 178.55 71.8 175.2 73.9 174.35 74.45 174 74.75 172.6 75.85 171.1 78.85 170.15 80.85 169.7 82.1 169.75 82.4 169.85 82.75 170.6 85.4 171.95 87.65 172.75 88.95 173.85 89.7 173.9 89.75 173.9 90 173.3 90.55 174 91.55 176.4 95.1 178.5 98.8 178.95 99.65 179.45 100.6 180.25 101.9 181.85 102 183.75 102.05 185.35 102.05
L 185.95 101.1
Q 185.7 100.9 185.5 100.75 185.25 100.6 185.15 100.45 184.95 100.35 185.05 100.15 185.05 100.05 185.1 99.95 185.15 99.85 185.25 99.8 185.3 99.8 185.4 99.8 185.5 99.8 185.6 99.85 186.05 100 186.5 100.3 186.85 100.5 187.2 100.8 187.3 100.9 187.5 101.05
L 187.85 100.55
Q 188.85 99.6 189.8 98.95 189 97.5 189 96.15 189 94.2 189.35 93.45 189.55 93 190.9 91.15
L 189.9 91.15
Q 183.8 93.3 180 99.4 179.05 97.05 182.05 94.55 182.6 94.15 183.1 93.7
L 182.1 94
Q 182.85 93.2 183.65 92.6 183.3 92.6 183 92.6 180.55 92.6 179.45 91.7 178 90.5 178 87.6 178 84.85 179.6 83 181.65 80.7 182.7 79.2 179.6 80.35 177 82.45
L 175.9 83.45
Q 175.7 83.7 174.95 84.8
L 174.1 86
Q 173.55 86.95 173.5 87.3 173.5 87.9 173.8 88.35 173.55 88.5 173.3 88.2 173.1 88 173.05 87.65 172.9 86.6 173.8 85.1
L 174.5 83.9
Q 175.65 82.2 178.3 80.3 179.95 79.2 181.7 78.45
L 183.15 77.95
Q 182 74 181.1 70.8
M 174.05 19.3
Q 173.5 19.5 172.4 19.6 161 28.25 150.9 38.1
L 151.85 40
Q 151.9 40 151.95 40 152.4 40 152.35 40.35
L 155.65 47.2
Q 159.2 54.75 160.3 57.35
L 161.55 60.3
Q 166 55.05 168.75 52.95 170.45 51.7 172.8 50.4 174.2 49.65 175.35 49.2 173.15 38.85 173.15 32.35 173.15 26.35 173.4 24.7 173.55 23.65 173.85 22.75 172.2 24.5 171.8 24.85 168.75 27.25 167.25 28.4
L 161.65 32.8
Q 160.55 33.65 158.35 35.5 156.75 36.85 156.45 37.05 155.85 37.45 155.55 37.8 154.85 38.6 154.75 38.65 154.55 38.8 154.05 39 153.55 39.15 153.3 39.3 152.95 39.6 152.75 39.7 152.4 39.85 152.25 39.65 152.5 39.15 153.2 38.75 154.15 38.25 154.4 38 154.7 37.75 155.1 37.1 155.5 36.8 156.25 36.35 156.75 36 158.05 34.7
L 168.7 26.05
Q 169.9 25.2 170.6 24.55 171.6 23.75 173.35 21.85 174.05 21.15 174.6 20.75 175.5 18.9 177 17.75 174.8 19.05 174.05 19.3 Z"/>
</g>

<g id="Layer0_0_MEMBER_3_FILL">
<path fill="#3B3D35" stroke="none" d="
M 47.2 103.3
Q 46.85 103 46.3 102.8 45.75 102.65 44.95 102.65
L 42.5 102.65 42.5 110.25 43.9 110.25 43.9 107.55 44.95 107.55
Q 45.7 107.55 46.25 107.4 46.85 107.2 47.2 106.85 47.55 106.55 47.75 106.1 47.95 105.6 47.95 105.05 47.95 104.55 47.75 104.1 47.6 103.65 47.2 103.3
M 45.65 103.85
Q 45.95 103.9 46.15 104.1 46.3 104.25 46.4 104.5 46.5 104.75 46.5 105.05 46.5 105.4 46.4 105.65 46.3 105.9 46.15 106.1 45.95 106.25 45.65 106.35 45.35 106.45 44.95 106.45
L 43.9 106.45 43.9 103.75 44.95 103.75
Q 45.35 103.75 45.65 103.85
M 52.25 104.95
Q 51.8 104.75 51.2 104.75 50.6 104.75 50.1 104.95 49.6 105.15 49.25 105.5 48.9 105.85 48.7 106.4 48.5 106.9 48.5 107.55 48.5 108.2 48.7 108.7 48.9 109.2 49.25 109.6 49.6 109.95 50.1 110.15 50.6 110.35 51.2 110.35 51.8 110.35 52.25 110.15 52.75 109.95 53.1 109.6 53.45 109.2 53.65 108.7 53.85 108.2 53.85 107.55 53.85 106.9 53.65 106.4 53.45 105.85 53.1 105.5 52.75 105.15 52.25 104.95
M 51.2 105.75
Q 51.85 105.75 52.2 106.2 52.5 106.7 52.5 107.55 52.5 108.45 52.2 108.9 51.85 109.35 51.2 109.35 50.5 109.35 50.15 108.85 49.85 108.4 49.85 107.55 49.85 106.7 50.15 106.2 50.5 105.75 51.2 105.75
M 62.25 105.95
Q 62.15 105.55 61.9 105.3 61.65 105.05 61.3 104.9 60.95 104.75 60.5 104.75
L 60 104.8
Q 59.75 104.9 59.5 105 59.3 105.15 59.1 105.3 58.9 105.5 58.8 105.8 58.6 105.3 58.3 105.05 57.95 104.75 57.45 104.75
L 57 104.8 56.65 104.95 56.3 105.2 56 105.5 55.9 105.1
Q 55.85 104.85 55.6 104.85
L 54.8 104.85 54.8 110.25 56.1 110.25 56.1 106.3
Q 56.3 106.05 56.55 105.9 56.8 105.8 57.05 105.8 57.5 105.8 57.7 106.05 57.95 106.25 57.95 106.8
L 57.95 110.25 59.25 110.25 59.25 106.8
Q 59.25 106.55 59.3 106.35 59.4 106.15 59.5 106.05 59.65 105.9 59.8 105.85 60 105.8 60.2 105.8 60.65 105.8 60.85 106.05 61.1 106.3 61.1 106.8
L 61.1 110.25 62.4 110.25 62.4 106.8
Q 62.4 106.3 62.25 105.95
M 64.95 105.85
Q 65.2 105.8 65.5 105.8 65.95 105.8 66.15 106.05 66.4 106.3 66.4 106.85
L 66.4 107.15
Q 65.8 107.15 65.3 107.25 64.8 107.35 64.45 107.45 64.1 107.55 63.85 107.75 63.6 107.9 63.45 108.1 63.3 108.25 63.2 108.45 63.15 108.65 63.15 108.85 63.15 109.25 63.3 109.5 63.4 109.8 63.6 109.95 63.8 110.15 64.1 110.25 64.4 110.35 64.75 110.35
L 65.25 110.3 65.7 110.15 66.5 109.6 66.65 109.95
Q 66.7 110.15 66.8 110.2 66.9 110.25 67.05 110.25
L 67.65 110.25 67.65 106.85
Q 67.65 106.4 67.55 106 67.4 105.6 67.15 105.35 66.9 105.05 66.5 104.9 66.15 104.75 65.65 104.75 64.35 104.75 63.4 105.6
L 63.8 106.2
Q 63.9 106.25 64.05 106.25 64.2 106.25 64.3 106.2
L 64.6 106 64.95 105.85
M 64.85 108.25
Q 65.05 108.1 65.45 108.05 65.85 107.95 66.4 107.95
L 66.4 108.85
Q 66.1 109.15 65.8 109.3 65.55 109.45 65.15 109.45 64.8 109.45 64.6 109.3 64.4 109.15 64.4 108.8 64.4 108.65 64.5 108.5 64.6 108.35 64.85 108.25
M 73.55 102.45
L 72.25 102.45 72.25 105.3
Q 72 105.05 71.65 104.9 71.35 104.75 70.9 104.75 70.35 104.75 69.95 104.95 69.5 105.2 69.2 105.55 68.9 105.95 68.7 106.45 68.55 106.95 68.55 107.55 68.55 108.25 68.7 108.75 68.85 109.25 69.1 109.6 69.4 109.95 69.75 110.15 70.1 110.35 70.55 110.35 71.1 110.35 71.55 110.1 71.95 109.85 72.3 109.5
L 72.4 110
Q 72.5 110.25 72.75 110.25
L 73.55 110.25 73.55 102.45
M 71.75 105.85
Q 72 105.95 72.25 106.25
L 72.25 108.65
Q 72 108.95 71.7 109.15 71.4 109.3 71 109.3 70.75 109.3 70.55 109.2 70.35 109.1 70.2 108.9 70.05 108.7 70 108.35 69.9 108.05 69.9 107.55 69.9 107.1 70 106.75 70.1 106.4 70.25 106.2 70.4 105.95 70.65 105.85 70.9 105.75 71.2 105.75 71.5 105.75 71.75 105.85
M 77.8 104.9
Q 77.45 104.75 76.95 104.75 75.65 104.75 74.7 105.6
L 75.1 106.2
Q 75.2 106.25 75.35 106.25 75.5 106.25 75.6 106.2
L 75.9 106 76.25 105.85
Q 76.5 105.8 76.8 105.8 77.25 105.8 77.45 106.05 77.7 106.3 77.7 106.85
L 77.7 107.15
Q 77.1 107.15 76.6 107.25 76.1 107.35 75.75 107.45 75.4 107.55 75.15 107.75 74.9 107.9 74.75 108.1 74.6 108.25 74.5 108.45 74.45 108.65 74.45 108.85 74.45 109.25 74.6 109.5 74.7 109.8 74.9 109.95 75.1 110.15 75.4 110.25 75.7 110.35 76.05 110.35
L 76.55 110.3 77 110.15 77.8 109.6 77.95 109.95
Q 78 110.15 78.1 110.2 78.2 110.25 78.35 110.25
L 78.95 110.25 78.95 106.85
Q 78.95 106.4 78.85 106 78.7 105.6 78.45 105.35 78.2 105.05 77.8 104.9
M 75.7 108.8
Q 75.7 108.65 75.8 108.5 75.9 108.35 76.15 108.25 76.35 108.1 76.75 108.05 77.15 107.95 77.7 107.95
L 77.7 108.85
Q 77.4 109.15 77.1 109.3 76.85 109.45 76.45 109.45 76.1 109.45 75.9 109.3 75.7 109.15 75.7 108.8 Z"/>
</g>
</defs>

<g transform="matrix( 0.81854248046875, 0, 0, 0.81854248046875, -14.45,-8.65) ">
<use xlink:href="#Layer0_0_MEMBER_0_FILL"/>
</g>

<g transform="matrix( 0.87713623046875, 0, 0, 0.87713623046875, -18.6,-8) ">
<use xlink:href="#Layer0_0_MEMBER_1_FILL"/>
</g>

<g transform="matrix( 0.81854248046875, 0, 0, 0.81854248046875, -94.75,-8.65) ">
<use xlink:href="#Layer0_0_MEMBER_2_FILL"/>
</g>

<g transform="matrix( 1, 0, 0, 1, 0,0) ">
<use xlink:href="#Layer0_0_MEMBER_3_FILL"/>
</g>
</svg>
