<svg xmlns="http://www.w3.org/2000/svg" width="91.63" height="130.85" viewBox="0 0 91.63 130.85">
  <g id="Atualização_em_Fitoterapia_-_Aspectos_Clínicos_-_Telas-28" data-name="Atualização em Fitoterapia - Aspectos Clínicos - Telas-28" transform="translate(-1.68 -4.58)">
    <g id="Grupo_7879" data-name="Grupo 7879">
      <rect id="Retângulo_753" data-name="Retângulo 753" width="91.63" height="130.85" rx="45.815" transform="translate(1.68 4.58)" fill="#fff"/>
      <rect id="Retângulo_754" data-name="Retângulo 754" width="76.62" height="115.83" rx="38.31" transform="translate(9.19 12.08)" fill="none" stroke="#cda45e" stroke-miterlimit="10" stroke-width="1.5"/>
    </g>
    <g id="Grupo_7881" data-name="Grupo 7881">
      <g id="Grupo_7880" data-name="Grupo 7880">
        <path id="Caminho_10351" data-name="Caminho 10351" d="M26.42,99.31a3.523,3.523,0,0,1-.24,1.32,3.034,3.034,0,0,1-.68,1.03,3,3,0,0,1-1.05.67,3.753,3.753,0,0,1-1.37.24H20.57V96.04h2.51a3.753,3.753,0,0,1,1.37.24,3.033,3.033,0,0,1,1.73,1.71,3.508,3.508,0,0,1,.24,1.31Zm-1.39,0a2.922,2.922,0,0,0-.13-.92,1.94,1.94,0,0,0-.39-.69,1.8,1.8,0,0,0-.61-.44,2.14,2.14,0,0,0-.82-.15H21.93v4.41h1.15a2.1,2.1,0,0,0,.82-.15,1.6,1.6,0,0,0,.61-.44,1.9,1.9,0,0,0,.39-.7,2.987,2.987,0,0,0,.13-.93Z" fill="#cda45e"/>
        <path id="Caminho_10352" data-name="Caminho 10352" d="M33.72,99.31a3.614,3.614,0,0,1-.24,1.33,3.163,3.163,0,0,1-.68,1.06,3.07,3.07,0,0,1-1.05.7,3.879,3.879,0,0,1-2.74,0,3.212,3.212,0,0,1-1.06-.7,3.163,3.163,0,0,1-.68-1.06,3.805,3.805,0,0,1,0-2.66,3.163,3.163,0,0,1,.68-1.06,3.112,3.112,0,0,1,1.06-.7,3.879,3.879,0,0,1,2.74,0,3.07,3.07,0,0,1,1.05.7,3.163,3.163,0,0,1,.68,1.06,3.6,3.6,0,0,1,.24,1.32Zm-1.38,0a2.922,2.922,0,0,0-.13-.92,1.94,1.94,0,0,0-.39-.69,1.713,1.713,0,0,0-.62-.44,2.316,2.316,0,0,0-1.64,0,1.713,1.713,0,0,0-.62.44,1.94,1.94,0,0,0-.39.69,2.914,2.914,0,0,0-.14.92,2.654,2.654,0,0,0,.14.92,1.94,1.94,0,0,0,.39.69,1.688,1.688,0,0,0,.62.43,2.316,2.316,0,0,0,1.64,0,1.816,1.816,0,0,0,.62-.43,1.94,1.94,0,0,0,.39-.69A2.922,2.922,0,0,0,32.34,99.31Z" fill="#cda45e"/>
        <path id="Caminho_10353" data-name="Caminho 10353" d="M43.35,96.05l-2.02,6.53H40.11l-1.34-4.27c-.02-.06-.04-.13-.06-.2s-.04-.15-.06-.23c-.02.08-.04.16-.06.23s-.04.14-.06.2l-1.35,4.27H35.96l-2.02-6.53h1.13a.522.522,0,0,1,.29.08.4.4,0,0,1,.16.22l1.01,3.68c.02.1.05.21.07.33a3.7,3.7,0,0,1,.07.38c.03-.13.05-.26.08-.38a2.578,2.578,0,0,1,.1-.33l1.18-3.68a.378.378,0,0,1,.16-.2.476.476,0,0,1,.29-.09h.4a.522.522,0,0,1,.29.08.412.412,0,0,1,.16.21l1.17,3.68a2.811,2.811,0,0,1,.1.31q.045.165.09.36c.02-.13.05-.25.07-.36s.05-.22.07-.31l1.01-3.68a.378.378,0,0,1,.15-.21.476.476,0,0,1,.29-.09h1.06Z" fill="#cda45e"/>
        <path id="Caminho_10354" data-name="Caminho 10354" d="M49.67,96.05v6.53h-.7a.722.722,0,0,1-.27-.05.5.5,0,0,1-.21-.18l-3.25-4.14c0,.1.02.21.02.31v4.06H44.07V96.05h.86a.354.354,0,0,1,.11.03.276.276,0,0,1,.09.07,1.2,1.2,0,0,1,.1.11l3.28,4.16-.03-.33a3,3,0,0,1,0-.3V96.06h1.19Z" fill="#cda45e"/>
        <path id="Caminho_10355" data-name="Caminho 10355" d="M54.92,101.48v1.1H51.04V96.05h1.35v5.43h2.52Z" fill="#cda45e"/>
        <path id="Caminho_10356" data-name="Caminho 10356" d="M61.85,99.31a3.614,3.614,0,0,1-.24,1.33,3.163,3.163,0,0,1-.68,1.06,3.07,3.07,0,0,1-1.05.7,3.879,3.879,0,0,1-2.74,0,3.212,3.212,0,0,1-1.06-.7,3.163,3.163,0,0,1-.68-1.06,3.805,3.805,0,0,1,0-2.66,3.163,3.163,0,0,1,.68-1.06,3.112,3.112,0,0,1,1.06-.7,3.879,3.879,0,0,1,2.74,0,3.07,3.07,0,0,1,1.05.7,3.163,3.163,0,0,1,.68,1.06,3.6,3.6,0,0,1,.24,1.32Zm-1.38,0a2.922,2.922,0,0,0-.13-.92,1.94,1.94,0,0,0-.39-.69,1.713,1.713,0,0,0-.62-.44,2.316,2.316,0,0,0-1.64,0,1.713,1.713,0,0,0-.62.44,1.94,1.94,0,0,0-.39.69,2.914,2.914,0,0,0-.14.92,2.654,2.654,0,0,0,.14.92,1.94,1.94,0,0,0,.39.69,1.688,1.688,0,0,0,.62.43,2.316,2.316,0,0,0,1.64,0,1.816,1.816,0,0,0,.62-.43,1.94,1.94,0,0,0,.39-.69A2.922,2.922,0,0,0,60.47,99.31Z" fill="#cda45e"/>
        <path id="Caminho_10357" data-name="Caminho 10357" d="M68.35,102.58H67.3a.522.522,0,0,1-.29-.08.537.537,0,0,1-.16-.21l-.44-1.25h-2.6l-.44,1.25a.489.489,0,0,1-.16.2.447.447,0,0,1-.28.09H61.87l2.55-6.53H65.8l2.55,6.53Zm-2.27-2.48-.71-2a3.849,3.849,0,0,1-.13-.37,4.279,4.279,0,0,1-.13-.46c-.04.17-.09.32-.13.47s-.09.27-.13.37l-.7,1.99h1.94Z" fill="#cda45e"/>
        <path id="Caminho_10358" data-name="Caminho 10358" d="M74.81,99.31a3.523,3.523,0,0,1-.24,1.32,3.034,3.034,0,0,1-.68,1.03,3,3,0,0,1-1.05.67,3.753,3.753,0,0,1-1.37.24H68.96V96.04h2.51a3.753,3.753,0,0,1,1.37.24,3.033,3.033,0,0,1,1.73,1.71,3.508,3.508,0,0,1,.24,1.31Zm-1.39,0a2.922,2.922,0,0,0-.13-.92,1.94,1.94,0,0,0-.39-.69,1.8,1.8,0,0,0-.61-.44,2.14,2.14,0,0,0-.82-.15H70.32v4.41h1.15a2.1,2.1,0,0,0,.82-.15,1.6,1.6,0,0,0,.61-.44,1.9,1.9,0,0,0,.39-.7,2.987,2.987,0,0,0,.13-.93Z" fill="#cda45e"/>
      </g>
      <line id="Linha_51" data-name="Linha 51" x2="52.98" transform="translate(21.01 108.87)" fill="none" stroke="#cda45e" stroke-miterlimit="10" stroke-width="2"/>
      <path id="Caminho_10359" data-name="Caminho 10359" d="M46.75,40.64A15.254,15.254,0,0,0,31.53,54.91a9.626,9.626,0,0,0-9.03,9.61,9.759,9.759,0,0,0,9.63,9.63H36.5a1,1,0,0,0,0-2H32.13a7.63,7.63,0,1,1,0-15.26H33.5v-1A13.254,13.254,0,0,1,59.71,53.1l.17.79h1.5a9.13,9.13,0,0,1,0,18.26H58.5a1,1,0,0,0,0,2h2.88a11.125,11.125,0,0,0,.1-22.25A15.26,15.26,0,0,0,46.76,40.65Zm1.46,38.37,6.36-6.36a1,1,0,0,0-1.41-1.41L48.5,75.9V59.31a1,1,0,0,0-2,0V75.9l-4.66-4.66a1,1,0,0,0-1.41,1.41l6.36,6.36a1,1,0,0,0,1.41,0Z" fill="#cda45e" fill-rule="evenodd"/>
    </g>
  </g>
</svg>
