<?xml version="1.0" encoding="utf-8"?>
<!-- Generator: Adobe Illustrator 27.8.1, SVG Export Plug-In . SVG Version: 6.00 Build 0)  -->
<svg version="1.1" id="Camada_1" xmlns="http://www.w3.org/2000/svg" xmlns:xlink="http://www.w3.org/1999/xlink" x="0px" y="0px"
	 viewBox="0 0 140.8 200" style="enable-background:new 0 0 140.8 200;" xml:space="preserve">
<style type="text/css">
	.st0{fill:#94A26E;}
	.st1{fill:none;stroke:#FFFFFF;stroke-width:1.9544;stroke-miterlimit:10;}
	.st2{fill:#FFFFFF;}
</style>
<g id="Grupo_2411">
	<path id="Caminho_6020" class="st0" d="M70.2,197.5L70.2,197.5c-37.9-0.1-68.7-30.8-68.8-68.8V70.9C1.3,32.9,32,2,70,1.8
		s68.9,30.5,69,68.5c0,0.2,0,0.3,0,0.5v57.9C138.9,166.7,108.2,197.4,70.2,197.5"/>
	<path id="Caminho_6021" class="st1" d="M70.2,188.3L70.2,188.3c-34.4-0.1-62.3-28-62.4-62.4v-52c0-34.5,28-62.4,62.4-62.4
		s62.4,28,62.4,62.4v52C132.6,160.3,104.7,188.2,70.2,188.3z"/>
	<path id="Caminho_6022" class="st2" d="M83.7,83.3c-0.3-0.1-0.5-0.1-0.8-0.1V60.5c-0.1-0.3-0.2-0.7-0.3-1l-0.1-0.1l-0.2-0.2
		l-0.1-0.1l-0.2-0.2c-0.1,0-0.1,0-0.1-0.1c0,0,0,0,0,0c-0.1,0-0.2-0.1-0.2-0.1h-0.1c-0.1,0-0.2-0.1-0.3-0.1h-0.9
		c-0.1,0-0.3,0.1-0.4,0.1c-0.1,0.1-0.3,0.1-0.4,0.2L39,82.5H24.3c-1.4,0-2.6,1.1-2.6,2.5c0,0,0,0.1,0,0.1v29.5
		c0,1.4,1.1,2.6,2.5,2.6c0,0,0.1,0,0.1,0H39L79,140.8c0.1,0.1,0.3,0.2,0.4,0.2c0.1,0.1,0.3,0.1,0.4,0.1h0.4c0.2,0,0.5,0,0.7-0.1h0.1
		c0.2-0.1,0.3-0.1,0.6-0.2c0.2-0.1,0.4-0.2,0.4-0.4l0.1-0.1c0.3-0.3,0.4-0.7,0.4-1.1v-22.6h0.1c0.3,0,0.5,0,0.8-0.1
		c6.9-2.5,11.5-9.1,11.5-16.5C95.3,92.5,90.7,85.8,83.7,83.3 M41.3,86.8l36.8-21.7v69.5l-36.8-21.8V86.8z M26.5,87.3h10.9l-0.1,25
		H26.5V87.3z M82.9,111.5V88.2c6.4,2.8,9.4,10.3,6.5,16.7C88.2,107.8,85.9,110.2,82.9,111.5"/>
	<path id="Caminho_6023" class="st2" d="M122.3,97.1H107c-1.3,0-2.4,1.1-2.4,2.4c0,1.3,1.1,2.4,2.4,2.4h15.3c1.3,0,2.3-1.1,2.3-2.4
		C124.6,98.2,123.6,97.2,122.3,97.1"/>
	<path id="Caminho_6024" class="st2" d="M98.8,82.4c0.6,0,1.2-0.2,1.7-0.7l10.9-10.9c0.9-0.9,0.9-2.4-0.1-3.4
		c-0.9-0.9-2.4-0.9-3.3,0L97.2,78.3c-0.9,0.9-0.9,2.4,0,3.4C97.6,82.1,98.2,82.4,98.8,82.4"/>
	<path id="Caminho_6025" class="st2" d="M100.5,117.5c-1-0.9-2.5-0.8-3.4,0.1c-0.9,0.9-0.9,2.3,0,3.2l10.9,10.9
		c0.9,0.9,2.4,0.9,3.4,0c0.9-0.9,0.9-2.4,0-3.4L100.5,117.5z"/>
</g>
</svg>
