<svg version="1.2" xmlns="http://www.w3.org/2000/svg" viewBox="0 0 126 62" width="126" height="62">
	<title>DAF_FITO_M1A1_RIM14d-svg</title>
	<defs>
		<clipPath clipPathUnits="userSpaceOnUse" id="cp1">
			<path d="m72.4 12.55h28.6v27.75h-28.6z"/>
		</clipPath>
	</defs>
	<style>
		tspan { white-space:pre } 
		.s0 { fill: #edebd3 } 
		.s1 { fill: #67714b } 
		.s2 { fill: #94a26e } 
		.s3 { fill: #b8be79 } 
		.s4 { fill: #d7d185 } 
		.s5 { fill: #b9716b } 
		.s6 { fill: #d6a16e } 
		.s7 { fill: none;stroke: #ffffff;stroke-linecap: round;stroke-linejoin: round;stroke-width: 2 } 
		.s8 { fill: #d4d4d4 } 
		.s9 { fill: #576570 } 
	</style>
	<g id="Layer">
		<g id="Layer2_0_MEMBER_0_MEMBER_0_FILL">
			<path id="Layer" class="s0" d="m0.4 0.6v60.8h125.3v-60.8z"/>
		</g>
	</g>
	<g id="Layer">
		<g id="Layer2_0_MEMBER_0_MEMBER_1_FILL">
			<path id="Layer" class="s1" d="m33.6 55.1q-0.5-0.5-1.2-0.5h-21.3q-0.7 0-1.3 0.5-0.5 0.6-0.5 1.2 0 0.7 0.5 1.2 0.6 0.6 1.3 0.6h21.3q0.7 0 1.2-0.6 0.5-0.5 0.5-1.2 0-0.6-0.5-1.2z"/>
		</g>
	</g>
	<g id="Layer">
		<g id="Layer2_0_MEMBER_0_MEMBER_2_FILL">
			<path id="Layer" class="s2" d="m60.8 55.1q-0.5-0.5-1.2-0.5h-21.3q-0.7 0-1.3 0.5-0.5 0.6-0.5 1.2 0 0.7 0.5 1.2 0.6 0.6 1.3 0.6h21.3q0.7 0 1.2-0.6 0.5-0.5 0.5-1.2 0-0.6-0.5-1.2z"/>
		</g>
	</g>
	<g id="Layer">
		<g id="Layer2_0_MEMBER_0_MEMBER_3_FILL">
			<path id="Layer" class="s3" d="m88 55.1q-0.5-0.5-1.2-0.5h-21.3q-0.7 0-1.3 0.5-0.5 0.6-0.5 1.2 0 0.7 0.5 1.2 0.6 0.6 1.3 0.6h21.3q0.7 0 1.2-0.6 0.5-0.5 0.5-1.2 0-0.6-0.5-1.2z"/>
		</g>
	</g>
	<g id="Layer">
		<g id="Layer2_0_MEMBER_0_MEMBER_4_FILL">
			<path id="Layer" class="s4" d="m115.2 55.1q-0.5-0.5-1.2-0.5h-21.3q-0.7 0-1.3 0.5-0.5 0.6-0.5 1.2 0 0.7 0.5 1.2 0.6 0.6 1.3 0.6h21.3q0.7 0 1.2-0.6 0.5-0.5 0.5-1.2 0-0.6-0.5-1.2z"/>
		</g>
	</g>
	<g id="Layer">
		<g id="Layer2_0_MEMBER_0_MEMBER_5_FILL">
			<path id="Layer" class="s5" d="m42.2 12.8q-6-5.9-14.5-5.9-8.5 0-14.5 5.9-6 6.1-6 14.6 0 8.5 6 14.4 6 6.1 14.5 6.1 8.5 0 14.5-6.1 6-5.9 6-14.4 0-8.5-6-14.6z"/>
		</g>
	</g>
	<g id="Layer">
		<g id="Layer2_0_MEMBER_0_MEMBER_6_FILL">
			<path id="Layer" class="s6" d="m5.8 25.9q0 8.5 6 14.4 6 6.1 14.5 6.1 8.5 0 14.5-6.1 6-5.9 6-14.4 0-8.5-6-14.6-6-5.9-14.5-5.9-8.5 0-14.5 5.9-6 6.1-6 14.6z"/>
		</g>
	</g>
	<g id="Layer">
		<g id="Layer2_0_MEMBER_0_MEMBER_7_FILL">
			<path id="Layer" class="s6" d="m20.3 35.4l16.3-9.5-16.3-9.4z"/>
		</g>
		<path id="Layer2_0_MEMBER_0_MEMBER_7_1_STROKES" fill-rule="evenodd" class="s7" d="m36.6 26l-16.3 9.4v-18.9z"/>
	</g>
	<g id="Layer">
		<g id="Layer2_0_MEMBER_0_MEMBER_8_FILL">
			<path id="Layer" class="s8" d="m53.9 15.4v22.3q0 8.2 8.2 8.2h49.2q8.2 0 8.2-8.2v-22.3q0-8.2-8.2-8.2h-49.2q-8.2 0-8.2 8.2z"/>
		</g>
		<path id="Layer2_0_MEMBER_0_MEMBER_8_1_STROKES" fill-rule="evenodd" class="s7" d="m62.1 7.2h49.2q8.2 0 8.2 8.2v22.3q0 8.2-8.2 8.2h-49.2q-8.2 0-8.2-8.2v-22.3q0-8.2 8.2-8.2z"/>
	</g>
	<g id="Layer">
		<g id="Layer2_0_MEMBER_0_MEMBER_9_FILL">
			<path id="Layer" class="s9" d="m59.2 35.8q0 5.5 5.5 5.5h43.9q5.6 0 5.6-5.5v-17.3q0-5.5-5.6-5.5h-43.9q-5.5 0-5.5 5.5z"/>
		</g>
	</g>
	<g id="Layer">
		<g id="Clip-Path" clip-path="url(#cp1)">
			<text id="05" style="transform: matrix(1,0,0,1,74.394,34.283)" >
			</text>
		</g>
	</g>
</svg>