<svg xmlns="http://www.w3.org/2000/svg" width="91.63" height="130.85" viewBox="0 0 91.63 130.85">
  <g id="Atualização_em_Fitoterapia_-_Aspectos_Clínicos_-_Telas-27" data-name="Atualização em Fitoterapia - Aspectos Clínicos - Telas-27" transform="translate(-1.68 -4.58)">
    <g id="Grupo_7875" data-name="Grupo 7875">
      <rect id="Retângulo_751" data-name="Retângulo 751" width="91.63" height="130.85" rx="45.815" transform="translate(1.68 4.58)" fill="#fff"/>
      <rect id="Retângulo_752" data-name="Retângulo 752" width="76.62" height="115.83" rx="38.31" transform="translate(9.19 12.08)" fill="none" stroke="#cda45e" stroke-miterlimit="10" stroke-width="1.5"/>
    </g>
    <g id="Grupo_7878" data-name="Grupo 7878">
      <g id="Grupo_7876" data-name="Grupo 7876">
        <path id="Caminho_10341" data-name="Caminho 10341" d="M42.66,101.48v1.1H38.78V96.05h1.35v5.43h2.52Z" fill="#cda45e"/>
        <path id="Caminho_10342" data-name="Caminho 10342" d="M44.85,102.58H43.49V96.05h1.36Z" fill="#cda45e"/>
        <path id="Caminho_10343" data-name="Caminho 10343" d="M51.81,96.05v6.53h-.7a.722.722,0,0,1-.27-.05.5.5,0,0,1-.21-.18l-3.25-4.14c0,.1.02.21.02.31v4.06H46.21V96.05h.86a.354.354,0,0,1,.11.03.276.276,0,0,1,.09.07,1.2,1.2,0,0,1,.1.11l3.28,4.16-.03-.33a3,3,0,0,1,0-.3V96.06h1.19Z" fill="#cda45e"/>
        <path id="Caminho_10344" data-name="Caminho 10344" d="M54.52,98.75h.27a.549.549,0,0,0,.48-.21l1.65-2.21a.668.668,0,0,1,.26-.22.862.862,0,0,1,.34-.06h1.17l-2.08,2.68a1.194,1.194,0,0,1-.42.37,1.079,1.079,0,0,1,.28.16,1.281,1.281,0,0,1,.24.27l2.13,3.05h-1.2a.617.617,0,0,1-.2-.02.661.661,0,0,1-.15-.05.313.313,0,0,1-.11-.08,1.063,1.063,0,0,1-.09-.11l-1.68-2.35a.458.458,0,0,0-.2-.17.954.954,0,0,0-.33-.05H54.5v2.83H53.15V96.05H54.5v2.7Z" fill="#cda45e"/>
      </g>
      <line id="Linha_50" data-name="Linha 50" x2="52.98" transform="translate(22 108.87)" fill="none" stroke="#cda45e" stroke-miterlimit="10" stroke-width="2"/>
      <g id="Grupo_7877" data-name="Grupo 7877">
        <path id="Caminho_10345" data-name="Caminho 10345" d="M62.79,58.51a3.908,3.908,0,0,0-2.13.61v-.76a4.144,4.144,0,0,0-4.03-4.24,3.886,3.886,0,0,0-2.48.9,4.044,4.044,0,0,0-3.75-2.68,4.66,4.66,0,0,0-2.12.5V44.92a4.235,4.235,0,0,0-8.47,0V62.9a4.805,4.805,0,0,0-2.78,1c-1.72,1.35-2.6,3.88-2.6,7.49a18.682,18.682,0,0,0,5.27,12.9,12.019,12.019,0,0,0,9.75,4.45h8.56s5.33.26,6.85-6.95a49.341,49.341,0,0,0,1.69-10.58V62.64c0-2.45-1.54-4.16-3.75-4.16Zm1.92,12.73a48.833,48.833,0,0,1-1.64,10.15c-1.19,5.65-4.8,5.56-5.01,5.54H49.44a10.14,10.14,0,0,1-8.29-3.73l-.11-.13a17.068,17.068,0,0,1-4.79-11.63c0-2.99.65-5.09,1.87-6.07a2.864,2.864,0,0,1,1.67-.63v3.82a.92.92,0,1,0,1.84,0V44.93a2.4,2.4,0,0,1,4.8,0V63.48a.92.92,0,1,0,1.84,0V55.83c0-1.6,1.9-1.65,2.12-1.65a2.307,2.307,0,0,1,2.2,2.4v1.51h0v7a.92.92,0,1,0,1.84,0V58.36h0a2.208,2.208,0,1,1,4.4,0v4.31h0v4.32a.92.92,0,0,0,1.84,0V62.62a2.157,2.157,0,0,1,2.13-2.28c1.42,0,1.92,1.25,1.92,2.32v8.57Z" fill="#cda45e"/>
        <path id="Caminho_10346" data-name="Caminho 10346" d="M48,39.17a.918.918,0,0,0,.92.92h6.85a.92.92,0,1,0,0-1.84H48.92A.918.918,0,0,0,48,39.17Z" fill="#cda45e"/>
        <path id="Caminho_10347" data-name="Caminho 10347" d="M47.59,36.68a.925.925,0,0,0,.65-.27l4.84-4.84a.919.919,0,0,0-1.3-1.3l-4.84,4.84a.917.917,0,0,0,0,1.3.908.908,0,0,0,.65.27Z" fill="#cda45e"/>
        <path id="Caminho_10348" data-name="Caminho 10348" d="M44.24,35.21a.918.918,0,0,0,.92-.92V27.44a.92.92,0,1,0-1.84,0v6.85A.918.918,0,0,0,44.24,35.21Z" fill="#cda45e"/>
        <path id="Caminho_10349" data-name="Caminho 10349" d="M40.18,36.28a.917.917,0,0,0,1.3,0,.917.917,0,0,0,0-1.3l-4.84-4.84a.919.919,0,1,0-1.3,1.3l4.84,4.84Z" fill="#cda45e"/>
        <path id="Caminho_10350" data-name="Caminho 10350" d="M40.28,38.98a.918.918,0,0,0-.92-.92H32.51a.92.92,0,1,0,0,1.84h6.85A.918.918,0,0,0,40.28,38.98Z" fill="#cda45e"/>
      </g>
    </g>
  </g>
</svg>
