
<svg xmlns="http://www.w3.org/2000/svg" version="1.1" xmlns:xlink="http://www.w3.org/1999/xlink" preserveAspectRatio="none" x="0px" y="0px" width="300px" height="255px" viewBox="0 0 300 255">
<defs>
<linearGradient id="Gradient_1" gradientUnits="userSpaceOnUse" x1="211.0625" y1="64.7875" x2="89.13749999999999" y2="186.7125" spreadMethod="pad">
<stop  offset="0%" stop-color="#EC9C75"/>

<stop  offset="98.43137254901961%" stop-color="#EBACA5"/>
</linearGradient>

<g id="Layer2_0_FILL">
<path fill="#ECB693" stroke="none" d="
M 118.4 66.35
Q 118.6 66.25 118.4 66.7 123.35 64.5 126.65 61.9 127.65 61.1 128.5 60.25 129.9 58.85 130.85 57.3 131.55 56.2 132 54.95 132.4 53.95 132.7 52.95 132.9 52.25 133.05 51.6 133.25 50.55 133.4 49.75 132.5 51.15 131.3 52.55 130.15 53.7 128.8 54.9 123.75 59.05 114.8 62.1 102.95 66.25 95.05 66.25
L 93.65 66.2
Q 93.7779296875 66.209375 93.9 66.25 97.95 66.75 98.95 66.75
L 109.8 66.6
Q 110.35 66.3 113.25 64.6 115.85 63.2 115.7 64.35 113.95 64.45 111.9 66 109.85 67.5 108.85 67.5 107.5 67.5 100.15 67.05 92.45 66.65 90.45 66.4 90 66.35 89.6 66.2 89.2 66.1 89 66
L 87.95 65.95
Q 87.85 65.8 86.8 65.45 86.2 65.25 86 65.05 84.75 66 83.4 67.05 82.75 67.55 82.15 68.05
L 82.15 68.65
Q 81.95 68.65 81.5 68.85 81.2 69 80.8 69.05 75.15 73.45 73.05 75.35
L 68.65 75.35
Q 65.35 72.35 64.15 68.05 63.75 66.75 63.45 64.1 63.3 62.4 63.1 60.15 62.65 55.05 61.55 52.2 60.05 48.5 56.85 45.75 56.45 45.4 56.1 45.1
L 56.05 45.1
Q 58.6458984375 52.9666015625 62.3 66.15 67.4 80.55 74.65 80.55 77.1 80.55 81.95 78.4 86.75 76.2 88.3 76.2 88.4 76.2 91.75 78.4 95.15 80.55 96.65 80.55 99.5 80.55 102.6 78.65 105.7 76.75 107.65 76.75 115.25 76.75 125.5 83.2 126.0087890625 83.517578125 126.5 83.8 113.64453125 85.221875 110.65 89.65
L 109 89.65
Q 109.6658203125 89.937890625 110.3 90.25 110.193359375 90.50078125 110.1 90.75 110.2 90.9 113.4 93.05 115.5 94.45 115.5 96.55 115.5 97.8 114.4 98.8 112.9 100.15 112.75 100.4
L 112.75 100.9
Q 113.70234375 100.3173828125 114.7 100.65 114.795703125 100.6818359375 115.1 100.8 115.8140625 101.1650390625 117.55 102.05 120.1216796875 103.4255859375 123.3 104.3 125.4681640625 104.948046875 127.9 105.35 128.15 104.9 128.55 104.55 130.2 102.8 131.35 102.1 131 102.85 129.05 105.3 128.95 105.4 128.9 105.5 130.2 105.7 131.65 105.85 131.65 106.55 130.5 107.1 129.15 107.05 127.75 106.95
L 127.7 106.95 127.7 107 129.85 107.1 130.8 107.3
Q 131.75 107.6 132.15 107.9 131.8 109 129.85 109
L 125.65 108.8
Q 125.5 108.65 125.25 108.5
L 125.2 108.5
Q 125.104296875 108.4255859375 125 108.35 124.9513671875 108.3986328125 124.9 108.45 124.9927734375 108.5515625 125.1 108.65 125.15 108.7 125.2 108.75 125.25 108.8 125.3 108.85 126.4 110 130.9 110.1
L 131.15 110.55
Q 130.75 111.4 127.35 111.6 125.9 111.2 124.45 110.4 124.35 110.3 124.25 110.25 124.024609375 111.18203125 122.8 111.9 122.3533203125 112.301953125 121.85 112.35 121.961328125 112.6177734375 122.05 112.85 122.2 113.3 122.3 113.8 122.95 115.75 123.15 117.65
L 122.5 117.9
Q 122.3 117.55 120.45 113.65 120.2041015625 113.0763671875 119.9 112.4 119.2 113.703125 119.2 114.65 119.2 115.6 123.2 124.95 128.3 136.8 128.8 138.05 129.8779296875 140.744921875 130.65 143.1 130.760546875 142.8029296875 130.85 142.5 130.87734375 142.40546875 130.9 142.3 130.784375 138.575390625 130.7 136.55 130.6 132.2 131.15 129.35 131.05 126.55 131.75 124.15 132.1 122.95 132.7 121.85 134.8 117.75 139.6 115.55 139.85 115.45 140.15 115.3 141.15 114.8 142.25 114.1 142.55 113.85 142.85 113.65 145.15 112 147.8 109.35 149.8 107.35 151.3 106.05 151.3 105.45 151.4 105 151.3220703125 104.844140625 151.25 104.65 151.4822265625 104.6353515625 151.8 104.6 152.15 104.4 152.25 103.8 152.2 103.2 152.2 102.9 152.2830078125 102.194921875 152.25 101.75 152.4142578125 101.702734375 152.55 101.6 152.554296875 99.29609375 152.65 96.6 153 86.75 153 85.05 152.9 83.1 153.25 81.95 153.4052734375 81.587890625 153.5 81.25 154.033984375 73.863671875 153.15 66.55 153.1 65.4 152.75 64.1 152.5 63 151.4 60.5
L 150.65 58.9
Q 149.8259765625 56.4890625 148.25 53.9 146 50.15 143.45 50.15 142.75 50.2 142.25 50.55 141.65 50.95 141.6 51.55 141.587890625 51.6462890625 141.6 51.75 141.55 52.01953125 141.55 52.45
L 141.25 53.55
Q 141.1 54.6 141.05 54.75
L 140.55 55.75
Q 140.5 55.8 140.25 56.75 140.1 57.3 139.2 59
L 137.3 62.1
Q 135.85 64.35 134.55 65.6 131.75 68.3 128 68.85 127.35 68.95 127.1 69.15 126.74375 69.363671875 126.7 69.65 125.9580078125 69.6234375 125.3 69.5 125 69.45 124.75 69.4
L 126.5 68.45 126.4 68.3
Q 126.45 68.3 126.45 68.25 126.6 68.15 126.75 68.05 126.75 67.95 126.75 67.8 126.75 67.65 127.2 67 127.8 66.1 129.15 64.25 131.7 60.8 132.3 57.4 132.4 56.95 132.5 56.45 131.6 57.95 130.3 59.5 129.45 60.6 128.45 61.55 127.2 62.8 125.85 63.75 121.45 66.9 115.6 68.05 114.8 68.4 114.1 68.65 110.2 70.05 106.85 70.05 102.4 70.05 100.6 69.15 99.15 68.45 98.5 68.3 99.05 68.4 100.45 68.75 102.15 69.25 103.05 69.25 110.9 69.25 116.25 67.25 117.4 66.85 118.4 66.35
M 123.7 102
Q 123.105859375 101.669921875 122.25 101.4 121.1837890625 101.11796875 119.7 100.95 120.3 100.55 120.3 100.35
L 123.15 100.55
Q 123.35 100.7 124.1 101.6 125 102.55 125.8 102.95 125.35 102.85 123.7 102
M 120.85 95.4
Q 119.45 93.35 118.85 91.05
L 119.55 89.7
Q 125.85 88.3 129.6 92.4
L 129.25 98.5
Q 124.35 100.7 120.85 95.4
M 151 105.8
Q 151.09921875 105.624609375 151.15 105.35
L 151.15 105.75 151 105.8
M 123.7 85.9
Q 122 85.5 123.05 84.75 123.2 84.65 123.35 84.55 123.45 84.4 123.55 84.3 125.8576171875 84.5978515625 128.15 84.9 128.9576171875 85.0349609375 129.75 85.15 131.45 85.35 133.1 85.6 138.05 85.8 140.7 89.85 141.45 91 142.35 92 143.8634765625 93.798828125 144.7 95.7 145.2599609375 96.887890625 145.55 98.1 145.8705078125 99.448828125 145.9 100.85 144.85 101.6 146.1 102.35 147.15 102.9 148.3 103.35 148.804296875 103.105078125 149.2 102.9 149.2384765625 102.976171875 149.25 103.05 149.379296875 103.89453125 149.25 104.45 149.1841796875 104.7720703125 149.05 105 148.75 105.5 148 106.05 146.785546875 107.0177734375 145.7 107.8 144.35546875 108.05625 143.2 107.85 143.15 107.85 143.1 107.85 141.05 107.6 139.75 105.85 137.75 103 137.55 99.5 137.55 98.95 137.55 98.35 137.55 97.5 137.25 96.9 135.775390625 94.0373046875 133.65 91.75 130.922265625 88.7603515625 127.1 86.75 126.5 86.65 125.95 86.55 125.2 86.25 124.5 86.1 124.1 85.95 123.7 85.9
M 165.95 75.65
Q 165.7 75.3 165.4 75 164.6 74.15 163.95 73.3 161.05 69.45 160.3 65.65 160.2 65.2 160.15 64.75 160 63.05 159 60.05 158.8 59.5 158.6 59 158.2 57.8 157.75 56.55 155.9 51.7 155.7 47.95 155.65 47.75 155.65 47.5 155.6 46.85 155.55 46.3 155.1 43.65 153.25 42.7 150.2 41.9 148.35 41.15 145.45 40.15 143.2 39.35 142.2 38.95 141.3 38.6 139.25 37.85 137.95 37.35 132.95 35.3 132.95 33.1 132.95 32.8 133 32.55 133.05 31.7 133.35 30.8 133.5 30.35 133.65 29.9 132.9 30.4 131.85 31.05 131.8 31.05 131.75 31.1 131.6 31.45 131.35 31.55 131 31.75 130.95 31.25 130.9 31.05 130.9 30.8 130.9 30.55 134.4 28.3 134.6 28.15 134.85 28 136.85 26.7 137.85 26.1 138.9 25.45 139 25.45 138.75 25.8 138.4 26.2 139.4 26.5 140.7 27.1 142.05 27.85 145.65 29.9 146.05 30.1 150.55 30.8 151.7 30.9 152.4 31.5 153.65 30.75 154.2 30.55 154.3 30.5 154.35 30.5 154.3 30.6 154.25 30.65 153.85 31.2 152.85 32.05 153.15 32.55 153.25 33.2 154.2 32.6 154.8 32.2 155.5 31.75 155.85 31.5 154.85 30.3 153.7 29.4 152.5 28.5 149.2 27.35 147.9 26.9 146.25 26.35 140.25 24.45 138.7 23.4 138.4 23.25 132.3 20.35 131.85 20.15 131.5 19.95 128.35 18.45 126.95 17.45 126.55 18.75 126 19.9 125.25 21.3 124.3 22.5 124.05 22.9 123.7 23.25 123.1 23.9 122.45 24.55
L 122.5 24.55
Q 121.55 25.5 120.7 26.7
L 121.1 26.7
Q 122.05 27.7 126.6 33.55 129.65 37.5 132.4 39.25
L 136.15 42.05
Q 139.3 44.4 140.85 45.05 146.4 47 149.05 48.45 149.05 48.3 149.05 48.2
L 150 48.2
Q 150.05 48.55 150.1 49.05 150.85 49.55 151.25 49.9
L 151.65 49.9
Q 151.9 50.5 150.5 50.55 151 52.55 152.3 55.55 153.25 57.95 153.9 59.75 154.15 60.6 154.35 61.25 154.7 62.6 154.8 63.45 154.85 63.85 155.05 64.6 155.2 65.35 155.55 66.55 155.75 66.85 155.95 67.15 157 68.9 157.2 72.45 157.8 73.4 159.05 75 159.6 75.7 160.05 76.25 160.85 77.35 161.25 78.1 161.5 78.5 161.55 78.8
L 161.65 79.25
Q 161.55 79.65 160.5 79.65 158.55 79.65 157.05 78.1 156.9 79.3 156.7 80.75 156.6572265625 81.0283203125 156.6 81.3 156.75 82.4470703125 156.75 84.65
L 156.75 93.1
Q 156.75 93.15 156.6 94.8
L 156.15 98.65
Q 156.1 99.25 156 101.35 155.95 103 155.8 104 156.1369140625 111.0470703125 158.55 116.4 158.85 117.1 159.25 117.8 164.4 122.85 168.75 128.5 170.6 129.6 170.6 129.65 170.6 130.25 170.35 130.6 174.2 135.8 177.4 141.55 189.4 163.05 197.85 186.3 203.85 205.25 211.15 223.8 217.2158203125 239.4666015625 224.25 254.6
L 263 254.6
Q 261.0849609375 251.696875 259 248.5 240.3 219.85 237.15 216.25
L 237.15 216.85
Q 237.35 218.1 238.6 221.55 239.95 225.2 241.1 227.35
L 241.1 229.95
Q 236.05 224.6 216.4 191.95 191.55 150.65 184.1 139 186.5 138.55 191.35 137.35 195.8 136.25 198.3 135.45 191.8 133.6 186.8 129.35 183.55 126.4 181.9 124.9 181.4 124.45 180.95 124.05 178.55 122.05 176.3 120.85
L 176.3 120.7
Q 178.05 121.45 181.7 124.25 183.5 125.6 185.75 127.5 191.15 132 198.25 134.6 196.1 133.5 192.9 130.35 189.65 127.05 185.3 124.4 183.1 123.05 180.7 121.9 180.1 121.65 179.55 121.4 178.6 120.95 177.55 120.3 176.2 119.45 174.75 118.2 170.85 114.9 166.25 108.85 159.3 99.75 159.3 97.15 159.3 93.8 161.9 86.45 164.4 79.75 165.95 75.65
M 131.15 29.65
L 130.9 29.25
Q 131.35 28.95 134.85 26.55 137.95 24.35 138.35 24.2 137.55 24.95 134.75 27.05 131.75 29.2 131.15 29.65
M 82.05 212.85
Q 82.1 213.55 82.1 214.35 82.3 215.5 82.35 216.25 82.8 220.8 82.6 225.4 82.5 227.7 82.35 229.25 82.35 241.35 81.05 246.7 80.3484375 249.6 78.65 254.6
L 79.1 254.6
Q 87.958984375 245.3509765625 88.2 242.7 88.25 243.6 88.55 246.2 88.9 249.55 88.9 250.4 88.9 252.2302734375 88.3 254.6
L 105.1 254.6
Q 104.87734375 246.0890625 100 236.95 96.3 231.3 94.95 229.1 95.1 229.8 95.35 230.8 95.95 233.7 95.95 235.5 95.95 236.25 95.7 240.25
L 95.4 240.25
Q 95.35 239.7 93.8 236.05 91.3 230.4 89.55 225.9 87.7 221.2 83.15 214.45 82.55 213.6 82.05 212.85
M 173.6 -0.5
L 165.45 -0.5
Q 165.11484375 0.314453125 164.45 1.25 164.1 1.75 163.75 2.2 164.9 2.8 165.7 3.3 169.55 5.8 171.6 9.9 171.95 10.5 172.25 11.25 172.8 12.6 173.25 14.2 173.35 14.95 173.55 15.7 173.95 17.65 174.15 20 174.1 20.1 174.05 20.15 174.45 21.05 175 22 175.4 22.9 175.9 23.85 176.6 25.25 177.4 26.95 177.4484375 26.9984375 177.45 27.05 177.45 26.9984375 177.45 26.95 177.2 25.65 176.85 23.75 176.3 21.35 176.05 19.3 175.8 17.9 175.75 16.7 175.7 16.6 175.7 16.5
L 175.7 12.85
Q 175.95 13.1 178.6 16.95 179.15 17.8 179.65 18.5
L 179.65 17.05
Q 177.9 12.55 176 6.3 174.8162109375 2.4078125 173.6 -0.5
M 179.1 -0.5
L 175.8 -0.5
Q 175.951171875 -0.13046875 176.1 0.25 177.3 3.35 179.25 9.1 179.9 10.8 181.3 17.55 181.45 18.25 181.65 18.95 181.65 15.85 181.85 12.8 182 10.6 182.15 8.8 181.4 6.8 181.25 5.5 181.15 4.95 181.15 4.55 181.15 3.7 179.45 0.25 179.283984375 -0.1095703125 179.1 -0.5
M 153.3 -0.2
Q 153.0427734375 -0.348828125 152.8 -0.5
L 144.35 -0.5
Q 145.4 3.78671875 145.4 7.7 145.4 9.55 145.35 10.85 145.6 10.9 145.9 10.9
L 147.8 10.65
Q 149.7 8.75 152.45 5.8 152.45 5.5 152.45 5.25 152.45 5.15 152.45 5.1 152.45 5 152.45 4.9
L 153.05 4.9
Q 153.1 5 153.15 5.15 153.2 5.4 153.25 5.75 153.3 6.05 153.35 6.35
L 153.4 6.7
Q 153.4 6.75 153.35 6.85 153.4 7.45 153.4 8.2 153.4 11.65 153 12.35 152.2 13.8 149.3 14.85 151 15.05 153.9 16.05 154.4 16.8 156.75 19.85 159.1 22.85 159.65 23.7 159.55 23.9 159.5 24.05 159.8 24.3 160 24.5 162.5 26.45 164.55 26.45 166.15 26.45 167.65 26.25 168.05 25.85 168.65 25 169.25 24.3 170.5 24.2 170.7 24.45 171 24.5 171.15 24.65 171.15 25.6 171.15 28 169.6 30.3 168.7 31.65 167.45 32.6 166.1 33.45 164.5 33.95 164.1 34 163.8 34.1
L 160 34.1
Q 160.5 35.3 161.05 36.65 161.3 37.35 161.6 38.05 163.25 42.25 164.25 44.45 164.9 45.4 165.4 46 167.1 48 170.9 51 165.45 39.45 165.45 35.75 165.45 35.45 165.55 35.35 165.65 35.3 165.65 35.25 166.65 35.7 168.45 34.35 168.85 34.05 169.3 33.65 172.05 31.2 172.05 27.75 172.05 24.7 170.65 21.55 168.8 18.05 167.85 15.95 168.05 17 167.35 17.95 166.55 19.1 165.35 19.1 162.3 19.1 159.95 17.3 157.65 15.1 156.25 14.4 156.7 14 157.15 12.5 157.35 11.85 157.5 11.2 157.65 10.2 157.65 9.35 157.65 9.2 157.65 8.95 157.6 8.8 157.6 8.65 157.55 8.1 157.45 7.35 157.35 6.85 157.25 6.25 157.2 5.95 157.15 5.6 157 4.85 156.85 4.25 156.85 4.1 156.8 4 156.55 2.45 156.4 1.55 154.55 0.55 153.3 -0.2
M 130.95 143.95
Q 130.814453125 143.5294921875 130.65 143.1 127.5884765625 153 122.15 153 121.20546875 153 120.35 152.95 121.0591796875 154.1853515625 120.95 155.25 120.9 155.35 120.85 155.45 120.55 155.75 120 155.9 119.8 155.1 119.55 154.5 119.1 154.3 118.55 154.15 115.15 153.4 113.25 152.9 110.25 152.15 108.4 150.95 106.55 150.7 105.9 149.55 105.7771484375 148.8375 105.7 148.45 105.65 148.075390625 105.65 148.05 105.65 147.8 105.7 147.55 105.45 146.75 105.45 145.95 105.45 145.5 105.45 145.1 101.75 146.75 94.8 149.2 94.55 149.55 94.3 149.7 94.05 149.85 93.95 149.75 92.8 150.85 92 152.2 94.1 151.1 94.75 150.85 96 150.35 97.5 150.35 100.7 150.35 102.75 152.2 103.7 153.1 105.9 156.35 107.15 158.2 108.8 159.55 109.05 158.9 109.45 158.3 109.5 158 109.8 157.6 110 157.3 110.2 157.15 110.6 156.6 110.95 156.15 109.9 155.5 109.45 155.25
L 109.45 153.75
Q 109.55 153.75 110.15 153.5 110.8 153.25 111.7 153.25 114.4 153.25 118 155.9 119.45 156.95 120.7 158.15 121.05 158.5 121.4 158.85 122.15 158.8 123.75 158.5 124.45 158.15 125.2 157.75 126.15 157.2 126.85 156.75 130.746875 151.471875 130.95 143.95
M 80.45 171.25
L 80.85 171.1
Q 80.9 171.15 82.8 174.15 82.75 174.05 82.75 174 82.6 173.7 80.1 165.35 78 176.65 78 179 78 181.55 80.25 183.75 80.95 184.45 83.45 186.4 83.75 185.3 84.1 183.6 84.4 181.8 86.15 180.6
L 84.5 179.95
Q 85 179.45 85.45 179 85 178.45 84.55 177.7 83.65 176.85 82.5 175.1 81.3 173.2 80.45 171.25
M 80.45 174.9
L 80.85 174.9
Q 81.2 175.3 82.3 176.3 83.35 177.45 84.05 178.8
L 83.9 179.1
Q 81.95 178.8 81 176.9 80.45 175 80.45 174.9
M 2.35 134.25
Q 1.1 133.3 0 132.1
L 0 136.75
Q 0.1 136.85 0.25 136.95 6.25 138.55 10.95 144.75 15.1 150.2 15.1 153.9 15.1 154.65 14.45 157.75 13.75 161.2 13.2 162 12.7 162 12.55 161.55
L 13.25 160.8
Q 13.85 160.1 13.85 159.2 13.85 158.15 13.85 157.25 13.4 158.45 12.95 160.15 11.75 163.75 9.5 165.55
L 8.05 165.55
Q 7.75 166.4 7.75 164.8 7.75 163.95 8.8 163.1 10.1 162 10.55 160.3 10.8 159.45 10.8 156.65 10.8 149.8 2.9 146.35 1.2 145.6 0 145
L 0 183.3
Q 2.85 181.65 5.45 180.35 5.35 180.05 5.35 179.8
L 5.45 179.2 6.05 179.2
Q 6.1 179.45 6.25 179.9 10.95 177.35 14.35 175.8 18.65 173.85 22 173.05 28.9 171.35 32.2 174.3 42.05 182.75 50.2 191.1 53.05 193.45 55.9 194.25 58.25 195 62.15 195.15 52 190.6 42.45 179.2 27.75 161.65 25.1 142.1
L 25.1 142.75
Q 24.4 143.5 23.1 148.9 21.9 153.8 21.8 155.15
L 21.8 154.4
Q 20 150.15 18.6 146.4 18.5 147.5 18.25 149.1
L 17.8 149.1
Q 17.2 138.75 2.35 134.25
M 18.8 81.35
Q 18.6 76.75 18.05 74.45 14.1 78.2 7.15 82.7 3.4 85.15 0 86.9
L 0 129
Q 2.45 132 5.7 133 8.65 133.8 13.75 139.05 16.1 141.55 17.4 143.2 16.65 141.25 16.05 139.5 7.1 119 7.1 115.75 7.1 111.6 8.2 107.05 9.15 102.7 10.8 99.25
L 11.05 99.95
Q 10.2 102.6 9.35 106.45 8.55 110.55 8.55 112.85 8.55 116.3 13 128.55 11.4 120.75 11.4 113.1 11.4 108.65 13.65 101.25 15.8 94.15 17.35 92.6
L 20.5 92.6
Q 20.5 97 21.8 107.65
L 22.45 107.65
Q 24.3 103.85 25.95 100.55 27.85 96.7 29.3 94.45
L 29.25 94.4
Q 28.65 94.8 28.1 94.8 20.85 94.8 19.45 87.9 19.1 86 18.8 81.35
M 35.45 66.35
Q 35.75 66.85 35.75 67.25 35.75 67.8 34.85 71.5 33.9 75.25 33.9 76.55 33.9 79.4 34.2 80.1 34.75 81.35 36.85 81.35 40.95 81.35 45.1 74.8 45.9 73.6 46.8 71.9 45.8 73.4 44.6 75
L 43.2 75
Q 42.85 74.75 42.75 74.65 42.7 74.55 42.7 73.55 42.7 73.45 44.35 70.05 45.9 66.7 45.9 65.2 45.9 63.5 45.5 62.75 44.85 61.5 43.05 61.1
L 38.55 61.25
Q 37.15 62.55 35.45 65.9 35.4 66.05 35.35 66.2 35.4 66.25 35.45 66.35
M 50.95 46.8
Q 50.1 42.4 45.6 42.4 40.8 42.4 37.3 47.4 34.75 51.05 34.75 52.65 34.25 52.55 34.1 52.45 33.8 52.35 33.8 51.4 33.8 51.2 33.85 51 33.75 51.2 33.65 51.35 30.55 57.85 30.55 67.45 30.55 70.95 30.85 71.85
L 31.15 71.85
Q 31 70.4 32 68.15 32.75 66.6 33.5 66.05 33.65 65.3 33.65 65.25 34.9 61.9 38.05 59.5
L 39.95 59.35
Q 42.05 59.2 43.05 59.2 45.6 59.2 46.9 61.85 47.8 63.65 47.8 65.1
L 47.95 65.3
Q 50.65 58.2 50.8 57.65 50.95 57 50.95 51.55 51.4 49 50.95 46.8
M 81.7 65.75
Q 81.8 65.7 81.85 65.65 82 65.55 82.15 65.45 82.55 65.15 83.1 64.85 84.6 63.8 86.8 62.2 86.2 62.4 84.65 63.15 83.55 63.8 82.6 63.8 76.1 63.8 72.5 59.5 71.1 57.85 70.5 56.3 70.65 58.45 71.6 60.75 73.3 64.75 76.9 67.5 78.15 67.65 79.1 67.7 80.75 66.45 81.7 65.75 Z"/>

<path fill="#3B3D35" stroke="none" d="
M 123.05 84.75
Q 122 85.5 123.7 85.9 124.1 85.95 124.5 86.1 125.2 86.25 125.95 86.55 126.5 86.65 127.1 86.75 130.922265625 88.7603515625 133.65 91.75 135.775390625 94.0373046875 137.25 96.9 137.55 97.5 137.55 98.35 137.55 98.95 137.55 99.5 137.75 103 139.75 105.85 141.05 107.6 143.1 107.85 143.15 107.85 143.2 107.85 144.35546875 108.05625 145.7 107.8 146.785546875 107.0177734375 148 106.05 148.75 105.5 149.05 105 149.1841796875 104.7720703125 149.25 104.45 149.379296875 103.89453125 149.25 103.05 149.2384765625 102.976171875 149.2 102.9 148.804296875 103.105078125 148.3 103.35 147.15 102.9 146.1 102.35 144.85 101.6 145.9 100.85 145.8705078125 99.448828125 145.55 98.1 145.2599609375 96.887890625 144.7 95.7 143.8634765625 93.798828125 142.35 92 141.45 91 140.7 89.85 138.05 85.8 133.1 85.6 131.45 85.35 129.75 85.15 128.9576171875 85.0349609375 128.15 84.9 125.8576171875 84.5978515625 123.55 84.3 123.45 84.4 123.35 84.55 123.2 84.65 123.05 84.75
M 132.15 87.8
Q 133.2505859375 88.08359375 134.25 88.5 140.4 90.95 142.75 97.55 143.15 98.85 143.8 100.05
L 143.65 101.95 147.3 106
Q 145.6 106.05 144.15 105 142.75 104.05 141.55 102.05 141.4 101.8 141.25 101.55 139.75 98.95 138.85 96.15 137.248828125 91.2005859375 133 88.5 132.8814453125 88.4296875 132.75 88.35 132.2 87.95 131.7 87.7 131.9255859375 87.7501953125 132.15 87.8
M 151.15 105.35
Q 151.09921875 105.624609375 151 105.8
L 151.15 105.75 151.15 105.35
M 122.25 101.4
Q 123.105859375 101.669921875 123.7 102 125.35 102.85 125.8 102.95 125 102.55 124.1 101.6 123.35 100.7 123.15 100.55
L 120.3 100.35
Q 120.3 100.55 119.7 100.95 121.1837890625 101.11796875 122.25 101.4
M 124.55 -0.5
L 122.5 -0.5
Q 122.744921875 -0.075 123 0.35 123.45 1.1 123.95 1.95 124.25 2.5 124.65 3.15 125.95 5.6 125.95 7.9 125.95 12.65 125.45 14.6 125.35 14.95 125.25 15.2 125 15.8 124 17.55 122.6 19.7 120 23.7 119.55 24.35 116.8 25.75 116.3 26 115.85 26.3 112.75 27.9 111.4 28.7 109.55 29.85 108.2 31.1 107.4 31.8 106.85 32.5 105.7 33.75 105.15 35.1 104.6 36.25 104.4 37.4 104.25 38.25 104.3 39.1 104.5 39.3 104.75 39.4 105.1 39.5 105.55 39.4 105.55 39.2 105.6 39 105.7 37.95 106.2 36.95 106.75 35.8 107.75 34.7 108.45 34.05 109.25 33.35 109.35 33.25 109.65 33.1 111.05 32.15 116.85 28.65 117.95 27.95 118.9 27.3 118.35 28.55 117.95 29 117.5 29.6 116.4 32.5 115.15 35.55 115.15 36.5 115.15 37.4 115.35 38 115.55 38.5 115.55 38.6
L 116.2 38.45
Q 117.3 33.6 118.3 31.2 119.15 28.95 120.4 27.1
L 120.15 28.65
Q 122.65 33.05 129.3 39.5 128.25 40.35 126.2 42.8 124.95 44.25 124 45.4 123.05 46.45 122.4 47.2 121.5 48.25 121.25 48.5
L 121.6 48.85
Q 122.3 48.25 123 47.65 123.95 46.8 124.75 46 127.9 42.85 129.65 39.8 129.75 39.9 129.8 40 133.6 43.6 137.25 46 137.7 49.7 137.25 52.85 137.15 53.35 137.05 53.85 136.9 54.45 136.75 55.1 136.5 55.95 136.15 56.8 134.8 60.3 131.75 63.55 131.5 63.85 131.2 64.2 134 60.15 135.35 55.2 135.55 54.15 135.75 53.1 135.85 52.6 135.9 52.15 135.45 52.1 134.9 53.1 134.8 53.2 134.75 53.3
L 134.25 54.5
Q 134.35 53.8 134.45 53.1 134.5 52.25 134.55 51.4 134.8 50.1 134.8 48.85 134.8 47.6 134.55 46
L 134.05 46
Q 133.95 46.5 133.8 47.2
L 133.75 47.2
Q 133.7 47.55 133.7 47.9 133.65 47.95 133.65 48.15 131.6 50.15 129.75 51.8 128.85 52.55 128.05 53.2 125.05 55.6 122.5 57.05 109.4 64.35 89.75 64.35 89.05 64.35 87.4 63.95 88.5 63.05 89.55 62.3 89.15 63.55 88.1 64.1 89.05 63.9 89.45 63.4 89.7 63.15 90.15 62.6 91.45 61.5 97.35 61.25 108.95 60.25 113.25 56.85 115.65 55 117.3 51.7 116 52.15 114.95 53.5 113.6 55.45 112.95 55.95 109.3 59.15 97.35 59.65
L 96.8 60.15
Q 92.7 60.5 90.85 61.15 92.6 59.7 93.65 58.75 92.3 59.45 91.15 60.15 95.3 56.9 96.8 54.85 95.55 55.55 89.95 59.85 88.2 61.15 86.8 62.2 84.6 63.8 83.1 64.85 82.55 65.15 82.15 65.45 82 65.55 81.85 65.65 81.8 65.7 81.7 65.75 80.75 66.45 79.1 67.7 78.15 67.65 76.9 67.5 73.3 64.75 71.6 60.75 70.65 58.45 70.5 56.3 71.1 57.85 72.5 59.5 76.1 63.8 82.6 63.8 83.55 63.8 84.65 63.15 86.2 62.4 86.8 62.2 86.65 62 85.9 61.85
L 85.15 61.7
Q 80.45 63.7 76.75 61.2 73.35 58 71.95 57.35 71.05 52.2 70.45 49.55 69.65 46.25 67.5 44.25 70.95 43.15 74.1 40.85 78.65 40.15 84.2 35.25 90.2 30 91.05 24.15 91.25 22.6 91.1 21.05 90.8 21.4 89.45 25.2 88.1 28.95 86.4 30.8 85.2 32.4 84.4 33.35 83 35.1 81.35 36.25 79.6 37.45 77.15 38.35
L 77.15 38.3
Q 83 32.65 85.65 24 86.1 22.65 86.4 21.25 87.05 18.4 87.4 15.35 87.45 15.15 87.45 14.95 87.3 15.15 87.1 15.4 86.25 16.55 85.4 18.15 84.85 19.05 84.3 20.1 83.75 21.3 83.15 22.7 82.95 23.05 82.8 23.35 82.6 23.85 82.4 24.35 82.05 25.15 81.75 25.9 79.5 30.9 78.65 32.45 78.15 33.4 77.5 34.35 75.35 37.45 72.45 39.45 71.65 39.6 70.9 39.7 68.75 39.95 66.3 40.05 66.3 40.35 68.8 40.7 69.4 40.8 69.95 40.85 67.1 42.2 63.65 42.55 63.25 42.6 62.85 42.65 61.85 42.7 60.8 42.7 57.4587890625 42.7 55.15 42.4 54.36953125 42.2916015625 53.7 42.15 52.6 41.85 51.85 41.5 51.6 41.4 51.4 41.3 48.8 39.9 46.85 39.9 42.15 39.9 38.15 40.4 37.1 40.5 36.15 40.65 33.5 41.1 31.25 41.8 27.3 42.85 24.25 44.65 23.8 44.9 23.4 45.2 23 45.45 22.6 45.75 18.4 48.65 17.65 51.7 17.85 51.7 19.35 50.1 21.25 48.2 23.55 46.8 23.75 46.65 24 46.55 25 46 26.15 45.45 27.15 45 28.25 44.6 27.85 45.15 27.45 45.8 26.85 46.55 26.25 47.55 24.8 49.7 22.85 52.65 19.75 57.4 17.65 59.5 12.15 64.95 0 65.3
L 0 66.45
Q 1.55 66.6 3.4 66.6 11.7 66.6 17.35 61.9 21.5 58.55 25.1 52.1 24.75 53.15 24.6 54.1 24.55 54.6 23.6 56.95 23.5 57.15 23.45 57.3 22.9 58.1 22.3 59.1 17.25 67.45 13.55 69.55 12.4 70.2 5.45 73.15 1.85 74.7 0 75.65
L 0 86.9
Q 3.4 85.15 7.15 82.7 14.1 78.2 18.05 74.45 18.6 76.75 18.8 81.35 19.1 86 19.45 87.9 20.85 94.8 28.1 94.8 28.65 94.8 29.25 94.4
L 29.3 94.45
Q 29.45 94.5 29.55 94.5 30.65 94.5 31.85 94.15 32.85 93.85 33.15 93.55 31.55 93.25 30.45 92.65 30 92.4 29.65 92.15 28.1 91 27.7 89.15 27.55 88.55 27.55 87.95 28.4 82.9 27.65 81.2 25.85 77.1 25.4 73.8 25.15 71.95 25.15 67.1 25.15 59.95 26.15 55.85
L 26.15 55.8
Q 27.15 54.05 27.85 52.95 27.5 52.75 27.05 53 28 50.45 29.45 48.2 30.25 47 31.25 45.9 31.85 45.15 32.55 44.4 30.9 43.1 28.55 46 28.1 46.4 27.7 47 27.5 47.25 27.4 47.5 27.7 46.7 28.1 45.95 28.4 45.2 28.7 44.4 32.1 43.25 36.35 42.65 37.2 42.55 38.15 42.45 39.3 42.3 40.6 42.25 39.25 43.1 37.75 44.5 37.4 44.85 37.05 45.2 36.6 45.7 36.2 46.2 34 48.75 33.85 51 33.8 51.2 33.8 51.4 33.8 52.35 34.1 52.45 34.25 52.55 34.75 52.65 34.75 51.05 37.3 47.4 40.8 42.4 45.6 42.4 50.1 42.4 50.95 46.8 51.4 49 50.95 51.55 50.95 57 50.8 57.65 50.65 58.2 47.95 65.3
L 47.8 65.1
Q 47.8 63.65 46.9 61.85 45.6 59.2 43.05 59.2 42.05 59.2 39.95 59.35
L 38.05 59.5
Q 34.9 61.9 33.65 65.25 33.65 65.3 33.5 66.05 33.2 67.25 32.55 70.55
L 33.15 70.4
Q 33.35 70.15 35.35 66.2 35.4 66.05 35.45 65.9 37.15 62.55 38.55 61.25
L 43.05 61.1
Q 44.85 61.5 45.5 62.75 45.9 63.5 45.9 65.2 45.9 66.7 44.35 70.05 42.7 73.45 42.7 73.55 42.7 74.55 42.75 74.65 42.85 74.75 43.2 75
L 44.6 75
Q 45.8 73.4 46.8 71.9 49.95 66.95 51.4 62.5 51.5 62.2 51.6 61.9 52.95 57.15 52.95 50.95 52.95 46.1 52.35 44.75 52.25 44.5 52.15 44.3 52.9 44.5 53.8 44.7 54.837109375 44.946875 56.05 45.1
L 56.1 45.1
Q 56.45 45.4 56.85 45.75 60.05 48.5 61.55 52.2 62.65 55.05 63.1 60.15 63.3 62.4 63.45 64.1 63.75 66.75 64.15 68.05 65.35 72.35 68.65 75.35
L 73.05 75.35
Q 75.15 73.45 80.8 69.05 81.2 69 81.5 68.85 81.95 68.65 82.15 68.65
L 82.15 68.05
Q 82.75 67.55 83.4 67.05 84.75 66 86 65.05 86.2 65.25 86.8 65.45 87.85 65.8 87.95 65.95
L 89 66
Q 89.2 66.1 89.6 66.2 90 66.35 90.45 66.4 92.45 66.65 100.15 67.05 107.5 67.5 108.85 67.5 109.85 67.5 111.9 66 113.95 64.45 115.7 64.35 115.85 63.2 113.25 64.6 110.35 66.3 109.8 66.6
L 98.95 66.75
Q 97.95 66.75 93.9 66.25 93.7779296875 66.209375 93.65 66.2
L 95.05 66.25
Q 102.95 66.25 114.8 62.1 123.75 59.05 128.8 54.9 130.15 53.7 131.3 52.55 132.5 51.15 133.4 49.75 133.25 50.55 133.05 51.6 132.9 52.25 132.7 52.95 132.4 53.95 132 54.95 131.55 56.2 130.85 57.3 129.9 58.85 128.5 60.25 127.65 61.1 126.65 61.9 123.35 64.5 118.4 66.7 118.6 66.25 118.4 66.35 117.4 66.85 116.25 67.25 110.9 69.25 103.05 69.25 102.15 69.25 100.45 68.75 99.05 68.4 98.5 68.3 99.15 68.45 100.6 69.15 102.4 70.05 106.85 70.05 110.2 70.05 114.1 68.65 114.8 68.4 115.6 68.05 121.45 66.9 125.85 63.75 127.2 62.8 128.45 61.55 129.45 60.6 130.3 59.5 131.6 57.95 132.5 56.45 132.4 56.95 132.3 57.4 131.7 60.8 129.15 64.25 127.8 66.1 127.2 67 126.75 67.65 126.75 67.8 126.75 67.95 126.75 68.05 126.6 68.15 126.45 68.25 126.45 68.3 126.4 68.3
L 126.5 68.45 124.75 69.4
Q 125 69.45 125.3 69.5 125.9580078125 69.6234375 126.7 69.65 126.74375 69.363671875 127.1 69.15 127.35 68.95 128 68.85 131.75 68.3 134.55 65.6 135.85 64.35 137.3 62.1
L 139.2 59
Q 140.1 57.3 140.25 56.75 140.5 55.8 140.55 55.75
L 141.05 54.75
Q 141.1 54.6 141.25 53.55
L 141.55 52.45
Q 141.55 52.01953125 141.6 51.75 141.587890625 51.6462890625 141.6 51.55 141.65 50.95 142.25 50.55 142.75 50.2 143.45 50.15 146 50.15 148.25 53.9 149.8259765625 56.4890625 150.65 58.9
L 151.4 60.5
Q 152.5 63 152.75 64.1 153.1 65.4 153.15 66.55 154.033984375 73.863671875 153.5 81.25 153.4052734375 81.587890625 153.25 81.95 152.9 83.1 153 85.05 153 86.75 152.65 96.6 152.554296875 99.29609375 152.55 101.6 152.4142578125 101.702734375 152.25 101.75 152.2830078125 102.194921875 152.2 102.9 152.2 103.2 152.25 103.8 152.15 104.4 151.8 104.6 151.4822265625 104.6353515625 151.25 104.65 151.3220703125 104.844140625 151.4 105 151.3 105.45 151.3 106.05 149.8 107.35 147.8 109.35 145.15 112 142.85 113.65 142.55 113.85 142.25 114.1 141.15 114.8 140.15 115.3 139.85 115.45 139.6 115.55 134.8 117.75 132.7 121.85 132.1 122.95 131.75 124.15 131.05 126.55 131.15 129.35 130.6 132.2 130.7 136.55 130.784375 138.575390625 130.9 142.3 130.9265625 143.00078125 130.95 143.75 130.948046875 143.852734375 130.95 143.95 130.746875 151.471875 126.85 156.75 126.15 157.2 125.2 157.75 124.45 158.15 123.75 158.5 122.15 158.8 121.4 158.85 121.05 158.5 120.7 158.15 119.45 156.95 118 155.9 114.4 153.25 111.7 153.25 110.8 153.25 110.15 153.5 109.55 153.75 109.45 153.75
L 109.45 155.25
Q 109.9 155.5 110.95 156.15 110.6 156.6 110.2 157.15 110 157.3 109.8 157.6 109.5 158 109.45 158.3 109.05 158.9 108.8 159.55 108.1 160.7 107.45 162.1 106.4 164.45 105.05 166.15 104.15 165.75 103.3 164.95 101.7 163.3 101.6 163.2 99.4 161.35 94.35 161.25 93.65 161.25 92.85 161.25 92.85 161.4 92.35 161.55 95.7 162.4 98.85 164.05 99.7 164.5 102.85 166.45
L 104 166.65 104.3 166.7 104.75 166.55
Q 104.55 166.75 104.4 166.9 103.7 167.6 103 168.25 102.95 168.25 102.9 168.25 101.35 168.95 100.4 169.55 100.3 169.45 100.2 169.35
L 99.25 169.35
Q 98.9 170.5 98.65 171.45 97.55 175.15 96.95 177 96.9 177.1 96.9 177.15 96.75 177.25 96.65 177.3 96.3 177.55 95.9 177.75 94.95 177.75 94.05 177.8 86.4 178.1 86.35 178.2 85.95 178.55 85.45 179 85 179.45 84.5 179.95
L 86.15 180.6
Q 84.4 181.8 84.1 183.6 83.75 185.3 83.45 186.4 83.05 187.75 82.75 188.2 81.15 190.9 78.95 192.2 74 195.15 64 195.15 63.05 195.15 62.15 195.15 58.25 195 55.9 194.25 53.05 193.45 50.2 191.1 42.05 182.75 32.2 174.3 28.9 171.35 22 173.05 18.65 173.85 14.35 175.8 10.95 177.35 6.25 179.9 6.1 179.45 6.05 179.2
L 5.45 179.2 5.35 179.8
Q 5.35 180.05 5.45 180.35 2.85 181.65 0 183.3
L 0 186.2
Q 1.5 185.4 3.85 184.25 5 183.65 6.05 183.15 6.75 186.3 8.45 191.95 12.25 205.3 12.85 207.75
L 13.05 207.55
Q 13.05 207.3 13.25 206.8 13.45 206.2 13.45 205.65 13.45 200.9 10.5 192.5 8.25 185.95 7.1 182.5 8.6 181.65 9.5 180.85 10.55 180 11.75 179.25 12.2 180.85 13.55 185.4 14.85 189.85 15.4 192.15 15.7 192.15 15.8 191.9 14.35 183.1 12.15 179 12.45 178.75 12.85 178.6 14.5 183.65 17.45 190.3 18 191.55 18.35 193.4 18.9 195.75 19 196.15 19.05 196.35 19.4 199.4 19.65 201.2 20.65 201.4 19.9 197.35 19.55 195.3 18.8 191.65 18.1 189.45 17.95 189 15.7 183.2 14.35 179.9 13.25 178.4 17.6 176.1 23.2 175.65 24.6 175.5 26.1 175.5 29.4 175.5 33.2 179.05 35.5 181.2 40.55 186.9 51.35 198.3 64.4 198.3 64.6 198.3 64.85 198.3 65.35 206.4 64.75 214.4 63.3 234.8 54.85 254.45
L 55.35 254.45
Q 62.2 243.05 64.75 227.55 66.15 218.65 66.15 208.5
L 66.1 198.3
Q 69 198.2 71.45 197.75 74.75 197.25 77.35 196.15 77.35 196.25 77.35 196.4 77.05 197 77.05 197.95 77.05 198.35 78.3 204.3 78.7 206.6 78.95 208.45 79.45 211.7 79.45 213.5 79.45 217.35 78 223.5 77.8 224.2 77.6 225 77 227.2 74.15 236.75 71.55 245.5 66.3 253.85 66.053125 254.23046875 65.8 254.6
L 78.65 254.6
Q 80.3484375 249.6 81.05 246.7 82.35 241.35 82.35 229.25 82.5 227.7 82.6 225.4 82.8 220.8 82.35 216.25 82.3 215.5 82.1 214.35 82.1 213.55 82.05 212.85 81.95 209.5 81.7 207.25 81.35 204.45 80.75 202 80.8 202.05 80.85 202.1 85.6 203.95 90.65 206.7 98.05 210.85 104.65 215.8 121.45 228.3 134.75 244.95 136.2 246.85 137.7 248.7
L 138 247.6 142 248.85 134.95 240.4
Q 147.944140625 248.787109375 162.3 254.6
L 175.4 254.6
Q 148.53828125 247.017578125 125.9 229.1
L 125.35 229.25
Q 124.65 228.15 123.95 227.15 112.5 210.75 93.9 203.2 89.6 201.1 86.4 200.35 82.3 199.4 81.2 197.6 81.15 197.45 81.1 197.3 80.75 196.1 80.4 195.35 81 194.7 82.65 193.25 85.65 190.5 86.8 189.15 86.85 189.1 86.9 189.05 87.9 187.9 88.45 185.5 89.05 182.85 89.35 181.85 99 180.9 100.2 177.1 100.05 172.8 102 171.2 106.45 170.3 108.45 167.85 109.45 166.65 110.2 164.2 110.85 162.45 111.35 161.15 111.5 160.7 111.65 160.35 111.95 159.7 114 159.75 116.05 159.75 118.85 161.3 118.95 161.35 119.1 161.45 121.8 162.7 124.1 161.8 129.85 161.2 132.05 155.95 132.551171875 155.267578125 132.95 154.55 134.36796875 151.886328125 134.25 148.7 134.15 145.85 134.4 141.25 134.7 135.3 134.75 133.8 134.25 128.7 134.8 126.15 135.7 121.65 141.1 119.8 145.85 118.1 149.7 113.95 151.1 112.3 152.05 110.85 152.15 111.65 153 114.15 154.35 117.95 156.1 121.15 161.45 130.95 168.4 131.2 168.8 131.35 169.2 131.55 180.9 158.2 192.25 185.2 205.8578125 219.1015625 215.1 254.6
L 224.25 254.6
Q 217.2158203125 239.4666015625 211.15 223.8 203.85 205.25 197.85 186.3 189.4 163.05 177.4 141.55 174.2 135.8 170.35 130.6 170.6 130.25 170.6 129.65 170.6 129.6 168.75 128.5 164.4 122.85 159.25 117.8 158.85 117.1 158.55 116.4 156.1369140625 111.0470703125 155.8 104 155.95 103 156 101.35 156.1 99.25 156.15 98.65
L 156.6 94.8
Q 156.75 93.15 156.75 93.1
L 156.75 84.65
Q 156.75 82.4470703125 156.6 81.3 156.6572265625 81.0283203125 156.7 80.75 156.9 79.3 157.05 78.1 158.55 79.65 160.5 79.65 161.55 79.65 161.65 79.25
L 161.55 78.8
Q 161.5 78.5 161.25 78.1 160.85 77.35 160.05 76.25 159.6 75.7 159.05 75 157.8 73.4 157.2 72.45 157 68.9 155.95 67.15 155.75 66.85 155.55 66.55 155.2 65.35 155.05 64.6 154.85 63.85 154.8 63.45 154.7 62.6 154.35 61.25 154.15 60.6 153.9 59.75 153.25 57.95 152.3 55.55 151 52.55 150.5 50.55 151.9 50.5 151.65 49.9
L 151.25 49.9
Q 150.85 49.55 150.1 49.05 150.05 48.55 150 48.2
L 149.05 48.2
Q 149.05 48.3 149.05 48.45 146.4 47 140.85 45.05 139.3 44.4 136.15 42.05
L 132.4 39.25
Q 129.65 37.5 126.6 33.55 122.05 27.7 121.1 26.7
L 120.7 26.7
Q 121.55 25.5 122.5 24.55
L 122.45 24.55
Q 123.1 23.9 123.7 23.25 124.05 22.9 124.3 22.5 125.25 21.3 126 19.9 126.55 18.75 126.95 17.45 128.35 18.45 131.5 19.95 131.85 20.15 132.3 20.35 138.4 23.25 138.7 23.4 140.25 24.45 146.25 26.35 147.9 26.9 149.2 27.35 152.5 28.5 153.7 29.4 154.85 30.3 155.85 31.5 155.5 31.75 154.8 32.2 154.2 32.6 153.25 33.2 152.25 33.85 150.9 34.65 146.5 37.5 146.2 38.5
L 146.7 38.5
Q 148.8 37.35 152 35.05 152.65 34.6 153.2 34.15 154.2 33.35 154.85 32.75 155.6 32.15 156 31.65 156.85 32.75 157.65 34.25 158.55 35.9 159.3 37.95 159.45 38.4 159.65 38.75 160 39.75 160.45 40.65 162.3 44.35 165.2 46.3 164.85 45.8 164.25 44.45 163.25 42.25 161.6 38.05 161.3 37.35 161.05 36.65 160.5 35.3 160 34.1
L 163.8 34.1
Q 164.1 34 164.5 33.95 166.1 33.45 167.45 32.6 168.7 31.65 169.6 30.3 171.15 28 171.15 25.6 171.15 24.65 171 24.5 170.7 24.45 170.5 24.2 169.25 24.3 168.65 25 168.05 25.85 167.65 26.25 166.15 26.45 164.55 26.45 162.5 26.45 160 24.5 159.8 24.3 159.5 24.05 159.55 23.9 159.65 23.7 159.1 22.85 156.75 19.85 154.4 16.8 153.9 16.05 151 15.05 149.3 14.85 152.2 13.8 153 12.35 153.4 11.65 153.4 8.2 153.4 7.45 153.35 6.85 153.4 6.75 153.4 6.7
L 153.35 6.35
Q 153.3 6.05 153.25 5.75 153.2 5.4 153.15 5.15 153.1 5 153.05 4.9
L 152.45 4.9
Q 152.45 5 152.45 5.1 152.45 5.15 152.45 5.25 152.45 5.5 152.45 5.8 149.7 8.75 147.8 10.65
L 145.9 10.9
Q 145.6 10.9 145.35 10.85 145.4 9.55 145.4 7.7 145.4 3.78671875 144.35 -0.5
L 142.8 -0.5
Q 143.9537109375 4.12890625 144.05 10.15 143.15 9.65 143.05 9.6
L 143.05 10 144.05 11.55
Q 144 12 144 12.55 144.45 12.15 144.75 12 146.15 12.15 147.8 12.15 147.85 12.1 150.65 9.95 151.7 9.15 152.35 8.4 152.25 9.7 152.05 10.25 151 13.65 146.85 15.6 147.4 15.45 147.95 15.3
L 148.1 15.7
Q 153.05 17.15 155.25 20.45 156.1 21.7 156.7 22.6 156.55 22.75 156.55 23.65 156.55 24.65 159.55 26.6 163.35 28.95 167.85 28.6
L 167.85 28.8
Q 167.35 31.05 163.65 31.65 161.6 31.95 160.2 32.3 160.05 32.3 159.9 32.35 159.65 32.4 159.4 32.5 159.25 32.5 159.15 32.55 157.35 29.3 155.15 27.5 153.35 26.75 146.65 24.05 143.4 22.8 139.2 21.15 136.75 20.15 134.7 19.35 133.6 18.85 132.6 18.45
L 132.5 18.4
Q 129.3 17 127.35 15.95 127.7 14.15 127.7 12.15 127.7 6.9 127.05 4.5 126.3056640625 1.8484375 124.55 -0.5
M 148.95 50.5
Q 148.95 50.55 148.95 50.6 148.85 50.55 148.75 50.5 148.85 50.5 148.95 50.5
M 58.95 45.7
Q 58.5 45.45 58.1 45.3 59.2 45.35 60.35 45.35 60.45 45.35 60.55 45.35 62.65 45.35 64.65 45 66.4 45.75 67.3 48.05 68 49.8 68.8 55.35 69.55 60.65 70.8 63.25 72.6 67.4 76.45 68.9
L 77.45 69
Q 73.35 72.15 72.6 72.7
L 69.3 72.7
Q 66.5 70.45 66 65.5 65.3 58.2 65.25 58.1 65.85 55.3 63.05 50.3 61.15 46.95 58.95 45.7
M 183.25 -0.5
L 179.1 -0.5
Q 179.283984375 -0.1095703125 179.45 0.25 181.15 3.7 181.15 4.55 181.15 4.95 181.25 5.5 181.4 6.8 182.15 8.8 182.7 10.35 183.55 12.25 183.75 12.75 184.25 13.6
L 195.9 34.65
Q 194.85 45.55 195.55 56.55 195.7 58.85 195.85 61.2 195.9 61.95 195.95 62.75 197.4 83.05 199.6 103.15 199.65 103.4 199.65 103.7 199.75 104.55 199.9 105.35 200.55 109.85 201.95 114.2
L 201.65 100.25
Q 202.15 101.45 202.7 102.75 202.95 103.35 203.25 104.05 211.75 123.7 222.9 141.95 234.1 160.2 245.9 178.2 257.65 195.95 267.9 214.8 278.5263671875 234.476953125 288.1 254.6
L 292.3 254.6
Q 285.1783203125 236.142578125 275 219 263.9 200.2 252.85 181.3 242.25 163.15 230.7 145.8 219.612890625 129.2412109375 210.8 111.3
L 210.8 111.3 209.6 109.5 209.2 108.75
Q 208.85 108.2 208.95 107.75
L 209.1 107.7
Q 205.72265625 100.728125 203.15 93.35
L 202.6 93.25
Q 199.05 75.1 199.5 56.55 199.35 50.75 199.35 50.3 199.6 47.95 199.65 47.15 199.7 46.55 199.55 45.9 201.8 47.75 204.5 50.75 204.7857421875 51.0609375 205.1 51.45 207.45 53.75 211.65 59.6 216.05 65.7 218.75 68.55 228.35 78.65 242.55 78.65 248.95 78.65 256.7 75.55
L 257.85 74.9
Q 254.7 75.95 244.3 74.55 233.65 73.1 228.2 70.65 221.25 67.5 214.95 55.1 214.8 54.8 210.5 45.7 208.15 40.65 206.55 38.7 204.9755859375 37.1228515625 203.05 35.85 200.35 33.35 197.55 32.65
L 197.35 30.9 196.8 31.9 196.15 30.4 195.75 29.2
Q 196.1 29.35 196.55 29.55 200.35 31.15 203 34.85 204.40390625 36.875 206.75 37.8 207.6 38.05 209.2 38.35 210.8 38.6 211.55 38.6 217.05 38.6 221.75 33.55 226.1 28.9 226.1 24.7 226.1 24.1 225.8 22.85 225.45 21.45 225.45 21.3
L 225.1 21.25
Q 224.2 21.75 223.55 23.4 223.2 24.4 222.45 26.65 220.65 30.85 215.7 30.85 215.1 30.85 212.75 30.4 210.35 29.95 209.55 29.65 207.2970703125 28.6322265625 205.3 26.75 203.5 24.4 202.6 23.25 201.65 21.7 200.45 20.25 199.4 18.9 198.15 17.9 197.75 17.45 197.5 17.25 194.6 15 188.5 13.8 188.4 13.8 188.25 13.8 188.2 13.7 188.15 13.55 187.2 11.2 186.2 8.1 185.9 7.3 185.65 6.45 184.9 4.3 184.15 1.8 183.8140625 0.65390625 183.25 -0.5
M 216.2 34.9
L 215.2 35.35
Q 213.1 35.9 211 35.9 210.4 36.2 207.65 34.25 205.714453125 32.9345703125 203.7 31.7 202.35 30.4 202.35 30.35 201.35 29.1 198.95 28.25 198.1 27.95 197.4 27.85 197.05 27.8 196.75 27.8 195.8 27.25 194.7 27
L 189.15 16.65
Q 189.25 16.7 189.4 16.7 190.2 16.85 190.85 16.9
L 192.4 17.1
Q 193.75 17.6 194.1 17.95 198.5 22.4 199.15 23.5 201.25 27.15 203.1 28.95 203.4 29.2 203.7 29.45 204.35 30.5 205.3 31.25 206.59296875 32.341015625 208.05 33.1 209.4 33.85 211.5 34.45 213.5 34.95 214.5 34.95
L 216.2 34.9
M 202.9 39.9
Q 203.95 41.05 204.3 41.45 204.7484375 41.998046875 205.75 43.75
L 205.75 43.8
Q 202.45 41.05 198 40.1
L 197.7 34.1
Q 201.2 38 202.9 39.9
M 205.35 47.45
Q 205.6142578125 47.8328125 206.4 48.9
L 205.35 47.55
Q 203.2271484375 45.3861328125 201.45 44.3 199.6 43.2 198.1 43.4 198.05 42.15 198 40.85 201.05 42.4 203.25 44.8 204.3484375 46.041796875 205.35 47.35 205.1197265625 47.104296875 205.35 47.45
M 195.35 28
Q 195.3 28.05 195.25 28.05
L 195.15 27.9
Q 195.25 27.95 195.35 28
M 46.7 240.7
Q 46.6 241.75 46.55 243.5 46.4 244.45 44.55 249.05 43.6359375 251.1689453125 41.2 254.6
L 43.45 254.6
Q 44.756640625 252.6673828125 45.75 250.5 48.15 245.05 48.15 239.1 48.15 238.5 48.05 238.45 47.9 238.5 47.75 238.35 46.85 238.8 46.7 240.7
M 45.1 221.4
L 44.5 221.4
Q 45.05 228.2 40.95 238.35 38.8 243.85 33.75 253.95 33.15 253.05 32.6 252.4 35 246.5 35.6 239.05 35.85 235.75 35.85 225.55 35.85 217.6 35.7 215.05 35.3 209.05 33.8 204.45 33.1 204.65 32.85 205.1 32.55 205.55 32.55 206.75 32.55 207.55 33.15 211.8 33.8 216.1 33.8 216.85 33.8 222.05 31.7 248.5 31.7 248.6 31.7 248.75 31.75 249.35 31.9 250.55 31.95 251.05 32 251.55 30.3 249.15 30.1 248.5 30.15 248.45 30.2 248.45 30.45 248.3 30.65 248.15 30.7 248.75 30.7 247.1 30.7 246.75 29.8 244.8
L 29.8 228.45
Q 29.45 226.9 27.3 213.9 25.8 205.15 24.2 200.2
L 23.35 200.2 23.1 201.35
Q 25.65 212.1 27.4 225.6 27.9 229.95 28.25 237.95 28.25 238.5 28.3 239.1 26.95 235.9 22.75 233.2 14.4 228.8 10.15 225.95 8 223.75 4.15 215.95 2.3 212.2 0 209.85
L 0 215.1
Q 1 216.95 2.35 219.4 5.8 225.7 9.8 229.4 10.4 229.9 16.5 233 22.2 235.85 23.6 237.75 24.8 239.55 26.35 243.55 27.25 245.9 28.15 247.4
L 28.15 247.45
Q 26.5 246.25 25.1 245.65 22.1 243.25 18.65 242 18.15 241.8 17.7 241.65 15.9 240.5 15.1 240 10.7 238.4 8.55 237.6 4.7 236.3 0.7 237 0.35 237.05 0 237.15
L 0 240.3
Q 2.2 239.9 5.85 239.9 6.5 239.9 9.7 241.1 13.3 242.55 18.6 245.35 20.05 246.2 21.4 246.9 25.45 249.15 27.7 250.25 28.0384765625 251.4912109375 30.4 254.6
L 34.25 254.6
Q 34.146875 254.4763671875 34.05 254.35 33.95 254.2 33.85 254.1 39.85 244.95 42 240.15 45.4 232.65 45.4 225.05 45.4 222.35 45.1 221.4
M 88.55 246.2
Q 88.25 243.6 88.2 242.7 87.958984375 245.3509765625 79.1 254.6
L 88.3 254.6
Q 88.9 252.2302734375 88.9 250.4 88.9 249.55 88.55 246.2
M 243.7 195.45
L 243.25 195.45 243.25 209.9
Q 243.95 211.4 243.95 214.3
L 244.6 214.15 244.6 210.8
Q 244.2 207.5 244 202.9 243.85 197.8 243.7 195.45
M 216.25 150.1
L 215.85 150.1
Q 219.6 157.8 227.45 174.5 234.25 188.55 239.9 197.9
L 239.9 209.1
Q 240.6 211 241.2 211 240.9 195.3 240.55 187.6
L 239.9 187.6 239.9 197.55
Q 228.15 171.55 216.25 150.1
M 183.6 89.45
Q 183.25 88.2 183.1 87.7 183.05 87.6 183.05 87.5
L 182.65 87.65
Q 182.65 87.7 182.7 87.8 182.8 88.3 183.1 89.6 183.7 91.95 184.95 97 186.3 102.2 187 105.7 187.05 106 187.1 106.3
L 187.75 106.15
Q 187.7 105.6 187.65 105 187.2 101.6 185.75 96.8 184.3 91.75 183.6 89.45
M 185.6 91.95
L 185.15 91.95
Q 185.2 92.2 187.4 100.8 187.9 102.7 188.35 104.3 188.55 105.25 188.85 106.1 189.45 108.1 190 109.45
L 190.3 109.2
Q 189.85 107.35 189.45 105.7 189.2 104.7 188.95 103.75 187.05 96.1 185.6 91.95
M 169.55 50.25
Q 169.55 50.4 169.15 50.55 173.05 54.3 174.6 59.85 175.35 62.45 176.5 67.2 176.6 67.7 176.75 68.3 176.85 68.75 176.95 69.25
L 177.55 69.1
Q 177.45 68.7 177.4 68.25 177.3 67.7 177.25 67.2 176.35 62.3 175.5 59.4 173.7 53.4 169.55 50.25
M 185.65 50.85
Q 185.45 51.05 185.45 51.45 185.45 52.8 185.75 57.3 186.1 62.2 186.45 65.1
L 187.25 64.95
Q 187.5 63.05 187.5 59.15 187.2 54.95 187.1 52.25 187.05 51.05 187.05 50.1 186.9 50.2 186.75 50.25 185.8 50.7 185.65 50.85
M 165.05 9.9
Q 165.3 9.25 165.2 8.7 164.65 9.05 162.45 11.5 160.1 14.05 159.4 14.65 160.35 14.6 161.7 13.65 160.05 15.65 159.4 16.7
L 159.9 17
Q 161.15 15.7 164.2 12.9 166.65 10.35 166.6 8.5 166.1 8.75 165.05 9.9
M 175.8 -0.5
L 173.6 -0.5
Q 174.8162109375 2.4078125 176 6.3 177.9 12.55 179.65 17.05
L 179.65 18.5 179.65 19.45
Q 181.65 25.8 182.35 27.4 184.2 31.9 187.05 34.6 184 26.95 183.5 25.65 183.15 24.75 182.85 23.85 183.7 25.3 184.55 26.35 182.75 23.35 181.65 18.95 181.45 18.25 181.3 17.55 179.9 10.8 179.25 9.1 177.3 3.35 176.1 0.25 175.951171875 -0.13046875 175.8 -0.5
M 152.8 -0.5
Q 153.0427734375 -0.348828125 153.3 -0.2 154.55 0.55 156.4 1.55 157.1 1.95 157.9 2.4 158.55 2.75 159.3 3.15 159.95 3.5 160.55 3.9 160.5 3.9 160.5 3.95
L 160.9 4.4
Q 161.05 4.3 161.25 4.25 162.35 4.85 163.65 5.55 164.85 6.3 165.9 7.3 166.55 7.9 167.2 8.6 168.65 10.4 169.65 12.8 170.7 15.35 171.45 17.05 171.45 17.2 171.45 17.4 171.45 18.8 175.05 25.75 175.25 26.2 175.45 26.7 176.15 28 177 29.5 178.75 32.75 180.2 35.25 180.55 35.9 180.95 36.55 183.75 41.25 185.45 42.9 185.95 42.7 185.95 42.5 184 39.35 181.65 35.05 181.35 34.55 181.05 34 181 33.9 180.95 33.8 180.3 32.5 179.6 31.15 179.1 30.25 178.65 29.3 178.5 29 178.4 28.8 177.9 27.85 177.45 27.05 177.4484375 26.9984375 177.4 26.95 176.6 25.25 175.9 23.85 175.4 22.9 175 22 174.45 21.05 174.05 20.15 174.1 20.1 174.15 20 173.95 17.65 173.55 15.7 173.35 14.95 173.25 14.2 172.8 12.6 172.25 11.25 171.95 10.5 171.6 9.9 169.55 5.8 165.7 3.3 164.9 2.8 163.75 2.2 164.1 1.75 164.45 1.25 165.11484375 0.314453125 165.45 -0.5
L 162.85 -0.5
Q 162.399609375 0.40078125 162 1.2 161.45 0.95 160.9 0.65 160.35 0.45 159.85 0.15 159.75 0.1 159.65 0.05 159.0478515625 -0.23984375 158.5 -0.5
L 152.8 -0.5
M 119.6 -0.5
L 118.05 -0.5
Q 118.4087890625 0.325 118.7 1.15 118.75 1.4 118.85 1.7 119.4 3.65 119.4 6 119.4 7.35 119.25 8.55 118.8 11.5 117.5 13.6 115.45 16.7 109.25 21.45 116.35 17.65 118.7 13.85 120.05 11.85 120.4 8.75 120.55 7.45 120.55 5.95 120.85 3.1 120.7 2.15
L 120.7 2.1
Q 120.55 1.25 119.65 -0.4 119.620703125 -0.449609375 119.6 -0.5
M 114 -0.5
L 112.9 -0.5
Q 113.5560546875 0.440234375 114 1.55 114.45 2.75 114.65 4.2 114.7 5 114.7 5.9
L 115.1 5.8 115.2 2.4
Q 115.2 1.6 114.8 0.7 114.55 0.2 114.1 -0.4 114.052734375 -0.4501953125 114 -0.5
M 60.9 -0.5
L 59.35 -0.5
Q 58.2146484375 0.416015625 56.65 1.6 56.45 1.75 56.3 1.9 52.35 4.8 52 5.1 54.45 3.9 56.9 2.4 58.90703125 1.0619140625 60.9 -0.5
M 64.55 -0.5
L 63.45 -0.5
Q 62.734765625 -0.103125 62 0.25
L 62.1 0.55
Q 63.375 0.1091796875 64.55 -0.5
M 58.05 -0.5
L 56.55 -0.5
Q 55.76484375 -0.141015625 54.9 0.2 52.9 0.9 50.4 1.55 46.65 2.5 40.8 3.5 40.9 3.45 41.05 3.4 46.9 1.6 49.45 -0.05 47.9 0.1 46.45 0.4 42.1 1.05 38.55 2.55 35.85 3.65 32.05 4 31.3 4.05 30.6 4.1 29.5 4.15 28.4 4.15 25.45 4.15 21.9 3.5 19.3 2.95 16.35 2.15 9.5 0.15 3.85 0.15 2.25 0.15 0 1.3
L 0 2.15 0.05 2.1
Q 2.2 1.3 3.85 1.3 6.65 1.3 15.4 3.5 18.3 4.25 20.75 4.7 25.6 5.7 28.4 5.7 29.7 5.7 31.2 5.55 31.9 5.5 32.65 5.4 34.65 5.1 36.9 4.55 39.55 4.3 41.9 3.95 42.05 3.95 42.2 3.9 47.75 3.1 51.75 2 53.8 1.45 55.35 0.8 56.9322265625 0.1783203125 58.05 -0.5
M 131.35 102.1
Q 130.2 102.8 128.55 104.55 128.15 104.9 127.9 105.35 125.4681640625 104.948046875 123.3 104.3 120.1216796875 103.4255859375 117.55 102.05 115.8140625 101.1650390625 115.1 100.8 114.795703125 100.6818359375 114.7 100.65 113.70234375 100.3173828125 112.75 100.9 112.7 100.917578125 112.65 100.95 112.6994140625 101.0052734375 112.75 101.05 112.997265625 101.3298828125 113.25 101.6 114.46484375 102.6791015625 116.25 103.65 117.0392578125 104.1 117.9 104.5 119.2 105.05 120.6 105.55 120.8 105.65 121.05 105.8 118.85 105 117.95 105
L 117.85 105.45
Q 117.1484375 104.6509765625 116.4 104 115.212109375 103.04921875 113.9 102.5
L 113.8 102.95
Q 116.6 105.45 118.95 110.4 119.48125 111.4919921875 119.9 112.4 120.2041015625 113.0763671875 120.45 113.65 122.3 117.55 122.5 117.9
L 123.15 117.65
Q 122.95 115.75 122.3 113.8 122.2 113.3 122.05 112.85 121.961328125 112.6177734375 121.85 112.35 122.3533203125 112.301953125 122.8 111.9 124.024609375 111.18203125 124.25 110.25 124.35 110.3 124.45 110.4 125.9 111.2 127.35 111.6 130.75 111.4 131.15 110.55
L 130.9 110.1
Q 126.4 110 125.3 108.85 125.25 108.8 125.2 108.75 125.15 108.7 125.1 108.65 124.9927734375 108.5515625 124.9 108.45 124.9513671875 108.3986328125 125 108.35 125.104296875 108.4255859375 125.2 108.5
L 125.25 108.5
Q 125.5 108.65 125.65 108.8
L 129.85 109
Q 131.8 109 132.15 107.9 131.75 107.6 130.8 107.3
L 129.85 107.1 127.7 107 127.7 106.95 127.75 106.95
Q 129.15 107.05 130.5 107.1 131.65 106.55 131.65 105.85 130.2 105.7 128.9 105.5 128.95 105.4 129.05 105.3 131 102.85 131.35 102.1
M 120.75 107.55
Q 120.8326171875 107.5912109375 121.3 107.95
L 120.75 108.6
Q 120.50078125 108.915625 120.35 109.2 119.2369140625 107.0779296875 117.9 105.55 118.85 105.9 121.5 106.8 121.35 106.85 121.2 106.95 120.75 107.3 120.75 107.55
M 126.25 106.9
L 126.2 106.85
Q 126.45 106.85 126.7 106.9
L 126.7 106.95 126.25 106.9
M 112.15 106.65
L 111.7 106.65
Q 111.85 107.2 112.6 108.4 113.3 109.6 114.65 111.5 117.35 115.4 117.8 116.5
L 118.1 116.15
Q 118.4 114.25 115.8 110.95 112.75 107.6 112.15 106.65
M 34.25 82.15
L 32.2 82
Q 31.1 83.9 31.1 85.85 31.1 87.65 31.25 88.55
L 34.25 88.55
Q 35.55 87.15 36.05 86.4 36.5 85.65 36.5 84.95 36.5 83.9 36.35 83.55 35.9 82.6 34.25 82.15
M 31.95 83.5
Q 33.6 83.65 34.7 84.2 35.5 84.7 35.5 85.1 35.5 86.05 35.05 86.7 34.85 87.05 34.25 87.5
L 31.95 87.65 31.95 83.5
M 105.65 148.05
Q 105.65 148.075390625 105.7 148.45 105.7771484375 148.8375 105.9 149.55 106.55 150.7 108.4 150.95 108.85 151 109.3 151 109.3 151.4416015625 114.9 151.85 115.6587890625 151.9416015625 116.5 152 117.48828125 152.3447265625 118.15 152.8 118.9716796875 153.3705078125 119.35 154.1 119.45 154.3 119.55 154.5 119.8 155.1 120 155.9 120.55 155.75 120.85 155.45 120.9 155.35 120.95 155.25 121.0591796875 154.1853515625 120.35 152.95 119.8123046875 151.9623046875 118.7 150.85 116.6482421875 150.21484375 109.2 149.45 109.027734375 149.4671875 108.85 149.45 108.767578125 149.3802734375 108.7 149.3 107.5341796875 148.3373046875 107.3 148.15 106.95 147.85 106.95 147.7 106.95 146.85 107.3 145.8 107.7 144.7 107.7 144.3 105.9 145.65 105.7 147.55 105.65 147.8 105.65 148.05
M 41.15 15.4
Q 41.75 15.45 42.35 15.55 43.2 15.7 44.1 15.8 43.1 15.6 42.15 15.35 41.75 15.25 41.35 15.15 39.05 14.5 36.8 14.15
L 36.75 14.15
Q 34 13.8 31.25 13.75 30.05 13.7 28.9 13.8 28.2 13.8 27.45 13.8 24.15 13.75 21.05 14.3 19.9 14.5 18.7 14.85 18.35 14.9 18.05 15.05 17.85 15.15 17.65 15.3 20.25 16.45 23.35 15.75 23.7 15.7 24.05 15.6 26.05 15.05 28.2 14.85 29.2 14.8 30.1 14.8 33.25 14.75 36.45 14.95 36.9 15 37.35 15.05 39.25 15.15 41.15 15.4
M 80.85 174.9
L 80.45 174.9
Q 80.45 175 81 176.9 81.95 178.8 83.9 179.1
L 84.05 178.8
Q 83.35 177.45 82.3 176.3 81.2 175.3 80.85 174.9
M 0 138.85
Q 2.7 139.1 4.6 139.7 12 149.15 12.7 150.7 13.45 152.1 13.7 155.25 13 156.85 12.9 158.2
L 12.7 158.05
Q 13.2 155.15 12.05 152.4 10.9 149.75 8.05 146.55 6.65 145.05 4.25 144 1.45 142.95 0.2 142.4 0.1 142.35 0 142.3
L 0 145
Q 1.2 145.6 2.9 146.35 10.8 149.8 10.8 156.65 10.8 159.45 10.55 160.3 10.1 162 8.8 163.1 7.75 163.95 7.75 164.8 7.75 166.4 8.05 165.55
L 9.5 165.55
Q 11.75 163.75 12.95 160.15 13.4 158.45 13.85 157.25 13.85 158.15 13.85 159.2 13.85 160.1 13.25 160.8
L 12.55 161.55
Q 12.7 162 13.2 162 13.75 161.2 14.45 157.75 15.1 154.65 15.1 153.9 15.1 150.2 10.95 144.75 6.25 138.55 0.25 136.95 0.1 136.85 0 136.75
L 0 138.85
M 5.7 133
Q 2.45 132 0 129
L 0 132.1
Q 1.1 133.3 2.35 134.25 17.2 138.75 17.8 149.1
L 18.25 149.1
Q 18.5 147.5 18.6 146.4 18.6 146.05 18.6 145.75 18.6 144.9 17.4 143.2 16.1 141.55 13.75 139.05 8.65 133.8 5.7 133
M 124.5 49.05
Q 124.45 49.1 124.4 49.15
L 124.8 49.5 124.85 49.5
Q 125.65 48.9 126.35 48.2 127.5 47.15 128.5 45.75 130.35 43.2 130.05 41.95 129.15 42 127.6 44.2 126.5 45.95 125.7 47.25 125.05 48.25 124.5 49.05
M 71.05 30.6
Q 71.65 29.95 72.45 28.85 73.45 27.25 74.8 24.8
L 74.5 23.55
Q 74.15 23.75 70.3 29.75 70.1 30.05 69.9 30.4 69.6 30.85 69.3 31.25 70 31.6 71.05 30.6
M 53.5 34.6
Q 54.6 34.6 55.8 34.6 56.7 34.05 57.7 33.5 57.8 33.4 57.9 33.35 59.7 32.35 61.65 31.25 62.85 30.55 63.95 29.55 64.65 28.95 65.35 28.3 65.7 27.85 66.15 27.35 65.5 27.35 64.75 27.8 64.05 28.1 63.3 28.7 63.25 28.75 63.2 28.8 62.35 29.35 61.6 30.15 60.95 30.75 59.85 31.3 58.85 31.9 58.55 31.9 56.8 32.15 57.05 32.5 57.6 32.75 57.4 32.85 56.9 33.05 47.95 33.15 44.75 33.15 40.6 33.15 40.5 33.15 40.4 33.15 39.25 33.1 38.85 32.75 38.4 32.3 37.85 32 37.3 31.65 36.25 31.45 35.85 31.35 35.35 31.25 34.05 31.05 32.3 30.95 31.7 30.9 31.15 30.85 31.05 30.85 30.95 30.85 30.25 30.85 29.5 30.85 28.05 30.8 26.4 30.8 24.1 30.8 21.55 31.7 19.4 32.4 17.05 33.75 16.15 34.25 15.25 34.8 13 36.25 11.45 37.5 10.7 38.05 10.2 38.55 9.4 39.25 8.85 39.9 9.7 39.6 10.45 39.25 11.2 38.9 11.9 38.55 14.4 37.1 16.15 34.85 18 33.65 22.15 33 22.35 32.95 22.6 32.9 25 32.6 28.15 32.4 29.2 32.35 30.3 32.3 30.5 32.3 30.7 32.3 31.35 32.25 32.05 32.25 32.25 32.2 32.45 32.25 33.75 32.2 35.2 32.2 36.2 32.2 36.75 33.05 36.8 33.2 36.9 33.4 37.3 34.3 38.85 34.2 39.25 34.2 39.7 34.1 39.75 34.15 40.5 34.25 42.25 34.35 47.85 34.5 50.65 34.55 53.5 34.6
M 71.85 10.4
Q 71.6 10.85 71.3 11.1 69.7 12.05 68.05 12.85 62.7 15.3 56.4 15.5 50.35 16.05 44.3 15.8 48.3 16.4 52.25 16.8 56.25 17.15 60.3 17.35 64.1 16.7 67.45 14.7 68.3 14.15 69.1 13.6 70.3 12.65 71.5 11.75 74.4 9.45 77.05 6.95 73.7 7.2 71.85 10.4
M 72.6 1.15
Q 71.85 2.2 71.05 3.1 67.8 6.6 63.4 8.4 60.3 9.85 57.05 9.8 56.55 10.1 56.05 10.1 53.3 10.25 50.55 10.2 48.7 10.1 46.85 10 44.9 9.8 42.95 9.5 42.3 9.45 41.6 9.4 38.35 9.25 35.15 9.85 34.3 10 33.4 10.25 33.1 10.3 32.85 10.4 32.15 10.6 31.5 10.85 31.1 11 30.65 11.15 31 11.1 31.35 11.1 32 11.05 32.65 11 34.65 10.85 36.65 10.8 42.8 10.55 48.95 10.9 52.65 11.1 56.4 11.5 60.05 11.55 63.45 10.15 68.95 8 71.75 2.9 72.2 2.1 72.6 1.15
M 139 25.45
Q 138.9 25.45 137.85 26.1 136.85 26.7 134.85 28 134.6 28.15 134.4 28.3 130.9 30.55 130.9 30.8 130.9 31.05 130.95 31.25 131 31.75 131.35 31.55 131.6 31.45 131.75 31.1 131.8 31.05 131.85 31.05 132.9 30.4 133.65 29.9 135.15 28.9 135.6 28.55 137.4 27.15 138.4 26.2 138.75 25.8 139 25.45
M 176.3 120.7
L 176.3 120.85
Q 178.55 122.05 180.95 124.05 181.4 124.45 181.9 124.9 183.55 126.4 186.8 129.35 191.8 133.6 198.3 135.45 199.95 135.95 201.8 136.25 201.4 135.9 200.65 135.5
L 200 135.15
Q 199.8 135.1 199.6 135.05 198.9 134.8 198.25 134.6 191.15 132 185.75 127.5 183.5 125.6 181.7 124.25 178.05 121.45 176.3 120.7
M 67.4 210.1
L 66.95 210.1
Q 68.15 221.3 64.6 235.4 62.65 242.95 59.35 251.3
L 59.8 251.3
Q 62.7 244 64.4 239.55 66 235.3 66.55 233.6 67.8 229.65 67.8 219.4 67.8 212.9 67.4 210.1
M 89.85 168.6
L 89.35 168.75
Q 90.2 169.8 91.2 171.65 91.75 172.8 92.3 174.2 93.55 177 95.05 177.7 94.55 177.1 93 173.1 91.75 170 90 168.7 89.95 168.65 89.85 168.6
M 90 159.95
Q 89.9 159.7 89.15 159.5
L 88.4 159.35
Q 88.25 159.5 87.2 161.3 87.15 161.35 87.15 161.4 86.05 163.15 85.8 163.6
L 86.2 164.55
Q 87.45 163.9 88.35 162.45 88.4 162.4 88.4 162.35 88.6 162.05 88.75 161.8 90 163.05 92.55 165.95 95.3 168.7 97.95 170 98.4 169.8 98.65 169.5 98.75 169.35 98.8 169.2 98.75 169.15 98.7 169.15 92.1 163.35 89.35 161.05 89.3 161.05 89.3 161 89.8 160.15 90 159.95
M 99.5 146.1
Q 98.5 146.5 97.7 146.9 93.8 148.65 93.8 148.95 93.8 149.55 93.95 149.75 94.05 149.85 94.3 149.7 94.55 149.55 94.8 149.2 101.75 146.75 105.45 145.1 106.6 144.6 107.4 144.2 115 140.35 114.05 136.65 113.85 136.8 113.25 137.5 112.6 138.3 111.4 139.75 108.95 142.6 106.3 143.35 106.05 143.45 105.6 143.6 103.85 144.25 99.5 146.1
M 80.85 171.1
L 80.45 171.25
Q 81.3 173.2 82.5 175.1 83.65 176.85 84.55 177.7 85.1 178.2 85.55 178.35 83.9 175.75 82.8 174.15 80.9 171.15 80.85 171.1
M 9.35 106.45
Q 10.2 102.6 11.05 99.95
L 10.8 99.25
Q 9.15 102.7 8.2 107.05 7.1 111.6 7.1 115.75 7.1 119 16.05 139.5 18 143.95 20.3 149.2 20.95 150.35 20.95 148.8 17.85 141.35 14.75 133.2 13.8 130.75 13 128.55 8.55 116.3 8.55 112.85 8.55 110.55 9.35 106.45 Z"/>

<path fill="#8E5336" stroke="none" d="
M 134.25 88.5
Q 133.2505859375 88.08359375 132.15 87.8 131.9255859375 87.7501953125 131.7 87.7 132.2 87.95 132.75 88.35 132.8814453125 88.4296875 133 88.5 137.248828125 91.2005859375 138.85 96.15 139.75 98.95 141.25 101.55 141.4 101.8 141.55 102.05 142.75 104.05 144.15 105 145.6 106.05 147.3 106
L 143.65 101.95 143.8 100.05
Q 143.15 98.85 142.75 97.55 140.4 90.95 134.25 88.5
M 58.1 45.3
Q 58.5 45.45 58.95 45.7 61.15 46.95 63.05 50.3 65.85 55.3 65.25 58.1 65.3 58.2 66 65.5 66.5 70.45 69.3 72.7
L 72.6 72.7
Q 73.35 72.15 77.45 69
L 76.45 68.9
Q 72.6 67.4 70.8 63.25 69.55 60.65 68.8 55.35 68 49.8 67.3 48.05 66.4 45.75 64.65 45 62.65 45.35 60.55 45.35 60.45 45.35 60.35 45.35 59.2 45.35 58.1 45.3
M 126.9 -0.5
L 124.55 -0.5
Q 126.3056640625 1.8484375 127.05 4.5 127.7 6.9 127.7 12.15 127.7 14.15 127.35 15.95 129.3 17 132.5 18.4 132.55 17.5 133.05 15.4 133.25 14.55 133.4 13.8 133.15 10.5 131.3 6.35 129.438671875 2.2990234375 126.9 -0.5
M 82.4 24.35
Q 82.6 23.85 82.8 23.35 82.95 23.05 83.15 22.7 82.1 23.5 80.65 24.4 78.9 25.5 76.65 26.75 75.6 27.25 74.5 27.8 73.4 28.35 72.45 28.85 71.65 29.95 71.05 30.6 70 31.6 69.3 31.25 69.6 30.85 69.9 30.4 70.1 30.05 70.3 29.75 69.7 30 69.15 30.25 67.7 30.85 66.35 31.3 61.85 32.85 58 33.45 57.85 33.45 57.7 33.5 56.7 34.05 55.8 34.6 54.6 34.6 53.5 34.6 50.65 34.55 47.85 34.5 42.25 34.35 40.5 34.25 39.75 34.15 39.7 34.1 39.25 34.2 38.85 34.2 37.3 34.3 36.9 33.4 36.8 33.2 36.75 33.05 36.2 32.2 35.2 32.2 33.75 32.2 32.45 32.25 32.25 32.2 32.05 32.25 31.35 32.25 30.7 32.3 30.5 32.3 30.3 32.3 29.2 32.35 28.15 32.4 25 32.6 22.6 32.9 22.35 32.95 22.15 33 18 33.65 16.15 34.85 14.4 37.1 11.9 38.55 11.2 38.9 10.45 39.25 9.7 39.6 8.85 39.9 9.4 39.25 10.2 38.55 10.7 38.05 11.45 37.5 13 36.25 15.25 34.8 16.15 34.25 17.05 33.75 15.15 34.2 12.6 34.85 11.55 35.15 10.4 35.5 9.1 35.85 7.8 36.25 6.6 36.55 5.3 36.95 5.25 37 5.25 37.05
L 4.85 37.05
Q 5.05 37 5.3 36.95 5.4 36.55 5.8 35.95 6.1 35.45 6.6 34.8 7.65 33.35 9.6 31.05 10 30.65 10.35 30.25 13.8 26.2 14.1 25.2
L 8.55 25.2
Q 7.8 25.65 6.6 26.2 6.3 26.3 6 26.4 5.55 26.65 5.15 26.9 4.8 27.3 4.55 27.8
L 4.15 27.8
Q 4.55 27.3 5.15 26.9 5.65 26.25 6.25 25.6 9.45 22.25 15.8 19.55 23.5 16.4 29.95 16.4 31.4 16.4 35.05 16.55 37.25 16.6 40.3 16.75 47.1 16.95 52.25 16.8 48.3 16.4 44.3 15.8 50.35 16.05 56.4 15.5 62.7 15.3 68.05 12.85 63.15 14.15 57.8 14.15 55.25 14.15 47.75 12.85 45.15 12.35 42.05 11.8 39.1 11.2 36.65 10.8 34.65 10.85 32.65 11 32 11.05 31.35 11.1 31 11.1 30.65 11.15 31.1 11 31.5 10.85 32.15 10.6 32.85 10.4 33.1 10.3 33.4 10.25 33.15 10.2 32.9 10.15 32.3 10.05 31.8 10 27.35 9.4 24.8 9.4 18.8 9.4 14.55 10.2 10.65 10.95 7.2 12.65 6.4 13 5.6 13.45 6.35 12.75 7.3 12.15 10 10.35 14.45 9 17.95 7.95 26.85 6.05 27.6 5.9 28.4 5.7 25.6 5.7 20.75 4.7 18.3 4.25 15.4 3.5 6.65 1.3 3.85 1.3 2.2 1.3 0.05 2.1
L 0 2.15 0 65.3
Q 12.15 64.95 17.65 59.5 19.75 57.4 22.85 52.65 24.8 49.7 26.25 47.55 26.85 46.55 27.45 45.8 27.85 45.15 28.25 44.6 27.15 45 26.15 45.45 25 46 24 46.55 23.75 46.65 23.55 46.8 21.25 48.2 19.35 50.1 17.85 51.7 17.65 51.7 18.4 48.65 22.6 45.75 23 45.45 23.4 45.2 23.8 44.9 24.25 44.65 27.3 42.85 31.25 41.8 33.5 41.1 36.15 40.65 37.1 40.5 38.15 40.4 42.15 39.9 46.85 39.9 48.8 39.9 51.4 41.3 51.6 41.4 51.85 41.5 52.6 41.85 53.7 42.15 54.36953125 42.2916015625 55.15 42.4 57.4587890625 42.7 60.8 42.7 61.85 42.7 62.85 42.65 63.25 42.6 63.65 42.55 67.1 42.2 69.95 40.85 69.4 40.8 68.8 40.7 66.3 40.35 66.3 40.05 68.75 39.95 70.9 39.7
L 70.9 39.65
Q 74 38.55 77.5 34.35 78.15 33.4 78.65 32.45 79.5 30.9 81.75 25.9 82.05 25.15 82.4 24.35
M 42.35 15.55
Q 41.75 15.45 41.15 15.4 39.25 15.15 37.35 15.05 36.9 15 36.45 14.95 33.25 14.75 30.1 14.8 29.2 14.8 28.2 14.85 26.05 15.05 24.05 15.6 23.7 15.7 23.35 15.75 20.25 16.45 17.65 15.3 17.85 15.15 18.05 15.05 18.35 14.9 18.7 14.85 19.9 14.5 21.05 14.3 24.15 13.75 27.45 13.8 28.2 13.8 28.9 13.8 30.05 13.7 31.25 13.75 34 13.8 36.75 14.15
L 36.8 14.15
Q 39.05 14.5 41.35 15.15 41.75 15.25 42.15 15.35 43.1 15.6 44.1 15.8 43.2 15.7 42.35 15.55
M 24.6 54.1
Q 24.75 53.15 25.1 52.1 21.5 58.55 17.35 61.9 11.7 66.6 3.4 66.6 1.55 66.6 0 66.45
L 0 75.65
Q 1.85 74.7 5.45 73.15 12.4 70.2 13.55 69.55 17.25 67.45 22.3 59.1 22.9 58.1 23.45 57.3 23.5 57.15 23.6 56.95 24.55 54.6 24.6 54.1
M 129.8 40
Q 129.75 39.9 129.65 39.8 127.9 42.85 124.75 46 123.95 46.8 123 47.65 122.3 48.25 121.6 48.85
L 121.25 48.5
Q 121.5 48.25 122.4 47.2 123.05 46.45 124 45.4 124.95 44.25 126.2 42.8 128.25 40.35 129.3 39.5 122.65 33.05 120.15 28.65
L 120.4 27.1
Q 119.15 28.95 118.3 31.2 117.3 33.6 116.2 38.45
L 115.55 38.6
Q 115.55 38.5 115.35 38 115.15 37.4 115.15 36.5 115.15 35.55 116.4 32.5 117.5 29.6 117.95 29 118.35 28.55 118.9 27.3 117.95 27.95 116.85 28.65 111.05 32.15 109.65 33.1 109.35 33.25 109.25 33.35 108.45 34.05 107.75 34.7 106.75 35.8 106.2 36.95 105.7 37.95 105.6 39 105.55 39.2 105.55 39.4 105.1 39.5 104.75 39.4 104.5 39.3 104.3 39.1 104.25 38.25 104.4 37.4 104.6 36.25 105.15 35.1 104.3 35.5 103.45 35.95 93.05 41.15 91.55 42.55 92.1 42.85 93.25 43.1 94.3 43.3 95.05 43.3 95.7 43.3 97.1 43.15 97.85 43.1 98.9 42.95
L 98.95 42.95 98.95 43.3
Q 98.65 43.5 97.35 43.85 95.45 44.3 91.6 45.15 84.55 46.6 82.35 46.6 79.4 46.6 78.65 46.25 82.8 45.6 88 36.35 93.2 27.05 91.9 21.9
L 91.9 22.3
Q 91.5 23.25 91.05 24.15 90.2 30 84.2 35.25 78.65 40.15 74.1 40.85 70.95 43.15 67.5 44.25 69.65 46.25 70.45 49.55 71.05 52.2 71.95 57.35 73.35 58 76.75 61.2 80.45 63.7 85.15 61.7
L 85.9 61.85
Q 86.65 62 86.8 62.2 88.2 61.15 89.95 59.85 95.55 55.55 96.8 54.85 95.3 56.9 91.15 60.15 92.3 59.45 93.65 58.75 92.6 59.7 90.85 61.15 92.7 60.5 96.8 60.15
L 97.35 59.65
Q 109.3 59.15 112.95 55.95 113.6 55.45 114.95 53.5 116 52.15 117.3 51.7 115.65 55 113.25 56.85 108.95 60.25 97.35 61.25 91.45 61.5 90.15 62.6 89.7 63.15 89.45 63.4 89.05 63.9 88.1 64.1 89.15 63.55 89.55 62.3 88.5 63.05 87.4 63.95 89.05 64.35 89.75 64.35 109.4 64.35 122.5 57.05 125.05 55.6 128.05 53.2 128.85 52.55 129.75 51.8 131.6 50.15 133.65 48.15 133.65 47.95 133.7 47.9 133.7 47.55 133.75 47.2
L 133.8 47.2
Q 133.95 46.5 134.05 46
L 134.55 46
Q 134.8 47.6 134.8 48.85 134.8 50.1 134.55 51.4 134.5 52.25 134.45 53.1 134.35 53.8 134.25 54.5
L 134.75 53.3
Q 134.8 53.2 134.9 53.1 135.45 52.1 135.9 52.15 135.85 52.6 135.75 53.1 135.55 54.15 135.35 55.2 134 60.15 131.2 64.2 131.5 63.85 131.75 63.55 134.8 60.3 136.15 56.8 136.5 55.95 136.75 55.1 136.9 54.45 137.05 53.85 137.15 53.35 137.25 52.85 137.7 49.7 137.25 46 133.6 43.6 129.8 40
M 124.4 49.15
Q 124.45 49.1 124.5 49.05 125.05 48.25 125.7 47.25 126.5 45.95 127.6 44.2 129.15 42 130.05 41.95 130.35 43.2 128.5 45.75 127.5 47.15 126.35 48.2 125.65 48.9 124.85 49.5
L 124.8 49.5 124.4 49.15
M 146.5 22.3
Q 146.2 22.3 145.95 22.25 143.25 21.9 141.5 19.05 141.45 18.95 141.3 18.65 140.8 17.6 139.15 13.8 138.2 11.75 134.65 7.8 133.65 6.7 133.15 5.9 133.2 6.4 133.3 7 133.6 9.2 133.6 11.05 133.6 12.3 133.4 13.8 133.5 16.4 132.6 18.45 133.6 18.85 134.7 19.35 136.75 20.15 139.2 21.15 143.4 22.8 146.65 24.05 153.35 26.75 155.15 27.5 157.35 29.3 159.15 32.55 159.25 32.5 159.4 32.5 158.1 29.3 155.3 26.7 150.8 22.5 146.5 22.3
M 4.6 139.7
Q 2.7 139.1 0 138.85
L 0 142.3
Q 0.1 142.35 0.2 142.4 1.45 142.95 4.25 144 6.65 145.05 8.05 146.55 10.9 149.75 12.05 152.4 13.2 155.15 12.7 158.05
L 12.9 158.2
Q 13 156.85 13.7 155.25 13.45 152.1 12.7 150.7 12 149.15 4.6 139.7 Z"/>

<path fill="#FDDCBF" stroke="none" d="
M 118.85 91.05
Q 119.45 93.35 120.85 95.4 124.35 100.7 129.25 98.5
L 129.6 92.4
Q 125.85 88.3 119.55 89.7
L 118.85 91.05
M 12.3 245.6
Q 10.6 245.6 8.15 246.85 5.5 248.25 5.5 249.4 5.5 250.1798828125 9.45 254.6
L 30.4 254.6
Q 28.0384765625 251.4912109375 27.7 250.25 25.45 249.15 21.4 246.9 13.3 245.6 12.3 245.6
M 82.05 212.85
Q 82.55 213.6 83.15 214.45 87.7 221.2 89.55 225.9 91.3 230.4 93.8 236.05 95.35 239.7 95.4 240.25
L 95.7 240.25
Q 95.95 236.25 95.95 235.5 95.95 233.7 95.35 230.8 95.1 229.8 94.95 229.1 94.25 228.05 94.1 227.8
L 94.5 227.8
Q 94.65 228.1 94.95 229.1 96.3 231.3 100 236.95 104.87734375 246.0890625 105.1 254.6
L 162.3 254.6
Q 147.944140625 248.787109375 134.95 240.4
L 142 248.85 138 247.6 137.7 248.7
Q 136.2 246.85 134.75 244.95 121.45 228.3 104.65 215.8 98.05 210.85 90.65 206.7 85.6 203.95 80.85 202.1 80.8 202.05 80.75 202 81.35 204.45 81.7 207.25 81.95 209.5 82.05 212.85
M 184.25 13.6
Q 183.75 12.75 183.55 12.25 182.7 10.35 182.15 8.8 182 10.6 181.85 12.8 181.65 15.85 181.65 18.95 182.75 23.35 184.55 26.35 183.7 25.3 182.85 23.85 183.15 24.75 183.5 25.65 184 26.95 187.05 34.6 184.2 31.9 182.35 27.4 181.65 25.8 179.65 19.45
L 179.65 18.5
Q 179.15 17.8 178.6 16.95 175.95 13.1 175.7 12.85
L 175.7 16.5
Q 175.7 16.6 175.75 16.7 175.8 17.9 176.05 19.3 176.3 21.35 176.85 23.75 177.2 25.65 177.45 26.95 177.45 26.9984375 177.45 27.05 177.9 27.85 178.4 28.8 178.5 29 178.65 29.3 179.1 30.25 179.6 31.15 180.3 32.5 180.95 33.8 181 33.9 181.05 34 181.35 34.55 181.65 35.05 184 39.35 185.95 42.5 185.95 42.7 185.45 42.9 183.75 41.25 180.95 36.55 180.55 35.9 180.2 35.25 178.75 32.75 177 29.5 176.15 28 175.45 26.7 175.25 26.2 175.05 25.75 171.45 18.8 171.45 17.4 171.45 17.2 171.45 17.05 170.7 15.35 169.65 12.8 168.65 10.4 167.2 8.6 166.55 7.9 165.9 7.3 164.85 6.3 163.65 5.55 162.35 4.85 161.25 4.25 161.05 4.3 160.9 4.4
L 160.5 3.95
Q 160.5 3.9 160.55 3.9 159.95 3.5 159.3 3.15 158.55 2.75 157.9 2.4 157.1 1.95 156.4 1.55 156.55 2.45 156.8 4 156.85 4.1 156.85 4.25 157 4.85 157.15 5.6 157.2 5.95 157.25 6.25 157.35 6.85 157.45 7.35 157.55 8.1 157.6 8.65 157.6 8.8 157.65 8.95 157.65 9.2 157.65 9.35 157.65 10.2 157.5 11.2 157.35 11.85 157.15 12.5 156.7 14 156.25 14.4 157.65 15.1 159.95 17.3 162.3 19.1 165.35 19.1 166.55 19.1 167.35 17.95 168.05 17 167.85 15.95 168.8 18.05 170.65 21.55 172.05 24.7 172.05 27.75 172.05 31.2 169.3 33.65 168.85 34.05 168.45 34.35 166.65 35.7 165.65 35.25 165.65 35.3 165.55 35.35 165.45 35.45 165.45 35.75 165.45 39.45 170.9 51 171.05 51.15 171.2 51.25
L 171 51.25
Q 170.95 51.15 170.9 51 167.1 48 165.4 46 164.9 45.4 164.25 44.45 164.85 45.8 165.2 46.3 162.3 44.35 160.45 40.65 160 39.75 159.65 38.75 159.45 38.4 159.3 37.95 158.55 35.9 157.65 34.25 156.85 32.75 156 31.65 155.6 32.15 154.85 32.75 154.2 33.35 153.2 34.15 152.65 34.6 152 35.05 148.8 37.35 146.7 38.5
L 146.2 38.5
Q 146.5 37.5 150.9 34.65 152.25 33.85 153.25 33.2 153.15 32.55 152.85 32.05 151.85 32.85 150.25 33.95 146.4 36.5 146.2 36.6 146.9 35.05 150.6 32.7 151.6 32 152.4 31.5 151.7 30.9 150.55 30.8 146.05 30.1 145.65 29.9 142.05 27.85 140.7 27.1 139.4 26.5 138.4 26.2 137.4 27.15 135.6 28.55 135.15 28.9 133.65 29.9 133.5 30.35 133.35 30.8 133.05 31.7 133 32.55 132.95 32.8 132.95 33.1 132.95 35.3 137.95 37.35 139.25 37.85 141.3 38.6 142.2 38.95 143.2 39.35 145.45 40.15 148.35 41.15 150.2 41.9 153.25 42.7 155.1 43.65 155.55 46.3 155.6 46.85 155.65 47.5 155.65 47.75 155.7 47.95 155.9 51.7 157.75 56.55 158.2 57.8 158.6 59 158.8 59.5 159 60.05 160 63.05 160.15 64.75 160.2 65.2 160.3 65.65 161.05 69.45 163.95 73.3 164.6 74.15 165.4 75 165.7 75.3 165.95 75.65 164.4 79.75 161.9 86.45 159.3 93.8 159.3 97.15 159.3 99.75 166.25 108.85 170.85 114.9 174.75 118.2 176.2 119.45 177.55 120.3 178.6 120.95 179.55 121.4 180.1 121.65 180.7 121.9 183.1 123.05 185.3 124.4 189.65 127.05 192.9 130.35 196.1 133.5 198.25 134.6 198.9 134.8 199.6 135.05 199.8 135.1 200 135.15
L 200.65 135.5
Q 201.4 135.9 201.8 136.25 199.95 135.95 198.3 135.45 195.8 136.25 191.35 137.35 186.5 138.55 184.1 139 191.55 150.65 216.4 191.95 236.05 224.6 241.1 229.95
L 241.1 227.35
Q 239.95 225.2 238.6 221.55 237.35 218.1 237.15 216.85
L 237.15 216.25
Q 240.3 219.85 259 248.5 261.0849609375 251.696875 263 254.6
L 288.1 254.6
Q 278.5263671875 234.476953125 267.9 214.8 257.65 195.95 245.9 178.2 234.1 160.2 222.9 141.95 211.75 123.7 203.25 104.05 202.95 103.35 202.7 102.75 202.15 101.45 201.65 100.25
L 201.95 114.2
Q 200.55 109.85 199.9 105.35 199.75 104.55 199.65 103.7 199.65 103.4 199.6 103.15 197.4 83.05 195.95 62.75 195.9 61.95 195.85 61.2 195.7 58.85 195.55 56.55 194.85 45.55 195.9 34.65
L 184.25 13.6
M 165.2 8.7
Q 165.3 9.25 165.05 9.9 166.1 8.75 166.6 8.5 166.65 10.35 164.2 12.9 161.15 15.7 159.9 17
L 159.4 16.7
Q 160.05 15.65 161.7 13.65 160.35 14.6 159.4 14.65 160.1 14.05 162.45 11.5 164.65 9.05 165.2 8.7
M 185.45 51.45
Q 185.45 51.05 185.65 50.85 185.8 50.7 186.75 50.25 186.9 50.2 187.05 50.1 187.05 51.05 187.1 52.25 187.2 54.95 187.5 59.15 187.5 63.05 187.25 64.95
L 186.45 65.1
Q 186.1 62.2 185.75 57.3 185.45 52.8 185.45 51.45
M 169.15 50.55
Q 169.55 50.4 169.55 50.25 173.7 53.4 175.5 59.4 176.35 62.3 177.25 67.2 177.3 67.7 177.4 68.25 177.45 68.7 177.55 69.1
L 176.95 69.25
Q 176.85 68.75 176.75 68.3 176.6 67.7 176.5 67.2 175.35 62.45 174.6 59.85 173.05 54.3 169.15 50.55
M 185.15 91.95
L 185.6 91.95
Q 187.05 96.1 188.95 103.75 189.2 104.7 189.45 105.7 189.85 107.35 190.3 109.2
L 190 109.45
Q 189.45 108.1 188.85 106.1 188.55 105.25 188.35 104.3 187.9 102.7 187.4 100.8 185.2 92.2 185.15 91.95
M 183.1 87.7
Q 183.25 88.2 183.6 89.45 184.3 91.75 185.75 96.8 187.2 101.6 187.65 105 187.7 105.6 187.75 106.15
L 187.1 106.3
Q 187.05 106 187 105.7 186.3 102.2 184.95 97 183.7 91.95 183.1 89.6 182.8 88.3 182.7 87.8 182.65 87.7 182.65 87.65
L 183.05 87.5
Q 183.05 87.6 183.1 87.7
M 215.85 150.1
L 216.25 150.1
Q 228.15 171.55 239.9 197.55
L 239.9 187.6 240.55 187.6
Q 240.9 195.3 241.2 211 240.6 211 239.9 209.1
L 239.9 197.9
Q 234.25 188.55 227.45 174.5 219.6 157.8 215.85 150.1
M 243.25 195.45
L 243.7 195.45
Q 243.85 197.8 244 202.9 244.2 207.5 244.6 210.8
L 244.6 214.15 243.95 214.3
Q 243.95 211.4 243.25 209.9
L 243.25 195.45
M 88.3 76.2
Q 86.75 76.2 81.95 78.4 77.1 80.55 74.65 80.55 67.4 80.55 62.3 66.15 58.6458984375 52.9666015625 56.05 45.1 54.837109375 44.946875 53.8 44.7 52.9 44.5 52.15 44.3 52.25 44.5 52.35 44.75 52.95 46.1 52.95 50.95 52.95 57.15 51.6 61.9 51.5 62.2 51.4 62.5 49.95 66.95 46.8 71.9 45.9 73.6 45.1 74.8 40.95 81.35 36.85 81.35 34.75 81.35 34.2 80.1 33.9 79.4 33.9 76.55 33.9 75.25 34.85 71.5 35.75 67.8 35.75 67.25 35.75 66.85 35.45 66.35 35.4 66.25 35.35 66.2 33.35 70.15 33.15 70.4
L 32.55 70.55
Q 33.2 67.25 33.5 66.05 32.75 66.6 32 68.15 31 70.4 31.15 71.85
L 30.85 71.85
Q 30.55 70.95 30.55 67.45 30.55 57.85 33.65 51.35 33.75 51.2 33.85 51 34 48.75 36.2 46.2 36.6 45.7 37.05 45.2 37.4 44.85 37.75 44.5 39.25 43.1 40.6 42.25 39.3 42.3 38.15 42.45 37.2 42.55 36.35 42.65 32.1 43.25 28.7 44.4 28.4 45.2 28.1 45.95 27.7 46.7 27.4 47.5 27.5 47.25 27.7 47 28.1 46.4 28.55 46 30.9 43.1 32.55 44.4 31.85 45.15 31.25 45.9 30.25 47 29.45 48.2 28 50.45 27.05 53 27.5 52.75 27.85 52.95 27.15 54.05 26.15 55.8
L 26.15 55.85
Q 25.15 59.95 25.15 67.1 25.15 71.95 25.4 73.8 25.85 77.1 27.65 81.2 28.4 82.9 27.55 87.95 27.55 88.55 27.7 89.15 28.1 91 29.65 92.15 30 92.4 30.45 92.65 31.55 93.25 33.15 93.55 32.85 93.85 31.85 94.15 30.65 94.5 29.55 94.5 29.45 94.5 29.3 94.45 27.85 96.7 25.95 100.55 24.3 103.85 22.45 107.65
L 21.8 107.65
Q 20.5 97 20.5 92.6
L 17.35 92.6
Q 15.8 94.15 13.65 101.25 11.4 108.65 11.4 113.1 11.4 120.75 13 128.55 13.8 130.75 14.75 133.2 17.85 141.35 20.95 148.8 20.95 150.35 20.3 149.2 18 143.95 16.05 139.5 16.65 141.25 17.4 143.2 18.6 144.9 18.6 145.75 18.6 146.05 18.6 146.4 20 150.15 21.8 154.4
L 21.8 155.15
Q 21.9 153.8 23.1 148.9 24.4 143.5 25.1 142.75
L 25.1 142.1
Q 27.75 161.65 42.45 179.2 52 190.6 62.15 195.15 63.05 195.15 64 195.15 74 195.15 78.95 192.2 81.15 190.9 82.75 188.2 83.05 187.75 83.45 186.4 80.95 184.45 80.25 183.75 78 181.55 78 179 78 176.65 80.1 165.35 82.6 173.7 82.75 174 82.75 174.05 82.8 174.15 83.9 175.75 85.55 178.35 85.1 178.2 84.55 177.7 85 178.45 85.45 179 85.95 178.55 86.35 178.2 86.4 178.1 94.05 177.8 93.45 176.9 92.3 174.35 91.65 172.85 91.2 171.65 90.2 169.8 89.35 168.75
L 89.85 168.6
Q 89.95 168.65 90 168.7 89.7 168.05 89.55 167.7 89.2 166.85 89.1 165.65 89.05 165.05 88.7 163.8 88.4 162.85 88.35 162.45 87.45 163.9 86.2 164.55
L 85.8 163.6
Q 86.05 163.15 87.15 161.4 87.15 161.35 87.2 161.3 88.25 159.5 88.4 159.35
L 89.15 159.5
Q 89.9 159.7 90 159.95 89.8 160.15 89.3 161 89.3 161.05 89.35 161.05 89.5 161 89.7 160.95 91.65 160.4 92.45 160.4 92.75 160.4 94.35 161.25 99.4 161.35 101.6 163.2 101.7 163.3 103.3 164.95 104.15 165.75 105.05 166.15 106.4 164.45 107.45 162.1 108.1 160.7 108.8 159.55 107.15 158.2 105.9 156.35 103.7 153.1 102.75 152.2 100.7 150.35 97.5 150.35 96 150.35 94.75 150.85 94.1 151.1 92 152.2 92.8 150.85 93.95 149.75 93.8 149.55 93.8 148.95 93.8 148.65 97.7 146.9 99.65 145.8 102.2 144.85 104 144.2 105.6 143.5 109.1 141.8 111.4 139.75 112.6 138.3 113.25 137.5 113.85 136.8 114.05 136.65 115 140.35 107.4 144.2 106.6 144.6 105.45 145.1 105.45 145.5 105.45 145.95 105.45 146.75 105.7 147.55 105.9 145.65 107.7 144.3 107.7 144.7 107.3 145.8 106.95 146.85 106.95 147.7 106.95 147.85 107.3 148.15 107.5341796875 148.3373046875 108.7 149.3 108.767578125 149.3802734375 108.85 149.45 109.027734375 149.4671875 109.2 149.45 116.6482421875 150.21484375 118.7 150.85 119.8123046875 151.9623046875 120.35 152.95 121.20546875 153 122.15 153 127.5884765625 153 130.65 143.1 129.8779296875 140.744921875 128.8 138.05 128.3 136.8 123.2 124.95 119.2 115.6 119.2 114.65 119.2 113.703125 119.9 112.4 119.48125 111.4919921875 118.95 110.4 116.6 105.45 113.8 102.95
L 113.9 102.5
Q 115.212109375 103.04921875 116.4 104 116.3451171875 103.8548828125 116.25 103.65 114.46484375 102.6791015625 113.25 101.6 112.997265625 101.3298828125 112.75 101.05 112.6994140625 101.0052734375 112.65 100.95 112.7 100.917578125 112.75 100.9
L 112.75 100.4
Q 112.9 100.15 114.4 98.8 115.5 97.8 115.5 96.55 115.5 94.45 113.4 93.05 110.2 90.9 110.1 90.75 110.193359375 90.50078125 110.3 90.25 109.6658203125 89.937890625 109 89.65
L 110.65 89.65
Q 113.64453125 85.221875 126.5 83.8 126.0087890625 83.517578125 125.5 83.2 115.25 76.75 107.65 76.75 105.7 76.75 102.6 78.65 99.5 80.55 96.65 80.55 95.15 80.55 91.75 78.4 88.4 76.2 88.3 76.2
M 32.2 82
L 34.25 82.15
Q 35.9 82.6 36.35 83.55 36.5 83.9 36.5 84.95 36.5 85.65 36.05 86.4 35.55 87.15 34.25 88.55
L 31.25 88.55
Q 31.1 87.65 31.1 85.85 31.1 83.9 32.2 82
M 80.1 162.5
L 79.8 162.2
Q 80.7 161.1 81.45 160.25 82.9 158.6 83.4 158.4 83.1 159.45 82.05 160.75 80.95 162.1 80.1 162.5
M 111.7 106.65
L 112.15 106.65
Q 112.75 107.6 115.8 110.95 118.4 114.25 118.1 116.15
L 117.8 116.5
Q 117.35 115.4 114.65 111.5 113.3 109.6 112.6 108.4 111.85 107.2 111.7 106.65
M 112.6 146.8
Q 112.15 146.8 111.95 146.7 111.4 146.45 111.3 145.15 111.3 144.2 111.6 143.8 111.65 143.7 112.45 143.05 112.9 142.5 113.05 142.4 113.35 142.15 114.1 141.95 115.65 141.55 116.45 141.8 117.05 142 117.65 142.7 118.25 143.25 118.4 143.9 118.55 144.85 117.25 146.25 116.8 146.7 116.55 146.8 116.3 146.9 115.75 146.9
L 112.6 146.8
M 103.3 107.8
Q 104.2 109.05 104.4 109.65 104.6 110.15 104.85 111.25 105.1 111.75 105.65 112.65 105.75 113.05 105.7 113.8 105.6 114.65 105.65 114.95 105.7 115.1 106.1 116.35 106.3 117.05 106.3 118.55
L 106.3 121.95
Q 106.3 123.5 106.05 124.25 105.85 124.85 104.85 126.3 104.3 126.95 104.05 127.05 103.85 127.15 103.1 127.15 102.25 127.05 102.05 126.85 101.8 126.65 101.6 126.05
L 100.85 122.55
Q 100.55 120.85 100.1 119.3
L 99.6 117.3
Q 99.45 116.5 99.15 115.85 98.5 114.55 98.45 114.4 98.3 113.45 98.2 112.95 98.1 112.65 97.5 111.7
L 96.45 110.2
Q 95.7 109 94.8 107.95 94.2 107.25 92.9 106.15 91.55 104.9 91 104.35 90 103.25 89.95 102.4 89.85 101.8 90.2 101.3 90.55 100.8 91.15 100.75 91.65 100.7 92.65 101.2 93.1 101.3 94.05 101.25 94.95 101.35 96 102.2 97.7 103.55 97.8 103.6 98.55 104.1 100.2 104.75 101.45 105.4 103.3 107.8
M 130.85 142.5
Q 130.760546875 142.8029296875 130.65 143.1 130.814453125 143.5294921875 130.95 143.95 130.948046875 143.852734375 130.95 143.75 130.9265625 143.00078125 130.9 142.3 130.87734375 142.40546875 130.85 142.5 Z"/>

<path fill="#D7F0F7" stroke="none" d="
M 148.95 50.6
Q 148.95 50.55 148.95 50.5 148.85 50.5 148.75 50.5 148.85 50.55 148.95 50.6
M 270.7 74.35
Q 270.88984375 75.289453125 271 77.3
L 271.1 75.7
Q 271.0322265625 75.1236328125 270.7 74.35
M 195.25 28.05
Q 195.3 28.05 195.35 28 195.25 27.95 195.15 27.9
L 195.25 28.05
M 34.7 84.2
Q 33.6 83.65 31.95 83.5
L 31.95 87.65 34.25 87.5
Q 34.85 87.05 35.05 86.7 35.5 86.05 35.5 85.1 35.5 84.7 34.7 84.2
M 196.55 29.55
Q 196.1 29.35 195.75 29.2
L 196.15 30.4
Q 196.3 30.05 196.55 29.55
M 188.15 13.55
Q 188.2 13.7 188.25 13.8 188.4 13.8 188.5 13.8 188.35 13.7 188.15 13.55
M 185.65 6.45
Q 185.9 7.3 186.2 8.1 186.5 7.05 187 6 186.8 6 186.15 6.25 185.9 6.35 185.65 6.45
M 170.9 51
Q 170.95 51.15 171 51.25
L 171.2 51.25
Q 171.05 51.15 170.9 51 Z"/>

<path fill="#2A201E" stroke="none" d="
M 130.9 29.25
L 131.15 29.65
Q 131.75 29.2 134.75 27.05 137.55 24.95 138.35 24.2 137.95 24.35 134.85 26.55 131.35 28.95 130.9 29.25
M 79.8 162.2
L 80.1 162.5
Q 80.95 162.1 82.05 160.75 83.1 159.45 83.4 158.4 82.9 158.6 81.45 160.25 80.7 161.1 79.8 162.2
M 154.35 30.5
Q 154.3 30.5 154.2 30.55 153.65 30.75 152.4 31.5 151.6 32 150.6 32.7 146.9 35.05 146.2 36.6 146.4 36.5 150.25 33.95 151.85 32.85 152.85 32.05 153.85 31.2 154.25 30.65 154.3 30.6 154.35 30.5 Z"/>

<path fill="#EDEBD3" stroke="none" d="
M 299.2 -0.5
L 183.25 -0.5
Q 183.8140625 0.65390625 184.15 1.8 184.9 4.3 185.65 6.45 185.9 6.35 186.15 6.25 186.8 6 187 6 186.5 7.05 186.2 8.1 187.2 11.2 188.15 13.55 188.35 13.7 188.5 13.8 194.6 15 197.5 17.25 197.75 17.45 198.15 17.9 199.4 18.9 200.45 20.25 201.65 21.7 202.6 23.25 203.5 24.4 205.3 26.75 207.2970703125 28.6322265625 209.55 29.65 210.35 29.95 212.75 30.4 215.1 30.85 215.7 30.85 220.65 30.85 222.45 26.65 223.2 24.4 223.55 23.4 224.2 21.75 225.1 21.25
L 225.45 21.3
Q 225.45 21.45 225.8 22.85 226.1 24.1 226.1 24.7 226.1 28.9 221.75 33.55 217.05 38.6 211.55 38.6 210.8 38.6 209.2 38.35 207.6 38.05 206.75 37.8 204.40390625 36.875 203 34.85 200.35 31.15 196.55 29.55 196.3 30.05 196.15 30.4
L 196.8 31.9 197.35 30.9 197.55 32.65
Q 200.35 33.35 203.05 35.85 204.9755859375 37.1228515625 206.55 38.7 208.15 40.65 210.5 45.7 214.8 54.8 214.95 55.1 221.25 67.5 228.2 70.65 233.65 73.1 244.3 74.55 254.7 75.95 257.85 74.9
L 256.7 75.55
Q 248.95 78.65 242.55 78.65 228.35 78.65 218.75 68.55 216.05 65.7 211.65 59.6 207.45 53.75 205.1 51.45 204.7857421875 51.0609375 204.5 50.75 201.8 47.75 199.55 45.9 199.7 46.55 199.65 47.15 199.6 47.95 199.35 50.3 199.35 50.75 199.5 56.55 199.05 75.1 202.6 93.25
L 203.15 93.35
Q 205.72265625 100.728125 209.1 107.7
L 208.95 107.75
Q 208.85 108.2 209.2 108.75
L 209.6 109.5 210.8 111.3 210.8 111.3
Q 219.612890625 129.2412109375 230.7 145.8 242.25 163.15 252.85 181.3 263.9 200.2 275 219 285.1783203125 236.142578125 292.3 254.6
L 299.2 254.6 299.2 -0.5
M 271 77.3
Q 270.88984375 75.289453125 270.7 74.35 271.0322265625 75.1236328125 271.1 75.7
L 271 77.3
M 169.2 131.55
Q 168.8 131.35 168.4 131.2 161.45 130.95 156.1 121.15 154.35 117.95 153 114.15 152.15 111.65 152.05 110.85 151.1 112.3 149.7 113.95 145.85 118.1 141.1 119.8 135.7 121.65 134.8 126.15 134.25 128.7 134.75 133.8 134.7 135.3 134.4 141.25 134.15 145.85 134.25 148.7 134.36796875 151.886328125 132.95 154.55 132.551171875 155.267578125 132.05 155.95 129.85 161.2 124.1 161.8 121.8 162.7 119.1 161.45 118.95 161.35 118.85 161.3 116.05 159.75 114 159.75 111.95 159.7 111.65 160.35 111.5 160.7 111.35 161.15 110.85 162.45 110.2 164.2 109.45 166.65 108.45 167.85 106.45 170.3 102 171.2 100.05 172.8 100.2 177.1 99 180.9 89.35 181.85 89.05 182.85 88.45 185.5 87.9 187.9 86.9 189.05 86.85 189.1 86.8 189.15 85.65 190.5 82.65 193.25 81 194.7 80.4 195.35 80.75 196.1 81.1 197.3 81.15 197.45 81.2 197.6 82.3 199.4 86.4 200.35 89.6 201.1 93.9 203.2 112.5 210.75 123.95 227.15 124.65 228.15 125.35 229.25
L 125.9 229.1
Q 148.53828125 247.017578125 175.4 254.6
L 215.1 254.6
Q 205.8578125 219.1015625 192.25 185.2 180.9 158.2 169.2 131.55 Z"/>

<path fill="#593A3F" stroke="none" d="
M 206.4 48.9
Q 205.6142578125 47.8328125 205.35 47.45 205.1197265625 47.104296875 205.35 47.35 204.3484375 46.041796875 203.25 44.8 201.05 42.4 198 40.85 198.05 42.15 198.1 43.4 199.6 43.2 201.45 44.3 203.2271484375 45.3861328125 205.35 47.55
L 206.4 48.9 Z"/>

<path fill="#9D713F" stroke="none" d="
M 204.3 41.45
Q 203.95 41.05 202.9 39.9 201.2 38 197.7 34.1
L 198 40.1
Q 202.45 41.05 205.75 43.8
L 205.75 43.75
Q 204.7484375 41.998046875 204.3 41.45
M 215.2 35.35
L 216.2 34.9 214.5 34.95
Q 213.5 34.95 211.5 34.45 209.4 33.85 208.05 33.1 206.59296875 32.341015625 205.3 31.25 204.35 30.5 203.7 29.45 203.4 29.2 203.1 28.95 201.25 27.15 199.15 23.5 198.5 22.4 194.1 17.95 193.75 17.6 192.4 17.1
L 190.85 16.9
Q 190.2 16.85 189.4 16.7 189.25 16.7 189.15 16.65
L 194.7 27
Q 195.8 27.25 196.75 27.8 197.05 27.8 197.4 27.85 198.1 27.95 198.95 28.25 201.35 29.1 202.35 30.35 202.35 30.4 203.7 31.7 205.714453125 32.9345703125 207.65 34.25 210.4 36.2 211 35.9 213.1 35.9 215.2 35.35
M 162.85 -0.5
L 158.5 -0.5
Q 159.0478515625 -0.23984375 159.65 0.05 159.75 0.1 159.85 0.15 160.35 0.45 160.9 0.65 161.45 0.95 162 1.2 162.399609375 0.40078125 162.85 -0.5
M 142.8 -0.5
L 126.9 -0.5
Q 129.438671875 2.2990234375 131.3 6.35 133.15 10.5 133.4 13.8 133.6 12.3 133.6 11.05 133.6 9.2 133.3 7 133.2 6.4 133.15 5.9 133.65 6.7 134.65 7.8 138.2 11.75 139.15 13.8 140.8 17.6 141.3 18.65 141.45 18.95 141.5 19.05 143.25 21.9 145.95 22.25 146.2 22.3 146.5 22.3 150.8 22.5 155.3 26.7 158.1 29.3 159.4 32.5 159.65 32.4 159.9 32.35 160.05 32.3 160.2 32.3 161.6 31.95 163.65 31.65 167.35 31.05 167.85 28.8
L 167.85 28.6
Q 163.35 28.95 159.55 26.6 156.55 24.65 156.55 23.65 156.55 22.75 156.7 22.6 156.1 21.7 155.25 20.45 153.05 17.15 148.1 15.7
L 147.95 15.3
Q 147.4 15.45 146.85 15.6 151 13.65 152.05 10.25 152.25 9.7 152.35 8.4 151.7 9.15 150.65 9.95 147.85 12.1 147.8 12.15 146.15 12.15 144.75 12 144.45 12.15 144 12.55 144 12 144.05 11.55
L 143.05 10 143.05 9.6
Q 143.15 9.65 144.05 10.15 143.9537109375 4.12890625 142.8 -0.5
M 56.55 -0.5
L 0 -0.5 0 1.3
Q 2.25 0.15 3.85 0.15 9.5 0.15 16.35 2.15 19.3 2.95 21.9 3.5 25.45 4.15 28.4 4.15 29.5 4.15 30.6 4.1 31.3 4.05 32.05 4 35.85 3.65 38.55 2.55 42.1 1.05 46.45 0.4 47.9 0.1 49.45 -0.05 46.9 1.6 41.05 3.4 40.9 3.45 40.8 3.5 46.65 2.5 50.4 1.55 52.9 0.9 54.9 0.2 55.76484375 -0.141015625 56.55 -0.5
M 59.35 -0.5
L 58.05 -0.5
Q 56.9322265625 0.1783203125 55.35 0.8 53.8 1.45 51.75 2 47.75 3.1 42.2 3.9 42.05 3.95 41.9 3.95 39.55 4.3 36.9 4.55 34.65 5.1 32.65 5.4 31.9 5.5 31.2 5.55 29.7 5.7 28.4 5.7 27.6 5.9 26.85 6.05 17.95 7.95 14.45 9 10 10.35 7.3 12.15 6.35 12.75 5.6 13.45 6.4 13 7.2 12.65 10.65 10.95 14.55 10.2 18.8 9.4 24.8 9.4 27.35 9.4 31.8 10 32.3 10.05 32.9 10.15 33.15 10.2 33.4 10.25 34.3 10 35.15 9.85 38.35 9.25 41.6 9.4 42.3 9.45 42.95 9.5 44.9 9.8 46.85 10 48.7 10.1 50.55 10.2 53.3 10.25 56.05 10.1 56.55 10.1 57.05 9.8 60.3 9.85 63.4 8.4 67.8 6.6 71.05 3.1 71.85 2.2 72.6 1.15 72.2 2.1 71.75 2.9 68.95 8 63.45 10.15 60.05 11.55 56.4 11.5 52.65 11.1 48.95 10.9 42.8 10.55 36.65 10.8 39.1 11.2 42.05 11.8 45.15 12.35 47.75 12.85 55.25 14.15 57.8 14.15 63.15 14.15 68.05 12.85 69.7 12.05 71.3 11.1 71.6 10.85 71.85 10.4 73.7 7.2 77.05 6.95 74.4 9.45 71.5 11.75 70.3 12.65 69.1 13.6 68.3 14.15 67.45 14.7 64.1 16.7 60.3 17.35 56.25 17.15 52.25 16.8 47.1 16.95 40.3 16.75 37.25 16.6 35.05 16.55 31.4 16.4 29.95 16.4 23.5 16.4 15.8 19.55 9.45 22.25 6.25 25.6 5.65 26.25 5.15 26.9 5.55 26.65 6 26.4 6.3 26.3 6.6 26.2 7.8 25.65 8.55 25.2
L 14.1 25.2
Q 13.8 26.2 10.35 30.25 10 30.65 9.6 31.05 7.65 33.35 6.6 34.8 6.1 35.45 5.8 35.95 5.4 36.55 5.3 36.95 6.6 36.55 7.8 36.25 9.1 35.85 10.4 35.5 11.55 35.15 12.6 34.85 15.15 34.2 17.05 33.75 19.4 32.4 21.55 31.7 24.1 30.8 26.4 30.8 28.05 30.8 29.5 30.85 30.25 30.85 30.95 30.85 31.05 30.85 31.15 30.85 31.7 30.9 32.3 30.95 34.05 31.05 35.35 31.25 35.85 31.35 36.25 31.45 37.3 31.65 37.85 32 38.4 32.3 38.85 32.75 39.25 33.1 40.4 33.15 40.5 33.15 40.6 33.15 44.75 33.15 47.95 33.15 56.9 33.05 57.4 32.85 57.6 32.75 57.05 32.5 56.8 32.15 58.55 31.9 58.85 31.9 59.85 31.3 60.95 30.75 61.6 30.15 62.35 29.35 63.2 28.8 63.25 28.75 63.3 28.7 64.05 28.1 64.75 27.8 65.5 27.35 66.15 27.35 65.7 27.85 65.35 28.3 64.65 28.95 63.95 29.55 62.85 30.55 61.65 31.25 59.7 32.35 57.9 33.35 57.8 33.4 57.7 33.5 57.85 33.45 58 33.45 61.85 32.85 66.35 31.3 67.7 30.85 69.15 30.25 69.7 30 70.3 29.75 74.15 23.75 74.5 23.55
L 74.8 24.8
Q 73.45 27.25 72.45 28.85 73.4 28.35 74.5 27.8 75.6 27.25 76.65 26.75 78.9 25.5 80.65 24.4 82.1 23.5 83.15 22.7 83.75 21.3 84.3 20.1 84.85 19.05 85.4 18.15 86.25 16.55 87.1 15.4 87.3 15.15 87.45 14.95 87.45 15.15 87.4 15.35 87.05 18.4 86.4 21.25 86.1 22.65 85.65 24 83 32.65 77.15 38.3
L 77.15 38.35
Q 79.6 37.45 81.35 36.25 83 35.1 84.4 33.35 85.2 32.4 86.4 30.8 88.1 28.95 89.45 25.2 90.8 21.4 91.1 21.05 91.25 22.6 91.05 24.15 91.5 23.25 91.9 22.3
L 91.9 21.9
Q 93.2 27.05 88 36.35 82.8 45.6 78.65 46.25 79.4 46.6 82.35 46.6 84.55 46.6 91.6 45.15 95.45 44.3 97.35 43.85 98.65 43.5 98.95 43.3
L 98.95 42.95 98.9 42.95
Q 97.85 43.1 97.1 43.15 95.7 43.3 95.05 43.3 94.3 43.3 93.25 43.1 92.1 42.85 91.55 42.55 93.05 41.15 103.45 35.95 104.3 35.5 105.15 35.1 105.7 33.75 106.85 32.5 107.4 31.8 108.2 31.1 109.55 29.85 111.4 28.7 112.75 27.9 115.85 26.3 116.3 26 116.8 25.75 119.55 24.35 120 23.7 122.6 19.7 124 17.55 125 15.8 125.25 15.2 125.35 14.95 125.45 14.6 125.95 12.65 125.95 7.9 125.95 5.6 124.65 3.15 124.25 2.5 123.95 1.95 123.45 1.1 123 0.35 122.744921875 -0.075 122.5 -0.5
L 119.6 -0.5
Q 119.620703125 -0.449609375 119.65 -0.4 120.55 1.25 120.7 2.1
L 120.7 2.15
Q 120.85 3.1 120.55 5.95 120.55 7.45 120.4 8.75 120.05 11.85 118.7 13.85 116.35 17.65 109.25 21.45 115.45 16.7 117.5 13.6 118.8 11.5 119.25 8.55 119.4 7.35 119.4 6 119.4 3.65 118.85 1.7 118.75 1.4 118.7 1.15 118.4087890625 0.325 118.05 -0.5
L 114 -0.5
Q 114.052734375 -0.4501953125 114.1 -0.4 114.55 0.2 114.8 0.7 115.2 1.6 115.2 2.4
L 115.1 5.8 114.7 5.9
Q 114.7 5 114.65 4.2 114.45 2.75 114 1.55 113.5560546875 0.440234375 112.9 -0.5
L 64.55 -0.5
Q 63.375 0.1091796875 62.1 0.55
L 62 0.25
Q 62.734765625 -0.103125 63.45 -0.5
L 60.9 -0.5
Q 58.90703125 1.0619140625 56.9 2.4 54.45 3.9 52 5.1 52.35 4.8 56.3 1.9 56.45 1.75 56.65 1.6 58.2146484375 0.416015625 59.35 -0.5 Z"/>

<path fill="#EC9C75" stroke="none" d="
M 9.7 241.1
Q 6.5 239.9 5.85 239.9 2.2 239.9 0 240.3
L 0 254.6 9.45 254.6
Q 5.5 250.1798828125 5.5 249.4 5.5 248.25 8.15 246.85 10.6 245.6 12.3 245.6 13.3 245.6 21.4 246.9 20.05 246.2 18.6 245.35 13.3 242.55 9.7 241.1 Z"/>

<path fill="#617983" stroke="none" d="
M 64.1 199.4
L 64.1 200
Q 62.6 203.8 61.35 215.7 60 227.8 57.55 234.45 57.55 234.05 57.25 233.9
L 56.9 233.8
Q 57.1 231.4 56.05 216.95 55.05 202.55 55 200.85
L 55 201.3
Q 54.35 204 52.6 212.2 50.65 219.8 47.8 224.1
L 47.8 223.45
Q 47.8 222.05 45.35 210.3 43 199.2 42.65 198.05
L 42.05 198.05
Q 42.05 199.5 40.3 206.35 38.45 213.55 37.4 214.95 35.5 209.35 33.8 204.45 35.3 209.05 35.7 215.05 35.85 217.6 35.85 225.55 35.85 235.75 35.6 239.05 35 246.5 32.6 252.4 33.15 253.05 33.75 253.95 38.8 243.85 40.95 238.35 45.05 228.2 44.5 221.4
L 45.1 221.4
Q 45.4 222.35 45.4 225.05 45.4 232.65 42 240.15 39.85 244.95 33.85 254.1 33.95 254.2 34.05 254.35 34.146875 254.4763671875 34.25 254.6
L 41.2 254.6
Q 43.6359375 251.1689453125 44.55 249.05 46.4 244.45 46.55 243.5 46.6 241.75 46.7 240.7 46.85 238.8 47.75 238.35 47.9 238.5 48.05 238.45 48.15 238.5 48.15 239.1 48.15 245.05 45.75 250.5 44.756640625 252.6673828125 43.45 254.6
L 65.8 254.6
Q 66.053125 254.23046875 66.3 253.85 71.55 245.5 74.15 236.75 77 227.2 77.6 225 77.8 224.2 78 223.5 77.5 217.1 77.05 216.25
L 77.05 216.95
Q 76.1 221.2 72.05 231.7 67 245.05 63.45 249.4
L 63.45 248.75
Q 63.45 247.15 64.1 242.4 64.25 241.25 64.4 239.55 62.7 244 59.8 251.3
L 59.35 251.3
Q 62.65 242.95 64.6 235.4 64.7 232.05 64.75 227.55 62.2 243.05 55.35 254.45
L 54.85 254.45
Q 63.3 234.8 64.75 214.4
L 64.75 213
Q 64.75 201.3 64.1 199.4
M 13.25 178.4
Q 14.35 179.9 15.7 183.2 17.95 189 18.1 189.45 18.8 191.65 19.55 195.3 19.9 197.35 20.65 201.4 19.65 201.2 19.4 199.4 19.05 196.35 19 196.15 18.9 195.75 18.35 193.4 18 191.55 17.45 190.3 14.5 183.65 12.85 178.6 12.45 178.75 12.15 179 14.35 183.1 15.8 191.9 15.7 192.15 15.4 192.15 14.85 189.85 13.55 185.4 12.2 180.85 11.75 179.25 10.55 180 9.5 180.85 8.6 181.65 7.1 182.5 8.25 185.95 10.5 192.5 13.45 200.9 13.45 205.65 13.45 206.2 13.25 206.8 13.05 207.3 13.05 207.55
L 12.85 207.75
Q 12.25 205.3 8.45 191.95 6.75 186.3 6.05 183.15 5 183.65 3.85 184.25 1.5 185.4 0 186.2
L 0 209.85
Q 2.3 212.2 4.15 215.95 8 223.75 10.15 225.95 14.4 228.8 22.75 233.2 26.95 235.9 28.3 239.1 28.25 238.5 28.25 237.95 27.9 229.95 27.4 225.6 25.65 212.1 23.1 201.35
L 23.35 200.2 24.2 200.2
Q 25.8 205.15 27.3 213.9 29.45 226.9 29.8 228.45
L 29.8 244.8
Q 30.7 246.75 30.7 247.1 30.7 248.75 30.65 248.15 30.45 248.3 30.2 248.45 31.15 248.65 31.7 248.75 31.7 248.6 31.7 248.5 33.8 222.05 33.8 216.85 33.8 216.1 33.15 211.8 32.55 207.55 32.55 206.75 32.55 205.55 32.85 205.1 33.1 204.65 33.8 204.45 26.85 184.35 23.2 175.65 17.6 176.1 13.25 178.4 Z"/>

<path fill="url(#Gradient_1)" stroke="none" d="
M 126.2 106.85
L 126.25 106.9 126.7 106.95 126.7 106.9
Q 126.45 106.85 126.2 106.85
M 118.15 152.8
Q 117.48828125 152.3447265625 116.5 152 115.6587890625 151.9416015625 114.9 151.85 109.3 151.4416015625 109.3 151 108.85 151 108.4 150.95 110.25 152.15 113.25 152.9 115.15 153.4 118.55 154.15 119.1 154.3 119.55 154.5 119.45 154.3 119.35 154.1 118.9716796875 153.3705078125 118.15 152.8
M 94.95 229.1
Q 94.65 228.1 94.5 227.8
L 94.1 227.8
Q 94.25 228.05 94.95 229.1
M 97.7 146.9
Q 98.5 146.5 99.5 146.1 103.85 144.25 105.6 143.6 106.05 143.45 106.3 143.35 108.95 142.6 111.4 139.75 109.1 141.8 105.6 143.5 104 144.2 102.2 144.85 99.65 145.8 97.7 146.9 Z"/>

<path fill="#FFFFFF" stroke="none" d="
M 121.3 107.95
Q 120.8326171875 107.5912109375 120.75 107.55 120.75 107.3 121.2 106.95 121.35 106.85 121.5 106.8 118.85 105.9 117.9 105.55 119.2369140625 107.0779296875 120.35 109.2 120.50078125 108.915625 120.75 108.6
L 121.3 107.95
M 116.25 103.65
Q 116.3451171875 103.8548828125 116.4 104 117.1484375 104.6509765625 117.85 105.45
L 117.95 105
Q 118.85 105 121.05 105.8 120.8 105.65 120.6 105.55 119.2 105.05 117.9 104.5 117.0392578125 104.1 116.25 103.65 Z"/>

<path fill="#F8E4D4" stroke="none" d="
M 104.4 109.65
Q 104.2 109.05 103.3 107.8 101.45 105.4 100.2 104.75 98.55 104.1 97.8 103.6 97.7 103.55 96 102.2 94.95 101.35 94.05 101.25 93.1 101.3 92.65 101.2 91.65 100.7 91.15 100.75 90.55 100.8 90.2 101.3 89.85 101.8 89.95 102.4 90 103.25 91 104.35 91.55 104.9 92.9 106.15 94.2 107.25 94.8 107.95 95.7 109 96.45 110.2
L 97.5 111.7
Q 98.1 112.65 98.2 112.95 98.3 113.45 98.45 114.4 98.5 114.55 99.15 115.85 99.45 116.5 99.6 117.3
L 100.1 119.3
Q 100.55 120.85 100.85 122.55
L 101.6 126.05
Q 101.8 126.65 102.05 126.85 102.25 127.05 103.1 127.15 103.85 127.15 104.05 127.05 104.3 126.95 104.85 126.3 105.85 124.85 106.05 124.25 106.3 123.5 106.3 121.95
L 106.3 118.55
Q 106.3 117.05 106.1 116.35 105.7 115.1 105.65 114.95 105.6 114.65 105.7 113.8 105.75 113.05 105.65 112.65 105.1 111.75 104.85 111.25 104.6 110.15 104.4 109.65
M 111.95 146.7
Q 112.15 146.8 112.6 146.8
L 115.75 146.9
Q 116.3 146.9 116.55 146.8 116.8 146.7 117.25 146.25 118.55 144.85 118.4 143.9 118.25 143.25 117.65 142.7 117.05 142 116.45 141.8 115.65 141.55 114.1 141.95 113.35 142.15 113.05 142.4 112.9 142.5 112.45 143.05 111.65 143.7 111.6 143.8 111.3 144.2 111.3 145.15 111.4 146.45 111.95 146.7 Z"/>

<path fill="#FCDE98" stroke="none" d="
M 96.65 177.3
Q 96.75 177.25 96.9 177.15 96.9 177.1 96.95 177 96.8 177.15 96.65 177.3
M 102.9 168.25
Q 102.7 168.3 102.5 168.35 99.3 169.05 98.7 169.15 98.75 169.15 98.8 169.2 98.75 169.35 98.65 169.5 98.7 170.55 98.65 171.45 98.9 170.5 99.25 169.35
L 100.2 169.35
Q 100.3 169.45 100.4 169.55 101.35 168.95 102.9 168.25
M 104.4 166.9
Q 104.55 166.75 104.75 166.55
L 104.3 166.7 104 166.65
Q 104.25 166.8 104.4 166.9 Z"/>

<path fill="#EBACA5" stroke="none" d="
M 88.7 163.8
Q 89.05 165.05 89.1 165.65 89.2 166.85 89.55 167.7 89.7 168.05 90 168.7 91.75 170 93 173.1 94.55 177.1 95.05 177.7 93.55 177 92.3 174.2 91.75 172.8 91.2 171.65 91.65 172.85 92.3 174.35 93.45 176.9 94.05 177.8 94.95 177.75 95.9 177.75 96.3 177.55 96.65 177.3 96.8 177.15 96.95 177 97.55 175.15 98.65 171.45 98.7 170.55 98.65 169.5 98.4 169.8 97.95 170 95.3 168.7 92.55 165.95 90 163.05 88.75 161.8 88.6 162.05 88.4 162.35 88.4 162.4 88.35 162.45 88.4 162.85 88.7 163.8 Z"/>

<path fill="#B28D94" stroke="none" d="
M 104.4 166.9
Q 104.25 166.8 104 166.65
L 102.85 166.45
Q 99.7 164.5 98.85 164.05 95.7 162.4 92.35 161.55 92.85 161.4 92.85 161.25 93.65 161.25 94.35 161.25 92.75 160.4 92.45 160.4 91.65 160.4 89.7 160.95 89.5 161 89.35 161.05 92.1 163.35 98.7 169.15 99.3 169.05 102.5 168.35 102.7 168.3 102.9 168.25 102.95 168.25 103 168.25 103.7 167.6 104.4 166.9 Z"/>

<path fill="#99B3CC" stroke="none" d="
M 77.05 197.95
Q 77.05 197 77.35 196.4 77.35 196.25 77.35 196.15 74.75 197.25 71.45 197.75 69 198.2 66.1 198.3
L 66.15 208.5
Q 66.15 218.65 64.75 227.55 64.7 232.05 64.6 235.4 68.15 221.3 66.95 210.1
L 67.4 210.1
Q 67.8 212.9 67.8 219.4 67.8 229.65 66.55 233.6 66 235.3 64.4 239.55 64.25 241.25 64.1 242.4 63.45 247.15 63.45 248.75
L 63.45 249.4
Q 67 245.05 72.05 231.7 76.1 221.2 77.05 216.95
L 77.05 216.25
Q 77.5 217.1 78 223.5 79.45 217.35 79.45 213.5 79.45 211.7 78.95 208.45 78.7 206.6 78.3 204.3 77.05 198.35 77.05 197.95
M 33.2 179.05
Q 29.4 175.5 26.1 175.5 24.6 175.5 23.2 175.65 26.85 184.35 33.8 204.45 35.5 209.35 37.4 214.95 38.45 213.55 40.3 206.35 42.05 199.5 42.05 198.05
L 42.65 198.05
Q 43 199.2 45.35 210.3 47.8 222.05 47.8 223.45
L 47.8 224.1
Q 50.65 219.8 52.6 212.2 54.35 204 55 201.3
L 55 200.85
Q 55.05 202.55 56.05 216.95 57.1 231.4 56.9 233.8
L 57.25 233.9
Q 57.55 234.05 57.55 234.45 60 227.8 61.35 215.7 62.6 203.8 64.1 200
L 64.1 199.4
Q 64.75 201.3 64.75 213
L 64.75 214.4
Q 65.35 206.4 64.85 198.3 64.6 198.3 64.4 198.3 51.35 198.3 40.55 186.9 35.5 181.2 33.2 179.05
M 2.35 219.4
Q 1 216.95 0 215.1
L 0 237.15
Q 0.35 237.05 0.7 237 4.7 236.3 8.55 237.6 10.7 238.4 15.1 240 15.9 240.5 17.7 241.65 18.15 241.8 18.65 242 22.1 243.25 25.1 245.65 26.5 246.25 28.15 247.45
L 28.15 247.4
Q 27.25 245.9 26.35 243.55 24.8 239.55 23.6 237.75 22.2 235.85 16.5 233 10.4 229.9 9.8 229.4 5.8 225.7 2.35 219.4 Z"/>

<path fill="#7B5A53" stroke="none" d="
M 70.9 39.7
Q 71.65 39.6 72.45 39.45 75.35 37.45 77.5 34.35 74 38.55 70.9 39.65
L 70.9 39.7
M 132.5 18.4
L 132.6 18.45
Q 133.5 16.4 133.4 13.8 133.25 14.55 133.05 15.4 132.55 17.5 132.5 18.4
M 5.25 37.05
Q 5.25 37 5.3 36.95 5.05 37 4.85 37.05
L 5.25 37.05
M 4.15 27.8
L 4.55 27.8
Q 4.8 27.3 5.15 26.9 4.55 27.3 4.15 27.8 Z"/>

<path fill="#9DA5BC" stroke="none" d="
M 31.9 250.55
Q 31.75 249.35 31.7 248.75 31.15 248.65 30.2 248.45 30.15 248.45 30.1 248.5 30.3 249.15 32 251.55 31.95 251.05 31.9 250.55 Z"/>
</g>
</defs>

<g transform="matrix( 1, 0, 0, 1, 0,0) ">
<use xlink:href="#Layer2_0_FILL"/>
</g>
</svg>
