<?xml version="1.0" encoding="UTF-8"?>
<svg id="Camada_1" data-name="Camada 1" xmlns="http://www.w3.org/2000/svg" viewBox="0 0 330 135">
  <defs>
    <style>
      .cls-1 {
        fill: #fff;
      }

      .cls-2 {
        stroke: #4d5732;
      }

      .cls-2, .cls-3 {
        fill: none;
        stroke-miterlimit: 10;
        stroke-width: .74px;
      }

      .cls-4 {
        fill: #4d5732;
      }

      .cls-3 {
        stroke: #68714b;
      }

      .cls-5 {
        fill: #68714b;
      }
    </style>
  </defs>
  <path class="cls-5" d="M2,1.87h109.63v22H2V1.87ZM111.63,1.87h216.63v22H111.63V1.87Z"/>
  <path class="cls-3" d="M2,1.87h109.63M111.63,1.87h216.63M111.63,23.87V2.23M111.63,45.5v-21.63M111.27,45.87h217M111.63,67.5v-21.27M111.27,67.87h217M111.63,89.5v-21.27M111.27,89.87h217M111.63,133.5v-43.27M111.27,133.87h217M112,23.87h216.27"/>
  <path class="cls-2" d="M2,45.87h109.27M2,67.87h109.27M2,89.87h109.27M2,133.87h109.27"/>
  <g>
    <path class="cls-1" d="M18.92,10.75v2.06h2.69v1.21h-2.69v2.98h-1.55v-7.47h4.75v1.21h-3.2Z"/>
    <path class="cls-1" d="M22.2,12.44c.31-.28.66-.49,1.03-.63.38-.14.79-.21,1.22-.21.32,0,.6.05.85.15s.46.25.63.43c.17.18.31.4.4.66.09.25.14.53.14.83v3.33h-.65c-.13,0-.24-.02-.31-.06s-.13-.12-.17-.24l-.11-.34c-.13.12-.26.22-.39.31-.12.09-.25.16-.39.22s-.28.11-.43.14c-.15.03-.32.05-.51.05-.23,0-.45-.03-.64-.09-.19-.06-.36-.15-.5-.28-.14-.12-.25-.27-.32-.46-.08-.18-.11-.39-.11-.63,0-.2.05-.39.15-.59s.27-.37.51-.53c.24-.16.56-.29.97-.4.4-.1.91-.16,1.52-.18v-.27c0-.33-.07-.58-.21-.73-.14-.16-.34-.23-.61-.23-.2,0-.36.02-.49.07-.13.05-.24.1-.34.15-.1.05-.19.1-.28.15-.09.05-.19.07-.3.07-.1,0-.18-.02-.25-.07s-.12-.11-.17-.18l-.25-.45ZM25.09,14.79c-.35.02-.63.05-.86.09-.23.04-.41.1-.55.17-.14.07-.23.15-.29.23s-.08.18-.08.29c0,.21.06.35.17.44.12.09.28.13.48.13.24,0,.44-.04.61-.13.17-.08.35-.22.52-.39v-.82Z"/>
  </g>
  <g>
    <path class="cls-1" d="M29.34,17.09c-.24,0-.45-.04-.64-.11-.19-.07-.34-.17-.47-.3s-.22-.29-.29-.47c-.07-.19-.1-.39-.1-.63v-2.86h-.5c-.08,0-.14-.02-.19-.07-.05-.05-.08-.12-.08-.22v-.56l.85-.15.29-1.37c.04-.15.14-.23.31-.23h.74v1.62h1.37v.99h-1.37v2.77c0,.15.04.26.11.35.07.09.17.13.3.13.07,0,.13,0,.18-.02.05-.02.09-.03.12-.05.03-.02.07-.04.1-.05.03-.02.06-.02.09-.02.04,0,.08,0,.1.03.03.02.06.05.08.1l.43.68c-.2.15-.42.27-.66.35-.25.08-.5.12-.77.12Z"/>
    <path class="cls-1" d="M33.75,11.62c.4,0,.76.06,1.09.19s.61.31.84.54c.23.24.41.52.54.86.13.34.19.71.19,1.14s-.06.8-.19,1.14c-.13.34-.31.63-.54.86-.23.24-.51.42-.84.55s-.69.19-1.09.19-.77-.06-1.09-.19-.61-.31-.84-.55c-.23-.24-.41-.52-.54-.86-.13-.34-.19-.72-.19-1.14s.06-.8.19-1.14c.13-.34.31-.62.54-.86.23-.23.51-.42.84-.54s.69-.19,1.09-.19ZM33.75,16.02c.4,0,.7-.14.9-.42.2-.28.29-.7.29-1.25s-.1-.96-.29-1.24c-.2-.28-.5-.42-.9-.42s-.72.14-.92.42c-.2.28-.29.69-.29,1.24s.1.97.29,1.25c.2.28.5.42.92.42Z"/>
    <path class="cls-1" d="M38.61,12.58c.17-.3.36-.54.58-.72.22-.17.48-.26.77-.26.24,0,.44.06.59.17l-.09,1.05c-.02.07-.04.12-.08.14-.04.03-.08.04-.15.04-.05,0-.13,0-.24-.02-.1-.02-.2-.02-.29-.02-.13,0-.25.02-.35.06-.1.04-.19.09-.27.16-.08.07-.15.15-.21.25s-.12.21-.18.34v3.25h-1.42v-5.3h.84c.14,0,.24.03.3.08.05.05.09.14.12.27l.08.53Z"/>
    <path class="cls-1" d="M42.25,14.57c.04.5.19.86.42,1.09.24.23.55.34.93.34.2,0,.36-.02.51-.07.14-.05.27-.1.38-.15.11-.06.21-.11.29-.15.09-.05.17-.07.26-.07.11,0,.2.04.26.12l.41.51c-.15.17-.32.32-.5.43-.18.12-.37.21-.57.27-.2.07-.39.11-.59.14-.2.03-.39.04-.58.04-.37,0-.72-.06-1.04-.18-.32-.12-.6-.3-.84-.54-.24-.24-.43-.53-.56-.89-.14-.35-.21-.76-.21-1.23,0-.36.06-.7.18-1.02.12-.32.29-.6.51-.83.22-.24.49-.42.81-.56.32-.14.68-.21,1.08-.21.34,0,.65.05.94.16.29.11.53.26.74.47.21.21.37.46.48.76s.17.64.17,1.03c0,.11,0,.19-.02.26-.01.07-.03.12-.05.16-.02.04-.06.07-.1.08-.04.02-.09.02-.16.02h-3.18ZM44.49,13.73c0-.15-.02-.29-.06-.42s-.1-.25-.19-.35c-.09-.1-.19-.18-.32-.24-.13-.06-.29-.09-.47-.09-.34,0-.61.1-.8.29s-.32.47-.38.82h2.21Z"/>
    <path class="cls-1" d="M49.9,12.79c-.04.06-.08.1-.12.13-.04.03-.09.04-.16.04s-.14-.02-.21-.05c-.07-.03-.15-.07-.24-.11-.09-.04-.19-.08-.31-.11s-.25-.05-.4-.05c-.23,0-.41.05-.54.14-.13.09-.19.22-.19.37,0,.11.04.2.11.27s.17.13.29.19.25.1.4.15c.15.05.31.1.47.15.16.06.31.12.47.19.15.07.29.16.4.27.12.11.21.24.29.39.07.15.11.34.11.55,0,.26-.05.49-.14.71-.09.22-.23.41-.41.56-.18.16-.41.28-.68.37-.27.09-.58.13-.94.13-.18,0-.36-.02-.54-.05-.18-.03-.35-.08-.51-.14s-.31-.13-.45-.21c-.14-.08-.26-.16-.37-.26l.33-.53c.04-.06.08-.11.14-.14s.13-.05.22-.05.16.02.24.06c.07.04.15.09.24.14.09.05.19.1.32.14.12.04.27.06.46.06.14,0,.26-.02.36-.05.1-.03.18-.07.24-.13.06-.05.11-.11.14-.18s.04-.14.04-.21c0-.12-.04-.21-.11-.29s-.17-.14-.29-.19c-.12-.06-.25-.1-.41-.15s-.31-.09-.47-.15c-.16-.05-.32-.12-.47-.2-.15-.08-.29-.17-.41-.29-.12-.11-.21-.26-.29-.42s-.11-.37-.11-.61c0-.22.04-.43.13-.62.09-.2.21-.37.39-.52.17-.15.38-.27.64-.36.26-.09.55-.13.89-.13.38,0,.72.06,1.03.19s.56.28.76.48l-.32.5Z"/>
    <path class="cls-1" d="M58.24,9.34v7.67h-.87c-.18,0-.3-.08-.35-.25l-.12-.46c-.11.12-.22.22-.34.32-.12.1-.25.18-.38.25s-.28.12-.44.16-.33.06-.51.06c-.28,0-.55-.06-.78-.18-.24-.12-.44-.3-.62-.53-.17-.23-.31-.52-.4-.85-.1-.34-.14-.72-.14-1.15,0-.39.05-.76.16-1.1.11-.34.26-.63.46-.88.2-.25.44-.44.72-.58s.59-.21.94-.21c.29,0,.53.04.73.13.2.09.38.2.54.35v-2.74h1.42ZM56.82,13.08c-.13-.15-.28-.26-.43-.32-.16-.06-.32-.09-.5-.09s-.33.03-.47.1c-.14.07-.26.17-.36.31-.1.14-.18.32-.23.53-.06.22-.08.47-.08.77s.02.55.07.75c.04.21.11.37.19.5s.19.22.31.27.25.08.4.08c.25,0,.46-.05.63-.15.17-.1.33-.24.48-.42v-2.33Z"/>
    <path class="cls-1" d="M60.52,14.57c.04.5.19.86.42,1.09.24.23.55.34.93.34.2,0,.36-.02.51-.07.14-.05.27-.1.38-.15.11-.06.21-.11.29-.15.09-.05.17-.07.26-.07.11,0,.2.04.26.12l.41.51c-.15.17-.32.32-.5.43-.18.12-.37.21-.57.27-.2.07-.39.11-.59.14-.2.03-.39.04-.58.04-.37,0-.72-.06-1.04-.18-.32-.12-.6-.3-.84-.54-.24-.24-.43-.53-.56-.89-.14-.35-.21-.76-.21-1.23,0-.36.06-.7.18-1.02.12-.32.29-.6.51-.83.22-.24.49-.42.81-.56.32-.14.68-.21,1.08-.21.34,0,.65.05.94.16.29.11.53.26.74.47.21.21.37.46.48.76s.17.64.17,1.03c0,.11,0,.19-.02.26-.01.07-.03.12-.05.16-.02.04-.06.07-.1.08-.04.02-.09.02-.16.02h-3.18ZM62.75,13.73c0-.15-.02-.29-.06-.42s-.1-.25-.19-.35c-.09-.1-.19-.18-.32-.24-.13-.06-.29-.09-.47-.09-.34,0-.61.1-.8.29s-.32.47-.38.82h2.21Z"/>
    <path class="cls-1" d="M71.98,9.34v7.67h-.87c-.18,0-.3-.08-.35-.25l-.12-.46c-.11.12-.22.22-.34.32-.12.1-.25.18-.38.25s-.28.12-.44.16-.33.06-.51.06c-.28,0-.55-.06-.78-.18-.24-.12-.44-.3-.62-.53-.17-.23-.31-.52-.4-.85-.1-.34-.14-.72-.14-1.15,0-.39.05-.76.16-1.1.11-.34.26-.63.46-.88.2-.25.44-.44.72-.58s.59-.21.94-.21c.29,0,.53.04.73.13.2.09.38.2.54.35v-2.74h1.42ZM70.56,13.08c-.13-.15-.28-.26-.43-.32-.16-.06-.32-.09-.5-.09s-.33.03-.47.1c-.14.07-.26.17-.36.31-.1.14-.18.32-.23.53-.06.22-.08.47-.08.77s.02.55.07.75c.04.21.11.37.19.5s.19.22.31.27.25.08.4.08c.25,0,.46-.05.63-.15.17-.1.33-.24.48-.42v-2.33Z"/>
    <path class="cls-1" d="M74.26,14.57c.04.5.19.86.42,1.09.24.23.55.34.93.34.2,0,.36-.02.51-.07.14-.05.27-.1.38-.15.11-.06.21-.11.29-.15.09-.05.17-.07.26-.07.11,0,.2.04.26.12l.41.51c-.15.17-.32.32-.5.43-.18.12-.37.21-.57.27-.2.07-.39.11-.59.14-.2.03-.39.04-.58.04-.37,0-.72-.06-1.04-.18-.32-.12-.6-.3-.84-.54-.24-.24-.43-.53-.56-.89-.14-.35-.21-.76-.21-1.23,0-.36.06-.7.18-1.02.12-.32.29-.6.51-.83.22-.24.49-.42.81-.56.32-.14.68-.21,1.08-.21.34,0,.65.05.94.16.29.11.53.26.74.47.21.21.37.46.48.76s.17.64.17,1.03c0,.11,0,.19-.02.26-.01.07-.03.12-.05.16-.02.04-.06.07-.1.08-.04.02-.09.02-.16.02h-3.18ZM76.49,13.73c0-.15-.02-.29-.06-.42s-.1-.25-.19-.35c-.09-.1-.19-.18-.32-.24-.13-.06-.29-.09-.47-.09-.34,0-.61.1-.8.29s-.32.47-.38.82h2.21Z"/>
    <path class="cls-1" d="M79,17.01v-4.29l-.41-.07c-.11-.02-.19-.06-.26-.11-.07-.05-.1-.13-.1-.24v-.57h.77v-.35c0-.3.05-.58.14-.82.09-.25.23-.45.4-.62.18-.17.39-.3.64-.39.25-.09.54-.14.86-.14.12,0,.24,0,.35.02.11.02.22.04.34.07l-.03.7c0,.11-.05.18-.14.21-.08.03-.18.05-.28.05-.14,0-.27.02-.39.05-.12.03-.21.08-.29.16-.08.07-.14.17-.18.3-.04.12-.06.28-.06.47v.31h1.32v.99h-1.27v4.29h-1.42Z"/>
    <path class="cls-1" d="M83.44,14.57c.04.5.19.86.42,1.09.24.23.55.34.93.34.2,0,.36-.02.51-.07.14-.05.27-.1.38-.15.11-.06.21-.11.29-.15.09-.05.17-.07.26-.07.11,0,.2.04.26.12l.41.51c-.15.17-.32.32-.5.43-.18.12-.37.21-.57.27-.2.07-.39.11-.59.14-.2.03-.39.04-.58.04-.37,0-.72-.06-1.04-.18-.32-.12-.6-.3-.84-.54-.24-.24-.43-.53-.56-.89-.14-.35-.21-.76-.21-1.23,0-.36.06-.7.18-1.02.12-.32.29-.6.51-.83.22-.24.49-.42.81-.56.32-.14.68-.21,1.08-.21.34,0,.65.05.94.16.29.11.53.26.74.47.21.21.37.46.48.76s.17.64.17,1.03c0,.11,0,.19-.02.26-.01.07-.03.12-.05.16-.02.04-.06.07-.1.08-.04.02-.09.02-.16.02h-3.18ZM85.67,13.73c0-.15-.02-.29-.06-.42s-.1-.25-.19-.35c-.09-.1-.19-.18-.32-.24-.13-.06-.29-.09-.47-.09-.34,0-.61.1-.8.29s-.32.47-.38.82h2.21Z"/>
    <path class="cls-1" d="M91.09,12.79c-.04.06-.08.1-.12.13-.04.03-.09.04-.16.04s-.14-.02-.21-.05c-.07-.03-.15-.07-.24-.11-.09-.04-.19-.08-.31-.11s-.25-.05-.4-.05c-.23,0-.41.05-.54.14-.13.09-.19.22-.19.37,0,.11.04.2.11.27s.17.13.29.19.25.1.4.15c.15.05.31.1.47.15.16.06.31.12.47.19.15.07.29.16.4.27.12.11.21.24.29.39.07.15.11.34.11.55,0,.26-.05.49-.14.71-.09.22-.23.41-.41.56-.18.16-.41.28-.68.37-.27.09-.58.13-.94.13-.18,0-.36-.02-.54-.05-.18-.03-.35-.08-.51-.14s-.31-.13-.45-.21c-.14-.08-.26-.16-.37-.26l.33-.53c.04-.06.08-.11.14-.14s.13-.05.22-.05.16.02.24.06c.07.04.15.09.24.14.09.05.19.1.32.14.12.04.27.06.46.06.14,0,.26-.02.36-.05.1-.03.18-.07.24-.13.06-.05.11-.11.14-.18s.04-.14.04-.21c0-.12-.04-.21-.11-.29s-.17-.14-.29-.19c-.12-.06-.25-.1-.41-.15s-.31-.09-.47-.15c-.16-.05-.32-.12-.47-.2-.15-.08-.29-.17-.41-.29-.12-.11-.21-.26-.29-.42s-.11-.37-.11-.61c0-.22.04-.43.13-.62.09-.2.21-.37.39-.52.17-.15.38-.27.64-.36.26-.09.55-.13.89-.13.38,0,.72.06,1.03.19s.56.28.76.48l-.32.5Z"/>
    <path class="cls-1" d="M92.2,12.44c.31-.28.66-.49,1.03-.63.38-.14.79-.21,1.22-.21.32,0,.6.05.85.15s.46.25.63.43c.17.18.31.4.4.66.09.25.14.53.14.83v3.33h-.65c-.13,0-.24-.02-.31-.06s-.13-.12-.17-.24l-.11-.34c-.13.12-.26.22-.39.31-.12.09-.25.16-.39.22s-.28.11-.43.14c-.15.03-.32.05-.51.05-.23,0-.45-.03-.64-.09-.19-.06-.36-.15-.5-.28-.14-.12-.25-.27-.32-.46-.08-.18-.11-.39-.11-.63,0-.2.05-.39.15-.59s.27-.37.51-.53c.24-.16.56-.29.97-.4.4-.1.91-.16,1.52-.18v-.27c0-.33-.07-.58-.21-.73-.14-.16-.34-.23-.61-.23-.2,0-.36.02-.49.07-.13.05-.24.1-.34.15-.1.05-.19.1-.28.15-.09.05-.19.07-.3.07-.1,0-.18-.02-.25-.07s-.12-.11-.17-.18l-.25-.45ZM95.09,14.79c-.35.02-.63.05-.86.09-.23.04-.41.1-.55.17-.14.07-.23.15-.29.23s-.08.18-.08.29c0,.21.06.35.17.44.12.09.28.13.48.13.24,0,.44-.04.61-.13.17-.08.35-.22.52-.39v-.82Z"/>
  </g>
  <g>
    <path class="cls-1" d="M204.53,13.26c0,.54-.09,1.04-.28,1.5-.19.46-.45.85-.79,1.19s-.75.6-1.23.78-1.01.28-1.59.28h-2.91v-7.5h2.91c.58,0,1.11.09,1.59.28.48.19.89.45,1.23.78s.6.73.79,1.19c.19.46.28.96.28,1.49ZM202.75,13.26c0-.37-.05-.71-.14-1-.1-.3-.23-.55-.41-.76-.18-.21-.4-.37-.66-.48s-.56-.17-.89-.17h-1.16v4.82h1.16c.33,0,.63-.06.89-.17s.48-.27.66-.48c.18-.21.32-.46.41-.76.1-.3.14-.63.14-1.01Z"/>
    <path class="cls-1" d="M206.68,14.63c.05.45.19.77.41.97s.5.3.85.3c.19,0,.34-.02.48-.07s.25-.09.36-.15c.1-.05.2-.1.29-.15.09-.04.18-.07.28-.07.13,0,.22.05.29.14l.46.57c-.16.19-.34.34-.53.46s-.39.21-.59.28c-.2.07-.4.11-.6.14-.2.03-.39.04-.57.04-.37,0-.72-.06-1.05-.18-.33-.12-.61-.3-.86-.54s-.44-.54-.58-.9c-.14-.36-.21-.77-.21-1.24,0-.36.06-.69.18-1.01.12-.32.3-.6.53-.84.23-.24.5-.43.83-.57s.69-.21,1.1-.21c.35,0,.68.05.97.16s.54.27.76.48c.21.21.38.47.49.77s.18.65.18,1.03c0,.12,0,.22-.02.29,0,.08-.03.14-.06.18s-.06.08-.11.09-.11.03-.18.03h-3.08ZM208.69,13.7c0-.13-.02-.25-.05-.37-.03-.12-.09-.23-.16-.32-.07-.09-.17-.17-.29-.23-.12-.06-.27-.09-.44-.09-.3,0-.54.09-.71.26-.17.17-.28.42-.34.75h1.99Z"/>
    <path class="cls-1" d="M214.31,12.84c-.04.07-.08.11-.13.14-.05.03-.11.04-.18.04s-.15-.02-.23-.05-.16-.07-.24-.11-.19-.07-.3-.11-.24-.05-.38-.05c-.2,0-.36.04-.46.12-.11.08-.16.18-.16.32,0,.1.04.18.11.25.07.07.16.12.28.17.12.05.25.1.4.14s.3.09.45.15c.15.06.31.12.45.19s.28.16.4.27c.12.11.21.24.28.39.07.15.11.34.11.56,0,.26-.05.51-.14.73-.1.22-.24.42-.43.58-.19.16-.42.29-.71.38-.28.09-.6.13-.96.13-.18,0-.36-.02-.54-.05s-.36-.08-.53-.14c-.17-.06-.33-.13-.47-.21-.14-.08-.27-.17-.37-.26l.37-.59c.04-.07.09-.12.16-.16s.14-.06.24-.06c.09,0,.18.02.25.06.07.04.15.09.24.13.09.05.19.09.3.13.11.04.26.06.43.06.12,0,.23-.01.31-.04.09-.03.15-.06.21-.11.05-.04.09-.09.11-.15.02-.06.04-.11.04-.17,0-.11-.04-.19-.11-.26-.07-.07-.17-.13-.28-.18-.12-.05-.25-.1-.4-.14s-.3-.09-.46-.15c-.15-.05-.31-.12-.46-.2-.15-.08-.28-.18-.4-.29s-.21-.26-.28-.43c-.07-.17-.11-.38-.11-.62,0-.23.04-.44.13-.65.09-.2.22-.38.39-.54s.39-.28.66-.37c.26-.09.57-.14.93-.14.19,0,.38.02.56.05.18.03.35.08.51.14.16.06.3.13.43.22.13.08.25.18.34.28l-.36.56Z"/>
    <path class="cls-1" d="M219.42,12.94c-.05.06-.09.1-.14.14-.04.03-.11.05-.19.05s-.15-.02-.21-.06c-.06-.04-.13-.08-.21-.13s-.17-.09-.28-.13-.24-.06-.4-.06c-.2,0-.36.04-.51.11-.14.07-.26.18-.35.31-.09.13-.16.3-.21.49-.04.19-.07.41-.07.66,0,.51.1.9.3,1.18s.47.41.82.41c.19,0,.33-.02.44-.07.11-.05.2-.1.27-.15.08-.06.15-.11.21-.16.06-.05.14-.07.24-.07.13,0,.22.05.29.14l.46.57c-.17.19-.34.34-.52.46s-.37.21-.56.28-.38.11-.57.14c-.19.03-.38.04-.56.04-.33,0-.64-.06-.93-.19s-.56-.3-.78-.54-.4-.52-.53-.87c-.13-.34-.2-.73-.2-1.17,0-.38.06-.74.17-1.08s.29-.62.51-.87.5-.44.83-.58.71-.21,1.15-.21.79.07,1.1.2c.32.13.6.33.85.59l-.42.56Z"/>
    <path class="cls-1" d="M222,12.5c.17-.29.35-.51.57-.68.21-.16.46-.25.74-.25.24,0,.44.06.59.17l-.1,1.17c-.02.08-.04.13-.08.15-.04.03-.09.04-.16.04-.03,0-.06,0-.11,0-.04,0-.09,0-.14-.01-.05,0-.1-.01-.15-.02-.05,0-.1,0-.14,0-.23,0-.42.06-.56.19-.14.12-.26.29-.35.51v3.24h-1.59v-5.34h.95c.08,0,.14,0,.2.02.05.01.1.04.13.06.04.03.06.07.08.12.02.05.04.11.05.17l.08.45Z"/>
    <path class="cls-1" d="M226.23,10.21c0,.13-.03.25-.08.36s-.12.21-.21.29c-.09.08-.19.15-.31.2-.12.05-.24.07-.38.07s-.25-.02-.37-.07c-.11-.05-.21-.12-.3-.2-.09-.08-.16-.18-.21-.29s-.08-.23-.08-.36.03-.25.08-.37c.05-.11.12-.21.21-.3.09-.09.19-.15.3-.2.11-.05.23-.07.37-.07s.26.02.38.07c.12.05.22.12.31.2.09.09.16.19.21.3.05.11.08.23.08.37ZM226.06,11.67v5.34h-1.59v-5.34h1.59Z"/>
    <path class="cls-1" d="M231.56,16.17c-.13.15-.27.28-.41.38s-.29.19-.44.26c-.15.07-.3.12-.45.16-.15.04-.3.07-.46.08l-.05.2c.16.04.3.09.41.14.11.05.19.12.26.18s.11.14.14.22c.03.08.04.16.04.25,0,.12-.03.23-.1.32-.07.1-.16.18-.28.25-.12.07-.26.12-.43.16-.17.04-.36.05-.56.05-.14,0-.27,0-.39-.02s-.24-.03-.37-.06l.14-.48c.02-.09.08-.14.17-.14.05,0,.1,0,.15.02.05.01.11.02.18.02.09,0,.15-.02.19-.05.04-.03.06-.06.06-.1,0-.08-.05-.13-.16-.16s-.28-.07-.53-.11l.24-.71c-.28-.05-.54-.15-.78-.29-.24-.14-.46-.33-.64-.56-.18-.23-.33-.5-.43-.82s-.16-.66-.16-1.05.06-.74.17-1.08.29-.62.51-.87.5-.44.83-.58.71-.21,1.15-.21.79.07,1.1.2c.32.13.6.33.85.59l-.42.56c-.05.06-.09.1-.14.14-.04.03-.11.05-.19.05s-.15-.02-.21-.06c-.06-.04-.13-.08-.21-.13s-.17-.09-.28-.13-.24-.06-.4-.06c-.2,0-.36.04-.51.11-.14.07-.26.18-.35.31-.09.13-.16.3-.21.49-.04.19-.07.41-.07.66,0,.51.1.9.3,1.18s.47.41.82.41c.19,0,.33-.02.44-.07.11-.05.2-.1.27-.15.08-.06.15-.11.21-.16.06-.05.14-.07.24-.07.13,0,.22.05.29.14l.46.57Z"/>
    <path class="cls-1" d="M232.08,12.41c.32-.28.68-.5,1.07-.64.39-.14.81-.21,1.26-.21.32,0,.61.05.87.16s.48.25.66.44c.18.19.32.41.41.67.1.26.14.54.14.84v3.33h-.73c-.15,0-.27-.02-.34-.06-.08-.04-.14-.13-.19-.26l-.11-.29c-.13.11-.26.21-.39.3-.12.09-.25.16-.38.22s-.27.1-.42.13c-.15.03-.31.04-.5.04-.24,0-.46-.03-.66-.1-.2-.06-.37-.16-.51-.28-.14-.12-.25-.28-.32-.46-.08-.18-.11-.4-.11-.64,0-.19.05-.39.14-.58.1-.2.26-.38.5-.54.24-.16.56-.3.96-.41s.91-.17,1.52-.19v-.23c0-.31-.06-.54-.19-.68-.13-.14-.31-.21-.55-.21-.19,0-.34.02-.46.06s-.23.09-.32.14c-.09.05-.19.1-.28.14-.09.04-.2.06-.32.06-.11,0-.2-.03-.28-.08-.08-.05-.14-.12-.19-.2l-.29-.5ZM234.82,9.87c.08,0,.15-.02.2-.06.05-.04.08-.13.08-.28h.97c0,.22-.03.41-.09.58-.06.17-.14.32-.25.44s-.23.22-.38.28c-.14.07-.3.1-.47.1-.13,0-.25-.02-.35-.06-.11-.04-.21-.08-.31-.13-.09-.05-.18-.09-.26-.13s-.15-.06-.2-.06c-.08,0-.15.02-.2.07-.05.05-.07.14-.07.28h-.98c0-.22.03-.41.09-.58.06-.17.15-.32.25-.44s.23-.22.38-.29c.14-.07.3-.1.46-.1.13,0,.25.02.36.06s.21.08.31.13c.09.05.18.09.25.13s.14.06.2.06ZM234.95,14.84c-.32.01-.58.04-.79.08-.21.04-.37.09-.49.15-.12.06-.2.13-.25.21-.05.08-.07.16-.07.26,0,.18.05.31.15.38s.25.11.44.11c.21,0,.39-.04.54-.11.15-.07.31-.19.47-.35v-.74Z"/>
    <path class="cls-1" d="M239.98,11.59c.4,0,.77.06,1.11.19.33.13.62.31.86.55.24.24.42.52.56.86.13.34.2.72.2,1.14s-.07.81-.2,1.15c-.13.34-.32.63-.56.87-.24.24-.52.42-.86.55-.33.13-.7.19-1.11.19s-.78-.06-1.11-.19c-.33-.13-.62-.31-.86-.55-.24-.24-.43-.53-.56-.87-.13-.34-.2-.72-.2-1.15s.07-.8.2-1.14c.13-.34.32-.62.56-.86.24-.24.53-.42.86-.55.33-.13.71-.19,1.11-.19ZM239.98,15.91c.37,0,.64-.13.81-.39.17-.26.26-.65.26-1.18s-.09-.92-.26-1.18c-.17-.26-.44-.39-.81-.39s-.65.13-.83.39c-.17.26-.26.65-.26,1.18s.09.92.26,1.18c.17.26.45.39.83.39Z"/>
  </g>
  <g>
    <path class="cls-4" d="M8.24,31.64c.45,0,.84.04,1.17.13.33.09.6.22.81.38s.37.37.47.6c.1.24.15.51.15.81,0,.18-.03.36-.08.52-.06.17-.14.32-.25.47s-.26.27-.43.39-.38.21-.61.28c.54.1.95.3,1.22.58.27.28.41.65.41,1.11,0,.31-.06.6-.17.85-.12.26-.28.48-.5.66-.22.19-.49.33-.82.43s-.69.15-1.1.15h-2.6v-7.37h2.35ZM6.88,32.42v2.52h1.32c.28,0,.53-.03.73-.09.21-.06.38-.15.51-.26.14-.11.24-.24.3-.4.06-.16.1-.33.1-.51,0-.44-.13-.75-.39-.95s-.67-.3-1.21-.3h-1.36ZM8.47,38.22c.28,0,.53-.03.74-.1.21-.06.38-.16.51-.28.13-.12.23-.26.29-.42.06-.16.09-.34.09-.54,0-.38-.14-.68-.41-.9-.27-.22-.68-.33-1.22-.33h-1.59v2.57h1.59Z"/>
    <path class="cls-4" d="M13.38,32.16c0,.09-.02.17-.05.25-.04.08-.08.15-.14.21s-.13.11-.21.14c-.08.03-.17.05-.25.05s-.17-.02-.25-.05c-.08-.03-.15-.08-.2-.14-.06-.06-.1-.13-.14-.21s-.05-.16-.05-.25.02-.17.05-.25.08-.15.14-.21c.06-.06.13-.11.2-.14s.16-.05.25-.05.17.02.25.05.15.08.21.14.11.13.14.21c.04.08.05.17.05.25ZM13.19,33.8v5.21h-.92v-5.21h.92Z"/>
    <path class="cls-4" d="M18.21,34.72s-.05.07-.08.09c-.03.02-.07.03-.11.03-.05,0-.11-.02-.17-.06-.06-.04-.14-.09-.23-.14-.09-.05-.2-.1-.33-.14-.13-.04-.29-.06-.49-.06-.26,0-.48.05-.68.14-.2.09-.36.22-.49.39-.13.17-.23.38-.3.62-.07.24-.1.52-.1.82s.04.6.11.84c.07.25.17.45.31.62s.29.29.48.38.4.13.63.13.41-.03.55-.08.26-.11.36-.18c.09-.07.17-.12.24-.18s.13-.08.19-.08c.08,0,.13.03.17.09l.26.33c-.11.14-.24.26-.39.36-.14.1-.3.18-.47.25s-.34.12-.52.15c-.18.03-.37.05-.56.05-.33,0-.63-.06-.91-.18-.28-.12-.52-.29-.73-.52-.21-.23-.37-.51-.48-.84-.12-.33-.17-.71-.17-1.14,0-.39.05-.75.16-1.08.11-.33.27-.61.47-.85s.46-.42.77-.56c.3-.13.65-.2,1.05-.2.37,0,.69.06.97.18.28.12.53.29.74.5l-.24.33Z"/>
  </g>
  <g>
    <path class="cls-4" d="M19.46,34.53c.29-.28.6-.49.93-.62.33-.14.7-.21,1.11-.21.29,0,.55.05.78.14.23.1.42.23.57.4.15.17.27.38.35.62.08.24.12.51.12.8v3.33h-.41c-.09,0-.16-.01-.21-.04-.05-.03-.09-.09-.11-.17l-.1-.49c-.14.13-.27.24-.4.34-.13.1-.27.18-.41.25s-.3.12-.46.15c-.16.04-.34.05-.54.05s-.39-.03-.57-.08c-.18-.06-.33-.14-.47-.25-.13-.11-.24-.26-.31-.43-.08-.17-.12-.38-.12-.61,0-.21.06-.4.17-.59.11-.19.3-.36.55-.51s.58-.27.99-.36c.41-.09.91-.15,1.5-.16v-.41c0-.4-.09-.71-.26-.92s-.43-.31-.77-.31c-.23,0-.42.03-.57.08-.15.06-.28.12-.4.19-.11.07-.21.13-.29.19s-.16.08-.24.08c-.06,0-.11-.02-.16-.05-.04-.03-.08-.07-.11-.12l-.16-.29ZM22.42,36.66c-.42.01-.78.05-1.08.1s-.54.12-.73.21c-.19.09-.32.19-.41.3s-.13.25-.13.39.02.26.07.35c.04.1.11.18.18.24.08.06.17.11.27.14s.22.04.34.04c.16,0,.31-.02.44-.05.13-.03.26-.08.38-.14.12-.06.23-.14.34-.22.11-.09.21-.18.32-.29v-1.08Z"/>
    <path class="cls-4" d="M25.58,34.84c.17-.36.37-.64.61-.84.24-.2.53-.3.88-.3.11,0,.21.01.32.04.1.02.19.06.27.11l-.07.68c-.02.09-.07.13-.15.13-.05,0-.12-.01-.21-.03-.09-.02-.2-.03-.31-.03-.16,0-.31.02-.44.07-.13.05-.24.12-.34.21s-.19.21-.27.35c-.08.14-.15.3-.22.48v3.29h-.92v-5.21h.52c.1,0,.17.02.21.06s.06.1.08.2l.06.79Z"/>
    <path class="cls-4" d="M29.37,34.55c.22-.25.47-.46.74-.61.28-.15.59-.23.95-.23.31,0,.58.06.83.18s.45.29.62.51c.17.22.3.49.39.81.09.32.14.67.14,1.06,0,.42-.05.81-.15,1.15-.1.35-.25.64-.45.89s-.43.44-.71.57c-.28.14-.59.2-.94.2s-.63-.06-.87-.19c-.23-.13-.44-.31-.61-.55l-.05.47c-.03.13-.11.2-.24.2h-.59v-7.58h.92v3.12ZM29.37,37.75c.17.23.35.39.55.48.2.09.42.14.66.14.49,0,.87-.17,1.13-.52.26-.35.39-.86.39-1.55,0-.64-.12-1.11-.35-1.41-.23-.3-.56-.45-.99-.45-.3,0-.56.07-.78.21s-.43.33-.61.58v2.52Z"/>
    <path class="cls-4" d="M36.41,33.71c.38,0,.72.06,1.03.19.31.13.57.31.78.54s.38.52.5.85c.11.33.17.7.17,1.11s-.06.78-.17,1.11c-.12.33-.28.61-.5.84s-.48.41-.78.54c-.31.12-.65.19-1.03.19s-.73-.06-1.04-.19c-.31-.12-.57-.3-.78-.54-.22-.23-.38-.51-.5-.84-.11-.33-.17-.7-.17-1.11s.06-.78.17-1.11.28-.61.5-.85c.22-.23.48-.41.78-.54.31-.13.65-.19,1.04-.19ZM36.41,38.36c.51,0,.9-.17,1.15-.52s.38-.83.38-1.44-.13-1.1-.38-1.45c-.25-.35-.64-.52-1.15-.52-.26,0-.49.04-.68.13-.19.09-.35.22-.48.39-.13.17-.22.37-.29.62-.06.25-.1.52-.1.83,0,.62.13,1.1.38,1.44.26.34.64.52,1.17.52Z"/>
    <path class="cls-4" d="M40.91,34.55c.11-.13.23-.24.36-.34.13-.1.26-.19.4-.27.14-.07.29-.13.45-.17.16-.04.33-.06.52-.06.28,0,.54.05.75.14.22.09.4.23.54.4.15.17.26.38.33.62.08.24.11.51.11.81v3.32h-.92v-3.32c0-.39-.09-.7-.27-.92-.18-.22-.45-.33-.82-.33-.27,0-.52.06-.76.2s-.45.31-.65.53v3.84h-.92v-5.21h.55c.13,0,.21.06.24.19l.07.57Z"/>
    <path class="cls-4" d="M45.66,34.53c.29-.28.6-.49.93-.62.33-.14.7-.21,1.11-.21.29,0,.55.05.78.14.23.1.42.23.57.4.15.17.27.38.35.62.08.24.12.51.12.8v3.33h-.41c-.09,0-.16-.01-.21-.04-.05-.03-.09-.09-.11-.17l-.1-.49c-.14.13-.27.24-.4.34-.13.1-.27.18-.41.25s-.3.12-.46.15c-.16.04-.34.05-.54.05s-.39-.03-.57-.08c-.18-.06-.33-.14-.47-.25-.13-.11-.24-.26-.31-.43-.08-.17-.12-.38-.12-.61,0-.21.06-.4.17-.59.11-.19.3-.36.55-.51s.58-.27.99-.36c.41-.09.91-.15,1.5-.16v-.41c0-.4-.09-.71-.26-.92s-.43-.31-.77-.31c-.23,0-.42.03-.57.08-.15.06-.28.12-.4.19-.11.07-.21.13-.29.19s-.16.08-.24.08c-.06,0-.11-.02-.16-.05-.04-.03-.08-.07-.11-.12l-.16-.29ZM48.62,36.66c-.42.01-.78.05-1.08.1s-.54.12-.73.21c-.19.09-.32.19-.41.3s-.13.25-.13.39.02.26.07.35c.04.1.11.18.18.24.08.06.17.11.27.14s.22.04.34.04c.16,0,.31-.02.44-.05.13-.03.26-.08.38-.14.12-.06.23-.14.34-.22.11-.09.21-.18.32-.29v-1.08Z"/>
    <path class="cls-4" d="M52.5,39.09c-.41,0-.73-.12-.95-.34-.22-.23-.33-.56-.33-.99v-3.19h-.63c-.05,0-.1-.02-.14-.05s-.06-.08-.06-.15v-.37l.85-.11.21-1.61c.01-.05.03-.09.07-.13.04-.03.08-.05.14-.05h.46v1.8h1.51v.66h-1.51v3.13c0,.22.05.38.16.49.11.11.24.16.41.16.1,0,.18-.01.25-.04s.13-.05.18-.08c.05-.03.1-.06.13-.08.04-.03.07-.04.1-.04.05,0,.09.03.13.09l.27.44c-.16.15-.35.26-.57.35-.22.08-.45.13-.69.13Z"/>
    <path class="cls-4" d="M56.79,33.71c.38,0,.72.06,1.03.19.31.13.57.31.78.54s.38.52.5.85c.11.33.17.7.17,1.11s-.06.78-.17,1.11c-.12.33-.28.61-.5.84s-.48.41-.78.54c-.31.12-.65.19-1.03.19s-.73-.06-1.04-.19c-.31-.12-.57-.3-.78-.54-.22-.23-.38-.51-.5-.84-.11-.33-.17-.7-.17-1.11s.06-.78.17-1.11.28-.61.5-.85c.22-.23.48-.41.78-.54.31-.13.65-.19,1.04-.19ZM56.79,38.36c.51,0,.9-.17,1.15-.52s.38-.83.38-1.44-.13-1.1-.38-1.45c-.25-.35-.64-.52-1.15-.52-.26,0-.49.04-.68.13-.19.09-.35.22-.48.39-.13.17-.22.37-.29.62-.06.25-.1.52-.1.83,0,.62.13,1.1.38,1.44.26.34.64.52,1.17.52Z"/>
  </g>
  <g>
    <path class="cls-4" d="M121.51,39.01h-.77c-.09,0-.16-.02-.22-.07-.06-.04-.1-.1-.12-.17l-.69-1.78h-3.31l-.69,1.78c-.02.06-.06.12-.12.16-.06.05-.13.07-.22.07h-.77l2.95-7.37h1.01l2.95,7.37ZM119.44,36.27l-1.16-3c-.03-.09-.07-.19-.11-.31-.04-.12-.07-.24-.11-.38-.07.28-.15.51-.22.69l-1.16,2.99h2.75ZM120.01,29.48l-1.68,1.47c-.05.05-.1.08-.15.09-.05.01-.11.02-.17.02h-.66l1.19-1.41c.06-.08.12-.12.18-.14s.15-.03.26-.03h1.03Z"/>
    <path class="cls-4" d="M125.75,34.72s-.05.07-.08.09c-.03.02-.07.03-.11.03-.05,0-.11-.02-.17-.06-.06-.04-.14-.09-.23-.14-.09-.05-.2-.1-.33-.14-.13-.04-.29-.06-.49-.06-.26,0-.48.05-.68.14-.2.09-.36.22-.49.39-.13.17-.23.38-.3.62-.07.24-.1.52-.1.82s.04.6.11.84c.07.25.17.45.31.62s.29.29.48.38.4.13.63.13.41-.03.55-.08.26-.11.36-.18c.09-.07.17-.12.24-.18s.13-.08.19-.08c.08,0,.13.03.17.09l.26.33c-.11.14-.24.26-.39.36-.14.1-.3.18-.47.25s-.34.12-.52.15c-.18.03-.37.05-.56.05-.33,0-.63-.06-.91-.18-.28-.12-.52-.29-.73-.52-.21-.23-.37-.51-.48-.84-.12-.33-.17-.71-.17-1.14,0-.39.05-.75.16-1.08.11-.33.27-.61.47-.85s.46-.42.77-.56c.3-.13.65-.2,1.05-.2.37,0,.69.06.97.18.28.12.53.29.74.5l-.24.33Z"/>
  </g>
  <g>
    <path class="cls-4" d="M128.2,32.16c0,.09-.02.17-.05.25-.04.08-.08.15-.14.21s-.13.11-.21.14c-.08.03-.17.05-.25.05s-.17-.02-.25-.05c-.08-.03-.15-.08-.2-.14-.06-.06-.1-.13-.14-.21s-.05-.16-.05-.25.02-.17.05-.25.08-.15.14-.21c.06-.06.13-.11.2-.14s.16-.05.25-.05.17.02.25.05.15.08.21.14.11.13.14.21c.04.08.05.17.05.25ZM128.01,33.8v5.21h-.92v-5.21h.92Z"/>
    <path class="cls-4" d="M133.82,31.43v7.58h-.55c-.13,0-.21-.06-.25-.19l-.08-.63c-.22.27-.48.48-.76.65s-.61.25-.99.25c-.3,0-.57-.06-.81-.17-.24-.12-.45-.28-.62-.51-.17-.22-.3-.5-.4-.83-.09-.33-.14-.72-.14-1.15,0-.38.05-.74.15-1.07.1-.33.25-.62.44-.86.19-.24.43-.43.71-.57.28-.14.59-.21.94-.21.32,0,.59.05.82.16.23.11.43.26.61.45v-2.89h.92ZM132.9,35.04c-.17-.23-.36-.39-.56-.48s-.42-.14-.67-.14c-.48,0-.86.17-1.12.52-.26.35-.39.84-.39,1.48,0,.34.03.63.09.87s.14.44.26.6c.11.16.25.27.42.34.17.07.35.11.56.11.3,0,.56-.07.79-.21s.43-.33.62-.58v-2.52Z"/>
    <path class="cls-4" d="M137.47,33.71c.38,0,.72.06,1.03.19.31.13.57.31.78.54s.38.52.5.85c.12.33.17.7.17,1.11s-.06.78-.17,1.11c-.11.33-.28.61-.5.84s-.48.41-.78.54c-.3.12-.65.19-1.03.19s-.73-.06-1.04-.19-.57-.3-.79-.54c-.22-.23-.38-.51-.5-.84-.12-.33-.17-.7-.17-1.11s.06-.78.17-1.11.28-.61.5-.85c.22-.23.48-.41.79-.54.31-.13.65-.19,1.04-.19ZM137.47,38.36c.51,0,.9-.17,1.15-.52s.38-.83.38-1.44-.13-1.1-.38-1.45c-.25-.35-.64-.52-1.15-.52-.26,0-.49.04-.68.13-.19.09-.35.22-.48.39s-.22.37-.29.62c-.06.25-.09.52-.09.83,0,.62.13,1.1.38,1.44s.64.52,1.17.52Z"/>
    <path class="cls-4" d="M147.37,34.72s-.05.07-.08.09-.07.03-.11.03c-.05,0-.11-.02-.17-.06-.06-.04-.14-.09-.23-.14-.09-.05-.2-.1-.33-.14s-.29-.06-.49-.06c-.26,0-.48.05-.68.14-.2.09-.36.22-.49.39-.13.17-.23.38-.3.62-.07.24-.1.52-.1.82s.04.6.11.84c.07.25.17.45.31.62.13.17.29.29.48.38.19.09.4.13.63.13s.41-.03.55-.08c.14-.05.26-.11.36-.18.09-.07.17-.12.24-.18s.13-.08.19-.08c.08,0,.13.03.18.09l.26.33c-.11.14-.24.26-.39.36-.14.1-.3.18-.47.25s-.34.12-.52.15c-.18.03-.37.05-.56.05-.33,0-.63-.06-.91-.18-.28-.12-.52-.29-.73-.52s-.37-.51-.48-.84c-.12-.33-.17-.71-.17-1.14,0-.39.05-.75.16-1.08.11-.33.27-.61.47-.85.21-.24.46-.42.77-.56s.65-.2,1.05-.2c.37,0,.69.06.97.18.28.12.53.29.74.5l-.24.33Z"/>
    <path class="cls-4" d="M149.6,31.43v7.58h-.92v-7.58h.92Z"/>
    <path class="cls-4" d="M153.28,33.71c.38,0,.72.06,1.03.19.31.13.57.31.78.54s.38.52.5.85c.12.33.17.7.17,1.11s-.06.78-.17,1.11c-.11.33-.28.61-.5.84s-.48.41-.78.54c-.3.12-.65.19-1.03.19s-.73-.06-1.04-.19-.57-.3-.79-.54c-.22-.23-.38-.51-.5-.84-.12-.33-.17-.7-.17-1.11s.06-.78.17-1.11.28-.61.5-.85c.22-.23.48-.41.79-.54.31-.13.65-.19,1.04-.19ZM153.28,38.36c.51,0,.9-.17,1.15-.52s.38-.83.38-1.44-.13-1.1-.38-1.45c-.25-.35-.64-.52-1.15-.52-.26,0-.49.04-.68.13-.19.09-.35.22-.48.39s-.22.37-.29.62c-.06.25-.09.52-.09.83,0,.62.13,1.1.38,1.44s.64.52,1.17.52Z"/>
    <path class="cls-4" d="M157.78,34.84c.17-.36.37-.64.61-.84s.53-.3.88-.3c.11,0,.21.01.32.04.1.02.19.06.27.11l-.07.68c-.02.09-.07.13-.15.13-.05,0-.12-.01-.21-.03-.09-.02-.2-.03-.31-.03-.16,0-.31.02-.44.07s-.24.12-.34.21-.19.21-.27.35c-.08.14-.15.3-.22.48v3.29h-.92v-5.21h.52c.1,0,.17.02.21.06s.06.1.08.2l.06.79Z"/>
    <path class="cls-4" d="M162.69,31.55l-1.2,1.33c-.05.05-.09.09-.14.11-.05.02-.11.03-.18.03h-.55l.76-1.25c.05-.08.1-.14.16-.17.06-.04.14-.05.25-.05h.9ZM161.63,33.8v5.21h-.92v-5.21h.92Z"/>
    <path class="cls-4" d="M167.44,31.43v7.58h-.55c-.13,0-.21-.06-.25-.19l-.08-.63c-.22.27-.48.48-.76.65-.28.16-.61.25-.99.25-.3,0-.57-.06-.81-.17-.24-.12-.45-.28-.62-.51-.17-.22-.3-.5-.4-.83-.09-.33-.14-.72-.14-1.15,0-.38.05-.74.15-1.07.1-.33.25-.62.44-.86s.43-.43.71-.57c.28-.14.59-.21.94-.21.32,0,.59.05.82.16.23.11.43.26.61.45v-2.89h.92ZM166.53,35.04c-.17-.23-.36-.39-.56-.48s-.42-.14-.67-.14c-.48,0-.86.17-1.12.52-.26.35-.39.84-.39,1.48,0,.34.03.63.09.87s.14.44.26.6c.11.16.25.27.42.34.17.07.35.11.56.11.3,0,.57-.07.79-.21s.43-.33.62-.58v-2.52Z"/>
    <path class="cls-4" d="M169.76,34.84c.17-.36.37-.64.61-.84s.53-.3.88-.3c.11,0,.21.01.32.04.1.02.19.06.27.11l-.07.68c-.02.09-.07.13-.15.13-.05,0-.12-.01-.21-.03-.09-.02-.2-.03-.31-.03-.16,0-.31.02-.44.07s-.24.12-.34.21-.19.21-.27.35c-.08.14-.15.3-.22.48v3.29h-.92v-5.21h.52c.1,0,.17.02.21.06s.06.1.08.2l.06.79Z"/>
    <path class="cls-4" d="M173.8,32.16c0,.09-.02.17-.05.25s-.08.15-.14.21c-.06.06-.13.11-.21.14-.08.03-.17.05-.25.05s-.17-.02-.25-.05c-.08-.03-.14-.08-.2-.14-.06-.06-.1-.13-.14-.21s-.05-.16-.05-.25.02-.17.05-.25.08-.15.14-.21c.06-.06.13-.11.2-.14s.16-.05.25-.05.17.02.25.05c.08.03.15.08.21.14.06.06.11.13.14.21s.05.17.05.25ZM173.6,33.8v5.21h-.92v-5.21h.92Z"/>
    <path class="cls-4" d="M178.73,34.72s-.05.07-.08.09-.07.03-.11.03c-.05,0-.11-.02-.17-.06-.06-.04-.14-.09-.23-.14-.09-.05-.2-.1-.33-.14s-.29-.06-.49-.06c-.26,0-.48.05-.68.14-.2.09-.36.22-.49.39-.13.17-.23.38-.3.62-.07.24-.1.52-.1.82s.04.6.11.84c.07.25.17.45.31.62.13.17.29.29.48.38.19.09.4.13.63.13s.41-.03.55-.08c.14-.05.26-.11.36-.18.09-.07.17-.12.24-.18s.13-.08.19-.08c.08,0,.13.03.18.09l.26.33c-.11.14-.24.26-.39.36-.14.1-.3.18-.47.25s-.34.12-.52.15c-.18.03-.37.05-.56.05-.33,0-.63-.06-.91-.18-.28-.12-.52-.29-.73-.52s-.37-.51-.48-.84c-.12-.33-.17-.71-.17-1.14,0-.39.05-.75.16-1.08.11-.33.27-.61.47-.85.21-.24.46-.42.77-.56s.65-.2,1.05-.2c.37,0,.69.06.97.18.28.12.53.29.74.5l-.24.33Z"/>
  </g>
  <path class="cls-4" d="M182.12,33.71c.38,0,.72.06,1.03.19.31.13.57.31.78.54s.38.52.5.85c.12.33.17.7.17,1.11s-.06.78-.17,1.11c-.11.33-.28.61-.5.84s-.48.41-.78.54c-.3.12-.65.19-1.03.19s-.73-.06-1.04-.19-.57-.3-.79-.54c-.22-.23-.38-.51-.5-.84-.12-.33-.17-.7-.17-1.11s.06-.78.17-1.11.28-.61.5-.85c.22-.23.48-.41.79-.54.31-.13.65-.19,1.04-.19ZM182.12,38.36c.51,0,.9-.17,1.15-.52s.38-.83.38-1.44-.13-1.1-.38-1.45c-.25-.35-.64-.52-1.15-.52-.26,0-.49.04-.68.13-.19.09-.35.22-.48.39s-.22.37-.29.62c-.06.25-.09.52-.09.83,0,.62.13,1.1.38,1.44s.64.52,1.17.52Z"/>
  <g>
    <path class="cls-4" d="M13.56,53.64v7.37h-.87v-5.42c0-.07,0-.15,0-.23,0-.08.01-.17.02-.25l-2.53,4.61c-.08.15-.2.23-.36.23h-.14c-.16,0-.28-.08-.36-.23l-2.58-4.63c.02.18.03.35.03.5v5.42h-.88v-7.37h.74c.09,0,.16,0,.21.03.05.02.09.07.14.14l2.55,4.54c.04.08.08.17.12.26.04.09.08.18.11.27.03-.09.07-.18.11-.28.04-.09.08-.18.12-.26l2.5-4.53c.04-.08.09-.13.14-.14s.12-.03.21-.03h.74Z"/>
    <path class="cls-4" d="M19.51,55.8v5.21h-.55c-.13,0-.21-.06-.25-.19l-.07-.56c-.23.25-.48.45-.76.6-.28.15-.6.23-.97.23-.28,0-.54-.05-.75-.14s-.4-.23-.55-.4c-.15-.17-.26-.38-.33-.62-.07-.24-.11-.51-.11-.81v-3.32h.92v3.32c0,.39.09.7.27.92.18.22.46.32.83.32.27,0,.52-.06.76-.19.24-.13.45-.31.65-.53v-3.84h.92Z"/>
    <path class="cls-4" d="M24.59,56.72s-.05.07-.08.09c-.03.02-.07.03-.11.03-.05,0-.11-.02-.17-.06-.06-.04-.14-.09-.23-.14-.09-.05-.2-.1-.33-.14-.13-.04-.29-.06-.49-.06-.26,0-.48.05-.68.14-.2.09-.36.22-.49.39-.13.17-.23.38-.3.62-.07.24-.1.52-.1.82s.04.6.11.84c.07.25.17.45.31.62s.29.29.48.38.4.13.63.13.41-.03.55-.08.26-.11.36-.18c.09-.07.17-.12.24-.18s.13-.08.19-.08c.08,0,.13.03.17.09l.26.33c-.11.14-.24.26-.39.36-.14.1-.3.18-.47.25s-.34.12-.52.15c-.18.03-.37.05-.56.05-.33,0-.63-.06-.91-.18-.28-.12-.52-.29-.73-.52-.21-.23-.37-.51-.48-.84-.12-.33-.17-.71-.17-1.14,0-.39.05-.75.16-1.08.11-.33.27-.61.47-.85s.46-.42.77-.56c.3-.13.65-.2,1.05-.2.37,0,.69.06.97.18.28.12.53.29.74.5l-.24.33Z"/>
    <path class="cls-4" d="M27.04,54.16c0,.09-.02.17-.05.25-.04.08-.08.15-.14.21s-.13.11-.21.14c-.08.03-.17.05-.25.05s-.17-.02-.25-.05c-.08-.03-.15-.08-.2-.14-.06-.06-.1-.13-.14-.21s-.05-.16-.05-.25.02-.17.05-.25.08-.15.14-.21c.06-.06.13-.11.2-.14s.16-.05.25-.05.17.02.25.05.15.08.21.14.11.13.14.21c.04.08.05.17.05.25ZM26.84,55.8v5.21h-.92v-5.21h.92Z"/>
    <path class="cls-4" d="M29.21,56.55c.11-.13.23-.24.36-.34.13-.1.26-.19.4-.27.14-.07.29-.13.45-.17.16-.04.33-.06.52-.06.28,0,.54.05.75.14.22.09.4.23.54.4.15.17.26.38.33.62.08.24.11.51.11.81v3.32h-.92v-3.32c0-.39-.09-.7-.27-.92-.18-.22-.45-.33-.82-.33-.27,0-.52.06-.76.2s-.45.31-.65.53v3.84h-.92v-5.21h.55c.13,0,.21.06.24.19l.07.57Z"/>
    <path class="cls-4" d="M33.95,56.53c.29-.28.6-.49.93-.62.33-.14.7-.21,1.11-.21.29,0,.55.05.78.14.23.1.42.23.57.4.15.17.27.38.35.62.08.24.12.51.12.8v3.33h-.41c-.09,0-.16-.01-.21-.04-.05-.03-.09-.09-.11-.17l-.1-.49c-.14.13-.27.24-.4.34-.13.1-.27.18-.41.25s-.3.12-.46.15c-.16.04-.34.05-.54.05s-.39-.03-.57-.08c-.18-.06-.33-.14-.47-.25-.13-.11-.24-.26-.31-.43-.08-.17-.12-.38-.12-.61,0-.21.06-.4.17-.59.11-.19.3-.36.55-.51s.58-.27.99-.36c.41-.09.91-.15,1.5-.16v-.41c0-.4-.09-.71-.26-.92s-.43-.31-.77-.31c-.23,0-.42.03-.57.08-.15.06-.28.12-.4.19-.11.07-.21.13-.29.19s-.16.08-.24.08c-.06,0-.11-.02-.16-.05-.04-.03-.08-.07-.11-.12l-.16-.29ZM36.91,58.66c-.42.01-.78.05-1.08.1s-.54.12-.73.21c-.19.09-.32.19-.41.3s-.13.25-.13.39.02.26.07.35c.04.1.11.18.18.24.08.06.17.11.27.14s.22.04.34.04c.16,0,.31-.02.44-.05.13-.03.26-.08.38-.14.12-.06.23-.14.34-.22.11-.09.21-.18.32-.29v-1.08Z"/>
  </g>
  <g>
    <path class="cls-4" d="M117.7,53.64c.47,0,.87.05,1.22.16.34.11.63.26.86.46.23.2.4.44.51.72.11.28.17.6.17.94s-.06.66-.18.94-.3.53-.53.74-.52.37-.86.48c-.34.12-.74.17-1.18.17h-1.18v2.76h-.99v-7.37h2.18ZM117.7,57.46c.28,0,.54-.04.75-.11.22-.08.4-.18.55-.32.15-.14.26-.3.34-.49.08-.19.11-.4.11-.62,0-.47-.15-.84-.44-1.1s-.73-.4-1.32-.4h-1.18v3.04h1.18Z"/>
    <path class="cls-4" d="M125.44,60.28c-.11.14-.25.26-.41.36-.16.1-.33.18-.51.25-.18.07-.37.11-.56.15-.19.03-.38.05-.57.05-.36,0-.69-.06-1-.18-.3-.12-.57-.3-.79-.53s-.39-.53-.52-.87c-.12-.35-.19-.74-.19-1.19,0-.36.06-.7.17-1.02.11-.32.27-.59.48-.82.21-.23.46-.41.77-.55.3-.13.64-.2,1.02-.2.31,0,.6.05.87.16s.5.26.69.45.35.44.46.73c.11.29.16.62.16.99,0,.14-.02.24-.05.29-.03.05-.09.07-.17.07h-3.48c.01.33.06.62.14.86s.19.45.34.61c.14.16.32.28.51.37s.42.12.67.12c.23,0,.43-.03.59-.08s.31-.11.43-.17.22-.12.3-.17.15-.08.21-.08c.08,0,.13.03.17.09l.26.33ZM124.7,57.83c0-.21-.03-.41-.09-.58s-.15-.33-.26-.46-.25-.23-.42-.3-.35-.11-.56-.11c-.44,0-.79.13-1.04.38s-.41.61-.48,1.06h2.85Z"/>
  </g>
  <g>
    <path class="cls-4" d="M127.51,56.6c.22-.27.47-.49.76-.65.29-.16.62-.25.99-.25.3,0,.57.06.82.17.24.12.45.29.62.51s.3.5.4.84c.09.33.14.71.14,1.15,0,.38-.05.74-.15,1.07-.1.33-.25.62-.45.86s-.43.43-.71.57c-.28.14-.59.21-.94.21-.32,0-.59-.05-.82-.16-.23-.11-.43-.26-.6-.45v2.3h-.92v-6.98h.55c.13,0,.21.06.24.19l.08.62ZM127.56,59.75c.17.23.35.39.55.48.2.09.42.14.67.14.49,0,.86-.17,1.12-.52.26-.35.39-.84.39-1.48,0-.34-.03-.63-.09-.88-.06-.24-.15-.44-.26-.6-.11-.16-.25-.27-.42-.34s-.35-.11-.56-.11c-.3,0-.56.07-.78.21-.23.14-.43.33-.62.58v2.52Z"/>
    <path class="cls-4" d="M135.44,56.66c-.04.08-.1.11-.19.11-.05,0-.11-.02-.17-.06-.07-.04-.14-.08-.24-.13-.09-.05-.21-.09-.34-.13-.13-.04-.28-.06-.46-.06-.15,0-.29.02-.42.06-.12.04-.23.09-.32.16-.09.07-.15.15-.2.24-.04.09-.07.19-.07.3,0,.13.04.25.12.33.08.09.18.17.31.23s.27.12.43.17.33.1.5.16c.17.06.33.12.5.19.16.07.31.15.43.26.13.1.23.23.31.38.08.15.12.33.12.54,0,.24-.04.46-.13.67s-.21.38-.38.53c-.17.15-.37.27-.62.35-.24.09-.53.13-.84.13-.36,0-.69-.06-.99-.18s-.55-.27-.75-.46l.22-.35s.06-.08.1-.1c.04-.02.09-.04.14-.04.06,0,.13.02.2.07.07.05.15.1.25.16.1.06.22.11.36.16.14.05.32.07.52.07.18,0,.33-.02.47-.07.13-.05.25-.11.33-.19.09-.08.16-.17.2-.27.04-.1.06-.21.06-.33,0-.14-.04-.26-.12-.36s-.18-.17-.31-.24-.27-.13-.43-.18c-.16-.05-.33-.1-.5-.16-.17-.05-.34-.12-.5-.19-.16-.07-.31-.16-.43-.26-.13-.11-.23-.24-.31-.39-.08-.16-.12-.35-.12-.57,0-.2.04-.39.12-.57.08-.18.2-.34.36-.48.16-.14.35-.25.58-.33.23-.08.49-.12.79-.12.34,0,.65.05.92.16.27.11.51.26.71.45l-.21.33Z"/>
    <path class="cls-4" d="M138.03,54.16c0,.09-.02.17-.05.25s-.08.15-.14.21c-.06.06-.13.11-.21.14-.08.03-.17.05-.25.05s-.17-.02-.25-.05c-.08-.03-.14-.08-.2-.14-.06-.06-.1-.13-.14-.21s-.05-.16-.05-.25.02-.17.05-.25.08-.15.14-.21c.06-.06.13-.11.2-.14s.16-.05.25-.05.17.02.25.05c.08.03.15.08.21.14.06.06.11.13.14.21s.05.17.05.25ZM137.83,55.8v5.21h-.92v-5.21h.92Z"/>
    <path class="cls-4" d="M140.2,56.55c.11-.13.23-.24.36-.34s.26-.19.4-.27c.14-.07.29-.13.45-.17.16-.04.33-.06.52-.06.29,0,.54.05.75.14.22.09.4.23.55.4.15.17.26.38.33.62.08.24.11.51.11.81v3.32h-.92v-3.32c0-.39-.09-.7-.27-.92-.18-.22-.45-.33-.82-.33-.27,0-.52.06-.76.2-.23.13-.45.31-.65.53v3.84h-.92v-5.21h.55c.13,0,.21.06.24.19l.07.57Z"/>
    <path class="cls-4" d="M144.94,56.53c.29-.28.6-.49.93-.62.33-.14.7-.21,1.11-.21.29,0,.55.05.78.14.23.1.42.23.57.4.15.17.27.38.35.62.08.24.12.51.12.8v3.33h-.41c-.09,0-.16-.01-.21-.04-.05-.03-.09-.09-.11-.17l-.1-.49c-.14.13-.27.24-.4.34-.13.1-.27.18-.41.25-.14.07-.3.12-.46.15s-.34.05-.54.05-.39-.03-.57-.08-.33-.14-.47-.25c-.13-.11-.24-.26-.31-.43-.08-.17-.12-.38-.12-.61,0-.21.06-.4.17-.59s.3-.36.55-.51.58-.27.99-.36c.41-.09.91-.15,1.5-.16v-.41c0-.4-.09-.71-.26-.92-.18-.21-.43-.31-.77-.31-.23,0-.42.03-.57.08-.15.06-.28.12-.4.19-.11.07-.21.13-.29.19-.08.06-.16.08-.24.08-.06,0-.12-.02-.16-.05-.04-.03-.08-.07-.11-.12l-.16-.29ZM147.9,58.66c-.42.01-.78.05-1.08.1-.3.05-.54.12-.73.21-.19.09-.32.19-.41.3s-.13.25-.13.39.02.26.07.35c.04.1.11.18.18.24.08.06.17.11.27.14s.22.04.34.04c.16,0,.31-.02.44-.05.13-.03.26-.08.38-.14.12-.06.23-.14.34-.22.11-.09.21-.18.32-.29v-1.08Z"/>
  </g>
  <g>
    <path class="cls-4" d="M8.06,75.64c.47,0,.87.05,1.22.16.34.11.63.26.86.46.23.2.4.44.51.72.11.28.17.59.17.94s-.06.66-.18.94c-.12.28-.3.53-.53.74s-.52.37-.86.48-.74.17-1.18.17h-1.18v2.76h-.99v-7.37h2.18ZM8.06,79.46c.28,0,.54-.04.75-.11s.4-.18.55-.32c.15-.14.26-.3.34-.49.08-.19.11-.4.11-.62,0-.47-.15-.84-.44-1.1s-.73-.4-1.32-.4h-1.18v3.04h1.18Z"/>
    <path class="cls-4" d="M12.63,78.85c.17-.36.37-.63.61-.84.24-.2.53-.3.88-.3.11,0,.21.01.32.04.1.02.19.06.27.11l-.07.68c-.02.09-.07.13-.15.13-.05,0-.12-.01-.21-.03-.09-.02-.2-.03-.31-.03-.16,0-.31.02-.44.07-.13.05-.24.12-.34.21-.1.09-.19.21-.27.35-.08.14-.15.3-.22.48v3.29h-.92v-5.21h.52c.1,0,.17.02.21.06s.06.1.08.2l.06.79Z"/>
  </g>
  <g>
    <path class="cls-4" d="M17.48,77.72c.38,0,.72.06,1.03.19.31.13.57.31.78.54s.38.51.5.85c.11.33.17.7.17,1.11s-.06.78-.17,1.11c-.12.33-.28.61-.5.84s-.48.41-.78.54c-.31.12-.65.19-1.03.19s-.73-.06-1.04-.19c-.31-.12-.57-.3-.78-.54-.22-.23-.38-.51-.5-.84s-.17-.7-.17-1.11.06-.78.17-1.11c.11-.33.28-.61.5-.85.22-.23.48-.41.78-.54.31-.13.65-.19,1.04-.19ZM17.48,82.37c.51,0,.9-.17,1.15-.52s.38-.83.38-1.44-.13-1.1-.38-1.45c-.25-.35-.64-.52-1.15-.52-.26,0-.49.04-.68.13-.19.09-.35.22-.48.38-.13.17-.22.38-.29.62-.06.24-.1.52-.1.83,0,.62.13,1.1.38,1.44.26.34.64.52,1.17.52Z"/>
    <path class="cls-4" d="M24.15,78.66c-.04.08-.1.11-.19.11-.05,0-.11-.02-.18-.06-.06-.04-.14-.08-.24-.13-.09-.05-.21-.09-.34-.13s-.28-.06-.46-.06c-.15,0-.29.02-.42.06-.12.04-.23.09-.32.16-.09.07-.15.15-.2.24-.05.09-.07.19-.07.3,0,.13.04.25.12.33.08.09.18.17.31.23.13.06.27.12.43.17s.33.1.5.16c.17.06.34.12.5.19s.31.15.43.26.23.23.31.38c.08.15.12.33.12.54,0,.24-.04.46-.13.67-.09.2-.21.38-.38.53-.17.15-.37.27-.62.35-.24.09-.52.13-.84.13-.36,0-.69-.06-.99-.18-.29-.12-.55-.27-.75-.46l.22-.35s.06-.08.1-.1c.04-.02.09-.04.14-.04.06,0,.13.02.2.07.07.05.15.1.25.16.1.06.22.11.36.16.14.05.32.07.52.07.18,0,.33-.02.47-.07s.25-.11.33-.19c.09-.08.16-.17.2-.27.04-.1.06-.21.06-.33,0-.14-.04-.26-.12-.36s-.18-.17-.31-.24c-.13-.07-.27-.12-.43-.17s-.33-.1-.5-.16-.34-.12-.5-.19c-.16-.07-.31-.16-.43-.26-.13-.11-.23-.24-.31-.39s-.12-.35-.12-.57c0-.2.04-.39.12-.57.08-.18.2-.34.36-.48.16-.14.35-.25.58-.33.23-.08.49-.12.79-.12.34,0,.65.05.92.16.27.11.51.26.71.45l-.21.33Z"/>
    <path class="cls-4" d="M27.17,83.1c-.41,0-.73-.12-.95-.34-.22-.23-.33-.56-.33-.99v-3.19h-.63c-.05,0-.1-.02-.14-.05s-.06-.08-.06-.15v-.37l.85-.11.21-1.61c.01-.05.03-.09.07-.13.04-.03.08-.05.14-.05h.46v1.79h1.51v.66h-1.51v3.13c0,.22.05.38.16.49.11.11.24.16.41.16.1,0,.18-.01.25-.04.07-.03.13-.05.18-.09.05-.03.1-.06.13-.08s.07-.04.1-.04c.05,0,.09.03.13.09l.27.44c-.16.15-.35.26-.57.35-.22.08-.45.13-.69.13Z"/>
    <path class="cls-4" d="M29.12,78.54c.29-.28.6-.48.93-.62.33-.14.7-.21,1.11-.21.29,0,.55.05.78.14.23.1.42.23.57.4.15.17.27.38.35.62.08.24.12.51.12.8v3.33h-.41c-.09,0-.16-.01-.21-.04-.05-.03-.09-.09-.11-.17l-.1-.49c-.14.13-.27.24-.4.34-.13.1-.27.18-.41.25s-.3.12-.46.15c-.16.04-.34.05-.54.05s-.39-.03-.57-.08c-.18-.06-.33-.14-.47-.26-.13-.11-.24-.26-.31-.43-.08-.17-.12-.38-.12-.61,0-.21.06-.4.17-.59.11-.19.3-.36.55-.51.25-.15.58-.27.99-.36.41-.09.91-.15,1.5-.16v-.41c0-.4-.09-.71-.26-.92-.17-.21-.43-.31-.77-.31-.23,0-.42.03-.57.08-.15.06-.28.12-.4.19-.11.07-.21.13-.29.19s-.16.08-.24.08c-.06,0-.11-.02-.16-.05-.04-.03-.08-.07-.11-.12l-.16-.29ZM32.08,80.67c-.42.01-.78.05-1.08.1-.3.05-.54.12-.73.21s-.32.19-.41.3c-.08.12-.13.25-.13.39s.02.25.07.35c.04.1.11.18.18.24.08.06.17.11.27.14s.22.04.34.04c.16,0,.31-.02.44-.05.13-.03.26-.08.38-.14s.23-.14.34-.22c.11-.09.21-.18.32-.29v-1.08Z"/>
    <path class="cls-4" d="M38.77,78.01v.34c0,.11-.07.18-.22.22l-.59.08c.12.23.17.48.17.75,0,.25-.05.48-.15.69-.1.21-.23.38-.4.53s-.38.26-.62.34c-.24.08-.5.12-.78.12-.24,0-.47-.03-.69-.09-.11.07-.19.14-.25.22-.06.08-.09.16-.09.23,0,.12.05.22.15.28.1.06.23.11.4.14.17.03.35.04.56.05.21,0,.43.02.65.03s.44.04.65.08.4.1.56.19c.16.08.3.2.4.35.1.15.15.35.15.59,0,.22-.06.44-.17.65-.11.21-.27.4-.48.56-.21.16-.47.29-.77.39-.3.1-.65.15-1.03.15s-.71-.04-1-.11-.52-.18-.71-.3c-.19-.13-.33-.27-.42-.44s-.14-.34-.14-.52c0-.26.08-.48.24-.65.16-.18.38-.32.66-.43-.15-.07-.28-.16-.37-.27-.09-.12-.14-.27-.14-.47,0-.08.01-.15.04-.23.03-.08.07-.16.13-.24.06-.08.13-.16.21-.23.08-.07.18-.13.29-.19-.26-.14-.46-.34-.6-.57s-.22-.52-.22-.83c0-.25.05-.48.15-.69.1-.21.23-.38.41-.53.17-.15.38-.26.62-.34.24-.08.51-.12.79-.12.23,0,.44.02.63.07.2.05.37.12.54.22h1.42ZM37.84,83.3c0-.13-.04-.23-.11-.31-.07-.08-.17-.14-.29-.19s-.26-.08-.42-.1c-.16-.02-.33-.03-.51-.04-.18-.01-.36-.02-.55-.03s-.36-.03-.54-.05c-.19.09-.35.2-.47.34-.12.14-.18.29-.18.48,0,.12.03.23.09.33.06.1.15.19.28.26s.28.13.47.17.41.06.66.06.47-.02.66-.07c.2-.04.36-.11.5-.19.14-.08.24-.18.31-.29.07-.11.11-.24.11-.38ZM36.19,80.47c.19,0,.35-.03.49-.08s.26-.12.35-.22c.1-.09.17-.2.22-.33.05-.13.07-.27.07-.42,0-.32-.1-.57-.29-.76-.19-.19-.47-.28-.84-.28s-.65.09-.85.28c-.19.19-.29.44-.29.76,0,.15.02.29.07.42s.12.24.22.33c.1.09.21.16.35.22s.3.08.49.08Z"/>
    <path class="cls-4" d="M40.67,75.44v7.58h-.92v-7.58h.92Z"/>
    <path class="cls-4" d="M42.02,78.54c.29-.28.6-.48.93-.62.33-.14.7-.21,1.11-.21.29,0,.55.05.78.14.23.1.42.23.57.4.15.17.27.38.35.62.08.24.12.51.12.8v3.33h-.41c-.09,0-.16-.01-.21-.04-.05-.03-.09-.09-.11-.17l-.1-.49c-.14.13-.27.24-.4.34-.13.1-.27.18-.41.25s-.3.12-.46.15c-.16.04-.34.05-.54.05s-.39-.03-.57-.08c-.18-.06-.33-.14-.47-.26-.13-.11-.24-.26-.31-.43-.08-.17-.12-.38-.12-.61,0-.21.06-.4.17-.59.11-.19.3-.36.55-.51.25-.15.58-.27.99-.36.41-.09.91-.15,1.5-.16v-.41c0-.4-.09-.71-.26-.92-.17-.21-.43-.31-.77-.31-.23,0-.42.03-.57.08-.15.06-.28.12-.4.19-.11.07-.21.13-.29.19s-.16.08-.24.08c-.06,0-.11-.02-.16-.05-.04-.03-.08-.07-.11-.12l-.16-.29ZM44.98,80.67c-.42.01-.78.05-1.08.1-.3.05-.54.12-.73.21s-.32.19-.41.3c-.08.12-.13.25-.13.39s.02.25.07.35c.04.1.11.18.18.24.08.06.17.11.27.14s.22.04.34.04c.16,0,.31-.02.44-.05.13-.03.26-.08.38-.14s.23-.14.34-.22c.11-.09.21-.18.32-.29v-1.08Z"/>
    <path class="cls-4" d="M48.13,78.56c.11-.13.23-.24.36-.35.13-.1.26-.19.4-.26.14-.07.29-.13.45-.17.16-.04.33-.06.52-.06.28,0,.54.05.75.14.22.09.4.23.54.4.15.17.26.38.33.62.08.24.11.51.11.81v3.32h-.92v-3.32c0-.39-.09-.7-.27-.92-.18-.22-.45-.33-.82-.33-.27,0-.52.07-.76.2s-.45.31-.65.53v3.84h-.92v-5.21h.55c.13,0,.21.06.24.19l.07.57Z"/>
    <path class="cls-4" d="M57.32,75.44v7.58h-.55c-.13,0-.21-.06-.25-.19l-.08-.63c-.22.27-.48.48-.76.65s-.61.25-.99.25c-.3,0-.57-.06-.81-.17-.24-.12-.45-.29-.62-.51s-.3-.5-.4-.83c-.09-.33-.14-.72-.14-1.15,0-.38.05-.74.15-1.07.1-.33.25-.62.44-.86.19-.24.43-.43.71-.57.28-.14.59-.21.94-.21.32,0,.59.05.82.16.23.11.43.26.61.45v-2.89h.92ZM56.4,79.04c-.17-.23-.36-.39-.56-.48s-.42-.14-.67-.14c-.48,0-.86.17-1.12.52-.26.35-.39.84-.39,1.48,0,.34.03.63.09.87s.14.44.26.6.25.27.42.34c.17.07.35.11.56.11.3,0,.56-.07.79-.21.22-.14.43-.33.62-.58v-2.52Z"/>
    <path class="cls-4" d="M59.93,76.17c0,.09-.02.17-.05.25-.04.08-.08.15-.14.21s-.13.11-.21.14-.17.05-.25.05-.17-.02-.25-.05-.15-.08-.2-.14c-.06-.06-.1-.13-.14-.21s-.05-.16-.05-.25.02-.17.05-.25.08-.15.14-.21c.06-.06.13-.11.2-.14s.16-.05.25-.05.17.02.25.05.15.08.21.14.11.13.14.21c.04.08.05.17.05.25ZM59.74,77.8v5.21h-.92v-5.21h.92Z"/>
    <path class="cls-4" d="M62.1,78.56c.11-.13.23-.24.36-.35.13-.1.26-.19.4-.26.14-.07.29-.13.45-.17.16-.04.33-.06.52-.06.28,0,.54.05.75.14.22.09.4.23.54.4.15.17.26.38.33.62.08.24.11.51.11.81v3.32h-.92v-3.32c0-.39-.09-.7-.27-.92-.18-.22-.45-.33-.82-.33-.27,0-.52.07-.76.2s-.45.31-.65.53v3.84h-.92v-5.21h.55c.13,0,.21.06.24.19l.07.57Z"/>
    <path class="cls-4" d="M66.85,78.54c.29-.28.6-.48.93-.62.33-.14.7-.21,1.11-.21.29,0,.55.05.78.14.23.1.42.23.57.4.15.17.27.38.35.62.08.24.12.51.12.8v3.33h-.41c-.09,0-.16-.01-.21-.04-.05-.03-.09-.09-.11-.17l-.1-.49c-.14.13-.27.24-.4.34-.13.1-.27.18-.41.25s-.3.12-.46.15c-.16.04-.34.05-.54.05s-.39-.03-.57-.08c-.18-.06-.33-.14-.47-.26-.13-.11-.24-.26-.31-.43-.08-.17-.12-.38-.12-.61,0-.21.06-.4.17-.59.11-.19.3-.36.55-.51.25-.15.58-.27.99-.36.41-.09.91-.15,1.5-.16v-.41c0-.4-.09-.71-.26-.92-.17-.21-.43-.31-.77-.31-.23,0-.42.03-.57.08-.15.06-.28.12-.4.19-.11.07-.21.13-.29.19s-.16.08-.24.08c-.06,0-.11-.02-.16-.05-.04-.03-.08-.07-.11-.12l-.16-.29ZM69.81,80.67c-.42.01-.78.05-1.08.1-.3.05-.54.12-.73.21s-.32.19-.41.3c-.08.12-.13.25-.13.39s.02.25.07.35c.04.1.11.18.18.24.08.06.17.11.27.14s.22.04.34.04c.16,0,.31-.02.44-.05.13-.03.26-.08.38-.14s.23-.14.34-.22c.11-.09.21-.18.32-.29v-1.08Z"/>
    <path class="cls-4" d="M75.13,78.66c-.04.08-.1.11-.19.11-.05,0-.11-.02-.18-.06-.06-.04-.14-.08-.24-.13-.09-.05-.21-.09-.34-.13s-.28-.06-.46-.06c-.15,0-.29.02-.42.06-.12.04-.23.09-.32.16-.09.07-.15.15-.2.24-.05.09-.07.19-.07.3,0,.13.04.25.12.33.08.09.18.17.31.23.13.06.27.12.43.17s.33.1.5.16c.17.06.34.12.5.19s.31.15.43.26.23.23.31.38c.08.15.12.33.12.54,0,.24-.04.46-.13.67-.09.2-.21.38-.38.53-.17.15-.37.27-.62.35-.24.09-.52.13-.84.13-.36,0-.69-.06-.99-.18-.29-.12-.55-.27-.75-.46l.22-.35s.06-.08.1-.1c.04-.02.09-.04.14-.04.06,0,.13.02.2.07.07.05.15.1.25.16.1.06.22.11.36.16.14.05.32.07.52.07.18,0,.33-.02.47-.07s.25-.11.33-.19c.09-.08.16-.17.2-.27.04-.1.06-.21.06-.33,0-.14-.04-.26-.12-.36s-.18-.17-.31-.24c-.13-.07-.27-.12-.43-.17s-.33-.1-.5-.16-.34-.12-.5-.19c-.16-.07-.31-.16-.43-.26-.13-.11-.23-.24-.31-.39s-.12-.35-.12-.57c0-.2.04-.39.12-.57.08-.18.2-.34.36-.48.16-.14.35-.25.58-.33.23-.08.49-.12.79-.12.34,0,.65.05.92.16.27.11.51.26.71.45l-.21.33Z"/>
  </g>
  <g>
    <path class="cls-4" d="M121.51,83.02h-.77c-.09,0-.16-.02-.22-.07-.06-.04-.1-.1-.12-.17l-.69-1.78h-3.31l-.69,1.78c-.02.06-.06.12-.12.16-.06.05-.13.07-.22.07h-.77l2.95-7.37h1.01l2.95,7.37ZM119.44,80.28l-1.16-3c-.03-.09-.07-.19-.11-.31-.04-.12-.07-.25-.11-.38-.07.28-.15.51-.22.69l-1.16,2.99h2.75Z"/>
    <path class="cls-4" d="M126.67,78.01v.34c0,.11-.07.18-.22.22l-.59.08c.12.23.17.48.17.75,0,.25-.05.48-.15.69-.1.21-.23.38-.4.53s-.38.26-.62.34c-.24.08-.5.12-.78.12-.24,0-.47-.03-.69-.09-.11.07-.19.14-.25.22-.06.08-.09.16-.09.23,0,.12.05.22.15.28.1.06.23.11.4.14.17.03.35.04.56.05.21,0,.43.02.65.03s.44.04.65.08.4.1.56.19c.16.08.3.2.4.35.1.15.15.35.15.59,0,.22-.06.44-.17.65-.11.21-.27.4-.48.56-.21.16-.47.29-.77.39-.3.1-.65.15-1.03.15s-.71-.04-1-.11-.52-.18-.71-.3c-.19-.13-.33-.27-.42-.44s-.14-.34-.14-.52c0-.26.08-.48.24-.65.16-.18.38-.32.66-.43-.15-.07-.28-.16-.37-.27-.09-.12-.14-.27-.14-.47,0-.08.01-.15.04-.23.03-.08.07-.16.13-.24.06-.08.13-.16.21-.23.08-.07.18-.13.29-.19-.26-.14-.46-.34-.6-.57s-.22-.52-.22-.83c0-.25.05-.48.15-.69.1-.21.23-.38.41-.53.17-.15.38-.26.62-.34.24-.08.51-.12.79-.12.23,0,.44.02.63.07.2.05.37.12.54.22h1.42ZM125.74,83.3c0-.13-.04-.23-.11-.31-.07-.08-.17-.14-.29-.19s-.26-.08-.42-.1c-.16-.02-.33-.03-.51-.04-.18-.01-.36-.02-.55-.03s-.36-.03-.54-.05c-.19.09-.35.2-.47.34-.12.14-.18.29-.18.48,0,.12.03.23.09.33.06.1.15.19.28.26s.28.13.47.17.41.06.66.06.47-.02.66-.07c.2-.04.36-.11.5-.19.14-.08.24-.18.31-.29.07-.11.11-.24.11-.38ZM124.09,80.47c.19,0,.35-.03.49-.08s.26-.12.35-.22c.1-.09.17-.2.22-.33.05-.13.07-.27.07-.42,0-.32-.1-.57-.29-.76-.19-.19-.47-.28-.84-.28s-.65.09-.85.28c-.19.19-.29.44-.29.76,0,.15.02.29.07.42s.12.24.22.33c.1.09.21.16.35.22s.3.08.49.08Z"/>
    <path class="cls-4" d="M131.85,82.29c-.11.14-.25.26-.41.36-.16.1-.33.18-.51.25-.18.06-.37.11-.56.15-.19.03-.38.05-.57.05-.36,0-.69-.06-1-.18-.3-.12-.57-.3-.79-.53s-.39-.53-.52-.87c-.12-.35-.19-.74-.19-1.19,0-.36.06-.7.17-1.02.11-.32.27-.59.48-.82.21-.23.46-.41.77-.54.3-.13.64-.2,1.02-.2.31,0,.6.05.87.16.27.1.5.25.69.45s.35.44.46.73c.11.29.16.62.16.99,0,.14-.02.24-.05.29-.03.05-.09.07-.17.07h-3.48c.01.33.06.62.14.86s.19.45.34.61c.14.16.32.29.51.37.2.08.42.12.67.12.23,0,.43-.03.59-.08.17-.05.31-.11.43-.17s.22-.12.3-.17c.08-.05.15-.08.21-.08.08,0,.13.03.17.09l.26.33ZM131.11,79.84c0-.21-.03-.41-.09-.58-.06-.18-.15-.33-.26-.46-.11-.13-.25-.23-.42-.3s-.35-.11-.56-.11c-.44,0-.79.13-1.04.38-.26.25-.41.61-.48,1.06h2.85Z"/>
    <path class="cls-4" d="M133.92,78.56c.11-.13.23-.24.36-.35.13-.1.26-.19.4-.26.14-.07.29-.13.45-.17.16-.04.33-.06.52-.06.29,0,.54.05.75.14.22.09.4.23.55.4.15.17.26.38.33.62.08.24.11.51.11.81v3.32h-.92v-3.32c0-.39-.09-.7-.27-.92-.18-.22-.45-.33-.82-.33-.27,0-.52.07-.76.2-.23.13-.45.31-.65.53v3.84h-.92v-5.21h.55c.13,0,.21.06.24.19l.07.57Z"/>
    <path class="cls-4" d="M140.4,83.1c-.41,0-.73-.12-.95-.34-.22-.23-.33-.56-.33-.99v-3.19h-.63c-.05,0-.1-.02-.14-.05-.04-.03-.06-.08-.06-.15v-.37l.85-.11.21-1.61c.01-.05.03-.09.07-.13.04-.03.08-.05.14-.05h.46v1.79h1.51v.66h-1.51v3.13c0,.22.05.38.16.49s.24.16.41.16c.1,0,.18-.01.25-.04.07-.03.13-.05.18-.09.05-.03.09-.06.13-.08s.07-.04.09-.04c.05,0,.09.03.13.09l.27.44c-.16.15-.35.26-.57.35-.22.08-.45.13-.69.13Z"/>
    <path class="cls-4" d="M146.71,82.29c-.11.14-.25.26-.41.36-.16.1-.33.18-.51.25-.18.06-.37.11-.56.15-.19.03-.38.05-.57.05-.36,0-.69-.06-1-.18-.3-.12-.57-.3-.79-.53-.22-.24-.39-.53-.52-.87-.12-.35-.19-.74-.19-1.19,0-.36.06-.7.17-1.02.11-.32.27-.59.48-.82s.46-.41.77-.54c.3-.13.64-.2,1.02-.2.31,0,.6.05.87.16.27.1.5.25.69.45s.35.44.46.73c.11.29.17.62.17.99,0,.14-.02.24-.05.29-.03.05-.09.07-.17.07h-3.48c0,.33.06.62.14.86.08.24.19.45.34.61.14.16.32.29.51.37.2.08.42.12.67.12.23,0,.43-.03.59-.08.17-.05.31-.11.43-.17s.22-.12.3-.17c.08-.05.15-.08.21-.08.08,0,.13.03.17.09l.26.33ZM145.97,79.84c0-.21-.03-.41-.09-.58-.06-.18-.15-.33-.26-.46-.12-.13-.25-.23-.42-.3-.17-.07-.35-.11-.56-.11-.44,0-.79.13-1.04.38s-.41.61-.48,1.06h2.85Z"/>
    <path class="cls-4" d="M150.95,78.66c-.04.08-.1.11-.19.11-.05,0-.11-.02-.17-.06s-.14-.08-.24-.13c-.09-.05-.21-.09-.34-.13-.13-.04-.28-.06-.46-.06-.15,0-.29.02-.42.06-.12.04-.23.09-.32.16-.09.07-.15.15-.2.24-.05.09-.07.19-.07.3,0,.13.04.25.12.33.08.09.18.17.31.23.13.06.27.12.43.17s.33.1.5.16c.17.06.33.12.5.19s.31.15.43.26c.13.1.23.23.31.38.08.15.12.33.12.54,0,.24-.04.46-.13.67s-.21.38-.38.53c-.17.15-.37.27-.62.35-.24.09-.53.13-.84.13-.36,0-.69-.06-.99-.18-.29-.12-.54-.27-.75-.46l.22-.35s.06-.08.1-.1c.04-.02.09-.04.14-.04.06,0,.13.02.2.07.07.05.15.1.25.16.1.06.22.11.36.16.14.05.32.07.52.07.18,0,.33-.02.47-.07s.25-.11.33-.19c.09-.08.16-.17.2-.27.04-.1.06-.21.06-.33,0-.14-.04-.26-.12-.36s-.18-.17-.31-.24c-.13-.07-.27-.12-.43-.17-.16-.05-.33-.1-.5-.16-.17-.05-.34-.12-.5-.19-.16-.07-.31-.16-.43-.26s-.23-.24-.31-.39-.12-.35-.12-.57c0-.2.04-.39.12-.57.08-.18.2-.34.36-.48.16-.14.35-.25.58-.33.23-.08.49-.12.79-.12.34,0,.65.05.92.16.27.11.51.26.71.45l-.21.33Z"/>
    <path class="cls-4" d="M159.24,82.29c-.11.14-.25.26-.41.36-.16.1-.33.18-.51.25-.18.06-.37.11-.56.15-.19.03-.38.05-.57.05-.36,0-.69-.06-1-.18-.3-.12-.57-.3-.79-.53-.22-.24-.39-.53-.52-.87-.12-.35-.19-.74-.19-1.19,0-.36.06-.7.17-1.02.11-.32.27-.59.48-.82s.46-.41.77-.54c.3-.13.64-.2,1.02-.2.31,0,.6.05.87.16.27.1.5.25.69.45s.35.44.46.73c.11.29.17.62.17.99,0,.14-.02.24-.05.29-.03.05-.09.07-.17.07h-3.48c0,.33.06.62.14.86.08.24.19.45.34.61.14.16.32.29.51.37.2.08.42.12.67.12.23,0,.43-.03.59-.08.17-.05.31-.11.43-.17s.22-.12.3-.17c.08-.05.15-.08.21-.08.08,0,.13.03.17.09l.26.33ZM158.5,79.84c0-.21-.03-.41-.09-.58-.06-.18-.15-.33-.26-.46-.12-.13-.25-.23-.42-.3-.17-.07-.35-.11-.56-.11-.44,0-.79.13-1.04.38s-.41.61-.48,1.06h2.85Z"/>
  </g>
  <g>
    <path class="cls-4" d="M164.47,83.02h-.88c-.08,0-.13-.02-.18-.06-.04-.04-.08-.08-.11-.13l-1.31-2.04s-.03.09-.04.14c-.01.05-.04.09-.06.13l-1.21,1.77s-.07.09-.11.13c-.04.04-.09.06-.16.06h-.82l1.83-2.68-1.75-2.54h.88c.08,0,.13.01.16.04.04.02.07.06.09.1l1.28,1.96c.03-.1.07-.2.13-.29l1.12-1.65s.06-.09.1-.12.08-.04.13-.04h.84l-1.75,2.49,1.83,2.72Z"/>
    <path class="cls-4" d="M167.28,77.72c.38,0,.72.06,1.03.19.31.13.57.31.78.54s.38.51.5.85c.12.33.17.7.17,1.11s-.06.78-.17,1.11c-.11.33-.28.61-.5.84s-.48.41-.78.54c-.3.12-.65.19-1.03.19s-.73-.06-1.04-.19-.57-.3-.79-.54c-.22-.23-.38-.51-.5-.84s-.17-.7-.17-1.11.06-.78.17-1.11c.12-.33.28-.61.5-.85.22-.23.48-.41.79-.54s.65-.19,1.04-.19ZM167.28,82.37c.51,0,.9-.17,1.15-.52s.38-.83.38-1.44-.13-1.1-.38-1.45c-.25-.35-.64-.52-1.15-.52-.26,0-.49.04-.68.13-.19.09-.35.22-.48.38s-.22.38-.29.62c-.06.24-.09.52-.09.83,0,.62.13,1.1.38,1.44s.64.52,1.17.52ZM168.78,75.56l-1.2,1.33c-.05.05-.09.09-.14.11-.05.02-.11.03-.18.03h-.55l.76-1.25c.05-.08.1-.14.16-.17.06-.04.14-.05.25-.05h.9Z"/>
  </g>
  <g>
    <path class="cls-4" d="M175.3,78.01v.34c0,.11-.07.18-.22.22l-.59.08c.12.23.17.48.17.75,0,.25-.05.48-.15.69-.1.21-.23.38-.4.53-.17.15-.38.26-.62.34-.24.08-.5.12-.78.12-.24,0-.47-.03-.69-.09-.11.07-.19.14-.25.22-.06.08-.09.16-.09.23,0,.12.05.22.15.28.1.06.23.11.4.14.16.03.35.04.56.05.21,0,.43.02.65.03.22.02.44.04.65.08s.4.1.56.19c.17.08.3.2.4.35.1.15.15.35.15.59,0,.22-.06.44-.17.65-.11.21-.27.4-.48.56-.21.16-.47.29-.77.39-.3.1-.65.15-1.03.15s-.71-.04-1-.11c-.28-.08-.52-.18-.71-.3s-.33-.27-.42-.44c-.09-.17-.14-.34-.14-.52,0-.26.08-.48.24-.65s.38-.32.66-.43c-.15-.07-.28-.16-.37-.27-.09-.12-.14-.27-.14-.47,0-.08.01-.15.04-.23.03-.08.07-.16.13-.24.06-.08.13-.16.21-.23s.18-.13.29-.19c-.26-.14-.46-.34-.6-.57-.14-.24-.22-.52-.22-.83,0-.25.05-.48.15-.69.1-.21.23-.38.41-.53.17-.15.38-.26.62-.34.24-.08.51-.12.79-.12.23,0,.44.02.63.07.2.05.37.12.54.22h1.41ZM174.37,83.3c0-.13-.04-.23-.11-.31-.07-.08-.17-.14-.29-.19-.12-.04-.26-.08-.42-.1-.16-.02-.33-.03-.51-.04-.18-.01-.36-.02-.55-.03-.19,0-.36-.03-.54-.05-.19.09-.35.2-.47.34-.12.14-.18.29-.18.48,0,.12.03.23.09.33.06.1.15.19.28.26.12.07.28.13.46.17.19.04.41.06.66.06s.47-.02.66-.07c.2-.04.36-.11.5-.19.14-.08.24-.18.31-.29s.11-.24.11-.38ZM172.71,80.47c.18,0,.35-.03.49-.08s.26-.12.36-.22c.1-.09.17-.2.22-.33s.07-.27.07-.42c0-.32-.1-.57-.29-.76-.19-.19-.47-.28-.84-.28s-.65.09-.85.28c-.19.19-.29.44-.29.76,0,.15.03.29.08.42s.12.24.22.33c.1.09.21.16.35.22s.3.08.49.08Z"/>
    <path class="cls-4" d="M180.48,82.29c-.11.14-.25.26-.41.36-.16.1-.33.18-.51.25-.18.06-.37.11-.56.15-.19.03-.38.05-.57.05-.36,0-.69-.06-1-.18-.3-.12-.57-.3-.79-.53-.22-.24-.39-.53-.52-.87-.12-.35-.19-.74-.19-1.19,0-.36.06-.7.17-1.02.11-.32.27-.59.48-.82s.46-.41.77-.54c.3-.13.64-.2,1.02-.2.31,0,.6.05.87.16.27.1.5.25.69.45s.35.44.46.73c.11.29.17.62.17.99,0,.14-.02.24-.05.29-.03.05-.09.07-.17.07h-3.48c0,.33.06.62.14.86.08.24.19.45.34.61.14.16.32.29.51.37.2.08.42.12.67.12.23,0,.43-.03.59-.08.17-.05.31-.11.43-.17s.22-.12.3-.17c.08-.05.15-.08.21-.08.08,0,.13.03.17.09l.26.33ZM179.74,79.84c0-.21-.03-.41-.09-.58-.06-.18-.15-.33-.26-.46-.12-.13-.25-.23-.42-.3-.17-.07-.35-.11-.56-.11-.44,0-.79.13-1.04.38s-.41.61-.48,1.06h2.85Z"/>
    <path class="cls-4" d="M182.55,78.56c.11-.13.23-.24.36-.35.13-.1.26-.19.4-.26.14-.07.29-.13.45-.17.16-.04.33-.06.52-.06.29,0,.54.05.75.14.22.09.4.23.55.4.15.17.26.38.33.62.08.24.11.51.11.81v3.32h-.92v-3.32c0-.39-.09-.7-.27-.92-.18-.22-.45-.33-.82-.33-.27,0-.52.07-.76.2-.23.13-.45.31-.65.53v3.84h-.92v-5.21h.55c.13,0,.21.06.24.19l.07.57Z"/>
    <path class="cls-4" d="M189.62,77.72c.38,0,.72.06,1.03.19.31.13.57.31.78.54s.38.51.5.85c.12.33.17.7.17,1.11s-.06.78-.17,1.11c-.11.33-.28.61-.5.84s-.48.41-.78.54c-.3.12-.65.19-1.03.19s-.73-.06-1.04-.19-.57-.3-.79-.54c-.22-.23-.38-.51-.5-.84s-.17-.7-.17-1.11.06-.78.17-1.11c.12-.33.28-.61.5-.85.22-.23.48-.41.79-.54s.65-.19,1.04-.19ZM189.62,82.37c.51,0,.9-.17,1.15-.52s.38-.83.38-1.44-.13-1.1-.38-1.45c-.25-.35-.64-.52-1.15-.52-.26,0-.49.04-.68.13-.19.09-.35.22-.48.38s-.22.38-.29.62c-.06.24-.09.52-.09.83,0,.62.13,1.1.38,1.44s.64.52,1.17.52Z"/>
    <path class="cls-4" d="M196.29,78.66c-.04.08-.1.11-.19.11-.05,0-.11-.02-.17-.06s-.14-.08-.24-.13c-.09-.05-.21-.09-.34-.13-.13-.04-.28-.06-.46-.06-.15,0-.29.02-.42.06-.12.04-.23.09-.32.16-.09.07-.15.15-.2.24-.05.09-.07.19-.07.3,0,.13.04.25.12.33.08.09.18.17.31.23.13.06.27.12.43.17s.33.1.5.16c.17.06.33.12.5.19s.31.15.43.26c.13.1.23.23.31.38.08.15.12.33.12.54,0,.24-.04.46-.13.67s-.21.38-.38.53c-.17.15-.37.27-.62.35-.24.09-.53.13-.84.13-.36,0-.69-.06-.99-.18-.29-.12-.54-.27-.75-.46l.22-.35s.06-.08.1-.1c.04-.02.09-.04.14-.04.06,0,.13.02.2.07.07.05.15.1.25.16.1.06.22.11.36.16.14.05.32.07.52.07.18,0,.33-.02.47-.07s.25-.11.33-.19c.09-.08.16-.17.2-.27.04-.1.06-.21.06-.33,0-.14-.04-.26-.12-.36s-.18-.17-.31-.24c-.13-.07-.27-.12-.43-.17-.16-.05-.33-.1-.5-.16-.17-.05-.34-.12-.5-.19-.16-.07-.31-.16-.43-.26s-.23-.24-.31-.39-.12-.35-.12-.57c0-.2.04-.39.12-.57.08-.18.2-.34.36-.48.16-.14.35-.25.58-.33.23-.08.49-.12.79-.12.34,0,.65.05.92.16.27.11.51.26.71.45l-.21.33Z"/>
    <path class="cls-4" d="M197.63,78.59c0-.09.02-.17.05-.25.03-.08.08-.15.13-.21s.12-.1.2-.14c.08-.03.16-.05.25-.05s.17.02.25.05.15.08.21.14c.06.06.1.13.14.21s.05.16.05.25-.02.18-.05.25-.08.14-.14.2c-.06.06-.13.1-.21.14-.08.03-.16.05-.25.05s-.17-.02-.25-.05c-.08-.03-.15-.08-.2-.14s-.1-.13-.13-.2c-.03-.08-.05-.16-.05-.25ZM197.63,82.45c0-.09.02-.17.05-.25.03-.08.08-.15.13-.21s.12-.11.2-.14c.08-.04.16-.05.25-.05s.17.02.25.05c.08.03.15.08.21.14.06.06.1.13.14.21.03.08.05.16.05.25,0,.09-.02.18-.05.26-.03.08-.08.14-.14.2-.06.06-.13.1-.21.14s-.16.05-.25.05-.17-.02-.25-.05c-.08-.03-.15-.08-.2-.14-.06-.06-.1-.13-.13-.2-.03-.08-.05-.16-.05-.26Z"/>
  </g>
  <path class="cls-4" d="M12.7,112.32c0,.55-.09,1.06-.26,1.52-.17.46-.42.86-.74,1.19-.32.33-.7.59-1.15.77-.45.18-.94.28-1.48.28s-1.04-.09-1.48-.28c-.45-.18-.83-.44-1.15-.77-.32-.33-.57-.73-.74-1.19-.17-.46-.26-.97-.26-1.52s.09-1.06.26-1.52.42-.86.74-1.19c.32-.33.7-.59,1.15-.78.45-.18.94-.28,1.48-.28s1.04.09,1.48.28c.45.19.83.45,1.15.78.32.33.57.73.74,1.19s.26.97.26,1.52ZM11.67,112.32c0-.45-.06-.86-.19-1.22s-.3-.67-.52-.91c-.23-.25-.5-.44-.82-.57-.32-.13-.68-.2-1.08-.2s-.75.07-1.08.2c-.32.13-.6.33-.83.57s-.4.55-.53.91-.19.77-.19,1.22.06.86.19,1.22.3.66.53.91c.23.25.5.44.83.57.32.13.68.2,1.08.2s.76-.07,1.08-.2c.32-.13.6-.32.82-.57.23-.25.4-.55.52-.91s.19-.76.19-1.22ZM11.02,106.48l-1.68,1.47c-.05.05-.1.08-.15.09s-.11.02-.17.02h-.66l1.19-1.41c.06-.08.12-.12.18-.14.06-.02.15-.03.26-.03h1.03Z"/>
  <g>
    <path class="cls-4" d="M18.02,116.01h-.88c-.08,0-.13-.02-.18-.06-.04-.04-.08-.08-.11-.13l-1.31-2.04s-.03.09-.04.14c-.02.05-.04.09-.06.13l-1.21,1.77s-.07.09-.11.13c-.04.04-.09.06-.16.06h-.82l1.83-2.68-1.75-2.54h.88c.08,0,.13.01.16.04s.06.06.09.1l1.28,1.96c.03-.1.07-.2.13-.29l1.12-1.65s.06-.09.1-.12.08-.04.13-.04h.84l-1.75,2.49,1.83,2.72Z"/>
    <path class="cls-4" d="M20.03,109.16c0,.09-.02.17-.05.25-.04.08-.08.15-.14.21s-.13.11-.21.14-.17.05-.25.05-.17-.02-.25-.05-.15-.08-.2-.14c-.06-.06-.1-.13-.14-.21s-.05-.16-.05-.25.02-.17.05-.25.08-.15.14-.21c.06-.06.13-.11.2-.14s.16-.05.25-.05.17.02.25.05.15.08.21.14.11.13.14.21c.04.08.05.17.05.25ZM19.83,110.8v5.21h-.92v-5.21h.92Z"/>
    <path class="cls-4" d="M25.65,108.43v7.58h-.55c-.13,0-.21-.06-.25-.19l-.08-.63c-.22.27-.48.48-.76.65s-.61.25-.99.25c-.3,0-.57-.06-.81-.17-.24-.12-.45-.29-.62-.51s-.3-.5-.4-.83c-.09-.33-.14-.72-.14-1.15,0-.38.05-.74.15-1.07.1-.33.25-.62.44-.86.19-.24.43-.43.71-.57.28-.14.59-.21.94-.21.32,0,.59.05.82.16.23.11.43.26.61.45v-2.89h.92ZM24.73,112.04c-.17-.23-.36-.39-.56-.48s-.42-.14-.67-.14c-.48,0-.86.17-1.12.52-.26.35-.39.84-.39,1.48,0,.34.03.63.09.87s.14.44.26.6.25.27.42.34c.17.07.35.11.56.11.3,0,.56-.07.79-.21.22-.14.43-.33.62-.58v-2.52Z"/>
    <path class="cls-4" d="M29.29,110.71c.38,0,.72.06,1.03.19.31.13.57.31.78.54s.38.51.5.85c.11.33.17.7.17,1.11s-.06.78-.17,1.11c-.12.33-.28.61-.5.84s-.48.41-.78.54c-.31.12-.65.19-1.03.19s-.73-.06-1.04-.19c-.31-.12-.57-.3-.78-.54-.22-.23-.38-.51-.5-.84s-.17-.7-.17-1.11.06-.78.17-1.11c.11-.33.28-.61.5-.85.22-.23.48-.41.78-.54.31-.13.65-.19,1.04-.19ZM29.29,115.37c.51,0,.9-.17,1.15-.52s.38-.83.38-1.44-.13-1.1-.38-1.45c-.25-.35-.64-.52-1.15-.52-.26,0-.49.04-.68.13-.19.09-.35.22-.48.38-.13.17-.22.38-.29.62-.06.24-.1.52-.1.83,0,.62.13,1.1.38,1.44.26.34.64.52,1.17.52Z"/>
    <path class="cls-4" d="M36.43,111.55c.11-.13.23-.24.36-.35.13-.1.26-.19.4-.26.14-.07.29-.13.45-.17.16-.04.33-.06.52-.06.28,0,.54.05.75.14.22.09.4.23.54.4.15.17.26.38.33.62.08.24.11.51.11.81v3.32h-.92v-3.32c0-.39-.09-.7-.27-.92-.18-.22-.45-.33-.82-.33-.27,0-.52.07-.76.2s-.45.31-.65.53v3.84h-.92v-5.21h.55c.13,0,.21.06.24.19l.07.57Z"/>
    <path class="cls-4" d="M43.34,108.55l-1.2,1.33c-.05.05-.1.09-.14.11-.05.02-.11.03-.18.03h-.55l.76-1.25c.05-.08.1-.14.16-.17.06-.04.14-.05.25-.05h.9ZM42.28,110.8v5.21h-.92v-5.21h.92Z"/>
    <path class="cls-4" d="M45.38,116.09c-.41,0-.73-.12-.95-.34-.22-.23-.33-.56-.33-.99v-3.19h-.63c-.05,0-.1-.02-.14-.05s-.06-.08-.06-.15v-.37l.85-.11.21-1.61c.01-.05.03-.09.07-.13.04-.03.08-.05.14-.05h.46v1.79h1.51v.66h-1.51v3.13c0,.22.05.38.16.49.11.11.24.16.41.16.1,0,.18-.01.25-.04.07-.03.13-.05.18-.09.05-.03.1-.06.13-.08s.07-.04.1-.04c.05,0,.09.03.13.09l.27.44c-.16.15-.35.26-.57.35-.22.08-.45.13-.69.13Z"/>
    <path class="cls-4" d="M48.33,111.84c.17-.36.37-.63.61-.84.24-.2.53-.3.88-.3.11,0,.21.01.32.04.1.02.19.06.27.11l-.07.68c-.02.09-.07.13-.15.13-.05,0-.12-.01-.21-.03-.09-.02-.2-.03-.31-.03-.16,0-.31.02-.44.07-.13.05-.24.12-.34.21-.1.09-.19.21-.27.35-.08.14-.15.3-.22.48v3.29h-.92v-5.21h.52c.1,0,.17.02.21.06s.06.1.08.2l.06.79Z"/>
    <path class="cls-4" d="M52.37,109.16c0,.09-.02.17-.05.25-.04.08-.08.15-.14.21s-.13.11-.21.14-.17.05-.25.05-.17-.02-.25-.05-.15-.08-.2-.14c-.06-.06-.1-.13-.14-.21s-.05-.16-.05-.25.02-.17.05-.25.08-.15.14-.21c.06-.06.13-.11.2-.14s.16-.05.25-.05.17.02.25.05.15.08.21.14.11.13.14.21c.04.08.05.17.05.25ZM52.18,110.8v5.21h-.92v-5.21h.92Z"/>
    <path class="cls-4" d="M57.31,111.72s-.05.07-.08.09c-.03.02-.07.03-.11.03-.05,0-.11-.02-.17-.06-.06-.04-.14-.09-.23-.14-.09-.05-.2-.1-.33-.14-.13-.04-.29-.06-.49-.06-.26,0-.48.05-.68.14-.2.09-.36.22-.49.39-.13.17-.23.38-.3.62s-.1.52-.1.82.04.6.11.84c.07.25.17.45.31.62.13.17.29.29.48.38.19.09.4.13.63.13s.41-.03.55-.08.26-.11.36-.18c.09-.07.17-.12.24-.18.06-.05.13-.08.19-.08.08,0,.13.03.17.09l.26.33c-.11.14-.24.26-.39.36-.14.1-.3.18-.47.25s-.34.12-.52.15c-.18.03-.37.05-.56.05-.33,0-.63-.06-.91-.18-.28-.12-.52-.29-.73-.52-.21-.23-.37-.51-.48-.84s-.17-.71-.17-1.14c0-.39.05-.75.16-1.08.11-.33.27-.61.47-.85s.46-.42.77-.56c.3-.13.65-.2,1.05-.2.37,0,.69.06.97.18.28.12.53.29.74.5l-.24.33Z"/>
  </g>
  <path class="cls-4" d="M60.7,110.71c.38,0,.72.06,1.03.19.31.13.57.31.78.54s.38.51.5.85c.11.33.17.7.17,1.11s-.06.78-.17,1.11c-.12.33-.28.61-.5.84s-.48.41-.78.54c-.31.12-.65.19-1.03.19s-.73-.06-1.04-.19c-.31-.12-.57-.3-.78-.54-.22-.23-.38-.51-.5-.84s-.17-.7-.17-1.11.06-.78.17-1.11c.11-.33.28-.61.5-.85.22-.23.48-.41.78-.54.31-.13.65-.19,1.04-.19ZM60.7,115.37c.51,0,.9-.17,1.15-.52s.38-.83.38-1.44-.13-1.1-.38-1.45c-.25-.35-.64-.52-1.15-.52-.26,0-.49.04-.68.13-.19.09-.35.22-.48.38-.13.17-.22.38-.29.62-.06.24-.1.52-.1.83,0,.62.13,1.1.38,1.44.26.34.64.52,1.17.52Z"/>
  <path class="cls-4" d="M121.49,100.46v7.37h-1v-3.35h-3.98v3.35h-1v-7.37h1v3.29h3.98v-3.29h1Z"/>
  <g>
    <path class="cls-4" d="M127.23,107.11c-.11.14-.25.26-.41.36-.16.1-.33.18-.51.25-.18.06-.37.11-.56.15-.19.03-.38.05-.57.05-.36,0-.69-.06-1-.18-.3-.12-.57-.3-.79-.53s-.39-.53-.52-.87c-.12-.35-.19-.74-.19-1.19,0-.36.06-.7.17-1.02.11-.32.27-.59.48-.82.21-.23.46-.41.77-.54.3-.13.64-.2,1.02-.2.31,0,.6.05.87.16.27.1.5.25.69.45s.35.44.46.73c.11.29.16.62.16.99,0,.14-.02.24-.05.29-.03.05-.09.07-.17.07h-3.48c.01.33.06.62.14.86s.19.45.34.61c.14.16.32.29.51.37.2.08.42.12.67.12.23,0,.43-.03.59-.08.17-.05.31-.11.43-.17s.22-.12.3-.17c.08-.05.15-.08.21-.08.08,0,.13.03.17.09l.26.33ZM126.49,104.66c0-.21-.03-.41-.09-.58-.06-.18-.15-.33-.26-.46-.11-.13-.25-.23-.42-.3s-.35-.11-.56-.11c-.44,0-.79.13-1.04.38-.26.25-.41.61-.48,1.06h2.85Z"/>
    <path class="cls-4" d="M129.38,100.26v7.58h-.92v-7.58h.92Z"/>
    <path class="cls-4" d="M132.02,100.99c0,.09-.02.17-.05.25-.04.08-.08.15-.14.21s-.13.11-.21.14-.17.05-.25.05-.17-.02-.25-.05-.15-.08-.2-.14c-.06-.06-.1-.13-.14-.21s-.05-.16-.05-.25.02-.17.05-.25.08-.15.14-.21c.06-.06.13-.11.2-.14s.16-.05.25-.05.17.02.25.05.15.08.21.14.11.13.14.21c.04.08.05.17.05.25ZM131.83,102.62v5.21h-.92v-5.21h.92Z"/>
    <path class="cls-4" d="M136.96,103.55s-.05.07-.08.09-.07.03-.11.03c-.05,0-.11-.02-.17-.06-.06-.04-.14-.09-.23-.14-.09-.05-.2-.1-.33-.14s-.29-.06-.49-.06c-.26,0-.48.05-.68.14-.2.09-.36.22-.49.39-.13.17-.23.38-.3.62-.07.24-.1.52-.1.82s.04.6.11.84c.07.25.17.45.31.62.13.17.29.29.48.38.19.09.4.13.63.13s.41-.03.55-.08c.14-.05.26-.11.36-.18.09-.07.17-.12.24-.18.06-.05.13-.08.19-.08.08,0,.13.03.18.09l.26.33c-.11.14-.24.26-.39.36-.14.1-.3.18-.47.25s-.34.12-.52.15-.37.05-.56.05c-.33,0-.63-.06-.91-.18-.28-.12-.52-.29-.73-.52-.21-.23-.37-.51-.48-.84-.12-.33-.17-.71-.17-1.14,0-.39.05-.75.16-1.08.11-.33.27-.61.47-.85.21-.24.46-.42.77-.56s.65-.2,1.05-.2c.37,0,.69.06.97.18.28.12.53.29.74.5l-.24.33Z"/>
    <path class="cls-4" d="M140.44,102.54c.38,0,.72.06,1.03.19.31.13.57.31.78.54s.38.51.5.85c.12.33.17.7.17,1.11s-.06.78-.17,1.11c-.11.33-.28.61-.5.84s-.48.41-.78.54c-.3.12-.65.19-1.03.19s-.73-.06-1.04-.19-.57-.3-.79-.54c-.22-.23-.38-.51-.5-.84s-.17-.7-.17-1.11.06-.78.17-1.11c.12-.33.28-.61.5-.85.22-.23.48-.41.79-.54s.65-.19,1.04-.19ZM140.44,107.19c.51,0,.9-.17,1.15-.52s.38-.83.38-1.44-.13-1.1-.38-1.45c-.25-.35-.64-.52-1.15-.52-.26,0-.49.04-.68.13-.19.09-.35.22-.48.38s-.22.38-.29.62c-.06.24-.09.52-.09.83,0,.62.13,1.1.38,1.44s.64.52,1.17.52Z"/>
    <path class="cls-4" d="M145,103.38c.22-.25.47-.46.74-.61.28-.15.59-.23.96-.23.3,0,.58.06.83.18s.45.29.62.51c.17.22.3.49.39.81.09.31.14.67.14,1.06,0,.42-.05.81-.15,1.15-.1.35-.25.64-.45.89s-.43.44-.71.57c-.28.13-.59.2-.94.2s-.63-.06-.87-.19-.44-.31-.62-.55l-.05.47c-.03.13-.11.2-.24.2h-.59v-7.58h.92v3.12ZM145,106.58c.17.23.35.39.55.48.2.09.42.14.66.14.49,0,.87-.17,1.13-.52.26-.35.39-.86.39-1.55,0-.64-.12-1.11-.35-1.41-.23-.3-.56-.45-.99-.45-.3,0-.56.07-.78.21-.22.14-.43.33-.61.58v2.52Z"/>
    <path class="cls-4" d="M149.71,103.36c.29-.28.6-.48.93-.62.33-.14.7-.21,1.11-.21.29,0,.55.05.78.14s.42.23.57.4c.15.17.27.38.35.62.08.24.12.51.12.8v3.33h-.41c-.09,0-.16-.01-.21-.04-.05-.03-.09-.09-.11-.17l-.1-.49c-.14.13-.27.24-.4.34-.13.1-.27.18-.41.25-.14.07-.3.12-.46.15s-.34.05-.54.05-.39-.03-.57-.08-.33-.14-.47-.26c-.13-.11-.24-.26-.31-.43-.08-.17-.12-.38-.12-.61,0-.21.06-.4.17-.59.11-.19.3-.36.55-.51.25-.15.58-.27.99-.36.41-.09.91-.15,1.5-.16v-.41c0-.4-.09-.71-.26-.92-.18-.21-.43-.31-.77-.31-.23,0-.42.03-.57.08-.15.06-.28.12-.4.19-.11.07-.21.13-.29.19-.08.06-.16.08-.24.08-.06,0-.12-.02-.16-.05-.04-.03-.08-.07-.11-.12l-.16-.29ZM152.66,105.49c-.42.01-.78.05-1.08.1-.3.05-.54.12-.73.21-.19.09-.32.19-.41.3-.08.12-.13.25-.13.39s.02.25.07.35c.04.1.11.18.18.24.08.06.17.11.27.14s.22.04.34.04c.16,0,.31-.02.44-.05.13-.03.26-.08.38-.14.12-.06.23-.14.34-.22.11-.09.21-.18.32-.29v-1.08Z"/>
    <path class="cls-4" d="M158.58,103.55s-.05.07-.08.09-.07.03-.11.03c-.05,0-.11-.02-.17-.06-.06-.04-.14-.09-.23-.14-.09-.05-.2-.1-.33-.14s-.29-.06-.49-.06c-.26,0-.48.05-.68.14-.2.09-.36.22-.49.39-.13.17-.23.38-.3.62-.07.24-.1.52-.1.82s.04.6.11.84c.07.25.17.45.31.62.13.17.29.29.48.38.19.09.4.13.63.13s.41-.03.55-.08c.14-.05.26-.11.36-.18.09-.07.17-.12.24-.18.06-.05.13-.08.19-.08.08,0,.13.03.18.09l.26.33c-.11.14-.24.26-.39.36-.14.1-.3.18-.47.25s-.34.12-.52.15-.37.05-.56.05c-.33,0-.63-.06-.91-.18-.28-.12-.52-.29-.73-.52-.21-.23-.37-.51-.48-.84-.12-.33-.17-.71-.17-1.14,0-.39.05-.75.16-1.08.11-.33.27-.61.47-.85.21-.24.46-.42.77-.56s.65-.2,1.05-.2c.37,0,.69.06.97.18.28.12.53.29.74.5l-.24.33Z"/>
    <path class="cls-4" d="M161.47,107.92c-.41,0-.73-.12-.95-.34-.22-.23-.33-.56-.33-.99v-3.19h-.63c-.05,0-.1-.02-.14-.05-.04-.03-.06-.08-.06-.15v-.37l.85-.11.21-1.61c.01-.05.03-.09.07-.13.04-.03.08-.05.14-.05h.46v1.79h1.51v.66h-1.51v3.13c0,.22.05.38.16.49s.24.16.41.16c.1,0,.18-.01.25-.04.07-.03.13-.05.18-.09.05-.03.09-.06.13-.08s.07-.04.09-.04c.05,0,.09.03.13.09l.27.44c-.16.15-.35.26-.57.35-.22.08-.45.13-.69.13Z"/>
    <path class="cls-4" d="M167.79,107.11c-.11.14-.25.26-.41.36-.16.1-.33.18-.51.25-.18.06-.37.11-.56.15-.19.03-.38.05-.57.05-.36,0-.69-.06-1-.18-.3-.12-.57-.3-.79-.53-.22-.24-.39-.53-.52-.87-.12-.35-.19-.74-.19-1.19,0-.36.06-.7.17-1.02.11-.32.27-.59.48-.82s.46-.41.77-.54c.3-.13.64-.2,1.02-.2.31,0,.6.05.87.16.27.1.5.25.69.45s.35.44.46.73c.11.29.17.62.17.99,0,.14-.02.24-.05.29-.03.05-.09.07-.17.07h-3.48c0,.33.06.62.14.86.08.24.19.45.34.61.14.16.32.29.51.37.2.08.42.12.67.12.23,0,.43-.03.59-.08.17-.05.31-.11.43-.17s.22-.12.3-.17c.08-.05.15-.08.21-.08.08,0,.13.03.17.09l.26.33ZM167.04,104.66c0-.21-.03-.41-.09-.58-.06-.18-.15-.33-.26-.46-.12-.13-.25-.23-.42-.3-.17-.07-.35-.11-.56-.11-.44,0-.79.13-1.04.38s-.41.61-.48,1.06h2.85Z"/>
  </g>
  <path class="cls-4" d="M169.74,103.67c.17-.36.37-.63.61-.84.24-.2.53-.3.88-.3.11,0,.21.01.32.04.1.02.19.06.27.11l-.07.68c-.02.09-.07.13-.15.13-.05,0-.12-.01-.21-.03-.09-.02-.2-.03-.31-.03-.16,0-.31.02-.44.07s-.24.12-.34.21c-.1.09-.19.21-.27.35-.08.14-.15.3-.22.48v3.29h-.92v-5.21h.52c.1,0,.17.02.21.06s.06.1.08.2l.06.79Z"/>
  <g>
    <path class="cls-4" d="M175.91,103.43c.22-.27.47-.49.76-.65s.62-.25.99-.25c.3,0,.57.06.82.17.24.12.45.29.62.51s.3.5.4.84c.09.33.14.71.14,1.15,0,.38-.05.74-.15,1.07-.1.33-.25.62-.45.86-.19.24-.43.43-.71.57s-.59.21-.94.21c-.32,0-.59-.05-.82-.16-.23-.11-.43-.26-.6-.45v2.3h-.92v-6.98h.55c.13,0,.21.06.24.19l.08.62ZM175.96,106.58c.17.23.35.39.55.48.2.09.42.14.67.14.49,0,.86-.17,1.12-.52.26-.35.39-.84.39-1.48,0-.34-.03-.63-.09-.88-.06-.24-.15-.44-.26-.6s-.25-.27-.42-.34c-.16-.07-.35-.11-.56-.11-.3,0-.56.07-.78.21-.22.14-.43.33-.62.58v2.52Z"/>
    <path class="cls-4" d="M185.17,102.62l-2.91,6.75c-.03.07-.07.12-.12.16-.05.04-.12.06-.21.06h-.68l.95-2.07-2.15-4.91h.79c.08,0,.14.02.19.06.05.04.08.08.1.13l1.39,3.28c.05.14.1.29.14.45.05-.16.1-.31.15-.46l1.35-3.28c.02-.05.06-.1.11-.14.05-.04.11-.05.17-.05h.73Z"/>
  </g>
  <g>
    <path class="cls-4" d="M186.92,100.26v7.58h-.92v-7.58h.92Z"/>
    <path class="cls-4" d="M190.6,102.54c.38,0,.72.06,1.03.19.31.13.57.31.78.54s.38.51.5.85c.12.33.17.7.17,1.11s-.06.78-.17,1.11c-.11.33-.28.61-.5.84s-.48.41-.78.54c-.3.12-.65.19-1.03.19s-.73-.06-1.04-.19-.57-.3-.79-.54c-.22-.23-.38-.51-.5-.84s-.17-.7-.17-1.11.06-.78.17-1.11c.12-.33.28-.61.5-.85.22-.23.48-.41.79-.54s.65-.19,1.04-.19ZM190.6,107.19c.51,0,.9-.17,1.15-.52s.38-.83.38-1.44-.13-1.1-.38-1.45c-.25-.35-.64-.52-1.15-.52-.26,0-.49.04-.68.13-.19.09-.35.22-.48.38s-.22.38-.29.62c-.06.24-.09.52-.09.83,0,.62.13,1.1.38,1.44s.64.52,1.17.52Z"/>
    <path class="cls-4" d="M195.11,103.67c.17-.36.37-.63.61-.84.24-.2.53-.3.88-.3.11,0,.21.01.32.04.1.02.19.06.27.11l-.07.68c-.02.09-.07.13-.15.13-.05,0-.12-.01-.21-.03-.09-.02-.2-.03-.31-.03-.16,0-.31.02-.44.07s-.24.12-.34.21c-.1.09-.19.21-.27.35-.08.14-.15.3-.22.48v3.29h-.92v-5.21h.52c.1,0,.17.02.21.06s.06.1.08.2l.06.79Z"/>
    <path class="cls-4" d="M199.15,100.99c0,.09-.02.17-.05.25s-.08.15-.14.21c-.06.06-.13.11-.21.14-.08.03-.17.05-.25.05s-.17-.02-.25-.05-.14-.08-.2-.14c-.06-.06-.1-.13-.14-.21s-.05-.16-.05-.25.02-.17.05-.25.08-.15.14-.21c.06-.06.13-.11.2-.14s.16-.05.25-.05.17.02.25.05c.08.03.15.08.21.14.06.06.11.13.14.21s.05.17.05.25ZM198.95,102.62v5.21h-.92v-5.21h.92Z"/>
  </g>
  <g>
    <path class="cls-4" d="M121.51,124.19h-.77c-.09,0-.16-.02-.22-.07-.06-.04-.1-.1-.12-.17l-.69-1.78h-3.31l-.69,1.78c-.02.06-.06.12-.12.16-.06.05-.13.07-.22.07h-.77l2.95-7.37h1.01l2.95,7.37ZM119.44,121.45l-1.16-3c-.03-.09-.07-.19-.11-.31-.04-.12-.07-.25-.11-.38-.07.28-.15.51-.22.69l-1.16,2.99h2.75Z"/>
    <path class="cls-4" d="M123.11,119.73c.11-.13.23-.24.36-.35.13-.1.26-.19.4-.26.14-.07.29-.13.45-.17.16-.04.33-.06.52-.06.28,0,.54.05.75.14.22.09.4.23.54.4.15.17.26.38.33.62.08.24.11.51.11.81v3.32h-.92v-3.32c0-.39-.09-.7-.27-.92-.18-.22-.45-.33-.82-.33-.27,0-.52.07-.76.2s-.45.31-.65.53v3.84h-.92v-5.21h.55c.13,0,.21.06.24.19l.07.57Z"/>
  </g>
  <path class="cls-4" d="M132.75,119.07h-3.6v-1.79h-.46c-.06,0-.11.02-.14.05-.04.03-.06.07-.07.12l-.21,1.6-.85.11v.36c0,.07.01.12.05.15s.08.05.14.05h.63v3.19c0,.43.1.76.33.99.22.24.53.35.95.35.24,0,.46-.04.69-.12s.41-.21.58-.35l-.27-.44c-.04-.05-.08-.08-.13-.08-.03,0-.06.01-.09.04-.04.02-.08.05-.13.08s-.11.06-.19.08c-.07.03-.15.04-.25.04-.16,0-.31-.05-.41-.16-.1-.1-.15-.27-.15-.48v-3.13h2.68v4.44h.92v-5.11ZM132.92,117.05c-.03-.08-.08-.14-.14-.21s-.12-.11-.21-.14-.16-.05-.25-.05c-.09,0-.17.02-.26.05-.07.03-.14.08-.2.14-.06.06-.11.12-.14.21s-.05.16-.05.26.02.17.05.25c.03.08.08.14.14.21.05.06.12.1.2.13.08.04.16.05.26.05.08,0,.16-.01.25-.05.08-.03.14-.07.21-.13s.11-.12.14-.21c.04-.07.06-.15.06-.25s-.02-.17-.06-.26h0Z"/>
  <path class="cls-4" d="M134.17,120.71h2.54v.78h-2.54v-.78Z"/>
  <g>
    <path class="cls-4" d="M139.24,117.34c0,.09-.02.17-.05.25s-.08.15-.14.21c-.06.06-.13.11-.21.14-.08.03-.17.05-.25.05s-.17-.02-.25-.05-.14-.08-.2-.14c-.06-.06-.1-.13-.14-.21s-.05-.16-.05-.25.02-.17.05-.25.08-.15.14-.21c.06-.06.13-.11.2-.14s.16-.05.25-.05.17.02.25.05c.08.03.15.08.21.14.06.06.11.13.14.21s.05.17.05.25ZM139.04,118.98v5.21h-.92v-5.21h.92Z"/>
    <path class="cls-4" d="M141.41,119.73c.11-.13.23-.24.36-.35.13-.1.26-.19.4-.26.14-.07.29-.13.45-.17.16-.04.33-.06.52-.06.29,0,.54.05.75.14.22.09.4.23.55.4.15.17.26.38.33.62.08.24.11.51.11.81v3.32h-.92v-3.32c0-.39-.09-.7-.27-.92-.18-.22-.45-.33-.82-.33-.27,0-.52.07-.76.2-.23.13-.45.31-.65.53v3.84h-.92v-5.21h.55c.13,0,.21.06.24.19l.07.57Z"/>
  </g>
  <path class="cls-4" d="M146.56,124.19v-4.43l-.58-.07c-.08-.02-.14-.04-.18-.08-.04-.04-.07-.09-.07-.16v-.38h.82v-.28c0-.29.04-.56.13-.82.09-.26.22-.48.4-.68.18-.19.4-.34.67-.46s.58-.17.94-.17c.26,0,.52,0,.76.03.25.02.48.03.71.04h.62v7.45h-.91v-6.8c-.19,0-.37-.01-.56-.03-.19,0-.35-.01-.49-.01-.45,0-.79.13-1.03.38-.24.25-.36.61-.36,1.07v.28h1.35v.66h-1.33v4.45h-.92Z"/>
  <path class="cls-4" d="M152.14,119.71c.29-.28.6-.48.93-.62.33-.14.7-.21,1.11-.21.29,0,.55.05.78.14s.42.23.57.4c.15.17.27.38.35.62.08.24.12.51.12.8v3.33h-.41c-.09,0-.16-.01-.21-.04-.05-.03-.09-.09-.11-.17l-.1-.49c-.14.13-.27.24-.4.34-.13.1-.27.18-.41.25-.14.07-.3.12-.46.15s-.34.05-.54.05-.39-.03-.57-.08-.33-.14-.47-.26c-.13-.11-.24-.26-.31-.43-.08-.17-.12-.38-.12-.61,0-.21.06-.4.17-.59.11-.19.3-.36.55-.51.25-.15.58-.27.99-.36.41-.09.91-.15,1.5-.16v-.41c0-.4-.09-.71-.26-.92-.18-.21-.43-.31-.77-.31-.23,0-.42.03-.57.08-.15.06-.28.12-.4.19-.11.07-.21.13-.29.19-.08.06-.16.08-.24.08-.06,0-.12-.02-.16-.05-.04-.03-.08-.07-.11-.12l-.16-.29ZM155.1,121.84c-.42.01-.78.05-1.08.1-.3.05-.54.12-.73.21-.19.09-.32.19-.41.3-.08.12-.13.25-.13.39s.02.25.07.35c.04.1.11.18.18.24.08.06.17.11.27.14s.22.04.34.04c.16,0,.31-.02.44-.05.13-.03.26-.08.38-.14.12-.06.23-.14.34-.22.11-.09.21-.18.32-.29v-1.08Z"/>
  <g>
    <path class="cls-4" d="M157.39,124.19v-5.21h.55c.13,0,.21.06.24.19l.07.54c.19-.24.41-.43.65-.58.24-.15.52-.23.83-.23.35,0,.63.1.85.29s.38.46.47.79c.08-.19.17-.35.29-.49s.25-.25.4-.34c.15-.09.3-.15.47-.2s.33-.06.51-.06c.27,0,.52.04.73.13.21.09.4.22.54.38s.26.38.34.62c.08.25.12.53.12.84v3.32h-.92v-3.32c0-.41-.09-.72-.27-.93-.18-.21-.44-.32-.77-.32-.15,0-.29.03-.43.08-.14.05-.25.13-.36.23-.1.1-.18.23-.24.39-.06.16-.09.34-.09.54v3.32h-.92v-3.32c0-.42-.08-.73-.25-.94s-.41-.31-.74-.31c-.23,0-.44.06-.63.18-.19.12-.37.29-.53.5v3.88h-.92Z"/>
    <path class="cls-4" d="M165.71,119.71c.29-.28.6-.48.93-.62.33-.14.7-.21,1.11-.21.29,0,.55.05.78.14s.42.23.57.4c.15.17.27.38.35.62.08.24.12.51.12.8v3.33h-.41c-.09,0-.16-.01-.21-.04-.05-.03-.09-.09-.11-.17l-.1-.49c-.14.13-.27.24-.4.34-.13.1-.27.18-.41.25-.14.07-.3.12-.46.15s-.34.05-.54.05-.39-.03-.57-.08-.33-.14-.47-.26c-.13-.11-.24-.26-.31-.43-.08-.17-.12-.38-.12-.61,0-.21.06-.4.17-.59.11-.19.3-.36.55-.51.25-.15.58-.27.99-.36.41-.09.91-.15,1.5-.16v-.41c0-.4-.09-.71-.26-.92-.18-.21-.43-.31-.77-.31-.23,0-.42.03-.57.08-.15.06-.28.12-.4.19-.11.07-.21.13-.29.19-.08.06-.16.08-.24.08-.06,0-.12-.02-.16-.05-.04-.03-.08-.07-.11-.12l-.16-.29ZM168.67,121.84c-.42.01-.78.05-1.08.1-.3.05-.54.12-.73.21-.19.09-.32.19-.41.3-.08.12-.13.25-.13.39s.02.25.07.35c.04.1.11.18.18.24.08.06.17.11.27.14s.22.04.34.04c.16,0,.31-.02.44-.05.13-.03.26-.08.38-.14.12-.06.23-.14.34-.22.11-.09.21-.18.32-.29v-1.08Z"/>
    <path class="cls-4" d="M172.55,124.27c-.41,0-.73-.12-.95-.34-.22-.23-.33-.56-.33-.99v-3.19h-.63c-.05,0-.1-.02-.14-.05-.04-.03-.06-.08-.06-.15v-.37l.85-.11.21-1.61c.01-.05.03-.09.07-.13.04-.03.08-.05.14-.05h.46v1.79h1.51v.66h-1.51v3.13c0,.22.05.38.16.49s.24.16.41.16c.1,0,.18-.01.25-.04.07-.03.13-.05.18-.09.05-.03.09-.06.13-.08s.07-.04.09-.04c.05,0,.09.03.13.09l.27.44c-.16.15-.35.26-.57.35-.22.08-.45.13-.69.13Z"/>
    <path class="cls-4" d="M176.82,118.89c.38,0,.72.06,1.03.19.31.13.57.31.78.54s.38.51.5.85c.12.33.17.7.17,1.11s-.06.78-.17,1.11c-.11.33-.28.61-.5.84s-.48.41-.78.54c-.3.12-.65.19-1.03.19s-.73-.06-1.04-.19-.57-.3-.79-.54c-.22-.23-.38-.51-.5-.84s-.17-.7-.17-1.11.06-.78.17-1.11c.12-.33.28-.61.5-.85.22-.23.48-.41.79-.54s.65-.19,1.04-.19ZM176.82,123.54c.51,0,.9-.17,1.15-.52s.38-.83.38-1.44-.13-1.1-.38-1.45c-.25-.35-.64-.52-1.15-.52-.26,0-.49.04-.68.13-.19.09-.35.22-.48.38s-.22.38-.29.62c-.06.24-.09.52-.09.83,0,.62.13,1.1.38,1.44s.64.52,1.17.52ZM178.32,116.73l-1.2,1.33c-.05.05-.09.09-.14.11-.05.02-.11.03-.18.03h-.55l.76-1.25c.05-.08.1-.14.16-.17.06-.04.14-.05.25-.05h.9Z"/>
    <path class="cls-4" d="M181.32,120.02c.17-.36.37-.63.61-.84.24-.2.53-.3.88-.3.11,0,.21.01.32.04.1.02.19.06.27.11l-.07.68c-.02.09-.07.13-.15.13-.05,0-.12-.01-.21-.03-.09-.02-.2-.03-.31-.03-.16,0-.31.02-.44.07s-.24.12-.34.21c-.1.09-.19.21-.27.35-.08.14-.15.3-.22.48v3.29h-.92v-5.21h.52c.1,0,.17.02.21.06s.06.1.08.2l.06.79Z"/>
    <path class="cls-4" d="M185.35,117.34c0,.09-.02.17-.05.25s-.08.15-.14.21c-.06.06-.13.11-.21.14-.08.03-.17.05-.25.05s-.17-.02-.25-.05-.14-.08-.2-.14c-.06-.06-.1-.13-.14-.21s-.05-.16-.05-.25.02-.17.05-.25.08-.15.14-.21c.06-.06.13-.11.2-.14s.16-.05.25-.05.17.02.25.05c.08.03.15.08.21.14.06.06.11.13.14.21s.05.17.05.25ZM185.15,118.98v5.21h-.92v-5.21h.92Z"/>
    <path class="cls-4" d="M188.84,118.89c.38,0,.72.06,1.03.19.31.13.57.31.78.54s.38.51.5.85c.12.33.17.7.17,1.11s-.06.78-.17,1.11c-.11.33-.28.61-.5.84s-.48.41-.78.54c-.3.12-.65.19-1.03.19s-.73-.06-1.04-.19-.57-.3-.79-.54c-.22-.23-.38-.51-.5-.84s-.17-.7-.17-1.11.06-.78.17-1.11c.12-.33.28-.61.5-.85.22-.23.48-.41.79-.54s.65-.19,1.04-.19ZM188.84,123.54c.51,0,.9-.17,1.15-.52s.38-.83.38-1.44-.13-1.1-.38-1.45c-.25-.35-.64-.52-1.15-.52-.26,0-.49.04-.68.13-.19.09-.35.22-.48.38s-.22.38-.29.62c-.06.24-.09.52-.09.83,0,.62.13,1.1.38,1.44s.64.52,1.17.52Z"/>
    <path class="cls-4" d="M195.5,119.83c-.04.08-.1.11-.19.11-.05,0-.11-.02-.17-.06s-.14-.08-.24-.13c-.09-.05-.21-.09-.34-.13-.13-.04-.28-.06-.46-.06-.15,0-.29.02-.42.06-.12.04-.23.09-.32.16-.09.07-.15.15-.2.24-.05.09-.07.19-.07.3,0,.13.04.25.12.33.08.09.18.17.31.23.13.06.27.12.43.17s.33.1.5.16c.17.06.33.12.5.19s.31.15.43.26c.13.1.23.23.31.38.08.15.12.33.12.54,0,.24-.04.46-.13.67s-.21.38-.38.53c-.17.15-.37.27-.62.35-.24.09-.53.13-.84.13-.36,0-.69-.06-.99-.18-.29-.12-.54-.27-.75-.46l.22-.35s.06-.08.1-.1c.04-.02.09-.04.14-.04.06,0,.13.02.2.07.07.05.15.1.25.16.1.06.22.11.36.16.14.05.32.07.52.07.18,0,.33-.02.47-.07s.25-.11.33-.19c.09-.08.16-.17.2-.27.04-.1.06-.21.06-.33,0-.14-.04-.26-.12-.36s-.18-.17-.31-.24c-.13-.07-.27-.12-.43-.17-.16-.05-.33-.1-.5-.16-.17-.05-.34-.12-.5-.19-.16-.07-.31-.16-.43-.26s-.23-.24-.31-.39-.12-.35-.12-.57c0-.2.04-.39.12-.57.08-.18.2-.34.36-.48.16-.14.35-.25.58-.33.23-.08.49-.12.79-.12.34,0,.65.05.92.16.27.11.51.26.71.45l-.21.33Z"/>
    <path class="cls-4" d="M200.4,119.73c.11-.13.23-.24.36-.35.13-.1.26-.19.4-.26.14-.07.29-.13.45-.17.16-.04.33-.06.52-.06.29,0,.54.05.75.14.22.09.4.23.55.4.15.17.26.38.33.62.08.24.11.51.11.81v3.32h-.92v-3.32c0-.39-.09-.7-.27-.92-.18-.22-.45-.33-.82-.33-.27,0-.52.07-.76.2-.23.13-.45.31-.65.53v3.84h-.92v-5.21h.55c.13,0,.21.06.24.19l.07.57Z"/>
    <path class="cls-4" d="M205.13,119.71c.29-.28.6-.48.93-.62.33-.14.7-.21,1.11-.21.29,0,.55.05.78.14s.42.23.57.4c.15.17.27.38.35.62.08.24.12.51.12.8v3.33h-.41c-.09,0-.16-.01-.21-.04-.05-.03-.09-.09-.11-.17l-.1-.49c-.14.13-.27.24-.4.34-.13.1-.27.18-.41.25-.14.07-.3.12-.46.15s-.34.05-.54.05-.39-.03-.57-.08-.33-.14-.47-.26c-.13-.11-.24-.26-.31-.43-.08-.17-.12-.38-.12-.61,0-.21.06-.4.17-.59.11-.19.3-.36.55-.51.25-.15.58-.27.99-.36.41-.09.91-.15,1.5-.16v-.41c0-.4-.09-.71-.26-.92-.18-.21-.43-.31-.77-.31-.23,0-.42.03-.57.08-.15.06-.28.12-.4.19-.11.07-.21.13-.29.19-.08.06-.16.08-.24.08-.06,0-.12-.02-.16-.05-.04-.03-.08-.07-.11-.12l-.16-.29ZM207.62,117.37c.12,0,.22-.04.29-.11.07-.07.1-.18.11-.33h.56c0,.16-.02.31-.06.45-.04.13-.1.25-.18.35-.08.1-.18.17-.29.22-.11.05-.24.08-.37.08-.12,0-.23-.02-.34-.07-.11-.05-.2-.1-.3-.16s-.18-.11-.26-.16-.16-.07-.24-.07c-.25,0-.37.15-.38.45h-.57c0-.17.02-.32.07-.45.04-.13.11-.25.19-.35s.18-.17.29-.23c.11-.05.24-.08.37-.08.12,0,.23.03.34.08s.2.1.3.16c.09.06.18.11.26.16.08.05.16.08.24.08ZM208.09,121.84c-.42.01-.78.05-1.08.1-.3.05-.54.12-.73.21-.19.09-.32.19-.41.3-.08.12-.13.25-.13.39s.02.25.07.35c.04.1.11.18.18.24.08.06.17.11.27.14s.22.04.34.04c.16,0,.31-.02.44-.05.13-.03.26-.08.38-.14.12-.06.23-.14.34-.22.11-.09.21-.18.32-.29v-1.08Z"/>
    <path class="cls-4" d="M212.57,118.89c.38,0,.72.06,1.03.19.31.13.57.31.78.54s.38.51.5.85c.12.33.17.7.17,1.11s-.06.78-.17,1.11c-.11.33-.28.61-.5.84s-.48.41-.78.54c-.3.12-.65.19-1.03.19s-.73-.06-1.04-.19-.57-.3-.79-.54c-.22-.23-.38-.51-.5-.84s-.17-.7-.17-1.11.06-.78.17-1.11c.12-.33.28-.61.5-.85.22-.23.48-.41.79-.54s.65-.19,1.04-.19ZM212.57,123.54c.51,0,.9-.17,1.15-.52s.38-.83.38-1.44-.13-1.1-.38-1.45c-.25-.35-.64-.52-1.15-.52-.26,0-.49.04-.68.13-.19.09-.35.22-.48.38s-.22.38-.29.62c-.06.24-.09.52-.09.83,0,.62.13,1.1.38,1.44s.64.52,1.17.52Z"/>
    <path class="cls-4" d="M223.05,123.46c-.11.14-.25.26-.41.36-.16.1-.33.18-.51.25-.18.06-.37.11-.56.15-.19.03-.38.05-.57.05-.36,0-.69-.06-1-.18-.3-.12-.57-.3-.79-.53-.22-.24-.39-.53-.52-.87-.12-.35-.19-.74-.19-1.19,0-.36.06-.7.17-1.02.11-.32.27-.59.48-.82s.46-.41.77-.54c.3-.13.64-.2,1.02-.2.31,0,.6.05.87.16.27.1.5.25.69.45s.35.44.46.73c.11.29.17.62.17.99,0,.14-.02.24-.05.29-.03.05-.09.07-.17.07h-3.48c0,.33.06.62.14.86.08.24.19.45.34.61.14.16.32.29.51.37.2.08.42.12.67.12.23,0,.43-.03.59-.08.17-.05.31-.11.43-.17s.22-.12.3-.17c.08-.05.15-.08.21-.08.08,0,.13.03.17.09l.26.33ZM222.31,121.01c0-.21-.03-.41-.09-.58-.06-.18-.15-.33-.26-.46-.12-.13-.25-.23-.42-.3-.17-.07-.35-.11-.56-.11-.44,0-.79.13-1.04.38s-.41.61-.48,1.06h2.85Z"/>
    <path class="cls-4" d="M227.28,119.83c-.04.08-.1.11-.19.11-.05,0-.11-.02-.17-.06s-.14-.08-.24-.13c-.09-.05-.21-.09-.34-.13-.13-.04-.28-.06-.46-.06-.15,0-.29.02-.42.06-.12.04-.23.09-.32.16-.09.07-.15.15-.2.24-.05.09-.07.19-.07.3,0,.13.04.25.12.33.08.09.18.17.31.23.13.06.27.12.43.17s.33.1.5.16c.17.06.33.12.5.19s.31.15.43.26c.13.1.23.23.31.38.08.15.12.33.12.54,0,.24-.04.46-.13.67s-.21.38-.38.53c-.17.15-.37.27-.62.35-.24.09-.53.13-.84.13-.36,0-.69-.06-.99-.18-.29-.12-.54-.27-.75-.46l.22-.35s.06-.08.1-.1c.04-.02.09-.04.14-.04.06,0,.13.02.2.07.07.05.15.1.25.16.1.06.22.11.36.16.14.05.32.07.52.07.18,0,.33-.02.47-.07s.25-.11.33-.19c.09-.08.16-.17.2-.27.04-.1.06-.21.06-.33,0-.14-.04-.26-.12-.36s-.18-.17-.31-.24c-.13-.07-.27-.12-.43-.17-.16-.05-.33-.1-.5-.16-.17-.05-.34-.12-.5-.19-.16-.07-.31-.16-.43-.26s-.23-.24-.31-.39-.12-.35-.12-.57c0-.2.04-.39.12-.57.08-.18.2-.34.36-.48.16-.14.35-.25.58-.33.23-.08.49-.12.79-.12.34,0,.65.05.92.16.27.11.51.26.71.45l-.21.33Z"/>
    <path class="cls-4" d="M230.29,124.27c-.41,0-.73-.12-.95-.34-.22-.23-.33-.56-.33-.99v-3.19h-.63c-.05,0-.1-.02-.14-.05-.04-.03-.06-.08-.06-.15v-.37l.85-.11.21-1.61c.01-.05.03-.09.07-.13.04-.03.08-.05.14-.05h.46v1.79h1.51v.66h-1.51v3.13c0,.22.05.38.16.49s.24.16.41.16c.1,0,.18-.01.25-.04.07-.03.13-.05.18-.09.05-.03.09-.06.13-.08s.07-.04.09-.04c.05,0,.09.03.13.09l.27.44c-.16.15-.35.26-.57.35-.22.08-.45.13-.69.13Z"/>
    <path class="cls-4" d="M236.6,123.46c-.11.14-.25.26-.41.36-.16.1-.33.18-.51.25-.18.06-.37.11-.56.15-.19.03-.38.05-.57.05-.36,0-.69-.06-1-.18-.3-.12-.57-.3-.79-.53-.22-.24-.39-.53-.52-.87-.12-.35-.19-.74-.19-1.19,0-.36.06-.7.17-1.02.11-.32.27-.59.48-.82s.46-.41.77-.54c.3-.13.64-.2,1.02-.2.31,0,.6.05.87.16.27.1.5.25.69.45s.35.44.46.73c.11.29.17.62.17.99,0,.14-.02.24-.05.29-.03.05-.09.07-.17.07h-3.48c0,.33.06.62.14.86.08.24.19.45.34.61.14.16.32.29.51.37.2.08.42.12.67.12.23,0,.43-.03.59-.08.17-.05.31-.11.43-.17s.22-.12.3-.17c.08-.05.15-.08.21-.08.08,0,.13.03.17.09l.26.33ZM235.85,121.01c0-.21-.03-.41-.09-.58-.06-.18-.15-.33-.26-.46-.12-.13-.25-.23-.42-.3-.17-.07-.35-.11-.56-.11-.44,0-.79.13-1.04.38s-.41.61-.48,1.06h2.85Z"/>
    <path class="cls-4" d="M238.66,120.02c.17-.36.37-.63.61-.84.24-.2.53-.3.88-.3.11,0,.21.01.32.04.1.02.19.06.27.11l-.07.68c-.02.09-.07.13-.15.13-.05,0-.12-.01-.21-.03-.09-.02-.2-.03-.31-.03-.16,0-.31.02-.44.07s-.24.12-.34.21c-.1.09-.19.21-.27.35-.08.14-.15.3-.22.48v3.29h-.92v-5.21h.52c.1,0,.17.02.21.06s.06.1.08.2l.06.79Z"/>
  </g>
  <g>
    <path class="cls-4" d="M243.57,118.89c.38,0,.72.06,1.03.19.31.13.57.31.78.54s.38.51.5.85c.12.33.17.7.17,1.11s-.06.78-.17,1.11c-.11.33-.28.61-.5.84s-.48.41-.78.54c-.3.12-.65.19-1.03.19s-.73-.06-1.04-.19-.57-.3-.79-.54c-.22-.23-.38-.51-.5-.84s-.17-.7-.17-1.11.06-.78.17-1.11c.12-.33.28-.61.5-.85.22-.23.48-.41.79-.54s.65-.19,1.04-.19ZM243.57,123.54c.51,0,.9-.17,1.15-.52s.38-.83.38-1.44-.13-1.1-.38-1.45c-.25-.35-.64-.52-1.15-.52-.26,0-.49.04-.68.13-.19.09-.35.22-.48.38s-.22.38-.29.62c-.06.24-.09.52-.09.83,0,.62.13,1.1.38,1.44s.64.52,1.17.52Z"/>
    <path class="cls-4" d="M248.36,117.34c0,.09-.02.17-.05.25s-.08.15-.14.21c-.06.06-.13.11-.21.14-.08.03-.17.05-.25.05s-.17-.02-.25-.05-.14-.08-.2-.14c-.06-.06-.1-.13-.14-.21s-.05-.16-.05-.25.02-.17.05-.25.08-.15.14-.21c.06-.06.13-.11.2-.14s.16-.05.25-.05.17.02.25.05c.08.03.15.08.21.14.06.06.11.13.14.21s.05.17.05.25ZM248.17,118.98v5.21h-.92v-5.21h.92Z"/>
    <path class="cls-4" d="M253.97,116.61v7.58h-.55c-.13,0-.21-.06-.25-.19l-.08-.63c-.22.27-.48.48-.76.65-.28.17-.61.25-.99.25-.3,0-.57-.06-.81-.17-.24-.12-.45-.29-.62-.51s-.3-.5-.4-.83c-.09-.33-.14-.72-.14-1.15,0-.38.05-.74.15-1.07.1-.33.25-.62.44-.86s.43-.43.71-.57c.28-.14.59-.21.94-.21.32,0,.59.05.82.16.23.11.43.26.61.45v-2.89h.92ZM253.05,120.21c-.17-.23-.36-.39-.56-.48s-.42-.14-.67-.14c-.48,0-.86.17-1.12.52-.26.35-.39.84-.39,1.48,0,.34.03.63.09.87s.14.44.26.6c.11.16.25.27.42.34.17.07.35.11.56.11.3,0,.57-.07.79-.21.22-.14.43-.33.62-.58v-2.52Z"/>
    <path class="cls-4" d="M255.28,119.71c.29-.28.6-.48.93-.62.33-.14.7-.21,1.11-.21.29,0,.55.05.78.14s.42.23.57.4c.15.17.27.38.35.62.08.24.12.51.12.8v3.33h-.41c-.09,0-.16-.01-.21-.04-.05-.03-.09-.09-.11-.17l-.1-.49c-.14.13-.27.24-.4.34-.13.1-.27.18-.41.25-.14.07-.3.12-.46.15s-.34.05-.54.05-.39-.03-.57-.08-.33-.14-.47-.26c-.13-.11-.24-.26-.31-.43-.08-.17-.12-.38-.12-.61,0-.21.06-.4.17-.59.11-.19.3-.36.55-.51.25-.15.58-.27.99-.36.41-.09.91-.15,1.5-.16v-.41c0-.4-.09-.71-.26-.92-.18-.21-.43-.31-.77-.31-.23,0-.42.03-.57.08-.15.06-.28.12-.4.19-.11.07-.21.13-.29.19-.08.06-.16.08-.24.08-.06,0-.12-.02-.16-.05-.04-.03-.08-.07-.11-.12l-.16-.29ZM258.23,121.84c-.42.01-.78.05-1.08.1-.3.05-.54.12-.73.21-.19.09-.32.19-.41.3-.08.12-.13.25-.13.39s.02.25.07.35c.04.1.11.18.18.24.08.06.17.11.27.14s.22.04.34.04c.16,0,.31-.02.44-.05.13-.03.26-.08.38-.14.12-.06.23-.14.34-.22.11-.09.21-.18.32-.29v-1.08Z"/>
    <path class="cls-4" d="M261.68,117.34c0,.09-.02.17-.05.25s-.08.15-.14.21c-.06.06-.13.11-.21.14-.08.03-.17.05-.25.05s-.17-.02-.25-.05-.14-.08-.2-.14c-.06-.06-.1-.13-.14-.21s-.05-.16-.05-.25.02-.17.05-.25.08-.15.14-.21c.06-.06.13-.11.2-.14s.16-.05.25-.05.17.02.25.05c.08.03.15.08.21.14.06.06.11.13.14.21s.05.17.05.25ZM261.48,118.98v5.21h-.92v-5.21h.92Z"/>
    <path class="cls-4" d="M266.01,119.83c-.04.08-.1.11-.19.11-.05,0-.11-.02-.17-.06s-.14-.08-.24-.13c-.09-.05-.21-.09-.34-.13-.13-.04-.28-.06-.46-.06-.15,0-.29.02-.42.06-.12.04-.23.09-.32.16-.09.07-.15.15-.2.24-.05.09-.07.19-.07.3,0,.13.04.25.12.33.08.09.18.17.31.23.13.06.27.12.43.17s.33.1.5.16c.17.06.33.12.5.19s.31.15.43.26c.13.1.23.23.31.38.08.15.12.33.12.54,0,.24-.04.46-.13.67s-.21.38-.38.53c-.17.15-.37.27-.62.35-.24.09-.53.13-.84.13-.36,0-.69-.06-.99-.18-.29-.12-.54-.27-.75-.46l.22-.35s.06-.08.1-.1c.04-.02.09-.04.14-.04.06,0,.13.02.2.07.07.05.15.1.25.16.1.06.22.11.36.16.14.05.32.07.52.07.18,0,.33-.02.47-.07s.25-.11.33-.19c.09-.08.16-.17.2-.27.04-.1.06-.21.06-.33,0-.14-.04-.26-.12-.36s-.18-.17-.31-.24c-.13-.07-.27-.12-.43-.17-.16-.05-.33-.1-.5-.16-.17-.05-.34-.12-.5-.19-.16-.07-.31-.16-.43-.26s-.23-.24-.31-.39-.12-.35-.12-.57c0-.2.04-.39.12-.57.08-.18.2-.34.36-.48.16-.14.35-.25.58-.33.23-.08.49-.12.79-.12.34,0,.65.05.92.16.27.11.51.26.71.45l-.21.33Z"/>
    <path class="cls-4" d="M270.58,120.95c0,.73.09,1.45.28,2.14.19.69.46,1.35.82,1.98.05.11.07.19.04.24s-.07.1-.12.14l-.41.25c-.26-.39-.48-.79-.66-1.17-.18-.39-.33-.78-.44-1.17-.11-.39-.19-.78-.24-1.18-.05-.4-.08-.8-.08-1.22s.03-.82.08-1.22c.05-.4.13-.79.24-1.18.11-.39.26-.78.44-1.17.18-.39.4-.78.66-1.18l.41.25c.05.04.09.08.12.14s.01.14-.04.24c-.36.62-.63,1.28-.82,1.97-.19.69-.28,1.41-.28,2.14Z"/>
    <path class="cls-4" d="M278.99,124.19h-.77c-.09,0-.16-.02-.22-.07-.05-.04-.1-.1-.12-.17l-.69-1.78h-3.31l-.69,1.78c-.02.06-.06.12-.12.16-.06.05-.13.07-.22.07h-.77l2.95-7.37h1.01l2.95,7.37ZM276.91,121.45l-1.16-3c-.03-.09-.07-.19-.11-.31-.04-.12-.07-.25-.11-.38-.07.28-.15.51-.22.69l-1.16,2.99h2.75Z"/>
    <path class="cls-4" d="M280.95,124.19h-1v-7.37h1v7.37Z"/>
    <path class="cls-4" d="M288.79,116.81v7.37h-.5c-.08,0-.15-.01-.2-.04-.05-.03-.11-.07-.16-.14l-4.26-5.56c0,.09.01.17.02.25,0,.08,0,.16,0,.23v5.25h-.88v-7.37h.51s.08,0,.11,0c.03,0,.06.01.08.03.02.01.05.03.07.05.02.02.05.05.08.08l4.27,5.55c0-.09-.01-.18-.02-.26,0-.08,0-.16,0-.24v-5.22h.88Z"/>
    <path class="cls-4" d="M295.21,123.38v.81h-4.55v-7.37h4.54v.81h-3.54v2.45h2.87v.78h-2.87v2.52h3.55Z"/>
    <path class="cls-4" d="M299.42,119.83c-.04.08-.1.11-.19.11-.05,0-.11-.02-.17-.06s-.14-.08-.24-.13c-.09-.05-.21-.09-.34-.13-.13-.04-.28-.06-.46-.06-.15,0-.29.02-.42.06-.12.04-.23.09-.32.16-.09.07-.15.15-.2.24-.05.09-.07.19-.07.3,0,.13.04.25.12.33.08.09.18.17.31.23.13.06.27.12.43.17s.33.1.5.16c.17.06.33.12.5.19s.31.15.43.26c.13.1.23.23.31.38.08.15.12.33.12.54,0,.24-.04.46-.13.67s-.21.38-.38.53c-.17.15-.37.27-.62.35-.24.09-.53.13-.84.13-.36,0-.69-.06-.99-.18-.29-.12-.54-.27-.75-.46l.22-.35s.06-.08.1-.1c.04-.02.09-.04.14-.04.06,0,.13.02.2.07.07.05.15.1.25.16.1.06.22.11.36.16.14.05.32.07.52.07.18,0,.33-.02.47-.07s.25-.11.33-.19c.09-.08.16-.17.2-.27.04-.1.06-.21.06-.33,0-.14-.04-.26-.12-.36s-.18-.17-.31-.24c-.13-.07-.27-.12-.43-.17-.16-.05-.33-.1-.5-.16-.17-.05-.34-.12-.5-.19-.16-.07-.31-.16-.43-.26s-.23-.24-.31-.39-.12-.35-.12-.57c0-.2.04-.39.12-.57.08-.18.2-.34.36-.48.16-.14.35-.25.58-.33.23-.08.49-.12.79-.12.34,0,.65.05.92.16.27.11.51.26.71.45l-.21.33Z"/>
  </g>
  <path class="cls-4" d="M301.42,120.95c0-.73-.09-1.45-.28-2.14-.19-.69-.46-1.35-.82-1.97-.03-.05-.04-.1-.05-.14s0-.07,0-.1c0-.03.03-.05.05-.08.02-.02.05-.04.07-.06l.41-.25c.26.4.48.79.66,1.18.18.39.33.78.44,1.17.11.39.19.78.24,1.18.05.4.08.8.08,1.22s-.03.83-.08,1.22c-.05.4-.13.79-.24,1.18-.11.39-.26.78-.44,1.17-.18.39-.4.78-.66,1.17l-.41-.25s-.05-.04-.07-.06c-.02-.02-.04-.05-.05-.08-.01-.03-.01-.06,0-.11,0-.04.02-.09.05-.14.36-.62.63-1.28.82-1.98.19-.69.28-1.41.28-2.14Z"/>
</svg>