<svg xmlns="http://www.w3.org/2000/svg" width="91.63" height="130.85" viewBox="0 0 91.63 130.85">
  <g id="Atualização_em_Fitoterapia_-_Aspectos_Clínicos_-_Telas-26" data-name="Atualização em Fitoterapia - Aspectos Clínicos - Telas-26" transform="translate(-1.68 -4.58)">
    <g id="Grupo_7871" data-name="Grupo 7871">
      <rect id="Retângulo_749" data-name="Retângulo 749" width="91.63" height="130.85" rx="45.815" transform="translate(1.68 4.58)" fill="#fff"/>
      <rect id="Retângulo_750" data-name="Retângulo 750" width="76.62" height="115.83" rx="38.31" transform="translate(9.19 12.08)" fill="none" stroke="#cda45e" stroke-miterlimit="10" stroke-width="1.5"/>
    </g>
    <g id="Grupo_7874" data-name="Grupo 7874">
      <g id="Grupo_7872" data-name="Grupo 7872">
        <path id="Caminho_10328" data-name="Caminho 10328" d="M20.24,102.58H18.88V96.05h1.36Z" fill="#cda45e"/>
        <path id="Caminho_10329" data-name="Caminho 10329" d="M28.81,96.05v6.53H27.62V98.3a2.825,2.825,0,0,1,.02-.29l-1.87,3.54a.5.5,0,0,1-.47.29h-.19a.507.507,0,0,1-.28-.07.459.459,0,0,1-.19-.22l-1.88-3.56c0,.1.02.21.02.3v4.28H21.59V96.04h1.18a.5.5,0,0,1,.12.02.18.18,0,0,1,.09.06.36.36,0,0,1,.08.12l1.83,3.48a3.182,3.182,0,0,1,.16.32c.05.11.1.23.14.34.05-.12.09-.24.14-.35s.1-.22.16-.33l1.81-3.47a.623.623,0,0,1,.09-.12.207.207,0,0,1,.1-.06.373.373,0,0,1,.12-.02H28.8Z" fill="#cda45e"/>
        <path id="Caminho_10330" data-name="Caminho 10330" d="M32.38,96.05a3.653,3.653,0,0,1,1.16.16,2.19,2.19,0,0,1,.8.44,1.739,1.739,0,0,1,.47.67,2.32,2.32,0,0,1,.15.84,2.3,2.3,0,0,1-.16.88,1.66,1.66,0,0,1-.48.69,2.338,2.338,0,0,1-.81.45,3.566,3.566,0,0,1-1.14.16h-.85v2.25H30.17V96.06h2.21Zm0,3.25a1.229,1.229,0,0,0,.93-.31,1.146,1.146,0,0,0,.29-.84,1.5,1.5,0,0,0-.07-.44.792.792,0,0,0-.23-.34,1.087,1.087,0,0,0-.38-.22,1.707,1.707,0,0,0-.54-.08h-.85v2.22h.85Z" fill="#cda45e"/>
        <path id="Caminho_10331" data-name="Caminho 10331" d="M42.12,99.31a3.614,3.614,0,0,1-.24,1.33,3.163,3.163,0,0,1-.68,1.06,3.07,3.07,0,0,1-1.05.7,3.879,3.879,0,0,1-2.74,0,3.212,3.212,0,0,1-1.06-.7,3.163,3.163,0,0,1-.68-1.06,3.805,3.805,0,0,1,0-2.66,3.163,3.163,0,0,1,.68-1.06,3.112,3.112,0,0,1,1.06-.7,3.879,3.879,0,0,1,2.74,0,3.07,3.07,0,0,1,1.05.7,3.163,3.163,0,0,1,.68,1.06,3.6,3.6,0,0,1,.24,1.32Zm-1.38,0a2.922,2.922,0,0,0-.13-.92,1.94,1.94,0,0,0-.39-.69,1.713,1.713,0,0,0-.62-.44,2.316,2.316,0,0,0-1.64,0,1.713,1.713,0,0,0-.62.44,1.94,1.94,0,0,0-.39.69,2.914,2.914,0,0,0-.14.92,2.654,2.654,0,0,0,.14.92,1.94,1.94,0,0,0,.39.69,1.688,1.688,0,0,0,.62.43,2.316,2.316,0,0,0,1.64,0,1.816,1.816,0,0,0,.62-.43,1.94,1.94,0,0,0,.39-.69A2.922,2.922,0,0,0,40.74,99.31Z" fill="#cda45e"/>
        <path id="Caminho_10332" data-name="Caminho 10332" d="M48.32,102.58H47.1a.551.551,0,0,1-.5-.26l-1.24-2a.549.549,0,0,0-.17-.17.5.5,0,0,0-.27-.05h-.46v2.49H43.11V96.06h2.05a4.358,4.358,0,0,1,1.17.14,2.389,2.389,0,0,1,.8.39,1.491,1.491,0,0,1,.46.6,1.921,1.921,0,0,1,.14.77,2,2,0,0,1-.09.61,1.771,1.771,0,0,1-.27.53,1.907,1.907,0,0,1-.43.42,2.646,2.646,0,0,1-.58.3,1.465,1.465,0,0,1,.24.17,1.213,1.213,0,0,1,.2.24l1.52,2.35Zm-3.16-3.44a1.911,1.911,0,0,0,.57-.08,1.062,1.062,0,0,0,.39-.23.832.832,0,0,0,.22-.34,1.213,1.213,0,0,0,.07-.43.87.87,0,0,0-.31-.72,1.464,1.464,0,0,0-.94-.26h-.7v2.07h.69Z" fill="#cda45e"/>
        <path id="Caminho_10333" data-name="Caminho 10333" d="M53.43,97.14H51.52v5.44H50.17V97.14H48.26V96.05h5.17Z" fill="#cda45e"/>
        <path id="Caminho_10334" data-name="Caminho 10334" d="M59.32,102.58H58.27a.522.522,0,0,1-.29-.08.537.537,0,0,1-.16-.21l-.44-1.25h-2.6l-.44,1.25a.489.489,0,0,1-.16.2.447.447,0,0,1-.28.09H52.84l2.55-6.53h1.38l2.55,6.53Zm-2.27-2.48-.71-2a3.849,3.849,0,0,1-.13-.37,4.28,4.28,0,0,1-.13-.46c-.04.17-.09.32-.13.47s-.09.27-.13.37l-.7,1.99h1.94Z" fill="#cda45e"/>
        <path id="Caminho_10335" data-name="Caminho 10335" d="M65.51,96.05v6.53h-.7a.722.722,0,0,1-.27-.05.5.5,0,0,1-.21-.18l-3.25-4.14c0,.1.02.21.02.31v4.06H59.91V96.05h.86a.354.354,0,0,1,.11.03.276.276,0,0,1,.09.07,1.2,1.2,0,0,1,.1.11l3.28,4.16-.03-.33a2.994,2.994,0,0,1,0-.3V96.06h1.19Z" fill="#cda45e"/>
        <path id="Caminho_10336" data-name="Caminho 10336" d="M71.5,97.14H69.59v5.44H68.24V97.14H66.33V96.05H71.5v1.09Z" fill="#cda45e"/>
        <path id="Caminho_10337" data-name="Caminho 10337" d="M73.68,97.11v1.68h2.18v1.02H73.68v1.71h2.8v1.06H72.32V96.05h4.16v1.06h-2.8Z" fill="#cda45e"/>
      </g>
      <line id="Linha_49" data-name="Linha 49" x2="52.98" transform="translate(21.01 108.87)" fill="none" stroke="#cda45e" stroke-miterlimit="10" stroke-width="2"/>
      <g id="Grupo_7873" data-name="Grupo 7873">
        <path id="Caminho_10338" data-name="Caminho 10338" d="M61.96,37.73a5.163,5.163,0,0,0-4.54-2.58H37.44a5.311,5.311,0,0,0-4.54,2.58L22.94,55.06a5.155,5.155,0,0,0,0,5.23L32.96,77.56a5.163,5.163,0,0,0,4.54,2.58H57.48a5.311,5.311,0,0,0,4.54-2.58L72.04,60.23a5.155,5.155,0,0,0,0-5.23L61.96,37.73ZM69.4,58.78,59.44,76.11a2.224,2.224,0,0,1-1.95,1.13H37.45a2.212,2.212,0,0,1-1.95-1.13L25.54,58.78a2.4,2.4,0,0,1,0-2.27L35.5,39.18a2.224,2.224,0,0,1,1.95-1.13H57.43a2.212,2.212,0,0,1,1.95,1.13L69.4,56.51a2.117,2.117,0,0,1,0,2.27Z" fill="#cda45e"/>
        <path id="Caminho_10339" data-name="Caminho 10339" d="M47.5,63.13a1.528,1.528,0,0,0,1.51-1.51V45.42a1.51,1.51,0,0,0-3.02,0V61.68A1.518,1.518,0,0,0,47.5,63.13Z" fill="#cda45e"/>
        <path id="Caminho_10340" data-name="Caminho 10340" d="M47.5,65.84a2.08,2.08,0,1,0,2.08,2.08A2.1,2.1,0,0,0,47.5,65.84Z" fill="#cda45e"/>
      </g>
    </g>
  </g>
</svg>
