<svg xmlns="http://www.w3.org/2000/svg" width="91.63" height="130.85" viewBox="0 0 91.63 130.85">
  <g id="Atualização_em_Fitoterapia_-_Aspectos_Clínicos_-_Telas-23" data-name="Atualização em Fitoterapia - Aspectos Clínicos - Telas-23" transform="translate(-1.68 -4.58)">
    <g id="Grupo_7860" data-name="Grupo 7860">
      <rect id="Retângulo_743" data-name="Retângulo 743" width="91.63" height="130.85" rx="45.815" transform="translate(1.68 4.58)" fill="#fff"/>
      <rect id="Retângulo_744" data-name="Retângulo 744" width="76.62" height="115.83" rx="38.31" transform="translate(9.19 12.08)" fill="none" stroke="#94a26e" stroke-miterlimit="10" stroke-width="1.5"/>
    </g>
    <g id="Grupo_7862" data-name="Grupo 7862">
      <g id="Grupo_7861" data-name="Grupo 7861">
        <path id="Caminho_10295" data-name="Caminho 10295" d="M44.65,97.95a3.523,3.523,0,0,1-.24,1.32,3.034,3.034,0,0,1-.68,1.03,3,3,0,0,1-1.05.67,3.753,3.753,0,0,1-1.37.24H38.8V94.68h2.51a3.753,3.753,0,0,1,1.37.24,3.033,3.033,0,0,1,1.73,1.71,3.508,3.508,0,0,1,.24,1.31Zm-1.39,0a2.922,2.922,0,0,0-.13-.92,1.94,1.94,0,0,0-.39-.69,1.8,1.8,0,0,0-.61-.44,2.14,2.14,0,0,0-.82-.15H40.16v4.41h1.15a2.1,2.1,0,0,0,.82-.15,1.6,1.6,0,0,0,.61-.44,1.9,1.9,0,0,0,.39-.7,2.987,2.987,0,0,0,.13-.93Z" fill="#94a26e"/>
        <path id="Caminho_10296" data-name="Caminho 10296" d="M47,101.22H45.64V94.69H47Z" fill="#94a26e"/>
        <path id="Caminho_10297" data-name="Caminho 10297" d="M52.82,99.62a.256.256,0,0,1,.19.08l.54.57a2.551,2.551,0,0,1-.98.77,3.334,3.334,0,0,1-1.4.26,3.271,3.271,0,0,1-1.32-.25,2.826,2.826,0,0,1-.99-.7,3.209,3.209,0,0,1-.63-1.06,3.845,3.845,0,0,1-.22-1.34,3.929,3.929,0,0,1,.11-.92,3.161,3.161,0,0,1,.31-.81,3.3,3.3,0,0,1,.49-.67,3,3,0,0,1,1.44-.83,3.781,3.781,0,0,1,.91-.11,3.661,3.661,0,0,1,.68.06,2.977,2.977,0,0,1,.6.18,2.836,2.836,0,0,1,.52.27,2.438,2.438,0,0,1,.42.35l-.45.62a.879.879,0,0,1-.1.1.286.286,0,0,1-.17.04.4.4,0,0,1-.22-.08,2.62,2.62,0,0,0-.27-.17,2.183,2.183,0,0,0-.4-.17,2.05,2.05,0,0,0-.61-.08,1.861,1.861,0,0,0-.75.15,1.664,1.664,0,0,0-.59.43,2.087,2.087,0,0,0-.38.69,2.944,2.944,0,0,0-.13.93,2.767,2.767,0,0,0,.15.94,2.173,2.173,0,0,0,.4.7,1.758,1.758,0,0,0,.59.43,1.8,1.8,0,0,0,.73.15,2.817,2.817,0,0,0,.42-.02,1.981,1.981,0,0,0,.35-.08,1.379,1.379,0,0,0,.3-.14,2.469,2.469,0,0,0,.29-.22.607.607,0,0,1,.1-.07.238.238,0,0,1,.12-.03Z" fill="#94a26e"/>
        <path id="Caminho_10298" data-name="Caminho 10298" d="M60.02,101.22H58.97a.522.522,0,0,1-.29-.08.537.537,0,0,1-.16-.21l-.44-1.25h-2.6l-.44,1.25a.489.489,0,0,1-.16.2.447.447,0,0,1-.28.09H53.54l2.55-6.53h1.38l2.55,6.53Zm-2.27-2.48-.71-2a3.849,3.849,0,0,1-.13-.37,4.28,4.28,0,0,1-.13-.46c-.04.17-.09.32-.13.47s-.09.27-.13.37l-.7,1.99h1.94Z" fill="#94a26e"/>
      </g>
      <line id="Linha_46" data-name="Linha 46" x2="52.98" transform="translate(22.53 108.89)" fill="none" stroke="#94a26e" stroke-miterlimit="10" stroke-width="2"/>
      <path id="Caminho_10299" data-name="Caminho 10299" d="M32.61,66.89a6.84,6.84,0,0,1,1.29,3.47L32.01,85.41a.98.98,0,0,0,.23.75.928.928,0,0,0,.71.32H55.73a.949.949,0,0,0,.73-.35.976.976,0,0,0,.2-.79l-1.69-8.35h4.78c2.81,0,4.98-.76,6.45-2.25a6.593,6.593,0,0,0,1.84-4.4V63.46l3.17-1.63a.947.947,0,0,0,.41-1.27l-3.68-7.22a19.524,19.524,0,0,0,.1-1.95A19.931,19.931,0,0,0,48.13,31.48a30.05,30.05,0,0,0-7.7,1.02A7.542,7.542,0,0,0,29.1,39.07a6.946,6.946,0,0,0,.25,1.62A25.821,25.821,0,0,0,26.31,53.3c0,5.02,2.34,8.19,4.81,11.55.49.67,1,1.35,1.48,2.05ZM36.7,33.37a5.693,5.693,0,0,1,5.69,5.69,10.334,10.334,0,0,1-.75,2.83l-2.28,6.18H34.04l-2.28-6.15c-.14-.35-.31-.85-.46-1.35v-.03a6.088,6.088,0,0,1-.28-1.47,5.693,5.693,0,0,1,5.69-5.69Zm-2.38,16.6h4.74v1.58H34.32Zm4.66,3.47c-.12.69-.36,1.27-.62,1.27H35.04c-.27,0-.5-.61-.62-1.27h4.56ZM32.66,63.71c-2.38-3.24-4.44-6.03-4.44-10.43a24.926,24.926,0,0,1,2.01-10.05l2.2,5.95v3.3c0,1.53.55,4.11,2.61,4.11h3.32c2.06,0,2.61-2.58,2.61-4.11V49.17l2.44-6.61a12.12,12.12,0,0,0,.88-3.52,7.465,7.465,0,0,0-1.99-5.07,28.378,28.378,0,0,1,5.84-.62A18.042,18.042,0,0,1,66.16,51.37a19.723,19.723,0,0,1-.11,2.03v.04c0,.02-.01.04-.01.06a1.178,1.178,0,0,0,.1.45l3.36,6.61-2.84,1.46a.935.935,0,0,0-.51.84v7.47a4.778,4.778,0,0,1-1.32,3.08,6.922,6.922,0,0,1-5.07,1.66H53.82a.949.949,0,0,0-.73.35.976.976,0,0,0-.2.79l1.69,8.35H34.03l1.76-14.11a8.472,8.472,0,0,0-1.62-4.66c-.5-.72-1.01-1.41-1.51-2.1Z" fill="#94a26e"/>
    </g>
  </g>
</svg>
