<?xml version="1.0" encoding="UTF-8"?>
<svg id="Camada_1" xmlns="http://www.w3.org/2000/svg" version="1.1" viewBox="0 0 40 40">
  <!-- Generator: Adobe Illustrator 29.3.1, SVG Export Plug-In . SVG Version: 2.1.0 Build 151)  -->
  <defs>
    <style>
      .st0 {
        fill: #94a26e;
      }
    </style>
  </defs>
  <path class="st0" d="M20,0C8.9,0,0,8.9,0,20s8.9,20,20,20,20-9,20-20S31,0,20,0ZM28.1,16.4l-9.6,9.6c-.4.4-.9.6-1.4.6s-1-.2-1.4-.6l-4.1-4.1c-.8-.8-.8-2,0-2.8.8-.8,2-.8,2.8,0l2.7,2.7,8.2-8.2c.8-.8,2-.8,2.8,0,.8.8.8,2,0,2.8h0Z"/>
</svg>