<svg xmlns="http://www.w3.org/2000/svg" width="91.63" height="130.85" viewBox="0 0 91.63 130.85">
  <g id="Atualização_em_Fitoterapia_-_Aspectos_Clínicos_-_Telas-21" data-name="Atualização em Fitoterapia - Aspectos Clínicos - Telas-21" transform="translate(-1.68 -2.5)">
    <g id="Grupo_7851" data-name="Grupo 7851">
      <rect id="Retângulo_739" data-name="Retângulo 739" width="91.63" height="130.85" rx="45.815" transform="translate(1.68 2.5)" fill="#fff"/>
      <rect id="Retângulo_740" data-name="Retângulo 740" width="76.62" height="115.83" rx="38.31" transform="translate(9.19 10)" fill="none" stroke="#94a26e" stroke-miterlimit="10" stroke-width="1.5"/>
    </g>
    <g id="Grupo_7855" data-name="Grupo 7855">
      <g id="Grupo_7852" data-name="Grupo 7852">
        <path id="Caminho_10266" data-name="Caminho 10266" d="M24.82,98.04v1.1H20.94V92.61h1.35v5.43h2.52Z" fill="#94a26e"/>
        <path id="Caminho_10267" data-name="Caminho 10267" d="M27,93.67v1.68h2.18v1.02H27v1.71h2.8v1.06H25.64V92.61H29.8v1.06H27Z" fill="#94a26e"/>
        <path id="Caminho_10268" data-name="Caminho 10268" d="M33.85,95.82h2.24v2.7a3.514,3.514,0,0,1-1.06.53,4.3,4.3,0,0,1-1.2.17,4,4,0,0,1-1.46-.25,3.376,3.376,0,0,1-1.12-.7,2.954,2.954,0,0,1-.71-1.06,3.439,3.439,0,0,1-.25-1.34,3.683,3.683,0,0,1,.24-1.35,2.911,2.911,0,0,1,.69-1.05,3.333,3.333,0,0,1,1.08-.69,3.745,3.745,0,0,1,1.42-.25,3.7,3.7,0,0,1,.76.07,3.834,3.834,0,0,1,.65.18,3.4,3.4,0,0,1,.54.27,2.581,2.581,0,0,1,.45.35l-.39.6a.4.4,0,0,1-.23.18.408.408,0,0,1-.31-.07,2.58,2.58,0,0,0-.32-.18,2.517,2.517,0,0,0-.33-.14,2.114,2.114,0,0,0-.38-.09,3.426,3.426,0,0,0-.48-.03,1.968,1.968,0,0,0-.82.16,1.775,1.775,0,0,0-.63.45,1.958,1.958,0,0,0-.4.69,2.832,2.832,0,0,0-.14.9,2.948,2.948,0,0,0,.15.97,1.881,1.881,0,0,0,1.1,1.17,2.407,2.407,0,0,0,.87.15,2.049,2.049,0,0,0,.58-.07,2.507,2.507,0,0,0,.5-.18v-1.1h-.74a.244.244,0,0,1-.2-.07.241.241,0,0,1-.07-.18v-.75Z" fill="#94a26e"/>
        <path id="Caminho_10269" data-name="Caminho 10269" d="M38.56,99.14H37.2V92.61h1.36Z" fill="#94a26e"/>
        <path id="Caminho_10270" data-name="Caminho 10270" d="M43.46,93.86a.392.392,0,0,1-.13.15.286.286,0,0,1-.17.05.352.352,0,0,1-.21-.07q-.12-.075-.27-.15c-.1-.05-.22-.1-.35-.15a1.308,1.308,0,0,0-.46-.07,1.01,1.01,0,0,0-.7.21.683.683,0,0,0-.23.55.515.515,0,0,0,.13.36,1.154,1.154,0,0,0,.34.25,2.874,2.874,0,0,0,.47.18q.27.075.54.18a3.246,3.246,0,0,1,.54.23,1.983,1.983,0,0,1,.47.33,1.541,1.541,0,0,1,.34.48,1.784,1.784,0,0,1,.13.7,2.048,2.048,0,0,1-.16.83,1.839,1.839,0,0,1-.45.68,2.12,2.12,0,0,1-.72.46,2.7,2.7,0,0,1-.97.17,3.256,3.256,0,0,1-.62-.06,2.884,2.884,0,0,1-.59-.18,3.4,3.4,0,0,1-.54-.27,1.938,1.938,0,0,1-.44-.35l.4-.64a.83.83,0,0,1,.13-.12.337.337,0,0,1,.17-.05.479.479,0,0,1,.26.09c.09.06.19.13.31.2a2.613,2.613,0,0,0,.41.2,1.566,1.566,0,0,0,.56.09,1.062,1.062,0,0,0,.73-.22.793.793,0,0,0,.26-.64.568.568,0,0,0-.13-.4,1.088,1.088,0,0,0-.33-.26,2.561,2.561,0,0,0-.47-.18c-.18-.05-.36-.1-.54-.16a3.214,3.214,0,0,1-.54-.22,2.209,2.209,0,0,1-.47-.33,1.5,1.5,0,0,1-.33-.51,2.074,2.074,0,0,1-.13-.76,1.951,1.951,0,0,1,.14-.71,1.8,1.8,0,0,1,.42-.61,2.183,2.183,0,0,1,.69-.43,2.451,2.451,0,0,1,.93-.16,3.2,3.2,0,0,1,1.09.18,2.411,2.411,0,0,1,.85.51l-.33.63Z" fill="#94a26e"/>
        <path id="Caminho_10271" data-name="Caminho 10271" d="M48.76,98.04v1.1H44.88V92.61h1.35v5.43h2.52Z" fill="#94a26e"/>
        <path id="Caminho_10272" data-name="Caminho 10272" d="M55.3,99.14H54.25a.522.522,0,0,1-.29-.08.537.537,0,0,1-.16-.21l-.44-1.25h-2.6l-.44,1.25a.489.489,0,0,1-.16.2.447.447,0,0,1-.28.09H48.82l2.55-6.53h1.38l2.55,6.53Zm-2.27-2.48-.71-2a3.849,3.849,0,0,1-.13-.37,4.28,4.28,0,0,1-.13-.46c-.04.17-.09.32-.13.47s-.09.27-.13.37l-.7,1.99h1.94Z" fill="#94a26e"/>
        <path id="Caminho_10273" data-name="Caminho 10273" d="M60.87,98.19a2.466,2.466,0,0,1-.86.71,3.251,3.251,0,0,1-1.19.31l-.05.19a1.518,1.518,0,0,1,.36.12.844.844,0,0,1,.23.16.586.586,0,0,1,.13.19.567.567,0,0,1-.04.5.674.674,0,0,1-.23.21,1.173,1.173,0,0,1-.36.13,2.258,2.258,0,0,1-.47.05,1.83,1.83,0,0,1-.34-.02c-.11-.01-.21-.04-.32-.06l.11-.38a.132.132,0,0,1,.14-.11.3.3,0,0,1,.13.02.5.5,0,0,0,.19.02.344.344,0,0,0,.2-.05.143.143,0,0,0,.06-.12c0-.08-.05-.13-.15-.16a3.173,3.173,0,0,0-.48-.1l.2-.59a2.985,2.985,0,0,1-2.05-1.05,2.952,2.952,0,0,1-.55-1.02,4.109,4.109,0,0,1-.08-2.18,3.161,3.161,0,0,1,.31-.81,3.3,3.3,0,0,1,.49-.67,3,3,0,0,1,1.44-.83,3.781,3.781,0,0,1,.91-.11,3.661,3.661,0,0,1,.68.06,2.977,2.977,0,0,1,.6.18,2.836,2.836,0,0,1,.52.27,2.438,2.438,0,0,1,.42.35l-.45.62a.879.879,0,0,1-.1.1.286.286,0,0,1-.17.04.4.4,0,0,1-.22-.08,2.62,2.62,0,0,0-.27-.17,2.183,2.183,0,0,0-.4-.17,2.05,2.05,0,0,0-.61-.08,1.861,1.861,0,0,0-.75.15,1.664,1.664,0,0,0-.59.43,2.087,2.087,0,0,0-.38.69,2.944,2.944,0,0,0-.13.93,2.767,2.767,0,0,0,.15.94,2.173,2.173,0,0,0,.4.7,1.758,1.758,0,0,0,.59.43,1.8,1.8,0,0,0,.73.15,2.817,2.817,0,0,0,.42-.02,1.981,1.981,0,0,0,.35-.08,1.379,1.379,0,0,0,.3-.14,2.469,2.469,0,0,0,.29-.22.607.607,0,0,1,.1-.07.238.238,0,0,1,.12-.03.256.256,0,0,1,.19.08l.54.57Z" fill="#94a26e"/>
        <path id="Caminho_10274" data-name="Caminho 10274" d="M67.34,99.14H66.29a.522.522,0,0,1-.29-.08.537.537,0,0,1-.16-.21L65.4,97.6H62.8l-.44,1.25a.489.489,0,0,1-.16.2.447.447,0,0,1-.28.09H60.86l2.55-6.53h1.38l2.55,6.53Zm-2.68-7.71a.306.306,0,0,0,.17-.04.4.4,0,0,0,.12-.1.539.539,0,0,0,.07-.13.675.675,0,0,0,.02-.14h.75a1.631,1.631,0,0,1-.06.45,1.046,1.046,0,0,1-.19.38.906.906,0,0,1-.31.27.816.816,0,0,1-.42.1,1,1,0,0,1-.41-.07,3.017,3.017,0,0,1-.31-.15c-.09-.06-.18-.11-.25-.15a.442.442,0,0,0-.24-.07.306.306,0,0,0-.17.04.357.357,0,0,0-.11.1.827.827,0,0,0-.07.13.34.34,0,0,0-.02.14h-.76a1.327,1.327,0,0,1,.07-.45,1.287,1.287,0,0,1,.19-.39.906.906,0,0,1,.31-.27.816.816,0,0,1,.42-.1,1,1,0,0,1,.41.07,3.017,3.017,0,0,1,.31.15,2.357,2.357,0,0,0,.25.15.411.411,0,0,0,.23.07Zm.41,5.23-.71-2a3.849,3.849,0,0,1-.13-.37,4.279,4.279,0,0,1-.13-.46c-.04.17-.09.32-.13.47s-.09.27-.13.37l-.7,1.99h1.94Z" fill="#94a26e"/>
        <path id="Caminho_10275" data-name="Caminho 10275" d="M74.05,95.87a3.614,3.614,0,0,1-.24,1.33,3.163,3.163,0,0,1-.68,1.06,3.07,3.07,0,0,1-1.05.7,3.879,3.879,0,0,1-2.74,0,3.212,3.212,0,0,1-1.06-.7,3.163,3.163,0,0,1-.68-1.06,3.805,3.805,0,0,1,0-2.66,3.163,3.163,0,0,1,.68-1.06,3.112,3.112,0,0,1,1.06-.7,3.879,3.879,0,0,1,2.74,0,3.07,3.07,0,0,1,1.05.7,3.163,3.163,0,0,1,.68,1.06,3.6,3.6,0,0,1,.24,1.32Zm-1.38,0a2.922,2.922,0,0,0-.13-.92,1.94,1.94,0,0,0-.39-.69,1.713,1.713,0,0,0-.62-.44,2.316,2.316,0,0,0-1.64,0,1.713,1.713,0,0,0-.62.44,1.94,1.94,0,0,0-.39.69,2.914,2.914,0,0,0-.14.92,2.654,2.654,0,0,0,.14.92,1.94,1.94,0,0,0,.39.69,1.688,1.688,0,0,0,.62.43,2.316,2.316,0,0,0,1.64,0,1.816,1.816,0,0,0,.62-.43,1.94,1.94,0,0,0,.39-.69A2.922,2.922,0,0,0,72.67,95.87Z" fill="#94a26e"/>
      </g>
      <line id="Linha_44" data-name="Linha 44" x2="52.98" transform="translate(21.01 106.81)" fill="none" stroke="#94a26e" stroke-miterlimit="10" stroke-width="2"/>
      <g id="Grupo_7854" data-name="Grupo 7854">
        <path id="Caminho_10276" data-name="Caminho 10276" d="M44.57,78.44H19.14a.982.982,0,0,1-.98-.98c0-1.69,1.23-4.89,5.87-4.89H39.68c4.64,0,5.87,3.2,5.87,4.89A.982.982,0,0,1,44.57,78.44ZM20.33,76.49H43.37c-.35-.86-1.28-1.96-3.69-1.96H24.03c-2.42,0-3.35,1.1-3.7,1.96Z" fill="#94a26e"/>
        <path id="Caminho_10277" data-name="Caminho 10277" d="M39.67,74.53H24.02a.982.982,0,0,1-.98-.98V69.64a.982.982,0,0,1,.98-.98H39.67a.982.982,0,0,1,.98.98v3.91A.982.982,0,0,1,39.67,74.53ZM25,72.57H38.7V70.61H25Z" fill="#94a26e"/>
        <g id="Grupo_7853" data-name="Grupo 7853">
          <path id="Caminho_10278" data-name="Caminho 10278" d="M73.91,73.55a1,1,0,0,1-.47-.12L41.78,56.24a.972.972,0,0,1-.4-1.31l1.8-3.48a.955.955,0,0,1,.58-.48.979.979,0,0,1,.75.07L76.33,67.79a.976.976,0,0,1,.42,1.3L74.79,73a.987.987,0,0,1-.58.5,1.04,1.04,0,0,1-.29.05ZM43.56,54.98,73.49,71.23l1.08-2.15L44.47,53.23l-.9,1.75Z" fill="#94a26e"/>
          <path id="Caminho_10279" data-name="Caminho 10279" d="M38.55,63.26a.908.908,0,0,1-.45-.11L26.8,57.31a.985.985,0,0,1-.42-1.32l8.99-17.38a.979.979,0,0,1,1.32-.42l11.3,5.84a1,1,0,0,1,.48.57.98.98,0,0,1-.06.75L39.42,62.73a.984.984,0,0,1-.87.53Zm-9.97-7.24,9.56,4.94,8.09-15.64-9.56-4.94L28.58,56.02Z" fill="#94a26e"/>
          <path id="Caminho_10280" data-name="Caminho 10280" d="M38.5,67.63a1.03,1.03,0,0,1-.45-.11L23.28,59.88a.979.979,0,0,1-.42-1.32l1.8-3.47a.97.97,0,0,1,.57-.48.98.98,0,0,1,.75.06l14.77,7.64a.979.979,0,0,1,.42,1.32l-1.8,3.48a.97.97,0,0,1-.57.48,1.047,1.047,0,0,1-.3.05ZM25.04,58.6l13.03,6.74.9-1.74L25.94,56.86l-.9,1.74Z" fill="#94a26e"/>
          <path id="Caminho_10281" data-name="Caminho 10281" d="M49.28,46.78a.934.934,0,0,1-.45-.11L34.33,39.2a.977.977,0,0,1-.43-1.31l1.96-3.91a.987.987,0,0,1,.58-.5.962.962,0,0,1,.76.08l14.34,7.9a.993.993,0,0,1,.4,1.31l-1.8,3.48a.962.962,0,0,1-.87.53ZM36.09,37.91l12.77,6.58.91-1.76L37.16,35.78l-1.07,2.14Z" fill="#94a26e"/>
        </g>
      </g>
    </g>
  </g>
</svg>
